<?xml version="1.0" encoding="utf-8" standalone="no"?>
<!DOCTYPE svg PUBLIC "-//W3C//DTD SVG 1.1//EN"
  "http://www.w3.org/Graphics/SVG/1.1/DTD/svg11.dtd">
<svg xmlns:xlink="http://www.w3.org/1999/xlink" width="460.8pt" height="345.6pt" viewBox="0 0 460.8 345.6" xmlns="http://www.w3.org/2000/svg" version="1.1">
 <metadata>
  <rdf:RDF xmlns:dc="http://purl.org/dc/elements/1.1/" xmlns:cc="http://creativecommons.org/ns#" xmlns:rdf="http://www.w3.org/1999/02/22-rdf-syntax-ns#">
   <cc:Work>
    <dc:type rdf:resource="http://purl.org/dc/dcmitype/StillImage"/>
    <dc:date>2023-04-07T09:01:02.077165</dc:date>
    <dc:format>image/svg+xml</dc:format>
    <dc:creator>
     <cc:Agent>
      <dc:title>Matplotlib v3.5.2, https://matplotlib.org/</dc:title>
     </cc:Agent>
    </dc:creator>
   </cc:Work>
  </rdf:RDF>
 </metadata>
 <defs>
  <style type="text/css">*{stroke-linejoin: round; stroke-linecap: butt}</style>
 </defs>
 <g id="figure_1">
  <g id="patch_1">
   <path d="M 0 345.6 
L 460.8 345.6 
L 460.8 0 
L 0 0 
z
" style="fill: #ffffff"/>
  </g>
  <g id="axes_1">
   <g id="patch_2">
    <path d="M 34.16 291.28 
L 453.192 291.28 
L 453.192 3 
L 34.16 3 
z
" style="fill: #ffffff"/>
   </g>
   <g id="matplotlib.axis_1">
    <g id="xtick_1">
     <g id="line2d_1">
      <path d="M 105.974634 291.28 
L 105.974634 3 
" clip-path="url(#pb9645bd483)" style="fill: none; stroke: #b0b0b0; stroke-width: 0.8; stroke-linecap: square"/>
     </g>
     <g id="line2d_2">
      <defs>
       <path id="m6886d2f364" d="M 0 0 
L 0 3.5 
" style="stroke: #000000; stroke-width: 0.8"/>
      </defs>
      <g>
       <use xlink:href="#m6886d2f364" x="105.974634" y="291.28" style="stroke: #000000; stroke-width: 0.8"/>
      </g>
     </g>
     <g id="text_1">
      <!-- -2 -->
      <g transform="translate(96.004321 313.476875)scale(0.2 -0.2)">
       <defs>
        <path id="DejaVuSans-2d" d="M 313 2009 
L 1997 2009 
L 1997 1497 
L 313 1497 
L 313 2009 
z
" transform="scale(0.015625)"/>
        <path id="DejaVuSans-32" d="M 1228 531 
L 3431 531 
L 3431 0 
L 469 0 
L 469 531 
Q 828 903 1448 1529 
Q 2069 2156 2228 2338 
Q 2531 2678 2651 2914 
Q 2772 3150 2772 3378 
Q 2772 3750 2511 3984 
Q 2250 4219 1831 4219 
Q 1534 4219 1204 4116 
Q 875 4013 500 3803 
L 500 4441 
Q 881 4594 1212 4672 
Q 1544 4750 1819 4750 
Q 2544 4750 2975 4387 
Q 3406 4025 3406 3419 
Q 3406 3131 3298 2873 
Q 3191 2616 2906 2266 
Q 2828 2175 2409 1742 
Q 1991 1309 1228 531 
z
" transform="scale(0.015625)"/>
       </defs>
       <use xlink:href="#DejaVuSans-2d"/>
       <use xlink:href="#DejaVuSans-32" x="36.083984"/>
      </g>
     </g>
    </g>
    <g id="xtick_2">
     <g id="line2d_3">
      <path d="M 243.676 291.28 
L 243.676 3 
" clip-path="url(#pb9645bd483)" style="fill: none; stroke: #b0b0b0; stroke-width: 0.8; stroke-linecap: square"/>
     </g>
     <g id="line2d_4">
      <g>
       <use xlink:href="#m6886d2f364" x="243.676" y="291.28" style="stroke: #000000; stroke-width: 0.8"/>
      </g>
     </g>
     <g id="text_2">
      <!-- 0 -->
      <g transform="translate(237.3135 313.476875)scale(0.2 -0.2)">
       <defs>
        <path id="DejaVuSans-30" d="M 2034 4250 
Q 1547 4250 1301 3770 
Q 1056 3291 1056 2328 
Q 1056 1369 1301 889 
Q 1547 409 2034 409 
Q 2525 409 2770 889 
Q 3016 1369 3016 2328 
Q 3016 3291 2770 3770 
Q 2525 4250 2034 4250 
z
M 2034 4750 
Q 2819 4750 3233 4129 
Q 3647 3509 3647 2328 
Q 3647 1150 3233 529 
Q 2819 -91 2034 -91 
Q 1250 -91 836 529 
Q 422 1150 422 2328 
Q 422 3509 836 4129 
Q 1250 4750 2034 4750 
z
" transform="scale(0.015625)"/>
       </defs>
       <use xlink:href="#DejaVuSans-30"/>
      </g>
     </g>
    </g>
    <g id="xtick_3">
     <g id="line2d_5">
      <path d="M 381.377366 291.28 
L 381.377366 3 
" clip-path="url(#pb9645bd483)" style="fill: none; stroke: #b0b0b0; stroke-width: 0.8; stroke-linecap: square"/>
     </g>
     <g id="line2d_6">
      <g>
       <use xlink:href="#m6886d2f364" x="381.377366" y="291.28" style="stroke: #000000; stroke-width: 0.8"/>
      </g>
     </g>
     <g id="text_3">
      <!-- 2 -->
      <g transform="translate(375.014866 313.476875)scale(0.2 -0.2)">
       <use xlink:href="#DejaVuSans-32"/>
      </g>
     </g>
    </g>
    <g id="text_4">
     <!-- log10 of FEvals ratio -->
     <g transform="translate(141.371312 336.833125)scale(0.2 -0.2)">
      <defs>
       <path id="DejaVuSans-6c" d="M 603 4863 
L 1178 4863 
L 1178 0 
L 603 0 
L 603 4863 
z
" transform="scale(0.015625)"/>
       <path id="DejaVuSans-6f" d="M 1959 3097 
Q 1497 3097 1228 2736 
Q 959 2375 959 1747 
Q 959 1119 1226 758 
Q 1494 397 1959 397 
Q 2419 397 2687 759 
Q 2956 1122 2956 1747 
Q 2956 2369 2687 2733 
Q 2419 3097 1959 3097 
z
M 1959 3584 
Q 2709 3584 3137 3096 
Q 3566 2609 3566 1747 
Q 3566 888 3137 398 
Q 2709 -91 1959 -91 
Q 1206 -91 779 398 
Q 353 888 353 1747 
Q 353 2609 779 3096 
Q 1206 3584 1959 3584 
z
" transform="scale(0.015625)"/>
       <path id="DejaVuSans-67" d="M 2906 1791 
Q 2906 2416 2648 2759 
Q 2391 3103 1925 3103 
Q 1463 3103 1205 2759 
Q 947 2416 947 1791 
Q 947 1169 1205 825 
Q 1463 481 1925 481 
Q 2391 481 2648 825 
Q 2906 1169 2906 1791 
z
M 3481 434 
Q 3481 -459 3084 -895 
Q 2688 -1331 1869 -1331 
Q 1566 -1331 1297 -1286 
Q 1028 -1241 775 -1147 
L 775 -588 
Q 1028 -725 1275 -790 
Q 1522 -856 1778 -856 
Q 2344 -856 2625 -561 
Q 2906 -266 2906 331 
L 2906 616 
Q 2728 306 2450 153 
Q 2172 0 1784 0 
Q 1141 0 747 490 
Q 353 981 353 1791 
Q 353 2603 747 3093 
Q 1141 3584 1784 3584 
Q 2172 3584 2450 3431 
Q 2728 3278 2906 2969 
L 2906 3500 
L 3481 3500 
L 3481 434 
z
" transform="scale(0.015625)"/>
       <path id="DejaVuSans-31" d="M 794 531 
L 1825 531 
L 1825 4091 
L 703 3866 
L 703 4441 
L 1819 4666 
L 2450 4666 
L 2450 531 
L 3481 531 
L 3481 0 
L 794 0 
L 794 531 
z
" transform="scale(0.015625)"/>
       <path id="DejaVuSans-20" transform="scale(0.015625)"/>
       <path id="DejaVuSans-66" d="M 2375 4863 
L 2375 4384 
L 1825 4384 
Q 1516 4384 1395 4259 
Q 1275 4134 1275 3809 
L 1275 3500 
L 2222 3500 
L 2222 3053 
L 1275 3053 
L 1275 0 
L 697 0 
L 697 3053 
L 147 3053 
L 147 3500 
L 697 3500 
L 697 3744 
Q 697 4328 969 4595 
Q 1241 4863 1831 4863 
L 2375 4863 
z
" transform="scale(0.015625)"/>
       <path id="DejaVuSans-46" d="M 628 4666 
L 3309 4666 
L 3309 4134 
L 1259 4134 
L 1259 2759 
L 3109 2759 
L 3109 2228 
L 1259 2228 
L 1259 0 
L 628 0 
L 628 4666 
z
" transform="scale(0.015625)"/>
       <path id="DejaVuSans-45" d="M 628 4666 
L 3578 4666 
L 3578 4134 
L 1259 4134 
L 1259 2753 
L 3481 2753 
L 3481 2222 
L 1259 2222 
L 1259 531 
L 3634 531 
L 3634 0 
L 628 0 
L 628 4666 
z
" transform="scale(0.015625)"/>
       <path id="DejaVuSans-76" d="M 191 3500 
L 800 3500 
L 1894 563 
L 2988 3500 
L 3597 3500 
L 2284 0 
L 1503 0 
L 191 3500 
z
" transform="scale(0.015625)"/>
       <path id="DejaVuSans-61" d="M 2194 1759 
Q 1497 1759 1228 1600 
Q 959 1441 959 1056 
Q 959 750 1161 570 
Q 1363 391 1709 391 
Q 2188 391 2477 730 
Q 2766 1069 2766 1631 
L 2766 1759 
L 2194 1759 
z
M 3341 1997 
L 3341 0 
L 2766 0 
L 2766 531 
Q 2569 213 2275 61 
Q 1981 -91 1556 -91 
Q 1019 -91 701 211 
Q 384 513 384 1019 
Q 384 1609 779 1909 
Q 1175 2209 1959 2209 
L 2766 2209 
L 2766 2266 
Q 2766 2663 2505 2880 
Q 2244 3097 1772 3097 
Q 1472 3097 1187 3025 
Q 903 2953 641 2809 
L 641 3341 
Q 956 3463 1253 3523 
Q 1550 3584 1831 3584 
Q 2591 3584 2966 3190 
Q 3341 2797 3341 1997 
z
" transform="scale(0.015625)"/>
       <path id="DejaVuSans-73" d="M 2834 3397 
L 2834 2853 
Q 2591 2978 2328 3040 
Q 2066 3103 1784 3103 
Q 1356 3103 1142 2972 
Q 928 2841 928 2578 
Q 928 2378 1081 2264 
Q 1234 2150 1697 2047 
L 1894 2003 
Q 2506 1872 2764 1633 
Q 3022 1394 3022 966 
Q 3022 478 2636 193 
Q 2250 -91 1575 -91 
Q 1294 -91 989 -36 
Q 684 19 347 128 
L 347 722 
Q 666 556 975 473 
Q 1284 391 1588 391 
Q 1994 391 2212 530 
Q 2431 669 2431 922 
Q 2431 1156 2273 1281 
Q 2116 1406 1581 1522 
L 1381 1569 
Q 847 1681 609 1914 
Q 372 2147 372 2553 
Q 372 3047 722 3315 
Q 1072 3584 1716 3584 
Q 2034 3584 2315 3537 
Q 2597 3491 2834 3397 
z
" transform="scale(0.015625)"/>
       <path id="DejaVuSans-72" d="M 2631 2963 
Q 2534 3019 2420 3045 
Q 2306 3072 2169 3072 
Q 1681 3072 1420 2755 
Q 1159 2438 1159 1844 
L 1159 0 
L 581 0 
L 581 3500 
L 1159 3500 
L 1159 2956 
Q 1341 3275 1631 3429 
Q 1922 3584 2338 3584 
Q 2397 3584 2469 3576 
Q 2541 3569 2628 3553 
L 2631 2963 
z
" transform="scale(0.015625)"/>
       <path id="DejaVuSans-74" d="M 1172 4494 
L 1172 3500 
L 2356 3500 
L 2356 3053 
L 1172 3053 
L 1172 1153 
Q 1172 725 1289 603 
Q 1406 481 1766 481 
L 2356 481 
L 2356 0 
L 1766 0 
Q 1100 0 847 248 
Q 594 497 594 1153 
L 594 3053 
L 172 3053 
L 172 3500 
L 594 3500 
L 594 4494 
L 1172 4494 
z
" transform="scale(0.015625)"/>
       <path id="DejaVuSans-69" d="M 603 3500 
L 1178 3500 
L 1178 0 
L 603 0 
L 603 3500 
z
M 603 4863 
L 1178 4863 
L 1178 4134 
L 603 4134 
L 603 4863 
z
" transform="scale(0.015625)"/>
      </defs>
      <use xlink:href="#DejaVuSans-6c"/>
      <use xlink:href="#DejaVuSans-6f" x="27.783203"/>
      <use xlink:href="#DejaVuSans-67" x="88.964844"/>
      <use xlink:href="#DejaVuSans-31" x="152.441406"/>
      <use xlink:href="#DejaVuSans-30" x="216.064453"/>
      <use xlink:href="#DejaVuSans-20" x="279.6875"/>
      <use xlink:href="#DejaVuSans-6f" x="311.474609"/>
      <use xlink:href="#DejaVuSans-66" x="372.65625"/>
      <use xlink:href="#DejaVuSans-20" x="407.861328"/>
      <use xlink:href="#DejaVuSans-46" x="439.648438"/>
      <use xlink:href="#DejaVuSans-45" x="497.167969"/>
      <use xlink:href="#DejaVuSans-76" x="560.351562"/>
      <use xlink:href="#DejaVuSans-61" x="619.53125"/>
      <use xlink:href="#DejaVuSans-6c" x="680.810547"/>
      <use xlink:href="#DejaVuSans-73" x="708.59375"/>
      <use xlink:href="#DejaVuSans-20" x="760.693359"/>
      <use xlink:href="#DejaVuSans-72" x="792.480469"/>
      <use xlink:href="#DejaVuSans-61" x="833.59375"/>
      <use xlink:href="#DejaVuSans-74" x="894.873047"/>
      <use xlink:href="#DejaVuSans-69" x="934.082031"/>
      <use xlink:href="#DejaVuSans-6f" x="961.865234"/>
     </g>
    </g>
   </g>
   <g id="matplotlib.axis_2">
    <g id="ytick_1">
     <g id="line2d_7">
      <path d="M 34.16 288.453725 
L 453.192 288.453725 
" clip-path="url(#pb9645bd483)" style="fill: none; stroke: #b0b0b0; stroke-width: 0.8; stroke-linecap: square"/>
     </g>
     <g id="line2d_8">
      <defs>
       <path id="m39012d63a1" d="M 0 0 
L -3.5 0 
" style="stroke: #000000; stroke-width: 0.8"/>
      </defs>
      <g>
       <use xlink:href="#m39012d63a1" x="34.16" y="288.453725" style="stroke: #000000; stroke-width: 0.8"/>
      </g>
     </g>
    </g>
    <g id="ytick_2">
     <g id="line2d_9">
      <path d="M 34.16 217.796863 
L 453.192 217.796863 
" clip-path="url(#pb9645bd483)" style="fill: none; stroke: #b0b0b0; stroke-width: 0.8; stroke-linecap: square"/>
     </g>
     <g id="line2d_10">
      <g>
       <use xlink:href="#m39012d63a1" x="34.16" y="217.796863" style="stroke: #000000; stroke-width: 0.8"/>
      </g>
     </g>
    </g>
    <g id="ytick_3">
     <g id="line2d_11">
      <path d="M 34.16 147.14 
L 453.192 147.14 
" clip-path="url(#pb9645bd483)" style="fill: none; stroke: #b0b0b0; stroke-width: 0.8; stroke-linecap: square"/>
     </g>
     <g id="line2d_12">
      <g>
       <use xlink:href="#m39012d63a1" x="34.16" y="147.14" style="stroke: #000000; stroke-width: 0.8"/>
      </g>
     </g>
    </g>
    <g id="ytick_4">
     <g id="line2d_13">
      <path d="M 34.16 76.483137 
L 453.192 76.483137 
" clip-path="url(#pb9645bd483)" style="fill: none; stroke: #b0b0b0; stroke-width: 0.8; stroke-linecap: square"/>
     </g>
     <g id="line2d_14">
      <g>
       <use xlink:href="#m39012d63a1" x="34.16" y="76.483137" style="stroke: #000000; stroke-width: 0.8"/>
      </g>
     </g>
    </g>
    <g id="ytick_5">
     <g id="line2d_15">
      <path d="M 34.16 5.826275 
L 453.192 5.826275 
" clip-path="url(#pb9645bd483)" style="fill: none; stroke: #b0b0b0; stroke-width: 0.8; stroke-linecap: square"/>
     </g>
     <g id="line2d_16">
      <g>
       <use xlink:href="#m39012d63a1" x="34.16" y="5.826275" style="stroke: #000000; stroke-width: 0.8"/>
      </g>
     </g>
    </g>
    <g id="text_5">
     <!-- proportion of trials -->
     <g transform="translate(19.000625 240.14625)rotate(-90)scale(0.2 -0.2)">
      <defs>
       <path id="DejaVuSans-70" d="M 1159 525 
L 1159 -1331 
L 581 -1331 
L 581 3500 
L 1159 3500 
L 1159 2969 
Q 1341 3281 1617 3432 
Q 1894 3584 2278 3584 
Q 2916 3584 3314 3078 
Q 3713 2572 3713 1747 
Q 3713 922 3314 415 
Q 2916 -91 2278 -91 
Q 1894 -91 1617 61 
Q 1341 213 1159 525 
z
M 3116 1747 
Q 3116 2381 2855 2742 
Q 2594 3103 2138 3103 
Q 1681 3103 1420 2742 
Q 1159 2381 1159 1747 
Q 1159 1113 1420 752 
Q 1681 391 2138 391 
Q 2594 391 2855 752 
Q 3116 1113 3116 1747 
z
" transform="scale(0.015625)"/>
       <path id="DejaVuSans-6e" d="M 3513 2113 
L 3513 0 
L 2938 0 
L 2938 2094 
Q 2938 2591 2744 2837 
Q 2550 3084 2163 3084 
Q 1697 3084 1428 2787 
Q 1159 2491 1159 1978 
L 1159 0 
L 581 0 
L 581 3500 
L 1159 3500 
L 1159 2956 
Q 1366 3272 1645 3428 
Q 1925 3584 2291 3584 
Q 2894 3584 3203 3211 
Q 3513 2838 3513 2113 
z
" transform="scale(0.015625)"/>
      </defs>
      <use xlink:href="#DejaVuSans-70"/>
      <use xlink:href="#DejaVuSans-72" x="63.476562"/>
      <use xlink:href="#DejaVuSans-6f" x="102.339844"/>
      <use xlink:href="#DejaVuSans-70" x="163.521484"/>
      <use xlink:href="#DejaVuSans-6f" x="226.998047"/>
      <use xlink:href="#DejaVuSans-72" x="288.179688"/>
      <use xlink:href="#DejaVuSans-74" x="329.292969"/>
      <use xlink:href="#DejaVuSans-69" x="368.501953"/>
      <use xlink:href="#DejaVuSans-6f" x="396.285156"/>
      <use xlink:href="#DejaVuSans-6e" x="457.466797"/>
      <use xlink:href="#DejaVuSans-20" x="520.845703"/>
      <use xlink:href="#DejaVuSans-6f" x="552.632812"/>
      <use xlink:href="#DejaVuSans-66" x="613.814453"/>
      <use xlink:href="#DejaVuSans-20" x="649.019531"/>
      <use xlink:href="#DejaVuSans-74" x="680.806641"/>
      <use xlink:href="#DejaVuSans-72" x="720.015625"/>
      <use xlink:href="#DejaVuSans-69" x="761.128906"/>
      <use xlink:href="#DejaVuSans-61" x="788.912109"/>
      <use xlink:href="#DejaVuSans-6c" x="850.191406"/>
      <use xlink:href="#DejaVuSans-73" x="877.974609"/>
     </g>
    </g>
   </g>
   <g id="line2d_17">
    <path d="M 34.16 272.069525 
L 103.550242 272.069525 
L 103.550242 271.796455 
L 104.649685 271.796455 
L 104.650871 271.250315 
L 106.226578 271.250315 
L 106.226578 270.977245 
L 106.834764 270.977245 
L 106.834764 270.704175 
L 109.243592 270.704175 
L 109.243592 270.431105 
L 109.702917 270.431105 
L 109.793942 269.884965 
L 110.660335 269.884965 
L 110.660335 269.611895 
L 112.808639 269.611895 
L 112.808639 269.338825 
L 115.934422 269.338825 
L 115.934422 269.065755 
L 118.622415 269.065755 
L 118.622415 268.792685 
L 123.596755 268.792685 
L 123.596755 268.519615 
L 123.825012 268.519615 
L 123.825012 268.246545 
L 125.319164 268.246545 
L 125.319164 267.973475 
L 126.001221 267.973475 
L 126.001221 267.700405 
L 127.100664 267.700405 
L 127.100664 267.427335 
L 127.567093 267.427335 
L 127.567093 267.154265 
L 128.677557 267.154265 
L 128.677557 266.881195 
L 129.285743 266.881195 
L 129.285743 266.608125 
L 131.328628 266.608125 
L 131.328628 266.335055 
L 131.694571 266.335055 
L 131.694571 266.061985 
L 132.153896 266.061985 
L 132.24492 265.515845 
L 133.104688 265.515845 
L 133.163316 264.969705 
L 133.476933 264.969705 
L 133.476933 264.696635 
L 138.385401 264.696635 
L 138.385401 264.423565 
L 139.735041 264.423565 
L 139.735041 264.150495 
L 141.073394 264.150495 
L 141.073394 263.877425 
L 143.028968 263.877425 
L 143.028968 263.604355 
L 144.584478 263.604355 
L 144.584478 263.331285 
L 145.744504 263.331285 
L 145.744504 263.058215 
L 146.047734 263.058215 
L 146.047734 262.785145 
L 146.275991 262.785145 
L 146.275991 262.512075 
L 146.416459 262.512075 
L 146.416459 262.239005 
L 147.471949 262.239005 
L 147.471949 261.965935 
L 147.759669 261.965935 
L 147.759669 261.692865 
L 147.892809 261.692865 
L 147.971969 261.146725 
L 148.235387 261.146725 
L 148.235387 260.873655 
L 149.315179 260.873655 
L 149.315179 260.600585 
L 149.658323 260.600585 
L 149.658323 260.327515 
L 150.757766 260.327515 
L 150.859441 259.781375 
L 151.229227 259.781375 
L 151.229227 259.508305 
L 152.20265 259.508305 
L 152.20265 259.235235 
L 152.334659 259.235235 
L 152.334659 258.962165 
L 152.942845 258.962165 
L 153.032155 258.416025 
L 153.460923 258.416025 
L 153.460923 258.142955 
L 153.772982 258.142955 
L 153.831609 257.596815 
L 154.131598 257.596815 
L 154.131598 257.323745 
L 154.616718 257.323745 
L 154.616718 257.050675 
L 155.351673 257.050675 
L 155.351673 256.777605 
L 155.708491 256.777605 
L 155.810998 256.231465 
L 155.902022 256.231465 
L 155.959928 255.685325 
L 156.316677 255.685325 
L 156.316677 255.412255 
L 156.570368 255.412255 
L 156.570368 255.139185 
L 156.848414 255.139185 
L 156.848414 254.866115 
L 158.191624 254.866115 
L 158.191624 254.593045 
L 158.361411 254.593045 
L 158.361411 254.319975 
L 158.621049 254.319975 
L 158.725505 253.500765 
L 159.18483 253.500765 
L 159.275854 252.954625 
L 159.95786 252.954625 
L 159.95786 252.681555 
L 160.620778 252.681555 
L 160.620778 252.408485 
L 160.861596 252.408485 
L 160.94144 251.862345 
L 161.100491 251.862345 
L 161.100491 251.589275 
L 161.301069 251.589275 
L 161.301069 251.316205 
L 161.748902 251.316205 
L 161.748902 251.043135 
L 162.00854 251.043135 
L 162.094588 250.223925 
L 162.651263 250.223925 
L 162.651263 249.950855 
L 163.092112 249.950855 
L 163.092112 249.677785 
L 163.35175 249.677785 
L 163.437797 249.131645 
L 164.00827 249.131645 
L 164.00827 248.858575 
L 164.249088 248.858575 
L 164.328932 248.312435 
L 164.487983 248.312435 
L 164.487983 248.039365 
L 164.730496 248.039365 
L 164.730496 247.766295 
L 165.351479 247.766295 
L 165.416335 247.220155 
L 165.592297 247.220155 
L 165.672141 246.674015 
L 165.831192 246.674015 
L 165.831192 246.400945 
L 168.104328 246.400945 
L 168.188858 245.854805 
L 168.247485 245.854805 
L 168.247485 245.581735 
L 169.704836 245.581735 
L 169.704836 245.308665 
L 169.933093 245.308665 
L 169.933093 245.035595 
L 171.975402 245.035595 
L 171.975402 243.943315 
L 173.078668 243.943315 
L 173.078668 243.670245 
L 173.306925 243.670245 
L 173.306925 243.397175 
L 177.975751 243.397175 
L 177.975751 242.304895 
L 181.497637 242.304895 
L 181.497637 241.212615 
L 190.099755 241.212615 
L 190.099755 240.120335 
L 192.701523 240.120335 
L 192.701523 239.574195 
L 194.671149 239.574195 
L 194.671149 239.301125 
L 198.701872 239.301125 
L 198.701872 238.754985 
L 202.223758 238.754985 
L 202.223758 237.116565 
L 208.49955 237.116565 
L 208.49955 236.843495 
L 209.640095 236.843495 
L 209.640095 236.570425 
L 210.05506 236.570425 
L 210.05506 236.297355 
L 210.825876 236.297355 
L 210.825876 232.474375 
L 211.195605 232.474375 
L 211.195605 232.201305 
L 211.759605 232.201305 
L 211.759605 231.928235 
L 212.942531 231.928235 
L 212.942531 231.655165 
L 213.315115 231.655165 
L 213.315115 231.382095 
L 213.427644 231.382095 
L 213.427644 230.835955 
L 214.083076 230.835955 
L 214.083076 230.562885 
L 214.365911 230.562885 
L 214.431873 230.016745 
L 215.278901 230.016745 
L 215.278901 229.743675 
L 215.443045 229.743675 
L 215.531316 229.197535 
L 215.921421 229.197535 
L 215.921421 228.924465 
L 216.202586 228.924465 
L 216.202586 228.651395 
L 216.699809 228.651395 
L 216.699809 228.378325 
L 217.108208 228.378325 
L 217.122128 227.832185 
L 217.275169 227.832185 
L 217.275169 227.559115 
L 217.486445 227.559115 
L 217.486445 227.286045 
L 217.64263 227.286045 
L 217.716395 226.739905 
L 217.840354 226.739905 
L 217.840354 226.466835 
L 218.808893 226.466835 
L 218.884606 225.920695 
L 218.931504 225.920695 
L 218.931504 225.647625 
L 219.427993 225.647625 
L 219.460267 224.828415 
L 219.847907 224.828415 
L 219.847907 224.555345 
L 219.959864 224.555345 
L 220.012051 224.009205 
L 220.07205 224.009205 
L 220.125223 222.916925 
L 220.383393 222.916925 
L 220.440116 222.370785 
L 220.584548 222.370785 
L 220.675572 221.824645 
L 220.801023 221.824645 
L 220.801023 221.551575 
L 220.965167 221.551575 
L 221.015777 221.005435 
L 221.437298 221.005435 
L 221.437298 220.732365 
L 221.838172 220.732365 
L 221.838172 220.459295 
L 222.002316 220.459295 
L 222.055451 219.640085 
L 222.191559 219.640085 
L 222.191559 219.367015 
L 222.56617 219.367015 
L 222.56617 219.093945 
L 222.949879 219.093945 
L 223.008567 214.178685 
L 223.181495 214.178685 
L 223.284632 213.632545 
L 223.304586 213.632545 
L 223.327587 213.086405 
L 223.629487 213.086405 
L 223.629487 212.813335 
L 223.810413 212.813335 
L 223.903248 211.721055 
L 223.974556 211.721055 
L 224.045716 211.174915 
L 224.091631 211.174915 
L 224.177678 210.628775 
L 224.72893 210.628775 
L 224.797866 210.082635 
L 224.952399 210.082635 
L 225.054369 208.990355 
L 225.232176 208.990355 
L 225.318223 208.171145 
L 225.432937 208.171145 
L 225.526014 207.625005 
L 225.905515 207.625005 
L 226.006305 207.078865 
L 226.017957 207.078865 
L 226.100314 205.986585 
L 226.252706 205.986585 
L 226.332178 205.167375 
L 226.412022 205.167375 
L 226.41685 204.621235 
L 226.535835 204.621235 
L 226.609879 203.528955 
L 226.816052 203.528955 
L 226.914009 202.982815 
L 226.942664 202.982815 
L 226.959421 202.436675 
L 227.084864 202.436675 
L 227.144022 201.344395 
L 227.214251 201.344395 
L 227.231905 200.798255 
L 227.351686 200.798255 
L 227.437733 199.979045 
L 227.472724 199.979045 
L 227.552567 199.159835 
L 227.660526 199.159835 
L 227.711618 198.613695 
L 227.776678 198.613695 
L 227.873593 197.794485 
L 227.907312 197.794485 
L 227.99657 196.975275 
L 228.46025 196.975275 
L 228.472001 196.429135 
L 228.781096 196.429135 
L 228.826709 195.882995 
L 228.914905 195.882995 
L 228.94524 195.336855 
L 229.028689 195.336855 
L 229.028689 195.063785 
L 229.315065 195.063785 
L 229.421795 192.879225 
L 229.479209 192.879225 
L 229.55285 191.240805 
L 229.592233 191.240805 
L 229.698354 189.329315 
L 229.782162 189.329315 
L 229.892221 187.690895 
L 229.957992 187.690895 
L 230.04404 186.052475 
L 230.09502 186.052475 
L 230.103199 185.506335 
L 230.355221 185.506335 
L 230.355221 185.233265 
L 230.519365 185.233265 
L 230.519365 184.960195 
L 230.735645 184.960195 
L 230.735645 184.687125 
L 230.87084 184.687125 
L 230.945679 184.140985 
L 230.98864 184.140985 
L 231.048136 183.594845 
L 231.109823 183.594845 
L 231.111377 183.048705 
L 231.357198 183.048705 
L 231.414518 182.502565 
L 231.481391 182.502565 
L 231.551997 179.498795 
L 231.673301 179.498795 
L 231.698501 178.952655 
L 231.836098 178.952655 
L 231.930501 178.406515 
L 231.957721 178.406515 
L 232.064493 177.860375 
L 232.085285 177.860375 
L 232.085285 177.587305 
L 232.19854 177.587305 
L 232.278384 176.768095 
L 232.312537 176.768095 
L 232.411103 175.948885 
L 232.426006 175.948885 
L 232.437435 175.402745 
L 232.562765 175.402745 
L 232.626416 174.310465 
L 232.702195 174.310465 
L 232.702195 174.037395 
L 232.88117 174.037395 
L 232.920724 173.491255 
L 233.001667 173.491255 
L 233.101642 172.672045 
L 233.153223 172.672045 
L 233.254627 172.125905 
L 233.372648 172.125905 
L 233.372648 171.852835 
L 233.582228 171.852835 
L 233.663566 171.033625 
L 233.746372 171.033625 
L 233.758312 170.487485 
L 233.885588 170.487485 
L 233.945391 169.395205 
L 234.057526 169.395205 
L 234.153765 168.575995 
L 234.191025 168.575995 
L 234.30199 167.483715 
L 234.327344 167.483715 
L 234.419557 166.937575 
L 234.476686 166.937575 
L 234.562734 165.845295 
L 234.595449 165.845295 
L 234.595449 165.572225 
L 234.706642 165.572225 
L 234.799212 164.753015 
L 234.82296 164.753015 
L 234.898507 163.933805 
L 234.939494 163.933805 
L 234.939494 163.660735 
L 235.052348 163.660735 
L 235.138395 162.841525 
L 235.239936 162.841525 
L 235.329552 162.295385 
L 235.426787 162.295385 
L 235.507245 160.656965 
L 235.587961 160.656965 
L 235.671389 159.564685 
L 235.720846 159.564685 
L 235.802363 158.472405 
L 235.879901 158.472405 
L 235.935656 157.653195 
L 236.013667 157.653195 
L 236.050171 156.560915 
L 236.243679 156.560915 
L 236.329032 156.014775 
L 236.410173 156.014775 
L 236.513619 154.376355 
L 236.670074 154.376355 
L 236.717234 153.830215 
L 236.797078 153.830215 
L 236.806782 153.284075 
L 236.956129 153.284075 
L 237.052077 152.191795 
L 237.104076 152.191795 
L 237.208039 151.099515 
L 237.271201 151.099515 
L 237.372739 150.007235 
L 237.409391 150.007235 
L 237.516642 148.095745 
L 237.53179 148.095745 
L 237.611866 147.276535 
L 237.667364 147.276535 
L 237.758389 146.457325 
L 237.907896 146.457325 
L 237.907896 146.184255 
L 238.023791 146.184255 
L 238.126759 144.545835 
L 238.188557 144.545835 
L 238.258471 143.180485 
L 238.380907 143.180485 
L 238.489773 142.361275 
L 238.595769 142.361275 
L 238.70166 141.268995 
L 238.73786 141.268995 
L 238.73786 140.995925 
L 238.931672 140.995925 
L 239.040148 139.630575 
L 239.163908 139.630575 
L 239.261466 138.811365 
L 239.288209 138.811365 
L 239.288209 138.538295 
L 239.484293 138.538295 
L 239.562178 137.992155 
L 239.602071 137.992155 
L 239.697217 137.446015 
L 239.73807 137.446015 
L 239.797665 136.080665 
L 240.002494 136.080665 
L 240.093609 134.988385 
L 240.154114 134.988385 
L 240.191391 134.442245 
L 240.290963 134.442245 
L 240.386811 133.623035 
L 240.462013 133.623035 
L 240.571043 132.530755 
L 240.578535 132.530755 
L 240.646449 131.165405 
L 240.732497 131.165405 
L 240.826085 129.526985 
L 240.894858 129.526985 
L 240.975635 128.707775 
L 241.039803 128.707775 
L 241.140874 127.342425 
L 241.192792 127.342425 
L 241.253206 126.523215 
L 241.311735 126.523215 
L 241.412105 125.430935 
L 241.526466 125.430935 
L 241.618691 124.611725 
L 241.665642 124.611725 
L 241.665642 124.338655 
L 241.874161 124.338655 
L 241.874161 124.065585 
L 242.020381 124.065585 
L 242.020381 123.792515 
L 242.140092 123.792515 
L 242.209149 122.973305 
L 242.373552 122.973305 
L 242.471751 122.427165 
L 242.511548 122.427165 
L 242.530885 121.881025 
L 242.646179 121.881025 
L 242.646179 121.607955 
L 242.771072 121.607955 
L 242.87858 120.788745 
L 242.886997 120.788745 
L 242.981739 119.696465 
L 243.064854 119.696465 
L 243.158959 118.604185 
L 243.178223 118.604185 
L 243.240745 118.058045 
L 243.400408 118.058045 
L 243.504644 116.965765 
L 243.53293 116.965765 
L 243.588441 116.146555 
L 243.676 116.146555 
L 243.676 108.773665 
L 243.829341 108.773665 
L 243.927274 107.135245 
L 244.088441 107.135245 
L 244.153061 106.042965 
L 244.428278 106.042965 
L 244.452705 105.496825 
L 244.539987 105.496825 
L 244.647773 104.677615 
L 244.695467 104.677615 
L 244.708374 103.858405 
L 244.845698 103.858405 
L 244.907411 103.312265 
L 244.993459 103.312265 
L 245.102414 102.493055 
L 245.191451 102.493055 
L 245.199972 101.946915 
L 245.390567 101.946915 
L 245.488765 100.035425 
L 245.537137 100.035425 
L 245.537137 99.762355 
L 245.659145 99.762355 
L 245.754358 98.670075 
L 245.787613 98.670075 
L 245.898039 97.850865 
L 245.940916 97.850865 
L 246.039115 96.758585 
L 246.093597 96.758585 
L 246.20439 95.666305 
L 246.586862 95.666305 
L 246.640801 95.120165 
L 246.711523 95.120165 
L 246.816693 94.027885 
L 246.826434 94.027885 
L 246.914251 93.208675 
L 247.006822 93.208675 
L 247.105455 92.662535 
L 247.147959 92.662535 
L 247.227803 91.843325 
L 247.332017 91.843325 
L 247.386853 91.024115 
L 247.450818 91.024115 
L 247.450818 90.751045 
L 247.56478 90.751045 
L 247.655804 89.658765 
L 247.679712 89.658765 
L 247.778515 88.020345 
L 247.930531 88.020345 
L 247.930531 87.747275 
L 248.116683 87.747275 
L 248.116683 87.474205 
L 248.271415 87.474205 
L 248.368973 86.928065 
L 248.671163 86.928065 
L 248.671163 86.654995 
L 249.257033 86.654995 
L 249.257033 86.381925 
L 249.399516 86.381925 
L 249.399516 86.108855 
L 249.604729 86.108855 
L 249.682715 85.562715 
L 249.895132 85.562715 
L 249.916248 84.743505 
L 250.233829 84.743505 
L 250.233829 84.470435 
L 250.348321 84.470435 
L 250.348321 83.651225 
L 250.536578 83.651225 
L 250.536578 83.378155 
L 250.8871 83.378155 
L 250.907964 82.832015 
L 251.005522 82.832015 
L 251.005522 82.558945 
L 251.561202 82.558945 
L 251.561202 82.285875 
L 251.789459 82.285875 
L 251.789459 82.012805 
L 252.081396 82.012805 
L 252.179595 81.193595 
L 252.278117 81.193595 
L 252.278117 79.282105 
L 252.832981 79.282105 
L 252.930539 78.735965 
L 252.947011 78.735965 
L 253.025693 77.916755 
L 253.091023 77.916755 
L 253.091023 77.643685 
L 253.31928 77.643685 
L 253.31928 77.370615 
L 253.796285 77.370615 
L 253.796285 77.097545 
L 254.293856 77.097545 
L 254.373857 76.551405 
L 254.602113 76.551405 
L 254.671512 76.005265 
L 254.769389 76.005265 
L 254.869472 74.912985 
L 255.076374 74.912985 
L 255.162421 74.093775 
L 256.484278 74.093775 
L 256.525551 73.547635 
L 256.88745 73.547635 
L 256.88745 73.274565 
L 257.076103 73.274565 
L 257.076103 73.001495 
L 257.316922 73.001495 
L 257.396765 72.455355 
L 257.555816 72.455355 
L 257.555816 72.182285 
L 258.193398 72.182285 
L 258.193398 71.909215 
L 258.484606 71.909215 
L 258.543234 71.363075 
L 258.950438 71.363075 
L 258.950438 69.178515 
L 259.121053 69.178515 
L 259.121053 68.905445 
L 259.634997 68.905445 
L 259.74373 68.359305 
L 259.841928 68.359305 
L 259.841928 68.086235 
L 259.971986 68.086235 
L 260.070185 67.540095 
L 260.409336 67.540095 
L 260.409336 67.267025 
L 261.426039 67.267025 
L 261.458618 66.720885 
L 261.685678 66.720885 
L 261.771725 65.901675 
L 262.472324 65.901675 
L 262.472324 65.628605 
L 263.685407 65.628605 
L 263.750711 65.082465 
L 263.926225 65.082465 
L 264.006069 64.536325 
L 264.16512 64.536325 
L 264.16512 64.263255 
L 264.402121 64.263255 
L 264.402121 60.167205 
L 266.795516 60.167205 
L 266.795516 59.894135 
L 267.124543 59.894135 
L 267.124543 59.621065 
L 269.011453 59.621065 
L 269.011453 59.347995 
L 271.074441 59.347995 
L 271.074441 57.163435 
L 273.004238 57.163435 
L 273.004238 56.344225 
L 278.919519 56.344225 
L 278.919519 56.071155 
L 279.676559 56.071155 
L 279.676559 55.251945 
L 281.135457 55.251945 
L 281.135457 54.978875 
L 282.778155 54.978875 
L 282.778155 54.705805 
L 283.198445 54.705805 
L 283.198445 54.432735 
L 285.128242 54.432735 
L 285.128242 51.428965 
L 286.151987 51.428965 
L 286.151987 51.155895 
L 287.521636 51.155895 
L 287.521636 50.336685 
L 289.737574 50.336685 
L 289.737574 49.517475 
L 291.800562 49.517475 
L 291.800562 45.694495 
L 299.64564 45.694495 
L 299.64564 44.875285 
L 301.861577 44.875285 
L 301.880755 43.783005 
L 302.879973 43.783005 
L 302.879973 43.509935 
L 303.0213 43.509935 
L 303.0213 43.236865 
L 303.924566 43.236865 
L 304.020518 42.144585 
L 305.14081 42.144585 
L 305.14081 41.871515 
L 305.552779 41.871515 
L 305.552779 41.598445 
L 305.854363 41.598445 
L 305.854363 40.506165 
L 306.140028 40.506165 
L 306.140028 40.233095 
L 307.747117 40.233095 
L 307.747117 39.960025 
L 308.746334 39.960025 
L 308.746334 39.686955 
L 312.265811 39.686955 
L 312.265811 39.413885 
L 312.526683 39.413885 
L 312.526683 38.321605 
L 312.841472 38.321605 
L 312.841472 38.048535 
L 313.265029 38.048535 
L 313.265029 37.775465 
L 313.84069 37.775465 
L 313.84069 37.502395 
L 314.750394 37.502395 
L 314.750394 37.229325 
L 314.980406 37.229325 
L 314.980406 36.956255 
L 318.435574 36.956255 
L 318.435574 36.683185 
L 319.434792 36.683185 
L 319.434792 36.410115 
L 320.371761 36.410115 
L 320.371761 35.317835 
L 320.757108 35.317835 
L 320.757108 35.044765 
L 321.207722 35.044765 
L 321.207722 34.771695 
L 322.206939 34.771695 
L 322.206939 34.498625 
L 322.587698 34.498625 
L 322.696536 32.860205 
L 323.240214 32.860205 
L 323.240214 32.587135 
L 323.695753 32.587135 
L 323.695753 32.314065 
L 324.165417 32.314065 
L 324.239431 31.767925 
L 324.650687 31.767925 
L 324.650687 30.675645 
L 325.44825 30.675645 
L 325.44825 30.402575 
L 325.943866 30.402575 
L 325.943866 30.129505 
L 328.52426 30.129505 
L 328.52426 29.856435 
L 330.818123 29.856435 
L 330.916322 29.310295 
L 332.533011 29.310295 
L 332.533011 29.037225 
L 332.865498 29.037225 
L 332.865498 28.764155 
L 333.864716 28.764155 
L 333.864716 28.491085 
L 337.721875 28.491085 
L 337.721875 28.218015 
L 337.951887 28.218015 
L 337.951887 27.944945 
L 339.474802 27.944945 
L 339.474802 27.671875 
L 340.47402 27.671875 
L 340.47402 27.398805 
L 343.728589 27.398805 
L 343.728589 27.125735 
L 345.607077 27.125735 
L 345.607077 26.852665 
L 347.136898 26.852665 
L 347.136898 26.579595 
L 347.551705 26.579595 
L 347.551705 26.306525 
L 348.419731 26.306525 
L 348.419731 26.033455 
L 348.915347 26.033455 
L 348.915347 25.760385 
L 353.789604 25.760385 
L 353.887803 25.214245 
L 355.504492 25.214245 
L 355.504492 24.941175 
L 356.749319 24.941175 
L 356.749319 24.668105 
L 356.979332 24.668105 
L 356.979332 24.395035 
L 362.756034 24.395035 
L 362.756034 24.121965 
L 364.634522 24.121965 
L 364.634522 23.848895 
L 366.164342 23.848895 
L 366.164342 23.575825 
L 367.447176 23.575825 
L 367.447176 23.302755 
L 367.942792 23.302755 
L 367.942792 23.029685 
L 372.817049 23.029685 
L 372.915248 22.483545 
L 374.531937 22.483545 
L 374.531937 22.210475 
L 453.192 22.210475 
L 453.192 22.210475 
" clip-path="url(#pb9645bd483)" style="fill: none; stroke: #000000; stroke-width: 3; stroke-linecap: square"/>
   </g>
   <g id="line2d_18">
    <path clip-path="url(#pb9645bd483)" style="fill: none; stroke: #000000; stroke-width: 3; stroke-linecap: square"/>
   </g>
   <g id="line2d_19">
    <path d="M 34.16 123.587712 
L 53.201402 123.587712 
L 53.201402 123.026944 
L 134.27295 123.026944 
L 134.27295 122.466175 
L 134.628726 122.466175 
L 134.628726 121.905406 
L 138.050097 121.905406 
L 138.156775 120.783869 
L 158.553149 120.783869 
L 158.553149 120.2231 
L 175.310071 120.2231 
L 175.310071 119.662331 
L 181.554716 119.662331 
L 181.554716 119.101562 
L 188.077107 119.101562 
L 188.077107 118.540794 
L 197.586088 118.540794 
L 197.586088 117.980025 
L 198.966211 117.980025 
L 198.966211 117.419256 
L 200.322749 117.419256 
L 200.322749 116.858487 
L 201.138294 116.858487 
L 201.138294 116.297719 
L 203.447388 116.297719 
L 203.447388 115.73695 
L 207.616035 115.73695 
L 207.616035 115.176181 
L 209.83173 115.176181 
L 209.83173 114.615412 
L 212.290618 114.615412 
L 212.290618 114.054644 
L 212.956369 114.054644 
L 212.956369 113.493875 
L 213.383936 113.493875 
L 213.383936 112.933106 
L 216.104014 112.933106 
L 216.104014 112.372337 
L 216.508575 112.372337 
L 216.508575 111.811569 
L 219.121645 111.811569 
L 219.228323 110.690031 
L 219.47742 110.690031 
L 219.584099 109.007725 
L 219.861677 109.007725 
L 219.861677 108.446956 
L 222.986316 108.446956 
L 222.986316 107.886187 
L 223.585088 107.886187 
L 223.585088 107.325419 
L 224.53626 107.325419 
L 224.53626 106.76465 
L 224.745376 106.76465 
L 224.745376 106.203881 
L 225.612996 106.203881 
L 225.612996 105.643112 
L 227.660899 105.643112 
L 227.660899 105.082344 
L 228.278268 105.082344 
L 228.278268 104.521575 
L 229.073104 104.521575 
L 229.165201 103.400037 
L 229.903221 103.400037 
L 229.903221 102.839269 
L 232.62531 102.839269 
L 232.62531 102.2785 
L 233.094069 102.2785 
L 233.094069 101.717731 
L 234.254358 101.717731 
L 234.254358 101.156962 
L 235.642943 101.156962 
L 235.642943 100.596194 
L 236.646275 100.596194 
L 236.646275 100.035425 
L 237.75115 100.035425 
L 237.806563 98.913887 
L 239.103051 98.913887 
L 239.103051 98.353119 
L 239.624696 98.353119 
L 239.624696 97.79235 
L 239.980472 97.79235 
L 239.980472 97.231581 
L 240.317525 97.231581 
L 240.317525 96.670812 
L 240.52391 96.670812 
L 240.52391 96.110044 
L 242.258603 96.110044 
L 242.258603 95.549275 
L 243.124017 95.549275 
L 243.124017 94.988506 
L 243.648549 94.988506 
L 243.648549 94.427737 
L 243.777634 94.427737 
L 243.777634 93.866969 
L 244.284305 93.866969 
L 244.284305 93.3062 
L 244.972244 93.3062 
L 244.972244 92.745431 
L 247.798599 92.745431 
L 247.798599 92.184662 
L 248.958887 92.184662 
L 248.958887 91.623894 
L 256.305176 91.623894 
L 256.381619 90.502356 
L 256.737395 90.502356 
L 256.737395 89.941587 
L 259.765284 89.941587 
L 259.765284 89.380819 
L 263.786249 89.380819 
L 263.786249 88.82005 
L 264.946538 88.82005 
L 264.946538 88.259281 
L 266.403411 88.259281 
L 266.510089 87.137744 
L 279.018541 87.137744 
L 279.018541 86.576975 
L 280.037759 86.576975 
L 280.037759 86.016206 
L 280.393535 86.016206 
L 280.393535 85.455437 
L 286.906463 85.455437 
L 286.906463 84.894669 
L 288.527523 84.894669 
L 288.527523 84.3339 
L 292.079728 84.3339 
L 292.079728 83.773131 
L 298.55747 83.773131 
L 298.55747 83.212362 
L 303.232052 83.212362 
L 303.232052 82.651594 
L 303.663385 82.651594 
L 303.663385 82.090825 
L 310.974768 82.090825 
L 310.974768 81.530056 
L 311.330544 81.530056 
L 311.330544 80.969287 
L 319.219703 80.969287 
L 319.219703 80.408519 
L 322.599845 80.408519 
L 322.706523 79.286981 
L 326.043792 79.286981 
L 326.043792 78.726212 
L 326.399568 78.726212 
L 326.399568 78.165444 
L 327.107298 78.165444 
L 327.213977 77.043906 
L 327.319526 77.043906 
L 327.319526 76.483137 
L 343.102897 76.483137 
L 343.102897 75.922369 
L 347.61035 75.922369 
L 347.61035 75.3616 
L 358.256535 75.3616 
L 358.256535 74.800831 
L 359.859819 74.800831 
L 359.859819 74.240062 
L 364.367273 74.240062 
L 364.367273 73.679293 
L 373.325558 73.679293 
L 373.325558 73.118525 
L 383.515959 73.118525 
L 383.515959 72.557756 
L 388.023413 72.557756 
L 388.023413 71.996987 
L 414.452969 71.996987 
L 414.452969 71.436218 
L 418.960422 71.436218 
L 418.960422 70.87545 
L 429.521992 70.87545 
L 429.521992 70.314681 
L 434.029445 70.314681 
L 434.029445 69.753912 
L 453.192 69.753912 
L 453.192 69.753912 
" clip-path="url(#pb9645bd483)" style="fill: none; stroke: #00bfbf; stroke-width: 3; stroke-linecap: square"/>
   </g>
   <g id="line2d_20">
    <path clip-path="url(#pb9645bd483)" style="fill: none; stroke: #00bfbf; stroke-width: 3; stroke-linecap: square"/>
   </g>
   <g id="line2d_21">
    <path d="M 34.16 113.153155 
L 73.973465 113.153155 
L 73.973465 111.960634 
L 139.395373 111.960634 
L 139.395373 110.768113 
L 139.495078 110.768113 
L 139.495078 109.575592 
L 154.121962 109.575592 
L 154.121962 108.383071 
L 154.600077 108.383071 
L 154.600077 107.19055 
L 159.580656 107.19055 
L 159.580656 105.998029 
L 176.661119 105.998029 
L 176.661119 104.805508 
L 199.558149 104.805508 
L 199.558149 103.612988 
L 200.094879 103.612988 
L 200.094879 102.420467 
L 219.543871 102.420467 
L 219.543871 101.227946 
L 219.643576 101.227946 
L 219.643576 100.035425 
L 220.021985 100.035425 
L 220.021985 98.842904 
L 220.12169 98.842904 
L 220.12169 97.650383 
L 229.952426 97.650383 
L 229.952426 96.457862 
L 239.729154 96.457862 
L 239.729154 95.265341 
L 240.207268 95.265341 
L 240.207268 94.07282 
L 245.128851 94.07282 
L 245.128851 92.880299 
L 246.692608 92.880299 
L 246.692608 91.687779 
L 249.274483 91.687779 
L 249.274483 90.495258 
L 256.809617 90.495258 
L 256.809617 89.302737 
L 257.287731 89.302737 
L 257.287731 88.110216 
L 265.516787 88.110216 
L 265.516787 86.917695 
L 265.616492 86.917695 
L 265.616492 85.725174 
L 279.706646 85.725174 
L 279.706646 84.532653 
L 280.18476 84.532653 
L 280.18476 83.340132 
L 285.70207 83.340132 
L 285.70207 82.147611 
L 302.782533 82.147611 
L 302.782533 80.955091 
L 310.100924 80.955091 
L 310.100924 79.76257 
L 310.579038 79.76257 
L 310.579038 78.570049 
L 312.114516 78.570049 
L 312.114516 77.377528 
L 312.214221 77.377528 
L 312.214221 76.185007 
L 314.696391 76.185007 
L 314.696391 74.992486 
L 314.796096 74.992486 
L 314.796096 73.799965 
L 325.277348 73.799965 
L 325.277348 72.607444 
L 325.679562 72.607444 
L 325.679562 71.414923 
L 325.755463 71.414923 
L 325.755463 70.222403 
L 332.299799 70.222403 
L 332.299799 69.029882 
L 334.881674 69.029882 
L 334.881674 67.837361 
L 349.380262 67.837361 
L 349.380262 66.64484 
L 351.962137 66.64484 
L 351.962137 65.452319 
L 356.07384 65.452319 
L 356.07384 64.259798 
L 371.250265 64.259798 
L 371.250265 63.067277 
L 372.277291 63.067277 
L 372.277291 61.874756 
L 374.859167 61.874756 
L 374.859167 60.682235 
L 402.671569 60.682235 
L 402.671569 59.489715 
L 405.253444 59.489715 
L 405.253444 58.297194 
L 417.847994 58.297194 
L 417.847994 57.104673 
L 420.429869 57.104673 
L 420.429869 55.912152 
L 453.192 55.912152 
" clip-path="url(#pb9645bd483)" style="fill: none; stroke: #bf00bf; stroke-width: 3; stroke-linecap: square"/>
   </g>
   <g id="line2d_22">
    <path clip-path="url(#pb9645bd483)" style="fill: none; stroke: #bf00bf; stroke-width: 3; stroke-linecap: square"/>
   </g>
   <g id="line2d_23">
    <path d="M 34.16 113.153155 
L 82.723367 113.153155 
L 82.723367 111.960634 
L 140.028018 111.960634 
L 140.028018 110.768113 
L 140.351911 110.768113 
L 140.351911 109.575592 
L 160.626437 109.575592 
L 160.626437 108.383071 
L 162.332408 108.383071 
L 162.332408 107.19055 
L 162.544998 107.19055 
L 162.544998 105.998029 
L 177.603698 105.998029 
L 177.603698 104.805508 
L 199.940963 104.805508 
L 199.940963 103.612988 
L 206.003233 103.612988 
L 206.003233 102.420467 
L 219.63706 102.420467 
L 219.63706 101.227946 
L 219.84965 101.227946 
L 219.84965 100.035425 
L 219.960953 100.035425 
L 219.960953 98.842904 
L 220.173543 98.842904 
L 220.173543 97.650383 
L 229.483823 97.650383 
L 229.483823 96.457862 
L 240.235478 96.457862 
L 240.235478 95.265341 
L 240.448068 95.265341 
L 240.448068 94.07282 
L 244.890201 94.07282 
L 244.890201 92.880299 
L 246.514918 92.880299 
L 246.514918 91.687779 
L 247.482788 91.687779 
L 247.482788 90.495258 
L 257.212739 90.495258 
L 257.212739 89.302737 
L 257.425329 89.302737 
L 257.425329 88.110216 
L 263.307885 88.110216 
L 263.307885 86.917695 
L 263.631778 86.917695 
L 263.631778 85.725174 
L 279.550004 85.725174 
L 279.550004 84.532653 
L 279.762594 84.532653 
L 279.762594 83.340132 
L 283.906304 83.340132 
L 283.906304 82.147611 
L 300.883565 82.147611 
L 300.883565 80.955091 
L 303.81957 80.955091 
L 303.81957 79.76257 
L 304.143463 79.76257 
L 304.143463 78.570049 
L 304.787439 78.570049 
L 304.787439 77.377528 
L 305.111332 77.377528 
L 305.111332 76.185007 
L 309.092864 76.185007 
L 309.092864 74.992486 
L 309.305454 74.992486 
L 309.305454 73.799965 
L 323.22083 73.799965 
L 323.22083 72.607444 
L 324.417989 72.607444 
L 324.417989 71.414923 
L 324.499242 71.414923 
L 324.499242 70.222403 
L 324.711832 70.222403 
L 324.711832 69.029882 
L 325.385858 69.029882 
L 325.385858 67.837361 
L 341.39525 67.837361 
L 341.39525 66.64484 
L 342.363119 66.64484 
L 342.363119 65.452319 
L 352.76369 65.452319 
L 352.76369 64.259798 
L 363.732515 64.259798 
L 363.732515 63.067277 
L 364.700384 63.067277 
L 364.700384 61.874756 
L 368.170068 61.874756 
L 368.170068 60.682235 
L 393.275375 60.682235 
L 393.275375 59.489715 
L 394.243244 59.489715 
L 394.243244 58.297194 
L 408.681753 58.297194 
L 408.681753 57.104673 
L 409.649622 57.104673 
L 409.649622 55.912152 
L 453.192 55.912152 
" clip-path="url(#pb9645bd483)" style="fill: none; stroke: #ff0000; stroke-width: 3; stroke-linecap: square"/>
   </g>
   <g id="line2d_24">
    <path clip-path="url(#pb9645bd483)" style="fill: none; stroke: #ff0000; stroke-width: 3; stroke-linecap: square"/>
   </g>
   <g id="line2d_25">
    <path d="M 243.676 291.28 
L 243.676 3 
" clip-path="url(#pb9645bd483)" style="fill: none; stroke: #000000; stroke-width: 1.5; stroke-linecap: square"/>
   </g>
   <g id="line2d_26">
    <path d="M 34.16 147.14 
L 453.192 147.14 
" clip-path="url(#pb9645bd483)" style="fill: none; stroke-dasharray: 2,3.3; stroke-dashoffset: 0; stroke: #000000; stroke-width: 2"/>
   </g>
   <g id="patch_3">
    <path d="M 34.16 291.28 
L 34.16 3 
" style="fill: none; stroke: #000000; stroke-width: 0.8; stroke-linejoin: miter; stroke-linecap: square"/>
   </g>
   <g id="patch_4">
    <path d="M 453.192 291.28 
L 453.192 3 
" style="fill: none; stroke: #000000; stroke-width: 0.8; stroke-linejoin: miter; stroke-linecap: square"/>
   </g>
   <g id="patch_5">
    <path d="M 34.16 291.28 
L 453.192 291.28 
" style="fill: none; stroke: #000000; stroke-width: 0.8; stroke-linejoin: miter; stroke-linecap: square"/>
   </g>
   <g id="patch_6">
    <path d="M 34.16 3 
L 453.192 3 
" style="fill: none; stroke: #000000; stroke-width: 0.8; stroke-linejoin: miter; stroke-linecap: square"/>
   </g>
   <g id="text_6">
    <!-- f20-f24,20-D -->
    <g transform="translate(318.19261 285.5144)scale(0.2 -0.2)">
     <defs>
      <path id="DejaVuSans-34" d="M 2419 4116 
L 825 1625 
L 2419 1625 
L 2419 4116 
z
M 2253 4666 
L 3047 4666 
L 3047 1625 
L 3713 1625 
L 3713 1100 
L 3047 1100 
L 3047 0 
L 2419 0 
L 2419 1100 
L 313 1100 
L 313 1709 
L 2253 4666 
z
" transform="scale(0.015625)"/>
      <path id="DejaVuSans-2c" d="M 750 794 
L 1409 794 
L 1409 256 
L 897 -744 
L 494 -744 
L 750 256 
L 750 794 
z
" transform="scale(0.015625)"/>
      <path id="DejaVuSans-44" d="M 1259 4147 
L 1259 519 
L 2022 519 
Q 2988 519 3436 956 
Q 3884 1394 3884 2338 
Q 3884 3275 3436 3711 
Q 2988 4147 2022 4147 
L 1259 4147 
z
M 628 4666 
L 1925 4666 
Q 3281 4666 3915 4102 
Q 4550 3538 4550 2338 
Q 4550 1131 3912 565 
Q 3275 0 1925 0 
L 628 0 
L 628 4666 
z
" transform="scale(0.015625)"/>
     </defs>
     <use xlink:href="#DejaVuSans-66"/>
     <use xlink:href="#DejaVuSans-32" x="35.205078"/>
     <use xlink:href="#DejaVuSans-30" x="98.828125"/>
     <use xlink:href="#DejaVuSans-2d" x="162.451172"/>
     <use xlink:href="#DejaVuSans-66" x="198.535156"/>
     <use xlink:href="#DejaVuSans-32" x="233.740234"/>
     <use xlink:href="#DejaVuSans-34" x="297.363281"/>
     <use xlink:href="#DejaVuSans-2c" x="360.986328"/>
     <use xlink:href="#DejaVuSans-32" x="392.773438"/>
     <use xlink:href="#DejaVuSans-30" x="456.396484"/>
     <use xlink:href="#DejaVuSans-2d" x="520.019531"/>
     <use xlink:href="#DejaVuSans-44" x="556.103516"/>
    </g>
   </g>
   <g id="text_7">
    <!-- v2.6.3 -->
    <g style="fill: #808080" transform="translate(227.99475 286.317512)scale(0.1 -0.1)">
     <defs>
      <path id="DejaVuSans-2e" d="M 684 794 
L 1344 794 
L 1344 0 
L 684 0 
L 684 794 
z
" transform="scale(0.015625)"/>
      <path id="DejaVuSans-36" d="M 2113 2584 
Q 1688 2584 1439 2293 
Q 1191 2003 1191 1497 
Q 1191 994 1439 701 
Q 1688 409 2113 409 
Q 2538 409 2786 701 
Q 3034 994 3034 1497 
Q 3034 2003 2786 2293 
Q 2538 2584 2113 2584 
z
M 3366 4563 
L 3366 3988 
Q 3128 4100 2886 4159 
Q 2644 4219 2406 4219 
Q 1781 4219 1451 3797 
Q 1122 3375 1075 2522 
Q 1259 2794 1537 2939 
Q 1816 3084 2150 3084 
Q 2853 3084 3261 2657 
Q 3669 2231 3669 1497 
Q 3669 778 3244 343 
Q 2819 -91 2113 -91 
Q 1303 -91 875 529 
Q 447 1150 447 2328 
Q 447 3434 972 4092 
Q 1497 4750 2381 4750 
Q 2619 4750 2861 4703 
Q 3103 4656 3366 4563 
z
" transform="scale(0.015625)"/>
      <path id="DejaVuSans-33" d="M 2597 2516 
Q 3050 2419 3304 2112 
Q 3559 1806 3559 1356 
Q 3559 666 3084 287 
Q 2609 -91 1734 -91 
Q 1441 -91 1130 -33 
Q 819 25 488 141 
L 488 750 
Q 750 597 1062 519 
Q 1375 441 1716 441 
Q 2309 441 2620 675 
Q 2931 909 2931 1356 
Q 2931 1769 2642 2001 
Q 2353 2234 1838 2234 
L 1294 2234 
L 1294 2753 
L 1863 2753 
Q 2328 2753 2575 2939 
Q 2822 3125 2822 3475 
Q 2822 3834 2567 4026 
Q 2313 4219 1838 4219 
Q 1578 4219 1281 4162 
Q 984 4106 628 3988 
L 628 4550 
Q 988 4650 1302 4700 
Q 1616 4750 1894 4750 
Q 2613 4750 3031 4423 
Q 3450 4097 3450 3541 
Q 3450 3153 3228 2886 
Q 3006 2619 2597 2516 
z
" transform="scale(0.015625)"/>
     </defs>
     <use xlink:href="#DejaVuSans-76"/>
     <use xlink:href="#DejaVuSans-32" x="59.179688"/>
     <use xlink:href="#DejaVuSans-2e" x="122.802734"/>
     <use xlink:href="#DejaVuSans-36" x="154.589844"/>
     <use xlink:href="#DejaVuSans-2e" x="218.212891"/>
     <use xlink:href="#DejaVuSans-33" x="250"/>
    </g>
   </g>
   <g id="legend_1">
    <g id="patch_7">
     <path d="M 309.970125 281.28 
L 439.192 281.28 
Q 443.192 281.28 443.192 277.28 
L 443.192 161.855 
Q 443.192 157.855 439.192 157.855 
L 309.970125 157.855 
Q 305.970125 157.855 305.970125 161.855 
L 305.970125 277.28 
Q 305.970125 281.28 309.970125 281.28 
z
" style="fill: #ffffff; opacity: 0.2; stroke: #cccccc; stroke-linejoin: miter"/>
    </g>
    <g id="line2d_27">
     <path d="M 313.970125 174.051875 
L 333.970125 174.051875 
L 353.970125 174.051875 
" style="fill: none; stroke: #000000; stroke-width: 3; stroke-linecap: square"/>
    </g>
    <g id="text_8">
     <!-- 1: 5/5 -->
     <g transform="translate(369.970125 181.051875)scale(0.2 -0.2)">
      <defs>
       <path id="DejaVuSans-3a" d="M 750 794 
L 1409 794 
L 1409 0 
L 750 0 
L 750 794 
z
M 750 3309 
L 1409 3309 
L 1409 2516 
L 750 2516 
L 750 3309 
z
" transform="scale(0.015625)"/>
       <path id="DejaVuSans-35" d="M 691 4666 
L 3169 4666 
L 3169 4134 
L 1269 4134 
L 1269 2991 
Q 1406 3038 1543 3061 
Q 1681 3084 1819 3084 
Q 2600 3084 3056 2656 
Q 3513 2228 3513 1497 
Q 3513 744 3044 326 
Q 2575 -91 1722 -91 
Q 1428 -91 1123 -41 
Q 819 9 494 109 
L 494 744 
Q 775 591 1075 516 
Q 1375 441 1709 441 
Q 2250 441 2565 725 
Q 2881 1009 2881 1497 
Q 2881 1984 2565 2268 
Q 2250 2553 1709 2553 
Q 1456 2553 1204 2497 
Q 953 2441 691 2322 
L 691 4666 
z
" transform="scale(0.015625)"/>
       <path id="DejaVuSans-2f" d="M 1625 4666 
L 2156 4666 
L 531 -594 
L 0 -594 
L 1625 4666 
z
" transform="scale(0.015625)"/>
      </defs>
      <use xlink:href="#DejaVuSans-31"/>
      <use xlink:href="#DejaVuSans-3a" x="63.623047"/>
      <use xlink:href="#DejaVuSans-20" x="97.314453"/>
      <use xlink:href="#DejaVuSans-35" x="129.101562"/>
      <use xlink:href="#DejaVuSans-2f" x="192.724609"/>
      <use xlink:href="#DejaVuSans-35" x="226.416016"/>
     </g>
    </g>
    <g id="line2d_28">
     <path d="M 313.970125 203.408125 
L 333.970125 203.408125 
L 353.970125 203.408125 
" style="fill: none; stroke: #00bfbf; stroke-width: 3; stroke-linecap: square"/>
    </g>
    <g id="text_9">
     <!-- -1: 3/2 -->
     <g transform="translate(369.970125 210.408125)scale(0.2 -0.2)">
      <use xlink:href="#DejaVuSans-2d"/>
      <use xlink:href="#DejaVuSans-31" x="36.083984"/>
      <use xlink:href="#DejaVuSans-3a" x="99.707031"/>
      <use xlink:href="#DejaVuSans-20" x="133.398438"/>
      <use xlink:href="#DejaVuSans-33" x="165.185547"/>
      <use xlink:href="#DejaVuSans-2f" x="228.808594"/>
      <use xlink:href="#DejaVuSans-32" x="262.5"/>
     </g>
    </g>
    <g id="line2d_29">
     <path d="M 313.970125 232.764375 
L 333.970125 232.764375 
L 353.970125 232.764375 
" style="fill: none; stroke: #bf00bf; stroke-width: 3; stroke-linecap: square"/>
    </g>
    <g id="text_10">
     <!-- -4: 2/1 -->
     <g transform="translate(369.970125 239.764375)scale(0.2 -0.2)">
      <use xlink:href="#DejaVuSans-2d"/>
      <use xlink:href="#DejaVuSans-34" x="36.083984"/>
      <use xlink:href="#DejaVuSans-3a" x="99.707031"/>
      <use xlink:href="#DejaVuSans-20" x="133.398438"/>
      <use xlink:href="#DejaVuSans-32" x="165.185547"/>
      <use xlink:href="#DejaVuSans-2f" x="228.808594"/>
      <use xlink:href="#DejaVuSans-31" x="262.5"/>
     </g>
    </g>
    <g id="line2d_30">
     <path d="M 313.970125 262.120625 
L 333.970125 262.120625 
L 353.970125 262.120625 
" style="fill: none; stroke: #ff0000; stroke-width: 3; stroke-linecap: square"/>
    </g>
    <g id="text_11">
     <!-- -8: 2/1 -->
     <g transform="translate(369.970125 269.120625)scale(0.2 -0.2)">
      <defs>
       <path id="DejaVuSans-38" d="M 2034 2216 
Q 1584 2216 1326 1975 
Q 1069 1734 1069 1313 
Q 1069 891 1326 650 
Q 1584 409 2034 409 
Q 2484 409 2743 651 
Q 3003 894 3003 1313 
Q 3003 1734 2745 1975 
Q 2488 2216 2034 2216 
z
M 1403 2484 
Q 997 2584 770 2862 
Q 544 3141 544 3541 
Q 544 4100 942 4425 
Q 1341 4750 2034 4750 
Q 2731 4750 3128 4425 
Q 3525 4100 3525 3541 
Q 3525 3141 3298 2862 
Q 3072 2584 2669 2484 
Q 3125 2378 3379 2068 
Q 3634 1759 3634 1313 
Q 3634 634 3220 271 
Q 2806 -91 2034 -91 
Q 1263 -91 848 271 
Q 434 634 434 1313 
Q 434 1759 690 2068 
Q 947 2378 1403 2484 
z
M 1172 3481 
Q 1172 3119 1398 2916 
Q 1625 2713 2034 2713 
Q 2441 2713 2670 2916 
Q 2900 3119 2900 3481 
Q 2900 3844 2670 4047 
Q 2441 4250 2034 4250 
Q 1625 4250 1398 4047 
Q 1172 3844 1172 3481 
z
" transform="scale(0.015625)"/>
      </defs>
      <use xlink:href="#DejaVuSans-2d"/>
      <use xlink:href="#DejaVuSans-38" x="36.083984"/>
      <use xlink:href="#DejaVuSans-3a" x="99.707031"/>
      <use xlink:href="#DejaVuSans-20" x="133.398438"/>
      <use xlink:href="#DejaVuSans-32" x="165.185547"/>
      <use xlink:href="#DejaVuSans-2f" x="228.808594"/>
      <use xlink:href="#DejaVuSans-31" x="262.5"/>
     </g>
    </g>
   </g>
  </g>
 </g>
 <defs>
  <clipPath id="pb9645bd483">
   <rect x="34.16" y="3" width="419.032" height="288.28"/>
  </clipPath>
 </defs>
</svg>
