<?xml version="1.0" encoding="utf-8" standalone="no"?>
<!DOCTYPE svg PUBLIC "-//W3C//DTD SVG 1.1//EN"
  "http://www.w3.org/Graphics/SVG/1.1/DTD/svg11.dtd">
<svg xmlns:xlink="http://www.w3.org/1999/xlink" width="460.8pt" height="345.6pt" viewBox="0 0 460.8 345.6" xmlns="http://www.w3.org/2000/svg" version="1.1">
 <metadata>
  <rdf:RDF xmlns:dc="http://purl.org/dc/elements/1.1/" xmlns:cc="http://creativecommons.org/ns#" xmlns:rdf="http://www.w3.org/1999/02/22-rdf-syntax-ns#">
   <cc:Work>
    <dc:type rdf:resource="http://purl.org/dc/dcmitype/StillImage"/>
    <dc:date>2023-04-07T09:01:01.806539</dc:date>
    <dc:format>image/svg+xml</dc:format>
    <dc:creator>
     <cc:Agent>
      <dc:title>Matplotlib v3.5.2, https://matplotlib.org/</dc:title>
     </cc:Agent>
    </dc:creator>
   </cc:Work>
  </rdf:RDF>
 </metadata>
 <defs>
  <style type="text/css">*{stroke-linejoin: round; stroke-linecap: butt}</style>
 </defs>
 <g id="figure_1">
  <g id="patch_1">
   <path d="M 0 345.6 
L 460.8 345.6 
L 460.8 0 
L 0 0 
z
" style="fill: #ffffff"/>
  </g>
  <g id="axes_1">
   <g id="patch_2">
    <path d="M 34.16 291.28 
L 453.192 291.28 
L 453.192 3 
L 34.16 3 
z
" style="fill: #ffffff"/>
   </g>
   <g id="matplotlib.axis_1">
    <g id="xtick_1">
     <g id="line2d_1">
      <path d="M 67.866418 291.28 
L 67.866418 3 
" clip-path="url(#p8952e7310f)" style="fill: none; stroke: #b0b0b0; stroke-width: 0.8; stroke-linecap: square"/>
     </g>
     <g id="line2d_2">
      <defs>
       <path id="ma76d737c82" d="M 0 0 
L 0 3.5 
" style="stroke: #000000; stroke-width: 0.8"/>
      </defs>
      <g>
       <use xlink:href="#ma76d737c82" x="67.866418" y="291.28" style="stroke: #000000; stroke-width: 0.8"/>
      </g>
     </g>
     <g id="text_1">
      <!-- -1 -->
      <g transform="translate(57.896105 313.476875)scale(0.2 -0.2)">
       <defs>
        <path id="DejaVuSans-2d" d="M 313 2009 
L 1997 2009 
L 1997 1497 
L 313 1497 
L 313 2009 
z
" transform="scale(0.015625)"/>
        <path id="DejaVuSans-31" d="M 794 531 
L 1825 531 
L 1825 4091 
L 703 3866 
L 703 4441 
L 1819 4666 
L 2450 4666 
L 2450 531 
L 3481 531 
L 3481 0 
L 794 0 
L 794 531 
z
" transform="scale(0.015625)"/>
       </defs>
       <use xlink:href="#DejaVuSans-2d"/>
       <use xlink:href="#DejaVuSans-31" x="36.083984"/>
      </g>
     </g>
    </g>
    <g id="xtick_2">
     <g id="line2d_3">
      <path d="M 243.676 291.28 
L 243.676 3 
" clip-path="url(#p8952e7310f)" style="fill: none; stroke: #b0b0b0; stroke-width: 0.8; stroke-linecap: square"/>
     </g>
     <g id="line2d_4">
      <g>
       <use xlink:href="#ma76d737c82" x="243.676" y="291.28" style="stroke: #000000; stroke-width: 0.8"/>
      </g>
     </g>
     <g id="text_2">
      <!-- 0 -->
      <g transform="translate(237.3135 313.476875)scale(0.2 -0.2)">
       <defs>
        <path id="DejaVuSans-30" d="M 2034 4250 
Q 1547 4250 1301 3770 
Q 1056 3291 1056 2328 
Q 1056 1369 1301 889 
Q 1547 409 2034 409 
Q 2525 409 2770 889 
Q 3016 1369 3016 2328 
Q 3016 3291 2770 3770 
Q 2525 4250 2034 4250 
z
M 2034 4750 
Q 2819 4750 3233 4129 
Q 3647 3509 3647 2328 
Q 3647 1150 3233 529 
Q 2819 -91 2034 -91 
Q 1250 -91 836 529 
Q 422 1150 422 2328 
Q 422 3509 836 4129 
Q 1250 4750 2034 4750 
z
" transform="scale(0.015625)"/>
       </defs>
       <use xlink:href="#DejaVuSans-30"/>
      </g>
     </g>
    </g>
    <g id="xtick_3">
     <g id="line2d_5">
      <path d="M 419.485582 291.28 
L 419.485582 3 
" clip-path="url(#p8952e7310f)" style="fill: none; stroke: #b0b0b0; stroke-width: 0.8; stroke-linecap: square"/>
     </g>
     <g id="line2d_6">
      <g>
       <use xlink:href="#ma76d737c82" x="419.485582" y="291.28" style="stroke: #000000; stroke-width: 0.8"/>
      </g>
     </g>
     <g id="text_3">
      <!-- 1 -->
      <g transform="translate(413.123082 313.476875)scale(0.2 -0.2)">
       <use xlink:href="#DejaVuSans-31"/>
      </g>
     </g>
    </g>
    <g id="xtick_4">
     <g id="line2d_7">
      <defs>
       <path id="maba933c97a" d="M 0 0 
L 0 2 
" style="stroke: #000000; stroke-width: 0.6"/>
      </defs>
      <g>
       <use xlink:href="#maba933c97a" x="40.633169" y="291.28" style="stroke: #000000; stroke-width: 0.6"/>
      </g>
     </g>
    </g>
    <g id="xtick_5">
     <g id="line2d_8">
      <g>
       <use xlink:href="#maba933c97a" x="50.828709" y="291.28" style="stroke: #000000; stroke-width: 0.6"/>
      </g>
     </g>
    </g>
    <g id="xtick_6">
     <g id="line2d_9">
      <g>
       <use xlink:href="#maba933c97a" x="59.821812" y="291.28" style="stroke: #000000; stroke-width: 0.6"/>
      </g>
     </g>
    </g>
    <g id="xtick_7">
     <g id="line2d_10">
      <g>
       <use xlink:href="#maba933c97a" x="120.790375" y="291.28" style="stroke: #000000; stroke-width: 0.6"/>
      </g>
     </g>
    </g>
    <g id="xtick_8">
     <g id="line2d_11">
      <g>
       <use xlink:href="#maba933c97a" x="151.748906" y="291.28" style="stroke: #000000; stroke-width: 0.6"/>
      </g>
     </g>
    </g>
    <g id="xtick_9">
     <g id="line2d_12">
      <g>
       <use xlink:href="#maba933c97a" x="173.714333" y="291.28" style="stroke: #000000; stroke-width: 0.6"/>
      </g>
     </g>
    </g>
    <g id="xtick_10">
     <g id="line2d_13">
      <g>
       <use xlink:href="#maba933c97a" x="190.752042" y="291.28" style="stroke: #000000; stroke-width: 0.6"/>
      </g>
     </g>
    </g>
    <g id="xtick_11">
     <g id="line2d_14">
      <g>
       <use xlink:href="#maba933c97a" x="204.672864" y="291.28" style="stroke: #000000; stroke-width: 0.6"/>
      </g>
     </g>
    </g>
    <g id="xtick_12">
     <g id="line2d_15">
      <g>
       <use xlink:href="#maba933c97a" x="216.442751" y="291.28" style="stroke: #000000; stroke-width: 0.6"/>
      </g>
     </g>
    </g>
    <g id="xtick_13">
     <g id="line2d_16">
      <g>
       <use xlink:href="#maba933c97a" x="226.638291" y="291.28" style="stroke: #000000; stroke-width: 0.6"/>
      </g>
     </g>
    </g>
    <g id="xtick_14">
     <g id="line2d_17">
      <g>
       <use xlink:href="#maba933c97a" x="235.631395" y="291.28" style="stroke: #000000; stroke-width: 0.6"/>
      </g>
     </g>
    </g>
    <g id="xtick_15">
     <g id="line2d_18">
      <g>
       <use xlink:href="#maba933c97a" x="296.599958" y="291.28" style="stroke: #000000; stroke-width: 0.6"/>
      </g>
     </g>
    </g>
    <g id="xtick_16">
     <g id="line2d_19">
      <g>
       <use xlink:href="#maba933c97a" x="327.558489" y="291.28" style="stroke: #000000; stroke-width: 0.6"/>
      </g>
     </g>
    </g>
    <g id="xtick_17">
     <g id="line2d_20">
      <g>
       <use xlink:href="#maba933c97a" x="349.523916" y="291.28" style="stroke: #000000; stroke-width: 0.6"/>
      </g>
     </g>
    </g>
    <g id="xtick_18">
     <g id="line2d_21">
      <g>
       <use xlink:href="#maba933c97a" x="366.561625" y="291.28" style="stroke: #000000; stroke-width: 0.6"/>
      </g>
     </g>
    </g>
    <g id="xtick_19">
     <g id="line2d_22">
      <g>
       <use xlink:href="#maba933c97a" x="380.482446" y="291.28" style="stroke: #000000; stroke-width: 0.6"/>
      </g>
     </g>
    </g>
    <g id="xtick_20">
     <g id="line2d_23">
      <g>
       <use xlink:href="#maba933c97a" x="392.252334" y="291.28" style="stroke: #000000; stroke-width: 0.6"/>
      </g>
     </g>
    </g>
    <g id="xtick_21">
     <g id="line2d_24">
      <g>
       <use xlink:href="#maba933c97a" x="402.447873" y="291.28" style="stroke: #000000; stroke-width: 0.6"/>
      </g>
     </g>
    </g>
    <g id="xtick_22">
     <g id="line2d_25">
      <g>
       <use xlink:href="#maba933c97a" x="411.440977" y="291.28" style="stroke: #000000; stroke-width: 0.6"/>
      </g>
     </g>
    </g>
    <g id="text_4">
     <!-- log10 of FEvals ratio -->
     <g transform="translate(141.371312 336.833125)scale(0.2 -0.2)">
      <defs>
       <path id="DejaVuSans-6c" d="M 603 4863 
L 1178 4863 
L 1178 0 
L 603 0 
L 603 4863 
z
" transform="scale(0.015625)"/>
       <path id="DejaVuSans-6f" d="M 1959 3097 
Q 1497 3097 1228 2736 
Q 959 2375 959 1747 
Q 959 1119 1226 758 
Q 1494 397 1959 397 
Q 2419 397 2687 759 
Q 2956 1122 2956 1747 
Q 2956 2369 2687 2733 
Q 2419 3097 1959 3097 
z
M 1959 3584 
Q 2709 3584 3137 3096 
Q 3566 2609 3566 1747 
Q 3566 888 3137 398 
Q 2709 -91 1959 -91 
Q 1206 -91 779 398 
Q 353 888 353 1747 
Q 353 2609 779 3096 
Q 1206 3584 1959 3584 
z
" transform="scale(0.015625)"/>
       <path id="DejaVuSans-67" d="M 2906 1791 
Q 2906 2416 2648 2759 
Q 2391 3103 1925 3103 
Q 1463 3103 1205 2759 
Q 947 2416 947 1791 
Q 947 1169 1205 825 
Q 1463 481 1925 481 
Q 2391 481 2648 825 
Q 2906 1169 2906 1791 
z
M 3481 434 
Q 3481 -459 3084 -895 
Q 2688 -1331 1869 -1331 
Q 1566 -1331 1297 -1286 
Q 1028 -1241 775 -1147 
L 775 -588 
Q 1028 -725 1275 -790 
Q 1522 -856 1778 -856 
Q 2344 -856 2625 -561 
Q 2906 -266 2906 331 
L 2906 616 
Q 2728 306 2450 153 
Q 2172 0 1784 0 
Q 1141 0 747 490 
Q 353 981 353 1791 
Q 353 2603 747 3093 
Q 1141 3584 1784 3584 
Q 2172 3584 2450 3431 
Q 2728 3278 2906 2969 
L 2906 3500 
L 3481 3500 
L 3481 434 
z
" transform="scale(0.015625)"/>
       <path id="DejaVuSans-20" transform="scale(0.015625)"/>
       <path id="DejaVuSans-66" d="M 2375 4863 
L 2375 4384 
L 1825 4384 
Q 1516 4384 1395 4259 
Q 1275 4134 1275 3809 
L 1275 3500 
L 2222 3500 
L 2222 3053 
L 1275 3053 
L 1275 0 
L 697 0 
L 697 3053 
L 147 3053 
L 147 3500 
L 697 3500 
L 697 3744 
Q 697 4328 969 4595 
Q 1241 4863 1831 4863 
L 2375 4863 
z
" transform="scale(0.015625)"/>
       <path id="DejaVuSans-46" d="M 628 4666 
L 3309 4666 
L 3309 4134 
L 1259 4134 
L 1259 2759 
L 3109 2759 
L 3109 2228 
L 1259 2228 
L 1259 0 
L 628 0 
L 628 4666 
z
" transform="scale(0.015625)"/>
       <path id="DejaVuSans-45" d="M 628 4666 
L 3578 4666 
L 3578 4134 
L 1259 4134 
L 1259 2753 
L 3481 2753 
L 3481 2222 
L 1259 2222 
L 1259 531 
L 3634 531 
L 3634 0 
L 628 0 
L 628 4666 
z
" transform="scale(0.015625)"/>
       <path id="DejaVuSans-76" d="M 191 3500 
L 800 3500 
L 1894 563 
L 2988 3500 
L 3597 3500 
L 2284 0 
L 1503 0 
L 191 3500 
z
" transform="scale(0.015625)"/>
       <path id="DejaVuSans-61" d="M 2194 1759 
Q 1497 1759 1228 1600 
Q 959 1441 959 1056 
Q 959 750 1161 570 
Q 1363 391 1709 391 
Q 2188 391 2477 730 
Q 2766 1069 2766 1631 
L 2766 1759 
L 2194 1759 
z
M 3341 1997 
L 3341 0 
L 2766 0 
L 2766 531 
Q 2569 213 2275 61 
Q 1981 -91 1556 -91 
Q 1019 -91 701 211 
Q 384 513 384 1019 
Q 384 1609 779 1909 
Q 1175 2209 1959 2209 
L 2766 2209 
L 2766 2266 
Q 2766 2663 2505 2880 
Q 2244 3097 1772 3097 
Q 1472 3097 1187 3025 
Q 903 2953 641 2809 
L 641 3341 
Q 956 3463 1253 3523 
Q 1550 3584 1831 3584 
Q 2591 3584 2966 3190 
Q 3341 2797 3341 1997 
z
" transform="scale(0.015625)"/>
       <path id="DejaVuSans-73" d="M 2834 3397 
L 2834 2853 
Q 2591 2978 2328 3040 
Q 2066 3103 1784 3103 
Q 1356 3103 1142 2972 
Q 928 2841 928 2578 
Q 928 2378 1081 2264 
Q 1234 2150 1697 2047 
L 1894 2003 
Q 2506 1872 2764 1633 
Q 3022 1394 3022 966 
Q 3022 478 2636 193 
Q 2250 -91 1575 -91 
Q 1294 -91 989 -36 
Q 684 19 347 128 
L 347 722 
Q 666 556 975 473 
Q 1284 391 1588 391 
Q 1994 391 2212 530 
Q 2431 669 2431 922 
Q 2431 1156 2273 1281 
Q 2116 1406 1581 1522 
L 1381 1569 
Q 847 1681 609 1914 
Q 372 2147 372 2553 
Q 372 3047 722 3315 
Q 1072 3584 1716 3584 
Q 2034 3584 2315 3537 
Q 2597 3491 2834 3397 
z
" transform="scale(0.015625)"/>
       <path id="DejaVuSans-72" d="M 2631 2963 
Q 2534 3019 2420 3045 
Q 2306 3072 2169 3072 
Q 1681 3072 1420 2755 
Q 1159 2438 1159 1844 
L 1159 0 
L 581 0 
L 581 3500 
L 1159 3500 
L 1159 2956 
Q 1341 3275 1631 3429 
Q 1922 3584 2338 3584 
Q 2397 3584 2469 3576 
Q 2541 3569 2628 3553 
L 2631 2963 
z
" transform="scale(0.015625)"/>
       <path id="DejaVuSans-74" d="M 1172 4494 
L 1172 3500 
L 2356 3500 
L 2356 3053 
L 1172 3053 
L 1172 1153 
Q 1172 725 1289 603 
Q 1406 481 1766 481 
L 2356 481 
L 2356 0 
L 1766 0 
Q 1100 0 847 248 
Q 594 497 594 1153 
L 594 3053 
L 172 3053 
L 172 3500 
L 594 3500 
L 594 4494 
L 1172 4494 
z
" transform="scale(0.015625)"/>
       <path id="DejaVuSans-69" d="M 603 3500 
L 1178 3500 
L 1178 0 
L 603 0 
L 603 3500 
z
M 603 4863 
L 1178 4863 
L 1178 4134 
L 603 4134 
L 603 4863 
z
" transform="scale(0.015625)"/>
      </defs>
      <use xlink:href="#DejaVuSans-6c"/>
      <use xlink:href="#DejaVuSans-6f" x="27.783203"/>
      <use xlink:href="#DejaVuSans-67" x="88.964844"/>
      <use xlink:href="#DejaVuSans-31" x="152.441406"/>
      <use xlink:href="#DejaVuSans-30" x="216.064453"/>
      <use xlink:href="#DejaVuSans-20" x="279.6875"/>
      <use xlink:href="#DejaVuSans-6f" x="311.474609"/>
      <use xlink:href="#DejaVuSans-66" x="372.65625"/>
      <use xlink:href="#DejaVuSans-20" x="407.861328"/>
      <use xlink:href="#DejaVuSans-46" x="439.648438"/>
      <use xlink:href="#DejaVuSans-45" x="497.167969"/>
      <use xlink:href="#DejaVuSans-76" x="560.351562"/>
      <use xlink:href="#DejaVuSans-61" x="619.53125"/>
      <use xlink:href="#DejaVuSans-6c" x="680.810547"/>
      <use xlink:href="#DejaVuSans-73" x="708.59375"/>
      <use xlink:href="#DejaVuSans-20" x="760.693359"/>
      <use xlink:href="#DejaVuSans-72" x="792.480469"/>
      <use xlink:href="#DejaVuSans-61" x="833.59375"/>
      <use xlink:href="#DejaVuSans-74" x="894.873047"/>
      <use xlink:href="#DejaVuSans-69" x="934.082031"/>
      <use xlink:href="#DejaVuSans-6f" x="961.865234"/>
     </g>
    </g>
   </g>
   <g id="matplotlib.axis_2">
    <g id="ytick_1">
     <g id="line2d_26">
      <path d="M 34.16 288.453725 
L 453.192 288.453725 
" clip-path="url(#p8952e7310f)" style="fill: none; stroke: #b0b0b0; stroke-width: 0.8; stroke-linecap: square"/>
     </g>
     <g id="line2d_27">
      <defs>
       <path id="mbb0ce79992" d="M 0 0 
L -3.5 0 
" style="stroke: #000000; stroke-width: 0.8"/>
      </defs>
      <g>
       <use xlink:href="#mbb0ce79992" x="34.16" y="288.453725" style="stroke: #000000; stroke-width: 0.8"/>
      </g>
     </g>
    </g>
    <g id="ytick_2">
     <g id="line2d_28">
      <path d="M 34.16 217.796863 
L 453.192 217.796863 
" clip-path="url(#p8952e7310f)" style="fill: none; stroke: #b0b0b0; stroke-width: 0.8; stroke-linecap: square"/>
     </g>
     <g id="line2d_29">
      <g>
       <use xlink:href="#mbb0ce79992" x="34.16" y="217.796863" style="stroke: #000000; stroke-width: 0.8"/>
      </g>
     </g>
    </g>
    <g id="ytick_3">
     <g id="line2d_30">
      <path d="M 34.16 147.14 
L 453.192 147.14 
" clip-path="url(#p8952e7310f)" style="fill: none; stroke: #b0b0b0; stroke-width: 0.8; stroke-linecap: square"/>
     </g>
     <g id="line2d_31">
      <g>
       <use xlink:href="#mbb0ce79992" x="34.16" y="147.14" style="stroke: #000000; stroke-width: 0.8"/>
      </g>
     </g>
    </g>
    <g id="ytick_4">
     <g id="line2d_32">
      <path d="M 34.16 76.483137 
L 453.192 76.483137 
" clip-path="url(#p8952e7310f)" style="fill: none; stroke: #b0b0b0; stroke-width: 0.8; stroke-linecap: square"/>
     </g>
     <g id="line2d_33">
      <g>
       <use xlink:href="#mbb0ce79992" x="34.16" y="76.483137" style="stroke: #000000; stroke-width: 0.8"/>
      </g>
     </g>
    </g>
    <g id="ytick_5">
     <g id="line2d_34">
      <path d="M 34.16 5.826275 
L 453.192 5.826275 
" clip-path="url(#p8952e7310f)" style="fill: none; stroke: #b0b0b0; stroke-width: 0.8; stroke-linecap: square"/>
     </g>
     <g id="line2d_35">
      <g>
       <use xlink:href="#mbb0ce79992" x="34.16" y="5.826275" style="stroke: #000000; stroke-width: 0.8"/>
      </g>
     </g>
    </g>
    <g id="text_5">
     <!-- proportion of trials -->
     <g transform="translate(19.000625 240.14625)rotate(-90)scale(0.2 -0.2)">
      <defs>
       <path id="DejaVuSans-70" d="M 1159 525 
L 1159 -1331 
L 581 -1331 
L 581 3500 
L 1159 3500 
L 1159 2969 
Q 1341 3281 1617 3432 
Q 1894 3584 2278 3584 
Q 2916 3584 3314 3078 
Q 3713 2572 3713 1747 
Q 3713 922 3314 415 
Q 2916 -91 2278 -91 
Q 1894 -91 1617 61 
Q 1341 213 1159 525 
z
M 3116 1747 
Q 3116 2381 2855 2742 
Q 2594 3103 2138 3103 
Q 1681 3103 1420 2742 
Q 1159 2381 1159 1747 
Q 1159 1113 1420 752 
Q 1681 391 2138 391 
Q 2594 391 2855 752 
Q 3116 1113 3116 1747 
z
" transform="scale(0.015625)"/>
       <path id="DejaVuSans-6e" d="M 3513 2113 
L 3513 0 
L 2938 0 
L 2938 2094 
Q 2938 2591 2744 2837 
Q 2550 3084 2163 3084 
Q 1697 3084 1428 2787 
Q 1159 2491 1159 1978 
L 1159 0 
L 581 0 
L 581 3500 
L 1159 3500 
L 1159 2956 
Q 1366 3272 1645 3428 
Q 1925 3584 2291 3584 
Q 2894 3584 3203 3211 
Q 3513 2838 3513 2113 
z
" transform="scale(0.015625)"/>
      </defs>
      <use xlink:href="#DejaVuSans-70"/>
      <use xlink:href="#DejaVuSans-72" x="63.476562"/>
      <use xlink:href="#DejaVuSans-6f" x="102.339844"/>
      <use xlink:href="#DejaVuSans-70" x="163.521484"/>
      <use xlink:href="#DejaVuSans-6f" x="226.998047"/>
      <use xlink:href="#DejaVuSans-72" x="288.179688"/>
      <use xlink:href="#DejaVuSans-74" x="329.292969"/>
      <use xlink:href="#DejaVuSans-69" x="368.501953"/>
      <use xlink:href="#DejaVuSans-6f" x="396.285156"/>
      <use xlink:href="#DejaVuSans-6e" x="457.466797"/>
      <use xlink:href="#DejaVuSans-20" x="520.845703"/>
      <use xlink:href="#DejaVuSans-6f" x="552.632812"/>
      <use xlink:href="#DejaVuSans-66" x="613.814453"/>
      <use xlink:href="#DejaVuSans-20" x="649.019531"/>
      <use xlink:href="#DejaVuSans-74" x="680.806641"/>
      <use xlink:href="#DejaVuSans-72" x="720.015625"/>
      <use xlink:href="#DejaVuSans-69" x="761.128906"/>
      <use xlink:href="#DejaVuSans-61" x="788.912109"/>
      <use xlink:href="#DejaVuSans-6c" x="850.191406"/>
      <use xlink:href="#DejaVuSans-73" x="877.974609"/>
     </g>
    </g>
   </g>
   <g id="line2d_36">
    <path d="M 34.16 288.453725 
L 49.93381 288.453725 
L 49.93381 288.139695 
L 53.383062 288.139695 
L 53.383062 287.825664 
L 54.102482 287.825664 
L 54.102482 287.511634 
L 56.201545 287.511634 
L 56.201545 287.197603 
L 57.1745 287.197603 
L 57.1745 286.883573 
L 57.495465 286.883573 
L 57.495465 286.569542 
L 60.623751 286.569542 
L 60.623751 286.255512 
L 60.944716 286.255512 
L 60.944716 285.941481 
L 61.343171 285.941481 
L 61.343171 285.627451 
L 61.664136 285.627451 
L 61.664136 285.31342 
L 62.163793 285.31342 
L 62.163793 284.99939 
L 63.442235 284.99939 
L 63.442235 284.685359 
L 63.7632 284.685359 
L 63.7632 284.371329 
L 65.166025 284.371329 
L 65.166025 284.057298 
L 66.446672 284.057298 
L 66.446672 283.743268 
L 69.404482 283.743268 
L 69.404482 283.429237 
L 69.725447 283.429237 
L 69.725447 283.115207 
L 72.406715 283.115207 
L 72.406715 282.801176 
L 72.72768 282.801176 
L 72.72768 282.487146 
L 73.687361 282.487146 
L 73.687361 282.173115 
L 74.008326 282.173115 
L 74.008326 281.859085 
L 106.328963 281.859085 
L 106.328963 281.545054 
L 111.261203 281.545054 
L 111.261203 281.231024 
L 113.569652 281.231024 
L 113.569652 280.916993 
L 113.890617 280.916993 
L 113.890617 280.602963 
L 116.994705 280.602963 
L 116.994705 280.288932 
L 118.501893 280.288932 
L 118.569142 279.660871 
L 118.822858 279.660871 
L 118.822858 279.346841 
L 122.018394 279.346841 
L 122.018394 279.03281 
L 122.737814 279.03281 
L 122.737814 278.71878 
L 124.235394 278.71878 
L 124.235394 278.404749 
L 124.55636 278.404749 
L 124.55636 278.090719 
L 124.836877 278.090719 
L 124.836877 277.776688 
L 126.862281 277.776688 
L 126.862281 277.462658 
L 129.631518 277.462658 
L 129.631518 277.148627 
L 130.311533 277.148627 
L 130.311533 276.834597 
L 130.799125 276.834597 
L 130.799125 276.520566 
L 131.030953 276.520566 
L 131.030953 276.206536 
L 131.807604 276.206536 
L 131.807604 275.892505 
L 133.08077 275.892505 
L 133.130016 275.264444 
L 133.80019 275.264444 
L 133.801357 274.636383 
L 134.150449 274.636383 
L 134.150449 274.322353 
L 135.082004 274.322353 
L 135.082004 274.008322 
L 135.256856 274.008322 
L 135.256856 273.694292 
L 135.899253 273.694292 
L 135.976276 273.066231 
L 137.5997 273.066231 
L 137.5997 272.7522 
L 138.075339 272.7522 
L 138.075339 272.43817 
L 138.31912 272.43817 
L 138.31912 272.124139 
L 139.092264 272.124139 
L 139.092264 271.810109 
L 140.418184 271.810109 
L 140.418184 271.496078 
L 141.861501 271.496078 
L 141.861501 271.182048 
L 142.094496 271.182048 
L 142.094496 270.868017 
L 143.375143 270.868017 
L 143.375143 270.553987 
L 144.037587 270.553987 
L 144.037587 270.239956 
L 144.863733 270.239956 
L 144.863733 269.925926 
L 146.14438 269.925926 
L 146.14438 269.611895 
L 146.380431 269.611895 
L 146.380431 269.297865 
L 147.039819 269.297865 
L 147.039819 268.983834 
L 148.320466 268.983834 
L 148.320466 268.669804 
L 149.382664 268.669804 
L 149.382664 268.355773 
L 150.66331 268.355773 
L 150.66331 268.041743 
L 157.544408 268.041743 
L 157.544408 267.727712 
L 158.607905 267.727712 
L 158.607905 267.413682 
L 159.047036 267.413682 
L 159.047036 267.099651 
L 161.063166 267.099651 
L 161.063166 266.785621 
L 163.064436 266.785621 
L 163.064436 266.47159 
L 164.785097 266.47159 
L 164.785097 266.15756 
L 165.106062 266.15756 
L 165.106062 265.843529 
L 165.848594 265.843529 
L 165.848594 265.529499 
L 166.169559 265.529499 
L 166.169559 265.215468 
L 166.287726 265.215468 
L 166.287726 264.901438 
L 166.513688 264.901438 
L 166.608691 264.273377 
L 167.233108 264.273377 
L 167.233108 263.959346 
L 168.303856 263.959346 
L 168.303856 263.645316 
L 168.624821 263.645316 
L 168.624821 263.331285 
L 169.332171 263.331285 
L 169.332171 263.017255 
L 169.851425 263.017255 
L 169.851425 262.703224 
L 172.42621 262.703224 
L 172.42621 262.389194 
L 173.300677 262.389194 
L 173.383166 261.761133 
L 174.020096 261.761133 
L 174.020096 261.447102 
L 174.249436 261.447102 
L 174.249436 261.133072 
L 174.964295 261.133072 
L 174.964295 260.819041 
L 175.294419 260.819041 
L 175.294419 260.505011 
L 175.875462 260.505011 
L 175.875462 260.19098 
L 176.11916 260.19098 
L 176.11916 259.87695 
L 176.594881 259.87695 
L 176.594881 259.562919 
L 176.832417 259.562919 
L 176.832417 259.248889 
L 177.483671 259.248889 
L 177.551837 258.620828 
L 177.698687 258.620828 
L 177.698687 258.306797 
L 178.296651 258.306797 
L 178.296651 257.992767 
L 178.418107 257.992767 
L 178.418107 257.678736 
L 178.693945 257.678736 
L 178.693945 257.364706 
L 179.577298 257.364706 
L 179.6509 256.736645 
L 179.896535 256.736645 
L 179.896535 256.422614 
L 180.517171 256.422614 
L 180.517171 256.108584 
L 180.957303 256.108584 
L 180.957303 255.794553 
L 182.081408 255.794553 
L 182.081408 255.480523 
L 183.257434 255.480523 
L 183.257434 255.166492 
L 184.656193 255.166492 
L 184.724361 254.538431 
L 185.045326 254.538431 
L 185.115045 253.59634 
L 185.613148 253.59634 
L 185.630037 252.968279 
L 186.026671 252.968279 
L 186.026671 252.654248 
L 186.206345 252.654248 
L 186.206345 252.340218 
L 186.364287 252.340218 
L 186.364287 252.026187 
L 186.479418 252.026187 
L 186.479418 251.712157 
L 187.248385 251.712157 
L 187.248385 251.398126 
L 187.596004 251.398126 
L 187.658425 250.770065 
L 188.189674 250.770065 
L 188.202757 250.142004 
L 188.434543 250.142004 
L 188.434543 249.827974 
L 188.615381 249.827974 
L 188.624164 249.199913 
L 188.939072 249.199913 
L 188.939072 248.885882 
L 189.481651 248.885882 
L 189.481651 248.571852 
L 189.623714 248.571852 
L 189.623714 248.257821 
L 189.896027 248.257821 
L 189.896027 247.943791 
L 190.104121 247.943791 
L 190.104121 247.62976 
L 190.364088 247.62976 
L 190.364088 247.31573 
L 190.545601 247.31573 
L 190.545601 247.001699 
L 190.722708 247.001699 
L 190.762297 246.373638 
L 190.958911 246.373638 
L 190.958911 246.059608 
L 191.753746 246.059608 
L 191.753746 245.745577 
L 191.869209 245.745577 
L 191.869209 245.431547 
L 192.34106 245.431547 
L 192.34106 245.117516 
L 192.497428 245.117516 
L 192.497428 244.803486 
L 192.960672 244.803486 
L 192.960672 244.489455 
L 193.134997 244.489455 
L 193.134997 244.175425 
L 193.683585 244.175425 
L 193.781457 243.547364 
L 193.887086 243.547364 
L 193.923176 242.919303 
L 194.261864 242.919303 
L 194.261864 242.605272 
L 195.073244 242.605272 
L 195.073244 242.291242 
L 195.19155 242.291242 
L 195.237177 241.663181 
L 195.412188 241.663181 
L 195.477842 241.03512 
L 195.751487 241.03512 
L 195.751487 240.721089 
L 195.914797 240.721089 
L 195.97175 240.093028 
L 196.338862 240.093028 
L 196.395204 239.464967 
L 196.692413 239.464967 
L 196.801442 238.522876 
L 197.100954 238.522876 
L 197.118251 237.894815 
L 197.30181 237.894815 
L 197.361409 236.952723 
L 197.581361 236.952723 
L 197.590103 236.324662 
L 198.209714 236.324662 
L 198.209714 236.010632 
L 198.50791 236.010632 
L 198.50791 235.696601 
L 198.868499 235.696601 
L 198.868499 235.382571 
L 198.979762 235.382571 
L 198.979762 235.06854 
L 199.389119 235.06854 
L 199.425542 234.126449 
L 199.56993 234.126449 
L 199.641062 232.870327 
L 199.869526 232.870327 
L 199.869526 232.556296 
L 200.440593 232.556296 
L 200.53562 231.300174 
L 201.007472 231.300174 
L 201.016027 230.672113 
L 201.211344 230.672113 
L 201.211344 230.358083 
L 201.430322 230.358083 
L 201.52826 228.78793 
L 201.627083 228.78793 
L 201.70327 228.159869 
L 201.830251 228.159869 
L 201.830251 227.845839 
L 201.983982 227.845839 
L 201.983982 227.531808 
L 202.10749 227.531808 
L 202.10749 227.217778 
L 202.244922 227.217778 
L 202.244922 226.903747 
L 202.544986 226.903747 
L 202.629944 226.275686 
L 202.714417 226.275686 
L 202.714417 225.961656 
L 202.889428 225.961656 
L 202.889428 225.647625 
L 203.251355 225.647625 
L 203.268154 225.019564 
L 203.592892 225.019564 
L 203.592892 224.391503 
L 203.816102 224.391503 
L 203.857962 223.763442 
L 204.338369 223.763442 
L 204.338369 223.449412 
L 204.632885 223.449412 
L 204.738613 222.821351 
L 204.77905 222.821351 
L 204.890104 221.879259 
L 205.002582 221.879259 
L 205.002582 221.565229 
L 205.177593 221.565229 
L 205.177593 221.251198 
L 205.538065 221.251198 
L 205.538065 220.937168 
L 205.794546 220.937168 
L 205.794546 220.623137 
L 205.97484 220.623137 
L 205.97484 220.309107 
L 206.104267 220.309107 
L 206.149083 219.681046 
L 206.279763 219.681046 
L 206.324093 218.738954 
L 206.402664 218.738954 
L 206.402664 218.424924 
L 206.620935 218.424924 
L 206.620935 218.110893 
L 206.766225 218.110893 
L 206.795945 217.482832 
L 206.964304 217.482832 
L 207.067215 216.540741 
L 207.129336 216.540741 
L 207.233024 215.91268 
L 207.240546 215.91268 
L 207.250767 215.284619 
L 207.415556 215.284619 
L 207.425896 214.656558 
L 207.722619 214.656558 
L 207.789751 214.028497 
L 207.886544 214.028497 
L 207.952382 213.400436 
L 208.144059 213.400436 
L 208.213715 212.144314 
L 208.307473 212.144314 
L 208.400708 211.202222 
L 208.536004 211.202222 
L 208.622683 210.260131 
L 208.656498 210.260131 
L 208.685567 209.318039 
L 208.78788 209.318039 
L 208.78788 209.004009 
L 209.21212 209.004009 
L 209.305178 207.747887 
L 209.471425 207.747887 
L 209.559236 207.119826 
L 209.646435 207.119826 
L 209.722162 206.491765 
L 209.902288 206.491765 
L 209.987655 205.863704 
L 210.106852 205.863704 
L 210.106852 205.549673 
L 210.240548 205.549673 
L 210.240548 205.235643 
L 210.573109 205.235643 
L 210.650393 204.293551 
L 210.745394 204.293551 
L 210.745394 203.979521 
L 211.1308 203.979521 
L 211.223882 203.35146 
L 211.287078 203.35146 
L 211.387048 202.409368 
L 211.536057 202.409368 
L 211.536057 201.781307 
L 211.660943 201.781307 
L 211.660943 201.467277 
L 211.8589 201.467277 
L 211.8589 201.153246 
L 212.010327 201.153246 
L 212.010327 200.839216 
L 212.41508 200.839216 
L 212.478511 200.211155 
L 212.613541 200.211155 
L 212.623641 199.583094 
L 212.888473 199.583094 
L 212.888473 199.269063 
L 213.033559 199.269063 
L 213.033559 198.955033 
L 213.156828 198.955033 
L 213.156828 198.641002 
L 213.405024 198.641002 
L 213.420418 197.698911 
L 213.576344 197.698911 
L 213.628679 196.756819 
L 213.885431 196.756819 
L 213.920936 196.128758 
L 214.095946 196.128758 
L 214.18006 195.186667 
L 214.248291 195.186667 
L 214.270468 194.558606 
L 214.606576 194.558606 
L 214.70939 192.988453 
L 214.800502 192.988453 
L 214.800502 192.674423 
L 215.02262 192.674423 
L 215.121658 191.732331 
L 215.141582 191.732331 
L 215.141582 191.10427 
L 215.271522 191.10427 
L 215.271522 190.79024 
L 215.535248 190.79024 
L 215.535248 190.476209 
L 215.967029 190.476209 
L 215.985568 189.220087 
L 216.263856 189.220087 
L 216.343225 188.592026 
L 216.438867 188.592026 
L 216.479169 187.963965 
L 216.828212 187.963965 
L 216.894741 187.335904 
L 217.177314 187.335904 
L 217.177314 187.021874 
L 217.308619 187.021874 
L 217.36554 186.393813 
L 217.502401 186.393813 
L 217.502401 186.079782 
L 217.839021 186.079782 
L 217.872683 185.451721 
L 218.041242 185.451721 
L 218.041242 185.137691 
L 218.28413 185.137691 
L 218.386096 182.939477 
L 218.513094 182.939477 
L 218.513094 182.625447 
L 218.679766 182.625447 
L 218.69227 181.997386 
L 218.847006 181.997386 
L 218.944966 181.369325 
L 219.018487 181.369325 
L 219.018487 181.055294 
L 219.132705 181.055294 
L 219.193497 179.799172 
L 219.262342 179.799172 
L 219.36106 179.171111 
L 219.459589 179.171111 
L 219.459589 178.857081 
L 219.770462 178.857081 
L 219.770462 178.54305 
L 220.120171 178.54305 
L 220.120171 178.22902 
L 220.246039 178.22902 
L 220.254714 177.286928 
L 220.429725 177.286928 
L 220.429725 176.972898 
L 220.595909 176.972898 
L 220.595909 176.658867 
L 220.885126 176.658867 
L 220.980346 175.402745 
L 221.003127 175.402745 
L 221.083119 174.460654 
L 221.290052 174.460654 
L 221.363583 173.518562 
L 221.501821 173.518562 
L 221.501821 173.204532 
L 221.710573 173.204532 
L 221.770459 172.576471 
L 221.951912 172.576471 
L 222.052198 171.94841 
L 222.166504 171.94841 
L 222.211908 171.006318 
L 222.282509 171.006318 
L 222.353821 169.750196 
L 222.441675 169.750196 
L 222.441675 169.436166 
L 222.616685 169.436166 
L 222.616685 169.122135 
L 222.740069 169.122135 
L 222.740069 168.808105 
L 222.913009 168.808105 
L 223.007261 168.180044 
L 223.271601 168.180044 
L 223.271601 167.866013 
L 223.434193 167.866013 
L 223.543359 167.237952 
L 223.555156 167.237952 
L 223.555156 166.923922 
L 223.920094 166.923922 
L 224.027673 165.98183 
L 224.134685 165.98183 
L 224.134685 165.6678 
L 224.256452 165.6678 
L 224.294833 165.039739 
L 224.391829 165.039739 
L 224.454669 164.411678 
L 224.506307 164.411678 
L 224.520503 163.155556 
L 224.663083 163.155556 
L 224.663083 162.841525 
L 224.905731 162.841525 
L 224.960133 161.585403 
L 225.321825 161.585403 
L 225.321825 161.271373 
L 225.48853 161.271373 
L 225.570398 160.329281 
L 225.60117 160.329281 
L 225.60117 160.015251 
L 225.813095 160.015251 
L 225.813095 159.70122 
L 226.026232 159.70122 
L 226.108322 158.759129 
L 226.17974 158.759129 
L 226.246578 157.817037 
L 226.484198 157.817037 
L 226.484198 157.503007 
L 226.692633 157.503007 
L 226.740847 156.874946 
L 226.903515 156.874946 
L 227.004408 155.304793 
L 227.049464 155.304793 
L 227.078525 154.362702 
L 227.243237 154.362702 
L 227.309645 153.10658 
L 227.566295 153.10658 
L 227.566295 152.792549 
L 227.67964 152.792549 
L 227.777911 151.536427 
L 227.805631 151.536427 
L 227.822084 150.908366 
L 228.005199 150.908366 
L 228.005199 150.594336 
L 228.156015 150.594336 
L 228.172673 149.338214 
L 228.285691 149.338214 
L 228.285691 149.024183 
L 228.582084 149.024183 
L 228.582084 148.710153 
L 228.821363 148.710153 
L 228.929731 147.768061 
L 228.968026 147.768061 
L 229.062404 145.883878 
L 229.149383 145.883878 
L 229.244453 144.941786 
L 229.269955 144.941786 
L 229.369231 144.313725 
L 229.44942 144.313725 
L 229.486801 143.685664 
L 229.626746 143.685664 
L 229.698498 142.743573 
L 229.778318 142.743573 
L 229.883395 141.801481 
L 229.964079 141.801481 
L 230.001082 141.17342 
L 230.125331 141.17342 
L 230.139185 140.545359 
L 230.264047 140.545359 
L 230.264047 140.231329 
L 230.380173 140.231329 
L 230.472652 139.603268 
L 230.640244 139.603268 
L 230.644588 138.975207 
L 230.82653 138.975207 
L 230.910646 138.033115 
L 231.178818 138.033115 
L 231.178818 137.719085 
L 231.328115 137.719085 
L 231.328115 137.405054 
L 231.517546 137.405054 
L 231.603724 136.776993 
L 231.832943 136.776993 
L 231.940314 135.520871 
L 232.022239 135.520871 
L 232.069087 134.89281 
L 232.14148 134.89281 
L 232.213989 133.950719 
L 232.536897 133.950719 
L 232.644379 133.008627 
L 232.765761 133.008627 
L 232.765761 132.694597 
L 233.083819 132.694597 
L 233.160857 130.810414 
L 233.231021 130.810414 
L 233.332249 129.868322 
L 233.373023 129.868322 
L 233.373023 129.554292 
L 233.513607 129.554292 
L 233.532632 128.926231 
L 233.691283 128.926231 
L 233.753603 128.29817 
L 233.911259 128.29817 
L 233.948726 127.670109 
L 234.026374 127.670109 
L 234.042004 127.042048 
L 234.333834 127.042048 
L 234.333834 126.728017 
L 234.472879 126.728017 
L 234.472879 126.413987 
L 234.710559 126.413987 
L 234.805947 125.471895 
L 234.934491 125.471895 
L 234.934491 125.157865 
L 235.082861 125.157865 
L 235.082861 124.843834 
L 235.201049 124.843834 
L 235.201049 124.529804 
L 235.523931 124.529804 
L 235.605604 122.959651 
L 235.715943 122.959651 
L 235.785139 122.01756 
L 235.863119 122.01756 
L 235.888044 121.389499 
L 235.975507 121.389499 
L 235.975507 121.075468 
L 236.119769 121.075468 
L 236.119769 120.761438 
L 236.375558 120.761438 
L 236.43331 120.133377 
L 236.799574 120.133377 
L 236.799574 119.505316 
L 236.91232 119.505316 
L 236.91232 119.191285 
L 237.032409 119.191285 
L 237.127435 117.935163 
L 237.242116 117.935163 
L 237.309553 117.307102 
L 237.381168 117.307102 
L 237.381168 116.679041 
L 237.564489 116.679041 
L 237.594926 116.05098 
L 237.737429 116.05098 
L 237.737429 115.73695 
L 237.857856 115.73695 
L 237.860156 115.108889 
L 237.991637 115.108889 
L 238.055507 114.166797 
L 238.231332 114.166797 
L 238.326122 113.224706 
L 238.408178 113.224706 
L 238.470574 112.282614 
L 238.583905 112.282614 
L 238.583905 111.968584 
L 238.744744 111.968584 
L 238.852093 110.712462 
L 239.164376 110.712462 
L 239.197986 110.084401 
L 239.380003 110.084401 
L 239.487105 109.142309 
L 239.613705 109.142309 
L 239.706801 108.200218 
L 240.0298 108.200218 
L 240.105593 106.944096 
L 240.147505 106.944096 
L 240.174957 106.316035 
L 240.40502 106.316035 
L 240.481699 105.373943 
L 240.661669 105.373943 
L 240.760875 104.117821 
L 240.917459 104.117821 
L 240.996668 103.17573 
L 241.240842 103.17573 
L 241.344426 100.977516 
L 241.671866 100.977516 
L 241.761046 99.721394 
L 241.893762 99.721394 
L 241.928713 99.093333 
L 242.010047 99.093333 
L 242.109727 97.523181 
L 242.151935 97.523181 
L 242.151935 97.20915 
L 242.324582 97.20915 
L 242.324582 96.89512 
L 242.622837 96.89512 
L 242.63005 96.267059 
L 242.824543 96.267059 
L 242.880648 94.382876 
L 242.936961 94.382876 
L 242.936961 94.068845 
L 243.124711 94.068845 
L 243.124711 93.754815 
L 243.263675 93.754815 
L 243.264392 93.126754 
L 243.378327 93.126754 
L 243.378327 92.498693 
L 243.676 92.498693 
L 243.676 91.870632 
L 243.921904 91.870632 
L 243.921904 91.556601 
L 244.089839 91.556601 
L 244.19365 90.61451 
L 244.357729 90.61451 
L 244.451165 89.986449 
L 244.707815 89.986449 
L 244.707815 89.672418 
L 244.938064 89.672418 
L 245.0456 88.730327 
L 245.051769 88.730327 
L 245.051769 88.416296 
L 245.170238 88.416296 
L 245.279805 87.474205 
L 245.354158 87.474205 
L 245.354158 87.160174 
L 245.486831 87.160174 
L 245.486831 86.532113 
L 245.739724 86.532113 
L 245.739724 86.218083 
L 245.861135 86.218083 
L 245.861135 85.904052 
L 246.100113 85.904052 
L 246.191389 84.961961 
L 246.355602 84.961961 
L 246.41133 83.077778 
L 246.493778 83.077778 
L 246.493778 82.763747 
L 246.62851 82.763747 
L 246.62851 82.449717 
L 246.777061 82.449717 
L 246.777061 81.821656 
L 246.902669 81.821656 
L 246.996224 81.193595 
L 247.341654 81.193595 
L 247.341654 80.565534 
L 247.526554 80.565534 
L 247.526554 80.251503 
L 247.942648 80.251503 
L 248.007206 79.309412 
L 248.1127 79.309412 
L 248.205006 78.05329 
L 248.361711 78.05329 
L 248.466269 77.111198 
L 248.706274 77.111198 
L 248.723784 76.483137 
L 248.854468 76.483137 
L 248.962064 75.855076 
L 248.980433 75.855076 
L 249.000359 75.227015 
L 249.12187 75.227015 
L 249.12187 74.912985 
L 249.236223 74.912985 
L 249.308277 73.970893 
L 249.584714 73.970893 
L 249.584714 73.656863 
L 249.907281 73.656863 
L 249.907281 73.342832 
L 250.090138 73.342832 
L 250.115711 72.714771 
L 250.211212 72.714771 
L 250.319591 71.77268 
L 250.70619 71.77268 
L 250.793496 70.830588 
L 250.912628 70.830588 
L 250.953231 70.202527 
L 251.03749 70.202527 
L 251.131003 69.574466 
L 251.230375 69.574466 
L 251.230375 69.260436 
L 251.581655 69.260436 
L 251.588848 68.632375 
L 251.789053 68.632375 
L 251.789053 68.318344 
L 251.966509 68.318344 
L 251.997749 67.376253 
L 252.10142 67.376253 
L 252.152154 66.120131 
L 252.240668 66.120131 
L 252.272463 65.178039 
L 252.37143 65.178039 
L 252.476923 64.549978 
L 252.643313 64.549978 
L 252.643313 64.235948 
L 252.899828 64.235948 
L 252.916762 63.607887 
L 253.085198 63.607887 
L 253.171048 62.665795 
L 253.639816 62.665795 
L 253.639816 62.351765 
L 253.823077 62.351765 
L 253.905741 61.723704 
L 254.179899 61.723704 
L 254.179899 61.409673 
L 254.373017 61.409673 
L 254.479935 60.153551 
L 254.689909 60.153551 
L 254.720943 59.52549 
L 254.807356 59.52549 
L 254.891597 57.955338 
L 254.977592 57.955338 
L 255.008332 57.013246 
L 255.233382 57.013246 
L 255.307691 56.385185 
L 255.38935 56.385185 
L 255.495227 55.129063 
L 255.64395 55.129063 
L 255.64395 54.815033 
L 255.930112 54.815033 
L 256.017823 53.872941 
L 256.189351 53.872941 
L 256.280356 53.24488 
L 256.334758 53.24488 
L 256.334758 52.93085 
L 256.571932 52.93085 
L 256.571932 52.616819 
L 256.7396 52.616819 
L 256.829447 51.988758 
L 256.863155 51.988758 
L 256.949757 51.360697 
L 257.086097 51.360697 
L 257.185214 50.418606 
L 257.341886 50.418606 
L 257.341886 50.104575 
L 257.493712 50.104575 
L 257.596822 49.476514 
L 257.751227 49.476514 
L 257.751227 49.162484 
L 258.007876 49.162484 
L 258.007876 48.848453 
L 258.158539 48.848453 
L 258.263666 47.592331 
L 258.426755 47.592331 
L 258.426755 47.278301 
L 258.68427 47.278301 
L 258.745011 46.65024 
L 258.94092 46.65024 
L 258.997836 45.708148 
L 259.196709 45.708148 
L 259.271995 44.766057 
L 259.357466 44.766057 
L 259.357466 44.452026 
L 259.732713 44.452026 
L 259.757904 43.823965 
L 259.956709 43.823965 
L 259.956709 43.509935 
L 260.177058 43.509935 
L 260.185311 42.881874 
L 260.346331 42.881874 
L 260.346331 42.567843 
L 260.64458 42.567843 
L 260.713709 41.939782 
L 261.231359 41.939782 
L 261.338704 40.36963 
L 261.513225 40.36963 
L 261.553828 39.741569 
L 261.70031 39.741569 
L 261.810477 39.113508 
L 262.054953 39.113508 
L 262.066267 38.485447 
L 262.201155 38.485447 
L 262.285563 37.857386 
L 262.820674 37.857386 
L 262.820674 37.229325 
L 263.207342 37.229325 
L 263.302199 36.601264 
L 264.140386 36.601264 
L 264.240413 35.973203 
L 264.272704 35.973203 
L 264.272704 35.659172 
L 264.630113 35.659172 
L 264.630113 35.345142 
L 264.907257 35.345142 
L 264.907257 35.031111 
L 265.070712 35.031111 
L 265.070712 34.717081 
L 265.229819 34.717081 
L 265.269154 34.08902 
L 265.503978 34.08902 
L 265.503978 33.774989 
L 265.838977 33.774989 
L 265.838977 33.146928 
L 267.009944 33.146928 
L 267.009944 32.832898 
L 267.3573 32.832898 
L 267.377658 32.204837 
L 267.550355 32.204837 
L 267.550355 31.890806 
L 268.145033 31.890806 
L 268.145033 31.576776 
L 268.299438 31.576776 
L 268.299438 31.262745 
L 269.232481 31.262745 
L 269.232481 30.948715 
L 269.422057 30.948715 
L 269.422057 30.634684 
L 270.667242 30.634684 
L 270.733522 29.692593 
L 270.98833 29.692593 
L 270.98833 29.064532 
L 271.163336 29.064532 
L 271.163336 28.750501 
L 271.501137 28.750501 
L 271.501137 28.436471 
L 271.738531 28.436471 
L 271.738531 28.12244 
L 272.061436 28.12244 
L 272.102039 27.494379 
L 272.177662 27.494379 
L 272.177662 27.180349 
L 273.609641 27.180349 
L 273.609641 26.866318 
L 273.751826 26.866318 
L 273.751826 26.552288 
L 274.193792 26.552288 
L 274.193792 26.238257 
L 274.53142 26.238257 
L 274.53142 25.924227 
L 274.788624 25.924227 
L 274.788624 25.610196 
L 275.07974 25.610196 
L 275.07974 25.296166 
L 275.301375 25.296166 
L 275.301375 24.982135 
L 275.464464 24.982135 
L 275.464464 24.668105 
L 276.312689 24.668105 
L 276.312689 24.354074 
L 277.462023 24.354074 
L 277.462023 24.040044 
L 277.806927 24.040044 
L 277.806927 23.726013 
L 278.098566 23.726013 
L 278.098566 23.411983 
L 278.334022 23.411983 
L 278.334022 23.097952 
L 278.52552 23.097952 
L 278.52552 22.783922 
L 278.901179 22.783922 
L 278.964651 22.155861 
L 279.950309 22.155861 
L 280.036808 21.5278 
L 280.229093 21.5278 
L 280.229093 21.213769 
L 280.980781 21.213769 
L 280.993763 20.585708 
L 281.100305 20.585708 
L 281.116869 19.957647 
L 281.539436 19.957647 
L 281.539436 19.643617 
L 281.860033 19.643617 
L 281.860033 19.329586 
L 282.05726 19.329586 
L 282.05726 19.015556 
L 282.496392 19.015556 
L 282.496392 18.701525 
L 282.92353 18.701525 
L 282.95628 18.073464 
L 283.362662 18.073464 
L 283.362662 17.759434 
L 283.478653 17.759434 
L 283.555566 16.817342 
L 284.512522 16.817342 
L 284.512522 16.503312 
L 284.88255 16.503312 
L 284.88255 16.189281 
L 285.378792 16.189281 
L 285.378792 15.875251 
L 286.266222 15.875251 
L 286.266222 15.56122 
L 288.107532 15.56122 
L 288.107532 15.24719 
L 289.222196 15.24719 
L 289.222196 14.933159 
L 290.614298 14.933159 
L 290.616051 14.305098 
L 292.471756 14.305098 
L 292.471756 13.991068 
L 293.000154 13.991068 
L 293.000154 13.677037 
L 294.255308 13.677037 
L 294.255308 13.363007 
L 294.563754 13.363007 
L 294.563754 13.048976 
L 294.821269 13.048976 
L 294.821269 12.734946 
L 295.077918 12.734946 
L 295.077918 12.420915 
L 295.333708 12.420915 
L 295.333708 12.106885 
L 297.401286 12.106885 
L 297.401286 11.792854 
L 298.338153 11.792854 
L 298.338153 11.478824 
L 299.187549 11.478824 
L 299.187549 11.164793 
L 299.976071 11.164793 
L 299.976071 10.850763 
L 300.277384 10.850763 
L 300.277384 10.536732 
L 300.933027 10.536732 
L 300.933027 10.222702 
L 301.799297 10.222702 
L 301.799297 9.908671 
L 304.921051 9.908671 
L 304.921051 9.594641 
L 305.36948 9.594641 
L 305.36948 9.28061 
L 311.601463 9.28061 
L 311.601463 8.96658 
L 331.165754 8.96658 
L 331.165754 8.652549 
L 332.229251 8.652549 
L 332.229251 8.338519 
L 332.668382 8.338519 
L 332.668382 8.024488 
L 334.684513 8.024488 
L 334.684513 7.710458 
L 345.470753 7.710458 
L 345.470753 7.396427 
L 346.53425 7.396427 
L 346.53425 7.082397 
L 346.973382 7.082397 
L 346.973382 6.768366 
L 348.989512 6.768366 
L 348.989512 6.454336 
L 351.105018 6.454336 
L 351.105018 6.140305 
L 365.410017 6.140305 
L 365.410017 5.826275 
L 453.192 5.826275 
L 453.192 5.826275 
" clip-path="url(#p8952e7310f)" style="fill: none; stroke: #000000; stroke-width: 3; stroke-linecap: square"/>
   </g>
   <g id="line2d_37">
    <path clip-path="url(#p8952e7310f)" style="fill: none; stroke: #000000; stroke-width: 3; stroke-linecap: square"/>
   </g>
   <g id="line2d_38">
    <path d="M 34.16 288.453725 
L 184.239989 288.453725 
L 184.239989 288.035018 
L 189.188098 288.035018 
L 189.188098 287.616311 
L 191.200154 287.616311 
L 191.299379 286.778896 
L 191.398474 286.778896 
L 191.453607 285.941481 
L 192.399169 285.941481 
L 192.415505 285.104067 
L 192.598558 285.104067 
L 192.598558 284.685359 
L 193.160548 284.685359 
L 193.257259 283.847945 
L 193.746348 283.847945 
L 193.839837 282.591823 
L 193.899056 282.591823 
L 193.929401 281.754408 
L 194.031796 281.754408 
L 194.095201 280.916993 
L 194.278255 280.916993 
L 194.278255 280.498286 
L 194.62568 280.498286 
L 194.62568 280.079579 
L 194.808734 280.079579 
L 194.808734 279.660871 
L 195.229899 279.660871 
L 195.229899 279.242164 
L 195.362639 279.242164 
L 195.362639 278.823457 
L 195.55571 278.823457 
L 195.578752 277.986042 
L 195.711493 277.986042 
L 195.711493 277.567335 
L 195.972863 277.567335 
L 195.972863 277.148627 
L 196.109231 277.148627 
L 196.109231 276.72992 
L 196.241972 276.72992 
L 196.241972 276.311213 
L 196.858573 276.311213 
L 196.918425 275.473798 
L 197.041627 275.473798 
L 197.120487 274.636383 
L 197.852019 274.636383 
L 197.852019 274.217676 
L 198.065912 274.217676 
L 198.065912 273.798969 
L 198.215174 273.798969 
L 198.215174 273.380261 
L 198.332493 273.380261 
L 198.359093 272.124139 
L 198.474865 272.124139 
L 198.474865 271.705432 
L 199.115575 271.705432 
L 199.225487 270.030603 
L 199.367806 270.030603 
L 199.40854 268.774481 
L 199.640632 268.774481 
L 199.745608 267.937066 
L 199.823686 267.937066 
L 199.823686 267.518359 
L 199.95885 267.518359 
L 199.95885 267.099651 
L 200.074965 267.099651 
L 200.074965 266.680944 
L 200.276087 266.680944 
L 200.35856 265.843529 
L 200.513349 265.843529 
L 200.513349 265.424822 
L 200.709038 265.424822 
L 200.709038 265.006115 
L 200.841778 265.006115 
L 200.862203 264.1687 
L 201.124183 264.1687 
L 201.2047 263.331285 
L 201.256924 263.331285 
L 201.289693 262.493871 
L 201.392682 262.493871 
L 201.498244 261.237749 
L 201.638547 261.237749 
L 201.681297 260.400334 
L 201.749899 260.400334 
L 201.749899 259.981627 
L 202.169025 259.981627 
L 202.169025 259.562919 
L 202.50898 259.562919 
L 202.535543 258.725505 
L 202.700066 258.725505 
L 202.700066 258.306797 
L 202.83294 258.306797 
L 202.914717 256.631968 
L 202.981795 256.631968 
L 202.989509 255.794553 
L 203.097771 255.794553 
L 203.172562 254.538431 
L 203.414875 254.538431 
L 203.414875 254.119724 
L 203.625575 254.119724 
L 203.625575 253.701017 
L 203.829401 253.701017 
L 203.891133 252.026187 
L 204.047437 252.026187 
L 204.047437 251.60748 
L 204.258043 251.60748 
L 204.258043 251.188773 
L 204.398268 251.188773 
L 204.47306 249.513943 
L 204.531009 249.513943 
L 204.605801 248.676529 
L 204.672864 248.676529 
L 204.672864 248.257821 
L 204.875893 248.257821 
L 204.875893 247.839114 
L 205.160244 247.839114 
L 205.221976 247.001699 
L 205.291039 247.001699 
L 205.398286 245.745577 
L 205.480675 245.745577 
L 205.57083 244.489455 
L 205.647768 244.489455 
L 205.741594 243.652041 
L 205.799903 243.652041 
L 205.874334 242.814626 
L 205.982957 242.814626 
L 206.039576 241.139797 
L 206.101309 241.139797 
L 206.101309 240.721089 
L 206.242729 240.721089 
L 206.269155 239.883675 
L 206.407634 239.883675 
L 206.425782 239.04626 
L 206.585595 239.04626 
L 206.585595 238.627553 
L 206.704639 238.627553 
L 206.768832 237.371431 
L 207.077983 237.371431 
L 207.183978 236.115309 
L 207.283455 236.115309 
L 207.352196 234.859187 
L 207.416195 234.859187 
L 207.512031 234.021772 
L 207.608461 234.021772 
L 207.608461 233.603065 
L 207.72628 233.603065 
L 207.72628 233.184357 
L 207.859021 233.184357 
L 207.916438 232.346943 
L 208.014681 232.346943 
L 208.035482 231.090821 
L 208.265245 231.090821 
L 208.349217 228.997284 
L 208.384336 228.997284 
L 208.429827 228.159869 
L 208.565124 228.159869 
L 208.639916 227.322455 
L 208.795771 227.322455 
L 208.899017 225.647625 
L 208.914814 225.647625 
L 208.945269 224.810211 
L 209.041589 224.810211 
L 209.041589 224.391503 
L 209.352343 224.391503 
L 209.352343 223.972796 
L 209.51479 223.972796 
L 209.620973 223.135381 
L 209.647395 223.135381 
L 209.75651 221.460552 
L 209.808427 221.460552 
L 209.90845 220.20443 
L 210.231676 220.20443 
L 210.287439 219.367015 
L 210.458062 219.367015 
L 210.532854 218.529601 
L 210.631385 218.529601 
L 210.701115 217.273479 
L 210.978238 217.273479 
L 211.054528 215.598649 
L 211.116261 215.598649 
L 211.147708 214.761235 
L 211.249095 214.761235 
L 211.327092 213.92382 
L 211.407729 213.92382 
L 211.45031 213.086405 
L 211.63303 213.086405 
L 211.732254 211.830283 
L 211.778704 211.830283 
L 211.857571 210.155454 
L 211.893136 210.155454 
L 211.893136 209.736747 
L 212.208268 209.736747 
L 212.211578 208.899332 
L 212.464569 208.899332 
L 212.566905 207.64321 
L 212.623413 207.64321 
L 212.653578 206.805795 
L 212.91214 206.805795 
L 213.00973 204.712259 
L 213.047238 204.712259 
L 213.047238 204.293551 
L 213.297326 204.293551 
L 213.395577 203.037429 
L 213.427736 203.037429 
L 213.514621 202.200015 
L 213.593423 202.200015 
L 213.690134 201.3626 
L 213.786074 201.3626 
L 213.883189 199.687771 
L 213.929766 199.687771 
L 213.929766 199.269063 
L 214.090464 199.269063 
L 214.095979 198.431649 
L 214.229462 198.431649 
L 214.328613 197.175527 
L 214.390346 197.175527 
L 214.481025 195.500697 
L 214.574172 195.500697 
L 214.589098 194.663282 
L 214.82875 194.663282 
L 214.872323 192.988453 
L 215.031924 192.988453 
L 215.031924 192.569746 
L 215.175024 192.569746 
L 215.278279 191.313624 
L 215.309383 191.313624 
L 215.408607 190.057502 
L 215.507703 190.057502 
L 215.599062 188.382672 
L 215.668335 188.382672 
L 215.741751 186.707843 
L 215.787378 186.707843 
L 215.897498 185.033014 
L 215.958407 185.033014 
L 216.057503 183.776892 
L 216.118172 183.776892 
L 216.118172 183.358184 
L 216.269418 183.358184 
L 216.355789 182.52077 
L 216.457377 182.52077 
L 216.544623 180.84594 
L 216.584277 180.84594 
L 216.615691 179.589818 
L 216.777064 179.589818 
L 216.872523 178.333696 
L 216.960401 178.333696 
L 216.960401 177.914989 
L 217.084808 177.914989 
L 217.159687 176.24016 
L 217.203851 176.24016 
L 217.278643 173.727916 
L 217.366487 173.727916 
L 217.366487 173.309208 
L 217.553362 173.309208 
L 217.656625 172.471794 
L 217.718358 172.471794 
L 217.819576 171.634379 
L 217.916287 171.634379 
L 217.985291 169.540842 
L 218.034474 169.540842 
L 218.034474 169.122135 
L 218.153518 169.122135 
L 218.153518 168.703428 
L 218.284894 168.703428 
L 218.331564 167.866013 
L 218.428134 167.866013 
L 218.520713 166.609891 
L 218.547177 166.609891 
L 218.648049 165.353769 
L 218.676274 165.353769 
L 218.782685 163.67894 
L 218.804606 163.67894 
L 218.89078 162.841525 
L 219.159157 162.841525 
L 219.22551 161.585403 
L 219.270968 161.585403 
L 219.370064 160.329281 
L 219.470379 160.329281 
L 219.54845 159.491866 
L 219.637909 159.491866 
L 219.701164 158.235744 
L 219.864038 158.235744 
L 219.969994 157.39833 
L 220.089038 157.39833 
L 220.146608 156.560915 
L 220.2214 156.560915 
L 220.311759 155.304793 
L 220.396373 155.304793 
L 220.496666 153.629964 
L 220.531863 153.629964 
L 220.555435 152.792549 
L 220.762075 152.792549 
L 220.791436 151.955134 
L 221.055177 151.955134 
L 221.132137 150.280305 
L 221.228848 150.280305 
L 221.303897 149.024183 
L 221.405899 149.024183 
L 221.499068 147.349354 
L 221.532386 147.349354 
L 221.618112 146.093232 
L 221.779515 146.093232 
L 221.848725 144.418402 
L 221.943712 144.418402 
L 221.961247 143.580988 
L 222.101127 143.580988 
L 222.14366 142.743573 
L 222.324402 142.743573 
L 222.324402 142.324866 
L 222.477948 142.324866 
L 222.511047 140.231329 
L 222.778466 140.231329 
L 222.874202 139.393914 
L 222.934973 139.393914 
L 223.031794 138.5565 
L 223.046689 138.5565 
L 223.132942 137.719085 
L 223.224803 137.719085 
L 223.315954 136.462963 
L 223.415178 136.462963 
L 223.514274 134.369426 
L 223.544442 134.369426 
L 223.643667 133.532012 
L 223.742762 133.532012 
L 223.774603 132.694597 
L 223.861508 132.694597 
L 223.911104 131.438475 
L 224.17948 131.438475 
L 224.257377 130.60106 
L 224.467789 130.60106 
L 224.560868 128.926231 
L 224.602087 128.926231 
L 224.602087 128.507524 
L 224.870464 128.507524 
L 224.870464 128.088816 
L 225.017589 128.088816 
L 225.092076 126.832694 
L 225.155659 126.832694 
L 225.262522 125.99528 
L 225.276348 125.99528 
L 225.373058 125.157865 
L 225.444775 125.157865 
L 225.529025 123.901743 
L 225.601547 123.901743 
L 225.626977 122.226914 
L 225.823609 122.226914 
L 225.895353 120.970792 
L 225.950764 120.970792 
L 225.953505 120.133377 
L 226.101221 120.133377 
L 226.203229 118.458548 
L 226.462968 118.458548 
L 226.495708 117.621133 
L 226.809295 117.621133 
L 226.809295 117.202426 
L 226.978395 117.202426 
L 227.087164 115.527596 
L 227.176623 115.527596 
L 227.176623 115.108889 
L 227.359095 115.108889 
L 227.456832 114.271474 
L 227.541889 114.271474 
L 227.556056 113.43406 
L 227.655152 113.43406 
L 227.655152 113.015352 
L 227.80401 113.015352 
L 227.80401 112.596645 
L 228.33015 112.596645 
L 228.33015 112.177938 
L 228.507765 112.177938 
L 228.606989 111.340523 
L 228.706085 111.340523 
L 228.749572 110.503108 
L 228.980013 110.503108 
L 228.980013 110.084401 
L 229.236286 110.084401 
L 229.257762 109.246986 
L 229.417225 109.246986 
L 229.513936 107.990864 
L 229.791442 107.990864 
L 229.791442 107.572157 
L 229.967819 107.572157 
L 230.048281 106.316035 
L 230.091642 106.316035 
L 230.196307 105.059913 
L 230.330974 105.059913 
L 230.330974 104.641206 
L 230.468158 104.641206 
L 230.564869 103.385084 
L 230.671656 103.385084 
L 230.671656 102.966376 
L 231.142575 102.966376 
L 231.231375 102.128962 
L 231.320834 102.128962 
L 231.320834 101.710254 
L 231.459863 101.710254 
L 231.549322 100.87284 
L 231.906113 100.87284 
L 231.978962 100.035425 
L 232.034545 100.035425 
L 232.129042 99.19801 
L 232.397419 99.19801 
L 232.47436 98.360595 
L 232.702848 98.360595 
L 232.702848 97.941888 
L 233.069858 97.941888 
L 233.110385 97.104473 
L 233.295361 97.104473 
L 233.377164 96.267059 
L 233.48046 96.267059 
L 233.48046 95.848351 
L 233.945179 95.848351 
L 234.055946 94.592229 
L 234.090243 94.592229 
L 234.189339 93.336107 
L 234.428097 93.336107 
L 234.471851 92.498693 
L 234.682896 92.498693 
L 234.739551 91.661278 
L 234.815866 91.661278 
L 234.815866 91.242571 
L 235.044355 91.242571 
L 235.044355 90.823863 
L 235.15963 90.823863 
L 235.183574 89.986449 
L 235.372252 89.986449 
L 235.461711 88.730327 
L 235.496614 88.730327 
L 235.522784 87.892912 
L 235.718209 87.892912 
L 235.718209 87.474205 
L 235.951412 87.474205 
L 236.048123 86.218083 
L 236.423185 86.218083 
L 236.512644 85.380668 
L 236.534993 85.380668 
L 236.625829 84.124546 
L 236.751607 84.124546 
L 236.850832 83.287131 
L 236.914671 83.287131 
L 236.96751 82.031009 
L 237.212487 82.031009 
L 237.212487 81.612302 
L 237.564489 81.612302 
L 237.666171 80.774887 
L 237.831925 80.774887 
L 237.831925 80.35618 
L 237.964693 80.35618 
L 237.964693 79.937473 
L 238.100302 79.937473 
L 238.100302 79.518765 
L 238.315685 79.518765 
L 238.408178 78.681351 
L 238.661958 78.681351 
L 238.712001 77.843936 
L 238.808712 77.843936 
L 238.829899 77.006521 
L 238.956744 77.006521 
L 239.006668 75.750399 
L 239.156744 75.750399 
L 239.183344 74.912985 
L 239.311776 74.912985 
L 239.386418 73.656863 
L 239.444827 73.656863 
L 239.444827 73.238155 
L 239.656486 73.238155 
L 239.656486 72.819448 
L 239.911351 72.819448 
L 240.007677 71.563326 
L 240.031558 71.563326 
L 240.124051 70.307204 
L 240.642883 70.307204 
L 240.681376 69.051082 
L 241.006038 69.051082 
L 241.024583 68.213667 
L 241.584003 68.213667 
L 241.584003 67.79496 
L 241.906439 67.79496 
L 241.995898 66.957545 
L 242.67194 66.957545 
L 242.67194 66.538838 
L 242.900835 66.538838 
L 242.985017 64.864009 
L 243.1383 64.864009 
L 243.149425 64.026594 
L 243.33129 64.026594 
L 243.406677 62.770472 
L 243.676 62.770472 
L 243.778008 61.095643 
L 243.936147 61.095643 
L 243.936147 60.676935 
L 244.373294 60.676935 
L 244.392936 59.839521 
L 244.489718 59.839521 
L 244.489718 59.420813 
L 244.667028 59.420813 
L 244.756487 57.327277 
L 244.881889 57.327277 
L 244.881889 56.908569 
L 245.064277 56.908569 
L 245.064277 56.489862 
L 245.490931 56.489862 
L 245.490931 56.071155 
L 245.790065 56.071155 
L 245.889289 55.23374 
L 245.910013 55.23374 
L 245.988385 54.396325 
L 246.049864 54.396325 
L 246.089167 53.140203 
L 246.318241 53.140203 
L 246.404993 52.302789 
L 246.504217 52.302789 
L 246.603313 50.627959 
L 247.183441 50.627959 
L 247.183441 50.209252 
L 247.401282 50.209252 
L 247.401282 49.790545 
L 247.750458 49.790545 
L 247.847169 48.95313 
L 247.958606 48.95313 
L 247.958606 48.534423 
L 248.25152 48.534423 
L 248.30488 47.697008 
L 248.365386 47.697008 
L 248.462097 46.440886 
L 248.64959 46.440886 
L 248.677099 45.603471 
L 249.039803 45.603471 
L 249.039803 45.184764 
L 249.588156 45.184764 
L 249.674479 43.509935 
L 249.829998 43.509935 
L 249.829998 43.091227 
L 250.237974 43.091227 
L 250.237974 42.67252 
L 250.974987 42.67252 
L 251.063329 41.835105 
L 251.202955 41.835105 
L 251.202955 41.416398 
L 251.710397 41.416398 
L 251.710397 40.997691 
L 251.842055 40.997691 
L 251.941279 40.160276 
L 252.040375 40.160276 
L 252.040375 39.741569 
L 252.236507 39.741569 
L 252.325325 38.904154 
L 252.44193 38.904154 
L 252.44193 38.485447 
L 252.591232 38.485447 
L 252.591232 38.066739 
L 252.779202 38.066739 
L 252.886325 36.810617 
L 253.056857 36.810617 
L 253.056857 36.39191 
L 253.420012 36.39191 
L 253.420012 35.973203 
L 253.705485 35.973203 
L 253.802448 34.717081 
L 253.899159 34.717081 
L 253.899159 34.298373 
L 254.257488 34.298373 
L 254.320413 33.460959 
L 254.409872 33.460959 
L 254.476865 32.623544 
L 254.948471 32.623544 
L 254.948471 32.204837 
L 255.555985 32.204837 
L 255.645765 30.948715 
L 255.923096 30.948715 
L 255.923096 30.530007 
L 256.176545 30.530007 
L 256.176545 30.1113 
L 256.566002 30.1113 
L 256.591298 29.273885 
L 256.905839 29.273885 
L 256.905839 28.855178 
L 257.289977 28.855178 
L 257.289977 28.436471 
L 257.542881 28.436471 
L 257.542881 28.017763 
L 257.762387 28.017763 
L 257.762387 27.599056 
L 257.904905 27.599056 
L 257.935152 26.761641 
L 258.034377 26.761641 
L 258.133472 25.924227 
L 258.192699 25.924227 
L 258.294116 25.086812 
L 258.49392 25.086812 
L 258.49392 24.668105 
L 258.705014 24.668105 
L 258.705014 24.249397 
L 258.857074 24.249397 
L 258.857074 23.83069 
L 258.973391 23.83069 
L 258.973391 23.411983 
L 259.231077 23.411983 
L 259.231077 22.993275 
L 259.757475 22.993275 
L 259.846934 22.155861 
L 259.895546 22.155861 
L 259.992257 21.318446 
L 260.056433 21.318446 
L 260.056433 20.899739 
L 260.185311 20.899739 
L 260.185311 20.481031 
L 260.454445 20.481031 
L 260.454445 20.062324 
L 260.569963 20.062324 
L 260.569963 19.643617 
L 261.000461 19.643617 
L 261.104263 18.806202 
L 261.586326 18.806202 
L 261.586326 18.387495 
L 261.879428 18.387495 
L 261.932599 17.55008 
L 262.212213 17.55008 
L 262.277309 16.712665 
L 263.302199 16.712665 
L 263.341967 15.456543 
L 263.60049 15.456543 
L 263.60049 15.037836 
L 263.855485 15.037836 
L 263.855485 14.619129 
L 264.587017 14.619129 
L 264.587017 14.200421 
L 264.950172 14.200421 
L 264.950172 13.781714 
L 265.123777 13.781714 
L 265.123777 13.363007 
L 265.850573 13.363007 
L 265.940032 12.525592 
L 266.512054 12.525592 
L 266.512054 12.106885 
L 267.093558 12.106885 
L 267.185802 11.26947 
L 269.435064 11.26947 
L 269.435064 10.850763 
L 269.804264 10.850763 
L 269.804264 10.432055 
L 270.097366 10.432055 
L 270.097366 10.013348 
L 272.858796 10.013348 
L 272.858796 9.594641 
L 273.109596 9.594641 
L 273.109596 9.175933 
L 273.759414 9.175933 
L 273.759414 8.757226 
L 275.507147 8.757226 
L 275.507147 8.338519 
L 277.778928 8.338519 
L 277.778928 7.919811 
L 279.167205 7.919811 
L 279.167205 7.501104 
L 280.813522 7.501104 
L 280.813522 7.082397 
L 282.752517 7.082397 
L 282.752517 6.663689 
L 283.725086 6.663689 
L 283.725086 6.244982 
L 296.380236 6.244982 
L 296.380236 5.826275 
L 453.192 5.826275 
L 453.192 5.826275 
" clip-path="url(#p8952e7310f)" style="fill: none; stroke: #00bfbf; stroke-width: 3; stroke-linecap: square"/>
   </g>
   <g id="line2d_39">
    <path clip-path="url(#p8952e7310f)" style="fill: none; stroke: #00bfbf; stroke-width: 3; stroke-linecap: square"/>
   </g>
   <g id="line2d_40">
    <path d="M 34.16 288.453725 
L 189.826538 288.453725 
L 189.826538 288.035018 
L 191.453607 288.035018 
L 191.453607 287.616311 
L 192.399169 287.616311 
L 192.399169 287.197603 
L 193.839837 287.197603 
L 193.839837 286.778896 
L 194.345794 286.778896 
L 194.345794 286.360189 
L 195.972863 286.360189 
L 195.972863 285.941481 
L 196.918425 285.941481 
L 196.918425 285.522774 
L 197.305277 285.522774 
L 197.305277 285.104067 
L 197.692874 285.104067 
L 197.692874 284.685359 
L 198.332493 284.685359 
L 198.423282 283.429237 
L 199.076015 283.429237 
L 199.076015 283.01053 
L 199.198185 283.01053 
L 199.198185 282.591823 
L 199.367806 282.591823 
L 199.47436 281.754408 
L 199.485435 281.754408 
L 199.485435 281.335701 
L 199.742355 281.335701 
L 199.742355 280.916993 
L 199.861957 280.916993 
L 199.873032 280.079579 
L 200.592365 280.079579 
L 200.60344 279.242164 
L 200.957449 279.242164 
L 200.957449 278.823457 
L 201.245098 278.823457 
L 201.256173 277.986042 
L 201.367268 277.986042 
L 201.378343 277.148627 
L 201.481522 277.148627 
L 201.58533 276.311213 
L 201.749899 276.311213 
L 201.825214 275.473798 
L 201.90587 275.473798 
L 201.972927 273.798969 
L 202.225862 273.798969 
L 202.225862 273.380261 
L 202.703335 273.380261 
L 202.790237 272.124139 
L 202.83294 272.124139 
L 202.851749 271.286725 
L 203.038416 271.286725 
L 203.137607 270.030603 
L 203.154704 270.030603 
L 203.177833 269.193188 
L 203.356068 269.193188 
L 203.436825 268.355773 
L 203.478238 268.355773 
L 203.580825 267.518359 
L 203.682177 267.518359 
L 203.682177 267.099651 
L 203.824422 267.099651 
L 203.908241 265.424822 
L 203.968422 265.424822 
L 204.074953 262.912578 
L 204.086028 262.912578 
L 204.086028 262.493871 
L 204.537845 262.493871 
L 204.560974 261.237749 
L 204.660015 261.237749 
L 204.69883 259.981627 
L 204.800182 259.981627 
L 204.80602 259.144212 
L 204.939121 259.144212 
L 204.988332 258.306797 
L 205.052268 258.306797 
L 205.052268 257.88809 
L 205.193617 257.88809 
L 205.286517 254.538431 
L 205.329733 254.538431 
L 205.375929 253.282309 
L 205.452915 253.282309 
L 205.473733 252.444895 
L 205.575085 252.444895 
L 205.674114 251.60748 
L 205.873903 251.60748 
L 205.924025 250.770065 
L 206.000778 250.770065 
L 206.106337 248.676529 
L 206.119255 248.676529 
L 206.185923 247.839114 
L 206.269155 247.839114 
L 206.269155 247.420407 
L 206.404522 247.420407 
L 206.442409 245.745577 
L 206.538478 245.745577 
L 206.576758 244.908163 
L 206.698928 244.908163 
L 206.75907 244.070748 
L 206.88124 244.070748 
L 206.88124 243.652041 
L 207.057255 243.652041 
L 207.165177 241.139797 
L 207.1697 241.139797 
L 207.26635 237.790138 
L 207.287044 237.790138 
L 207.390829 234.859187 
L 207.42541 234.859187 
L 207.42541 234.440479 
L 207.651729 234.440479 
L 207.723595 233.603065 
L 207.81791 233.603065 
L 207.81791 233.184357 
L 207.94008 233.184357 
L 208.037418 231.509528 
L 208.100762 231.509528 
L 208.202114 230.253406 
L 208.226175 230.253406 
L 208.28277 229.415991 
L 208.416701 229.415991 
L 208.523375 226.903747 
L 208.640504 226.903747 
L 208.640504 226.48504 
L 208.862865 226.48504 
L 208.938689 225.228918 
L 209.126968 225.228918 
L 209.219175 223.972796 
L 209.313964 223.972796 
L 209.415316 221.041845 
L 209.508269 221.041845 
L 209.588925 220.20443 
L 209.699344 220.20443 
L 209.808427 218.948308 
L 209.88711 218.948308 
L 209.959976 218.110893 
L 210.145908 218.110893 
L 210.156984 217.273479 
L 210.342659 217.273479 
L 210.424081 215.598649 
L 210.514099 215.598649 
L 210.567109 213.92382 
L 210.647765 213.92382 
L 210.721471 213.086405 
L 210.855105 213.086405 
L 210.855105 212.667698 
L 211.019656 212.667698 
L 211.096148 210.155454 
L 211.183816 210.155454 
L 211.264809 208.061917 
L 211.316022 208.061917 
L 211.387776 206.805795 
L 211.429168 206.805795 
L 211.445063 205.968381 
L 211.730714 205.968381 
L 211.780311 205.130966 
L 211.852884 205.130966 
L 211.852884 204.712259 
L 212.25612 204.712259 
L 212.294932 203.456137 
L 212.397054 203.456137 
L 212.482174 202.200015 
L 212.553011 202.200015 
L 212.649969 200.106478 
L 212.67249 200.106478 
L 212.735323 198.850356 
L 212.920362 198.850356 
L 212.920362 198.431649 
L 213.033508 198.431649 
L 213.033508 198.012941 
L 213.196043 198.012941 
L 213.296558 197.175527 
L 213.412937 197.175527 
L 213.461785 195.08199 
L 213.54191 195.08199 
L 213.612148 194.244575 
L 213.681017 194.244575 
L 213.681017 193.825868 
L 213.794163 193.825868 
L 213.883189 192.569746 
L 213.971993 192.569746 
L 214.06567 191.313624 
L 214.108373 191.313624 
L 214.18784 190.476209 
L 214.229462 190.476209 
L 214.252374 189.638794 
L 214.353726 189.638794 
L 214.40095 188.382672 
L 214.479913 188.382672 
L 214.560569 187.545258 
L 214.665753 187.545258 
L 214.73201 186.707843 
L 214.82875 186.707843 
L 214.868404 185.451721 
L 214.983307 185.451721 
L 215.047538 184.614306 
L 215.14625 184.614306 
L 215.191538 183.358184 
L 215.29289 183.358184 
L 215.363143 182.52077 
L 215.477568 182.52077 
L 215.477568 182.102062 
L 215.599062 182.102062 
L 215.700393 180.008526 
L 215.741751 180.008526 
L 215.841522 178.752404 
L 215.886104 178.752404 
L 215.994365 176.658867 
L 216.091015 176.658867 
L 216.091015 176.24016 
L 216.269418 176.24016 
L 216.331615 175.402745 
L 216.416733 175.402745 
L 216.476394 174.146623 
L 216.535921 174.146623 
L 216.615691 171.634379 
L 216.718721 171.634379 
L 216.814869 169.95955 
L 216.895525 169.95955 
L 216.89723 169.122135 
L 217.050841 169.122135 
L 217.050841 168.703428 
L 217.241366 168.703428 
L 217.336451 167.866013 
L 217.38809 167.866013 
L 217.38809 167.447306 
L 217.555938 167.447306 
L 217.657885 165.772476 
L 217.6737 165.772476 
L 217.706967 164.935062 
L 217.951633 164.935062 
L 218.028071 163.260232 
L 218.288882 163.260232 
L 218.288882 162.841525 
L 218.800325 162.841525 
L 218.89078 162.00411 
L 218.996606 162.00411 
L 218.996606 161.585403 
L 219.159157 161.585403 
L 219.167324 160.747988 
L 219.36106 160.747988 
L 219.36106 160.329281 
L 219.504573 160.329281 
L 219.504573 159.910574 
L 219.819709 159.910574 
L 219.928777 159.073159 
L 220.041923 159.073159 
L 220.089475 157.817037 
L 220.154139 157.817037 
L 220.242198 156.979622 
L 220.38088 156.979622 
L 220.474058 154.886086 
L 220.555435 154.886086 
L 220.631525 154.048671 
L 220.762075 154.048671 
L 220.78536 153.211256 
L 220.88201 153.211256 
L 220.88201 152.792549 
L 221.055177 152.792549 
L 221.108348 151.955134 
L 221.267389 151.955134 
L 221.267389 151.536427 
L 221.497155 151.536427 
L 221.570689 150.699012 
L 221.797387 150.699012 
L 221.841836 149.44289 
L 221.943712 149.44289 
L 222.032361 148.186768 
L 222.101127 148.186768 
L 222.154665 146.511939 
L 222.477948 146.511939 
L 222.510089 145.255817 
L 222.618777 145.255817 
L 222.658102 144.418402 
L 222.742628 144.418402 
L 222.778466 143.580988 
L 222.932665 143.580988 
L 222.995351 142.324866 
L 223.046689 142.324866 
L 223.112941 141.487451 
L 223.168931 141.487451 
L 223.168931 141.068744 
L 223.489262 141.068744 
L 223.52859 139.393914 
L 223.744163 139.393914 
L 223.840813 138.5565 
L 223.861508 138.5565 
L 223.958319 136.88167 
L 224.17948 136.88167 
L 224.257377 135.625548 
L 224.487356 135.625548 
L 224.525754 134.369426 
L 224.626639 134.369426 
L 224.626639 133.950719 
L 224.800639 133.950719 
L 224.88047 132.694597 
L 224.963888 132.694597 
L 225.074691 131.438475 
L 225.086249 131.438475 
L 225.155659 130.60106 
L 225.262522 130.60106 
L 225.262522 130.182353 
L 225.529025 130.182353 
L 225.626977 128.507524 
L 225.701431 128.507524 
L 225.701431 128.088816 
L 225.895353 128.088816 
L 225.895353 127.251402 
L 226.101221 127.251402 
L 226.176941 126.413987 
L 226.28815 126.413987 
L 226.307463 125.576572 
L 226.462968 125.576572 
L 226.462968 125.157865 
L 226.638291 125.157865 
L 226.638291 124.739158 
L 226.906668 124.739158 
L 226.978395 122.226914 
L 227.035334 122.226914 
L 227.035334 121.808206 
L 227.245282 121.808206 
L 227.245282 121.389499 
L 227.420713 121.389499 
L 227.481547 120.133377 
L 227.541889 120.133377 
L 227.562616 119.295962 
L 227.659265 119.295962 
L 227.659265 118.877255 
L 227.793429 118.877255 
L 227.876503 117.202426 
L 227.973153 117.202426 
L 228.044644 115.527596 
L 228.112769 115.527596 
L 228.209419 114.271474 
L 228.28077 114.271474 
L 228.358532 113.43406 
L 228.594798 113.43406 
L 228.619091 112.596645 
L 228.749572 112.596645 
L 228.809616 111.75923 
L 228.895952 111.75923 
L 228.980013 109.665694 
L 229.123504 109.665694 
L 229.218589 108.409572 
L 229.246953 108.409572 
L 229.246953 107.990864 
L 229.35977 107.990864 
L 229.454855 106.734742 
L 229.519883 106.734742 
L 229.519883 106.316035 
L 229.755178 106.316035 
L 229.833771 105.47862 
L 230.015325 105.47862 
L 230.111643 103.803791 
L 230.19024 103.803791 
L 230.19024 103.385084 
L 230.402791 103.385084 
L 230.489556 102.128962 
L 230.735574 102.128962 
L 230.735574 101.710254 
L 230.98795 101.710254 
L 231.049462 100.454132 
L 231.285728 100.454132 
L 231.285728 100.035425 
L 231.483316 100.035425 
L 231.483316 99.616718 
L 231.611881 99.616718 
L 231.657725 98.779303 
L 231.925769 98.779303 
L 232.034545 97.523181 
L 232.129042 97.523181 
L 232.207878 96.267059 
L 232.376437 96.267059 
L 232.441474 95.010937 
L 233.065405 95.010937 
L 233.110385 93.754815 
L 233.212767 93.754815 
L 233.295361 92.9174 
L 233.379293 92.9174 
L 233.48046 92.079985 
L 233.602421 92.079985 
L 233.615558 91.242571 
L 233.843989 91.242571 
L 233.945179 89.986449 
L 234.055946 89.986449 
L 234.067795 89.149034 
L 234.226352 89.149034 
L 234.326018 88.311619 
L 234.39488 88.311619 
L 234.39488 87.892912 
L 234.54024 87.892912 
L 234.54024 87.474205 
L 234.682896 87.474205 
L 234.776506 85.799375 
L 234.795666 85.799375 
L 234.900465 84.543253 
L 235.09099 84.543253 
L 235.186075 82.868424 
L 235.34663 82.868424 
L 235.451951 81.193595 
L 235.496614 81.193595 
L 235.570958 79.937473 
L 235.718209 79.937473 
L 235.828659 78.262643 
L 235.915424 78.262643 
L 236.021949 77.006521 
L 236.041102 77.006521 
L 236.041102 76.587814 
L 236.194889 76.587814 
L 236.194889 76.169107 
L 236.403105 76.169107 
L 236.508777 74.912985 
L 236.534993 74.912985 
L 236.593631 74.07557 
L 236.656284 74.07557 
L 236.745043 72.400741 
L 236.77548 72.400741 
L 236.77548 71.982033 
L 236.914671 71.982033 
L 237.016948 70.725911 
L 237.303897 70.725911 
L 237.390662 69.888497 
L 237.564489 69.888497 
L 237.564489 69.469789 
L 237.831925 69.469789 
L 237.939099 67.79496 
L 237.964693 67.79496 
L 237.964693 67.376253 
L 238.100302 67.376253 
L 238.202097 66.538838 
L 238.315685 66.538838 
L 238.408178 65.282716 
L 238.519588 65.282716 
L 238.606353 64.445301 
L 238.661958 64.445301 
L 238.748282 63.607887 
L 238.794126 63.607887 
L 238.794126 63.189179 
L 238.965503 63.189179 
L 238.965503 62.770472 
L 239.156744 62.770472 
L 239.183344 61.933057 
L 239.311776 61.933057 
L 239.395895 60.258228 
L 239.441739 60.258228 
L 239.528504 59.002106 
L 239.989271 59.002106 
L 240.031558 57.745984 
L 240.201806 57.745984 
L 240.201806 57.327277 
L 240.507726 57.327277 
L 240.507726 56.908569 
L 240.681376 56.908569 
L 240.681376 56.071155 
L 240.849419 56.071155 
L 240.936184 55.23374 
L 241.024583 55.23374 
L 241.042872 54.396325 
L 241.362753 54.396325 
L 241.362753 53.977618 
L 241.584003 53.977618 
L 241.69269 53.140203 
L 242.010366 53.140203 
L 242.097131 52.302789 
L 242.476263 52.302789 
L 242.514713 51.465374 
L 242.707039 51.465374 
L 242.707039 51.046667 
L 242.900835 51.046667 
L 242.985017 49.371837 
L 243.1383 49.371837 
L 243.242585 48.115715 
L 243.33129 48.115715 
L 243.43491 46.022179 
L 243.627964 46.022179 
L 243.676 45.184764 
L 243.820289 45.184764 
L 243.820289 44.766057 
L 243.936147 44.766057 
L 243.978903 43.928642 
L 244.065668 43.928642 
L 244.065668 43.509935 
L 244.20241 43.509935 
L 244.20241 43.091227 
L 244.373294 43.091227 
L 244.394736 41.835105 
L 244.488021 41.835105 
L 244.585261 40.578983 
L 244.680346 40.578983 
L 244.719567 38.904154 
L 245.103203 38.904154 
L 245.103203 38.485447 
L 245.295528 38.485447 
L 245.295528 38.066739 
L 245.712204 38.066739 
L 245.712204 37.648032 
L 246.049864 37.648032 
L 246.089167 36.39191 
L 246.318241 36.39191 
L 246.318894 35.554495 
L 246.511219 35.554495 
L 246.557592 34.298373 
L 247.05003 34.298373 
L 247.100481 33.460959 
L 247.183441 33.460959 
L 247.241044 32.204837 
L 247.387526 32.204837 
L 247.43337 30.948715 
L 247.958606 30.948715 
L 247.958606 30.530007 
L 248.30488 30.530007 
L 248.30488 30.1113 
L 248.648724 30.1113 
L 248.677099 29.273885 
L 248.84105 29.273885 
L 248.84105 28.855178 
L 249.588156 28.855178 
L 249.674479 27.180349 
L 249.809672 27.180349 
L 249.809672 26.761641 
L 250.001997 26.761641 
L 250.001997 26.342934 
L 250.237974 26.342934 
L 250.237974 25.924227 
L 250.685794 25.924227 
L 250.685794 25.505519 
L 251.063329 25.505519 
L 251.063329 25.086812 
L 251.202955 25.086812 
L 251.202955 24.668105 
L 251.778209 24.668105 
L 251.778209 24.249397 
L 251.970534 24.249397 
L 251.970534 23.83069 
L 252.236507 23.83069 
L 252.236507 23.411983 
L 252.591232 23.411983 
L 252.591232 22.993275 
L 252.886325 22.993275 
L 252.886325 22.574568 
L 254.257488 22.574568 
L 254.257488 22.155861 
L 255.555985 22.155861 
L 255.645765 21.318446 
L 256.176545 21.318446 
L 256.176545 20.899739 
L 256.566002 20.899739 
L 256.591298 20.062324 
L 256.905839 20.062324 
L 256.905839 19.643617 
L 257.542881 19.643617 
L 257.542881 19.224909 
L 258.192699 19.224909 
L 258.294116 18.387495 
L 258.705014 18.387495 
L 258.705014 17.968787 
L 258.973391 17.968787 
L 258.973391 17.55008 
L 259.231077 17.55008 
L 259.231077 17.131373 
L 260.056433 17.131373 
L 260.056433 16.712665 
L 260.185311 16.712665 
L 260.185311 16.293958 
L 260.454445 16.293958 
L 260.454445 15.875251 
L 261.104263 15.875251 
L 261.104263 15.456543 
L 261.586326 15.456543 
L 261.586326 15.037836 
L 261.879428 15.037836 
L 261.932599 14.200421 
L 262.212213 14.200421 
L 262.212213 13.781714 
L 263.302199 13.781714 
L 263.302199 12.944299 
L 263.60049 12.944299 
L 263.60049 12.525592 
L 264.313513 12.525592 
L 264.313513 12.106885 
L 265.123777 12.106885 
L 265.123777 11.688177 
L 266.512054 11.688177 
L 266.512054 11.26947 
L 267.185802 11.26947 
L 267.185802 10.850763 
L 269.804264 10.850763 
L 269.804264 10.432055 
L 270.097366 10.432055 
L 270.097366 10.013348 
L 272.858796 10.013348 
L 272.858796 9.594641 
L 273.109596 9.594641 
L 273.109596 9.175933 
L 273.759414 9.175933 
L 273.759414 8.757226 
L 275.507147 8.757226 
L 275.507147 8.338519 
L 277.778928 8.338519 
L 277.778928 7.919811 
L 279.167205 7.919811 
L 279.167205 7.501104 
L 280.813522 7.501104 
L 280.813522 7.082397 
L 282.752517 7.082397 
L 282.752517 6.663689 
L 283.725086 6.663689 
L 283.725086 6.244982 
L 296.380236 6.244982 
L 296.380236 5.826275 
L 453.192 5.826275 
L 453.192 5.826275 
" clip-path="url(#p8952e7310f)" style="fill: none; stroke: #bf00bf; stroke-width: 3; stroke-linecap: square"/>
   </g>
   <g id="line2d_41">
    <path clip-path="url(#p8952e7310f)" style="fill: none; stroke: #bf00bf; stroke-width: 3; stroke-linecap: square"/>
   </g>
   <g id="line2d_42">
    <path d="M 34.16 288.453725 
L 189.826538 288.453725 
L 189.826538 288.035018 
L 191.453607 288.035018 
L 191.453607 287.616311 
L 192.399169 287.616311 
L 192.399169 287.197603 
L 193.839837 287.197603 
L 193.839837 286.778896 
L 194.345794 286.778896 
L 194.345794 286.360189 
L 195.972863 286.360189 
L 195.972863 285.941481 
L 196.918425 285.941481 
L 196.918425 285.522774 
L 198.332493 285.522774 
L 198.359093 284.685359 
L 199.367806 284.685359 
L 199.367806 284.266652 
L 200.443465 284.266652 
L 200.443465 283.847945 
L 200.945879 283.847945 
L 200.945879 283.429237 
L 201.108132 283.429237 
L 201.108132 283.01053 
L 201.273398 283.01053 
L 201.273398 282.591823 
L 201.481522 282.591823 
L 201.481522 282.173115 
L 201.610546 282.173115 
L 201.610546 281.754408 
L 201.749899 281.754408 
L 201.775813 280.916993 
L 201.995183 280.916993 
L 201.995183 280.498286 
L 202.221977 280.498286 
L 202.315738 279.660871 
L 202.497598 279.660871 
L 202.530629 278.404749 
L 202.818152 278.404749 
L 202.851749 277.148627 
L 203.033044 277.148627 
L 203.033044 276.72992 
L 203.186596 276.72992 
L 203.186596 276.311213 
L 203.351863 276.311213 
L 203.351863 275.892505 
L 203.470177 275.892505 
L 203.484119 275.055091 
L 203.887062 275.055091 
L 203.972591 274.217676 
L 204.073648 274.217676 
L 204.148786 272.961554 
L 204.314053 272.961554 
L 204.394203 272.124139 
L 204.517062 272.124139 
L 204.609094 270.868017 
L 204.832851 270.868017 
L 204.855471 270.030603 
L 204.977453 270.030603 
L 205.035838 268.774481 
L 205.268843 268.774481 
L 205.356392 267.518359 
L 205.520138 267.518359 
L 205.571284 266.262237 
L 205.64212 266.262237 
L 205.685405 265.424822 
L 205.807386 265.424822 
L 205.858613 264.587407 
L 205.93351 264.587407 
L 206.000778 263.749993 
L 206.098776 263.749993 
L 206.164856 262.493871 
L 206.269155 262.493871 
L 206.269155 262.075163 
L 206.394427 262.075163 
L 206.40719 261.237749 
L 206.510831 261.237749 
L 206.595526 259.562919 
L 206.68204 259.562919 
L 206.727745 258.306797 
L 206.820561 258.306797 
L 206.911315 257.050675 
L 206.942636 257.050675 
L 206.942636 256.631968 
L 207.059094 256.631968 
L 207.141116 254.538431 
L 207.22436 254.538431 
L 207.335004 253.282309 
L 207.352196 253.282309 
L 207.410331 251.60748 
L 207.481905 251.60748 
L 207.557716 250.770065 
L 207.599998 250.770065 
L 207.599998 250.351358 
L 207.730886 250.351358 
L 207.837419 248.676529 
L 207.873505 248.676529 
L 207.98432 246.164285 
L 208.004165 246.164285 
L 208.004165 245.745577 
L 208.241845 245.745577 
L 208.352051 243.652041 
L 208.429932 243.652041 
L 208.498398 242.395919 
L 208.577326 242.395919 
L 208.681234 241.139797 
L 208.730566 241.139797 
L 208.730566 240.721089 
L 208.854466 240.721089 
L 208.945158 237.790138 
L 209.001789 237.790138 
L 209.071778 236.534016 
L 209.151717 236.534016 
L 209.244857 235.277894 
L 209.34244 235.277894 
L 209.421139 233.184357 
L 209.472272 233.184357 
L 209.5605 231.509528 
L 209.658229 231.509528 
L 209.687163 230.672113 
L 209.793563 230.672113 
L 209.884272 229.415991 
L 209.93221 229.415991 
L 210.037353 228.159869 
L 210.114118 228.159869 
L 210.156228 227.322455 
L 210.247999 227.322455 
L 210.329009 226.066333 
L 210.375659 226.066333 
L 210.468024 224.391503 
L 210.52256 224.391503 
L 210.62671 222.716674 
L 210.647857 222.716674 
L 210.680716 221.879259 
L 210.772443 221.879259 
L 210.855105 220.20443 
L 211.183131 220.20443 
L 211.268557 217.692186 
L 211.392706 217.692186 
L 211.403375 216.854771 
L 211.518902 216.854771 
L 211.518902 216.436064 
L 211.673595 216.436064 
L 211.757279 215.179942 
L 211.868992 215.179942 
L 211.962737 213.505113 
L 211.989384 213.505113 
L 212.069948 212.248991 
L 212.160382 212.248991 
L 212.25612 211.411576 
L 212.286399 211.411576 
L 212.373493 209.736747 
L 212.482174 209.736747 
L 212.482174 209.318039 
L 212.602393 209.318039 
L 212.681715 208.061917 
L 212.750152 208.061917 
L 212.804164 206.387088 
L 212.886039 206.387088 
L 212.924927 205.130966 
L 213.119952 205.130966 
L 213.177429 204.293551 
L 213.285966 204.293551 
L 213.346382 203.456137 
L 213.427736 203.456137 
L 213.511649 201.781307 
L 213.721371 201.781307 
L 213.767199 200.943893 
L 213.883189 200.943893 
L 213.971993 199.269063 
L 214.021055 199.269063 
L 214.108918 198.431649 
L 214.167956 198.431649 
L 214.233434 197.175527 
L 214.296279 197.175527 
L 214.347921 195.919405 
L 214.41826 195.919405 
L 214.491538 194.663282 
L 214.553988 194.663282 
L 214.638439 193.825868 
L 214.709651 193.825868 
L 214.773585 192.569746 
L 214.82875 192.569746 
L 214.938851 191.313624 
L 214.983307 191.313624 
L 215.092723 190.057502 
L 215.133384 190.057502 
L 215.214704 188.80138 
L 215.280285 188.80138 
L 215.308989 187.545258 
L 215.506095 187.545258 
L 215.599062 185.870428 
L 215.622106 185.870428 
L 215.708427 184.614306 
L 215.741751 184.614306 
L 215.835234 183.358184 
L 215.863438 183.358184 
L 215.886104 182.52077 
L 215.981191 182.52077 
L 215.981191 182.102062 
L 216.095865 182.102062 
L 216.196082 180.84594 
L 216.269418 180.84594 
L 216.324642 180.008526 
L 216.535921 180.008526 
L 216.639153 176.24016 
L 216.755312 176.24016 
L 216.777064 175.402745 
L 216.931735 175.402745 
L 217.040806 174.56533 
L 217.071101 174.56533 
L 217.13563 173.727916 
L 217.19238 173.727916 
L 217.19238 173.309208 
L 217.366767 173.309208 
L 217.366767 172.890501 
L 217.555938 172.890501 
L 217.555938 172.471794 
L 217.682652 172.471794 
L 217.758724 171.215672 
L 217.83725 171.215672 
L 217.83725 170.796964 
L 217.985291 170.796964 
L 217.985291 169.95955 
L 218.126555 169.95955 
L 218.182515 168.703428 
L 218.253535 168.703428 
L 218.337555 167.866013 
L 218.479096 167.866013 
L 218.498304 167.028598 
L 218.807984 167.028598 
L 218.892004 165.772476 
L 218.967818 165.772476 
L 218.996606 164.935062 
L 219.136012 164.935062 
L 219.159157 164.097647 
L 219.36106 164.097647 
L 219.36106 163.67894 
L 219.502635 163.67894 
L 219.586655 162.422818 
L 219.720155 162.422818 
L 219.829254 161.166696 
L 219.876282 161.166696 
L 219.960302 160.329281 
L 220.242198 160.329281 
L 220.242198 159.910574 
L 220.396373 159.910574 
L 220.474058 158.235744 
L 220.555435 158.235744 
L 220.590301 157.39833 
L 220.70327 157.39833 
L 220.78729 156.142208 
L 221.000457 156.142208 
L 221.108348 154.048671 
L 221.147358 154.048671 
L 221.251345 152.792549 
L 221.467796 152.792549 
L 221.467796 152.373842 
L 221.652443 152.373842 
L 221.652443 151.955134 
L 221.797387 151.955134 
L 221.797387 151.536427 
L 221.943712 151.536427 
L 222.017504 150.699012 
L 222.080559 150.699012 
L 222.164579 148.186768 
L 222.347094 148.186768 
L 222.347094 147.768061 
L 222.477948 147.768061 
L 222.510089 146.511939 
L 222.609767 146.511939 
L 222.720741 144.83711 
L 222.773801 144.83711 
L 222.857821 143.16228 
L 222.918967 143.16228 
L 222.918967 142.743573 
L 223.046689 142.743573 
L 223.098365 141.906158 
L 223.37869 141.906158 
L 223.489262 140.650036 
L 223.51326 140.650036 
L 223.549726 138.5565 
L 223.861508 138.5565 
L 223.915561 137.300378 
L 224.17948 137.300378 
L 224.279912 135.625548 
L 224.34617 135.625548 
L 224.412343 134.788134 
L 224.487356 134.788134 
L 224.525754 133.113304 
L 224.925018 133.113304 
L 224.925018 132.694597 
L 225.074691 132.694597 
L 225.155659 131.438475 
L 225.262522 131.438475 
L 225.262522 131.019768 
L 225.529025 131.019768 
L 225.626977 127.670109 
L 225.702599 127.670109 
L 225.702599 127.251402 
L 225.895353 127.251402 
L 225.895353 126.413987 
L 226.025713 126.413987 
L 226.126931 124.739158 
L 226.176941 124.739158 
L 226.223149 123.901743 
L 226.462968 123.901743 
L 226.515382 123.064328 
L 226.580162 123.064328 
L 226.638291 122.226914 
L 226.906668 122.226914 
L 226.990505 120.552084 
L 227.040351 120.552084 
L 227.069831 119.71467 
L 227.256802 119.71467 
L 227.274812 118.877255 
L 227.537486 118.877255 
L 227.648459 117.621133 
L 227.687345 117.621133 
L 227.764481 116.783718 
L 227.80401 116.783718 
L 227.80401 116.365011 
L 227.989709 116.365011 
L 227.989709 115.946304 
L 228.138128 115.946304 
L 228.138128 115.527596 
L 228.340154 115.527596 
L 228.340154 115.108889 
L 228.463038 115.108889 
L 228.475448 114.271474 
L 228.749572 114.271474 
L 228.843279 113.43406 
L 228.88737 113.43406 
L 228.980013 112.177938 
L 229.060325 112.177938 
L 229.074933 111.340523 
L 229.332948 111.340523 
L 229.332948 110.921816 
L 229.521235 110.921816 
L 229.614774 110.084401 
L 229.852736 110.084401 
L 229.852736 109.665694 
L 230.015325 109.665694 
L 230.075684 108.409572 
L 230.19024 108.409572 
L 230.19024 107.990864 
L 230.309425 107.990864 
L 230.342405 107.15345 
L 230.49075 107.15345 
L 230.545978 106.316035 
L 230.683071 106.316035 
L 230.770335 105.47862 
L 230.89612 105.47862 
L 230.980419 104.641206 
L 231.035647 104.641206 
L 231.143981 103.803791 
L 231.150867 103.803791 
L 231.150867 103.385084 
L 231.4431 103.385084 
L 231.51006 101.710254 
L 231.592959 101.710254 
L 231.640536 100.87284 
L 231.877891 100.87284 
L 231.97097 99.616718 
L 231.997549 99.616718 
L 232.034545 98.779303 
L 232.129042 98.779303 
L 232.18452 97.104473 
L 232.245768 97.104473 
L 232.338801 96.267059 
L 232.397419 96.267059 
L 232.457738 95.429644 
L 232.518866 95.429644 
L 232.518866 95.010937 
L 232.64507 95.010937 
L 232.692199 93.754815 
L 232.800217 93.754815 
L 232.887349 92.498693 
L 232.980548 92.498693 
L 233.069858 91.242571 
L 233.110385 91.242571 
L 233.215705 90.405156 
L 233.295361 90.405156 
L 233.390756 88.730327 
L 233.48046 88.730327 
L 233.580591 86.63679 
L 233.713686 86.63679 
L 233.815088 85.799375 
L 233.868514 85.799375 
L 233.945179 84.124546 
L 233.986272 84.124546 
L 234.055946 82.449717 
L 234.18548 82.449717 
L 234.260666 81.193595 
L 234.304757 81.193595 
L 234.410525 79.937473 
L 234.603294 79.937473 
L 234.695503 78.262643 
L 234.723143 78.262643 
L 234.723143 77.843936 
L 235.002682 77.843936 
L 235.063334 77.006521 
L 235.183574 77.006521 
L 235.270124 75.750399 
L 235.361157 75.750399 
L 235.463591 73.238155 
L 235.496614 73.238155 
L 235.496614 72.819448 
L 235.680043 72.819448 
L 235.718209 71.982033 
L 235.798114 71.982033 
L 235.908137 71.144619 
L 235.963365 71.144619 
L 236.072792 69.051082 
L 236.113224 69.051082 
L 236.113224 68.632375 
L 236.425369 68.632375 
L 236.534993 67.79496 
L 236.550684 67.79496 
L 236.568255 66.957545 
L 236.710805 66.957545 
L 236.807571 65.282716 
L 236.838476 65.282716 
L 236.914671 63.607887 
L 236.96751 63.607887 
L 237.054927 62.770472 
L 237.105133 62.770472 
L 237.105133 62.351765 
L 237.310611 62.351765 
L 237.385456 61.095643 
L 237.445585 61.095643 
L 237.535315 59.839521 
L 237.564489 59.839521 
L 237.601907 59.002106 
L 237.751766 59.002106 
L 237.831925 57.745984 
L 237.964693 57.745984 
L 237.964693 57.327277 
L 238.100302 57.327277 
L 238.188125 55.652447 
L 238.261163 55.652447 
L 238.315685 54.815033 
L 238.404576 54.815033 
L 238.408178 53.977618 
L 238.661958 53.977618 
L 238.685495 53.140203 
L 238.808143 53.140203 
L 238.808143 52.721496 
L 238.922904 52.721496 
L 239.000419 51.046667 
L 239.139355 51.046667 
L 239.232476 49.371837 
L 239.311776 49.371837 
L 239.382335 47.697008 
L 239.610812 47.697008 
L 239.610812 47.278301 
L 239.989271 47.278301 
L 240.035144 45.603471 
L 240.345591 45.603471 
L 240.377708 44.766057 
L 240.681376 44.766057 
L 240.769924 43.509935 
L 241.015721 43.509935 
L 241.07095 41.835105 
L 241.584003 41.835105 
L 241.69269 40.578983 
L 242.49304 40.578983 
L 242.49304 40.160276 
L 242.709492 40.160276 
L 242.709492 39.741569 
L 242.900835 39.741569 
L 242.985017 38.066739 
L 243.1383 38.066739 
L 243.1383 37.648032 
L 243.33129 37.648032 
L 243.406677 36.810617 
L 243.676 36.810617 
L 243.676 36.39191 
L 243.915727 36.39191 
L 243.936147 35.554495 
L 244.34006 35.554495 
L 244.373294 34.717081 
L 244.489718 34.717081 
L 244.489718 34.298373 
L 244.70089 34.298373 
L 244.719567 33.042251 
L 245.712204 33.042251 
L 245.712204 32.623544 
L 246.049864 32.623544 
L 246.089167 31.367422 
L 246.318241 31.367422 
L 246.318241 30.948715 
L 246.533623 30.948715 
L 246.557592 30.1113 
L 247.05003 30.1113 
L 247.100481 29.273885 
L 247.183441 29.273885 
L 247.183441 28.855178 
L 247.401282 28.855178 
L 247.401282 28.436471 
L 247.958606 28.436471 
L 247.958606 28.017763 
L 248.30488 28.017763 
L 248.30488 27.599056 
L 248.677099 27.599056 
L 248.677099 27.180349 
L 249.588156 27.180349 
L 249.674479 25.505519 
L 250.237974 25.505519 
L 250.237974 25.086812 
L 250.685794 25.086812 
L 250.685794 24.668105 
L 251.063329 24.668105 
L 251.063329 24.249397 
L 251.202955 24.249397 
L 251.202955 23.83069 
L 252.236507 23.83069 
L 252.236507 23.411983 
L 252.591232 23.411983 
L 252.591232 22.993275 
L 252.886325 22.993275 
L 252.886325 22.574568 
L 254.257488 22.574568 
L 254.257488 22.155861 
L 255.555985 22.155861 
L 255.645765 21.318446 
L 256.176545 21.318446 
L 256.176545 20.899739 
L 256.566002 20.899739 
L 256.591298 20.062324 
L 256.905839 20.062324 
L 256.905839 19.643617 
L 257.542881 19.643617 
L 257.542881 19.224909 
L 258.192699 19.224909 
L 258.294116 18.387495 
L 258.705014 18.387495 
L 258.705014 17.968787 
L 258.973391 17.968787 
L 258.973391 17.55008 
L 259.231077 17.55008 
L 259.231077 17.131373 
L 260.056433 17.131373 
L 260.056433 16.712665 
L 260.185311 16.712665 
L 260.185311 16.293958 
L 260.454445 16.293958 
L 260.454445 15.875251 
L 261.104263 15.875251 
L 261.104263 15.456543 
L 261.586326 15.456543 
L 261.586326 15.037836 
L 261.879428 15.037836 
L 261.932599 14.200421 
L 262.212213 14.200421 
L 262.212213 13.781714 
L 263.302199 13.781714 
L 263.302199 12.944299 
L 263.60049 12.944299 
L 263.60049 12.525592 
L 264.313513 12.525592 
L 264.313513 12.106885 
L 265.123777 12.106885 
L 265.123777 11.688177 
L 266.512054 11.688177 
L 266.512054 11.26947 
L 267.185802 11.26947 
L 267.185802 10.850763 
L 269.804264 10.850763 
L 269.804264 10.432055 
L 270.097366 10.432055 
L 270.097366 10.013348 
L 272.858796 10.013348 
L 272.858796 9.594641 
L 273.109596 9.594641 
L 273.109596 9.175933 
L 273.759414 9.175933 
L 273.759414 8.757226 
L 275.507147 8.757226 
L 275.507147 8.338519 
L 277.778928 8.338519 
L 277.778928 7.919811 
L 279.167205 7.919811 
L 279.167205 7.501104 
L 280.813522 7.501104 
L 280.813522 7.082397 
L 282.752517 7.082397 
L 282.752517 6.663689 
L 283.725086 6.663689 
L 283.725086 6.244982 
L 296.380236 6.244982 
L 296.380236 5.826275 
L 453.192 5.826275 
L 453.192 5.826275 
" clip-path="url(#p8952e7310f)" style="fill: none; stroke: #ff0000; stroke-width: 3; stroke-linecap: square"/>
   </g>
   <g id="line2d_43">
    <path clip-path="url(#p8952e7310f)" style="fill: none; stroke: #ff0000; stroke-width: 3; stroke-linecap: square"/>
   </g>
   <g id="line2d_44">
    <path d="M 243.676 291.28 
L 243.676 3 
" clip-path="url(#p8952e7310f)" style="fill: none; stroke: #000000; stroke-width: 1.5; stroke-linecap: square"/>
   </g>
   <g id="line2d_45">
    <path d="M 34.16 147.14 
L 453.192 147.14 
" clip-path="url(#p8952e7310f)" style="fill: none; stroke-dasharray: 2,3.3; stroke-dashoffset: 0; stroke: #000000; stroke-width: 2"/>
   </g>
   <g id="patch_3">
    <path d="M 34.16 291.28 
L 34.16 3 
" style="fill: none; stroke: #000000; stroke-width: 0.8; stroke-linejoin: miter; stroke-linecap: square"/>
   </g>
   <g id="patch_4">
    <path d="M 453.192 291.28 
L 453.192 3 
" style="fill: none; stroke: #000000; stroke-width: 0.8; stroke-linejoin: miter; stroke-linecap: square"/>
   </g>
   <g id="patch_5">
    <path d="M 34.16 291.28 
L 453.192 291.28 
" style="fill: none; stroke: #000000; stroke-width: 0.8; stroke-linejoin: miter; stroke-linecap: square"/>
   </g>
   <g id="patch_6">
    <path d="M 34.16 3 
L 453.192 3 
" style="fill: none; stroke: #000000; stroke-width: 0.8; stroke-linejoin: miter; stroke-linecap: square"/>
   </g>
   <g id="text_6">
    <!-- f1-f5,20-D -->
    <g transform="translate(343.64261 285.5144)scale(0.2 -0.2)">
     <defs>
      <path id="DejaVuSans-35" d="M 691 4666 
L 3169 4666 
L 3169 4134 
L 1269 4134 
L 1269 2991 
Q 1406 3038 1543 3061 
Q 1681 3084 1819 3084 
Q 2600 3084 3056 2656 
Q 3513 2228 3513 1497 
Q 3513 744 3044 326 
Q 2575 -91 1722 -91 
Q 1428 -91 1123 -41 
Q 819 9 494 109 
L 494 744 
Q 775 591 1075 516 
Q 1375 441 1709 441 
Q 2250 441 2565 725 
Q 2881 1009 2881 1497 
Q 2881 1984 2565 2268 
Q 2250 2553 1709 2553 
Q 1456 2553 1204 2497 
Q 953 2441 691 2322 
L 691 4666 
z
" transform="scale(0.015625)"/>
      <path id="DejaVuSans-2c" d="M 750 794 
L 1409 794 
L 1409 256 
L 897 -744 
L 494 -744 
L 750 256 
L 750 794 
z
" transform="scale(0.015625)"/>
      <path id="DejaVuSans-32" d="M 1228 531 
L 3431 531 
L 3431 0 
L 469 0 
L 469 531 
Q 828 903 1448 1529 
Q 2069 2156 2228 2338 
Q 2531 2678 2651 2914 
Q 2772 3150 2772 3378 
Q 2772 3750 2511 3984 
Q 2250 4219 1831 4219 
Q 1534 4219 1204 4116 
Q 875 4013 500 3803 
L 500 4441 
Q 881 4594 1212 4672 
Q 1544 4750 1819 4750 
Q 2544 4750 2975 4387 
Q 3406 4025 3406 3419 
Q 3406 3131 3298 2873 
Q 3191 2616 2906 2266 
Q 2828 2175 2409 1742 
Q 1991 1309 1228 531 
z
" transform="scale(0.015625)"/>
      <path id="DejaVuSans-44" d="M 1259 4147 
L 1259 519 
L 2022 519 
Q 2988 519 3436 956 
Q 3884 1394 3884 2338 
Q 3884 3275 3436 3711 
Q 2988 4147 2022 4147 
L 1259 4147 
z
M 628 4666 
L 1925 4666 
Q 3281 4666 3915 4102 
Q 4550 3538 4550 2338 
Q 4550 1131 3912 565 
Q 3275 0 1925 0 
L 628 0 
L 628 4666 
z
" transform="scale(0.015625)"/>
     </defs>
     <use xlink:href="#DejaVuSans-66"/>
     <use xlink:href="#DejaVuSans-31" x="35.205078"/>
     <use xlink:href="#DejaVuSans-2d" x="98.828125"/>
     <use xlink:href="#DejaVuSans-66" x="134.912109"/>
     <use xlink:href="#DejaVuSans-35" x="170.117188"/>
     <use xlink:href="#DejaVuSans-2c" x="233.740234"/>
     <use xlink:href="#DejaVuSans-32" x="265.527344"/>
     <use xlink:href="#DejaVuSans-30" x="329.150391"/>
     <use xlink:href="#DejaVuSans-2d" x="392.773438"/>
     <use xlink:href="#DejaVuSans-44" x="428.857422"/>
    </g>
   </g>
   <g id="text_7">
    <!-- v2.6.3 -->
    <g style="fill: #808080" transform="translate(227.99475 286.317512)scale(0.1 -0.1)">
     <defs>
      <path id="DejaVuSans-2e" d="M 684 794 
L 1344 794 
L 1344 0 
L 684 0 
L 684 794 
z
" transform="scale(0.015625)"/>
      <path id="DejaVuSans-36" d="M 2113 2584 
Q 1688 2584 1439 2293 
Q 1191 2003 1191 1497 
Q 1191 994 1439 701 
Q 1688 409 2113 409 
Q 2538 409 2786 701 
Q 3034 994 3034 1497 
Q 3034 2003 2786 2293 
Q 2538 2584 2113 2584 
z
M 3366 4563 
L 3366 3988 
Q 3128 4100 2886 4159 
Q 2644 4219 2406 4219 
Q 1781 4219 1451 3797 
Q 1122 3375 1075 2522 
Q 1259 2794 1537 2939 
Q 1816 3084 2150 3084 
Q 2853 3084 3261 2657 
Q 3669 2231 3669 1497 
Q 3669 778 3244 343 
Q 2819 -91 2113 -91 
Q 1303 -91 875 529 
Q 447 1150 447 2328 
Q 447 3434 972 4092 
Q 1497 4750 2381 4750 
Q 2619 4750 2861 4703 
Q 3103 4656 3366 4563 
z
" transform="scale(0.015625)"/>
      <path id="DejaVuSans-33" d="M 2597 2516 
Q 3050 2419 3304 2112 
Q 3559 1806 3559 1356 
Q 3559 666 3084 287 
Q 2609 -91 1734 -91 
Q 1441 -91 1130 -33 
Q 819 25 488 141 
L 488 750 
Q 750 597 1062 519 
Q 1375 441 1716 441 
Q 2309 441 2620 675 
Q 2931 909 2931 1356 
Q 2931 1769 2642 2001 
Q 2353 2234 1838 2234 
L 1294 2234 
L 1294 2753 
L 1863 2753 
Q 2328 2753 2575 2939 
Q 2822 3125 2822 3475 
Q 2822 3834 2567 4026 
Q 2313 4219 1838 4219 
Q 1578 4219 1281 4162 
Q 984 4106 628 3988 
L 628 4550 
Q 988 4650 1302 4700 
Q 1616 4750 1894 4750 
Q 2613 4750 3031 4423 
Q 3450 4097 3450 3541 
Q 3450 3153 3228 2886 
Q 3006 2619 2597 2516 
z
" transform="scale(0.015625)"/>
     </defs>
     <use xlink:href="#DejaVuSans-76"/>
     <use xlink:href="#DejaVuSans-32" x="59.179688"/>
     <use xlink:href="#DejaVuSans-2e" x="122.802734"/>
     <use xlink:href="#DejaVuSans-36" x="154.589844"/>
     <use xlink:href="#DejaVuSans-2e" x="218.212891"/>
     <use xlink:href="#DejaVuSans-33" x="250"/>
    </g>
   </g>
   <g id="legend_1">
    <g id="patch_7">
     <path d="M 309.970125 136.425 
L 439.192 136.425 
Q 443.192 136.425 443.192 132.425 
L 443.192 17 
Q 443.192 13 439.192 13 
L 309.970125 13 
Q 305.970125 13 305.970125 17 
L 305.970125 132.425 
Q 305.970125 136.425 309.970125 136.425 
z
" style="fill: #ffffff; opacity: 0.2; stroke: #cccccc; stroke-linejoin: miter"/>
    </g>
    <g id="line2d_46">
     <path d="M 313.970125 29.196875 
L 333.970125 29.196875 
L 353.970125 29.196875 
" style="fill: none; stroke: #000000; stroke-width: 3; stroke-linecap: square"/>
    </g>
    <g id="text_8">
     <!-- 1: 4/4 -->
     <g transform="translate(369.970125 36.196875)scale(0.2 -0.2)">
      <defs>
       <path id="DejaVuSans-3a" d="M 750 794 
L 1409 794 
L 1409 0 
L 750 0 
L 750 794 
z
M 750 3309 
L 1409 3309 
L 1409 2516 
L 750 2516 
L 750 3309 
z
" transform="scale(0.015625)"/>
       <path id="DejaVuSans-34" d="M 2419 4116 
L 825 1625 
L 2419 1625 
L 2419 4116 
z
M 2253 4666 
L 3047 4666 
L 3047 1625 
L 3713 1625 
L 3713 1100 
L 3047 1100 
L 3047 0 
L 2419 0 
L 2419 1100 
L 313 1100 
L 313 1709 
L 2253 4666 
z
" transform="scale(0.015625)"/>
       <path id="DejaVuSans-2f" d="M 1625 4666 
L 2156 4666 
L 531 -594 
L 0 -594 
L 1625 4666 
z
" transform="scale(0.015625)"/>
      </defs>
      <use xlink:href="#DejaVuSans-31"/>
      <use xlink:href="#DejaVuSans-3a" x="63.623047"/>
      <use xlink:href="#DejaVuSans-20" x="97.314453"/>
      <use xlink:href="#DejaVuSans-34" x="129.101562"/>
      <use xlink:href="#DejaVuSans-2f" x="192.724609"/>
      <use xlink:href="#DejaVuSans-34" x="226.416016"/>
     </g>
    </g>
    <g id="line2d_47">
     <path d="M 313.970125 58.553125 
L 333.970125 58.553125 
L 353.970125 58.553125 
" style="fill: none; stroke: #00bfbf; stroke-width: 3; stroke-linecap: square"/>
    </g>
    <g id="text_9">
     <!-- -1: 3/3 -->
     <g transform="translate(369.970125 65.553125)scale(0.2 -0.2)">
      <use xlink:href="#DejaVuSans-2d"/>
      <use xlink:href="#DejaVuSans-31" x="36.083984"/>
      <use xlink:href="#DejaVuSans-3a" x="99.707031"/>
      <use xlink:href="#DejaVuSans-20" x="133.398438"/>
      <use xlink:href="#DejaVuSans-33" x="165.185547"/>
      <use xlink:href="#DejaVuSans-2f" x="228.808594"/>
      <use xlink:href="#DejaVuSans-33" x="262.5"/>
     </g>
    </g>
    <g id="line2d_48">
     <path d="M 313.970125 87.909375 
L 333.970125 87.909375 
L 353.970125 87.909375 
" style="fill: none; stroke: #bf00bf; stroke-width: 3; stroke-linecap: square"/>
    </g>
    <g id="text_10">
     <!-- -4: 3/3 -->
     <g transform="translate(369.970125 94.909375)scale(0.2 -0.2)">
      <use xlink:href="#DejaVuSans-2d"/>
      <use xlink:href="#DejaVuSans-34" x="36.083984"/>
      <use xlink:href="#DejaVuSans-3a" x="99.707031"/>
      <use xlink:href="#DejaVuSans-20" x="133.398438"/>
      <use xlink:href="#DejaVuSans-33" x="165.185547"/>
      <use xlink:href="#DejaVuSans-2f" x="228.808594"/>
      <use xlink:href="#DejaVuSans-33" x="262.5"/>
     </g>
    </g>
    <g id="line2d_49">
     <path d="M 313.970125 117.265625 
L 333.970125 117.265625 
L 353.970125 117.265625 
" style="fill: none; stroke: #ff0000; stroke-width: 3; stroke-linecap: square"/>
    </g>
    <g id="text_11">
     <!-- -8: 3/3 -->
     <g transform="translate(369.970125 124.265625)scale(0.2 -0.2)">
      <defs>
       <path id="DejaVuSans-38" d="M 2034 2216 
Q 1584 2216 1326 1975 
Q 1069 1734 1069 1313 
Q 1069 891 1326 650 
Q 1584 409 2034 409 
Q 2484 409 2743 651 
Q 3003 894 3003 1313 
Q 3003 1734 2745 1975 
Q 2488 2216 2034 2216 
z
M 1403 2484 
Q 997 2584 770 2862 
Q 544 3141 544 3541 
Q 544 4100 942 4425 
Q 1341 4750 2034 4750 
Q 2731 4750 3128 4425 
Q 3525 4100 3525 3541 
Q 3525 3141 3298 2862 
Q 3072 2584 2669 2484 
Q 3125 2378 3379 2068 
Q 3634 1759 3634 1313 
Q 3634 634 3220 271 
Q 2806 -91 2034 -91 
Q 1263 -91 848 271 
Q 434 634 434 1313 
Q 434 1759 690 2068 
Q 947 2378 1403 2484 
z
M 1172 3481 
Q 1172 3119 1398 2916 
Q 1625 2713 2034 2713 
Q 2441 2713 2670 2916 
Q 2900 3119 2900 3481 
Q 2900 3844 2670 4047 
Q 2441 4250 2034 4250 
Q 1625 4250 1398 4047 
Q 1172 3844 1172 3481 
z
" transform="scale(0.015625)"/>
      </defs>
      <use xlink:href="#DejaVuSans-2d"/>
      <use xlink:href="#DejaVuSans-38" x="36.083984"/>
      <use xlink:href="#DejaVuSans-3a" x="99.707031"/>
      <use xlink:href="#DejaVuSans-20" x="133.398438"/>
      <use xlink:href="#DejaVuSans-33" x="165.185547"/>
      <use xlink:href="#DejaVuSans-2f" x="228.808594"/>
      <use xlink:href="#DejaVuSans-33" x="262.5"/>
     </g>
    </g>
   </g>
  </g>
 </g>
 <defs>
  <clipPath id="p8952e7310f">
   <rect x="34.16" y="3" width="419.032" height="288.28"/>
  </clipPath>
 </defs>
</svg>
