<?xml version="1.0" encoding="utf-8" standalone="no"?>
<!DOCTYPE svg PUBLIC "-//W3C//DTD SVG 1.1//EN"
  "http://www.w3.org/Graphics/SVG/1.1/DTD/svg11.dtd">
<svg xmlns:xlink="http://www.w3.org/1999/xlink" width="460.8pt" height="345.6pt" viewBox="0 0 460.8 345.6" xmlns="http://www.w3.org/2000/svg" version="1.1">
 <metadata>
  <rdf:RDF xmlns:dc="http://purl.org/dc/elements/1.1/" xmlns:cc="http://creativecommons.org/ns#" xmlns:rdf="http://www.w3.org/1999/02/22-rdf-syntax-ns#">
   <cc:Work>
    <dc:type rdf:resource="http://purl.org/dc/dcmitype/StillImage"/>
    <dc:date>2023-04-07T09:01:07.652042</dc:date>
    <dc:format>image/svg+xml</dc:format>
    <dc:creator>
     <cc:Agent>
      <dc:title>Matplotlib v3.5.2, https://matplotlib.org/</dc:title>
     </cc:Agent>
    </dc:creator>
   </cc:Work>
  </rdf:RDF>
 </metadata>
 <defs>
  <style type="text/css">*{stroke-linejoin: round; stroke-linecap: butt}</style>
 </defs>
 <g id="figure_1">
  <g id="patch_1">
   <path d="M 0 345.6 
L 460.8 345.6 
L 460.8 0 
L 0 0 
z
" style="fill: #ffffff"/>
  </g>
  <g id="axes_1">
   <g id="patch_2">
    <path d="M 62.208 293.76 
L 460.8 293.76 
L 460.8 3.456 
L 62.208 3.456 
z
" style="fill: #ffffff"/>
   </g>
   <g id="line2d_1"/>
   <g id="line2d_2"/>
   <g id="line2d_3"/>
   <g id="line2d_4">
    <path d="M 270.357489 293.76 
L 270.372893 286.095208 
L 271.06393 286.095208 
L 271.06393 282.262812 
L 271.558882 282.262812 
L 271.558882 278.430416 
L 271.885138 278.430416 
L 271.885138 274.59802 
L 272.189855 274.59802 
L 272.217079 266.933228 
L 272.302227 266.933228 
L 272.302227 263.100832 
L 272.833188 263.100832 
L 272.870516 251.603644 
L 274.079545 251.603644 
L 274.079545 247.771248 
L 274.486949 247.771248 
L 274.486949 243.938851 
L 275.144408 243.938851 
L 275.144408 240.106455 
L 275.25813 240.106455 
L 275.25813 236.274059 
L 275.944741 236.274059 
L 275.944741 232.441663 
L 276.401602 232.441663 
L 276.401602 228.609267 
L 277.065238 228.609267 
L 277.065238 224.776871 
L 277.216988 224.776871 
L 277.216988 220.944475 
L 277.614514 220.944475 
L 277.614514 217.112079 
L 277.972365 217.112079 
L 277.972365 213.279683 
L 279.450338 213.279683 
L 279.479078 205.614891 
L 280.606029 205.614891 
L 280.606029 201.782495 
L 281.525912 201.782495 
L 281.525912 197.950099 
L 282.574478 197.950099 
L 282.625146 190.285307 
L 283.157974 190.285307 
L 283.157974 186.452911 
L 283.418473 186.452911 
L 283.418473 182.620515 
L 285.789504 182.620515 
L 285.789504 178.788119 
L 287.585677 178.788119 
L 287.585677 174.955723 
L 288.158079 174.955723 
L 288.158079 171.123327 
L 288.304415 171.123327 
L 288.304415 167.290931 
L 289.127211 167.290931 
L 289.127211 163.458535 
L 289.463459 163.458535 
L 289.463459 159.626139 
L 290.36805 159.626139 
L 290.36805 155.793743 
L 290.54867 155.793743 
L 290.554707 148.12895 
L 290.747248 148.12895 
L 290.747248 144.296554 
L 291.060577 144.296554 
L 291.128791 136.631762 
L 291.410928 136.631762 
L 291.410928 132.799366 
L 291.731236 132.799366 
L 291.766086 125.134574 
L 292.108621 125.134574 
L 292.108621 121.302178 
L 292.682222 121.302178 
L 292.682222 117.469782 
L 293.984762 117.469782 
L 293.984762 113.637386 
L 295.931483 113.637386 
L 295.931483 109.80499 
L 301.968628 109.80499 
L 301.968628 105.972594 
L 302.404594 105.972594 
L 302.491744 98.307802 
L 302.797913 98.307802 
L 302.797913 94.475406 
L 305.078933 94.475406 
L 305.078933 90.64301 
L 310.390574 90.64301 
L 310.390574 86.810614 
L 314.127406 86.810614 
L 314.127406 82.978218 
L 317.465091 82.978218 
L 317.465091 79.145822 
L 317.840057 79.145822 
L 317.840057 75.313426 
L 318.048927 75.313426 
L 318.048927 71.48103 
L 318.172917 71.48103 
L 318.172917 67.648634 
L 318.816382 67.648634 
L 318.816382 63.816238 
L 319.751186 63.816238 
L 319.751186 59.983842 
L 333.945787 59.983842 
L 333.945787 56.151446 
L 343.566606 56.151446 
L 343.566606 52.31905 
L 345.496791 52.31905 
L 345.496791 48.486653 
L 345.496791 48.486653 
L 460.8 48.486653 
L 460.8 48.486653 
" clip-path="url(#p4b9dc004a6)" style="fill: none; stroke: #f5deb3; stroke-width: 1.5; stroke-linecap: square"/>
   </g>
   <g id="line2d_5"/>
   <g id="line2d_6"/>
   <g id="line2d_7">
    <path d="M 269.607016 293.76 
L 269.705509 282.262812 
L 269.878104 282.262812 
L 269.878104 278.430416 
L 270.152665 278.430416 
L 270.152665 274.59802 
L 270.326658 274.59802 
L 270.326658 270.765624 
L 270.551404 270.765624 
L 270.551404 266.933228 
L 270.702241 266.933228 
L 270.736507 259.268436 
L 271.09968 259.268436 
L 271.171058 247.771248 
L 271.231039 247.771248 
L 271.231039 243.938851 
L 272.498806 243.938851 
L 272.498806 240.106455 
L 278.37976 240.106455 
L 278.37976 236.274059 
L 278.517837 236.274059 
L 278.517837 232.441663 
L 278.667101 232.441663 
L 278.667101 228.609267 
L 279.034971 228.609267 
L 279.138245 220.944475 
L 279.165824 220.944475 
L 279.165824 217.112079 
L 279.503486 217.112079 
L 279.503486 213.279683 
L 280.184859 213.279683 
L 280.184859 209.447287 
L 280.596331 209.447287 
L 280.596331 205.614891 
L 281.447814 205.614891 
L 281.508425 197.950099 
L 282.023528 197.950099 
L 282.023528 194.117703 
L 282.455931 194.117703 
L 282.455931 190.285307 
L 282.644611 190.285307 
L 282.644611 186.452911 
L 283.789548 186.452911 
L 283.789548 182.620515 
L 284.18836 182.620515 
L 284.219206 174.955723 
L 285.250186 174.955723 
L 285.250186 171.123327 
L 285.442859 171.123327 
L 285.442859 167.290931 
L 285.918214 167.290931 
L 285.918214 163.458535 
L 286.32078 163.458535 
L 286.32078 159.626139 
L 287.375802 159.626139 
L 287.375802 155.793743 
L 287.494794 155.793743 
L 287.494794 151.961347 
L 287.82491 151.961347 
L 287.82491 148.12895 
L 289.151425 148.12895 
L 289.151425 144.296554 
L 289.764139 144.296554 
L 289.764139 140.464158 
L 290.03638 140.464158 
L 290.03638 136.631762 
L 291.380577 136.631762 
L 291.380577 132.799366 
L 291.745761 132.799366 
L 291.790264 125.134574 
L 292.993483 125.134574 
L 292.993483 121.302178 
L 293.642354 121.302178 
L 293.642354 117.469782 
L 301.059985 117.469782 
L 301.059985 113.637386 
L 307.330364 113.637386 
L 307.330364 109.80499 
L 311.777345 109.80499 
L 311.777345 105.972594 
L 314.827445 105.972594 
L 314.827445 102.140198 
L 322.246576 102.140198 
L 322.246576 98.307802 
L 322.778575 98.307802 
L 322.778575 94.475406 
L 323.285478 94.475406 
L 323.285478 90.64301 
L 324.246907 90.64301 
L 324.246907 86.810614 
L 324.734299 86.810614 
L 324.734299 82.978218 
L 324.901081 82.978218 
L 324.901081 79.145822 
L 334.676294 79.145822 
L 334.676294 75.313426 
L 337.482887 75.313426 
L 337.482887 71.48103 
L 337.759009 71.48103 
L 337.759009 67.648634 
L 338.085756 67.648634 
L 338.085756 63.816238 
L 455.529335 63.816238 
L 455.529335 59.983842 
L 461.8 59.983842 
L 461.8 59.983842 
" clip-path="url(#p4b9dc004a6)" style="fill: none; stroke: #f5deb3; stroke-width: 1.5; stroke-linecap: square"/>
   </g>
   <g id="line2d_8"/>
   <g id="line2d_9">
    <path d="M 268.245886 293.76 
L 268.245886 289.927604 
L 268.512703 289.927604 
L 268.512703 286.095208 
L 268.653397 286.095208 
L 268.653397 282.262812 
L 268.795482 282.262812 
L 268.795482 278.430416 
L 269.075713 278.430416 
L 269.075713 274.59802 
L 269.239853 274.59802 
L 269.239853 270.765624 
L 269.531951 270.765624 
L 269.640538 263.100832 
L 269.766419 263.100832 
L 269.868323 251.603644 
L 269.923056 251.603644 
L 269.936724 240.106455 
L 270.274563 240.106455 
L 270.274563 236.274059 
L 272.421405 236.274059 
L 272.421405 232.441663 
L 275.432027 232.441663 
L 275.432027 228.609267 
L 275.80604 228.609267 
L 275.864176 217.112079 
L 276.044352 217.112079 
L 276.118052 209.447287 
L 276.26015 209.447287 
L 276.298358 197.950099 
L 276.379394 197.950099 
L 276.487114 190.285307 
L 276.951716 190.285307 
L 276.951716 186.452911 
L 277.121069 186.452911 
L 277.121069 182.620515 
L 277.438633 182.620515 
L 277.545809 174.955723 
L 277.806082 174.955723 
L 277.806082 171.123327 
L 278.588864 171.123327 
L 278.588864 167.290931 
L 278.739259 167.290931 
L 278.739259 163.458535 
L 279.486259 163.458535 
L 279.486259 159.626139 
L 280.215734 159.626139 
L 280.215734 155.793743 
L 280.712506 155.793743 
L 280.712506 151.961347 
L 280.837876 151.961347 
L 280.837876 148.12895 
L 281.078923 148.12895 
L 281.123912 140.464158 
L 281.190595 140.464158 
L 281.190595 136.631762 
L 281.476114 136.631762 
L 281.476114 132.799366 
L 281.71362 132.799366 
L 281.788387 121.302178 
L 281.997048 121.302178 
L 282.032791 113.637386 
L 282.177991 113.637386 
L 282.177991 109.80499 
L 282.336931 109.80499 
L 282.336931 105.972594 
L 282.508095 105.972594 
L 282.508095 102.140198 
L 285.634345 102.140198 
L 285.664968 94.475406 
L 288.510284 94.475406 
L 288.510284 90.64301 
L 288.853232 90.64301 
L 288.853232 86.810614 
L 292.135403 86.810614 
L 292.135403 82.978218 
L 294.047759 82.978218 
L 294.107937 75.313426 
L 297.151169 75.313426 
L 297.151169 71.48103 
L 298.3303 71.48103 
L 298.3303 67.648634 
L 301.307983 67.648634 
L 301.307983 63.816238 
L 303.740238 63.816238 
L 303.740238 59.983842 
L 307.265781 59.983842 
L 307.265781 56.151446 
L 308.59633 56.151446 
L 308.59633 52.31905 
L 308.754164 52.31905 
L 308.754164 48.486653 
L 309.239468 48.486653 
L 309.239468 44.654257 
L 309.472467 44.654257 
L 309.472467 40.821861 
L 319.157858 40.821861 
L 319.157858 36.989465 
L 327.007772 36.989465 
L 327.007772 33.157069 
L 336.979512 33.157069 
L 336.979512 29.324673 
L 338.978978 29.324673 
L 338.978978 25.492277 
L 339.516311 25.492277 
L 339.516311 21.659881 
L 339.817561 21.659881 
L 339.817561 17.827485 
L 340.443814 17.827485 
L 340.443814 13.995089 
L 342.15282 13.995089 
L 342.15282 10.162693 
L 342.702799 10.162693 
L 342.702799 6.330297 
L 342.702799 6.330297 
L 460.8 6.330297 
L 460.8 6.330297 
" clip-path="url(#p4b9dc004a6)" style="fill: none; stroke: #f5deb3; stroke-width: 1.5; stroke-linecap: square"/>
   </g>
   <g id="line2d_10"/>
   <g id="line2d_11">
    <path d="M 425.716767 293.76 
L 425.716767 289.927604 
L 461.8 289.927604 
" clip-path="url(#p4b9dc004a6)" style="fill: none; stroke: #f5deb3; stroke-width: 1.5; stroke-linecap: square"/>
   </g>
   <g id="line2d_12">
    <path d="M 333.32915 293.76 
L 333.32915 289.927604 
L 333.32915 289.927604 
L 333.32915 289.927604 
L 460.8 289.927604 
" clip-path="url(#p4b9dc004a6)" style="fill: none; stroke: #f5deb3; stroke-width: 1.5; stroke-linecap: square"/>
   </g>
   <g id="line2d_13"/>
   <g id="line2d_14"/>
   <g id="line2d_15"/>
   <g id="line2d_16">
    <path clip-path="url(#p4b9dc004a6)" style="fill: none; stroke: #f5deb3; stroke-width: 1.5; stroke-linecap: square"/>
   </g>
   <g id="line2d_17">
    <path d="M 360.526329 293.76 
L 360.526329 289.927604 
L 362.781105 289.927604 
L 362.781105 286.095208 
L 366.336712 286.095208 
L 366.336712 282.262812 
L 366.501602 282.262812 
L 366.501602 278.430416 
L 366.97869 278.430416 
L 366.97869 274.59802 
L 367.020527 274.59802 
L 367.020527 270.765624 
L 367.160523 270.765624 
L 367.160523 266.933228 
L 367.694091 266.933228 
L 367.694091 263.100832 
L 368.019356 263.100832 
L 368.019356 259.268436 
L 368.347933 259.268436 
L 368.347933 255.43604 
L 368.749172 255.43604 
L 368.749172 251.603644 
L 368.905833 251.603644 
L 368.905833 247.771248 
L 369.439418 247.771248 
L 369.439418 243.938851 
L 369.466387 243.938851 
L 369.466387 240.106455 
L 369.514698 240.106455 
L 369.514698 236.274059 
L 369.742526 236.274059 
L 369.742526 232.441663 
L 370.039429 232.441663 
L 370.039429 228.609267 
L 370.499118 228.609267 
L 370.499118 224.776871 
L 371.260491 224.776871 
L 371.260491 220.944475 
L 372.103328 220.944475 
L 372.103328 217.112079 
L 372.134142 217.112079 
L 372.134142 213.279683 
L 373.272742 213.279683 
L 373.272742 209.447287 
L 374.266351 209.447287 
L 374.266351 205.614891 
L 374.581021 205.614891 
L 374.581021 201.782495 
L 374.807871 201.782495 
L 374.807871 197.950099 
L 375.288927 197.950099 
L 375.288927 194.117703 
L 376.083575 194.117703 
L 376.083575 190.285307 
L 376.175934 190.285307 
L 376.175934 186.452911 
L 376.22889 186.452911 
L 376.22889 182.620515 
L 376.35805 182.620515 
L 376.35805 178.788119 
L 376.983125 178.788119 
L 376.983125 174.955723 
L 377.173872 174.955723 
L 377.173872 171.123327 
L 377.315303 171.123327 
L 377.315303 167.290931 
L 377.416645 167.290931 
L 377.416645 163.458535 
L 378.674276 163.458535 
L 378.674276 159.626139 
L 378.8955 159.626139 
L 378.8955 155.793743 
L 378.932882 155.793743 
L 378.932882 151.961347 
L 379.194765 151.961347 
L 379.194765 148.12895 
L 379.626316 148.12895 
L 379.626316 144.296554 
L 379.670679 144.296554 
L 379.670679 140.464158 
L 379.916787 140.464158 
L 379.916787 136.631762 
L 380.596751 136.631762 
L 380.596751 132.799366 
L 380.729672 132.799366 
L 380.729672 128.96697 
L 381.430349 128.96697 
L 381.430349 125.134574 
L 382.684792 125.134574 
L 382.684792 121.302178 
L 383.027808 121.302178 
L 383.027808 117.469782 
L 387.336827 117.469782 
L 387.336827 113.637386 
L 388.338606 113.637386 
L 388.338606 109.80499 
L 388.46875 109.80499 
L 388.46875 105.972594 
L 388.473972 105.972594 
L 388.473972 102.140198 
L 388.672234 102.140198 
L 388.672234 98.307802 
L 388.784462 98.307802 
L 388.784462 94.475406 
L 389.707956 94.475406 
L 389.707956 90.64301 
L 390.084458 90.64301 
L 390.084458 86.810614 
L 390.323775 86.810614 
L 390.323775 82.978218 
L 390.586112 82.978218 
L 390.586112 79.145822 
L 391.823966 79.145822 
L 391.823966 75.313426 
L 392.1571 75.313426 
L 392.1571 71.48103 
L 392.315665 71.48103 
L 392.315665 67.648634 
L 392.641071 67.648634 
L 392.641071 63.816238 
L 392.641071 63.816238 
L 392.641071 63.816238 
L 460.8 63.816238 
" clip-path="url(#p4b9dc004a6)" style="fill: none; stroke: #f5deb3; stroke-width: 1.5; stroke-linecap: square"/>
   </g>
   <g id="line2d_18">
    <path d="M 250.910283 293.76 
L 250.910283 289.927604 
L 255.60234 289.927604 
L 255.60234 286.095208 
L 256.765836 286.095208 
L 256.765836 282.262812 
L 257.482081 282.262812 
L 257.482081 278.430416 
L 257.728775 278.430416 
L 257.728775 274.59802 
L 259.14159 274.59802 
L 259.14159 270.765624 
L 263.123922 270.765624 
L 263.123922 266.933228 
L 266.63414 266.933228 
L 266.63414 263.100832 
L 266.815965 263.100832 
L 266.815965 259.268436 
L 266.856945 259.268436 
L 266.856945 255.43604 
L 270.662216 255.43604 
L 270.662216 251.603644 
L 274.229547 251.603644 
L 274.229547 247.771248 
L 276.41904 247.771248 
L 276.41904 243.938851 
L 278.820054 243.938851 
L 278.820054 240.106455 
L 284.719558 240.106455 
L 284.719558 236.274059 
L 324.190686 236.274059 
L 324.190686 232.441663 
L 324.789212 232.441663 
L 324.789212 228.609267 
L 325.94536 228.609267 
L 325.94536 224.776871 
L 326.162495 224.776871 
L 326.162495 220.944475 
L 327.37442 220.944475 
L 327.37442 217.112079 
L 327.550321 217.112079 
L 327.550321 213.279683 
L 327.725536 213.279683 
L 327.725536 209.447287 
L 328.084769 209.447287 
L 328.084769 205.614891 
L 328.12927 205.614891 
L 328.12927 201.782495 
L 328.522787 201.782495 
L 328.522787 197.950099 
L 328.894973 197.950099 
L 328.894973 194.117703 
L 328.990689 194.117703 
L 328.990689 190.285307 
L 329.101258 190.285307 
L 329.101258 186.452911 
L 329.14113 186.452911 
L 329.14113 182.620515 
L 329.408719 182.620515 
L 329.408719 178.788119 
L 329.460004 178.788119 
L 329.460004 174.955723 
L 329.738003 174.955723 
L 329.738003 171.123327 
L 329.929716 171.123327 
L 329.929716 167.290931 
L 329.950126 167.290931 
L 329.950126 163.458535 
L 330.651733 163.458535 
L 330.651733 159.626139 
L 330.674997 159.626139 
L 330.674997 155.793743 
L 333.963974 155.793743 
L 333.963974 151.961347 
L 337.853878 151.961347 
L 337.853878 148.12895 
L 346.413065 148.12895 
L 346.413065 144.296554 
L 351.650213 144.296554 
L 351.650213 140.464158 
L 352.081292 140.464158 
L 352.081292 136.631762 
L 353.834059 136.631762 
L 353.834059 132.799366 
L 366.531242 132.799366 
L 366.531242 128.96697 
L 381.603873 128.96697 
L 381.603873 125.134574 
L 390.269282 125.134574 
L 390.269282 121.302178 
L 390.269282 121.302178 
L 390.269282 121.302178 
L 460.8 121.302178 
" clip-path="url(#p4b9dc004a6)" style="fill: none; stroke: #f5deb3; stroke-width: 1.5; stroke-linecap: square"/>
   </g>
   <g id="line2d_19"/>
   <g id="line2d_20"/>
   <g id="line2d_21"/>
   <g id="line2d_22"/>
   <g id="line2d_23"/>
   <g id="line2d_24">
    <path d="M 284.05351 293.76 
L 284.05351 289.927604 
L 285.080312 289.927604 
L 285.080312 286.095208 
L 285.77895 286.095208 
L 285.77895 282.262812 
L 286.304639 282.262812 
L 286.304639 278.430416 
L 286.767098 278.430416 
L 286.767098 274.59802 
L 288.353041 274.59802 
L 288.353041 270.765624 
L 288.848982 270.765624 
L 288.848982 266.933228 
L 289.154582 266.933228 
L 289.202948 259.268436 
L 289.776519 259.268436 
L 289.776519 255.43604 
L 290.40446 255.43604 
L 290.40446 251.603644 
L 291.30113 251.603644 
L 291.341369 243.938851 
L 291.765118 243.938851 
L 291.776726 236.274059 
L 292.338383 236.274059 
L 292.338383 232.441663 
L 293.114155 232.441663 
L 293.161369 224.776871 
L 293.332033 224.776871 
L 293.34491 217.112079 
L 294.137535 217.112079 
L 294.137535 213.279683 
L 294.367965 213.279683 
L 294.367965 209.447287 
L 294.841298 209.447287 
L 294.934058 197.950099 
L 295.198561 197.950099 
L 295.198561 194.117703 
L 295.873888 194.117703 
L 295.946711 186.452911 
L 295.998261 186.452911 
L 295.998261 182.620515 
L 296.319157 182.620515 
L 296.319157 178.788119 
L 296.467561 178.788119 
L 296.467561 174.955723 
L 297.55295 174.955723 
L 297.55295 171.123327 
L 297.982895 171.123327 
L 297.982895 167.290931 
L 298.283261 167.290931 
L 298.283261 163.458535 
L 298.426507 163.458535 
L 298.523196 155.793743 
L 298.814557 155.793743 
L 298.814557 151.961347 
L 300.270063 151.961347 
L 300.281837 144.296554 
L 300.717994 144.296554 
L 300.717994 140.464158 
L 301.415996 140.464158 
L 301.415996 136.631762 
L 302.156912 136.631762 
L 302.203287 128.96697 
L 302.561562 128.96697 
L 302.561562 125.134574 
L 302.945485 125.134574 
L 302.945485 121.302178 
L 307.632703 121.302178 
L 307.632703 117.469782 
L 307.827832 117.469782 
L 307.827832 113.637386 
L 308.308944 113.637386 
L 308.308944 109.80499 
L 308.531504 109.80499 
L 308.541096 102.140198 
L 309.053025 102.140198 
L 309.053025 98.307802 
L 309.210772 98.307802 
L 309.210772 94.475406 
L 309.647166 94.475406 
L 309.647166 90.64301 
L 310.222686 90.64301 
L 310.246726 82.978218 
L 311.037074 82.978218 
L 311.037074 79.145822 
L 311.156065 79.145822 
L 311.177839 71.48103 
L 312.51927 71.48103 
L 312.51927 67.648634 
L 315.972103 67.648634 
L 315.972103 63.816238 
L 322.954022 63.816238 
L 322.954022 59.983842 
L 329.890559 59.983842 
L 329.890559 56.151446 
L 330.401935 56.151446 
L 330.401935 52.31905 
L 332.625242 52.31905 
L 332.67201 44.654257 
L 333.094402 44.654257 
L 333.094402 40.821861 
L 333.298885 40.821861 
L 333.298885 36.989465 
L 333.578535 36.989465 
L 333.578535 33.157069 
L 333.839692 33.157069 
L 333.848943 25.492277 
L 334.143527 25.492277 
L 334.143527 21.659881 
L 337.037326 21.659881 
L 337.037326 17.827485 
L 337.21349 17.827485 
L 337.21349 13.995089 
L 337.878044 13.995089 
L 337.878044 10.162693 
L 338.50266 10.162693 
L 338.50266 6.330297 
L 338.50266 6.330297 
L 460.8 6.330297 
L 460.8 6.330297 
" clip-path="url(#p4b9dc004a6)" style="fill: none; stroke: #f5deb3; stroke-width: 1.5; stroke-linecap: square"/>
   </g>
   <g id="line2d_25"/>
   <g id="line2d_26">
    <path d="M 287.996856 293.76 
L 287.996856 289.927604 
L 301.125214 289.927604 
L 301.125214 286.095208 
L 301.191734 286.095208 
L 301.191734 282.262812 
L 305.005703 282.262812 
L 305.005703 278.430416 
L 307.062349 278.430416 
L 307.062349 274.59802 
L 307.562342 274.59802 
L 307.562342 270.765624 
L 308.625036 270.765624 
L 308.625036 266.933228 
L 308.772088 266.933228 
L 308.772088 263.100832 
L 308.812936 263.100832 
L 308.812936 259.268436 
L 309.164915 259.268436 
L 309.164915 255.43604 
L 309.251049 255.43604 
L 309.251049 251.603644 
L 309.716228 251.603644 
L 309.716228 247.771248 
L 309.799768 247.771248 
L 309.799768 243.938851 
L 309.849568 243.938851 
L 309.849568 240.106455 
L 309.904148 240.106455 
L 309.904148 236.274059 
L 310.234441 236.274059 
L 310.234441 232.441663 
L 310.326724 232.441663 
L 310.326724 228.609267 
L 310.409173 228.609267 
L 310.409173 224.776871 
L 310.930688 224.776871 
L 310.930688 220.944475 
L 311.472364 220.944475 
L 311.472364 217.112079 
L 311.911263 217.112079 
L 311.911263 213.279683 
L 311.918349 213.279683 
L 311.918349 209.447287 
L 311.974976 209.447287 
L 311.974976 205.614891 
L 312.746276 205.614891 
L 312.746276 201.782495 
L 312.822069 201.782495 
L 312.822069 197.950099 
L 312.864805 197.950099 
L 312.864805 194.117703 
L 312.963318 194.117703 
L 312.963318 190.285307 
L 313.865647 190.285307 
L 313.865647 186.452911 
L 314.182506 186.452911 
L 314.182506 182.620515 
L 315.687399 182.620515 
L 315.687399 178.788119 
L 316.068347 178.788119 
L 316.068347 174.955723 
L 316.882595 174.955723 
L 316.882595 171.123327 
L 318.624043 171.123327 
L 318.624043 167.290931 
L 318.697785 167.290931 
L 318.697785 163.458535 
L 323.211305 163.458535 
L 323.211305 159.626139 
L 326.101619 159.626139 
L 326.101619 155.793743 
L 332.653311 155.793743 
L 332.653311 151.961347 
L 336.761748 151.961347 
L 336.761748 148.12895 
L 338.575326 148.12895 
L 338.575326 144.296554 
L 339.785976 144.296554 
L 339.785976 140.464158 
L 339.852617 140.464158 
L 339.852617 136.631762 
L 340.99201 136.631762 
L 340.99201 132.799366 
L 341.056118 132.799366 
L 341.056118 128.96697 
L 341.26361 128.96697 
L 341.26361 125.134574 
L 342.539713 125.134574 
L 342.539713 121.302178 
L 348.516294 121.302178 
L 348.516294 117.469782 
L 348.831025 117.469782 
L 348.831025 113.637386 
L 349.288861 113.637386 
L 349.288861 109.80499 
L 355.315546 109.80499 
L 355.315546 105.972594 
L 355.937644 105.972594 
L 355.937644 102.140198 
L 356.536936 102.140198 
L 356.536936 98.307802 
L 357.030855 98.307802 
L 357.030855 94.475406 
L 366.589391 94.475406 
L 366.589391 90.64301 
L 373.024653 90.64301 
L 373.024653 86.810614 
L 399.537366 86.810614 
L 399.537366 82.978218 
L 403.298703 82.978218 
L 403.298703 79.145822 
L 404.18948 79.145822 
L 404.18948 75.313426 
L 406.429617 75.313426 
L 406.429617 71.48103 
L 413.043354 71.48103 
L 413.043354 67.648634 
L 413.043354 67.648634 
L 413.043354 67.648634 
L 460.8 67.648634 
" clip-path="url(#p4b9dc004a6)" style="fill: none; stroke: #f5deb3; stroke-width: 1.5; stroke-linecap: square"/>
   </g>
   <g id="line2d_27">
    <path d="M 264.421031 293.76 
L 264.421031 289.927604 
L 264.609276 289.927604 
L 264.609276 286.095208 
L 264.927388 286.095208 
L 264.927388 282.262812 
L 265.549517 282.262812 
L 265.549517 278.430416 
L 266.218904 278.430416 
L 266.218904 274.59802 
L 269.399158 274.59802 
L 269.399158 270.765624 
L 271.069577 270.765624 
L 271.069577 266.933228 
L 272.146246 266.933228 
L 272.146246 263.100832 
L 274.85077 263.100832 
L 274.85077 259.268436 
L 275.073327 259.268436 
L 275.073327 255.43604 
L 279.676661 255.43604 
L 279.676661 251.603644 
L 280.329145 251.603644 
L 280.329145 247.771248 
L 282.019558 247.771248 
L 282.019558 243.938851 
L 283.400752 243.938851 
L 283.400752 240.106455 
L 284.547973 240.106455 
L 284.547973 236.274059 
L 330.149269 236.274059 
L 330.149269 232.441663 
L 333.114373 232.441663 
L 333.114373 228.609267 
L 333.691554 228.609267 
L 333.691554 224.776871 
L 333.704867 224.776871 
L 333.704867 220.944475 
L 333.913123 220.944475 
L 333.913123 217.112079 
L 334.058474 217.112079 
L 334.058474 213.279683 
L 334.721295 213.279683 
L 334.721295 209.447287 
L 335.223295 209.447287 
L 335.223295 205.614891 
L 335.433538 205.614891 
L 335.433538 201.782495 
L 335.580955 201.782495 
L 335.580955 197.950099 
L 336.324592 197.950099 
L 336.324592 194.117703 
L 336.893496 194.117703 
L 336.893496 190.285307 
L 337.643279 190.285307 
L 337.643279 186.452911 
L 337.750631 186.452911 
L 337.750631 182.620515 
L 339.489216 182.620515 
L 339.489216 178.788119 
L 347.442764 178.788119 
L 347.442764 174.955723 
L 364.650855 174.955723 
L 364.650855 171.123327 
L 367.300744 171.123327 
L 367.300744 167.290931 
L 368.180142 167.290931 
L 368.180142 163.458535 
L 369.944117 163.458535 
L 369.944117 159.626139 
L 370.937704 159.626139 
L 370.937704 155.793743 
L 371.039322 155.793743 
L 371.039322 151.961347 
L 372.041754 151.961347 
L 372.041754 148.12895 
L 372.305834 148.12895 
L 372.305834 144.296554 
L 372.516692 144.296554 
L 372.516692 140.464158 
L 372.613072 140.464158 
L 372.613072 136.631762 
L 372.615731 136.631762 
L 372.615731 132.799366 
L 377.603963 132.799366 
L 377.603963 128.96697 
L 377.866367 128.96697 
L 377.866367 125.134574 
L 378.423937 125.134574 
L 378.423937 121.302178 
L 382.790659 121.302178 
L 382.790659 117.469782 
L 382.790659 117.469782 
L 382.790659 117.469782 
L 460.8 117.469782 
" clip-path="url(#p4b9dc004a6)" style="fill: none; stroke: #f5deb3; stroke-width: 1.5; stroke-linecap: square"/>
   </g>
   <g id="line2d_28">
    <path d="M 268.436995 293.76 
L 268.49226 286.095208 
L 268.600456 286.095208 
L 268.600456 282.262812 
L 268.858199 282.262812 
L 268.902631 274.59802 
L 269.12184 274.59802 
L 269.12184 270.765624 
L 269.243845 270.765624 
L 269.243845 266.933228 
L 269.754639 266.933228 
L 269.848752 259.268436 
L 269.889837 259.268436 
L 269.889837 255.43604 
L 270.449797 255.43604 
L 270.449797 251.603644 
L 270.747921 251.603644 
L 270.747921 247.771248 
L 271.17481 247.771248 
L 271.234784 236.274059 
L 271.359981 236.274059 
L 271.359981 232.441663 
L 271.59777 232.441663 
L 271.59777 228.609267 
L 272.031483 228.609267 
L 272.031483 224.776871 
L 272.414195 224.776871 
L 272.414195 220.944475 
L 272.541923 220.944475 
L 272.541923 217.112079 
L 273.17457 217.112079 
L 273.17457 213.279683 
L 273.41988 213.279683 
L 273.41988 209.447287 
L 273.820457 209.447287 
L 273.820457 205.614891 
L 274.096627 205.614891 
L 274.096627 201.782495 
L 274.550968 201.782495 
L 274.550968 197.950099 
L 275.546334 197.950099 
L 275.578917 190.285307 
L 275.880306 190.285307 
L 275.991373 182.620515 
L 276.551884 182.620515 
L 276.551884 178.788119 
L 277.317232 178.788119 
L 277.351087 171.123327 
L 277.83941 171.123327 
L 277.902937 155.793743 
L 278.675946 155.793743 
L 278.675946 151.961347 
L 278.872824 151.961347 
L 278.872824 148.12895 
L 279.183229 148.12895 
L 279.183229 144.296554 
L 279.440273 144.296554 
L 279.440273 140.464158 
L 279.786363 140.464158 
L 279.796317 132.799366 
L 280.676594 132.799366 
L 280.676594 128.96697 
L 281.106197 128.96697 
L 281.106197 125.134574 
L 282.231937 125.134574 
L 282.231937 121.302178 
L 288.544642 121.302178 
L 288.544642 117.469782 
L 288.908434 117.469782 
L 288.908434 113.637386 
L 289.733169 113.637386 
L 289.733169 109.80499 
L 290.107896 109.80499 
L 290.107896 105.972594 
L 290.264656 105.972594 
L 290.264656 102.140198 
L 290.888885 102.140198 
L 290.888885 98.307802 
L 291.109034 98.307802 
L 291.109034 94.475406 
L 291.489119 94.475406 
L 291.489119 90.64301 
L 292.035812 90.64301 
L 292.035812 86.810614 
L 292.244205 86.810614 
L 292.244205 82.978218 
L 293.202968 82.978218 
L 293.202968 79.145822 
L 294.805345 79.145822 
L 294.805345 75.313426 
L 294.924445 75.313426 
L 294.924445 71.48103 
L 297.811311 71.48103 
L 297.811311 67.648634 
L 298.565208 67.648634 
L 298.565208 63.816238 
L 301.742014 63.816238 
L 301.742014 59.983842 
L 302.806733 59.983842 
L 302.806733 56.151446 
L 307.18221 56.151446 
L 307.18221 52.31905 
L 307.892988 52.31905 
L 307.892988 48.486653 
L 308.721091 48.486653 
L 308.786083 40.821861 
L 308.845912 40.821861 
L 308.845912 36.989465 
L 309.189233 36.989465 
L 309.189233 33.157069 
L 309.305038 33.157069 
L 309.305038 29.324673 
L 310.49935 29.324673 
L 310.546457 21.659881 
L 312.189424 21.659881 
L 312.189424 17.827485 
L 313.136062 17.827485 
L 313.136062 13.995089 
L 314.216365 13.995089 
L 314.216365 10.162693 
L 315.002999 10.162693 
L 315.002999 6.330297 
L 315.002999 6.330297 
L 460.8 6.330297 
L 460.8 6.330297 
" clip-path="url(#p4b9dc004a6)" style="fill: none; stroke: #f5deb3; stroke-width: 1.5; stroke-linecap: square"/>
   </g>
   <g id="line2d_29"/>
   <g id="line2d_30"/>
   <g id="matplotlib.axis_1">
    <g id="xtick_1">
     <g id="line2d_31">
      <path d="M 62.208 293.76 
L 62.208 3.456 
" clip-path="url(#p4b9dc004a6)" style="fill: none; stroke: #b0b0b0; stroke-width: 0.8; stroke-linecap: square"/>
     </g>
     <g id="line2d_32">
      <defs>
       <path id="md93e080f93" d="M 0 0 
L 0 3.5 
" style="stroke: #000000; stroke-width: 0.8"/>
      </defs>
      <g>
       <use xlink:href="#md93e080f93" x="62.208" y="293.76" style="stroke: #000000; stroke-width: 0.8"/>
      </g>
     </g>
     <g id="text_1">
      <!-- 0 -->
      <g transform="translate(55.8455 315.956875)scale(0.2 -0.2)">
       <defs>
        <path id="DejaVuSans-30" d="M 2034 4250 
Q 1547 4250 1301 3770 
Q 1056 3291 1056 2328 
Q 1056 1369 1301 889 
Q 1547 409 2034 409 
Q 2525 409 2770 889 
Q 3016 1369 3016 2328 
Q 3016 3291 2770 3770 
Q 2525 4250 2034 4250 
z
M 2034 4750 
Q 2819 4750 3233 4129 
Q 3647 3509 3647 2328 
Q 3647 1150 3233 529 
Q 2819 -91 2034 -91 
Q 1250 -91 836 529 
Q 422 1150 422 2328 
Q 422 3509 836 4129 
Q 1250 4750 2034 4750 
z
" transform="scale(0.015625)"/>
       </defs>
       <use xlink:href="#DejaVuSans-30"/>
      </g>
     </g>
    </g>
    <g id="xtick_2">
     <g id="line2d_33">
      <path d="M 205.411981 293.76 
L 205.411981 3.456 
" clip-path="url(#p4b9dc004a6)" style="fill: none; stroke: #b0b0b0; stroke-width: 0.8; stroke-linecap: square"/>
     </g>
     <g id="line2d_34">
      <g>
       <use xlink:href="#md93e080f93" x="205.411981" y="293.76" style="stroke: #000000; stroke-width: 0.8"/>
      </g>
     </g>
     <g id="text_2">
      <!-- 2 -->
      <g transform="translate(199.049481 315.956875)scale(0.2 -0.2)">
       <defs>
        <path id="DejaVuSans-32" d="M 1228 531 
L 3431 531 
L 3431 0 
L 469 0 
L 469 531 
Q 828 903 1448 1529 
Q 2069 2156 2228 2338 
Q 2531 2678 2651 2914 
Q 2772 3150 2772 3378 
Q 2772 3750 2511 3984 
Q 2250 4219 1831 4219 
Q 1534 4219 1204 4116 
Q 875 4013 500 3803 
L 500 4441 
Q 881 4594 1212 4672 
Q 1544 4750 1819 4750 
Q 2544 4750 2975 4387 
Q 3406 4025 3406 3419 
Q 3406 3131 3298 2873 
Q 3191 2616 2906 2266 
Q 2828 2175 2409 1742 
Q 1991 1309 1228 531 
z
" transform="scale(0.015625)"/>
       </defs>
       <use xlink:href="#DejaVuSans-32"/>
      </g>
     </g>
    </g>
    <g id="xtick_3">
     <g id="line2d_35">
      <path d="M 348.615962 293.76 
L 348.615962 3.456 
" clip-path="url(#p4b9dc004a6)" style="fill: none; stroke: #b0b0b0; stroke-width: 0.8; stroke-linecap: square"/>
     </g>
     <g id="line2d_36">
      <g>
       <use xlink:href="#md93e080f93" x="348.615962" y="293.76" style="stroke: #000000; stroke-width: 0.8"/>
      </g>
     </g>
     <g id="text_3">
      <!-- 4 -->
      <g transform="translate(342.253462 315.956875)scale(0.2 -0.2)">
       <defs>
        <path id="DejaVuSans-34" d="M 2419 4116 
L 825 1625 
L 2419 1625 
L 2419 4116 
z
M 2253 4666 
L 3047 4666 
L 3047 1625 
L 3713 1625 
L 3713 1100 
L 3047 1100 
L 3047 0 
L 2419 0 
L 2419 1100 
L 313 1100 
L 313 1709 
L 2253 4666 
z
" transform="scale(0.015625)"/>
       </defs>
       <use xlink:href="#DejaVuSans-34"/>
      </g>
     </g>
    </g>
    <g id="text_4">
     <!-- log10 of FEvals / DIM -->
     <g transform="translate(156.430563 339.313125)scale(0.2 -0.2)">
      <defs>
       <path id="DejaVuSans-6c" d="M 603 4863 
L 1178 4863 
L 1178 0 
L 603 0 
L 603 4863 
z
" transform="scale(0.015625)"/>
       <path id="DejaVuSans-6f" d="M 1959 3097 
Q 1497 3097 1228 2736 
Q 959 2375 959 1747 
Q 959 1119 1226 758 
Q 1494 397 1959 397 
Q 2419 397 2687 759 
Q 2956 1122 2956 1747 
Q 2956 2369 2687 2733 
Q 2419 3097 1959 3097 
z
M 1959 3584 
Q 2709 3584 3137 3096 
Q 3566 2609 3566 1747 
Q 3566 888 3137 398 
Q 2709 -91 1959 -91 
Q 1206 -91 779 398 
Q 353 888 353 1747 
Q 353 2609 779 3096 
Q 1206 3584 1959 3584 
z
" transform="scale(0.015625)"/>
       <path id="DejaVuSans-67" d="M 2906 1791 
Q 2906 2416 2648 2759 
Q 2391 3103 1925 3103 
Q 1463 3103 1205 2759 
Q 947 2416 947 1791 
Q 947 1169 1205 825 
Q 1463 481 1925 481 
Q 2391 481 2648 825 
Q 2906 1169 2906 1791 
z
M 3481 434 
Q 3481 -459 3084 -895 
Q 2688 -1331 1869 -1331 
Q 1566 -1331 1297 -1286 
Q 1028 -1241 775 -1147 
L 775 -588 
Q 1028 -725 1275 -790 
Q 1522 -856 1778 -856 
Q 2344 -856 2625 -561 
Q 2906 -266 2906 331 
L 2906 616 
Q 2728 306 2450 153 
Q 2172 0 1784 0 
Q 1141 0 747 490 
Q 353 981 353 1791 
Q 353 2603 747 3093 
Q 1141 3584 1784 3584 
Q 2172 3584 2450 3431 
Q 2728 3278 2906 2969 
L 2906 3500 
L 3481 3500 
L 3481 434 
z
" transform="scale(0.015625)"/>
       <path id="DejaVuSans-31" d="M 794 531 
L 1825 531 
L 1825 4091 
L 703 3866 
L 703 4441 
L 1819 4666 
L 2450 4666 
L 2450 531 
L 3481 531 
L 3481 0 
L 794 0 
L 794 531 
z
" transform="scale(0.015625)"/>
       <path id="DejaVuSans-20" transform="scale(0.015625)"/>
       <path id="DejaVuSans-66" d="M 2375 4863 
L 2375 4384 
L 1825 4384 
Q 1516 4384 1395 4259 
Q 1275 4134 1275 3809 
L 1275 3500 
L 2222 3500 
L 2222 3053 
L 1275 3053 
L 1275 0 
L 697 0 
L 697 3053 
L 147 3053 
L 147 3500 
L 697 3500 
L 697 3744 
Q 697 4328 969 4595 
Q 1241 4863 1831 4863 
L 2375 4863 
z
" transform="scale(0.015625)"/>
       <path id="DejaVuSans-46" d="M 628 4666 
L 3309 4666 
L 3309 4134 
L 1259 4134 
L 1259 2759 
L 3109 2759 
L 3109 2228 
L 1259 2228 
L 1259 0 
L 628 0 
L 628 4666 
z
" transform="scale(0.015625)"/>
       <path id="DejaVuSans-45" d="M 628 4666 
L 3578 4666 
L 3578 4134 
L 1259 4134 
L 1259 2753 
L 3481 2753 
L 3481 2222 
L 1259 2222 
L 1259 531 
L 3634 531 
L 3634 0 
L 628 0 
L 628 4666 
z
" transform="scale(0.015625)"/>
       <path id="DejaVuSans-76" d="M 191 3500 
L 800 3500 
L 1894 563 
L 2988 3500 
L 3597 3500 
L 2284 0 
L 1503 0 
L 191 3500 
z
" transform="scale(0.015625)"/>
       <path id="DejaVuSans-61" d="M 2194 1759 
Q 1497 1759 1228 1600 
Q 959 1441 959 1056 
Q 959 750 1161 570 
Q 1363 391 1709 391 
Q 2188 391 2477 730 
Q 2766 1069 2766 1631 
L 2766 1759 
L 2194 1759 
z
M 3341 1997 
L 3341 0 
L 2766 0 
L 2766 531 
Q 2569 213 2275 61 
Q 1981 -91 1556 -91 
Q 1019 -91 701 211 
Q 384 513 384 1019 
Q 384 1609 779 1909 
Q 1175 2209 1959 2209 
L 2766 2209 
L 2766 2266 
Q 2766 2663 2505 2880 
Q 2244 3097 1772 3097 
Q 1472 3097 1187 3025 
Q 903 2953 641 2809 
L 641 3341 
Q 956 3463 1253 3523 
Q 1550 3584 1831 3584 
Q 2591 3584 2966 3190 
Q 3341 2797 3341 1997 
z
" transform="scale(0.015625)"/>
       <path id="DejaVuSans-73" d="M 2834 3397 
L 2834 2853 
Q 2591 2978 2328 3040 
Q 2066 3103 1784 3103 
Q 1356 3103 1142 2972 
Q 928 2841 928 2578 
Q 928 2378 1081 2264 
Q 1234 2150 1697 2047 
L 1894 2003 
Q 2506 1872 2764 1633 
Q 3022 1394 3022 966 
Q 3022 478 2636 193 
Q 2250 -91 1575 -91 
Q 1294 -91 989 -36 
Q 684 19 347 128 
L 347 722 
Q 666 556 975 473 
Q 1284 391 1588 391 
Q 1994 391 2212 530 
Q 2431 669 2431 922 
Q 2431 1156 2273 1281 
Q 2116 1406 1581 1522 
L 1381 1569 
Q 847 1681 609 1914 
Q 372 2147 372 2553 
Q 372 3047 722 3315 
Q 1072 3584 1716 3584 
Q 2034 3584 2315 3537 
Q 2597 3491 2834 3397 
z
" transform="scale(0.015625)"/>
       <path id="DejaVuSans-2f" d="M 1625 4666 
L 2156 4666 
L 531 -594 
L 0 -594 
L 1625 4666 
z
" transform="scale(0.015625)"/>
       <path id="DejaVuSans-44" d="M 1259 4147 
L 1259 519 
L 2022 519 
Q 2988 519 3436 956 
Q 3884 1394 3884 2338 
Q 3884 3275 3436 3711 
Q 2988 4147 2022 4147 
L 1259 4147 
z
M 628 4666 
L 1925 4666 
Q 3281 4666 3915 4102 
Q 4550 3538 4550 2338 
Q 4550 1131 3912 565 
Q 3275 0 1925 0 
L 628 0 
L 628 4666 
z
" transform="scale(0.015625)"/>
       <path id="DejaVuSans-49" d="M 628 4666 
L 1259 4666 
L 1259 0 
L 628 0 
L 628 4666 
z
" transform="scale(0.015625)"/>
       <path id="DejaVuSans-4d" d="M 628 4666 
L 1569 4666 
L 2759 1491 
L 3956 4666 
L 4897 4666 
L 4897 0 
L 4281 0 
L 4281 4097 
L 3078 897 
L 2444 897 
L 1241 4097 
L 1241 0 
L 628 0 
L 628 4666 
z
" transform="scale(0.015625)"/>
      </defs>
      <use xlink:href="#DejaVuSans-6c"/>
      <use xlink:href="#DejaVuSans-6f" x="27.783203"/>
      <use xlink:href="#DejaVuSans-67" x="88.964844"/>
      <use xlink:href="#DejaVuSans-31" x="152.441406"/>
      <use xlink:href="#DejaVuSans-30" x="216.064453"/>
      <use xlink:href="#DejaVuSans-20" x="279.6875"/>
      <use xlink:href="#DejaVuSans-6f" x="311.474609"/>
      <use xlink:href="#DejaVuSans-66" x="372.65625"/>
      <use xlink:href="#DejaVuSans-20" x="407.861328"/>
      <use xlink:href="#DejaVuSans-46" x="439.648438"/>
      <use xlink:href="#DejaVuSans-45" x="497.167969"/>
      <use xlink:href="#DejaVuSans-76" x="560.351562"/>
      <use xlink:href="#DejaVuSans-61" x="619.53125"/>
      <use xlink:href="#DejaVuSans-6c" x="680.810547"/>
      <use xlink:href="#DejaVuSans-73" x="708.59375"/>
      <use xlink:href="#DejaVuSans-20" x="760.693359"/>
      <use xlink:href="#DejaVuSans-2f" x="792.480469"/>
      <use xlink:href="#DejaVuSans-20" x="826.171875"/>
      <use xlink:href="#DejaVuSans-44" x="857.958984"/>
      <use xlink:href="#DejaVuSans-49" x="934.960938"/>
      <use xlink:href="#DejaVuSans-4d" x="964.453125"/>
     </g>
    </g>
   </g>
   <g id="matplotlib.axis_2">
    <g id="ytick_1">
     <g id="line2d_37">
      <path d="M 62.208 293.76 
L 460.8 293.76 
" clip-path="url(#p4b9dc004a6)" style="fill: none; stroke: #b0b0b0; stroke-width: 0.8; stroke-linecap: square"/>
     </g>
     <g id="line2d_38">
      <defs>
       <path id="mf01ba46f28" d="M 0 0 
L -3.5 0 
" style="stroke: #000000; stroke-width: 0.8"/>
      </defs>
      <g>
       <use xlink:href="#mf01ba46f28" x="62.208" y="293.76" style="stroke: #000000; stroke-width: 0.8"/>
      </g>
     </g>
     <g id="text_5">
      <!-- 0.0 -->
      <g transform="translate(29.763 299.83875)scale(0.16 -0.16)">
       <defs>
        <path id="DejaVuSans-2e" d="M 684 794 
L 1344 794 
L 1344 0 
L 684 0 
L 684 794 
z
" transform="scale(0.015625)"/>
       </defs>
       <use xlink:href="#DejaVuSans-30"/>
       <use xlink:href="#DejaVuSans-2e" x="63.623047"/>
       <use xlink:href="#DejaVuSans-30" x="95.410156"/>
      </g>
     </g>
    </g>
    <g id="ytick_2">
     <g id="line2d_39">
      <path d="M 62.208 236.274059 
L 460.8 236.274059 
" clip-path="url(#p4b9dc004a6)" style="fill: none; stroke: #b0b0b0; stroke-width: 0.8; stroke-linecap: square"/>
     </g>
     <g id="line2d_40">
      <g>
       <use xlink:href="#mf01ba46f28" x="62.208" y="236.274059" style="stroke: #000000; stroke-width: 0.8"/>
      </g>
     </g>
     <g id="text_6">
      <!-- 0.2 -->
      <g transform="translate(29.763 242.352809)scale(0.16 -0.16)">
       <use xlink:href="#DejaVuSans-30"/>
       <use xlink:href="#DejaVuSans-2e" x="63.623047"/>
       <use xlink:href="#DejaVuSans-32" x="95.410156"/>
      </g>
     </g>
    </g>
    <g id="ytick_3">
     <g id="line2d_41">
      <path d="M 62.208 178.788119 
L 460.8 178.788119 
" clip-path="url(#p4b9dc004a6)" style="fill: none; stroke: #b0b0b0; stroke-width: 0.8; stroke-linecap: square"/>
     </g>
     <g id="line2d_42">
      <g>
       <use xlink:href="#mf01ba46f28" x="62.208" y="178.788119" style="stroke: #000000; stroke-width: 0.8"/>
      </g>
     </g>
     <g id="text_7">
      <!-- 0.4 -->
      <g transform="translate(29.763 184.866869)scale(0.16 -0.16)">
       <use xlink:href="#DejaVuSans-30"/>
       <use xlink:href="#DejaVuSans-2e" x="63.623047"/>
       <use xlink:href="#DejaVuSans-34" x="95.410156"/>
      </g>
     </g>
    </g>
    <g id="ytick_4">
     <g id="line2d_43">
      <path d="M 62.208 121.302178 
L 460.8 121.302178 
" clip-path="url(#p4b9dc004a6)" style="fill: none; stroke: #b0b0b0; stroke-width: 0.8; stroke-linecap: square"/>
     </g>
     <g id="line2d_44">
      <g>
       <use xlink:href="#mf01ba46f28" x="62.208" y="121.302178" style="stroke: #000000; stroke-width: 0.8"/>
      </g>
     </g>
     <g id="text_8">
      <!-- 0.6 -->
      <g transform="translate(29.763 127.380928)scale(0.16 -0.16)">
       <defs>
        <path id="DejaVuSans-36" d="M 2113 2584 
Q 1688 2584 1439 2293 
Q 1191 2003 1191 1497 
Q 1191 994 1439 701 
Q 1688 409 2113 409 
Q 2538 409 2786 701 
Q 3034 994 3034 1497 
Q 3034 2003 2786 2293 
Q 2538 2584 2113 2584 
z
M 3366 4563 
L 3366 3988 
Q 3128 4100 2886 4159 
Q 2644 4219 2406 4219 
Q 1781 4219 1451 3797 
Q 1122 3375 1075 2522 
Q 1259 2794 1537 2939 
Q 1816 3084 2150 3084 
Q 2853 3084 3261 2657 
Q 3669 2231 3669 1497 
Q 3669 778 3244 343 
Q 2819 -91 2113 -91 
Q 1303 -91 875 529 
Q 447 1150 447 2328 
Q 447 3434 972 4092 
Q 1497 4750 2381 4750 
Q 2619 4750 2861 4703 
Q 3103 4656 3366 4563 
z
" transform="scale(0.015625)"/>
       </defs>
       <use xlink:href="#DejaVuSans-30"/>
       <use xlink:href="#DejaVuSans-2e" x="63.623047"/>
       <use xlink:href="#DejaVuSans-36" x="95.410156"/>
      </g>
     </g>
    </g>
    <g id="ytick_5">
     <g id="line2d_45">
      <path d="M 62.208 63.816238 
L 460.8 63.816238 
" clip-path="url(#p4b9dc004a6)" style="fill: none; stroke: #b0b0b0; stroke-width: 0.8; stroke-linecap: square"/>
     </g>
     <g id="line2d_46">
      <g>
       <use xlink:href="#mf01ba46f28" x="62.208" y="63.816238" style="stroke: #000000; stroke-width: 0.8"/>
      </g>
     </g>
     <g id="text_9">
      <!-- 0.8 -->
      <g transform="translate(29.763 69.894988)scale(0.16 -0.16)">
       <defs>
        <path id="DejaVuSans-38" d="M 2034 2216 
Q 1584 2216 1326 1975 
Q 1069 1734 1069 1313 
Q 1069 891 1326 650 
Q 1584 409 2034 409 
Q 2484 409 2743 651 
Q 3003 894 3003 1313 
Q 3003 1734 2745 1975 
Q 2488 2216 2034 2216 
z
M 1403 2484 
Q 997 2584 770 2862 
Q 544 3141 544 3541 
Q 544 4100 942 4425 
Q 1341 4750 2034 4750 
Q 2731 4750 3128 4425 
Q 3525 4100 3525 3541 
Q 3525 3141 3298 2862 
Q 3072 2584 2669 2484 
Q 3125 2378 3379 2068 
Q 3634 1759 3634 1313 
Q 3634 634 3220 271 
Q 2806 -91 2034 -91 
Q 1263 -91 848 271 
Q 434 634 434 1313 
Q 434 1759 690 2068 
Q 947 2378 1403 2484 
z
M 1172 3481 
Q 1172 3119 1398 2916 
Q 1625 2713 2034 2713 
Q 2441 2713 2670 2916 
Q 2900 3119 2900 3481 
Q 2900 3844 2670 4047 
Q 2441 4250 2034 4250 
Q 1625 4250 1398 4047 
Q 1172 3844 1172 3481 
z
" transform="scale(0.015625)"/>
       </defs>
       <use xlink:href="#DejaVuSans-30"/>
       <use xlink:href="#DejaVuSans-2e" x="63.623047"/>
       <use xlink:href="#DejaVuSans-38" x="95.410156"/>
      </g>
     </g>
    </g>
    <g id="ytick_6">
     <g id="line2d_47">
      <path d="M 62.208 6.330297 
L 460.8 6.330297 
" clip-path="url(#p4b9dc004a6)" style="fill: none; stroke: #b0b0b0; stroke-width: 0.8; stroke-linecap: square"/>
     </g>
     <g id="line2d_48">
      <g>
       <use xlink:href="#mf01ba46f28" x="62.208" y="6.330297" style="stroke: #000000; stroke-width: 0.8"/>
      </g>
     </g>
     <g id="text_10">
      <!-- 1.0 -->
      <g transform="translate(29.763 12.409047)scale(0.16 -0.16)">
       <use xlink:href="#DejaVuSans-31"/>
       <use xlink:href="#DejaVuSans-2e" x="63.623047"/>
       <use xlink:href="#DejaVuSans-30" x="95.410156"/>
      </g>
     </g>
    </g>
    <g id="text_11">
     <!-- proportion of trials -->
     <g transform="translate(21.603625 241.61425)rotate(-90)scale(0.2 -0.2)">
      <defs>
       <path id="DejaVuSans-70" d="M 1159 525 
L 1159 -1331 
L 581 -1331 
L 581 3500 
L 1159 3500 
L 1159 2969 
Q 1341 3281 1617 3432 
Q 1894 3584 2278 3584 
Q 2916 3584 3314 3078 
Q 3713 2572 3713 1747 
Q 3713 922 3314 415 
Q 2916 -91 2278 -91 
Q 1894 -91 1617 61 
Q 1341 213 1159 525 
z
M 3116 1747 
Q 3116 2381 2855 2742 
Q 2594 3103 2138 3103 
Q 1681 3103 1420 2742 
Q 1159 2381 1159 1747 
Q 1159 1113 1420 752 
Q 1681 391 2138 391 
Q 2594 391 2855 752 
Q 3116 1113 3116 1747 
z
" transform="scale(0.015625)"/>
       <path id="DejaVuSans-72" d="M 2631 2963 
Q 2534 3019 2420 3045 
Q 2306 3072 2169 3072 
Q 1681 3072 1420 2755 
Q 1159 2438 1159 1844 
L 1159 0 
L 581 0 
L 581 3500 
L 1159 3500 
L 1159 2956 
Q 1341 3275 1631 3429 
Q 1922 3584 2338 3584 
Q 2397 3584 2469 3576 
Q 2541 3569 2628 3553 
L 2631 2963 
z
" transform="scale(0.015625)"/>
       <path id="DejaVuSans-74" d="M 1172 4494 
L 1172 3500 
L 2356 3500 
L 2356 3053 
L 1172 3053 
L 1172 1153 
Q 1172 725 1289 603 
Q 1406 481 1766 481 
L 2356 481 
L 2356 0 
L 1766 0 
Q 1100 0 847 248 
Q 594 497 594 1153 
L 594 3053 
L 172 3053 
L 172 3500 
L 594 3500 
L 594 4494 
L 1172 4494 
z
" transform="scale(0.015625)"/>
       <path id="DejaVuSans-69" d="M 603 3500 
L 1178 3500 
L 1178 0 
L 603 0 
L 603 3500 
z
M 603 4863 
L 1178 4863 
L 1178 4134 
L 603 4134 
L 603 4863 
z
" transform="scale(0.015625)"/>
       <path id="DejaVuSans-6e" d="M 3513 2113 
L 3513 0 
L 2938 0 
L 2938 2094 
Q 2938 2591 2744 2837 
Q 2550 3084 2163 3084 
Q 1697 3084 1428 2787 
Q 1159 2491 1159 1978 
L 1159 0 
L 581 0 
L 581 3500 
L 1159 3500 
L 1159 2956 
Q 1366 3272 1645 3428 
Q 1925 3584 2291 3584 
Q 2894 3584 3203 3211 
Q 3513 2838 3513 2113 
z
" transform="scale(0.015625)"/>
      </defs>
      <use xlink:href="#DejaVuSans-70"/>
      <use xlink:href="#DejaVuSans-72" x="63.476562"/>
      <use xlink:href="#DejaVuSans-6f" x="102.339844"/>
      <use xlink:href="#DejaVuSans-70" x="163.521484"/>
      <use xlink:href="#DejaVuSans-6f" x="226.998047"/>
      <use xlink:href="#DejaVuSans-72" x="288.179688"/>
      <use xlink:href="#DejaVuSans-74" x="329.292969"/>
      <use xlink:href="#DejaVuSans-69" x="368.501953"/>
      <use xlink:href="#DejaVuSans-6f" x="396.285156"/>
      <use xlink:href="#DejaVuSans-6e" x="457.466797"/>
      <use xlink:href="#DejaVuSans-20" x="520.845703"/>
      <use xlink:href="#DejaVuSans-6f" x="552.632812"/>
      <use xlink:href="#DejaVuSans-66" x="613.814453"/>
      <use xlink:href="#DejaVuSans-20" x="649.019531"/>
      <use xlink:href="#DejaVuSans-74" x="680.806641"/>
      <use xlink:href="#DejaVuSans-72" x="720.015625"/>
      <use xlink:href="#DejaVuSans-69" x="761.128906"/>
      <use xlink:href="#DejaVuSans-61" x="788.912109"/>
      <use xlink:href="#DejaVuSans-6c" x="850.191406"/>
      <use xlink:href="#DejaVuSans-73" x="877.974609"/>
     </g>
    </g>
   </g>
   <g id="line2d_49">
    <path d="M 116.60173 293.76 
L 116.60173 289.927604 
L 125.276006 289.927604 
L 125.276006 286.095208 
L 126.871041 286.095208 
L 126.871041 282.262812 
L 128.756245 282.262812 
L 128.756245 278.430416 
L 129.657652 278.430416 
L 129.657652 274.59802 
L 134.42578 274.59802 
L 134.42578 270.765624 
L 134.729161 270.765624 
L 134.729161 266.933228 
L 138.692234 266.933228 
L 138.692234 263.100832 
L 139.737588 263.100832 
L 139.737588 259.268436 
L 141.36473 259.268436 
L 141.36473 255.43604 
L 144.494376 255.43604 
L 144.494376 251.603644 
L 153.191134 251.603644 
L 153.191134 247.771248 
L 155.980127 247.771248 
L 155.980127 243.938851 
L 157.176288 243.938851 
L 157.176288 240.106455 
L 160.046603 240.106455 
L 160.046603 236.274059 
L 189.630651 236.274059 
L 189.630651 232.441663 
L 193.647099 232.441663 
L 193.647099 228.609267 
L 195.411904 228.609267 
L 195.411904 220.944475 
L 195.880167 220.944475 
L 195.880167 217.112079 
L 196.755005 217.112079 
L 196.755005 213.279683 
L 197.585912 213.279683 
L 197.585912 209.447287 
L 198.878515 209.447287 
L 198.955155 201.782495 
L 199.373327 201.782495 
L 199.373327 197.950099 
L 199.860388 197.950099 
L 199.860388 194.117703 
L 202.886645 194.117703 
L 202.886645 190.285307 
L 204.624689 190.285307 
L 204.624689 186.452911 
L 204.910416 186.452911 
L 204.910416 182.620515 
L 205.068026 182.620515 
L 205.068026 178.788119 
L 206.466714 178.788119 
L 206.466714 174.955723 
L 207.588488 174.955723 
L 207.675349 167.290931 
L 208.488652 167.290931 
L 208.488652 163.458535 
L 208.685198 163.458535 
L 208.685198 159.626139 
L 209.06078 159.626139 
L 209.06078 155.793743 
L 209.184972 155.793743 
L 209.184972 151.961347 
L 209.987064 151.961347 
L 209.987064 148.12895 
L 211.301005 148.12895 
L 211.301005 144.296554 
L 212.251263 144.296554 
L 212.251263 140.464158 
L 214.408334 140.464158 
L 214.408334 136.631762 
L 226.5673 136.631762 
L 226.5673 132.799366 
L 227.30652 132.799366 
L 227.30652 128.96697 
L 228.858848 128.96697 
L 228.858848 125.134574 
L 229.150083 125.134574 
L 229.150083 121.302178 
L 229.802653 121.302178 
L 229.802653 117.469782 
L 229.972502 117.469782 
L 229.972502 113.637386 
L 230.538986 113.637386 
L 230.58054 105.972594 
L 230.739319 105.972594 
L 230.739319 102.140198 
L 230.876731 102.140198 
L 230.876731 98.307802 
L 231.895048 98.307802 
L 231.914945 90.64301 
L 232.146146 90.64301 
L 232.146146 86.810614 
L 232.745801 86.810614 
L 232.745801 82.978218 
L 234.50277 82.978218 
L 234.50277 79.145822 
L 256.130241 79.145822 
L 256.130241 75.313426 
L 257.015297 75.313426 
L 257.015297 71.48103 
L 259.328868 71.48103 
L 259.328868 67.648634 
L 260.537926 67.648634 
L 260.537926 63.816238 
L 261.134341 63.816238 
L 261.134341 59.983842 
L 261.561489 59.983842 
L 261.561489 56.151446 
L 261.719533 56.151446 
L 261.805862 48.486653 
L 262.040781 48.486653 
L 262.040781 44.654257 
L 262.25895 44.654257 
L 262.296411 36.989465 
L 264.37204 36.989465 
L 264.37204 33.157069 
L 265.650512 33.157069 
L 265.650512 29.324673 
L 265.896017 29.324673 
L 265.896017 25.492277 
L 266.018046 25.492277 
L 266.051244 17.827485 
L 266.254086 17.827485 
L 266.254086 13.995089 
L 268.350833 13.995089 
L 268.350833 10.162693 
L 282.759857 10.162693 
L 282.759857 6.330297 
L 282.759857 6.330297 
L 460.8 6.330297 
L 460.8 6.330297 
" clip-path="url(#p4b9dc004a6)" style="fill: none; stroke: #000000; stroke-width: 1.5; stroke-linecap: square"/>
   </g>
   <g id="line2d_50">
    <defs>
     <path id="mc532f87f69" d="M -0 14.142136 
L 8.485281 0 
L -0 -14.142136 
L -8.485281 -0 
z
" style="stroke: #000000; stroke-width: 1.5; stroke-linejoin: miter"/>
    </defs>
    <g clip-path="url(#p4b9dc004a6)">
     <use xlink:href="#mc532f87f69" x="155.980127" y="247.771248" style="fill-opacity: 0; stroke: #000000; stroke-width: 1.5; stroke-linejoin: miter"/>
     <use xlink:href="#mc532f87f69" x="207.588488" y="174.955723" style="fill-opacity: 0; stroke: #000000; stroke-width: 1.5; stroke-linejoin: miter"/>
     <use xlink:href="#mc532f87f69" x="230.538986" y="113.637386" style="fill-opacity: 0; stroke: #000000; stroke-width: 1.5; stroke-linejoin: miter"/>
     <use xlink:href="#mc532f87f69" x="262.296411" y="40.821861" style="fill-opacity: 0; stroke: #000000; stroke-width: 1.5; stroke-linejoin: miter"/>
     <use xlink:href="#mc532f87f69" x="282.759857" y="6.330297" style="fill-opacity: 0; stroke: #000000; stroke-width: 1.5; stroke-linejoin: miter"/>
    </g>
   </g>
   <g id="line2d_51">
    <path clip-path="url(#p4b9dc004a6)" style="fill: none; stroke: #000000; stroke-width: 1.5; stroke-linecap: square"/>
    <g clip-path="url(#p4b9dc004a6)">
     <use xlink:href="#mc532f87f69" x="-1" y="581.189703" style="fill-opacity: 0; stroke: #000000; stroke-width: 1.5; stroke-linejoin: miter"/>
     <use xlink:href="#mc532f87f69" x="460.8" y="581.189703" style="fill-opacity: 0; stroke: #000000; stroke-width: 1.5; stroke-linejoin: miter"/>
    </g>
   </g>
   <g id="line2d_52">
    <path d="M 116.330144 293.76 
L 116.330144 289.927604 
L 119.442374 289.927604 
L 119.442374 286.095208 
L 119.688197 286.095208 
L 119.688197 282.262812 
L 124.235898 282.262812 
L 124.235898 274.59802 
L 126.083749 274.59802 
L 126.083749 270.765624 
L 128.388237 270.765624 
L 128.388237 266.933228 
L 130.705942 266.933228 
L 130.705942 263.100832 
L 131.047664 263.100832 
L 131.047664 259.268436 
L 135.913927 259.268436 
L 135.913927 255.43604 
L 136.773789 255.43604 
L 136.773789 251.603644 
L 137.194965 251.603644 
L 137.194965 247.771248 
L 140.247375 247.771248 
L 140.247375 243.938851 
L 144.273049 243.938851 
L 144.273049 240.106455 
L 146.001068 240.106455 
L 146.001068 236.274059 
L 189.39733 236.274059 
L 189.39733 232.441663 
L 189.88786 232.441663 
L 189.88786 228.609267 
L 193.89578 228.609267 
L 193.89578 224.776871 
L 194.95825 224.776871 
L 194.95825 220.944475 
L 195.30449 220.944475 
L 195.30449 217.112079 
L 195.774361 217.112079 
L 195.859035 209.447287 
L 196.195442 209.447287 
L 196.195442 205.614891 
L 196.796056 205.614891 
L 196.837054 197.950099 
L 197.565908 197.950099 
L 197.565908 194.117703 
L 197.924027 194.117703 
L 197.924027 190.285307 
L 198.511877 190.285307 
L 198.511877 186.452911 
L 199.561562 186.452911 
L 199.561562 182.620515 
L 201.683208 182.620515 
L 201.683208 178.788119 
L 203.205412 178.788119 
L 203.205412 174.955723 
L 203.43822 174.955723 
L 203.43822 171.123327 
L 203.800576 171.123327 
L 203.800576 167.290931 
L 204.028987 167.290931 
L 204.126366 159.626139 
L 204.544853 159.626139 
L 204.544853 155.793743 
L 205.130847 155.793743 
L 205.130847 151.961347 
L 205.659762 151.961347 
L 205.659762 148.12895 
L 205.782916 148.12895 
L 205.828973 140.464158 
L 206.646548 140.464158 
L 206.646548 136.631762 
L 207.326439 136.631762 
L 207.326439 132.799366 
L 211.081516 132.799366 
L 211.081516 128.96697 
L 225.461179 128.96697 
L 225.461179 125.134574 
L 227.152348 125.134574 
L 227.152348 117.469782 
L 227.703825 117.469782 
L 227.703825 113.637386 
L 228.513125 113.637386 
L 228.513125 109.80499 
L 228.712201 109.80499 
L 228.712201 105.972594 
L 229.631872 105.972594 
L 229.631872 102.140198 
L 229.915988 102.140198 
L 229.915988 98.307802 
L 230.113337 98.307802 
L 230.113337 94.475406 
L 230.434857 94.475406 
L 230.476551 86.810614 
L 231.454052 86.810614 
L 231.454052 82.978218 
L 231.93483 82.978218 
L 231.93483 79.145822 
L 232.238147 79.145822 
L 232.238147 75.313426 
L 234.09748 75.313426 
L 234.09748 71.48103 
L 240.804399 71.48103 
L 240.804399 67.648634 
L 242.28314 67.648634 
L 242.28314 63.816238 
L 244.372778 63.816238 
L 244.372778 59.983842 
L 245.296131 59.983842 
L 245.296131 56.151446 
L 245.617843 56.151446 
L 245.617843 52.31905 
L 247.044072 52.31905 
L 247.044072 48.486653 
L 248.034907 48.486653 
L 248.034907 44.654257 
L 249.770182 44.654257 
L 249.770182 40.821861 
L 249.915466 40.821861 
L 249.915466 36.989465 
L 250.48261 36.989465 
L 250.526372 29.324673 
L 250.613711 29.324673 
L 250.675428 21.659881 
L 251.132657 21.659881 
L 251.132657 17.827485 
L 251.98225 17.827485 
L 251.98225 13.995089 
L 252.482451 13.995089 
L 252.482451 10.162693 
L 257.156953 10.162693 
L 257.156953 6.330297 
L 257.156953 6.330297 
L 460.8 6.330297 
L 460.8 6.330297 
" clip-path="url(#p4b9dc004a6)" style="fill: none; stroke: #000000; stroke-width: 1.5; stroke-linecap: square"/>
   </g>
   <g id="line2d_53">
    <defs>
     <path id="maef4d42237" d="M 0 7.5 
C 1.989023 7.5 3.896849 6.709753 5.303301 5.303301 
C 6.709753 3.896849 7.5 1.989023 7.5 0 
C 7.5 -1.989023 6.709753 -3.896849 5.303301 -5.303301 
C 3.896849 -6.709753 1.989023 -7.5 0 -7.5 
C -1.989023 -7.5 -3.896849 -6.709753 -5.303301 -5.303301 
C -6.709753 -3.896849 -7.5 -1.989023 -7.5 0 
C -7.5 1.989023 -6.709753 3.896849 -5.303301 5.303301 
C -3.896849 6.709753 -1.989023 7.5 0 7.5 
z
" style="stroke: #000000; stroke-width: 1.5"/>
    </defs>
    <g clip-path="url(#p4b9dc004a6)">
     <use xlink:href="#maef4d42237" x="146.001068" y="240.106455" style="fill-opacity: 0; stroke: #000000; stroke-width: 1.5"/>
     <use xlink:href="#maef4d42237" x="207.326439" y="136.631762" style="fill-opacity: 0; stroke: #000000; stroke-width: 1.5"/>
     <use xlink:href="#maef4d42237" x="251.132657" y="21.659881" style="fill-opacity: 0; stroke: #000000; stroke-width: 1.5"/>
     <use xlink:href="#maef4d42237" x="257.156953" y="6.330297" style="fill-opacity: 0; stroke: #000000; stroke-width: 1.5"/>
    </g>
   </g>
   <g id="line2d_54">
    <path clip-path="url(#p4b9dc004a6)" style="fill: none; stroke: #000000; stroke-width: 1.5; stroke-linecap: square"/>
   </g>
   <g id="line2d_55">
    <path d="M 178.287449 293.76 
L 178.287449 289.927604 
L 178.398839 289.927604 
L 178.398839 286.095208 
L 178.767283 286.095208 
L 178.767283 282.262812 
L 182.295316 282.262812 
L 182.295316 278.430416 
L 183.639194 278.430416 
L 183.639194 274.59802 
L 185.196627 274.59802 
L 185.196627 270.765624 
L 186.451741 270.765624 
L 186.537446 263.100832 
L 188.041054 263.100832 
L 188.149592 255.43604 
L 189.05719 255.43604 
L 189.05719 251.603644 
L 189.266947 251.603644 
L 189.266947 247.771248 
L 191.679505 247.771248 
L 191.679505 243.938851 
L 193.051277 243.938851 
L 193.051277 240.106455 
L 193.760382 240.106455 
L 193.760382 236.274059 
L 210.532512 236.274059 
L 210.532512 232.441663 
L 212.697274 232.441663 
L 212.697274 228.609267 
L 215.382502 228.609267 
L 215.382502 224.776871 
L 216.261334 224.776871 
L 216.261334 220.944475 
L 217.718405 220.944475 
L 217.718405 217.112079 
L 220.89934 217.112079 
L 220.89934 213.279683 
L 234.196218 213.279683 
L 234.196218 209.447287 
L 234.337607 209.447287 
L 234.349871 201.782495 
L 234.975036 201.782495 
L 234.975036 197.950099 
L 235.886914 197.950099 
L 235.980139 190.285307 
L 236.772811 190.285307 
L 236.823812 182.620515 
L 236.936849 182.620515 
L 236.936849 178.788119 
L 237.689284 178.788119 
L 237.738805 171.123327 
L 237.99614 171.123327 
L 237.99614 167.290931 
L 238.245955 167.290931 
L 238.245955 163.458535 
L 238.925421 163.458535 
L 238.925421 159.626139 
L 241.886333 159.626139 
L 241.886333 155.793743 
L 267.855932 155.793743 
L 267.855932 151.961347 
L 268.71234 151.961347 
L 268.71234 148.12895 
L 269.027508 148.12895 
L 269.027508 144.296554 
L 269.675994 144.296554 
L 269.675994 140.464158 
L 269.934772 140.464158 
L 269.934772 136.631762 
L 270.461316 136.631762 
L 270.461316 132.799366 
L 270.757429 132.799366 
L 270.804926 125.134574 
L 270.973429 125.134574 
L 271.06393 117.469782 
L 271.621819 117.469782 
L 271.621819 113.637386 
L 271.784125 113.637386 
L 271.784125 109.80499 
L 272.157154 109.80499 
L 272.157154 105.972594 
L 273.218517 105.972594 
L 273.218517 102.140198 
L 273.810117 102.140198 
L 273.810117 98.307802 
L 275.074982 98.307802 
L 275.074982 94.475406 
L 275.187309 94.475406 
L 275.187309 90.64301 
L 275.705661 90.64301 
L 275.705661 86.810614 
L 277.509105 86.810614 
L 277.509105 82.978218 
L 277.988945 82.978218 
L 277.988945 79.145822 
L 279.890011 79.145822 
L 279.890011 75.313426 
L 280.046953 75.313426 
L 280.046953 71.48103 
L 280.488063 71.48103 
L 280.488063 67.648634 
L 281.058452 67.648634 
L 281.058452 63.816238 
L 281.737672 63.816238 
L 281.737672 59.983842 
L 282.049987 59.983842 
L 282.049987 56.151446 
L 282.491152 56.151446 
L 282.491152 52.31905 
L 283.040354 52.31905 
L 283.040354 48.486653 
L 283.798299 48.486653 
L 283.812047 40.821861 
L 284.068385 40.821861 
L 284.068385 36.989465 
L 285.303826 36.989465 
L 285.303826 33.157069 
L 285.985866 33.157069 
L 285.985866 29.324673 
L 286.989005 29.324673 
L 287.053244 21.659881 
L 287.20822 21.659881 
L 287.20822 17.827485 
L 287.906073 17.827485 
L 287.906073 13.995089 
L 295.386001 13.995089 
L 295.386001 10.162693 
L 305.776636 10.162693 
L 305.776636 6.330297 
L 305.776636 6.330297 
L 460.8 6.330297 
L 460.8 6.330297 
" clip-path="url(#p4b9dc004a6)" style="fill: none; stroke: #00bfbf; stroke-width: 1.5; stroke-linecap: square"/>
   </g>
   <g id="line2d_56">
    <defs>
     <path id="m2df929f06b" d="M -0 14.142136 
L 8.485281 0 
L -0 -14.142136 
L -8.485281 -0 
z
" style="stroke: #00bfbf; stroke-width: 1.5; stroke-linejoin: miter"/>
    </defs>
    <g clip-path="url(#p4b9dc004a6)">
     <use xlink:href="#m2df929f06b" x="217.718405" y="220.944475" style="fill-opacity: 0; stroke: #00bfbf; stroke-width: 1.5; stroke-linejoin: miter"/>
     <use xlink:href="#m2df929f06b" x="275.187309" y="94.475406" style="fill-opacity: 0; stroke: #00bfbf; stroke-width: 1.5; stroke-linejoin: miter"/>
     <use xlink:href="#m2df929f06b" x="305.776636" y="10.162693" style="fill-opacity: 0; stroke: #00bfbf; stroke-width: 1.5; stroke-linejoin: miter"/>
     <use xlink:href="#m2df929f06b" x="305.776636" y="6.330297" style="fill-opacity: 0; stroke: #00bfbf; stroke-width: 1.5; stroke-linejoin: miter"/>
    </g>
   </g>
   <g id="line2d_57">
    <path clip-path="url(#p4b9dc004a6)" style="fill: none; stroke: #00bfbf; stroke-width: 1.5; stroke-linecap: square"/>
    <g clip-path="url(#p4b9dc004a6)">
     <use xlink:href="#m2df929f06b" x="-1" y="581.189703" style="fill-opacity: 0; stroke: #00bfbf; stroke-width: 1.5; stroke-linejoin: miter"/>
     <use xlink:href="#m2df929f06b" x="460.8" y="581.189703" style="fill-opacity: 0; stroke: #00bfbf; stroke-width: 1.5; stroke-linejoin: miter"/>
    </g>
   </g>
   <g id="line2d_58">
    <path d="M 175.931416 293.76 
L 175.931416 289.927604 
L 178.803889 289.927604 
L 178.803889 286.095208 
L 179.27588 286.095208 
L 179.27588 282.262812 
L 180.408067 282.262812 
L 180.408067 278.430416 
L 181.867302 278.430416 
L 181.867302 274.59802 
L 182.197065 274.59802 
L 182.197065 270.765624 
L 182.620594 270.765624 
L 182.620594 266.933228 
L 182.910464 266.933228 
L 182.910464 263.100832 
L 183.356069 263.100832 
L 183.356069 259.268436 
L 184.381829 259.268436 
L 184.473423 251.603644 
L 184.564749 251.603644 
L 184.564749 247.771248 
L 187.381742 247.771248 
L 187.381742 243.938851 
L 187.520256 243.938851 
L 187.520256 240.106455 
L 188.338629 240.106455 
L 188.338629 236.274059 
L 211.798761 236.274059 
L 211.798761 232.441663 
L 212.176302 232.441663 
L 212.176302 228.609267 
L 212.844534 228.609267 
L 212.844534 224.776871 
L 213.844425 224.776871 
L 213.844425 220.944475 
L 214.373387 220.944475 
L 214.443241 213.279683 
L 215.030742 213.279683 
L 215.030742 209.447287 
L 215.178739 209.447287 
L 215.178739 205.614891 
L 215.472636 205.614891 
L 215.472636 201.782495 
L 232.414813 201.782495 
L 232.414813 197.950099 
L 233.251652 197.950099 
L 233.251652 194.117703 
L 234.569807 194.117703 
L 234.667059 186.452911 
L 235.457992 186.452911 
L 235.457992 182.620515 
L 235.576094 182.620515 
L 235.576094 178.788119 
L 236.038263 178.788119 
L 236.136825 171.123327 
L 236.183099 171.123327 
L 236.183099 167.290931 
L 236.482216 167.290931 
L 236.482216 163.458535 
L 236.636399 163.458535 
L 236.636399 159.626139 
L 236.993213 159.626139 
L 236.993213 155.793743 
L 237.5679 155.793743 
L 237.5679 151.961347 
L 237.826648 151.961347 
L 237.826648 148.12895 
L 238.90954 148.12895 
L 238.90954 144.296554 
L 239.036357 144.296554 
L 239.036357 140.464158 
L 242.325864 140.464158 
L 242.325864 136.631762 
L 243.498924 136.631762 
L 243.498924 132.799366 
L 245.123181 132.799366 
L 245.123181 128.96697 
L 245.7371 128.96697 
L 245.7371 125.134574 
L 252.642874 125.134574 
L 252.642874 121.302178 
L 253.396273 121.302178 
L 253.472607 113.637386 
L 253.608219 113.637386 
L 253.608219 109.80499 
L 253.769519 109.80499 
L 253.769519 105.972594 
L 254.306603 105.972594 
L 254.306603 102.140198 
L 255.024353 102.140198 
L 255.024353 98.307802 
L 255.169075 98.307802 
L 255.187902 90.64301 
L 255.325622 90.64301 
L 255.325622 86.810614 
L 256.108931 86.810614 
L 256.108931 82.978218 
L 257.000504 82.978218 
L 257.000504 79.145822 
L 257.639031 79.145822 
L 257.639031 75.313426 
L 257.824026 75.313426 
L 257.824026 71.48103 
L 258.068032 71.48103 
L 258.170802 63.816238 
L 258.187897 63.816238 
L 258.187897 59.983842 
L 258.522209 59.983842 
L 258.522209 56.151446 
L 259.859744 56.151446 
L 259.859744 52.31905 
L 260.013227 52.31905 
L 260.013227 48.486653 
L 260.49564 48.486653 
L 260.601248 40.821861 
L 260.955051 40.821861 
L 260.955051 36.989465 
L 266.033543 36.989465 
L 266.033543 33.157069 
L 266.194693 33.157069 
L 266.194693 29.324673 
L 270.293867 29.324673 
L 270.293867 25.492277 
L 271.339461 25.492277 
L 271.339461 21.659881 
L 271.846608 21.659881 
L 271.846608 17.827485 
L 271.965713 17.827485 
L 271.965713 13.995089 
L 274.784026 13.995089 
L 274.784026 10.162693 
L 281.864305 10.162693 
L 281.864305 6.330297 
L 281.864305 6.330297 
L 460.8 6.330297 
L 460.8 6.330297 
" clip-path="url(#p4b9dc004a6)" style="fill: none; stroke: #00bfbf; stroke-width: 1.5; stroke-linecap: square"/>
   </g>
   <g id="line2d_59">
    <defs>
     <path id="m38dd2629bc" d="M 0 7.5 
C 1.989023 7.5 3.896849 6.709753 5.303301 5.303301 
C 6.709753 3.896849 7.5 1.989023 7.5 0 
C 7.5 -1.989023 6.709753 -3.896849 5.303301 -5.303301 
C 3.896849 -6.709753 1.989023 -7.5 0 -7.5 
C -1.989023 -7.5 -3.896849 -6.709753 -5.303301 -5.303301 
C -6.709753 -3.896849 -7.5 -1.989023 -7.5 0 
C -7.5 1.989023 -6.709753 3.896849 -5.303301 5.303301 
C -3.896849 6.709753 -1.989023 7.5 0 7.5 
z
" style="stroke: #00bfbf; stroke-width: 1.5"/>
    </defs>
    <g clip-path="url(#p4b9dc004a6)">
     <use xlink:href="#m38dd2629bc" x="236.482216" y="167.290931" style="fill-opacity: 0; stroke: #00bfbf; stroke-width: 1.5"/>
     <use xlink:href="#m38dd2629bc" x="260.013227" y="52.31905" style="fill-opacity: 0; stroke: #00bfbf; stroke-width: 1.5"/>
     <use xlink:href="#m38dd2629bc" x="281.864305" y="10.162693" style="fill-opacity: 0; stroke: #00bfbf; stroke-width: 1.5"/>
     <use xlink:href="#m38dd2629bc" x="281.864305" y="6.330297" style="fill-opacity: 0; stroke: #00bfbf; stroke-width: 1.5"/>
    </g>
   </g>
   <g id="line2d_60">
    <path clip-path="url(#p4b9dc004a6)" style="fill: none; stroke: #00bfbf; stroke-width: 1.5; stroke-linecap: square"/>
   </g>
   <g id="line2d_61">
    <path d="M 232.297147 293.76 
L 232.297147 289.927604 
L 233.979819 289.927604 
L 233.979819 286.095208 
L 234.171563 286.095208 
L 234.171563 282.262812 
L 234.405001 282.262812 
L 234.405001 278.430416 
L 234.533259 278.430416 
L 234.533259 274.59802 
L 234.987052 274.59802 
L 234.987052 270.765624 
L 235.463908 270.765624 
L 235.564304 263.100832 
L 235.717228 263.100832 
L 235.717228 259.268436 
L 236.003402 259.268436 
L 236.102074 251.603644 
L 236.664867 251.603644 
L 236.664867 247.771248 
L 238.386272 247.771248 
L 238.386272 243.938851 
L 239.444974 243.938851 
L 239.444974 240.106455 
L 239.786581 240.106455 
L 239.786581 236.274059 
L 240.017363 236.274059 
L 240.083715 228.609267 
L 240.77948 228.609267 
L 240.888974 220.944475 
L 241.249558 220.944475 
L 241.249558 217.112079 
L 242.32112 217.112079 
L 242.378004 209.447287 
L 242.510329 209.447287 
L 242.510329 205.614891 
L 242.903959 205.614891 
L 242.903959 201.782495 
L 243.315653 201.782495 
L 243.315653 197.950099 
L 243.521757 197.950099 
L 243.521757 194.117703 
L 244.06478 194.117703 
L 244.06478 190.285307 
L 244.35945 190.285307 
L 244.421598 182.620515 
L 245.889762 182.620515 
L 245.889762 178.788119 
L 274.181897 178.788119 
L 274.181897 174.955723 
L 275.030269 174.955723 
L 275.030269 171.123327 
L 275.162566 171.123327 
L 275.162566 167.290931 
L 275.552854 167.290931 
L 275.552854 163.458535 
L 275.669965 163.458535 
L 275.770459 155.793743 
L 275.94635 155.793743 
L 275.94635 151.961347 
L 276.596039 151.961347 
L 276.622817 144.296554 
L 276.908063 144.296554 
L 276.908063 140.464158 
L 277.247867 140.464158 
L 277.247867 136.631762 
L 277.634333 136.631762 
L 277.634333 132.799366 
L 277.82578 132.799366 
L 277.82578 128.96697 
L 278.761315 128.96697 
L 278.761315 125.134574 
L 279.187579 125.134574 
L 279.187579 121.302178 
L 279.821898 121.302178 
L 279.821898 117.469782 
L 281.206903 117.469782 
L 281.206903 113.637386 
L 281.587713 113.637386 
L 281.587713 109.80499 
L 283.439977 109.80499 
L 283.439977 105.972594 
L 285.853926 105.972594 
L 285.853926 102.140198 
L 286.17868 102.140198 
L 286.17868 98.307802 
L 286.473707 98.307802 
L 286.473707 94.475406 
L 287.552458 94.475406 
L 287.552458 90.64301 
L 287.730319 90.64301 
L 287.730319 86.810614 
L 288.485565 86.810614 
L 288.485565 82.978218 
L 288.964596 82.978218 
L 288.964596 79.145822 
L 290.503362 79.145822 
L 290.503362 75.313426 
L 290.816152 75.313426 
L 290.84706 67.648634 
L 292.619218 67.648634 
L 292.722591 59.983842 
L 294.44706 59.983842 
L 294.44706 56.151446 
L 294.973354 56.151446 
L 295.028284 44.654257 
L 295.399777 44.654257 
L 295.399777 40.821861 
L 296.036236 40.821861 
L 296.036236 36.989465 
L 298.18897 36.989465 
L 298.18897 33.157069 
L 298.95922 33.157069 
L 298.95922 29.324673 
L 301.329331 29.324673 
L 301.408191 21.659881 
L 302.219191 21.659881 
L 302.219191 17.827485 
L 304.400037 17.827485 
L 304.400037 13.995089 
L 305.563191 13.995089 
L 305.563191 10.162693 
L 312.838286 10.162693 
L 312.838286 6.330297 
L 312.838286 6.330297 
L 460.8 6.330297 
L 460.8 6.330297 
" clip-path="url(#p4b9dc004a6)" style="fill: none; stroke: #bf00bf; stroke-width: 1.5; stroke-linecap: square"/>
   </g>
   <g id="line2d_62">
    <defs>
     <path id="m3fe9d67363" d="M -0 14.142136 
L 8.485281 0 
L -0 -14.142136 
L -8.485281 -0 
z
" style="stroke: #bf00bf; stroke-width: 1.5; stroke-linejoin: miter"/>
    </defs>
    <g clip-path="url(#p4b9dc004a6)">
     <use xlink:href="#m3fe9d67363" x="244.421598" y="186.452911" style="fill-opacity: 0; stroke: #bf00bf; stroke-width: 1.5; stroke-linejoin: miter"/>
     <use xlink:href="#m3fe9d67363" x="283.439977" y="109.80499" style="fill-opacity: 0; stroke: #bf00bf; stroke-width: 1.5; stroke-linejoin: miter"/>
     <use xlink:href="#m3fe9d67363" x="298.18897" y="36.989465" style="fill-opacity: 0; stroke: #bf00bf; stroke-width: 1.5; stroke-linejoin: miter"/>
     <use xlink:href="#m3fe9d67363" x="312.838286" y="6.330297" style="fill-opacity: 0; stroke: #bf00bf; stroke-width: 1.5; stroke-linejoin: miter"/>
    </g>
   </g>
   <g id="line2d_63">
    <path clip-path="url(#p4b9dc004a6)" style="fill: none; stroke: #bf00bf; stroke-width: 1.5; stroke-linecap: square"/>
    <g clip-path="url(#p4b9dc004a6)">
     <use xlink:href="#m3fe9d67363" x="-1" y="581.189703" style="fill-opacity: 0; stroke: #bf00bf; stroke-width: 1.5; stroke-linejoin: miter"/>
     <use xlink:href="#m3fe9d67363" x="460.8" y="581.189703" style="fill-opacity: 0; stroke: #bf00bf; stroke-width: 1.5; stroke-linejoin: miter"/>
    </g>
   </g>
   <g id="line2d_64">
    <path d="M 227.051725 293.76 
L 227.051725 289.927604 
L 228.148551 289.927604 
L 228.148551 286.095208 
L 228.505727 286.095208 
L 228.505727 282.262812 
L 228.62388 282.262812 
L 228.62388 278.430416 
L 229.041189 278.430416 
L 229.041189 274.59802 
L 229.517494 274.59802 
L 229.517494 270.765624 
L 229.674655 270.765624 
L 229.674655 266.933228 
L 229.930126 266.933228 
L 229.930126 263.100832 
L 230.462659 263.100832 
L 230.462659 259.268436 
L 231.325931 259.268436 
L 231.325931 255.43604 
L 231.648594 255.43604 
L 231.648594 251.603644 
L 232.900349 251.603644 
L 232.900349 247.771248 
L 233.200799 247.771248 
L 233.200799 243.938851 
L 233.517272 243.938851 
L 233.580182 236.274059 
L 239.735063 236.274059 
L 239.735063 232.441663 
L 239.899622 232.441663 
L 239.899622 228.609267 
L 240.266725 228.609267 
L 240.266725 224.776871 
L 240.993133 224.776871 
L 240.993133 220.944475 
L 241.386763 220.944475 
L 241.494143 205.614891 
L 241.547694 205.614891 
L 241.547694 201.782495 
L 241.80443 201.782495 
L 241.80443 197.950099 
L 241.958421 197.950099 
L 241.958421 194.117703 
L 242.359054 194.117703 
L 242.359054 190.285307 
L 242.978374 190.285307 
L 242.978374 186.452911 
L 243.306461 186.452911 
L 243.306461 182.620515 
L 244.346116 182.620515 
L 244.346116 178.788119 
L 249.762713 178.788119 
L 249.762713 174.955723 
L 252.197114 174.955723 
L 252.197114 171.123327 
L 254.614871 171.123327 
L 254.697837 159.626139 
L 256.032703 159.626139 
L 256.032703 155.793743 
L 258.329994 155.793743 
L 258.329994 151.961347 
L 258.508116 151.961347 
L 258.508116 148.12895 
L 259.474057 148.12895 
L 259.474057 144.296554 
L 259.886726 144.296554 
L 259.886726 140.464158 
L 260.514147 140.464158 
L 260.514147 136.631762 
L 260.674961 136.631762 
L 260.674961 132.799366 
L 260.962868 132.799366 
L 260.962868 128.96697 
L 261.077289 128.96697 
L 261.173181 121.302178 
L 261.361512 121.302178 
L 261.361512 117.469782 
L 261.65845 117.469782 
L 261.65845 113.637386 
L 261.770344 113.637386 
L 261.770344 109.80499 
L 262.131244 109.80499 
L 262.208931 102.140198 
L 262.70553 102.140198 
L 262.70553 98.307802 
L 262.889729 98.307802 
L 262.889729 94.475406 
L 263.390118 94.475406 
L 263.421428 86.810614 
L 264.521105 86.810614 
L 264.521105 82.978218 
L 265.117161 82.978218 
L 265.117161 79.145822 
L 267.682203 79.145822 
L 267.682203 75.313426 
L 269.32359 75.313426 
L 269.32359 71.48103 
L 269.608988 71.48103 
L 269.608988 67.648634 
L 269.733031 67.648634 
L 269.733031 63.816238 
L 271.037561 63.816238 
L 271.037561 59.983842 
L 274.473454 59.983842 
L 274.473454 56.151446 
L 276.277668 56.151446 
L 276.277668 52.31905 
L 278.505984 52.31905 
L 278.505984 48.486653 
L 280.647557 48.486653 
L 280.647557 44.654257 
L 282.640719 44.654257 
L 282.640719 40.821861 
L 283.094106 40.821861 
L 283.094106 36.989465 
L 285.543477 36.989465 
L 285.543477 33.157069 
L 286.187942 33.157069 
L 286.187942 29.324673 
L 288.699854 29.324673 
L 288.699854 25.492277 
L 289.69493 25.492277 
L 289.69493 21.659881 
L 294.654945 21.659881 
L 294.654945 17.827485 
L 296.091006 17.827485 
L 296.091006 13.995089 
L 297.556162 13.995089 
L 297.556162 10.162693 
L 304.009625 10.162693 
L 304.009625 6.330297 
L 304.009625 6.330297 
L 460.8 6.330297 
L 460.8 6.330297 
" clip-path="url(#p4b9dc004a6)" style="fill: none; stroke: #bf00bf; stroke-width: 1.5; stroke-linecap: square"/>
   </g>
   <g id="line2d_65">
    <defs>
     <path id="m445ba3faa0" d="M 0 7.5 
C 1.989023 7.5 3.896849 6.709753 5.303301 5.303301 
C 6.709753 3.896849 7.5 1.989023 7.5 0 
C 7.5 -1.989023 6.709753 -3.896849 5.303301 -5.303301 
C 3.896849 -6.709753 1.989023 -7.5 0 -7.5 
C -1.989023 -7.5 -3.896849 -6.709753 -5.303301 -5.303301 
C -6.709753 -3.896849 -7.5 -1.989023 -7.5 0 
C -7.5 1.989023 -6.709753 3.896849 -5.303301 5.303301 
C -3.896849 6.709753 -1.989023 7.5 0 7.5 
z
" style="stroke: #bf00bf; stroke-width: 1.5"/>
    </defs>
    <g clip-path="url(#p4b9dc004a6)">
     <use xlink:href="#m445ba3faa0" x="242.978374" y="190.285307" style="fill-opacity: 0; stroke: #bf00bf; stroke-width: 1.5"/>
     <use xlink:href="#m445ba3faa0" x="264.521105" y="86.810614" style="fill-opacity: 0; stroke: #bf00bf; stroke-width: 1.5"/>
     <use xlink:href="#m445ba3faa0" x="296.091006" y="17.827485" style="fill-opacity: 0; stroke: #bf00bf; stroke-width: 1.5"/>
     <use xlink:href="#m445ba3faa0" x="304.009625" y="6.330297" style="fill-opacity: 0; stroke: #bf00bf; stroke-width: 1.5"/>
    </g>
   </g>
   <g id="line2d_66">
    <path clip-path="url(#p4b9dc004a6)" style="fill: none; stroke: #bf00bf; stroke-width: 1.5; stroke-linecap: square"/>
   </g>
   <g id="line2d_67">
    <path d="M 246.284882 293.76 
L 246.284882 289.927604 
L 246.683293 289.927604 
L 246.753315 282.262812 
L 246.819076 282.262812 
L 246.819076 278.430416 
L 247.174233 278.430416 
L 247.174233 274.59802 
L 247.36846 274.59802 
L 247.36846 270.765624 
L 248.007257 270.765624 
L 248.007257 266.933228 
L 248.356989 266.933228 
L 248.356989 263.100832 
L 248.64094 263.100832 
L 248.64094 259.268436 
L 249.006625 259.268436 
L 249.006625 255.43604 
L 249.322636 255.43604 
L 249.322636 251.603644 
L 249.777649 251.603644 
L 249.777649 247.771248 
L 249.896877 247.771248 
L 249.896877 243.938851 
L 250.266548 243.938851 
L 250.266548 240.106455 
L 251.229002 240.106455 
L 251.229002 236.274059 
L 268.942969 236.274059 
L 268.942969 232.441663 
L 270.106102 232.441663 
L 270.106102 228.609267 
L 271.40098 228.609267 
L 271.40098 224.776871 
L 271.664322 224.776871 
L 271.664322 220.944475 
L 271.881471 220.944475 
L 271.963884 209.447287 
L 272.020531 209.447287 
L 272.020531 205.614891 
L 272.215265 205.614891 
L 272.215265 201.782495 
L 272.817177 201.782495 
L 272.817177 197.950099 
L 273.052952 197.950099 
L 273.052952 194.117703 
L 273.595659 194.117703 
L 273.595659 190.285307 
L 273.971711 190.285307 
L 273.971711 186.452911 
L 275.152663 186.452911 
L 275.152663 182.620515 
L 275.423847 182.620515 
L 275.423847 178.788119 
L 276.844033 178.788119 
L 276.844033 174.955723 
L 277.306452 174.955723 
L 277.306452 171.123327 
L 277.725646 171.123327 
L 277.725646 167.290931 
L 277.963318 167.290931 
L 278.034117 159.626139 
L 278.197691 159.626139 
L 278.197691 155.793743 
L 278.587386 155.793743 
L 278.59182 148.12895 
L 278.712772 148.12895 
L 278.712772 144.296554 
L 279.349539 144.296554 
L 279.418694 136.631762 
L 280.214331 136.631762 
L 280.214331 132.799366 
L 280.389183 132.799366 
L 280.389183 128.96697 
L 282.833443 128.96697 
L 282.833443 125.134574 
L 283.200056 125.134574 
L 283.200056 121.302178 
L 287.398078 121.302178 
L 287.398078 117.469782 
L 295.367911 117.469782 
L 295.367911 113.637386 
L 295.64585 113.637386 
L 295.746461 105.972594 
L 295.811089 105.972594 
L 295.811089 102.140198 
L 297.994775 102.140198 
L 298.014566 94.475406 
L 298.140141 94.475406 
L 298.140141 90.64301 
L 298.344398 90.64301 
L 298.344398 86.810614 
L 298.72728 86.810614 
L 298.72728 82.978218 
L 299.232087 82.978218 
L 299.303538 75.313426 
L 300.615532 75.313426 
L 300.615532 71.48103 
L 300.847585 71.48103 
L 300.847585 67.648634 
L 301.642172 67.648634 
L 301.642172 63.816238 
L 303.507652 63.816238 
L 303.507652 59.983842 
L 305.25687 59.983842 
L 305.25687 56.151446 
L 307.198118 56.151446 
L 307.198118 52.31905 
L 307.800692 52.31905 
L 307.800692 48.486653 
L 308.553504 48.486653 
L 308.553504 44.654257 
L 309.164362 44.654257 
L 309.164362 40.821861 
L 309.964561 40.821861 
L 309.964561 36.989465 
L 311.825602 36.989465 
L 311.825602 33.157069 
L 311.962345 33.157069 
L 311.962345 29.324673 
L 313.639036 29.324673 
L 313.639036 25.492277 
L 315.20945 25.492277 
L 315.20945 21.659881 
L 315.713389 21.659881 
L 315.713389 17.827485 
L 317.867653 17.827485 
L 317.905662 10.162693 
L 322.194254 10.162693 
L 322.194254 6.330297 
L 322.194254 6.330297 
L 460.8 6.330297 
L 460.8 6.330297 
" clip-path="url(#p4b9dc004a6)" style="fill: none; stroke: #ff0000; stroke-width: 3; stroke-linecap: square"/>
   </g>
   <g id="line2d_68">
    <defs>
     <path id="mc6d66ea56f" d="M -0 14.142136 
L 8.485281 0 
L -0 -14.142136 
L -8.485281 -0 
z
" style="stroke: #ff0000; stroke-width: 3; stroke-linejoin: miter"/>
    </defs>
    <g clip-path="url(#p4b9dc004a6)">
     <use xlink:href="#mc6d66ea56f" x="272.215265" y="205.614891" style="fill-opacity: 0; stroke: #ff0000; stroke-width: 3; stroke-linejoin: miter"/>
     <use xlink:href="#mc6d66ea56f" x="295.746461" y="109.80499" style="fill-opacity: 0; stroke: #ff0000; stroke-width: 3; stroke-linejoin: miter"/>
     <use xlink:href="#mc6d66ea56f" x="317.905662" y="13.995089" style="fill-opacity: 0; stroke: #ff0000; stroke-width: 3; stroke-linejoin: miter"/>
     <use xlink:href="#mc6d66ea56f" x="322.194254" y="6.330297" style="fill-opacity: 0; stroke: #ff0000; stroke-width: 3; stroke-linejoin: miter"/>
    </g>
   </g>
   <g id="line2d_69">
    <path clip-path="url(#p4b9dc004a6)" style="fill: none; stroke: #ff0000; stroke-width: 3; stroke-linecap: square"/>
    <g clip-path="url(#p4b9dc004a6)">
     <use xlink:href="#mc6d66ea56f" x="-1" y="581.189703" style="fill-opacity: 0; stroke: #ff0000; stroke-width: 3; stroke-linejoin: miter"/>
     <use xlink:href="#mc6d66ea56f" x="460.8" y="581.189703" style="fill-opacity: 0; stroke: #ff0000; stroke-width: 3; stroke-linejoin: miter"/>
    </g>
   </g>
   <g id="line2d_70">
    <path d="M 245.485272 293.76 
L 245.50241 286.095208 
L 245.991122 286.095208 
L 246.08795 278.430416 
L 246.230536 278.430416 
L 246.230536 274.59802 
L 246.745086 274.59802 
L 246.745086 270.765624 
L 246.872404 270.765624 
L 246.872404 266.933228 
L 247.117355 266.933228 
L 247.149869 259.268436 
L 247.259356 259.268436 
L 247.259356 255.43604 
L 247.380558 255.43604 
L 247.380558 251.603644 
L 247.545441 251.603644 
L 247.545441 247.771248 
L 248.007257 247.771248 
L 248.007257 243.938851 
L 248.29832 243.938851 
L 248.29832 240.106455 
L 248.975996 240.106455 
L 248.975996 236.274059 
L 260.580155 236.274059 
L 260.580155 232.441663 
L 261.258458 232.441663 
L 261.258458 228.609267 
L 261.371798 228.609267 
L 261.371798 224.776871 
L 261.881837 224.776871 
L 261.881837 220.944475 
L 262.448289 220.944475 
L 262.530144 209.447287 
L 262.93622 209.447287 
L 262.93622 205.614891 
L 263.392528 205.614891 
L 263.495962 197.950099 
L 263.515168 197.950099 
L 263.548749 190.285307 
L 263.675551 190.285307 
L 263.716114 178.788119 
L 264.097669 178.788119 
L 264.172952 171.123327 
L 264.280852 171.123327 
L 264.297239 159.626139 
L 264.497861 159.626139 
L 264.502511 151.961347 
L 264.627806 151.961347 
L 264.632437 144.296554 
L 264.759517 144.296554 
L 264.851613 136.631762 
L 264.888376 136.631762 
L 264.888376 132.799366 
L 265.055555 132.799366 
L 265.11944 125.134574 
L 265.38724 125.134574 
L 265.38724 121.302178 
L 265.511278 121.302178 
L 265.511278 117.469782 
L 265.820341 117.469782 
L 265.820341 113.637386 
L 265.984813 113.637386 
L 265.984813 109.80499 
L 266.106495 109.80499 
L 266.106495 105.972594 
L 267.035333 105.972594 
L 267.035333 102.140198 
L 267.680104 102.140198 
L 267.680104 98.307802 
L 272.653033 98.307802 
L 272.653033 94.475406 
L 275.137803 94.475406 
L 275.137803 90.64301 
L 275.503927 90.64301 
L 275.503927 86.810614 
L 276.513986 86.810614 
L 276.513986 82.978218 
L 278.413965 82.978218 
L 278.413965 79.145822 
L 279.530742 79.145822 
L 279.622379 71.48103 
L 280.176433 71.48103 
L 280.176433 67.648634 
L 288.829848 67.648634 
L 288.829848 63.816238 
L 289.644216 63.816238 
L 289.644216 59.983842 
L 290.34274 59.983842 
L 290.34274 56.151446 
L 290.964427 56.151446 
L 290.964427 52.31905 
L 291.847249 52.31905 
L 291.847249 48.486653 
L 295.501186 48.486653 
L 295.501186 44.654257 
L 301.580843 44.654257 
L 301.580843 40.821861 
L 302.230941 40.821861 
L 302.230941 36.989465 
L 306.214991 36.989465 
L 306.214991 33.157069 
L 309.463706 33.157069 
L 309.50311 25.492277 
L 310.050124 25.492277 
L 310.050124 21.659881 
L 311.754461 21.659881 
L 311.754461 17.827485 
L 312.02444 17.827485 
L 312.02444 13.995089 
L 316.737309 13.995089 
L 316.737309 10.162693 
L 322.964312 10.162693 
L 322.964312 6.330297 
L 322.964312 6.330297 
L 460.8 6.330297 
L 460.8 6.330297 
" clip-path="url(#p4b9dc004a6)" style="fill: none; stroke: #ff0000; stroke-width: 3; stroke-linecap: square"/>
   </g>
   <g id="line2d_71">
    <defs>
     <path id="mdbe5f7a254" d="M 0 7.5 
C 1.989023 7.5 3.896849 6.709753 5.303301 5.303301 
C 6.709753 3.896849 7.5 1.989023 7.5 0 
C 7.5 -1.989023 6.709753 -3.896849 5.303301 -5.303301 
C 3.896849 -6.709753 1.989023 -7.5 0 -7.5 
C -1.989023 -7.5 -3.896849 -6.709753 -5.303301 -5.303301 
C -6.709753 -3.896849 -7.5 -1.989023 -7.5 0 
C -7.5 1.989023 -6.709753 3.896849 -5.303301 5.303301 
C -3.896849 6.709753 -1.989023 7.5 0 7.5 
z
" style="stroke: #ff0000; stroke-width: 3"/>
    </defs>
    <g clip-path="url(#p4b9dc004a6)">
     <use xlink:href="#mdbe5f7a254" x="267.035333" y="105.972594" style="fill-opacity: 0; stroke: #ff0000; stroke-width: 3"/>
     <use xlink:href="#mdbe5f7a254" x="306.214991" y="36.989465" style="fill-opacity: 0; stroke: #ff0000; stroke-width: 3"/>
     <use xlink:href="#mdbe5f7a254" x="322.964312" y="10.162693" style="fill-opacity: 0; stroke: #ff0000; stroke-width: 3"/>
     <use xlink:href="#mdbe5f7a254" x="322.964312" y="6.330297" style="fill-opacity: 0; stroke: #ff0000; stroke-width: 3"/>
    </g>
   </g>
   <g id="line2d_72">
    <path clip-path="url(#p4b9dc004a6)" style="fill: none; stroke: #ff0000; stroke-width: 3; stroke-linecap: square"/>
   </g>
   <g id="line2d_73">
    <path d="M 322.194254 293.76 
L 322.194254 3.456 
" clip-path="url(#p4b9dc004a6)" style="fill: none; stroke: #000000; stroke-width: 1.5; stroke-linecap: square"/>
    <defs>
     <path id="mb885343da7" d="M -10 0 
L 10 0 
M 0 10 
L 0 -10 
" style="stroke: #000000; stroke-width: 3"/>
    </defs>
    <g clip-path="url(#p4b9dc004a6)">
     <use xlink:href="#mb885343da7" x="322.194254" y="293.76" style="stroke: #000000; stroke-width: 3"/>
     <use xlink:href="#mb885343da7" x="322.194254" y="3.456" style="stroke: #000000; stroke-width: 3"/>
    </g>
   </g>
   <g id="line2d_74">
    <path d="M 322.964312 293.76 
L 322.964312 3.456 
" clip-path="url(#p4b9dc004a6)" style="fill: none; stroke: #000000; stroke-width: 1.5; stroke-linecap: square"/>
    <defs>
     <path id="ma20501ec79" d="M 0 7.5 
C 1.989023 7.5 3.896849 6.709753 5.303301 5.303301 
C 6.709753 3.896849 7.5 1.989023 7.5 0 
C 7.5 -1.989023 6.709753 -3.896849 5.303301 -5.303301 
C 3.896849 -6.709753 1.989023 -7.5 0 -7.5 
C -1.989023 -7.5 -3.896849 -6.709753 -5.303301 -5.303301 
C -6.709753 -3.896849 -7.5 -1.989023 -7.5 0 
C -7.5 1.989023 -6.709753 3.896849 -5.303301 5.303301 
C -3.896849 6.709753 -1.989023 7.5 0 7.5 
z
" style="stroke: #000000; stroke-width: 3"/>
    </defs>
    <g clip-path="url(#p4b9dc004a6)">
     <use xlink:href="#ma20501ec79" x="322.964312" y="293.76" style="fill-opacity: 0; stroke: #000000; stroke-width: 3"/>
     <use xlink:href="#ma20501ec79" x="322.964312" y="3.456" style="fill-opacity: 0; stroke: #000000; stroke-width: 3"/>
    </g>
   </g>
   <g id="patch_3">
    <path d="M 62.208 293.76 
L 62.208 3.456 
" style="fill: none; stroke: #000000; stroke-width: 0.8; stroke-linejoin: miter; stroke-linecap: square"/>
   </g>
   <g id="patch_4">
    <path d="M 460.8 293.76 
L 460.8 3.456 
" style="fill: none; stroke: #000000; stroke-width: 0.8; stroke-linejoin: miter; stroke-linecap: square"/>
   </g>
   <g id="patch_5">
    <path d="M 62.208 293.76 
L 460.8 293.76 
" style="fill: none; stroke: #000000; stroke-width: 0.8; stroke-linejoin: miter; stroke-linecap: square"/>
   </g>
   <g id="patch_6">
    <path d="M 62.208 3.456 
L 460.8 3.456 
" style="fill: none; stroke: #000000; stroke-width: 0.8; stroke-linejoin: miter; stroke-linecap: square"/>
   </g>
   <g id="text_12">
    <!-- f10-f14 -->
    <g transform="translate(225.405563 24.458955)scale(0.2 -0.2)">
     <defs>
      <path id="DejaVuSans-2d" d="M 313 2009 
L 1997 2009 
L 1997 1497 
L 313 1497 
L 313 2009 
z
" transform="scale(0.015625)"/>
     </defs>
     <use xlink:href="#DejaVuSans-66"/>
     <use xlink:href="#DejaVuSans-31" x="35.205078"/>
     <use xlink:href="#DejaVuSans-30" x="98.828125"/>
     <use xlink:href="#DejaVuSans-2d" x="162.451172"/>
     <use xlink:href="#DejaVuSans-66" x="198.535156"/>
     <use xlink:href="#DejaVuSans-31" x="233.740234"/>
     <use xlink:href="#DejaVuSans-34" x="297.363281"/>
    </g>
   </g>
   <g id="text_13">
    <!-- absolute targets -->
    <g transform="translate(62.208 609.932673)scale(0.14 -0.14)">
     <defs>
      <path id="DejaVuSans-62" d="M 3116 1747 
Q 3116 2381 2855 2742 
Q 2594 3103 2138 3103 
Q 1681 3103 1420 2742 
Q 1159 2381 1159 1747 
Q 1159 1113 1420 752 
Q 1681 391 2138 391 
Q 2594 391 2855 752 
Q 3116 1113 3116 1747 
z
M 1159 2969 
Q 1341 3281 1617 3432 
Q 1894 3584 2278 3584 
Q 2916 3584 3314 3078 
Q 3713 2572 3713 1747 
Q 3713 922 3314 415 
Q 2916 -91 2278 -91 
Q 1894 -91 1617 61 
Q 1341 213 1159 525 
L 1159 0 
L 581 0 
L 581 4863 
L 1159 4863 
L 1159 2969 
z
" transform="scale(0.015625)"/>
      <path id="DejaVuSans-75" d="M 544 1381 
L 544 3500 
L 1119 3500 
L 1119 1403 
Q 1119 906 1312 657 
Q 1506 409 1894 409 
Q 2359 409 2629 706 
Q 2900 1003 2900 1516 
L 2900 3500 
L 3475 3500 
L 3475 0 
L 2900 0 
L 2900 538 
Q 2691 219 2414 64 
Q 2138 -91 1772 -91 
Q 1169 -91 856 284 
Q 544 659 544 1381 
z
M 1991 3584 
L 1991 3584 
z
" transform="scale(0.015625)"/>
      <path id="DejaVuSans-65" d="M 3597 1894 
L 3597 1613 
L 953 1613 
Q 991 1019 1311 708 
Q 1631 397 2203 397 
Q 2534 397 2845 478 
Q 3156 559 3463 722 
L 3463 178 
Q 3153 47 2828 -22 
Q 2503 -91 2169 -91 
Q 1331 -91 842 396 
Q 353 884 353 1716 
Q 353 2575 817 3079 
Q 1281 3584 2069 3584 
Q 2775 3584 3186 3129 
Q 3597 2675 3597 1894 
z
M 3022 2063 
Q 3016 2534 2758 2815 
Q 2500 3097 2075 3097 
Q 1594 3097 1305 2825 
Q 1016 2553 972 2059 
L 3022 2063 
z
" transform="scale(0.015625)"/>
     </defs>
     <use xlink:href="#DejaVuSans-61"/>
     <use xlink:href="#DejaVuSans-62" x="61.279297"/>
     <use xlink:href="#DejaVuSans-73" x="124.755859"/>
     <use xlink:href="#DejaVuSans-6f" x="176.855469"/>
     <use xlink:href="#DejaVuSans-6c" x="238.037109"/>
     <use xlink:href="#DejaVuSans-75" x="265.820312"/>
     <use xlink:href="#DejaVuSans-74" x="329.199219"/>
     <use xlink:href="#DejaVuSans-65" x="368.408203"/>
     <use xlink:href="#DejaVuSans-20" x="429.931641"/>
     <use xlink:href="#DejaVuSans-74" x="461.71875"/>
     <use xlink:href="#DejaVuSans-61" x="500.927734"/>
     <use xlink:href="#DejaVuSans-72" x="562.207031"/>
     <use xlink:href="#DejaVuSans-67" x="601.570312"/>
     <use xlink:href="#DejaVuSans-65" x="665.046875"/>
     <use xlink:href="#DejaVuSans-74" x="726.570312"/>
     <use xlink:href="#DejaVuSans-73" x="765.779297"/>
    </g>
   </g>
   <g id="text_14">
    <!-- v2.6.3 -->
    <g style="fill: #808080" transform="translate(245.82275 288.777272)scale(0.1 -0.1)">
     <defs>
      <path id="DejaVuSans-33" d="M 2597 2516 
Q 3050 2419 3304 2112 
Q 3559 1806 3559 1356 
Q 3559 666 3084 287 
Q 2609 -91 1734 -91 
Q 1441 -91 1130 -33 
Q 819 25 488 141 
L 488 750 
Q 750 597 1062 519 
Q 1375 441 1716 441 
Q 2309 441 2620 675 
Q 2931 909 2931 1356 
Q 2931 1769 2642 2001 
Q 2353 2234 1838 2234 
L 1294 2234 
L 1294 2753 
L 1863 2753 
Q 2328 2753 2575 2939 
Q 2822 3125 2822 3475 
Q 2822 3834 2567 4026 
Q 2313 4219 1838 4219 
Q 1578 4219 1281 4162 
Q 984 4106 628 3988 
L 628 4550 
Q 988 4650 1302 4700 
Q 1616 4750 1894 4750 
Q 2613 4750 3031 4423 
Q 3450 4097 3450 3541 
Q 3450 3153 3228 2886 
Q 3006 2619 2597 2516 
z
" transform="scale(0.015625)"/>
     </defs>
     <use xlink:href="#DejaVuSans-76"/>
     <use xlink:href="#DejaVuSans-32" x="59.179688"/>
     <use xlink:href="#DejaVuSans-2e" x="122.802734"/>
     <use xlink:href="#DejaVuSans-36" x="154.589844"/>
     <use xlink:href="#DejaVuSans-2e" x="218.212891"/>
     <use xlink:href="#DejaVuSans-33" x="250"/>
    </g>
   </g>
   <g id="legend_1">
    <g id="patch_7">
     <path d="M 76.208 136.881 
L 160.148625 136.881 
Q 164.148625 136.881 164.148625 132.881 
L 164.148625 17.456 
Q 164.148625 13.456 160.148625 13.456 
L 76.208 13.456 
Q 72.208 13.456 72.208 17.456 
L 72.208 132.881 
Q 72.208 136.881 76.208 136.881 
z
" style="fill: #ffffff; opacity: 0.2; stroke: #cccccc; stroke-linejoin: miter"/>
    </g>
    <g id="line2d_75">
     <path d="M 80.208 29.652875 
L 80.208 29.652875 
L 100.208 29.652875 
L 100.208 29.652875 
L 120.208 29.652875 
" style="fill: none; stroke: #000000; stroke-width: 1.5; stroke-linecap: square"/>
    </g>
    <g id="text_15">
     <!-- 1 -->
     <g transform="translate(136.208 36.652875)scale(0.2 -0.2)">
      <use xlink:href="#DejaVuSans-31"/>
     </g>
    </g>
    <g id="line2d_76">
     <path d="M 80.208 59.009125 
L 80.208 59.009125 
L 100.208 59.009125 
L 100.208 59.009125 
L 120.208 59.009125 
" style="fill: none; stroke: #00bfbf; stroke-width: 1.5; stroke-linecap: square"/>
    </g>
    <g id="text_16">
     <!-- -1 -->
     <g transform="translate(136.208 66.009125)scale(0.2 -0.2)">
      <use xlink:href="#DejaVuSans-2d"/>
      <use xlink:href="#DejaVuSans-31" x="36.083984"/>
     </g>
    </g>
    <g id="line2d_77">
     <path d="M 80.208 88.365375 
L 80.208 88.365375 
L 100.208 88.365375 
L 100.208 88.365375 
L 120.208 88.365375 
" style="fill: none; stroke: #bf00bf; stroke-width: 1.5; stroke-linecap: square"/>
    </g>
    <g id="text_17">
     <!-- -4 -->
     <g transform="translate(136.208 95.365375)scale(0.2 -0.2)">
      <use xlink:href="#DejaVuSans-2d"/>
      <use xlink:href="#DejaVuSans-34" x="36.083984"/>
     </g>
    </g>
    <g id="line2d_78">
     <path d="M 80.208 117.721625 
L 80.208 117.721625 
L 100.208 117.721625 
L 100.208 117.721625 
L 120.208 117.721625 
" style="fill: none; stroke: #ff0000; stroke-width: 3; stroke-linecap: square"/>
    </g>
    <g id="text_18">
     <!-- -8 -->
     <g transform="translate(136.208 124.721625)scale(0.2 -0.2)">
      <use xlink:href="#DejaVuSans-2d"/>
      <use xlink:href="#DejaVuSans-38" x="36.083984"/>
     </g>
    </g>
   </g>
  </g>
 </g>
 <defs>
  <clipPath id="p4b9dc004a6">
   <rect x="62.208" y="3.456" width="398.592" height="290.304"/>
  </clipPath>
 </defs>
</svg>
