<?xml version="1.0" encoding="utf-8" standalone="no"?>
<!DOCTYPE svg PUBLIC "-//W3C//DTD SVG 1.1//EN"
  "http://www.w3.org/Graphics/SVG/1.1/DTD/svg11.dtd">
<svg xmlns:xlink="http://www.w3.org/1999/xlink" width="460.8pt" height="345.6pt" viewBox="0 0 460.8 345.6" xmlns="http://www.w3.org/2000/svg" version="1.1">
 <metadata>
  <rdf:RDF xmlns:dc="http://purl.org/dc/elements/1.1/" xmlns:cc="http://creativecommons.org/ns#" xmlns:rdf="http://www.w3.org/1999/02/22-rdf-syntax-ns#">
   <cc:Work>
    <dc:type rdf:resource="http://purl.org/dc/dcmitype/StillImage"/>
    <dc:date>2023-04-03T10:07:31.726355</dc:date>
    <dc:format>image/svg+xml</dc:format>
    <dc:creator>
     <cc:Agent>
      <dc:title>Matplotlib v3.5.2, https://matplotlib.org/</dc:title>
     </cc:Agent>
    </dc:creator>
   </cc:Work>
  </rdf:RDF>
 </metadata>
 <defs>
  <style type="text/css">*{stroke-linejoin: round; stroke-linecap: butt}</style>
 </defs>
 <g id="figure_1">
  <g id="patch_1">
   <path d="M 0 345.6 
L 460.8 345.6 
L 460.8 0 
L 0 0 
z
" style="fill: #ffffff"/>
  </g>
  <g id="axes_1">
   <g id="patch_2">
    <path d="M 34.16 291.28 
L 453.192 291.28 
L 453.192 3 
L 34.16 3 
z
" style="fill: #ffffff"/>
   </g>
   <g id="matplotlib.axis_1">
    <g id="xtick_1">
     <g id="line2d_1">
      <path d="M 129.965133 291.28 
L 129.965133 3 
" clip-path="url(#p582be75be5)" style="fill: none; stroke: #b0b0b0; stroke-width: 0.8; stroke-linecap: square"/>
     </g>
     <g id="line2d_2">
      <defs>
       <path id="m3cccf52cf9" d="M 0 0 
L 0 3.5 
" style="stroke: #000000; stroke-width: 0.8"/>
      </defs>
      <g>
       <use xlink:href="#m3cccf52cf9" x="129.965133" y="291.28" style="stroke: #000000; stroke-width: 0.8"/>
      </g>
     </g>
     <g id="text_1">
      <!-- -1 -->
      <g transform="translate(119.994821 313.476875)scale(0.2 -0.2)">
       <defs>
        <path id="DejaVuSans-2d" d="M 313 2009 
L 1997 2009 
L 1997 1497 
L 313 1497 
L 313 2009 
z
" transform="scale(0.015625)"/>
        <path id="DejaVuSans-31" d="M 794 531 
L 1825 531 
L 1825 4091 
L 703 3866 
L 703 4441 
L 1819 4666 
L 2450 4666 
L 2450 531 
L 3481 531 
L 3481 0 
L 794 0 
L 794 531 
z
" transform="scale(0.015625)"/>
       </defs>
       <use xlink:href="#DejaVuSans-2d"/>
       <use xlink:href="#DejaVuSans-31" x="36.083984"/>
      </g>
     </g>
    </g>
    <g id="xtick_2">
     <g id="line2d_3">
      <path d="M 243.676 291.28 
L 243.676 3 
" clip-path="url(#p582be75be5)" style="fill: none; stroke: #b0b0b0; stroke-width: 0.8; stroke-linecap: square"/>
     </g>
     <g id="line2d_4">
      <g>
       <use xlink:href="#m3cccf52cf9" x="243.676" y="291.28" style="stroke: #000000; stroke-width: 0.8"/>
      </g>
     </g>
     <g id="text_2">
      <!-- 0 -->
      <g transform="translate(237.3135 313.476875)scale(0.2 -0.2)">
       <defs>
        <path id="DejaVuSans-30" d="M 2034 4250 
Q 1547 4250 1301 3770 
Q 1056 3291 1056 2328 
Q 1056 1369 1301 889 
Q 1547 409 2034 409 
Q 2525 409 2770 889 
Q 3016 1369 3016 2328 
Q 3016 3291 2770 3770 
Q 2525 4250 2034 4250 
z
M 2034 4750 
Q 2819 4750 3233 4129 
Q 3647 3509 3647 2328 
Q 3647 1150 3233 529 
Q 2819 -91 2034 -91 
Q 1250 -91 836 529 
Q 422 1150 422 2328 
Q 422 3509 836 4129 
Q 1250 4750 2034 4750 
z
" transform="scale(0.015625)"/>
       </defs>
       <use xlink:href="#DejaVuSans-30"/>
      </g>
     </g>
    </g>
    <g id="xtick_3">
     <g id="line2d_5">
      <path d="M 357.386867 291.28 
L 357.386867 3 
" clip-path="url(#p582be75be5)" style="fill: none; stroke: #b0b0b0; stroke-width: 0.8; stroke-linecap: square"/>
     </g>
     <g id="line2d_6">
      <g>
       <use xlink:href="#m3cccf52cf9" x="357.386867" y="291.28" style="stroke: #000000; stroke-width: 0.8"/>
      </g>
     </g>
     <g id="text_3">
      <!-- 1 -->
      <g transform="translate(351.024367 313.476875)scale(0.2 -0.2)">
       <use xlink:href="#DejaVuSans-31"/>
      </g>
     </g>
    </g>
    <g id="xtick_4">
     <g id="line2d_7">
      <defs>
       <path id="m638a6005df" d="M 0 0 
L 0 2 
" style="stroke: #000000; stroke-width: 0.6"/>
      </defs>
      <g>
       <use xlink:href="#m638a6005df" x="50.484648" y="291.28" style="stroke: #000000; stroke-width: 0.6"/>
      </g>
     </g>
    </g>
    <g id="xtick_5">
     <g id="line2d_8">
      <g>
       <use xlink:href="#m638a6005df" x="70.508138" y="291.28" style="stroke: #000000; stroke-width: 0.6"/>
      </g>
     </g>
    </g>
    <g id="xtick_6">
     <g id="line2d_9">
      <g>
       <use xlink:href="#m638a6005df" x="84.71503" y="291.28" style="stroke: #000000; stroke-width: 0.6"/>
      </g>
     </g>
    </g>
    <g id="xtick_7">
     <g id="line2d_10">
      <g>
       <use xlink:href="#m638a6005df" x="95.734752" y="291.28" style="stroke: #000000; stroke-width: 0.6"/>
      </g>
     </g>
    </g>
    <g id="xtick_8">
     <g id="line2d_11">
      <g>
       <use xlink:href="#m638a6005df" x="104.73852" y="291.28" style="stroke: #000000; stroke-width: 0.6"/>
      </g>
     </g>
    </g>
    <g id="xtick_9">
     <g id="line2d_12">
      <g>
       <use xlink:href="#m638a6005df" x="112.351097" y="291.28" style="stroke: #000000; stroke-width: 0.6"/>
      </g>
     </g>
    </g>
    <g id="xtick_10">
     <g id="line2d_13">
      <g>
       <use xlink:href="#m638a6005df" x="118.945412" y="291.28" style="stroke: #000000; stroke-width: 0.6"/>
      </g>
     </g>
    </g>
    <g id="xtick_11">
     <g id="line2d_14">
      <g>
       <use xlink:href="#m638a6005df" x="124.762009" y="291.28" style="stroke: #000000; stroke-width: 0.6"/>
      </g>
     </g>
    </g>
    <g id="xtick_12">
     <g id="line2d_15">
      <g>
       <use xlink:href="#m638a6005df" x="164.195515" y="291.28" style="stroke: #000000; stroke-width: 0.6"/>
      </g>
     </g>
    </g>
    <g id="xtick_13">
     <g id="line2d_16">
      <g>
       <use xlink:href="#m638a6005df" x="184.219005" y="291.28" style="stroke: #000000; stroke-width: 0.6"/>
      </g>
     </g>
    </g>
    <g id="xtick_14">
     <g id="line2d_17">
      <g>
       <use xlink:href="#m638a6005df" x="198.425897" y="291.28" style="stroke: #000000; stroke-width: 0.6"/>
      </g>
     </g>
    </g>
    <g id="xtick_15">
     <g id="line2d_18">
      <g>
       <use xlink:href="#m638a6005df" x="209.445618" y="291.28" style="stroke: #000000; stroke-width: 0.6"/>
      </g>
     </g>
    </g>
    <g id="xtick_16">
     <g id="line2d_19">
      <g>
       <use xlink:href="#m638a6005df" x="218.449386" y="291.28" style="stroke: #000000; stroke-width: 0.6"/>
      </g>
     </g>
    </g>
    <g id="xtick_17">
     <g id="line2d_20">
      <g>
       <use xlink:href="#m638a6005df" x="226.061964" y="291.28" style="stroke: #000000; stroke-width: 0.6"/>
      </g>
     </g>
    </g>
    <g id="xtick_18">
     <g id="line2d_21">
      <g>
       <use xlink:href="#m638a6005df" x="232.656278" y="291.28" style="stroke: #000000; stroke-width: 0.6"/>
      </g>
     </g>
    </g>
    <g id="xtick_19">
     <g id="line2d_22">
      <g>
       <use xlink:href="#m638a6005df" x="238.472876" y="291.28" style="stroke: #000000; stroke-width: 0.6"/>
      </g>
     </g>
    </g>
    <g id="xtick_20">
     <g id="line2d_23">
      <g>
       <use xlink:href="#m638a6005df" x="277.906382" y="291.28" style="stroke: #000000; stroke-width: 0.6"/>
      </g>
     </g>
    </g>
    <g id="xtick_21">
     <g id="line2d_24">
      <g>
       <use xlink:href="#m638a6005df" x="297.929871" y="291.28" style="stroke: #000000; stroke-width: 0.6"/>
      </g>
     </g>
    </g>
    <g id="xtick_22">
     <g id="line2d_25">
      <g>
       <use xlink:href="#m638a6005df" x="312.136763" y="291.28" style="stroke: #000000; stroke-width: 0.6"/>
      </g>
     </g>
    </g>
    <g id="xtick_23">
     <g id="line2d_26">
      <g>
       <use xlink:href="#m638a6005df" x="323.156485" y="291.28" style="stroke: #000000; stroke-width: 0.6"/>
      </g>
     </g>
    </g>
    <g id="xtick_24">
     <g id="line2d_27">
      <g>
       <use xlink:href="#m638a6005df" x="332.160253" y="291.28" style="stroke: #000000; stroke-width: 0.6"/>
      </g>
     </g>
    </g>
    <g id="xtick_25">
     <g id="line2d_28">
      <g>
       <use xlink:href="#m638a6005df" x="339.772831" y="291.28" style="stroke: #000000; stroke-width: 0.6"/>
      </g>
     </g>
    </g>
    <g id="xtick_26">
     <g id="line2d_29">
      <g>
       <use xlink:href="#m638a6005df" x="346.367145" y="291.28" style="stroke: #000000; stroke-width: 0.6"/>
      </g>
     </g>
    </g>
    <g id="xtick_27">
     <g id="line2d_30">
      <g>
       <use xlink:href="#m638a6005df" x="352.183743" y="291.28" style="stroke: #000000; stroke-width: 0.6"/>
      </g>
     </g>
    </g>
    <g id="xtick_28">
     <g id="line2d_31">
      <g>
       <use xlink:href="#m638a6005df" x="391.617248" y="291.28" style="stroke: #000000; stroke-width: 0.6"/>
      </g>
     </g>
    </g>
    <g id="xtick_29">
     <g id="line2d_32">
      <g>
       <use xlink:href="#m638a6005df" x="411.640738" y="291.28" style="stroke: #000000; stroke-width: 0.6"/>
      </g>
     </g>
    </g>
    <g id="xtick_30">
     <g id="line2d_33">
      <g>
       <use xlink:href="#m638a6005df" x="425.84763" y="291.28" style="stroke: #000000; stroke-width: 0.6"/>
      </g>
     </g>
    </g>
    <g id="xtick_31">
     <g id="line2d_34">
      <g>
       <use xlink:href="#m638a6005df" x="436.867352" y="291.28" style="stroke: #000000; stroke-width: 0.6"/>
      </g>
     </g>
    </g>
    <g id="xtick_32">
     <g id="line2d_35">
      <g>
       <use xlink:href="#m638a6005df" x="445.87112" y="291.28" style="stroke: #000000; stroke-width: 0.6"/>
      </g>
     </g>
    </g>
    <g id="text_4">
     <!-- log10 of FEvals ratio -->
     <g transform="translate(141.371312 336.833125)scale(0.2 -0.2)">
      <defs>
       <path id="DejaVuSans-6c" d="M 603 4863 
L 1178 4863 
L 1178 0 
L 603 0 
L 603 4863 
z
" transform="scale(0.015625)"/>
       <path id="DejaVuSans-6f" d="M 1959 3097 
Q 1497 3097 1228 2736 
Q 959 2375 959 1747 
Q 959 1119 1226 758 
Q 1494 397 1959 397 
Q 2419 397 2687 759 
Q 2956 1122 2956 1747 
Q 2956 2369 2687 2733 
Q 2419 3097 1959 3097 
z
M 1959 3584 
Q 2709 3584 3137 3096 
Q 3566 2609 3566 1747 
Q 3566 888 3137 398 
Q 2709 -91 1959 -91 
Q 1206 -91 779 398 
Q 353 888 353 1747 
Q 353 2609 779 3096 
Q 1206 3584 1959 3584 
z
" transform="scale(0.015625)"/>
       <path id="DejaVuSans-67" d="M 2906 1791 
Q 2906 2416 2648 2759 
Q 2391 3103 1925 3103 
Q 1463 3103 1205 2759 
Q 947 2416 947 1791 
Q 947 1169 1205 825 
Q 1463 481 1925 481 
Q 2391 481 2648 825 
Q 2906 1169 2906 1791 
z
M 3481 434 
Q 3481 -459 3084 -895 
Q 2688 -1331 1869 -1331 
Q 1566 -1331 1297 -1286 
Q 1028 -1241 775 -1147 
L 775 -588 
Q 1028 -725 1275 -790 
Q 1522 -856 1778 -856 
Q 2344 -856 2625 -561 
Q 2906 -266 2906 331 
L 2906 616 
Q 2728 306 2450 153 
Q 2172 0 1784 0 
Q 1141 0 747 490 
Q 353 981 353 1791 
Q 353 2603 747 3093 
Q 1141 3584 1784 3584 
Q 2172 3584 2450 3431 
Q 2728 3278 2906 2969 
L 2906 3500 
L 3481 3500 
L 3481 434 
z
" transform="scale(0.015625)"/>
       <path id="DejaVuSans-20" transform="scale(0.015625)"/>
       <path id="DejaVuSans-66" d="M 2375 4863 
L 2375 4384 
L 1825 4384 
Q 1516 4384 1395 4259 
Q 1275 4134 1275 3809 
L 1275 3500 
L 2222 3500 
L 2222 3053 
L 1275 3053 
L 1275 0 
L 697 0 
L 697 3053 
L 147 3053 
L 147 3500 
L 697 3500 
L 697 3744 
Q 697 4328 969 4595 
Q 1241 4863 1831 4863 
L 2375 4863 
z
" transform="scale(0.015625)"/>
       <path id="DejaVuSans-46" d="M 628 4666 
L 3309 4666 
L 3309 4134 
L 1259 4134 
L 1259 2759 
L 3109 2759 
L 3109 2228 
L 1259 2228 
L 1259 0 
L 628 0 
L 628 4666 
z
" transform="scale(0.015625)"/>
       <path id="DejaVuSans-45" d="M 628 4666 
L 3578 4666 
L 3578 4134 
L 1259 4134 
L 1259 2753 
L 3481 2753 
L 3481 2222 
L 1259 2222 
L 1259 531 
L 3634 531 
L 3634 0 
L 628 0 
L 628 4666 
z
" transform="scale(0.015625)"/>
       <path id="DejaVuSans-76" d="M 191 3500 
L 800 3500 
L 1894 563 
L 2988 3500 
L 3597 3500 
L 2284 0 
L 1503 0 
L 191 3500 
z
" transform="scale(0.015625)"/>
       <path id="DejaVuSans-61" d="M 2194 1759 
Q 1497 1759 1228 1600 
Q 959 1441 959 1056 
Q 959 750 1161 570 
Q 1363 391 1709 391 
Q 2188 391 2477 730 
Q 2766 1069 2766 1631 
L 2766 1759 
L 2194 1759 
z
M 3341 1997 
L 3341 0 
L 2766 0 
L 2766 531 
Q 2569 213 2275 61 
Q 1981 -91 1556 -91 
Q 1019 -91 701 211 
Q 384 513 384 1019 
Q 384 1609 779 1909 
Q 1175 2209 1959 2209 
L 2766 2209 
L 2766 2266 
Q 2766 2663 2505 2880 
Q 2244 3097 1772 3097 
Q 1472 3097 1187 3025 
Q 903 2953 641 2809 
L 641 3341 
Q 956 3463 1253 3523 
Q 1550 3584 1831 3584 
Q 2591 3584 2966 3190 
Q 3341 2797 3341 1997 
z
" transform="scale(0.015625)"/>
       <path id="DejaVuSans-73" d="M 2834 3397 
L 2834 2853 
Q 2591 2978 2328 3040 
Q 2066 3103 1784 3103 
Q 1356 3103 1142 2972 
Q 928 2841 928 2578 
Q 928 2378 1081 2264 
Q 1234 2150 1697 2047 
L 1894 2003 
Q 2506 1872 2764 1633 
Q 3022 1394 3022 966 
Q 3022 478 2636 193 
Q 2250 -91 1575 -91 
Q 1294 -91 989 -36 
Q 684 19 347 128 
L 347 722 
Q 666 556 975 473 
Q 1284 391 1588 391 
Q 1994 391 2212 530 
Q 2431 669 2431 922 
Q 2431 1156 2273 1281 
Q 2116 1406 1581 1522 
L 1381 1569 
Q 847 1681 609 1914 
Q 372 2147 372 2553 
Q 372 3047 722 3315 
Q 1072 3584 1716 3584 
Q 2034 3584 2315 3537 
Q 2597 3491 2834 3397 
z
" transform="scale(0.015625)"/>
       <path id="DejaVuSans-72" d="M 2631 2963 
Q 2534 3019 2420 3045 
Q 2306 3072 2169 3072 
Q 1681 3072 1420 2755 
Q 1159 2438 1159 1844 
L 1159 0 
L 581 0 
L 581 3500 
L 1159 3500 
L 1159 2956 
Q 1341 3275 1631 3429 
Q 1922 3584 2338 3584 
Q 2397 3584 2469 3576 
Q 2541 3569 2628 3553 
L 2631 2963 
z
" transform="scale(0.015625)"/>
       <path id="DejaVuSans-74" d="M 1172 4494 
L 1172 3500 
L 2356 3500 
L 2356 3053 
L 1172 3053 
L 1172 1153 
Q 1172 725 1289 603 
Q 1406 481 1766 481 
L 2356 481 
L 2356 0 
L 1766 0 
Q 1100 0 847 248 
Q 594 497 594 1153 
L 594 3053 
L 172 3053 
L 172 3500 
L 594 3500 
L 594 4494 
L 1172 4494 
z
" transform="scale(0.015625)"/>
       <path id="DejaVuSans-69" d="M 603 3500 
L 1178 3500 
L 1178 0 
L 603 0 
L 603 3500 
z
M 603 4863 
L 1178 4863 
L 1178 4134 
L 603 4134 
L 603 4863 
z
" transform="scale(0.015625)"/>
      </defs>
      <use xlink:href="#DejaVuSans-6c"/>
      <use xlink:href="#DejaVuSans-6f" x="27.783203"/>
      <use xlink:href="#DejaVuSans-67" x="88.964844"/>
      <use xlink:href="#DejaVuSans-31" x="152.441406"/>
      <use xlink:href="#DejaVuSans-30" x="216.064453"/>
      <use xlink:href="#DejaVuSans-20" x="279.6875"/>
      <use xlink:href="#DejaVuSans-6f" x="311.474609"/>
      <use xlink:href="#DejaVuSans-66" x="372.65625"/>
      <use xlink:href="#DejaVuSans-20" x="407.861328"/>
      <use xlink:href="#DejaVuSans-46" x="439.648438"/>
      <use xlink:href="#DejaVuSans-45" x="497.167969"/>
      <use xlink:href="#DejaVuSans-76" x="560.351562"/>
      <use xlink:href="#DejaVuSans-61" x="619.53125"/>
      <use xlink:href="#DejaVuSans-6c" x="680.810547"/>
      <use xlink:href="#DejaVuSans-73" x="708.59375"/>
      <use xlink:href="#DejaVuSans-20" x="760.693359"/>
      <use xlink:href="#DejaVuSans-72" x="792.480469"/>
      <use xlink:href="#DejaVuSans-61" x="833.59375"/>
      <use xlink:href="#DejaVuSans-74" x="894.873047"/>
      <use xlink:href="#DejaVuSans-69" x="934.082031"/>
      <use xlink:href="#DejaVuSans-6f" x="961.865234"/>
     </g>
    </g>
   </g>
   <g id="matplotlib.axis_2">
    <g id="ytick_1">
     <g id="line2d_36">
      <path d="M 34.16 288.453725 
L 453.192 288.453725 
" clip-path="url(#p582be75be5)" style="fill: none; stroke: #b0b0b0; stroke-width: 0.8; stroke-linecap: square"/>
     </g>
     <g id="line2d_37">
      <defs>
       <path id="m6d75fd7b30" d="M 0 0 
L -3.5 0 
" style="stroke: #000000; stroke-width: 0.8"/>
      </defs>
      <g>
       <use xlink:href="#m6d75fd7b30" x="34.16" y="288.453725" style="stroke: #000000; stroke-width: 0.8"/>
      </g>
     </g>
    </g>
    <g id="ytick_2">
     <g id="line2d_38">
      <path d="M 34.16 217.796863 
L 453.192 217.796863 
" clip-path="url(#p582be75be5)" style="fill: none; stroke: #b0b0b0; stroke-width: 0.8; stroke-linecap: square"/>
     </g>
     <g id="line2d_39">
      <g>
       <use xlink:href="#m6d75fd7b30" x="34.16" y="217.796863" style="stroke: #000000; stroke-width: 0.8"/>
      </g>
     </g>
    </g>
    <g id="ytick_3">
     <g id="line2d_40">
      <path d="M 34.16 147.14 
L 453.192 147.14 
" clip-path="url(#p582be75be5)" style="fill: none; stroke: #b0b0b0; stroke-width: 0.8; stroke-linecap: square"/>
     </g>
     <g id="line2d_41">
      <g>
       <use xlink:href="#m6d75fd7b30" x="34.16" y="147.14" style="stroke: #000000; stroke-width: 0.8"/>
      </g>
     </g>
    </g>
    <g id="ytick_4">
     <g id="line2d_42">
      <path d="M 34.16 76.483137 
L 453.192 76.483137 
" clip-path="url(#p582be75be5)" style="fill: none; stroke: #b0b0b0; stroke-width: 0.8; stroke-linecap: square"/>
     </g>
     <g id="line2d_43">
      <g>
       <use xlink:href="#m6d75fd7b30" x="34.16" y="76.483137" style="stroke: #000000; stroke-width: 0.8"/>
      </g>
     </g>
    </g>
    <g id="ytick_5">
     <g id="line2d_44">
      <path d="M 34.16 5.826275 
L 453.192 5.826275 
" clip-path="url(#p582be75be5)" style="fill: none; stroke: #b0b0b0; stroke-width: 0.8; stroke-linecap: square"/>
     </g>
     <g id="line2d_45">
      <g>
       <use xlink:href="#m6d75fd7b30" x="34.16" y="5.826275" style="stroke: #000000; stroke-width: 0.8"/>
      </g>
     </g>
    </g>
    <g id="text_5">
     <!-- proportion of trials -->
     <g transform="translate(19.000625 240.14625)rotate(-90)scale(0.2 -0.2)">
      <defs>
       <path id="DejaVuSans-70" d="M 1159 525 
L 1159 -1331 
L 581 -1331 
L 581 3500 
L 1159 3500 
L 1159 2969 
Q 1341 3281 1617 3432 
Q 1894 3584 2278 3584 
Q 2916 3584 3314 3078 
Q 3713 2572 3713 1747 
Q 3713 922 3314 415 
Q 2916 -91 2278 -91 
Q 1894 -91 1617 61 
Q 1341 213 1159 525 
z
M 3116 1747 
Q 3116 2381 2855 2742 
Q 2594 3103 2138 3103 
Q 1681 3103 1420 2742 
Q 1159 2381 1159 1747 
Q 1159 1113 1420 752 
Q 1681 391 2138 391 
Q 2594 391 2855 752 
Q 3116 1113 3116 1747 
z
" transform="scale(0.015625)"/>
       <path id="DejaVuSans-6e" d="M 3513 2113 
L 3513 0 
L 2938 0 
L 2938 2094 
Q 2938 2591 2744 2837 
Q 2550 3084 2163 3084 
Q 1697 3084 1428 2787 
Q 1159 2491 1159 1978 
L 1159 0 
L 581 0 
L 581 3500 
L 1159 3500 
L 1159 2956 
Q 1366 3272 1645 3428 
Q 1925 3584 2291 3584 
Q 2894 3584 3203 3211 
Q 3513 2838 3513 2113 
z
" transform="scale(0.015625)"/>
      </defs>
      <use xlink:href="#DejaVuSans-70"/>
      <use xlink:href="#DejaVuSans-72" x="63.476562"/>
      <use xlink:href="#DejaVuSans-6f" x="102.339844"/>
      <use xlink:href="#DejaVuSans-70" x="163.521484"/>
      <use xlink:href="#DejaVuSans-6f" x="226.998047"/>
      <use xlink:href="#DejaVuSans-72" x="288.179688"/>
      <use xlink:href="#DejaVuSans-74" x="329.292969"/>
      <use xlink:href="#DejaVuSans-69" x="368.501953"/>
      <use xlink:href="#DejaVuSans-6f" x="396.285156"/>
      <use xlink:href="#DejaVuSans-6e" x="457.466797"/>
      <use xlink:href="#DejaVuSans-20" x="520.845703"/>
      <use xlink:href="#DejaVuSans-6f" x="552.632812"/>
      <use xlink:href="#DejaVuSans-66" x="613.814453"/>
      <use xlink:href="#DejaVuSans-20" x="649.019531"/>
      <use xlink:href="#DejaVuSans-74" x="680.806641"/>
      <use xlink:href="#DejaVuSans-72" x="720.015625"/>
      <use xlink:href="#DejaVuSans-69" x="761.128906"/>
      <use xlink:href="#DejaVuSans-61" x="788.912109"/>
      <use xlink:href="#DejaVuSans-6c" x="850.191406"/>
      <use xlink:href="#DejaVuSans-73" x="877.974609"/>
     </g>
    </g>
   </g>
   <g id="line2d_46">
    <path d="M 34.16 288.453725 
L 179.68518 288.453725 
L 179.68518 287.511634 
L 186.929031 287.511634 
L 186.929031 286.569542 
L 188.371365 286.569542 
L 188.371365 285.627451 
L 195.289351 285.627451 
L 195.289351 283.743268 
L 196.929297 283.743268 
L 197.008077 281.859085 
L 197.671928 281.859085 
L 197.671928 280.916993 
L 198.425897 280.916993 
L 198.425897 279.974902 
L 200.289665 279.974902 
L 200.289665 279.03281 
L 200.958965 279.03281 
L 200.958965 278.090719 
L 202.178385 278.090719 
L 202.178385 277.148627 
L 202.378726 277.148627 
L 202.378726 276.206536 
L 202.941284 276.206536 
L 202.941284 275.264444 
L 203.818595 275.264444 
L 203.818595 274.322353 
L 205.368396 274.322353 
L 205.368396 272.43817 
L 205.615482 272.43817 
L 205.615482 271.496078 
L 206.358113 271.496078 
L 206.398943 269.611895 
L 208.987649 269.611895 
L 208.987649 268.669804 
L 209.962733 268.669804 
L 209.962733 267.727712 
L 210.368711 267.727712 
L 210.368711 266.785621 
L 211.064911 266.785621 
L 211.064911 265.843529 
L 211.205031 265.843529 
L 211.301603 263.017255 
L 212.664763 263.017255 
L 212.664763 262.075163 
L 212.822363 262.075163 
L 212.822363 261.133072 
L 212.956619 261.133072 
L 212.956619 260.19098 
L 213.89764 260.19098 
L 213.89764 259.248889 
L 215.670013 259.248889 
L 215.670013 258.306797 
L 216.301918 258.306797 
L 216.412644 256.422614 
L 217.57531 256.422614 
L 217.675731 253.59634 
L 218.203082 253.59634 
L 218.203082 252.654248 
L 218.449386 252.654248 
L 218.534605 250.770065 
L 218.701991 250.770065 
L 218.701991 249.827974 
L 218.945712 249.827974 
L 219.008984 247.943791 
L 219.066694 247.943791 
L 219.066694 247.001699 
L 219.35554 247.001699 
L 219.422502 244.175425 
L 219.830847 244.175425 
L 219.830847 243.233333 
L 220.165132 243.233333 
L 220.208799 241.34915 
L 220.43494 241.34915 
L 220.43494 240.407059 
L 221.08653 240.407059 
L 221.119442 238.522876 
L 221.428219 238.522876 
L 221.428219 237.580784 
L 222.469603 237.580784 
L 222.546262 235.696601 
L 222.901408 235.696601 
L 222.901408 234.75451 
L 223.324376 234.75451 
L 223.391908 232.870327 
L 223.65251 232.870327 
L 223.65251 231.928235 
L 224.784108 231.928235 
L 224.87193 230.044052 
L 224.999901 230.044052 
L 224.999901 229.101961 
L 225.481757 229.101961 
L 225.516279 227.217778 
L 225.658228 227.217778 
L 225.658228 226.275686 
L 226.386504 226.275686 
L 226.422433 223.449412 
L 227.059654 223.449412 
L 227.059654 222.50732 
L 227.20685 222.50732 
L 227.20685 221.565229 
L 227.467368 221.565229 
L 227.55723 219.681046 
L 227.770228 219.681046 
L 227.770228 218.738954 
L 227.94948 218.738954 
L 227.94948 217.796863 
L 228.359308 217.796863 
L 228.416104 215.91268 
L 228.519386 215.91268 
L 228.595032 214.028497 
L 228.760574 214.028497 
L 228.834615 211.202222 
L 229.22996 211.202222 
L 229.260296 208.375948 
L 229.795076 208.375948 
L 229.795076 207.433856 
L 230.090299 207.433856 
L 230.200736 205.549673 
L 230.513986 205.549673 
L 230.513986 204.607582 
L 230.65395 204.607582 
L 230.65395 203.66549 
L 230.943367 203.66549 
L 230.943367 202.723399 
L 231.308483 202.723399 
L 231.309719 200.839216 
L 231.498142 200.839216 
L 231.535686 198.955033 
L 232.328144 198.955033 
L 232.328144 198.012941 
L 232.60349 198.012941 
L 232.656278 195.186667 
L 233.410247 195.186667 
L 233.410247 194.244575 
L 233.530354 194.244575 
L 233.547564 192.360392 
L 233.668577 192.360392 
L 233.668577 191.418301 
L 234.240928 191.418301 
L 234.240928 190.476209 
L 234.389228 190.476209 
L 234.418329 188.592026 
L 234.714243 188.592026 
L 234.819427 186.707843 
L 235.079645 186.707843 
L 235.099802 184.82366 
L 235.23342 184.82366 
L 235.333067 182.939477 
L 235.426201 182.939477 
L 235.426201 181.997386 
L 235.539727 181.997386 
L 235.650165 178.22902 
L 235.693503 178.22902 
L 235.693503 177.286928 
L 235.943993 177.286928 
L 235.943993 176.344837 
L 236.063423 176.344837 
L 236.063423 175.402745 
L 236.233712 175.402745 
L 236.233712 173.518562 
L 236.436134 173.518562 
L 236.530314 169.750196 
L 236.680731 169.750196 
L 236.773996 167.866013 
L 237.007368 167.866013 
L 237.016521 165.98183 
L 237.282843 165.98183 
L 237.348867 164.097647 
L 237.590279 164.097647 
L 237.699221 161.271373 
L 237.777573 161.271373 
L 237.777573 160.329281 
L 237.993416 160.329281 
L 238.091798 158.445098 
L 238.438354 158.445098 
L 238.438354 157.503007 
L 239.558282 157.503007 
L 239.586713 155.618824 
L 239.951273 155.618824 
L 239.951273 154.676732 
L 240.268856 154.676732 
L 240.268856 153.734641 
L 240.636025 153.734641 
L 240.636025 152.792549 
L 240.96935 152.792549 
L 240.96935 151.850458 
L 241.142932 151.850458 
L 241.142932 150.908366 
L 241.315906 150.908366 
L 241.387529 148.082092 
L 241.512851 148.082092 
L 241.586939 146.197908 
L 242.223425 146.197908 
L 242.223425 145.255817 
L 242.398756 145.255817 
L 242.493093 142.429542 
L 242.590594 142.429542 
L 242.590594 141.487451 
L 243.321991 141.487451 
L 243.321991 140.545359 
L 243.489293 140.545359 
L 243.489293 139.603268 
L 244.032565 139.603268 
L 244.096292 137.719085 
L 244.513037 137.719085 
L 244.599092 135.834902 
L 244.831234 135.834902 
L 244.831234 134.89281 
L 245.214567 134.89281 
L 245.214567 133.950719 
L 245.505246 133.950719 
L 245.505246 132.066536 
L 245.684499 132.066536 
L 245.684499 131.124444 
L 245.839149 131.124444 
L 245.839149 130.182353 
L 246.085454 130.182353 
L 246.119523 126.413987 
L 246.209068 126.413987 
L 246.209068 125.471895 
L 246.411813 125.471895 
L 246.411813 124.529804 
L 246.581779 124.529804 
L 246.581779 123.587712 
L 247.095566 123.587712 
L 247.095566 122.645621 
L 247.320736 122.645621 
L 247.335748 120.761438 
L 247.452413 120.761438 
L 247.476644 118.877255 
L 247.58072 118.877255 
L 247.6688 116.05098 
L 247.843387 116.05098 
L 247.843387 115.108889 
L 248.353058 115.108889 
L 248.382798 111.340523 
L 248.649659 111.340523 
L 248.67415 109.45634 
L 249.4225 109.45634 
L 249.4225 108.514248 
L 249.818566 108.514248 
L 249.900395 106.630065 
L 250.488989 106.630065 
L 250.488989 105.687974 
L 250.618499 105.687974 
L 250.720939 102.861699 
L 251.187691 102.861699 
L 251.288577 100.035425 
L 251.617706 100.035425 
L 251.686303 98.151242 
L 251.898264 98.151242 
L 251.898264 97.20915 
L 252.088336 97.20915 
L 252.088336 95.324967 
L 252.384937 95.324967 
L 252.384937 94.382876 
L 252.798909 94.382876 
L 252.798909 92.498693 
L 253.028773 92.498693 
L 253.095511 89.672418 
L 253.496051 89.672418 
L 253.553844 86.846144 
L 253.81799 86.846144 
L 253.81799 85.904052 
L 254.251485 85.904052 
L 254.264418 84.019869 
L 254.563855 84.019869 
L 254.563855 83.077778 
L 254.994115 83.077778 
L 254.994115 82.135686 
L 255.123291 82.135686 
L 255.123291 81.193595 
L 255.349824 81.193595 
L 255.349824 80.251503 
L 256.021933 80.251503 
L 256.021933 79.309412 
L 256.378694 79.309412 
L 256.378694 78.36732 
L 257.414794 78.36732 
L 257.414794 77.425229 
L 259.034086 77.425229 
L 259.034086 76.483137 
L 259.440876 76.483137 
L 259.440876 75.541046 
L 259.700913 75.541046 
L 259.700913 74.598954 
L 260.005506 74.598954 
L 260.005506 73.656863 
L 260.166952 73.656863 
L 260.166952 72.714771 
L 260.583697 72.714771 
L 260.583697 71.77268 
L 261.002919 71.77268 
L 261.002919 70.830588 
L 261.911638 70.830588 
L 261.911638 69.888497 
L 262.735869 69.888497 
L 262.735869 68.946405 
L 263.179106 68.946405 
L 263.179106 68.004314 
L 263.348001 68.004314 
L 263.453185 66.120131 
L 263.595851 66.120131 
L 263.69949 64.235948 
L 264.195816 64.235948 
L 264.239211 62.351765 
L 264.912917 62.351765 
L 264.912917 61.409673 
L 265.650278 61.409673 
L 265.655547 59.52549 
L 265.937335 59.52549 
L 265.996834 57.641307 
L 266.056657 57.641307 
L 266.056657 56.699216 
L 266.473402 56.699216 
L 266.473402 55.757124 
L 268.365826 55.757124 
L 268.365826 53.872941 
L 268.687432 53.872941 
L 268.687432 52.93085 
L 268.902614 52.93085 
L 268.902614 51.988758 
L 269.672614 51.988758 
L 269.672614 51.046667 
L 270.362346 51.046667 
L 270.383187 49.162484 
L 272.157573 49.162484 
L 272.157573 48.220392 
L 273.063727 48.220392 
L 273.063727 46.336209 
L 273.36614 46.336209 
L 273.36614 45.394118 
L 273.609412 45.394118 
L 273.609412 44.452026 
L 275.401867 44.452026 
L 275.511537 42.567843 
L 275.711176 42.567843 
L 275.711176 41.625752 
L 276.89507 41.625752 
L 276.89507 40.68366 
L 277.906382 40.68366 
L 277.906382 39.741569 
L 278.17698 39.741569 
L 278.17698 38.799477 
L 278.52369 38.799477 
L 278.52369 37.857386 
L 279.244783 37.857386 
L 279.317449 35.973203 
L 281.059623 35.973203 
L 281.059623 35.031111 
L 281.401242 35.031111 
L 281.401242 34.08902 
L 282.064124 34.08902 
L 282.064124 33.146928 
L 285.898838 33.146928 
L 285.898838 32.204837 
L 286.592567 32.204837 
L 286.592567 31.262745 
L 289.636677 31.262745 
L 289.636677 30.320654 
L 290.737586 30.320654 
L 290.737586 29.378562 
L 291.154331 29.378562 
L 291.154331 28.436471 
L 291.778466 28.436471 
L 291.778466 27.494379 
L 293.511415 27.494379 
L 293.511415 26.552288 
L 299.462979 26.552288 
L 299.462979 25.610196 
L 304.384958 25.610196 
L 304.384958 24.668105 
L 306.08217 24.668105 
L 306.08217 23.726013 
L 306.486722 23.726013 
L 306.486722 22.783922 
L 308.681928 22.783922 
L 308.681928 21.84183 
L 310.092996 21.84183 
L 310.092996 20.899739 
L 320.412223 20.899739 
L 320.412223 19.957647 
L 370.343464 19.957647 
L 370.343464 19.015556 
L 379.029649 19.015556 
L 379.029649 18.073464 
L 389.08418 18.073464 
L 389.08418 17.131373 
L 391.617248 17.131373 
L 391.617248 16.189281 
L 392.836669 16.189281 
L 392.836669 15.24719 
L 400.621017 15.24719 
L 400.621017 14.305098 
L 403.614903 14.305098 
L 403.614903 13.363007 
L 408.233594 13.363007 
L 408.233594 12.420915 
L 409.10767 12.420915 
L 409.10767 11.478824 
L 414.050192 11.478824 
L 414.050192 10.536732 
L 419.253316 10.536732 
L 419.253316 9.594641 
L 423.314562 9.594641 
L 423.314562 8.652549 
L 427.665652 8.652549 
L 427.665652 7.710458 
L 436.867352 7.710458 
L 436.867352 6.768366 
L 438.327084 6.768366 
L 438.327084 5.826275 
L 453.192 5.826275 
L 453.192 5.826275 
" clip-path="url(#p582be75be5)" style="fill: none; stroke: #000000; stroke-width: 3; stroke-linecap: square"/>
   </g>
   <g id="line2d_47">
    <path clip-path="url(#p582be75be5)" style="fill: none; stroke: #000000; stroke-width: 3; stroke-linecap: square"/>
   </g>
   <g id="line2d_48">
    <path d="M 34.16 288.453725 
L 141.028758 288.453725 
L 141.028758 287.511634 
L 167.889762 287.511634 
L 167.889762 286.569542 
L 171.629339 286.569542 
L 171.629339 285.627451 
L 172.243307 285.627451 
L 172.243307 284.685359 
L 174.611279 284.685359 
L 174.611279 283.743268 
L 177.284964 283.743268 
L 177.284964 281.859085 
L 178.306075 281.859085 
L 178.378382 279.974902 
L 179.643872 279.974902 
L 179.643872 279.03281 
L 180.667533 279.03281 
L 180.667533 278.090719 
L 183.183391 278.090719 
L 183.183391 277.148627 
L 183.9617 277.148627 
L 183.9617 275.264444 
L 184.633597 275.264444 
L 184.633597 274.322353 
L 184.90238 274.322353 
L 184.90238 273.380261 
L 185.055117 273.380261 
L 185.055117 272.43817 
L 185.299497 272.43817 
L 185.299497 270.553987 
L 185.732809 270.553987 
L 185.732809 269.611895 
L 186.392915 269.611895 
L 186.392915 268.669804 
L 187.344269 268.669804 
L 187.344269 267.727712 
L 188.296687 267.727712 
L 188.296687 266.785621 
L 188.682066 266.785621 
L 188.699459 264.901438 
L 189.844902 264.901438 
L 189.860127 263.017255 
L 191.168329 263.017255 
L 191.197924 261.133072 
L 191.310332 261.133072 
L 191.310332 260.19098 
L 192.409545 260.19098 
L 192.409545 259.248889 
L 192.64813 259.248889 
L 192.64813 258.306797 
L 193.00757 258.306797 
L 193.00757 257.364706 
L 193.747342 257.364706 
L 193.747342 256.422614 
L 194.098304 256.422614 
L 194.098304 255.480523 
L 195.204552 255.480523 
L 195.204552 254.538431 
L 195.694288 254.538431 
L 195.694288 253.59634 
L 196.183903 253.59634 
L 196.183903 252.654248 
L 197.845064 252.654248 
L 197.845064 251.712157 
L 199.181418 251.712157 
L 199.182862 249.827974 
L 199.823092 249.827974 
L 199.823092 248.885882 
L 204.214831 248.885882 
L 204.214831 247.943791 
L 206.499828 247.943791 
L 206.499828 247.001699 
L 207.837625 247.001699 
L 207.837625 246.059608 
L 208.073752 246.059608 
L 208.073752 245.117516 
L 209.095789 245.117516 
L 209.095789 244.175425 
L 211.043084 244.175425 
L 211.043084 243.233333 
L 211.692359 243.233333 
L 211.692359 242.291242 
L 216.845125 242.291242 
L 216.845125 241.34915 
L 217.56792 241.34915 
L 217.56792 240.407059 
L 218.842104 240.407059 
L 218.842104 239.464967 
L 219.232388 239.464967 
L 219.232388 238.522876 
L 220.355381 238.522876 
L 220.355381 237.580784 
L 221.493775 237.580784 
L 221.493775 236.638693 
L 221.846553 236.638693 
L 221.846553 235.696601 
L 222.555292 235.696601 
L 222.555292 234.75451 
L 223.044907 234.75451 
L 223.044907 233.812418 
L 223.35983 233.812418 
L 223.35983 232.870327 
L 223.513596 232.870327 
L 223.513596 231.928235 
L 223.956125 231.928235 
L 223.956125 230.986144 
L 224.498224 230.986144 
L 224.498224 230.044052 
L 225.085964 230.044052 
L 225.085964 229.101961 
L 225.469403 229.101961 
L 225.469403 228.159869 
L 225.784525 228.159869 
L 225.784525 227.217778 
L 226.25487 227.217778 
L 226.25487 226.275686 
L 226.482928 226.275686 
L 226.560377 224.391503 
L 226.607796 224.391503 
L 226.638437 222.50732 
L 226.829109 222.50732 
L 226.908836 220.623137 
L 227.113744 220.623137 
L 227.113744 219.681046 
L 227.398452 219.681046 
L 227.398452 218.738954 
L 228.753856 218.738954 
L 228.753856 217.796863 
L 229.276808 217.796863 
L 229.333624 215.91268 
L 229.766424 215.91268 
L 229.766424 214.970588 
L 230.051949 214.970588 
L 230.051949 214.028497 
L 230.23181 214.028497 
L 230.23181 213.086405 
L 231.02289 213.086405 
L 231.02289 212.144314 
L 232.216002 212.144314 
L 232.284968 209.318039 
L 232.851417 209.318039 
L 232.851417 208.375948 
L 233.309419 208.375948 
L 233.309419 207.433856 
L 234.237367 207.433856 
L 234.237367 206.491765 
L 234.511441 206.491765 
L 234.555897 204.607582 
L 234.672232 204.607582 
L 234.672232 203.66549 
L 235.598571 203.66549 
L 235.610355 201.781307 
L 235.820749 201.781307 
L 235.820749 200.839216 
L 235.956793 200.839216 
L 235.956793 199.897124 
L 236.908546 199.897124 
L 236.943161 197.07085 
L 237.10101 197.07085 
L 237.10101 196.128758 
L 237.515889 196.128758 
L 237.515889 195.186667 
L 237.996507 195.186667 
L 237.996507 194.244575 
L 238.114429 194.244575 
L 238.114429 193.302484 
L 238.246344 193.302484 
L 238.246344 192.360392 
L 239.564635 192.360392 
L 239.625462 188.592026 
L 239.947135 188.592026 
L 240.057525 186.707843 
L 240.310338 186.707843 
L 240.310338 185.765752 
L 240.525807 185.765752 
L 240.58168 183.881569 
L 240.663847 183.881569 
L 240.663847 182.939477 
L 241.000956 182.939477 
L 241.000956 181.997386 
L 241.62279 181.997386 
L 241.694714 179.171111 
L 241.932591 179.171111 
L 241.932591 178.22902 
L 242.056707 178.22902 
L 242.078281 176.344837 
L 242.21838 176.344837 
L 242.268953 174.460654 
L 242.435453 174.460654 
L 242.435453 173.518562 
L 242.553588 173.518562 
L 242.586603 170.692288 
L 242.678309 170.692288 
L 242.678309 169.750196 
L 242.796736 169.750196 
L 242.796736 168.808105 
L 242.962217 168.808105 
L 243.051317 166.923922 
L 243.110528 166.923922 
L 243.137015 165.039739 
L 243.364989 165.039739 
L 243.451833 163.155556 
L 243.586129 163.155556 
L 243.586129 162.213464 
L 243.854604 162.213464 
L 243.965643 160.329281 
L 244.010053 160.329281 
L 244.010053 159.38719 
L 244.275409 159.38719 
L 244.34921 157.503007 
L 244.391377 157.503007 
L 244.428924 155.618824 
L 244.510432 155.618824 
L 244.564594 152.792549 
L 244.696175 152.792549 
L 244.773467 150.908366 
L 244.824517 150.908366 
L 244.824517 149.966275 
L 245.000047 149.966275 
L 245.000047 149.024183 
L 245.222829 149.024183 
L 245.222829 148.082092 
L 245.439902 148.082092 
L 245.544807 145.255817 
L 245.653507 145.255817 
L 245.702988 142.429542 
L 246.099367 142.429542 
L 246.099367 141.487451 
L 246.268175 141.487451 
L 246.268175 140.545359 
L 246.462734 140.545359 
L 246.462734 139.603268 
L 246.984475 139.603268 
L 247.044396 137.719085 
L 247.319856 137.719085 
L 247.332401 135.834902 
L 247.549474 135.834902 
L 247.549474 134.89281 
L 247.6731 134.89281 
L 247.762722 133.008627 
L 248.162716 133.008627 
L 248.162716 132.066536 
L 248.731046 132.066536 
L 248.782468 128.29817 
L 249.253449 128.29817 
L 249.272624 126.413987 
L 249.428504 126.413987 
L 249.428504 125.471895 
L 249.677211 125.471895 
L 249.68438 123.587712 
L 249.863629 123.587712 
L 249.870082 121.703529 
L 249.988923 121.703529 
L 249.988923 120.761438 
L 250.359697 120.761438 
L 250.359697 119.819346 
L 251.032535 119.819346 
L 251.068113 116.993072 
L 251.15044 116.993072 
L 251.15044 116.05098 
L 251.346848 116.05098 
L 251.416102 113.224706 
L 251.606774 113.224706 
L 251.606774 112.282614 
L 251.735495 112.282614 
L 251.735495 111.340523 
L 251.891409 111.340523 
L 251.94814 109.45634 
L 252.098496 109.45634 
L 252.098496 108.514248 
L 252.330243 108.514248 
L 252.40591 106.630065 
L 252.540854 106.630065 
L 252.540854 105.687974 
L 252.969411 105.687974 
L 252.975482 102.861699 
L 253.321128 102.861699 
L 253.321128 101.919608 
L 253.668041 101.919608 
L 253.734111 100.035425 
L 253.845067 100.035425 
L 253.846948 98.151242 
L 254.068899 98.151242 
L 254.111289 96.267059 
L 254.336564 96.267059 
L 254.336564 95.324967 
L 254.75413 95.324967 
L 254.829614 92.498693 
L 255.800555 92.498693 
L 255.800555 91.556601 
L 256.10524 91.556601 
L 256.10524 90.61451 
L 256.35805 90.61451 
L 256.363718 87.788235 
L 256.76649 87.788235 
L 256.76649 86.846144 
L 257.293074 86.846144 
L 257.293074 85.904052 
L 257.443037 85.904052 
L 257.443037 84.961961 
L 257.698914 84.961961 
L 257.698914 84.019869 
L 257.911933 84.019869 
L 257.911933 83.077778 
L 258.720654 83.077778 
L 258.720654 82.135686 
L 258.873909 82.135686 
L 258.880361 80.251503 
L 259.015032 80.251503 
L 259.015032 79.309412 
L 259.369977 79.309412 
L 259.369977 78.36732 
L 259.587687 78.36732 
L 259.587687 77.425229 
L 259.72432 77.425229 
L 259.72432 76.483137 
L 260.324114 76.483137 
L 260.38802 74.598954 
L 260.756593 74.598954 
L 260.778141 72.714771 
L 261.074601 72.714771 
L 261.151899 69.888497 
L 261.330833 69.888497 
L 261.441542 67.062222 
L 261.615467 67.062222 
L 261.615467 66.120131 
L 261.878675 66.120131 
L 261.878675 65.178039 
L 262.165335 65.178039 
L 262.20572 63.293856 
L 262.363788 63.293856 
L 262.363788 62.351765 
L 263.271583 62.351765 
L 263.363314 60.467582 
L 263.791367 60.467582 
L 263.835347 58.583399 
L 264.553672 58.583399 
L 264.553672 57.641307 
L 264.790893 57.641307 
L 264.835849 55.757124 
L 265.000014 55.757124 
L 265.000014 54.815033 
L 265.217087 54.815033 
L 265.238621 52.93085 
L 265.524613 52.93085 
L 265.524613 51.988758 
L 266.357889 51.988758 
L 266.427593 49.162484 
L 266.644666 49.162484 
L 266.644666 48.220392 
L 266.847504 48.220392 
L 266.858846 46.336209 
L 267.248449 46.336209 
L 267.248449 45.394118 
L 268.73909 45.394118 
L 268.73909 44.452026 
L 269.049809 44.452026 
L 269.049809 43.509935 
L 269.546732 43.509935 
L 269.546732 42.567843 
L 269.766108 42.567843 
L 269.766108 41.625752 
L 270.112078 41.625752 
L 270.112078 40.68366 
L 270.477388 40.68366 
L 270.477388 39.741569 
L 270.637466 39.741569 
L 270.637466 38.799477 
L 271.193688 38.799477 
L 271.193688 37.857386 
L 271.51268 37.857386 
L 271.602733 35.973203 
L 271.743714 35.973203 
L 271.743714 35.031111 
L 272.281862 35.031111 
L 272.281862 34.08902 
L 272.940259 34.08902 
L 272.940259 33.146928 
L 275.513609 33.146928 
L 275.513609 32.204837 
L 275.72058 32.204837 
L 275.72058 31.262745 
L 279.75939 31.262745 
L 279.75939 30.320654 
L 280.753993 30.320654 
L 280.753993 29.378562 
L 285.162848 29.378562 
L 285.162848 28.436471 
L 285.957557 28.436471 
L 285.957557 27.494379 
L 288.231521 27.494379 
L 288.231521 26.552288 
L 288.962006 26.552288 
L 288.962006 25.610196 
L 291.071578 25.610196 
L 291.071578 24.668105 
L 296.598121 24.668105 
L 296.598121 23.726013 
L 297.087736 23.726013 
L 297.087736 22.783922 
L 297.263564 22.783922 
L 297.263564 21.84183 
L 299.322415 21.84183 
L 299.322415 20.899739 
L 300.268012 20.899739 
L 300.268012 19.957647 
L 300.584545 19.957647 
L 300.584545 19.015556 
L 302.377585 19.015556 
L 302.377585 18.073464 
L 304.359542 18.073464 
L 304.359542 17.131373 
L 304.615418 17.131373 
L 304.615418 16.189281 
L 305.922328 16.189281 
L 305.922328 15.24719 
L 308.739191 15.24719 
L 308.739191 14.305098 
L 309.999622 14.305098 
L 309.999622 13.363007 
L 310.16677 13.363007 
L 310.16677 12.420915 
L 318.471753 12.420915 
L 318.471753 11.478824 
L 320.045197 11.478824 
L 320.081894 9.594641 
L 321.344025 9.594641 
L 321.344025 8.652549 
L 321.472776 8.652549 
L 321.472776 7.710458 
L 325.119021 7.710458 
L 325.119021 6.768366 
L 325.374898 6.768366 
L 325.374898 5.826275 
L 453.192 5.826275 
L 453.192 5.826275 
" clip-path="url(#p582be75be5)" style="fill: none; stroke: #00bfbf; stroke-width: 3; stroke-linecap: square"/>
   </g>
   <g id="line2d_49">
    <path clip-path="url(#p582be75be5)" style="fill: none; stroke: #00bfbf; stroke-width: 3; stroke-linecap: square"/>
   </g>
   <g id="line2d_50">
    <path d="M 34.16 288.453725 
L 168.902313 288.453725 
L 168.902313 287.511634 
L 182.892893 287.511634 
L 182.892893 286.569542 
L 183.620733 286.569542 
L 183.620733 285.627451 
L 184.029431 285.627451 
L 184.029431 284.685359 
L 184.76469 284.685359 
L 184.76469 283.743268 
L 186.487562 283.743268 
L 186.487562 282.801176 
L 189.785693 282.801176 
L 189.785693 281.859085 
L 191.375423 281.859085 
L 191.375423 280.916993 
L 191.66088 280.916993 
L 191.66088 279.974902 
L 191.78412 279.974902 
L 191.78412 279.03281 
L 192.069578 279.03281 
L 192.069578 278.090719 
L 192.656761 278.090719 
L 192.715616 276.206536 
L 197.484441 276.206536 
L 197.540383 274.322353 
L 197.825841 274.322353 
L 197.825841 273.380261 
L 198.299108 273.380261 
L 198.299108 272.43817 
L 198.835725 272.43817 
L 198.835725 271.496078 
L 199.273307 271.496078 
L 199.273307 270.553987 
L 199.706591 270.553987 
L 199.707047 268.669804 
L 200.470305 268.669804 
L 200.470305 267.727712 
L 200.684375 267.727712 
L 200.755763 265.843529 
L 202.553743 265.843529 
L 202.553743 264.901438 
L 203.733376 264.901438 
L 203.733376 263.959346 
L 205.239131 263.959346 
L 205.239131 263.017255 
L 205.524588 263.017255 
L 205.524588 262.075163 
L 207.461281 262.075163 
L 207.461281 261.133072 
L 207.746738 261.133072 
L 207.746738 260.19098 
L 208.240758 260.19098 
L 208.240758 259.248889 
L 214.029452 259.248889 
L 214.029452 258.306797 
L 214.221437 258.306797 
L 214.221437 257.364706 
L 214.438149 257.364706 
L 214.438149 256.422614 
L 215.370254 256.422614 
L 215.370254 255.480523 
L 215.89215 255.480523 
L 215.89215 254.538431 
L 220.194412 254.538431 
L 220.194412 253.59634 
L 221.415871 253.59634 
L 221.415871 252.654248 
L 223.124334 252.654248 
L 223.124334 251.712157 
L 224.105994 251.712157 
L 224.105994 250.770065 
L 225.089237 250.770065 
L 225.089237 249.827974 
L 225.251342 249.827974 
L 225.251342 248.885882 
L 227.11207 248.885882 
L 227.11207 247.943791 
L 227.893159 247.943791 
L 227.893159 247.001699 
L 228.876825 247.001699 
L 228.876825 246.059608 
L 229.360833 246.059608 
L 229.392768 244.175425 
L 229.88273 244.175425 
L 229.88273 243.233333 
L 230.115309 243.233333 
L 230.115309 242.291242 
L 230.456099 242.291242 
L 230.456099 241.34915 
L 231.038675 241.34915 
L 231.038675 240.407059 
L 231.23263 240.407059 
L 231.23263 239.464967 
L 231.566947 239.464967 
L 231.566947 238.522876 
L 231.754527 238.522876 
L 231.754527 237.580784 
L 232.106951 237.580784 
L 232.106951 236.638693 
L 232.55019 236.638693 
L 232.55019 235.696601 
L 232.955503 235.696601 
L 233.01324 233.812418 
L 233.145502 233.812418 
L 233.146221 231.928235 
L 233.415213 231.928235 
L 233.491976 228.159869 
L 234.129464 228.159869 
L 234.129464 227.217778 
L 234.318566 227.217778 
L 234.38765 225.333595 
L 235.418254 225.333595 
L 235.426201 223.449412 
L 235.695912 223.449412 
L 235.695912 222.50732 
L 236.187092 222.50732 
L 236.187092 221.565229 
L 236.413914 221.565229 
L 236.413914 220.623137 
L 236.672147 220.623137 
L 236.672147 219.681046 
L 237.47064 219.681046 
L 237.47064 218.738954 
L 237.698953 218.738954 
L 237.698953 217.796863 
L 237.950433 217.796863 
L 237.950433 216.854771 
L 238.180662 216.854771 
L 238.180662 214.970588 
L 238.375663 214.970588 
L 238.46779 213.086405 
L 238.793365 213.086405 
L 238.79578 211.202222 
L 239.078822 211.202222 
L 239.1782 208.375948 
L 239.241922 208.375948 
L 239.241922 207.433856 
L 239.533597 207.433856 
L 239.562096 205.549673 
L 239.646598 205.549673 
L 239.725702 203.66549 
L 240.15157 203.66549 
L 240.15157 202.723399 
L 240.461361 202.723399 
L 240.461361 200.839216 
L 240.606126 200.839216 
L 240.656362 198.955033 
L 240.952929 198.955033 
L 240.952929 198.012941 
L 241.113719 198.012941 
L 241.113719 197.07085 
L 241.408795 197.07085 
L 241.408795 196.128758 
L 241.850876 196.128758 
L 241.850876 195.186667 
L 242.108122 195.186667 
L 242.108122 194.244575 
L 242.252218 194.244575 
L 242.347202 192.360392 
L 242.447346 192.360392 
L 242.532203 189.534118 
L 242.717057 189.534118 
L 242.717057 188.592026 
L 242.836592 188.592026 
L 242.836592 187.649935 
L 243.126265 187.649935 
L 243.235462 185.765752 
L 243.523815 185.765752 
L 243.614919 182.939477 
L 243.723691 182.939477 
L 243.723691 181.997386 
L 244.067766 181.997386 
L 244.1331 179.171111 
L 244.240395 179.171111 
L 244.240891 177.286928 
L 244.360502 177.286928 
L 244.360502 176.344837 
L 244.627901 176.344837 
L 244.720098 174.460654 
L 244.767049 174.460654 
L 244.767049 173.518562 
L 244.931593 173.518562 
L 244.931593 172.576471 
L 245.288946 172.576471 
L 245.303665 170.692288 
L 245.411386 170.692288 
L 245.488936 168.808105 
L 245.712374 168.808105 
L 245.741248 166.923922 
L 245.825562 166.923922 
L 245.869216 165.039739 
L 246.174987 165.039739 
L 246.263145 162.213464 
L 246.348465 162.213464 
L 246.413813 160.329281 
L 246.510867 160.329281 
L 246.52159 158.445098 
L 246.626938 158.445098 
L 246.696884 155.618824 
L 246.876948 155.618824 
L 246.876948 154.676732 
L 246.99066 154.676732 
L 246.99066 153.734641 
L 247.152315 153.734641 
L 247.186655 151.850458 
L 247.288286 151.850458 
L 247.397057 149.966275 
L 247.482506 149.966275 
L 247.573744 145.255817 
L 247.612523 145.255817 
L 247.677507 142.429542 
L 247.836008 142.429542 
L 247.836008 141.487451 
L 248.06708 141.487451 
L 248.06708 140.545359 
L 248.242534 140.545359 
L 248.309146 138.661176 
L 248.390169 138.661176 
L 248.390169 137.719085 
L 248.561618 137.719085 
L 248.6098 135.834902 
L 248.765929 135.834902 
L 248.831329 133.950719 
L 248.924871 133.950719 
L 249.021684 130.182353 
L 249.099098 130.182353 
L 249.191797 128.29817 
L 249.54358 128.29817 
L 249.648351 125.471895 
L 249.842745 125.471895 
L 249.918062 123.587712 
L 250.180943 123.587712 
L 250.201317 121.703529 
L 250.587218 121.703529 
L 250.587218 120.761438 
L 250.723214 120.761438 
L 250.723214 119.819346 
L 250.83437 119.819346 
L 250.83437 118.877255 
L 251.15272 118.877255 
L 251.15272 117.935163 
L 251.603208 117.935163 
L 251.649046 115.108889 
L 251.903815 115.108889 
L 251.995085 112.282614 
L 252.115192 112.282614 
L 252.166493 110.398431 
L 252.280542 110.398431 
L 252.280542 109.45634 
L 252.400649 109.45634 
L 252.400649 108.514248 
L 252.689941 108.514248 
L 252.689941 107.572157 
L 252.890361 107.572157 
L 252.890361 106.630065 
L 253.36961 106.630065 
L 253.36961 105.687974 
L 253.542735 105.687974 
L 253.596778 102.861699 
L 253.791779 102.861699 
L 253.791779 101.919608 
L 254.381627 101.919608 
L 254.381627 100.977516 
L 254.648138 100.977516 
L 254.708699 96.267059 
L 254.818371 96.267059 
L 254.878513 94.382876 
L 255.019645 94.382876 
L 255.019645 93.440784 
L 255.184754 93.440784 
L 255.230595 91.556601 
L 255.616865 91.556601 
L 255.622337 89.672418 
L 255.799795 89.672418 
L 255.799795 88.730327 
L 255.946016 88.730327 
L 256.056076 85.904052 
L 256.096657 85.904052 
L 256.144859 84.019869 
L 256.282681 84.019869 
L 256.282681 83.077778 
L 256.430317 83.077778 
L 256.430317 82.135686 
L 256.598919 82.135686 
L 256.598919 81.193595 
L 256.731026 81.193595 
L 256.731026 80.251503 
L 256.942005 80.251503 
L 257.033404 77.425229 
L 257.266992 77.425229 
L 257.266992 76.483137 
L 257.597435 76.483137 
L 257.597435 75.541046 
L 257.763318 75.541046 
L 257.871926 73.656863 
L 257.882892 73.656863 
L 257.882892 72.714771 
L 258.073014 72.714771 
L 258.073014 71.77268 
L 258.297794 71.77268 
L 258.353726 69.888497 
L 258.752351 69.888497 
L 258.850051 68.004314 
L 258.902773 68.004314 
L 259.004633 65.178039 
L 259.483882 65.178039 
L 259.483882 64.235948 
L 259.657007 64.235948 
L 259.657007 63.293856 
L 259.77846 63.293856 
L 259.77846 62.351765 
L 260.082406 62.351765 
L 260.091366 60.467582 
L 260.258252 60.467582 
L 260.258252 59.52549 
L 260.570615 59.52549 
L 260.570615 58.583399 
L 260.689377 58.583399 
L 260.743741 56.699216 
L 261.1036 56.699216 
L 261.211274 54.815033 
L 261.27249 54.815033 
L 261.27249 53.872941 
L 261.447394 53.872941 
L 261.447394 52.93085 
L 262.033521 52.93085 
L 262.060288 51.046667 
L 262.459389 51.046667 
L 262.459389 50.104575 
L 262.913946 50.104575 
L 262.913946 49.162484 
L 263.147022 49.162484 
L 263.147022 48.220392 
L 263.715361 48.220392 
L 263.715361 47.278301 
L 264.251977 47.278301 
L 264.251977 46.336209 
L 264.589787 46.336209 
L 264.68956 44.452026 
L 265.123299 44.452026 
L 265.123299 43.509935 
L 265.434085 43.509935 
L 265.434085 42.567843 
L 265.704916 42.567843 
L 265.704916 41.625752 
L 266.100628 41.625752 
L 266.100628 40.68366 
L 267.969996 40.68366 
L 267.969996 39.741569 
L 269.149629 39.741569 
L 269.149629 38.799477 
L 269.866511 38.799477 
L 269.942315 36.915294 
L 270.570466 36.915294 
L 270.570466 35.973203 
L 273.657011 35.973203 
L 273.657011 35.031111 
L 274.649113 35.031111 
L 274.649113 34.08902 
L 274.76922 34.08902 
L 274.76922 33.146928 
L 277.035656 33.146928 
L 277.035656 32.204837 
L 278.209166 32.204837 
L 278.209166 31.262745 
L 278.651253 31.262745 
L 278.651253 30.320654 
L 278.798888 30.320654 
L 278.798888 29.378562 
L 279.385055 29.378562 
L 279.385055 28.436471 
L 279.637689 28.436471 
L 279.637689 27.494379 
L 280.251463 27.494379 
L 280.251463 26.552288 
L 280.431182 26.552288 
L 280.431182 25.610196 
L 285.670119 25.610196 
L 285.670119 24.668105 
L 287.249394 24.668105 
L 287.249394 23.726013 
L 287.446322 23.726013 
L 287.446322 22.783922 
L 288.926103 22.783922 
L 288.926103 21.84183 
L 289.991756 21.84183 
L 289.991756 20.899739 
L 290.513652 20.899739 
L 290.513652 19.957647 
L 293.632901 19.957647 
L 293.632901 19.015556 
L 293.753008 19.015556 
L 293.753008 18.073464 
L 294.907275 18.073464 
L 294.907275 17.131373 
L 296.019444 17.131373 
L 296.019444 16.189281 
L 296.355391 16.189281 
L 296.355391 15.24719 
L 296.486549 15.24719 
L 296.486549 14.305098 
L 297.635041 14.305098 
L 297.635041 13.363007 
L 297.782676 13.363007 
L 297.782676 12.420915 
L 298.368843 12.420915 
L 298.368843 11.478824 
L 299.235251 11.478824 
L 299.235251 10.536732 
L 299.872844 10.536732 
L 299.872844 9.594641 
L 300.516986 9.594641 
L 300.516986 8.652549 
L 305.592547 8.652549 
L 305.592547 7.710458 
L 308.940068 7.710458 
L 308.940068 6.768366 
L 309.754142 6.768366 
L 309.754142 5.826275 
L 453.192 5.826275 
L 453.192 5.826275 
" clip-path="url(#p582be75be5)" style="fill: none; stroke: #bf00bf; stroke-width: 3; stroke-linecap: square"/>
   </g>
   <g id="line2d_51">
    <path clip-path="url(#p582be75be5)" style="fill: none; stroke: #bf00bf; stroke-width: 3; stroke-linecap: square"/>
   </g>
   <g id="line2d_52">
    <path d="M 34.16 288.453725 
L 179.50844 288.453725 
L 179.50844 287.511634 
L 183.688321 287.511634 
L 183.688321 286.569542 
L 189.089575 286.569542 
L 189.089575 285.627451 
L 189.670915 285.627451 
L 189.670915 284.685359 
L 189.927944 284.685359 
L 189.927944 283.743268 
L 190.262299 283.743268 
L 190.262299 282.801176 
L 190.976666 282.801176 
L 190.976666 281.859085 
L 192.222238 281.859085 
L 192.222238 280.916993 
L 194.25932 280.916993 
L 194.25932 279.974902 
L 195.07217 279.974902 
L 195.07217 279.03281 
L 196.377921 279.03281 
L 196.377921 278.090719 
L 197.270881 278.090719 
L 197.270881 277.148627 
L 198.389057 277.148627 
L 198.389057 276.206536 
L 198.938792 276.206536 
L 198.938792 275.264444 
L 200.241915 275.264444 
L 200.241915 274.322353 
L 200.840192 274.322353 
L 200.840192 273.380261 
L 201.268689 273.380261 
L 201.268689 272.43817 
L 201.534624 272.43817 
L 201.547666 270.553987 
L 202.791549 270.553987 
L 202.791549 269.611895 
L 202.972207 269.611895 
L 202.972207 268.669804 
L 203.253475 268.669804 
L 203.253475 267.727712 
L 204.371651 267.727712 
L 204.371651 266.785621 
L 204.559226 266.785621 
L 204.559226 265.843529 
L 204.921386 265.843529 
L 204.921386 264.901438 
L 205.139403 264.901438 
L 205.139403 263.959346 
L 205.581212 263.959346 
L 205.677402 262.075163 
L 206.227137 262.075163 
L 206.227137 261.133072 
L 207.639176 261.133072 
L 207.639176 260.19098 
L 210.174588 260.19098 
L 210.174588 259.248889 
L 212.848331 259.248889 
L 212.848331 258.306797 
L 215.248405 258.306797 
L 215.248405 257.364706 
L 218.249586 257.364706 
L 218.249586 256.422614 
L 222.47892 256.422614 
L 222.47892 255.480523 
L 222.912353 255.480523 
L 222.912353 254.538431 
L 223.419331 254.538431 
L 223.419331 253.59634 
L 223.7353 253.59634 
L 223.7353 252.654248 
L 225.420415 252.654248 
L 225.420415 251.712157 
L 226.430891 251.712157 
L 226.430891 250.770065 
L 227.380292 250.770065 
L 227.380292 249.827974 
L 227.503831 249.827974 
L 227.549067 247.943791 
L 227.924123 247.943791 
L 227.924123 247.001699 
L 228.098802 247.001699 
L 228.098802 246.059608 
L 229.136555 246.059608 
L 229.24033 244.175425 
L 229.570107 244.175425 
L 229.570107 243.233333 
L 231.323746 243.233333 
L 231.323746 242.291242 
L 231.653523 242.291242 
L 231.744038 240.407059 
L 232.073815 240.407059 
L 232.073815 239.464967 
L 232.898423 239.464967 
L 232.898423 238.522876 
L 233.232778 238.522876 
L 233.331857 235.696601 
L 233.666211 235.696601 
L 233.666211 234.75451 
L 234.049758 234.75451 
L 234.049758 233.812418 
L 234.3063 233.812418 
L 234.3063 232.870327 
L 234.508126 232.870327 
L 234.508126 231.928235 
L 234.830995 231.928235 
L 234.830995 230.986144 
L 235.192718 230.986144 
L 235.192718 230.044052 
L 235.626151 230.044052 
L 235.626151 229.101961 
L 237.092044 229.101961 
L 237.092044 228.159869 
L 237.31786 228.159869 
L 237.31786 227.217778 
L 237.610197 227.217778 
L 237.610197 226.275686 
L 237.799796 226.275686 
L 237.869672 224.391503 
L 238.134151 224.391503 
L 238.19945 222.50732 
L 238.345843 222.50732 
L 238.436036 220.623137 
L 238.495405 220.623137 
L 238.495405 219.681046 
L 238.607897 219.681046 
L 238.607897 217.796863 
L 238.756196 217.796863 
L 238.756196 216.854771 
L 238.985771 216.854771 
L 238.985771 215.91268 
L 239.103185 215.91268 
L 239.103185 214.970588 
L 239.508613 214.970588 
L 239.559554 213.086405 
L 239.691472 213.086405 
L 239.691472 212.144314 
L 239.882423 212.144314 
L 239.938187 209.318039 
L 240.09409 209.318039 
L 240.156585 206.491765 
L 240.316896 206.491765 
L 240.316896 205.549673 
L 240.523072 205.549673 
L 240.523072 204.607582 
L 240.639764 204.607582 
L 240.722324 202.723399 
L 240.839612 202.723399 
L 240.839612 201.781307 
L 241.045192 201.781307 
L 241.045192 200.839216 
L 241.259904 200.839216 
L 241.370296 198.955033 
L 241.557423 198.955033 
L 241.631518 197.07085 
L 241.693164 197.07085 
L 241.736784 195.186667 
L 241.945479 195.186667 
L 241.945479 194.244575 
L 242.059652 194.244575 
L 242.059652 193.302484 
L 242.31532 193.302484 
L 242.31532 192.360392 
L 242.427812 192.360392 
L 242.427812 190.476209 
L 242.645098 190.476209 
L 242.645098 189.534118 
L 242.75759 189.534118 
L 242.75759 187.649935 
L 243.303505 187.649935 
L 243.303505 186.707843 
L 243.426814 186.707843 
L 243.511387 184.82366 
L 243.561685 184.82366 
L 243.640839 181.997386 
L 243.703382 181.997386 
L 243.810671 179.171111 
L 243.841164 179.171111 
L 243.932245 176.344837 
L 243.976374 176.344837 
L 244.064992 172.576471 
L 244.087879 172.576471 
L 244.187167 170.692288 
L 244.239169 170.692288 
L 244.306151 167.866013 
L 244.505104 167.866013 
L 244.517216 165.98183 
L 244.672602 165.98183 
L 244.775396 164.097647 
L 244.840085 164.097647 
L 244.938537 161.271373 
L 245.060689 161.271373 
L 245.145956 158.445098 
L 245.27034 158.445098 
L 245.27034 157.503007 
L 245.383557 157.503007 
L 245.468825 153.734641 
L 245.723747 153.734641 
L 245.781211 150.908366 
L 245.942686 150.908366 
L 245.979106 149.024183 
L 246.126216 149.024183 
L 246.195462 147.14 
L 246.37612 147.14 
L 246.37612 146.197908 
L 246.907753 146.197908 
L 246.996908 144.313725 
L 247.339927 144.313725 
L 247.385539 142.429542 
L 247.511547 142.429542 
L 247.511547 141.487451 
L 247.662796 141.487451 
L 247.754249 139.603268 
L 247.834806 139.603268 
L 247.908482 135.834902 
L 248.109883 135.834902 
L 248.159677 133.008627 
L 248.444332 133.008627 
L 248.551691 130.182353 
L 248.712044 130.182353 
L 248.807649 128.29817 
L 248.985124 128.29817 
L 249.048517 126.413987 
L 249.11642 126.413987 
L 249.174137 123.587712 
L 249.371386 123.587712 
L 249.406476 120.761438 
L 249.536982 120.761438 
L 249.536982 119.819346 
L 249.798533 119.819346 
L 249.873761 116.05098 
L 250.128798 116.05098 
L 250.186766 114.166797 
L 250.279189 114.166797 
L 250.279189 113.224706 
L 250.609656 113.224706 
L 250.663401 111.340523 
L 250.750693 111.340523 
L 250.844059 109.45634 
L 250.927161 109.45634 
L 250.987792 107.572157 
L 251.043089 107.572157 
L 251.073562 105.687974 
L 251.252934 105.687974 
L 251.293649 103.803791 
L 251.831187 103.803791 
L 251.831187 102.861699 
L 251.943679 102.861699 
L 251.954569 100.035425 
L 252.21275 100.035425 
L 252.242057 98.151242 
L 252.498042 98.151242 
L 252.583309 95.324967 
L 252.838232 95.324967 
L 252.838232 94.382876 
L 253.011255 94.382876 
L 253.027253 92.498693 
L 253.145067 92.498693 
L 253.219249 90.61451 
L 253.273968 90.61451 
L 253.273968 89.672418 
L 253.453064 89.672418 
L 253.49224 87.788235 
L 253.578501 87.788235 
L 253.578501 86.846144 
L 253.891076 86.846144 
L 253.891076 84.961961 
L 254.074082 84.961961 
L 254.074082 84.019869 
L 254.332262 84.019869 
L 254.332262 83.077778 
L 254.617554 83.077778 
L 254.702822 80.251503 
L 254.744905 80.251503 
L 254.777281 77.425229 
L 254.957744 77.425229 
L 254.967299 75.541046 
L 255.196828 75.541046 
L 255.196828 73.656863 
L 255.356387 73.656863 
L 255.356387 72.714771 
L 255.511028 72.714771 
L 255.558817 70.830588 
L 255.781128 70.830588 
L 255.82848 68.946405 
L 256.020475 68.946405 
L 256.075195 67.062222 
L 256.293467 67.062222 
L 256.293467 66.120131 
L 256.485871 66.120131 
L 256.485871 65.178039 
L 256.662138 65.178039 
L 256.662138 64.235948 
L 256.896793 64.235948 
L 256.970387 62.351765 
L 257.086879 62.351765 
L 257.086879 61.409673 
L 257.678329 61.409673 
L 257.768526 59.52549 
L 258.04644 59.52549 
L 258.04644 58.583399 
L 258.188046 58.583399 
L 258.276138 54.815033 
L 258.423796 54.815033 
L 258.423796 53.872941 
L 258.605383 53.872941 
L 258.652318 51.988758 
L 258.852293 51.988758 
L 258.852293 51.046667 
L 259.118228 51.046667 
L 259.118228 50.104575 
L 259.314887 50.104575 
L 259.314887 49.162484 
L 259.530402 49.162484 
L 259.530402 48.220392 
L 260.307559 48.220392 
L 260.375153 46.336209 
L 260.55581 46.336209 
L 260.55581 45.394118 
L 262.116114 45.394118 
L 262.116114 44.452026 
L 262.723007 44.452026 
L 262.723007 43.509935 
L 263.120257 43.509935 
L 263.164815 41.625752 
L 265.22278 41.625752 
L 265.22278 40.68366 
L 266.770208 40.68366 
L 266.770208 39.741569 
L 267.758192 39.741569 
L 267.758192 38.799477 
L 272.502351 38.799477 
L 272.502351 37.857386 
L 272.832009 37.857386 
L 272.832009 36.915294 
L 274.43035 36.915294 
L 274.43035 35.973203 
L 275.663331 35.973203 
L 275.663331 35.031111 
L 277.068493 35.031111 
L 277.068493 33.146928 
L 277.657177 33.146928 
L 277.657177 32.204837 
L 278.484946 32.204837 
L 278.533803 30.320654 
L 278.958544 30.320654 
L 278.958544 29.378562 
L 279.483246 29.378562 
L 279.483246 28.436471 
L 279.790697 28.436471 
L 279.813024 26.552288 
L 280.147803 26.552288 
L 280.147803 25.610196 
L 281.402067 25.610196 
L 281.402067 24.668105 
L 283.053702 24.668105 
L 283.053702 23.726013 
L 285.317319 23.726013 
L 285.317319 22.783922 
L 286.397294 22.783922 
L 286.397294 21.84183 
L 286.830727 21.84183 
L 286.873616 19.957647 
L 287.203394 19.957647 
L 287.203394 19.015556 
L 287.955461 19.015556 
L 287.955461 17.131373 
L 288.999112 17.131373 
L 288.999112 16.189281 
L 289.420772 16.189281 
L 289.420772 15.24719 
L 289.845513 15.24719 
L 289.845513 14.305098 
L 291.034772 14.305098 
L 291.034772 13.363007 
L 291.298666 13.363007 
L 291.298666 12.420915 
L 291.800339 12.420915 
L 291.800339 11.478824 
L 292.289036 11.478824 
L 292.289036 10.536732 
L 296.389483 10.536732 
L 296.389483 9.594641 
L 299.19071 9.594641 
L 299.19071 8.652549 
L 301.010418 8.652549 
L 301.010418 7.710458 
L 301.662362 7.710458 
L 301.662362 6.768366 
L 312.549331 6.768366 
L 312.549331 5.826275 
L 453.192 5.826275 
L 453.192 5.826275 
" clip-path="url(#p582be75be5)" style="fill: none; stroke: #ff0000; stroke-width: 3; stroke-linecap: square"/>
   </g>
   <g id="line2d_53">
    <path clip-path="url(#p582be75be5)" style="fill: none; stroke: #ff0000; stroke-width: 3; stroke-linecap: square"/>
   </g>
   <g id="line2d_54">
    <path d="M 243.676 291.28 
L 243.676 3 
" clip-path="url(#p582be75be5)" style="fill: none; stroke: #000000; stroke-width: 1.5; stroke-linecap: square"/>
   </g>
   <g id="line2d_55">
    <path d="M 34.16 147.14 
L 453.192 147.14 
" clip-path="url(#p582be75be5)" style="fill: none; stroke-dasharray: 2,3.3; stroke-dashoffset: 0; stroke: #000000; stroke-width: 2"/>
   </g>
   <g id="patch_3">
    <path d="M 34.16 291.28 
L 34.16 3 
" style="fill: none; stroke: #000000; stroke-width: 0.8; stroke-linejoin: miter; stroke-linecap: square"/>
   </g>
   <g id="patch_4">
    <path d="M 453.192 291.28 
L 453.192 3 
" style="fill: none; stroke: #000000; stroke-width: 0.8; stroke-linejoin: miter; stroke-linecap: square"/>
   </g>
   <g id="patch_5">
    <path d="M 34.16 291.28 
L 453.192 291.28 
" style="fill: none; stroke: #000000; stroke-width: 0.8; stroke-linejoin: miter; stroke-linecap: square"/>
   </g>
   <g id="patch_6">
    <path d="M 34.16 3 
L 453.192 3 
" style="fill: none; stroke: #000000; stroke-width: 0.8; stroke-linejoin: miter; stroke-linecap: square"/>
   </g>
   <g id="text_6">
    <!-- f6-f9,5-D -->
    <g transform="translate(356.36761 285.5144)scale(0.2 -0.2)">
     <defs>
      <path id="DejaVuSans-36" d="M 2113 2584 
Q 1688 2584 1439 2293 
Q 1191 2003 1191 1497 
Q 1191 994 1439 701 
Q 1688 409 2113 409 
Q 2538 409 2786 701 
Q 3034 994 3034 1497 
Q 3034 2003 2786 2293 
Q 2538 2584 2113 2584 
z
M 3366 4563 
L 3366 3988 
Q 3128 4100 2886 4159 
Q 2644 4219 2406 4219 
Q 1781 4219 1451 3797 
Q 1122 3375 1075 2522 
Q 1259 2794 1537 2939 
Q 1816 3084 2150 3084 
Q 2853 3084 3261 2657 
Q 3669 2231 3669 1497 
Q 3669 778 3244 343 
Q 2819 -91 2113 -91 
Q 1303 -91 875 529 
Q 447 1150 447 2328 
Q 447 3434 972 4092 
Q 1497 4750 2381 4750 
Q 2619 4750 2861 4703 
Q 3103 4656 3366 4563 
z
" transform="scale(0.015625)"/>
      <path id="DejaVuSans-39" d="M 703 97 
L 703 672 
Q 941 559 1184 500 
Q 1428 441 1663 441 
Q 2288 441 2617 861 
Q 2947 1281 2994 2138 
Q 2813 1869 2534 1725 
Q 2256 1581 1919 1581 
Q 1219 1581 811 2004 
Q 403 2428 403 3163 
Q 403 3881 828 4315 
Q 1253 4750 1959 4750 
Q 2769 4750 3195 4129 
Q 3622 3509 3622 2328 
Q 3622 1225 3098 567 
Q 2575 -91 1691 -91 
Q 1453 -91 1209 -44 
Q 966 3 703 97 
z
M 1959 2075 
Q 2384 2075 2632 2365 
Q 2881 2656 2881 3163 
Q 2881 3666 2632 3958 
Q 2384 4250 1959 4250 
Q 1534 4250 1286 3958 
Q 1038 3666 1038 3163 
Q 1038 2656 1286 2365 
Q 1534 2075 1959 2075 
z
" transform="scale(0.015625)"/>
      <path id="DejaVuSans-2c" d="M 750 794 
L 1409 794 
L 1409 256 
L 897 -744 
L 494 -744 
L 750 256 
L 750 794 
z
" transform="scale(0.015625)"/>
      <path id="DejaVuSans-35" d="M 691 4666 
L 3169 4666 
L 3169 4134 
L 1269 4134 
L 1269 2991 
Q 1406 3038 1543 3061 
Q 1681 3084 1819 3084 
Q 2600 3084 3056 2656 
Q 3513 2228 3513 1497 
Q 3513 744 3044 326 
Q 2575 -91 1722 -91 
Q 1428 -91 1123 -41 
Q 819 9 494 109 
L 494 744 
Q 775 591 1075 516 
Q 1375 441 1709 441 
Q 2250 441 2565 725 
Q 2881 1009 2881 1497 
Q 2881 1984 2565 2268 
Q 2250 2553 1709 2553 
Q 1456 2553 1204 2497 
Q 953 2441 691 2322 
L 691 4666 
z
" transform="scale(0.015625)"/>
      <path id="DejaVuSans-44" d="M 1259 4147 
L 1259 519 
L 2022 519 
Q 2988 519 3436 956 
Q 3884 1394 3884 2338 
Q 3884 3275 3436 3711 
Q 2988 4147 2022 4147 
L 1259 4147 
z
M 628 4666 
L 1925 4666 
Q 3281 4666 3915 4102 
Q 4550 3538 4550 2338 
Q 4550 1131 3912 565 
Q 3275 0 1925 0 
L 628 0 
L 628 4666 
z
" transform="scale(0.015625)"/>
     </defs>
     <use xlink:href="#DejaVuSans-66"/>
     <use xlink:href="#DejaVuSans-36" x="35.205078"/>
     <use xlink:href="#DejaVuSans-2d" x="98.828125"/>
     <use xlink:href="#DejaVuSans-66" x="134.912109"/>
     <use xlink:href="#DejaVuSans-39" x="170.117188"/>
     <use xlink:href="#DejaVuSans-2c" x="233.740234"/>
     <use xlink:href="#DejaVuSans-35" x="265.527344"/>
     <use xlink:href="#DejaVuSans-2d" x="329.150391"/>
     <use xlink:href="#DejaVuSans-44" x="365.234375"/>
    </g>
   </g>
   <g id="text_7">
    <!-- v2.6.1.158 -->
    <g style="fill: #808080" transform="translate(216.861937 286.317512)scale(0.1 -0.1)">
     <defs>
      <path id="DejaVuSans-32" d="M 1228 531 
L 3431 531 
L 3431 0 
L 469 0 
L 469 531 
Q 828 903 1448 1529 
Q 2069 2156 2228 2338 
Q 2531 2678 2651 2914 
Q 2772 3150 2772 3378 
Q 2772 3750 2511 3984 
Q 2250 4219 1831 4219 
Q 1534 4219 1204 4116 
Q 875 4013 500 3803 
L 500 4441 
Q 881 4594 1212 4672 
Q 1544 4750 1819 4750 
Q 2544 4750 2975 4387 
Q 3406 4025 3406 3419 
Q 3406 3131 3298 2873 
Q 3191 2616 2906 2266 
Q 2828 2175 2409 1742 
Q 1991 1309 1228 531 
z
" transform="scale(0.015625)"/>
      <path id="DejaVuSans-2e" d="M 684 794 
L 1344 794 
L 1344 0 
L 684 0 
L 684 794 
z
" transform="scale(0.015625)"/>
      <path id="DejaVuSans-38" d="M 2034 2216 
Q 1584 2216 1326 1975 
Q 1069 1734 1069 1313 
Q 1069 891 1326 650 
Q 1584 409 2034 409 
Q 2484 409 2743 651 
Q 3003 894 3003 1313 
Q 3003 1734 2745 1975 
Q 2488 2216 2034 2216 
z
M 1403 2484 
Q 997 2584 770 2862 
Q 544 3141 544 3541 
Q 544 4100 942 4425 
Q 1341 4750 2034 4750 
Q 2731 4750 3128 4425 
Q 3525 4100 3525 3541 
Q 3525 3141 3298 2862 
Q 3072 2584 2669 2484 
Q 3125 2378 3379 2068 
Q 3634 1759 3634 1313 
Q 3634 634 3220 271 
Q 2806 -91 2034 -91 
Q 1263 -91 848 271 
Q 434 634 434 1313 
Q 434 1759 690 2068 
Q 947 2378 1403 2484 
z
M 1172 3481 
Q 1172 3119 1398 2916 
Q 1625 2713 2034 2713 
Q 2441 2713 2670 2916 
Q 2900 3119 2900 3481 
Q 2900 3844 2670 4047 
Q 2441 4250 2034 4250 
Q 1625 4250 1398 4047 
Q 1172 3844 1172 3481 
z
" transform="scale(0.015625)"/>
     </defs>
     <use xlink:href="#DejaVuSans-76"/>
     <use xlink:href="#DejaVuSans-32" x="59.179688"/>
     <use xlink:href="#DejaVuSans-2e" x="122.802734"/>
     <use xlink:href="#DejaVuSans-36" x="154.589844"/>
     <use xlink:href="#DejaVuSans-2e" x="218.212891"/>
     <use xlink:href="#DejaVuSans-31" x="250"/>
     <use xlink:href="#DejaVuSans-2e" x="313.623047"/>
     <use xlink:href="#DejaVuSans-31" x="345.410156"/>
     <use xlink:href="#DejaVuSans-35" x="409.033203"/>
     <use xlink:href="#DejaVuSans-38" x="472.65625"/>
    </g>
   </g>
   <g id="legend_1">
    <g id="patch_7">
     <path d="M 48.16 136.425 
L 177.381875 136.425 
Q 181.381875 136.425 181.381875 132.425 
L 181.381875 17 
Q 181.381875 13 177.381875 13 
L 48.16 13 
Q 44.16 13 44.16 17 
L 44.16 132.425 
Q 44.16 136.425 48.16 136.425 
z
" style="fill: #ffffff; opacity: 0.2; stroke: #cccccc; stroke-linejoin: miter"/>
    </g>
    <g id="line2d_56">
     <path d="M 52.16 29.196875 
L 72.16 29.196875 
L 92.16 29.196875 
" style="fill: none; stroke: #000000; stroke-width: 3; stroke-linecap: square"/>
    </g>
    <g id="text_8">
     <!-- 1: 4/4 -->
     <g transform="translate(108.16 36.196875)scale(0.2 -0.2)">
      <defs>
       <path id="DejaVuSans-3a" d="M 750 794 
L 1409 794 
L 1409 0 
L 750 0 
L 750 794 
z
M 750 3309 
L 1409 3309 
L 1409 2516 
L 750 2516 
L 750 3309 
z
" transform="scale(0.015625)"/>
       <path id="DejaVuSans-34" d="M 2419 4116 
L 825 1625 
L 2419 1625 
L 2419 4116 
z
M 2253 4666 
L 3047 4666 
L 3047 1625 
L 3713 1625 
L 3713 1100 
L 3047 1100 
L 3047 0 
L 2419 0 
L 2419 1100 
L 313 1100 
L 313 1709 
L 2253 4666 
z
" transform="scale(0.015625)"/>
       <path id="DejaVuSans-2f" d="M 1625 4666 
L 2156 4666 
L 531 -594 
L 0 -594 
L 1625 4666 
z
" transform="scale(0.015625)"/>
      </defs>
      <use xlink:href="#DejaVuSans-31"/>
      <use xlink:href="#DejaVuSans-3a" x="63.623047"/>
      <use xlink:href="#DejaVuSans-20" x="97.314453"/>
      <use xlink:href="#DejaVuSans-34" x="129.101562"/>
      <use xlink:href="#DejaVuSans-2f" x="192.724609"/>
      <use xlink:href="#DejaVuSans-34" x="226.416016"/>
     </g>
    </g>
    <g id="line2d_57">
     <path d="M 52.16 58.553125 
L 72.16 58.553125 
L 92.16 58.553125 
" style="fill: none; stroke: #00bfbf; stroke-width: 3; stroke-linecap: square"/>
    </g>
    <g id="text_9">
     <!-- -1: 4/4 -->
     <g transform="translate(108.16 65.553125)scale(0.2 -0.2)">
      <use xlink:href="#DejaVuSans-2d"/>
      <use xlink:href="#DejaVuSans-31" x="36.083984"/>
      <use xlink:href="#DejaVuSans-3a" x="99.707031"/>
      <use xlink:href="#DejaVuSans-20" x="133.398438"/>
      <use xlink:href="#DejaVuSans-34" x="165.185547"/>
      <use xlink:href="#DejaVuSans-2f" x="228.808594"/>
      <use xlink:href="#DejaVuSans-34" x="262.5"/>
     </g>
    </g>
    <g id="line2d_58">
     <path d="M 52.16 87.909375 
L 72.16 87.909375 
L 92.16 87.909375 
" style="fill: none; stroke: #bf00bf; stroke-width: 3; stroke-linecap: square"/>
    </g>
    <g id="text_10">
     <!-- -4: 4/4 -->
     <g transform="translate(108.16 94.909375)scale(0.2 -0.2)">
      <use xlink:href="#DejaVuSans-2d"/>
      <use xlink:href="#DejaVuSans-34" x="36.083984"/>
      <use xlink:href="#DejaVuSans-3a" x="99.707031"/>
      <use xlink:href="#DejaVuSans-20" x="133.398438"/>
      <use xlink:href="#DejaVuSans-34" x="165.185547"/>
      <use xlink:href="#DejaVuSans-2f" x="228.808594"/>
      <use xlink:href="#DejaVuSans-34" x="262.5"/>
     </g>
    </g>
    <g id="line2d_59">
     <path d="M 52.16 117.265625 
L 72.16 117.265625 
L 92.16 117.265625 
" style="fill: none; stroke: #ff0000; stroke-width: 3; stroke-linecap: square"/>
    </g>
    <g id="text_11">
     <!-- -8: 4/4 -->
     <g transform="translate(108.16 124.265625)scale(0.2 -0.2)">
      <use xlink:href="#DejaVuSans-2d"/>
      <use xlink:href="#DejaVuSans-38" x="36.083984"/>
      <use xlink:href="#DejaVuSans-3a" x="99.707031"/>
      <use xlink:href="#DejaVuSans-20" x="133.398438"/>
      <use xlink:href="#DejaVuSans-34" x="165.185547"/>
      <use xlink:href="#DejaVuSans-2f" x="228.808594"/>
      <use xlink:href="#DejaVuSans-34" x="262.5"/>
     </g>
    </g>
   </g>
  </g>
 </g>
 <defs>
  <clipPath id="p582be75be5">
   <rect x="34.16" y="3" width="419.032" height="288.28"/>
  </clipPath>
 </defs>
</svg>
