<?xml version="1.0" encoding="utf-8" standalone="no"?>
<!DOCTYPE svg PUBLIC "-//W3C//DTD SVG 1.1//EN"
  "http://www.w3.org/Graphics/SVG/1.1/DTD/svg11.dtd">
<svg xmlns:xlink="http://www.w3.org/1999/xlink" width="460.8pt" height="345.6pt" viewBox="0 0 460.8 345.6" xmlns="http://www.w3.org/2000/svg" version="1.1">
 <metadata>
  <rdf:RDF xmlns:dc="http://purl.org/dc/elements/1.1/" xmlns:cc="http://creativecommons.org/ns#" xmlns:rdf="http://www.w3.org/1999/02/22-rdf-syntax-ns#">
   <cc:Work>
    <dc:type rdf:resource="http://purl.org/dc/dcmitype/StillImage"/>
    <dc:date>2023-04-03T10:07:31.975752</dc:date>
    <dc:format>image/svg+xml</dc:format>
    <dc:creator>
     <cc:Agent>
      <dc:title>Matplotlib v3.5.2, https://matplotlib.org/</dc:title>
     </cc:Agent>
    </dc:creator>
   </cc:Work>
  </rdf:RDF>
 </metadata>
 <defs>
  <style type="text/css">*{stroke-linejoin: round; stroke-linecap: butt}</style>
 </defs>
 <g id="figure_1">
  <g id="patch_1">
   <path d="M 0 345.6 
L 460.8 345.6 
L 460.8 0 
L 0 0 
z
" style="fill: #ffffff"/>
  </g>
  <g id="axes_1">
   <g id="patch_2">
    <path d="M 34.16 291.28 
L 453.192 291.28 
L 453.192 3 
L 34.16 3 
z
" style="fill: #ffffff"/>
   </g>
   <g id="matplotlib.axis_1">
    <g id="xtick_1">
     <g id="line2d_1">
      <path d="M 111.566629 291.28 
L 111.566629 3 
" clip-path="url(#p907d615e0e)" style="fill: none; stroke: #b0b0b0; stroke-width: 0.8; stroke-linecap: square"/>
     </g>
     <g id="line2d_2">
      <defs>
       <path id="mff3e200ef4" d="M 0 0 
L 0 3.5 
" style="stroke: #000000; stroke-width: 0.8"/>
      </defs>
      <g>
       <use xlink:href="#mff3e200ef4" x="111.566629" y="291.28" style="stroke: #000000; stroke-width: 0.8"/>
      </g>
     </g>
     <g id="text_1">
      <!-- -2 -->
      <g transform="translate(101.596317 313.476875)scale(0.2 -0.2)">
       <defs>
        <path id="DejaVuSans-2d" d="M 313 2009 
L 1997 2009 
L 1997 1497 
L 313 1497 
L 313 2009 
z
" transform="scale(0.015625)"/>
        <path id="DejaVuSans-32" d="M 1228 531 
L 3431 531 
L 3431 0 
L 469 0 
L 469 531 
Q 828 903 1448 1529 
Q 2069 2156 2228 2338 
Q 2531 2678 2651 2914 
Q 2772 3150 2772 3378 
Q 2772 3750 2511 3984 
Q 2250 4219 1831 4219 
Q 1534 4219 1204 4116 
Q 875 4013 500 3803 
L 500 4441 
Q 881 4594 1212 4672 
Q 1544 4750 1819 4750 
Q 2544 4750 2975 4387 
Q 3406 4025 3406 3419 
Q 3406 3131 3298 2873 
Q 3191 2616 2906 2266 
Q 2828 2175 2409 1742 
Q 1991 1309 1228 531 
z
" transform="scale(0.015625)"/>
       </defs>
       <use xlink:href="#DejaVuSans-2d"/>
       <use xlink:href="#DejaVuSans-32" x="36.083984"/>
      </g>
     </g>
    </g>
    <g id="xtick_2">
     <g id="line2d_3">
      <path d="M 243.676 291.28 
L 243.676 3 
" clip-path="url(#p907d615e0e)" style="fill: none; stroke: #b0b0b0; stroke-width: 0.8; stroke-linecap: square"/>
     </g>
     <g id="line2d_4">
      <g>
       <use xlink:href="#mff3e200ef4" x="243.676" y="291.28" style="stroke: #000000; stroke-width: 0.8"/>
      </g>
     </g>
     <g id="text_2">
      <!-- 0 -->
      <g transform="translate(237.3135 313.476875)scale(0.2 -0.2)">
       <defs>
        <path id="DejaVuSans-30" d="M 2034 4250 
Q 1547 4250 1301 3770 
Q 1056 3291 1056 2328 
Q 1056 1369 1301 889 
Q 1547 409 2034 409 
Q 2525 409 2770 889 
Q 3016 1369 3016 2328 
Q 3016 3291 2770 3770 
Q 2525 4250 2034 4250 
z
M 2034 4750 
Q 2819 4750 3233 4129 
Q 3647 3509 3647 2328 
Q 3647 1150 3233 529 
Q 2819 -91 2034 -91 
Q 1250 -91 836 529 
Q 422 1150 422 2328 
Q 422 3509 836 4129 
Q 1250 4750 2034 4750 
z
" transform="scale(0.015625)"/>
       </defs>
       <use xlink:href="#DejaVuSans-30"/>
      </g>
     </g>
    </g>
    <g id="xtick_3">
     <g id="line2d_5">
      <path d="M 375.785371 291.28 
L 375.785371 3 
" clip-path="url(#p907d615e0e)" style="fill: none; stroke: #b0b0b0; stroke-width: 0.8; stroke-linecap: square"/>
     </g>
     <g id="line2d_6">
      <g>
       <use xlink:href="#mff3e200ef4" x="375.785371" y="291.28" style="stroke: #000000; stroke-width: 0.8"/>
      </g>
     </g>
     <g id="text_3">
      <!-- 2 -->
      <g transform="translate(369.422871 313.476875)scale(0.2 -0.2)">
       <use xlink:href="#DejaVuSans-32"/>
      </g>
     </g>
    </g>
    <g id="text_4">
     <!-- log10 of FEvals ratio -->
     <g transform="translate(141.371312 336.833125)scale(0.2 -0.2)">
      <defs>
       <path id="DejaVuSans-6c" d="M 603 4863 
L 1178 4863 
L 1178 0 
L 603 0 
L 603 4863 
z
" transform="scale(0.015625)"/>
       <path id="DejaVuSans-6f" d="M 1959 3097 
Q 1497 3097 1228 2736 
Q 959 2375 959 1747 
Q 959 1119 1226 758 
Q 1494 397 1959 397 
Q 2419 397 2687 759 
Q 2956 1122 2956 1747 
Q 2956 2369 2687 2733 
Q 2419 3097 1959 3097 
z
M 1959 3584 
Q 2709 3584 3137 3096 
Q 3566 2609 3566 1747 
Q 3566 888 3137 398 
Q 2709 -91 1959 -91 
Q 1206 -91 779 398 
Q 353 888 353 1747 
Q 353 2609 779 3096 
Q 1206 3584 1959 3584 
z
" transform="scale(0.015625)"/>
       <path id="DejaVuSans-67" d="M 2906 1791 
Q 2906 2416 2648 2759 
Q 2391 3103 1925 3103 
Q 1463 3103 1205 2759 
Q 947 2416 947 1791 
Q 947 1169 1205 825 
Q 1463 481 1925 481 
Q 2391 481 2648 825 
Q 2906 1169 2906 1791 
z
M 3481 434 
Q 3481 -459 3084 -895 
Q 2688 -1331 1869 -1331 
Q 1566 -1331 1297 -1286 
Q 1028 -1241 775 -1147 
L 775 -588 
Q 1028 -725 1275 -790 
Q 1522 -856 1778 -856 
Q 2344 -856 2625 -561 
Q 2906 -266 2906 331 
L 2906 616 
Q 2728 306 2450 153 
Q 2172 0 1784 0 
Q 1141 0 747 490 
Q 353 981 353 1791 
Q 353 2603 747 3093 
Q 1141 3584 1784 3584 
Q 2172 3584 2450 3431 
Q 2728 3278 2906 2969 
L 2906 3500 
L 3481 3500 
L 3481 434 
z
" transform="scale(0.015625)"/>
       <path id="DejaVuSans-31" d="M 794 531 
L 1825 531 
L 1825 4091 
L 703 3866 
L 703 4441 
L 1819 4666 
L 2450 4666 
L 2450 531 
L 3481 531 
L 3481 0 
L 794 0 
L 794 531 
z
" transform="scale(0.015625)"/>
       <path id="DejaVuSans-20" transform="scale(0.015625)"/>
       <path id="DejaVuSans-66" d="M 2375 4863 
L 2375 4384 
L 1825 4384 
Q 1516 4384 1395 4259 
Q 1275 4134 1275 3809 
L 1275 3500 
L 2222 3500 
L 2222 3053 
L 1275 3053 
L 1275 0 
L 697 0 
L 697 3053 
L 147 3053 
L 147 3500 
L 697 3500 
L 697 3744 
Q 697 4328 969 4595 
Q 1241 4863 1831 4863 
L 2375 4863 
z
" transform="scale(0.015625)"/>
       <path id="DejaVuSans-46" d="M 628 4666 
L 3309 4666 
L 3309 4134 
L 1259 4134 
L 1259 2759 
L 3109 2759 
L 3109 2228 
L 1259 2228 
L 1259 0 
L 628 0 
L 628 4666 
z
" transform="scale(0.015625)"/>
       <path id="DejaVuSans-45" d="M 628 4666 
L 3578 4666 
L 3578 4134 
L 1259 4134 
L 1259 2753 
L 3481 2753 
L 3481 2222 
L 1259 2222 
L 1259 531 
L 3634 531 
L 3634 0 
L 628 0 
L 628 4666 
z
" transform="scale(0.015625)"/>
       <path id="DejaVuSans-76" d="M 191 3500 
L 800 3500 
L 1894 563 
L 2988 3500 
L 3597 3500 
L 2284 0 
L 1503 0 
L 191 3500 
z
" transform="scale(0.015625)"/>
       <path id="DejaVuSans-61" d="M 2194 1759 
Q 1497 1759 1228 1600 
Q 959 1441 959 1056 
Q 959 750 1161 570 
Q 1363 391 1709 391 
Q 2188 391 2477 730 
Q 2766 1069 2766 1631 
L 2766 1759 
L 2194 1759 
z
M 3341 1997 
L 3341 0 
L 2766 0 
L 2766 531 
Q 2569 213 2275 61 
Q 1981 -91 1556 -91 
Q 1019 -91 701 211 
Q 384 513 384 1019 
Q 384 1609 779 1909 
Q 1175 2209 1959 2209 
L 2766 2209 
L 2766 2266 
Q 2766 2663 2505 2880 
Q 2244 3097 1772 3097 
Q 1472 3097 1187 3025 
Q 903 2953 641 2809 
L 641 3341 
Q 956 3463 1253 3523 
Q 1550 3584 1831 3584 
Q 2591 3584 2966 3190 
Q 3341 2797 3341 1997 
z
" transform="scale(0.015625)"/>
       <path id="DejaVuSans-73" d="M 2834 3397 
L 2834 2853 
Q 2591 2978 2328 3040 
Q 2066 3103 1784 3103 
Q 1356 3103 1142 2972 
Q 928 2841 928 2578 
Q 928 2378 1081 2264 
Q 1234 2150 1697 2047 
L 1894 2003 
Q 2506 1872 2764 1633 
Q 3022 1394 3022 966 
Q 3022 478 2636 193 
Q 2250 -91 1575 -91 
Q 1294 -91 989 -36 
Q 684 19 347 128 
L 347 722 
Q 666 556 975 473 
Q 1284 391 1588 391 
Q 1994 391 2212 530 
Q 2431 669 2431 922 
Q 2431 1156 2273 1281 
Q 2116 1406 1581 1522 
L 1381 1569 
Q 847 1681 609 1914 
Q 372 2147 372 2553 
Q 372 3047 722 3315 
Q 1072 3584 1716 3584 
Q 2034 3584 2315 3537 
Q 2597 3491 2834 3397 
z
" transform="scale(0.015625)"/>
       <path id="DejaVuSans-72" d="M 2631 2963 
Q 2534 3019 2420 3045 
Q 2306 3072 2169 3072 
Q 1681 3072 1420 2755 
Q 1159 2438 1159 1844 
L 1159 0 
L 581 0 
L 581 3500 
L 1159 3500 
L 1159 2956 
Q 1341 3275 1631 3429 
Q 1922 3584 2338 3584 
Q 2397 3584 2469 3576 
Q 2541 3569 2628 3553 
L 2631 2963 
z
" transform="scale(0.015625)"/>
       <path id="DejaVuSans-74" d="M 1172 4494 
L 1172 3500 
L 2356 3500 
L 2356 3053 
L 1172 3053 
L 1172 1153 
Q 1172 725 1289 603 
Q 1406 481 1766 481 
L 2356 481 
L 2356 0 
L 1766 0 
Q 1100 0 847 248 
Q 594 497 594 1153 
L 594 3053 
L 172 3053 
L 172 3500 
L 594 3500 
L 594 4494 
L 1172 4494 
z
" transform="scale(0.015625)"/>
       <path id="DejaVuSans-69" d="M 603 3500 
L 1178 3500 
L 1178 0 
L 603 0 
L 603 3500 
z
M 603 4863 
L 1178 4863 
L 1178 4134 
L 603 4134 
L 603 4863 
z
" transform="scale(0.015625)"/>
      </defs>
      <use xlink:href="#DejaVuSans-6c"/>
      <use xlink:href="#DejaVuSans-6f" x="27.783203"/>
      <use xlink:href="#DejaVuSans-67" x="88.964844"/>
      <use xlink:href="#DejaVuSans-31" x="152.441406"/>
      <use xlink:href="#DejaVuSans-30" x="216.064453"/>
      <use xlink:href="#DejaVuSans-20" x="279.6875"/>
      <use xlink:href="#DejaVuSans-6f" x="311.474609"/>
      <use xlink:href="#DejaVuSans-66" x="372.65625"/>
      <use xlink:href="#DejaVuSans-20" x="407.861328"/>
      <use xlink:href="#DejaVuSans-46" x="439.648438"/>
      <use xlink:href="#DejaVuSans-45" x="497.167969"/>
      <use xlink:href="#DejaVuSans-76" x="560.351562"/>
      <use xlink:href="#DejaVuSans-61" x="619.53125"/>
      <use xlink:href="#DejaVuSans-6c" x="680.810547"/>
      <use xlink:href="#DejaVuSans-73" x="708.59375"/>
      <use xlink:href="#DejaVuSans-20" x="760.693359"/>
      <use xlink:href="#DejaVuSans-72" x="792.480469"/>
      <use xlink:href="#DejaVuSans-61" x="833.59375"/>
      <use xlink:href="#DejaVuSans-74" x="894.873047"/>
      <use xlink:href="#DejaVuSans-69" x="934.082031"/>
      <use xlink:href="#DejaVuSans-6f" x="961.865234"/>
     </g>
    </g>
   </g>
   <g id="matplotlib.axis_2">
    <g id="ytick_1">
     <g id="line2d_7">
      <path d="M 34.16 288.453725 
L 453.192 288.453725 
" clip-path="url(#p907d615e0e)" style="fill: none; stroke: #b0b0b0; stroke-width: 0.8; stroke-linecap: square"/>
     </g>
     <g id="line2d_8">
      <defs>
       <path id="m505e5ee085" d="M 0 0 
L -3.5 0 
" style="stroke: #000000; stroke-width: 0.8"/>
      </defs>
      <g>
       <use xlink:href="#m505e5ee085" x="34.16" y="288.453725" style="stroke: #000000; stroke-width: 0.8"/>
      </g>
     </g>
    </g>
    <g id="ytick_2">
     <g id="line2d_9">
      <path d="M 34.16 217.796863 
L 453.192 217.796863 
" clip-path="url(#p907d615e0e)" style="fill: none; stroke: #b0b0b0; stroke-width: 0.8; stroke-linecap: square"/>
     </g>
     <g id="line2d_10">
      <g>
       <use xlink:href="#m505e5ee085" x="34.16" y="217.796863" style="stroke: #000000; stroke-width: 0.8"/>
      </g>
     </g>
    </g>
    <g id="ytick_3">
     <g id="line2d_11">
      <path d="M 34.16 147.14 
L 453.192 147.14 
" clip-path="url(#p907d615e0e)" style="fill: none; stroke: #b0b0b0; stroke-width: 0.8; stroke-linecap: square"/>
     </g>
     <g id="line2d_12">
      <g>
       <use xlink:href="#m505e5ee085" x="34.16" y="147.14" style="stroke: #000000; stroke-width: 0.8"/>
      </g>
     </g>
    </g>
    <g id="ytick_4">
     <g id="line2d_13">
      <path d="M 34.16 76.483137 
L 453.192 76.483137 
" clip-path="url(#p907d615e0e)" style="fill: none; stroke: #b0b0b0; stroke-width: 0.8; stroke-linecap: square"/>
     </g>
     <g id="line2d_14">
      <g>
       <use xlink:href="#m505e5ee085" x="34.16" y="76.483137" style="stroke: #000000; stroke-width: 0.8"/>
      </g>
     </g>
    </g>
    <g id="ytick_5">
     <g id="line2d_15">
      <path d="M 34.16 5.826275 
L 453.192 5.826275 
" clip-path="url(#p907d615e0e)" style="fill: none; stroke: #b0b0b0; stroke-width: 0.8; stroke-linecap: square"/>
     </g>
     <g id="line2d_16">
      <g>
       <use xlink:href="#m505e5ee085" x="34.16" y="5.826275" style="stroke: #000000; stroke-width: 0.8"/>
      </g>
     </g>
    </g>
    <g id="text_5">
     <!-- proportion of trials -->
     <g transform="translate(19.000625 240.14625)rotate(-90)scale(0.2 -0.2)">
      <defs>
       <path id="DejaVuSans-70" d="M 1159 525 
L 1159 -1331 
L 581 -1331 
L 581 3500 
L 1159 3500 
L 1159 2969 
Q 1341 3281 1617 3432 
Q 1894 3584 2278 3584 
Q 2916 3584 3314 3078 
Q 3713 2572 3713 1747 
Q 3713 922 3314 415 
Q 2916 -91 2278 -91 
Q 1894 -91 1617 61 
Q 1341 213 1159 525 
z
M 3116 1747 
Q 3116 2381 2855 2742 
Q 2594 3103 2138 3103 
Q 1681 3103 1420 2742 
Q 1159 2381 1159 1747 
Q 1159 1113 1420 752 
Q 1681 391 2138 391 
Q 2594 391 2855 752 
Q 3116 1113 3116 1747 
z
" transform="scale(0.015625)"/>
       <path id="DejaVuSans-6e" d="M 3513 2113 
L 3513 0 
L 2938 0 
L 2938 2094 
Q 2938 2591 2744 2837 
Q 2550 3084 2163 3084 
Q 1697 3084 1428 2787 
Q 1159 2491 1159 1978 
L 1159 0 
L 581 0 
L 581 3500 
L 1159 3500 
L 1159 2956 
Q 1366 3272 1645 3428 
Q 1925 3584 2291 3584 
Q 2894 3584 3203 3211 
Q 3513 2838 3513 2113 
z
" transform="scale(0.015625)"/>
      </defs>
      <use xlink:href="#DejaVuSans-70"/>
      <use xlink:href="#DejaVuSans-72" x="63.476562"/>
      <use xlink:href="#DejaVuSans-6f" x="102.339844"/>
      <use xlink:href="#DejaVuSans-70" x="163.521484"/>
      <use xlink:href="#DejaVuSans-6f" x="226.998047"/>
      <use xlink:href="#DejaVuSans-72" x="288.179688"/>
      <use xlink:href="#DejaVuSans-74" x="329.292969"/>
      <use xlink:href="#DejaVuSans-69" x="368.501953"/>
      <use xlink:href="#DejaVuSans-6f" x="396.285156"/>
      <use xlink:href="#DejaVuSans-6e" x="457.466797"/>
      <use xlink:href="#DejaVuSans-20" x="520.845703"/>
      <use xlink:href="#DejaVuSans-6f" x="552.632812"/>
      <use xlink:href="#DejaVuSans-66" x="613.814453"/>
      <use xlink:href="#DejaVuSans-20" x="649.019531"/>
      <use xlink:href="#DejaVuSans-74" x="680.806641"/>
      <use xlink:href="#DejaVuSans-72" x="720.015625"/>
      <use xlink:href="#DejaVuSans-69" x="761.128906"/>
      <use xlink:href="#DejaVuSans-61" x="788.912109"/>
      <use xlink:href="#DejaVuSans-6c" x="850.191406"/>
      <use xlink:href="#DejaVuSans-73" x="877.974609"/>
     </g>
    </g>
   </g>
   <g id="line2d_17">
    <path d="M 34.16 288.453725 
L 106.336337 288.453725 
L 106.336337 287.700052 
L 107.557253 287.700052 
L 107.557253 286.946379 
L 118.694286 286.946379 
L 118.694286 286.192706 
L 122.6302 286.192706 
L 122.6302 285.439033 
L 136.452779 285.439033 
L 136.452779 284.685359 
L 139.323892 284.685359 
L 139.323892 283.931686 
L 150.580543 283.931686 
L 150.580543 283.178013 
L 151.915071 283.178013 
L 151.915071 282.42434 
L 157.262694 282.42434 
L 157.262694 281.670667 
L 159.208333 281.670667 
L 159.208333 280.916993 
L 159.97337 280.916993 
L 159.97337 280.16332 
L 161.295594 280.16332 
L 161.295594 279.409647 
L 164.742197 279.409647 
L 164.742197 278.655974 
L 169.368526 278.655974 
L 169.368526 277.902301 
L 170.589441 277.902301 
L 170.589441 277.148627 
L 170.839986 277.148627 
L 170.839986 276.394954 
L 171.799513 276.394954 
L 171.799513 275.641281 
L 174.887134 275.641281 
L 174.887134 274.133935 
L 179.857812 274.133935 
L 179.857812 273.380261 
L 181.726475 273.380261 
L 181.726475 272.626588 
L 183.431166 272.626588 
L 183.431166 271.872915 
L 184.022675 271.872915 
L 184.022675 270.365569 
L 184.280435 270.365569 
L 184.280435 269.611895 
L 185.662389 269.611895 
L 185.662389 268.858222 
L 186.213991 268.858222 
L 186.213991 268.104549 
L 186.99068 268.104549 
L 186.99068 267.350876 
L 189.202023 267.350876 
L 189.252967 265.843529 
L 190.473883 265.843529 
L 190.473883 265.089856 
L 190.724428 265.089856 
L 190.724428 264.336183 
L 190.881122 264.336183 
L 190.881122 263.58251 
L 191.489465 263.58251 
L 191.489465 262.828837 
L 192.275464 262.828837 
L 192.275464 262.075163 
L 193.49638 262.075163 
L 193.49638 261.32149 
L 195.009645 261.32149 
L 195.009645 260.567817 
L 196.23056 260.567817 
L 196.23056 259.814144 
L 197.505756 259.814144 
L 197.505756 257.553124 
L 199.484968 257.553124 
L 199.484968 256.799451 
L 200.528253 256.799451 
L 200.528253 256.045778 
L 201.610917 256.045778 
L 201.610917 255.292105 
L 202.35608 255.292105 
L 202.35608 254.538431 
L 202.762592 254.538431 
L 202.762592 253.784758 
L 203.767358 253.784758 
L 203.767358 253.031085 
L 204.633413 253.031085 
L 204.633413 252.277412 
L 205.378577 252.277412 
L 205.378577 251.523739 
L 205.546831 251.523739 
L 205.546831 250.770065 
L 206.403228 250.770065 
L 206.403228 248.509046 
L 207.367594 248.509046 
L 207.367594 247.755373 
L 208.504191 247.755373 
L 208.569327 246.248026 
L 209.95981 246.248026 
L 209.95981 245.494353 
L 210.576763 245.494353 
L 210.639835 243.233333 
L 211.303508 243.233333 
L 211.404936 241.725987 
L 212.159906 241.725987 
L 212.159906 240.218641 
L 212.905069 240.218641 
L 212.905069 239.464967 
L 213.085379 239.464967 
L 213.085379 238.711294 
L 214.656017 238.711294 
L 214.656017 235.696601 
L 214.94726 235.696601 
L 214.94726 234.942928 
L 215.538769 234.942928 
L 215.538769 233.435582 
L 217.118279 233.435582 
L 217.118279 232.681908 
L 217.390198 232.681908 
L 217.390198 231.928235 
L 217.575876 231.928235 
L 217.575876 231.174562 
L 217.950877 231.174562 
L 217.969757 229.667216 
L 218.087087 229.667216 
L 218.087087 228.913542 
L 218.861658 228.913542 
L 218.861658 228.159869 
L 219.369409 228.159869 
L 219.369409 227.406196 
L 220.225807 227.406196 
L 220.225807 226.652523 
L 220.412695 226.652523 
L 220.412695 225.89885 
L 220.564882 225.89885 
L 220.564882 225.145176 
L 221.057378 225.145176 
L 221.057378 223.63783 
L 221.295447 223.63783 
L 221.295447 222.884157 
L 221.931906 222.884157 
L 221.975958 221.37681 
L 222.119987 221.37681 
L 222.119987 220.623137 
L 222.240522 220.623137 
L 222.320098 218.362118 
L 222.391906 218.362118 
L 222.391906 217.608444 
L 222.516362 217.608444 
L 222.516362 216.854771 
L 223.005559 216.854771 
L 223.005559 216.101098 
L 223.200049 216.101098 
L 223.200049 215.347425 
L 223.541014 215.347425 
L 223.541014 214.593752 
L 223.791558 214.593752 
L 223.865463 210.825386 
L 224.258027 210.825386 
L 224.258027 210.071712 
L 224.536722 210.071712 
L 224.642151 208.564366 
L 224.888017 208.564366 
L 224.888017 207.810693 
L 225.126087 207.810693 
L 225.126087 207.05702 
L 225.496249 207.05702 
L 225.56659 205.549673 
L 226.028056 205.549673 
L 226.028056 204.796 
L 226.28767 204.796 
L 226.28767 204.042327 
L 226.525739 204.042327 
L 226.525739 203.288654 
L 226.853494 203.288654 
L 226.907958 201.781307 
L 227.622198 201.781307 
L 227.622198 201.027634 
L 227.739528 201.027634 
L 227.746655 199.520288 
L 228.290927 199.520288 
L 228.290927 198.766614 
L 228.532594 198.766614 
L 228.532594 198.012941 
L 229.021851 198.012941 
L 229.021851 195.751922 
L 229.272395 195.751922 
L 229.272395 194.998248 
L 229.889348 194.998248 
L 229.889348 194.244575 
L 230.192919 194.244575 
L 230.192919 192.737229 
L 230.493311 192.737229 
L 230.542057 191.229882 
L 230.709819 191.229882 
L 230.709819 190.476209 
L 230.940858 190.476209 
L 230.940858 189.722536 
L 231.258348 189.722536 
L 231.258348 188.968863 
L 231.413834 188.968863 
L 231.452838 187.461516 
L 231.570168 187.461516 
L 231.570168 186.707843 
L 231.73753 186.707843 
L 231.772429 185.200497 
L 232.044347 185.200497 
L 232.044347 183.69315 
L 233.244673 183.69315 
L 233.265263 182.185804 
L 233.497173 182.185804 
L 233.554548 180.678458 
L 233.653396 180.678458 
L 233.653396 179.924784 
L 233.948461 179.924784 
L 233.948461 179.171111 
L 234.304349 179.171111 
L 234.38746 177.663765 
L 234.540459 177.663765 
L 234.540459 176.910092 
L 234.678047 176.910092 
L 234.678047 176.156418 
L 234.831702 176.156418 
L 234.831702 174.649072 
L 235.178229 174.649072 
L 235.219031 173.141725 
L 235.423211 173.141725 
L 235.423211 172.388052 
L 235.603069 172.388052 
L 235.603069 171.634379 
L 235.882017 171.634379 
L 235.954918 170.127033 
L 236.658706 170.127033 
L 236.658706 169.373359 
L 236.974247 169.373359 
L 236.974247 168.619686 
L 237.127902 168.619686 
L 237.127902 167.866013 
L 237.27464 167.866013 
L 237.27464 164.85132 
L 237.58931 164.85132 
L 237.58931 164.097647 
L 237.709543 164.097647 
L 237.709543 163.343974 
L 238.166261 163.343974 
L 238.195163 161.836627 
L 238.337249 161.836627 
L 238.337249 161.082954 
L 238.600356 161.082954 
L 238.613961 159.575608 
L 238.870049 159.575608 
L 238.883689 158.068261 
L 239.049671 158.068261 
L 239.049671 157.314588 
L 239.511137 157.314588 
L 239.511137 156.560915 
L 239.6431 156.560915 
L 239.6431 155.807242 
L 239.84536 155.807242 
L 239.84536 154.299895 
L 240.117279 154.299895 
L 240.179324 152.792549 
L 240.414064 152.792549 
L 240.419788 151.285203 
L 240.549148 151.285203 
L 240.549148 150.531529 
L 241.22261 150.531529 
L 241.22261 149.777856 
L 241.338194 149.777856 
L 241.418829 148.27051 
L 241.783852 148.27051 
L 241.863575 146.763163 
L 242.480528 146.763163 
L 242.550868 145.255817 
L 242.631131 145.255817 
L 242.631131 144.502144 
L 242.819603 144.502144 
L 242.890001 142.241124 
L 243.084491 142.241124 
L 243.084491 141.487451 
L 243.676 141.487451 
L 243.676 137.719085 
L 244.212225 137.719085 
L 244.31023 136.211739 
L 244.402297 136.211739 
L 244.402297 135.458065 
L 245.186201 135.458065 
L 245.25551 133.950719 
L 246.155662 133.950719 
L 246.155662 133.197046 
L 246.486782 133.197046 
L 246.547113 131.689699 
L 247.611282 131.689699 
L 247.658827 130.182353 
L 248.228234 130.182353 
L 248.338211 127.921333 
L 248.468311 127.921333 
L 248.468311 127.16766 
L 248.702112 127.16766 
L 248.702112 126.413987 
L 248.906292 126.413987 
L 248.906292 125.660314 
L 249.091971 125.660314 
L 249.091971 124.906641 
L 249.268041 124.906641 
L 249.332197 123.399294 
L 249.921874 123.399294 
L 249.921874 122.645621 
L 250.240217 122.645621 
L 250.240217 121.891948 
L 250.538826 121.891948 
L 250.594261 120.384601 
L 250.885504 120.384601 
L 250.885504 119.630928 
L 251.142789 119.630928 
L 251.142789 118.877255 
L 251.411889 118.877255 
L 251.411889 118.123582 
L 251.548821 118.123582 
L 251.548821 117.369908 
L 251.72683 117.369908 
L 251.72683 116.616235 
L 251.928789 116.616235 
L 251.928789 113.601542 
L 252.430618 113.601542 
L 252.475228 111.340523 
L 252.63715 111.340523 
L 252.731595 109.833176 
L 253.114756 109.833176 
L 253.114756 109.079503 
L 253.268111 109.079503 
L 253.328441 107.572157 
L 253.435384 107.572157 
L 253.435384 106.818484 
L 253.646015 106.818484 
L 253.646015 106.06481 
L 253.858066 106.06481 
L 253.858066 105.311137 
L 253.992192 105.311137 
L 253.992192 104.557464 
L 255.774121 104.557464 
L 255.774121 103.803791 
L 256.1917 103.803791 
L 256.1917 103.050118 
L 256.411142 103.050118 
L 256.411142 102.296444 
L 256.642181 102.296444 
L 256.642181 101.542771 
L 257.196466 101.542771 
L 257.196466 100.789098 
L 257.468429 100.789098 
L 257.567654 99.281752 
L 257.603853 99.281752 
L 257.603853 98.528078 
L 257.719761 98.528078 
L 257.719761 97.774405 
L 258.172217 97.774405 
L 258.172217 97.020732 
L 258.330149 97.020732 
L 258.330149 96.267059 
L 258.924048 96.267059 
L 258.924048 95.513386 
L 259.541001 95.513386 
L 259.627836 92.498693 
L 259.729802 92.498693 
L 259.807022 90.237673 
L 260.244789 90.237673 
L 260.328166 87.22298 
L 260.369691 87.22298 
L 260.369691 86.469307 
L 260.537945 86.469307 
L 260.537945 85.715634 
L 261.201262 85.715634 
L 261.201262 84.961961 
L 261.600555 84.961961 
L 261.600555 84.208288 
L 261.933299 84.208288 
L 261.933299 83.454614 
L 262.160789 83.454614 
L 262.160789 82.700941 
L 263.253624 82.700941 
L 263.253624 81.947268 
L 263.388918 81.947268 
L 263.388918 81.193595 
L 263.560442 81.193595 
L 263.560442 78.932575 
L 263.829807 78.932575 
L 263.829807 78.178902 
L 264.005871 78.178902 
L 264.068943 76.671556 
L 264.361066 76.671556 
L 264.361066 75.917882 
L 264.835638 75.917882 
L 264.835638 75.164209 
L 264.9951 75.164209 
L 265.047157 72.90319 
L 266.056553 72.90319 
L 266.056553 72.149516 
L 266.582938 72.149516 
L 266.582938 71.395843 
L 267.090689 71.395843 
L 267.090689 70.64217 
L 267.276409 70.64217 
L 267.276409 69.888497 
L 267.766083 69.888497 
L 267.807668 68.38115 
L 267.982591 68.38115 
L 267.982591 67.627477 
L 268.790734 67.627477 
L 268.790734 66.873804 
L 268.931014 66.873804 
L 268.931014 66.120131 
L 270.233721 66.120131 
L 270.233721 65.366458 
L 270.940196 65.366458 
L 270.940196 64.612784 
L 271.086934 64.612784 
L 271.086934 63.105438 
L 271.517788 63.105438 
L 271.517788 62.351765 
L 271.643984 62.351765 
L 271.643984 61.598092 
L 271.813231 61.598092 
L 271.813231 60.844418 
L 273.212883 60.844418 
L 273.212883 60.090745 
L 273.641058 60.090745 
L 273.641058 59.337072 
L 274.109431 59.337072 
L 274.109431 58.583399 
L 274.684343 58.583399 
L 274.684343 57.829725 
L 275.192094 57.829725 
L 275.192094 55.568706 
L 275.405066 55.568706 
L 275.405066 54.815033 
L 275.550689 54.815033 
L 275.550689 54.061359 
L 276.132742 54.061359 
L 276.132742 53.307686 
L 277.043523 53.307686 
L 277.043523 52.554013 
L 278.474205 52.554013 
L 278.474205 51.80034 
L 278.997291 51.80034 
L 278.997291 51.046667 
L 279.155239 51.046667 
L 279.155239 50.292993 
L 280.066019 50.292993 
L 280.066019 49.53932 
L 280.422387 49.53932 
L 280.422387 48.031974 
L 282.718587 48.031974 
L 282.753592 46.524627 
L 283.444883 46.524627 
L 283.444883 42.002588 
L 285.741083 42.002588 
L 285.741083 40.495242 
L 286.919512 40.495242 
L 286.919512 39.741569 
L 287.45426 39.741569 
L 287.45426 38.987895 
L 287.609746 38.987895 
L 287.609746 38.234222 
L 287.867032 38.234222 
L 287.891688 36.726876 
L 288.071212 36.726876 
L 288.071212 35.973203 
L 288.675176 35.973203 
L 288.675176 34.465856 
L 289.235855 34.465856 
L 289.235855 33.712183 
L 289.846244 33.712183 
L 289.846244 32.95851 
L 290.476757 32.95851 
L 290.476757 32.204837 
L 291.029388 32.204837 
L 291.093709 30.69749 
L 291.643663 30.69749 
L 291.697672 29.190144 
L 293.25864 29.190144 
L 293.25864 28.436471 
L 293.789899 28.436471 
L 293.789899 27.682797 
L 295.076536 27.682797 
L 295.076536 26.929124 
L 298.232279 26.929124 
L 298.232279 26.175451 
L 298.936067 26.175451 
L 298.936067 25.421778 
L 299.204455 25.421778 
L 299.204455 24.668105 
L 299.498685 24.668105 
L 299.498685 23.914431 
L 299.908243 23.914431 
L 299.908243 23.160758 
L 301.092828 23.160758 
L 301.092828 22.407085 
L 302.697149 22.407085 
L 302.697149 21.653412 
L 302.95643 21.653412 
L 302.95643 20.899739 
L 303.329325 20.899739 
L 303.329325 20.146065 
L 303.660218 20.146065 
L 303.669325 18.638719 
L 304.979522 18.638719 
L 304.979522 17.885046 
L 307.4213 17.885046 
L 307.4213 17.131373 
L 314.152834 17.131373 
L 314.152834 16.377699 
L 314.88118 16.377699 
L 314.88118 15.624026 
L 315.37375 15.624026 
L 315.37375 14.870353 
L 315.746977 14.870353 
L 315.746977 14.11668 
L 316.102096 14.11668 
L 316.102096 13.363007 
L 317.257178 13.363007 
L 317.257178 12.609333 
L 319.383127 12.609333 
L 319.383127 11.85566 
L 326.510784 11.85566 
L 326.510784 11.101987 
L 327.239129 11.101987 
L 327.239129 10.348314 
L 330.446698 10.348314 
L 330.446698 9.594641 
L 331.175043 9.594641 
L 331.175043 8.840967 
L 334.845419 8.840967 
L 334.845419 8.087294 
L 344.269276 8.087294 
L 344.269276 7.333621 
L 344.997622 7.333621 
L 344.997622 6.579948 
L 347.263071 6.579948 
L 347.263071 5.826275 
L 453.192 5.826275 
L 453.192 5.826275 
" clip-path="url(#p907d615e0e)" style="fill: none; stroke: #000000; stroke-width: 3; stroke-linecap: square"/>
   </g>
   <g id="line2d_18">
    <path clip-path="url(#p907d615e0e)" style="fill: none; stroke: #000000; stroke-width: 3; stroke-linecap: square"/>
   </g>
   <g id="line2d_19">
    <path d="M 34.16 261.041698 
L 86.949566 261.041698 
L 86.949566 260.096456 
L 94.663251 260.096456 
L 94.663251 259.151214 
L 98.985271 259.151214 
L 98.985271 258.205972 
L 100.736219 258.205972 
L 100.736219 257.260729 
L 101.11122 257.260729 
L 101.11122 256.315487 
L 104.864114 256.315487 
L 104.864114 255.370245 
L 107.882743 255.370245 
L 107.882743 254.425002 
L 112.577799 254.425002 
L 112.577799 253.47976 
L 116.899818 253.47976 
L 116.899818 252.534518 
L 118.650766 252.534518 
L 118.650766 251.589275 
L 119.025767 251.589275 
L 119.025767 250.644033 
L 119.195541 250.644033 
L 119.195541 249.698791 
L 125.79729 249.698791 
L 125.79729 248.753548 
L 126.909226 248.753548 
L 126.909226 247.808306 
L 131.231245 247.808306 
L 131.231245 246.863064 
L 132.982193 246.863064 
L 132.982193 245.917821 
L 133.357194 245.917821 
L 133.357194 244.972579 
L 139.020321 244.972579 
L 139.020321 244.027337 
L 140.128717 244.027337 
L 140.128717 243.082095 
L 146.734006 243.082095 
L 146.734006 242.136852 
L 151.056025 242.136852 
L 151.056025 241.19161 
L 152.806973 241.19161 
L 152.806973 240.246368 
L 153.181974 240.246368 
L 153.181974 239.301125 
L 159.953497 239.301125 
L 159.953497 238.355883 
L 162.870696 238.355883 
L 162.870696 237.410641 
L 166.255381 237.410641 
L 166.255381 236.465398 
L 169.075605 236.465398 
L 169.075605 235.520156 
L 171.223836 235.520156 
L 171.223836 234.574914 
L 171.606446 234.574914 
L 171.606446 233.629671 
L 173.969066 233.629671 
L 173.969066 232.684429 
L 178.291085 232.684429 
L 178.291085 231.739187 
L 180.042033 231.739187 
L 180.042033 230.793945 
L 180.417034 230.793945 
L 180.417034 229.848702 
L 180.871852 229.848702 
L 180.884599 227.958218 
L 187.188557 227.958218 
L 187.188557 227.012975 
L 189.138383 227.012975 
L 189.138383 226.067733 
L 192.11534 226.067733 
L 192.11534 225.122491 
L 193.592932 225.122491 
L 193.592932 224.177248 
L 194.646181 224.177248 
L 194.646181 223.232006 
L 195.125394 223.232006 
L 195.125394 222.286764 
L 195.610027 222.286764 
L 195.610027 221.341521 
L 196.407362 221.341521 
L 196.407362 220.396279 
L 197.656235 220.396279 
L 197.656235 219.451037 
L 199.202111 219.451037 
L 199.202111 218.505794 
L 200.74944 218.505794 
L 200.74944 217.560552 
L 200.935988 217.560552 
L 201.005704 215.670068 
L 202.975233 215.670068 
L 202.975233 214.724825 
L 203.46981 214.724825 
L 203.46981 213.779583 
L 204.022384 213.779583 
L 204.022384 212.834341 
L 206.553225 212.834341 
L 206.553225 211.889098 
L 207.133635 211.889098 
L 207.232356 209.998614 
L 208.531738 209.998614 
L 208.531738 209.053371 
L 209.520407 209.053371 
L 209.520407 208.108129 
L 211.50748 208.108129 
L 211.50748 207.162887 
L 218.353915 207.162887 
L 218.353915 206.217644 
L 218.995929 206.217644 
L 218.995929 205.272402 
L 219.582053 205.272402 
L 219.582053 204.32716 
L 220.67634 204.32716 
L 220.67634 203.381918 
L 220.789354 203.381918 
L 220.789354 202.436675 
L 221.52677 202.436675 
L 221.52677 201.491433 
L 222.241846 201.491433 
L 222.241846 200.546191 
L 222.715585 200.546191 
L 222.715585 199.600948 
L 222.846356 199.600948 
L 222.846356 198.655706 
L 223.239374 198.655706 
L 223.29459 196.765221 
L 223.789175 196.765221 
L 223.789175 195.819979 
L 224.045439 195.819979 
L 224.045439 194.874737 
L 225.251899 194.874737 
L 225.278619 192.984252 
L 225.613699 192.984252 
L 225.613699 192.03901 
L 225.817854 192.03901 
L 225.838906 190.148525 
L 225.935589 190.148525 
L 225.935589 189.203283 
L 226.799228 189.203283 
L 226.799228 188.258041 
L 227.055493 188.258041 
L 227.055493 187.312798 
L 227.434955 187.312798 
L 227.434955 186.367556 
L 227.639007 186.367556 
L 227.639007 185.422314 
L 228.272091 185.422314 
L 228.272091 184.477071 
L 230.173369 184.477071 
L 230.173369 183.531829 
L 230.835125 183.531829 
L 230.835125 182.586587 
L 233.183423 182.586587 
L 233.183423 181.641344 
L 234.14889 181.641344 
L 234.14889 180.696102 
L 235.696219 180.696102 
L 235.696219 179.75086 
L 235.952484 179.75086 
L 235.952484 178.805617 
L 237.406239 178.805617 
L 237.406239 177.860375 
L 237.538084 177.860375 
L 237.538084 176.915133 
L 237.829475 176.915133 
L 237.829475 175.96989 
L 238.094267 175.96989 
L 238.094267 175.024648 
L 238.996006 175.024648 
L 238.996006 174.079406 
L 239.243248 174.079406 
L 239.322405 171.243679 
L 239.925835 171.243679 
L 239.925835 170.298437 
L 240.309001 170.298437 
L 240.309001 169.353194 
L 240.529707 169.353194 
L 240.529707 168.407952 
L 240.657301 168.407952 
L 240.657301 167.46271 
L 241.282492 167.46271 
L 241.282492 166.517467 
L 241.766382 166.517467 
L 241.766382 165.572225 
L 241.885439 165.572225 
L 241.885439 164.626983 
L 242.080414 164.626983 
L 242.080414 163.68174 
L 242.330981 163.68174 
L 242.330981 162.736498 
L 242.568938 162.736498 
L 242.568938 161.791256 
L 243.092741 161.791256 
L 243.092741 160.846014 
L 243.528246 160.846014 
L 243.528246 159.900771 
L 244.608183 159.900771 
L 244.608183 158.955529 
L 245.663686 158.955529 
L 245.663686 158.010287 
L 245.886091 158.010287 
L 245.886091 157.065044 
L 246.838998 157.065044 
L 246.838998 156.119802 
L 248.896144 156.119802 
L 248.896144 155.17456 
L 249.122434 155.17456 
L 249.122434 154.229317 
L 249.4861 154.229317 
L 249.4861 153.284075 
L 250.164688 153.284075 
L 250.164688 152.338833 
L 250.52965 152.338833 
L 250.52965 151.39359 
L 250.669764 151.39359 
L 250.678741 149.503106 
L 250.926028 149.503106 
L 250.926028 148.557863 
L 252.654772 148.557863 
L 252.732728 146.667379 
L 253.688795 146.667379 
L 253.688795 145.722137 
L 254.734404 145.722137 
L 254.734404 144.776894 
L 255.436356 144.776894 
L 255.436356 143.831652 
L 255.744023 143.831652 
L 255.744023 142.88641 
L 256.661174 142.88641 
L 256.661174 141.941167 
L 257.053958 141.941167 
L 257.146591 140.050683 
L 257.227007 140.050683 
L 257.278436 138.160198 
L 257.793135 138.160198 
L 257.889313 133.433986 
L 257.933126 133.433986 
L 257.933126 132.488744 
L 258.736358 132.488744 
L 258.736358 131.543502 
L 259.005641 131.543502 
L 259.096614 128.707775 
L 259.709626 128.707775 
L 259.709626 127.762533 
L 259.84147 127.762533 
L 259.84147 126.81729 
L 259.986865 126.81729 
L 260.049353 124.926806 
L 260.332137 124.926806 
L 260.344884 123.036321 
L 260.693094 123.036321 
L 260.693094 122.091079 
L 261.215003 122.091079 
L 261.299392 120.200594 
L 261.568675 120.200594 
L 261.591162 118.31011 
L 262.422304 118.31011 
L 262.422304 117.364867 
L 262.585786 117.364867 
L 262.612387 115.474383 
L 269.927835 115.474383 
L 269.927835 114.52914 
L 270.075449 114.52914 
L 270.075449 113.583898 
L 271.829505 113.583898 
L 271.829505 112.638656 
L 272.17181 112.638656 
L 272.17181 111.693413 
L 272.495074 111.693413 
L 272.525835 109.802929 
L 272.766679 109.802929 
L 272.766679 108.857686 
L 272.898746 108.857686 
L 272.898746 107.912444 
L 275.070313 107.912444 
L 275.070313 106.967202 
L 275.535889 106.967202 
L 275.535889 106.021959 
L 275.694507 106.021959 
L 275.772463 103.186233 
L 275.845344 103.186233 
L 275.867648 101.295748 
L 277.303266 101.295748 
L 277.303266 100.350506 
L 277.55933 100.350506 
L 277.658521 96.569536 
L 277.673478 96.569536 
L 277.774139 93.733809 
L 278.61626 93.733809 
L 278.70456 90.898082 
L 278.782517 90.898082 
L 278.793544 89.007598 
L 279.039189 89.007598 
L 279.039189 88.062356 
L 279.171034 88.062356 
L 279.171034 87.117113 
L 280.177034 87.117113 
L 280.236512 85.226629 
L 280.433446 85.226629 
L 280.433446 84.281386 
L 280.628956 84.281386 
L 280.628956 83.336144 
L 280.784192 83.336144 
L 280.784192 82.390902 
L 280.898238 82.390902 
L 280.898238 81.445659 
L 281.356578 81.445659 
L 281.356578 80.500417 
L 281.941951 80.500417 
L 281.941951 79.555175 
L 282.99648 79.555175 
L 282.99648 78.609932 
L 284.432879 78.609932 
L 284.432879 77.66469 
L 285.835379 77.66469 
L 285.835379 76.719448 
L 286.692641 76.719448 
L 286.692641 75.774206 
L 287.601551 75.774206 
L 287.679508 73.883721 
L 287.951654 73.883721 
L 287.951654 72.938479 
L 288.826222 72.938479 
L 288.826222 71.993236 
L 289.681183 71.993236 
L 289.681183 71.047994 
L 289.90023 71.047994 
L 289.90023 70.102752 
L 291.051532 70.102752 
L 291.051532 69.157509 
L 291.99659 69.157509 
L 291.99659 68.212267 
L 292.96757 68.212267 
L 292.96757 67.267025 
L 294.86924 67.267025 
L 294.86924 66.321782 
L 295.534809 66.321782 
L 295.534809 65.37654 
L 295.977624 65.37654 
L 295.977624 64.431298 
L 296.180907 64.431298 
L 296.240386 62.540813 
L 297.360451 62.540813 
L 297.360451 61.595571 
L 297.879294 61.595571 
L 297.879294 60.650329 
L 298.544863 60.650329 
L 298.544863 59.705086 
L 299.000354 59.705086 
L 299.000354 58.759844 
L 299.406424 58.759844 
L 299.506597 56.869359 
L 299.566076 56.869359 
L 299.566076 55.924117 
L 300.686141 55.924117 
L 300.686141 54.978875 
L 302.326044 54.978875 
L 302.326044 54.033632 
L 302.575095 54.033632 
L 302.653052 52.143148 
L 303.749927 52.143148 
L 303.749927 51.197905 
L 304.654727 51.197905 
L 304.654727 50.252663 
L 304.874614 50.252663 
L 304.919513 48.362179 
L 305.278139 48.362179 
L 305.278139 47.416936 
L 305.395875 47.416936 
L 305.395875 46.471694 
L 305.866202 46.471694 
L 305.866202 45.526452 
L 306.776285 45.526452 
L 306.776285 44.581209 
L 307.441853 44.581209 
L 307.441853 43.635967 
L 308.966079 43.635967 
L 308.966079 42.690725 
L 317.13529 42.690725 
L 317.13529 41.745482 
L 318.081353 41.745482 
L 318.081353 40.80024 
L 319.23165 40.80024 
L 319.23165 39.854998 
L 319.848159 39.854998 
L 319.848159 38.909755 
L 319.994542 38.909755 
L 319.994542 37.964513 
L 320.197629 37.964513 
L 320.197629 37.019271 
L 321.749829 37.019271 
L 321.749829 36.074028 
L 322.415398 36.074028 
L 322.415398 35.128786 
L 323.297506 35.128786 
L 323.297506 34.183544 
L 334.896641 34.183544 
L 334.896641 33.238302 
L 336.687293 33.238302 
L 336.687293 32.293059 
L 337.906133 32.293059 
L 338.008446 29.457332 
L 340.022409 29.457332 
L 340.022409 28.51209 
L 343.122286 28.51209 
L 343.122286 27.566848 
L 352.733874 27.566848 
L 352.733874 26.621605 
L 353.531209 26.621605 
L 353.531209 25.676363 
L 357.118806 25.676363 
L 357.118806 24.731121 
L 358.088323 24.731121 
L 358.088323 23.785878 
L 364.356203 23.785878 
L 364.356203 22.840636 
L 365.141193 22.840636 
L 365.141193 21.895394 
L 367.257469 21.895394 
L 367.257469 20.950151 
L 370.357346 20.950151 
L 370.357346 20.004909 
L 382.941701 20.004909 
L 382.941701 19.059667 
L 383.059436 19.059667 
L 383.059436 18.114425 
L 412.560203 18.114425 
L 412.560203 17.169182 
L 414.350854 17.169182 
L 414.350854 16.22394 
L 434.782368 16.22394 
L 434.782368 15.278698 
L 435.751884 15.278698 
L 435.751884 14.333455 
L 453.192 14.333455 
L 453.192 14.333455 
" clip-path="url(#p907d615e0e)" style="fill: none; stroke: #00bfbf; stroke-width: 3; stroke-linecap: square"/>
   </g>
   <g id="line2d_20">
    <path clip-path="url(#p907d615e0e)" style="fill: none; stroke: #00bfbf; stroke-width: 3; stroke-linecap: square"/>
   </g>
   <g id="line2d_21">
    <path d="M 34.16 264.141687 
L 97.315299 264.141687 
L 97.315299 263.128685 
L 104.644271 263.128685 
L 104.644271 262.115683 
L 105.161171 262.115683 
L 105.161171 261.102682 
L 105.668922 261.102682 
L 105.668922 260.08968 
L 107.80206 260.08968 
L 107.80206 259.076679 
L 108.181182 259.076679 
L 108.181182 258.063677 
L 110.646462 258.063677 
L 110.646462 257.050675 
L 115.510153 257.050675 
L 115.510153 256.037674 
L 116.027054 256.037674 
L 116.027054 255.024672 
L 116.534805 255.024672 
L 116.534805 254.011671 
L 118.667943 254.011671 
L 118.667943 252.998669 
L 121.512345 252.998669 
L 121.512345 251.985667 
L 139.76678 251.985667 
L 139.76678 250.972666 
L 147.095752 250.972666 
L 147.095752 249.959664 
L 147.612652 249.959664 
L 147.612652 248.946662 
L 148.120403 248.946662 
L 148.120403 247.933661 
L 150.253541 247.933661 
L 150.253541 246.920659 
L 153.097943 246.920659 
L 153.097943 245.907658 
L 159.421781 245.907658 
L 159.421781 244.894656 
L 160.00122 244.894656 
L 160.00122 243.881654 
L 166.750752 243.881654 
L 166.750752 242.868653 
L 167.267652 242.868653 
L 167.267652 241.855651 
L 167.775403 241.855651 
L 167.775403 240.84265 
L 169.908541 240.84265 
L 169.908541 239.829648 
L 170.867103 239.829648 
L 170.867103 238.816646 
L 172.752943 238.816646 
L 172.752943 237.803645 
L 173.519127 237.803645 
L 173.519127 236.790643 
L 182.156218 236.790643 
L 182.156218 235.777641 
L 186.869874 235.777641 
L 186.869874 234.76464 
L 193.022101 234.76464 
L 193.022101 233.751638 
L 194.198846 233.751638 
L 194.198846 232.738637 
L 194.715746 232.738637 
L 194.715746 231.725635 
L 195.223497 231.725635 
L 195.223497 230.712633 
L 195.743076 230.712633 
L 195.743076 229.699632 
L 197.356635 229.699632 
L 197.356635 228.68663 
L 198.254049 228.68663 
L 198.254049 227.673629 
L 198.504373 227.673629 
L 198.504373 226.660627 
L 199.871619 226.660627 
L 199.871619 225.647625 
L 200.201037 225.647625 
L 200.201037 224.634624 
L 201.769044 224.634624 
L 201.769044 223.621622 
L 201.993193 223.621622 
L 202.024156 221.595619 
L 202.444366 221.595619 
L 202.452701 219.569616 
L 207.593199 219.569616 
L 207.593199 218.556614 
L 207.750592 218.556614 
L 207.752461 216.530611 
L 209.370255 216.530611 
L 209.370255 215.517609 
L 214.25411 215.517609 
L 214.25411 214.504607 
L 218.110984 214.504607 
L 218.110984 213.491606 
L 218.879672 213.491606 
L 218.879672 212.478604 
L 220.040524 212.478604 
L 220.040524 211.465603 
L 220.338354 211.465603 
L 220.338354 210.452601 
L 220.890516 210.452601 
L 220.890516 209.439599 
L 222.107701 209.439599 
L 222.162098 207.413596 
L 222.940461 207.413596 
L 222.940461 206.400595 
L 223.433556 206.400595 
L 223.433556 205.387593 
L 223.992993 205.387593 
L 223.992993 204.374591 
L 224.248105 204.374591 
L 224.248105 203.36159 
L 224.607699 203.36159 
L 224.668315 201.335586 
L 225.062035 201.335586 
L 225.119993 199.309583 
L 226.503966 199.309583 
L 226.511208 197.28358 
L 226.759078 197.28358 
L 226.759078 196.270578 
L 227.179288 196.270578 
L 227.179288 195.257577 
L 227.919497 195.257577 
L 227.919497 194.244575 
L 228.089846 194.244575 
L 228.089846 193.231574 
L 228.759778 193.231574 
L 228.759778 192.218572 
L 229.817148 192.218572 
L 229.817148 191.20557 
L 230.819434 191.20557 
L 230.819434 190.192569 
L 232.328121 190.192569 
L 232.328121 189.179567 
L 236.002378 189.179567 
L 236.002378 188.166565 
L 236.25749 188.166565 
L 236.25749 187.153564 
L 236.677699 187.153564 
L 236.677699 186.140562 
L 237.37709 186.140562 
L 237.43836 184.114559 
L 238.279889 184.114559 
L 238.279889 183.101557 
L 238.895743 183.101557 
L 238.895743 182.088556 
L 239.048577 182.088556 
L 239.048577 181.075554 
L 239.338386 181.075554 
L 239.338386 180.062553 
L 239.62566 180.062553 
L 239.62566 179.049551 
L 239.817638 179.049551 
L 239.817638 178.036549 
L 240.089897 178.036549 
L 240.089897 177.023548 
L 240.408519 177.023548 
L 240.507259 174.997544 
L 240.955853 174.997544 
L 241.017317 172.971541 
L 241.179826 172.971541 
L 241.179826 171.95854 
L 241.377718 171.95854 
L 241.377718 170.945538 
L 241.826532 170.945538 
L 241.826532 169.932536 
L 241.948514 169.932536 
L 241.948514 168.919535 
L 242.369404 168.919535 
L 242.369404 167.906533 
L 243.407196 167.906533 
L 243.499292 165.88053 
L 244.262699 165.88053 
L 244.262699 164.867528 
L 245.657505 164.867528 
L 245.657505 163.854527 
L 246.774716 163.854527 
L 246.774716 162.841525 
L 248.168478 162.841525 
L 248.168478 161.828523 
L 249.05752 161.828523 
L 249.140433 159.80252 
L 249.256691 159.80252 
L 249.256691 158.789519 
L 249.395545 158.789519 
L 249.395545 157.776517 
L 249.555795 157.776517 
L 249.555795 156.763515 
L 249.815754 156.763515 
L 249.815754 155.750514 
L 250.313795 155.750514 
L 250.313795 154.737512 
L 251.904994 154.737512 
L 251.904994 153.724511 
L 252.049687 153.724511 
L 252.049687 152.711509 
L 252.824768 152.711509 
L 252.824768 151.698507 
L 254.657834 151.698507 
L 254.657834 150.685506 
L 254.964588 150.685506 
L 254.964588 149.672504 
L 256.122806 149.672504 
L 256.122806 148.659502 
L 256.705591 148.659502 
L 256.705591 147.646501 
L 257.135108 147.646501 
L 257.135108 146.633499 
L 257.607265 146.633499 
L 257.66689 144.607496 
L 257.735833 144.607496 
L 257.735833 143.594494 
L 257.903797 143.594494 
L 257.903797 142.581493 
L 258.414849 142.581493 
L 258.414849 141.568491 
L 259.362478 141.568491 
L 259.362478 140.555489 
L 259.507291 140.555489 
L 259.617083 138.529486 
L 259.626051 138.529486 
L 259.626051 136.503483 
L 259.835362 136.503483 
L 259.853497 134.47748 
L 259.986543 134.47748 
L 259.986543 133.464478 
L 260.258802 133.464478 
L 260.258802 132.451477 
L 260.385772 132.451477 
L 260.385772 131.438475 
L 260.507202 131.438475 
L 260.610854 128.39947 
L 261.844453 128.39947 
L 261.844453 127.386468 
L 262.323179 127.386468 
L 262.407228 125.360465 
L 262.88648 125.360465 
L 262.88648 124.347464 
L 263.158739 124.347464 
L 263.158739 123.334462 
L 263.477361 123.334462 
L 263.477361 122.32146 
L 268.962689 122.32146 
L 268.962689 121.308459 
L 269.297111 121.308459 
L 269.297111 120.295457 
L 270.804945 120.295457 
L 270.828796 118.269454 
L 271.211259 118.269454 
L 271.281469 116.243451 
L 271.710793 116.243451 
L 271.710793 115.230449 
L 271.86818 115.230449 
L 271.86818 114.217447 
L 273.792442 114.217447 
L 273.792442 113.204446 
L 274.091899 113.204446 
L 274.128944 111.178443 
L 274.273636 111.178443 
L 274.273636 110.165441 
L 275.461234 110.165441 
L 275.461234 109.152439 
L 275.700774 109.152439 
L 275.700774 108.139438 
L 276.360591 108.139438 
L 276.462485 106.113435 
L 276.639917 106.113435 
L 276.639917 105.100433 
L 276.784609 105.100433 
L 276.881783 103.07443 
L 277.897329 103.07443 
L 277.904737 101.048426 
L 278.346755 101.048426 
L 278.36251 99.022423 
L 278.583754 99.022423 
L 278.583754 98.009422 
L 278.801708 98.009422 
L 278.841762 95.983418 
L 278.94446 95.983418 
L 278.94446 94.970417 
L 279.114021 94.970417 
L 279.114021 93.957415 
L 279.392756 93.957415 
L 279.432643 91.931412 
L 280.004267 91.931412 
L 280.022402 89.905409 
L 280.804674 89.905409 
L 280.857728 86.866404 
L 281.323737 86.866404 
L 281.323737 85.853402 
L 281.483691 85.853402 
L 281.483691 84.840401 
L 281.595996 84.840401 
L 281.595996 83.827399 
L 281.914618 83.827399 
L 281.914618 82.814397 
L 282.904204 82.814397 
L 282.922339 80.788394 
L 283.290853 80.788394 
L 283.290853 79.775393 
L 286.138328 79.775393 
L 286.138328 78.762391 
L 286.28302 78.762391 
L 286.28302 77.749389 
L 287.113029 77.749389 
L 287.113029 76.736388 
L 288.058947 76.736388 
L 288.058947 75.723386 
L 288.617689 75.723386 
L 288.617689 74.710384 
L 288.763212 74.710384 
L 288.763212 73.697383 
L 288.891168 73.697383 
L 288.891168 72.684381 
L 289.667591 72.684381 
L 289.667591 71.67138 
L 290.356139 71.67138 
L 290.356139 70.658378 
L 290.866259 70.658378 
L 290.866259 69.645376 
L 291.52106 69.645376 
L 291.52106 68.632375 
L 293.052745 68.632375 
L 293.052745 67.619373 
L 294.032034 67.619373 
L 294.092129 65.59337 
L 295.563718 65.59337 
L 295.563718 64.580368 
L 296.428908 64.580368 
L 296.428908 63.567367 
L 296.603102 63.567367 
L 296.603102 62.554365 
L 296.759957 62.554365 
L 296.759957 61.541363 
L 297.438973 61.541363 
L 297.438973 60.528362 
L 298.859486 60.528362 
L 298.877621 58.502359 
L 299.241932 58.502359 
L 299.276383 56.476355 
L 299.421075 56.476355 
L 299.421075 55.463354 
L 299.920948 55.463354 
L 299.920948 54.450352 
L 301.341461 54.450352 
L 301.359596 52.424349 
L 302.029223 52.424349 
L 302.029223 51.411347 
L 303.213745 51.411347 
L 303.213745 50.398346 
L 303.494194 50.398346 
L 303.530445 48.372342 
L 303.808685 48.372342 
L 303.808685 47.359341 
L 304.978579 47.359341 
L 305.062129 45.333338 
L 306.101513 45.333338 
L 306.101513 44.320336 
L 311.906704 44.320336 
L 311.906704 43.307334 
L 314.079628 43.307334 
L 314.079628 42.294333 
L 316.065782 42.294333 
L 316.065782 41.281331 
L 316.6685 41.281331 
L 316.6685 40.268329 
L 318.200184 40.268329 
L 318.200184 39.255328 
L 318.314352 39.255328 
L 318.314352 38.242326 
L 319.239568 38.242326 
L 319.239568 37.229325 
L 320.34881 37.229325 
L 320.34881 36.216323 
L 321.253189 36.216323 
L 321.253189 35.203321 
L 329.163351 35.203321 
L 329.163351 33.177318 
L 338.760834 33.177318 
L 338.760834 32.164317 
L 340.00381 32.164317 
L 340.00381 31.151315 
L 340.908189 31.151315 
L 340.908189 30.138313 
L 343.629199 30.138313 
L 343.629199 29.125312 
L 345.238074 29.125312 
L 345.238074 28.11231 
L 345.665226 28.11231 
L 345.665226 27.099308 
L 356.65033 27.099308 
L 356.65033 26.086307 
L 365.320227 26.086307 
L 365.320227 25.073305 
L 367.451904 25.073305 
L 367.451904 24.060304 
L 368.356283 24.060304 
L 368.356283 23.047302 
L 374.515879 23.047302 
L 374.515879 22.0343 
L 392.76832 22.0343 
L 392.76832 21.021299 
L 408.298135 21.021299 
L 408.298135 20.008297 
L 453.192 20.008297 
L 453.192 20.008297 
" clip-path="url(#p907d615e0e)" style="fill: none; stroke: #bf00bf; stroke-width: 3; stroke-linecap: square"/>
   </g>
   <g id="line2d_22">
    <path clip-path="url(#p907d615e0e)" style="fill: none; stroke: #bf00bf; stroke-width: 3; stroke-linecap: square"/>
   </g>
   <g id="line2d_23">
    <path d="M 34.16 264.141687 
L 110.633965 264.141687 
L 110.633965 263.128685 
L 113.779914 263.128685 
L 113.779914 262.115683 
L 114.800918 262.115683 
L 114.800918 261.102682 
L 115.851367 261.102682 
L 115.851367 260.08968 
L 116.36251 260.08968 
L 116.36251 259.076679 
L 118.083029 259.076679 
L 118.083029 258.063677 
L 122.698509 258.063677 
L 122.698509 257.050675 
L 125.844458 257.050675 
L 125.844458 256.037674 
L 126.865462 256.037674 
L 126.865462 255.024672 
L 127.915911 255.024672 
L 127.915911 254.011671 
L 128.427055 254.011671 
L 128.427055 252.998669 
L 130.147573 252.998669 
L 130.147573 251.985667 
L 153.913 251.985667 
L 153.913 250.972666 
L 157.058949 250.972666 
L 157.058949 249.959664 
L 158.079953 249.959664 
L 158.079953 248.946662 
L 159.130402 248.946662 
L 159.130402 247.933661 
L 159.641546 247.933661 
L 159.641546 246.920659 
L 159.936295 246.920659 
L 159.936295 245.907658 
L 161.362064 245.907658 
L 161.362064 244.894656 
L 172.000839 244.894656 
L 172.000839 243.881654 
L 172.623937 243.881654 
L 172.623937 242.868653 
L 175.769886 242.868653 
L 175.769886 241.855651 
L 176.79089 241.855651 
L 176.79089 240.84265 
L 177.662575 240.84265 
L 177.662575 239.829648 
L 177.841339 239.829648 
L 177.841339 238.816646 
L 178.352483 238.816646 
L 178.352483 237.803645 
L 180.073001 237.803645 
L 180.073001 236.790643 
L 181.938267 236.790643 
L 181.938267 235.777641 
L 194.002811 235.777641 
L 194.002811 234.76464 
L 197.954328 234.76464 
L 197.989216 232.738637 
L 198.968056 232.738637 
L 198.968056 231.725635 
L 200.816184 231.725635 
L 200.816184 230.712633 
L 201.135165 230.712633 
L 201.236309 228.68663 
L 202.156169 228.68663 
L 202.156169 227.673629 
L 202.507168 227.673629 
L 202.507168 226.660627 
L 203.206618 226.660627 
L 203.282863 223.621622 
L 203.717762 223.621622 
L 203.729481 221.595619 
L 204.125577 221.595619 
L 204.125577 220.582617 
L 205.43828 220.582617 
L 205.43828 219.569616 
L 208.037561 219.569616 
L 208.037561 218.556614 
L 208.794343 218.556614 
L 208.794343 217.543612 
L 210.018872 217.543612 
L 210.018872 216.530611 
L 210.984074 216.530611 
L 210.984074 215.517609 
L 213.578585 215.517609 
L 213.578585 214.504607 
L 218.529675 214.504607 
L 218.529675 213.491606 
L 219.304074 213.491606 
L 219.304074 212.478604 
L 220.551126 212.478604 
L 220.551126 211.465603 
L 220.810129 211.465603 
L 220.810129 210.452601 
L 221.926268 210.452601 
L 221.926268 209.439599 
L 222.501114 209.439599 
L 222.501114 208.426598 
L 222.615726 208.426598 
L 222.615726 207.413596 
L 223.633647 207.413596 
L 223.633647 206.400595 
L 223.916988 206.400595 
L 223.916988 205.387593 
L 224.588344 205.387593 
L 224.588344 204.374591 
L 225.034962 204.374591 
L 225.034962 203.36159 
L 225.217302 203.36159 
L 225.324631 201.335586 
L 225.431058 201.335586 
L 225.431058 200.322585 
L 225.643129 200.322585 
L 225.695521 198.296582 
L 226.856597 198.296582 
L 226.856597 197.28358 
L 227.303215 197.28358 
L 227.366193 195.257577 
L 227.699312 195.257577 
L 227.699312 194.244575 
L 227.908644 194.244575 
L 227.908644 193.231574 
L 228.031507 193.231574 
L 228.031507 192.218572 
L 230.099824 192.218572 
L 230.099824 191.20557 
L 230.855024 191.20557 
L 230.855024 190.192569 
L 232.368078 190.192569 
L 232.368078 189.179567 
L 236.604362 189.179567 
L 236.604362 188.166565 
L 237.05098 188.166565 
L 237.05098 187.153564 
L 237.447076 187.153564 
L 237.447076 186.140562 
L 237.760065 186.140562 
L 237.760065 185.127561 
L 237.935115 185.127561 
L 237.935115 184.114559 
L 238.52362 184.114559 
L 238.52362 183.101557 
L 239.298019 183.101557 
L 239.298019 182.088556 
L 239.430738 182.088556 
L 239.45285 180.062553 
L 239.673435 180.062553 
L 239.673435 179.049551 
L 240.054344 179.049551 
L 240.054344 178.036549 
L 240.49652 178.036549 
L 240.558003 174.997544 
L 241.143834 174.997544 
L 241.233363 172.971541 
L 241.347138 172.971541 
L 241.347138 171.95854 
L 241.839833 171.95854 
L 241.839833 170.945538 
L 241.954381 170.945538 
L 241.954381 169.932536 
L 242.115842 169.932536 
L 242.121537 167.906533 
L 243.36859 167.906533 
L 243.36859 166.893532 
L 243.530817 166.893532 
L 243.530817 165.88053 
L 243.928239 165.88053 
L 243.928239 164.867528 
L 245.222469 164.867528 
L 245.222469 163.854527 
L 246.674227 163.854527 
L 246.674227 162.841525 
L 247.291547 162.841525 
L 247.291547 161.828523 
L 247.490722 161.828523 
L 247.490722 160.815522 
L 248.236014 160.815522 
L 248.236014 159.80252 
L 248.682632 159.80252 
L 248.709878 157.776517 
L 249.06121 157.776517 
L 249.078729 155.750514 
L 249.214125 155.750514 
L 249.214125 154.737512 
L 251.180251 154.737512 
L 251.180251 153.724511 
L 251.482379 153.724511 
L 251.558472 151.698507 
L 253.747495 151.698507 
L 253.747495 150.685506 
L 254.060914 150.685506 
L 254.060914 149.672504 
L 255.290214 149.672504 
L 255.290214 148.659502 
L 256.857621 148.659502 
L 256.857621 147.646501 
L 257.166341 147.646501 
L 257.238487 145.620498 
L 257.929061 145.620498 
L 257.94074 143.594494 
L 258.23319 143.594494 
L 258.313934 141.568491 
L 258.775117 141.568491 
L 258.775117 140.555489 
L 259.122181 140.555489 
L 259.187793 138.529486 
L 259.553324 138.529486 
L 259.553324 137.516485 
L 259.66738 137.516485 
L 259.66738 136.503483 
L 259.89372 136.503483 
L 259.9443 134.47748 
L 260.04829 134.47748 
L 260.04829 133.464478 
L 260.241975 133.464478 
L 260.327723 131.438475 
L 260.490466 131.438475 
L 260.551949 129.412472 
L 260.752578 129.412472 
L 260.752578 128.39947 
L 261.230143 128.39947 
L 261.230143 127.386468 
L 261.574776 127.386468 
L 261.574776 126.373467 
L 262.490898 126.373467 
L 262.490898 125.360465 
L 262.871807 125.360465 
L 262.871807 124.347464 
L 263.313983 124.347464 
L 263.375466 122.32146 
L 268.291317 122.32146 
L 268.291317 121.308459 
L 268.87014 121.308459 
L 268.974556 119.282456 
L 269.293518 119.282456 
L 269.293518 118.269454 
L 269.834716 118.269454 
L 269.834716 117.256452 
L 270.015359 117.256452 
L 270.015359 116.243451 
L 270.645229 116.243451 
L 270.645229 115.230449 
L 270.840611 115.230449 
L 270.840611 114.217447 
L 272.283612 114.217447 
L 272.283612 113.204446 
L 272.485732 113.204446 
L 272.485732 112.191444 
L 272.861796 112.191444 
L 272.942619 109.152439 
L 274.465958 109.152439 
L 274.465958 108.139438 
L 274.753985 108.139438 
L 274.753985 107.126436 
L 275.132206 107.126436 
L 275.132206 106.113435 
L 275.366395 106.113435 
L 275.366395 105.100433 
L 275.568558 105.100433 
L 275.568558 104.087431 
L 276.571782 104.087431 
L 276.595695 102.061428 
L 277.440004 102.061428 
L 277.440004 101.048426 
L 277.634649 101.048426 
L 277.634649 100.035425 
L 278.227135 100.035425 
L 278.310101 96.99642 
L 278.691011 96.99642 
L 278.769062 94.970417 
L 278.863948 94.970417 
L 278.958764 92.944414 
L 279.133187 92.944414 
L 279.19467 90.91841 
L 279.887665 90.91841 
L 279.887665 89.905409 
L 280.23592 89.905409 
L 280.23592 88.892407 
L 280.697084 88.892407 
L 280.697084 87.879405 
L 281.050653 87.879405 
L 281.077993 85.853402 
L 281.520169 85.853402 
L 281.59258 82.814397 
L 282.031376 82.814397 
L 282.031376 81.801396 
L 282.711183 81.801396 
L 282.711183 80.788394 
L 283.059438 80.788394 
L 283.059438 79.775393 
L 284.50175 79.775393 
L 284.50175 78.762391 
L 284.87997 78.762391 
L 284.87997 77.749389 
L 285.309579 77.749389 
L 285.309579 76.736388 
L 285.682511 76.736388 
L 285.682511 75.723386 
L 287.382413 75.723386 
L 287.382413 74.710384 
L 287.685494 74.710384 
L 287.685494 73.697383 
L 288.611713 73.697383 
L 288.611713 72.684381 
L 289.356166 72.684381 
L 289.356166 71.67138 
L 289.504548 71.67138 
L 289.596798 69.645376 
L 290.372322 69.645376 
L 290.372322 68.632375 
L 291.140197 68.632375 
L 291.140197 67.619373 
L 291.865052 67.619373 
L 291.865052 66.606371 
L 292.146092 66.606371 
L 292.146092 65.59337 
L 293.40845 65.59337 
L 293.40845 64.580368 
L 293.663029 64.580368 
L 293.663029 63.567367 
L 294.414346 63.567367 
L 294.414346 62.554365 
L 296.133402 62.554365 
L 296.133402 61.541363 
L 296.511623 61.541363 
L 296.511623 60.528362 
L 296.869856 60.528362 
L 296.869856 59.51536 
L 297.411783 59.51536 
L 297.411783 58.502359 
L 298.530386 58.502359 
L 298.530386 57.489357 
L 298.878641 57.489357 
L 298.878641 56.476355 
L 299.014066 56.476355 
L 299.014066 55.463354 
L 299.256839 55.463354 
L 299.256839 54.450352 
L 299.798766 54.450352 
L 299.798766 53.43735 
L 300.243365 53.43735 
L 300.243365 52.424349 
L 300.917369 52.424349 
L 300.933836 50.398346 
L 301.265624 50.398346 
L 301.265624 49.385344 
L 301.612816 49.385344 
L 301.612816 48.372342 
L 302.716155 48.372342 
L 302.716155 47.359341 
L 303.156214 47.359341 
L 303.156214 46.346339 
L 303.730226 46.346339 
L 303.730226 45.333338 
L 304.16211 45.333338 
L 304.16211 44.320336 
L 304.553407 44.320336 
L 304.553407 43.307334 
L 313.050772 43.307334 
L 313.050772 42.294333 
L 313.244469 42.294333 
L 313.244469 41.281331 
L 314.721445 41.281331 
L 314.787867 38.242326 
L 315.793763 38.242326 
L 315.793763 37.229325 
L 320.719039 37.229325 
L 320.719039 36.216323 
L 320.91296 36.216323 
L 320.91296 35.203321 
L 321.586813 35.203321 
L 321.586813 34.19032 
L 321.721207 34.19032 
L 321.721207 33.177318 
L 335.541645 33.177318 
L 335.541645 32.164317 
L 337.064984 32.164317 
L 337.064984 31.151315 
L 338.258209 31.151315 
L 338.258209 30.138313 
L 339.429977 30.138313 
L 339.429977 29.125312 
L 340.297751 29.125312 
L 340.297751 28.11231 
L 345.995191 28.11231 
L 345.995191 27.099308 
L 348.281537 27.099308 
L 348.281537 26.086307 
L 364.706128 26.086307 
L 364.795255 24.060304 
L 365.663029 24.060304 
L 365.663029 23.047302 
L 366.329252 23.047302 
L 366.329252 22.0343 
L 390.071407 22.0343 
L 390.071407 21.021299 
L 400.857235 21.021299 
L 400.857235 20.008297 
L 453.192 20.008297 
L 453.192 20.008297 
" clip-path="url(#p907d615e0e)" style="fill: none; stroke: #ff0000; stroke-width: 3; stroke-linecap: square"/>
   </g>
   <g id="line2d_24">
    <path clip-path="url(#p907d615e0e)" style="fill: none; stroke: #ff0000; stroke-width: 3; stroke-linecap: square"/>
   </g>
   <g id="line2d_25">
    <path d="M 243.676 291.28 
L 243.676 3 
" clip-path="url(#p907d615e0e)" style="fill: none; stroke: #000000; stroke-width: 1.5; stroke-linecap: square"/>
   </g>
   <g id="line2d_26">
    <path d="M 34.16 147.14 
L 453.192 147.14 
" clip-path="url(#p907d615e0e)" style="fill: none; stroke-dasharray: 2,3.3; stroke-dashoffset: 0; stroke: #000000; stroke-width: 2"/>
   </g>
   <g id="patch_3">
    <path d="M 34.16 291.28 
L 34.16 3 
" style="fill: none; stroke: #000000; stroke-width: 0.8; stroke-linejoin: miter; stroke-linecap: square"/>
   </g>
   <g id="patch_4">
    <path d="M 453.192 291.28 
L 453.192 3 
" style="fill: none; stroke: #000000; stroke-width: 0.8; stroke-linejoin: miter; stroke-linecap: square"/>
   </g>
   <g id="patch_5">
    <path d="M 34.16 291.28 
L 453.192 291.28 
" style="fill: none; stroke: #000000; stroke-width: 0.8; stroke-linejoin: miter; stroke-linecap: square"/>
   </g>
   <g id="patch_6">
    <path d="M 34.16 3 
L 453.192 3 
" style="fill: none; stroke: #000000; stroke-width: 0.8; stroke-linejoin: miter; stroke-linecap: square"/>
   </g>
   <g id="text_6">
    <!-- f20-f24,5-D -->
    <g transform="translate(330.91761 285.5144)scale(0.2 -0.2)">
     <defs>
      <path id="DejaVuSans-34" d="M 2419 4116 
L 825 1625 
L 2419 1625 
L 2419 4116 
z
M 2253 4666 
L 3047 4666 
L 3047 1625 
L 3713 1625 
L 3713 1100 
L 3047 1100 
L 3047 0 
L 2419 0 
L 2419 1100 
L 313 1100 
L 313 1709 
L 2253 4666 
z
" transform="scale(0.015625)"/>
      <path id="DejaVuSans-2c" d="M 750 794 
L 1409 794 
L 1409 256 
L 897 -744 
L 494 -744 
L 750 256 
L 750 794 
z
" transform="scale(0.015625)"/>
      <path id="DejaVuSans-35" d="M 691 4666 
L 3169 4666 
L 3169 4134 
L 1269 4134 
L 1269 2991 
Q 1406 3038 1543 3061 
Q 1681 3084 1819 3084 
Q 2600 3084 3056 2656 
Q 3513 2228 3513 1497 
Q 3513 744 3044 326 
Q 2575 -91 1722 -91 
Q 1428 -91 1123 -41 
Q 819 9 494 109 
L 494 744 
Q 775 591 1075 516 
Q 1375 441 1709 441 
Q 2250 441 2565 725 
Q 2881 1009 2881 1497 
Q 2881 1984 2565 2268 
Q 2250 2553 1709 2553 
Q 1456 2553 1204 2497 
Q 953 2441 691 2322 
L 691 4666 
z
" transform="scale(0.015625)"/>
      <path id="DejaVuSans-44" d="M 1259 4147 
L 1259 519 
L 2022 519 
Q 2988 519 3436 956 
Q 3884 1394 3884 2338 
Q 3884 3275 3436 3711 
Q 2988 4147 2022 4147 
L 1259 4147 
z
M 628 4666 
L 1925 4666 
Q 3281 4666 3915 4102 
Q 4550 3538 4550 2338 
Q 4550 1131 3912 565 
Q 3275 0 1925 0 
L 628 0 
L 628 4666 
z
" transform="scale(0.015625)"/>
     </defs>
     <use xlink:href="#DejaVuSans-66"/>
     <use xlink:href="#DejaVuSans-32" x="35.205078"/>
     <use xlink:href="#DejaVuSans-30" x="98.828125"/>
     <use xlink:href="#DejaVuSans-2d" x="162.451172"/>
     <use xlink:href="#DejaVuSans-66" x="198.535156"/>
     <use xlink:href="#DejaVuSans-32" x="233.740234"/>
     <use xlink:href="#DejaVuSans-34" x="297.363281"/>
     <use xlink:href="#DejaVuSans-2c" x="360.986328"/>
     <use xlink:href="#DejaVuSans-35" x="392.773438"/>
     <use xlink:href="#DejaVuSans-2d" x="456.396484"/>
     <use xlink:href="#DejaVuSans-44" x="492.480469"/>
    </g>
   </g>
   <g id="text_7">
    <!-- v2.6.1.158 -->
    <g style="fill: #808080" transform="translate(216.861937 286.317512)scale(0.1 -0.1)">
     <defs>
      <path id="DejaVuSans-2e" d="M 684 794 
L 1344 794 
L 1344 0 
L 684 0 
L 684 794 
z
" transform="scale(0.015625)"/>
      <path id="DejaVuSans-36" d="M 2113 2584 
Q 1688 2584 1439 2293 
Q 1191 2003 1191 1497 
Q 1191 994 1439 701 
Q 1688 409 2113 409 
Q 2538 409 2786 701 
Q 3034 994 3034 1497 
Q 3034 2003 2786 2293 
Q 2538 2584 2113 2584 
z
M 3366 4563 
L 3366 3988 
Q 3128 4100 2886 4159 
Q 2644 4219 2406 4219 
Q 1781 4219 1451 3797 
Q 1122 3375 1075 2522 
Q 1259 2794 1537 2939 
Q 1816 3084 2150 3084 
Q 2853 3084 3261 2657 
Q 3669 2231 3669 1497 
Q 3669 778 3244 343 
Q 2819 -91 2113 -91 
Q 1303 -91 875 529 
Q 447 1150 447 2328 
Q 447 3434 972 4092 
Q 1497 4750 2381 4750 
Q 2619 4750 2861 4703 
Q 3103 4656 3366 4563 
z
" transform="scale(0.015625)"/>
      <path id="DejaVuSans-38" d="M 2034 2216 
Q 1584 2216 1326 1975 
Q 1069 1734 1069 1313 
Q 1069 891 1326 650 
Q 1584 409 2034 409 
Q 2484 409 2743 651 
Q 3003 894 3003 1313 
Q 3003 1734 2745 1975 
Q 2488 2216 2034 2216 
z
M 1403 2484 
Q 997 2584 770 2862 
Q 544 3141 544 3541 
Q 544 4100 942 4425 
Q 1341 4750 2034 4750 
Q 2731 4750 3128 4425 
Q 3525 4100 3525 3541 
Q 3525 3141 3298 2862 
Q 3072 2584 2669 2484 
Q 3125 2378 3379 2068 
Q 3634 1759 3634 1313 
Q 3634 634 3220 271 
Q 2806 -91 2034 -91 
Q 1263 -91 848 271 
Q 434 634 434 1313 
Q 434 1759 690 2068 
Q 947 2378 1403 2484 
z
M 1172 3481 
Q 1172 3119 1398 2916 
Q 1625 2713 2034 2713 
Q 2441 2713 2670 2916 
Q 2900 3119 2900 3481 
Q 2900 3844 2670 4047 
Q 2441 4250 2034 4250 
Q 1625 4250 1398 4047 
Q 1172 3844 1172 3481 
z
" transform="scale(0.015625)"/>
     </defs>
     <use xlink:href="#DejaVuSans-76"/>
     <use xlink:href="#DejaVuSans-32" x="59.179688"/>
     <use xlink:href="#DejaVuSans-2e" x="122.802734"/>
     <use xlink:href="#DejaVuSans-36" x="154.589844"/>
     <use xlink:href="#DejaVuSans-2e" x="218.212891"/>
     <use xlink:href="#DejaVuSans-31" x="250"/>
     <use xlink:href="#DejaVuSans-2e" x="313.623047"/>
     <use xlink:href="#DejaVuSans-31" x="345.410156"/>
     <use xlink:href="#DejaVuSans-35" x="409.033203"/>
     <use xlink:href="#DejaVuSans-38" x="472.65625"/>
    </g>
   </g>
   <g id="legend_1">
    <g id="patch_7">
     <path d="M 48.16 136.425 
L 177.381875 136.425 
Q 181.381875 136.425 181.381875 132.425 
L 181.381875 17 
Q 181.381875 13 177.381875 13 
L 48.16 13 
Q 44.16 13 44.16 17 
L 44.16 132.425 
Q 44.16 136.425 48.16 136.425 
z
" style="fill: #ffffff; opacity: 0.2; stroke: #cccccc; stroke-linejoin: miter"/>
    </g>
    <g id="line2d_27">
     <path d="M 52.16 29.196875 
L 72.16 29.196875 
L 92.16 29.196875 
" style="fill: none; stroke: #000000; stroke-width: 3; stroke-linecap: square"/>
    </g>
    <g id="text_8">
     <!-- 1: 5/5 -->
     <g transform="translate(108.16 36.196875)scale(0.2 -0.2)">
      <defs>
       <path id="DejaVuSans-3a" d="M 750 794 
L 1409 794 
L 1409 0 
L 750 0 
L 750 794 
z
M 750 3309 
L 1409 3309 
L 1409 2516 
L 750 2516 
L 750 3309 
z
" transform="scale(0.015625)"/>
       <path id="DejaVuSans-2f" d="M 1625 4666 
L 2156 4666 
L 531 -594 
L 0 -594 
L 1625 4666 
z
" transform="scale(0.015625)"/>
      </defs>
      <use xlink:href="#DejaVuSans-31"/>
      <use xlink:href="#DejaVuSans-3a" x="63.623047"/>
      <use xlink:href="#DejaVuSans-20" x="97.314453"/>
      <use xlink:href="#DejaVuSans-35" x="129.101562"/>
      <use xlink:href="#DejaVuSans-2f" x="192.724609"/>
      <use xlink:href="#DejaVuSans-35" x="226.416016"/>
     </g>
    </g>
    <g id="line2d_28">
     <path d="M 52.16 58.553125 
L 72.16 58.553125 
L 92.16 58.553125 
" style="fill: none; stroke: #00bfbf; stroke-width: 3; stroke-linecap: square"/>
    </g>
    <g id="text_9">
     <!-- -1: 5/4 -->
     <g transform="translate(108.16 65.553125)scale(0.2 -0.2)">
      <use xlink:href="#DejaVuSans-2d"/>
      <use xlink:href="#DejaVuSans-31" x="36.083984"/>
      <use xlink:href="#DejaVuSans-3a" x="99.707031"/>
      <use xlink:href="#DejaVuSans-20" x="133.398438"/>
      <use xlink:href="#DejaVuSans-35" x="165.185547"/>
      <use xlink:href="#DejaVuSans-2f" x="228.808594"/>
      <use xlink:href="#DejaVuSans-34" x="262.5"/>
     </g>
    </g>
    <g id="line2d_29">
     <path d="M 52.16 87.909375 
L 72.16 87.909375 
L 92.16 87.909375 
" style="fill: none; stroke: #bf00bf; stroke-width: 3; stroke-linecap: square"/>
    </g>
    <g id="text_10">
     <!-- -4: 4/4 -->
     <g transform="translate(108.16 94.909375)scale(0.2 -0.2)">
      <use xlink:href="#DejaVuSans-2d"/>
      <use xlink:href="#DejaVuSans-34" x="36.083984"/>
      <use xlink:href="#DejaVuSans-3a" x="99.707031"/>
      <use xlink:href="#DejaVuSans-20" x="133.398438"/>
      <use xlink:href="#DejaVuSans-34" x="165.185547"/>
      <use xlink:href="#DejaVuSans-2f" x="228.808594"/>
      <use xlink:href="#DejaVuSans-34" x="262.5"/>
     </g>
    </g>
    <g id="line2d_30">
     <path d="M 52.16 117.265625 
L 72.16 117.265625 
L 92.16 117.265625 
" style="fill: none; stroke: #ff0000; stroke-width: 3; stroke-linecap: square"/>
    </g>
    <g id="text_11">
     <!-- -8: 4/4 -->
     <g transform="translate(108.16 124.265625)scale(0.2 -0.2)">
      <use xlink:href="#DejaVuSans-2d"/>
      <use xlink:href="#DejaVuSans-38" x="36.083984"/>
      <use xlink:href="#DejaVuSans-3a" x="99.707031"/>
      <use xlink:href="#DejaVuSans-20" x="133.398438"/>
      <use xlink:href="#DejaVuSans-34" x="165.185547"/>
      <use xlink:href="#DejaVuSans-2f" x="228.808594"/>
      <use xlink:href="#DejaVuSans-34" x="262.5"/>
     </g>
    </g>
   </g>
  </g>
 </g>
 <defs>
  <clipPath id="p907d615e0e">
   <rect x="34.16" y="3" width="419.032" height="288.28"/>
  </clipPath>
 </defs>
</svg>
