<?xml version="1.0" encoding="utf-8" standalone="no"?>
<!DOCTYPE svg PUBLIC "-//W3C//DTD SVG 1.1//EN"
  "http://www.w3.org/Graphics/SVG/1.1/DTD/svg11.dtd">
<svg xmlns:xlink="http://www.w3.org/1999/xlink" width="460.8pt" height="345.6pt" viewBox="0 0 460.8 345.6" xmlns="http://www.w3.org/2000/svg" version="1.1">
 <metadata>
  <rdf:RDF xmlns:dc="http://purl.org/dc/elements/1.1/" xmlns:cc="http://creativecommons.org/ns#" xmlns:rdf="http://www.w3.org/1999/02/22-rdf-syntax-ns#">
   <cc:Work>
    <dc:type rdf:resource="http://purl.org/dc/dcmitype/StillImage"/>
    <dc:date>2023-04-03T10:14:13.010030</dc:date>
    <dc:format>image/svg+xml</dc:format>
    <dc:creator>
     <cc:Agent>
      <dc:title>Matplotlib v3.5.2, https://matplotlib.org/</dc:title>
     </cc:Agent>
    </dc:creator>
   </cc:Work>
  </rdf:RDF>
 </metadata>
 <defs>
  <style type="text/css">*{stroke-linejoin: round; stroke-linecap: butt}</style>
 </defs>
 <g id="figure_1">
  <g id="patch_1">
   <path d="M 0 345.6 
L 460.8 345.6 
L 460.8 0 
L 0 0 
z
" style="fill: #ffffff"/>
  </g>
  <g id="axes_1">
   <g id="patch_2">
    <path d="M 34.16 291.28 
L 453.192 291.28 
L 453.192 3 
L 34.16 3 
z
" style="fill: #ffffff"/>
   </g>
   <g id="matplotlib.axis_1">
    <g id="xtick_1">
     <g id="line2d_1">
      <path d="M 50.385671 291.28 
L 50.385671 3 
" clip-path="url(#pa40007b4d2)" style="fill: none; stroke: #b0b0b0; stroke-width: 0.8; stroke-linecap: square"/>
     </g>
     <g id="line2d_2">
      <defs>
       <path id="mb01f1ac1a8" d="M 0 0 
L 0 3.5 
" style="stroke: #000000; stroke-width: 0.8"/>
      </defs>
      <g>
       <use xlink:href="#mb01f1ac1a8" x="50.385671" y="291.28" style="stroke: #000000; stroke-width: 0.8"/>
      </g>
     </g>
     <g id="text_1">
      <!-- -1 -->
      <g transform="translate(40.415359 313.476875)scale(0.2 -0.2)">
       <defs>
        <path id="DejaVuSans-2d" d="M 313 2009 
L 1997 2009 
L 1997 1497 
L 313 1497 
L 313 2009 
z
" transform="scale(0.015625)"/>
        <path id="DejaVuSans-31" d="M 794 531 
L 1825 531 
L 1825 4091 
L 703 3866 
L 703 4441 
L 1819 4666 
L 2450 4666 
L 2450 531 
L 3481 531 
L 3481 0 
L 794 0 
L 794 531 
z
" transform="scale(0.015625)"/>
       </defs>
       <use xlink:href="#DejaVuSans-2d"/>
       <use xlink:href="#DejaVuSans-31" x="36.083984"/>
      </g>
     </g>
    </g>
    <g id="xtick_2">
     <g id="line2d_3">
      <path d="M 243.676 291.28 
L 243.676 3 
" clip-path="url(#pa40007b4d2)" style="fill: none; stroke: #b0b0b0; stroke-width: 0.8; stroke-linecap: square"/>
     </g>
     <g id="line2d_4">
      <g>
       <use xlink:href="#mb01f1ac1a8" x="243.676" y="291.28" style="stroke: #000000; stroke-width: 0.8"/>
      </g>
     </g>
     <g id="text_2">
      <!-- 0 -->
      <g transform="translate(237.3135 313.476875)scale(0.2 -0.2)">
       <defs>
        <path id="DejaVuSans-30" d="M 2034 4250 
Q 1547 4250 1301 3770 
Q 1056 3291 1056 2328 
Q 1056 1369 1301 889 
Q 1547 409 2034 409 
Q 2525 409 2770 889 
Q 3016 1369 3016 2328 
Q 3016 3291 2770 3770 
Q 2525 4250 2034 4250 
z
M 2034 4750 
Q 2819 4750 3233 4129 
Q 3647 3509 3647 2328 
Q 3647 1150 3233 529 
Q 2819 -91 2034 -91 
Q 1250 -91 836 529 
Q 422 1150 422 2328 
Q 422 3509 836 4129 
Q 1250 4750 2034 4750 
z
" transform="scale(0.015625)"/>
       </defs>
       <use xlink:href="#DejaVuSans-30"/>
      </g>
     </g>
    </g>
    <g id="xtick_3">
     <g id="line2d_5">
      <path d="M 436.966329 291.28 
L 436.966329 3 
" clip-path="url(#pa40007b4d2)" style="fill: none; stroke: #b0b0b0; stroke-width: 0.8; stroke-linecap: square"/>
     </g>
     <g id="line2d_6">
      <g>
       <use xlink:href="#mb01f1ac1a8" x="436.966329" y="291.28" style="stroke: #000000; stroke-width: 0.8"/>
      </g>
     </g>
     <g id="text_3">
      <!-- 1 -->
      <g transform="translate(430.603829 313.476875)scale(0.2 -0.2)">
       <use xlink:href="#DejaVuSans-31"/>
      </g>
     </g>
    </g>
    <g id="xtick_4">
     <g id="line2d_7">
      <defs>
       <path id="m7e9d682152" d="M 0 0 
L 0 2 
" style="stroke: #000000; stroke-width: 0.6"/>
      </defs>
      <g>
       <use xlink:href="#m7e9d682152" x="41.541191" y="291.28" style="stroke: #000000; stroke-width: 0.6"/>
      </g>
     </g>
    </g>
    <g id="xtick_5">
     <g id="line2d_8">
      <g>
       <use xlink:href="#m7e9d682152" x="108.571858" y="291.28" style="stroke: #000000; stroke-width: 0.6"/>
      </g>
     </g>
    </g>
    <g id="xtick_6">
     <g id="line2d_9">
      <g>
       <use xlink:href="#m7e9d682152" x="142.608595" y="291.28" style="stroke: #000000; stroke-width: 0.6"/>
      </g>
     </g>
    </g>
    <g id="xtick_7">
     <g id="line2d_10">
      <g>
       <use xlink:href="#m7e9d682152" x="166.758045" y="291.28" style="stroke: #000000; stroke-width: 0.6"/>
      </g>
     </g>
    </g>
    <g id="xtick_8">
     <g id="line2d_11">
      <g>
       <use xlink:href="#m7e9d682152" x="185.489813" y="291.28" style="stroke: #000000; stroke-width: 0.6"/>
      </g>
     </g>
    </g>
    <g id="xtick_9">
     <g id="line2d_12">
      <g>
       <use xlink:href="#m7e9d682152" x="200.794782" y="291.28" style="stroke: #000000; stroke-width: 0.6"/>
      </g>
     </g>
    </g>
    <g id="xtick_10">
     <g id="line2d_13">
      <g>
       <use xlink:href="#m7e9d682152" x="213.734949" y="291.28" style="stroke: #000000; stroke-width: 0.6"/>
      </g>
     </g>
    </g>
    <g id="xtick_11">
     <g id="line2d_14">
      <g>
       <use xlink:href="#m7e9d682152" x="224.944232" y="291.28" style="stroke: #000000; stroke-width: 0.6"/>
      </g>
     </g>
    </g>
    <g id="xtick_12">
     <g id="line2d_15">
      <g>
       <use xlink:href="#m7e9d682152" x="234.83152" y="291.28" style="stroke: #000000; stroke-width: 0.6"/>
      </g>
     </g>
    </g>
    <g id="xtick_13">
     <g id="line2d_16">
      <g>
       <use xlink:href="#m7e9d682152" x="301.862187" y="291.28" style="stroke: #000000; stroke-width: 0.6"/>
      </g>
     </g>
    </g>
    <g id="xtick_14">
     <g id="line2d_17">
      <g>
       <use xlink:href="#m7e9d682152" x="335.898924" y="291.28" style="stroke: #000000; stroke-width: 0.6"/>
      </g>
     </g>
    </g>
    <g id="xtick_15">
     <g id="line2d_18">
      <g>
       <use xlink:href="#m7e9d682152" x="360.048374" y="291.28" style="stroke: #000000; stroke-width: 0.6"/>
      </g>
     </g>
    </g>
    <g id="xtick_16">
     <g id="line2d_19">
      <g>
       <use xlink:href="#m7e9d682152" x="378.780142" y="291.28" style="stroke: #000000; stroke-width: 0.6"/>
      </g>
     </g>
    </g>
    <g id="xtick_17">
     <g id="line2d_20">
      <g>
       <use xlink:href="#m7e9d682152" x="394.085111" y="291.28" style="stroke: #000000; stroke-width: 0.6"/>
      </g>
     </g>
    </g>
    <g id="xtick_18">
     <g id="line2d_21">
      <g>
       <use xlink:href="#m7e9d682152" x="407.025278" y="291.28" style="stroke: #000000; stroke-width: 0.6"/>
      </g>
     </g>
    </g>
    <g id="xtick_19">
     <g id="line2d_22">
      <g>
       <use xlink:href="#m7e9d682152" x="418.23456" y="291.28" style="stroke: #000000; stroke-width: 0.6"/>
      </g>
     </g>
    </g>
    <g id="xtick_20">
     <g id="line2d_23">
      <g>
       <use xlink:href="#m7e9d682152" x="428.121848" y="291.28" style="stroke: #000000; stroke-width: 0.6"/>
      </g>
     </g>
    </g>
    <g id="text_4">
     <!-- log10 of FEvals ratio -->
     <g transform="translate(141.371312 336.833125)scale(0.2 -0.2)">
      <defs>
       <path id="DejaVuSans-6c" d="M 603 4863 
L 1178 4863 
L 1178 0 
L 603 0 
L 603 4863 
z
" transform="scale(0.015625)"/>
       <path id="DejaVuSans-6f" d="M 1959 3097 
Q 1497 3097 1228 2736 
Q 959 2375 959 1747 
Q 959 1119 1226 758 
Q 1494 397 1959 397 
Q 2419 397 2687 759 
Q 2956 1122 2956 1747 
Q 2956 2369 2687 2733 
Q 2419 3097 1959 3097 
z
M 1959 3584 
Q 2709 3584 3137 3096 
Q 3566 2609 3566 1747 
Q 3566 888 3137 398 
Q 2709 -91 1959 -91 
Q 1206 -91 779 398 
Q 353 888 353 1747 
Q 353 2609 779 3096 
Q 1206 3584 1959 3584 
z
" transform="scale(0.015625)"/>
       <path id="DejaVuSans-67" d="M 2906 1791 
Q 2906 2416 2648 2759 
Q 2391 3103 1925 3103 
Q 1463 3103 1205 2759 
Q 947 2416 947 1791 
Q 947 1169 1205 825 
Q 1463 481 1925 481 
Q 2391 481 2648 825 
Q 2906 1169 2906 1791 
z
M 3481 434 
Q 3481 -459 3084 -895 
Q 2688 -1331 1869 -1331 
Q 1566 -1331 1297 -1286 
Q 1028 -1241 775 -1147 
L 775 -588 
Q 1028 -725 1275 -790 
Q 1522 -856 1778 -856 
Q 2344 -856 2625 -561 
Q 2906 -266 2906 331 
L 2906 616 
Q 2728 306 2450 153 
Q 2172 0 1784 0 
Q 1141 0 747 490 
Q 353 981 353 1791 
Q 353 2603 747 3093 
Q 1141 3584 1784 3584 
Q 2172 3584 2450 3431 
Q 2728 3278 2906 2969 
L 2906 3500 
L 3481 3500 
L 3481 434 
z
" transform="scale(0.015625)"/>
       <path id="DejaVuSans-20" transform="scale(0.015625)"/>
       <path id="DejaVuSans-66" d="M 2375 4863 
L 2375 4384 
L 1825 4384 
Q 1516 4384 1395 4259 
Q 1275 4134 1275 3809 
L 1275 3500 
L 2222 3500 
L 2222 3053 
L 1275 3053 
L 1275 0 
L 697 0 
L 697 3053 
L 147 3053 
L 147 3500 
L 697 3500 
L 697 3744 
Q 697 4328 969 4595 
Q 1241 4863 1831 4863 
L 2375 4863 
z
" transform="scale(0.015625)"/>
       <path id="DejaVuSans-46" d="M 628 4666 
L 3309 4666 
L 3309 4134 
L 1259 4134 
L 1259 2759 
L 3109 2759 
L 3109 2228 
L 1259 2228 
L 1259 0 
L 628 0 
L 628 4666 
z
" transform="scale(0.015625)"/>
       <path id="DejaVuSans-45" d="M 628 4666 
L 3578 4666 
L 3578 4134 
L 1259 4134 
L 1259 2753 
L 3481 2753 
L 3481 2222 
L 1259 2222 
L 1259 531 
L 3634 531 
L 3634 0 
L 628 0 
L 628 4666 
z
" transform="scale(0.015625)"/>
       <path id="DejaVuSans-76" d="M 191 3500 
L 800 3500 
L 1894 563 
L 2988 3500 
L 3597 3500 
L 2284 0 
L 1503 0 
L 191 3500 
z
" transform="scale(0.015625)"/>
       <path id="DejaVuSans-61" d="M 2194 1759 
Q 1497 1759 1228 1600 
Q 959 1441 959 1056 
Q 959 750 1161 570 
Q 1363 391 1709 391 
Q 2188 391 2477 730 
Q 2766 1069 2766 1631 
L 2766 1759 
L 2194 1759 
z
M 3341 1997 
L 3341 0 
L 2766 0 
L 2766 531 
Q 2569 213 2275 61 
Q 1981 -91 1556 -91 
Q 1019 -91 701 211 
Q 384 513 384 1019 
Q 384 1609 779 1909 
Q 1175 2209 1959 2209 
L 2766 2209 
L 2766 2266 
Q 2766 2663 2505 2880 
Q 2244 3097 1772 3097 
Q 1472 3097 1187 3025 
Q 903 2953 641 2809 
L 641 3341 
Q 956 3463 1253 3523 
Q 1550 3584 1831 3584 
Q 2591 3584 2966 3190 
Q 3341 2797 3341 1997 
z
" transform="scale(0.015625)"/>
       <path id="DejaVuSans-73" d="M 2834 3397 
L 2834 2853 
Q 2591 2978 2328 3040 
Q 2066 3103 1784 3103 
Q 1356 3103 1142 2972 
Q 928 2841 928 2578 
Q 928 2378 1081 2264 
Q 1234 2150 1697 2047 
L 1894 2003 
Q 2506 1872 2764 1633 
Q 3022 1394 3022 966 
Q 3022 478 2636 193 
Q 2250 -91 1575 -91 
Q 1294 -91 989 -36 
Q 684 19 347 128 
L 347 722 
Q 666 556 975 473 
Q 1284 391 1588 391 
Q 1994 391 2212 530 
Q 2431 669 2431 922 
Q 2431 1156 2273 1281 
Q 2116 1406 1581 1522 
L 1381 1569 
Q 847 1681 609 1914 
Q 372 2147 372 2553 
Q 372 3047 722 3315 
Q 1072 3584 1716 3584 
Q 2034 3584 2315 3537 
Q 2597 3491 2834 3397 
z
" transform="scale(0.015625)"/>
       <path id="DejaVuSans-72" d="M 2631 2963 
Q 2534 3019 2420 3045 
Q 2306 3072 2169 3072 
Q 1681 3072 1420 2755 
Q 1159 2438 1159 1844 
L 1159 0 
L 581 0 
L 581 3500 
L 1159 3500 
L 1159 2956 
Q 1341 3275 1631 3429 
Q 1922 3584 2338 3584 
Q 2397 3584 2469 3576 
Q 2541 3569 2628 3553 
L 2631 2963 
z
" transform="scale(0.015625)"/>
       <path id="DejaVuSans-74" d="M 1172 4494 
L 1172 3500 
L 2356 3500 
L 2356 3053 
L 1172 3053 
L 1172 1153 
Q 1172 725 1289 603 
Q 1406 481 1766 481 
L 2356 481 
L 2356 0 
L 1766 0 
Q 1100 0 847 248 
Q 594 497 594 1153 
L 594 3053 
L 172 3053 
L 172 3500 
L 594 3500 
L 594 4494 
L 1172 4494 
z
" transform="scale(0.015625)"/>
       <path id="DejaVuSans-69" d="M 603 3500 
L 1178 3500 
L 1178 0 
L 603 0 
L 603 3500 
z
M 603 4863 
L 1178 4863 
L 1178 4134 
L 603 4134 
L 603 4863 
z
" transform="scale(0.015625)"/>
      </defs>
      <use xlink:href="#DejaVuSans-6c"/>
      <use xlink:href="#DejaVuSans-6f" x="27.783203"/>
      <use xlink:href="#DejaVuSans-67" x="88.964844"/>
      <use xlink:href="#DejaVuSans-31" x="152.441406"/>
      <use xlink:href="#DejaVuSans-30" x="216.064453"/>
      <use xlink:href="#DejaVuSans-20" x="279.6875"/>
      <use xlink:href="#DejaVuSans-6f" x="311.474609"/>
      <use xlink:href="#DejaVuSans-66" x="372.65625"/>
      <use xlink:href="#DejaVuSans-20" x="407.861328"/>
      <use xlink:href="#DejaVuSans-46" x="439.648438"/>
      <use xlink:href="#DejaVuSans-45" x="497.167969"/>
      <use xlink:href="#DejaVuSans-76" x="560.351562"/>
      <use xlink:href="#DejaVuSans-61" x="619.53125"/>
      <use xlink:href="#DejaVuSans-6c" x="680.810547"/>
      <use xlink:href="#DejaVuSans-73" x="708.59375"/>
      <use xlink:href="#DejaVuSans-20" x="760.693359"/>
      <use xlink:href="#DejaVuSans-72" x="792.480469"/>
      <use xlink:href="#DejaVuSans-61" x="833.59375"/>
      <use xlink:href="#DejaVuSans-74" x="894.873047"/>
      <use xlink:href="#DejaVuSans-69" x="934.082031"/>
      <use xlink:href="#DejaVuSans-6f" x="961.865234"/>
     </g>
    </g>
   </g>
   <g id="matplotlib.axis_2">
    <g id="ytick_1">
     <g id="line2d_24">
      <path d="M 34.16 288.453725 
L 453.192 288.453725 
" clip-path="url(#pa40007b4d2)" style="fill: none; stroke: #b0b0b0; stroke-width: 0.8; stroke-linecap: square"/>
     </g>
     <g id="line2d_25">
      <defs>
       <path id="mb0e0cffa7d" d="M 0 0 
L -3.5 0 
" style="stroke: #000000; stroke-width: 0.8"/>
      </defs>
      <g>
       <use xlink:href="#mb0e0cffa7d" x="34.16" y="288.453725" style="stroke: #000000; stroke-width: 0.8"/>
      </g>
     </g>
    </g>
    <g id="ytick_2">
     <g id="line2d_26">
      <path d="M 34.16 217.796863 
L 453.192 217.796863 
" clip-path="url(#pa40007b4d2)" style="fill: none; stroke: #b0b0b0; stroke-width: 0.8; stroke-linecap: square"/>
     </g>
     <g id="line2d_27">
      <g>
       <use xlink:href="#mb0e0cffa7d" x="34.16" y="217.796863" style="stroke: #000000; stroke-width: 0.8"/>
      </g>
     </g>
    </g>
    <g id="ytick_3">
     <g id="line2d_28">
      <path d="M 34.16 147.14 
L 453.192 147.14 
" clip-path="url(#pa40007b4d2)" style="fill: none; stroke: #b0b0b0; stroke-width: 0.8; stroke-linecap: square"/>
     </g>
     <g id="line2d_29">
      <g>
       <use xlink:href="#mb0e0cffa7d" x="34.16" y="147.14" style="stroke: #000000; stroke-width: 0.8"/>
      </g>
     </g>
    </g>
    <g id="ytick_4">
     <g id="line2d_30">
      <path d="M 34.16 76.483137 
L 453.192 76.483137 
" clip-path="url(#pa40007b4d2)" style="fill: none; stroke: #b0b0b0; stroke-width: 0.8; stroke-linecap: square"/>
     </g>
     <g id="line2d_31">
      <g>
       <use xlink:href="#mb0e0cffa7d" x="34.16" y="76.483137" style="stroke: #000000; stroke-width: 0.8"/>
      </g>
     </g>
    </g>
    <g id="ytick_5">
     <g id="line2d_32">
      <path d="M 34.16 5.826275 
L 453.192 5.826275 
" clip-path="url(#pa40007b4d2)" style="fill: none; stroke: #b0b0b0; stroke-width: 0.8; stroke-linecap: square"/>
     </g>
     <g id="line2d_33">
      <g>
       <use xlink:href="#mb0e0cffa7d" x="34.16" y="5.826275" style="stroke: #000000; stroke-width: 0.8"/>
      </g>
     </g>
    </g>
    <g id="text_5">
     <!-- proportion of trials -->
     <g transform="translate(19.000625 240.14625)rotate(-90)scale(0.2 -0.2)">
      <defs>
       <path id="DejaVuSans-70" d="M 1159 525 
L 1159 -1331 
L 581 -1331 
L 581 3500 
L 1159 3500 
L 1159 2969 
Q 1341 3281 1617 3432 
Q 1894 3584 2278 3584 
Q 2916 3584 3314 3078 
Q 3713 2572 3713 1747 
Q 3713 922 3314 415 
Q 2916 -91 2278 -91 
Q 1894 -91 1617 61 
Q 1341 213 1159 525 
z
M 3116 1747 
Q 3116 2381 2855 2742 
Q 2594 3103 2138 3103 
Q 1681 3103 1420 2742 
Q 1159 2381 1159 1747 
Q 1159 1113 1420 752 
Q 1681 391 2138 391 
Q 2594 391 2855 752 
Q 3116 1113 3116 1747 
z
" transform="scale(0.015625)"/>
       <path id="DejaVuSans-6e" d="M 3513 2113 
L 3513 0 
L 2938 0 
L 2938 2094 
Q 2938 2591 2744 2837 
Q 2550 3084 2163 3084 
Q 1697 3084 1428 2787 
Q 1159 2491 1159 1978 
L 1159 0 
L 581 0 
L 581 3500 
L 1159 3500 
L 1159 2956 
Q 1366 3272 1645 3428 
Q 1925 3584 2291 3584 
Q 2894 3584 3203 3211 
Q 3513 2838 3513 2113 
z
" transform="scale(0.015625)"/>
      </defs>
      <use xlink:href="#DejaVuSans-70"/>
      <use xlink:href="#DejaVuSans-72" x="63.476562"/>
      <use xlink:href="#DejaVuSans-6f" x="102.339844"/>
      <use xlink:href="#DejaVuSans-70" x="163.521484"/>
      <use xlink:href="#DejaVuSans-6f" x="226.998047"/>
      <use xlink:href="#DejaVuSans-72" x="288.179688"/>
      <use xlink:href="#DejaVuSans-74" x="329.292969"/>
      <use xlink:href="#DejaVuSans-69" x="368.501953"/>
      <use xlink:href="#DejaVuSans-6f" x="396.285156"/>
      <use xlink:href="#DejaVuSans-6e" x="457.466797"/>
      <use xlink:href="#DejaVuSans-20" x="520.845703"/>
      <use xlink:href="#DejaVuSans-6f" x="552.632812"/>
      <use xlink:href="#DejaVuSans-66" x="613.814453"/>
      <use xlink:href="#DejaVuSans-20" x="649.019531"/>
      <use xlink:href="#DejaVuSans-74" x="680.806641"/>
      <use xlink:href="#DejaVuSans-72" x="720.015625"/>
      <use xlink:href="#DejaVuSans-69" x="761.128906"/>
      <use xlink:href="#DejaVuSans-61" x="788.912109"/>
      <use xlink:href="#DejaVuSans-6c" x="850.191406"/>
      <use xlink:href="#DejaVuSans-73" x="877.974609"/>
     </g>
    </g>
   </g>
   <g id="line2d_34">
    <path d="M 34.16 288.453725 
L 104.784227 288.453725 
L 104.784227 287.511634 
L 119.549355 287.511634 
L 119.549355 286.569542 
L 128.114695 286.569542 
L 128.114695 285.627451 
L 136.640454 285.627451 
L 136.640454 284.685359 
L 140.378428 284.685359 
L 140.378428 283.743268 
L 140.946265 283.743268 
L 140.946265 282.801176 
L 142.879823 282.801176 
L 142.879823 281.859085 
L 143.019085 281.859085 
L 143.019085 280.916993 
L 153.633586 280.916993 
L 153.633586 279.974902 
L 155.143557 279.974902 
L 155.143557 279.03281 
L 156.251234 279.03281 
L 156.251234 278.090719 
L 157.014375 278.090719 
L 157.014375 277.148627 
L 159.970922 277.148627 
L 159.970922 276.206536 
L 161.340364 276.206536 
L 161.340364 275.264444 
L 164.276734 275.264444 
L 164.350857 273.380261 
L 166.349553 273.380261 
L 166.349553 272.43817 
L 168.398715 272.43817 
L 168.398715 271.496078 
L 169.191401 271.496078 
L 169.191401 270.553987 
L 170.677191 270.553987 
L 170.677191 269.611895 
L 171.779504 269.611895 
L 171.779504 268.669804 
L 172.234656 268.669804 
L 172.234656 267.727712 
L 175.512019 267.727712 
L 175.512019 266.785621 
L 176.540467 266.785621 
L 176.540467 265.843529 
L 178.613287 265.843529 
L 178.613287 264.901438 
L 179.078689 264.901438 
L 179.078689 263.959346 
L 179.581703 263.959346 
L 179.581703 263.017255 
L 183.387326 263.017255 
L 183.416994 261.133072 
L 184.670832 261.133072 
L 184.670832 260.19098 
L 185.489813 260.19098 
L 185.489813 259.248889 
L 185.785916 259.248889 
L 185.785916 258.306797 
L 185.898305 258.306797 
L 185.898305 257.364706 
L 186.375005 257.364706 
L 186.375005 256.422614 
L 187.92317 256.422614 
L 187.92317 255.480523 
L 188.870603 255.480523 
L 188.870603 254.538431 
L 189.723227 254.538431 
L 189.795625 251.712157 
L 191.845436 251.712157 
L 191.868444 249.827974 
L 192.52187 249.827974 
L 192.52187 248.885882 
L 193.176414 248.885882 
L 193.176414 247.943791 
L 194.007659 247.943791 
L 194.063066 246.059608 
L 194.416151 246.059608 
L 194.5156 244.175425 
L 194.826641 244.175425 
L 194.826641 243.233333 
L 195.249234 243.233333 
L 195.249234 242.291242 
L 195.8761 242.291242 
L 195.8761 241.34915 
L 196.847277 241.34915 
L 196.934565 239.464967 
L 197.311091 239.464967 
L 197.311091 238.522876 
L 198.222964 238.522876 
L 198.222964 237.580784 
L 198.387594 237.580784 
L 198.387594 235.696601 
L 198.721963 235.696601 
L 198.721963 234.75451 
L 200.794782 234.75451 
L 200.794782 233.812418 
L 201.613764 233.812418 
L 201.613764 232.870327 
L 202.222798 232.870327 
L 202.222798 231.928235 
L 202.362061 231.928235 
L 202.409157 230.044052 
L 204.221581 230.044052 
L 204.221581 229.101961 
L 204.699901 229.101961 
L 204.785603 227.217778 
L 205.100594 227.217778 
L 205.100594 226.275686 
L 206.17987 226.275686 
L 206.271393 224.391503 
L 207.079309 224.391503 
L 207.079309 223.449412 
L 207.430058 223.449412 
L 207.430058 222.50732 
L 207.985122 222.50732 
L 207.985122 221.565229 
L 208.274274 221.565229 
L 208.274274 219.681046 
L 208.481383 219.681046 
L 208.481383 218.738954 
L 208.726809 218.738954 
L 208.726809 216.854771 
L 208.894405 216.854771 
L 208.894405 215.91268 
L 209.91137 215.91268 
L 209.91137 214.970588 
L 210.189723 214.970588 
L 210.189723 214.028497 
L 211.060371 214.028497 
L 211.060371 213.086405 
L 211.253638 213.086405 
L 211.253638 212.144314 
L 211.979342 212.144314 
L 211.979342 211.202222 
L 213.008149 211.202222 
L 213.008149 210.260131 
L 213.570513 210.260131 
L 213.570513 209.318039 
L 213.811298 209.318039 
L 213.811298 208.375948 
L 214.672891 208.375948 
L 214.672891 207.433856 
L 215.824972 207.433856 
L 215.824972 205.549673 
L 216.774011 205.549673 
L 216.774011 204.607582 
L 217.226546 204.607582 
L 217.226546 203.66549 
L 217.864221 203.66549 
L 217.864221 202.723399 
L 218.040761 202.723399 
L 218.040761 201.781307 
L 218.157109 201.781307 
L 218.157109 200.839216 
L 218.429216 200.839216 
L 218.429216 199.897124 
L 219.526551 199.897124 
L 219.526551 198.012941 
L 219.889164 198.012941 
L 219.889164 197.07085 
L 220.345532 197.07085 
L 220.391078 194.244575 
L 221.324155 194.244575 
L 221.42155 191.418301 
L 222.735027 191.418301 
L 222.772629 189.534118 
L 222.90734 189.534118 
L 222.90734 188.592026 
L 223.225163 188.592026 
L 223.225163 187.649935 
L 223.517371 187.649935 
L 223.517371 186.707843 
L 223.73637 186.707843 
L 223.73637 185.765752 
L 224.324709 185.765752 
L 224.430806 183.881569 
L 224.807847 183.881569 
L 224.807847 182.939477 
L 225.553266 182.939477 
L 225.553266 181.997386 
L 225.961758 181.997386 
L 225.961758 180.113203 
L 226.13496 180.113203 
L 226.13496 179.171111 
L 226.465934 179.171111 
L 226.465934 178.22902 
L 226.724049 178.22902 
L 226.724049 177.286928 
L 227.928049 177.286928 
L 227.928049 176.344837 
L 228.430335 176.344837 
L 228.452888 174.460654 
L 228.890815 174.460654 
L 228.890815 173.518562 
L 229.138735 173.518562 
L 229.138735 172.576471 
L 229.520979 172.576471 
L 229.520979 171.634379 
L 229.652658 171.634379 
L 229.652658 170.692288 
L 230.323326 170.692288 
L 230.420842 168.808105 
L 230.496332 168.808105 
L 230.496332 167.866013 
L 231.308838 167.866013 
L 231.308838 166.923922 
L 231.559196 166.923922 
L 231.559196 165.98183 
L 231.998186 165.98183 
L 232.01173 164.097647 
L 232.466718 164.097647 
L 232.466718 163.155556 
L 232.847766 163.155556 
L 232.847766 162.213464 
L 232.977644 162.213464 
L 232.977644 161.271373 
L 234.889433 161.271373 
L 234.889433 160.329281 
L 235.073436 160.329281 
L 235.073436 159.38719 
L 235.246356 159.38719 
L 235.246356 158.445098 
L 235.835446 158.445098 
L 235.835446 157.503007 
L 236.772529 157.503007 
L 236.772529 156.560915 
L 237.196322 156.560915 
L 237.196322 155.618824 
L 237.817 155.618824 
L 237.817 154.676732 
L 238.077598 154.676732 
L 238.077598 153.734641 
L 238.530132 153.734641 
L 238.530132 152.792549 
L 238.736639 152.792549 
L 238.736639 150.908366 
L 239.109894 150.908366 
L 239.109894 149.966275 
L 240.153319 149.966275 
L 240.153319 149.024183 
L 241.194689 149.024183 
L 241.194689 148.082092 
L 241.49549 148.082092 
L 241.49549 147.14 
L 242.583426 147.14 
L 242.583426 146.197908 
L 242.711105 146.197908 
L 242.711105 145.255817 
L 242.84072 145.255817 
L 242.84072 144.313725 
L 242.955438 144.313725 
L 242.955438 143.371634 
L 243.676 143.371634 
L 243.676 139.603268 
L 244.390429 139.603268 
L 244.390429 138.661176 
L 245.322032 138.661176 
L 245.322032 137.719085 
L 245.628296 137.719085 
L 245.628296 136.776993 
L 245.801301 136.776993 
L 245.801301 135.834902 
L 246.307718 135.834902 
L 246.307718 134.89281 
L 247.056789 134.89281 
L 247.056789 133.950719 
L 247.428353 133.950719 
L 247.428353 133.008627 
L 247.848035 133.008627 
L 247.874121 130.182353 
L 248.072027 130.182353 
L 248.072027 129.240261 
L 248.44387 129.240261 
L 248.524561 127.356078 
L 248.689127 127.356078 
L 248.689127 126.413987 
L 249.243449 126.413987 
L 249.243449 125.471895 
L 249.974823 125.471895 
L 249.974823 123.587712 
L 250.194402 123.587712 
L 250.194402 122.645621 
L 250.478998 122.645621 
L 250.478998 121.703529 
L 250.950005 121.703529 
L 251.017765 119.819346 
L 251.072158 119.819346 
L 251.087716 117.935163 
L 251.470299 117.935163 
L 251.470299 116.993072 
L 251.676806 116.993072 
L 251.676806 116.05098 
L 251.822501 116.05098 
L 251.822501 115.108889 
L 252.328387 115.108889 
L 252.328387 114.166797 
L 252.465953 114.166797 
L 252.465953 113.224706 
L 253.458422 113.224706 
L 253.458422 111.340523 
L 253.839878 111.340523 
L 253.839878 110.398431 
L 254.452947 110.398431 
L 254.522669 107.572157 
L 255.064461 107.572157 
L 255.064461 106.630065 
L 255.299826 106.630065 
L 255.299826 105.687974 
L 255.622724 105.687974 
L 255.622724 104.745882 
L 255.852225 104.745882 
L 255.939734 101.919608 
L 256.539749 101.919608 
L 256.539749 100.977516 
L 256.734817 100.977516 
L 256.734817 100.035425 
L 258.13971 100.035425 
L 258.145689 98.151242 
L 258.254169 98.151242 
L 258.354845 96.267059 
L 258.568462 96.267059 
L 258.568462 95.324967 
L 260.188831 95.324967 
L 260.218509 93.440784 
L 260.652758 93.440784 
L 260.652758 92.498693 
L 261.134473 92.498693 
L 261.134473 91.556601 
L 261.439783 91.556601 
L 261.439783 90.61451 
L 261.587007 90.61451 
L 261.587007 89.672418 
L 261.733508 89.672418 
L 261.733508 88.730327 
L 262.149078 88.730327 
L 262.149078 87.788235 
L 262.712469 87.788235 
L 262.712469 86.846144 
L 263.134569 86.846144 
L 263.134569 85.904052 
L 263.689395 85.904052 
L 263.689395 84.019869 
L 264.45758 84.019869 
L 264.45758 83.077778 
L 265.111058 83.077778 
L 265.111058 82.135686 
L 265.700148 82.135686 
L 265.700148 81.193595 
L 265.917528 81.193595 
L 265.917528 80.251503 
L 266.71358 80.251503 
L 266.71358 79.309412 
L 267.352519 79.309412 
L 267.408848 77.425229 
L 267.663862 77.425229 
L 267.663862 76.483137 
L 268.685171 76.483137 
L 268.779379 73.656863 
L 269.194891 73.656863 
L 269.194891 72.714771 
L 269.487779 72.714771 
L 269.501052 70.830588 
L 269.953587 70.830588 
L 269.953587 69.888497 
L 270.094369 69.888497 
L 270.094369 68.946405 
L 270.484098 68.946405 
L 270.484098 68.004314 
L 270.836211 68.004314 
L 270.844904 66.120131 
L 271.510144 66.120131 
L 271.510144 65.178039 
L 272.381109 65.178039 
L 272.381109 64.235948 
L 272.575681 64.235948 
L 272.575681 63.293856 
L 273.041097 63.293856 
L 273.073716 60.467582 
L 273.251277 60.467582 
L 273.251277 59.52549 
L 273.52625 59.52549 
L 273.545272 57.641307 
L 274.196205 57.641307 
L 274.196205 56.699216 
L 275.532227 56.699216 
L 275.532227 55.757124 
L 276.17242 55.757124 
L 276.17242 54.815033 
L 276.805216 54.815033 
L 276.805216 53.872941 
L 277.05175 53.872941 
L 277.05175 52.93085 
L 277.25775 52.93085 
L 277.281143 51.046667 
L 277.712737 51.046667 
L 277.712737 49.162484 
L 277.890775 49.162484 
L 277.890775 48.220392 
L 278.026551 48.220392 
L 278.026551 47.278301 
L 278.193798 47.278301 
L 278.193798 46.336209 
L 278.599176 46.336209 
L 278.599176 45.394118 
L 279.203805 45.394118 
L 279.203805 44.452026 
L 279.65634 44.452026 
L 279.65634 43.509935 
L 279.865289 43.509935 
L 279.865289 42.567843 
L 280.624414 42.567843 
L 280.624414 41.625752 
L 281.1018 41.625752 
L 281.1018 40.68366 
L 281.617856 40.68366 
L 281.687204 38.799477 
L 283.854532 38.799477 
L 283.854532 37.857386 
L 284.355914 37.857386 
L 284.355914 36.915294 
L 285.19052 36.915294 
L 285.19052 35.973203 
L 285.385485 35.973203 
L 285.385485 34.08902 
L 285.88966 34.08902 
L 285.88966 33.146928 
L 286.404452 33.146928 
L 286.404452 32.204837 
L 286.686265 32.204837 
L 286.754503 30.320654 
L 287.876615 30.320654 
L 287.876615 29.378562 
L 288.219548 29.378562 
L 288.219548 28.436471 
L 288.92202 28.436471 
L 288.92202 27.494379 
L 291.304485 27.494379 
L 291.320609 25.610196 
L 293.732136 25.610196 
L 293.732136 24.668105 
L 294.440536 24.668105 
L 294.472234 22.783922 
L 294.862724 22.783922 
L 294.862724 21.84183 
L 296.003187 21.84183 
L 296.003187 19.957647 
L 296.507362 19.957647 
L 296.507362 19.015556 
L 296.744846 19.015556 
L 296.744846 18.073464 
L 297.19738 18.073464 
L 297.19738 17.131373 
L 298.494317 17.131373 
L 298.494317 16.189281 
L 300.709607 16.189281 
L 300.709607 15.24719 
L 302.931563 15.24719 
L 302.931563 14.305098 
L 303.97412 14.305098 
L 303.97412 13.363007 
L 304.295543 13.363007 
L 304.295543 12.420915 
L 307.755478 12.420915 
L 307.755478 11.478824 
L 308.463878 11.478824 
L 308.463878 10.536732 
L 308.86165 10.536732 
L 308.86165 9.594641 
L 315.275951 9.594641 
L 315.275951 8.652549 
L 319.81548 8.652549 
L 319.81548 7.710458 
L 325.893653 7.710458 
L 325.893653 6.768366 
L 333.838823 6.768366 
L 333.838823 5.826275 
L 453.192 5.826275 
L 453.192 5.826275 
" clip-path="url(#pa40007b4d2)" style="fill: none; stroke: #000000; stroke-width: 3; stroke-linecap: square"/>
   </g>
   <g id="line2d_35">
    <path clip-path="url(#pa40007b4d2)" style="fill: none; stroke: #000000; stroke-width: 3; stroke-linecap: square"/>
   </g>
   <g id="line2d_36">
    <path d="M 34.16 288.453725 
L 50.087818 288.453725 
L 50.087818 287.511634 
L 95.747238 287.511634 
L 95.747238 286.569542 
L 103.147569 286.569542 
L 103.147569 285.627451 
L 107.172744 285.627451 
L 107.229088 283.743268 
L 109.801417 283.743268 
L 109.801417 282.801176 
L 111.736505 282.801176 
L 111.736505 281.859085 
L 120.395534 281.859085 
L 120.395534 280.916993 
L 124.665974 280.916993 
L 124.665974 279.974902 
L 130.009195 279.974902 
L 130.009195 278.090719 
L 130.435755 278.090719 
L 130.435755 277.148627 
L 131.120402 277.148627 
L 131.120402 276.206536 
L 131.86783 276.206536 
L 131.86783 275.264444 
L 133.067473 275.264444 
L 133.067473 274.322353 
L 133.864459 274.322353 
L 133.864459 273.380261 
L 135.759022 273.380261 
L 135.759022 272.43817 
L 137.366715 272.43817 
L 137.366715 271.496078 
L 137.997189 271.496078 
L 137.997189 270.553987 
L 138.443504 270.553987 
L 138.443504 269.611895 
L 139.083189 269.611895 
L 139.083189 268.669804 
L 139.788516 268.669804 
L 139.788516 267.727712 
L 140.035579 267.727712 
L 140.035579 266.785621 
L 140.297578 266.785621 
L 140.297578 265.843529 
L 142.178023 265.843529 
L 142.178023 264.901438 
L 142.483863 264.901438 
L 142.500697 263.017255 
L 144.182898 263.017255 
L 144.182898 262.075163 
L 144.369183 262.075163 
L 144.369183 261.133072 
L 146.965027 261.133072 
L 146.980376 258.306797 
L 147.334016 258.306797 
L 147.334016 257.364706 
L 148.839011 257.364706 
L 148.938061 255.480523 
L 152.730203 255.480523 
L 152.730203 254.538431 
L 153.608699 254.538431 
L 153.608699 253.59634 
L 153.849032 253.59634 
L 153.849032 252.654248 
L 155.066627 252.654248 
L 155.066627 251.712157 
L 157.00676 251.712157 
L 157.00676 250.770065 
L 157.49406 250.770065 
L 157.49406 249.827974 
L 158.035519 249.827974 
L 158.035519 248.885882 
L 159.471878 248.885882 
L 159.471878 247.943791 
L 161.340364 247.943791 
L 161.340364 247.001699 
L 167.71834 247.001699 
L 167.71834 246.059608 
L 168.320415 246.059608 
L 168.320415 245.117516 
L 170.204663 245.117516 
L 170.204663 244.175425 
L 170.57988 244.175425 
L 170.57988 243.233333 
L 177.706294 243.233333 
L 177.706294 242.291242 
L 184.135359 242.291242 
L 184.135359 241.34915 
L 184.742609 241.34915 
L 184.742609 240.407059 
L 185.291596 240.407059 
L 185.390411 238.522876 
L 186.707688 238.522876 
L 186.707688 237.580784 
L 188.642776 237.580784 
L 188.642776 236.638693 
L 192.142941 236.638693 
L 192.142941 235.696601 
L 196.168115 235.696601 
L 196.168115 234.75451 
L 200.747302 234.75451 
L 200.747302 233.812418 
L 203.319632 233.812418 
L 203.319632 232.870327 
L 205.254719 232.870327 
L 205.254719 231.928235 
L 205.41231 231.928235 
L 205.41231 230.986144 
L 210.459699 230.986144 
L 210.459699 230.044052 
L 210.77073 230.044052 
L 210.77073 229.101961 
L 213.377761 229.101961 
L 213.377761 228.159869 
L 213.661346 228.159869 
L 213.661346 227.217778 
L 214.90346 227.217778 
L 214.90346 226.275686 
L 215.080363 226.275686 
L 215.080363 225.333595 
L 216.009562 225.333595 
L 216.009562 224.391503 
L 216.45045 224.391503 
L 216.45045 223.449412 
L 216.694787 223.449412 
L 216.694787 222.50732 
L 218.003433 222.50732 
L 218.003433 221.565229 
L 218.435384 221.565229 
L 218.435384 220.623137 
L 218.581892 220.623137 
L 218.581892 219.681046 
L 219.390134 219.681046 
L 219.431126 217.796863 
L 219.966745 217.796863 
L 220.010384 215.91268 
L 220.115774 215.91268 
L 220.115774 214.970588 
L 220.322243 214.970588 
L 220.322243 214.028497 
L 220.516979 214.028497 
L 220.516979 213.086405 
L 220.778092 213.086405 
L 220.778092 212.144314 
L 221.007714 212.144314 
L 221.089169 210.260131 
L 221.314648 210.260131 
L 221.314648 209.318039 
L 221.49784 209.318039 
L 221.608233 207.433856 
L 222.062844 207.433856 
L 222.062844 206.491765 
L 222.942801 206.491765 
L 223.050822 204.607582 
L 223.365714 204.607582 
L 223.365714 203.66549 
L 223.58382 203.66549 
L 223.58382 201.781307 
L 223.871298 201.781307 
L 223.871298 200.839216 
L 224.240287 200.839216 
L 224.240287 199.897124 
L 224.38021 199.897124 
L 224.38021 198.955033 
L 224.694023 198.955033 
L 224.803266 196.128758 
L 226.552658 196.128758 
L 226.552658 195.186667 
L 227.382674 195.186667 
L 227.438875 193.302484 
L 228.63121 193.302484 
L 228.63121 191.418301 
L 229.292949 191.418301 
L 229.292949 190.476209 
L 229.580406 190.476209 
L 229.580406 188.592026 
L 230.44385 188.592026 
L 230.44385 187.649935 
L 230.755303 187.649935 
L 230.766045 185.765752 
L 231.049832 185.765752 
L 231.049832 184.82366 
L 231.173394 184.82366 
L 231.173394 183.881569 
L 231.360384 183.881569 
L 231.439041 181.997386 
L 231.515403 181.997386 
L 231.515403 181.055294 
L 231.972898 181.055294 
L 231.972898 180.113203 
L 232.913366 180.113203 
L 232.913366 179.171111 
L 233.30673 179.171111 
L 233.30673 178.22902 
L 234.330354 178.22902 
L 234.330354 177.286928 
L 234.720408 177.286928 
L 234.79122 175.402745 
L 234.94179 175.402745 
L 234.94179 174.460654 
L 235.330233 174.460654 
L 235.418351 172.576471 
L 235.963061 172.576471 
L 236.002077 170.692288 
L 236.317309 170.692288 
L 236.317309 169.750196 
L 236.969312 169.750196 
L 236.981565 166.923922 
L 237.185526 166.923922 
L 237.293424 165.039739 
L 237.701113 165.039739 
L 237.777258 163.155556 
L 237.933432 163.155556 
L 237.933432 162.213464 
L 238.450163 162.213464 
L 238.493754 159.38719 
L 239.054011 159.38719 
L 239.054011 158.445098 
L 239.60679 158.445098 
L 239.60679 157.503007 
L 240.483241 157.503007 
L 240.533055 155.618824 
L 240.852231 155.618824 
L 240.852231 154.676732 
L 241.550699 154.676732 
L 241.550699 153.734641 
L 242.071908 153.734641 
L 242.071908 152.792549 
L 242.296497 152.792549 
L 242.296497 151.850458 
L 242.475337 151.850458 
L 242.551721 149.024183 
L 242.644934 149.024183 
L 242.644934 148.082092 
L 242.771737 148.082092 
L 242.771737 147.14 
L 243.940394 147.14 
L 243.940394 146.197908 
L 244.079388 146.197908 
L 244.079388 145.255817 
L 244.422182 145.255817 
L 244.422182 144.313725 
L 245.070756 144.313725 
L 245.070756 143.371634 
L 245.368495 143.371634 
L 245.368495 142.429542 
L 245.576721 142.429542 
L 245.576721 140.545359 
L 246.224808 140.545359 
L 246.224808 139.603268 
L 246.489431 139.603268 
L 246.489431 138.661176 
L 246.777663 138.661176 
L 246.777663 137.719085 
L 246.921478 137.719085 
L 246.921478 136.776993 
L 247.35545 136.776993 
L 247.435356 133.950719 
L 248.007453 133.950719 
L 248.066277 132.066536 
L 248.293527 132.066536 
L 248.331565 130.182353 
L 248.56899 130.182353 
L 248.584841 128.29817 
L 248.750925 128.29817 
L 248.815399 126.413987 
L 248.908432 126.413987 
L 248.908432 125.471895 
L 249.203485 125.471895 
L 249.203485 124.529804 
L 249.560435 124.529804 
L 249.560435 123.587712 
L 249.884547 123.587712 
L 249.88628 121.703529 
L 250.368381 121.703529 
L 250.368381 120.761438 
L 250.697995 120.761438 
L 250.697995 119.819346 
L 250.994812 119.819346 
L 250.994812 118.877255 
L 251.264337 118.877255 
L 251.326548 116.993072 
L 251.553734 116.993072 
L 251.553734 116.05098 
L 252.22014 116.05098 
L 252.28445 114.166797 
L 252.501865 114.166797 
L 252.588839 111.340523 
L 252.641701 111.340523 
L 252.641701 110.398431 
L 252.963373 110.398431 
L 252.963373 109.45634 
L 253.076649 109.45634 
L 253.17991 107.572157 
L 253.690159 107.572157 
L 253.690159 106.630065 
L 253.809878 106.630065 
L 253.809878 105.687974 
L 254.141822 105.687974 
L 254.141822 104.745882 
L 254.48882 104.745882 
L 254.48882 102.861699 
L 254.754016 102.861699 
L 254.754016 101.919608 
L 255.140823 101.919608 
L 255.140823 100.035425 
L 255.36286 100.035425 
L 255.464935 95.324967 
L 255.603106 95.324967 
L 255.603106 94.382876 
L 255.745501 94.382876 
L 255.745501 93.440784 
L 255.948769 93.440784 
L 255.948769 91.556601 
L 256.074027 91.556601 
L 256.11449 89.672418 
L 257.013305 89.672418 
L 257.013305 88.730327 
L 257.9281 88.730327 
L 257.9281 87.788235 
L 258.054231 87.788235 
L 258.068223 85.904052 
L 258.171323 85.904052 
L 258.171323 84.961961 
L 258.540312 84.961961 
L 258.540312 84.019869 
L 258.738878 84.019869 
L 258.738878 83.077778 
L 259.200035 83.077778 
L 259.200035 82.135686 
L 259.722209 82.135686 
L 259.808545 79.309412 
L 259.936709 79.309412 
L 259.968568 77.425229 
L 260.685949 77.425229 
L 260.685949 76.483137 
L 260.924421 76.483137 
L 260.943248 73.656863 
L 261.050569 73.656863 
L 261.050569 72.714771 
L 262.477403 72.714771 
L 262.477403 71.77268 
L 262.593693 71.77268 
L 262.629506 68.946405 
L 263.005244 68.946405 
L 263.005244 68.004314 
L 263.195989 68.004314 
L 263.258281 66.120131 
L 263.847101 66.120131 
L 263.847101 65.178039 
L 264.811264 65.178039 
L 264.811264 64.235948 
L 265.055328 64.235948 
L 265.055328 63.293856 
L 265.738348 63.293856 
L 265.792157 61.409673 
L 266.06198 61.409673 
L 266.06198 60.467582 
L 266.272923 60.467582 
L 266.272923 59.52549 
L 266.422996 59.52549 
L 266.422996 58.583399 
L 266.568583 58.583399 
L 266.568583 57.641307 
L 266.815993 57.641307 
L 266.815993 56.699216 
L 267.345139 56.699216 
L 267.345139 55.757124 
L 267.891626 55.757124 
L 267.916054 53.872941 
L 268.057791 53.872941 
L 268.057791 51.988758 
L 268.370066 51.988758 
L 268.370066 51.046667 
L 269.176225 51.046667 
L 269.241815 49.162484 
L 269.612882 49.162484 
L 269.612882 48.220392 
L 269.796499 48.220392 
L 269.796499 47.278301 
L 270.04783 47.278301 
L 270.04783 46.336209 
L 270.391651 46.336209 
L 270.391651 44.452026 
L 272.925527 44.452026 
L 272.925527 42.567843 
L 273.746098 42.567843 
L 273.746098 41.625752 
L 275.124582 41.625752 
L 275.124582 40.68366 
L 275.600171 40.68366 
L 275.600171 39.741569 
L 276.556537 39.741569 
L 276.556537 38.799477 
L 277.480616 38.799477 
L 277.480616 37.857386 
L 283.887941 37.857386 
L 283.887941 36.915294 
L 284.240654 36.915294 
L 284.240654 35.973203 
L 285.112536 35.973203 
L 285.112536 35.031111 
L 287.835186 35.031111 
L 287.835186 34.08902 
L 292.796653 34.08902 
L 292.796653 33.146928 
L 297.823139 33.146928 
L 297.823139 32.204837 
L 298.220919 32.204837 
L 298.220919 31.262745 
L 305.507257 31.262745 
L 305.507257 30.320654 
L 310.603604 30.320654 
L 310.603604 29.378562 
L 314.695213 29.378562 
L 314.695213 28.436471 
L 314.832863 28.436471 
L 314.832863 27.494379 
L 317.439326 27.494379 
L 317.439326 26.552288 
L 319.581595 26.552288 
L 319.581595 25.610196 
L 330.095122 25.610196 
L 330.095122 24.668105 
L 332.520944 24.668105 
L 332.520944 23.726013 
L 334.051269 23.726013 
L 334.051269 22.783922 
L 335.577911 22.783922 
L 335.577911 21.84183 
L 338.764217 21.84183 
L 338.764217 20.899739 
L 339.238755 20.899739 
L 339.238755 19.957647 
L 340.909637 19.957647 
L 340.909637 19.015556 
L 343.650599 19.015556 
L 343.650599 18.073464 
L 345.796019 18.073464 
L 345.796019 17.131373 
L 347.326529 17.131373 
L 347.326529 16.189281 
L 347.761478 16.189281 
L 347.761478 15.24719 
L 349.226709 15.24719 
L 349.313529 13.363007 
L 351.739351 13.363007 
L 351.739351 12.420915 
L 352.212912 12.420915 
L 352.212912 11.478824 
L 352.64786 11.478824 
L 352.64786 10.536732 
L 356.910826 10.536732 
L 356.910826 9.594641 
L 359.646915 9.594641 
L 359.646915 8.652549 
L 361.792335 8.652549 
L 361.792335 7.710458 
L 368.209227 7.710458 
L 368.209227 6.768366 
L 368.644176 6.768366 
L 368.644176 5.826275 
L 453.192 5.826275 
L 453.192 5.826275 
" clip-path="url(#pa40007b4d2)" style="fill: none; stroke: #00bfbf; stroke-width: 3; stroke-linecap: square"/>
   </g>
   <g id="line2d_37">
    <path clip-path="url(#pa40007b4d2)" style="fill: none; stroke: #00bfbf; stroke-width: 3; stroke-linecap: square"/>
   </g>
   <g id="line2d_38">
    <path d="M 34.16 288.453725 
L 102.423581 288.453725 
L 102.423581 287.511634 
L 126.205334 287.511634 
L 126.205334 286.569542 
L 129.38709 286.569542 
L 129.38709 285.627451 
L 130.819942 285.627451 
L 130.819942 284.685359 
L 131.474921 284.685359 
L 131.474921 283.743268 
L 132.169641 283.743268 
L 132.169641 282.801176 
L 132.315699 282.801176 
L 132.315699 281.859085 
L 135.39272 281.859085 
L 135.39272 280.916993 
L 137.064077 280.916993 
L 137.064077 279.974902 
L 141.95437 279.974902 
L 141.95437 279.03281 
L 142.283677 279.03281 
L 142.283677 278.090719 
L 142.802352 278.090719 
L 142.802352 277.148627 
L 142.978397 277.148627 
L 142.978397 276.206536 
L 146.93477 276.206536 
L 146.93477 275.264444 
L 151.347392 275.264444 
L 151.347392 274.322353 
L 151.608242 274.322353 
L 151.608242 273.380261 
L 152.302963 273.380261 
L 152.393442 271.496078 
L 152.763126 271.496078 
L 152.763126 270.553987 
L 153.305605 270.553987 
L 153.305605 269.611895 
L 154.049425 269.611895 
L 154.049425 268.669804 
L 154.786713 268.669804 
L 154.786713 267.727712 
L 155.041012 267.727712 
L 155.041012 266.785621 
L 156.448015 266.785621 
L 156.448015 265.843529 
L 156.753175 265.843529 
L 156.753175 264.901438 
L 157.743526 264.901438 
L 157.743526 263.959346 
L 158.110486 263.959346 
L 158.110486 263.017255 
L 158.818312 263.017255 
L 158.926058 261.133072 
L 159.625643 261.133072 
L 159.625643 260.19098 
L 160.363014 260.19098 
L 160.363014 259.248889 
L 161.630831 259.248889 
L 161.630831 258.306797 
L 161.943731 258.306797 
L 161.943731 257.364706 
L 162.087691 257.364706 
L 162.087691 256.422614 
L 162.667639 256.422614 
L 162.667639 255.480523 
L 163.440313 255.480523 
L 163.440313 254.538431 
L 165.849768 254.538431 
L 165.849768 253.59634 
L 167.068091 253.59634 
L 167.068091 252.654248 
L 167.724147 252.654248 
L 167.724147 251.712157 
L 169.29266 251.712157 
L 169.29266 250.770065 
L 169.627068 250.770065 
L 169.627068 249.827974 
L 175.174333 249.827974 
L 175.258564 247.943791 
L 178.951634 247.943791 
L 178.951634 247.001699 
L 179.45886 247.001699 
L 179.45886 246.059608 
L 181.245172 246.059608 
L 181.245172 245.117516 
L 195.412558 245.117516 
L 195.412558 244.175425 
L 199.985337 244.175425 
L 199.985337 243.233333 
L 201.656694 243.233333 
L 201.656694 242.291242 
L 203.646234 242.291242 
L 203.646234 241.34915 
L 204.454269 241.34915 
L 204.454269 240.407059 
L 205.026926 240.407059 
L 205.026926 239.464967 
L 206.519971 239.464967 
L 206.519971 238.522876 
L 207.214692 238.522876 
L 207.214692 237.580784 
L 208.208682 237.580784 
L 208.219013 235.696601 
L 209.890369 235.696601 
L 209.890369 234.75451 
L 211.13729 234.75451 
L 211.13729 233.812418 
L 211.28594 233.812418 
L 211.28594 232.870327 
L 212.077856 232.870327 
L 212.077856 231.928235 
L 213.921047 231.928235 
L 213.921047 230.986144 
L 215.940008 230.986144 
L 215.940008 230.044052 
L 216.268459 230.044052 
L 216.268459 229.101961 
L 216.99942 229.101961 
L 216.99942 228.159869 
L 218.776691 228.159869 
L 218.776691 227.217778 
L 219.584704 227.217778 
L 219.584704 226.275686 
L 220.279425 226.275686 
L 220.279425 225.333595 
L 220.841238 225.333595 
L 220.841238 224.391503 
L 221.345792 224.391503 
L 221.345792 223.449412 
L 221.623943 223.449412 
L 221.623943 222.50732 
L 221.97982 222.50732 
L 221.97982 221.565229 
L 222.512594 221.565229 
L 222.512594 220.623137 
L 222.703103 220.623137 
L 222.703103 219.681046 
L 222.886612 219.681046 
L 222.891686 217.796863 
L 223.518674 217.796863 
L 223.518674 216.854771 
L 224.173684 216.854771 
L 224.234197 214.970588 
L 224.95563 214.970588 
L 224.95563 214.028497 
L 226.517867 214.028497 
L 226.536348 212.144314 
L 226.708022 212.144314 
L 226.708022 211.202222 
L 227.260256 211.202222 
L 227.35948 208.375948 
L 228.03293 208.375948 
L 228.03293 207.433856 
L 228.236022 207.433856 
L 228.236022 206.491765 
L 228.806976 206.491765 
L 228.806976 205.549673 
L 229.032563 205.549673 
L 229.032563 204.607582 
L 229.268227 204.607582 
L 229.268227 203.66549 
L 229.491029 203.66549 
L 229.579467 201.781307 
L 230.064153 201.781307 
L 230.086063 199.897124 
L 230.478333 199.897124 
L 230.478333 198.955033 
L 230.936778 198.955033 
L 230.936778 198.012941 
L 231.215034 198.012941 
L 231.215034 197.07085 
L 231.382188 197.07085 
L 231.417778 195.186667 
L 231.75235 195.186667 
L 231.75235 194.244575 
L 232.127196 194.244575 
L 232.211177 192.360392 
L 232.316763 192.360392 
L 232.316763 191.418301 
L 232.871017 191.418301 
L 232.895879 189.534118 
L 233.147558 189.534118 
L 233.189306 187.649935 
L 233.606025 187.649935 
L 233.608304 185.765752 
L 233.863363 185.765752 
L 233.863363 184.82366 
L 234.20278 184.82366 
L 234.20278 183.881569 
L 234.346386 183.881569 
L 234.346386 182.939477 
L 234.518673 182.939477 
L 234.518673 181.997386 
L 234.722835 181.997386 
L 234.770024 180.113203 
L 235.044553 180.113203 
L 235.067693 178.22902 
L 235.198523 178.22902 
L 235.269606 176.344837 
L 235.493931 176.344837 
L 235.493931 175.402745 
L 236.266605 175.402745 
L 236.266605 174.460654 
L 236.795909 174.460654 
L 236.795909 173.518562 
L 236.963894 173.518562 
L 237.010874 171.634379 
L 237.326623 171.634379 
L 237.42236 169.750196 
L 237.566399 169.750196 
L 237.591532 166.923922 
L 237.702801 166.923922 
L 237.702801 165.98183 
L 237.923003 165.98183 
L 237.923003 165.039739 
L 238.249449 165.039739 
L 238.317776 163.155556 
L 238.447234 163.155556 
L 238.447234 162.213464 
L 238.575415 162.213464 
L 238.575415 161.271373 
L 239.851181 161.271373 
L 239.851181 160.329281 
L 240.452422 160.329281 
L 240.550439 158.445098 
L 240.82721 158.445098 
L 240.884557 156.560915 
L 241.178058 156.560915 
L 241.178058 155.618824 
L 241.321671 155.618824 
L 241.321671 154.676732 
L 241.572627 154.676732 
L 241.572627 153.734641 
L 241.706527 153.734641 
L 241.706527 151.850458 
L 242.037998 151.850458 
L 242.134111 149.966275 
L 242.201692 149.966275 
L 242.201692 149.024183 
L 242.569018 149.024183 
L 242.569018 148.082092 
L 243.061171 148.082092 
L 243.150795 146.197908 
L 243.559004 146.197908 
L 243.559004 145.255817 
L 243.813165 145.255817 
L 243.830311 143.371634 
L 244.041774 143.371634 
L 244.041774 142.429542 
L 244.374575 142.429542 
L 244.374575 141.487451 
L 244.673985 141.487451 
L 244.761647 139.603268 
L 244.833039 139.603268 
L 244.833039 138.661176 
L 245.327429 138.661176 
L 245.327429 137.719085 
L 245.522863 137.719085 
L 245.531592 134.89281 
L 245.811531 134.89281 
L 245.854334 133.008627 
L 246.0569 133.008627 
L 246.0569 132.066536 
L 246.651188 132.066536 
L 246.651188 131.124444 
L 246.784023 131.124444 
L 246.784023 130.182353 
L 246.928096 130.182353 
L 246.928096 129.240261 
L 247.392249 129.240261 
L 247.502 127.356078 
L 247.598669 127.356078 
L 247.598669 126.413987 
L 247.822271 126.413987 
L 247.892954 124.529804 
L 247.945306 124.529804 
L 247.945306 123.587712 
L 248.084856 123.587712 
L 248.116156 120.761438 
L 248.280737 120.761438 
L 248.280737 119.819346 
L 248.788981 119.819346 
L 248.88883 117.935163 
L 249.384171 117.935163 
L 249.384171 116.993072 
L 250.167431 116.993072 
L 250.167431 116.05098 
L 250.899018 116.05098 
L 250.899018 115.108889 
L 251.524742 115.108889 
L 251.524742 114.166797 
L 251.664711 114.166797 
L 251.761641 110.398431 
L 251.978149 110.398431 
L 252.00795 108.514248 
L 252.130427 108.514248 
L 252.130427 107.572157 
L 252.340313 107.572157 
L 252.381384 105.687974 
L 252.605316 105.687974 
L 252.605316 104.745882 
L 252.992488 104.745882 
L 252.992488 103.803791 
L 253.172664 103.803791 
L 253.172664 102.861699 
L 253.377774 102.861699 
L 253.377774 101.919608 
L 253.777269 101.919608 
L 253.777269 100.977516 
L 254.299818 100.977516 
L 254.299818 100.035425 
L 254.42413 100.035425 
L 254.42413 99.093333 
L 254.651994 99.093333 
L 254.715353 97.20915 
L 254.85053 97.20915 
L 254.856157 95.324967 
L 255.336292 95.324967 
L 255.357987 93.440784 
L 255.53 93.440784 
L 255.53 92.498693 
L 255.824285 92.498693 
L 255.824285 91.556601 
L 255.992502 91.556601 
L 256.093144 87.788235 
L 256.38124 87.788235 
L 256.38124 85.904052 
L 256.712711 85.904052 
L 256.8174 84.019869 
L 256.854569 84.019869 
L 256.854569 83.077778 
L 257.757873 83.077778 
L 257.757873 82.135686 
L 258.216339 82.135686 
L 258.280451 80.251503 
L 258.478702 80.251503 
L 258.478702 79.309412 
L 258.708736 79.309412 
L 258.708736 78.36732 
L 259.909479 78.36732 
L 259.909479 77.425229 
L 260.707081 77.425229 
L 260.707081 76.483137 
L 261.138403 76.483137 
L 261.138403 75.541046 
L 261.255801 75.541046 
L 261.255801 74.598954 
L 261.454992 74.598954 
L 261.454992 73.656863 
L 261.621189 73.656863 
L 261.705949 70.830588 
L 262.167964 70.830588 
L 262.167964 69.888497 
L 262.620019 69.888497 
L 262.702339 68.004314 
L 262.911784 68.004314 
L 262.92809 66.120131 
L 263.463693 66.120131 
L 263.463693 65.178039 
L 263.649072 65.178039 
L 263.661518 63.293856 
L 263.890909 63.293856 
L 263.890909 62.351765 
L 264.175095 62.351765 
L 264.175095 61.409673 
L 264.803071 61.409673 
L 264.803071 60.467582 
L 265.310374 60.467582 
L 265.310374 59.52549 
L 265.546891 59.52549 
L 265.573731 57.641307 
L 266.284179 57.641307 
L 266.388377 53.872941 
L 266.648312 53.872941 
L 266.682662 51.988758 
L 267.945481 51.988758 
L 267.945481 51.046667 
L 268.488002 51.046667 
L 268.488002 50.104575 
L 268.67282 50.104575 
L 268.67282 49.162484 
L 270.49319 49.162484 
L 270.49319 48.220392 
L 270.767857 48.220392 
L 270.767857 47.278301 
L 271.123109 47.278301 
L 271.123109 46.336209 
L 271.323348 46.336209 
L 271.323348 45.394118 
L 272.55562 45.394118 
L 272.55562 44.452026 
L 273.128297 44.452026 
L 273.128297 43.509935 
L 273.399295 43.509935 
L 273.399295 42.567843 
L 275.509332 42.567843 
L 275.509332 41.625752 
L 276.323978 41.625752 
L 276.323978 40.68366 
L 276.618264 40.68366 
L 276.618264 39.741569 
L 278.155019 39.741569 
L 278.155019 38.799477 
L 280.703458 38.799477 
L 280.790127 36.915294 
L 281.489547 36.915294 
L 281.489547 35.973203 
L 287.122907 35.973203 
L 287.122907 35.031111 
L 288.321219 35.031111 
L 288.321219 34.08902 
L 290.956326 34.08902 
L 290.956326 33.146928 
L 291.952097 33.146928 
L 291.952097 32.204837 
L 300.185773 32.204837 
L 300.187639 30.320654 
L 301.562918 30.320654 
L 301.562918 29.378562 
L 307.653788 29.378562 
L 307.653788 28.436471 
L 308.089818 28.436471 
L 308.089818 27.494379 
L 309.563723 27.494379 
L 309.563723 26.552288 
L 309.767886 26.552288 
L 309.767886 25.610196 
L 312.807998 25.610196 
L 312.807998 24.668105 
L 313.620465 24.668105 
L 313.620465 23.726013 
L 314.62765 23.726013 
L 314.62765 22.783922 
L 315.887464 22.783922 
L 315.887464 21.84183 
L 316.366721 21.84183 
L 316.366721 20.899739 
L 316.617678 20.899739 
L 316.617678 19.957647 
L 317.614069 19.957647 
L 317.614069 19.015556 
L 319.086824 19.015556 
L 319.086824 18.073464 
L 320.773736 18.073464 
L 320.773736 17.131373 
L 322.628456 17.131373 
L 322.628456 16.189281 
L 322.832619 16.189281 
L 322.832619 15.24719 
L 326.685198 15.24719 
L 326.685198 14.305098 
L 328.509689 14.305098 
L 328.509689 13.363007 
L 329.431454 13.363007 
L 329.431454 12.420915 
L 329.682411 12.420915 
L 329.682411 11.478824 
L 330.678802 11.478824 
L 330.678802 10.536732 
L 331.298915 10.536732 
L 331.298915 9.594641 
L 332.151557 9.594641 
L 332.151557 8.652549 
L 336.475427 8.652549 
L 336.475427 7.710458 
L 338.130586 7.710458 
L 338.130586 6.768366 
L 340.765693 6.768366 
L 340.765693 5.826275 
L 453.192 5.826275 
L 453.192 5.826275 
" clip-path="url(#pa40007b4d2)" style="fill: none; stroke: #bf00bf; stroke-width: 3; stroke-linecap: square"/>
   </g>
   <g id="line2d_39">
    <path clip-path="url(#pa40007b4d2)" style="fill: none; stroke: #bf00bf; stroke-width: 3; stroke-linecap: square"/>
   </g>
   <g id="line2d_40">
    <path d="M 34.16 288.453725 
L 120.589865 288.453725 
L 120.589865 287.511634 
L 137.37567 287.511634 
L 137.37567 286.569542 
L 138.301358 286.569542 
L 138.301358 285.627451 
L 138.869708 285.627451 
L 138.869708 284.685359 
L 142.201293 284.685359 
L 142.208807 282.801176 
L 143.505204 282.801176 
L 143.505204 281.859085 
L 146.556941 281.859085 
L 146.556941 280.916993 
L 147.046678 280.916993 
L 147.046678 279.974902 
L 147.761107 279.974902 
L 147.761107 279.03281 
L 149.164473 279.03281 
L 149.164473 278.090719 
L 151.390078 278.090719 
L 151.390078 277.148627 
L 155.344682 277.148627 
L 155.344682 276.206536 
L 156.850439 276.206536 
L 156.850439 275.264444 
L 157.578816 275.264444 
L 157.578816 274.322353 
L 158.030863 274.322353 
L 158.030863 273.380261 
L 158.173709 273.380261 
L 158.173709 272.43817 
L 158.345744 272.43817 
L 158.345744 271.496078 
L 160.167434 271.496078 
L 160.177819 269.611895 
L 160.463854 269.611895 
L 160.474523 267.727712 
L 162.364575 267.727712 
L 162.364575 266.785621 
L 163.299037 266.785621 
L 163.299037 265.843529 
L 164.158412 265.843529 
L 164.158412 264.901438 
L 164.909415 264.901438 
L 164.909415 263.959346 
L 165.296992 263.959346 
L 165.296992 263.017255 
L 165.730601 263.017255 
L 165.730601 262.075163 
L 165.92182 262.075163 
L 165.92182 260.19098 
L 167.133485 260.19098 
L 167.197713 258.306797 
L 167.763723 258.306797 
L 167.763723 257.364706 
L 168.090085 257.364706 
L 168.183099 254.538431 
L 168.407627 254.538431 
L 168.407627 253.59634 
L 168.554127 253.59634 
L 168.554127 252.654248 
L 171.061493 252.654248 
L 171.061493 251.712157 
L 172.252657 251.712157 
L 172.252657 250.770065 
L 172.717422 250.770065 
L 172.717422 249.827974 
L 174.153378 249.827974 
L 174.153378 248.885882 
L 175.08784 248.885882 
L 175.08784 247.943791 
L 178.451698 247.943791 
L 178.451698 247.001699 
L 181.342102 247.001699 
L 181.342102 246.059608 
L 193.811659 246.059608 
L 193.811659 245.117516 
L 200.836976 245.117516 
L 200.836976 244.175425 
L 205.225419 244.175425 
L 205.225419 243.233333 
L 208.766894 243.233333 
L 208.766894 242.291242 
L 209.481323 242.291242 
L 209.481323 241.34915 
L 210.018247 241.34915 
L 210.018247 240.407059 
L 210.2036 240.407059 
L 210.2036 239.464967 
L 211.523153 239.464967 
L 211.523153 238.522876 
L 212.091502 238.522876 
L 212.091502 237.580784 
L 214.034842 237.580784 
L 214.034842 236.638693 
L 215.423087 236.638693 
L 215.423087 235.696601 
L 215.571829 235.696601 
L 215.571829 234.75451 
L 217.576317 234.75451 
L 217.576317 233.812418 
L 218.290746 233.812418 
L 218.290746 232.870327 
L 218.805989 232.870327 
L 218.805989 231.928235 
L 219.384871 231.928235 
L 219.438567 230.044052 
L 219.893925 230.044052 
L 219.893925 229.101961 
L 222.002623 229.101961 
L 222.002623 228.159869 
L 222.173521 228.159869 
L 222.173521 227.217778 
L 222.947503 227.217778 
L 222.947503 226.275686 
L 223.925161 226.275686 
L 223.925161 225.333595 
L 225.825882 225.333595 
L 225.825882 224.391503 
L 226.074397 224.391503 
L 226.074397 223.449412 
L 226.488978 223.449412 
L 226.488978 222.50732 
L 226.711049 222.50732 
L 226.760343 220.623137 
L 227.203407 220.623137 
L 227.203407 219.681046 
L 227.450817 219.681046 
L 227.450817 218.738954 
L 227.642035 218.738954 
L 227.642035 216.854771 
L 228.172613 216.854771 
L 228.172613 215.91268 
L 228.703348 215.91268 
L 228.703348 214.970588 
L 228.910144 214.970588 
L 228.910144 214.028497 
L 229.034256 214.028497 
L 229.034256 213.086405 
L 229.240901 213.086405 
L 229.240901 212.144314 
L 229.483939 212.144314 
L 229.483939 211.202222 
L 229.615872 211.202222 
L 229.615872 210.260131 
L 229.810301 210.260131 
L 229.903315 208.375948 
L 230.072233 208.375948 
L 230.072233 207.433856 
L 230.274342 207.433856 
L 230.330301 205.549673 
L 230.589245 205.549673 
L 230.589245 204.607582 
L 230.80061 204.607582 
L 230.80061 203.66549 
L 231.252657 203.66549 
L 231.285055 201.781307 
L 231.876604 201.781307 
L 231.876604 200.839216 
L 232.565768 200.839216 
L 232.565768 199.897124 
L 232.781708 199.897124 
L 232.781708 198.955033 
L 233.283323 198.955033 
L 233.389229 196.128758 
L 233.667216 196.128758 
L 233.696318 194.244575 
L 233.851672 194.244575 
L 233.867393 192.360392 
L 234.290187 192.360392 
L 234.290187 191.418301 
L 235.192506 191.418301 
L 235.297671 189.534118 
L 236.126968 189.534118 
L 236.126968 188.592026 
L 236.26024 188.592026 
L 236.26024 187.649935 
L 236.451458 187.649935 
L 236.451458 185.765752 
L 236.58503 185.765752 
L 236.58503 184.82366 
L 237.15006 184.82366 
L 237.183257 182.939477 
L 237.274194 182.939477 
L 237.380207 181.055294 
L 237.616009 181.055294 
L 237.71841 179.171111 
L 238.13121 179.171111 
L 238.13121 178.22902 
L 238.293362 178.22902 
L 238.375642 176.344837 
L 238.619724 176.344837 
L 238.712738 174.460654 
L 238.961042 174.460654 
L 239.016479 171.634379 
L 239.083765 171.634379 
L 239.083765 170.692288 
L 239.455344 170.692288 
L 239.455344 169.750196 
L 239.871677 169.750196 
L 239.940295 166.923922 
L 240.085236 166.923922 
L 240.171913 165.039739 
L 240.453364 165.039739 
L 240.518564 163.155556 
L 240.676598 163.155556 
L 240.742903 161.271373 
L 240.823059 161.271373 
L 240.823059 160.329281 
L 241.049995 160.329281 
L 241.159037 158.445098 
L 241.472595 158.445098 
L 241.472595 157.503007 
L 241.591131 157.503007 
L 241.629421 155.618824 
L 241.8482 155.618824 
L 241.8482 154.676732 
L 242.055275 154.676732 
L 242.055275 153.734641 
L 242.949649 153.734641 
L 242.949649 152.792549 
L 243.57262 152.792549 
L 243.57262 151.850458 
L 243.724905 151.850458 
L 243.814637 149.024183 
L 244.16377 149.024183 
L 244.16377 148.082092 
L 244.648721 148.082092 
L 244.648721 147.14 
L 244.793662 147.14 
L 244.793662 146.197908 
L 245.143125 146.197908 
L 245.22699 143.371634 
L 245.364119 143.371634 
L 245.364119 141.487451 
L 245.939217 141.487451 
L 245.939217 140.545359 
L 246.539697 140.545359 
L 246.539697 138.661176 
L 246.718968 138.661176 
L 246.718968 137.719085 
L 246.888413 137.719085 
L 246.888413 136.776993 
L 247.206023 136.776993 
L 247.206023 135.834902 
L 247.532385 135.834902 
L 247.625399 133.008627 
L 247.996426 133.008627 
L 247.996426 132.066536 
L 248.298911 132.066536 
L 248.299795 130.182353 
L 248.491013 130.182353 
L 248.523063 127.356078 
L 248.737776 127.356078 
L 248.835024 125.471895 
L 248.981336 125.471895 
L 249.030491 123.587712 
L 249.222728 123.587712 
L 249.26322 121.703529 
L 249.367669 121.703529 
L 249.367669 120.761438 
L 249.524187 120.761438 
L 249.612395 118.877255 
L 249.752483 118.877255 
L 249.851551 116.05098 
L 250.332917 116.05098 
L 250.332917 115.108889 
L 250.503792 115.108889 
L 250.550579 113.224706 
L 250.625636 113.224706 
L 250.659279 111.340523 
L 250.752293 111.340523 
L 250.752293 110.398431 
L 251.123321 110.398431 
L 251.123321 109.45634 
L 251.239742 109.45634 
L 251.248606 107.572157 
L 251.372834 107.572157 
L 251.427394 104.745882 
L 251.774033 104.745882 
L 251.832403 102.861699 
L 252.341191 102.861699 
L 252.341191 101.919608 
L 252.56078 101.919608 
L 252.56078 100.977516 
L 252.964162 100.977516 
L 253.012827 99.093333 
L 253.09707 99.093333 
L 253.09707 98.151242 
L 253.630686 98.151242 
L 253.630686 97.20915 
L 253.844078 97.20915 
L 253.906082 94.382876 
L 254.320821 94.382876 
L 254.425558 92.498693 
L 254.563897 92.498693 
L 254.58562 90.61451 
L 255.149399 90.61451 
L 255.149399 89.672418 
L 255.456488 89.672418 
L 255.456488 88.730327 
L 255.699141 88.730327 
L 255.699141 87.788235 
L 255.974898 87.788235 
L 256.0014 85.904052 
L 256.413763 85.904052 
L 256.427518 84.019869 
L 256.60717 84.019869 
L 256.60717 83.077778 
L 256.879565 83.077778 
L 256.898715 81.193595 
L 257.043656 81.193595 
L 257.043656 80.251503 
L 257.476983 80.251503 
L 257.476983 79.309412 
L 257.690454 79.309412 
L 257.690454 78.36732 
L 257.893997 78.36732 
L 257.893997 77.425229 
L 258.129319 77.425229 
L 258.129319 76.483137 
L 258.3285 76.483137 
L 258.434095 73.656863 
L 258.61427 73.656863 
L 258.61427 72.714771 
L 258.739219 72.714771 
L 258.759211 70.830588 
L 258.894828 70.830588 
L 258.894828 69.888497 
L 259.016137 69.888497 
L 259.016137 68.946405 
L 259.140377 68.946405 
L 259.192538 66.120131 
L 259.323226 66.120131 
L 259.323226 65.178039 
L 259.614519 65.178039 
L 259.614519 64.235948 
L 259.89138 64.235948 
L 259.89138 63.293856 
L 260.773057 63.293856 
L 260.819294 61.409673 
L 261.020892 61.409673 
L 261.020892 60.467582 
L 261.541286 60.467582 
L 261.541286 59.52549 
L 261.75109 59.52549 
L 261.75109 58.583399 
L 262.058179 58.583399 
L 262.101544 56.699216 
L 262.488612 56.699216 
L 262.488612 55.757124 
L 263.007115 55.757124 
L 263.007115 54.815033 
L 263.389591 54.815033 
L 263.389591 53.872941 
L 263.562836 53.872941 
L 263.562836 52.93085 
L 263.677387 52.93085 
L 263.758118 51.046667 
L 263.8171 51.046667 
L 263.8171 50.104575 
L 265.392943 50.104575 
L 265.392943 49.162484 
L 265.694885 49.162484 
L 265.742068 47.278301 
L 266.493071 47.278301 
L 266.570814 45.394118 
L 267.256329 45.394118 
L 267.256329 44.452026 
L 267.699387 44.452026 
L 267.699387 43.509935 
L 268.28637 43.509935 
L 268.28637 42.567843 
L 269.991283 42.567843 
L 269.991283 41.625752 
L 271.566125 41.625752 
L 271.566125 40.68366 
L 274.301078 40.68366 
L 274.301078 39.741569 
L 276.324067 39.741569 
L 276.324067 38.799477 
L 280.190804 38.799477 
L 280.190804 37.857386 
L 282.925758 37.857386 
L 282.925758 36.915294 
L 288.34535 36.915294 
L 288.34535 35.973203 
L 290.63036 35.973203 
L 290.63036 35.031111 
L 292.495563 35.031111 
L 292.495563 34.08902 
L 293.178487 34.08902 
L 293.178487 33.146928 
L 299.439783 33.146928 
L 299.439783 32.204837 
L 300.134153 32.204837 
L 300.134153 31.262745 
L 301.862187 31.262745 
L 301.862187 30.320654 
L 302.462695 30.320654 
L 302.462695 29.378562 
L 303.19281 29.378562 
L 303.19281 28.436471 
L 305.516582 28.436471 
L 305.516582 27.494379 
L 308.352444 27.494379 
L 308.352444 26.552288 
L 310.001003 26.552288 
L 310.001003 24.668105 
L 311.479338 24.668105 
L 311.479338 23.726013 
L 312.002233 23.726013 
L 312.002233 22.783922 
L 312.491797 22.783922 
L 312.491797 21.84183 
L 313.213789 21.84183 
L 313.213789 20.899739 
L 314.883206 20.899739 
L 314.883206 19.957647 
L 315.23534 19.957647 
L 315.23534 19.015556 
L 317.367389 19.015556 
L 317.367389 18.073464 
L 319.367627 18.073464 
L 319.367627 16.189281 
L 320.914894 16.189281 
L 320.914894 15.24719 
L 321.858421 15.24719 
L 321.858421 14.305098 
L 322.580413 14.305098 
L 322.580413 13.363007 
L 324.041788 13.363007 
L 324.041788 12.420915 
L 324.222865 12.420915 
L 324.222865 11.478824 
L 324.601964 11.478824 
L 324.601964 10.536732 
L 326.734013 10.536732 
L 326.734013 9.594641 
L 328.089603 9.594641 
L 328.089603 8.652549 
L 330.824557 8.652549 
L 330.824557 7.710458 
L 351.806656 7.710458 
L 351.806656 6.768366 
L 361.173281 6.768366 
L 361.173281 5.826275 
L 453.192 5.826275 
L 453.192 5.826275 
" clip-path="url(#pa40007b4d2)" style="fill: none; stroke: #ff0000; stroke-width: 3; stroke-linecap: square"/>
   </g>
   <g id="line2d_41">
    <path clip-path="url(#pa40007b4d2)" style="fill: none; stroke: #ff0000; stroke-width: 3; stroke-linecap: square"/>
   </g>
   <g id="line2d_42">
    <path d="M 243.676 291.28 
L 243.676 3 
" clip-path="url(#pa40007b4d2)" style="fill: none; stroke: #000000; stroke-width: 1.5; stroke-linecap: square"/>
   </g>
   <g id="line2d_43">
    <path d="M 34.16 147.14 
L 453.192 147.14 
" clip-path="url(#pa40007b4d2)" style="fill: none; stroke-dasharray: 2,3.3; stroke-dashoffset: 0; stroke: #000000; stroke-width: 2"/>
   </g>
   <g id="patch_3">
    <path d="M 34.16 291.28 
L 34.16 3 
" style="fill: none; stroke: #000000; stroke-width: 0.8; stroke-linejoin: miter; stroke-linecap: square"/>
   </g>
   <g id="patch_4">
    <path d="M 453.192 291.28 
L 453.192 3 
" style="fill: none; stroke: #000000; stroke-width: 0.8; stroke-linejoin: miter; stroke-linecap: square"/>
   </g>
   <g id="patch_5">
    <path d="M 34.16 291.28 
L 453.192 291.28 
" style="fill: none; stroke: #000000; stroke-width: 0.8; stroke-linejoin: miter; stroke-linecap: square"/>
   </g>
   <g id="patch_6">
    <path d="M 34.16 3 
L 453.192 3 
" style="fill: none; stroke: #000000; stroke-width: 0.8; stroke-linejoin: miter; stroke-linecap: square"/>
   </g>
   <g id="text_6">
    <!-- f6-f9,5-D -->
    <g transform="translate(356.36761 285.5144)scale(0.2 -0.2)">
     <defs>
      <path id="DejaVuSans-36" d="M 2113 2584 
Q 1688 2584 1439 2293 
Q 1191 2003 1191 1497 
Q 1191 994 1439 701 
Q 1688 409 2113 409 
Q 2538 409 2786 701 
Q 3034 994 3034 1497 
Q 3034 2003 2786 2293 
Q 2538 2584 2113 2584 
z
M 3366 4563 
L 3366 3988 
Q 3128 4100 2886 4159 
Q 2644 4219 2406 4219 
Q 1781 4219 1451 3797 
Q 1122 3375 1075 2522 
Q 1259 2794 1537 2939 
Q 1816 3084 2150 3084 
Q 2853 3084 3261 2657 
Q 3669 2231 3669 1497 
Q 3669 778 3244 343 
Q 2819 -91 2113 -91 
Q 1303 -91 875 529 
Q 447 1150 447 2328 
Q 447 3434 972 4092 
Q 1497 4750 2381 4750 
Q 2619 4750 2861 4703 
Q 3103 4656 3366 4563 
z
" transform="scale(0.015625)"/>
      <path id="DejaVuSans-39" d="M 703 97 
L 703 672 
Q 941 559 1184 500 
Q 1428 441 1663 441 
Q 2288 441 2617 861 
Q 2947 1281 2994 2138 
Q 2813 1869 2534 1725 
Q 2256 1581 1919 1581 
Q 1219 1581 811 2004 
Q 403 2428 403 3163 
Q 403 3881 828 4315 
Q 1253 4750 1959 4750 
Q 2769 4750 3195 4129 
Q 3622 3509 3622 2328 
Q 3622 1225 3098 567 
Q 2575 -91 1691 -91 
Q 1453 -91 1209 -44 
Q 966 3 703 97 
z
M 1959 2075 
Q 2384 2075 2632 2365 
Q 2881 2656 2881 3163 
Q 2881 3666 2632 3958 
Q 2384 4250 1959 4250 
Q 1534 4250 1286 3958 
Q 1038 3666 1038 3163 
Q 1038 2656 1286 2365 
Q 1534 2075 1959 2075 
z
" transform="scale(0.015625)"/>
      <path id="DejaVuSans-2c" d="M 750 794 
L 1409 794 
L 1409 256 
L 897 -744 
L 494 -744 
L 750 256 
L 750 794 
z
" transform="scale(0.015625)"/>
      <path id="DejaVuSans-35" d="M 691 4666 
L 3169 4666 
L 3169 4134 
L 1269 4134 
L 1269 2991 
Q 1406 3038 1543 3061 
Q 1681 3084 1819 3084 
Q 2600 3084 3056 2656 
Q 3513 2228 3513 1497 
Q 3513 744 3044 326 
Q 2575 -91 1722 -91 
Q 1428 -91 1123 -41 
Q 819 9 494 109 
L 494 744 
Q 775 591 1075 516 
Q 1375 441 1709 441 
Q 2250 441 2565 725 
Q 2881 1009 2881 1497 
Q 2881 1984 2565 2268 
Q 2250 2553 1709 2553 
Q 1456 2553 1204 2497 
Q 953 2441 691 2322 
L 691 4666 
z
" transform="scale(0.015625)"/>
      <path id="DejaVuSans-44" d="M 1259 4147 
L 1259 519 
L 2022 519 
Q 2988 519 3436 956 
Q 3884 1394 3884 2338 
Q 3884 3275 3436 3711 
Q 2988 4147 2022 4147 
L 1259 4147 
z
M 628 4666 
L 1925 4666 
Q 3281 4666 3915 4102 
Q 4550 3538 4550 2338 
Q 4550 1131 3912 565 
Q 3275 0 1925 0 
L 628 0 
L 628 4666 
z
" transform="scale(0.015625)"/>
     </defs>
     <use xlink:href="#DejaVuSans-66"/>
     <use xlink:href="#DejaVuSans-36" x="35.205078"/>
     <use xlink:href="#DejaVuSans-2d" x="98.828125"/>
     <use xlink:href="#DejaVuSans-66" x="134.912109"/>
     <use xlink:href="#DejaVuSans-39" x="170.117188"/>
     <use xlink:href="#DejaVuSans-2c" x="233.740234"/>
     <use xlink:href="#DejaVuSans-35" x="265.527344"/>
     <use xlink:href="#DejaVuSans-2d" x="329.150391"/>
     <use xlink:href="#DejaVuSans-44" x="365.234375"/>
    </g>
   </g>
   <g id="text_7">
    <!-- v2.6.1.158 -->
    <g style="fill: #808080" transform="translate(216.861937 286.317512)scale(0.1 -0.1)">
     <defs>
      <path id="DejaVuSans-32" d="M 1228 531 
L 3431 531 
L 3431 0 
L 469 0 
L 469 531 
Q 828 903 1448 1529 
Q 2069 2156 2228 2338 
Q 2531 2678 2651 2914 
Q 2772 3150 2772 3378 
Q 2772 3750 2511 3984 
Q 2250 4219 1831 4219 
Q 1534 4219 1204 4116 
Q 875 4013 500 3803 
L 500 4441 
Q 881 4594 1212 4672 
Q 1544 4750 1819 4750 
Q 2544 4750 2975 4387 
Q 3406 4025 3406 3419 
Q 3406 3131 3298 2873 
Q 3191 2616 2906 2266 
Q 2828 2175 2409 1742 
Q 1991 1309 1228 531 
z
" transform="scale(0.015625)"/>
      <path id="DejaVuSans-2e" d="M 684 794 
L 1344 794 
L 1344 0 
L 684 0 
L 684 794 
z
" transform="scale(0.015625)"/>
      <path id="DejaVuSans-38" d="M 2034 2216 
Q 1584 2216 1326 1975 
Q 1069 1734 1069 1313 
Q 1069 891 1326 650 
Q 1584 409 2034 409 
Q 2484 409 2743 651 
Q 3003 894 3003 1313 
Q 3003 1734 2745 1975 
Q 2488 2216 2034 2216 
z
M 1403 2484 
Q 997 2584 770 2862 
Q 544 3141 544 3541 
Q 544 4100 942 4425 
Q 1341 4750 2034 4750 
Q 2731 4750 3128 4425 
Q 3525 4100 3525 3541 
Q 3525 3141 3298 2862 
Q 3072 2584 2669 2484 
Q 3125 2378 3379 2068 
Q 3634 1759 3634 1313 
Q 3634 634 3220 271 
Q 2806 -91 2034 -91 
Q 1263 -91 848 271 
Q 434 634 434 1313 
Q 434 1759 690 2068 
Q 947 2378 1403 2484 
z
M 1172 3481 
Q 1172 3119 1398 2916 
Q 1625 2713 2034 2713 
Q 2441 2713 2670 2916 
Q 2900 3119 2900 3481 
Q 2900 3844 2670 4047 
Q 2441 4250 2034 4250 
Q 1625 4250 1398 4047 
Q 1172 3844 1172 3481 
z
" transform="scale(0.015625)"/>
     </defs>
     <use xlink:href="#DejaVuSans-76"/>
     <use xlink:href="#DejaVuSans-32" x="59.179688"/>
     <use xlink:href="#DejaVuSans-2e" x="122.802734"/>
     <use xlink:href="#DejaVuSans-36" x="154.589844"/>
     <use xlink:href="#DejaVuSans-2e" x="218.212891"/>
     <use xlink:href="#DejaVuSans-31" x="250"/>
     <use xlink:href="#DejaVuSans-2e" x="313.623047"/>
     <use xlink:href="#DejaVuSans-31" x="345.410156"/>
     <use xlink:href="#DejaVuSans-35" x="409.033203"/>
     <use xlink:href="#DejaVuSans-38" x="472.65625"/>
    </g>
   </g>
   <g id="legend_1">
    <g id="patch_7">
     <path d="M 48.16 136.425 
L 177.381875 136.425 
Q 181.381875 136.425 181.381875 132.425 
L 181.381875 17 
Q 181.381875 13 177.381875 13 
L 48.16 13 
Q 44.16 13 44.16 17 
L 44.16 132.425 
Q 44.16 136.425 48.16 136.425 
z
" style="fill: #ffffff; opacity: 0.2; stroke: #cccccc; stroke-linejoin: miter"/>
    </g>
    <g id="line2d_44">
     <path d="M 52.16 29.196875 
L 72.16 29.196875 
L 92.16 29.196875 
" style="fill: none; stroke: #000000; stroke-width: 3; stroke-linecap: square"/>
    </g>
    <g id="text_8">
     <!-- 1: 4/4 -->
     <g transform="translate(108.16 36.196875)scale(0.2 -0.2)">
      <defs>
       <path id="DejaVuSans-3a" d="M 750 794 
L 1409 794 
L 1409 0 
L 750 0 
L 750 794 
z
M 750 3309 
L 1409 3309 
L 1409 2516 
L 750 2516 
L 750 3309 
z
" transform="scale(0.015625)"/>
       <path id="DejaVuSans-34" d="M 2419 4116 
L 825 1625 
L 2419 1625 
L 2419 4116 
z
M 2253 4666 
L 3047 4666 
L 3047 1625 
L 3713 1625 
L 3713 1100 
L 3047 1100 
L 3047 0 
L 2419 0 
L 2419 1100 
L 313 1100 
L 313 1709 
L 2253 4666 
z
" transform="scale(0.015625)"/>
       <path id="DejaVuSans-2f" d="M 1625 4666 
L 2156 4666 
L 531 -594 
L 0 -594 
L 1625 4666 
z
" transform="scale(0.015625)"/>
      </defs>
      <use xlink:href="#DejaVuSans-31"/>
      <use xlink:href="#DejaVuSans-3a" x="63.623047"/>
      <use xlink:href="#DejaVuSans-20" x="97.314453"/>
      <use xlink:href="#DejaVuSans-34" x="129.101562"/>
      <use xlink:href="#DejaVuSans-2f" x="192.724609"/>
      <use xlink:href="#DejaVuSans-34" x="226.416016"/>
     </g>
    </g>
    <g id="line2d_45">
     <path d="M 52.16 58.553125 
L 72.16 58.553125 
L 92.16 58.553125 
" style="fill: none; stroke: #00bfbf; stroke-width: 3; stroke-linecap: square"/>
    </g>
    <g id="text_9">
     <!-- -1: 4/4 -->
     <g transform="translate(108.16 65.553125)scale(0.2 -0.2)">
      <use xlink:href="#DejaVuSans-2d"/>
      <use xlink:href="#DejaVuSans-31" x="36.083984"/>
      <use xlink:href="#DejaVuSans-3a" x="99.707031"/>
      <use xlink:href="#DejaVuSans-20" x="133.398438"/>
      <use xlink:href="#DejaVuSans-34" x="165.185547"/>
      <use xlink:href="#DejaVuSans-2f" x="228.808594"/>
      <use xlink:href="#DejaVuSans-34" x="262.5"/>
     </g>
    </g>
    <g id="line2d_46">
     <path d="M 52.16 87.909375 
L 72.16 87.909375 
L 92.16 87.909375 
" style="fill: none; stroke: #bf00bf; stroke-width: 3; stroke-linecap: square"/>
    </g>
    <g id="text_10">
     <!-- -4: 4/4 -->
     <g transform="translate(108.16 94.909375)scale(0.2 -0.2)">
      <use xlink:href="#DejaVuSans-2d"/>
      <use xlink:href="#DejaVuSans-34" x="36.083984"/>
      <use xlink:href="#DejaVuSans-3a" x="99.707031"/>
      <use xlink:href="#DejaVuSans-20" x="133.398438"/>
      <use xlink:href="#DejaVuSans-34" x="165.185547"/>
      <use xlink:href="#DejaVuSans-2f" x="228.808594"/>
      <use xlink:href="#DejaVuSans-34" x="262.5"/>
     </g>
    </g>
    <g id="line2d_47">
     <path d="M 52.16 117.265625 
L 72.16 117.265625 
L 92.16 117.265625 
" style="fill: none; stroke: #ff0000; stroke-width: 3; stroke-linecap: square"/>
    </g>
    <g id="text_11">
     <!-- -8: 4/4 -->
     <g transform="translate(108.16 124.265625)scale(0.2 -0.2)">
      <use xlink:href="#DejaVuSans-2d"/>
      <use xlink:href="#DejaVuSans-38" x="36.083984"/>
      <use xlink:href="#DejaVuSans-3a" x="99.707031"/>
      <use xlink:href="#DejaVuSans-20" x="133.398438"/>
      <use xlink:href="#DejaVuSans-34" x="165.185547"/>
      <use xlink:href="#DejaVuSans-2f" x="228.808594"/>
      <use xlink:href="#DejaVuSans-34" x="262.5"/>
     </g>
    </g>
   </g>
  </g>
 </g>
 <defs>
  <clipPath id="pa40007b4d2">
   <rect x="34.16" y="3" width="419.032" height="288.28"/>
  </clipPath>
 </defs>
</svg>
