<?xml version="1.0" encoding="utf-8" standalone="no"?>
<!DOCTYPE svg PUBLIC "-//W3C//DTD SVG 1.1//EN"
  "http://www.w3.org/Graphics/SVG/1.1/DTD/svg11.dtd">
<svg xmlns:xlink="http://www.w3.org/1999/xlink" width="460.8pt" height="345.6pt" viewBox="0 0 460.8 345.6" xmlns="http://www.w3.org/2000/svg" version="1.1">
 <metadata>
  <rdf:RDF xmlns:dc="http://purl.org/dc/elements/1.1/" xmlns:cc="http://creativecommons.org/ns#" xmlns:rdf="http://www.w3.org/1999/02/22-rdf-syntax-ns#">
   <cc:Work>
    <dc:type rdf:resource="http://purl.org/dc/dcmitype/StillImage"/>
    <dc:date>2023-04-03T10:17:46.966523</dc:date>
    <dc:format>image/svg+xml</dc:format>
    <dc:creator>
     <cc:Agent>
      <dc:title>Matplotlib v3.5.2, https://matplotlib.org/</dc:title>
     </cc:Agent>
    </dc:creator>
   </cc:Work>
  </rdf:RDF>
 </metadata>
 <defs>
  <style type="text/css">*{stroke-linejoin: round; stroke-linecap: butt}</style>
 </defs>
 <g id="figure_1">
  <g id="patch_1">
   <path d="M 0 345.6 
L 460.8 345.6 
L 460.8 0 
L 0 0 
z
" style="fill: #ffffff"/>
  </g>
  <g id="axes_1">
   <g id="patch_2">
    <path d="M 34.16 291.28 
L 453.192 291.28 
L 453.192 3 
L 34.16 3 
z
" style="fill: #ffffff"/>
   </g>
   <g id="matplotlib.axis_1">
    <g id="xtick_1">
     <g id="line2d_1">
      <path d="M 133.918035 291.28 
L 133.918035 3 
" clip-path="url(#pad88ee18b6)" style="fill: none; stroke: #b0b0b0; stroke-width: 0.8; stroke-linecap: square"/>
     </g>
     <g id="line2d_2">
      <defs>
       <path id="m4cc34a53d8" d="M 0 0 
L 0 3.5 
" style="stroke: #000000; stroke-width: 0.8"/>
      </defs>
      <g>
       <use xlink:href="#m4cc34a53d8" x="133.918035" y="291.28" style="stroke: #000000; stroke-width: 0.8"/>
      </g>
     </g>
     <g id="text_1">
      <!-- -2 -->
      <g transform="translate(123.947722 313.476875)scale(0.2 -0.2)">
       <defs>
        <path id="DejaVuSans-2d" d="M 313 2009 
L 1997 2009 
L 1997 1497 
L 313 1497 
L 313 2009 
z
" transform="scale(0.015625)"/>
        <path id="DejaVuSans-32" d="M 1228 531 
L 3431 531 
L 3431 0 
L 469 0 
L 469 531 
Q 828 903 1448 1529 
Q 2069 2156 2228 2338 
Q 2531 2678 2651 2914 
Q 2772 3150 2772 3378 
Q 2772 3750 2511 3984 
Q 2250 4219 1831 4219 
Q 1534 4219 1204 4116 
Q 875 4013 500 3803 
L 500 4441 
Q 881 4594 1212 4672 
Q 1544 4750 1819 4750 
Q 2544 4750 2975 4387 
Q 3406 4025 3406 3419 
Q 3406 3131 3298 2873 
Q 3191 2616 2906 2266 
Q 2828 2175 2409 1742 
Q 1991 1309 1228 531 
z
" transform="scale(0.015625)"/>
       </defs>
       <use xlink:href="#DejaVuSans-2d"/>
       <use xlink:href="#DejaVuSans-32" x="36.083984"/>
      </g>
     </g>
    </g>
    <g id="xtick_2">
     <g id="line2d_3">
      <path d="M 243.676 291.28 
L 243.676 3 
" clip-path="url(#pad88ee18b6)" style="fill: none; stroke: #b0b0b0; stroke-width: 0.8; stroke-linecap: square"/>
     </g>
     <g id="line2d_4">
      <g>
       <use xlink:href="#m4cc34a53d8" x="243.676" y="291.28" style="stroke: #000000; stroke-width: 0.8"/>
      </g>
     </g>
     <g id="text_2">
      <!-- 0 -->
      <g transform="translate(237.3135 313.476875)scale(0.2 -0.2)">
       <defs>
        <path id="DejaVuSans-30" d="M 2034 4250 
Q 1547 4250 1301 3770 
Q 1056 3291 1056 2328 
Q 1056 1369 1301 889 
Q 1547 409 2034 409 
Q 2525 409 2770 889 
Q 3016 1369 3016 2328 
Q 3016 3291 2770 3770 
Q 2525 4250 2034 4250 
z
M 2034 4750 
Q 2819 4750 3233 4129 
Q 3647 3509 3647 2328 
Q 3647 1150 3233 529 
Q 2819 -91 2034 -91 
Q 1250 -91 836 529 
Q 422 1150 422 2328 
Q 422 3509 836 4129 
Q 1250 4750 2034 4750 
z
" transform="scale(0.015625)"/>
       </defs>
       <use xlink:href="#DejaVuSans-30"/>
      </g>
     </g>
    </g>
    <g id="xtick_3">
     <g id="line2d_5">
      <path d="M 353.433965 291.28 
L 353.433965 3 
" clip-path="url(#pad88ee18b6)" style="fill: none; stroke: #b0b0b0; stroke-width: 0.8; stroke-linecap: square"/>
     </g>
     <g id="line2d_6">
      <g>
       <use xlink:href="#m4cc34a53d8" x="353.433965" y="291.28" style="stroke: #000000; stroke-width: 0.8"/>
      </g>
     </g>
     <g id="text_3">
      <!-- 2 -->
      <g transform="translate(347.071465 313.476875)scale(0.2 -0.2)">
       <use xlink:href="#DejaVuSans-32"/>
      </g>
     </g>
    </g>
    <g id="text_4">
     <!-- log10 of FEvals ratio -->
     <g transform="translate(141.371312 336.833125)scale(0.2 -0.2)">
      <defs>
       <path id="DejaVuSans-6c" d="M 603 4863 
L 1178 4863 
L 1178 0 
L 603 0 
L 603 4863 
z
" transform="scale(0.015625)"/>
       <path id="DejaVuSans-6f" d="M 1959 3097 
Q 1497 3097 1228 2736 
Q 959 2375 959 1747 
Q 959 1119 1226 758 
Q 1494 397 1959 397 
Q 2419 397 2687 759 
Q 2956 1122 2956 1747 
Q 2956 2369 2687 2733 
Q 2419 3097 1959 3097 
z
M 1959 3584 
Q 2709 3584 3137 3096 
Q 3566 2609 3566 1747 
Q 3566 888 3137 398 
Q 2709 -91 1959 -91 
Q 1206 -91 779 398 
Q 353 888 353 1747 
Q 353 2609 779 3096 
Q 1206 3584 1959 3584 
z
" transform="scale(0.015625)"/>
       <path id="DejaVuSans-67" d="M 2906 1791 
Q 2906 2416 2648 2759 
Q 2391 3103 1925 3103 
Q 1463 3103 1205 2759 
Q 947 2416 947 1791 
Q 947 1169 1205 825 
Q 1463 481 1925 481 
Q 2391 481 2648 825 
Q 2906 1169 2906 1791 
z
M 3481 434 
Q 3481 -459 3084 -895 
Q 2688 -1331 1869 -1331 
Q 1566 -1331 1297 -1286 
Q 1028 -1241 775 -1147 
L 775 -588 
Q 1028 -725 1275 -790 
Q 1522 -856 1778 -856 
Q 2344 -856 2625 -561 
Q 2906 -266 2906 331 
L 2906 616 
Q 2728 306 2450 153 
Q 2172 0 1784 0 
Q 1141 0 747 490 
Q 353 981 353 1791 
Q 353 2603 747 3093 
Q 1141 3584 1784 3584 
Q 2172 3584 2450 3431 
Q 2728 3278 2906 2969 
L 2906 3500 
L 3481 3500 
L 3481 434 
z
" transform="scale(0.015625)"/>
       <path id="DejaVuSans-31" d="M 794 531 
L 1825 531 
L 1825 4091 
L 703 3866 
L 703 4441 
L 1819 4666 
L 2450 4666 
L 2450 531 
L 3481 531 
L 3481 0 
L 794 0 
L 794 531 
z
" transform="scale(0.015625)"/>
       <path id="DejaVuSans-20" transform="scale(0.015625)"/>
       <path id="DejaVuSans-66" d="M 2375 4863 
L 2375 4384 
L 1825 4384 
Q 1516 4384 1395 4259 
Q 1275 4134 1275 3809 
L 1275 3500 
L 2222 3500 
L 2222 3053 
L 1275 3053 
L 1275 0 
L 697 0 
L 697 3053 
L 147 3053 
L 147 3500 
L 697 3500 
L 697 3744 
Q 697 4328 969 4595 
Q 1241 4863 1831 4863 
L 2375 4863 
z
" transform="scale(0.015625)"/>
       <path id="DejaVuSans-46" d="M 628 4666 
L 3309 4666 
L 3309 4134 
L 1259 4134 
L 1259 2759 
L 3109 2759 
L 3109 2228 
L 1259 2228 
L 1259 0 
L 628 0 
L 628 4666 
z
" transform="scale(0.015625)"/>
       <path id="DejaVuSans-45" d="M 628 4666 
L 3578 4666 
L 3578 4134 
L 1259 4134 
L 1259 2753 
L 3481 2753 
L 3481 2222 
L 1259 2222 
L 1259 531 
L 3634 531 
L 3634 0 
L 628 0 
L 628 4666 
z
" transform="scale(0.015625)"/>
       <path id="DejaVuSans-76" d="M 191 3500 
L 800 3500 
L 1894 563 
L 2988 3500 
L 3597 3500 
L 2284 0 
L 1503 0 
L 191 3500 
z
" transform="scale(0.015625)"/>
       <path id="DejaVuSans-61" d="M 2194 1759 
Q 1497 1759 1228 1600 
Q 959 1441 959 1056 
Q 959 750 1161 570 
Q 1363 391 1709 391 
Q 2188 391 2477 730 
Q 2766 1069 2766 1631 
L 2766 1759 
L 2194 1759 
z
M 3341 1997 
L 3341 0 
L 2766 0 
L 2766 531 
Q 2569 213 2275 61 
Q 1981 -91 1556 -91 
Q 1019 -91 701 211 
Q 384 513 384 1019 
Q 384 1609 779 1909 
Q 1175 2209 1959 2209 
L 2766 2209 
L 2766 2266 
Q 2766 2663 2505 2880 
Q 2244 3097 1772 3097 
Q 1472 3097 1187 3025 
Q 903 2953 641 2809 
L 641 3341 
Q 956 3463 1253 3523 
Q 1550 3584 1831 3584 
Q 2591 3584 2966 3190 
Q 3341 2797 3341 1997 
z
" transform="scale(0.015625)"/>
       <path id="DejaVuSans-73" d="M 2834 3397 
L 2834 2853 
Q 2591 2978 2328 3040 
Q 2066 3103 1784 3103 
Q 1356 3103 1142 2972 
Q 928 2841 928 2578 
Q 928 2378 1081 2264 
Q 1234 2150 1697 2047 
L 1894 2003 
Q 2506 1872 2764 1633 
Q 3022 1394 3022 966 
Q 3022 478 2636 193 
Q 2250 -91 1575 -91 
Q 1294 -91 989 -36 
Q 684 19 347 128 
L 347 722 
Q 666 556 975 473 
Q 1284 391 1588 391 
Q 1994 391 2212 530 
Q 2431 669 2431 922 
Q 2431 1156 2273 1281 
Q 2116 1406 1581 1522 
L 1381 1569 
Q 847 1681 609 1914 
Q 372 2147 372 2553 
Q 372 3047 722 3315 
Q 1072 3584 1716 3584 
Q 2034 3584 2315 3537 
Q 2597 3491 2834 3397 
z
" transform="scale(0.015625)"/>
       <path id="DejaVuSans-72" d="M 2631 2963 
Q 2534 3019 2420 3045 
Q 2306 3072 2169 3072 
Q 1681 3072 1420 2755 
Q 1159 2438 1159 1844 
L 1159 0 
L 581 0 
L 581 3500 
L 1159 3500 
L 1159 2956 
Q 1341 3275 1631 3429 
Q 1922 3584 2338 3584 
Q 2397 3584 2469 3576 
Q 2541 3569 2628 3553 
L 2631 2963 
z
" transform="scale(0.015625)"/>
       <path id="DejaVuSans-74" d="M 1172 4494 
L 1172 3500 
L 2356 3500 
L 2356 3053 
L 1172 3053 
L 1172 1153 
Q 1172 725 1289 603 
Q 1406 481 1766 481 
L 2356 481 
L 2356 0 
L 1766 0 
Q 1100 0 847 248 
Q 594 497 594 1153 
L 594 3053 
L 172 3053 
L 172 3500 
L 594 3500 
L 594 4494 
L 1172 4494 
z
" transform="scale(0.015625)"/>
       <path id="DejaVuSans-69" d="M 603 3500 
L 1178 3500 
L 1178 0 
L 603 0 
L 603 3500 
z
M 603 4863 
L 1178 4863 
L 1178 4134 
L 603 4134 
L 603 4863 
z
" transform="scale(0.015625)"/>
      </defs>
      <use xlink:href="#DejaVuSans-6c"/>
      <use xlink:href="#DejaVuSans-6f" x="27.783203"/>
      <use xlink:href="#DejaVuSans-67" x="88.964844"/>
      <use xlink:href="#DejaVuSans-31" x="152.441406"/>
      <use xlink:href="#DejaVuSans-30" x="216.064453"/>
      <use xlink:href="#DejaVuSans-20" x="279.6875"/>
      <use xlink:href="#DejaVuSans-6f" x="311.474609"/>
      <use xlink:href="#DejaVuSans-66" x="372.65625"/>
      <use xlink:href="#DejaVuSans-20" x="407.861328"/>
      <use xlink:href="#DejaVuSans-46" x="439.648438"/>
      <use xlink:href="#DejaVuSans-45" x="497.167969"/>
      <use xlink:href="#DejaVuSans-76" x="560.351562"/>
      <use xlink:href="#DejaVuSans-61" x="619.53125"/>
      <use xlink:href="#DejaVuSans-6c" x="680.810547"/>
      <use xlink:href="#DejaVuSans-73" x="708.59375"/>
      <use xlink:href="#DejaVuSans-20" x="760.693359"/>
      <use xlink:href="#DejaVuSans-72" x="792.480469"/>
      <use xlink:href="#DejaVuSans-61" x="833.59375"/>
      <use xlink:href="#DejaVuSans-74" x="894.873047"/>
      <use xlink:href="#DejaVuSans-69" x="934.082031"/>
      <use xlink:href="#DejaVuSans-6f" x="961.865234"/>
     </g>
    </g>
   </g>
   <g id="matplotlib.axis_2">
    <g id="ytick_1">
     <g id="line2d_7">
      <path d="M 34.16 288.453725 
L 453.192 288.453725 
" clip-path="url(#pad88ee18b6)" style="fill: none; stroke: #b0b0b0; stroke-width: 0.8; stroke-linecap: square"/>
     </g>
     <g id="line2d_8">
      <defs>
       <path id="ma2f79df00e" d="M 0 0 
L -3.5 0 
" style="stroke: #000000; stroke-width: 0.8"/>
      </defs>
      <g>
       <use xlink:href="#ma2f79df00e" x="34.16" y="288.453725" style="stroke: #000000; stroke-width: 0.8"/>
      </g>
     </g>
    </g>
    <g id="ytick_2">
     <g id="line2d_9">
      <path d="M 34.16 217.796863 
L 453.192 217.796863 
" clip-path="url(#pad88ee18b6)" style="fill: none; stroke: #b0b0b0; stroke-width: 0.8; stroke-linecap: square"/>
     </g>
     <g id="line2d_10">
      <g>
       <use xlink:href="#ma2f79df00e" x="34.16" y="217.796863" style="stroke: #000000; stroke-width: 0.8"/>
      </g>
     </g>
    </g>
    <g id="ytick_3">
     <g id="line2d_11">
      <path d="M 34.16 147.14 
L 453.192 147.14 
" clip-path="url(#pad88ee18b6)" style="fill: none; stroke: #b0b0b0; stroke-width: 0.8; stroke-linecap: square"/>
     </g>
     <g id="line2d_12">
      <g>
       <use xlink:href="#ma2f79df00e" x="34.16" y="147.14" style="stroke: #000000; stroke-width: 0.8"/>
      </g>
     </g>
    </g>
    <g id="ytick_4">
     <g id="line2d_13">
      <path d="M 34.16 76.483137 
L 453.192 76.483137 
" clip-path="url(#pad88ee18b6)" style="fill: none; stroke: #b0b0b0; stroke-width: 0.8; stroke-linecap: square"/>
     </g>
     <g id="line2d_14">
      <g>
       <use xlink:href="#ma2f79df00e" x="34.16" y="76.483137" style="stroke: #000000; stroke-width: 0.8"/>
      </g>
     </g>
    </g>
    <g id="ytick_5">
     <g id="line2d_15">
      <path d="M 34.16 5.826275 
L 453.192 5.826275 
" clip-path="url(#pad88ee18b6)" style="fill: none; stroke: #b0b0b0; stroke-width: 0.8; stroke-linecap: square"/>
     </g>
     <g id="line2d_16">
      <g>
       <use xlink:href="#ma2f79df00e" x="34.16" y="5.826275" style="stroke: #000000; stroke-width: 0.8"/>
      </g>
     </g>
    </g>
    <g id="text_5">
     <!-- proportion of trials -->
     <g transform="translate(19.000625 240.14625)rotate(-90)scale(0.2 -0.2)">
      <defs>
       <path id="DejaVuSans-70" d="M 1159 525 
L 1159 -1331 
L 581 -1331 
L 581 3500 
L 1159 3500 
L 1159 2969 
Q 1341 3281 1617 3432 
Q 1894 3584 2278 3584 
Q 2916 3584 3314 3078 
Q 3713 2572 3713 1747 
Q 3713 922 3314 415 
Q 2916 -91 2278 -91 
Q 1894 -91 1617 61 
Q 1341 213 1159 525 
z
M 3116 1747 
Q 3116 2381 2855 2742 
Q 2594 3103 2138 3103 
Q 1681 3103 1420 2742 
Q 1159 2381 1159 1747 
Q 1159 1113 1420 752 
Q 1681 391 2138 391 
Q 2594 391 2855 752 
Q 3116 1113 3116 1747 
z
" transform="scale(0.015625)"/>
       <path id="DejaVuSans-6e" d="M 3513 2113 
L 3513 0 
L 2938 0 
L 2938 2094 
Q 2938 2591 2744 2837 
Q 2550 3084 2163 3084 
Q 1697 3084 1428 2787 
Q 1159 2491 1159 1978 
L 1159 0 
L 581 0 
L 581 3500 
L 1159 3500 
L 1159 2956 
Q 1366 3272 1645 3428 
Q 1925 3584 2291 3584 
Q 2894 3584 3203 3211 
Q 3513 2838 3513 2113 
z
" transform="scale(0.015625)"/>
      </defs>
      <use xlink:href="#DejaVuSans-70"/>
      <use xlink:href="#DejaVuSans-72" x="63.476562"/>
      <use xlink:href="#DejaVuSans-6f" x="102.339844"/>
      <use xlink:href="#DejaVuSans-70" x="163.521484"/>
      <use xlink:href="#DejaVuSans-6f" x="226.998047"/>
      <use xlink:href="#DejaVuSans-72" x="288.179688"/>
      <use xlink:href="#DejaVuSans-74" x="329.292969"/>
      <use xlink:href="#DejaVuSans-69" x="368.501953"/>
      <use xlink:href="#DejaVuSans-6f" x="396.285156"/>
      <use xlink:href="#DejaVuSans-6e" x="457.466797"/>
      <use xlink:href="#DejaVuSans-20" x="520.845703"/>
      <use xlink:href="#DejaVuSans-6f" x="552.632812"/>
      <use xlink:href="#DejaVuSans-66" x="613.814453"/>
      <use xlink:href="#DejaVuSans-20" x="649.019531"/>
      <use xlink:href="#DejaVuSans-74" x="680.806641"/>
      <use xlink:href="#DejaVuSans-72" x="720.015625"/>
      <use xlink:href="#DejaVuSans-69" x="761.128906"/>
      <use xlink:href="#DejaVuSans-61" x="788.912109"/>
      <use xlink:href="#DejaVuSans-6c" x="850.191406"/>
      <use xlink:href="#DejaVuSans-73" x="877.974609"/>
     </g>
    </g>
   </g>
   <g id="line2d_17">
    <path d="M 34.16 288.453725 
L 144.014534 288.453725 
L 144.014534 288.283979 
L 144.465999 288.283979 
L 144.465999 288.114233 
L 156.454055 288.114233 
L 156.454055 287.944487 
L 156.90552 287.944487 
L 156.90552 287.774741 
L 160.158808 287.774741 
L 160.221118 287.435248 
L 161.039831 287.435248 
L 161.102141 287.095756 
L 161.315712 287.095756 
L 161.315712 286.92601 
L 162.196735 286.92601 
L 162.196735 286.756263 
L 163.609561 286.756263 
L 163.609561 286.586517 
L 164.461388 286.586517 
L 164.461388 286.416771 
L 167.353718 286.416771 
L 167.353718 286.247025 
L 170.357203 286.247025 
L 170.357203 286.077278 
L 171.238226 286.077278 
L 171.238226 285.907532 
L 176.049082 285.907532 
L 176.049082 285.737786 
L 176.900909 285.737786 
L 176.900909 285.56804 
L 178.375971 285.56804 
L 178.438281 285.228547 
L 178.916106 285.228547 
L 178.916106 285.058801 
L 179.36757 285.058801 
L 179.36757 284.889055 
L 179.532876 284.889055 
L 179.532876 284.719309 
L 179.793239 284.719309 
L 179.793239 284.549563 
L 180.777659 284.549563 
L 180.777659 284.21007 
L 180.929666 284.21007 
L 180.991976 283.870578 
L 182.08657 283.870578 
L 182.08657 283.700831 
L 184.451631 283.700831 
L 184.451631 283.361339 
L 188.574366 283.361339 
L 188.574366 283.191593 
L 191.128061 283.191593 
L 191.128061 283.021847 
L 191.308142 283.021847 
L 191.308142 282.342862 
L 194.11534 282.342862 
L 194.11534 281.663877 
L 197.297879 281.663877 
L 197.297879 281.324384 
L 198.511132 281.324384 
L 198.511132 281.154638 
L 199.36296 281.154638 
L 199.36296 280.984892 
L 199.999071 280.984892 
L 199.999071 280.815146 
L 200.539248 280.815146 
L 200.539248 280.6454 
L 202.25529 280.6454 
L 202.25529 280.475653 
L 206.204631 280.475653 
L 206.204631 280.305907 
L 206.961588 280.305907 
L 206.961588 280.136161 
L 207.634464 280.136161 
L 207.634464 279.966415 
L 207.817057 279.966415 
L 207.817057 279.796668 
L 208.538736 279.796668 
L 208.538736 279.626922 
L 208.973561 279.626922 
L 208.973561 279.457176 
L 210.565012 279.457176 
L 210.63556 278.099206 
L 210.725805 278.099206 
L 210.725805 277.92946 
L 211.470667 277.92946 
L 211.470667 277.759714 
L 211.623625 277.759714 
L 211.623625 277.589968 
L 213.014754 277.589968 
L 213.037986 277.080729 
L 213.161389 277.080729 
L 213.161389 276.910983 
L 213.380147 276.910983 
L 213.380147 276.741237 
L 213.682841 276.741237 
L 213.736434 276.401744 
L 213.883068 276.401744 
L 213.909847 276.062252 
L 214.501903 276.062252 
L 214.501903 275.892505 
L 214.795862 275.892505 
L 214.795862 275.722759 
L 214.96418 275.722759 
L 214.971413 275.213521 
L 215.153021 275.213521 
L 215.222354 274.874028 
L 215.429497 274.874028 
L 215.515864 274.364789 
L 215.560466 274.364789 
L 215.606086 274.025297 
L 215.692451 274.025297 
L 215.762531 273.685805 
L 215.923502 273.685805 
L 215.923502 273.516058 
L 216.070137 273.516058 
L 216.070137 273.346312 
L 216.611572 273.346312 
L 216.668364 272.837074 
L 216.814999 272.837074 
L 216.896368 272.497581 
L 216.926946 272.497581 
L 216.927194 272.158089 
L 217.14497 272.158089 
L 217.196173 271.818596 
L 217.284806 271.818596 
L 217.284806 271.64885 
L 217.467124 271.64885 
L 217.492071 271.139611 
L 217.592768 271.139611 
L 217.685148 270.800119 
L 217.824983 270.800119 
L 217.87952 270.460627 
L 218.218083 270.460627 
L 218.276385 269.951388 
L 218.36955 269.951388 
L 218.3864 269.611895 
L 218.624382 269.611895 
L 218.72378 269.102657 
L 218.976588 269.102657 
L 218.982686 268.763164 
L 219.225839 268.763164 
L 219.249029 268.423672 
L 219.710754 268.423672 
L 219.786698 267.914433 
L 220.170089 267.914433 
L 220.178933 267.574941 
L 220.299269 267.574941 
L 220.299269 267.235448 
L 220.777503 267.235448 
L 220.777503 267.065702 
L 220.889403 267.065702 
L 220.889403 266.895956 
L 221.052054 266.895956 
L 221.052054 266.72621 
L 221.206932 266.72621 
L 221.206932 266.556464 
L 221.426522 266.556464 
L 221.426522 266.386717 
L 221.7103 266.386717 
L 221.741126 265.877479 
L 222.076042 265.877479 
L 222.076042 265.707732 
L 222.82479 265.707732 
L 222.82479 265.537986 
L 223.481808 265.537986 
L 223.551891 265.028748 
L 223.675728 265.028748 
L 223.764024 264.689255 
L 223.79485 264.689255 
L 223.79485 264.519509 
L 224.005646 264.519509 
L 224.063145 264.01027 
L 224.229928 264.01027 
L 224.334721 263.670778 
L 224.578208 263.670778 
L 224.628646 263.331285 
L 225.158901 263.331285 
L 225.248071 262.991793 
L 225.327916 262.991793 
L 225.327916 262.652301 
L 226.093495 262.652301 
L 226.16669 262.143062 
L 226.662249 262.143062 
L 226.693075 261.803569 
L 227.044667 261.803569 
L 227.061762 261.464077 
L 227.15578 261.464077 
L 227.160476 260.106107 
L 227.27653 260.106107 
L 227.348766 259.596869 
L 227.478246 259.596869 
L 227.554758 259.08763 
L 227.66999 259.08763 
L 227.768054 258.408645 
L 227.85682 258.408645 
L 227.85682 258.238899 
L 228.010329 258.238899 
L 228.010329 258.069153 
L 228.175152 258.069153 
L 228.270283 257.390168 
L 228.352489 257.390168 
L 228.397396 257.050675 
L 228.60343 257.050675 
L 228.60343 256.880929 
L 228.763151 256.880929 
L 228.763151 256.711183 
L 228.99172 256.711183 
L 229.019355 256.371691 
L 229.190216 256.371691 
L 229.240579 256.032198 
L 229.513879 256.032198 
L 229.513879 255.862452 
L 229.694911 255.862452 
L 229.694911 255.692706 
L 229.838416 255.692706 
L 229.879023 255.183467 
L 229.965862 255.183467 
L 230.037072 254.674228 
L 230.183886 254.674228 
L 230.183886 254.504482 
L 230.308023 254.504482 
L 230.338319 253.825497 
L 230.443984 253.825497 
L 230.526047 253.316259 
L 230.566394 253.316259 
L 230.665882 252.637274 
L 230.69009 252.637274 
L 230.69009 252.467528 
L 230.825713 252.467528 
L 230.9068 251.788543 
L 230.942599 251.788543 
L 230.942599 251.618796 
L 231.272548 251.618796 
L 231.315307 251.279304 
L 231.43143 251.279304 
L 231.501166 250.770065 
L 231.67815 250.770065 
L 231.768372 250.260827 
L 231.820544 250.260827 
L 231.820544 250.09108 
L 231.984593 250.09108 
L 232.09161 249.412096 
L 232.178029 249.412096 
L 232.178029 249.242349 
L 232.365167 249.242349 
L 232.407498 248.902857 
L 232.60349 248.902857 
L 232.60349 248.733111 
L 232.717962 248.733111 
L 232.773901 248.223872 
L 232.874678 248.223872 
L 232.874678 248.054126 
L 233.105571 248.054126 
L 233.195793 247.375141 
L 233.304371 247.375141 
L 233.374532 247.035649 
L 233.491575 247.035649 
L 233.525441 246.696156 
L 233.759096 246.696156 
L 233.759096 246.52641 
L 233.917903 246.52641 
L 234.012291 245.677679 
L 234.039663 245.677679 
L 234.147326 245.16844 
L 234.188232 245.16844 
L 234.299274 244.489455 
L 234.363101 244.489455 
L 234.458081 243.980217 
L 234.57984 243.980217 
L 234.57984 243.81047 
L 235.075113 243.81047 
L 235.18364 243.470978 
L 235.270567 243.470978 
L 235.369832 242.622247 
L 235.42727 242.622247 
L 235.42727 242.452501 
L 235.543418 242.452501 
L 235.603223 242.113008 
L 235.715418 242.113008 
L 235.781753 241.60377 
L 235.884717 241.60377 
L 235.884717 241.434023 
L 236.037988 241.434023 
L 236.037988 241.094531 
L 236.31129 241.094531 
L 236.412067 240.755039 
L 236.656375 240.755039 
L 236.727997 240.2458 
L 236.788796 240.2458 
L 236.819489 239.227323 
L 236.970694 239.227323 
L 237.066001 238.208845 
L 237.134675 238.208845 
L 237.134675 238.039099 
L 237.404268 238.039099 
L 237.504904 237.190368 
L 237.598423 237.190368 
L 237.703682 236.171891 
L 237.817687 236.171891 
L 237.859599 235.832398 
L 237.957102 235.832398 
L 238.020744 234.813921 
L 238.120166 234.813921 
L 238.221872 233.625697 
L 238.264953 233.625697 
L 238.31317 232.437474 
L 238.419158 232.437474 
L 238.4917 232.097982 
L 238.559944 232.097982 
L 238.640505 231.588743 
L 238.671506 231.588743 
L 238.695953 230.909758 
L 238.827529 230.909758 
L 238.91422 229.721534 
L 239.005235 229.721534 
L 239.080807 229.04255 
L 239.139178 229.04255 
L 239.24757 228.363565 
L 239.307796 228.363565 
L 239.356835 228.024072 
L 239.422106 228.024072 
L 239.459097 227.345087 
L 239.587838 227.345087 
L 239.587838 227.175341 
L 239.712552 227.175341 
L 239.712552 227.005595 
L 239.832137 227.005595 
L 239.937163 226.32661 
L 239.984209 226.32661 
L 240.047861 225.477879 
L 240.125971 225.477879 
L 240.197387 224.798894 
L 240.238007 224.798894 
L 240.329027 224.119909 
L 240.402288 224.119909 
L 240.479042 223.271178 
L 240.54978 223.271178 
L 240.581679 222.76194 
L 240.692907 222.76194 
L 240.793259 221.40397 
L 240.836917 221.40397 
L 240.941657 220.555239 
L 240.948789 220.555239 
L 240.960294 220.046 
L 241.106203 220.046 
L 241.207494 218.68803 
L 241.224111 218.68803 
L 241.323096 217.499807 
L 241.350641 217.499807 
L 241.454853 215.12336 
L 241.481525 215.12336 
L 241.558132 214.104883 
L 241.599102 214.104883 
L 241.700485 212.746913 
L 241.751163 212.746913 
L 241.827249 212.067928 
L 241.896122 212.067928 
L 242.000625 210.709958 
L 242.015274 210.709958 
L 242.125691 209.521735 
L 242.137812 209.521735 
L 242.248872 208.333511 
L 242.255653 208.333511 
L 242.341453 207.654526 
L 242.381548 207.654526 
L 242.459438 206.636049 
L 242.493924 206.636049 
L 242.54085 205.787318 
L 242.626514 205.787318 
L 242.73596 204.089856 
L 242.762404 204.089856 
L 242.851224 203.241125 
L 243.078784 203.241125 
L 243.182021 202.222647 
L 243.195882 202.222647 
L 243.294654 200.864678 
L 243.334293 200.864678 
L 243.423128 198.827723 
L 243.45834 198.827723 
L 243.562776 197.639499 
L 243.598528 197.639499 
L 243.681543 182.022848 
L 243.713038 182.022848 
L 243.789765 180.495132 
L 243.838095 180.495132 
L 243.945716 178.288431 
L 243.951536 178.288431 
L 244.060422 177.609446 
L 244.07371 177.609446 
L 244.150223 176.251476 
L 244.199947 176.251476 
L 244.287876 174.214522 
L 244.32209 174.214522 
L 244.42243 172.347313 
L 244.436713 172.347313 
L 244.537079 170.989343 
L 244.549391 170.989343 
L 244.616924 169.970866 
L 244.663212 169.970866 
L 244.75309 168.782643 
L 244.793717 168.782643 
L 244.890974 167.764165 
L 244.933702 167.764165 
L 245.039255 167.08518 
L 245.051399 167.08518 
L 245.156613 165.727211 
L 245.186097 165.727211 
L 245.289527 164.708733 
L 245.329128 164.708733 
L 245.435936 163.350764 
L 245.442263 163.350764 
L 245.492776 162.502033 
L 245.559007 162.502033 
L 245.652846 161.823048 
L 245.671172 161.823048 
L 245.775005 160.974317 
L 245.78568 160.974317 
L 245.880192 159.955839 
L 245.896801 159.955839 
L 246.00308 158.088631 
L 246.026603 158.088631 
L 246.109251 157.579392 
L 246.142712 157.579392 
L 246.246634 156.730661 
L 246.281388 156.730661 
L 246.385946 155.88193 
L 246.395961 155.88193 
L 246.484458 155.033199 
L 246.507666 155.033199 
L 246.615147 154.014722 
L 246.620219 154.014722 
L 246.729013 153.165991 
L 246.79716 153.165991 
L 246.897981 151.808021 
L 246.943009 151.808021 
L 247.02625 149.771066 
L 247.057062 149.771066 
L 247.157057 147.055127 
L 247.174376 147.055127 
L 247.253497 146.03665 
L 247.29898 146.03665 
L 247.393032 144.67868 
L 247.420739 144.67868 
L 247.529767 142.471979 
L 247.547606 142.471979 
L 247.632315 141.114009 
L 247.664688 141.114009 
L 247.770873 140.435024 
L 247.778746 140.435024 
L 247.885582 139.246801 
L 247.899475 139.246801 
L 247.987841 138.228324 
L 248.052159 138.228324 
L 248.160012 136.870354 
L 248.170542 136.870354 
L 248.279796 135.342638 
L 248.330918 135.342638 
L 248.433506 134.833399 
L 248.446399 134.833399 
L 248.538714 133.305683 
L 248.562735 133.305683 
L 248.671066 131.947714 
L 248.676993 131.947714 
L 248.731115 131.438475 
L 248.802887 131.438475 
L 248.913049 130.080505 
L 248.944486 130.080505 
L 248.994323 128.892282 
L 249.062322 128.892282 
L 249.166312 128.043551 
L 249.180804 128.043551 
L 249.254895 127.19482 
L 249.295432 127.19482 
L 249.405258 126.176342 
L 249.410251 126.176342 
L 249.489015 125.497357 
L 249.522305 125.497357 
L 249.62618 124.988119 
L 249.634728 124.988119 
L 249.703431 124.47888 
L 249.755036 124.47888 
L 249.851757 123.460403 
L 249.871282 123.460403 
L 249.97432 122.272179 
L 250.003793 122.272179 
L 250.080668 120.744463 
L 250.164645 120.744463 
L 250.243113 120.235225 
L 250.277603 120.235225 
L 250.387751 118.19827 
L 250.414229 118.19827 
L 250.520153 117.010047 
L 250.532511 117.010047 
L 250.630794 115.652077 
L 250.667546 115.652077 
L 250.734126 115.312584 
L 250.779828 115.312584 
L 250.854477 114.803346 
L 250.89157 114.803346 
L 250.970127 113.615122 
L 251.012629 113.615122 
L 251.12254 111.91766 
L 251.128383 111.91766 
L 251.21547 111.068929 
L 251.283239 111.068929 
L 251.386494 110.050452 
L 251.403773 110.050452 
L 251.508089 108.522736 
L 251.534072 108.522736 
L 251.616876 107.674005 
L 251.663566 107.674005 
L 251.754975 106.316035 
L 251.776752 106.316035 
L 251.862222 105.127811 
L 251.915032 105.127811 
L 252.025946 104.618573 
L 252.046195 104.618573 
L 252.151276 103.769842 
L 252.222848 103.769842 
L 252.28986 102.751364 
L 252.366772 102.751364 
L 252.457778 101.732887 
L 252.509489 101.732887 
L 252.610603 100.544663 
L 252.626567 100.544663 
L 252.672281 99.695932 
L 252.773347 99.695932 
L 252.825613 99.35644 
L 252.889959 99.35644 
L 252.995573 98.168216 
L 253.016572 98.168216 
L 253.123485 96.979993 
L 253.136304 96.979993 
L 253.23816 95.791769 
L 253.255823 95.791769 
L 253.354278 93.924561 
L 253.380416 93.924561 
L 253.441781 93.585069 
L 253.491697 93.585069 
L 253.566159 92.396845 
L 253.604825 92.396845 
L 253.682645 91.71786 
L 253.716724 91.71786 
L 253.81984 90.699383 
L 253.855003 90.699383 
L 253.959839 90.020398 
L 253.969064 90.020398 
L 254.077784 89.001921 
L 254.10253 89.001921 
L 254.212834 87.304459 
L 254.227234 87.304459 
L 254.32533 85.946489 
L 254.400377 85.946489 
L 254.499927 85.097758 
L 254.540664 85.097758 
L 254.644847 83.739788 
L 254.658342 83.739788 
L 254.746931 82.891057 
L 254.779084 82.891057 
L 254.852953 82.042326 
L 254.915264 82.042326 
L 255.002986 81.363341 
L 255.048673 81.363341 
L 255.145315 80.005371 
L 255.218517 80.005371 
L 255.321829 78.817148 
L 255.377694 78.817148 
L 255.475493 77.79867 
L 255.527655 77.79867 
L 255.621202 76.440701 
L 255.649728 76.440701 
L 255.750065 75.761716 
L 255.808686 75.761716 
L 255.897274 74.912985 
L 255.953625 74.912985 
L 256.061213 73.555015 
L 256.082906 73.555015 
L 256.146908 72.706284 
L 256.235699 72.706284 
L 256.235699 72.536538 
L 256.377186 72.536538 
L 256.377186 72.366791 
L 256.490449 72.366791 
L 256.599264 71.008822 
L 256.632335 71.008822 
L 256.705661 69.820598 
L 256.780816 69.820598 
L 256.891769 68.971867 
L 256.892135 68.971867 
L 256.986295 67.95339 
L 257.011555 67.95339 
L 257.101527 66.934913 
L 257.133338 66.934913 
L 257.229434 65.746689 
L 257.247346 65.746689 
L 257.32526 65.23745 
L 257.413517 65.23745 
L 257.467393 64.049227 
L 257.532289 64.049227 
L 257.62221 62.521511 
L 257.661333 62.521511 
L 257.768909 61.333287 
L 257.788833 61.333287 
L 257.891763 60.484556 
L 257.914888 60.484556 
L 257.989397 60.145064 
L 258.067969 60.145064 
L 258.168712 59.126587 
L 258.184259 59.126587 
L 258.286472 57.938363 
L 258.301941 57.938363 
L 258.402756 56.919886 
L 258.444389 56.919886 
L 258.529845 56.071155 
L 258.559106 56.071155 
L 258.66485 54.882931 
L 258.673904 54.882931 
L 258.73105 54.543439 
L 258.790715 54.543439 
L 258.885237 53.694708 
L 258.906616 53.694708 
L 258.987121 52.845977 
L 259.034542 52.845977 
L 259.105565 52.336738 
L 259.151042 52.336738 
L 259.259992 51.148514 
L 259.337022 51.148514 
L 259.421074 50.130037 
L 259.45917 50.130037 
L 259.497551 49.451052 
L 259.618583 49.451052 
L 259.728805 48.941814 
L 259.780214 48.941814 
L 259.874342 48.093082 
L 259.921079 48.093082 
L 260.01136 47.244351 
L 260.037274 47.244351 
L 260.129846 46.225874 
L 260.152049 46.225874 
L 260.25373 44.867904 
L 260.268886 44.867904 
L 260.339186 44.18892 
L 260.429885 44.18892 
L 260.526601 43.679681 
L 260.547582 43.679681 
L 260.645706 43.000696 
L 260.789572 43.000696 
L 260.868392 42.491457 
L 260.993782 42.491457 
L 261.036556 41.982219 
L 261.120006 41.982219 
L 261.195363 41.642726 
L 261.317123 41.642726 
L 261.41613 41.133488 
L 261.473881 41.133488 
L 261.520856 40.624249 
L 261.600256 40.624249 
L 261.70179 39.605772 
L 261.84301 39.605772 
L 261.882129 38.757041 
L 261.987753 38.757041 
L 261.987753 38.587294 
L 262.104214 38.587294 
L 262.204371 38.078056 
L 262.21565 38.078056 
L 262.236649 37.399071 
L 262.329914 37.399071 
L 262.329914 37.229325 
L 262.455047 37.229325 
L 262.563441 36.889832 
L 262.632568 36.889832 
L 262.727918 36.041101 
L 262.770696 36.041101 
L 262.770696 35.871355 
L 263.060268 35.871355 
L 263.060268 35.701609 
L 263.171855 35.701609 
L 263.259196 35.362116 
L 263.298968 35.362116 
L 263.298968 35.19237 
L 263.437567 35.19237 
L 263.437567 35.022624 
L 263.720004 35.022624 
L 263.823604 34.513385 
L 263.972025 34.513385 
L 264.001975 34.173893 
L 264.121917 34.173893 
L 264.230867 33.664654 
L 264.363319 33.664654 
L 264.466604 33.155415 
L 264.487688 33.155415 
L 264.589458 32.646177 
L 264.73321 32.646177 
L 264.779571 32.306684 
L 265.029062 32.306684 
L 265.051348 31.967192 
L 265.340306 31.967192 
L 265.340306 31.797446 
L 265.497476 31.797446 
L 265.585037 31.118461 
L 265.676711 31.118461 
L 265.676711 30.948715 
L 266.114021 30.948715 
L 266.195793 30.439476 
L 266.29165 30.439476 
L 266.402232 30.099984 
L 266.487777 30.099984 
L 266.487777 29.930237 
L 266.702823 29.930237 
L 266.760201 29.590745 
L 267.187766 29.590745 
L 267.187766 29.420999 
L 267.388895 29.420999 
L 267.388895 29.251252 
L 267.516822 29.251252 
L 267.618231 28.742014 
L 267.698793 28.742014 
L 267.698793 28.572268 
L 268.12275 28.572268 
L 268.12275 28.402521 
L 268.342796 28.402521 
L 268.449243 28.063029 
L 268.477368 28.063029 
L 268.477368 27.893283 
L 268.907205 27.893283 
L 268.907205 27.723536 
L 269.102059 27.723536 
L 269.102059 27.55379 
L 269.323129 27.55379 
L 269.323129 27.384044 
L 269.581761 27.384044 
L 269.581761 27.214298 
L 269.716069 27.214298 
L 269.716069 27.044552 
L 269.859929 27.044552 
L 269.949027 26.026074 
L 270.06277 26.026074 
L 270.06277 25.856328 
L 270.263899 25.856328 
L 270.263899 25.686582 
L 270.981328 25.686582 
L 270.997542 25.347089 
L 271.198671 25.347089 
L 271.198671 25.177343 
L 271.986632 25.177343 
L 271.986632 25.007597 
L 273.003982 25.007597 
L 273.003982 24.837851 
L 273.575898 24.837851 
L 273.575898 24.668105 
L 275.534364 24.668105 
L 275.534364 24.328612 
L 275.735493 24.328612 
L 275.735493 23.98912 
L 276.087257 23.98912 
L 276.087257 23.819373 
L 276.226297 23.819373 
L 276.226297 23.649627 
L 276.383097 23.649627 
L 276.383097 23.479881 
L 276.71644 23.479881 
L 276.71644 22.970642 
L 280.08238 22.970642 
L 280.189283 22.63115 
L 280.294543 22.63115 
L 280.390412 22.291658 
L 280.685176 22.291658 
L 280.685176 22.121911 
L 281.002358 22.121911 
L 281.002358 21.952165 
L 281.254568 21.952165 
L 281.254568 21.782419 
L 281.521128 21.782419 
L 281.521128 21.612673 
L 281.634188 21.612673 
L 281.634188 21.442926 
L 281.82609 21.442926 
L 281.835317 21.103434 
L 282.05144 21.103434 
L 282.135967 20.763942 
L 282.337096 20.763942 
L 282.375386 20.424449 
L 282.460096 20.424449 
L 282.460096 20.254703 
L 282.695669 20.254703 
L 282.695669 20.084957 
L 283.036794 20.084957 
L 283.036794 19.915211 
L 283.707986 19.915211 
L 283.707986 19.745464 
L 283.909115 19.745464 
L 283.909115 19.575718 
L 284.802101 19.575718 
L 284.802101 19.405972 
L 285.80148 19.405972 
L 285.80148 19.236226 
L 286.380149 19.236226 
L 286.380149 18.896733 
L 288.490699 18.896733 
L 288.490699 18.726987 
L 288.691828 18.726987 
L 288.691828 18.557241 
L 289.913785 18.557241 
L 289.913785 18.387495 
L 291.698472 18.387495 
L 291.698472 18.217748 
L 292.290802 18.217748 
L 292.290802 18.048002 
L 293.23666 18.048002 
L 293.23666 17.70851 
L 295.199261 17.70851 
L 295.199261 17.538763 
L 295.332778 17.538763 
L 295.332778 17.369017 
L 295.977816 17.369017 
L 296.038771 16.859779 
L 296.315018 16.859779 
L 296.407816 16.520286 
L 297.894405 16.520286 
L 297.894405 16.35054 
L 298.154408 16.35054 
L 298.154408 16.180794 
L 298.276815 16.180794 
L 298.343952 15.841301 
L 298.394429 15.841301 
L 298.394429 15.671555 
L 298.699558 15.671555 
L 298.699558 15.501809 
L 299.060551 15.501809 
L 299.060551 15.332063 
L 299.336484 15.332063 
L 299.336484 15.162316 
L 302.958183 15.162316 
L 302.958183 14.99257 
L 304.761207 14.99257 
L 304.761207 14.822824 
L 307.328281 14.822824 
L 307.328281 14.653078 
L 308.287361 14.653078 
L 308.287361 14.483332 
L 311.979437 14.483332 
L 311.979437 14.313585 
L 312.10655 14.313585 
L 312.10655 14.143839 
L 312.747274 14.143839 
L 312.747274 13.974093 
L 312.949732 13.974093 
L 312.949732 13.804347 
L 317.882401 13.804347 
L 317.882401 13.6346 
L 320.372678 13.6346 
L 320.372678 13.464854 
L 322.175703 13.464854 
L 322.175703 13.295108 
L 322.38348 13.295108 
L 322.38348 13.125362 
L 324.338337 13.125362 
L 324.338337 12.955616 
L 325.190679 12.955616 
L 325.190679 12.785869 
L 325.520413 12.785869 
L 325.520413 12.616123 
L 325.701857 12.616123 
L 325.701857 12.446377 
L 329.393932 12.446377 
L 329.393932 12.276631 
L 329.521045 12.276631 
L 329.521045 12.106885 
L 330.364228 12.106885 
L 330.364228 11.937138 
L 331.194848 11.937138 
L 331.194848 11.767392 
L 331.395977 11.767392 
L 331.395977 11.597646 
L 339.797976 11.597646 
L 339.797976 11.4279 
L 341.540492 11.4279 
L 341.540492 11.258153 
L 342.421515 11.258153 
L 342.421515 11.088407 
L 342.605175 11.088407 
L 342.605175 10.918661 
L 357.378777 10.918661 
L 357.378777 10.748915 
L 357.579906 10.748915 
L 357.579906 10.579169 
L 359.757656 10.579169 
L 359.757656 10.409422 
L 362.31135 10.409422 
L 362.31135 10.239676 
L 418.357666 10.239676 
L 418.357666 10.06993 
L 422.684219 10.06993 
L 422.684219 9.900184 
L 424.563705 9.900184 
L 424.563705 9.730437 
L 426.471414 9.730437 
L 426.471414 9.560691 
L 426.737715 9.560691 
L 426.737715 9.390945 
L 431.13672 9.390945 
L 431.13672 9.221199 
L 431.707125 9.221199 
L 431.707125 9.051453 
L 433.953986 9.051453 
L 433.953986 8.881706 
L 435.546609 8.881706 
L 435.546609 8.71196 
L 436.234638 8.71196 
L 436.234638 8.542214 
L 437.886113 8.542214 
L 437.886113 8.372468 
L 453.192 8.372468 
L 453.192 8.372468 
" clip-path="url(#pad88ee18b6)" style="fill: none; stroke: #000000; stroke-width: 3; stroke-linecap: square"/>
   </g>
   <g id="line2d_18">
    <path clip-path="url(#pad88ee18b6)" style="fill: none; stroke: #000000; stroke-width: 3; stroke-linecap: square"/>
   </g>
   <g id="line2d_19">
    <path d="M 34.16 279.24387 
L 131.768377 279.24387 
L 131.768377 279.051998 
L 148.610836 279.051998 
L 148.610836 278.860126 
L 150.645647 278.860126 
L 150.645647 278.668254 
L 161.970589 278.668254 
L 161.970589 278.476382 
L 163.684599 278.476382 
L 163.684599 278.28451 
L 164.0054 278.28451 
L 164.0054 278.092638 
L 179.417362 278.092638 
L 179.417362 277.900766 
L 184.469253 277.900766 
L 184.469253 277.708894 
L 184.927175 277.708894 
L 184.989384 277.32515 
L 186.083777 277.32515 
L 186.083777 277.133278 
L 186.504064 277.133278 
L 186.504064 276.941406 
L 190.281777 276.941406 
L 190.281777 276.749534 
L 191.573941 276.749534 
L 191.573941 276.557662 
L 193.551165 276.557662 
L 193.551165 276.36579 
L 195.869263 276.36579 
L 195.869263 276.173918 
L 196.009012 276.173918 
L 196.088609 275.790174 
L 196.276826 275.790174 
L 196.276826 275.598302 
L 197.165928 275.598302 
L 197.165928 275.40643 
L 199.298225 275.40643 
L 199.298225 275.214558 
L 199.6448 275.214558 
L 199.6448 275.022686 
L 200.010164 275.022686 
L 200.057868 274.638942 
L 200.793096 274.638942 
L 200.793096 274.44707 
L 201.274998 274.44707 
L 201.333036 274.063326 
L 202.167386 274.063326 
L 202.266291 273.679582 
L 202.744836 273.679582 
L 202.744836 273.48771 
L 202.871267 273.48771 
L 202.926646 273.103966 
L 203.582164 273.103966 
L 203.582164 272.912094 
L 203.989727 272.912094 
L 203.989727 272.720222 
L 204.358011 272.720222 
L 204.358011 272.52835 
L 204.765574 272.52835 
L 204.765574 272.336478 
L 205.568444 272.336478 
L 205.568444 272.144606 
L 205.68026 272.144606 
L 205.68026 271.952734 
L 205.859581 271.952734 
L 205.859581 271.760862 
L 206.331162 271.760862 
L 206.408996 271.377118 
L 206.777078 271.377118 
L 206.777078 271.185246 
L 207.413763 271.185246 
L 207.413763 270.993374 
L 208.312208 270.993374 
L 208.312208 270.801502 
L 208.686282 270.801502 
L 208.686282 270.60963 
L 209.511219 270.60963 
L 209.511219 270.417758 
L 210.100485 270.417758 
L 210.100485 270.225886 
L 210.477991 270.225886 
L 210.477991 270.034014 
L 210.701253 270.034014 
L 210.807739 269.65027 
L 211.41935 269.65027 
L 211.41935 269.458398 
L 211.992503 269.458398 
L 211.992503 269.266526 
L 212.545775 269.266526 
L 212.545775 269.074654 
L 213.315434 269.074654 
L 213.315434 268.882782 
L 213.561318 268.882782 
L 213.561318 268.69091 
L 213.972179 268.69091 
L 214.028957 268.307166 
L 216.061115 268.307166 
L 216.061115 268.115294 
L 216.198462 268.115294 
L 216.198462 267.923422 
L 218.458987 267.923422 
L 218.458987 267.73155 
L 218.952832 267.73155 
L 218.952832 267.539678 
L 219.57223 267.539678 
L 219.57223 267.347806 
L 219.765298 267.347806 
L 219.864971 266.964062 
L 220.633203 266.964062 
L 220.633203 266.77219 
L 221.487113 266.77219 
L 221.487113 266.580318 
L 221.75042 266.580318 
L 221.75042 266.388446 
L 222.459612 266.388446 
L 222.459612 266.196574 
L 223.07014 266.196574 
L 223.07014 266.004702 
L 223.255778 266.004702 
L 223.255778 265.81283 
L 223.440549 265.81283 
L 223.490163 265.429086 
L 223.574153 265.429086 
L 223.651969 265.045342 
L 224.431621 265.045342 
L 224.431621 264.85347 
L 224.560955 264.85347 
L 224.564179 264.469726 
L 224.883059 264.469726 
L 224.883059 264.277854 
L 225.015616 264.277854 
L 225.082043 263.702238 
L 225.144252 263.702238 
L 225.215307 263.318494 
L 225.275111 263.318494 
L 225.33732 262.93475 
L 225.657632 262.93475 
L 225.657632 262.742878 
L 225.806905 262.742878 
L 225.806905 262.551006 
L 226.151769 262.551006 
L 226.238645 262.167262 
L 226.329842 262.167262 
L 226.431713 261.783518 
L 226.533176 261.783518 
L 226.533176 261.591646 
L 226.996927 261.591646 
L 227.089479 261.01603 
L 227.222036 261.01603 
L 227.222036 260.824158 
L 227.490522 260.824158 
L 227.490522 260.632286 
L 228.068408 260.632286 
L 228.153528 260.05667 
L 228.216794 260.05667 
L 228.216794 259.864798 
L 228.765591 259.864798 
L 228.8278 259.289182 
L 229.115577 259.289182 
L 229.115577 259.09731 
L 229.26022 259.09731 
L 229.26022 258.905438 
L 229.426954 258.905438 
L 229.463321 258.521694 
L 229.922193 258.521694 
L 230.027723 258.13795 
L 230.239168 258.13795 
L 230.244449 257.754206 
L 230.806357 257.754206 
L 230.806357 257.562334 
L 231.203127 257.562334 
L 231.295031 257.17859 
L 231.317527 257.17859 
L 231.317527 256.986718 
L 231.83773 256.986718 
L 231.863266 256.602974 
L 232.057023 256.602974 
L 232.057023 256.411102 
L 232.179012 256.411102 
L 232.195918 256.027358 
L 232.359163 256.027358 
L 232.438499 255.643614 
L 232.594895 255.643614 
L 232.674492 255.067998 
L 232.747711 255.067998 
L 232.747711 254.876126 
L 233.246413 254.876126 
L 233.326873 254.30051 
L 233.362833 254.30051 
L 233.409524 253.916766 
L 233.475458 253.916766 
L 233.514041 253.34115 
L 233.588845 253.34115 
L 233.620496 252.957406 
L 233.751811 252.957406 
L 233.751811 252.765534 
L 234.129049 252.765534 
L 234.129049 252.573662 
L 234.410634 252.573662 
L 234.410634 252.189918 
L 234.537909 252.189918 
L 234.537909 251.998046 
L 234.661058 251.998046 
L 234.731248 251.614302 
L 235.618726 251.614302 
L 235.666972 251.230558 
L 235.883451 251.230558 
L 235.963832 250.846814 
L 236.041472 250.846814 
L 236.041472 250.654942 
L 236.257635 250.654942 
L 236.365501 249.887454 
L 236.415546 249.887454 
L 236.415546 249.695582 
L 236.565569 249.695582 
L 236.643752 248.54435 
L 236.791894 248.54435 
L 236.79948 248.160606 
L 236.945777 248.160606 
L 236.945777 247.968734 
L 237.240484 247.968734 
L 237.345327 247.58499 
L 237.359855 247.58499 
L 237.457673 247.009374 
L 237.528778 247.009374 
L 237.636994 246.433758 
L 237.657019 246.433758 
L 237.762356 245.858142 
L 237.819563 245.858142 
L 237.819563 245.66627 
L 237.981284 245.66627 
L 238.036998 245.282526 
L 238.15861 245.282526 
L 238.210328 244.70691 
L 238.316971 244.70691 
L 238.374892 244.131294 
L 238.480215 244.131294 
L 238.537003 243.555678 
L 238.595883 243.555678 
L 238.700576 242.980062 
L 238.739743 242.980062 
L 238.769969 242.212574 
L 238.893914 242.212574 
L 238.967954 241.636958 
L 239.041263 241.636958 
L 239.148614 240.101982 
L 239.326191 240.101982 
L 239.326191 239.91011 
L 239.483885 239.91011 
L 239.579755 238.95075 
L 239.619483 238.95075 
L 239.657363 238.567006 
L 239.741549 238.567006 
L 239.82738 237.799518 
L 239.909069 237.799518 
L 240.005344 236.648286 
L 240.05647 236.648286 
L 240.151712 235.880798 
L 240.244464 235.880798 
L 240.290021 234.537694 
L 240.436214 234.537694 
L 240.531687 233.386462 
L 240.579084 233.386462 
L 240.663096 231.659614 
L 240.711342 231.659614 
L 240.77567 230.892127 
L 240.848431 230.892127 
L 240.947964 229.740895 
L 240.987511 229.740895 
L 241.054617 229.165279 
L 241.134442 229.165279 
L 241.220679 227.438431 
L 241.288632 227.438431 
L 241.33471 226.862815 
L 241.403534 226.862815 
L 241.46504 225.903455 
L 241.534686 225.903455 
L 241.643568 224.752223 
L 241.6475 224.752223 
L 241.758221 223.409119 
L 241.786082 223.409119 
L 241.873137 221.874143 
L 241.955965 221.874143 
L 242.062248 220.339167 
L 242.134193 220.339167 
L 242.221293 218.996063 
L 242.255404 218.996063 
L 242.28636 218.228575 
L 242.370448 218.228575 
L 242.472604 217.077343 
L 242.48407 217.077343 
L 242.589953 215.926111 
L 242.596205 215.926111 
L 242.678857 214.774879 
L 242.7254 214.774879 
L 242.825882 213.048031 
L 242.862847 213.048031 
L 242.953166 212.088671 
L 242.974834 212.088671 
L 243.081514 210.745567 
L 243.096178 210.745567 
L 243.199109 209.210591 
L 243.213062 209.210591 
L 243.316728 207.291871 
L 243.344749 207.291871 
L 243.442048 205.181279 
L 243.460687 205.181279 
L 243.522454 204.413791 
L 243.646066 204.413791 
L 243.757018 202.686943 
L 243.767915 202.686943 
L 243.832287 201.919455 
L 243.887425 201.919455 
L 243.97867 200.192607 
L 244.00366 200.192607 
L 244.081517 199.233247 
L 244.140703 199.233247 
L 244.196857 198.082015 
L 244.257042 198.082015 
L 244.340349 195.779551 
L 244.431798 195.779551 
L 244.541776 194.436447 
L 244.545835 194.436447 
L 244.635471 193.285215 
L 244.661513 193.285215 
L 244.758928 190.407135 
L 244.807385 190.407135 
L 244.906156 189.255903 
L 244.941018 189.255903 
L 245.042555 187.720927 
L 245.090705 187.720927 
L 245.182981 186.377823 
L 245.209547 186.377823 
L 245.3144 184.842847 
L 245.334565 184.842847 
L 245.445196 183.499743 
L 245.449568 183.499743 
L 245.557086 181.197279 
L 245.567642 181.197279 
L 245.656312 179.854175 
L 245.680387 179.854175 
L 245.769563 178.511071 
L 245.80637 178.511071 
L 245.91638 176.592351 
L 245.951774 176.592351 
L 246.020261 175.249248 
L 246.101852 175.249248 
L 246.207662 172.946784 
L 246.280495 172.946784 
L 246.388432 171.60368 
L 246.403359 171.60368 
L 246.500047 170.64432 
L 246.519447 170.64432 
L 246.592322 169.493088 
L 246.654996 169.493088 
L 246.765061 167.382496 
L 246.778905 167.382496 
L 246.875794 165.655648 
L 246.89102 165.655648 
L 246.99873 163.353184 
L 247.006514 163.353184 
L 247.076019 162.201952 
L 247.125014 162.201952 
L 247.232646 160.858848 
L 247.237218 160.858848 
L 247.342803 159.323872 
L 247.349972 159.323872 
L 247.453324 157.980768 
L 247.462903 157.980768 
L 247.56863 156.829536 
L 247.594235 156.829536 
L 247.638195 156.445792 
L 247.761223 156.445792 
L 247.86485 154.910816 
L 247.883887 154.910816 
L 247.989074 154.143328 
L 247.99684 154.143328 
L 248.1007 152.800224 
L 248.114684 152.800224 
L 248.114684 152.608352 
L 248.239258 152.608352 
L 248.331176 151.45712 
L 248.365882 151.45712 
L 248.436762 150.49776 
L 248.478747 150.49776 
L 248.578386 149.730272 
L 248.662101 149.730272 
L 248.70091 148.962784 
L 248.776138 148.962784 
L 248.877777 148.003424 
L 248.901975 148.003424 
L 248.967133 146.66032 
L 249.024607 146.66032 
L 249.08922 146.084704 
L 249.163269 146.084704 
L 249.208703 145.317216 
L 249.275613 145.317216 
L 249.339937 144.549728 
L 249.40686 144.549728 
L 249.499649 143.398496 
L 249.631959 143.398496 
L 249.738361 142.631008 
L 249.797945 142.631008 
L 249.901317 141.479776 
L 249.937722 141.479776 
L 250.037677 140.520416 
L 250.064625 140.520416 
L 250.171779 139.752928 
L 250.178499 139.752928 
L 250.247412 138.793568 
L 250.399285 138.793568 
L 250.49234 138.02608 
L 250.558062 138.02608 
L 250.662092 136.874848 
L 250.708406 136.874848 
L 250.767117 136.491104 
L 250.855072 136.491104 
L 250.939202 135.915488 
L 250.986025 135.915488 
L 251.064879 134.956128 
L 251.110643 134.956128 
L 251.199681 133.996768 
L 251.249884 133.996768 
L 251.356345 132.845536 
L 251.362498 132.845536 
L 251.451387 131.31056 
L 251.484253 131.31056 
L 251.547807 130.159328 
L 251.638964 130.159328 
L 251.731622 129.199968 
L 251.772884 129.199968 
L 251.853605 127.856864 
L 251.885039 127.856864 
L 251.967517 126.897504 
L 252.140539 126.897504 
L 252.250629 125.938144 
L 252.315619 125.938144 
L 252.399656 124.978784 
L 252.435634 124.978784 
L 252.545559 123.443808 
L 252.581927 123.443808 
L 252.685999 121.908832 
L 252.739397 121.908832 
L 252.839644 119.990112 
L 252.918835 119.990112 
L 253.015367 119.030752 
L 253.067695 119.030752 
L 253.082611 118.647009 
L 253.260909 118.647009 
L 253.356728 117.495777 
L 253.386257 117.495777 
L 253.493256 116.536417 
L 253.538893 116.536417 
L 253.631918 115.577057 
L 253.661323 115.577057 
L 253.762542 112.507105 
L 253.858458 112.507105 
L 253.960343 110.972129 
L 254.015469 110.972129 
L 254.067412 110.204641 
L 254.217672 110.204641 
L 254.324814 109.245281 
L 254.406371 109.245281 
L 254.509818 108.477793 
L 254.536538 108.477793 
L 254.646069 107.326561 
L 254.655189 107.326561 
L 254.736826 106.750945 
L 254.779347 106.750945 
L 254.874221 105.983457 
L 254.905065 105.983457 
L 255.0051 105.024097 
L 255.02473 105.024097 
L 255.125711 103.489121 
L 255.151741 103.489121 
L 255.25042 102.337889 
L 255.35266 102.337889 
L 255.456278 101.186657 
L 255.473246 101.186657 
L 255.56181 99.843553 
L 255.615778 99.843553 
L 255.710207 98.692321 
L 255.753545 98.692321 
L 255.860271 97.732961 
L 255.867014 97.732961 
L 255.977837 96.581729 
L 255.978762 96.581729 
L 256.083701 95.814241 
L 256.091428 95.814241 
L 256.166957 95.046753 
L 256.249971 95.046753 
L 256.341143 94.279265 
L 256.365879 94.279265 
L 256.472408 92.360545 
L 256.546349 92.360545 
L 256.646192 91.209313 
L 256.659185 91.209313 
L 256.690453 90.441825 
L 256.77813 90.441825 
L 256.867353 89.290593 
L 256.906799 89.290593 
L 257.00273 87.947489 
L 257.073031 87.947489 
L 257.10389 87.563745 
L 257.191219 87.563745 
L 257.249051 86.220641 
L 257.324402 86.220641 
L 257.416689 85.453153 
L 257.447119 85.453153 
L 257.550712 84.493793 
L 257.591462 84.493793 
L 257.699288 83.342561 
L 257.703974 83.342561 
L 257.802932 82.383201 
L 257.818708 82.383201 
L 257.904014 80.656353 
L 257.931697 80.656353 
L 258.011756 79.505121 
L 258.056369 79.505121 
L 258.162811 77.970145 
L 258.178135 77.970145 
L 258.258211 76.435169 
L 258.320351 76.435169 
L 258.394613 75.475809 
L 258.443284 75.475809 
L 258.548806 74.132705 
L 258.619402 74.132705 
L 258.727091 72.597729 
L 258.739867 72.597729 
L 258.831405 71.638369 
L 258.871908 71.638369 
L 258.978136 70.103393 
L 258.992386 70.103393 
L 259.058729 69.335905 
L 259.106588 69.335905 
L 259.156757 68.760289 
L 259.231344 68.760289 
L 259.340209 67.033441 
L 259.394219 67.033441 
L 259.457351 65.882209 
L 259.52465 65.882209 
L 259.606355 64.347233 
L 259.686759 64.347233 
L 259.772749 63.579745 
L 259.835212 63.579745 
L 259.937267 62.04477 
L 259.989051 62.04477 
L 260.050022 61.469154 
L 260.109103 61.469154 
L 260.189318 60.12605 
L 260.220856 60.12605 
L 260.254095 59.742306 
L 260.389294 59.742306 
L 260.454934 59.16669 
L 260.508754 59.16669 
L 260.599113 57.631714 
L 260.626398 57.631714 
L 260.732558 57.056098 
L 260.757288 57.056098 
L 260.85312 56.480482 
L 260.9489 56.480482 
L 261.051881 54.753634 
L 261.126961 54.753634 
L 261.176413 53.986146 
L 261.258236 53.986146 
L 261.358636 53.026786 
L 261.369559 53.026786 
L 261.47819 52.45117 
L 261.572538 52.45117 
L 261.66974 52.067426 
L 261.858669 52.067426 
L 261.940287 51.299938 
L 262.013347 51.299938 
L 262.013347 51.108066 
L 262.129824 51.108066 
L 262.129824 50.916194 
L 262.248104 50.916194 
L 262.315345 50.53245 
L 262.380445 50.53245 
L 262.422648 50.148706 
L 262.719968 50.148706 
L 262.826992 49.381218 
L 262.902456 49.381218 
L 262.953366 48.805602 
L 263.221395 48.805602 
L 263.221395 48.61373 
L 263.501453 48.61373 
L 263.501453 48.421858 
L 263.755484 48.421858 
L 263.780335 48.038114 
L 263.867378 48.038114 
L 263.867378 47.846242 
L 264.016991 47.846242 
L 264.081637 47.462498 
L 264.197773 47.462498 
L 264.197773 47.270626 
L 264.50762 47.270626 
L 264.605336 46.69501 
L 264.833423 46.69501 
L 264.833423 46.503138 
L 265.094742 46.503138 
L 265.190309 46.119394 
L 265.68742 46.119394 
L 265.754881 45.543778 
L 265.823582 45.543778 
L 265.847054 45.160034 
L 266.070628 45.160034 
L 266.070628 44.968162 
L 266.639326 44.968162 
L 266.639326 44.77629 
L 267.093192 44.77629 
L 267.093192 44.584418 
L 267.218488 44.584418 
L 267.218488 44.392546 
L 267.692086 44.392546 
L 267.753331 43.81693 
L 267.911259 43.81693 
L 267.93599 43.433186 
L 268.069078 43.433186 
L 268.069078 43.241314 
L 268.637776 43.241314 
L 268.637776 43.049442 
L 269.216939 43.049442 
L 269.216939 42.85757 
L 269.490444 42.85757 
L 269.490444 42.665698 
L 269.855448 42.665698 
L 269.962674 42.281954 
L 270.705208 42.281954 
L 270.705208 42.090082 
L 270.827707 42.090082 
L 270.921362 41.706338 
L 270.939632 41.706338 
L 270.939632 41.514466 
L 271.200324 41.514466 
L 271.200324 41.322594 
L 271.471465 41.322594 
L 271.471465 41.130722 
L 271.713211 41.130722 
L 271.81197 40.746978 
L 271.853898 40.746978 
L 271.877992 40.363234 
L 272.044123 40.363234 
L 272.074718 39.97949 
L 272.213224 39.97949 
L 272.213224 39.787618 
L 272.531422 39.787618 
L 272.531422 39.595746 
L 272.719378 39.595746 
L 272.719378 39.403874 
L 272.886357 39.403874 
L 272.886357 39.212002 
L 273.050291 39.212002 
L 273.158844 38.828258 
L 273.217806 38.828258 
L 273.217806 38.636386 
L 273.361048 38.636386 
L 273.457177 38.252642 
L 273.621492 38.252642 
L 273.621492 38.06077 
L 274.12371 38.06077 
L 274.211675 37.677026 
L 274.354574 37.677026 
L 274.455014 37.10141 
L 274.487302 37.10141 
L 274.487302 36.909538 
L 274.711862 36.909538 
L 274.711862 36.717666 
L 274.969511 36.717666 
L 274.969511 36.525794 
L 275.216256 36.525794 
L 275.234804 36.14205 
L 275.344106 36.14205 
L 275.344106 35.950178 
L 275.493469 35.950178 
L 275.546011 35.18269 
L 275.833829 35.18269 
L 275.850165 34.798946 
L 276.222001 34.798946 
L 276.222001 34.607074 
L 276.339345 34.607074 
L 276.353024 34.22333 
L 277.27509 34.22333 
L 277.27509 34.031458 
L 277.807701 34.031458 
L 277.807701 33.839586 
L 277.963251 33.839586 
L 278.026644 33.26397 
L 278.202104 33.26397 
L 278.202104 33.072098 
L 279.730239 33.072098 
L 279.730239 32.880226 
L 279.99053 32.880226 
L 279.99053 32.688354 
L 280.444888 32.688354 
L 280.444888 32.496482 
L 280.637957 32.496482 
L 280.710948 32.112738 
L 280.783327 32.112738 
L 280.783327 31.920866 
L 280.990452 31.920866 
L 280.990452 31.728994 
L 281.669952 31.728994 
L 281.669952 31.537122 
L 282.150929 31.537122 
L 282.150929 31.34525 
L 282.359772 31.34525 
L 282.359772 31.153378 
L 283.730113 31.153378 
L 283.823101 30.769634 
L 284.128436 30.769634 
L 284.14938 30.38589 
L 284.994278 30.38589 
L 284.994278 30.194018 
L 285.728564 30.194018 
L 285.728564 30.002146 
L 288.826849 30.002146 
L 288.826849 29.810274 
L 289.199766 29.810274 
L 289.199766 29.618402 
L 289.362601 29.618402 
L 289.362601 29.42653 
L 290.07893 29.42653 
L 290.139235 29.042786 
L 291.207759 29.042786 
L 291.207759 28.850914 
L 291.515752 28.850914 
L 291.515752 28.659042 
L 291.864045 28.659042 
L 291.864045 28.46717 
L 292.352958 28.46717 
L 292.352958 28.275298 
L 293.11841 28.275298 
L 293.11841 28.083426 
L 293.581964 28.083426 
L 293.581964 27.891554 
L 293.775655 27.891554 
L 293.790918 27.50781 
L 293.971806 27.50781 
L 294.014903 27.124066 
L 295.197956 27.124066 
L 295.279521 26.740322 
L 295.973477 26.740322 
L 295.973477 26.54845 
L 297.502083 26.54845 
L 297.502083 26.356578 
L 297.742388 26.356578 
L 297.742388 26.164706 
L 297.981636 26.164706 
L 298.068642 25.780962 
L 298.439921 25.780962 
L 298.439921 25.58909 
L 299.112093 25.58909 
L 299.164689 25.205346 
L 301.338031 25.205346 
L 301.338031 25.013474 
L 308.015325 25.013474 
L 308.015325 24.821602 
L 308.254572 24.821602 
L 308.254572 24.62973 
L 309.316022 24.62973 
L 309.316022 24.437858 
L 309.437626 24.437858 
L 309.478857 24.054114 
L 310.013775 24.054114 
L 310.013775 23.862242 
L 310.253023 23.862242 
L 310.253023 23.67037 
L 311.324014 23.67037 
L 311.324014 23.478498 
L 311.436077 23.478498 
L 311.436077 23.286626 
L 311.632008 23.286626 
L 311.632008 23.094754 
L 311.980301 23.094754 
L 311.980301 22.902882 
L 312.469214 22.902882 
L 312.469214 22.71101 
L 312.733099 22.71101 
L 312.733099 22.519138 
L 313.234666 22.519138 
L 313.234666 22.327266 
L 313.69822 22.327266 
L 313.719021 21.943522 
L 313.907174 21.943522 
L 313.907174 21.75165 
L 314.76791 21.75165 
L 314.76791 21.559778 
L 315.753832 21.559778 
L 315.753832 21.367906 
L 316.089733 21.367906 
L 316.089733 21.176034 
L 317.618339 21.176034 
L 317.618339 20.984162 
L 318.556177 20.984162 
L 318.556177 20.79229 
L 453.192 20.79229 
L 453.192 20.79229 
" clip-path="url(#pad88ee18b6)" style="fill: none; stroke: #00bfbf; stroke-width: 3; stroke-linecap: square"/>
   </g>
   <g id="line2d_20">
    <path clip-path="url(#pad88ee18b6)" style="fill: none; stroke: #00bfbf; stroke-width: 3; stroke-linecap: square"/>
   </g>
   <g id="line2d_21">
    <path d="M 34.16 285.625431 
L 149.018194 285.625431 
L 149.018194 285.42341 
L 151.243928 285.42341 
L 151.243928 285.221389 
L 162.467253 285.221389 
L 162.467253 285.019368 
L 164.692987 285.019368 
L 164.692987 284.817347 
L 184.563786 284.817347 
L 184.563786 284.615326 
L 186.78952 284.615326 
L 186.78952 284.413304 
L 199.375032 284.413304 
L 199.375032 284.211283 
L 201.175208 284.211283 
L 201.175208 284.009262 
L 201.600767 284.009262 
L 201.600767 283.807241 
L 211.037372 283.807241 
L 211.037372 283.60522 
L 211.283209 283.60522 
L 211.283209 283.403199 
L 212.295467 283.403199 
L 212.295467 283.201178 
L 212.66986 283.201178 
L 212.66986 282.999157 
L 213.424823 282.999157 
L 213.424823 282.797136 
L 213.878486 282.797136 
L 213.878486 282.595115 
L 214.91481 282.595115 
L 214.91481 282.393094 
L 215.057897 282.393094 
L 215.057897 282.191073 
L 216.473311 282.191073 
L 216.473311 281.989052 
L 216.714554 281.989052 
L 216.714554 281.787031 
L 220.780528 281.787031 
L 220.780528 281.58501 
L 225.038773 281.58501 
L 225.038773 281.382989 
L 225.500078 281.382989 
L 225.60655 280.978947 
L 225.621472 280.978947 
L 225.621472 280.776926 
L 226.188965 280.776926 
L 226.188965 280.574904 
L 226.335476 280.574904 
L 226.425424 279.968841 
L 226.806883 279.968841 
L 226.889271 279.362778 
L 226.963788 279.362778 
L 226.963788 279.160757 
L 227.180386 279.160757 
L 227.180386 278.958736 
L 227.581706 278.958736 
L 227.641691 278.150652 
L 227.758183 278.150652 
L 227.758183 277.948631 
L 228.095354 277.948631 
L 228.095354 277.74661 
L 228.275922 277.74661 
L 228.275922 277.544589 
L 228.414587 277.544589 
L 228.513145 276.938526 
L 228.574986 276.938526 
L 228.670374 276.534483 
L 228.966808 276.534483 
L 229.030885 276.130441 
L 229.131679 276.130441 
L 229.236537 275.726399 
L 229.36835 275.726399 
L 229.36835 275.524378 
L 229.484547 275.524378 
L 229.484547 275.322357 
L 229.6113 275.322357 
L 229.6113 275.120336 
L 230.003133 275.120336 
L 230.03866 274.716294 
L 230.244449 274.716294 
L 230.244449 274.514273 
L 230.356 274.514273 
L 230.444829 274.110231 
L 230.470117 274.110231 
L 230.520872 273.706189 
L 230.642693 273.706189 
L 230.642693 273.504168 
L 230.80072 273.504168 
L 230.886769 272.898105 
L 230.931422 272.898105 
L 230.931422 272.696083 
L 231.317527 272.696083 
L 231.317527 272.494062 
L 231.433707 272.494062 
L 231.462272 272.09002 
L 231.802876 272.09002 
L 231.900788 271.685978 
L 231.979397 271.685978 
L 231.979397 271.483957 
L 232.195918 271.483957 
L 232.195918 271.281936 
L 232.320616 271.281936 
L 232.359163 270.675873 
L 232.66205 270.675873 
L 232.66205 270.473852 
L 232.815324 270.473852 
L 232.874407 270.06981 
L 233.362833 270.06981 
L 233.401819 269.665768 
L 233.620496 269.665768 
L 233.620496 269.463747 
L 233.740938 269.463747 
L 233.740938 269.261726 
L 234.306797 269.261726 
L 234.410634 268.655662 
L 234.663218 268.655662 
L 234.663218 268.453641 
L 235.263942 268.453641 
L 235.268296 268.049599 
L 235.46915 268.049599 
L 235.576329 267.241515 
L 235.680241 267.241515 
L 235.694294 266.837473 
L 235.883451 266.837473 
L 235.913032 266.433431 
L 236.094691 266.433431 
L 236.126357 266.029389 
L 236.363017 266.029389 
L 236.466528 265.221305 
L 236.755547 265.221305 
L 236.81403 264.817262 
L 236.905281 264.817262 
L 236.974379 264.211199 
L 237.069262 264.211199 
L 237.069262 264.009178 
L 237.232925 264.009178 
L 237.282293 263.605136 
L 237.345096 263.605136 
L 237.43858 263.201094 
L 237.511639 263.201094 
L 237.511639 262.999073 
L 237.64288 262.999073 
L 237.657019 262.595031 
L 237.819419 262.595031 
L 237.85499 262.190989 
L 238.016992 262.190989 
L 238.123762 261.584926 
L 238.158539 261.584926 
L 238.248626 260.978862 
L 238.316971 260.978862 
L 238.316971 260.776841 
L 238.458241 260.776841 
L 238.480215 260.372799 
L 238.595883 260.372799 
L 238.683282 259.968757 
L 238.717184 259.968757 
L 238.717184 259.766736 
L 238.866544 259.766736 
L 238.967616 259.160673 
L 239.010827 259.160673 
L 239.117874 258.55461 
L 239.133911 258.55461 
L 239.133911 258.352589 
L 239.387983 258.352589 
L 239.483885 257.948547 
L 239.583037 257.948547 
L 239.628745 257.342484 
L 239.741549 257.342484 
L 239.826235 256.938441 
L 239.883774 256.938441 
L 239.988467 256.332378 
L 240.005901 256.332378 
L 240.110123 255.726315 
L 240.151712 255.726315 
L 240.247836 254.71621 
L 240.274104 254.71621 
L 240.301715 254.312168 
L 240.393313 254.312168 
L 240.487135 253.504084 
L 240.531687 253.504084 
L 240.588045 252.695999 
L 240.78966 252.695999 
L 240.847723 252.291957 
L 240.904654 252.291957 
L 241.011232 251.483873 
L 241.134018 251.483873 
L 241.205963 250.675789 
L 241.314791 250.675789 
L 241.417359 249.665684 
L 241.435489 249.665684 
L 241.460569 249.261642 
L 241.598646 249.261642 
L 241.706913 247.847494 
L 241.755506 247.847494 
L 241.846728 246.837389 
L 241.924765 246.837389 
L 242.021696 245.625263 
L 242.08434 245.625263 
L 242.17015 245.019199 
L 242.203183 245.019199 
L 242.270679 244.009094 
L 242.315536 244.009094 
L 242.395096 243.403031 
L 242.45828 243.403031 
L 242.514283 242.392926 
L 242.587776 242.392926 
L 242.674382 241.382821 
L 242.708549 241.382821 
L 242.796519 240.574736 
L 242.823367 240.574736 
L 242.899424 239.564631 
L 242.949887 239.564631 
L 243.047651 238.554526 
L 243.076588 238.554526 
L 243.150421 236.736336 
L 243.207755 236.736336 
L 243.295407 235.726231 
L 243.334905 235.726231 
L 243.360716 235.120168 
L 243.453601 235.120168 
L 243.545596 234.110063 
L 243.566546 234.110063 
L 243.676 231.68581 
L 243.709534 231.68581 
L 243.814188 230.271663 
L 243.832287 230.271663 
L 243.94184 228.453473 
L 243.944653 228.453473 
L 244.053148 226.231242 
L 244.057346 226.231242 
L 244.155566 224.413052 
L 244.210679 224.413052 
L 244.307593 222.998905 
L 244.323023 222.998905 
L 244.401954 221.382736 
L 244.443903 221.382736 
L 244.540449 219.766568 
L 244.618968 219.766568 
L 244.71923 216.534231 
L 244.73341 216.534231 
L 244.841194 215.524126 
L 244.873922 215.524126 
L 244.979755 211.685726 
L 245.003049 211.685726 
L 245.113991 209.261473 
L 245.126983 209.261473 
L 245.235366 207.645305 
L 245.24978 207.645305 
L 245.349912 206.029136 
L 245.361408 206.029136 
L 245.472166 203.604884 
L 245.480427 203.604884 
L 245.580035 201.584673 
L 245.644722 201.584673 
L 245.754201 199.362442 
L 245.771331 199.362442 
L 245.877592 197.544252 
L 245.91191 197.544252 
L 246.020546 195.12 
L 246.042162 195.12 
L 246.136154 192.897768 
L 246.155933 192.897768 
L 246.264547 190.877558 
L 246.269472 190.877558 
L 246.378493 188.049263 
L 246.388432 188.049263 
L 246.495225 186.433095 
L 246.507605 186.433095 
L 246.610962 184.412884 
L 246.638358 184.412884 
L 246.747022 182.796716 
L 246.769395 182.796716 
L 246.877301 181.382568 
L 246.900788 181.382568 
L 247.009242 179.362358 
L 247.042523 179.362358 
L 247.108982 177.94821 
L 247.258754 177.94821 
L 247.3495 176.130021 
L 247.390571 176.130021 
L 247.486349 175.321937 
L 247.548873 175.321937 
L 247.639448 172.695663 
L 247.672964 172.695663 
L 247.782266 170.069389 
L 247.786356 170.069389 
L 247.884079 169.059284 
L 247.925885 169.059284 
L 248.021646 167.039074 
L 248.040385 167.039074 
L 248.131005 165.422905 
L 248.183779 165.422905 
L 248.286473 164.4128 
L 248.341488 164.4128 
L 248.428948 163.604716 
L 248.470748 163.604716 
L 248.581849 162.59461 
L 248.583129 162.59461 
L 248.691914 161.786526 
L 248.706649 161.786526 
L 248.811831 161.382484 
L 248.832923 161.382484 
L 248.911882 159.564295 
L 248.973671 159.564295 
L 248.973686 159.160253 
L 249.085518 159.160253 
L 249.182027 157.948126 
L 249.212939 157.948126 
L 249.21662 157.544084 
L 249.360076 157.544084 
L 249.452271 156.736 
L 249.499137 156.736 
L 249.604006 155.725895 
L 249.666316 155.725895 
L 249.761407 155.119832 
L 249.801482 155.119832 
L 249.854025 154.513768 
L 249.934288 154.513768 
L 250.037677 154.109726 
L 250.093603 154.109726 
L 250.171779 153.301642 
L 250.328598 153.301642 
L 250.406058 152.291537 
L 250.465267 152.291537 
L 250.527367 151.483453 
L 250.583821 151.483453 
L 250.632533 150.675368 
L 250.730256 150.675368 
L 250.730256 150.473347 
L 250.912826 150.473347 
L 250.912826 150.271326 
L 251.043179 150.271326 
L 251.151601 149.261221 
L 251.296743 149.261221 
L 251.372983 148.655158 
L 251.505094 148.655158 
L 251.581078 148.251116 
L 251.618552 148.251116 
L 251.698914 147.645053 
L 251.77761 147.645053 
L 251.77761 147.443032 
L 251.942012 147.443032 
L 252.045837 146.836968 
L 252.093158 146.836968 
L 252.169795 145.826863 
L 252.244181 145.826863 
L 252.322656 144.816758 
L 252.361159 144.816758 
L 252.47021 144.412716 
L 252.529813 144.412716 
L 252.589012 143.806653 
L 252.689822 143.806653 
L 252.800073 142.190484 
L 252.863359 142.190484 
L 252.921647 141.3824 
L 252.986675 141.3824 
L 253.096451 139.968253 
L 253.104949 139.968253 
L 253.160702 139.160168 
L 253.255758 139.160168 
L 253.315096 138.554105 
L 253.42252 138.554105 
L 253.53032 137.948042 
L 253.573042 137.948042 
L 253.680922 135.52379 
L 253.686771 135.52379 
L 253.777389 133.907621 
L 253.8448 133.907621 
L 253.954492 133.099537 
L 254.048981 133.099537 
L 254.146091 131.483369 
L 254.165014 131.483369 
L 254.273433 129.261137 
L 254.332147 129.261137 
L 254.44209 127.84699 
L 254.463214 127.84699 
L 254.528706 127.240926 
L 254.580677 127.240926 
L 254.687907 125.624758 
L 254.702526 125.624758 
L 254.79785 124.412632 
L 254.837 124.412632 
L 254.947918 123.402526 
L 254.966579 123.402526 
L 255.075233 122.1904 
L 255.109529 122.1904 
L 255.188004 120.978274 
L 255.220714 120.978274 
L 255.324873 119.362105 
L 255.335016 119.362105 
L 255.44502 117.947958 
L 255.467482 117.947958 
L 255.559096 116.937853 
L 255.608667 116.937853 
L 255.711396 115.927748 
L 255.743754 115.927748 
L 255.842452 114.5136 
L 255.903219 114.5136 
L 256.010945 112.089348 
L 256.060791 112.089348 
L 256.170046 111.281263 
L 256.202566 111.281263 
L 256.292891 109.059032 
L 256.324845 109.059032 
L 256.435105 107.644884 
L 256.455001 107.644884 
L 256.534838 106.8368 
L 256.575581 106.8368 
L 256.662827 105.624674 
L 256.693281 105.624674 
L 256.800003 102.796379 
L 256.851436 102.796379 
L 256.950567 101.180211 
L 256.969291 101.180211 
L 257.066179 100.170106 
L 257.094322 100.170106 
L 257.17294 99.16 
L 257.212405 99.16 
L 257.293166 97.543832 
L 257.339804 97.543832 
L 257.446983 96.331706 
L 257.461828 96.331706 
L 257.567874 95.523621 
L 257.607578 95.523621 
L 257.622313 95.119579 
L 257.746639 95.119579 
L 257.847756 92.897348 
L 257.961082 92.897348 
L 258.049076 91.281179 
L 258.102253 91.281179 
L 258.200363 89.665011 
L 258.225528 89.665011 
L 258.262855 88.654906 
L 258.345198 88.654906 
L 258.414107 87.442779 
L 258.46585 87.442779 
L 258.544045 86.432674 
L 258.579085 86.432674 
L 258.616894 85.826611 
L 258.692193 85.826611 
L 258.782619 83.8064 
L 258.844314 83.8064 
L 258.945086 82.594274 
L 259.021637 82.594274 
L 259.096982 80.978106 
L 259.134692 80.978106 
L 259.180692 79.765979 
L 259.249521 79.765979 
L 259.358577 78.755874 
L 259.392645 78.755874 
L 259.492365 77.341727 
L 259.516094 77.341727 
L 259.614721 76.331621 
L 259.650812 76.331621 
L 259.756722 75.119495 
L 259.765792 75.119495 
L 259.830675 74.10939 
L 259.911844 74.10939 
L 260.004154 73.099285 
L 260.068313 73.099285 
L 260.178733 71.685137 
L 260.202928 71.685137 
L 260.237975 71.079074 
L 260.322526 71.079074 
L 260.429584 70.068969 
L 260.526736 70.068969 
L 260.626175 69.058864 
L 260.694395 69.058864 
L 260.785238 68.4528 
L 260.827095 68.4528 
L 260.912793 66.836632 
L 260.956792 66.836632 
L 260.956792 66.634611 
L 261.089481 66.634611 
L 261.200387 65.422485 
L 261.201954 65.422485 
L 261.257151 64.6144 
L 261.370996 64.6144 
L 261.479481 63.200253 
L 261.509252 63.200253 
L 261.60722 62.59419 
L 261.708027 62.59419 
L 261.809611 61.988127 
L 261.834303 61.988127 
L 261.94471 61.584085 
L 261.959234 61.584085 
L 262.008386 61.180043 
L 262.178925 61.180043 
L 262.279703 60.371958 
L 262.693422 60.371958 
L 262.7983 59.765895 
L 262.965013 59.765895 
L 262.965013 59.563874 
L 263.109794 59.563874 
L 263.218053 58.553769 
L 263.223496 58.553769 
L 263.223496 58.351748 
L 263.348732 58.351748 
L 263.423684 57.745685 
L 263.473832 57.745685 
L 263.473832 57.543664 
L 263.627258 57.543664 
L 263.734639 56.937601 
L 263.779704 56.937601 
L 263.835287 56.331537 
L 264.004274 56.331537 
L 264.07773 55.725474 
L 264.220214 55.725474 
L 264.322064 55.119411 
L 264.659671 55.119411 
L 264.768581 54.513348 
L 264.90262 54.513348 
L 264.90262 54.311327 
L 265.286951 54.311327 
L 265.286951 54.109306 
L 265.917269 54.109306 
L 265.996924 53.705264 
L 266.075703 53.705264 
L 266.075703 53.503243 
L 266.209281 53.503243 
L 266.209281 53.301222 
L 266.50219 53.301222 
L 266.540751 52.897179 
L 266.832954 52.897179 
L 266.832954 52.695158 
L 266.989492 52.695158 
L 266.989492 52.493137 
L 267.173593 52.493137 
L 267.173593 52.291116 
L 267.30019 52.291116 
L 267.30019 52.089095 
L 267.498675 52.089095 
L 267.498675 51.887074 
L 267.780536 51.887074 
L 267.780536 51.685053 
L 267.93897 51.685053 
L 268.036472 51.281011 
L 268.098102 51.281011 
L 268.098102 51.07899 
L 268.26012 51.07899 
L 268.26012 50.876969 
L 268.852759 50.876969 
L 268.852759 50.674948 
L 269.03686 50.674948 
L 269.03686 50.472927 
L 269.322028 50.472927 
L 269.336949 49.866864 
L 270.249743 49.866864 
L 270.249743 49.664843 
L 270.613317 49.664843 
L 270.613317 49.462822 
L 270.926782 49.462822 
L 270.926782 49.260801 
L 271.219596 49.260801 
L 271.219596 49.05878 
L 271.357296 49.05878 
L 271.359754 48.654737 
L 271.528917 48.654737 
L 271.589613 48.048674 
L 271.752565 48.048674 
L 271.83612 47.644632 
L 271.892746 47.644632 
L 271.892746 47.442611 
L 272.082789 47.442611 
L 272.158796 46.836548 
L 272.315106 46.836548 
L 272.315106 46.634527 
L 272.448479 46.634527 
L 272.506532 46.028464 
L 272.690329 46.028464 
L 272.690329 45.826443 
L 273.083828 45.826443 
L 273.083828 45.624422 
L 273.308313 45.624422 
L 273.326777 45.22038 
L 273.699387 45.22038 
L 273.756013 44.816337 
L 274.066235 44.816337 
L 274.066235 44.614316 
L 274.210951 44.614316 
L 274.210951 44.412295 
L 274.375893 44.412295 
L 274.477777 44.008253 
L 274.64797 44.008253 
L 274.742836 43.604211 
L 274.965123 43.604211 
L 274.970558 43.200169 
L 275.101386 43.200169 
L 275.101386 42.998148 
L 275.313691 42.998148 
L 275.313691 42.796127 
L 276.065262 42.796127 
L 276.065262 42.594106 
L 276.506276 42.594106 
L 276.511237 42.190064 
L 277.145886 42.190064 
L 277.176958 41.786022 
L 277.964162 41.786022 
L 277.965703 41.38198 
L 278.741799 41.38198 
L 278.741799 41.179959 
L 278.904053 41.179959 
L 279.009153 40.775916 
L 279.910289 40.775916 
L 279.910289 40.573895 
L 280.022365 40.573895 
L 280.022365 40.371874 
L 280.605066 40.371874 
L 280.605066 40.169853 
L 281.73247 40.169853 
L 281.73247 39.967832 
L 282.226751 39.967832 
L 282.226751 39.765811 
L 282.780139 39.765811 
L 282.851045 39.361769 
L 284.643406 39.361769 
L 284.643406 39.159748 
L 286.388318 39.159748 
L 286.38986 38.755706 
L 287.32821 38.755706 
L 287.32821 38.553685 
L 288.334445 38.553685 
L 288.334445 38.351664 
L 290.650908 38.351664 
L 290.666062 37.947622 
L 292.529329 37.947622 
L 292.529329 37.745601 
L 301.282184 37.745601 
L 301.282184 37.54358 
L 303.507919 37.54358 
L 303.507919 37.341559 
L 303.906817 37.341559 
L 303.906817 37.139537 
L 306.132551 37.139537 
L 306.132551 36.937516 
L 453.192 36.937516 
L 453.192 36.937516 
" clip-path="url(#pad88ee18b6)" style="fill: none; stroke: #bf00bf; stroke-width: 3; stroke-linecap: square"/>
   </g>
   <g id="line2d_22">
    <path clip-path="url(#pad88ee18b6)" style="fill: none; stroke: #bf00bf; stroke-width: 3; stroke-linecap: square"/>
   </g>
   <g id="line2d_23">
    <path d="M 34.16 285.625431 
L 149.833313 285.625431 
L 149.833313 285.42341 
L 151.491684 285.42341 
L 151.491684 285.221389 
L 163.433211 285.221389 
L 163.433211 285.019368 
L 165.091582 285.019368 
L 165.091582 284.817347 
L 185.62071 284.817347 
L 185.62071 284.615326 
L 187.279081 284.615326 
L 187.279081 284.413304 
L 199.842096 284.413304 
L 199.842096 284.211283 
L 201.500467 284.211283 
L 201.501866 283.807241 
L 211.344898 283.807241 
L 211.344898 283.60522 
L 212.507504 283.60522 
L 212.507504 283.403199 
L 214.497908 283.403199 
L 214.497908 283.201178 
L 215.106396 283.201178 
L 215.106396 282.999157 
L 216.861964 282.999157 
L 216.861964 282.797136 
L 219.605235 282.797136 
L 219.605235 282.595115 
L 220.867782 282.595115 
L 220.867782 282.393094 
L 221.391485 282.393094 
L 221.391485 282.191073 
L 225.579509 282.191073 
L 225.579509 281.989052 
L 225.835479 281.989052 
L 225.900393 281.58501 
L 225.971977 281.58501 
L 225.971977 281.382989 
L 226.140502 281.382989 
L 226.140502 281.180968 
L 226.507081 281.180968 
L 226.577091 280.574904 
L 226.646969 280.574904 
L 226.704997 280.170862 
L 226.969559 280.170862 
L 227.039437 279.76682 
L 227.138084 279.76682 
L 227.244772 278.958736 
L 227.555331 278.958736 
L 227.555331 278.756715 
L 227.84501 278.756715 
L 227.947799 277.948631 
L 228.039451 277.948631 
L 228.116324 277.544589 
L 228.253475 277.544589 
L 228.253475 277.342568 
L 228.422001 277.342568 
L 228.438979 276.938526 
L 228.78355 276.938526 
L 228.78355 276.736505 
L 228.990301 276.736505 
L 229.021311 276.332462 
L 229.176018 276.332462 
L 229.234768 275.726399 
L 229.344543 275.726399 
L 229.440286 275.322357 
L 229.581031 275.322357 
L 229.631261 274.514273 
L 229.780205 274.514273 
L 229.889038 273.90821 
L 229.8957 273.90821 
L 229.8957 273.706189 
L 230.021084 273.706189 
L 230.021084 273.504168 
L 230.132648 273.504168 
L 230.18961 273.100126 
L 230.244449 273.100126 
L 230.281506 272.696083 
L 230.409727 272.696083 
L 230.492679 271.685978 
L 230.525116 271.685978 
L 230.621062 270.675873 
L 230.648672 270.675873 
L 230.710815 269.867789 
L 230.968704 269.867789 
L 231.01353 269.463747 
L 231.182055 269.463747 
L 231.283369 269.059705 
L 231.308908 269.059705 
L 231.317527 268.655662 
L 231.851714 268.655662 
L 231.87342 268.25162 
L 232.195918 268.25162 
L 232.195918 268.049599 
L 232.359163 268.049599 
L 232.41447 267.645557 
L 232.682646 267.645557 
L 232.682646 267.443536 
L 233.055276 267.443536 
L 233.055276 267.241515 
L 233.219361 267.241515 
L 233.219361 267.039494 
L 233.362833 267.039494 
L 233.362833 266.837473 
L 233.620496 266.837473 
L 233.625103 266.433431 
L 233.852814 266.433431 
L 233.852814 266.23141 
L 234.410634 266.23141 
L 234.472313 265.625347 
L 234.634204 265.625347 
L 234.661782 265.221305 
L 235.005611 265.221305 
L 235.076693 264.817262 
L 235.259526 264.817262 
L 235.361848 264.41322 
L 235.370954 264.41322 
L 235.435973 264.009178 
L 235.487952 264.009178 
L 235.487952 263.807157 
L 235.656642 263.807157 
L 235.694294 263.403115 
L 235.839542 263.403115 
L 235.883451 262.797052 
L 236.236577 262.797052 
L 236.279227 262.39301 
L 236.357784 262.39301 
L 236.365501 261.786947 
L 236.567513 261.786947 
L 236.676227 261.382905 
L 236.685055 261.382905 
L 236.77723 260.57482 
L 236.905724 260.57482 
L 236.905724 260.372799 
L 237.12329 260.372799 
L 237.157205 259.766736 
L 237.331945 259.766736 
L 237.43858 259.362694 
L 237.531956 259.362694 
L 237.628602 258.756631 
L 237.657019 258.756631 
L 237.719687 258.352589 
L 237.947398 258.352589 
L 238.036998 257.544505 
L 238.135476 257.544505 
L 238.238274 256.938441 
L 238.30105 256.938441 
L 238.409717 256.130357 
L 238.41566 256.130357 
L 238.501973 255.524294 
L 238.595883 255.524294 
L 238.698085 255.120252 
L 238.834728 255.120252 
L 238.901707 254.71621 
L 239.066442 254.71621 
L 239.169434 253.706105 
L 239.214599 253.706105 
L 239.214599 253.504084 
L 239.342632 253.504084 
L 239.342632 253.302063 
L 239.483885 253.302063 
L 239.561987 252.695999 
L 239.597418 252.695999 
L 239.597418 252.493978 
L 239.741549 252.493978 
L 239.793702 251.887915 
L 239.959756 251.887915 
L 240.069892 250.87781 
L 240.091489 250.87781 
L 240.157297 250.069726 
L 240.247836 250.069726 
L 240.349552 249.261642 
L 240.455672 249.261642 
L 240.531687 248.453557 
L 240.654246 248.453557 
L 240.687015 247.645473 
L 240.82523 247.645473 
L 240.884556 246.837389 
L 240.963481 246.837389 
L 240.963481 246.635368 
L 241.125964 246.635368 
L 241.195577 245.625263 
L 241.260492 245.625263 
L 241.347134 245.019199 
L 241.413045 245.019199 
L 241.509506 244.413136 
L 241.589486 244.413136 
L 241.653578 244.009094 
L 241.791085 244.009094 
L 241.849967 243.403031 
L 241.945811 243.403031 
L 242.004503 242.594947 
L 242.105806 242.594947 
L 242.203183 241.988884 
L 242.221293 241.988884 
L 242.325374 241.180799 
L 242.340564 241.180799 
L 242.446374 240.574736 
L 242.48407 240.574736 
L 242.588996 239.36261 
L 242.631051 239.36261 
L 242.7376 237.746442 
L 242.759209 237.746442 
L 242.833065 237.342399 
L 242.873979 237.342399 
L 242.972651 235.928252 
L 243.037715 235.928252 
L 243.123584 235.322189 
L 243.172108 235.322189 
L 243.262928 234.312084 
L 243.461518 234.312084 
L 243.561553 232.695915 
L 243.596707 232.695915 
L 243.706568 231.483789 
L 243.720656 231.483789 
L 243.805171 229.463578 
L 243.832287 229.463578 
L 243.832968 229.059536 
L 243.956913 229.059536 
L 244.058481 226.635284 
L 244.068897 226.635284 
L 244.177211 224.817094 
L 244.1874 224.817094 
L 244.268376 223.806989 
L 244.302298 223.806989 
L 244.39866 222.392842 
L 244.434946 222.392842 
L 244.526258 219.968589 
L 244.569263 219.968589 
L 244.659081 218.1504 
L 244.693919 218.1504 
L 244.800385 215.524126 
L 244.807288 215.524126 
L 244.910739 213.705936 
L 244.923034 213.705936 
L 245.032777 211.483705 
L 245.050095 211.483705 
L 245.153576 210.4736 
L 245.200557 210.4736 
L 245.307448 206.837221 
L 245.3144 206.837221 
L 245.425214 204.008926 
L 245.438379 204.008926 
L 245.539306 201.988715 
L 245.556614 201.988715 
L 245.66142 200.170526 
L 245.668118 200.170526 
L 245.778171 197.746273 
L 245.786061 197.746273 
L 245.877592 195.322021 
L 245.920462 195.322021 
L 246.028596 193.705852 
L 246.055519 193.705852 
L 246.140927 192.695747 
L 246.200816 192.695747 
L 246.275267 191.2816 
L 246.324608 191.2816 
L 246.425948 189.665431 
L 246.458467 189.665431 
L 246.565359 187.039158 
L 246.571007 187.039158 
L 246.653959 185.62501 
L 246.691277 185.62501 
L 246.787216 183.200758 
L 246.816101 183.200758 
L 246.926461 181.988631 
L 246.934492 181.988631 
L 247.041384 179.564379 
L 247.074628 179.564379 
L 247.163952 178.352252 
L 247.226566 178.352252 
L 247.292129 177.342147 
L 247.357309 177.342147 
L 247.452549 176.332042 
L 247.479076 176.332042 
L 247.479076 176.130021 
L 247.591189 176.130021 
L 247.688826 174.10981 
L 247.760586 174.10981 
L 247.821474 173.099705 
L 247.87658 173.099705 
L 247.87658 172.897684 
L 248.040385 172.897684 
L 248.128617 171.887579 
L 248.153066 171.887579 
L 248.259127 170.473431 
L 248.269298 170.473431 
L 248.353799 169.261305 
L 248.393079 169.261305 
L 248.496535 168.049179 
L 248.560784 168.049179 
L 248.620776 167.241095 
L 248.788834 167.241095 
L 248.877777 166.230989 
L 248.90882 166.230989 
L 248.946947 165.624926 
L 249.050809 165.624926 
L 249.14171 164.614821 
L 249.226524 164.614821 
L 249.336899 162.998653 
L 249.429155 162.998653 
L 249.499649 162.190568 
L 249.581012 162.190568 
L 249.688375 161.584505 
L 249.714543 161.584505 
L 249.798073 160.978442 
L 249.910187 160.978442 
L 249.978198 160.372379 
L 250.037677 160.372379 
L 250.118879 159.564295 
L 250.171779 159.564295 
L 250.24266 158.554189 
L 250.33293 158.554189 
L 250.399923 157.746105 
L 250.447615 157.746105 
L 250.450017 157.342063 
L 250.588296 157.342063 
L 250.656984 156.533979 
L 250.712077 156.533979 
L 250.7584 156.129937 
L 250.887064 156.129937 
L 250.950589 155.725895 
L 251.110643 155.725895 
L 251.151601 155.119832 
L 251.227817 155.119832 
L 251.277142 154.311747 
L 251.369245 154.311747 
L 251.46395 153.503663 
L 251.537303 153.503663 
L 251.621836 152.695579 
L 251.648671 152.695579 
L 251.69244 152.291537 
L 251.762204 152.291537 
L 251.815109 151.887495 
L 251.889516 151.887495 
L 251.977897 150.473347 
L 252.007372 150.473347 
L 252.077126 149.463242 
L 252.134258 149.463242 
L 252.223586 148.655158 
L 252.270166 148.655158 
L 252.375987 147.847074 
L 252.391961 147.847074 
L 252.490218 146.634947 
L 252.509429 146.634947 
L 252.561228 146.028884 
L 252.644154 146.028884 
L 252.747241 144.412716 
L 252.762595 144.412716 
L 252.870918 143.200589 
L 252.896158 143.200589 
L 252.991129 141.180379 
L 253.012133 141.180379 
L 253.09016 140.170274 
L 253.167566 140.170274 
L 253.275867 139.160168 
L 253.311999 139.160168 
L 253.394322 137.948042 
L 253.438182 137.948042 
L 253.517398 136.129853 
L 253.565029 136.129853 
L 253.670011 134.513684 
L 253.683966 134.513684 
L 253.787479 132.493474 
L 253.802513 132.493474 
L 253.89205 131.079326 
L 253.922114 131.079326 
L 253.982454 129.463158 
L 254.067177 129.463158 
L 254.174208 127.84699 
L 254.182282 127.84699 
L 254.286425 126.230821 
L 254.312455 126.230821 
L 254.419765 125.220716 
L 254.438966 125.220716 
L 254.544169 123.604548 
L 254.552141 123.604548 
L 254.654121 122.1904 
L 254.665724 122.1904 
L 254.770994 121.382316 
L 254.794926 121.382316 
L 254.900745 120.17019 
L 254.93633 120.17019 
L 255.039634 118.149979 
L 255.070012 118.149979 
L 255.16419 117.139874 
L 255.187345 117.139874 
L 255.287062 115.725726 
L 255.312234 115.725726 
L 255.404942 114.715621 
L 255.433595 114.715621 
L 255.493965 113.301474 
L 255.590576 113.301474 
L 255.689092 111.887327 
L 255.705891 111.887327 
L 255.763829 110.6752 
L 255.877938 110.6752 
L 255.93886 109.463074 
L 256.015123 109.463074 
L 256.094879 108.250948 
L 256.152094 108.250948 
L 256.254058 107.442863 
L 256.287162 107.442863 
L 256.380383 106.028716 
L 256.399822 106.028716 
L 256.497851 104.008506 
L 256.54965 104.008506 
L 256.650265 102.392337 
L 256.670567 102.392337 
L 256.718295 101.584253 
L 256.796176 101.584253 
L 256.88458 100.97819 
L 256.91009 100.97819 
L 257.011149 99.766063 
L 257.068241 99.766063 
L 257.155132 98.553937 
L 257.242379 98.553937 
L 257.338986 97.13979 
L 257.364493 97.13979 
L 257.463314 96.129685 
L 257.482944 96.129685 
L 257.592135 95.523621 
L 257.622402 95.523621 
L 257.726493 94.917558 
L 257.733696 94.917558 
L 257.786926 93.907453 
L 257.846524 93.907453 
L 257.949907 92.493306 
L 257.967663 92.493306 
L 258.048326 91.079158 
L 258.08736 91.079158 
L 258.143324 90.271074 
L 258.209259 90.271074 
L 258.305811 87.846821 
L 258.325855 87.846821 
L 258.425092 85.220548 
L 258.466611 85.220548 
L 258.550403 83.8064 
L 258.586164 83.8064 
L 258.693774 82.392253 
L 258.755778 82.392253 
L 258.858657 81.382148 
L 258.904607 81.382148 
L 258.97423 80.372042 
L 259.040695 80.372042 
L 259.150863 79.361937 
L 259.151964 79.361937 
L 259.25371 78.149811 
L 259.28315 78.149811 
L 259.392059 77.341727 
L 259.430568 77.341727 
L 259.524455 76.1296 
L 259.586421 76.1296 
L 259.68357 74.715453 
L 259.759008 74.715453 
L 259.868732 73.705348 
L 259.922548 73.705348 
L 260.033355 72.493221 
L 260.040074 72.493221 
L 260.140999 71.483116 
L 260.185942 71.483116 
L 260.276167 70.27099 
L 260.310681 70.27099 
L 260.404978 68.856843 
L 260.427709 68.856843 
L 260.491142 68.250779 
L 260.565419 68.250779 
L 260.648319 67.644716 
L 260.686984 67.644716 
L 260.790572 66.028548 
L 260.817735 66.028548 
L 260.914862 65.422485 
L 260.941247 65.422485 
L 261.045666 64.412379 
L 261.159699 64.412379 
L 261.159699 64.210358 
L 261.358212 64.210358 
L 261.451126 63.200253 
L 261.532051 63.200253 
L 261.604141 62.392169 
L 261.662889 62.392169 
L 261.668599 61.988127 
L 261.792472 61.988127 
L 261.792472 61.786106 
L 261.936147 61.786106 
L 262.036082 60.978022 
L 262.126745 60.978022 
L 262.228338 59.967916 
L 262.254016 59.967916 
L 262.331673 59.563874 
L 262.461377 59.563874 
L 262.524497 58.75579 
L 262.582454 58.75579 
L 262.680749 58.149727 
L 263.023562 58.149727 
L 263.023562 57.947706 
L 263.283883 57.947706 
L 263.318594 57.341643 
L 263.397877 57.341643 
L 263.478759 56.937601 
L 263.680455 56.937601 
L 263.761936 56.533558 
L 263.981003 56.533558 
L 263.981003 56.331537 
L 264.296204 56.331537 
L 264.298341 55.927495 
L 264.436949 55.927495 
L 264.436949 55.725474 
L 264.738738 55.725474 
L 264.776394 55.321432 
L 265.58417 55.321432 
L 265.590495 54.91739 
L 266.142714 54.91739 
L 266.178563 54.513348 
L 266.29942 54.513348 
L 266.336088 54.109306 
L 266.453174 54.109306 
L 266.453174 53.907285 
L 266.604953 53.907285 
L 266.604953 53.705264 
L 266.91112 53.705264 
L 266.91112 53.503243 
L 267.053762 53.503243 
L 267.053762 53.301222 
L 267.480837 53.301222 
L 267.480837 53.099201 
L 267.740454 53.099201 
L 267.751444 52.695158 
L 267.925577 52.695158 
L 267.927145 52.291116 
L 268.06822 52.291116 
L 268.06822 52.089095 
L 268.224698 52.089095 
L 268.224698 51.887074 
L 268.492372 51.887074 
L 268.492372 51.685053 
L 268.609458 51.685053 
L 268.609458 51.483032 
L 269.051519 51.483032 
L 269.156719 50.876969 
L 269.697607 50.876969 
L 269.697607 50.674948 
L 270.065977 50.674948 
L 270.083429 50.270906 
L 270.510655 50.270906 
L 270.510655 50.068885 
L 270.774151 50.068885 
L 270.774151 49.866864 
L 270.893866 49.866864 
L 270.981062 49.260801 
L 271.223927 49.260801 
L 271.223927 49.05878 
L 271.513952 49.05878 
L 271.618908 48.452716 
L 271.695305 48.452716 
L 271.695305 48.250695 
L 271.810478 48.250695 
L 271.861773 47.846653 
L 271.951949 47.846653 
L 271.951949 47.644632 
L 272.071786 47.644632 
L 272.071786 47.442611 
L 272.696612 47.442611 
L 272.696612 47.24059 
L 272.837357 47.24059 
L 272.930435 46.836548 
L 273.132132 46.836548 
L 273.239961 46.432506 
L 273.271578 46.432506 
L 273.271578 46.230485 
L 273.538483 46.230485 
L 273.538483 46.028464 
L 273.750018 46.028464 
L 273.837839 45.422401 
L 273.900345 45.422401 
L 273.962204 45.018358 
L 274.011871 45.018358 
L 274.011871 44.816337 
L 274.22807 44.816337 
L 274.22807 44.614316 
L 274.418338 44.614316 
L 274.466025 44.210274 
L 274.649717 44.210274 
L 274.649717 44.008253 
L 275.08056 44.008253 
L 275.174087 43.604211 
L 275.22097 43.604211 
L 275.22097 43.40219 
L 275.363613 43.40219 
L 275.363613 43.200169 
L 275.918005 43.200169 
L 275.918005 42.998148 
L 276.056629 42.998148 
L 276.056629 42.796127 
L 276.78949 42.796127 
L 276.78949 42.594106 
L 276.932463 42.594106 
L 276.932463 42.392085 
L 277.361369 42.392085 
L 277.464771 41.786022 
L 277.519897 41.786022 
L 277.519897 41.584001 
L 277.744018 41.584001 
L 277.821675 41.179959 
L 277.890022 41.179959 
L 277.890022 40.977937 
L 278.737532 40.977937 
L 278.737532 40.775916 
L 278.887879 40.775916 
L 278.887879 40.573895 
L 279.471004 40.573895 
L 279.517654 40.169853 
L 279.792689 40.169853 
L 279.792689 39.967832 
L 281.632716 39.967832 
L 281.671986 39.56379 
L 281.944282 39.56379 
L 281.944282 39.361769 
L 284.227855 39.361769 
L 284.227855 39.159748 
L 286.144425 39.159748 
L 286.222083 38.755706 
L 286.38414 38.755706 
L 286.38414 38.553685 
L 287.233451 38.553685 
L 287.288287 38.149643 
L 287.871412 38.149643 
L 287.871412 37.947622 
L 290.033123 37.947622 
L 290.033123 37.745601 
L 294.270187 37.745601 
L 294.270187 37.54358 
L 295.928558 37.54358 
L 295.928558 37.341559 
L 296.108782 37.341559 
L 296.108782 37.139537 
L 297.767153 37.139537 
L 297.767153 36.937516 
L 453.192 36.937516 
L 453.192 36.937516 
" clip-path="url(#pad88ee18b6)" style="fill: none; stroke: #ff0000; stroke-width: 3; stroke-linecap: square"/>
   </g>
   <g id="line2d_24">
    <path clip-path="url(#pad88ee18b6)" style="fill: none; stroke: #ff0000; stroke-width: 3; stroke-linecap: square"/>
   </g>
   <g id="line2d_25">
    <path d="M 243.676 291.28 
L 243.676 3 
" clip-path="url(#pad88ee18b6)" style="fill: none; stroke: #000000; stroke-width: 1.5; stroke-linecap: square"/>
   </g>
   <g id="line2d_26">
    <path d="M 34.16 147.14 
L 453.192 147.14 
" clip-path="url(#pad88ee18b6)" style="fill: none; stroke-dasharray: 2,3.3; stroke-dashoffset: 0; stroke: #000000; stroke-width: 2"/>
   </g>
   <g id="patch_3">
    <path d="M 34.16 291.28 
L 34.16 3 
" style="fill: none; stroke: #000000; stroke-width: 0.8; stroke-linejoin: miter; stroke-linecap: square"/>
   </g>
   <g id="patch_4">
    <path d="M 453.192 291.28 
L 453.192 3 
" style="fill: none; stroke: #000000; stroke-width: 0.8; stroke-linejoin: miter; stroke-linecap: square"/>
   </g>
   <g id="patch_5">
    <path d="M 34.16 291.28 
L 453.192 291.28 
" style="fill: none; stroke: #000000; stroke-width: 0.8; stroke-linejoin: miter; stroke-linecap: square"/>
   </g>
   <g id="patch_6">
    <path d="M 34.16 3 
L 453.192 3 
" style="fill: none; stroke: #000000; stroke-width: 0.8; stroke-linejoin: miter; stroke-linecap: square"/>
   </g>
   <g id="text_6">
    <!-- f1-f24,20-D -->
    <g transform="translate(330.91761 285.5144)scale(0.2 -0.2)">
     <defs>
      <path id="DejaVuSans-34" d="M 2419 4116 
L 825 1625 
L 2419 1625 
L 2419 4116 
z
M 2253 4666 
L 3047 4666 
L 3047 1625 
L 3713 1625 
L 3713 1100 
L 3047 1100 
L 3047 0 
L 2419 0 
L 2419 1100 
L 313 1100 
L 313 1709 
L 2253 4666 
z
" transform="scale(0.015625)"/>
      <path id="DejaVuSans-2c" d="M 750 794 
L 1409 794 
L 1409 256 
L 897 -744 
L 494 -744 
L 750 256 
L 750 794 
z
" transform="scale(0.015625)"/>
      <path id="DejaVuSans-44" d="M 1259 4147 
L 1259 519 
L 2022 519 
Q 2988 519 3436 956 
Q 3884 1394 3884 2338 
Q 3884 3275 3436 3711 
Q 2988 4147 2022 4147 
L 1259 4147 
z
M 628 4666 
L 1925 4666 
Q 3281 4666 3915 4102 
Q 4550 3538 4550 2338 
Q 4550 1131 3912 565 
Q 3275 0 1925 0 
L 628 0 
L 628 4666 
z
" transform="scale(0.015625)"/>
     </defs>
     <use xlink:href="#DejaVuSans-66"/>
     <use xlink:href="#DejaVuSans-31" x="35.205078"/>
     <use xlink:href="#DejaVuSans-2d" x="98.828125"/>
     <use xlink:href="#DejaVuSans-66" x="134.912109"/>
     <use xlink:href="#DejaVuSans-32" x="170.117188"/>
     <use xlink:href="#DejaVuSans-34" x="233.740234"/>
     <use xlink:href="#DejaVuSans-2c" x="297.363281"/>
     <use xlink:href="#DejaVuSans-32" x="329.150391"/>
     <use xlink:href="#DejaVuSans-30" x="392.773438"/>
     <use xlink:href="#DejaVuSans-2d" x="456.396484"/>
     <use xlink:href="#DejaVuSans-44" x="492.480469"/>
    </g>
   </g>
   <g id="text_7">
    <!-- v2.6.1.158 -->
    <g style="fill: #808080" transform="translate(216.861937 286.317512)scale(0.1 -0.1)">
     <defs>
      <path id="DejaVuSans-2e" d="M 684 794 
L 1344 794 
L 1344 0 
L 684 0 
L 684 794 
z
" transform="scale(0.015625)"/>
      <path id="DejaVuSans-36" d="M 2113 2584 
Q 1688 2584 1439 2293 
Q 1191 2003 1191 1497 
Q 1191 994 1439 701 
Q 1688 409 2113 409 
Q 2538 409 2786 701 
Q 3034 994 3034 1497 
Q 3034 2003 2786 2293 
Q 2538 2584 2113 2584 
z
M 3366 4563 
L 3366 3988 
Q 3128 4100 2886 4159 
Q 2644 4219 2406 4219 
Q 1781 4219 1451 3797 
Q 1122 3375 1075 2522 
Q 1259 2794 1537 2939 
Q 1816 3084 2150 3084 
Q 2853 3084 3261 2657 
Q 3669 2231 3669 1497 
Q 3669 778 3244 343 
Q 2819 -91 2113 -91 
Q 1303 -91 875 529 
Q 447 1150 447 2328 
Q 447 3434 972 4092 
Q 1497 4750 2381 4750 
Q 2619 4750 2861 4703 
Q 3103 4656 3366 4563 
z
" transform="scale(0.015625)"/>
      <path id="DejaVuSans-35" d="M 691 4666 
L 3169 4666 
L 3169 4134 
L 1269 4134 
L 1269 2991 
Q 1406 3038 1543 3061 
Q 1681 3084 1819 3084 
Q 2600 3084 3056 2656 
Q 3513 2228 3513 1497 
Q 3513 744 3044 326 
Q 2575 -91 1722 -91 
Q 1428 -91 1123 -41 
Q 819 9 494 109 
L 494 744 
Q 775 591 1075 516 
Q 1375 441 1709 441 
Q 2250 441 2565 725 
Q 2881 1009 2881 1497 
Q 2881 1984 2565 2268 
Q 2250 2553 1709 2553 
Q 1456 2553 1204 2497 
Q 953 2441 691 2322 
L 691 4666 
z
" transform="scale(0.015625)"/>
      <path id="DejaVuSans-38" d="M 2034 2216 
Q 1584 2216 1326 1975 
Q 1069 1734 1069 1313 
Q 1069 891 1326 650 
Q 1584 409 2034 409 
Q 2484 409 2743 651 
Q 3003 894 3003 1313 
Q 3003 1734 2745 1975 
Q 2488 2216 2034 2216 
z
M 1403 2484 
Q 997 2584 770 2862 
Q 544 3141 544 3541 
Q 544 4100 942 4425 
Q 1341 4750 2034 4750 
Q 2731 4750 3128 4425 
Q 3525 4100 3525 3541 
Q 3525 3141 3298 2862 
Q 3072 2584 2669 2484 
Q 3125 2378 3379 2068 
Q 3634 1759 3634 1313 
Q 3634 634 3220 271 
Q 2806 -91 2034 -91 
Q 1263 -91 848 271 
Q 434 634 434 1313 
Q 434 1759 690 2068 
Q 947 2378 1403 2484 
z
M 1172 3481 
Q 1172 3119 1398 2916 
Q 1625 2713 2034 2713 
Q 2441 2713 2670 2916 
Q 2900 3119 2900 3481 
Q 2900 3844 2670 4047 
Q 2441 4250 2034 4250 
Q 1625 4250 1398 4047 
Q 1172 3844 1172 3481 
z
" transform="scale(0.015625)"/>
     </defs>
     <use xlink:href="#DejaVuSans-76"/>
     <use xlink:href="#DejaVuSans-32" x="59.179688"/>
     <use xlink:href="#DejaVuSans-2e" x="122.802734"/>
     <use xlink:href="#DejaVuSans-36" x="154.589844"/>
     <use xlink:href="#DejaVuSans-2e" x="218.212891"/>
     <use xlink:href="#DejaVuSans-31" x="250"/>
     <use xlink:href="#DejaVuSans-2e" x="313.623047"/>
     <use xlink:href="#DejaVuSans-31" x="345.410156"/>
     <use xlink:href="#DejaVuSans-35" x="409.033203"/>
     <use xlink:href="#DejaVuSans-38" x="472.65625"/>
    </g>
   </g>
   <g id="legend_1">
    <g id="patch_7">
     <path d="M 48.16 136.425 
L 202.831875 136.425 
Q 206.831875 136.425 206.831875 132.425 
L 206.831875 17 
Q 206.831875 13 202.831875 13 
L 48.16 13 
Q 44.16 13 44.16 17 
L 44.16 132.425 
Q 44.16 136.425 48.16 136.425 
z
" style="fill: #ffffff; opacity: 0.2; stroke: #cccccc; stroke-linejoin: miter"/>
    </g>
    <g id="line2d_27">
     <path d="M 52.16 29.196875 
L 72.16 29.196875 
L 92.16 29.196875 
" style="fill: none; stroke: #000000; stroke-width: 3; stroke-linecap: square"/>
    </g>
    <g id="text_8">
     <!-- 1: 22/23 -->
     <g transform="translate(108.16 36.196875)scale(0.2 -0.2)">
      <defs>
       <path id="DejaVuSans-3a" d="M 750 794 
L 1409 794 
L 1409 0 
L 750 0 
L 750 794 
z
M 750 3309 
L 1409 3309 
L 1409 2516 
L 750 2516 
L 750 3309 
z
" transform="scale(0.015625)"/>
       <path id="DejaVuSans-2f" d="M 1625 4666 
L 2156 4666 
L 531 -594 
L 0 -594 
L 1625 4666 
z
" transform="scale(0.015625)"/>
       <path id="DejaVuSans-33" d="M 2597 2516 
Q 3050 2419 3304 2112 
Q 3559 1806 3559 1356 
Q 3559 666 3084 287 
Q 2609 -91 1734 -91 
Q 1441 -91 1130 -33 
Q 819 25 488 141 
L 488 750 
Q 750 597 1062 519 
Q 1375 441 1716 441 
Q 2309 441 2620 675 
Q 2931 909 2931 1356 
Q 2931 1769 2642 2001 
Q 2353 2234 1838 2234 
L 1294 2234 
L 1294 2753 
L 1863 2753 
Q 2328 2753 2575 2939 
Q 2822 3125 2822 3475 
Q 2822 3834 2567 4026 
Q 2313 4219 1838 4219 
Q 1578 4219 1281 4162 
Q 984 4106 628 3988 
L 628 4550 
Q 988 4650 1302 4700 
Q 1616 4750 1894 4750 
Q 2613 4750 3031 4423 
Q 3450 4097 3450 3541 
Q 3450 3153 3228 2886 
Q 3006 2619 2597 2516 
z
" transform="scale(0.015625)"/>
      </defs>
      <use xlink:href="#DejaVuSans-31"/>
      <use xlink:href="#DejaVuSans-3a" x="63.623047"/>
      <use xlink:href="#DejaVuSans-20" x="97.314453"/>
      <use xlink:href="#DejaVuSans-32" x="129.101562"/>
      <use xlink:href="#DejaVuSans-32" x="192.724609"/>
      <use xlink:href="#DejaVuSans-2f" x="256.347656"/>
      <use xlink:href="#DejaVuSans-32" x="290.039062"/>
      <use xlink:href="#DejaVuSans-33" x="353.662109"/>
     </g>
    </g>
    <g id="line2d_28">
     <path d="M 52.16 58.553125 
L 72.16 58.553125 
L 92.16 58.553125 
" style="fill: none; stroke: #00bfbf; stroke-width: 3; stroke-linecap: square"/>
    </g>
    <g id="text_9">
     <!-- -1: 20/20 -->
     <g transform="translate(108.16 65.553125)scale(0.2 -0.2)">
      <use xlink:href="#DejaVuSans-2d"/>
      <use xlink:href="#DejaVuSans-31" x="36.083984"/>
      <use xlink:href="#DejaVuSans-3a" x="99.707031"/>
      <use xlink:href="#DejaVuSans-20" x="133.398438"/>
      <use xlink:href="#DejaVuSans-32" x="165.185547"/>
      <use xlink:href="#DejaVuSans-30" x="228.808594"/>
      <use xlink:href="#DejaVuSans-2f" x="292.431641"/>
      <use xlink:href="#DejaVuSans-32" x="326.123047"/>
      <use xlink:href="#DejaVuSans-30" x="389.746094"/>
     </g>
    </g>
    <g id="line2d_29">
     <path d="M 52.16 87.909375 
L 72.16 87.909375 
L 92.16 87.909375 
" style="fill: none; stroke: #bf00bf; stroke-width: 3; stroke-linecap: square"/>
    </g>
    <g id="text_10">
     <!-- -4: 18/19 -->
     <g transform="translate(108.16 94.909375)scale(0.2 -0.2)">
      <defs>
       <path id="DejaVuSans-39" d="M 703 97 
L 703 672 
Q 941 559 1184 500 
Q 1428 441 1663 441 
Q 2288 441 2617 861 
Q 2947 1281 2994 2138 
Q 2813 1869 2534 1725 
Q 2256 1581 1919 1581 
Q 1219 1581 811 2004 
Q 403 2428 403 3163 
Q 403 3881 828 4315 
Q 1253 4750 1959 4750 
Q 2769 4750 3195 4129 
Q 3622 3509 3622 2328 
Q 3622 1225 3098 567 
Q 2575 -91 1691 -91 
Q 1453 -91 1209 -44 
Q 966 3 703 97 
z
M 1959 2075 
Q 2384 2075 2632 2365 
Q 2881 2656 2881 3163 
Q 2881 3666 2632 3958 
Q 2384 4250 1959 4250 
Q 1534 4250 1286 3958 
Q 1038 3666 1038 3163 
Q 1038 2656 1286 2365 
Q 1534 2075 1959 2075 
z
" transform="scale(0.015625)"/>
      </defs>
      <use xlink:href="#DejaVuSans-2d"/>
      <use xlink:href="#DejaVuSans-34" x="36.083984"/>
      <use xlink:href="#DejaVuSans-3a" x="99.707031"/>
      <use xlink:href="#DejaVuSans-20" x="133.398438"/>
      <use xlink:href="#DejaVuSans-31" x="165.185547"/>
      <use xlink:href="#DejaVuSans-38" x="228.808594"/>
      <use xlink:href="#DejaVuSans-2f" x="292.431641"/>
      <use xlink:href="#DejaVuSans-31" x="326.123047"/>
      <use xlink:href="#DejaVuSans-39" x="389.746094"/>
     </g>
    </g>
    <g id="line2d_30">
     <path d="M 52.16 117.265625 
L 72.16 117.265625 
L 92.16 117.265625 
" style="fill: none; stroke: #ff0000; stroke-width: 3; stroke-linecap: square"/>
    </g>
    <g id="text_11">
     <!-- -8: 18/19 -->
     <g transform="translate(108.16 124.265625)scale(0.2 -0.2)">
      <use xlink:href="#DejaVuSans-2d"/>
      <use xlink:href="#DejaVuSans-38" x="36.083984"/>
      <use xlink:href="#DejaVuSans-3a" x="99.707031"/>
      <use xlink:href="#DejaVuSans-20" x="133.398438"/>
      <use xlink:href="#DejaVuSans-31" x="165.185547"/>
      <use xlink:href="#DejaVuSans-38" x="228.808594"/>
      <use xlink:href="#DejaVuSans-2f" x="292.431641"/>
      <use xlink:href="#DejaVuSans-31" x="326.123047"/>
      <use xlink:href="#DejaVuSans-39" x="389.746094"/>
     </g>
    </g>
   </g>
  </g>
 </g>
 <defs>
  <clipPath id="pad88ee18b6">
   <rect x="34.16" y="3" width="419.032" height="288.28"/>
  </clipPath>
 </defs>
</svg>
