<?xml version="1.0" encoding="utf-8" standalone="no"?>
<!DOCTYPE svg PUBLIC "-//W3C//DTD SVG 1.1//EN"
  "http://www.w3.org/Graphics/SVG/1.1/DTD/svg11.dtd">
<svg xmlns:xlink="http://www.w3.org/1999/xlink" width="460.8pt" height="345.6pt" viewBox="0 0 460.8 345.6" xmlns="http://www.w3.org/2000/svg" version="1.1">
 <metadata>
  <rdf:RDF xmlns:dc="http://purl.org/dc/elements/1.1/" xmlns:cc="http://creativecommons.org/ns#" xmlns:rdf="http://www.w3.org/1999/02/22-rdf-syntax-ns#">
   <cc:Work>
    <dc:type rdf:resource="http://purl.org/dc/dcmitype/StillImage"/>
    <dc:date>2023-04-07T14:51:14.883442</dc:date>
    <dc:format>image/svg+xml</dc:format>
    <dc:creator>
     <cc:Agent>
      <dc:title>Matplotlib v3.5.2, https://matplotlib.org/</dc:title>
     </cc:Agent>
    </dc:creator>
   </cc:Work>
  </rdf:RDF>
 </metadata>
 <defs>
  <style type="text/css">*{stroke-linejoin: round; stroke-linecap: butt}</style>
 </defs>
 <g id="figure_1">
  <g id="patch_1">
   <path d="M 0 345.6 
L 460.8 345.6 
L 460.8 0 
L 0 0 
z
" style="fill: #ffffff"/>
  </g>
  <g id="axes_1">
   <g id="patch_2">
    <path d="M 0 293.76 
L 460.8 293.76 
L 460.8 3.456 
L 0 3.456 
z
" style="fill: #ffffff"/>
   </g>
   <g id="matplotlib.axis_1">
    <g id="xtick_1">
     <g id="line2d_1">
      <path d="M 104.471698 293.76 
L 104.471698 3.456 
" clip-path="url(#p083c2e7876)" style="fill: none; stroke: #b0b0b0; stroke-width: 0.8; stroke-linecap: square"/>
     </g>
     <g id="line2d_2">
      <defs>
       <path id="m767eb6ee66" d="M 0 0 
L 0 3.5 
" style="stroke: #000000; stroke-width: 0.8"/>
      </defs>
      <g>
       <use xlink:href="#m767eb6ee66" x="104.471698" y="293.76" style="stroke: #000000; stroke-width: 0.8"/>
      </g>
     </g>
     <g id="text_1">
      <!-- -4 -->
      <g transform="translate(94.501385 315.956875)scale(0.2 -0.2)">
       <defs>
        <path id="DejaVuSans-2d" d="M 313 2009 
L 1997 2009 
L 1997 1497 
L 313 1497 
L 313 2009 
z
" transform="scale(0.015625)"/>
        <path id="DejaVuSans-34" d="M 2419 4116 
L 825 1625 
L 2419 1625 
L 2419 4116 
z
M 2253 4666 
L 3047 4666 
L 3047 1625 
L 3713 1625 
L 3713 1100 
L 3047 1100 
L 3047 0 
L 2419 0 
L 2419 1100 
L 313 1100 
L 313 1709 
L 2253 4666 
z
" transform="scale(0.015625)"/>
       </defs>
       <use xlink:href="#DejaVuSans-2d"/>
       <use xlink:href="#DejaVuSans-34" x="36.083984"/>
      </g>
     </g>
    </g>
    <g id="xtick_2">
     <g id="line2d_3">
      <path d="M 209.056382 293.76 
L 209.056382 3.456 
" clip-path="url(#p083c2e7876)" style="fill: none; stroke: #b0b0b0; stroke-width: 0.8; stroke-linecap: square"/>
     </g>
     <g id="line2d_4">
      <g>
       <use xlink:href="#m767eb6ee66" x="209.056382" y="293.76" style="stroke: #000000; stroke-width: 0.8"/>
      </g>
     </g>
     <g id="text_2">
      <!-- 0 -->
      <g transform="translate(202.693882 315.956875)scale(0.2 -0.2)">
       <defs>
        <path id="DejaVuSans-30" d="M 2034 4250 
Q 1547 4250 1301 3770 
Q 1056 3291 1056 2328 
Q 1056 1369 1301 889 
Q 1547 409 2034 409 
Q 2525 409 2770 889 
Q 3016 1369 3016 2328 
Q 3016 3291 2770 3770 
Q 2525 4250 2034 4250 
z
M 2034 4750 
Q 2819 4750 3233 4129 
Q 3647 3509 3647 2328 
Q 3647 1150 3233 529 
Q 2819 -91 2034 -91 
Q 1250 -91 836 529 
Q 422 1150 422 2328 
Q 422 3509 836 4129 
Q 1250 4750 2034 4750 
z
" transform="scale(0.015625)"/>
       </defs>
       <use xlink:href="#DejaVuSans-30"/>
      </g>
     </g>
    </g>
    <g id="xtick_3">
     <g id="line2d_5">
      <path d="M 313.641067 293.76 
L 313.641067 3.456 
" clip-path="url(#p083c2e7876)" style="fill: none; stroke: #b0b0b0; stroke-width: 0.8; stroke-linecap: square"/>
     </g>
     <g id="line2d_6">
      <g>
       <use xlink:href="#m767eb6ee66" x="313.641067" y="293.76" style="stroke: #000000; stroke-width: 0.8"/>
      </g>
     </g>
     <g id="text_3">
      <!-- 4 -->
      <g transform="translate(307.278567 315.956875)scale(0.2 -0.2)">
       <use xlink:href="#DejaVuSans-34"/>
      </g>
     </g>
    </g>
    <g id="xtick_4">
     <g id="line2d_7">
      <path d="M 418.225752 293.76 
L 418.225752 3.456 
" clip-path="url(#p083c2e7876)" style="fill: none; stroke: #b0b0b0; stroke-width: 0.8; stroke-linecap: square"/>
     </g>
     <g id="line2d_8">
      <g>
       <use xlink:href="#m767eb6ee66" x="418.225752" y="293.76" style="stroke: #000000; stroke-width: 0.8"/>
      </g>
     </g>
     <g id="text_4">
      <!-- 8 -->
      <g transform="translate(411.863252 315.956875)scale(0.2 -0.2)">
       <defs>
        <path id="DejaVuSans-38" d="M 2034 2216 
Q 1584 2216 1326 1975 
Q 1069 1734 1069 1313 
Q 1069 891 1326 650 
Q 1584 409 2034 409 
Q 2484 409 2743 651 
Q 3003 894 3003 1313 
Q 3003 1734 2745 1975 
Q 2488 2216 2034 2216 
z
M 1403 2484 
Q 997 2584 770 2862 
Q 544 3141 544 3541 
Q 544 4100 942 4425 
Q 1341 4750 2034 4750 
Q 2731 4750 3128 4425 
Q 3525 4100 3525 3541 
Q 3525 3141 3298 2862 
Q 3072 2584 2669 2484 
Q 3125 2378 3379 2068 
Q 3634 1759 3634 1313 
Q 3634 634 3220 271 
Q 2806 -91 2034 -91 
Q 1263 -91 848 271 
Q 434 634 434 1313 
Q 434 1759 690 2068 
Q 947 2378 1403 2484 
z
M 1172 3481 
Q 1172 3119 1398 2916 
Q 1625 2713 2034 2713 
Q 2441 2713 2670 2916 
Q 2900 3119 2900 3481 
Q 2900 3844 2670 4047 
Q 2441 4250 2034 4250 
Q 1625 4250 1398 4047 
Q 1172 3844 1172 3481 
z
" transform="scale(0.015625)"/>
       </defs>
       <use xlink:href="#DejaVuSans-38"/>
      </g>
     </g>
    </g>
    <g id="text_5">
     <!-- log10 of Df -->
     <g transform="translate(175.214063 339.313125)scale(0.2 -0.2)">
      <defs>
       <path id="DejaVuSans-6c" d="M 603 4863 
L 1178 4863 
L 1178 0 
L 603 0 
L 603 4863 
z
" transform="scale(0.015625)"/>
       <path id="DejaVuSans-6f" d="M 1959 3097 
Q 1497 3097 1228 2736 
Q 959 2375 959 1747 
Q 959 1119 1226 758 
Q 1494 397 1959 397 
Q 2419 397 2687 759 
Q 2956 1122 2956 1747 
Q 2956 2369 2687 2733 
Q 2419 3097 1959 3097 
z
M 1959 3584 
Q 2709 3584 3137 3096 
Q 3566 2609 3566 1747 
Q 3566 888 3137 398 
Q 2709 -91 1959 -91 
Q 1206 -91 779 398 
Q 353 888 353 1747 
Q 353 2609 779 3096 
Q 1206 3584 1959 3584 
z
" transform="scale(0.015625)"/>
       <path id="DejaVuSans-67" d="M 2906 1791 
Q 2906 2416 2648 2759 
Q 2391 3103 1925 3103 
Q 1463 3103 1205 2759 
Q 947 2416 947 1791 
Q 947 1169 1205 825 
Q 1463 481 1925 481 
Q 2391 481 2648 825 
Q 2906 1169 2906 1791 
z
M 3481 434 
Q 3481 -459 3084 -895 
Q 2688 -1331 1869 -1331 
Q 1566 -1331 1297 -1286 
Q 1028 -1241 775 -1147 
L 775 -588 
Q 1028 -725 1275 -790 
Q 1522 -856 1778 -856 
Q 2344 -856 2625 -561 
Q 2906 -266 2906 331 
L 2906 616 
Q 2728 306 2450 153 
Q 2172 0 1784 0 
Q 1141 0 747 490 
Q 353 981 353 1791 
Q 353 2603 747 3093 
Q 1141 3584 1784 3584 
Q 2172 3584 2450 3431 
Q 2728 3278 2906 2969 
L 2906 3500 
L 3481 3500 
L 3481 434 
z
" transform="scale(0.015625)"/>
       <path id="DejaVuSans-31" d="M 794 531 
L 1825 531 
L 1825 4091 
L 703 3866 
L 703 4441 
L 1819 4666 
L 2450 4666 
L 2450 531 
L 3481 531 
L 3481 0 
L 794 0 
L 794 531 
z
" transform="scale(0.015625)"/>
       <path id="DejaVuSans-20" transform="scale(0.015625)"/>
       <path id="DejaVuSans-66" d="M 2375 4863 
L 2375 4384 
L 1825 4384 
Q 1516 4384 1395 4259 
Q 1275 4134 1275 3809 
L 1275 3500 
L 2222 3500 
L 2222 3053 
L 1275 3053 
L 1275 0 
L 697 0 
L 697 3053 
L 147 3053 
L 147 3500 
L 697 3500 
L 697 3744 
Q 697 4328 969 4595 
Q 1241 4863 1831 4863 
L 2375 4863 
z
" transform="scale(0.015625)"/>
       <path id="DejaVuSans-44" d="M 1259 4147 
L 1259 519 
L 2022 519 
Q 2988 519 3436 956 
Q 3884 1394 3884 2338 
Q 3884 3275 3436 3711 
Q 2988 4147 2022 4147 
L 1259 4147 
z
M 628 4666 
L 1925 4666 
Q 3281 4666 3915 4102 
Q 4550 3538 4550 2338 
Q 4550 1131 3912 565 
Q 3275 0 1925 0 
L 628 0 
L 628 4666 
z
" transform="scale(0.015625)"/>
      </defs>
      <use xlink:href="#DejaVuSans-6c"/>
      <use xlink:href="#DejaVuSans-6f" x="27.783203"/>
      <use xlink:href="#DejaVuSans-67" x="88.964844"/>
      <use xlink:href="#DejaVuSans-31" x="152.441406"/>
      <use xlink:href="#DejaVuSans-30" x="216.064453"/>
      <use xlink:href="#DejaVuSans-20" x="279.6875"/>
      <use xlink:href="#DejaVuSans-6f" x="311.474609"/>
      <use xlink:href="#DejaVuSans-66" x="372.65625"/>
      <use xlink:href="#DejaVuSans-20" x="407.861328"/>
      <use xlink:href="#DejaVuSans-44" x="439.648438"/>
      <use xlink:href="#DejaVuSans-66" x="516.650391"/>
     </g>
    </g>
   </g>
   <g id="matplotlib.axis_2">
    <g id="ytick_1">
     <g id="line2d_9">
      <path d="M 0 293.76 
L 460.8 293.76 
" clip-path="url(#p083c2e7876)" style="fill: none; stroke: #b0b0b0; stroke-width: 0.8; stroke-linecap: square"/>
     </g>
     <g id="line2d_10">
      <defs>
       <path id="me4572ad1a5" d="M 0 0 
L -3.5 0 
" style="stroke: #000000; stroke-width: 0.8"/>
      </defs>
      <g>
       <use xlink:href="#me4572ad1a5" x="0" y="293.76" style="stroke: #000000; stroke-width: 0.8"/>
      </g>
     </g>
    </g>
    <g id="ytick_2">
     <g id="line2d_11">
      <path d="M 0 236.274059 
L 460.8 236.274059 
" clip-path="url(#p083c2e7876)" style="fill: none; stroke: #b0b0b0; stroke-width: 0.8; stroke-linecap: square"/>
     </g>
     <g id="line2d_12">
      <g>
       <use xlink:href="#me4572ad1a5" x="0" y="236.274059" style="stroke: #000000; stroke-width: 0.8"/>
      </g>
     </g>
    </g>
    <g id="ytick_3">
     <g id="line2d_13">
      <path d="M 0 178.788119 
L 460.8 178.788119 
" clip-path="url(#p083c2e7876)" style="fill: none; stroke: #b0b0b0; stroke-width: 0.8; stroke-linecap: square"/>
     </g>
     <g id="line2d_14">
      <g>
       <use xlink:href="#me4572ad1a5" x="0" y="178.788119" style="stroke: #000000; stroke-width: 0.8"/>
      </g>
     </g>
    </g>
    <g id="ytick_4">
     <g id="line2d_15">
      <path d="M 0 121.302178 
L 460.8 121.302178 
" clip-path="url(#p083c2e7876)" style="fill: none; stroke: #b0b0b0; stroke-width: 0.8; stroke-linecap: square"/>
     </g>
     <g id="line2d_16">
      <g>
       <use xlink:href="#me4572ad1a5" x="0" y="121.302178" style="stroke: #000000; stroke-width: 0.8"/>
      </g>
     </g>
    </g>
    <g id="ytick_5">
     <g id="line2d_17">
      <path d="M 0 63.816238 
L 460.8 63.816238 
" clip-path="url(#p083c2e7876)" style="fill: none; stroke: #b0b0b0; stroke-width: 0.8; stroke-linecap: square"/>
     </g>
     <g id="line2d_18">
      <g>
       <use xlink:href="#me4572ad1a5" x="0" y="63.816238" style="stroke: #000000; stroke-width: 0.8"/>
      </g>
     </g>
    </g>
    <g id="ytick_6">
     <g id="line2d_19">
      <path d="M 0 6.330297 
L 460.8 6.330297 
" clip-path="url(#p083c2e7876)" style="fill: none; stroke: #b0b0b0; stroke-width: 0.8; stroke-linecap: square"/>
     </g>
     <g id="line2d_20">
      <g>
       <use xlink:href="#me4572ad1a5" x="0" y="6.330297" style="stroke: #000000; stroke-width: 0.8"/>
      </g>
     </g>
    </g>
   </g>
   <g id="line2d_21">
    <path d="M -1 117.469782 
L -0.694378 117.469782 
L -0.602273 109.80499 
L -0.539841 109.80499 
L -0.453547 102.140198 
L -0.426302 102.140198 
L -0.333704 71.48103 
L -0.314552 71.48103 
L -0.203868 44.654257 
L -0.195445 44.654257 
L -0.127672 6.330297 
L -0.127672 6.330297 
L 460.8 6.330297 
L 460.8 6.330297 
" clip-path="url(#p083c2e7876)" style="fill: none; stroke: #ff0000; stroke-width: 3; stroke-linecap: square"/>
   </g>
   <g id="line2d_22">
    <path d="M 243.536215 293.76 
L 243.536215 289.927604 
L 244.435626 289.927604 
L 244.435626 286.095208 
L 245.449005 286.095208 
L 245.449005 282.262812 
L 246.943909 282.262812 
L 246.943909 278.430416 
L 248.49846 278.430416 
L 248.49846 274.59802 
L 249.648988 274.59802 
L 249.648988 270.765624 
L 249.998284 270.765624 
L 249.998284 266.933228 
L 250.849467 266.933228 
L 250.849467 263.100832 
L 251.427858 263.100832 
L 251.427858 259.268436 
L 252.621661 259.268436 
L 252.621661 255.43604 
L 253.499353 255.43604 
L 253.499353 251.603644 
L 253.659222 251.603644 
L 253.659222 247.771248 
L 256.424326 247.771248 
L 256.424326 243.938851 
L 257.824732 243.938851 
L 257.824732 240.106455 
L 261.473809 240.106455 
L 261.473809 236.274059 
L 280.37616 236.274059 
L 280.37616 232.441663 
L 293.380788 232.441663 
L 293.380788 228.609267 
L 293.502524 228.609267 
L 293.50661 220.944475 
L 293.736169 220.944475 
L 293.736169 217.112079 
L 294.003851 217.112079 
L 294.073836 209.447287 
L 294.235905 209.447287 
L 294.235905 205.614891 
L 294.629771 205.614891 
L 294.637141 197.950099 
L 294.921587 197.950099 
L 295.030712 190.285307 
L 295.068414 190.285307 
L 295.072226 182.620515 
L 295.678878 182.620515 
L 295.678878 178.788119 
L 297.021923 178.788119 
L 297.021923 174.955723 
L 307.163562 174.955723 
L 307.163562 171.123327 
L 310.677617 171.123327 
L 310.677617 167.290931 
L 317.353664 167.290931 
L 317.353664 163.458535 
L 322.217504 163.458535 
L 322.217504 159.626139 
L 331.713885 159.626139 
L 331.713885 155.793743 
L 335.237864 155.793743 
L 335.237864 151.961347 
L 336.692638 151.961347 
L 336.692638 148.12895 
L 337.120461 148.12895 
L 337.120461 144.296554 
L 339.14674 144.296554 
L 339.14674 140.464158 
L 343.922588 140.464158 
L 343.922588 136.631762 
L 345.555197 136.631762 
L 345.555197 132.799366 
L 360.383743 132.799366 
L 360.383743 128.96697 
L 360.735646 128.96697 
L 360.735646 125.134574 
L 363.280846 125.134574 
L 363.280846 121.302178 
L 365.187783 121.302178 
L 365.187783 117.469782 
L 367.714726 117.469782 
L 367.714726 113.637386 
L 368.066648 113.637386 
L 368.066648 109.80499 
L 369.274897 109.80499 
L 369.274897 105.972594 
L 376.670455 105.972594 
L 376.670455 102.140198 
L 378.608888 102.140198 
L 378.608888 98.307802 
L 378.887503 98.307802 
L 378.887503 94.475406 
L 382.583301 94.475406 
L 382.583301 90.64301 
L 382.778919 90.64301 
L 382.778919 86.810614 
L 383.485682 86.810614 
L 383.485682 82.978218 
L 386.557696 82.978218 
L 386.557696 79.145822 
L 389.216804 79.145822 
L 389.216804 75.313426 
L 389.749078 75.313426 
L 389.749078 71.48103 
L 390.481611 71.48103 
L 390.481611 67.648634 
L 396.441634 67.648634 
L 396.441634 63.816238 
L 417.158027 63.816238 
L 417.158027 59.983842 
L 418.616866 59.983842 
L 418.616866 56.151446 
L 419.788432 56.151446 
L 419.788432 52.31905 
L 420.399833 52.31905 
L 420.483513 44.654257 
L 422.503993 44.654257 
L 422.503993 40.821861 
L 422.790834 40.821861 
L 422.790834 36.989465 
L 423.956276 36.989465 
L 423.956276 33.157069 
L 424.075814 33.157069 
L 424.075814 29.324673 
L 424.280968 29.324673 
L 424.280968 25.492277 
L 426.975043 25.492277 
L 426.975043 21.659881 
L 427.24092 21.659881 
L 427.24092 17.827485 
L 430.154534 17.827485 
L 430.154534 13.995089 
L 432.998869 13.995089 
L 432.998869 10.162693 
L 433.6161 10.162693 
L 433.6161 6.330297 
L 433.6161 6.330297 
L 460.8 6.330297 
L 460.8 6.330297 
" clip-path="url(#p083c2e7876)" style="fill: none; stroke: #00bfbf; stroke-width: 1.5; stroke-linecap: square"/>
   </g>
   <g id="line2d_23">
    <path d="M 243.536215 293.76 
L 243.536215 289.927604 
L 244.435626 289.927604 
L 244.435626 286.095208 
L 245.449005 286.095208 
L 245.449005 282.262812 
L 245.945352 282.262812 
L 245.945352 278.430416 
L 246.943909 278.430416 
L 246.943909 274.59802 
L 247.583459 274.59802 
L 247.583459 270.765624 
L 247.810705 270.765624 
L 247.810705 266.933228 
L 248.298068 266.933228 
L 248.298068 263.100832 
L 248.976052 263.100832 
L 248.976052 259.268436 
L 249.648988 259.268436 
L 249.721019 251.603644 
L 251.427858 251.603644 
L 251.427858 247.771248 
L 253.659222 247.771248 
L 253.659222 243.938851 
L 256.902804 243.938851 
L 256.902804 240.106455 
L 260.337482 240.106455 
L 260.337482 236.274059 
L 278.548462 236.274059 
L 278.548462 232.441663 
L 280.37616 232.441663 
L 280.37616 228.609267 
L 281.334909 228.609267 
L 281.334909 224.776871 
L 285.843893 224.776871 
L 285.843893 220.944475 
L 290.945365 220.944475 
L 290.945365 217.112079 
L 292.840615 217.112079 
L 292.840615 213.279683 
L 293.380788 213.279683 
L 293.465543 205.614891 
L 293.502524 205.614891 
L 293.502524 201.782495 
L 293.780343 201.782495 
L 293.859357 194.117703 
L 294.003851 194.117703 
L 294.003851 190.285307 
L 294.235905 190.285307 
L 294.330073 182.620515 
L 294.629771 182.620515 
L 294.637141 174.955723 
L 294.921587 174.955723 
L 294.921587 171.123327 
L 295.678878 171.123327 
L 295.678878 167.290931 
L 297.021923 167.290931 
L 297.021923 163.458535 
L 301.139191 163.458535 
L 301.139191 159.626139 
L 302.220049 159.626139 
L 302.220049 155.793743 
L 306.644901 155.793743 
L 306.644901 151.961347 
L 307.163562 151.961347 
L 307.163562 148.12895 
L 310.337785 148.12895 
L 310.337785 144.296554 
L 311.715722 144.296554 
L 311.715722 140.464158 
L 317.353664 140.464158 
L 317.353664 136.631762 
L 325.986977 136.631762 
L 325.986977 132.799366 
L 331.713885 132.799366 
L 331.713885 128.96697 
L 343.922588 128.96697 
L 343.922588 125.134574 
L 358.139907 125.134574 
L 358.139907 121.302178 
L 363.280846 121.302178 
L 363.280846 117.469782 
L 365.187783 117.469782 
L 365.187783 113.637386 
L 366.478671 113.637386 
L 366.478671 109.80499 
L 367.714726 109.80499 
L 367.714726 105.972594 
L 368.066648 105.972594 
L 368.066648 102.140198 
L 369.274897 102.140198 
L 369.274897 98.307802 
L 375.733005 98.307802 
L 375.733005 94.475406 
L 376.670455 94.475406 
L 376.670455 90.64301 
L 378.887503 90.64301 
L 378.887503 86.810614 
L 379.798553 86.810614 
L 379.798553 82.978218 
L 381.379832 82.978218 
L 381.379832 79.145822 
L 385.416174 79.145822 
L 385.416174 75.313426 
L 385.793865 75.313426 
L 385.887731 67.648634 
L 389.216804 67.648634 
L 389.216804 63.816238 
L 417.158027 63.816238 
L 417.158027 59.983842 
L 417.378562 59.983842 
L 417.378562 56.151446 
L 417.490942 56.151446 
L 417.490942 52.31905 
L 418.616866 52.31905 
L 418.616866 48.486653 
L 420.095298 48.486653 
L 420.095298 44.654257 
L 420.82483 44.654257 
L 420.82483 40.821861 
L 421.398592 40.821861 
L 421.398592 36.989465 
L 422.097697 36.989465 
L 422.165681 29.324673 
L 422.258335 29.324673 
L 422.258335 25.492277 
L 424.370429 25.492277 
L 424.370429 21.659881 
L 425.29432 21.659881 
L 425.29432 17.827485 
L 426.975043 17.827485 
L 426.975043 13.995089 
L 429.078233 13.995089 
L 429.078233 10.162693 
L 431.108273 10.162693 
L 431.108273 6.330297 
L 431.108273 6.330297 
L 460.8 6.330297 
L 460.8 6.330297 
" clip-path="url(#p083c2e7876)" style="fill: none; stroke: #bf00bf; stroke-width: 1.5; stroke-linecap: square"/>
   </g>
   <g id="line2d_24">
    <path d="M 242.503905 293.76 
L 242.503905 289.927604 
L 243.536215 289.927604 
L 243.536215 286.095208 
L 244.174418 286.095208 
L 244.174418 282.262812 
L 244.435626 282.262812 
L 244.435626 278.430416 
L 244.791574 278.430416 
L 244.791574 274.59802 
L 245.449005 274.59802 
L 245.449005 270.765624 
L 245.608884 270.765624 
L 245.608884 266.933228 
L 245.794566 266.933228 
L 245.810913 259.268436 
L 246.943909 259.268436 
L 246.943909 255.43604 
L 247.090352 255.43604 
L 247.090352 251.603644 
L 247.810705 251.603644 
L 247.810705 247.771248 
L 251.178065 247.771248 
L 251.178065 243.938851 
L 252.150126 243.938851 
L 252.150126 240.106455 
L 253.076466 240.106455 
L 253.076466 236.274059 
L 264.41461 236.274059 
L 264.41461 232.441663 
L 269.257622 232.441663 
L 269.257622 228.609267 
L 274.367555 228.609267 
L 274.367555 224.776871 
L 278.548462 224.776871 
L 278.548462 220.944475 
L 280.37616 220.944475 
L 280.37616 217.112079 
L 281.334909 217.112079 
L 281.334909 213.279683 
L 285.486038 213.279683 
L 285.486038 209.447287 
L 285.843893 209.447287 
L 285.843893 205.614891 
L 288.771833 205.614891 
L 288.771833 201.782495 
L 290.368076 201.782495 
L 290.368076 197.950099 
L 291.872802 197.950099 
L 291.872802 194.117703 
L 292.105539 194.117703 
L 292.105539 190.285307 
L 292.323551 190.285307 
L 292.323551 186.452911 
L 292.840615 186.452911 
L 292.840615 182.620515 
L 293.073831 182.620515 
L 293.073831 178.788119 
L 293.328404 178.788119 
L 293.430929 167.290931 
L 293.465543 167.290931 
L 293.465543 163.458535 
L 293.614884 163.458535 
L 293.614884 159.626139 
L 293.749491 159.626139 
L 293.749491 155.793743 
L 294.560485 155.793743 
L 294.560485 151.961347 
L 295.485968 151.961347 
L 295.485968 148.12895 
L 296.147275 148.12895 
L 296.147275 144.296554 
L 301.950269 144.296554 
L 301.950269 140.464158 
L 303.682224 140.464158 
L 303.682224 136.631762 
L 307.163562 136.631762 
L 307.163562 132.799366 
L 310.337785 132.799366 
L 310.337785 128.96697 
L 317.353664 128.96697 
L 317.383831 121.302178 
L 351.561843 121.302178 
L 351.561843 117.469782 
L 359.051928 117.469782 
L 359.051928 113.637386 
L 363.280846 113.637386 
L 363.280846 109.80499 
L 365.187783 109.80499 
L 365.187783 105.972594 
L 366.26703 105.972594 
L 366.26703 102.140198 
L 367.714726 102.140198 
L 367.714726 98.307802 
L 368.863438 98.307802 
L 368.863438 94.475406 
L 369.222794 94.475406 
L 369.274089 86.810614 
L 371.352994 86.810614 
L 371.352994 82.978218 
L 371.473406 82.978218 
L 371.473406 79.145822 
L 373.105605 79.145822 
L 373.105605 75.313426 
L 373.414628 75.313426 
L 373.414628 71.48103 
L 375.869415 71.48103 
L 375.869415 67.648634 
L 381.379832 67.648634 
L 381.379832 63.816238 
L 407.471841 63.816238 
L 407.471841 59.983842 
L 410.108958 59.983842 
L 410.108958 56.151446 
L 410.718521 56.151446 
L 410.718521 52.31905 
L 411.675424 52.31905 
L 411.675424 48.486653 
L 412.965747 48.486653 
L 412.965747 44.654257 
L 413.436515 44.654257 
L 413.436515 40.821861 
L 414.320368 40.821861 
L 414.320368 36.989465 
L 415.172802 36.989465 
L 415.172802 33.157069 
L 416.454039 33.157069 
L 416.454039 29.324673 
L 416.858043 29.324673 
L 416.858043 25.492277 
L 417.776405 25.492277 
L 417.776405 21.659881 
L 418.582901 21.659881 
L 418.582901 17.827485 
L 418.856766 17.827485 
L 418.856766 13.995089 
L 420.350693 13.995089 
L 420.350693 10.162693 
L 423.304341 10.162693 
L 423.304341 6.330297 
L 423.304341 6.330297 
L 460.8 6.330297 
L 460.8 6.330297 
" clip-path="url(#p083c2e7876)" style="fill: none; stroke: #000000; stroke-width: 1.5; stroke-linecap: square"/>
   </g>
   <g id="line2d_25">
    <path d="M 229.76918 293.76 
L 229.76918 289.927604 
L 232.270832 289.927604 
L 232.270832 286.095208 
L 233.29879 286.095208 
L 233.29879 282.262812 
L 233.535256 282.262812 
L 233.535256 278.430416 
L 234.197037 278.430416 
L 234.197037 274.59802 
L 234.938463 274.59802 
L 234.938463 270.765624 
L 236.65412 270.765624 
L 236.65412 266.933228 
L 237.756643 266.933228 
L 237.756643 263.100832 
L 239.503097 263.100832 
L 239.503097 259.268436 
L 240.546972 259.268436 
L 240.546972 255.43604 
L 241.417134 255.43604 
L 241.417134 251.603644 
L 242.042544 251.603644 
L 242.042544 247.771248 
L 242.497486 247.771248 
L 242.497486 243.938851 
L 244.535029 243.938851 
L 244.535029 240.106455 
L 247.496732 240.106455 
L 247.496732 236.274059 
L 264.41461 236.274059 
L 264.41461 232.441663 
L 269.257622 232.441663 
L 269.257622 228.609267 
L 271.341214 228.609267 
L 271.341214 224.776871 
L 273.306723 224.776871 
L 273.306723 220.944475 
L 274.367555 220.944475 
L 274.367555 217.112079 
L 277.557799 217.112079 
L 277.557799 213.279683 
L 278.548462 213.279683 
L 278.548462 209.447287 
L 278.809479 209.447287 
L 278.809479 205.614891 
L 279.9904 205.614891 
L 279.9904 201.782495 
L 280.37616 201.782495 
L 280.37616 197.950099 
L 281.334909 197.950099 
L 281.378255 190.285307 
L 281.76383 190.285307 
L 281.76383 186.452911 
L 284.908892 186.452911 
L 284.927023 178.788119 
L 285.109432 178.788119 
L 285.109432 174.955723 
L 285.486038 174.955723 
L 285.486038 171.123327 
L 285.885584 171.123327 
L 285.885584 167.290931 
L 286.624265 167.290931 
L 286.665803 159.626139 
L 286.977755 159.626139 
L 286.977755 155.793743 
L 287.940168 155.793743 
L 287.986014 148.12895 
L 288.193168 148.12895 
L 288.193168 144.296554 
L 288.533904 144.296554 
L 288.533904 140.464158 
L 289.055282 140.464158 
L 289.063915 132.799366 
L 289.643955 132.799366 
L 289.643955 128.96697 
L 305.470815 128.96697 
L 305.470815 125.134574 
L 307.163562 125.134574 
L 307.163562 121.302178 
L 348.669631 121.302178 
L 348.669631 117.469782 
L 353.24679 117.469782 
L 353.24679 113.637386 
L 359.051928 113.637386 
L 359.103197 105.972594 
L 359.749949 105.972594 
L 359.749949 102.140198 
L 361.722239 102.140198 
L 361.793813 94.475406 
L 362.299888 94.475406 
L 362.299888 90.64301 
L 363.280846 90.64301 
L 363.280846 86.810614 
L 364.168454 86.810614 
L 364.168454 82.978218 
L 365.003064 82.978218 
L 365.003064 79.145822 
L 365.33393 79.145822 
L 365.33393 75.313426 
L 368.184658 75.313426 
L 368.184658 71.48103 
L 369.274089 71.48103 
L 369.274089 67.648634 
L 370.400592 67.648634 
L 370.400592 63.816238 
L 394.673533 63.816238 
L 394.673533 59.983842 
L 396.306739 59.983842 
L 396.306739 56.151446 
L 396.808893 56.151446 
L 396.808893 52.31905 
L 397.528844 52.31905 
L 397.528844 48.486653 
L 397.92124 48.486653 
L 397.92124 44.654257 
L 399.240794 44.654257 
L 399.240794 40.821861 
L 400.691036 40.821861 
L 400.691036 36.989465 
L 400.976782 36.989465 
L 400.976782 33.157069 
L 401.583888 33.157069 
L 401.583888 29.324673 
L 402.206703 29.324673 
L 402.206703 25.492277 
L 404.752144 25.492277 
L 404.78112 17.827485 
L 406.052675 17.827485 
L 406.052675 13.995089 
L 407.47035 13.995089 
L 407.47035 10.162693 
L 418.582901 10.162693 
L 418.582901 6.330297 
L 418.582901 6.330297 
L 460.8 6.330297 
L 460.8 6.330297 
" clip-path="url(#p083c2e7876)" style="fill: none; stroke: #00bfbf; stroke-width: 1.5; stroke-linecap: square"/>
   </g>
   <g id="line2d_26">
    <path d="M 141.651128 293.76 
L 141.651128 289.927604 
L 143.7106 289.927604 
L 143.7106 286.095208 
L 146.178917 286.095208 
L 146.178917 282.262812 
L 146.517339 282.262812 
L 146.517339 278.430416 
L 150.220485 278.430416 
L 150.220485 274.59802 
L 151.380899 274.59802 
L 151.380899 270.765624 
L 151.623415 270.765624 
L 151.623415 266.933228 
L 152.073722 266.933228 
L 152.089965 259.268436 
L 152.67458 259.268436 
L 152.77966 251.603644 
L 153.136569 251.603644 
L 153.136569 247.771248 
L 155.130434 247.771248 
L 155.130434 243.938851 
L 157.667009 243.938851 
L 157.667009 240.106455 
L 158.314797 240.106455 
L 158.314797 236.274059 
L 205.156143 236.274059 
L 205.156143 232.441663 
L 214.248732 232.441663 
L 214.269732 224.776871 
L 216.990175 224.776871 
L 216.990175 220.944475 
L 217.497794 220.944475 
L 217.497794 217.112079 
L 217.886685 217.112079 
L 217.886685 213.279683 
L 219.192375 213.279683 
L 219.192375 209.447287 
L 221.448621 209.447287 
L 221.448621 205.614891 
L 221.987205 205.614891 
L 222.076022 197.950099 
L 223.919853 197.950099 
L 223.919853 194.117703 
L 229.440347 194.117703 
L 229.440347 190.285307 
L 229.858268 190.285307 
L 229.858268 186.452911 
L 230.643372 186.452911 
L 230.643372 182.620515 
L 233.741305 182.620515 
L 233.741305 178.788119 
L 234.677155 178.788119 
L 234.677155 174.955723 
L 237.585129 174.955723 
L 237.585129 171.123327 
L 238.609792 171.123327 
L 238.693714 159.626139 
L 240.446318 159.626139 
L 240.446318 155.793743 
L 241.735298 155.793743 
L 241.735298 151.961347 
L 244.840797 151.961347 
L 244.840797 148.12895 
L 246.828293 148.12895 
L 246.828293 144.296554 
L 247.712658 144.296554 
L 247.712658 140.464158 
L 255.199794 140.464158 
L 255.199794 136.631762 
L 257.68962 136.631762 
L 257.68962 132.799366 
L 264.41461 132.799366 
L 264.41461 128.96697 
L 269.257622 128.96697 
L 269.257622 125.134574 
L 270.388619 125.134574 
L 270.388619 121.302178 
L 271.221084 121.302178 
L 271.221084 117.469782 
L 271.341214 117.469782 
L 271.341214 113.637386 
L 272.19764 113.637386 
L 272.19764 109.80499 
L 272.802134 109.80499 
L 272.802134 105.972594 
L 274.367555 105.972594 
L 274.367555 102.140198 
L 274.890698 102.140198 
L 274.890698 98.307802 
L 276.790227 98.307802 
L 276.790227 94.475406 
L 277.351141 94.475406 
L 277.351141 90.64301 
L 278.462179 90.64301 
L 278.548462 82.978218 
L 279.9904 82.978218 
L 279.9904 79.145822 
L 280.37616 79.145822 
L 280.37616 75.313426 
L 280.919028 75.313426 
L 280.919028 71.48103 
L 281.76383 71.48103 
L 281.76383 67.648634 
L 286.182536 67.648634 
L 286.182536 63.816238 
L 305.852847 63.816238 
L 305.852847 59.983842 
L 309.692648 59.983842 
L 309.692648 56.151446 
L 310.788914 56.151446 
L 310.788914 52.31905 
L 313.040837 52.31905 
L 313.040837 48.486653 
L 313.452301 48.486653 
L 313.452301 44.654257 
L 316.066654 44.654257 
L 316.066654 40.821861 
L 318.669141 40.821861 
L 318.669141 36.989465 
L 319.832745 36.989465 
L 319.832745 33.157069 
L 320.009781 33.157069 
L 320.009781 29.324673 
L 320.405489 29.324673 
L 320.405489 25.492277 
L 322.786484 25.492277 
L 322.786484 21.659881 
L 323.72195 21.659881 
L 323.72195 17.827485 
L 324.833977 17.827485 
L 324.833977 13.995089 
L 325.932597 13.995089 
L 325.932597 10.162693 
L 326.246048 10.162693 
L 326.246048 6.330297 
L 326.246048 6.330297 
L 460.8 6.330297 
L 460.8 6.330297 
" clip-path="url(#p083c2e7876)" style="fill: none; stroke: #bf00bf; stroke-width: 1.5; stroke-linecap: square"/>
   </g>
   <g id="line2d_27">
    <path d="M -1 236.274059 
L -0.602273 236.274059 
L -0.602273 232.441663 
L -0.409734 232.441663 
L -0.314552 217.112079 
L -0.258793 217.112079 
L -0.164766 182.620515 
L -0.135333 182.620515 
L -0.135333 178.788119 
L 22.069691 178.788119 
L 22.069691 174.955723 
L 35.700491 174.955723 
L 35.700491 171.123327 
L 55.590865 171.123327 
L 55.590865 167.290931 
L 72.811962 167.290931 
L 72.811962 163.458535 
L 73.022923 163.458535 
L 73.022923 159.626139 
L 81.587226 159.626139 
L 81.587226 155.793743 
L 85.928561 155.793743 
L 85.928561 151.961347 
L 96.774531 151.961347 
L 96.774531 148.12895 
L 105.742189 148.12895 
L 105.742189 144.296554 
L 116.788085 144.296554 
L 116.788085 140.464158 
L 128.646928 140.464158 
L 128.646928 136.631762 
L 133.126772 136.631762 
L 133.126772 132.799366 
L 139.934842 132.799366 
L 139.934842 128.96697 
L 140.754677 128.96697 
L 140.754677 125.134574 
L 140.869509 125.134574 
L 140.869509 121.302178 
L 145.016796 121.302178 
L 145.016796 117.469782 
L 148.672135 117.469782 
L 148.672135 113.637386 
L 153.232235 113.637386 
L 153.232235 109.80499 
L 153.562256 109.80499 
L 153.562256 105.972594 
L 156.955069 105.972594 
L 156.955069 102.140198 
L 162.650985 102.140198 
L 162.650985 98.307802 
L 164.542198 98.307802 
L 164.542198 94.475406 
L 166.384017 94.475406 
L 166.384017 90.64301 
L 166.657234 90.64301 
L 166.657234 86.810614 
L 167.329945 86.810614 
L 167.329945 82.978218 
L 174.978567 82.978218 
L 174.978567 79.145822 
L 175.518685 79.145822 
L 175.518685 75.313426 
L 178.915211 75.313426 
L 178.915211 71.48103 
L 184.166486 71.48103 
L 184.166486 67.648634 
L 185.651995 67.648634 
L 185.651995 63.816238 
L 186.979936 63.816238 
L 186.979936 59.983842 
L 191.291401 59.983842 
L 191.291401 56.151446 
L 192.029327 56.151446 
L 192.029327 52.31905 
L 192.243283 52.31905 
L 192.243283 48.486653 
L 193.432585 48.486653 
L 193.432585 44.654257 
L 197.086761 44.654257 
L 197.086761 40.821861 
L 197.626254 40.821861 
L 197.626254 36.989465 
L 199.588939 36.989465 
L 199.588939 33.157069 
L 206.891588 33.157069 
L 206.891588 29.324673 
L 208.213761 29.324673 
L 208.213761 25.492277 
L 217.964672 25.492277 
L 217.964672 21.659881 
L 225.618739 21.659881 
L 225.618739 17.827485 
L 231.340442 17.827485 
L 231.340442 13.995089 
L 233.253113 13.995089 
L 233.253113 10.162693 
L 233.920092 10.162693 
L 233.920092 6.330297 
L 233.920092 6.330297 
L 460.8 6.330297 
L 460.8 6.330297 
" clip-path="url(#p083c2e7876)" style="fill: none; stroke: #000000; stroke-width: 1.5; stroke-linecap: square"/>
   </g>
   <g id="patch_3">
    <path d="M 0 293.76 
L 0 3.456 
" style="fill: none; stroke: #000000; stroke-width: 0.8; stroke-linejoin: miter; stroke-linecap: square"/>
   </g>
   <g id="patch_4">
    <path d="M 460.8 293.76 
L 460.8 3.456 
" style="fill: none; stroke: #000000; stroke-width: 0.8; stroke-linejoin: miter; stroke-linecap: square"/>
   </g>
   <g id="patch_5">
    <path d="M -0 293.76 
L 460.8 293.76 
" style="fill: none; stroke: #000000; stroke-width: 0.8; stroke-linejoin: miter; stroke-linecap: square"/>
   </g>
   <g id="patch_6">
    <path d="M -0 3.456 
L 460.8 3.456 
" style="fill: none; stroke: #000000; stroke-width: 0.8; stroke-linejoin: miter; stroke-linecap: square"/>
   </g>
   <g id="text_6">
    <!-- {f10-f14}, 20-D -->
    <g transform="translate(293.159 287.95392)scale(0.2 -0.2)">
     <defs>
      <path id="DejaVuSans-7b" d="M 3272 -594 
L 3272 -1044 
L 3078 -1044 
Q 2300 -1044 2036 -812 
Q 1772 -581 1772 109 
L 1772 856 
Q 1772 1328 1603 1509 
Q 1434 1691 991 1691 
L 800 1691 
L 800 2138 
L 991 2138 
Q 1438 2138 1605 2317 
Q 1772 2497 1772 2963 
L 1772 3713 
Q 1772 4403 2036 4633 
Q 2300 4863 3078 4863 
L 3272 4863 
L 3272 4416 
L 3059 4416 
Q 2619 4416 2484 4278 
Q 2350 4141 2350 3700 
L 2350 2925 
Q 2350 2434 2208 2212 
Q 2066 1991 1722 1913 
Q 2069 1828 2209 1606 
Q 2350 1384 2350 897 
L 2350 122 
Q 2350 -319 2484 -456 
Q 2619 -594 3059 -594 
L 3272 -594 
z
" transform="scale(0.015625)"/>
      <path id="DejaVuSans-7d" d="M 800 -594 
L 1019 -594 
Q 1456 -594 1589 -459 
Q 1722 -325 1722 122 
L 1722 897 
Q 1722 1384 1862 1606 
Q 2003 1828 2350 1913 
Q 2003 1991 1862 2212 
Q 1722 2434 1722 2925 
L 1722 3700 
Q 1722 4144 1589 4280 
Q 1456 4416 1019 4416 
L 800 4416 
L 800 4863 
L 997 4863 
Q 1775 4863 2036 4633 
Q 2297 4403 2297 3713 
L 2297 2963 
Q 2297 2497 2465 2317 
Q 2634 2138 3078 2138 
L 3272 2138 
L 3272 1691 
L 3078 1691 
Q 2634 1691 2465 1509 
Q 2297 1328 2297 856 
L 2297 109 
Q 2297 -581 2036 -812 
Q 1775 -1044 997 -1044 
L 800 -1044 
L 800 -594 
z
" transform="scale(0.015625)"/>
      <path id="DejaVuSans-2c" d="M 750 794 
L 1409 794 
L 1409 256 
L 897 -744 
L 494 -744 
L 750 256 
L 750 794 
z
" transform="scale(0.015625)"/>
      <path id="DejaVuSans-32" d="M 1228 531 
L 3431 531 
L 3431 0 
L 469 0 
L 469 531 
Q 828 903 1448 1529 
Q 2069 2156 2228 2338 
Q 2531 2678 2651 2914 
Q 2772 3150 2772 3378 
Q 2772 3750 2511 3984 
Q 2250 4219 1831 4219 
Q 1534 4219 1204 4116 
Q 875 4013 500 3803 
L 500 4441 
Q 881 4594 1212 4672 
Q 1544 4750 1819 4750 
Q 2544 4750 2975 4387 
Q 3406 4025 3406 3419 
Q 3406 3131 3298 2873 
Q 3191 2616 2906 2266 
Q 2828 2175 2409 1742 
Q 1991 1309 1228 531 
z
" transform="scale(0.015625)"/>
     </defs>
     <use xlink:href="#DejaVuSans-7b"/>
     <use xlink:href="#DejaVuSans-66" x="63.623047"/>
     <use xlink:href="#DejaVuSans-31" x="98.828125"/>
     <use xlink:href="#DejaVuSans-30" x="162.451172"/>
     <use xlink:href="#DejaVuSans-2d" x="226.074219"/>
     <use xlink:href="#DejaVuSans-66" x="262.158203"/>
     <use xlink:href="#DejaVuSans-31" x="297.363281"/>
     <use xlink:href="#DejaVuSans-34" x="360.986328"/>
     <use xlink:href="#DejaVuSans-7d" x="424.609375"/>
     <use xlink:href="#DejaVuSans-2c" x="488.232422"/>
     <use xlink:href="#DejaVuSans-20" x="520.019531"/>
     <use xlink:href="#DejaVuSans-32" x="551.806641"/>
     <use xlink:href="#DejaVuSans-30" x="615.429688"/>
     <use xlink:href="#DejaVuSans-2d" x="679.052734"/>
     <use xlink:href="#DejaVuSans-44" x="715.136719"/>
    </g>
   </g>
   <g id="text_7">
    <!-- v2.6.3 -->
    <g style="fill: #808080" transform="translate(214.71875 288.777272)scale(0.1 -0.1)">
     <defs>
      <path id="DejaVuSans-76" d="M 191 3500 
L 800 3500 
L 1894 563 
L 2988 3500 
L 3597 3500 
L 2284 0 
L 1503 0 
L 191 3500 
z
" transform="scale(0.015625)"/>
      <path id="DejaVuSans-2e" d="M 684 794 
L 1344 794 
L 1344 0 
L 684 0 
L 684 794 
z
" transform="scale(0.015625)"/>
      <path id="DejaVuSans-36" d="M 2113 2584 
Q 1688 2584 1439 2293 
Q 1191 2003 1191 1497 
Q 1191 994 1439 701 
Q 1688 409 2113 409 
Q 2538 409 2786 701 
Q 3034 994 3034 1497 
Q 3034 2003 2786 2293 
Q 2538 2584 2113 2584 
z
M 3366 4563 
L 3366 3988 
Q 3128 4100 2886 4159 
Q 2644 4219 2406 4219 
Q 1781 4219 1451 3797 
Q 1122 3375 1075 2522 
Q 1259 2794 1537 2939 
Q 1816 3084 2150 3084 
Q 2853 3084 3261 2657 
Q 3669 2231 3669 1497 
Q 3669 778 3244 343 
Q 2819 -91 2113 -91 
Q 1303 -91 875 529 
Q 447 1150 447 2328 
Q 447 3434 972 4092 
Q 1497 4750 2381 4750 
Q 2619 4750 2861 4703 
Q 3103 4656 3366 4563 
z
" transform="scale(0.015625)"/>
      <path id="DejaVuSans-33" d="M 2597 2516 
Q 3050 2419 3304 2112 
Q 3559 1806 3559 1356 
Q 3559 666 3084 287 
Q 2609 -91 1734 -91 
Q 1441 -91 1130 -33 
Q 819 25 488 141 
L 488 750 
Q 750 597 1062 519 
Q 1375 441 1716 441 
Q 2309 441 2620 675 
Q 2931 909 2931 1356 
Q 2931 1769 2642 2001 
Q 2353 2234 1838 2234 
L 1294 2234 
L 1294 2753 
L 1863 2753 
Q 2328 2753 2575 2939 
Q 2822 3125 2822 3475 
Q 2822 3834 2567 4026 
Q 2313 4219 1838 4219 
Q 1578 4219 1281 4162 
Q 984 4106 628 3988 
L 628 4550 
Q 988 4650 1302 4700 
Q 1616 4750 1894 4750 
Q 2613 4750 3031 4423 
Q 3450 4097 3450 3541 
Q 3450 3153 3228 2886 
Q 3006 2619 2597 2516 
z
" transform="scale(0.015625)"/>
     </defs>
     <use xlink:href="#DejaVuSans-76"/>
     <use xlink:href="#DejaVuSans-32" x="59.179688"/>
     <use xlink:href="#DejaVuSans-2e" x="122.802734"/>
     <use xlink:href="#DejaVuSans-36" x="154.589844"/>
     <use xlink:href="#DejaVuSans-2e" x="218.212891"/>
     <use xlink:href="#DejaVuSans-33" x="250"/>
    </g>
   </g>
  </g>
 </g>
 <defs>
  <clipPath id="p083c2e7876">
   <rect x="0" y="3.456" width="460.8" height="290.304"/>
  </clipPath>
 </defs>
</svg>
