<?xml version="1.0" encoding="utf-8" standalone="no"?>
<!DOCTYPE svg PUBLIC "-//W3C//DTD SVG 1.1//EN"
  "http://www.w3.org/Graphics/SVG/1.1/DTD/svg11.dtd">
<svg xmlns:xlink="http://www.w3.org/1999/xlink" width="460.8pt" height="345.6pt" viewBox="0 0 460.8 345.6" xmlns="http://www.w3.org/2000/svg" version="1.1">
 <metadata>
  <rdf:RDF xmlns:dc="http://purl.org/dc/elements/1.1/" xmlns:cc="http://creativecommons.org/ns#" xmlns:rdf="http://www.w3.org/1999/02/22-rdf-syntax-ns#">
   <cc:Work>
    <dc:type rdf:resource="http://purl.org/dc/dcmitype/StillImage"/>
    <dc:date>2023-04-07T14:51:14.994811</dc:date>
    <dc:format>image/svg+xml</dc:format>
    <dc:creator>
     <cc:Agent>
      <dc:title>Matplotlib v3.5.2, https://matplotlib.org/</dc:title>
     </cc:Agent>
    </dc:creator>
   </cc:Work>
  </rdf:RDF>
 </metadata>
 <defs>
  <style type="text/css">*{stroke-linejoin: round; stroke-linecap: butt}</style>
 </defs>
 <g id="figure_1">
  <g id="patch_1">
   <path d="M 0 345.6 
L 460.8 345.6 
L 460.8 0 
L 0 0 
z
" style="fill: #ffffff"/>
  </g>
  <g id="axes_1">
   <g id="patch_2">
    <path d="M 62.208 293.76 
L 460.8 293.76 
L 460.8 3.456 
L 62.208 3.456 
z
" style="fill: #ffffff"/>
   </g>
   <g id="line2d_1">
    <path d="M 233.77744 293.76 
L 233.77744 288.969505 
L 236.358766 288.969505 
L 236.358766 284.17901 
L 237.336743 284.17901 
L 237.336743 279.388515 
L 237.336743 279.388515 
L 237.336743 274.59802 
L 237.814962 274.59802 
L 237.814962 269.807525 
L 237.972824 269.807525 
L 237.972824 265.01703 
L 238.129927 265.01703 
L 238.129927 260.226535 
L 238.904298 260.226535 
L 238.904298 255.43604 
L 239.360256 255.43604 
L 239.360256 250.645545 
L 239.510838 250.645545 
L 239.510838 245.85505 
L 239.510838 245.85505 
L 239.510838 241.064554 
L 239.660728 241.064554 
L 239.660728 236.274059 
L 239.660728 236.274059 
L 239.660728 231.483564 
L 240.106315 231.483564 
L 240.106315 226.693069 
L 240.106315 226.693069 
L 240.106315 221.902574 
L 241.122963 221.902574 
L 241.122963 217.112079 
L 241.407713 217.112079 
L 241.407713 212.321584 
L 241.549162 212.321584 
L 241.549162 207.531089 
L 241.690001 207.531089 
L 241.690001 202.740594 
L 241.830235 202.740594 
L 241.830235 197.950099 
L 242.247359 197.950099 
L 242.247359 193.159604 
L 242.247359 193.159604 
L 242.247359 188.369109 
L 242.385225 188.369109 
L 242.385225 183.578614 
L 244.772161 183.578614 
L 244.772161 178.788119 
L 246.026519 178.788119 
L 246.026519 173.997624 
L 246.27171 173.997624 
L 246.27171 169.207129 
L 261.20302 169.207129 
L 261.20302 164.416634 
L 263.894289 164.416634 
L 263.894289 159.626139 
L 266.801914 159.626139 
L 266.801914 154.835644 
L 273.240782 154.835644 
L 273.240782 150.045149 
L 273.240782 150.045149 
L 273.240782 150.045149 
L 460.8 150.045149 
" clip-path="url(#p048471545f)" style="fill: none; stroke: #f5deb3; stroke-width: 1.5; stroke-linecap: square"/>
   </g>
   <g id="line2d_2"/>
   <g id="line2d_3">
    <path d="M 234.301899 293.76 
L 234.301899 288.969505 
L 239.78866 288.969505 
L 239.78866 284.17901 
L 242.450671 284.17901 
L 242.450671 279.388515 
L 246.705024 279.388515 
L 246.705024 274.59802 
L 247.217521 274.59802 
L 247.217521 269.807525 
L 247.481995 269.807525 
L 247.481995 265.01703 
L 247.504405 265.01703 
L 247.504405 260.226535 
L 247.593891 260.226535 
L 247.593891 255.43604 
L 248.33386 255.43604 
L 248.33386 250.645545 
L 248.864608 250.645545 
L 248.864608 245.85505 
L 249.014679 245.85505 
L 249.014679 241.064554 
L 249.286263 241.064554 
L 249.286263 236.274059 
L 249.455522 236.274059 
L 249.455522 231.483564 
L 249.4977 231.483564 
L 249.4977 226.693069 
L 249.524034 226.693069 
L 249.524034 221.902574 
L 249.550347 221.902574 
L 249.550347 217.112079 
L 249.634404 217.112079 
L 249.634404 212.321584 
L 251.061386 212.321584 
L 251.061386 207.531089 
L 251.564756 207.531089 
L 251.564756 202.740594 
L 252.045866 202.740594 
L 252.045866 197.950099 
L 252.452679 197.950099 
L 252.452679 193.159604 
L 253.265493 193.159604 
L 253.265493 188.369109 
L 253.634278 188.369109 
L 253.634278 183.578614 
L 259.553223 183.578614 
L 259.553223 178.788119 
L 260.159382 178.788119 
L 260.159382 173.997624 
L 260.526019 173.997624 
L 260.526019 169.207129 
L 261.092388 169.207129 
L 261.092388 164.416634 
L 261.147751 164.416634 
L 261.147751 159.626139 
L 261.16987 159.626139 
L 261.16987 154.835644 
L 262.289198 154.835644 
L 262.289198 150.045149 
L 262.399404 150.045149 
L 262.399404 145.254653 
L 263.24371 145.254653 
L 263.24371 140.464158 
L 263.751589 140.464158 
L 263.751589 135.673663 
L 263.843396 135.673663 
L 263.843396 130.883168 
L 264.452269 130.883168 
L 264.452269 126.092673 
L 264.899121 126.092673 
L 264.899121 121.302178 
L 265.899466 121.302178 
L 265.899466 116.511683 
L 267.863733 116.511683 
L 267.863733 111.721188 
L 269.45164 111.721188 
L 269.45164 106.930693 
L 275.257518 106.930693 
L 275.257518 102.140198 
L 277.589908 102.140198 
L 277.589908 97.349703 
L 277.747766 97.349703 
L 277.747766 92.559208 
L 278.629603 92.559208 
L 278.629603 87.768713 
L 278.891931 87.768713 
L 278.891931 82.978218 
L 279.279398 82.978218 
L 279.279398 78.187723 
L 279.279398 78.187723 
L 279.279398 78.187723 
L 460.8 78.187723 
" clip-path="url(#p048471545f)" style="fill: none; stroke: #f5deb3; stroke-width: 1.5; stroke-linecap: square"/>
   </g>
   <g id="line2d_4">
    <path d="M 275.956154 293.76 
L 275.956154 288.969505 
L 279.797997 288.969505 
L 279.797997 284.17901 
L 282.115478 284.17901 
L 282.115478 279.388515 
L 282.520416 279.388515 
L 282.520416 274.59802 
L 285.188986 274.59802 
L 285.188986 269.807525 
L 285.204876 269.807525 
L 285.204876 265.01703 
L 286.570363 265.01703 
L 286.570363 260.226535 
L 287.157539 260.226535 
L 287.157539 255.43604 
L 287.170837 255.43604 
L 287.170837 250.645545 
L 287.522932 250.645545 
L 287.522932 245.85505 
L 287.98332 245.85505 
L 287.98332 241.064554 
L 288.302736 241.064554 
L 288.302736 236.274059 
L 289.258246 236.274059 
L 289.258246 231.483564 
L 289.596362 231.483564 
L 289.596362 226.693069 
L 289.744153 226.693069 
L 289.744153 221.902574 
L 291.608391 221.902574 
L 291.608391 217.112079 
L 292.664692 217.112079 
L 292.664692 212.321584 
L 293.10971 212.321584 
L 293.10971 207.531089 
L 293.403512 207.531089 
L 293.403512 202.740594 
L 295.921157 202.740594 
L 295.921157 197.950099 
L 302.82239 197.950099 
L 302.82239 193.159604 
L 305.189795 193.159604 
L 305.189795 188.369109 
L 308.07258 188.369109 
L 308.07258 183.578614 
L 309.997568 183.578614 
L 309.997568 178.788119 
L 311.173888 178.788119 
L 311.173888 173.997624 
L 313.708024 173.997624 
L 313.708024 169.207129 
L 316.362771 169.207129 
L 316.362771 164.416634 
L 320.056281 164.416634 
L 320.056281 159.626139 
L 320.57181 159.626139 
L 320.57181 154.835644 
L 322.021028 154.835644 
L 322.021028 150.045149 
L 322.021028 150.045149 
L 322.021028 150.045149 
L 460.8 150.045149 
" clip-path="url(#p048471545f)" style="fill: none; stroke: #f5deb3; stroke-width: 1.5; stroke-linecap: square"/>
   </g>
   <g id="line2d_5"/>
   <g id="line2d_6"/>
   <g id="line2d_7">
    <path d="M 263.436811 293.76 
L 263.436811 288.969505 
L 263.799225 288.969505 
L 263.799225 284.17901 
L 265.320474 284.17901 
L 265.320474 279.388515 
L 265.787686 279.388515 
L 265.787686 274.59802 
L 266.048972 274.59802 
L 266.048972 269.807525 
L 266.273532 269.807525 
L 266.273532 265.01703 
L 266.845304 265.01703 
L 266.845304 260.226535 
L 267.119802 260.226535 
L 267.119802 255.43604 
L 267.361538 255.43604 
L 267.361538 250.645545 
L 268.213106 250.645545 
L 268.213106 245.85505 
L 268.260594 245.85505 
L 268.260594 241.064554 
L 268.964752 241.064554 
L 268.964752 236.274059 
L 270.133635 236.274059 
L 270.133635 231.483564 
L 270.262205 231.483564 
L 270.262205 226.693069 
L 271.793433 226.693069 
L 271.793433 221.902574 
L 288.676242 221.902574 
L 288.676242 217.112079 
L 290.221422 217.112079 
L 290.221422 212.321584 
L 290.639549 212.321584 
L 290.639549 207.531089 
L 291.470276 207.531089 
L 291.470276 202.740594 
L 291.567744 202.740594 
L 291.567744 197.950099 
L 292.097966 197.950099 
L 292.097966 193.159604 
L 292.266175 193.159604 
L 292.266175 188.369109 
L 293.63612 188.369109 
L 293.63612 183.578614 
L 293.94956 183.578614 
L 293.94956 178.788119 
L 294.694515 178.788119 
L 294.694515 173.997624 
L 294.764397 173.997624 
L 294.764397 169.207129 
L 294.845955 169.207129 
L 294.845955 164.416634 
L 294.891907 164.416634 
L 294.891907 159.626139 
L 296.123928 159.626139 
L 296.123928 154.835644 
L 296.745873 154.835644 
L 296.745873 150.045149 
L 296.939905 150.045149 
L 296.939905 145.254653 
L 297.952922 145.254653 
L 297.952922 140.464158 
L 298.091199 140.464158 
L 298.091199 135.673663 
L 298.523686 135.673663 
L 298.523686 130.883168 
L 298.635014 130.883168 
L 298.635014 126.092673 
L 299.008399 126.092673 
L 299.008399 121.302178 
L 299.512226 121.302178 
L 299.512226 116.511683 
L 300.199644 116.511683 
L 300.199644 111.721188 
L 300.369815 111.721188 
L 300.369815 106.930693 
L 301.219508 106.930693 
L 301.219508 102.140198 
L 301.50361 102.140198 
L 301.50361 97.349703 
L 301.714012 97.349703 
L 301.714012 92.559208 
L 302.21477 92.559208 
L 302.21477 87.768713 
L 324.908074 87.768713 
L 324.908074 82.978218 
L 346.202425 82.978218 
L 346.202425 78.187723 
L 409.25758 78.187723 
L 409.25758 73.397228 
L 424.036425 73.397228 
L 424.036425 68.606733 
L 428.175098 68.606733 
L 428.175098 63.816238 
L 434.016414 63.816238 
L 434.016414 59.025743 
L 443.156765 59.025743 
L 443.156765 54.235248 
L 450.026611 54.235248 
L 450.026611 49.444752 
L 454.033712 49.444752 
L 454.033712 44.654257 
L 458.798537 44.654257 
L 458.798537 39.863762 
L 461.8 39.863762 
" clip-path="url(#p048471545f)" style="fill: none; stroke: #f5deb3; stroke-width: 1.5; stroke-linecap: square"/>
   </g>
   <g id="line2d_8">
    <path d="M 369.380009 293.76 
L 369.380009 288.969505 
L 369.437852 288.969505 
L 369.437852 284.17901 
L 369.482637 284.17901 
L 369.482637 279.388515 
L 369.864745 279.388515 
L 369.864745 274.59802 
L 369.877022 274.59802 
L 369.877022 269.807525 
L 369.903014 269.807525 
L 369.903014 265.01703 
L 369.957833 265.01703 
L 369.957833 260.226535 
L 369.959544 260.226535 
L 369.959544 255.43604 
L 369.974944 255.43604 
L 369.974944 250.645545 
L 370.053544 250.645545 
L 370.053544 245.85505 
L 370.096444 245.85505 
L 370.096444 241.064554 
L 370.483658 241.064554 
L 370.483658 236.274059 
L 370.484953 236.274059 
L 370.484953 231.483564 
L 370.640309 231.483564 
L 370.640309 226.693069 
L 371.588439 226.693069 
L 371.588439 221.902574 
L 371.588439 221.902574 
L 371.588439 221.902574 
L 460.8 221.902574 
" clip-path="url(#p048471545f)" style="fill: none; stroke: #f5deb3; stroke-width: 1.5; stroke-linecap: square"/>
   </g>
   <g id="line2d_9">
    <path d="M 262.625756 293.76 
L 262.625756 288.969505 
L 264.545453 288.969505 
L 264.545453 284.17901 
L 264.661561 284.17901 
L 264.661561 279.388515 
L 266.194638 279.388515 
L 266.194638 274.59802 
L 266.421339 274.59802 
L 266.421339 269.807525 
L 266.487164 269.807525 
L 266.487164 265.01703 
L 266.71807 265.01703 
L 266.71807 260.226535 
L 267.046007 260.226535 
L 267.046007 255.43604 
L 267.631748 255.43604 
L 267.631748 250.645545 
L 267.752465 250.645545 
L 267.752465 245.85505 
L 268.031421 245.85505 
L 268.031421 241.064554 
L 269.362871 241.064554 
L 269.362871 236.274059 
L 269.693807 236.274059 
L 269.693807 231.483564 
L 270.517836 231.483564 
L 270.517836 226.693069 
L 272.365973 226.693069 
L 272.365973 221.902574 
L 273.11833 221.902574 
L 273.11833 217.112079 
L 285.709313 217.112079 
L 285.709313 212.321584 
L 285.893029 212.321584 
L 285.893029 207.531089 
L 286.329093 207.531089 
L 286.329093 202.740594 
L 286.332504 202.740594 
L 286.332504 197.950099 
L 286.83506 197.950099 
L 286.83506 193.159604 
L 286.910535 193.159604 
L 286.910535 188.369109 
L 287.804508 188.369109 
L 287.804508 183.578614 
L 288.130511 183.578614 
L 288.130511 178.788119 
L 288.196611 178.788119 
L 288.196611 173.997624 
L 288.26097 173.997624 
L 288.26097 169.207129 
L 288.29792 169.207129 
L 288.29792 164.416634 
L 288.419717 164.416634 
L 288.419717 159.626139 
L 288.627006 159.626139 
L 288.627006 154.835644 
L 289.084732 154.835644 
L 289.084732 150.045149 
L 289.188014 150.045149 
L 289.188014 145.254653 
L 289.659563 145.254653 
L 289.659563 140.464158 
L 290.043833 140.464158 
L 290.043833 135.673663 
L 290.434163 135.673663 
L 290.434163 130.883168 
L 290.461222 130.883168 
L 290.461222 126.092673 
L 290.790143 126.092673 
L 290.790143 121.302178 
L 291.23193 121.302178 
L 291.23193 116.511683 
L 292.195006 116.511683 
L 292.195006 111.721188 
L 292.628152 111.721188 
L 292.628152 106.930693 
L 293.413123 106.930693 
L 293.413123 102.140198 
L 293.860312 102.140198 
L 293.860312 97.349703 
L 295.430596 97.349703 
L 295.430596 92.559208 
L 296.088534 92.559208 
L 296.088534 87.768713 
L 296.118874 87.768713 
L 296.118874 82.978218 
L 301.814992 82.978218 
L 301.814992 78.187723 
L 303.462329 78.187723 
L 303.462329 73.397228 
L 304.62212 73.397228 
L 304.62212 68.606733 
L 304.811475 68.606733 
L 304.811475 63.816238 
L 305.059371 63.816238 
L 305.059371 59.025743 
L 305.252902 59.025743 
L 305.252902 54.235248 
L 306.475364 54.235248 
L 306.475364 49.444752 
L 306.963964 49.444752 
L 306.963964 44.654257 
L 307.856318 44.654257 
L 307.856318 39.863762 
L 308.543202 39.863762 
L 308.543202 35.073267 
L 309.594458 35.073267 
L 309.594458 30.282772 
L 310.548005 30.282772 
L 310.548005 25.492277 
L 310.764962 25.492277 
L 310.764962 20.701782 
L 311.389115 20.701782 
L 311.389115 15.911287 
L 311.480809 15.911287 
L 311.480809 11.120792 
L 317.245931 11.120792 
L 317.245931 6.330297 
L 317.245931 6.330297 
L 317.245931 6.330297 
L 460.8 6.330297 
" clip-path="url(#p048471545f)" style="fill: none; stroke: #f5deb3; stroke-width: 1.5; stroke-linecap: square"/>
   </g>
   <g id="line2d_10">
    <path d="M 427.402526 293.76 
L 427.402526 288.969505 
L 427.750059 288.969505 
L 427.750059 284.17901 
L 428.205522 284.17901 
L 428.205522 279.388515 
L 429.90631 279.388515 
L 429.90631 274.59802 
L 430.01404 274.59802 
L 430.01404 269.807525 
L 430.742505 269.807525 
L 430.742505 265.01703 
L 430.852104 265.01703 
L 430.852104 260.226535 
L 431.91173 260.226535 
L 431.91173 255.43604 
L 436.610475 255.43604 
L 436.610475 250.645545 
L 436.710493 250.645545 
L 436.710493 245.85505 
L 436.710493 245.85505 
L 436.710493 245.85505 
L 460.8 245.85505 
" clip-path="url(#p048471545f)" style="fill: none; stroke: #f5deb3; stroke-width: 1.5; stroke-linecap: square"/>
   </g>
   <g id="line2d_11">
    <path d="M 271.552996 293.76 
L 271.552996 288.969505 
L 274.157197 288.969505 
L 274.157197 284.17901 
L 277.84079 284.17901 
L 277.84079 279.388515 
L 283.352915 279.388515 
L 283.352915 274.59802 
L 284.146488 274.59802 
L 284.146488 269.807525 
L 284.559569 269.807525 
L 284.559569 265.01703 
L 287.346533 265.01703 
L 287.346533 260.226535 
L 287.389484 260.226535 
L 287.389484 255.43604 
L 287.850117 255.43604 
L 287.850117 250.645545 
L 296.938673 250.645545 
L 296.938673 245.85505 
L 297.401175 245.85505 
L 297.401175 241.064554 
L 299.819408 241.064554 
L 299.819408 236.274059 
L 301.312328 236.274059 
L 301.312328 231.483564 
L 312.447531 231.483564 
L 312.447531 226.693069 
L 382.848018 226.693069 
L 382.848018 221.902574 
L 402.364374 221.902574 
L 402.364374 217.112079 
L 403.28925 217.112079 
L 403.28925 212.321584 
L 405.193744 212.321584 
L 405.193744 207.531089 
L 405.319384 207.531089 
L 405.319384 202.740594 
L 405.353156 202.740594 
L 405.353156 197.950099 
L 405.537178 197.950099 
L 405.537178 193.159604 
L 405.653697 193.159604 
L 405.653697 188.369109 
L 405.682542 188.369109 
L 405.682542 183.578614 
L 405.709863 183.578614 
L 405.709863 178.788119 
L 405.793404 178.788119 
L 405.793404 173.997624 
L 405.811105 173.997624 
L 405.811105 169.207129 
L 405.818306 169.207129 
L 405.818306 164.416634 
L 405.827831 164.416634 
L 405.827831 159.626139 
L 405.852444 159.626139 
L 405.852444 154.835644 
L 405.855031 154.835644 
L 405.855031 150.045149 
L 405.875548 150.045149 
L 405.875548 145.254653 
L 405.893249 145.254653 
L 405.893249 140.464158 
L 405.911071 140.464158 
L 405.911071 135.673663 
L 405.913479 135.673663 
L 405.913479 130.883168 
L 405.93514 130.883168 
L 405.93514 126.092673 
L 405.996195 126.092673 
L 405.996195 121.302178 
L 406.128012 121.302178 
L 406.128012 116.511683 
L 406.220206 116.511683 
L 406.220206 111.721188 
L 406.410242 111.721188 
L 406.410242 106.930693 
L 429.625044 106.930693 
L 429.625044 102.140198 
L 432.346528 102.140198 
L 432.346528 97.349703 
L 432.828964 97.349703 
L 432.828964 92.559208 
L 432.938697 92.559208 
L 432.938697 87.768713 
L 436.144211 87.768713 
L 436.144211 82.978218 
L 459.544313 82.978218 
L 459.544313 78.187723 
L 459.544313 78.187723 
L 459.544313 78.187723 
L 460.8 78.187723 
" clip-path="url(#p048471545f)" style="fill: none; stroke: #f5deb3; stroke-width: 1.5; stroke-linecap: square"/>
   </g>
   <g id="line2d_12">
    <path d="M 236.311457 293.76 
L 236.311457 288.969505 
L 240.358232 288.969505 
L 240.358232 284.17901 
L 240.504292 284.17901 
L 240.504292 279.388515 
L 241.79023 279.388515 
L 241.79023 274.59802 
L 242.069244 274.59802 
L 242.069244 269.807525 
L 242.62022 269.807525 
L 242.62022 265.01703 
L 243.027435 265.01703 
L 243.027435 260.226535 
L 243.027435 260.226535 
L 243.027435 255.43604 
L 243.296117 255.43604 
L 243.296117 250.645545 
L 243.296117 250.645545 
L 243.296117 245.85505 
L 243.429634 245.85505 
L 243.429634 241.064554 
L 243.562607 241.064554 
L 243.562607 236.274059 
L 243.69504 236.274059 
L 243.69504 231.483564 
L 243.826939 231.483564 
L 243.826939 226.693069 
L 243.826939 226.693069 
L 243.826939 221.902574 
L 244.219467 221.902574 
L 244.219467 217.112079 
L 244.219467 217.112079 
L 244.219467 212.321584 
L 244.219467 212.321584 
L 244.219467 207.531089 
L 244.607333 207.531089 
L 244.607333 202.740594 
L 244.607333 202.740594 
L 244.607333 197.950099 
L 244.607333 197.950099 
L 244.607333 193.159604 
L 244.990645 193.159604 
L 244.990645 188.369109 
L 245.117422 188.369109 
L 245.117422 183.578614 
L 247.319062 183.578614 
L 247.319062 178.788119 
L 251.111572 178.788119 
L 251.111572 173.997624 
L 265.04345 173.997624 
L 265.04345 169.207129 
L 267.364587 169.207129 
L 267.364587 164.416634 
L 267.683107 164.416634 
L 267.683107 159.626139 
L 268.061275 159.626139 
L 268.061275 154.835644 
L 276.126754 154.835644 
L 276.126754 150.045149 
L 276.126754 150.045149 
L 276.126754 150.045149 
L 460.8 150.045149 
" clip-path="url(#p048471545f)" style="fill: none; stroke: #f5deb3; stroke-width: 1.5; stroke-linecap: square"/>
   </g>
   <g id="line2d_13"/>
   <g id="line2d_14"/>
   <g id="line2d_15"/>
   <g id="line2d_16">
    <path d="M 355.446963 293.76 
L 355.446963 288.969505 
L 356.170121 288.969505 
L 356.170121 284.17901 
L 361.085549 284.17901 
L 361.085549 279.388515 
L 377.733843 279.388515 
L 377.733843 274.59802 
L 377.808881 274.59802 
L 377.808881 269.807525 
L 378.109576 269.807525 
L 378.109576 265.01703 
L 389.841226 265.01703 
L 389.841226 260.226535 
L 392.707098 260.226535 
L 392.707098 255.43604 
L 393.942044 255.43604 
L 393.942044 250.645545 
L 397.655072 250.645545 
L 397.655072 245.85505 
L 399.639189 245.85505 
L 399.639189 241.064554 
L 401.302061 241.064554 
L 401.302061 236.274059 
L 409.299871 236.274059 
L 409.299871 231.483564 
L 416.033508 231.483564 
L 416.033508 226.693069 
L 416.292043 226.693069 
L 416.292043 221.902574 
L 440.367312 221.902574 
L 440.367312 217.112079 
L 443.654249 217.112079 
L 443.654249 212.321584 
L 443.70789 212.321584 
L 443.70789 207.531089 
L 444.89045 207.531089 
L 444.89045 202.740594 
L 446.352752 202.740594 
L 446.352752 197.950099 
L 446.704645 197.950099 
L 446.704645 193.159604 
L 446.943058 193.159604 
L 446.943058 188.369109 
L 448.599034 188.369109 
L 448.599034 183.578614 
L 449.038081 183.578614 
L 449.038081 178.788119 
L 449.67114 178.788119 
L 449.67114 173.997624 
L 449.791674 173.997624 
L 449.791674 169.207129 
L 449.874647 169.207129 
L 449.874647 164.416634 
L 451.368951 164.416634 
L 451.368951 159.626139 
L 454.222056 159.626139 
L 454.222056 154.835644 
L 456.524103 154.835644 
L 456.524103 150.045149 
L 461.8 150.045149 
" clip-path="url(#p048471545f)" style="fill: none; stroke: #f5deb3; stroke-width: 1.5; stroke-linecap: square"/>
   </g>
   <g id="line2d_17">
    <path d="M 357.305605 293.76 
L 357.305605 288.969505 
L 359.43877 288.969505 
L 359.43877 284.17901 
L 361.082266 284.17901 
L 361.082266 279.388515 
L 361.267663 279.388515 
L 361.267663 274.59802 
L 364.576358 274.59802 
L 364.576358 269.807525 
L 365.324592 269.807525 
L 365.324592 265.01703 
L 365.373415 265.01703 
L 365.373415 260.226535 
L 369.459918 260.226535 
L 369.459918 255.43604 
L 370.047373 255.43604 
L 370.047373 250.645545 
L 370.112828 250.645545 
L 370.112828 245.85505 
L 371.628995 245.85505 
L 371.628995 241.064554 
L 373.369981 241.064554 
L 373.369981 236.274059 
L 373.654445 236.274059 
L 373.654445 231.483564 
L 379.799132 231.483564 
L 379.799132 226.693069 
L 384.389705 226.693069 
L 384.389705 221.902574 
L 404.337738 221.902574 
L 404.337738 217.112079 
L 409.606936 217.112079 
L 409.606936 212.321584 
L 411.185641 212.321584 
L 411.185641 207.531089 
L 412.137673 207.531089 
L 412.137673 202.740594 
L 412.991653 202.740594 
L 412.991653 197.950099 
L 413.282868 197.950099 
L 413.282868 193.159604 
L 414.125284 193.159604 
L 414.125284 188.369109 
L 414.419292 188.369109 
L 414.419292 183.578614 
L 415.242822 183.578614 
L 415.242822 178.788119 
L 415.422722 178.788119 
L 415.422722 173.997624 
L 415.422722 173.997624 
L 415.422722 173.997624 
L 460.8 173.997624 
" clip-path="url(#p048471545f)" style="fill: none; stroke: #f5deb3; stroke-width: 1.5; stroke-linecap: square"/>
   </g>
   <g id="line2d_18">
    <path d="M 216.33052 293.76 
L 216.33052 288.969505 
L 223.7442 288.969505 
L 223.7442 284.17901 
L 223.871495 284.17901 
L 223.871495 279.388515 
L 224.364395 279.388515 
L 224.364395 274.59802 
L 224.545916 274.59802 
L 224.545916 269.807525 
L 226.7231 269.807525 
L 226.7231 265.01703 
L 226.797102 265.01703 
L 226.797102 260.226535 
L 226.870938 260.226535 
L 226.870938 255.43604 
L 226.913055 255.43604 
L 226.913055 250.645545 
L 227.258462 250.645545 
L 227.258462 245.85505 
L 227.517722 245.85505 
L 227.517722 241.064554 
L 227.620853 241.064554 
L 227.620853 236.274059 
L 227.651729 236.274059 
L 227.651729 231.483564 
L 227.805671 231.483564 
L 227.805671 226.693069 
L 228.06064 226.693069 
L 228.06064 221.902574 
L 228.182321 221.902574 
L 228.182321 217.112079 
L 229.080758 217.112079 
L 229.080758 212.321584 
L 229.355303 212.321584 
L 229.355303 207.531089 
L 229.374826 207.531089 
L 229.374826 202.740594 
L 229.423581 202.740594 
L 229.423581 197.950099 
L 230.127233 197.950099 
L 230.127233 193.159604 
L 231.908645 193.159604 
L 231.908645 188.369109 
L 232.133609 188.369109 
L 232.133609 183.578614 
L 236.169117 183.578614 
L 236.169117 178.788119 
L 247.683132 178.788119 
L 247.683132 173.997624 
L 251.321515 173.997624 
L 251.321515 169.207129 
L 252.730644 169.207129 
L 252.730644 164.416634 
L 253.541308 164.416634 
L 253.541308 159.626139 
L 254.890946 159.626139 
L 254.890946 154.835644 
L 255.188847 154.835644 
L 255.188847 150.045149 
L 255.763575 150.045149 
L 255.763575 145.254653 
L 256.109642 145.254653 
L 256.109642 140.464158 
L 256.908746 140.464158 
L 256.908746 135.673663 
L 258.366352 135.673663 
L 258.366352 130.883168 
L 261.963525 130.883168 
L 261.963525 126.092673 
L 263.429934 126.092673 
L 263.429934 121.302178 
L 265.601602 121.302178 
L 265.601602 116.511683 
L 265.959987 116.511683 
L 265.959987 111.721188 
L 268.670268 111.721188 
L 268.670268 106.930693 
L 268.938619 106.930693 
L 268.938619 102.140198 
L 270.393049 102.140198 
L 270.393049 97.349703 
L 275.586199 97.349703 
L 275.586199 92.559208 
L 285.063361 92.559208 
L 285.063361 87.768713 
L 286.698765 87.768713 
L 286.698765 82.978218 
L 292.297441 82.978218 
L 292.297441 78.187723 
L 292.297441 78.187723 
L 292.297441 78.187723 
L 460.8 78.187723 
" clip-path="url(#p048471545f)" style="fill: none; stroke: #f5deb3; stroke-width: 1.5; stroke-linecap: square"/>
   </g>
   <g id="line2d_19"/>
   <g id="line2d_20">
    <path d="M 282.48974 293.76 
L 282.48974 288.969505 
L 285.690189 288.969505 
L 285.690189 284.17901 
L 289.178638 284.17901 
L 289.178638 279.388515 
L 292.542263 279.388515 
L 292.542263 274.59802 
L 294.135384 274.59802 
L 294.135384 269.807525 
L 295.353074 269.807525 
L 295.353074 265.01703 
L 296.905385 265.01703 
L 296.905385 260.226535 
L 297.59861 260.226535 
L 297.59861 255.43604 
L 298.699293 255.43604 
L 298.699293 250.645545 
L 299.002616 250.645545 
L 299.002616 245.85505 
L 299.180275 245.85505 
L 299.180275 241.064554 
L 301.767198 241.064554 
L 301.767198 236.274059 
L 301.810747 236.274059 
L 301.810747 231.483564 
L 303.109264 231.483564 
L 303.109264 226.693069 
L 303.562077 226.693069 
L 303.562077 221.902574 
L 304.382644 221.902574 
L 304.382644 217.112079 
L 306.012023 217.112079 
L 306.012023 212.321584 
L 306.130336 212.321584 
L 306.130336 207.531089 
L 307.912719 207.531089 
L 307.912719 202.740594 
L 310.374539 202.740594 
L 310.374539 197.950099 
L 314.752856 197.950099 
L 314.752856 193.159604 
L 316.680021 193.159604 
L 316.680021 188.369109 
L 325.886331 188.369109 
L 325.886331 183.578614 
L 333.836582 183.578614 
L 333.836582 178.788119 
L 336.591978 178.788119 
L 336.591978 173.997624 
L 336.635482 173.997624 
L 336.635482 169.207129 
L 337.956483 169.207129 
L 337.956483 164.416634 
L 340.898565 164.416634 
L 340.898565 159.626139 
L 365.399616 159.626139 
L 365.399616 154.835644 
L 366.047901 154.835644 
L 366.047901 150.045149 
L 366.047901 150.045149 
L 366.047901 150.045149 
L 460.8 150.045149 
" clip-path="url(#p048471545f)" style="fill: none; stroke: #f5deb3; stroke-width: 1.5; stroke-linecap: square"/>
   </g>
   <g id="line2d_21"/>
   <g id="line2d_22">
    <path d="M 286.123804 293.76 
L 286.123804 288.969505 
L 286.320565 288.969505 
L 286.320565 284.17901 
L 287.391135 284.17901 
L 287.391135 279.388515 
L 288.115983 279.388515 
L 288.115983 274.59802 
L 288.435709 274.59802 
L 288.435709 269.807525 
L 288.505981 269.807525 
L 288.505981 265.01703 
L 288.869295 265.01703 
L 288.869295 260.226535 
L 289.184889 260.226535 
L 289.184889 255.43604 
L 289.633372 255.43604 
L 289.633372 250.645545 
L 289.958491 250.645545 
L 289.958491 245.85505 
L 290.67689 245.85505 
L 290.67689 241.064554 
L 291.409028 241.064554 
L 291.409028 236.274059 
L 291.486298 236.274059 
L 291.486298 231.483564 
L 292.494293 231.483564 
L 292.494293 226.693069 
L 292.733445 226.693069 
L 292.733445 221.902574 
L 293.192739 221.902574 
L 293.192739 217.112079 
L 293.216226 217.112079 
L 293.216226 212.321584 
L 293.421358 212.321584 
L 293.421358 207.531089 
L 294.095077 207.531089 
L 294.095077 202.740594 
L 294.794676 202.740594 
L 294.794676 197.950099 
L 295.115487 197.950099 
L 295.115487 193.159604 
L 295.461554 193.159604 
L 295.461554 188.369109 
L 296.016362 188.369109 
L 296.016362 183.578614 
L 297.333068 183.578614 
L 297.333068 178.788119 
L 298.244288 178.788119 
L 298.244288 173.997624 
L 298.991046 173.997624 
L 298.991046 169.207129 
L 298.994518 169.207129 
L 298.994518 164.416634 
L 301.567836 164.416634 
L 301.567836 159.626139 
L 302.364347 159.626139 
L 302.364347 154.835644 
L 303.34 154.835644 
L 303.34 150.045149 
L 315.232048 150.045149 
L 315.232048 145.254653 
L 317.639188 145.254653 
L 317.639188 140.464158 
L 318.342752 140.464158 
L 318.342752 135.673663 
L 318.797624 135.673663 
L 318.797624 130.883168 
L 320.128438 130.883168 
L 320.128438 126.092673 
L 320.778496 126.092673 
L 320.778496 121.302178 
L 321.271724 121.302178 
L 321.271724 116.511683 
L 331.961562 116.511683 
L 331.961562 111.721188 
L 333.860058 111.721188 
L 333.860058 106.930693 
L 338.207774 106.930693 
L 338.207774 102.140198 
L 341.774502 102.140198 
L 341.774502 97.349703 
L 348.546784 97.349703 
L 348.546784 92.559208 
L 353.569321 92.559208 
L 353.569321 87.768713 
L 359.869482 87.768713 
L 359.869482 82.978218 
L 359.869482 82.978218 
L 359.869482 82.978218 
L 460.8 82.978218 
" clip-path="url(#p048471545f)" style="fill: none; stroke: #f5deb3; stroke-width: 1.5; stroke-linecap: square"/>
   </g>
   <g id="line2d_23">
    <path d="M 398.857299 293.76 
L 398.857299 288.969505 
L 406.7498 288.969505 
L 406.7498 284.17901 
L 417.669628 284.17901 
L 417.669628 279.388515 
L 421.291361 279.388515 
L 421.291361 274.59802 
L 427.802474 274.59802 
L 427.802474 269.807525 
L 432.886923 269.807525 
L 432.886923 265.01703 
L 432.886923 265.01703 
L 432.886923 265.01703 
L 460.8 265.01703 
" clip-path="url(#p048471545f)" style="fill: none; stroke: #f5deb3; stroke-width: 1.5; stroke-linecap: square"/>
   </g>
   <g id="line2d_24">
    <path d="M 271.151007 293.76 
L 271.151007 288.969505 
L 278.456433 288.969505 
L 278.456433 284.17901 
L 279.743794 284.17901 
L 279.743794 279.388515 
L 281.294196 279.388515 
L 281.294196 274.59802 
L 281.324028 274.59802 
L 281.324028 269.807525 
L 281.938433 269.807525 
L 281.938433 265.01703 
L 282.556807 265.01703 
L 282.556807 260.226535 
L 285.414252 260.226535 
L 285.414252 255.43604 
L 286.111789 255.43604 
L 286.111789 250.645545 
L 286.359776 250.645545 
L 286.359776 245.85505 
L 287.20572 245.85505 
L 287.20572 241.064554 
L 287.560726 241.064554 
L 287.560726 236.274059 
L 287.573861 236.274059 
L 287.573861 231.483564 
L 289.084732 231.483564 
L 289.084732 226.693069 
L 289.223929 226.693069 
L 289.223929 221.902574 
L 335.835916 221.902574 
L 335.835916 217.112079 
L 336.020716 217.112079 
L 336.020716 212.321584 
L 336.373217 212.321584 
L 336.373217 207.531089 
L 337.525971 207.531089 
L 337.525971 202.740594 
L 337.546939 202.740594 
L 337.546939 197.950099 
L 337.84789 197.950099 
L 337.84789 193.159604 
L 338.253699 193.159604 
L 338.253699 188.369109 
L 338.414621 188.369109 
L 338.414621 183.578614 
L 338.524796 183.578614 
L 338.524796 178.788119 
L 338.577508 178.788119 
L 338.577508 173.997624 
L 339.081014 173.997624 
L 339.081014 169.207129 
L 339.328204 169.207129 
L 339.328204 164.416634 
L 339.332577 164.416634 
L 339.332577 159.626139 
L 339.410521 159.626139 
L 339.410521 154.835644 
L 339.500665 154.835644 
L 339.500665 150.045149 
L 339.506019 150.045149 
L 339.506019 145.254653 
L 339.663564 145.254653 
L 339.663564 140.464158 
L 339.712142 140.464158 
L 339.712142 135.673663 
L 339.899787 135.673663 
L 339.899787 130.883168 
L 340.024177 130.883168 
L 340.024177 126.092673 
L 340.052816 126.092673 
L 340.052816 121.302178 
L 340.135298 121.302178 
L 340.135298 116.511683 
L 340.494014 116.511683 
L 340.494014 111.721188 
L 340.672712 111.721188 
L 340.672712 106.930693 
L 341.338996 106.930693 
L 341.338996 102.140198 
L 341.785113 102.140198 
L 341.785113 97.349703 
L 342.106168 97.349703 
L 342.106168 92.559208 
L 342.537725 92.559208 
L 342.537725 87.768713 
L 344.063612 87.768713 
L 344.063612 82.978218 
L 345.170225 82.978218 
L 345.170225 78.187723 
L 349.533937 78.187723 
L 349.533937 73.397228 
L 351.493515 73.397228 
L 351.493515 68.606733 
L 352.082668 68.606733 
L 352.082668 63.816238 
L 352.280107 63.816238 
L 352.280107 59.025743 
L 352.649746 59.025743 
L 352.649746 54.235248 
L 352.784366 54.235248 
L 352.784366 49.444752 
L 353.660542 49.444752 
L 353.660542 44.654257 
L 354.568078 44.654257 
L 354.568078 39.863762 
L 354.618034 39.863762 
L 354.618034 35.073267 
L 354.985808 35.073267 
L 354.985808 30.282772 
L 355.224437 30.282772 
L 355.224437 25.492277 
L 355.744378 25.492277 
L 355.744378 20.701782 
L 356.20525 20.701782 
L 356.20525 15.911287 
L 356.602079 15.911287 
L 356.602079 11.120792 
L 357.325579 11.120792 
L 357.325579 6.330297 
L 357.325579 6.330297 
L 357.325579 6.330297 
L 460.8 6.330297 
" clip-path="url(#p048471545f)" style="fill: none; stroke: #f5deb3; stroke-width: 1.5; stroke-linecap: square"/>
   </g>
   <g id="line2d_25">
    <path d="M 374.431785 293.76 
L 374.431785 288.969505 
L 374.890863 288.969505 
L 374.890863 284.17901 
L 375.037582 284.17901 
L 375.037582 279.388515 
L 375.038934 279.388515 
L 375.038934 274.59802 
L 375.743368 274.59802 
L 375.743368 269.807525 
L 375.984769 269.807525 
L 375.984769 265.01703 
L 376.114891 265.01703 
L 376.114891 260.226535 
L 376.355303 260.226535 
L 376.355303 255.43604 
L 376.75313 255.43604 
L 376.75313 250.645545 
L 376.934826 250.645545 
L 376.934826 245.85505 
L 377.090021 245.85505 
L 377.090021 241.064554 
L 377.401886 241.064554 
L 377.401886 236.274059 
L 377.632206 236.274059 
L 377.632206 231.483564 
L 378.077454 231.483564 
L 378.077454 226.693069 
L 379.091189 226.693069 
L 379.091189 221.902574 
L 379.091189 221.902574 
L 379.091189 221.902574 
L 460.8 221.902574 
" clip-path="url(#p048471545f)" style="fill: none; stroke: #f5deb3; stroke-width: 1.5; stroke-linecap: square"/>
   </g>
   <g id="line2d_26">
    <path d="M 298.32706 293.76 
L 298.32706 288.969505 
L 301.531457 288.969505 
L 301.531457 284.17901 
L 302.622139 284.17901 
L 302.622139 279.388515 
L 303.51476 279.388515 
L 303.51476 274.59802 
L 303.837564 274.59802 
L 303.837564 269.807525 
L 304.554853 269.807525 
L 304.554853 265.01703 
L 304.71742 265.01703 
L 304.71742 260.226535 
L 305.776923 260.226535 
L 305.776923 255.43604 
L 307.305722 255.43604 
L 307.305722 250.645545 
L 307.605743 250.645545 
L 307.605743 245.85505 
L 308.996917 245.85505 
L 308.996917 241.064554 
L 310.02234 241.064554 
L 310.02234 236.274059 
L 311.409689 236.274059 
L 311.409689 231.483564 
L 311.581691 231.483564 
L 311.581691 226.693069 
L 312.984882 226.693069 
L 312.984882 221.902574 
L 312.998448 221.902574 
L 312.998448 217.112079 
L 313.899164 217.112079 
L 313.899164 212.321584 
L 314.5257 212.321584 
L 314.5257 207.531089 
L 315.307958 207.531089 
L 315.307958 202.740594 
L 318.074239 202.740594 
L 318.074239 197.950099 
L 318.696525 197.950099 
L 318.696525 193.159604 
L 319.15901 193.159604 
L 319.15901 188.369109 
L 319.197671 188.369109 
L 319.197671 183.578614 
L 319.839459 183.578614 
L 319.839459 178.788119 
L 319.903559 178.788119 
L 319.903559 173.997624 
L 320.49943 173.997624 
L 320.49943 169.207129 
L 320.534743 169.207129 
L 320.534743 164.416634 
L 320.95909 164.416634 
L 320.95909 159.626139 
L 321.142802 159.626139 
L 321.142802 154.835644 
L 321.627705 154.835644 
L 321.627705 150.045149 
L 322.620231 150.045149 
L 322.620231 145.254653 
L 322.646596 145.254653 
L 322.646596 140.464158 
L 322.699263 140.464158 
L 322.699263 135.673663 
L 322.727802 135.673663 
L 322.727802 130.883168 
L 322.837807 130.883168 
L 322.837807 126.092673 
L 323.382341 126.092673 
L 323.382341 121.302178 
L 323.720494 121.302178 
L 323.720494 116.511683 
L 324.401355 116.511683 
L 324.401355 111.721188 
L 327.345081 111.721188 
L 327.345081 106.930693 
L 356.576699 106.930693 
L 356.576699 102.140198 
L 365.490928 102.140198 
L 365.490928 97.349703 
L 366.058585 97.349703 
L 366.058585 92.559208 
L 366.493649 92.559208 
L 366.493649 87.768713 
L 369.424204 87.768713 
L 369.424204 82.978218 
L 373.197318 82.978218 
L 373.197318 78.187723 
L 394.267155 78.187723 
L 394.267155 73.397228 
L 399.817001 73.397228 
L 399.817001 68.606733 
L 414.041676 68.606733 
L 414.041676 63.816238 
L 427.722395 63.816238 
L 427.722395 59.025743 
L 427.722395 59.025743 
L 427.722395 59.025743 
L 460.8 59.025743 
" clip-path="url(#p048471545f)" style="fill: none; stroke: #f5deb3; stroke-width: 1.5; stroke-linecap: square"/>
   </g>
   <g id="line2d_27">
    <path d="M 266.552858 293.76 
L 266.552858 288.969505 
L 268.411504 288.969505 
L 268.411504 284.17901 
L 270.256626 284.17901 
L 270.256626 279.388515 
L 270.401383 279.388515 
L 270.401383 274.59802 
L 271.745487 274.59802 
L 271.745487 269.807525 
L 272.10074 269.807525 
L 272.10074 265.01703 
L 273.547439 265.01703 
L 273.547439 260.226535 
L 273.901187 260.226535 
L 273.901187 255.43604 
L 273.953546 255.43604 
L 273.953546 250.645545 
L 273.993383 250.645545 
L 273.993383 245.85505 
L 274.492185 245.85505 
L 274.492185 241.064554 
L 275.84114 241.064554 
L 275.84114 236.274059 
L 276.082437 236.274059 
L 276.082437 231.483564 
L 276.499887 231.483564 
L 276.499887 226.693069 
L 276.504496 226.693069 
L 276.504496 221.902574 
L 276.72723 221.902574 
L 276.72723 217.112079 
L 276.816357 217.112079 
L 276.816357 212.321584 
L 277.17045 212.321584 
L 277.17045 207.531089 
L 277.271882 207.531089 
L 277.271882 202.740594 
L 277.460384 202.740594 
L 277.460384 197.950099 
L 277.491695 197.950099 
L 277.491695 193.159604 
L 277.556459 193.159604 
L 277.556459 188.369109 
L 277.891619 188.369109 
L 277.891619 183.578614 
L 277.984234 183.578614 
L 277.984234 178.788119 
L 278.336843 178.788119 
L 278.336843 173.997624 
L 279.361831 173.997624 
L 279.361831 169.207129 
L 279.710393 169.207129 
L 279.710393 164.416634 
L 279.791747 164.416634 
L 279.791747 159.626139 
L 279.960068 159.626139 
L 279.960068 154.835644 
L 280.304386 154.835644 
L 280.304386 150.045149 
L 281.626767 150.045149 
L 281.626767 145.254653 
L 282.293498 145.254653 
L 282.293498 140.464158 
L 282.39369 140.464158 
L 282.39369 135.673663 
L 283.041324 135.673663 
L 283.041324 130.883168 
L 283.257502 130.883168 
L 283.257502 126.092673 
L 285.679753 126.092673 
L 285.679753 121.302178 
L 285.73711 121.302178 
L 285.73711 116.511683 
L 286.152965 116.511683 
L 286.152965 111.721188 
L 302.75337 111.721188 
L 302.75337 106.930693 
L 303.526847 106.930693 
L 303.526847 102.140198 
L 312.416863 102.140198 
L 312.416863 97.349703 
L 313.122541 97.349703 
L 313.122541 92.559208 
L 316.945511 92.559208 
L 316.945511 87.768713 
L 318.824111 87.768713 
L 318.824111 82.978218 
L 323.466662 82.978218 
L 323.466662 78.187723 
L 323.466662 78.187723 
L 323.466662 78.187723 
L 460.8 78.187723 
" clip-path="url(#p048471545f)" style="fill: none; stroke: #f5deb3; stroke-width: 1.5; stroke-linecap: square"/>
   </g>
   <g id="line2d_28">
    <path d="M 251.85035 293.76 
L 251.85035 288.969505 
L 253.583177 288.969505 
L 253.583177 284.17901 
L 254.386811 284.17901 
L 254.386811 279.388515 
L 254.797012 279.388515 
L 254.797012 274.59802 
L 256.549869 274.59802 
L 256.549869 269.807525 
L 256.719244 269.807525 
L 256.719244 265.01703 
L 257.034472 265.01703 
L 257.034472 260.226535 
L 257.334255 260.226535 
L 257.334255 255.43604 
L 299.271038 255.43604 
L 299.271038 250.645545 
L 299.320335 250.645545 
L 299.320335 245.85505 
L 299.475762 245.85505 
L 299.475762 241.064554 
L 299.57594 241.064554 
L 299.57594 236.274059 
L 299.887029 236.274059 
L 299.887029 231.483564 
L 308.48961 231.483564 
L 308.48961 226.693069 
L 309.8784 226.693069 
L 309.8784 221.902574 
L 310.108071 221.902574 
L 310.108071 217.112079 
L 310.177151 217.112079 
L 310.177151 212.321584 
L 310.281318 212.321584 
L 310.281318 207.531089 
L 310.633179 207.531089 
L 310.633179 202.740594 
L 311.13881 202.740594 
L 311.13881 197.950099 
L 311.557287 197.950099 
L 311.557287 193.159604 
L 311.735566 193.159604 
L 311.735566 188.369109 
L 312.192112 188.369109 
L 312.192112 183.578614 
L 312.566097 183.578614 
L 312.566097 178.788119 
L 312.633983 178.788119 
L 312.633983 173.997624 
L 312.662925 173.997624 
L 312.662925 169.207129 
L 313.158552 169.207129 
L 313.158552 164.416634 
L 313.398363 164.416634 
L 313.398363 159.626139 
L 313.431098 159.626139 
L 313.431098 154.835644 
L 313.571335 154.835644 
L 313.571335 150.045149 
L 314.217928 150.045149 
L 314.217928 145.254653 
L 314.452272 145.254653 
L 314.452272 140.464158 
L 314.549421 140.464158 
L 314.549421 135.673663 
L 314.60542 135.673663 
L 314.60542 130.883168 
L 314.62765 130.883168 
L 314.62765 126.092673 
L 315.306554 126.092673 
L 315.306554 121.302178 
L 315.604976 121.302178 
L 315.604976 116.511683 
L 315.652943 116.511683 
L 315.652943 111.721188 
L 315.702922 111.721188 
L 315.702922 106.930693 
L 315.783974 106.930693 
L 315.783974 102.140198 
L 315.873796 102.140198 
L 315.873796 97.349703 
L 316.245646 97.349703 
L 316.245646 92.559208 
L 317.534432 92.559208 
L 317.534432 87.768713 
L 318.718035 87.768713 
L 318.718035 82.978218 
L 318.845536 82.978218 
L 318.845536 78.187723 
L 320.425688 78.187723 
L 320.425688 73.397228 
L 320.492243 73.397228 
L 320.492243 68.606733 
L 320.709548 68.606733 
L 320.709548 63.816238 
L 321.216115 63.816238 
L 321.216115 59.025743 
L 322.111783 59.025743 
L 322.111783 54.235248 
L 322.595529 54.235248 
L 322.595529 49.444752 
L 323.432741 49.444752 
L 323.432741 44.654257 
L 323.715611 44.654257 
L 323.715611 39.863762 
L 324.520171 39.863762 
L 324.520171 35.073267 
L 325.507375 35.073267 
L 325.507375 30.282772 
L 327.841919 30.282772 
L 327.841919 25.492277 
L 328.978783 25.492277 
L 328.978783 20.701782 
L 329.318801 20.701782 
L 329.318801 15.911287 
L 345.368781 15.911287 
L 345.368781 11.120792 
L 346.564263 11.120792 
L 346.564263 6.330297 
L 346.564263 6.330297 
L 346.564263 6.330297 
L 460.8 6.330297 
" clip-path="url(#p048471545f)" style="fill: none; stroke: #f5deb3; stroke-width: 1.5; stroke-linecap: square"/>
   </g>
   <g id="line2d_29">
    <path d="M 221.537852 293.76 
L 221.537852 288.969505 
L 221.537852 288.969505 
L 221.537852 284.17901 
L 221.537852 284.17901 
L 221.537852 279.388515 
L 230.983674 279.388515 
L 230.983674 274.59802 
L 230.983674 274.59802 
L 230.983674 269.807525 
L 230.983674 269.807525 
L 230.983674 265.01703 
L 246.306588 265.01703 
L 246.306588 260.226535 
L 246.306588 260.226535 
L 246.306588 255.43604 
L 246.306588 255.43604 
L 246.306588 250.645545 
L 246.859619 250.645545 
L 246.859619 245.85505 
L 246.859619 245.85505 
L 246.859619 241.064554 
L 246.859619 241.064554 
L 246.859619 236.274059 
L 256.753013 236.274059 
L 256.753013 231.483564 
L 256.753013 231.483564 
L 256.753013 226.693069 
L 256.753013 226.693069 
L 256.753013 221.902574 
L 258.047566 221.902574 
L 258.047566 217.112079 
L 258.047566 217.112079 
L 258.047566 212.321584 
L 258.047566 212.321584 
L 258.047566 207.531089 
L 258.32215 207.531089 
L 258.32215 202.740594 
L 258.32215 202.740594 
L 258.32215 197.950099 
L 258.32215 197.950099 
L 258.32215 193.159604 
L 259.238051 193.159604 
L 259.238051 188.369109 
L 259.238051 188.369109 
L 259.238051 183.578614 
L 259.238051 183.578614 
L 259.238051 178.788119 
L 259.284936 178.788119 
L 259.284936 173.997624 
L 259.284936 173.997624 
L 259.284936 169.207129 
L 259.284936 169.207129 
L 259.284936 164.416634 
L 276.143066 164.416634 
L 276.143066 159.626139 
L 276.143066 159.626139 
L 276.143066 154.835644 
L 276.143066 154.835644 
L 276.143066 150.045149 
L 276.143066 150.045149 
L 276.143066 150.045149 
L 460.8 150.045149 
" clip-path="url(#p048471545f)" style="fill: none; stroke: #f5deb3; stroke-width: 1.5; stroke-linecap: square"/>
   </g>
   <g id="line2d_30"/>
   <g id="matplotlib.axis_1">
    <g id="xtick_1">
     <g id="line2d_31">
      <path d="M 137.389979 293.76 
L 137.389979 3.456 
" clip-path="url(#p048471545f)" style="fill: none; stroke: #b0b0b0; stroke-width: 0.8; stroke-linecap: square"/>
     </g>
     <g id="line2d_32">
      <defs>
       <path id="m33823ccacc" d="M 0 0 
L 0 3.5 
" style="stroke: #000000; stroke-width: 0.8"/>
      </defs>
      <g>
       <use xlink:href="#m33823ccacc" x="137.389979" y="293.76" style="stroke: #000000; stroke-width: 0.8"/>
      </g>
     </g>
     <g id="text_1">
      <!-- 1 -->
      <g transform="translate(131.027479 315.956875)scale(0.2 -0.2)">
       <defs>
        <path id="DejaVuSans-31" d="M 794 531 
L 1825 531 
L 1825 4091 
L 703 3866 
L 703 4441 
L 1819 4666 
L 2450 4666 
L 2450 531 
L 3481 531 
L 3481 0 
L 794 0 
L 794 531 
z
" transform="scale(0.015625)"/>
       </defs>
       <use xlink:href="#DejaVuSans-31"/>
      </g>
     </g>
    </g>
    <g id="xtick_2">
     <g id="line2d_33">
      <path d="M 287.753938 293.76 
L 287.753938 3.456 
" clip-path="url(#p048471545f)" style="fill: none; stroke: #b0b0b0; stroke-width: 0.8; stroke-linecap: square"/>
     </g>
     <g id="line2d_34">
      <g>
       <use xlink:href="#m33823ccacc" x="287.753938" y="293.76" style="stroke: #000000; stroke-width: 0.8"/>
      </g>
     </g>
     <g id="text_2">
      <!-- 3 -->
      <g transform="translate(281.391438 315.956875)scale(0.2 -0.2)">
       <defs>
        <path id="DejaVuSans-33" d="M 2597 2516 
Q 3050 2419 3304 2112 
Q 3559 1806 3559 1356 
Q 3559 666 3084 287 
Q 2609 -91 1734 -91 
Q 1441 -91 1130 -33 
Q 819 25 488 141 
L 488 750 
Q 750 597 1062 519 
Q 1375 441 1716 441 
Q 2309 441 2620 675 
Q 2931 909 2931 1356 
Q 2931 1769 2642 2001 
Q 2353 2234 1838 2234 
L 1294 2234 
L 1294 2753 
L 1863 2753 
Q 2328 2753 2575 2939 
Q 2822 3125 2822 3475 
Q 2822 3834 2567 4026 
Q 2313 4219 1838 4219 
Q 1578 4219 1281 4162 
Q 984 4106 628 3988 
L 628 4550 
Q 988 4650 1302 4700 
Q 1616 4750 1894 4750 
Q 2613 4750 3031 4423 
Q 3450 4097 3450 3541 
Q 3450 3153 3228 2886 
Q 3006 2619 2597 2516 
z
" transform="scale(0.015625)"/>
       </defs>
       <use xlink:href="#DejaVuSans-33"/>
      </g>
     </g>
    </g>
    <g id="xtick_3">
     <g id="line2d_35">
      <path d="M 438.117896 293.76 
L 438.117896 3.456 
" clip-path="url(#p048471545f)" style="fill: none; stroke: #b0b0b0; stroke-width: 0.8; stroke-linecap: square"/>
     </g>
     <g id="line2d_36">
      <g>
       <use xlink:href="#m33823ccacc" x="438.117896" y="293.76" style="stroke: #000000; stroke-width: 0.8"/>
      </g>
     </g>
     <g id="text_3">
      <!-- 5 -->
      <g transform="translate(431.755396 315.956875)scale(0.2 -0.2)">
       <defs>
        <path id="DejaVuSans-35" d="M 691 4666 
L 3169 4666 
L 3169 4134 
L 1269 4134 
L 1269 2991 
Q 1406 3038 1543 3061 
Q 1681 3084 1819 3084 
Q 2600 3084 3056 2656 
Q 3513 2228 3513 1497 
Q 3513 744 3044 326 
Q 2575 -91 1722 -91 
Q 1428 -91 1123 -41 
Q 819 9 494 109 
L 494 744 
Q 775 591 1075 516 
Q 1375 441 1709 441 
Q 2250 441 2565 725 
Q 2881 1009 2881 1497 
Q 2881 1984 2565 2268 
Q 2250 2553 1709 2553 
Q 1456 2553 1204 2497 
Q 953 2441 691 2322 
L 691 4666 
z
" transform="scale(0.015625)"/>
       </defs>
       <use xlink:href="#DejaVuSans-35"/>
      </g>
     </g>
    </g>
    <g id="text_4">
     <!-- log10 of FEvals / DIM -->
     <g transform="translate(156.430563 339.313125)scale(0.2 -0.2)">
      <defs>
       <path id="DejaVuSans-6c" d="M 603 4863 
L 1178 4863 
L 1178 0 
L 603 0 
L 603 4863 
z
" transform="scale(0.015625)"/>
       <path id="DejaVuSans-6f" d="M 1959 3097 
Q 1497 3097 1228 2736 
Q 959 2375 959 1747 
Q 959 1119 1226 758 
Q 1494 397 1959 397 
Q 2419 397 2687 759 
Q 2956 1122 2956 1747 
Q 2956 2369 2687 2733 
Q 2419 3097 1959 3097 
z
M 1959 3584 
Q 2709 3584 3137 3096 
Q 3566 2609 3566 1747 
Q 3566 888 3137 398 
Q 2709 -91 1959 -91 
Q 1206 -91 779 398 
Q 353 888 353 1747 
Q 353 2609 779 3096 
Q 1206 3584 1959 3584 
z
" transform="scale(0.015625)"/>
       <path id="DejaVuSans-67" d="M 2906 1791 
Q 2906 2416 2648 2759 
Q 2391 3103 1925 3103 
Q 1463 3103 1205 2759 
Q 947 2416 947 1791 
Q 947 1169 1205 825 
Q 1463 481 1925 481 
Q 2391 481 2648 825 
Q 2906 1169 2906 1791 
z
M 3481 434 
Q 3481 -459 3084 -895 
Q 2688 -1331 1869 -1331 
Q 1566 -1331 1297 -1286 
Q 1028 -1241 775 -1147 
L 775 -588 
Q 1028 -725 1275 -790 
Q 1522 -856 1778 -856 
Q 2344 -856 2625 -561 
Q 2906 -266 2906 331 
L 2906 616 
Q 2728 306 2450 153 
Q 2172 0 1784 0 
Q 1141 0 747 490 
Q 353 981 353 1791 
Q 353 2603 747 3093 
Q 1141 3584 1784 3584 
Q 2172 3584 2450 3431 
Q 2728 3278 2906 2969 
L 2906 3500 
L 3481 3500 
L 3481 434 
z
" transform="scale(0.015625)"/>
       <path id="DejaVuSans-30" d="M 2034 4250 
Q 1547 4250 1301 3770 
Q 1056 3291 1056 2328 
Q 1056 1369 1301 889 
Q 1547 409 2034 409 
Q 2525 409 2770 889 
Q 3016 1369 3016 2328 
Q 3016 3291 2770 3770 
Q 2525 4250 2034 4250 
z
M 2034 4750 
Q 2819 4750 3233 4129 
Q 3647 3509 3647 2328 
Q 3647 1150 3233 529 
Q 2819 -91 2034 -91 
Q 1250 -91 836 529 
Q 422 1150 422 2328 
Q 422 3509 836 4129 
Q 1250 4750 2034 4750 
z
" transform="scale(0.015625)"/>
       <path id="DejaVuSans-20" transform="scale(0.015625)"/>
       <path id="DejaVuSans-66" d="M 2375 4863 
L 2375 4384 
L 1825 4384 
Q 1516 4384 1395 4259 
Q 1275 4134 1275 3809 
L 1275 3500 
L 2222 3500 
L 2222 3053 
L 1275 3053 
L 1275 0 
L 697 0 
L 697 3053 
L 147 3053 
L 147 3500 
L 697 3500 
L 697 3744 
Q 697 4328 969 4595 
Q 1241 4863 1831 4863 
L 2375 4863 
z
" transform="scale(0.015625)"/>
       <path id="DejaVuSans-46" d="M 628 4666 
L 3309 4666 
L 3309 4134 
L 1259 4134 
L 1259 2759 
L 3109 2759 
L 3109 2228 
L 1259 2228 
L 1259 0 
L 628 0 
L 628 4666 
z
" transform="scale(0.015625)"/>
       <path id="DejaVuSans-45" d="M 628 4666 
L 3578 4666 
L 3578 4134 
L 1259 4134 
L 1259 2753 
L 3481 2753 
L 3481 2222 
L 1259 2222 
L 1259 531 
L 3634 531 
L 3634 0 
L 628 0 
L 628 4666 
z
" transform="scale(0.015625)"/>
       <path id="DejaVuSans-76" d="M 191 3500 
L 800 3500 
L 1894 563 
L 2988 3500 
L 3597 3500 
L 2284 0 
L 1503 0 
L 191 3500 
z
" transform="scale(0.015625)"/>
       <path id="DejaVuSans-61" d="M 2194 1759 
Q 1497 1759 1228 1600 
Q 959 1441 959 1056 
Q 959 750 1161 570 
Q 1363 391 1709 391 
Q 2188 391 2477 730 
Q 2766 1069 2766 1631 
L 2766 1759 
L 2194 1759 
z
M 3341 1997 
L 3341 0 
L 2766 0 
L 2766 531 
Q 2569 213 2275 61 
Q 1981 -91 1556 -91 
Q 1019 -91 701 211 
Q 384 513 384 1019 
Q 384 1609 779 1909 
Q 1175 2209 1959 2209 
L 2766 2209 
L 2766 2266 
Q 2766 2663 2505 2880 
Q 2244 3097 1772 3097 
Q 1472 3097 1187 3025 
Q 903 2953 641 2809 
L 641 3341 
Q 956 3463 1253 3523 
Q 1550 3584 1831 3584 
Q 2591 3584 2966 3190 
Q 3341 2797 3341 1997 
z
" transform="scale(0.015625)"/>
       <path id="DejaVuSans-73" d="M 2834 3397 
L 2834 2853 
Q 2591 2978 2328 3040 
Q 2066 3103 1784 3103 
Q 1356 3103 1142 2972 
Q 928 2841 928 2578 
Q 928 2378 1081 2264 
Q 1234 2150 1697 2047 
L 1894 2003 
Q 2506 1872 2764 1633 
Q 3022 1394 3022 966 
Q 3022 478 2636 193 
Q 2250 -91 1575 -91 
Q 1294 -91 989 -36 
Q 684 19 347 128 
L 347 722 
Q 666 556 975 473 
Q 1284 391 1588 391 
Q 1994 391 2212 530 
Q 2431 669 2431 922 
Q 2431 1156 2273 1281 
Q 2116 1406 1581 1522 
L 1381 1569 
Q 847 1681 609 1914 
Q 372 2147 372 2553 
Q 372 3047 722 3315 
Q 1072 3584 1716 3584 
Q 2034 3584 2315 3537 
Q 2597 3491 2834 3397 
z
" transform="scale(0.015625)"/>
       <path id="DejaVuSans-2f" d="M 1625 4666 
L 2156 4666 
L 531 -594 
L 0 -594 
L 1625 4666 
z
" transform="scale(0.015625)"/>
       <path id="DejaVuSans-44" d="M 1259 4147 
L 1259 519 
L 2022 519 
Q 2988 519 3436 956 
Q 3884 1394 3884 2338 
Q 3884 3275 3436 3711 
Q 2988 4147 2022 4147 
L 1259 4147 
z
M 628 4666 
L 1925 4666 
Q 3281 4666 3915 4102 
Q 4550 3538 4550 2338 
Q 4550 1131 3912 565 
Q 3275 0 1925 0 
L 628 0 
L 628 4666 
z
" transform="scale(0.015625)"/>
       <path id="DejaVuSans-49" d="M 628 4666 
L 1259 4666 
L 1259 0 
L 628 0 
L 628 4666 
z
" transform="scale(0.015625)"/>
       <path id="DejaVuSans-4d" d="M 628 4666 
L 1569 4666 
L 2759 1491 
L 3956 4666 
L 4897 4666 
L 4897 0 
L 4281 0 
L 4281 4097 
L 3078 897 
L 2444 897 
L 1241 4097 
L 1241 0 
L 628 0 
L 628 4666 
z
" transform="scale(0.015625)"/>
      </defs>
      <use xlink:href="#DejaVuSans-6c"/>
      <use xlink:href="#DejaVuSans-6f" x="27.783203"/>
      <use xlink:href="#DejaVuSans-67" x="88.964844"/>
      <use xlink:href="#DejaVuSans-31" x="152.441406"/>
      <use xlink:href="#DejaVuSans-30" x="216.064453"/>
      <use xlink:href="#DejaVuSans-20" x="279.6875"/>
      <use xlink:href="#DejaVuSans-6f" x="311.474609"/>
      <use xlink:href="#DejaVuSans-66" x="372.65625"/>
      <use xlink:href="#DejaVuSans-20" x="407.861328"/>
      <use xlink:href="#DejaVuSans-46" x="439.648438"/>
      <use xlink:href="#DejaVuSans-45" x="497.167969"/>
      <use xlink:href="#DejaVuSans-76" x="560.351562"/>
      <use xlink:href="#DejaVuSans-61" x="619.53125"/>
      <use xlink:href="#DejaVuSans-6c" x="680.810547"/>
      <use xlink:href="#DejaVuSans-73" x="708.59375"/>
      <use xlink:href="#DejaVuSans-20" x="760.693359"/>
      <use xlink:href="#DejaVuSans-2f" x="792.480469"/>
      <use xlink:href="#DejaVuSans-20" x="826.171875"/>
      <use xlink:href="#DejaVuSans-44" x="857.958984"/>
      <use xlink:href="#DejaVuSans-49" x="934.960938"/>
      <use xlink:href="#DejaVuSans-4d" x="964.453125"/>
     </g>
    </g>
   </g>
   <g id="matplotlib.axis_2">
    <g id="ytick_1">
     <g id="line2d_37">
      <path d="M 62.208 293.76 
L 460.8 293.76 
" clip-path="url(#p048471545f)" style="fill: none; stroke: #b0b0b0; stroke-width: 0.8; stroke-linecap: square"/>
     </g>
     <g id="line2d_38">
      <defs>
       <path id="m5f0f5e0ef1" d="M 0 0 
L -3.5 0 
" style="stroke: #000000; stroke-width: 0.8"/>
      </defs>
      <g>
       <use xlink:href="#m5f0f5e0ef1" x="62.208" y="293.76" style="stroke: #000000; stroke-width: 0.8"/>
      </g>
     </g>
     <g id="text_5">
      <!-- 0.0 -->
      <g transform="translate(29.763 299.83875)scale(0.16 -0.16)">
       <defs>
        <path id="DejaVuSans-2e" d="M 684 794 
L 1344 794 
L 1344 0 
L 684 0 
L 684 794 
z
" transform="scale(0.015625)"/>
       </defs>
       <use xlink:href="#DejaVuSans-30"/>
       <use xlink:href="#DejaVuSans-2e" x="63.623047"/>
       <use xlink:href="#DejaVuSans-30" x="95.410156"/>
      </g>
     </g>
    </g>
    <g id="ytick_2">
     <g id="line2d_39">
      <path d="M 62.208 236.274059 
L 460.8 236.274059 
" clip-path="url(#p048471545f)" style="fill: none; stroke: #b0b0b0; stroke-width: 0.8; stroke-linecap: square"/>
     </g>
     <g id="line2d_40">
      <g>
       <use xlink:href="#m5f0f5e0ef1" x="62.208" y="236.274059" style="stroke: #000000; stroke-width: 0.8"/>
      </g>
     </g>
     <g id="text_6">
      <!-- 0.2 -->
      <g transform="translate(29.763 242.352809)scale(0.16 -0.16)">
       <defs>
        <path id="DejaVuSans-32" d="M 1228 531 
L 3431 531 
L 3431 0 
L 469 0 
L 469 531 
Q 828 903 1448 1529 
Q 2069 2156 2228 2338 
Q 2531 2678 2651 2914 
Q 2772 3150 2772 3378 
Q 2772 3750 2511 3984 
Q 2250 4219 1831 4219 
Q 1534 4219 1204 4116 
Q 875 4013 500 3803 
L 500 4441 
Q 881 4594 1212 4672 
Q 1544 4750 1819 4750 
Q 2544 4750 2975 4387 
Q 3406 4025 3406 3419 
Q 3406 3131 3298 2873 
Q 3191 2616 2906 2266 
Q 2828 2175 2409 1742 
Q 1991 1309 1228 531 
z
" transform="scale(0.015625)"/>
       </defs>
       <use xlink:href="#DejaVuSans-30"/>
       <use xlink:href="#DejaVuSans-2e" x="63.623047"/>
       <use xlink:href="#DejaVuSans-32" x="95.410156"/>
      </g>
     </g>
    </g>
    <g id="ytick_3">
     <g id="line2d_41">
      <path d="M 62.208 178.788119 
L 460.8 178.788119 
" clip-path="url(#p048471545f)" style="fill: none; stroke: #b0b0b0; stroke-width: 0.8; stroke-linecap: square"/>
     </g>
     <g id="line2d_42">
      <g>
       <use xlink:href="#m5f0f5e0ef1" x="62.208" y="178.788119" style="stroke: #000000; stroke-width: 0.8"/>
      </g>
     </g>
     <g id="text_7">
      <!-- 0.4 -->
      <g transform="translate(29.763 184.866869)scale(0.16 -0.16)">
       <defs>
        <path id="DejaVuSans-34" d="M 2419 4116 
L 825 1625 
L 2419 1625 
L 2419 4116 
z
M 2253 4666 
L 3047 4666 
L 3047 1625 
L 3713 1625 
L 3713 1100 
L 3047 1100 
L 3047 0 
L 2419 0 
L 2419 1100 
L 313 1100 
L 313 1709 
L 2253 4666 
z
" transform="scale(0.015625)"/>
       </defs>
       <use xlink:href="#DejaVuSans-30"/>
       <use xlink:href="#DejaVuSans-2e" x="63.623047"/>
       <use xlink:href="#DejaVuSans-34" x="95.410156"/>
      </g>
     </g>
    </g>
    <g id="ytick_4">
     <g id="line2d_43">
      <path d="M 62.208 121.302178 
L 460.8 121.302178 
" clip-path="url(#p048471545f)" style="fill: none; stroke: #b0b0b0; stroke-width: 0.8; stroke-linecap: square"/>
     </g>
     <g id="line2d_44">
      <g>
       <use xlink:href="#m5f0f5e0ef1" x="62.208" y="121.302178" style="stroke: #000000; stroke-width: 0.8"/>
      </g>
     </g>
     <g id="text_8">
      <!-- 0.6 -->
      <g transform="translate(29.763 127.380928)scale(0.16 -0.16)">
       <defs>
        <path id="DejaVuSans-36" d="M 2113 2584 
Q 1688 2584 1439 2293 
Q 1191 2003 1191 1497 
Q 1191 994 1439 701 
Q 1688 409 2113 409 
Q 2538 409 2786 701 
Q 3034 994 3034 1497 
Q 3034 2003 2786 2293 
Q 2538 2584 2113 2584 
z
M 3366 4563 
L 3366 3988 
Q 3128 4100 2886 4159 
Q 2644 4219 2406 4219 
Q 1781 4219 1451 3797 
Q 1122 3375 1075 2522 
Q 1259 2794 1537 2939 
Q 1816 3084 2150 3084 
Q 2853 3084 3261 2657 
Q 3669 2231 3669 1497 
Q 3669 778 3244 343 
Q 2819 -91 2113 -91 
Q 1303 -91 875 529 
Q 447 1150 447 2328 
Q 447 3434 972 4092 
Q 1497 4750 2381 4750 
Q 2619 4750 2861 4703 
Q 3103 4656 3366 4563 
z
" transform="scale(0.015625)"/>
       </defs>
       <use xlink:href="#DejaVuSans-30"/>
       <use xlink:href="#DejaVuSans-2e" x="63.623047"/>
       <use xlink:href="#DejaVuSans-36" x="95.410156"/>
      </g>
     </g>
    </g>
    <g id="ytick_5">
     <g id="line2d_45">
      <path d="M 62.208 63.816238 
L 460.8 63.816238 
" clip-path="url(#p048471545f)" style="fill: none; stroke: #b0b0b0; stroke-width: 0.8; stroke-linecap: square"/>
     </g>
     <g id="line2d_46">
      <g>
       <use xlink:href="#m5f0f5e0ef1" x="62.208" y="63.816238" style="stroke: #000000; stroke-width: 0.8"/>
      </g>
     </g>
     <g id="text_9">
      <!-- 0.8 -->
      <g transform="translate(29.763 69.894988)scale(0.16 -0.16)">
       <defs>
        <path id="DejaVuSans-38" d="M 2034 2216 
Q 1584 2216 1326 1975 
Q 1069 1734 1069 1313 
Q 1069 891 1326 650 
Q 1584 409 2034 409 
Q 2484 409 2743 651 
Q 3003 894 3003 1313 
Q 3003 1734 2745 1975 
Q 2488 2216 2034 2216 
z
M 1403 2484 
Q 997 2584 770 2862 
Q 544 3141 544 3541 
Q 544 4100 942 4425 
Q 1341 4750 2034 4750 
Q 2731 4750 3128 4425 
Q 3525 4100 3525 3541 
Q 3525 3141 3298 2862 
Q 3072 2584 2669 2484 
Q 3125 2378 3379 2068 
Q 3634 1759 3634 1313 
Q 3634 634 3220 271 
Q 2806 -91 2034 -91 
Q 1263 -91 848 271 
Q 434 634 434 1313 
Q 434 1759 690 2068 
Q 947 2378 1403 2484 
z
M 1172 3481 
Q 1172 3119 1398 2916 
Q 1625 2713 2034 2713 
Q 2441 2713 2670 2916 
Q 2900 3119 2900 3481 
Q 2900 3844 2670 4047 
Q 2441 4250 2034 4250 
Q 1625 4250 1398 4047 
Q 1172 3844 1172 3481 
z
" transform="scale(0.015625)"/>
       </defs>
       <use xlink:href="#DejaVuSans-30"/>
       <use xlink:href="#DejaVuSans-2e" x="63.623047"/>
       <use xlink:href="#DejaVuSans-38" x="95.410156"/>
      </g>
     </g>
    </g>
    <g id="ytick_6">
     <g id="line2d_47">
      <path d="M 62.208 6.330297 
L 460.8 6.330297 
" clip-path="url(#p048471545f)" style="fill: none; stroke: #b0b0b0; stroke-width: 0.8; stroke-linecap: square"/>
     </g>
     <g id="line2d_48">
      <g>
       <use xlink:href="#m5f0f5e0ef1" x="62.208" y="6.330297" style="stroke: #000000; stroke-width: 0.8"/>
      </g>
     </g>
     <g id="text_10">
      <!-- 1.0 -->
      <g transform="translate(29.763 12.409047)scale(0.16 -0.16)">
       <use xlink:href="#DejaVuSans-31"/>
       <use xlink:href="#DejaVuSans-2e" x="63.623047"/>
       <use xlink:href="#DejaVuSans-30" x="95.410156"/>
      </g>
     </g>
    </g>
    <g id="text_11">
     <!-- proportion of trials -->
     <g transform="translate(21.603625 241.61425)rotate(-90)scale(0.2 -0.2)">
      <defs>
       <path id="DejaVuSans-70" d="M 1159 525 
L 1159 -1331 
L 581 -1331 
L 581 3500 
L 1159 3500 
L 1159 2969 
Q 1341 3281 1617 3432 
Q 1894 3584 2278 3584 
Q 2916 3584 3314 3078 
Q 3713 2572 3713 1747 
Q 3713 922 3314 415 
Q 2916 -91 2278 -91 
Q 1894 -91 1617 61 
Q 1341 213 1159 525 
z
M 3116 1747 
Q 3116 2381 2855 2742 
Q 2594 3103 2138 3103 
Q 1681 3103 1420 2742 
Q 1159 2381 1159 1747 
Q 1159 1113 1420 752 
Q 1681 391 2138 391 
Q 2594 391 2855 752 
Q 3116 1113 3116 1747 
z
" transform="scale(0.015625)"/>
       <path id="DejaVuSans-72" d="M 2631 2963 
Q 2534 3019 2420 3045 
Q 2306 3072 2169 3072 
Q 1681 3072 1420 2755 
Q 1159 2438 1159 1844 
L 1159 0 
L 581 0 
L 581 3500 
L 1159 3500 
L 1159 2956 
Q 1341 3275 1631 3429 
Q 1922 3584 2338 3584 
Q 2397 3584 2469 3576 
Q 2541 3569 2628 3553 
L 2631 2963 
z
" transform="scale(0.015625)"/>
       <path id="DejaVuSans-74" d="M 1172 4494 
L 1172 3500 
L 2356 3500 
L 2356 3053 
L 1172 3053 
L 1172 1153 
Q 1172 725 1289 603 
Q 1406 481 1766 481 
L 2356 481 
L 2356 0 
L 1766 0 
Q 1100 0 847 248 
Q 594 497 594 1153 
L 594 3053 
L 172 3053 
L 172 3500 
L 594 3500 
L 594 4494 
L 1172 4494 
z
" transform="scale(0.015625)"/>
       <path id="DejaVuSans-69" d="M 603 3500 
L 1178 3500 
L 1178 0 
L 603 0 
L 603 3500 
z
M 603 4863 
L 1178 4863 
L 1178 4134 
L 603 4134 
L 603 4863 
z
" transform="scale(0.015625)"/>
       <path id="DejaVuSans-6e" d="M 3513 2113 
L 3513 0 
L 2938 0 
L 2938 2094 
Q 2938 2591 2744 2837 
Q 2550 3084 2163 3084 
Q 1697 3084 1428 2787 
Q 1159 2491 1159 1978 
L 1159 0 
L 581 0 
L 581 3500 
L 1159 3500 
L 1159 2956 
Q 1366 3272 1645 3428 
Q 1925 3584 2291 3584 
Q 2894 3584 3203 3211 
Q 3513 2838 3513 2113 
z
" transform="scale(0.015625)"/>
      </defs>
      <use xlink:href="#DejaVuSans-70"/>
      <use xlink:href="#DejaVuSans-72" x="63.476562"/>
      <use xlink:href="#DejaVuSans-6f" x="102.339844"/>
      <use xlink:href="#DejaVuSans-70" x="163.521484"/>
      <use xlink:href="#DejaVuSans-6f" x="226.998047"/>
      <use xlink:href="#DejaVuSans-72" x="288.179688"/>
      <use xlink:href="#DejaVuSans-74" x="329.292969"/>
      <use xlink:href="#DejaVuSans-69" x="368.501953"/>
      <use xlink:href="#DejaVuSans-6f" x="396.285156"/>
      <use xlink:href="#DejaVuSans-6e" x="457.466797"/>
      <use xlink:href="#DejaVuSans-20" x="520.845703"/>
      <use xlink:href="#DejaVuSans-6f" x="552.632812"/>
      <use xlink:href="#DejaVuSans-66" x="613.814453"/>
      <use xlink:href="#DejaVuSans-20" x="649.019531"/>
      <use xlink:href="#DejaVuSans-74" x="680.806641"/>
      <use xlink:href="#DejaVuSans-72" x="720.015625"/>
      <use xlink:href="#DejaVuSans-69" x="761.128906"/>
      <use xlink:href="#DejaVuSans-61" x="788.912109"/>
      <use xlink:href="#DejaVuSans-6c" x="850.191406"/>
      <use xlink:href="#DejaVuSans-73" x="877.974609"/>
     </g>
    </g>
   </g>
   <g id="line2d_49">
    <path d="M 170.121695 293.76 
L 170.121695 288.969505 
L 182.938496 288.969505 
L 182.938496 284.17901 
L 183.460282 284.17901 
L 183.460282 279.388515 
L 184.285942 279.388515 
L 184.285942 274.59802 
L 187.394396 274.59802 
L 187.394396 269.807525 
L 188.230756 269.807525 
L 188.230756 265.01703 
L 188.708919 265.01703 
L 188.708919 260.226535 
L 191.000018 260.226535 
L 191.000018 255.43604 
L 191.749933 255.43604 
L 191.749933 250.645545 
L 191.873261 250.645545 
L 191.873261 245.85505 
L 192.723757 245.85505 
L 192.723757 241.064554 
L 194.10338 241.064554 
L 194.10338 236.274059 
L 200.550818 236.274059 
L 200.550818 231.483564 
L 203.222323 231.483564 
L 203.222323 226.693069 
L 203.804047 226.693069 
L 203.804047 221.902574 
L 205.14291 221.902574 
L 205.14291 217.112079 
L 206.389594 217.112079 
L 206.389594 212.321584 
L 206.917973 212.321584 
L 206.917973 207.531089 
L 208.638343 207.531089 
L 208.638343 202.740594 
L 208.693543 202.740594 
L 208.693543 197.950099 
L 209.52847 197.950099 
L 209.52847 193.159604 
L 213.473625 193.159604 
L 213.473625 188.369109 
L 214.289161 188.369109 
L 214.289161 183.578614 
L 216.038208 183.578614 
L 216.038208 178.788119 
L 216.184691 178.788119 
L 216.184691 173.997624 
L 217.460232 173.997624 
L 217.460232 169.207129 
L 221.90791 169.207129 
L 221.90791 164.416634 
L 229.306446 164.416634 
L 229.306446 159.626139 
L 234.268316 159.626139 
L 234.268316 154.835644 
L 242.37212 154.835644 
L 242.37212 150.045149 
L 250.072191 150.045149 
L 250.072191 145.254653 
L 257.317672 145.254653 
L 257.317672 140.464158 
L 260.492174 140.464158 
L 260.492174 135.673663 
L 261.609129 135.673663 
L 261.609129 130.883168 
L 264.783856 130.883168 
L 264.783856 126.092673 
L 265.401506 126.092673 
L 265.401506 121.302178 
L 265.575852 121.302178 
L 265.575852 116.511683 
L 266.913373 116.511683 
L 266.913373 111.721188 
L 266.993634 111.721188 
L 266.993634 106.930693 
L 268.117922 106.930693 
L 268.117922 102.140198 
L 268.319858 102.140198 
L 268.319858 97.349703 
L 268.523494 97.349703 
L 268.523494 92.559208 
L 269.465935 92.559208 
L 269.465935 87.768713 
L 269.713671 87.768713 
L 269.713671 82.978218 
L 269.982057 82.978218 
L 269.982057 78.187723 
L 270.186802 78.187723 
L 270.186802 73.397228 
L 270.239882 73.397228 
L 270.239882 68.606733 
L 270.401383 68.606733 
L 270.401383 63.816238 
L 271.072189 63.816238 
L 271.072189 59.025743 
L 271.107544 59.025743 
L 271.107544 54.235248 
L 272.62388 54.235248 
L 272.62388 49.444752 
L 274.033171 49.444752 
L 274.033171 44.654257 
L 274.835897 44.654257 
L 274.835897 39.863762 
L 277.473807 39.863762 
L 277.473807 35.073267 
L 277.656702 35.073267 
L 277.656702 30.282772 
L 277.74333 30.282772 
L 277.74333 25.492277 
L 277.891619 25.492277 
L 277.891619 20.701782 
L 278.173058 20.701782 
L 278.173058 15.911287 
L 279.024442 15.911287 
L 279.024442 11.120792 
L 279.536577 11.120792 
L 279.536577 6.330297 
L 279.536577 6.330297 
L 279.536577 6.330297 
L 460.8 6.330297 
" clip-path="url(#p048471545f)" style="fill: none; stroke: #000000; stroke-width: 1.5; stroke-linecap: square"/>
   </g>
   <g id="line2d_50">
    <path clip-path="url(#p048471545f)" style="fill: none; stroke: #000000; stroke-width: 1.5; stroke-linecap: square"/>
   </g>
   <g id="line2d_51">
    <path d="M 221.000013 293.76 
L 221.000013 288.969505 
L 225.636243 288.969505 
L 225.636243 284.17901 
L 227.289682 284.17901 
L 227.289682 279.388515 
L 228.833662 279.388515 
L 228.833662 274.59802 
L 229.724246 274.59802 
L 229.724246 269.807525 
L 231.899614 269.807525 
L 231.899614 265.01703 
L 232.205271 265.01703 
L 232.205271 260.226535 
L 233.114144 260.226535 
L 233.114144 255.43604 
L 234.85934 255.43604 
L 234.85934 250.645545 
L 235.007493 250.645545 
L 235.007493 245.85505 
L 235.358715 245.85505 
L 235.358715 241.064554 
L 235.986331 241.064554 
L 235.986331 236.274059 
L 236.51597 236.274059 
L 236.51597 231.483564 
L 238.706921 231.483564 
L 238.706921 226.693069 
L 239.122215 226.693069 
L 239.122215 221.902574 
L 253.138492 221.902574 
L 253.138492 217.112079 
L 265.180626 217.112079 
L 265.180626 212.321584 
L 267.024452 212.321584 
L 267.024452 207.531089 
L 268.502893 207.531089 
L 268.502893 202.740594 
L 268.944428 202.740594 
L 268.944428 197.950099 
L 272.392117 197.950099 
L 272.392117 193.159604 
L 287.361407 193.159604 
L 287.361407 188.369109 
L 287.937897 188.369109 
L 287.937897 183.578614 
L 288.962249 183.578614 
L 288.962249 178.788119 
L 290.128953 178.788119 
L 290.128953 173.997624 
L 290.542264 173.997624 
L 290.542264 169.207129 
L 290.606654 169.207129 
L 290.606654 164.416634 
L 290.800554 164.416634 
L 290.800554 159.626139 
L 291.13934 159.626139 
L 291.13934 154.835644 
L 291.16288 154.835644 
L 291.16288 150.045149 
L 291.177583 150.045149 
L 291.177583 145.254653 
L 291.292046 145.254653 
L 291.292046 140.464158 
L 292.977814 140.464158 
L 292.977814 135.673663 
L 293.648388 135.673663 
L 293.648388 130.883168 
L 293.678358 130.883168 
L 293.678358 126.092673 
L 294.543695 126.092673 
L 294.543695 121.302178 
L 294.697155 121.302178 
L 294.697155 116.511683 
L 295.599216 116.511683 
L 295.599216 111.721188 
L 295.747805 111.721188 
L 295.747805 106.930693 
L 295.806542 106.930693 
L 295.806542 102.140198 
L 295.919885 102.140198 
L 295.919885 97.349703 
L 296.03157 97.349703 
L 296.03157 92.559208 
L 296.044237 92.559208 
L 296.044237 87.768713 
L 296.25254 87.768713 
L 296.25254 82.978218 
L 296.571872 82.978218 
L 296.571872 78.187723 
L 296.691287 78.187723 
L 296.691287 73.397228 
L 296.907852 73.397228 
L 296.907852 68.606733 
L 297.037105 68.606733 
L 297.037105 63.816238 
L 298.467292 63.816238 
L 298.467292 59.025743 
L 299.484882 59.025743 
L 299.484882 54.235248 
L 299.566846 54.235248 
L 299.566846 49.444752 
L 299.661077 49.444752 
L 299.661077 44.654257 
L 300.403078 44.654257 
L 300.403078 39.863762 
L 300.818222 39.863762 
L 300.818222 35.073267 
L 301.274584 35.073267 
L 301.274584 30.282772 
L 307.331726 30.282772 
L 307.331726 25.492277 
L 309.498979 25.492277 
L 309.498979 20.701782 
L 319.274236 20.701782 
L 319.274236 15.911287 
L 320.455085 15.911287 
L 320.455085 11.120792 
L 321.46997 11.120792 
L 321.46997 6.330297 
L 321.46997 6.330297 
L 321.46997 6.330297 
L 460.8 6.330297 
" clip-path="url(#p048471545f)" style="fill: none; stroke: #00bfbf; stroke-width: 1.5; stroke-linecap: square"/>
   </g>
   <g id="line2d_52">
    <path clip-path="url(#p048471545f)" style="fill: none; stroke: #00bfbf; stroke-width: 1.5; stroke-linecap: square"/>
   </g>
   <g id="line2d_53">
    <path d="M 245.327629 293.76 
L 245.327629 288.969505 
L 245.673021 288.969505 
L 245.673021 284.17901 
L 246.607309 284.17901 
L 246.607309 279.388515 
L 247.290888 279.388515 
L 247.290888 274.59802 
L 248.464639 274.59802 
L 248.464639 269.807525 
L 248.67064 269.807525 
L 248.67064 265.01703 
L 249.545086 265.01703 
L 249.545086 260.226535 
L 250.965819 260.226535 
L 250.965819 255.43604 
L 252.220835 255.43604 
L 252.220835 250.645545 
L 253.934616 250.645545 
L 253.934616 245.85505 
L 254.336875 245.85505 
L 254.336875 241.064554 
L 254.409483 241.064554 
L 254.409483 236.274059 
L 254.509057 236.274059 
L 254.509057 231.483564 
L 255.68956 231.483564 
L 255.68956 226.693069 
L 257.73792 226.693069 
L 257.73792 221.902574 
L 267.716297 221.902574 
L 267.716297 217.112079 
L 271.394411 217.112079 
L 271.394411 212.321584 
L 271.897075 212.321584 
L 271.897075 207.531089 
L 273.143879 207.531089 
L 273.143879 202.740594 
L 273.296752 202.740594 
L 273.296752 197.950099 
L 274.997961 197.950099 
L 274.997961 193.159604 
L 289.437046 193.159604 
L 289.437046 188.369109 
L 290.441681 188.369109 
L 290.441681 183.578614 
L 291.489211 183.578614 
L 291.489211 178.788119 
L 292.729239 178.788119 
L 292.729239 173.997624 
L 293.447424 173.997624 
L 293.447424 169.207129 
L 294.054721 169.207129 
L 294.054721 164.416634 
L 294.412152 164.416634 
L 294.412152 159.626139 
L 294.728815 159.626139 
L 294.728815 154.835644 
L 295.294811 154.835644 
L 295.294811 150.045149 
L 295.682561 150.045149 
L 295.682561 145.254653 
L 296.059431 145.254653 
L 296.059431 140.464158 
L 297.319673 140.464158 
L 297.319673 135.673663 
L 297.623959 135.673663 
L 297.623959 130.883168 
L 297.629992 130.883168 
L 297.629992 126.092673 
L 298.150621 126.092673 
L 298.150621 121.302178 
L 298.825148 121.302178 
L 298.825148 116.511683 
L 299.641799 116.511683 
L 299.641799 111.721188 
L 299.805867 111.721188 
L 299.805867 106.930693 
L 299.817151 106.930693 
L 299.817151 102.140198 
L 299.843091 102.140198 
L 299.843091 97.349703 
L 299.929784 97.349703 
L 299.929784 92.559208 
L 299.963498 92.559208 
L 299.963498 87.768713 
L 300.09689 87.768713 
L 300.09689 82.978218 
L 300.151658 82.978218 
L 300.151658 78.187723 
L 300.221939 78.187723 
L 300.221939 73.397228 
L 300.368705 73.397228 
L 300.368705 68.606733 
L 300.441842 68.606733 
L 300.441842 63.816238 
L 302.350777 63.816238 
L 302.350777 59.025743 
L 302.481021 59.025743 
L 302.481021 54.235248 
L 302.909744 54.235248 
L 302.909744 49.444752 
L 303.38049 49.444752 
L 303.38049 44.654257 
L 304.080066 44.654257 
L 304.080066 39.863762 
L 304.158197 39.863762 
L 304.158197 35.073267 
L 304.555829 35.073267 
L 304.555829 30.282772 
L 309.529998 30.282772 
L 309.529998 25.492277 
L 311.248703 25.492277 
L 311.248703 20.701782 
L 321.399556 20.701782 
L 321.399556 15.911287 
L 322.235807 15.911287 
L 322.235807 11.120792 
L 323.135248 11.120792 
L 323.135248 6.330297 
L 323.135248 6.330297 
L 323.135248 6.330297 
L 460.8 6.330297 
" clip-path="url(#p048471545f)" style="fill: none; stroke: #bf00bf; stroke-width: 1.5; stroke-linecap: square"/>
   </g>
   <g id="line2d_54">
    <path clip-path="url(#p048471545f)" style="fill: none; stroke: #bf00bf; stroke-width: 1.5; stroke-linecap: square"/>
   </g>
   <g id="line2d_55">
    <path d="M 259.529981 293.76 
L 259.529981 288.969505 
L 262.082002 288.969505 
L 262.082002 284.17901 
L 262.558721 284.17901 
L 262.558721 279.388515 
L 262.920481 279.388515 
L 262.920481 274.59802 
L 263.007686 274.59802 
L 263.007686 269.807525 
L 263.50893 269.807525 
L 263.50893 265.01703 
L 265.559748 265.01703 
L 265.559748 260.226535 
L 266.080694 260.226535 
L 266.080694 255.43604 
L 267.318829 255.43604 
L 267.318829 250.645545 
L 267.443748 250.645545 
L 267.443748 245.85505 
L 267.926717 245.85505 
L 267.926717 241.064554 
L 268.224985 241.064554 
L 268.224985 236.274059 
L 269.149991 236.274059 
L 269.149991 231.483564 
L 269.457359 231.483564 
L 269.457359 226.693069 
L 269.525905 226.693069 
L 269.525905 221.902574 
L 269.891899 221.902574 
L 269.891899 217.112079 
L 272.582336 217.112079 
L 272.582336 212.321584 
L 272.70681 212.321584 
L 272.70681 207.531089 
L 274.692514 207.531089 
L 274.692514 202.740594 
L 275.702114 202.740594 
L 275.702114 197.950099 
L 277.867319 197.950099 
L 277.867319 193.159604 
L 290.268313 193.159604 
L 290.268313 188.369109 
L 290.966688 188.369109 
L 290.966688 183.578614 
L 291.489211 183.578614 
L 291.489211 178.788119 
L 293.657927 178.788119 
L 293.657927 173.997624 
L 294.693195 173.997624 
L 294.693195 169.207129 
L 294.71035 169.207129 
L 294.71035 164.416634 
L 295.030681 164.416634 
L 295.030681 159.626139 
L 296.012559 159.626139 
L 296.012559 154.835644 
L 297.461865 154.835644 
L 297.461865 150.045149 
L 297.616719 150.045149 
L 297.616719 145.254653 
L 297.70591 145.254653 
L 297.70591 140.464158 
L 298.991046 140.464158 
L 298.991046 135.673663 
L 299.158408 135.673663 
L 299.158408 130.883168 
L 299.594121 130.883168 
L 299.594121 126.092673 
L 299.801352 126.092673 
L 299.801352 121.302178 
L 300.522546 121.302178 
L 300.522546 116.511683 
L 301.38876 116.511683 
L 301.38876 111.721188 
L 301.424225 111.721188 
L 301.424225 106.930693 
L 301.522891 106.930693 
L 301.522891 102.140198 
L 301.53895 102.140198 
L 301.53895 97.349703 
L 301.572113 97.349703 
L 301.572113 92.559208 
L 301.64794 92.559208 
L 301.64794 87.768713 
L 301.661805 87.768713 
L 301.661805 82.978218 
L 301.881786 82.978218 
L 301.881786 78.187723 
L 301.945273 78.187723 
L 301.945273 73.397228 
L 302.079247 73.397228 
L 302.079247 68.606733 
L 302.124484 68.606733 
L 302.124484 63.816238 
L 303.826589 63.816238 
L 303.826589 59.025743 
L 304.128549 59.025743 
L 304.128549 54.235248 
L 304.591916 54.235248 
L 304.591916 49.444752 
L 305.082425 49.444752 
L 305.082425 44.654257 
L 305.323513 44.654257 
L 305.323513 39.863762 
L 305.863292 39.863762 
L 305.863292 35.073267 
L 306.110802 35.073267 
L 306.110802 30.282772 
L 310.604002 30.282772 
L 310.604002 25.492277 
L 313.225219 25.492277 
L 313.225219 20.701782 
L 322.312375 20.701782 
L 322.312375 15.911287 
L 323.363696 15.911287 
L 323.363696 11.120792 
L 324.28957 11.120792 
L 324.28957 6.330297 
L 324.28957 6.330297 
L 324.28957 6.330297 
L 460.8 6.330297 
" clip-path="url(#p048471545f)" style="fill: none; stroke: #ff0000; stroke-width: 3; stroke-linecap: square"/>
   </g>
   <g id="line2d_56">
    <path clip-path="url(#p048471545f)" style="fill: none; stroke: #ff0000; stroke-width: 3; stroke-linecap: square"/>
   </g>
   <g id="line2d_57">
    <path d="M 324.28957 293.76 
L 324.28957 3.456 
" clip-path="url(#p048471545f)" style="fill: none; stroke: #000000; stroke-width: 1.5; stroke-linecap: square"/>
   </g>
   <g id="patch_3">
    <path d="M 62.208 293.76 
L 62.208 3.456 
" style="fill: none; stroke: #000000; stroke-width: 0.8; stroke-linejoin: miter; stroke-linecap: square"/>
   </g>
   <g id="patch_4">
    <path d="M 460.8 293.76 
L 460.8 3.456 
" style="fill: none; stroke: #000000; stroke-width: 0.8; stroke-linejoin: miter; stroke-linecap: square"/>
   </g>
   <g id="patch_5">
    <path d="M 62.208 293.76 
L 460.8 293.76 
" style="fill: none; stroke: #000000; stroke-width: 0.8; stroke-linejoin: miter; stroke-linecap: square"/>
   </g>
   <g id="patch_6">
    <path d="M 62.208 3.456 
L 460.8 3.456 
" style="fill: none; stroke: #000000; stroke-width: 0.8; stroke-linejoin: miter; stroke-linecap: square"/>
   </g>
   <g id="text_12">
    <!-- {f6-f9}, 20-D -->
    <g transform="translate(195.0165 24.458955)scale(0.2 -0.2)">
     <defs>
      <path id="DejaVuSans-7b" d="M 3272 -594 
L 3272 -1044 
L 3078 -1044 
Q 2300 -1044 2036 -812 
Q 1772 -581 1772 109 
L 1772 856 
Q 1772 1328 1603 1509 
Q 1434 1691 991 1691 
L 800 1691 
L 800 2138 
L 991 2138 
Q 1438 2138 1605 2317 
Q 1772 2497 1772 2963 
L 1772 3713 
Q 1772 4403 2036 4633 
Q 2300 4863 3078 4863 
L 3272 4863 
L 3272 4416 
L 3059 4416 
Q 2619 4416 2484 4278 
Q 2350 4141 2350 3700 
L 2350 2925 
Q 2350 2434 2208 2212 
Q 2066 1991 1722 1913 
Q 2069 1828 2209 1606 
Q 2350 1384 2350 897 
L 2350 122 
Q 2350 -319 2484 -456 
Q 2619 -594 3059 -594 
L 3272 -594 
z
" transform="scale(0.015625)"/>
      <path id="DejaVuSans-2d" d="M 313 2009 
L 1997 2009 
L 1997 1497 
L 313 1497 
L 313 2009 
z
" transform="scale(0.015625)"/>
      <path id="DejaVuSans-39" d="M 703 97 
L 703 672 
Q 941 559 1184 500 
Q 1428 441 1663 441 
Q 2288 441 2617 861 
Q 2947 1281 2994 2138 
Q 2813 1869 2534 1725 
Q 2256 1581 1919 1581 
Q 1219 1581 811 2004 
Q 403 2428 403 3163 
Q 403 3881 828 4315 
Q 1253 4750 1959 4750 
Q 2769 4750 3195 4129 
Q 3622 3509 3622 2328 
Q 3622 1225 3098 567 
Q 2575 -91 1691 -91 
Q 1453 -91 1209 -44 
Q 966 3 703 97 
z
M 1959 2075 
Q 2384 2075 2632 2365 
Q 2881 2656 2881 3163 
Q 2881 3666 2632 3958 
Q 2384 4250 1959 4250 
Q 1534 4250 1286 3958 
Q 1038 3666 1038 3163 
Q 1038 2656 1286 2365 
Q 1534 2075 1959 2075 
z
" transform="scale(0.015625)"/>
      <path id="DejaVuSans-7d" d="M 800 -594 
L 1019 -594 
Q 1456 -594 1589 -459 
Q 1722 -325 1722 122 
L 1722 897 
Q 1722 1384 1862 1606 
Q 2003 1828 2350 1913 
Q 2003 1991 1862 2212 
Q 1722 2434 1722 2925 
L 1722 3700 
Q 1722 4144 1589 4280 
Q 1456 4416 1019 4416 
L 800 4416 
L 800 4863 
L 997 4863 
Q 1775 4863 2036 4633 
Q 2297 4403 2297 3713 
L 2297 2963 
Q 2297 2497 2465 2317 
Q 2634 2138 3078 2138 
L 3272 2138 
L 3272 1691 
L 3078 1691 
Q 2634 1691 2465 1509 
Q 2297 1328 2297 856 
L 2297 109 
Q 2297 -581 2036 -812 
Q 1775 -1044 997 -1044 
L 800 -1044 
L 800 -594 
z
" transform="scale(0.015625)"/>
      <path id="DejaVuSans-2c" d="M 750 794 
L 1409 794 
L 1409 256 
L 897 -744 
L 494 -744 
L 750 256 
L 750 794 
z
" transform="scale(0.015625)"/>
     </defs>
     <use xlink:href="#DejaVuSans-7b"/>
     <use xlink:href="#DejaVuSans-66" x="63.623047"/>
     <use xlink:href="#DejaVuSans-36" x="98.828125"/>
     <use xlink:href="#DejaVuSans-2d" x="162.451172"/>
     <use xlink:href="#DejaVuSans-66" x="198.535156"/>
     <use xlink:href="#DejaVuSans-39" x="233.740234"/>
     <use xlink:href="#DejaVuSans-7d" x="297.363281"/>
     <use xlink:href="#DejaVuSans-2c" x="360.986328"/>
     <use xlink:href="#DejaVuSans-20" x="392.773438"/>
     <use xlink:href="#DejaVuSans-32" x="424.560547"/>
     <use xlink:href="#DejaVuSans-30" x="488.183594"/>
     <use xlink:href="#DejaVuSans-2d" x="551.806641"/>
     <use xlink:href="#DejaVuSans-44" x="587.890625"/>
    </g>
   </g>
   <g id="text_13">
    <!-- absolute targets -->
    <g transform="translate(62.208 609.932673)scale(0.14 -0.14)">
     <defs>
      <path id="DejaVuSans-62" d="M 3116 1747 
Q 3116 2381 2855 2742 
Q 2594 3103 2138 3103 
Q 1681 3103 1420 2742 
Q 1159 2381 1159 1747 
Q 1159 1113 1420 752 
Q 1681 391 2138 391 
Q 2594 391 2855 752 
Q 3116 1113 3116 1747 
z
M 1159 2969 
Q 1341 3281 1617 3432 
Q 1894 3584 2278 3584 
Q 2916 3584 3314 3078 
Q 3713 2572 3713 1747 
Q 3713 922 3314 415 
Q 2916 -91 2278 -91 
Q 1894 -91 1617 61 
Q 1341 213 1159 525 
L 1159 0 
L 581 0 
L 581 4863 
L 1159 4863 
L 1159 2969 
z
" transform="scale(0.015625)"/>
      <path id="DejaVuSans-75" d="M 544 1381 
L 544 3500 
L 1119 3500 
L 1119 1403 
Q 1119 906 1312 657 
Q 1506 409 1894 409 
Q 2359 409 2629 706 
Q 2900 1003 2900 1516 
L 2900 3500 
L 3475 3500 
L 3475 0 
L 2900 0 
L 2900 538 
Q 2691 219 2414 64 
Q 2138 -91 1772 -91 
Q 1169 -91 856 284 
Q 544 659 544 1381 
z
M 1991 3584 
L 1991 3584 
z
" transform="scale(0.015625)"/>
      <path id="DejaVuSans-65" d="M 3597 1894 
L 3597 1613 
L 953 1613 
Q 991 1019 1311 708 
Q 1631 397 2203 397 
Q 2534 397 2845 478 
Q 3156 559 3463 722 
L 3463 178 
Q 3153 47 2828 -22 
Q 2503 -91 2169 -91 
Q 1331 -91 842 396 
Q 353 884 353 1716 
Q 353 2575 817 3079 
Q 1281 3584 2069 3584 
Q 2775 3584 3186 3129 
Q 3597 2675 3597 1894 
z
M 3022 2063 
Q 3016 2534 2758 2815 
Q 2500 3097 2075 3097 
Q 1594 3097 1305 2825 
Q 1016 2553 972 2059 
L 3022 2063 
z
" transform="scale(0.015625)"/>
     </defs>
     <use xlink:href="#DejaVuSans-61"/>
     <use xlink:href="#DejaVuSans-62" x="61.279297"/>
     <use xlink:href="#DejaVuSans-73" x="124.755859"/>
     <use xlink:href="#DejaVuSans-6f" x="176.855469"/>
     <use xlink:href="#DejaVuSans-6c" x="238.037109"/>
     <use xlink:href="#DejaVuSans-75" x="265.820312"/>
     <use xlink:href="#DejaVuSans-74" x="329.199219"/>
     <use xlink:href="#DejaVuSans-65" x="368.408203"/>
     <use xlink:href="#DejaVuSans-20" x="429.931641"/>
     <use xlink:href="#DejaVuSans-74" x="461.71875"/>
     <use xlink:href="#DejaVuSans-61" x="500.927734"/>
     <use xlink:href="#DejaVuSans-72" x="562.207031"/>
     <use xlink:href="#DejaVuSans-67" x="601.570312"/>
     <use xlink:href="#DejaVuSans-65" x="665.046875"/>
     <use xlink:href="#DejaVuSans-74" x="726.570312"/>
     <use xlink:href="#DejaVuSans-73" x="765.779297"/>
    </g>
   </g>
   <g id="text_14">
    <!-- v2.6.3 -->
    <g style="fill: #808080" transform="translate(245.82275 288.777272)scale(0.1 -0.1)">
     <use xlink:href="#DejaVuSans-76"/>
     <use xlink:href="#DejaVuSans-32" x="59.179688"/>
     <use xlink:href="#DejaVuSans-2e" x="122.802734"/>
     <use xlink:href="#DejaVuSans-36" x="154.589844"/>
     <use xlink:href="#DejaVuSans-2e" x="218.212891"/>
     <use xlink:href="#DejaVuSans-33" x="250"/>
    </g>
   </g>
   <g id="legend_1">
    <g id="patch_7">
     <path d="M 76.208 136.881 
L 205.429875 136.881 
Q 209.429875 136.881 209.429875 132.881 
L 209.429875 17.456 
Q 209.429875 13.456 205.429875 13.456 
L 76.208 13.456 
Q 72.208 13.456 72.208 17.456 
L 72.208 132.881 
Q 72.208 136.881 76.208 136.881 
z
" style="fill: #ffffff; opacity: 0.2; stroke: #cccccc; stroke-linejoin: miter"/>
    </g>
    <g id="line2d_58">
     <path d="M 80.208 29.652875 
L 80.208 29.652875 
L 100.208 29.652875 
L 100.208 29.652875 
L 120.208 29.652875 
" style="fill: none; stroke: #000000; stroke-width: 1.5; stroke-linecap: square"/>
    </g>
    <g id="text_15">
     <!-- 1: 4/4 -->
     <g transform="translate(136.208 36.652875)scale(0.2 -0.2)">
      <defs>
       <path id="DejaVuSans-3a" d="M 750 794 
L 1409 794 
L 1409 0 
L 750 0 
L 750 794 
z
M 750 3309 
L 1409 3309 
L 1409 2516 
L 750 2516 
L 750 3309 
z
" transform="scale(0.015625)"/>
      </defs>
      <use xlink:href="#DejaVuSans-31"/>
      <use xlink:href="#DejaVuSans-3a" x="63.623047"/>
      <use xlink:href="#DejaVuSans-20" x="97.314453"/>
      <use xlink:href="#DejaVuSans-34" x="129.101562"/>
      <use xlink:href="#DejaVuSans-2f" x="192.724609"/>
      <use xlink:href="#DejaVuSans-34" x="226.416016"/>
     </g>
    </g>
    <g id="line2d_59">
     <path d="M 80.208 59.009125 
L 80.208 59.009125 
L 100.208 59.009125 
L 100.208 59.009125 
L 120.208 59.009125 
" style="fill: none; stroke: #00bfbf; stroke-width: 1.5; stroke-linecap: square"/>
    </g>
    <g id="text_16">
     <!-- -1: 4/4 -->
     <g transform="translate(136.208 66.009125)scale(0.2 -0.2)">
      <use xlink:href="#DejaVuSans-2d"/>
      <use xlink:href="#DejaVuSans-31" x="36.083984"/>
      <use xlink:href="#DejaVuSans-3a" x="99.707031"/>
      <use xlink:href="#DejaVuSans-20" x="133.398438"/>
      <use xlink:href="#DejaVuSans-34" x="165.185547"/>
      <use xlink:href="#DejaVuSans-2f" x="228.808594"/>
      <use xlink:href="#DejaVuSans-34" x="262.5"/>
     </g>
    </g>
    <g id="line2d_60">
     <path d="M 80.208 88.365375 
L 80.208 88.365375 
L 100.208 88.365375 
L 100.208 88.365375 
L 120.208 88.365375 
" style="fill: none; stroke: #bf00bf; stroke-width: 1.5; stroke-linecap: square"/>
    </g>
    <g id="text_17">
     <!-- -4: 4/4 -->
     <g transform="translate(136.208 95.365375)scale(0.2 -0.2)">
      <use xlink:href="#DejaVuSans-2d"/>
      <use xlink:href="#DejaVuSans-34" x="36.083984"/>
      <use xlink:href="#DejaVuSans-3a" x="99.707031"/>
      <use xlink:href="#DejaVuSans-20" x="133.398438"/>
      <use xlink:href="#DejaVuSans-34" x="165.185547"/>
      <use xlink:href="#DejaVuSans-2f" x="228.808594"/>
      <use xlink:href="#DejaVuSans-34" x="262.5"/>
     </g>
    </g>
    <g id="line2d_61">
     <path d="M 80.208 117.721625 
L 80.208 117.721625 
L 100.208 117.721625 
L 100.208 117.721625 
L 120.208 117.721625 
" style="fill: none; stroke: #ff0000; stroke-width: 3; stroke-linecap: square"/>
    </g>
    <g id="text_18">
     <!-- -8: 4/4 -->
     <g transform="translate(136.208 124.721625)scale(0.2 -0.2)">
      <use xlink:href="#DejaVuSans-2d"/>
      <use xlink:href="#DejaVuSans-38" x="36.083984"/>
      <use xlink:href="#DejaVuSans-3a" x="99.707031"/>
      <use xlink:href="#DejaVuSans-20" x="133.398438"/>
      <use xlink:href="#DejaVuSans-34" x="165.185547"/>
      <use xlink:href="#DejaVuSans-2f" x="228.808594"/>
      <use xlink:href="#DejaVuSans-34" x="262.5"/>
     </g>
    </g>
   </g>
  </g>
 </g>
 <defs>
  <clipPath id="p048471545f">
   <rect x="62.208" y="3.456" width="398.592" height="290.304"/>
  </clipPath>
 </defs>
</svg>
