<?xml version="1.0" encoding="utf-8" standalone="no"?>
<!DOCTYPE svg PUBLIC "-//W3C//DTD SVG 1.1//EN"
  "http://www.w3.org/Graphics/SVG/1.1/DTD/svg11.dtd">
<svg xmlns:xlink="http://www.w3.org/1999/xlink" width="460.8pt" height="345.6pt" viewBox="0 0 460.8 345.6" xmlns="http://www.w3.org/2000/svg" version="1.1">
 <metadata>
  <rdf:RDF xmlns:dc="http://purl.org/dc/elements/1.1/" xmlns:cc="http://creativecommons.org/ns#" xmlns:rdf="http://www.w3.org/1999/02/22-rdf-syntax-ns#">
   <cc:Work>
    <dc:type rdf:resource="http://purl.org/dc/dcmitype/StillImage"/>
    <dc:date>2023-04-07T14:51:15.615630</dc:date>
    <dc:format>image/svg+xml</dc:format>
    <dc:creator>
     <cc:Agent>
      <dc:title>Matplotlib v3.5.2, https://matplotlib.org/</dc:title>
     </cc:Agent>
    </dc:creator>
   </cc:Work>
  </rdf:RDF>
 </metadata>
 <defs>
  <style type="text/css">*{stroke-linejoin: round; stroke-linecap: butt}</style>
 </defs>
 <g id="figure_1">
  <g id="patch_1">
   <path d="M 0 345.6 
L 460.8 345.6 
L 460.8 0 
L 0 0 
z
" style="fill: #ffffff"/>
  </g>
  <g id="axes_1">
   <g id="patch_2">
    <path d="M 62.208 293.76 
L 460.8 293.76 
L 460.8 3.456 
L 62.208 3.456 
z
" style="fill: #ffffff"/>
   </g>
   <g id="line2d_1"/>
   <g id="line2d_2"/>
   <g id="line2d_3"/>
   <g id="line2d_4"/>
   <g id="line2d_5"/>
   <g id="line2d_6"/>
   <g id="line2d_7"/>
   <g id="line2d_8"/>
   <g id="line2d_9">
    <path d="M 317.154502 293.76 
L 317.154502 289.927604 
L 333.375201 289.927604 
L 333.375201 286.095208 
L 338.837062 286.095208 
L 338.837062 282.262812 
L 339.569862 282.262812 
L 339.569862 278.430416 
L 340.096548 278.430416 
L 340.096548 274.59802 
L 340.364887 274.59802 
L 340.364887 270.765624 
L 340.835342 270.765624 
L 340.835342 266.933228 
L 341.779496 266.933228 
L 341.819729 259.268436 
L 342.827934 259.268436 
L 342.827934 255.43604 
L 343.613847 255.43604 
L 343.613847 251.603644 
L 343.906094 251.603644 
L 343.906094 247.771248 
L 344.160081 247.771248 
L 344.160081 243.938851 
L 344.419592 243.938851 
L 344.419592 240.106455 
L 344.772586 240.106455 
L 344.818683 232.441663 
L 344.939873 232.441663 
L 344.939873 228.609267 
L 346.213053 228.609267 
L 346.213053 224.776871 
L 346.490865 224.776871 
L 346.490865 220.944475 
L 357.232198 220.944475 
L 357.232198 217.112079 
L 359.589063 217.112079 
L 359.589063 213.279683 
L 362.019054 213.279683 
L 362.019054 209.447287 
L 363.96122 209.447287 
L 363.96122 205.614891 
L 365.336577 205.614891 
L 365.336577 201.782495 
L 365.745971 201.782495 
L 365.745971 197.950099 
L 367.227738 197.950099 
L 367.227738 194.117703 
L 367.983333 194.117703 
L 368.000253 186.452911 
L 369.299769 186.452911 
L 369.299769 182.620515 
L 369.757219 182.620515 
L 369.757219 178.788119 
L 370.096182 178.788119 
L 370.096182 174.955723 
L 370.23695 174.955723 
L 370.23695 171.123327 
L 370.566601 171.123327 
L 370.566601 167.290931 
L 370.690172 167.290931 
L 370.690172 163.458535 
L 371.340379 163.458535 
L 371.340379 159.626139 
L 372.061574 159.626139 
L 372.061574 155.793743 
L 372.764524 155.793743 
L 372.764524 151.961347 
L 373.066621 151.961347 
L 373.066621 148.12895 
L 374.076141 148.12895 
L 374.076141 144.296554 
L 375.808371 144.296554 
L 375.808371 140.464158 
L 379.074463 140.464158 
L 379.074463 136.631762 
L 379.213986 136.631762 
L 379.287087 128.96697 
L 379.56943 128.96697 
L 379.56943 125.134574 
L 379.721605 125.134574 
L 379.810623 117.469782 
L 380.644266 117.469782 
L 380.664571 109.80499 
L 384.421678 109.80499 
L 384.421678 105.972594 
L 384.676513 105.972594 
L 384.676513 102.140198 
L 386.310098 102.140198 
L 386.382869 94.475406 
L 386.964505 94.475406 
L 386.964505 90.64301 
L 391.446176 90.64301 
L 391.446176 86.810614 
L 397.887456 86.810614 
L 397.887456 82.978218 
L 398.704588 82.978218 
L 398.704588 79.145822 
L 399.40328 79.145822 
L 399.40328 75.313426 
L 399.580624 75.313426 
L 399.580624 71.48103 
L 401.261149 71.48103 
L 401.261149 67.648634 
L 402.552835 67.648634 
L 402.552835 63.816238 
L 460.21191 63.816238 
L 460.21191 59.983842 
L 461.8 59.983842 
L 461.8 59.983842 
" clip-path="url(#p7910bf6aa6)" style="fill: none; stroke: #f5deb3; stroke-width: 1.5; stroke-linecap: square"/>
   </g>
   <g id="line2d_10"/>
   <g id="line2d_11"/>
   <g id="line2d_12"/>
   <g id="line2d_13"/>
   <g id="line2d_14"/>
   <g id="line2d_15"/>
   <g id="line2d_16"/>
   <g id="line2d_17"/>
   <g id="line2d_18"/>
   <g id="line2d_19"/>
   <g id="line2d_20"/>
   <g id="line2d_21"/>
   <g id="line2d_22"/>
   <g id="line2d_23"/>
   <g id="line2d_24">
    <path d="M 329.396416 293.76 
L 329.396416 289.927604 
L 332.004954 289.927604 
L 332.038616 282.262812 
L 366.825895 282.262812 
L 366.936282 274.59802 
L 369.559897 274.59802 
L 369.559897 270.765624 
L 370.147536 270.765624 
L 370.147536 266.933228 
L 370.428807 266.933228 
L 370.428807 263.100832 
L 372.7923 263.100832 
L 372.7923 259.268436 
L 375.302799 259.268436 
L 375.302799 255.43604 
L 375.453804 255.43604 
L 375.453804 251.603644 
L 388.601029 251.603644 
L 388.601029 247.771248 
L 390.355005 247.771248 
L 390.355005 243.938851 
L 390.778118 243.938851 
L 390.778118 240.106455 
L 391.113339 240.106455 
L 391.113339 236.274059 
L 391.33889 236.274059 
L 391.33889 232.441663 
L 391.883601 232.441663 
L 391.957114 224.776871 
L 392.206252 224.776871 
L 392.206252 220.944475 
L 392.896188 220.944475 
L 392.967784 213.279683 
L 393.272211 213.279683 
L 393.272211 209.447287 
L 393.646885 209.447287 
L 393.646885 205.614891 
L 394.066991 205.614891 
L 394.066991 201.782495 
L 394.647958 201.782495 
L 394.647958 197.950099 
L 394.91506 197.950099 
L 394.947843 190.285307 
L 395.411895 190.285307 
L 395.411895 186.452911 
L 395.723661 186.452911 
L 395.723661 182.620515 
L 395.837217 182.620515 
L 395.837217 178.788119 
L 396.193875 178.788119 
L 396.193875 174.955723 
L 396.776172 174.955723 
L 396.848364 167.290931 
L 397.241852 167.290931 
L 397.241852 163.458535 
L 397.727937 163.458535 
L 397.734854 155.793743 
L 398.247771 155.793743 
L 398.247771 151.961347 
L 398.470601 151.961347 
L 398.470601 148.12895 
L 398.636827 148.12895 
L 398.636827 144.296554 
L 398.749702 144.296554 
L 398.749702 140.464158 
L 398.967791 140.464158 
L 399.037355 132.799366 
L 399.434203 132.799366 
L 399.476402 125.134574 
L 403.4202 125.134574 
L 403.4202 121.302178 
L 405.156221 121.302178 
L 405.156221 117.469782 
L 405.334314 117.469782 
L 405.334314 113.637386 
L 406.582199 113.637386 
L 406.582199 109.80499 
L 418.143705 109.80499 
L 418.143705 105.972594 
L 418.740933 105.972594 
L 418.740933 102.140198 
L 419.198532 102.140198 
L 419.198532 98.307802 
L 423.658804 98.307802 
L 423.658804 94.475406 
L 425.184502 94.475406 
L 425.184502 90.64301 
L 425.934513 90.64301 
L 425.934513 86.810614 
L 426.45132 86.810614 
L 426.45132 82.978218 
L 427.549553 82.978218 
L 427.549553 79.145822 
L 443.462305 79.145822 
L 443.462305 75.313426 
L 443.934514 75.313426 
L 443.934514 71.48103 
L 444.564949 71.48103 
L 444.564949 67.648634 
L 445.117039 67.648634 
L 445.117039 63.816238 
L 461.8 63.816238 
L 461.8 63.816238 
" clip-path="url(#p7910bf6aa6)" style="fill: none; stroke: #f5deb3; stroke-width: 1.5; stroke-linecap: square"/>
   </g>
   <g id="line2d_25">
    <path d="M 385.180291 293.76 
L 385.180291 289.927604 
L 385.661685 289.927604 
L 385.661685 286.095208 
L 385.899302 286.095208 
L 385.899302 282.262812 
L 386.223888 282.262812 
L 386.223888 278.430416 
L 386.781686 278.430416 
L 386.781686 274.59802 
L 387.215685 274.59802 
L 387.215685 270.765624 
L 387.215685 270.765624 
L 387.215685 270.765624 
L 460.8 270.765624 
" clip-path="url(#p7910bf6aa6)" style="fill: none; stroke: #f5deb3; stroke-width: 1.5; stroke-linecap: square"/>
   </g>
   <g id="line2d_26">
    <path d="M 416.45616 293.76 
L 416.45616 289.927604 
L 429.003167 289.927604 
L 429.003167 286.095208 
L 429.003167 286.095208 
L 429.003167 286.095208 
L 460.8 286.095208 
" clip-path="url(#p7910bf6aa6)" style="fill: none; stroke: #f5deb3; stroke-width: 1.5; stroke-linecap: square"/>
   </g>
   <g id="line2d_27"/>
   <g id="line2d_28">
    <path d="M 407.310725 293.76 
L 407.310725 289.927604 
L 408.639028 289.927604 
L 408.639028 286.095208 
L 431.666212 286.095208 
L 431.666212 282.262812 
L 431.952475 282.262812 
L 431.952475 278.430416 
L 432.251357 278.430416 
L 432.251357 274.59802 
L 432.343567 274.59802 
L 432.343567 270.765624 
L 433.676909 270.765624 
L 433.676909 266.933228 
L 433.85979 266.933228 
L 433.85979 263.100832 
L 434.449492 263.100832 
L 434.449492 259.268436 
L 434.518066 259.268436 
L 434.518066 255.43604 
L 434.698629 255.43604 
L 434.698629 251.603644 
L 434.73606 251.603644 
L 434.73606 247.771248 
L 434.917694 247.771248 
L 434.917694 243.938851 
L 434.919531 243.938851 
L 434.919531 240.106455 
L 435.338382 240.106455 
L 435.338382 236.274059 
L 436.044355 236.274059 
L 436.044355 232.441663 
L 436.126777 232.441663 
L 436.126777 228.609267 
L 436.268565 228.609267 
L 436.268565 224.776871 
L 436.715964 224.776871 
L 436.715964 220.944475 
L 436.969175 220.944475 
L 436.969175 217.112079 
L 437.288663 217.112079 
L 437.288663 213.279683 
L 437.354657 213.279683 
L 437.354657 209.447287 
L 437.388514 209.447287 
L 437.388514 205.614891 
L 437.551046 205.614891 
L 437.551046 201.782495 
L 437.642165 201.782495 
L 437.642165 197.950099 
L 437.694138 197.950099 
L 437.694138 194.117703 
L 438.153352 194.117703 
L 438.153352 190.285307 
L 438.31002 190.285307 
L 438.31002 186.452911 
L 438.440086 186.452911 
L 438.440086 182.620515 
L 438.585315 182.620515 
L 438.585315 178.788119 
L 439.137661 178.788119 
L 439.137661 174.955723 
L 439.159775 174.955723 
L 439.159775 171.123327 
L 440.811954 171.123327 
L 440.811954 167.290931 
L 441.059517 167.290931 
L 441.059517 163.458535 
L 441.352684 163.458535 
L 441.352684 159.626139 
L 441.973249 159.626139 
L 441.973249 155.793743 
L 442.185511 155.793743 
L 442.185511 151.961347 
L 442.308226 151.961347 
L 442.308226 148.12895 
L 442.426933 148.12895 
L 442.426933 144.296554 
L 442.686461 144.296554 
L 442.686461 140.464158 
L 443.6193 140.464158 
L 443.6193 136.631762 
L 444.303754 136.631762 
L 444.303754 132.799366 
L 444.667168 132.799366 
L 444.667168 128.96697 
L 448.964771 128.96697 
L 448.964771 125.134574 
L 452.661593 125.134574 
L 452.661593 121.302178 
L 460.660037 121.302178 
L 460.660037 117.469782 
L 461.8 117.469782 
" clip-path="url(#p7910bf6aa6)" style="fill: none; stroke: #f5deb3; stroke-width: 1.5; stroke-linecap: square"/>
   </g>
   <g id="line2d_29"/>
   <g id="line2d_30"/>
   <g id="matplotlib.axis_1">
    <g id="xtick_1">
     <g id="line2d_31">
      <path d="M 62.208 293.76 
L 62.208 3.456 
" clip-path="url(#p7910bf6aa6)" style="fill: none; stroke: #b0b0b0; stroke-width: 0.8; stroke-linecap: square"/>
     </g>
     <g id="line2d_32">
      <defs>
       <path id="m4c93e1323b" d="M 0 0 
L 0 3.5 
" style="stroke: #000000; stroke-width: 0.8"/>
      </defs>
      <g>
       <use xlink:href="#m4c93e1323b" x="62.208" y="293.76" style="stroke: #000000; stroke-width: 0.8"/>
      </g>
     </g>
     <g id="text_1">
      <!-- 0 -->
      <g transform="translate(55.8455 315.956875)scale(0.2 -0.2)">
       <defs>
        <path id="DejaVuSans-30" d="M 2034 4250 
Q 1547 4250 1301 3770 
Q 1056 3291 1056 2328 
Q 1056 1369 1301 889 
Q 1547 409 2034 409 
Q 2525 409 2770 889 
Q 3016 1369 3016 2328 
Q 3016 3291 2770 3770 
Q 2525 4250 2034 4250 
z
M 2034 4750 
Q 2819 4750 3233 4129 
Q 3647 3509 3647 2328 
Q 3647 1150 3233 529 
Q 2819 -91 2034 -91 
Q 1250 -91 836 529 
Q 422 1150 422 2328 
Q 422 3509 836 4129 
Q 1250 4750 2034 4750 
z
" transform="scale(0.015625)"/>
       </defs>
       <use xlink:href="#DejaVuSans-30"/>
      </g>
     </g>
    </g>
    <g id="xtick_2">
     <g id="line2d_33">
      <path d="M 212.571958 293.76 
L 212.571958 3.456 
" clip-path="url(#p7910bf6aa6)" style="fill: none; stroke: #b0b0b0; stroke-width: 0.8; stroke-linecap: square"/>
     </g>
     <g id="line2d_34">
      <g>
       <use xlink:href="#m4c93e1323b" x="212.571958" y="293.76" style="stroke: #000000; stroke-width: 0.8"/>
      </g>
     </g>
     <g id="text_2">
      <!-- 2 -->
      <g transform="translate(206.209458 315.956875)scale(0.2 -0.2)">
       <defs>
        <path id="DejaVuSans-32" d="M 1228 531 
L 3431 531 
L 3431 0 
L 469 0 
L 469 531 
Q 828 903 1448 1529 
Q 2069 2156 2228 2338 
Q 2531 2678 2651 2914 
Q 2772 3150 2772 3378 
Q 2772 3750 2511 3984 
Q 2250 4219 1831 4219 
Q 1534 4219 1204 4116 
Q 875 4013 500 3803 
L 500 4441 
Q 881 4594 1212 4672 
Q 1544 4750 1819 4750 
Q 2544 4750 2975 4387 
Q 3406 4025 3406 3419 
Q 3406 3131 3298 2873 
Q 3191 2616 2906 2266 
Q 2828 2175 2409 1742 
Q 1991 1309 1228 531 
z
" transform="scale(0.015625)"/>
       </defs>
       <use xlink:href="#DejaVuSans-32"/>
      </g>
     </g>
    </g>
    <g id="xtick_3">
     <g id="line2d_35">
      <path d="M 362.935917 293.76 
L 362.935917 3.456 
" clip-path="url(#p7910bf6aa6)" style="fill: none; stroke: #b0b0b0; stroke-width: 0.8; stroke-linecap: square"/>
     </g>
     <g id="line2d_36">
      <g>
       <use xlink:href="#m4c93e1323b" x="362.935917" y="293.76" style="stroke: #000000; stroke-width: 0.8"/>
      </g>
     </g>
     <g id="text_3">
      <!-- 4 -->
      <g transform="translate(356.573417 315.956875)scale(0.2 -0.2)">
       <defs>
        <path id="DejaVuSans-34" d="M 2419 4116 
L 825 1625 
L 2419 1625 
L 2419 4116 
z
M 2253 4666 
L 3047 4666 
L 3047 1625 
L 3713 1625 
L 3713 1100 
L 3047 1100 
L 3047 0 
L 2419 0 
L 2419 1100 
L 313 1100 
L 313 1709 
L 2253 4666 
z
" transform="scale(0.015625)"/>
       </defs>
       <use xlink:href="#DejaVuSans-34"/>
      </g>
     </g>
    </g>
    <g id="text_4">
     <!-- log10 of FEvals / DIM -->
     <g transform="translate(156.430563 339.313125)scale(0.2 -0.2)">
      <defs>
       <path id="DejaVuSans-6c" d="M 603 4863 
L 1178 4863 
L 1178 0 
L 603 0 
L 603 4863 
z
" transform="scale(0.015625)"/>
       <path id="DejaVuSans-6f" d="M 1959 3097 
Q 1497 3097 1228 2736 
Q 959 2375 959 1747 
Q 959 1119 1226 758 
Q 1494 397 1959 397 
Q 2419 397 2687 759 
Q 2956 1122 2956 1747 
Q 2956 2369 2687 2733 
Q 2419 3097 1959 3097 
z
M 1959 3584 
Q 2709 3584 3137 3096 
Q 3566 2609 3566 1747 
Q 3566 888 3137 398 
Q 2709 -91 1959 -91 
Q 1206 -91 779 398 
Q 353 888 353 1747 
Q 353 2609 779 3096 
Q 1206 3584 1959 3584 
z
" transform="scale(0.015625)"/>
       <path id="DejaVuSans-67" d="M 2906 1791 
Q 2906 2416 2648 2759 
Q 2391 3103 1925 3103 
Q 1463 3103 1205 2759 
Q 947 2416 947 1791 
Q 947 1169 1205 825 
Q 1463 481 1925 481 
Q 2391 481 2648 825 
Q 2906 1169 2906 1791 
z
M 3481 434 
Q 3481 -459 3084 -895 
Q 2688 -1331 1869 -1331 
Q 1566 -1331 1297 -1286 
Q 1028 -1241 775 -1147 
L 775 -588 
Q 1028 -725 1275 -790 
Q 1522 -856 1778 -856 
Q 2344 -856 2625 -561 
Q 2906 -266 2906 331 
L 2906 616 
Q 2728 306 2450 153 
Q 2172 0 1784 0 
Q 1141 0 747 490 
Q 353 981 353 1791 
Q 353 2603 747 3093 
Q 1141 3584 1784 3584 
Q 2172 3584 2450 3431 
Q 2728 3278 2906 2969 
L 2906 3500 
L 3481 3500 
L 3481 434 
z
" transform="scale(0.015625)"/>
       <path id="DejaVuSans-31" d="M 794 531 
L 1825 531 
L 1825 4091 
L 703 3866 
L 703 4441 
L 1819 4666 
L 2450 4666 
L 2450 531 
L 3481 531 
L 3481 0 
L 794 0 
L 794 531 
z
" transform="scale(0.015625)"/>
       <path id="DejaVuSans-20" transform="scale(0.015625)"/>
       <path id="DejaVuSans-66" d="M 2375 4863 
L 2375 4384 
L 1825 4384 
Q 1516 4384 1395 4259 
Q 1275 4134 1275 3809 
L 1275 3500 
L 2222 3500 
L 2222 3053 
L 1275 3053 
L 1275 0 
L 697 0 
L 697 3053 
L 147 3053 
L 147 3500 
L 697 3500 
L 697 3744 
Q 697 4328 969 4595 
Q 1241 4863 1831 4863 
L 2375 4863 
z
" transform="scale(0.015625)"/>
       <path id="DejaVuSans-46" d="M 628 4666 
L 3309 4666 
L 3309 4134 
L 1259 4134 
L 1259 2759 
L 3109 2759 
L 3109 2228 
L 1259 2228 
L 1259 0 
L 628 0 
L 628 4666 
z
" transform="scale(0.015625)"/>
       <path id="DejaVuSans-45" d="M 628 4666 
L 3578 4666 
L 3578 4134 
L 1259 4134 
L 1259 2753 
L 3481 2753 
L 3481 2222 
L 1259 2222 
L 1259 531 
L 3634 531 
L 3634 0 
L 628 0 
L 628 4666 
z
" transform="scale(0.015625)"/>
       <path id="DejaVuSans-76" d="M 191 3500 
L 800 3500 
L 1894 563 
L 2988 3500 
L 3597 3500 
L 2284 0 
L 1503 0 
L 191 3500 
z
" transform="scale(0.015625)"/>
       <path id="DejaVuSans-61" d="M 2194 1759 
Q 1497 1759 1228 1600 
Q 959 1441 959 1056 
Q 959 750 1161 570 
Q 1363 391 1709 391 
Q 2188 391 2477 730 
Q 2766 1069 2766 1631 
L 2766 1759 
L 2194 1759 
z
M 3341 1997 
L 3341 0 
L 2766 0 
L 2766 531 
Q 2569 213 2275 61 
Q 1981 -91 1556 -91 
Q 1019 -91 701 211 
Q 384 513 384 1019 
Q 384 1609 779 1909 
Q 1175 2209 1959 2209 
L 2766 2209 
L 2766 2266 
Q 2766 2663 2505 2880 
Q 2244 3097 1772 3097 
Q 1472 3097 1187 3025 
Q 903 2953 641 2809 
L 641 3341 
Q 956 3463 1253 3523 
Q 1550 3584 1831 3584 
Q 2591 3584 2966 3190 
Q 3341 2797 3341 1997 
z
" transform="scale(0.015625)"/>
       <path id="DejaVuSans-73" d="M 2834 3397 
L 2834 2853 
Q 2591 2978 2328 3040 
Q 2066 3103 1784 3103 
Q 1356 3103 1142 2972 
Q 928 2841 928 2578 
Q 928 2378 1081 2264 
Q 1234 2150 1697 2047 
L 1894 2003 
Q 2506 1872 2764 1633 
Q 3022 1394 3022 966 
Q 3022 478 2636 193 
Q 2250 -91 1575 -91 
Q 1294 -91 989 -36 
Q 684 19 347 128 
L 347 722 
Q 666 556 975 473 
Q 1284 391 1588 391 
Q 1994 391 2212 530 
Q 2431 669 2431 922 
Q 2431 1156 2273 1281 
Q 2116 1406 1581 1522 
L 1381 1569 
Q 847 1681 609 1914 
Q 372 2147 372 2553 
Q 372 3047 722 3315 
Q 1072 3584 1716 3584 
Q 2034 3584 2315 3537 
Q 2597 3491 2834 3397 
z
" transform="scale(0.015625)"/>
       <path id="DejaVuSans-2f" d="M 1625 4666 
L 2156 4666 
L 531 -594 
L 0 -594 
L 1625 4666 
z
" transform="scale(0.015625)"/>
       <path id="DejaVuSans-44" d="M 1259 4147 
L 1259 519 
L 2022 519 
Q 2988 519 3436 956 
Q 3884 1394 3884 2338 
Q 3884 3275 3436 3711 
Q 2988 4147 2022 4147 
L 1259 4147 
z
M 628 4666 
L 1925 4666 
Q 3281 4666 3915 4102 
Q 4550 3538 4550 2338 
Q 4550 1131 3912 565 
Q 3275 0 1925 0 
L 628 0 
L 628 4666 
z
" transform="scale(0.015625)"/>
       <path id="DejaVuSans-49" d="M 628 4666 
L 1259 4666 
L 1259 0 
L 628 0 
L 628 4666 
z
" transform="scale(0.015625)"/>
       <path id="DejaVuSans-4d" d="M 628 4666 
L 1569 4666 
L 2759 1491 
L 3956 4666 
L 4897 4666 
L 4897 0 
L 4281 0 
L 4281 4097 
L 3078 897 
L 2444 897 
L 1241 4097 
L 1241 0 
L 628 0 
L 628 4666 
z
" transform="scale(0.015625)"/>
      </defs>
      <use xlink:href="#DejaVuSans-6c"/>
      <use xlink:href="#DejaVuSans-6f" x="27.783203"/>
      <use xlink:href="#DejaVuSans-67" x="88.964844"/>
      <use xlink:href="#DejaVuSans-31" x="152.441406"/>
      <use xlink:href="#DejaVuSans-30" x="216.064453"/>
      <use xlink:href="#DejaVuSans-20" x="279.6875"/>
      <use xlink:href="#DejaVuSans-6f" x="311.474609"/>
      <use xlink:href="#DejaVuSans-66" x="372.65625"/>
      <use xlink:href="#DejaVuSans-20" x="407.861328"/>
      <use xlink:href="#DejaVuSans-46" x="439.648438"/>
      <use xlink:href="#DejaVuSans-45" x="497.167969"/>
      <use xlink:href="#DejaVuSans-76" x="560.351562"/>
      <use xlink:href="#DejaVuSans-61" x="619.53125"/>
      <use xlink:href="#DejaVuSans-6c" x="680.810547"/>
      <use xlink:href="#DejaVuSans-73" x="708.59375"/>
      <use xlink:href="#DejaVuSans-20" x="760.693359"/>
      <use xlink:href="#DejaVuSans-2f" x="792.480469"/>
      <use xlink:href="#DejaVuSans-20" x="826.171875"/>
      <use xlink:href="#DejaVuSans-44" x="857.958984"/>
      <use xlink:href="#DejaVuSans-49" x="934.960938"/>
      <use xlink:href="#DejaVuSans-4d" x="964.453125"/>
     </g>
    </g>
   </g>
   <g id="matplotlib.axis_2">
    <g id="ytick_1">
     <g id="line2d_37">
      <path d="M 62.208 293.76 
L 460.8 293.76 
" clip-path="url(#p7910bf6aa6)" style="fill: none; stroke: #b0b0b0; stroke-width: 0.8; stroke-linecap: square"/>
     </g>
     <g id="line2d_38">
      <defs>
       <path id="m51215001d5" d="M 0 0 
L -3.5 0 
" style="stroke: #000000; stroke-width: 0.8"/>
      </defs>
      <g>
       <use xlink:href="#m51215001d5" x="62.208" y="293.76" style="stroke: #000000; stroke-width: 0.8"/>
      </g>
     </g>
     <g id="text_5">
      <!-- 0.0 -->
      <g transform="translate(29.763 299.83875)scale(0.16 -0.16)">
       <defs>
        <path id="DejaVuSans-2e" d="M 684 794 
L 1344 794 
L 1344 0 
L 684 0 
L 684 794 
z
" transform="scale(0.015625)"/>
       </defs>
       <use xlink:href="#DejaVuSans-30"/>
       <use xlink:href="#DejaVuSans-2e" x="63.623047"/>
       <use xlink:href="#DejaVuSans-30" x="95.410156"/>
      </g>
     </g>
    </g>
    <g id="ytick_2">
     <g id="line2d_39">
      <path d="M 62.208 236.274059 
L 460.8 236.274059 
" clip-path="url(#p7910bf6aa6)" style="fill: none; stroke: #b0b0b0; stroke-width: 0.8; stroke-linecap: square"/>
     </g>
     <g id="line2d_40">
      <g>
       <use xlink:href="#m51215001d5" x="62.208" y="236.274059" style="stroke: #000000; stroke-width: 0.8"/>
      </g>
     </g>
     <g id="text_6">
      <!-- 0.2 -->
      <g transform="translate(29.763 242.352809)scale(0.16 -0.16)">
       <use xlink:href="#DejaVuSans-30"/>
       <use xlink:href="#DejaVuSans-2e" x="63.623047"/>
       <use xlink:href="#DejaVuSans-32" x="95.410156"/>
      </g>
     </g>
    </g>
    <g id="ytick_3">
     <g id="line2d_41">
      <path d="M 62.208 178.788119 
L 460.8 178.788119 
" clip-path="url(#p7910bf6aa6)" style="fill: none; stroke: #b0b0b0; stroke-width: 0.8; stroke-linecap: square"/>
     </g>
     <g id="line2d_42">
      <g>
       <use xlink:href="#m51215001d5" x="62.208" y="178.788119" style="stroke: #000000; stroke-width: 0.8"/>
      </g>
     </g>
     <g id="text_7">
      <!-- 0.4 -->
      <g transform="translate(29.763 184.866869)scale(0.16 -0.16)">
       <use xlink:href="#DejaVuSans-30"/>
       <use xlink:href="#DejaVuSans-2e" x="63.623047"/>
       <use xlink:href="#DejaVuSans-34" x="95.410156"/>
      </g>
     </g>
    </g>
    <g id="ytick_4">
     <g id="line2d_43">
      <path d="M 62.208 121.302178 
L 460.8 121.302178 
" clip-path="url(#p7910bf6aa6)" style="fill: none; stroke: #b0b0b0; stroke-width: 0.8; stroke-linecap: square"/>
     </g>
     <g id="line2d_44">
      <g>
       <use xlink:href="#m51215001d5" x="62.208" y="121.302178" style="stroke: #000000; stroke-width: 0.8"/>
      </g>
     </g>
     <g id="text_8">
      <!-- 0.6 -->
      <g transform="translate(29.763 127.380928)scale(0.16 -0.16)">
       <defs>
        <path id="DejaVuSans-36" d="M 2113 2584 
Q 1688 2584 1439 2293 
Q 1191 2003 1191 1497 
Q 1191 994 1439 701 
Q 1688 409 2113 409 
Q 2538 409 2786 701 
Q 3034 994 3034 1497 
Q 3034 2003 2786 2293 
Q 2538 2584 2113 2584 
z
M 3366 4563 
L 3366 3988 
Q 3128 4100 2886 4159 
Q 2644 4219 2406 4219 
Q 1781 4219 1451 3797 
Q 1122 3375 1075 2522 
Q 1259 2794 1537 2939 
Q 1816 3084 2150 3084 
Q 2853 3084 3261 2657 
Q 3669 2231 3669 1497 
Q 3669 778 3244 343 
Q 2819 -91 2113 -91 
Q 1303 -91 875 529 
Q 447 1150 447 2328 
Q 447 3434 972 4092 
Q 1497 4750 2381 4750 
Q 2619 4750 2861 4703 
Q 3103 4656 3366 4563 
z
" transform="scale(0.015625)"/>
       </defs>
       <use xlink:href="#DejaVuSans-30"/>
       <use xlink:href="#DejaVuSans-2e" x="63.623047"/>
       <use xlink:href="#DejaVuSans-36" x="95.410156"/>
      </g>
     </g>
    </g>
    <g id="ytick_5">
     <g id="line2d_45">
      <path d="M 62.208 63.816238 
L 460.8 63.816238 
" clip-path="url(#p7910bf6aa6)" style="fill: none; stroke: #b0b0b0; stroke-width: 0.8; stroke-linecap: square"/>
     </g>
     <g id="line2d_46">
      <g>
       <use xlink:href="#m51215001d5" x="62.208" y="63.816238" style="stroke: #000000; stroke-width: 0.8"/>
      </g>
     </g>
     <g id="text_9">
      <!-- 0.8 -->
      <g transform="translate(29.763 69.894988)scale(0.16 -0.16)">
       <defs>
        <path id="DejaVuSans-38" d="M 2034 2216 
Q 1584 2216 1326 1975 
Q 1069 1734 1069 1313 
Q 1069 891 1326 650 
Q 1584 409 2034 409 
Q 2484 409 2743 651 
Q 3003 894 3003 1313 
Q 3003 1734 2745 1975 
Q 2488 2216 2034 2216 
z
M 1403 2484 
Q 997 2584 770 2862 
Q 544 3141 544 3541 
Q 544 4100 942 4425 
Q 1341 4750 2034 4750 
Q 2731 4750 3128 4425 
Q 3525 4100 3525 3541 
Q 3525 3141 3298 2862 
Q 3072 2584 2669 2484 
Q 3125 2378 3379 2068 
Q 3634 1759 3634 1313 
Q 3634 634 3220 271 
Q 2806 -91 2034 -91 
Q 1263 -91 848 271 
Q 434 634 434 1313 
Q 434 1759 690 2068 
Q 947 2378 1403 2484 
z
M 1172 3481 
Q 1172 3119 1398 2916 
Q 1625 2713 2034 2713 
Q 2441 2713 2670 2916 
Q 2900 3119 2900 3481 
Q 2900 3844 2670 4047 
Q 2441 4250 2034 4250 
Q 1625 4250 1398 4047 
Q 1172 3844 1172 3481 
z
" transform="scale(0.015625)"/>
       </defs>
       <use xlink:href="#DejaVuSans-30"/>
       <use xlink:href="#DejaVuSans-2e" x="63.623047"/>
       <use xlink:href="#DejaVuSans-38" x="95.410156"/>
      </g>
     </g>
    </g>
    <g id="ytick_6">
     <g id="line2d_47">
      <path d="M 62.208 6.330297 
L 460.8 6.330297 
" clip-path="url(#p7910bf6aa6)" style="fill: none; stroke: #b0b0b0; stroke-width: 0.8; stroke-linecap: square"/>
     </g>
     <g id="line2d_48">
      <g>
       <use xlink:href="#m51215001d5" x="62.208" y="6.330297" style="stroke: #000000; stroke-width: 0.8"/>
      </g>
     </g>
     <g id="text_10">
      <!-- 1.0 -->
      <g transform="translate(29.763 12.409047)scale(0.16 -0.16)">
       <use xlink:href="#DejaVuSans-31"/>
       <use xlink:href="#DejaVuSans-2e" x="63.623047"/>
       <use xlink:href="#DejaVuSans-30" x="95.410156"/>
      </g>
     </g>
    </g>
    <g id="text_11">
     <!-- proportion of trials -->
     <g transform="translate(21.603625 241.61425)rotate(-90)scale(0.2 -0.2)">
      <defs>
       <path id="DejaVuSans-70" d="M 1159 525 
L 1159 -1331 
L 581 -1331 
L 581 3500 
L 1159 3500 
L 1159 2969 
Q 1341 3281 1617 3432 
Q 1894 3584 2278 3584 
Q 2916 3584 3314 3078 
Q 3713 2572 3713 1747 
Q 3713 922 3314 415 
Q 2916 -91 2278 -91 
Q 1894 -91 1617 61 
Q 1341 213 1159 525 
z
M 3116 1747 
Q 3116 2381 2855 2742 
Q 2594 3103 2138 3103 
Q 1681 3103 1420 2742 
Q 1159 2381 1159 1747 
Q 1159 1113 1420 752 
Q 1681 391 2138 391 
Q 2594 391 2855 752 
Q 3116 1113 3116 1747 
z
" transform="scale(0.015625)"/>
       <path id="DejaVuSans-72" d="M 2631 2963 
Q 2534 3019 2420 3045 
Q 2306 3072 2169 3072 
Q 1681 3072 1420 2755 
Q 1159 2438 1159 1844 
L 1159 0 
L 581 0 
L 581 3500 
L 1159 3500 
L 1159 2956 
Q 1341 3275 1631 3429 
Q 1922 3584 2338 3584 
Q 2397 3584 2469 3576 
Q 2541 3569 2628 3553 
L 2631 2963 
z
" transform="scale(0.015625)"/>
       <path id="DejaVuSans-74" d="M 1172 4494 
L 1172 3500 
L 2356 3500 
L 2356 3053 
L 1172 3053 
L 1172 1153 
Q 1172 725 1289 603 
Q 1406 481 1766 481 
L 2356 481 
L 2356 0 
L 1766 0 
Q 1100 0 847 248 
Q 594 497 594 1153 
L 594 3053 
L 172 3053 
L 172 3500 
L 594 3500 
L 594 4494 
L 1172 4494 
z
" transform="scale(0.015625)"/>
       <path id="DejaVuSans-69" d="M 603 3500 
L 1178 3500 
L 1178 0 
L 603 0 
L 603 3500 
z
M 603 4863 
L 1178 4863 
L 1178 4134 
L 603 4134 
L 603 4863 
z
" transform="scale(0.015625)"/>
       <path id="DejaVuSans-6e" d="M 3513 2113 
L 3513 0 
L 2938 0 
L 2938 2094 
Q 2938 2591 2744 2837 
Q 2550 3084 2163 3084 
Q 1697 3084 1428 2787 
Q 1159 2491 1159 1978 
L 1159 0 
L 581 0 
L 581 3500 
L 1159 3500 
L 1159 2956 
Q 1366 3272 1645 3428 
Q 1925 3584 2291 3584 
Q 2894 3584 3203 3211 
Q 3513 2838 3513 2113 
z
" transform="scale(0.015625)"/>
      </defs>
      <use xlink:href="#DejaVuSans-70"/>
      <use xlink:href="#DejaVuSans-72" x="63.476562"/>
      <use xlink:href="#DejaVuSans-6f" x="102.339844"/>
      <use xlink:href="#DejaVuSans-70" x="163.521484"/>
      <use xlink:href="#DejaVuSans-6f" x="226.998047"/>
      <use xlink:href="#DejaVuSans-72" x="288.179688"/>
      <use xlink:href="#DejaVuSans-74" x="329.292969"/>
      <use xlink:href="#DejaVuSans-69" x="368.501953"/>
      <use xlink:href="#DejaVuSans-6f" x="396.285156"/>
      <use xlink:href="#DejaVuSans-6e" x="457.466797"/>
      <use xlink:href="#DejaVuSans-20" x="520.845703"/>
      <use xlink:href="#DejaVuSans-6f" x="552.632812"/>
      <use xlink:href="#DejaVuSans-66" x="613.814453"/>
      <use xlink:href="#DejaVuSans-20" x="649.019531"/>
      <use xlink:href="#DejaVuSans-74" x="680.806641"/>
      <use xlink:href="#DejaVuSans-72" x="720.015625"/>
      <use xlink:href="#DejaVuSans-69" x="761.128906"/>
      <use xlink:href="#DejaVuSans-61" x="788.912109"/>
      <use xlink:href="#DejaVuSans-6c" x="850.191406"/>
      <use xlink:href="#DejaVuSans-73" x="877.974609"/>
     </g>
    </g>
   </g>
   <g id="line2d_49">
    <path d="M -1 232.441663 
L 50.562164 232.441663 
L 50.562164 228.609267 
L 95.237901 228.609267 
L 95.237901 220.944475 
L 97.530149 220.944475 
L 97.530149 217.112079 
L 98.61862 217.112079 
L 98.61862 213.279683 
L 108.278303 213.279683 
L 108.278303 209.447287 
L 115.404526 209.447287 
L 115.404526 205.614891 
L 115.723076 205.614891 
L 115.723076 201.782495 
L 120.437718 201.782495 
L 120.437718 197.950099 
L 127.114321 197.950099 
L 127.114321 194.117703 
L 135.715196 194.117703 
L 135.715196 190.285307 
L 136.563324 190.285307 
L 136.563324 186.452911 
L 138.036557 186.452911 
L 138.036557 182.620515 
L 138.670579 182.620515 
L 138.670579 178.788119 
L 167.17703 178.788119 
L 167.17703 174.955723 
L 168.39958 174.955723 
L 168.39958 171.123327 
L 169.210442 171.123327 
L 169.210442 167.290931 
L 172.097632 167.290931 
L 172.097632 163.458535 
L 172.712128 163.458535 
L 172.712128 159.626139 
L 173.151881 159.626139 
L 173.151881 155.793743 
L 174.331524 155.793743 
L 174.331524 151.961347 
L 174.905739 151.961347 
L 174.905739 148.12895 
L 177.347616 148.12895 
L 177.347616 144.296554 
L 177.491348 144.296554 
L 177.491348 140.464158 
L 177.682012 140.464158 
L 177.682012 136.631762 
L 178.106979 136.631762 
L 178.106979 132.799366 
L 187.146367 132.799366 
L 187.146367 128.96697 
L 192.513201 128.96697 
L 192.513201 125.134574 
L 193.84367 125.134574 
L 193.84367 121.302178 
L 200.479966 121.302178 
L 200.479966 117.469782 
L 202.094404 117.469782 
L 202.094404 113.637386 
L 202.806658 113.637386 
L 202.806658 109.80499 
L 206.527404 109.80499 
L 206.527404 105.972594 
L 206.742795 105.972594 
L 206.742795 102.140198 
L 212.194295 102.140198 
L 212.194295 98.307802 
L 214.765828 98.307802 
L 214.765828 94.475406 
L 222.563626 94.475406 
L 222.563626 90.64301 
L 235.439856 90.64301 
L 235.439856 86.810614 
L 239.049737 86.810614 
L 239.107732 75.313426 
L 242.840617 75.313426 
L 242.840617 71.48103 
L 264.558744 71.48103 
L 264.558744 67.648634 
L 274.514232 67.648634 
L 274.514232 63.816238 
L 277.587679 63.816238 
L 277.587679 59.983842 
L 280.95217 59.983842 
L 280.95217 56.151446 
L 293.540541 56.151446 
L 293.540541 52.31905 
L 296.64034 52.31905 
L 296.64034 48.486653 
L 297.130341 48.486653 
L 297.130341 44.654257 
L 298.200452 44.654257 
L 298.200452 40.821861 
L 299.033834 40.821861 
L 299.082336 33.157069 
L 299.273333 33.157069 
L 299.273333 29.324673 
L 300.095771 29.324673 
L 300.095771 25.492277 
L 300.302075 25.492277 
L 300.302075 21.659881 
L 302.227348 21.659881 
L 302.227348 17.827485 
L 304.626015 17.827485 
L 304.626015 13.995089 
L 318.816545 13.995089 
L 318.816545 10.162693 
L 319.233175 10.162693 
L 319.233175 6.330297 
L 319.233175 6.330297 
L 460.8 6.330297 
L 460.8 6.330297 
" clip-path="url(#p7910bf6aa6)" style="fill: none; stroke: #000000; stroke-width: 1.5; stroke-linecap: square"/>
   </g>
   <g id="line2d_50">
    <path clip-path="url(#p7910bf6aa6)" style="fill: none; stroke: #000000; stroke-width: 1.5; stroke-linecap: square"/>
   </g>
   <g id="line2d_51">
    <path d="M 205.1634 293.76 
L 205.224794 286.095208 
L 211.978885 286.095208 
L 211.978885 282.262812 
L 212.79972 282.262812 
L 212.79972 278.430416 
L 214.582136 278.430416 
L 214.582136 274.59802 
L 215.639388 274.59802 
L 215.639388 270.765624 
L 216.721037 270.765624 
L 216.721037 266.933228 
L 217.698307 266.933228 
L 217.698307 263.100832 
L 218.374966 263.100832 
L 218.374966 259.268436 
L 221.000013 259.268436 
L 221.000013 255.43604 
L 221.698726 255.43604 
L 221.698726 251.603644 
L 222.671643 251.603644 
L 222.671643 247.771248 
L 222.82704 247.771248 
L 222.82704 243.938851 
L 224.748929 243.938851 
L 224.748929 240.106455 
L 228.524643 240.106455 
L 228.524643 236.274059 
L 233.14024 236.274059 
L 233.14024 232.441663 
L 234.352209 232.441663 
L 234.352209 228.609267 
L 276.711207 228.609267 
L 276.711207 224.776871 
L 277.154643 224.776871 
L 277.154643 220.944475 
L 278.44775 220.944475 
L 278.462943 213.279683 
L 280.500686 213.279683 
L 280.500686 209.447287 
L 281.452986 209.447287 
L 281.452986 205.614891 
L 286.344438 205.614891 
L 286.344438 201.782495 
L 287.853372 201.782495 
L 287.853372 197.950099 
L 289.056507 197.950099 
L 289.056507 194.117703 
L 301.361868 194.117703 
L 301.361868 190.285307 
L 305.436745 190.285307 
L 305.436745 186.452911 
L 305.994286 186.452911 
L 305.994286 182.620515 
L 306.52042 182.620515 
L 306.566331 174.955723 
L 306.90499 174.955723 
L 306.90499 171.123327 
L 307.314692 171.123327 
L 307.314692 167.290931 
L 308.267393 167.290931 
L 308.267393 163.458535 
L 310.900234 163.458535 
L 310.900234 159.626139 
L 311.634373 159.626139 
L 311.634373 155.793743 
L 311.958803 155.793743 
L 311.958803 151.961347 
L 314.14162 151.961347 
L 314.14162 148.12895 
L 325.79735 148.12895 
L 325.79735 144.296554 
L 329.470207 144.296554 
L 329.470207 140.464158 
L 333.054304 140.464158 
L 333.054304 136.631762 
L 333.334402 136.631762 
L 333.334402 132.799366 
L 338.259956 132.799366 
L 338.259956 128.96697 
L 338.953652 128.96697 
L 338.953652 125.134574 
L 339.236233 125.134574 
L 339.236233 121.302178 
L 341.875165 121.302178 
L 341.875165 117.469782 
L 345.470674 117.469782 
L 345.470674 113.637386 
L 349.332739 113.637386 
L 349.332739 109.80499 
L 357.41966 109.80499 
L 357.41966 105.972594 
L 360.028162 105.972594 
L 360.028162 102.140198 
L 360.544277 102.140198 
L 360.544277 98.307802 
L 360.995063 98.307802 
L 360.995063 94.475406 
L 362.930529 94.475406 
L 362.930529 90.64301 
L 364.793459 90.64301 
L 364.793459 86.810614 
L 368.356055 86.810614 
L 368.356055 82.978218 
L 375.595251 82.978218 
L 375.595251 79.145822 
L 375.95728 79.145822 
L 375.95728 75.313426 
L 376.884065 75.313426 
L 376.884065 71.48103 
L 377.912345 71.48103 
L 377.912345 67.648634 
L 378.157956 67.648634 
L 378.157956 63.816238 
L 378.774725 63.816238 
L 378.774725 59.983842 
L 379.809455 59.983842 
L 379.809455 56.151446 
L 386.610333 56.151446 
L 386.610333 52.31905 
L 388.145068 52.31905 
L 388.145068 48.486653 
L 389.824249 48.486653 
L 389.824249 44.654257 
L 389.974158 44.654257 
L 389.974158 40.821861 
L 391.792995 40.821861 
L 391.792995 36.989465 
L 393.213684 36.989465 
L 393.213684 33.157069 
L 397.883146 33.157069 
L 397.883146 29.324673 
L 399.386337 29.324673 
L 399.386337 25.492277 
L 400.610509 25.492277 
L 400.610509 21.659881 
L 404.028859 21.659881 
L 404.028859 17.827485 
L 408.83391 17.827485 
L 408.83391 13.995089 
L 412.866936 13.995089 
L 412.967961 6.330297 
L 412.967961 6.330297 
L 460.8 6.330297 
L 460.8 6.330297 
" clip-path="url(#p7910bf6aa6)" style="fill: none; stroke: #00bfbf; stroke-width: 1.5; stroke-linecap: square"/>
   </g>
   <g id="line2d_52">
    <path clip-path="url(#p7910bf6aa6)" style="fill: none; stroke: #00bfbf; stroke-width: 1.5; stroke-linecap: square"/>
   </g>
   <g id="line2d_53">
    <path d="M 285.759678 293.76 
L 285.759678 289.927604 
L 286.168393 289.927604 
L 286.168393 286.095208 
L 286.272767 286.095208 
L 286.272767 282.262812 
L 288.17889 282.262812 
L 288.17889 278.430416 
L 288.456487 278.430416 
L 288.456487 274.59802 
L 294.091044 274.59802 
L 294.091044 270.765624 
L 295.40865 270.765624 
L 295.40865 266.933228 
L 309.289458 266.933228 
L 309.289458 263.100832 
L 310.456093 263.100832 
L 310.456093 259.268436 
L 310.911481 259.268436 
L 310.911481 255.43604 
L 311.237572 255.43604 
L 311.237572 251.603644 
L 311.377239 251.603644 
L 311.377239 247.771248 
L 311.398612 247.771248 
L 311.398612 243.938851 
L 311.74418 243.938851 
L 311.74418 240.106455 
L 312.492713 240.106455 
L 312.492713 236.274059 
L 312.789056 236.274059 
L 312.789056 232.441663 
L 314.625499 232.441663 
L 314.625499 228.609267 
L 314.712127 228.609267 
L 314.712127 224.776871 
L 329.677928 224.776871 
L 329.677928 220.944475 
L 329.759656 220.944475 
L 329.759656 217.112079 
L 329.971375 217.112079 
L 329.971375 213.279683 
L 331.931617 213.279683 
L 331.931617 209.447287 
L 332.04156 209.447287 
L 332.04156 205.614891 
L 332.52618 205.614891 
L 332.52618 201.782495 
L 333.154034 201.782495 
L 333.154034 197.950099 
L 333.414336 197.950099 
L 333.414336 194.117703 
L 333.47114 194.117703 
L 333.47114 190.285307 
L 335.838163 190.285307 
L 335.838163 186.452911 
L 340.928049 186.452911 
L 340.928049 182.620515 
L 341.727336 182.620515 
L 341.727336 178.788119 
L 344.318114 178.788119 
L 344.318114 174.955723 
L 347.880765 174.955723 
L 347.880765 171.123327 
L 351.481229 171.123327 
L 351.481229 167.290931 
L 351.82351 167.290931 
L 351.82351 163.458535 
L 353.381517 163.458535 
L 353.381517 159.626139 
L 353.815899 159.626139 
L 353.815899 155.793743 
L 354.372156 155.793743 
L 354.372156 151.961347 
L 355.776512 151.961347 
L 355.776512 148.12895 
L 357.042872 148.12895 
L 357.042872 144.296554 
L 357.949817 144.296554 
L 357.949817 140.464158 
L 358.824104 140.464158 
L 358.824104 136.631762 
L 359.627387 136.631762 
L 359.627387 132.799366 
L 362.15745 132.799366 
L 362.15745 128.96697 
L 362.635125 128.96697 
L 362.635125 125.134574 
L 363.054063 125.134574 
L 363.054063 121.302178 
L 365.03807 121.302178 
L 365.03807 117.469782 
L 368.804053 117.469782 
L 368.804053 113.637386 
L 372.971915 113.637386 
L 372.971915 109.80499 
L 375.078802 109.80499 
L 375.078802 105.972594 
L 377.477167 105.972594 
L 377.477167 102.140198 
L 378.005193 102.140198 
L 378.005193 98.307802 
L 378.325805 98.307802 
L 378.325805 94.475406 
L 378.694422 94.475406 
L 378.694422 90.64301 
L 379.813058 90.64301 
L 379.813058 86.810614 
L 379.996166 86.810614 
L 379.996166 82.978218 
L 380.511783 82.978218 
L 380.511783 79.145822 
L 389.235808 79.145822 
L 389.235808 75.313426 
L 392.704998 75.313426 
L 392.704998 71.48103 
L 394.787045 71.48103 
L 394.787045 67.648634 
L 406.863566 67.648634 
L 406.863566 63.816238 
L 445.899073 63.816238 
L 445.899073 59.983842 
L 447.377454 59.983842 
L 447.377454 56.151446 
L 447.377454 56.151446 
L 447.377454 56.151446 
L 460.8 56.151446 
" clip-path="url(#p7910bf6aa6)" style="fill: none; stroke: #bf00bf; stroke-width: 1.5; stroke-linecap: square"/>
   </g>
   <g id="line2d_54">
    <path clip-path="url(#p7910bf6aa6)" style="fill: none; stroke: #bf00bf; stroke-width: 1.5; stroke-linecap: square"/>
   </g>
   <g id="line2d_55">
    <path d="M 316.31107 293.76 
L 316.31107 289.927604 
L 316.558626 289.927604 
L 316.558626 286.095208 
L 318.690829 286.095208 
L 318.690829 282.262812 
L 320.153868 282.262812 
L 320.153868 278.430416 
L 334.699557 278.430416 
L 334.699557 274.59802 
L 334.863895 274.59802 
L 334.863895 270.765624 
L 334.951718 270.765624 
L 334.951718 266.933228 
L 335.110584 266.933228 
L 335.110584 263.100832 
L 335.757199 263.100832 
L 335.757199 259.268436 
L 335.848643 259.268436 
L 335.848643 255.43604 
L 335.906973 255.43604 
L 335.906973 251.603644 
L 336.162618 251.603644 
L 336.162618 247.771248 
L 336.273259 247.771248 
L 336.273259 243.938851 
L 336.469931 243.938851 
L 336.469931 240.106455 
L 336.629636 240.106455 
L 336.629636 236.274059 
L 336.955405 236.274059 
L 336.955405 232.441663 
L 337.121758 232.441663 
L 337.121758 228.609267 
L 337.211617 228.609267 
L 337.211617 224.776871 
L 337.561148 224.776871 
L 337.561148 220.944475 
L 337.662555 220.944475 
L 337.662555 217.112079 
L 338.130042 217.112079 
L 338.130042 213.279683 
L 338.260652 213.279683 
L 338.260652 209.447287 
L 338.599875 209.447287 
L 338.599875 205.614891 
L 344.084557 205.614891 
L 344.084557 201.782495 
L 344.884017 201.782495 
L 344.884017 197.950099 
L 346.908268 197.950099 
L 346.908268 194.117703 
L 350.919259 194.117703 
L 350.919259 190.285307 
L 353.864216 190.285307 
L 353.864216 186.452911 
L 354.209621 186.452911 
L 354.209621 182.620515 
L 355.269064 182.620515 
L 355.269064 178.788119 
L 355.600404 178.788119 
L 355.600404 174.955723 
L 356.078205 174.955723 
L 356.078205 171.123327 
L 356.512368 171.123327 
L 356.512368 167.290931 
L 356.892149 167.290931 
L 356.892149 163.458535 
L 357.880324 163.458535 
L 357.880324 159.626139 
L 360.159246 159.626139 
L 360.159246 155.793743 
L 361.767912 155.793743 
L 361.767912 151.961347 
L 362.24044 151.961347 
L 362.24044 148.12895 
L 363.303451 148.12895 
L 363.303451 144.296554 
L 363.328947 144.296554 
L 363.328947 140.464158 
L 364.518396 140.464158 
L 364.518396 136.631762 
L 365.101382 136.631762 
L 365.101382 132.799366 
L 365.446362 132.799366 
L 365.446362 128.96697 
L 365.917482 128.96697 
L 365.917482 125.134574 
L 367.584508 125.134574 
L 367.584508 121.302178 
L 370.885407 121.302178 
L 370.885407 117.469782 
L 374.919377 117.469782 
L 374.919377 113.637386 
L 377.076049 113.637386 
L 377.076049 109.80499 
L 380.00362 109.80499 
L 380.00362 105.972594 
L 380.213952 105.972594 
L 380.213952 102.140198 
L 380.270645 102.140198 
L 380.270645 98.307802 
L 381.043302 98.307802 
L 381.043302 94.475406 
L 382.074799 94.475406 
L 382.074799 90.64301 
L 382.232216 90.64301 
L 382.232216 86.810614 
L 382.758022 86.810614 
L 382.758022 82.978218 
L 387.218789 82.978218 
L 387.218789 79.145822 
L 391.184825 79.145822 
L 391.184825 75.313426 
L 394.384324 75.313426 
L 394.384324 71.48103 
L 396.682396 71.48103 
L 396.682396 67.648634 
L 408.372451 67.648634 
L 408.372451 63.816238 
L 446.687108 63.816238 
L 446.687108 59.983842 
L 448.125693 59.983842 
L 448.125693 56.151446 
L 448.125693 56.151446 
L 448.125693 56.151446 
L 460.8 56.151446 
" clip-path="url(#p7910bf6aa6)" style="fill: none; stroke: #ff0000; stroke-width: 3; stroke-linecap: square"/>
   </g>
   <g id="line2d_56">
    <path clip-path="url(#p7910bf6aa6)" style="fill: none; stroke: #ff0000; stroke-width: 3; stroke-linecap: square"/>
   </g>
   <g id="line2d_57">
    <path d="M 460.793936 293.76 
L 460.793936 3.456 
" clip-path="url(#p7910bf6aa6)" style="fill: none; stroke: #000000; stroke-width: 1.5; stroke-linecap: square"/>
   </g>
   <g id="patch_3">
    <path d="M 62.208 293.76 
L 62.208 3.456 
" style="fill: none; stroke: #000000; stroke-width: 0.8; stroke-linejoin: miter; stroke-linecap: square"/>
   </g>
   <g id="patch_4">
    <path d="M 460.8 293.76 
L 460.8 3.456 
" style="fill: none; stroke: #000000; stroke-width: 0.8; stroke-linejoin: miter; stroke-linecap: square"/>
   </g>
   <g id="patch_5">
    <path d="M 62.208 293.76 
L 460.8 293.76 
" style="fill: none; stroke: #000000; stroke-width: 0.8; stroke-linejoin: miter; stroke-linecap: square"/>
   </g>
   <g id="patch_6">
    <path d="M 62.208 3.456 
L 460.8 3.456 
" style="fill: none; stroke: #000000; stroke-width: 0.8; stroke-linejoin: miter; stroke-linecap: square"/>
   </g>
   <g id="text_12">
    <!-- {f15-f19}, 20-D -->
    <g transform="translate(182.2915 24.458955)scale(0.2 -0.2)">
     <defs>
      <path id="DejaVuSans-7b" d="M 3272 -594 
L 3272 -1044 
L 3078 -1044 
Q 2300 -1044 2036 -812 
Q 1772 -581 1772 109 
L 1772 856 
Q 1772 1328 1603 1509 
Q 1434 1691 991 1691 
L 800 1691 
L 800 2138 
L 991 2138 
Q 1438 2138 1605 2317 
Q 1772 2497 1772 2963 
L 1772 3713 
Q 1772 4403 2036 4633 
Q 2300 4863 3078 4863 
L 3272 4863 
L 3272 4416 
L 3059 4416 
Q 2619 4416 2484 4278 
Q 2350 4141 2350 3700 
L 2350 2925 
Q 2350 2434 2208 2212 
Q 2066 1991 1722 1913 
Q 2069 1828 2209 1606 
Q 2350 1384 2350 897 
L 2350 122 
Q 2350 -319 2484 -456 
Q 2619 -594 3059 -594 
L 3272 -594 
z
" transform="scale(0.015625)"/>
      <path id="DejaVuSans-35" d="M 691 4666 
L 3169 4666 
L 3169 4134 
L 1269 4134 
L 1269 2991 
Q 1406 3038 1543 3061 
Q 1681 3084 1819 3084 
Q 2600 3084 3056 2656 
Q 3513 2228 3513 1497 
Q 3513 744 3044 326 
Q 2575 -91 1722 -91 
Q 1428 -91 1123 -41 
Q 819 9 494 109 
L 494 744 
Q 775 591 1075 516 
Q 1375 441 1709 441 
Q 2250 441 2565 725 
Q 2881 1009 2881 1497 
Q 2881 1984 2565 2268 
Q 2250 2553 1709 2553 
Q 1456 2553 1204 2497 
Q 953 2441 691 2322 
L 691 4666 
z
" transform="scale(0.015625)"/>
      <path id="DejaVuSans-2d" d="M 313 2009 
L 1997 2009 
L 1997 1497 
L 313 1497 
L 313 2009 
z
" transform="scale(0.015625)"/>
      <path id="DejaVuSans-39" d="M 703 97 
L 703 672 
Q 941 559 1184 500 
Q 1428 441 1663 441 
Q 2288 441 2617 861 
Q 2947 1281 2994 2138 
Q 2813 1869 2534 1725 
Q 2256 1581 1919 1581 
Q 1219 1581 811 2004 
Q 403 2428 403 3163 
Q 403 3881 828 4315 
Q 1253 4750 1959 4750 
Q 2769 4750 3195 4129 
Q 3622 3509 3622 2328 
Q 3622 1225 3098 567 
Q 2575 -91 1691 -91 
Q 1453 -91 1209 -44 
Q 966 3 703 97 
z
M 1959 2075 
Q 2384 2075 2632 2365 
Q 2881 2656 2881 3163 
Q 2881 3666 2632 3958 
Q 2384 4250 1959 4250 
Q 1534 4250 1286 3958 
Q 1038 3666 1038 3163 
Q 1038 2656 1286 2365 
Q 1534 2075 1959 2075 
z
" transform="scale(0.015625)"/>
      <path id="DejaVuSans-7d" d="M 800 -594 
L 1019 -594 
Q 1456 -594 1589 -459 
Q 1722 -325 1722 122 
L 1722 897 
Q 1722 1384 1862 1606 
Q 2003 1828 2350 1913 
Q 2003 1991 1862 2212 
Q 1722 2434 1722 2925 
L 1722 3700 
Q 1722 4144 1589 4280 
Q 1456 4416 1019 4416 
L 800 4416 
L 800 4863 
L 997 4863 
Q 1775 4863 2036 4633 
Q 2297 4403 2297 3713 
L 2297 2963 
Q 2297 2497 2465 2317 
Q 2634 2138 3078 2138 
L 3272 2138 
L 3272 1691 
L 3078 1691 
Q 2634 1691 2465 1509 
Q 2297 1328 2297 856 
L 2297 109 
Q 2297 -581 2036 -812 
Q 1775 -1044 997 -1044 
L 800 -1044 
L 800 -594 
z
" transform="scale(0.015625)"/>
      <path id="DejaVuSans-2c" d="M 750 794 
L 1409 794 
L 1409 256 
L 897 -744 
L 494 -744 
L 750 256 
L 750 794 
z
" transform="scale(0.015625)"/>
     </defs>
     <use xlink:href="#DejaVuSans-7b"/>
     <use xlink:href="#DejaVuSans-66" x="63.623047"/>
     <use xlink:href="#DejaVuSans-31" x="98.828125"/>
     <use xlink:href="#DejaVuSans-35" x="162.451172"/>
     <use xlink:href="#DejaVuSans-2d" x="226.074219"/>
     <use xlink:href="#DejaVuSans-66" x="262.158203"/>
     <use xlink:href="#DejaVuSans-31" x="297.363281"/>
     <use xlink:href="#DejaVuSans-39" x="360.986328"/>
     <use xlink:href="#DejaVuSans-7d" x="424.609375"/>
     <use xlink:href="#DejaVuSans-2c" x="488.232422"/>
     <use xlink:href="#DejaVuSans-20" x="520.019531"/>
     <use xlink:href="#DejaVuSans-32" x="551.806641"/>
     <use xlink:href="#DejaVuSans-30" x="615.429688"/>
     <use xlink:href="#DejaVuSans-2d" x="679.052734"/>
     <use xlink:href="#DejaVuSans-44" x="715.136719"/>
    </g>
   </g>
   <g id="text_13">
    <!-- absolute targets -->
    <g transform="translate(62.208 609.932673)scale(0.14 -0.14)">
     <defs>
      <path id="DejaVuSans-62" d="M 3116 1747 
Q 3116 2381 2855 2742 
Q 2594 3103 2138 3103 
Q 1681 3103 1420 2742 
Q 1159 2381 1159 1747 
Q 1159 1113 1420 752 
Q 1681 391 2138 391 
Q 2594 391 2855 752 
Q 3116 1113 3116 1747 
z
M 1159 2969 
Q 1341 3281 1617 3432 
Q 1894 3584 2278 3584 
Q 2916 3584 3314 3078 
Q 3713 2572 3713 1747 
Q 3713 922 3314 415 
Q 2916 -91 2278 -91 
Q 1894 -91 1617 61 
Q 1341 213 1159 525 
L 1159 0 
L 581 0 
L 581 4863 
L 1159 4863 
L 1159 2969 
z
" transform="scale(0.015625)"/>
      <path id="DejaVuSans-75" d="M 544 1381 
L 544 3500 
L 1119 3500 
L 1119 1403 
Q 1119 906 1312 657 
Q 1506 409 1894 409 
Q 2359 409 2629 706 
Q 2900 1003 2900 1516 
L 2900 3500 
L 3475 3500 
L 3475 0 
L 2900 0 
L 2900 538 
Q 2691 219 2414 64 
Q 2138 -91 1772 -91 
Q 1169 -91 856 284 
Q 544 659 544 1381 
z
M 1991 3584 
L 1991 3584 
z
" transform="scale(0.015625)"/>
      <path id="DejaVuSans-65" d="M 3597 1894 
L 3597 1613 
L 953 1613 
Q 991 1019 1311 708 
Q 1631 397 2203 397 
Q 2534 397 2845 478 
Q 3156 559 3463 722 
L 3463 178 
Q 3153 47 2828 -22 
Q 2503 -91 2169 -91 
Q 1331 -91 842 396 
Q 353 884 353 1716 
Q 353 2575 817 3079 
Q 1281 3584 2069 3584 
Q 2775 3584 3186 3129 
Q 3597 2675 3597 1894 
z
M 3022 2063 
Q 3016 2534 2758 2815 
Q 2500 3097 2075 3097 
Q 1594 3097 1305 2825 
Q 1016 2553 972 2059 
L 3022 2063 
z
" transform="scale(0.015625)"/>
     </defs>
     <use xlink:href="#DejaVuSans-61"/>
     <use xlink:href="#DejaVuSans-62" x="61.279297"/>
     <use xlink:href="#DejaVuSans-73" x="124.755859"/>
     <use xlink:href="#DejaVuSans-6f" x="176.855469"/>
     <use xlink:href="#DejaVuSans-6c" x="238.037109"/>
     <use xlink:href="#DejaVuSans-75" x="265.820312"/>
     <use xlink:href="#DejaVuSans-74" x="329.199219"/>
     <use xlink:href="#DejaVuSans-65" x="368.408203"/>
     <use xlink:href="#DejaVuSans-20" x="429.931641"/>
     <use xlink:href="#DejaVuSans-74" x="461.71875"/>
     <use xlink:href="#DejaVuSans-61" x="500.927734"/>
     <use xlink:href="#DejaVuSans-72" x="562.207031"/>
     <use xlink:href="#DejaVuSans-67" x="601.570312"/>
     <use xlink:href="#DejaVuSans-65" x="665.046875"/>
     <use xlink:href="#DejaVuSans-74" x="726.570312"/>
     <use xlink:href="#DejaVuSans-73" x="765.779297"/>
    </g>
   </g>
   <g id="text_14">
    <!-- v2.6.3 -->
    <g style="fill: #808080" transform="translate(245.82275 288.777272)scale(0.1 -0.1)">
     <defs>
      <path id="DejaVuSans-33" d="M 2597 2516 
Q 3050 2419 3304 2112 
Q 3559 1806 3559 1356 
Q 3559 666 3084 287 
Q 2609 -91 1734 -91 
Q 1441 -91 1130 -33 
Q 819 25 488 141 
L 488 750 
Q 750 597 1062 519 
Q 1375 441 1716 441 
Q 2309 441 2620 675 
Q 2931 909 2931 1356 
Q 2931 1769 2642 2001 
Q 2353 2234 1838 2234 
L 1294 2234 
L 1294 2753 
L 1863 2753 
Q 2328 2753 2575 2939 
Q 2822 3125 2822 3475 
Q 2822 3834 2567 4026 
Q 2313 4219 1838 4219 
Q 1578 4219 1281 4162 
Q 984 4106 628 3988 
L 628 4550 
Q 988 4650 1302 4700 
Q 1616 4750 1894 4750 
Q 2613 4750 3031 4423 
Q 3450 4097 3450 3541 
Q 3450 3153 3228 2886 
Q 3006 2619 2597 2516 
z
" transform="scale(0.015625)"/>
     </defs>
     <use xlink:href="#DejaVuSans-76"/>
     <use xlink:href="#DejaVuSans-32" x="59.179688"/>
     <use xlink:href="#DejaVuSans-2e" x="122.802734"/>
     <use xlink:href="#DejaVuSans-36" x="154.589844"/>
     <use xlink:href="#DejaVuSans-2e" x="218.212891"/>
     <use xlink:href="#DejaVuSans-33" x="250"/>
    </g>
   </g>
   <g id="legend_1">
    <g id="patch_7">
     <path d="M 76.208 136.881 
L 205.429875 136.881 
Q 209.429875 136.881 209.429875 132.881 
L 209.429875 17.456 
Q 209.429875 13.456 205.429875 13.456 
L 76.208 13.456 
Q 72.208 13.456 72.208 17.456 
L 72.208 132.881 
Q 72.208 136.881 76.208 136.881 
z
" style="fill: #ffffff; opacity: 0.2; stroke: #cccccc; stroke-linejoin: miter"/>
    </g>
    <g id="line2d_58">
     <path d="M 80.208 29.652875 
L 80.208 29.652875 
L 100.208 29.652875 
L 100.208 29.652875 
L 120.208 29.652875 
" style="fill: none; stroke: #000000; stroke-width: 1.5; stroke-linecap: square"/>
    </g>
    <g id="text_15">
     <!-- 1: 5/5 -->
     <g transform="translate(136.208 36.652875)scale(0.2 -0.2)">
      <defs>
       <path id="DejaVuSans-3a" d="M 750 794 
L 1409 794 
L 1409 0 
L 750 0 
L 750 794 
z
M 750 3309 
L 1409 3309 
L 1409 2516 
L 750 2516 
L 750 3309 
z
" transform="scale(0.015625)"/>
      </defs>
      <use xlink:href="#DejaVuSans-31"/>
      <use xlink:href="#DejaVuSans-3a" x="63.623047"/>
      <use xlink:href="#DejaVuSans-20" x="97.314453"/>
      <use xlink:href="#DejaVuSans-35" x="129.101562"/>
      <use xlink:href="#DejaVuSans-2f" x="192.724609"/>
      <use xlink:href="#DejaVuSans-35" x="226.416016"/>
     </g>
    </g>
    <g id="line2d_59">
     <path d="M 80.208 59.009125 
L 80.208 59.009125 
L 100.208 59.009125 
L 100.208 59.009125 
L 120.208 59.009125 
" style="fill: none; stroke: #00bfbf; stroke-width: 1.5; stroke-linecap: square"/>
    </g>
    <g id="text_16">
     <!-- -1: 5/5 -->
     <g transform="translate(136.208 66.009125)scale(0.2 -0.2)">
      <use xlink:href="#DejaVuSans-2d"/>
      <use xlink:href="#DejaVuSans-31" x="36.083984"/>
      <use xlink:href="#DejaVuSans-3a" x="99.707031"/>
      <use xlink:href="#DejaVuSans-20" x="133.398438"/>
      <use xlink:href="#DejaVuSans-35" x="165.185547"/>
      <use xlink:href="#DejaVuSans-2f" x="228.808594"/>
      <use xlink:href="#DejaVuSans-35" x="262.5"/>
     </g>
    </g>
    <g id="line2d_60">
     <path d="M 80.208 88.365375 
L 80.208 88.365375 
L 100.208 88.365375 
L 100.208 88.365375 
L 120.208 88.365375 
" style="fill: none; stroke: #bf00bf; stroke-width: 1.5; stroke-linecap: square"/>
    </g>
    <g id="text_17">
     <!-- -4: 5/5 -->
     <g transform="translate(136.208 95.365375)scale(0.2 -0.2)">
      <use xlink:href="#DejaVuSans-2d"/>
      <use xlink:href="#DejaVuSans-34" x="36.083984"/>
      <use xlink:href="#DejaVuSans-3a" x="99.707031"/>
      <use xlink:href="#DejaVuSans-20" x="133.398438"/>
      <use xlink:href="#DejaVuSans-35" x="165.185547"/>
      <use xlink:href="#DejaVuSans-2f" x="228.808594"/>
      <use xlink:href="#DejaVuSans-35" x="262.5"/>
     </g>
    </g>
    <g id="line2d_61">
     <path d="M 80.208 117.721625 
L 80.208 117.721625 
L 100.208 117.721625 
L 100.208 117.721625 
L 120.208 117.721625 
" style="fill: none; stroke: #ff0000; stroke-width: 3; stroke-linecap: square"/>
    </g>
    <g id="text_18">
     <!-- -8: 5/5 -->
     <g transform="translate(136.208 124.721625)scale(0.2 -0.2)">
      <use xlink:href="#DejaVuSans-2d"/>
      <use xlink:href="#DejaVuSans-38" x="36.083984"/>
      <use xlink:href="#DejaVuSans-3a" x="99.707031"/>
      <use xlink:href="#DejaVuSans-20" x="133.398438"/>
      <use xlink:href="#DejaVuSans-35" x="165.185547"/>
      <use xlink:href="#DejaVuSans-2f" x="228.808594"/>
      <use xlink:href="#DejaVuSans-35" x="262.5"/>
     </g>
    </g>
   </g>
  </g>
 </g>
 <defs>
  <clipPath id="p7910bf6aa6">
   <rect x="62.208" y="3.456" width="398.592" height="290.304"/>
  </clipPath>
 </defs>
</svg>
