<?xml version="1.0" encoding="utf-8" standalone="no"?>
<!DOCTYPE svg PUBLIC "-//W3C//DTD SVG 1.1//EN"
  "http://www.w3.org/Graphics/SVG/1.1/DTD/svg11.dtd">
<svg xmlns:xlink="http://www.w3.org/1999/xlink" width="460.8pt" height="345.6pt" viewBox="0 0 460.8 345.6" xmlns="http://www.w3.org/2000/svg" version="1.1">
 <metadata>
  <rdf:RDF xmlns:dc="http://purl.org/dc/elements/1.1/" xmlns:cc="http://creativecommons.org/ns#" xmlns:rdf="http://www.w3.org/1999/02/22-rdf-syntax-ns#">
   <cc:Work>
    <dc:type rdf:resource="http://purl.org/dc/dcmitype/StillImage"/>
    <dc:date>2023-04-07T14:51:12.621438</dc:date>
    <dc:format>image/svg+xml</dc:format>
    <dc:creator>
     <cc:Agent>
      <dc:title>Matplotlib v3.5.2, https://matplotlib.org/</dc:title>
     </cc:Agent>
    </dc:creator>
   </cc:Work>
  </rdf:RDF>
 </metadata>
 <defs>
  <style type="text/css">*{stroke-linejoin: round; stroke-linecap: butt}</style>
 </defs>
 <g id="figure_1">
  <g id="patch_1">
   <path d="M 0 345.6 
L 460.8 345.6 
L 460.8 0 
L 0 0 
z
" style="fill: #ffffff"/>
  </g>
  <g id="axes_1">
   <g id="patch_2">
    <path d="M 62.208 293.76 
L 460.8 293.76 
L 460.8 3.456 
L 62.208 3.456 
z
" style="fill: #ffffff"/>
   </g>
   <g id="line2d_1">
    <path d="M 228.47755 293.76 
L 228.47755 289.927604 
L 230.948686 289.927604 
L 230.948686 286.095208 
L 231.829182 286.095208 
L 231.829182 282.262812 
L 232.153341 282.262812 
L 232.153341 278.430416 
L 232.438805 278.430416 
L 232.438805 274.59802 
L 233.002353 274.59802 
L 233.002353 270.765624 
L 233.037253 270.765624 
L 233.037253 266.933228 
L 233.245879 266.933228 
L 233.245879 263.100832 
L 234.636883 263.100832 
L 234.636883 259.268436 
L 235.489234 259.268436 
L 235.489234 255.43604 
L 235.843252 255.43604 
L 235.843252 251.603644 
L 236.066553 251.603644 
L 236.066553 247.771248 
L 247.034114 247.771248 
L 247.034114 243.938851 
L 251.408077 243.938851 
L 251.408077 240.106455 
L 251.645675 240.106455 
L 251.645675 236.274059 
L 255.211684 236.274059 
L 255.211684 232.441663 
L 255.475913 232.441663 
L 255.475913 228.609267 
L 259.883889 228.609267 
L 259.883889 224.776871 
L 267.891073 224.776871 
L 267.891073 220.944475 
L 268.272667 220.944475 
L 268.272667 217.112079 
L 270.836758 217.112079 
L 270.836758 213.279683 
L 278.792734 213.279683 
L 278.792734 209.447287 
L 285.35395 209.447287 
L 285.35395 205.614891 
L 301.875925 205.614891 
L 301.875925 201.782495 
L 304.589501 201.782495 
L 304.589501 197.950099 
L 308.721414 197.950099 
L 308.721414 194.117703 
L 325.446418 194.117703 
L 325.446418 190.285307 
L 333.339547 190.285307 
L 333.339547 186.452911 
L 337.351864 186.452911 
L 337.351864 182.620515 
L 337.351864 182.620515 
L 337.351864 182.620515 
L 460.8 182.620515 
" clip-path="url(#pc0cb3f862a)" style="fill: none; stroke: #f5deb3; stroke-width: 1.5; stroke-linecap: square"/>
   </g>
   <g id="line2d_2"/>
   <g id="line2d_3">
    <path d="M 148.372544 293.76 
L 148.372544 289.927604 
L 149.292316 289.927604 
L 149.292316 286.095208 
L 157.648475 286.095208 
L 157.648475 282.262812 
L 211.772473 282.262812 
L 211.772473 278.430416 
L 225.453821 278.430416 
L 225.453821 274.59802 
L 254.856018 274.59802 
L 254.856018 270.765624 
L 262.856094 270.765624 
L 262.856094 266.933228 
L 266.917109 266.933228 
L 266.917109 263.100832 
L 275.506041 263.100832 
L 275.506041 259.268436 
L 277.018862 259.268436 
L 277.018862 255.43604 
L 281.129405 255.43604 
L 281.129405 251.603644 
L 286.165812 251.603644 
L 286.165812 247.771248 
L 290.148179 247.771248 
L 290.148179 243.938851 
L 291.965144 243.938851 
L 291.965144 240.106455 
L 295.609918 240.106455 
L 295.609918 236.274059 
L 312.290296 236.274059 
L 312.290296 232.441663 
L 314.110628 232.441663 
L 314.110628 228.609267 
L 315.176323 228.609267 
L 315.176323 224.776871 
L 315.465347 224.776871 
L 315.465347 220.944475 
L 315.98638 220.944475 
L 315.98638 217.112079 
L 316.183742 217.112079 
L 316.183742 213.279683 
L 317.351415 213.279683 
L 317.351415 209.447287 
L 317.438316 209.447287 
L 317.438316 205.614891 
L 318.697108 205.614891 
L 318.697108 201.782495 
L 318.813299 201.782495 
L 318.813299 197.950099 
L 320.815659 197.950099 
L 320.815659 194.117703 
L 321.228043 194.117703 
L 321.228043 190.285307 
L 321.598259 190.285307 
L 321.598259 186.452911 
L 321.630657 186.452911 
L 321.630657 182.620515 
L 322.412259 182.620515 
L 322.412259 178.788119 
L 322.59242 178.788119 
L 322.59242 174.955723 
L 323.648652 174.955723 
L 323.648652 171.123327 
L 329.85913 171.123327 
L 329.85913 167.290931 
L 331.225162 167.290931 
L 331.225162 163.458535 
L 334.811886 163.458535 
L 334.811886 159.626139 
L 337.969064 159.626139 
L 337.969064 155.793743 
L 346.306898 155.793743 
L 346.306898 151.961347 
L 353.320872 151.961347 
L 353.320872 148.12895 
L 356.889947 148.12895 
L 356.889947 144.296554 
L 359.33126 144.296554 
L 359.33126 140.464158 
L 359.33126 140.464158 
L 359.33126 140.464158 
L 460.8 140.464158 
" clip-path="url(#pc0cb3f862a)" style="fill: none; stroke: #f5deb3; stroke-width: 1.5; stroke-linecap: square"/>
   </g>
   <g id="line2d_4">
    <path d="M 237.769866 293.76 
L 237.769866 289.927604 
L 242.35142 289.927604 
L 242.35142 286.095208 
L 243.231102 286.095208 
L 243.307595 278.430416 
L 243.409307 278.430416 
L 243.409307 274.59802 
L 244.727914 274.59802 
L 244.727914 270.765624 
L 245.283977 270.765624 
L 245.283977 266.933228 
L 246.437964 266.933228 
L 246.437964 263.100832 
L 246.622557 263.100832 
L 246.622557 259.268436 
L 247.797623 259.268436 
L 247.797623 255.43604 
L 248.587044 255.43604 
L 248.587044 251.603644 
L 249.060237 251.603644 
L 249.060237 247.771248 
L 249.568744 247.771248 
L 249.568744 243.938851 
L 249.715579 243.938851 
L 249.715579 240.106455 
L 250.007282 240.106455 
L 250.007282 236.274059 
L 250.214058 236.274059 
L 250.296403 224.776871 
L 250.521786 224.776871 
L 250.60336 217.112079 
L 250.765898 217.112079 
L 250.765898 213.279683 
L 251.546886 213.279683 
L 251.546886 209.447287 
L 252.174031 209.447287 
L 252.174031 205.614891 
L 252.425407 205.614891 
L 252.425407 201.782495 
L 252.540777 201.782495 
L 252.540777 197.950099 
L 253.073846 197.950099 
L 253.149293 190.285307 
L 254.424042 190.285307 
L 254.424042 186.452911 
L 254.748559 186.452911 
L 254.748559 182.620515 
L 254.99875 182.620515 
L 254.99875 178.788119 
L 255.317632 178.788119 
L 255.317632 174.955723 
L 255.807562 174.955723 
L 255.876956 167.290931 
L 256.067032 167.290931 
L 256.067032 163.458535 
L 256.647639 163.458535 
L 256.647639 159.626139 
L 257.151503 159.626139 
L 257.151503 155.793743 
L 257.417084 155.793743 
L 257.499638 148.12895 
L 257.5326 148.12895 
L 257.5326 144.296554 
L 257.795112 144.296554 
L 257.811449 136.631762 
L 258.281705 136.631762 
L 258.329967 128.96697 
L 258.602117 128.96697 
L 258.633986 121.302178 
L 259.092624 121.302178 
L 259.108325 113.637386 
L 259.296147 113.637386 
L 259.327346 105.972594 
L 259.868557 105.972594 
L 259.868557 102.140198 
L 260.082555 102.140198 
L 260.082555 98.307802 
L 261.803703 98.307802 
L 261.803703 94.475406 
L 263.821317 94.475406 
L 263.821317 90.64301 
L 264.982497 90.64301 
L 264.982497 86.810614 
L 266.078445 86.810614 
L 266.078445 82.978218 
L 269.253634 82.978218 
L 269.253634 79.145822 
L 275.69548 79.145822 
L 275.69548 75.313426 
L 275.968229 75.313426 
L 275.968229 71.48103 
L 277.009791 71.48103 
L 277.009791 67.648634 
L 277.379636 67.648634 
L 277.379636 63.816238 
L 277.585291 63.816238 
L 277.585291 59.983842 
L 280.031626 59.983842 
L 280.031626 56.151446 
L 282.675521 56.151446 
L 282.675521 52.31905 
L 289.287632 52.31905 
L 289.287632 48.486653 
L 292.892885 48.486653 
L 292.892885 44.654257 
L 297.402198 44.654257 
L 297.402198 40.821861 
L 297.552446 40.821861 
L 297.552446 36.989465 
L 300.965349 36.989465 
L 300.965349 33.157069 
L 305.77606 33.157069 
L 305.77606 29.324673 
L 308.212577 29.324673 
L 308.212577 25.492277 
L 318.605886 25.492277 
L 318.605886 21.659881 
L 323.373531 21.659881 
L 323.373531 17.827485 
L 325.934575 17.827485 
L 325.934575 13.995089 
L 327.445884 13.995089 
L 327.445884 10.162693 
L 334.224288 10.162693 
L 334.224288 6.330297 
L 334.224288 6.330297 
L 460.8 6.330297 
L 460.8 6.330297 
" clip-path="url(#pc0cb3f862a)" style="fill: none; stroke: #f5deb3; stroke-width: 1.5; stroke-linecap: square"/>
   </g>
   <g id="line2d_5"/>
   <g id="line2d_6"/>
   <g id="line2d_7">
    <path d="M 260.264871 293.76 
L 260.264871 289.927604 
L 260.790885 289.927604 
L 260.790885 286.095208 
L 261.24981 286.095208 
L 261.24981 282.262812 
L 261.731357 282.262812 
L 261.832596 274.59802 
L 263.397377 274.59802 
L 263.397377 270.765624 
L 263.521025 270.765624 
L 263.521025 266.933228 
L 264.010984 266.933228 
L 264.010984 263.100832 
L 264.306824 263.100832 
L 264.333586 255.43604 
L 264.507007 255.43604 
L 264.560183 243.938851 
L 264.62653 243.938851 
L 264.70597 236.274059 
L 264.982497 236.274059 
L 265.087228 224.776871 
L 265.126415 224.776871 
L 265.126415 220.944475 
L 265.256702 220.944475 
L 265.295687 205.614891 
L 265.721475 205.614891 
L 265.721475 201.782495 
L 265.849413 201.782495 
L 265.849413 197.950099 
L 266.091122 197.950099 
L 266.091122 194.117703 
L 266.656554 194.117703 
L 266.656554 190.285307 
L 266.85526 190.285307 
L 266.85526 186.452911 
L 267.065068 186.452911 
L 267.089663 178.788119 
L 267.187858 178.788119 
L 267.297975 171.123327 
L 267.57771 171.123327 
L 267.638207 163.458535 
L 268.046634 163.458535 
L 268.05857 155.793743 
L 268.248948 155.793743 
L 268.248948 151.961347 
L 268.987953 151.961347 
L 268.987953 148.12895 
L 269.482917 148.12895 
L 269.482917 144.296554 
L 269.880328 144.296554 
L 269.981742 132.799366 
L 270.138875 132.799366 
L 270.138875 128.96697 
L 270.295254 128.96697 
L 270.295254 125.134574 
L 271.06611 125.134574 
L 271.120481 117.469782 
L 271.808548 117.469782 
L 271.808548 113.637386 
L 274.335882 113.637386 
L 274.335882 109.80499 
L 274.551782 109.80499 
L 274.551782 105.972594 
L 277.798514 105.972594 
L 277.798514 102.140198 
L 277.922255 102.140198 
L 277.922255 98.307802 
L 279.363235 98.307802 
L 279.363235 94.475406 
L 280.319799 94.475406 
L 280.319799 90.64301 
L 280.442527 90.64301 
L 280.442527 86.810614 
L 281.40016 86.810614 
L 281.463543 79.145822 
L 281.989593 79.145822 
L 281.989593 75.313426 
L 282.121731 75.313426 
L 282.152745 67.648634 
L 282.774517 67.648634 
L 282.774517 63.816238 
L 283.740933 63.816238 
L 283.740933 59.983842 
L 284.049507 59.983842 
L 284.049507 56.151446 
L 285.135415 56.151446 
L 285.135415 52.31905 
L 287.078158 52.31905 
L 287.078158 48.486653 
L 287.547947 48.486653 
L 287.547947 44.654257 
L 289.300086 44.654257 
L 289.300086 40.821861 
L 291.14588 40.821861 
L 291.14588 36.989465 
L 296.053376 36.989465 
L 296.053376 33.157069 
L 302.233999 33.157069 
L 302.233999 29.324673 
L 309.915187 29.324673 
L 309.915187 25.492277 
L 311.878199 25.492277 
L 311.878199 21.659881 
L 314.587613 21.659881 
L 314.587613 17.827485 
L 315.114256 17.827485 
L 315.114256 13.995089 
L 322.545224 13.995089 
L 322.545224 10.162693 
L 357.041203 10.162693 
L 357.041203 6.330297 
L 357.041203 6.330297 
L 460.8 6.330297 
L 460.8 6.330297 
" clip-path="url(#pc0cb3f862a)" style="fill: none; stroke: #f5deb3; stroke-width: 1.5; stroke-linecap: square"/>
   </g>
   <g id="line2d_8">
    <path d="M 431.881977 293.76 
L 431.881977 289.927604 
L 432.435575 289.927604 
L 432.435575 286.095208 
L 432.435575 286.095208 
L 432.435575 286.095208 
L 460.8 286.095208 
" clip-path="url(#pc0cb3f862a)" style="fill: none; stroke: #f5deb3; stroke-width: 1.5; stroke-linecap: square"/>
   </g>
   <g id="line2d_9">
    <path d="M 256.067032 293.76 
L 256.067032 289.927604 
L 256.883743 289.927604 
L 256.883743 286.095208 
L 257.516123 286.095208 
L 257.516123 282.262812 
L 258.554255 282.262812 
L 258.554255 278.430416 
L 258.824549 278.430416 
L 258.919415 270.765624 
L 259.436309 270.765624 
L 259.436309 266.933228 
L 259.991013 266.933228 
L 259.991013 263.100832 
L 260.355649 263.100832 
L 260.355649 259.268436 
L 260.536451 259.268436 
L 260.641458 243.938851 
L 261.117237 243.938851 
L 261.117237 240.106455 
L 261.308559 240.106455 
L 261.308559 236.274059 
L 261.454971 236.274059 
L 261.469576 228.609267 
L 261.586182 228.609267 
L 261.687872 220.944475 
L 261.890307 220.944475 
L 261.962302 213.279683 
L 262.39097 213.279683 
L 262.39097 209.447287 
L 262.743944 209.447287 
L 262.743944 205.614891 
L 262.912025 205.614891 
L 262.912025 201.782495 
L 263.051435 201.782495 
L 263.051435 197.950099 
L 263.27326 197.950099 
L 263.342272 186.452911 
L 263.534734 186.452911 
L 263.644206 163.458535 
L 263.862053 163.458535 
L 263.862053 159.626139 
L 264.064973 159.626139 
L 264.078456 151.961347 
L 264.573463 151.961347 
L 264.613272 144.296554 
L 264.995607 144.296554 
L 264.995607 140.464158 
L 265.282697 140.464158 
L 265.347594 132.799366 
L 265.708653 132.799366 
L 265.785506 125.134574 
L 266.00228 125.134574 
L 266.00228 121.302178 
L 266.818095 121.302178 
L 266.892383 109.80499 
L 267.710654 109.80499 
L 267.710654 105.972594 
L 268.272667 105.972594 
L 268.272667 102.140198 
L 272.513663 102.140198 
L 272.513663 98.307802 
L 273.05061 98.307802 
L 273.05061 94.475406 
L 273.639275 94.475406 
L 273.639275 90.64301 
L 274.620178 90.64301 
L 274.620178 86.810614 
L 274.814812 86.810614 
L 274.814812 82.978218 
L 275.968229 82.978218 
L 275.968229 79.145822 
L 277.199748 79.145822 
L 277.199748 75.313426 
L 277.370665 75.313426 
L 277.370665 71.48103 
L 277.665413 71.48103 
L 277.665413 67.648634 
L 279.193978 67.648634 
L 279.193978 63.816238 
L 279.99853 63.816238 
L 279.99853 59.983842 
L 280.532235 59.983842 
L 280.532235 56.151446 
L 282.461273 56.151446 
L 282.461273 52.31905 
L 288.607929 52.31905 
L 288.607929 48.486653 
L 288.747539 48.486653 
L 288.747539 44.654257 
L 289.535826 44.654257 
L 289.535826 40.821861 
L 293.843782 40.821861 
L 293.843782 36.989465 
L 298.36903 36.989465 
L 298.36903 33.157069 
L 299.436111 33.157069 
L 299.436111 29.324673 
L 300.149449 29.324673 
L 300.149449 25.492277 
L 300.438446 25.492277 
L 300.438446 21.659881 
L 301.548126 21.659881 
L 301.548126 17.827485 
L 302.96317 17.827485 
L 302.96317 13.995089 
L 305.787335 13.995089 
L 305.787335 10.162693 
L 307.911171 10.162693 
L 307.911171 6.330297 
L 307.911171 6.330297 
L 460.8 6.330297 
L 460.8 6.330297 
" clip-path="url(#pc0cb3f862a)" style="fill: none; stroke: #f5deb3; stroke-width: 1.5; stroke-linecap: square"/>
   </g>
   <g id="line2d_10">
    <path d="M 422.714324 293.76 
L 422.714324 289.927604 
L 425.021988 289.927604 
L 425.021988 286.095208 
L 429.439834 286.095208 
L 429.439834 282.262812 
L 429.439834 282.262812 
L 429.439834 282.262812 
L 460.8 282.262812 
" clip-path="url(#pc0cb3f862a)" style="fill: none; stroke: #f5deb3; stroke-width: 1.5; stroke-linecap: square"/>
   </g>
   <g id="line2d_11">
    <path clip-path="url(#pc0cb3f862a)" style="fill: none; stroke: #f5deb3; stroke-width: 1.5; stroke-linecap: square"/>
   </g>
   <g id="line2d_12">
    <path d="M 229.309183 293.76 
L 229.309183 289.927604 
L 268.567715 289.927604 
L 268.567715 286.095208 
L 270.550548 286.095208 
L 270.550548 282.262812 
L 316.655834 282.262812 
L 316.655834 278.430416 
L 323.733341 278.430416 
L 323.733341 274.59802 
L 343.166898 274.59802 
L 343.166898 270.765624 
L 354.05476 270.765624 
L 354.05476 266.933228 
L 357.265617 266.933228 
L 357.265617 263.100832 
L 359.544867 263.100832 
L 359.544867 259.268436 
L 373.929962 259.268436 
L 373.929962 255.43604 
L 373.929962 255.43604 
L 373.929962 255.43604 
L 460.8 255.43604 
" clip-path="url(#pc0cb3f862a)" style="fill: none; stroke: #f5deb3; stroke-width: 1.5; stroke-linecap: square"/>
   </g>
   <g id="line2d_13"/>
   <g id="line2d_14">
    <path d="M 251.108627 293.76 
L 251.108627 289.927604 
L 255.510982 289.927604 
L 255.510982 286.095208 
L 264.679512 286.095208 
L 264.679512 282.262812 
L 265.785506 282.262812 
L 265.785506 278.430416 
L 269.653829 278.430416 
L 269.653829 274.59802 
L 269.92544 274.59802 
L 269.92544 270.765624 
L 272.073435 270.765624 
L 272.073435 266.933228 
L 274.678691 266.933228 
L 274.678691 263.100832 
L 275.372777 263.100832 
L 275.372777 259.268436 
L 279.074973 259.268436 
L 279.074973 255.43604 
L 279.890734 255.43604 
L 279.890734 251.603644 
L 281.041325 251.603644 
L 281.041325 247.771248 
L 281.833448 247.771248 
L 281.833448 243.938851 
L 285.367999 243.938851 
L 285.367999 240.106455 
L 288.179037 240.106455 
L 288.179037 236.274059 
L 288.563382 236.274059 
L 288.563382 232.441663 
L 289.585239 232.441663 
L 289.585239 228.609267 
L 290.020534 228.609267 
L 290.020534 224.776871 
L 296.675199 224.776871 
L 296.675199 220.944475 
L 297.504054 220.944475 
L 297.504054 217.112079 
L 300.812545 217.112079 
L 300.812545 213.279683 
L 303.273073 213.279683 
L 303.273073 209.447287 
L 303.748485 209.447287 
L 303.748485 205.614891 
L 305.432196 205.614891 
L 305.432196 201.782495 
L 307.271169 201.782495 
L 307.271169 197.950099 
L 308.628547 197.950099 
L 308.628547 194.117703 
L 309.421394 194.117703 
L 309.421394 190.285307 
L 311.728186 190.285307 
L 311.728186 186.452911 
L 312.345671 186.452911 
L 312.345671 182.620515 
L 318.669262 182.620515 
L 318.669262 178.788119 
L 319.877452 178.788119 
L 319.877452 174.955723 
L 321.575099 174.955723 
L 321.575099 171.123327 
L 332.506504 171.123327 
L 332.506504 167.290931 
L 344.003981 167.290931 
L 344.003981 163.458535 
L 345.920079 163.458535 
L 345.920079 159.626139 
L 349.719832 159.626139 
L 349.719832 155.793743 
L 353.616583 155.793743 
L 353.616583 151.961347 
L 360.020076 151.961347 
L 360.020076 148.12895 
L 360.452567 148.12895 
L 360.452567 144.296554 
L 360.452567 144.296554 
L 360.452567 144.296554 
L 460.8 144.296554 
" clip-path="url(#pc0cb3f862a)" style="fill: none; stroke: #f5deb3; stroke-width: 1.5; stroke-linecap: square"/>
   </g>
   <g id="line2d_15"/>
   <g id="line2d_16"/>
   <g id="line2d_17">
    <path d="M 304.706232 293.76 
L 304.706232 289.927604 
L 305.764781 289.927604 
L 305.764781 286.095208 
L 306.720777 286.095208 
L 306.720777 282.262812 
L 307.091141 282.262812 
L 307.091141 278.430416 
L 308.673294 278.430416 
L 308.673294 274.59802 
L 309.042685 274.59802 
L 309.042685 270.765624 
L 309.168281 270.765624 
L 309.168281 266.933228 
L 309.381028 266.933228 
L 309.381028 263.100832 
L 309.951591 263.100832 
L 309.991259 255.43604 
L 310.668046 255.43604 
L 310.716548 240.106455 
L 311.756366 240.106455 
L 311.790775 232.441663 
L 311.968499 232.441663 
L 311.984043 224.776871 
L 312.259492 224.776871 
L 312.259492 220.944475 
L 312.450013 220.944475 
L 312.450013 217.112079 
L 312.788355 217.112079 
L 312.788355 213.279683 
L 313.011985 213.279683 
L 313.011985 209.447287 
L 313.392246 209.447287 
L 313.392246 205.614891 
L 313.638392 205.614891 
L 313.638392 201.782495 
L 314.383219 201.782495 
L 314.383219 197.950099 
L 314.55603 197.950099 
L 314.55603 194.117703 
L 314.7165 194.117703 
L 314.7165 190.285307 
L 314.83064 190.285307 
L 314.87334 182.620515 
L 315.035092 182.620515 
L 315.080352 174.955723 
L 315.210127 174.955723 
L 315.210127 171.123327 
L 315.579688 171.123327 
L 315.579688 167.290931 
L 315.757374 167.290931 
L 315.757374 163.458535 
L 316.249266 163.458535 
L 316.249266 159.626139 
L 316.650447 159.626139 
L 316.650447 155.793743 
L 316.768772 155.793743 
L 316.825095 148.12895 
L 317.616659 148.12895 
L 317.616659 144.296554 
L 318.235863 144.296554 
L 318.235863 140.464158 
L 318.381821 140.464158 
L 318.381821 136.631762 
L 318.674326 136.631762 
L 318.674326 132.799366 
L 319.558629 132.799366 
L 319.558629 128.96697 
L 321.524087 128.96697 
L 321.524087 125.134574 
L 321.907039 125.134574 
L 321.907039 121.302178 
L 324.833639 121.302178 
L 324.846218 113.637386 
L 326.507304 113.637386 
L 326.507304 109.80499 
L 327.777122 109.80499 
L 327.777122 105.972594 
L 328.063274 105.972594 
L 328.091751 98.307802 
L 328.94398 98.307802 
L 328.94398 94.475406 
L 329.408407 94.475406 
L 329.408407 90.64301 
L 329.9184 90.64301 
L 329.929165 82.978218 
L 330.239811 82.978218 
L 330.346249 75.313426 
L 330.812242 75.313426 
L 330.812242 71.48103 
L 332.803532 71.48103 
L 332.803532 67.648634 
L 332.929773 67.648634 
L 332.929773 63.816238 
L 333.159685 63.816238 
L 333.159685 59.983842 
L 333.307212 59.983842 
L 333.307212 56.151446 
L 334.412472 56.151446 
L 334.412472 52.31905 
L 335.455801 52.31905 
L 335.455801 48.486653 
L 337.146867 48.486653 
L 337.240207 40.821861 
L 339.031364 40.821861 
L 339.031364 36.989465 
L 341.320593 36.989465 
L 341.320593 33.157069 
L 343.050688 33.157069 
L 343.050688 29.324673 
L 344.347202 29.324673 
L 344.347202 25.492277 
L 346.393683 25.492277 
L 346.393683 21.659881 
L 350.075994 21.659881 
L 350.178423 13.995089 
L 352.346977 13.995089 
L 352.346977 10.162693 
L 354.516715 10.162693 
L 354.516715 6.330297 
L 354.516715 6.330297 
L 460.8 6.330297 
L 460.8 6.330297 
" clip-path="url(#pc0cb3f862a)" style="fill: none; stroke: #f5deb3; stroke-width: 1.5; stroke-linecap: square"/>
   </g>
   <g id="line2d_18">
    <path d="M 196.852386 293.76 
L 196.852386 289.927604 
L 219.641573 289.927604 
L 219.641573 286.095208 
L 220.676517 286.095208 
L 220.676517 282.262812 
L 226.150375 282.262812 
L 226.150375 278.430416 
L 226.790168 278.430416 
L 226.790168 274.59802 
L 236.820768 274.59802 
L 236.820768 270.765624 
L 239.5891 270.765624 
L 239.5891 266.933228 
L 250.623721 266.933228 
L 250.623721 263.100832 
L 253.318415 263.100832 
L 253.318415 259.268436 
L 264.105406 259.268436 
L 264.105406 255.43604 
L 264.520309 255.43604 
L 264.520309 251.603644 
L 269.357011 251.603644 
L 269.357011 247.771248 
L 272.346656 247.771248 
L 272.346656 243.938851 
L 273.629215 243.938851 
L 273.629215 240.106455 
L 273.759754 240.106455 
L 273.759754 236.274059 
L 273.839827 236.274059 
L 273.839827 232.441663 
L 277.43341 232.441663 
L 277.43341 228.609267 
L 278.027946 228.609267 
L 278.027946 224.776871 
L 278.473355 224.776871 
L 278.473355 220.944475 
L 278.559982 220.944475 
L 278.559982 217.112079 
L 278.99824 217.112079 
L 278.99824 213.279683 
L 279.489605 213.279683 
L 279.489605 209.447287 
L 282.986726 209.447287 
L 282.986726 205.614891 
L 286.391195 205.614891 
L 286.391195 201.782495 
L 286.527038 201.782495 
L 286.527038 197.950099 
L 289.268941 197.950099 
L 289.268941 194.117703 
L 290.395962 194.117703 
L 290.395962 190.285307 
L 291.321921 190.285307 
L 291.321921 186.452911 
L 301.260196 186.452911 
L 301.260196 182.620515 
L 304.495815 182.620515 
L 304.495815 178.788119 
L 315.316945 178.788119 
L 315.316945 174.955723 
L 318.466026 174.955723 
L 318.466026 171.123327 
L 320.615849 171.123327 
L 320.615849 167.290931 
L 325.007214 167.290931 
L 325.007214 163.458535 
L 328.502849 163.458535 
L 328.502849 159.626139 
L 329.581104 159.626139 
L 329.581104 155.793743 
L 331.180306 155.793743 
L 331.180306 151.961347 
L 334.932148 151.961347 
L 334.932148 148.12895 
L 342.758944 148.12895 
L 342.758944 144.296554 
L 353.491298 144.296554 
L 353.491298 140.464158 
L 356.248989 140.464158 
L 356.248989 136.631762 
L 361.030602 136.631762 
L 361.030602 132.799366 
L 361.717371 132.799366 
L 361.717371 128.96697 
L 362.052395 128.96697 
L 362.052395 125.134574 
L 375.996608 125.134574 
L 375.996608 121.302178 
L 375.996608 121.302178 
L 375.996608 121.302178 
L 460.8 121.302178 
" clip-path="url(#pc0cb3f862a)" style="fill: none; stroke: #f5deb3; stroke-width: 1.5; stroke-linecap: square"/>
   </g>
   <g id="line2d_19">
    <path clip-path="url(#pc0cb3f862a)" style="fill: none; stroke: #f5deb3; stroke-width: 1.5; stroke-linecap: square"/>
   </g>
   <g id="line2d_20">
    <path d="M 208.834112 293.76 
L 208.834112 289.927604 
L 212.434763 289.927604 
L 212.434763 286.095208 
L 215.259267 286.095208 
L 215.259267 282.262812 
L 215.91407 282.262812 
L 215.91407 278.430416 
L 217.242182 278.430416 
L 217.242182 270.765624 
L 217.467743 270.765624 
L 217.467743 266.933228 
L 218.024919 266.933228 
L 218.024919 263.100832 
L 218.299982 263.100832 
L 218.299982 259.268436 
L 219.430589 259.268436 
L 219.483463 251.603644 
L 220.318007 251.603644 
L 220.318007 247.771248 
L 220.98071 247.771248 
L 220.98071 243.938851 
L 223.081567 243.938851 
L 223.081567 240.106455 
L 223.783739 240.106455 
L 223.783739 232.441663 
L 225.409789 232.441663 
L 225.409789 228.609267 
L 226.916636 228.609267 
L 226.916636 224.776871 
L 229.270058 224.776871 
L 229.270058 217.112079 
L 229.542953 217.112079 
L 229.542953 213.279683 
L 230.005531 213.279683 
L 230.005531 209.447287 
L 230.348214 209.447287 
L 230.348214 205.614891 
L 230.911478 205.614891 
L 230.911478 201.782495 
L 232.580606 201.782495 
L 232.580606 197.950099 
L 233.106943 197.950099 
L 233.106943 194.117703 
L 233.727549 194.117703 
L 233.727549 190.285307 
L 234.370081 190.285307 
L 234.370081 186.452911 
L 236.445838 186.452911 
L 236.539975 178.788119 
L 236.571294 178.788119 
L 236.571294 174.955723 
L 236.882839 174.955723 
L 236.882839 171.123327 
L 237.58831 171.123327 
L 237.618639 163.458535 
L 239.013252 163.458535 
L 239.013252 159.626139 
L 241.312295 159.626139 
L 241.312295 155.793743 
L 241.662357 155.793743 
L 241.662357 151.961347 
L 243.103214 151.961347 
L 243.180007 144.296554 
L 246.920312 144.296554 
L 246.920312 140.464158 
L 247.4181 140.464158 
L 247.4181 136.631762 
L 247.530183 136.631762 
L 247.530183 132.799366 
L 248.084898 132.799366 
L 248.084898 128.96697 
L 248.369668 128.96697 
L 248.435033 121.302178 
L 253.337152 121.302178 
L 253.337152 117.469782 
L 257.367452 117.469782 
L 257.367452 113.637386 
L 257.876716 113.637386 
L 257.876716 109.80499 
L 259.653148 109.80499 
L 259.653148 105.972594 
L 262.898051 105.972594 
L 262.898051 102.140198 
L 263.342272 102.140198 
L 263.342272 98.307802 
L 265.021811 98.307802 
L 265.021811 94.475406 
L 268.379192 94.475406 
L 268.379192 90.64301 
L 270.19481 90.64301 
L 270.19481 86.810614 
L 271.95715 86.810614 
L 271.95715 82.978218 
L 272.252338 82.978218 
L 272.252338 79.145822 
L 275.191043 79.145822 
L 275.191043 75.313426 
L 275.334601 75.313426 
L 275.334601 71.48103 
L 276.534612 71.48103 
L 276.534612 67.648634 
L 277.683191 67.648634 
L 277.683191 63.816238 
L 278.938435 63.816238 
L 278.938435 59.983842 
L 280.352571 59.983842 
L 280.352571 56.151446 
L 288.467719 56.151446 
L 288.467719 52.31905 
L 291.298504 52.31905 
L 291.298504 48.486653 
L 291.671182 48.486653 
L 291.671182 44.654257 
L 296.204907 44.654257 
L 296.204907 40.821861 
L 300.265355 40.821861 
L 300.265355 36.989465 
L 305.126878 36.989465 
L 305.126878 33.157069 
L 313.74458 33.157069 
L 313.74458 29.324673 
L 317.897922 29.324673 
L 317.897922 25.492277 
L 318.841023 25.492277 
L 318.841023 21.659881 
L 320.407606 21.659881 
L 320.407606 17.827485 
L 322.224284 17.827485 
L 322.224284 13.995089 
L 338.446544 13.995089 
L 338.446544 10.162693 
L 361.210019 10.162693 
L 361.210019 6.330297 
L 361.210019 6.330297 
L 460.8 6.330297 
L 460.8 6.330297 
" clip-path="url(#pc0cb3f862a)" style="fill: none; stroke: #f5deb3; stroke-width: 1.5; stroke-linecap: square"/>
   </g>
   <g id="line2d_21"/>
   <g id="line2d_22">
    <path d="M 207.717137 293.76 
L 207.717137 289.927604 
L 209.342572 289.927604 
L 209.342572 286.095208 
L 212.760937 286.095208 
L 212.760937 282.262812 
L 213.148092 282.262812 
L 213.148092 278.430416 
L 213.657261 278.430416 
L 213.657261 274.59802 
L 213.783321 274.59802 
L 213.783321 270.765624 
L 214.096361 270.765624 
L 214.096361 266.933228 
L 214.468089 266.933228 
L 214.529634 259.268436 
L 215.259267 259.268436 
L 215.259267 255.43604 
L 215.972951 255.43604 
L 215.972951 251.603644 
L 217.242182 251.603644 
L 217.242182 247.771248 
L 218.135223 247.771248 
L 218.135223 243.938851 
L 219.164926 243.938851 
L 219.164926 240.106455 
L 219.641573 240.106455 
L 219.746557 232.441663 
L 219.955516 232.441663 
L 219.955516 228.609267 
L 221.729018 228.609267 
L 221.729018 224.776871 
L 222.55687 224.776871 
L 222.55687 220.944475 
L 223.176067 220.944475 
L 223.176067 217.112079 
L 223.92238 217.112079 
L 223.92238 213.279683 
L 229.113088 213.279683 
L 229.113088 209.447287 
L 229.542953 209.447287 
L 229.542953 205.614891 
L 229.967232 205.614891 
L 229.967232 201.782495 
L 231.611274 201.782495 
L 231.611274 197.950099 
L 232.967414 197.950099 
L 232.967414 194.117703 
L 234.670081 194.117703 
L 234.670081 190.285307 
L 235.45686 190.285307 
L 235.45686 186.452911 
L 236.820768 186.452911 
L 236.820768 182.620515 
L 239.617628 182.620515 
L 239.617628 178.788119 
L 240.793818 178.788119 
L 240.793818 174.955723 
L 241.17665 174.955723 
L 241.17665 171.123327 
L 241.796004 171.123327 
L 241.796004 167.290931 
L 242.008706 167.290931 
L 242.008706 163.458535 
L 243.154429 163.458535 
L 243.154429 159.626139 
L 243.863133 159.626139 
L 243.863133 155.793743 
L 246.252322 155.793743 
L 246.252322 151.961347 
L 249.251856 151.961347 
L 249.251856 148.12895 
L 249.799189 148.12895 
L 249.799189 144.296554 
L 250.275836 144.296554 
L 250.275836 140.464158 
L 251.881556 140.464158 
L 251.881556 136.631762 
L 253.486664 136.631762 
L 253.486664 132.799366 
L 255.229366 132.799366 
L 255.229366 128.96697 
L 256.015303 128.96697 
L 256.015303 125.134574 
L 256.866935 125.134574 
L 256.866935 121.302178 
L 257.811449 121.302178 
L 257.876716 113.637386 
L 257.925581 113.637386 
L 257.925581 109.80499 
L 258.665824 109.80499 
L 258.665824 105.972594 
L 259.186715 105.972594 
L 259.186715 102.140198 
L 259.807157 102.140198 
L 259.807157 98.307802 
L 262.560874 98.307802 
L 262.574992 90.64301 
L 264.560183 90.64301 
L 264.560183 86.810614 
L 265.528623 86.810614 
L 265.528623 82.978218 
L 265.900448 82.978218 
L 265.900448 79.145822 
L 267.843059 79.145822 
L 267.843059 75.313426 
L 268.320054 75.313426 
L 268.320054 71.48103 
L 268.673282 71.48103 
L 268.673282 67.648634 
L 268.929909 67.648634 
L 268.929909 63.816238 
L 269.126839 63.816238 
L 269.126839 59.983842 
L 269.448627 59.983842 
L 269.494339 52.31905 
L 271.659268 52.31905 
L 271.659268 48.486653 
L 276.782203 48.486653 
L 276.782203 44.654257 
L 277.683191 44.654257 
L 277.683191 40.821861 
L 281.368423 40.821861 
L 281.368423 36.989465 
L 281.684416 36.989465 
L 281.684416 33.157069 
L 283.866184 33.157069 
L 283.866184 29.324673 
L 284.427553 29.324673 
L 284.427553 25.492277 
L 285.396079 25.492277 
L 285.396079 21.659881 
L 291.210539 21.659881 
L 291.210539 17.827485 
L 291.711687 17.827485 
L 291.711687 13.995089 
L 301.799591 13.995089 
L 301.799591 10.162693 
L 309.063085 10.162693 
L 309.063085 6.330297 
L 309.063085 6.330297 
L 460.8 6.330297 
L 460.8 6.330297 
" clip-path="url(#pc0cb3f862a)" style="fill: none; stroke: #f5deb3; stroke-width: 1.5; stroke-linecap: square"/>
   </g>
   <g id="line2d_23">
    <path d="M 428.591475 293.76 
L 428.591475 289.927604 
L 432.179096 289.927604 
L 432.179096 286.095208 
L 432.208285 286.095208 
L 432.208285 282.262812 
L 433.935381 282.262812 
L 433.935381 278.430416 
L 434.510364 278.430416 
L 434.510364 274.59802 
L 436.407475 274.59802 
L 436.407475 270.765624 
L 437.000158 270.765624 
L 437.000158 266.933228 
L 437.28622 266.933228 
L 437.28622 263.100832 
L 437.28622 263.100832 
L 437.28622 263.100832 
L 460.8 263.100832 
" clip-path="url(#pc0cb3f862a)" style="fill: none; stroke: #f5deb3; stroke-width: 1.5; stroke-linecap: square"/>
   </g>
   <g id="line2d_24">
    <path d="M 245.427492 293.76 
L 245.427492 289.927604 
L 246.943104 289.927604 
L 246.943104 286.095208 
L 250.786158 286.095208 
L 250.786158 282.262812 
L 251.248712 282.262812 
L 251.328492 274.59802 
L 251.427943 274.59802 
L 251.427943 270.765624 
L 251.822745 270.765624 
L 251.822745 266.933228 
L 252.135185 266.933228 
L 252.135185 263.100832 
L 254.351487 263.100832 
L 254.369641 255.43604 
L 254.640745 255.43604 
L 254.640745 251.603644 
L 254.909616 251.603644 
L 254.909616 247.771248 
L 255.282354 247.771248 
L 255.282354 243.938851 
L 255.859622 243.938851 
L 255.859622 240.106455 
L 256.187416 240.106455 
L 256.187416 236.274059 
L 256.934116 236.274059 
L 256.934116 232.441663 
L 257.234729 232.441663 
L 257.234729 228.609267 
L 258.168813 228.609267 
L 258.168813 224.776871 
L 258.777013 224.776871 
L 258.824549 217.112079 
L 259.822518 217.112079 
L 259.822518 213.279683 
L 260.775973 213.279683 
L 260.775973 209.447287 
L 261.337894 209.447287 
L 261.337894 205.614891 
L 262.447703 205.614891 
L 262.447703 201.782495 
L 262.589105 201.782495 
L 262.659577 194.117703 
L 262.870086 194.117703 
L 262.870086 190.285307 
L 263.287074 190.285307 
L 263.369836 182.620515 
L 263.589516 182.620515 
L 263.644206 174.955723 
L 264.064973 174.955723 
L 264.064973 171.123327 
L 264.586738 171.123327 
L 264.586738 167.290931 
L 264.772023 167.290931 
L 264.772023 163.458535 
L 265.554402 163.458535 
L 265.554402 159.626139 
L 266.192362 159.626139 
L 266.192362 155.793743 
L 266.431555 155.793743 
L 266.481689 148.12895 
L 267.468534 148.12895 
L 267.468534 144.296554 
L 268.391006 144.296554 
L 268.391006 140.464158 
L 268.801848 140.464158 
L 268.801848 136.631762 
L 269.528581 136.631762 
L 269.528581 132.799366 
L 269.92544 132.799366 
L 270.026715 125.134574 
L 271.733994 125.134574 
L 271.733994 121.302178 
L 272.304771 121.302178 
L 272.304771 117.469782 
L 273.649332 117.469782 
L 273.649332 113.637386 
L 274.088797 113.637386 
L 274.088797 109.80499 
L 274.541999 109.80499 
L 274.541999 105.972594 
L 275.066114 105.972594 
L 275.066114 102.140198 
L 275.334601 102.140198 
L 275.334601 98.307802 
L 275.610369 98.307802 
L 275.610369 94.475406 
L 276.782203 94.475406 
L 276.782203 90.64301 
L 277.745339 90.64301 
L 277.851603 79.145822 
L 278.281963 79.145822 
L 278.281963 75.313426 
L 278.715334 75.313426 
L 278.715334 71.48103 
L 279.405413 71.48103 
L 279.405413 67.648634 
L 279.623863 67.648634 
L 279.623863 63.816238 
L 280.286993 63.816238 
L 280.368945 56.151446 
L 283.704003 56.151446 
L 283.704003 52.31905 
L 284.779827 52.31905 
L 284.779827 48.486653 
L 285.668598 48.486653 
L 285.668598 44.654257 
L 285.994025 44.654257 
L 285.994025 40.821861 
L 292.573418 40.821861 
L 292.573418 36.989465 
L 295.522557 36.989465 
L 295.522557 33.157069 
L 299.645404 33.157069 
L 299.645404 29.324673 
L 309.552241 29.324673 
L 309.66255 21.659881 
L 312.419359 21.659881 
L 312.419359 17.827485 
L 314.964246 17.827485 
L 314.964246 13.995089 
L 330.004419 13.995089 
L 330.004419 10.162693 
L 331.609079 10.162693 
L 331.609079 6.330297 
L 331.609079 6.330297 
L 460.8 6.330297 
L 460.8 6.330297 
" clip-path="url(#pc0cb3f862a)" style="fill: none; stroke: #f5deb3; stroke-width: 1.5; stroke-linecap: square"/>
   </g>
   <g id="line2d_25"/>
   <g id="line2d_26">
    <path d="M 285.417123 293.76 
L 285.417123 289.927604 
L 286.581217 289.927604 
L 286.581217 286.095208 
L 287.303971 286.095208 
L 287.396501 274.59802 
L 287.501929 274.59802 
L 287.5939 266.933228 
L 290.933369 266.933228 
L 290.95705 259.268436 
L 291.116447 259.268436 
L 291.116447 255.43604 
L 291.444588 255.43604 
L 291.52611 247.771248 
L 291.705903 247.771248 
L 291.769464 240.106455 
L 291.844421 240.106455 
L 291.844421 236.274059 
L 291.959405 236.274059 
L 292.005286 228.609267 
L 292.176766 228.609267 
L 292.250795 220.944475 
L 292.488826 220.944475 
L 292.488826 217.112079 
L 292.607194 217.112079 
L 292.607194 213.279683 
L 292.719528 213.279683 
L 292.719528 209.447287 
L 292.970874 209.447287 
L 293.004241 197.950099 
L 293.209255 197.950099 
L 293.209255 194.117703 
L 293.440424 194.117703 
L 293.511646 178.788119 
L 296.230094 178.788119 
L 296.265323 167.290931 
L 296.490892 167.290931 
L 296.540807 159.626139 
L 296.858472 159.626139 
L 296.858472 155.793743 
L 297.025983 155.793743 
L 297.075088 148.12895 
L 297.508897 148.12895 
L 297.508897 144.296554 
L 297.793333 144.296554 
L 297.793333 140.464158 
L 298.222502 140.464158 
L 298.222502 136.631762 
L 301.056689 136.631762 
L 301.056689 132.799366 
L 301.483884 132.799366 
L 301.492457 125.134574 
L 301.778355 125.134574 
L 301.778355 121.302178 
L 302.015409 121.302178 
L 302.015409 117.469782 
L 305.302785 117.469782 
L 305.302785 113.637386 
L 306.246278 113.637386 
L 306.249983 105.972594 
L 306.372011 105.972594 
L 306.397837 94.475406 
L 306.647662 94.475406 
L 306.647662 90.64301 
L 308.779751 90.64301 
L 308.779751 86.810614 
L 309.208911 86.810614 
L 309.208911 82.978218 
L 309.454995 82.978218 
L 309.525444 71.48103 
L 310.07704 71.48103 
L 310.07704 67.648634 
L 312.1267 67.648634 
L 312.20397 59.983842 
L 312.541803 59.983842 
L 312.541803 56.151446 
L 313.054121 56.151446 
L 313.06615 48.486653 
L 315.95337 48.486653 
L 315.95337 44.654257 
L 318.029903 44.654257 
L 318.029903 40.821861 
L 324.31157 40.821861 
L 324.31157 36.989465 
L 324.892298 36.989465 
L 324.982176 25.492277 
L 325.887913 25.492277 
L 325.887913 21.659881 
L 326.707884 21.659881 
L 326.707884 17.827485 
L 330.498207 17.827485 
L 330.498207 13.995089 
L 332.846213 13.995089 
L 332.846213 10.162693 
L 346.147917 10.162693 
L 346.147917 6.330297 
L 346.147917 6.330297 
L 460.8 6.330297 
L 460.8 6.330297 
" clip-path="url(#pc0cb3f862a)" style="fill: none; stroke: #f5deb3; stroke-width: 1.5; stroke-linecap: square"/>
   </g>
   <g id="line2d_27">
    <path d="M 275.468021 293.76 
L 275.468021 289.927604 
L 276.414728 289.927604 
L 276.414728 286.095208 
L 285.191951 286.095208 
L 285.191951 282.262812 
L 285.73811 282.262812 
L 285.73811 278.430416 
L 285.966455 278.430416 
L 285.966455 274.59802 
L 292.250795 274.59802 
L 292.250795 270.765624 
L 297.822121 270.765624 
L 297.822121 266.933228 
L 304.853496 266.933228 
L 304.853496 263.100832 
L 305.153708 263.100832 
L 305.153708 259.268436 
L 306.471513 259.268436 
L 306.471513 255.43604 
L 311.060452 255.43604 
L 311.060452 251.603644 
L 311.753236 251.603644 
L 311.753236 247.771248 
L 314.870495 247.771248 
L 314.870495 243.938851 
L 316.170075 243.938851 
L 316.170075 240.106455 
L 322.98753 240.106455 
L 322.98753 236.274059 
L 359.106707 236.274059 
L 359.106707 232.441663 
L 362.593128 232.441663 
L 362.593128 228.609267 
L 362.593128 228.609267 
L 362.593128 224.776871 
L 363.215133 224.776871 
L 363.215133 220.944475 
L 366.012534 220.944475 
L 366.012534 217.112079 
L 369.451518 217.112079 
L 369.451518 213.279683 
L 370.490227 213.279683 
L 370.490227 209.447287 
L 370.957648 209.447287 
L 370.957648 205.614891 
L 374.54867 205.614891 
L 374.54867 201.782495 
L 374.893986 201.782495 
L 374.893986 197.950099 
L 375.646459 197.950099 
L 375.646459 194.117703 
L 376.927414 194.117703 
L 376.927414 190.285307 
L 380.141935 190.285307 
L 380.141935 186.452911 
L 380.700913 186.452911 
L 380.700913 182.620515 
L 381.248992 182.620515 
L 381.248992 178.788119 
L 381.732279 178.788119 
L 381.732279 174.955723 
L 383.003252 174.955723 
L 383.003252 171.123327 
L 383.850042 171.123327 
L 383.850042 167.290931 
L 384.609281 167.290931 
L 384.609281 163.458535 
L 386.09154 163.458535 
L 386.09154 159.626139 
L 386.894778 159.626139 
L 386.894778 155.793743 
L 387.224025 155.793743 
L 387.224025 151.961347 
L 387.237362 151.961347 
L 387.237362 148.12895 
L 387.66955 148.12895 
L 387.66955 144.296554 
L 390.535304 144.296554 
L 390.535304 140.464158 
L 390.791611 140.464158 
L 390.791611 136.631762 
L 398.570976 136.631762 
L 398.570976 132.799366 
L 399.271045 132.799366 
L 399.271045 128.96697 
L 399.297846 128.96697 
L 399.297846 125.134574 
L 406.075972 125.134574 
L 406.075972 121.302178 
L 408.85835 121.302178 
L 408.85835 117.469782 
L 413.326739 117.469782 
L 413.326739 113.637386 
L 413.326739 113.637386 
L 413.326739 113.637386 
L 460.8 113.637386 
" clip-path="url(#pc0cb3f862a)" style="fill: none; stroke: #f5deb3; stroke-width: 1.5; stroke-linecap: square"/>
   </g>
   <g id="line2d_28">
    <path d="M 240.211019 293.76 
L 240.211019 289.927604 
L 240.545319 289.927604 
L 240.545319 286.095208 
L 241.393412 286.095208 
L 241.393412 282.262812 
L 242.794223 282.262812 
L 242.794223 278.430416 
L 243.02624 278.430416 
L 243.02624 274.59802 
L 243.358491 274.59802 
L 243.358491 270.765624 
L 244.483162 270.765624 
L 244.483162 266.933228 
L 245.783545 266.933228 
L 245.783545 263.100832 
L 245.901372 263.100832 
L 245.901372 259.268436 
L 246.920312 259.268436 
L 246.920312 255.43604 
L 247.328156 255.43604 
L 247.328156 251.603644 
L 247.507797 251.603644 
L 247.507797 247.771248 
L 248.326018 247.771248 
L 248.326018 243.938851 
L 249.060237 243.938851 
L 249.060237 240.106455 
L 249.188108 240.106455 
L 249.188108 236.274059 
L 249.442358 236.274059 
L 249.442358 232.441663 
L 249.568744 232.441663 
L 249.568744 228.609267 
L 249.882586 228.609267 
L 249.882586 224.776871 
L 250.131505 224.776871 
L 250.131505 220.944475 
L 250.358026 220.944475 
L 250.358026 217.112079 
L 250.501361 217.112079 
L 250.501361 213.279683 
L 251.028308 213.279683 
L 251.028308 209.447287 
L 251.18875 209.447287 
L 251.18875 205.614891 
L 251.308565 205.614891 
L 251.308565 201.782495 
L 252.115745 201.782495 
L 252.115745 197.950099 
L 252.559966 197.950099 
L 252.559966 194.117703 
L 252.713072 194.117703 
L 252.713072 190.285307 
L 253.523936 190.285307 
L 253.523936 186.452911 
L 254.096267 186.452911 
L 254.096267 182.620515 
L 254.802333 182.620515 
L 254.802333 178.788119 
L 255.14086 178.788119 
L 255.14086 174.955723 
L 255.842278 174.955723 
L 255.842278 171.123327 
L 256.782765 171.123327 
L 256.782765 167.290931 
L 257.201464 167.290931 
L 257.201464 163.458535 
L 257.400549 163.458535 
L 257.400549 159.626139 
L 257.549069 159.626139 
L 257.549069 155.793743 
L 258.554255 155.793743 
L 258.554255 151.961347 
L 258.681731 151.961347 
L 258.681731 148.12895 
L 259.0612 148.12895 
L 259.0612 144.296554 
L 259.186715 144.296554 
L 259.186715 140.464158 
L 259.49841 140.464158 
L 259.49841 136.631762 
L 259.653148 136.631762 
L 259.653148 132.799366 
L 259.776413 132.799366 
L 259.776413 128.96697 
L 260.158643 128.96697 
L 260.158643 125.134574 
L 260.731196 125.134574 
L 260.731196 121.302178 
L 261.087703 121.302178 
L 261.087703 117.469782 
L 261.381847 117.469782 
L 261.469576 109.80499 
L 261.513352 109.80499 
L 261.527931 102.140198 
L 262.105818 102.140198 
L 262.105818 98.307802 
L 262.898051 98.307802 
L 262.898051 94.475406 
L 263.726069 94.475406 
L 263.726069 90.64301 
L 263.970434 90.64301 
L 263.970434 86.810614 
L 264.546897 86.810614 
L 264.546897 82.978218 
L 264.732407 82.978218 
L 264.732407 79.145822 
L 265.747102 79.145822 
L 265.747102 75.313426 
L 266.28069 75.313426 
L 266.28069 71.48103 
L 266.59421 71.48103 
L 266.59421 67.648634 
L 266.842877 67.648634 
L 266.842877 63.816238 
L 267.770905 63.816238 
L 267.770905 59.983842 
L 268.046634 59.983842 
L 268.046634 56.151446 
L 268.355549 56.151446 
L 268.355549 52.31905 
L 268.743472 52.31905 
L 268.743472 48.486653 
L 268.999549 48.486653 
L 268.999549 44.654257 
L 269.721944 44.654257 
L 269.721944 40.821861 
L 271.120481 40.821861 
L 271.120481 36.989465 
L 271.390986 36.989465 
L 271.390986 33.157069 
L 271.744655 33.157069 
L 271.744655 29.324673 
L 283.160015 29.324673 
L 283.160015 25.492277 
L 283.733551 25.492277 
L 283.733551 21.659881 
L 285.918151 21.659881 
L 285.918151 17.827485 
L 287.848748 17.827485 
L 287.848748 13.995089 
L 289.745317 13.995089 
L 289.745317 10.162693 
L 300.358672 10.162693 
L 300.358672 6.330297 
L 300.358672 6.330297 
L 460.8 6.330297 
L 460.8 6.330297 
" clip-path="url(#pc0cb3f862a)" style="fill: none; stroke: #f5deb3; stroke-width: 1.5; stroke-linecap: square"/>
   </g>
   <g id="line2d_29">
    <path d="M 293.919535 293.76 
L 293.919535 289.927604 
L 293.919535 289.927604 
L 293.919535 286.095208 
L 293.919535 286.095208 
L 293.919535 282.262812 
L 315.52675 282.262812 
L 315.52675 278.430416 
L 315.52675 278.430416 
L 315.52675 274.59802 
L 315.52675 274.59802 
L 315.52675 270.765624 
L 315.52675 270.765624 
L 315.52675 270.765624 
L 460.8 270.765624 
" clip-path="url(#pc0cb3f862a)" style="fill: none; stroke: #f5deb3; stroke-width: 1.5; stroke-linecap: square"/>
   </g>
   <g id="line2d_30"/>
   <g id="matplotlib.axis_1">
    <g id="xtick_1">
     <g id="line2d_31">
      <path d="M 62.208 293.76 
L 62.208 3.456 
" clip-path="url(#pc0cb3f862a)" style="fill: none; stroke: #b0b0b0; stroke-width: 0.8; stroke-linecap: square"/>
     </g>
     <g id="line2d_32">
      <defs>
       <path id="m25a3e51c9b" d="M 0 0 
L 0 3.5 
" style="stroke: #000000; stroke-width: 0.8"/>
      </defs>
      <g>
       <use xlink:href="#m25a3e51c9b" x="62.208" y="293.76" style="stroke: #000000; stroke-width: 0.8"/>
      </g>
     </g>
     <g id="text_1">
      <!-- 0 -->
      <g transform="translate(55.8455 315.956875)scale(0.2 -0.2)">
       <defs>
        <path id="DejaVuSans-30" d="M 2034 4250 
Q 1547 4250 1301 3770 
Q 1056 3291 1056 2328 
Q 1056 1369 1301 889 
Q 1547 409 2034 409 
Q 2525 409 2770 889 
Q 3016 1369 3016 2328 
Q 3016 3291 2770 3770 
Q 2525 4250 2034 4250 
z
M 2034 4750 
Q 2819 4750 3233 4129 
Q 3647 3509 3647 2328 
Q 3647 1150 3233 529 
Q 2819 -91 2034 -91 
Q 1250 -91 836 529 
Q 422 1150 422 2328 
Q 422 3509 836 4129 
Q 1250 4750 2034 4750 
z
" transform="scale(0.015625)"/>
       </defs>
       <use xlink:href="#DejaVuSans-30"/>
      </g>
     </g>
    </g>
    <g id="xtick_2">
     <g id="line2d_33">
      <path d="M 212.565624 293.76 
L 212.565624 3.456 
" clip-path="url(#pc0cb3f862a)" style="fill: none; stroke: #b0b0b0; stroke-width: 0.8; stroke-linecap: square"/>
     </g>
     <g id="line2d_34">
      <g>
       <use xlink:href="#m25a3e51c9b" x="212.565624" y="293.76" style="stroke: #000000; stroke-width: 0.8"/>
      </g>
     </g>
     <g id="text_2">
      <!-- 2 -->
      <g transform="translate(206.203124 315.956875)scale(0.2 -0.2)">
       <defs>
        <path id="DejaVuSans-32" d="M 1228 531 
L 3431 531 
L 3431 0 
L 469 0 
L 469 531 
Q 828 903 1448 1529 
Q 2069 2156 2228 2338 
Q 2531 2678 2651 2914 
Q 2772 3150 2772 3378 
Q 2772 3750 2511 3984 
Q 2250 4219 1831 4219 
Q 1534 4219 1204 4116 
Q 875 4013 500 3803 
L 500 4441 
Q 881 4594 1212 4672 
Q 1544 4750 1819 4750 
Q 2544 4750 2975 4387 
Q 3406 4025 3406 3419 
Q 3406 3131 3298 2873 
Q 3191 2616 2906 2266 
Q 2828 2175 2409 1742 
Q 1991 1309 1228 531 
z
" transform="scale(0.015625)"/>
       </defs>
       <use xlink:href="#DejaVuSans-32"/>
      </g>
     </g>
    </g>
    <g id="xtick_3">
     <g id="line2d_35">
      <path d="M 362.923247 293.76 
L 362.923247 3.456 
" clip-path="url(#pc0cb3f862a)" style="fill: none; stroke: #b0b0b0; stroke-width: 0.8; stroke-linecap: square"/>
     </g>
     <g id="line2d_36">
      <g>
       <use xlink:href="#m25a3e51c9b" x="362.923247" y="293.76" style="stroke: #000000; stroke-width: 0.8"/>
      </g>
     </g>
     <g id="text_3">
      <!-- 4 -->
      <g transform="translate(356.560747 315.956875)scale(0.2 -0.2)">
       <defs>
        <path id="DejaVuSans-34" d="M 2419 4116 
L 825 1625 
L 2419 1625 
L 2419 4116 
z
M 2253 4666 
L 3047 4666 
L 3047 1625 
L 3713 1625 
L 3713 1100 
L 3047 1100 
L 3047 0 
L 2419 0 
L 2419 1100 
L 313 1100 
L 313 1709 
L 2253 4666 
z
" transform="scale(0.015625)"/>
       </defs>
       <use xlink:href="#DejaVuSans-34"/>
      </g>
     </g>
    </g>
    <g id="text_4">
     <!-- log10 of FEvals / DIM -->
     <g transform="translate(156.430563 339.313125)scale(0.2 -0.2)">
      <defs>
       <path id="DejaVuSans-6c" d="M 603 4863 
L 1178 4863 
L 1178 0 
L 603 0 
L 603 4863 
z
" transform="scale(0.015625)"/>
       <path id="DejaVuSans-6f" d="M 1959 3097 
Q 1497 3097 1228 2736 
Q 959 2375 959 1747 
Q 959 1119 1226 758 
Q 1494 397 1959 397 
Q 2419 397 2687 759 
Q 2956 1122 2956 1747 
Q 2956 2369 2687 2733 
Q 2419 3097 1959 3097 
z
M 1959 3584 
Q 2709 3584 3137 3096 
Q 3566 2609 3566 1747 
Q 3566 888 3137 398 
Q 2709 -91 1959 -91 
Q 1206 -91 779 398 
Q 353 888 353 1747 
Q 353 2609 779 3096 
Q 1206 3584 1959 3584 
z
" transform="scale(0.015625)"/>
       <path id="DejaVuSans-67" d="M 2906 1791 
Q 2906 2416 2648 2759 
Q 2391 3103 1925 3103 
Q 1463 3103 1205 2759 
Q 947 2416 947 1791 
Q 947 1169 1205 825 
Q 1463 481 1925 481 
Q 2391 481 2648 825 
Q 2906 1169 2906 1791 
z
M 3481 434 
Q 3481 -459 3084 -895 
Q 2688 -1331 1869 -1331 
Q 1566 -1331 1297 -1286 
Q 1028 -1241 775 -1147 
L 775 -588 
Q 1028 -725 1275 -790 
Q 1522 -856 1778 -856 
Q 2344 -856 2625 -561 
Q 2906 -266 2906 331 
L 2906 616 
Q 2728 306 2450 153 
Q 2172 0 1784 0 
Q 1141 0 747 490 
Q 353 981 353 1791 
Q 353 2603 747 3093 
Q 1141 3584 1784 3584 
Q 2172 3584 2450 3431 
Q 2728 3278 2906 2969 
L 2906 3500 
L 3481 3500 
L 3481 434 
z
" transform="scale(0.015625)"/>
       <path id="DejaVuSans-31" d="M 794 531 
L 1825 531 
L 1825 4091 
L 703 3866 
L 703 4441 
L 1819 4666 
L 2450 4666 
L 2450 531 
L 3481 531 
L 3481 0 
L 794 0 
L 794 531 
z
" transform="scale(0.015625)"/>
       <path id="DejaVuSans-20" transform="scale(0.015625)"/>
       <path id="DejaVuSans-66" d="M 2375 4863 
L 2375 4384 
L 1825 4384 
Q 1516 4384 1395 4259 
Q 1275 4134 1275 3809 
L 1275 3500 
L 2222 3500 
L 2222 3053 
L 1275 3053 
L 1275 0 
L 697 0 
L 697 3053 
L 147 3053 
L 147 3500 
L 697 3500 
L 697 3744 
Q 697 4328 969 4595 
Q 1241 4863 1831 4863 
L 2375 4863 
z
" transform="scale(0.015625)"/>
       <path id="DejaVuSans-46" d="M 628 4666 
L 3309 4666 
L 3309 4134 
L 1259 4134 
L 1259 2759 
L 3109 2759 
L 3109 2228 
L 1259 2228 
L 1259 0 
L 628 0 
L 628 4666 
z
" transform="scale(0.015625)"/>
       <path id="DejaVuSans-45" d="M 628 4666 
L 3578 4666 
L 3578 4134 
L 1259 4134 
L 1259 2753 
L 3481 2753 
L 3481 2222 
L 1259 2222 
L 1259 531 
L 3634 531 
L 3634 0 
L 628 0 
L 628 4666 
z
" transform="scale(0.015625)"/>
       <path id="DejaVuSans-76" d="M 191 3500 
L 800 3500 
L 1894 563 
L 2988 3500 
L 3597 3500 
L 2284 0 
L 1503 0 
L 191 3500 
z
" transform="scale(0.015625)"/>
       <path id="DejaVuSans-61" d="M 2194 1759 
Q 1497 1759 1228 1600 
Q 959 1441 959 1056 
Q 959 750 1161 570 
Q 1363 391 1709 391 
Q 2188 391 2477 730 
Q 2766 1069 2766 1631 
L 2766 1759 
L 2194 1759 
z
M 3341 1997 
L 3341 0 
L 2766 0 
L 2766 531 
Q 2569 213 2275 61 
Q 1981 -91 1556 -91 
Q 1019 -91 701 211 
Q 384 513 384 1019 
Q 384 1609 779 1909 
Q 1175 2209 1959 2209 
L 2766 2209 
L 2766 2266 
Q 2766 2663 2505 2880 
Q 2244 3097 1772 3097 
Q 1472 3097 1187 3025 
Q 903 2953 641 2809 
L 641 3341 
Q 956 3463 1253 3523 
Q 1550 3584 1831 3584 
Q 2591 3584 2966 3190 
Q 3341 2797 3341 1997 
z
" transform="scale(0.015625)"/>
       <path id="DejaVuSans-73" d="M 2834 3397 
L 2834 2853 
Q 2591 2978 2328 3040 
Q 2066 3103 1784 3103 
Q 1356 3103 1142 2972 
Q 928 2841 928 2578 
Q 928 2378 1081 2264 
Q 1234 2150 1697 2047 
L 1894 2003 
Q 2506 1872 2764 1633 
Q 3022 1394 3022 966 
Q 3022 478 2636 193 
Q 2250 -91 1575 -91 
Q 1294 -91 989 -36 
Q 684 19 347 128 
L 347 722 
Q 666 556 975 473 
Q 1284 391 1588 391 
Q 1994 391 2212 530 
Q 2431 669 2431 922 
Q 2431 1156 2273 1281 
Q 2116 1406 1581 1522 
L 1381 1569 
Q 847 1681 609 1914 
Q 372 2147 372 2553 
Q 372 3047 722 3315 
Q 1072 3584 1716 3584 
Q 2034 3584 2315 3537 
Q 2597 3491 2834 3397 
z
" transform="scale(0.015625)"/>
       <path id="DejaVuSans-2f" d="M 1625 4666 
L 2156 4666 
L 531 -594 
L 0 -594 
L 1625 4666 
z
" transform="scale(0.015625)"/>
       <path id="DejaVuSans-44" d="M 1259 4147 
L 1259 519 
L 2022 519 
Q 2988 519 3436 956 
Q 3884 1394 3884 2338 
Q 3884 3275 3436 3711 
Q 2988 4147 2022 4147 
L 1259 4147 
z
M 628 4666 
L 1925 4666 
Q 3281 4666 3915 4102 
Q 4550 3538 4550 2338 
Q 4550 1131 3912 565 
Q 3275 0 1925 0 
L 628 0 
L 628 4666 
z
" transform="scale(0.015625)"/>
       <path id="DejaVuSans-49" d="M 628 4666 
L 1259 4666 
L 1259 0 
L 628 0 
L 628 4666 
z
" transform="scale(0.015625)"/>
       <path id="DejaVuSans-4d" d="M 628 4666 
L 1569 4666 
L 2759 1491 
L 3956 4666 
L 4897 4666 
L 4897 0 
L 4281 0 
L 4281 4097 
L 3078 897 
L 2444 897 
L 1241 4097 
L 1241 0 
L 628 0 
L 628 4666 
z
" transform="scale(0.015625)"/>
      </defs>
      <use xlink:href="#DejaVuSans-6c"/>
      <use xlink:href="#DejaVuSans-6f" x="27.783203"/>
      <use xlink:href="#DejaVuSans-67" x="88.964844"/>
      <use xlink:href="#DejaVuSans-31" x="152.441406"/>
      <use xlink:href="#DejaVuSans-30" x="216.064453"/>
      <use xlink:href="#DejaVuSans-20" x="279.6875"/>
      <use xlink:href="#DejaVuSans-6f" x="311.474609"/>
      <use xlink:href="#DejaVuSans-66" x="372.65625"/>
      <use xlink:href="#DejaVuSans-20" x="407.861328"/>
      <use xlink:href="#DejaVuSans-46" x="439.648438"/>
      <use xlink:href="#DejaVuSans-45" x="497.167969"/>
      <use xlink:href="#DejaVuSans-76" x="560.351562"/>
      <use xlink:href="#DejaVuSans-61" x="619.53125"/>
      <use xlink:href="#DejaVuSans-6c" x="680.810547"/>
      <use xlink:href="#DejaVuSans-73" x="708.59375"/>
      <use xlink:href="#DejaVuSans-20" x="760.693359"/>
      <use xlink:href="#DejaVuSans-2f" x="792.480469"/>
      <use xlink:href="#DejaVuSans-20" x="826.171875"/>
      <use xlink:href="#DejaVuSans-44" x="857.958984"/>
      <use xlink:href="#DejaVuSans-49" x="934.960938"/>
      <use xlink:href="#DejaVuSans-4d" x="964.453125"/>
     </g>
    </g>
   </g>
   <g id="matplotlib.axis_2">
    <g id="ytick_1">
     <g id="line2d_37">
      <path d="M 62.208 293.76 
L 460.8 293.76 
" clip-path="url(#pc0cb3f862a)" style="fill: none; stroke: #b0b0b0; stroke-width: 0.8; stroke-linecap: square"/>
     </g>
     <g id="line2d_38">
      <defs>
       <path id="m68da2f9deb" d="M 0 0 
L -3.5 0 
" style="stroke: #000000; stroke-width: 0.8"/>
      </defs>
      <g>
       <use xlink:href="#m68da2f9deb" x="62.208" y="293.76" style="stroke: #000000; stroke-width: 0.8"/>
      </g>
     </g>
     <g id="text_5">
      <!-- 0.0 -->
      <g transform="translate(29.763 299.83875)scale(0.16 -0.16)">
       <defs>
        <path id="DejaVuSans-2e" d="M 684 794 
L 1344 794 
L 1344 0 
L 684 0 
L 684 794 
z
" transform="scale(0.015625)"/>
       </defs>
       <use xlink:href="#DejaVuSans-30"/>
       <use xlink:href="#DejaVuSans-2e" x="63.623047"/>
       <use xlink:href="#DejaVuSans-30" x="95.410156"/>
      </g>
     </g>
    </g>
    <g id="ytick_2">
     <g id="line2d_39">
      <path d="M 62.208 236.274059 
L 460.8 236.274059 
" clip-path="url(#pc0cb3f862a)" style="fill: none; stroke: #b0b0b0; stroke-width: 0.8; stroke-linecap: square"/>
     </g>
     <g id="line2d_40">
      <g>
       <use xlink:href="#m68da2f9deb" x="62.208" y="236.274059" style="stroke: #000000; stroke-width: 0.8"/>
      </g>
     </g>
     <g id="text_6">
      <!-- 0.2 -->
      <g transform="translate(29.763 242.352809)scale(0.16 -0.16)">
       <use xlink:href="#DejaVuSans-30"/>
       <use xlink:href="#DejaVuSans-2e" x="63.623047"/>
       <use xlink:href="#DejaVuSans-32" x="95.410156"/>
      </g>
     </g>
    </g>
    <g id="ytick_3">
     <g id="line2d_41">
      <path d="M 62.208 178.788119 
L 460.8 178.788119 
" clip-path="url(#pc0cb3f862a)" style="fill: none; stroke: #b0b0b0; stroke-width: 0.8; stroke-linecap: square"/>
     </g>
     <g id="line2d_42">
      <g>
       <use xlink:href="#m68da2f9deb" x="62.208" y="178.788119" style="stroke: #000000; stroke-width: 0.8"/>
      </g>
     </g>
     <g id="text_7">
      <!-- 0.4 -->
      <g transform="translate(29.763 184.866869)scale(0.16 -0.16)">
       <use xlink:href="#DejaVuSans-30"/>
       <use xlink:href="#DejaVuSans-2e" x="63.623047"/>
       <use xlink:href="#DejaVuSans-34" x="95.410156"/>
      </g>
     </g>
    </g>
    <g id="ytick_4">
     <g id="line2d_43">
      <path d="M 62.208 121.302178 
L 460.8 121.302178 
" clip-path="url(#pc0cb3f862a)" style="fill: none; stroke: #b0b0b0; stroke-width: 0.8; stroke-linecap: square"/>
     </g>
     <g id="line2d_44">
      <g>
       <use xlink:href="#m68da2f9deb" x="62.208" y="121.302178" style="stroke: #000000; stroke-width: 0.8"/>
      </g>
     </g>
     <g id="text_8">
      <!-- 0.6 -->
      <g transform="translate(29.763 127.380928)scale(0.16 -0.16)">
       <defs>
        <path id="DejaVuSans-36" d="M 2113 2584 
Q 1688 2584 1439 2293 
Q 1191 2003 1191 1497 
Q 1191 994 1439 701 
Q 1688 409 2113 409 
Q 2538 409 2786 701 
Q 3034 994 3034 1497 
Q 3034 2003 2786 2293 
Q 2538 2584 2113 2584 
z
M 3366 4563 
L 3366 3988 
Q 3128 4100 2886 4159 
Q 2644 4219 2406 4219 
Q 1781 4219 1451 3797 
Q 1122 3375 1075 2522 
Q 1259 2794 1537 2939 
Q 1816 3084 2150 3084 
Q 2853 3084 3261 2657 
Q 3669 2231 3669 1497 
Q 3669 778 3244 343 
Q 2819 -91 2113 -91 
Q 1303 -91 875 529 
Q 447 1150 447 2328 
Q 447 3434 972 4092 
Q 1497 4750 2381 4750 
Q 2619 4750 2861 4703 
Q 3103 4656 3366 4563 
z
" transform="scale(0.015625)"/>
       </defs>
       <use xlink:href="#DejaVuSans-30"/>
       <use xlink:href="#DejaVuSans-2e" x="63.623047"/>
       <use xlink:href="#DejaVuSans-36" x="95.410156"/>
      </g>
     </g>
    </g>
    <g id="ytick_5">
     <g id="line2d_45">
      <path d="M 62.208 63.816238 
L 460.8 63.816238 
" clip-path="url(#pc0cb3f862a)" style="fill: none; stroke: #b0b0b0; stroke-width: 0.8; stroke-linecap: square"/>
     </g>
     <g id="line2d_46">
      <g>
       <use xlink:href="#m68da2f9deb" x="62.208" y="63.816238" style="stroke: #000000; stroke-width: 0.8"/>
      </g>
     </g>
     <g id="text_9">
      <!-- 0.8 -->
      <g transform="translate(29.763 69.894988)scale(0.16 -0.16)">
       <defs>
        <path id="DejaVuSans-38" d="M 2034 2216 
Q 1584 2216 1326 1975 
Q 1069 1734 1069 1313 
Q 1069 891 1326 650 
Q 1584 409 2034 409 
Q 2484 409 2743 651 
Q 3003 894 3003 1313 
Q 3003 1734 2745 1975 
Q 2488 2216 2034 2216 
z
M 1403 2484 
Q 997 2584 770 2862 
Q 544 3141 544 3541 
Q 544 4100 942 4425 
Q 1341 4750 2034 4750 
Q 2731 4750 3128 4425 
Q 3525 4100 3525 3541 
Q 3525 3141 3298 2862 
Q 3072 2584 2669 2484 
Q 3125 2378 3379 2068 
Q 3634 1759 3634 1313 
Q 3634 634 3220 271 
Q 2806 -91 2034 -91 
Q 1263 -91 848 271 
Q 434 634 434 1313 
Q 434 1759 690 2068 
Q 947 2378 1403 2484 
z
M 1172 3481 
Q 1172 3119 1398 2916 
Q 1625 2713 2034 2713 
Q 2441 2713 2670 2916 
Q 2900 3119 2900 3481 
Q 2900 3844 2670 4047 
Q 2441 4250 2034 4250 
Q 1625 4250 1398 4047 
Q 1172 3844 1172 3481 
z
" transform="scale(0.015625)"/>
       </defs>
       <use xlink:href="#DejaVuSans-30"/>
       <use xlink:href="#DejaVuSans-2e" x="63.623047"/>
       <use xlink:href="#DejaVuSans-38" x="95.410156"/>
      </g>
     </g>
    </g>
    <g id="ytick_6">
     <g id="line2d_47">
      <path d="M 62.208 6.330297 
L 460.8 6.330297 
" clip-path="url(#pc0cb3f862a)" style="fill: none; stroke: #b0b0b0; stroke-width: 0.8; stroke-linecap: square"/>
     </g>
     <g id="line2d_48">
      <g>
       <use xlink:href="#m68da2f9deb" x="62.208" y="6.330297" style="stroke: #000000; stroke-width: 0.8"/>
      </g>
     </g>
     <g id="text_10">
      <!-- 1.0 -->
      <g transform="translate(29.763 12.409047)scale(0.16 -0.16)">
       <use xlink:href="#DejaVuSans-31"/>
       <use xlink:href="#DejaVuSans-2e" x="63.623047"/>
       <use xlink:href="#DejaVuSans-30" x="95.410156"/>
      </g>
     </g>
    </g>
    <g id="text_11">
     <!-- proportion of trials -->
     <g transform="translate(21.603625 241.61425)rotate(-90)scale(0.2 -0.2)">
      <defs>
       <path id="DejaVuSans-70" d="M 1159 525 
L 1159 -1331 
L 581 -1331 
L 581 3500 
L 1159 3500 
L 1159 2969 
Q 1341 3281 1617 3432 
Q 1894 3584 2278 3584 
Q 2916 3584 3314 3078 
Q 3713 2572 3713 1747 
Q 3713 922 3314 415 
Q 2916 -91 2278 -91 
Q 1894 -91 1617 61 
Q 1341 213 1159 525 
z
M 3116 1747 
Q 3116 2381 2855 2742 
Q 2594 3103 2138 3103 
Q 1681 3103 1420 2742 
Q 1159 2381 1159 1747 
Q 1159 1113 1420 752 
Q 1681 391 2138 391 
Q 2594 391 2855 752 
Q 3116 1113 3116 1747 
z
" transform="scale(0.015625)"/>
       <path id="DejaVuSans-72" d="M 2631 2963 
Q 2534 3019 2420 3045 
Q 2306 3072 2169 3072 
Q 1681 3072 1420 2755 
Q 1159 2438 1159 1844 
L 1159 0 
L 581 0 
L 581 3500 
L 1159 3500 
L 1159 2956 
Q 1341 3275 1631 3429 
Q 1922 3584 2338 3584 
Q 2397 3584 2469 3576 
Q 2541 3569 2628 3553 
L 2631 2963 
z
" transform="scale(0.015625)"/>
       <path id="DejaVuSans-74" d="M 1172 4494 
L 1172 3500 
L 2356 3500 
L 2356 3053 
L 1172 3053 
L 1172 1153 
Q 1172 725 1289 603 
Q 1406 481 1766 481 
L 2356 481 
L 2356 0 
L 1766 0 
Q 1100 0 847 248 
Q 594 497 594 1153 
L 594 3053 
L 172 3053 
L 172 3500 
L 594 3500 
L 594 4494 
L 1172 4494 
z
" transform="scale(0.015625)"/>
       <path id="DejaVuSans-69" d="M 603 3500 
L 1178 3500 
L 1178 0 
L 603 0 
L 603 3500 
z
M 603 4863 
L 1178 4863 
L 1178 4134 
L 603 4134 
L 603 4863 
z
" transform="scale(0.015625)"/>
       <path id="DejaVuSans-6e" d="M 3513 2113 
L 3513 0 
L 2938 0 
L 2938 2094 
Q 2938 2591 2744 2837 
Q 2550 3084 2163 3084 
Q 1697 3084 1428 2787 
Q 1159 2491 1159 1978 
L 1159 0 
L 581 0 
L 581 3500 
L 1159 3500 
L 1159 2956 
Q 1366 3272 1645 3428 
Q 1925 3584 2291 3584 
Q 2894 3584 3203 3211 
Q 3513 2838 3513 2113 
z
" transform="scale(0.015625)"/>
      </defs>
      <use xlink:href="#DejaVuSans-70"/>
      <use xlink:href="#DejaVuSans-72" x="63.476562"/>
      <use xlink:href="#DejaVuSans-6f" x="102.339844"/>
      <use xlink:href="#DejaVuSans-70" x="163.521484"/>
      <use xlink:href="#DejaVuSans-6f" x="226.998047"/>
      <use xlink:href="#DejaVuSans-72" x="288.179688"/>
      <use xlink:href="#DejaVuSans-74" x="329.292969"/>
      <use xlink:href="#DejaVuSans-69" x="368.501953"/>
      <use xlink:href="#DejaVuSans-6f" x="396.285156"/>
      <use xlink:href="#DejaVuSans-6e" x="457.466797"/>
      <use xlink:href="#DejaVuSans-20" x="520.845703"/>
      <use xlink:href="#DejaVuSans-6f" x="552.632812"/>
      <use xlink:href="#DejaVuSans-66" x="613.814453"/>
      <use xlink:href="#DejaVuSans-20" x="649.019531"/>
      <use xlink:href="#DejaVuSans-74" x="680.806641"/>
      <use xlink:href="#DejaVuSans-72" x="720.015625"/>
      <use xlink:href="#DejaVuSans-69" x="761.128906"/>
      <use xlink:href="#DejaVuSans-61" x="788.912109"/>
      <use xlink:href="#DejaVuSans-6c" x="850.191406"/>
      <use xlink:href="#DejaVuSans-73" x="877.974609"/>
     </g>
    </g>
   </g>
   <g id="line2d_49">
    <path d="M 9.660266 293.76 
L 9.660266 274.59802 
L 32.291343 274.59802 
L 32.291343 270.765624 
L 45.529675 270.765624 
L 45.529675 266.933228 
L 68.160752 266.933228 
L 68.160752 255.43604 
L 73.193732 255.43604 
L 73.193732 251.603644 
L 84.839077 251.603644 
L 84.839077 243.938851 
L 93.405203 243.938851 
L 93.405203 240.106455 
L 110.582008 240.106455 
L 110.582008 236.274059 
L 183.929513 236.274059 
L 183.929513 232.441663 
L 188.052971 232.441663 
L 188.052971 228.609267 
L 188.465394 228.609267 
L 188.465394 224.776871 
L 188.737477 224.776871 
L 188.737477 220.944475 
L 189.141396 220.944475 
L 189.141396 217.112079 
L 189.672298 217.112079 
L 189.672298 213.279683 
L 193.400649 213.279683 
L 193.400649 209.447287 
L 193.517884 209.447287 
L 193.517884 205.614891 
L 195.99595 205.614891 
L 195.99595 201.782495 
L 197.272324 201.782495 
L 197.37647 194.117703 
L 201.658157 194.117703 
L 201.658157 190.285307 
L 202.822743 190.285307 
L 202.822743 186.452911 
L 203.346547 186.452911 
L 203.346547 182.620515 
L 203.86208 182.620515 
L 203.86208 178.788119 
L 204.951903 178.788119 
L 205.034248 171.123327 
L 207.182509 171.123327 
L 207.182509 167.290931 
L 208.018753 167.290931 
L 208.018753 163.458535 
L 208.391897 163.458535 
L 208.391897 159.626139 
L 208.613753 159.626139 
L 208.613753 155.793743 
L 209.486404 155.793743 
L 209.486404 151.961347 
L 210.406176 151.961347 
L 210.406176 148.12895 
L 210.959575 148.12895 
L 210.959575 144.296554 
L 211.7055 144.296554 
L 211.7055 140.464158 
L 211.90601 140.464158 
L 211.90601 136.631762 
L 212.434763 136.631762 
L 212.434763 132.799366 
L 212.630858 132.799366 
L 212.695962 125.134574 
L 215.736786 125.134574 
L 215.736786 121.302178 
L 215.972951 121.302178 
L 215.972951 117.469782 
L 216.786332 117.469782 
L 216.786332 113.637386 
L 217.355157 113.637386 
L 217.355157 109.80499 
L 217.467743 109.80499 
L 217.467743 105.972594 
L 217.858762 105.972594 
L 217.969628 98.307802 
L 218.024919 98.307802 
L 218.024919 90.64301 
L 218.789329 90.64301 
L 218.789329 86.810614 
L 219.955516 86.810614 
L 219.955516 82.978218 
L 220.77823 82.978218 
L 220.77823 79.145822 
L 221.08148 79.145822 
L 221.08148 75.313426 
L 222.700808 75.313426 
L 222.700808 71.48103 
L 223.551356 71.48103 
L 223.551356 67.648634 
L 224.606886 67.648634 
L 224.606886 63.816238 
L 225.055378 63.816238 
L 225.055378 59.983842 
L 226.322216 59.983842 
L 226.322216 56.151446 
L 227.459072 56.151446 
L 227.459072 52.31905 
L 227.747463 52.31905 
L 227.747463 48.486653 
L 228.677488 48.486653 
L 228.677488 44.654257 
L 229.113088 44.654257 
L 229.113088 40.821861 
L 229.348261 40.821861 
L 229.348261 36.989465 
L 230.386069 36.989465 
L 230.386069 33.157069 
L 230.574687 33.157069 
L 230.574687 29.324673 
L 231.318449 29.324673 
L 231.318449 25.492277 
L 232.79216 25.492277 
L 232.79216 21.659881 
L 234.636883 21.659881 
L 234.636883 17.827485 
L 240.876232 17.827485 
L 240.876232 13.995089 
L 245.139827 13.995089 
L 245.139827 10.162693 
L 249.944994 10.162693 
L 249.944994 6.330297 
L 249.944994 6.330297 
L 460.8 6.330297 
L 460.8 6.330297 
" clip-path="url(#pc0cb3f862a)" style="fill: none; stroke: #000000; stroke-width: 1.5; stroke-linecap: square"/>
   </g>
   <g id="line2d_50">
    <path clip-path="url(#pc0cb3f862a)" style="fill: none; stroke: #000000; stroke-width: 1.5; stroke-linecap: square"/>
   </g>
   <g id="line2d_51">
    <path d="M 163.718042 293.76 
L 163.718042 282.262812 
L 169.328908 282.262812 
L 169.328908 278.430416 
L 174.745392 278.430416 
L 174.745392 274.59802 
L 175.969901 274.59802 
L 175.969901 270.765624 
L 176.956373 270.765624 
L 176.956373 266.933228 
L 177.53426 266.933228 
L 177.53426 263.100832 
L 178.289201 263.100832 
L 178.289201 259.268436 
L 178.47524 259.268436 
L 178.47524 255.43604 
L 178.844167 255.43604 
L 178.844167 251.603644 
L 180.279552 251.603644 
L 180.279552 247.771248 
L 192.447304 247.771248 
L 192.447304 243.938851 
L 194.892813 243.938851 
L 194.892813 240.106455 
L 200.06973 240.106455 
L 200.06973 236.274059 
L 209.629605 236.274059 
L 209.629605 232.441663 
L 215.91407 232.441663 
L 215.91407 228.609267 
L 219.798922 228.609267 
L 219.798922 224.776871 
L 221.282094 224.776871 
L 221.282094 220.944475 
L 224.289234 220.944475 
L 224.289234 217.112079 
L 225.09989 217.112079 
L 225.09989 213.279683 
L 225.716773 213.279683 
L 225.716773 209.447287 
L 225.934294 209.447287 
L 225.934294 205.614891 
L 226.322216 205.614891 
L 226.322216 197.950099 
L 226.663209 197.950099 
L 226.663209 194.117703 
L 226.790168 194.117703 
L 226.790168 190.285307 
L 226.916636 190.285307 
L 226.916636 186.452911 
L 230.687337 186.452911 
L 230.687337 182.620515 
L 230.948686 182.620515 
L 230.948686 178.788119 
L 232.081583 178.788119 
L 232.081583 174.955723 
L 232.545214 174.955723 
L 232.580606 167.290931 
L 232.932439 167.290931 
L 232.932439 163.458535 
L 234.202216 163.458535 
L 234.202216 159.626139 
L 234.503755 159.626139 
L 234.503755 155.793743 
L 234.835564 155.793743 
L 234.934453 148.12895 
L 235.229334 148.12895 
L 235.229334 144.296554 
L 236.445838 144.296554 
L 236.445838 140.464158 
L 236.758578 140.464158 
L 236.758578 136.631762 
L 237.769866 136.631762 
L 237.860267 128.96697 
L 238.129977 128.96697 
L 238.129977 125.134574 
L 238.750769 125.134574 
L 238.838498 117.469782 
L 239.359978 117.469782 
L 239.359978 109.80499 
L 239.703061 109.80499 
L 239.703061 105.972594 
L 240.628363 105.972594 
L 240.628363 102.140198 
L 240.793818 102.140198 
L 240.793818 98.307802 
L 241.955661 98.307802 
L 242.061666 90.64301 
L 242.088114 90.64301 
L 242.088114 86.810614 
L 243.077576 86.810614 
L 243.077576 82.978218 
L 245.45135 82.978218 
L 245.45135 79.145822 
L 246.205746 79.145822 
L 246.205746 75.313426 
L 246.897504 75.313426 
L 246.897504 71.48103 
L 247.4181 71.48103 
L 247.4181 67.648634 
L 247.730968 67.648634 
L 247.841984 59.983842 
L 247.864142 59.983842 
L 247.864142 56.151446 
L 249.081583 56.151446 
L 249.124235 48.486653 
L 249.589761 48.486653 
L 249.589761 44.654257 
L 250.131505 44.654257 
L 250.131505 40.821861 
L 251.99886 40.821861 
L 251.99886 36.989465 
L 259.960442 36.989465 
L 259.960442 33.157069 
L 261.875889 33.157069 
L 261.875889 29.324673 
L 274.629938 29.324673 
L 274.629938 25.492277 
L 276.303675 25.492277 
L 276.303675 21.659881 
L 277.727594 21.659881 
L 277.727594 17.827485 
L 278.395194 17.827485 
L 278.395194 13.995089 
L 290.814708 13.995089 
L 290.814708 10.162693 
L 303.049096 10.162693 
L 303.049096 6.330297 
L 303.049096 6.330297 
L 460.8 6.330297 
L 460.8 6.330297 
" clip-path="url(#pc0cb3f862a)" style="fill: none; stroke: #00bfbf; stroke-width: 1.5; stroke-linecap: square"/>
   </g>
   <g id="line2d_52">
    <path clip-path="url(#pc0cb3f862a)" style="fill: none; stroke: #00bfbf; stroke-width: 1.5; stroke-linecap: square"/>
   </g>
   <g id="line2d_53">
    <path d="M 206.638981 293.76 
L 206.638981 289.927604 
L 213.84617 289.927604 
L 213.84617 286.095208 
L 214.835632 286.095208 
L 214.835632 282.262812 
L 215.677477 282.262812 
L 215.677477 278.430416 
L 216.786332 278.430416 
L 216.786332 274.59802 
L 217.242182 274.59802 
L 217.242182 270.765624 
L 217.467743 270.765624 
L 217.467743 266.933228 
L 217.691756 266.933228 
L 217.691756 263.100832 
L 219.058053 263.100832 
L 219.058053 259.268436 
L 224.831902 259.268436 
L 224.831902 255.43604 
L 224.966171 255.43604 
L 224.966171 251.603644 
L 226.064114 251.603644 
L 226.064114 247.771248 
L 226.493158 247.771248 
L 226.493158 243.938851 
L 229.967232 243.938851 
L 229.967232 240.106455 
L 230.64983 240.106455 
L 230.64983 236.274059 
L 232.686555 236.274059 
L 232.756996 228.609267 
L 234.101081 228.609267 
L 234.101081 224.776871 
L 234.269466 224.776871 
L 234.269466 220.944475 
L 234.537088 220.944475 
L 234.537088 213.279683 
L 234.736375 213.279683 
L 234.736375 209.447287 
L 235.196701 209.447287 
L 235.196701 205.614891 
L 235.32704 205.614891 
L 235.32704 201.782495 
L 237.252812 201.782495 
L 237.252812 197.950099 
L 238.780039 197.950099 
L 238.780039 194.117703 
L 239.100279 194.117703 
L 239.100279 190.285307 
L 239.87326 190.285307 
L 239.929796 182.620515 
L 241.013128 182.620515 
L 241.013128 178.788119 
L 241.822667 178.788119 
L 241.822667 174.955723 
L 242.061666 174.955723 
L 242.061666 171.123327 
L 242.690573 171.123327 
L 242.768342 163.458535 
L 244.162217 163.458535 
L 244.236562 155.793743 
L 244.849606 155.793743 
L 244.849606 151.961347 
L 245.091636 151.961347 
L 245.091636 148.12895 
L 245.57038 148.12895 
L 245.594134 140.464158 
L 245.712645 140.464158 
L 245.807145 132.799366 
L 246.112394 132.799366 
L 246.112394 128.96697 
L 247.819811 128.96697 
L 247.819811 125.134574 
L 248.630346 125.134574 
L 248.630346 121.302178 
L 249.736502 121.302178 
L 249.736502 117.469782 
L 250.255256 117.469782 
L 250.255256 113.637386 
L 250.988074 113.637386 
L 250.988074 109.80499 
L 252.270943 109.80499 
L 252.270943 105.972594 
L 253.092724 105.972594 
L 253.092724 102.140198 
L 253.616929 102.140198 
L 253.616929 98.307802 
L 253.857478 98.307802 
L 253.857478 94.475406 
L 254.296965 94.475406 
L 254.296965 90.64301 
L 254.51451 90.64301 
L 254.51451 86.810614 
L 255.581009 86.810614 
L 255.581009 82.978218 
L 256.118679 82.978218 
L 256.118679 79.145822 
L 256.900543 79.145822 
L 256.900543 75.313426 
L 257.118153 75.313426 
L 257.118153 71.48103 
L 258.362103 71.48103 
L 258.362103 67.648634 
L 258.777013 67.648634 
L 258.777013 63.816238 
L 259.202371 63.816238 
L 259.202371 59.983842 
L 260.052069 59.983842 
L 260.052069 56.151446 
L 262.701788 56.151446 
L 262.701788 52.31905 
L 264.360326 52.31905 
L 264.360326 48.486653 
L 266.368779 48.486653 
L 266.368779 44.654257 
L 267.891073 44.654257 
L 267.891073 40.821861 
L 268.213336 40.821861 
L 268.213336 36.989465 
L 268.77851 36.989465 
L 268.77851 33.157069 
L 279.923939 33.157069 
L 279.923939 29.324673 
L 285.911245 29.324673 
L 285.911245 25.492277 
L 290.275327 25.492277 
L 290.275327 21.659881 
L 294.349073 21.659881 
L 294.349073 17.827485 
L 297.52342 17.827485 
L 297.52342 13.995089 
L 298.683492 13.995089 
L 298.683492 10.162693 
L 311.64978 10.162693 
L 311.64978 6.330297 
L 311.64978 6.330297 
L 460.8 6.330297 
L 460.8 6.330297 
" clip-path="url(#pc0cb3f862a)" style="fill: none; stroke: #bf00bf; stroke-width: 1.5; stroke-linecap: square"/>
   </g>
   <g id="line2d_54">
    <path clip-path="url(#pc0cb3f862a)" style="fill: none; stroke: #bf00bf; stroke-width: 1.5; stroke-linecap: square"/>
   </g>
   <g id="line2d_55">
    <path d="M 237.375211 293.76 
L 237.375211 289.927604 
L 240.821312 289.927604 
L 240.821312 286.095208 
L 241.285211 286.095208 
L 241.285211 282.262812 
L 241.581906 282.262812 
L 241.581906 278.430416 
L 241.769318 278.430416 
L 241.769318 274.59802 
L 242.088114 274.59802 
L 242.11454 266.933228 
L 242.820084 266.933228 
L 242.820084 263.100832 
L 242.949084 263.100832 
L 242.949084 259.268436 
L 243.510704 259.268436 
L 243.510704 255.43604 
L 243.787932 255.43604 
L 243.787932 251.603644 
L 243.913171 251.603644 
L 243.913171 247.771248 
L 244.458586 247.771248 
L 244.556781 240.106455 
L 245.331885 240.106455 
L 245.331885 236.274059 
L 245.57038 236.274059 
L 245.57038 232.441663 
L 245.807145 232.441663 
L 245.807145 228.609267 
L 246.065618 228.609267 
L 246.065618 224.776871 
L 247.530183 224.776871 
L 247.530183 220.944475 
L 247.886285 220.944475 
L 247.886285 217.112079 
L 248.150835 217.112079 
L 248.216639 209.447287 
L 248.587044 209.447287 
L 248.587044 205.614891 
L 248.845999 205.614891 
L 248.845999 201.782495 
L 249.442358 201.782495 
L 249.442358 197.950099 
L 249.610764 197.950099 
L 249.610764 190.285307 
L 249.799189 190.285307 
L 249.840914 182.620515 
L 250.316957 182.620515 
L 250.316957 178.788119 
L 250.480923 178.788119 
L 250.480923 174.955723 
L 250.60336 174.955723 
L 250.60336 171.123327 
L 250.887272 171.123327 
L 250.988074 159.626139 
L 251.168737 159.626139 
L 251.168737 155.793743 
L 252.960347 155.793743 
L 253.036057 148.12895 
L 253.224566 148.12895 
L 253.224566 144.296554 
L 253.654052 144.296554 
L 253.654052 140.464158 
L 255.176291 140.464158 
L 255.176291 136.631762 
L 255.458364 136.631762 
L 255.510982 128.96697 
L 256.42686 128.96697 
L 256.42686 125.134574 
L 257.084769 125.134574 
L 257.084769 121.302178 
L 257.860412 121.302178 
L 257.860412 117.469782 
L 258.840379 117.469782 
L 258.840379 113.637386 
L 260.731196 113.637386 
L 260.731196 109.80499 
L 262.814083 109.80499 
L 262.814083 105.972594 
L 264.4937 105.972594 
L 264.4937 102.140198 
L 265.230686 102.140198 
L 265.230686 98.307802 
L 265.670159 98.307802 
L 265.670159 94.475406 
L 267.015823 94.475406 
L 267.015823 90.64301 
L 268.532449 90.64301 
L 268.532449 86.810614 
L 268.649852 86.810614 
L 268.649852 82.978218 
L 268.976352 82.978218 
L 268.976352 79.145822 
L 269.161468 79.145822 
L 269.161468 75.313426 
L 269.391397 75.313426 
L 269.391397 71.48103 
L 271.163913 71.48103 
L 271.163913 67.648634 
L 271.423296 67.648634 
L 271.423296 63.816238 
L 272.67982 63.816238 
L 272.67982 59.983842 
L 275.506041 59.983842 
L 275.506041 56.151446 
L 276.608168 56.151446 
L 276.608168 52.31905 
L 277.487096 52.31905 
L 277.496035 44.654257 
L 279.236375 44.654257 
L 279.236375 40.821861 
L 280.548519 40.821861 
L 280.548519 36.989465 
L 281.073381 36.989465 
L 281.073381 33.157069 
L 291.746365 33.157069 
L 291.746365 29.324673 
L 293.269958 29.324673 
L 293.269958 25.492277 
L 297.261015 25.492277 
L 297.261015 21.659881 
L 303.995531 21.659881 
L 303.995531 17.827485 
L 309.424756 17.827485 
L 309.424756 13.995089 
L 313.183201 13.995089 
L 313.183201 10.162693 
L 319.425274 10.162693 
L 319.425274 6.330297 
L 319.425274 6.330297 
L 460.8 6.330297 
L 460.8 6.330297 
" clip-path="url(#pc0cb3f862a)" style="fill: none; stroke: #ff0000; stroke-width: 3; stroke-linecap: square"/>
   </g>
   <g id="line2d_56">
    <path clip-path="url(#pc0cb3f862a)" style="fill: none; stroke: #ff0000; stroke-width: 3; stroke-linecap: square"/>
   </g>
   <g id="line2d_57">
    <path d="M 319.425274 293.76 
L 319.425274 3.456 
" clip-path="url(#pc0cb3f862a)" style="fill: none; stroke: #000000; stroke-width: 1.5; stroke-linecap: square"/>
   </g>
   <g id="patch_3">
    <path d="M 62.208 293.76 
L 62.208 3.456 
" style="fill: none; stroke: #000000; stroke-width: 0.8; stroke-linejoin: miter; stroke-linecap: square"/>
   </g>
   <g id="patch_4">
    <path d="M 460.8 293.76 
L 460.8 3.456 
" style="fill: none; stroke: #000000; stroke-width: 0.8; stroke-linejoin: miter; stroke-linecap: square"/>
   </g>
   <g id="patch_5">
    <path d="M 62.208 293.76 
L 460.8 293.76 
" style="fill: none; stroke: #000000; stroke-width: 0.8; stroke-linejoin: miter; stroke-linecap: square"/>
   </g>
   <g id="patch_6">
    <path d="M 62.208 3.456 
L 460.8 3.456 
" style="fill: none; stroke: #000000; stroke-width: 0.8; stroke-linejoin: miter; stroke-linecap: square"/>
   </g>
   <g id="text_12">
    <!-- {f10-f14}, 5-D -->
    <g transform="translate(188.654 24.458955)scale(0.2 -0.2)">
     <defs>
      <path id="DejaVuSans-7b" d="M 3272 -594 
L 3272 -1044 
L 3078 -1044 
Q 2300 -1044 2036 -812 
Q 1772 -581 1772 109 
L 1772 856 
Q 1772 1328 1603 1509 
Q 1434 1691 991 1691 
L 800 1691 
L 800 2138 
L 991 2138 
Q 1438 2138 1605 2317 
Q 1772 2497 1772 2963 
L 1772 3713 
Q 1772 4403 2036 4633 
Q 2300 4863 3078 4863 
L 3272 4863 
L 3272 4416 
L 3059 4416 
Q 2619 4416 2484 4278 
Q 2350 4141 2350 3700 
L 2350 2925 
Q 2350 2434 2208 2212 
Q 2066 1991 1722 1913 
Q 2069 1828 2209 1606 
Q 2350 1384 2350 897 
L 2350 122 
Q 2350 -319 2484 -456 
Q 2619 -594 3059 -594 
L 3272 -594 
z
" transform="scale(0.015625)"/>
      <path id="DejaVuSans-2d" d="M 313 2009 
L 1997 2009 
L 1997 1497 
L 313 1497 
L 313 2009 
z
" transform="scale(0.015625)"/>
      <path id="DejaVuSans-7d" d="M 800 -594 
L 1019 -594 
Q 1456 -594 1589 -459 
Q 1722 -325 1722 122 
L 1722 897 
Q 1722 1384 1862 1606 
Q 2003 1828 2350 1913 
Q 2003 1991 1862 2212 
Q 1722 2434 1722 2925 
L 1722 3700 
Q 1722 4144 1589 4280 
Q 1456 4416 1019 4416 
L 800 4416 
L 800 4863 
L 997 4863 
Q 1775 4863 2036 4633 
Q 2297 4403 2297 3713 
L 2297 2963 
Q 2297 2497 2465 2317 
Q 2634 2138 3078 2138 
L 3272 2138 
L 3272 1691 
L 3078 1691 
Q 2634 1691 2465 1509 
Q 2297 1328 2297 856 
L 2297 109 
Q 2297 -581 2036 -812 
Q 1775 -1044 997 -1044 
L 800 -1044 
L 800 -594 
z
" transform="scale(0.015625)"/>
      <path id="DejaVuSans-2c" d="M 750 794 
L 1409 794 
L 1409 256 
L 897 -744 
L 494 -744 
L 750 256 
L 750 794 
z
" transform="scale(0.015625)"/>
      <path id="DejaVuSans-35" d="M 691 4666 
L 3169 4666 
L 3169 4134 
L 1269 4134 
L 1269 2991 
Q 1406 3038 1543 3061 
Q 1681 3084 1819 3084 
Q 2600 3084 3056 2656 
Q 3513 2228 3513 1497 
Q 3513 744 3044 326 
Q 2575 -91 1722 -91 
Q 1428 -91 1123 -41 
Q 819 9 494 109 
L 494 744 
Q 775 591 1075 516 
Q 1375 441 1709 441 
Q 2250 441 2565 725 
Q 2881 1009 2881 1497 
Q 2881 1984 2565 2268 
Q 2250 2553 1709 2553 
Q 1456 2553 1204 2497 
Q 953 2441 691 2322 
L 691 4666 
z
" transform="scale(0.015625)"/>
     </defs>
     <use xlink:href="#DejaVuSans-7b"/>
     <use xlink:href="#DejaVuSans-66" x="63.623047"/>
     <use xlink:href="#DejaVuSans-31" x="98.828125"/>
     <use xlink:href="#DejaVuSans-30" x="162.451172"/>
     <use xlink:href="#DejaVuSans-2d" x="226.074219"/>
     <use xlink:href="#DejaVuSans-66" x="262.158203"/>
     <use xlink:href="#DejaVuSans-31" x="297.363281"/>
     <use xlink:href="#DejaVuSans-34" x="360.986328"/>
     <use xlink:href="#DejaVuSans-7d" x="424.609375"/>
     <use xlink:href="#DejaVuSans-2c" x="488.232422"/>
     <use xlink:href="#DejaVuSans-20" x="520.019531"/>
     <use xlink:href="#DejaVuSans-35" x="551.806641"/>
     <use xlink:href="#DejaVuSans-2d" x="615.429688"/>
     <use xlink:href="#DejaVuSans-44" x="651.513672"/>
    </g>
   </g>
   <g id="text_13">
    <!-- absolute targets -->
    <g transform="translate(62.208 609.932673)scale(0.14 -0.14)">
     <defs>
      <path id="DejaVuSans-62" d="M 3116 1747 
Q 3116 2381 2855 2742 
Q 2594 3103 2138 3103 
Q 1681 3103 1420 2742 
Q 1159 2381 1159 1747 
Q 1159 1113 1420 752 
Q 1681 391 2138 391 
Q 2594 391 2855 752 
Q 3116 1113 3116 1747 
z
M 1159 2969 
Q 1341 3281 1617 3432 
Q 1894 3584 2278 3584 
Q 2916 3584 3314 3078 
Q 3713 2572 3713 1747 
Q 3713 922 3314 415 
Q 2916 -91 2278 -91 
Q 1894 -91 1617 61 
Q 1341 213 1159 525 
L 1159 0 
L 581 0 
L 581 4863 
L 1159 4863 
L 1159 2969 
z
" transform="scale(0.015625)"/>
      <path id="DejaVuSans-75" d="M 544 1381 
L 544 3500 
L 1119 3500 
L 1119 1403 
Q 1119 906 1312 657 
Q 1506 409 1894 409 
Q 2359 409 2629 706 
Q 2900 1003 2900 1516 
L 2900 3500 
L 3475 3500 
L 3475 0 
L 2900 0 
L 2900 538 
Q 2691 219 2414 64 
Q 2138 -91 1772 -91 
Q 1169 -91 856 284 
Q 544 659 544 1381 
z
M 1991 3584 
L 1991 3584 
z
" transform="scale(0.015625)"/>
      <path id="DejaVuSans-65" d="M 3597 1894 
L 3597 1613 
L 953 1613 
Q 991 1019 1311 708 
Q 1631 397 2203 397 
Q 2534 397 2845 478 
Q 3156 559 3463 722 
L 3463 178 
Q 3153 47 2828 -22 
Q 2503 -91 2169 -91 
Q 1331 -91 842 396 
Q 353 884 353 1716 
Q 353 2575 817 3079 
Q 1281 3584 2069 3584 
Q 2775 3584 3186 3129 
Q 3597 2675 3597 1894 
z
M 3022 2063 
Q 3016 2534 2758 2815 
Q 2500 3097 2075 3097 
Q 1594 3097 1305 2825 
Q 1016 2553 972 2059 
L 3022 2063 
z
" transform="scale(0.015625)"/>
     </defs>
     <use xlink:href="#DejaVuSans-61"/>
     <use xlink:href="#DejaVuSans-62" x="61.279297"/>
     <use xlink:href="#DejaVuSans-73" x="124.755859"/>
     <use xlink:href="#DejaVuSans-6f" x="176.855469"/>
     <use xlink:href="#DejaVuSans-6c" x="238.037109"/>
     <use xlink:href="#DejaVuSans-75" x="265.820312"/>
     <use xlink:href="#DejaVuSans-74" x="329.199219"/>
     <use xlink:href="#DejaVuSans-65" x="368.408203"/>
     <use xlink:href="#DejaVuSans-20" x="429.931641"/>
     <use xlink:href="#DejaVuSans-74" x="461.71875"/>
     <use xlink:href="#DejaVuSans-61" x="500.927734"/>
     <use xlink:href="#DejaVuSans-72" x="562.207031"/>
     <use xlink:href="#DejaVuSans-67" x="601.570312"/>
     <use xlink:href="#DejaVuSans-65" x="665.046875"/>
     <use xlink:href="#DejaVuSans-74" x="726.570312"/>
     <use xlink:href="#DejaVuSans-73" x="765.779297"/>
    </g>
   </g>
   <g id="text_14">
    <!-- v2.6.3 -->
    <g style="fill: #808080" transform="translate(245.82275 288.777272)scale(0.1 -0.1)">
     <defs>
      <path id="DejaVuSans-33" d="M 2597 2516 
Q 3050 2419 3304 2112 
Q 3559 1806 3559 1356 
Q 3559 666 3084 287 
Q 2609 -91 1734 -91 
Q 1441 -91 1130 -33 
Q 819 25 488 141 
L 488 750 
Q 750 597 1062 519 
Q 1375 441 1716 441 
Q 2309 441 2620 675 
Q 2931 909 2931 1356 
Q 2931 1769 2642 2001 
Q 2353 2234 1838 2234 
L 1294 2234 
L 1294 2753 
L 1863 2753 
Q 2328 2753 2575 2939 
Q 2822 3125 2822 3475 
Q 2822 3834 2567 4026 
Q 2313 4219 1838 4219 
Q 1578 4219 1281 4162 
Q 984 4106 628 3988 
L 628 4550 
Q 988 4650 1302 4700 
Q 1616 4750 1894 4750 
Q 2613 4750 3031 4423 
Q 3450 4097 3450 3541 
Q 3450 3153 3228 2886 
Q 3006 2619 2597 2516 
z
" transform="scale(0.015625)"/>
     </defs>
     <use xlink:href="#DejaVuSans-76"/>
     <use xlink:href="#DejaVuSans-32" x="59.179688"/>
     <use xlink:href="#DejaVuSans-2e" x="122.802734"/>
     <use xlink:href="#DejaVuSans-36" x="154.589844"/>
     <use xlink:href="#DejaVuSans-2e" x="218.212891"/>
     <use xlink:href="#DejaVuSans-33" x="250"/>
    </g>
   </g>
   <g id="legend_1">
    <g id="patch_7">
     <path d="M 76.208 136.881 
L 205.429875 136.881 
Q 209.429875 136.881 209.429875 132.881 
L 209.429875 17.456 
Q 209.429875 13.456 205.429875 13.456 
L 76.208 13.456 
Q 72.208 13.456 72.208 17.456 
L 72.208 132.881 
Q 72.208 136.881 76.208 136.881 
z
" style="fill: #ffffff; opacity: 0.2; stroke: #cccccc; stroke-linejoin: miter"/>
    </g>
    <g id="line2d_58">
     <path d="M 80.208 29.652875 
L 80.208 29.652875 
L 100.208 29.652875 
L 100.208 29.652875 
L 120.208 29.652875 
" style="fill: none; stroke: #000000; stroke-width: 1.5; stroke-linecap: square"/>
    </g>
    <g id="text_15">
     <!-- 1: 5/5 -->
     <g transform="translate(136.208 36.652875)scale(0.2 -0.2)">
      <defs>
       <path id="DejaVuSans-3a" d="M 750 794 
L 1409 794 
L 1409 0 
L 750 0 
L 750 794 
z
M 750 3309 
L 1409 3309 
L 1409 2516 
L 750 2516 
L 750 3309 
z
" transform="scale(0.015625)"/>
      </defs>
      <use xlink:href="#DejaVuSans-31"/>
      <use xlink:href="#DejaVuSans-3a" x="63.623047"/>
      <use xlink:href="#DejaVuSans-20" x="97.314453"/>
      <use xlink:href="#DejaVuSans-35" x="129.101562"/>
      <use xlink:href="#DejaVuSans-2f" x="192.724609"/>
      <use xlink:href="#DejaVuSans-35" x="226.416016"/>
     </g>
    </g>
    <g id="line2d_59">
     <path d="M 80.208 59.009125 
L 80.208 59.009125 
L 100.208 59.009125 
L 100.208 59.009125 
L 120.208 59.009125 
" style="fill: none; stroke: #00bfbf; stroke-width: 1.5; stroke-linecap: square"/>
    </g>
    <g id="text_16">
     <!-- -1: 5/5 -->
     <g transform="translate(136.208 66.009125)scale(0.2 -0.2)">
      <use xlink:href="#DejaVuSans-2d"/>
      <use xlink:href="#DejaVuSans-31" x="36.083984"/>
      <use xlink:href="#DejaVuSans-3a" x="99.707031"/>
      <use xlink:href="#DejaVuSans-20" x="133.398438"/>
      <use xlink:href="#DejaVuSans-35" x="165.185547"/>
      <use xlink:href="#DejaVuSans-2f" x="228.808594"/>
      <use xlink:href="#DejaVuSans-35" x="262.5"/>
     </g>
    </g>
    <g id="line2d_60">
     <path d="M 80.208 88.365375 
L 80.208 88.365375 
L 100.208 88.365375 
L 100.208 88.365375 
L 120.208 88.365375 
" style="fill: none; stroke: #bf00bf; stroke-width: 1.5; stroke-linecap: square"/>
    </g>
    <g id="text_17">
     <!-- -4: 5/5 -->
     <g transform="translate(136.208 95.365375)scale(0.2 -0.2)">
      <use xlink:href="#DejaVuSans-2d"/>
      <use xlink:href="#DejaVuSans-34" x="36.083984"/>
      <use xlink:href="#DejaVuSans-3a" x="99.707031"/>
      <use xlink:href="#DejaVuSans-20" x="133.398438"/>
      <use xlink:href="#DejaVuSans-35" x="165.185547"/>
      <use xlink:href="#DejaVuSans-2f" x="228.808594"/>
      <use xlink:href="#DejaVuSans-35" x="262.5"/>
     </g>
    </g>
    <g id="line2d_61">
     <path d="M 80.208 117.721625 
L 80.208 117.721625 
L 100.208 117.721625 
L 100.208 117.721625 
L 120.208 117.721625 
" style="fill: none; stroke: #ff0000; stroke-width: 3; stroke-linecap: square"/>
    </g>
    <g id="text_18">
     <!-- -8: 5/5 -->
     <g transform="translate(136.208 124.721625)scale(0.2 -0.2)">
      <use xlink:href="#DejaVuSans-2d"/>
      <use xlink:href="#DejaVuSans-38" x="36.083984"/>
      <use xlink:href="#DejaVuSans-3a" x="99.707031"/>
      <use xlink:href="#DejaVuSans-20" x="133.398438"/>
      <use xlink:href="#DejaVuSans-35" x="165.185547"/>
      <use xlink:href="#DejaVuSans-2f" x="228.808594"/>
      <use xlink:href="#DejaVuSans-35" x="262.5"/>
     </g>
    </g>
   </g>
  </g>
 </g>
 <defs>
  <clipPath id="pc0cb3f862a">
   <rect x="62.208" y="3.456" width="398.592" height="290.304"/>
  </clipPath>
 </defs>
</svg>
