<?xml version="1.0" encoding="utf-8" standalone="no"?>
<!DOCTYPE svg PUBLIC "-//W3C//DTD SVG 1.1//EN"
  "http://www.w3.org/Graphics/SVG/1.1/DTD/svg11.dtd">
<svg xmlns:xlink="http://www.w3.org/1999/xlink" width="460.8pt" height="345.6pt" viewBox="0 0 460.8 345.6" xmlns="http://www.w3.org/2000/svg" version="1.1">
 <metadata>
  <rdf:RDF xmlns:dc="http://purl.org/dc/elements/1.1/" xmlns:cc="http://creativecommons.org/ns#" xmlns:rdf="http://www.w3.org/1999/02/22-rdf-syntax-ns#">
   <cc:Work>
    <dc:type rdf:resource="http://purl.org/dc/dcmitype/StillImage"/>
    <dc:date>2023-04-07T14:51:13.251449</dc:date>
    <dc:format>image/svg+xml</dc:format>
    <dc:creator>
     <cc:Agent>
      <dc:title>Matplotlib v3.5.2, https://matplotlib.org/</dc:title>
     </cc:Agent>
    </dc:creator>
   </cc:Work>
  </rdf:RDF>
 </metadata>
 <defs>
  <style type="text/css">*{stroke-linejoin: round; stroke-linecap: butt}</style>
 </defs>
 <g id="figure_1">
  <g id="patch_1">
   <path d="M 0 345.6 
L 460.8 345.6 
L 460.8 0 
L 0 0 
z
" style="fill: #ffffff"/>
  </g>
  <g id="axes_1">
   <g id="patch_2">
    <path d="M 62.208 293.76 
L 460.8 293.76 
L 460.8 3.456 
L 62.208 3.456 
z
" style="fill: #ffffff"/>
   </g>
   <g id="line2d_1">
    <path d="M 205.280044 293.76 
L 205.280044 289.927604 
L 208.317608 289.927604 
L 208.317608 286.095208 
L 209.270418 286.095208 
L 209.270418 282.262812 
L 210.406176 282.262812 
L 210.406176 278.430416 
L 210.545408 278.430416 
L 210.545408 274.59802 
L 210.822102 274.59802 
L 210.822102 270.765624 
L 214.591063 270.765624 
L 214.591063 266.933228 
L 216.265776 266.933228 
L 216.265776 263.100832 
L 218.518376 263.100832 
L 218.518376 259.268436 
L 221.827509 259.268436 
L 221.827509 255.43604 
L 222.748646 255.43604 
L 222.748646 251.603644 
L 228.316714 251.603644 
L 228.316714 247.771248 
L 234.703245 247.771248 
L 234.703245 243.938851 
L 239.187075 243.938851 
L 239.187075 240.106455 
L 239.844955 240.106455 
L 239.844955 236.274059 
L 240.462065 236.274059 
L 240.462065 232.441663 
L 241.094991 232.441663 
L 241.094991 228.609267 
L 241.339357 228.609267 
L 241.339357 224.776871 
L 243.712558 224.776871 
L 243.712558 220.944475 
L 244.483162 220.944475 
L 244.483162 217.112079 
L 255.668331 217.112079 
L 255.668331 213.279683 
L 256.511951 213.279683 
L 256.511951 209.447287 
L 257.549069 209.447287 
L 257.549069 205.614891 
L 259.745641 205.614891 
L 259.745641 201.782495 
L 267.614022 201.782495 
L 267.614022 197.950099 
L 271.109614 197.950099 
L 271.109614 194.117703 
L 273.77979 194.117703 
L 273.77979 190.285307 
L 283.578128 190.285307 
L 283.578128 186.452911 
L 283.578128 186.452911 
L 283.578128 186.452911 
L 460.8 186.452911 
" clip-path="url(#p8221c13804)" style="fill: none; stroke: #f5deb3; stroke-width: 1.5; stroke-linecap: square"/>
   </g>
   <g id="line2d_2">
    <path d="M 269.05747 293.76 
L 269.05747 282.262812 
L 284.376916 282.262812 
L 284.376916 270.765624 
L 295.814555 270.765624 
L 295.814555 259.268436 
L 332.463376 259.268436 
L 332.463376 247.771248 
L 359.072192 247.771248 
L 359.072192 236.274059 
L 359.072192 236.274059 
L 359.072192 236.274059 
L 460.8 236.274059 
" clip-path="url(#p8221c13804)" style="fill: none; stroke: #f5deb3; stroke-width: 1.5; stroke-linecap: square"/>
   </g>
   <g id="line2d_3">
    <path d="M 173.037827 293.76 
L 173.037827 289.927604 
L 176.956373 289.927604 
L 176.956373 286.095208 
L 207.792802 286.095208 
L 207.792802 282.262812 
L 209.052994 282.262812 
L 209.052994 278.430416 
L 210.959575 278.430416 
L 210.959575 274.59802 
L 216.49816 274.59802 
L 216.49816 270.765624 
L 219.851203 270.765624 
L 219.851203 266.933228 
L 222.748646 266.933228 
L 222.748646 263.100832 
L 225.188733 263.100832 
L 225.188733 259.268436 
L 225.585562 259.268436 
L 225.585562 255.43604 
L 229.270058 255.43604 
L 229.270058 251.603644 
L 231.097094 251.603644 
L 231.097094 247.771248 
L 236.477247 247.771248 
L 236.477247 243.938851 
L 238.040321 243.938851 
L 238.040321 240.106455 
L 243.762827 240.106455 
L 243.762827 236.274059 
L 250.60336 236.274059 
L 250.60336 232.441663 
L 257.974373 232.441663 
L 257.974373 228.609267 
L 267.089663 228.609267 
L 267.089663 224.776871 
L 267.638207 224.776871 
L 267.638207 220.944475 
L 269.368477 220.944475 
L 269.368477 217.112079 
L 272.61761 217.112079 
L 272.61761 213.279683 
L 276.182939 213.279683 
L 276.182939 209.447287 
L 276.937136 209.447287 
L 276.937136 205.614891 
L 288.024023 205.614891 
L 288.024023 201.782495 
L 290.880025 201.782495 
L 290.880025 197.950099 
L 315.964377 197.950099 
L 315.964377 194.117703 
L 317.957509 194.117703 
L 317.957509 190.285307 
L 318.437982 190.285307 
L 318.437982 186.452911 
L 327.292612 186.452911 
L 327.292612 182.620515 
L 341.131488 182.620515 
L 341.131488 178.788119 
L 341.131488 178.788119 
L 341.131488 178.788119 
L 460.8 178.788119 
" clip-path="url(#p8221c13804)" style="fill: none; stroke: #f5deb3; stroke-width: 1.5; stroke-linecap: square"/>
   </g>
   <g id="line2d_4">
    <path d="M 198.29913 293.76 
L 198.29913 289.927604 
L 215.259267 289.927604 
L 215.259267 286.095208 
L 215.31934 286.095208 
L 215.31934 282.262812 
L 217.635896 282.262812 
L 217.635896 278.430416 
L 243.460045 278.430416 
L 243.460045 274.59802 
L 244.409378 274.59802 
L 244.409378 270.765624 
L 247.930525 270.765624 
L 247.930525 266.933228 
L 248.150835 266.933228 
L 248.150835 263.100832 
L 251.427943 263.100832 
L 251.427943 259.268436 
L 260.686358 259.268436 
L 260.686358 255.43604 
L 261.904719 255.43604 
L 261.904719 251.603644 
L 264.480387 251.603644 
L 264.480387 247.771248 
L 264.573463 247.771248 
L 264.573463 243.938851 
L 267.855069 243.938851 
L 267.855069 240.106455 
L 268.473589 240.106455 
L 268.473589 236.274059 
L 269.687904 236.274059 
L 269.687904 232.441663 
L 273.69957 232.441663 
L 273.69957 228.609267 
L 286.213751 228.609267 
L 286.213751 224.776871 
L 294.967267 224.776871 
L 294.967267 220.944475 
L 295.347132 220.944475 
L 295.347132 217.112079 
L 299.785697 217.112079 
L 299.785697 213.279683 
L 301.268828 213.279683 
L 301.268828 209.447287 
L 309.615798 209.447287 
L 309.615798 205.614891 
L 312.370252 205.614891 
L 312.370252 201.782495 
L 315.557409 201.782495 
L 315.557409 197.950099 
L 318.707228 197.950099 
L 318.707228 194.117703 
L 329.115467 194.117703 
L 329.115467 190.285307 
L 333.145058 190.285307 
L 333.145058 186.452911 
L 346.257979 186.452911 
L 346.257979 182.620515 
L 347.008631 182.620515 
L 347.008631 178.788119 
L 348.451925 178.788119 
L 348.451925 174.955723 
L 351.097364 174.955723 
L 351.097364 171.123327 
L 356.208909 171.123327 
L 356.208909 167.290931 
L 356.208909 167.290931 
L 356.208909 167.290931 
L 460.8 167.290931 
" clip-path="url(#p8221c13804)" style="fill: none; stroke: #f5deb3; stroke-width: 1.5; stroke-linecap: square"/>
   </g>
   <g id="line2d_5">
    <path d="M 289.849561 293.76 
L 289.849561 289.927604 
L 289.849561 289.927604 
L 289.849561 289.927604 
L 460.8 289.927604 
" clip-path="url(#p8221c13804)" style="fill: none; stroke: #f5deb3; stroke-width: 1.5; stroke-linecap: square"/>
   </g>
   <g id="line2d_6"/>
   <g id="line2d_7">
    <path d="M 218.080117 293.76 
L 218.080117 289.927604 
L 223.783739 289.927604 
L 223.783739 286.095208 
L 225.453821 286.095208 
L 225.453821 282.262812 
L 228.915808 282.262812 
L 228.915808 278.430416 
L 236.130074 278.430416 
L 236.130074 274.59802 
L 283.20507 274.59802 
L 283.20507 270.765624 
L 295.284991 270.765624 
L 295.284991 266.933228 
L 298.265111 266.933228 
L 298.265111 263.100832 
L 298.98107 263.100832 
L 298.98107 259.268436 
L 302.575753 259.268436 
L 302.575753 255.43604 
L 311.612078 255.43604 
L 311.612078 251.603644 
L 313.650208 251.603644 
L 313.650208 247.771248 
L 314.705064 247.771248 
L 314.705064 243.938851 
L 314.893247 243.938851 
L 314.893247 240.106455 
L 316.142723 240.106455 
L 316.142723 236.274059 
L 317.67415 236.274059 
L 317.67415 232.441663 
L 321.699972 232.441663 
L 321.699972 228.609267 
L 322.731365 228.609267 
L 322.731365 224.776871 
L 323.802666 224.776871 
L 323.802666 220.944475 
L 329.104431 220.944475 
L 329.104431 217.112079 
L 330.439981 217.112079 
L 330.439981 213.279683 
L 331.758678 213.279683 
L 331.758678 209.447287 
L 335.419433 209.447287 
L 335.419433 205.614891 
L 338.445162 205.614891 
L 338.445162 201.782495 
L 341.584016 201.782495 
L 341.584016 197.950099 
L 351.448169 197.950099 
L 351.448169 194.117703 
L 351.564888 194.117703 
L 351.564888 190.285307 
L 355.966584 190.285307 
L 355.966584 186.452911 
L 369.546548 186.452911 
L 369.546548 182.620515 
L 371.448158 182.620515 
L 371.448158 178.788119 
L 372.926032 178.788119 
L 372.926032 174.955723 
L 379.1668 174.955723 
L 379.1668 171.123327 
L 381.274313 171.123327 
L 381.274313 167.290931 
L 381.865611 167.290931 
L 381.865611 163.458535 
L 389.823484 163.458535 
L 389.823484 159.626139 
L 391.923685 159.626139 
L 391.923685 155.793743 
L 397.19278 155.793743 
L 397.19278 151.961347 
L 401.645652 151.961347 
L 401.645652 148.12895 
L 404.703481 148.12895 
L 404.703481 144.296554 
L 405.788944 144.296554 
L 405.788944 140.464158 
L 407.588696 140.464158 
L 407.588696 136.631762 
L 409.978956 136.631762 
L 409.978956 132.799366 
L 416.892246 132.799366 
L 416.892246 128.96697 
L 419.407917 128.96697 
L 419.407917 125.134574 
L 422.040716 125.134574 
L 422.040716 121.302178 
L 422.222508 121.302178 
L 422.222508 117.469782 
L 425.462036 117.469782 
L 425.462036 113.637386 
L 425.612102 113.637386 
L 425.612102 109.80499 
L 428.633391 109.80499 
L 428.633391 105.972594 
L 436.617329 105.972594 
L 436.617329 102.140198 
L 455.29241 102.140198 
L 455.29241 98.307802 
L 456.636602 98.307802 
L 456.636602 94.475406 
L 461.8 94.475406 
" clip-path="url(#p8221c13804)" style="fill: none; stroke: #f5deb3; stroke-width: 1.5; stroke-linecap: square"/>
   </g>
   <g id="line2d_8">
    <path d="M 327.226425 293.76 
L 327.226425 289.927604 
L 332.9265 289.927604 
L 332.9265 286.095208 
L 335.281167 286.095208 
L 335.281167 282.262812 
L 337.324701 282.262812 
L 337.324701 278.430416 
L 337.846836 278.430416 
L 337.846836 274.59802 
L 338.638071 274.59802 
L 338.638071 270.765624 
L 342.115687 270.765624 
L 342.115687 266.933228 
L 362.457622 266.933228 
L 362.457622 263.100832 
L 362.612911 263.100832 
L 362.612911 259.268436 
L 362.629387 259.268436 
L 362.629387 255.43604 
L 363.423507 255.43604 
L 363.423507 251.603644 
L 364.134024 251.603644 
L 364.134024 247.771248 
L 364.718964 247.771248 
L 364.718964 243.938851 
L 387.676282 243.938851 
L 387.676282 240.106455 
L 388.022613 240.106455 
L 388.022613 236.274059 
L 388.064664 236.274059 
L 388.064664 232.441663 
L 388.828134 232.441663 
L 388.828134 228.609267 
L 389.078218 228.609267 
L 389.078218 224.776871 
L 396.733283 224.776871 
L 396.733283 220.944475 
L 397.425574 220.944475 
L 397.425574 217.112079 
L 416.848204 217.112079 
L 416.848204 213.279683 
L 416.907872 213.279683 
L 416.907872 209.447287 
L 417.191705 209.447287 
L 417.191705 205.614891 
L 420.199445 205.614891 
L 420.199445 201.782495 
L 431.594166 201.782495 
L 431.594166 197.950099 
L 438.092132 197.950099 
L 438.092132 194.117703 
L 438.092132 194.117703 
L 438.092132 194.117703 
L 460.8 194.117703 
" clip-path="url(#p8221c13804)" style="fill: none; stroke: #f5deb3; stroke-width: 1.5; stroke-linecap: square"/>
   </g>
   <g id="line2d_9">
    <path d="M 210.336337 293.76 
L 210.336337 289.927604 
L 214.282754 289.927604 
L 214.282754 286.095208 
L 224.831902 286.095208 
L 224.831902 282.262812 
L 225.673094 282.262812 
L 225.673094 278.430416 
L 257.499638 278.430416 
L 257.499638 274.59802 
L 261.352551 274.59802 
L 261.352551 270.765624 
L 265.243697 270.765624 
L 265.243697 266.933228 
L 268.225211 266.933228 
L 268.225211 263.100832 
L 273.224252 263.100832 
L 273.224252 259.268436 
L 285.605911 259.268436 
L 285.605911 255.43604 
L 286.709534 255.43604 
L 286.709534 251.603644 
L 286.736484 251.603644 
L 286.736484 247.771248 
L 296.300514 247.771248 
L 296.300514 243.938851 
L 298.809364 243.938851 
L 298.809364 240.106455 
L 307.812435 240.106455 
L 307.812435 236.274059 
L 311.410263 236.274059 
L 311.410263 232.441663 
L 313.567408 232.441663 
L 313.567408 228.609267 
L 314.881873 228.609267 
L 314.881873 224.776871 
L 318.29996 224.776871 
L 318.29996 220.944475 
L 320.41961 220.944475 
L 320.41961 217.112079 
L 323.290101 217.112079 
L 323.290101 213.279683 
L 323.292299 213.279683 
L 323.292299 209.447287 
L 325.727132 209.447287 
L 325.727132 205.614891 
L 330.246918 205.614891 
L 330.246918 201.782495 
L 332.446773 201.782495 
L 332.446773 197.950099 
L 334.688077 197.950099 
L 334.688077 194.117703 
L 337.642099 194.117703 
L 337.642099 190.285307 
L 344.768938 190.285307 
L 344.768938 186.452911 
L 346.01009 186.452911 
L 346.01009 182.620515 
L 347.223742 182.620515 
L 347.223742 178.788119 
L 353.982711 178.788119 
L 353.982711 174.955723 
L 355.656436 174.955723 
L 355.656436 171.123327 
L 359.935749 171.123327 
L 359.935749 167.290931 
L 369.328852 167.290931 
L 369.328852 163.458535 
L 369.468623 163.458535 
L 369.468623 159.626139 
L 370.814892 159.626139 
L 370.814892 155.793743 
L 374.025378 155.793743 
L 374.025378 151.961347 
L 376.443324 151.961347 
L 376.443324 148.12895 
L 377.412811 148.12895 
L 377.412811 144.296554 
L 377.561622 144.296554 
L 377.561622 140.464158 
L 381.269474 140.464158 
L 381.269474 136.631762 
L 381.474701 136.631762 
L 381.474701 132.799366 
L 383.853826 132.799366 
L 383.853826 128.96697 
L 384.659991 128.96697 
L 384.659991 125.134574 
L 391.917505 125.134574 
L 391.917505 121.302178 
L 393.914865 121.302178 
L 393.914865 117.469782 
L 393.962345 117.469782 
L 393.962345 113.637386 
L 394.194707 113.637386 
L 394.194707 109.80499 
L 394.222259 109.80499 
L 394.222259 105.972594 
L 395.020124 105.972594 
L 395.020124 102.140198 
L 396.100302 102.140198 
L 396.100302 98.307802 
L 396.824037 98.307802 
L 396.824037 94.475406 
L 396.882476 94.475406 
L 396.882476 90.64301 
L 398.1781 90.64301 
L 398.1781 86.810614 
L 399.063178 86.810614 
L 399.063178 82.978218 
L 399.262034 82.978218 
L 399.262034 79.145822 
L 404.413786 79.145822 
L 404.413786 75.313426 
L 408.034211 75.313426 
L 408.034211 71.48103 
L 420.137354 71.48103 
L 420.137354 67.648634 
L 424.468536 67.648634 
L 424.468536 63.816238 
L 433.625666 63.816238 
L 433.625666 59.983842 
L 461.8 59.983842 
" clip-path="url(#p8221c13804)" style="fill: none; stroke: #f5deb3; stroke-width: 1.5; stroke-linecap: square"/>
   </g>
   <g id="line2d_10">
    <path d="M 313.141231 293.76 
L 313.141231 289.927604 
L 327.306222 289.927604 
L 327.306222 286.095208 
L 331.185485 286.095208 
L 331.185485 282.262812 
L 334.203836 282.262812 
L 334.203836 278.430416 
L 343.755924 278.430416 
L 343.755924 274.59802 
L 345.790114 274.59802 
L 345.790114 270.765624 
L 346.873329 270.765624 
L 346.873329 266.933228 
L 347.689351 266.933228 
L 347.689351 263.100832 
L 350.691502 263.100832 
L 350.691502 259.268436 
L 375.437046 259.268436 
L 375.437046 255.43604 
L 382.70357 255.43604 
L 382.70357 251.603644 
L 385.679785 251.603644 
L 385.679785 247.771248 
L 389.41964 247.771248 
L 389.41964 243.938851 
L 392.587134 243.938851 
L 392.587134 240.106455 
L 394.293287 240.106455 
L 394.293287 236.274059 
L 394.448062 236.274059 
L 394.448062 232.441663 
L 411.911344 232.441663 
L 411.911344 228.609267 
L 418.993293 228.609267 
L 418.993293 224.776871 
L 422.0389 224.776871 
L 422.0389 220.944475 
L 422.0389 220.944475 
L 422.0389 220.944475 
L 460.8 220.944475 
" clip-path="url(#p8221c13804)" style="fill: none; stroke: #f5deb3; stroke-width: 1.5; stroke-linecap: square"/>
   </g>
   <g id="line2d_11">
    <path d="M 266.393904 293.76 
L 266.393904 289.927604 
L 293.88168 289.927604 
L 293.88168 286.095208 
L 306.283309 286.095208 
L 306.283309 282.262812 
L 312.163812 282.262812 
L 312.163812 278.430416 
L 314.986934 278.430416 
L 314.986934 274.59802 
L 317.947153 274.59802 
L 317.947153 270.765624 
L 319.06197 270.765624 
L 319.06197 266.933228 
L 320.127867 266.933228 
L 320.127867 263.100832 
L 328.409017 263.100832 
L 328.409017 259.268436 
L 329.851938 259.268436 
L 329.851938 255.43604 
L 329.902246 255.43604 
L 329.902246 251.603644 
L 331.907593 251.603644 
L 331.907593 247.771248 
L 337.334711 247.771248 
L 337.334711 243.938851 
L 337.711429 243.938851 
L 337.711429 240.106455 
L 340.285639 240.106455 
L 340.285639 236.274059 
L 340.882335 236.274059 
L 340.882335 232.441663 
L 341.3598 232.441663 
L 341.3598 228.609267 
L 341.741805 228.609267 
L 341.741805 224.776871 
L 342.445014 224.776871 
L 342.445014 220.944475 
L 346.339469 220.944475 
L 346.339469 217.112079 
L 356.363346 217.112079 
L 356.363346 213.279683 
L 356.921353 213.279683 
L 356.921353 209.447287 
L 358.715369 209.447287 
L 358.715369 205.614891 
L 362.297599 205.614891 
L 362.297599 201.782495 
L 363.446649 201.782495 
L 363.446649 197.950099 
L 365.109697 197.950099 
L 365.109697 194.117703 
L 373.466151 194.117703 
L 373.466151 190.285307 
L 374.475866 190.285307 
L 374.475866 186.452911 
L 374.573816 186.452911 
L 374.573816 182.620515 
L 376.877197 182.620515 
L 376.877197 178.788119 
L 380.499898 178.788119 
L 380.499898 174.955723 
L 398.22686 174.955723 
L 398.22686 171.123327 
L 436.787388 171.123327 
L 436.787388 167.290931 
L 445.744928 167.290931 
L 445.744928 163.458535 
L 447.478068 163.458535 
L 447.478068 159.626139 
L 447.982909 159.626139 
L 447.982909 155.793743 
L 448.254856 155.793743 
L 448.254856 151.961347 
L 461.8 151.961347 
" clip-path="url(#p8221c13804)" style="fill: none; stroke: #f5deb3; stroke-width: 1.5; stroke-linecap: square"/>
   </g>
   <g id="line2d_12">
    <path d="M 213.276131 293.76 
L 213.276131 289.927604 
L 216.207421 289.927604 
L 216.207421 286.095208 
L 217.579941 286.095208 
L 217.579941 282.262812 
L 229.542953 282.262812 
L 229.542953 278.430416 
L 229.775062 278.430416 
L 229.775062 274.59802 
L 242.298928 274.59802 
L 242.298928 270.765624 
L 243.988085 270.765624 
L 243.988085 266.933228 
L 245.163896 266.933228 
L 245.163896 263.100832 
L 245.877841 263.100832 
L 245.877841 259.268436 
L 249.986533 259.268436 
L 249.986533 255.43604 
L 255.685767 255.43604 
L 255.685767 251.603644 
L 257.417084 251.603644 
L 257.417084 247.771248 
L 258.681731 247.771248 
L 258.681731 243.938851 
L 260.264871 243.938851 
L 260.264871 240.106455 
L 260.355649 240.106455 
L 260.355649 236.274059 
L 260.536451 236.274059 
L 260.536451 232.441663 
L 262.120134 232.441663 
L 262.120134 228.609267 
L 265.77271 228.609267 
L 265.77271 224.776871 
L 272.731571 224.776871 
L 272.731571 220.944475 
L 279.890734 220.944475 
L 279.890734 217.112079 
L 287.303971 217.112079 
L 287.303971 213.279683 
L 291.086988 213.279683 
L 291.086988 209.447287 
L 294.285001 209.447287 
L 294.285001 205.614891 
L 296.455905 205.614891 
L 296.455905 201.782495 
L 306.786442 201.782495 
L 306.786442 197.950099 
L 311.273965 197.950099 
L 311.273965 194.117703 
L 316.347305 194.117703 
L 316.347305 190.285307 
L 316.929437 190.285307 
L 316.929437 186.452911 
L 327.210832 186.452911 
L 327.210832 182.620515 
L 327.62925 182.620515 
L 327.62925 178.788119 
L 327.62925 178.788119 
L 327.62925 178.788119 
L 460.8 178.788119 
" clip-path="url(#p8221c13804)" style="fill: none; stroke: #f5deb3; stroke-width: 1.5; stroke-linecap: square"/>
   </g>
   <g id="line2d_13">
    <path d="M 266.531746 293.76 
L 266.531746 289.927604 
L 277.82507 289.927604 
L 277.82507 286.095208 
L 282.106213 286.095208 
L 282.106213 282.262812 
L 283.077252 282.262812 
L 283.077252 278.430416 
L 287.49535 278.430416 
L 287.49535 274.59802 
L 291.051601 274.59802 
L 291.051601 270.765624 
L 293.978933 270.765624 
L 293.978933 266.933228 
L 294.210092 266.933228 
L 294.210092 263.100832 
L 294.210092 263.100832 
L 294.210092 259.268436 
L 296.285436 259.268436 
L 296.285436 255.43604 
L 308.14273 255.43604 
L 308.14273 251.603644 
L 308.14273 251.603644 
L 308.14273 251.603644 
L 460.8 251.603644 
" clip-path="url(#p8221c13804)" style="fill: none; stroke: #f5deb3; stroke-width: 1.5; stroke-linecap: square"/>
   </g>
   <g id="line2d_14">
    <path d="M 183.614054 293.76 
L 183.614054 289.927604 
L 192.808079 289.927604 
L 192.808079 286.095208 
L 241.662357 286.095208 
L 241.662357 282.262812 
L 272.834828 282.262812 
L 272.834828 278.430416 
L 280.458856 278.430416 
L 280.458856 274.59802 
L 284.304442 274.59802 
L 284.304442 270.765624 
L 285.332865 270.765624 
L 285.332865 266.933228 
L 291.549365 266.933228 
L 291.549365 263.100832 
L 292.296269 263.100832 
L 292.296269 259.268436 
L 296.340686 259.268436 
L 296.340686 255.43604 
L 298.599307 255.43604 
L 298.599307 251.603644 
L 299.050425 251.603644 
L 299.050425 247.771248 
L 299.303471 247.771248 
L 299.303471 243.938851 
L 300.978414 243.938851 
L 300.978414 240.106455 
L 303.475365 240.106455 
L 303.475365 236.274059 
L 306.706167 236.274059 
L 306.706167 232.441663 
L 309.825658 232.441663 
L 309.825658 228.609267 
L 325.520416 228.609267 
L 325.520416 224.776871 
L 325.983194 224.776871 
L 325.983194 220.944475 
L 327.140571 220.944475 
L 327.140571 217.112079 
L 327.884245 217.112079 
L 327.884245 213.279683 
L 336.817331 213.279683 
L 336.817331 209.447287 
L 339.842438 209.447287 
L 339.842438 205.614891 
L 343.575724 205.614891 
L 343.575724 201.782495 
L 345.702814 201.782495 
L 345.702814 197.950099 
L 348.535228 197.950099 
L 348.535228 194.117703 
L 357.231431 194.117703 
L 357.231431 190.285307 
L 357.231431 190.285307 
L 357.231431 190.285307 
L 460.8 190.285307 
" clip-path="url(#p8221c13804)" style="fill: none; stroke: #f5deb3; stroke-width: 1.5; stroke-linecap: square"/>
   </g>
   <g id="line2d_15">
    <path d="M 372.767504 293.76 
L 372.767504 289.927604 
L 374.245398 289.927604 
L 374.245398 286.095208 
L 376.568676 286.095208 
L 376.568676 282.262812 
L 379.239775 282.262812 
L 379.239775 278.430416 
L 381.371692 278.430416 
L 381.371692 274.59802 
L 384.701575 274.59802 
L 384.701575 270.765624 
L 387.000212 270.765624 
L 387.000212 266.933228 
L 390.832468 266.933228 
L 390.832468 263.100832 
L 396.076419 263.100832 
L 396.076419 259.268436 
L 398.682332 259.268436 
L 398.682332 255.43604 
L 398.945101 255.43604 
L 398.945101 251.603644 
L 403.001695 251.603644 
L 403.001695 247.771248 
L 403.682972 247.771248 
L 403.682972 243.938851 
L 403.727353 243.938851 
L 403.727353 240.106455 
L 404.307518 240.106455 
L 404.307518 236.274059 
L 405.171417 236.274059 
L 405.171417 232.441663 
L 406.914414 232.441663 
L 406.914414 228.609267 
L 409.91523 228.609267 
L 409.91523 224.776871 
L 414.512694 224.776871 
L 414.512694 220.944475 
L 414.512694 220.944475 
L 414.512694 220.944475 
L 460.8 220.944475 
" clip-path="url(#p8221c13804)" style="fill: none; stroke: #f5deb3; stroke-width: 1.5; stroke-linecap: square"/>
   </g>
   <g id="line2d_16">
    <path d="M 271.40176 293.76 
L 271.40176 289.927604 
L 337.949426 289.927604 
L 337.949426 286.095208 
L 359.46511 286.095208 
L 359.46511 282.262812 
L 360.202988 282.262812 
L 360.202988 278.430416 
L 366.844203 278.430416 
L 366.844203 274.59802 
L 372.874559 274.59802 
L 372.874559 270.765624 
L 387.13767 270.765624 
L 387.13767 266.933228 
L 394.829483 266.933228 
L 394.829483 263.100832 
L 395.834483 263.100832 
L 395.834483 259.268436 
L 397.645449 259.268436 
L 397.645449 255.43604 
L 403.754289 255.43604 
L 403.754289 251.603644 
L 407.562915 251.603644 
L 407.562915 247.771248 
L 409.897266 247.771248 
L 409.897266 243.938851 
L 411.008666 243.938851 
L 411.008666 240.106455 
L 412.380279 240.106455 
L 412.380279 236.274059 
L 412.55082 236.274059 
L 412.55082 232.441663 
L 416.291966 232.441663 
L 416.291966 228.609267 
L 416.50763 228.609267 
L 416.50763 224.776871 
L 418.399005 224.776871 
L 418.399005 220.944475 
L 422.627169 220.944475 
L 422.627169 217.112079 
L 422.852541 217.112079 
L 422.852541 213.279683 
L 428.939486 213.279683 
L 428.939486 209.447287 
L 431.755722 209.447287 
L 431.755722 205.614891 
L 432.889984 205.614891 
L 432.889984 201.782495 
L 438.298606 201.782495 
L 438.298606 197.950099 
L 441.055921 197.950099 
L 441.055921 194.117703 
L 442.102833 194.117703 
L 442.102833 190.285307 
L 443.094136 190.285307 
L 443.094136 186.452911 
L 444.023126 186.452911 
L 444.023126 182.620515 
L 444.260887 182.620515 
L 444.260887 178.788119 
L 445.002089 178.788119 
L 445.002089 174.955723 
L 450.906324 174.955723 
L 450.906324 171.123327 
L 454.220859 171.123327 
L 454.220859 167.290931 
L 458.369374 167.290931 
L 458.369374 163.458535 
L 461.8 163.458535 
" clip-path="url(#p8221c13804)" style="fill: none; stroke: #f5deb3; stroke-width: 1.5; stroke-linecap: square"/>
   </g>
   <g id="line2d_17">
    <path d="M 279.193978 293.76 
L 279.193978 289.927604 
L 281.145394 289.927604 
L 281.145394 286.095208 
L 296.645382 286.095208 
L 296.645382 282.262812 
L 355.818373 282.262812 
L 355.818373 278.430416 
L 387.07883 278.430416 
L 387.07883 274.59802 
L 387.07883 274.59802 
L 387.07883 274.59802 
L 460.8 274.59802 
" clip-path="url(#p8221c13804)" style="fill: none; stroke: #f5deb3; stroke-width: 1.5; stroke-linecap: square"/>
   </g>
   <g id="line2d_18">
    <path d="M 191.959986 293.76 
L 191.959986 289.927604 
L 207.412708 289.927604 
L 207.412708 286.095208 
L 213.84617 286.095208 
L 213.84617 282.262812 
L 215.199083 282.262812 
L 215.199083 278.430416 
L 215.4989 278.430416 
L 215.4989 274.59802 
L 225.453821 274.59802 
L 225.453821 270.765624 
L 231.574814 270.765624 
L 231.574814 266.933228 
L 232.756996 266.933228 
L 232.756996 263.100832 
L 235.131336 263.100832 
L 235.131336 259.268436 
L 238.456626 259.268436 
L 238.456626 255.43604 
L 245.52282 255.43604 
L 245.52282 251.603644 
L 246.252322 251.603644 
L 246.252322 247.771248 
L 247.641883 247.771248 
L 247.641883 243.938851 
L 248.128871 243.938851 
L 248.128871 240.106455 
L 257.680523 240.106455 
L 257.680523 236.274059 
L 259.124018 236.274059 
L 259.124018 232.441663 
L 259.467374 232.441663 
L 259.467374 228.609267 
L 259.868557 228.609267 
L 259.868557 224.776871 
L 260.686358 224.776871 
L 260.686358 220.944475 
L 270.228326 220.944475 
L 270.228326 217.112079 
L 270.825796 217.112079 
L 270.825796 213.279683 
L 275.544017 213.279683 
L 275.544017 209.447287 
L 278.001555 209.447287 
L 278.001555 205.614891 
L 283.451766 205.614891 
L 283.451766 201.782495 
L 291.855938 201.782495 
L 291.855938 197.950099 
L 294.972501 197.950099 
L 294.972501 194.117703 
L 297.653835 194.117703 
L 297.653835 190.285307 
L 301.41522 190.285307 
L 301.41522 186.452911 
L 314.736503 186.452911 
L 314.736503 182.620515 
L 319.955457 182.620515 
L 319.955457 178.788119 
L 319.955457 178.788119 
L 319.955457 178.788119 
L 460.8 178.788119 
" clip-path="url(#p8221c13804)" style="fill: none; stroke: #f5deb3; stroke-width: 1.5; stroke-linecap: square"/>
   </g>
   <g id="line2d_19">
    <path d="M 311.580626 293.76 
L 311.580626 289.553712 
L 314.558903 289.553712 
L 314.558903 285.347423 
L 317.409375 285.347423 
L 317.409375 281.141135 
L 320.943465 281.141135 
L 320.943465 276.934847 
L 321.808271 276.934847 
L 321.808271 272.728558 
L 322.078597 272.728558 
L 322.078597 268.52227 
L 324.739145 268.52227 
L 324.739145 264.315982 
L 324.862982 264.315982 
L 324.862982 260.109693 
L 325.46699 260.109693 
L 325.46699 255.903405 
L 326.8087 255.903405 
L 326.8087 251.697117 
L 328.497226 251.697117 
L 328.497226 247.490828 
L 329.07314 247.490828 
L 329.07314 243.28454 
L 329.214628 243.28454 
L 329.214628 239.078252 
L 329.564783 239.078252 
L 329.564783 234.871963 
L 331.297491 234.871963 
L 331.297491 230.665675 
L 336.982515 230.665675 
L 336.982515 226.459387 
L 338.228856 226.459387 
L 338.228856 222.253098 
L 342.861713 222.253098 
L 342.861713 218.04681 
L 346.18719 218.04681 
L 346.18719 213.840522 
L 347.226911 213.840522 
L 347.226911 209.634233 
L 347.850344 209.634233 
L 347.850344 205.427945 
L 348.157652 205.427945 
L 348.159705 197.015368 
L 350.385198 197.015368 
L 350.447455 188.602792 
L 351.626783 188.602792 
L 351.626783 184.396503 
L 354.132635 184.396503 
L 354.132635 180.190215 
L 356.696923 180.190215 
L 356.696923 175.983927 
L 357.763449 175.983927 
L 357.763449 171.777638 
L 357.901584 171.777638 
L 357.901584 167.57135 
L 365.777639 167.57135 
L 365.777639 163.365062 
L 367.161739 163.365062 
L 367.188109 154.952485 
L 368.264659 154.952485 
L 368.264659 150.746197 
L 369.503872 150.746197 
L 369.503872 146.539908 
L 370.738911 146.539908 
L 370.738911 142.33362 
L 371.030066 142.33362 
L 371.030066 138.127332 
L 373.236037 138.127332 
L 373.236037 133.921043 
L 373.588847 133.921043 
L 373.588847 129.714755 
L 374.557816 129.714755 
L 374.557816 125.508467 
L 374.735203 125.508467 
L 374.735203 121.302178 
L 383.574722 121.302178 
L 383.574722 117.09589 
L 384.730049 117.09589 
L 384.730049 112.889602 
L 389.419059 112.889602 
L 389.419059 108.683313 
L 417.096539 108.683313 
L 417.096539 104.477025 
L 417.096539 104.477025 
L 460.8 104.477025 
L 460.8 104.477025 
" clip-path="url(#p8221c13804)" style="fill: none; stroke: #f5deb3; stroke-width: 1.5; stroke-linecap: square"/>
   </g>
   <g id="line2d_20">
    <path d="M 188.052971 293.76 
L 188.052971 289.927604 
L 188.052971 289.927604 
L 188.052971 286.095208 
L 191.465283 286.095208 
L 191.465283 282.262812 
L 193.282993 282.262812 
L 193.282993 278.430416 
L 204.032131 278.430416 
L 204.032131 274.59802 
L 218.950829 274.59802 
L 218.950829 270.765624 
L 222.700808 270.765624 
L 222.700808 266.933228 
L 228.437415 266.933228 
L 228.437415 263.100832 
L 235.489234 263.100832 
L 235.489234 259.268436 
L 243.536004 259.268436 
L 243.536004 255.43604 
L 244.630234 255.43604 
L 244.630234 251.603644 
L 246.322062 251.603644 
L 246.322062 247.771248 
L 247.641883 247.771248 
L 247.641883 243.938851 
L 250.440009 243.938851 
L 250.440009 240.106455 
L 250.521786 240.106455 
L 250.521786 236.274059 
L 256.032555 236.274059 
L 256.032555 232.441663 
L 258.633986 232.441663 
L 258.633986 228.609267 
L 259.218019 228.609267 
L 259.218019 224.776871 
L 259.807157 224.776871 
L 259.807157 220.944475 
L 260.641458 220.944475 
L 260.641458 217.112079 
L 263.25944 217.112079 
L 263.25944 213.279683 
L 266.318472 213.279683 
L 266.318472 209.447287 
L 271.466327 209.447287 
L 271.466327 205.614891 
L 271.477076 205.614891 
L 271.477076 201.782495 
L 272.803885 201.782495 
L 272.803885 197.950099 
L 281.833448 197.950099 
L 281.833448 194.117703 
L 282.774517 194.117703 
L 282.774517 190.285307 
L 284.027562 190.285307 
L 284.027562 186.452911 
L 300.127112 186.452911 
L 300.127112 182.620515 
L 301.531007 182.620515 
L 301.531007 178.788119 
L 383.054049 178.788119 
L 383.054049 174.955723 
L 383.054049 174.955723 
L 383.054049 174.955723 
L 460.8 174.955723 
" clip-path="url(#p8221c13804)" style="fill: none; stroke: #f5deb3; stroke-width: 1.5; stroke-linecap: square"/>
   </g>
   <g id="line2d_21">
    <path d="M 330.434682 293.76 
L 330.434682 289.927604 
L 347.542207 289.927604 
L 347.542207 286.095208 
L 353.281416 286.095208 
L 353.281416 282.262812 
L 353.281416 282.262812 
L 353.281416 282.262812 
L 460.8 282.262812 
" clip-path="url(#p8221c13804)" style="fill: none; stroke: #f5deb3; stroke-width: 1.5; stroke-linecap: square"/>
   </g>
   <g id="line2d_22">
    <path d="M 175.969901 293.76 
L 175.969901 289.927604 
L 180.974254 289.927604 
L 180.974254 286.095208 
L 187.494842 286.095208 
L 187.494842 282.262812 
L 188.328497 282.262812 
L 188.328497 278.430416 
L 193.282993 278.430416 
L 193.282993 274.59802 
L 195.99595 274.59802 
L 195.99595 270.765624 
L 237.037504 270.765624 
L 237.037504 266.933228 
L 257.549069 266.933228 
L 257.549069 263.100832 
L 259.218019 263.100832 
L 259.218019 259.268436 
L 262.305685 259.268436 
L 262.305685 255.43604 
L 264.253234 255.43604 
L 264.253234 251.603644 
L 270.39539 251.603644 
L 270.39539 247.771248 
L 273.193676 247.771248 
L 273.193676 243.938851 
L 279.506418 243.938851 
L 279.506418 240.106455 
L 283.092316 240.106455 
L 283.092316 236.274059 
L 286.931208 236.274059 
L 286.931208 232.441663 
L 303.089933 232.441663 
L 303.089933 228.609267 
L 303.563978 228.609267 
L 303.563978 224.776871 
L 306.279607 224.776871 
L 306.279607 220.944475 
L 307.346485 220.944475 
L 307.346485 217.112079 
L 309.944975 217.112079 
L 309.944975 213.279683 
L 317.548584 213.279683 
L 317.548584 209.447287 
L 325.802533 209.447287 
L 325.802533 205.614891 
L 331.104256 205.614891 
L 331.104256 201.782495 
L 331.794276 201.782495 
L 331.794276 197.950099 
L 332.401902 197.950099 
L 332.401902 194.117703 
L 343.706556 194.117703 
L 343.706556 190.285307 
L 352.271053 190.285307 
L 352.271053 186.452911 
L 357.670011 186.452911 
L 357.670011 182.620515 
L 365.938195 182.620515 
L 365.938195 178.788119 
L 368.534114 178.788119 
L 368.534114 174.955723 
L 372.168902 174.955723 
L 372.168902 171.123327 
L 377.099182 171.123327 
L 377.099182 167.290931 
L 379.935111 167.290931 
L 379.935111 163.458535 
L 382.113243 163.458535 
L 382.113243 159.626139 
L 392.217051 159.626139 
L 392.217051 155.793743 
L 393.170469 155.793743 
L 393.170469 151.961347 
L 396.327141 151.961347 
L 396.327141 148.12895 
L 405.532675 148.12895 
L 405.532675 144.296554 
L 418.790183 144.296554 
L 418.790183 140.464158 
L 420.761899 140.464158 
L 420.761899 136.631762 
L 422.367153 136.631762 
L 422.367153 132.799366 
L 427.900905 132.799366 
L 427.900905 128.96697 
L 428.014233 128.96697 
L 428.014233 125.134574 
L 428.014233 125.134574 
L 428.014233 125.134574 
L 460.8 125.134574 
" clip-path="url(#p8221c13804)" style="fill: none; stroke: #f5deb3; stroke-width: 1.5; stroke-linecap: square"/>
   </g>
   <g id="line2d_23">
    <path d="M 273.325964 293.76 
L 273.325964 289.927604 
L 278.447322 289.927604 
L 278.447322 286.095208 
L 280.791812 286.095208 
L 280.791812 282.262812 
L 281.423943 282.262812 
L 281.423943 278.430416 
L 282.622091 278.430416 
L 282.622091 274.59802 
L 285.014949 274.59802 
L 285.014949 270.765624 
L 297.309768 270.765624 
L 297.309768 266.933228 
L 300.464994 266.933228 
L 300.464994 263.100832 
L 300.645831 263.100832 
L 300.645831 259.268436 
L 301.981649 259.268436 
L 301.981649 255.43604 
L 308.023647 255.43604 
L 308.023647 251.603644 
L 310.319961 251.603644 
L 310.319961 247.771248 
L 315.465347 247.771248 
L 315.465347 243.938851 
L 320.627777 243.938851 
L 320.627777 240.106455 
L 322.75372 240.106455 
L 322.75372 236.274059 
L 326.783031 236.274059 
L 326.783031 232.441663 
L 337.632183 232.441663 
L 337.632183 228.609267 
L 337.661923 228.609267 
L 337.661923 224.776871 
L 339.900647 224.776871 
L 339.900647 220.944475 
L 343.857949 220.944475 
L 343.857949 217.112079 
L 357.463809 217.112079 
L 357.463809 213.279683 
L 357.463809 213.279683 
L 357.463809 213.279683 
L 460.8 213.279683 
" clip-path="url(#p8221c13804)" style="fill: none; stroke: #f5deb3; stroke-width: 1.5; stroke-linecap: square"/>
   </g>
   <g id="line2d_24">
    <path d="M 238.574601 293.76 
L 238.574601 289.927604 
L 239.674608 289.927604 
L 239.674608 286.095208 
L 244.873889 286.095208 
L 244.873889 282.262812 
L 245.759929 282.262812 
L 245.759929 278.430416 
L 250.725339 278.430416 
L 250.725339 274.59802 
L 251.467639 274.59802 
L 251.467639 270.765624 
L 258.919415 270.765624 
L 258.919415 266.933228 
L 278.43864 266.933228 
L 278.43864 263.100832 
L 299.974815 263.100832 
L 299.974815 259.268436 
L 300.724907 259.268436 
L 300.724907 255.43604 
L 301.83778 255.43604 
L 301.83778 251.603644 
L 302.942678 251.603644 
L 302.942678 247.771248 
L 304.417537 247.771248 
L 304.417537 243.938851 
L 305.111537 243.938851 
L 305.111537 240.106455 
L 305.298971 240.106455 
L 305.298971 236.274059 
L 307.45378 236.274059 
L 307.45378 232.441663 
L 314.644959 232.441663 
L 314.644959 228.609267 
L 315.235458 228.609267 
L 315.235458 224.776871 
L 316.13725 224.776871 
L 316.13725 220.944475 
L 323.951648 220.944475 
L 323.951648 217.112079 
L 328.435317 217.112079 
L 328.435317 213.279683 
L 329.346377 213.279683 
L 329.346377 209.447287 
L 330.394033 209.447287 
L 330.394033 205.614891 
L 330.538727 205.614891 
L 330.538727 201.782495 
L 332.628943 201.782495 
L 332.628943 197.950099 
L 337.93118 197.950099 
L 337.93118 194.117703 
L 339.328637 194.117703 
L 339.328637 190.285307 
L 339.851706 190.285307 
L 339.851706 186.452911 
L 344.666298 186.452911 
L 344.666298 182.620515 
L 347.694557 182.620515 
L 347.694557 178.788119 
L 349.131408 178.788119 
L 349.131408 174.955723 
L 352.701649 174.955723 
L 352.701649 171.123327 
L 354.004171 171.123327 
L 354.004171 167.290931 
L 357.666943 167.290931 
L 357.666943 163.458535 
L 362.691265 163.458535 
L 362.691265 159.626139 
L 363.875653 159.626139 
L 363.875653 155.793743 
L 368.211388 155.793743 
L 368.211388 151.961347 
L 381.153861 151.961347 
L 381.153861 148.12895 
L 383.162083 148.12895 
L 383.162083 144.296554 
L 385.158506 144.296554 
L 385.158506 140.464158 
L 393.755758 140.464158 
L 393.755758 136.631762 
L 396.888707 136.631762 
L 396.888707 132.799366 
L 412.165518 132.799366 
L 412.165518 128.96697 
L 414.580004 128.96697 
L 414.580004 125.134574 
L 415.614716 125.134574 
L 415.614716 121.302178 
L 415.871543 121.302178 
L 415.871543 117.469782 
L 416.296932 117.469782 
L 416.296932 113.637386 
L 417.972976 113.637386 
L 417.972976 109.80499 
L 418.391959 109.80499 
L 418.391959 105.972594 
L 420.461882 105.972594 
L 420.461882 102.140198 
L 433.183197 102.140198 
L 433.183197 98.307802 
L 433.65112 98.307802 
L 433.65112 94.475406 
L 437.074975 94.475406 
L 437.074975 90.64301 
L 446.696051 90.64301 
L 446.696051 86.810614 
L 448.126468 86.810614 
L 448.126468 82.978218 
L 461.8 82.978218 
" clip-path="url(#p8221c13804)" style="fill: none; stroke: #f5deb3; stroke-width: 1.5; stroke-linecap: square"/>
   </g>
   <g id="line2d_25">
    <path d="M 346.565487 293.76 
L 346.565487 289.927604 
L 348.789911 289.927604 
L 348.789911 286.095208 
L 352.065902 286.095208 
L 352.065902 282.262812 
L 352.920602 282.262812 
L 352.920602 278.430416 
L 352.947204 278.430416 
L 352.947204 274.59802 
L 353.642624 274.59802 
L 353.642624 270.765624 
L 353.774245 270.765624 
L 353.774245 266.933228 
L 354.27677 266.933228 
L 354.27677 263.100832 
L 355.20134 263.100832 
L 355.20134 259.268436 
L 356.174401 259.268436 
L 356.174401 255.43604 
L 356.548029 255.43604 
L 356.548029 251.603644 
L 356.598792 251.603644 
L 356.598792 247.771248 
L 356.64552 247.771248 
L 356.64552 243.938851 
L 356.700084 243.938851 
L 356.700084 240.106455 
L 357.01852 240.106455 
L 357.01852 236.274059 
L 357.45609 236.274059 
L 357.45609 232.441663 
L 357.668477 232.441663 
L 357.668477 228.609267 
L 358.179133 228.609267 
L 358.179133 224.776871 
L 359.075866 224.776871 
L 359.075866 220.944475 
L 359.405527 220.944475 
L 359.405527 217.112079 
L 360.414511 217.112079 
L 360.414511 213.279683 
L 360.496909 213.279683 
L 360.496909 209.447287 
L 362.038308 209.447287 
L 362.038308 205.614891 
L 362.202942 205.614891 
L 362.202942 201.782495 
L 371.43357 201.782495 
L 371.43357 197.950099 
L 372.35091 197.950099 
L 372.35091 194.117703 
L 373.17408 194.117703 
L 373.17408 190.285307 
L 373.448653 190.285307 
L 373.448653 186.452911 
L 373.865106 186.452911 
L 373.865106 182.620515 
L 374.313189 182.620515 
L 374.313189 178.788119 
L 374.332993 178.788119 
L 374.332993 174.955723 
L 374.574273 174.955723 
L 374.574273 171.123327 
L 375.15677 171.123327 
L 375.15677 167.290931 
L 375.163952 167.290931 
L 375.163952 163.458535 
L 375.242852 163.458535 
L 375.242852 159.626139 
L 376.451955 159.626139 
L 376.451955 155.793743 
L 376.720519 155.793743 
L 376.720519 151.961347 
L 376.720519 151.961347 
L 376.720519 151.961347 
L 460.8 151.961347 
" clip-path="url(#p8221c13804)" style="fill: none; stroke: #f5deb3; stroke-width: 1.5; stroke-linecap: square"/>
   </g>
   <g id="line2d_26">
    <path d="M 251.427943 293.76 
L 251.427943 289.927604 
L 252.617465 289.927604 
L 252.617465 286.095208 
L 252.90345 286.095208 
L 252.90345 282.262812 
L 253.280908 282.262812 
L 253.280908 278.430416 
L 253.430677 278.430416 
L 253.430677 274.59802 
L 254.27877 274.59802 
L 254.27877 270.765624 
L 254.89176 270.765624 
L 254.89176 266.933228 
L 255.10539 266.933228 
L 255.10539 263.100832 
L 257.729682 263.100832 
L 257.729682 259.268436 
L 265.477003 259.268436 
L 265.477003 255.43604 
L 266.230246 255.43604 
L 266.230246 251.603644 
L 267.15107 251.603644 
L 267.15107 247.771248 
L 267.492827 247.771248 
L 267.492827 243.938851 
L 269.92544 243.938851 
L 269.92544 240.106455 
L 276.377753 240.106455 
L 276.377753 236.274059 
L 276.982564 236.274059 
L 276.982564 232.441663 
L 277.000718 232.441663 
L 277.000718 228.609267 
L 277.460264 228.609267 
L 277.460264 224.776871 
L 278.878519 224.776871 
L 278.878519 220.944475 
L 279.092 220.944475 
L 279.092 217.112079 
L 279.849179 217.112079 
L 279.849179 213.279683 
L 289.00614 213.279683 
L 289.00614 209.447287 
L 291.222281 209.447287 
L 291.222281 205.614891 
L 291.30436 205.614891 
L 291.30436 201.782495 
L 292.079705 201.782495 
L 292.079705 197.950099 
L 293.374543 197.950099 
L 293.374543 194.117703 
L 297.788533 194.117703 
L 297.788533 190.285307 
L 297.956128 190.285307 
L 297.956128 186.452911 
L 300.667815 186.452911 
L 300.667815 182.620515 
L 301.505312 182.620515 
L 301.505312 178.788119 
L 309.682567 178.788119 
L 309.682567 174.955723 
L 310.668046 174.955723 
L 310.668046 171.123327 
L 313.923724 171.123327 
L 313.923724 167.290931 
L 316.178276 167.290931 
L 316.178276 163.458535 
L 331.741712 163.458535 
L 331.741712 159.626139 
L 333.564996 159.626139 
L 333.564996 155.793743 
L 355.285608 155.793743 
L 355.285608 151.961347 
L 355.580481 151.961347 
L 355.580481 148.12895 
L 368.556652 148.12895 
L 368.556652 144.296554 
L 372.285778 144.296554 
L 372.285778 140.464158 
L 374.805616 140.464158 
L 374.805616 136.631762 
L 375.209253 136.631762 
L 375.209253 132.799366 
L 377.75954 132.799366 
L 377.75954 128.96697 
L 378.11575 128.96697 
L 378.11575 125.134574 
L 378.451074 125.134574 
L 378.451074 121.302178 
L 380.421283 121.302178 
L 380.421283 117.469782 
L 381.835256 117.469782 
L 381.835256 113.637386 
L 381.897033 113.637386 
L 381.897033 109.80499 
L 381.952496 109.80499 
L 381.952496 105.972594 
L 386.844288 105.972594 
L 386.844288 102.140198 
L 386.844288 102.140198 
L 386.844288 102.140198 
L 460.8 102.140198 
" clip-path="url(#p8221c13804)" style="fill: none; stroke: #f5deb3; stroke-width: 1.5; stroke-linecap: square"/>
   </g>
   <g id="line2d_27">
    <path d="M 206.403242 293.76 
L 206.403242 289.927604 
L 214.096361 289.927604 
L 214.096361 286.095208 
L 243.485384 286.095208 
L 243.485384 282.262812 
L 254.315149 282.262812 
L 254.315149 278.430416 
L 274.659198 278.430416 
L 274.659198 274.59802 
L 287.587339 274.59802 
L 287.587339 270.765624 
L 291.936441 270.765624 
L 291.936441 266.933228 
L 292.753152 266.933228 
L 292.753152 263.100832 
L 293.093054 263.100832 
L 293.093054 259.268436 
L 300.176233 259.268436 
L 300.176233 255.43604 
L 302.401155 255.43604 
L 302.401155 251.603644 
L 302.409491 251.603644 
L 302.409491 247.771248 
L 304.880551 247.771248 
L 304.880551 243.938851 
L 307.50373 243.938851 
L 307.50373 240.106455 
L 309.602428 240.106455 
L 309.602428 236.274059 
L 311.900018 236.274059 
L 311.900018 232.441663 
L 311.996473 232.441663 
L 311.996473 228.609267 
L 313.293863 228.609267 
L 313.293863 224.776871 
L 316.219251 224.776871 
L 316.219251 220.944475 
L 319.887213 220.944475 
L 319.887213 217.112079 
L 324.189898 217.112079 
L 324.189898 213.279683 
L 327.070159 213.279683 
L 327.070159 209.447287 
L 327.403273 209.447287 
L 327.403273 205.614891 
L 337.547061 205.614891 
L 337.547061 201.782495 
L 337.917138 201.782495 
L 337.917138 197.950099 
L 338.885798 197.950099 
L 338.885798 194.117703 
L 341.200149 194.117703 
L 341.200149 190.285307 
L 343.239768 190.285307 
L 343.239768 186.452911 
L 344.138917 186.452911 
L 344.138917 182.620515 
L 348.243756 182.620515 
L 348.243756 178.788119 
L 404.385188 178.788119 
L 404.385188 174.955723 
L 404.385188 174.955723 
L 404.385188 174.955723 
L 460.8 174.955723 
" clip-path="url(#p8221c13804)" style="fill: none; stroke: #f5deb3; stroke-width: 1.5; stroke-linecap: square"/>
   </g>
   <g id="line2d_28">
    <path d="M 219.746557 293.76 
L 219.746557 289.927604 
L 220.266468 289.927604 
L 220.266468 286.095208 
L 227.084501 286.095208 
L 227.084501 282.262812 
L 234.86856 282.262812 
L 234.86856 278.430416 
L 250.64407 278.430416 
L 250.64407 274.59802 
L 270.328667 274.59802 
L 270.328667 270.765624 
L 282.051842 270.765624 
L 282.051842 266.933228 
L 301.0784 266.933228 
L 301.0784 263.100832 
L 302.991837 263.100832 
L 302.991837 259.268436 
L 304.667368 259.268436 
L 304.667368 255.43604 
L 304.694578 255.43604 
L 304.694578 251.603644 
L 306.198076 251.603644 
L 306.198076 247.771248 
L 306.508289 247.771248 
L 306.508289 243.938851 
L 308.583739 243.938851 
L 308.583739 240.106455 
L 312.767122 240.106455 
L 312.767122 236.274059 
L 313.906147 236.274059 
L 313.906147 232.441663 
L 328.1221 232.441663 
L 328.1221 228.609267 
L 329.104431 228.609267 
L 329.104431 224.776871 
L 329.595606 224.776871 
L 329.595606 220.944475 
L 329.873508 220.944475 
L 329.873508 217.112079 
L 330.429383 217.112079 
L 330.429383 213.279683 
L 331.302651 213.279683 
L 331.302651 209.447287 
L 332.183319 209.447287 
L 332.183319 205.614891 
L 332.597549 205.614891 
L 332.597549 201.782495 
L 333.133677 201.782495 
L 333.133677 197.950099 
L 336.98396 197.950099 
L 336.98396 194.117703 
L 337.056143 194.117703 
L 337.056143 190.285307 
L 340.654523 190.285307 
L 340.654523 186.452911 
L 341.553874 186.452911 
L 341.553874 182.620515 
L 341.669267 182.620515 
L 341.669267 178.788119 
L 344.594258 178.788119 
L 344.594258 174.955723 
L 344.828095 174.955723 
L 344.828095 171.123327 
L 355.116854 171.123327 
L 355.116854 167.290931 
L 358.475302 167.290931 
L 358.475302 163.458535 
L 361.320628 163.458535 
L 361.320628 159.626139 
L 362.887967 159.626139 
L 362.887967 155.793743 
L 363.511489 155.793743 
L 363.511489 151.961347 
L 365.669761 151.961347 
L 365.669761 148.12895 
L 372.667366 148.12895 
L 372.667366 144.296554 
L 377.806349 144.296554 
L 377.806349 140.464158 
L 380.330221 140.464158 
L 380.330221 136.631762 
L 381.478031 136.631762 
L 381.478031 132.799366 
L 383.613552 132.799366 
L 383.613552 128.96697 
L 400.599702 128.96697 
L 400.599702 125.134574 
L 410.642033 125.134574 
L 410.642033 121.302178 
L 420.845865 121.302178 
L 420.845865 117.469782 
L 424.831748 117.469782 
L 424.831748 113.637386 
L 438.438441 113.637386 
L 438.438441 109.80499 
L 439.22715 109.80499 
L 439.22715 105.972594 
L 448.311363 105.972594 
L 448.311363 102.140198 
L 448.91546 102.140198 
L 448.91546 98.307802 
L 449.520966 98.307802 
L 449.520966 94.475406 
L 449.606144 94.475406 
L 449.606144 90.64301 
L 451.801615 90.64301 
L 451.801615 86.810614 
L 461.8 86.810614 
" clip-path="url(#p8221c13804)" style="fill: none; stroke: #f5deb3; stroke-width: 1.5; stroke-linecap: square"/>
   </g>
   <g id="line2d_29">
    <path d="M 216.440219 293.76 
L 216.440219 289.927604 
L 216.440219 289.927604 
L 216.440219 286.095208 
L 216.440219 286.095208 
L 216.440219 282.262812 
L 239.331225 282.262812 
L 239.331225 278.430416 
L 239.331225 278.430416 
L 239.331225 274.59802 
L 239.331225 274.59802 
L 239.331225 270.765624 
L 244.137398 270.765624 
L 244.137398 266.933228 
L 244.137398 266.933228 
L 244.137398 263.100832 
L 244.137398 263.100832 
L 244.137398 259.268436 
L 272.772913 259.268436 
L 272.772913 255.43604 
L 272.772913 255.43604 
L 272.772913 251.603644 
L 272.772913 251.603644 
L 272.772913 247.771248 
L 303.84035 247.771248 
L 303.84035 243.938851 
L 303.84035 243.938851 
L 303.84035 240.106455 
L 303.84035 240.106455 
L 303.84035 236.274059 
L 316.260174 236.274059 
L 316.260174 232.441663 
L 316.260174 232.441663 
L 316.260174 228.609267 
L 316.260174 228.609267 
L 316.260174 224.776871 
L 322.75819 224.776871 
L 322.75819 220.944475 
L 322.75819 220.944475 
L 322.75819 217.112079 
L 322.75819 217.112079 
L 322.75819 213.279683 
L 324.833639 213.279683 
L 324.833639 209.447287 
L 325.520416 209.447287 
L 325.520416 205.614891 
L 334.418726 205.614891 
L 334.418726 201.782495 
L 335.310084 201.782495 
L 335.310084 197.950099 
L 335.522371 197.950099 
L 335.522371 194.117703 
L 342.304105 194.117703 
L 342.304105 190.285307 
L 344.733621 190.285307 
L 344.733621 186.452911 
L 347.842054 186.452911 
L 347.842054 182.620515 
L 360.04362 182.620515 
L 360.04362 178.788119 
L 360.04362 178.788119 
L 360.04362 178.788119 
L 460.8 178.788119 
" clip-path="url(#p8221c13804)" style="fill: none; stroke: #f5deb3; stroke-width: 1.5; stroke-linecap: square"/>
   </g>
   <g id="line2d_30">
    <path d="M 296.635437 293.76 
L 296.635437 289.927604 
L 298.674149 289.927604 
L 298.674149 286.095208 
L 333.07997 286.095208 
L 333.07997 282.262812 
L 342.618171 282.262812 
L 342.618171 278.430416 
L 356.018259 278.430416 
L 356.018259 274.59802 
L 360.691164 274.59802 
L 360.691164 270.765624 
L 361.70585 270.765624 
L 361.70585 266.933228 
L 361.969801 266.933228 
L 361.969801 263.100832 
L 362.238971 263.100832 
L 362.238971 259.268436 
L 362.520487 259.268436 
L 362.520487 255.43604 
L 362.520487 255.43604 
L 362.520487 255.43604 
L 460.8 255.43604 
" clip-path="url(#p8221c13804)" style="fill: none; stroke: #f5deb3; stroke-width: 1.5; stroke-linecap: square"/>
   </g>
   <g id="matplotlib.axis_1">
    <g id="xtick_1">
     <g id="line2d_31">
      <path d="M 62.208 293.76 
L 62.208 3.456 
" clip-path="url(#p8221c13804)" style="fill: none; stroke: #b0b0b0; stroke-width: 0.8; stroke-linecap: square"/>
     </g>
     <g id="line2d_32">
      <defs>
       <path id="m8be569b9a7" d="M 0 0 
L 0 3.5 
" style="stroke: #000000; stroke-width: 0.8"/>
      </defs>
      <g>
       <use xlink:href="#m8be569b9a7" x="62.208" y="293.76" style="stroke: #000000; stroke-width: 0.8"/>
      </g>
     </g>
     <g id="text_1">
      <!-- 0 -->
      <g transform="translate(55.8455 315.956875)scale(0.2 -0.2)">
       <defs>
        <path id="DejaVuSans-30" d="M 2034 4250 
Q 1547 4250 1301 3770 
Q 1056 3291 1056 2328 
Q 1056 1369 1301 889 
Q 1547 409 2034 409 
Q 2525 409 2770 889 
Q 3016 1369 3016 2328 
Q 3016 3291 2770 3770 
Q 2525 4250 2034 4250 
z
M 2034 4750 
Q 2819 4750 3233 4129 
Q 3647 3509 3647 2328 
Q 3647 1150 3233 529 
Q 2819 -91 2034 -91 
Q 1250 -91 836 529 
Q 422 1150 422 2328 
Q 422 3509 836 4129 
Q 1250 4750 2034 4750 
z
" transform="scale(0.015625)"/>
       </defs>
       <use xlink:href="#DejaVuSans-30"/>
      </g>
     </g>
    </g>
    <g id="xtick_2">
     <g id="line2d_33">
      <path d="M 212.565624 293.76 
L 212.565624 3.456 
" clip-path="url(#p8221c13804)" style="fill: none; stroke: #b0b0b0; stroke-width: 0.8; stroke-linecap: square"/>
     </g>
     <g id="line2d_34">
      <g>
       <use xlink:href="#m8be569b9a7" x="212.565624" y="293.76" style="stroke: #000000; stroke-width: 0.8"/>
      </g>
     </g>
     <g id="text_2">
      <!-- 2 -->
      <g transform="translate(206.203124 315.956875)scale(0.2 -0.2)">
       <defs>
        <path id="DejaVuSans-32" d="M 1228 531 
L 3431 531 
L 3431 0 
L 469 0 
L 469 531 
Q 828 903 1448 1529 
Q 2069 2156 2228 2338 
Q 2531 2678 2651 2914 
Q 2772 3150 2772 3378 
Q 2772 3750 2511 3984 
Q 2250 4219 1831 4219 
Q 1534 4219 1204 4116 
Q 875 4013 500 3803 
L 500 4441 
Q 881 4594 1212 4672 
Q 1544 4750 1819 4750 
Q 2544 4750 2975 4387 
Q 3406 4025 3406 3419 
Q 3406 3131 3298 2873 
Q 3191 2616 2906 2266 
Q 2828 2175 2409 1742 
Q 1991 1309 1228 531 
z
" transform="scale(0.015625)"/>
       </defs>
       <use xlink:href="#DejaVuSans-32"/>
      </g>
     </g>
    </g>
    <g id="xtick_3">
     <g id="line2d_35">
      <path d="M 362.923247 293.76 
L 362.923247 3.456 
" clip-path="url(#p8221c13804)" style="fill: none; stroke: #b0b0b0; stroke-width: 0.8; stroke-linecap: square"/>
     </g>
     <g id="line2d_36">
      <g>
       <use xlink:href="#m8be569b9a7" x="362.923247" y="293.76" style="stroke: #000000; stroke-width: 0.8"/>
      </g>
     </g>
     <g id="text_3">
      <!-- 4 -->
      <g transform="translate(356.560747 315.956875)scale(0.2 -0.2)">
       <defs>
        <path id="DejaVuSans-34" d="M 2419 4116 
L 825 1625 
L 2419 1625 
L 2419 4116 
z
M 2253 4666 
L 3047 4666 
L 3047 1625 
L 3713 1625 
L 3713 1100 
L 3047 1100 
L 3047 0 
L 2419 0 
L 2419 1100 
L 313 1100 
L 313 1709 
L 2253 4666 
z
" transform="scale(0.015625)"/>
       </defs>
       <use xlink:href="#DejaVuSans-34"/>
      </g>
     </g>
    </g>
    <g id="text_4">
     <!-- log10 of FEvals / DIM -->
     <g transform="translate(156.430563 339.313125)scale(0.2 -0.2)">
      <defs>
       <path id="DejaVuSans-6c" d="M 603 4863 
L 1178 4863 
L 1178 0 
L 603 0 
L 603 4863 
z
" transform="scale(0.015625)"/>
       <path id="DejaVuSans-6f" d="M 1959 3097 
Q 1497 3097 1228 2736 
Q 959 2375 959 1747 
Q 959 1119 1226 758 
Q 1494 397 1959 397 
Q 2419 397 2687 759 
Q 2956 1122 2956 1747 
Q 2956 2369 2687 2733 
Q 2419 3097 1959 3097 
z
M 1959 3584 
Q 2709 3584 3137 3096 
Q 3566 2609 3566 1747 
Q 3566 888 3137 398 
Q 2709 -91 1959 -91 
Q 1206 -91 779 398 
Q 353 888 353 1747 
Q 353 2609 779 3096 
Q 1206 3584 1959 3584 
z
" transform="scale(0.015625)"/>
       <path id="DejaVuSans-67" d="M 2906 1791 
Q 2906 2416 2648 2759 
Q 2391 3103 1925 3103 
Q 1463 3103 1205 2759 
Q 947 2416 947 1791 
Q 947 1169 1205 825 
Q 1463 481 1925 481 
Q 2391 481 2648 825 
Q 2906 1169 2906 1791 
z
M 3481 434 
Q 3481 -459 3084 -895 
Q 2688 -1331 1869 -1331 
Q 1566 -1331 1297 -1286 
Q 1028 -1241 775 -1147 
L 775 -588 
Q 1028 -725 1275 -790 
Q 1522 -856 1778 -856 
Q 2344 -856 2625 -561 
Q 2906 -266 2906 331 
L 2906 616 
Q 2728 306 2450 153 
Q 2172 0 1784 0 
Q 1141 0 747 490 
Q 353 981 353 1791 
Q 353 2603 747 3093 
Q 1141 3584 1784 3584 
Q 2172 3584 2450 3431 
Q 2728 3278 2906 2969 
L 2906 3500 
L 3481 3500 
L 3481 434 
z
" transform="scale(0.015625)"/>
       <path id="DejaVuSans-31" d="M 794 531 
L 1825 531 
L 1825 4091 
L 703 3866 
L 703 4441 
L 1819 4666 
L 2450 4666 
L 2450 531 
L 3481 531 
L 3481 0 
L 794 0 
L 794 531 
z
" transform="scale(0.015625)"/>
       <path id="DejaVuSans-20" transform="scale(0.015625)"/>
       <path id="DejaVuSans-66" d="M 2375 4863 
L 2375 4384 
L 1825 4384 
Q 1516 4384 1395 4259 
Q 1275 4134 1275 3809 
L 1275 3500 
L 2222 3500 
L 2222 3053 
L 1275 3053 
L 1275 0 
L 697 0 
L 697 3053 
L 147 3053 
L 147 3500 
L 697 3500 
L 697 3744 
Q 697 4328 969 4595 
Q 1241 4863 1831 4863 
L 2375 4863 
z
" transform="scale(0.015625)"/>
       <path id="DejaVuSans-46" d="M 628 4666 
L 3309 4666 
L 3309 4134 
L 1259 4134 
L 1259 2759 
L 3109 2759 
L 3109 2228 
L 1259 2228 
L 1259 0 
L 628 0 
L 628 4666 
z
" transform="scale(0.015625)"/>
       <path id="DejaVuSans-45" d="M 628 4666 
L 3578 4666 
L 3578 4134 
L 1259 4134 
L 1259 2753 
L 3481 2753 
L 3481 2222 
L 1259 2222 
L 1259 531 
L 3634 531 
L 3634 0 
L 628 0 
L 628 4666 
z
" transform="scale(0.015625)"/>
       <path id="DejaVuSans-76" d="M 191 3500 
L 800 3500 
L 1894 563 
L 2988 3500 
L 3597 3500 
L 2284 0 
L 1503 0 
L 191 3500 
z
" transform="scale(0.015625)"/>
       <path id="DejaVuSans-61" d="M 2194 1759 
Q 1497 1759 1228 1600 
Q 959 1441 959 1056 
Q 959 750 1161 570 
Q 1363 391 1709 391 
Q 2188 391 2477 730 
Q 2766 1069 2766 1631 
L 2766 1759 
L 2194 1759 
z
M 3341 1997 
L 3341 0 
L 2766 0 
L 2766 531 
Q 2569 213 2275 61 
Q 1981 -91 1556 -91 
Q 1019 -91 701 211 
Q 384 513 384 1019 
Q 384 1609 779 1909 
Q 1175 2209 1959 2209 
L 2766 2209 
L 2766 2266 
Q 2766 2663 2505 2880 
Q 2244 3097 1772 3097 
Q 1472 3097 1187 3025 
Q 903 2953 641 2809 
L 641 3341 
Q 956 3463 1253 3523 
Q 1550 3584 1831 3584 
Q 2591 3584 2966 3190 
Q 3341 2797 3341 1997 
z
" transform="scale(0.015625)"/>
       <path id="DejaVuSans-73" d="M 2834 3397 
L 2834 2853 
Q 2591 2978 2328 3040 
Q 2066 3103 1784 3103 
Q 1356 3103 1142 2972 
Q 928 2841 928 2578 
Q 928 2378 1081 2264 
Q 1234 2150 1697 2047 
L 1894 2003 
Q 2506 1872 2764 1633 
Q 3022 1394 3022 966 
Q 3022 478 2636 193 
Q 2250 -91 1575 -91 
Q 1294 -91 989 -36 
Q 684 19 347 128 
L 347 722 
Q 666 556 975 473 
Q 1284 391 1588 391 
Q 1994 391 2212 530 
Q 2431 669 2431 922 
Q 2431 1156 2273 1281 
Q 2116 1406 1581 1522 
L 1381 1569 
Q 847 1681 609 1914 
Q 372 2147 372 2553 
Q 372 3047 722 3315 
Q 1072 3584 1716 3584 
Q 2034 3584 2315 3537 
Q 2597 3491 2834 3397 
z
" transform="scale(0.015625)"/>
       <path id="DejaVuSans-2f" d="M 1625 4666 
L 2156 4666 
L 531 -594 
L 0 -594 
L 1625 4666 
z
" transform="scale(0.015625)"/>
       <path id="DejaVuSans-44" d="M 1259 4147 
L 1259 519 
L 2022 519 
Q 2988 519 3436 956 
Q 3884 1394 3884 2338 
Q 3884 3275 3436 3711 
Q 2988 4147 2022 4147 
L 1259 4147 
z
M 628 4666 
L 1925 4666 
Q 3281 4666 3915 4102 
Q 4550 3538 4550 2338 
Q 4550 1131 3912 565 
Q 3275 0 1925 0 
L 628 0 
L 628 4666 
z
" transform="scale(0.015625)"/>
       <path id="DejaVuSans-49" d="M 628 4666 
L 1259 4666 
L 1259 0 
L 628 0 
L 628 4666 
z
" transform="scale(0.015625)"/>
       <path id="DejaVuSans-4d" d="M 628 4666 
L 1569 4666 
L 2759 1491 
L 3956 4666 
L 4897 4666 
L 4897 0 
L 4281 0 
L 4281 4097 
L 3078 897 
L 2444 897 
L 1241 4097 
L 1241 0 
L 628 0 
L 628 4666 
z
" transform="scale(0.015625)"/>
      </defs>
      <use xlink:href="#DejaVuSans-6c"/>
      <use xlink:href="#DejaVuSans-6f" x="27.783203"/>
      <use xlink:href="#DejaVuSans-67" x="88.964844"/>
      <use xlink:href="#DejaVuSans-31" x="152.441406"/>
      <use xlink:href="#DejaVuSans-30" x="216.064453"/>
      <use xlink:href="#DejaVuSans-20" x="279.6875"/>
      <use xlink:href="#DejaVuSans-6f" x="311.474609"/>
      <use xlink:href="#DejaVuSans-66" x="372.65625"/>
      <use xlink:href="#DejaVuSans-20" x="407.861328"/>
      <use xlink:href="#DejaVuSans-46" x="439.648438"/>
      <use xlink:href="#DejaVuSans-45" x="497.167969"/>
      <use xlink:href="#DejaVuSans-76" x="560.351562"/>
      <use xlink:href="#DejaVuSans-61" x="619.53125"/>
      <use xlink:href="#DejaVuSans-6c" x="680.810547"/>
      <use xlink:href="#DejaVuSans-73" x="708.59375"/>
      <use xlink:href="#DejaVuSans-20" x="760.693359"/>
      <use xlink:href="#DejaVuSans-2f" x="792.480469"/>
      <use xlink:href="#DejaVuSans-20" x="826.171875"/>
      <use xlink:href="#DejaVuSans-44" x="857.958984"/>
      <use xlink:href="#DejaVuSans-49" x="934.960938"/>
      <use xlink:href="#DejaVuSans-4d" x="964.453125"/>
     </g>
    </g>
   </g>
   <g id="matplotlib.axis_2">
    <g id="ytick_1">
     <g id="line2d_37">
      <path d="M 62.208 293.76 
L 460.8 293.76 
" clip-path="url(#p8221c13804)" style="fill: none; stroke: #b0b0b0; stroke-width: 0.8; stroke-linecap: square"/>
     </g>
     <g id="line2d_38">
      <defs>
       <path id="m9c91b3f674" d="M 0 0 
L -3.5 0 
" style="stroke: #000000; stroke-width: 0.8"/>
      </defs>
      <g>
       <use xlink:href="#m9c91b3f674" x="62.208" y="293.76" style="stroke: #000000; stroke-width: 0.8"/>
      </g>
     </g>
     <g id="text_5">
      <!-- 0.0 -->
      <g transform="translate(29.763 299.83875)scale(0.16 -0.16)">
       <defs>
        <path id="DejaVuSans-2e" d="M 684 794 
L 1344 794 
L 1344 0 
L 684 0 
L 684 794 
z
" transform="scale(0.015625)"/>
       </defs>
       <use xlink:href="#DejaVuSans-30"/>
       <use xlink:href="#DejaVuSans-2e" x="63.623047"/>
       <use xlink:href="#DejaVuSans-30" x="95.410156"/>
      </g>
     </g>
    </g>
    <g id="ytick_2">
     <g id="line2d_39">
      <path d="M 62.208 236.274059 
L 460.8 236.274059 
" clip-path="url(#p8221c13804)" style="fill: none; stroke: #b0b0b0; stroke-width: 0.8; stroke-linecap: square"/>
     </g>
     <g id="line2d_40">
      <g>
       <use xlink:href="#m9c91b3f674" x="62.208" y="236.274059" style="stroke: #000000; stroke-width: 0.8"/>
      </g>
     </g>
     <g id="text_6">
      <!-- 0.2 -->
      <g transform="translate(29.763 242.352809)scale(0.16 -0.16)">
       <use xlink:href="#DejaVuSans-30"/>
       <use xlink:href="#DejaVuSans-2e" x="63.623047"/>
       <use xlink:href="#DejaVuSans-32" x="95.410156"/>
      </g>
     </g>
    </g>
    <g id="ytick_3">
     <g id="line2d_41">
      <path d="M 62.208 178.788119 
L 460.8 178.788119 
" clip-path="url(#p8221c13804)" style="fill: none; stroke: #b0b0b0; stroke-width: 0.8; stroke-linecap: square"/>
     </g>
     <g id="line2d_42">
      <g>
       <use xlink:href="#m9c91b3f674" x="62.208" y="178.788119" style="stroke: #000000; stroke-width: 0.8"/>
      </g>
     </g>
     <g id="text_7">
      <!-- 0.4 -->
      <g transform="translate(29.763 184.866869)scale(0.16 -0.16)">
       <use xlink:href="#DejaVuSans-30"/>
       <use xlink:href="#DejaVuSans-2e" x="63.623047"/>
       <use xlink:href="#DejaVuSans-34" x="95.410156"/>
      </g>
     </g>
    </g>
    <g id="ytick_4">
     <g id="line2d_43">
      <path d="M 62.208 121.302178 
L 460.8 121.302178 
" clip-path="url(#p8221c13804)" style="fill: none; stroke: #b0b0b0; stroke-width: 0.8; stroke-linecap: square"/>
     </g>
     <g id="line2d_44">
      <g>
       <use xlink:href="#m9c91b3f674" x="62.208" y="121.302178" style="stroke: #000000; stroke-width: 0.8"/>
      </g>
     </g>
     <g id="text_8">
      <!-- 0.6 -->
      <g transform="translate(29.763 127.380928)scale(0.16 -0.16)">
       <defs>
        <path id="DejaVuSans-36" d="M 2113 2584 
Q 1688 2584 1439 2293 
Q 1191 2003 1191 1497 
Q 1191 994 1439 701 
Q 1688 409 2113 409 
Q 2538 409 2786 701 
Q 3034 994 3034 1497 
Q 3034 2003 2786 2293 
Q 2538 2584 2113 2584 
z
M 3366 4563 
L 3366 3988 
Q 3128 4100 2886 4159 
Q 2644 4219 2406 4219 
Q 1781 4219 1451 3797 
Q 1122 3375 1075 2522 
Q 1259 2794 1537 2939 
Q 1816 3084 2150 3084 
Q 2853 3084 3261 2657 
Q 3669 2231 3669 1497 
Q 3669 778 3244 343 
Q 2819 -91 2113 -91 
Q 1303 -91 875 529 
Q 447 1150 447 2328 
Q 447 3434 972 4092 
Q 1497 4750 2381 4750 
Q 2619 4750 2861 4703 
Q 3103 4656 3366 4563 
z
" transform="scale(0.015625)"/>
       </defs>
       <use xlink:href="#DejaVuSans-30"/>
       <use xlink:href="#DejaVuSans-2e" x="63.623047"/>
       <use xlink:href="#DejaVuSans-36" x="95.410156"/>
      </g>
     </g>
    </g>
    <g id="ytick_5">
     <g id="line2d_45">
      <path d="M 62.208 63.816238 
L 460.8 63.816238 
" clip-path="url(#p8221c13804)" style="fill: none; stroke: #b0b0b0; stroke-width: 0.8; stroke-linecap: square"/>
     </g>
     <g id="line2d_46">
      <g>
       <use xlink:href="#m9c91b3f674" x="62.208" y="63.816238" style="stroke: #000000; stroke-width: 0.8"/>
      </g>
     </g>
     <g id="text_9">
      <!-- 0.8 -->
      <g transform="translate(29.763 69.894988)scale(0.16 -0.16)">
       <defs>
        <path id="DejaVuSans-38" d="M 2034 2216 
Q 1584 2216 1326 1975 
Q 1069 1734 1069 1313 
Q 1069 891 1326 650 
Q 1584 409 2034 409 
Q 2484 409 2743 651 
Q 3003 894 3003 1313 
Q 3003 1734 2745 1975 
Q 2488 2216 2034 2216 
z
M 1403 2484 
Q 997 2584 770 2862 
Q 544 3141 544 3541 
Q 544 4100 942 4425 
Q 1341 4750 2034 4750 
Q 2731 4750 3128 4425 
Q 3525 4100 3525 3541 
Q 3525 3141 3298 2862 
Q 3072 2584 2669 2484 
Q 3125 2378 3379 2068 
Q 3634 1759 3634 1313 
Q 3634 634 3220 271 
Q 2806 -91 2034 -91 
Q 1263 -91 848 271 
Q 434 634 434 1313 
Q 434 1759 690 2068 
Q 947 2378 1403 2484 
z
M 1172 3481 
Q 1172 3119 1398 2916 
Q 1625 2713 2034 2713 
Q 2441 2713 2670 2916 
Q 2900 3119 2900 3481 
Q 2900 3844 2670 4047 
Q 2441 4250 2034 4250 
Q 1625 4250 1398 4047 
Q 1172 3844 1172 3481 
z
" transform="scale(0.015625)"/>
       </defs>
       <use xlink:href="#DejaVuSans-30"/>
       <use xlink:href="#DejaVuSans-2e" x="63.623047"/>
       <use xlink:href="#DejaVuSans-38" x="95.410156"/>
      </g>
     </g>
    </g>
    <g id="ytick_6">
     <g id="line2d_47">
      <path d="M 62.208 6.330297 
L 460.8 6.330297 
" clip-path="url(#p8221c13804)" style="fill: none; stroke: #b0b0b0; stroke-width: 0.8; stroke-linecap: square"/>
     </g>
     <g id="line2d_48">
      <g>
       <use xlink:href="#m9c91b3f674" x="62.208" y="6.330297" style="stroke: #000000; stroke-width: 0.8"/>
      </g>
     </g>
     <g id="text_10">
      <!-- 1.0 -->
      <g transform="translate(29.763 12.409047)scale(0.16 -0.16)">
       <use xlink:href="#DejaVuSans-31"/>
       <use xlink:href="#DejaVuSans-2e" x="63.623047"/>
       <use xlink:href="#DejaVuSans-30" x="95.410156"/>
      </g>
     </g>
    </g>
    <g id="text_11">
     <!-- proportion of trials -->
     <g transform="translate(21.603625 241.61425)rotate(-90)scale(0.2 -0.2)">
      <defs>
       <path id="DejaVuSans-70" d="M 1159 525 
L 1159 -1331 
L 581 -1331 
L 581 3500 
L 1159 3500 
L 1159 2969 
Q 1341 3281 1617 3432 
Q 1894 3584 2278 3584 
Q 2916 3584 3314 3078 
Q 3713 2572 3713 1747 
Q 3713 922 3314 415 
Q 2916 -91 2278 -91 
Q 1894 -91 1617 61 
Q 1341 213 1159 525 
z
M 3116 1747 
Q 3116 2381 2855 2742 
Q 2594 3103 2138 3103 
Q 1681 3103 1420 2742 
Q 1159 2381 1159 1747 
Q 1159 1113 1420 752 
Q 1681 391 2138 391 
Q 2594 391 2855 752 
Q 3116 1113 3116 1747 
z
" transform="scale(0.015625)"/>
       <path id="DejaVuSans-72" d="M 2631 2963 
Q 2534 3019 2420 3045 
Q 2306 3072 2169 3072 
Q 1681 3072 1420 2755 
Q 1159 2438 1159 1844 
L 1159 0 
L 581 0 
L 581 3500 
L 1159 3500 
L 1159 2956 
Q 1341 3275 1631 3429 
Q 1922 3584 2338 3584 
Q 2397 3584 2469 3576 
Q 2541 3569 2628 3553 
L 2631 2963 
z
" transform="scale(0.015625)"/>
       <path id="DejaVuSans-74" d="M 1172 4494 
L 1172 3500 
L 2356 3500 
L 2356 3053 
L 1172 3053 
L 1172 1153 
Q 1172 725 1289 603 
Q 1406 481 1766 481 
L 2356 481 
L 2356 0 
L 1766 0 
Q 1100 0 847 248 
Q 594 497 594 1153 
L 594 3053 
L 172 3053 
L 172 3500 
L 594 3500 
L 594 4494 
L 1172 4494 
z
" transform="scale(0.015625)"/>
       <path id="DejaVuSans-69" d="M 603 3500 
L 1178 3500 
L 1178 0 
L 603 0 
L 603 3500 
z
M 603 4863 
L 1178 4863 
L 1178 4134 
L 603 4134 
L 603 4863 
z
" transform="scale(0.015625)"/>
       <path id="DejaVuSans-6e" d="M 3513 2113 
L 3513 0 
L 2938 0 
L 2938 2094 
Q 2938 2591 2744 2837 
Q 2550 3084 2163 3084 
Q 1697 3084 1428 2787 
Q 1159 2491 1159 1978 
L 1159 0 
L 581 0 
L 581 3500 
L 1159 3500 
L 1159 2956 
Q 1366 3272 1645 3428 
Q 1925 3584 2291 3584 
Q 2894 3584 3203 3211 
Q 3513 2838 3513 2113 
z
" transform="scale(0.015625)"/>
      </defs>
      <use xlink:href="#DejaVuSans-70"/>
      <use xlink:href="#DejaVuSans-72" x="63.476562"/>
      <use xlink:href="#DejaVuSans-6f" x="102.339844"/>
      <use xlink:href="#DejaVuSans-70" x="163.521484"/>
      <use xlink:href="#DejaVuSans-6f" x="226.998047"/>
      <use xlink:href="#DejaVuSans-72" x="288.179688"/>
      <use xlink:href="#DejaVuSans-74" x="329.292969"/>
      <use xlink:href="#DejaVuSans-69" x="368.501953"/>
      <use xlink:href="#DejaVuSans-6f" x="396.285156"/>
      <use xlink:href="#DejaVuSans-6e" x="457.466797"/>
      <use xlink:href="#DejaVuSans-20" x="520.845703"/>
      <use xlink:href="#DejaVuSans-6f" x="552.632812"/>
      <use xlink:href="#DejaVuSans-66" x="613.814453"/>
      <use xlink:href="#DejaVuSans-20" x="649.019531"/>
      <use xlink:href="#DejaVuSans-74" x="680.806641"/>
      <use xlink:href="#DejaVuSans-72" x="720.015625"/>
      <use xlink:href="#DejaVuSans-69" x="761.128906"/>
      <use xlink:href="#DejaVuSans-61" x="788.912109"/>
      <use xlink:href="#DejaVuSans-6c" x="850.191406"/>
      <use xlink:href="#DejaVuSans-73" x="877.974609"/>
     </g>
    </g>
   </g>
   <g id="line2d_49">
    <path d="M 9.660266 293.76 
L 9.660266 289.927604 
L 32.291343 289.927604 
L 32.291343 282.262812 
L 45.529675 282.262812 
L 45.529675 278.430416 
L 54.92242 278.430416 
L 54.92242 274.59802 
L 62.208 274.59802 
L 62.208 270.765624 
L 68.160752 270.765624 
L 68.160752 251.603644 
L 73.193732 251.603644 
L 73.193732 243.938851 
L 77.553498 243.938851 
L 77.553498 232.441663 
L 81.399084 232.441663 
L 81.399084 228.609267 
L 84.839077 228.609267 
L 84.839077 220.944475 
L 93.405203 220.944475 
L 93.405203 217.112079 
L 98.077409 217.112079 
L 98.077409 213.279683 
L 100.184575 213.279683 
L 100.184575 201.782495 
L 110.582008 201.782495 
L 110.582008 194.117703 
L 112.033346 194.117703 
L 112.033346 190.285307 
L 114.755734 190.285307 
L 114.755734 182.620515 
L 116.036281 182.620515 
L 116.036281 174.955723 
L 117.268493 174.955723 
L 117.268493 167.290931 
L 120.708486 167.290931 
L 120.708486 163.458535 
L 125.741467 163.458535 
L 125.741467 159.626139 
L 126.661238 159.626139 
L 126.661238 155.793743 
L 128.426519 155.793743 
L 128.426519 151.961347 
L 130.90744 151.961347 
L 130.90744 148.12895 
L 131.694219 148.12895 
L 131.694219 140.464158 
L 133.946818 140.464158 
L 133.946818 132.799366 
L 135.366596 132.799366 
L 135.366596 128.96697 
L 136.727199 128.96697 
L 136.727199 117.469782 
L 139.289277 117.469782 
L 139.289277 113.637386 
L 141.664851 113.637386 
L 141.664851 109.80499 
L 143.879241 109.80499 
L 143.879241 105.972594 
L 145.44673 105.972594 
L 145.44673 102.140198 
L 146.9424 102.140198 
L 146.9424 98.307802 
L 153.538517 98.307802 
L 153.538517 94.475406 
L 155.093561 94.475406 
L 155.093561 90.64301 
L 159.689748 90.64301 
L 159.689748 86.810614 
L 164.295928 86.810614 
L 164.295928 82.978218 
L 174.536767 82.978218 
L 174.536767 79.145822 
L 179.02708 79.145822 
L 179.02708 75.313426 
L 179.569747 75.313426 
L 179.569747 71.48103 
L 219.798922 71.48103 
L 219.798922 67.648634 
L 226.19342 67.648634 
L 226.19342 63.816238 
L 226.747903 63.816238 
L 226.747903 59.983842 
L 236.944793 59.983842 
L 236.944793 56.151446 
L 237.709459 56.151446 
L 237.709459 52.31905 
L 241.902528 52.31905 
L 241.902528 48.486653 
L 245.61787 48.486653 
L 245.61787 44.654257 
L 247.574909 44.654257 
L 247.574909 40.821861 
L 250.64407 40.821861 
L 250.64407 36.989465 
L 251.288626 36.989465 
L 251.288626 33.157069 
L 265.061077 33.157069 
L 265.061077 29.324673 
L 269.311106 29.324673 
L 269.311106 25.492277 
L 278.14206 25.492277 
L 278.14206 21.659881 
L 280.751389 21.659881 
L 280.751389 17.827485 
L 285.24839 17.827485 
L 285.24839 13.995089 
L 295.07178 13.995089 
L 295.07178 10.162693 
L 304.197354 10.162693 
L 304.197354 6.330297 
L 304.197354 6.330297 
L 460.8 6.330297 
L 460.8 6.330297 
" clip-path="url(#p8221c13804)" style="fill: none; stroke: #000000; stroke-width: 1.5; stroke-linecap: square"/>
   </g>
   <g id="line2d_50">
    <path clip-path="url(#p8221c13804)" style="fill: none; stroke: #000000; stroke-width: 1.5; stroke-linecap: square"/>
   </g>
   <g id="line2d_51">
    <path d="M 166.510319 293.76 
L 166.510319 289.927604 
L 177.53426 289.927604 
L 177.53426 286.095208 
L 195.668905 286.095208 
L 195.668905 282.262812 
L 197.480285 282.262812 
L 197.480285 278.430416 
L 217.74752 278.430416 
L 217.74752 274.59802 
L 237.679214 274.59802 
L 237.679214 270.765624 
L 244.286031 270.765624 
L 244.286031 266.933228 
L 249.273078 266.933228 
L 249.273078 263.100832 
L 249.31548 263.100832 
L 249.31548 259.268436 
L 249.484541 259.268436 
L 249.484541 255.43604 
L 250.664406 255.43604 
L 250.664406 251.603644 
L 251.368309 251.603644 
L 251.368309 247.771248 
L 251.685107 247.771248 
L 251.685107 243.938851 
L 253.393299 243.938851 
L 253.393299 240.106455 
L 254.586704 240.106455 
L 254.586704 236.274059 
L 258.919415 236.274059 
L 258.919415 232.441663 
L 281.225222 232.441663 
L 281.225222 228.609267 
L 284.622133 228.609267 
L 284.622133 224.776871 
L 292.36436 224.776871 
L 292.36436 220.944475 
L 294.6834 220.944475 
L 294.6834 217.112079 
L 296.690098 217.112079 
L 296.690098 213.279683 
L 296.853532 213.279683 
L 296.853532 209.447287 
L 297.22196 209.447287 
L 297.22196 205.614891 
L 308.493937 205.614891 
L 308.493937 201.782495 
L 312.431624 201.782495 
L 312.431624 197.950099 
L 312.468392 197.950099 
L 312.468392 194.117703 
L 315.925836 194.117703 
L 315.925836 190.285307 
L 317.240478 190.285307 
L 317.240478 186.452911 
L 330.417015 186.452911 
L 330.417015 182.620515 
L 332.255229 182.620515 
L 332.255229 178.788119 
L 332.26859 178.788119 
L 332.26859 174.955723 
L 332.536329 174.955723 
L 332.536329 171.123327 
L 334.689628 171.123327 
L 334.689628 167.290931 
L 335.446713 167.290931 
L 335.446713 163.458535 
L 344.505992 163.458535 
L 344.505992 159.626139 
L 348.403063 159.626139 
L 348.403063 155.793743 
L 352.568313 155.793743 
L 352.568313 151.961347 
L 356.10608 151.961347 
L 356.10608 148.12895 
L 361.380927 148.12895 
L 361.380927 144.296554 
L 366.474973 144.296554 
L 366.474973 140.464158 
L 369.344412 140.464158 
L 369.344412 136.631762 
L 370.834885 136.631762 
L 370.834885 132.799366 
L 372.181198 132.799366 
L 372.181198 128.96697 
L 372.473962 128.96697 
L 372.473962 125.134574 
L 374.009107 125.134574 
L 374.009107 121.302178 
L 374.620399 121.302178 
L 374.620399 117.469782 
L 375.229864 117.469782 
L 375.229864 113.637386 
L 379.245321 113.637386 
L 379.245321 109.80499 
L 398.73536 109.80499 
L 398.73536 105.972594 
L 399.176313 105.972594 
L 399.176313 102.140198 
L 399.448595 102.140198 
L 399.448595 98.307802 
L 400.246872 98.307802 
L 400.246872 94.475406 
L 400.356815 94.475406 
L 400.356815 90.64301 
L 409.817855 90.64301 
L 409.817855 86.810614 
L 430.950883 86.810614 
L 430.950883 82.978218 
L 430.950883 82.978218 
L 430.950883 82.978218 
L 460.8 82.978218 
" clip-path="url(#p8221c13804)" style="fill: none; stroke: #00bfbf; stroke-width: 1.5; stroke-linecap: square"/>
   </g>
   <g id="line2d_52">
    <path clip-path="url(#p8221c13804)" style="fill: none; stroke: #00bfbf; stroke-width: 1.5; stroke-linecap: square"/>
   </g>
   <g id="line2d_53">
    <path d="M 189.803685 293.76 
L 189.803685 289.927604 
L 200.45049 289.927604 
L 200.45049 286.095208 
L 208.613753 286.095208 
L 208.613753 282.262812 
L 213.657261 282.262812 
L 213.657261 278.430416 
L 228.033329 278.430416 
L 228.033329 274.59802 
L 248.040866 274.59802 
L 248.040866 270.765624 
L 248.084898 270.765624 
L 248.084898 266.933228 
L 252.135185 266.933228 
L 252.135185 263.100832 
L 252.960347 263.100832 
L 252.960347 259.268436 
L 253.430677 259.268436 
L 253.430677 255.43604 
L 253.654052 255.43604 
L 253.654052 251.603644 
L 255.10539 251.603644 
L 255.10539 247.771248 
L 255.317632 247.771248 
L 255.317632 243.938851 
L 256.049798 243.938851 
L 256.049798 240.106455 
L 261.498766 240.106455 
L 261.498766 236.274059 
L 263.27326 236.274059 
L 263.27326 232.441663 
L 286.857483 232.441663 
L 286.857483 228.609267 
L 296.129229 228.609267 
L 296.129229 224.776871 
L 296.184743 224.776871 
L 296.184743 220.944475 
L 298.298212 220.944475 
L 298.298212 217.112079 
L 299.275962 217.112079 
L 299.275962 213.279683 
L 299.395004 213.279683 
L 299.395004 209.447287 
L 311.312059 209.447287 
L 311.312059 205.614891 
L 315.353408 205.614891 
L 315.353408 201.782495 
L 315.47652 201.782495 
L 315.47652 197.950099 
L 318.117595 197.950099 
L 318.117595 194.117703 
L 320.096367 194.117703 
L 320.096367 190.285307 
L 334.276147 190.285307 
L 334.276147 186.452911 
L 334.759324 186.452911 
L 334.759324 182.620515 
L 335.26289 182.620515 
L 335.26289 178.788119 
L 338.166192 178.788119 
L 338.166192 174.955723 
L 338.465886 174.955723 
L 338.465886 171.123327 
L 345.609731 171.123327 
L 345.609731 167.290931 
L 351.839288 167.290931 
L 351.839288 163.458535 
L 355.223667 163.458535 
L 355.223667 159.626139 
L 357.467668 159.626139 
L 357.467668 155.793743 
L 363.007375 155.793743 
L 363.007375 151.961347 
L 367.954362 151.961347 
L 367.954362 148.12895 
L 371.287325 148.12895 
L 371.287325 144.296554 
L 372.18169 144.296554 
L 372.18169 140.464158 
L 374.765204 140.464158 
L 374.765204 136.631762 
L 375.049748 136.631762 
L 375.049748 132.799366 
L 375.344334 132.799366 
L 375.344334 128.96697 
L 376.279774 128.96697 
L 376.279774 125.134574 
L 377.382632 125.134574 
L 377.382632 121.302178 
L 377.761198 121.302178 
L 377.761198 117.469782 
L 380.260797 117.469782 
L 380.260797 113.637386 
L 400.257071 113.637386 
L 400.257071 109.80499 
L 400.708876 109.80499 
L 400.708876 105.972594 
L 401.405628 105.972594 
L 401.405628 102.140198 
L 402.327783 102.140198 
L 402.327783 98.307802 
L 402.65275 98.307802 
L 402.65275 94.475406 
L 402.728665 94.475406 
L 402.728665 90.64301 
L 419.125276 90.64301 
L 419.125276 86.810614 
L 431.692769 86.810614 
L 431.692769 82.978218 
L 431.692769 82.978218 
L 431.692769 82.978218 
L 460.8 82.978218 
" clip-path="url(#p8221c13804)" style="fill: none; stroke: #bf00bf; stroke-width: 1.5; stroke-linecap: square"/>
   </g>
   <g id="line2d_54">
    <path clip-path="url(#p8221c13804)" style="fill: none; stroke: #bf00bf; stroke-width: 1.5; stroke-linecap: square"/>
   </g>
   <g id="line2d_55">
    <path d="M 205.524003 293.76 
L 205.524003 289.927604 
L 208.760824 289.927604 
L 208.760824 286.095208 
L 219.536252 286.095208 
L 219.536252 282.262812 
L 220.77823 282.262812 
L 220.77823 278.430416 
L 233.28052 278.430416 
L 233.28052 274.59802 
L 251.803118 274.59802 
L 251.803118 270.765624 
L 252.115745 270.765624 
L 252.115745 266.933228 
L 257.5326 266.933228 
L 257.5326 263.100832 
L 257.680523 263.100832 
L 257.680523 259.268436 
L 257.811449 259.268436 
L 257.811449 255.43604 
L 258.2978 255.43604 
L 258.2978 251.603644 
L 258.2978 251.603644 
L 258.2978 247.771248 
L 258.903623 247.771248 
L 258.903623 243.938851 
L 261.058142 243.938851 
L 261.058142 240.106455 
L 265.785506 240.106455 
L 265.785506 236.274059 
L 272.010058 236.274059 
L 272.010058 232.441663 
L 289.529644 232.441663 
L 289.529644 228.609267 
L 299.050425 228.609267 
L 299.050425 224.776871 
L 300.799415 224.776871 
L 300.799415 220.944475 
L 301.074059 220.944475 
L 301.074059 217.112079 
L 301.333494 217.112079 
L 301.333494 213.279683 
L 301.398032 213.279683 
L 301.398032 209.447287 
L 314.325411 209.447287 
L 314.325411 205.614891 
L 317.322396 205.614891 
L 317.322396 201.782495 
L 317.869385 201.782495 
L 317.869385 197.950099 
L 319.720882 197.950099 
L 319.720882 194.117703 
L 322.167452 194.117703 
L 322.167452 190.285307 
L 336.331454 190.285307 
L 336.331454 186.452911 
L 337.300378 186.452911 
L 337.300378 182.620515 
L 337.323271 182.620515 
L 337.323271 178.788119 
L 339.999628 178.788119 
L 339.999628 174.955723 
L 340.064133 174.955723 
L 340.064133 171.123327 
L 347.312341 171.123327 
L 347.312341 167.290931 
L 353.633946 167.290931 
L 353.633946 163.458535 
L 357.066215 163.458535 
L 357.066215 159.626139 
L 359.049407 159.626139 
L 359.049407 155.793743 
L 364.397234 155.793743 
L 364.397234 151.961347 
L 369.166915 151.961347 
L 369.166915 148.12895 
L 372.79792 148.12895 
L 372.79792 144.296554 
L 373.710145 144.296554 
L 373.710145 140.464158 
L 376.627953 140.464158 
L 376.627953 136.631762 
L 376.851634 136.631762 
L 376.851634 132.799366 
L 377.225838 132.799366 
L 377.225838 128.96697 
L 378.14444 128.96697 
L 378.14444 125.134574 
L 379.158858 125.134574 
L 379.158858 121.302178 
L 379.736334 121.302178 
L 379.736334 117.469782 
L 381.451016 117.469782 
L 381.451016 113.637386 
L 401.222476 113.637386 
L 401.222476 109.80499 
L 402.341063 109.80499 
L 402.341063 105.972594 
L 402.417901 105.972594 
L 402.417901 102.140198 
L 403.649038 102.140198 
L 403.649038 98.307802 
L 403.978266 98.307802 
L 403.978266 94.475406 
L 404.260422 94.475406 
L 404.260422 90.64301 
L 421.233267 90.64301 
L 421.233267 86.810614 
L 432.501067 86.810614 
L 432.501067 82.978218 
L 432.501067 82.978218 
L 432.501067 82.978218 
L 460.8 82.978218 
" clip-path="url(#p8221c13804)" style="fill: none; stroke: #ff0000; stroke-width: 3; stroke-linecap: square"/>
   </g>
   <g id="line2d_56">
    <path clip-path="url(#p8221c13804)" style="fill: none; stroke: #ff0000; stroke-width: 3; stroke-linecap: square"/>
   </g>
   <g id="line2d_57">
    <path d="M 460.8 293.76 
L 460.8 3.456 
" clip-path="url(#p8221c13804)" style="fill: none; stroke: #000000; stroke-width: 1.5; stroke-linecap: square"/>
   </g>
   <g id="patch_3">
    <path d="M 62.208 293.76 
L 62.208 3.456 
" style="fill: none; stroke: #000000; stroke-width: 0.8; stroke-linejoin: miter; stroke-linecap: square"/>
   </g>
   <g id="patch_4">
    <path d="M 460.8 293.76 
L 460.8 3.456 
" style="fill: none; stroke: #000000; stroke-width: 0.8; stroke-linejoin: miter; stroke-linecap: square"/>
   </g>
   <g id="patch_5">
    <path d="M 62.208 293.76 
L 460.8 293.76 
" style="fill: none; stroke: #000000; stroke-width: 0.8; stroke-linejoin: miter; stroke-linecap: square"/>
   </g>
   <g id="patch_6">
    <path d="M 62.208 3.456 
L 460.8 3.456 
" style="fill: none; stroke: #000000; stroke-width: 0.8; stroke-linejoin: miter; stroke-linecap: square"/>
   </g>
   <g id="text_12">
    <!-- {f20-f24}, 5-D -->
    <g transform="translate(188.654 24.458955)scale(0.2 -0.2)">
     <defs>
      <path id="DejaVuSans-7b" d="M 3272 -594 
L 3272 -1044 
L 3078 -1044 
Q 2300 -1044 2036 -812 
Q 1772 -581 1772 109 
L 1772 856 
Q 1772 1328 1603 1509 
Q 1434 1691 991 1691 
L 800 1691 
L 800 2138 
L 991 2138 
Q 1438 2138 1605 2317 
Q 1772 2497 1772 2963 
L 1772 3713 
Q 1772 4403 2036 4633 
Q 2300 4863 3078 4863 
L 3272 4863 
L 3272 4416 
L 3059 4416 
Q 2619 4416 2484 4278 
Q 2350 4141 2350 3700 
L 2350 2925 
Q 2350 2434 2208 2212 
Q 2066 1991 1722 1913 
Q 2069 1828 2209 1606 
Q 2350 1384 2350 897 
L 2350 122 
Q 2350 -319 2484 -456 
Q 2619 -594 3059 -594 
L 3272 -594 
z
" transform="scale(0.015625)"/>
      <path id="DejaVuSans-2d" d="M 313 2009 
L 1997 2009 
L 1997 1497 
L 313 1497 
L 313 2009 
z
" transform="scale(0.015625)"/>
      <path id="DejaVuSans-7d" d="M 800 -594 
L 1019 -594 
Q 1456 -594 1589 -459 
Q 1722 -325 1722 122 
L 1722 897 
Q 1722 1384 1862 1606 
Q 2003 1828 2350 1913 
Q 2003 1991 1862 2212 
Q 1722 2434 1722 2925 
L 1722 3700 
Q 1722 4144 1589 4280 
Q 1456 4416 1019 4416 
L 800 4416 
L 800 4863 
L 997 4863 
Q 1775 4863 2036 4633 
Q 2297 4403 2297 3713 
L 2297 2963 
Q 2297 2497 2465 2317 
Q 2634 2138 3078 2138 
L 3272 2138 
L 3272 1691 
L 3078 1691 
Q 2634 1691 2465 1509 
Q 2297 1328 2297 856 
L 2297 109 
Q 2297 -581 2036 -812 
Q 1775 -1044 997 -1044 
L 800 -1044 
L 800 -594 
z
" transform="scale(0.015625)"/>
      <path id="DejaVuSans-2c" d="M 750 794 
L 1409 794 
L 1409 256 
L 897 -744 
L 494 -744 
L 750 256 
L 750 794 
z
" transform="scale(0.015625)"/>
      <path id="DejaVuSans-35" d="M 691 4666 
L 3169 4666 
L 3169 4134 
L 1269 4134 
L 1269 2991 
Q 1406 3038 1543 3061 
Q 1681 3084 1819 3084 
Q 2600 3084 3056 2656 
Q 3513 2228 3513 1497 
Q 3513 744 3044 326 
Q 2575 -91 1722 -91 
Q 1428 -91 1123 -41 
Q 819 9 494 109 
L 494 744 
Q 775 591 1075 516 
Q 1375 441 1709 441 
Q 2250 441 2565 725 
Q 2881 1009 2881 1497 
Q 2881 1984 2565 2268 
Q 2250 2553 1709 2553 
Q 1456 2553 1204 2497 
Q 953 2441 691 2322 
L 691 4666 
z
" transform="scale(0.015625)"/>
     </defs>
     <use xlink:href="#DejaVuSans-7b"/>
     <use xlink:href="#DejaVuSans-66" x="63.623047"/>
     <use xlink:href="#DejaVuSans-32" x="98.828125"/>
     <use xlink:href="#DejaVuSans-30" x="162.451172"/>
     <use xlink:href="#DejaVuSans-2d" x="226.074219"/>
     <use xlink:href="#DejaVuSans-66" x="262.158203"/>
     <use xlink:href="#DejaVuSans-32" x="297.363281"/>
     <use xlink:href="#DejaVuSans-34" x="360.986328"/>
     <use xlink:href="#DejaVuSans-7d" x="424.609375"/>
     <use xlink:href="#DejaVuSans-2c" x="488.232422"/>
     <use xlink:href="#DejaVuSans-20" x="520.019531"/>
     <use xlink:href="#DejaVuSans-35" x="551.806641"/>
     <use xlink:href="#DejaVuSans-2d" x="615.429688"/>
     <use xlink:href="#DejaVuSans-44" x="651.513672"/>
    </g>
   </g>
   <g id="text_13">
    <!-- absolute targets -->
    <g transform="translate(62.208 609.932673)scale(0.14 -0.14)">
     <defs>
      <path id="DejaVuSans-62" d="M 3116 1747 
Q 3116 2381 2855 2742 
Q 2594 3103 2138 3103 
Q 1681 3103 1420 2742 
Q 1159 2381 1159 1747 
Q 1159 1113 1420 752 
Q 1681 391 2138 391 
Q 2594 391 2855 752 
Q 3116 1113 3116 1747 
z
M 1159 2969 
Q 1341 3281 1617 3432 
Q 1894 3584 2278 3584 
Q 2916 3584 3314 3078 
Q 3713 2572 3713 1747 
Q 3713 922 3314 415 
Q 2916 -91 2278 -91 
Q 1894 -91 1617 61 
Q 1341 213 1159 525 
L 1159 0 
L 581 0 
L 581 4863 
L 1159 4863 
L 1159 2969 
z
" transform="scale(0.015625)"/>
      <path id="DejaVuSans-75" d="M 544 1381 
L 544 3500 
L 1119 3500 
L 1119 1403 
Q 1119 906 1312 657 
Q 1506 409 1894 409 
Q 2359 409 2629 706 
Q 2900 1003 2900 1516 
L 2900 3500 
L 3475 3500 
L 3475 0 
L 2900 0 
L 2900 538 
Q 2691 219 2414 64 
Q 2138 -91 1772 -91 
Q 1169 -91 856 284 
Q 544 659 544 1381 
z
M 1991 3584 
L 1991 3584 
z
" transform="scale(0.015625)"/>
      <path id="DejaVuSans-65" d="M 3597 1894 
L 3597 1613 
L 953 1613 
Q 991 1019 1311 708 
Q 1631 397 2203 397 
Q 2534 397 2845 478 
Q 3156 559 3463 722 
L 3463 178 
Q 3153 47 2828 -22 
Q 2503 -91 2169 -91 
Q 1331 -91 842 396 
Q 353 884 353 1716 
Q 353 2575 817 3079 
Q 1281 3584 2069 3584 
Q 2775 3584 3186 3129 
Q 3597 2675 3597 1894 
z
M 3022 2063 
Q 3016 2534 2758 2815 
Q 2500 3097 2075 3097 
Q 1594 3097 1305 2825 
Q 1016 2553 972 2059 
L 3022 2063 
z
" transform="scale(0.015625)"/>
     </defs>
     <use xlink:href="#DejaVuSans-61"/>
     <use xlink:href="#DejaVuSans-62" x="61.279297"/>
     <use xlink:href="#DejaVuSans-73" x="124.755859"/>
     <use xlink:href="#DejaVuSans-6f" x="176.855469"/>
     <use xlink:href="#DejaVuSans-6c" x="238.037109"/>
     <use xlink:href="#DejaVuSans-75" x="265.820312"/>
     <use xlink:href="#DejaVuSans-74" x="329.199219"/>
     <use xlink:href="#DejaVuSans-65" x="368.408203"/>
     <use xlink:href="#DejaVuSans-20" x="429.931641"/>
     <use xlink:href="#DejaVuSans-74" x="461.71875"/>
     <use xlink:href="#DejaVuSans-61" x="500.927734"/>
     <use xlink:href="#DejaVuSans-72" x="562.207031"/>
     <use xlink:href="#DejaVuSans-67" x="601.570312"/>
     <use xlink:href="#DejaVuSans-65" x="665.046875"/>
     <use xlink:href="#DejaVuSans-74" x="726.570312"/>
     <use xlink:href="#DejaVuSans-73" x="765.779297"/>
    </g>
   </g>
   <g id="text_14">
    <!-- v2.6.3 -->
    <g style="fill: #808080" transform="translate(245.82275 288.777272)scale(0.1 -0.1)">
     <defs>
      <path id="DejaVuSans-33" d="M 2597 2516 
Q 3050 2419 3304 2112 
Q 3559 1806 3559 1356 
Q 3559 666 3084 287 
Q 2609 -91 1734 -91 
Q 1441 -91 1130 -33 
Q 819 25 488 141 
L 488 750 
Q 750 597 1062 519 
Q 1375 441 1716 441 
Q 2309 441 2620 675 
Q 2931 909 2931 1356 
Q 2931 1769 2642 2001 
Q 2353 2234 1838 2234 
L 1294 2234 
L 1294 2753 
L 1863 2753 
Q 2328 2753 2575 2939 
Q 2822 3125 2822 3475 
Q 2822 3834 2567 4026 
Q 2313 4219 1838 4219 
Q 1578 4219 1281 4162 
Q 984 4106 628 3988 
L 628 4550 
Q 988 4650 1302 4700 
Q 1616 4750 1894 4750 
Q 2613 4750 3031 4423 
Q 3450 4097 3450 3541 
Q 3450 3153 3228 2886 
Q 3006 2619 2597 2516 
z
" transform="scale(0.015625)"/>
     </defs>
     <use xlink:href="#DejaVuSans-76"/>
     <use xlink:href="#DejaVuSans-32" x="59.179688"/>
     <use xlink:href="#DejaVuSans-2e" x="122.802734"/>
     <use xlink:href="#DejaVuSans-36" x="154.589844"/>
     <use xlink:href="#DejaVuSans-2e" x="218.212891"/>
     <use xlink:href="#DejaVuSans-33" x="250"/>
    </g>
   </g>
   <g id="legend_1">
    <g id="patch_7">
     <path d="M 196.893062 136.881 
L 326.114937 136.881 
Q 330.114937 136.881 330.114937 132.881 
L 330.114937 17.456 
Q 330.114937 13.456 326.114937 13.456 
L 196.893062 13.456 
Q 192.893062 13.456 192.893062 17.456 
L 192.893062 132.881 
Q 192.893062 136.881 196.893062 136.881 
z
" style="fill: #ffffff; opacity: 0.2; stroke: #cccccc; stroke-linejoin: miter"/>
    </g>
    <g id="line2d_58">
     <path d="M 200.893062 29.652875 
L 200.893062 29.652875 
L 220.893062 29.652875 
L 220.893062 29.652875 
L 240.893062 29.652875 
" style="fill: none; stroke: #000000; stroke-width: 1.5; stroke-linecap: square"/>
    </g>
    <g id="text_15">
     <!-- 1: 5/5 -->
     <g transform="translate(256.893062 36.652875)scale(0.2 -0.2)">
      <defs>
       <path id="DejaVuSans-3a" d="M 750 794 
L 1409 794 
L 1409 0 
L 750 0 
L 750 794 
z
M 750 3309 
L 1409 3309 
L 1409 2516 
L 750 2516 
L 750 3309 
z
" transform="scale(0.015625)"/>
      </defs>
      <use xlink:href="#DejaVuSans-31"/>
      <use xlink:href="#DejaVuSans-3a" x="63.623047"/>
      <use xlink:href="#DejaVuSans-20" x="97.314453"/>
      <use xlink:href="#DejaVuSans-35" x="129.101562"/>
      <use xlink:href="#DejaVuSans-2f" x="192.724609"/>
      <use xlink:href="#DejaVuSans-35" x="226.416016"/>
     </g>
    </g>
    <g id="line2d_59">
     <path d="M 200.893062 59.009125 
L 200.893062 59.009125 
L 220.893062 59.009125 
L 220.893062 59.009125 
L 240.893062 59.009125 
" style="fill: none; stroke: #00bfbf; stroke-width: 1.5; stroke-linecap: square"/>
    </g>
    <g id="text_16">
     <!-- -1: 4/5 -->
     <g transform="translate(256.893062 66.009125)scale(0.2 -0.2)">
      <use xlink:href="#DejaVuSans-2d"/>
      <use xlink:href="#DejaVuSans-31" x="36.083984"/>
      <use xlink:href="#DejaVuSans-3a" x="99.707031"/>
      <use xlink:href="#DejaVuSans-20" x="133.398438"/>
      <use xlink:href="#DejaVuSans-34" x="165.185547"/>
      <use xlink:href="#DejaVuSans-2f" x="228.808594"/>
      <use xlink:href="#DejaVuSans-35" x="262.5"/>
     </g>
    </g>
    <g id="line2d_60">
     <path d="M 200.893062 88.365375 
L 200.893062 88.365375 
L 220.893062 88.365375 
L 220.893062 88.365375 
L 240.893062 88.365375 
" style="fill: none; stroke: #bf00bf; stroke-width: 1.5; stroke-linecap: square"/>
    </g>
    <g id="text_17">
     <!-- -4: 4/5 -->
     <g transform="translate(256.893062 95.365375)scale(0.2 -0.2)">
      <use xlink:href="#DejaVuSans-2d"/>
      <use xlink:href="#DejaVuSans-34" x="36.083984"/>
      <use xlink:href="#DejaVuSans-3a" x="99.707031"/>
      <use xlink:href="#DejaVuSans-20" x="133.398438"/>
      <use xlink:href="#DejaVuSans-34" x="165.185547"/>
      <use xlink:href="#DejaVuSans-2f" x="228.808594"/>
      <use xlink:href="#DejaVuSans-35" x="262.5"/>
     </g>
    </g>
    <g id="line2d_61">
     <path d="M 200.893062 117.721625 
L 200.893062 117.721625 
L 220.893062 117.721625 
L 220.893062 117.721625 
L 240.893062 117.721625 
" style="fill: none; stroke: #ff0000; stroke-width: 3; stroke-linecap: square"/>
    </g>
    <g id="text_18">
     <!-- -8: 4/5 -->
     <g transform="translate(256.893062 124.721625)scale(0.2 -0.2)">
      <use xlink:href="#DejaVuSans-2d"/>
      <use xlink:href="#DejaVuSans-38" x="36.083984"/>
      <use xlink:href="#DejaVuSans-3a" x="99.707031"/>
      <use xlink:href="#DejaVuSans-20" x="133.398438"/>
      <use xlink:href="#DejaVuSans-34" x="165.185547"/>
      <use xlink:href="#DejaVuSans-2f" x="228.808594"/>
      <use xlink:href="#DejaVuSans-35" x="262.5"/>
     </g>
    </g>
   </g>
  </g>
 </g>
 <defs>
  <clipPath id="p8221c13804">
   <rect x="62.208" y="3.456" width="398.592" height="290.304"/>
  </clipPath>
 </defs>
</svg>
