<?xml version="1.0" encoding="utf-8" standalone="no"?>
<!DOCTYPE svg PUBLIC "-//W3C//DTD SVG 1.1//EN"
  "http://www.w3.org/Graphics/SVG/1.1/DTD/svg11.dtd">
<svg xmlns:xlink="http://www.w3.org/1999/xlink" width="460.8pt" height="345.6pt" viewBox="0 0 460.8 345.6" xmlns="http://www.w3.org/2000/svg" version="1.1">
 <metadata>
  <rdf:RDF xmlns:dc="http://purl.org/dc/elements/1.1/" xmlns:cc="http://creativecommons.org/ns#" xmlns:rdf="http://www.w3.org/1999/02/22-rdf-syntax-ns#">
   <cc:Work>
    <dc:type rdf:resource="http://purl.org/dc/dcmitype/StillImage"/>
    <dc:date>2023-04-07T14:51:13.604763</dc:date>
    <dc:format>image/svg+xml</dc:format>
    <dc:creator>
     <cc:Agent>
      <dc:title>Matplotlib v3.5.2, https://matplotlib.org/</dc:title>
     </cc:Agent>
    </dc:creator>
   </cc:Work>
  </rdf:RDF>
 </metadata>
 <defs>
  <style type="text/css">*{stroke-linejoin: round; stroke-linecap: butt}</style>
 </defs>
 <g id="figure_1">
  <g id="patch_1">
   <path d="M 0 345.6 
L 460.8 345.6 
L 460.8 0 
L 0 0 
z
" style="fill: #ffffff"/>
  </g>
  <g id="axes_1">
   <g id="patch_2">
    <path d="M 62.208 293.76 
L 460.8 293.76 
L 460.8 3.456 
L 62.208 3.456 
z
" style="fill: #ffffff"/>
   </g>
   <g id="line2d_1"/>
   <g id="line2d_2">
    <path d="M 378.967669 293.76 
L 378.967669 282.262812 
L 383.060041 282.262812 
L 383.060041 270.765624 
L 383.060041 270.765624 
L 383.060041 270.765624 
L 460.8 270.765624 
" clip-path="url(#p81a79b21fd)" style="fill: none; stroke: #f5deb3; stroke-width: 1.5; stroke-linecap: square"/>
   </g>
   <g id="line2d_3"/>
   <g id="line2d_4"/>
   <g id="line2d_5"/>
   <g id="line2d_6"/>
   <g id="line2d_7">
    <path d="M 343.483473 293.76 
L 343.483473 289.927604 
L 367.868047 289.927604 
L 367.868047 286.095208 
L 373.849222 286.095208 
L 373.849222 282.262812 
L 374.364746 282.262812 
L 374.364746 278.430416 
L 375.050649 278.430416 
L 375.050649 274.59802 
L 379.562631 274.59802 
L 379.562631 270.765624 
L 379.777277 270.765624 
L 379.777277 266.933228 
L 382.052964 266.933228 
L 382.052964 263.100832 
L 387.730391 263.100832 
L 387.730391 259.268436 
L 392.909309 259.268436 
L 392.909309 255.43604 
L 393.285329 255.43604 
L 393.285329 251.603644 
L 394.593938 251.603644 
L 394.593938 247.771248 
L 404.914928 247.771248 
L 404.914928 243.938851 
L 409.575486 243.938851 
L 409.575486 240.106455 
L 412.617163 240.106455 
L 412.617163 236.274059 
L 416.27961 236.274059 
L 416.27961 232.441663 
L 418.001995 232.441663 
L 418.001995 228.609267 
L 419.358101 228.609267 
L 419.358101 224.776871 
L 422.896472 224.776871 
L 422.944292 217.112079 
L 423.043762 217.112079 
L 423.043762 213.279683 
L 424.243903 213.279683 
L 424.243903 209.447287 
L 428.58562 209.447287 
L 428.58562 205.614891 
L 433.234401 205.614891 
L 433.234401 201.782495 
L 442.372708 201.782495 
L 442.372708 197.950099 
L 442.910478 197.950099 
L 442.910478 194.117703 
L 446.355921 194.117703 
L 446.355921 190.285307 
L 450.897588 190.285307 
L 450.897588 186.452911 
L 453.248235 186.452911 
L 453.248235 182.620515 
L 455.644883 182.620515 
L 455.644883 178.788119 
L 460.643979 178.788119 
L 460.643979 174.955723 
L 461.8 174.955723 
L 461.8 174.955723 
" clip-path="url(#p81a79b21fd)" style="fill: none; stroke: #f5deb3; stroke-width: 1.5; stroke-linecap: square"/>
   </g>
   <g id="line2d_8">
    <path d="M 361.385718 293.76 
L 361.385718 289.927604 
L 362.787141 289.927604 
L 362.787141 286.095208 
L 363.217722 286.095208 
L 363.217722 282.262812 
L 363.397131 282.262812 
L 363.397131 278.430416 
L 363.91115 278.430416 
L 363.91115 274.59802 
L 363.926351 274.59802 
L 363.926351 270.765624 
L 378.530118 270.765624 
L 378.530118 266.933228 
L 379.404164 266.933228 
L 379.404164 263.100832 
L 380.023413 263.100832 
L 380.023413 259.268436 
L 380.097588 259.268436 
L 380.097588 255.43604 
L 380.53723 255.43604 
L 380.53723 251.603644 
L 380.954496 251.603644 
L 380.954496 247.771248 
L 380.96051 247.771248 
L 380.96051 243.938851 
L 381.326756 243.938851 
L 381.326756 240.106455 
L 381.343475 240.106455 
L 381.343475 236.274059 
L 381.641861 236.274059 
L 381.641861 232.441663 
L 383.168406 232.441663 
L 383.168406 228.609267 
L 419.857672 228.609267 
L 419.857672 224.776871 
L 420.41421 224.776871 
L 420.41421 220.944475 
L 420.41421 220.944475 
L 420.41421 220.944475 
L 460.8 220.944475 
" clip-path="url(#p81a79b21fd)" style="fill: none; stroke: #f5deb3; stroke-width: 1.5; stroke-linecap: square"/>
   </g>
   <g id="line2d_9">
    <path d="M 243.586546 293.76 
L 243.586546 289.927604 
L 282.338211 289.927604 
L 282.338211 286.095208 
L 282.926236 286.095208 
L 282.926236 282.262812 
L 283.652231 282.262812 
L 283.652231 278.430416 
L 286.736484 278.430416 
L 286.736484 274.59802 
L 290.897816 274.59802 
L 290.897816 270.765624 
L 291.380391 270.765624 
L 291.380391 266.933228 
L 291.543553 266.933228 
L 291.543553 263.100832 
L 292.426652 263.100832 
L 292.437965 255.43604 
L 292.697092 255.43604 
L 292.697092 251.603644 
L 293.020912 251.603644 
L 293.020912 247.771248 
L 300.371981 247.771248 
L 300.371981 243.938851 
L 305.435995 243.938851 
L 305.435995 240.106455 
L 306.220332 240.106455 
L 306.220332 236.274059 
L 307.134438 236.274059 
L 307.134438 232.441663 
L 307.872418 232.441663 
L 307.872418 228.609267 
L 309.005253 228.609267 
L 309.059686 220.944475 
L 313.700377 220.944475 
L 313.700377 217.112079 
L 314.747928 217.112079 
L 314.747928 213.279683 
L 315.604733 213.279683 
L 315.604733 209.447287 
L 315.851378 209.447287 
L 315.851378 205.614891 
L 316.123564 205.614891 
L 316.123564 201.782495 
L 316.251993 201.782495 
L 316.333706 194.117703 
L 316.445051 194.117703 
L 316.445051 190.285307 
L 316.685451 190.285307 
L 316.685451 186.452911 
L 317.692421 186.452911 
L 317.791431 178.788119 
L 317.96786 178.788119 
L 317.96786 174.955723 
L 318.407361 174.955723 
L 318.407361 171.123327 
L 319.054462 171.123327 
L 319.054462 167.290931 
L 320.008977 167.290931 
L 320.050274 159.626139 
L 320.498726 159.626139 
L 320.498726 155.793743 
L 321.461373 155.793743 
L 321.547284 148.12895 
L 325.370188 148.12895 
L 325.370188 144.296554 
L 330.930753 144.296554 
L 330.930753 140.464158 
L 331.19584 140.464158 
L 331.233781 132.799366 
L 332.343645 132.799366 
L 332.343645 128.96697 
L 336.260605 128.96697 
L 336.260605 125.134574 
L 338.039104 125.134574 
L 338.039104 121.302178 
L 339.08155 121.302178 
L 339.08155 117.469782 
L 341.28514 117.469782 
L 341.28514 113.637386 
L 341.740556 113.637386 
L 341.740556 109.80499 
L 342.714108 109.80499 
L 342.714108 105.972594 
L 343.455035 105.972594 
L 343.455035 102.140198 
L 343.633543 102.140198 
L 343.633543 98.307802 
L 348.275475 98.307802 
L 348.275475 94.475406 
L 349.912019 94.475406 
L 349.939244 86.810614 
L 350.420651 86.810614 
L 350.420651 82.978218 
L 350.772132 82.978218 
L 350.772132 79.145822 
L 350.915822 79.145822 
L 350.915822 75.313426 
L 353.018035 75.313426 
L 353.018035 71.48103 
L 355.243501 71.48103 
L 355.243501 67.648634 
L 355.433788 67.648634 
L 355.433788 63.816238 
L 358.239486 63.816238 
L 358.239486 59.983842 
L 360.525735 59.983842 
L 360.525735 56.151446 
L 363.191179 56.151446 
L 363.191179 52.31905 
L 363.77211 52.31905 
L 363.77211 48.486653 
L 377.86425 48.486653 
L 377.86425 44.654257 
L 383.902974 44.654257 
L 383.902974 40.821861 
L 384.032193 40.821861 
L 384.032193 36.989465 
L 387.076337 36.989465 
L 387.076337 33.157069 
L 395.669875 33.157069 
L 395.669875 29.324673 
L 397.198266 29.324673 
L 397.198266 25.492277 
L 401.560374 25.492277 
L 401.560374 21.659881 
L 406.40587 21.659881 
L 406.40587 17.827485 
L 408.010914 17.827485 
L 408.098765 10.162693 
L 420.906403 10.162693 
L 420.906403 6.330297 
L 420.906403 6.330297 
L 460.8 6.330297 
L 460.8 6.330297 
" clip-path="url(#p81a79b21fd)" style="fill: none; stroke: #f5deb3; stroke-width: 1.5; stroke-linecap: square"/>
   </g>
   <g id="line2d_10"/>
   <g id="line2d_11">
    <path d="M 396.090136 293.76 
L 396.090136 289.927604 
L 442.598975 289.927604 
L 442.598975 286.095208 
L 449.44124 286.095208 
L 449.44124 282.262812 
L 456.670416 282.262812 
L 456.670416 278.430416 
L 457.857289 278.430416 
L 457.857289 274.59802 
L 461.8 274.59802 
" clip-path="url(#p81a79b21fd)" style="fill: none; stroke: #f5deb3; stroke-width: 1.5; stroke-linecap: square"/>
   </g>
   <g id="line2d_12"/>
   <g id="line2d_13"/>
   <g id="line2d_14"/>
   <g id="line2d_15"/>
   <g id="line2d_16"/>
   <g id="line2d_17">
    <path d="M 355.042956 293.76 
L 355.042956 289.927604 
L 357.252413 289.927604 
L 357.252413 286.095208 
L 358.219884 286.095208 
L 358.219884 282.262812 
L 359.531829 282.262812 
L 359.531829 278.430416 
L 362.077199 278.430416 
L 362.077199 274.59802 
L 362.194931 274.59802 
L 362.194931 270.765624 
L 363.411287 270.765624 
L 363.411287 266.933228 
L 363.747288 266.933228 
L 363.747288 263.100832 
L 363.879458 263.100832 
L 363.879458 259.268436 
L 366.978856 259.268436 
L 366.978856 255.43604 
L 367.431882 255.43604 
L 367.431882 251.603644 
L 374.478617 251.603644 
L 374.478617 247.771248 
L 380.469772 247.771248 
L 380.469772 243.938851 
L 380.547508 243.938851 
L 380.547508 240.106455 
L 380.593149 240.106455 
L 380.593149 236.274059 
L 383.184559 236.274059 
L 383.184559 232.441663 
L 383.856577 232.441663 
L 383.856577 228.609267 
L 386.167568 228.609267 
L 386.167568 224.776871 
L 387.304274 224.776871 
L 387.304274 220.944475 
L 388.197421 220.944475 
L 388.197421 217.112079 
L 389.393235 217.112079 
L 389.393235 213.279683 
L 390.839967 213.279683 
L 390.839967 209.447287 
L 394.987613 209.447287 
L 394.987613 205.614891 
L 395.8564 205.614891 
L 395.8564 201.782495 
L 397.833831 201.782495 
L 397.833831 197.950099 
L 398.787432 197.950099 
L 398.787432 194.117703 
L 401.206105 194.117703 
L 401.206105 190.285307 
L 402.291823 190.285307 
L 402.291823 186.452911 
L 402.291823 186.452911 
L 402.291823 186.452911 
L 460.8 186.452911 
" clip-path="url(#p81a79b21fd)" style="fill: none; stroke: #f5deb3; stroke-width: 1.5; stroke-linecap: square"/>
   </g>
   <g id="line2d_18"/>
   <g id="line2d_19">
    <path d="M 370.85128 293.76 
L 370.85128 289.927604 
L 401.59595 289.927604 
L 401.59595 286.095208 
L 410.519307 286.095208 
L 410.519307 282.262812 
L 413.482844 282.262812 
L 413.482844 278.430416 
L 421.149305 278.430416 
L 421.149305 274.59802 
L 426.209132 274.59802 
L 426.209132 270.765624 
L 427.233876 270.765624 
L 427.233876 266.933228 
L 428.466544 266.933228 
L 428.466544 263.100832 
L 430.68947 263.100832 
L 430.68947 259.268436 
L 432.786484 259.268436 
L 432.786484 255.43604 
L 432.957324 255.43604 
L 432.957324 251.603644 
L 434.195631 251.603644 
L 434.195631 247.771248 
L 436.954874 247.771248 
L 436.954874 243.938851 
L 446.410088 243.938851 
L 446.410088 240.106455 
L 447.309564 240.106455 
L 447.309564 236.274059 
L 448.601295 236.274059 
L 448.601295 232.441663 
L 450.668382 232.441663 
L 450.668382 228.609267 
L 460.575056 228.609267 
L 460.575056 224.776871 
L 461.238508 224.776871 
L 461.238508 220.944475 
L 461.8 220.944475 
L 461.8 220.944475 
" clip-path="url(#p81a79b21fd)" style="fill: none; stroke: #f5deb3; stroke-width: 1.5; stroke-linecap: square"/>
   </g>
   <g id="line2d_20">
    <path d="M 356.435911 293.76 
L 356.435911 289.927604 
L 356.435911 289.927604 
L 356.435911 289.927604 
L 460.8 289.927604 
" clip-path="url(#p81a79b21fd)" style="fill: none; stroke: #f5deb3; stroke-width: 1.5; stroke-linecap: square"/>
   </g>
   <g id="line2d_21"/>
   <g id="line2d_22">
    <path d="M 370.985716 293.76 
L 370.985716 289.927604 
L 390.573682 289.927604 
L 390.573682 286.095208 
L 410.431645 286.095208 
L 410.431645 282.262812 
L 420.0579 282.262812 
L 420.0579 278.430416 
L 434.792621 278.430416 
L 434.792621 274.59802 
L 434.792621 274.59802 
L 434.792621 274.59802 
L 460.8 274.59802 
" clip-path="url(#p81a79b21fd)" style="fill: none; stroke: #f5deb3; stroke-width: 1.5; stroke-linecap: square"/>
   </g>
   <g id="line2d_23">
    <path d="M 388.30354 293.76 
L 388.30354 289.927604 
L 395.515745 289.927604 
L 395.515745 286.095208 
L 395.515745 286.095208 
L 395.515745 286.095208 
L 460.8 286.095208 
" clip-path="url(#p81a79b21fd)" style="fill: none; stroke: #f5deb3; stroke-width: 1.5; stroke-linecap: square"/>
   </g>
   <g id="line2d_24">
    <path d="M 272.105078 293.76 
L 272.105078 289.927604 
L 274.979344 289.927604 
L 274.979344 286.095208 
L 276.736494 286.095208 
L 276.736494 282.262812 
L 281.017261 282.262812 
L 281.017261 278.430416 
L 283.785194 278.430416 
L 283.785194 274.59802 
L 335.038166 274.59802 
L 335.038166 270.765624 
L 336.687789 270.765624 
L 336.687789 266.933228 
L 337.07056 266.933228 
L 337.07056 263.100832 
L 337.205774 263.100832 
L 337.205774 259.268436 
L 338.497636 259.268436 
L 338.497636 255.43604 
L 338.783377 255.43604 
L 338.866703 247.771248 
L 340.211098 247.771248 
L 340.211098 243.938851 
L 340.523812 243.938851 
L 340.598938 236.274059 
L 340.767984 236.274059 
L 340.767984 232.441663 
L 341.080535 232.441663 
L 341.080535 228.609267 
L 343.325569 228.609267 
L 343.325569 224.776871 
L 345.364679 224.776871 
L 345.364679 220.944475 
L 345.869476 220.944475 
L 345.869476 217.112079 
L 346.059381 217.112079 
L 346.059381 213.279683 
L 346.807072 213.279683 
L 346.807072 209.447287 
L 346.967141 209.447287 
L 346.967141 205.614891 
L 347.18464 205.614891 
L 347.265962 197.950099 
L 347.649761 197.950099 
L 347.760078 190.285307 
L 348.186379 190.285307 
L 348.186379 186.452911 
L 348.539286 186.452911 
L 348.642599 178.788119 
L 348.882397 178.788119 
L 348.882397 174.955723 
L 349.12543 174.955723 
L 349.160286 167.290931 
L 350.535369 167.290931 
L 350.552542 159.626139 
L 351.031636 159.626139 
L 351.031636 155.793743 
L 351.701455 155.793743 
L 351.701455 151.961347 
L 352.715042 151.961347 
L 352.715042 148.12895 
L 352.979983 148.12895 
L 352.979983 144.296554 
L 355.724889 144.296554 
L 355.724889 140.464158 
L 357.456862 140.464158 
L 357.456862 136.631762 
L 361.744462 136.631762 
L 361.744462 132.799366 
L 367.505172 132.799366 
L 367.505172 128.96697 
L 367.655778 128.96697 
L 367.655778 125.134574 
L 368.370939 125.134574 
L 368.370939 121.302178 
L 370.153406 121.302178 
L 370.153406 117.469782 
L 371.047381 117.469782 
L 371.047381 113.637386 
L 372.632463 113.637386 
L 372.632463 109.80499 
L 373.55303 109.80499 
L 373.55303 105.972594 
L 377.787302 105.972594 
L 377.787302 102.140198 
L 381.808169 102.140198 
L 381.808169 98.307802 
L 382.527446 98.307802 
L 382.527446 94.475406 
L 386.04944 94.475406 
L 386.04944 90.64301 
L 391.344512 90.64301 
L 391.344512 86.810614 
L 392.197345 86.810614 
L 392.197345 82.978218 
L 393.982781 82.978218 
L 394.020591 75.313426 
L 394.248788 75.313426 
L 394.248788 71.48103 
L 396.38671 71.48103 
L 396.38671 67.648634 
L 397.440097 67.648634 
L 397.440097 63.816238 
L 415.362666 63.816238 
L 415.362666 59.983842 
L 416.081918 59.983842 
L 416.081918 56.151446 
L 417.210779 56.151446 
L 417.210779 52.31905 
L 420.838553 52.31905 
L 420.838553 48.486653 
L 426.835115 48.486653 
L 426.835115 44.654257 
L 431.517082 44.654257 
L 431.517082 40.821861 
L 432.013253 40.821861 
L 432.013253 36.989465 
L 436.354335 36.989465 
L 436.354335 33.157069 
L 438.414196 33.157069 
L 438.414196 29.324673 
L 445.202343 29.324673 
L 445.202343 25.492277 
L 447.741162 25.492277 
L 447.741162 21.659881 
L 453.192343 21.659881 
L 453.192343 17.827485 
L 454.616188 17.827485 
L 454.616188 13.995089 
L 458.636626 13.995089 
L 458.636626 10.162693 
L 461.8 10.162693 
L 461.8 10.162693 
" clip-path="url(#p81a79b21fd)" style="fill: none; stroke: #f5deb3; stroke-width: 1.5; stroke-linecap: square"/>
   </g>
   <g id="line2d_25">
    <path d="M 371.464248 293.76 
L 371.464248 289.927604 
L 374.19689 289.927604 
L 374.19689 286.095208 
L 374.362906 286.095208 
L 374.362906 282.262812 
L 375.525501 282.262812 
L 375.525501 278.430416 
L 377.020408 278.430416 
L 377.020408 274.59802 
L 377.602885 274.59802 
L 377.602885 270.765624 
L 377.851438 270.765624 
L 377.851438 266.933228 
L 378.551569 266.933228 
L 378.551569 263.100832 
L 378.58473 263.100832 
L 378.58473 259.268436 
L 380.430452 259.268436 
L 380.430452 255.43604 
L 381.433611 255.43604 
L 381.433611 251.603644 
L 400.190614 251.603644 
L 400.190614 247.771248 
L 400.764454 247.771248 
L 400.764454 243.938851 
L 401.217828 243.938851 
L 401.217828 240.106455 
L 401.607135 240.106455 
L 401.607135 236.274059 
L 401.700057 236.274059 
L 401.700057 232.441663 
L 401.92963 232.441663 
L 401.92963 228.609267 
L 402.255432 228.609267 
L 402.255432 224.776871 
L 402.287716 224.776871 
L 402.287716 220.944475 
L 402.357655 220.944475 
L 402.357655 217.112079 
L 402.359021 217.112079 
L 402.359021 213.279683 
L 402.385939 213.279683 
L 402.385939 209.447287 
L 402.394907 209.447287 
L 402.394907 205.614891 
L 402.450998 205.614891 
L 402.450998 201.782495 
L 402.596424 201.782495 
L 402.596424 197.950099 
L 402.619469 197.950099 
L 402.619469 194.117703 
L 402.730209 194.117703 
L 402.730209 190.285307 
L 403.05599 190.285307 
L 403.05599 186.452911 
L 403.203126 186.452911 
L 403.203126 182.620515 
L 403.233727 182.620515 
L 403.233727 178.788119 
L 403.316266 178.788119 
L 403.316266 174.955723 
L 403.366445 174.955723 
L 403.366445 171.123327 
L 403.624831 171.123327 
L 403.624831 167.290931 
L 403.72754 167.290931 
L 403.72754 163.458535 
L 403.917672 163.458535 
L 403.917672 159.626139 
L 409.266617 159.626139 
L 409.266617 155.793743 
L 432.469579 155.793743 
L 432.469579 151.961347 
L 432.469579 151.961347 
L 432.469579 151.961347 
L 460.8 151.961347 
" clip-path="url(#p81a79b21fd)" style="fill: none; stroke: #f5deb3; stroke-width: 1.5; stroke-linecap: square"/>
   </g>
   <g id="line2d_26">
    <path d="M 323.135853 293.76 
L 323.135853 289.927604 
L 325.680173 289.927604 
L 325.680173 286.095208 
L 332.599202 286.095208 
L 332.599202 282.262812 
L 333.672341 282.262812 
L 333.672341 278.430416 
L 334.818064 278.430416 
L 334.818064 274.59802 
L 336.265037 274.59802 
L 336.265037 270.765624 
L 338.691608 270.765624 
L 338.691608 266.933228 
L 345.220129 266.933228 
L 345.220129 263.100832 
L 348.486491 263.100832 
L 348.486491 259.268436 
L 356.980942 259.268436 
L 356.980942 255.43604 
L 358.801422 255.43604 
L 358.801422 251.603644 
L 368.016434 251.603644 
L 368.016434 247.771248 
L 373.460004 247.771248 
L 373.460004 243.938851 
L 374.288764 243.938851 
L 374.288764 240.106455 
L 379.572436 240.106455 
L 379.572436 236.274059 
L 384.367414 236.274059 
L 384.367414 232.441663 
L 386.434349 232.441663 
L 386.434349 228.609267 
L 388.961358 228.609267 
L 388.961358 224.776871 
L 391.048406 224.776871 
L 391.048406 220.944475 
L 391.804733 220.944475 
L 391.804733 217.112079 
L 391.804733 217.112079 
L 391.804733 217.112079 
L 460.8 217.112079 
" clip-path="url(#p81a79b21fd)" style="fill: none; stroke: #f5deb3; stroke-width: 1.5; stroke-linecap: square"/>
   </g>
   <g id="line2d_27"/>
   <g id="line2d_28">
    <path d="M 263.671516 293.76 
L 263.671516 289.927604 
L 275.487037 289.927604 
L 275.487037 286.095208 
L 313.275943 286.095208 
L 313.275943 282.262812 
L 324.570478 282.262812 
L 324.570478 278.430416 
L 327.809679 278.430416 
L 327.809679 274.59802 
L 329.724023 274.59802 
L 329.724023 270.765624 
L 345.165054 270.765624 
L 345.165054 266.933228 
L 345.851857 266.933228 
L 345.851857 263.100832 
L 347.517095 263.100832 
L 347.517095 259.268436 
L 348.220203 259.268436 
L 348.220203 255.43604 
L 349.154314 255.43604 
L 349.154314 251.603644 
L 351.054186 251.603644 
L 351.054186 247.771248 
L 351.964669 247.771248 
L 351.964669 243.938851 
L 352.907294 243.938851 
L 352.907294 240.106455 
L 353.464264 240.106455 
L 353.464264 236.274059 
L 358.629833 236.274059 
L 358.629833 232.441663 
L 358.826602 232.441663 
L 358.826602 228.609267 
L 359.329802 228.609267 
L 359.402618 220.944475 
L 359.690104 220.944475 
L 359.690104 217.112079 
L 366.591317 217.112079 
L 366.591317 213.279683 
L 368.304001 213.279683 
L 368.304001 209.447287 
L 369.073476 209.447287 
L 369.073476 205.614891 
L 369.673711 205.614891 
L 369.673711 201.782495 
L 370.150789 201.782495 
L 370.234936 194.117703 
L 372.134446 194.117703 
L 372.134446 190.285307 
L 372.276953 190.285307 
L 372.276953 186.452911 
L 372.752527 186.452911 
L 372.752527 182.620515 
L 375.656187 182.620515 
L 375.656187 178.788119 
L 376.908698 178.788119 
L 376.908698 174.955723 
L 377.062784 174.955723 
L 377.062784 171.123327 
L 377.260372 171.123327 
L 377.260372 167.290931 
L 377.945139 167.290931 
L 377.945139 163.458535 
L 378.899287 163.458535 
L 378.899287 159.626139 
L 380.073654 159.626139 
L 380.075971 151.961347 
L 380.33635 151.961347 
L 380.33635 148.12895 
L 381.337903 148.12895 
L 381.337903 144.296554 
L 381.716859 144.296554 
L 381.716859 140.464158 
L 382.322623 140.464158 
L 382.322623 136.631762 
L 382.734196 136.631762 
L 382.734196 132.799366 
L 383.29951 132.799366 
L 383.29951 128.96697 
L 383.628794 128.96697 
L 383.628794 125.134574 
L 385.158175 125.134574 
L 385.158175 121.302178 
L 386.594136 121.302178 
L 386.594136 117.469782 
L 386.753774 117.469782 
L 386.753774 113.637386 
L 387.278579 113.637386 
L 387.278579 109.80499 
L 388.571058 109.80499 
L 388.571058 105.972594 
L 389.391493 105.972594 
L 389.391493 102.140198 
L 396.714963 102.140198 
L 396.714963 98.307802 
L 399.549347 98.307802 
L 399.549347 94.475406 
L 403.70826 94.475406 
L 403.70826 90.64301 
L 404.068207 90.64301 
L 404.068207 86.810614 
L 404.412503 86.810614 
L 404.412503 82.978218 
L 406.954446 82.978218 
L 406.954446 79.145822 
L 407.442225 79.145822 
L 407.442225 75.313426 
L 411.785704 75.313426 
L 411.785704 71.48103 
L 412.899427 71.48103 
L 412.899427 67.648634 
L 416.915744 67.648634 
L 416.915744 63.816238 
L 417.076652 63.816238 
L 417.076652 59.983842 
L 436.709114 59.983842 
L 436.709114 56.151446 
L 436.862626 56.151446 
L 436.862626 52.31905 
L 437.115517 52.31905 
L 437.115517 48.486653 
L 439.719663 48.486653 
L 439.719663 44.654257 
L 447.92641 44.654257 
L 447.92641 40.821861 
L 461.8 40.821861 
L 461.8 40.821861 
" clip-path="url(#p81a79b21fd)" style="fill: none; stroke: #f5deb3; stroke-width: 1.5; stroke-linecap: square"/>
   </g>
   <g id="line2d_29"/>
   <g id="line2d_30"/>
   <g id="matplotlib.axis_1">
    <g id="xtick_1">
     <g id="line2d_31">
      <path d="M 62.208 293.76 
L 62.208 3.456 
" clip-path="url(#p81a79b21fd)" style="fill: none; stroke: #b0b0b0; stroke-width: 0.8; stroke-linecap: square"/>
     </g>
     <g id="line2d_32">
      <defs>
       <path id="m9042de46ea" d="M 0 0 
L 0 3.5 
" style="stroke: #000000; stroke-width: 0.8"/>
      </defs>
      <g>
       <use xlink:href="#m9042de46ea" x="62.208" y="293.76" style="stroke: #000000; stroke-width: 0.8"/>
      </g>
     </g>
     <g id="text_1">
      <!-- 0 -->
      <g transform="translate(55.8455 315.956875)scale(0.2 -0.2)">
       <defs>
        <path id="DejaVuSans-30" d="M 2034 4250 
Q 1547 4250 1301 3770 
Q 1056 3291 1056 2328 
Q 1056 1369 1301 889 
Q 1547 409 2034 409 
Q 2525 409 2770 889 
Q 3016 1369 3016 2328 
Q 3016 3291 2770 3770 
Q 2525 4250 2034 4250 
z
M 2034 4750 
Q 2819 4750 3233 4129 
Q 3647 3509 3647 2328 
Q 3647 1150 3233 529 
Q 2819 -91 2034 -91 
Q 1250 -91 836 529 
Q 422 1150 422 2328 
Q 422 3509 836 4129 
Q 1250 4750 2034 4750 
z
" transform="scale(0.015625)"/>
       </defs>
       <use xlink:href="#DejaVuSans-30"/>
      </g>
     </g>
    </g>
    <g id="xtick_2">
     <g id="line2d_33">
      <path d="M 212.565624 293.76 
L 212.565624 3.456 
" clip-path="url(#p81a79b21fd)" style="fill: none; stroke: #b0b0b0; stroke-width: 0.8; stroke-linecap: square"/>
     </g>
     <g id="line2d_34">
      <g>
       <use xlink:href="#m9042de46ea" x="212.565624" y="293.76" style="stroke: #000000; stroke-width: 0.8"/>
      </g>
     </g>
     <g id="text_2">
      <!-- 2 -->
      <g transform="translate(206.203124 315.956875)scale(0.2 -0.2)">
       <defs>
        <path id="DejaVuSans-32" d="M 1228 531 
L 3431 531 
L 3431 0 
L 469 0 
L 469 531 
Q 828 903 1448 1529 
Q 2069 2156 2228 2338 
Q 2531 2678 2651 2914 
Q 2772 3150 2772 3378 
Q 2772 3750 2511 3984 
Q 2250 4219 1831 4219 
Q 1534 4219 1204 4116 
Q 875 4013 500 3803 
L 500 4441 
Q 881 4594 1212 4672 
Q 1544 4750 1819 4750 
Q 2544 4750 2975 4387 
Q 3406 4025 3406 3419 
Q 3406 3131 3298 2873 
Q 3191 2616 2906 2266 
Q 2828 2175 2409 1742 
Q 1991 1309 1228 531 
z
" transform="scale(0.015625)"/>
       </defs>
       <use xlink:href="#DejaVuSans-32"/>
      </g>
     </g>
    </g>
    <g id="xtick_3">
     <g id="line2d_35">
      <path d="M 362.923247 293.76 
L 362.923247 3.456 
" clip-path="url(#p81a79b21fd)" style="fill: none; stroke: #b0b0b0; stroke-width: 0.8; stroke-linecap: square"/>
     </g>
     <g id="line2d_36">
      <g>
       <use xlink:href="#m9042de46ea" x="362.923247" y="293.76" style="stroke: #000000; stroke-width: 0.8"/>
      </g>
     </g>
     <g id="text_3">
      <!-- 4 -->
      <g transform="translate(356.560747 315.956875)scale(0.2 -0.2)">
       <defs>
        <path id="DejaVuSans-34" d="M 2419 4116 
L 825 1625 
L 2419 1625 
L 2419 4116 
z
M 2253 4666 
L 3047 4666 
L 3047 1625 
L 3713 1625 
L 3713 1100 
L 3047 1100 
L 3047 0 
L 2419 0 
L 2419 1100 
L 313 1100 
L 313 1709 
L 2253 4666 
z
" transform="scale(0.015625)"/>
       </defs>
       <use xlink:href="#DejaVuSans-34"/>
      </g>
     </g>
    </g>
    <g id="text_4">
     <!-- log10 of FEvals / DIM -->
     <g transform="translate(156.430563 339.313125)scale(0.2 -0.2)">
      <defs>
       <path id="DejaVuSans-6c" d="M 603 4863 
L 1178 4863 
L 1178 0 
L 603 0 
L 603 4863 
z
" transform="scale(0.015625)"/>
       <path id="DejaVuSans-6f" d="M 1959 3097 
Q 1497 3097 1228 2736 
Q 959 2375 959 1747 
Q 959 1119 1226 758 
Q 1494 397 1959 397 
Q 2419 397 2687 759 
Q 2956 1122 2956 1747 
Q 2956 2369 2687 2733 
Q 2419 3097 1959 3097 
z
M 1959 3584 
Q 2709 3584 3137 3096 
Q 3566 2609 3566 1747 
Q 3566 888 3137 398 
Q 2709 -91 1959 -91 
Q 1206 -91 779 398 
Q 353 888 353 1747 
Q 353 2609 779 3096 
Q 1206 3584 1959 3584 
z
" transform="scale(0.015625)"/>
       <path id="DejaVuSans-67" d="M 2906 1791 
Q 2906 2416 2648 2759 
Q 2391 3103 1925 3103 
Q 1463 3103 1205 2759 
Q 947 2416 947 1791 
Q 947 1169 1205 825 
Q 1463 481 1925 481 
Q 2391 481 2648 825 
Q 2906 1169 2906 1791 
z
M 3481 434 
Q 3481 -459 3084 -895 
Q 2688 -1331 1869 -1331 
Q 1566 -1331 1297 -1286 
Q 1028 -1241 775 -1147 
L 775 -588 
Q 1028 -725 1275 -790 
Q 1522 -856 1778 -856 
Q 2344 -856 2625 -561 
Q 2906 -266 2906 331 
L 2906 616 
Q 2728 306 2450 153 
Q 2172 0 1784 0 
Q 1141 0 747 490 
Q 353 981 353 1791 
Q 353 2603 747 3093 
Q 1141 3584 1784 3584 
Q 2172 3584 2450 3431 
Q 2728 3278 2906 2969 
L 2906 3500 
L 3481 3500 
L 3481 434 
z
" transform="scale(0.015625)"/>
       <path id="DejaVuSans-31" d="M 794 531 
L 1825 531 
L 1825 4091 
L 703 3866 
L 703 4441 
L 1819 4666 
L 2450 4666 
L 2450 531 
L 3481 531 
L 3481 0 
L 794 0 
L 794 531 
z
" transform="scale(0.015625)"/>
       <path id="DejaVuSans-20" transform="scale(0.015625)"/>
       <path id="DejaVuSans-66" d="M 2375 4863 
L 2375 4384 
L 1825 4384 
Q 1516 4384 1395 4259 
Q 1275 4134 1275 3809 
L 1275 3500 
L 2222 3500 
L 2222 3053 
L 1275 3053 
L 1275 0 
L 697 0 
L 697 3053 
L 147 3053 
L 147 3500 
L 697 3500 
L 697 3744 
Q 697 4328 969 4595 
Q 1241 4863 1831 4863 
L 2375 4863 
z
" transform="scale(0.015625)"/>
       <path id="DejaVuSans-46" d="M 628 4666 
L 3309 4666 
L 3309 4134 
L 1259 4134 
L 1259 2759 
L 3109 2759 
L 3109 2228 
L 1259 2228 
L 1259 0 
L 628 0 
L 628 4666 
z
" transform="scale(0.015625)"/>
       <path id="DejaVuSans-45" d="M 628 4666 
L 3578 4666 
L 3578 4134 
L 1259 4134 
L 1259 2753 
L 3481 2753 
L 3481 2222 
L 1259 2222 
L 1259 531 
L 3634 531 
L 3634 0 
L 628 0 
L 628 4666 
z
" transform="scale(0.015625)"/>
       <path id="DejaVuSans-76" d="M 191 3500 
L 800 3500 
L 1894 563 
L 2988 3500 
L 3597 3500 
L 2284 0 
L 1503 0 
L 191 3500 
z
" transform="scale(0.015625)"/>
       <path id="DejaVuSans-61" d="M 2194 1759 
Q 1497 1759 1228 1600 
Q 959 1441 959 1056 
Q 959 750 1161 570 
Q 1363 391 1709 391 
Q 2188 391 2477 730 
Q 2766 1069 2766 1631 
L 2766 1759 
L 2194 1759 
z
M 3341 1997 
L 3341 0 
L 2766 0 
L 2766 531 
Q 2569 213 2275 61 
Q 1981 -91 1556 -91 
Q 1019 -91 701 211 
Q 384 513 384 1019 
Q 384 1609 779 1909 
Q 1175 2209 1959 2209 
L 2766 2209 
L 2766 2266 
Q 2766 2663 2505 2880 
Q 2244 3097 1772 3097 
Q 1472 3097 1187 3025 
Q 903 2953 641 2809 
L 641 3341 
Q 956 3463 1253 3523 
Q 1550 3584 1831 3584 
Q 2591 3584 2966 3190 
Q 3341 2797 3341 1997 
z
" transform="scale(0.015625)"/>
       <path id="DejaVuSans-73" d="M 2834 3397 
L 2834 2853 
Q 2591 2978 2328 3040 
Q 2066 3103 1784 3103 
Q 1356 3103 1142 2972 
Q 928 2841 928 2578 
Q 928 2378 1081 2264 
Q 1234 2150 1697 2047 
L 1894 2003 
Q 2506 1872 2764 1633 
Q 3022 1394 3022 966 
Q 3022 478 2636 193 
Q 2250 -91 1575 -91 
Q 1294 -91 989 -36 
Q 684 19 347 128 
L 347 722 
Q 666 556 975 473 
Q 1284 391 1588 391 
Q 1994 391 2212 530 
Q 2431 669 2431 922 
Q 2431 1156 2273 1281 
Q 2116 1406 1581 1522 
L 1381 1569 
Q 847 1681 609 1914 
Q 372 2147 372 2553 
Q 372 3047 722 3315 
Q 1072 3584 1716 3584 
Q 2034 3584 2315 3537 
Q 2597 3491 2834 3397 
z
" transform="scale(0.015625)"/>
       <path id="DejaVuSans-2f" d="M 1625 4666 
L 2156 4666 
L 531 -594 
L 0 -594 
L 1625 4666 
z
" transform="scale(0.015625)"/>
       <path id="DejaVuSans-44" d="M 1259 4147 
L 1259 519 
L 2022 519 
Q 2988 519 3436 956 
Q 3884 1394 3884 2338 
Q 3884 3275 3436 3711 
Q 2988 4147 2022 4147 
L 1259 4147 
z
M 628 4666 
L 1925 4666 
Q 3281 4666 3915 4102 
Q 4550 3538 4550 2338 
Q 4550 1131 3912 565 
Q 3275 0 1925 0 
L 628 0 
L 628 4666 
z
" transform="scale(0.015625)"/>
       <path id="DejaVuSans-49" d="M 628 4666 
L 1259 4666 
L 1259 0 
L 628 0 
L 628 4666 
z
" transform="scale(0.015625)"/>
       <path id="DejaVuSans-4d" d="M 628 4666 
L 1569 4666 
L 2759 1491 
L 3956 4666 
L 4897 4666 
L 4897 0 
L 4281 0 
L 4281 4097 
L 3078 897 
L 2444 897 
L 1241 4097 
L 1241 0 
L 628 0 
L 628 4666 
z
" transform="scale(0.015625)"/>
      </defs>
      <use xlink:href="#DejaVuSans-6c"/>
      <use xlink:href="#DejaVuSans-6f" x="27.783203"/>
      <use xlink:href="#DejaVuSans-67" x="88.964844"/>
      <use xlink:href="#DejaVuSans-31" x="152.441406"/>
      <use xlink:href="#DejaVuSans-30" x="216.064453"/>
      <use xlink:href="#DejaVuSans-20" x="279.6875"/>
      <use xlink:href="#DejaVuSans-6f" x="311.474609"/>
      <use xlink:href="#DejaVuSans-66" x="372.65625"/>
      <use xlink:href="#DejaVuSans-20" x="407.861328"/>
      <use xlink:href="#DejaVuSans-46" x="439.648438"/>
      <use xlink:href="#DejaVuSans-45" x="497.167969"/>
      <use xlink:href="#DejaVuSans-76" x="560.351562"/>
      <use xlink:href="#DejaVuSans-61" x="619.53125"/>
      <use xlink:href="#DejaVuSans-6c" x="680.810547"/>
      <use xlink:href="#DejaVuSans-73" x="708.59375"/>
      <use xlink:href="#DejaVuSans-20" x="760.693359"/>
      <use xlink:href="#DejaVuSans-2f" x="792.480469"/>
      <use xlink:href="#DejaVuSans-20" x="826.171875"/>
      <use xlink:href="#DejaVuSans-44" x="857.958984"/>
      <use xlink:href="#DejaVuSans-49" x="934.960938"/>
      <use xlink:href="#DejaVuSans-4d" x="964.453125"/>
     </g>
    </g>
   </g>
   <g id="matplotlib.axis_2">
    <g id="ytick_1">
     <g id="line2d_37">
      <path d="M 62.208 293.76 
L 460.8 293.76 
" clip-path="url(#p81a79b21fd)" style="fill: none; stroke: #b0b0b0; stroke-width: 0.8; stroke-linecap: square"/>
     </g>
     <g id="line2d_38">
      <defs>
       <path id="mf86e2beb52" d="M 0 0 
L -3.5 0 
" style="stroke: #000000; stroke-width: 0.8"/>
      </defs>
      <g>
       <use xlink:href="#mf86e2beb52" x="62.208" y="293.76" style="stroke: #000000; stroke-width: 0.8"/>
      </g>
     </g>
     <g id="text_5">
      <!-- 0.0 -->
      <g transform="translate(29.763 299.83875)scale(0.16 -0.16)">
       <defs>
        <path id="DejaVuSans-2e" d="M 684 794 
L 1344 794 
L 1344 0 
L 684 0 
L 684 794 
z
" transform="scale(0.015625)"/>
       </defs>
       <use xlink:href="#DejaVuSans-30"/>
       <use xlink:href="#DejaVuSans-2e" x="63.623047"/>
       <use xlink:href="#DejaVuSans-30" x="95.410156"/>
      </g>
     </g>
    </g>
    <g id="ytick_2">
     <g id="line2d_39">
      <path d="M 62.208 236.274059 
L 460.8 236.274059 
" clip-path="url(#p81a79b21fd)" style="fill: none; stroke: #b0b0b0; stroke-width: 0.8; stroke-linecap: square"/>
     </g>
     <g id="line2d_40">
      <g>
       <use xlink:href="#mf86e2beb52" x="62.208" y="236.274059" style="stroke: #000000; stroke-width: 0.8"/>
      </g>
     </g>
     <g id="text_6">
      <!-- 0.2 -->
      <g transform="translate(29.763 242.352809)scale(0.16 -0.16)">
       <use xlink:href="#DejaVuSans-30"/>
       <use xlink:href="#DejaVuSans-2e" x="63.623047"/>
       <use xlink:href="#DejaVuSans-32" x="95.410156"/>
      </g>
     </g>
    </g>
    <g id="ytick_3">
     <g id="line2d_41">
      <path d="M 62.208 178.788119 
L 460.8 178.788119 
" clip-path="url(#p81a79b21fd)" style="fill: none; stroke: #b0b0b0; stroke-width: 0.8; stroke-linecap: square"/>
     </g>
     <g id="line2d_42">
      <g>
       <use xlink:href="#mf86e2beb52" x="62.208" y="178.788119" style="stroke: #000000; stroke-width: 0.8"/>
      </g>
     </g>
     <g id="text_7">
      <!-- 0.4 -->
      <g transform="translate(29.763 184.866869)scale(0.16 -0.16)">
       <use xlink:href="#DejaVuSans-30"/>
       <use xlink:href="#DejaVuSans-2e" x="63.623047"/>
       <use xlink:href="#DejaVuSans-34" x="95.410156"/>
      </g>
     </g>
    </g>
    <g id="ytick_4">
     <g id="line2d_43">
      <path d="M 62.208 121.302178 
L 460.8 121.302178 
" clip-path="url(#p81a79b21fd)" style="fill: none; stroke: #b0b0b0; stroke-width: 0.8; stroke-linecap: square"/>
     </g>
     <g id="line2d_44">
      <g>
       <use xlink:href="#mf86e2beb52" x="62.208" y="121.302178" style="stroke: #000000; stroke-width: 0.8"/>
      </g>
     </g>
     <g id="text_8">
      <!-- 0.6 -->
      <g transform="translate(29.763 127.380928)scale(0.16 -0.16)">
       <defs>
        <path id="DejaVuSans-36" d="M 2113 2584 
Q 1688 2584 1439 2293 
Q 1191 2003 1191 1497 
Q 1191 994 1439 701 
Q 1688 409 2113 409 
Q 2538 409 2786 701 
Q 3034 994 3034 1497 
Q 3034 2003 2786 2293 
Q 2538 2584 2113 2584 
z
M 3366 4563 
L 3366 3988 
Q 3128 4100 2886 4159 
Q 2644 4219 2406 4219 
Q 1781 4219 1451 3797 
Q 1122 3375 1075 2522 
Q 1259 2794 1537 2939 
Q 1816 3084 2150 3084 
Q 2853 3084 3261 2657 
Q 3669 2231 3669 1497 
Q 3669 778 3244 343 
Q 2819 -91 2113 -91 
Q 1303 -91 875 529 
Q 447 1150 447 2328 
Q 447 3434 972 4092 
Q 1497 4750 2381 4750 
Q 2619 4750 2861 4703 
Q 3103 4656 3366 4563 
z
" transform="scale(0.015625)"/>
       </defs>
       <use xlink:href="#DejaVuSans-30"/>
       <use xlink:href="#DejaVuSans-2e" x="63.623047"/>
       <use xlink:href="#DejaVuSans-36" x="95.410156"/>
      </g>
     </g>
    </g>
    <g id="ytick_5">
     <g id="line2d_45">
      <path d="M 62.208 63.816238 
L 460.8 63.816238 
" clip-path="url(#p81a79b21fd)" style="fill: none; stroke: #b0b0b0; stroke-width: 0.8; stroke-linecap: square"/>
     </g>
     <g id="line2d_46">
      <g>
       <use xlink:href="#mf86e2beb52" x="62.208" y="63.816238" style="stroke: #000000; stroke-width: 0.8"/>
      </g>
     </g>
     <g id="text_9">
      <!-- 0.8 -->
      <g transform="translate(29.763 69.894988)scale(0.16 -0.16)">
       <defs>
        <path id="DejaVuSans-38" d="M 2034 2216 
Q 1584 2216 1326 1975 
Q 1069 1734 1069 1313 
Q 1069 891 1326 650 
Q 1584 409 2034 409 
Q 2484 409 2743 651 
Q 3003 894 3003 1313 
Q 3003 1734 2745 1975 
Q 2488 2216 2034 2216 
z
M 1403 2484 
Q 997 2584 770 2862 
Q 544 3141 544 3541 
Q 544 4100 942 4425 
Q 1341 4750 2034 4750 
Q 2731 4750 3128 4425 
Q 3525 4100 3525 3541 
Q 3525 3141 3298 2862 
Q 3072 2584 2669 2484 
Q 3125 2378 3379 2068 
Q 3634 1759 3634 1313 
Q 3634 634 3220 271 
Q 2806 -91 2034 -91 
Q 1263 -91 848 271 
Q 434 634 434 1313 
Q 434 1759 690 2068 
Q 947 2378 1403 2484 
z
M 1172 3481 
Q 1172 3119 1398 2916 
Q 1625 2713 2034 2713 
Q 2441 2713 2670 2916 
Q 2900 3119 2900 3481 
Q 2900 3844 2670 4047 
Q 2441 4250 2034 4250 
Q 1625 4250 1398 4047 
Q 1172 3844 1172 3481 
z
" transform="scale(0.015625)"/>
       </defs>
       <use xlink:href="#DejaVuSans-30"/>
       <use xlink:href="#DejaVuSans-2e" x="63.623047"/>
       <use xlink:href="#DejaVuSans-38" x="95.410156"/>
      </g>
     </g>
    </g>
    <g id="ytick_6">
     <g id="line2d_47">
      <path d="M 62.208 6.330297 
L 460.8 6.330297 
" clip-path="url(#p81a79b21fd)" style="fill: none; stroke: #b0b0b0; stroke-width: 0.8; stroke-linecap: square"/>
     </g>
     <g id="line2d_48">
      <g>
       <use xlink:href="#mf86e2beb52" x="62.208" y="6.330297" style="stroke: #000000; stroke-width: 0.8"/>
      </g>
     </g>
     <g id="text_10">
      <!-- 1.0 -->
      <g transform="translate(29.763 12.409047)scale(0.16 -0.16)">
       <use xlink:href="#DejaVuSans-31"/>
       <use xlink:href="#DejaVuSans-2e" x="63.623047"/>
       <use xlink:href="#DejaVuSans-30" x="95.410156"/>
      </g>
     </g>
    </g>
    <g id="text_11">
     <!-- proportion of trials -->
     <g transform="translate(21.603625 241.61425)rotate(-90)scale(0.2 -0.2)">
      <defs>
       <path id="DejaVuSans-70" d="M 1159 525 
L 1159 -1331 
L 581 -1331 
L 581 3500 
L 1159 3500 
L 1159 2969 
Q 1341 3281 1617 3432 
Q 1894 3584 2278 3584 
Q 2916 3584 3314 3078 
Q 3713 2572 3713 1747 
Q 3713 922 3314 415 
Q 2916 -91 2278 -91 
Q 1894 -91 1617 61 
Q 1341 213 1159 525 
z
M 3116 1747 
Q 3116 2381 2855 2742 
Q 2594 3103 2138 3103 
Q 1681 3103 1420 2742 
Q 1159 2381 1159 1747 
Q 1159 1113 1420 752 
Q 1681 391 2138 391 
Q 2594 391 2855 752 
Q 3116 1113 3116 1747 
z
" transform="scale(0.015625)"/>
       <path id="DejaVuSans-72" d="M 2631 2963 
Q 2534 3019 2420 3045 
Q 2306 3072 2169 3072 
Q 1681 3072 1420 2755 
Q 1159 2438 1159 1844 
L 1159 0 
L 581 0 
L 581 3500 
L 1159 3500 
L 1159 2956 
Q 1341 3275 1631 3429 
Q 1922 3584 2338 3584 
Q 2397 3584 2469 3576 
Q 2541 3569 2628 3553 
L 2631 2963 
z
" transform="scale(0.015625)"/>
       <path id="DejaVuSans-74" d="M 1172 4494 
L 1172 3500 
L 2356 3500 
L 2356 3053 
L 1172 3053 
L 1172 1153 
Q 1172 725 1289 603 
Q 1406 481 1766 481 
L 2356 481 
L 2356 0 
L 1766 0 
Q 1100 0 847 248 
Q 594 497 594 1153 
L 594 3053 
L 172 3053 
L 172 3500 
L 594 3500 
L 594 4494 
L 1172 4494 
z
" transform="scale(0.015625)"/>
       <path id="DejaVuSans-69" d="M 603 3500 
L 1178 3500 
L 1178 0 
L 603 0 
L 603 3500 
z
M 603 4863 
L 1178 4863 
L 1178 4134 
L 603 4134 
L 603 4863 
z
" transform="scale(0.015625)"/>
       <path id="DejaVuSans-6e" d="M 3513 2113 
L 3513 0 
L 2938 0 
L 2938 2094 
Q 2938 2591 2744 2837 
Q 2550 3084 2163 3084 
Q 1697 3084 1428 2787 
Q 1159 2491 1159 1978 
L 1159 0 
L 581 0 
L 581 3500 
L 1159 3500 
L 1159 2956 
Q 1366 3272 1645 3428 
Q 1925 3584 2291 3584 
Q 2894 3584 3203 3211 
Q 3513 2838 3513 2113 
z
" transform="scale(0.015625)"/>
      </defs>
      <use xlink:href="#DejaVuSans-70"/>
      <use xlink:href="#DejaVuSans-72" x="63.476562"/>
      <use xlink:href="#DejaVuSans-6f" x="102.339844"/>
      <use xlink:href="#DejaVuSans-70" x="163.521484"/>
      <use xlink:href="#DejaVuSans-6f" x="226.998047"/>
      <use xlink:href="#DejaVuSans-72" x="288.179688"/>
      <use xlink:href="#DejaVuSans-74" x="329.292969"/>
      <use xlink:href="#DejaVuSans-69" x="368.501953"/>
      <use xlink:href="#DejaVuSans-6f" x="396.285156"/>
      <use xlink:href="#DejaVuSans-6e" x="457.466797"/>
      <use xlink:href="#DejaVuSans-20" x="520.845703"/>
      <use xlink:href="#DejaVuSans-6f" x="552.632812"/>
      <use xlink:href="#DejaVuSans-66" x="613.814453"/>
      <use xlink:href="#DejaVuSans-20" x="649.019531"/>
      <use xlink:href="#DejaVuSans-74" x="680.806641"/>
      <use xlink:href="#DejaVuSans-72" x="720.015625"/>
      <use xlink:href="#DejaVuSans-69" x="761.128906"/>
      <use xlink:href="#DejaVuSans-61" x="788.912109"/>
      <use xlink:href="#DejaVuSans-6c" x="850.191406"/>
      <use xlink:href="#DejaVuSans-73" x="877.974609"/>
     </g>
    </g>
   </g>
   <g id="line2d_49">
    <path d="M 9.660266 293.76 
L 9.660266 213.279683 
L 54.92242 213.279683 
L 54.92242 201.782495 
L 77.553498 201.782495 
L 77.553498 197.950099 
L 81.399084 197.950099 
L 81.399084 190.285307 
L 84.839077 190.285307 
L 84.839077 186.452911 
L 90.791829 186.452911 
L 90.791829 182.620515 
L 93.405203 182.620515 
L 93.405203 178.788119 
L 104.030161 178.788119 
L 104.030161 174.955723 
L 107.470155 174.955723 
L 107.470155 171.123327 
L 110.582008 171.123327 
L 110.582008 167.290931 
L 126.661238 167.290931 
L 126.661238 163.458535 
L 135.366596 163.458535 
L 135.366596 159.626139 
L 141.086964 159.626139 
L 141.086964 155.793743 
L 142.232687 155.793743 
L 142.232687 151.961347 
L 145.952938 151.961347 
L 145.952938 148.12895 
L 156.93867 148.12895 
L 156.93867 144.296554 
L 160.017889 144.296554 
L 160.017889 140.464158 
L 173.256221 140.464158 
L 173.256221 136.631762 
L 173.473163 136.631762 
L 173.473163 132.799366 
L 174.3268 132.799366 
L 174.3268 128.96697 
L 177.724638 128.96697 
L 177.724638 125.134574 
L 178.47524 125.134574 
L 178.47524 121.302178 
L 178.844167 121.302178 
L 178.844167 117.469782 
L 180.279552 117.469782 
L 180.279552 113.637386 
L 180.974254 113.637386 
L 180.974254 109.80499 
L 181.822347 109.80499 
L 181.822347 105.972594 
L 183.455174 105.972594 
L 183.455174 102.140198 
L 185.612073 102.140198 
L 185.612073 98.307802 
L 188.737477 98.307802 
L 188.737477 94.475406 
L 189.407926 94.475406 
L 189.407926 90.64301 
L 190.708885 90.64301 
L 190.708885 86.810614 
L 193.046399 86.810614 
L 193.046399 82.978218 
L 195.227685 82.978218 
L 195.227685 79.145822 
L 196.104241 79.145822 
L 196.104241 75.313426 
L 197.892274 75.313426 
L 197.892274 71.48103 
L 198.900062 71.48103 
L 198.900062 67.648634 
L 205.116386 67.648634 
L 205.116386 63.816238 
L 211.368554 63.816238 
L 211.368554 59.983842 
L 211.571138 59.983842 
L 211.571138 56.151446 
L 212.039003 56.151446 
L 212.039003 52.31905 
L 212.565624 52.31905 
L 212.565624 48.486653 
L 215.199083 48.486653 
L 215.199083 44.654257 
L 216.031727 44.654257 
L 216.031727 40.821861 
L 220.676517 40.821861 
L 220.676517 36.989465 
L 221.332055 36.989465 
L 221.332055 33.157069 
L 222.023604 33.157069 
L 222.023604 29.324673 
L 223.128851 29.324673 
L 223.128851 25.492277 
L 226.107273 25.492277 
L 226.107273 21.659881 
L 229.8905 21.659881 
L 229.8905 17.827485 
L 232.651277 17.827485 
L 232.651277 13.995089 
L 263.616872 13.995089 
L 263.616872 10.162693 
L 279.261786 10.162693 
L 279.261786 6.330297 
L 279.261786 6.330297 
L 460.8 6.330297 
L 460.8 6.330297 
" clip-path="url(#p81a79b21fd)" style="fill: none; stroke: #000000; stroke-width: 1.5; stroke-linecap: square"/>
   </g>
   <g id="line2d_50">
    <path clip-path="url(#p81a79b21fd)" style="fill: none; stroke: #000000; stroke-width: 1.5; stroke-linecap: square"/>
   </g>
   <g id="line2d_51">
    <path d="M 190.324011 293.76 
L 190.324011 289.927604 
L 190.452807 289.927604 
L 190.452807 286.095208 
L 193.517884 286.095208 
L 193.517884 282.262812 
L 197.480285 282.262812 
L 197.480285 274.59802 
L 206.165788 274.59802 
L 206.165788 270.765624 
L 207.489082 270.765624 
L 207.489082 266.933228 
L 208.018753 266.933228 
L 208.018753 263.100832 
L 208.760824 263.100832 
L 208.760824 259.268436 
L 213.971505 259.268436 
L 213.971505 255.43604 
L 215.4989 255.43604 
L 215.4989 251.603644 
L 215.91407 251.603644 
L 215.91407 247.771248 
L 217.411499 247.771248 
L 217.411499 243.938851 
L 219.588955 243.938851 
L 219.588955 240.106455 
L 220.625542 240.106455 
L 220.625542 236.274059 
L 220.930207 236.274059 
L 220.930207 232.441663 
L 221.232056 232.441663 
L 221.232056 228.609267 
L 224.742081 228.609267 
L 224.742081 224.776871 
L 225.09989 224.776871 
L 225.09989 220.944475 
L 227.951908 220.944475 
L 227.951908 217.112079 
L 228.356997 217.112079 
L 228.356997 213.279683 
L 228.994863 213.279683 
L 228.994863 209.447287 
L 231.171046 209.447287 
L 231.207959 201.782495 
L 234.670081 201.782495 
L 234.670081 197.950099 
L 236.066553 197.950099 
L 236.066553 194.117703 
L 240.573024 194.117703 
L 240.573024 190.285307 
L 263.78053 190.285307 
L 263.78053 186.452911 
L 264.533606 186.452911 
L 264.533606 182.620515 
L 267.758864 182.620515 
L 267.758864 178.788119 
L 270.913388 178.788119 
L 270.913388 174.955723 
L 271.185607 174.955723 
L 271.185607 171.123327 
L 273.929675 171.123327 
L 273.929675 167.290931 
L 274.207631 167.290931 
L 274.207631 163.458535 
L 274.463632 163.458535 
L 274.463632 159.626139 
L 275.883827 159.626139 
L 275.883827 155.793743 
L 276.745641 155.793743 
L 276.745641 151.961347 
L 276.900747 151.961347 
L 276.900747 148.12895 
L 278.534018 148.12895 
L 278.534018 144.296554 
L 283.339862 144.296554 
L 283.339862 140.464158 
L 292.125417 140.464158 
L 292.125417 136.631762 
L 292.279224 136.631762 
L 292.279224 132.799366 
L 294.846663 132.799366 
L 294.846663 128.96697 
L 295.378158 128.96697 
L 295.378158 125.134574 
L 295.743078 125.134574 
L 295.743078 121.302178 
L 295.916395 121.302178 
L 295.916395 117.469782 
L 299.243837 117.469782 
L 299.243837 113.637386 
L 300.487101 113.637386 
L 300.487101 109.80499 
L 302.388648 109.80499 
L 302.388648 105.972594 
L 305.080833 105.972594 
L 305.080833 102.140198 
L 313.558524 102.140198 
L 313.558524 98.307802 
L 316.800968 98.307802 
L 316.800968 94.475406 
L 317.086657 94.475406 
L 317.086657 90.64301 
L 319.006873 90.64301 
L 319.006873 86.810614 
L 319.63248 86.810614 
L 319.63248 82.978218 
L 320.292143 82.978218 
L 320.292143 79.145822 
L 320.789563 79.145822 
L 320.789563 75.313426 
L 326.850123 75.313426 
L 326.850123 71.48103 
L 327.966263 71.48103 
L 327.966263 67.648634 
L 328.273423 67.648634 
L 328.273423 63.816238 
L 330.225593 63.816238 
L 330.225593 59.983842 
L 330.402874 59.983842 
L 330.402874 56.151446 
L 331.223438 56.151446 
L 331.249289 48.486653 
L 333.648339 48.486653 
L 333.648339 44.654257 
L 334.34203 44.654257 
L 334.34203 40.821861 
L 336.44038 40.821861 
L 336.44038 36.989465 
L 337.718496 36.989465 
L 337.718496 33.157069 
L 339.994356 33.157069 
L 339.994356 29.324673 
L 350.369855 29.324673 
L 350.369855 25.492277 
L 352.65786 25.492277 
L 352.65786 21.659881 
L 355.269927 21.659881 
L 355.269927 17.827485 
L 361.99534 17.827485 
L 361.99534 13.995089 
L 365.36034 13.995089 
L 365.36034 10.162693 
L 366.156568 10.162693 
L 366.156568 6.330297 
L 366.156568 6.330297 
L 460.8 6.330297 
L 460.8 6.330297 
" clip-path="url(#p81a79b21fd)" style="fill: none; stroke: #00bfbf; stroke-width: 1.5; stroke-linecap: square"/>
   </g>
   <g id="line2d_52">
    <path clip-path="url(#p81a79b21fd)" style="fill: none; stroke: #00bfbf; stroke-width: 1.5; stroke-linecap: square"/>
   </g>
   <g id="line2d_53">
    <path d="M 233.141733 293.76 
L 233.141733 289.927604 
L 273.609086 289.927604 
L 273.609086 286.095208 
L 274.620178 286.095208 
L 274.71764 278.430416 
L 274.805108 278.430416 
L 274.805108 274.59802 
L 275.286819 274.59802 
L 275.286819 270.765624 
L 277.009791 270.765624 
L 277.009791 266.933228 
L 277.316788 266.933228 
L 277.316788 263.100832 
L 277.629827 263.100832 
L 277.629827 259.268436 
L 279.329454 259.268436 
L 279.329454 255.43604 
L 279.640607 255.43604 
L 279.640607 251.603644 
L 279.76591 251.603644 
L 279.76591 247.771248 
L 280.327995 247.771248 
L 280.327995 243.938851 
L 280.629819 243.938851 
L 280.629819 240.106455 
L 281.041325 240.106455 
L 281.041325 236.274059 
L 281.304856 236.274059 
L 281.304856 232.441663 
L 281.629338 232.441663 
L 281.684416 224.776871 
L 282.766913 224.776871 
L 282.766913 220.944475 
L 283.18255 220.944475 
L 283.18255 217.112079 
L 283.711393 217.112079 
L 283.733551 209.447287 
L 283.888237 209.447287 
L 283.888237 205.614891 
L 284.521384 205.614891 
L 284.521384 201.782495 
L 287.455846 201.782495 
L 287.455846 197.950099 
L 289.10024 197.950099 
L 289.10024 194.117703 
L 291.075197 194.117703 
L 291.075197 190.285307 
L 295.558558 190.285307 
L 295.558558 186.452911 
L 295.850235 186.452911 
L 295.850235 182.620515 
L 297.750105 182.620515 
L 297.750105 178.788119 
L 298.046749 178.788119 
L 298.046749 174.955723 
L 299.445238 174.955723 
L 299.445238 171.123327 
L 302.305145 171.123327 
L 302.305145 167.290931 
L 302.823571 167.290931 
L 302.823571 163.458535 
L 303.069521 163.458535 
L 303.069521 159.626139 
L 303.430968 159.626139 
L 303.430968 155.793743 
L 305.015491 155.793743 
L 305.015491 151.961347 
L 305.515661 151.961347 
L 305.515661 148.12895 
L 306.614706 148.12895 
L 306.614706 144.296554 
L 307.029705 144.296554 
L 307.065858 136.631762 
L 308.299675 136.631762 
L 308.299675 132.799366 
L 309.868795 132.799366 
L 309.868795 128.96697 
L 310.473315 128.96697 
L 310.473315 125.134574 
L 315.920326 125.134574 
L 315.920326 121.302178 
L 318.590658 121.302178 
L 318.590658 117.469782 
L 319.254079 117.469782 
L 319.254079 113.637386 
L 320.886724 113.637386 
L 320.886724 109.80499 
L 321.08724 109.80499 
L 321.08724 105.972594 
L 321.368241 105.972594 
L 321.368241 102.140198 
L 323.531027 102.140198 
L 323.531027 98.307802 
L 325.608584 98.307802 
L 325.608584 94.475406 
L 330.270004 94.475406 
L 330.270004 90.64301 
L 332.391923 90.64301 
L 332.391923 86.810614 
L 332.946132 86.810614 
L 332.946132 82.978218 
L 333.229478 82.978218 
L 333.229478 79.145822 
L 333.707512 79.145822 
L 333.707512 75.313426 
L 334.376487 75.313426 
L 334.376487 71.48103 
L 336.158489 71.48103 
L 336.158489 67.648634 
L 352.11231 67.648634 
L 352.11231 63.816238 
L 356.715092 63.816238 
L 356.715092 59.983842 
L 358.849543 59.983842 
L 358.849543 56.151446 
L 361.127334 56.151446 
L 361.127334 52.31905 
L 362.566072 52.31905 
L 362.566072 48.486653 
L 363.897209 48.486653 
L 363.897209 44.654257 
L 365.976278 44.654257 
L 365.976278 40.821861 
L 367.564138 40.821861 
L 367.564138 36.989465 
L 369.141556 36.989465 
L 369.141556 33.157069 
L 376.969485 33.157069 
L 376.969485 29.324673 
L 380.642522 29.324673 
L 380.642522 25.492277 
L 384.384001 25.492277 
L 384.384001 21.659881 
L 385.010778 21.659881 
L 385.010778 17.827485 
L 385.236076 17.827485 
L 385.236076 13.995089 
L 403.846339 13.995089 
L 403.846339 10.162693 
L 405.62462 10.162693 
L 405.62462 6.330297 
L 405.62462 6.330297 
L 460.8 6.330297 
L 460.8 6.330297 
" clip-path="url(#p81a79b21fd)" style="fill: none; stroke: #bf00bf; stroke-width: 1.5; stroke-linecap: square"/>
   </g>
   <g id="line2d_54">
    <path clip-path="url(#p81a79b21fd)" style="fill: none; stroke: #bf00bf; stroke-width: 1.5; stroke-linecap: square"/>
   </g>
   <g id="line2d_55">
    <path d="M 278.895649 293.76 
L 278.895649 289.927604 
L 279.498013 289.927604 
L 279.498013 286.095208 
L 280.458856 286.095208 
L 280.458856 282.262812 
L 283.220074 282.262812 
L 283.220074 278.430416 
L 283.674429 278.430416 
L 283.674429 274.59802 
L 283.851473 274.59802 
L 283.851473 270.765624 
L 285.654678 270.765624 
L 285.654678 266.933228 
L 287.521659 266.933228 
L 287.521659 263.100832 
L 288.506018 263.100832 
L 288.506018 259.268436 
L 288.7222 259.268436 
L 288.7222 255.43604 
L 290.032713 255.43604 
L 290.032713 251.603644 
L 290.897816 251.603644 
L 290.897816 247.771248 
L 292.279224 247.771248 
L 292.279224 243.938851 
L 293.860029 243.938851 
L 293.860029 240.106455 
L 298.227239 240.106455 
L 298.227239 236.274059 
L 298.627393 236.274059 
L 298.627393 232.441663 
L 298.851213 232.441663 
L 298.851213 228.609267 
L 300.371981 228.609267 
L 300.371981 224.776871 
L 301.629318 224.776871 
L 301.629318 220.944475 
L 302.505195 220.944475 
L 302.505195 217.112079 
L 306.034399 217.112079 
L 306.034399 213.279683 
L 306.149802 213.279683 
L 306.149802 209.447287 
L 307.886515 209.447287 
L 307.886515 205.614891 
L 309.772488 205.614891 
L 309.805729 197.950099 
L 310.574071 197.950099 
L 310.574071 194.117703 
L 310.72947 194.117703 
L 310.72947 190.285307 
L 311.10199 190.285307 
L 311.10199 186.452911 
L 311.62465 186.452911 
L 311.62465 182.620515 
L 311.921823 182.620515 
L 311.921823 178.788119 
L 312.317995 178.788119 
L 312.317995 174.955723 
L 312.885248 174.955723 
L 312.885248 171.123327 
L 313.072163 171.123327 
L 313.108217 163.458535 
L 313.258014 163.458535 
L 313.258014 159.626139 
L 313.570369 159.626139 
L 313.570369 155.793743 
L 314.01439 155.793743 
L 314.01439 151.961347 
L 314.409199 151.961347 
L 314.409199 148.12895 
L 314.96992 148.12895 
L 314.96992 144.296554 
L 315.490481 144.296554 
L 315.490481 140.464158 
L 315.638098 140.464158 
L 315.638098 136.631762 
L 318.407361 136.631762 
L 318.407361 132.799366 
L 318.737569 132.799366 
L 318.737569 128.96697 
L 319.201797 128.96697 
L 319.201797 125.134574 
L 321.635282 125.134574 
L 321.635282 121.302178 
L 322.026082 121.302178 
L 322.026082 117.469782 
L 323.219678 117.469782 
L 323.281306 109.80499 
L 323.981794 109.80499 
L 323.981794 105.972594 
L 326.00343 105.972594 
L 326.00343 102.140198 
L 327.928141 102.140198 
L 327.928141 98.307802 
L 332.468355 98.307802 
L 332.468355 94.475406 
L 332.589283 94.475406 
L 332.589283 90.64301 
L 334.639975 90.64301 
L 334.639975 86.810614 
L 334.847394 86.810614 
L 334.942919 79.145822 
L 335.578246 79.145822 
L 335.578246 75.313426 
L 336.006947 75.313426 
L 336.006947 71.48103 
L 338.256667 71.48103 
L 338.256667 67.648634 
L 353.921687 67.648634 
L 353.921687 63.816238 
L 358.453594 63.816238 
L 358.453594 59.983842 
L 359.716769 59.983842 
L 359.716769 56.151446 
L 361.831678 56.151446 
L 361.831678 52.31905 
L 363.310131 52.31905 
L 363.310131 48.486653 
L 364.367885 48.486653 
L 364.367885 44.654257 
L 366.453295 44.654257 
L 366.453295 40.821861 
L 368.102357 40.821861 
L 368.102357 36.989465 
L 369.91075 36.989465 
L 369.91075 33.157069 
L 377.791858 33.157069 
L 377.791858 29.324673 
L 381.071939 29.324673 
L 381.071939 25.492277 
L 385.0612 25.492277 
L 385.0612 21.659881 
L 385.680761 21.659881 
L 385.680761 17.827485 
L 385.907635 17.827485 
L 385.907635 13.995089 
L 404.608173 13.995089 
L 404.608173 10.162693 
L 406.456514 10.162693 
L 406.456514 6.330297 
L 406.456514 6.330297 
L 460.8 6.330297 
L 460.8 6.330297 
" clip-path="url(#p81a79b21fd)" style="fill: none; stroke: #ff0000; stroke-width: 3; stroke-linecap: square"/>
   </g>
   <g id="line2d_56">
    <path clip-path="url(#p81a79b21fd)" style="fill: none; stroke: #ff0000; stroke-width: 3; stroke-linecap: square"/>
   </g>
   <g id="line2d_57">
    <path d="M 406.456514 293.76 
L 406.456514 3.456 
" clip-path="url(#p81a79b21fd)" style="fill: none; stroke: #000000; stroke-width: 1.5; stroke-linecap: square"/>
   </g>
   <g id="patch_3">
    <path d="M 62.208 293.76 
L 62.208 3.456 
" style="fill: none; stroke: #000000; stroke-width: 0.8; stroke-linejoin: miter; stroke-linecap: square"/>
   </g>
   <g id="patch_4">
    <path d="M 460.8 293.76 
L 460.8 3.456 
" style="fill: none; stroke: #000000; stroke-width: 0.8; stroke-linejoin: miter; stroke-linecap: square"/>
   </g>
   <g id="patch_5">
    <path d="M 62.208 293.76 
L 460.8 293.76 
" style="fill: none; stroke: #000000; stroke-width: 0.8; stroke-linejoin: miter; stroke-linecap: square"/>
   </g>
   <g id="patch_6">
    <path d="M 62.208 3.456 
L 460.8 3.456 
" style="fill: none; stroke: #000000; stroke-width: 0.8; stroke-linejoin: miter; stroke-linecap: square"/>
   </g>
   <g id="text_12">
    <!-- {f15-f19}, 5-D -->
    <g transform="translate(188.654 24.458955)scale(0.2 -0.2)">
     <defs>
      <path id="DejaVuSans-7b" d="M 3272 -594 
L 3272 -1044 
L 3078 -1044 
Q 2300 -1044 2036 -812 
Q 1772 -581 1772 109 
L 1772 856 
Q 1772 1328 1603 1509 
Q 1434 1691 991 1691 
L 800 1691 
L 800 2138 
L 991 2138 
Q 1438 2138 1605 2317 
Q 1772 2497 1772 2963 
L 1772 3713 
Q 1772 4403 2036 4633 
Q 2300 4863 3078 4863 
L 3272 4863 
L 3272 4416 
L 3059 4416 
Q 2619 4416 2484 4278 
Q 2350 4141 2350 3700 
L 2350 2925 
Q 2350 2434 2208 2212 
Q 2066 1991 1722 1913 
Q 2069 1828 2209 1606 
Q 2350 1384 2350 897 
L 2350 122 
Q 2350 -319 2484 -456 
Q 2619 -594 3059 -594 
L 3272 -594 
z
" transform="scale(0.015625)"/>
      <path id="DejaVuSans-35" d="M 691 4666 
L 3169 4666 
L 3169 4134 
L 1269 4134 
L 1269 2991 
Q 1406 3038 1543 3061 
Q 1681 3084 1819 3084 
Q 2600 3084 3056 2656 
Q 3513 2228 3513 1497 
Q 3513 744 3044 326 
Q 2575 -91 1722 -91 
Q 1428 -91 1123 -41 
Q 819 9 494 109 
L 494 744 
Q 775 591 1075 516 
Q 1375 441 1709 441 
Q 2250 441 2565 725 
Q 2881 1009 2881 1497 
Q 2881 1984 2565 2268 
Q 2250 2553 1709 2553 
Q 1456 2553 1204 2497 
Q 953 2441 691 2322 
L 691 4666 
z
" transform="scale(0.015625)"/>
      <path id="DejaVuSans-2d" d="M 313 2009 
L 1997 2009 
L 1997 1497 
L 313 1497 
L 313 2009 
z
" transform="scale(0.015625)"/>
      <path id="DejaVuSans-39" d="M 703 97 
L 703 672 
Q 941 559 1184 500 
Q 1428 441 1663 441 
Q 2288 441 2617 861 
Q 2947 1281 2994 2138 
Q 2813 1869 2534 1725 
Q 2256 1581 1919 1581 
Q 1219 1581 811 2004 
Q 403 2428 403 3163 
Q 403 3881 828 4315 
Q 1253 4750 1959 4750 
Q 2769 4750 3195 4129 
Q 3622 3509 3622 2328 
Q 3622 1225 3098 567 
Q 2575 -91 1691 -91 
Q 1453 -91 1209 -44 
Q 966 3 703 97 
z
M 1959 2075 
Q 2384 2075 2632 2365 
Q 2881 2656 2881 3163 
Q 2881 3666 2632 3958 
Q 2384 4250 1959 4250 
Q 1534 4250 1286 3958 
Q 1038 3666 1038 3163 
Q 1038 2656 1286 2365 
Q 1534 2075 1959 2075 
z
" transform="scale(0.015625)"/>
      <path id="DejaVuSans-7d" d="M 800 -594 
L 1019 -594 
Q 1456 -594 1589 -459 
Q 1722 -325 1722 122 
L 1722 897 
Q 1722 1384 1862 1606 
Q 2003 1828 2350 1913 
Q 2003 1991 1862 2212 
Q 1722 2434 1722 2925 
L 1722 3700 
Q 1722 4144 1589 4280 
Q 1456 4416 1019 4416 
L 800 4416 
L 800 4863 
L 997 4863 
Q 1775 4863 2036 4633 
Q 2297 4403 2297 3713 
L 2297 2963 
Q 2297 2497 2465 2317 
Q 2634 2138 3078 2138 
L 3272 2138 
L 3272 1691 
L 3078 1691 
Q 2634 1691 2465 1509 
Q 2297 1328 2297 856 
L 2297 109 
Q 2297 -581 2036 -812 
Q 1775 -1044 997 -1044 
L 800 -1044 
L 800 -594 
z
" transform="scale(0.015625)"/>
      <path id="DejaVuSans-2c" d="M 750 794 
L 1409 794 
L 1409 256 
L 897 -744 
L 494 -744 
L 750 256 
L 750 794 
z
" transform="scale(0.015625)"/>
     </defs>
     <use xlink:href="#DejaVuSans-7b"/>
     <use xlink:href="#DejaVuSans-66" x="63.623047"/>
     <use xlink:href="#DejaVuSans-31" x="98.828125"/>
     <use xlink:href="#DejaVuSans-35" x="162.451172"/>
     <use xlink:href="#DejaVuSans-2d" x="226.074219"/>
     <use xlink:href="#DejaVuSans-66" x="262.158203"/>
     <use xlink:href="#DejaVuSans-31" x="297.363281"/>
     <use xlink:href="#DejaVuSans-39" x="360.986328"/>
     <use xlink:href="#DejaVuSans-7d" x="424.609375"/>
     <use xlink:href="#DejaVuSans-2c" x="488.232422"/>
     <use xlink:href="#DejaVuSans-20" x="520.019531"/>
     <use xlink:href="#DejaVuSans-35" x="551.806641"/>
     <use xlink:href="#DejaVuSans-2d" x="615.429688"/>
     <use xlink:href="#DejaVuSans-44" x="651.513672"/>
    </g>
   </g>
   <g id="text_13">
    <!-- absolute targets -->
    <g transform="translate(62.208 609.932673)scale(0.14 -0.14)">
     <defs>
      <path id="DejaVuSans-62" d="M 3116 1747 
Q 3116 2381 2855 2742 
Q 2594 3103 2138 3103 
Q 1681 3103 1420 2742 
Q 1159 2381 1159 1747 
Q 1159 1113 1420 752 
Q 1681 391 2138 391 
Q 2594 391 2855 752 
Q 3116 1113 3116 1747 
z
M 1159 2969 
Q 1341 3281 1617 3432 
Q 1894 3584 2278 3584 
Q 2916 3584 3314 3078 
Q 3713 2572 3713 1747 
Q 3713 922 3314 415 
Q 2916 -91 2278 -91 
Q 1894 -91 1617 61 
Q 1341 213 1159 525 
L 1159 0 
L 581 0 
L 581 4863 
L 1159 4863 
L 1159 2969 
z
" transform="scale(0.015625)"/>
      <path id="DejaVuSans-75" d="M 544 1381 
L 544 3500 
L 1119 3500 
L 1119 1403 
Q 1119 906 1312 657 
Q 1506 409 1894 409 
Q 2359 409 2629 706 
Q 2900 1003 2900 1516 
L 2900 3500 
L 3475 3500 
L 3475 0 
L 2900 0 
L 2900 538 
Q 2691 219 2414 64 
Q 2138 -91 1772 -91 
Q 1169 -91 856 284 
Q 544 659 544 1381 
z
M 1991 3584 
L 1991 3584 
z
" transform="scale(0.015625)"/>
      <path id="DejaVuSans-65" d="M 3597 1894 
L 3597 1613 
L 953 1613 
Q 991 1019 1311 708 
Q 1631 397 2203 397 
Q 2534 397 2845 478 
Q 3156 559 3463 722 
L 3463 178 
Q 3153 47 2828 -22 
Q 2503 -91 2169 -91 
Q 1331 -91 842 396 
Q 353 884 353 1716 
Q 353 2575 817 3079 
Q 1281 3584 2069 3584 
Q 2775 3584 3186 3129 
Q 3597 2675 3597 1894 
z
M 3022 2063 
Q 3016 2534 2758 2815 
Q 2500 3097 2075 3097 
Q 1594 3097 1305 2825 
Q 1016 2553 972 2059 
L 3022 2063 
z
" transform="scale(0.015625)"/>
     </defs>
     <use xlink:href="#DejaVuSans-61"/>
     <use xlink:href="#DejaVuSans-62" x="61.279297"/>
     <use xlink:href="#DejaVuSans-73" x="124.755859"/>
     <use xlink:href="#DejaVuSans-6f" x="176.855469"/>
     <use xlink:href="#DejaVuSans-6c" x="238.037109"/>
     <use xlink:href="#DejaVuSans-75" x="265.820312"/>
     <use xlink:href="#DejaVuSans-74" x="329.199219"/>
     <use xlink:href="#DejaVuSans-65" x="368.408203"/>
     <use xlink:href="#DejaVuSans-20" x="429.931641"/>
     <use xlink:href="#DejaVuSans-74" x="461.71875"/>
     <use xlink:href="#DejaVuSans-61" x="500.927734"/>
     <use xlink:href="#DejaVuSans-72" x="562.207031"/>
     <use xlink:href="#DejaVuSans-67" x="601.570312"/>
     <use xlink:href="#DejaVuSans-65" x="665.046875"/>
     <use xlink:href="#DejaVuSans-74" x="726.570312"/>
     <use xlink:href="#DejaVuSans-73" x="765.779297"/>
    </g>
   </g>
   <g id="text_14">
    <!-- v2.6.3 -->
    <g style="fill: #808080" transform="translate(245.82275 288.777272)scale(0.1 -0.1)">
     <defs>
      <path id="DejaVuSans-33" d="M 2597 2516 
Q 3050 2419 3304 2112 
Q 3559 1806 3559 1356 
Q 3559 666 3084 287 
Q 2609 -91 1734 -91 
Q 1441 -91 1130 -33 
Q 819 25 488 141 
L 488 750 
Q 750 597 1062 519 
Q 1375 441 1716 441 
Q 2309 441 2620 675 
Q 2931 909 2931 1356 
Q 2931 1769 2642 2001 
Q 2353 2234 1838 2234 
L 1294 2234 
L 1294 2753 
L 1863 2753 
Q 2328 2753 2575 2939 
Q 2822 3125 2822 3475 
Q 2822 3834 2567 4026 
Q 2313 4219 1838 4219 
Q 1578 4219 1281 4162 
Q 984 4106 628 3988 
L 628 4550 
Q 988 4650 1302 4700 
Q 1616 4750 1894 4750 
Q 2613 4750 3031 4423 
Q 3450 4097 3450 3541 
Q 3450 3153 3228 2886 
Q 3006 2619 2597 2516 
z
" transform="scale(0.015625)"/>
     </defs>
     <use xlink:href="#DejaVuSans-76"/>
     <use xlink:href="#DejaVuSans-32" x="59.179688"/>
     <use xlink:href="#DejaVuSans-2e" x="122.802734"/>
     <use xlink:href="#DejaVuSans-36" x="154.589844"/>
     <use xlink:href="#DejaVuSans-2e" x="218.212891"/>
     <use xlink:href="#DejaVuSans-33" x="250"/>
    </g>
   </g>
   <g id="legend_1">
    <g id="patch_7">
     <path d="M 76.208 283.76 
L 205.429875 283.76 
Q 209.429875 283.76 209.429875 279.76 
L 209.429875 164.335 
Q 209.429875 160.335 205.429875 160.335 
L 76.208 160.335 
Q 72.208 160.335 72.208 164.335 
L 72.208 279.76 
Q 72.208 283.76 76.208 283.76 
z
" style="fill: #ffffff; opacity: 0.2; stroke: #cccccc; stroke-linejoin: miter"/>
    </g>
    <g id="line2d_58">
     <path d="M 80.208 176.531875 
L 80.208 176.531875 
L 100.208 176.531875 
L 100.208 176.531875 
L 120.208 176.531875 
" style="fill: none; stroke: #000000; stroke-width: 1.5; stroke-linecap: square"/>
    </g>
    <g id="text_15">
     <!-- 1: 5/5 -->
     <g transform="translate(136.208 183.531875)scale(0.2 -0.2)">
      <defs>
       <path id="DejaVuSans-3a" d="M 750 794 
L 1409 794 
L 1409 0 
L 750 0 
L 750 794 
z
M 750 3309 
L 1409 3309 
L 1409 2516 
L 750 2516 
L 750 3309 
z
" transform="scale(0.015625)"/>
      </defs>
      <use xlink:href="#DejaVuSans-31"/>
      <use xlink:href="#DejaVuSans-3a" x="63.623047"/>
      <use xlink:href="#DejaVuSans-20" x="97.314453"/>
      <use xlink:href="#DejaVuSans-35" x="129.101562"/>
      <use xlink:href="#DejaVuSans-2f" x="192.724609"/>
      <use xlink:href="#DejaVuSans-35" x="226.416016"/>
     </g>
    </g>
    <g id="line2d_59">
     <path d="M 80.208 205.888125 
L 80.208 205.888125 
L 100.208 205.888125 
L 100.208 205.888125 
L 120.208 205.888125 
" style="fill: none; stroke: #00bfbf; stroke-width: 1.5; stroke-linecap: square"/>
    </g>
    <g id="text_16">
     <!-- -1: 5/5 -->
     <g transform="translate(136.208 212.888125)scale(0.2 -0.2)">
      <use xlink:href="#DejaVuSans-2d"/>
      <use xlink:href="#DejaVuSans-31" x="36.083984"/>
      <use xlink:href="#DejaVuSans-3a" x="99.707031"/>
      <use xlink:href="#DejaVuSans-20" x="133.398438"/>
      <use xlink:href="#DejaVuSans-35" x="165.185547"/>
      <use xlink:href="#DejaVuSans-2f" x="228.808594"/>
      <use xlink:href="#DejaVuSans-35" x="262.5"/>
     </g>
    </g>
    <g id="line2d_60">
     <path d="M 80.208 235.244375 
L 80.208 235.244375 
L 100.208 235.244375 
L 100.208 235.244375 
L 120.208 235.244375 
" style="fill: none; stroke: #bf00bf; stroke-width: 1.5; stroke-linecap: square"/>
    </g>
    <g id="text_17">
     <!-- -4: 5/5 -->
     <g transform="translate(136.208 242.244375)scale(0.2 -0.2)">
      <use xlink:href="#DejaVuSans-2d"/>
      <use xlink:href="#DejaVuSans-34" x="36.083984"/>
      <use xlink:href="#DejaVuSans-3a" x="99.707031"/>
      <use xlink:href="#DejaVuSans-20" x="133.398438"/>
      <use xlink:href="#DejaVuSans-35" x="165.185547"/>
      <use xlink:href="#DejaVuSans-2f" x="228.808594"/>
      <use xlink:href="#DejaVuSans-35" x="262.5"/>
     </g>
    </g>
    <g id="line2d_61">
     <path d="M 80.208 264.600625 
L 80.208 264.600625 
L 100.208 264.600625 
L 100.208 264.600625 
L 120.208 264.600625 
" style="fill: none; stroke: #ff0000; stroke-width: 3; stroke-linecap: square"/>
    </g>
    <g id="text_18">
     <!-- -8: 5/5 -->
     <g transform="translate(136.208 271.600625)scale(0.2 -0.2)">
      <use xlink:href="#DejaVuSans-2d"/>
      <use xlink:href="#DejaVuSans-38" x="36.083984"/>
      <use xlink:href="#DejaVuSans-3a" x="99.707031"/>
      <use xlink:href="#DejaVuSans-20" x="133.398438"/>
      <use xlink:href="#DejaVuSans-35" x="165.185547"/>
      <use xlink:href="#DejaVuSans-2f" x="228.808594"/>
      <use xlink:href="#DejaVuSans-35" x="262.5"/>
     </g>
    </g>
   </g>
  </g>
 </g>
 <defs>
  <clipPath id="p81a79b21fd">
   <rect x="62.208" y="3.456" width="398.592" height="290.304"/>
  </clipPath>
 </defs>
</svg>
