<?xml version="1.0" encoding="utf-8" standalone="no"?>
<!DOCTYPE svg PUBLIC "-//W3C//DTD SVG 1.1//EN"
  "http://www.w3.org/Graphics/SVG/1.1/DTD/svg11.dtd">
<svg xmlns:xlink="http://www.w3.org/1999/xlink" width="460.8pt" height="345.6pt" viewBox="0 0 460.8 345.6" xmlns="http://www.w3.org/2000/svg" version="1.1">
 <metadata>
  <rdf:RDF xmlns:dc="http://purl.org/dc/elements/1.1/" xmlns:cc="http://creativecommons.org/ns#" xmlns:rdf="http://www.w3.org/1999/02/22-rdf-syntax-ns#">
   <cc:Work>
    <dc:type rdf:resource="http://purl.org/dc/dcmitype/StillImage"/>
    <dc:date>2023-04-07T14:46:08.919577</dc:date>
    <dc:format>image/svg+xml</dc:format>
    <dc:creator>
     <cc:Agent>
      <dc:title>Matplotlib v3.5.2, https://matplotlib.org/</dc:title>
     </cc:Agent>
    </dc:creator>
   </cc:Work>
  </rdf:RDF>
 </metadata>
 <defs>
  <style type="text/css">*{stroke-linejoin: round; stroke-linecap: butt}</style>
 </defs>
 <g id="figure_1">
  <g id="patch_1">
   <path d="M 0 345.6 
L 460.8 345.6 
L 460.8 0 
L 0 0 
z
" style="fill: #ffffff"/>
  </g>
  <g id="axes_1">
   <g id="patch_2">
    <path d="M 0 293.76 
L 460.8 293.76 
L 460.8 3.456 
L 0 3.456 
z
" style="fill: #ffffff"/>
   </g>
   <g id="matplotlib.axis_1">
    <g id="xtick_1">
     <g id="line2d_1">
      <path d="M 106.821607 293.76 
L 106.821607 3.456 
" clip-path="url(#p5ed2daf903)" style="fill: none; stroke: #b0b0b0; stroke-width: 0.8; stroke-linecap: square"/>
     </g>
     <g id="line2d_2">
      <defs>
       <path id="m0b8c43fac3" d="M 0 0 
L 0 3.5 
" style="stroke: #000000; stroke-width: 0.8"/>
      </defs>
      <g>
       <use xlink:href="#m0b8c43fac3" x="106.821607" y="293.76" style="stroke: #000000; stroke-width: 0.8"/>
      </g>
     </g>
     <g id="text_1">
      <!-- -4 -->
      <g transform="translate(96.851294 315.956875)scale(0.2 -0.2)">
       <defs>
        <path id="DejaVuSans-2d" d="M 313 2009 
L 1997 2009 
L 1997 1497 
L 313 1497 
L 313 2009 
z
" transform="scale(0.015625)"/>
        <path id="DejaVuSans-34" d="M 2419 4116 
L 825 1625 
L 2419 1625 
L 2419 4116 
z
M 2253 4666 
L 3047 4666 
L 3047 1625 
L 3713 1625 
L 3713 1100 
L 3047 1100 
L 3047 0 
L 2419 0 
L 2419 1100 
L 313 1100 
L 313 1709 
L 2253 4666 
z
" transform="scale(0.015625)"/>
       </defs>
       <use xlink:href="#DejaVuSans-2d"/>
       <use xlink:href="#DejaVuSans-34" x="36.083984"/>
      </g>
     </g>
    </g>
    <g id="xtick_2">
     <g id="line2d_3">
      <path d="M 213.758742 293.76 
L 213.758742 3.456 
" clip-path="url(#p5ed2daf903)" style="fill: none; stroke: #b0b0b0; stroke-width: 0.8; stroke-linecap: square"/>
     </g>
     <g id="line2d_4">
      <g>
       <use xlink:href="#m0b8c43fac3" x="213.758742" y="293.76" style="stroke: #000000; stroke-width: 0.8"/>
      </g>
     </g>
     <g id="text_2">
      <!-- 0 -->
      <g transform="translate(207.396242 315.956875)scale(0.2 -0.2)">
       <defs>
        <path id="DejaVuSans-30" d="M 2034 4250 
Q 1547 4250 1301 3770 
Q 1056 3291 1056 2328 
Q 1056 1369 1301 889 
Q 1547 409 2034 409 
Q 2525 409 2770 889 
Q 3016 1369 3016 2328 
Q 3016 3291 2770 3770 
Q 2525 4250 2034 4250 
z
M 2034 4750 
Q 2819 4750 3233 4129 
Q 3647 3509 3647 2328 
Q 3647 1150 3233 529 
Q 2819 -91 2034 -91 
Q 1250 -91 836 529 
Q 422 1150 422 2328 
Q 422 3509 836 4129 
Q 1250 4750 2034 4750 
z
" transform="scale(0.015625)"/>
       </defs>
       <use xlink:href="#DejaVuSans-30"/>
      </g>
     </g>
    </g>
    <g id="xtick_3">
     <g id="line2d_5">
      <path d="M 320.695877 293.76 
L 320.695877 3.456 
" clip-path="url(#p5ed2daf903)" style="fill: none; stroke: #b0b0b0; stroke-width: 0.8; stroke-linecap: square"/>
     </g>
     <g id="line2d_6">
      <g>
       <use xlink:href="#m0b8c43fac3" x="320.695877" y="293.76" style="stroke: #000000; stroke-width: 0.8"/>
      </g>
     </g>
     <g id="text_3">
      <!-- 4 -->
      <g transform="translate(314.333377 315.956875)scale(0.2 -0.2)">
       <use xlink:href="#DejaVuSans-34"/>
      </g>
     </g>
    </g>
    <g id="xtick_4">
     <g id="line2d_7">
      <path d="M 427.633013 293.76 
L 427.633013 3.456 
" clip-path="url(#p5ed2daf903)" style="fill: none; stroke: #b0b0b0; stroke-width: 0.8; stroke-linecap: square"/>
     </g>
     <g id="line2d_8">
      <g>
       <use xlink:href="#m0b8c43fac3" x="427.633013" y="293.76" style="stroke: #000000; stroke-width: 0.8"/>
      </g>
     </g>
     <g id="text_4">
      <!-- 8 -->
      <g transform="translate(421.270513 315.956875)scale(0.2 -0.2)">
       <defs>
        <path id="DejaVuSans-38" d="M 2034 2216 
Q 1584 2216 1326 1975 
Q 1069 1734 1069 1313 
Q 1069 891 1326 650 
Q 1584 409 2034 409 
Q 2484 409 2743 651 
Q 3003 894 3003 1313 
Q 3003 1734 2745 1975 
Q 2488 2216 2034 2216 
z
M 1403 2484 
Q 997 2584 770 2862 
Q 544 3141 544 3541 
Q 544 4100 942 4425 
Q 1341 4750 2034 4750 
Q 2731 4750 3128 4425 
Q 3525 4100 3525 3541 
Q 3525 3141 3298 2862 
Q 3072 2584 2669 2484 
Q 3125 2378 3379 2068 
Q 3634 1759 3634 1313 
Q 3634 634 3220 271 
Q 2806 -91 2034 -91 
Q 1263 -91 848 271 
Q 434 634 434 1313 
Q 434 1759 690 2068 
Q 947 2378 1403 2484 
z
M 1172 3481 
Q 1172 3119 1398 2916 
Q 1625 2713 2034 2713 
Q 2441 2713 2670 2916 
Q 2900 3119 2900 3481 
Q 2900 3844 2670 4047 
Q 2441 4250 2034 4250 
Q 1625 4250 1398 4047 
Q 1172 3844 1172 3481 
z
" transform="scale(0.015625)"/>
       </defs>
       <use xlink:href="#DejaVuSans-38"/>
      </g>
     </g>
    </g>
    <g id="text_5">
     <!-- log10 of Df -->
     <g transform="translate(175.214063 339.313125)scale(0.2 -0.2)">
      <defs>
       <path id="DejaVuSans-6c" d="M 603 4863 
L 1178 4863 
L 1178 0 
L 603 0 
L 603 4863 
z
" transform="scale(0.015625)"/>
       <path id="DejaVuSans-6f" d="M 1959 3097 
Q 1497 3097 1228 2736 
Q 959 2375 959 1747 
Q 959 1119 1226 758 
Q 1494 397 1959 397 
Q 2419 397 2687 759 
Q 2956 1122 2956 1747 
Q 2956 2369 2687 2733 
Q 2419 3097 1959 3097 
z
M 1959 3584 
Q 2709 3584 3137 3096 
Q 3566 2609 3566 1747 
Q 3566 888 3137 398 
Q 2709 -91 1959 -91 
Q 1206 -91 779 398 
Q 353 888 353 1747 
Q 353 2609 779 3096 
Q 1206 3584 1959 3584 
z
" transform="scale(0.015625)"/>
       <path id="DejaVuSans-67" d="M 2906 1791 
Q 2906 2416 2648 2759 
Q 2391 3103 1925 3103 
Q 1463 3103 1205 2759 
Q 947 2416 947 1791 
Q 947 1169 1205 825 
Q 1463 481 1925 481 
Q 2391 481 2648 825 
Q 2906 1169 2906 1791 
z
M 3481 434 
Q 3481 -459 3084 -895 
Q 2688 -1331 1869 -1331 
Q 1566 -1331 1297 -1286 
Q 1028 -1241 775 -1147 
L 775 -588 
Q 1028 -725 1275 -790 
Q 1522 -856 1778 -856 
Q 2344 -856 2625 -561 
Q 2906 -266 2906 331 
L 2906 616 
Q 2728 306 2450 153 
Q 2172 0 1784 0 
Q 1141 0 747 490 
Q 353 981 353 1791 
Q 353 2603 747 3093 
Q 1141 3584 1784 3584 
Q 2172 3584 2450 3431 
Q 2728 3278 2906 2969 
L 2906 3500 
L 3481 3500 
L 3481 434 
z
" transform="scale(0.015625)"/>
       <path id="DejaVuSans-31" d="M 794 531 
L 1825 531 
L 1825 4091 
L 703 3866 
L 703 4441 
L 1819 4666 
L 2450 4666 
L 2450 531 
L 3481 531 
L 3481 0 
L 794 0 
L 794 531 
z
" transform="scale(0.015625)"/>
       <path id="DejaVuSans-20" transform="scale(0.015625)"/>
       <path id="DejaVuSans-66" d="M 2375 4863 
L 2375 4384 
L 1825 4384 
Q 1516 4384 1395 4259 
Q 1275 4134 1275 3809 
L 1275 3500 
L 2222 3500 
L 2222 3053 
L 1275 3053 
L 1275 0 
L 697 0 
L 697 3053 
L 147 3053 
L 147 3500 
L 697 3500 
L 697 3744 
Q 697 4328 969 4595 
Q 1241 4863 1831 4863 
L 2375 4863 
z
" transform="scale(0.015625)"/>
       <path id="DejaVuSans-44" d="M 1259 4147 
L 1259 519 
L 2022 519 
Q 2988 519 3436 956 
Q 3884 1394 3884 2338 
Q 3884 3275 3436 3711 
Q 2988 4147 2022 4147 
L 1259 4147 
z
M 628 4666 
L 1925 4666 
Q 3281 4666 3915 4102 
Q 4550 3538 4550 2338 
Q 4550 1131 3912 565 
Q 3275 0 1925 0 
L 628 0 
L 628 4666 
z
" transform="scale(0.015625)"/>
      </defs>
      <use xlink:href="#DejaVuSans-6c"/>
      <use xlink:href="#DejaVuSans-6f" x="27.783203"/>
      <use xlink:href="#DejaVuSans-67" x="88.964844"/>
      <use xlink:href="#DejaVuSans-31" x="152.441406"/>
      <use xlink:href="#DejaVuSans-30" x="216.064453"/>
      <use xlink:href="#DejaVuSans-20" x="279.6875"/>
      <use xlink:href="#DejaVuSans-6f" x="311.474609"/>
      <use xlink:href="#DejaVuSans-66" x="372.65625"/>
      <use xlink:href="#DejaVuSans-20" x="407.861328"/>
      <use xlink:href="#DejaVuSans-44" x="439.648438"/>
      <use xlink:href="#DejaVuSans-66" x="516.650391"/>
     </g>
    </g>
   </g>
   <g id="matplotlib.axis_2">
    <g id="ytick_1">
     <g id="line2d_9">
      <path d="M 0 293.76 
L 460.8 293.76 
" clip-path="url(#p5ed2daf903)" style="fill: none; stroke: #b0b0b0; stroke-width: 0.8; stroke-linecap: square"/>
     </g>
     <g id="line2d_10">
      <defs>
       <path id="me07758008a" d="M 0 0 
L -3.5 0 
" style="stroke: #000000; stroke-width: 0.8"/>
      </defs>
      <g>
       <use xlink:href="#me07758008a" x="0" y="293.76" style="stroke: #000000; stroke-width: 0.8"/>
      </g>
     </g>
    </g>
    <g id="ytick_2">
     <g id="line2d_11">
      <path d="M 0 236.274059 
L 460.8 236.274059 
" clip-path="url(#p5ed2daf903)" style="fill: none; stroke: #b0b0b0; stroke-width: 0.8; stroke-linecap: square"/>
     </g>
     <g id="line2d_12">
      <g>
       <use xlink:href="#me07758008a" x="0" y="236.274059" style="stroke: #000000; stroke-width: 0.8"/>
      </g>
     </g>
    </g>
    <g id="ytick_3">
     <g id="line2d_13">
      <path d="M 0 178.788119 
L 460.8 178.788119 
" clip-path="url(#p5ed2daf903)" style="fill: none; stroke: #b0b0b0; stroke-width: 0.8; stroke-linecap: square"/>
     </g>
     <g id="line2d_14">
      <g>
       <use xlink:href="#me07758008a" x="0" y="178.788119" style="stroke: #000000; stroke-width: 0.8"/>
      </g>
     </g>
    </g>
    <g id="ytick_4">
     <g id="line2d_15">
      <path d="M 0 121.302178 
L 460.8 121.302178 
" clip-path="url(#p5ed2daf903)" style="fill: none; stroke: #b0b0b0; stroke-width: 0.8; stroke-linecap: square"/>
     </g>
     <g id="line2d_16">
      <g>
       <use xlink:href="#me07758008a" x="0" y="121.302178" style="stroke: #000000; stroke-width: 0.8"/>
      </g>
     </g>
    </g>
    <g id="ytick_5">
     <g id="line2d_17">
      <path d="M 0 63.816238 
L 460.8 63.816238 
" clip-path="url(#p5ed2daf903)" style="fill: none; stroke: #b0b0b0; stroke-width: 0.8; stroke-linecap: square"/>
     </g>
     <g id="line2d_18">
      <g>
       <use xlink:href="#me07758008a" x="0" y="63.816238" style="stroke: #000000; stroke-width: 0.8"/>
      </g>
     </g>
    </g>
    <g id="ytick_6">
     <g id="line2d_19">
      <path d="M 0 6.330297 
L 460.8 6.330297 
" clip-path="url(#p5ed2daf903)" style="fill: none; stroke: #b0b0b0; stroke-width: 0.8; stroke-linecap: square"/>
     </g>
     <g id="line2d_20">
      <g>
       <use xlink:href="#me07758008a" x="0" y="6.330297" style="stroke: #000000; stroke-width: 0.8"/>
      </g>
     </g>
    </g>
   </g>
   <g id="line2d_21">
    <path d="M -1 6.330297 
L 460.8 6.330297 
" clip-path="url(#p5ed2daf903)" style="fill: none; stroke: #ff0000; stroke-width: 3; stroke-linecap: square"/>
   </g>
   <g id="line2d_22">
    <path d="M 243.641601 293.76 
L 243.641601 288.969505 
L 251.587041 288.969505 
L 251.587041 284.17901 
L 251.587041 284.17901 
L 251.587041 279.388515 
L 251.587041 279.388515 
L 251.587041 274.59802 
L 251.587041 274.59802 
L 251.587041 269.807525 
L 251.587041 269.807525 
L 251.587041 265.01703 
L 251.587041 265.01703 
L 251.587041 260.226535 
L 251.587041 260.226535 
L 251.587041 255.43604 
L 251.587041 255.43604 
L 251.587041 250.645545 
L 251.587041 250.645545 
L 251.587041 245.85505 
L 251.587041 245.85505 
L 251.587041 241.064554 
L 251.587041 241.064554 
L 251.587041 236.274059 
L 251.587041 236.274059 
L 251.587041 231.483564 
L 251.587041 231.483564 
L 251.587041 226.693069 
L 251.587041 226.693069 
L 251.587041 221.902574 
L 251.587041 221.902574 
L 251.587041 217.112079 
L 254.244253 217.112079 
L 254.244253 212.321584 
L 259.723761 212.321584 
L 259.723761 207.531089 
L 260.479532 207.531089 
L 260.479532 202.740594 
L 264.249228 202.740594 
L 264.249228 197.950099 
L 267.261786 197.950099 
L 267.261786 193.159604 
L 268.572972 193.159604 
L 268.572972 188.369109 
L 272.326403 188.369109 
L 272.326403 183.578614 
L 272.685187 183.578614 
L 272.685187 178.788119 
L 273.817548 178.788119 
L 273.817548 173.997624 
L 282.683843 173.997624 
L 282.683843 169.207129 
L 284.550987 169.207129 
L 284.550987 164.416634 
L 285.057568 164.416634 
L 285.057568 159.626139 
L 286.425746 159.626139 
L 286.425746 154.835644 
L 286.634398 154.835644 
L 286.634398 150.045149 
L 286.937793 150.045149 
L 286.937793 145.254653 
L 290.355215 145.254653 
L 290.355215 140.464158 
L 297.246961 140.464158 
L 297.246961 135.673663 
L 300.453618 135.673663 
L 300.453618 130.883168 
L 304.461513 130.883168 
L 304.461513 126.092673 
L 307.425094 126.092673 
L 307.425094 121.302178 
L 310.317627 121.302178 
L 310.317627 116.511683 
L 310.352059 116.511683 
L 310.352059 111.721188 
L 314.572397 111.721188 
L 314.572397 106.930693 
L 315.948687 106.930693 
L 315.948687 102.140198 
L 316.331643 102.140198 
L 316.331643 97.349703 
L 316.949888 97.349703 
L 316.949888 92.559208 
L 321.820717 92.559208 
L 321.820717 87.768713 
L 322.288057 87.768713 
L 322.288057 82.978218 
L 326.507511 82.978218 
L 326.507511 78.187723 
L 327.684984 78.187723 
L 327.684984 73.397228 
L 328.075578 73.397228 
L 328.075578 68.606733 
L 329.729558 68.606733 
L 329.729558 63.816238 
L 330.967139 63.816238 
L 330.967139 59.025743 
L 333.233611 59.025743 
L 333.233611 54.235248 
L 335.197635 54.235248 
L 335.197635 49.444752 
L 340.69756 49.444752 
L 340.69756 44.654257 
L 349.266628 44.654257 
L 349.266628 39.863762 
L 350.188435 39.863762 
L 350.188435 35.073267 
L 353.856675 35.073267 
L 353.856675 30.282772 
L 353.934206 30.282772 
L 353.934206 25.492277 
L 358.424988 25.492277 
L 358.424988 20.701782 
L 360.298373 20.701782 
L 360.298373 15.911287 
L 360.972547 15.911287 
L 360.972547 11.120792 
L 367.813103 11.120792 
L 367.813103 6.330297 
L 367.813103 6.330297 
L 367.813103 6.330297 
L 460.8 6.330297 
" clip-path="url(#p5ed2daf903)" style="fill: none; stroke: #00bfbf; stroke-width: 1.5; stroke-linecap: square"/>
   </g>
   <g id="line2d_23">
    <path d="M 233.861053 293.76 
L 233.861053 288.969505 
L 243.641601 288.969505 
L 243.641601 284.17901 
L 251.587041 284.17901 
L 251.587041 279.388515 
L 251.587041 279.388515 
L 251.587041 274.59802 
L 251.587041 274.59802 
L 251.587041 269.807525 
L 251.587041 269.807525 
L 251.587041 265.01703 
L 251.587041 265.01703 
L 251.587041 260.226535 
L 251.587041 260.226535 
L 251.587041 255.43604 
L 251.587041 255.43604 
L 251.587041 250.645545 
L 251.587041 250.645545 
L 251.587041 245.85505 
L 251.587041 245.85505 
L 251.587041 241.064554 
L 251.587041 241.064554 
L 251.587041 236.274059 
L 251.587041 236.274059 
L 251.587041 231.483564 
L 251.587041 231.483564 
L 251.587041 226.693069 
L 251.587041 226.693069 
L 251.587041 221.902574 
L 251.587041 221.902574 
L 251.587041 217.112079 
L 251.587041 217.112079 
L 251.587041 212.321584 
L 253.079381 212.321584 
L 253.079381 207.531089 
L 254.576979 207.531089 
L 254.576979 202.740594 
L 259.723761 202.740594 
L 259.723761 197.950099 
L 260.479532 197.950099 
L 260.479532 193.159604 
L 264.249228 193.159604 
L 264.249228 188.369109 
L 267.261786 188.369109 
L 267.261786 183.578614 
L 268.572972 183.578614 
L 268.572972 178.788119 
L 268.727541 178.788119 
L 268.727541 173.997624 
L 269.104749 173.997624 
L 269.104749 169.207129 
L 271.174118 169.207129 
L 271.174118 164.416634 
L 271.626696 164.416634 
L 271.626696 159.626139 
L 272.326403 159.626139 
L 272.326403 154.835644 
L 274.934667 154.835644 
L 274.934667 150.045149 
L 281.765692 150.045149 
L 281.765692 145.254653 
L 284.668456 145.254653 
L 284.668456 140.464158 
L 286.246539 140.464158 
L 286.246539 135.673663 
L 286.937793 135.673663 
L 286.937793 130.883168 
L 297.246961 130.883168 
L 297.246961 126.092673 
L 297.37073 126.092673 
L 297.37073 121.302178 
L 300.453618 121.302178 
L 300.453618 116.511683 
L 301.395008 116.511683 
L 301.395008 111.721188 
L 303.384852 111.721188 
L 303.384852 106.930693 
L 305.560221 106.930693 
L 305.560221 102.140198 
L 309.235008 102.140198 
L 309.235008 97.349703 
L 309.298363 97.349703 
L 309.298363 92.559208 
L 309.344215 92.559208 
L 309.344215 87.768713 
L 310.317627 87.768713 
L 310.317627 82.978218 
L 310.7499 82.978218 
L 310.7499 78.187723 
L 314.572397 78.187723 
L 314.572397 73.397228 
L 315.948687 73.397228 
L 315.948687 68.606733 
L 316.949888 68.606733 
L 316.949888 63.816238 
L 321.820717 63.816238 
L 321.820717 59.025743 
L 322.288057 59.025743 
L 322.288057 54.235248 
L 326.43543 54.235248 
L 326.43543 49.444752 
L 333.233611 49.444752 
L 333.233611 44.654257 
L 340.69756 44.654257 
L 340.69756 39.863762 
L 348.985061 39.863762 
L 348.985061 35.073267 
L 349.266628 35.073267 
L 349.266628 30.282772 
L 350.188435 30.282772 
L 350.188435 25.492277 
L 352.449247 25.492277 
L 352.449247 20.701782 
L 353.856675 20.701782 
L 353.856675 15.911287 
L 354.091092 15.911287 
L 354.091092 11.120792 
L 367.739672 11.120792 
L 367.739672 6.330297 
L 367.739672 6.330297 
L 367.739672 6.330297 
L 460.8 6.330297 
" clip-path="url(#p5ed2daf903)" style="fill: none; stroke: #bf00bf; stroke-width: 1.5; stroke-linecap: square"/>
   </g>
   <g id="line2d_24">
    <path d="M 233.861053 293.76 
L 233.861053 288.969505 
L 243.050259 288.969505 
L 243.050259 284.17901 
L 243.641601 284.17901 
L 243.641601 279.388515 
L 251.587041 279.388515 
L 251.587041 274.59802 
L 251.587041 274.59802 
L 251.587041 269.807525 
L 251.587041 269.807525 
L 251.587041 265.01703 
L 251.587041 265.01703 
L 251.587041 260.226535 
L 251.587041 260.226535 
L 251.587041 255.43604 
L 251.587041 255.43604 
L 251.587041 250.645545 
L 251.587041 250.645545 
L 251.587041 245.85505 
L 251.587041 245.85505 
L 251.587041 241.064554 
L 251.587041 241.064554 
L 251.587041 236.274059 
L 251.587041 236.274059 
L 251.587041 231.483564 
L 251.587041 231.483564 
L 251.587041 226.693069 
L 251.587041 226.693069 
L 251.587041 221.902574 
L 251.587041 221.902574 
L 251.587041 217.112079 
L 251.587041 217.112079 
L 251.587041 212.321584 
L 251.587041 212.321584 
L 251.587041 207.531089 
L 253.072475 207.531089 
L 253.072475 202.740594 
L 254.576979 202.740594 
L 254.576979 197.950099 
L 255.857533 197.950099 
L 255.857533 193.159604 
L 258.224217 193.159604 
L 258.224217 188.369109 
L 258.752994 188.369109 
L 258.752994 183.578614 
L 258.823878 183.578614 
L 258.823878 178.788119 
L 259.044737 178.788119 
L 259.044737 173.997624 
L 259.482221 173.997624 
L 259.482221 169.207129 
L 259.723761 169.207129 
L 259.723761 164.416634 
L 262.835769 164.416634 
L 262.835769 159.626139 
L 263.393888 159.626139 
L 263.393888 154.835644 
L 266.765783 154.835644 
L 266.765783 150.045149 
L 266.772333 150.045149 
L 266.772333 145.254653 
L 268.572972 145.254653 
L 268.572972 140.464158 
L 269.104749 140.464158 
L 269.104749 135.673663 
L 278.83301 135.673663 
L 278.83301 130.883168 
L 284.668456 130.883168 
L 284.668456 126.092673 
L 286.057108 126.092673 
L 286.057108 121.302178 
L 287.872521 121.302178 
L 287.872521 116.511683 
L 287.94951 116.511683 
L 287.94951 111.721188 
L 290.532518 111.721188 
L 290.532518 106.930693 
L 293.399291 106.930693 
L 293.399291 102.140198 
L 296.511685 102.140198 
L 296.511685 97.349703 
L 297.246961 97.349703 
L 297.246961 92.559208 
L 303.365406 92.559208 
L 303.365406 87.768713 
L 304.933066 87.768713 
L 304.933066 82.978218 
L 305.560221 82.978218 
L 305.560221 78.187723 
L 309.344215 78.187723 
L 309.344215 73.397228 
L 309.394248 73.397228 
L 309.394248 68.606733 
L 310.317627 68.606733 
L 310.317627 63.816238 
L 310.7499 63.816238 
L 310.7499 59.025743 
L 311.901742 59.025743 
L 311.901742 54.235248 
L 317.705019 54.235248 
L 317.705019 49.444752 
L 321.820717 49.444752 
L 321.820717 44.654257 
L 321.930277 44.654257 
L 321.930277 39.863762 
L 330.256018 39.863762 
L 330.256018 35.073267 
L 335.003297 35.073267 
L 335.003297 30.282772 
L 335.065772 30.282772 
L 335.065772 25.492277 
L 343.522368 25.492277 
L 343.522368 20.701782 
L 348.985061 20.701782 
L 348.985061 15.911287 
L 354.091092 15.911287 
L 354.091092 11.120792 
L 360.615484 11.120792 
L 360.615484 6.330297 
L 360.615484 6.330297 
L 360.615484 6.330297 
L 460.8 6.330297 
" clip-path="url(#p5ed2daf903)" style="fill: none; stroke: #000000; stroke-width: 1.5; stroke-linecap: square"/>
   </g>
   <g id="line2d_25">
    <path d="M 228.850364 293.76 
L 228.850364 288.969505 
L 232.859518 288.969505 
L 232.859518 284.17901 
L 233.861053 284.17901 
L 233.861053 279.388515 
L 238.594812 279.388515 
L 238.594812 274.59802 
L 239.318556 274.59802 
L 239.318556 269.807525 
L 240.481476 269.807525 
L 240.481476 265.01703 
L 243.641601 265.01703 
L 243.641601 260.226535 
L 244.555374 260.226535 
L 244.555374 255.43604 
L 245.641465 255.43604 
L 245.641465 250.645545 
L 246.72804 250.645545 
L 246.72804 245.85505 
L 249.337444 245.85505 
L 249.337444 241.064554 
L 250.498584 241.064554 
L 250.498584 236.274059 
L 250.909715 236.274059 
L 250.909715 231.483564 
L 251.587041 231.483564 
L 251.587041 226.693069 
L 251.587041 226.693069 
L 251.587041 221.902574 
L 251.587041 221.902574 
L 251.587041 217.112079 
L 251.587041 217.112079 
L 251.587041 212.321584 
L 251.587041 212.321584 
L 251.587041 207.531089 
L 251.587041 207.531089 
L 251.587041 202.740594 
L 251.587041 202.740594 
L 251.587041 197.950099 
L 251.587041 197.950099 
L 251.587041 193.159604 
L 251.587041 193.159604 
L 251.587041 188.369109 
L 251.587041 188.369109 
L 251.587041 183.578614 
L 251.587041 183.578614 
L 251.587041 178.788119 
L 251.587041 178.788119 
L 251.587041 173.997624 
L 251.587041 173.997624 
L 251.587041 169.207129 
L 251.587041 169.207129 
L 251.587041 164.416634 
L 251.587041 164.416634 
L 251.587041 159.626139 
L 251.705378 159.626139 
L 251.705378 154.835644 
L 252.681387 154.835644 
L 252.681387 150.045149 
L 253.301248 150.045149 
L 253.301248 145.254653 
L 258.98261 145.254653 
L 258.98261 140.464158 
L 259.001857 140.464158 
L 259.001857 135.673663 
L 259.044737 135.673663 
L 259.044737 130.883168 
L 259.151294 130.883168 
L 259.151294 126.092673 
L 259.444936 126.092673 
L 259.444936 121.302178 
L 260.095054 121.302178 
L 260.095054 116.511683 
L 261.667351 116.511683 
L 261.667351 111.721188 
L 261.706395 111.721188 
L 261.706395 106.930693 
L 261.896157 106.930693 
L 261.896157 102.140198 
L 262.98372 102.140198 
L 262.98372 97.349703 
L 263.888087 97.349703 
L 263.888087 92.559208 
L 267.638358 92.559208 
L 267.638358 87.768713 
L 268.494915 87.768713 
L 268.494915 82.978218 
L 268.505617 82.978218 
L 268.505617 78.187723 
L 269.552194 78.187723 
L 269.552194 73.397228 
L 270.576062 73.397228 
L 270.576062 68.606733 
L 271.308483 68.606733 
L 271.308483 63.816238 
L 271.703605 63.816238 
L 271.703605 59.025743 
L 278.727713 59.025743 
L 278.727713 54.235248 
L 278.83301 54.235248 
L 278.83301 49.444752 
L 281.924079 49.444752 
L 281.924079 44.654257 
L 282.024625 44.654257 
L 282.024625 39.863762 
L 282.170773 39.863762 
L 282.170773 35.073267 
L 286.544032 35.073267 
L 286.544032 30.282772 
L 287.94951 30.282772 
L 287.94951 25.492277 
L 288.880258 25.492277 
L 288.880258 20.701782 
L 291.740036 20.701782 
L 291.740036 15.911287 
L 292.538585 15.911287 
L 292.538585 11.120792 
L 321.973926 11.120792 
L 321.973926 6.330297 
L 321.973926 6.330297 
L 321.973926 6.330297 
L 460.8 6.330297 
" clip-path="url(#p5ed2daf903)" style="fill: none; stroke: #00bfbf; stroke-width: 1.5; stroke-linecap: square"/>
   </g>
   <g id="line2d_26">
    <path d="M -1 284.17901 
L 12.613473 284.17901 
L 12.613473 279.388515 
L 44.449217 279.388515 
L 44.449217 274.59802 
L 155.837068 274.59802 
L 155.837068 269.807525 
L 173.990648 269.807525 
L 173.990648 265.01703 
L 180.177013 265.01703 
L 180.177013 260.226535 
L 181.305946 260.226535 
L 181.305946 255.43604 
L 184.436207 255.43604 
L 184.436207 250.645545 
L 185.663262 250.645545 
L 185.663262 245.85505 
L 188.677381 245.85505 
L 188.677381 241.064554 
L 190.472317 241.064554 
L 190.472317 236.274059 
L 192.228633 236.274059 
L 192.228633 231.483564 
L 192.897809 231.483564 
L 192.897809 226.693069 
L 193.466844 226.693069 
L 193.466844 221.902574 
L 193.871498 221.902574 
L 193.871498 217.112079 
L 195.674448 217.112079 
L 195.674448 212.321584 
L 196.563749 212.321584 
L 196.563749 207.531089 
L 197.709808 207.531089 
L 197.709808 202.740594 
L 199.471826 202.740594 
L 199.471826 197.950099 
L 202.195882 197.950099 
L 202.195882 193.159604 
L 202.522471 193.159604 
L 202.522471 188.369109 
L 203.082164 188.369109 
L 203.082164 183.578614 
L 204.417106 183.578614 
L 204.417106 178.788119 
L 204.453356 178.788119 
L 204.453356 173.997624 
L 204.500829 173.997624 
L 204.500829 169.207129 
L 206.294459 169.207129 
L 206.294459 164.416634 
L 210.432365 164.416634 
L 210.432365 159.626139 
L 210.678463 159.626139 
L 210.678463 154.835644 
L 210.692775 154.835644 
L 210.692775 150.045149 
L 214.550721 150.045149 
L 214.550721 145.254653 
L 214.701559 145.254653 
L 214.701559 140.464158 
L 215.989134 140.464158 
L 215.989134 135.673663 
L 216.062614 135.673663 
L 216.062614 130.883168 
L 217.24532 130.883168 
L 217.24532 126.092673 
L 217.543581 126.092673 
L 217.543581 121.302178 
L 217.750483 121.302178 
L 217.750483 116.511683 
L 219.250016 116.511683 
L 219.250016 111.721188 
L 220.598822 111.721188 
L 220.598822 106.930693 
L 220.748084 106.930693 
L 220.748084 102.140198 
L 221.811742 102.140198 
L 221.811742 97.349703 
L 222.148748 97.349703 
L 222.148748 92.559208 
L 222.663267 92.559208 
L 222.663267 87.768713 
L 224.467033 87.768713 
L 224.467033 82.978218 
L 224.533184 82.978218 
L 224.533184 78.187723 
L 225.095603 78.187723 
L 225.095603 73.397228 
L 225.757398 73.397228 
L 225.757398 68.606733 
L 225.951168 68.606733 
L 225.951168 63.816238 
L 226.66418 63.816238 
L 226.66418 59.025743 
L 226.774189 59.025743 
L 226.774189 54.235248 
L 227.205433 54.235248 
L 227.205433 49.444752 
L 227.283266 49.444752 
L 227.283266 44.654257 
L 228.052746 44.654257 
L 228.052746 39.863762 
L 229.598057 39.863762 
L 229.598057 35.073267 
L 229.6567 35.073267 
L 229.6567 30.282772 
L 230.335124 30.282772 
L 230.335124 25.492277 
L 231.013868 25.492277 
L 231.013868 20.701782 
L 231.166115 20.701782 
L 231.166115 15.911287 
L 231.484568 15.911287 
L 231.484568 11.120792 
L 232.517063 11.120792 
L 232.517063 6.330297 
L 232.517063 6.330297 
L 232.517063 6.330297 
L 460.8 6.330297 
" clip-path="url(#p5ed2daf903)" style="fill: none; stroke: #bf00bf; stroke-width: 1.5; stroke-linecap: square"/>
   </g>
   <g id="patch_3">
    <path d="M 0 293.76 
L 0 3.456 
" style="fill: none; stroke: #000000; stroke-width: 0.8; stroke-linejoin: miter; stroke-linecap: square"/>
   </g>
   <g id="patch_4">
    <path d="M 460.8 293.76 
L 460.8 3.456 
" style="fill: none; stroke: #000000; stroke-width: 0.8; stroke-linejoin: miter; stroke-linecap: square"/>
   </g>
   <g id="patch_5">
    <path d="M 0 293.76 
L 460.8 293.76 
" style="fill: none; stroke: #000000; stroke-width: 0.8; stroke-linejoin: miter; stroke-linecap: square"/>
   </g>
   <g id="patch_6">
    <path d="M 0 3.456 
L 460.8 3.456 
" style="fill: none; stroke: #000000; stroke-width: 0.8; stroke-linejoin: miter; stroke-linecap: square"/>
   </g>
   <g id="text_6">
    <!-- {f6-f9}, 5-D -->
    <g transform="translate(331.334 287.95392)scale(0.2 -0.2)">
     <defs>
      <path id="DejaVuSans-7b" d="M 3272 -594 
L 3272 -1044 
L 3078 -1044 
Q 2300 -1044 2036 -812 
Q 1772 -581 1772 109 
L 1772 856 
Q 1772 1328 1603 1509 
Q 1434 1691 991 1691 
L 800 1691 
L 800 2138 
L 991 2138 
Q 1438 2138 1605 2317 
Q 1772 2497 1772 2963 
L 1772 3713 
Q 1772 4403 2036 4633 
Q 2300 4863 3078 4863 
L 3272 4863 
L 3272 4416 
L 3059 4416 
Q 2619 4416 2484 4278 
Q 2350 4141 2350 3700 
L 2350 2925 
Q 2350 2434 2208 2212 
Q 2066 1991 1722 1913 
Q 2069 1828 2209 1606 
Q 2350 1384 2350 897 
L 2350 122 
Q 2350 -319 2484 -456 
Q 2619 -594 3059 -594 
L 3272 -594 
z
" transform="scale(0.015625)"/>
      <path id="DejaVuSans-36" d="M 2113 2584 
Q 1688 2584 1439 2293 
Q 1191 2003 1191 1497 
Q 1191 994 1439 701 
Q 1688 409 2113 409 
Q 2538 409 2786 701 
Q 3034 994 3034 1497 
Q 3034 2003 2786 2293 
Q 2538 2584 2113 2584 
z
M 3366 4563 
L 3366 3988 
Q 3128 4100 2886 4159 
Q 2644 4219 2406 4219 
Q 1781 4219 1451 3797 
Q 1122 3375 1075 2522 
Q 1259 2794 1537 2939 
Q 1816 3084 2150 3084 
Q 2853 3084 3261 2657 
Q 3669 2231 3669 1497 
Q 3669 778 3244 343 
Q 2819 -91 2113 -91 
Q 1303 -91 875 529 
Q 447 1150 447 2328 
Q 447 3434 972 4092 
Q 1497 4750 2381 4750 
Q 2619 4750 2861 4703 
Q 3103 4656 3366 4563 
z
" transform="scale(0.015625)"/>
      <path id="DejaVuSans-39" d="M 703 97 
L 703 672 
Q 941 559 1184 500 
Q 1428 441 1663 441 
Q 2288 441 2617 861 
Q 2947 1281 2994 2138 
Q 2813 1869 2534 1725 
Q 2256 1581 1919 1581 
Q 1219 1581 811 2004 
Q 403 2428 403 3163 
Q 403 3881 828 4315 
Q 1253 4750 1959 4750 
Q 2769 4750 3195 4129 
Q 3622 3509 3622 2328 
Q 3622 1225 3098 567 
Q 2575 -91 1691 -91 
Q 1453 -91 1209 -44 
Q 966 3 703 97 
z
M 1959 2075 
Q 2384 2075 2632 2365 
Q 2881 2656 2881 3163 
Q 2881 3666 2632 3958 
Q 2384 4250 1959 4250 
Q 1534 4250 1286 3958 
Q 1038 3666 1038 3163 
Q 1038 2656 1286 2365 
Q 1534 2075 1959 2075 
z
" transform="scale(0.015625)"/>
      <path id="DejaVuSans-7d" d="M 800 -594 
L 1019 -594 
Q 1456 -594 1589 -459 
Q 1722 -325 1722 122 
L 1722 897 
Q 1722 1384 1862 1606 
Q 2003 1828 2350 1913 
Q 2003 1991 1862 2212 
Q 1722 2434 1722 2925 
L 1722 3700 
Q 1722 4144 1589 4280 
Q 1456 4416 1019 4416 
L 800 4416 
L 800 4863 
L 997 4863 
Q 1775 4863 2036 4633 
Q 2297 4403 2297 3713 
L 2297 2963 
Q 2297 2497 2465 2317 
Q 2634 2138 3078 2138 
L 3272 2138 
L 3272 1691 
L 3078 1691 
Q 2634 1691 2465 1509 
Q 2297 1328 2297 856 
L 2297 109 
Q 2297 -581 2036 -812 
Q 1775 -1044 997 -1044 
L 800 -1044 
L 800 -594 
z
" transform="scale(0.015625)"/>
      <path id="DejaVuSans-2c" d="M 750 794 
L 1409 794 
L 1409 256 
L 897 -744 
L 494 -744 
L 750 256 
L 750 794 
z
" transform="scale(0.015625)"/>
      <path id="DejaVuSans-35" d="M 691 4666 
L 3169 4666 
L 3169 4134 
L 1269 4134 
L 1269 2991 
Q 1406 3038 1543 3061 
Q 1681 3084 1819 3084 
Q 2600 3084 3056 2656 
Q 3513 2228 3513 1497 
Q 3513 744 3044 326 
Q 2575 -91 1722 -91 
Q 1428 -91 1123 -41 
Q 819 9 494 109 
L 494 744 
Q 775 591 1075 516 
Q 1375 441 1709 441 
Q 2250 441 2565 725 
Q 2881 1009 2881 1497 
Q 2881 1984 2565 2268 
Q 2250 2553 1709 2553 
Q 1456 2553 1204 2497 
Q 953 2441 691 2322 
L 691 4666 
z
" transform="scale(0.015625)"/>
     </defs>
     <use xlink:href="#DejaVuSans-7b"/>
     <use xlink:href="#DejaVuSans-66" x="63.623047"/>
     <use xlink:href="#DejaVuSans-36" x="98.828125"/>
     <use xlink:href="#DejaVuSans-2d" x="162.451172"/>
     <use xlink:href="#DejaVuSans-66" x="198.535156"/>
     <use xlink:href="#DejaVuSans-39" x="233.740234"/>
     <use xlink:href="#DejaVuSans-7d" x="297.363281"/>
     <use xlink:href="#DejaVuSans-2c" x="360.986328"/>
     <use xlink:href="#DejaVuSans-20" x="392.773438"/>
     <use xlink:href="#DejaVuSans-35" x="424.560547"/>
     <use xlink:href="#DejaVuSans-2d" x="488.183594"/>
     <use xlink:href="#DejaVuSans-44" x="524.267578"/>
    </g>
   </g>
   <g id="text_7">
    <!-- v2.6.3 -->
    <g style="fill: #808080" transform="translate(214.71875 288.777272)scale(0.1 -0.1)">
     <defs>
      <path id="DejaVuSans-76" d="M 191 3500 
L 800 3500 
L 1894 563 
L 2988 3500 
L 3597 3500 
L 2284 0 
L 1503 0 
L 191 3500 
z
" transform="scale(0.015625)"/>
      <path id="DejaVuSans-32" d="M 1228 531 
L 3431 531 
L 3431 0 
L 469 0 
L 469 531 
Q 828 903 1448 1529 
Q 2069 2156 2228 2338 
Q 2531 2678 2651 2914 
Q 2772 3150 2772 3378 
Q 2772 3750 2511 3984 
Q 2250 4219 1831 4219 
Q 1534 4219 1204 4116 
Q 875 4013 500 3803 
L 500 4441 
Q 881 4594 1212 4672 
Q 1544 4750 1819 4750 
Q 2544 4750 2975 4387 
Q 3406 4025 3406 3419 
Q 3406 3131 3298 2873 
Q 3191 2616 2906 2266 
Q 2828 2175 2409 1742 
Q 1991 1309 1228 531 
z
" transform="scale(0.015625)"/>
      <path id="DejaVuSans-2e" d="M 684 794 
L 1344 794 
L 1344 0 
L 684 0 
L 684 794 
z
" transform="scale(0.015625)"/>
      <path id="DejaVuSans-33" d="M 2597 2516 
Q 3050 2419 3304 2112 
Q 3559 1806 3559 1356 
Q 3559 666 3084 287 
Q 2609 -91 1734 -91 
Q 1441 -91 1130 -33 
Q 819 25 488 141 
L 488 750 
Q 750 597 1062 519 
Q 1375 441 1716 441 
Q 2309 441 2620 675 
Q 2931 909 2931 1356 
Q 2931 1769 2642 2001 
Q 2353 2234 1838 2234 
L 1294 2234 
L 1294 2753 
L 1863 2753 
Q 2328 2753 2575 2939 
Q 2822 3125 2822 3475 
Q 2822 3834 2567 4026 
Q 2313 4219 1838 4219 
Q 1578 4219 1281 4162 
Q 984 4106 628 3988 
L 628 4550 
Q 988 4650 1302 4700 
Q 1616 4750 1894 4750 
Q 2613 4750 3031 4423 
Q 3450 4097 3450 3541 
Q 3450 3153 3228 2886 
Q 3006 2619 2597 2516 
z
" transform="scale(0.015625)"/>
     </defs>
     <use xlink:href="#DejaVuSans-76"/>
     <use xlink:href="#DejaVuSans-32" x="59.179688"/>
     <use xlink:href="#DejaVuSans-2e" x="122.802734"/>
     <use xlink:href="#DejaVuSans-36" x="154.589844"/>
     <use xlink:href="#DejaVuSans-2e" x="218.212891"/>
     <use xlink:href="#DejaVuSans-33" x="250"/>
    </g>
   </g>
  </g>
 </g>
 <defs>
  <clipPath id="p5ed2daf903">
   <rect x="0" y="3.456" width="460.8" height="290.304"/>
  </clipPath>
 </defs>
</svg>
