<?xml version="1.0" encoding="utf-8" standalone="no"?>
<!DOCTYPE svg PUBLIC "-//W3C//DTD SVG 1.1//EN"
  "http://www.w3.org/Graphics/SVG/1.1/DTD/svg11.dtd">
<svg xmlns:xlink="http://www.w3.org/1999/xlink" width="460.8pt" height="345.6pt" viewBox="0 0 460.8 345.6" xmlns="http://www.w3.org/2000/svg" version="1.1">
 <metadata>
  <rdf:RDF xmlns:dc="http://purl.org/dc/elements/1.1/" xmlns:cc="http://creativecommons.org/ns#" xmlns:rdf="http://www.w3.org/1999/02/22-rdf-syntax-ns#">
   <cc:Work>
    <dc:type rdf:resource="http://purl.org/dc/dcmitype/StillImage"/>
    <dc:date>2023-04-07T14:46:09.035722</dc:date>
    <dc:format>image/svg+xml</dc:format>
    <dc:creator>
     <cc:Agent>
      <dc:title>Matplotlib v3.5.2, https://matplotlib.org/</dc:title>
     </cc:Agent>
    </dc:creator>
   </cc:Work>
  </rdf:RDF>
 </metadata>
 <defs>
  <style type="text/css">*{stroke-linejoin: round; stroke-linecap: butt}</style>
 </defs>
 <g id="figure_1">
  <g id="patch_1">
   <path d="M 0 345.6 
L 460.8 345.6 
L 460.8 0 
L 0 0 
z
" style="fill: #ffffff"/>
  </g>
  <g id="axes_1">
   <g id="patch_2">
    <path d="M 62.208 293.76 
L 460.8 293.76 
L 460.8 3.456 
L 62.208 3.456 
z
" style="fill: #ffffff"/>
   </g>
   <g id="line2d_1">
    <path d="M 205.259283 293.76 
L 205.259283 289.927604 
L 208.296406 289.927604 
L 208.296406 286.095208 
L 209.249078 286.095208 
L 209.249078 282.262812 
L 210.384671 282.262812 
L 210.384671 278.430416 
L 210.523882 278.430416 
L 210.523882 274.59802 
L 210.800536 274.59802 
L 210.800536 270.765624 
L 214.568951 270.765624 
L 214.568951 266.933228 
L 216.243421 266.933228 
L 216.243421 263.100832 
L 218.495693 263.100832 
L 218.495693 259.268436 
L 221.804346 259.268436 
L 221.804346 255.43604 
L 222.72535 255.43604 
L 222.72535 251.603644 
L 228.292609 251.603644 
L 228.292609 247.771248 
L 234.678214 247.771248 
L 234.678214 243.938851 
L 239.161394 243.938851 
L 239.161394 240.106455 
L 239.819178 240.106455 
L 239.819178 236.274059 
L 240.436198 236.274059 
L 240.436198 232.441663 
L 241.069033 232.441663 
L 241.069033 228.609267 
L 241.313363 228.609267 
L 241.313363 224.776871 
L 243.686219 224.776871 
L 243.686219 220.944475 
L 244.456712 220.944475 
L 244.456712 217.112079 
L 255.640258 217.112079 
L 255.640258 213.279683 
L 256.483756 213.279683 
L 256.483756 209.447287 
L 257.520723 209.447287 
L 257.520723 205.614891 
L 259.716976 205.614891 
L 259.716976 201.782495 
L 267.584215 201.782495 
L 267.584215 197.950099 
L 271.0793 197.950099 
L 271.0793 194.117703 
L 273.749089 194.117703 
L 273.749089 190.285307 
L 283.546005 190.285307 
L 283.546005 186.452911 
L 283.546005 186.452911 
L 283.546005 186.452911 
L 460.8 186.452911 
" clip-path="url(#p3a9e9acb54)" style="fill: none; stroke: #f5deb3; stroke-width: 1.5; stroke-linecap: square"/>
   </g>
   <g id="line2d_2">
    <path d="M 269.027454 293.76 
L 269.027454 282.262812 
L 284.344677 282.262812 
L 284.344677 270.765624 
L 295.780656 270.765624 
L 295.780656 259.268436 
L 332.424158 259.268436 
L 332.424158 247.771248 
L 359.029114 247.771248 
L 359.029114 236.274059 
L 359.029114 236.274059 
L 359.029114 236.274059 
L 460.8 236.274059 
" clip-path="url(#p3a9e9acb54)" style="fill: none; stroke: #f5deb3; stroke-width: 1.5; stroke-linecap: square"/>
   </g>
   <g id="line2d_3">
    <path d="M 173.021744 293.76 
L 173.021744 289.927604 
L 176.939722 289.927604 
L 176.939722 286.095208 
L 207.771676 286.095208 
L 207.771676 282.262812 
L 209.031685 282.262812 
L 209.031685 278.430416 
L 210.937989 278.430416 
L 210.937989 274.59802 
L 216.47577 274.59802 
L 216.47577 270.765624 
L 219.828327 270.765624 
L 219.828327 266.933228 
L 222.72535 266.933228 
L 222.72535 263.100832 
L 225.165083 263.100832 
L 225.165083 259.268436 
L 225.561854 259.268436 
L 225.561854 255.43604 
L 229.245816 255.43604 
L 229.245816 251.603644 
L 231.072586 251.603644 
L 231.072586 247.771248 
L 236.451959 247.771248 
L 236.451959 243.938851 
L 238.014806 243.938851 
L 238.014806 240.106455 
L 243.736481 240.106455 
L 243.736481 236.274059 
L 250.576021 236.274059 
L 250.576021 232.441663 
L 257.945965 232.441663 
L 257.945965 228.609267 
L 267.059933 228.609267 
L 267.059933 224.776871 
L 267.608396 224.776871 
L 267.608396 220.944475 
L 269.338416 220.944475 
L 269.338416 217.112079 
L 272.587077 217.112079 
L 272.587077 213.279683 
L 276.151889 213.279683 
L 276.151889 209.447287 
L 276.905976 209.447287 
L 276.905976 205.614891 
L 287.991254 205.614891 
L 287.991254 201.782495 
L 290.846842 201.782495 
L 290.846842 197.950099 
L 315.927554 197.950099 
L 315.927554 194.117703 
L 317.920396 194.117703 
L 317.920396 190.285307 
L 318.4008 190.285307 
L 318.4008 186.452911 
L 327.254145 186.452911 
L 327.254145 182.620515 
L 341.091013 182.620515 
L 341.091013 178.788119 
L 341.091013 178.788119 
L 341.091013 178.788119 
L 460.8 178.788119 
" clip-path="url(#p3a9e9acb54)" style="fill: none; stroke: #f5deb3; stroke-width: 1.5; stroke-linecap: square"/>
   </g>
   <g id="line2d_4">
    <path d="M 198.279381 293.76 
L 198.279381 289.927604 
L 215.237058 289.927604 
L 215.237058 286.095208 
L 215.297122 286.095208 
L 215.297122 282.262812 
L 217.613342 282.262812 
L 217.613342 278.430416 
L 243.433743 278.430416 
L 243.433743 274.59802 
L 244.382938 274.59802 
L 244.382938 270.765624 
L 247.903575 270.765624 
L 247.903575 266.933228 
L 248.123853 266.933228 
L 248.123853 263.100832 
L 251.400485 263.100832 
L 251.400485 259.268436 
L 260.657557 259.268436 
L 260.657557 255.43604 
L 261.87574 255.43604 
L 261.87574 251.603644 
L 264.451035 251.603644 
L 264.451035 247.771248 
L 264.544097 247.771248 
L 264.544097 243.938851 
L 267.825227 243.938851 
L 267.825227 240.106455 
L 268.443658 240.106455 
L 268.443658 236.274059 
L 269.657796 236.274059 
L 269.657796 232.441663 
L 273.66888 232.441663 
L 273.66888 228.609267 
L 286.181245 228.609267 
L 286.181245 224.776871 
L 294.933491 224.776871 
L 294.933491 220.944475 
L 295.3133 220.944475 
L 295.3133 217.112079 
L 299.751222 217.112079 
L 299.751222 213.279683 
L 301.234138 213.279683 
L 301.234138 209.447287 
L 309.579897 209.447287 
L 309.579897 205.614891 
L 312.333951 205.614891 
L 312.333951 201.782495 
L 315.520645 201.782495 
L 315.520645 197.950099 
L 318.670007 197.950099 
L 318.670007 194.117703 
L 329.076736 194.117703 
L 329.076736 190.285307 
L 333.105742 190.285307 
L 333.105742 186.452911 
L 346.21676 186.452911 
L 346.21676 182.620515 
L 346.967303 182.620515 
L 346.967303 178.788119 
L 348.410388 178.788119 
L 348.410388 174.955723 
L 351.055443 174.955723 
L 351.055443 171.123327 
L 356.166246 171.123327 
L 356.166246 167.290931 
L 356.166246 167.290931 
L 356.166246 167.290931 
L 460.8 167.290931 
" clip-path="url(#p3a9e9acb54)" style="fill: none; stroke: #f5deb3; stroke-width: 1.5; stroke-linecap: square"/>
   </g>
   <g id="line2d_5">
    <path d="M 289.816528 293.76 
L 289.816528 289.927604 
L 289.816528 289.927604 
L 289.816528 289.927604 
L 460.8 289.927604 
" clip-path="url(#p3a9e9acb54)" style="fill: none; stroke: #f5deb3; stroke-width: 1.5; stroke-linecap: square"/>
   </g>
   <g id="line2d_6"/>
   <g id="line2d_7">
    <path d="M 218.057499 293.76 
L 218.057499 289.927604 
L 223.760293 289.927604 
L 223.760293 286.095208 
L 225.430132 286.095208 
L 225.430132 282.262812 
L 228.891617 282.262812 
L 228.891617 278.430416 
L 236.104836 278.430416 
L 236.104836 274.59802 
L 283.173 274.59802 
L 283.173 270.765624 
L 295.251169 270.765624 
L 295.251169 266.933228 
L 298.230856 266.933228 
L 298.230856 263.100832 
L 298.946712 263.100832 
L 298.946712 259.268436 
L 302.540873 259.268436 
L 302.540873 255.43604 
L 311.575887 255.43604 
L 311.575887 251.603644 
L 313.613721 251.603644 
L 313.613721 247.771248 
L 314.668423 247.771248 
L 314.668423 243.938851 
L 314.85658 243.938851 
L 314.85658 240.106455 
L 316.105875 240.106455 
L 316.105875 236.274059 
L 317.637079 236.274059 
L 317.637079 232.441663 
L 321.662317 232.441663 
L 321.662317 228.609267 
L 322.69356 228.609267 
L 322.69356 224.776871 
L 323.764706 224.776871 
L 323.764706 220.944475 
L 329.065701 220.944475 
L 329.065701 217.112079 
L 330.401057 217.112079 
L 330.401057 213.279683 
L 331.719563 213.279683 
L 331.719563 209.447287 
L 335.379787 209.447287 
L 335.379787 205.614891 
L 338.405077 205.614891 
L 338.405077 201.782495 
L 341.543475 201.782495 
L 341.543475 197.950099 
L 351.406197 197.950099 
L 351.406197 194.117703 
L 351.522899 194.117703 
L 351.522899 190.285307 
L 355.923956 190.285307 
L 355.923956 186.452911 
L 369.50195 186.452911 
L 369.50195 182.620515 
L 371.403284 182.620515 
L 371.403284 178.788119 
L 372.880944 178.788119 
L 372.880944 174.955723 
L 379.120806 174.955723 
L 379.120806 171.123327 
L 381.228013 171.123327 
L 381.228013 167.290931 
L 381.819225 167.290931 
L 381.819225 163.458535 
L 389.775943 163.458535 
L 389.775943 159.626139 
L 391.875839 159.626139 
L 391.875839 155.793743 
L 397.14417 155.793743 
L 397.14417 151.961347 
L 401.596395 151.961347 
L 401.596395 148.12895 
L 404.653781 148.12895 
L 404.653781 144.296554 
L 405.739086 144.296554 
L 405.739086 140.464158 
L 407.538577 140.464158 
L 407.538577 136.631762 
L 409.92849 136.631762 
L 409.92849 132.799366 
L 416.840777 132.799366 
L 416.840777 128.96697 
L 419.356083 128.96697 
L 419.356083 125.134574 
L 421.9885 125.134574 
L 421.9885 121.302178 
L 422.170266 121.302178 
L 422.170266 117.469782 
L 425.409324 117.469782 
L 425.409324 113.637386 
L 425.559368 113.637386 
L 425.559368 109.80499 
L 428.580218 109.80499 
L 428.580218 105.972594 
L 436.562998 105.972594 
L 436.562998 102.140198 
L 455.235369 102.140198 
L 455.235369 98.307802 
L 456.579366 98.307802 
L 456.579366 94.475406 
L 461.8 94.475406 
" clip-path="url(#p3a9e9acb54)" style="fill: none; stroke: #f5deb3; stroke-width: 1.5; stroke-linecap: square"/>
   </g>
   <g id="line2d_8">
    <path d="M 327.187968 293.76 
L 327.187968 289.927604 
L 332.887216 289.927604 
L 332.887216 286.095208 
L 335.241541 286.095208 
L 335.241541 282.262812 
L 337.284778 282.262812 
L 337.284778 278.430416 
L 337.806837 278.430416 
L 337.806837 274.59802 
L 338.597958 274.59802 
L 338.597958 270.765624 
L 342.075069 270.765624 
L 342.075069 266.933228 
L 362.414053 266.933228 
L 362.414053 263.100832 
L 362.569318 263.100832 
L 362.569318 259.268436 
L 362.585793 259.268436 
L 362.585793 255.43604 
L 363.379797 255.43604 
L 363.379797 251.603644 
L 364.090211 251.603644 
L 364.090211 247.771248 
L 364.675066 247.771248 
L 364.675066 243.938851 
L 387.629053 243.938851 
L 387.629053 240.106455 
L 387.975333 240.106455 
L 387.975333 236.274059 
L 388.017379 236.274059 
L 388.017379 232.441663 
L 388.780737 232.441663 
L 388.780737 228.609267 
L 389.030786 228.609267 
L 389.030786 224.776871 
L 396.68474 224.776871 
L 396.68474 220.944475 
L 397.37693 220.944475 
L 397.37693 217.112079 
L 416.796741 217.112079 
L 416.796741 213.279683 
L 416.856401 213.279683 
L 416.856401 209.447287 
L 417.140193 209.447287 
L 417.140193 205.614891 
L 420.147496 205.614891 
L 420.147496 201.782495 
L 431.540564 201.782495 
L 431.540564 197.950099 
L 438.037587 197.950099 
L 438.037587 194.117703 
L 438.037587 194.117703 
L 438.037587 194.117703 
L 460.8 194.117703 
" clip-path="url(#p3a9e9acb54)" style="fill: none; stroke: #f5deb3; stroke-width: 1.5; stroke-linecap: square"/>
   </g>
   <g id="line2d_9">
    <path d="M 210.314842 293.76 
L 210.314842 289.927604 
L 214.260686 289.927604 
L 214.260686 286.095208 
L 224.808303 286.095208 
L 224.808303 282.262812 
L 225.649374 282.262812 
L 225.649374 278.430416 
L 257.471299 278.430416 
L 257.471299 274.59802 
L 261.323653 274.59802 
L 261.323653 270.765624 
L 265.214234 270.765624 
L 265.214234 266.933228 
L 268.195316 266.933228 
L 268.195316 263.100832 
L 273.193631 263.100832 
L 273.193631 259.268436 
L 285.573493 259.268436 
L 285.573493 255.43604 
L 286.676956 255.43604 
L 286.676956 251.603644 
L 286.703902 251.603644 
L 286.703902 247.771248 
L 296.266544 247.771248 
L 296.266544 243.938851 
L 298.77503 243.938851 
L 298.77503 240.106455 
L 307.776795 240.106455 
L 307.776795 236.274059 
L 311.374101 236.274059 
L 311.374101 232.441663 
L 313.530933 232.441663 
L 313.530933 228.609267 
L 314.845207 228.609267 
L 314.845207 224.776871 
L 318.262798 224.776871 
L 318.262798 220.944475 
L 320.382141 220.944475 
L 320.382141 217.112079 
L 323.252215 217.112079 
L 323.252215 213.279683 
L 323.254413 213.279683 
L 323.254413 209.447287 
L 325.688892 209.447287 
L 325.688892 205.614891 
L 330.208022 205.614891 
L 330.208022 201.782495 
L 332.407558 201.782495 
L 332.407558 197.950099 
L 334.648537 197.950099 
L 334.648537 194.117703 
L 337.60213 194.117703 
L 337.60213 190.285307 
L 344.727935 190.285307 
L 344.727935 186.452911 
L 345.968907 186.452911 
L 345.968907 182.620515 
L 347.182383 182.620515 
L 347.182383 178.788119 
L 353.940371 178.788119 
L 353.940371 174.955723 
L 355.613853 174.955723 
L 355.613853 171.123327 
L 359.892545 171.123327 
L 359.892545 167.290931 
L 369.284286 167.290931 
L 369.284286 163.458535 
L 369.424036 163.458535 
L 369.424036 159.626139 
L 370.77011 159.626139 
L 370.77011 155.793743 
L 373.98013 155.793743 
L 373.98013 151.961347 
L 376.397725 151.961347 
L 376.397725 148.12895 
L 377.367071 148.12895 
L 377.367071 144.296554 
L 377.515861 144.296554 
L 377.515861 140.464158 
L 381.223175 140.464158 
L 381.223175 136.631762 
L 381.428372 136.631762 
L 381.428372 132.799366 
L 383.807151 132.799366 
L 383.807151 128.96697 
L 384.6132 128.96697 
L 384.6132 125.134574 
L 391.869661 125.134574 
L 391.869661 121.302178 
L 393.86673 121.302178 
L 393.86673 117.469782 
L 393.914204 117.469782 
L 393.914204 113.637386 
L 394.146532 113.637386 
L 394.146532 109.80499 
L 394.17408 109.80499 
L 394.17408 105.972594 
L 394.971829 105.972594 
L 394.971829 102.140198 
L 396.05185 102.140198 
L 396.05185 98.307802 
L 396.77548 98.307802 
L 396.77548 94.475406 
L 396.833911 94.475406 
L 396.833911 90.64301 
L 398.129347 90.64301 
L 398.129347 86.810614 
L 399.014297 86.810614 
L 399.014297 82.978218 
L 399.213124 82.978218 
L 399.213124 79.145822 
L 404.364128 79.145822 
L 404.364128 75.313426 
L 407.984027 75.313426 
L 407.984027 71.48103 
L 420.085414 71.48103 
L 420.085414 67.648634 
L 424.415968 67.648634 
L 424.415968 63.816238 
L 433.571769 63.816238 
L 433.571769 59.983842 
L 461.8 59.983842 
" clip-path="url(#p3a9e9acb54)" style="fill: none; stroke: #f5deb3; stroke-width: 1.5; stroke-linecap: square"/>
   </g>
   <g id="line2d_10">
    <path d="M 313.104818 293.76 
L 313.104818 289.927604 
L 327.267754 289.927604 
L 327.267754 286.095208 
L 331.146453 286.095208 
L 331.146453 282.262812 
L 334.164367 282.262812 
L 334.164367 278.430416 
L 343.715068 278.430416 
L 343.715068 274.59802 
L 345.748963 274.59802 
L 345.748963 270.765624 
L 346.832021 270.765624 
L 346.832021 266.933228 
L 347.647925 266.933228 
L 347.647925 263.100832 
L 350.64964 263.100832 
L 350.64964 259.268436 
L 375.391593 259.268436 
L 375.391593 255.43604 
L 382.657062 255.43604 
L 382.657062 251.603644 
L 385.632845 251.603644 
L 385.632845 247.771248 
L 389.372157 247.771248 
L 389.372157 243.938851 
L 392.539192 243.938851 
L 392.539192 240.106455 
L 394.245098 240.106455 
L 394.245098 236.274059 
L 394.39985 236.274059 
L 394.39985 232.441663 
L 411.860598 232.441663 
L 411.860598 228.609267 
L 418.941519 228.609267 
L 418.941519 224.776871 
L 421.986684 224.776871 
L 421.986684 220.944475 
L 421.986684 220.944475 
L 421.986684 220.944475 
L 460.8 220.944475 
" clip-path="url(#p3a9e9acb54)" style="fill: none; stroke: #f5deb3; stroke-width: 1.5; stroke-linecap: square"/>
   </g>
   <g id="line2d_11">
    <path d="M 266.364275 293.76 
L 266.364275 289.927604 
L 293.848062 289.927604 
L 293.848062 286.095208 
L 306.247891 286.095208 
L 306.247891 282.262812 
L 312.127541 282.262812 
L 312.127541 278.430416 
L 314.950253 278.430416 
L 314.950253 274.59802 
L 317.910043 274.59802 
L 317.910043 270.765624 
L 319.024697 270.765624 
L 319.024697 266.933228 
L 320.09044 266.933228 
L 320.09044 263.100832 
L 328.370388 263.100832 
L 328.370388 259.268436 
L 329.8131 259.268436 
L 329.8131 255.43604 
L 329.8634 255.43604 
L 329.8634 251.603644 
L 331.868457 251.603644 
L 331.868457 247.771248 
L 337.294787 247.771248 
L 337.294787 243.938851 
L 337.671451 243.938851 
L 337.671451 240.106455 
L 340.245287 240.106455 
L 340.245287 236.274059 
L 340.841896 236.274059 
L 340.841896 232.441663 
L 341.319292 232.441663 
L 341.319292 228.609267 
L 341.701242 228.609267 
L 341.701242 224.776871 
L 342.404348 224.776871 
L 342.404348 220.944475 
L 346.298238 220.944475 
L 346.298238 217.112079 
L 356.320661 217.112079 
L 356.320661 213.279683 
L 356.878587 213.279683 
L 356.878587 209.447287 
L 358.672342 209.447287 
L 358.672342 205.614891 
L 362.254052 205.614891 
L 362.254052 201.782495 
L 363.402936 201.782495 
L 363.402936 197.950099 
L 365.065742 197.950099 
L 365.065742 194.117703 
L 373.420984 194.117703 
L 373.420984 190.285307 
L 374.430553 190.285307 
L 374.430553 186.452911 
L 374.528488 186.452911 
L 374.528488 182.620515 
L 376.831535 182.620515 
L 376.831535 178.788119 
L 380.45371 178.788119 
L 380.45371 174.955723 
L 398.178099 174.955723 
L 398.178099 171.123327 
L 436.733032 171.123327 
L 436.733032 167.290931 
L 445.689273 167.290931 
L 445.689273 163.458535 
L 447.422161 163.458535 
L 447.422161 159.626139 
L 447.926928 159.626139 
L 447.926928 155.793743 
L 448.198836 155.793743 
L 448.198836 151.961347 
L 461.8 151.961347 
" clip-path="url(#p3a9e9acb54)" style="fill: none; stroke: #f5deb3; stroke-width: 1.5; stroke-linecap: square"/>
   </g>
   <g id="line2d_12">
    <path d="M 213.254209 293.76 
L 213.254209 289.927604 
L 216.185074 289.927604 
L 216.185074 286.095208 
L 217.557395 286.095208 
L 217.557395 282.262812 
L 229.518671 282.262812 
L 229.518671 278.430416 
L 229.750746 278.430416 
L 229.750746 274.59802 
L 242.272795 274.59802 
L 242.272795 270.765624 
L 243.961706 270.765624 
L 243.961706 266.933228 
L 245.137347 266.933228 
L 245.137347 263.100832 
L 245.851188 263.100832 
L 245.851188 259.268436 
L 249.959284 259.268436 
L 249.959284 255.43604 
L 255.657692 255.43604 
L 255.657692 251.603644 
L 257.388757 251.603644 
L 257.388757 247.771248 
L 258.653221 247.771248 
L 258.653221 243.938851 
L 260.236131 243.938851 
L 260.236131 240.106455 
L 260.326895 240.106455 
L 260.326895 236.274059 
L 260.507671 236.274059 
L 260.507671 232.441663 
L 262.091125 232.441663 
L 262.091125 228.609267 
L 265.743171 228.609267 
L 265.743171 224.776871 
L 272.701022 224.776871 
L 272.701022 220.944475 
L 279.859145 220.944475 
L 279.859145 217.112079 
L 287.271307 217.112079 
L 287.271307 213.279683 
L 291.053775 213.279683 
L 291.053775 209.447287 
L 294.251324 209.447287 
L 294.251324 205.614891 
L 296.421913 205.614891 
L 296.421913 201.782495 
L 306.75095 201.782495 
L 306.75095 197.950099 
L 311.237822 197.950099 
L 311.237822 194.117703 
L 316.310427 194.117703 
L 316.310427 190.285307 
L 316.892474 190.285307 
L 316.892474 186.452911 
L 327.172377 186.452911 
L 327.172377 182.620515 
L 327.590735 182.620515 
L 327.590735 178.788119 
L 327.590735 178.788119 
L 327.590735 178.788119 
L 460.8 178.788119 
" clip-path="url(#p3a9e9acb54)" style="fill: none; stroke: #f5deb3; stroke-width: 1.5; stroke-linecap: square"/>
   </g>
   <g id="line2d_13">
    <path d="M 266.502097 293.76 
L 266.502097 289.927604 
L 277.793781 289.927604 
L 277.793781 286.095208 
L 282.074303 286.095208 
L 282.074303 282.262812 
L 283.045202 282.262812 
L 283.045202 278.430416 
L 287.462658 278.430416 
L 287.462658 274.59802 
L 291.018394 274.59802 
L 291.018394 270.765624 
L 293.9453 270.765624 
L 293.9453 266.933228 
L 294.176426 266.933228 
L 294.176426 263.100832 
L 294.176426 263.100832 
L 294.176426 259.268436 
L 296.251469 259.268436 
L 296.251469 255.43604 
L 308.107042 255.43604 
L 308.107042 251.603644 
L 308.107042 251.603644 
L 308.107042 251.603644 
L 460.8 251.603644 
" clip-path="url(#p3a9e9acb54)" style="fill: none; stroke: #f5deb3; stroke-width: 1.5; stroke-linecap: square"/>
   </g>
   <g id="line2d_14">
    <path d="M 183.596437 293.76 
L 183.596437 289.927604 
L 192.789127 289.927604 
L 192.789127 286.095208 
L 241.636317 286.095208 
L 241.636317 282.262812 
L 272.804263 282.262812 
L 272.804263 278.430416 
L 280.427185 278.430416 
L 280.427185 274.59802 
L 284.272213 274.59802 
L 284.272213 270.765624 
L 285.300487 270.765624 
L 285.300487 266.933228 
L 291.516085 266.933228 
L 291.516085 263.100832 
L 292.26288 263.100832 
L 292.26288 259.268436 
L 296.30671 259.268436 
L 296.30671 255.43604 
L 298.565004 255.43604 
L 298.565004 251.603644 
L 299.016056 251.603644 
L 299.016056 247.771248 
L 299.269066 247.771248 
L 299.269066 243.938851 
L 300.943765 243.938851 
L 300.943765 240.106455 
L 303.440354 240.106455 
L 303.440354 236.274059 
L 306.670688 236.274059 
L 306.670688 232.441663 
L 309.789726 232.441663 
L 309.789726 228.609267 
L 325.482206 228.609267 
L 325.482206 224.776871 
L 325.944917 224.776871 
L 325.944917 220.944475 
L 327.102127 220.944475 
L 327.102127 217.112079 
L 327.845693 217.112079 
L 327.845693 213.279683 
L 336.777482 213.279683 
L 336.777482 209.447287 
L 339.80215 209.447287 
L 339.80215 205.614891 
L 343.534894 205.614891 
L 343.534894 201.782495 
L 345.661675 201.782495 
L 345.661675 197.950099 
L 348.493679 197.950099 
L 348.493679 194.117703 
L 357.18862 194.117703 
L 357.18862 190.285307 
L 357.18862 190.285307 
L 357.18862 190.285307 
L 460.8 190.285307 
" clip-path="url(#p3a9e9acb54)" style="fill: none; stroke: #f5deb3; stroke-width: 1.5; stroke-linecap: square"/>
   </g>
   <g id="line2d_15">
    <path d="M 372.722439 293.76 
L 372.722439 289.927604 
L 374.200118 289.927604 
L 374.200118 286.095208 
L 376.523059 286.095208 
L 376.523059 282.262812 
L 379.19377 282.262812 
L 379.19377 278.430416 
L 381.325378 278.430416 
L 381.325378 274.59802 
L 384.654777 274.59802 
L 384.654777 270.765624 
L 386.953081 270.765624 
L 386.953081 266.933228 
L 390.784781 266.933228 
L 390.784781 263.100832 
L 396.027971 263.100832 
L 396.027971 259.268436 
L 398.633505 259.268436 
L 398.633505 255.43604 
L 398.896236 255.43604 
L 398.896236 251.603644 
L 402.952242 251.603644 
L 402.952242 247.771248 
L 403.63342 247.771248 
L 403.63342 243.938851 
L 403.677795 243.938851 
L 403.677795 240.106455 
L 404.257875 240.106455 
L 404.257875 236.274059 
L 405.121649 236.274059 
L 405.121649 232.441663 
L 406.864394 232.441663 
L 406.864394 228.609267 
L 409.864774 228.609267 
L 409.864774 224.776871 
L 414.461571 224.776871 
L 414.461571 220.944475 
L 414.461571 220.944475 
L 414.461571 220.944475 
L 460.8 220.944475 
" clip-path="url(#p3a9e9acb54)" style="fill: none; stroke: #f5deb3; stroke-width: 1.5; stroke-linecap: square"/>
   </g>
   <g id="line2d_16">
    <path d="M 271.371403 293.76 
L 271.371403 289.927604 
L 337.909413 289.927604 
L 337.909413 286.095208 
L 359.421974 286.095208 
L 359.421974 282.262812 
L 360.159746 282.262812 
L 360.159746 278.430416 
L 366.799997 278.430416 
L 366.799997 274.59802 
L 372.829478 274.59802 
L 372.829478 270.765624 
L 387.090519 270.765624 
L 387.090519 266.933228 
L 394.781216 266.933228 
L 394.781216 263.100832 
L 395.78607 263.100832 
L 395.78607 259.268436 
L 397.596773 259.268436 
L 397.596773 255.43604 
L 403.704727 255.43604 
L 403.704727 251.603644 
L 407.5128 251.603644 
L 407.5128 247.771248 
L 409.846812 247.771248 
L 409.846812 243.938851 
L 410.958051 243.938851 
L 410.958051 240.106455 
L 412.329465 240.106455 
L 412.329465 236.274059 
L 412.499981 236.274059 
L 412.499981 232.441663 
L 416.240584 232.441663 
L 416.240584 228.609267 
L 416.456217 228.609267 
L 416.456217 224.776871 
L 418.347317 224.776871 
L 418.347317 220.944475 
L 422.574868 220.944475 
L 422.574868 217.112079 
L 422.800207 217.112079 
L 422.800207 213.279683 
L 428.886269 213.279683 
L 428.886269 209.447287 
L 431.702097 209.447287 
L 431.702097 205.614891 
L 432.836194 205.614891 
L 432.836194 201.782495 
L 438.24403 201.782495 
L 438.24403 197.950099 
L 441.000946 197.950099 
L 441.000946 194.117703 
L 442.047706 194.117703 
L 442.047706 190.285307 
L 443.038865 190.285307 
L 443.038865 186.452911 
L 443.96772 186.452911 
L 443.96772 182.620515 
L 444.205446 182.620515 
L 444.205446 178.788119 
L 444.946542 178.788119 
L 444.946542 174.955723 
L 450.849919 174.955723 
L 450.849919 171.123327 
L 454.163974 171.123327 
L 454.163974 167.290931 
L 458.311886 167.290931 
L 458.311886 163.458535 
L 461.8 163.458535 
" clip-path="url(#p3a9e9acb54)" style="fill: none; stroke: #f5deb3; stroke-width: 1.5; stroke-linecap: square"/>
   </g>
   <g id="line2d_17">
    <path d="M 279.162491 293.76 
L 279.162491 289.927604 
L 281.113624 289.927604 
L 281.113624 286.095208 
L 296.611363 286.095208 
L 296.611363 282.262812 
L 355.775767 282.262812 
L 355.775767 278.430416 
L 387.031688 278.430416 
L 387.031688 274.59802 
L 387.031688 274.59802 
L 387.031688 274.59802 
L 460.8 274.59802 
" clip-path="url(#p3a9e9acb54)" style="fill: none; stroke: #f5deb3; stroke-width: 1.5; stroke-linecap: square"/>
   </g>
   <g id="line2d_18">
    <path d="M 191.941157 293.76 
L 191.941157 289.927604 
L 207.391637 289.927604 
L 207.391637 286.095208 
L 213.824165 286.095208 
L 213.824165 282.262812 
L 215.176883 282.262812 
L 215.176883 278.430416 
L 215.476655 278.430416 
L 215.476655 274.59802 
L 225.430132 274.59802 
L 225.430132 270.765624 
L 231.550237 270.765624 
L 231.550237 266.933228 
L 232.732248 266.933228 
L 232.732248 263.100832 
L 235.106243 263.100832 
L 235.106243 259.268436 
L 238.43105 259.268436 
L 238.43105 255.43604 
L 245.496219 255.43604 
L 245.496219 251.603644 
L 246.225615 251.603644 
L 246.225615 247.771248 
L 247.614974 247.771248 
L 247.614974 243.938851 
L 248.101892 243.938851 
L 248.101892 240.106455 
L 257.652158 240.106455 
L 257.652158 236.274059 
L 259.095443 236.274059 
L 259.095443 232.441663 
L 259.438749 232.441663 
L 259.438749 228.609267 
L 259.839875 228.609267 
L 259.839875 224.776871 
L 260.657557 224.776871 
L 260.657557 220.944475 
L 270.19814 220.944475 
L 270.19814 217.112079 
L 270.795524 217.112079 
L 270.795524 213.279683 
L 275.51306 213.279683 
L 275.51306 209.447287 
L 277.970241 209.447287 
L 277.970241 205.614891 
L 283.419661 205.614891 
L 283.419661 201.782495 
L 291.822613 201.782495 
L 291.822613 197.950099 
L 294.938724 197.950099 
L 294.938724 194.117703 
L 297.619669 194.117703 
L 297.619669 190.285307 
L 301.380509 190.285307 
L 301.380509 186.452911 
L 314.699858 186.452911 
L 314.699858 182.620515 
L 319.918055 182.620515 
L 319.918055 178.788119 
L 319.918055 178.788119 
L 319.918055 178.788119 
L 460.8 178.788119 
" clip-path="url(#p3a9e9acb54)" style="fill: none; stroke: #f5deb3; stroke-width: 1.5; stroke-linecap: square"/>
   </g>
   <g id="line2d_19">
    <path d="M 311.54444 293.76 
L 311.54444 289.553712 
L 314.522284 289.553712 
L 314.522284 285.347423 
L 317.372342 285.347423 
L 317.372342 281.141135 
L 320.90592 281.141135 
L 320.90592 276.934847 
L 321.7706 276.934847 
L 321.7706 272.728558 
L 322.040887 272.728558 
L 322.040887 268.52227 
L 324.701049 268.52227 
L 324.701049 264.315982 
L 324.824867 264.315982 
L 324.824867 260.109693 
L 325.428788 260.109693 
L 325.428788 255.903405 
L 326.770304 255.903405 
L 326.770304 251.697117 
L 328.458585 251.697117 
L 328.458585 247.490828 
L 329.034415 247.490828 
L 329.034415 243.28454 
L 329.175883 243.28454 
L 329.175883 239.078252 
L 329.525986 239.078252 
L 329.525986 234.871963 
L 331.258443 234.871963 
L 331.258443 230.665675 
L 336.942642 230.665675 
L 336.942642 226.459387 
L 338.188802 226.459387 
L 338.188802 222.253098 
L 342.820987 222.253098 
L 342.820987 218.04681 
L 346.145981 218.04681 
L 346.145981 213.840522 
L 347.185551 213.840522 
L 347.185551 209.634233 
L 347.808894 209.634233 
L 347.808894 205.427945 
L 348.116158 205.427945 
L 348.11821 197.015368 
L 350.34338 197.015368 
L 350.405628 188.602792 
L 351.584785 188.602792 
L 351.584785 184.396503 
L 354.090274 184.396503 
L 354.090274 180.190215 
L 356.654189 180.190215 
L 356.654189 175.983927 
L 357.720561 175.983927 
L 357.720561 171.777638 
L 357.858675 171.777638 
L 357.858675 167.57135 
L 365.733587 167.57135 
L 365.733587 163.365062 
L 367.117487 163.365062 
L 367.143853 154.952485 
L 368.220246 154.952485 
L 368.220246 150.746197 
L 369.45928 150.746197 
L 369.45928 146.539908 
L 370.69414 146.539908 
L 370.69414 142.33362 
L 370.985252 142.33362 
L 370.985252 138.127332 
L 373.190903 138.127332 
L 373.190903 133.921043 
L 373.543662 133.921043 
L 373.543662 129.714755 
L 374.512491 129.714755 
L 374.512491 125.508467 
L 374.689852 125.508467 
L 374.689852 121.302178 
L 383.528088 121.302178 
L 383.528088 117.09589 
L 384.683247 117.09589 
L 384.683247 112.889602 
L 389.371577 112.889602 
L 389.371577 108.683313 
L 417.045041 108.683313 
L 417.045041 104.477025 
L 417.045041 104.477025 
L 460.8 104.477025 
L 460.8 104.477025 
" clip-path="url(#p3a9e9acb54)" style="fill: none; stroke: #f5deb3; stroke-width: 1.5; stroke-linecap: square"/>
   </g>
   <g id="line2d_20">
    <path d="M 188.034709 293.76 
L 188.034709 289.927604 
L 188.034709 289.927604 
L 188.034709 286.095208 
L 191.446527 286.095208 
L 191.446527 282.262812 
L 193.263972 282.262812 
L 193.263972 278.430416 
L 204.011551 278.430416 
L 204.011551 274.59802 
L 218.928084 274.59802 
L 218.928084 270.765624 
L 222.677519 270.765624 
L 222.677519 266.933228 
L 228.413293 266.933228 
L 228.413293 263.100832 
L 235.464089 263.100832 
L 235.464089 259.268436 
L 243.509691 259.268436 
L 243.509691 255.43604 
L 244.603762 255.43604 
L 244.603762 251.603644 
L 246.295345 251.603644 
L 246.295345 247.771248 
L 247.614974 247.771248 
L 247.614974 243.938851 
L 250.412694 243.938851 
L 250.412694 240.106455 
L 250.49446 240.106455 
L 250.49446 236.274059 
L 256.004429 236.274059 
L 256.004429 232.441663 
L 258.605482 232.441663 
L 258.605482 228.609267 
L 259.189431 228.609267 
L 259.189431 224.776871 
L 259.778483 224.776871 
L 259.778483 220.944475 
L 260.612663 220.944475 
L 260.612663 217.112079 
L 263.230265 217.112079 
L 263.230265 213.279683 
L 266.288853 213.279683 
L 266.288853 209.447287 
L 271.435962 209.447287 
L 271.435962 205.614891 
L 271.446709 205.614891 
L 271.446709 201.782495 
L 272.773325 201.782495 
L 272.773325 197.950099 
L 281.801578 197.950099 
L 281.801578 194.117703 
L 282.742511 194.117703 
L 282.742511 190.285307 
L 283.995374 190.285307 
L 283.995374 186.452911 
L 300.092588 186.452911 
L 300.092588 182.620515 
L 301.496279 182.620515 
L 301.496279 178.788119 
L 383.007491 178.788119 
L 383.007491 174.955723 
L 383.007491 174.955723 
L 383.007491 174.955723 
L 460.8 174.955723 
" clip-path="url(#p3a9e9acb54)" style="fill: none; stroke: #f5deb3; stroke-width: 1.5; stroke-linecap: square"/>
   </g>
   <g id="line2d_21">
    <path d="M 330.39576 293.76 
L 330.39576 289.927604 
L 347.500802 289.927604 
L 347.500802 286.095208 
L 353.239178 286.095208 
L 353.239178 282.262812 
L 353.239178 282.262812 
L 353.239178 282.262812 
L 460.8 282.262812 
" clip-path="url(#p3a9e9acb54)" style="fill: none; stroke: #f5deb3; stroke-width: 1.5; stroke-linecap: square"/>
   </g>
   <g id="line2d_22">
    <path d="M 175.953393 293.76 
L 175.953393 289.927604 
L 180.957019 289.927604 
L 180.957019 286.095208 
L 187.476661 286.095208 
L 187.476661 282.262812 
L 188.310196 282.262812 
L 188.310196 278.430416 
L 193.263972 278.430416 
L 193.263972 274.59802 
L 195.976536 274.59802 
L 195.976536 270.765624 
L 237.012135 270.765624 
L 237.012135 266.933228 
L 257.520723 266.933228 
L 257.520723 263.100832 
L 259.189431 263.100832 
L 259.189431 259.268436 
L 262.276649 259.268436 
L 262.276649 255.43604 
L 264.223915 255.43604 
L 264.223915 251.603644 
L 270.365179 251.603644 
L 270.365179 247.771248 
L 273.16306 247.771248 
L 273.16306 243.938851 
L 279.474885 243.938851 
L 279.474885 240.106455 
L 283.060263 240.106455 
L 283.060263 236.274059 
L 286.898598 236.274059 
L 286.898598 232.441663 
L 303.054979 232.441663 
L 303.054979 228.609267 
L 303.528954 228.609267 
L 303.528954 224.776871 
L 306.24419 224.776871 
L 306.24419 220.944475 
L 307.310913 220.944475 
L 307.310913 217.112079 
L 309.909026 217.112079 
L 309.909026 213.279683 
L 317.511531 213.279683 
L 317.511531 209.447287 
L 325.764283 209.447287 
L 325.764283 205.614891 
L 331.065236 205.614891 
L 331.065236 201.782495 
L 331.755156 201.782495 
L 331.755156 197.950099 
L 332.362694 197.950099 
L 332.362694 194.117703 
L 343.665708 194.117703 
L 343.665708 190.285307 
L 352.228962 190.285307 
L 352.228962 186.452911 
L 357.627136 186.452911 
L 357.627136 182.620515 
L 365.89412 182.620515 
L 365.89412 178.788119 
L 368.489663 178.788119 
L 368.489663 174.955723 
L 372.123923 174.955723 
L 372.123923 171.123327 
L 377.053488 171.123327 
L 377.053488 167.290931 
L 379.889005 167.290931 
L 379.889005 163.458535 
L 382.066821 163.458535 
L 382.066821 159.626139 
L 392.169163 159.626139 
L 392.169163 155.793743 
L 393.122443 155.793743 
L 393.122443 151.961347 
L 396.278656 151.961347 
L 396.278656 148.12895 
L 405.482855 148.12895 
L 405.482855 144.296554 
L 418.738439 144.296554 
L 418.738439 140.464158 
L 420.709869 140.464158 
L 420.709869 136.631762 
L 422.31489 136.631762 
L 422.31489 132.799366 
L 427.847839 132.799366 
L 427.847839 128.96697 
L 427.96115 128.96697 
L 427.96115 125.134574 
L 427.96115 125.134574 
L 427.96115 125.134574 
L 460.8 125.134574 
" clip-path="url(#p3a9e9acb54)" style="fill: none; stroke: #f5deb3; stroke-width: 1.5; stroke-linecap: square"/>
   </g>
   <g id="line2d_23">
    <path d="M 273.295329 293.76 
L 273.295329 289.927604 
L 278.415943 289.927604 
L 278.415943 286.095208 
L 280.760093 286.095208 
L 280.760093 282.262812 
L 281.392132 282.262812 
L 281.392132 278.430416 
L 282.590106 278.430416 
L 282.590106 274.59802 
L 284.982617 274.59802 
L 284.982617 270.765624 
L 297.275652 270.765624 
L 297.275652 266.933228 
L 300.43042 266.933228 
L 300.43042 263.100832 
L 300.61123 263.100832 
L 300.61123 259.268436 
L 301.946855 259.268436 
L 301.946855 255.43604 
L 307.987977 255.43604 
L 307.987977 251.603644 
L 310.283957 251.603644 
L 310.283957 247.771248 
L 315.428597 247.771248 
L 315.428597 243.938851 
L 320.590277 243.938851 
L 320.590277 240.106455 
L 322.715912 240.106455 
L 322.715912 236.274059 
L 326.744639 236.274059 
L 326.744639 232.441663 
L 337.592215 232.441663 
L 337.592215 228.609267 
L 337.621951 228.609267 
L 337.621951 224.776871 
L 339.86035 224.776871 
L 339.86035 220.944475 
L 343.817078 220.944475 
L 343.817078 217.112079 
L 357.420964 217.112079 
L 357.420964 213.279683 
L 357.420964 213.279683 
L 357.420964 213.279683 
L 460.8 213.279683 
" clip-path="url(#p3a9e9acb54)" style="fill: none; stroke: #f5deb3; stroke-width: 1.5; stroke-linecap: square"/>
   </g>
   <g id="line2d_24">
    <path d="M 238.549009 293.76 
L 238.549009 289.927604 
L 239.648856 289.927604 
L 239.648856 286.095208 
L 244.847383 286.095208 
L 244.847383 282.262812 
L 245.733293 282.262812 
L 245.733293 278.430416 
L 250.697983 278.430416 
L 250.697983 274.59802 
L 251.440175 274.59802 
L 251.440175 270.765624 
L 258.89087 270.765624 
L 258.89087 266.933228 
L 278.407262 266.933228 
L 278.407262 263.100832 
L 299.940313 263.100832 
L 299.940313 259.268436 
L 300.690295 259.268436 
L 300.690295 255.43604 
L 301.803007 255.43604 
L 301.803007 251.603644 
L 302.907744 251.603644 
L 302.907744 247.771248 
L 304.382389 247.771248 
L 304.382389 243.938851 
L 305.076289 243.938851 
L 305.076289 240.106455 
L 305.263695 240.106455 
L 305.263695 236.274059 
L 307.418192 236.274059 
L 307.418192 232.441663 
L 314.608327 232.441663 
L 314.608327 228.609267 
L 315.198741 228.609267 
L 315.198741 224.776871 
L 316.100402 224.776871 
L 316.100402 220.944475 
L 323.913666 220.944475 
L 323.913666 217.112079 
L 328.396684 217.112079 
L 328.396684 213.279683 
L 329.307612 213.279683 
L 329.307612 209.447287 
L 330.355116 209.447287 
L 330.355116 205.614891 
L 330.499789 205.614891 
L 330.499789 201.782495 
L 332.589701 201.782495 
L 332.589701 197.950099 
L 337.89117 197.950099 
L 337.89117 194.117703 
L 339.288423 194.117703 
L 339.288423 190.285307 
L 339.811416 190.285307 
L 339.811416 186.452911 
L 344.62531 186.452911 
L 344.62531 182.620515 
L 347.65313 182.620515 
L 347.65313 178.788119 
L 349.089772 178.788119 
L 349.089772 174.955723 
L 352.659495 174.955723 
L 352.659495 171.123327 
L 353.961828 171.123327 
L 353.961828 167.290931 
L 357.624068 167.290931 
L 357.624068 163.458535 
L 362.647661 163.458535 
L 362.647661 159.626139 
L 363.831877 159.626139 
L 363.831877 155.793743 
L 368.166984 155.793743 
L 368.166984 151.961347 
L 381.107579 151.961347 
L 381.107579 148.12895 
L 383.115508 148.12895 
L 383.115508 144.296554 
L 385.111642 144.296554 
L 385.111642 140.464158 
L 393.707647 140.464158 
L 393.707647 136.631762 
L 396.840141 136.631762 
L 396.840141 132.799366 
L 412.114735 132.799366 
L 412.114735 128.96697 
L 414.52887 128.96697 
L 414.52887 125.134574 
L 415.563432 125.134574 
L 415.563432 121.302178 
L 415.820222 121.302178 
L 415.820222 117.469782 
L 416.24555 117.469782 
L 416.24555 113.637386 
L 417.92135 113.637386 
L 417.92135 109.80499 
L 418.340273 109.80499 
L 418.340273 105.972594 
L 420.409895 105.972594 
L 420.409895 102.140198 
L 433.129364 102.140198 
L 433.129364 98.307802 
L 433.59722 98.307802 
L 433.59722 94.475406 
L 437.020578 94.475406 
L 437.020578 90.64301 
L 446.640257 90.64301 
L 446.640257 86.810614 
L 448.070467 86.810614 
L 448.070467 82.978218 
L 461.8 82.978218 
" clip-path="url(#p3a9e9acb54)" style="fill: none; stroke: #f5deb3; stroke-width: 1.5; stroke-linecap: square"/>
   </g>
   <g id="line2d_25">
    <path d="M 346.524224 293.76 
L 346.524224 289.927604 
L 348.748325 289.927604 
L 348.748325 286.095208 
L 352.023841 286.095208 
L 352.023841 282.262812 
L 352.878417 282.262812 
L 352.878417 278.430416 
L 352.905014 278.430416 
L 352.905014 274.59802 
L 353.600333 274.59802 
L 353.600333 270.765624 
L 353.731935 270.765624 
L 353.731935 266.933228 
L 354.234387 266.933228 
L 354.234387 263.100832 
L 355.158823 263.100832 
L 355.158823 259.268436 
L 356.131743 259.268436 
L 356.131743 255.43604 
L 356.505317 255.43604 
L 356.505317 251.603644 
L 356.556073 251.603644 
L 356.556073 247.771248 
L 356.602794 247.771248 
L 356.602794 243.938851 
L 356.657349 243.938851 
L 356.657349 240.106455 
L 356.97574 240.106455 
L 356.97574 236.274059 
L 357.413246 236.274059 
L 357.413246 232.441663 
L 357.625602 232.441663 
L 357.625602 228.609267 
L 358.136184 228.609267 
L 358.136184 224.776871 
L 359.032787 224.776871 
L 359.032787 220.944475 
L 359.362401 220.944475 
L 359.362401 217.112079 
L 360.371238 217.112079 
L 360.371238 213.279683 
L 360.453624 213.279683 
L 360.453624 209.447287 
L 361.994799 209.447287 
L 361.994799 205.614891 
L 362.15941 205.614891 
L 362.15941 201.782495 
L 371.388698 201.782495 
L 371.388698 197.950099 
L 372.305904 197.950099 
L 372.305904 194.117703 
L 373.128956 194.117703 
L 373.128956 190.285307 
L 373.403489 190.285307 
L 373.403489 186.452911 
L 373.819881 186.452911 
L 373.819881 182.620515 
L 374.267899 182.620515 
L 374.267899 178.788119 
L 374.2877 178.788119 
L 374.2877 174.955723 
L 374.528945 174.955723 
L 374.528945 171.123327 
L 375.111357 171.123327 
L 375.111357 167.290931 
L 375.118538 167.290931 
L 375.118538 163.458535 
L 375.197427 163.458535 
L 375.197427 159.626139 
L 376.406355 159.626139 
L 376.406355 155.793743 
L 376.67488 155.793743 
L 376.67488 151.961347 
L 376.67488 151.961347 
L 376.67488 151.961347 
L 460.8 151.961347 
" clip-path="url(#p3a9e9acb54)" style="fill: none; stroke: #f5deb3; stroke-width: 1.5; stroke-linecap: square"/>
   </g>
   <g id="line2d_26">
    <path d="M 251.400485 293.76 
L 251.400485 289.927604 
L 252.589834 289.927604 
L 252.589834 286.095208 
L 252.875778 286.095208 
L 252.875778 282.262812 
L 253.253181 282.262812 
L 253.253181 278.430416 
L 253.402929 278.430416 
L 253.402929 274.59802 
L 254.250899 274.59802 
L 254.250899 270.765624 
L 254.863799 270.765624 
L 254.863799 266.933228 
L 255.077399 266.933228 
L 255.077399 263.100832 
L 257.70131 263.100832 
L 257.70131 259.268436 
L 265.447506 259.268436 
L 265.447506 255.43604 
L 266.20064 255.43604 
L 266.20064 251.603644 
L 267.12133 251.603644 
L 267.12133 247.771248 
L 267.463038 247.771248 
L 267.463038 243.938851 
L 269.895298 243.938851 
L 269.895298 240.106455 
L 276.346674 240.106455 
L 276.346674 236.274059 
L 276.951398 236.274059 
L 276.951398 232.441663 
L 276.969549 232.441663 
L 276.969549 228.609267 
L 277.429029 228.609267 
L 277.429029 224.776871 
L 278.847077 224.776871 
L 278.847077 220.944475 
L 279.060528 220.944475 
L 279.060528 217.112079 
L 279.817596 217.112079 
L 279.817596 213.279683 
L 288.973229 213.279683 
L 288.973229 209.447287 
L 291.189048 209.447287 
L 291.189048 205.614891 
L 291.271115 205.614891 
L 291.271115 201.782495 
L 292.046348 201.782495 
L 292.046348 197.950099 
L 293.340998 197.950099 
L 293.340998 194.117703 
L 297.754348 194.117703 
L 297.754348 190.285307 
L 297.921918 190.285307 
L 297.921918 186.452911 
L 300.633212 186.452911 
L 300.633212 182.620515 
L 301.470588 182.620515 
L 301.470588 178.788119 
L 309.646655 178.788119 
L 309.646655 174.955723 
L 310.631992 174.955723 
L 310.631992 171.123327 
L 313.887197 171.123327 
L 313.887197 167.290931 
L 316.141422 167.290931 
L 316.141422 163.458535 
L 331.7026 163.458535 
L 331.7026 159.626139 
L 333.525619 159.626139 
L 333.525619 155.793743 
L 355.243079 155.793743 
L 355.243079 151.961347 
L 355.537909 151.961347 
L 355.537909 148.12895 
L 368.512197 148.12895 
L 368.512197 144.296554 
L 372.240782 144.296554 
L 372.240782 140.464158 
L 374.760255 140.464158 
L 374.760255 136.631762 
L 375.163833 136.631762 
L 375.163833 132.799366 
L 377.71375 132.799366 
L 377.71375 128.96697 
L 378.069908 128.96697 
L 378.069908 125.134574 
L 378.405183 125.134574 
L 378.405183 121.302178 
L 380.375107 121.302178 
L 380.375107 117.469782 
L 381.788874 117.469782 
L 381.788874 113.637386 
L 381.850642 113.637386 
L 381.850642 109.80499 
L 381.906097 109.80499 
L 381.906097 105.972594 
L 386.797179 105.972594 
L 386.797179 102.140198 
L 386.797179 102.140198 
L 386.797179 102.140198 
L 460.8 102.140198 
" clip-path="url(#p3a9e9acb54)" style="fill: none; stroke: #f5deb3; stroke-width: 1.5; stroke-linecap: square"/>
   </g>
   <g id="line2d_27">
    <path d="M 206.382317 293.76 
L 206.382317 289.927604 
L 214.07432 289.927604 
L 214.07432 286.095208 
L 243.459079 286.095208 
L 243.459079 282.262812 
L 254.287272 282.262812 
L 254.287272 278.430416 
L 274.628369 278.430416 
L 274.628369 274.59802 
L 287.554634 274.59802 
L 287.554634 270.765624 
L 291.903105 270.765624 
L 291.903105 266.933228 
L 292.719698 266.933228 
L 292.719698 263.100832 
L 293.05955 263.100832 
L 293.05955 259.268436 
L 300.141701 259.268436 
L 300.141701 255.43604 
L 302.366301 255.43604 
L 302.366301 251.603644 
L 302.374635 251.603644 
L 302.374635 247.771248 
L 304.845336 247.771248 
L 304.845336 243.938851 
L 307.468135 243.938851 
L 307.468135 240.106455 
L 309.566528 240.106455 
L 309.566528 236.274059 
L 311.863785 236.274059 
L 311.863785 232.441663 
L 311.960226 232.441663 
L 311.960226 228.609267 
L 313.257428 228.609267 
L 313.257428 224.776871 
L 316.182391 224.776871 
L 316.182391 220.944475 
L 319.849821 220.944475 
L 319.849821 217.112079 
L 324.151882 217.112079 
L 324.151882 213.279683 
L 327.031725 213.279683 
L 327.031725 209.447287 
L 327.36479 209.447287 
L 327.36479 205.614891 
L 337.507106 205.614891 
L 337.507106 201.782495 
L 337.877129 201.782495 
L 337.877129 197.950099 
L 338.845648 197.950099 
L 338.845648 194.117703 
L 341.159665 194.117703 
L 341.159665 190.285307 
L 343.198987 190.285307 
L 343.198987 186.452911 
L 344.098005 186.452911 
L 344.098005 182.620515 
L 348.202249 182.620515 
L 348.202249 178.788119 
L 404.335534 178.788119 
L 404.335534 174.955723 
L 404.335534 174.955723 
L 404.335534 174.955723 
L 460.8 174.955723 
" clip-path="url(#p3a9e9acb54)" style="fill: none; stroke: #f5deb3; stroke-width: 1.5; stroke-linecap: square"/>
   </g>
   <g id="line2d_28">
    <path d="M 219.723696 293.76 
L 219.723696 289.927604 
L 220.243532 289.927604 
L 220.243532 286.095208 
L 227.060576 286.095208 
L 227.060576 282.262812 
L 234.843505 282.262812 
L 234.843505 278.430416 
L 250.616726 278.430416 
L 250.616726 274.59802 
L 270.298466 274.59802 
L 270.298466 270.765624 
L 282.01994 270.765624 
L 282.01994 266.933228 
L 301.043737 266.933228 
L 301.043737 263.100832 
L 302.956896 263.100832 
L 302.956896 259.268436 
L 304.632185 259.268436 
L 304.632185 255.43604 
L 304.659391 255.43604 
L 304.659391 251.603644 
L 306.16267 251.603644 
L 306.16267 247.771248 
L 306.472839 247.771248 
L 306.472839 243.938851 
L 308.547987 243.938851 
L 308.547987 240.106455 
L 312.730763 240.106455 
L 312.730763 236.274059 
L 313.869623 236.274059 
L 313.869623 232.441663 
L 328.083513 232.441663 
L 328.083513 228.609267 
L 329.065701 228.609267 
L 329.065701 224.776871 
L 329.556805 224.776871 
L 329.556805 220.944475 
L 329.834667 220.944475 
L 329.834667 217.112079 
L 330.390461 217.112079 
L 330.390461 213.279683 
L 331.263603 213.279683 
L 331.263603 209.447287 
L 332.144142 209.447287 
L 332.144142 205.614891 
L 332.558313 205.614891 
L 332.558313 201.782495 
L 333.094362 201.782495 
L 333.094362 197.950099 
L 336.944087 197.950099 
L 336.944087 194.117703 
L 337.016259 194.117703 
L 337.016259 190.285307 
L 340.614117 190.285307 
L 340.614117 186.452911 
L 341.513338 186.452911 
L 341.513338 182.620515 
L 341.628714 182.620515 
L 341.628714 178.788119 
L 344.55328 178.788119 
L 344.55328 174.955723 
L 344.787083 174.955723 
L 344.787083 171.123327 
L 355.074349 171.123327 
L 355.074349 167.290931 
L 358.43231 167.290931 
L 358.43231 163.458535 
L 361.277223 163.458535 
L 361.277223 159.626139 
L 362.844334 159.626139 
L 362.844334 155.793743 
L 363.467766 155.793743 
L 363.467766 151.961347 
L 365.625725 151.961347 
L 365.625725 148.12895 
L 372.622315 148.12895 
L 372.622315 144.296554 
L 377.760552 144.296554 
L 377.760552 140.464158 
L 380.284057 140.464158 
L 380.284057 136.631762 
L 381.431701 136.631762 
L 381.431701 132.799366 
L 383.566913 132.799366 
L 383.566913 128.96697 
L 400.550598 128.96697 
L 400.550598 125.134574 
L 410.591471 125.134574 
L 410.591471 121.302178 
L 420.793822 121.302178 
L 420.793822 117.469782 
L 424.779127 117.469782 
L 424.779127 113.637386 
L 438.383846 113.637386 
L 438.383846 109.80499 
L 439.17244 109.80499 
L 439.17244 105.972594 
L 448.255335 105.972594 
L 448.255335 102.140198 
L 448.859344 102.140198 
L 448.859344 98.307802 
L 449.464762 98.307802 
L 449.464762 94.475406 
L 449.549928 94.475406 
L 449.549928 90.64301 
L 451.74508 90.64301 
L 451.74508 86.810614 
L 461.8 86.810614 
" clip-path="url(#p3a9e9acb54)" style="fill: none; stroke: #f5deb3; stroke-width: 1.5; stroke-linecap: square"/>
   </g>
   <g id="line2d_29">
    <path d="M 216.417838 293.76 
L 216.417838 289.927604 
L 216.417838 289.927604 
L 216.417838 286.095208 
L 216.417838 286.095208 
L 216.417838 282.262812 
L 239.305522 282.262812 
L 239.305522 278.430416 
L 239.305522 278.430416 
L 239.305522 274.59802 
L 239.305522 274.59802 
L 239.305522 270.765624 
L 244.110998 270.765624 
L 244.110998 266.933228 
L 244.110998 266.933228 
L 244.110998 263.100832 
L 244.110998 263.100832 
L 244.110998 259.268436 
L 272.742357 259.268436 
L 272.742357 255.43604 
L 272.742357 255.43604 
L 272.742357 251.603644 
L 272.742357 251.603644 
L 272.742357 247.771248 
L 303.805286 247.771248 
L 303.805286 243.938851 
L 303.805286 243.938851 
L 303.805286 240.106455 
L 303.805286 240.106455 
L 303.805286 236.274059 
L 316.223308 236.274059 
L 316.223308 232.441663 
L 316.223308 232.441663 
L 316.223308 228.609267 
L 316.223308 228.609267 
L 316.223308 224.776871 
L 322.720381 224.776871 
L 322.720381 220.944475 
L 322.720381 220.944475 
L 322.720381 217.112079 
L 322.720381 217.112079 
L 322.720381 213.279683 
L 324.795529 213.279683 
L 324.795529 209.447287 
L 325.482206 209.447287 
L 325.482206 205.614891 
L 334.379225 205.614891 
L 334.379225 201.782495 
L 335.270454 201.782495 
L 335.270454 197.950099 
L 335.48271 197.950099 
L 335.48271 194.117703 
L 342.26346 194.117703 
L 342.26346 190.285307 
L 344.692623 190.285307 
L 344.692623 186.452911 
L 347.800605 186.452911 
L 347.800605 182.620515 
L 360.000401 182.620515 
L 360.000401 178.788119 
L 360.000401 178.788119 
L 360.000401 178.788119 
L 460.8 178.788119 
" clip-path="url(#p3a9e9acb54)" style="fill: none; stroke: #f5deb3; stroke-width: 1.5; stroke-linecap: square"/>
   </g>
   <g id="line2d_30">
    <path d="M 296.601419 293.76 
L 296.601419 289.927604 
L 298.639835 289.927604 
L 298.639835 286.095208 
L 333.040663 286.095208 
L 333.040663 282.262812 
L 342.57748 282.262812 
L 342.57748 278.430416 
L 355.975624 278.430416 
L 355.975624 274.59802 
L 360.647851 274.59802 
L 360.647851 270.765624 
L 361.662389 270.765624 
L 361.662389 266.933228 
L 361.926302 266.933228 
L 361.926302 263.100832 
L 362.195433 263.100832 
L 362.195433 259.268436 
L 362.476909 259.268436 
L 362.476909 255.43604 
L 362.476909 255.43604 
L 362.476909 255.43604 
L 460.8 255.43604 
" clip-path="url(#p3a9e9acb54)" style="fill: none; stroke: #f5deb3; stroke-width: 1.5; stroke-linecap: square"/>
   </g>
   <g id="matplotlib.axis_1">
    <g id="xtick_1">
     <g id="line2d_31">
      <path d="M 62.208 293.76 
L 62.208 3.456 
" clip-path="url(#p3a9e9acb54)" style="fill: none; stroke: #b0b0b0; stroke-width: 0.8; stroke-linecap: square"/>
     </g>
     <g id="line2d_32">
      <defs>
       <path id="mbb43688849" d="M 0 0 
L 0 3.5 
" style="stroke: #000000; stroke-width: 0.8"/>
      </defs>
      <g>
       <use xlink:href="#mbb43688849" x="62.208" y="293.76" style="stroke: #000000; stroke-width: 0.8"/>
      </g>
     </g>
     <g id="text_1">
      <!-- 0 -->
      <g transform="translate(55.8455 315.956875)scale(0.2 -0.2)">
       <defs>
        <path id="DejaVuSans-30" d="M 2034 4250 
Q 1547 4250 1301 3770 
Q 1056 3291 1056 2328 
Q 1056 1369 1301 889 
Q 1547 409 2034 409 
Q 2525 409 2770 889 
Q 3016 1369 3016 2328 
Q 3016 3291 2770 3770 
Q 2525 4250 2034 4250 
z
M 2034 4750 
Q 2819 4750 3233 4129 
Q 3647 3509 3647 2328 
Q 3647 1150 3233 529 
Q 2819 -91 2034 -91 
Q 1250 -91 836 529 
Q 422 1150 422 2328 
Q 422 3509 836 4129 
Q 1250 4750 2034 4750 
z
" transform="scale(0.015625)"/>
       </defs>
       <use xlink:href="#DejaVuSans-30"/>
      </g>
     </g>
    </g>
    <g id="xtick_2">
     <g id="line2d_33">
      <path d="M 212.543805 293.76 
L 212.543805 3.456 
" clip-path="url(#p3a9e9acb54)" style="fill: none; stroke: #b0b0b0; stroke-width: 0.8; stroke-linecap: square"/>
     </g>
     <g id="line2d_34">
      <g>
       <use xlink:href="#mbb43688849" x="212.543805" y="293.76" style="stroke: #000000; stroke-width: 0.8"/>
      </g>
     </g>
     <g id="text_2">
      <!-- 2 -->
      <g transform="translate(206.181305 315.956875)scale(0.2 -0.2)">
       <defs>
        <path id="DejaVuSans-32" d="M 1228 531 
L 3431 531 
L 3431 0 
L 469 0 
L 469 531 
Q 828 903 1448 1529 
Q 2069 2156 2228 2338 
Q 2531 2678 2651 2914 
Q 2772 3150 2772 3378 
Q 2772 3750 2511 3984 
Q 2250 4219 1831 4219 
Q 1534 4219 1204 4116 
Q 875 4013 500 3803 
L 500 4441 
Q 881 4594 1212 4672 
Q 1544 4750 1819 4750 
Q 2544 4750 2975 4387 
Q 3406 4025 3406 3419 
Q 3406 3131 3298 2873 
Q 3191 2616 2906 2266 
Q 2828 2175 2409 1742 
Q 1991 1309 1228 531 
z
" transform="scale(0.015625)"/>
       </defs>
       <use xlink:href="#DejaVuSans-32"/>
      </g>
     </g>
    </g>
    <g id="xtick_3">
     <g id="line2d_35">
      <path d="M 362.87961 293.76 
L 362.87961 3.456 
" clip-path="url(#p3a9e9acb54)" style="fill: none; stroke: #b0b0b0; stroke-width: 0.8; stroke-linecap: square"/>
     </g>
     <g id="line2d_36">
      <g>
       <use xlink:href="#mbb43688849" x="362.87961" y="293.76" style="stroke: #000000; stroke-width: 0.8"/>
      </g>
     </g>
     <g id="text_3">
      <!-- 4 -->
      <g transform="translate(356.51711 315.956875)scale(0.2 -0.2)">
       <defs>
        <path id="DejaVuSans-34" d="M 2419 4116 
L 825 1625 
L 2419 1625 
L 2419 4116 
z
M 2253 4666 
L 3047 4666 
L 3047 1625 
L 3713 1625 
L 3713 1100 
L 3047 1100 
L 3047 0 
L 2419 0 
L 2419 1100 
L 313 1100 
L 313 1709 
L 2253 4666 
z
" transform="scale(0.015625)"/>
       </defs>
       <use xlink:href="#DejaVuSans-34"/>
      </g>
     </g>
    </g>
    <g id="text_4">
     <!-- log10 of FEvals / DIM -->
     <g transform="translate(156.430563 339.313125)scale(0.2 -0.2)">
      <defs>
       <path id="DejaVuSans-6c" d="M 603 4863 
L 1178 4863 
L 1178 0 
L 603 0 
L 603 4863 
z
" transform="scale(0.015625)"/>
       <path id="DejaVuSans-6f" d="M 1959 3097 
Q 1497 3097 1228 2736 
Q 959 2375 959 1747 
Q 959 1119 1226 758 
Q 1494 397 1959 397 
Q 2419 397 2687 759 
Q 2956 1122 2956 1747 
Q 2956 2369 2687 2733 
Q 2419 3097 1959 3097 
z
M 1959 3584 
Q 2709 3584 3137 3096 
Q 3566 2609 3566 1747 
Q 3566 888 3137 398 
Q 2709 -91 1959 -91 
Q 1206 -91 779 398 
Q 353 888 353 1747 
Q 353 2609 779 3096 
Q 1206 3584 1959 3584 
z
" transform="scale(0.015625)"/>
       <path id="DejaVuSans-67" d="M 2906 1791 
Q 2906 2416 2648 2759 
Q 2391 3103 1925 3103 
Q 1463 3103 1205 2759 
Q 947 2416 947 1791 
Q 947 1169 1205 825 
Q 1463 481 1925 481 
Q 2391 481 2648 825 
Q 2906 1169 2906 1791 
z
M 3481 434 
Q 3481 -459 3084 -895 
Q 2688 -1331 1869 -1331 
Q 1566 -1331 1297 -1286 
Q 1028 -1241 775 -1147 
L 775 -588 
Q 1028 -725 1275 -790 
Q 1522 -856 1778 -856 
Q 2344 -856 2625 -561 
Q 2906 -266 2906 331 
L 2906 616 
Q 2728 306 2450 153 
Q 2172 0 1784 0 
Q 1141 0 747 490 
Q 353 981 353 1791 
Q 353 2603 747 3093 
Q 1141 3584 1784 3584 
Q 2172 3584 2450 3431 
Q 2728 3278 2906 2969 
L 2906 3500 
L 3481 3500 
L 3481 434 
z
" transform="scale(0.015625)"/>
       <path id="DejaVuSans-31" d="M 794 531 
L 1825 531 
L 1825 4091 
L 703 3866 
L 703 4441 
L 1819 4666 
L 2450 4666 
L 2450 531 
L 3481 531 
L 3481 0 
L 794 0 
L 794 531 
z
" transform="scale(0.015625)"/>
       <path id="DejaVuSans-20" transform="scale(0.015625)"/>
       <path id="DejaVuSans-66" d="M 2375 4863 
L 2375 4384 
L 1825 4384 
Q 1516 4384 1395 4259 
Q 1275 4134 1275 3809 
L 1275 3500 
L 2222 3500 
L 2222 3053 
L 1275 3053 
L 1275 0 
L 697 0 
L 697 3053 
L 147 3053 
L 147 3500 
L 697 3500 
L 697 3744 
Q 697 4328 969 4595 
Q 1241 4863 1831 4863 
L 2375 4863 
z
" transform="scale(0.015625)"/>
       <path id="DejaVuSans-46" d="M 628 4666 
L 3309 4666 
L 3309 4134 
L 1259 4134 
L 1259 2759 
L 3109 2759 
L 3109 2228 
L 1259 2228 
L 1259 0 
L 628 0 
L 628 4666 
z
" transform="scale(0.015625)"/>
       <path id="DejaVuSans-45" d="M 628 4666 
L 3578 4666 
L 3578 4134 
L 1259 4134 
L 1259 2753 
L 3481 2753 
L 3481 2222 
L 1259 2222 
L 1259 531 
L 3634 531 
L 3634 0 
L 628 0 
L 628 4666 
z
" transform="scale(0.015625)"/>
       <path id="DejaVuSans-76" d="M 191 3500 
L 800 3500 
L 1894 563 
L 2988 3500 
L 3597 3500 
L 2284 0 
L 1503 0 
L 191 3500 
z
" transform="scale(0.015625)"/>
       <path id="DejaVuSans-61" d="M 2194 1759 
Q 1497 1759 1228 1600 
Q 959 1441 959 1056 
Q 959 750 1161 570 
Q 1363 391 1709 391 
Q 2188 391 2477 730 
Q 2766 1069 2766 1631 
L 2766 1759 
L 2194 1759 
z
M 3341 1997 
L 3341 0 
L 2766 0 
L 2766 531 
Q 2569 213 2275 61 
Q 1981 -91 1556 -91 
Q 1019 -91 701 211 
Q 384 513 384 1019 
Q 384 1609 779 1909 
Q 1175 2209 1959 2209 
L 2766 2209 
L 2766 2266 
Q 2766 2663 2505 2880 
Q 2244 3097 1772 3097 
Q 1472 3097 1187 3025 
Q 903 2953 641 2809 
L 641 3341 
Q 956 3463 1253 3523 
Q 1550 3584 1831 3584 
Q 2591 3584 2966 3190 
Q 3341 2797 3341 1997 
z
" transform="scale(0.015625)"/>
       <path id="DejaVuSans-73" d="M 2834 3397 
L 2834 2853 
Q 2591 2978 2328 3040 
Q 2066 3103 1784 3103 
Q 1356 3103 1142 2972 
Q 928 2841 928 2578 
Q 928 2378 1081 2264 
Q 1234 2150 1697 2047 
L 1894 2003 
Q 2506 1872 2764 1633 
Q 3022 1394 3022 966 
Q 3022 478 2636 193 
Q 2250 -91 1575 -91 
Q 1294 -91 989 -36 
Q 684 19 347 128 
L 347 722 
Q 666 556 975 473 
Q 1284 391 1588 391 
Q 1994 391 2212 530 
Q 2431 669 2431 922 
Q 2431 1156 2273 1281 
Q 2116 1406 1581 1522 
L 1381 1569 
Q 847 1681 609 1914 
Q 372 2147 372 2553 
Q 372 3047 722 3315 
Q 1072 3584 1716 3584 
Q 2034 3584 2315 3537 
Q 2597 3491 2834 3397 
z
" transform="scale(0.015625)"/>
       <path id="DejaVuSans-2f" d="M 1625 4666 
L 2156 4666 
L 531 -594 
L 0 -594 
L 1625 4666 
z
" transform="scale(0.015625)"/>
       <path id="DejaVuSans-44" d="M 1259 4147 
L 1259 519 
L 2022 519 
Q 2988 519 3436 956 
Q 3884 1394 3884 2338 
Q 3884 3275 3436 3711 
Q 2988 4147 2022 4147 
L 1259 4147 
z
M 628 4666 
L 1925 4666 
Q 3281 4666 3915 4102 
Q 4550 3538 4550 2338 
Q 4550 1131 3912 565 
Q 3275 0 1925 0 
L 628 0 
L 628 4666 
z
" transform="scale(0.015625)"/>
       <path id="DejaVuSans-49" d="M 628 4666 
L 1259 4666 
L 1259 0 
L 628 0 
L 628 4666 
z
" transform="scale(0.015625)"/>
       <path id="DejaVuSans-4d" d="M 628 4666 
L 1569 4666 
L 2759 1491 
L 3956 4666 
L 4897 4666 
L 4897 0 
L 4281 0 
L 4281 4097 
L 3078 897 
L 2444 897 
L 1241 4097 
L 1241 0 
L 628 0 
L 628 4666 
z
" transform="scale(0.015625)"/>
      </defs>
      <use xlink:href="#DejaVuSans-6c"/>
      <use xlink:href="#DejaVuSans-6f" x="27.783203"/>
      <use xlink:href="#DejaVuSans-67" x="88.964844"/>
      <use xlink:href="#DejaVuSans-31" x="152.441406"/>
      <use xlink:href="#DejaVuSans-30" x="216.064453"/>
      <use xlink:href="#DejaVuSans-20" x="279.6875"/>
      <use xlink:href="#DejaVuSans-6f" x="311.474609"/>
      <use xlink:href="#DejaVuSans-66" x="372.65625"/>
      <use xlink:href="#DejaVuSans-20" x="407.861328"/>
      <use xlink:href="#DejaVuSans-46" x="439.648438"/>
      <use xlink:href="#DejaVuSans-45" x="497.167969"/>
      <use xlink:href="#DejaVuSans-76" x="560.351562"/>
      <use xlink:href="#DejaVuSans-61" x="619.53125"/>
      <use xlink:href="#DejaVuSans-6c" x="680.810547"/>
      <use xlink:href="#DejaVuSans-73" x="708.59375"/>
      <use xlink:href="#DejaVuSans-20" x="760.693359"/>
      <use xlink:href="#DejaVuSans-2f" x="792.480469"/>
      <use xlink:href="#DejaVuSans-20" x="826.171875"/>
      <use xlink:href="#DejaVuSans-44" x="857.958984"/>
      <use xlink:href="#DejaVuSans-49" x="934.960938"/>
      <use xlink:href="#DejaVuSans-4d" x="964.453125"/>
     </g>
    </g>
   </g>
   <g id="matplotlib.axis_2">
    <g id="ytick_1">
     <g id="line2d_37">
      <path d="M 62.208 293.76 
L 460.8 293.76 
" clip-path="url(#p3a9e9acb54)" style="fill: none; stroke: #b0b0b0; stroke-width: 0.8; stroke-linecap: square"/>
     </g>
     <g id="line2d_38">
      <defs>
       <path id="ma317ddefcd" d="M 0 0 
L -3.5 0 
" style="stroke: #000000; stroke-width: 0.8"/>
      </defs>
      <g>
       <use xlink:href="#ma317ddefcd" x="62.208" y="293.76" style="stroke: #000000; stroke-width: 0.8"/>
      </g>
     </g>
     <g id="text_5">
      <!-- 0.0 -->
      <g transform="translate(29.763 299.83875)scale(0.16 -0.16)">
       <defs>
        <path id="DejaVuSans-2e" d="M 684 794 
L 1344 794 
L 1344 0 
L 684 0 
L 684 794 
z
" transform="scale(0.015625)"/>
       </defs>
       <use xlink:href="#DejaVuSans-30"/>
       <use xlink:href="#DejaVuSans-2e" x="63.623047"/>
       <use xlink:href="#DejaVuSans-30" x="95.410156"/>
      </g>
     </g>
    </g>
    <g id="ytick_2">
     <g id="line2d_39">
      <path d="M 62.208 236.274059 
L 460.8 236.274059 
" clip-path="url(#p3a9e9acb54)" style="fill: none; stroke: #b0b0b0; stroke-width: 0.8; stroke-linecap: square"/>
     </g>
     <g id="line2d_40">
      <g>
       <use xlink:href="#ma317ddefcd" x="62.208" y="236.274059" style="stroke: #000000; stroke-width: 0.8"/>
      </g>
     </g>
     <g id="text_6">
      <!-- 0.2 -->
      <g transform="translate(29.763 242.352809)scale(0.16 -0.16)">
       <use xlink:href="#DejaVuSans-30"/>
       <use xlink:href="#DejaVuSans-2e" x="63.623047"/>
       <use xlink:href="#DejaVuSans-32" x="95.410156"/>
      </g>
     </g>
    </g>
    <g id="ytick_3">
     <g id="line2d_41">
      <path d="M 62.208 178.788119 
L 460.8 178.788119 
" clip-path="url(#p3a9e9acb54)" style="fill: none; stroke: #b0b0b0; stroke-width: 0.8; stroke-linecap: square"/>
     </g>
     <g id="line2d_42">
      <g>
       <use xlink:href="#ma317ddefcd" x="62.208" y="178.788119" style="stroke: #000000; stroke-width: 0.8"/>
      </g>
     </g>
     <g id="text_7">
      <!-- 0.4 -->
      <g transform="translate(29.763 184.866869)scale(0.16 -0.16)">
       <use xlink:href="#DejaVuSans-30"/>
       <use xlink:href="#DejaVuSans-2e" x="63.623047"/>
       <use xlink:href="#DejaVuSans-34" x="95.410156"/>
      </g>
     </g>
    </g>
    <g id="ytick_4">
     <g id="line2d_43">
      <path d="M 62.208 121.302178 
L 460.8 121.302178 
" clip-path="url(#p3a9e9acb54)" style="fill: none; stroke: #b0b0b0; stroke-width: 0.8; stroke-linecap: square"/>
     </g>
     <g id="line2d_44">
      <g>
       <use xlink:href="#ma317ddefcd" x="62.208" y="121.302178" style="stroke: #000000; stroke-width: 0.8"/>
      </g>
     </g>
     <g id="text_8">
      <!-- 0.6 -->
      <g transform="translate(29.763 127.380928)scale(0.16 -0.16)">
       <defs>
        <path id="DejaVuSans-36" d="M 2113 2584 
Q 1688 2584 1439 2293 
Q 1191 2003 1191 1497 
Q 1191 994 1439 701 
Q 1688 409 2113 409 
Q 2538 409 2786 701 
Q 3034 994 3034 1497 
Q 3034 2003 2786 2293 
Q 2538 2584 2113 2584 
z
M 3366 4563 
L 3366 3988 
Q 3128 4100 2886 4159 
Q 2644 4219 2406 4219 
Q 1781 4219 1451 3797 
Q 1122 3375 1075 2522 
Q 1259 2794 1537 2939 
Q 1816 3084 2150 3084 
Q 2853 3084 3261 2657 
Q 3669 2231 3669 1497 
Q 3669 778 3244 343 
Q 2819 -91 2113 -91 
Q 1303 -91 875 529 
Q 447 1150 447 2328 
Q 447 3434 972 4092 
Q 1497 4750 2381 4750 
Q 2619 4750 2861 4703 
Q 3103 4656 3366 4563 
z
" transform="scale(0.015625)"/>
       </defs>
       <use xlink:href="#DejaVuSans-30"/>
       <use xlink:href="#DejaVuSans-2e" x="63.623047"/>
       <use xlink:href="#DejaVuSans-36" x="95.410156"/>
      </g>
     </g>
    </g>
    <g id="ytick_5">
     <g id="line2d_45">
      <path d="M 62.208 63.816238 
L 460.8 63.816238 
" clip-path="url(#p3a9e9acb54)" style="fill: none; stroke: #b0b0b0; stroke-width: 0.8; stroke-linecap: square"/>
     </g>
     <g id="line2d_46">
      <g>
       <use xlink:href="#ma317ddefcd" x="62.208" y="63.816238" style="stroke: #000000; stroke-width: 0.8"/>
      </g>
     </g>
     <g id="text_9">
      <!-- 0.8 -->
      <g transform="translate(29.763 69.894988)scale(0.16 -0.16)">
       <defs>
        <path id="DejaVuSans-38" d="M 2034 2216 
Q 1584 2216 1326 1975 
Q 1069 1734 1069 1313 
Q 1069 891 1326 650 
Q 1584 409 2034 409 
Q 2484 409 2743 651 
Q 3003 894 3003 1313 
Q 3003 1734 2745 1975 
Q 2488 2216 2034 2216 
z
M 1403 2484 
Q 997 2584 770 2862 
Q 544 3141 544 3541 
Q 544 4100 942 4425 
Q 1341 4750 2034 4750 
Q 2731 4750 3128 4425 
Q 3525 4100 3525 3541 
Q 3525 3141 3298 2862 
Q 3072 2584 2669 2484 
Q 3125 2378 3379 2068 
Q 3634 1759 3634 1313 
Q 3634 634 3220 271 
Q 2806 -91 2034 -91 
Q 1263 -91 848 271 
Q 434 634 434 1313 
Q 434 1759 690 2068 
Q 947 2378 1403 2484 
z
M 1172 3481 
Q 1172 3119 1398 2916 
Q 1625 2713 2034 2713 
Q 2441 2713 2670 2916 
Q 2900 3119 2900 3481 
Q 2900 3844 2670 4047 
Q 2441 4250 2034 4250 
Q 1625 4250 1398 4047 
Q 1172 3844 1172 3481 
z
" transform="scale(0.015625)"/>
       </defs>
       <use xlink:href="#DejaVuSans-30"/>
       <use xlink:href="#DejaVuSans-2e" x="63.623047"/>
       <use xlink:href="#DejaVuSans-38" x="95.410156"/>
      </g>
     </g>
    </g>
    <g id="ytick_6">
     <g id="line2d_47">
      <path d="M 62.208 6.330297 
L 460.8 6.330297 
" clip-path="url(#p3a9e9acb54)" style="fill: none; stroke: #b0b0b0; stroke-width: 0.8; stroke-linecap: square"/>
     </g>
     <g id="line2d_48">
      <g>
       <use xlink:href="#ma317ddefcd" x="62.208" y="6.330297" style="stroke: #000000; stroke-width: 0.8"/>
      </g>
     </g>
     <g id="text_10">
      <!-- 1.0 -->
      <g transform="translate(29.763 12.409047)scale(0.16 -0.16)">
       <use xlink:href="#DejaVuSans-31"/>
       <use xlink:href="#DejaVuSans-2e" x="63.623047"/>
       <use xlink:href="#DejaVuSans-30" x="95.410156"/>
      </g>
     </g>
    </g>
    <g id="text_11">
     <!-- proportion of trials -->
     <g transform="translate(21.603625 241.61425)rotate(-90)scale(0.2 -0.2)">
      <defs>
       <path id="DejaVuSans-70" d="M 1159 525 
L 1159 -1331 
L 581 -1331 
L 581 3500 
L 1159 3500 
L 1159 2969 
Q 1341 3281 1617 3432 
Q 1894 3584 2278 3584 
Q 2916 3584 3314 3078 
Q 3713 2572 3713 1747 
Q 3713 922 3314 415 
Q 2916 -91 2278 -91 
Q 1894 -91 1617 61 
Q 1341 213 1159 525 
z
M 3116 1747 
Q 3116 2381 2855 2742 
Q 2594 3103 2138 3103 
Q 1681 3103 1420 2742 
Q 1159 2381 1159 1747 
Q 1159 1113 1420 752 
Q 1681 391 2138 391 
Q 2594 391 2855 752 
Q 3116 1113 3116 1747 
z
" transform="scale(0.015625)"/>
       <path id="DejaVuSans-72" d="M 2631 2963 
Q 2534 3019 2420 3045 
Q 2306 3072 2169 3072 
Q 1681 3072 1420 2755 
Q 1159 2438 1159 1844 
L 1159 0 
L 581 0 
L 581 3500 
L 1159 3500 
L 1159 2956 
Q 1341 3275 1631 3429 
Q 1922 3584 2338 3584 
Q 2397 3584 2469 3576 
Q 2541 3569 2628 3553 
L 2631 2963 
z
" transform="scale(0.015625)"/>
       <path id="DejaVuSans-74" d="M 1172 4494 
L 1172 3500 
L 2356 3500 
L 2356 3053 
L 1172 3053 
L 1172 1153 
Q 1172 725 1289 603 
Q 1406 481 1766 481 
L 2356 481 
L 2356 0 
L 1766 0 
Q 1100 0 847 248 
Q 594 497 594 1153 
L 594 3053 
L 172 3053 
L 172 3500 
L 594 3500 
L 594 4494 
L 1172 4494 
z
" transform="scale(0.015625)"/>
       <path id="DejaVuSans-69" d="M 603 3500 
L 1178 3500 
L 1178 0 
L 603 0 
L 603 3500 
z
M 603 4863 
L 1178 4863 
L 1178 4134 
L 603 4134 
L 603 4863 
z
" transform="scale(0.015625)"/>
       <path id="DejaVuSans-6e" d="M 3513 2113 
L 3513 0 
L 2938 0 
L 2938 2094 
Q 2938 2591 2744 2837 
Q 2550 3084 2163 3084 
Q 1697 3084 1428 2787 
Q 1159 2491 1159 1978 
L 1159 0 
L 581 0 
L 581 3500 
L 1159 3500 
L 1159 2956 
Q 1366 3272 1645 3428 
Q 1925 3584 2291 3584 
Q 2894 3584 3203 3211 
Q 3513 2838 3513 2113 
z
" transform="scale(0.015625)"/>
      </defs>
      <use xlink:href="#DejaVuSans-70"/>
      <use xlink:href="#DejaVuSans-72" x="63.476562"/>
      <use xlink:href="#DejaVuSans-6f" x="102.339844"/>
      <use xlink:href="#DejaVuSans-70" x="163.521484"/>
      <use xlink:href="#DejaVuSans-6f" x="226.998047"/>
      <use xlink:href="#DejaVuSans-72" x="288.179688"/>
      <use xlink:href="#DejaVuSans-74" x="329.292969"/>
      <use xlink:href="#DejaVuSans-69" x="368.501953"/>
      <use xlink:href="#DejaVuSans-6f" x="396.285156"/>
      <use xlink:href="#DejaVuSans-6e" x="457.466797"/>
      <use xlink:href="#DejaVuSans-20" x="520.845703"/>
      <use xlink:href="#DejaVuSans-6f" x="552.632812"/>
      <use xlink:href="#DejaVuSans-66" x="613.814453"/>
      <use xlink:href="#DejaVuSans-20" x="649.019531"/>
      <use xlink:href="#DejaVuSans-74" x="680.806641"/>
      <use xlink:href="#DejaVuSans-72" x="720.015625"/>
      <use xlink:href="#DejaVuSans-69" x="761.128906"/>
      <use xlink:href="#DejaVuSans-61" x="788.912109"/>
      <use xlink:href="#DejaVuSans-6c" x="850.191406"/>
      <use xlink:href="#DejaVuSans-73" x="877.974609"/>
     </g>
    </g>
   </g>
   <g id="line2d_49">
    <path d="M 9.667891 293.76 
L 9.667891 289.927604 
L 32.295684 289.927604 
L 32.295684 278.430416 
L 54.923478 278.430416 
L 54.923478 266.933228 
L 81.396299 266.933228 
L 81.396299 255.43604 
L 84.835793 255.43604 
L 84.835793 251.603644 
L 87.947195 251.603644 
L 87.947195 247.771248 
L 93.400676 247.771248 
L 93.400676 240.106455 
L 100.179064 240.106455 
L 100.179064 232.441663 
L 104.024092 232.441663 
L 104.024092 224.776871 
L 107.463587 224.776871 
L 107.463587 217.112079 
L 109.056342 217.112079 
L 109.056342 205.614891 
L 110.574988 205.614891 
L 110.574988 201.782495 
L 114.748109 201.782495 
L 114.748109 197.950099 
L 117.260503 197.950099 
L 117.260503 194.117703 
L 119.593281 194.117703 
L 119.593281 190.285307 
L 124.785949 190.285307 
L 124.785949 182.620515 
L 126.651886 182.620515 
L 126.651886 178.788119 
L 128.41691 178.788119 
L 128.41691 171.123327 
L 130.897471 171.123327 
L 130.897471 167.290931 
L 132.452288 167.290931 
L 132.452288 163.458535 
L 135.35598 163.458535 
L 135.35598 159.626139 
L 139.888296 159.626139 
L 139.888296 155.793743 
L 141.075518 155.793743 
L 141.075518 151.961347 
L 142.779122 151.961347 
L 142.779122 144.296554 
L 143.327791 144.296554 
L 143.327791 140.464158 
L 144.398215 140.464158 
L 144.398215 136.631762 
L 144.920546 136.631762 
L 144.920546 132.799366 
L 145.434651 132.799366 
L 145.434651 125.134574 
L 146.439192 125.134574 
L 146.439192 121.302178 
L 148.823098 121.302178 
L 148.823098 117.469782 
L 150.612313 117.469782 
L 150.612313 113.637386 
L 151.471442 113.637386 
L 151.471442 109.80499 
L 154.311929 109.80499 
L 154.311929 105.972594 
L 161.596451 105.972594 
L 161.596451 102.140198 
L 163.115097 102.140198 
L 163.115097 98.307802 
L 164.281114 98.307802 
L 164.281114 94.475406 
L 166.226499 94.475406 
L 166.226499 90.64301 
L 167.548339 90.64301 
L 167.548339 86.810614 
L 169.066985 86.810614 
L 169.066985 82.978218 
L 172.357755 82.978218 
L 172.357755 79.145822 
L 180.611566 79.145822 
L 180.611566 75.313426 
L 187.896089 75.313426 
L 187.896089 71.48103 
L 200.145318 71.48103 
L 200.145318 67.648634 
L 229.245816 67.648634 
L 229.245816 63.816238 
L 239.391695 63.816238 
L 239.391695 59.983842 
L 243.786666 59.983842 
L 243.786666 56.151446 
L 245.898227 56.151446 
L 245.898227 52.31905 
L 246.109067 52.31905 
L 246.109067 48.486653 
L 246.641775 48.486653 
L 246.641775 44.654257 
L 250.392221 44.654257 
L 250.392221 40.821861 
L 252.894752 40.821861 
L 252.894752 36.989465 
L 267.741075 36.989465 
L 267.741075 33.157069 
L 280.107335 33.157069 
L 280.107335 29.324673 
L 282.267721 29.324673 
L 282.267721 25.492277 
L 285.719556 25.492277 
L 285.719556 21.659881 
L 288.075299 21.659881 
L 288.075299 17.827485 
L 291.235969 17.827485 
L 291.235969 13.995089 
L 292.177578 13.995089 
L 292.177578 10.162693 
L 294.24598 10.162693 
L 294.24598 6.330297 
L 294.24598 6.330297 
L 460.8 6.330297 
L 460.8 6.330297 
" clip-path="url(#p3a9e9acb54)" style="fill: none; stroke: #000000; stroke-width: 1.5; stroke-linecap: square"/>
   </g>
   <g id="line2d_50">
    <path clip-path="url(#p3a9e9acb54)" style="fill: none; stroke: #000000; stroke-width: 1.5; stroke-linecap: square"/>
   </g>
   <g id="line2d_51">
    <path d="M 155.830575 293.76 
L 155.830575 289.927604 
L 160.968643 289.927604 
L 160.968643 286.095208 
L 172.13339 286.095208 
L 172.13339 282.262812 
L 175.953393 282.262812 
L 175.953393 278.430416 
L 179.372854 278.430416 
L 179.372854 274.59802 
L 181.804989 274.59802 
L 181.804989 270.765624 
L 188.034709 270.765624 
L 188.034709 266.933228 
L 195.319231 266.933228 
L 195.319231 263.100832 
L 198.380293 263.100832 
L 198.380293 259.268436 
L 200.430429 259.268436 
L 200.430429 255.43604 
L 228.453422 255.43604 
L 228.453422 251.603644 
L 251.637904 251.603644 
L 251.637904 247.771248 
L 274.364115 247.771248 
L 274.364115 243.938851 
L 274.8518 243.938851 
L 274.8518 240.106455 
L 277.023943 240.106455 
L 277.023943 236.274059 
L 277.899771 236.274059 
L 277.899771 232.441663 
L 286.304176 232.441663 
L 286.304176 228.609267 
L 297.011556 228.609267 
L 297.011556 224.776871 
L 297.797519 224.776871 
L 297.797519 220.944475 
L 303.193426 220.944475 
L 303.193426 217.112079 
L 303.753402 217.112079 
L 303.753402 213.279683 
L 313.397439 213.279683 
L 313.397439 209.447287 
L 315.695656 209.447287 
L 315.695656 205.614891 
L 317.332841 205.614891 
L 317.332841 201.782495 
L 318.262798 201.782495 
L 318.262798 197.950099 
L 327.76348 197.950099 
L 327.76348 194.117703 
L 332.357705 194.117703 
L 332.357705 190.285307 
L 332.414199 190.285307 
L 332.414199 186.452911 
L 343.339468 186.452911 
L 343.339468 182.620515 
L 348.279946 182.620515 
L 348.279946 178.788119 
L 349.267588 178.788119 
L 349.267588 174.955723 
L 351.36999 174.955723 
L 351.36999 171.123327 
L 351.807342 171.123327 
L 351.807342 167.290931 
L 352.461562 167.290931 
L 352.461562 163.458535 
L 352.591563 163.458535 
L 352.591563 159.626139 
L 354.124441 159.626139 
L 354.124441 155.793743 
L 354.817101 155.793743 
L 354.817101 151.961347 
L 368.61697 151.961347 
L 368.61697 148.12895 
L 371.227311 148.12895 
L 371.227311 144.296554 
L 372.244703 144.296554 
L 372.244703 140.464158 
L 372.289269 140.464158 
L 372.289269 136.631762 
L 374.454835 136.631762 
L 374.454835 132.799366 
L 374.627953 132.799366 
L 374.627953 128.96697 
L 376.132557 128.96697 
L 376.132557 125.134574 
L 377.785789 125.134574 
L 377.785789 121.302178 
L 377.85148 121.302178 
L 377.85148 117.469782 
L 387.041033 117.469782 
L 387.041033 113.637386 
L 388.25832 113.637386 
L 388.25832 109.80499 
L 394.722682 109.80499 
L 394.722682 105.972594 
L 395.798219 105.972594 
L 395.798219 102.140198 
L 395.951251 102.140198 
L 395.951251 98.307802 
L 409.739143 98.307802 
L 409.739143 94.475406 
L 428.608826 94.475406 
L 428.608826 90.64301 
L 430.117044 90.64301 
L 430.117044 86.810614 
L 431.728096 86.810614 
L 431.728096 82.978218 
L 431.728096 82.978218 
L 431.728096 82.978218 
L 460.8 82.978218 
" clip-path="url(#p3a9e9acb54)" style="fill: none; stroke: #00bfbf; stroke-width: 1.5; stroke-linecap: square"/>
   </g>
   <g id="line2d_52">
    <path clip-path="url(#p3a9e9acb54)" style="fill: none; stroke: #00bfbf; stroke-width: 1.5; stroke-linecap: square"/>
   </g>
   <g id="line2d_53">
    <path d="M 188.719116 293.76 
L 188.719116 289.927604 
L 189.389468 289.927604 
L 189.389468 286.095208 
L 193.145907 286.095208 
L 193.145907 282.262812 
L 194.19343 282.262812 
L 194.19343 278.430416 
L 195.097156 278.430416 
L 195.097156 274.59802 
L 203.152422 274.59802 
L 203.152422 270.765624 
L 205.664816 270.765624 
L 205.664816 266.933228 
L 207.007121 266.933228 
L 207.007121 263.100832 
L 210.523882 263.100832 
L 210.523882 259.268436 
L 210.731592 259.268436 
L 210.731592 255.43604 
L 256.720806 255.43604 
L 256.720806 251.603644 
L 277.473729 251.603644 
L 277.473729 247.771248 
L 277.545124 247.771248 
L 277.545124 243.938851 
L 279.63415 243.938851 
L 279.63415 240.106455 
L 281.041621 240.106455 
L 281.041621 236.274059 
L 290.739907 236.274059 
L 290.739907 232.441663 
L 299.728638 232.441663 
L 299.728638 228.609267 
L 300.830384 228.609267 
L 300.830384 224.776871 
L 306.812837 224.776871 
L 306.812837 220.944475 
L 308.423598 220.944475 
L 308.423598 217.112079 
L 316.272341 217.112079 
L 316.272341 213.279683 
L 319.029701 213.279683 
L 319.029701 209.447287 
L 320.856284 209.447287 
L 320.856284 205.614891 
L 330.02813 205.614891 
L 330.02813 201.782495 
L 334.324468 201.782495 
L 334.324468 197.950099 
L 345.37274 197.950099 
L 345.37274 194.117703 
L 347.565576 194.117703 
L 347.565576 190.285307 
L 350.587856 190.285307 
L 350.587856 186.452911 
L 351.122901 186.452911 
L 351.122901 182.620515 
L 354.148337 182.620515 
L 354.148337 178.788119 
L 355.78875 178.788119 
L 355.78875 174.955723 
L 355.792806 174.955723 
L 355.792806 171.123327 
L 356.087558 171.123327 
L 356.087558 167.290931 
L 357.347567 167.290931 
L 357.347567 163.458535 
L 357.503435 163.458535 
L 357.503435 159.626139 
L 367.246251 159.626139 
L 367.246251 155.793743 
L 372.576261 155.793743 
L 372.576261 151.961347 
L 373.951771 151.961347 
L 373.951771 148.12895 
L 375.78485 148.12895 
L 375.78485 144.296554 
L 375.97906 144.296554 
L 375.97906 140.464158 
L 376.318227 140.464158 
L 376.318227 136.631762 
L 378.447358 136.631762 
L 378.447358 132.799366 
L 379.662936 132.799366 
L 379.662936 128.96697 
L 379.716774 128.96697 
L 379.716774 125.134574 
L 380.590621 125.134574 
L 380.590621 121.302178 
L 392.330342 121.302178 
L 392.330342 117.469782 
L 392.33458 117.469782 
L 392.33458 113.637386 
L 394.398109 113.637386 
L 394.398109 109.80499 
L 397.212667 109.80499 
L 397.212667 105.972594 
L 398.35389 105.972594 
L 398.35389 102.140198 
L 398.410005 102.140198 
L 398.410005 98.307802 
L 415.662218 98.307802 
L 415.662218 94.475406 
L 429.370622 94.475406 
L 429.370622 90.64301 
L 430.845559 90.64301 
L 430.845559 86.810614 
L 432.583078 86.810614 
L 432.583078 82.978218 
L 432.583078 82.978218 
L 432.583078 82.978218 
L 460.8 82.978218 
" clip-path="url(#p3a9e9acb54)" style="fill: none; stroke: #bf00bf; stroke-width: 1.5; stroke-linecap: square"/>
   </g>
   <g id="line2d_54">
    <path clip-path="url(#p3a9e9acb54)" style="fill: none; stroke: #bf00bf; stroke-width: 1.5; stroke-linecap: square"/>
   </g>
   <g id="line2d_55">
    <path d="M 200.806745 293.76 
L 200.806745 289.927604 
L 205.422101 289.927604 
L 205.422101 286.095208 
L 206.852038 286.095208 
L 206.852038 282.262812 
L 207.696022 282.262812 
L 207.696022 278.430416 
L 211.211171 278.430416 
L 211.211171 274.59802 
L 215.297122 274.59802 
L 215.297122 270.765624 
L 216.359802 270.765624 
L 216.359802 266.933228 
L 218.057499 266.933228 
L 218.057499 263.100832 
L 220.551506 263.100832 
L 220.551506 259.268436 
L 220.602554 259.268436 
L 220.602554 255.43604 
L 260.038604 255.43604 
L 260.038604 251.603644 
L 280.743932 251.603644 
L 280.743932 247.771248 
L 281.384208 247.771248 
L 281.384208 243.938851 
L 282.658776 243.938851 
L 282.658776 240.106455 
L 284.625759 240.106455 
L 284.625759 236.274059 
L 296.145749 236.274059 
L 296.145749 232.441663 
L 301.603109 232.441663 
L 301.603109 228.609267 
L 305.137601 228.609267 
L 305.137601 224.776871 
L 309.783085 224.776871 
L 309.783085 220.944475 
L 311.657507 220.944475 
L 311.657507 217.112079 
L 319.074697 217.112079 
L 319.074697 213.279683 
L 320.583122 213.279683 
L 320.583122 209.447287 
L 323.90074 209.447287 
L 323.90074 205.614891 
L 332.548394 205.614891 
L 332.548394 201.782495 
L 335.996981 201.782495 
L 335.996981 197.950099 
L 347.875128 197.950099 
L 347.875128 194.117703 
L 349.108693 194.117703 
L 349.108693 190.285307 
L 352.869546 190.285307 
L 352.869546 186.452911 
L 353.089712 186.452911 
L 353.089712 182.620515 
L 356.144586 182.620515 
L 356.144586 178.788119 
L 357.763355 178.788119 
L 357.763355 174.955723 
L 357.780151 174.955723 
L 357.780151 171.123327 
L 358.143733 171.123327 
L 358.143733 167.290931 
L 359.048943 167.290931 
L 359.048943 163.458535 
L 359.263355 163.458535 
L 359.263355 159.626139 
L 368.626827 159.626139 
L 368.626827 155.793743 
L 374.076644 155.793743 
L 374.076644 151.961347 
L 376.51145 151.961347 
L 376.51145 148.12895 
L 377.550453 148.12895 
L 377.550453 144.296554 
L 378.274257 144.296554 
L 378.274257 140.464158 
L 378.282404 140.464158 
L 378.282404 136.631762 
L 380.074601 136.631762 
L 380.074601 132.799366 
L 381.369135 132.799366 
L 381.369135 128.96697 
L 381.44834 128.96697 
L 381.44834 125.134574 
L 382.270044 125.134574 
L 382.270044 121.302178 
L 394.425446 121.302178 
L 394.425446 117.469782 
L 394.911678 117.469782 
L 394.911678 113.637386 
L 395.602082 113.637386 
L 395.602082 109.80499 
L 398.314221 109.80499 
L 398.314221 105.972594 
L 399.060238 105.972594 
L 399.060238 102.140198 
L 400.273498 102.140198 
L 400.273498 98.307802 
L 418.687324 98.307802 
L 418.687324 94.475406 
L 430.20948 94.475406 
L 430.20948 90.64301 
L 431.657898 90.64301 
L 431.657898 86.810614 
L 433.326427 86.810614 
L 433.326427 82.978218 
L 433.326427 82.978218 
L 433.326427 82.978218 
L 460.8 82.978218 
" clip-path="url(#p3a9e9acb54)" style="fill: none; stroke: #ff0000; stroke-width: 3; stroke-linecap: square"/>
   </g>
   <g id="line2d_56">
    <path clip-path="url(#p3a9e9acb54)" style="fill: none; stroke: #ff0000; stroke-width: 3; stroke-linecap: square"/>
   </g>
   <g id="line2d_57">
    <path d="M 460.8 293.76 
L 460.8 3.456 
" clip-path="url(#p3a9e9acb54)" style="fill: none; stroke: #000000; stroke-width: 1.5; stroke-linecap: square"/>
   </g>
   <g id="patch_3">
    <path d="M 62.208 293.76 
L 62.208 3.456 
" style="fill: none; stroke: #000000; stroke-width: 0.8; stroke-linejoin: miter; stroke-linecap: square"/>
   </g>
   <g id="patch_4">
    <path d="M 460.8 293.76 
L 460.8 3.456 
" style="fill: none; stroke: #000000; stroke-width: 0.8; stroke-linejoin: miter; stroke-linecap: square"/>
   </g>
   <g id="patch_5">
    <path d="M 62.208 293.76 
L 460.8 293.76 
" style="fill: none; stroke: #000000; stroke-width: 0.8; stroke-linejoin: miter; stroke-linecap: square"/>
   </g>
   <g id="patch_6">
    <path d="M 62.208 3.456 
L 460.8 3.456 
" style="fill: none; stroke: #000000; stroke-width: 0.8; stroke-linejoin: miter; stroke-linecap: square"/>
   </g>
   <g id="text_12">
    <!-- {f20-f24}, 5-D -->
    <g transform="translate(188.654 24.458955)scale(0.2 -0.2)">
     <defs>
      <path id="DejaVuSans-7b" d="M 3272 -594 
L 3272 -1044 
L 3078 -1044 
Q 2300 -1044 2036 -812 
Q 1772 -581 1772 109 
L 1772 856 
Q 1772 1328 1603 1509 
Q 1434 1691 991 1691 
L 800 1691 
L 800 2138 
L 991 2138 
Q 1438 2138 1605 2317 
Q 1772 2497 1772 2963 
L 1772 3713 
Q 1772 4403 2036 4633 
Q 2300 4863 3078 4863 
L 3272 4863 
L 3272 4416 
L 3059 4416 
Q 2619 4416 2484 4278 
Q 2350 4141 2350 3700 
L 2350 2925 
Q 2350 2434 2208 2212 
Q 2066 1991 1722 1913 
Q 2069 1828 2209 1606 
Q 2350 1384 2350 897 
L 2350 122 
Q 2350 -319 2484 -456 
Q 2619 -594 3059 -594 
L 3272 -594 
z
" transform="scale(0.015625)"/>
      <path id="DejaVuSans-2d" d="M 313 2009 
L 1997 2009 
L 1997 1497 
L 313 1497 
L 313 2009 
z
" transform="scale(0.015625)"/>
      <path id="DejaVuSans-7d" d="M 800 -594 
L 1019 -594 
Q 1456 -594 1589 -459 
Q 1722 -325 1722 122 
L 1722 897 
Q 1722 1384 1862 1606 
Q 2003 1828 2350 1913 
Q 2003 1991 1862 2212 
Q 1722 2434 1722 2925 
L 1722 3700 
Q 1722 4144 1589 4280 
Q 1456 4416 1019 4416 
L 800 4416 
L 800 4863 
L 997 4863 
Q 1775 4863 2036 4633 
Q 2297 4403 2297 3713 
L 2297 2963 
Q 2297 2497 2465 2317 
Q 2634 2138 3078 2138 
L 3272 2138 
L 3272 1691 
L 3078 1691 
Q 2634 1691 2465 1509 
Q 2297 1328 2297 856 
L 2297 109 
Q 2297 -581 2036 -812 
Q 1775 -1044 997 -1044 
L 800 -1044 
L 800 -594 
z
" transform="scale(0.015625)"/>
      <path id="DejaVuSans-2c" d="M 750 794 
L 1409 794 
L 1409 256 
L 897 -744 
L 494 -744 
L 750 256 
L 750 794 
z
" transform="scale(0.015625)"/>
      <path id="DejaVuSans-35" d="M 691 4666 
L 3169 4666 
L 3169 4134 
L 1269 4134 
L 1269 2991 
Q 1406 3038 1543 3061 
Q 1681 3084 1819 3084 
Q 2600 3084 3056 2656 
Q 3513 2228 3513 1497 
Q 3513 744 3044 326 
Q 2575 -91 1722 -91 
Q 1428 -91 1123 -41 
Q 819 9 494 109 
L 494 744 
Q 775 591 1075 516 
Q 1375 441 1709 441 
Q 2250 441 2565 725 
Q 2881 1009 2881 1497 
Q 2881 1984 2565 2268 
Q 2250 2553 1709 2553 
Q 1456 2553 1204 2497 
Q 953 2441 691 2322 
L 691 4666 
z
" transform="scale(0.015625)"/>
     </defs>
     <use xlink:href="#DejaVuSans-7b"/>
     <use xlink:href="#DejaVuSans-66" x="63.623047"/>
     <use xlink:href="#DejaVuSans-32" x="98.828125"/>
     <use xlink:href="#DejaVuSans-30" x="162.451172"/>
     <use xlink:href="#DejaVuSans-2d" x="226.074219"/>
     <use xlink:href="#DejaVuSans-66" x="262.158203"/>
     <use xlink:href="#DejaVuSans-32" x="297.363281"/>
     <use xlink:href="#DejaVuSans-34" x="360.986328"/>
     <use xlink:href="#DejaVuSans-7d" x="424.609375"/>
     <use xlink:href="#DejaVuSans-2c" x="488.232422"/>
     <use xlink:href="#DejaVuSans-20" x="520.019531"/>
     <use xlink:href="#DejaVuSans-35" x="551.806641"/>
     <use xlink:href="#DejaVuSans-2d" x="615.429688"/>
     <use xlink:href="#DejaVuSans-44" x="651.513672"/>
    </g>
   </g>
   <g id="text_13">
    <!-- absolute targets -->
    <g transform="translate(62.208 609.932673)scale(0.14 -0.14)">
     <defs>
      <path id="DejaVuSans-62" d="M 3116 1747 
Q 3116 2381 2855 2742 
Q 2594 3103 2138 3103 
Q 1681 3103 1420 2742 
Q 1159 2381 1159 1747 
Q 1159 1113 1420 752 
Q 1681 391 2138 391 
Q 2594 391 2855 752 
Q 3116 1113 3116 1747 
z
M 1159 2969 
Q 1341 3281 1617 3432 
Q 1894 3584 2278 3584 
Q 2916 3584 3314 3078 
Q 3713 2572 3713 1747 
Q 3713 922 3314 415 
Q 2916 -91 2278 -91 
Q 1894 -91 1617 61 
Q 1341 213 1159 525 
L 1159 0 
L 581 0 
L 581 4863 
L 1159 4863 
L 1159 2969 
z
" transform="scale(0.015625)"/>
      <path id="DejaVuSans-75" d="M 544 1381 
L 544 3500 
L 1119 3500 
L 1119 1403 
Q 1119 906 1312 657 
Q 1506 409 1894 409 
Q 2359 409 2629 706 
Q 2900 1003 2900 1516 
L 2900 3500 
L 3475 3500 
L 3475 0 
L 2900 0 
L 2900 538 
Q 2691 219 2414 64 
Q 2138 -91 1772 -91 
Q 1169 -91 856 284 
Q 544 659 544 1381 
z
M 1991 3584 
L 1991 3584 
z
" transform="scale(0.015625)"/>
      <path id="DejaVuSans-65" d="M 3597 1894 
L 3597 1613 
L 953 1613 
Q 991 1019 1311 708 
Q 1631 397 2203 397 
Q 2534 397 2845 478 
Q 3156 559 3463 722 
L 3463 178 
Q 3153 47 2828 -22 
Q 2503 -91 2169 -91 
Q 1331 -91 842 396 
Q 353 884 353 1716 
Q 353 2575 817 3079 
Q 1281 3584 2069 3584 
Q 2775 3584 3186 3129 
Q 3597 2675 3597 1894 
z
M 3022 2063 
Q 3016 2534 2758 2815 
Q 2500 3097 2075 3097 
Q 1594 3097 1305 2825 
Q 1016 2553 972 2059 
L 3022 2063 
z
" transform="scale(0.015625)"/>
     </defs>
     <use xlink:href="#DejaVuSans-61"/>
     <use xlink:href="#DejaVuSans-62" x="61.279297"/>
     <use xlink:href="#DejaVuSans-73" x="124.755859"/>
     <use xlink:href="#DejaVuSans-6f" x="176.855469"/>
     <use xlink:href="#DejaVuSans-6c" x="238.037109"/>
     <use xlink:href="#DejaVuSans-75" x="265.820312"/>
     <use xlink:href="#DejaVuSans-74" x="329.199219"/>
     <use xlink:href="#DejaVuSans-65" x="368.408203"/>
     <use xlink:href="#DejaVuSans-20" x="429.931641"/>
     <use xlink:href="#DejaVuSans-74" x="461.71875"/>
     <use xlink:href="#DejaVuSans-61" x="500.927734"/>
     <use xlink:href="#DejaVuSans-72" x="562.207031"/>
     <use xlink:href="#DejaVuSans-67" x="601.570312"/>
     <use xlink:href="#DejaVuSans-65" x="665.046875"/>
     <use xlink:href="#DejaVuSans-74" x="726.570312"/>
     <use xlink:href="#DejaVuSans-73" x="765.779297"/>
    </g>
   </g>
   <g id="text_14">
    <!-- v2.6.3 -->
    <g style="fill: #808080" transform="translate(245.82275 288.777272)scale(0.1 -0.1)">
     <defs>
      <path id="DejaVuSans-33" d="M 2597 2516 
Q 3050 2419 3304 2112 
Q 3559 1806 3559 1356 
Q 3559 666 3084 287 
Q 2609 -91 1734 -91 
Q 1441 -91 1130 -33 
Q 819 25 488 141 
L 488 750 
Q 750 597 1062 519 
Q 1375 441 1716 441 
Q 2309 441 2620 675 
Q 2931 909 2931 1356 
Q 2931 1769 2642 2001 
Q 2353 2234 1838 2234 
L 1294 2234 
L 1294 2753 
L 1863 2753 
Q 2328 2753 2575 2939 
Q 2822 3125 2822 3475 
Q 2822 3834 2567 4026 
Q 2313 4219 1838 4219 
Q 1578 4219 1281 4162 
Q 984 4106 628 3988 
L 628 4550 
Q 988 4650 1302 4700 
Q 1616 4750 1894 4750 
Q 2613 4750 3031 4423 
Q 3450 4097 3450 3541 
Q 3450 3153 3228 2886 
Q 3006 2619 2597 2516 
z
" transform="scale(0.015625)"/>
     </defs>
     <use xlink:href="#DejaVuSans-76"/>
     <use xlink:href="#DejaVuSans-32" x="59.179688"/>
     <use xlink:href="#DejaVuSans-2e" x="122.802734"/>
     <use xlink:href="#DejaVuSans-36" x="154.589844"/>
     <use xlink:href="#DejaVuSans-2e" x="218.212891"/>
     <use xlink:href="#DejaVuSans-33" x="250"/>
    </g>
   </g>
   <g id="legend_1">
    <g id="patch_7">
     <path d="M 196.893062 136.881 
L 326.114937 136.881 
Q 330.114937 136.881 330.114937 132.881 
L 330.114937 17.456 
Q 330.114937 13.456 326.114937 13.456 
L 196.893062 13.456 
Q 192.893062 13.456 192.893062 17.456 
L 192.893062 132.881 
Q 192.893062 136.881 196.893062 136.881 
z
" style="fill: #ffffff; opacity: 0.2; stroke: #cccccc; stroke-linejoin: miter"/>
    </g>
    <g id="line2d_58">
     <path d="M 200.893062 29.652875 
L 200.893062 29.652875 
L 220.893062 29.652875 
L 220.893062 29.652875 
L 240.893062 29.652875 
" style="fill: none; stroke: #000000; stroke-width: 1.5; stroke-linecap: square"/>
    </g>
    <g id="text_15">
     <!-- 1: 5/5 -->
     <g transform="translate(256.893062 36.652875)scale(0.2 -0.2)">
      <defs>
       <path id="DejaVuSans-3a" d="M 750 794 
L 1409 794 
L 1409 0 
L 750 0 
L 750 794 
z
M 750 3309 
L 1409 3309 
L 1409 2516 
L 750 2516 
L 750 3309 
z
" transform="scale(0.015625)"/>
      </defs>
      <use xlink:href="#DejaVuSans-31"/>
      <use xlink:href="#DejaVuSans-3a" x="63.623047"/>
      <use xlink:href="#DejaVuSans-20" x="97.314453"/>
      <use xlink:href="#DejaVuSans-35" x="129.101562"/>
      <use xlink:href="#DejaVuSans-2f" x="192.724609"/>
      <use xlink:href="#DejaVuSans-35" x="226.416016"/>
     </g>
    </g>
    <g id="line2d_59">
     <path d="M 200.893062 59.009125 
L 200.893062 59.009125 
L 220.893062 59.009125 
L 220.893062 59.009125 
L 240.893062 59.009125 
" style="fill: none; stroke: #00bfbf; stroke-width: 1.5; stroke-linecap: square"/>
    </g>
    <g id="text_16">
     <!-- -1: 5/5 -->
     <g transform="translate(256.893062 66.009125)scale(0.2 -0.2)">
      <use xlink:href="#DejaVuSans-2d"/>
      <use xlink:href="#DejaVuSans-31" x="36.083984"/>
      <use xlink:href="#DejaVuSans-3a" x="99.707031"/>
      <use xlink:href="#DejaVuSans-20" x="133.398438"/>
      <use xlink:href="#DejaVuSans-35" x="165.185547"/>
      <use xlink:href="#DejaVuSans-2f" x="228.808594"/>
      <use xlink:href="#DejaVuSans-35" x="262.5"/>
     </g>
    </g>
    <g id="line2d_60">
     <path d="M 200.893062 88.365375 
L 200.893062 88.365375 
L 220.893062 88.365375 
L 220.893062 88.365375 
L 240.893062 88.365375 
" style="fill: none; stroke: #bf00bf; stroke-width: 1.5; stroke-linecap: square"/>
    </g>
    <g id="text_17">
     <!-- -4: 5/5 -->
     <g transform="translate(256.893062 95.365375)scale(0.2 -0.2)">
      <use xlink:href="#DejaVuSans-2d"/>
      <use xlink:href="#DejaVuSans-34" x="36.083984"/>
      <use xlink:href="#DejaVuSans-3a" x="99.707031"/>
      <use xlink:href="#DejaVuSans-20" x="133.398438"/>
      <use xlink:href="#DejaVuSans-35" x="165.185547"/>
      <use xlink:href="#DejaVuSans-2f" x="228.808594"/>
      <use xlink:href="#DejaVuSans-35" x="262.5"/>
     </g>
    </g>
    <g id="line2d_61">
     <path d="M 200.893062 117.721625 
L 200.893062 117.721625 
L 220.893062 117.721625 
L 220.893062 117.721625 
L 240.893062 117.721625 
" style="fill: none; stroke: #ff0000; stroke-width: 3; stroke-linecap: square"/>
    </g>
    <g id="text_18">
     <!-- -8: 5/5 -->
     <g transform="translate(256.893062 124.721625)scale(0.2 -0.2)">
      <use xlink:href="#DejaVuSans-2d"/>
      <use xlink:href="#DejaVuSans-38" x="36.083984"/>
      <use xlink:href="#DejaVuSans-3a" x="99.707031"/>
      <use xlink:href="#DejaVuSans-20" x="133.398438"/>
      <use xlink:href="#DejaVuSans-35" x="165.185547"/>
      <use xlink:href="#DejaVuSans-2f" x="228.808594"/>
      <use xlink:href="#DejaVuSans-35" x="262.5"/>
     </g>
    </g>
   </g>
  </g>
 </g>
 <defs>
  <clipPath id="p3a9e9acb54">
   <rect x="62.208" y="3.456" width="398.592" height="290.304"/>
  </clipPath>
 </defs>
</svg>
