<?xml version="1.0" encoding="utf-8" standalone="no"?>
<!DOCTYPE svg PUBLIC "-//W3C//DTD SVG 1.1//EN"
  "http://www.w3.org/Graphics/SVG/1.1/DTD/svg11.dtd">
<svg xmlns:xlink="http://www.w3.org/1999/xlink" width="460.8pt" height="345.6pt" viewBox="0 0 460.8 345.6" xmlns="http://www.w3.org/2000/svg" version="1.1">
 <metadata>
  <rdf:RDF xmlns:dc="http://purl.org/dc/elements/1.1/" xmlns:cc="http://creativecommons.org/ns#" xmlns:rdf="http://www.w3.org/1999/02/22-rdf-syntax-ns#">
   <cc:Work>
    <dc:type rdf:resource="http://purl.org/dc/dcmitype/StillImage"/>
    <dc:date>2023-04-07T14:46:11.706419</dc:date>
    <dc:format>image/svg+xml</dc:format>
    <dc:creator>
     <cc:Agent>
      <dc:title>Matplotlib v3.5.2, https://matplotlib.org/</dc:title>
     </cc:Agent>
    </dc:creator>
   </cc:Work>
  </rdf:RDF>
 </metadata>
 <defs>
  <style type="text/css">*{stroke-linejoin: round; stroke-linecap: butt}</style>
 </defs>
 <g id="figure_1">
  <g id="patch_1">
   <path d="M 0 345.6 
L 460.8 345.6 
L 460.8 0 
L 0 0 
z
" style="fill: #ffffff"/>
  </g>
  <g id="axes_1">
   <g id="patch_2">
    <path d="M 62.208 293.76 
L 460.8 293.76 
L 460.8 3.456 
L 62.208 3.456 
z
" style="fill: #ffffff"/>
   </g>
   <g id="line2d_1"/>
   <g id="line2d_2"/>
   <g id="line2d_3"/>
   <g id="line2d_4"/>
   <g id="line2d_5"/>
   <g id="line2d_6"/>
   <g id="line2d_7"/>
   <g id="line2d_8"/>
   <g id="line2d_9">
    <path d="M 317.154878 293.76 
L 317.154878 289.927604 
L 333.3756 289.927604 
L 333.3756 286.095208 
L 338.83747 286.095208 
L 338.83747 282.262812 
L 339.570271 282.262812 
L 339.570271 278.430416 
L 340.096957 278.430416 
L 340.096957 274.59802 
L 340.365296 274.59802 
L 340.365296 270.765624 
L 340.835752 270.765624 
L 340.835752 266.933228 
L 341.779907 266.933228 
L 341.820141 259.268436 
L 342.828347 259.268436 
L 342.828347 255.43604 
L 343.614261 255.43604 
L 343.614261 251.603644 
L 343.906509 251.603644 
L 343.906509 247.771248 
L 344.160496 247.771248 
L 344.160496 243.938851 
L 344.420007 243.938851 
L 344.420007 240.106455 
L 344.773002 240.106455 
L 344.819099 232.441663 
L 344.94029 232.441663 
L 344.94029 228.609267 
L 346.213471 228.609267 
L 346.213471 224.776871 
L 346.491283 224.776871 
L 346.491283 220.944475 
L 357.232633 220.944475 
L 357.232633 217.112079 
L 359.589501 217.112079 
L 359.589501 213.279683 
L 362.019496 213.279683 
L 362.019496 209.447287 
L 363.961664 209.447287 
L 363.961664 205.614891 
L 365.337023 205.614891 
L 365.337023 201.782495 
L 365.746417 201.782495 
L 365.746417 197.950099 
L 367.228187 197.950099 
L 367.228187 194.117703 
L 367.983783 194.117703 
L 368.000703 186.452911 
L 369.300221 186.452911 
L 369.300221 182.620515 
L 369.757672 182.620515 
L 369.757672 178.788119 
L 370.096635 178.788119 
L 370.096635 174.955723 
L 370.237404 174.955723 
L 370.237404 171.123327 
L 370.567055 171.123327 
L 370.567055 167.290931 
L 370.690626 167.290931 
L 370.690626 163.458535 
L 371.340834 163.458535 
L 371.340834 159.626139 
L 372.06203 159.626139 
L 372.06203 155.793743 
L 372.764981 155.793743 
L 372.764981 151.961347 
L 373.067078 151.961347 
L 373.067078 148.12895 
L 374.0766 148.12895 
L 374.0766 144.296554 
L 375.808833 144.296554 
L 375.808833 140.464158 
L 379.074929 140.464158 
L 379.074929 136.631762 
L 379.214453 136.631762 
L 379.287554 128.96697 
L 379.569898 128.96697 
L 379.569898 125.134574 
L 379.722073 125.134574 
L 379.811091 117.469782 
L 380.644735 117.469782 
L 380.66504 109.80499 
L 384.422153 109.80499 
L 384.422153 105.972594 
L 384.676987 105.972594 
L 384.676987 102.140198 
L 386.310576 102.140198 
L 386.383346 94.475406 
L 386.964983 94.475406 
L 386.964983 90.64301 
L 391.44666 90.64301 
L 391.44666 86.810614 
L 397.88795 86.810614 
L 397.88795 82.978218 
L 398.705084 82.978218 
L 398.705084 79.145822 
L 399.403776 79.145822 
L 399.403776 75.313426 
L 399.58112 75.313426 
L 399.58112 71.48103 
L 401.261648 71.48103 
L 401.261648 67.648634 
L 402.553336 67.648634 
L 402.553336 63.816238 
L 460.212496 63.816238 
L 460.212496 59.983842 
L 461.8 59.983842 
L 461.8 59.983842 
" clip-path="url(#p585daae43f)" style="fill: none; stroke: #f5deb3; stroke-width: 1.5; stroke-linecap: square"/>
   </g>
   <g id="line2d_10"/>
   <g id="line2d_11"/>
   <g id="line2d_12"/>
   <g id="line2d_13"/>
   <g id="line2d_14"/>
   <g id="line2d_15"/>
   <g id="line2d_16"/>
   <g id="line2d_17"/>
   <g id="line2d_18"/>
   <g id="line2d_19"/>
   <g id="line2d_20"/>
   <g id="line2d_21"/>
   <g id="line2d_22"/>
   <g id="line2d_23"/>
   <g id="line2d_24">
    <path d="M 329.396809 293.76 
L 329.396809 289.927604 
L 332.005351 289.927604 
L 332.039013 282.262812 
L 366.826344 282.262812 
L 366.936731 274.59802 
L 369.560349 274.59802 
L 369.560349 270.765624 
L 370.147989 270.765624 
L 370.147989 266.933228 
L 370.429261 266.933228 
L 370.429261 263.100832 
L 372.792758 263.100832 
L 372.792758 259.268436 
L 375.30326 259.268436 
L 375.30326 255.43604 
L 375.454265 255.43604 
L 375.454265 251.603644 
L 388.601509 251.603644 
L 388.601509 247.771248 
L 390.355488 247.771248 
L 390.355488 243.938851 
L 390.778602 243.938851 
L 390.778602 240.106455 
L 391.113823 240.106455 
L 391.113823 236.274059 
L 391.339375 236.274059 
L 391.339375 232.441663 
L 391.884087 232.441663 
L 391.957599 224.776871 
L 392.206738 224.776871 
L 392.206738 220.944475 
L 392.896675 220.944475 
L 392.968271 213.279683 
L 393.272699 213.279683 
L 393.272699 209.447287 
L 393.647373 209.447287 
L 393.647373 205.614891 
L 394.067479 205.614891 
L 394.067479 201.782495 
L 394.648448 201.782495 
L 394.648448 197.950099 
L 394.91555 197.950099 
L 394.948332 190.285307 
L 395.412386 190.285307 
L 395.412386 186.452911 
L 395.724152 186.452911 
L 395.724152 182.620515 
L 395.837708 182.620515 
L 395.837708 178.788119 
L 396.194367 178.788119 
L 396.194367 174.955723 
L 396.776664 174.955723 
L 396.848857 167.290931 
L 397.242345 167.290931 
L 397.242345 163.458535 
L 397.728431 163.458535 
L 397.735348 155.793743 
L 398.248266 155.793743 
L 398.248266 151.961347 
L 398.471096 151.961347 
L 398.471096 148.12895 
L 398.637323 148.12895 
L 398.637323 144.296554 
L 398.750198 144.296554 
L 398.750198 140.464158 
L 398.968287 140.464158 
L 399.037851 132.799366 
L 399.434699 132.799366 
L 399.476898 125.134574 
L 403.420703 125.134574 
L 403.420703 121.302178 
L 405.156726 121.302178 
L 405.156726 117.469782 
L 405.334819 117.469782 
L 405.334819 113.637386 
L 406.582706 113.637386 
L 406.582706 109.80499 
L 418.144229 109.80499 
L 418.144229 105.972594 
L 418.741458 105.972594 
L 418.741458 102.140198 
L 419.199058 102.140198 
L 419.199058 98.307802 
L 423.659336 98.307802 
L 423.659336 94.475406 
L 425.185036 94.475406 
L 425.185036 90.64301 
L 425.935049 90.64301 
L 425.935049 86.810614 
L 426.451856 86.810614 
L 426.451856 82.978218 
L 427.550091 82.978218 
L 427.550091 79.145822 
L 443.462866 79.145822 
L 443.462866 75.313426 
L 443.935076 75.313426 
L 443.935076 71.48103 
L 444.565512 71.48103 
L 444.565512 67.648634 
L 445.117603 67.648634 
L 445.117603 63.816238 
L 461.8 63.816238 
L 461.8 63.816238 
" clip-path="url(#p585daae43f)" style="fill: none; stroke: #f5deb3; stroke-width: 1.5; stroke-linecap: square"/>
   </g>
   <g id="line2d_25">
    <path d="M 385.180766 293.76 
L 385.180766 289.927604 
L 385.662161 289.927604 
L 385.662161 286.095208 
L 385.899779 286.095208 
L 385.899779 282.262812 
L 386.224365 282.262812 
L 386.224365 278.430416 
L 386.782164 278.430416 
L 386.782164 274.59802 
L 387.216163 274.59802 
L 387.216163 270.765624 
L 387.216163 270.765624 
L 387.216163 270.765624 
L 460.8 270.765624 
" clip-path="url(#p585daae43f)" style="fill: none; stroke: #f5deb3; stroke-width: 1.5; stroke-linecap: square"/>
   </g>
   <g id="line2d_26">
    <path d="M 416.456682 293.76 
L 416.456682 289.927604 
L 429.003707 289.927604 
L 429.003707 286.095208 
L 429.003707 286.095208 
L 429.003707 286.095208 
L 460.8 286.095208 
" clip-path="url(#p585daae43f)" style="fill: none; stroke: #f5deb3; stroke-width: 1.5; stroke-linecap: square"/>
   </g>
   <g id="line2d_27"/>
   <g id="line2d_28">
    <path d="M 407.311233 293.76 
L 407.311233 289.927604 
L 408.639538 289.927604 
L 408.639538 286.095208 
L 431.666755 286.095208 
L 431.666755 282.262812 
L 431.953019 282.262812 
L 431.953019 278.430416 
L 432.251901 278.430416 
L 432.251901 274.59802 
L 432.344112 274.59802 
L 432.344112 270.765624 
L 433.677456 270.765624 
L 433.677456 266.933228 
L 433.860337 266.933228 
L 433.860337 263.100832 
L 434.45004 263.100832 
L 434.45004 259.268436 
L 434.518615 259.268436 
L 434.518615 255.43604 
L 434.699178 255.43604 
L 434.699178 251.603644 
L 434.736609 251.603644 
L 434.736609 247.771248 
L 434.918243 247.771248 
L 434.918243 243.938851 
L 434.920079 243.938851 
L 434.920079 240.106455 
L 435.338931 240.106455 
L 435.338931 236.274059 
L 436.044905 236.274059 
L 436.044905 232.441663 
L 436.127327 232.441663 
L 436.127327 228.609267 
L 436.269116 228.609267 
L 436.269116 224.776871 
L 436.716515 224.776871 
L 436.716515 220.944475 
L 436.969727 220.944475 
L 436.969727 217.112079 
L 437.289215 217.112079 
L 437.289215 213.279683 
L 437.355209 213.279683 
L 437.355209 209.447287 
L 437.389066 209.447287 
L 437.389066 205.614891 
L 437.551598 205.614891 
L 437.551598 201.782495 
L 437.642718 201.782495 
L 437.642718 197.950099 
L 437.694691 197.950099 
L 437.694691 194.117703 
L 438.153906 194.117703 
L 438.153906 190.285307 
L 438.310574 190.285307 
L 438.310574 186.452911 
L 438.44064 186.452911 
L 438.44064 182.620515 
L 438.585869 182.620515 
L 438.585869 178.788119 
L 439.138216 178.788119 
L 439.138216 174.955723 
L 439.16033 174.955723 
L 439.16033 171.123327 
L 440.812511 171.123327 
L 440.812511 167.290931 
L 441.060075 167.290931 
L 441.060075 163.458535 
L 441.353243 163.458535 
L 441.353243 159.626139 
L 441.973808 159.626139 
L 441.973808 155.793743 
L 442.186071 155.793743 
L 442.186071 151.961347 
L 442.308786 151.961347 
L 442.308786 148.12895 
L 442.427493 148.12895 
L 442.427493 144.296554 
L 442.687021 144.296554 
L 442.687021 140.464158 
L 443.619862 140.464158 
L 443.619862 136.631762 
L 444.304316 136.631762 
L 444.304316 132.799366 
L 444.667731 132.799366 
L 444.667731 128.96697 
L 448.96534 128.96697 
L 448.96534 125.134574 
L 452.662168 125.134574 
L 452.662168 121.302178 
L 460.660624 121.302178 
L 460.660624 117.469782 
L 461.8 117.469782 
" clip-path="url(#p585daae43f)" style="fill: none; stroke: #f5deb3; stroke-width: 1.5; stroke-linecap: square"/>
   </g>
   <g id="line2d_29"/>
   <g id="line2d_30"/>
   <g id="matplotlib.axis_1">
    <g id="xtick_1">
     <g id="line2d_31">
      <path d="M 62.208 293.76 
L 62.208 3.456 
" clip-path="url(#p585daae43f)" style="fill: none; stroke: #b0b0b0; stroke-width: 0.8; stroke-linecap: square"/>
     </g>
     <g id="line2d_32">
      <defs>
       <path id="m1de0f61272" d="M 0 0 
L 0 3.5 
" style="stroke: #000000; stroke-width: 0.8"/>
      </defs>
      <g>
       <use xlink:href="#m1de0f61272" x="62.208" y="293.76" style="stroke: #000000; stroke-width: 0.8"/>
      </g>
     </g>
     <g id="text_1">
      <!-- 0 -->
      <g transform="translate(55.8455 315.956875)scale(0.2 -0.2)">
       <defs>
        <path id="DejaVuSans-30" d="M 2034 4250 
Q 1547 4250 1301 3770 
Q 1056 3291 1056 2328 
Q 1056 1369 1301 889 
Q 1547 409 2034 409 
Q 2525 409 2770 889 
Q 3016 1369 3016 2328 
Q 3016 3291 2770 3770 
Q 2525 4250 2034 4250 
z
M 2034 4750 
Q 2819 4750 3233 4129 
Q 3647 3509 3647 2328 
Q 3647 1150 3233 529 
Q 2819 -91 2034 -91 
Q 1250 -91 836 529 
Q 422 1150 422 2328 
Q 422 3509 836 4129 
Q 1250 4750 2034 4750 
z
" transform="scale(0.015625)"/>
       </defs>
       <use xlink:href="#DejaVuSans-30"/>
      </g>
     </g>
    </g>
    <g id="xtick_2">
     <g id="line2d_33">
      <path d="M 212.57218 293.76 
L 212.57218 3.456 
" clip-path="url(#p585daae43f)" style="fill: none; stroke: #b0b0b0; stroke-width: 0.8; stroke-linecap: square"/>
     </g>
     <g id="line2d_34">
      <g>
       <use xlink:href="#m1de0f61272" x="212.57218" y="293.76" style="stroke: #000000; stroke-width: 0.8"/>
      </g>
     </g>
     <g id="text_2">
      <!-- 2 -->
      <g transform="translate(206.20968 315.956875)scale(0.2 -0.2)">
       <defs>
        <path id="DejaVuSans-32" d="M 1228 531 
L 3431 531 
L 3431 0 
L 469 0 
L 469 531 
Q 828 903 1448 1529 
Q 2069 2156 2228 2338 
Q 2531 2678 2651 2914 
Q 2772 3150 2772 3378 
Q 2772 3750 2511 3984 
Q 2250 4219 1831 4219 
Q 1534 4219 1204 4116 
Q 875 4013 500 3803 
L 500 4441 
Q 881 4594 1212 4672 
Q 1544 4750 1819 4750 
Q 2544 4750 2975 4387 
Q 3406 4025 3406 3419 
Q 3406 3131 3298 2873 
Q 3191 2616 2906 2266 
Q 2828 2175 2409 1742 
Q 1991 1309 1228 531 
z
" transform="scale(0.015625)"/>
       </defs>
       <use xlink:href="#DejaVuSans-32"/>
      </g>
     </g>
    </g>
    <g id="xtick_3">
     <g id="line2d_35">
      <path d="M 362.93636 293.76 
L 362.93636 3.456 
" clip-path="url(#p585daae43f)" style="fill: none; stroke: #b0b0b0; stroke-width: 0.8; stroke-linecap: square"/>
     </g>
     <g id="line2d_36">
      <g>
       <use xlink:href="#m1de0f61272" x="362.93636" y="293.76" style="stroke: #000000; stroke-width: 0.8"/>
      </g>
     </g>
     <g id="text_3">
      <!-- 4 -->
      <g transform="translate(356.57386 315.956875)scale(0.2 -0.2)">
       <defs>
        <path id="DejaVuSans-34" d="M 2419 4116 
L 825 1625 
L 2419 1625 
L 2419 4116 
z
M 2253 4666 
L 3047 4666 
L 3047 1625 
L 3713 1625 
L 3713 1100 
L 3047 1100 
L 3047 0 
L 2419 0 
L 2419 1100 
L 313 1100 
L 313 1709 
L 2253 4666 
z
" transform="scale(0.015625)"/>
       </defs>
       <use xlink:href="#DejaVuSans-34"/>
      </g>
     </g>
    </g>
    <g id="text_4">
     <!-- log10 of FEvals / DIM -->
     <g transform="translate(156.430563 339.313125)scale(0.2 -0.2)">
      <defs>
       <path id="DejaVuSans-6c" d="M 603 4863 
L 1178 4863 
L 1178 0 
L 603 0 
L 603 4863 
z
" transform="scale(0.015625)"/>
       <path id="DejaVuSans-6f" d="M 1959 3097 
Q 1497 3097 1228 2736 
Q 959 2375 959 1747 
Q 959 1119 1226 758 
Q 1494 397 1959 397 
Q 2419 397 2687 759 
Q 2956 1122 2956 1747 
Q 2956 2369 2687 2733 
Q 2419 3097 1959 3097 
z
M 1959 3584 
Q 2709 3584 3137 3096 
Q 3566 2609 3566 1747 
Q 3566 888 3137 398 
Q 2709 -91 1959 -91 
Q 1206 -91 779 398 
Q 353 888 353 1747 
Q 353 2609 779 3096 
Q 1206 3584 1959 3584 
z
" transform="scale(0.015625)"/>
       <path id="DejaVuSans-67" d="M 2906 1791 
Q 2906 2416 2648 2759 
Q 2391 3103 1925 3103 
Q 1463 3103 1205 2759 
Q 947 2416 947 1791 
Q 947 1169 1205 825 
Q 1463 481 1925 481 
Q 2391 481 2648 825 
Q 2906 1169 2906 1791 
z
M 3481 434 
Q 3481 -459 3084 -895 
Q 2688 -1331 1869 -1331 
Q 1566 -1331 1297 -1286 
Q 1028 -1241 775 -1147 
L 775 -588 
Q 1028 -725 1275 -790 
Q 1522 -856 1778 -856 
Q 2344 -856 2625 -561 
Q 2906 -266 2906 331 
L 2906 616 
Q 2728 306 2450 153 
Q 2172 0 1784 0 
Q 1141 0 747 490 
Q 353 981 353 1791 
Q 353 2603 747 3093 
Q 1141 3584 1784 3584 
Q 2172 3584 2450 3431 
Q 2728 3278 2906 2969 
L 2906 3500 
L 3481 3500 
L 3481 434 
z
" transform="scale(0.015625)"/>
       <path id="DejaVuSans-31" d="M 794 531 
L 1825 531 
L 1825 4091 
L 703 3866 
L 703 4441 
L 1819 4666 
L 2450 4666 
L 2450 531 
L 3481 531 
L 3481 0 
L 794 0 
L 794 531 
z
" transform="scale(0.015625)"/>
       <path id="DejaVuSans-20" transform="scale(0.015625)"/>
       <path id="DejaVuSans-66" d="M 2375 4863 
L 2375 4384 
L 1825 4384 
Q 1516 4384 1395 4259 
Q 1275 4134 1275 3809 
L 1275 3500 
L 2222 3500 
L 2222 3053 
L 1275 3053 
L 1275 0 
L 697 0 
L 697 3053 
L 147 3053 
L 147 3500 
L 697 3500 
L 697 3744 
Q 697 4328 969 4595 
Q 1241 4863 1831 4863 
L 2375 4863 
z
" transform="scale(0.015625)"/>
       <path id="DejaVuSans-46" d="M 628 4666 
L 3309 4666 
L 3309 4134 
L 1259 4134 
L 1259 2759 
L 3109 2759 
L 3109 2228 
L 1259 2228 
L 1259 0 
L 628 0 
L 628 4666 
z
" transform="scale(0.015625)"/>
       <path id="DejaVuSans-45" d="M 628 4666 
L 3578 4666 
L 3578 4134 
L 1259 4134 
L 1259 2753 
L 3481 2753 
L 3481 2222 
L 1259 2222 
L 1259 531 
L 3634 531 
L 3634 0 
L 628 0 
L 628 4666 
z
" transform="scale(0.015625)"/>
       <path id="DejaVuSans-76" d="M 191 3500 
L 800 3500 
L 1894 563 
L 2988 3500 
L 3597 3500 
L 2284 0 
L 1503 0 
L 191 3500 
z
" transform="scale(0.015625)"/>
       <path id="DejaVuSans-61" d="M 2194 1759 
Q 1497 1759 1228 1600 
Q 959 1441 959 1056 
Q 959 750 1161 570 
Q 1363 391 1709 391 
Q 2188 391 2477 730 
Q 2766 1069 2766 1631 
L 2766 1759 
L 2194 1759 
z
M 3341 1997 
L 3341 0 
L 2766 0 
L 2766 531 
Q 2569 213 2275 61 
Q 1981 -91 1556 -91 
Q 1019 -91 701 211 
Q 384 513 384 1019 
Q 384 1609 779 1909 
Q 1175 2209 1959 2209 
L 2766 2209 
L 2766 2266 
Q 2766 2663 2505 2880 
Q 2244 3097 1772 3097 
Q 1472 3097 1187 3025 
Q 903 2953 641 2809 
L 641 3341 
Q 956 3463 1253 3523 
Q 1550 3584 1831 3584 
Q 2591 3584 2966 3190 
Q 3341 2797 3341 1997 
z
" transform="scale(0.015625)"/>
       <path id="DejaVuSans-73" d="M 2834 3397 
L 2834 2853 
Q 2591 2978 2328 3040 
Q 2066 3103 1784 3103 
Q 1356 3103 1142 2972 
Q 928 2841 928 2578 
Q 928 2378 1081 2264 
Q 1234 2150 1697 2047 
L 1894 2003 
Q 2506 1872 2764 1633 
Q 3022 1394 3022 966 
Q 3022 478 2636 193 
Q 2250 -91 1575 -91 
Q 1294 -91 989 -36 
Q 684 19 347 128 
L 347 722 
Q 666 556 975 473 
Q 1284 391 1588 391 
Q 1994 391 2212 530 
Q 2431 669 2431 922 
Q 2431 1156 2273 1281 
Q 2116 1406 1581 1522 
L 1381 1569 
Q 847 1681 609 1914 
Q 372 2147 372 2553 
Q 372 3047 722 3315 
Q 1072 3584 1716 3584 
Q 2034 3584 2315 3537 
Q 2597 3491 2834 3397 
z
" transform="scale(0.015625)"/>
       <path id="DejaVuSans-2f" d="M 1625 4666 
L 2156 4666 
L 531 -594 
L 0 -594 
L 1625 4666 
z
" transform="scale(0.015625)"/>
       <path id="DejaVuSans-44" d="M 1259 4147 
L 1259 519 
L 2022 519 
Q 2988 519 3436 956 
Q 3884 1394 3884 2338 
Q 3884 3275 3436 3711 
Q 2988 4147 2022 4147 
L 1259 4147 
z
M 628 4666 
L 1925 4666 
Q 3281 4666 3915 4102 
Q 4550 3538 4550 2338 
Q 4550 1131 3912 565 
Q 3275 0 1925 0 
L 628 0 
L 628 4666 
z
" transform="scale(0.015625)"/>
       <path id="DejaVuSans-49" d="M 628 4666 
L 1259 4666 
L 1259 0 
L 628 0 
L 628 4666 
z
" transform="scale(0.015625)"/>
       <path id="DejaVuSans-4d" d="M 628 4666 
L 1569 4666 
L 2759 1491 
L 3956 4666 
L 4897 4666 
L 4897 0 
L 4281 0 
L 4281 4097 
L 3078 897 
L 2444 897 
L 1241 4097 
L 1241 0 
L 628 0 
L 628 4666 
z
" transform="scale(0.015625)"/>
      </defs>
      <use xlink:href="#DejaVuSans-6c"/>
      <use xlink:href="#DejaVuSans-6f" x="27.783203"/>
      <use xlink:href="#DejaVuSans-67" x="88.964844"/>
      <use xlink:href="#DejaVuSans-31" x="152.441406"/>
      <use xlink:href="#DejaVuSans-30" x="216.064453"/>
      <use xlink:href="#DejaVuSans-20" x="279.6875"/>
      <use xlink:href="#DejaVuSans-6f" x="311.474609"/>
      <use xlink:href="#DejaVuSans-66" x="372.65625"/>
      <use xlink:href="#DejaVuSans-20" x="407.861328"/>
      <use xlink:href="#DejaVuSans-46" x="439.648438"/>
      <use xlink:href="#DejaVuSans-45" x="497.167969"/>
      <use xlink:href="#DejaVuSans-76" x="560.351562"/>
      <use xlink:href="#DejaVuSans-61" x="619.53125"/>
      <use xlink:href="#DejaVuSans-6c" x="680.810547"/>
      <use xlink:href="#DejaVuSans-73" x="708.59375"/>
      <use xlink:href="#DejaVuSans-20" x="760.693359"/>
      <use xlink:href="#DejaVuSans-2f" x="792.480469"/>
      <use xlink:href="#DejaVuSans-20" x="826.171875"/>
      <use xlink:href="#DejaVuSans-44" x="857.958984"/>
      <use xlink:href="#DejaVuSans-49" x="934.960938"/>
      <use xlink:href="#DejaVuSans-4d" x="964.453125"/>
     </g>
    </g>
   </g>
   <g id="matplotlib.axis_2">
    <g id="ytick_1">
     <g id="line2d_37">
      <path d="M 62.208 293.76 
L 460.8 293.76 
" clip-path="url(#p585daae43f)" style="fill: none; stroke: #b0b0b0; stroke-width: 0.8; stroke-linecap: square"/>
     </g>
     <g id="line2d_38">
      <defs>
       <path id="m5a2df8fd66" d="M 0 0 
L -3.5 0 
" style="stroke: #000000; stroke-width: 0.8"/>
      </defs>
      <g>
       <use xlink:href="#m5a2df8fd66" x="62.208" y="293.76" style="stroke: #000000; stroke-width: 0.8"/>
      </g>
     </g>
     <g id="text_5">
      <!-- 0.0 -->
      <g transform="translate(29.763 299.83875)scale(0.16 -0.16)">
       <defs>
        <path id="DejaVuSans-2e" d="M 684 794 
L 1344 794 
L 1344 0 
L 684 0 
L 684 794 
z
" transform="scale(0.015625)"/>
       </defs>
       <use xlink:href="#DejaVuSans-30"/>
       <use xlink:href="#DejaVuSans-2e" x="63.623047"/>
       <use xlink:href="#DejaVuSans-30" x="95.410156"/>
      </g>
     </g>
    </g>
    <g id="ytick_2">
     <g id="line2d_39">
      <path d="M 62.208 236.274059 
L 460.8 236.274059 
" clip-path="url(#p585daae43f)" style="fill: none; stroke: #b0b0b0; stroke-width: 0.8; stroke-linecap: square"/>
     </g>
     <g id="line2d_40">
      <g>
       <use xlink:href="#m5a2df8fd66" x="62.208" y="236.274059" style="stroke: #000000; stroke-width: 0.8"/>
      </g>
     </g>
     <g id="text_6">
      <!-- 0.2 -->
      <g transform="translate(29.763 242.352809)scale(0.16 -0.16)">
       <use xlink:href="#DejaVuSans-30"/>
       <use xlink:href="#DejaVuSans-2e" x="63.623047"/>
       <use xlink:href="#DejaVuSans-32" x="95.410156"/>
      </g>
     </g>
    </g>
    <g id="ytick_3">
     <g id="line2d_41">
      <path d="M 62.208 178.788119 
L 460.8 178.788119 
" clip-path="url(#p585daae43f)" style="fill: none; stroke: #b0b0b0; stroke-width: 0.8; stroke-linecap: square"/>
     </g>
     <g id="line2d_42">
      <g>
       <use xlink:href="#m5a2df8fd66" x="62.208" y="178.788119" style="stroke: #000000; stroke-width: 0.8"/>
      </g>
     </g>
     <g id="text_7">
      <!-- 0.4 -->
      <g transform="translate(29.763 184.866869)scale(0.16 -0.16)">
       <use xlink:href="#DejaVuSans-30"/>
       <use xlink:href="#DejaVuSans-2e" x="63.623047"/>
       <use xlink:href="#DejaVuSans-34" x="95.410156"/>
      </g>
     </g>
    </g>
    <g id="ytick_4">
     <g id="line2d_43">
      <path d="M 62.208 121.302178 
L 460.8 121.302178 
" clip-path="url(#p585daae43f)" style="fill: none; stroke: #b0b0b0; stroke-width: 0.8; stroke-linecap: square"/>
     </g>
     <g id="line2d_44">
      <g>
       <use xlink:href="#m5a2df8fd66" x="62.208" y="121.302178" style="stroke: #000000; stroke-width: 0.8"/>
      </g>
     </g>
     <g id="text_8">
      <!-- 0.6 -->
      <g transform="translate(29.763 127.380928)scale(0.16 -0.16)">
       <defs>
        <path id="DejaVuSans-36" d="M 2113 2584 
Q 1688 2584 1439 2293 
Q 1191 2003 1191 1497 
Q 1191 994 1439 701 
Q 1688 409 2113 409 
Q 2538 409 2786 701 
Q 3034 994 3034 1497 
Q 3034 2003 2786 2293 
Q 2538 2584 2113 2584 
z
M 3366 4563 
L 3366 3988 
Q 3128 4100 2886 4159 
Q 2644 4219 2406 4219 
Q 1781 4219 1451 3797 
Q 1122 3375 1075 2522 
Q 1259 2794 1537 2939 
Q 1816 3084 2150 3084 
Q 2853 3084 3261 2657 
Q 3669 2231 3669 1497 
Q 3669 778 3244 343 
Q 2819 -91 2113 -91 
Q 1303 -91 875 529 
Q 447 1150 447 2328 
Q 447 3434 972 4092 
Q 1497 4750 2381 4750 
Q 2619 4750 2861 4703 
Q 3103 4656 3366 4563 
z
" transform="scale(0.015625)"/>
       </defs>
       <use xlink:href="#DejaVuSans-30"/>
       <use xlink:href="#DejaVuSans-2e" x="63.623047"/>
       <use xlink:href="#DejaVuSans-36" x="95.410156"/>
      </g>
     </g>
    </g>
    <g id="ytick_5">
     <g id="line2d_45">
      <path d="M 62.208 63.816238 
L 460.8 63.816238 
" clip-path="url(#p585daae43f)" style="fill: none; stroke: #b0b0b0; stroke-width: 0.8; stroke-linecap: square"/>
     </g>
     <g id="line2d_46">
      <g>
       <use xlink:href="#m5a2df8fd66" x="62.208" y="63.816238" style="stroke: #000000; stroke-width: 0.8"/>
      </g>
     </g>
     <g id="text_9">
      <!-- 0.8 -->
      <g transform="translate(29.763 69.894988)scale(0.16 -0.16)">
       <defs>
        <path id="DejaVuSans-38" d="M 2034 2216 
Q 1584 2216 1326 1975 
Q 1069 1734 1069 1313 
Q 1069 891 1326 650 
Q 1584 409 2034 409 
Q 2484 409 2743 651 
Q 3003 894 3003 1313 
Q 3003 1734 2745 1975 
Q 2488 2216 2034 2216 
z
M 1403 2484 
Q 997 2584 770 2862 
Q 544 3141 544 3541 
Q 544 4100 942 4425 
Q 1341 4750 2034 4750 
Q 2731 4750 3128 4425 
Q 3525 4100 3525 3541 
Q 3525 3141 3298 2862 
Q 3072 2584 2669 2484 
Q 3125 2378 3379 2068 
Q 3634 1759 3634 1313 
Q 3634 634 3220 271 
Q 2806 -91 2034 -91 
Q 1263 -91 848 271 
Q 434 634 434 1313 
Q 434 1759 690 2068 
Q 947 2378 1403 2484 
z
M 1172 3481 
Q 1172 3119 1398 2916 
Q 1625 2713 2034 2713 
Q 2441 2713 2670 2916 
Q 2900 3119 2900 3481 
Q 2900 3844 2670 4047 
Q 2441 4250 2034 4250 
Q 1625 4250 1398 4047 
Q 1172 3844 1172 3481 
z
" transform="scale(0.015625)"/>
       </defs>
       <use xlink:href="#DejaVuSans-30"/>
       <use xlink:href="#DejaVuSans-2e" x="63.623047"/>
       <use xlink:href="#DejaVuSans-38" x="95.410156"/>
      </g>
     </g>
    </g>
    <g id="ytick_6">
     <g id="line2d_47">
      <path d="M 62.208 6.330297 
L 460.8 6.330297 
" clip-path="url(#p585daae43f)" style="fill: none; stroke: #b0b0b0; stroke-width: 0.8; stroke-linecap: square"/>
     </g>
     <g id="line2d_48">
      <g>
       <use xlink:href="#m5a2df8fd66" x="62.208" y="6.330297" style="stroke: #000000; stroke-width: 0.8"/>
      </g>
     </g>
     <g id="text_10">
      <!-- 1.0 -->
      <g transform="translate(29.763 12.409047)scale(0.16 -0.16)">
       <use xlink:href="#DejaVuSans-31"/>
       <use xlink:href="#DejaVuSans-2e" x="63.623047"/>
       <use xlink:href="#DejaVuSans-30" x="95.410156"/>
      </g>
     </g>
    </g>
    <g id="text_11">
     <!-- proportion of trials -->
     <g transform="translate(21.603625 241.61425)rotate(-90)scale(0.2 -0.2)">
      <defs>
       <path id="DejaVuSans-70" d="M 1159 525 
L 1159 -1331 
L 581 -1331 
L 581 3500 
L 1159 3500 
L 1159 2969 
Q 1341 3281 1617 3432 
Q 1894 3584 2278 3584 
Q 2916 3584 3314 3078 
Q 3713 2572 3713 1747 
Q 3713 922 3314 415 
Q 2916 -91 2278 -91 
Q 1894 -91 1617 61 
Q 1341 213 1159 525 
z
M 3116 1747 
Q 3116 2381 2855 2742 
Q 2594 3103 2138 3103 
Q 1681 3103 1420 2742 
Q 1159 2381 1159 1747 
Q 1159 1113 1420 752 
Q 1681 391 2138 391 
Q 2594 391 2855 752 
Q 3116 1113 3116 1747 
z
" transform="scale(0.015625)"/>
       <path id="DejaVuSans-72" d="M 2631 2963 
Q 2534 3019 2420 3045 
Q 2306 3072 2169 3072 
Q 1681 3072 1420 2755 
Q 1159 2438 1159 1844 
L 1159 0 
L 581 0 
L 581 3500 
L 1159 3500 
L 1159 2956 
Q 1341 3275 1631 3429 
Q 1922 3584 2338 3584 
Q 2397 3584 2469 3576 
Q 2541 3569 2628 3553 
L 2631 2963 
z
" transform="scale(0.015625)"/>
       <path id="DejaVuSans-74" d="M 1172 4494 
L 1172 3500 
L 2356 3500 
L 2356 3053 
L 1172 3053 
L 1172 1153 
Q 1172 725 1289 603 
Q 1406 481 1766 481 
L 2356 481 
L 2356 0 
L 1766 0 
Q 1100 0 847 248 
Q 594 497 594 1153 
L 594 3053 
L 172 3053 
L 172 3500 
L 594 3500 
L 594 4494 
L 1172 4494 
z
" transform="scale(0.015625)"/>
       <path id="DejaVuSans-69" d="M 603 3500 
L 1178 3500 
L 1178 0 
L 603 0 
L 603 3500 
z
M 603 4863 
L 1178 4863 
L 1178 4134 
L 603 4134 
L 603 4863 
z
" transform="scale(0.015625)"/>
       <path id="DejaVuSans-6e" d="M 3513 2113 
L 3513 0 
L 2938 0 
L 2938 2094 
Q 2938 2591 2744 2837 
Q 2550 3084 2163 3084 
Q 1697 3084 1428 2787 
Q 1159 2491 1159 1978 
L 1159 0 
L 581 0 
L 581 3500 
L 1159 3500 
L 1159 2956 
Q 1366 3272 1645 3428 
Q 1925 3584 2291 3584 
Q 2894 3584 3203 3211 
Q 3513 2838 3513 2113 
z
" transform="scale(0.015625)"/>
      </defs>
      <use xlink:href="#DejaVuSans-70"/>
      <use xlink:href="#DejaVuSans-72" x="63.476562"/>
      <use xlink:href="#DejaVuSans-6f" x="102.339844"/>
      <use xlink:href="#DejaVuSans-70" x="163.521484"/>
      <use xlink:href="#DejaVuSans-6f" x="226.998047"/>
      <use xlink:href="#DejaVuSans-72" x="288.179688"/>
      <use xlink:href="#DejaVuSans-74" x="329.292969"/>
      <use xlink:href="#DejaVuSans-69" x="368.501953"/>
      <use xlink:href="#DejaVuSans-6f" x="396.285156"/>
      <use xlink:href="#DejaVuSans-6e" x="457.466797"/>
      <use xlink:href="#DejaVuSans-20" x="520.845703"/>
      <use xlink:href="#DejaVuSans-6f" x="552.632812"/>
      <use xlink:href="#DejaVuSans-66" x="613.814453"/>
      <use xlink:href="#DejaVuSans-20" x="649.019531"/>
      <use xlink:href="#DejaVuSans-74" x="680.806641"/>
      <use xlink:href="#DejaVuSans-72" x="720.015625"/>
      <use xlink:href="#DejaVuSans-69" x="761.128906"/>
      <use xlink:href="#DejaVuSans-61" x="788.912109"/>
      <use xlink:href="#DejaVuSans-6c" x="850.191406"/>
      <use xlink:href="#DejaVuSans-73" x="877.974609"/>
     </g>
    </g>
   </g>
   <g id="line2d_49">
    <path d="M -1 232.441663 
L 65.319989 232.441663 
L 65.319989 228.609267 
L 79.533632 228.609267 
L 79.533632 224.776871 
L 83.165278 224.776871 
L 83.165278 220.944475 
L 87.201418 220.944475 
L 87.201418 217.112079 
L 87.952053 217.112079 
L 87.952053 213.279683 
L 90.105657 213.279683 
L 90.105657 209.447287 
L 94.638829 209.447287 
L 94.638829 205.614891 
L 95.23795 205.614891 
L 95.23795 201.782495 
L 106.224161 201.782495 
L 106.224161 197.950099 
L 111.678672 197.950099 
L 111.678672 194.117703 
L 114.098384 194.117703 
L 114.098384 190.285307 
L 130.104193 190.285307 
L 130.104193 186.452911 
L 136.395561 186.452911 
L 136.395561 182.620515 
L 138.827293 182.620515 
L 138.827293 178.788119 
L 145.830766 178.788119 
L 145.830766 174.955723 
L 148.839446 174.955723 
L 148.839446 171.123327 
L 159.940424 171.123327 
L 159.940424 167.290931 
L 162.154911 167.290931 
L 162.154911 163.458535 
L 166.514867 163.458535 
L 166.514867 159.626139 
L 167.503373 159.626139 
L 167.503373 155.793743 
L 167.632941 155.793743 
L 167.632941 151.961347 
L 169.025256 151.961347 
L 169.025256 148.12895 
L 172.041353 148.12895 
L 172.041353 144.296554 
L 173.800764 144.296554 
L 173.800764 140.464158 
L 174.698266 140.464158 
L 174.698266 136.631762 
L 175.974862 136.631762 
L 175.974862 132.799366 
L 176.815286 132.799366 
L 176.815286 128.96697 
L 177.251611 128.96697 
L 177.251611 125.134574 
L 181.490949 125.134574 
L 181.490949 121.302178 
L 197.795675 121.302178 
L 197.795675 117.469782 
L 203.932133 117.469782 
L 203.932133 113.637386 
L 205.691892 113.637386 
L 205.691892 109.80499 
L 213.026126 109.80499 
L 213.026126 105.972594 
L 215.265941 105.972594 
L 215.265941 102.140198 
L 219.47711 102.140198 
L 219.47711 98.307802 
L 220.079354 98.307802 
L 220.079354 94.475406 
L 220.594164 94.475406 
L 220.594164 90.64301 
L 221.969416 90.64301 
L 221.969416 86.810614 
L 222.563862 86.810614 
L 222.563862 82.978218 
L 225.240173 82.978218 
L 225.240173 79.145822 
L 226.425641 79.145822 
L 226.425641 75.313426 
L 232.534929 75.313426 
L 232.534929 71.48103 
L 233.964757 71.48103 
L 233.964757 67.648634 
L 237.183709 67.648634 
L 237.183709 63.816238 
L 238.323653 63.816238 
L 238.323653 59.983842 
L 267.680391 59.983842 
L 267.680391 56.151446 
L 269.897847 56.151446 
L 269.897847 52.31905 
L 271.979531 52.31905 
L 271.979531 48.486653 
L 272.903239 48.486653 
L 272.903239 44.654257 
L 275.784973 44.654257 
L 275.784973 40.821861 
L 291.080753 40.821861 
L 291.080753 36.989465 
L 293.438164 36.989465 
L 293.438164 33.157069 
L 294.456401 33.157069 
L 294.456401 29.324673 
L 296.36093 29.324673 
L 296.36093 25.492277 
L 296.931624 25.492277 
L 296.931624 21.659881 
L 297.568752 21.659881 
L 297.568752 17.827485 
L 299.958232 17.827485 
L 299.958232 13.995089 
L 315.364447 13.995089 
L 315.364447 10.162693 
L 318.524313 10.162693 
L 318.524313 6.330297 
L 318.524313 6.330297 
L 460.8 6.330297 
L 460.8 6.330297 
" clip-path="url(#p585daae43f)" style="fill: none; stroke: #000000; stroke-width: 1.5; stroke-linecap: square"/>
   </g>
   <g id="line2d_50">
    <path clip-path="url(#p585daae43f)" style="fill: none; stroke: #000000; stroke-width: 1.5; stroke-linecap: square"/>
   </g>
   <g id="line2d_51">
    <path d="M 203.309369 293.76 
L 203.309369 289.927604 
L 204.896229 289.927604 
L 204.896229 286.095208 
L 208.564812 286.095208 
L 208.564812 282.262812 
L 209.059397 282.262812 
L 209.059397 278.430416 
L 209.564508 278.430416 
L 209.564508 274.59802 
L 209.689574 274.59802 
L 209.689574 270.765624 
L 213.962481 270.765624 
L 213.962481 266.933228 
L 214.397629 266.933228 
L 214.397629 263.100832 
L 218.086914 263.100832 
L 218.086914 259.268436 
L 219.131732 259.268436 
L 219.131732 255.43604 
L 219.318159 255.43604 
L 219.318159 251.603644 
L 219.77962 251.603644 
L 219.77962 247.771248 
L 222.23765 247.771248 
L 222.23765 243.938851 
L 224.782882 243.938851 
L 224.782882 240.106455 
L 235.245033 240.106455 
L 235.245033 236.274059 
L 274.313115 236.274059 
L 274.313115 232.441663 
L 275.503465 232.441663 
L 275.503465 228.609267 
L 277.514359 228.609267 
L 277.514359 224.776871 
L 278.358938 224.776871 
L 278.358938 220.944475 
L 278.902956 220.944475 
L 278.902956 217.112079 
L 281.484974 217.112079 
L 281.571896 209.447287 
L 281.74505 209.447287 
L 281.74505 205.614891 
L 282.880941 205.614891 
L 282.880941 201.782495 
L 284.239669 201.782495 
L 284.239669 197.950099 
L 284.402889 197.950099 
L 284.402889 194.117703 
L 285.141598 194.117703 
L 285.18225 186.452911 
L 285.421595 186.452911 
L 285.421595 182.620515 
L 286.954394 182.620515 
L 286.954394 178.788119 
L 292.947534 178.788119 
L 292.947534 174.955723 
L 302.215123 174.955723 
L 302.215123 171.123327 
L 304.002104 171.123327 
L 304.002104 167.290931 
L 305.736835 167.290931 
L 305.736835 163.458535 
L 306.574031 163.458535 
L 306.574031 159.626139 
L 310.613285 159.626139 
L 310.613285 155.793743 
L 311.171068 155.793743 
L 311.171068 151.961347 
L 317.427083 151.961347 
L 317.427083 148.12895 
L 325.433706 148.12895 
L 325.433706 144.296554 
L 326.32201 144.296554 
L 326.32201 140.464158 
L 326.549692 140.464158 
L 326.549692 136.631762 
L 328.131799 136.631762 
L 328.131799 132.799366 
L 330.296335 132.799366 
L 330.296335 128.96697 
L 331.385259 128.96697 
L 331.385259 125.134574 
L 336.542592 125.134574 
L 336.542592 121.302178 
L 339.053275 121.302178 
L 339.125797 113.637386 
L 343.346455 113.637386 
L 343.346455 109.80499 
L 351.590217 109.80499 
L 351.590217 105.972594 
L 358.650392 105.972594 
L 358.650392 102.140198 
L 359.628005 102.140198 
L 359.697487 94.475406 
L 359.767002 94.475406 
L 359.800805 86.810614 
L 361.613506 86.810614 
L 361.613506 82.978218 
L 363.326325 82.978218 
L 363.326325 79.145822 
L 364.33589 79.145822 
L 364.33589 75.313426 
L 364.678802 75.313426 
L 364.678802 71.48103 
L 365.891245 71.48103 
L 365.891245 67.648634 
L 366.148523 67.648634 
L 366.148523 63.816238 
L 369.461039 63.816238 
L 369.461039 59.983842 
L 371.2759 59.983842 
L 371.2759 56.151446 
L 375.422204 56.151446 
L 375.422204 52.31905 
L 377.409896 52.31905 
L 377.409896 48.486653 
L 377.762001 48.486653 
L 377.762001 44.654257 
L 378.011008 44.654257 
L 378.011008 40.821861 
L 378.337477 40.821861 
L 378.337477 36.989465 
L 379.029685 36.989465 
L 379.029685 33.157069 
L 381.124306 33.157069 
L 381.124306 29.324673 
L 385.762042 29.324673 
L 385.762042 25.492277 
L 388.666459 25.492277 
L 388.666459 21.659881 
L 395.631198 21.659881 
L 395.631198 17.827485 
L 397.261408 17.827485 
L 397.261408 13.995089 
L 407.578931 13.995089 
L 407.578931 10.162693 
L 412.170695 10.162693 
L 412.170695 6.330297 
L 412.170695 6.330297 
L 460.8 6.330297 
L 460.8 6.330297 
" clip-path="url(#p585daae43f)" style="fill: none; stroke: #00bfbf; stroke-width: 1.5; stroke-linecap: square"/>
   </g>
   <g id="line2d_52">
    <path clip-path="url(#p585daae43f)" style="fill: none; stroke: #00bfbf; stroke-width: 1.5; stroke-linecap: square"/>
   </g>
   <g id="line2d_53">
    <path d="M 283.626708 293.76 
L 283.626708 289.927604 
L 288.193722 289.927604 
L 288.193722 286.095208 
L 292.770206 286.095208 
L 292.770206 282.262812 
L 305.566978 282.262812 
L 305.566978 278.430416 
L 305.952597 278.430416 
L 305.952597 274.59802 
L 306.255067 274.59802 
L 306.255067 270.765624 
L 307.027716 270.765624 
L 307.027716 266.933228 
L 307.196461 266.933228 
L 307.196461 263.100832 
L 307.993109 263.100832 
L 307.993109 259.268436 
L 308.64618 259.268436 
L 308.64618 255.43604 
L 308.917117 255.43604 
L 308.917117 251.603644 
L 309.129037 251.603644 
L 309.129037 247.771248 
L 310.491465 247.771248 
L 310.491465 243.938851 
L 311.495381 243.938851 
L 311.495381 240.106455 
L 314.157267 240.106455 
L 314.157267 236.274059 
L 315.101271 236.274059 
L 315.101271 232.441663 
L 327.07926 232.441663 
L 327.07926 228.609267 
L 327.237981 228.609267 
L 327.241391 220.944475 
L 327.81073 220.944475 
L 327.909196 213.279683 
L 328.989797 213.279683 
L 328.989797 209.447287 
L 330.015649 209.447287 
L 330.015649 205.614891 
L 330.307424 205.614891 
L 330.409706 194.117703 
L 330.56759 194.117703 
L 330.56759 190.285307 
L 330.734784 190.285307 
L 330.734784 186.452911 
L 331.64595 186.452911 
L 331.64595 182.620515 
L 332.368334 182.620515 
L 332.368334 178.788119 
L 332.612232 178.788119 
L 332.612232 174.955723 
L 332.768068 174.955723 
L 332.780815 167.290931 
L 339.256539 167.290931 
L 339.256539 163.458535 
L 341.624432 163.458535 
L 341.624432 159.626139 
L 345.540142 159.626139 
L 345.540142 155.793743 
L 350.947271 155.793743 
L 350.947271 151.961347 
L 351.88537 151.961347 
L 351.88537 148.12895 
L 352.696449 148.12895 
L 352.696449 144.296554 
L 354.014963 144.296554 
L 354.014963 140.464158 
L 354.377679 140.464158 
L 354.377679 136.631762 
L 357.169191 136.631762 
L 357.169191 132.799366 
L 361.871404 132.799366 
L 361.972785 121.302178 
L 362.058091 121.302178 
L 362.058091 117.469782 
L 363.636673 117.469782 
L 363.636673 113.637386 
L 365.457389 113.637386 
L 365.457389 109.80499 
L 371.351182 109.80499 
L 371.351182 105.972594 
L 372.708509 105.972594 
L 372.708509 102.140198 
L 373.811134 102.140198 
L 373.811134 98.307802 
L 377.365222 98.307802 
L 377.365222 94.475406 
L 379.386938 94.475406 
L 379.386938 90.64301 
L 379.582549 90.64301 
L 379.582549 86.810614 
L 379.91773 86.810614 
L 379.960986 79.145822 
L 380.257285 79.145822 
L 380.257285 75.313426 
L 380.750392 75.313426 
L 380.750392 71.48103 
L 393.262059 71.48103 
L 393.262059 67.648634 
L 409.397472 67.648634 
L 409.397472 63.816238 
L 439.986387 63.816238 
L 439.986387 59.983842 
L 441.697511 59.983842 
L 441.744164 52.31905 
L 442.443227 52.31905 
L 442.443227 48.486653 
L 444.549187 48.486653 
L 444.549187 44.654257 
L 445.96623 44.654257 
L 445.96623 40.821861 
L 451.30151 40.821861 
L 451.30151 36.989465 
L 452.825365 36.989465 
L 452.825365 33.157069 
L 457.784703 33.157069 
L 457.784703 29.324673 
L 458.305038 29.324673 
L 458.305038 25.492277 
L 459.581594 25.492277 
L 459.581594 21.659881 
L 459.814167 21.659881 
L 459.814167 17.827485 
L 459.814167 17.827485 
L 460.8 17.827485 
L 460.8 17.827485 
" clip-path="url(#p585daae43f)" style="fill: none; stroke: #bf00bf; stroke-width: 1.5; stroke-linecap: square"/>
   </g>
   <g id="line2d_54">
    <path clip-path="url(#p585daae43f)" style="fill: none; stroke: #bf00bf; stroke-width: 1.5; stroke-linecap: square"/>
   </g>
   <g id="line2d_55">
    <path d="M 308.557381 293.76 
L 308.557381 289.927604 
L 313.805574 289.927604 
L 313.805574 286.095208 
L 314.462731 286.095208 
L 314.462731 282.262812 
L 314.75537 282.262812 
L 314.75537 278.430416 
L 316.147638 278.430416 
L 316.147638 274.59802 
L 329.886976 274.59802 
L 329.886976 270.765624 
L 330.16743 270.765624 
L 330.167875 263.100832 
L 331.550889 263.100832 
L 331.550889 259.268436 
L 332.703845 259.268436 
L 332.703845 255.43604 
L 332.885483 255.43604 
L 332.885483 251.603644 
L 333.099517 251.603644 
L 333.15362 243.938851 
L 333.416751 243.938851 
L 333.416751 240.106455 
L 333.686177 240.106455 
L 333.714956 232.441663 
L 334.78861 232.441663 
L 334.888587 224.776871 
L 335.422247 224.776871 
L 335.480209 209.447287 
L 335.751597 209.447287 
L 335.756101 201.782495 
L 336.06948 201.782495 
L 336.06948 197.950099 
L 336.529033 197.950099 
L 336.529033 194.117703 
L 336.994135 194.117703 
L 336.994135 190.285307 
L 337.427039 190.285307 
L 337.4413 182.620515 
L 338.390801 182.620515 
L 338.390801 178.788119 
L 342.433076 178.788119 
L 342.433076 174.955723 
L 344.612008 174.955723 
L 344.612008 171.123327 
L 348.372727 171.123327 
L 348.372727 167.290931 
L 353.514459 167.290931 
L 353.514459 163.458535 
L 354.63973 163.458535 
L 354.63973 159.626139 
L 356.420051 159.626139 
L 356.420051 155.793743 
L 356.704429 155.793743 
L 356.704429 151.961347 
L 357.581298 151.961347 
L 357.581298 148.12895 
L 357.698231 148.12895 
L 357.698231 144.296554 
L 358.471566 144.296554 
L 358.471566 140.464158 
L 360.964129 140.464158 
L 360.964129 136.631762 
L 362.025204 136.631762 
L 362.025204 132.799366 
L 364.560497 132.799366 
L 364.658676 121.302178 
L 364.687468 121.302178 
L 364.687468 117.469782 
L 366.02697 117.469782 
L 366.02697 113.637386 
L 367.828575 113.637386 
L 367.828575 109.80499 
L 373.727012 109.80499 
L 373.727012 105.972594 
L 374.855191 105.972594 
L 374.855191 102.140198 
L 375.964206 102.140198 
L 375.964206 98.307802 
L 379.662755 98.307802 
L 379.662755 94.475406 
L 381.669865 94.475406 
L 381.702594 86.810614 
L 381.89088 86.810614 
L 381.89088 82.978218 
L 382.313683 82.978218 
L 382.369279 75.313426 
L 382.949827 75.313426 
L 382.949827 71.48103 
L 394.897766 71.48103 
L 394.897766 67.648634 
L 410.715623 67.648634 
L 410.715623 63.816238 
L 440.975883 63.816238 
L 440.975883 59.983842 
L 442.605148 59.983842 
L 442.634504 52.31905 
L 443.244303 52.31905 
L 443.244303 48.486653 
L 445.389847 48.486653 
L 445.389847 44.654257 
L 446.748494 44.654257 
L 446.748494 40.821861 
L 451.996969 40.821861 
L 451.996969 36.989465 
L 453.492634 36.989465 
L 453.492634 33.157069 
L 458.83837 33.157069 
L 458.83837 29.324673 
L 459.421599 29.324673 
L 459.421599 25.492277 
L 460.611754 25.492277 
L 460.611754 21.659881 
L 460.793153 21.659881 
L 460.793153 17.827485 
L 460.8 17.827485 
" clip-path="url(#p585daae43f)" style="fill: none; stroke: #ff0000; stroke-width: 3; stroke-linecap: square"/>
   </g>
   <g id="line2d_56">
    <path clip-path="url(#p585daae43f)" style="fill: none; stroke: #ff0000; stroke-width: 3; stroke-linecap: square"/>
   </g>
   <g id="line2d_57">
    <path d="M 460.796577 293.76 
L 460.796577 3.456 
" clip-path="url(#p585daae43f)" style="fill: none; stroke: #000000; stroke-width: 1.5; stroke-linecap: square"/>
   </g>
   <g id="patch_3">
    <path d="M 62.208 293.76 
L 62.208 3.456 
" style="fill: none; stroke: #000000; stroke-width: 0.8; stroke-linejoin: miter; stroke-linecap: square"/>
   </g>
   <g id="patch_4">
    <path d="M 460.8 293.76 
L 460.8 3.456 
" style="fill: none; stroke: #000000; stroke-width: 0.8; stroke-linejoin: miter; stroke-linecap: square"/>
   </g>
   <g id="patch_5">
    <path d="M 62.208 293.76 
L 460.8 293.76 
" style="fill: none; stroke: #000000; stroke-width: 0.8; stroke-linejoin: miter; stroke-linecap: square"/>
   </g>
   <g id="patch_6">
    <path d="M 62.208 3.456 
L 460.8 3.456 
" style="fill: none; stroke: #000000; stroke-width: 0.8; stroke-linejoin: miter; stroke-linecap: square"/>
   </g>
   <g id="text_12">
    <!-- {f15-f19}, 20-D -->
    <g transform="translate(182.2915 24.458955)scale(0.2 -0.2)">
     <defs>
      <path id="DejaVuSans-7b" d="M 3272 -594 
L 3272 -1044 
L 3078 -1044 
Q 2300 -1044 2036 -812 
Q 1772 -581 1772 109 
L 1772 856 
Q 1772 1328 1603 1509 
Q 1434 1691 991 1691 
L 800 1691 
L 800 2138 
L 991 2138 
Q 1438 2138 1605 2317 
Q 1772 2497 1772 2963 
L 1772 3713 
Q 1772 4403 2036 4633 
Q 2300 4863 3078 4863 
L 3272 4863 
L 3272 4416 
L 3059 4416 
Q 2619 4416 2484 4278 
Q 2350 4141 2350 3700 
L 2350 2925 
Q 2350 2434 2208 2212 
Q 2066 1991 1722 1913 
Q 2069 1828 2209 1606 
Q 2350 1384 2350 897 
L 2350 122 
Q 2350 -319 2484 -456 
Q 2619 -594 3059 -594 
L 3272 -594 
z
" transform="scale(0.015625)"/>
      <path id="DejaVuSans-35" d="M 691 4666 
L 3169 4666 
L 3169 4134 
L 1269 4134 
L 1269 2991 
Q 1406 3038 1543 3061 
Q 1681 3084 1819 3084 
Q 2600 3084 3056 2656 
Q 3513 2228 3513 1497 
Q 3513 744 3044 326 
Q 2575 -91 1722 -91 
Q 1428 -91 1123 -41 
Q 819 9 494 109 
L 494 744 
Q 775 591 1075 516 
Q 1375 441 1709 441 
Q 2250 441 2565 725 
Q 2881 1009 2881 1497 
Q 2881 1984 2565 2268 
Q 2250 2553 1709 2553 
Q 1456 2553 1204 2497 
Q 953 2441 691 2322 
L 691 4666 
z
" transform="scale(0.015625)"/>
      <path id="DejaVuSans-2d" d="M 313 2009 
L 1997 2009 
L 1997 1497 
L 313 1497 
L 313 2009 
z
" transform="scale(0.015625)"/>
      <path id="DejaVuSans-39" d="M 703 97 
L 703 672 
Q 941 559 1184 500 
Q 1428 441 1663 441 
Q 2288 441 2617 861 
Q 2947 1281 2994 2138 
Q 2813 1869 2534 1725 
Q 2256 1581 1919 1581 
Q 1219 1581 811 2004 
Q 403 2428 403 3163 
Q 403 3881 828 4315 
Q 1253 4750 1959 4750 
Q 2769 4750 3195 4129 
Q 3622 3509 3622 2328 
Q 3622 1225 3098 567 
Q 2575 -91 1691 -91 
Q 1453 -91 1209 -44 
Q 966 3 703 97 
z
M 1959 2075 
Q 2384 2075 2632 2365 
Q 2881 2656 2881 3163 
Q 2881 3666 2632 3958 
Q 2384 4250 1959 4250 
Q 1534 4250 1286 3958 
Q 1038 3666 1038 3163 
Q 1038 2656 1286 2365 
Q 1534 2075 1959 2075 
z
" transform="scale(0.015625)"/>
      <path id="DejaVuSans-7d" d="M 800 -594 
L 1019 -594 
Q 1456 -594 1589 -459 
Q 1722 -325 1722 122 
L 1722 897 
Q 1722 1384 1862 1606 
Q 2003 1828 2350 1913 
Q 2003 1991 1862 2212 
Q 1722 2434 1722 2925 
L 1722 3700 
Q 1722 4144 1589 4280 
Q 1456 4416 1019 4416 
L 800 4416 
L 800 4863 
L 997 4863 
Q 1775 4863 2036 4633 
Q 2297 4403 2297 3713 
L 2297 2963 
Q 2297 2497 2465 2317 
Q 2634 2138 3078 2138 
L 3272 2138 
L 3272 1691 
L 3078 1691 
Q 2634 1691 2465 1509 
Q 2297 1328 2297 856 
L 2297 109 
Q 2297 -581 2036 -812 
Q 1775 -1044 997 -1044 
L 800 -1044 
L 800 -594 
z
" transform="scale(0.015625)"/>
      <path id="DejaVuSans-2c" d="M 750 794 
L 1409 794 
L 1409 256 
L 897 -744 
L 494 -744 
L 750 256 
L 750 794 
z
" transform="scale(0.015625)"/>
     </defs>
     <use xlink:href="#DejaVuSans-7b"/>
     <use xlink:href="#DejaVuSans-66" x="63.623047"/>
     <use xlink:href="#DejaVuSans-31" x="98.828125"/>
     <use xlink:href="#DejaVuSans-35" x="162.451172"/>
     <use xlink:href="#DejaVuSans-2d" x="226.074219"/>
     <use xlink:href="#DejaVuSans-66" x="262.158203"/>
     <use xlink:href="#DejaVuSans-31" x="297.363281"/>
     <use xlink:href="#DejaVuSans-39" x="360.986328"/>
     <use xlink:href="#DejaVuSans-7d" x="424.609375"/>
     <use xlink:href="#DejaVuSans-2c" x="488.232422"/>
     <use xlink:href="#DejaVuSans-20" x="520.019531"/>
     <use xlink:href="#DejaVuSans-32" x="551.806641"/>
     <use xlink:href="#DejaVuSans-30" x="615.429688"/>
     <use xlink:href="#DejaVuSans-2d" x="679.052734"/>
     <use xlink:href="#DejaVuSans-44" x="715.136719"/>
    </g>
   </g>
   <g id="text_13">
    <!-- absolute targets -->
    <g transform="translate(62.208 609.932673)scale(0.14 -0.14)">
     <defs>
      <path id="DejaVuSans-62" d="M 3116 1747 
Q 3116 2381 2855 2742 
Q 2594 3103 2138 3103 
Q 1681 3103 1420 2742 
Q 1159 2381 1159 1747 
Q 1159 1113 1420 752 
Q 1681 391 2138 391 
Q 2594 391 2855 752 
Q 3116 1113 3116 1747 
z
M 1159 2969 
Q 1341 3281 1617 3432 
Q 1894 3584 2278 3584 
Q 2916 3584 3314 3078 
Q 3713 2572 3713 1747 
Q 3713 922 3314 415 
Q 2916 -91 2278 -91 
Q 1894 -91 1617 61 
Q 1341 213 1159 525 
L 1159 0 
L 581 0 
L 581 4863 
L 1159 4863 
L 1159 2969 
z
" transform="scale(0.015625)"/>
      <path id="DejaVuSans-75" d="M 544 1381 
L 544 3500 
L 1119 3500 
L 1119 1403 
Q 1119 906 1312 657 
Q 1506 409 1894 409 
Q 2359 409 2629 706 
Q 2900 1003 2900 1516 
L 2900 3500 
L 3475 3500 
L 3475 0 
L 2900 0 
L 2900 538 
Q 2691 219 2414 64 
Q 2138 -91 1772 -91 
Q 1169 -91 856 284 
Q 544 659 544 1381 
z
M 1991 3584 
L 1991 3584 
z
" transform="scale(0.015625)"/>
      <path id="DejaVuSans-65" d="M 3597 1894 
L 3597 1613 
L 953 1613 
Q 991 1019 1311 708 
Q 1631 397 2203 397 
Q 2534 397 2845 478 
Q 3156 559 3463 722 
L 3463 178 
Q 3153 47 2828 -22 
Q 2503 -91 2169 -91 
Q 1331 -91 842 396 
Q 353 884 353 1716 
Q 353 2575 817 3079 
Q 1281 3584 2069 3584 
Q 2775 3584 3186 3129 
Q 3597 2675 3597 1894 
z
M 3022 2063 
Q 3016 2534 2758 2815 
Q 2500 3097 2075 3097 
Q 1594 3097 1305 2825 
Q 1016 2553 972 2059 
L 3022 2063 
z
" transform="scale(0.015625)"/>
     </defs>
     <use xlink:href="#DejaVuSans-61"/>
     <use xlink:href="#DejaVuSans-62" x="61.279297"/>
     <use xlink:href="#DejaVuSans-73" x="124.755859"/>
     <use xlink:href="#DejaVuSans-6f" x="176.855469"/>
     <use xlink:href="#DejaVuSans-6c" x="238.037109"/>
     <use xlink:href="#DejaVuSans-75" x="265.820312"/>
     <use xlink:href="#DejaVuSans-74" x="329.199219"/>
     <use xlink:href="#DejaVuSans-65" x="368.408203"/>
     <use xlink:href="#DejaVuSans-20" x="429.931641"/>
     <use xlink:href="#DejaVuSans-74" x="461.71875"/>
     <use xlink:href="#DejaVuSans-61" x="500.927734"/>
     <use xlink:href="#DejaVuSans-72" x="562.207031"/>
     <use xlink:href="#DejaVuSans-67" x="601.570312"/>
     <use xlink:href="#DejaVuSans-65" x="665.046875"/>
     <use xlink:href="#DejaVuSans-74" x="726.570312"/>
     <use xlink:href="#DejaVuSans-73" x="765.779297"/>
    </g>
   </g>
   <g id="text_14">
    <!-- v2.6.3 -->
    <g style="fill: #808080" transform="translate(245.82275 288.777272)scale(0.1 -0.1)">
     <defs>
      <path id="DejaVuSans-33" d="M 2597 2516 
Q 3050 2419 3304 2112 
Q 3559 1806 3559 1356 
Q 3559 666 3084 287 
Q 2609 -91 1734 -91 
Q 1441 -91 1130 -33 
Q 819 25 488 141 
L 488 750 
Q 750 597 1062 519 
Q 1375 441 1716 441 
Q 2309 441 2620 675 
Q 2931 909 2931 1356 
Q 2931 1769 2642 2001 
Q 2353 2234 1838 2234 
L 1294 2234 
L 1294 2753 
L 1863 2753 
Q 2328 2753 2575 2939 
Q 2822 3125 2822 3475 
Q 2822 3834 2567 4026 
Q 2313 4219 1838 4219 
Q 1578 4219 1281 4162 
Q 984 4106 628 3988 
L 628 4550 
Q 988 4650 1302 4700 
Q 1616 4750 1894 4750 
Q 2613 4750 3031 4423 
Q 3450 4097 3450 3541 
Q 3450 3153 3228 2886 
Q 3006 2619 2597 2516 
z
" transform="scale(0.015625)"/>
     </defs>
     <use xlink:href="#DejaVuSans-76"/>
     <use xlink:href="#DejaVuSans-32" x="59.179688"/>
     <use xlink:href="#DejaVuSans-2e" x="122.802734"/>
     <use xlink:href="#DejaVuSans-36" x="154.589844"/>
     <use xlink:href="#DejaVuSans-2e" x="218.212891"/>
     <use xlink:href="#DejaVuSans-33" x="250"/>
    </g>
   </g>
   <g id="legend_1">
    <g id="patch_7">
     <path d="M 76.208 136.881 
L 205.429875 136.881 
Q 209.429875 136.881 209.429875 132.881 
L 209.429875 17.456 
Q 209.429875 13.456 205.429875 13.456 
L 76.208 13.456 
Q 72.208 13.456 72.208 17.456 
L 72.208 132.881 
Q 72.208 136.881 76.208 136.881 
z
" style="fill: #ffffff; opacity: 0.2; stroke: #cccccc; stroke-linejoin: miter"/>
    </g>
    <g id="line2d_58">
     <path d="M 80.208 29.652875 
L 80.208 29.652875 
L 100.208 29.652875 
L 100.208 29.652875 
L 120.208 29.652875 
" style="fill: none; stroke: #000000; stroke-width: 1.5; stroke-linecap: square"/>
    </g>
    <g id="text_15">
     <!-- 1: 5/5 -->
     <g transform="translate(136.208 36.652875)scale(0.2 -0.2)">
      <defs>
       <path id="DejaVuSans-3a" d="M 750 794 
L 1409 794 
L 1409 0 
L 750 0 
L 750 794 
z
M 750 3309 
L 1409 3309 
L 1409 2516 
L 750 2516 
L 750 3309 
z
" transform="scale(0.015625)"/>
      </defs>
      <use xlink:href="#DejaVuSans-31"/>
      <use xlink:href="#DejaVuSans-3a" x="63.623047"/>
      <use xlink:href="#DejaVuSans-20" x="97.314453"/>
      <use xlink:href="#DejaVuSans-35" x="129.101562"/>
      <use xlink:href="#DejaVuSans-2f" x="192.724609"/>
      <use xlink:href="#DejaVuSans-35" x="226.416016"/>
     </g>
    </g>
    <g id="line2d_59">
     <path d="M 80.208 59.009125 
L 80.208 59.009125 
L 100.208 59.009125 
L 100.208 59.009125 
L 120.208 59.009125 
" style="fill: none; stroke: #00bfbf; stroke-width: 1.5; stroke-linecap: square"/>
    </g>
    <g id="text_16">
     <!-- -1: 5/5 -->
     <g transform="translate(136.208 66.009125)scale(0.2 -0.2)">
      <use xlink:href="#DejaVuSans-2d"/>
      <use xlink:href="#DejaVuSans-31" x="36.083984"/>
      <use xlink:href="#DejaVuSans-3a" x="99.707031"/>
      <use xlink:href="#DejaVuSans-20" x="133.398438"/>
      <use xlink:href="#DejaVuSans-35" x="165.185547"/>
      <use xlink:href="#DejaVuSans-2f" x="228.808594"/>
      <use xlink:href="#DejaVuSans-35" x="262.5"/>
     </g>
    </g>
    <g id="line2d_60">
     <path d="M 80.208 88.365375 
L 80.208 88.365375 
L 100.208 88.365375 
L 100.208 88.365375 
L 120.208 88.365375 
" style="fill: none; stroke: #bf00bf; stroke-width: 1.5; stroke-linecap: square"/>
    </g>
    <g id="text_17">
     <!-- -4: 5/5 -->
     <g transform="translate(136.208 95.365375)scale(0.2 -0.2)">
      <use xlink:href="#DejaVuSans-2d"/>
      <use xlink:href="#DejaVuSans-34" x="36.083984"/>
      <use xlink:href="#DejaVuSans-3a" x="99.707031"/>
      <use xlink:href="#DejaVuSans-20" x="133.398438"/>
      <use xlink:href="#DejaVuSans-35" x="165.185547"/>
      <use xlink:href="#DejaVuSans-2f" x="228.808594"/>
      <use xlink:href="#DejaVuSans-35" x="262.5"/>
     </g>
    </g>
    <g id="line2d_61">
     <path d="M 80.208 117.721625 
L 80.208 117.721625 
L 100.208 117.721625 
L 100.208 117.721625 
L 120.208 117.721625 
" style="fill: none; stroke: #ff0000; stroke-width: 3; stroke-linecap: square"/>
    </g>
    <g id="text_18">
     <!-- -8: 5/5 -->
     <g transform="translate(136.208 124.721625)scale(0.2 -0.2)">
      <use xlink:href="#DejaVuSans-2d"/>
      <use xlink:href="#DejaVuSans-38" x="36.083984"/>
      <use xlink:href="#DejaVuSans-3a" x="99.707031"/>
      <use xlink:href="#DejaVuSans-20" x="133.398438"/>
      <use xlink:href="#DejaVuSans-35" x="165.185547"/>
      <use xlink:href="#DejaVuSans-2f" x="228.808594"/>
      <use xlink:href="#DejaVuSans-35" x="262.5"/>
     </g>
    </g>
   </g>
  </g>
 </g>
 <defs>
  <clipPath id="p585daae43f">
   <rect x="62.208" y="3.456" width="398.592" height="290.304"/>
  </clipPath>
 </defs>
</svg>
