<?xml version="1.0" encoding="utf-8" standalone="no"?>
<!DOCTYPE svg PUBLIC "-//W3C//DTD SVG 1.1//EN"
  "http://www.w3.org/Graphics/SVG/1.1/DTD/svg11.dtd">
<svg xmlns:xlink="http://www.w3.org/1999/xlink" width="460.8pt" height="345.6pt" viewBox="0 0 460.8 345.6" xmlns="http://www.w3.org/2000/svg" version="1.1">
 <metadata>
  <rdf:RDF xmlns:dc="http://purl.org/dc/elements/1.1/" xmlns:cc="http://creativecommons.org/ns#" xmlns:rdf="http://www.w3.org/1999/02/22-rdf-syntax-ns#">
   <cc:Work>
    <dc:type rdf:resource="http://purl.org/dc/dcmitype/StillImage"/>
    <dc:date>2023-04-07T14:47:11.772674</dc:date>
    <dc:format>image/svg+xml</dc:format>
    <dc:creator>
     <cc:Agent>
      <dc:title>Matplotlib v3.5.2, https://matplotlib.org/</dc:title>
     </cc:Agent>
    </dc:creator>
   </cc:Work>
  </rdf:RDF>
 </metadata>
 <defs>
  <style type="text/css">*{stroke-linejoin: round; stroke-linecap: butt}</style>
 </defs>
 <g id="figure_1">
  <g id="patch_1">
   <path d="M 0 345.6 
L 460.8 345.6 
L 460.8 0 
L 0 0 
z
" style="fill: #ffffff"/>
  </g>
  <g id="axes_1">
   <g id="patch_2">
    <path d="M 0 293.76 
L 460.8 293.76 
L 460.8 3.456 
L 0 3.456 
z
" style="fill: #ffffff"/>
   </g>
   <g id="matplotlib.axis_1">
    <g id="xtick_1">
     <g id="line2d_1">
      <path d="M 105.70709 293.76 
L 105.70709 3.456 
" clip-path="url(#p09ddf358c2)" style="fill: none; stroke: #b0b0b0; stroke-width: 0.8; stroke-linecap: square"/>
     </g>
     <g id="line2d_2">
      <defs>
       <path id="m8eb957a030" d="M 0 0 
L 0 3.5 
" style="stroke: #000000; stroke-width: 0.8"/>
      </defs>
      <g>
       <use xlink:href="#m8eb957a030" x="105.70709" y="293.76" style="stroke: #000000; stroke-width: 0.8"/>
      </g>
     </g>
     <g id="text_1">
      <!-- -4 -->
      <g transform="translate(95.736778 315.956875)scale(0.2 -0.2)">
       <defs>
        <path id="DejaVuSans-2d" d="M 313 2009 
L 1997 2009 
L 1997 1497 
L 313 1497 
L 313 2009 
z
" transform="scale(0.015625)"/>
        <path id="DejaVuSans-34" d="M 2419 4116 
L 825 1625 
L 2419 1625 
L 2419 4116 
z
M 2253 4666 
L 3047 4666 
L 3047 1625 
L 3713 1625 
L 3713 1100 
L 3047 1100 
L 3047 0 
L 2419 0 
L 2419 1100 
L 313 1100 
L 313 1709 
L 2253 4666 
z
" transform="scale(0.015625)"/>
       </defs>
       <use xlink:href="#DejaVuSans-2d"/>
       <use xlink:href="#DejaVuSans-34" x="36.083984"/>
      </g>
     </g>
    </g>
    <g id="xtick_2">
     <g id="line2d_3">
      <path d="M 211.528504 293.76 
L 211.528504 3.456 
" clip-path="url(#p09ddf358c2)" style="fill: none; stroke: #b0b0b0; stroke-width: 0.8; stroke-linecap: square"/>
     </g>
     <g id="line2d_4">
      <g>
       <use xlink:href="#m8eb957a030" x="211.528504" y="293.76" style="stroke: #000000; stroke-width: 0.8"/>
      </g>
     </g>
     <g id="text_2">
      <!-- 0 -->
      <g transform="translate(205.166004 315.956875)scale(0.2 -0.2)">
       <defs>
        <path id="DejaVuSans-30" d="M 2034 4250 
Q 1547 4250 1301 3770 
Q 1056 3291 1056 2328 
Q 1056 1369 1301 889 
Q 1547 409 2034 409 
Q 2525 409 2770 889 
Q 3016 1369 3016 2328 
Q 3016 3291 2770 3770 
Q 2525 4250 2034 4250 
z
M 2034 4750 
Q 2819 4750 3233 4129 
Q 3647 3509 3647 2328 
Q 3647 1150 3233 529 
Q 2819 -91 2034 -91 
Q 1250 -91 836 529 
Q 422 1150 422 2328 
Q 422 3509 836 4129 
Q 1250 4750 2034 4750 
z
" transform="scale(0.015625)"/>
       </defs>
       <use xlink:href="#DejaVuSans-30"/>
      </g>
     </g>
    </g>
    <g id="xtick_3">
     <g id="line2d_5">
      <path d="M 317.349917 293.76 
L 317.349917 3.456 
" clip-path="url(#p09ddf358c2)" style="fill: none; stroke: #b0b0b0; stroke-width: 0.8; stroke-linecap: square"/>
     </g>
     <g id="line2d_6">
      <g>
       <use xlink:href="#m8eb957a030" x="317.349917" y="293.76" style="stroke: #000000; stroke-width: 0.8"/>
      </g>
     </g>
     <g id="text_3">
      <!-- 4 -->
      <g transform="translate(310.987417 315.956875)scale(0.2 -0.2)">
       <use xlink:href="#DejaVuSans-34"/>
      </g>
     </g>
    </g>
    <g id="xtick_4">
     <g id="line2d_7">
      <path d="M 423.171331 293.76 
L 423.171331 3.456 
" clip-path="url(#p09ddf358c2)" style="fill: none; stroke: #b0b0b0; stroke-width: 0.8; stroke-linecap: square"/>
     </g>
     <g id="line2d_8">
      <g>
       <use xlink:href="#m8eb957a030" x="423.171331" y="293.76" style="stroke: #000000; stroke-width: 0.8"/>
      </g>
     </g>
     <g id="text_4">
      <!-- 8 -->
      <g transform="translate(416.808831 315.956875)scale(0.2 -0.2)">
       <defs>
        <path id="DejaVuSans-38" d="M 2034 2216 
Q 1584 2216 1326 1975 
Q 1069 1734 1069 1313 
Q 1069 891 1326 650 
Q 1584 409 2034 409 
Q 2484 409 2743 651 
Q 3003 894 3003 1313 
Q 3003 1734 2745 1975 
Q 2488 2216 2034 2216 
z
M 1403 2484 
Q 997 2584 770 2862 
Q 544 3141 544 3541 
Q 544 4100 942 4425 
Q 1341 4750 2034 4750 
Q 2731 4750 3128 4425 
Q 3525 4100 3525 3541 
Q 3525 3141 3298 2862 
Q 3072 2584 2669 2484 
Q 3125 2378 3379 2068 
Q 3634 1759 3634 1313 
Q 3634 634 3220 271 
Q 2806 -91 2034 -91 
Q 1263 -91 848 271 
Q 434 634 434 1313 
Q 434 1759 690 2068 
Q 947 2378 1403 2484 
z
M 1172 3481 
Q 1172 3119 1398 2916 
Q 1625 2713 2034 2713 
Q 2441 2713 2670 2916 
Q 2900 3119 2900 3481 
Q 2900 3844 2670 4047 
Q 2441 4250 2034 4250 
Q 1625 4250 1398 4047 
Q 1172 3844 1172 3481 
z
" transform="scale(0.015625)"/>
       </defs>
       <use xlink:href="#DejaVuSans-38"/>
      </g>
     </g>
    </g>
    <g id="text_5">
     <!-- log10 of Df -->
     <g transform="translate(175.214063 339.313125)scale(0.2 -0.2)">
      <defs>
       <path id="DejaVuSans-6c" d="M 603 4863 
L 1178 4863 
L 1178 0 
L 603 0 
L 603 4863 
z
" transform="scale(0.015625)"/>
       <path id="DejaVuSans-6f" d="M 1959 3097 
Q 1497 3097 1228 2736 
Q 959 2375 959 1747 
Q 959 1119 1226 758 
Q 1494 397 1959 397 
Q 2419 397 2687 759 
Q 2956 1122 2956 1747 
Q 2956 2369 2687 2733 
Q 2419 3097 1959 3097 
z
M 1959 3584 
Q 2709 3584 3137 3096 
Q 3566 2609 3566 1747 
Q 3566 888 3137 398 
Q 2709 -91 1959 -91 
Q 1206 -91 779 398 
Q 353 888 353 1747 
Q 353 2609 779 3096 
Q 1206 3584 1959 3584 
z
" transform="scale(0.015625)"/>
       <path id="DejaVuSans-67" d="M 2906 1791 
Q 2906 2416 2648 2759 
Q 2391 3103 1925 3103 
Q 1463 3103 1205 2759 
Q 947 2416 947 1791 
Q 947 1169 1205 825 
Q 1463 481 1925 481 
Q 2391 481 2648 825 
Q 2906 1169 2906 1791 
z
M 3481 434 
Q 3481 -459 3084 -895 
Q 2688 -1331 1869 -1331 
Q 1566 -1331 1297 -1286 
Q 1028 -1241 775 -1147 
L 775 -588 
Q 1028 -725 1275 -790 
Q 1522 -856 1778 -856 
Q 2344 -856 2625 -561 
Q 2906 -266 2906 331 
L 2906 616 
Q 2728 306 2450 153 
Q 2172 0 1784 0 
Q 1141 0 747 490 
Q 353 981 353 1791 
Q 353 2603 747 3093 
Q 1141 3584 1784 3584 
Q 2172 3584 2450 3431 
Q 2728 3278 2906 2969 
L 2906 3500 
L 3481 3500 
L 3481 434 
z
" transform="scale(0.015625)"/>
       <path id="DejaVuSans-31" d="M 794 531 
L 1825 531 
L 1825 4091 
L 703 3866 
L 703 4441 
L 1819 4666 
L 2450 4666 
L 2450 531 
L 3481 531 
L 3481 0 
L 794 0 
L 794 531 
z
" transform="scale(0.015625)"/>
       <path id="DejaVuSans-20" transform="scale(0.015625)"/>
       <path id="DejaVuSans-66" d="M 2375 4863 
L 2375 4384 
L 1825 4384 
Q 1516 4384 1395 4259 
Q 1275 4134 1275 3809 
L 1275 3500 
L 2222 3500 
L 2222 3053 
L 1275 3053 
L 1275 0 
L 697 0 
L 697 3053 
L 147 3053 
L 147 3500 
L 697 3500 
L 697 3744 
Q 697 4328 969 4595 
Q 1241 4863 1831 4863 
L 2375 4863 
z
" transform="scale(0.015625)"/>
       <path id="DejaVuSans-44" d="M 1259 4147 
L 1259 519 
L 2022 519 
Q 2988 519 3436 956 
Q 3884 1394 3884 2338 
Q 3884 3275 3436 3711 
Q 2988 4147 2022 4147 
L 1259 4147 
z
M 628 4666 
L 1925 4666 
Q 3281 4666 3915 4102 
Q 4550 3538 4550 2338 
Q 4550 1131 3912 565 
Q 3275 0 1925 0 
L 628 0 
L 628 4666 
z
" transform="scale(0.015625)"/>
      </defs>
      <use xlink:href="#DejaVuSans-6c"/>
      <use xlink:href="#DejaVuSans-6f" x="27.783203"/>
      <use xlink:href="#DejaVuSans-67" x="88.964844"/>
      <use xlink:href="#DejaVuSans-31" x="152.441406"/>
      <use xlink:href="#DejaVuSans-30" x="216.064453"/>
      <use xlink:href="#DejaVuSans-20" x="279.6875"/>
      <use xlink:href="#DejaVuSans-6f" x="311.474609"/>
      <use xlink:href="#DejaVuSans-66" x="372.65625"/>
      <use xlink:href="#DejaVuSans-20" x="407.861328"/>
      <use xlink:href="#DejaVuSans-44" x="439.648438"/>
      <use xlink:href="#DejaVuSans-66" x="516.650391"/>
     </g>
    </g>
   </g>
   <g id="matplotlib.axis_2">
    <g id="ytick_1">
     <g id="line2d_9">
      <path d="M 0 293.76 
L 460.8 293.76 
" clip-path="url(#p09ddf358c2)" style="fill: none; stroke: #b0b0b0; stroke-width: 0.8; stroke-linecap: square"/>
     </g>
     <g id="line2d_10">
      <defs>
       <path id="mac59b25fb7" d="M 0 0 
L -3.5 0 
" style="stroke: #000000; stroke-width: 0.8"/>
      </defs>
      <g>
       <use xlink:href="#mac59b25fb7" x="0" y="293.76" style="stroke: #000000; stroke-width: 0.8"/>
      </g>
     </g>
    </g>
    <g id="ytick_2">
     <g id="line2d_11">
      <path d="M 0 236.274059 
L 460.8 236.274059 
" clip-path="url(#p09ddf358c2)" style="fill: none; stroke: #b0b0b0; stroke-width: 0.8; stroke-linecap: square"/>
     </g>
     <g id="line2d_12">
      <g>
       <use xlink:href="#mac59b25fb7" x="0" y="236.274059" style="stroke: #000000; stroke-width: 0.8"/>
      </g>
     </g>
    </g>
    <g id="ytick_3">
     <g id="line2d_13">
      <path d="M 0 178.788119 
L 460.8 178.788119 
" clip-path="url(#p09ddf358c2)" style="fill: none; stroke: #b0b0b0; stroke-width: 0.8; stroke-linecap: square"/>
     </g>
     <g id="line2d_14">
      <g>
       <use xlink:href="#mac59b25fb7" x="0" y="178.788119" style="stroke: #000000; stroke-width: 0.8"/>
      </g>
     </g>
    </g>
    <g id="ytick_4">
     <g id="line2d_15">
      <path d="M 0 121.302178 
L 460.8 121.302178 
" clip-path="url(#p09ddf358c2)" style="fill: none; stroke: #b0b0b0; stroke-width: 0.8; stroke-linecap: square"/>
     </g>
     <g id="line2d_16">
      <g>
       <use xlink:href="#mac59b25fb7" x="0" y="121.302178" style="stroke: #000000; stroke-width: 0.8"/>
      </g>
     </g>
    </g>
    <g id="ytick_5">
     <g id="line2d_17">
      <path d="M 0 63.816238 
L 460.8 63.816238 
" clip-path="url(#p09ddf358c2)" style="fill: none; stroke: #b0b0b0; stroke-width: 0.8; stroke-linecap: square"/>
     </g>
     <g id="line2d_18">
      <g>
       <use xlink:href="#mac59b25fb7" x="0" y="63.816238" style="stroke: #000000; stroke-width: 0.8"/>
      </g>
     </g>
    </g>
    <g id="ytick_6">
     <g id="line2d_19">
      <path d="M 0 6.330297 
L 460.8 6.330297 
" clip-path="url(#p09ddf358c2)" style="fill: none; stroke: #b0b0b0; stroke-width: 0.8; stroke-linecap: square"/>
     </g>
     <g id="line2d_20">
      <g>
       <use xlink:href="#mac59b25fb7" x="0" y="6.330297" style="stroke: #000000; stroke-width: 0.8"/>
      </g>
     </g>
    </g>
   </g>
   <g id="line2d_21">
    <path d="M -1 259.268436 
L 163.803602 259.268436 
L 163.803602 253.519842 
L 178.063495 253.519842 
L 178.063495 247.771248 
L 179.05356 247.771248 
L 179.05356 242.022653 
L 179.05356 242.022653 
L 179.05356 236.274059 
L 179.05356 236.274059 
L 179.05356 230.525465 
L 179.05356 230.525465 
L 179.05356 224.776871 
L 179.05356 224.776871 
L 179.05356 219.028277 
L 181.512209 219.028277 
L 181.512209 213.279683 
L 186.449102 213.279683 
L 186.449102 207.531089 
L 187.017415 207.531089 
L 187.017415 201.782495 
L 190.405087 201.782495 
L 190.405087 196.033901 
L 191.675971 196.033901 
L 191.675971 190.285307 
L 191.675971 190.285307 
L 191.675971 184.536713 
L 203.036474 184.536713 
L 203.036474 178.788119 
L 203.236905 178.788119 
L 203.236905 173.039525 
L 207.296078 173.039525 
L 207.296078 167.290931 
L 207.296078 167.290931 
L 207.296078 161.542337 
L 207.296078 161.542337 
L 207.296078 155.793743 
L 207.296078 155.793743 
L 207.296078 150.045149 
L 207.296078 150.045149 
L 207.296078 144.296554 
L 207.296078 144.296554 
L 207.296078 138.54796 
L 207.296078 138.54796 
L 207.296078 132.799366 
L 213.18014 132.799366 
L 213.18014 127.050772 
L 215.321539 127.050772 
L 215.321539 121.302178 
L 215.437005 121.302178 
L 215.437005 115.553584 
L 216.659829 115.553584 
L 216.659829 109.80499 
L 218.301085 109.80499 
L 218.301085 104.056396 
L 219.129011 104.056396 
L 219.129011 98.307802 
L 219.488824 98.307802 
L 219.488824 92.559208 
L 220.4857 92.559208 
L 220.4857 86.810614 
L 222.464924 86.810614 
L 222.464924 81.06202 
L 222.464924 81.06202 
L 222.464924 75.313426 
L 222.464924 75.313426 
L 222.464924 69.564832 
L 230.108709 69.564832 
L 230.108709 63.816238 
L 230.163268 63.816238 
L 230.163268 58.067644 
L 230.163268 58.067644 
L 230.163268 52.31905 
L 234.713845 52.31905 
L 234.713845 46.570455 
L 235.074831 46.570455 
L 235.074831 40.821861 
L 242.606864 40.821861 
L 242.606864 35.073267 
L 243.992522 35.073267 
L 243.992522 29.324673 
L 244.090094 29.324673 
L 244.090094 23.576079 
L 246.118552 23.576079 
L 246.118552 17.827485 
L 246.211861 17.827485 
L 246.211861 12.078891 
L 246.257684 12.078891 
L 246.257684 6.330297 
L 246.257684 6.330297 
L 246.257684 6.330297 
L 460.8 6.330297 
" clip-path="url(#p09ddf358c2)" style="fill: none; stroke: #ff0000; stroke-width: 3; stroke-linecap: square"/>
   </g>
   <g id="line2d_22">
    <path d="M 223.901556 293.76 
L 223.901556 288.011406 
L 233.242441 288.011406 
L 233.242441 282.262812 
L 234.922568 282.262812 
L 234.922568 276.514218 
L 235.538077 276.514218 
L 235.538077 270.765624 
L 236.490238 270.765624 
L 236.490238 265.01703 
L 238.034033 265.01703 
L 238.034033 259.268436 
L 238.199163 259.268436 
L 238.199163 253.519842 
L 238.943672 253.519842 
L 238.943672 247.771248 
L 239.228547 247.771248 
L 239.228547 242.022653 
L 242.198239 242.022653 
L 242.198239 236.274059 
L 257.216306 236.274059 
L 257.216306 230.525465 
L 260.167014 230.525465 
L 260.167014 224.776871 
L 260.628035 224.776871 
L 260.628035 219.028277 
L 260.755648 219.028277 
L 260.755648 213.279683 
L 260.88629 213.279683 
L 260.88629 207.531089 
L 261.209148 207.531089 
L 261.209148 201.782495 
L 261.319469 201.782495 
L 261.319469 196.033901 
L 261.419229 196.033901 
L 261.419229 190.285307 
L 261.514199 190.285307 
L 261.514199 184.536713 
L 261.536556 184.536713 
L 261.536556 178.788119 
L 261.613004 178.788119 
L 261.613004 173.039525 
L 261.780166 173.039525 
L 261.780166 167.290931 
L 261.865067 167.290931 
L 261.865067 161.542337 
L 261.959492 161.542337 
L 261.959492 155.793743 
L 262.149153 155.793743 
L 262.149153 150.045149 
L 262.164776 150.045149 
L 262.164776 144.296554 
L 262.20523 144.296554 
L 262.20523 138.54796 
L 262.234053 138.54796 
L 262.234053 132.799366 
L 262.252271 132.799366 
L 262.252271 127.050772 
L 262.301215 127.050772 
L 262.301215 121.302178 
L 277.031522 121.302178 
L 277.031522 115.553584 
L 277.462359 115.553584 
L 277.462359 109.80499 
L 277.604251 109.80499 
L 277.604251 104.056396 
L 277.690109 104.056396 
L 277.690109 98.307802 
L 277.813922 98.307802 
L 277.813922 92.559208 
L 277.930073 92.559208 
L 277.930073 86.810614 
L 278.18253 86.810614 
L 278.18253 81.06202 
L 278.770252 81.06202 
L 278.770252 75.313426 
L 278.879148 75.313426 
L 278.879148 69.564832 
L 279.553113 69.564832 
L 279.553113 63.816238 
L 292.49879 63.816238 
L 292.49879 58.067644 
L 324.305463 58.067644 
L 324.305463 52.31905 
L 324.305463 52.31905 
L 324.305463 46.570455 
L 324.305463 46.570455 
L 324.305463 40.821861 
L 324.305463 40.821861 
L 324.305463 35.073267 
L 324.305463 35.073267 
L 324.305463 29.324673 
L 324.305463 29.324673 
L 324.305463 23.576079 
L 324.305463 23.576079 
L 324.305463 17.827485 
L 324.305463 17.827485 
L 324.305463 12.078891 
L 324.305463 12.078891 
L 324.305463 6.330297 
L 324.305463 6.330297 
L 324.305463 6.330297 
L 460.8 6.330297 
" clip-path="url(#p09ddf358c2)" style="fill: none; stroke: #00bfbf; stroke-width: 1.5; stroke-linecap: square"/>
   </g>
   <g id="line2d_23">
    <path d="M 223.901556 293.76 
L 223.901556 288.011406 
L 233.242441 288.011406 
L 233.242441 282.262812 
L 233.292349 282.262812 
L 233.292349 276.514218 
L 234.078205 276.514218 
L 234.078205 270.765624 
L 234.922568 270.765624 
L 234.922568 265.01703 
L 235.054197 265.01703 
L 235.054197 259.268436 
L 235.735774 259.268436 
L 235.735774 253.519842 
L 236.167148 253.519842 
L 236.167148 247.771248 
L 236.510693 247.771248 
L 236.510693 242.022653 
L 237.731292 242.022653 
L 237.731292 236.274059 
L 257.216306 236.274059 
L 257.216306 230.525465 
L 260.167014 230.525465 
L 260.167014 224.776871 
L 260.628035 224.776871 
L 260.628035 219.028277 
L 260.71237 219.028277 
L 260.71237 213.279683 
L 260.818691 213.279683 
L 260.818691 207.531089 
L 260.883432 207.531089 
L 260.883432 201.782495 
L 260.88629 201.782495 
L 260.88629 196.033901 
L 261.12796 196.033901 
L 261.12796 190.285307 
L 261.209148 190.285307 
L 261.209148 184.536713 
L 261.319469 184.536713 
L 261.319469 178.788119 
L 261.329065 178.788119 
L 261.329065 173.039525 
L 261.343756 173.039525 
L 261.343756 167.290931 
L 261.514199 167.290931 
L 261.514199 161.542337 
L 261.52218 161.542337 
L 261.52218 155.793743 
L 261.528437 155.793743 
L 261.528437 150.045149 
L 261.613004 150.045149 
L 261.613004 144.296554 
L 261.735263 144.296554 
L 261.735263 138.54796 
L 261.885313 138.54796 
L 261.885313 132.799366 
L 261.908825 132.799366 
L 261.908825 127.050772 
L 262.301215 127.050772 
L 262.301215 121.302178 
L 277.031522 121.302178 
L 277.031522 115.553584 
L 277.462359 115.553584 
L 277.462359 109.80499 
L 277.604251 109.80499 
L 277.604251 104.056396 
L 277.690109 104.056396 
L 277.690109 98.307802 
L 277.813922 98.307802 
L 277.813922 92.559208 
L 277.930073 92.559208 
L 277.930073 86.810614 
L 278.18253 86.810614 
L 278.18253 81.06202 
L 278.770252 81.06202 
L 278.770252 75.313426 
L 278.879148 75.313426 
L 278.879148 69.564832 
L 279.553113 69.564832 
L 279.553113 63.816238 
L 292.49879 63.816238 
L 292.49879 58.067644 
L 322.937893 58.067644 
L 322.937893 52.31905 
L 324.305463 52.31905 
L 324.305463 46.570455 
L 324.305463 46.570455 
L 324.305463 40.821861 
L 324.305463 40.821861 
L 324.305463 35.073267 
L 324.305463 35.073267 
L 324.305463 29.324673 
L 324.305463 29.324673 
L 324.305463 23.576079 
L 324.305463 23.576079 
L 324.305463 17.827485 
L 324.305463 17.827485 
L 324.305463 12.078891 
L 324.305463 12.078891 
L 324.305463 6.330297 
L 324.305463 6.330297 
L 324.305463 6.330297 
L 460.8 6.330297 
" clip-path="url(#p09ddf358c2)" style="fill: none; stroke: #bf00bf; stroke-width: 1.5; stroke-linecap: square"/>
   </g>
   <g id="line2d_24">
    <path d="M 223.901556 293.76 
L 223.901556 288.011406 
L 228.571833 288.011406 
L 228.571833 282.262812 
L 228.966375 282.262812 
L 228.966375 276.514218 
L 231.871668 276.514218 
L 231.871668 270.765624 
L 232.283825 270.765624 
L 232.283825 265.01703 
L 232.558275 265.01703 
L 232.558275 259.268436 
L 233.242441 259.268436 
L 233.242441 253.519842 
L 234.078205 253.519842 
L 234.078205 247.771248 
L 234.179663 247.771248 
L 234.179663 242.022653 
L 235.735774 242.022653 
L 235.735774 236.274059 
L 257.216306 236.274059 
L 257.216306 230.525465 
L 257.843798 230.525465 
L 257.843798 224.776871 
L 259.436912 224.776871 
L 259.436912 219.028277 
L 259.706475 219.028277 
L 259.706475 213.279683 
L 259.782554 213.279683 
L 259.782554 207.531089 
L 259.900093 207.531089 
L 259.900093 201.782495 
L 259.96822 201.782495 
L 259.96822 196.033901 
L 259.99957 196.033901 
L 259.99957 190.285307 
L 260.097326 190.285307 
L 260.097326 184.536713 
L 260.145791 184.536713 
L 260.145791 178.788119 
L 260.173786 178.788119 
L 260.173786 173.039525 
L 260.211938 173.039525 
L 260.211938 167.290931 
L 260.327782 167.290931 
L 260.327782 161.542337 
L 260.596423 161.542337 
L 260.596423 155.793743 
L 260.869947 155.793743 
L 260.869947 150.045149 
L 260.88629 150.045149 
L 260.88629 144.296554 
L 260.913403 144.296554 
L 260.913403 138.54796 
L 261.352857 138.54796 
L 261.352857 132.799366 
L 261.678864 132.799366 
L 261.678864 127.050772 
L 261.885313 127.050772 
L 261.885313 121.302178 
L 277.031522 121.302178 
L 277.031522 115.553584 
L 277.462359 115.553584 
L 277.462359 109.80499 
L 277.604251 109.80499 
L 277.604251 104.056396 
L 277.690109 104.056396 
L 277.690109 98.307802 
L 277.77426 98.307802 
L 277.77426 92.559208 
L 277.813922 92.559208 
L 277.813922 86.810614 
L 277.819213 86.810614 
L 277.819213 81.06202 
L 278.18253 81.06202 
L 278.18253 75.313426 
L 278.770252 75.313426 
L 278.770252 69.564832 
L 279.13166 69.564832 
L 279.13166 63.816238 
L 292.49879 63.816238 
L 292.49879 58.067644 
L 299.47899 58.067644 
L 299.47899 52.31905 
L 310.493956 52.31905 
L 310.493956 46.570455 
L 312.08734 46.570455 
L 312.08734 40.821861 
L 314.467873 40.821861 
L 314.467873 35.073267 
L 319.99123 35.073267 
L 319.99123 29.324673 
L 320.105677 29.324673 
L 320.105677 23.576079 
L 320.403733 23.576079 
L 320.403733 17.827485 
L 324.305463 17.827485 
L 324.305463 12.078891 
L 324.305463 12.078891 
L 324.305463 6.330297 
L 324.305463 6.330297 
L 324.305463 6.330297 
L 460.8 6.330297 
" clip-path="url(#p09ddf358c2)" style="fill: none; stroke: #000000; stroke-width: 1.5; stroke-linecap: square"/>
   </g>
   <g id="line2d_25">
    <path d="M 223.901556 293.76 
L 223.901556 288.011406 
L 227.078295 288.011406 
L 227.078295 282.262812 
L 228.571833 282.262812 
L 228.571833 276.514218 
L 228.966375 276.514218 
L 228.966375 270.765624 
L 229.430636 270.765624 
L 229.430636 265.01703 
L 229.727602 265.01703 
L 229.727602 259.268436 
L 230.743547 259.268436 
L 230.743547 253.519842 
L 231.2555 253.519842 
L 231.2555 247.771248 
L 231.438709 247.771248 
L 231.438709 242.022653 
L 233.060641 242.022653 
L 233.060641 236.274059 
L 244.87897 236.274059 
L 244.87897 230.525465 
L 244.968502 230.525465 
L 244.968502 224.776871 
L 245.072408 224.776871 
L 245.072408 219.028277 
L 245.367008 219.028277 
L 245.367008 213.279683 
L 246.455838 213.279683 
L 246.455838 207.531089 
L 249.303537 207.531089 
L 249.303537 201.782495 
L 249.568171 201.782495 
L 249.568171 196.033901 
L 249.767702 196.033901 
L 249.767702 190.285307 
L 249.796824 190.285307 
L 249.796824 184.536713 
L 252.380779 184.536713 
L 252.380779 178.788119 
L 253.480099 178.788119 
L 253.480099 173.039525 
L 253.697208 173.039525 
L 253.697208 167.290931 
L 253.726097 167.290931 
L 253.726097 161.542337 
L 253.890063 161.542337 
L 253.890063 155.793743 
L 254.152696 155.793743 
L 254.152696 150.045149 
L 254.156317 150.045149 
L 254.156317 144.296554 
L 255.772549 144.296554 
L 255.772549 138.54796 
L 256.126875 138.54796 
L 256.126875 132.799366 
L 256.461589 132.799366 
L 256.461589 127.050772 
L 257.554939 127.050772 
L 257.554939 121.302178 
L 259.065523 121.302178 
L 259.065523 115.553584 
L 272.941165 115.553584 
L 272.941165 109.80499 
L 273.091611 109.80499 
L 273.091611 104.056396 
L 273.746543 104.056396 
L 273.746543 98.307802 
L 274.20043 98.307802 
L 274.20043 92.559208 
L 274.224914 92.559208 
L 274.224914 86.810614 
L 274.249684 86.810614 
L 274.249684 81.06202 
L 274.314882 81.06202 
L 274.314882 75.313426 
L 274.538796 75.313426 
L 274.538796 69.564832 
L 275.337578 69.564832 
L 275.337578 63.816238 
L 276.187833 63.816238 
L 276.187833 58.067644 
L 280.640555 58.067644 
L 280.640555 52.31905 
L 288.066236 52.31905 
L 288.066236 46.570455 
L 289.122432 46.570455 
L 289.122432 40.821861 
L 292.49879 40.821861 
L 292.49879 35.073267 
L 295.490904 35.073267 
L 295.490904 29.324673 
L 298.180969 29.324673 
L 298.180969 23.576079 
L 299.47899 23.576079 
L 299.47899 17.827485 
L 309.346055 17.827485 
L 309.346055 12.078891 
L 315.937207 12.078891 
L 315.937207 6.330297 
L 315.937207 6.330297 
L 315.937207 6.330297 
L 460.8 6.330297 
" clip-path="url(#p09ddf358c2)" style="fill: none; stroke: #00bfbf; stroke-width: 1.5; stroke-linecap: square"/>
   </g>
   <g id="line2d_26">
    <path d="M 19.509764 293.76 
L 19.509764 288.011406 
L 207.296468 288.011406 
L 207.296468 282.262812 
L 207.296517 282.262812 
L 207.296517 276.514218 
L 207.296694 276.514218 
L 207.296694 270.765624 
L 210.696919 270.765624 
L 210.696919 265.01703 
L 215.740036 265.01703 
L 215.740036 259.268436 
L 217.657082 259.268436 
L 217.657082 253.519842 
L 218.025685 253.519842 
L 218.025685 247.771248 
L 218.552524 247.771248 
L 218.552524 242.022653 
L 218.607817 242.022653 
L 218.607817 236.274059 
L 218.724046 236.274059 
L 218.724046 230.525465 
L 218.973014 230.525465 
L 218.973014 224.776871 
L 219.129758 224.776871 
L 219.129758 219.028277 
L 219.230959 219.028277 
L 219.230959 213.279683 
L 219.571426 213.279683 
L 219.571426 207.531089 
L 219.764866 207.531089 
L 219.764866 201.782495 
L 219.971732 201.782495 
L 219.971732 196.033901 
L 221.528875 196.033901 
L 221.528875 190.285307 
L 222.465004 190.285307 
L 222.465004 184.536713 
L 222.465163 184.536713 
L 222.465163 178.788119 
L 222.465181 178.788119 
L 222.465181 173.039525 
L 223.901556 173.039525 
L 223.901556 167.290931 
L 224.302616 167.290931 
L 224.302616 161.542337 
L 225.197837 161.542337 
L 225.197837 155.793743 
L 225.73992 155.793743 
L 225.73992 150.045149 
L 226.520639 150.045149 
L 226.520639 144.296554 
L 227.297426 144.296554 
L 227.297426 138.54796 
L 227.412809 138.54796 
L 227.412809 132.799366 
L 228.109213 132.799366 
L 228.109213 127.050772 
L 229.785118 127.050772 
L 229.785118 121.302178 
L 230.1633 121.302178 
L 230.1633 115.553584 
L 230.163356 115.553584 
L 230.163356 109.80499 
L 232.582554 109.80499 
L 232.582554 104.056396 
L 234.39582 104.056396 
L 234.39582 98.307802 
L 237.371941 98.307802 
L 237.371941 92.559208 
L 239.653761 92.559208 
L 239.653761 86.810614 
L 242.321273 86.810614 
L 242.321273 81.06202 
L 243.667837 81.06202 
L 243.667837 75.313426 
L 243.667928 75.313426 
L 243.667928 69.564832 
L 248.728656 69.564832 
L 248.728656 63.816238 
L 265.326122 63.816238 
L 265.326122 58.067644 
L 266.979959 58.067644 
L 266.979959 52.31905 
L 267.659393 52.31905 
L 267.659393 46.570455 
L 267.663796 46.570455 
L 267.663796 40.821861 
L 267.83178 40.821861 
L 267.83178 35.073267 
L 268.59686 35.073267 
L 268.59686 29.324673 
L 268.89027 29.324673 
L 268.89027 23.576079 
L 269.137846 23.576079 
L 269.137846 17.827485 
L 269.230372 17.827485 
L 269.230372 12.078891 
L 269.683653 12.078891 
L 269.683653 6.330297 
L 269.683653 6.330297 
L 269.683653 6.330297 
L 460.8 6.330297 
" clip-path="url(#p09ddf358c2)" style="fill: none; stroke: #bf00bf; stroke-width: 1.5; stroke-linecap: square"/>
   </g>
   <g id="line2d_27">
    <path d="M -1 276.514218 
L 186.465242 276.514218 
L 186.465242 270.765624 
L 190.897765 270.765624 
L 190.897765 265.01703 
L 193.362896 265.01703 
L 193.362896 259.268436 
L 203.036475 259.268436 
L 203.036475 253.519842 
L 206.174996 253.519842 
L 206.174996 247.771248 
L 207.296078 247.771248 
L 207.296078 242.022653 
L 207.296078 242.022653 
L 207.296078 236.274059 
L 207.296078 236.274059 
L 207.296078 230.525465 
L 207.296078 230.525465 
L 207.296078 224.776871 
L 210.694677 224.776871 
L 210.694677 219.028277 
L 215.726592 219.028277 
L 215.726592 213.279683 
L 216.037189 213.279683 
L 216.037189 207.531089 
L 216.265045 207.531089 
L 216.265045 201.782495 
L 216.339563 201.782495 
L 216.339563 196.033901 
L 216.659829 196.033901 
L 216.659829 190.285307 
L 216.850379 190.285307 
L 216.850379 184.536713 
L 217.338997 184.536713 
L 217.338997 178.788119 
L 217.610263 178.788119 
L 217.610263 173.039525 
L 218.508489 173.039525 
L 218.508489 167.290931 
L 218.50875 167.290931 
L 218.50875 161.542337 
L 218.570402 161.542337 
L 218.570402 155.793743 
L 219.129011 155.793743 
L 219.129011 150.045149 
L 219.230887 150.045149 
L 219.230887 144.296554 
L 219.488824 144.296554 
L 219.488824 138.54796 
L 221.528875 138.54796 
L 221.528875 132.799366 
L 221.752309 132.799366 
L 221.752309 127.050772 
L 221.946212 127.050772 
L 221.946212 121.302178 
L 222.134401 121.302178 
L 222.134401 115.553584 
L 222.464924 115.553584 
L 222.464924 109.80499 
L 222.464924 109.80499 
L 222.464924 104.056396 
L 222.464924 104.056396 
L 222.464924 98.307802 
L 222.464924 98.307802 
L 222.464924 92.559208 
L 224.783499 92.559208 
L 224.783499 86.810614 
L 225.62611 86.810614 
L 225.62611 81.06202 
L 230.163268 81.06202 
L 230.163268 75.313426 
L 230.163268 75.313426 
L 230.163268 69.564832 
L 232.582531 69.564832 
L 232.582531 63.816238 
L 244.200754 63.816238 
L 244.200754 58.067644 
L 249.07044 58.067644 
L 249.07044 52.31905 
L 252.633457 52.31905 
L 252.633457 46.570455 
L 252.737772 46.570455 
L 252.737772 40.821861 
L 254.345665 40.821861 
L 254.345665 35.073267 
L 254.861047 35.073267 
L 254.861047 29.324673 
L 255.303178 29.324673 
L 255.303178 23.576079 
L 256.359961 23.576079 
L 256.359961 17.827485 
L 257.604245 17.827485 
L 257.604245 12.078891 
L 259.940583 12.078891 
L 259.940583 6.330297 
L 259.940583 6.330297 
L 259.940583 6.330297 
L 460.8 6.330297 
" clip-path="url(#p09ddf358c2)" style="fill: none; stroke: #000000; stroke-width: 1.5; stroke-linecap: square"/>
   </g>
   <g id="line2d_28">
    <path d="M -1 270.765624 
L 163.803602 270.765624 
L 163.803602 265.01703 
L 178.063495 265.01703 
L 178.063495 259.268436 
L 181.512209 259.268436 
L 181.512209 253.519842 
L 186.449102 253.519842 
L 186.449102 247.771248 
L 190.405087 247.771248 
L 190.405087 242.022653 
L 203.036474 242.022653 
L 203.036474 236.274059 
L 203.236905 236.274059 
L 203.236905 230.525465 
L 207.296078 230.525465 
L 207.296078 224.776871 
L 207.296078 224.776871 
L 207.296078 219.028277 
L 207.296078 219.028277 
L 207.296078 213.279683 
L 207.296078 213.279683 
L 207.296078 207.531089 
L 207.296078 207.531089 
L 207.296078 201.782495 
L 207.296078 201.782495 
L 207.296078 196.033901 
L 207.296078 196.033901 
L 207.296078 190.285307 
L 211.303865 190.285307 
L 211.303865 184.536713 
L 211.378678 184.536713 
L 211.378678 178.788119 
L 211.939413 178.788119 
L 211.939413 173.039525 
L 212.473346 173.039525 
L 212.473346 167.290931 
L 212.680564 167.290931 
L 212.680564 161.542337 
L 213.385028 161.542337 
L 213.385028 155.793743 
L 215.078712 155.793743 
L 215.078712 150.045149 
L 215.07885 150.045149 
L 215.07885 144.296554 
L 215.883368 144.296554 
L 215.883368 138.54796 
L 216.633734 138.54796 
L 216.633734 132.799366 
L 216.659829 132.799366 
L 216.659829 127.050772 
L 216.782273 127.050772 
L 216.782273 121.302178 
L 218.301085 121.302178 
L 218.301085 115.553584 
L 219.129011 115.553584 
L 219.129011 109.80499 
L 219.372182 109.80499 
L 219.372182 104.056396 
L 219.488824 104.056396 
L 219.488824 98.307802 
L 219.507961 98.307802 
L 219.507961 92.559208 
L 220.4857 92.559208 
L 220.4857 86.810614 
L 222.464924 86.810614 
L 222.464924 81.06202 
L 222.464924 81.06202 
L 222.464924 75.313426 
L 222.464924 75.313426 
L 222.464924 69.564832 
L 230.108709 69.564832 
L 230.108709 63.816238 
L 230.163268 63.816238 
L 230.163268 58.067644 
L 230.163268 58.067644 
L 230.163268 52.31905 
L 234.713845 52.31905 
L 234.713845 46.570455 
L 235.074831 46.570455 
L 235.074831 40.821861 
L 242.606864 40.821861 
L 242.606864 35.073267 
L 243.992522 35.073267 
L 243.992522 29.324673 
L 244.090094 29.324673 
L 244.090094 23.576079 
L 247.07368 23.576079 
L 247.07368 17.827485 
L 248.30114 17.827485 
L 248.30114 12.078891 
L 248.667894 12.078891 
L 248.667894 6.330297 
L 248.667894 6.330297 
L 248.667894 6.330297 
L 460.8 6.330297 
" clip-path="url(#p09ddf358c2)" style="fill: none; stroke: #00bfbf; stroke-width: 1.5; stroke-linecap: square"/>
   </g>
   <g id="line2d_29">
    <path d="M -1 265.01703 
L 1.271219 265.01703 
L 1.271219 259.268436 
L 163.803602 259.268436 
L 163.803602 253.519842 
L 178.063495 253.519842 
L 178.063495 247.771248 
L 179.05356 247.771248 
L 179.05356 242.022653 
L 179.05356 242.022653 
L 179.05356 236.274059 
L 179.05356 236.274059 
L 179.05356 230.525465 
L 179.05356 230.525465 
L 179.05356 224.776871 
L 179.05356 224.776871 
L 179.05356 219.028277 
L 181.512209 219.028277 
L 181.512209 213.279683 
L 186.449102 213.279683 
L 186.449102 207.531089 
L 187.017415 207.531089 
L 187.017415 201.782495 
L 190.405087 201.782495 
L 190.405087 196.033901 
L 191.675971 196.033901 
L 191.675971 190.285307 
L 191.675971 190.285307 
L 191.675971 184.536713 
L 203.036474 184.536713 
L 203.036474 178.788119 
L 203.236905 178.788119 
L 203.236905 173.039525 
L 207.296078 173.039525 
L 207.296078 167.290931 
L 207.296078 167.290931 
L 207.296078 161.542337 
L 207.296078 161.542337 
L 207.296078 155.793743 
L 207.296078 155.793743 
L 207.296078 150.045149 
L 207.296078 150.045149 
L 207.296078 144.296554 
L 207.296078 144.296554 
L 207.296078 138.54796 
L 207.296078 138.54796 
L 207.296078 132.799366 
L 215.437005 132.799366 
L 215.437005 127.050772 
L 215.921877 127.050772 
L 215.921877 121.302178 
L 216.659829 121.302178 
L 216.659829 115.553584 
L 216.898308 115.553584 
L 216.898308 109.80499 
L 218.301085 109.80499 
L 218.301085 104.056396 
L 219.129011 104.056396 
L 219.129011 98.307802 
L 219.488824 98.307802 
L 219.488824 92.559208 
L 220.4857 92.559208 
L 220.4857 86.810614 
L 222.464924 86.810614 
L 222.464924 81.06202 
L 222.464924 81.06202 
L 222.464924 75.313426 
L 222.464924 75.313426 
L 222.464924 69.564832 
L 230.108709 69.564832 
L 230.108709 63.816238 
L 230.163268 63.816238 
L 230.163268 58.067644 
L 230.163268 58.067644 
L 230.163268 52.31905 
L 234.713845 52.31905 
L 234.713845 46.570455 
L 235.074831 46.570455 
L 235.074831 40.821861 
L 242.606864 40.821861 
L 242.606864 35.073267 
L 243.992522 35.073267 
L 243.992522 29.324673 
L 244.090094 29.324673 
L 244.090094 23.576079 
L 246.257684 23.576079 
L 246.257684 17.827485 
L 246.297643 17.827485 
L 246.297643 12.078891 
L 246.402995 12.078891 
L 246.402995 6.330297 
L 246.402995 6.330297 
L 246.402995 6.330297 
L 460.8 6.330297 
" clip-path="url(#p09ddf358c2)" style="fill: none; stroke: #bf00bf; stroke-width: 1.5; stroke-linecap: square"/>
   </g>
   <g id="patch_3">
    <path d="M 0 293.76 
L 0 3.456 
" style="fill: none; stroke: #000000; stroke-width: 0.8; stroke-linejoin: miter; stroke-linecap: square"/>
   </g>
   <g id="patch_4">
    <path d="M 460.8 293.76 
L 460.8 3.456 
" style="fill: none; stroke: #000000; stroke-width: 0.8; stroke-linejoin: miter; stroke-linecap: square"/>
   </g>
   <g id="patch_5">
    <path d="M 0 293.76 
L 460.8 293.76 
" style="fill: none; stroke: #000000; stroke-width: 0.8; stroke-linejoin: miter; stroke-linecap: square"/>
   </g>
   <g id="patch_6">
    <path d="M 0 3.456 
L 460.8 3.456 
" style="fill: none; stroke: #000000; stroke-width: 0.8; stroke-linejoin: miter; stroke-linecap: square"/>
   </g>
   <g id="text_6">
    <!-- {f20-f24}, 20-D -->
    <g transform="translate(293.159 287.95392)scale(0.2 -0.2)">
     <defs>
      <path id="DejaVuSans-7b" d="M 3272 -594 
L 3272 -1044 
L 3078 -1044 
Q 2300 -1044 2036 -812 
Q 1772 -581 1772 109 
L 1772 856 
Q 1772 1328 1603 1509 
Q 1434 1691 991 1691 
L 800 1691 
L 800 2138 
L 991 2138 
Q 1438 2138 1605 2317 
Q 1772 2497 1772 2963 
L 1772 3713 
Q 1772 4403 2036 4633 
Q 2300 4863 3078 4863 
L 3272 4863 
L 3272 4416 
L 3059 4416 
Q 2619 4416 2484 4278 
Q 2350 4141 2350 3700 
L 2350 2925 
Q 2350 2434 2208 2212 
Q 2066 1991 1722 1913 
Q 2069 1828 2209 1606 
Q 2350 1384 2350 897 
L 2350 122 
Q 2350 -319 2484 -456 
Q 2619 -594 3059 -594 
L 3272 -594 
z
" transform="scale(0.015625)"/>
      <path id="DejaVuSans-32" d="M 1228 531 
L 3431 531 
L 3431 0 
L 469 0 
L 469 531 
Q 828 903 1448 1529 
Q 2069 2156 2228 2338 
Q 2531 2678 2651 2914 
Q 2772 3150 2772 3378 
Q 2772 3750 2511 3984 
Q 2250 4219 1831 4219 
Q 1534 4219 1204 4116 
Q 875 4013 500 3803 
L 500 4441 
Q 881 4594 1212 4672 
Q 1544 4750 1819 4750 
Q 2544 4750 2975 4387 
Q 3406 4025 3406 3419 
Q 3406 3131 3298 2873 
Q 3191 2616 2906 2266 
Q 2828 2175 2409 1742 
Q 1991 1309 1228 531 
z
" transform="scale(0.015625)"/>
      <path id="DejaVuSans-7d" d="M 800 -594 
L 1019 -594 
Q 1456 -594 1589 -459 
Q 1722 -325 1722 122 
L 1722 897 
Q 1722 1384 1862 1606 
Q 2003 1828 2350 1913 
Q 2003 1991 1862 2212 
Q 1722 2434 1722 2925 
L 1722 3700 
Q 1722 4144 1589 4280 
Q 1456 4416 1019 4416 
L 800 4416 
L 800 4863 
L 997 4863 
Q 1775 4863 2036 4633 
Q 2297 4403 2297 3713 
L 2297 2963 
Q 2297 2497 2465 2317 
Q 2634 2138 3078 2138 
L 3272 2138 
L 3272 1691 
L 3078 1691 
Q 2634 1691 2465 1509 
Q 2297 1328 2297 856 
L 2297 109 
Q 2297 -581 2036 -812 
Q 1775 -1044 997 -1044 
L 800 -1044 
L 800 -594 
z
" transform="scale(0.015625)"/>
      <path id="DejaVuSans-2c" d="M 750 794 
L 1409 794 
L 1409 256 
L 897 -744 
L 494 -744 
L 750 256 
L 750 794 
z
" transform="scale(0.015625)"/>
     </defs>
     <use xlink:href="#DejaVuSans-7b"/>
     <use xlink:href="#DejaVuSans-66" x="63.623047"/>
     <use xlink:href="#DejaVuSans-32" x="98.828125"/>
     <use xlink:href="#DejaVuSans-30" x="162.451172"/>
     <use xlink:href="#DejaVuSans-2d" x="226.074219"/>
     <use xlink:href="#DejaVuSans-66" x="262.158203"/>
     <use xlink:href="#DejaVuSans-32" x="297.363281"/>
     <use xlink:href="#DejaVuSans-34" x="360.986328"/>
     <use xlink:href="#DejaVuSans-7d" x="424.609375"/>
     <use xlink:href="#DejaVuSans-2c" x="488.232422"/>
     <use xlink:href="#DejaVuSans-20" x="520.019531"/>
     <use xlink:href="#DejaVuSans-32" x="551.806641"/>
     <use xlink:href="#DejaVuSans-30" x="615.429688"/>
     <use xlink:href="#DejaVuSans-2d" x="679.052734"/>
     <use xlink:href="#DejaVuSans-44" x="715.136719"/>
    </g>
   </g>
   <g id="text_7">
    <!-- v2.6.3 -->
    <g style="fill: #808080" transform="translate(214.71875 288.777272)scale(0.1 -0.1)">
     <defs>
      <path id="DejaVuSans-76" d="M 191 3500 
L 800 3500 
L 1894 563 
L 2988 3500 
L 3597 3500 
L 2284 0 
L 1503 0 
L 191 3500 
z
" transform="scale(0.015625)"/>
      <path id="DejaVuSans-2e" d="M 684 794 
L 1344 794 
L 1344 0 
L 684 0 
L 684 794 
z
" transform="scale(0.015625)"/>
      <path id="DejaVuSans-36" d="M 2113 2584 
Q 1688 2584 1439 2293 
Q 1191 2003 1191 1497 
Q 1191 994 1439 701 
Q 1688 409 2113 409 
Q 2538 409 2786 701 
Q 3034 994 3034 1497 
Q 3034 2003 2786 2293 
Q 2538 2584 2113 2584 
z
M 3366 4563 
L 3366 3988 
Q 3128 4100 2886 4159 
Q 2644 4219 2406 4219 
Q 1781 4219 1451 3797 
Q 1122 3375 1075 2522 
Q 1259 2794 1537 2939 
Q 1816 3084 2150 3084 
Q 2853 3084 3261 2657 
Q 3669 2231 3669 1497 
Q 3669 778 3244 343 
Q 2819 -91 2113 -91 
Q 1303 -91 875 529 
Q 447 1150 447 2328 
Q 447 3434 972 4092 
Q 1497 4750 2381 4750 
Q 2619 4750 2861 4703 
Q 3103 4656 3366 4563 
z
" transform="scale(0.015625)"/>
      <path id="DejaVuSans-33" d="M 2597 2516 
Q 3050 2419 3304 2112 
Q 3559 1806 3559 1356 
Q 3559 666 3084 287 
Q 2609 -91 1734 -91 
Q 1441 -91 1130 -33 
Q 819 25 488 141 
L 488 750 
Q 750 597 1062 519 
Q 1375 441 1716 441 
Q 2309 441 2620 675 
Q 2931 909 2931 1356 
Q 2931 1769 2642 2001 
Q 2353 2234 1838 2234 
L 1294 2234 
L 1294 2753 
L 1863 2753 
Q 2328 2753 2575 2939 
Q 2822 3125 2822 3475 
Q 2822 3834 2567 4026 
Q 2313 4219 1838 4219 
Q 1578 4219 1281 4162 
Q 984 4106 628 3988 
L 628 4550 
Q 988 4650 1302 4700 
Q 1616 4750 1894 4750 
Q 2613 4750 3031 4423 
Q 3450 4097 3450 3541 
Q 3450 3153 3228 2886 
Q 3006 2619 2597 2516 
z
" transform="scale(0.015625)"/>
     </defs>
     <use xlink:href="#DejaVuSans-76"/>
     <use xlink:href="#DejaVuSans-32" x="59.179688"/>
     <use xlink:href="#DejaVuSans-2e" x="122.802734"/>
     <use xlink:href="#DejaVuSans-36" x="154.589844"/>
     <use xlink:href="#DejaVuSans-2e" x="218.212891"/>
     <use xlink:href="#DejaVuSans-33" x="250"/>
    </g>
   </g>
  </g>
 </g>
 <defs>
  <clipPath id="p09ddf358c2">
   <rect x="0" y="3.456" width="460.8" height="290.304"/>
  </clipPath>
 </defs>
</svg>
