<?xml version="1.0" encoding="utf-8" standalone="no"?>
<!DOCTYPE svg PUBLIC "-//W3C//DTD SVG 1.1//EN"
  "http://www.w3.org/Graphics/SVG/1.1/DTD/svg11.dtd">
<svg xmlns:xlink="http://www.w3.org/1999/xlink" width="460.8pt" height="345.6pt" viewBox="0 0 460.8 345.6" xmlns="http://www.w3.org/2000/svg" version="1.1">
 <metadata>
  <rdf:RDF xmlns:dc="http://purl.org/dc/elements/1.1/" xmlns:cc="http://creativecommons.org/ns#" xmlns:rdf="http://www.w3.org/1999/02/22-rdf-syntax-ns#">
   <cc:Work>
    <dc:type rdf:resource="http://purl.org/dc/dcmitype/StillImage"/>
    <dc:date>2023-04-07T14:47:10.479956</dc:date>
    <dc:format>image/svg+xml</dc:format>
    <dc:creator>
     <cc:Agent>
      <dc:title>Matplotlib v3.5.2, https://matplotlib.org/</dc:title>
     </cc:Agent>
    </dc:creator>
   </cc:Work>
  </rdf:RDF>
 </metadata>
 <defs>
  <style type="text/css">*{stroke-linejoin: round; stroke-linecap: butt}</style>
 </defs>
 <g id="figure_1">
  <g id="patch_1">
   <path d="M 0 345.6 
L 460.8 345.6 
L 460.8 0 
L 0 0 
z
" style="fill: #ffffff"/>
  </g>
  <g id="axes_1">
   <g id="patch_2">
    <path d="M 0 293.76 
L 460.8 293.76 
L 460.8 3.456 
L 0 3.456 
z
" style="fill: #ffffff"/>
   </g>
   <g id="matplotlib.axis_1">
    <g id="xtick_1">
     <g id="line2d_1">
      <path d="M 107.561996 293.76 
L 107.561996 3.456 
" clip-path="url(#p292fc833f3)" style="fill: none; stroke: #b0b0b0; stroke-width: 0.8; stroke-linecap: square"/>
     </g>
     <g id="line2d_2">
      <defs>
       <path id="md1b23ce262" d="M 0 0 
L 0 3.5 
" style="stroke: #000000; stroke-width: 0.8"/>
      </defs>
      <g>
       <use xlink:href="#md1b23ce262" x="107.561996" y="293.76" style="stroke: #000000; stroke-width: 0.8"/>
      </g>
     </g>
     <g id="text_1">
      <!-- -4 -->
      <g transform="translate(97.591684 315.956875)scale(0.2 -0.2)">
       <defs>
        <path id="DejaVuSans-2d" d="M 313 2009 
L 1997 2009 
L 1997 1497 
L 313 1497 
L 313 2009 
z
" transform="scale(0.015625)"/>
        <path id="DejaVuSans-34" d="M 2419 4116 
L 825 1625 
L 2419 1625 
L 2419 4116 
z
M 2253 4666 
L 3047 4666 
L 3047 1625 
L 3713 1625 
L 3713 1100 
L 3047 1100 
L 3047 0 
L 2419 0 
L 2419 1100 
L 313 1100 
L 313 1709 
L 2253 4666 
z
" transform="scale(0.015625)"/>
       </defs>
       <use xlink:href="#DejaVuSans-2d"/>
       <use xlink:href="#DejaVuSans-34" x="36.083984"/>
      </g>
     </g>
    </g>
    <g id="xtick_2">
     <g id="line2d_3">
      <path d="M 215.240322 293.76 
L 215.240322 3.456 
" clip-path="url(#p292fc833f3)" style="fill: none; stroke: #b0b0b0; stroke-width: 0.8; stroke-linecap: square"/>
     </g>
     <g id="line2d_4">
      <g>
       <use xlink:href="#md1b23ce262" x="215.240322" y="293.76" style="stroke: #000000; stroke-width: 0.8"/>
      </g>
     </g>
     <g id="text_2">
      <!-- 0 -->
      <g transform="translate(208.877822 315.956875)scale(0.2 -0.2)">
       <defs>
        <path id="DejaVuSans-30" d="M 2034 4250 
Q 1547 4250 1301 3770 
Q 1056 3291 1056 2328 
Q 1056 1369 1301 889 
Q 1547 409 2034 409 
Q 2525 409 2770 889 
Q 3016 1369 3016 2328 
Q 3016 3291 2770 3770 
Q 2525 4250 2034 4250 
z
M 2034 4750 
Q 2819 4750 3233 4129 
Q 3647 3509 3647 2328 
Q 3647 1150 3233 529 
Q 2819 -91 2034 -91 
Q 1250 -91 836 529 
Q 422 1150 422 2328 
Q 422 3509 836 4129 
Q 1250 4750 2034 4750 
z
" transform="scale(0.015625)"/>
       </defs>
       <use xlink:href="#DejaVuSans-30"/>
      </g>
     </g>
    </g>
    <g id="xtick_3">
     <g id="line2d_5">
      <path d="M 322.918648 293.76 
L 322.918648 3.456 
" clip-path="url(#p292fc833f3)" style="fill: none; stroke: #b0b0b0; stroke-width: 0.8; stroke-linecap: square"/>
     </g>
     <g id="line2d_6">
      <g>
       <use xlink:href="#md1b23ce262" x="322.918648" y="293.76" style="stroke: #000000; stroke-width: 0.8"/>
      </g>
     </g>
     <g id="text_3">
      <!-- 4 -->
      <g transform="translate(316.556148 315.956875)scale(0.2 -0.2)">
       <use xlink:href="#DejaVuSans-34"/>
      </g>
     </g>
    </g>
    <g id="xtick_4">
     <g id="line2d_7">
      <path d="M 430.596974 293.76 
L 430.596974 3.456 
" clip-path="url(#p292fc833f3)" style="fill: none; stroke: #b0b0b0; stroke-width: 0.8; stroke-linecap: square"/>
     </g>
     <g id="line2d_8">
      <g>
       <use xlink:href="#md1b23ce262" x="430.596974" y="293.76" style="stroke: #000000; stroke-width: 0.8"/>
      </g>
     </g>
     <g id="text_4">
      <!-- 8 -->
      <g transform="translate(424.234474 315.956875)scale(0.2 -0.2)">
       <defs>
        <path id="DejaVuSans-38" d="M 2034 2216 
Q 1584 2216 1326 1975 
Q 1069 1734 1069 1313 
Q 1069 891 1326 650 
Q 1584 409 2034 409 
Q 2484 409 2743 651 
Q 3003 894 3003 1313 
Q 3003 1734 2745 1975 
Q 2488 2216 2034 2216 
z
M 1403 2484 
Q 997 2584 770 2862 
Q 544 3141 544 3541 
Q 544 4100 942 4425 
Q 1341 4750 2034 4750 
Q 2731 4750 3128 4425 
Q 3525 4100 3525 3541 
Q 3525 3141 3298 2862 
Q 3072 2584 2669 2484 
Q 3125 2378 3379 2068 
Q 3634 1759 3634 1313 
Q 3634 634 3220 271 
Q 2806 -91 2034 -91 
Q 1263 -91 848 271 
Q 434 634 434 1313 
Q 434 1759 690 2068 
Q 947 2378 1403 2484 
z
M 1172 3481 
Q 1172 3119 1398 2916 
Q 1625 2713 2034 2713 
Q 2441 2713 2670 2916 
Q 2900 3119 2900 3481 
Q 2900 3844 2670 4047 
Q 2441 4250 2034 4250 
Q 1625 4250 1398 4047 
Q 1172 3844 1172 3481 
z
" transform="scale(0.015625)"/>
       </defs>
       <use xlink:href="#DejaVuSans-38"/>
      </g>
     </g>
    </g>
    <g id="text_5">
     <!-- log10 of Df -->
     <g transform="translate(175.214063 339.313125)scale(0.2 -0.2)">
      <defs>
       <path id="DejaVuSans-6c" d="M 603 4863 
L 1178 4863 
L 1178 0 
L 603 0 
L 603 4863 
z
" transform="scale(0.015625)"/>
       <path id="DejaVuSans-6f" d="M 1959 3097 
Q 1497 3097 1228 2736 
Q 959 2375 959 1747 
Q 959 1119 1226 758 
Q 1494 397 1959 397 
Q 2419 397 2687 759 
Q 2956 1122 2956 1747 
Q 2956 2369 2687 2733 
Q 2419 3097 1959 3097 
z
M 1959 3584 
Q 2709 3584 3137 3096 
Q 3566 2609 3566 1747 
Q 3566 888 3137 398 
Q 2709 -91 1959 -91 
Q 1206 -91 779 398 
Q 353 888 353 1747 
Q 353 2609 779 3096 
Q 1206 3584 1959 3584 
z
" transform="scale(0.015625)"/>
       <path id="DejaVuSans-67" d="M 2906 1791 
Q 2906 2416 2648 2759 
Q 2391 3103 1925 3103 
Q 1463 3103 1205 2759 
Q 947 2416 947 1791 
Q 947 1169 1205 825 
Q 1463 481 1925 481 
Q 2391 481 2648 825 
Q 2906 1169 2906 1791 
z
M 3481 434 
Q 3481 -459 3084 -895 
Q 2688 -1331 1869 -1331 
Q 1566 -1331 1297 -1286 
Q 1028 -1241 775 -1147 
L 775 -588 
Q 1028 -725 1275 -790 
Q 1522 -856 1778 -856 
Q 2344 -856 2625 -561 
Q 2906 -266 2906 331 
L 2906 616 
Q 2728 306 2450 153 
Q 2172 0 1784 0 
Q 1141 0 747 490 
Q 353 981 353 1791 
Q 353 2603 747 3093 
Q 1141 3584 1784 3584 
Q 2172 3584 2450 3431 
Q 2728 3278 2906 2969 
L 2906 3500 
L 3481 3500 
L 3481 434 
z
" transform="scale(0.015625)"/>
       <path id="DejaVuSans-31" d="M 794 531 
L 1825 531 
L 1825 4091 
L 703 3866 
L 703 4441 
L 1819 4666 
L 2450 4666 
L 2450 531 
L 3481 531 
L 3481 0 
L 794 0 
L 794 531 
z
" transform="scale(0.015625)"/>
       <path id="DejaVuSans-20" transform="scale(0.015625)"/>
       <path id="DejaVuSans-66" d="M 2375 4863 
L 2375 4384 
L 1825 4384 
Q 1516 4384 1395 4259 
Q 1275 4134 1275 3809 
L 1275 3500 
L 2222 3500 
L 2222 3053 
L 1275 3053 
L 1275 0 
L 697 0 
L 697 3053 
L 147 3053 
L 147 3500 
L 697 3500 
L 697 3744 
Q 697 4328 969 4595 
Q 1241 4863 1831 4863 
L 2375 4863 
z
" transform="scale(0.015625)"/>
       <path id="DejaVuSans-44" d="M 1259 4147 
L 1259 519 
L 2022 519 
Q 2988 519 3436 956 
Q 3884 1394 3884 2338 
Q 3884 3275 3436 3711 
Q 2988 4147 2022 4147 
L 1259 4147 
z
M 628 4666 
L 1925 4666 
Q 3281 4666 3915 4102 
Q 4550 3538 4550 2338 
Q 4550 1131 3912 565 
Q 3275 0 1925 0 
L 628 0 
L 628 4666 
z
" transform="scale(0.015625)"/>
      </defs>
      <use xlink:href="#DejaVuSans-6c"/>
      <use xlink:href="#DejaVuSans-6f" x="27.783203"/>
      <use xlink:href="#DejaVuSans-67" x="88.964844"/>
      <use xlink:href="#DejaVuSans-31" x="152.441406"/>
      <use xlink:href="#DejaVuSans-30" x="216.064453"/>
      <use xlink:href="#DejaVuSans-20" x="279.6875"/>
      <use xlink:href="#DejaVuSans-6f" x="311.474609"/>
      <use xlink:href="#DejaVuSans-66" x="372.65625"/>
      <use xlink:href="#DejaVuSans-20" x="407.861328"/>
      <use xlink:href="#DejaVuSans-44" x="439.648438"/>
      <use xlink:href="#DejaVuSans-66" x="516.650391"/>
     </g>
    </g>
   </g>
   <g id="matplotlib.axis_2">
    <g id="ytick_1">
     <g id="line2d_9">
      <path d="M 0 293.76 
L 460.8 293.76 
" clip-path="url(#p292fc833f3)" style="fill: none; stroke: #b0b0b0; stroke-width: 0.8; stroke-linecap: square"/>
     </g>
     <g id="line2d_10">
      <defs>
       <path id="mae16ba3a2f" d="M 0 0 
L -3.5 0 
" style="stroke: #000000; stroke-width: 0.8"/>
      </defs>
      <g>
       <use xlink:href="#mae16ba3a2f" x="0" y="293.76" style="stroke: #000000; stroke-width: 0.8"/>
      </g>
     </g>
    </g>
    <g id="ytick_2">
     <g id="line2d_11">
      <path d="M 0 236.274059 
L 460.8 236.274059 
" clip-path="url(#p292fc833f3)" style="fill: none; stroke: #b0b0b0; stroke-width: 0.8; stroke-linecap: square"/>
     </g>
     <g id="line2d_12">
      <g>
       <use xlink:href="#mae16ba3a2f" x="0" y="236.274059" style="stroke: #000000; stroke-width: 0.8"/>
      </g>
     </g>
    </g>
    <g id="ytick_3">
     <g id="line2d_13">
      <path d="M 0 178.788119 
L 460.8 178.788119 
" clip-path="url(#p292fc833f3)" style="fill: none; stroke: #b0b0b0; stroke-width: 0.8; stroke-linecap: square"/>
     </g>
     <g id="line2d_14">
      <g>
       <use xlink:href="#mae16ba3a2f" x="0" y="178.788119" style="stroke: #000000; stroke-width: 0.8"/>
      </g>
     </g>
    </g>
    <g id="ytick_4">
     <g id="line2d_15">
      <path d="M 0 121.302178 
L 460.8 121.302178 
" clip-path="url(#p292fc833f3)" style="fill: none; stroke: #b0b0b0; stroke-width: 0.8; stroke-linecap: square"/>
     </g>
     <g id="line2d_16">
      <g>
       <use xlink:href="#mae16ba3a2f" x="0" y="121.302178" style="stroke: #000000; stroke-width: 0.8"/>
      </g>
     </g>
    </g>
    <g id="ytick_5">
     <g id="line2d_17">
      <path d="M 0 63.816238 
L 460.8 63.816238 
" clip-path="url(#p292fc833f3)" style="fill: none; stroke: #b0b0b0; stroke-width: 0.8; stroke-linecap: square"/>
     </g>
     <g id="line2d_18">
      <g>
       <use xlink:href="#mae16ba3a2f" x="0" y="63.816238" style="stroke: #000000; stroke-width: 0.8"/>
      </g>
     </g>
    </g>
    <g id="ytick_6">
     <g id="line2d_19">
      <path d="M 0 6.330297 
L 460.8 6.330297 
" clip-path="url(#p292fc833f3)" style="fill: none; stroke: #b0b0b0; stroke-width: 0.8; stroke-linecap: square"/>
     </g>
     <g id="line2d_20">
      <g>
       <use xlink:href="#mae16ba3a2f" x="0" y="6.330297" style="stroke: #000000; stroke-width: 0.8"/>
      </g>
     </g>
    </g>
   </g>
   <g id="line2d_21">
    <path d="M -1 144.296554 
L -0.168471 144.296554 
L -0.168471 138.54796 
L -0.11633 138.54796 
L -0.11633 132.799366 
L -0.11633 132.799366 
L -0.11633 127.050772 
L -0.11633 127.050772 
L -0.11633 121.302178 
L -0.11633 121.302178 
L -0.11633 115.553584 
L -0.11633 115.553584 
L -0.11633 109.80499 
L -0.11633 109.80499 
L -0.11633 104.056396 
L -0.11633 104.056396 
L -0.11633 98.307802 
L -0.11633 98.307802 
L -0.11633 92.559208 
L -0.11633 92.559208 
L -0.11633 86.810614 
L -0.11633 86.810614 
L -0.11633 81.06202 
L 202.249717 81.06202 
L 202.249717 75.313426 
L 215.181239 75.313426 
L 215.181239 69.564832 
L 215.181239 69.564832 
L 215.181239 63.816238 
L 223.284841 63.816238 
L 223.284841 58.067644 
L 224.158156 58.067644 
L 224.158156 52.31905 
L 224.421296 52.31905 
L 224.421296 46.570455 
L 227.159897 46.570455 
L 227.159897 40.821861 
L 227.671483 40.821861 
L 227.671483 35.073267 
L 228.025144 35.073267 
L 228.025144 29.324673 
L 228.025144 29.324673 
L 228.025144 23.576079 
L 228.025144 23.576079 
L 228.025144 17.827485 
L 228.025144 17.827485 
L 228.025144 12.078891 
L 228.025144 12.078891 
L 228.025144 6.330297 
L 228.025144 6.330297 
L 228.025144 6.330297 
L 460.8 6.330297 
" clip-path="url(#p292fc833f3)" style="fill: none; stroke: #ff0000; stroke-width: 3; stroke-linecap: square"/>
   </g>
   <g id="line2d_22">
    <path d="M 244.135969 293.76 
L 244.135969 288.011406 
L 246.352613 288.011406 
L 246.352613 282.262812 
L 248.112097 282.262812 
L 248.112097 276.514218 
L 248.468649 276.514218 
L 248.468649 270.765624 
L 249.445847 270.765624 
L 249.445847 265.01703 
L 250.312229 265.01703 
L 250.312229 259.268436 
L 251.915054 259.268436 
L 251.915054 253.519842 
L 252.397585 253.519842 
L 252.397585 247.771248 
L 255.480132 247.771248 
L 255.480132 242.022653 
L 256.74142 242.022653 
L 256.74142 236.274059 
L 260.910898 236.274059 
L 260.910898 230.525465 
L 265.366285 230.525465 
L 265.366285 224.776871 
L 265.366285 224.776871 
L 265.366285 219.028277 
L 266.957949 219.028277 
L 266.957949 213.279683 
L 267.183118 213.279683 
L 267.183118 207.531089 
L 267.269403 207.531089 
L 267.269403 201.782495 
L 268.190837 201.782495 
L 268.190837 196.033901 
L 268.190837 196.033901 
L 268.190837 190.285307 
L 268.455142 190.285307 
L 268.455142 184.536713 
L 269.260372 184.536713 
L 269.260372 178.788119 
L 269.458468 178.788119 
L 269.458468 173.039525 
L 269.731137 173.039525 
L 269.731137 167.290931 
L 269.959721 167.290931 
L 269.959721 161.542337 
L 269.959721 161.542337 
L 269.959721 155.793743 
L 269.959721 155.793743 
L 269.959721 150.045149 
L 269.959721 150.045149 
L 269.959721 144.296554 
L 270.749079 144.296554 
L 270.749079 138.54796 
L 271.54149 138.54796 
L 271.54149 132.799366 
L 276.437145 132.799366 
L 276.437145 127.050772 
L 276.744453 127.050772 
L 276.744453 121.302178 
L 276.90538 121.302178 
L 276.90538 115.553584 
L 277.085118 115.553584 
L 277.085118 109.80499 
L 278.151704 109.80499 
L 278.151704 104.056396 
L 279.052876 104.056396 
L 279.052876 98.307802 
L 279.095466 98.307802 
L 279.095466 92.559208 
L 279.393192 92.559208 
L 279.393192 86.810614 
L 279.825542 86.810614 
L 279.825542 81.06202 
L 280.326126 81.06202 
L 280.326126 75.313426 
L 281.713627 75.313426 
L 281.713627 69.564832 
L 284.541128 69.564832 
L 284.541128 63.816238 
L 352.570996 63.816238 
L 352.570996 58.067644 
L 358.116776 58.067644 
L 358.116776 52.31905 
L 365.730966 52.31905 
L 365.730966 46.570455 
L 386.414291 46.570455 
L 386.414291 40.821861 
L 393.752745 40.821861 
L 393.752745 35.073267 
L 395.450152 35.073267 
L 395.450152 29.324673 
L 396.522437 29.324673 
L 396.522437 23.576079 
L 396.616096 23.576079 
L 396.616096 17.827485 
L 398.70319 17.827485 
L 398.70319 12.078891 
L 406.200424 12.078891 
L 406.200424 6.330297 
L 406.200424 6.330297 
L 406.200424 6.330297 
L 460.8 6.330297 
" clip-path="url(#p292fc833f3)" style="fill: none; stroke: #00bfbf; stroke-width: 1.5; stroke-linecap: square"/>
   </g>
   <g id="line2d_23">
    <path d="M 236.293192 293.76 
L 236.293192 288.011406 
L 238.045983 288.011406 
L 238.045983 282.262812 
L 244.873127 282.262812 
L 244.873127 276.514218 
L 246.352613 276.514218 
L 246.352613 270.765624 
L 248.112097 270.765624 
L 248.112097 265.01703 
L 248.269513 265.01703 
L 248.269513 259.268436 
L 248.468649 259.268436 
L 248.468649 253.519842 
L 249.445847 253.519842 
L 249.445847 247.771248 
L 251.915054 247.771248 
L 251.915054 242.022653 
L 256.410259 242.022653 
L 256.410259 236.274059 
L 260.237475 236.274059 
L 260.237475 230.525465 
L 260.910898 230.525465 
L 260.910898 224.776871 
L 265.023827 224.776871 
L 265.023827 219.028277 
L 265.366285 219.028277 
L 265.366285 213.279683 
L 265.366285 213.279683 
L 265.366285 207.531089 
L 265.573183 207.531089 
L 265.573183 201.782495 
L 265.932592 201.782495 
L 265.932592 196.033901 
L 266.00652 196.033901 
L 266.00652 190.285307 
L 266.957949 190.285307 
L 266.957949 184.536713 
L 267.183118 184.536713 
L 267.183118 178.788119 
L 267.243422 178.788119 
L 267.243422 173.039525 
L 267.269403 173.039525 
L 267.269403 167.290931 
L 268.190837 167.290931 
L 268.190837 161.542337 
L 268.190837 161.542337 
L 268.190837 155.793743 
L 268.681234 155.793743 
L 268.681234 150.045149 
L 268.95504 150.045149 
L 268.95504 144.296554 
L 269.070001 144.296554 
L 269.070001 138.54796 
L 269.458468 138.54796 
L 269.458468 132.799366 
L 269.731137 132.799366 
L 269.731137 127.050772 
L 271.54149 127.050772 
L 271.54149 121.302178 
L 274.539346 121.302178 
L 274.539346 115.553584 
L 275.511613 115.553584 
L 275.511613 109.80499 
L 276.171712 109.80499 
L 276.171712 104.056396 
L 276.437145 104.056396 
L 276.437145 98.307802 
L 277.085118 98.307802 
L 277.085118 92.559208 
L 278.729555 92.559208 
L 278.729555 86.810614 
L 279.052876 86.810614 
L 279.052876 81.06202 
L 279.095466 81.06202 
L 279.095466 75.313426 
L 279.393192 75.313426 
L 279.393192 69.564832 
L 279.60846 69.564832 
L 279.60846 63.816238 
L 345.294868 63.816238 
L 345.294868 58.067644 
L 348.790054 58.067644 
L 348.790054 52.31905 
L 363.366438 52.31905 
L 363.366438 46.570455 
L 363.487161 46.570455 
L 363.487161 40.821861 
L 368.804939 40.821861 
L 368.804939 35.073267 
L 371.276226 35.073267 
L 371.276226 29.324673 
L 377.953466 29.324673 
L 377.953466 23.576079 
L 380.363736 23.576079 
L 380.363736 17.827485 
L 382.527097 17.827485 
L 382.527097 12.078891 
L 387.22941 12.078891 
L 387.22941 6.330297 
L 387.22941 6.330297 
L 387.22941 6.330297 
L 460.8 6.330297 
" clip-path="url(#p292fc833f3)" style="fill: none; stroke: #bf00bf; stroke-width: 1.5; stroke-linecap: square"/>
   </g>
   <g id="line2d_24">
    <path d="M 220.008498 293.76 
L 220.008498 288.011406 
L 233.304054 288.011406 
L 233.304054 282.262812 
L 236.293192 282.262812 
L 236.293192 276.514218 
L 239.803364 276.514218 
L 239.803364 270.765624 
L 240.795285 270.765624 
L 240.795285 265.01703 
L 242.056223 265.01703 
L 242.056223 259.268436 
L 242.311147 259.268436 
L 242.311147 253.519842 
L 244.480302 253.519842 
L 244.480302 247.771248 
L 244.533023 247.771248 
L 244.533023 242.022653 
L 247.131419 242.022653 
L 247.131419 236.274059 
L 247.651225 236.274059 
L 247.651225 230.525465 
L 251.38806 230.525465 
L 251.38806 224.776871 
L 257.228095 224.776871 
L 257.228095 219.028277 
L 259.234272 219.028277 
L 259.234272 213.279683 
L 260.237475 213.279683 
L 260.237475 207.531089 
L 260.341943 207.531089 
L 260.341943 201.782495 
L 261.776759 201.782495 
L 261.776759 196.033901 
L 261.848107 196.033901 
L 261.848107 190.285307 
L 262.937783 190.285307 
L 262.937783 184.536713 
L 263.276094 184.536713 
L 263.276094 178.788119 
L 263.738706 178.788119 
L 263.738706 173.039525 
L 265.023827 173.039525 
L 265.023827 167.290931 
L 265.366285 167.290931 
L 265.366285 161.542337 
L 265.366285 161.542337 
L 265.366285 155.793743 
L 265.61115 155.793743 
L 265.61115 150.045149 
L 265.932592 150.045149 
L 265.932592 144.296554 
L 266.911357 144.296554 
L 266.911357 138.54796 
L 267.304964 138.54796 
L 267.304964 132.799366 
L 268.842356 132.799366 
L 268.842356 127.050772 
L 268.896058 127.050772 
L 268.896058 121.302178 
L 268.95504 121.302178 
L 268.95504 115.553584 
L 269.458468 115.553584 
L 269.458468 109.80499 
L 270.28064 109.80499 
L 270.28064 104.056396 
L 270.407234 104.056396 
L 270.407234 98.307802 
L 271.749096 98.307802 
L 271.749096 92.559208 
L 273.22609 92.559208 
L 273.22609 86.810614 
L 273.901143 86.810614 
L 273.901143 81.06202 
L 276.437145 81.06202 
L 276.437145 75.313426 
L 277.085118 75.313426 
L 277.085118 69.564832 
L 278.729555 69.564832 
L 278.729555 63.816238 
L 344.808092 63.816238 
L 344.808092 58.067644 
L 345.294868 58.067644 
L 345.294868 52.31905 
L 348.790054 52.31905 
L 348.790054 46.570455 
L 351.439194 46.570455 
L 351.439194 40.821861 
L 361.538718 40.821861 
L 361.538718 35.073267 
L 364.36007 35.073267 
L 364.36007 29.324673 
L 366.751029 29.324673 
L 366.751029 23.576079 
L 376.324692 23.576079 
L 376.324692 17.827485 
L 377.831805 17.827485 
L 377.831805 12.078891 
L 377.953466 12.078891 
L 377.953466 6.330297 
L 377.953466 6.330297 
L 377.953466 6.330297 
L 460.8 6.330297 
" clip-path="url(#p292fc833f3)" style="fill: none; stroke: #000000; stroke-width: 1.5; stroke-linecap: square"/>
   </g>
   <g id="line2d_25">
    <path d="M -0.11633 293.76 
L -0.11633 288.011406 
L -0.11633 288.011406 
L -0.11633 282.262812 
L -0.11633 282.262812 
L -0.11633 276.514218 
L 220.008498 276.514218 
L 220.008498 270.765624 
L 221.695089 270.765624 
L 221.695089 265.01703 
L 221.702279 265.01703 
L 221.702279 259.268436 
L 221.853266 259.268436 
L 221.853266 253.519842 
L 222.894939 253.519842 
L 222.894939 247.771248 
L 226.596733 247.771248 
L 226.596733 242.022653 
L 229.571083 242.022653 
L 229.571083 236.274059 
L 231.828448 236.274059 
L 231.828448 230.525465 
L 233.135641 230.525465 
L 233.135641 224.776871 
L 237.089987 224.776871 
L 237.089987 219.028277 
L 238.224267 219.028277 
L 238.224267 213.279683 
L 242.111819 213.279683 
L 242.111819 207.531089 
L 245.20149 207.531089 
L 245.20149 201.782495 
L 245.737267 201.782495 
L 245.737267 196.033901 
L 248.020802 196.033901 
L 248.020802 190.285307 
L 254.200316 190.285307 
L 254.200316 184.536713 
L 255.044529 184.536713 
L 255.044529 178.788119 
L 255.981404 178.788119 
L 255.981404 173.039525 
L 256.957366 173.039525 
L 256.957366 167.290931 
L 259.78239 167.290931 
L 259.78239 161.542337 
L 260.237475 161.542337 
L 260.237475 155.793743 
L 260.669542 155.793743 
L 260.669542 150.045149 
L 261.848107 150.045149 
L 261.848107 144.296554 
L 261.872291 144.296554 
L 261.872291 138.54796 
L 262.127964 138.54796 
L 262.127964 132.799366 
L 262.247504 132.799366 
L 262.247504 127.050772 
L 262.331337 127.050772 
L 262.331337 121.302178 
L 263.245742 121.302178 
L 263.245742 115.553584 
L 263.91618 115.553584 
L 263.91618 109.80499 
L 264.397634 109.80499 
L 264.397634 104.056396 
L 264.416465 104.056396 
L 264.416465 98.307802 
L 264.772113 98.307802 
L 264.772113 92.559208 
L 264.822604 92.559208 
L 264.822604 86.810614 
L 265.15798 86.810614 
L 265.15798 81.06202 
L 265.366285 81.06202 
L 265.366285 75.313426 
L 266.104695 75.313426 
L 266.104695 69.564832 
L 270.28064 69.564832 
L 270.28064 63.816238 
L 311.502629 63.816238 
L 311.502629 58.067644 
L 326.128517 58.067644 
L 326.128517 52.31905 
L 331.74287 52.31905 
L 331.74287 46.570455 
L 332.293658 46.570455 
L 332.293658 40.821861 
L 335.684812 40.821861 
L 335.684812 35.073267 
L 338.968115 35.073267 
L 338.968115 29.324673 
L 343.153385 29.324673 
L 343.153385 23.576079 
L 346.810588 23.576079 
L 346.810588 17.827485 
L 361.330173 17.827485 
L 361.330173 12.078891 
L 364.168356 12.078891 
L 364.168356 6.330297 
L 364.168356 6.330297 
L 364.168356 6.330297 
L 460.8 6.330297 
" clip-path="url(#p292fc833f3)" style="fill: none; stroke: #00bfbf; stroke-width: 1.5; stroke-linecap: square"/>
   </g>
   <g id="line2d_26">
    <path d="M -0.11633 293.76 
L -0.11633 288.011406 
L -0.11633 288.011406 
L -0.11633 282.262812 
L -0.11633 282.262812 
L -0.11633 276.514218 
L -0.11633 276.514218 
L -0.11633 270.765624 
L -0.11633 270.765624 
L -0.11633 265.01703 
L -0.11633 265.01703 
L -0.11633 259.268436 
L -0.11633 259.268436 
L -0.11633 253.519842 
L -0.11633 253.519842 
L -0.11633 247.771248 
L -0.11633 247.771248 
L -0.11633 242.022653 
L -0.11633 242.022653 
L -0.11633 236.274059 
L 59.22148 236.274059 
L 59.22148 230.525465 
L 68.97116 230.525465 
L 68.97116 224.776871 
L 75.308273 224.776871 
L 75.308273 219.028277 
L 75.527191 219.028277 
L 75.527191 213.279683 
L 81.757002 213.279683 
L 81.757002 207.531089 
L 87.113999 207.531089 
L 87.113999 201.782495 
L 92.233269 201.782495 
L 92.233269 196.033901 
L 93.870172 196.033901 
L 93.870172 190.285307 
L 99.119252 190.285307 
L 99.119252 184.536713 
L 105.458908 184.536713 
L 105.458908 178.788119 
L 215.753264 178.788119 
L 215.753264 173.039525 
L 216.18431 173.039525 
L 216.18431 167.290931 
L 228.174864 167.290931 
L 228.174864 161.542337 
L 228.710485 161.542337 
L 228.710485 155.793743 
L 236.202584 155.793743 
L 236.202584 150.045149 
L 236.508394 150.045149 
L 236.508394 144.296554 
L 237.55975 144.296554 
L 237.55975 138.54796 
L 237.849743 138.54796 
L 237.849743 132.799366 
L 238.617566 132.799366 
L 238.617566 127.050772 
L 238.93094 127.050772 
L 238.93094 121.302178 
L 238.95758 121.302178 
L 238.95758 115.553584 
L 239.241589 115.553584 
L 239.241589 109.80499 
L 239.889463 109.80499 
L 239.889463 104.056396 
L 240.946457 104.056396 
L 240.946457 98.307802 
L 241.089886 98.307802 
L 241.089886 92.559208 
L 241.241806 92.559208 
L 241.241806 86.810614 
L 244.721481 86.810614 
L 244.721481 81.06202 
L 245.864205 81.06202 
L 245.864205 75.313426 
L 245.952049 75.313426 
L 245.952049 69.564832 
L 246.164873 69.564832 
L 246.164873 63.816238 
L 246.81465 63.816238 
L 246.81465 58.067644 
L 246.958844 58.067644 
L 246.958844 52.31905 
L 247.478881 52.31905 
L 247.478881 46.570455 
L 248.24558 46.570455 
L 248.24558 40.821861 
L 248.814483 40.821861 
L 248.814483 35.073267 
L 253.604449 35.073267 
L 253.604449 29.324673 
L 258.269471 29.324673 
L 258.269471 23.576079 
L 271.955835 23.576079 
L 271.955835 17.827485 
L 272.596843 17.827485 
L 272.596843 12.078891 
L 274.673285 12.078891 
L 274.673285 6.330297 
L 274.673285 6.330297 
L 274.673285 6.330297 
L 460.8 6.330297 
" clip-path="url(#p292fc833f3)" style="fill: none; stroke: #bf00bf; stroke-width: 1.5; stroke-linecap: square"/>
   </g>
   <g id="line2d_27">
    <path d="M -1 178.788119 
L -0.168471 178.788119 
L -0.168471 173.039525 
L -0.11633 173.039525 
L -0.11633 167.290931 
L -0.11633 167.290931 
L -0.11633 161.542337 
L -0.11633 161.542337 
L -0.11633 155.793743 
L -0.11633 155.793743 
L -0.11633 150.045149 
L -0.11633 150.045149 
L -0.11633 144.296554 
L -0.11633 144.296554 
L -0.11633 138.54796 
L -0.11633 138.54796 
L -0.11633 132.799366 
L -0.11633 132.799366 
L -0.11633 127.050772 
L -0.11633 127.050772 
L -0.11633 121.302178 
L -0.11633 121.302178 
L -0.11633 115.553584 
L 215.181239 115.553584 
L 215.181239 109.80499 
L 215.181239 109.80499 
L 215.181239 104.056396 
L 223.284841 104.056396 
L 223.284841 98.307802 
L 223.284841 98.307802 
L 223.284841 92.559208 
L 228.025144 92.559208 
L 228.025144 86.810614 
L 228.025144 86.810614 
L 228.025144 81.06202 
L 228.025144 81.06202 
L 228.025144 75.313426 
L 228.025144 75.313426 
L 228.025144 69.564832 
L 228.025144 69.564832 
L 228.025144 63.816238 
L 228.025144 63.816238 
L 228.025144 58.067644 
L 231.388428 58.067644 
L 231.388428 52.31905 
L 231.388442 52.31905 
L 231.388442 46.570455 
L 231.388442 46.570455 
L 231.388442 40.821861 
L 231.388442 40.821861 
L 231.388442 35.073267 
L 236.128735 35.073267 
L 236.128735 29.324673 
L 236.128735 29.324673 
L 236.128735 23.576079 
L 236.128735 23.576079 
L 236.128735 17.827485 
L 242.100809 17.827485 
L 242.100809 12.078891 
L 242.579262 12.078891 
L 242.579262 6.330297 
L 242.579262 6.330297 
L 242.579262 6.330297 
L 460.8 6.330297 
" clip-path="url(#p292fc833f3)" style="fill: none; stroke: #000000; stroke-width: 1.5; stroke-linecap: square"/>
   </g>
   <g id="line2d_28">
    <path d="M -1 144.296554 
L -0.168471 144.296554 
L -0.168471 138.54796 
L -0.11633 138.54796 
L -0.11633 132.799366 
L -0.11633 132.799366 
L -0.11633 127.050772 
L -0.11633 127.050772 
L -0.11633 121.302178 
L -0.11633 121.302178 
L -0.11633 115.553584 
L -0.11633 115.553584 
L -0.11633 109.80499 
L -0.11633 109.80499 
L -0.11633 104.056396 
L -0.11633 104.056396 
L -0.11633 98.307802 
L -0.11633 98.307802 
L -0.11633 92.559208 
L -0.11633 92.559208 
L -0.11633 86.810614 
L -0.11633 86.810614 
L -0.11633 81.06202 
L 215.181239 81.06202 
L 215.181239 75.313426 
L 215.181239 75.313426 
L 215.181239 69.564832 
L 223.284841 69.564832 
L 223.284841 63.816238 
L 223.284841 63.816238 
L 223.284841 58.067644 
L 224.158156 58.067644 
L 224.158156 52.31905 
L 228.025144 52.31905 
L 228.025144 46.570455 
L 228.025144 46.570455 
L 228.025144 40.821861 
L 228.025144 40.821861 
L 228.025144 35.073267 
L 228.025144 35.073267 
L 228.025144 29.324673 
L 228.025144 29.324673 
L 228.025144 23.576079 
L 228.025144 23.576079 
L 228.025144 17.827485 
L 228.025144 17.827485 
L 228.025144 12.078891 
L 229.564479 12.078891 
L 229.564479 6.330297 
L 229.564479 6.330297 
L 229.564479 6.330297 
L 460.8 6.330297 
" clip-path="url(#p292fc833f3)" style="fill: none; stroke: #00bfbf; stroke-width: 1.5; stroke-linecap: square"/>
   </g>
   <g id="line2d_29">
    <path d="M -1 144.296554 
L -0.168471 144.296554 
L -0.168471 138.54796 
L -0.11633 138.54796 
L -0.11633 132.799366 
L -0.11633 132.799366 
L -0.11633 127.050772 
L -0.11633 127.050772 
L -0.11633 121.302178 
L -0.11633 121.302178 
L -0.11633 115.553584 
L -0.11633 115.553584 
L -0.11633 109.80499 
L -0.11633 109.80499 
L -0.11633 104.056396 
L -0.11633 104.056396 
L -0.11633 98.307802 
L -0.11633 98.307802 
L -0.11633 92.559208 
L -0.11633 92.559208 
L -0.11633 86.810614 
L -0.11633 86.810614 
L -0.11633 81.06202 
L 202.249717 81.06202 
L 202.249717 75.313426 
L 215.181239 75.313426 
L 215.181239 69.564832 
L 215.181239 69.564832 
L 215.181239 63.816238 
L 223.284841 63.816238 
L 223.284841 58.067644 
L 224.158156 58.067644 
L 224.158156 52.31905 
L 224.421296 52.31905 
L 224.421296 46.570455 
L 227.159897 46.570455 
L 227.159897 40.821861 
L 227.671483 40.821861 
L 227.671483 35.073267 
L 228.025144 35.073267 
L 228.025144 29.324673 
L 228.025144 29.324673 
L 228.025144 23.576079 
L 228.025144 23.576079 
L 228.025144 17.827485 
L 228.025144 17.827485 
L 228.025144 12.078891 
L 228.025144 12.078891 
L 228.025144 6.330297 
L 228.025144 6.330297 
L 228.025144 6.330297 
L 460.8 6.330297 
" clip-path="url(#p292fc833f3)" style="fill: none; stroke: #bf00bf; stroke-width: 1.5; stroke-linecap: square"/>
   </g>
   <g id="patch_3">
    <path d="M 0 293.76 
L 0 3.456 
" style="fill: none; stroke: #000000; stroke-width: 0.8; stroke-linejoin: miter; stroke-linecap: square"/>
   </g>
   <g id="patch_4">
    <path d="M 460.8 293.76 
L 460.8 3.456 
" style="fill: none; stroke: #000000; stroke-width: 0.8; stroke-linejoin: miter; stroke-linecap: square"/>
   </g>
   <g id="patch_5">
    <path d="M 0 293.76 
L 460.8 293.76 
" style="fill: none; stroke: #000000; stroke-width: 0.8; stroke-linejoin: miter; stroke-linecap: square"/>
   </g>
   <g id="patch_6">
    <path d="M 0 3.456 
L 460.8 3.456 
" style="fill: none; stroke: #000000; stroke-width: 0.8; stroke-linejoin: miter; stroke-linecap: square"/>
   </g>
   <g id="text_6">
    <!-- {f1-f5}, 5-D -->
    <g transform="translate(331.334 287.95392)scale(0.2 -0.2)">
     <defs>
      <path id="DejaVuSans-7b" d="M 3272 -594 
L 3272 -1044 
L 3078 -1044 
Q 2300 -1044 2036 -812 
Q 1772 -581 1772 109 
L 1772 856 
Q 1772 1328 1603 1509 
Q 1434 1691 991 1691 
L 800 1691 
L 800 2138 
L 991 2138 
Q 1438 2138 1605 2317 
Q 1772 2497 1772 2963 
L 1772 3713 
Q 1772 4403 2036 4633 
Q 2300 4863 3078 4863 
L 3272 4863 
L 3272 4416 
L 3059 4416 
Q 2619 4416 2484 4278 
Q 2350 4141 2350 3700 
L 2350 2925 
Q 2350 2434 2208 2212 
Q 2066 1991 1722 1913 
Q 2069 1828 2209 1606 
Q 2350 1384 2350 897 
L 2350 122 
Q 2350 -319 2484 -456 
Q 2619 -594 3059 -594 
L 3272 -594 
z
" transform="scale(0.015625)"/>
      <path id="DejaVuSans-35" d="M 691 4666 
L 3169 4666 
L 3169 4134 
L 1269 4134 
L 1269 2991 
Q 1406 3038 1543 3061 
Q 1681 3084 1819 3084 
Q 2600 3084 3056 2656 
Q 3513 2228 3513 1497 
Q 3513 744 3044 326 
Q 2575 -91 1722 -91 
Q 1428 -91 1123 -41 
Q 819 9 494 109 
L 494 744 
Q 775 591 1075 516 
Q 1375 441 1709 441 
Q 2250 441 2565 725 
Q 2881 1009 2881 1497 
Q 2881 1984 2565 2268 
Q 2250 2553 1709 2553 
Q 1456 2553 1204 2497 
Q 953 2441 691 2322 
L 691 4666 
z
" transform="scale(0.015625)"/>
      <path id="DejaVuSans-7d" d="M 800 -594 
L 1019 -594 
Q 1456 -594 1589 -459 
Q 1722 -325 1722 122 
L 1722 897 
Q 1722 1384 1862 1606 
Q 2003 1828 2350 1913 
Q 2003 1991 1862 2212 
Q 1722 2434 1722 2925 
L 1722 3700 
Q 1722 4144 1589 4280 
Q 1456 4416 1019 4416 
L 800 4416 
L 800 4863 
L 997 4863 
Q 1775 4863 2036 4633 
Q 2297 4403 2297 3713 
L 2297 2963 
Q 2297 2497 2465 2317 
Q 2634 2138 3078 2138 
L 3272 2138 
L 3272 1691 
L 3078 1691 
Q 2634 1691 2465 1509 
Q 2297 1328 2297 856 
L 2297 109 
Q 2297 -581 2036 -812 
Q 1775 -1044 997 -1044 
L 800 -1044 
L 800 -594 
z
" transform="scale(0.015625)"/>
      <path id="DejaVuSans-2c" d="M 750 794 
L 1409 794 
L 1409 256 
L 897 -744 
L 494 -744 
L 750 256 
L 750 794 
z
" transform="scale(0.015625)"/>
     </defs>
     <use xlink:href="#DejaVuSans-7b"/>
     <use xlink:href="#DejaVuSans-66" x="63.623047"/>
     <use xlink:href="#DejaVuSans-31" x="98.828125"/>
     <use xlink:href="#DejaVuSans-2d" x="162.451172"/>
     <use xlink:href="#DejaVuSans-66" x="198.535156"/>
     <use xlink:href="#DejaVuSans-35" x="233.740234"/>
     <use xlink:href="#DejaVuSans-7d" x="297.363281"/>
     <use xlink:href="#DejaVuSans-2c" x="360.986328"/>
     <use xlink:href="#DejaVuSans-20" x="392.773438"/>
     <use xlink:href="#DejaVuSans-35" x="424.560547"/>
     <use xlink:href="#DejaVuSans-2d" x="488.183594"/>
     <use xlink:href="#DejaVuSans-44" x="524.267578"/>
    </g>
   </g>
   <g id="text_7">
    <!-- v2.6.3 -->
    <g style="fill: #808080" transform="translate(214.71875 288.777272)scale(0.1 -0.1)">
     <defs>
      <path id="DejaVuSans-76" d="M 191 3500 
L 800 3500 
L 1894 563 
L 2988 3500 
L 3597 3500 
L 2284 0 
L 1503 0 
L 191 3500 
z
" transform="scale(0.015625)"/>
      <path id="DejaVuSans-32" d="M 1228 531 
L 3431 531 
L 3431 0 
L 469 0 
L 469 531 
Q 828 903 1448 1529 
Q 2069 2156 2228 2338 
Q 2531 2678 2651 2914 
Q 2772 3150 2772 3378 
Q 2772 3750 2511 3984 
Q 2250 4219 1831 4219 
Q 1534 4219 1204 4116 
Q 875 4013 500 3803 
L 500 4441 
Q 881 4594 1212 4672 
Q 1544 4750 1819 4750 
Q 2544 4750 2975 4387 
Q 3406 4025 3406 3419 
Q 3406 3131 3298 2873 
Q 3191 2616 2906 2266 
Q 2828 2175 2409 1742 
Q 1991 1309 1228 531 
z
" transform="scale(0.015625)"/>
      <path id="DejaVuSans-2e" d="M 684 794 
L 1344 794 
L 1344 0 
L 684 0 
L 684 794 
z
" transform="scale(0.015625)"/>
      <path id="DejaVuSans-36" d="M 2113 2584 
Q 1688 2584 1439 2293 
Q 1191 2003 1191 1497 
Q 1191 994 1439 701 
Q 1688 409 2113 409 
Q 2538 409 2786 701 
Q 3034 994 3034 1497 
Q 3034 2003 2786 2293 
Q 2538 2584 2113 2584 
z
M 3366 4563 
L 3366 3988 
Q 3128 4100 2886 4159 
Q 2644 4219 2406 4219 
Q 1781 4219 1451 3797 
Q 1122 3375 1075 2522 
Q 1259 2794 1537 2939 
Q 1816 3084 2150 3084 
Q 2853 3084 3261 2657 
Q 3669 2231 3669 1497 
Q 3669 778 3244 343 
Q 2819 -91 2113 -91 
Q 1303 -91 875 529 
Q 447 1150 447 2328 
Q 447 3434 972 4092 
Q 1497 4750 2381 4750 
Q 2619 4750 2861 4703 
Q 3103 4656 3366 4563 
z
" transform="scale(0.015625)"/>
      <path id="DejaVuSans-33" d="M 2597 2516 
Q 3050 2419 3304 2112 
Q 3559 1806 3559 1356 
Q 3559 666 3084 287 
Q 2609 -91 1734 -91 
Q 1441 -91 1130 -33 
Q 819 25 488 141 
L 488 750 
Q 750 597 1062 519 
Q 1375 441 1716 441 
Q 2309 441 2620 675 
Q 2931 909 2931 1356 
Q 2931 1769 2642 2001 
Q 2353 2234 1838 2234 
L 1294 2234 
L 1294 2753 
L 1863 2753 
Q 2328 2753 2575 2939 
Q 2822 3125 2822 3475 
Q 2822 3834 2567 4026 
Q 2313 4219 1838 4219 
Q 1578 4219 1281 4162 
Q 984 4106 628 3988 
L 628 4550 
Q 988 4650 1302 4700 
Q 1616 4750 1894 4750 
Q 2613 4750 3031 4423 
Q 3450 4097 3450 3541 
Q 3450 3153 3228 2886 
Q 3006 2619 2597 2516 
z
" transform="scale(0.015625)"/>
     </defs>
     <use xlink:href="#DejaVuSans-76"/>
     <use xlink:href="#DejaVuSans-32" x="59.179688"/>
     <use xlink:href="#DejaVuSans-2e" x="122.802734"/>
     <use xlink:href="#DejaVuSans-36" x="154.589844"/>
     <use xlink:href="#DejaVuSans-2e" x="218.212891"/>
     <use xlink:href="#DejaVuSans-33" x="250"/>
    </g>
   </g>
  </g>
 </g>
 <defs>
  <clipPath id="p292fc833f3">
   <rect x="0" y="3.456" width="460.8" height="290.304"/>
  </clipPath>
 </defs>
</svg>
