<?xml version="1.0" encoding="utf-8" standalone="no"?>
<!DOCTYPE svg PUBLIC "-//W3C//DTD SVG 1.1//EN"
  "http://www.w3.org/Graphics/SVG/1.1/DTD/svg11.dtd">
<svg xmlns:xlink="http://www.w3.org/1999/xlink" width="460.8pt" height="345.6pt" viewBox="0 0 460.8 345.6" xmlns="http://www.w3.org/2000/svg" version="1.1">
 <metadata>
  <rdf:RDF xmlns:dc="http://purl.org/dc/elements/1.1/" xmlns:cc="http://creativecommons.org/ns#" xmlns:rdf="http://www.w3.org/1999/02/22-rdf-syntax-ns#">
   <cc:Work>
    <dc:type rdf:resource="http://purl.org/dc/dcmitype/StillImage"/>
    <dc:date>2023-04-07T14:47:11.159424</dc:date>
    <dc:format>image/svg+xml</dc:format>
    <dc:creator>
     <cc:Agent>
      <dc:title>Matplotlib v3.5.2, https://matplotlib.org/</dc:title>
     </cc:Agent>
    </dc:creator>
   </cc:Work>
  </rdf:RDF>
 </metadata>
 <defs>
  <style type="text/css">*{stroke-linejoin: round; stroke-linecap: butt}</style>
 </defs>
 <g id="figure_1">
  <g id="patch_1">
   <path d="M 0 345.6 
L 460.8 345.6 
L 460.8 0 
L 0 0 
z
" style="fill: #ffffff"/>
  </g>
  <g id="axes_1">
   <g id="patch_2">
    <path d="M 0 293.76 
L 460.8 293.76 
L 460.8 3.456 
L 0 3.456 
z
" style="fill: #ffffff"/>
   </g>
   <g id="matplotlib.axis_1">
    <g id="xtick_1">
     <g id="line2d_1">
      <path d="M 105.70709 293.76 
L 105.70709 3.456 
" clip-path="url(#p3b9a5f9d6c)" style="fill: none; stroke: #b0b0b0; stroke-width: 0.8; stroke-linecap: square"/>
     </g>
     <g id="line2d_2">
      <defs>
       <path id="m681546a91d" d="M 0 0 
L 0 3.5 
" style="stroke: #000000; stroke-width: 0.8"/>
      </defs>
      <g>
       <use xlink:href="#m681546a91d" x="105.70709" y="293.76" style="stroke: #000000; stroke-width: 0.8"/>
      </g>
     </g>
     <g id="text_1">
      <!-- -4 -->
      <g transform="translate(95.736778 315.956875)scale(0.2 -0.2)">
       <defs>
        <path id="DejaVuSans-2d" d="M 313 2009 
L 1997 2009 
L 1997 1497 
L 313 1497 
L 313 2009 
z
" transform="scale(0.015625)"/>
        <path id="DejaVuSans-34" d="M 2419 4116 
L 825 1625 
L 2419 1625 
L 2419 4116 
z
M 2253 4666 
L 3047 4666 
L 3047 1625 
L 3713 1625 
L 3713 1100 
L 3047 1100 
L 3047 0 
L 2419 0 
L 2419 1100 
L 313 1100 
L 313 1709 
L 2253 4666 
z
" transform="scale(0.015625)"/>
       </defs>
       <use xlink:href="#DejaVuSans-2d"/>
       <use xlink:href="#DejaVuSans-34" x="36.083984"/>
      </g>
     </g>
    </g>
    <g id="xtick_2">
     <g id="line2d_3">
      <path d="M 211.528504 293.76 
L 211.528504 3.456 
" clip-path="url(#p3b9a5f9d6c)" style="fill: none; stroke: #b0b0b0; stroke-width: 0.8; stroke-linecap: square"/>
     </g>
     <g id="line2d_4">
      <g>
       <use xlink:href="#m681546a91d" x="211.528504" y="293.76" style="stroke: #000000; stroke-width: 0.8"/>
      </g>
     </g>
     <g id="text_2">
      <!-- 0 -->
      <g transform="translate(205.166004 315.956875)scale(0.2 -0.2)">
       <defs>
        <path id="DejaVuSans-30" d="M 2034 4250 
Q 1547 4250 1301 3770 
Q 1056 3291 1056 2328 
Q 1056 1369 1301 889 
Q 1547 409 2034 409 
Q 2525 409 2770 889 
Q 3016 1369 3016 2328 
Q 3016 3291 2770 3770 
Q 2525 4250 2034 4250 
z
M 2034 4750 
Q 2819 4750 3233 4129 
Q 3647 3509 3647 2328 
Q 3647 1150 3233 529 
Q 2819 -91 2034 -91 
Q 1250 -91 836 529 
Q 422 1150 422 2328 
Q 422 3509 836 4129 
Q 1250 4750 2034 4750 
z
" transform="scale(0.015625)"/>
       </defs>
       <use xlink:href="#DejaVuSans-30"/>
      </g>
     </g>
    </g>
    <g id="xtick_3">
     <g id="line2d_5">
      <path d="M 317.349917 293.76 
L 317.349917 3.456 
" clip-path="url(#p3b9a5f9d6c)" style="fill: none; stroke: #b0b0b0; stroke-width: 0.8; stroke-linecap: square"/>
     </g>
     <g id="line2d_6">
      <g>
       <use xlink:href="#m681546a91d" x="317.349917" y="293.76" style="stroke: #000000; stroke-width: 0.8"/>
      </g>
     </g>
     <g id="text_3">
      <!-- 4 -->
      <g transform="translate(310.987417 315.956875)scale(0.2 -0.2)">
       <use xlink:href="#DejaVuSans-34"/>
      </g>
     </g>
    </g>
    <g id="xtick_4">
     <g id="line2d_7">
      <path d="M 423.171331 293.76 
L 423.171331 3.456 
" clip-path="url(#p3b9a5f9d6c)" style="fill: none; stroke: #b0b0b0; stroke-width: 0.8; stroke-linecap: square"/>
     </g>
     <g id="line2d_8">
      <g>
       <use xlink:href="#m681546a91d" x="423.171331" y="293.76" style="stroke: #000000; stroke-width: 0.8"/>
      </g>
     </g>
     <g id="text_4">
      <!-- 8 -->
      <g transform="translate(416.808831 315.956875)scale(0.2 -0.2)">
       <defs>
        <path id="DejaVuSans-38" d="M 2034 2216 
Q 1584 2216 1326 1975 
Q 1069 1734 1069 1313 
Q 1069 891 1326 650 
Q 1584 409 2034 409 
Q 2484 409 2743 651 
Q 3003 894 3003 1313 
Q 3003 1734 2745 1975 
Q 2488 2216 2034 2216 
z
M 1403 2484 
Q 997 2584 770 2862 
Q 544 3141 544 3541 
Q 544 4100 942 4425 
Q 1341 4750 2034 4750 
Q 2731 4750 3128 4425 
Q 3525 4100 3525 3541 
Q 3525 3141 3298 2862 
Q 3072 2584 2669 2484 
Q 3125 2378 3379 2068 
Q 3634 1759 3634 1313 
Q 3634 634 3220 271 
Q 2806 -91 2034 -91 
Q 1263 -91 848 271 
Q 434 634 434 1313 
Q 434 1759 690 2068 
Q 947 2378 1403 2484 
z
M 1172 3481 
Q 1172 3119 1398 2916 
Q 1625 2713 2034 2713 
Q 2441 2713 2670 2916 
Q 2900 3119 2900 3481 
Q 2900 3844 2670 4047 
Q 2441 4250 2034 4250 
Q 1625 4250 1398 4047 
Q 1172 3844 1172 3481 
z
" transform="scale(0.015625)"/>
       </defs>
       <use xlink:href="#DejaVuSans-38"/>
      </g>
     </g>
    </g>
    <g id="text_5">
     <!-- log10 of Df -->
     <g transform="translate(175.214063 339.313125)scale(0.2 -0.2)">
      <defs>
       <path id="DejaVuSans-6c" d="M 603 4863 
L 1178 4863 
L 1178 0 
L 603 0 
L 603 4863 
z
" transform="scale(0.015625)"/>
       <path id="DejaVuSans-6f" d="M 1959 3097 
Q 1497 3097 1228 2736 
Q 959 2375 959 1747 
Q 959 1119 1226 758 
Q 1494 397 1959 397 
Q 2419 397 2687 759 
Q 2956 1122 2956 1747 
Q 2956 2369 2687 2733 
Q 2419 3097 1959 3097 
z
M 1959 3584 
Q 2709 3584 3137 3096 
Q 3566 2609 3566 1747 
Q 3566 888 3137 398 
Q 2709 -91 1959 -91 
Q 1206 -91 779 398 
Q 353 888 353 1747 
Q 353 2609 779 3096 
Q 1206 3584 1959 3584 
z
" transform="scale(0.015625)"/>
       <path id="DejaVuSans-67" d="M 2906 1791 
Q 2906 2416 2648 2759 
Q 2391 3103 1925 3103 
Q 1463 3103 1205 2759 
Q 947 2416 947 1791 
Q 947 1169 1205 825 
Q 1463 481 1925 481 
Q 2391 481 2648 825 
Q 2906 1169 2906 1791 
z
M 3481 434 
Q 3481 -459 3084 -895 
Q 2688 -1331 1869 -1331 
Q 1566 -1331 1297 -1286 
Q 1028 -1241 775 -1147 
L 775 -588 
Q 1028 -725 1275 -790 
Q 1522 -856 1778 -856 
Q 2344 -856 2625 -561 
Q 2906 -266 2906 331 
L 2906 616 
Q 2728 306 2450 153 
Q 2172 0 1784 0 
Q 1141 0 747 490 
Q 353 981 353 1791 
Q 353 2603 747 3093 
Q 1141 3584 1784 3584 
Q 2172 3584 2450 3431 
Q 2728 3278 2906 2969 
L 2906 3500 
L 3481 3500 
L 3481 434 
z
" transform="scale(0.015625)"/>
       <path id="DejaVuSans-31" d="M 794 531 
L 1825 531 
L 1825 4091 
L 703 3866 
L 703 4441 
L 1819 4666 
L 2450 4666 
L 2450 531 
L 3481 531 
L 3481 0 
L 794 0 
L 794 531 
z
" transform="scale(0.015625)"/>
       <path id="DejaVuSans-20" transform="scale(0.015625)"/>
       <path id="DejaVuSans-66" d="M 2375 4863 
L 2375 4384 
L 1825 4384 
Q 1516 4384 1395 4259 
Q 1275 4134 1275 3809 
L 1275 3500 
L 2222 3500 
L 2222 3053 
L 1275 3053 
L 1275 0 
L 697 0 
L 697 3053 
L 147 3053 
L 147 3500 
L 697 3500 
L 697 3744 
Q 697 4328 969 4595 
Q 1241 4863 1831 4863 
L 2375 4863 
z
" transform="scale(0.015625)"/>
       <path id="DejaVuSans-44" d="M 1259 4147 
L 1259 519 
L 2022 519 
Q 2988 519 3436 956 
Q 3884 1394 3884 2338 
Q 3884 3275 3436 3711 
Q 2988 4147 2022 4147 
L 1259 4147 
z
M 628 4666 
L 1925 4666 
Q 3281 4666 3915 4102 
Q 4550 3538 4550 2338 
Q 4550 1131 3912 565 
Q 3275 0 1925 0 
L 628 0 
L 628 4666 
z
" transform="scale(0.015625)"/>
      </defs>
      <use xlink:href="#DejaVuSans-6c"/>
      <use xlink:href="#DejaVuSans-6f" x="27.783203"/>
      <use xlink:href="#DejaVuSans-67" x="88.964844"/>
      <use xlink:href="#DejaVuSans-31" x="152.441406"/>
      <use xlink:href="#DejaVuSans-30" x="216.064453"/>
      <use xlink:href="#DejaVuSans-20" x="279.6875"/>
      <use xlink:href="#DejaVuSans-6f" x="311.474609"/>
      <use xlink:href="#DejaVuSans-66" x="372.65625"/>
      <use xlink:href="#DejaVuSans-20" x="407.861328"/>
      <use xlink:href="#DejaVuSans-44" x="439.648438"/>
      <use xlink:href="#DejaVuSans-66" x="516.650391"/>
     </g>
    </g>
   </g>
   <g id="matplotlib.axis_2">
    <g id="ytick_1">
     <g id="line2d_9">
      <path d="M 0 293.76 
L 460.8 293.76 
" clip-path="url(#p3b9a5f9d6c)" style="fill: none; stroke: #b0b0b0; stroke-width: 0.8; stroke-linecap: square"/>
     </g>
     <g id="line2d_10">
      <defs>
       <path id="m608cd3b6d8" d="M 0 0 
L -3.5 0 
" style="stroke: #000000; stroke-width: 0.8"/>
      </defs>
      <g>
       <use xlink:href="#m608cd3b6d8" x="0" y="293.76" style="stroke: #000000; stroke-width: 0.8"/>
      </g>
     </g>
    </g>
    <g id="ytick_2">
     <g id="line2d_11">
      <path d="M 0 236.274059 
L 460.8 236.274059 
" clip-path="url(#p3b9a5f9d6c)" style="fill: none; stroke: #b0b0b0; stroke-width: 0.8; stroke-linecap: square"/>
     </g>
     <g id="line2d_12">
      <g>
       <use xlink:href="#m608cd3b6d8" x="0" y="236.274059" style="stroke: #000000; stroke-width: 0.8"/>
      </g>
     </g>
    </g>
    <g id="ytick_3">
     <g id="line2d_13">
      <path d="M 0 178.788119 
L 460.8 178.788119 
" clip-path="url(#p3b9a5f9d6c)" style="fill: none; stroke: #b0b0b0; stroke-width: 0.8; stroke-linecap: square"/>
     </g>
     <g id="line2d_14">
      <g>
       <use xlink:href="#m608cd3b6d8" x="0" y="178.788119" style="stroke: #000000; stroke-width: 0.8"/>
      </g>
     </g>
    </g>
    <g id="ytick_4">
     <g id="line2d_15">
      <path d="M 0 121.302178 
L 460.8 121.302178 
" clip-path="url(#p3b9a5f9d6c)" style="fill: none; stroke: #b0b0b0; stroke-width: 0.8; stroke-linecap: square"/>
     </g>
     <g id="line2d_16">
      <g>
       <use xlink:href="#m608cd3b6d8" x="0" y="121.302178" style="stroke: #000000; stroke-width: 0.8"/>
      </g>
     </g>
    </g>
    <g id="ytick_5">
     <g id="line2d_17">
      <path d="M 0 63.816238 
L 460.8 63.816238 
" clip-path="url(#p3b9a5f9d6c)" style="fill: none; stroke: #b0b0b0; stroke-width: 0.8; stroke-linecap: square"/>
     </g>
     <g id="line2d_18">
      <g>
       <use xlink:href="#m608cd3b6d8" x="0" y="63.816238" style="stroke: #000000; stroke-width: 0.8"/>
      </g>
     </g>
    </g>
    <g id="ytick_6">
     <g id="line2d_19">
      <path d="M 0 6.330297 
L 460.8 6.330297 
" clip-path="url(#p3b9a5f9d6c)" style="fill: none; stroke: #b0b0b0; stroke-width: 0.8; stroke-linecap: square"/>
     </g>
     <g id="line2d_20">
      <g>
       <use xlink:href="#m608cd3b6d8" x="0" y="6.330297" style="stroke: #000000; stroke-width: 0.8"/>
      </g>
     </g>
    </g>
   </g>
   <g id="line2d_21">
    <path d="M -1 69.564832 
L -0.962828 69.564832 
L -0.962828 63.816238 
L -0.916548 63.816238 
L -0.916548 58.067644 
L -0.685159 58.067644 
L -0.685159 52.31905 
L -0.552702 52.31905 
L -0.552702 46.570455 
L -0.543614 46.570455 
L -0.543614 40.821861 
L -0.485322 40.821861 
L -0.485322 35.073267 
L -0.470774 35.073267 
L -0.470774 29.324673 
L -0.430219 29.324673 
L -0.430219 23.576079 
L -0.273519 23.576079 
L -0.273519 17.827485 
L -0.25305 17.827485 
L -0.25305 12.078891 
L -0.160385 12.078891 
L -0.160385 6.330297 
L -0.160385 6.330297 
L -0.160385 6.330297 
L 460.8 6.330297 
" clip-path="url(#p3b9a5f9d6c)" style="fill: none; stroke: #ff0000; stroke-width: 3; stroke-linecap: square"/>
   </g>
   <g id="line2d_22">
    <path d="M 247.072822 293.76 
L 247.072822 288.011406 
L 247.547173 288.011406 
L 247.547173 282.262812 
L 249.409169 282.262812 
L 249.409169 276.514218 
L 249.864056 276.514218 
L 249.864056 270.765624 
L 253.997244 270.765624 
L 253.997244 265.01703 
L 254.557401 265.01703 
L 254.557401 259.268436 
L 260.180373 259.268436 
L 260.180373 253.519842 
L 260.371831 253.519842 
L 260.371831 247.771248 
L 261.244599 247.771248 
L 261.244599 242.022653 
L 262.262134 242.022653 
L 262.262134 236.274059 
L 295.935293 236.274059 
L 295.935293 230.525465 
L 297.22511 230.525465 
L 297.22511 224.776871 
L 297.237696 224.776871 
L 297.237696 219.028277 
L 297.715286 219.028277 
L 297.715286 213.279683 
L 297.771392 213.279683 
L 297.771392 207.531089 
L 297.915953 207.531089 
L 297.915953 201.782495 
L 298.137511 201.782495 
L 298.137511 196.033901 
L 298.557639 196.033901 
L 298.557639 190.285307 
L 298.561497 190.285307 
L 298.561497 184.536713 
L 299.547087 184.536713 
L 299.547087 178.788119 
L 299.572435 178.788119 
L 299.572435 173.039525 
L 304.314554 173.039525 
L 304.314554 167.290931 
L 319.886331 167.290931 
L 319.886331 161.542337 
L 326.227371 161.542337 
L 326.227371 155.793743 
L 332.155086 155.793743 
L 332.155086 150.045149 
L 335.700846 150.045149 
L 335.700846 144.296554 
L 348.187801 144.296554 
L 348.187801 138.54796 
L 360.030559 138.54796 
L 360.030559 132.799366 
L 367.576693 132.799366 
L 367.576693 127.050772 
L 372.063005 127.050772 
L 372.063005 121.302178 
L 372.419088 121.302178 
L 372.419088 115.553584 
L 379.685564 115.553584 
L 379.685564 109.80499 
L 381.988692 109.80499 
L 381.988692 104.056396 
L 386.538249 104.056396 
L 386.538249 98.307802 
L 387.019742 98.307802 
L 387.019742 92.559208 
L 387.028989 92.559208 
L 387.028989 86.810614 
L 390.191948 86.810614 
L 390.191948 81.06202 
L 397.402056 81.06202 
L 397.402056 75.313426 
L 399.012792 75.313426 
L 399.012792 69.564832 
L 402.264663 69.564832 
L 402.264663 63.816238 
L 423.56707 63.816238 
L 423.56707 58.067644 
L 425.45579 58.067644 
L 425.45579 52.31905 
L 427.063279 52.31905 
L 427.063279 46.570455 
L 427.500162 46.570455 
L 427.500162 40.821861 
L 429.617271 40.821861 
L 429.617271 35.073267 
L 429.731618 35.073267 
L 429.731618 29.324673 
L 429.86121 29.324673 
L 429.86121 23.576079 
L 430.822762 23.576079 
L 430.822762 17.827485 
L 431.197988 17.827485 
L 431.197988 12.078891 
L 434.25077 12.078891 
L 434.25077 6.330297 
L 434.25077 6.330297 
L 434.25077 6.330297 
L 460.8 6.330297 
" clip-path="url(#p3b9a5f9d6c)" style="fill: none; stroke: #00bfbf; stroke-width: 1.5; stroke-linecap: square"/>
   </g>
   <g id="line2d_23">
    <path d="M 246.44166 293.76 
L 246.44166 288.011406 
L 246.787326 288.011406 
L 246.787326 282.262812 
L 247.547173 282.262812 
L 247.547173 276.514218 
L 249.864056 276.514218 
L 249.864056 270.765624 
L 252.739749 270.765624 
L 252.739749 265.01703 
L 253.997244 265.01703 
L 253.997244 259.268436 
L 254.557401 259.268436 
L 254.557401 253.519842 
L 256.532594 253.519842 
L 256.532594 247.771248 
L 257.607569 247.771248 
L 257.607569 242.022653 
L 261.007251 242.022653 
L 261.007251 236.274059 
L 271.789222 236.274059 
L 271.789222 230.525465 
L 293.762518 230.525465 
L 293.762518 224.776871 
L 296.07771 224.776871 
L 296.07771 219.028277 
L 296.244476 219.028277 
L 296.244476 213.279683 
L 297.124473 213.279683 
L 297.124473 207.531089 
L 297.204008 207.531089 
L 297.204008 201.782495 
L 297.22511 201.782495 
L 297.22511 196.033901 
L 297.565961 196.033901 
L 297.565961 190.285307 
L 297.715286 190.285307 
L 297.715286 184.536713 
L 297.915953 184.536713 
L 297.915953 178.788119 
L 298.483322 178.788119 
L 298.483322 173.039525 
L 298.557639 173.039525 
L 298.557639 167.290931 
L 304.314554 167.290931 
L 304.314554 161.542337 
L 319.886331 161.542337 
L 319.886331 155.793743 
L 326.227371 155.793743 
L 326.227371 150.045149 
L 331.877965 150.045149 
L 331.877965 144.296554 
L 332.875267 144.296554 
L 332.875267 138.54796 
L 345.121572 138.54796 
L 345.121572 132.799366 
L 345.274765 132.799366 
L 345.274765 127.050772 
L 359.359105 127.050772 
L 359.359105 121.302178 
L 367.576693 121.302178 
L 367.576693 115.553584 
L 372.063005 115.553584 
L 372.063005 109.80499 
L 372.419088 109.80499 
L 372.419088 104.056396 
L 377.494937 104.056396 
L 377.494937 98.307802 
L 379.685564 98.307802 
L 379.685564 92.559208 
L 382.699736 92.559208 
L 382.699736 86.810614 
L 386.538249 86.810614 
L 386.538249 81.06202 
L 388.351788 81.06202 
L 388.351788 75.313426 
L 388.703151 75.313426 
L 388.703151 69.564832 
L 393.284803 69.564832 
L 393.284803 63.816238 
L 419.313913 63.816238 
L 419.313913 58.067644 
L 423.56707 58.067644 
L 423.56707 52.31905 
L 424.433731 52.31905 
L 424.433731 46.570455 
L 426.060077 46.570455 
L 426.060077 40.821861 
L 426.505187 40.821861 
L 426.505187 35.073267 
L 426.54455 35.073267 
L 426.54455 29.324673 
L 427.063279 29.324673 
L 427.063279 23.576079 
L 428.10064 23.576079 
L 428.10064 17.827485 
L 428.334499 17.827485 
L 428.334499 12.078891 
L 429.617271 12.078891 
L 429.617271 6.330297 
L 429.617271 6.330297 
L 429.617271 6.330297 
L 460.8 6.330297 
" clip-path="url(#p3b9a5f9d6c)" style="fill: none; stroke: #bf00bf; stroke-width: 1.5; stroke-linecap: square"/>
   </g>
   <g id="line2d_24">
    <path d="M 243.674128 293.76 
L 243.674128 288.011406 
L 243.925285 288.011406 
L 243.925285 282.262812 
L 244.927985 282.262812 
L 244.927985 276.514218 
L 245.12235 276.514218 
L 245.12235 270.765624 
L 245.372854 270.765624 
L 245.372854 265.01703 
L 247.073356 265.01703 
L 247.073356 259.268436 
L 247.154732 259.268436 
L 247.154732 253.519842 
L 248.621452 253.519842 
L 248.621452 247.771248 
L 252.60847 247.771248 
L 252.60847 242.022653 
L 254.414994 242.022653 
L 254.414994 236.274059 
L 271.789222 236.274059 
L 271.789222 230.525465 
L 275.20839 230.525465 
L 275.20839 224.776871 
L 291.511125 224.776871 
L 291.511125 219.028277 
L 292.749022 219.028277 
L 292.749022 213.279683 
L 293.0239 213.279683 
L 293.0239 207.531089 
L 293.762518 207.531089 
L 293.762518 201.782495 
L 294.798988 201.782495 
L 294.798988 196.033901 
L 295.852906 196.033901 
L 295.852906 190.285307 
L 296.330543 190.285307 
L 296.330543 184.536713 
L 296.403819 184.536713 
L 296.403819 178.788119 
L 296.519397 178.788119 
L 296.519397 173.039525 
L 296.564836 173.039525 
L 296.564836 167.290931 
L 296.58945 167.290931 
L 296.58945 161.542337 
L 296.660806 161.542337 
L 296.660806 155.793743 
L 297.124473 155.793743 
L 297.124473 150.045149 
L 303.04862 150.045149 
L 303.04862 144.296554 
L 303.522514 144.296554 
L 303.522514 138.54796 
L 304.314554 138.54796 
L 304.314554 132.799366 
L 306.07985 132.799366 
L 306.07985 127.050772 
L 319.886331 127.050772 
L 319.886331 121.302178 
L 367.191232 121.302178 
L 367.191232 115.553584 
L 367.576693 115.553584 
L 367.576693 109.80499 
L 367.930543 109.80499 
L 367.930543 104.056396 
L 368.929753 104.056396 
L 368.929753 98.307802 
L 369.196326 98.307802 
L 369.196326 92.559208 
L 369.858983 92.559208 
L 369.858983 86.810614 
L 370.947116 86.810614 
L 370.947116 81.06202 
L 372.540652 81.06202 
L 372.540652 75.313426 
L 374.815779 75.313426 
L 374.815779 69.564832 
L 377.187816 69.564832 
L 377.187816 63.816238 
L 411.501872 63.816238 
L 411.501872 58.067644 
L 416.730017 58.067644 
L 416.730017 52.31905 
L 416.796156 52.31905 
L 416.796156 46.570455 
L 419.409807 46.570455 
L 419.409807 40.821861 
L 421.277062 40.821861 
L 421.277062 35.073267 
L 421.457725 35.073267 
L 421.457725 29.324673 
L 423.56707 29.324673 
L 423.56707 23.576079 
L 423.926273 23.576079 
L 423.926273 17.827485 
L 424.939037 17.827485 
L 424.939037 12.078891 
L 427.468666 12.078891 
L 427.468666 6.330297 
L 427.468666 6.330297 
L 427.468666 6.330297 
L 460.8 6.330297 
" clip-path="url(#p3b9a5f9d6c)" style="fill: none; stroke: #000000; stroke-width: 1.5; stroke-linecap: square"/>
   </g>
   <g id="line2d_25">
    <path d="M 234.54389 293.76 
L 234.54389 288.011406 
L 234.712055 288.011406 
L 234.712055 282.262812 
L 235.323847 282.262812 
L 235.323847 276.514218 
L 235.780071 276.514218 
L 235.780071 270.765624 
L 236.21631 270.765624 
L 236.21631 265.01703 
L 238.526814 265.01703 
L 238.526814 259.268436 
L 239.023795 259.268436 
L 239.023795 253.519842 
L 239.994557 253.519842 
L 239.994557 247.771248 
L 240.250632 247.771248 
L 240.250632 242.022653 
L 242.097375 242.022653 
L 242.097375 236.274059 
L 270.457439 236.274059 
L 270.457439 230.525465 
L 271.789222 230.525465 
L 271.789222 224.776871 
L 272.983547 224.776871 
L 272.983547 219.028277 
L 275.165887 219.028277 
L 275.165887 213.279683 
L 275.20839 213.279683 
L 275.20839 207.531089 
L 278.386076 207.531089 
L 278.386076 201.782495 
L 279.647059 201.782495 
L 279.647059 196.033901 
L 284.647347 196.033901 
L 284.647347 190.285307 
L 287.828125 190.285307 
L 287.828125 184.536713 
L 288.185804 184.536713 
L 288.185804 178.788119 
L 289.453612 178.788119 
L 289.453612 173.039525 
L 290.042616 173.039525 
L 290.042616 167.290931 
L 290.078618 167.290931 
L 290.078618 161.542337 
L 290.528013 161.542337 
L 290.528013 155.793743 
L 290.650009 155.793743 
L 290.650009 150.045149 
L 290.966996 150.045149 
L 290.966996 144.296554 
L 291.280793 144.296554 
L 291.280793 138.54796 
L 291.377298 138.54796 
L 291.377298 132.799366 
L 292.564958 132.799366 
L 292.564958 127.050772 
L 297.124473 127.050772 
L 297.124473 121.302178 
L 361.908024 121.302178 
L 361.908024 115.553584 
L 362.992747 115.553584 
L 362.992747 109.80499 
L 363.80754 109.80499 
L 363.80754 104.056396 
L 364.882251 104.056396 
L 364.882251 98.307802 
L 365.290488 98.307802 
L 365.290488 92.559208 
L 365.679164 92.559208 
L 365.679164 86.810614 
L 366.534104 86.810614 
L 366.534104 81.06202 
L 366.74306 81.06202 
L 366.74306 75.313426 
L 367.930543 75.313426 
L 367.930543 69.564832 
L 372.583088 69.564832 
L 372.583088 63.816238 
L 401.287022 63.816238 
L 401.287022 58.067644 
L 403.594701 58.067644 
L 403.594701 52.31905 
L 404.043069 52.31905 
L 404.043069 46.570455 
L 407.678957 46.570455 
L 407.678957 40.821861 
L 407.681327 40.821861 
L 407.681327 35.073267 
L 409.228582 35.073267 
L 409.228582 29.324673 
L 409.878643 29.324673 
L 409.878643 23.576079 
L 410.195405 23.576079 
L 410.195405 17.827485 
L 410.316949 17.827485 
L 410.316949 12.078891 
L 412.644449 12.078891 
L 412.644449 6.330297 
L 412.644449 6.330297 
L 412.644449 6.330297 
L 460.8 6.330297 
" clip-path="url(#p3b9a5f9d6c)" style="fill: none; stroke: #00bfbf; stroke-width: 1.5; stroke-linecap: square"/>
   </g>
   <g id="line2d_26">
    <path d="M 144.235851 293.76 
L 144.235851 288.011406 
L 149.037221 288.011406 
L 149.037221 282.262812 
L 149.399155 282.262812 
L 149.399155 276.514218 
L 150.676925 276.514218 
L 150.676925 270.765624 
L 151.200697 270.765624 
L 151.200697 265.01703 
L 151.915565 265.01703 
L 151.915565 259.268436 
L 153.089962 259.268436 
L 153.089962 253.519842 
L 154.216731 253.519842 
L 154.216731 247.771248 
L 156.602578 247.771248 
L 156.602578 242.022653 
L 157.62097 242.022653 
L 157.62097 236.274059 
L 216.10927 236.274059 
L 216.10927 230.525465 
L 217.605141 230.525465 
L 217.605141 224.776871 
L 221.689775 224.776871 
L 221.689775 219.028277 
L 223.543875 219.028277 
L 223.543875 213.279683 
L 224.383316 213.279683 
L 224.383316 207.531089 
L 226.589194 207.531089 
L 226.589194 201.782495 
L 236.703098 201.782495 
L 236.703098 196.033901 
L 239.136301 196.033901 
L 239.136301 190.285307 
L 240.841365 190.285307 
L 240.841365 184.536713 
L 241.687195 184.536713 
L 241.687195 178.788119 
L 243.848464 178.788119 
L 243.848464 173.039525 
L 248.592265 173.039525 
L 248.592265 167.290931 
L 249.294 167.290931 
L 249.294 161.542337 
L 255.021751 161.542337 
L 255.021751 155.793743 
L 256.179572 155.793743 
L 256.179572 150.045149 
L 256.495798 150.045149 
L 256.495798 144.296554 
L 259.679483 144.296554 
L 259.679483 138.54796 
L 261.337843 138.54796 
L 261.337843 132.799366 
L 261.431333 132.799366 
L 261.431333 127.050772 
L 270.255099 127.050772 
L 270.255099 121.302178 
L 270.457439 121.302178 
L 270.457439 115.553584 
L 271.696687 115.553584 
L 271.696687 109.80499 
L 271.789222 109.80499 
L 271.789222 104.056396 
L 272.983547 104.056396 
L 272.983547 98.307802 
L 275.20839 98.307802 
L 275.20839 92.559208 
L 275.944445 92.559208 
L 275.944445 86.810614 
L 280.041843 86.810614 
L 280.041843 81.06202 
L 283.010624 81.06202 
L 283.010624 75.313426 
L 286.903317 75.313426 
L 286.903317 69.564832 
L 286.996005 69.564832 
L 286.996005 63.816238 
L 305.640659 63.816238 
L 305.640659 58.067644 
L 310.110686 58.067644 
L 310.110686 52.31905 
L 314.29217 52.31905 
L 314.29217 46.570455 
L 314.949572 46.570455 
L 314.949572 40.821861 
L 316.092414 40.821861 
L 316.092414 35.073267 
L 316.1797 35.073267 
L 316.1797 29.324673 
L 317.183052 29.324673 
L 317.183052 23.576079 
L 321.435548 23.576079 
L 321.435548 17.827485 
L 321.892058 17.827485 
L 321.892058 12.078891 
L 325.761324 12.078891 
L 325.761324 6.330297 
L 325.761324 6.330297 
L 325.761324 6.330297 
L 460.8 6.330297 
" clip-path="url(#p3b9a5f9d6c)" style="fill: none; stroke: #bf00bf; stroke-width: 1.5; stroke-linecap: square"/>
   </g>
   <g id="line2d_27">
    <path d="M -1 155.793743 
L -0.962828 155.793743 
L -0.962828 150.045149 
L -0.916548 150.045149 
L -0.916548 144.296554 
L -0.685159 144.296554 
L -0.685159 138.54796 
L -0.552702 138.54796 
L -0.552702 132.799366 
L -0.543614 132.799366 
L -0.543614 127.050772 
L -0.485322 127.050772 
L -0.485322 121.302178 
L -0.430219 121.302178 
L -0.430219 115.553584 
L -0.273519 115.553584 
L -0.273519 109.80499 
L -0.25305 109.80499 
L -0.25305 104.056396 
L -0.160385 104.056396 
L -0.160385 98.307802 
L 6.407711 98.307802 
L 6.407711 92.559208 
L 24.348167 92.559208 
L 24.348167 86.810614 
L 29.736888 86.810614 
L 29.736888 81.06202 
L 35.634714 81.06202 
L 35.634714 75.313426 
L 37.026666 75.313426 
L 37.026666 69.564832 
L 37.064587 69.564832 
L 37.064587 63.816238 
L 56.106515 63.816238 
L 56.106515 58.067644 
L 108.180049 58.067644 
L 108.180049 52.31905 
L 118.857157 52.31905 
L 118.857157 46.570455 
L 131.366978 46.570455 
L 131.366978 40.821861 
L 134.823973 40.821861 
L 134.823973 35.073267 
L 138.878493 35.073267 
L 138.878493 29.324673 
L 152.794199 29.324673 
L 152.794199 23.576079 
L 152.859064 23.576079 
L 152.859064 17.827485 
L 155.166644 17.827485 
L 155.166644 12.078891 
L 185.29723 12.078891 
L 185.29723 6.330297 
L 185.29723 6.330297 
L 185.29723 6.330297 
L 460.8 6.330297 
" clip-path="url(#p3b9a5f9d6c)" style="fill: none; stroke: #000000; stroke-width: 1.5; stroke-linecap: square"/>
   </g>
   <g id="patch_3">
    <path d="M 0 293.76 
L 0 3.456 
" style="fill: none; stroke: #000000; stroke-width: 0.8; stroke-linejoin: miter; stroke-linecap: square"/>
   </g>
   <g id="patch_4">
    <path d="M 460.8 293.76 
L 460.8 3.456 
" style="fill: none; stroke: #000000; stroke-width: 0.8; stroke-linejoin: miter; stroke-linecap: square"/>
   </g>
   <g id="patch_5">
    <path d="M 0 293.76 
L 460.8 293.76 
" style="fill: none; stroke: #000000; stroke-width: 0.8; stroke-linejoin: miter; stroke-linecap: square"/>
   </g>
   <g id="patch_6">
    <path d="M 0 3.456 
L 460.8 3.456 
" style="fill: none; stroke: #000000; stroke-width: 0.8; stroke-linejoin: miter; stroke-linecap: square"/>
   </g>
   <g id="text_6">
    <!-- {f10-f14}, 20-D -->
    <g transform="translate(293.159 287.95392)scale(0.2 -0.2)">
     <defs>
      <path id="DejaVuSans-7b" d="M 3272 -594 
L 3272 -1044 
L 3078 -1044 
Q 2300 -1044 2036 -812 
Q 1772 -581 1772 109 
L 1772 856 
Q 1772 1328 1603 1509 
Q 1434 1691 991 1691 
L 800 1691 
L 800 2138 
L 991 2138 
Q 1438 2138 1605 2317 
Q 1772 2497 1772 2963 
L 1772 3713 
Q 1772 4403 2036 4633 
Q 2300 4863 3078 4863 
L 3272 4863 
L 3272 4416 
L 3059 4416 
Q 2619 4416 2484 4278 
Q 2350 4141 2350 3700 
L 2350 2925 
Q 2350 2434 2208 2212 
Q 2066 1991 1722 1913 
Q 2069 1828 2209 1606 
Q 2350 1384 2350 897 
L 2350 122 
Q 2350 -319 2484 -456 
Q 2619 -594 3059 -594 
L 3272 -594 
z
" transform="scale(0.015625)"/>
      <path id="DejaVuSans-7d" d="M 800 -594 
L 1019 -594 
Q 1456 -594 1589 -459 
Q 1722 -325 1722 122 
L 1722 897 
Q 1722 1384 1862 1606 
Q 2003 1828 2350 1913 
Q 2003 1991 1862 2212 
Q 1722 2434 1722 2925 
L 1722 3700 
Q 1722 4144 1589 4280 
Q 1456 4416 1019 4416 
L 800 4416 
L 800 4863 
L 997 4863 
Q 1775 4863 2036 4633 
Q 2297 4403 2297 3713 
L 2297 2963 
Q 2297 2497 2465 2317 
Q 2634 2138 3078 2138 
L 3272 2138 
L 3272 1691 
L 3078 1691 
Q 2634 1691 2465 1509 
Q 2297 1328 2297 856 
L 2297 109 
Q 2297 -581 2036 -812 
Q 1775 -1044 997 -1044 
L 800 -1044 
L 800 -594 
z
" transform="scale(0.015625)"/>
      <path id="DejaVuSans-2c" d="M 750 794 
L 1409 794 
L 1409 256 
L 897 -744 
L 494 -744 
L 750 256 
L 750 794 
z
" transform="scale(0.015625)"/>
      <path id="DejaVuSans-32" d="M 1228 531 
L 3431 531 
L 3431 0 
L 469 0 
L 469 531 
Q 828 903 1448 1529 
Q 2069 2156 2228 2338 
Q 2531 2678 2651 2914 
Q 2772 3150 2772 3378 
Q 2772 3750 2511 3984 
Q 2250 4219 1831 4219 
Q 1534 4219 1204 4116 
Q 875 4013 500 3803 
L 500 4441 
Q 881 4594 1212 4672 
Q 1544 4750 1819 4750 
Q 2544 4750 2975 4387 
Q 3406 4025 3406 3419 
Q 3406 3131 3298 2873 
Q 3191 2616 2906 2266 
Q 2828 2175 2409 1742 
Q 1991 1309 1228 531 
z
" transform="scale(0.015625)"/>
     </defs>
     <use xlink:href="#DejaVuSans-7b"/>
     <use xlink:href="#DejaVuSans-66" x="63.623047"/>
     <use xlink:href="#DejaVuSans-31" x="98.828125"/>
     <use xlink:href="#DejaVuSans-30" x="162.451172"/>
     <use xlink:href="#DejaVuSans-2d" x="226.074219"/>
     <use xlink:href="#DejaVuSans-66" x="262.158203"/>
     <use xlink:href="#DejaVuSans-31" x="297.363281"/>
     <use xlink:href="#DejaVuSans-34" x="360.986328"/>
     <use xlink:href="#DejaVuSans-7d" x="424.609375"/>
     <use xlink:href="#DejaVuSans-2c" x="488.232422"/>
     <use xlink:href="#DejaVuSans-20" x="520.019531"/>
     <use xlink:href="#DejaVuSans-32" x="551.806641"/>
     <use xlink:href="#DejaVuSans-30" x="615.429688"/>
     <use xlink:href="#DejaVuSans-2d" x="679.052734"/>
     <use xlink:href="#DejaVuSans-44" x="715.136719"/>
    </g>
   </g>
   <g id="text_7">
    <!-- v2.6.3 -->
    <g style="fill: #808080" transform="translate(214.71875 288.777272)scale(0.1 -0.1)">
     <defs>
      <path id="DejaVuSans-76" d="M 191 3500 
L 800 3500 
L 1894 563 
L 2988 3500 
L 3597 3500 
L 2284 0 
L 1503 0 
L 191 3500 
z
" transform="scale(0.015625)"/>
      <path id="DejaVuSans-2e" d="M 684 794 
L 1344 794 
L 1344 0 
L 684 0 
L 684 794 
z
" transform="scale(0.015625)"/>
      <path id="DejaVuSans-36" d="M 2113 2584 
Q 1688 2584 1439 2293 
Q 1191 2003 1191 1497 
Q 1191 994 1439 701 
Q 1688 409 2113 409 
Q 2538 409 2786 701 
Q 3034 994 3034 1497 
Q 3034 2003 2786 2293 
Q 2538 2584 2113 2584 
z
M 3366 4563 
L 3366 3988 
Q 3128 4100 2886 4159 
Q 2644 4219 2406 4219 
Q 1781 4219 1451 3797 
Q 1122 3375 1075 2522 
Q 1259 2794 1537 2939 
Q 1816 3084 2150 3084 
Q 2853 3084 3261 2657 
Q 3669 2231 3669 1497 
Q 3669 778 3244 343 
Q 2819 -91 2113 -91 
Q 1303 -91 875 529 
Q 447 1150 447 2328 
Q 447 3434 972 4092 
Q 1497 4750 2381 4750 
Q 2619 4750 2861 4703 
Q 3103 4656 3366 4563 
z
" transform="scale(0.015625)"/>
      <path id="DejaVuSans-33" d="M 2597 2516 
Q 3050 2419 3304 2112 
Q 3559 1806 3559 1356 
Q 3559 666 3084 287 
Q 2609 -91 1734 -91 
Q 1441 -91 1130 -33 
Q 819 25 488 141 
L 488 750 
Q 750 597 1062 519 
Q 1375 441 1716 441 
Q 2309 441 2620 675 
Q 2931 909 2931 1356 
Q 2931 1769 2642 2001 
Q 2353 2234 1838 2234 
L 1294 2234 
L 1294 2753 
L 1863 2753 
Q 2328 2753 2575 2939 
Q 2822 3125 2822 3475 
Q 2822 3834 2567 4026 
Q 2313 4219 1838 4219 
Q 1578 4219 1281 4162 
Q 984 4106 628 3988 
L 628 4550 
Q 988 4650 1302 4700 
Q 1616 4750 1894 4750 
Q 2613 4750 3031 4423 
Q 3450 4097 3450 3541 
Q 3450 3153 3228 2886 
Q 3006 2619 2597 2516 
z
" transform="scale(0.015625)"/>
     </defs>
     <use xlink:href="#DejaVuSans-76"/>
     <use xlink:href="#DejaVuSans-32" x="59.179688"/>
     <use xlink:href="#DejaVuSans-2e" x="122.802734"/>
     <use xlink:href="#DejaVuSans-36" x="154.589844"/>
     <use xlink:href="#DejaVuSans-2e" x="218.212891"/>
     <use xlink:href="#DejaVuSans-33" x="250"/>
    </g>
   </g>
  </g>
 </g>
 <defs>
  <clipPath id="p3b9a5f9d6c">
   <rect x="0" y="3.456" width="460.8" height="290.304"/>
  </clipPath>
 </defs>
</svg>
