<?xml version="1.0" encoding="utf-8" standalone="no"?>
<!DOCTYPE svg PUBLIC "-//W3C//DTD SVG 1.1//EN"
  "http://www.w3.org/Graphics/SVG/1.1/DTD/svg11.dtd">
<svg xmlns:xlink="http://www.w3.org/1999/xlink" width="460.8pt" height="345.6pt" viewBox="0 0 460.8 345.6" xmlns="http://www.w3.org/2000/svg" version="1.1">
 <metadata>
  <rdf:RDF xmlns:dc="http://purl.org/dc/elements/1.1/" xmlns:cc="http://creativecommons.org/ns#" xmlns:rdf="http://www.w3.org/1999/02/22-rdf-syntax-ns#">
   <cc:Work>
    <dc:type rdf:resource="http://purl.org/dc/dcmitype/StillImage"/>
    <dc:date>2023-04-07T14:47:09.844787</dc:date>
    <dc:format>image/svg+xml</dc:format>
    <dc:creator>
     <cc:Agent>
      <dc:title>Matplotlib v3.5.2, https://matplotlib.org/</dc:title>
     </cc:Agent>
    </dc:creator>
   </cc:Work>
  </rdf:RDF>
 </metadata>
 <defs>
  <style type="text/css">*{stroke-linejoin: round; stroke-linecap: butt}</style>
 </defs>
 <g id="figure_1">
  <g id="patch_1">
   <path d="M 0 345.6 
L 460.8 345.6 
L 460.8 0 
L 0 0 
z
" style="fill: #ffffff"/>
  </g>
  <g id="axes_1">
   <g id="patch_2">
    <path d="M 0 293.76 
L 460.8 293.76 
L 460.8 3.456 
L 0 3.456 
z
" style="fill: #ffffff"/>
   </g>
   <g id="matplotlib.axis_1">
    <g id="xtick_1">
     <g id="line2d_1">
      <path d="M 107.561996 293.76 
L 107.561996 3.456 
" clip-path="url(#pca5b317291)" style="fill: none; stroke: #b0b0b0; stroke-width: 0.8; stroke-linecap: square"/>
     </g>
     <g id="line2d_2">
      <defs>
       <path id="m765c196723" d="M 0 0 
L 0 3.5 
" style="stroke: #000000; stroke-width: 0.8"/>
      </defs>
      <g>
       <use xlink:href="#m765c196723" x="107.561996" y="293.76" style="stroke: #000000; stroke-width: 0.8"/>
      </g>
     </g>
     <g id="text_1">
      <!-- -4 -->
      <g transform="translate(97.591684 315.956875)scale(0.2 -0.2)">
       <defs>
        <path id="DejaVuSans-2d" d="M 313 2009 
L 1997 2009 
L 1997 1497 
L 313 1497 
L 313 2009 
z
" transform="scale(0.015625)"/>
        <path id="DejaVuSans-34" d="M 2419 4116 
L 825 1625 
L 2419 1625 
L 2419 4116 
z
M 2253 4666 
L 3047 4666 
L 3047 1625 
L 3713 1625 
L 3713 1100 
L 3047 1100 
L 3047 0 
L 2419 0 
L 2419 1100 
L 313 1100 
L 313 1709 
L 2253 4666 
z
" transform="scale(0.015625)"/>
       </defs>
       <use xlink:href="#DejaVuSans-2d"/>
       <use xlink:href="#DejaVuSans-34" x="36.083984"/>
      </g>
     </g>
    </g>
    <g id="xtick_2">
     <g id="line2d_3">
      <path d="M 215.240322 293.76 
L 215.240322 3.456 
" clip-path="url(#pca5b317291)" style="fill: none; stroke: #b0b0b0; stroke-width: 0.8; stroke-linecap: square"/>
     </g>
     <g id="line2d_4">
      <g>
       <use xlink:href="#m765c196723" x="215.240322" y="293.76" style="stroke: #000000; stroke-width: 0.8"/>
      </g>
     </g>
     <g id="text_2">
      <!-- 0 -->
      <g transform="translate(208.877822 315.956875)scale(0.2 -0.2)">
       <defs>
        <path id="DejaVuSans-30" d="M 2034 4250 
Q 1547 4250 1301 3770 
Q 1056 3291 1056 2328 
Q 1056 1369 1301 889 
Q 1547 409 2034 409 
Q 2525 409 2770 889 
Q 3016 1369 3016 2328 
Q 3016 3291 2770 3770 
Q 2525 4250 2034 4250 
z
M 2034 4750 
Q 2819 4750 3233 4129 
Q 3647 3509 3647 2328 
Q 3647 1150 3233 529 
Q 2819 -91 2034 -91 
Q 1250 -91 836 529 
Q 422 1150 422 2328 
Q 422 3509 836 4129 
Q 1250 4750 2034 4750 
z
" transform="scale(0.015625)"/>
       </defs>
       <use xlink:href="#DejaVuSans-30"/>
      </g>
     </g>
    </g>
    <g id="xtick_3">
     <g id="line2d_5">
      <path d="M 322.918648 293.76 
L 322.918648 3.456 
" clip-path="url(#pca5b317291)" style="fill: none; stroke: #b0b0b0; stroke-width: 0.8; stroke-linecap: square"/>
     </g>
     <g id="line2d_6">
      <g>
       <use xlink:href="#m765c196723" x="322.918648" y="293.76" style="stroke: #000000; stroke-width: 0.8"/>
      </g>
     </g>
     <g id="text_3">
      <!-- 4 -->
      <g transform="translate(316.556148 315.956875)scale(0.2 -0.2)">
       <use xlink:href="#DejaVuSans-34"/>
      </g>
     </g>
    </g>
    <g id="xtick_4">
     <g id="line2d_7">
      <path d="M 430.596974 293.76 
L 430.596974 3.456 
" clip-path="url(#pca5b317291)" style="fill: none; stroke: #b0b0b0; stroke-width: 0.8; stroke-linecap: square"/>
     </g>
     <g id="line2d_8">
      <g>
       <use xlink:href="#m765c196723" x="430.596974" y="293.76" style="stroke: #000000; stroke-width: 0.8"/>
      </g>
     </g>
     <g id="text_4">
      <!-- 8 -->
      <g transform="translate(424.234474 315.956875)scale(0.2 -0.2)">
       <defs>
        <path id="DejaVuSans-38" d="M 2034 2216 
Q 1584 2216 1326 1975 
Q 1069 1734 1069 1313 
Q 1069 891 1326 650 
Q 1584 409 2034 409 
Q 2484 409 2743 651 
Q 3003 894 3003 1313 
Q 3003 1734 2745 1975 
Q 2488 2216 2034 2216 
z
M 1403 2484 
Q 997 2584 770 2862 
Q 544 3141 544 3541 
Q 544 4100 942 4425 
Q 1341 4750 2034 4750 
Q 2731 4750 3128 4425 
Q 3525 4100 3525 3541 
Q 3525 3141 3298 2862 
Q 3072 2584 2669 2484 
Q 3125 2378 3379 2068 
Q 3634 1759 3634 1313 
Q 3634 634 3220 271 
Q 2806 -91 2034 -91 
Q 1263 -91 848 271 
Q 434 634 434 1313 
Q 434 1759 690 2068 
Q 947 2378 1403 2484 
z
M 1172 3481 
Q 1172 3119 1398 2916 
Q 1625 2713 2034 2713 
Q 2441 2713 2670 2916 
Q 2900 3119 2900 3481 
Q 2900 3844 2670 4047 
Q 2441 4250 2034 4250 
Q 1625 4250 1398 4047 
Q 1172 3844 1172 3481 
z
" transform="scale(0.015625)"/>
       </defs>
       <use xlink:href="#DejaVuSans-38"/>
      </g>
     </g>
    </g>
    <g id="text_5">
     <!-- log10 of Df -->
     <g transform="translate(175.214063 339.313125)scale(0.2 -0.2)">
      <defs>
       <path id="DejaVuSans-6c" d="M 603 4863 
L 1178 4863 
L 1178 0 
L 603 0 
L 603 4863 
z
" transform="scale(0.015625)"/>
       <path id="DejaVuSans-6f" d="M 1959 3097 
Q 1497 3097 1228 2736 
Q 959 2375 959 1747 
Q 959 1119 1226 758 
Q 1494 397 1959 397 
Q 2419 397 2687 759 
Q 2956 1122 2956 1747 
Q 2956 2369 2687 2733 
Q 2419 3097 1959 3097 
z
M 1959 3584 
Q 2709 3584 3137 3096 
Q 3566 2609 3566 1747 
Q 3566 888 3137 398 
Q 2709 -91 1959 -91 
Q 1206 -91 779 398 
Q 353 888 353 1747 
Q 353 2609 779 3096 
Q 1206 3584 1959 3584 
z
" transform="scale(0.015625)"/>
       <path id="DejaVuSans-67" d="M 2906 1791 
Q 2906 2416 2648 2759 
Q 2391 3103 1925 3103 
Q 1463 3103 1205 2759 
Q 947 2416 947 1791 
Q 947 1169 1205 825 
Q 1463 481 1925 481 
Q 2391 481 2648 825 
Q 2906 1169 2906 1791 
z
M 3481 434 
Q 3481 -459 3084 -895 
Q 2688 -1331 1869 -1331 
Q 1566 -1331 1297 -1286 
Q 1028 -1241 775 -1147 
L 775 -588 
Q 1028 -725 1275 -790 
Q 1522 -856 1778 -856 
Q 2344 -856 2625 -561 
Q 2906 -266 2906 331 
L 2906 616 
Q 2728 306 2450 153 
Q 2172 0 1784 0 
Q 1141 0 747 490 
Q 353 981 353 1791 
Q 353 2603 747 3093 
Q 1141 3584 1784 3584 
Q 2172 3584 2450 3431 
Q 2728 3278 2906 2969 
L 2906 3500 
L 3481 3500 
L 3481 434 
z
" transform="scale(0.015625)"/>
       <path id="DejaVuSans-31" d="M 794 531 
L 1825 531 
L 1825 4091 
L 703 3866 
L 703 4441 
L 1819 4666 
L 2450 4666 
L 2450 531 
L 3481 531 
L 3481 0 
L 794 0 
L 794 531 
z
" transform="scale(0.015625)"/>
       <path id="DejaVuSans-20" transform="scale(0.015625)"/>
       <path id="DejaVuSans-66" d="M 2375 4863 
L 2375 4384 
L 1825 4384 
Q 1516 4384 1395 4259 
Q 1275 4134 1275 3809 
L 1275 3500 
L 2222 3500 
L 2222 3053 
L 1275 3053 
L 1275 0 
L 697 0 
L 697 3053 
L 147 3053 
L 147 3500 
L 697 3500 
L 697 3744 
Q 697 4328 969 4595 
Q 1241 4863 1831 4863 
L 2375 4863 
z
" transform="scale(0.015625)"/>
       <path id="DejaVuSans-44" d="M 1259 4147 
L 1259 519 
L 2022 519 
Q 2988 519 3436 956 
Q 3884 1394 3884 2338 
Q 3884 3275 3436 3711 
Q 2988 4147 2022 4147 
L 1259 4147 
z
M 628 4666 
L 1925 4666 
Q 3281 4666 3915 4102 
Q 4550 3538 4550 2338 
Q 4550 1131 3912 565 
Q 3275 0 1925 0 
L 628 0 
L 628 4666 
z
" transform="scale(0.015625)"/>
      </defs>
      <use xlink:href="#DejaVuSans-6c"/>
      <use xlink:href="#DejaVuSans-6f" x="27.783203"/>
      <use xlink:href="#DejaVuSans-67" x="88.964844"/>
      <use xlink:href="#DejaVuSans-31" x="152.441406"/>
      <use xlink:href="#DejaVuSans-30" x="216.064453"/>
      <use xlink:href="#DejaVuSans-20" x="279.6875"/>
      <use xlink:href="#DejaVuSans-6f" x="311.474609"/>
      <use xlink:href="#DejaVuSans-66" x="372.65625"/>
      <use xlink:href="#DejaVuSans-20" x="407.861328"/>
      <use xlink:href="#DejaVuSans-44" x="439.648438"/>
      <use xlink:href="#DejaVuSans-66" x="516.650391"/>
     </g>
    </g>
   </g>
   <g id="matplotlib.axis_2">
    <g id="ytick_1">
     <g id="line2d_9">
      <path d="M 0 293.76 
L 460.8 293.76 
" clip-path="url(#pca5b317291)" style="fill: none; stroke: #b0b0b0; stroke-width: 0.8; stroke-linecap: square"/>
     </g>
     <g id="line2d_10">
      <defs>
       <path id="mf221a50106" d="M 0 0 
L -3.5 0 
" style="stroke: #000000; stroke-width: 0.8"/>
      </defs>
      <g>
       <use xlink:href="#mf221a50106" x="0" y="293.76" style="stroke: #000000; stroke-width: 0.8"/>
      </g>
     </g>
    </g>
    <g id="ytick_2">
     <g id="line2d_11">
      <path d="M 0 236.274059 
L 460.8 236.274059 
" clip-path="url(#pca5b317291)" style="fill: none; stroke: #b0b0b0; stroke-width: 0.8; stroke-linecap: square"/>
     </g>
     <g id="line2d_12">
      <g>
       <use xlink:href="#mf221a50106" x="0" y="236.274059" style="stroke: #000000; stroke-width: 0.8"/>
      </g>
     </g>
    </g>
    <g id="ytick_3">
     <g id="line2d_13">
      <path d="M 0 178.788119 
L 460.8 178.788119 
" clip-path="url(#pca5b317291)" style="fill: none; stroke: #b0b0b0; stroke-width: 0.8; stroke-linecap: square"/>
     </g>
     <g id="line2d_14">
      <g>
       <use xlink:href="#mf221a50106" x="0" y="178.788119" style="stroke: #000000; stroke-width: 0.8"/>
      </g>
     </g>
    </g>
    <g id="ytick_4">
     <g id="line2d_15">
      <path d="M 0 121.302178 
L 460.8 121.302178 
" clip-path="url(#pca5b317291)" style="fill: none; stroke: #b0b0b0; stroke-width: 0.8; stroke-linecap: square"/>
     </g>
     <g id="line2d_16">
      <g>
       <use xlink:href="#mf221a50106" x="0" y="121.302178" style="stroke: #000000; stroke-width: 0.8"/>
      </g>
     </g>
    </g>
    <g id="ytick_5">
     <g id="line2d_17">
      <path d="M 0 63.816238 
L 460.8 63.816238 
" clip-path="url(#pca5b317291)" style="fill: none; stroke: #b0b0b0; stroke-width: 0.8; stroke-linecap: square"/>
     </g>
     <g id="line2d_18">
      <g>
       <use xlink:href="#mf221a50106" x="0" y="63.816238" style="stroke: #000000; stroke-width: 0.8"/>
      </g>
     </g>
    </g>
    <g id="ytick_6">
     <g id="line2d_19">
      <path d="M 0 6.330297 
L 460.8 6.330297 
" clip-path="url(#pca5b317291)" style="fill: none; stroke: #b0b0b0; stroke-width: 0.8; stroke-linecap: square"/>
     </g>
     <g id="line2d_20">
      <g>
       <use xlink:href="#mf221a50106" x="0" y="6.330297" style="stroke: #000000; stroke-width: 0.8"/>
      </g>
     </g>
    </g>
   </g>
   <g id="line2d_21">
    <path d="M -1 92.559208 
L -0.868069 92.559208 
L -0.868069 86.810614 
L 181.482303 86.810614 
L 181.482303 81.06202 
L 191.021394 81.06202 
L 191.021394 75.313426 
L 198.199735 75.313426 
L 198.199735 69.564832 
L 204.104863 69.564832 
L 204.104863 63.816238 
L 207.866577 63.816238 
L 207.866577 58.067644 
L 210.420788 58.067644 
L 210.420788 52.31905 
L 210.933627 52.31905 
L 210.933627 46.570455 
L 210.933627 46.570455 
L 210.933627 40.821861 
L 221.548378 40.821861 
L 221.548378 35.073267 
L 234.102144 35.073267 
L 234.102144 29.324673 
L 234.103778 29.324673 
L 234.103778 23.576079 
L 234.162931 23.576079 
L 234.162931 17.827485 
L 234.163322 17.827485 
L 234.163322 12.078891 
L 234.23143 12.078891 
L 234.23143 6.330297 
L 234.23143 6.330297 
L 234.23143 6.330297 
L 460.8 6.330297 
" clip-path="url(#pca5b317291)" style="fill: none; stroke: #ff0000; stroke-width: 3; stroke-linecap: square"/>
   </g>
   <g id="line2d_22">
    <path d="M 229.090095 293.76 
L 229.090095 288.011406 
L 241.300779 288.011406 
L 241.300779 282.262812 
L 242.417685 282.262812 
L 242.417685 276.514218 
L 242.835609 276.514218 
L 242.835609 270.765624 
L 242.854512 270.765624 
L 242.854512 265.01703 
L 243.481485 265.01703 
L 243.481485 259.268436 
L 246.414016 259.268436 
L 246.414016 253.519842 
L 247.497046 253.519842 
L 247.497046 247.771248 
L 249.284902 247.771248 
L 249.284902 242.022653 
L 250.836853 242.022653 
L 250.836853 236.274059 
L 252.523762 236.274059 
L 252.523762 230.525465 
L 253.948839 230.525465 
L 253.948839 224.776871 
L 255.077578 224.776871 
L 255.077578 219.028277 
L 255.586223 219.028277 
L 255.586223 213.279683 
L 259.025915 213.279683 
L 259.025915 207.531089 
L 259.523672 207.531089 
L 259.523672 201.782495 
L 259.570956 201.782495 
L 259.570956 196.033901 
L 260.741635 196.033901 
L 260.741635 190.285307 
L 261.048883 190.285307 
L 261.048883 184.536713 
L 261.340791 184.536713 
L 261.340791 178.788119 
L 261.830593 178.788119 
L 261.830593 173.039525 
L 262.121614 173.039525 
L 262.121614 167.290931 
L 262.923174 167.290931 
L 262.923174 161.542337 
L 263.240517 161.542337 
L 263.240517 155.793743 
L 263.38957 155.793743 
L 263.38957 150.045149 
L 263.453022 150.045149 
L 263.453022 144.296554 
L 263.833774 144.296554 
L 263.833774 138.54796 
L 263.966245 138.54796 
L 263.966245 132.799366 
L 264.12602 132.799366 
L 264.12602 127.050772 
L 264.193354 127.050772 
L 264.193354 121.302178 
L 264.882375 121.302178 
L 264.882375 115.553584 
L 265.120251 115.553584 
L 265.120251 109.80499 
L 265.131047 109.80499 
L 265.131047 104.056396 
L 265.178075 104.056396 
L 265.178075 98.307802 
L 265.340812 98.307802 
L 265.340812 92.559208 
L 266.231503 92.559208 
L 266.231503 86.810614 
L 266.864141 86.810614 
L 266.864141 81.06202 
L 268.756558 81.06202 
L 268.756558 75.313426 
L 269.20454 75.313426 
L 269.20454 69.564832 
L 269.271901 69.564832 
L 269.271901 63.816238 
L 270.461794 63.816238 
L 270.461794 58.067644 
L 318.047827 58.067644 
L 318.047827 52.31905 
L 318.047827 52.31905 
L 318.047827 46.570455 
L 318.047827 46.570455 
L 318.047827 40.821861 
L 318.047827 40.821861 
L 318.047827 35.073267 
L 318.047827 35.073267 
L 318.047827 29.324673 
L 318.047827 29.324673 
L 318.047827 23.576079 
L 318.047827 23.576079 
L 318.047827 17.827485 
L 318.047827 17.827485 
L 318.047827 12.078891 
L 318.047827 12.078891 
L 318.047827 6.330297 
L 318.047827 6.330297 
L 318.047827 6.330297 
L 460.8 6.330297 
" clip-path="url(#pca5b317291)" style="fill: none; stroke: #00bfbf; stroke-width: 1.5; stroke-linecap: square"/>
   </g>
   <g id="line2d_23">
    <path d="M 229.090095 293.76 
L 229.090095 288.011406 
L 230.341668 288.011406 
L 230.341668 282.262812 
L 236.741271 282.262812 
L 236.741271 276.514218 
L 237.395995 276.514218 
L 237.395995 270.765624 
L 239.437174 270.765624 
L 239.437174 265.01703 
L 242.020196 265.01703 
L 242.020196 259.268436 
L 242.417685 259.268436 
L 242.417685 253.519842 
L 242.835609 253.519842 
L 242.835609 247.771248 
L 243.481485 247.771248 
L 243.481485 242.022653 
L 244.727331 242.022653 
L 244.727331 236.274059 
L 248.248332 236.274059 
L 248.248332 230.525465 
L 248.810167 230.525465 
L 248.810167 224.776871 
L 249.471968 224.776871 
L 249.471968 219.028277 
L 250.836853 219.028277 
L 250.836853 213.279683 
L 254.705541 213.279683 
L 254.705541 207.531089 
L 255.449195 207.531089 
L 255.449195 201.782495 
L 256.361898 201.782495 
L 256.361898 196.033901 
L 257.786008 196.033901 
L 257.786008 190.285307 
L 259.025915 190.285307 
L 259.025915 184.536713 
L 259.056754 184.536713 
L 259.056754 178.788119 
L 259.523672 178.788119 
L 259.523672 173.039525 
L 259.568191 173.039525 
L 259.568191 167.290931 
L 259.804293 167.290931 
L 259.804293 161.542337 
L 261.340791 161.542337 
L 261.340791 155.793743 
L 261.44758 155.793743 
L 261.44758 150.045149 
L 262.121614 150.045149 
L 262.121614 144.296554 
L 262.699807 144.296554 
L 262.699807 138.54796 
L 262.808979 138.54796 
L 262.808979 132.799366 
L 263.19145 132.799366 
L 263.19145 127.050772 
L 263.223283 127.050772 
L 263.223283 121.302178 
L 263.38957 121.302178 
L 263.38957 115.553584 
L 263.688438 115.553584 
L 263.688438 109.80499 
L 263.739999 109.80499 
L 263.739999 104.056396 
L 263.966245 104.056396 
L 263.966245 98.307802 
L 264.12602 98.307802 
L 264.12602 92.559208 
L 264.193354 92.559208 
L 264.193354 86.810614 
L 264.301147 86.810614 
L 264.301147 81.06202 
L 264.712474 81.06202 
L 264.712474 75.313426 
L 265.628054 75.313426 
L 265.628054 69.564832 
L 265.926044 69.564832 
L 265.926044 63.816238 
L 268.934494 63.816238 
L 268.934494 58.067644 
L 301.789578 58.067644 
L 301.789578 52.31905 
L 307.598336 52.31905 
L 307.598336 46.570455 
L 308.458937 46.570455 
L 308.458937 40.821861 
L 314.165485 40.821861 
L 314.165485 35.073267 
L 314.82702 35.073267 
L 314.82702 29.324673 
L 318.047827 29.324673 
L 318.047827 23.576079 
L 318.047827 23.576079 
L 318.047827 17.827485 
L 318.047827 17.827485 
L 318.047827 12.078891 
L 318.047827 12.078891 
L 318.047827 6.330297 
L 318.047827 6.330297 
L 318.047827 6.330297 
L 460.8 6.330297 
" clip-path="url(#pca5b317291)" style="fill: none; stroke: #bf00bf; stroke-width: 1.5; stroke-linecap: square"/>
   </g>
   <g id="line2d_24">
    <path d="M 229.090095 293.76 
L 229.090095 288.011406 
L 230.341668 288.011406 
L 230.341668 282.262812 
L 232.485041 282.262812 
L 232.485041 276.514218 
L 232.925205 276.514218 
L 232.925205 270.765624 
L 236.664669 270.765624 
L 236.664669 265.01703 
L 236.741271 265.01703 
L 236.741271 259.268436 
L 237.395995 259.268436 
L 237.395995 253.519842 
L 237.6213 253.519842 
L 237.6213 247.771248 
L 237.728398 247.771248 
L 237.728398 242.022653 
L 239.437174 242.022653 
L 239.437174 236.274059 
L 241.64854 236.274059 
L 241.64854 230.525465 
L 241.721449 230.525465 
L 241.721449 224.776871 
L 241.847243 224.776871 
L 241.847243 219.028277 
L 242.09264 219.028277 
L 242.09264 213.279683 
L 245.028393 213.279683 
L 245.028393 207.531089 
L 248.810167 207.531089 
L 248.810167 201.782495 
L 249.471968 201.782495 
L 249.471968 196.033901 
L 250.836853 196.033901 
L 250.836853 190.285307 
L 251.67182 190.285307 
L 251.67182 184.536713 
L 252.157719 184.536713 
L 252.157719 178.788119 
L 252.549418 178.788119 
L 252.549418 173.039525 
L 252.6026 173.039525 
L 252.6026 167.290931 
L 254.812041 167.290931 
L 254.812041 161.542337 
L 255.449195 161.542337 
L 255.449195 155.793743 
L 256.072817 155.793743 
L 256.072817 150.045149 
L 256.086751 150.045149 
L 256.086751 144.296554 
L 256.351209 144.296554 
L 256.351209 138.54796 
L 259.568191 138.54796 
L 259.568191 132.799366 
L 259.659902 132.799366 
L 259.659902 127.050772 
L 259.804293 127.050772 
L 259.804293 121.302178 
L 261.443603 121.302178 
L 261.443603 115.553584 
L 262.131724 115.553584 
L 262.131724 109.80499 
L 262.230949 109.80499 
L 262.230949 104.056396 
L 262.699807 104.056396 
L 262.699807 98.307802 
L 263.117815 98.307802 
L 263.117815 92.559208 
L 263.38957 92.559208 
L 263.38957 86.810614 
L 263.688438 86.810614 
L 263.688438 81.06202 
L 263.735484 81.06202 
L 263.735484 75.313426 
L 263.739999 75.313426 
L 263.739999 69.564832 
L 264.131879 69.564832 
L 264.131879 63.816238 
L 264.193354 63.816238 
L 264.193354 58.067644 
L 265.628054 58.067644 
L 265.628054 52.31905 
L 270.149774 52.31905 
L 270.149774 46.570455 
L 273.6942 46.570455 
L 273.6942 40.821861 
L 296.747976 40.821861 
L 296.747976 35.073267 
L 301.036735 35.073267 
L 301.036735 29.324673 
L 301.789578 29.324673 
L 301.789578 23.576079 
L 304.224845 23.576079 
L 304.224845 17.827485 
L 308.919431 17.827485 
L 308.919431 12.078891 
L 312.071691 12.078891 
L 312.071691 6.330297 
L 312.071691 6.330297 
L 312.071691 6.330297 
L 460.8 6.330297 
" clip-path="url(#pca5b317291)" style="fill: none; stroke: #000000; stroke-width: 1.5; stroke-linecap: square"/>
   </g>
   <g id="line2d_25">
    <path d="M 208.255415 293.76 
L 208.255415 288.011406 
L 219.800852 288.011406 
L 219.800852 282.262812 
L 222.747543 282.262812 
L 222.747543 276.514218 
L 226.715942 276.514218 
L 226.715942 270.765624 
L 227.147154 270.765624 
L 227.147154 265.01703 
L 227.980832 265.01703 
L 227.980832 259.268436 
L 229.090095 259.268436 
L 229.090095 253.519842 
L 229.240056 253.519842 
L 229.240056 247.771248 
L 229.97314 247.771248 
L 229.97314 242.022653 
L 230.341668 242.022653 
L 230.341668 236.274059 
L 230.641971 236.274059 
L 230.641971 230.525465 
L 230.654816 230.525465 
L 230.654816 224.776871 
L 230.960521 224.776871 
L 230.960521 219.028277 
L 231.51589 219.028277 
L 231.51589 213.279683 
L 232.245807 213.279683 
L 232.245807 207.531089 
L 232.765974 207.531089 
L 232.765974 201.782495 
L 233.897678 201.782495 
L 233.897678 196.033901 
L 234.106401 196.033901 
L 234.106401 190.285307 
L 235.486317 190.285307 
L 235.486317 184.536713 
L 236.091939 184.536713 
L 236.091939 178.788119 
L 236.137268 178.788119 
L 236.137268 173.039525 
L 237.425652 173.039525 
L 237.425652 167.290931 
L 239.721346 167.290931 
L 239.721346 161.542337 
L 240.341376 161.542337 
L 240.341376 155.793743 
L 240.592625 155.793743 
L 240.592625 150.045149 
L 241.408613 150.045149 
L 241.408613 144.296554 
L 241.428494 144.296554 
L 241.428494 138.54796 
L 241.625535 138.54796 
L 241.625535 132.799366 
L 242.188188 132.799366 
L 242.188188 127.050772 
L 242.851638 127.050772 
L 242.851638 121.302178 
L 247.90556 121.302178 
L 247.90556 115.553584 
L 248.810167 115.553584 
L 248.810167 109.80499 
L 249.133045 109.80499 
L 249.133045 104.056396 
L 249.756994 104.056396 
L 249.756994 98.307802 
L 250.212559 98.307802 
L 250.212559 92.559208 
L 250.420963 92.559208 
L 250.420963 86.810614 
L 250.831412 86.810614 
L 250.831412 81.06202 
L 251.217532 81.06202 
L 251.217532 75.313426 
L 251.930295 75.313426 
L 251.930295 69.564832 
L 253.253963 69.564832 
L 253.253963 63.816238 
L 254.348105 63.816238 
L 254.348105 58.067644 
L 254.649997 58.067644 
L 254.649997 52.31905 
L 256.072817 52.31905 
L 256.072817 46.570455 
L 256.463788 46.570455 
L 256.463788 40.821861 
L 258.113715 40.821861 
L 258.113715 35.073267 
L 259.659902 35.073267 
L 259.659902 29.324673 
L 260.066996 29.324673 
L 260.066996 23.576079 
L 261.816253 23.576079 
L 261.816253 17.827485 
L 263.38957 17.827485 
L 263.38957 12.078891 
L 279.467168 12.078891 
L 279.467168 6.330297 
L 279.467168 6.330297 
L 279.467168 6.330297 
L 460.8 6.330297 
" clip-path="url(#pca5b317291)" style="fill: none; stroke: #00bfbf; stroke-width: 1.5; stroke-linecap: square"/>
   </g>
   <g id="line2d_26">
    <path d="M -1 288.011406 
L 1.587467 288.011406 
L 1.587467 282.262812 
L 75.920784 282.262812 
L 75.920784 276.514218 
L 208.255415 276.514218 
L 208.255415 270.765624 
L 210.934475 270.765624 
L 210.934475 265.01703 
L 210.936046 265.01703 
L 210.936046 259.268436 
L 212.484274 259.268436 
L 212.484274 253.519842 
L 214.390293 253.519842 
L 214.390293 247.771248 
L 214.416271 247.771248 
L 214.416271 242.022653 
L 216.947762 242.022653 
L 216.947762 236.274059 
L 217.257913 236.274059 
L 217.257913 230.525465 
L 219.800852 230.525465 
L 219.800852 224.776871 
L 220.709571 224.776871 
L 220.709571 219.028277 
L 220.772729 219.028277 
L 220.772729 213.279683 
L 221.440868 213.279683 
L 221.440868 207.531089 
L 222.119454 207.531089 
L 222.119454 201.782495 
L 222.13205 201.782495 
L 222.13205 196.033901 
L 222.974216 196.033901 
L 222.974216 190.285307 
L 223.596418 190.285307 
L 223.596418 184.536713 
L 223.596439 184.536713 
L 223.596439 178.788119 
L 223.597958 178.788119 
L 223.597958 173.039525 
L 223.600505 173.039525 
L 223.600505 167.290931 
L 223.633568 167.290931 
L 223.633568 161.542337 
L 224.094903 161.542337 
L 224.094903 155.793743 
L 224.467806 155.793743 
L 224.467806 150.045149 
L 224.55511 150.045149 
L 224.55511 144.296554 
L 224.998487 144.296554 
L 224.998487 138.54796 
L 225.282313 138.54796 
L 225.282313 132.799366 
L 225.715227 132.799366 
L 225.715227 127.050772 
L 226.031833 127.050772 
L 226.031833 121.302178 
L 226.051568 121.302178 
L 226.051568 115.553584 
L 226.368805 115.553584 
L 226.368805 109.80499 
L 226.369706 109.80499 
L 226.369706 104.056396 
L 226.692881 104.056396 
L 226.692881 98.307802 
L 227.987862 98.307802 
L 227.987862 92.559208 
L 234.202191 92.559208 
L 234.202191 86.810614 
L 234.204222 86.810614 
L 234.204222 81.06202 
L 238.435542 81.06202 
L 238.435542 75.313426 
L 240.589242 75.313426 
L 240.589242 69.564832 
L 242.078699 69.564832 
L 242.078699 63.816238 
L 244.153531 63.816238 
L 244.153531 58.067644 
L 245.210454 58.067644 
L 245.210454 52.31905 
L 246.125163 52.31905 
L 246.125163 46.570455 
L 247.955046 46.570455 
L 247.955046 40.821861 
L 248.955077 40.821861 
L 248.955077 35.073267 
L 249.863273 35.073267 
L 249.863273 29.324673 
L 252.062484 29.324673 
L 252.062484 23.576079 
L 252.457029 23.576079 
L 252.457029 17.827485 
L 253.086507 17.827485 
L 253.086507 12.078891 
L 253.253963 12.078891 
L 253.253963 6.330297 
L 253.253963 6.330297 
L 253.253963 6.330297 
L 460.8 6.330297 
" clip-path="url(#pca5b317291)" style="fill: none; stroke: #bf00bf; stroke-width: 1.5; stroke-linecap: square"/>
   </g>
   <g id="line2d_27">
    <path d="M -1 236.274059 
L 183.167707 236.274059 
L 183.167707 230.525465 
L 184.418755 230.525465 
L 184.418755 224.776871 
L 197.586599 224.776871 
L 197.586599 219.028277 
L 206.854717 219.028277 
L 206.854717 213.279683 
L 210.578483 213.279683 
L 210.578483 207.531089 
L 210.933627 207.531089 
L 210.933627 201.782495 
L 210.933627 201.782495 
L 210.933627 196.033901 
L 210.933629 196.033901 
L 210.933629 190.285307 
L 210.933631 190.285307 
L 210.933631 184.536713 
L 211.356335 184.536713 
L 211.356335 178.788119 
L 212.481524 178.788119 
L 212.481524 173.039525 
L 214.112431 173.039525 
L 214.112431 167.290931 
L 214.391864 167.290931 
L 214.391864 161.542337 
L 214.391864 161.542337 
L 214.391864 155.793743 
L 214.717692 155.793743 
L 214.717692 150.045149 
L 215.282827 150.045149 
L 215.282827 144.296554 
L 215.546018 144.296554 
L 215.546018 138.54796 
L 216.412222 138.54796 
L 216.412222 132.799366 
L 216.947762 132.799366 
L 216.947762 127.050772 
L 217.219353 127.050772 
L 217.219353 121.302178 
L 217.568588 121.302178 
L 217.568588 115.553584 
L 218.016601 115.553584 
L 218.016601 109.80499 
L 219.670813 109.80499 
L 219.670813 104.056396 
L 220.53107 104.056396 
L 220.53107 98.307802 
L 220.871199 98.307802 
L 220.871199 92.559208 
L 222.131746 92.559208 
L 222.131746 86.810614 
L 222.9742 86.810614 
L 222.9742 81.06202 
L 222.9742 81.06202 
L 222.9742 75.313426 
L 223.067787 75.313426 
L 223.067787 69.564832 
L 223.077864 69.564832 
L 223.077864 63.816238 
L 224.796996 63.816238 
L 224.796996 58.067644 
L 237.256508 58.067644 
L 237.256508 52.31905 
L 237.624187 52.31905 
L 237.624187 46.570455 
L 238.676264 46.570455 
L 238.676264 40.821861 
L 239.549371 40.821861 
L 239.549371 35.073267 
L 240.68895 35.073267 
L 240.68895 29.324673 
L 242.572494 29.324673 
L 242.572494 23.576079 
L 242.606664 23.576079 
L 242.606664 17.827485 
L 244.084953 17.827485 
L 244.084953 12.078891 
L 245.341097 12.078891 
L 245.341097 6.330297 
L 245.341097 6.330297 
L 245.341097 6.330297 
L 460.8 6.330297 
" clip-path="url(#pca5b317291)" style="fill: none; stroke: #000000; stroke-width: 1.5; stroke-linecap: square"/>
   </g>
   <g id="line2d_28">
    <path d="M -1 167.290931 
L -0.868069 167.290931 
L -0.868069 161.542337 
L 163.424499 161.542337 
L 163.424499 155.793743 
L 184.418755 155.793743 
L 184.418755 150.045149 
L 191.021394 150.045149 
L 191.021394 144.296554 
L 193.274223 144.296554 
L 193.274223 138.54796 
L 198.199735 138.54796 
L 198.199735 132.799366 
L 198.402724 132.799366 
L 198.402724 127.050772 
L 198.402724 127.050772 
L 198.402724 121.302178 
L 198.402724 121.302178 
L 198.402724 115.553584 
L 198.402724 115.553584 
L 198.402724 109.80499 
L 205.48922 109.80499 
L 205.48922 104.056396 
L 205.48922 104.056396 
L 205.48922 98.307802 
L 206.506325 98.307802 
L 206.506325 92.559208 
L 207.866577 92.559208 
L 207.866577 86.810614 
L 210.933627 86.810614 
L 210.933627 81.06202 
L 210.933627 81.06202 
L 210.933627 75.313426 
L 210.933627 75.313426 
L 210.933627 69.564832 
L 214.391864 69.564832 
L 214.391864 63.816238 
L 220.46169 63.816238 
L 220.46169 58.067644 
L 221.548378 58.067644 
L 221.548378 52.31905 
L 234.463281 52.31905 
L 234.463281 46.570455 
L 234.517862 46.570455 
L 234.517862 40.821861 
L 234.545581 40.821861 
L 234.545581 35.073267 
L 234.586639 35.073267 
L 234.586639 29.324673 
L 234.609886 29.324673 
L 234.609886 23.576079 
L 234.619797 23.576079 
L 234.619797 17.827485 
L 234.707128 17.827485 
L 234.707128 12.078891 
L 235.004688 12.078891 
L 235.004688 6.330297 
L 235.004688 6.330297 
L 235.004688 6.330297 
L 460.8 6.330297 
" clip-path="url(#pca5b317291)" style="fill: none; stroke: #00bfbf; stroke-width: 1.5; stroke-linecap: square"/>
   </g>
   <g id="line2d_29">
    <path d="M -1 92.559208 
L -0.868069 92.559208 
L -0.868069 86.810614 
L 181.482303 86.810614 
L 181.482303 81.06202 
L 191.021394 81.06202 
L 191.021394 75.313426 
L 198.199735 75.313426 
L 198.199735 69.564832 
L 204.104863 69.564832 
L 204.104863 63.816238 
L 207.866577 63.816238 
L 207.866577 58.067644 
L 210.420788 58.067644 
L 210.420788 52.31905 
L 210.933627 52.31905 
L 210.933627 46.570455 
L 210.933627 46.570455 
L 210.933627 40.821861 
L 221.548378 40.821861 
L 221.548378 35.073267 
L 234.133648 35.073267 
L 234.133648 29.324673 
L 234.162931 29.324673 
L 234.162931 23.576079 
L 234.20537 23.576079 
L 234.20537 17.827485 
L 234.23143 17.827485 
L 234.23143 12.078891 
L 234.293911 12.078891 
L 234.293911 6.330297 
L 234.293911 6.330297 
L 234.293911 6.330297 
L 460.8 6.330297 
" clip-path="url(#pca5b317291)" style="fill: none; stroke: #bf00bf; stroke-width: 1.5; stroke-linecap: square"/>
   </g>
   <g id="patch_3">
    <path d="M 0 293.76 
L 0 3.456 
" style="fill: none; stroke: #000000; stroke-width: 0.8; stroke-linejoin: miter; stroke-linecap: square"/>
   </g>
   <g id="patch_4">
    <path d="M 460.8 293.76 
L 460.8 3.456 
" style="fill: none; stroke: #000000; stroke-width: 0.8; stroke-linejoin: miter; stroke-linecap: square"/>
   </g>
   <g id="patch_5">
    <path d="M 0 293.76 
L 460.8 293.76 
" style="fill: none; stroke: #000000; stroke-width: 0.8; stroke-linejoin: miter; stroke-linecap: square"/>
   </g>
   <g id="patch_6">
    <path d="M 0 3.456 
L 460.8 3.456 
" style="fill: none; stroke: #000000; stroke-width: 0.8; stroke-linejoin: miter; stroke-linecap: square"/>
   </g>
   <g id="text_6">
    <!-- {f20-f24}, 5-D -->
    <g transform="translate(305.884 287.95392)scale(0.2 -0.2)">
     <defs>
      <path id="DejaVuSans-7b" d="M 3272 -594 
L 3272 -1044 
L 3078 -1044 
Q 2300 -1044 2036 -812 
Q 1772 -581 1772 109 
L 1772 856 
Q 1772 1328 1603 1509 
Q 1434 1691 991 1691 
L 800 1691 
L 800 2138 
L 991 2138 
Q 1438 2138 1605 2317 
Q 1772 2497 1772 2963 
L 1772 3713 
Q 1772 4403 2036 4633 
Q 2300 4863 3078 4863 
L 3272 4863 
L 3272 4416 
L 3059 4416 
Q 2619 4416 2484 4278 
Q 2350 4141 2350 3700 
L 2350 2925 
Q 2350 2434 2208 2212 
Q 2066 1991 1722 1913 
Q 2069 1828 2209 1606 
Q 2350 1384 2350 897 
L 2350 122 
Q 2350 -319 2484 -456 
Q 2619 -594 3059 -594 
L 3272 -594 
z
" transform="scale(0.015625)"/>
      <path id="DejaVuSans-32" d="M 1228 531 
L 3431 531 
L 3431 0 
L 469 0 
L 469 531 
Q 828 903 1448 1529 
Q 2069 2156 2228 2338 
Q 2531 2678 2651 2914 
Q 2772 3150 2772 3378 
Q 2772 3750 2511 3984 
Q 2250 4219 1831 4219 
Q 1534 4219 1204 4116 
Q 875 4013 500 3803 
L 500 4441 
Q 881 4594 1212 4672 
Q 1544 4750 1819 4750 
Q 2544 4750 2975 4387 
Q 3406 4025 3406 3419 
Q 3406 3131 3298 2873 
Q 3191 2616 2906 2266 
Q 2828 2175 2409 1742 
Q 1991 1309 1228 531 
z
" transform="scale(0.015625)"/>
      <path id="DejaVuSans-7d" d="M 800 -594 
L 1019 -594 
Q 1456 -594 1589 -459 
Q 1722 -325 1722 122 
L 1722 897 
Q 1722 1384 1862 1606 
Q 2003 1828 2350 1913 
Q 2003 1991 1862 2212 
Q 1722 2434 1722 2925 
L 1722 3700 
Q 1722 4144 1589 4280 
Q 1456 4416 1019 4416 
L 800 4416 
L 800 4863 
L 997 4863 
Q 1775 4863 2036 4633 
Q 2297 4403 2297 3713 
L 2297 2963 
Q 2297 2497 2465 2317 
Q 2634 2138 3078 2138 
L 3272 2138 
L 3272 1691 
L 3078 1691 
Q 2634 1691 2465 1509 
Q 2297 1328 2297 856 
L 2297 109 
Q 2297 -581 2036 -812 
Q 1775 -1044 997 -1044 
L 800 -1044 
L 800 -594 
z
" transform="scale(0.015625)"/>
      <path id="DejaVuSans-2c" d="M 750 794 
L 1409 794 
L 1409 256 
L 897 -744 
L 494 -744 
L 750 256 
L 750 794 
z
" transform="scale(0.015625)"/>
      <path id="DejaVuSans-35" d="M 691 4666 
L 3169 4666 
L 3169 4134 
L 1269 4134 
L 1269 2991 
Q 1406 3038 1543 3061 
Q 1681 3084 1819 3084 
Q 2600 3084 3056 2656 
Q 3513 2228 3513 1497 
Q 3513 744 3044 326 
Q 2575 -91 1722 -91 
Q 1428 -91 1123 -41 
Q 819 9 494 109 
L 494 744 
Q 775 591 1075 516 
Q 1375 441 1709 441 
Q 2250 441 2565 725 
Q 2881 1009 2881 1497 
Q 2881 1984 2565 2268 
Q 2250 2553 1709 2553 
Q 1456 2553 1204 2497 
Q 953 2441 691 2322 
L 691 4666 
z
" transform="scale(0.015625)"/>
     </defs>
     <use xlink:href="#DejaVuSans-7b"/>
     <use xlink:href="#DejaVuSans-66" x="63.623047"/>
     <use xlink:href="#DejaVuSans-32" x="98.828125"/>
     <use xlink:href="#DejaVuSans-30" x="162.451172"/>
     <use xlink:href="#DejaVuSans-2d" x="226.074219"/>
     <use xlink:href="#DejaVuSans-66" x="262.158203"/>
     <use xlink:href="#DejaVuSans-32" x="297.363281"/>
     <use xlink:href="#DejaVuSans-34" x="360.986328"/>
     <use xlink:href="#DejaVuSans-7d" x="424.609375"/>
     <use xlink:href="#DejaVuSans-2c" x="488.232422"/>
     <use xlink:href="#DejaVuSans-20" x="520.019531"/>
     <use xlink:href="#DejaVuSans-35" x="551.806641"/>
     <use xlink:href="#DejaVuSans-2d" x="615.429688"/>
     <use xlink:href="#DejaVuSans-44" x="651.513672"/>
    </g>
   </g>
   <g id="text_7">
    <!-- v2.6.3 -->
    <g style="fill: #808080" transform="translate(214.71875 288.777272)scale(0.1 -0.1)">
     <defs>
      <path id="DejaVuSans-76" d="M 191 3500 
L 800 3500 
L 1894 563 
L 2988 3500 
L 3597 3500 
L 2284 0 
L 1503 0 
L 191 3500 
z
" transform="scale(0.015625)"/>
      <path id="DejaVuSans-2e" d="M 684 794 
L 1344 794 
L 1344 0 
L 684 0 
L 684 794 
z
" transform="scale(0.015625)"/>
      <path id="DejaVuSans-36" d="M 2113 2584 
Q 1688 2584 1439 2293 
Q 1191 2003 1191 1497 
Q 1191 994 1439 701 
Q 1688 409 2113 409 
Q 2538 409 2786 701 
Q 3034 994 3034 1497 
Q 3034 2003 2786 2293 
Q 2538 2584 2113 2584 
z
M 3366 4563 
L 3366 3988 
Q 3128 4100 2886 4159 
Q 2644 4219 2406 4219 
Q 1781 4219 1451 3797 
Q 1122 3375 1075 2522 
Q 1259 2794 1537 2939 
Q 1816 3084 2150 3084 
Q 2853 3084 3261 2657 
Q 3669 2231 3669 1497 
Q 3669 778 3244 343 
Q 2819 -91 2113 -91 
Q 1303 -91 875 529 
Q 447 1150 447 2328 
Q 447 3434 972 4092 
Q 1497 4750 2381 4750 
Q 2619 4750 2861 4703 
Q 3103 4656 3366 4563 
z
" transform="scale(0.015625)"/>
      <path id="DejaVuSans-33" d="M 2597 2516 
Q 3050 2419 3304 2112 
Q 3559 1806 3559 1356 
Q 3559 666 3084 287 
Q 2609 -91 1734 -91 
Q 1441 -91 1130 -33 
Q 819 25 488 141 
L 488 750 
Q 750 597 1062 519 
Q 1375 441 1716 441 
Q 2309 441 2620 675 
Q 2931 909 2931 1356 
Q 2931 1769 2642 2001 
Q 2353 2234 1838 2234 
L 1294 2234 
L 1294 2753 
L 1863 2753 
Q 2328 2753 2575 2939 
Q 2822 3125 2822 3475 
Q 2822 3834 2567 4026 
Q 2313 4219 1838 4219 
Q 1578 4219 1281 4162 
Q 984 4106 628 3988 
L 628 4550 
Q 988 4650 1302 4700 
Q 1616 4750 1894 4750 
Q 2613 4750 3031 4423 
Q 3450 4097 3450 3541 
Q 3450 3153 3228 2886 
Q 3006 2619 2597 2516 
z
" transform="scale(0.015625)"/>
     </defs>
     <use xlink:href="#DejaVuSans-76"/>
     <use xlink:href="#DejaVuSans-32" x="59.179688"/>
     <use xlink:href="#DejaVuSans-2e" x="122.802734"/>
     <use xlink:href="#DejaVuSans-36" x="154.589844"/>
     <use xlink:href="#DejaVuSans-2e" x="218.212891"/>
     <use xlink:href="#DejaVuSans-33" x="250"/>
    </g>
   </g>
  </g>
 </g>
 <defs>
  <clipPath id="pca5b317291">
   <rect x="0" y="3.456" width="460.8" height="290.304"/>
  </clipPath>
 </defs>
</svg>
