<?xml version="1.0" encoding="utf-8" standalone="no"?>
<!DOCTYPE svg PUBLIC "-//W3C//DTD SVG 1.1//EN"
  "http://www.w3.org/Graphics/SVG/1.1/DTD/svg11.dtd">
<svg xmlns:xlink="http://www.w3.org/1999/xlink" width="460.8pt" height="345.6pt" viewBox="0 0 460.8 345.6" xmlns="http://www.w3.org/2000/svg" version="1.1">
 <metadata>
  <rdf:RDF xmlns:dc="http://purl.org/dc/elements/1.1/" xmlns:cc="http://creativecommons.org/ns#" xmlns:rdf="http://www.w3.org/1999/02/22-rdf-syntax-ns#">
   <cc:Work>
    <dc:type rdf:resource="http://purl.org/dc/dcmitype/StillImage"/>
    <dc:date>2023-04-07T14:47:09.109043</dc:date>
    <dc:format>image/svg+xml</dc:format>
    <dc:creator>
     <cc:Agent>
      <dc:title>Matplotlib v3.5.2, https://matplotlib.org/</dc:title>
     </cc:Agent>
    </dc:creator>
   </cc:Work>
  </rdf:RDF>
 </metadata>
 <defs>
  <style type="text/css">*{stroke-linejoin: round; stroke-linecap: butt}</style>
 </defs>
 <g id="figure_1">
  <g id="patch_1">
   <path d="M 0 345.6 
L 460.8 345.6 
L 460.8 0 
L 0 0 
z
" style="fill: #ffffff"/>
  </g>
  <g id="axes_1">
   <g id="patch_2">
    <path d="M 0 293.76 
L 460.8 293.76 
L 460.8 3.456 
L 0 3.456 
z
" style="fill: #ffffff"/>
   </g>
   <g id="matplotlib.axis_1">
    <g id="xtick_1">
     <g id="line2d_1">
      <path d="M 107.561996 293.76 
L 107.561996 3.456 
" clip-path="url(#pf66e119a9c)" style="fill: none; stroke: #b0b0b0; stroke-width: 0.8; stroke-linecap: square"/>
     </g>
     <g id="line2d_2">
      <defs>
       <path id="med3ccfe2c9" d="M 0 0 
L 0 3.5 
" style="stroke: #000000; stroke-width: 0.8"/>
      </defs>
      <g>
       <use xlink:href="#med3ccfe2c9" x="107.561996" y="293.76" style="stroke: #000000; stroke-width: 0.8"/>
      </g>
     </g>
     <g id="text_1">
      <!-- -4 -->
      <g transform="translate(97.591684 315.956875)scale(0.2 -0.2)">
       <defs>
        <path id="DejaVuSans-2d" d="M 313 2009 
L 1997 2009 
L 1997 1497 
L 313 1497 
L 313 2009 
z
" transform="scale(0.015625)"/>
        <path id="DejaVuSans-34" d="M 2419 4116 
L 825 1625 
L 2419 1625 
L 2419 4116 
z
M 2253 4666 
L 3047 4666 
L 3047 1625 
L 3713 1625 
L 3713 1100 
L 3047 1100 
L 3047 0 
L 2419 0 
L 2419 1100 
L 313 1100 
L 313 1709 
L 2253 4666 
z
" transform="scale(0.015625)"/>
       </defs>
       <use xlink:href="#DejaVuSans-2d"/>
       <use xlink:href="#DejaVuSans-34" x="36.083984"/>
      </g>
     </g>
    </g>
    <g id="xtick_2">
     <g id="line2d_3">
      <path d="M 215.240322 293.76 
L 215.240322 3.456 
" clip-path="url(#pf66e119a9c)" style="fill: none; stroke: #b0b0b0; stroke-width: 0.8; stroke-linecap: square"/>
     </g>
     <g id="line2d_4">
      <g>
       <use xlink:href="#med3ccfe2c9" x="215.240322" y="293.76" style="stroke: #000000; stroke-width: 0.8"/>
      </g>
     </g>
     <g id="text_2">
      <!-- 0 -->
      <g transform="translate(208.877822 315.956875)scale(0.2 -0.2)">
       <defs>
        <path id="DejaVuSans-30" d="M 2034 4250 
Q 1547 4250 1301 3770 
Q 1056 3291 1056 2328 
Q 1056 1369 1301 889 
Q 1547 409 2034 409 
Q 2525 409 2770 889 
Q 3016 1369 3016 2328 
Q 3016 3291 2770 3770 
Q 2525 4250 2034 4250 
z
M 2034 4750 
Q 2819 4750 3233 4129 
Q 3647 3509 3647 2328 
Q 3647 1150 3233 529 
Q 2819 -91 2034 -91 
Q 1250 -91 836 529 
Q 422 1150 422 2328 
Q 422 3509 836 4129 
Q 1250 4750 2034 4750 
z
" transform="scale(0.015625)"/>
       </defs>
       <use xlink:href="#DejaVuSans-30"/>
      </g>
     </g>
    </g>
    <g id="xtick_3">
     <g id="line2d_5">
      <path d="M 322.918648 293.76 
L 322.918648 3.456 
" clip-path="url(#pf66e119a9c)" style="fill: none; stroke: #b0b0b0; stroke-width: 0.8; stroke-linecap: square"/>
     </g>
     <g id="line2d_6">
      <g>
       <use xlink:href="#med3ccfe2c9" x="322.918648" y="293.76" style="stroke: #000000; stroke-width: 0.8"/>
      </g>
     </g>
     <g id="text_3">
      <!-- 4 -->
      <g transform="translate(316.556148 315.956875)scale(0.2 -0.2)">
       <use xlink:href="#DejaVuSans-34"/>
      </g>
     </g>
    </g>
    <g id="xtick_4">
     <g id="line2d_7">
      <path d="M 430.596974 293.76 
L 430.596974 3.456 
" clip-path="url(#pf66e119a9c)" style="fill: none; stroke: #b0b0b0; stroke-width: 0.8; stroke-linecap: square"/>
     </g>
     <g id="line2d_8">
      <g>
       <use xlink:href="#med3ccfe2c9" x="430.596974" y="293.76" style="stroke: #000000; stroke-width: 0.8"/>
      </g>
     </g>
     <g id="text_4">
      <!-- 8 -->
      <g transform="translate(424.234474 315.956875)scale(0.2 -0.2)">
       <defs>
        <path id="DejaVuSans-38" d="M 2034 2216 
Q 1584 2216 1326 1975 
Q 1069 1734 1069 1313 
Q 1069 891 1326 650 
Q 1584 409 2034 409 
Q 2484 409 2743 651 
Q 3003 894 3003 1313 
Q 3003 1734 2745 1975 
Q 2488 2216 2034 2216 
z
M 1403 2484 
Q 997 2584 770 2862 
Q 544 3141 544 3541 
Q 544 4100 942 4425 
Q 1341 4750 2034 4750 
Q 2731 4750 3128 4425 
Q 3525 4100 3525 3541 
Q 3525 3141 3298 2862 
Q 3072 2584 2669 2484 
Q 3125 2378 3379 2068 
Q 3634 1759 3634 1313 
Q 3634 634 3220 271 
Q 2806 -91 2034 -91 
Q 1263 -91 848 271 
Q 434 634 434 1313 
Q 434 1759 690 2068 
Q 947 2378 1403 2484 
z
M 1172 3481 
Q 1172 3119 1398 2916 
Q 1625 2713 2034 2713 
Q 2441 2713 2670 2916 
Q 2900 3119 2900 3481 
Q 2900 3844 2670 4047 
Q 2441 4250 2034 4250 
Q 1625 4250 1398 4047 
Q 1172 3844 1172 3481 
z
" transform="scale(0.015625)"/>
       </defs>
       <use xlink:href="#DejaVuSans-38"/>
      </g>
     </g>
    </g>
    <g id="text_5">
     <!-- log10 of Df -->
     <g transform="translate(175.214063 339.313125)scale(0.2 -0.2)">
      <defs>
       <path id="DejaVuSans-6c" d="M 603 4863 
L 1178 4863 
L 1178 0 
L 603 0 
L 603 4863 
z
" transform="scale(0.015625)"/>
       <path id="DejaVuSans-6f" d="M 1959 3097 
Q 1497 3097 1228 2736 
Q 959 2375 959 1747 
Q 959 1119 1226 758 
Q 1494 397 1959 397 
Q 2419 397 2687 759 
Q 2956 1122 2956 1747 
Q 2956 2369 2687 2733 
Q 2419 3097 1959 3097 
z
M 1959 3584 
Q 2709 3584 3137 3096 
Q 3566 2609 3566 1747 
Q 3566 888 3137 398 
Q 2709 -91 1959 -91 
Q 1206 -91 779 398 
Q 353 888 353 1747 
Q 353 2609 779 3096 
Q 1206 3584 1959 3584 
z
" transform="scale(0.015625)"/>
       <path id="DejaVuSans-67" d="M 2906 1791 
Q 2906 2416 2648 2759 
Q 2391 3103 1925 3103 
Q 1463 3103 1205 2759 
Q 947 2416 947 1791 
Q 947 1169 1205 825 
Q 1463 481 1925 481 
Q 2391 481 2648 825 
Q 2906 1169 2906 1791 
z
M 3481 434 
Q 3481 -459 3084 -895 
Q 2688 -1331 1869 -1331 
Q 1566 -1331 1297 -1286 
Q 1028 -1241 775 -1147 
L 775 -588 
Q 1028 -725 1275 -790 
Q 1522 -856 1778 -856 
Q 2344 -856 2625 -561 
Q 2906 -266 2906 331 
L 2906 616 
Q 2728 306 2450 153 
Q 2172 0 1784 0 
Q 1141 0 747 490 
Q 353 981 353 1791 
Q 353 2603 747 3093 
Q 1141 3584 1784 3584 
Q 2172 3584 2450 3431 
Q 2728 3278 2906 2969 
L 2906 3500 
L 3481 3500 
L 3481 434 
z
" transform="scale(0.015625)"/>
       <path id="DejaVuSans-31" d="M 794 531 
L 1825 531 
L 1825 4091 
L 703 3866 
L 703 4441 
L 1819 4666 
L 2450 4666 
L 2450 531 
L 3481 531 
L 3481 0 
L 794 0 
L 794 531 
z
" transform="scale(0.015625)"/>
       <path id="DejaVuSans-20" transform="scale(0.015625)"/>
       <path id="DejaVuSans-66" d="M 2375 4863 
L 2375 4384 
L 1825 4384 
Q 1516 4384 1395 4259 
Q 1275 4134 1275 3809 
L 1275 3500 
L 2222 3500 
L 2222 3053 
L 1275 3053 
L 1275 0 
L 697 0 
L 697 3053 
L 147 3053 
L 147 3500 
L 697 3500 
L 697 3744 
Q 697 4328 969 4595 
Q 1241 4863 1831 4863 
L 2375 4863 
z
" transform="scale(0.015625)"/>
       <path id="DejaVuSans-44" d="M 1259 4147 
L 1259 519 
L 2022 519 
Q 2988 519 3436 956 
Q 3884 1394 3884 2338 
Q 3884 3275 3436 3711 
Q 2988 4147 2022 4147 
L 1259 4147 
z
M 628 4666 
L 1925 4666 
Q 3281 4666 3915 4102 
Q 4550 3538 4550 2338 
Q 4550 1131 3912 565 
Q 3275 0 1925 0 
L 628 0 
L 628 4666 
z
" transform="scale(0.015625)"/>
      </defs>
      <use xlink:href="#DejaVuSans-6c"/>
      <use xlink:href="#DejaVuSans-6f" x="27.783203"/>
      <use xlink:href="#DejaVuSans-67" x="88.964844"/>
      <use xlink:href="#DejaVuSans-31" x="152.441406"/>
      <use xlink:href="#DejaVuSans-30" x="216.064453"/>
      <use xlink:href="#DejaVuSans-20" x="279.6875"/>
      <use xlink:href="#DejaVuSans-6f" x="311.474609"/>
      <use xlink:href="#DejaVuSans-66" x="372.65625"/>
      <use xlink:href="#DejaVuSans-20" x="407.861328"/>
      <use xlink:href="#DejaVuSans-44" x="439.648438"/>
      <use xlink:href="#DejaVuSans-66" x="516.650391"/>
     </g>
    </g>
   </g>
   <g id="matplotlib.axis_2">
    <g id="ytick_1">
     <g id="line2d_9">
      <path d="M 0 293.76 
L 460.8 293.76 
" clip-path="url(#pf66e119a9c)" style="fill: none; stroke: #b0b0b0; stroke-width: 0.8; stroke-linecap: square"/>
     </g>
     <g id="line2d_10">
      <defs>
       <path id="m47da8c8ee4" d="M 0 0 
L -3.5 0 
" style="stroke: #000000; stroke-width: 0.8"/>
      </defs>
      <g>
       <use xlink:href="#m47da8c8ee4" x="0" y="293.76" style="stroke: #000000; stroke-width: 0.8"/>
      </g>
     </g>
    </g>
    <g id="ytick_2">
     <g id="line2d_11">
      <path d="M 0 236.274059 
L 460.8 236.274059 
" clip-path="url(#pf66e119a9c)" style="fill: none; stroke: #b0b0b0; stroke-width: 0.8; stroke-linecap: square"/>
     </g>
     <g id="line2d_12">
      <g>
       <use xlink:href="#m47da8c8ee4" x="0" y="236.274059" style="stroke: #000000; stroke-width: 0.8"/>
      </g>
     </g>
    </g>
    <g id="ytick_3">
     <g id="line2d_13">
      <path d="M 0 178.788119 
L 460.8 178.788119 
" clip-path="url(#pf66e119a9c)" style="fill: none; stroke: #b0b0b0; stroke-width: 0.8; stroke-linecap: square"/>
     </g>
     <g id="line2d_14">
      <g>
       <use xlink:href="#m47da8c8ee4" x="0" y="178.788119" style="stroke: #000000; stroke-width: 0.8"/>
      </g>
     </g>
    </g>
    <g id="ytick_4">
     <g id="line2d_15">
      <path d="M 0 121.302178 
L 460.8 121.302178 
" clip-path="url(#pf66e119a9c)" style="fill: none; stroke: #b0b0b0; stroke-width: 0.8; stroke-linecap: square"/>
     </g>
     <g id="line2d_16">
      <g>
       <use xlink:href="#m47da8c8ee4" x="0" y="121.302178" style="stroke: #000000; stroke-width: 0.8"/>
      </g>
     </g>
    </g>
    <g id="ytick_5">
     <g id="line2d_17">
      <path d="M 0 63.816238 
L 460.8 63.816238 
" clip-path="url(#pf66e119a9c)" style="fill: none; stroke: #b0b0b0; stroke-width: 0.8; stroke-linecap: square"/>
     </g>
     <g id="line2d_18">
      <g>
       <use xlink:href="#m47da8c8ee4" x="0" y="63.816238" style="stroke: #000000; stroke-width: 0.8"/>
      </g>
     </g>
    </g>
    <g id="ytick_6">
     <g id="line2d_19">
      <path d="M 0 6.330297 
L 460.8 6.330297 
" clip-path="url(#pf66e119a9c)" style="fill: none; stroke: #b0b0b0; stroke-width: 0.8; stroke-linecap: square"/>
     </g>
     <g id="line2d_20">
      <g>
       <use xlink:href="#m47da8c8ee4" x="0" y="6.330297" style="stroke: #000000; stroke-width: 0.8"/>
      </g>
     </g>
    </g>
   </g>
   <g id="line2d_21">
    <path d="M -1 52.31905 
L -0.915079 52.31905 
L -0.915079 46.570455 
L -0.889597 46.570455 
L -0.889597 40.821861 
L -0.882535 40.821861 
L -0.882535 35.073267 
L -0.543085 35.073267 
L -0.543085 29.324673 
L -0.536608 29.324673 
L -0.536608 23.576079 
L -0.492993 23.576079 
L -0.492993 17.827485 
L -0.442264 17.827485 
L -0.442264 12.078891 
L -0.38211 12.078891 
L -0.38211 6.330297 
L -0.38211 6.330297 
L -0.38211 6.330297 
L 460.8 6.330297 
" clip-path="url(#pf66e119a9c)" style="fill: none; stroke: #ff0000; stroke-width: 3; stroke-linecap: square"/>
   </g>
   <g id="line2d_22">
    <path d="M 233.299486 293.76 
L 233.299486 288.011406 
L 233.789068 288.011406 
L 233.789068 282.262812 
L 236.219328 282.262812 
L 236.219328 276.514218 
L 241.260544 276.514218 
L 241.260544 270.765624 
L 243.482711 270.765624 
L 243.482711 265.01703 
L 244.803117 265.01703 
L 244.803117 259.268436 
L 247.956686 259.268436 
L 247.956686 253.519842 
L 248.114385 253.519842 
L 248.114385 247.771248 
L 256.970576 247.771248 
L 256.970576 242.022653 
L 262.255959 242.022653 
L 262.255959 236.274059 
L 289.858122 236.274059 
L 289.858122 230.525465 
L 291.043253 230.525465 
L 291.043253 224.776871 
L 292.248697 224.776871 
L 292.248697 219.028277 
L 293.312435 219.028277 
L 293.312435 213.279683 
L 293.839732 213.279683 
L 293.839732 207.531089 
L 294.633138 207.531089 
L 294.633138 201.782495 
L 294.657066 201.782495 
L 294.657066 196.033901 
L 295.915283 196.033901 
L 295.915283 190.285307 
L 298.02134 190.285307 
L 298.02134 184.536713 
L 299.011252 184.536713 
L 299.011252 178.788119 
L 325.629133 178.788119 
L 325.629133 173.039525 
L 328.203553 173.039525 
L 328.203553 167.290931 
L 352.964027 167.290931 
L 352.964027 161.542337 
L 357.960151 161.542337 
L 357.960151 155.793743 
L 360.184247 155.793743 
L 360.184247 150.045149 
L 362.008927 150.045149 
L 362.008927 144.296554 
L 363.737616 144.296554 
L 363.737616 138.54796 
L 365.313092 138.54796 
L 365.313092 132.799366 
L 385.140695 132.799366 
L 385.140695 127.050772 
L 385.999006 127.050772 
L 385.999006 121.302178 
L 388.048688 121.302178 
L 388.048688 115.553584 
L 390.005412 115.553584 
L 390.005412 109.80499 
L 397.21631 109.80499 
L 397.21631 104.056396 
L 397.618008 104.056396 
L 397.618008 98.307802 
L 399.151601 98.307802 
L 399.151601 92.559208 
L 402.68453 92.559208 
L 402.68453 86.810614 
L 404.929054 86.810614 
L 404.929054 81.06202 
L 406.041066 81.06202 
L 406.041066 75.313426 
L 407.682649 75.313426 
L 407.682649 69.564832 
L 407.952646 69.564832 
L 407.952646 63.816238 
L 407.987177 63.816238 
L 407.987177 58.067644 
L 409.464759 58.067644 
L 409.464759 52.31905 
L 411.240443 52.31905 
L 411.240443 46.570455 
L 414.891613 46.570455 
L 414.891613 40.821861 
L 417.286704 40.821861 
L 417.286704 35.073267 
L 417.814047 35.073267 
L 417.814047 29.324673 
L 418.708988 29.324673 
L 418.708988 23.576079 
L 427.225102 23.576079 
L 427.225102 17.827485 
L 430.148985 17.827485 
L 430.148985 12.078891 
L 431.355936 12.078891 
L 431.355936 6.330297 
L 431.355936 6.330297 
L 431.355936 6.330297 
L 460.8 6.330297 
" clip-path="url(#pf66e119a9c)" style="fill: none; stroke: #00bfbf; stroke-width: 1.5; stroke-linecap: square"/>
   </g>
   <g id="line2d_23">
    <path d="M 227.278722 293.76 
L 227.278722 288.011406 
L 232.895597 288.011406 
L 232.895597 282.262812 
L 233.263256 282.262812 
L 233.263256 276.514218 
L 233.299486 276.514218 
L 233.299486 270.765624 
L 233.789068 270.765624 
L 233.789068 265.01703 
L 236.219328 265.01703 
L 236.219328 259.268436 
L 242.996223 259.268436 
L 242.996223 253.519842 
L 243.813395 253.519842 
L 243.813395 247.771248 
L 244.803117 247.771248 
L 244.803117 242.022653 
L 246.444983 242.022653 
L 246.444983 236.274059 
L 285.326738 236.274059 
L 285.326738 230.525465 
L 287.053619 230.525465 
L 287.053619 224.776871 
L 289.72296 224.776871 
L 289.72296 219.028277 
L 289.858122 219.028277 
L 289.858122 213.279683 
L 291.043253 213.279683 
L 291.043253 207.531089 
L 291.796488 207.531089 
L 291.796488 201.782495 
L 292.248697 201.782495 
L 292.248697 196.033901 
L 292.591828 196.033901 
L 292.591828 190.285307 
L 294.964577 190.285307 
L 294.964577 184.536713 
L 298.538113 184.536713 
L 298.538113 178.788119 
L 325.629133 178.788119 
L 325.629133 173.039525 
L 328.203553 173.039525 
L 328.203553 167.290931 
L 339.71689 167.290931 
L 339.71689 161.542337 
L 339.986878 161.542337 
L 339.986878 155.793743 
L 351.10043 155.793743 
L 351.10043 150.045149 
L 353.776611 150.045149 
L 353.776611 144.296554 
L 362.008927 144.296554 
L 362.008927 138.54796 
L 363.737616 138.54796 
L 363.737616 132.799366 
L 365.313092 132.799366 
L 365.313092 127.050772 
L 371.674265 127.050772 
L 371.674265 121.302178 
L 373.658681 121.302178 
L 373.658681 115.553584 
L 379.383592 115.553584 
L 379.383592 109.80499 
L 379.98614 109.80499 
L 379.98614 104.056396 
L 382.179426 104.056396 
L 382.179426 98.307802 
L 385.140695 98.307802 
L 385.140695 92.559208 
L 387.652427 92.559208 
L 387.652427 86.810614 
L 394.47582 86.810614 
L 394.47582 81.06202 
L 397.21631 81.06202 
L 397.21631 75.313426 
L 398.431537 75.313426 
L 398.431537 69.564832 
L 400.218794 69.564832 
L 400.218794 63.816238 
L 403.144764 63.816238 
L 403.144764 58.067644 
L 407.987177 58.067644 
L 407.987177 52.31905 
L 411.034133 52.31905 
L 411.034133 46.570455 
L 414.007648 46.570455 
L 414.007648 40.821861 
L 417.286704 40.821861 
L 417.286704 35.073267 
L 417.814047 35.073267 
L 417.814047 29.324673 
L 418.708988 29.324673 
L 418.708988 23.576079 
L 423.888172 23.576079 
L 423.888172 17.827485 
L 430.148985 17.827485 
L 430.148985 12.078891 
L 431.355936 12.078891 
L 431.355936 6.330297 
L 431.355936 6.330297 
L 431.355936 6.330297 
L 460.8 6.330297 
" clip-path="url(#pf66e119a9c)" style="fill: none; stroke: #bf00bf; stroke-width: 1.5; stroke-linecap: square"/>
   </g>
   <g id="line2d_24">
    <path d="M 227.278722 293.76 
L 227.278722 288.011406 
L 228.559014 288.011406 
L 228.559014 282.262812 
L 231.268604 282.262812 
L 231.268604 276.514218 
L 233.263256 276.514218 
L 233.263256 270.765624 
L 233.299486 270.765624 
L 233.299486 265.01703 
L 233.789068 265.01703 
L 233.789068 259.268436 
L 236.219328 259.268436 
L 236.219328 253.519842 
L 238.292249 253.519842 
L 238.292249 247.771248 
L 239.803637 247.771248 
L 239.803637 242.022653 
L 244.803117 242.022653 
L 244.803117 236.274059 
L 285.326738 236.274059 
L 285.326738 230.525465 
L 286.832827 230.525465 
L 286.832827 224.776871 
L 286.869492 224.776871 
L 286.869492 219.028277 
L 287.053619 219.028277 
L 287.053619 213.279683 
L 287.251074 213.279683 
L 287.251074 207.531089 
L 287.987556 207.531089 
L 287.987556 201.782495 
L 288.602344 201.782495 
L 288.602344 196.033901 
L 290.981369 196.033901 
L 290.981369 190.285307 
L 291.744767 190.285307 
L 291.744767 184.536713 
L 292.56077 184.536713 
L 292.56077 178.788119 
L 306.210104 178.788119 
L 306.210104 173.039525 
L 307.6602 173.039525 
L 307.6602 167.290931 
L 310.98897 167.290931 
L 310.98897 161.542337 
L 312.999836 161.542337 
L 312.999836 155.793743 
L 325.629133 155.793743 
L 325.629133 150.045149 
L 339.71689 150.045149 
L 339.71689 144.296554 
L 339.986878 144.296554 
L 339.986878 138.54796 
L 351.10043 138.54796 
L 351.10043 132.799366 
L 351.268235 132.799366 
L 351.268235 127.050772 
L 353.776611 127.050772 
L 353.776611 121.302178 
L 357.552231 121.302178 
L 357.552231 115.553584 
L 358.144233 115.553584 
L 358.144233 109.80499 
L 359.825214 109.80499 
L 359.825214 104.056396 
L 362.008927 104.056396 
L 362.008927 98.307802 
L 363.638739 98.307802 
L 363.638739 92.559208 
L 367.777562 92.559208 
L 367.777562 86.810614 
L 368.413964 86.810614 
L 368.413964 81.06202 
L 368.727871 81.06202 
L 368.727871 75.313426 
L 369.790103 75.313426 
L 369.790103 69.564832 
L 376.034369 69.564832 
L 376.034369 63.816238 
L 382.392762 63.816238 
L 382.392762 58.067644 
L 385.060955 58.067644 
L 385.060955 52.31905 
L 393.922895 52.31905 
L 393.922895 46.570455 
L 395.27413 46.570455 
L 395.27413 40.821861 
L 400.218794 40.821861 
L 400.218794 35.073267 
L 401.498408 35.073267 
L 401.498408 29.324673 
L 408.323831 29.324673 
L 408.323831 23.576079 
L 409.534451 23.576079 
L 409.534451 17.827485 
L 410.537193 17.827485 
L 410.537193 12.078891 
L 413.63871 12.078891 
L 413.63871 6.330297 
L 413.63871 6.330297 
L 413.63871 6.330297 
L 460.8 6.330297 
" clip-path="url(#pf66e119a9c)" style="fill: none; stroke: #000000; stroke-width: 1.5; stroke-linecap: square"/>
   </g>
   <g id="line2d_25">
    <path d="M 207.84647 293.76 
L 207.84647 288.011406 
L 216.064122 288.011406 
L 216.064122 282.262812 
L 216.347076 282.262812 
L 216.347076 276.514218 
L 220.934471 276.514218 
L 220.934471 270.765624 
L 221.064145 270.765624 
L 221.064145 265.01703 
L 222.238603 265.01703 
L 222.238603 259.268436 
L 223.345165 259.268436 
L 223.345165 253.519842 
L 224.561792 253.519842 
L 224.561792 247.771248 
L 225.463099 247.771248 
L 225.463099 242.022653 
L 235.154337 242.022653 
L 235.154337 236.274059 
L 259.081157 236.274059 
L 259.081157 230.525465 
L 265.966486 230.525465 
L 265.966486 224.776871 
L 274.590743 224.776871 
L 274.590743 219.028277 
L 276.169346 219.028277 
L 276.169346 213.279683 
L 276.277073 213.279683 
L 276.277073 207.531089 
L 280.569695 207.531089 
L 280.569695 201.782495 
L 281.186472 201.782495 
L 281.186472 196.033901 
L 281.466717 196.033901 
L 281.466717 190.285307 
L 282.335184 190.285307 
L 282.335184 184.536713 
L 282.824262 184.536713 
L 282.824262 178.788119 
L 284.523049 178.788119 
L 284.523049 173.039525 
L 286.786964 173.039525 
L 286.786964 167.290931 
L 302.874685 167.290931 
L 302.874685 161.542337 
L 307.37753 161.542337 
L 307.37753 155.793743 
L 307.6602 155.793743 
L 307.6602 150.045149 
L 310.37777 150.045149 
L 310.37777 144.296554 
L 311.354063 144.296554 
L 311.354063 138.54796 
L 311.836573 138.54796 
L 311.836573 132.799366 
L 319.334073 132.799366 
L 319.334073 127.050772 
L 328.929804 127.050772 
L 328.929804 121.302178 
L 329.268806 121.302178 
L 329.268806 115.553584 
L 329.819967 115.553584 
L 329.819967 109.80499 
L 331.969147 109.80499 
L 331.969147 104.056396 
L 333.400901 104.056396 
L 333.400901 98.307802 
L 334.320892 98.307802 
L 334.320892 92.559208 
L 345.488914 92.559208 
L 345.488914 86.810614 
L 346.793458 86.810614 
L 346.793458 81.06202 
L 347.604011 81.06202 
L 347.604011 75.313426 
L 347.992166 75.313426 
L 347.992166 69.564832 
L 352.406013 69.564832 
L 352.406013 63.816238 
L 373.309202 63.816238 
L 373.309202 58.067644 
L 377.521122 58.067644 
L 377.521122 52.31905 
L 379.915295 52.31905 
L 379.915295 46.570455 
L 381.752624 46.570455 
L 381.752624 40.821861 
L 383.099785 40.821861 
L 383.099785 35.073267 
L 384.97658 35.073267 
L 384.97658 29.324673 
L 389.303994 29.324673 
L 389.303994 23.576079 
L 391.060475 23.576079 
L 391.060475 17.827485 
L 394.231923 17.827485 
L 394.231923 12.078891 
L 395.347614 12.078891 
L 395.347614 6.330297 
L 395.347614 6.330297 
L 395.347614 6.330297 
L 460.8 6.330297 
" clip-path="url(#pf66e119a9c)" style="fill: none; stroke: #00bfbf; stroke-width: 1.5; stroke-linecap: square"/>
   </g>
   <g id="line2d_26">
    <path d="M 105.457323 293.76 
L 105.457323 288.011406 
L 119.769755 288.011406 
L 119.769755 282.262812 
L 129.52555 282.262812 
L 129.52555 276.514218 
L 131.595025 276.514218 
L 131.595025 270.765624 
L 133.4661 270.765624 
L 133.4661 265.01703 
L 139.869767 265.01703 
L 139.869767 259.268436 
L 140.068331 259.268436 
L 140.068331 253.519842 
L 140.55092 253.519842 
L 140.55092 247.771248 
L 145.42209 247.771248 
L 145.42209 242.022653 
L 148.85541 242.022653 
L 148.85541 236.274059 
L 198.453925 236.274059 
L 198.453925 230.525465 
L 201.433143 230.525465 
L 201.433143 224.776871 
L 211.50334 224.776871 
L 211.50334 219.028277 
L 212.080763 219.028277 
L 212.080763 213.279683 
L 214.527367 213.279683 
L 214.527367 207.531089 
L 214.854 207.531089 
L 214.854 201.782495 
L 219.051605 201.782495 
L 219.051605 196.033901 
L 220.433243 196.033901 
L 220.433243 190.285307 
L 221.228558 190.285307 
L 221.228558 184.536713 
L 227.02751 184.536713 
L 227.02751 178.788119 
L 230.27344 178.788119 
L 230.27344 173.039525 
L 230.548417 173.039525 
L 230.548417 167.290931 
L 234.089211 167.290931 
L 234.089211 161.542337 
L 235.042684 161.542337 
L 235.042684 155.793743 
L 235.604693 155.793743 
L 235.604693 150.045149 
L 238.262211 150.045149 
L 238.262211 144.296554 
L 239.512295 144.296554 
L 239.512295 138.54796 
L 242.793456 138.54796 
L 242.793456 132.799366 
L 244.164151 132.799366 
L 244.164151 127.050772 
L 244.843207 127.050772 
L 244.843207 121.302178 
L 245.795024 121.302178 
L 245.795024 115.553584 
L 248.206363 115.553584 
L 248.206363 109.80499 
L 250.700152 109.80499 
L 250.700152 104.056396 
L 254.116473 104.056396 
L 254.116473 98.307802 
L 254.774415 98.307802 
L 254.774415 92.559208 
L 255.402849 92.559208 
L 255.402849 86.810614 
L 255.460976 86.810614 
L 255.460976 81.06202 
L 255.767886 81.06202 
L 255.767886 75.313426 
L 257.541513 75.313426 
L 257.541513 69.564832 
L 262.09942 69.564832 
L 262.09942 63.816238 
L 262.337896 63.816238 
L 262.337896 58.067644 
L 264.17515 58.067644 
L 264.17515 52.31905 
L 264.994152 52.31905 
L 264.994152 46.570455 
L 271.757195 46.570455 
L 271.757195 40.821861 
L 272.659589 40.821861 
L 272.659589 35.073267 
L 277.179554 35.073267 
L 277.179554 29.324673 
L 278.800696 29.324673 
L 278.800696 23.576079 
L 282.104388 23.576079 
L 282.104388 17.827485 
L 284.044161 17.827485 
L 284.044161 12.078891 
L 297.634137 12.078891 
L 297.634137 6.330297 
L 297.634137 6.330297 
L 297.634137 6.330297 
L 460.8 6.330297 
" clip-path="url(#pf66e119a9c)" style="fill: none; stroke: #bf00bf; stroke-width: 1.5; stroke-linecap: square"/>
   </g>
   <g id="line2d_27">
    <path d="M -1 52.31905 
L -0.889597 52.31905 
L -0.889597 46.570455 
L -0.492993 46.570455 
L -0.492993 40.821861 
L -0.442264 40.821861 
L -0.442264 35.073267 
L -0.38211 35.073267 
L -0.38211 29.324673 
L 77.980983 29.324673 
L 77.980983 23.576079 
L 96.705572 23.576079 
L 96.705572 17.827485 
L 111.345742 17.827485 
L 111.345742 12.078891 
L 126.111809 12.078891 
L 126.111809 6.330297 
L 126.111809 6.330297 
L 126.111809 6.330297 
L 460.8 6.330297 
" clip-path="url(#pf66e119a9c)" style="fill: none; stroke: #000000; stroke-width: 1.5; stroke-linecap: square"/>
   </g>
   <g id="patch_3">
    <path d="M 0 293.76 
L 0 3.456 
" style="fill: none; stroke: #000000; stroke-width: 0.8; stroke-linejoin: miter; stroke-linecap: square"/>
   </g>
   <g id="patch_4">
    <path d="M 460.8 293.76 
L 460.8 3.456 
" style="fill: none; stroke: #000000; stroke-width: 0.8; stroke-linejoin: miter; stroke-linecap: square"/>
   </g>
   <g id="patch_5">
    <path d="M 0 293.76 
L 460.8 293.76 
" style="fill: none; stroke: #000000; stroke-width: 0.8; stroke-linejoin: miter; stroke-linecap: square"/>
   </g>
   <g id="patch_6">
    <path d="M 0 3.456 
L 460.8 3.456 
" style="fill: none; stroke: #000000; stroke-width: 0.8; stroke-linejoin: miter; stroke-linecap: square"/>
   </g>
   <g id="text_6">
    <!-- {f10-f14}, 5-D -->
    <g transform="translate(305.884 287.95392)scale(0.2 -0.2)">
     <defs>
      <path id="DejaVuSans-7b" d="M 3272 -594 
L 3272 -1044 
L 3078 -1044 
Q 2300 -1044 2036 -812 
Q 1772 -581 1772 109 
L 1772 856 
Q 1772 1328 1603 1509 
Q 1434 1691 991 1691 
L 800 1691 
L 800 2138 
L 991 2138 
Q 1438 2138 1605 2317 
Q 1772 2497 1772 2963 
L 1772 3713 
Q 1772 4403 2036 4633 
Q 2300 4863 3078 4863 
L 3272 4863 
L 3272 4416 
L 3059 4416 
Q 2619 4416 2484 4278 
Q 2350 4141 2350 3700 
L 2350 2925 
Q 2350 2434 2208 2212 
Q 2066 1991 1722 1913 
Q 2069 1828 2209 1606 
Q 2350 1384 2350 897 
L 2350 122 
Q 2350 -319 2484 -456 
Q 2619 -594 3059 -594 
L 3272 -594 
z
" transform="scale(0.015625)"/>
      <path id="DejaVuSans-7d" d="M 800 -594 
L 1019 -594 
Q 1456 -594 1589 -459 
Q 1722 -325 1722 122 
L 1722 897 
Q 1722 1384 1862 1606 
Q 2003 1828 2350 1913 
Q 2003 1991 1862 2212 
Q 1722 2434 1722 2925 
L 1722 3700 
Q 1722 4144 1589 4280 
Q 1456 4416 1019 4416 
L 800 4416 
L 800 4863 
L 997 4863 
Q 1775 4863 2036 4633 
Q 2297 4403 2297 3713 
L 2297 2963 
Q 2297 2497 2465 2317 
Q 2634 2138 3078 2138 
L 3272 2138 
L 3272 1691 
L 3078 1691 
Q 2634 1691 2465 1509 
Q 2297 1328 2297 856 
L 2297 109 
Q 2297 -581 2036 -812 
Q 1775 -1044 997 -1044 
L 800 -1044 
L 800 -594 
z
" transform="scale(0.015625)"/>
      <path id="DejaVuSans-2c" d="M 750 794 
L 1409 794 
L 1409 256 
L 897 -744 
L 494 -744 
L 750 256 
L 750 794 
z
" transform="scale(0.015625)"/>
      <path id="DejaVuSans-35" d="M 691 4666 
L 3169 4666 
L 3169 4134 
L 1269 4134 
L 1269 2991 
Q 1406 3038 1543 3061 
Q 1681 3084 1819 3084 
Q 2600 3084 3056 2656 
Q 3513 2228 3513 1497 
Q 3513 744 3044 326 
Q 2575 -91 1722 -91 
Q 1428 -91 1123 -41 
Q 819 9 494 109 
L 494 744 
Q 775 591 1075 516 
Q 1375 441 1709 441 
Q 2250 441 2565 725 
Q 2881 1009 2881 1497 
Q 2881 1984 2565 2268 
Q 2250 2553 1709 2553 
Q 1456 2553 1204 2497 
Q 953 2441 691 2322 
L 691 4666 
z
" transform="scale(0.015625)"/>
     </defs>
     <use xlink:href="#DejaVuSans-7b"/>
     <use xlink:href="#DejaVuSans-66" x="63.623047"/>
     <use xlink:href="#DejaVuSans-31" x="98.828125"/>
     <use xlink:href="#DejaVuSans-30" x="162.451172"/>
     <use xlink:href="#DejaVuSans-2d" x="226.074219"/>
     <use xlink:href="#DejaVuSans-66" x="262.158203"/>
     <use xlink:href="#DejaVuSans-31" x="297.363281"/>
     <use xlink:href="#DejaVuSans-34" x="360.986328"/>
     <use xlink:href="#DejaVuSans-7d" x="424.609375"/>
     <use xlink:href="#DejaVuSans-2c" x="488.232422"/>
     <use xlink:href="#DejaVuSans-20" x="520.019531"/>
     <use xlink:href="#DejaVuSans-35" x="551.806641"/>
     <use xlink:href="#DejaVuSans-2d" x="615.429688"/>
     <use xlink:href="#DejaVuSans-44" x="651.513672"/>
    </g>
   </g>
   <g id="text_7">
    <!-- v2.6.3 -->
    <g style="fill: #808080" transform="translate(214.71875 288.777272)scale(0.1 -0.1)">
     <defs>
      <path id="DejaVuSans-76" d="M 191 3500 
L 800 3500 
L 1894 563 
L 2988 3500 
L 3597 3500 
L 2284 0 
L 1503 0 
L 191 3500 
z
" transform="scale(0.015625)"/>
      <path id="DejaVuSans-32" d="M 1228 531 
L 3431 531 
L 3431 0 
L 469 0 
L 469 531 
Q 828 903 1448 1529 
Q 2069 2156 2228 2338 
Q 2531 2678 2651 2914 
Q 2772 3150 2772 3378 
Q 2772 3750 2511 3984 
Q 2250 4219 1831 4219 
Q 1534 4219 1204 4116 
Q 875 4013 500 3803 
L 500 4441 
Q 881 4594 1212 4672 
Q 1544 4750 1819 4750 
Q 2544 4750 2975 4387 
Q 3406 4025 3406 3419 
Q 3406 3131 3298 2873 
Q 3191 2616 2906 2266 
Q 2828 2175 2409 1742 
Q 1991 1309 1228 531 
z
" transform="scale(0.015625)"/>
      <path id="DejaVuSans-2e" d="M 684 794 
L 1344 794 
L 1344 0 
L 684 0 
L 684 794 
z
" transform="scale(0.015625)"/>
      <path id="DejaVuSans-36" d="M 2113 2584 
Q 1688 2584 1439 2293 
Q 1191 2003 1191 1497 
Q 1191 994 1439 701 
Q 1688 409 2113 409 
Q 2538 409 2786 701 
Q 3034 994 3034 1497 
Q 3034 2003 2786 2293 
Q 2538 2584 2113 2584 
z
M 3366 4563 
L 3366 3988 
Q 3128 4100 2886 4159 
Q 2644 4219 2406 4219 
Q 1781 4219 1451 3797 
Q 1122 3375 1075 2522 
Q 1259 2794 1537 2939 
Q 1816 3084 2150 3084 
Q 2853 3084 3261 2657 
Q 3669 2231 3669 1497 
Q 3669 778 3244 343 
Q 2819 -91 2113 -91 
Q 1303 -91 875 529 
Q 447 1150 447 2328 
Q 447 3434 972 4092 
Q 1497 4750 2381 4750 
Q 2619 4750 2861 4703 
Q 3103 4656 3366 4563 
z
" transform="scale(0.015625)"/>
      <path id="DejaVuSans-33" d="M 2597 2516 
Q 3050 2419 3304 2112 
Q 3559 1806 3559 1356 
Q 3559 666 3084 287 
Q 2609 -91 1734 -91 
Q 1441 -91 1130 -33 
Q 819 25 488 141 
L 488 750 
Q 750 597 1062 519 
Q 1375 441 1716 441 
Q 2309 441 2620 675 
Q 2931 909 2931 1356 
Q 2931 1769 2642 2001 
Q 2353 2234 1838 2234 
L 1294 2234 
L 1294 2753 
L 1863 2753 
Q 2328 2753 2575 2939 
Q 2822 3125 2822 3475 
Q 2822 3834 2567 4026 
Q 2313 4219 1838 4219 
Q 1578 4219 1281 4162 
Q 984 4106 628 3988 
L 628 4550 
Q 988 4650 1302 4700 
Q 1616 4750 1894 4750 
Q 2613 4750 3031 4423 
Q 3450 4097 3450 3541 
Q 3450 3153 3228 2886 
Q 3006 2619 2597 2516 
z
" transform="scale(0.015625)"/>
     </defs>
     <use xlink:href="#DejaVuSans-76"/>
     <use xlink:href="#DejaVuSans-32" x="59.179688"/>
     <use xlink:href="#DejaVuSans-2e" x="122.802734"/>
     <use xlink:href="#DejaVuSans-36" x="154.589844"/>
     <use xlink:href="#DejaVuSans-2e" x="218.212891"/>
     <use xlink:href="#DejaVuSans-33" x="250"/>
    </g>
   </g>
  </g>
 </g>
 <defs>
  <clipPath id="pf66e119a9c">
   <rect x="0" y="3.456" width="460.8" height="290.304"/>
  </clipPath>
 </defs>
</svg>
