<?xml version="1.0" encoding="utf-8" standalone="no"?>
<!DOCTYPE svg PUBLIC "-//W3C//DTD SVG 1.1//EN"
  "http://www.w3.org/Graphics/SVG/1.1/DTD/svg11.dtd">
<svg xmlns:xlink="http://www.w3.org/1999/xlink" width="460.8pt" height="345.6pt" viewBox="0 0 460.8 345.6" xmlns="http://www.w3.org/2000/svg" version="1.1">
 <metadata>
  <rdf:RDF xmlns:dc="http://purl.org/dc/elements/1.1/" xmlns:cc="http://creativecommons.org/ns#" xmlns:rdf="http://www.w3.org/1999/02/22-rdf-syntax-ns#">
   <cc:Work>
    <dc:type rdf:resource="http://purl.org/dc/dcmitype/StillImage"/>
    <dc:date>2023-04-07T14:47:11.552865</dc:date>
    <dc:format>image/svg+xml</dc:format>
    <dc:creator>
     <cc:Agent>
      <dc:title>Matplotlib v3.5.2, https://matplotlib.org/</dc:title>
     </cc:Agent>
    </dc:creator>
   </cc:Work>
  </rdf:RDF>
 </metadata>
 <defs>
  <style type="text/css">*{stroke-linejoin: round; stroke-linecap: butt}</style>
 </defs>
 <g id="figure_1">
  <g id="patch_1">
   <path d="M 0 345.6 
L 460.8 345.6 
L 460.8 0 
L 0 0 
z
" style="fill: #ffffff"/>
  </g>
  <g id="axes_1">
   <g id="patch_2">
    <path d="M 62.208 293.76 
L 460.8 293.76 
L 460.8 3.456 
L 62.208 3.456 
z
" style="fill: #ffffff"/>
   </g>
   <g id="line2d_1"/>
   <g id="line2d_2"/>
   <g id="line2d_3">
    <path d="M 211.712202 293.76 
L 211.712202 289.927604 
L 245.093806 289.927604 
L 245.093806 286.095208 
L 259.846731 286.095208 
L 259.846731 282.262812 
L 284.163492 282.262812 
L 284.163492 278.430416 
L 289.101014 278.430416 
L 289.101014 274.59802 
L 289.428355 274.59802 
L 289.428355 270.765624 
L 291.473809 270.765624 
L 291.473809 266.933228 
L 298.810663 266.933228 
L 298.810663 263.100832 
L 308.534365 263.100832 
L 308.534365 259.268436 
L 315.327591 259.268436 
L 315.327591 255.43604 
L 316.166419 255.43604 
L 316.166419 251.603644 
L 320.312146 251.603644 
L 320.312146 247.771248 
L 331.785176 247.771248 
L 331.785176 243.938851 
L 359.252967 243.938851 
L 359.252967 240.106455 
L 360.923021 240.106455 
L 360.923021 236.274059 
L 361.832617 236.274059 
L 361.832617 232.441663 
L 361.832617 232.441663 
L 361.832617 232.441663 
L 460.8 232.441663 
" clip-path="url(#pb884070bd9)" style="fill: none; stroke: #f5deb3; stroke-width: 1.5; stroke-linecap: square"/>
   </g>
   <g id="line2d_4">
    <path d="M 239.937764 293.76 
L 239.937764 289.927604 
L 248.142698 289.927604 
L 248.142698 286.095208 
L 252.530109 286.095208 
L 252.530109 282.262812 
L 269.182282 282.262812 
L 269.182282 278.430416 
L 272.077567 278.430416 
L 272.077567 274.59802 
L 309.22083 274.59802 
L 309.22083 270.765624 
L 311.610681 270.765624 
L 311.610681 266.933228 
L 314.837692 266.933228 
L 314.837692 263.100832 
L 319.663687 263.100832 
L 319.663687 259.268436 
L 321.367032 259.268436 
L 321.367032 255.43604 
L 326.259141 255.43604 
L 326.259141 251.603644 
L 328.557393 251.603644 
L 328.557393 247.771248 
L 329.80094 247.771248 
L 329.80094 243.938851 
L 333.0273 243.938851 
L 333.0273 240.106455 
L 336.618682 240.106455 
L 336.618682 236.274059 
L 336.762021 236.274059 
L 336.762021 232.441663 
L 337.885223 232.441663 
L 337.885223 228.609267 
L 340.279159 228.609267 
L 340.279159 224.776871 
L 342.608842 224.776871 
L 342.608842 220.944475 
L 342.753654 220.944475 
L 342.753654 217.112079 
L 344.91428 217.112079 
L 344.91428 213.279683 
L 345.169582 213.279683 
L 345.169582 209.447287 
L 350.084301 209.447287 
L 350.084301 205.614891 
L 353.179107 205.614891 
L 353.179107 201.782495 
L 353.592067 201.782495 
L 353.592067 197.950099 
L 356.068121 197.950099 
L 356.068121 194.117703 
L 356.068121 194.117703 
L 356.068121 194.117703 
L 460.8 194.117703 
" clip-path="url(#pb884070bd9)" style="fill: none; stroke: #f5deb3; stroke-width: 1.5; stroke-linecap: square"/>
   </g>
   <g id="line2d_5"/>
   <g id="line2d_6"/>
   <g id="line2d_7">
    <path d="M 216.272683 293.76 
L 216.272683 289.927604 
L 277.186829 289.927604 
L 277.186829 286.095208 
L 278.031025 286.095208 
L 278.031025 282.262812 
L 311.175357 282.262812 
L 311.175357 278.430416 
L 313.153231 278.430416 
L 313.153231 274.59802 
L 338.401179 274.59802 
L 338.401179 270.765624 
L 343.673855 270.765624 
L 343.673855 266.933228 
L 347.796768 266.933228 
L 347.796768 263.100832 
L 350.723188 263.100832 
L 350.723188 259.268436 
L 369.889862 259.268436 
L 369.889862 255.43604 
L 386.500094 255.43604 
L 386.500094 251.603644 
L 391.52354 251.603644 
L 391.52354 247.771248 
L 393.953296 247.771248 
L 393.953296 243.938851 
L 400.305302 243.938851 
L 400.305302 240.106455 
L 431.70228 240.106455 
L 431.70228 236.274059 
L 440.199386 236.274059 
L 440.199386 232.441663 
L 461.8 232.441663 
" clip-path="url(#pb884070bd9)" style="fill: none; stroke: #f5deb3; stroke-width: 1.5; stroke-linecap: square"/>
   </g>
   <g id="line2d_8"/>
   <g id="line2d_9">
    <path d="M 216.126592 293.76 
L 216.126592 289.927604 
L 217.178321 289.927604 
L 217.178321 286.095208 
L 257.979086 286.095208 
L 257.979086 282.262812 
L 284.608743 282.262812 
L 284.608743 278.430416 
L 304.838262 278.430416 
L 304.838262 274.59802 
L 307.438876 274.59802 
L 307.438876 270.765624 
L 339.594312 270.765624 
L 339.594312 266.933228 
L 354.285182 266.933228 
L 354.285182 263.100832 
L 368.459053 263.100832 
L 368.459053 259.268436 
L 371.577624 259.268436 
L 371.577624 255.43604 
L 372.060435 255.43604 
L 372.060435 251.603644 
L 372.252952 251.603644 
L 372.252952 247.771248 
L 384.564275 247.771248 
L 384.564275 243.938851 
L 384.806732 243.938851 
L 384.806732 240.106455 
L 385.589384 240.106455 
L 385.589384 236.274059 
L 386.184175 236.274059 
L 386.184175 232.441663 
L 387.830401 232.441663 
L 387.830401 228.609267 
L 397.726255 228.609267 
L 397.726255 224.776871 
L 398.173415 224.776871 
L 398.173415 220.944475 
L 403.354812 220.944475 
L 403.354812 217.112079 
L 404.279024 217.112079 
L 404.279024 213.279683 
L 404.61865 213.279683 
L 404.61865 209.447287 
L 405.237065 209.447287 
L 405.237065 205.614891 
L 412.630199 205.614891 
L 412.630199 201.782495 
L 414.18412 201.782495 
L 414.18412 197.950099 
L 416.021489 197.950099 
L 416.021489 194.117703 
L 419.01427 194.117703 
L 419.01427 190.285307 
L 419.093568 190.285307 
L 419.093568 186.452911 
L 420.819236 186.452911 
L 420.819236 182.620515 
L 421.355052 182.620515 
L 421.355052 178.788119 
L 421.455017 178.788119 
L 421.455017 174.955723 
L 435.62233 174.955723 
L 435.62233 171.123327 
L 440.247694 171.123327 
L 440.247694 167.290931 
L 447.209155 167.290931 
L 447.209155 163.458535 
L 447.538837 163.458535 
L 447.538837 159.626139 
L 449.455728 159.626139 
L 449.455728 155.793743 
L 449.601421 155.793743 
L 449.601421 151.961347 
L 450.865451 151.961347 
L 450.865451 148.12895 
L 461.8 148.12895 
" clip-path="url(#pb884070bd9)" style="fill: none; stroke: #f5deb3; stroke-width: 1.5; stroke-linecap: square"/>
   </g>
   <g id="line2d_10">
    <path d="M 380.207404 293.76 
L 380.207404 289.927604 
L 416.400999 289.927604 
L 416.400999 286.095208 
L 416.400999 286.095208 
L 416.400999 286.095208 
L 460.8 286.095208 
" clip-path="url(#pb884070bd9)" style="fill: none; stroke: #f5deb3; stroke-width: 1.5; stroke-linecap: square"/>
   </g>
   <g id="line2d_11">
    <path d="M 239.468363 293.76 
L 239.468363 289.927604 
L 258.330721 289.927604 
L 258.330721 286.095208 
L 276.670549 286.095208 
L 276.670549 282.262812 
L 277.803751 282.262812 
L 277.803751 278.430416 
L 285.737713 278.430416 
L 285.737713 274.59802 
L 298.300523 274.59802 
L 298.300523 270.765624 
L 307.20846 270.765624 
L 307.20846 266.933228 
L 318.788852 266.933228 
L 318.788852 263.100832 
L 318.998953 263.100832 
L 318.998953 259.268436 
L 327.059507 259.268436 
L 327.059507 255.43604 
L 327.517726 255.43604 
L 327.517726 251.603644 
L 328.018635 251.603644 
L 328.018635 247.771248 
L 333.68851 247.771248 
L 333.68851 243.938851 
L 342.856786 243.938851 
L 342.856786 240.106455 
L 345.719949 240.106455 
L 345.719949 236.274059 
L 346.923969 236.274059 
L 346.923969 232.441663 
L 348.902025 232.441663 
L 348.902025 228.609267 
L 356.314603 228.609267 
L 356.314603 224.776871 
L 357.226773 224.776871 
L 357.226773 220.944475 
L 358.546528 220.944475 
L 358.546528 217.112079 
L 364.744885 217.112079 
L 364.744885 213.279683 
L 368.237739 213.279683 
L 368.237739 209.447287 
L 369.908988 209.447287 
L 369.908988 205.614891 
L 373.09223 205.614891 
L 373.09223 201.782495 
L 377.21024 201.782495 
L 377.21024 197.950099 
L 392.247018 197.950099 
L 392.247018 194.117703 
L 395.734069 194.117703 
L 395.734069 190.285307 
L 400.531458 190.285307 
L 400.531458 186.452911 
L 407.463589 186.452911 
L 407.463589 182.620515 
L 417.779247 182.620515 
L 417.779247 178.788119 
L 417.779247 178.788119 
L 417.779247 178.788119 
L 460.8 178.788119 
" clip-path="url(#pb884070bd9)" style="fill: none; stroke: #f5deb3; stroke-width: 1.5; stroke-linecap: square"/>
   </g>
   <g id="line2d_12">
    <path d="M 251.217222 293.76 
L 251.217222 289.927604 
L 324.044608 289.927604 
L 324.044608 286.095208 
L 324.044608 286.095208 
L 324.044608 286.095208 
L 460.8 286.095208 
" clip-path="url(#pb884070bd9)" style="fill: none; stroke: #f5deb3; stroke-width: 1.5; stroke-linecap: square"/>
   </g>
   <g id="line2d_13"/>
   <g id="line2d_14">
    <path d="M 198.330493 293.76 
L 198.330493 289.927604 
L 225.273583 289.927604 
L 225.273583 286.095208 
L 250.43821 286.095208 
L 250.43821 282.262812 
L 263.416719 282.262812 
L 263.416719 278.430416 
L 271.056421 278.430416 
L 271.056421 274.59802 
L 273.856812 274.59802 
L 273.856812 270.765624 
L 277.814821 270.765624 
L 277.814821 266.933228 
L 288.527325 266.933228 
L 288.527325 263.100832 
L 296.220436 263.100832 
L 296.220436 259.268436 
L 306.07422 259.268436 
L 306.07422 255.43604 
L 315.31917 255.43604 
L 315.31917 251.603644 
L 328.662501 251.603644 
L 328.662501 247.771248 
L 335.035821 247.771248 
L 335.035821 243.938851 
L 348.457382 243.938851 
L 348.457382 240.106455 
L 350.015015 240.106455 
L 350.015015 236.274059 
L 350.806142 236.274059 
L 350.806142 232.441663 
L 353.349035 232.441663 
L 353.349035 228.609267 
L 354.285182 228.609267 
L 354.285182 224.776871 
L 355.114222 224.776871 
L 355.114222 220.944475 
L 358.075332 220.944475 
L 358.075332 217.112079 
L 361.607922 217.112079 
L 361.607922 213.279683 
L 362.097344 213.279683 
L 362.097344 209.447287 
L 362.097344 209.447287 
L 362.097344 209.447287 
L 460.8 209.447287 
" clip-path="url(#pb884070bd9)" style="fill: none; stroke: #f5deb3; stroke-width: 1.5; stroke-linecap: square"/>
   </g>
   <g id="line2d_15"/>
   <g id="line2d_16">
    <path d="M 292.039937 293.76 
L 292.039937 289.927604 
L 322.123313 289.927604 
L 322.123313 286.095208 
L 329.968065 286.095208 
L 329.968065 282.262812 
L 331.81949 282.262812 
L 331.81949 278.430416 
L 339.862167 278.430416 
L 339.862167 274.59802 
L 361.318258 274.59802 
L 361.318258 270.765624 
L 383.204215 270.765624 
L 383.204215 266.933228 
L 383.292381 266.933228 
L 383.292381 263.100832 
L 390.465188 263.100832 
L 390.465188 259.268436 
L 402.626985 259.268436 
L 402.626985 255.43604 
L 411.621738 255.43604 
L 411.621738 251.603644 
L 422.23955 251.603644 
L 422.23955 247.771248 
L 424.399474 247.771248 
L 424.399474 243.938851 
L 425.114978 243.938851 
L 425.114978 240.106455 
L 425.656934 240.106455 
L 425.656934 236.274059 
L 426.5775 236.274059 
L 426.5775 232.441663 
L 434.015881 232.441663 
L 434.015881 228.609267 
L 441.913316 228.609267 
L 441.913316 224.776871 
L 443.078129 224.776871 
L 443.078129 220.944475 
L 458.690465 220.944475 
L 458.690465 217.112079 
L 460.99776 217.112079 
L 460.99776 213.279683 
L 461.313421 213.279683 
L 461.313421 209.447287 
L 461.8 209.447287 
" clip-path="url(#pb884070bd9)" style="fill: none; stroke: #f5deb3; stroke-width: 1.5; stroke-linecap: square"/>
   </g>
   <g id="line2d_17"/>
   <g id="line2d_18">
    <path d="M 190.810164 293.76 
L 190.810164 289.927604 
L 234.453061 289.927604 
L 234.453061 286.095208 
L 241.703867 286.095208 
L 241.703867 282.262812 
L 246.18485 282.262812 
L 246.18485 278.430416 
L 249.015183 278.430416 
L 249.015183 274.59802 
L 253.504562 274.59802 
L 253.504562 270.765624 
L 253.948929 270.765624 
L 253.948929 266.933228 
L 262.107618 266.933228 
L 262.107618 263.100832 
L 265.756227 263.100832 
L 265.756227 259.268436 
L 274.438801 259.268436 
L 274.438801 255.43604 
L 279.02716 255.43604 
L 279.02716 251.603644 
L 280.511467 251.603644 
L 280.511467 247.771248 
L 289.058688 247.771248 
L 289.058688 243.938851 
L 290.094635 243.938851 
L 290.094635 240.106455 
L 290.942143 240.106455 
L 290.942143 236.274059 
L 293.316135 236.274059 
L 293.316135 232.441663 
L 294.173585 232.441663 
L 294.173585 228.609267 
L 308.90461 228.609267 
L 308.90461 224.776871 
L 320.68465 224.776871 
L 320.68465 220.944475 
L 321.474158 220.944475 
L 321.474158 217.112079 
L 329.689951 217.112079 
L 329.689951 213.279683 
L 330.640431 213.279683 
L 330.640431 209.447287 
L 330.640431 209.447287 
L 330.640431 209.447287 
L 460.8 209.447287 
" clip-path="url(#pb884070bd9)" style="fill: none; stroke: #f5deb3; stroke-width: 1.5; stroke-linecap: square"/>
   </g>
   <g id="line2d_19">
    <path d="M 341.10642 293.76 
L 341.10642 289.927604 
L 345.186738 289.927604 
L 345.186738 286.095208 
L 347.956012 286.095208 
L 347.956012 282.262812 
L 352.101883 282.262812 
L 352.101883 278.430416 
L 352.172786 278.430416 
L 352.172786 274.59802 
L 352.408926 274.59802 
L 352.408926 270.765624 
L 353.728496 270.765624 
L 353.728496 266.933228 
L 354.299649 266.933228 
L 354.299649 263.100832 
L 354.884389 263.100832 
L 354.884389 259.268436 
L 354.957845 259.268436 
L 354.957845 255.43604 
L 361.36266 255.43604 
L 361.36266 251.603644 
L 369.358047 251.603644 
L 369.358047 247.771248 
L 376.015379 247.771248 
L 376.015379 243.938851 
L 379.557042 243.938851 
L 379.557042 240.106455 
L 399.42609 240.106455 
L 399.42609 236.274059 
L 461.8 236.274059 
" clip-path="url(#pb884070bd9)" style="fill: none; stroke: #f5deb3; stroke-width: 1.5; stroke-linecap: square"/>
   </g>
   <g id="line2d_20">
    <path d="M 223.394923 293.76 
L 223.394923 289.927604 
L 228.824189 289.927604 
L 228.824189 286.095208 
L 265.265805 286.095208 
L 265.265805 282.262812 
L 271.440749 282.262812 
L 271.440749 278.430416 
L 277.139408 278.430416 
L 277.139408 274.59802 
L 279.541363 274.59802 
L 279.541363 270.765624 
L 281.376264 270.765624 
L 281.376264 266.933228 
L 281.61948 266.933228 
L 281.61948 263.100832 
L 293.404136 263.100832 
L 293.404136 259.268436 
L 305.001357 259.268436 
L 305.001357 255.43604 
L 307.663241 255.43604 
L 307.663241 251.603644 
L 309.718665 251.603644 
L 309.718665 247.771248 
L 309.863313 247.771248 
L 309.863313 243.938851 
L 310.38419 243.938851 
L 310.38419 240.106455 
L 311.671166 240.106455 
L 311.671166 236.274059 
L 318.033622 236.274059 
L 318.033622 232.441663 
L 318.217813 232.441663 
L 318.217813 228.609267 
L 319.17904 228.609267 
L 319.17904 224.776871 
L 320.309135 224.776871 
L 320.309135 220.944475 
L 324.495985 220.944475 
L 324.495985 217.112079 
L 327.238793 217.112079 
L 327.238793 213.279683 
L 332.143479 213.279683 
L 332.143479 209.447287 
L 347.158001 209.447287 
L 347.158001 205.614891 
L 359.654917 205.614891 
L 359.654917 201.782495 
L 374.369884 201.782495 
L 374.369884 197.950099 
L 374.816794 197.950099 
L 374.816794 194.117703 
L 380.060667 194.117703 
L 380.060667 190.285307 
L 382.755239 190.285307 
L 382.755239 186.452911 
L 382.755239 186.452911 
L 382.755239 186.452911 
L 460.8 186.452911 
" clip-path="url(#pb884070bd9)" style="fill: none; stroke: #f5deb3; stroke-width: 1.5; stroke-linecap: square"/>
   </g>
   <g id="line2d_21">
    <path d="M 358.69094 293.76 
L 358.69094 289.927604 
L 358.69094 289.927604 
L 358.69094 289.927604 
L 460.8 289.927604 
" clip-path="url(#pb884070bd9)" style="fill: none; stroke: #f5deb3; stroke-width: 1.5; stroke-linecap: square"/>
   </g>
   <g id="line2d_22">
    <path d="M 307.933628 293.76 
L 307.933628 289.927604 
L 330.6154 289.927604 
L 330.6154 286.095208 
L 339.104465 286.095208 
L 339.104465 282.262812 
L 341.172302 282.262812 
L 341.172302 278.430416 
L 343.689165 278.430416 
L 343.689165 274.59802 
L 348.881945 274.59802 
L 348.881945 270.765624 
L 357.719478 270.765624 
L 357.719478 266.933228 
L 357.923026 266.933228 
L 357.923026 263.100832 
L 360.364529 263.100832 
L 360.364529 259.268436 
L 360.364529 259.268436 
L 360.364529 259.268436 
L 460.8 259.268436 
" clip-path="url(#pb884070bd9)" style="fill: none; stroke: #f5deb3; stroke-width: 1.5; stroke-linecap: square"/>
   </g>
   <g id="line2d_23">
    <path d="M 288.989595 293.76 
L 288.989595 289.927604 
L 288.989595 289.927604 
L 288.989595 289.927604 
L 460.8 289.927604 
" clip-path="url(#pb884070bd9)" style="fill: none; stroke: #f5deb3; stroke-width: 1.5; stroke-linecap: square"/>
   </g>
   <g id="line2d_24">
    <path d="M 342.719104 293.76 
L 342.719104 289.927604 
L 348.56252 289.927604 
L 348.56252 286.095208 
L 351.053983 286.095208 
L 351.053983 282.262812 
L 385.594034 282.262812 
L 385.594034 278.430416 
L 385.625829 278.430416 
L 385.625829 274.59802 
L 386.712962 274.59802 
L 386.712962 270.765624 
L 386.834351 270.765624 
L 386.834351 266.933228 
L 387.012352 266.933228 
L 387.012352 263.100832 
L 390.697834 263.100832 
L 390.697834 259.268436 
L 393.550822 259.268436 
L 393.550822 255.43604 
L 395.287868 255.43604 
L 395.287868 251.603644 
L 398.310621 251.603644 
L 398.310621 247.771248 
L 416.448906 247.771248 
L 416.448906 243.938851 
L 425.642774 243.938851 
L 425.642774 240.106455 
L 427.868822 240.106455 
L 427.868822 236.274059 
L 461.8 236.274059 
" clip-path="url(#pb884070bd9)" style="fill: none; stroke: #f5deb3; stroke-width: 1.5; stroke-linecap: square"/>
   </g>
   <g id="line2d_25">
    <path d="M 346.0028 293.76 
L 346.0028 289.927604 
L 346.385832 289.927604 
L 346.385832 286.095208 
L 347.361444 286.095208 
L 347.361444 282.262812 
L 347.361444 282.262812 
L 347.361444 282.262812 
L 460.8 282.262812 
" clip-path="url(#pb884070bd9)" style="fill: none; stroke: #f5deb3; stroke-width: 1.5; stroke-linecap: square"/>
   </g>
   <g id="line2d_26">
    <path d="M 272.564712 293.76 
L 272.564712 290.530453 
L 337.101977 290.530453 
L 337.101977 287.300906 
L 360.293975 287.300906 
L 360.293975 284.071358 
L 362.262923 284.071358 
L 362.262923 280.841811 
L 386.442924 280.841811 
L 386.442924 277.612264 
L 391.518846 277.612264 
L 391.518846 274.382717 
L 391.518846 274.382717 
L 391.518846 274.382717 
L 460.8 274.382717 
" clip-path="url(#pb884070bd9)" style="fill: none; stroke: #f5deb3; stroke-width: 1.5; stroke-linecap: square"/>
   </g>
   <g id="line2d_27">
    <path d="M 210.759807 293.76 
L 210.759807 289.927604 
L 248.562884 289.927604 
L 248.562884 286.095208 
L 251.391708 286.095208 
L 251.391708 282.262812 
L 255.020743 282.262812 
L 255.020743 278.430416 
L 268.367748 278.430416 
L 268.367748 274.59802 
L 274.20972 274.59802 
L 274.20972 270.765624 
L 286.501489 270.765624 
L 286.501489 266.933228 
L 287.249464 266.933228 
L 287.249464 263.100832 
L 296.410098 263.100832 
L 296.410098 259.268436 
L 311.079601 259.268436 
L 311.079601 255.43604 
L 321.584988 255.43604 
L 321.584988 251.603644 
L 326.618111 251.603644 
L 326.618111 247.771248 
L 327.610819 247.771248 
L 327.610819 243.938851 
L 339.556249 243.938851 
L 339.556249 240.106455 
L 343.069579 240.106455 
L 343.069579 236.274059 
L 349.066968 236.274059 
L 349.066968 232.441663 
L 352.339438 232.441663 
L 352.339438 228.609267 
L 352.604862 228.609267 
L 352.604862 224.776871 
L 356.563209 224.776871 
L 356.563209 220.944475 
L 365.454285 220.944475 
L 365.454285 217.112079 
L 377.23522 217.112079 
L 377.23522 213.279683 
L 383.121177 213.279683 
L 383.121177 209.447287 
L 385.099449 209.447287 
L 385.099449 205.614891 
L 393.974126 205.614891 
L 393.974126 201.782495 
L 393.974126 201.782495 
L 393.974126 201.782495 
L 460.8 201.782495 
" clip-path="url(#pb884070bd9)" style="fill: none; stroke: #f5deb3; stroke-width: 1.5; stroke-linecap: square"/>
   </g>
   <g id="line2d_28">
    <path d="M 339.417645 293.76 
L 339.417645 289.927604 
L 339.582964 289.927604 
L 339.582964 286.095208 
L 341.717461 286.095208 
L 341.717461 282.262812 
L 376.561049 282.262812 
L 376.561049 278.430416 
L 377.004613 278.430416 
L 377.004613 274.59802 
L 404.221629 274.59802 
L 404.221629 270.765624 
L 406.517359 270.765624 
L 406.517359 266.933228 
L 407.340205 266.933228 
L 407.340205 263.100832 
L 422.359606 263.100832 
L 422.359606 259.268436 
L 427.714514 259.268436 
L 427.714514 255.43604 
L 428.861443 255.43604 
L 428.861443 251.603644 
L 430.052048 251.603644 
L 430.052048 247.771248 
L 433.934012 247.771248 
L 433.934012 243.938851 
L 438.577285 243.938851 
L 438.577285 240.106455 
L 440.043863 240.106455 
L 440.043863 236.274059 
L 440.312634 236.274059 
L 440.312634 232.441663 
L 446.710803 232.441663 
L 446.710803 228.609267 
L 453.192199 228.609267 
L 453.192199 224.776871 
L 461.8 224.776871 
" clip-path="url(#pb884070bd9)" style="fill: none; stroke: #f5deb3; stroke-width: 1.5; stroke-linecap: square"/>
   </g>
   <g id="line2d_29">
    <path d="M 308.976283 293.76 
L 308.976283 289.927604 
L 329.740529 289.927604 
L 329.740529 286.095208 
L 329.740529 286.095208 
L 329.740529 286.095208 
L 460.8 286.095208 
" clip-path="url(#pb884070bd9)" style="fill: none; stroke: #f5deb3; stroke-width: 1.5; stroke-linecap: square"/>
   </g>
   <g id="line2d_30">
    <path d="M 261.646007 293.76 
L 261.646007 289.927604 
L 283.813553 289.927604 
L 283.813553 286.095208 
L 306.050924 286.095208 
L 306.050924 282.262812 
L 312.174245 282.262812 
L 312.174245 278.430416 
L 332.079274 278.430416 
L 332.079274 274.59802 
L 338.657333 274.59802 
L 338.657333 270.765624 
L 348.722623 270.765624 
L 348.722623 266.933228 
L 360.634723 266.933228 
L 360.634723 263.100832 
L 361.454871 263.100832 
L 361.454871 259.268436 
L 362.243585 259.268436 
L 362.243585 255.43604 
L 362.243585 255.43604 
L 362.243585 255.43604 
L 460.8 255.43604 
" clip-path="url(#pb884070bd9)" style="fill: none; stroke: #f5deb3; stroke-width: 1.5; stroke-linecap: square"/>
   </g>
   <g id="matplotlib.axis_1">
    <g id="xtick_1">
     <g id="line2d_31">
      <path d="M 62.208 293.76 
L 62.208 3.456 
" clip-path="url(#pb884070bd9)" style="fill: none; stroke: #b0b0b0; stroke-width: 0.8; stroke-linecap: square"/>
     </g>
     <g id="line2d_32">
      <defs>
       <path id="m622e641e73" d="M 0 0 
L 0 3.5 
" style="stroke: #000000; stroke-width: 0.8"/>
      </defs>
      <g>
       <use xlink:href="#m622e641e73" x="62.208" y="293.76" style="stroke: #000000; stroke-width: 0.8"/>
      </g>
     </g>
     <g id="text_1">
      <!-- 0 -->
      <g transform="translate(55.8455 315.956875)scale(0.2 -0.2)">
       <defs>
        <path id="DejaVuSans-30" d="M 2034 4250 
Q 1547 4250 1301 3770 
Q 1056 3291 1056 2328 
Q 1056 1369 1301 889 
Q 1547 409 2034 409 
Q 2525 409 2770 889 
Q 3016 1369 3016 2328 
Q 3016 3291 2770 3770 
Q 2525 4250 2034 4250 
z
M 2034 4750 
Q 2819 4750 3233 4129 
Q 3647 3509 3647 2328 
Q 3647 1150 3233 529 
Q 2819 -91 2034 -91 
Q 1250 -91 836 529 
Q 422 1150 422 2328 
Q 422 3509 836 4129 
Q 1250 4750 2034 4750 
z
" transform="scale(0.015625)"/>
       </defs>
       <use xlink:href="#DejaVuSans-30"/>
      </g>
     </g>
    </g>
    <g id="xtick_2">
     <g id="line2d_33">
      <path d="M 212.572364 293.76 
L 212.572364 3.456 
" clip-path="url(#pb884070bd9)" style="fill: none; stroke: #b0b0b0; stroke-width: 0.8; stroke-linecap: square"/>
     </g>
     <g id="line2d_34">
      <g>
       <use xlink:href="#m622e641e73" x="212.572364" y="293.76" style="stroke: #000000; stroke-width: 0.8"/>
      </g>
     </g>
     <g id="text_2">
      <!-- 2 -->
      <g transform="translate(206.209864 315.956875)scale(0.2 -0.2)">
       <defs>
        <path id="DejaVuSans-32" d="M 1228 531 
L 3431 531 
L 3431 0 
L 469 0 
L 469 531 
Q 828 903 1448 1529 
Q 2069 2156 2228 2338 
Q 2531 2678 2651 2914 
Q 2772 3150 2772 3378 
Q 2772 3750 2511 3984 
Q 2250 4219 1831 4219 
Q 1534 4219 1204 4116 
Q 875 4013 500 3803 
L 500 4441 
Q 881 4594 1212 4672 
Q 1544 4750 1819 4750 
Q 2544 4750 2975 4387 
Q 3406 4025 3406 3419 
Q 3406 3131 3298 2873 
Q 3191 2616 2906 2266 
Q 2828 2175 2409 1742 
Q 1991 1309 1228 531 
z
" transform="scale(0.015625)"/>
       </defs>
       <use xlink:href="#DejaVuSans-32"/>
      </g>
     </g>
    </g>
    <g id="xtick_3">
     <g id="line2d_35">
      <path d="M 362.936729 293.76 
L 362.936729 3.456 
" clip-path="url(#pb884070bd9)" style="fill: none; stroke: #b0b0b0; stroke-width: 0.8; stroke-linecap: square"/>
     </g>
     <g id="line2d_36">
      <g>
       <use xlink:href="#m622e641e73" x="362.936729" y="293.76" style="stroke: #000000; stroke-width: 0.8"/>
      </g>
     </g>
     <g id="text_3">
      <!-- 4 -->
      <g transform="translate(356.574229 315.956875)scale(0.2 -0.2)">
       <defs>
        <path id="DejaVuSans-34" d="M 2419 4116 
L 825 1625 
L 2419 1625 
L 2419 4116 
z
M 2253 4666 
L 3047 4666 
L 3047 1625 
L 3713 1625 
L 3713 1100 
L 3047 1100 
L 3047 0 
L 2419 0 
L 2419 1100 
L 313 1100 
L 313 1709 
L 2253 4666 
z
" transform="scale(0.015625)"/>
       </defs>
       <use xlink:href="#DejaVuSans-34"/>
      </g>
     </g>
    </g>
    <g id="text_4">
     <!-- log10 of FEvals / DIM -->
     <g transform="translate(156.430563 339.313125)scale(0.2 -0.2)">
      <defs>
       <path id="DejaVuSans-6c" d="M 603 4863 
L 1178 4863 
L 1178 0 
L 603 0 
L 603 4863 
z
" transform="scale(0.015625)"/>
       <path id="DejaVuSans-6f" d="M 1959 3097 
Q 1497 3097 1228 2736 
Q 959 2375 959 1747 
Q 959 1119 1226 758 
Q 1494 397 1959 397 
Q 2419 397 2687 759 
Q 2956 1122 2956 1747 
Q 2956 2369 2687 2733 
Q 2419 3097 1959 3097 
z
M 1959 3584 
Q 2709 3584 3137 3096 
Q 3566 2609 3566 1747 
Q 3566 888 3137 398 
Q 2709 -91 1959 -91 
Q 1206 -91 779 398 
Q 353 888 353 1747 
Q 353 2609 779 3096 
Q 1206 3584 1959 3584 
z
" transform="scale(0.015625)"/>
       <path id="DejaVuSans-67" d="M 2906 1791 
Q 2906 2416 2648 2759 
Q 2391 3103 1925 3103 
Q 1463 3103 1205 2759 
Q 947 2416 947 1791 
Q 947 1169 1205 825 
Q 1463 481 1925 481 
Q 2391 481 2648 825 
Q 2906 1169 2906 1791 
z
M 3481 434 
Q 3481 -459 3084 -895 
Q 2688 -1331 1869 -1331 
Q 1566 -1331 1297 -1286 
Q 1028 -1241 775 -1147 
L 775 -588 
Q 1028 -725 1275 -790 
Q 1522 -856 1778 -856 
Q 2344 -856 2625 -561 
Q 2906 -266 2906 331 
L 2906 616 
Q 2728 306 2450 153 
Q 2172 0 1784 0 
Q 1141 0 747 490 
Q 353 981 353 1791 
Q 353 2603 747 3093 
Q 1141 3584 1784 3584 
Q 2172 3584 2450 3431 
Q 2728 3278 2906 2969 
L 2906 3500 
L 3481 3500 
L 3481 434 
z
" transform="scale(0.015625)"/>
       <path id="DejaVuSans-31" d="M 794 531 
L 1825 531 
L 1825 4091 
L 703 3866 
L 703 4441 
L 1819 4666 
L 2450 4666 
L 2450 531 
L 3481 531 
L 3481 0 
L 794 0 
L 794 531 
z
" transform="scale(0.015625)"/>
       <path id="DejaVuSans-20" transform="scale(0.015625)"/>
       <path id="DejaVuSans-66" d="M 2375 4863 
L 2375 4384 
L 1825 4384 
Q 1516 4384 1395 4259 
Q 1275 4134 1275 3809 
L 1275 3500 
L 2222 3500 
L 2222 3053 
L 1275 3053 
L 1275 0 
L 697 0 
L 697 3053 
L 147 3053 
L 147 3500 
L 697 3500 
L 697 3744 
Q 697 4328 969 4595 
Q 1241 4863 1831 4863 
L 2375 4863 
z
" transform="scale(0.015625)"/>
       <path id="DejaVuSans-46" d="M 628 4666 
L 3309 4666 
L 3309 4134 
L 1259 4134 
L 1259 2759 
L 3109 2759 
L 3109 2228 
L 1259 2228 
L 1259 0 
L 628 0 
L 628 4666 
z
" transform="scale(0.015625)"/>
       <path id="DejaVuSans-45" d="M 628 4666 
L 3578 4666 
L 3578 4134 
L 1259 4134 
L 1259 2753 
L 3481 2753 
L 3481 2222 
L 1259 2222 
L 1259 531 
L 3634 531 
L 3634 0 
L 628 0 
L 628 4666 
z
" transform="scale(0.015625)"/>
       <path id="DejaVuSans-76" d="M 191 3500 
L 800 3500 
L 1894 563 
L 2988 3500 
L 3597 3500 
L 2284 0 
L 1503 0 
L 191 3500 
z
" transform="scale(0.015625)"/>
       <path id="DejaVuSans-61" d="M 2194 1759 
Q 1497 1759 1228 1600 
Q 959 1441 959 1056 
Q 959 750 1161 570 
Q 1363 391 1709 391 
Q 2188 391 2477 730 
Q 2766 1069 2766 1631 
L 2766 1759 
L 2194 1759 
z
M 3341 1997 
L 3341 0 
L 2766 0 
L 2766 531 
Q 2569 213 2275 61 
Q 1981 -91 1556 -91 
Q 1019 -91 701 211 
Q 384 513 384 1019 
Q 384 1609 779 1909 
Q 1175 2209 1959 2209 
L 2766 2209 
L 2766 2266 
Q 2766 2663 2505 2880 
Q 2244 3097 1772 3097 
Q 1472 3097 1187 3025 
Q 903 2953 641 2809 
L 641 3341 
Q 956 3463 1253 3523 
Q 1550 3584 1831 3584 
Q 2591 3584 2966 3190 
Q 3341 2797 3341 1997 
z
" transform="scale(0.015625)"/>
       <path id="DejaVuSans-73" d="M 2834 3397 
L 2834 2853 
Q 2591 2978 2328 3040 
Q 2066 3103 1784 3103 
Q 1356 3103 1142 2972 
Q 928 2841 928 2578 
Q 928 2378 1081 2264 
Q 1234 2150 1697 2047 
L 1894 2003 
Q 2506 1872 2764 1633 
Q 3022 1394 3022 966 
Q 3022 478 2636 193 
Q 2250 -91 1575 -91 
Q 1294 -91 989 -36 
Q 684 19 347 128 
L 347 722 
Q 666 556 975 473 
Q 1284 391 1588 391 
Q 1994 391 2212 530 
Q 2431 669 2431 922 
Q 2431 1156 2273 1281 
Q 2116 1406 1581 1522 
L 1381 1569 
Q 847 1681 609 1914 
Q 372 2147 372 2553 
Q 372 3047 722 3315 
Q 1072 3584 1716 3584 
Q 2034 3584 2315 3537 
Q 2597 3491 2834 3397 
z
" transform="scale(0.015625)"/>
       <path id="DejaVuSans-2f" d="M 1625 4666 
L 2156 4666 
L 531 -594 
L 0 -594 
L 1625 4666 
z
" transform="scale(0.015625)"/>
       <path id="DejaVuSans-44" d="M 1259 4147 
L 1259 519 
L 2022 519 
Q 2988 519 3436 956 
Q 3884 1394 3884 2338 
Q 3884 3275 3436 3711 
Q 2988 4147 2022 4147 
L 1259 4147 
z
M 628 4666 
L 1925 4666 
Q 3281 4666 3915 4102 
Q 4550 3538 4550 2338 
Q 4550 1131 3912 565 
Q 3275 0 1925 0 
L 628 0 
L 628 4666 
z
" transform="scale(0.015625)"/>
       <path id="DejaVuSans-49" d="M 628 4666 
L 1259 4666 
L 1259 0 
L 628 0 
L 628 4666 
z
" transform="scale(0.015625)"/>
       <path id="DejaVuSans-4d" d="M 628 4666 
L 1569 4666 
L 2759 1491 
L 3956 4666 
L 4897 4666 
L 4897 0 
L 4281 0 
L 4281 4097 
L 3078 897 
L 2444 897 
L 1241 4097 
L 1241 0 
L 628 0 
L 628 4666 
z
" transform="scale(0.015625)"/>
      </defs>
      <use xlink:href="#DejaVuSans-6c"/>
      <use xlink:href="#DejaVuSans-6f" x="27.783203"/>
      <use xlink:href="#DejaVuSans-67" x="88.964844"/>
      <use xlink:href="#DejaVuSans-31" x="152.441406"/>
      <use xlink:href="#DejaVuSans-30" x="216.064453"/>
      <use xlink:href="#DejaVuSans-20" x="279.6875"/>
      <use xlink:href="#DejaVuSans-6f" x="311.474609"/>
      <use xlink:href="#DejaVuSans-66" x="372.65625"/>
      <use xlink:href="#DejaVuSans-20" x="407.861328"/>
      <use xlink:href="#DejaVuSans-46" x="439.648438"/>
      <use xlink:href="#DejaVuSans-45" x="497.167969"/>
      <use xlink:href="#DejaVuSans-76" x="560.351562"/>
      <use xlink:href="#DejaVuSans-61" x="619.53125"/>
      <use xlink:href="#DejaVuSans-6c" x="680.810547"/>
      <use xlink:href="#DejaVuSans-73" x="708.59375"/>
      <use xlink:href="#DejaVuSans-20" x="760.693359"/>
      <use xlink:href="#DejaVuSans-2f" x="792.480469"/>
      <use xlink:href="#DejaVuSans-20" x="826.171875"/>
      <use xlink:href="#DejaVuSans-44" x="857.958984"/>
      <use xlink:href="#DejaVuSans-49" x="934.960938"/>
      <use xlink:href="#DejaVuSans-4d" x="964.453125"/>
     </g>
    </g>
   </g>
   <g id="matplotlib.axis_2">
    <g id="ytick_1">
     <g id="line2d_37">
      <path d="M 62.208 293.76 
L 460.8 293.76 
" clip-path="url(#pb884070bd9)" style="fill: none; stroke: #b0b0b0; stroke-width: 0.8; stroke-linecap: square"/>
     </g>
     <g id="line2d_38">
      <defs>
       <path id="mfc1123be9f" d="M 0 0 
L -3.5 0 
" style="stroke: #000000; stroke-width: 0.8"/>
      </defs>
      <g>
       <use xlink:href="#mfc1123be9f" x="62.208" y="293.76" style="stroke: #000000; stroke-width: 0.8"/>
      </g>
     </g>
     <g id="text_5">
      <!-- 0.0 -->
      <g transform="translate(29.763 299.83875)scale(0.16 -0.16)">
       <defs>
        <path id="DejaVuSans-2e" d="M 684 794 
L 1344 794 
L 1344 0 
L 684 0 
L 684 794 
z
" transform="scale(0.015625)"/>
       </defs>
       <use xlink:href="#DejaVuSans-30"/>
       <use xlink:href="#DejaVuSans-2e" x="63.623047"/>
       <use xlink:href="#DejaVuSans-30" x="95.410156"/>
      </g>
     </g>
    </g>
    <g id="ytick_2">
     <g id="line2d_39">
      <path d="M 62.208 236.274059 
L 460.8 236.274059 
" clip-path="url(#pb884070bd9)" style="fill: none; stroke: #b0b0b0; stroke-width: 0.8; stroke-linecap: square"/>
     </g>
     <g id="line2d_40">
      <g>
       <use xlink:href="#mfc1123be9f" x="62.208" y="236.274059" style="stroke: #000000; stroke-width: 0.8"/>
      </g>
     </g>
     <g id="text_6">
      <!-- 0.2 -->
      <g transform="translate(29.763 242.352809)scale(0.16 -0.16)">
       <use xlink:href="#DejaVuSans-30"/>
       <use xlink:href="#DejaVuSans-2e" x="63.623047"/>
       <use xlink:href="#DejaVuSans-32" x="95.410156"/>
      </g>
     </g>
    </g>
    <g id="ytick_3">
     <g id="line2d_41">
      <path d="M 62.208 178.788119 
L 460.8 178.788119 
" clip-path="url(#pb884070bd9)" style="fill: none; stroke: #b0b0b0; stroke-width: 0.8; stroke-linecap: square"/>
     </g>
     <g id="line2d_42">
      <g>
       <use xlink:href="#mfc1123be9f" x="62.208" y="178.788119" style="stroke: #000000; stroke-width: 0.8"/>
      </g>
     </g>
     <g id="text_7">
      <!-- 0.4 -->
      <g transform="translate(29.763 184.866869)scale(0.16 -0.16)">
       <use xlink:href="#DejaVuSans-30"/>
       <use xlink:href="#DejaVuSans-2e" x="63.623047"/>
       <use xlink:href="#DejaVuSans-34" x="95.410156"/>
      </g>
     </g>
    </g>
    <g id="ytick_4">
     <g id="line2d_43">
      <path d="M 62.208 121.302178 
L 460.8 121.302178 
" clip-path="url(#pb884070bd9)" style="fill: none; stroke: #b0b0b0; stroke-width: 0.8; stroke-linecap: square"/>
     </g>
     <g id="line2d_44">
      <g>
       <use xlink:href="#mfc1123be9f" x="62.208" y="121.302178" style="stroke: #000000; stroke-width: 0.8"/>
      </g>
     </g>
     <g id="text_8">
      <!-- 0.6 -->
      <g transform="translate(29.763 127.380928)scale(0.16 -0.16)">
       <defs>
        <path id="DejaVuSans-36" d="M 2113 2584 
Q 1688 2584 1439 2293 
Q 1191 2003 1191 1497 
Q 1191 994 1439 701 
Q 1688 409 2113 409 
Q 2538 409 2786 701 
Q 3034 994 3034 1497 
Q 3034 2003 2786 2293 
Q 2538 2584 2113 2584 
z
M 3366 4563 
L 3366 3988 
Q 3128 4100 2886 4159 
Q 2644 4219 2406 4219 
Q 1781 4219 1451 3797 
Q 1122 3375 1075 2522 
Q 1259 2794 1537 2939 
Q 1816 3084 2150 3084 
Q 2853 3084 3261 2657 
Q 3669 2231 3669 1497 
Q 3669 778 3244 343 
Q 2819 -91 2113 -91 
Q 1303 -91 875 529 
Q 447 1150 447 2328 
Q 447 3434 972 4092 
Q 1497 4750 2381 4750 
Q 2619 4750 2861 4703 
Q 3103 4656 3366 4563 
z
" transform="scale(0.015625)"/>
       </defs>
       <use xlink:href="#DejaVuSans-30"/>
       <use xlink:href="#DejaVuSans-2e" x="63.623047"/>
       <use xlink:href="#DejaVuSans-36" x="95.410156"/>
      </g>
     </g>
    </g>
    <g id="ytick_5">
     <g id="line2d_45">
      <path d="M 62.208 63.816238 
L 460.8 63.816238 
" clip-path="url(#pb884070bd9)" style="fill: none; stroke: #b0b0b0; stroke-width: 0.8; stroke-linecap: square"/>
     </g>
     <g id="line2d_46">
      <g>
       <use xlink:href="#mfc1123be9f" x="62.208" y="63.816238" style="stroke: #000000; stroke-width: 0.8"/>
      </g>
     </g>
     <g id="text_9">
      <!-- 0.8 -->
      <g transform="translate(29.763 69.894988)scale(0.16 -0.16)">
       <defs>
        <path id="DejaVuSans-38" d="M 2034 2216 
Q 1584 2216 1326 1975 
Q 1069 1734 1069 1313 
Q 1069 891 1326 650 
Q 1584 409 2034 409 
Q 2484 409 2743 651 
Q 3003 894 3003 1313 
Q 3003 1734 2745 1975 
Q 2488 2216 2034 2216 
z
M 1403 2484 
Q 997 2584 770 2862 
Q 544 3141 544 3541 
Q 544 4100 942 4425 
Q 1341 4750 2034 4750 
Q 2731 4750 3128 4425 
Q 3525 4100 3525 3541 
Q 3525 3141 3298 2862 
Q 3072 2584 2669 2484 
Q 3125 2378 3379 2068 
Q 3634 1759 3634 1313 
Q 3634 634 3220 271 
Q 2806 -91 2034 -91 
Q 1263 -91 848 271 
Q 434 634 434 1313 
Q 434 1759 690 2068 
Q 947 2378 1403 2484 
z
M 1172 3481 
Q 1172 3119 1398 2916 
Q 1625 2713 2034 2713 
Q 2441 2713 2670 2916 
Q 2900 3119 2900 3481 
Q 2900 3844 2670 4047 
Q 2441 4250 2034 4250 
Q 1625 4250 1398 4047 
Q 1172 3844 1172 3481 
z
" transform="scale(0.015625)"/>
       </defs>
       <use xlink:href="#DejaVuSans-30"/>
       <use xlink:href="#DejaVuSans-2e" x="63.623047"/>
       <use xlink:href="#DejaVuSans-38" x="95.410156"/>
      </g>
     </g>
    </g>
    <g id="ytick_6">
     <g id="line2d_47">
      <path d="M 62.208 6.330297 
L 460.8 6.330297 
" clip-path="url(#pb884070bd9)" style="fill: none; stroke: #b0b0b0; stroke-width: 0.8; stroke-linecap: square"/>
     </g>
     <g id="line2d_48">
      <g>
       <use xlink:href="#mfc1123be9f" x="62.208" y="6.330297" style="stroke: #000000; stroke-width: 0.8"/>
      </g>
     </g>
     <g id="text_10">
      <!-- 1.0 -->
      <g transform="translate(29.763 12.409047)scale(0.16 -0.16)">
       <use xlink:href="#DejaVuSans-31"/>
       <use xlink:href="#DejaVuSans-2e" x="63.623047"/>
       <use xlink:href="#DejaVuSans-30" x="95.410156"/>
      </g>
     </g>
    </g>
    <g id="text_11">
     <!-- proportion of trials -->
     <g transform="translate(21.603625 241.61425)rotate(-90)scale(0.2 -0.2)">
      <defs>
       <path id="DejaVuSans-70" d="M 1159 525 
L 1159 -1331 
L 581 -1331 
L 581 3500 
L 1159 3500 
L 1159 2969 
Q 1341 3281 1617 3432 
Q 1894 3584 2278 3584 
Q 2916 3584 3314 3078 
Q 3713 2572 3713 1747 
Q 3713 922 3314 415 
Q 2916 -91 2278 -91 
Q 1894 -91 1617 61 
Q 1341 213 1159 525 
z
M 3116 1747 
Q 3116 2381 2855 2742 
Q 2594 3103 2138 3103 
Q 1681 3103 1420 2742 
Q 1159 2381 1159 1747 
Q 1159 1113 1420 752 
Q 1681 391 2138 391 
Q 2594 391 2855 752 
Q 3116 1113 3116 1747 
z
" transform="scale(0.015625)"/>
       <path id="DejaVuSans-72" d="M 2631 2963 
Q 2534 3019 2420 3045 
Q 2306 3072 2169 3072 
Q 1681 3072 1420 2755 
Q 1159 2438 1159 1844 
L 1159 0 
L 581 0 
L 581 3500 
L 1159 3500 
L 1159 2956 
Q 1341 3275 1631 3429 
Q 1922 3584 2338 3584 
Q 2397 3584 2469 3576 
Q 2541 3569 2628 3553 
L 2631 2963 
z
" transform="scale(0.015625)"/>
       <path id="DejaVuSans-74" d="M 1172 4494 
L 1172 3500 
L 2356 3500 
L 2356 3053 
L 1172 3053 
L 1172 1153 
Q 1172 725 1289 603 
Q 1406 481 1766 481 
L 2356 481 
L 2356 0 
L 1766 0 
Q 1100 0 847 248 
Q 594 497 594 1153 
L 594 3053 
L 172 3053 
L 172 3500 
L 594 3500 
L 594 4494 
L 1172 4494 
z
" transform="scale(0.015625)"/>
       <path id="DejaVuSans-69" d="M 603 3500 
L 1178 3500 
L 1178 0 
L 603 0 
L 603 3500 
z
M 603 4863 
L 1178 4863 
L 1178 4134 
L 603 4134 
L 603 4863 
z
" transform="scale(0.015625)"/>
       <path id="DejaVuSans-6e" d="M 3513 2113 
L 3513 0 
L 2938 0 
L 2938 2094 
Q 2938 2591 2744 2837 
Q 2550 3084 2163 3084 
Q 1697 3084 1428 2787 
Q 1159 2491 1159 1978 
L 1159 0 
L 581 0 
L 581 3500 
L 1159 3500 
L 1159 2956 
Q 1366 3272 1645 3428 
Q 1925 3584 2291 3584 
Q 2894 3584 3203 3211 
Q 3513 2838 3513 2113 
z
" transform="scale(0.015625)"/>
      </defs>
      <use xlink:href="#DejaVuSans-70"/>
      <use xlink:href="#DejaVuSans-72" x="63.476562"/>
      <use xlink:href="#DejaVuSans-6f" x="102.339844"/>
      <use xlink:href="#DejaVuSans-70" x="163.521484"/>
      <use xlink:href="#DejaVuSans-6f" x="226.998047"/>
      <use xlink:href="#DejaVuSans-72" x="288.179688"/>
      <use xlink:href="#DejaVuSans-74" x="329.292969"/>
      <use xlink:href="#DejaVuSans-69" x="368.501953"/>
      <use xlink:href="#DejaVuSans-6f" x="396.285156"/>
      <use xlink:href="#DejaVuSans-6e" x="457.466797"/>
      <use xlink:href="#DejaVuSans-20" x="520.845703"/>
      <use xlink:href="#DejaVuSans-6f" x="552.632812"/>
      <use xlink:href="#DejaVuSans-66" x="613.814453"/>
      <use xlink:href="#DejaVuSans-20" x="649.019531"/>
      <use xlink:href="#DejaVuSans-74" x="680.806641"/>
      <use xlink:href="#DejaVuSans-72" x="720.015625"/>
      <use xlink:href="#DejaVuSans-69" x="761.128906"/>
      <use xlink:href="#DejaVuSans-61" x="788.912109"/>
      <use xlink:href="#DejaVuSans-6c" x="850.191406"/>
      <use xlink:href="#DejaVuSans-73" x="877.974609"/>
     </g>
    </g>
   </g>
   <g id="line2d_49">
    <path d="M -1 282.262812 
L 0.264743 282.262812 
L 0.264743 276.514218 
L 16.943816 276.514218 
L 16.943816 270.765624 
L 22.896835 270.765624 
L 22.896835 265.01703 
L 42.6879 265.01703 
L 42.6879 259.268436 
L 45.528927 259.268436 
L 45.528927 253.519842 
L 50.562133 253.519842 
L 50.562133 247.771248 
L 52.814833 247.771248 
L 52.814833 242.022653 
L 62.208 242.022653 
L 62.208 236.274059 
L 139.599319 236.274059 
L 139.599319 230.525465 
L 147.067804 230.525465 
L 147.067804 224.776871 
L 147.54975 224.776871 
L 147.54975 219.028277 
L 149.409396 219.028277 
L 149.409396 213.279683 
L 149.522181 213.279683 
L 149.522181 207.531089 
L 149.522181 207.531089 
L 149.522181 201.782495 
L 150.190829 201.782495 
L 150.190829 196.033901 
L 152.222165 196.033901 
L 152.222165 190.285307 
L 153.839893 190.285307 
L 153.839893 184.536713 
L 155.097725 184.536713 
L 155.097725 178.788119 
L 155.56889 178.788119 
L 155.56889 173.039525 
L 156.033353 173.039525 
L 156.033353 167.290931 
L 156.217304 167.290931 
L 156.217304 161.542337 
L 156.400225 161.542337 
L 156.400225 155.793743 
L 156.942917 155.793743 
L 156.942917 150.045149 
L 157.299764 150.045149 
L 157.299764 144.296554 
L 157.476736 144.296554 
L 157.476736 138.54796 
L 157.564863 138.54796 
L 157.564863 132.799366 
L 158.943483 132.799366 
L 158.943483 127.050772 
L 159.445819 127.050772 
L 159.445819 121.302178 
L 160.987405 121.302178 
L 160.987405 115.553584 
L 163.356133 115.553584 
L 163.356133 109.80499 
L 164.797922 109.80499 
L 164.797922 104.056396 
L 167.826464 104.056396 
L 167.826464 98.307802 
L 175.87469 98.307802 
L 175.87469 92.559208 
L 245.477448 92.559208 
L 245.477448 86.810614 
L 245.626093 86.810614 
L 245.626093 81.06202 
L 251.086998 81.06202 
L 251.086998 75.313426 
L 273.789275 75.313426 
L 273.789275 69.564832 
L 274.088373 69.564832 
L 274.088373 63.816238 
L 300.025859 63.816238 
L 300.025859 58.067644 
L 318.821021 58.067644 
L 318.821021 52.31905 
L 344.767369 52.31905 
L 344.767369 46.570455 
L 353.252324 46.570455 
L 353.252324 40.821861 
L 353.252324 40.821861 
L 353.252324 40.821861 
L 460.8 40.821861 
" clip-path="url(#pb884070bd9)" style="fill: none; stroke: #000000; stroke-width: 1.5; stroke-linecap: square"/>
   </g>
   <g id="line2d_50">
    <path clip-path="url(#pb884070bd9)" style="fill: none; stroke: #000000; stroke-width: 1.5; stroke-linecap: square"/>
   </g>
   <g id="line2d_51">
    <path d="M 183.420767 293.76 
L 183.420767 288.011406 
L 251.505865 288.011406 
L 251.505865 282.262812 
L 275.210182 282.262812 
L 275.210182 276.514218 
L 297.33492 276.514218 
L 297.33492 270.765624 
L 301.709335 270.765624 
L 301.709335 265.01703 
L 319.494291 265.01703 
L 319.494291 259.268436 
L 324.646122 259.268436 
L 324.646122 253.519842 
L 389.32099 253.519842 
L 389.32099 247.771248 
L 410.292852 247.771248 
L 410.292852 242.022653 
L 433.178127 242.022653 
L 433.178127 236.274059 
L 433.965639 236.274059 
L 433.965639 230.525465 
L 434.684948 230.525465 
L 434.684948 224.776871 
L 435.777237 224.776871 
L 435.777237 219.028277 
L 436.144388 219.028277 
L 436.144388 213.279683 
L 436.144388 213.279683 
L 436.144388 213.279683 
L 460.8 213.279683 
" clip-path="url(#pb884070bd9)" style="fill: none; stroke: #00bfbf; stroke-width: 1.5; stroke-linecap: square"/>
   </g>
   <g id="line2d_52">
    <path clip-path="url(#pb884070bd9)" style="fill: none; stroke: #00bfbf; stroke-width: 1.5; stroke-linecap: square"/>
   </g>
   <g id="line2d_53">
    <path d="M 200.809677 293.76 
L 200.809677 288.011406 
L 254.851241 288.011406 
L 254.851241 282.262812 
L 278.630187 282.262812 
L 278.630187 276.514218 
L 299.639036 276.514218 
L 299.639036 270.765624 
L 436.321468 270.765624 
L 436.321468 265.01703 
L 437.169271 265.01703 
L 437.169271 259.268436 
L 437.169271 259.268436 
L 437.169271 259.268436 
L 460.8 259.268436 
" clip-path="url(#pb884070bd9)" style="fill: none; stroke: #bf00bf; stroke-width: 1.5; stroke-linecap: square"/>
   </g>
   <g id="line2d_54">
    <path clip-path="url(#pb884070bd9)" style="fill: none; stroke: #bf00bf; stroke-width: 1.5; stroke-linecap: square"/>
   </g>
   <g id="line2d_55">
    <path d="M 214.948904 293.76 
L 214.948904 288.011406 
L 258.734246 288.011406 
L 258.734246 282.262812 
L 281.800222 282.262812 
L 281.800222 276.514218 
L 302.923733 276.514218 
L 302.923733 270.765624 
L 437.262167 270.765624 
L 437.262167 265.01703 
L 438.123482 265.01703 
L 438.123482 259.268436 
L 438.123482 259.268436 
L 438.123482 259.268436 
L 460.8 259.268436 
" clip-path="url(#pb884070bd9)" style="fill: none; stroke: #ff0000; stroke-width: 3; stroke-linecap: square"/>
   </g>
   <g id="line2d_56">
    <path clip-path="url(#pb884070bd9)" style="fill: none; stroke: #ff0000; stroke-width: 3; stroke-linecap: square"/>
   </g>
   <g id="line2d_57">
    <path d="M 460.799902 293.76 
L 460.799902 3.456 
" clip-path="url(#pb884070bd9)" style="fill: none; stroke: #000000; stroke-width: 1.5; stroke-linecap: square"/>
   </g>
   <g id="patch_3">
    <path d="M 62.208 293.76 
L 62.208 3.456 
" style="fill: none; stroke: #000000; stroke-width: 0.8; stroke-linejoin: miter; stroke-linecap: square"/>
   </g>
   <g id="patch_4">
    <path d="M 460.8 293.76 
L 460.8 3.456 
" style="fill: none; stroke: #000000; stroke-width: 0.8; stroke-linejoin: miter; stroke-linecap: square"/>
   </g>
   <g id="patch_5">
    <path d="M 62.208 293.76 
L 460.8 293.76 
" style="fill: none; stroke: #000000; stroke-width: 0.8; stroke-linejoin: miter; stroke-linecap: square"/>
   </g>
   <g id="patch_6">
    <path d="M 62.208 3.456 
L 460.8 3.456 
" style="fill: none; stroke: #000000; stroke-width: 0.8; stroke-linejoin: miter; stroke-linecap: square"/>
   </g>
   <g id="text_12">
    <!-- {f20-f24}, 20-D -->
    <g transform="translate(182.2915 24.458955)scale(0.2 -0.2)">
     <defs>
      <path id="DejaVuSans-7b" d="M 3272 -594 
L 3272 -1044 
L 3078 -1044 
Q 2300 -1044 2036 -812 
Q 1772 -581 1772 109 
L 1772 856 
Q 1772 1328 1603 1509 
Q 1434 1691 991 1691 
L 800 1691 
L 800 2138 
L 991 2138 
Q 1438 2138 1605 2317 
Q 1772 2497 1772 2963 
L 1772 3713 
Q 1772 4403 2036 4633 
Q 2300 4863 3078 4863 
L 3272 4863 
L 3272 4416 
L 3059 4416 
Q 2619 4416 2484 4278 
Q 2350 4141 2350 3700 
L 2350 2925 
Q 2350 2434 2208 2212 
Q 2066 1991 1722 1913 
Q 2069 1828 2209 1606 
Q 2350 1384 2350 897 
L 2350 122 
Q 2350 -319 2484 -456 
Q 2619 -594 3059 -594 
L 3272 -594 
z
" transform="scale(0.015625)"/>
      <path id="DejaVuSans-2d" d="M 313 2009 
L 1997 2009 
L 1997 1497 
L 313 1497 
L 313 2009 
z
" transform="scale(0.015625)"/>
      <path id="DejaVuSans-7d" d="M 800 -594 
L 1019 -594 
Q 1456 -594 1589 -459 
Q 1722 -325 1722 122 
L 1722 897 
Q 1722 1384 1862 1606 
Q 2003 1828 2350 1913 
Q 2003 1991 1862 2212 
Q 1722 2434 1722 2925 
L 1722 3700 
Q 1722 4144 1589 4280 
Q 1456 4416 1019 4416 
L 800 4416 
L 800 4863 
L 997 4863 
Q 1775 4863 2036 4633 
Q 2297 4403 2297 3713 
L 2297 2963 
Q 2297 2497 2465 2317 
Q 2634 2138 3078 2138 
L 3272 2138 
L 3272 1691 
L 3078 1691 
Q 2634 1691 2465 1509 
Q 2297 1328 2297 856 
L 2297 109 
Q 2297 -581 2036 -812 
Q 1775 -1044 997 -1044 
L 800 -1044 
L 800 -594 
z
" transform="scale(0.015625)"/>
      <path id="DejaVuSans-2c" d="M 750 794 
L 1409 794 
L 1409 256 
L 897 -744 
L 494 -744 
L 750 256 
L 750 794 
z
" transform="scale(0.015625)"/>
     </defs>
     <use xlink:href="#DejaVuSans-7b"/>
     <use xlink:href="#DejaVuSans-66" x="63.623047"/>
     <use xlink:href="#DejaVuSans-32" x="98.828125"/>
     <use xlink:href="#DejaVuSans-30" x="162.451172"/>
     <use xlink:href="#DejaVuSans-2d" x="226.074219"/>
     <use xlink:href="#DejaVuSans-66" x="262.158203"/>
     <use xlink:href="#DejaVuSans-32" x="297.363281"/>
     <use xlink:href="#DejaVuSans-34" x="360.986328"/>
     <use xlink:href="#DejaVuSans-7d" x="424.609375"/>
     <use xlink:href="#DejaVuSans-2c" x="488.232422"/>
     <use xlink:href="#DejaVuSans-20" x="520.019531"/>
     <use xlink:href="#DejaVuSans-32" x="551.806641"/>
     <use xlink:href="#DejaVuSans-30" x="615.429688"/>
     <use xlink:href="#DejaVuSans-2d" x="679.052734"/>
     <use xlink:href="#DejaVuSans-44" x="715.136719"/>
    </g>
   </g>
   <g id="text_13">
    <!-- absolute targets -->
    <g transform="translate(62.208 608.208095)scale(0.14 -0.14)">
     <defs>
      <path id="DejaVuSans-62" d="M 3116 1747 
Q 3116 2381 2855 2742 
Q 2594 3103 2138 3103 
Q 1681 3103 1420 2742 
Q 1159 2381 1159 1747 
Q 1159 1113 1420 752 
Q 1681 391 2138 391 
Q 2594 391 2855 752 
Q 3116 1113 3116 1747 
z
M 1159 2969 
Q 1341 3281 1617 3432 
Q 1894 3584 2278 3584 
Q 2916 3584 3314 3078 
Q 3713 2572 3713 1747 
Q 3713 922 3314 415 
Q 2916 -91 2278 -91 
Q 1894 -91 1617 61 
Q 1341 213 1159 525 
L 1159 0 
L 581 0 
L 581 4863 
L 1159 4863 
L 1159 2969 
z
" transform="scale(0.015625)"/>
      <path id="DejaVuSans-75" d="M 544 1381 
L 544 3500 
L 1119 3500 
L 1119 1403 
Q 1119 906 1312 657 
Q 1506 409 1894 409 
Q 2359 409 2629 706 
Q 2900 1003 2900 1516 
L 2900 3500 
L 3475 3500 
L 3475 0 
L 2900 0 
L 2900 538 
Q 2691 219 2414 64 
Q 2138 -91 1772 -91 
Q 1169 -91 856 284 
Q 544 659 544 1381 
z
M 1991 3584 
L 1991 3584 
z
" transform="scale(0.015625)"/>
      <path id="DejaVuSans-65" d="M 3597 1894 
L 3597 1613 
L 953 1613 
Q 991 1019 1311 708 
Q 1631 397 2203 397 
Q 2534 397 2845 478 
Q 3156 559 3463 722 
L 3463 178 
Q 3153 47 2828 -22 
Q 2503 -91 2169 -91 
Q 1331 -91 842 396 
Q 353 884 353 1716 
Q 353 2575 817 3079 
Q 1281 3584 2069 3584 
Q 2775 3584 3186 3129 
Q 3597 2675 3597 1894 
z
M 3022 2063 
Q 3016 2534 2758 2815 
Q 2500 3097 2075 3097 
Q 1594 3097 1305 2825 
Q 1016 2553 972 2059 
L 3022 2063 
z
" transform="scale(0.015625)"/>
     </defs>
     <use xlink:href="#DejaVuSans-61"/>
     <use xlink:href="#DejaVuSans-62" x="61.279297"/>
     <use xlink:href="#DejaVuSans-73" x="124.755859"/>
     <use xlink:href="#DejaVuSans-6f" x="176.855469"/>
     <use xlink:href="#DejaVuSans-6c" x="238.037109"/>
     <use xlink:href="#DejaVuSans-75" x="265.820312"/>
     <use xlink:href="#DejaVuSans-74" x="329.199219"/>
     <use xlink:href="#DejaVuSans-65" x="368.408203"/>
     <use xlink:href="#DejaVuSans-20" x="429.931641"/>
     <use xlink:href="#DejaVuSans-74" x="461.71875"/>
     <use xlink:href="#DejaVuSans-61" x="500.927734"/>
     <use xlink:href="#DejaVuSans-72" x="562.207031"/>
     <use xlink:href="#DejaVuSans-67" x="601.570312"/>
     <use xlink:href="#DejaVuSans-65" x="665.046875"/>
     <use xlink:href="#DejaVuSans-74" x="726.570312"/>
     <use xlink:href="#DejaVuSans-73" x="765.779297"/>
    </g>
   </g>
   <g id="text_14">
    <!-- v2.6.3 -->
    <g style="fill: #808080" transform="translate(245.82275 288.777272)scale(0.1 -0.1)">
     <defs>
      <path id="DejaVuSans-33" d="M 2597 2516 
Q 3050 2419 3304 2112 
Q 3559 1806 3559 1356 
Q 3559 666 3084 287 
Q 2609 -91 1734 -91 
Q 1441 -91 1130 -33 
Q 819 25 488 141 
L 488 750 
Q 750 597 1062 519 
Q 1375 441 1716 441 
Q 2309 441 2620 675 
Q 2931 909 2931 1356 
Q 2931 1769 2642 2001 
Q 2353 2234 1838 2234 
L 1294 2234 
L 1294 2753 
L 1863 2753 
Q 2328 2753 2575 2939 
Q 2822 3125 2822 3475 
Q 2822 3834 2567 4026 
Q 2313 4219 1838 4219 
Q 1578 4219 1281 4162 
Q 984 4106 628 3988 
L 628 4550 
Q 988 4650 1302 4700 
Q 1616 4750 1894 4750 
Q 2613 4750 3031 4423 
Q 3450 4097 3450 3541 
Q 3450 3153 3228 2886 
Q 3006 2619 2597 2516 
z
" transform="scale(0.015625)"/>
     </defs>
     <use xlink:href="#DejaVuSans-76"/>
     <use xlink:href="#DejaVuSans-32" x="59.179688"/>
     <use xlink:href="#DejaVuSans-2e" x="122.802734"/>
     <use xlink:href="#DejaVuSans-36" x="154.589844"/>
     <use xlink:href="#DejaVuSans-2e" x="218.212891"/>
     <use xlink:href="#DejaVuSans-33" x="250"/>
    </g>
   </g>
   <g id="legend_1">
    <g id="patch_7">
     <path d="M 196.893062 210.3205 
L 326.114937 210.3205 
Q 330.114937 210.3205 330.114937 206.3205 
L 330.114937 90.8955 
Q 330.114937 86.8955 326.114937 86.8955 
L 196.893062 86.8955 
Q 192.893062 86.8955 192.893062 90.8955 
L 192.893062 206.3205 
Q 192.893062 210.3205 196.893062 210.3205 
z
" style="fill: #ffffff; opacity: 0.2; stroke: #cccccc; stroke-linejoin: miter"/>
    </g>
    <g id="line2d_58">
     <path d="M 200.893062 103.092375 
L 200.893062 103.092375 
L 220.893062 103.092375 
L 220.893062 103.092375 
L 240.893062 103.092375 
" style="fill: none; stroke: #000000; stroke-width: 1.5; stroke-linecap: square"/>
    </g>
    <g id="text_15">
     <!-- 1: 5/5 -->
     <g transform="translate(256.893062 110.092375)scale(0.2 -0.2)">
      <defs>
       <path id="DejaVuSans-3a" d="M 750 794 
L 1409 794 
L 1409 0 
L 750 0 
L 750 794 
z
M 750 3309 
L 1409 3309 
L 1409 2516 
L 750 2516 
L 750 3309 
z
" transform="scale(0.015625)"/>
       <path id="DejaVuSans-35" d="M 691 4666 
L 3169 4666 
L 3169 4134 
L 1269 4134 
L 1269 2991 
Q 1406 3038 1543 3061 
Q 1681 3084 1819 3084 
Q 2600 3084 3056 2656 
Q 3513 2228 3513 1497 
Q 3513 744 3044 326 
Q 2575 -91 1722 -91 
Q 1428 -91 1123 -41 
Q 819 9 494 109 
L 494 744 
Q 775 591 1075 516 
Q 1375 441 1709 441 
Q 2250 441 2565 725 
Q 2881 1009 2881 1497 
Q 2881 1984 2565 2268 
Q 2250 2553 1709 2553 
Q 1456 2553 1204 2497 
Q 953 2441 691 2322 
L 691 4666 
z
" transform="scale(0.015625)"/>
      </defs>
      <use xlink:href="#DejaVuSans-31"/>
      <use xlink:href="#DejaVuSans-3a" x="63.623047"/>
      <use xlink:href="#DejaVuSans-20" x="97.314453"/>
      <use xlink:href="#DejaVuSans-35" x="129.101562"/>
      <use xlink:href="#DejaVuSans-2f" x="192.724609"/>
      <use xlink:href="#DejaVuSans-35" x="226.416016"/>
     </g>
    </g>
    <g id="line2d_59">
     <path d="M 200.893062 132.448625 
L 200.893062 132.448625 
L 220.893062 132.448625 
L 220.893062 132.448625 
L 240.893062 132.448625 
" style="fill: none; stroke: #00bfbf; stroke-width: 1.5; stroke-linecap: square"/>
    </g>
    <g id="text_16">
     <!-- -1: 3/5 -->
     <g transform="translate(256.893062 139.448625)scale(0.2 -0.2)">
      <use xlink:href="#DejaVuSans-2d"/>
      <use xlink:href="#DejaVuSans-31" x="36.083984"/>
      <use xlink:href="#DejaVuSans-3a" x="99.707031"/>
      <use xlink:href="#DejaVuSans-20" x="133.398438"/>
      <use xlink:href="#DejaVuSans-33" x="165.185547"/>
      <use xlink:href="#DejaVuSans-2f" x="228.808594"/>
      <use xlink:href="#DejaVuSans-35" x="262.5"/>
     </g>
    </g>
    <g id="line2d_60">
     <path d="M 200.893062 161.804875 
L 200.893062 161.804875 
L 220.893062 161.804875 
L 220.893062 161.804875 
L 240.893062 161.804875 
" style="fill: none; stroke: #bf00bf; stroke-width: 1.5; stroke-linecap: square"/>
    </g>
    <g id="text_17">
     <!-- -4: 2/5 -->
     <g transform="translate(256.893062 168.804875)scale(0.2 -0.2)">
      <use xlink:href="#DejaVuSans-2d"/>
      <use xlink:href="#DejaVuSans-34" x="36.083984"/>
      <use xlink:href="#DejaVuSans-3a" x="99.707031"/>
      <use xlink:href="#DejaVuSans-20" x="133.398438"/>
      <use xlink:href="#DejaVuSans-32" x="165.185547"/>
      <use xlink:href="#DejaVuSans-2f" x="228.808594"/>
      <use xlink:href="#DejaVuSans-35" x="262.5"/>
     </g>
    </g>
    <g id="line2d_61">
     <path d="M 200.893062 191.161125 
L 200.893062 191.161125 
L 220.893062 191.161125 
L 220.893062 191.161125 
L 240.893062 191.161125 
" style="fill: none; stroke: #ff0000; stroke-width: 3; stroke-linecap: square"/>
    </g>
    <g id="text_18">
     <!-- -8: 2/5 -->
     <g transform="translate(256.893062 198.161125)scale(0.2 -0.2)">
      <use xlink:href="#DejaVuSans-2d"/>
      <use xlink:href="#DejaVuSans-38" x="36.083984"/>
      <use xlink:href="#DejaVuSans-3a" x="99.707031"/>
      <use xlink:href="#DejaVuSans-20" x="133.398438"/>
      <use xlink:href="#DejaVuSans-32" x="165.185547"/>
      <use xlink:href="#DejaVuSans-2f" x="228.808594"/>
      <use xlink:href="#DejaVuSans-35" x="262.5"/>
     </g>
    </g>
   </g>
  </g>
 </g>
 <defs>
  <clipPath id="pb884070bd9">
   <rect x="62.208" y="3.456" width="398.592" height="290.304"/>
  </clipPath>
 </defs>
</svg>
