<?xml version="1.0" encoding="utf-8" standalone="no"?>
<!DOCTYPE svg PUBLIC "-//W3C//DTD SVG 1.1//EN"
  "http://www.w3.org/Graphics/SVG/1.1/DTD/svg11.dtd">
<svg xmlns:xlink="http://www.w3.org/1999/xlink" width="460.8pt" height="345.6pt" viewBox="0 0 460.8 345.6" xmlns="http://www.w3.org/2000/svg" version="1.1">
 <metadata>
  <rdf:RDF xmlns:dc="http://purl.org/dc/elements/1.1/" xmlns:cc="http://creativecommons.org/ns#" xmlns:rdf="http://www.w3.org/1999/02/22-rdf-syntax-ns#">
   <cc:Work>
    <dc:type rdf:resource="http://purl.org/dc/dcmitype/StillImage"/>
    <dc:date>2023-04-07T14:47:12.181850</dc:date>
    <dc:format>image/svg+xml</dc:format>
    <dc:creator>
     <cc:Agent>
      <dc:title>Matplotlib v3.5.2, https://matplotlib.org/</dc:title>
     </cc:Agent>
    </dc:creator>
   </cc:Work>
  </rdf:RDF>
 </metadata>
 <defs>
  <style type="text/css">*{stroke-linejoin: round; stroke-linecap: butt}</style>
 </defs>
 <g id="figure_1">
  <g id="patch_1">
   <path d="M 0 345.6 
L 460.8 345.6 
L 460.8 0 
L 0 0 
z
" style="fill: #ffffff"/>
  </g>
  <g id="axes_1">
   <g id="patch_2">
    <path d="M 62.208 293.76 
L 460.8 293.76 
L 460.8 3.456 
L 62.208 3.456 
z
" style="fill: #ffffff"/>
   </g>
   <g id="line2d_1">
    <path d="M 155.00267 293.76 
L 155.00267 289.927604 
L 155.00267 289.927604 
L 155.00267 286.095208 
L 155.00267 286.095208 
L 155.00267 282.262812 
L 155.00267 282.262812 
L 155.00267 278.430416 
L 155.00267 278.430416 
L 155.00267 274.59802 
L 155.00267 274.59802 
L 155.00267 270.765624 
L 155.00267 270.765624 
L 155.00267 266.933228 
L 155.00267 266.933228 
L 155.00267 263.100832 
L 155.00267 263.100832 
L 155.00267 259.268436 
L 155.00267 259.268436 
L 155.00267 255.43604 
L 155.00267 255.43604 
L 155.00267 251.603644 
L 155.00267 251.603644 
L 155.00267 247.771248 
L 155.00267 247.771248 
L 155.00267 243.938851 
L 155.00267 243.938851 
L 155.00267 240.106455 
L 155.00267 240.106455 
L 155.00267 236.274059 
L 158.774305 236.274059 
L 158.774305 232.441663 
L 160.508405 232.441663 
L 160.508405 228.609267 
L 160.508405 228.609267 
L 160.508405 224.776871 
L 162.155034 224.776871 
L 162.155034 220.944475 
L 162.155034 220.944475 
L 162.155034 217.112079 
L 162.155034 217.112079 
L 162.155034 213.279683 
L 162.155034 213.279683 
L 162.155034 209.447287 
L 163.722592 209.447287 
L 163.722592 205.614891 
L 163.722592 205.614891 
L 163.722592 201.782495 
L 163.722592 201.782495 
L 163.722592 197.950099 
L 165.218329 197.950099 
L 165.218329 194.117703 
L 165.218329 194.117703 
L 165.218329 190.285307 
L 165.218329 190.285307 
L 165.218329 186.452911 
L 165.218329 186.452911 
L 165.218329 182.620515 
L 166.648538 182.620515 
L 166.648538 178.788119 
L 263.660066 178.788119 
L 263.660066 174.955723 
L 264.228752 174.955723 
L 264.228752 171.123327 
L 264.648859 171.123327 
L 264.648859 167.290931 
L 264.856903 167.290931 
L 264.856903 163.458535 
L 265.063629 163.458535 
L 265.063629 159.626139 
L 265.810622 159.626139 
L 265.810622 155.793743 
L 287.442877 155.793743 
L 287.442877 151.961347 
L 287.71861 151.961347 
L 287.71861 148.12895 
L 287.992035 148.12895 
L 287.992035 144.296554 
L 300.18467 144.296554 
L 300.18467 140.464158 
L 301.605888 140.464158 
L 301.605888 136.631762 
L 301.645386 136.631762 
L 301.645386 132.799366 
L 309.072452 132.799366 
L 309.072452 128.96697 
L 309.072452 128.96697 
L 309.072452 128.96697 
L 460.8 128.96697 
" clip-path="url(#p175b19f5b0)" style="fill: none; stroke: #f5deb3; stroke-width: 1.5; stroke-linecap: square"/>
   </g>
   <g id="line2d_2">
    <path d="M 262.279053 293.76 
L 262.279053 282.262812 
L 262.279053 282.262812 
L 262.279053 270.765624 
L 262.282615 270.765624 
L 262.282615 259.268436 
L 262.282615 259.268436 
L 262.282615 247.771248 
L 262.282615 247.771248 
L 262.282615 236.274059 
L 327.628154 236.274059 
L 327.628154 224.776871 
L 331.049618 224.776871 
L 331.049618 213.279683 
L 333.545851 213.279683 
L 333.545851 201.782495 
L 338.308289 201.782495 
L 338.308289 190.285307 
L 338.308289 190.285307 
L 338.308289 190.285307 
L 460.8 190.285307 
" clip-path="url(#p175b19f5b0)" style="fill: none; stroke: #f5deb3; stroke-width: 1.5; stroke-linecap: square"/>
   </g>
   <g id="line2d_3">
    <path d="M 142.37671 293.76 
L 142.37671 289.927604 
L 142.37671 289.927604 
L 142.37671 286.095208 
L 142.37671 286.095208 
L 142.37671 282.262812 
L 142.37671 282.262812 
L 142.37671 278.430416 
L 142.516544 278.430416 
L 142.516544 274.59802 
L 142.655782 274.59802 
L 142.655782 270.765624 
L 142.655782 270.765624 
L 142.655782 266.933228 
L 142.655782 266.933228 
L 142.655782 263.100832 
L 142.655782 263.100832 
L 142.655782 259.268436 
L 142.655782 259.268436 
L 142.655782 255.43604 
L 142.655782 255.43604 
L 142.655782 251.603644 
L 142.655782 251.603644 
L 142.655782 247.771248 
L 142.655782 247.771248 
L 142.655782 243.938851 
L 142.655782 243.938851 
L 142.655782 240.106455 
L 142.794428 240.106455 
L 142.794428 236.274059 
L 142.932489 236.274059 
L 142.932489 232.441663 
L 143.20687 232.441663 
L 143.20687 228.609267 
L 144.545222 228.609267 
L 144.545222 224.776871 
L 145.065571 224.776871 
L 145.065571 220.944475 
L 146.082033 220.944475 
L 146.082033 217.112079 
L 146.082033 217.112079 
L 146.082033 213.279683 
L 146.455193 213.279683 
L 146.455193 209.447287 
L 146.578639 209.447287 
L 146.578639 205.614891 
L 146.701619 205.614891 
L 146.701619 201.782495 
L 147.309666 201.782495 
L 147.309666 197.950099 
L 147.429929 197.950099 
L 147.429929 194.117703 
L 147.788081 194.117703 
L 147.788081 190.285307 
L 148.839552 190.285307 
L 148.839552 186.452911 
L 150.629107 186.452911 
L 150.629107 182.620515 
L 152.014195 182.620515 
L 152.014195 178.788119 
L 152.014195 178.788119 
L 152.014195 178.788119 
L 460.8 178.788119 
" clip-path="url(#p175b19f5b0)" style="fill: none; stroke: #f5deb3; stroke-width: 1.5; stroke-linecap: square"/>
   </g>
   <g id="line2d_4">
    <path d="M 118.748643 293.76 
L 118.748643 289.927604 
L 119.321486 289.927604 
L 119.321486 286.095208 
L 120.162336 286.095208 
L 120.162336 282.262812 
L 121.250811 282.262812 
L 121.250811 278.430416 
L 122.304167 278.430416 
L 122.304167 274.59802 
L 125.976709 274.59802 
L 125.976709 270.765624 
L 125.976709 270.765624 
L 125.976709 266.933228 
L 126.20746 266.933228 
L 126.20746 263.100832 
L 127.778612 263.100832 
L 127.778612 259.268436 
L 127.778612 259.268436 
L 127.778612 255.43604 
L 129.693563 255.43604 
L 129.693563 251.603644 
L 131.89111 251.603644 
L 131.89111 247.771248 
L 132.275246 247.771248 
L 132.275246 243.938851 
L 133.030221 243.938851 
L 133.030221 240.106455 
L 146.082033 240.106455 
L 146.082033 236.274059 
L 205.408671 236.274059 
L 205.408671 232.441663 
L 206.879516 232.441663 
L 206.879516 228.609267 
L 207.092607 228.609267 
L 207.092607 224.776871 
L 207.342661 224.776871 
L 207.342661 220.944475 
L 207.704715 220.944475 
L 207.704715 217.112079 
L 208.546529 217.112079 
L 208.546529 213.279683 
L 208.657148 213.279683 
L 208.657148 209.447287 
L 208.712318 209.447287 
L 208.712318 205.614891 
L 208.767395 205.614891 
L 208.767395 201.782495 
L 208.968551 201.782495 
L 208.968551 197.950099 
L 209.077752 197.950099 
L 209.077752 194.117703 
L 209.114072 194.117703 
L 209.114072 190.285307 
L 209.93846 190.285307 
L 209.93846 186.452911 
L 210.079731 186.452911 
L 210.079731 182.620515 
L 210.237934 182.620515 
L 210.237934 178.788119 
L 281.542559 178.788119 
L 281.542559 174.955723 
L 281.544533 174.955723 
L 281.544533 171.123327 
L 281.933173 171.123327 
L 281.933173 167.290931 
L 282.599488 167.290931 
L 282.599488 163.458535 
L 282.936131 163.458535 
L 282.936131 159.626139 
L 283.261845 159.626139 
L 283.261845 155.793743 
L 283.291806 155.793743 
L 283.291806 151.961347 
L 283.375922 151.961347 
L 283.375922 148.12895 
L 283.398317 148.12895 
L 283.398317 144.296554 
L 283.446786 144.296554 
L 283.446786 140.464158 
L 283.506341 140.464158 
L 283.506341 136.631762 
L 283.949577 136.631762 
L 283.949577 132.799366 
L 284.281731 132.799366 
L 284.281731 128.96697 
L 284.56737 128.96697 
L 284.56737 125.134574 
L 285.342868 125.134574 
L 285.342868 121.302178 
L 285.342868 121.302178 
L 285.342868 121.302178 
L 460.8 121.302178 
" clip-path="url(#p175b19f5b0)" style="fill: none; stroke: #f5deb3; stroke-width: 1.5; stroke-linecap: square"/>
   </g>
   <g id="line2d_5">
    <path d="M 255.959211 293.76 
L 255.959211 289.927604 
L 256.058488 289.927604 
L 256.058488 286.095208 
L 256.35452 286.095208 
L 256.35452 282.262812 
L 256.643658 282.262812 
L 256.643658 278.430416 
L 256.669048 278.430416 
L 256.669048 274.59802 
L 256.900872 274.59802 
L 256.900872 270.765624 
L 257.14774 270.765624 
L 257.14774 266.933228 
L 257.934355 266.933228 
L 257.934355 263.100832 
L 258.374912 263.100832 
L 258.374912 259.268436 
L 258.78186 259.268436 
L 258.78186 255.43604 
L 259.093597 255.43604 
L 259.093597 251.603644 
L 260.406056 251.603644 
L 260.406056 247.771248 
L 260.825869 247.771248 
L 260.825869 243.938851 
L 261.613303 243.938851 
L 261.613303 240.106455 
L 272.022107 240.106455 
L 272.022107 236.274059 
L 272.022107 236.274059 
L 272.022107 236.274059 
L 460.8 236.274059 
" clip-path="url(#p175b19f5b0)" style="fill: none; stroke: #f5deb3; stroke-width: 1.5; stroke-linecap: square"/>
   </g>
   <g id="line2d_6"/>
   <g id="line2d_7">
    <path d="M 141.668413 293.76 
L 141.668413 289.927604 
L 148.376407 289.927604 
L 148.376407 286.095208 
L 148.954319 286.095208 
L 148.954319 282.262812 
L 149.409396 282.262812 
L 149.409396 278.430416 
L 149.522181 278.430416 
L 149.522181 274.59802 
L 149.858217 274.59802 
L 149.858217 270.765624 
L 150.410704 270.765624 
L 150.410704 266.933228 
L 150.410704 266.933228 
L 150.410704 263.100832 
L 150.629107 263.100832 
L 150.629107 259.268436 
L 153.542611 259.268436 
L 153.542611 255.43604 
L 154.523202 255.43604 
L 154.523202 251.603644 
L 155.381239 251.603644 
L 155.381239 247.771248 
L 156.217304 247.771248 
L 156.217304 243.938851 
L 160.828518 243.938851 
L 160.828518 240.106455 
L 160.828518 240.106455 
L 160.828518 236.274059 
L 221.760821 236.274059 
L 221.760821 232.441663 
L 222.16491 232.441663 
L 222.16491 228.609267 
L 222.982134 228.609267 
L 222.982134 224.776871 
L 223.183284 224.776871 
L 223.183284 220.944475 
L 223.277515 220.944475 
L 223.277515 217.112079 
L 223.430064 217.112079 
L 223.430064 213.279683 
L 223.511911 213.279683 
L 223.511911 209.447287 
L 223.721438 209.447287 
L 223.721438 205.614891 
L 223.733039 205.614891 
L 223.733039 201.782495 
L 224.216599 201.782495 
L 224.216599 197.950099 
L 224.535039 197.950099 
L 224.535039 194.117703 
L 224.839193 194.117703 
L 224.839193 190.285307 
L 225.636684 190.285307 
L 225.636684 186.452911 
L 225.930792 186.452911 
L 225.930792 182.620515 
L 226.082255 182.620515 
L 226.082255 178.788119 
L 288.909326 178.788119 
L 288.909326 174.955723 
L 289.202685 174.955723 
L 289.202685 171.123327 
L 290.314244 171.123327 
L 290.314244 167.290931 
L 290.535385 167.290931 
L 290.535385 163.458535 
L 290.866539 163.458535 
L 290.866539 159.626139 
L 291.047104 159.626139 
L 291.047104 155.793743 
L 291.157614 155.793743 
L 291.157614 151.961347 
L 291.498565 151.961347 
L 291.498565 148.12895 
L 292.315103 148.12895 
L 292.315103 144.296554 
L 292.597824 144.296554 
L 292.597824 140.464158 
L 294.13601 140.464158 
L 294.13601 136.631762 
L 334.408642 136.631762 
L 334.408642 132.799366 
L 334.437182 132.799366 
L 334.437182 128.96697 
L 336.255523 128.96697 
L 336.255523 125.134574 
L 337.226356 125.134574 
L 337.226356 121.302178 
L 461.8 121.302178 
" clip-path="url(#p175b19f5b0)" style="fill: none; stroke: #f5deb3; stroke-width: 1.5; stroke-linecap: square"/>
   </g>
   <g id="line2d_8">
    <path d="M 272.481418 293.76 
L 272.481418 289.927604 
L 273.49752 289.927604 
L 273.500047 282.262812 
L 273.678916 282.262812 
L 273.678916 278.430416 
L 274.792793 278.430416 
L 274.792793 274.59802 
L 275.29398 274.59802 
L 275.29398 270.765624 
L 276.201835 270.765624 
L 276.201835 266.933228 
L 276.475107 266.933228 
L 276.475107 263.100832 
L 276.750686 263.100832 
L 276.750686 259.268436 
L 277.279214 259.268436 
L 277.279214 255.43604 
L 278.817473 255.43604 
L 278.817473 251.603644 
L 279.410935 251.603644 
L 279.410935 247.771248 
L 280.220777 247.771248 
L 280.220777 243.938851 
L 280.464559 243.938851 
L 280.464559 240.106455 
L 282.943699 240.106455 
L 282.943699 236.274059 
L 359.182714 236.274059 
L 359.182714 232.441663 
L 359.295703 232.441663 
L 359.295703 228.609267 
L 359.434303 228.609267 
L 359.491138 213.279683 
L 359.676392 213.279683 
L 359.676392 209.447287 
L 359.894845 209.447287 
L 359.99254 197.950099 
L 360.120923 197.950099 
L 360.149384 186.452911 
L 360.388543 186.452911 
L 360.388543 182.620515 
L 360.511865 182.620515 
L 360.511865 178.788119 
L 369.770897 178.788119 
L 369.770897 174.955723 
L 371.843916 174.955723 
L 371.843916 171.123327 
L 372.77261 171.123327 
L 372.873558 159.626139 
L 372.973474 159.626139 
L 372.973474 155.793743 
L 373.236526 155.793743 
L 373.236526 151.961347 
L 373.601275 151.961347 
L 373.601275 148.12895 
L 373.774754 148.12895 
L 373.838651 140.464158 
L 374.098911 140.464158 
L 374.189486 132.799366 
L 374.47439 132.799366 
L 374.47439 128.96697 
L 375.067038 128.96697 
L 375.14767 121.302178 
L 375.301856 121.302178 
L 375.301856 117.469782 
L 403.819301 117.469782 
L 403.819301 113.637386 
L 404.014427 113.637386 
L 404.058151 102.140198 
L 404.304005 102.140198 
L 404.304005 98.307802 
L 404.49951 98.307802 
L 404.579593 86.810614 
L 404.704302 86.810614 
L 404.704302 82.978218 
L 404.916258 82.978218 
L 404.916258 79.145822 
L 405.034609 79.145822 
L 405.034609 75.313426 
L 405.341745 75.313426 
L 405.341745 71.48103 
L 420.503294 71.48103 
L 420.549882 59.983842 
L 420.755058 59.983842 
L 420.755058 56.151446 
L 421.098735 56.151446 
L 421.194442 48.486653 
L 421.214202 48.486653 
L 421.214202 44.654257 
L 430.750047 44.654257 
L 430.750047 40.821861 
L 431.941797 40.821861 
L 431.941797 36.989465 
L 432.348599 36.989465 
L 432.348599 33.157069 
L 432.348599 33.157069 
L 460.8 33.157069 
L 460.8 33.157069 
" clip-path="url(#p175b19f5b0)" style="fill: none; stroke: #f5deb3; stroke-width: 1.5; stroke-linecap: square"/>
   </g>
   <g id="line2d_9">
    <path d="M 138.355313 293.76 
L 138.355313 289.927604 
L 139.446385 289.927604 
L 139.446385 286.095208 
L 141.524891 286.095208 
L 141.524891 282.262812 
L 142.095232 282.262812 
L 142.095232 278.430416 
L 142.236274 278.430416 
L 142.236274 274.59802 
L 142.655782 274.59802 
L 142.655782 270.765624 
L 143.478965 270.765624 
L 143.478965 266.933228 
L 143.614167 266.933228 
L 143.614167 263.100832 
L 144.413828 263.100832 
L 144.413828 259.268436 
L 146.946198 259.268436 
L 146.946198 255.43604 
L 147.54975 255.43604 
L 147.54975 251.603644 
L 149.858217 251.603644 
L 149.858217 247.771248 
L 150.629107 247.771248 
L 150.629107 243.938851 
L 152.014195 243.938851 
L 152.014195 240.106455 
L 153.141978 240.106455 
L 153.141978 236.274059 
L 219.701167 236.274059 
L 219.701167 232.441663 
L 221.413991 232.441663 
L 221.413991 228.609267 
L 221.625005 228.609267 
L 221.625005 224.776871 
L 221.932864 224.776871 
L 221.932864 220.944475 
L 222.067407 220.944475 
L 222.067407 217.112079 
L 222.612111 217.112079 
L 222.612111 213.279683 
L 222.648103 213.279683 
L 222.648103 209.447287 
L 222.958388 209.447287 
L 222.958388 205.614891 
L 223.206867 205.614891 
L 223.206867 201.782495 
L 223.535258 201.782495 
L 223.535258 197.950099 
L 223.698224 197.950099 
L 223.698224 194.117703 
L 223.975714 194.117703 
L 223.975714 190.285307 
L 224.398945 190.285307 
L 224.398945 186.452911 
L 224.444373 186.452911 
L 224.444373 182.620515 
L 226.457869 182.620515 
L 226.457869 178.788119 
L 285.605466 178.788119 
L 285.605466 174.955723 
L 285.645544 174.955723 
L 285.645544 171.123327 
L 286.428461 171.123327 
L 286.428461 167.290931 
L 286.518449 167.290931 
L 286.518449 163.458535 
L 286.59466 163.458535 
L 286.59466 159.626139 
L 287.003152 159.626139 
L 287.003152 155.793743 
L 287.028201 155.793743 
L 287.028201 151.961347 
L 287.355405 151.961347 
L 287.355405 148.12895 
L 287.414846 148.12895 
L 287.414846 144.296554 
L 287.595803 144.296554 
L 287.595803 140.464158 
L 288.375507 140.464158 
L 288.375507 136.631762 
L 288.404327 136.631762 
L 288.404327 132.799366 
L 288.514568 132.799366 
L 288.514568 128.96697 
L 288.718092 128.96697 
L 288.718092 125.134574 
L 288.843074 125.134574 
L 288.843074 121.302178 
L 288.843074 121.302178 
L 288.843074 121.302178 
L 460.8 121.302178 
" clip-path="url(#p175b19f5b0)" style="fill: none; stroke: #f5deb3; stroke-width: 1.5; stroke-linecap: square"/>
   </g>
   <g id="line2d_10">
    <path d="M 163.134267 293.76 
L 163.134267 289.927604 
L 164.156983 289.927604 
L 164.156983 286.095208 
L 168.651514 286.095208 
L 168.651514 282.262812 
L 168.651514 282.262812 
L 168.651514 278.430416 
L 171.066752 278.430416 
L 171.066752 274.59802 
L 174.854257 274.59802 
L 174.854257 270.765624 
L 177.443819 270.765624 
L 177.443819 266.933228 
L 266.090755 266.933228 
L 266.090755 263.100832 
L 266.169902 263.100832 
L 266.169902 259.268436 
L 266.286688 259.268436 
L 266.286688 255.43604 
L 266.409337 255.43604 
L 266.409337 251.603644 
L 266.418752 251.603644 
L 266.418752 247.771248 
L 266.852051 247.771248 
L 266.852051 243.938851 
L 267.215427 243.938851 
L 267.215427 240.106455 
L 288.665742 240.106455 
L 288.665742 236.274059 
L 404.273225 236.274059 
L 404.273225 232.441663 
L 405.091312 232.441663 
L 405.091312 228.609267 
L 406.142853 228.609267 
L 406.142853 224.776871 
L 407.705942 224.776871 
L 407.705942 220.944475 
L 407.788258 220.944475 
L 407.788258 217.112079 
L 409.028532 217.112079 
L 409.028532 213.279683 
L 409.32491 213.279683 
L 409.32491 209.447287 
L 409.331534 209.447287 
L 409.331534 205.614891 
L 410.008027 205.614891 
L 410.008027 201.782495 
L 411.464307 201.782495 
L 411.464307 197.950099 
L 411.866229 197.950099 
L 411.866229 194.117703 
L 411.931572 194.117703 
L 411.931572 190.285307 
L 412.673433 190.285307 
L 412.673433 186.452911 
L 413.026838 186.452911 
L 413.026838 182.620515 
L 413.319041 182.620515 
L 413.319041 178.788119 
L 413.435618 178.788119 
L 413.435618 174.955723 
L 413.630191 174.955723 
L 413.630191 171.123327 
L 413.647744 171.123327 
L 413.647744 167.290931 
L 413.904012 167.290931 
L 413.904012 163.458535 
L 414.105054 163.458535 
L 414.105054 159.626139 
L 415.25601 159.626139 
L 415.25601 155.793743 
L 415.286642 155.793743 
L 415.286642 151.961347 
L 415.678019 151.961347 
L 415.678019 148.12895 
L 416.09695 148.12895 
L 416.09695 144.296554 
L 416.216936 144.296554 
L 416.216936 140.464158 
L 416.361638 140.464158 
L 416.361638 136.631762 
L 418.75661 136.631762 
L 418.75661 132.799366 
L 419.152573 132.799366 
L 419.152573 128.96697 
L 419.509892 128.96697 
L 419.509892 125.134574 
L 419.700658 125.134574 
L 419.700658 121.302178 
L 419.735908 121.302178 
L 419.735908 117.469782 
L 420.115339 117.469782 
L 420.115339 113.637386 
L 420.916871 113.637386 
L 420.916871 109.80499 
L 421.029236 109.80499 
L 421.029236 105.972594 
L 421.890725 105.972594 
L 421.890725 102.140198 
L 422.538575 102.140198 
L 422.538575 98.307802 
L 423.118816 98.307802 
L 423.118816 94.475406 
L 423.684683 94.475406 
L 423.684683 90.64301 
L 425.554379 90.64301 
L 425.554379 86.810614 
L 425.697082 86.810614 
L 425.697082 82.978218 
L 427.035646 82.978218 
L 427.035646 79.145822 
L 427.062021 79.145822 
L 427.062021 75.313426 
L 428.863155 75.313426 
L 428.863155 71.48103 
L 428.863155 71.48103 
L 428.863155 71.48103 
L 460.8 71.48103 
" clip-path="url(#p175b19f5b0)" style="fill: none; stroke: #f5deb3; stroke-width: 1.5; stroke-linecap: square"/>
   </g>
   <g id="line2d_11">
    <path d="M 113.425203 293.76 
L 113.425203 289.927604 
L 118.458409 289.927604 
L 118.458409 286.095208 
L 119.321486 286.095208 
L 119.321486 282.262812 
L 119.884452 282.262812 
L 119.884452 278.430416 
L 120.711109 278.430416 
L 120.711109 274.59802 
L 121.517353 274.59802 
L 121.517353 270.765624 
L 123.574802 270.765624 
L 123.574802 266.933228 
L 125.744315 266.933228 
L 125.744315 263.100832 
L 125.976709 263.100832 
L 125.976709 259.268436 
L 127.337373 259.268436 
L 127.337373 255.43604 
L 130.104276 255.43604 
L 130.104276 251.603644 
L 133.030221 251.603644 
L 133.030221 247.771248 
L 133.216268 247.771248 
L 133.216268 243.938851 
L 138.827387 243.938851 
L 138.827387 240.106455 
L 143.614167 240.106455 
L 143.614167 236.274059 
L 199.666411 236.274059 
L 199.666411 232.441663 
L 200.123752 232.441663 
L 200.123752 228.609267 
L 200.879819 228.609267 
L 200.879819 224.776871 
L 200.949811 224.776871 
L 200.949811 220.944475 
L 201.778216 220.944475 
L 201.778216 217.112079 
L 201.959486 217.112079 
L 201.959486 213.279683 
L 202.630425 213.279683 
L 202.630425 209.447287 
L 202.938873 209.447287 
L 202.938873 205.614891 
L 203.004592 205.614891 
L 203.004592 201.782495 
L 203.654604 201.782495 
L 203.654604 197.950099 
L 203.889736 197.950099 
L 203.889736 194.117703 
L 204.059685 194.117703 
L 204.059685 190.285307 
L 204.522532 190.285307 
L 204.522532 186.452911 
L 205.081748 186.452911 
L 205.081748 182.620515 
L 205.651733 182.620515 
L 205.651733 178.788119 
L 205.651733 178.788119 
L 205.651733 178.788119 
L 460.8 178.788119 
" clip-path="url(#p175b19f5b0)" style="fill: none; stroke: #f5deb3; stroke-width: 1.5; stroke-linecap: square"/>
   </g>
   <g id="line2d_12">
    <path d="M 87.201449 293.76 
L 87.201449 289.927604 
L 87.201449 289.927604 
L 87.201449 286.095208 
L 87.201449 286.095208 
L 87.201449 282.262812 
L 87.201449 282.262812 
L 87.201449 278.430416 
L 87.201449 278.430416 
L 87.201449 274.59802 
L 87.201449 274.59802 
L 87.201449 270.765624 
L 87.201449 270.765624 
L 87.201449 266.933228 
L 87.201449 266.933228 
L 87.201449 263.100832 
L 87.201449 263.100832 
L 87.201449 259.268436 
L 87.201449 259.268436 
L 87.201449 255.43604 
L 87.201449 255.43604 
L 87.201449 251.603644 
L 87.201449 251.603644 
L 87.201449 247.771248 
L 87.201449 247.771248 
L 87.201449 243.938851 
L 87.201449 243.938851 
L 87.201449 240.106455 
L 87.201449 240.106455 
L 87.201449 236.274059 
L 109.451651 236.274059 
L 109.451651 232.441663 
L 116.66064 232.441663 
L 116.66064 228.609267 
L 116.66064 228.609267 
L 116.66064 224.776871 
L 116.66064 224.776871 
L 116.66064 220.944475 
L 116.66064 220.944475 
L 116.66064 217.112079 
L 116.66064 217.112079 
L 116.66064 213.279683 
L 116.66064 213.279683 
L 116.66064 209.447287 
L 116.66064 209.447287 
L 116.66064 205.614891 
L 116.66064 205.614891 
L 116.66064 201.782495 
L 116.66064 201.782495 
L 116.66064 197.950099 
L 122.56228 197.950099 
L 122.56228 194.117703 
L 122.56228 194.117703 
L 122.56228 190.285307 
L 122.56228 190.285307 
L 122.56228 186.452911 
L 122.56228 186.452911 
L 122.56228 182.620515 
L 131.89111 182.620515 
L 131.89111 178.788119 
L 261.026366 178.788119 
L 261.026366 174.955723 
L 262.172012 174.955723 
L 262.172012 171.123327 
L 263.996382 171.123327 
L 263.996382 167.290931 
L 268.293759 167.290931 
L 268.293759 163.458535 
L 268.370704 163.458535 
L 268.370704 159.626139 
L 268.866473 159.626139 
L 268.866473 155.793743 
L 269.520758 155.793743 
L 269.520758 151.961347 
L 269.651762 151.961347 
L 269.651762 148.12895 
L 269.830332 148.12895 
L 269.830332 144.296554 
L 269.996682 144.296554 
L 269.996682 140.464158 
L 270.125794 140.464158 
L 270.125794 136.631762 
L 270.184567 136.631762 
L 270.184567 132.799366 
L 270.243235 132.799366 
L 270.243235 128.96697 
L 270.301797 128.96697 
L 270.301797 125.134574 
L 272.397911 125.134574 
L 272.397911 121.302178 
L 272.397911 121.302178 
L 272.397911 121.302178 
L 460.8 121.302178 
" clip-path="url(#p175b19f5b0)" style="fill: none; stroke: #f5deb3; stroke-width: 1.5; stroke-linecap: square"/>
   </g>
   <g id="line2d_13">
    <path d="M 210.167716 293.76 
L 210.167716 289.927604 
L 210.167716 289.927604 
L 210.167716 286.095208 
L 210.690704 286.095208 
L 210.690704 282.262812 
L 210.690704 282.262812 
L 210.690704 278.430416 
L 211.476695 278.430416 
L 211.476695 274.59802 
L 211.561 274.59802 
L 211.561 270.765624 
L 211.561 270.765624 
L 211.561 266.933228 
L 211.561 266.933228 
L 211.561 263.100832 
L 212.012522 263.100832 
L 212.012522 259.268436 
L 213.346738 259.268436 
L 213.346738 255.43604 
L 213.346738 255.43604 
L 213.346738 251.603644 
L 213.346738 251.603644 
L 213.346738 247.771248 
L 213.410447 247.771248 
L 213.410447 243.938851 
L 213.410447 243.938851 
L 213.410447 240.106455 
L 213.410447 240.106455 
L 213.410447 236.274059 
L 213.410447 236.274059 
L 213.410447 236.274059 
L 460.8 236.274059 
" clip-path="url(#p175b19f5b0)" style="fill: none; stroke: #f5deb3; stroke-width: 1.5; stroke-linecap: square"/>
   </g>
   <g id="line2d_14">
    <path d="M 130.307711 293.76 
L 130.307711 289.927604 
L 131.306297 289.927604 
L 131.306297 286.095208 
L 131.89111 286.095208 
L 131.89111 282.262812 
L 132.654916 282.262812 
L 132.654916 278.430416 
L 132.843108 278.430416 
L 132.843108 274.59802 
L 132.843108 274.59802 
L 132.843108 270.765624 
L 133.030221 270.765624 
L 133.030221 266.933228 
L 133.216268 266.933228 
L 133.216268 263.100832 
L 133.585212 263.100832 
L 133.585212 259.268436 
L 133.585212 259.268436 
L 133.585212 255.43604 
L 133.585212 255.43604 
L 133.585212 251.603644 
L 133.585212 251.603644 
L 133.585212 247.771248 
L 133.768133 247.771248 
L 133.768133 243.938851 
L 133.950034 243.938851 
L 133.950034 240.106455 
L 133.950034 240.106455 
L 133.950034 236.274059 
L 179.887463 236.274059 
L 179.887463 232.441663 
L 180.547106 232.441663 
L 180.547106 228.609267 
L 181.491096 228.609267 
L 181.491096 224.776871 
L 181.827709 224.776871 
L 181.827709 220.944475 
L 182.119426 220.944475 
L 182.119426 217.112079 
L 183.659098 217.112079 
L 183.659098 213.279683 
L 183.777614 213.279683 
L 183.777614 209.447287 
L 183.856387 209.447287 
L 183.856387 205.614891 
L 184.16959 205.614891 
L 184.16959 201.782495 
L 184.633833 201.782495 
L 184.633833 197.950099 
L 184.74887 197.950099 
L 184.74887 194.117703 
L 184.825336 194.117703 
L 184.825336 190.285307 
L 185.617606 190.285307 
L 185.617606 186.452911 
L 185.840482 186.452911 
L 185.840482 182.620515 
L 185.988225 182.620515 
L 185.988225 178.788119 
L 191.688443 178.788119 
L 191.688443 174.955723 
L 193.640591 174.955723 
L 193.640591 171.123327 
L 193.872985 171.123327 
L 193.872985 167.290931 
L 194.8145 167.290931 
L 194.8145 163.458535 
L 195.066634 163.458535 
L 195.066634 159.626139 
L 195.372177 159.626139 
L 195.372177 155.793743 
L 195.893291 155.793743 
L 195.893291 151.961347 
L 196.459745 151.961347 
L 196.459745 148.12895 
L 196.699535 148.12895 
L 196.699535 144.296554 
L 198.000552 144.296554 
L 198.000552 140.464158 
L 202.049745 140.464158 
L 202.049745 136.631762 
L 203.590182 136.631762 
L 203.590182 132.799366 
L 205.892999 132.799366 
L 205.892999 128.96697 
L 360.864104 128.96697 
L 360.864104 125.134574 
L 360.864104 125.134574 
L 360.864104 125.134574 
L 460.8 125.134574 
" clip-path="url(#p175b19f5b0)" style="fill: none; stroke: #f5deb3; stroke-width: 1.5; stroke-linecap: square"/>
   </g>
   <g id="line2d_15"/>
   <g id="line2d_16">
    <path d="M 217.036236 293.76 
L 217.036236 289.927604 
L 217.305672 289.927604 
L 217.305672 286.095208 
L 217.921223 286.095208 
L 217.921223 282.262812 
L 218.197228 282.262812 
L 218.197228 278.430416 
L 220.632644 278.430416 
L 220.632644 274.59802 
L 222.696032 274.59802 
L 222.696032 270.765624 
L 224.010235 270.765624 
L 224.010235 266.933228 
L 225.018104 266.933228 
L 225.018104 263.100832 
L 225.505114 263.100832 
L 225.505114 259.268436 
L 225.669493 259.268436 
L 225.669493 255.43604 
L 226.286696 255.43604 
L 226.286696 251.603644 
L 226.521828 251.603644 
L 226.521828 247.771248 
L 228.635079 247.771248 
L 228.635079 243.938851 
L 229.277548 243.938851 
L 229.277548 240.106455 
L 235.72274 240.106455 
L 235.72274 236.274059 
L 272.214491 236.274059 
L 272.214491 232.441663 
L 272.632232 232.441663 
L 272.632232 228.609267 
L 274.55641 228.609267 
L 274.55641 224.776871 
L 275.145391 224.776871 
L 275.145391 220.944475 
L 275.282022 220.944475 
L 275.282022 217.112079 
L 275.674341 217.112079 
L 275.674341 213.279683 
L 276.403537 213.279683 
L 276.403537 209.447287 
L 277.114542 209.447287 
L 277.114542 205.614891 
L 277.688407 205.614891 
L 277.688407 201.782495 
L 278.101314 201.782495 
L 278.101314 197.950099 
L 279.63989 197.950099 
L 279.63989 194.117703 
L 280.154911 194.117703 
L 280.154911 190.285307 
L 281.081191 190.285307 
L 281.081191 186.452911 
L 281.550457 186.452911 
L 281.649017 178.788119 
L 286.894384 178.788119 
L 286.894384 174.955723 
L 287.45606 174.955723 
L 287.45606 171.123327 
L 288.321 171.123327 
L 288.321 167.290931 
L 288.627617 167.290931 
L 288.627617 163.458535 
L 288.926656 163.458535 
L 288.926656 159.626139 
L 289.061825 159.626139 
L 289.169872 151.961347 
L 289.232344 151.961347 
L 289.232344 148.12895 
L 289.539835 148.12895 
L 289.539835 144.296554 
L 289.904124 144.296554 
L 289.904124 140.464158 
L 290.336878 140.464158 
L 290.422745 132.799366 
L 290.943623 132.799366 
L 290.943623 128.96697 
L 291.07956 128.96697 
L 291.07956 125.134574 
L 291.553834 125.134574 
L 291.553834 121.302178 
L 294.170902 121.302178 
L 294.170902 117.469782 
L 320.137613 117.469782 
L 320.137613 113.637386 
L 323.122139 113.637386 
L 323.122139 109.80499 
L 328.258919 109.80499 
L 328.258919 105.972594 
L 329.309464 105.972594 
L 329.309464 102.140198 
L 339.481328 102.140198 
L 339.481328 98.307802 
L 359.471902 98.307802 
L 359.471902 94.475406 
L 368.173694 94.475406 
L 368.173694 90.64301 
L 374.296876 90.64301 
L 374.296876 86.810614 
L 375.076382 86.810614 
L 375.076382 82.978218 
L 381.554064 82.978218 
L 381.554064 79.145822 
L 382.865292 79.145822 
L 382.865292 75.313426 
L 383.709722 75.313426 
L 383.709722 71.48103 
L 394.399986 71.48103 
L 394.399986 67.648634 
L 394.760234 67.648634 
L 394.760234 63.816238 
L 412.330587 63.816238 
L 412.330587 59.983842 
L 416.544699 59.983842 
L 416.544699 56.151446 
L 421.743735 56.151446 
L 421.743735 52.31905 
L 424.868931 52.31905 
L 424.868931 48.486653 
L 430.668026 48.486653 
L 430.668026 44.654257 
L 449.773944 44.654257 
L 449.773944 40.821861 
L 450.825075 40.821861 
L 450.825075 36.989465 
L 461.8 36.989465 
L 461.8 36.989465 
" clip-path="url(#p175b19f5b0)" style="fill: none; stroke: #f5deb3; stroke-width: 1.5; stroke-linecap: square"/>
   </g>
   <g id="line2d_17">
    <path d="M 232.896318 293.76 
L 232.896318 289.927604 
L 236.672891 289.927604 
L 236.672891 286.095208 
L 236.672891 286.095208 
L 236.672891 282.262812 
L 236.750836 282.262812 
L 236.750836 278.430416 
L 238.360943 278.430416 
L 238.360943 274.59802 
L 246.272207 274.59802 
L 246.272207 270.765624 
L 249.86496 270.765624 
L 249.86496 266.933228 
L 252.31815 266.933228 
L 252.31815 263.100832 
L 253.303544 263.100832 
L 253.303544 259.268436 
L 253.499901 259.268436 
L 253.499901 255.43604 
L 257.726164 255.43604 
L 257.726164 251.603644 
L 259.269847 251.603644 
L 259.269847 247.771248 
L 261.313816 247.771248 
L 261.313816 243.938851 
L 267.556626 243.938851 
L 267.556626 240.106455 
L 270.535001 240.106455 
L 270.535001 236.274059 
L 377.921967 236.274059 
L 377.921967 232.441663 
L 378.206605 232.441663 
L 378.206605 228.609267 
L 378.301989 228.609267 
L 378.301989 224.776871 
L 379.762858 224.776871 
L 379.762858 220.944475 
L 380.299045 220.944475 
L 380.299045 217.112079 
L 380.944907 217.112079 
L 380.944907 213.279683 
L 381.11684 213.279683 
L 381.11684 209.447287 
L 381.573904 209.447287 
L 381.573904 205.614891 
L 383.742714 205.614891 
L 383.742714 201.782495 
L 383.791967 201.782495 
L 383.791967 197.950099 
L 384.615415 197.950099 
L 384.615415 194.117703 
L 385.882637 194.117703 
L 385.882637 190.285307 
L 386.391067 190.285307 
L 386.391067 186.452911 
L 387.641422 186.452911 
L 387.641422 182.620515 
L 387.835732 182.620515 
L 387.835732 178.788119 
L 388.858058 178.788119 
L 388.858058 174.955723 
L 389.04807 174.955723 
L 389.04807 171.123327 
L 389.689215 171.123327 
L 389.689215 167.290931 
L 390.386824 167.290931 
L 390.386824 163.458535 
L 390.580773 163.458535 
L 390.580773 159.626139 
L 391.161649 159.626139 
L 391.161649 155.793743 
L 391.977664 155.793743 
L 391.977664 151.961347 
L 392.067027 151.961347 
L 392.067027 148.12895 
L 393.234658 148.12895 
L 393.234658 144.296554 
L 394.490918 144.296554 
L 394.490918 140.464158 
L 395.811585 140.464158 
L 395.811585 136.631762 
L 397.217227 136.631762 
L 397.217227 132.799366 
L 398.218715 132.799366 
L 398.218715 128.96697 
L 398.864944 128.96697 
L 398.864944 125.134574 
L 398.914233 125.134574 
L 398.914233 121.302178 
L 398.914233 121.302178 
L 398.914233 121.302178 
L 460.8 121.302178 
" clip-path="url(#p175b19f5b0)" style="fill: none; stroke: #f5deb3; stroke-width: 1.5; stroke-linecap: square"/>
   </g>
   <g id="line2d_18">
    <path d="M 87.201449 293.76 
L 87.201449 289.927604 
L 87.201449 289.927604 
L 87.201449 286.095208 
L 87.201449 286.095208 
L 87.201449 282.262812 
L 87.201449 282.262812 
L 87.201449 278.430416 
L 87.201449 278.430416 
L 87.201449 274.59802 
L 87.201449 274.59802 
L 87.201449 270.765624 
L 87.201449 270.765624 
L 87.201449 266.933228 
L 87.201449 266.933228 
L 87.201449 263.100832 
L 87.952084 263.100832 
L 87.952084 259.268436 
L 87.952084 259.268436 
L 87.952084 255.43604 
L 87.952084 255.43604 
L 87.952084 251.603644 
L 87.952084 251.603644 
L 87.952084 247.771248 
L 87.952084 247.771248 
L 87.952084 243.938851 
L 87.952084 243.938851 
L 87.952084 240.106455 
L 89.403488 240.106455 
L 89.403488 236.274059 
L 90.105692 236.274059 
L 90.105692 232.441663 
L 90.105692 232.441663 
L 90.105692 228.609267 
L 92.125998 228.609267 
L 92.125998 224.776871 
L 92.772578 224.776871 
L 92.772578 220.944475 
L 94.028548 220.944475 
L 94.028548 217.112079 
L 97.530244 217.112079 
L 97.530244 213.279683 
L 98.079017 213.279683 
L 98.079017 209.447287 
L 98.079017 209.447287 
L 98.079017 205.614891 
L 99.672075 205.614891 
L 99.672075 201.782495 
L 106.224215 201.782495 
L 106.224215 197.950099 
L 106.645527 197.950099 
L 106.645527 194.117703 
L 106.645527 194.117703 
L 106.645527 190.285307 
L 109.065242 190.285307 
L 109.065242 186.452911 
L 109.833541 186.452911 
L 109.833541 182.620515 
L 110.95312 182.620515 
L 110.95312 178.788119 
L 327.419523 178.788119 
L 327.419523 174.955723 
L 328.907832 174.955723 
L 328.907832 171.123327 
L 332.446845 171.123327 
L 332.446845 167.290931 
L 333.416278 167.290931 
L 333.416278 163.458535 
L 334.27028 163.458535 
L 334.27028 159.626139 
L 337.89331 159.626139 
L 337.89331 155.793743 
L 338.275993 155.793743 
L 338.275993 151.961347 
L 338.487938 151.961347 
L 338.487938 148.12895 
L 339.649658 148.12895 
L 339.649658 144.296554 
L 343.558502 144.296554 
L 343.558502 140.464158 
L 344.040211 140.464158 
L 344.040211 136.631762 
L 349.962832 136.631762 
L 349.962832 132.799366 
L 364.60092 132.799366 
L 364.60092 128.96697 
L 369.039463 128.96697 
L 369.039463 125.134574 
L 376.6739 125.134574 
L 376.6739 121.302178 
L 376.6739 121.302178 
L 376.6739 121.302178 
L 460.8 121.302178 
" clip-path="url(#p175b19f5b0)" style="fill: none; stroke: #f5deb3; stroke-width: 1.5; stroke-linecap: square"/>
   </g>
   <g id="line2d_19">
    <path d="M 263.091726 293.76 
L 263.091726 289.927604 
L 267.221551 289.927604 
L 267.221551 286.095208 
L 269.213984 286.095208 
L 269.213984 282.262812 
L 270.134197 282.262812 
L 270.134197 278.430416 
L 271.031909 278.430416 
L 271.031909 274.59802 
L 271.801983 274.59802 
L 271.801983 270.765624 
L 275.020244 270.765624 
L 275.020244 266.933228 
L 275.025067 266.933228 
L 275.025067 263.100832 
L 276.548823 263.100832 
L 276.548823 259.268436 
L 277.26571 259.268436 
L 277.26571 255.43604 
L 277.281464 255.43604 
L 277.281464 251.603644 
L 277.285963 251.603644 
L 277.285963 247.771248 
L 277.290462 247.771248 
L 277.290462 243.938851 
L 278.647453 243.938851 
L 278.647453 240.106455 
L 285.017837 240.106455 
L 285.017837 236.274059 
L 335.607095 236.274059 
L 335.607095 232.441663 
L 335.951765 232.441663 
L 335.951765 228.609267 
L 336.439813 228.609267 
L 336.439813 224.776871 
L 336.455981 224.776871 
L 336.455981 220.944475 
L 336.810388 220.944475 
L 336.810388 217.112079 
L 337.255405 217.112079 
L 337.255405 213.279683 
L 337.381701 213.279683 
L 337.381701 209.447287 
L 337.716712 209.447287 
L 337.716712 205.614891 
L 337.934414 205.614891 
L 337.934414 201.782495 
L 338.372092 201.782495 
L 338.372092 197.950099 
L 338.49208 197.950099 
L 338.49208 194.117703 
L 338.619536 194.117703 
L 338.619536 190.285307 
L 338.730054 190.285307 
L 338.730054 186.452911 
L 338.925801 186.452911 
L 338.925801 182.620515 
L 340.315083 182.620515 
L 340.315083 178.788119 
L 358.282141 178.788119 
L 358.282141 174.955723 
L 360.33873 174.955723 
L 360.33873 171.123327 
L 360.99379 171.123327 
L 360.99379 167.290931 
L 361.3666 167.290931 
L 361.3666 163.458535 
L 362.291742 163.458535 
L 362.291742 159.626139 
L 362.297237 159.626139 
L 362.297237 155.793743 
L 362.975724 155.793743 
L 362.975724 151.961347 
L 363.075527 151.961347 
L 363.075527 148.12895 
L 363.535257 148.12895 
L 363.535257 144.296554 
L 363.80344 144.296554 
L 363.80344 140.464158 
L 364.004565 140.464158 
L 364.004565 136.631762 
L 365.042714 136.631762 
L 365.042714 132.799366 
L 365.339519 132.799366 
L 365.339519 128.96697 
L 365.918748 128.96697 
L 365.918748 125.134574 
L 366.856847 125.134574 
L 366.856847 121.302178 
L 366.856847 121.302178 
L 366.856847 121.302178 
L 460.8 121.302178 
" clip-path="url(#p175b19f5b0)" style="fill: none; stroke: #f5deb3; stroke-width: 1.5; stroke-linecap: square"/>
   </g>
   <g id="line2d_20">
    <path d="M 128.856307 293.76 
L 128.856307 289.927604 
L 133.030221 289.927604 
L 133.030221 286.095208 
L 133.401261 286.095208 
L 133.401261 282.262812 
L 135.886792 282.262812 
L 135.886792 278.430416 
L 140.650253 278.430416 
L 140.650253 274.59802 
L 142.516544 274.59802 
L 142.516544 270.765624 
L 143.343201 270.765624 
L 143.343201 266.933228 
L 143.748811 266.933228 
L 143.748811 263.100832 
L 147.429929 263.100832 
L 147.429929 259.268436 
L 148.954319 259.268436 
L 148.954319 255.43604 
L 149.969465 255.43604 
L 149.969465 251.603644 
L 151.488399 251.603644 
L 151.488399 247.771248 
L 152.939803 247.771248 
L 152.939803 243.938851 
L 155.192503 243.938851 
L 155.192503 240.106455 
L 160.748783 240.106455 
L 160.748783 236.274059 
L 204.896404 236.274059 
L 204.896404 232.441663 
L 205.651733 232.441663 
L 205.651733 228.609267 
L 207.073292 228.609267 
L 207.073292 224.776871 
L 207.400095 224.776871 
L 207.400095 220.944475 
L 209.582585 220.944475 
L 209.582585 217.112079 
L 210.931928 217.112079 
L 210.931928 213.279683 
L 210.931928 213.279683 
L 210.931928 209.447287 
L 211.103146 209.447287 
L 211.103146 205.614891 
L 211.103146 205.614891 
L 211.103146 201.782495 
L 211.18842 201.782495 
L 211.18842 197.950099 
L 211.442912 197.950099 
L 211.442912 194.117703 
L 213.186917 194.117703 
L 213.186917 190.285307 
L 213.553341 190.285307 
L 213.553341 186.452911 
L 214.521086 186.452911 
L 214.521086 182.620515 
L 219.225271 182.620515 
L 219.225271 178.788119 
L 269.600562 178.788119 
L 269.600562 174.955723 
L 269.82185 174.955723 
L 269.82185 171.123327 
L 272.431861 171.123327 
L 272.431861 167.290931 
L 275.420466 167.290931 
L 275.420466 163.458535 
L 276.083015 163.458535 
L 276.083015 159.626139 
L 276.143644 159.626139 
L 276.143644 155.793743 
L 276.227407 155.793743 
L 276.227407 151.961347 
L 276.373477 151.961347 
L 276.373477 148.12895 
L 278.296012 148.12895 
L 278.296012 144.296554 
L 309.091143 144.296554 
L 309.091143 140.464158 
L 313.14723 140.464158 
L 313.14723 136.631762 
L 315.526951 136.631762 
L 315.526951 132.799366 
L 319.272443 132.799366 
L 319.272443 128.96697 
L 324.305205 128.96697 
L 324.305205 125.134574 
L 356.616349 125.134574 
L 356.616349 121.302178 
L 356.616349 121.302178 
L 356.616349 121.302178 
L 460.8 121.302178 
" clip-path="url(#p175b19f5b0)" style="fill: none; stroke: #f5deb3; stroke-width: 1.5; stroke-linecap: square"/>
   </g>
   <g id="line2d_21">
    <path d="M 251.366839 293.76 
L 251.466203 255.43604 
L 251.728067 255.43604 
L 251.728067 251.603644 
L 252.206803 251.603644 
L 252.206803 247.771248 
L 255.184942 247.771248 
L 255.184942 243.938851 
L 256.166056 243.938851 
L 256.239001 128.96697 
L 256.341704 128.96697 
L 256.448345 56.151446 
L 256.456861 56.151446 
L 256.469632 48.486653 
L 257.114375 48.486653 
L 257.114375 44.654257 
L 257.293309 44.654257 
L 257.293309 40.821861 
L 257.450625 40.821861 
L 257.450625 36.989465 
L 258.694515 36.989465 
L 258.694515 33.157069 
L 262.19702 33.157069 
L 262.19702 29.324673 
L 262.19702 29.324673 
L 460.8 29.324673 
L 460.8 29.324673 
" clip-path="url(#p175b19f5b0)" style="fill: none; stroke: #f5deb3; stroke-width: 1.5; stroke-linecap: square"/>
   </g>
   <g id="line2d_22">
    <path d="M 144.281904 293.76 
L 144.281904 289.927604 
L 146.701619 289.927604 
L 146.701619 286.095208 
L 149.969465 286.095208 
L 149.969465 282.262812 
L 151.909711 282.262812 
L 151.909711 278.430416 
L 154.232105 278.430416 
L 154.232105 274.59802 
L 156.400225 274.59802 
L 156.400225 270.765624 
L 156.491302 270.765624 
L 156.491302 266.933228 
L 156.942917 266.933228 
L 156.942917 263.100832 
L 157.740408 263.100832 
L 157.740408 259.268436 
L 158.001968 259.268436 
L 158.001968 255.43604 
L 160.347164 255.43604 
L 160.347164 251.603644 
L 160.508405 251.603644 
L 160.508405 247.771248 
L 161.066559 247.771248 
L 161.066559 243.938851 
L 163.868032 243.938851 
L 163.868032 240.106455 
L 174.750437 240.106455 
L 174.750437 236.274059 
L 207.609826 236.274059 
L 207.609826 232.441663 
L 213.442256 232.441663 
L 213.442256 228.609267 
L 213.442256 228.609267 
L 213.442256 224.776871 
L 213.962667 224.776871 
L 213.962667 220.944475 
L 214.459509 220.944475 
L 214.459509 217.112079 
L 214.96408 217.112079 
L 214.96408 213.279683 
L 216.936407 213.279683 
L 216.936407 209.447287 
L 217.107356 209.447287 
L 217.107356 205.614891 
L 217.291546 205.614891 
L 217.291546 201.782495 
L 217.768419 201.782495 
L 217.768419 197.950099 
L 218.823322 197.950099 
L 218.823322 194.117703 
L 221.364142 194.117703 
L 221.364142 190.285307 
L 221.600251 190.285307 
L 221.600251 186.452911 
L 223.076947 186.452911 
L 223.076947 182.620515 
L 225.051541 182.620515 
L 225.051541 178.788119 
L 235.513179 178.788119 
L 235.513179 174.955723 
L 236.960363 174.955723 
L 236.960363 171.123327 
L 240.015345 171.123327 
L 240.015345 167.290931 
L 240.253984 167.290931 
L 240.253984 163.458535 
L 240.504773 163.458535 
L 240.504773 159.626139 
L 242.063114 159.626139 
L 242.063114 155.793743 
L 242.27415 155.793743 
L 242.27415 151.961347 
L 242.698664 151.961347 
L 242.698664 148.12895 
L 242.802319 148.12895 
L 242.802319 144.296554 
L 242.866937 144.296554 
L 242.866937 140.464158 
L 242.989359 140.464158 
L 242.989359 136.631762 
L 243.360254 136.631762 
L 243.360254 132.799366 
L 244.930594 132.799366 
L 244.930594 128.96697 
L 246.71126 128.96697 
L 246.71126 125.134574 
L 248.983083 125.134574 
L 248.983083 121.302178 
L 248.983083 121.302178 
L 248.983083 121.302178 
L 460.8 121.302178 
" clip-path="url(#p175b19f5b0)" style="fill: none; stroke: #f5deb3; stroke-width: 1.5; stroke-linecap: square"/>
   </g>
   <g id="line2d_23">
    <path d="M 177.53943 293.76 
L 177.53943 289.927604 
L 183.100262 289.927604 
L 183.100262 286.095208 
L 184.286271 286.095208 
L 184.286271 282.262812 
L 184.863503 282.262812 
L 184.863503 278.430416 
L 185.840482 278.430416 
L 185.840482 274.59802 
L 187.394734 274.59802 
L 187.394734 270.765624 
L 188.641379 270.765624 
L 188.641379 266.933228 
L 195.920489 266.933228 
L 195.920489 263.100832 
L 289.111978 263.100832 
L 289.111978 259.268436 
L 290.756527 259.268436 
L 290.756527 255.43604 
L 290.82347 255.43604 
L 290.82347 251.603644 
L 291.313166 251.603644 
L 291.313166 247.771248 
L 292.145715 247.771248 
L 292.145715 243.938851 
L 292.263953 243.938851 
L 292.263953 240.106455 
L 293.14357 240.106455 
L 293.14357 236.274059 
L 293.169859 236.274059 
L 293.169859 232.441663 
L 293.383532 232.441663 
L 293.383532 228.609267 
L 293.497378 228.609267 
L 293.497378 224.776871 
L 293.866353 224.776871 
L 293.866353 220.944475 
L 294.117206 220.944475 
L 294.117206 217.112079 
L 295.844148 217.112079 
L 295.844148 213.279683 
L 297.022993 213.279683 
L 297.022993 209.447287 
L 303.884072 209.447287 
L 303.884072 205.614891 
L 304.860507 205.614891 
L 304.860507 201.782495 
L 305.585248 201.782495 
L 305.585248 197.950099 
L 305.950091 197.950099 
L 305.950091 194.117703 
L 306.630243 194.117703 
L 306.630243 190.285307 
L 308.049577 190.285307 
L 308.049577 186.452911 
L 308.089012 186.452911 
L 308.089012 182.620515 
L 308.97884 182.620515 
L 308.97884 178.788119 
L 308.97884 178.788119 
L 308.97884 178.788119 
L 460.8 178.788119 
" clip-path="url(#p175b19f5b0)" style="fill: none; stroke: #f5deb3; stroke-width: 1.5; stroke-linecap: square"/>
   </g>
   <g id="line2d_24">
    <path d="M 213.058496 293.76 
L 213.058496 289.927604 
L 217.277414 289.927604 
L 217.277414 286.095208 
L 224.04472 286.095208 
L 224.04472 282.262812 
L 224.079168 282.262812 
L 224.079168 278.430416 
L 224.090643 278.430416 
L 224.090643 274.59802 
L 225.984967 274.59802 
L 225.984967 270.765624 
L 227.185944 270.765624 
L 227.185944 266.933228 
L 227.248494 266.933228 
L 227.248494 263.100832 
L 229.993909 263.100832 
L 229.993909 259.268436 
L 230.156282 259.268436 
L 230.156282 255.43604 
L 232.605927 255.43604 
L 232.605927 251.603644 
L 232.667741 251.603644 
L 232.667741 247.771248 
L 235.032586 247.771248 
L 235.032586 243.938851 
L 237.283645 243.938851 
L 237.283645 240.106455 
L 237.314268 240.106455 
L 237.314268 236.274059 
L 289.247944 236.274059 
L 289.247944 232.441663 
L 290.714804 232.441663 
L 290.714804 228.609267 
L 291.488373 228.609267 
L 291.488373 224.776871 
L 293.480943 224.776871 
L 293.480943 220.944475 
L 294.284714 220.944475 
L 294.284714 217.112079 
L 294.750533 217.112079 
L 294.750533 213.279683 
L 295.527871 213.279683 
L 295.527871 209.447287 
L 295.825028 209.447287 
L 295.825028 205.614891 
L 296.487654 205.614891 
L 296.487654 201.782495 
L 297.418814 201.782495 
L 297.418814 197.950099 
L 297.550905 197.950099 
L 297.550905 194.117703 
L 297.573875 194.117703 
L 297.573875 190.285307 
L 297.666801 190.285307 
L 297.666801 186.452911 
L 299.003255 186.452911 
L 299.003255 182.620515 
L 302.009283 182.620515 
L 302.009283 178.788119 
L 302.785972 178.788119 
L 302.785972 174.955723 
L 303.77431 174.955723 
L 303.77431 171.123327 
L 304.685043 171.123327 
L 304.685043 167.290931 
L 305.24496 167.290931 
L 305.24496 163.458535 
L 306.521079 163.458535 
L 306.521079 159.626139 
L 306.97097 159.626139 
L 306.97097 155.793743 
L 307.285746 155.793743 
L 307.285746 151.961347 
L 307.781921 151.961347 
L 307.781921 148.12895 
L 308.745344 148.12895 
L 308.745344 144.296554 
L 309.286748 144.296554 
L 309.286748 140.464158 
L 309.741985 140.464158 
L 309.741985 136.631762 
L 310.680803 136.631762 
L 310.680803 132.799366 
L 313.869776 132.799366 
L 313.869776 128.96697 
L 314.790649 128.96697 
L 314.790649 125.134574 
L 315.53741 125.134574 
L 315.53741 121.302178 
L 315.53741 121.302178 
L 315.53741 121.302178 
L 460.8 121.302178 
" clip-path="url(#p175b19f5b0)" style="fill: none; stroke: #f5deb3; stroke-width: 1.5; stroke-linecap: square"/>
   </g>
   <g id="line2d_25">
    <path d="M 181.150976 293.76 
L 181.150976 289.927604 
L 183.140497 289.927604 
L 183.140497 286.095208 
L 183.54015 286.095208 
L 183.54015 282.262812 
L 184.16959 282.262812 
L 184.16959 278.430416 
L 191.564412 278.430416 
L 191.564412 274.59802 
L 192.392622 274.59802 
L 192.392622 270.765624 
L 192.57385 270.765624 
L 192.57385 266.933228 
L 194.898761 266.933228 
L 194.898761 263.100832 
L 199.349761 263.100832 
L 199.349761 259.268436 
L 202.363701 259.268436 
L 202.363701 255.43604 
L 203.048331 255.43604 
L 203.048331 251.603644 
L 206.211939 251.603644 
L 206.211939 247.771248 
L 206.723663 247.771248 
L 206.723663 243.938851 
L 208.785733 243.938851 
L 208.785733 240.106455 
L 253.181396 240.106455 
L 253.181396 236.274059 
L 370.57454 236.274059 
L 370.57454 232.441663 
L 370.596239 232.441663 
L 370.596239 228.609267 
L 371.244649 228.609267 
L 371.244649 224.776871 
L 371.332883 224.776871 
L 371.332883 220.944475 
L 371.377793 220.944475 
L 371.377793 217.112079 
L 371.384978 217.112079 
L 371.384978 213.279683 
L 371.475096 213.279683 
L 371.475096 209.447287 
L 371.499596 209.447287 
L 371.499596 205.614891 
L 371.759796 205.614891 
L 371.759796 201.782495 
L 371.968206 201.782495 
L 371.968206 197.950099 
L 371.979223 197.950099 
L 371.979223 194.117703 
L 371.987019 194.117703 
L 371.987019 190.285307 
L 372.038205 190.285307 
L 372.038205 186.452911 
L 372.376798 186.452911 
L 372.376798 182.620515 
L 372.881144 182.620515 
L 372.881144 178.788119 
L 382.318044 178.788119 
L 382.318044 174.955723 
L 382.438743 174.955723 
L 382.438743 171.123327 
L 382.688886 171.123327 
L 382.688886 167.290931 
L 382.719809 167.290931 
L 382.719809 163.458535 
L 382.727022 163.458535 
L 382.727022 159.626139 
L 382.746608 159.626139 
L 382.746608 155.793743 
L 382.806359 155.793743 
L 382.806359 151.961347 
L 382.845334 151.961347 
L 382.845334 148.12895 
L 383.218341 148.12895 
L 383.218341 144.296554 
L 383.243507 144.296554 
L 383.243507 140.464158 
L 383.336463 140.464158 
L 383.336463 136.631762 
L 383.375072 136.631762 
L 383.375072 132.799366 
L 383.451284 132.799366 
L 383.451284 128.96697 
L 383.691743 128.96697 
L 383.691743 125.134574 
L 383.7428 125.134574 
L 383.7428 121.302178 
L 383.7428 121.302178 
L 383.7428 121.302178 
L 460.8 121.302178 
" clip-path="url(#p175b19f5b0)" style="fill: none; stroke: #f5deb3; stroke-width: 1.5; stroke-linecap: square"/>
   </g>
   <g id="line2d_26">
    <path d="M 205.732354 293.76 
L 205.732354 289.927604 
L 206.251589 289.927604 
L 206.251589 286.095208 
L 208.100264 286.095208 
L 208.100264 282.262812 
L 208.546529 282.262812 
L 208.546529 278.430416 
L 208.620317 278.430416 
L 208.620317 274.59802 
L 208.785733 274.59802 
L 208.785733 270.765624 
L 208.804061 270.765624 
L 208.804061 266.933228 
L 209.295066 266.933228 
L 209.295066 263.100832 
L 209.295066 263.100832 
L 209.295066 259.268436 
L 209.920758 259.268436 
L 209.920758 255.43604 
L 210.552058 255.43604 
L 210.552058 251.603644 
L 210.880387 251.603644 
L 210.880387 247.771248 
L 211.628287 247.771248 
L 211.628287 243.938851 
L 211.779179 243.938851 
L 211.779179 240.106455 
L 219.93654 240.106455 
L 219.93654 236.274059 
L 252.978373 236.274059 
L 252.978373 232.441663 
L 256.290393 232.441663 
L 256.290393 228.609267 
L 260.216883 228.609267 
L 260.216883 224.776871 
L 260.462595 224.776871 
L 260.462595 220.944475 
L 260.755029 220.944475 
L 260.755029 217.112079 
L 260.97821 217.112079 
L 260.97821 213.279683 
L 261.240352 213.279683 
L 261.240352 209.447287 
L 261.452944 209.447287 
L 261.452944 205.614891 
L 263.406397 205.614891 
L 263.406397 201.782495 
L 263.444229 201.782495 
L 263.444229 197.950099 
L 263.690784 197.950099 
L 263.690784 194.117703 
L 264.625661 194.117703 
L 264.625661 190.285307 
L 264.652172 190.285307 
L 264.652172 186.452911 
L 267.021924 186.452911 
L 267.021924 182.620515 
L 267.227674 182.620515 
L 267.227674 178.788119 
L 286.259703 178.788119 
L 286.259703 174.955723 
L 287.870253 174.955723 
L 287.870253 171.123327 
L 287.943376 171.123327 
L 287.943376 167.290931 
L 288.194 167.290931 
L 288.194 163.458535 
L 288.22298 163.458535 
L 288.22298 159.626139 
L 289.260418 159.626139 
L 289.260418 155.793743 
L 289.623196 155.793743 
L 289.623196 151.961347 
L 289.741695 151.961347 
L 289.741695 148.12895 
L 289.752447 148.12895 
L 289.752447 144.296554 
L 289.826075 144.296554 
L 289.826075 140.464158 
L 291.346821 140.464158 
L 291.346821 136.631762 
L 292.442631 136.631762 
L 292.442631 132.799366 
L 292.763488 132.799366 
L 292.763488 128.96697 
L 300.806827 128.96697 
L 300.806827 125.134574 
L 357.617995 125.134574 
L 357.617995 121.302178 
L 380.644936 121.302178 
L 380.644936 117.469782 
L 391.171139 117.469782 
L 391.171139 113.637386 
L 404.129846 113.637386 
L 404.129846 109.80499 
L 404.29683 109.80499 
L 404.29683 105.972594 
L 408.65341 105.972594 
L 408.65341 102.140198 
L 418.056176 102.140198 
L 418.056176 98.307802 
L 418.295352 98.307802 
L 418.295352 94.475406 
L 421.036454 94.475406 
L 421.036454 90.64301 
L 423.747618 90.64301 
L 423.747618 86.810614 
L 424.512972 86.810614 
L 424.512972 82.978218 
L 426.34604 82.978218 
L 426.34604 79.145822 
L 428.164728 79.145822 
L 428.164728 75.313426 
L 428.309344 75.313426 
L 428.309344 71.48103 
L 430.484498 71.48103 
L 430.484498 67.648634 
L 430.484498 67.648634 
L 430.484498 67.648634 
L 460.8 67.648634 
" clip-path="url(#p175b19f5b0)" style="fill: none; stroke: #f5deb3; stroke-width: 1.5; stroke-linecap: square"/>
   </g>
   <g id="line2d_27">
    <path d="M 178.57308 293.76 
L 178.57308 289.927604 
L 178.57308 289.927604 
L 178.57308 286.095208 
L 180.850437 286.095208 
L 180.850437 282.262812 
L 181.785822 282.262812 
L 181.785822 278.430416 
L 183.019641 278.430416 
L 183.019641 274.59802 
L 189.38043 274.59802 
L 189.38043 270.765624 
L 192.634037 270.765624 
L 192.634037 266.933228 
L 192.664089 266.933228 
L 192.664089 263.100832 
L 192.84382 263.100832 
L 192.84382 259.268436 
L 194.218503 259.268436 
L 194.218503 255.43604 
L 196.513184 255.43604 
L 196.513184 251.603644 
L 199.714854 251.603644 
L 199.714854 247.771248 
L 202.162219 247.771248 
L 202.162219 243.938851 
L 202.408307 243.938851 
L 202.408307 240.106455 
L 204.999503 240.106455 
L 204.999503 236.274059 
L 213.346738 236.274059 
L 213.346738 232.441663 
L 215.906223 232.441663 
L 215.906223 228.609267 
L 216.038623 228.609267 
L 216.038623 224.776871 
L 216.185107 224.776871 
L 216.185107 220.944475 
L 216.272683 220.944475 
L 216.272683 217.112079 
L 216.360024 217.112079 
L 216.360024 213.279683 
L 216.360024 213.279683 
L 216.360024 209.447287 
L 216.461629 209.447287 
L 216.461629 205.614891 
L 216.678293 205.614891 
L 216.678293 201.782495 
L 216.778913 201.782495 
L 216.778913 197.950099 
L 216.92212 197.950099 
L 216.92212 194.117703 
L 217.642864 194.117703 
L 217.642864 190.285307 
L 217.670807 190.285307 
L 217.670807 186.452911 
L 217.948928 186.452911 
L 217.948928 182.620515 
L 218.538985 182.620515 
L 218.538985 178.788119 
L 379.094135 178.788119 
L 379.094135 174.955723 
L 381.530886 174.955723 
L 381.530886 171.123327 
L 381.667498 171.123327 
L 381.667498 167.290931 
L 384.680403 167.290931 
L 384.680403 163.458535 
L 386.064199 163.458535 
L 386.064199 159.626139 
L 386.709179 159.626139 
L 386.709179 155.793743 
L 389.301191 155.793743 
L 389.301191 151.961347 
L 391.296176 151.961347 
L 391.296176 148.12895 
L 393.279165 148.12895 
L 393.279165 144.296554 
L 404.86133 144.296554 
L 404.86133 140.464158 
L 406.826249 140.464158 
L 406.826249 136.631762 
L 407.967933 136.631762 
L 407.967933 132.799366 
L 410.511925 132.799366 
L 410.511925 128.96697 
L 413.972213 128.96697 
L 413.972213 125.134574 
L 413.972213 125.134574 
L 413.972213 125.134574 
L 460.8 125.134574 
" clip-path="url(#p175b19f5b0)" style="fill: none; stroke: #f5deb3; stroke-width: 1.5; stroke-linecap: square"/>
   </g>
   <g id="line2d_28">
    <path d="M 159.111789 293.76 
L 159.111789 289.927604 
L 159.195617 289.927604 
L 159.195617 286.095208 
L 159.279231 286.095208 
L 159.279231 282.262812 
L 159.362631 282.262812 
L 159.362631 278.430416 
L 162.535145 278.430416 
L 162.535145 274.59802 
L 162.535145 274.59802 
L 162.535145 270.765624 
L 162.535145 270.765624 
L 162.535145 266.933228 
L 162.535145 266.933228 
L 162.535145 263.100832 
L 162.610639 263.100832 
L 162.610639 259.268436 
L 165.633392 259.268436 
L 165.633392 255.43604 
L 165.633392 255.43604 
L 165.633392 251.603644 
L 165.838962 251.603644 
L 165.838962 247.771248 
L 168.776615 247.771248 
L 168.776615 243.938851 
L 171.124902 243.938851 
L 171.124902 240.106455 
L 175.924884 240.106455 
L 175.924884 236.274059 
L 272.253882 236.274059 
L 272.253882 232.441663 
L 272.358693 232.441663 
L 272.358693 228.609267 
L 272.437081 228.609267 
L 272.437081 224.776871 
L 272.510074 224.776871 
L 272.510074 220.944475 
L 272.554312 220.944475 
L 272.554312 217.112079 
L 272.998552 217.112079 
L 272.998552 213.279683 
L 273.208233 213.279683 
L 273.208233 209.447287 
L 273.259171 209.447287 
L 273.259171 205.614891 
L 273.271893 205.614891 
L 273.271893 201.782495 
L 273.676404 201.782495 
L 273.676404 197.950099 
L 273.731634 197.950099 
L 273.731634 194.117703 
L 274.157769 194.117703 
L 274.157769 190.285307 
L 274.529495 190.285307 
L 274.529495 186.452911 
L 274.705263 186.452911 
L 274.705263 182.620515 
L 274.870401 182.620515 
L 274.870401 178.788119 
L 286.076321 178.788119 
L 286.076321 174.955723 
L 287.411546 174.955723 
L 287.411546 171.123327 
L 287.507095 171.123327 
L 287.507095 167.290931 
L 288.021195 167.290931 
L 288.021195 163.458535 
L 288.050329 163.458535 
L 288.050329 159.626139 
L 288.447509 159.626139 
L 288.447509 155.793743 
L 288.687961 155.793743 
L 288.687961 151.961347 
L 288.746611 151.961347 
L 288.746611 148.12895 
L 288.776688 148.12895 
L 288.776688 144.296554 
L 288.988023 144.296554 
L 288.988023 140.464158 
L 288.995882 140.464158 
L 288.995882 136.631762 
L 289.202685 136.631762 
L 289.202685 132.799366 
L 289.349159 132.799366 
L 289.349159 128.96697 
L 289.82914 128.96697 
L 289.82914 125.134574 
L 291.969705 125.134574 
L 291.969705 121.302178 
L 291.969705 121.302178 
L 291.969705 121.302178 
L 460.8 121.302178 
" clip-path="url(#p175b19f5b0)" style="fill: none; stroke: #f5deb3; stroke-width: 1.5; stroke-linecap: square"/>
   </g>
   <g id="line2d_29">
    <path d="M 84.840092 293.76 
L 84.840092 289.927604 
L 84.840092 289.927604 
L 84.840092 286.095208 
L 84.840092 286.095208 
L 84.840092 282.262812 
L 84.840092 282.262812 
L 84.840092 278.430416 
L 84.840092 278.430416 
L 84.840092 274.59802 
L 84.840092 274.59802 
L 84.840092 270.765624 
L 85.646336 270.765624 
L 85.646336 266.933228 
L 85.646336 266.933228 
L 85.646336 263.100832 
L 85.646336 263.100832 
L 85.646336 259.268436 
L 85.646336 259.268436 
L 85.646336 255.43604 
L 85.646336 255.43604 
L 85.646336 251.603644 
L 85.646336 251.603644 
L 85.646336 247.771248 
L 85.646336 247.771248 
L 85.646336 243.938851 
L 85.646336 243.938851 
L 85.646336 240.106455 
L 85.646336 240.106455 
L 85.646336 236.274059 
L 101.191009 236.274059 
L 101.191009 232.441663 
L 101.191009 232.441663 
L 101.191009 228.609267 
L 101.191009 228.609267 
L 101.191009 224.776871 
L 155.755469 224.776871 
L 155.755469 220.944475 
L 155.755469 220.944475 
L 155.755469 217.112079 
L 155.755469 217.112079 
L 155.755469 213.279683 
L 156.217304 213.279683 
L 156.217304 209.447287 
L 156.217304 209.447287 
L 156.217304 205.614891 
L 156.217304 205.614891 
L 156.217304 201.782495 
L 156.582126 201.782495 
L 156.582126 197.950099 
L 156.582126 197.950099 
L 156.582126 194.117703 
L 156.582126 194.117703 
L 156.582126 190.285307 
L 156.76302 190.285307 
L 156.76302 186.452911 
L 156.76302 186.452911 
L 156.76302 182.620515 
L 156.76302 182.620515 
L 156.76302 178.788119 
L 156.76302 178.788119 
L 156.76302 178.788119 
L 460.8 178.788119 
" clip-path="url(#p175b19f5b0)" style="fill: none; stroke: #f5deb3; stroke-width: 1.5; stroke-linecap: square"/>
   </g>
   <g id="line2d_30">
    <path d="M 156.672698 293.76 
L 156.672698 289.927604 
L 156.672698 289.927604 
L 156.672698 286.095208 
L 157.121828 286.095208 
L 157.121828 282.262812 
L 157.915014 282.262812 
L 157.915014 278.430416 
L 158.261449 278.430416 
L 158.261449 274.59802 
L 158.261449 274.59802 
L 158.261449 270.765624 
L 158.774305 270.765624 
L 158.774305 266.933228 
L 158.943483 266.933228 
L 158.943483 263.100832 
L 159.027744 263.100832 
L 159.027744 259.268436 
L 159.111789 259.268436 
L 159.111789 255.43604 
L 159.362631 255.43604 
L 159.362631 251.603644 
L 159.858609 251.603644 
L 159.858609 247.771248 
L 160.266244 247.771248 
L 160.266244 243.938851 
L 160.347164 243.938851 
L 160.347164 240.106455 
L 161.066559 240.106455 
L 161.066559 236.274059 
L 161.224295 236.274059 
L 161.224295 232.441663 
L 161.459479 232.441663 
L 161.459479 228.609267 
L 162.001741 228.609267 
L 162.001741 224.776871 
L 162.231411 224.776871 
L 162.231411 220.944475 
L 162.535145 220.944475 
L 162.535145 217.112079 
L 163.059975 217.112079 
L 163.059975 213.279683 
L 163.282345 213.279683 
L 163.282345 209.447287 
L 164.012827 209.447287 
L 164.012827 205.614891 
L 164.797922 205.614891 
L 164.797922 201.782495 
L 165.008802 201.782495 
L 165.008802 197.950099 
L 165.148636 197.950099 
L 165.148636 194.117703 
L 165.70206 194.117703 
L 165.70206 190.285307 
L 166.111057 190.285307 
L 166.111057 186.452911 
L 166.246259 186.452911 
L 166.246259 182.620515 
L 173.478152 182.620515 
L 173.478152 178.788119 
L 175.975001 178.788119 
L 175.975001 174.955723 
L 175.975001 174.955723 
L 175.975001 171.123327 
L 175.975001 171.123327 
L 175.975001 167.290931 
L 175.975001 167.290931 
L 175.975001 163.458535 
L 175.975001 163.458535 
L 175.975001 159.626139 
L 175.975001 159.626139 
L 175.975001 155.793743 
L 175.975001 155.793743 
L 175.975001 151.961347 
L 175.975001 151.961347 
L 175.975001 148.12895 
L 175.975001 148.12895 
L 175.975001 144.296554 
L 175.975001 144.296554 
L 175.975001 140.464158 
L 175.975001 140.464158 
L 175.975001 136.631762 
L 175.975001 136.631762 
L 175.975001 132.799366 
L 175.975001 132.799366 
L 175.975001 128.96697 
L 175.975001 128.96697 
L 175.975001 125.134574 
L 175.975001 125.134574 
L 175.975001 121.302178 
L 175.975001 121.302178 
L 175.975001 121.302178 
L 460.8 121.302178 
" clip-path="url(#p175b19f5b0)" style="fill: none; stroke: #f5deb3; stroke-width: 1.5; stroke-linecap: square"/>
   </g>
   <g id="matplotlib.axis_1">
    <g id="xtick_1">
     <g id="line2d_31">
      <path d="M 137.390182 293.76 
L 137.390182 3.456 
" clip-path="url(#p175b19f5b0)" style="fill: none; stroke: #b0b0b0; stroke-width: 0.8; stroke-linecap: square"/>
     </g>
     <g id="line2d_32">
      <defs>
       <path id="mce25bafe1a" d="M 0 0 
L 0 3.5 
" style="stroke: #000000; stroke-width: 0.8"/>
      </defs>
      <g>
       <use xlink:href="#mce25bafe1a" x="137.390182" y="293.76" style="stroke: #000000; stroke-width: 0.8"/>
      </g>
     </g>
     <g id="text_1">
      <!-- 1 -->
      <g transform="translate(131.027682 315.956875)scale(0.2 -0.2)">
       <defs>
        <path id="DejaVuSans-31" d="M 794 531 
L 1825 531 
L 1825 4091 
L 703 3866 
L 703 4441 
L 1819 4666 
L 2450 4666 
L 2450 531 
L 3481 531 
L 3481 0 
L 794 0 
L 794 531 
z
" transform="scale(0.015625)"/>
       </defs>
       <use xlink:href="#DejaVuSans-31"/>
      </g>
     </g>
    </g>
    <g id="xtick_2">
     <g id="line2d_33">
      <path d="M 287.754547 293.76 
L 287.754547 3.456 
" clip-path="url(#p175b19f5b0)" style="fill: none; stroke: #b0b0b0; stroke-width: 0.8; stroke-linecap: square"/>
     </g>
     <g id="line2d_34">
      <g>
       <use xlink:href="#mce25bafe1a" x="287.754547" y="293.76" style="stroke: #000000; stroke-width: 0.8"/>
      </g>
     </g>
     <g id="text_2">
      <!-- 3 -->
      <g transform="translate(281.392047 315.956875)scale(0.2 -0.2)">
       <defs>
        <path id="DejaVuSans-33" d="M 2597 2516 
Q 3050 2419 3304 2112 
Q 3559 1806 3559 1356 
Q 3559 666 3084 287 
Q 2609 -91 1734 -91 
Q 1441 -91 1130 -33 
Q 819 25 488 141 
L 488 750 
Q 750 597 1062 519 
Q 1375 441 1716 441 
Q 2309 441 2620 675 
Q 2931 909 2931 1356 
Q 2931 1769 2642 2001 
Q 2353 2234 1838 2234 
L 1294 2234 
L 1294 2753 
L 1863 2753 
Q 2328 2753 2575 2939 
Q 2822 3125 2822 3475 
Q 2822 3834 2567 4026 
Q 2313 4219 1838 4219 
Q 1578 4219 1281 4162 
Q 984 4106 628 3988 
L 628 4550 
Q 988 4650 1302 4700 
Q 1616 4750 1894 4750 
Q 2613 4750 3031 4423 
Q 3450 4097 3450 3541 
Q 3450 3153 3228 2886 
Q 3006 2619 2597 2516 
z
" transform="scale(0.015625)"/>
       </defs>
       <use xlink:href="#DejaVuSans-33"/>
      </g>
     </g>
    </g>
    <g id="xtick_3">
     <g id="line2d_35">
      <path d="M 438.118911 293.76 
L 438.118911 3.456 
" clip-path="url(#p175b19f5b0)" style="fill: none; stroke: #b0b0b0; stroke-width: 0.8; stroke-linecap: square"/>
     </g>
     <g id="line2d_36">
      <g>
       <use xlink:href="#mce25bafe1a" x="438.118911" y="293.76" style="stroke: #000000; stroke-width: 0.8"/>
      </g>
     </g>
     <g id="text_3">
      <!-- 5 -->
      <g transform="translate(431.756411 315.956875)scale(0.2 -0.2)">
       <defs>
        <path id="DejaVuSans-35" d="M 691 4666 
L 3169 4666 
L 3169 4134 
L 1269 4134 
L 1269 2991 
Q 1406 3038 1543 3061 
Q 1681 3084 1819 3084 
Q 2600 3084 3056 2656 
Q 3513 2228 3513 1497 
Q 3513 744 3044 326 
Q 2575 -91 1722 -91 
Q 1428 -91 1123 -41 
Q 819 9 494 109 
L 494 744 
Q 775 591 1075 516 
Q 1375 441 1709 441 
Q 2250 441 2565 725 
Q 2881 1009 2881 1497 
Q 2881 1984 2565 2268 
Q 2250 2553 1709 2553 
Q 1456 2553 1204 2497 
Q 953 2441 691 2322 
L 691 4666 
z
" transform="scale(0.015625)"/>
       </defs>
       <use xlink:href="#DejaVuSans-35"/>
      </g>
     </g>
    </g>
    <g id="text_4">
     <!-- log10 of FEvals / DIM -->
     <g transform="translate(156.430563 339.313125)scale(0.2 -0.2)">
      <defs>
       <path id="DejaVuSans-6c" d="M 603 4863 
L 1178 4863 
L 1178 0 
L 603 0 
L 603 4863 
z
" transform="scale(0.015625)"/>
       <path id="DejaVuSans-6f" d="M 1959 3097 
Q 1497 3097 1228 2736 
Q 959 2375 959 1747 
Q 959 1119 1226 758 
Q 1494 397 1959 397 
Q 2419 397 2687 759 
Q 2956 1122 2956 1747 
Q 2956 2369 2687 2733 
Q 2419 3097 1959 3097 
z
M 1959 3584 
Q 2709 3584 3137 3096 
Q 3566 2609 3566 1747 
Q 3566 888 3137 398 
Q 2709 -91 1959 -91 
Q 1206 -91 779 398 
Q 353 888 353 1747 
Q 353 2609 779 3096 
Q 1206 3584 1959 3584 
z
" transform="scale(0.015625)"/>
       <path id="DejaVuSans-67" d="M 2906 1791 
Q 2906 2416 2648 2759 
Q 2391 3103 1925 3103 
Q 1463 3103 1205 2759 
Q 947 2416 947 1791 
Q 947 1169 1205 825 
Q 1463 481 1925 481 
Q 2391 481 2648 825 
Q 2906 1169 2906 1791 
z
M 3481 434 
Q 3481 -459 3084 -895 
Q 2688 -1331 1869 -1331 
Q 1566 -1331 1297 -1286 
Q 1028 -1241 775 -1147 
L 775 -588 
Q 1028 -725 1275 -790 
Q 1522 -856 1778 -856 
Q 2344 -856 2625 -561 
Q 2906 -266 2906 331 
L 2906 616 
Q 2728 306 2450 153 
Q 2172 0 1784 0 
Q 1141 0 747 490 
Q 353 981 353 1791 
Q 353 2603 747 3093 
Q 1141 3584 1784 3584 
Q 2172 3584 2450 3431 
Q 2728 3278 2906 2969 
L 2906 3500 
L 3481 3500 
L 3481 434 
z
" transform="scale(0.015625)"/>
       <path id="DejaVuSans-30" d="M 2034 4250 
Q 1547 4250 1301 3770 
Q 1056 3291 1056 2328 
Q 1056 1369 1301 889 
Q 1547 409 2034 409 
Q 2525 409 2770 889 
Q 3016 1369 3016 2328 
Q 3016 3291 2770 3770 
Q 2525 4250 2034 4250 
z
M 2034 4750 
Q 2819 4750 3233 4129 
Q 3647 3509 3647 2328 
Q 3647 1150 3233 529 
Q 2819 -91 2034 -91 
Q 1250 -91 836 529 
Q 422 1150 422 2328 
Q 422 3509 836 4129 
Q 1250 4750 2034 4750 
z
" transform="scale(0.015625)"/>
       <path id="DejaVuSans-20" transform="scale(0.015625)"/>
       <path id="DejaVuSans-66" d="M 2375 4863 
L 2375 4384 
L 1825 4384 
Q 1516 4384 1395 4259 
Q 1275 4134 1275 3809 
L 1275 3500 
L 2222 3500 
L 2222 3053 
L 1275 3053 
L 1275 0 
L 697 0 
L 697 3053 
L 147 3053 
L 147 3500 
L 697 3500 
L 697 3744 
Q 697 4328 969 4595 
Q 1241 4863 1831 4863 
L 2375 4863 
z
" transform="scale(0.015625)"/>
       <path id="DejaVuSans-46" d="M 628 4666 
L 3309 4666 
L 3309 4134 
L 1259 4134 
L 1259 2759 
L 3109 2759 
L 3109 2228 
L 1259 2228 
L 1259 0 
L 628 0 
L 628 4666 
z
" transform="scale(0.015625)"/>
       <path id="DejaVuSans-45" d="M 628 4666 
L 3578 4666 
L 3578 4134 
L 1259 4134 
L 1259 2753 
L 3481 2753 
L 3481 2222 
L 1259 2222 
L 1259 531 
L 3634 531 
L 3634 0 
L 628 0 
L 628 4666 
z
" transform="scale(0.015625)"/>
       <path id="DejaVuSans-76" d="M 191 3500 
L 800 3500 
L 1894 563 
L 2988 3500 
L 3597 3500 
L 2284 0 
L 1503 0 
L 191 3500 
z
" transform="scale(0.015625)"/>
       <path id="DejaVuSans-61" d="M 2194 1759 
Q 1497 1759 1228 1600 
Q 959 1441 959 1056 
Q 959 750 1161 570 
Q 1363 391 1709 391 
Q 2188 391 2477 730 
Q 2766 1069 2766 1631 
L 2766 1759 
L 2194 1759 
z
M 3341 1997 
L 3341 0 
L 2766 0 
L 2766 531 
Q 2569 213 2275 61 
Q 1981 -91 1556 -91 
Q 1019 -91 701 211 
Q 384 513 384 1019 
Q 384 1609 779 1909 
Q 1175 2209 1959 2209 
L 2766 2209 
L 2766 2266 
Q 2766 2663 2505 2880 
Q 2244 3097 1772 3097 
Q 1472 3097 1187 3025 
Q 903 2953 641 2809 
L 641 3341 
Q 956 3463 1253 3523 
Q 1550 3584 1831 3584 
Q 2591 3584 2966 3190 
Q 3341 2797 3341 1997 
z
" transform="scale(0.015625)"/>
       <path id="DejaVuSans-73" d="M 2834 3397 
L 2834 2853 
Q 2591 2978 2328 3040 
Q 2066 3103 1784 3103 
Q 1356 3103 1142 2972 
Q 928 2841 928 2578 
Q 928 2378 1081 2264 
Q 1234 2150 1697 2047 
L 1894 2003 
Q 2506 1872 2764 1633 
Q 3022 1394 3022 966 
Q 3022 478 2636 193 
Q 2250 -91 1575 -91 
Q 1294 -91 989 -36 
Q 684 19 347 128 
L 347 722 
Q 666 556 975 473 
Q 1284 391 1588 391 
Q 1994 391 2212 530 
Q 2431 669 2431 922 
Q 2431 1156 2273 1281 
Q 2116 1406 1581 1522 
L 1381 1569 
Q 847 1681 609 1914 
Q 372 2147 372 2553 
Q 372 3047 722 3315 
Q 1072 3584 1716 3584 
Q 2034 3584 2315 3537 
Q 2597 3491 2834 3397 
z
" transform="scale(0.015625)"/>
       <path id="DejaVuSans-2f" d="M 1625 4666 
L 2156 4666 
L 531 -594 
L 0 -594 
L 1625 4666 
z
" transform="scale(0.015625)"/>
       <path id="DejaVuSans-44" d="M 1259 4147 
L 1259 519 
L 2022 519 
Q 2988 519 3436 956 
Q 3884 1394 3884 2338 
Q 3884 3275 3436 3711 
Q 2988 4147 2022 4147 
L 1259 4147 
z
M 628 4666 
L 1925 4666 
Q 3281 4666 3915 4102 
Q 4550 3538 4550 2338 
Q 4550 1131 3912 565 
Q 3275 0 1925 0 
L 628 0 
L 628 4666 
z
" transform="scale(0.015625)"/>
       <path id="DejaVuSans-49" d="M 628 4666 
L 1259 4666 
L 1259 0 
L 628 0 
L 628 4666 
z
" transform="scale(0.015625)"/>
       <path id="DejaVuSans-4d" d="M 628 4666 
L 1569 4666 
L 2759 1491 
L 3956 4666 
L 4897 4666 
L 4897 0 
L 4281 0 
L 4281 4097 
L 3078 897 
L 2444 897 
L 1241 4097 
L 1241 0 
L 628 0 
L 628 4666 
z
" transform="scale(0.015625)"/>
      </defs>
      <use xlink:href="#DejaVuSans-6c"/>
      <use xlink:href="#DejaVuSans-6f" x="27.783203"/>
      <use xlink:href="#DejaVuSans-67" x="88.964844"/>
      <use xlink:href="#DejaVuSans-31" x="152.441406"/>
      <use xlink:href="#DejaVuSans-30" x="216.064453"/>
      <use xlink:href="#DejaVuSans-20" x="279.6875"/>
      <use xlink:href="#DejaVuSans-6f" x="311.474609"/>
      <use xlink:href="#DejaVuSans-66" x="372.65625"/>
      <use xlink:href="#DejaVuSans-20" x="407.861328"/>
      <use xlink:href="#DejaVuSans-46" x="439.648438"/>
      <use xlink:href="#DejaVuSans-45" x="497.167969"/>
      <use xlink:href="#DejaVuSans-76" x="560.351562"/>
      <use xlink:href="#DejaVuSans-61" x="619.53125"/>
      <use xlink:href="#DejaVuSans-6c" x="680.810547"/>
      <use xlink:href="#DejaVuSans-73" x="708.59375"/>
      <use xlink:href="#DejaVuSans-20" x="760.693359"/>
      <use xlink:href="#DejaVuSans-2f" x="792.480469"/>
      <use xlink:href="#DejaVuSans-20" x="826.171875"/>
      <use xlink:href="#DejaVuSans-44" x="857.958984"/>
      <use xlink:href="#DejaVuSans-49" x="934.960938"/>
      <use xlink:href="#DejaVuSans-4d" x="964.453125"/>
     </g>
    </g>
   </g>
   <g id="matplotlib.axis_2">
    <g id="ytick_1">
     <g id="line2d_37">
      <path d="M 62.208 293.76 
L 460.8 293.76 
" clip-path="url(#p175b19f5b0)" style="fill: none; stroke: #b0b0b0; stroke-width: 0.8; stroke-linecap: square"/>
     </g>
     <g id="line2d_38">
      <defs>
       <path id="m841d912569" d="M 0 0 
L -3.5 0 
" style="stroke: #000000; stroke-width: 0.8"/>
      </defs>
      <g>
       <use xlink:href="#m841d912569" x="62.208" y="293.76" style="stroke: #000000; stroke-width: 0.8"/>
      </g>
     </g>
     <g id="text_5">
      <!-- 0.0 -->
      <g transform="translate(29.763 299.83875)scale(0.16 -0.16)">
       <defs>
        <path id="DejaVuSans-2e" d="M 684 794 
L 1344 794 
L 1344 0 
L 684 0 
L 684 794 
z
" transform="scale(0.015625)"/>
       </defs>
       <use xlink:href="#DejaVuSans-30"/>
       <use xlink:href="#DejaVuSans-2e" x="63.623047"/>
       <use xlink:href="#DejaVuSans-30" x="95.410156"/>
      </g>
     </g>
    </g>
    <g id="ytick_2">
     <g id="line2d_39">
      <path d="M 62.208 236.274059 
L 460.8 236.274059 
" clip-path="url(#p175b19f5b0)" style="fill: none; stroke: #b0b0b0; stroke-width: 0.8; stroke-linecap: square"/>
     </g>
     <g id="line2d_40">
      <g>
       <use xlink:href="#m841d912569" x="62.208" y="236.274059" style="stroke: #000000; stroke-width: 0.8"/>
      </g>
     </g>
     <g id="text_6">
      <!-- 0.2 -->
      <g transform="translate(29.763 242.352809)scale(0.16 -0.16)">
       <defs>
        <path id="DejaVuSans-32" d="M 1228 531 
L 3431 531 
L 3431 0 
L 469 0 
L 469 531 
Q 828 903 1448 1529 
Q 2069 2156 2228 2338 
Q 2531 2678 2651 2914 
Q 2772 3150 2772 3378 
Q 2772 3750 2511 3984 
Q 2250 4219 1831 4219 
Q 1534 4219 1204 4116 
Q 875 4013 500 3803 
L 500 4441 
Q 881 4594 1212 4672 
Q 1544 4750 1819 4750 
Q 2544 4750 2975 4387 
Q 3406 4025 3406 3419 
Q 3406 3131 3298 2873 
Q 3191 2616 2906 2266 
Q 2828 2175 2409 1742 
Q 1991 1309 1228 531 
z
" transform="scale(0.015625)"/>
       </defs>
       <use xlink:href="#DejaVuSans-30"/>
       <use xlink:href="#DejaVuSans-2e" x="63.623047"/>
       <use xlink:href="#DejaVuSans-32" x="95.410156"/>
      </g>
     </g>
    </g>
    <g id="ytick_3">
     <g id="line2d_41">
      <path d="M 62.208 178.788119 
L 460.8 178.788119 
" clip-path="url(#p175b19f5b0)" style="fill: none; stroke: #b0b0b0; stroke-width: 0.8; stroke-linecap: square"/>
     </g>
     <g id="line2d_42">
      <g>
       <use xlink:href="#m841d912569" x="62.208" y="178.788119" style="stroke: #000000; stroke-width: 0.8"/>
      </g>
     </g>
     <g id="text_7">
      <!-- 0.4 -->
      <g transform="translate(29.763 184.866869)scale(0.16 -0.16)">
       <defs>
        <path id="DejaVuSans-34" d="M 2419 4116 
L 825 1625 
L 2419 1625 
L 2419 4116 
z
M 2253 4666 
L 3047 4666 
L 3047 1625 
L 3713 1625 
L 3713 1100 
L 3047 1100 
L 3047 0 
L 2419 0 
L 2419 1100 
L 313 1100 
L 313 1709 
L 2253 4666 
z
" transform="scale(0.015625)"/>
       </defs>
       <use xlink:href="#DejaVuSans-30"/>
       <use xlink:href="#DejaVuSans-2e" x="63.623047"/>
       <use xlink:href="#DejaVuSans-34" x="95.410156"/>
      </g>
     </g>
    </g>
    <g id="ytick_4">
     <g id="line2d_43">
      <path d="M 62.208 121.302178 
L 460.8 121.302178 
" clip-path="url(#p175b19f5b0)" style="fill: none; stroke: #b0b0b0; stroke-width: 0.8; stroke-linecap: square"/>
     </g>
     <g id="line2d_44">
      <g>
       <use xlink:href="#m841d912569" x="62.208" y="121.302178" style="stroke: #000000; stroke-width: 0.8"/>
      </g>
     </g>
     <g id="text_8">
      <!-- 0.6 -->
      <g transform="translate(29.763 127.380928)scale(0.16 -0.16)">
       <defs>
        <path id="DejaVuSans-36" d="M 2113 2584 
Q 1688 2584 1439 2293 
Q 1191 2003 1191 1497 
Q 1191 994 1439 701 
Q 1688 409 2113 409 
Q 2538 409 2786 701 
Q 3034 994 3034 1497 
Q 3034 2003 2786 2293 
Q 2538 2584 2113 2584 
z
M 3366 4563 
L 3366 3988 
Q 3128 4100 2886 4159 
Q 2644 4219 2406 4219 
Q 1781 4219 1451 3797 
Q 1122 3375 1075 2522 
Q 1259 2794 1537 2939 
Q 1816 3084 2150 3084 
Q 2853 3084 3261 2657 
Q 3669 2231 3669 1497 
Q 3669 778 3244 343 
Q 2819 -91 2113 -91 
Q 1303 -91 875 529 
Q 447 1150 447 2328 
Q 447 3434 972 4092 
Q 1497 4750 2381 4750 
Q 2619 4750 2861 4703 
Q 3103 4656 3366 4563 
z
" transform="scale(0.015625)"/>
       </defs>
       <use xlink:href="#DejaVuSans-30"/>
       <use xlink:href="#DejaVuSans-2e" x="63.623047"/>
       <use xlink:href="#DejaVuSans-36" x="95.410156"/>
      </g>
     </g>
    </g>
    <g id="ytick_5">
     <g id="line2d_45">
      <path d="M 62.208 63.816238 
L 460.8 63.816238 
" clip-path="url(#p175b19f5b0)" style="fill: none; stroke: #b0b0b0; stroke-width: 0.8; stroke-linecap: square"/>
     </g>
     <g id="line2d_46">
      <g>
       <use xlink:href="#m841d912569" x="62.208" y="63.816238" style="stroke: #000000; stroke-width: 0.8"/>
      </g>
     </g>
     <g id="text_9">
      <!-- 0.8 -->
      <g transform="translate(29.763 69.894988)scale(0.16 -0.16)">
       <defs>
        <path id="DejaVuSans-38" d="M 2034 2216 
Q 1584 2216 1326 1975 
Q 1069 1734 1069 1313 
Q 1069 891 1326 650 
Q 1584 409 2034 409 
Q 2484 409 2743 651 
Q 3003 894 3003 1313 
Q 3003 1734 2745 1975 
Q 2488 2216 2034 2216 
z
M 1403 2484 
Q 997 2584 770 2862 
Q 544 3141 544 3541 
Q 544 4100 942 4425 
Q 1341 4750 2034 4750 
Q 2731 4750 3128 4425 
Q 3525 4100 3525 3541 
Q 3525 3141 3298 2862 
Q 3072 2584 2669 2484 
Q 3125 2378 3379 2068 
Q 3634 1759 3634 1313 
Q 3634 634 3220 271 
Q 2806 -91 2034 -91 
Q 1263 -91 848 271 
Q 434 634 434 1313 
Q 434 1759 690 2068 
Q 947 2378 1403 2484 
z
M 1172 3481 
Q 1172 3119 1398 2916 
Q 1625 2713 2034 2713 
Q 2441 2713 2670 2916 
Q 2900 3119 2900 3481 
Q 2900 3844 2670 4047 
Q 2441 4250 2034 4250 
Q 1625 4250 1398 4047 
Q 1172 3844 1172 3481 
z
" transform="scale(0.015625)"/>
       </defs>
       <use xlink:href="#DejaVuSans-30"/>
       <use xlink:href="#DejaVuSans-2e" x="63.623047"/>
       <use xlink:href="#DejaVuSans-38" x="95.410156"/>
      </g>
     </g>
    </g>
    <g id="ytick_6">
     <g id="line2d_47">
      <path d="M 62.208 6.330297 
L 460.8 6.330297 
" clip-path="url(#p175b19f5b0)" style="fill: none; stroke: #b0b0b0; stroke-width: 0.8; stroke-linecap: square"/>
     </g>
     <g id="line2d_48">
      <g>
       <use xlink:href="#m841d912569" x="62.208" y="6.330297" style="stroke: #000000; stroke-width: 0.8"/>
      </g>
     </g>
     <g id="text_10">
      <!-- 1.0 -->
      <g transform="translate(29.763 12.409047)scale(0.16 -0.16)">
       <use xlink:href="#DejaVuSans-31"/>
       <use xlink:href="#DejaVuSans-2e" x="63.623047"/>
       <use xlink:href="#DejaVuSans-30" x="95.410156"/>
      </g>
     </g>
    </g>
    <g id="text_11">
     <!-- proportion of trials -->
     <g transform="translate(21.603625 241.61425)rotate(-90)scale(0.2 -0.2)">
      <defs>
       <path id="DejaVuSans-70" d="M 1159 525 
L 1159 -1331 
L 581 -1331 
L 581 3500 
L 1159 3500 
L 1159 2969 
Q 1341 3281 1617 3432 
Q 1894 3584 2278 3584 
Q 2916 3584 3314 3078 
Q 3713 2572 3713 1747 
Q 3713 922 3314 415 
Q 2916 -91 2278 -91 
Q 1894 -91 1617 61 
Q 1341 213 1159 525 
z
M 3116 1747 
Q 3116 2381 2855 2742 
Q 2594 3103 2138 3103 
Q 1681 3103 1420 2742 
Q 1159 2381 1159 1747 
Q 1159 1113 1420 752 
Q 1681 391 2138 391 
Q 2594 391 2855 752 
Q 3116 1113 3116 1747 
z
" transform="scale(0.015625)"/>
       <path id="DejaVuSans-72" d="M 2631 2963 
Q 2534 3019 2420 3045 
Q 2306 3072 2169 3072 
Q 1681 3072 1420 2755 
Q 1159 2438 1159 1844 
L 1159 0 
L 581 0 
L 581 3500 
L 1159 3500 
L 1159 2956 
Q 1341 3275 1631 3429 
Q 1922 3584 2338 3584 
Q 2397 3584 2469 3576 
Q 2541 3569 2628 3553 
L 2631 2963 
z
" transform="scale(0.015625)"/>
       <path id="DejaVuSans-74" d="M 1172 4494 
L 1172 3500 
L 2356 3500 
L 2356 3053 
L 1172 3053 
L 1172 1153 
Q 1172 725 1289 603 
Q 1406 481 1766 481 
L 2356 481 
L 2356 0 
L 1766 0 
Q 1100 0 847 248 
Q 594 497 594 1153 
L 594 3053 
L 172 3053 
L 172 3500 
L 594 3500 
L 594 4494 
L 1172 4494 
z
" transform="scale(0.015625)"/>
       <path id="DejaVuSans-69" d="M 603 3500 
L 1178 3500 
L 1178 0 
L 603 0 
L 603 3500 
z
M 603 4863 
L 1178 4863 
L 1178 4134 
L 603 4134 
L 603 4863 
z
" transform="scale(0.015625)"/>
       <path id="DejaVuSans-6e" d="M 3513 2113 
L 3513 0 
L 2938 0 
L 2938 2094 
Q 2938 2591 2744 2837 
Q 2550 3084 2163 3084 
Q 1697 3084 1428 2787 
Q 1159 2491 1159 1978 
L 1159 0 
L 581 0 
L 581 3500 
L 1159 3500 
L 1159 2956 
Q 1366 3272 1645 3428 
Q 1925 3584 2291 3584 
Q 2894 3584 3203 3211 
Q 3513 2838 3513 2113 
z
" transform="scale(0.015625)"/>
      </defs>
      <use xlink:href="#DejaVuSans-70"/>
      <use xlink:href="#DejaVuSans-72" x="63.476562"/>
      <use xlink:href="#DejaVuSans-6f" x="102.339844"/>
      <use xlink:href="#DejaVuSans-70" x="163.521484"/>
      <use xlink:href="#DejaVuSans-6f" x="226.998047"/>
      <use xlink:href="#DejaVuSans-72" x="288.179688"/>
      <use xlink:href="#DejaVuSans-74" x="329.292969"/>
      <use xlink:href="#DejaVuSans-69" x="368.501953"/>
      <use xlink:href="#DejaVuSans-6f" x="396.285156"/>
      <use xlink:href="#DejaVuSans-6e" x="457.466797"/>
      <use xlink:href="#DejaVuSans-20" x="520.845703"/>
      <use xlink:href="#DejaVuSans-6f" x="552.632812"/>
      <use xlink:href="#DejaVuSans-66" x="613.814453"/>
      <use xlink:href="#DejaVuSans-20" x="649.019531"/>
      <use xlink:href="#DejaVuSans-74" x="680.806641"/>
      <use xlink:href="#DejaVuSans-72" x="720.015625"/>
      <use xlink:href="#DejaVuSans-69" x="761.128906"/>
      <use xlink:href="#DejaVuSans-61" x="788.912109"/>
      <use xlink:href="#DejaVuSans-6c" x="850.191406"/>
      <use xlink:href="#DejaVuSans-73" x="877.974609"/>
     </g>
    </g>
   </g>
   <g id="line2d_49">
    <path d="M 131.306297 293.76 
L 131.306297 288.011406 
L 133.030221 288.011406 
L 133.030221 282.262812 
L 134.310825 282.262812 
L 134.310825 276.514218 
L 134.667672 276.514218 
L 134.667672 270.765624 
L 136.730539 270.765624 
L 136.730539 265.01703 
L 137.226517 265.01703 
L 137.226517 259.268436 
L 137.715072 259.268436 
L 137.715072 253.519842 
L 139.446385 253.519842 
L 139.446385 247.771248 
L 141.524891 247.771248 
L 141.524891 242.022653 
L 141.668413 242.022653 
L 141.668413 236.274059 
L 142.932489 236.274059 
L 142.932489 230.525465 
L 143.20687 230.525465 
L 143.20687 224.776871 
L 144.281904 224.776871 
L 144.281904 219.028277 
L 146.578639 219.028277 
L 146.578639 213.279683 
L 146.701619 213.279683 
L 146.701619 207.531089 
L 146.701619 207.531089 
L 146.701619 201.782495 
L 148.259587 201.782495 
L 148.259587 196.033901 
L 148.72438 196.033901 
L 148.72438 190.285307 
L 154.426458 190.285307 
L 154.426458 184.536713 
L 156.400225 184.536713 
L 156.400225 178.788119 
L 256.783058 178.788119 
L 256.783058 173.039525 
L 258.039983 173.039525 
L 258.039983 167.290931 
L 258.258279 167.290931 
L 258.258279 161.542337 
L 259.077884 161.542337 
L 259.077884 155.793743 
L 259.669718 155.793743 
L 259.669718 150.045149 
L 259.754496 150.045149 
L 259.754496 144.296554 
L 260.190311 144.296554 
L 260.190311 138.54796 
L 260.33808 138.54796 
L 260.33808 132.799366 
L 260.390963 132.799366 
L 260.390963 127.050772 
L 260.473891 127.050772 
L 260.473891 121.302178 
L 293.176774 121.302178 
L 293.176774 115.553584 
L 314.583857 115.553584 
L 314.583857 109.80499 
L 315.439662 109.80499 
L 315.439662 104.056396 
L 315.913787 104.056396 
L 315.913787 98.307802 
L 316.152055 98.307802 
L 316.152055 92.559208 
L 316.381125 92.559208 
L 316.381125 86.810614 
L 316.424576 86.810614 
L 316.424576 81.06202 
L 316.650401 81.06202 
L 316.650401 75.313426 
L 337.526003 75.313426 
L 337.526003 69.564832 
L 380.368804 69.564832 
L 380.368804 63.816238 
L 380.368804 63.816238 
L 380.368804 63.816238 
L 460.8 63.816238 
" clip-path="url(#p175b19f5b0)" style="fill: none; stroke: #000000; stroke-width: 1.5; stroke-linecap: square"/>
   </g>
   <g id="line2d_50">
    <path clip-path="url(#p175b19f5b0)" style="fill: none; stroke: #000000; stroke-width: 1.5; stroke-linecap: square"/>
   </g>
   <g id="line2d_51">
    <path d="M 132.654916 293.76 
L 132.654916 288.011406 
L 138.98324 288.011406 
L 138.98324 282.262812 
L 140.650253 282.262812 
L 140.650253 276.514218 
L 141.953578 276.514218 
L 141.953578 270.765624 
L 143.614167 270.765624 
L 143.614167 265.01703 
L 143.748811 265.01703 
L 143.748811 259.268436 
L 148.608801 259.268436 
L 148.608801 253.519842 
L 148.72438 253.519842 
L 148.72438 247.771248 
L 152.118346 247.771248 
L 152.118346 242.022653 
L 155.381239 242.022653 
L 155.381239 236.274059 
L 182.572636 236.274059 
L 182.572636 230.525465 
L 183.380875 230.525465 
L 183.380875 224.776871 
L 183.856387 224.776871 
L 183.856387 219.028277 
L 185.580311 219.028277 
L 185.580311 213.279683 
L 186.354684 213.279683 
L 186.354684 207.531089 
L 186.463825 207.531089 
L 186.463825 201.782495 
L 186.608781 201.782495 
L 186.608781 196.033901 
L 187.850421 196.033901 
L 187.850421 190.285307 
L 188.709261 190.285307 
L 188.709261 184.536713 
L 188.945742 184.536713 
L 188.945742 178.788119 
L 266.068559 178.788119 
L 266.068559 173.039525 
L 266.609613 173.039525 
L 266.609613 167.290931 
L 267.276618 167.290931 
L 267.276618 161.542337 
L 267.47166 161.542337 
L 267.47166 155.793743 
L 267.894296 155.793743 
L 267.894296 150.045149 
L 267.951235 150.045149 
L 267.951235 144.296554 
L 269.366298 144.296554 
L 269.366298 138.54796 
L 269.850112 138.54796 
L 269.850112 132.799366 
L 269.906563 132.799366 
L 269.906563 127.050772 
L 270.730823 127.050772 
L 270.730823 121.302178 
L 270.730823 121.302178 
L 270.730823 121.302178 
L 460.8 121.302178 
" clip-path="url(#p175b19f5b0)" style="fill: none; stroke: #00bfbf; stroke-width: 1.5; stroke-linecap: square"/>
   </g>
   <g id="line2d_52">
    <path clip-path="url(#p175b19f5b0)" style="fill: none; stroke: #00bfbf; stroke-width: 1.5; stroke-linecap: square"/>
   </g>
   <g id="line2d_53">
    <path d="M 132.654916 293.76 
L 132.654916 288.011406 
L 138.98324 288.011406 
L 138.98324 282.262812 
L 140.650253 282.262812 
L 140.650253 276.514218 
L 141.953578 276.514218 
L 141.953578 270.765624 
L 143.614167 270.765624 
L 143.614167 265.01703 
L 143.748811 265.01703 
L 143.748811 259.268436 
L 148.608801 259.268436 
L 148.608801 253.519842 
L 148.72438 253.519842 
L 148.72438 247.771248 
L 152.118346 247.771248 
L 152.118346 242.022653 
L 155.56889 242.022653 
L 155.56889 236.274059 
L 206.330743 236.274059 
L 206.330743 230.525465 
L 207.571794 230.525465 
L 207.571794 224.776871 
L 208.137686 224.776871 
L 208.137686 219.028277 
L 208.454059 219.028277 
L 208.454059 213.279683 
L 209.059577 213.279683 
L 209.059577 207.531089 
L 209.439142 207.531089 
L 209.439142 201.782495 
L 210.237934 201.782495 
L 210.237934 196.033901 
L 210.690704 196.033901 
L 210.690704 190.285307 
L 210.828765 190.285307 
L 210.828765 184.536713 
L 211.594661 184.536713 
L 211.594661 178.788119 
L 271.494518 178.788119 
L 271.494518 173.039525 
L 272.045887 173.039525 
L 272.045887 167.290931 
L 272.140834 167.290931 
L 272.140834 161.542337 
L 272.246008 161.542337 
L 272.246008 155.793743 
L 272.593295 155.793743 
L 272.593295 150.045149 
L 272.87261 150.045149 
L 272.87261 144.296554 
L 273.215879 144.296554 
L 273.215879 138.54796 
L 273.26426 138.54796 
L 273.26426 132.799366 
L 273.459602 132.799366 
L 273.459602 127.050772 
L 273.688964 127.050772 
L 273.688964 121.302178 
L 273.688964 121.302178 
L 273.688964 121.302178 
L 460.8 121.302178 
" clip-path="url(#p175b19f5b0)" style="fill: none; stroke: #bf00bf; stroke-width: 1.5; stroke-linecap: square"/>
   </g>
   <g id="line2d_54">
    <path clip-path="url(#p175b19f5b0)" style="fill: none; stroke: #bf00bf; stroke-width: 1.5; stroke-linecap: square"/>
   </g>
   <g id="line2d_55">
    <path d="M 132.654916 293.76 
L 132.654916 288.011406 
L 138.98324 288.011406 
L 138.98324 282.262812 
L 140.650253 282.262812 
L 140.650253 276.514218 
L 141.953578 276.514218 
L 141.953578 270.765624 
L 143.614167 270.765624 
L 143.614167 265.01703 
L 143.748811 265.01703 
L 143.748811 259.268436 
L 148.608801 259.268436 
L 148.608801 253.519842 
L 148.72438 253.519842 
L 148.72438 247.771248 
L 152.118346 247.771248 
L 152.118346 242.022653 
L 155.56889 242.022653 
L 155.56889 236.274059 
L 224.387578 236.274059 
L 224.387578 230.525465 
L 224.580278 230.525465 
L 224.580278 224.776871 
L 224.917587 224.776871 
L 224.917587 219.028277 
L 224.962299 219.028277 
L 224.962299 213.279683 
L 225.018104 213.279683 
L 225.018104 207.531089 
L 226.103836 207.531089 
L 226.103836 201.782495 
L 226.190015 201.782495 
L 226.190015 196.033901 
L 227.258907 196.033901 
L 227.258907 190.285307 
L 227.456133 190.285307 
L 227.456133 184.536713 
L 227.662461 184.536713 
L 227.662461 178.788119 
L 274.785508 178.788119 
L 274.785508 173.039525 
L 274.916394 173.039525 
L 274.916394 167.290931 
L 275.399022 167.290931 
L 275.399022 161.542337 
L 275.532224 161.542337 
L 275.532224 155.793743 
L 275.62467 155.793743 
L 275.62467 150.045149 
L 275.78759 150.045149 
L 275.78759 144.296554 
L 276.385042 144.296554 
L 276.385042 138.54796 
L 276.482025 138.54796 
L 276.482025 132.799366 
L 276.587916 132.799366 
L 276.587916 127.050772 
L 276.661378 127.050772 
L 276.661378 121.302178 
L 276.661378 121.302178 
L 276.661378 121.302178 
L 460.8 121.302178 
" clip-path="url(#p175b19f5b0)" style="fill: none; stroke: #ff0000; stroke-width: 3; stroke-linecap: square"/>
   </g>
   <g id="line2d_56">
    <path clip-path="url(#p175b19f5b0)" style="fill: none; stroke: #ff0000; stroke-width: 3; stroke-linecap: square"/>
   </g>
   <g id="line2d_57">
    <path d="M 449.872208 293.76 
L 449.872208 3.456 
" clip-path="url(#p175b19f5b0)" style="fill: none; stroke: #000000; stroke-width: 1.5; stroke-linecap: square"/>
   </g>
   <g id="patch_3">
    <path d="M 62.208 293.76 
L 62.208 3.456 
" style="fill: none; stroke: #000000; stroke-width: 0.8; stroke-linejoin: miter; stroke-linecap: square"/>
   </g>
   <g id="patch_4">
    <path d="M 460.8 293.76 
L 460.8 3.456 
" style="fill: none; stroke: #000000; stroke-width: 0.8; stroke-linejoin: miter; stroke-linecap: square"/>
   </g>
   <g id="patch_5">
    <path d="M 62.208 293.76 
L 460.8 293.76 
" style="fill: none; stroke: #000000; stroke-width: 0.8; stroke-linejoin: miter; stroke-linecap: square"/>
   </g>
   <g id="patch_6">
    <path d="M 62.208 3.456 
L 460.8 3.456 
" style="fill: none; stroke: #000000; stroke-width: 0.8; stroke-linejoin: miter; stroke-linecap: square"/>
   </g>
   <g id="text_12">
    <!-- {f1-f5}, 20-D -->
    <g transform="translate(195.0165 24.458955)scale(0.2 -0.2)">
     <defs>
      <path id="DejaVuSans-7b" d="M 3272 -594 
L 3272 -1044 
L 3078 -1044 
Q 2300 -1044 2036 -812 
Q 1772 -581 1772 109 
L 1772 856 
Q 1772 1328 1603 1509 
Q 1434 1691 991 1691 
L 800 1691 
L 800 2138 
L 991 2138 
Q 1438 2138 1605 2317 
Q 1772 2497 1772 2963 
L 1772 3713 
Q 1772 4403 2036 4633 
Q 2300 4863 3078 4863 
L 3272 4863 
L 3272 4416 
L 3059 4416 
Q 2619 4416 2484 4278 
Q 2350 4141 2350 3700 
L 2350 2925 
Q 2350 2434 2208 2212 
Q 2066 1991 1722 1913 
Q 2069 1828 2209 1606 
Q 2350 1384 2350 897 
L 2350 122 
Q 2350 -319 2484 -456 
Q 2619 -594 3059 -594 
L 3272 -594 
z
" transform="scale(0.015625)"/>
      <path id="DejaVuSans-2d" d="M 313 2009 
L 1997 2009 
L 1997 1497 
L 313 1497 
L 313 2009 
z
" transform="scale(0.015625)"/>
      <path id="DejaVuSans-7d" d="M 800 -594 
L 1019 -594 
Q 1456 -594 1589 -459 
Q 1722 -325 1722 122 
L 1722 897 
Q 1722 1384 1862 1606 
Q 2003 1828 2350 1913 
Q 2003 1991 1862 2212 
Q 1722 2434 1722 2925 
L 1722 3700 
Q 1722 4144 1589 4280 
Q 1456 4416 1019 4416 
L 800 4416 
L 800 4863 
L 997 4863 
Q 1775 4863 2036 4633 
Q 2297 4403 2297 3713 
L 2297 2963 
Q 2297 2497 2465 2317 
Q 2634 2138 3078 2138 
L 3272 2138 
L 3272 1691 
L 3078 1691 
Q 2634 1691 2465 1509 
Q 2297 1328 2297 856 
L 2297 109 
Q 2297 -581 2036 -812 
Q 1775 -1044 997 -1044 
L 800 -1044 
L 800 -594 
z
" transform="scale(0.015625)"/>
      <path id="DejaVuSans-2c" d="M 750 794 
L 1409 794 
L 1409 256 
L 897 -744 
L 494 -744 
L 750 256 
L 750 794 
z
" transform="scale(0.015625)"/>
     </defs>
     <use xlink:href="#DejaVuSans-7b"/>
     <use xlink:href="#DejaVuSans-66" x="63.623047"/>
     <use xlink:href="#DejaVuSans-31" x="98.828125"/>
     <use xlink:href="#DejaVuSans-2d" x="162.451172"/>
     <use xlink:href="#DejaVuSans-66" x="198.535156"/>
     <use xlink:href="#DejaVuSans-35" x="233.740234"/>
     <use xlink:href="#DejaVuSans-7d" x="297.363281"/>
     <use xlink:href="#DejaVuSans-2c" x="360.986328"/>
     <use xlink:href="#DejaVuSans-20" x="392.773438"/>
     <use xlink:href="#DejaVuSans-32" x="424.560547"/>
     <use xlink:href="#DejaVuSans-30" x="488.183594"/>
     <use xlink:href="#DejaVuSans-2d" x="551.806641"/>
     <use xlink:href="#DejaVuSans-44" x="587.890625"/>
    </g>
   </g>
   <g id="text_13">
    <!-- absolute targets -->
    <g transform="translate(62.208 609.166194)scale(0.14 -0.14)">
     <defs>
      <path id="DejaVuSans-62" d="M 3116 1747 
Q 3116 2381 2855 2742 
Q 2594 3103 2138 3103 
Q 1681 3103 1420 2742 
Q 1159 2381 1159 1747 
Q 1159 1113 1420 752 
Q 1681 391 2138 391 
Q 2594 391 2855 752 
Q 3116 1113 3116 1747 
z
M 1159 2969 
Q 1341 3281 1617 3432 
Q 1894 3584 2278 3584 
Q 2916 3584 3314 3078 
Q 3713 2572 3713 1747 
Q 3713 922 3314 415 
Q 2916 -91 2278 -91 
Q 1894 -91 1617 61 
Q 1341 213 1159 525 
L 1159 0 
L 581 0 
L 581 4863 
L 1159 4863 
L 1159 2969 
z
" transform="scale(0.015625)"/>
      <path id="DejaVuSans-75" d="M 544 1381 
L 544 3500 
L 1119 3500 
L 1119 1403 
Q 1119 906 1312 657 
Q 1506 409 1894 409 
Q 2359 409 2629 706 
Q 2900 1003 2900 1516 
L 2900 3500 
L 3475 3500 
L 3475 0 
L 2900 0 
L 2900 538 
Q 2691 219 2414 64 
Q 2138 -91 1772 -91 
Q 1169 -91 856 284 
Q 544 659 544 1381 
z
M 1991 3584 
L 1991 3584 
z
" transform="scale(0.015625)"/>
      <path id="DejaVuSans-65" d="M 3597 1894 
L 3597 1613 
L 953 1613 
Q 991 1019 1311 708 
Q 1631 397 2203 397 
Q 2534 397 2845 478 
Q 3156 559 3463 722 
L 3463 178 
Q 3153 47 2828 -22 
Q 2503 -91 2169 -91 
Q 1331 -91 842 396 
Q 353 884 353 1716 
Q 353 2575 817 3079 
Q 1281 3584 2069 3584 
Q 2775 3584 3186 3129 
Q 3597 2675 3597 1894 
z
M 3022 2063 
Q 3016 2534 2758 2815 
Q 2500 3097 2075 3097 
Q 1594 3097 1305 2825 
Q 1016 2553 972 2059 
L 3022 2063 
z
" transform="scale(0.015625)"/>
     </defs>
     <use xlink:href="#DejaVuSans-61"/>
     <use xlink:href="#DejaVuSans-62" x="61.279297"/>
     <use xlink:href="#DejaVuSans-73" x="124.755859"/>
     <use xlink:href="#DejaVuSans-6f" x="176.855469"/>
     <use xlink:href="#DejaVuSans-6c" x="238.037109"/>
     <use xlink:href="#DejaVuSans-75" x="265.820312"/>
     <use xlink:href="#DejaVuSans-74" x="329.199219"/>
     <use xlink:href="#DejaVuSans-65" x="368.408203"/>
     <use xlink:href="#DejaVuSans-20" x="429.931641"/>
     <use xlink:href="#DejaVuSans-74" x="461.71875"/>
     <use xlink:href="#DejaVuSans-61" x="500.927734"/>
     <use xlink:href="#DejaVuSans-72" x="562.207031"/>
     <use xlink:href="#DejaVuSans-67" x="601.570312"/>
     <use xlink:href="#DejaVuSans-65" x="665.046875"/>
     <use xlink:href="#DejaVuSans-74" x="726.570312"/>
     <use xlink:href="#DejaVuSans-73" x="765.779297"/>
    </g>
   </g>
   <g id="text_14">
    <!-- v2.6.3 -->
    <g style="fill: #808080" transform="translate(245.82275 288.777272)scale(0.1 -0.1)">
     <use xlink:href="#DejaVuSans-76"/>
     <use xlink:href="#DejaVuSans-32" x="59.179688"/>
     <use xlink:href="#DejaVuSans-2e" x="122.802734"/>
     <use xlink:href="#DejaVuSans-36" x="154.589844"/>
     <use xlink:href="#DejaVuSans-2e" x="218.212891"/>
     <use xlink:href="#DejaVuSans-33" x="250"/>
    </g>
   </g>
   <g id="legend_1">
    <g id="patch_7">
     <path d="M 76.208 136.881 
L 205.429875 136.881 
Q 209.429875 136.881 209.429875 132.881 
L 209.429875 17.456 
Q 209.429875 13.456 205.429875 13.456 
L 76.208 13.456 
Q 72.208 13.456 72.208 17.456 
L 72.208 132.881 
Q 72.208 136.881 76.208 136.881 
z
" style="fill: #ffffff; opacity: 0.2; stroke: #cccccc; stroke-linejoin: miter"/>
    </g>
    <g id="line2d_58">
     <path d="M 80.208 29.652875 
L 80.208 29.652875 
L 100.208 29.652875 
L 100.208 29.652875 
L 120.208 29.652875 
" style="fill: none; stroke: #000000; stroke-width: 1.5; stroke-linecap: square"/>
    </g>
    <g id="text_15">
     <!-- 1: 4/5 -->
     <g transform="translate(136.208 36.652875)scale(0.2 -0.2)">
      <defs>
       <path id="DejaVuSans-3a" d="M 750 794 
L 1409 794 
L 1409 0 
L 750 0 
L 750 794 
z
M 750 3309 
L 1409 3309 
L 1409 2516 
L 750 2516 
L 750 3309 
z
" transform="scale(0.015625)"/>
      </defs>
      <use xlink:href="#DejaVuSans-31"/>
      <use xlink:href="#DejaVuSans-3a" x="63.623047"/>
      <use xlink:href="#DejaVuSans-20" x="97.314453"/>
      <use xlink:href="#DejaVuSans-34" x="129.101562"/>
      <use xlink:href="#DejaVuSans-2f" x="192.724609"/>
      <use xlink:href="#DejaVuSans-35" x="226.416016"/>
     </g>
    </g>
    <g id="line2d_59">
     <path d="M 80.208 59.009125 
L 80.208 59.009125 
L 100.208 59.009125 
L 100.208 59.009125 
L 120.208 59.009125 
" style="fill: none; stroke: #00bfbf; stroke-width: 1.5; stroke-linecap: square"/>
    </g>
    <g id="text_16">
     <!-- -1: 3/5 -->
     <g transform="translate(136.208 66.009125)scale(0.2 -0.2)">
      <use xlink:href="#DejaVuSans-2d"/>
      <use xlink:href="#DejaVuSans-31" x="36.083984"/>
      <use xlink:href="#DejaVuSans-3a" x="99.707031"/>
      <use xlink:href="#DejaVuSans-20" x="133.398438"/>
      <use xlink:href="#DejaVuSans-33" x="165.185547"/>
      <use xlink:href="#DejaVuSans-2f" x="228.808594"/>
      <use xlink:href="#DejaVuSans-35" x="262.5"/>
     </g>
    </g>
    <g id="line2d_60">
     <path d="M 80.208 88.365375 
L 80.208 88.365375 
L 100.208 88.365375 
L 100.208 88.365375 
L 120.208 88.365375 
" style="fill: none; stroke: #bf00bf; stroke-width: 1.5; stroke-linecap: square"/>
    </g>
    <g id="text_17">
     <!-- -4: 3/5 -->
     <g transform="translate(136.208 95.365375)scale(0.2 -0.2)">
      <use xlink:href="#DejaVuSans-2d"/>
      <use xlink:href="#DejaVuSans-34" x="36.083984"/>
      <use xlink:href="#DejaVuSans-3a" x="99.707031"/>
      <use xlink:href="#DejaVuSans-20" x="133.398438"/>
      <use xlink:href="#DejaVuSans-33" x="165.185547"/>
      <use xlink:href="#DejaVuSans-2f" x="228.808594"/>
      <use xlink:href="#DejaVuSans-35" x="262.5"/>
     </g>
    </g>
    <g id="line2d_61">
     <path d="M 80.208 117.721625 
L 80.208 117.721625 
L 100.208 117.721625 
L 100.208 117.721625 
L 120.208 117.721625 
" style="fill: none; stroke: #ff0000; stroke-width: 3; stroke-linecap: square"/>
    </g>
    <g id="text_18">
     <!-- -8: 3/5 -->
     <g transform="translate(136.208 124.721625)scale(0.2 -0.2)">
      <use xlink:href="#DejaVuSans-2d"/>
      <use xlink:href="#DejaVuSans-38" x="36.083984"/>
      <use xlink:href="#DejaVuSans-3a" x="99.707031"/>
      <use xlink:href="#DejaVuSans-20" x="133.398438"/>
      <use xlink:href="#DejaVuSans-33" x="165.185547"/>
      <use xlink:href="#DejaVuSans-2f" x="228.808594"/>
      <use xlink:href="#DejaVuSans-35" x="262.5"/>
     </g>
    </g>
   </g>
  </g>
 </g>
 <defs>
  <clipPath id="p175b19f5b0">
   <rect x="62.208" y="3.456" width="398.592" height="290.304"/>
  </clipPath>
 </defs>
</svg>
