<?xml version="1.0" encoding="utf-8" standalone="no"?>
<!DOCTYPE svg PUBLIC "-//W3C//DTD SVG 1.1//EN"
  "http://www.w3.org/Graphics/SVG/1.1/DTD/svg11.dtd">
<svg xmlns:xlink="http://www.w3.org/1999/xlink" width="460.8pt" height="345.6pt" viewBox="0 0 460.8 345.6" xmlns="http://www.w3.org/2000/svg" version="1.1">
 <metadata>
  <rdf:RDF xmlns:dc="http://purl.org/dc/elements/1.1/" xmlns:cc="http://creativecommons.org/ns#" xmlns:rdf="http://www.w3.org/1999/02/22-rdf-syntax-ns#">
   <cc:Work>
    <dc:type rdf:resource="http://purl.org/dc/dcmitype/StillImage"/>
    <dc:date>2023-04-07T14:56:26.816965</dc:date>
    <dc:format>image/svg+xml</dc:format>
    <dc:creator>
     <cc:Agent>
      <dc:title>Matplotlib v3.5.2, https://matplotlib.org/</dc:title>
     </cc:Agent>
    </dc:creator>
   </cc:Work>
  </rdf:RDF>
 </metadata>
 <defs>
  <style type="text/css">*{stroke-linejoin: round; stroke-linecap: butt}</style>
 </defs>
 <g id="figure_1">
  <g id="patch_1">
   <path d="M 0 345.6 
L 460.8 345.6 
L 460.8 0 
L 0 0 
z
" style="fill: #ffffff"/>
  </g>
  <g id="axes_1">
   <g id="patch_2">
    <path d="M 0 293.76 
L 460.8 293.76 
L 460.8 3.456 
L 0 3.456 
z
" style="fill: #ffffff"/>
   </g>
   <g id="matplotlib.axis_1">
    <g id="xtick_1">
     <g id="line2d_1">
      <path d="M 106.871117 293.76 
L 106.871117 3.456 
" clip-path="url(#pe45e783d4a)" style="fill: none; stroke: #b0b0b0; stroke-width: 0.8; stroke-linecap: square"/>
     </g>
     <g id="line2d_2">
      <defs>
       <path id="mdc3e000423" d="M 0 0 
L 0 3.5 
" style="stroke: #000000; stroke-width: 0.8"/>
      </defs>
      <g>
       <use xlink:href="#mdc3e000423" x="106.871117" y="293.76" style="stroke: #000000; stroke-width: 0.8"/>
      </g>
     </g>
     <g id="text_1">
      <!-- -4 -->
      <g transform="translate(96.900804 315.956875)scale(0.2 -0.2)">
       <defs>
        <path id="DejaVuSans-2d" d="M 313 2009 
L 1997 2009 
L 1997 1497 
L 313 1497 
L 313 2009 
z
" transform="scale(0.015625)"/>
        <path id="DejaVuSans-34" d="M 2419 4116 
L 825 1625 
L 2419 1625 
L 2419 4116 
z
M 2253 4666 
L 3047 4666 
L 3047 1625 
L 3713 1625 
L 3713 1100 
L 3047 1100 
L 3047 0 
L 2419 0 
L 2419 1100 
L 313 1100 
L 313 1709 
L 2253 4666 
z
" transform="scale(0.015625)"/>
       </defs>
       <use xlink:href="#DejaVuSans-2d"/>
       <use xlink:href="#DejaVuSans-34" x="36.083984"/>
      </g>
     </g>
    </g>
    <g id="xtick_2">
     <g id="line2d_3">
      <path d="M 213.857816 293.76 
L 213.857816 3.456 
" clip-path="url(#pe45e783d4a)" style="fill: none; stroke: #b0b0b0; stroke-width: 0.8; stroke-linecap: square"/>
     </g>
     <g id="line2d_4">
      <g>
       <use xlink:href="#mdc3e000423" x="213.857816" y="293.76" style="stroke: #000000; stroke-width: 0.8"/>
      </g>
     </g>
     <g id="text_2">
      <!-- 0 -->
      <g transform="translate(207.495316 315.956875)scale(0.2 -0.2)">
       <defs>
        <path id="DejaVuSans-30" d="M 2034 4250 
Q 1547 4250 1301 3770 
Q 1056 3291 1056 2328 
Q 1056 1369 1301 889 
Q 1547 409 2034 409 
Q 2525 409 2770 889 
Q 3016 1369 3016 2328 
Q 3016 3291 2770 3770 
Q 2525 4250 2034 4250 
z
M 2034 4750 
Q 2819 4750 3233 4129 
Q 3647 3509 3647 2328 
Q 3647 1150 3233 529 
Q 2819 -91 2034 -91 
Q 1250 -91 836 529 
Q 422 1150 422 2328 
Q 422 3509 836 4129 
Q 1250 4750 2034 4750 
z
" transform="scale(0.015625)"/>
       </defs>
       <use xlink:href="#DejaVuSans-30"/>
      </g>
     </g>
    </g>
    <g id="xtick_3">
     <g id="line2d_5">
      <path d="M 320.844515 293.76 
L 320.844515 3.456 
" clip-path="url(#pe45e783d4a)" style="fill: none; stroke: #b0b0b0; stroke-width: 0.8; stroke-linecap: square"/>
     </g>
     <g id="line2d_6">
      <g>
       <use xlink:href="#mdc3e000423" x="320.844515" y="293.76" style="stroke: #000000; stroke-width: 0.8"/>
      </g>
     </g>
     <g id="text_3">
      <!-- 4 -->
      <g transform="translate(314.482015 315.956875)scale(0.2 -0.2)">
       <use xlink:href="#DejaVuSans-34"/>
      </g>
     </g>
    </g>
    <g id="xtick_4">
     <g id="line2d_7">
      <path d="M 427.831214 293.76 
L 427.831214 3.456 
" clip-path="url(#pe45e783d4a)" style="fill: none; stroke: #b0b0b0; stroke-width: 0.8; stroke-linecap: square"/>
     </g>
     <g id="line2d_8">
      <g>
       <use xlink:href="#mdc3e000423" x="427.831214" y="293.76" style="stroke: #000000; stroke-width: 0.8"/>
      </g>
     </g>
     <g id="text_4">
      <!-- 8 -->
      <g transform="translate(421.468714 315.956875)scale(0.2 -0.2)">
       <defs>
        <path id="DejaVuSans-38" d="M 2034 2216 
Q 1584 2216 1326 1975 
Q 1069 1734 1069 1313 
Q 1069 891 1326 650 
Q 1584 409 2034 409 
Q 2484 409 2743 651 
Q 3003 894 3003 1313 
Q 3003 1734 2745 1975 
Q 2488 2216 2034 2216 
z
M 1403 2484 
Q 997 2584 770 2862 
Q 544 3141 544 3541 
Q 544 4100 942 4425 
Q 1341 4750 2034 4750 
Q 2731 4750 3128 4425 
Q 3525 4100 3525 3541 
Q 3525 3141 3298 2862 
Q 3072 2584 2669 2484 
Q 3125 2378 3379 2068 
Q 3634 1759 3634 1313 
Q 3634 634 3220 271 
Q 2806 -91 2034 -91 
Q 1263 -91 848 271 
Q 434 634 434 1313 
Q 434 1759 690 2068 
Q 947 2378 1403 2484 
z
M 1172 3481 
Q 1172 3119 1398 2916 
Q 1625 2713 2034 2713 
Q 2441 2713 2670 2916 
Q 2900 3119 2900 3481 
Q 2900 3844 2670 4047 
Q 2441 4250 2034 4250 
Q 1625 4250 1398 4047 
Q 1172 3844 1172 3481 
z
" transform="scale(0.015625)"/>
       </defs>
       <use xlink:href="#DejaVuSans-38"/>
      </g>
     </g>
    </g>
    <g id="text_5">
     <!-- log10 of Df -->
     <g transform="translate(175.214063 339.313125)scale(0.2 -0.2)">
      <defs>
       <path id="DejaVuSans-6c" d="M 603 4863 
L 1178 4863 
L 1178 0 
L 603 0 
L 603 4863 
z
" transform="scale(0.015625)"/>
       <path id="DejaVuSans-6f" d="M 1959 3097 
Q 1497 3097 1228 2736 
Q 959 2375 959 1747 
Q 959 1119 1226 758 
Q 1494 397 1959 397 
Q 2419 397 2687 759 
Q 2956 1122 2956 1747 
Q 2956 2369 2687 2733 
Q 2419 3097 1959 3097 
z
M 1959 3584 
Q 2709 3584 3137 3096 
Q 3566 2609 3566 1747 
Q 3566 888 3137 398 
Q 2709 -91 1959 -91 
Q 1206 -91 779 398 
Q 353 888 353 1747 
Q 353 2609 779 3096 
Q 1206 3584 1959 3584 
z
" transform="scale(0.015625)"/>
       <path id="DejaVuSans-67" d="M 2906 1791 
Q 2906 2416 2648 2759 
Q 2391 3103 1925 3103 
Q 1463 3103 1205 2759 
Q 947 2416 947 1791 
Q 947 1169 1205 825 
Q 1463 481 1925 481 
Q 2391 481 2648 825 
Q 2906 1169 2906 1791 
z
M 3481 434 
Q 3481 -459 3084 -895 
Q 2688 -1331 1869 -1331 
Q 1566 -1331 1297 -1286 
Q 1028 -1241 775 -1147 
L 775 -588 
Q 1028 -725 1275 -790 
Q 1522 -856 1778 -856 
Q 2344 -856 2625 -561 
Q 2906 -266 2906 331 
L 2906 616 
Q 2728 306 2450 153 
Q 2172 0 1784 0 
Q 1141 0 747 490 
Q 353 981 353 1791 
Q 353 2603 747 3093 
Q 1141 3584 1784 3584 
Q 2172 3584 2450 3431 
Q 2728 3278 2906 2969 
L 2906 3500 
L 3481 3500 
L 3481 434 
z
" transform="scale(0.015625)"/>
       <path id="DejaVuSans-31" d="M 794 531 
L 1825 531 
L 1825 4091 
L 703 3866 
L 703 4441 
L 1819 4666 
L 2450 4666 
L 2450 531 
L 3481 531 
L 3481 0 
L 794 0 
L 794 531 
z
" transform="scale(0.015625)"/>
       <path id="DejaVuSans-20" transform="scale(0.015625)"/>
       <path id="DejaVuSans-66" d="M 2375 4863 
L 2375 4384 
L 1825 4384 
Q 1516 4384 1395 4259 
Q 1275 4134 1275 3809 
L 1275 3500 
L 2222 3500 
L 2222 3053 
L 1275 3053 
L 1275 0 
L 697 0 
L 697 3053 
L 147 3053 
L 147 3500 
L 697 3500 
L 697 3744 
Q 697 4328 969 4595 
Q 1241 4863 1831 4863 
L 2375 4863 
z
" transform="scale(0.015625)"/>
       <path id="DejaVuSans-44" d="M 1259 4147 
L 1259 519 
L 2022 519 
Q 2988 519 3436 956 
Q 3884 1394 3884 2338 
Q 3884 3275 3436 3711 
Q 2988 4147 2022 4147 
L 1259 4147 
z
M 628 4666 
L 1925 4666 
Q 3281 4666 3915 4102 
Q 4550 3538 4550 2338 
Q 4550 1131 3912 565 
Q 3275 0 1925 0 
L 628 0 
L 628 4666 
z
" transform="scale(0.015625)"/>
      </defs>
      <use xlink:href="#DejaVuSans-6c"/>
      <use xlink:href="#DejaVuSans-6f" x="27.783203"/>
      <use xlink:href="#DejaVuSans-67" x="88.964844"/>
      <use xlink:href="#DejaVuSans-31" x="152.441406"/>
      <use xlink:href="#DejaVuSans-30" x="216.064453"/>
      <use xlink:href="#DejaVuSans-20" x="279.6875"/>
      <use xlink:href="#DejaVuSans-6f" x="311.474609"/>
      <use xlink:href="#DejaVuSans-66" x="372.65625"/>
      <use xlink:href="#DejaVuSans-20" x="407.861328"/>
      <use xlink:href="#DejaVuSans-44" x="439.648438"/>
      <use xlink:href="#DejaVuSans-66" x="516.650391"/>
     </g>
    </g>
   </g>
   <g id="matplotlib.axis_2">
    <g id="ytick_1">
     <g id="line2d_9">
      <path d="M 0 293.76 
L 460.8 293.76 
" clip-path="url(#pe45e783d4a)" style="fill: none; stroke: #b0b0b0; stroke-width: 0.8; stroke-linecap: square"/>
     </g>
     <g id="line2d_10">
      <defs>
       <path id="m64d26ac7c0" d="M 0 0 
L -3.5 0 
" style="stroke: #000000; stroke-width: 0.8"/>
      </defs>
      <g>
       <use xlink:href="#m64d26ac7c0" x="0" y="293.76" style="stroke: #000000; stroke-width: 0.8"/>
      </g>
     </g>
    </g>
    <g id="ytick_2">
     <g id="line2d_11">
      <path d="M 0 236.274059 
L 460.8 236.274059 
" clip-path="url(#pe45e783d4a)" style="fill: none; stroke: #b0b0b0; stroke-width: 0.8; stroke-linecap: square"/>
     </g>
     <g id="line2d_12">
      <g>
       <use xlink:href="#m64d26ac7c0" x="0" y="236.274059" style="stroke: #000000; stroke-width: 0.8"/>
      </g>
     </g>
    </g>
    <g id="ytick_3">
     <g id="line2d_13">
      <path d="M 0 178.788119 
L 460.8 178.788119 
" clip-path="url(#pe45e783d4a)" style="fill: none; stroke: #b0b0b0; stroke-width: 0.8; stroke-linecap: square"/>
     </g>
     <g id="line2d_14">
      <g>
       <use xlink:href="#m64d26ac7c0" x="0" y="178.788119" style="stroke: #000000; stroke-width: 0.8"/>
      </g>
     </g>
    </g>
    <g id="ytick_4">
     <g id="line2d_15">
      <path d="M 0 121.302178 
L 460.8 121.302178 
" clip-path="url(#pe45e783d4a)" style="fill: none; stroke: #b0b0b0; stroke-width: 0.8; stroke-linecap: square"/>
     </g>
     <g id="line2d_16">
      <g>
       <use xlink:href="#m64d26ac7c0" x="0" y="121.302178" style="stroke: #000000; stroke-width: 0.8"/>
      </g>
     </g>
    </g>
    <g id="ytick_5">
     <g id="line2d_17">
      <path d="M 0 63.816238 
L 460.8 63.816238 
" clip-path="url(#pe45e783d4a)" style="fill: none; stroke: #b0b0b0; stroke-width: 0.8; stroke-linecap: square"/>
     </g>
     <g id="line2d_18">
      <g>
       <use xlink:href="#m64d26ac7c0" x="0" y="63.816238" style="stroke: #000000; stroke-width: 0.8"/>
      </g>
     </g>
    </g>
    <g id="ytick_6">
     <g id="line2d_19">
      <path d="M 0 6.330297 
L 460.8 6.330297 
" clip-path="url(#pe45e783d4a)" style="fill: none; stroke: #b0b0b0; stroke-width: 0.8; stroke-linecap: square"/>
     </g>
     <g id="line2d_20">
      <g>
       <use xlink:href="#m64d26ac7c0" x="0" y="6.330297" style="stroke: #000000; stroke-width: 0.8"/>
      </g>
     </g>
    </g>
   </g>
   <g id="line2d_21">
    <path d="M -1 20.701782 
L -0.968029 20.701782 
L -0.968029 15.911287 
L -0.678626 15.911287 
L -0.678626 11.120792 
L -0.27433 11.120792 
L -0.27433 6.330297 
L -0.27433 6.330297 
L -0.27433 6.330297 
L 460.8 6.330297 
" clip-path="url(#pe45e783d4a)" style="fill: none; stroke: #ff0000; stroke-width: 3; stroke-linecap: square"/>
   </g>
   <g id="line2d_22">
    <path d="M 243.754525 293.76 
L 243.754525 288.969505 
L 251.703648 288.969505 
L 251.703648 284.17901 
L 251.703648 284.17901 
L 251.703648 279.388515 
L 251.703648 279.388515 
L 251.703648 274.59802 
L 251.703648 274.59802 
L 251.703648 269.807525 
L 251.703648 269.807525 
L 251.703648 265.01703 
L 251.703648 265.01703 
L 251.703648 260.226535 
L 251.703648 260.226535 
L 251.703648 255.43604 
L 251.703648 255.43604 
L 251.703648 250.645545 
L 251.703648 250.645545 
L 251.703648 245.85505 
L 251.703648 245.85505 
L 251.703648 241.064554 
L 251.703648 241.064554 
L 251.703648 236.274059 
L 251.703648 236.274059 
L 251.703648 231.483564 
L 251.703648 231.483564 
L 251.703648 226.693069 
L 251.703648 226.693069 
L 251.703648 221.902574 
L 251.703648 221.902574 
L 251.703648 217.112079 
L 254.362091 217.112079 
L 254.362091 212.321584 
L 264.111827 212.321584 
L 264.111827 207.531089 
L 264.371703 207.531089 
L 264.371703 202.740594 
L 267.385657 202.740594 
L 267.385657 197.950099 
L 268.697452 197.950099 
L 268.697452 193.159604 
L 271.773598 193.159604 
L 271.773598 188.369109 
L 272.050667 188.369109 
L 272.050667 183.578614 
L 272.811572 183.578614 
L 272.811572 178.788119 
L 273.120149 178.788119 
L 273.120149 173.997624 
L 274.712918 173.997624 
L 274.712918 169.207129 
L 279.731394 169.207129 
L 279.731394 164.416634 
L 282.701194 164.416634 
L 282.701194 159.626139 
L 284.979481 159.626139 
L 284.979481 154.835644 
L 286.767248 154.835644 
L 286.767248 150.045149 
L 286.954485 150.045149 
L 286.954485 145.254653 
L 290.48979 145.254653 
L 290.48979 140.464158 
L 297.38473 140.464158 
L 297.38473 135.673663 
L 304.463595 135.673663 
L 304.463595 130.883168 
L 307.567581 130.883168 
L 307.567581 126.092673 
L 310.24116 126.092673 
L 310.24116 121.302178 
L 310.461454 121.302178 
L 310.461454 116.511683 
L 310.495902 116.511683 
L 310.495902 111.721188 
L 313.850759 111.721188 
L 313.850759 106.930693 
L 314.718196 106.930693 
L 314.718196 102.140198 
L 316.095124 102.140198 
L 316.095124 97.349703 
L 319.374256 97.349703 
L 319.374256 92.559208 
L 322.437432 92.559208 
L 322.437432 87.768713 
L 325.14928 87.768713 
L 325.14928 82.978218 
L 326.658841 82.978218 
L 326.658841 78.187723 
L 327.1285 78.187723 
L 327.1285 73.397228 
L 327.836861 73.397228 
L 327.836861 68.606733 
L 328.227636 68.606733 
L 328.227636 63.816238 
L 338.040773 63.816238 
L 338.040773 59.025743 
L 340.660686 59.025743 
L 340.660686 54.235248 
L 341.759921 54.235248 
L 341.759921 49.444752 
L 344.362964 49.444752 
L 344.362964 44.654257 
L 349.081491 44.654257 
L 349.081491 39.863762 
L 351.276937 39.863762 
L 351.276937 35.073267 
L 353.156783 35.073267 
L 353.156783 30.282772 
L 354.020682 30.282772 
L 354.020682 25.492277 
L 357.657021 25.492277 
L 357.657021 20.701782 
L 361.126579 20.701782 
L 361.126579 15.911287 
L 364.675002 15.911287 
L 364.675002 11.120792 
L 367.983579 11.120792 
L 367.983579 6.330297 
L 367.983579 6.330297 
L 367.983579 6.330297 
L 460.8 6.330297 
" clip-path="url(#pe45e783d4a)" style="fill: none; stroke: #00bfbf; stroke-width: 1.5; stroke-linecap: square"/>
   </g>
   <g id="line2d_23">
    <path d="M 243.754525 293.76 
L 243.754525 288.969505 
L 251.703648 288.969505 
L 251.703648 284.17901 
L 251.703648 284.17901 
L 251.703648 279.388515 
L 251.703648 279.388515 
L 251.703648 274.59802 
L 251.703648 274.59802 
L 251.703648 269.807525 
L 251.703648 269.807525 
L 251.703648 265.01703 
L 251.703648 265.01703 
L 251.703648 260.226535 
L 251.703648 260.226535 
L 251.703648 255.43604 
L 251.703648 255.43604 
L 251.703648 250.645545 
L 251.703648 250.645545 
L 251.703648 245.85505 
L 251.703648 245.85505 
L 251.703648 241.064554 
L 251.703648 241.064554 
L 251.703648 236.274059 
L 251.703648 236.274059 
L 251.703648 231.483564 
L 251.703648 231.483564 
L 251.703648 226.693069 
L 251.703648 226.693069 
L 251.703648 221.902574 
L 251.703648 221.902574 
L 251.703648 217.112079 
L 254.362091 217.112079 
L 254.362091 212.321584 
L 256.853811 212.321584 
L 256.853811 207.531089 
L 262.449032 207.531089 
L 262.449032 202.740594 
L 262.521295 202.740594 
L 262.521295 197.950099 
L 263.67197 197.950099 
L 263.67197 193.159604 
L 264.111827 193.159604 
L 264.111827 188.369109 
L 264.371703 188.369109 
L 264.371703 183.578614 
L 267.385657 183.578614 
L 267.385657 178.788119 
L 270.543032 178.788119 
L 270.543032 173.997624 
L 271.409012 173.997624 
L 271.409012 169.207129 
L 271.533868 169.207129 
L 271.533868 164.416634 
L 272.050667 164.416634 
L 272.050667 159.626139 
L 273.732102 159.626139 
L 273.732102 154.835644 
L 274.712918 154.835644 
L 274.712918 150.045149 
L 278.926545 150.045149 
L 278.926545 145.254653 
L 279.731394 145.254653 
L 279.731394 140.464158 
L 281.686582 140.464158 
L 281.686582 135.673663 
L 282.488602 135.673663 
L 282.488602 130.883168 
L 284.530441 130.883168 
L 284.530441 126.092673 
L 287.400588 126.092673 
L 287.400588 121.302178 
L 290.085604 121.302178 
L 290.085604 116.511683 
L 297.38473 116.511683 
L 297.38473 111.721188 
L 303.572521 111.721188 
L 303.572521 106.930693 
L 303.60209 106.930693 
L 303.60209 102.140198 
L 309.006639 102.140198 
L 309.006639 97.349703 
L 309.411617 97.349703 
L 309.411617 92.559208 
L 310.24116 92.559208 
L 310.24116 87.768713 
L 310.461454 87.768713 
L 310.461454 82.978218 
L 312.938953 82.978218 
L 312.938953 78.187723 
L 313.850759 78.187723 
L 313.850759 73.397228 
L 316.612593 73.397228 
L 316.612593 68.606733 
L 319.0515 68.606733 
L 319.0515 63.816238 
L 325.14928 63.816238 
L 325.14928 59.025743 
L 327.836861 59.025743 
L 327.836861 54.235248 
L 334.473224 54.235248 
L 334.473224 49.444752 
L 336.680799 49.444752 
L 336.680799 44.654257 
L 341.759921 44.654257 
L 341.759921 39.863762 
L 343.565306 39.863762 
L 343.565306 35.073267 
L 349.081491 35.073267 
L 349.081491 30.282772 
L 350.351453 30.282772 
L 350.351453 25.492277 
L 354.130666 25.492277 
L 354.130666 20.701782 
L 357.657021 20.701782 
L 357.657021 15.911287 
L 359.889758 15.911287 
L 359.889758 11.120792 
L 361.126579 11.120792 
L 361.126579 6.330297 
L 361.126579 6.330297 
L 361.126579 6.330297 
L 460.8 6.330297 
" clip-path="url(#pe45e783d4a)" style="fill: none; stroke: #bf00bf; stroke-width: 1.5; stroke-linecap: square"/>
   </g>
   <g id="line2d_24">
    <path d="M 243.754525 293.76 
L 243.754525 288.969505 
L 245.187849 288.969505 
L 245.187849 284.17901 
L 249.128278 284.17901 
L 249.128278 279.388515 
L 251.703648 279.388515 
L 251.703648 274.59802 
L 251.703648 274.59802 
L 251.703648 269.807525 
L 251.703648 269.807525 
L 251.703648 265.01703 
L 251.703648 265.01703 
L 251.703648 260.226535 
L 251.703648 260.226535 
L 251.703648 255.43604 
L 251.703648 255.43604 
L 251.703648 250.645545 
L 251.703648 250.645545 
L 251.703648 245.85505 
L 251.703648 245.85505 
L 251.703648 241.064554 
L 251.703648 241.064554 
L 251.703648 236.274059 
L 251.703648 236.274059 
L 251.703648 231.483564 
L 251.703648 231.483564 
L 251.703648 226.693069 
L 251.703648 226.693069 
L 251.703648 221.902574 
L 251.703648 221.902574 
L 251.703648 217.112079 
L 251.703648 217.112079 
L 251.703648 212.321584 
L 251.703648 212.321584 
L 251.703648 207.531089 
L 253.198777 207.531089 
L 253.198777 202.740594 
L 253.295262 202.740594 
L 253.295262 197.950099 
L 254.362091 197.950099 
L 254.362091 193.159604 
L 254.469171 193.159604 
L 254.469171 188.369109 
L 256.853811 188.369109 
L 256.853811 183.578614 
L 260.166212 183.578614 
L 260.166212 178.788119 
L 261.645316 178.788119 
L 261.645316 173.997624 
L 262.692601 173.997624 
L 262.692601 169.207129 
L 263.67197 169.207129 
L 263.67197 164.416634 
L 263.699817 164.416634 
L 263.699817 159.626139 
L 264.371703 159.626139 
L 264.371703 154.835644 
L 265.329413 154.835644 
L 265.329413 150.045149 
L 267.385657 150.045149 
L 267.385657 145.254653 
L 268.747628 145.254653 
L 268.747628 140.464158 
L 268.998713 140.464158 
L 268.998713 135.673663 
L 270.857616 135.673663 
L 270.857616 130.883168 
L 271.533868 130.883168 
L 271.533868 126.092673 
L 272.953768 126.092673 
L 272.953768 121.302178 
L 282.488602 121.302178 
L 282.488602 116.511683 
L 284.530441 116.511683 
L 284.530441 111.721188 
L 289.691806 111.721188 
L 289.691806 106.930693 
L 290.085604 106.930693 
L 290.085604 102.140198 
L 292.178083 102.140198 
L 292.178083 97.349703 
L 295.779425 97.349703 
L 295.779425 92.559208 
L 297.38473 92.559208 
L 297.38473 87.768713 
L 302.862858 87.768713 
L 302.862858 82.978218 
L 304.632847 82.978218 
L 304.632847 78.187723 
L 308.605925 78.187723 
L 308.605925 73.397228 
L 310.461454 73.397228 
L 310.461454 68.606733 
L 311.660216 68.606733 
L 311.660216 63.816238 
L 312.088028 63.816238 
L 312.088028 59.025743 
L 323.807139 59.025743 
L 323.807139 54.235248 
L 325.173682 54.235248 
L 325.173682 49.444752 
L 327.624035 49.444752 
L 327.624035 44.654257 
L 329.994918 44.654257 
L 329.994918 39.863762 
L 334.473224 39.863762 
L 334.473224 35.073267 
L 334.806329 35.073267 
L 334.806329 30.282772 
L 335.061883 30.282772 
L 335.061883 25.492277 
L 342.790797 25.492277 
L 342.790797 20.701782 
L 343.156736 20.701782 
L 343.156736 15.911287 
L 343.771368 15.911287 
L 343.771368 11.120792 
L 345.547231 11.120792 
L 345.547231 6.330297 
L 345.547231 6.330297 
L 345.547231 6.330297 
L 460.8 6.330297 
" clip-path="url(#pe45e783d4a)" style="fill: none; stroke: #000000; stroke-width: 1.5; stroke-linecap: square"/>
   </g>
   <g id="line2d_25">
    <path d="M 230.577396 293.76 
L 230.577396 288.969505 
L 235.300158 288.969505 
L 235.300158 284.17901 
L 235.413877 284.17901 
L 235.413877 279.388515 
L 235.815304 279.388515 
L 235.815304 274.59802 
L 237.222233 274.59802 
L 237.222233 269.807525 
L 238.494404 269.807525 
L 238.494404 265.01703 
L 241.898389 265.01703 
L 241.898389 260.226535 
L 242.254751 260.226535 
L 242.254751 255.43604 
L 243.754525 255.43604 
L 243.754525 250.645545 
L 244.652898 250.645545 
L 244.652898 245.85505 
L 245.187849 245.85505 
L 245.187849 241.064554 
L 245.286349 241.064554 
L 245.286349 236.274059 
L 245.36056 236.274059 
L 245.36056 231.483564 
L 245.956104 231.483564 
L 245.956104 226.693069 
L 247.61525 226.693069 
L 247.61525 221.902574 
L 250.990382 221.902574 
L 250.990382 217.112079 
L 251.703648 217.112079 
L 251.703648 212.321584 
L 251.703648 212.321584 
L 251.703648 207.531089 
L 251.703648 207.531089 
L 251.703648 202.740594 
L 251.703648 202.740594 
L 251.703648 197.950099 
L 251.703648 197.950099 
L 251.703648 193.159604 
L 251.703648 193.159604 
L 251.703648 188.369109 
L 251.703648 188.369109 
L 251.703648 183.578614 
L 251.703648 183.578614 
L 251.703648 178.788119 
L 251.703648 178.788119 
L 251.703648 173.997624 
L 251.703648 173.997624 
L 251.703648 169.207129 
L 251.703648 169.207129 
L 251.703648 164.416634 
L 251.703648 164.416634 
L 251.703648 159.626139 
L 251.703648 159.626139 
L 251.703648 154.835644 
L 251.703648 154.835644 
L 251.703648 150.045149 
L 254.520365 150.045149 
L 254.520365 145.254653 
L 255.5425 145.254653 
L 255.5425 140.464158 
L 256.550224 140.464158 
L 256.550224 135.673663 
L 257.013932 135.673663 
L 257.013932 130.883168 
L 258.159699 130.883168 
L 258.159699 126.092673 
L 258.710534 126.092673 
L 258.710534 121.302178 
L 259.91926 121.302178 
L 259.91926 116.511683 
L 260.675381 116.511683 
L 260.675381 111.721188 
L 260.85095 111.721188 
L 260.85095 106.930693 
L 261.260992 106.930693 
L 261.260992 102.140198 
L 263.20646 102.140198 
L 263.20646 97.349703 
L 264.520761 97.349703 
L 264.520761 92.559208 
L 264.606096 92.559208 
L 264.606096 87.768713 
L 271.533868 87.768713 
L 271.533868 82.978218 
L 276.806968 82.978218 
L 276.806968 78.187723 
L 277.87516 78.187723 
L 277.87516 73.397228 
L 278.980384 73.397228 
L 278.980384 68.606733 
L 280.391297 68.606733 
L 280.391297 63.816238 
L 280.816324 63.816238 
L 280.816324 59.025743 
L 284.093708 59.025743 
L 284.093708 54.235248 
L 284.530441 54.235248 
L 284.530441 49.444752 
L 284.702858 49.444752 
L 284.702858 44.654257 
L 286.878491 44.654257 
L 286.878491 39.863762 
L 287.221553 39.863762 
L 287.221553 35.073267 
L 288.598498 35.073267 
L 288.598498 30.282772 
L 290.085604 30.282772 
L 290.085604 25.492277 
L 290.304636 25.492277 
L 290.304636 20.701782 
L 290.754708 20.701782 
L 290.754708 15.911287 
L 296.102277 15.911287 
L 296.102277 11.120792 
L 296.320591 11.120792 
L 296.320591 6.330297 
L 296.320591 6.330297 
L 296.320591 6.330297 
L 460.8 6.330297 
" clip-path="url(#pe45e783d4a)" style="fill: none; stroke: #00bfbf; stroke-width: 1.5; stroke-linecap: square"/>
   </g>
   <g id="line2d_26">
    <path d="M -1 288.969505 
L 18.274909 288.969505 
L 18.274909 284.17901 
L 35.474195 284.17901 
L 35.474195 279.388515 
L 44.417389 279.388515 
L 44.417389 274.59802 
L 147.441041 274.59802 
L 147.441041 269.807525 
L 152.188615 269.807525 
L 152.188615 265.01703 
L 171.01535 265.01703 
L 171.01535 260.226535 
L 173.336567 260.226535 
L 173.336567 255.43604 
L 175.491199 255.43604 
L 175.491199 250.645545 
L 178.198504 250.645545 
L 178.198504 245.85505 
L 179.451988 245.85505 
L 179.451988 241.064554 
L 183.853148 241.064554 
L 183.853148 236.274059 
L 187.139437 236.274059 
L 187.139437 231.483564 
L 189.320451 231.483564 
L 189.320451 226.693069 
L 189.998769 226.693069 
L 189.998769 221.902574 
L 191.473813 221.902574 
L 191.473813 217.112079 
L 193.511176 217.112079 
L 193.511176 212.321584 
L 193.535433 212.321584 
L 193.535433 207.531089 
L 193.695879 207.531089 
L 193.695879 202.740594 
L 196.081077 202.740594 
L 196.081077 197.950099 
L 198.894019 197.950099 
L 198.894019 193.159604 
L 201.762112 193.159604 
L 201.762112 188.369109 
L 203.261628 188.369109 
L 203.261628 183.578614 
L 204.854754 183.578614 
L 204.854754 178.788119 
L 206.295425 178.788119 
L 206.295425 173.997624 
L 209.184956 173.997624 
L 209.184956 169.207129 
L 209.453652 169.207129 
L 209.453652 164.416634 
L 210.059656 164.416634 
L 210.059656 159.626139 
L 211.03223 159.626139 
L 211.03223 154.835644 
L 212.15403 154.835644 
L 212.15403 150.045149 
L 212.757956 150.045149 
L 212.757956 145.254653 
L 215.450909 145.254653 
L 215.450909 140.464158 
L 217.808403 140.464158 
L 217.808403 135.673663 
L 218.589949 135.673663 
L 218.589949 130.883168 
L 218.850676 130.883168 
L 218.850676 126.092673 
L 219.385517 126.092673 
L 219.385517 121.302178 
L 220.085185 121.302178 
L 220.085185 116.511683 
L 220.90028 116.511683 
L 220.90028 111.721188 
L 221.040079 111.721188 
L 221.040079 106.930693 
L 221.952999 106.930693 
L 221.952999 102.140198 
L 223.201848 102.140198 
L 223.201848 97.349703 
L 223.837417 97.349703 
L 223.837417 92.559208 
L 224.071117 92.559208 
L 224.071117 87.768713 
L 224.356654 87.768713 
L 224.356654 82.978218 
L 224.416437 82.978218 
L 224.416437 78.187723 
L 224.866482 78.187723 
L 224.866482 73.397228 
L 225.906244 73.397228 
L 225.906244 68.606733 
L 225.967539 68.606733 
L 225.967539 63.816238 
L 225.995205 63.816238 
L 225.995205 59.025743 
L 226.117007 59.025743 
L 226.117007 54.235248 
L 226.928212 54.235248 
L 226.928212 49.444752 
L 226.9414 49.444752 
L 226.9414 44.654257 
L 227.592892 44.654257 
L 227.592892 39.863762 
L 228.795606 39.863762 
L 228.795606 35.073267 
L 229.097407 35.073267 
L 229.097407 30.282772 
L 229.354056 30.282772 
L 229.354056 25.492277 
L 229.784021 25.492277 
L 229.784021 20.701782 
L 230.127374 20.701782 
L 230.127374 15.911287 
L 231.173858 15.911287 
L 231.173858 11.120792 
L 231.305639 11.120792 
L 231.305639 6.330297 
L 231.305639 6.330297 
L 231.305639 6.330297 
L 460.8 6.330297 
" clip-path="url(#pe45e783d4a)" style="fill: none; stroke: #bf00bf; stroke-width: 1.5; stroke-linecap: square"/>
   </g>
   <g id="patch_3">
    <path d="M 0 293.76 
L 0 3.456 
" style="fill: none; stroke: #000000; stroke-width: 0.8; stroke-linejoin: miter; stroke-linecap: square"/>
   </g>
   <g id="patch_4">
    <path d="M 460.8 293.76 
L 460.8 3.456 
" style="fill: none; stroke: #000000; stroke-width: 0.8; stroke-linejoin: miter; stroke-linecap: square"/>
   </g>
   <g id="patch_5">
    <path d="M 0 293.76 
L 460.8 293.76 
" style="fill: none; stroke: #000000; stroke-width: 0.8; stroke-linejoin: miter; stroke-linecap: square"/>
   </g>
   <g id="patch_6">
    <path d="M 0 3.456 
L 460.8 3.456 
" style="fill: none; stroke: #000000; stroke-width: 0.8; stroke-linejoin: miter; stroke-linecap: square"/>
   </g>
   <g id="text_6">
    <!-- {f6-f9}, 5-D -->
    <g transform="translate(331.334 287.95392)scale(0.2 -0.2)">
     <defs>
      <path id="DejaVuSans-7b" d="M 3272 -594 
L 3272 -1044 
L 3078 -1044 
Q 2300 -1044 2036 -812 
Q 1772 -581 1772 109 
L 1772 856 
Q 1772 1328 1603 1509 
Q 1434 1691 991 1691 
L 800 1691 
L 800 2138 
L 991 2138 
Q 1438 2138 1605 2317 
Q 1772 2497 1772 2963 
L 1772 3713 
Q 1772 4403 2036 4633 
Q 2300 4863 3078 4863 
L 3272 4863 
L 3272 4416 
L 3059 4416 
Q 2619 4416 2484 4278 
Q 2350 4141 2350 3700 
L 2350 2925 
Q 2350 2434 2208 2212 
Q 2066 1991 1722 1913 
Q 2069 1828 2209 1606 
Q 2350 1384 2350 897 
L 2350 122 
Q 2350 -319 2484 -456 
Q 2619 -594 3059 -594 
L 3272 -594 
z
" transform="scale(0.015625)"/>
      <path id="DejaVuSans-36" d="M 2113 2584 
Q 1688 2584 1439 2293 
Q 1191 2003 1191 1497 
Q 1191 994 1439 701 
Q 1688 409 2113 409 
Q 2538 409 2786 701 
Q 3034 994 3034 1497 
Q 3034 2003 2786 2293 
Q 2538 2584 2113 2584 
z
M 3366 4563 
L 3366 3988 
Q 3128 4100 2886 4159 
Q 2644 4219 2406 4219 
Q 1781 4219 1451 3797 
Q 1122 3375 1075 2522 
Q 1259 2794 1537 2939 
Q 1816 3084 2150 3084 
Q 2853 3084 3261 2657 
Q 3669 2231 3669 1497 
Q 3669 778 3244 343 
Q 2819 -91 2113 -91 
Q 1303 -91 875 529 
Q 447 1150 447 2328 
Q 447 3434 972 4092 
Q 1497 4750 2381 4750 
Q 2619 4750 2861 4703 
Q 3103 4656 3366 4563 
z
" transform="scale(0.015625)"/>
      <path id="DejaVuSans-39" d="M 703 97 
L 703 672 
Q 941 559 1184 500 
Q 1428 441 1663 441 
Q 2288 441 2617 861 
Q 2947 1281 2994 2138 
Q 2813 1869 2534 1725 
Q 2256 1581 1919 1581 
Q 1219 1581 811 2004 
Q 403 2428 403 3163 
Q 403 3881 828 4315 
Q 1253 4750 1959 4750 
Q 2769 4750 3195 4129 
Q 3622 3509 3622 2328 
Q 3622 1225 3098 567 
Q 2575 -91 1691 -91 
Q 1453 -91 1209 -44 
Q 966 3 703 97 
z
M 1959 2075 
Q 2384 2075 2632 2365 
Q 2881 2656 2881 3163 
Q 2881 3666 2632 3958 
Q 2384 4250 1959 4250 
Q 1534 4250 1286 3958 
Q 1038 3666 1038 3163 
Q 1038 2656 1286 2365 
Q 1534 2075 1959 2075 
z
" transform="scale(0.015625)"/>
      <path id="DejaVuSans-7d" d="M 800 -594 
L 1019 -594 
Q 1456 -594 1589 -459 
Q 1722 -325 1722 122 
L 1722 897 
Q 1722 1384 1862 1606 
Q 2003 1828 2350 1913 
Q 2003 1991 1862 2212 
Q 1722 2434 1722 2925 
L 1722 3700 
Q 1722 4144 1589 4280 
Q 1456 4416 1019 4416 
L 800 4416 
L 800 4863 
L 997 4863 
Q 1775 4863 2036 4633 
Q 2297 4403 2297 3713 
L 2297 2963 
Q 2297 2497 2465 2317 
Q 2634 2138 3078 2138 
L 3272 2138 
L 3272 1691 
L 3078 1691 
Q 2634 1691 2465 1509 
Q 2297 1328 2297 856 
L 2297 109 
Q 2297 -581 2036 -812 
Q 1775 -1044 997 -1044 
L 800 -1044 
L 800 -594 
z
" transform="scale(0.015625)"/>
      <path id="DejaVuSans-2c" d="M 750 794 
L 1409 794 
L 1409 256 
L 897 -744 
L 494 -744 
L 750 256 
L 750 794 
z
" transform="scale(0.015625)"/>
      <path id="DejaVuSans-35" d="M 691 4666 
L 3169 4666 
L 3169 4134 
L 1269 4134 
L 1269 2991 
Q 1406 3038 1543 3061 
Q 1681 3084 1819 3084 
Q 2600 3084 3056 2656 
Q 3513 2228 3513 1497 
Q 3513 744 3044 326 
Q 2575 -91 1722 -91 
Q 1428 -91 1123 -41 
Q 819 9 494 109 
L 494 744 
Q 775 591 1075 516 
Q 1375 441 1709 441 
Q 2250 441 2565 725 
Q 2881 1009 2881 1497 
Q 2881 1984 2565 2268 
Q 2250 2553 1709 2553 
Q 1456 2553 1204 2497 
Q 953 2441 691 2322 
L 691 4666 
z
" transform="scale(0.015625)"/>
     </defs>
     <use xlink:href="#DejaVuSans-7b"/>
     <use xlink:href="#DejaVuSans-66" x="63.623047"/>
     <use xlink:href="#DejaVuSans-36" x="98.828125"/>
     <use xlink:href="#DejaVuSans-2d" x="162.451172"/>
     <use xlink:href="#DejaVuSans-66" x="198.535156"/>
     <use xlink:href="#DejaVuSans-39" x="233.740234"/>
     <use xlink:href="#DejaVuSans-7d" x="297.363281"/>
     <use xlink:href="#DejaVuSans-2c" x="360.986328"/>
     <use xlink:href="#DejaVuSans-20" x="392.773438"/>
     <use xlink:href="#DejaVuSans-35" x="424.560547"/>
     <use xlink:href="#DejaVuSans-2d" x="488.183594"/>
     <use xlink:href="#DejaVuSans-44" x="524.267578"/>
    </g>
   </g>
   <g id="text_7">
    <!-- v2.6.3 -->
    <g style="fill: #808080" transform="translate(214.71875 288.777272)scale(0.1 -0.1)">
     <defs>
      <path id="DejaVuSans-76" d="M 191 3500 
L 800 3500 
L 1894 563 
L 2988 3500 
L 3597 3500 
L 2284 0 
L 1503 0 
L 191 3500 
z
" transform="scale(0.015625)"/>
      <path id="DejaVuSans-32" d="M 1228 531 
L 3431 531 
L 3431 0 
L 469 0 
L 469 531 
Q 828 903 1448 1529 
Q 2069 2156 2228 2338 
Q 2531 2678 2651 2914 
Q 2772 3150 2772 3378 
Q 2772 3750 2511 3984 
Q 2250 4219 1831 4219 
Q 1534 4219 1204 4116 
Q 875 4013 500 3803 
L 500 4441 
Q 881 4594 1212 4672 
Q 1544 4750 1819 4750 
Q 2544 4750 2975 4387 
Q 3406 4025 3406 3419 
Q 3406 3131 3298 2873 
Q 3191 2616 2906 2266 
Q 2828 2175 2409 1742 
Q 1991 1309 1228 531 
z
" transform="scale(0.015625)"/>
      <path id="DejaVuSans-2e" d="M 684 794 
L 1344 794 
L 1344 0 
L 684 0 
L 684 794 
z
" transform="scale(0.015625)"/>
      <path id="DejaVuSans-33" d="M 2597 2516 
Q 3050 2419 3304 2112 
Q 3559 1806 3559 1356 
Q 3559 666 3084 287 
Q 2609 -91 1734 -91 
Q 1441 -91 1130 -33 
Q 819 25 488 141 
L 488 750 
Q 750 597 1062 519 
Q 1375 441 1716 441 
Q 2309 441 2620 675 
Q 2931 909 2931 1356 
Q 2931 1769 2642 2001 
Q 2353 2234 1838 2234 
L 1294 2234 
L 1294 2753 
L 1863 2753 
Q 2328 2753 2575 2939 
Q 2822 3125 2822 3475 
Q 2822 3834 2567 4026 
Q 2313 4219 1838 4219 
Q 1578 4219 1281 4162 
Q 984 4106 628 3988 
L 628 4550 
Q 988 4650 1302 4700 
Q 1616 4750 1894 4750 
Q 2613 4750 3031 4423 
Q 3450 4097 3450 3541 
Q 3450 3153 3228 2886 
Q 3006 2619 2597 2516 
z
" transform="scale(0.015625)"/>
     </defs>
     <use xlink:href="#DejaVuSans-76"/>
     <use xlink:href="#DejaVuSans-32" x="59.179688"/>
     <use xlink:href="#DejaVuSans-2e" x="122.802734"/>
     <use xlink:href="#DejaVuSans-36" x="154.589844"/>
     <use xlink:href="#DejaVuSans-2e" x="218.212891"/>
     <use xlink:href="#DejaVuSans-33" x="250"/>
    </g>
   </g>
  </g>
 </g>
 <defs>
  <clipPath id="pe45e783d4a">
   <rect x="0" y="3.456" width="460.8" height="290.304"/>
  </clipPath>
 </defs>
</svg>
