<?xml version="1.0" encoding="utf-8" standalone="no"?>
<!DOCTYPE svg PUBLIC "-//W3C//DTD SVG 1.1//EN"
  "http://www.w3.org/Graphics/SVG/1.1/DTD/svg11.dtd">
<svg xmlns:xlink="http://www.w3.org/1999/xlink" width="460.8pt" height="345.6pt" viewBox="0 0 460.8 345.6" xmlns="http://www.w3.org/2000/svg" version="1.1">
 <metadata>
  <rdf:RDF xmlns:dc="http://purl.org/dc/elements/1.1/" xmlns:cc="http://creativecommons.org/ns#" xmlns:rdf="http://www.w3.org/1999/02/22-rdf-syntax-ns#">
   <cc:Work>
    <dc:type rdf:resource="http://purl.org/dc/dcmitype/StillImage"/>
    <dc:date>2023-04-07T14:56:26.139045</dc:date>
    <dc:format>image/svg+xml</dc:format>
    <dc:creator>
     <cc:Agent>
      <dc:title>Matplotlib v3.5.2, https://matplotlib.org/</dc:title>
     </cc:Agent>
    </dc:creator>
   </cc:Work>
  </rdf:RDF>
 </metadata>
 <defs>
  <style type="text/css">*{stroke-linejoin: round; stroke-linecap: butt}</style>
 </defs>
 <g id="figure_1">
  <g id="patch_1">
   <path d="M 0 345.6 
L 460.8 345.6 
L 460.8 0 
L 0 0 
z
" style="fill: #ffffff"/>
  </g>
  <g id="axes_1">
   <g id="patch_2">
    <path d="M 0 293.76 
L 460.8 293.76 
L 460.8 3.456 
L 0 3.456 
z
" style="fill: #ffffff"/>
   </g>
   <g id="matplotlib.axis_1">
    <g id="xtick_1">
     <g id="line2d_1">
      <path d="M 106.871117 293.76 
L 106.871117 3.456 
" clip-path="url(#p6fafd02595)" style="fill: none; stroke: #b0b0b0; stroke-width: 0.8; stroke-linecap: square"/>
     </g>
     <g id="line2d_2">
      <defs>
       <path id="md7e953df56" d="M 0 0 
L 0 3.5 
" style="stroke: #000000; stroke-width: 0.8"/>
      </defs>
      <g>
       <use xlink:href="#md7e953df56" x="106.871117" y="293.76" style="stroke: #000000; stroke-width: 0.8"/>
      </g>
     </g>
     <g id="text_1">
      <!-- -4 -->
      <g transform="translate(96.900804 315.956875)scale(0.2 -0.2)">
       <defs>
        <path id="DejaVuSans-2d" d="M 313 2009 
L 1997 2009 
L 1997 1497 
L 313 1497 
L 313 2009 
z
" transform="scale(0.015625)"/>
        <path id="DejaVuSans-34" d="M 2419 4116 
L 825 1625 
L 2419 1625 
L 2419 4116 
z
M 2253 4666 
L 3047 4666 
L 3047 1625 
L 3713 1625 
L 3713 1100 
L 3047 1100 
L 3047 0 
L 2419 0 
L 2419 1100 
L 313 1100 
L 313 1709 
L 2253 4666 
z
" transform="scale(0.015625)"/>
       </defs>
       <use xlink:href="#DejaVuSans-2d"/>
       <use xlink:href="#DejaVuSans-34" x="36.083984"/>
      </g>
     </g>
    </g>
    <g id="xtick_2">
     <g id="line2d_3">
      <path d="M 213.857816 293.76 
L 213.857816 3.456 
" clip-path="url(#p6fafd02595)" style="fill: none; stroke: #b0b0b0; stroke-width: 0.8; stroke-linecap: square"/>
     </g>
     <g id="line2d_4">
      <g>
       <use xlink:href="#md7e953df56" x="213.857816" y="293.76" style="stroke: #000000; stroke-width: 0.8"/>
      </g>
     </g>
     <g id="text_2">
      <!-- 0 -->
      <g transform="translate(207.495316 315.956875)scale(0.2 -0.2)">
       <defs>
        <path id="DejaVuSans-30" d="M 2034 4250 
Q 1547 4250 1301 3770 
Q 1056 3291 1056 2328 
Q 1056 1369 1301 889 
Q 1547 409 2034 409 
Q 2525 409 2770 889 
Q 3016 1369 3016 2328 
Q 3016 3291 2770 3770 
Q 2525 4250 2034 4250 
z
M 2034 4750 
Q 2819 4750 3233 4129 
Q 3647 3509 3647 2328 
Q 3647 1150 3233 529 
Q 2819 -91 2034 -91 
Q 1250 -91 836 529 
Q 422 1150 422 2328 
Q 422 3509 836 4129 
Q 1250 4750 2034 4750 
z
" transform="scale(0.015625)"/>
       </defs>
       <use xlink:href="#DejaVuSans-30"/>
      </g>
     </g>
    </g>
    <g id="xtick_3">
     <g id="line2d_5">
      <path d="M 320.844515 293.76 
L 320.844515 3.456 
" clip-path="url(#p6fafd02595)" style="fill: none; stroke: #b0b0b0; stroke-width: 0.8; stroke-linecap: square"/>
     </g>
     <g id="line2d_6">
      <g>
       <use xlink:href="#md7e953df56" x="320.844515" y="293.76" style="stroke: #000000; stroke-width: 0.8"/>
      </g>
     </g>
     <g id="text_3">
      <!-- 4 -->
      <g transform="translate(314.482015 315.956875)scale(0.2 -0.2)">
       <use xlink:href="#DejaVuSans-34"/>
      </g>
     </g>
    </g>
    <g id="xtick_4">
     <g id="line2d_7">
      <path d="M 427.831214 293.76 
L 427.831214 3.456 
" clip-path="url(#p6fafd02595)" style="fill: none; stroke: #b0b0b0; stroke-width: 0.8; stroke-linecap: square"/>
     </g>
     <g id="line2d_8">
      <g>
       <use xlink:href="#md7e953df56" x="427.831214" y="293.76" style="stroke: #000000; stroke-width: 0.8"/>
      </g>
     </g>
     <g id="text_4">
      <!-- 8 -->
      <g transform="translate(421.468714 315.956875)scale(0.2 -0.2)">
       <defs>
        <path id="DejaVuSans-38" d="M 2034 2216 
Q 1584 2216 1326 1975 
Q 1069 1734 1069 1313 
Q 1069 891 1326 650 
Q 1584 409 2034 409 
Q 2484 409 2743 651 
Q 3003 894 3003 1313 
Q 3003 1734 2745 1975 
Q 2488 2216 2034 2216 
z
M 1403 2484 
Q 997 2584 770 2862 
Q 544 3141 544 3541 
Q 544 4100 942 4425 
Q 1341 4750 2034 4750 
Q 2731 4750 3128 4425 
Q 3525 4100 3525 3541 
Q 3525 3141 3298 2862 
Q 3072 2584 2669 2484 
Q 3125 2378 3379 2068 
Q 3634 1759 3634 1313 
Q 3634 634 3220 271 
Q 2806 -91 2034 -91 
Q 1263 -91 848 271 
Q 434 634 434 1313 
Q 434 1759 690 2068 
Q 947 2378 1403 2484 
z
M 1172 3481 
Q 1172 3119 1398 2916 
Q 1625 2713 2034 2713 
Q 2441 2713 2670 2916 
Q 2900 3119 2900 3481 
Q 2900 3844 2670 4047 
Q 2441 4250 2034 4250 
Q 1625 4250 1398 4047 
Q 1172 3844 1172 3481 
z
" transform="scale(0.015625)"/>
       </defs>
       <use xlink:href="#DejaVuSans-38"/>
      </g>
     </g>
    </g>
    <g id="text_5">
     <!-- log10 of Df -->
     <g transform="translate(175.214063 339.313125)scale(0.2 -0.2)">
      <defs>
       <path id="DejaVuSans-6c" d="M 603 4863 
L 1178 4863 
L 1178 0 
L 603 0 
L 603 4863 
z
" transform="scale(0.015625)"/>
       <path id="DejaVuSans-6f" d="M 1959 3097 
Q 1497 3097 1228 2736 
Q 959 2375 959 1747 
Q 959 1119 1226 758 
Q 1494 397 1959 397 
Q 2419 397 2687 759 
Q 2956 1122 2956 1747 
Q 2956 2369 2687 2733 
Q 2419 3097 1959 3097 
z
M 1959 3584 
Q 2709 3584 3137 3096 
Q 3566 2609 3566 1747 
Q 3566 888 3137 398 
Q 2709 -91 1959 -91 
Q 1206 -91 779 398 
Q 353 888 353 1747 
Q 353 2609 779 3096 
Q 1206 3584 1959 3584 
z
" transform="scale(0.015625)"/>
       <path id="DejaVuSans-67" d="M 2906 1791 
Q 2906 2416 2648 2759 
Q 2391 3103 1925 3103 
Q 1463 3103 1205 2759 
Q 947 2416 947 1791 
Q 947 1169 1205 825 
Q 1463 481 1925 481 
Q 2391 481 2648 825 
Q 2906 1169 2906 1791 
z
M 3481 434 
Q 3481 -459 3084 -895 
Q 2688 -1331 1869 -1331 
Q 1566 -1331 1297 -1286 
Q 1028 -1241 775 -1147 
L 775 -588 
Q 1028 -725 1275 -790 
Q 1522 -856 1778 -856 
Q 2344 -856 2625 -561 
Q 2906 -266 2906 331 
L 2906 616 
Q 2728 306 2450 153 
Q 2172 0 1784 0 
Q 1141 0 747 490 
Q 353 981 353 1791 
Q 353 2603 747 3093 
Q 1141 3584 1784 3584 
Q 2172 3584 2450 3431 
Q 2728 3278 2906 2969 
L 2906 3500 
L 3481 3500 
L 3481 434 
z
" transform="scale(0.015625)"/>
       <path id="DejaVuSans-31" d="M 794 531 
L 1825 531 
L 1825 4091 
L 703 3866 
L 703 4441 
L 1819 4666 
L 2450 4666 
L 2450 531 
L 3481 531 
L 3481 0 
L 794 0 
L 794 531 
z
" transform="scale(0.015625)"/>
       <path id="DejaVuSans-20" transform="scale(0.015625)"/>
       <path id="DejaVuSans-66" d="M 2375 4863 
L 2375 4384 
L 1825 4384 
Q 1516 4384 1395 4259 
Q 1275 4134 1275 3809 
L 1275 3500 
L 2222 3500 
L 2222 3053 
L 1275 3053 
L 1275 0 
L 697 0 
L 697 3053 
L 147 3053 
L 147 3500 
L 697 3500 
L 697 3744 
Q 697 4328 969 4595 
Q 1241 4863 1831 4863 
L 2375 4863 
z
" transform="scale(0.015625)"/>
       <path id="DejaVuSans-44" d="M 1259 4147 
L 1259 519 
L 2022 519 
Q 2988 519 3436 956 
Q 3884 1394 3884 2338 
Q 3884 3275 3436 3711 
Q 2988 4147 2022 4147 
L 1259 4147 
z
M 628 4666 
L 1925 4666 
Q 3281 4666 3915 4102 
Q 4550 3538 4550 2338 
Q 4550 1131 3912 565 
Q 3275 0 1925 0 
L 628 0 
L 628 4666 
z
" transform="scale(0.015625)"/>
      </defs>
      <use xlink:href="#DejaVuSans-6c"/>
      <use xlink:href="#DejaVuSans-6f" x="27.783203"/>
      <use xlink:href="#DejaVuSans-67" x="88.964844"/>
      <use xlink:href="#DejaVuSans-31" x="152.441406"/>
      <use xlink:href="#DejaVuSans-30" x="216.064453"/>
      <use xlink:href="#DejaVuSans-20" x="279.6875"/>
      <use xlink:href="#DejaVuSans-6f" x="311.474609"/>
      <use xlink:href="#DejaVuSans-66" x="372.65625"/>
      <use xlink:href="#DejaVuSans-20" x="407.861328"/>
      <use xlink:href="#DejaVuSans-44" x="439.648438"/>
      <use xlink:href="#DejaVuSans-66" x="516.650391"/>
     </g>
    </g>
   </g>
   <g id="matplotlib.axis_2">
    <g id="ytick_1">
     <g id="line2d_9">
      <path d="M 0 293.76 
L 460.8 293.76 
" clip-path="url(#p6fafd02595)" style="fill: none; stroke: #b0b0b0; stroke-width: 0.8; stroke-linecap: square"/>
     </g>
     <g id="line2d_10">
      <defs>
       <path id="md4c4f15bdd" d="M 0 0 
L -3.5 0 
" style="stroke: #000000; stroke-width: 0.8"/>
      </defs>
      <g>
       <use xlink:href="#md4c4f15bdd" x="0" y="293.76" style="stroke: #000000; stroke-width: 0.8"/>
      </g>
     </g>
    </g>
    <g id="ytick_2">
     <g id="line2d_11">
      <path d="M 0 236.274059 
L 460.8 236.274059 
" clip-path="url(#p6fafd02595)" style="fill: none; stroke: #b0b0b0; stroke-width: 0.8; stroke-linecap: square"/>
     </g>
     <g id="line2d_12">
      <g>
       <use xlink:href="#md4c4f15bdd" x="0" y="236.274059" style="stroke: #000000; stroke-width: 0.8"/>
      </g>
     </g>
    </g>
    <g id="ytick_3">
     <g id="line2d_13">
      <path d="M 0 178.788119 
L 460.8 178.788119 
" clip-path="url(#p6fafd02595)" style="fill: none; stroke: #b0b0b0; stroke-width: 0.8; stroke-linecap: square"/>
     </g>
     <g id="line2d_14">
      <g>
       <use xlink:href="#md4c4f15bdd" x="0" y="178.788119" style="stroke: #000000; stroke-width: 0.8"/>
      </g>
     </g>
    </g>
    <g id="ytick_4">
     <g id="line2d_15">
      <path d="M 0 121.302178 
L 460.8 121.302178 
" clip-path="url(#p6fafd02595)" style="fill: none; stroke: #b0b0b0; stroke-width: 0.8; stroke-linecap: square"/>
     </g>
     <g id="line2d_16">
      <g>
       <use xlink:href="#md4c4f15bdd" x="0" y="121.302178" style="stroke: #000000; stroke-width: 0.8"/>
      </g>
     </g>
    </g>
    <g id="ytick_5">
     <g id="line2d_17">
      <path d="M 0 63.816238 
L 460.8 63.816238 
" clip-path="url(#p6fafd02595)" style="fill: none; stroke: #b0b0b0; stroke-width: 0.8; stroke-linecap: square"/>
     </g>
     <g id="line2d_18">
      <g>
       <use xlink:href="#md4c4f15bdd" x="0" y="63.816238" style="stroke: #000000; stroke-width: 0.8"/>
      </g>
     </g>
    </g>
    <g id="ytick_6">
     <g id="line2d_19">
      <path d="M 0 6.330297 
L 460.8 6.330297 
" clip-path="url(#p6fafd02595)" style="fill: none; stroke: #b0b0b0; stroke-width: 0.8; stroke-linecap: square"/>
     </g>
     <g id="line2d_20">
      <g>
       <use xlink:href="#md4c4f15bdd" x="0" y="6.330297" style="stroke: #000000; stroke-width: 0.8"/>
      </g>
     </g>
    </g>
   </g>
   <g id="line2d_21">
    <path d="M -1 68.606733 
L -0.968029 68.606733 
L -0.919196 67.009901 
L -0.819795 67.009901 
L -0.790892 65.413069 
L -0.678626 65.413069 
L -0.59909 63.017822 
L -0.528611 63.017822 
L -0.435338 60.622574 
L -0.416722 60.622574 
L -0.34402 59.025743 
L -0.27433 59.025743 
L -0.227835 55.832079 
L -0.115582 55.832079 
L -0.115582 43.855842 
L 166.888585 43.855842 
L 166.888585 43.057426 
L 176.840204 43.057426 
L 176.840204 42.25901 
L 189.890357 42.25901 
L 189.890357 41.460594 
L 194.275512 41.460594 
L 194.275512 40.662178 
L 204.938402 40.662178 
L 204.938402 39.863762 
L 206.134854 39.863762 
L 206.134854 39.065347 
L 208.292146 39.065347 
L 208.292146 38.266931 
L 209.510999 38.266931 
L 209.578783 35.073267 
L 209.904498 35.073267 
L 209.904498 34.274851 
L 210.804012 34.274851 
L 210.804012 33.476436 
L 212.628188 33.476436 
L 212.628188 32.67802 
L 213.799112 32.67802 
L 213.799112 29.484356 
L 219.619413 29.484356 
L 219.619413 28.685941 
L 223.02878 28.685941 
L 223.02878 27.887525 
L 226.215461 27.887525 
L 226.215461 27.089109 
L 226.334637 27.089109 
L 226.430045 24.693861 
L 226.560519 24.693861 
L 226.560519 16.709703 
L 232.579161 16.709703 
L 232.650689 7.927129 
L 232.70105 7.927129 
L 232.732691 6.330297 
L 232.732691 6.330297 
L 460.8 6.330297 
L 460.8 6.330297 
" clip-path="url(#p6fafd02595)" style="fill: none; stroke: #ff0000; stroke-width: 3; stroke-linecap: square"/>
   </g>
   <g id="line2d_22">
    <path d="M 197.772065 293.76 
L 197.772065 281.783762 
L 224.503317 281.783762 
L 224.503317 280.985347 
L 231.69745 280.985347 
L 231.69745 280.186931 
L 232.287421 280.186931 
L 232.287421 279.388515 
L 232.621143 279.388515 
L 232.621143 278.590099 
L 233.154724 278.590099 
L 233.154724 277.791683 
L 233.93421 277.791683 
L 233.93421 276.993267 
L 234.257519 276.993267 
L 234.257519 276.194851 
L 234.69545 276.194851 
L 234.69545 275.396436 
L 235.981901 275.396436 
L 235.981901 274.59802 
L 237.668114 274.59802 
L 237.668114 273.799604 
L 237.82153 273.799604 
L 237.82153 273.001188 
L 238.086632 273.001188 
L 238.148835 271.404356 
L 238.302605 271.404356 
L 238.302605 270.605941 
L 238.860825 270.605941 
L 238.860825 269.807525 
L 239.32539 269.807525 
L 239.32539 269.009109 
L 239.710908 269.009109 
L 239.756638 267.412277 
L 239.874637 267.412277 
L 239.874637 266.613861 
L 240.607848 266.613861 
L 240.716169 265.01703 
L 240.977008 265.01703 
L 240.977008 264.218614 
L 241.294638 264.218614 
L 241.306334 262.621782 
L 241.430792 262.621782 
L 241.430792 261.823366 
L 241.637237 261.823366 
L 241.637237 261.02495 
L 241.918802 261.02495 
L 241.918802 260.226535 
L 242.567863 260.226535 
L 242.592244 258.629703 
L 243.439825 258.629703 
L 243.520309 256.234455 
L 243.754525 256.234455 
L 243.754525 255.43604 
L 244.77027 255.43604 
L 244.77027 254.637624 
L 244.928141 254.637624 
L 244.928141 253.839208 
L 245.670555 253.839208 
L 245.765913 252.242376 
L 246.24474 252.242376 
L 246.24474 251.44396 
L 246.520725 251.44396 
L 246.520725 250.645545 
L 246.810187 250.645545 
L 246.872714 249.048713 
L 247.005455 249.048713 
L 247.005455 248.250297 
L 247.291507 248.250297 
L 247.291507 247.451881 
L 247.683725 247.451881 
L 247.683725 246.653465 
L 247.843636 246.653465 
L 247.843636 245.85505 
L 248.433932 245.85505 
L 248.433932 245.056634 
L 248.949997 245.056634 
L 248.949997 244.258218 
L 249.607135 244.258218 
L 249.607135 243.459802 
L 249.842113 243.459802 
L 249.842113 242.661386 
L 249.974686 242.661386 
L 249.974686 241.86297 
L 250.776414 241.86297 
L 250.776414 241.064554 
L 250.90178 241.064554 
L 250.90178 240.266139 
L 251.614488 240.266139 
L 251.703648 227.491485 
L 251.829574 227.491485 
L 251.829574 226.693069 
L 252.006653 226.693069 
L 252.006653 225.894653 
L 252.269405 225.894653 
L 252.269405 225.096238 
L 252.530676 225.096238 
L 252.604997 223.499406 
L 252.758334 223.499406 
L 252.758334 222.70099 
L 253.053347 222.70099 
L 253.053347 221.902574 
L 253.743691 221.902574 
L 253.839162 220.305743 
L 253.944572 220.305743 
L 254.003168 217.910495 
L 254.213607 217.910495 
L 254.213607 217.112079 
L 254.362091 217.112079 
L 254.362091 216.313663 
L 254.59386 216.313663 
L 254.604333 214.716832 
L 255.092349 214.716832 
L 255.092349 213.918416 
L 255.320033 213.918416 
L 255.399252 211.523168 
L 256.16572 211.523168 
L 256.175394 209.926337 
L 256.362271 209.926337 
L 256.362271 209.127921 
L 256.546651 209.127921 
L 256.60127 207.531089 
L 257.346979 207.531089 
L 257.36217 205.934257 
L 257.686108 205.934257 
L 257.686108 205.135842 
L 257.835748 205.135842 
L 257.8972 202.740594 
L 258.085303 202.740594 
L 258.085303 201.942178 
L 258.283932 201.942178 
L 258.283932 201.143762 
L 258.481548 201.143762 
L 258.526979 199.546931 
L 258.602156 199.546931 
L 258.602156 198.748515 
L 258.863354 198.748515 
L 258.863354 197.950099 
L 259.06687 197.950099 
L 259.06687 197.151683 
L 259.372144 197.151683 
L 259.372144 196.353267 
L 259.922717 196.353267 
L 259.922717 195.554851 
L 260.363452 195.554851 
L 260.415956 193.95802 
L 260.571467 193.95802 
L 260.571467 193.159604 
L 260.885669 193.159604 
L 260.885669 192.361188 
L 261.043633 192.361188 
L 261.15422 190.764356 
L 261.177293 190.764356 
L 261.177293 189.965941 
L 261.697797 189.965941 
L 261.697797 189.167525 
L 261.986478 189.167525 
L 261.986478 188.369109 
L 262.208942 188.369109 
L 262.270768 186.772277 
L 262.39733 186.772277 
L 262.498436 183.578614 
L 262.557042 183.578614 
L 262.557042 182.780198 
L 263.016452 182.780198 
L 263.126271 179.586535 
L 263.170177 179.586535 
L 263.243047 177.989703 
L 263.324531 177.989703 
L 263.428088 175.594455 
L 263.636506 175.594455 
L 263.661815 173.997624 
L 264.111827 173.997624 
L 264.111827 173.199208 
L 264.31366 173.199208 
L 264.371703 171.602376 
L 264.520142 171.602376 
L 264.521476 170.005545 
L 264.676491 170.005545 
L 264.694166 168.408713 
L 264.84186 168.408713 
L 264.84186 167.610297 
L 265.079256 167.610297 
L 265.079256 166.811881 
L 265.305578 166.811881 
L 265.312859 165.21505 
L 265.678084 165.21505 
L 265.734394 162.819802 
L 265.899307 162.819802 
L 265.899307 162.021386 
L 266.050074 162.021386 
L 266.078821 160.424554 
L 266.367644 160.424554 
L 266.468225 158.029307 
L 266.718758 158.029307 
L 266.798866 156.432475 
L 266.859534 156.432475 
L 266.913432 154.835644 
L 267.062041 154.835644 
L 267.064538 153.238812 
L 267.214412 153.238812 
L 267.306917 151.64198 
L 267.327879 151.64198 
L 267.385657 150.045149 
L 267.475417 150.045149 
L 267.542346 147.649901 
L 267.727714 147.649901 
L 267.727714 146.851485 
L 267.973634 146.851485 
L 268.061153 145.254653 
L 268.112199 145.254653 
L 268.205656 143.657822 
L 268.225748 143.657822 
L 268.225748 138.867327 
L 268.391909 138.867327 
L 268.391909 138.068911 
L 268.697452 138.068911 
L 268.724596 136.472079 
L 269.010036 136.472079 
L 269.010036 135.673663 
L 269.292553 135.673663 
L 269.292553 134.875248 
L 269.481261 134.875248 
L 269.481261 134.076832 
L 269.791727 134.076832 
L 269.791727 133.278416 
L 270.135514 133.278416 
L 270.135514 132.48 
L 270.534673 132.48 
L 270.534673 131.681584 
L 271.435988 131.681584 
L 271.542124 128.487921 
L 271.773598 128.487921 
L 271.773598 127.689505 
L 271.889708 127.689505 
L 271.892041 126.092673 
L 272.050667 126.092673 
L 272.050667 125.294257 
L 272.476372 125.294257 
L 272.476372 124.495842 
L 272.811572 124.495842 
L 272.811572 123.697426 
L 273.120149 123.697426 
L 273.150494 122.100594 
L 273.449707 122.100594 
L 273.449707 121.302178 
L 274.171702 121.302178 
L 274.181604 119.705347 
L 274.605086 119.705347 
L 274.712918 117.310099 
L 275.305378 117.310099 
L 275.305378 116.511683 
L 277.302813 116.511683 
L 277.302813 115.713267 
L 277.420134 115.713267 
L 277.420134 114.914851 
L 277.598626 114.914851 
L 277.598626 114.116436 
L 277.794091 114.116436 
L 277.794091 113.31802 
L 278.006028 113.31802 
L 278.0282 111.721188 
L 278.327601 111.721188 
L 278.404444 110.124356 
L 278.525568 110.124356 
L 278.525568 109.325941 
L 279.662117 109.325941 
L 279.731394 107.729109 
L 279.904157 107.729109 
L 279.904157 106.930693 
L 281.710943 106.930693 
L 281.710943 106.132277 
L 282.060615 106.132277 
L 282.060615 105.333861 
L 282.701194 105.333861 
L 282.713497 103.73703 
L 282.959791 103.73703 
L 282.959791 102.938614 
L 284.299415 102.938614 
L 284.299415 102.140198 
L 284.979481 102.140198 
L 284.979481 101.341782 
L 286.767248 101.341782 
L 286.767248 100.543366 
L 286.954485 100.543366 
L 286.988156 98.946535 
L 287.996339 98.946535 
L 287.996339 98.148119 
L 288.739923 98.148119 
L 288.739923 97.349703 
L 289.173858 97.349703 
L 289.173858 96.551287 
L 289.779081 96.551287 
L 289.779081 95.752871 
L 290.371559 95.752871 
L 290.371559 94.954455 
L 290.48979 94.954455 
L 290.48979 94.15604 
L 291.279985 94.15604 
L 291.279985 93.357624 
L 291.864336 93.357624 
L 291.952375 91.760792 
L 292.740685 91.760792 
L 292.740685 90.962376 
L 293.091831 90.962376 
L 293.091831 90.16396 
L 294.467595 90.16396 
L 294.467595 89.365545 
L 294.643727 89.365545 
L 294.643727 88.567129 
L 296.850829 88.567129 
L 296.850829 87.768713 
L 297.090678 87.768713 
L 297.090678 86.970297 
L 297.38473 86.970297 
L 297.38473 86.171881 
L 301.641597 86.171881 
L 301.641597 85.373465 
L 302.871284 85.373465 
L 302.871284 84.57505 
L 304.463595 84.57505 
L 304.463595 83.776634 
L 307.567581 83.776634 
L 307.567581 82.978218 
L 310.24116 82.978218 
L 310.24116 82.179802 
L 310.461454 82.179802 
L 310.495902 80.58297 
L 313.33601 80.58297 
L 313.33601 79.784554 
L 313.850759 79.784554 
L 313.850759 78.986139 
L 314.610949 78.986139 
L 314.718196 77.389307 
L 316.00498 77.389307 
L 316.095124 68.606733 
L 319.374256 68.606733 
L 319.374256 67.808317 
L 322.437432 67.808317 
L 322.437432 67.009901 
L 324.58436 67.009901 
L 324.58436 66.211485 
L 325.14928 66.211485 
L 325.14928 65.413069 
L 326.095474 65.413069 
L 326.095474 64.614653 
L 326.658841 64.614653 
L 326.658841 63.816238 
L 327.1285 63.816238 
L 327.1285 63.017822 
L 327.836861 63.017822 
L 327.836861 62.219406 
L 328.227636 62.219406 
L 328.227636 61.42099 
L 333.283211 61.42099 
L 333.283211 60.622574 
L 338.040773 60.622574 
L 338.040773 59.824158 
L 340.660686 59.824158 
L 340.660686 59.025743 
L 341.759921 59.025743 
L 341.759921 58.227327 
L 344.362964 58.227327 
L 344.362964 57.428911 
L 347.31108 57.428911 
L 347.31108 56.630495 
L 348.486443 56.630495 
L 348.486443 55.832079 
L 349.081491 55.832079 
L 349.081491 55.033663 
L 350.306403 55.033663 
L 350.306403 54.235248 
L 350.69691 54.235248 
L 350.69691 53.436832 
L 351.276937 53.436832 
L 351.276937 52.638416 
L 353.156783 52.638416 
L 353.156783 51.84 
L 354.020682 51.84 
L 354.020682 51.041584 
L 357.657021 51.041584 
L 357.657021 50.243168 
L 357.867479 50.243168 
L 357.867479 49.444752 
L 359.683713 49.444752 
L 359.683713 48.646337 
L 361.126579 48.646337 
L 361.126579 47.847921 
L 361.401299 47.847921 
L 361.401299 47.049505 
L 362.966656 47.049505 
L 362.966656 46.251089 
L 363.381845 46.251089 
L 363.381845 45.452673 
L 364.675002 45.452673 
L 364.675002 44.654257 
L 367.894368 44.654257 
L 367.983579 43.057426 
L 368.022257 43.057426 
L 368.022257 42.25901 
L 372.98735 42.25901 
L 372.98735 41.460594 
L 378.377384 41.460594 
L 378.377384 40.662178 
L 380.250119 40.662178 
L 380.250119 39.863762 
L 381.460557 39.863762 
L 381.460557 39.065347 
L 383.342078 39.065347 
L 383.342078 38.266931 
L 384.274072 38.266931 
L 384.274072 37.468515 
L 387.500375 37.468515 
L 387.500375 36.670099 
L 387.883728 36.670099 
L 387.883728 35.871683 
L 388.937874 35.871683 
L 388.937874 35.073267 
L 390.233807 35.073267 
L 390.233807 34.274851 
L 392.509574 34.274851 
L 392.509574 33.476436 
L 392.733797 33.476436 
L 392.837699 31.879604 
L 393.077702 31.879604 
L 393.077702 31.081188 
L 393.969502 31.081188 
L 394.024832 29.484356 
L 394.352261 29.484356 
L 394.352261 28.685941 
L 394.664957 28.685941 
L 394.664957 27.887525 
L 394.988175 27.887525 
L 395.064075 26.290693 
L 395.222082 26.290693 
L 395.222082 25.492277 
L 396.142286 25.492277 
L 396.142286 24.693861 
L 396.501563 24.693861 
L 396.501563 23.895446 
L 397.69902 23.895446 
L 397.69902 23.09703 
L 400.098054 23.09703 
L 400.098054 22.298614 
L 402.328161 22.298614 
L 402.328161 21.500198 
L 402.671711 21.500198 
L 402.671711 20.701782 
L 403.433031 20.701782 
L 403.433031 19.903366 
L 404.108189 19.903366 
L 404.108189 19.10495 
L 405.06407 19.10495 
L 405.06407 18.306535 
L 406.834733 18.306535 
L 406.834733 17.508119 
L 407.205548 17.508119 
L 407.265863 15.911287 
L 410.16272 15.911287 
L 410.16272 15.112871 
L 412.226729 15.112871 
L 412.226729 14.314455 
L 414.867654 14.314455 
L 414.867654 13.51604 
L 416.019586 13.51604 
L 416.019586 12.717624 
L 421.863005 12.717624 
L 421.863005 11.919208 
L 424.76988 11.919208 
L 424.76988 11.120792 
L 427.386102 11.120792 
L 427.386102 10.322376 
L 427.500926 10.322376 
L 427.500926 9.52396 
L 427.69056 9.52396 
L 427.69056 8.725545 
L 428.016994 8.725545 
L 428.016994 7.927129 
L 428.585301 7.927129 
L 428.585301 7.128713 
L 433.589706 7.128713 
L 433.589706 6.330297 
L 433.589706 6.330297 
L 460.8 6.330297 
L 460.8 6.330297 
" clip-path="url(#p6fafd02595)" style="fill: none; stroke: #00bfbf; stroke-width: 1.5; stroke-linecap: square"/>
   </g>
   <g id="line2d_23">
    <path d="M 197.772065 293.76 
L 197.772065 281.783762 
L 224.503317 281.783762 
L 224.503317 280.985347 
L 224.911245 280.985347 
L 224.911245 280.186931 
L 230.77101 280.186931 
L 230.77101 279.388515 
L 230.958276 279.388515 
L 230.958276 278.590099 
L 231.366963 278.590099 
L 231.366963 277.791683 
L 231.69745 277.791683 
L 231.69745 276.993267 
L 232.287421 276.993267 
L 232.287421 276.194851 
L 232.621143 276.194851 
L 232.644581 274.59802 
L 233.154724 274.59802 
L 233.154724 273.799604 
L 233.93421 273.799604 
L 233.966744 272.202772 
L 234.69545 272.202772 
L 234.69545 271.404356 
L 235.417471 271.404356 
L 235.442636 269.807525 
L 235.981901 269.807525 
L 235.981901 269.009109 
L 236.132525 269.009109 
L 236.132525 268.210693 
L 237.290324 268.210693 
L 237.322573 266.613861 
L 237.566578 266.613861 
L 237.566578 265.815446 
L 237.82153 265.815446 
L 237.82153 265.01703 
L 238.086632 265.01703 
L 238.086632 264.218614 
L 238.860825 264.218614 
L 238.860825 263.420198 
L 239.32539 263.420198 
L 239.347547 261.823366 
L 239.479213 261.823366 
L 239.479213 261.02495 
L 239.710908 261.02495 
L 239.710908 260.226535 
L 240.512384 260.226535 
L 240.607848 257.831287 
L 240.716169 257.831287 
L 240.716169 257.032871 
L 240.888083 257.032871 
L 240.977008 255.43604 
L 241.219531 255.43604 
L 241.219531 254.637624 
L 241.430792 254.637624 
L 241.430792 253.839208 
L 241.637237 253.839208 
L 241.645053 252.242376 
L 241.917065 252.242376 
L 241.923261 250.645545 
L 242.135338 250.645545 
L 242.147074 249.048713 
L 242.353052 249.048713 
L 242.353052 248.250297 
L 242.50105 248.250297 
L 242.567863 246.653465 
L 242.8107 246.653465 
L 242.8107 245.85505 
L 243.493738 245.85505 
L 243.544381 244.258218 
L 243.754525 244.258218 
L 243.754525 243.459802 
L 244.613615 243.459802 
L 244.613615 242.661386 
L 244.803221 242.661386 
L 244.803221 241.86297 
L 244.919783 241.86297 
L 244.928141 240.266139 
L 245.670555 240.266139 
L 245.670555 239.467723 
L 246.221245 239.467723 
L 246.221245 238.669307 
L 246.582991 238.669307 
L 246.582991 237.870891 
L 246.810187 237.870891 
L 246.872714 236.274059 
L 247.005455 236.274059 
L 247.005455 235.475644 
L 247.180157 235.475644 
L 247.180157 234.677228 
L 247.794247 234.677228 
L 247.894776 233.080396 
L 247.992647 233.080396 
L 247.992647 232.28198 
L 248.433932 232.28198 
L 248.434965 230.685149 
L 248.949997 230.685149 
L 248.949997 229.886733 
L 249.607135 229.886733 
L 249.607135 229.088317 
L 249.827922 229.088317 
L 249.827922 228.289901 
L 250.776414 228.289901 
L 250.776414 227.491485 
L 251.347914 227.491485 
L 251.347914 226.693069 
L 251.586699 226.693069 
L 251.642454 224.297822 
L 251.703648 224.297822 
L 251.703648 212.321584 
L 251.986577 212.321584 
L 252.054325 210.724752 
L 252.121591 210.724752 
L 252.121591 209.926337 
L 252.362835 209.926337 
L 252.375758 208.329505 
L 252.595461 208.329505 
L 252.595461 207.531089 
L 252.758334 207.531089 
L 252.835399 205.934257 
L 253.053347 205.934257 
L 253.053347 205.135842 
L 253.212778 205.135842 
L 253.212778 204.337426 
L 253.416233 204.337426 
L 253.495335 202.740594 
L 253.790858 202.740594 
L 253.839162 201.143762 
L 254.213607 201.143762 
L 254.213607 200.345347 
L 254.334406 200.345347 
L 254.362091 197.950099 
L 254.996262 197.950099 
L 255.092349 196.353267 
L 255.353506 196.353267 
L 255.353506 195.554851 
L 255.867956 195.554851 
L 255.867956 194.756436 
L 255.987677 194.756436 
L 255.987677 193.95802 
L 256.362271 193.95802 
L 256.362271 193.159604 
L 256.853811 193.159604 
L 256.853811 192.361188 
L 257.230579 192.361188 
L 257.337961 190.764356 
L 257.346979 190.764356 
L 257.346979 189.965941 
L 257.480396 189.965941 
L 257.54857 187.570693 
L 257.791394 187.570693 
L 257.791394 186.772277 
L 257.92177 186.772277 
L 257.92177 185.973861 
L 258.085303 185.973861 
L 258.085303 185.175446 
L 258.602156 185.175446 
L 258.625427 183.578614 
L 258.930919 183.578614 
L 258.930919 182.780198 
L 259.057578 182.780198 
L 259.057578 181.981782 
L 260.09551 181.981782 
L 260.09551 181.183366 
L 260.363452 181.183366 
L 260.363452 180.38495 
L 260.644904 180.38495 
L 260.644904 179.586535 
L 261.043633 179.586535 
L 261.043633 178.788119 
L 261.177293 178.788119 
L 261.26345 177.191287 
L 261.433037 177.191287 
L 261.433037 176.392871 
L 261.619584 176.392871 
L 261.697797 174.79604 
L 261.79138 174.79604 
L 261.872307 173.199208 
L 261.935656 173.199208 
L 261.939831 171.602376 
L 262.091918 171.602376 
L 262.091918 170.80396 
L 262.232207 170.80396 
L 262.270843 168.408713 
L 262.438987 168.408713 
L 262.521295 166.013465 
L 262.557042 166.013465 
L 262.64291 164.416634 
L 263.016452 164.416634 
L 263.016452 163.618218 
L 263.151335 163.618218 
L 263.208277 160.424554 
L 263.277814 160.424554 
L 263.277814 159.626139 
L 263.394849 159.626139 
L 263.40249 158.029307 
L 263.536474 158.029307 
L 263.536474 157.230891 
L 263.661815 157.230891 
L 263.74099 154.835644 
L 263.805673 154.835644 
L 263.805673 154.037228 
L 264.111827 154.037228 
L 264.111827 153.238812 
L 264.31366 153.238812 
L 264.414586 150.843564 
L 264.563704 150.843564 
L 264.598661 148.448317 
L 264.878108 148.448317 
L 264.878108 147.649901 
L 265.041533 147.649901 
L 265.041533 146.851485 
L 265.312859 146.851485 
L 265.312859 146.053069 
L 265.556603 146.053069 
L 265.564177 144.456238 
L 265.678084 144.456238 
L 265.678084 143.657822 
L 265.943445 143.657822 
L 266.050074 142.06099 
L 266.188215 142.06099 
L 266.188215 141.262574 
L 266.30373 141.262574 
L 266.359184 138.867327 
L 266.468225 138.867327 
L 266.521188 137.270495 
L 266.750974 137.270495 
L 266.835446 134.875248 
L 266.88477 134.875248 
L 266.88477 134.076832 
L 267.214412 134.076832 
L 267.306917 132.48 
L 267.385657 132.48 
L 267.385657 131.681584 
L 267.53089 131.681584 
L 267.542346 130.084752 
L 267.727714 130.084752 
L 267.727714 129.286337 
L 267.973634 129.286337 
L 267.973634 128.487921 
L 268.757411 128.487921 
L 268.757411 127.689505 
L 269.010036 127.689505 
L 269.010036 126.891089 
L 269.292553 126.891089 
L 269.292553 126.092673 
L 269.730574 126.092673 
L 269.730574 125.294257 
L 270.118494 125.294257 
L 270.135514 123.697426 
L 270.543032 123.697426 
L 270.551176 122.100594 
L 271.057326 122.100594 
L 271.057326 121.302178 
L 271.409012 121.302178 
L 271.488486 118.906931 
L 271.533868 118.906931 
L 271.533868 118.108515 
L 271.889708 118.108515 
L 271.892041 116.511683 
L 272.050667 116.511683 
L 272.050667 115.713267 
L 272.476372 115.713267 
L 272.476372 114.914851 
L 273.449707 114.914851 
L 273.449707 114.116436 
L 273.732102 114.116436 
L 273.732102 113.31802 
L 274.004829 113.31802 
L 274.004829 112.519604 
L 274.181604 112.519604 
L 274.181604 111.721188 
L 274.386215 111.721188 
L 274.386215 110.922772 
L 274.661567 110.922772 
L 274.712918 109.325941 
L 275.284824 109.325941 
L 275.305378 107.729109 
L 275.447983 107.729109 
L 275.447983 106.930693 
L 275.888386 106.930693 
L 275.888386 106.132277 
L 276.178877 106.132277 
L 276.178877 105.333861 
L 276.554375 105.333861 
L 276.554375 104.535446 
L 277.302813 104.535446 
L 277.302813 103.73703 
L 278.265249 103.73703 
L 278.265249 102.938614 
L 278.926545 102.938614 
L 278.926545 102.140198 
L 279.114163 102.140198 
L 279.114163 101.341782 
L 279.662117 101.341782 
L 279.731394 99.74495 
L 281.686582 99.74495 
L 281.686582 98.946535 
L 281.898446 98.946535 
L 281.898446 98.148119 
L 282.488602 98.148119 
L 282.488602 97.349703 
L 282.713497 97.349703 
L 282.713497 96.551287 
L 284.299415 96.551287 
L 284.299415 95.752871 
L 284.530441 95.752871 
L 284.530441 94.954455 
L 284.737668 94.954455 
L 284.737668 94.15604 
L 285.964292 94.15604 
L 286.024845 91.760792 
L 286.497208 91.760792 
L 286.500831 90.16396 
L 287.161328 90.16396 
L 287.161328 89.365545 
L 287.400588 89.365545 
L 287.489572 87.768713 
L 287.765915 87.768713 
L 287.765915 86.970297 
L 289.173858 86.970297 
L 289.173858 86.171881 
L 289.891903 86.171881 
L 289.891903 85.373465 
L 290.085604 85.373465 
L 290.085604 84.57505 
L 292.156681 84.57505 
L 292.156681 83.776634 
L 293.653776 83.776634 
L 293.653776 82.978218 
L 294.354187 82.978218 
L 294.354187 82.179802 
L 294.467595 82.179802 
L 294.467595 81.381386 
L 295.908503 81.381386 
L 295.908503 80.58297 
L 297.090678 80.58297 
L 297.090678 79.784554 
L 297.38473 79.784554 
L 297.38473 78.986139 
L 302.871284 78.986139 
L 302.871284 78.187723 
L 303.572521 78.187723 
L 303.60209 76.590891 
L 304.256079 76.590891 
L 304.256079 75.792475 
L 305.647094 75.792475 
L 305.647094 74.994059 
L 309.006639 74.994059 
L 309.006639 74.195644 
L 309.411617 74.195644 
L 309.411617 73.397228 
L 309.792504 73.397228 
L 309.792504 72.598812 
L 310.108998 72.598812 
L 310.183592 71.00198 
L 310.24116 71.00198 
L 310.24116 70.203564 
L 310.461454 70.203564 
L 310.461454 69.405149 
L 310.830217 69.405149 
L 310.830217 68.606733 
L 311.036505 68.606733 
L 311.036505 67.808317 
L 312.524487 67.808317 
L 312.524487 67.009901 
L 312.938953 67.009901 
L 312.938953 66.211485 
L 313.850759 66.211485 
L 313.850759 65.413069 
L 316.00498 65.413069 
L 316.00498 64.614653 
L 316.612593 64.614653 
L 316.612593 63.816238 
L 319.0515 63.816238 
L 319.0515 63.017822 
L 324.58436 63.017822 
L 324.58436 62.219406 
L 325.14928 62.219406 
L 325.14928 61.42099 
L 326.095474 61.42099 
L 326.095474 60.622574 
L 327.836861 60.622574 
L 327.876977 59.025743 
L 328.86845 59.025743 
L 328.86845 58.227327 
L 333.283211 58.227327 
L 333.283211 57.428911 
L 334.070775 57.428911 
L 334.070775 56.630495 
L 334.473224 56.630495 
L 334.473224 55.832079 
L 336.680799 55.832079 
L 336.680799 55.033663 
L 336.855301 55.033663 
L 336.855301 54.235248 
L 338.059981 54.235248 
L 338.059981 53.436832 
L 341.759921 53.436832 
L 341.759921 52.638416 
L 343.565306 52.638416 
L 343.565306 51.84 
L 348.486443 51.84 
L 348.486443 51.041584 
L 349.081491 51.041584 
L 349.137028 49.444752 
L 350.306403 49.444752 
L 350.351453 47.847921 
L 350.69691 47.847921 
L 350.69691 47.049505 
L 354.130666 47.049505 
L 354.130666 46.251089 
L 356.00702 46.251089 
L 356.00702 45.452673 
L 357.657021 45.452673 
L 357.657021 44.654257 
L 359.683713 44.654257 
L 359.683713 43.855842 
L 359.889758 43.855842 
L 359.889758 43.057426 
L 361.126579 43.057426 
L 361.126579 42.25901 
L 361.401299 42.25901 
L 361.401299 41.460594 
L 363.381845 41.460594 
L 363.447723 39.863762 
L 364.376301 39.863762 
L 364.469674 38.266931 
L 365.907967 38.266931 
L 365.907967 37.468515 
L 366.899345 37.468515 
L 366.899345 36.670099 
L 367.130419 36.670099 
L 367.130419 35.871683 
L 367.894368 35.871683 
L 367.894368 35.073267 
L 368.022257 35.073267 
L 368.022257 34.274851 
L 368.932623 34.274851 
L 368.932623 33.476436 
L 370.41133 33.476436 
L 370.41133 32.67802 
L 376.779424 32.67802 
L 376.779424 31.879604 
L 378.377384 31.879604 
L 378.377384 31.081188 
L 378.571069 31.081188 
L 378.571069 30.282772 
L 379.19302 30.282772 
L 379.19302 29.484356 
L 379.696028 29.484356 
L 379.696028 28.685941 
L 381.169454 28.685941 
L 381.169454 27.887525 
L 381.820059 27.887525 
L 381.820059 27.089109 
L 383.213145 27.089109 
L 383.213145 26.290693 
L 384.844692 26.290693 
L 384.844692 25.492277 
L 386.831515 25.492277 
L 386.831515 24.693861 
L 387.525358 24.693861 
L 387.525358 23.895446 
L 387.772379 23.895446 
L 387.772379 23.09703 
L 387.883728 23.09703 
L 387.883728 22.298614 
L 388.79499 22.298614 
L 388.79499 21.500198 
L 390.233807 21.500198 
L 390.233807 20.701782 
L 393.624993 20.701782 
L 393.624993 19.903366 
L 393.826102 19.903366 
L 393.826102 19.10495 
L 394.352261 19.10495 
L 394.352261 18.306535 
L 394.664957 18.306535 
L 394.664957 17.508119 
L 397.425669 17.508119 
L 397.425669 16.709703 
L 397.543416 16.709703 
L 397.543416 15.911287 
L 401.539436 15.911287 
L 401.583321 14.314455 
L 403.433031 14.314455 
L 403.433031 13.51604 
L 405.39418 13.51604 
L 405.39418 12.717624 
L 410.129093 12.717624 
L 410.129093 11.919208 
L 414.867654 11.919208 
L 414.867654 11.120792 
L 417.024533 11.120792 
L 417.024533 10.322376 
L 420.477154 10.322376 
L 420.477154 9.52396 
L 421.752639 9.52396 
L 421.863005 7.927129 
L 425.493095 7.927129 
L 425.493095 7.128713 
L 426.418193 7.128713 
L 426.418193 6.330297 
L 426.418193 6.330297 
L 460.8 6.330297 
L 460.8 6.330297 
" clip-path="url(#p6fafd02595)" style="fill: none; stroke: #bf00bf; stroke-width: 1.5; stroke-linecap: square"/>
   </g>
   <g id="line2d_24">
    <path d="M 197.772065 293.76 
L 197.772065 281.783762 
L 221.86686 281.783762 
L 221.86686 280.985347 
L 223.803699 280.985347 
L 223.803699 280.186931 
L 224.503317 280.186931 
L 224.503317 279.388515 
L 224.911245 279.388515 
L 224.911245 278.590099 
L 227.726133 278.590099 
L 227.726133 277.791683 
L 228.198874 277.791683 
L 228.257146 276.194851 
L 229.208354 276.194851 
L 229.208354 275.396436 
L 229.329097 275.396436 
L 229.329097 274.59802 
L 229.464676 274.59802 
L 229.464676 273.799604 
L 230.084329 273.799604 
L 230.084329 273.001188 
L 230.77101 273.001188 
L 230.878905 271.404356 
L 230.958276 271.404356 
L 230.958276 270.605941 
L 231.366963 270.605941 
L 231.396162 269.009109 
L 231.622993 269.009109 
L 231.69745 267.412277 
L 232.287421 267.412277 
L 232.287421 266.613861 
L 232.521107 266.613861 
L 232.621143 265.01703 
L 232.644581 265.01703 
L 232.662454 263.420198 
L 233.154724 263.420198 
L 233.154724 262.621782 
L 233.292991 262.621782 
L 233.345192 261.02495 
L 233.405537 261.02495 
L 233.405537 260.226535 
L 233.588438 260.226535 
L 233.612849 258.629703 
L 233.730784 258.629703 
L 233.730784 257.831287 
L 233.93421 257.831287 
L 233.966744 256.234455 
L 234.394682 256.234455 
L 234.394682 255.43604 
L 234.6281 255.43604 
L 234.69545 253.839208 
L 234.936557 253.839208 
L 235.034016 251.44396 
L 235.304658 251.44396 
L 235.304658 250.645545 
L 235.442636 250.645545 
L 235.542646 248.250297 
L 235.60122 248.250297 
L 235.60122 247.451881 
L 235.981901 247.451881 
L 235.981901 246.653465 
L 236.105446 246.653465 
L 236.105446 245.85505 
L 237.011221 245.85505 
L 237.076491 244.258218 
L 237.566578 244.258218 
L 237.566578 243.459802 
L 237.82153 243.459802 
L 237.82153 242.661386 
L 238.054086 242.661386 
L 238.086632 241.064554 
L 238.228637 241.064554 
L 238.228637 240.266139 
L 238.537443 240.266139 
L 238.537443 239.467723 
L 238.860825 239.467723 
L 238.874465 237.870891 
L 240.205722 237.870891 
L 240.205722 237.072475 
L 240.607848 237.072475 
L 240.716169 235.475644 
L 240.949512 235.475644 
L 240.949512 234.677228 
L 241.166403 234.677228 
L 241.166403 233.878812 
L 241.430792 233.878812 
L 241.462308 232.28198 
L 241.983026 232.28198 
L 241.983026 231.483564 
L 242.147074 231.483564 
L 242.213469 229.886733 
L 242.567863 229.886733 
L 242.567863 229.088317 
L 242.807477 229.088317 
L 242.807477 228.289901 
L 242.921232 228.289901 
L 242.921232 227.491485 
L 243.345039 227.491485 
L 243.345039 226.693069 
L 243.754525 226.693069 
L 243.756402 225.096238 
L 244.195259 225.096238 
L 244.195259 224.297822 
L 244.919783 224.297822 
L 244.919783 223.499406 
L 245.136779 223.499406 
L 245.215005 221.104158 
L 245.255097 221.104158 
L 245.255097 220.305743 
L 245.426492 220.305743 
L 245.426492 219.507327 
L 245.592423 219.507327 
L 245.592423 218.708911 
L 245.780052 218.708911 
L 245.780052 217.910495 
L 246.149952 217.910495 
L 246.221245 216.313663 
L 246.810187 216.313663 
L 246.810187 215.515248 
L 247.005455 215.515248 
L 247.033896 213.918416 
L 247.894776 213.918416 
L 247.992647 212.321584 
L 248.23564 212.321584 
L 248.23564 211.523168 
L 248.349828 211.523168 
L 248.349828 210.724752 
L 248.928832 210.724752 
L 248.928832 209.926337 
L 249.128278 209.926337 
L 249.154586 208.329505 
L 249.366955 208.329505 
L 249.366955 207.531089 
L 249.607135 207.531089 
L 249.607135 206.732673 
L 250.167863 206.732673 
L 250.167863 205.934257 
L 250.585762 205.934257 
L 250.585762 205.135842 
L 251.025132 205.135842 
L 251.055289 203.53901 
L 251.438619 203.53901 
L 251.503137 201.942178 
L 251.703648 201.942178 
L 251.703648 189.965941 
L 251.986577 189.965941 
L 251.986577 189.167525 
L 252.835399 189.167525 
L 252.93768 186.772277 
L 253.085656 186.772277 
L 253.149196 185.175446 
L 253.198777 185.175446 
L 253.295262 182.780198 
L 253.583572 182.780198 
L 253.600664 181.183366 
L 254.214224 181.183366 
L 254.236722 179.586535 
L 254.333009 179.586535 
L 254.362091 177.191287 
L 254.469171 177.191287 
L 254.469171 176.392871 
L 254.777552 176.392871 
L 254.841732 174.79604 
L 254.996262 174.79604 
L 255.022235 173.199208 
L 255.49596 173.199208 
L 255.49596 172.400792 
L 255.867956 172.400792 
L 255.867956 171.602376 
L 256.269579 171.602376 
L 256.359799 170.005545 
L 256.853811 170.005545 
L 256.853811 169.207129 
L 257.458772 169.207129 
L 257.566274 166.013465 
L 257.614644 166.013465 
L 257.614644 165.21505 
L 257.910154 165.21505 
L 257.910154 164.416634 
L 258.085303 164.416634 
L 258.085303 163.618218 
L 258.292908 163.618218 
L 258.292908 162.819802 
L 258.494627 162.819802 
L 258.602156 161.22297 
L 258.747019 161.22297 
L 258.765911 159.626139 
L 258.876146 159.626139 
L 258.939324 158.029307 
L 259.002664 158.029307 
L 259.031456 155.634059 
L 259.536867 155.634059 
L 259.536867 154.835644 
L 259.782372 154.835644 
L 259.883073 153.238812 
L 259.990984 153.238812 
L 260.074157 151.64198 
L 260.166212 151.64198 
L 260.268356 150.045149 
L 260.497019 150.045149 
L 260.497019 149.246733 
L 260.973622 149.246733 
L 260.973622 148.448317 
L 261.177293 148.448317 
L 261.26345 146.851485 
L 261.433037 146.851485 
L 261.433037 146.053069 
L 261.645316 146.053069 
L 261.698202 143.657822 
L 261.855905 143.657822 
L 261.935656 142.06099 
L 261.971991 142.06099 
L 262.022208 140.464158 
L 262.091918 140.464158 
L 262.153071 138.068911 
L 262.400469 138.068911 
L 262.400469 137.270495 
L 262.518351 137.270495 
L 262.548277 135.673663 
L 262.692601 135.673663 
L 262.797052 134.076832 
L 263.016452 134.076832 
L 263.016452 133.278416 
L 263.210935 133.278416 
L 263.210935 132.48 
L 263.405878 132.48 
L 263.405878 131.681584 
L 263.661815 131.681584 
L 263.699817 129.286337 
L 263.900735 129.286337 
L 263.900735 128.487921 
L 264.11138 128.487921 
L 264.11138 127.689505 
L 264.31366 127.689505 
L 264.371703 126.092673 
L 264.526886 126.092673 
L 264.526886 125.294257 
L 264.660528 125.294257 
L 264.660528 124.495842 
L 264.785853 124.495842 
L 264.883249 122.89901 
L 265.221939 122.89901 
L 265.329413 120.503762 
L 265.564177 120.503762 
L 265.652179 118.906931 
L 265.803859 118.906931 
L 265.896921 117.310099 
L 266.050074 117.310099 
L 266.050074 116.511683 
L 266.344278 116.511683 
L 266.359184 114.914851 
L 266.468225 114.914851 
L 266.569639 113.31802 
L 267.385657 113.31802 
L 267.385657 112.519604 
L 267.727714 112.519604 
L 267.727714 111.721188 
L 268.100964 111.721188 
L 268.190768 110.124356 
L 268.571293 110.124356 
L 268.571293 109.325941 
L 268.747628 109.325941 
L 268.757411 107.729109 
L 268.998713 107.729109 
L 268.998713 106.930693 
L 269.631601 106.930693 
L 269.631601 106.132277 
L 269.873706 106.132277 
L 269.873706 105.333861 
L 270.135514 105.333861 
L 270.135514 104.535446 
L 270.372005 104.535446 
L 270.372005 103.73703 
L 270.551176 103.73703 
L 270.551176 102.938614 
L 270.701597 102.938614 
L 270.701597 102.140198 
L 270.857616 102.140198 
L 270.857616 101.341782 
L 271.533868 101.341782 
L 271.533868 100.543366 
L 271.744928 100.543366 
L 271.744928 99.74495 
L 271.988133 99.74495 
L 272.089075 97.349703 
L 272.953768 97.349703 
L 272.953768 96.551287 
L 273.077588 96.551287 
L 273.159424 94.15604 
L 273.312529 94.15604 
L 273.312529 93.357624 
L 273.988737 93.357624 
L 273.988737 92.559208 
L 274.386215 92.559208 
L 274.386215 91.760792 
L 274.622665 91.760792 
L 274.622665 90.962376 
L 275.447983 90.962376 
L 275.447983 90.16396 
L 276.521971 90.16396 
L 276.521971 89.365545 
L 278.058912 89.365545 
L 278.058912 88.567129 
L 279.534495 88.567129 
L 279.534495 87.768713 
L 282.488602 87.768713 
L 282.551629 86.171881 
L 283.137187 86.171881 
L 283.137187 85.373465 
L 284.024623 85.373465 
L 284.024623 84.57505 
L 284.530441 84.57505 
L 284.530441 83.776634 
L 284.737668 83.776634 
L 284.737668 82.978218 
L 285.06263 82.978218 
L 285.06263 82.179802 
L 286.012581 82.179802 
L 286.012581 81.381386 
L 286.497208 81.381386 
L 286.500831 79.784554 
L 287.161328 79.784554 
L 287.161328 78.986139 
L 287.465729 78.986139 
L 287.465729 78.187723 
L 288.250212 78.187723 
L 288.250212 77.389307 
L 289.409772 77.389307 
L 289.434689 75.792475 
L 289.691806 75.792475 
L 289.691806 74.994059 
L 290.085604 74.994059 
L 290.085604 74.195644 
L 290.467073 74.195644 
L 290.467073 73.397228 
L 290.710534 73.397228 
L 290.710534 72.598812 
L 292.178083 72.598812 
L 292.178083 71.800396 
L 293.54992 71.800396 
L 293.54992 71.00198 
L 293.912617 71.00198 
L 293.912617 70.203564 
L 295.779425 70.203564 
L 295.779425 69.405149 
L 296.883454 69.405149 
L 296.883454 68.606733 
L 297.38473 68.606733 
L 297.38473 67.808317 
L 302.862858 67.808317 
L 302.871284 66.211485 
L 304.632847 66.211485 
L 304.632847 65.413069 
L 306.335547 65.413069 
L 306.335547 64.614653 
L 308.605925 64.614653 
L 308.605925 63.816238 
L 310.461454 63.816238 
L 310.461454 63.017822 
L 311.660216 63.017822 
L 311.660216 62.219406 
L 312.088028 62.219406 
L 312.088028 61.42099 
L 315.309024 61.42099 
L 315.309024 60.622574 
L 321.892297 60.622574 
L 321.892297 59.824158 
L 323.807139 59.824158 
L 323.807139 59.025743 
L 324.58436 59.025743 
L 324.58436 58.227327 
L 325.039341 58.227327 
L 325.039341 57.428911 
L 325.173682 57.428911 
L 325.173682 56.630495 
L 326.095474 56.630495 
L 326.095474 55.832079 
L 327.624035 55.832079 
L 327.624035 55.033663 
L 327.876977 55.033663 
L 327.876977 54.235248 
L 328.86845 54.235248 
L 328.86845 53.436832 
L 329.994918 53.436832 
L 329.994918 52.638416 
L 333.283211 52.638416 
L 333.283211 51.84 
L 334.070775 51.84 
L 334.070775 51.041584 
L 334.473224 51.041584 
L 334.473224 50.243168 
L 334.806329 50.243168 
L 334.806329 49.444752 
L 335.061883 49.444752 
L 335.061883 48.646337 
L 336.597934 48.646337 
L 336.597934 47.847921 
L 336.855301 47.847921 
L 336.855301 47.049505 
L 339.385695 47.049505 
L 339.385695 46.251089 
L 342.790797 46.251089 
L 342.790797 45.452673 
L 343.156736 45.452673 
L 343.255323 43.855842 
L 343.771368 43.855842 
L 343.771368 43.057426 
L 345.122641 43.057426 
L 345.224099 41.460594 
L 345.547231 41.460594 
L 345.547231 40.662178 
L 348.486443 40.662178 
L 348.486443 39.863762 
L 350.132662 39.863762 
L 350.132662 39.065347 
L 350.306403 39.065347 
L 350.306403 38.266931 
L 350.545012 38.266931 
L 350.545012 37.468515 
L 352.425859 37.468515 
L 352.425859 36.670099 
L 353.018839 36.670099 
L 353.018839 35.871683 
L 353.894175 35.871683 
L 353.894175 35.073267 
L 354.461351 35.073267 
L 354.461351 34.274851 
L 358.152381 34.274851 
L 358.152381 33.476436 
L 358.872152 33.476436 
L 358.872152 32.67802 
L 359.431239 32.67802 
L 359.431239 31.879604 
L 361.401299 31.879604 
L 361.401299 31.081188 
L 361.870056 31.081188 
L 361.870056 30.282772 
L 362.908611 30.282772 
L 362.908611 29.484356 
L 363.381845 29.484356 
L 363.447723 27.887525 
L 363.580824 27.887525 
L 363.580824 27.089109 
L 364.376301 27.089109 
L 364.469674 25.492277 
L 364.550585 25.492277 
L 364.550585 24.693861 
L 365.784734 24.693861 
L 365.784734 23.895446 
L 367.894368 23.895446 
L 367.897728 22.298614 
L 375.701945 22.298614 
L 375.701945 21.500198 
L 378.906473 21.500198 
L 378.933991 19.903366 
L 380.133991 19.903366 
L 380.133991 19.10495 
L 383.185139 19.10495 
L 383.185139 18.306535 
L 385.426127 18.306535 
L 385.426127 17.508119 
L 388.437177 17.508119 
L 388.437177 16.709703 
L 388.87204 16.709703 
L 388.87204 15.911287 
L 389.923577 15.911287 
L 389.923577 15.112871 
L 391.75729 15.112871 
L 391.75729 14.314455 
L 392.480265 14.314455 
L 392.480265 13.51604 
L 393.555903 13.51604 
L 393.555903 12.717624 
L 394.352261 12.717624 
L 394.352261 11.919208 
L 397.425669 11.919208 
L 397.425669 11.120792 
L 400.450102 11.120792 
L 400.450102 10.322376 
L 406.156678 10.322376 
L 406.156678 9.52396 
L 407.035502 9.52396 
L 407.035502 8.725545 
L 407.437713 8.725545 
L 407.437713 7.927129 
L 413.967853 7.927129 
L 413.967853 7.128713 
L 420.160047 7.128713 
L 420.160047 6.330297 
L 420.160047 6.330297 
L 460.8 6.330297 
L 460.8 6.330297 
" clip-path="url(#p6fafd02595)" style="fill: none; stroke: #000000; stroke-width: 1.5; stroke-linecap: square"/>
   </g>
   <g id="line2d_25">
    <path d="M -0.115582 293.76 
L -0.115582 292.163168 
L 197.772065 292.163168 
L 197.772065 280.186931 
L 203.25742 280.186931 
L 203.25742 279.388515 
L 208.945111 279.388515 
L 208.998541 277.791683 
L 210.530369 277.791683 
L 210.530369 276.993267 
L 212.237556 276.993267 
L 212.237556 276.194851 
L 213.312113 276.194851 
L 213.312113 275.396436 
L 216.780996 275.396436 
L 216.780996 274.59802 
L 217.299484 274.59802 
L 217.299484 273.799604 
L 218.802879 273.799604 
L 218.802879 273.001188 
L 219.101822 273.001188 
L 219.101822 272.202772 
L 219.826705 272.202772 
L 219.826705 271.404356 
L 221.170883 271.404356 
L 221.170883 270.605941 
L 221.758107 270.605941 
L 221.86686 269.009109 
L 221.880688 269.009109 
L 221.880688 268.210693 
L 222.04684 268.210693 
L 222.04684 267.412277 
L 222.367717 267.412277 
L 222.367717 266.613861 
L 222.739258 266.613861 
L 222.739258 265.815446 
L 223.009589 265.815446 
L 223.009589 265.01703 
L 223.803699 265.01703 
L 223.803699 264.218614 
L 224.1002 264.218614 
L 224.1002 263.420198 
L 224.503317 263.420198 
L 224.503317 262.621782 
L 224.677113 262.621782 
L 224.71204 261.02495 
L 225.455368 261.02495 
L 225.455368 260.226535 
L 226.049818 260.226535 
L 226.049818 259.428119 
L 226.546127 259.428119 
L 226.589055 257.831287 
L 226.806013 257.831287 
L 226.882377 256.234455 
L 226.936001 256.234455 
L 226.936001 255.43604 
L 227.264722 255.43604 
L 227.264722 254.637624 
L 227.726133 254.637624 
L 227.825967 251.44396 
L 227.94587 251.44396 
L 227.94587 250.645545 
L 228.257146 250.645545 
L 228.257146 249.847129 
L 228.393071 249.847129 
L 228.491895 247.451881 
L 228.646957 247.451881 
L 228.744988 245.85505 
L 228.949066 245.85505 
L 228.949066 245.056634 
L 229.329097 245.056634 
L 229.43102 243.459802 
L 229.446316 243.459802 
L 229.446316 242.661386 
L 229.757514 242.661386 
L 229.757514 241.86297 
L 229.914466 241.86297 
L 229.914466 241.064554 
L 230.176861 241.064554 
L 230.176861 240.266139 
L 230.377614 240.266139 
L 230.377614 239.467723 
L 230.577396 239.467723 
L 230.577396 238.669307 
L 230.893198 238.669307 
L 230.958276 237.072475 
L 231.178032 237.072475 
L 231.178032 236.274059 
L 231.340055 236.274059 
L 231.396162 234.677228 
L 231.539932 234.677228 
L 231.622993 233.080396 
L 231.920448 233.080396 
L 231.920448 232.28198 
L 232.246494 232.28198 
L 232.246715 230.685149 
L 232.381342 230.685149 
L 232.391528 229.088317 
L 232.644581 229.088317 
L 232.754457 226.693069 
L 232.904895 226.693069 
L 232.904895 225.894653 
L 233.24708 225.894653 
L 233.338404 224.297822 
L 233.663135 224.297822 
L 233.663135 223.499406 
L 233.988654 223.499406 
L 233.988654 222.70099 
L 234.481213 222.70099 
L 234.586778 221.104158 
L 234.595199 221.104158 
L 234.595199 220.305743 
L 234.855998 220.305743 
L 234.883397 218.708911 
L 235.094443 218.708911 
L 235.094443 217.910495 
L 235.300158 217.910495 
L 235.401849 216.313663 
L 235.413877 216.313663 
L 235.464588 214.716832 
L 235.595262 214.716832 
L 235.595262 213.918416 
L 235.781345 213.918416 
L 235.815304 212.321584 
L 236.179317 212.321584 
L 236.179317 211.523168 
L 236.682061 211.523168 
L 236.682061 210.724752 
L 237.076491 210.724752 
L 237.076491 209.926337 
L 237.222233 209.926337 
L 237.222233 209.127921 
L 237.658167 209.127921 
L 237.658167 208.329505 
L 237.82153 208.329505 
L 237.82153 207.531089 
L 238.124524 207.531089 
L 238.124524 206.732673 
L 238.333567 206.732673 
L 238.333567 205.934257 
L 238.494404 205.934257 
L 238.494404 205.135842 
L 238.919334 205.135842 
L 238.919334 204.337426 
L 239.157191 204.337426 
L 239.157191 203.53901 
L 239.634203 203.53901 
L 239.73717 201.942178 
L 239.821934 201.942178 
L 239.821934 201.143762 
L 240.787384 201.143762 
L 240.787384 200.345347 
L 241.215885 200.345347 
L 241.215885 199.546931 
L 241.582708 199.546931 
L 241.585786 197.950099 
L 241.759915 197.950099 
L 241.810316 196.353267 
L 241.879915 196.353267 
L 241.898389 194.756436 
L 242.147074 194.756436 
L 242.254751 192.361188 
L 242.433999 192.361188 
L 242.433999 191.562772 
L 242.912847 191.562772 
L 242.921232 189.965941 
L 243.152774 189.965941 
L 243.21547 188.369109 
L 243.662071 188.369109 
L 243.756402 185.973861 
L 244.30787 185.973861 
L 244.30787 185.175446 
L 244.572017 185.175446 
L 244.678797 181.981782 
L 245.004505 181.981782 
L 245.022782 180.38495 
L 245.187849 180.38495 
L 245.286349 178.788119 
L 245.36056 178.788119 
L 245.36056 177.989703 
L 245.563106 177.989703 
L 245.563106 177.191287 
L 245.931407 177.191287 
L 245.956104 175.594455 
L 246.11502 175.594455 
L 246.11502 174.79604 
L 246.810187 174.79604 
L 246.855391 172.400792 
L 246.981137 172.400792 
L 247.005455 170.80396 
L 247.345945 170.80396 
L 247.401707 168.408713 
L 247.581737 168.408713 
L 247.61525 166.811881 
L 247.755353 166.811881 
L 247.755353 166.013465 
L 248.008292 166.013465 
L 248.114959 164.416634 
L 248.129229 164.416634 
L 248.23564 162.819802 
L 249.154586 162.819802 
L 249.154586 162.021386 
L 250.267486 162.021386 
L 250.321785 160.424554 
L 250.667829 160.424554 
L 250.667829 159.626139 
L 250.96102 159.626139 
L 251.009574 157.230891 
L 251.703648 157.230891 
L 251.703648 146.053069 
L 252.220151 146.053069 
L 252.315842 144.456238 
L 252.340989 144.456238 
L 252.340989 143.657822 
L 252.511548 143.657822 
L 252.511548 142.859406 
L 253.022377 142.859406 
L 253.022377 142.06099 
L 254.141596 142.06099 
L 254.141596 141.262574 
L 254.334406 141.262574 
L 254.370045 139.665743 
L 254.520365 139.665743 
L 254.530503 138.068911 
L 254.635654 138.068911 
L 254.635654 137.270495 
L 255.120569 137.270495 
L 255.120569 136.472079 
L 255.40255 136.472079 
L 255.40255 135.673663 
L 255.5425 135.673663 
L 255.617437 134.076832 
L 255.678773 134.076832 
L 255.698434 132.48 
L 255.849939 132.48 
L 255.866715 130.883168 
L 256.107139 130.883168 
L 256.213522 129.286337 
L 256.550224 129.286337 
L 256.550224 128.487921 
L 256.688935 128.487921 
L 256.688935 127.689505 
L 256.933032 127.689505 
L 257.013932 126.092673 
L 257.316273 126.092673 
L 257.338409 124.495842 
L 257.51389 124.495842 
L 257.603047 122.100594 
L 257.665567 122.100594 
L 257.665567 121.302178 
L 257.910154 121.302178 
L 257.946976 119.705347 
L 258.159699 119.705347 
L 258.269927 117.310099 
L 258.334648 117.310099 
L 258.334648 116.511683 
L 258.602156 116.511683 
L 258.710534 114.914851 
L 258.737659 114.914851 
L 258.737659 114.116436 
L 258.883709 114.116436 
L 258.987581 111.721188 
L 259.031456 111.721188 
L 259.065944 110.124356 
L 259.226193 110.124356 
L 259.226193 109.325941 
L 259.460975 109.325941 
L 259.536867 107.729109 
L 259.91926 107.729109 
L 259.91926 106.930693 
L 260.141763 106.930693 
L 260.141856 105.333861 
L 260.335061 105.333861 
L 260.358068 103.73703 
L 260.598392 103.73703 
L 260.675381 102.140198 
L 260.724533 102.140198 
L 260.724533 101.341782 
L 260.85095 101.341782 
L 260.90547 99.74495 
L 261.002254 99.74495 
L 261.087244 98.148119 
L 261.205986 98.148119 
L 261.26345 95.752871 
L 261.623479 95.752871 
L 261.722382 93.357624 
L 262.39435 93.357624 
L 262.39435 92.559208 
L 262.592291 92.559208 
L 262.592291 91.760792 
L 263.20646 91.760792 
L 263.20646 90.962376 
L 263.848534 90.962376 
L 263.919985 89.365545 
L 263.972448 89.365545 
L 263.972448 88.567129 
L 264.411155 88.567129 
L 264.520761 86.970297 
L 264.606096 86.970297 
L 264.606096 86.171881 
L 264.794742 86.171881 
L 264.794742 85.373465 
L 264.940489 85.373465 
L 264.940489 84.57505 
L 265.312859 84.57505 
L 265.312859 83.776634 
L 265.813528 83.776634 
L 265.813528 82.978218 
L 267.187076 82.978218 
L 267.187076 82.179802 
L 267.575303 82.179802 
L 267.575303 81.381386 
L 267.921697 81.381386 
L 267.921697 80.58297 
L 271.533868 80.58297 
L 271.533868 79.784554 
L 273.263887 79.784554 
L 273.263887 78.986139 
L 273.406467 78.986139 
L 273.406467 78.187723 
L 275.447983 78.187723 
L 275.447983 77.389307 
L 275.878715 77.389307 
L 275.878715 76.590891 
L 276.126945 76.590891 
L 276.126945 75.792475 
L 276.365548 75.792475 
L 276.365548 74.994059 
L 276.521971 74.994059 
L 276.521971 74.195644 
L 276.806968 74.195644 
L 276.806968 73.397228 
L 277.026888 73.397228 
L 277.026888 72.598812 
L 277.619068 72.598812 
L 277.619068 71.800396 
L 277.795598 71.800396 
L 277.87516 70.203564 
L 278.004181 70.203564 
L 278.004181 69.405149 
L 278.127508 69.405149 
L 278.127508 68.606733 
L 278.980384 68.606733 
L 278.980384 67.808317 
L 279.46406 67.808317 
L 279.534495 66.211485 
L 279.971903 66.211485 
L 279.992094 64.614653 
L 280.153946 64.614653 
L 280.153946 63.816238 
L 280.391297 63.816238 
L 280.391297 63.017822 
L 280.816324 63.017822 
L 280.816324 62.219406 
L 283.039799 62.219406 
L 283.039799 61.42099 
L 284.093708 61.42099 
L 284.093708 60.622574 
L 284.530441 60.622574 
L 284.530441 59.824158 
L 284.702858 59.824158 
L 284.702858 59.025743 
L 286.878491 59.025743 
L 286.878491 58.227327 
L 287.221553 58.227327 
L 287.221553 57.428911 
L 287.753146 57.428911 
L 287.753146 56.630495 
L 288.598498 56.630495 
L 288.598498 55.832079 
L 290.085604 55.832079 
L 290.085604 55.033663 
L 290.304636 55.033663 
L 290.304636 54.235248 
L 290.754708 54.235248 
L 290.754708 53.436832 
L 290.982967 53.436832 
L 290.982967 52.638416 
L 291.097106 52.638416 
L 291.097106 51.84 
L 292.987483 51.84 
L 293.051479 50.243168 
L 295.347922 50.243168 
L 295.347922 49.444752 
L 296.102277 49.444752 
L 296.102277 48.646337 
L 296.320591 48.646337 
L 296.320591 47.847921 
L 297.294078 47.847921 
L 297.294078 47.049505 
L 302.063616 47.049505 
L 302.063616 46.251089 
L 303.083771 46.251089 
L 303.083771 45.452673 
L 303.320865 45.452673 
L 303.320865 44.654257 
L 303.592301 44.654257 
L 303.592301 43.855842 
L 307.920548 43.855842 
L 307.920548 43.057426 
L 308.162088 43.057426 
L 308.162088 42.25901 
L 313.732671 42.25901 
L 313.732671 41.460594 
L 315.309024 41.460594 
L 315.309024 40.662178 
L 316.587294 40.662178 
L 316.587294 39.863762 
L 321.035361 39.863762 
L 321.035361 39.065347 
L 323.37378 39.065347 
L 323.37378 38.266931 
L 323.963486 38.266931 
L 323.963486 37.468515 
L 324.342824 37.468515 
L 324.342824 36.670099 
L 324.471321 36.670099 
L 324.471321 35.871683 
L 324.58436 35.871683 
L 324.58436 35.073267 
L 325.039341 35.073267 
L 325.039341 34.274851 
L 329.282694 34.274851 
L 329.282694 33.476436 
L 330.091104 33.476436 
L 330.091104 32.67802 
L 331.804345 32.67802 
L 331.804345 31.879604 
L 332.024455 31.879604 
L 332.024455 31.081188 
L 334.070775 31.081188 
L 334.070775 30.282772 
L 335.811851 30.282772 
L 335.811851 29.484356 
L 336.950391 29.484356 
L 336.950391 28.685941 
L 337.297397 28.685941 
L 337.297397 27.887525 
L 338.047861 27.887525 
L 338.047861 27.089109 
L 338.601216 27.089109 
L 338.601216 26.290693 
L 339.351372 26.290693 
L 339.351372 25.492277 
L 339.957253 25.492277 
L 339.957253 24.693861 
L 341.147862 24.693861 
L 341.147862 23.895446 
L 341.377836 23.895446 
L 341.377836 23.09703 
L 342.713543 23.09703 
L 342.713543 22.298614 
L 344.802479 22.298614 
L 344.802479 21.500198 
L 345.799048 21.500198 
L 345.799048 20.701782 
L 351.150725 20.701782 
L 351.150725 19.903366 
L 354.373124 19.903366 
L 354.373124 19.10495 
L 355.945463 19.10495 
L 355.945463 18.306535 
L 356.076545 18.306535 
L 356.076545 17.508119 
L 366.596494 17.508119 
L 366.596494 16.709703 
L 367.323526 16.709703 
L 367.323526 15.911287 
L 370.00725 15.911287 
L 370.00725 15.112871 
L 372.032235 15.112871 
L 372.032235 14.314455 
L 373.811724 14.314455 
L 373.811724 13.51604 
L 376.015535 13.51604 
L 376.015535 12.717624 
L 376.97291 12.717624 
L 376.97291 11.919208 
L 378.841141 11.919208 
L 378.841141 11.120792 
L 380.360415 11.120792 
L 380.360415 10.322376 
L 381.711617 10.322376 
L 381.711617 9.52396 
L 385.161209 9.52396 
L 385.161209 8.725545 
L 389.588849 8.725545 
L 389.588849 7.927129 
L 390.681134 7.927129 
L 390.681134 7.128713 
L 393.499871 7.128713 
L 393.499871 6.330297 
L 393.499871 6.330297 
L 460.8 6.330297 
L 460.8 6.330297 
" clip-path="url(#p6fafd02595)" style="fill: none; stroke: #00bfbf; stroke-width: 1.5; stroke-linecap: square"/>
   </g>
   <g id="line2d_26">
    <path d="M -1 291.364752 
L -0.115582 291.364752 
L -0.115582 279.388515 
L 18.274909 279.388515 
L 18.274909 278.590099 
L 26.734755 278.590099 
L 26.734755 277.791683 
L 35.474195 277.791683 
L 35.474195 276.993267 
L 44.417389 276.993267 
L 44.417389 276.194851 
L 60.114052 276.194851 
L 60.114052 275.396436 
L 68.857156 275.396436 
L 68.857156 274.59802 
L 76.269344 274.59802 
L 76.269344 273.799604 
L 78.327914 273.799604 
L 78.327914 273.001188 
L 81.917105 273.001188 
L 81.917105 272.202772 
L 83.495196 272.202772 
L 83.495196 271.404356 
L 83.93383 271.404356 
L 83.93383 270.605941 
L 85.503838 270.605941 
L 85.503838 269.807525 
L 91.659152 269.807525 
L 91.659152 269.009109 
L 91.866648 269.009109 
L 91.866648 268.210693 
L 92.827616 268.210693 
L 92.827616 267.412277 
L 93.120686 267.412277 
L 93.120686 266.613861 
L 97.452889 266.613861 
L 97.452889 265.815446 
L 99.407992 265.815446 
L 99.407992 265.01703 
L 99.879928 265.01703 
L 99.879928 264.218614 
L 103.53212 264.218614 
L 103.53212 263.420198 
L 111.729319 263.420198 
L 111.729319 262.621782 
L 115.757528 262.621782 
L 115.757528 261.823366 
L 120.629575 261.823366 
L 120.629575 261.02495 
L 122.855471 261.02495 
L 122.876775 259.428119 
L 124.477297 259.428119 
L 124.477297 258.629703 
L 128.147146 258.629703 
L 128.147146 257.831287 
L 129.226613 257.831287 
L 129.226613 257.032871 
L 129.813195 257.032871 
L 129.813195 256.234455 
L 131.948327 256.234455 
L 131.948327 255.43604 
L 134.280209 255.43604 
L 134.280209 254.637624 
L 140.462084 254.637624 
L 140.462084 253.839208 
L 142.53394 253.839208 
L 142.53394 253.040792 
L 144.162549 253.040792 
L 144.162549 252.242376 
L 145.695404 252.242376 
L 145.695404 251.44396 
L 147.441041 251.44396 
L 147.441041 250.645545 
L 152.188615 250.645545 
L 152.188615 249.847129 
L 159.197415 249.847129 
L 159.197415 249.048713 
L 163.367183 249.048713 
L 163.367183 248.250297 
L 165.981998 248.250297 
L 165.981998 247.451881 
L 168.587589 247.451881 
L 168.587589 246.653465 
L 169.81357 246.653465 
L 169.81357 245.85505 
L 171.01535 245.85505 
L 171.01535 245.056634 
L 171.671623 245.056634 
L 171.671623 244.258218 
L 173.336567 244.258218 
L 173.336567 243.459802 
L 175.491199 243.459802 
L 175.491199 242.661386 
L 176.828563 242.661386 
L 176.828563 241.86297 
L 177.747185 241.86297 
L 177.747185 241.064554 
L 178.198504 241.064554 
L 178.22882 239.467723 
L 178.665507 239.467723 
L 178.665507 238.669307 
L 179.451988 238.669307 
L 179.451988 237.870891 
L 181.890365 237.870891 
L 181.890365 237.072475 
L 183.745544 237.072475 
L 183.853148 235.475644 
L 186.675233 235.475644 
L 186.675233 234.677228 
L 187.139437 234.677228 
L 187.139437 233.878812 
L 187.581586 233.878812 
L 187.581586 233.080396 
L 188.721702 233.080396 
L 188.767763 231.483564 
L 189.168852 231.483564 
L 189.168852 230.685149 
L 189.320451 230.685149 
L 189.320451 229.886733 
L 189.978241 229.886733 
L 189.998769 228.289901 
L 191.473813 228.289901 
L 191.473813 227.491485 
L 192.410715 227.491485 
L 192.410715 226.693069 
L 192.541968 226.693069 
L 192.541968 225.894653 
L 193.511176 225.894653 
L 193.535433 224.297822 
L 193.695879 224.297822 
L 193.695879 223.499406 
L 194.863619 223.499406 
L 194.863619 222.70099 
L 195.487896 222.70099 
L 195.487896 221.902574 
L 196.081077 221.902574 
L 196.081077 221.104158 
L 197.772065 221.104158 
L 197.772065 209.127921 
L 198.894019 209.127921 
L 198.894019 208.329505 
L 199.517635 208.329505 
L 199.517635 207.531089 
L 200.18558 207.531089 
L 200.18558 206.732673 
L 200.579102 206.732673 
L 200.579102 205.934257 
L 201.714165 205.934257 
L 201.819334 203.53901 
L 203.261628 203.53901 
L 203.261628 202.740594 
L 204.104367 202.740594 
L 204.104367 201.942178 
L 204.854754 201.942178 
L 204.854754 201.143762 
L 206.295425 201.143762 
L 206.305889 199.546931 
L 207.844994 199.546931 
L 207.844994 198.748515 
L 209.184956 198.748515 
L 209.184956 197.950099 
L 209.453652 197.950099 
L 209.453652 197.151683 
L 209.580329 197.151683 
L 209.597968 194.756436 
L 209.931011 194.756436 
L 209.931011 193.95802 
L 210.059656 193.95802 
L 210.059656 193.159604 
L 211.03223 193.159604 
L 211.03223 192.361188 
L 211.275063 192.361188 
L 211.275063 191.562772 
L 211.799641 191.562772 
L 211.799641 190.764356 
L 212.15403 190.764356 
L 212.237556 189.167525 
L 212.352034 189.167525 
L 212.352034 188.369109 
L 212.757956 188.369109 
L 212.757956 187.570693 
L 212.94754 187.570693 
L 213.016426 185.973861 
L 213.166196 185.973861 
L 213.166196 185.175446 
L 213.48454 185.175446 
L 213.48454 184.37703 
L 214.778023 184.37703 
L 214.778023 183.578614 
L 214.955341 183.578614 
L 214.955341 182.780198 
L 215.450909 182.780198 
L 215.533725 180.38495 
L 216.009091 180.38495 
L 216.009091 179.586535 
L 216.383506 179.586535 
L 216.406069 177.191287 
L 216.781051 177.191287 
L 216.781051 176.392871 
L 217.630672 176.392871 
L 217.630672 175.594455 
L 217.808403 175.594455 
L 217.808403 174.79604 
L 217.932187 174.79604 
L 217.932187 173.997624 
L 218.373693 173.997624 
L 218.373693 173.199208 
L 218.589949 173.199208 
L 218.608689 171.602376 
L 218.850676 171.602376 
L 218.850676 170.80396 
L 218.966974 170.80396 
L 219.070093 169.207129 
L 219.385517 169.207129 
L 219.385517 168.408713 
L 219.821867 168.408713 
L 219.821867 167.610297 
L 220.026437 167.610297 
L 220.085185 166.013465 
L 220.211988 166.013465 
L 220.231553 164.416634 
L 220.731266 164.416634 
L 220.731266 163.618218 
L 220.90028 163.618218 
L 220.90028 162.819802 
L 221.040079 162.819802 
L 221.040079 162.021386 
L 221.291482 162.021386 
L 221.386024 160.424554 
L 221.542673 160.424554 
L 221.646471 158.029307 
L 221.789113 158.029307 
L 221.86686 156.432475 
L 221.947649 156.432475 
L 222.058383 153.238812 
L 222.06732 153.238812 
L 222.175072 150.843564 
L 222.348932 150.843564 
L 222.348932 150.045149 
L 222.566623 150.045149 
L 222.566623 149.246733 
L 222.731519 149.246733 
L 222.731519 148.448317 
L 222.847055 148.448317 
L 222.847055 147.649901 
L 223.014707 147.649901 
L 223.014707 146.851485 
L 223.198458 146.851485 
L 223.201848 145.254653 
L 223.522054 145.254653 
L 223.595071 142.859406 
L 223.837417 142.859406 
L 223.837417 142.06099 
L 224.071117 142.06099 
L 224.071117 141.262574 
L 224.356654 141.262574 
L 224.416437 139.665743 
L 224.866482 139.665743 
L 224.916547 137.270495 
L 225.097266 137.270495 
L 225.097266 136.472079 
L 225.477026 136.472079 
L 225.477026 135.673663 
L 225.906244 135.673663 
L 225.995205 133.278416 
L 226.117007 133.278416 
L 226.117007 132.48 
L 226.361239 132.48 
L 226.361239 131.681584 
L 226.928212 131.681584 
L 226.9414 130.084752 
L 227.260247 130.084752 
L 227.260247 129.286337 
L 227.381371 129.286337 
L 227.445741 127.689505 
L 227.592892 127.689505 
L 227.592892 126.891089 
L 227.811231 126.891089 
L 227.811231 126.092673 
L 228.004676 126.092673 
L 228.004676 125.294257 
L 228.266648 125.294257 
L 228.266648 124.495842 
L 228.62297 124.495842 
L 228.62297 123.697426 
L 228.795606 123.697426 
L 228.795606 122.89901 
L 229.051114 122.89901 
L 229.097407 121.302178 
L 229.354056 121.302178 
L 229.428487 118.906931 
L 229.47304 118.906931 
L 229.47304 118.108515 
L 229.708767 118.108515 
L 229.784021 116.511683 
L 230.066238 116.511683 
L 230.127374 114.914851 
L 230.590352 114.914851 
L 230.590352 114.116436 
L 231.173858 114.116436 
L 231.193846 112.519604 
L 231.305639 112.519604 
L 231.367808 110.922772 
L 232.015396 110.922772 
L 232.015396 110.124356 
L 232.557578 110.124356 
L 232.557578 109.325941 
L 232.703567 109.325941 
L 232.703567 108.527525 
L 233.525269 108.527525 
L 233.525269 107.729109 
L 234.195324 107.729109 
L 234.195324 106.930693 
L 234.34595 106.930693 
L 234.34595 106.132277 
L 234.712323 106.132277 
L 234.712323 105.333861 
L 234.999026 105.333861 
L 234.999026 104.535446 
L 235.49475 104.535446 
L 235.49475 103.73703 
L 235.638173 103.73703 
L 235.638173 102.938614 
L 235.94331 102.938614 
L 235.94331 102.140198 
L 236.144679 102.140198 
L 236.23276 100.543366 
L 236.329933 100.543366 
L 236.329933 99.74495 
L 236.54549 99.74495 
L 236.54549 98.946535 
L 236.839721 98.946535 
L 236.903918 94.15604 
L 237.357184 94.15604 
L 237.357184 93.357624 
L 237.578319 93.357624 
L 237.659823 91.760792 
L 238.218662 91.760792 
L 238.295416 90.16396 
L 238.540575 90.16396 
L 238.616721 88.567129 
L 238.8532 88.567129 
L 238.8532 87.768713 
L 239.043802 87.768713 
L 239.045798 84.57505 
L 239.418321 84.57505 
L 239.479859 82.978218 
L 239.587577 82.978218 
L 239.650753 81.381386 
L 240.05881 81.381386 
L 240.139186 79.784554 
L 240.169972 79.784554 
L 240.169972 78.986139 
L 240.314312 78.986139 
L 240.314312 78.187723 
L 240.456466 78.187723 
L 240.456466 77.389307 
L 240.635066 77.389307 
L 240.734703 75.792475 
L 240.825337 75.792475 
L 240.908403 74.195644 
L 241.136956 74.195644 
L 241.136956 73.397228 
L 241.47045 73.397228 
L 241.47045 72.598812 
L 241.731358 72.598812 
L 241.828337 70.203564 
L 241.879915 70.203564 
L 241.901012 68.606733 
L 242.147074 68.606733 
L 242.147074 67.808317 
L 242.382202 67.808317 
L 242.382202 67.009901 
L 242.684607 67.009901 
L 242.684607 66.211485 
L 243.441349 66.211485 
L 243.509165 64.614653 
L 243.643408 64.614653 
L 243.643408 63.816238 
L 243.818348 63.816238 
L 243.818348 63.017822 
L 244.11015 63.017822 
L 244.11015 62.219406 
L 244.414677 62.219406 
L 244.466622 60.622574 
L 244.691656 60.622574 
L 244.691656 59.824158 
L 244.953505 59.824158 
L 244.963364 57.428911 
L 245.109851 57.428911 
L 245.109851 56.630495 
L 245.322163 56.630495 
L 245.322163 55.832079 
L 245.545414 55.832079 
L 245.545414 55.033663 
L 245.966901 55.033663 
L 245.966901 54.235248 
L 246.398902 54.235248 
L 246.404731 52.638416 
L 246.519924 52.638416 
L 246.519924 51.84 
L 246.838512 51.84 
L 246.838512 51.041584 
L 247.217233 51.041584 
L 247.217233 50.243168 
L 247.610319 50.243168 
L 247.68792 47.847921 
L 247.86758 47.847921 
L 247.86758 47.049505 
L 248.117953 47.049505 
L 248.157614 44.654257 
L 248.394075 44.654257 
L 248.394075 43.855842 
L 248.577287 43.855842 
L 248.6283 42.25901 
L 248.698174 42.25901 
L 248.70791 40.662178 
L 248.912261 40.662178 
L 248.912261 39.863762 
L 249.634428 39.863762 
L 249.696 38.266931 
L 250.341861 38.266931 
L 250.341861 37.468515 
L 250.631875 37.468515 
L 250.631875 36.670099 
L 251.212518 36.670099 
L 251.212518 35.871683 
L 251.335277 35.871683 
L 251.335277 35.073267 
L 251.940083 35.073267 
L 252.005273 33.476436 
L 252.134368 33.476436 
L 252.134368 32.67802 
L 252.525695 32.67802 
L 252.525695 31.879604 
L 252.967736 31.879604 
L 252.967736 31.081188 
L 253.378459 31.081188 
L 253.378459 30.282772 
L 253.563526 30.282772 
L 253.563526 29.484356 
L 254.061418 29.484356 
L 254.100743 27.887525 
L 254.29137 27.887525 
L 254.29137 27.089109 
L 258.037628 27.089109 
L 258.081094 25.492277 
L 260.199011 25.492277 
L 260.199011 24.693861 
L 261.098978 24.693861 
L 261.098978 23.895446 
L 261.438668 23.895446 
L 261.438668 23.09703 
L 262.672041 23.09703 
L 262.672041 22.298614 
L 264.686494 22.298614 
L 264.686494 21.500198 
L 265.542524 21.500198 
L 265.542524 20.701782 
L 265.733638 20.701782 
L 265.733638 19.903366 
L 267.069843 19.903366 
L 267.069843 19.10495 
L 269.377675 19.10495 
L 269.377675 18.306535 
L 270.024212 18.306535 
L 270.024212 17.508119 
L 271.540199 17.508119 
L 271.540199 16.709703 
L 271.957541 16.709703 
L 271.957541 15.911287 
L 273.4294 15.911287 
L 273.4294 15.112871 
L 273.789077 15.112871 
L 273.789077 14.314455 
L 276.913441 14.314455 
L 276.913441 13.51604 
L 277.589298 13.51604 
L 277.589298 12.717624 
L 278.182378 12.717624 
L 278.182378 11.919208 
L 278.351057 11.919208 
L 278.351057 11.120792 
L 284.190394 11.120792 
L 284.190394 10.322376 
L 286.033922 10.322376 
L 286.033922 9.52396 
L 295.915484 9.52396 
L 295.915484 8.725545 
L 296.036924 8.725545 
L 296.036924 7.927129 
L 304.73768 7.927129 
L 304.73768 7.128713 
L 318.269333 7.128713 
L 318.269333 6.330297 
L 318.269333 6.330297 
L 460.8 6.330297 
L 460.8 6.330297 
" clip-path="url(#p6fafd02595)" style="fill: none; stroke: #bf00bf; stroke-width: 1.5; stroke-linecap: square"/>
   </g>
   <g id="line2d_27">
    <path d="M -1 158.029307 
L -0.968029 158.029307 
L -0.919196 156.432475 
L -0.819795 156.432475 
L -0.790892 154.835644 
L -0.678626 154.835644 
L -0.59909 153.238812 
L -0.463832 153.238812 
L -0.435338 151.64198 
L -0.34402 151.64198 
L -0.27433 150.045149 
L -0.227835 150.045149 
L -0.227835 149.246733 
L -0.115582 149.246733 
L -0.115582 137.270495 
L 0.937141 137.270495 
L 0.937141 136.472079 
L 34.777601 136.472079 
L 34.777601 135.673663 
L 42.02286 135.673663 
L 42.02286 134.875248 
L 65.893099 134.875248 
L 65.893099 134.076832 
L 75.92158 134.076832 
L 75.92158 133.278416 
L 76.353531 133.278416 
L 76.353531 132.48 
L 77.87263 132.48 
L 77.87263 131.681584 
L 79.162577 131.681584 
L 79.162577 130.883168 
L 82.031496 130.883168 
L 82.031496 130.084752 
L 84.303677 130.084752 
L 84.37401 128.487921 
L 85.700892 128.487921 
L 85.720556 126.891089 
L 88.989743 126.891089 
L 88.989743 126.092673 
L 91.868182 126.092673 
L 91.868182 125.294257 
L 92.062898 125.294257 
L 92.062898 124.495842 
L 96.766348 124.495842 
L 96.766348 123.697426 
L 97.155787 123.697426 
L 97.155787 122.89901 
L 100.424467 122.89901 
L 100.424467 122.100594 
L 101.059977 122.100594 
L 101.059977 121.302178 
L 101.331232 121.302178 
L 101.331232 120.503762 
L 102.810088 120.503762 
L 102.810088 119.705347 
L 116.370484 119.705347 
L 116.370484 118.906931 
L 117.547999 118.906931 
L 117.547999 118.108515 
L 141.865506 118.108515 
L 141.865506 117.310099 
L 145.282883 117.310099 
L 145.282883 116.511683 
L 146.323555 116.511683 
L 146.323555 115.713267 
L 150.011201 115.713267 
L 150.011201 114.914851 
L 157.404349 114.914851 
L 157.404349 114.116436 
L 160.546501 114.116436 
L 160.546501 113.31802 
L 163.524194 113.31802 
L 163.524194 112.519604 
L 163.92906 112.519604 
L 163.92906 111.721188 
L 164.26634 111.721188 
L 164.26634 110.922772 
L 165.709391 110.922772 
L 165.709391 110.124356 
L 180.161966 110.124356 
L 180.161966 109.325941 
L 182.42015 109.325941 
L 182.42015 108.527525 
L 185.412219 108.527525 
L 185.412219 107.729109 
L 185.871149 107.729109 
L 185.871149 106.930693 
L 190.496216 106.930693 
L 190.496216 106.132277 
L 190.892502 106.132277 
L 190.892502 105.333861 
L 192.907338 105.333861 
L 192.907338 104.535446 
L 195.424652 104.535446 
L 195.512213 102.938614 
L 197.026878 102.938614 
L 197.026878 102.140198 
L 197.772065 102.140198 
L 197.772065 94.954455 
L 198.672656 94.954455 
L 198.672656 94.15604 
L 200.388231 94.15604 
L 200.388231 93.357624 
L 203.583249 93.357624 
L 203.583249 92.559208 
L 206.939091 92.559208 
L 206.939091 91.760792 
L 207.851155 91.760792 
L 207.851155 90.962376 
L 208.656878 90.962376 
L 208.656878 90.16396 
L 209.485436 90.16396 
L 209.578805 84.57505 
L 209.889774 84.57505 
L 209.889774 83.776634 
L 210.713063 83.776634 
L 210.713063 82.978218 
L 211.451844 82.978218 
L 211.451844 82.179802 
L 211.680683 82.179802 
L 211.680683 81.381386 
L 212.220897 81.381386 
L 212.237556 78.986139 
L 212.580838 78.986139 
L 212.580838 78.187723 
L 212.73717 78.187723 
L 212.794305 76.590891 
L 213.126412 76.590891 
L 213.232276 74.994059 
L 213.799112 74.994059 
L 213.799112 71.800396 
L 214.95241 71.800396 
L 214.95241 71.00198 
L 215.429747 71.00198 
L 215.429747 68.606733 
L 216.009465 68.606733 
L 216.009465 67.808317 
L 216.405663 67.808317 
L 216.440821 66.211485 
L 216.573415 66.211485 
L 216.573415 65.413069 
L 216.851195 65.413069 
L 216.851195 64.614653 
L 217.910814 64.614653 
L 217.910814 63.816238 
L 218.259849 63.816238 
L 218.261859 62.219406 
L 219.522792 62.219406 
L 219.522792 61.42099 
L 220.416747 61.42099 
L 220.465364 59.824158 
L 221.645017 59.824158 
L 221.645017 57.428911 
L 221.850664 57.428911 
L 221.922741 50.243168 
L 222.04684 50.243168 
L 222.04684 49.444752 
L 222.160221 49.444752 
L 222.160221 48.646337 
L 222.348932 48.646337 
L 222.348932 47.847921 
L 224.914666 47.847921 
L 224.914666 45.452673 
L 225.519375 45.452673 
L 225.519375 44.654257 
L 226.560519 44.654257 
L 226.560519 37.468515 
L 229.902215 37.468515 
L 229.902215 32.67802 
L 232.494224 32.67802 
L 232.494236 28.685941 
L 232.669351 28.685941 
L 232.669351 27.887525 
L 232.954096 27.887525 
L 232.954096 27.089109 
L 234.612061 27.089109 
L 234.612061 24.693861 
L 234.989446 24.693861 
L 234.989446 23.895446 
L 236.041612 23.895446 
L 236.041612 23.09703 
L 236.402666 23.09703 
L 236.402666 19.903366 
L 236.903599 19.903366 
L 236.903599 19.10495 
L 237.120101 19.10495 
L 237.120101 18.306535 
L 237.530873 18.306535 
L 237.615937 15.911287 
L 237.953759 15.911287 
L 237.953759 15.112871 
L 238.182809 15.112871 
L 238.182809 14.314455 
L 238.428915 14.314455 
L 238.428915 13.51604 
L 239.321913 13.51604 
L 239.432919 11.120792 
L 241.652893 11.120792 
L 241.652893 10.322376 
L 241.938934 10.322376 
L 241.938934 9.52396 
L 242.573398 9.52396 
L 242.573398 8.725545 
L 244.053331 8.725545 
L 244.053331 7.927129 
L 244.76926 7.927129 
L 244.76926 7.128713 
L 245.407173 7.128713 
L 245.407173 6.330297 
L 245.407173 6.330297 
L 460.8 6.330297 
L 460.8 6.330297 
" clip-path="url(#p6fafd02595)" style="fill: none; stroke: #000000; stroke-width: 1.5; stroke-linecap: square"/>
   </g>
   <g id="line2d_28">
    <path d="M -1 93.357624 
L -0.968029 93.357624 
L -0.919196 91.760792 
L -0.819795 91.760792 
L -0.790892 90.16396 
L -0.678626 90.16396 
L -0.59909 87.768713 
L -0.528611 87.768713 
L -0.435338 85.373465 
L -0.416722 85.373465 
L -0.34402 83.776634 
L -0.27433 83.776634 
L -0.227835 80.58297 
L -0.115582 80.58297 
L -0.115582 68.606733 
L 116.903137 68.606733 
L 116.903137 67.808317 
L 157.618726 67.808317 
L 157.618726 67.009901 
L 166.888585 67.009901 
L 166.888585 66.211485 
L 168.201995 66.211485 
L 168.201995 65.413069 
L 171.117907 65.413069 
L 171.117907 64.614653 
L 174.963358 64.614653 
L 175.029681 63.017822 
L 178.371351 63.017822 
L 178.371351 62.219406 
L 178.928134 62.219406 
L 178.928134 61.42099 
L 179.30147 61.42099 
L 179.30147 60.622574 
L 180.161966 60.622574 
L 180.161966 59.824158 
L 182.875335 59.824158 
L 182.875335 59.025743 
L 187.748666 59.025743 
L 187.748666 58.227327 
L 191.760869 58.227327 
L 191.812459 56.630495 
L 192.032866 56.630495 
L 192.032866 55.832079 
L 192.264224 55.832079 
L 192.264224 55.033663 
L 192.653919 55.033663 
L 192.653919 54.235248 
L 194.275512 54.235248 
L 194.275512 53.436832 
L 194.765052 53.436832 
L 194.765052 52.638416 
L 196.691524 52.638416 
L 196.691524 51.84 
L 197.128367 51.84 
L 197.128367 47.049505 
L 204.169345 47.049505 
L 204.169345 45.452673 
L 206.342776 45.452673 
L 206.342776 44.654257 
L 209.510999 44.654257 
L 209.578783 39.863762 
L 212.237556 39.863762 
L 212.260928 38.266931 
L 213.799112 38.266931 
L 213.799112 31.081188 
L 219.619413 31.081188 
L 219.619413 30.282772 
L 221.645017 30.282772 
L 221.645017 29.484356 
L 221.850664 29.484356 
L 221.850664 28.685941 
L 226.560519 28.685941 
L 226.560519 21.500198 
L 229.520833 21.500198 
L 229.520833 20.701782 
L 229.689437 20.701782 
L 229.689437 19.903366 
L 229.902215 19.903366 
L 229.902215 18.306535 
L 232.494236 18.306535 
L 232.494236 17.508119 
L 232.737001 17.508119 
L 232.798128 15.112871 
L 232.849986 15.112871 
L 232.954095 13.51604 
L 233.105843 13.51604 
L 233.105843 12.717624 
L 233.288886 12.717624 
L 233.288886 11.919208 
L 233.499307 11.919208 
L 233.520636 10.322376 
L 233.746865 10.322376 
L 233.746865 9.52396 
L 234.068425 9.52396 
L 234.088288 7.927129 
L 234.44365 7.927129 
L 234.44365 7.128713 
L 234.612061 7.128713 
L 234.612061 6.330297 
L 234.612061 6.330297 
L 460.8 6.330297 
L 460.8 6.330297 
" clip-path="url(#p6fafd02595)" style="fill: none; stroke: #00bfbf; stroke-width: 1.5; stroke-linecap: square"/>
   </g>
   <g id="line2d_29">
    <path d="M -1 68.606733 
L -0.968029 68.606733 
L -0.919196 67.009901 
L -0.819795 67.009901 
L -0.790892 65.413069 
L -0.678626 65.413069 
L -0.59909 63.017822 
L -0.528611 63.017822 
L -0.435338 60.622574 
L -0.416722 60.622574 
L -0.34402 59.025743 
L -0.27433 59.025743 
L -0.227835 55.832079 
L -0.115582 55.832079 
L -0.115582 43.855842 
L 166.888585 43.855842 
L 166.888585 43.057426 
L 176.840204 43.057426 
L 176.840204 42.25901 
L 189.890357 42.25901 
L 189.890357 41.460594 
L 194.275512 41.460594 
L 194.275512 40.662178 
L 204.938402 40.662178 
L 204.938402 39.863762 
L 208.292146 39.863762 
L 208.292146 39.065347 
L 209.510999 39.065347 
L 209.578783 35.871683 
L 209.904498 35.871683 
L 209.904498 35.073267 
L 210.804012 35.073267 
L 210.804012 34.274851 
L 213.799112 34.274851 
L 213.799112 29.484356 
L 219.619413 29.484356 
L 219.619413 28.685941 
L 223.02878 28.685941 
L 223.02878 27.887525 
L 226.215461 27.887525 
L 226.215461 27.089109 
L 226.334637 27.089109 
L 226.430045 24.693861 
L 226.560519 24.693861 
L 226.560519 16.709703 
L 232.584689 16.709703 
L 232.669934 10.322376 
L 232.70105 10.322376 
L 232.739777 6.330297 
L 232.739777 6.330297 
L 460.8 6.330297 
L 460.8 6.330297 
" clip-path="url(#p6fafd02595)" style="fill: none; stroke: #bf00bf; stroke-width: 1.5; stroke-linecap: square"/>
   </g>
   <g id="patch_3">
    <path d="M 0 293.76 
L 0 3.456 
" style="fill: none; stroke: #000000; stroke-width: 0.8; stroke-linejoin: miter; stroke-linecap: square"/>
   </g>
   <g id="patch_4">
    <path d="M 460.8 293.76 
L 460.8 3.456 
" style="fill: none; stroke: #000000; stroke-width: 0.8; stroke-linejoin: miter; stroke-linecap: square"/>
   </g>
   <g id="patch_5">
    <path d="M 0 293.76 
L 460.8 293.76 
" style="fill: none; stroke: #000000; stroke-width: 0.8; stroke-linejoin: miter; stroke-linecap: square"/>
   </g>
   <g id="patch_6">
    <path d="M 0 3.456 
L 460.8 3.456 
" style="fill: none; stroke: #000000; stroke-width: 0.8; stroke-linejoin: miter; stroke-linecap: square"/>
   </g>
   <g id="text_6">
    <!-- {f1-f24}, 5-D -->
    <g transform="translate(318.609 287.95392)scale(0.2 -0.2)">
     <defs>
      <path id="DejaVuSans-7b" d="M 3272 -594 
L 3272 -1044 
L 3078 -1044 
Q 2300 -1044 2036 -812 
Q 1772 -581 1772 109 
L 1772 856 
Q 1772 1328 1603 1509 
Q 1434 1691 991 1691 
L 800 1691 
L 800 2138 
L 991 2138 
Q 1438 2138 1605 2317 
Q 1772 2497 1772 2963 
L 1772 3713 
Q 1772 4403 2036 4633 
Q 2300 4863 3078 4863 
L 3272 4863 
L 3272 4416 
L 3059 4416 
Q 2619 4416 2484 4278 
Q 2350 4141 2350 3700 
L 2350 2925 
Q 2350 2434 2208 2212 
Q 2066 1991 1722 1913 
Q 2069 1828 2209 1606 
Q 2350 1384 2350 897 
L 2350 122 
Q 2350 -319 2484 -456 
Q 2619 -594 3059 -594 
L 3272 -594 
z
" transform="scale(0.015625)"/>
      <path id="DejaVuSans-32" d="M 1228 531 
L 3431 531 
L 3431 0 
L 469 0 
L 469 531 
Q 828 903 1448 1529 
Q 2069 2156 2228 2338 
Q 2531 2678 2651 2914 
Q 2772 3150 2772 3378 
Q 2772 3750 2511 3984 
Q 2250 4219 1831 4219 
Q 1534 4219 1204 4116 
Q 875 4013 500 3803 
L 500 4441 
Q 881 4594 1212 4672 
Q 1544 4750 1819 4750 
Q 2544 4750 2975 4387 
Q 3406 4025 3406 3419 
Q 3406 3131 3298 2873 
Q 3191 2616 2906 2266 
Q 2828 2175 2409 1742 
Q 1991 1309 1228 531 
z
" transform="scale(0.015625)"/>
      <path id="DejaVuSans-7d" d="M 800 -594 
L 1019 -594 
Q 1456 -594 1589 -459 
Q 1722 -325 1722 122 
L 1722 897 
Q 1722 1384 1862 1606 
Q 2003 1828 2350 1913 
Q 2003 1991 1862 2212 
Q 1722 2434 1722 2925 
L 1722 3700 
Q 1722 4144 1589 4280 
Q 1456 4416 1019 4416 
L 800 4416 
L 800 4863 
L 997 4863 
Q 1775 4863 2036 4633 
Q 2297 4403 2297 3713 
L 2297 2963 
Q 2297 2497 2465 2317 
Q 2634 2138 3078 2138 
L 3272 2138 
L 3272 1691 
L 3078 1691 
Q 2634 1691 2465 1509 
Q 2297 1328 2297 856 
L 2297 109 
Q 2297 -581 2036 -812 
Q 1775 -1044 997 -1044 
L 800 -1044 
L 800 -594 
z
" transform="scale(0.015625)"/>
      <path id="DejaVuSans-2c" d="M 750 794 
L 1409 794 
L 1409 256 
L 897 -744 
L 494 -744 
L 750 256 
L 750 794 
z
" transform="scale(0.015625)"/>
      <path id="DejaVuSans-35" d="M 691 4666 
L 3169 4666 
L 3169 4134 
L 1269 4134 
L 1269 2991 
Q 1406 3038 1543 3061 
Q 1681 3084 1819 3084 
Q 2600 3084 3056 2656 
Q 3513 2228 3513 1497 
Q 3513 744 3044 326 
Q 2575 -91 1722 -91 
Q 1428 -91 1123 -41 
Q 819 9 494 109 
L 494 744 
Q 775 591 1075 516 
Q 1375 441 1709 441 
Q 2250 441 2565 725 
Q 2881 1009 2881 1497 
Q 2881 1984 2565 2268 
Q 2250 2553 1709 2553 
Q 1456 2553 1204 2497 
Q 953 2441 691 2322 
L 691 4666 
z
" transform="scale(0.015625)"/>
     </defs>
     <use xlink:href="#DejaVuSans-7b"/>
     <use xlink:href="#DejaVuSans-66" x="63.623047"/>
     <use xlink:href="#DejaVuSans-31" x="98.828125"/>
     <use xlink:href="#DejaVuSans-2d" x="162.451172"/>
     <use xlink:href="#DejaVuSans-66" x="198.535156"/>
     <use xlink:href="#DejaVuSans-32" x="233.740234"/>
     <use xlink:href="#DejaVuSans-34" x="297.363281"/>
     <use xlink:href="#DejaVuSans-7d" x="360.986328"/>
     <use xlink:href="#DejaVuSans-2c" x="424.609375"/>
     <use xlink:href="#DejaVuSans-20" x="456.396484"/>
     <use xlink:href="#DejaVuSans-35" x="488.183594"/>
     <use xlink:href="#DejaVuSans-2d" x="551.806641"/>
     <use xlink:href="#DejaVuSans-44" x="587.890625"/>
    </g>
   </g>
   <g id="text_7">
    <!-- v2.6.3 -->
    <g style="fill: #808080" transform="translate(214.71875 288.777272)scale(0.1 -0.1)">
     <defs>
      <path id="DejaVuSans-76" d="M 191 3500 
L 800 3500 
L 1894 563 
L 2988 3500 
L 3597 3500 
L 2284 0 
L 1503 0 
L 191 3500 
z
" transform="scale(0.015625)"/>
      <path id="DejaVuSans-2e" d="M 684 794 
L 1344 794 
L 1344 0 
L 684 0 
L 684 794 
z
" transform="scale(0.015625)"/>
      <path id="DejaVuSans-36" d="M 2113 2584 
Q 1688 2584 1439 2293 
Q 1191 2003 1191 1497 
Q 1191 994 1439 701 
Q 1688 409 2113 409 
Q 2538 409 2786 701 
Q 3034 994 3034 1497 
Q 3034 2003 2786 2293 
Q 2538 2584 2113 2584 
z
M 3366 4563 
L 3366 3988 
Q 3128 4100 2886 4159 
Q 2644 4219 2406 4219 
Q 1781 4219 1451 3797 
Q 1122 3375 1075 2522 
Q 1259 2794 1537 2939 
Q 1816 3084 2150 3084 
Q 2853 3084 3261 2657 
Q 3669 2231 3669 1497 
Q 3669 778 3244 343 
Q 2819 -91 2113 -91 
Q 1303 -91 875 529 
Q 447 1150 447 2328 
Q 447 3434 972 4092 
Q 1497 4750 2381 4750 
Q 2619 4750 2861 4703 
Q 3103 4656 3366 4563 
z
" transform="scale(0.015625)"/>
      <path id="DejaVuSans-33" d="M 2597 2516 
Q 3050 2419 3304 2112 
Q 3559 1806 3559 1356 
Q 3559 666 3084 287 
Q 2609 -91 1734 -91 
Q 1441 -91 1130 -33 
Q 819 25 488 141 
L 488 750 
Q 750 597 1062 519 
Q 1375 441 1716 441 
Q 2309 441 2620 675 
Q 2931 909 2931 1356 
Q 2931 1769 2642 2001 
Q 2353 2234 1838 2234 
L 1294 2234 
L 1294 2753 
L 1863 2753 
Q 2328 2753 2575 2939 
Q 2822 3125 2822 3475 
Q 2822 3834 2567 4026 
Q 2313 4219 1838 4219 
Q 1578 4219 1281 4162 
Q 984 4106 628 3988 
L 628 4550 
Q 988 4650 1302 4700 
Q 1616 4750 1894 4750 
Q 2613 4750 3031 4423 
Q 3450 4097 3450 3541 
Q 3450 3153 3228 2886 
Q 3006 2619 2597 2516 
z
" transform="scale(0.015625)"/>
     </defs>
     <use xlink:href="#DejaVuSans-76"/>
     <use xlink:href="#DejaVuSans-32" x="59.179688"/>
     <use xlink:href="#DejaVuSans-2e" x="122.802734"/>
     <use xlink:href="#DejaVuSans-36" x="154.589844"/>
     <use xlink:href="#DejaVuSans-2e" x="218.212891"/>
     <use xlink:href="#DejaVuSans-33" x="250"/>
    </g>
   </g>
  </g>
 </g>
 <defs>
  <clipPath id="p6fafd02595">
   <rect x="0" y="3.456" width="460.8" height="290.304"/>
  </clipPath>
 </defs>
</svg>
