<?xml version="1.0" encoding="utf-8" standalone="no"?>
<!DOCTYPE svg PUBLIC "-//W3C//DTD SVG 1.1//EN"
  "http://www.w3.org/Graphics/SVG/1.1/DTD/svg11.dtd">
<svg xmlns:xlink="http://www.w3.org/1999/xlink" width="460.8pt" height="345.6pt" viewBox="0 0 460.8 345.6" xmlns="http://www.w3.org/2000/svg" version="1.1">
 <metadata>
  <rdf:RDF xmlns:dc="http://purl.org/dc/elements/1.1/" xmlns:cc="http://creativecommons.org/ns#" xmlns:rdf="http://www.w3.org/1999/02/22-rdf-syntax-ns#">
   <cc:Work>
    <dc:type rdf:resource="http://purl.org/dc/dcmitype/StillImage"/>
    <dc:date>2023-04-07T14:56:26.479129</dc:date>
    <dc:format>image/svg+xml</dc:format>
    <dc:creator>
     <cc:Agent>
      <dc:title>Matplotlib v3.5.2, https://matplotlib.org/</dc:title>
     </cc:Agent>
    </dc:creator>
   </cc:Work>
  </rdf:RDF>
 </metadata>
 <defs>
  <style type="text/css">*{stroke-linejoin: round; stroke-linecap: butt}</style>
 </defs>
 <g id="figure_1">
  <g id="patch_1">
   <path d="M 0 345.6 
L 460.8 345.6 
L 460.8 0 
L 0 0 
z
" style="fill: #ffffff"/>
  </g>
  <g id="axes_1">
   <g id="patch_2">
    <path d="M 0 293.76 
L 460.8 293.76 
L 460.8 3.456 
L 0 3.456 
z
" style="fill: #ffffff"/>
   </g>
   <g id="matplotlib.axis_1">
    <g id="xtick_1">
     <g id="line2d_1">
      <path d="M 106.871117 293.76 
L 106.871117 3.456 
" clip-path="url(#pb2ed2a81f0)" style="fill: none; stroke: #b0b0b0; stroke-width: 0.8; stroke-linecap: square"/>
     </g>
     <g id="line2d_2">
      <defs>
       <path id="m669be69a04" d="M 0 0 
L 0 3.5 
" style="stroke: #000000; stroke-width: 0.8"/>
      </defs>
      <g>
       <use xlink:href="#m669be69a04" x="106.871117" y="293.76" style="stroke: #000000; stroke-width: 0.8"/>
      </g>
     </g>
     <g id="text_1">
      <!-- -4 -->
      <g transform="translate(96.900804 315.956875)scale(0.2 -0.2)">
       <defs>
        <path id="DejaVuSans-2d" d="M 313 2009 
L 1997 2009 
L 1997 1497 
L 313 1497 
L 313 2009 
z
" transform="scale(0.015625)"/>
        <path id="DejaVuSans-34" d="M 2419 4116 
L 825 1625 
L 2419 1625 
L 2419 4116 
z
M 2253 4666 
L 3047 4666 
L 3047 1625 
L 3713 1625 
L 3713 1100 
L 3047 1100 
L 3047 0 
L 2419 0 
L 2419 1100 
L 313 1100 
L 313 1709 
L 2253 4666 
z
" transform="scale(0.015625)"/>
       </defs>
       <use xlink:href="#DejaVuSans-2d"/>
       <use xlink:href="#DejaVuSans-34" x="36.083984"/>
      </g>
     </g>
    </g>
    <g id="xtick_2">
     <g id="line2d_3">
      <path d="M 213.857816 293.76 
L 213.857816 3.456 
" clip-path="url(#pb2ed2a81f0)" style="fill: none; stroke: #b0b0b0; stroke-width: 0.8; stroke-linecap: square"/>
     </g>
     <g id="line2d_4">
      <g>
       <use xlink:href="#m669be69a04" x="213.857816" y="293.76" style="stroke: #000000; stroke-width: 0.8"/>
      </g>
     </g>
     <g id="text_2">
      <!-- 0 -->
      <g transform="translate(207.495316 315.956875)scale(0.2 -0.2)">
       <defs>
        <path id="DejaVuSans-30" d="M 2034 4250 
Q 1547 4250 1301 3770 
Q 1056 3291 1056 2328 
Q 1056 1369 1301 889 
Q 1547 409 2034 409 
Q 2525 409 2770 889 
Q 3016 1369 3016 2328 
Q 3016 3291 2770 3770 
Q 2525 4250 2034 4250 
z
M 2034 4750 
Q 2819 4750 3233 4129 
Q 3647 3509 3647 2328 
Q 3647 1150 3233 529 
Q 2819 -91 2034 -91 
Q 1250 -91 836 529 
Q 422 1150 422 2328 
Q 422 3509 836 4129 
Q 1250 4750 2034 4750 
z
" transform="scale(0.015625)"/>
       </defs>
       <use xlink:href="#DejaVuSans-30"/>
      </g>
     </g>
    </g>
    <g id="xtick_3">
     <g id="line2d_5">
      <path d="M 320.844515 293.76 
L 320.844515 3.456 
" clip-path="url(#pb2ed2a81f0)" style="fill: none; stroke: #b0b0b0; stroke-width: 0.8; stroke-linecap: square"/>
     </g>
     <g id="line2d_6">
      <g>
       <use xlink:href="#m669be69a04" x="320.844515" y="293.76" style="stroke: #000000; stroke-width: 0.8"/>
      </g>
     </g>
     <g id="text_3">
      <!-- 4 -->
      <g transform="translate(314.482015 315.956875)scale(0.2 -0.2)">
       <use xlink:href="#DejaVuSans-34"/>
      </g>
     </g>
    </g>
    <g id="xtick_4">
     <g id="line2d_7">
      <path d="M 427.831214 293.76 
L 427.831214 3.456 
" clip-path="url(#pb2ed2a81f0)" style="fill: none; stroke: #b0b0b0; stroke-width: 0.8; stroke-linecap: square"/>
     </g>
     <g id="line2d_8">
      <g>
       <use xlink:href="#m669be69a04" x="427.831214" y="293.76" style="stroke: #000000; stroke-width: 0.8"/>
      </g>
     </g>
     <g id="text_4">
      <!-- 8 -->
      <g transform="translate(421.468714 315.956875)scale(0.2 -0.2)">
       <defs>
        <path id="DejaVuSans-38" d="M 2034 2216 
Q 1584 2216 1326 1975 
Q 1069 1734 1069 1313 
Q 1069 891 1326 650 
Q 1584 409 2034 409 
Q 2484 409 2743 651 
Q 3003 894 3003 1313 
Q 3003 1734 2745 1975 
Q 2488 2216 2034 2216 
z
M 1403 2484 
Q 997 2584 770 2862 
Q 544 3141 544 3541 
Q 544 4100 942 4425 
Q 1341 4750 2034 4750 
Q 2731 4750 3128 4425 
Q 3525 4100 3525 3541 
Q 3525 3141 3298 2862 
Q 3072 2584 2669 2484 
Q 3125 2378 3379 2068 
Q 3634 1759 3634 1313 
Q 3634 634 3220 271 
Q 2806 -91 2034 -91 
Q 1263 -91 848 271 
Q 434 634 434 1313 
Q 434 1759 690 2068 
Q 947 2378 1403 2484 
z
M 1172 3481 
Q 1172 3119 1398 2916 
Q 1625 2713 2034 2713 
Q 2441 2713 2670 2916 
Q 2900 3119 2900 3481 
Q 2900 3844 2670 4047 
Q 2441 4250 2034 4250 
Q 1625 4250 1398 4047 
Q 1172 3844 1172 3481 
z
" transform="scale(0.015625)"/>
       </defs>
       <use xlink:href="#DejaVuSans-38"/>
      </g>
     </g>
    </g>
    <g id="text_5">
     <!-- log10 of Df -->
     <g transform="translate(175.214063 339.313125)scale(0.2 -0.2)">
      <defs>
       <path id="DejaVuSans-6c" d="M 603 4863 
L 1178 4863 
L 1178 0 
L 603 0 
L 603 4863 
z
" transform="scale(0.015625)"/>
       <path id="DejaVuSans-6f" d="M 1959 3097 
Q 1497 3097 1228 2736 
Q 959 2375 959 1747 
Q 959 1119 1226 758 
Q 1494 397 1959 397 
Q 2419 397 2687 759 
Q 2956 1122 2956 1747 
Q 2956 2369 2687 2733 
Q 2419 3097 1959 3097 
z
M 1959 3584 
Q 2709 3584 3137 3096 
Q 3566 2609 3566 1747 
Q 3566 888 3137 398 
Q 2709 -91 1959 -91 
Q 1206 -91 779 398 
Q 353 888 353 1747 
Q 353 2609 779 3096 
Q 1206 3584 1959 3584 
z
" transform="scale(0.015625)"/>
       <path id="DejaVuSans-67" d="M 2906 1791 
Q 2906 2416 2648 2759 
Q 2391 3103 1925 3103 
Q 1463 3103 1205 2759 
Q 947 2416 947 1791 
Q 947 1169 1205 825 
Q 1463 481 1925 481 
Q 2391 481 2648 825 
Q 2906 1169 2906 1791 
z
M 3481 434 
Q 3481 -459 3084 -895 
Q 2688 -1331 1869 -1331 
Q 1566 -1331 1297 -1286 
Q 1028 -1241 775 -1147 
L 775 -588 
Q 1028 -725 1275 -790 
Q 1522 -856 1778 -856 
Q 2344 -856 2625 -561 
Q 2906 -266 2906 331 
L 2906 616 
Q 2728 306 2450 153 
Q 2172 0 1784 0 
Q 1141 0 747 490 
Q 353 981 353 1791 
Q 353 2603 747 3093 
Q 1141 3584 1784 3584 
Q 2172 3584 2450 3431 
Q 2728 3278 2906 2969 
L 2906 3500 
L 3481 3500 
L 3481 434 
z
" transform="scale(0.015625)"/>
       <path id="DejaVuSans-31" d="M 794 531 
L 1825 531 
L 1825 4091 
L 703 3866 
L 703 4441 
L 1819 4666 
L 2450 4666 
L 2450 531 
L 3481 531 
L 3481 0 
L 794 0 
L 794 531 
z
" transform="scale(0.015625)"/>
       <path id="DejaVuSans-20" transform="scale(0.015625)"/>
       <path id="DejaVuSans-66" d="M 2375 4863 
L 2375 4384 
L 1825 4384 
Q 1516 4384 1395 4259 
Q 1275 4134 1275 3809 
L 1275 3500 
L 2222 3500 
L 2222 3053 
L 1275 3053 
L 1275 0 
L 697 0 
L 697 3053 
L 147 3053 
L 147 3500 
L 697 3500 
L 697 3744 
Q 697 4328 969 4595 
Q 1241 4863 1831 4863 
L 2375 4863 
z
" transform="scale(0.015625)"/>
       <path id="DejaVuSans-44" d="M 1259 4147 
L 1259 519 
L 2022 519 
Q 2988 519 3436 956 
Q 3884 1394 3884 2338 
Q 3884 3275 3436 3711 
Q 2988 4147 2022 4147 
L 1259 4147 
z
M 628 4666 
L 1925 4666 
Q 3281 4666 3915 4102 
Q 4550 3538 4550 2338 
Q 4550 1131 3912 565 
Q 3275 0 1925 0 
L 628 0 
L 628 4666 
z
" transform="scale(0.015625)"/>
      </defs>
      <use xlink:href="#DejaVuSans-6c"/>
      <use xlink:href="#DejaVuSans-6f" x="27.783203"/>
      <use xlink:href="#DejaVuSans-67" x="88.964844"/>
      <use xlink:href="#DejaVuSans-31" x="152.441406"/>
      <use xlink:href="#DejaVuSans-30" x="216.064453"/>
      <use xlink:href="#DejaVuSans-20" x="279.6875"/>
      <use xlink:href="#DejaVuSans-6f" x="311.474609"/>
      <use xlink:href="#DejaVuSans-66" x="372.65625"/>
      <use xlink:href="#DejaVuSans-20" x="407.861328"/>
      <use xlink:href="#DejaVuSans-44" x="439.648438"/>
      <use xlink:href="#DejaVuSans-66" x="516.650391"/>
     </g>
    </g>
   </g>
   <g id="matplotlib.axis_2">
    <g id="ytick_1">
     <g id="line2d_9">
      <path d="M 0 293.76 
L 460.8 293.76 
" clip-path="url(#pb2ed2a81f0)" style="fill: none; stroke: #b0b0b0; stroke-width: 0.8; stroke-linecap: square"/>
     </g>
     <g id="line2d_10">
      <defs>
       <path id="m1ebab3fe8a" d="M 0 0 
L -3.5 0 
" style="stroke: #000000; stroke-width: 0.8"/>
      </defs>
      <g>
       <use xlink:href="#m1ebab3fe8a" x="0" y="293.76" style="stroke: #000000; stroke-width: 0.8"/>
      </g>
     </g>
    </g>
    <g id="ytick_2">
     <g id="line2d_11">
      <path d="M 0 236.274059 
L 460.8 236.274059 
" clip-path="url(#pb2ed2a81f0)" style="fill: none; stroke: #b0b0b0; stroke-width: 0.8; stroke-linecap: square"/>
     </g>
     <g id="line2d_12">
      <g>
       <use xlink:href="#m1ebab3fe8a" x="0" y="236.274059" style="stroke: #000000; stroke-width: 0.8"/>
      </g>
     </g>
    </g>
    <g id="ytick_3">
     <g id="line2d_13">
      <path d="M 0 178.788119 
L 460.8 178.788119 
" clip-path="url(#pb2ed2a81f0)" style="fill: none; stroke: #b0b0b0; stroke-width: 0.8; stroke-linecap: square"/>
     </g>
     <g id="line2d_14">
      <g>
       <use xlink:href="#m1ebab3fe8a" x="0" y="178.788119" style="stroke: #000000; stroke-width: 0.8"/>
      </g>
     </g>
    </g>
    <g id="ytick_4">
     <g id="line2d_15">
      <path d="M 0 121.302178 
L 460.8 121.302178 
" clip-path="url(#pb2ed2a81f0)" style="fill: none; stroke: #b0b0b0; stroke-width: 0.8; stroke-linecap: square"/>
     </g>
     <g id="line2d_16">
      <g>
       <use xlink:href="#m1ebab3fe8a" x="0" y="121.302178" style="stroke: #000000; stroke-width: 0.8"/>
      </g>
     </g>
    </g>
    <g id="ytick_5">
     <g id="line2d_17">
      <path d="M 0 63.816238 
L 460.8 63.816238 
" clip-path="url(#pb2ed2a81f0)" style="fill: none; stroke: #b0b0b0; stroke-width: 0.8; stroke-linecap: square"/>
     </g>
     <g id="line2d_18">
      <g>
       <use xlink:href="#m1ebab3fe8a" x="0" y="63.816238" style="stroke: #000000; stroke-width: 0.8"/>
      </g>
     </g>
    </g>
    <g id="ytick_6">
     <g id="line2d_19">
      <path d="M 0 6.330297 
L 460.8 6.330297 
" clip-path="url(#pb2ed2a81f0)" style="fill: none; stroke: #b0b0b0; stroke-width: 0.8; stroke-linecap: square"/>
     </g>
     <g id="line2d_20">
      <g>
       <use xlink:href="#m1ebab3fe8a" x="0" y="6.330297" style="stroke: #000000; stroke-width: 0.8"/>
      </g>
     </g>
    </g>
   </g>
   <g id="line2d_21">
    <path d="M -1 40.821861 
L -0.919196 40.821861 
L -0.919196 36.989465 
L -0.790892 36.989465 
L -0.790892 33.157069 
L -0.652837 33.157069 
L -0.59909 25.492277 
L -0.463832 25.492277 
L -0.416722 13.995089 
L -0.34402 13.995089 
L -0.34402 10.162693 
L -0.227835 10.162693 
L -0.227835 6.330297 
L -0.227835 6.330297 
L 460.8 6.330297 
L 460.8 6.330297 
" clip-path="url(#pb2ed2a81f0)" style="fill: none; stroke: #ff0000; stroke-width: 3; stroke-linecap: square"/>
   </g>
   <g id="line2d_22">
    <path d="M 224.503317 293.76 
L 224.503317 289.927604 
L 232.287421 289.927604 
L 232.287421 286.095208 
L 233.93421 286.095208 
L 233.93421 282.262812 
L 234.257519 282.262812 
L 234.257519 278.430416 
L 237.668114 278.430416 
L 237.668114 274.59802 
L 239.710908 274.59802 
L 239.710908 270.765624 
L 241.918802 270.765624 
L 241.918802 266.933228 
L 246.520725 266.933228 
L 246.520725 263.100832 
L 248.949997 263.100832 
L 248.949997 259.268436 
L 251.614488 259.268436 
L 251.614488 255.43604 
L 255.320033 255.43604 
L 255.399252 247.771248 
L 258.481548 247.771248 
L 258.481548 243.938851 
L 259.922717 243.938851 
L 259.922717 240.106455 
L 260.571467 240.106455 
L 260.571467 236.274059 
L 286.988156 236.274059 
L 286.988156 232.441663 
L 287.996339 232.441663 
L 287.996339 228.609267 
L 288.739923 228.609267 
L 288.739923 224.776871 
L 289.173858 224.776871 
L 289.173858 220.944475 
L 289.779081 220.944475 
L 289.779081 217.112079 
L 290.371559 217.112079 
L 290.371559 213.279683 
L 291.279985 213.279683 
L 291.279985 209.447287 
L 291.864336 209.447287 
L 291.952375 201.782495 
L 292.740685 201.782495 
L 292.740685 197.950099 
L 293.091831 197.950099 
L 293.091831 194.117703 
L 294.467595 194.117703 
L 294.467595 190.285307 
L 294.643727 190.285307 
L 294.643727 186.452911 
L 296.850829 186.452911 
L 296.850829 182.620515 
L 297.090678 182.620515 
L 297.090678 178.788119 
L 301.641597 178.788119 
L 301.641597 174.955723 
L 326.095474 174.955723 
L 326.095474 171.123327 
L 333.283211 171.123327 
L 333.283211 167.290931 
L 347.31108 167.290931 
L 347.31108 163.458535 
L 350.69691 163.458535 
L 350.69691 159.626139 
L 357.867479 159.626139 
L 357.867479 155.793743 
L 359.683713 155.793743 
L 359.683713 151.961347 
L 361.401299 151.961347 
L 361.401299 148.12895 
L 362.966656 148.12895 
L 362.966656 144.296554 
L 372.98735 144.296554 
L 372.98735 140.464158 
L 380.250119 140.464158 
L 380.250119 136.631762 
L 381.460557 136.631762 
L 381.460557 132.799366 
L 383.342078 132.799366 
L 383.342078 128.96697 
L 384.274072 128.96697 
L 384.274072 125.134574 
L 387.500375 125.134574 
L 387.500375 121.302178 
L 393.077702 121.302178 
L 393.077702 117.469782 
L 393.969502 117.469782 
L 394.024832 109.80499 
L 394.352261 109.80499 
L 394.352261 105.972594 
L 394.664957 105.972594 
L 394.664957 102.140198 
L 394.988175 102.140198 
L 395.064075 94.475406 
L 395.222082 94.475406 
L 395.222082 90.64301 
L 396.501563 90.64301 
L 396.501563 86.810614 
L 397.69902 86.810614 
L 397.69902 82.978218 
L 400.098054 82.978218 
L 400.098054 79.145822 
L 402.328161 79.145822 
L 402.328161 75.313426 
L 403.433031 75.313426 
L 403.433031 71.48103 
L 404.108189 71.48103 
L 404.108189 67.648634 
L 405.06407 67.648634 
L 405.06407 63.816238 
L 406.834733 63.816238 
L 406.834733 59.983842 
L 407.205548 59.983842 
L 407.265863 52.31905 
L 410.16272 52.31905 
L 410.16272 48.486653 
L 412.226729 48.486653 
L 412.226729 44.654257 
L 414.867654 44.654257 
L 414.867654 40.821861 
L 416.019586 40.821861 
L 416.019586 36.989465 
L 421.863005 36.989465 
L 421.863005 33.157069 
L 424.76988 33.157069 
L 424.76988 29.324673 
L 427.386102 29.324673 
L 427.386102 25.492277 
L 427.500926 25.492277 
L 427.500926 21.659881 
L 427.69056 21.659881 
L 427.69056 17.827485 
L 428.016994 17.827485 
L 428.016994 13.995089 
L 428.585301 13.995089 
L 428.585301 10.162693 
L 433.589706 10.162693 
L 433.589706 6.330297 
L 433.589706 6.330297 
L 460.8 6.330297 
L 460.8 6.330297 
" clip-path="url(#pb2ed2a81f0)" style="fill: none; stroke: #00bfbf; stroke-width: 1.5; stroke-linecap: square"/>
   </g>
   <g id="line2d_23">
    <path d="M 224.503317 293.76 
L 224.503317 289.927604 
L 224.911245 289.927604 
L 224.911245 286.095208 
L 232.287421 286.095208 
L 232.287421 282.262812 
L 233.93421 282.262812 
L 233.966744 274.59802 
L 237.322573 274.59802 
L 237.322573 270.765624 
L 237.566578 270.765624 
L 237.566578 266.933228 
L 239.710908 266.933228 
L 239.710908 263.100832 
L 241.923261 263.100832 
L 241.923261 259.268436 
L 243.544381 259.268436 
L 243.544381 255.43604 
L 248.434965 255.43604 
L 248.434965 251.603644 
L 248.949997 251.603644 
L 248.949997 247.771248 
L 251.614488 247.771248 
L 251.642454 240.106455 
L 252.595461 240.106455 
L 252.595461 236.274059 
L 275.447983 236.274059 
L 275.447983 232.441663 
L 284.737668 232.441663 
L 284.737668 228.609267 
L 285.964292 228.609267 
L 286.024845 217.112079 
L 286.497208 217.112079 
L 286.500831 209.447287 
L 287.161328 209.447287 
L 287.161328 205.614891 
L 287.489572 205.614891 
L 287.489572 201.782495 
L 287.765915 201.782495 
L 287.765915 197.950099 
L 289.173858 197.950099 
L 289.173858 194.117703 
L 289.891903 194.117703 
L 289.891903 190.285307 
L 292.156681 190.285307 
L 292.156681 186.452911 
L 294.354187 186.452911 
L 294.354187 182.620515 
L 294.467595 182.620515 
L 294.467595 178.788119 
L 297.090678 178.788119 
L 297.090678 174.955723 
L 326.095474 174.955723 
L 326.095474 171.123327 
L 327.876977 171.123327 
L 327.876977 167.290931 
L 328.86845 167.290931 
L 328.86845 163.458535 
L 333.283211 163.458535 
L 333.283211 159.626139 
L 336.855301 159.626139 
L 336.855301 155.793743 
L 338.059981 155.793743 
L 338.059981 151.961347 
L 349.137028 151.961347 
L 349.137028 148.12895 
L 350.69691 148.12895 
L 350.69691 144.296554 
L 356.00702 144.296554 
L 356.00702 140.464158 
L 359.683713 140.464158 
L 359.683713 136.631762 
L 361.401299 136.631762 
L 361.401299 132.799366 
L 363.447723 132.799366 
L 363.447723 128.96697 
L 364.376301 128.96697 
L 364.469674 121.302178 
L 365.907967 121.302178 
L 365.907967 117.469782 
L 366.899345 117.469782 
L 366.899345 113.637386 
L 367.130419 113.637386 
L 367.130419 109.80499 
L 368.932623 109.80499 
L 368.932623 105.972594 
L 370.41133 105.972594 
L 370.41133 102.140198 
L 376.779424 102.140198 
L 376.779424 98.307802 
L 378.571069 98.307802 
L 378.571069 94.475406 
L 381.169454 94.475406 
L 381.169454 90.64301 
L 381.820059 90.64301 
L 381.820059 86.810614 
L 387.525358 86.810614 
L 387.525358 82.978218 
L 387.772379 82.978218 
L 387.772379 79.145822 
L 388.79499 79.145822 
L 388.79499 75.313426 
L 393.624993 75.313426 
L 393.624993 71.48103 
L 393.826102 71.48103 
L 393.826102 67.648634 
L 394.352261 67.648634 
L 394.352261 63.816238 
L 394.664957 63.816238 
L 394.664957 59.983842 
L 397.425669 59.983842 
L 397.425669 56.151446 
L 397.543416 56.151446 
L 397.543416 52.31905 
L 401.539436 52.31905 
L 401.583321 44.654257 
L 403.433031 44.654257 
L 403.433031 40.821861 
L 405.39418 40.821861 
L 405.39418 36.989465 
L 410.129093 36.989465 
L 410.129093 33.157069 
L 414.867654 33.157069 
L 414.867654 29.324673 
L 417.024533 29.324673 
L 417.024533 25.492277 
L 420.477154 25.492277 
L 420.477154 21.659881 
L 421.752639 21.659881 
L 421.863005 13.995089 
L 425.493095 13.995089 
L 425.493095 10.162693 
L 426.418193 10.162693 
L 426.418193 6.330297 
L 426.418193 6.330297 
L 460.8 6.330297 
L 460.8 6.330297 
" clip-path="url(#pb2ed2a81f0)" style="fill: none; stroke: #bf00bf; stroke-width: 1.5; stroke-linecap: square"/>
   </g>
   <g id="line2d_24">
    <path d="M 224.503317 293.76 
L 224.503317 289.927604 
L 224.911245 289.927604 
L 224.911245 286.095208 
L 228.198874 286.095208 
L 228.198874 282.262812 
L 232.287421 282.262812 
L 232.287421 278.430416 
L 233.292991 278.430416 
L 233.292991 274.59802 
L 233.93421 274.59802 
L 233.966744 266.933228 
L 234.394682 266.933228 
L 234.394682 263.100832 
L 235.60122 263.100832 
L 235.60122 259.268436 
L 237.566578 259.268436 
L 237.566578 255.43604 
L 238.874465 255.43604 
L 238.874465 251.603644 
L 240.205722 251.603644 
L 240.205722 247.771248 
L 240.949512 247.771248 
L 240.949512 243.938851 
L 244.195259 243.938851 
L 244.195259 240.106455 
L 245.136779 240.106455 
L 245.136779 236.274059 
L 275.447983 236.274059 
L 275.447983 232.441663 
L 279.534495 232.441663 
L 279.534495 228.609267 
L 283.137187 228.609267 
L 283.137187 224.776871 
L 284.024623 224.776871 
L 284.024623 220.944475 
L 284.737668 220.944475 
L 284.737668 217.112079 
L 285.06263 217.112079 
L 285.06263 213.279683 
L 286.012581 213.279683 
L 286.012581 209.447287 
L 286.497208 209.447287 
L 286.500831 201.782495 
L 287.161328 201.782495 
L 287.161328 197.950099 
L 287.465729 197.950099 
L 287.465729 194.117703 
L 288.250212 194.117703 
L 288.250212 190.285307 
L 289.434689 190.285307 
L 289.434689 186.452911 
L 290.710534 186.452911 
L 290.710534 182.620515 
L 293.912617 182.620515 
L 293.912617 178.788119 
L 296.883454 178.788119 
L 296.883454 174.955723 
L 306.335547 174.955723 
L 306.335547 171.123327 
L 315.309024 171.123327 
L 315.309024 167.290931 
L 321.892297 167.290931 
L 321.892297 163.458535 
L 326.095474 163.458535 
L 326.095474 159.626139 
L 327.876977 159.626139 
L 327.876977 155.793743 
L 328.86845 155.793743 
L 328.86845 151.961347 
L 333.283211 151.961347 
L 333.283211 148.12895 
L 336.597934 148.12895 
L 336.597934 144.296554 
L 336.855301 144.296554 
L 336.855301 140.464158 
L 339.385695 140.464158 
L 339.385695 136.631762 
L 345.122641 136.631762 
L 345.122641 132.799366 
L 350.132662 132.799366 
L 350.132662 128.96697 
L 352.425859 128.96697 
L 352.425859 125.134574 
L 353.018839 125.134574 
L 353.018839 121.302178 
L 354.461351 121.302178 
L 354.461351 117.469782 
L 358.872152 117.469782 
L 358.872152 113.637386 
L 361.401299 113.637386 
L 361.401299 109.80499 
L 361.870056 109.80499 
L 361.870056 105.972594 
L 363.447723 105.972594 
L 363.447723 102.140198 
L 363.580824 102.140198 
L 363.580824 98.307802 
L 364.376301 98.307802 
L 364.469674 90.64301 
L 364.550585 90.64301 
L 364.550585 86.810614 
L 365.784734 86.810614 
L 365.784734 82.978218 
L 367.897728 82.978218 
L 367.897728 79.145822 
L 375.701945 79.145822 
L 375.701945 75.313426 
L 378.933991 75.313426 
L 378.933991 71.48103 
L 380.133991 71.48103 
L 380.133991 67.648634 
L 383.185139 67.648634 
L 383.185139 63.816238 
L 385.426127 63.816238 
L 385.426127 59.983842 
L 388.437177 59.983842 
L 388.437177 56.151446 
L 388.87204 56.151446 
L 388.87204 52.31905 
L 389.923577 52.31905 
L 389.923577 48.486653 
L 391.75729 48.486653 
L 391.75729 44.654257 
L 392.480265 44.654257 
L 392.480265 40.821861 
L 393.555903 40.821861 
L 393.555903 36.989465 
L 394.352261 36.989465 
L 394.352261 33.157069 
L 397.425669 33.157069 
L 397.425669 29.324673 
L 400.450102 29.324673 
L 400.450102 25.492277 
L 406.156678 25.492277 
L 406.156678 21.659881 
L 407.035502 21.659881 
L 407.035502 17.827485 
L 407.437713 17.827485 
L 407.437713 13.995089 
L 413.967853 13.995089 
L 413.967853 10.162693 
L 420.160047 10.162693 
L 420.160047 6.330297 
L 420.160047 6.330297 
L 460.8 6.330297 
L 460.8 6.330297 
" clip-path="url(#pb2ed2a81f0)" style="fill: none; stroke: #000000; stroke-width: 1.5; stroke-linecap: square"/>
   </g>
   <g id="line2d_25">
    <path d="M 208.945111 293.76 
L 208.945111 289.927604 
L 210.530369 289.927604 
L 210.530369 286.095208 
L 213.312113 286.095208 
L 213.312113 282.262812 
L 217.299484 282.262812 
L 217.299484 278.430416 
L 219.101822 278.430416 
L 219.101822 274.59802 
L 224.503317 274.59802 
L 224.503317 270.765624 
L 225.455368 270.765624 
L 225.455368 266.933228 
L 226.546127 266.933228 
L 226.546127 263.100832 
L 226.806013 263.100832 
L 226.806013 259.268436 
L 227.804091 259.268436 
L 227.825967 251.603644 
L 228.744988 251.603644 
L 228.744988 247.771248 
L 230.176861 247.771248 
L 230.176861 243.938851 
L 232.754457 243.938851 
L 232.754457 240.106455 
L 235.401849 240.106455 
L 235.401849 236.274059 
L 273.263887 236.274059 
L 273.263887 232.441663 
L 273.406467 232.441663 
L 273.406467 228.609267 
L 275.447983 228.609267 
L 275.447983 224.776871 
L 275.878715 224.776871 
L 275.878715 220.944475 
L 276.126945 220.944475 
L 276.126945 217.112079 
L 276.365548 217.112079 
L 276.365548 213.279683 
L 277.026888 213.279683 
L 277.026888 209.447287 
L 277.619068 209.447287 
L 277.619068 205.614891 
L 277.795598 205.614891 
L 277.795598 201.782495 
L 278.004181 201.782495 
L 278.004181 197.950099 
L 278.127508 197.950099 
L 278.127508 194.117703 
L 279.46406 194.117703 
L 279.534495 186.452911 
L 279.971903 186.452911 
L 279.992094 178.788119 
L 280.153946 178.788119 
L 280.153946 174.955723 
L 283.039799 174.955723 
L 283.039799 171.123327 
L 287.753146 171.123327 
L 287.753146 167.290931 
L 290.982967 167.290931 
L 290.982967 163.458535 
L 291.097106 163.458535 
L 291.097106 159.626139 
L 292.987483 159.626139 
L 293.051479 151.961347 
L 295.347922 151.961347 
L 295.347922 148.12895 
L 297.294078 148.12895 
L 297.294078 144.296554 
L 302.063616 144.296554 
L 302.063616 140.464158 
L 303.083771 140.464158 
L 303.083771 136.631762 
L 303.320865 136.631762 
L 303.320865 132.799366 
L 303.592301 132.799366 
L 303.592301 128.96697 
L 307.920548 128.96697 
L 307.920548 125.134574 
L 313.732671 125.134574 
L 313.732671 121.302178 
L 315.309024 121.302178 
L 315.309024 117.469782 
L 316.587294 117.469782 
L 316.587294 113.637386 
L 323.963486 113.637386 
L 323.963486 109.80499 
L 324.342824 109.80499 
L 324.342824 105.972594 
L 324.471321 105.972594 
L 324.471321 102.140198 
L 330.091104 102.140198 
L 330.091104 98.307802 
L 331.804345 98.307802 
L 331.804345 94.475406 
L 332.024455 94.475406 
L 332.024455 90.64301 
L 335.811851 90.64301 
L 335.811851 86.810614 
L 336.950391 86.810614 
L 336.950391 82.978218 
L 338.047861 82.978218 
L 338.047861 79.145822 
L 339.957253 79.145822 
L 339.957253 75.313426 
L 342.713543 75.313426 
L 342.713543 71.48103 
L 345.799048 71.48103 
L 345.799048 67.648634 
L 351.150725 67.648634 
L 351.150725 63.816238 
L 356.076545 63.816238 
L 356.076545 59.983842 
L 366.596494 59.983842 
L 366.596494 56.151446 
L 367.323526 56.151446 
L 367.323526 52.31905 
L 370.00725 52.31905 
L 370.00725 48.486653 
L 372.032235 48.486653 
L 372.032235 44.654257 
L 373.811724 44.654257 
L 373.811724 40.821861 
L 376.015535 40.821861 
L 376.015535 36.989465 
L 376.97291 36.989465 
L 376.97291 33.157069 
L 378.841141 33.157069 
L 378.841141 29.324673 
L 380.360415 29.324673 
L 380.360415 25.492277 
L 381.711617 25.492277 
L 381.711617 21.659881 
L 385.161209 21.659881 
L 385.161209 17.827485 
L 389.588849 17.827485 
L 389.588849 13.995089 
L 390.681134 13.995089 
L 390.681134 10.162693 
L 393.499871 10.162693 
L 393.499871 6.330297 
L 393.499871 6.330297 
L 460.8 6.330297 
L 460.8 6.330297 
" clip-path="url(#pb2ed2a81f0)" style="fill: none; stroke: #00bfbf; stroke-width: 1.5; stroke-linecap: square"/>
   </g>
   <g id="line2d_26">
    <path d="M 111.729319 293.76 
L 111.729319 289.927604 
L 115.757528 289.927604 
L 115.757528 286.095208 
L 120.629575 286.095208 
L 120.629575 282.262812 
L 122.855471 282.262812 
L 122.876775 274.59802 
L 124.477297 274.59802 
L 124.477297 270.765624 
L 128.147146 270.765624 
L 128.147146 266.933228 
L 129.226613 266.933228 
L 129.226613 263.100832 
L 129.813195 263.100832 
L 129.813195 259.268436 
L 131.948327 259.268436 
L 131.948327 255.43604 
L 134.280209 255.43604 
L 134.280209 251.603644 
L 140.462084 251.603644 
L 140.462084 247.771248 
L 142.53394 247.771248 
L 142.53394 243.938851 
L 144.162549 243.938851 
L 144.162549 240.106455 
L 145.695404 240.106455 
L 145.695404 236.274059 
L 206.305889 236.274059 
L 206.305889 232.441663 
L 212.352034 232.441663 
L 212.352034 228.609267 
L 215.533725 228.609267 
L 215.533725 224.776871 
L 216.383506 224.776871 
L 216.383506 220.944475 
L 217.932187 220.944475 
L 217.932187 217.112079 
L 218.373693 217.112079 
L 218.373693 213.279683 
L 218.608689 213.279683 
L 218.608689 209.447287 
L 219.821867 209.447287 
L 219.821867 205.614891 
L 221.386024 205.614891 
L 221.386024 201.782495 
L 223.577539 201.782495 
L 223.577539 197.950099 
L 225.097266 197.950099 
L 225.097266 194.117703 
L 227.381371 194.117703 
L 227.445741 186.452911 
L 228.004676 186.452911 
L 228.004676 182.620515 
L 228.266648 182.620515 
L 228.266648 178.788119 
L 229.408042 178.788119 
L 229.408042 174.955723 
L 229.708767 174.955723 
L 229.708767 171.123327 
L 230.066238 171.123327 
L 230.066238 167.290931 
L 235.638173 167.290931 
L 235.638173 163.458535 
L 235.94331 163.458535 
L 235.94331 159.626139 
L 236.144679 159.626139 
L 236.144679 155.793743 
L 236.54549 155.793743 
L 236.54549 151.961347 
L 237.578319 151.961347 
L 237.578319 148.12895 
L 238.218662 148.12895 
L 238.218662 144.296554 
L 238.540575 144.296554 
L 238.540575 140.464158 
L 240.05881 140.464158 
L 240.05881 136.631762 
L 240.314312 136.631762 
L 240.314312 132.799366 
L 240.635066 132.799366 
L 240.635066 128.96697 
L 244.414677 128.96697 
L 244.466622 121.302178 
L 244.954523 121.302178 
L 244.954523 117.469782 
L 246.398902 117.469782 
L 246.398902 113.637386 
L 247.610319 113.637386 
L 247.610319 109.80499 
L 248.6283 109.80499 
L 248.6283 105.972594 
L 251.335277 105.972594 
L 251.335277 102.140198 
L 251.940083 102.140198 
L 252.005273 94.475406 
L 252.134368 94.475406 
L 252.134368 90.64301 
L 252.525695 90.64301 
L 252.525695 86.810614 
L 252.967736 86.810614 
L 252.967736 82.978218 
L 253.378459 82.978218 
L 253.378459 79.145822 
L 253.563526 79.145822 
L 253.563526 75.313426 
L 254.29137 75.313426 
L 254.29137 71.48103 
L 258.037628 71.48103 
L 258.081094 63.816238 
L 260.199011 63.816238 
L 260.199011 59.983842 
L 261.098978 59.983842 
L 261.098978 56.151446 
L 262.672041 56.151446 
L 262.672041 52.31905 
L 264.686494 52.31905 
L 264.686494 48.486653 
L 265.542524 48.486653 
L 265.542524 44.654257 
L 265.733638 44.654257 
L 265.733638 40.821861 
L 267.069843 40.821861 
L 267.069843 36.989465 
L 271.540199 36.989465 
L 271.540199 33.157069 
L 271.957541 33.157069 
L 271.957541 29.324673 
L 273.789077 29.324673 
L 273.789077 25.492277 
L 276.913441 25.492277 
L 276.913441 21.659881 
L 277.589298 21.659881 
L 277.589298 17.827485 
L 278.351057 17.827485 
L 278.351057 13.995089 
L 284.190394 13.995089 
L 284.190394 10.162693 
L 304.73768 10.162693 
L 304.73768 6.330297 
L 304.73768 6.330297 
L 460.8 6.330297 
L 460.8 6.330297 
" clip-path="url(#pb2ed2a81f0)" style="fill: none; stroke: #bf00bf; stroke-width: 1.5; stroke-linecap: square"/>
   </g>
   <g id="line2d_27">
    <path d="M -1 56.151446 
L -0.919196 56.151446 
L -0.919196 52.31905 
L -0.790892 52.31905 
L -0.790892 48.486653 
L -0.59909 48.486653 
L -0.59909 44.654257 
L -0.463832 44.654257 
L -0.435338 36.989465 
L -0.34402 36.989465 
L -0.34402 33.157069 
L -0.227835 33.157069 
L -0.227835 29.324673 
L 0.937141 29.324673 
L 0.937141 25.492277 
L 34.777601 25.492277 
L 34.777601 21.659881 
L 65.893099 21.659881 
L 65.893099 17.827485 
L 84.303677 17.827485 
L 84.303677 13.995089 
L 210.713063 13.995089 
L 210.713063 10.162693 
L 211.451844 10.162693 
L 211.451844 6.330297 
L 211.451844 6.330297 
L 460.8 6.330297 
L 460.8 6.330297 
" clip-path="url(#pb2ed2a81f0)" style="fill: none; stroke: #000000; stroke-width: 1.5; stroke-linecap: square"/>
   </g>
   <g id="patch_3">
    <path d="M 0 293.76 
L 0 3.456 
" style="fill: none; stroke: #000000; stroke-width: 0.8; stroke-linejoin: miter; stroke-linecap: square"/>
   </g>
   <g id="patch_4">
    <path d="M 460.8 293.76 
L 460.8 3.456 
" style="fill: none; stroke: #000000; stroke-width: 0.8; stroke-linejoin: miter; stroke-linecap: square"/>
   </g>
   <g id="patch_5">
    <path d="M 0 293.76 
L 460.8 293.76 
" style="fill: none; stroke: #000000; stroke-width: 0.8; stroke-linejoin: miter; stroke-linecap: square"/>
   </g>
   <g id="patch_6">
    <path d="M 0 3.456 
L 460.8 3.456 
" style="fill: none; stroke: #000000; stroke-width: 0.8; stroke-linejoin: miter; stroke-linecap: square"/>
   </g>
   <g id="text_6">
    <!-- {f10-f14}, 5-D -->
    <g transform="translate(305.884 287.95392)scale(0.2 -0.2)">
     <defs>
      <path id="DejaVuSans-7b" d="M 3272 -594 
L 3272 -1044 
L 3078 -1044 
Q 2300 -1044 2036 -812 
Q 1772 -581 1772 109 
L 1772 856 
Q 1772 1328 1603 1509 
Q 1434 1691 991 1691 
L 800 1691 
L 800 2138 
L 991 2138 
Q 1438 2138 1605 2317 
Q 1772 2497 1772 2963 
L 1772 3713 
Q 1772 4403 2036 4633 
Q 2300 4863 3078 4863 
L 3272 4863 
L 3272 4416 
L 3059 4416 
Q 2619 4416 2484 4278 
Q 2350 4141 2350 3700 
L 2350 2925 
Q 2350 2434 2208 2212 
Q 2066 1991 1722 1913 
Q 2069 1828 2209 1606 
Q 2350 1384 2350 897 
L 2350 122 
Q 2350 -319 2484 -456 
Q 2619 -594 3059 -594 
L 3272 -594 
z
" transform="scale(0.015625)"/>
      <path id="DejaVuSans-7d" d="M 800 -594 
L 1019 -594 
Q 1456 -594 1589 -459 
Q 1722 -325 1722 122 
L 1722 897 
Q 1722 1384 1862 1606 
Q 2003 1828 2350 1913 
Q 2003 1991 1862 2212 
Q 1722 2434 1722 2925 
L 1722 3700 
Q 1722 4144 1589 4280 
Q 1456 4416 1019 4416 
L 800 4416 
L 800 4863 
L 997 4863 
Q 1775 4863 2036 4633 
Q 2297 4403 2297 3713 
L 2297 2963 
Q 2297 2497 2465 2317 
Q 2634 2138 3078 2138 
L 3272 2138 
L 3272 1691 
L 3078 1691 
Q 2634 1691 2465 1509 
Q 2297 1328 2297 856 
L 2297 109 
Q 2297 -581 2036 -812 
Q 1775 -1044 997 -1044 
L 800 -1044 
L 800 -594 
z
" transform="scale(0.015625)"/>
      <path id="DejaVuSans-2c" d="M 750 794 
L 1409 794 
L 1409 256 
L 897 -744 
L 494 -744 
L 750 256 
L 750 794 
z
" transform="scale(0.015625)"/>
      <path id="DejaVuSans-35" d="M 691 4666 
L 3169 4666 
L 3169 4134 
L 1269 4134 
L 1269 2991 
Q 1406 3038 1543 3061 
Q 1681 3084 1819 3084 
Q 2600 3084 3056 2656 
Q 3513 2228 3513 1497 
Q 3513 744 3044 326 
Q 2575 -91 1722 -91 
Q 1428 -91 1123 -41 
Q 819 9 494 109 
L 494 744 
Q 775 591 1075 516 
Q 1375 441 1709 441 
Q 2250 441 2565 725 
Q 2881 1009 2881 1497 
Q 2881 1984 2565 2268 
Q 2250 2553 1709 2553 
Q 1456 2553 1204 2497 
Q 953 2441 691 2322 
L 691 4666 
z
" transform="scale(0.015625)"/>
     </defs>
     <use xlink:href="#DejaVuSans-7b"/>
     <use xlink:href="#DejaVuSans-66" x="63.623047"/>
     <use xlink:href="#DejaVuSans-31" x="98.828125"/>
     <use xlink:href="#DejaVuSans-30" x="162.451172"/>
     <use xlink:href="#DejaVuSans-2d" x="226.074219"/>
     <use xlink:href="#DejaVuSans-66" x="262.158203"/>
     <use xlink:href="#DejaVuSans-31" x="297.363281"/>
     <use xlink:href="#DejaVuSans-34" x="360.986328"/>
     <use xlink:href="#DejaVuSans-7d" x="424.609375"/>
     <use xlink:href="#DejaVuSans-2c" x="488.232422"/>
     <use xlink:href="#DejaVuSans-20" x="520.019531"/>
     <use xlink:href="#DejaVuSans-35" x="551.806641"/>
     <use xlink:href="#DejaVuSans-2d" x="615.429688"/>
     <use xlink:href="#DejaVuSans-44" x="651.513672"/>
    </g>
   </g>
   <g id="text_7">
    <!-- v2.6.3 -->
    <g style="fill: #808080" transform="translate(214.71875 288.777272)scale(0.1 -0.1)">
     <defs>
      <path id="DejaVuSans-76" d="M 191 3500 
L 800 3500 
L 1894 563 
L 2988 3500 
L 3597 3500 
L 2284 0 
L 1503 0 
L 191 3500 
z
" transform="scale(0.015625)"/>
      <path id="DejaVuSans-32" d="M 1228 531 
L 3431 531 
L 3431 0 
L 469 0 
L 469 531 
Q 828 903 1448 1529 
Q 2069 2156 2228 2338 
Q 2531 2678 2651 2914 
Q 2772 3150 2772 3378 
Q 2772 3750 2511 3984 
Q 2250 4219 1831 4219 
Q 1534 4219 1204 4116 
Q 875 4013 500 3803 
L 500 4441 
Q 881 4594 1212 4672 
Q 1544 4750 1819 4750 
Q 2544 4750 2975 4387 
Q 3406 4025 3406 3419 
Q 3406 3131 3298 2873 
Q 3191 2616 2906 2266 
Q 2828 2175 2409 1742 
Q 1991 1309 1228 531 
z
" transform="scale(0.015625)"/>
      <path id="DejaVuSans-2e" d="M 684 794 
L 1344 794 
L 1344 0 
L 684 0 
L 684 794 
z
" transform="scale(0.015625)"/>
      <path id="DejaVuSans-36" d="M 2113 2584 
Q 1688 2584 1439 2293 
Q 1191 2003 1191 1497 
Q 1191 994 1439 701 
Q 1688 409 2113 409 
Q 2538 409 2786 701 
Q 3034 994 3034 1497 
Q 3034 2003 2786 2293 
Q 2538 2584 2113 2584 
z
M 3366 4563 
L 3366 3988 
Q 3128 4100 2886 4159 
Q 2644 4219 2406 4219 
Q 1781 4219 1451 3797 
Q 1122 3375 1075 2522 
Q 1259 2794 1537 2939 
Q 1816 3084 2150 3084 
Q 2853 3084 3261 2657 
Q 3669 2231 3669 1497 
Q 3669 778 3244 343 
Q 2819 -91 2113 -91 
Q 1303 -91 875 529 
Q 447 1150 447 2328 
Q 447 3434 972 4092 
Q 1497 4750 2381 4750 
Q 2619 4750 2861 4703 
Q 3103 4656 3366 4563 
z
" transform="scale(0.015625)"/>
      <path id="DejaVuSans-33" d="M 2597 2516 
Q 3050 2419 3304 2112 
Q 3559 1806 3559 1356 
Q 3559 666 3084 287 
Q 2609 -91 1734 -91 
Q 1441 -91 1130 -33 
Q 819 25 488 141 
L 488 750 
Q 750 597 1062 519 
Q 1375 441 1716 441 
Q 2309 441 2620 675 
Q 2931 909 2931 1356 
Q 2931 1769 2642 2001 
Q 2353 2234 1838 2234 
L 1294 2234 
L 1294 2753 
L 1863 2753 
Q 2328 2753 2575 2939 
Q 2822 3125 2822 3475 
Q 2822 3834 2567 4026 
Q 2313 4219 1838 4219 
Q 1578 4219 1281 4162 
Q 984 4106 628 3988 
L 628 4550 
Q 988 4650 1302 4700 
Q 1616 4750 1894 4750 
Q 2613 4750 3031 4423 
Q 3450 4097 3450 3541 
Q 3450 3153 3228 2886 
Q 3006 2619 2597 2516 
z
" transform="scale(0.015625)"/>
     </defs>
     <use xlink:href="#DejaVuSans-76"/>
     <use xlink:href="#DejaVuSans-32" x="59.179688"/>
     <use xlink:href="#DejaVuSans-2e" x="122.802734"/>
     <use xlink:href="#DejaVuSans-36" x="154.589844"/>
     <use xlink:href="#DejaVuSans-2e" x="218.212891"/>
     <use xlink:href="#DejaVuSans-33" x="250"/>
    </g>
   </g>
  </g>
 </g>
 <defs>
  <clipPath id="pb2ed2a81f0">
   <rect x="0" y="3.456" width="460.8" height="290.304"/>
  </clipPath>
 </defs>
</svg>
