<?xml version="1.0" encoding="utf-8" standalone="no"?>
<!DOCTYPE svg PUBLIC "-//W3C//DTD SVG 1.1//EN"
  "http://www.w3.org/Graphics/SVG/1.1/DTD/svg11.dtd">
<svg xmlns:xlink="http://www.w3.org/1999/xlink" width="460.8pt" height="345.6pt" viewBox="0 0 460.8 345.6" xmlns="http://www.w3.org/2000/svg" version="1.1">
 <metadata>
  <rdf:RDF xmlns:dc="http://purl.org/dc/elements/1.1/" xmlns:cc="http://creativecommons.org/ns#" xmlns:rdf="http://www.w3.org/1999/02/22-rdf-syntax-ns#">
   <cc:Work>
    <dc:type rdf:resource="http://purl.org/dc/dcmitype/StillImage"/>
    <dc:date>2023-04-07T14:56:28.297121</dc:date>
    <dc:format>image/svg+xml</dc:format>
    <dc:creator>
     <cc:Agent>
      <dc:title>Matplotlib v3.5.2, https://matplotlib.org/</dc:title>
     </cc:Agent>
    </dc:creator>
   </cc:Work>
  </rdf:RDF>
 </metadata>
 <defs>
  <style type="text/css">*{stroke-linejoin: round; stroke-linecap: butt}</style>
 </defs>
 <g id="figure_1">
  <g id="patch_1">
   <path d="M 0 345.6 
L 460.8 345.6 
L 460.8 0 
L 0 0 
z
" style="fill: #ffffff"/>
  </g>
  <g id="axes_1">
   <g id="patch_2">
    <path d="M 0 293.76 
L 460.8 293.76 
L 460.8 3.456 
L 0 3.456 
z
" style="fill: #ffffff"/>
   </g>
   <g id="matplotlib.axis_1">
    <g id="xtick_1">
     <g id="line2d_1">
      <path d="M 103.470909 293.76 
L 103.470909 3.456 
" clip-path="url(#p7e09b3ee78)" style="fill: none; stroke: #b0b0b0; stroke-width: 0.8; stroke-linecap: square"/>
     </g>
     <g id="line2d_2">
      <defs>
       <path id="m83778bfeee" d="M 0 0 
L 0 3.5 
" style="stroke: #000000; stroke-width: 0.8"/>
      </defs>
      <g>
       <use xlink:href="#m83778bfeee" x="103.470909" y="293.76" style="stroke: #000000; stroke-width: 0.8"/>
      </g>
     </g>
     <g id="text_1">
      <!-- -4 -->
      <g transform="translate(93.500596 315.956875)scale(0.2 -0.2)">
       <defs>
        <path id="DejaVuSans-2d" d="M 313 2009 
L 1997 2009 
L 1997 1497 
L 313 1497 
L 313 2009 
z
" transform="scale(0.015625)"/>
        <path id="DejaVuSans-34" d="M 2419 4116 
L 825 1625 
L 2419 1625 
L 2419 4116 
z
M 2253 4666 
L 3047 4666 
L 3047 1625 
L 3713 1625 
L 3713 1100 
L 3047 1100 
L 3047 0 
L 2419 0 
L 2419 1100 
L 313 1100 
L 313 1709 
L 2253 4666 
z
" transform="scale(0.015625)"/>
       </defs>
       <use xlink:href="#DejaVuSans-2d"/>
       <use xlink:href="#DejaVuSans-34" x="36.083984"/>
      </g>
     </g>
    </g>
    <g id="xtick_2">
     <g id="line2d_3">
      <path d="M 207.053723 293.76 
L 207.053723 3.456 
" clip-path="url(#p7e09b3ee78)" style="fill: none; stroke: #b0b0b0; stroke-width: 0.8; stroke-linecap: square"/>
     </g>
     <g id="line2d_4">
      <g>
       <use xlink:href="#m83778bfeee" x="207.053723" y="293.76" style="stroke: #000000; stroke-width: 0.8"/>
      </g>
     </g>
     <g id="text_2">
      <!-- 0 -->
      <g transform="translate(200.691223 315.956875)scale(0.2 -0.2)">
       <defs>
        <path id="DejaVuSans-30" d="M 2034 4250 
Q 1547 4250 1301 3770 
Q 1056 3291 1056 2328 
Q 1056 1369 1301 889 
Q 1547 409 2034 409 
Q 2525 409 2770 889 
Q 3016 1369 3016 2328 
Q 3016 3291 2770 3770 
Q 2525 4250 2034 4250 
z
M 2034 4750 
Q 2819 4750 3233 4129 
Q 3647 3509 3647 2328 
Q 3647 1150 3233 529 
Q 2819 -91 2034 -91 
Q 1250 -91 836 529 
Q 422 1150 422 2328 
Q 422 3509 836 4129 
Q 1250 4750 2034 4750 
z
" transform="scale(0.015625)"/>
       </defs>
       <use xlink:href="#DejaVuSans-30"/>
      </g>
     </g>
    </g>
    <g id="xtick_3">
     <g id="line2d_5">
      <path d="M 310.636537 293.76 
L 310.636537 3.456 
" clip-path="url(#p7e09b3ee78)" style="fill: none; stroke: #b0b0b0; stroke-width: 0.8; stroke-linecap: square"/>
     </g>
     <g id="line2d_6">
      <g>
       <use xlink:href="#m83778bfeee" x="310.636537" y="293.76" style="stroke: #000000; stroke-width: 0.8"/>
      </g>
     </g>
     <g id="text_3">
      <!-- 4 -->
      <g transform="translate(304.274037 315.956875)scale(0.2 -0.2)">
       <use xlink:href="#DejaVuSans-34"/>
      </g>
     </g>
    </g>
    <g id="xtick_4">
     <g id="line2d_7">
      <path d="M 414.219351 293.76 
L 414.219351 3.456 
" clip-path="url(#p7e09b3ee78)" style="fill: none; stroke: #b0b0b0; stroke-width: 0.8; stroke-linecap: square"/>
     </g>
     <g id="line2d_8">
      <g>
       <use xlink:href="#m83778bfeee" x="414.219351" y="293.76" style="stroke: #000000; stroke-width: 0.8"/>
      </g>
     </g>
     <g id="text_4">
      <!-- 8 -->
      <g transform="translate(407.856851 315.956875)scale(0.2 -0.2)">
       <defs>
        <path id="DejaVuSans-38" d="M 2034 2216 
Q 1584 2216 1326 1975 
Q 1069 1734 1069 1313 
Q 1069 891 1326 650 
Q 1584 409 2034 409 
Q 2484 409 2743 651 
Q 3003 894 3003 1313 
Q 3003 1734 2745 1975 
Q 2488 2216 2034 2216 
z
M 1403 2484 
Q 997 2584 770 2862 
Q 544 3141 544 3541 
Q 544 4100 942 4425 
Q 1341 4750 2034 4750 
Q 2731 4750 3128 4425 
Q 3525 4100 3525 3541 
Q 3525 3141 3298 2862 
Q 3072 2584 2669 2484 
Q 3125 2378 3379 2068 
Q 3634 1759 3634 1313 
Q 3634 634 3220 271 
Q 2806 -91 2034 -91 
Q 1263 -91 848 271 
Q 434 634 434 1313 
Q 434 1759 690 2068 
Q 947 2378 1403 2484 
z
M 1172 3481 
Q 1172 3119 1398 2916 
Q 1625 2713 2034 2713 
Q 2441 2713 2670 2916 
Q 2900 3119 2900 3481 
Q 2900 3844 2670 4047 
Q 2441 4250 2034 4250 
Q 1625 4250 1398 4047 
Q 1172 3844 1172 3481 
z
" transform="scale(0.015625)"/>
       </defs>
       <use xlink:href="#DejaVuSans-38"/>
      </g>
     </g>
    </g>
    <g id="text_5">
     <!-- log10 of Df -->
     <g transform="translate(175.214063 339.313125)scale(0.2 -0.2)">
      <defs>
       <path id="DejaVuSans-6c" d="M 603 4863 
L 1178 4863 
L 1178 0 
L 603 0 
L 603 4863 
z
" transform="scale(0.015625)"/>
       <path id="DejaVuSans-6f" d="M 1959 3097 
Q 1497 3097 1228 2736 
Q 959 2375 959 1747 
Q 959 1119 1226 758 
Q 1494 397 1959 397 
Q 2419 397 2687 759 
Q 2956 1122 2956 1747 
Q 2956 2369 2687 2733 
Q 2419 3097 1959 3097 
z
M 1959 3584 
Q 2709 3584 3137 3096 
Q 3566 2609 3566 1747 
Q 3566 888 3137 398 
Q 2709 -91 1959 -91 
Q 1206 -91 779 398 
Q 353 888 353 1747 
Q 353 2609 779 3096 
Q 1206 3584 1959 3584 
z
" transform="scale(0.015625)"/>
       <path id="DejaVuSans-67" d="M 2906 1791 
Q 2906 2416 2648 2759 
Q 2391 3103 1925 3103 
Q 1463 3103 1205 2759 
Q 947 2416 947 1791 
Q 947 1169 1205 825 
Q 1463 481 1925 481 
Q 2391 481 2648 825 
Q 2906 1169 2906 1791 
z
M 3481 434 
Q 3481 -459 3084 -895 
Q 2688 -1331 1869 -1331 
Q 1566 -1331 1297 -1286 
Q 1028 -1241 775 -1147 
L 775 -588 
Q 1028 -725 1275 -790 
Q 1522 -856 1778 -856 
Q 2344 -856 2625 -561 
Q 2906 -266 2906 331 
L 2906 616 
Q 2728 306 2450 153 
Q 2172 0 1784 0 
Q 1141 0 747 490 
Q 353 981 353 1791 
Q 353 2603 747 3093 
Q 1141 3584 1784 3584 
Q 2172 3584 2450 3431 
Q 2728 3278 2906 2969 
L 2906 3500 
L 3481 3500 
L 3481 434 
z
" transform="scale(0.015625)"/>
       <path id="DejaVuSans-31" d="M 794 531 
L 1825 531 
L 1825 4091 
L 703 3866 
L 703 4441 
L 1819 4666 
L 2450 4666 
L 2450 531 
L 3481 531 
L 3481 0 
L 794 0 
L 794 531 
z
" transform="scale(0.015625)"/>
       <path id="DejaVuSans-20" transform="scale(0.015625)"/>
       <path id="DejaVuSans-66" d="M 2375 4863 
L 2375 4384 
L 1825 4384 
Q 1516 4384 1395 4259 
Q 1275 4134 1275 3809 
L 1275 3500 
L 2222 3500 
L 2222 3053 
L 1275 3053 
L 1275 0 
L 697 0 
L 697 3053 
L 147 3053 
L 147 3500 
L 697 3500 
L 697 3744 
Q 697 4328 969 4595 
Q 1241 4863 1831 4863 
L 2375 4863 
z
" transform="scale(0.015625)"/>
       <path id="DejaVuSans-44" d="M 1259 4147 
L 1259 519 
L 2022 519 
Q 2988 519 3436 956 
Q 3884 1394 3884 2338 
Q 3884 3275 3436 3711 
Q 2988 4147 2022 4147 
L 1259 4147 
z
M 628 4666 
L 1925 4666 
Q 3281 4666 3915 4102 
Q 4550 3538 4550 2338 
Q 4550 1131 3912 565 
Q 3275 0 1925 0 
L 628 0 
L 628 4666 
z
" transform="scale(0.015625)"/>
      </defs>
      <use xlink:href="#DejaVuSans-6c"/>
      <use xlink:href="#DejaVuSans-6f" x="27.783203"/>
      <use xlink:href="#DejaVuSans-67" x="88.964844"/>
      <use xlink:href="#DejaVuSans-31" x="152.441406"/>
      <use xlink:href="#DejaVuSans-30" x="216.064453"/>
      <use xlink:href="#DejaVuSans-20" x="279.6875"/>
      <use xlink:href="#DejaVuSans-6f" x="311.474609"/>
      <use xlink:href="#DejaVuSans-66" x="372.65625"/>
      <use xlink:href="#DejaVuSans-20" x="407.861328"/>
      <use xlink:href="#DejaVuSans-44" x="439.648438"/>
      <use xlink:href="#DejaVuSans-66" x="516.650391"/>
     </g>
    </g>
   </g>
   <g id="matplotlib.axis_2">
    <g id="ytick_1">
     <g id="line2d_9">
      <path d="M 0 293.76 
L 460.8 293.76 
" clip-path="url(#p7e09b3ee78)" style="fill: none; stroke: #b0b0b0; stroke-width: 0.8; stroke-linecap: square"/>
     </g>
     <g id="line2d_10">
      <defs>
       <path id="mab8fd83739" d="M 0 0 
L -3.5 0 
" style="stroke: #000000; stroke-width: 0.8"/>
      </defs>
      <g>
       <use xlink:href="#mab8fd83739" x="0" y="293.76" style="stroke: #000000; stroke-width: 0.8"/>
      </g>
     </g>
    </g>
    <g id="ytick_2">
     <g id="line2d_11">
      <path d="M 0 236.274059 
L 460.8 236.274059 
" clip-path="url(#p7e09b3ee78)" style="fill: none; stroke: #b0b0b0; stroke-width: 0.8; stroke-linecap: square"/>
     </g>
     <g id="line2d_12">
      <g>
       <use xlink:href="#mab8fd83739" x="0" y="236.274059" style="stroke: #000000; stroke-width: 0.8"/>
      </g>
     </g>
    </g>
    <g id="ytick_3">
     <g id="line2d_13">
      <path d="M 0 178.788119 
L 460.8 178.788119 
" clip-path="url(#p7e09b3ee78)" style="fill: none; stroke: #b0b0b0; stroke-width: 0.8; stroke-linecap: square"/>
     </g>
     <g id="line2d_14">
      <g>
       <use xlink:href="#mab8fd83739" x="0" y="178.788119" style="stroke: #000000; stroke-width: 0.8"/>
      </g>
     </g>
    </g>
    <g id="ytick_4">
     <g id="line2d_15">
      <path d="M 0 121.302178 
L 460.8 121.302178 
" clip-path="url(#p7e09b3ee78)" style="fill: none; stroke: #b0b0b0; stroke-width: 0.8; stroke-linecap: square"/>
     </g>
     <g id="line2d_16">
      <g>
       <use xlink:href="#mab8fd83739" x="0" y="121.302178" style="stroke: #000000; stroke-width: 0.8"/>
      </g>
     </g>
    </g>
    <g id="ytick_5">
     <g id="line2d_17">
      <path d="M 0 63.816238 
L 460.8 63.816238 
" clip-path="url(#p7e09b3ee78)" style="fill: none; stroke: #b0b0b0; stroke-width: 0.8; stroke-linecap: square"/>
     </g>
     <g id="line2d_18">
      <g>
       <use xlink:href="#mab8fd83739" x="0" y="63.816238" style="stroke: #000000; stroke-width: 0.8"/>
      </g>
     </g>
    </g>
    <g id="ytick_6">
     <g id="line2d_19">
      <path d="M 0 6.330297 
L 460.8 6.330297 
" clip-path="url(#p7e09b3ee78)" style="fill: none; stroke: #b0b0b0; stroke-width: 0.8; stroke-linecap: square"/>
     </g>
     <g id="line2d_20">
      <g>
       <use xlink:href="#mab8fd83739" x="0" y="6.330297" style="stroke: #000000; stroke-width: 0.8"/>
      </g>
     </g>
    </g>
   </g>
   <g id="line2d_21">
    <path d="M -1 138.068911 
L -0.902044 138.068911 
L -0.835163 135.673663 
L -0.694676 135.673663 
L -0.58693 127.689505 
L -0.566143 127.689505 
L -0.472571 122.89901 
L -0.454078 122.89901 
L -0.373177 115.713267 
L -0.3305 115.713267 
L -0.237414 111.721188 
L -0.214939 111.721188 
L -0.111905 96.551287 
L 127.325577 96.551287 
L 127.325577 95.752871 
L 135.240149 95.752871 
L 135.247755 91.760792 
L 150.133728 91.760792 
L 150.133728 90.962376 
L 154.111192 90.962376 
L 154.111192 90.16396 
L 159.058413 90.16396 
L 159.058413 89.365545 
L 160.49821 89.365545 
L 160.49821 88.567129 
L 162.489993 88.567129 
L 162.489993 87.768713 
L 163.525159 87.768713 
L 163.525159 86.970297 
L 165.246254 86.970297 
L 165.246254 86.171881 
L 167.115134 86.171881 
L 167.115134 85.373465 
L 175.26577 85.373465 
L 175.26577 80.58297 
L 175.862934 80.58297 
L 175.862934 79.784554 
L 176.776486 79.784554 
L 176.776486 78.986139 
L 177.354869 78.986139 
L 177.354869 78.187723 
L 179.361936 78.187723 
L 179.361936 77.389307 
L 183.061154 77.389307 
L 183.061154 73.397228 
L 185.18991 73.397228 
L 185.18991 72.598812 
L 187.621161 72.598812 
L 187.621161 71.00198 
L 187.760586 71.00198 
L 187.760586 70.203564 
L 190.856537 70.203564 
L 190.856537 69.405149 
L 202.910832 69.405149 
L 203.011584 59.025743 
L 207.037177 59.025743 
L 207.037177 58.227327 
L 208.023905 58.227327 
L 208.023905 57.428911 
L 210.404552 57.428911 
L 210.404552 56.630495 
L 211.129863 56.630495 
L 211.129863 55.832079 
L 211.31318 55.832079 
L 211.31318 55.033663 
L 212.002584 55.033663 
L 212.076498 52.638416 
L 213.683033 52.638416 
L 213.683033 51.84 
L 214.493445 51.84 
L 214.593166 49.444752 
L 214.792271 49.444752 
L 214.792271 48.646337 
L 215.091979 48.646337 
L 215.091979 47.049505 
L 217.758789 47.049505 
L 217.758789 45.452673 
L 222.587654 45.452673 
L 222.587654 43.855842 
L 224.447507 43.855842 
L 224.490957 42.25901 
L 225.097207 42.25901 
L 225.097207 40.662178 
L 225.294278 40.662178 
L 225.294278 39.863762 
L 227.147661 39.863762 
L 227.147661 35.073267 
L 227.662363 35.073267 
L 227.662363 34.274851 
L 228.614697 34.274851 
L 228.614697 33.476436 
L 228.881295 33.476436 
L 228.881295 30.282772 
L 229.366282 30.282772 
L 229.366282 29.484356 
L 230.383038 29.484356 
L 230.383038 28.685941 
L 233.964483 28.685941 
L 233.964483 27.887525 
L 234.943045 27.887525 
L 234.943045 26.290693 
L 235.843234 26.290693 
L 235.843234 23.09703 
L 236.508848 23.09703 
L 236.508848 22.298614 
L 236.676679 22.298614 
L 236.676679 15.911287 
L 240.190786 15.911287 
L 240.190786 15.112871 
L 240.873664 15.112871 
L 240.94724 9.52396 
L 240.994753 9.52396 
L 241.062625 6.330297 
L 241.062625 6.330297 
L 460.8 6.330297 
L 460.8 6.330297 
" clip-path="url(#p7e09b3ee78)" style="fill: none; stroke: #ff0000; stroke-width: 3; stroke-linecap: square"/>
   </g>
   <g id="line2d_22">
    <path d="M 191.479756 293.76 
L 191.479756 281.783762 
L 222.330669 281.783762 
L 222.330669 280.985347 
L 227.194181 280.985347 
L 227.194181 280.186931 
L 228.425458 280.186931 
L 228.425458 279.388515 
L 229.050256 279.388515 
L 229.050256 278.590099 
L 229.236745 278.590099 
L 229.236745 277.791683 
L 229.433272 277.791683 
L 229.433272 276.993267 
L 230.284314 276.993267 
L 230.284314 276.194851 
L 230.555385 276.194851 
L 230.555385 275.396436 
L 230.871904 275.396436 
L 230.871904 274.59802 
L 231.342227 274.59802 
L 231.342227 273.799604 
L 231.85957 273.799604 
L 231.903172 272.202772 
L 232.072064 272.202772 
L 232.072064 271.404356 
L 232.238126 271.404356 
L 232.238126 270.605941 
L 232.958957 270.605941 
L 232.958957 269.807525 
L 233.266199 269.807525 
L 233.30508 268.210693 
L 233.451644 268.210693 
L 233.451644 267.412277 
L 234.0491 267.412277 
L 234.0491 266.613861 
L 234.360357 266.613861 
L 234.360357 265.815446 
L 234.85687 265.815446 
L 234.85687 265.01703 
L 236.072556 265.01703 
L 236.072556 264.218614 
L 236.554853 264.218614 
L 236.554853 263.420198 
L 236.968663 263.420198 
L 236.968663 262.621782 
L 238.105039 262.621782 
L 238.105039 261.823366 
L 239.62002 261.823366 
L 239.62002 261.02495 
L 240.069968 261.02495 
L 240.069968 260.226535 
L 240.260837 260.226535 
L 240.260837 259.428119 
L 242.298938 259.428119 
L 242.298938 258.629703 
L 242.89246 258.629703 
L 242.89246 257.831287 
L 243.097722 257.831287 
L 243.200422 256.234455 
L 243.804357 256.234455 
L 243.804357 255.43604 
L 244.578305 255.43604 
L 244.578305 254.637624 
L 244.944096 254.637624 
L 244.944096 253.839208 
L 247.194494 253.839208 
L 247.265676 251.44396 
L 247.384699 251.44396 
L 247.384699 250.645545 
L 247.603421 250.645545 
L 247.603421 249.847129 
L 248.721888 249.847129 
L 248.721888 249.048713 
L 248.960649 249.048713 
L 248.960649 248.250297 
L 249.288284 248.250297 
L 249.288284 247.451881 
L 249.559499 247.451881 
L 249.559499 246.653465 
L 249.848741 246.653465 
L 249.901747 245.056634 
L 250.115776 245.056634 
L 250.201667 243.459802 
L 250.587793 243.459802 
L 250.652526 241.86297 
L 251.307219 241.86297 
L 251.395272 240.266139 
L 251.600181 240.266139 
L 251.631049 238.669307 
L 251.808674 238.669307 
L 251.837451 237.072475 
L 251.971073 237.072475 
L 251.971073 236.274059 
L 252.173345 236.274059 
L 252.255573 233.080396 
L 252.500472 233.080396 
L 252.526444 231.483564 
L 252.734391 231.483564 
L 252.807277 229.886733 
L 253.258907 229.886733 
L 253.279749 228.289901 
L 253.442813 228.289901 
L 253.442813 227.491485 
L 253.76267 227.491485 
L 253.76267 226.693069 
L 254.184138 226.693069 
L 254.184138 225.894653 
L 255.080728 225.894653 
L 255.146597 224.297822 
L 255.239492 224.297822 
L 255.239492 223.499406 
L 255.514001 223.499406 
L 255.573575 221.902574 
L 255.791385 221.902574 
L 255.824992 218.708911 
L 255.927583 218.708911 
L 256.00388 214.716832 
L 256.061813 214.716832 
L 256.093898 213.12 
L 256.210032 213.12 
L 256.292705 206.732673 
L 256.378513 206.732673 
L 256.378513 205.934257 
L 256.524751 205.934257 
L 256.619743 202.740594 
L 256.658408 202.740594 
L 256.746323 201.143762 
L 256.792801 201.143762 
L 256.841312 199.546931 
L 257.184967 199.546931 
L 257.184967 198.748515 
L 257.631783 198.748515 
L 257.631783 197.950099 
L 258.036175 197.950099 
L 258.036175 197.151683 
L 258.394174 197.151683 
L 258.394174 196.353267 
L 259.059417 196.353267 
L 259.108399 194.756436 
L 259.881554 194.756436 
L 259.881554 193.95802 
L 260.194497 193.95802 
L 260.194497 193.159604 
L 260.821578 193.159604 
L 260.821578 192.361188 
L 260.951403 192.361188 
L 260.951403 191.562772 
L 261.164892 191.562772 
L 261.246416 177.989703 
L 261.382213 177.989703 
L 261.382213 177.191287 
L 261.61281 177.191287 
L 261.61281 176.392871 
L 263.152109 176.392871 
L 263.152109 175.594455 
L 263.781652 175.594455 
L 263.84423 173.997624 
L 269.992767 173.997624 
L 269.992767 173.199208 
L 270.181716 173.199208 
L 270.181716 172.400792 
L 270.83956 172.400792 
L 270.83956 171.602376 
L 271.171058 171.602376 
L 271.171058 170.80396 
L 271.505291 170.80396 
L 271.59278 169.207129 
L 271.681639 169.207129 
L 271.731671 167.610297 
L 271.815712 167.610297 
L 271.815712 166.811881 
L 271.936906 166.811881 
L 271.95752 165.21505 
L 272.0506 165.21505 
L 272.060412 163.618218 
L 272.173592 163.618218 
L 272.173592 162.819802 
L 272.297716 162.819802 
L 272.377875 158.827723 
L 272.543608 158.827723 
L 272.543608 158.029307 
L 272.659265 158.029307 
L 272.682521 156.432475 
L 272.831998 156.432475 
L 272.873005 154.835644 
L 272.979598 154.835644 
L 272.979598 154.037228 
L 273.235731 154.037228 
L 273.291146 151.64198 
L 273.481402 151.64198 
L 273.481402 150.843564 
L 273.708396 150.843564 
L 273.708396 150.045149 
L 273.89468 150.045149 
L 273.986438 148.448317 
L 274.194611 148.448317 
L 274.194611 147.649901 
L 275.452345 147.649901 
L 275.452345 146.851485 
L 276.241091 146.851485 
L 276.241091 146.053069 
L 276.662963 146.053069 
L 276.662963 145.254653 
L 276.795576 145.254653 
L 276.840226 143.657822 
L 277.292594 143.657822 
L 277.382045 140.464158 
L 277.843019 140.464158 
L 277.843019 139.665743 
L 278.05065 139.665743 
L 278.05065 138.867327 
L 278.189285 138.867327 
L 278.189285 138.068911 
L 278.645291 138.068911 
L 278.713283 136.472079 
L 278.859763 136.472079 
L 278.903344 134.076832 
L 279.04896 134.076832 
L 279.04896 133.278416 
L 279.165786 133.278416 
L 279.235838 130.883168 
L 279.328378 130.883168 
L 279.328378 130.084752 
L 279.535968 130.084752 
L 279.563245 128.487921 
L 279.716426 128.487921 
L 279.783022 126.092673 
L 279.880748 126.092673 
L 279.893579 124.495842 
L 280.359225 124.495842 
L 280.468978 121.302178 
L 280.630688 121.302178 
L 280.630688 120.503762 
L 280.778443 120.503762 
L 280.845442 118.108515 
L 281.077987 118.108515 
L 281.077987 117.310099 
L 281.218877 117.310099 
L 281.226407 115.713267 
L 281.432655 115.713267 
L 281.432655 114.914851 
L 281.782541 114.914851 
L 281.782541 114.116436 
L 281.94312 114.116436 
L 282.034806 112.519604 
L 282.148123 112.519604 
L 282.148123 111.721188 
L 282.469161 111.721188 
L 282.495849 110.124356 
L 282.862143 110.124356 
L 282.918619 108.527525 
L 283.423002 108.527525 
L 283.423002 107.729109 
L 283.752414 107.729109 
L 283.752414 106.930693 
L 284.057996 106.930693 
L 284.057996 106.132277 
L 284.181887 106.132277 
L 284.181887 105.333861 
L 284.377773 105.333861 
L 284.377773 104.535446 
L 284.604839 104.535446 
L 284.604839 103.73703 
L 288.640276 103.73703 
L 288.640276 102.938614 
L 290.17385 102.938614 
L 290.17385 102.140198 
L 290.434986 102.140198 
L 290.434986 101.341782 
L 290.63704 101.341782 
L 290.690911 99.74495 
L 291.168368 99.74495 
L 291.25675 97.349703 
L 291.472185 97.349703 
L 291.472185 96.551287 
L 291.927015 96.551287 
L 291.927015 95.752871 
L 292.191044 95.752871 
L 292.245576 94.15604 
L 292.500593 94.15604 
L 292.593385 92.559208 
L 293.552638 92.559208 
L 293.647468 90.962376 
L 294.731291 90.962376 
L 294.731291 90.16396 
L 304.045526 90.16396 
L 304.045526 89.365545 
L 308.505289 89.365545 
L 308.505289 88.567129 
L 310.259493 88.567129 
L 310.259493 87.768713 
L 311.195217 87.768713 
L 311.195217 86.970297 
L 315.332181 86.970297 
L 315.332181 86.171881 
L 316.395776 86.171881 
L 316.395776 85.373465 
L 316.63448 85.373465 
L 316.63448 84.57505 
L 317.444942 84.57505 
L 317.444942 74.994059 
L 318.849171 74.994059 
L 318.849171 74.195644 
L 321.407146 74.195644 
L 321.407146 73.397228 
L 323.898729 73.397228 
L 323.898729 72.598812 
L 324.780019 72.598812 
L 324.780019 71.800396 
L 325.997649 71.800396 
L 326.065508 70.203564 
L 327.054457 70.203564 
L 327.054457 69.405149 
L 327.960316 69.405149 
L 327.960316 68.606733 
L 330.039119 68.606733 
L 330.039119 67.808317 
L 331.554202 67.808317 
L 331.554202 67.009901 
L 331.699462 67.009901 
L 331.699462 66.211485 
L 332.016498 66.211485 
L 332.016498 65.413069 
L 332.374788 65.413069 
L 332.374788 64.614653 
L 332.684647 64.614653 
L 332.684647 63.816238 
L 333.276054 63.816238 
L 333.276054 63.017822 
L 333.680499 63.017822 
L 333.786481 61.42099 
L 334.485506 61.42099 
L 334.485506 60.622574 
L 339.573804 60.622574 
L 339.573804 59.824158 
L 342.085613 59.824158 
L 342.085613 59.025743 
L 342.244945 59.025743 
L 342.244945 58.227327 
L 342.643969 58.227327 
L 342.643969 57.428911 
L 347.994086 57.428911 
L 347.997271 55.832079 
L 348.428483 55.832079 
L 348.428483 55.033663 
L 348.6649 55.033663 
L 348.6649 54.235248 
L 348.867535 54.235248 
L 348.867535 53.436832 
L 349.340775 53.436832 
L 349.340775 52.638416 
L 349.521844 52.638416 
L 349.521844 51.84 
L 349.914619 51.84 
L 349.914619 51.041584 
L 350.521952 51.041584 
L 350.521952 50.243168 
L 351.402333 50.243168 
L 351.402333 49.444752 
L 351.928202 49.444752 
L 351.928202 48.646337 
L 353.532464 48.646337 
L 353.532464 47.847921 
L 354.596322 47.847921 
L 354.596322 47.049505 
L 354.96997 47.049505 
L 354.96997 46.251089 
L 356.636263 46.251089 
L 356.636263 45.452673 
L 358.868076 45.452673 
L 358.868076 44.654257 
L 359.228044 44.654257 
L 359.228044 43.855842 
L 359.80079 43.855842 
L 359.80079 43.057426 
L 362.116197 43.057426 
L 362.116197 42.25901 
L 363.320425 42.25901 
L 363.320425 41.460594 
L 364.192196 41.460594 
L 364.192196 40.662178 
L 364.540746 40.662178 
L 364.540746 39.863762 
L 370.133549 39.863762 
L 370.133549 39.065347 
L 371.697217 39.065347 
L 371.697217 38.266931 
L 371.844107 38.266931 
L 371.844107 37.468515 
L 375.049657 37.468515 
L 375.049657 36.670099 
L 377.032121 36.670099 
L 377.032121 35.871683 
L 378.12902 35.871683 
L 378.12902 35.073267 
L 379.765434 35.073267 
L 379.765434 34.274851 
L 379.890778 34.274851 
L 379.962402 32.67802 
L 380.301439 32.67802 
L 380.301439 31.879604 
L 381.177683 31.879604 
L 381.177683 31.081188 
L 382.325665 31.081188 
L 382.325665 30.282772 
L 382.66779 30.282772 
L 382.758425 27.887525 
L 382.849932 27.887525 
L 382.849932 27.089109 
L 383.427465 27.089109 
L 383.427465 26.290693 
L 383.909307 26.290693 
L 383.909307 25.492277 
L 384.473332 25.492277 
L 384.473332 24.693861 
L 384.641463 24.693861 
L 384.641463 23.895446 
L 385.450553 23.895446 
L 385.510779 22.298614 
L 386.969344 22.298614 
L 386.969344 21.500198 
L 387.795279 21.500198 
L 387.795279 20.701782 
L 388.939081 20.701782 
L 388.939081 19.903366 
L 392.79094 19.903366 
L 392.79094 19.10495 
L 393.858743 19.10495 
L 393.858743 18.306535 
L 411.132531 18.306535 
L 411.132531 17.508119 
L 411.806874 17.508119 
L 411.806874 16.709703 
L 413.161854 16.709703 
L 413.161854 15.911287 
L 414.606718 15.911287 
L 414.606718 15.112871 
L 418.028966 15.112871 
L 418.028966 14.314455 
L 418.456608 14.314455 
L 418.456608 13.51604 
L 419.377419 13.51604 
L 419.377419 12.717624 
L 420.528931 12.717624 
L 420.528931 11.919208 
L 420.640858 11.919208 
L 420.640858 11.120792 
L 420.767709 11.120792 
L 420.767709 10.322376 
L 422.884827 10.322376 
L 422.884827 9.52396 
L 424.491692 9.52396 
L 424.491692 8.725545 
L 426.033861 8.725545 
L 426.033861 7.927129 
L 430.185125 7.927129 
L 430.185125 7.128713 
L 434.553556 7.128713 
L 434.553556 6.330297 
L 434.553556 6.330297 
L 460.8 6.330297 
L 460.8 6.330297 
" clip-path="url(#p7e09b3ee78)" style="fill: none; stroke: #00bfbf; stroke-width: 1.5; stroke-linecap: square"/>
   </g>
   <g id="line2d_23">
    <path d="M 191.479756 293.76 
L 191.479756 281.783762 
L 222.330669 281.783762 
L 222.330669 280.985347 
L 223.96186 280.985347 
L 223.96186 280.186931 
L 224.369089 280.186931 
L 224.369089 279.388515 
L 225.821309 279.388515 
L 225.821309 278.590099 
L 227.194181 278.590099 
L 227.194181 277.791683 
L 228.158348 277.791683 
L 228.158348 276.993267 
L 229.050256 276.993267 
L 229.050256 276.194851 
L 229.433272 276.194851 
L 229.433272 275.396436 
L 229.783139 275.396436 
L 229.783139 274.59802 
L 230.555385 274.59802 
L 230.611981 273.001188 
L 230.871904 273.001188 
L 230.871904 272.202772 
L 231.244449 272.202772 
L 231.244449 271.404356 
L 231.85957 271.404356 
L 231.903172 269.807525 
L 232.072064 269.807525 
L 232.072064 269.009109 
L 233.266199 269.009109 
L 233.30508 267.412277 
L 233.933891 267.412277 
L 233.968332 265.815446 
L 234.360357 265.815446 
L 234.360357 265.01703 
L 234.85687 265.01703 
L 234.85687 264.218614 
L 236.554853 264.218614 
L 236.554853 263.420198 
L 236.968663 263.420198 
L 236.968663 262.621782 
L 237.270025 262.621782 
L 237.270025 261.823366 
L 237.465699 261.823366 
L 237.465699 261.02495 
L 238.094068 261.02495 
L 238.094068 260.226535 
L 239.62002 260.226535 
L 239.62002 259.428119 
L 240.220309 259.428119 
L 240.220309 258.629703 
L 241.528529 258.629703 
L 241.528529 257.831287 
L 241.850412 257.831287 
L 241.850412 257.032871 
L 242.298938 257.032871 
L 242.298938 256.234455 
L 242.89246 256.234455 
L 242.89246 255.43604 
L 243.097722 255.43604 
L 243.097722 254.637624 
L 244.578305 254.637624 
L 244.578305 253.839208 
L 244.944096 253.839208 
L 244.944096 253.040792 
L 245.818448 253.040792 
L 245.818448 252.242376 
L 246.575917 252.242376 
L 246.650116 250.645545 
L 246.867848 250.645545 
L 246.867848 249.847129 
L 247.155457 249.847129 
L 247.257471 248.250297 
L 247.331506 248.250297 
L 247.384699 246.653465 
L 247.628818 246.653465 
L 247.628818 245.85505 
L 248.110033 245.85505 
L 248.110033 245.056634 
L 248.721888 245.056634 
L 248.721888 244.258218 
L 249.192944 244.258218 
L 249.288284 242.661386 
L 249.312239 242.661386 
L 249.362588 241.064554 
L 249.848741 241.064554 
L 249.901747 239.467723 
L 250.115776 239.467723 
L 250.201667 237.870891 
L 250.4207 237.870891 
L 250.438353 235.475644 
L 250.652526 235.475644 
L 250.652526 234.677228 
L 251.230707 234.677228 
L 251.230707 233.878812 
L 251.395272 233.878812 
L 251.395272 233.080396 
L 251.739613 233.080396 
L 251.837451 229.088317 
L 252.240982 229.088317 
L 252.261623 225.894653 
L 252.386584 225.894653 
L 252.386584 225.096238 
L 253.354476 225.096238 
L 253.387565 223.499406 
L 254.886229 223.499406 
L 254.886229 222.70099 
L 255.080728 222.70099 
L 255.175566 219.507327 
L 255.239492 219.507327 
L 255.281017 216.313663 
L 255.510804 216.313663 
L 255.616903 211.523168 
L 255.706527 211.523168 
L 255.813836 208.329505 
L 255.822549 208.329505 
L 255.874989 205.934257 
L 255.996402 205.934257 
L 256.10508 203.53901 
L 256.257734 203.53901 
L 256.35681 200.345347 
L 256.378513 200.345347 
L 256.378513 199.546931 
L 256.55201 199.546931 
L 256.634818 196.353267 
L 256.763378 196.353267 
L 256.792801 193.95802 
L 257.184967 193.95802 
L 257.184967 193.159604 
L 257.442397 193.159604 
L 257.442397 192.361188 
L 257.656953 192.361188 
L 257.656953 191.562772 
L 258.036175 191.562772 
L 258.036175 190.764356 
L 258.394174 190.764356 
L 258.394174 189.965941 
L 259.465712 189.965941 
L 259.465712 189.167525 
L 260.194497 189.167525 
L 260.292278 187.570693 
L 261.21891 187.570693 
L 261.21891 175.594455 
L 262.017873 175.594455 
L 262.017873 174.79604 
L 263.152109 174.79604 
L 263.152109 173.997624 
L 265.411364 173.997624 
L 265.411364 173.199208 
L 267.7036 173.199208 
L 267.7036 172.400792 
L 268.789839 172.400792 
L 268.789839 171.602376 
L 269.343112 171.602376 
L 269.411232 170.005545 
L 270.181716 170.005545 
L 270.181716 169.207129 
L 270.484306 169.207129 
L 270.484306 168.408713 
L 270.664219 168.408713 
L 270.699237 166.811881 
L 270.981958 166.811881 
L 270.981958 166.013465 
L 271.171058 166.013465 
L 271.171058 165.21505 
L 271.304663 165.21505 
L 271.30705 163.618218 
L 271.505291 163.618218 
L 271.601911 160.424554 
L 271.681639 160.424554 
L 271.731671 158.827723 
L 271.815712 158.827723 
L 271.815712 158.029307 
L 271.936906 158.029307 
L 271.939032 156.432475 
L 272.0506 156.432475 
L 272.0506 155.634059 
L 272.173592 155.634059 
L 272.269594 153.238812 
L 272.297716 153.238812 
L 272.374453 150.045149 
L 272.616419 150.045149 
L 272.682521 148.448317 
L 272.873005 148.448317 
L 272.979598 146.851485 
L 273.08533 146.851485 
L 273.08533 146.053069 
L 273.89468 146.053069 
L 273.89468 145.254653 
L 274.193893 145.254653 
L 274.193893 144.456238 
L 274.762456 144.456238 
L 274.762456 143.657822 
L 274.887597 143.657822 
L 274.887597 142.859406 
L 275.767245 142.859406 
L 275.767245 142.06099 
L 276.048432 142.06099 
L 276.048432 141.262574 
L 276.223162 141.262574 
L 276.241091 139.665743 
L 276.496492 139.665743 
L 276.601131 138.068911 
L 276.662963 138.068911 
L 276.664524 136.472079 
L 276.795576 136.472079 
L 276.86011 134.076832 
L 277.152781 134.076832 
L 277.152781 133.278416 
L 277.313605 133.278416 
L 277.3538 130.883168 
L 277.438577 130.883168 
L 277.438577 130.084752 
L 278.028347 130.084752 
L 278.05065 128.487921 
L 278.189285 128.487921 
L 278.263996 126.092673 
L 278.415585 126.092673 
L 278.415585 125.294257 
L 278.641628 125.294257 
L 278.713283 123.697426 
L 278.859763 123.697426 
L 278.904882 119.705347 
L 279.328378 119.705347 
L 279.328378 118.906931 
L 279.535968 118.906931 
L 279.563245 117.310099 
L 279.662389 117.310099 
L 279.716426 115.713267 
L 279.783022 115.713267 
L 279.880748 114.116436 
L 279.985841 114.116436 
L 279.985841 113.31802 
L 280.454315 113.31802 
L 280.564791 110.922772 
L 280.630688 110.922772 
L 280.630688 110.124356 
L 280.778443 110.124356 
L 280.845442 107.729109 
L 281.040879 107.729109 
L 281.040879 106.930693 
L 281.226407 106.930693 
L 281.279333 104.535446 
L 282.034806 104.535446 
L 282.034806 103.73703 
L 282.247101 103.73703 
L 282.247101 102.938614 
L 282.862143 102.938614 
L 282.882115 101.341782 
L 287.145481 101.341782 
L 287.145481 100.543366 
L 287.97044 100.543366 
L 288.019407 98.148119 
L 288.640276 98.148119 
L 288.640276 97.349703 
L 288.948357 97.349703 
L 288.948357 96.551287 
L 289.329842 96.551287 
L 289.329842 95.752871 
L 289.895849 95.752871 
L 289.895849 94.954455 
L 290.17385 94.954455 
L 290.17385 94.15604 
L 290.342016 94.15604 
L 290.342016 93.357624 
L 290.848086 93.357624 
L 290.848086 92.559208 
L 291.187435 92.559208 
L 291.25675 90.16396 
L 291.722079 90.16396 
L 291.722079 89.365545 
L 292.245576 89.365545 
L 292.245576 88.567129 
L 293.465586 88.567129 
L 293.465586 87.768713 
L 294.731291 87.768713 
L 294.731291 86.970297 
L 300.062502 86.970297 
L 300.062502 86.171881 
L 307.564625 86.171881 
L 307.564625 85.373465 
L 308.505289 85.373465 
L 308.505289 84.57505 
L 308.961737 84.57505 
L 308.99116 82.978218 
L 311.827221 82.978218 
L 311.827221 82.179802 
L 312.980831 82.179802 
L 312.980831 81.381386 
L 313.111183 81.381386 
L 313.111183 80.58297 
L 315.086463 80.58297 
L 315.086463 79.784554 
L 315.332181 79.784554 
L 315.332181 78.986139 
L 315.819108 78.986139 
L 315.819108 78.187723 
L 316.195818 78.187723 
L 316.291467 76.590891 
L 317.444942 76.590891 
L 317.444942 71.800396 
L 317.857783 71.800396 
L 317.857783 71.00198 
L 318.849171 71.00198 
L 318.849171 70.203564 
L 321.407146 70.203564 
L 321.407146 69.405149 
L 323.898729 69.405149 
L 323.898729 68.606733 
L 324.780019 68.606733 
L 324.780019 67.808317 
L 325.329173 67.808317 
L 325.329173 67.009901 
L 325.997649 67.009901 
L 326.065508 65.413069 
L 327.054457 65.413069 
L 327.054457 64.614653 
L 330.039119 64.614653 
L 330.039119 63.816238 
L 330.644271 63.816238 
L 330.644271 63.017822 
L 330.765438 63.017822 
L 330.765438 62.219406 
L 331.554202 62.219406 
L 331.554202 61.42099 
L 331.699462 61.42099 
L 331.699462 60.622574 
L 332.016498 60.622574 
L 332.016498 59.824158 
L 332.374788 59.824158 
L 332.374788 59.025743 
L 333.276054 59.025743 
L 333.276054 58.227327 
L 333.547707 58.227327 
L 333.547707 57.428911 
L 333.680499 57.428911 
L 333.687934 55.832079 
L 334.485506 55.832079 
L 334.485506 55.033663 
L 339.573804 55.033663 
L 339.573804 54.235248 
L 342.61287 54.235248 
L 342.643969 52.638416 
L 345.470826 52.638416 
L 345.470826 51.84 
L 346.821269 51.84 
L 346.821269 51.041584 
L 347.053315 51.041584 
L 347.053315 50.243168 
L 347.994086 50.243168 
L 347.994086 49.444752 
L 348.574593 49.444752 
L 348.629944 47.847921 
L 349.340775 47.847921 
L 349.340775 47.049505 
L 351.402333 47.049505 
L 351.402333 46.251089 
L 351.928202 46.251089 
L 351.928202 45.452673 
L 354.96997 45.452673 
L 355.019042 43.855842 
L 356.010114 43.855842 
L 356.010114 43.057426 
L 357.150886 43.057426 
L 357.150886 42.25901 
L 358.583266 42.25901 
L 358.583266 41.460594 
L 359.80079 41.460594 
L 359.80079 40.662178 
L 362.116197 40.662178 
L 362.116197 39.863762 
L 362.291583 39.863762 
L 362.291583 39.065347 
L 363.320425 39.065347 
L 363.320425 38.266931 
L 367.404666 38.266931 
L 367.404666 37.468515 
L 368.591877 37.468515 
L 368.591877 36.670099 
L 369.728289 36.670099 
L 369.728289 35.871683 
L 371.580047 35.871683 
L 371.580047 35.073267 
L 371.697217 35.073267 
L 371.697217 34.274851 
L 371.844107 34.274851 
L 371.844107 33.476436 
L 373.013202 33.476436 
L 373.013202 32.67802 
L 373.481975 32.67802 
L 373.504098 31.081188 
L 374.532844 31.081188 
L 374.532844 30.282772 
L 375.049657 30.282772 
L 375.049657 29.484356 
L 375.904622 29.484356 
L 375.904622 28.685941 
L 376.142203 28.685941 
L 376.142203 27.887525 
L 376.601864 27.887525 
L 376.601864 27.089109 
L 377.839188 27.089109 
L 377.839188 26.290693 
L 378.058266 26.290693 
L 378.058266 25.492277 
L 379.833366 25.492277 
L 379.833366 24.693861 
L 379.947994 24.693861 
L 379.947994 23.895446 
L 380.108579 23.895446 
L 380.108579 23.09703 
L 380.285465 23.09703 
L 380.300644 21.500198 
L 381.177683 21.500198 
L 381.177683 20.701782 
L 382.694142 20.701782 
L 382.694142 19.903366 
L 383.909307 19.903366 
L 383.909307 19.10495 
L 385.450553 19.10495 
L 385.450553 18.306535 
L 411.132531 18.306535 
L 411.132531 17.508119 
L 411.257993 17.508119 
L 411.257993 16.709703 
L 411.806874 16.709703 
L 411.806874 15.911287 
L 413.161854 15.911287 
L 413.161854 15.112871 
L 414.606718 15.112871 
L 414.606718 14.314455 
L 417.225992 14.314455 
L 417.225992 13.51604 
L 418.214518 13.51604 
L 418.214518 12.717624 
L 418.61278 12.717624 
L 418.61278 11.919208 
L 419.48301 11.919208 
L 419.48301 11.120792 
L 420.528931 11.120792 
L 420.528931 10.322376 
L 420.640858 10.322376 
L 420.640858 9.52396 
L 420.767709 9.52396 
L 420.767709 8.725545 
L 421.070728 8.725545 
L 421.070728 7.927129 
L 423.647514 7.927129 
L 423.647514 7.128713 
L 428.98905 7.128713 
L 428.98905 6.330297 
L 428.98905 6.330297 
L 460.8 6.330297 
L 460.8 6.330297 
" clip-path="url(#p7e09b3ee78)" style="fill: none; stroke: #bf00bf; stroke-width: 1.5; stroke-linecap: square"/>
   </g>
   <g id="line2d_24">
    <path d="M 191.479756 293.76 
L 191.479756 281.783762 
L 222.330669 281.783762 
L 222.330669 280.985347 
L 223.936472 280.985347 
L 223.96186 279.388515 
L 224.369089 279.388515 
L 224.369089 278.590099 
L 225.821309 278.590099 
L 225.821309 277.791683 
L 227.194181 277.791683 
L 227.194181 276.993267 
L 227.845066 276.993267 
L 227.845066 276.194851 
L 228.022156 276.194851 
L 228.022156 275.396436 
L 228.158348 275.396436 
L 228.158348 274.59802 
L 228.682742 274.59802 
L 228.682742 273.799604 
L 229.433272 273.799604 
L 229.433272 273.001188 
L 229.783139 273.001188 
L 229.783139 272.202772 
L 230.192761 272.202772 
L 230.224821 270.605941 
L 230.634086 270.605941 
L 230.634086 269.807525 
L 230.906945 269.807525 
L 230.906945 269.009109 
L 231.168381 269.009109 
L 231.168381 268.210693 
L 231.356817 268.210693 
L 231.356817 267.412277 
L 231.694217 267.412277 
L 231.694217 266.613861 
L 232.072064 266.613861 
L 232.072064 265.815446 
L 232.240986 265.815446 
L 232.240986 265.01703 
L 232.984445 265.01703 
L 232.984445 264.218614 
L 233.140894 264.218614 
L 233.140894 263.420198 
L 233.266199 263.420198 
L 233.30508 261.823366 
L 233.933891 261.823366 
L 233.933891 261.02495 
L 234.369509 261.02495 
L 234.369509 260.226535 
L 234.948769 260.226535 
L 234.948769 259.428119 
L 236.554853 259.428119 
L 236.554853 258.629703 
L 238.750172 258.629703 
L 238.750172 257.831287 
L 239.473887 257.831287 
L 239.473887 257.032871 
L 240.220669 257.032871 
L 240.220669 256.234455 
L 240.409416 256.234455 
L 240.48108 254.637624 
L 240.904983 254.637624 
L 240.985127 253.040792 
L 241.580808 253.040792 
L 241.580808 252.242376 
L 242.337511 252.242376 
L 242.337511 251.44396 
L 242.89246 251.44396 
L 242.89246 250.645545 
L 244.592051 250.645545 
L 244.592051 249.847129 
L 244.735754 249.847129 
L 244.761584 248.250297 
L 245.099643 248.250297 
L 245.099643 247.451881 
L 245.426812 247.451881 
L 245.525345 245.85505 
L 245.835227 245.85505 
L 245.835227 245.056634 
L 246.424992 245.056634 
L 246.424992 244.258218 
L 246.648626 244.258218 
L 246.650116 242.661386 
L 247.155457 242.661386 
L 247.155457 241.86297 
L 247.331506 241.86297 
L 247.384699 240.266139 
L 247.6654 240.266139 
L 247.750178 237.870891 
L 247.894139 237.870891 
L 247.894139 237.072475 
L 248.139015 237.072475 
L 248.139015 236.274059 
L 248.261565 236.274059 
L 248.261565 235.475644 
L 248.615126 235.475644 
L 248.721888 233.080396 
L 248.900783 233.080396 
L 248.900783 232.28198 
L 249.401243 232.28198 
L 249.401243 231.483564 
L 249.848741 231.483564 
L 249.954937 229.886733 
L 250.042466 229.886733 
L 250.120923 228.289901 
L 250.199007 228.289901 
L 250.199007 227.491485 
L 250.336067 227.491485 
L 250.4207 225.894653 
L 250.510355 225.894653 
L 250.510355 225.096238 
L 250.631057 225.096238 
L 250.631057 224.297822 
L 250.904088 224.297822 
L 250.904088 223.499406 
L 251.172986 223.499406 
L 251.172986 222.70099 
L 251.39478 222.70099 
L 251.39478 221.902574 
L 251.59938 221.902574 
L 251.59938 221.104158 
L 251.760961 221.104158 
L 251.776814 219.507327 
L 251.937085 219.507327 
L 251.937085 218.708911 
L 252.423269 218.708911 
L 252.423269 217.910495 
L 253.481513 217.910495 
L 253.481513 217.112079 
L 253.828308 217.112079 
L 253.828308 216.313663 
L 253.976174 216.313663 
L 253.976174 215.515248 
L 254.150352 215.515248 
L 254.230099 213.12 
L 254.279196 213.12 
L 254.279196 212.321584 
L 254.573182 212.321584 
L 254.627089 210.724752 
L 254.744023 210.724752 
L 254.847831 208.329505 
L 254.857635 208.329505 
L 254.913679 206.732673 
L 255.037611 206.732673 
L 255.133911 201.942178 
L 255.229086 201.942178 
L 255.279903 198.748515 
L 255.351449 198.748515 
L 255.351449 197.950099 
L 255.521997 197.950099 
L 255.522287 196.353267 
L 255.639954 196.353267 
L 255.691531 194.756436 
L 255.791385 194.756436 
L 255.890321 190.764356 
L 255.982513 190.764356 
L 256.017896 188.369109 
L 256.228629 188.369109 
L 256.284899 186.772277 
L 258.584624 186.772277 
L 258.584624 185.973861 
L 261.21891 185.973861 
L 261.21891 173.997624 
L 261.71987 173.997624 
L 261.71987 173.199208 
L 262.384909 173.199208 
L 262.384909 172.400792 
L 263.474337 172.400792 
L 263.474337 171.602376 
L 264.180806 171.602376 
L 264.274338 170.005545 
L 265.196922 170.005545 
L 265.296392 168.408713 
L 265.411364 168.408713 
L 265.411364 167.610297 
L 265.56363 167.610297 
L 265.624101 166.013465 
L 265.756151 166.013465 
L 265.778589 164.416634 
L 265.926378 164.416634 
L 265.926378 163.618218 
L 266.08949 163.618218 
L 266.118136 162.021386 
L 266.242234 162.021386 
L 266.329623 160.424554 
L 267.292247 160.424554 
L 267.292247 159.626139 
L 267.7036 159.626139 
L 267.7036 158.827723 
L 268.837476 158.827723 
L 268.837476 158.029307 
L 269.066507 158.029307 
L 269.066507 157.230891 
L 269.385707 157.230891 
L 269.385707 156.432475 
L 269.63135 156.432475 
L 269.63135 155.634059 
L 270.181716 155.634059 
L 270.28078 154.037228 
L 270.538347 154.037228 
L 270.538347 153.238812 
L 271.08707 153.238812 
L 271.08707 152.440396 
L 271.377479 152.440396 
L 271.377479 151.64198 
L 271.505291 151.64198 
L 271.610678 149.246733 
L 271.681639 149.246733 
L 271.731671 147.649901 
L 271.815712 147.649901 
L 271.815712 146.851485 
L 271.936906 146.851485 
L 271.936906 146.053069 
L 272.0506 146.053069 
L 272.0506 145.254653 
L 272.173592 145.254653 
L 272.173592 144.456238 
L 272.303776 144.456238 
L 272.386924 142.06099 
L 272.448393 142.06099 
L 272.549402 140.464158 
L 272.714322 140.464158 
L 272.714322 139.665743 
L 273.04974 139.665743 
L 273.149551 136.472079 
L 273.916816 136.472079 
L 273.941695 134.875248 
L 274.043098 134.875248 
L 274.078993 131.681584 
L 274.347924 131.681584 
L 274.347924 130.883168 
L 274.478554 130.883168 
L 274.478554 130.084752 
L 274.848032 130.084752 
L 274.951939 126.891089 
L 275.075563 126.891089 
L 275.075563 126.092673 
L 275.378574 126.092673 
L 275.487681 124.495842 
L 275.673373 124.495842 
L 275.673373 123.697426 
L 276.100391 123.697426 
L 276.100391 122.89901 
L 276.223162 122.89901 
L 276.223162 122.100594 
L 276.347337 122.100594 
L 276.377436 119.705347 
L 276.552643 119.705347 
L 276.662963 118.108515 
L 276.664524 118.108515 
L 276.774468 116.511683 
L 276.86011 116.511683 
L 276.914529 114.914851 
L 277.106127 114.914851 
L 277.213311 113.31802 
L 277.351642 113.31802 
L 277.365012 110.922772 
L 277.463528 110.922772 
L 277.463528 110.124356 
L 278.091582 110.124356 
L 278.091582 109.325941 
L 278.30829 109.325941 
L 278.30829 108.527525 
L 278.421635 108.527525 
L 278.421635 107.729109 
L 278.616233 107.729109 
L 278.616233 106.930693 
L 278.800461 106.930693 
L 278.904882 104.535446 
L 279.328378 104.535446 
L 279.328378 103.73703 
L 279.486556 103.73703 
L 279.486556 102.938614 
L 279.692743 102.938614 
L 279.692743 102.140198 
L 279.981493 102.140198 
L 280.064239 100.543366 
L 280.178866 100.543366 
L 280.178866 99.74495 
L 280.630688 99.74495 
L 280.630688 98.946535 
L 280.778443 98.946535 
L 280.845442 97.349703 
L 281.836836 97.349703 
L 281.836836 96.551287 
L 282.862143 96.551287 
L 282.862143 95.752871 
L 287.16231 95.752871 
L 287.16231 94.954455 
L 287.299899 94.954455 
L 287.299899 94.15604 
L 287.49777 94.15604 
L 287.52241 92.559208 
L 287.753755 92.559208 
L 287.753755 91.760792 
L 288.362233 91.760792 
L 288.362233 90.962376 
L 288.640276 90.962376 
L 288.640276 90.16396 
L 288.89895 90.16396 
L 288.89895 89.365545 
L 289.046381 89.365545 
L 289.046381 88.567129 
L 289.212797 88.567129 
L 289.212797 87.768713 
L 289.329842 87.768713 
L 289.329842 86.970297 
L 289.517482 86.970297 
L 289.517482 86.171881 
L 289.981035 86.171881 
L 289.981035 85.373465 
L 290.581992 85.373465 
L 290.581992 84.57505 
L 292.514039 84.57505 
L 292.514039 83.776634 
L 292.925247 83.776634 
L 292.925247 82.978218 
L 295.150691 82.978218 
L 295.150691 82.179802 
L 295.718141 82.179802 
L 295.718141 81.381386 
L 299.678426 81.381386 
L 299.678426 80.58297 
L 300.168627 80.58297 
L 300.168627 79.784554 
L 301.309885 79.784554 
L 301.309885 78.986139 
L 304.397717 78.986139 
L 304.397717 78.187723 
L 305.229987 78.187723 
L 305.229987 77.389307 
L 307.564625 77.389307 
L 307.564625 76.590891 
L 308.027093 76.590891 
L 308.027093 75.792475 
L 308.505289 75.792475 
L 308.505289 74.994059 
L 308.63745 74.994059 
L 308.63745 74.195644 
L 308.961737 74.195644 
L 309.07239 72.598812 
L 311.518329 72.598812 
L 311.518329 71.800396 
L 311.685447 71.800396 
L 311.685447 71.00198 
L 311.827221 71.00198 
L 311.827221 70.203564 
L 313.616142 70.203564 
L 313.616142 69.405149 
L 313.877651 69.405149 
L 313.877651 68.606733 
L 314.114661 68.606733 
L 314.114661 67.808317 
L 315.086463 67.808317 
L 315.086463 67.009901 
L 315.332181 67.009901 
L 315.332181 66.211485 
L 316.218848 66.211485 
L 316.218848 65.413069 
L 317.444942 65.413069 
L 317.444942 64.614653 
L 320.676009 64.614653 
L 320.676009 63.816238 
L 321.407146 63.816238 
L 321.407146 63.017822 
L 321.625026 63.017822 
L 321.625026 62.219406 
L 322.28783 62.219406 
L 322.28783 61.42099 
L 323.251865 61.42099 
L 323.251865 60.622574 
L 323.634839 60.622574 
L 323.639623 59.025743 
L 323.898729 59.025743 
L 323.898729 58.227327 
L 324.895691 58.227327 
L 324.895691 57.428911 
L 325.064394 57.428911 
L 325.064394 56.630495 
L 325.997649 56.630495 
L 326.065508 55.033663 
L 326.501309 55.033663 
L 326.600636 53.436832 
L 329.404673 53.436832 
L 329.404673 52.638416 
L 329.775981 52.638416 
L 329.775981 51.84 
L 331.196253 51.84 
L 331.196253 51.041584 
L 331.692149 51.041584 
L 331.692149 50.243168 
L 332.191392 50.243168 
L 332.191392 49.444752 
L 333.393066 49.444752 
L 333.393066 48.646337 
L 336.623729 48.646337 
L 336.623729 47.847921 
L 338.31456 47.847921 
L 338.31456 47.049505 
L 338.543087 47.049505 
L 338.543087 46.251089 
L 339.910011 46.251089 
L 339.910011 45.452673 
L 340.360715 45.452673 
L 340.360715 44.654257 
L 342.61287 44.654257 
L 342.61287 43.855842 
L 349.294979 43.855842 
L 349.294979 43.057426 
L 353.578924 43.057426 
L 353.578924 42.25901 
L 355.591304 42.25901 
L 355.591304 41.460594 
L 357.150886 41.460594 
L 357.150886 40.662178 
L 357.581154 40.662178 
L 357.581154 39.863762 
L 359.80079 39.863762 
L 359.80079 39.065347 
L 361.089989 39.065347 
L 361.089989 38.266931 
L 362.116197 38.266931 
L 362.116197 37.468515 
L 362.291583 37.468515 
L 362.291583 36.670099 
L 362.654258 36.670099 
L 362.654258 35.871683 
L 363.784363 35.871683 
L 363.784363 35.073267 
L 363.969711 35.073267 
L 363.969711 34.274851 
L 364.086808 34.274851 
L 364.086808 33.476436 
L 364.46999 33.476436 
L 364.508842 31.879604 
L 365.707017 31.879604 
L 365.707017 31.081188 
L 366.718829 31.081188 
L 366.718829 30.282772 
L 367.089298 30.282772 
L 367.089298 29.484356 
L 367.404666 29.484356 
L 367.463592 27.887525 
L 368.085913 27.887525 
L 368.085913 27.089109 
L 368.777202 27.089109 
L 368.777202 26.290693 
L 369.504178 26.290693 
L 369.504178 25.492277 
L 369.896312 25.492277 
L 369.896312 24.693861 
L 370.160039 24.693861 
L 370.160039 23.895446 
L 370.359049 23.895446 
L 370.359049 23.09703 
L 370.789735 23.09703 
L 370.789735 22.298614 
L 371.57476 22.298614 
L 371.57476 21.500198 
L 372.425527 21.500198 
L 372.425527 20.701782 
L 375.266676 20.701782 
L 375.266676 19.903366 
L 378.789107 19.903366 
L 378.789107 19.10495 
L 379.973869 19.10495 
L 379.973869 18.306535 
L 405.061616 18.306535 
L 405.061616 17.508119 
L 405.434233 17.508119 
L 405.434233 16.709703 
L 408.677176 16.709703 
L 408.677176 15.911287 
L 410.350807 15.911287 
L 410.370064 14.314455 
L 411.04774 14.314455 
L 411.132531 12.717624 
L 411.257993 12.717624 
L 411.257993 11.919208 
L 412.532561 11.919208 
L 412.532561 11.120792 
L 412.681921 11.120792 
L 412.681921 10.322376 
L 414.931741 10.322376 
L 414.931741 9.52396 
L 415.252597 9.52396 
L 415.348643 7.927129 
L 416.655077 7.927129 
L 416.655077 7.128713 
L 417.699868 7.128713 
L 417.699868 6.330297 
L 417.699868 6.330297 
L 460.8 6.330297 
L 460.8 6.330297 
" clip-path="url(#p7e09b3ee78)" style="fill: none; stroke: #000000; stroke-width: 1.5; stroke-linecap: square"/>
   </g>
   <g id="line2d_25">
    <path d="M 191.479756 293.76 
L 191.479756 281.783762 
L 222.330669 281.783762 
L 222.330669 280.985347 
L 223.277867 280.985347 
L 223.277867 280.186931 
L 223.936472 280.186931 
L 223.96186 278.590099 
L 224.141175 278.590099 
L 224.141175 277.791683 
L 224.959003 277.791683 
L 224.959003 276.993267 
L 225.411154 276.993267 
L 225.512014 275.396436 
L 225.612435 275.396436 
L 225.714891 273.799604 
L 225.821309 273.799604 
L 225.910291 271.404356 
L 225.978876 271.404356 
L 225.978876 270.605941 
L 226.421866 270.605941 
L 226.421866 269.807525 
L 226.538972 269.807525 
L 226.563021 268.210693 
L 226.746473 268.210693 
L 226.746473 267.412277 
L 226.860278 267.412277 
L 226.925264 265.815446 
L 227.005076 265.815446 
L 227.005076 265.01703 
L 227.141786 265.01703 
L 227.141786 264.218614 
L 227.328486 264.218614 
L 227.328486 263.420198 
L 227.889266 263.420198 
L 227.889266 262.621782 
L 228.805876 262.621782 
L 228.805876 261.823366 
L 229.190771 261.823366 
L 229.286983 259.428119 
L 229.480048 259.428119 
L 229.480048 258.629703 
L 229.774657 258.629703 
L 229.788008 257.032871 
L 230.052315 257.032871 
L 230.074799 254.637624 
L 230.523824 254.637624 
L 230.523824 253.839208 
L 232.348495 253.839208 
L 232.348495 253.040792 
L 232.645138 253.040792 
L 232.724265 250.645545 
L 232.844068 250.645545 
L 232.945703 249.048713 
L 233.882936 249.048713 
L 233.882936 248.250297 
L 234.391506 248.250297 
L 234.461214 245.056634 
L 235.018851 245.056634 
L 235.018851 244.258218 
L 236.168569 244.258218 
L 236.168569 243.459802 
L 236.425457 243.459802 
L 236.425457 242.661386 
L 236.681099 242.661386 
L 236.681099 241.86297 
L 236.943295 241.86297 
L 236.943295 241.064554 
L 237.064832 241.064554 
L 237.064832 240.266139 
L 237.22502 240.266139 
L 237.22502 239.467723 
L 237.394927 239.467723 
L 237.394927 238.669307 
L 237.734981 238.669307 
L 237.734981 237.870891 
L 237.872635 237.870891 
L 237.901814 236.274059 
L 238.106233 236.274059 
L 238.194427 234.677228 
L 238.557452 234.677228 
L 238.557452 233.878812 
L 238.853691 233.878812 
L 238.853691 233.080396 
L 239.290727 233.080396 
L 239.290727 232.28198 
L 239.605657 232.28198 
L 239.696666 230.685149 
L 239.87389 230.685149 
L 239.87389 229.886733 
L 240.052912 229.886733 
L 240.052912 229.088317 
L 240.378114 229.088317 
L 240.378114 228.289901 
L 240.529266 228.289901 
L 240.543828 226.693069 
L 241.038882 226.693069 
L 241.038882 225.894653 
L 241.250723 225.894653 
L 241.250723 225.096238 
L 241.552234 225.096238 
L 241.552234 224.297822 
L 241.670352 224.297822 
L 241.670352 223.499406 
L 241.781636 223.499406 
L 241.781636 222.70099 
L 241.952139 222.70099 
L 241.952139 221.902574 
L 242.239461 221.902574 
L 242.239461 221.104158 
L 242.715371 221.104158 
L 242.715371 220.305743 
L 242.974294 220.305743 
L 242.975521 218.708911 
L 243.123584 218.708911 
L 243.123584 217.910495 
L 243.253638 217.910495 
L 243.316813 215.515248 
L 243.611515 215.515248 
L 243.684757 213.918416 
L 244.383081 213.918416 
L 244.383081 213.12 
L 244.691132 213.12 
L 244.717639 211.523168 
L 244.905225 211.523168 
L 244.917731 209.926337 
L 245.242383 209.926337 
L 245.242383 209.127921 
L 245.355562 209.127921 
L 245.3965 206.732673 
L 245.506785 206.732673 
L 245.506785 205.934257 
L 245.846348 205.934257 
L 245.891686 203.53901 
L 246.40107 203.53901 
L 246.410411 201.143762 
L 247.273444 201.143762 
L 247.273444 200.345347 
L 247.384699 200.345347 
L 247.384699 199.546931 
L 247.520038 199.546931 
L 247.520038 198.748515 
L 247.6654 198.748515 
L 247.702724 197.151683 
L 247.852889 197.151683 
L 247.852889 196.353267 
L 248.046959 196.353267 
L 248.046959 195.554851 
L 248.261565 195.554851 
L 248.261565 194.756436 
L 248.568165 194.756436 
L 248.666543 193.159604 
L 248.86301 193.159604 
L 248.922512 191.562772 
L 248.995863 191.562772 
L 248.995863 190.764356 
L 249.296033 190.764356 
L 249.296033 189.965941 
L 249.499954 189.965941 
L 249.580207 188.369109 
L 249.672101 188.369109 
L 249.672101 187.570693 
L 249.804216 187.570693 
L 249.890968 185.973861 
L 251.000176 185.973861 
L 251.059038 184.37703 
L 251.318604 184.37703 
L 251.390703 182.780198 
L 251.588445 182.780198 
L 251.588445 181.981782 
L 252.304106 181.981782 
L 252.304106 181.183366 
L 252.52734 181.183366 
L 252.52734 180.38495 
L 252.691261 180.38495 
L 252.752866 177.989703 
L 252.861131 177.989703 
L 252.909721 176.392871 
L 253.345908 176.392871 
L 253.345908 175.594455 
L 253.807024 175.594455 
L 253.807024 174.79604 
L 254.535398 174.79604 
L 254.535398 173.997624 
L 255.006909 173.997624 
L 255.006909 173.199208 
L 258.6861 173.199208 
L 258.712362 171.602376 
L 259.985142 171.602376 
L 259.985142 170.80396 
L 260.850521 170.80396 
L 260.850521 170.005545 
L 261.21891 170.005545 
L 261.21891 158.029307 
L 262.853551 158.029307 
L 262.853551 157.230891 
L 263.102104 157.230891 
L 263.102104 156.432475 
L 263.429612 156.432475 
L 263.429612 155.634059 
L 264.048509 155.634059 
L 264.048509 154.835644 
L 264.717649 154.835644 
L 264.717649 154.037228 
L 265.181792 154.037228 
L 265.181792 153.238812 
L 265.352765 153.238812 
L 265.411364 151.64198 
L 266.329623 151.64198 
L 266.329623 150.843564 
L 267.033479 150.843564 
L 267.033479 150.045149 
L 267.292247 150.045149 
L 267.384719 148.448317 
L 267.7036 148.448317 
L 267.811193 146.851485 
L 268.088839 146.851485 
L 268.146709 145.254653 
L 268.299164 145.254653 
L 268.398475 143.657822 
L 268.453532 143.657822 
L 268.453532 142.859406 
L 268.584049 142.859406 
L 268.68153 141.262574 
L 268.697223 141.262574 
L 268.763113 138.068911 
L 268.837476 138.068911 
L 268.944736 136.472079 
L 268.950175 136.472079 
L 268.997788 134.076832 
L 269.083069 134.076832 
L 269.130543 131.681584 
L 269.274122 131.681584 
L 269.382866 127.689505 
L 269.439476 127.689505 
L 269.516711 124.495842 
L 269.606384 124.495842 
L 269.706023 122.100594 
L 269.724132 122.100594 
L 269.728466 120.503762 
L 269.929075 120.503762 
L 269.94836 118.906931 
L 270.083049 118.906931 
L 270.110769 117.310099 
L 270.281513 117.310099 
L 270.281513 116.511683 
L 270.610405 116.511683 
L 270.610405 115.713267 
L 270.936074 115.713267 
L 271.011474 113.31802 
L 271.050742 113.31802 
L 271.1118 111.721188 
L 271.162643 111.721188 
L 271.162643 110.922772 
L 271.280623 110.922772 
L 271.280623 110.124356 
L 271.579134 110.124356 
L 271.644942 106.930693 
L 271.702959 106.930693 
L 271.702959 106.132277 
L 271.851289 106.132277 
L 271.897467 104.535446 
L 272.370708 104.535446 
L 272.479232 101.341782 
L 272.549402 101.341782 
L 272.549402 100.543366 
L 273.061902 100.543366 
L 273.072599 98.946535 
L 273.229741 98.946535 
L 273.229741 98.148119 
L 273.56727 98.148119 
L 273.56727 97.349703 
L 273.717383 97.349703 
L 273.717383 96.551287 
L 274.011199 96.551287 
L 274.011199 95.752871 
L 274.13821 95.752871 
L 274.192904 94.15604 
L 274.730762 94.15604 
L 274.730762 93.357624 
L 274.960349 93.357624 
L 274.960349 92.559208 
L 275.582809 92.559208 
L 275.582809 91.760792 
L 275.712869 91.760792 
L 275.712869 90.962376 
L 275.953148 90.962376 
L 275.997205 88.567129 
L 276.465373 88.567129 
L 276.465373 87.768713 
L 276.730846 87.768713 
L 276.730846 86.970297 
L 276.868649 86.970297 
L 276.868649 86.171881 
L 277.090665 86.171881 
L 277.090665 85.373465 
L 277.741953 85.373465 
L 277.741953 84.57505 
L 278.30829 84.57505 
L 278.329807 82.978218 
L 279.327398 82.978218 
L 279.327398 82.179802 
L 279.596801 82.179802 
L 279.596801 81.381386 
L 280.466567 81.381386 
L 280.466567 80.58297 
L 281.224729 80.58297 
L 281.224729 79.784554 
L 281.776908 79.784554 
L 281.776908 78.986139 
L 282.346409 78.986139 
L 282.346409 78.187723 
L 282.784241 78.187723 
L 282.843821 76.590891 
L 283.035065 76.590891 
L 283.035065 75.792475 
L 283.263856 75.792475 
L 283.263856 74.994059 
L 283.431229 74.994059 
L 283.431229 74.195644 
L 283.561501 74.195644 
L 283.561501 73.397228 
L 283.712373 73.397228 
L 283.795459 71.00198 
L 283.922962 71.00198 
L 283.922962 70.203564 
L 284.1295 70.203564 
L 284.1295 69.405149 
L 284.498318 69.405149 
L 284.551721 67.808317 
L 284.684522 67.808317 
L 284.684522 67.009901 
L 285.450973 67.009901 
L 285.450973 66.211485 
L 285.74812 66.211485 
L 285.74812 65.413069 
L 285.930395 65.413069 
L 285.930395 64.614653 
L 286.271681 64.614653 
L 286.271681 63.816238 
L 289.826552 63.816238 
L 289.826552 63.017822 
L 291.455522 63.017822 
L 291.455522 62.219406 
L 291.882555 62.219406 
L 291.882555 61.42099 
L 293.611734 61.42099 
L 293.611734 60.622574 
L 296.2407 60.622574 
L 296.2407 59.824158 
L 296.480759 59.824158 
L 296.480759 59.025743 
L 297.504348 59.025743 
L 297.504348 58.227327 
L 297.8931 58.227327 
L 297.8931 57.428911 
L 299.159417 57.428911 
L 299.159417 56.630495 
L 299.562905 56.630495 
L 299.562905 55.832079 
L 301.021367 55.832079 
L 301.021367 55.033663 
L 301.511804 55.033663 
L 301.511804 54.235248 
L 301.676365 54.235248 
L 301.676365 53.436832 
L 302.813613 53.436832 
L 302.813613 52.638416 
L 303.69725 52.638416 
L 303.69725 51.84 
L 304.279907 51.84 
L 304.279907 51.041584 
L 305.593165 51.041584 
L 305.593165 50.243168 
L 306.184662 50.243168 
L 306.184662 49.444752 
L 307.600249 49.444752 
L 307.600249 48.646337 
L 308.372637 48.646337 
L 308.372637 47.847921 
L 308.535907 47.847921 
L 308.535907 47.049505 
L 309.629751 47.049505 
L 309.629751 46.251089 
L 309.807699 46.251089 
L 309.807699 45.452673 
L 310.551053 45.452673 
L 310.551053 44.654257 
L 312.194846 44.654257 
L 312.194846 43.855842 
L 313.589688 43.855842 
L 313.589688 43.057426 
L 314.246874 43.057426 
L 314.246874 42.25901 
L 342.61287 42.25901 
L 342.61287 41.460594 
L 345.367976 41.460594 
L 345.367976 40.662178 
L 350.993403 40.662178 
L 351.044324 39.065347 
L 351.539879 39.065347 
L 351.539879 38.266931 
L 354.510945 38.266931 
L 354.510945 37.468515 
L 355.495873 37.468515 
L 355.495873 36.670099 
L 355.612882 36.670099 
L 355.612882 35.871683 
L 356.37133 35.871683 
L 356.37133 35.073267 
L 356.489616 35.073267 
L 356.489616 34.274851 
L 357.150886 34.274851 
L 357.150886 33.476436 
L 357.407212 33.476436 
L 357.453963 31.879604 
L 357.581154 31.879604 
L 357.581154 31.081188 
L 357.762278 31.081188 
L 357.762278 30.282772 
L 358.505014 30.282772 
L 358.505014 29.484356 
L 358.681865 29.484356 
L 358.681865 28.685941 
L 359.244682 28.685941 
L 359.244682 27.887525 
L 359.438935 27.887525 
L 359.524464 26.290693 
L 359.558264 26.290693 
L 359.558264 25.492277 
L 360.720076 25.492277 
L 360.720076 24.693861 
L 361.494529 24.693861 
L 361.570669 23.09703 
L 362.487762 23.09703 
L 362.487762 22.298614 
L 362.62233 22.298614 
L 362.654258 20.701782 
L 363.511927 20.701782 
L 363.511927 19.903366 
L 364.495392 19.903366 
L 364.508842 18.306535 
L 393.727302 18.306535 
L 393.727302 17.508119 
L 395.595831 17.508119 
L 395.595831 16.709703 
L 396.531532 16.709703 
L 396.624912 15.112871 
L 396.720199 15.112871 
L 396.720199 14.314455 
L 397.923291 14.314455 
L 397.923291 13.51604 
L 398.581504 13.51604 
L 398.610794 11.919208 
L 399.943786 11.919208 
L 399.943786 11.120792 
L 400.30803 11.120792 
L 400.30803 10.322376 
L 404.182021 10.322376 
L 404.182021 9.52396 
L 404.297457 9.52396 
L 404.297457 8.725545 
L 405.864721 8.725545 
L 405.864721 7.927129 
L 406.451795 7.927129 
L 406.451795 7.128713 
L 406.827706 7.128713 
L 406.827706 6.330297 
L 406.827706 6.330297 
L 460.8 6.330297 
L 460.8 6.330297 
" clip-path="url(#p7e09b3ee78)" style="fill: none; stroke: #00bfbf; stroke-width: 1.5; stroke-linecap: square"/>
   </g>
   <g id="line2d_26">
    <path d="M -0.111905 293.76 
L -0.111905 281.783762 
L 57.542199 281.783762 
L 57.542199 280.985347 
L 73.299336 280.985347 
L 73.299336 280.186931 
L 82.83636 280.186931 
L 82.83636 279.388515 
L 83.848376 279.388515 
L 83.848376 278.590099 
L 85.198105 278.590099 
L 85.230805 276.993267 
L 87.352152 276.993267 
L 87.352152 276.194851 
L 89.019867 276.194851 
L 89.019867 275.396436 
L 89.26634 275.396436 
L 89.26634 274.59802 
L 92.102538 274.59802 
L 92.102538 273.799604 
L 93.774405 273.799604 
L 93.774405 273.001188 
L 95.028694 273.001188 
L 95.028694 272.202772 
L 95.296126 272.202772 
L 95.296126 271.404356 
L 96.526659 271.404356 
L 96.526659 270.605941 
L 101.872072 270.605941 
L 101.872072 269.807525 
L 104.171265 269.807525 
L 104.171265 269.009109 
L 143.968967 269.009109 
L 143.968967 268.210693 
L 145.056775 268.210693 
L 145.056775 267.412277 
L 150.667767 267.412277 
L 150.667767 266.613861 
L 150.888655 266.613861 
L 150.954592 265.01703 
L 152.365788 265.01703 
L 152.365788 264.218614 
L 153.040453 264.218614 
L 153.061571 262.621782 
L 153.17716 262.621782 
L 153.253302 261.02495 
L 153.824656 261.02495 
L 153.824656 260.226535 
L 154.064604 260.226535 
L 154.064604 259.428119 
L 154.204296 259.428119 
L 154.204296 258.629703 
L 154.319517 258.629703 
L 154.319517 257.831287 
L 160.139593 257.831287 
L 160.139593 257.032871 
L 172.250543 257.032871 
L 172.250543 256.234455 
L 172.397337 256.234455 
L 172.397337 255.43604 
L 175.697482 255.43604 
L 175.697482 254.637624 
L 176.604935 254.637624 
L 176.604935 253.839208 
L 176.72545 253.839208 
L 176.72545 253.040792 
L 177.372524 253.040792 
L 177.372524 252.242376 
L 177.67292 252.242376 
L 177.67292 251.44396 
L 179.410473 251.44396 
L 179.410473 250.645545 
L 181.441808 250.645545 
L 181.441808 249.847129 
L 183.624922 249.847129 
L 183.624922 249.048713 
L 184.864633 249.048713 
L 184.864633 248.250297 
L 185.695995 248.250297 
L 185.695995 247.451881 
L 191.479756 247.451881 
L 191.479756 235.475644 
L 195.798796 235.475644 
L 195.853527 233.878812 
L 196.983274 233.878812 
L 196.983274 233.080396 
L 198.054442 233.080396 
L 198.054442 232.28198 
L 198.62824 232.28198 
L 198.62824 231.483564 
L 199.601132 231.483564 
L 199.601132 230.685149 
L 201.96128 230.685149 
L 201.96128 229.886733 
L 202.248759 229.886733 
L 202.248759 229.088317 
L 202.484443 229.088317 
L 202.484443 228.289901 
L 202.89627 228.289901 
L 202.914078 224.297822 
L 204.406935 224.297822 
L 204.406935 223.499406 
L 204.560083 223.499406 
L 204.560083 222.70099 
L 206.488783 222.70099 
L 206.488783 221.902574 
L 207.435062 221.902574 
L 207.435062 221.104158 
L 208.446754 221.104158 
L 208.446754 220.305743 
L 209.197849 220.305743 
L 209.197849 219.507327 
L 210.289381 219.507327 
L 210.289381 218.708911 
L 210.493897 218.708911 
L 210.493897 217.910495 
L 211.943663 217.910495 
L 211.943663 217.112079 
L 212.076684 217.112079 
L 212.076684 216.313663 
L 212.619588 216.313663 
L 212.619588 215.515248 
L 213.024056 215.515248 
L 213.024056 214.716832 
L 213.145521 214.716832 
L 213.145521 213.918416 
L 213.322544 213.918416 
L 213.412439 212.321584 
L 213.567681 212.321584 
L 213.567681 211.523168 
L 213.683846 211.523168 
L 213.758579 209.127921 
L 214.113809 209.127921 
L 214.221717 207.531089 
L 214.593251 207.531089 
L 214.6833 205.135842 
L 214.750412 205.135842 
L 214.750412 204.337426 
L 214.95394 204.337426 
L 215.044209 202.740594 
L 215.077767 202.740594 
L 215.077767 201.942178 
L 215.281632 201.942178 
L 215.350282 200.345347 
L 215.832836 200.345347 
L 215.832836 199.546931 
L 216.212967 199.546931 
L 216.312053 197.950099 
L 216.418626 197.950099 
L 216.527165 196.353267 
L 217.707737 196.353267 
L 217.760202 193.95802 
L 218.096351 193.95802 
L 218.096351 193.159604 
L 219.375791 193.159604 
L 219.375791 192.361188 
L 219.647925 192.361188 
L 219.647925 191.562772 
L 220.403725 191.562772 
L 220.403725 190.764356 
L 220.690213 190.764356 
L 220.690213 189.965941 
L 220.873863 189.965941 
L 220.960435 188.369109 
L 220.98606 188.369109 
L 220.98606 187.570693 
L 221.288862 187.570693 
L 221.288862 186.772277 
L 221.78453 186.772277 
L 221.78453 185.973861 
L 222.059021 185.973861 
L 222.064439 184.37703 
L 222.637501 184.37703 
L 222.666741 182.780198 
L 222.897893 182.780198 
L 222.93104 181.183366 
L 223.211919 181.183366 
L 223.211919 180.38495 
L 223.692324 180.38495 
L 223.728966 178.788119 
L 223.921862 178.788119 
L 223.921862 177.989703 
L 224.093164 177.989703 
L 224.153232 176.392871 
L 224.247828 176.392871 
L 224.247828 175.594455 
L 224.769594 175.594455 
L 224.769594 174.79604 
L 225.08192 174.79604 
L 225.08192 173.997624 
L 225.294911 173.997624 
L 225.294911 173.199208 
L 225.43123 173.199208 
L 225.464983 171.602376 
L 226.143255 171.602376 
L 226.143255 170.80396 
L 226.259135 170.80396 
L 226.259135 170.005545 
L 227.031984 170.005545 
L 227.031984 169.207129 
L 227.156334 169.207129 
L 227.156334 168.408713 
L 227.662394 168.408713 
L 227.696741 166.811881 
L 227.820959 166.811881 
L 227.915961 165.21505 
L 228.127391 165.21505 
L 228.128465 163.618218 
L 228.803452 163.618218 
L 228.803452 162.819802 
L 228.958676 162.819802 
L 228.958676 162.021386 
L 229.207851 162.021386 
L 229.207851 161.22297 
L 229.79701 161.22297 
L 229.79701 160.424554 
L 230.52738 160.424554 
L 230.52738 159.626139 
L 230.785823 159.626139 
L 230.785823 158.827723 
L 230.959268 158.827723 
L 230.959268 158.029307 
L 231.390587 158.029307 
L 231.438418 155.634059 
L 231.817146 155.634059 
L 231.864758 154.037228 
L 232.3906 154.037228 
L 232.3906 153.238812 
L 232.796641 153.238812 
L 232.796641 152.440396 
L 233.255301 152.440396 
L 233.312278 150.045149 
L 233.997149 150.045149 
L 233.997149 149.246733 
L 234.149177 149.246733 
L 234.149616 147.649901 
L 235.1716 147.649901 
L 235.1716 146.851485 
L 235.297021 146.851485 
L 235.297021 146.053069 
L 235.414769 146.053069 
L 235.414769 145.254653 
L 235.570758 145.254653 
L 235.570758 144.456238 
L 235.685029 144.456238 
L 235.773668 142.859406 
L 236.241834 142.859406 
L 236.241834 142.06099 
L 237.209598 142.06099 
L 237.209598 141.262574 
L 237.493746 141.262574 
L 237.493746 140.464158 
L 238.066973 140.464158 
L 238.100539 138.867327 
L 238.274009 138.867327 
L 238.274009 138.068911 
L 238.577673 138.068911 
L 238.592614 136.472079 
L 238.838509 136.472079 
L 238.899705 134.875248 
L 239.000116 134.875248 
L 239.000116 134.076832 
L 239.157597 134.076832 
L 239.231576 130.084752 
L 239.270993 130.084752 
L 239.355433 126.092673 
L 239.625166 126.092673 
L 239.652456 124.495842 
L 239.789905 124.495842 
L 239.891583 122.89901 
L 239.984429 122.89901 
L 240.047947 121.302178 
L 240.172336 121.302178 
L 240.277529 118.906931 
L 240.446862 118.906931 
L 240.461372 117.310099 
L 240.744653 117.310099 
L 240.744653 116.511683 
L 240.948977 116.511683 
L 240.948977 115.713267 
L 241.70342 115.713267 
L 241.7035 114.116436 
L 242.080593 114.116436 
L 242.080593 113.31802 
L 242.564262 113.31802 
L 242.580412 111.721188 
L 242.753325 111.721188 
L 242.753325 110.922772 
L 243.300144 110.922772 
L 243.300144 110.124356 
L 243.430837 110.124356 
L 243.500785 107.729109 
L 243.995667 107.729109 
L 243.995667 106.930693 
L 244.405311 106.930693 
L 244.405311 106.132277 
L 244.607252 106.132277 
L 244.607252 105.333861 
L 244.904915 105.333861 
L 244.904915 104.535446 
L 245.212603 104.535446 
L 245.218748 102.938614 
L 245.370885 102.938614 
L 245.370885 102.140198 
L 245.921378 102.140198 
L 245.921378 101.341782 
L 246.049033 101.341782 
L 246.049033 100.543366 
L 246.637648 100.543366 
L 246.660088 98.946535 
L 246.965443 98.946535 
L 246.965443 98.148119 
L 247.5287 98.148119 
L 247.5287 97.349703 
L 247.778697 97.349703 
L 247.778697 96.551287 
L 248.251632 96.551287 
L 248.313425 94.954455 
L 248.518813 94.954455 
L 248.518813 94.15604 
L 249.140179 94.15604 
L 249.140179 93.357624 
L 250.904274 93.357624 
L 250.904274 92.559208 
L 251.027278 92.559208 
L 251.044172 90.962376 
L 251.793758 90.962376 
L 251.793758 90.16396 
L 253.238714 90.16396 
L 253.307036 88.567129 
L 253.445888 88.567129 
L 253.445888 87.768713 
L 254.298495 87.768713 
L 254.298495 86.970297 
L 254.457981 86.970297 
L 254.457981 86.171881 
L 254.589353 86.171881 
L 254.589353 85.373465 
L 255.140721 85.373465 
L 255.140721 84.57505 
L 255.253266 84.57505 
L 255.253266 83.776634 
L 255.566574 83.776634 
L 255.566574 82.978218 
L 255.754574 82.978218 
L 255.754574 82.179802 
L 255.938361 82.179802 
L 256.003202 80.58297 
L 256.225084 80.58297 
L 256.298811 78.986139 
L 256.449931 78.986139 
L 256.449931 78.187723 
L 256.888633 78.187723 
L 256.888633 77.389307 
L 257.1297 77.389307 
L 257.175487 75.792475 
L 257.28333 75.792475 
L 257.318766 74.195644 
L 258.770991 74.195644 
L 258.770991 73.397228 
L 258.885303 73.397228 
L 258.89128 71.800396 
L 259.4909 71.800396 
L 259.578957 70.203564 
L 259.62757 70.203564 
L 259.711048 67.808317 
L 260.027914 67.808317 
L 260.054593 66.211485 
L 260.340935 66.211485 
L 260.449144 63.816238 
L 261.006432 63.816238 
L 261.049855 62.219406 
L 261.232182 62.219406 
L 261.232182 61.42099 
L 261.351681 61.42099 
L 261.399613 59.025743 
L 261.464433 59.025743 
L 261.464433 58.227327 
L 261.741563 58.227327 
L 261.741563 57.428911 
L 261.964184 57.428911 
L 262.009548 55.832079 
L 262.115142 55.832079 
L 262.186018 52.638416 
L 262.734019 52.638416 
L 262.824496 51.041584 
L 263.144642 51.041584 
L 263.144642 50.243168 
L 263.261876 50.243168 
L 263.282013 47.847921 
L 263.787471 47.847921 
L 263.820969 46.251089 
L 264.048509 46.251089 
L 264.048509 45.452673 
L 264.200905 45.452673 
L 264.208892 43.855842 
L 264.716395 43.855842 
L 264.716395 43.057426 
L 264.867658 43.057426 
L 264.867658 42.25901 
L 265.21122 42.25901 
L 265.21122 41.460594 
L 265.411364 41.460594 
L 265.411364 40.662178 
L 266.978106 40.662178 
L 266.978106 39.863762 
L 267.292247 39.863762 
L 267.292247 39.065347 
L 267.7036 39.065347 
L 267.811193 37.468515 
L 270.949574 37.468515 
L 270.949574 36.670099 
L 271.644942 36.670099 
L 271.644942 35.871683 
L 272.421748 35.871683 
L 272.421748 35.073267 
L 274.730762 35.073267 
L 274.730762 34.274851 
L 275.894611 34.274851 
L 275.894611 33.476436 
L 276.465373 33.476436 
L 276.465373 32.67802 
L 278.30829 32.67802 
L 278.30829 31.879604 
L 280.197061 31.879604 
L 280.197061 31.081188 
L 283.69913 31.081188 
L 283.69913 30.282772 
L 295.043158 30.282772 
L 295.043158 29.484356 
L 298.216494 29.484356 
L 298.216494 28.685941 
L 303.150426 28.685941 
L 303.150426 27.887525 
L 304.547256 27.887525 
L 304.547256 27.089109 
L 305.09265 27.089109 
L 305.09265 26.290693 
L 305.627596 26.290693 
L 305.728001 24.693861 
L 305.920246 24.693861 
L 305.920246 23.895446 
L 307.675378 23.895446 
L 307.675378 23.09703 
L 308.844518 23.09703 
L 308.952109 21.500198 
L 311.104593 21.500198 
L 311.104593 20.701782 
L 311.628614 20.701782 
L 311.628614 19.903366 
L 312.991586 19.903366 
L 312.991586 19.10495 
L 313.330744 19.10495 
L 313.330744 18.306535 
L 315.500275 18.306535 
L 315.500275 17.508119 
L 315.617441 17.508119 
L 315.721532 15.911287 
L 316.467038 15.911287 
L 316.467038 15.112871 
L 318.556626 15.112871 
L 318.556626 14.314455 
L 319.33634 14.314455 
L 319.33634 13.51604 
L 319.526465 13.51604 
L 319.526465 12.717624 
L 319.686677 12.717624 
L 319.686677 11.919208 
L 321.863525 11.919208 
L 321.863525 11.120792 
L 322.241891 11.120792 
L 322.241891 10.322376 
L 322.564402 10.322376 
L 322.564402 9.52396 
L 323.460981 9.52396 
L 323.460981 8.725545 
L 324.58175 8.725545 
L 324.58175 7.927129 
L 325.835998 7.927129 
L 325.835998 7.128713 
L 328.739953 7.128713 
L 328.739953 6.330297 
L 328.739953 6.330297 
L 460.8 6.330297 
L 460.8 6.330297 
" clip-path="url(#p7e09b3ee78)" style="fill: none; stroke: #bf00bf; stroke-width: 1.5; stroke-linecap: square"/>
   </g>
   <g id="line2d_27">
    <path d="M -1 229.886733 
L -0.902044 229.886733 
L -0.835163 227.491485 
L -0.694676 227.491485 
L -0.596145 222.70099 
L -0.566143 222.70099 
L -0.472571 220.305743 
L -0.452917 220.305743 
L -0.373177 216.313663 
L -0.3305 216.313663 
L -0.244365 213.12 
L -0.214939 213.12 
L -0.111905 198.748515 
L 91.922041 198.748515 
L 91.922041 197.950099 
L 92.079476 197.950099 
L 92.079476 197.151683 
L 100.788847 197.151683 
L 100.788847 196.353267 
L 105.618611 196.353267 
L 105.618611 195.554851 
L 107.733536 195.554851 
L 107.733536 194.756436 
L 108.167495 194.756436 
L 108.167495 193.95802 
L 113.928291 193.95802 
L 113.928291 193.159604 
L 120.029273 193.159604 
L 120.029273 192.361188 
L 120.346939 192.361188 
L 120.346939 191.562772 
L 121.205365 191.562772 
L 121.205365 190.764356 
L 127.814851 190.764356 
L 127.814851 189.965941 
L 131.241977 189.965941 
L 131.241977 189.167525 
L 133.563346 189.167525 
L 133.563346 188.369109 
L 134.625159 188.369109 
L 134.625159 187.570693 
L 143.082513 187.570693 
L 143.082513 186.772277 
L 143.605583 186.772277 
L 143.605583 185.973861 
L 143.893256 185.973861 
L 143.893256 185.175446 
L 144.413703 185.175446 
L 144.413703 184.37703 
L 145.109241 184.37703 
L 145.109241 183.578614 
L 145.383965 183.578614 
L 145.383965 182.780198 
L 146.262831 182.780198 
L 146.262831 181.981782 
L 146.518574 181.981782 
L 146.518574 181.183366 
L 146.776343 181.183366 
L 146.776343 180.38495 
L 147.53607 180.38495 
L 147.53607 179.586535 
L 149.534461 179.586535 
L 149.534461 178.788119 
L 150.745834 178.788119 
L 150.745834 177.989703 
L 151.430132 177.989703 
L 151.430132 177.191287 
L 155.354384 177.191287 
L 155.450464 175.594455 
L 159.252415 175.594455 
L 159.252415 174.79604 
L 159.473528 174.79604 
L 159.473528 173.997624 
L 160.06999 173.997624 
L 160.06999 173.199208 
L 162.236387 173.199208 
L 162.236387 172.400792 
L 162.947743 172.400792 
L 162.947743 171.602376 
L 165.378663 171.602376 
L 165.444414 170.005545 
L 167.130718 170.005545 
L 167.130718 169.207129 
L 167.533376 169.207129 
L 167.533376 168.408713 
L 168.874277 168.408713 
L 168.874277 167.610297 
L 172.285887 167.610297 
L 172.285887 166.811881 
L 172.885413 166.811881 
L 172.885413 166.013465 
L 173.390617 166.013465 
L 173.390617 165.21505 
L 175.363893 165.21505 
L 175.363893 164.416634 
L 178.036003 164.416634 
L 178.036003 163.618218 
L 178.590043 163.618218 
L 178.590043 162.819802 
L 180.755931 162.819802 
L 180.755931 162.021386 
L 181.053539 162.021386 
L 181.053539 161.22297 
L 181.595736 161.22297 
L 181.595736 160.424554 
L 183.924581 160.424554 
L 183.924581 159.626139 
L 185.293549 159.626139 
L 185.293549 158.827723 
L 187.436112 158.827723 
L 187.436112 158.029307 
L 187.657876 158.029307 
L 187.760586 156.432475 
L 188.663494 156.432475 
L 188.663494 155.634059 
L 190.806788 155.634059 
L 190.806788 154.835644 
L 191.479756 154.835644 
L 191.479756 142.859406 
L 192.053691 142.859406 
L 192.053691 142.06099 
L 192.324863 142.06099 
L 192.324863 141.262574 
L 192.636649 141.262574 
L 192.636649 140.464158 
L 193.108609 140.464158 
L 193.20014 138.867327 
L 193.404029 138.867327 
L 193.404029 138.068911 
L 194.005697 138.068911 
L 194.005697 137.270495 
L 194.139352 137.270495 
L 194.241614 135.673663 
L 194.296063 135.673663 
L 194.296063 134.875248 
L 194.620375 134.875248 
L 194.620375 134.076832 
L 195.215325 134.076832 
L 195.215325 133.278416 
L 196.069891 133.278416 
L 196.069891 132.48 
L 196.237168 132.48 
L 196.237168 131.681584 
L 196.810803 131.681584 
L 196.810803 130.883168 
L 197.755544 130.883168 
L 197.755544 130.084752 
L 198.943215 130.084752 
L 198.980962 128.487921 
L 200.263109 128.487921 
L 200.263109 127.689505 
L 201.189836 127.689505 
L 201.279498 126.092673 
L 201.427762 126.092673 
L 201.427762 125.294257 
L 201.814799 125.294257 
L 201.814799 124.495842 
L 202.287214 124.495842 
L 202.287214 123.697426 
L 202.437069 123.697426 
L 202.437069 122.89901 
L 202.910832 122.89901 
L 203.014482 115.713267 
L 203.060684 115.713267 
L 203.060684 114.914851 
L 204.720119 114.914851 
L 204.720119 114.116436 
L 206.237535 114.116436 
L 206.237535 113.31802 
L 206.3638 113.31802 
L 206.3638 112.519604 
L 206.780386 112.519604 
L 206.780386 111.721188 
L 206.989661 111.721188 
L 206.989661 110.922772 
L 207.215045 110.922772 
L 207.215045 110.124356 
L 207.899006 110.124356 
L 207.983979 108.527525 
L 208.044904 108.527525 
L 208.044904 107.729109 
L 209.083844 107.729109 
L 209.083844 106.930693 
L 209.50622 106.930693 
L 209.50622 106.132277 
L 209.653953 106.132277 
L 209.653953 105.333861 
L 210.44706 105.333861 
L 210.482182 103.73703 
L 210.691595 103.73703 
L 210.691595 102.938614 
L 210.851317 102.938614 
L 210.851317 102.140198 
L 211.54217 102.140198 
L 211.54217 101.341782 
L 211.763899 101.341782 
L 211.763899 100.543366 
L 212.019665 100.543366 
L 212.076498 98.148119 
L 212.487619 98.148119 
L 212.487619 97.349703 
L 212.742418 97.349703 
L 212.742418 96.551287 
L 213.26492 96.551287 
L 213.312517 94.15604 
L 213.391936 94.15604 
L 213.391936 93.357624 
L 213.518682 93.357624 
L 213.579705 91.760792 
L 213.683033 91.760792 
L 213.683033 90.962376 
L 214.065914 90.962376 
L 214.065914 90.16396 
L 214.24357 90.16396 
L 214.301753 88.567129 
L 214.593166 88.567129 
L 214.702344 85.373465 
L 214.824233 85.373465 
L 214.824233 84.57505 
L 214.95394 84.57505 
L 214.95394 83.776634 
L 215.091979 83.776634 
L 215.091979 82.978218 
L 215.835472 82.978218 
L 215.835472 82.179802 
L 216.01752 82.179802 
L 216.01752 81.381386 
L 216.164601 81.381386 
L 216.202713 79.784554 
L 216.369251 79.784554 
L 216.440399 77.389307 
L 216.779644 77.389307 
L 216.779644 76.590891 
L 217.039027 76.590891 
L 217.134393 74.195644 
L 217.670051 74.195644 
L 217.758789 71.00198 
L 218.144766 71.00198 
L 218.144766 70.203564 
L 218.468186 70.203564 
L 218.468186 69.405149 
L 218.75271 69.405149 
L 218.75271 68.606733 
L 219.281495 68.606733 
L 219.281495 67.808317 
L 219.857163 67.808317 
L 219.857163 67.009901 
L 220.548764 67.009901 
L 220.548764 66.211485 
L 221.152775 66.211485 
L 221.152775 65.413069 
L 223.305315 65.413069 
L 223.305315 64.614653 
L 223.444814 64.614653 
L 223.444814 63.816238 
L 223.796945 63.816238 
L 223.796945 63.017822 
L 224.490957 63.017822 
L 224.598119 61.42099 
L 225.249647 61.42099 
L 225.294278 59.824158 
L 225.730149 59.824158 
L 225.730149 58.227327 
L 227.662363 58.227327 
L 227.662363 57.428911 
L 230.383038 57.428911 
L 230.383038 56.630495 
L 231.438362 56.630495 
L 231.438362 55.832079 
L 232.870931 55.832079 
L 232.870931 55.033663 
L 233.995205 55.033663 
L 233.995205 54.235248 
L 234.943045 54.235248 
L 234.943045 53.436832 
L 235.843225 53.436832 
L 235.843225 52.638416 
L 236.676671 52.638416 
L 236.676842 49.444752 
L 237.193777 49.444752 
L 237.193777 48.646337 
L 237.45259 48.646337 
L 237.452594 47.049505 
L 238.1784 47.049505 
L 238.178414 45.452673 
L 238.860221 45.452673 
L 238.860221 44.654257 
L 239.503045 44.654257 
L 239.503045 43.855842 
L 240.111108 43.855842 
L 240.111108 43.057426 
L 240.687954 43.057426 
L 240.687968 41.460594 
L 241.236678 41.460594 
L 241.236678 39.863762 
L 241.759859 39.863762 
L 241.759859 39.065347 
L 242.259778 39.065347 
L 242.25978 37.468515 
L 242.738409 37.468515 
L 242.738421 35.871683 
L 243.197518 35.871683 
L 243.197521 32.67802 
L 244.063048 32.67802 
L 244.063052 31.081188 
L 244.472046 31.081188 
L 244.472046 30.282772 
L 244.866702 30.282772 
L 244.866704 28.685941 
L 245.247964 28.685941 
L 245.247966 26.290693 
L 245.973796 26.290693 
L 245.973796 25.492277 
L 246.319858 25.492277 
L 246.319858 24.693861 
L 246.981593 24.693861 
L 246.981593 23.895446 
L 247.298419 23.895446 
L 247.298426 21.500198 
L 247.609315 21.500198 
L 247.609315 20.701782 
L 247.90646 20.701782 
L 247.90646 19.903366 
L 248.198613 19.903366 
L 248.198613 19.10495 
L 248.761039 19.10495 
L 248.761039 18.306535 
L 249.025806 18.306535 
L 249.025806 17.508119 
L 249.55523 17.508119 
L 249.55523 16.709703 
L 251.748249 16.709703 
L 251.748249 15.911287 
L 252.278757 15.911287 
L 252.278757 15.112871 
L 252.413919 15.112871 
L 252.522782 13.51604 
L 252.663856 13.51604 
L 252.693863 11.919208 
L 253.903144 11.919208 
L 253.903144 11.120792 
L 257.143236 11.120792 
L 257.143236 10.322376 
L 257.557709 10.322376 
L 257.557709 9.52396 
L 258.746964 9.52396 
L 258.746964 8.725545 
L 260.758517 8.725545 
L 260.807995 7.128713 
L 261.451795 7.128713 
L 261.451795 6.330297 
L 261.451795 6.330297 
L 460.8 6.330297 
L 460.8 6.330297 
" clip-path="url(#p7e09b3ee78)" style="fill: none; stroke: #000000; stroke-width: 1.5; stroke-linecap: square"/>
   </g>
   <g id="line2d_28">
    <path d="M -1 158.029307 
L -0.902044 158.029307 
L -0.835163 155.634059 
L -0.694676 155.634059 
L -0.58693 147.649901 
L -0.566143 147.649901 
L -0.472571 142.859406 
L -0.454078 142.859406 
L -0.373177 135.673663 
L -0.3305 135.673663 
L -0.237414 131.681584 
L -0.214939 131.681584 
L -0.111905 116.511683 
L 25.749374 116.511683 
L 25.749374 115.713267 
L 46.27463 115.713267 
L 46.27463 114.914851 
L 100.373757 114.914851 
L 100.373757 114.116436 
L 112.889672 114.116436 
L 112.889672 113.31802 
L 121.713711 113.31802 
L 121.713711 112.519604 
L 139.745764 112.519604 
L 139.745764 111.721188 
L 145.556186 111.721188 
L 145.577254 109.325941 
L 161.33688 109.325941 
L 161.33688 108.527525 
L 162.356736 108.527525 
L 162.356736 107.729109 
L 165.246254 107.729109 
L 165.246254 106.930693 
L 173.927074 106.930693 
L 173.927074 106.132277 
L 176.776486 106.132277 
L 176.776486 105.333861 
L 177.354869 105.333861 
L 177.354869 104.535446 
L 179.361936 104.535446 
L 179.361936 103.73703 
L 179.790716 103.73703 
L 179.790716 102.938614 
L 181.112937 102.938614 
L 181.112937 102.140198 
L 181.586168 102.140198 
L 181.586168 101.341782 
L 185.18991 101.341782 
L 185.18991 100.543366 
L 185.852609 100.543366 
L 185.852609 99.74495 
L 187.214145 99.74495 
L 187.214145 98.946535 
L 187.760586 98.946535 
L 187.760586 98.148119 
L 188.646656 98.148119 
L 188.646656 97.349703 
L 188.846169 97.349703 
L 188.846169 96.551287 
L 191.438178 96.551287 
L 191.479756 88.567129 
L 196.994536 88.567129 
L 196.994536 87.768713 
L 202.910832 87.768713 
L 203.011584 78.187723 
L 203.367159 78.187723 
L 203.367159 77.389307 
L 205.210267 77.389307 
L 205.210267 76.590891 
L 205.596172 76.590891 
L 205.596172 75.792475 
L 206.09043 75.792475 
L 206.09043 74.994059 
L 206.564072 74.994059 
L 206.564072 74.195644 
L 206.996887 74.195644 
L 207.098149 69.405149 
L 207.562025 69.405149 
L 207.562025 68.606733 
L 207.772021 68.606733 
L 207.875774 66.211485 
L 208.248331 66.211485 
L 208.248331 65.413069 
L 208.478555 65.413069 
L 208.576361 63.017822 
L 208.672417 63.017822 
L 208.672417 62.219406 
L 210.029068 62.219406 
L 210.029068 61.42099 
L 210.482182 61.42099 
L 210.482182 60.622574 
L 212.076498 60.622574 
L 212.076498 59.025743 
L 212.674418 59.025743 
L 212.674418 58.227327 
L 213.683033 58.227327 
L 213.683033 57.428911 
L 214.432421 57.428911 
L 214.493445 55.832079 
L 214.593166 55.832079 
L 214.593166 54.235248 
L 214.820994 54.235248 
L 214.853437 52.638416 
L 214.95394 52.638416 
L 214.95394 51.84 
L 215.091979 51.84 
L 215.091979 50.243168 
L 215.778244 50.243168 
L 215.778244 49.444752 
L 217.758789 49.444752 
L 217.758789 47.049505 
L 218.923745 47.049505 
L 218.923745 46.251089 
L 221.547702 46.251089 
L 221.547702 45.452673 
L 222.587654 45.452673 
L 222.587654 44.654257 
L 224.447507 44.654257 
L 224.490957 43.057426 
L 225.097207 43.057426 
L 225.097207 42.25901 
L 225.294278 42.25901 
L 225.294278 41.460594 
L 227.147661 41.460594 
L 227.14774 39.065347 
L 227.662363 39.065347 
L 227.662363 38.266931 
L 228.614697 38.266931 
L 228.614697 37.468515 
L 228.881295 37.468515 
L 228.888572 32.67802 
L 229.047684 32.67802 
L 229.047684 31.879604 
L 229.366282 31.879604 
L 229.366282 31.081188 
L 230.383038 31.081188 
L 230.383038 29.484356 
L 231.707668 29.484356 
L 231.707668 28.685941 
L 234.943045 28.685941 
L 234.943045 27.887525 
L 235.843234 27.887525 
L 235.843505 25.492277 
L 236.508848 25.492277 
L 236.508848 24.693861 
L 236.676675 24.693861 
L 236.676686 21.500198 
L 237.452594 21.500198 
L 237.453029 18.306535 
L 238.178418 18.306535 
L 238.178421 15.911287 
L 240.190786 15.911287 
L 240.190786 15.112871 
L 241.289374 15.112871 
L 241.289374 14.314455 
L 241.572476 14.314455 
L 241.572476 13.51604 
L 241.686187 13.51604 
L 241.686187 12.717624 
L 242.097804 12.717624 
L 242.097804 11.919208 
L 242.636449 11.919208 
L 242.636449 11.120792 
L 243.397209 11.120792 
L 243.397209 10.322376 
L 243.724027 10.322376 
L 243.724027 9.52396 
L 246.254108 9.52396 
L 246.254108 8.725545 
L 247.045247 8.725545 
L 247.045247 7.927129 
L 249.025806 7.927129 
L 249.025806 7.128713 
L 250.584112 7.128713 
L 250.584112 6.330297 
L 250.584112 6.330297 
L 460.8 6.330297 
L 460.8 6.330297 
" clip-path="url(#p7e09b3ee78)" style="fill: none; stroke: #00bfbf; stroke-width: 1.5; stroke-linecap: square"/>
   </g>
   <g id="line2d_29">
    <path d="M -1 140.464158 
L -0.902044 140.464158 
L -0.835163 138.068911 
L -0.694676 138.068911 
L -0.58693 130.084752 
L -0.566143 130.084752 
L -0.472571 125.294257 
L -0.454078 125.294257 
L -0.373177 118.108515 
L -0.3305 118.108515 
L -0.237414 114.116436 
L -0.214939 114.116436 
L -0.111905 98.946535 
L 135.247755 98.946535 
L 135.247755 98.148119 
L 148.561904 98.148119 
L 148.561904 97.349703 
L 150.133728 97.349703 
L 150.133728 96.551287 
L 164.416889 96.551287 
L 164.417512 94.954455 
L 165.246254 94.954455 
L 165.246254 94.15604 
L 167.076479 94.15604 
L 167.115134 92.559208 
L 167.431111 92.559208 
L 167.431111 91.760792 
L 167.55406 91.760792 
L 167.55406 90.962376 
L 169.003285 90.962376 
L 169.003285 90.16396 
L 169.330451 90.16396 
L 169.342981 88.567129 
L 169.685945 88.567129 
L 169.685945 87.768713 
L 170.564076 87.768713 
L 170.564076 86.970297 
L 170.830397 86.970297 
L 170.830397 86.171881 
L 172.33473 86.171881 
L 172.33473 85.373465 
L 175.26577 85.373465 
L 175.265772 81.381386 
L 175.862934 81.381386 
L 175.862934 80.58297 
L 176.776486 80.58297 
L 176.776486 79.784554 
L 177.354869 79.784554 
L 177.354869 78.986139 
L 179.361936 78.986139 
L 179.361936 78.187723 
L 181.440006 78.187723 
L 181.440006 77.389307 
L 183.061154 77.389307 
L 183.061332 73.397228 
L 185.18991 73.397228 
L 185.18991 72.598812 
L 187.621161 72.598812 
L 187.621161 71.00198 
L 187.760586 71.00198 
L 187.760586 70.203564 
L 190.856537 70.203564 
L 190.856537 69.405149 
L 202.910832 69.405149 
L 203.011584 59.025743 
L 207.037177 59.025743 
L 207.037177 58.227327 
L 210.404552 58.227327 
L 210.482182 56.630495 
L 212.036712 56.630495 
L 212.076498 54.235248 
L 212.376887 54.235248 
L 212.376887 53.436832 
L 212.669742 53.436832 
L 212.669742 52.638416 
L 213.683033 52.638416 
L 213.683033 51.84 
L 214.493445 51.84 
L 214.593166 49.444752 
L 214.792271 49.444752 
L 214.792271 48.646337 
L 215.091979 48.646337 
L 215.091979 47.049505 
L 217.758789 47.049505 
L 217.758789 45.452673 
L 222.587654 45.452673 
L 222.587654 43.855842 
L 224.447507 43.855842 
L 224.490957 42.25901 
L 225.097207 42.25901 
L 225.097207 40.662178 
L 225.294278 40.662178 
L 225.294278 39.863762 
L 227.147661 39.863762 
L 227.147661 35.073267 
L 227.662363 35.073267 
L 227.662363 34.274851 
L 228.614697 34.274851 
L 228.614697 33.476436 
L 228.881295 33.476436 
L 228.881295 30.282772 
L 229.366282 30.282772 
L 229.366282 29.484356 
L 230.383038 29.484356 
L 230.383038 28.685941 
L 233.964483 28.685941 
L 233.964483 27.887525 
L 234.943045 27.887525 
L 234.943045 26.290693 
L 235.843234 26.290693 
L 235.843234 23.09703 
L 236.508848 23.09703 
L 236.508848 22.298614 
L 236.676679 22.298614 
L 236.676679 18.306535 
L 237.452594 18.306535 
L 237.452598 16.709703 
L 238.178418 16.709703 
L 238.178418 15.911287 
L 240.190786 15.911287 
L 240.190786 15.112871 
L 240.880017 15.112871 
L 240.964678 13.51604 
L 240.994753 13.51604 
L 241.100482 7.128713 
L 241.147786 7.128713 
L 241.147786 6.330297 
L 241.147786 6.330297 
L 460.8 6.330297 
L 460.8 6.330297 
" clip-path="url(#p7e09b3ee78)" style="fill: none; stroke: #bf00bf; stroke-width: 1.5; stroke-linecap: square"/>
   </g>
   <g id="patch_3">
    <path d="M 0 293.76 
L 0 3.456 
" style="fill: none; stroke: #000000; stroke-width: 0.8; stroke-linejoin: miter; stroke-linecap: square"/>
   </g>
   <g id="patch_4">
    <path d="M 460.8 293.76 
L 460.8 3.456 
" style="fill: none; stroke: #000000; stroke-width: 0.8; stroke-linejoin: miter; stroke-linecap: square"/>
   </g>
   <g id="patch_5">
    <path d="M 0 293.76 
L 460.8 293.76 
" style="fill: none; stroke: #000000; stroke-width: 0.8; stroke-linejoin: miter; stroke-linecap: square"/>
   </g>
   <g id="patch_6">
    <path d="M 0 3.456 
L 460.8 3.456 
" style="fill: none; stroke: #000000; stroke-width: 0.8; stroke-linejoin: miter; stroke-linecap: square"/>
   </g>
   <g id="text_6">
    <!-- {f1-f24}, 20-D -->
    <g transform="translate(305.884 287.95392)scale(0.2 -0.2)">
     <defs>
      <path id="DejaVuSans-7b" d="M 3272 -594 
L 3272 -1044 
L 3078 -1044 
Q 2300 -1044 2036 -812 
Q 1772 -581 1772 109 
L 1772 856 
Q 1772 1328 1603 1509 
Q 1434 1691 991 1691 
L 800 1691 
L 800 2138 
L 991 2138 
Q 1438 2138 1605 2317 
Q 1772 2497 1772 2963 
L 1772 3713 
Q 1772 4403 2036 4633 
Q 2300 4863 3078 4863 
L 3272 4863 
L 3272 4416 
L 3059 4416 
Q 2619 4416 2484 4278 
Q 2350 4141 2350 3700 
L 2350 2925 
Q 2350 2434 2208 2212 
Q 2066 1991 1722 1913 
Q 2069 1828 2209 1606 
Q 2350 1384 2350 897 
L 2350 122 
Q 2350 -319 2484 -456 
Q 2619 -594 3059 -594 
L 3272 -594 
z
" transform="scale(0.015625)"/>
      <path id="DejaVuSans-32" d="M 1228 531 
L 3431 531 
L 3431 0 
L 469 0 
L 469 531 
Q 828 903 1448 1529 
Q 2069 2156 2228 2338 
Q 2531 2678 2651 2914 
Q 2772 3150 2772 3378 
Q 2772 3750 2511 3984 
Q 2250 4219 1831 4219 
Q 1534 4219 1204 4116 
Q 875 4013 500 3803 
L 500 4441 
Q 881 4594 1212 4672 
Q 1544 4750 1819 4750 
Q 2544 4750 2975 4387 
Q 3406 4025 3406 3419 
Q 3406 3131 3298 2873 
Q 3191 2616 2906 2266 
Q 2828 2175 2409 1742 
Q 1991 1309 1228 531 
z
" transform="scale(0.015625)"/>
      <path id="DejaVuSans-7d" d="M 800 -594 
L 1019 -594 
Q 1456 -594 1589 -459 
Q 1722 -325 1722 122 
L 1722 897 
Q 1722 1384 1862 1606 
Q 2003 1828 2350 1913 
Q 2003 1991 1862 2212 
Q 1722 2434 1722 2925 
L 1722 3700 
Q 1722 4144 1589 4280 
Q 1456 4416 1019 4416 
L 800 4416 
L 800 4863 
L 997 4863 
Q 1775 4863 2036 4633 
Q 2297 4403 2297 3713 
L 2297 2963 
Q 2297 2497 2465 2317 
Q 2634 2138 3078 2138 
L 3272 2138 
L 3272 1691 
L 3078 1691 
Q 2634 1691 2465 1509 
Q 2297 1328 2297 856 
L 2297 109 
Q 2297 -581 2036 -812 
Q 1775 -1044 997 -1044 
L 800 -1044 
L 800 -594 
z
" transform="scale(0.015625)"/>
      <path id="DejaVuSans-2c" d="M 750 794 
L 1409 794 
L 1409 256 
L 897 -744 
L 494 -744 
L 750 256 
L 750 794 
z
" transform="scale(0.015625)"/>
     </defs>
     <use xlink:href="#DejaVuSans-7b"/>
     <use xlink:href="#DejaVuSans-66" x="63.623047"/>
     <use xlink:href="#DejaVuSans-31" x="98.828125"/>
     <use xlink:href="#DejaVuSans-2d" x="162.451172"/>
     <use xlink:href="#DejaVuSans-66" x="198.535156"/>
     <use xlink:href="#DejaVuSans-32" x="233.740234"/>
     <use xlink:href="#DejaVuSans-34" x="297.363281"/>
     <use xlink:href="#DejaVuSans-7d" x="360.986328"/>
     <use xlink:href="#DejaVuSans-2c" x="424.609375"/>
     <use xlink:href="#DejaVuSans-20" x="456.396484"/>
     <use xlink:href="#DejaVuSans-32" x="488.183594"/>
     <use xlink:href="#DejaVuSans-30" x="551.806641"/>
     <use xlink:href="#DejaVuSans-2d" x="615.429688"/>
     <use xlink:href="#DejaVuSans-44" x="651.513672"/>
    </g>
   </g>
   <g id="text_7">
    <!-- v2.6.3 -->
    <g style="fill: #808080" transform="translate(214.71875 288.777272)scale(0.1 -0.1)">
     <defs>
      <path id="DejaVuSans-76" d="M 191 3500 
L 800 3500 
L 1894 563 
L 2988 3500 
L 3597 3500 
L 2284 0 
L 1503 0 
L 191 3500 
z
" transform="scale(0.015625)"/>
      <path id="DejaVuSans-2e" d="M 684 794 
L 1344 794 
L 1344 0 
L 684 0 
L 684 794 
z
" transform="scale(0.015625)"/>
      <path id="DejaVuSans-36" d="M 2113 2584 
Q 1688 2584 1439 2293 
Q 1191 2003 1191 1497 
Q 1191 994 1439 701 
Q 1688 409 2113 409 
Q 2538 409 2786 701 
Q 3034 994 3034 1497 
Q 3034 2003 2786 2293 
Q 2538 2584 2113 2584 
z
M 3366 4563 
L 3366 3988 
Q 3128 4100 2886 4159 
Q 2644 4219 2406 4219 
Q 1781 4219 1451 3797 
Q 1122 3375 1075 2522 
Q 1259 2794 1537 2939 
Q 1816 3084 2150 3084 
Q 2853 3084 3261 2657 
Q 3669 2231 3669 1497 
Q 3669 778 3244 343 
Q 2819 -91 2113 -91 
Q 1303 -91 875 529 
Q 447 1150 447 2328 
Q 447 3434 972 4092 
Q 1497 4750 2381 4750 
Q 2619 4750 2861 4703 
Q 3103 4656 3366 4563 
z
" transform="scale(0.015625)"/>
      <path id="DejaVuSans-33" d="M 2597 2516 
Q 3050 2419 3304 2112 
Q 3559 1806 3559 1356 
Q 3559 666 3084 287 
Q 2609 -91 1734 -91 
Q 1441 -91 1130 -33 
Q 819 25 488 141 
L 488 750 
Q 750 597 1062 519 
Q 1375 441 1716 441 
Q 2309 441 2620 675 
Q 2931 909 2931 1356 
Q 2931 1769 2642 2001 
Q 2353 2234 1838 2234 
L 1294 2234 
L 1294 2753 
L 1863 2753 
Q 2328 2753 2575 2939 
Q 2822 3125 2822 3475 
Q 2822 3834 2567 4026 
Q 2313 4219 1838 4219 
Q 1578 4219 1281 4162 
Q 984 4106 628 3988 
L 628 4550 
Q 988 4650 1302 4700 
Q 1616 4750 1894 4750 
Q 2613 4750 3031 4423 
Q 3450 4097 3450 3541 
Q 3450 3153 3228 2886 
Q 3006 2619 2597 2516 
z
" transform="scale(0.015625)"/>
     </defs>
     <use xlink:href="#DejaVuSans-76"/>
     <use xlink:href="#DejaVuSans-32" x="59.179688"/>
     <use xlink:href="#DejaVuSans-2e" x="122.802734"/>
     <use xlink:href="#DejaVuSans-36" x="154.589844"/>
     <use xlink:href="#DejaVuSans-2e" x="218.212891"/>
     <use xlink:href="#DejaVuSans-33" x="250"/>
    </g>
   </g>
  </g>
 </g>
 <defs>
  <clipPath id="p7e09b3ee78">
   <rect x="0" y="3.456" width="460.8" height="290.304"/>
  </clipPath>
 </defs>
</svg>
