<?xml version="1.0" encoding="utf-8" standalone="no"?>
<!DOCTYPE svg PUBLIC "-//W3C//DTD SVG 1.1//EN"
  "http://www.w3.org/Graphics/SVG/1.1/DTD/svg11.dtd">
<svg xmlns:xlink="http://www.w3.org/1999/xlink" width="460.8pt" height="345.6pt" viewBox="0 0 460.8 345.6" xmlns="http://www.w3.org/2000/svg" version="1.1">
 <metadata>
  <rdf:RDF xmlns:dc="http://purl.org/dc/elements/1.1/" xmlns:cc="http://creativecommons.org/ns#" xmlns:rdf="http://www.w3.org/1999/02/22-rdf-syntax-ns#">
   <cc:Work>
    <dc:type rdf:resource="http://purl.org/dc/dcmitype/StillImage"/>
    <dc:date>2023-04-07T14:56:26.938606</dc:date>
    <dc:format>image/svg+xml</dc:format>
    <dc:creator>
     <cc:Agent>
      <dc:title>Matplotlib v3.5.2, https://matplotlib.org/</dc:title>
     </cc:Agent>
    </dc:creator>
   </cc:Work>
  </rdf:RDF>
 </metadata>
 <defs>
  <style type="text/css">*{stroke-linejoin: round; stroke-linecap: butt}</style>
 </defs>
 <g id="figure_1">
  <g id="patch_1">
   <path d="M 0 345.6 
L 460.8 345.6 
L 460.8 0 
L 0 0 
z
" style="fill: #ffffff"/>
  </g>
  <g id="axes_1">
   <g id="patch_2">
    <path d="M 62.208 293.76 
L 460.8 293.76 
L 460.8 3.456 
L 62.208 3.456 
z
" style="fill: #ffffff"/>
   </g>
   <g id="line2d_1">
    <path d="M 205.257042 293.76 
L 205.257042 289.927604 
L 208.294118 289.927604 
L 208.294118 286.095208 
L 209.246775 286.095208 
L 209.246775 282.262812 
L 210.38235 282.262812 
L 210.38235 278.430416 
L 210.521559 278.430416 
L 210.521559 274.59802 
L 210.798209 274.59802 
L 210.798209 270.765624 
L 214.566564 270.765624 
L 214.566564 266.933228 
L 216.241008 266.933228 
L 216.241008 263.100832 
L 218.493245 263.100832 
L 218.493245 259.268436 
L 221.801846 259.268436 
L 221.801846 255.43604 
L 222.722836 255.43604 
L 222.722836 251.603644 
L 228.290008 251.603644 
L 228.290008 247.771248 
L 234.675512 247.771248 
L 234.675512 243.938851 
L 239.158622 243.938851 
L 239.158622 240.106455 
L 239.816396 240.106455 
L 239.816396 236.274059 
L 240.433406 236.274059 
L 240.433406 232.441663 
L 241.066231 232.441663 
L 241.066231 228.609267 
L 241.310557 228.609267 
L 241.310557 224.776871 
L 243.683377 224.776871 
L 243.683377 220.944475 
L 244.453858 220.944475 
L 244.453858 217.112079 
L 255.637228 217.112079 
L 255.637228 213.279683 
L 256.480713 213.279683 
L 256.480713 209.447287 
L 257.517664 209.447287 
L 257.517664 205.614891 
L 259.713882 205.614891 
L 259.713882 201.782495 
L 267.580998 201.782495 
L 267.580998 197.950099 
L 271.076028 197.950099 
L 271.076028 194.117703 
L 273.745776 194.117703 
L 273.745776 190.285307 
L 283.542538 190.285307 
L 283.542538 186.452911 
L 283.542538 186.452911 
L 283.542538 186.452911 
L 460.8 186.452911 
" clip-path="url(#pc251e22324)" style="fill: none; stroke: #f5deb3; stroke-width: 1.5; stroke-linecap: square"/>
   </g>
   <g id="line2d_2">
    <path d="M 269.024214 293.76 
L 269.024214 282.262812 
L 284.341198 282.262812 
L 284.341198 270.765624 
L 295.776998 270.765624 
L 295.776998 259.268436 
L 332.419926 259.268436 
L 332.419926 247.771248 
L 359.024465 247.771248 
L 359.024465 236.274059 
L 359.024465 236.274059 
L 359.024465 236.274059 
L 460.8 236.274059 
" clip-path="url(#pc251e22324)" style="fill: none; stroke: #f5deb3; stroke-width: 1.5; stroke-linecap: square"/>
   </g>
   <g id="line2d_3">
    <path d="M 173.020009 293.76 
L 173.020009 289.927604 
L 176.937925 289.927604 
L 176.937925 286.095208 
L 207.769396 286.095208 
L 207.769396 282.262812 
L 209.029386 282.262812 
L 209.029386 278.430416 
L 210.93566 278.430416 
L 210.93566 274.59802 
L 216.473354 274.59802 
L 216.473354 270.765624 
L 219.825859 270.765624 
L 219.825859 266.933228 
L 222.722836 266.933228 
L 222.722836 263.100832 
L 225.162531 263.100832 
L 225.162531 259.268436 
L 225.559295 259.268436 
L 225.559295 255.43604 
L 229.243199 255.43604 
L 229.243199 251.603644 
L 231.069941 251.603644 
L 231.069941 247.771248 
L 236.44923 247.771248 
L 236.44923 243.938851 
L 238.012052 243.938851 
L 238.012052 240.106455 
L 243.733638 240.106455 
L 243.733638 236.274059 
L 250.573071 236.274059 
L 250.573071 232.441663 
L 257.942899 232.441663 
L 257.942899 228.609267 
L 267.056724 228.609267 
L 267.056724 224.776871 
L 267.605179 224.776871 
L 267.605179 220.944475 
L 269.335171 220.944475 
L 269.335171 217.112079 
L 272.583782 217.112079 
L 272.583782 213.279683 
L 276.148538 213.279683 
L 276.148538 209.447287 
L 276.902613 209.447287 
L 276.902613 205.614891 
L 287.987718 205.614891 
L 287.987718 201.782495 
L 290.843261 201.782495 
L 290.843261 197.950099 
L 315.92358 197.950099 
L 315.92358 194.117703 
L 317.916391 194.117703 
L 317.916391 190.285307 
L 318.396787 190.285307 
L 318.396787 186.452911 
L 327.249994 186.452911 
L 327.249994 182.620515 
L 341.086645 182.620515 
L 341.086645 178.788119 
L 341.086645 178.788119 
L 341.086645 178.788119 
L 460.8 178.788119 
" clip-path="url(#pc251e22324)" style="fill: none; stroke: #f5deb3; stroke-width: 1.5; stroke-linecap: square"/>
   </g>
   <g id="line2d_4">
    <path d="M 198.27725 293.76 
L 198.27725 289.927604 
L 215.234661 289.927604 
L 215.234661 286.095208 
L 215.294724 286.095208 
L 215.294724 282.262812 
L 217.610908 282.262812 
L 217.610908 278.430416 
L 243.430905 278.430416 
L 243.430905 274.59802 
L 244.380085 274.59802 
L 244.380085 270.765624 
L 247.900666 270.765624 
L 247.900666 266.933228 
L 248.12094 266.933228 
L 248.12094 263.100832 
L 251.397522 263.100832 
L 251.397522 259.268436 
L 260.654448 259.268436 
L 260.654448 255.43604 
L 261.872613 255.43604 
L 261.872613 251.603644 
L 264.447867 251.603644 
L 264.447867 247.771248 
L 264.540928 247.771248 
L 264.540928 243.938851 
L 267.822007 243.938851 
L 267.822007 240.106455 
L 268.440427 240.106455 
L 268.440427 236.274059 
L 269.654547 236.274059 
L 269.654547 232.441663 
L 273.665568 232.441663 
L 273.665568 228.609267 
L 286.177737 228.609267 
L 286.177737 224.776871 
L 294.929846 224.776871 
L 294.929846 220.944475 
L 295.309649 220.944475 
L 295.309649 217.112079 
L 299.747502 217.112079 
L 299.747502 213.279683 
L 301.230394 213.279683 
L 301.230394 209.447287 
L 309.576022 209.447287 
L 309.576022 205.614891 
L 312.330033 205.614891 
L 312.330033 201.782495 
L 315.516677 201.782495 
L 315.516677 197.950099 
L 318.66599 197.950099 
L 318.66599 194.117703 
L 329.072556 194.117703 
L 329.072556 190.285307 
L 333.101498 190.285307 
L 333.101498 186.452911 
L 346.212312 186.452911 
L 346.212312 182.620515 
L 346.962842 182.620515 
L 346.962842 178.788119 
L 348.405905 178.788119 
L 348.405905 174.955723 
L 351.050918 174.955723 
L 351.050918 171.123327 
L 356.161642 171.123327 
L 356.161642 167.290931 
L 356.161642 167.290931 
L 356.161642 167.290931 
L 460.8 167.290931 
" clip-path="url(#pc251e22324)" style="fill: none; stroke: #f5deb3; stroke-width: 1.5; stroke-linecap: square"/>
   </g>
   <g id="line2d_5">
    <path d="M 289.812962 293.76 
L 289.812962 289.927604 
L 289.812962 289.927604 
L 289.812962 289.927604 
L 460.8 289.927604 
" clip-path="url(#pc251e22324)" style="fill: none; stroke: #f5deb3; stroke-width: 1.5; stroke-linecap: square"/>
   </g>
   <g id="line2d_6"/>
   <g id="line2d_7">
    <path d="M 218.055058 293.76 
L 218.055058 289.927604 
L 223.757762 289.927604 
L 223.757762 286.095208 
L 225.427575 286.095208 
L 225.427575 282.262812 
L 228.889006 282.262812 
L 228.889006 278.430416 
L 236.102112 278.430416 
L 236.102112 274.59802 
L 283.169539 274.59802 
L 283.169539 270.765624 
L 295.247519 270.765624 
L 295.247519 266.933228 
L 298.227159 266.933228 
L 298.227159 263.100832 
L 298.943004 263.100832 
L 298.943004 259.268436 
L 302.537109 259.268436 
L 302.537109 255.43604 
L 311.571981 255.43604 
L 311.571981 251.603644 
L 313.609783 251.603644 
L 313.609783 247.771248 
L 314.664469 247.771248 
L 314.664469 243.938851 
L 314.852622 243.938851 
L 314.852622 240.106455 
L 316.101898 240.106455 
L 316.101898 236.274059 
L 317.633078 236.274059 
L 317.633078 232.441663 
L 321.658253 232.441663 
L 321.658253 228.609267 
L 322.68948 228.609267 
L 322.68948 224.776871 
L 323.760609 224.776871 
L 323.760609 220.944475 
L 329.061521 220.944475 
L 329.061521 217.112079 
L 330.396857 217.112079 
L 330.396857 213.279683 
L 331.715341 213.279683 
L 331.715341 209.447287 
L 335.375508 209.447287 
L 335.375508 205.614891 
L 338.400751 205.614891 
L 338.400751 201.782495 
L 341.5391 201.782495 
L 341.5391 197.950099 
L 351.401667 197.950099 
L 351.401667 194.117703 
L 351.518367 194.117703 
L 351.518367 190.285307 
L 355.919356 190.285307 
L 355.919356 186.452911 
L 369.497137 186.452911 
L 369.497137 182.620515 
L 371.398441 182.620515 
L 371.398441 178.788119 
L 372.876078 178.788119 
L 372.876078 174.955723 
L 379.115842 174.955723 
L 379.115842 171.123327 
L 381.223016 171.123327 
L 381.223016 167.290931 
L 381.814219 167.290931 
L 381.814219 163.458535 
L 389.770813 163.458535 
L 389.770813 159.626139 
L 391.870675 159.626139 
L 391.870675 155.793743 
L 397.138924 155.793743 
L 397.138924 151.961347 
L 401.59108 151.961347 
L 401.59108 148.12895 
L 404.648417 148.12895 
L 404.648417 144.296554 
L 405.733706 144.296554 
L 405.733706 140.464158 
L 407.533168 140.464158 
L 407.533168 136.631762 
L 409.923044 136.631762 
L 409.923044 132.799366 
L 416.835223 132.799366 
L 416.835223 128.96697 
L 419.350489 128.96697 
L 419.350489 125.134574 
L 421.982864 125.134574 
L 421.982864 121.302178 
L 422.164628 121.302178 
L 422.164628 117.469782 
L 425.403635 117.469782 
L 425.403635 113.637386 
L 425.553676 113.637386 
L 425.553676 109.80499 
L 428.57448 109.80499 
L 428.57448 105.972594 
L 436.557135 105.972594 
L 436.557135 102.140198 
L 455.229213 102.140198 
L 455.229213 98.307802 
L 456.573189 98.307802 
L 456.573189 94.475406 
L 461.8 94.475406 
" clip-path="url(#pc251e22324)" style="fill: none; stroke: #f5deb3; stroke-width: 1.5; stroke-linecap: square"/>
   </g>
   <g id="line2d_8">
    <path d="M 327.183817 293.76 
L 327.183817 289.927604 
L 332.882976 289.927604 
L 332.882976 286.095208 
L 335.237264 286.095208 
L 335.237264 282.262812 
L 337.28047 282.262812 
L 337.28047 278.430416 
L 337.80252 278.430416 
L 337.80252 274.59802 
L 338.593629 274.59802 
L 338.593629 270.765624 
L 342.070686 270.765624 
L 342.070686 266.933228 
L 362.409351 266.933228 
L 362.409351 263.100832 
L 362.564614 263.100832 
L 362.564614 259.268436 
L 362.581088 259.268436 
L 362.581088 255.43604 
L 363.37508 255.43604 
L 363.37508 251.603644 
L 364.085483 251.603644 
L 364.085483 247.771248 
L 364.670329 247.771248 
L 364.670329 243.938851 
L 387.623956 243.938851 
L 387.623956 240.106455 
L 387.970231 240.106455 
L 387.970231 236.274059 
L 388.012276 236.274059 
L 388.012276 232.441663 
L 388.775622 232.441663 
L 388.775622 228.609267 
L 389.025667 228.609267 
L 389.025667 224.776871 
L 396.679501 224.776871 
L 396.679501 220.944475 
L 397.37168 220.944475 
L 397.37168 217.112079 
L 416.791187 217.112079 
L 416.791187 213.279683 
L 416.850846 213.279683 
L 416.850846 209.447287 
L 417.134633 209.447287 
L 417.134633 205.614891 
L 420.141889 205.614891 
L 420.141889 201.782495 
L 431.534779 201.782495 
L 431.534779 197.950099 
L 438.0317 197.950099 
L 438.0317 194.117703 
L 438.0317 194.117703 
L 438.0317 194.117703 
L 460.8 194.117703 
" clip-path="url(#pc251e22324)" style="fill: none; stroke: #f5deb3; stroke-width: 1.5; stroke-linecap: square"/>
   </g>
   <g id="line2d_9">
    <path d="M 210.312522 293.76 
L 210.312522 289.927604 
L 214.258304 289.927604 
L 214.258304 286.095208 
L 224.805757 286.095208 
L 224.805757 282.262812 
L 225.646814 282.262812 
L 225.646814 278.430416 
L 257.46824 278.430416 
L 257.46824 274.59802 
L 261.320534 274.59802 
L 261.320534 270.765624 
L 265.211054 270.765624 
L 265.211054 266.933228 
L 268.192089 266.933228 
L 268.192089 263.100832 
L 273.190326 263.100832 
L 273.190326 259.268436 
L 285.569994 259.268436 
L 285.569994 255.43604 
L 286.67344 255.43604 
L 286.67344 251.603644 
L 286.700386 251.603644 
L 286.700386 247.771248 
L 296.262878 247.771248 
L 296.262878 243.938851 
L 298.771325 243.938851 
L 298.771325 240.106455 
L 307.772949 240.106455 
L 307.772949 236.274059 
L 311.370198 236.274059 
L 311.370198 232.441663 
L 313.526996 232.441663 
L 313.526996 228.609267 
L 314.84125 228.609267 
L 314.84125 224.776871 
L 318.258788 224.776871 
L 318.258788 220.944475 
L 320.378097 220.944475 
L 320.378097 217.112079 
L 323.248126 217.112079 
L 323.248126 213.279683 
L 323.250324 213.279683 
L 323.250324 209.447287 
L 325.684765 209.447287 
L 325.684765 205.614891 
L 330.203824 205.614891 
L 330.203824 201.782495 
L 332.403326 201.782495 
L 332.403326 197.950099 
L 334.64427 197.950099 
L 334.64427 194.117703 
L 337.597817 194.117703 
L 337.597817 190.285307 
L 344.72351 190.285307 
L 344.72351 186.452911 
L 345.964462 186.452911 
L 345.964462 182.620515 
L 347.17792 182.620515 
L 347.17792 178.788119 
L 353.935801 178.788119 
L 353.935801 174.955723 
L 355.609257 174.955723 
L 355.609257 171.123327 
L 359.887882 171.123327 
L 359.887882 167.290931 
L 369.279476 167.290931 
L 369.279476 163.458535 
L 369.419224 163.458535 
L 369.419224 159.626139 
L 370.765277 159.626139 
L 370.765277 155.793743 
L 373.975246 155.793743 
L 373.975246 151.961347 
L 376.392804 151.961347 
L 376.392804 148.12895 
L 377.362135 148.12895 
L 377.362135 144.296554 
L 377.510922 144.296554 
L 377.510922 140.464158 
L 381.218178 140.464158 
L 381.218178 136.631762 
L 381.423372 136.631762 
L 381.423372 132.799366 
L 383.802114 132.799366 
L 383.802114 128.96697 
L 384.60815 128.96697 
L 384.60815 125.134574 
L 391.864497 125.134574 
L 391.864497 121.302178 
L 393.861535 121.302178 
L 393.861535 117.469782 
L 393.909008 117.469782 
L 393.909008 113.637386 
L 394.141333 113.637386 
L 394.141333 109.80499 
L 394.168881 109.80499 
L 394.168881 105.972594 
L 394.966617 105.972594 
L 394.966617 102.140198 
L 396.046621 102.140198 
L 396.046621 98.307802 
L 396.77024 98.307802 
L 396.77024 94.475406 
L 396.82867 94.475406 
L 396.82867 90.64301 
L 398.124085 90.64301 
L 398.124085 86.810614 
L 399.009021 86.810614 
L 399.009021 82.978218 
L 399.207845 82.978218 
L 399.207845 79.145822 
L 404.358769 79.145822 
L 404.358769 75.313426 
L 407.978611 75.313426 
L 407.978611 71.48103 
L 420.079808 71.48103 
L 420.079808 67.648634 
L 424.410295 67.648634 
L 424.410295 63.816238 
L 433.565952 63.816238 
L 433.565952 59.983842 
L 461.8 59.983842 
" clip-path="url(#pc251e22324)" style="fill: none; stroke: #f5deb3; stroke-width: 1.5; stroke-linecap: square"/>
   </g>
   <g id="line2d_10">
    <path d="M 313.100888 293.76 
L 313.100888 289.927604 
L 327.263602 289.927604 
L 327.263602 286.095208 
L 331.142241 286.095208 
L 331.142241 282.262812 
L 334.160107 282.262812 
L 334.160107 278.430416 
L 343.710659 278.430416 
L 343.710659 274.59802 
L 345.744522 274.59802 
L 345.744522 270.765624 
L 346.827563 270.765624 
L 346.827563 266.933228 
L 347.643454 266.933228 
L 347.643454 263.100832 
L 350.645122 263.100832 
L 350.645122 259.268436 
L 375.386687 259.268436 
L 375.386687 255.43604 
L 382.652043 255.43604 
L 382.652043 251.603644 
L 385.62778 251.603644 
L 385.62778 247.771248 
L 389.367033 247.771248 
L 389.367033 243.938851 
L 392.534018 243.938851 
L 392.534018 240.106455 
L 394.239897 240.106455 
L 394.239897 236.274059 
L 394.394646 236.274059 
L 394.394646 232.441663 
L 411.855121 232.441663 
L 411.855121 228.609267 
L 418.935931 228.609267 
L 418.935931 224.776871 
L 421.981049 224.776871 
L 421.981049 220.944475 
L 421.981049 220.944475 
L 421.981049 220.944475 
L 460.8 220.944475 
" clip-path="url(#pc251e22324)" style="fill: none; stroke: #f5deb3; stroke-width: 1.5; stroke-linecap: square"/>
   </g>
   <g id="line2d_11">
    <path d="M 266.361077 293.76 
L 266.361077 289.927604 
L 293.844434 289.927604 
L 293.844434 286.095208 
L 306.244068 286.095208 
L 306.244068 282.262812 
L 312.123626 282.262812 
L 312.123626 278.430416 
L 314.946294 278.430416 
L 314.946294 274.59802 
L 317.906038 274.59802 
L 317.906038 270.765624 
L 319.020675 270.765624 
L 319.020675 266.933228 
L 320.086401 266.933228 
L 320.086401 263.100832 
L 328.366219 263.100832 
L 328.366219 259.268436 
L 329.808908 259.268436 
L 329.808908 255.43604 
L 329.859208 255.43604 
L 329.859208 251.603644 
L 331.864233 251.603644 
L 331.864233 247.771248 
L 337.290478 247.771248 
L 337.290478 243.938851 
L 337.667136 243.938851 
L 337.667136 240.106455 
L 340.240932 240.106455 
L 340.240932 236.274059 
L 340.837532 236.274059 
L 340.837532 232.441663 
L 341.31492 232.441663 
L 341.31492 228.609267 
L 341.696864 228.609267 
L 341.696864 224.776871 
L 342.399959 224.776871 
L 342.399959 220.944475 
L 346.293789 220.944475 
L 346.293789 217.112079 
L 356.316054 217.112079 
L 356.316054 213.279683 
L 356.873971 213.279683 
L 356.873971 209.447287 
L 358.667699 209.447287 
L 358.667699 205.614891 
L 362.249353 205.614891 
L 362.249353 201.782495 
L 363.398219 201.782495 
L 363.398219 197.950099 
L 365.060999 197.950099 
L 365.060999 194.117703 
L 373.41611 194.117703 
L 373.41611 190.285307 
L 374.425662 190.285307 
L 374.425662 186.452911 
L 374.523596 186.452911 
L 374.523596 182.620515 
L 376.826607 182.620515 
L 376.826607 178.788119 
L 380.448725 178.788119 
L 380.448725 174.955723 
L 398.172837 174.955723 
L 398.172837 171.123327 
L 436.727166 171.123327 
L 436.727166 167.290931 
L 445.683266 167.290931 
L 445.683266 163.458535 
L 447.416127 163.458535 
L 447.416127 159.626139 
L 447.920887 159.626139 
L 447.920887 155.793743 
L 448.19279 155.793743 
L 448.19279 151.961347 
L 461.8 151.961347 
" clip-path="url(#pc251e22324)" style="fill: none; stroke: #f5deb3; stroke-width: 1.5; stroke-linecap: square"/>
   </g>
   <g id="line2d_12">
    <path d="M 213.251843 293.76 
L 213.251843 289.927604 
L 216.182662 289.927604 
L 216.182662 286.095208 
L 217.554962 286.095208 
L 217.554962 282.262812 
L 229.516051 282.262812 
L 229.516051 278.430416 
L 229.748121 278.430416 
L 229.748121 274.59802 
L 242.269975 274.59802 
L 242.269975 270.765624 
L 243.95886 270.765624 
L 243.95886 266.933228 
L 245.134482 266.933228 
L 245.134482 263.100832 
L 245.848312 263.100832 
L 245.848312 259.268436 
L 249.956343 259.268436 
L 249.956343 255.43604 
L 255.654661 255.43604 
L 255.654661 251.603644 
L 257.3857 251.603644 
L 257.3857 247.771248 
L 258.650144 247.771248 
L 258.650144 243.938851 
L 260.233029 243.938851 
L 260.233029 240.106455 
L 260.323792 240.106455 
L 260.323792 236.274059 
L 260.504565 236.274059 
L 260.504565 232.441663 
L 262.087994 232.441663 
L 262.087994 228.609267 
L 265.739983 228.609267 
L 265.739983 224.776871 
L 272.697725 224.776871 
L 272.697725 220.944475 
L 279.855736 220.944475 
L 279.855736 217.112079 
L 287.267782 217.112079 
L 287.267782 213.279683 
L 291.05019 213.279683 
L 291.05019 209.447287 
L 294.24769 209.447287 
L 294.24769 205.614891 
L 296.418245 205.614891 
L 296.418245 201.782495 
L 306.74712 201.782495 
L 306.74712 197.950099 
L 311.233922 197.950099 
L 311.233922 194.117703 
L 316.306446 194.117703 
L 316.306446 190.285307 
L 316.888485 190.285307 
L 316.888485 186.452911 
L 327.168227 186.452911 
L 327.168227 182.620515 
L 327.586578 182.620515 
L 327.586578 178.788119 
L 327.586578 178.788119 
L 327.586578 178.788119 
L 460.8 178.788119 
" clip-path="url(#pc251e22324)" style="fill: none; stroke: #f5deb3; stroke-width: 1.5; stroke-linecap: square"/>
   </g>
   <g id="line2d_13">
    <path d="M 266.498897 293.76 
L 266.498897 289.927604 
L 277.790404 289.927604 
L 277.790404 286.095208 
L 282.07086 286.095208 
L 282.07086 282.262812 
L 283.041743 282.262812 
L 283.041743 278.430416 
L 287.45913 278.430416 
L 287.45913 274.59802 
L 291.01481 274.59802 
L 291.01481 270.765624 
L 293.94167 270.765624 
L 293.94167 266.933228 
L 294.172792 266.933228 
L 294.172792 263.100832 
L 294.172792 263.100832 
L 294.172792 259.268436 
L 296.247803 259.268436 
L 296.247803 255.43604 
L 308.103191 255.43604 
L 308.103191 251.603644 
L 308.103191 251.603644 
L 308.103191 251.603644 
L 460.8 251.603644 
" clip-path="url(#pc251e22324)" style="fill: none; stroke: #f5deb3; stroke-width: 1.5; stroke-linecap: square"/>
   </g>
   <g id="line2d_14">
    <path d="M 183.594535 293.76 
L 183.594535 289.927604 
L 192.787082 289.927604 
L 192.787082 286.095208 
L 241.633506 286.095208 
L 241.633506 282.262812 
L 272.800965 282.262812 
L 272.800965 278.430416 
L 280.423767 278.430416 
L 280.423767 274.59802 
L 284.268735 274.59802 
L 284.268735 270.765624 
L 285.296993 270.765624 
L 285.296993 266.933228 
L 291.512494 266.933228 
L 291.512494 263.100832 
L 292.259277 263.100832 
L 292.259277 259.268436 
L 296.303044 259.268436 
L 296.303044 255.43604 
L 298.561302 255.43604 
L 298.561302 251.603644 
L 299.012347 251.603644 
L 299.012347 247.771248 
L 299.265353 247.771248 
L 299.265353 243.938851 
L 300.940026 243.938851 
L 300.940026 240.106455 
L 303.436576 240.106455 
L 303.436576 236.274059 
L 306.666859 236.274059 
L 306.666859 232.441663 
L 309.785848 232.441663 
L 309.785848 228.609267 
L 325.478083 228.609267 
L 325.478083 224.776871 
L 325.940786 224.776871 
L 325.940786 220.944475 
L 327.097977 220.944475 
L 327.097977 217.112079 
L 327.841532 217.112079 
L 327.841532 213.279683 
L 336.773182 213.279683 
L 336.773182 209.447287 
L 339.797802 209.447287 
L 339.797802 205.614891 
L 343.530488 205.614891 
L 343.530488 201.782495 
L 345.657236 201.782495 
L 345.657236 197.950099 
L 348.489195 197.950099 
L 348.489195 194.117703 
L 357.184 194.117703 
L 357.184 190.285307 
L 357.184 190.285307 
L 357.184 190.285307 
L 460.8 190.285307 
" clip-path="url(#pc251e22324)" style="fill: none; stroke: #f5deb3; stroke-width: 1.5; stroke-linecap: square"/>
   </g>
   <g id="line2d_15">
    <path d="M 372.717575 293.76 
L 372.717575 289.927604 
L 374.195231 289.927604 
L 374.195231 286.095208 
L 376.518135 286.095208 
L 376.518135 282.262812 
L 379.188805 282.262812 
L 379.188805 278.430416 
L 381.32038 278.430416 
L 381.32038 274.59802 
L 384.649726 274.59802 
L 384.649726 270.765624 
L 386.947994 270.765624 
L 386.947994 266.933228 
L 390.779634 266.933228 
L 390.779634 263.100832 
L 396.022742 263.100832 
L 396.022742 259.268436 
L 398.628236 259.268436 
L 398.628236 255.43604 
L 398.890963 255.43604 
L 398.890963 251.603644 
L 402.946905 251.603644 
L 402.946905 247.771248 
L 403.628073 247.771248 
L 403.628073 243.938851 
L 403.672446 243.938851 
L 403.672446 240.106455 
L 404.252518 240.106455 
L 404.252518 236.274059 
L 405.116278 236.274059 
L 405.116278 232.441663 
L 406.858995 232.441663 
L 406.858995 228.609267 
L 409.859328 228.609267 
L 409.859328 224.776871 
L 414.456053 224.776871 
L 414.456053 220.944475 
L 414.456053 220.944475 
L 414.456053 220.944475 
L 460.8 220.944475 
" clip-path="url(#pc251e22324)" style="fill: none; stroke: #f5deb3; stroke-width: 1.5; stroke-linecap: square"/>
   </g>
   <g id="line2d_16">
    <path d="M 271.368127 293.76 
L 271.368127 289.927604 
L 337.905094 289.927604 
L 337.905094 286.095208 
L 359.417319 286.095208 
L 359.417319 282.262812 
L 360.155079 282.262812 
L 360.155079 278.430416 
L 366.795226 278.430416 
L 366.795226 274.59802 
L 372.824613 274.59802 
L 372.824613 270.765624 
L 387.08543 270.765624 
L 387.08543 266.933228 
L 394.776007 266.933228 
L 394.776007 263.100832 
L 395.780845 263.100832 
L 395.780845 259.268436 
L 397.59152 259.268436 
L 397.59152 255.43604 
L 403.699378 255.43604 
L 403.699378 251.603644 
L 407.507392 251.603644 
L 407.507392 247.771248 
L 409.841367 247.771248 
L 409.841367 243.938851 
L 410.952588 243.938851 
L 410.952588 240.106455 
L 412.323981 240.106455 
L 412.323981 236.274059 
L 412.494494 236.274059 
L 412.494494 232.441663 
L 416.235039 232.441663 
L 416.235039 228.609267 
L 416.450668 228.609267 
L 416.450668 224.776871 
L 418.341739 224.776871 
L 418.341739 220.944475 
L 422.569224 220.944475 
L 422.569224 217.112079 
L 422.794559 217.112079 
L 422.794559 213.279683 
L 428.880526 213.279683 
L 428.880526 209.447287 
L 431.696309 209.447287 
L 431.696309 205.614891 
L 432.830388 205.614891 
L 432.830388 201.782495 
L 438.238141 201.782495 
L 438.238141 197.950099 
L 440.995013 197.950099 
L 440.995013 194.117703 
L 442.041757 194.117703 
L 442.041757 190.285307 
L 443.0329 190.285307 
L 443.0329 186.452911 
L 443.96174 186.452911 
L 443.96174 182.620515 
L 444.199463 182.620515 
L 444.199463 178.788119 
L 444.940547 178.788119 
L 444.940547 174.955723 
L 450.843832 174.955723 
L 450.843832 171.123327 
L 454.157834 171.123327 
L 454.157834 167.290931 
L 458.305682 167.290931 
L 458.305682 163.458535 
L 461.8 163.458535 
" clip-path="url(#pc251e22324)" style="fill: none; stroke: #f5deb3; stroke-width: 1.5; stroke-linecap: square"/>
   </g>
   <g id="line2d_17">
    <path d="M 279.159092 293.76 
L 279.159092 289.927604 
L 281.110195 289.927604 
L 281.110195 286.095208 
L 296.607691 286.095208 
L 296.607691 282.262812 
L 355.771168 282.262812 
L 355.771168 278.430416 
L 387.0266 278.430416 
L 387.0266 274.59802 
L 387.0266 274.59802 
L 387.0266 274.59802 
L 460.8 274.59802 
" clip-path="url(#pc251e22324)" style="fill: none; stroke: #f5deb3; stroke-width: 1.5; stroke-linecap: square"/>
   </g>
   <g id="line2d_18">
    <path d="M 191.939125 293.76 
L 191.939125 289.927604 
L 207.389363 289.927604 
L 207.389363 286.095208 
L 213.821791 286.095208 
L 213.821791 282.262812 
L 215.174487 282.262812 
L 215.174487 278.430416 
L 215.474255 278.430416 
L 215.474255 274.59802 
L 225.427575 274.59802 
L 225.427575 270.765624 
L 231.547585 270.765624 
L 231.547585 266.933228 
L 232.729577 266.933228 
L 232.729577 263.100832 
L 235.103535 263.100832 
L 235.103535 259.268436 
L 238.42829 259.268436 
L 238.42829 255.43604 
L 245.493348 255.43604 
L 245.493348 251.603644 
L 246.222733 251.603644 
L 246.222733 247.771248 
L 247.61207 247.771248 
L 247.61207 243.938851 
L 248.09898 243.938851 
L 248.09898 240.106455 
L 257.649096 240.106455 
L 257.649096 236.274059 
L 259.092359 236.274059 
L 259.092359 232.441663 
L 259.43566 232.441663 
L 259.43566 228.609267 
L 259.836779 228.609267 
L 259.836779 224.776871 
L 260.654448 224.776871 
L 260.654448 220.944475 
L 270.194882 220.944475 
L 270.194882 217.112079 
L 270.792256 217.112079 
L 270.792256 213.279683 
L 275.509719 213.279683 
L 275.509719 209.447287 
L 277.966861 209.447287 
L 277.966861 205.614891 
L 283.416196 205.614891 
L 283.416196 201.782495 
L 291.819017 201.782495 
L 291.819017 197.950099 
L 294.935079 197.950099 
L 294.935079 194.117703 
L 297.615982 194.117703 
L 297.615982 190.285307 
L 301.376762 190.285307 
L 301.376762 186.452911 
L 314.695903 186.452911 
L 314.695903 182.620515 
L 319.914018 182.620515 
L 319.914018 178.788119 
L 319.914018 178.788119 
L 319.914018 178.788119 
L 460.8 178.788119 
" clip-path="url(#pc251e22324)" style="fill: none; stroke: #f5deb3; stroke-width: 1.5; stroke-linecap: square"/>
   </g>
   <g id="line2d_19">
    <path d="M 311.540534 293.76 
L 311.540534 289.553712 
L 314.518331 289.553712 
L 314.518331 285.347423 
L 317.368345 285.347423 
L 317.368345 281.141135 
L 320.901868 281.141135 
L 320.901868 276.934847 
L 321.766534 276.934847 
L 321.766534 272.728558 
L 322.036817 272.728558 
L 322.036817 268.52227 
L 324.696937 268.52227 
L 324.696937 264.315982 
L 324.820754 264.315982 
L 324.820754 260.109693 
L 325.424665 260.109693 
L 325.424665 255.903405 
L 326.76616 255.903405 
L 326.76616 251.697117 
L 328.454414 251.697117 
L 328.454414 247.490828 
L 329.030236 247.490828 
L 329.030236 243.28454 
L 329.171701 243.28454 
L 329.171701 239.078252 
L 329.521799 239.078252 
L 329.521799 234.871963 
L 331.254229 234.871963 
L 331.254229 230.665675 
L 336.938338 230.665675 
L 336.938338 226.459387 
L 338.184479 226.459387 
L 338.184479 222.253098 
L 342.816592 222.253098 
L 342.816592 218.04681 
L 346.141534 218.04681 
L 346.141534 213.840522 
L 347.181088 213.840522 
L 347.181088 209.634233 
L 347.80442 209.634233 
L 347.80442 205.427945 
L 348.11168 205.427945 
L 348.113732 197.015368 
L 350.338867 197.015368 
L 350.401114 188.602792 
L 351.580252 188.602792 
L 351.580252 184.396503 
L 354.085702 184.396503 
L 354.085702 180.190215 
L 356.649577 180.190215 
L 356.649577 175.983927 
L 357.715932 175.983927 
L 357.715932 171.777638 
L 357.854044 171.777638 
L 357.854044 167.57135 
L 365.728833 167.57135 
L 365.728833 163.365062 
L 367.112711 163.365062 
L 367.139077 154.952485 
L 368.215453 154.952485 
L 368.215453 150.746197 
L 369.454468 150.746197 
L 369.454468 146.539908 
L 370.689308 146.539908 
L 370.689308 142.33362 
L 370.980416 142.33362 
L 370.980416 138.127332 
L 373.186032 138.127332 
L 373.186032 133.921043 
L 373.538785 133.921043 
L 373.538785 129.714755 
L 374.507599 129.714755 
L 374.507599 125.508467 
L 374.684957 125.508467 
L 374.684957 121.302178 
L 383.523055 121.302178 
L 383.523055 117.09589 
L 384.678196 117.09589 
L 384.678196 112.889602 
L 389.366453 112.889602 
L 389.366453 108.683313 
L 417.039483 108.683313 
L 417.039483 104.477025 
L 417.039483 104.477025 
L 460.8 104.477025 
L 460.8 104.477025 
" clip-path="url(#pc251e22324)" style="fill: none; stroke: #f5deb3; stroke-width: 1.5; stroke-linecap: square"/>
   </g>
   <g id="line2d_20">
    <path d="M 188.032738 293.76 
L 188.032738 289.927604 
L 188.032738 289.927604 
L 188.032738 286.095208 
L 191.444502 286.095208 
L 191.444502 282.262812 
L 193.261919 282.262812 
L 193.261919 278.430416 
L 204.00933 278.430416 
L 204.00933 274.59802 
L 218.925629 274.59802 
L 218.925629 270.765624 
L 222.675005 270.765624 
L 222.675005 266.933228 
L 228.41069 266.933228 
L 228.41069 263.100832 
L 235.461375 263.100832 
L 235.461375 259.268436 
L 243.506852 259.268436 
L 243.506852 255.43604 
L 244.600905 255.43604 
L 244.600905 251.603644 
L 246.292461 251.603644 
L 246.292461 247.771248 
L 247.61207 247.771248 
L 247.61207 243.938851 
L 250.409746 243.938851 
L 250.409746 240.106455 
L 250.491511 240.106455 
L 250.491511 236.274059 
L 256.001393 236.274059 
L 256.001393 232.441663 
L 258.602406 232.441663 
L 258.602406 228.609267 
L 259.186345 228.609267 
L 259.186345 224.776871 
L 259.775388 224.776871 
L 259.775388 220.944475 
L 260.609555 220.944475 
L 260.609555 217.112079 
L 263.227116 217.112079 
L 263.227116 213.279683 
L 266.285656 213.279683 
L 266.285656 209.447287 
L 271.432684 209.447287 
L 271.432684 205.614891 
L 271.443431 205.614891 
L 271.443431 201.782495 
L 272.770027 201.782495 
L 272.770027 197.950099 
L 281.798139 197.950099 
L 281.798139 194.117703 
L 282.739056 194.117703 
L 282.739056 190.285307 
L 283.9919 190.285307 
L 283.9919 186.452911 
L 300.088861 186.452911 
L 300.088861 182.620515 
L 301.492531 182.620515 
L 301.492531 178.788119 
L 383.002466 178.788119 
L 383.002466 174.955723 
L 383.002466 174.955723 
L 383.002466 174.955723 
L 460.8 174.955723 
" clip-path="url(#pc251e22324)" style="fill: none; stroke: #f5deb3; stroke-width: 1.5; stroke-linecap: square"/>
   </g>
   <g id="line2d_21">
    <path d="M 330.391559 293.76 
L 330.391559 289.927604 
L 347.496333 289.927604 
L 347.496333 286.095208 
L 353.234619 286.095208 
L 353.234619 282.262812 
L 353.234619 282.262812 
L 353.234619 282.262812 
L 460.8 282.262812 
" clip-path="url(#pc251e22324)" style="fill: none; stroke: #f5deb3; stroke-width: 1.5; stroke-linecap: square"/>
   </g>
   <g id="line2d_22">
    <path d="M 175.951611 293.76 
L 175.951611 289.927604 
L 180.955159 289.927604 
L 180.955159 286.095208 
L 187.474699 286.095208 
L 187.474699 282.262812 
L 188.308221 282.262812 
L 188.308221 278.430416 
L 193.261919 278.430416 
L 193.261919 274.59802 
L 195.97444 274.59802 
L 195.97444 270.765624 
L 237.009397 270.765624 
L 237.009397 266.933228 
L 257.517664 266.933228 
L 257.517664 263.100832 
L 259.186345 263.100832 
L 259.186345 259.268436 
L 262.273515 259.268436 
L 262.273515 255.43604 
L 264.220751 255.43604 
L 264.220751 251.603644 
L 270.361919 251.603644 
L 270.361919 247.771248 
L 273.159755 247.771248 
L 273.159755 243.938851 
L 279.471482 243.938851 
L 279.471482 240.106455 
L 283.056804 240.106455 
L 283.056804 236.274059 
L 286.895078 236.274059 
L 286.895078 232.441663 
L 303.051206 232.441663 
L 303.051206 228.609267 
L 303.525174 228.609267 
L 303.525174 224.776871 
L 306.240368 224.776871 
L 306.240368 220.944475 
L 307.307074 220.944475 
L 307.307074 217.112079 
L 309.905146 217.112079 
L 309.905146 213.279683 
L 317.507532 213.279683 
L 317.507532 209.447287 
L 325.760154 209.447287 
L 325.760154 205.614891 
L 331.061025 205.614891 
L 331.061025 201.782495 
L 331.750934 201.782495 
L 331.750934 197.950099 
L 332.358463 197.950099 
L 332.358463 194.117703 
L 343.661299 194.117703 
L 343.661299 190.285307 
L 352.224419 190.285307 
L 352.224419 186.452911 
L 357.622509 186.452911 
L 357.622509 182.620515 
L 365.889363 182.620515 
L 365.889363 178.788119 
L 368.484865 178.788119 
L 368.484865 174.955723 
L 372.119069 174.955723 
L 372.119069 171.123327 
L 377.048557 171.123327 
L 377.048557 167.290931 
L 379.884029 167.290931 
L 379.884029 163.458535 
L 382.061811 163.458535 
L 382.061811 159.626139 
L 392.163995 159.626139 
L 392.163995 155.793743 
L 393.117259 155.793743 
L 393.117259 151.961347 
L 396.273424 151.961347 
L 396.273424 148.12895 
L 405.477478 148.12895 
L 405.477478 144.296554 
L 418.732855 144.296554 
L 418.732855 140.464158 
L 420.704254 140.464158 
L 420.704254 136.631762 
L 422.309249 136.631762 
L 422.309249 132.799366 
L 427.842112 132.799366 
L 427.842112 128.96697 
L 427.955421 128.96697 
L 427.955421 125.134574 
L 427.955421 125.134574 
L 427.955421 125.134574 
L 460.8 125.134574 
" clip-path="url(#pc251e22324)" style="fill: none; stroke: #f5deb3; stroke-width: 1.5; stroke-linecap: square"/>
   </g>
   <g id="line2d_23">
    <path d="M 273.292022 293.76 
L 273.292022 289.927604 
L 278.412557 289.927604 
L 278.412557 286.095208 
L 280.75667 286.095208 
L 280.75667 282.262812 
L 281.388699 282.262812 
L 281.388699 278.430416 
L 282.586654 278.430416 
L 282.586654 274.59802 
L 284.979128 274.59802 
L 284.979128 270.765624 
L 297.27197 270.765624 
L 297.27197 266.933228 
L 300.426689 266.933228 
L 300.426689 263.100832 
L 300.607496 263.100832 
L 300.607496 259.268436 
L 301.9431 259.268436 
L 301.9431 255.43604 
L 307.984127 255.43604 
L 307.984127 251.603644 
L 310.280072 251.603644 
L 310.280072 247.771248 
L 315.424631 247.771248 
L 315.424631 243.938851 
L 320.58623 243.938851 
L 320.58623 240.106455 
L 322.711832 240.106455 
L 322.711832 236.274059 
L 326.740495 236.274059 
L 326.740495 232.441663 
L 337.587902 232.441663 
L 337.587902 228.609267 
L 337.617637 228.609267 
L 337.617637 224.776871 
L 339.856002 224.776871 
L 339.856002 220.944475 
L 343.812668 220.944475 
L 343.812668 217.112079 
L 357.41634 217.112079 
L 357.41634 213.279683 
L 357.41634 213.279683 
L 357.41634 213.279683 
L 460.8 213.279683 
" clip-path="url(#pc251e22324)" style="fill: none; stroke: #f5deb3; stroke-width: 1.5; stroke-linecap: square"/>
   </g>
   <g id="line2d_24">
    <path d="M 238.546246 293.76 
L 238.546246 289.927604 
L 239.646076 289.927604 
L 239.646076 286.095208 
L 244.844522 286.095208 
L 244.844522 282.262812 
L 245.730419 282.262812 
L 245.730419 278.430416 
L 250.695031 278.430416 
L 250.695031 274.59802 
L 251.437211 274.59802 
L 251.437211 270.765624 
L 258.88779 270.765624 
L 258.88779 266.933228 
L 278.403876 266.933228 
L 278.403876 263.100832 
L 299.936589 263.100832 
L 299.936589 259.268436 
L 300.68656 259.268436 
L 300.68656 255.43604 
L 301.799254 255.43604 
L 301.799254 251.603644 
L 302.903974 251.603644 
L 302.903974 247.771248 
L 304.378596 247.771248 
L 304.378596 243.938851 
L 305.072485 243.938851 
L 305.072485 240.106455 
L 305.259888 240.106455 
L 305.259888 236.274059 
L 307.414351 236.274059 
L 307.414351 232.441663 
L 314.604374 232.441663 
L 314.604374 228.609267 
L 315.194778 228.609267 
L 315.194778 224.776871 
L 316.096426 224.776871 
L 316.096426 220.944475 
L 323.909567 220.944475 
L 323.909567 217.112079 
L 328.392515 217.112079 
L 328.392515 213.279683 
L 329.303428 213.279683 
L 329.303428 209.447287 
L 330.350916 209.447287 
L 330.350916 205.614891 
L 330.495587 205.614891 
L 330.495587 201.782495 
L 332.585466 201.782495 
L 332.585466 197.950099 
L 337.886851 197.950099 
L 337.886851 194.117703 
L 339.284083 194.117703 
L 339.284083 190.285307 
L 339.807068 190.285307 
L 339.807068 186.452911 
L 344.620887 186.452911 
L 344.620887 182.620515 
L 347.648659 182.620515 
L 347.648659 178.788119 
L 349.085279 178.788119 
L 349.085279 174.955723 
L 352.654946 174.955723 
L 352.654946 171.123327 
L 353.957258 171.123327 
L 353.957258 167.290931 
L 357.619441 167.290931 
L 357.619441 163.458535 
L 362.642956 163.458535 
L 362.642956 159.626139 
L 363.827153 159.626139 
L 363.827153 155.793743 
L 368.162191 155.793743 
L 368.162191 151.961347 
L 381.102584 151.961347 
L 381.102584 148.12895 
L 383.110482 148.12895 
L 383.110482 144.296554 
L 385.106584 144.296554 
L 385.106584 140.464158 
L 393.702454 140.464158 
L 393.702454 136.631762 
L 396.8349 136.631762 
L 396.8349 132.799366 
L 412.109254 132.799366 
L 412.109254 128.96697 
L 414.523352 128.96697 
L 414.523352 125.134574 
L 415.557898 125.134574 
L 415.557898 121.302178 
L 415.814684 121.302178 
L 415.814684 117.469782 
L 416.240005 117.469782 
L 416.240005 113.637386 
L 417.915779 113.637386 
L 417.915779 109.80499 
L 418.334695 109.80499 
L 418.334695 105.972594 
L 420.404285 105.972594 
L 420.404285 102.140198 
L 433.123554 102.140198 
L 433.123554 98.307802 
L 433.591402 98.307802 
L 433.591402 94.475406 
L 437.014707 94.475406 
L 437.014707 90.64301 
L 446.634236 90.64301 
L 446.634236 86.810614 
L 448.064423 86.810614 
L 448.064423 82.978218 
L 461.8 82.978218 
" clip-path="url(#pc251e22324)" style="fill: none; stroke: #f5deb3; stroke-width: 1.5; stroke-linecap: square"/>
   </g>
   <g id="line2d_25">
    <path d="M 346.51977 293.76 
L 346.51977 289.927604 
L 348.743836 289.927604 
L 348.743836 286.095208 
L 352.019301 286.095208 
L 352.019301 282.262812 
L 352.873864 282.262812 
L 352.873864 278.430416 
L 352.900461 278.430416 
L 352.900461 274.59802 
L 353.595769 274.59802 
L 353.595769 270.765624 
L 353.727369 270.765624 
L 353.727369 266.933228 
L 354.229813 266.933228 
L 354.229813 263.100832 
L 355.154235 263.100832 
L 355.154235 259.268436 
L 356.12714 259.268436 
L 356.12714 255.43604 
L 356.500707 255.43604 
L 356.500707 251.603644 
L 356.551462 251.603644 
L 356.551462 247.771248 
L 356.598183 247.771248 
L 356.598183 243.938851 
L 356.652737 243.938851 
L 356.652737 240.106455 
L 356.971123 240.106455 
L 356.971123 236.274059 
L 357.408622 236.274059 
L 357.408622 232.441663 
L 357.620975 232.441663 
L 357.620975 228.609267 
L 358.131549 228.609267 
L 358.131549 224.776871 
L 359.028138 224.776871 
L 359.028138 220.944475 
L 359.357746 220.944475 
L 359.357746 217.112079 
L 360.366568 217.112079 
L 360.366568 213.279683 
L 360.448953 213.279683 
L 360.448953 209.447287 
L 361.990104 209.447287 
L 361.990104 205.614891 
L 362.154712 205.614891 
L 362.154712 201.782495 
L 371.383855 201.782495 
L 371.383855 197.950099 
L 372.301047 197.950099 
L 372.301047 194.117703 
L 373.124086 194.117703 
L 373.124086 190.285307 
L 373.398614 190.285307 
L 373.398614 186.452911 
L 373.815 186.452911 
L 373.815 182.620515 
L 374.263012 182.620515 
L 374.263012 178.788119 
L 374.282812 178.788119 
L 374.282812 174.955723 
L 374.524053 174.955723 
L 374.524053 171.123327 
L 375.106456 171.123327 
L 375.106456 167.290931 
L 375.113637 167.290931 
L 375.113637 163.458535 
L 375.192524 163.458535 
L 375.192524 159.626139 
L 376.401433 159.626139 
L 376.401433 155.793743 
L 376.669955 155.793743 
L 376.669955 151.961347 
L 376.669955 151.961347 
L 376.669955 151.961347 
L 460.8 151.961347 
" clip-path="url(#pc251e22324)" style="fill: none; stroke: #f5deb3; stroke-width: 1.5; stroke-linecap: square"/>
   </g>
   <g id="line2d_26">
    <path d="M 251.397522 293.76 
L 251.397522 289.927604 
L 252.586852 289.927604 
L 252.586852 286.095208 
L 252.872791 286.095208 
L 252.872791 282.262812 
L 253.250188 282.262812 
L 253.250188 278.430416 
L 253.399934 278.430416 
L 253.399934 274.59802 
L 254.247891 274.59802 
L 254.247891 270.765624 
L 254.860782 270.765624 
L 254.860782 266.933228 
L 255.074378 266.933228 
L 255.074378 263.100832 
L 257.698248 263.100832 
L 257.698248 259.268436 
L 265.444323 259.268436 
L 265.444323 255.43604 
L 266.197445 255.43604 
L 266.197445 251.603644 
L 267.118121 251.603644 
L 267.118121 247.771248 
L 267.459823 247.771248 
L 267.459823 243.938851 
L 269.892045 243.938851 
L 269.892045 240.106455 
L 276.34332 240.106455 
L 276.34332 236.274059 
L 276.948035 236.274059 
L 276.948035 232.441663 
L 276.966186 232.441663 
L 276.966186 228.609267 
L 277.425658 228.609267 
L 277.425658 224.776871 
L 278.843684 224.776871 
L 278.843684 220.944475 
L 279.057131 220.944475 
L 279.057131 217.112079 
L 279.814188 217.112079 
L 279.814188 213.279683 
L 288.969677 213.279683 
L 288.969677 209.447287 
L 291.185462 209.447287 
L 291.185462 205.614891 
L 291.267527 205.614891 
L 291.267527 201.782495 
L 292.042748 201.782495 
L 292.042748 197.950099 
L 293.337378 197.950099 
L 293.337378 194.117703 
L 297.750658 194.117703 
L 297.750658 190.285307 
L 297.918226 190.285307 
L 297.918226 186.452911 
L 300.629478 186.452911 
L 300.629478 182.620515 
L 301.46684 182.620515 
L 301.46684 178.788119 
L 309.64278 178.788119 
L 309.64278 174.955723 
L 310.628101 174.955723 
L 310.628101 171.123327 
L 313.883255 171.123327 
L 313.883255 167.290931 
L 316.137445 167.290931 
L 316.137445 163.458535 
L 331.698379 163.458535 
L 331.698379 159.626139 
L 333.521369 159.626139 
L 333.521369 155.793743 
L 355.238489 155.793743 
L 355.238489 151.961347 
L 355.533314 151.961347 
L 355.533314 148.12895 
L 368.507399 148.12895 
L 368.507399 144.296554 
L 372.235926 144.296554 
L 372.235926 140.464158 
L 374.755359 140.464158 
L 374.755359 136.631762 
L 375.158931 136.631762 
L 375.158931 132.799366 
L 377.708808 132.799366 
L 377.708808 128.96697 
L 378.06496 128.96697 
L 378.06496 125.134574 
L 378.40023 125.134574 
L 378.40023 121.302178 
L 380.370123 121.302178 
L 380.370123 117.469782 
L 381.783869 117.469782 
L 381.783869 113.637386 
L 381.845636 113.637386 
L 381.845636 109.80499 
L 381.90109 109.80499 
L 381.90109 105.972594 
L 386.792095 105.972594 
L 386.792095 102.140198 
L 386.792095 102.140198 
L 386.792095 102.140198 
L 460.8 102.140198 
" clip-path="url(#pc251e22324)" style="fill: none; stroke: #f5deb3; stroke-width: 1.5; stroke-linecap: square"/>
   </g>
   <g id="line2d_27">
    <path d="M 206.380059 293.76 
L 206.380059 289.927604 
L 214.071941 289.927604 
L 214.071941 286.095208 
L 243.45624 286.095208 
L 243.45624 282.262812 
L 254.284263 282.262812 
L 254.284263 278.430416 
L 274.625042 278.430416 
L 274.625042 274.59802 
L 287.551105 274.59802 
L 287.551105 270.765624 
L 291.899507 270.765624 
L 291.899507 266.933228 
L 292.716087 266.933228 
L 292.716087 263.100832 
L 293.055934 263.100832 
L 293.055934 259.268436 
L 300.137974 259.268436 
L 300.137974 255.43604 
L 302.362539 255.43604 
L 302.362539 251.603644 
L 302.370873 251.603644 
L 302.370873 247.771248 
L 304.841536 247.771248 
L 304.841536 243.938851 
L 307.464294 243.938851 
L 307.464294 240.106455 
L 309.562654 240.106455 
L 309.562654 236.274059 
L 311.859875 236.274059 
L 311.859875 232.441663 
L 311.956314 232.441663 
L 311.956314 228.609267 
L 313.253496 228.609267 
L 313.253496 224.776871 
L 316.178413 224.776871 
L 316.178413 220.944475 
L 319.845786 220.944475 
L 319.845786 217.112079 
L 324.147779 217.112079 
L 324.147779 213.279683 
L 327.027577 213.279683 
L 327.027577 209.447287 
L 327.360637 209.447287 
L 327.360637 205.614891 
L 337.502794 205.614891 
L 337.502794 201.782495 
L 337.872811 201.782495 
L 337.872811 197.950099 
L 338.841315 197.950099 
L 338.841315 194.117703 
L 341.155295 194.117703 
L 341.155295 190.285307 
L 343.194586 190.285307 
L 343.194586 186.452911 
L 344.09359 186.452911 
L 344.09359 182.620515 
L 348.19777 182.620515 
L 348.19777 178.788119 
L 404.330176 178.788119 
L 404.330176 174.955723 
L 404.330176 174.955723 
L 404.330176 174.955723 
L 460.8 174.955723 
" clip-path="url(#pc251e22324)" style="fill: none; stroke: #f5deb3; stroke-width: 1.5; stroke-linecap: square"/>
   </g>
   <g id="line2d_28">
    <path d="M 219.721229 293.76 
L 219.721229 289.927604 
L 220.241057 289.927604 
L 220.241057 286.095208 
L 227.057994 286.095208 
L 227.057994 282.262812 
L 234.840801 282.262812 
L 234.840801 278.430416 
L 250.613775 278.430416 
L 250.613775 274.59802 
L 270.295207 274.59802 
L 270.295207 270.765624 
L 282.016497 270.765624 
L 282.016497 266.933228 
L 301.039996 266.933228 
L 301.039996 263.100832 
L 302.953125 263.100832 
L 302.953125 259.268436 
L 304.628388 259.268436 
L 304.628388 255.43604 
L 304.655593 255.43604 
L 304.655593 251.603644 
L 306.158849 251.603644 
L 306.158849 247.771248 
L 306.469013 247.771248 
L 306.469013 243.938851 
L 308.544128 243.938851 
L 308.544128 240.106455 
L 312.726839 240.106455 
L 312.726839 236.274059 
L 313.865681 236.274059 
L 313.865681 232.441663 
L 328.079349 232.441663 
L 328.079349 228.609267 
L 329.061521 228.609267 
L 329.061521 224.776871 
L 329.552617 224.776871 
L 329.552617 220.944475 
L 329.830475 220.944475 
L 329.830475 217.112079 
L 330.386261 217.112079 
L 330.386261 213.279683 
L 331.259388 213.279683 
L 331.259388 209.447287 
L 332.139914 209.447287 
L 332.139914 205.614891 
L 332.554078 205.614891 
L 332.554078 201.782495 
L 333.090119 201.782495 
L 333.090119 197.950099 
L 336.939784 197.950099 
L 336.939784 194.117703 
L 337.011955 194.117703 
L 337.011955 190.285307 
L 340.609756 190.285307 
L 340.609756 186.452911 
L 341.508963 186.452911 
L 341.508963 182.620515 
L 341.624337 182.620515 
L 341.624337 178.788119 
L 344.548858 178.788119 
L 344.548858 174.955723 
L 344.782657 174.955723 
L 344.782657 171.123327 
L 355.069762 171.123327 
L 355.069762 167.290931 
L 358.42767 167.290931 
L 358.42767 163.458535 
L 361.272539 163.458535 
L 361.272539 159.626139 
L 362.839626 159.626139 
L 362.839626 155.793743 
L 363.463047 155.793743 
L 363.463047 151.961347 
L 365.620973 151.961347 
L 365.620973 148.12895 
L 372.617453 148.12895 
L 372.617453 144.296554 
L 377.75561 144.296554 
L 377.75561 140.464158 
L 380.279075 140.464158 
L 380.279075 136.631762 
L 381.426701 136.631762 
L 381.426701 132.799366 
L 383.561879 132.799366 
L 383.561879 128.96697 
L 400.545298 128.96697 
L 400.545298 125.134574 
L 410.586015 125.134574 
L 410.586015 121.302178 
L 420.788206 121.302178 
L 420.788206 117.469782 
L 424.773448 117.469782 
L 424.773448 113.637386 
L 438.377954 113.637386 
L 438.377954 109.80499 
L 439.166535 109.80499 
L 439.166535 105.972594 
L 448.249288 105.972594 
L 448.249288 102.140198 
L 448.853288 102.140198 
L 448.853288 98.307802 
L 449.458696 98.307802 
L 449.458696 94.475406 
L 449.543861 94.475406 
L 449.543861 90.64301 
L 451.738979 90.64301 
L 451.738979 86.810614 
L 461.8 86.810614 
" clip-path="url(#pc251e22324)" style="fill: none; stroke: #f5deb3; stroke-width: 1.5; stroke-linecap: square"/>
   </g>
   <g id="line2d_29">
    <path d="M 216.415422 293.76 
L 216.415422 289.927604 
L 216.415422 289.927604 
L 216.415422 286.095208 
L 216.415422 286.095208 
L 216.415422 282.262812 
L 239.302748 282.262812 
L 239.302748 278.430416 
L 239.302748 278.430416 
L 239.302748 274.59802 
L 239.302748 274.59802 
L 239.302748 270.765624 
L 244.108149 270.765624 
L 244.108149 266.933228 
L 244.108149 266.933228 
L 244.108149 263.100832 
L 244.108149 263.100832 
L 244.108149 259.268436 
L 272.73906 259.268436 
L 272.73906 255.43604 
L 272.73906 255.43604 
L 272.73906 251.603644 
L 272.73906 251.603644 
L 272.73906 247.771248 
L 303.801502 247.771248 
L 303.801502 243.938851 
L 303.801502 243.938851 
L 303.801502 240.106455 
L 303.801502 240.106455 
L 303.801502 236.274059 
L 316.219329 236.274059 
L 316.219329 232.441663 
L 316.219329 232.441663 
L 316.219329 228.609267 
L 316.219329 228.609267 
L 316.219329 224.776871 
L 322.7163 224.776871 
L 322.7163 220.944475 
L 322.7163 220.944475 
L 322.7163 217.112079 
L 322.7163 217.112079 
L 322.7163 213.279683 
L 324.791416 213.279683 
L 324.791416 209.447287 
L 325.478083 209.447287 
L 325.478083 205.614891 
L 334.374962 205.614891 
L 334.374962 201.782495 
L 335.266176 201.782495 
L 335.266176 197.950099 
L 335.47843 197.950099 
L 335.47843 194.117703 
L 342.259073 194.117703 
L 342.259073 190.285307 
L 344.688199 190.285307 
L 344.688199 186.452911 
L 347.796132 186.452911 
L 347.796132 182.620515 
L 359.995737 182.620515 
L 359.995737 178.788119 
L 359.995737 178.788119 
L 359.995737 178.788119 
L 460.8 178.788119 
" clip-path="url(#pc251e22324)" style="fill: none; stroke: #f5deb3; stroke-width: 1.5; stroke-linecap: square"/>
   </g>
   <g id="line2d_30">
    <path d="M 296.597748 293.76 
L 296.597748 289.927604 
L 298.636131 289.927604 
L 298.636131 286.095208 
L 333.036421 286.095208 
L 333.036421 282.262812 
L 342.573088 282.262812 
L 342.573088 278.430416 
L 355.971022 278.430416 
L 355.971022 274.59802 
L 360.643176 274.59802 
L 360.643176 270.765624 
L 361.657699 270.765624 
L 361.657699 266.933228 
L 361.921607 266.933228 
L 361.921607 263.100832 
L 362.190734 263.100832 
L 362.190734 259.268436 
L 362.472206 259.268436 
L 362.472206 255.43604 
L 362.472206 255.43604 
L 362.472206 255.43604 
L 460.8 255.43604 
" clip-path="url(#pc251e22324)" style="fill: none; stroke: #f5deb3; stroke-width: 1.5; stroke-linecap: square"/>
   </g>
   <g id="matplotlib.axis_1">
    <g id="xtick_1">
     <g id="line2d_31">
      <path d="M 62.208 293.76 
L 62.208 3.456 
" clip-path="url(#pc251e22324)" style="fill: none; stroke: #b0b0b0; stroke-width: 0.8; stroke-linecap: square"/>
     </g>
     <g id="line2d_32">
      <defs>
       <path id="mc7d4563b72" d="M 0 0 
L 0 3.5 
" style="stroke: #000000; stroke-width: 0.8"/>
      </defs>
      <g>
       <use xlink:href="#mc7d4563b72" x="62.208" y="293.76" style="stroke: #000000; stroke-width: 0.8"/>
      </g>
     </g>
     <g id="text_1">
      <!-- 0 -->
      <g transform="translate(55.8455 315.956875)scale(0.2 -0.2)">
       <defs>
        <path id="DejaVuSans-30" d="M 2034 4250 
Q 1547 4250 1301 3770 
Q 1056 3291 1056 2328 
Q 1056 1369 1301 889 
Q 1547 409 2034 409 
Q 2525 409 2770 889 
Q 3016 1369 3016 2328 
Q 3016 3291 2770 3770 
Q 2525 4250 2034 4250 
z
M 2034 4750 
Q 2819 4750 3233 4129 
Q 3647 3509 3647 2328 
Q 3647 1150 3233 529 
Q 2819 -91 2034 -91 
Q 1250 -91 836 529 
Q 422 1150 422 2328 
Q 422 3509 836 4129 
Q 1250 4750 2034 4750 
z
" transform="scale(0.015625)"/>
       </defs>
       <use xlink:href="#DejaVuSans-30"/>
      </g>
     </g>
    </g>
    <g id="xtick_2">
     <g id="line2d_33">
      <path d="M 212.54145 293.76 
L 212.54145 3.456 
" clip-path="url(#pc251e22324)" style="fill: none; stroke: #b0b0b0; stroke-width: 0.8; stroke-linecap: square"/>
     </g>
     <g id="line2d_34">
      <g>
       <use xlink:href="#mc7d4563b72" x="212.54145" y="293.76" style="stroke: #000000; stroke-width: 0.8"/>
      </g>
     </g>
     <g id="text_2">
      <!-- 2 -->
      <g transform="translate(206.17895 315.956875)scale(0.2 -0.2)">
       <defs>
        <path id="DejaVuSans-32" d="M 1228 531 
L 3431 531 
L 3431 0 
L 469 0 
L 469 531 
Q 828 903 1448 1529 
Q 2069 2156 2228 2338 
Q 2531 2678 2651 2914 
Q 2772 3150 2772 3378 
Q 2772 3750 2511 3984 
Q 2250 4219 1831 4219 
Q 1534 4219 1204 4116 
Q 875 4013 500 3803 
L 500 4441 
Q 881 4594 1212 4672 
Q 1544 4750 1819 4750 
Q 2544 4750 2975 4387 
Q 3406 4025 3406 3419 
Q 3406 3131 3298 2873 
Q 3191 2616 2906 2266 
Q 2828 2175 2409 1742 
Q 1991 1309 1228 531 
z
" transform="scale(0.015625)"/>
       </defs>
       <use xlink:href="#DejaVuSans-32"/>
      </g>
     </g>
    </g>
    <g id="xtick_3">
     <g id="line2d_35">
      <path d="M 362.874901 293.76 
L 362.874901 3.456 
" clip-path="url(#pc251e22324)" style="fill: none; stroke: #b0b0b0; stroke-width: 0.8; stroke-linecap: square"/>
     </g>
     <g id="line2d_36">
      <g>
       <use xlink:href="#mc7d4563b72" x="362.874901" y="293.76" style="stroke: #000000; stroke-width: 0.8"/>
      </g>
     </g>
     <g id="text_3">
      <!-- 4 -->
      <g transform="translate(356.512401 315.956875)scale(0.2 -0.2)">
       <defs>
        <path id="DejaVuSans-34" d="M 2419 4116 
L 825 1625 
L 2419 1625 
L 2419 4116 
z
M 2253 4666 
L 3047 4666 
L 3047 1625 
L 3713 1625 
L 3713 1100 
L 3047 1100 
L 3047 0 
L 2419 0 
L 2419 1100 
L 313 1100 
L 313 1709 
L 2253 4666 
z
" transform="scale(0.015625)"/>
       </defs>
       <use xlink:href="#DejaVuSans-34"/>
      </g>
     </g>
    </g>
    <g id="text_4">
     <!-- log10 of FEvals / DIM -->
     <g transform="translate(156.430563 339.313125)scale(0.2 -0.2)">
      <defs>
       <path id="DejaVuSans-6c" d="M 603 4863 
L 1178 4863 
L 1178 0 
L 603 0 
L 603 4863 
z
" transform="scale(0.015625)"/>
       <path id="DejaVuSans-6f" d="M 1959 3097 
Q 1497 3097 1228 2736 
Q 959 2375 959 1747 
Q 959 1119 1226 758 
Q 1494 397 1959 397 
Q 2419 397 2687 759 
Q 2956 1122 2956 1747 
Q 2956 2369 2687 2733 
Q 2419 3097 1959 3097 
z
M 1959 3584 
Q 2709 3584 3137 3096 
Q 3566 2609 3566 1747 
Q 3566 888 3137 398 
Q 2709 -91 1959 -91 
Q 1206 -91 779 398 
Q 353 888 353 1747 
Q 353 2609 779 3096 
Q 1206 3584 1959 3584 
z
" transform="scale(0.015625)"/>
       <path id="DejaVuSans-67" d="M 2906 1791 
Q 2906 2416 2648 2759 
Q 2391 3103 1925 3103 
Q 1463 3103 1205 2759 
Q 947 2416 947 1791 
Q 947 1169 1205 825 
Q 1463 481 1925 481 
Q 2391 481 2648 825 
Q 2906 1169 2906 1791 
z
M 3481 434 
Q 3481 -459 3084 -895 
Q 2688 -1331 1869 -1331 
Q 1566 -1331 1297 -1286 
Q 1028 -1241 775 -1147 
L 775 -588 
Q 1028 -725 1275 -790 
Q 1522 -856 1778 -856 
Q 2344 -856 2625 -561 
Q 2906 -266 2906 331 
L 2906 616 
Q 2728 306 2450 153 
Q 2172 0 1784 0 
Q 1141 0 747 490 
Q 353 981 353 1791 
Q 353 2603 747 3093 
Q 1141 3584 1784 3584 
Q 2172 3584 2450 3431 
Q 2728 3278 2906 2969 
L 2906 3500 
L 3481 3500 
L 3481 434 
z
" transform="scale(0.015625)"/>
       <path id="DejaVuSans-31" d="M 794 531 
L 1825 531 
L 1825 4091 
L 703 3866 
L 703 4441 
L 1819 4666 
L 2450 4666 
L 2450 531 
L 3481 531 
L 3481 0 
L 794 0 
L 794 531 
z
" transform="scale(0.015625)"/>
       <path id="DejaVuSans-20" transform="scale(0.015625)"/>
       <path id="DejaVuSans-66" d="M 2375 4863 
L 2375 4384 
L 1825 4384 
Q 1516 4384 1395 4259 
Q 1275 4134 1275 3809 
L 1275 3500 
L 2222 3500 
L 2222 3053 
L 1275 3053 
L 1275 0 
L 697 0 
L 697 3053 
L 147 3053 
L 147 3500 
L 697 3500 
L 697 3744 
Q 697 4328 969 4595 
Q 1241 4863 1831 4863 
L 2375 4863 
z
" transform="scale(0.015625)"/>
       <path id="DejaVuSans-46" d="M 628 4666 
L 3309 4666 
L 3309 4134 
L 1259 4134 
L 1259 2759 
L 3109 2759 
L 3109 2228 
L 1259 2228 
L 1259 0 
L 628 0 
L 628 4666 
z
" transform="scale(0.015625)"/>
       <path id="DejaVuSans-45" d="M 628 4666 
L 3578 4666 
L 3578 4134 
L 1259 4134 
L 1259 2753 
L 3481 2753 
L 3481 2222 
L 1259 2222 
L 1259 531 
L 3634 531 
L 3634 0 
L 628 0 
L 628 4666 
z
" transform="scale(0.015625)"/>
       <path id="DejaVuSans-76" d="M 191 3500 
L 800 3500 
L 1894 563 
L 2988 3500 
L 3597 3500 
L 2284 0 
L 1503 0 
L 191 3500 
z
" transform="scale(0.015625)"/>
       <path id="DejaVuSans-61" d="M 2194 1759 
Q 1497 1759 1228 1600 
Q 959 1441 959 1056 
Q 959 750 1161 570 
Q 1363 391 1709 391 
Q 2188 391 2477 730 
Q 2766 1069 2766 1631 
L 2766 1759 
L 2194 1759 
z
M 3341 1997 
L 3341 0 
L 2766 0 
L 2766 531 
Q 2569 213 2275 61 
Q 1981 -91 1556 -91 
Q 1019 -91 701 211 
Q 384 513 384 1019 
Q 384 1609 779 1909 
Q 1175 2209 1959 2209 
L 2766 2209 
L 2766 2266 
Q 2766 2663 2505 2880 
Q 2244 3097 1772 3097 
Q 1472 3097 1187 3025 
Q 903 2953 641 2809 
L 641 3341 
Q 956 3463 1253 3523 
Q 1550 3584 1831 3584 
Q 2591 3584 2966 3190 
Q 3341 2797 3341 1997 
z
" transform="scale(0.015625)"/>
       <path id="DejaVuSans-73" d="M 2834 3397 
L 2834 2853 
Q 2591 2978 2328 3040 
Q 2066 3103 1784 3103 
Q 1356 3103 1142 2972 
Q 928 2841 928 2578 
Q 928 2378 1081 2264 
Q 1234 2150 1697 2047 
L 1894 2003 
Q 2506 1872 2764 1633 
Q 3022 1394 3022 966 
Q 3022 478 2636 193 
Q 2250 -91 1575 -91 
Q 1294 -91 989 -36 
Q 684 19 347 128 
L 347 722 
Q 666 556 975 473 
Q 1284 391 1588 391 
Q 1994 391 2212 530 
Q 2431 669 2431 922 
Q 2431 1156 2273 1281 
Q 2116 1406 1581 1522 
L 1381 1569 
Q 847 1681 609 1914 
Q 372 2147 372 2553 
Q 372 3047 722 3315 
Q 1072 3584 1716 3584 
Q 2034 3584 2315 3537 
Q 2597 3491 2834 3397 
z
" transform="scale(0.015625)"/>
       <path id="DejaVuSans-2f" d="M 1625 4666 
L 2156 4666 
L 531 -594 
L 0 -594 
L 1625 4666 
z
" transform="scale(0.015625)"/>
       <path id="DejaVuSans-44" d="M 1259 4147 
L 1259 519 
L 2022 519 
Q 2988 519 3436 956 
Q 3884 1394 3884 2338 
Q 3884 3275 3436 3711 
Q 2988 4147 2022 4147 
L 1259 4147 
z
M 628 4666 
L 1925 4666 
Q 3281 4666 3915 4102 
Q 4550 3538 4550 2338 
Q 4550 1131 3912 565 
Q 3275 0 1925 0 
L 628 0 
L 628 4666 
z
" transform="scale(0.015625)"/>
       <path id="DejaVuSans-49" d="M 628 4666 
L 1259 4666 
L 1259 0 
L 628 0 
L 628 4666 
z
" transform="scale(0.015625)"/>
       <path id="DejaVuSans-4d" d="M 628 4666 
L 1569 4666 
L 2759 1491 
L 3956 4666 
L 4897 4666 
L 4897 0 
L 4281 0 
L 4281 4097 
L 3078 897 
L 2444 897 
L 1241 4097 
L 1241 0 
L 628 0 
L 628 4666 
z
" transform="scale(0.015625)"/>
      </defs>
      <use xlink:href="#DejaVuSans-6c"/>
      <use xlink:href="#DejaVuSans-6f" x="27.783203"/>
      <use xlink:href="#DejaVuSans-67" x="88.964844"/>
      <use xlink:href="#DejaVuSans-31" x="152.441406"/>
      <use xlink:href="#DejaVuSans-30" x="216.064453"/>
      <use xlink:href="#DejaVuSans-20" x="279.6875"/>
      <use xlink:href="#DejaVuSans-6f" x="311.474609"/>
      <use xlink:href="#DejaVuSans-66" x="372.65625"/>
      <use xlink:href="#DejaVuSans-20" x="407.861328"/>
      <use xlink:href="#DejaVuSans-46" x="439.648438"/>
      <use xlink:href="#DejaVuSans-45" x="497.167969"/>
      <use xlink:href="#DejaVuSans-76" x="560.351562"/>
      <use xlink:href="#DejaVuSans-61" x="619.53125"/>
      <use xlink:href="#DejaVuSans-6c" x="680.810547"/>
      <use xlink:href="#DejaVuSans-73" x="708.59375"/>
      <use xlink:href="#DejaVuSans-20" x="760.693359"/>
      <use xlink:href="#DejaVuSans-2f" x="792.480469"/>
      <use xlink:href="#DejaVuSans-20" x="826.171875"/>
      <use xlink:href="#DejaVuSans-44" x="857.958984"/>
      <use xlink:href="#DejaVuSans-49" x="934.960938"/>
      <use xlink:href="#DejaVuSans-4d" x="964.453125"/>
     </g>
    </g>
   </g>
   <g id="matplotlib.axis_2">
    <g id="ytick_1">
     <g id="line2d_37">
      <path d="M 62.208 293.76 
L 460.8 293.76 
" clip-path="url(#pc251e22324)" style="fill: none; stroke: #b0b0b0; stroke-width: 0.8; stroke-linecap: square"/>
     </g>
     <g id="line2d_38">
      <defs>
       <path id="m5d1e2a9ffc" d="M 0 0 
L -3.5 0 
" style="stroke: #000000; stroke-width: 0.8"/>
      </defs>
      <g>
       <use xlink:href="#m5d1e2a9ffc" x="62.208" y="293.76" style="stroke: #000000; stroke-width: 0.8"/>
      </g>
     </g>
     <g id="text_5">
      <!-- 0.0 -->
      <g transform="translate(29.763 299.83875)scale(0.16 -0.16)">
       <defs>
        <path id="DejaVuSans-2e" d="M 684 794 
L 1344 794 
L 1344 0 
L 684 0 
L 684 794 
z
" transform="scale(0.015625)"/>
       </defs>
       <use xlink:href="#DejaVuSans-30"/>
       <use xlink:href="#DejaVuSans-2e" x="63.623047"/>
       <use xlink:href="#DejaVuSans-30" x="95.410156"/>
      </g>
     </g>
    </g>
    <g id="ytick_2">
     <g id="line2d_39">
      <path d="M 62.208 236.274059 
L 460.8 236.274059 
" clip-path="url(#pc251e22324)" style="fill: none; stroke: #b0b0b0; stroke-width: 0.8; stroke-linecap: square"/>
     </g>
     <g id="line2d_40">
      <g>
       <use xlink:href="#m5d1e2a9ffc" x="62.208" y="236.274059" style="stroke: #000000; stroke-width: 0.8"/>
      </g>
     </g>
     <g id="text_6">
      <!-- 0.2 -->
      <g transform="translate(29.763 242.352809)scale(0.16 -0.16)">
       <use xlink:href="#DejaVuSans-30"/>
       <use xlink:href="#DejaVuSans-2e" x="63.623047"/>
       <use xlink:href="#DejaVuSans-32" x="95.410156"/>
      </g>
     </g>
    </g>
    <g id="ytick_3">
     <g id="line2d_41">
      <path d="M 62.208 178.788119 
L 460.8 178.788119 
" clip-path="url(#pc251e22324)" style="fill: none; stroke: #b0b0b0; stroke-width: 0.8; stroke-linecap: square"/>
     </g>
     <g id="line2d_42">
      <g>
       <use xlink:href="#m5d1e2a9ffc" x="62.208" y="178.788119" style="stroke: #000000; stroke-width: 0.8"/>
      </g>
     </g>
     <g id="text_7">
      <!-- 0.4 -->
      <g transform="translate(29.763 184.866869)scale(0.16 -0.16)">
       <use xlink:href="#DejaVuSans-30"/>
       <use xlink:href="#DejaVuSans-2e" x="63.623047"/>
       <use xlink:href="#DejaVuSans-34" x="95.410156"/>
      </g>
     </g>
    </g>
    <g id="ytick_4">
     <g id="line2d_43">
      <path d="M 62.208 121.302178 
L 460.8 121.302178 
" clip-path="url(#pc251e22324)" style="fill: none; stroke: #b0b0b0; stroke-width: 0.8; stroke-linecap: square"/>
     </g>
     <g id="line2d_44">
      <g>
       <use xlink:href="#m5d1e2a9ffc" x="62.208" y="121.302178" style="stroke: #000000; stroke-width: 0.8"/>
      </g>
     </g>
     <g id="text_8">
      <!-- 0.6 -->
      <g transform="translate(29.763 127.380928)scale(0.16 -0.16)">
       <defs>
        <path id="DejaVuSans-36" d="M 2113 2584 
Q 1688 2584 1439 2293 
Q 1191 2003 1191 1497 
Q 1191 994 1439 701 
Q 1688 409 2113 409 
Q 2538 409 2786 701 
Q 3034 994 3034 1497 
Q 3034 2003 2786 2293 
Q 2538 2584 2113 2584 
z
M 3366 4563 
L 3366 3988 
Q 3128 4100 2886 4159 
Q 2644 4219 2406 4219 
Q 1781 4219 1451 3797 
Q 1122 3375 1075 2522 
Q 1259 2794 1537 2939 
Q 1816 3084 2150 3084 
Q 2853 3084 3261 2657 
Q 3669 2231 3669 1497 
Q 3669 778 3244 343 
Q 2819 -91 2113 -91 
Q 1303 -91 875 529 
Q 447 1150 447 2328 
Q 447 3434 972 4092 
Q 1497 4750 2381 4750 
Q 2619 4750 2861 4703 
Q 3103 4656 3366 4563 
z
" transform="scale(0.015625)"/>
       </defs>
       <use xlink:href="#DejaVuSans-30"/>
       <use xlink:href="#DejaVuSans-2e" x="63.623047"/>
       <use xlink:href="#DejaVuSans-36" x="95.410156"/>
      </g>
     </g>
    </g>
    <g id="ytick_5">
     <g id="line2d_45">
      <path d="M 62.208 63.816238 
L 460.8 63.816238 
" clip-path="url(#pc251e22324)" style="fill: none; stroke: #b0b0b0; stroke-width: 0.8; stroke-linecap: square"/>
     </g>
     <g id="line2d_46">
      <g>
       <use xlink:href="#m5d1e2a9ffc" x="62.208" y="63.816238" style="stroke: #000000; stroke-width: 0.8"/>
      </g>
     </g>
     <g id="text_9">
      <!-- 0.8 -->
      <g transform="translate(29.763 69.894988)scale(0.16 -0.16)">
       <defs>
        <path id="DejaVuSans-38" d="M 2034 2216 
Q 1584 2216 1326 1975 
Q 1069 1734 1069 1313 
Q 1069 891 1326 650 
Q 1584 409 2034 409 
Q 2484 409 2743 651 
Q 3003 894 3003 1313 
Q 3003 1734 2745 1975 
Q 2488 2216 2034 2216 
z
M 1403 2484 
Q 997 2584 770 2862 
Q 544 3141 544 3541 
Q 544 4100 942 4425 
Q 1341 4750 2034 4750 
Q 2731 4750 3128 4425 
Q 3525 4100 3525 3541 
Q 3525 3141 3298 2862 
Q 3072 2584 2669 2484 
Q 3125 2378 3379 2068 
Q 3634 1759 3634 1313 
Q 3634 634 3220 271 
Q 2806 -91 2034 -91 
Q 1263 -91 848 271 
Q 434 634 434 1313 
Q 434 1759 690 2068 
Q 947 2378 1403 2484 
z
M 1172 3481 
Q 1172 3119 1398 2916 
Q 1625 2713 2034 2713 
Q 2441 2713 2670 2916 
Q 2900 3119 2900 3481 
Q 2900 3844 2670 4047 
Q 2441 4250 2034 4250 
Q 1625 4250 1398 4047 
Q 1172 3844 1172 3481 
z
" transform="scale(0.015625)"/>
       </defs>
       <use xlink:href="#DejaVuSans-30"/>
       <use xlink:href="#DejaVuSans-2e" x="63.623047"/>
       <use xlink:href="#DejaVuSans-38" x="95.410156"/>
      </g>
     </g>
    </g>
    <g id="ytick_6">
     <g id="line2d_47">
      <path d="M 62.208 6.330297 
L 460.8 6.330297 
" clip-path="url(#pc251e22324)" style="fill: none; stroke: #b0b0b0; stroke-width: 0.8; stroke-linecap: square"/>
     </g>
     <g id="line2d_48">
      <g>
       <use xlink:href="#m5d1e2a9ffc" x="62.208" y="6.330297" style="stroke: #000000; stroke-width: 0.8"/>
      </g>
     </g>
     <g id="text_10">
      <!-- 1.0 -->
      <g transform="translate(29.763 12.409047)scale(0.16 -0.16)">
       <use xlink:href="#DejaVuSans-31"/>
       <use xlink:href="#DejaVuSans-2e" x="63.623047"/>
       <use xlink:href="#DejaVuSans-30" x="95.410156"/>
      </g>
     </g>
    </g>
    <g id="text_11">
     <!-- proportion of trials -->
     <g transform="translate(21.603625 241.61425)rotate(-90)scale(0.2 -0.2)">
      <defs>
       <path id="DejaVuSans-70" d="M 1159 525 
L 1159 -1331 
L 581 -1331 
L 581 3500 
L 1159 3500 
L 1159 2969 
Q 1341 3281 1617 3432 
Q 1894 3584 2278 3584 
Q 2916 3584 3314 3078 
Q 3713 2572 3713 1747 
Q 3713 922 3314 415 
Q 2916 -91 2278 -91 
Q 1894 -91 1617 61 
Q 1341 213 1159 525 
z
M 3116 1747 
Q 3116 2381 2855 2742 
Q 2594 3103 2138 3103 
Q 1681 3103 1420 2742 
Q 1159 2381 1159 1747 
Q 1159 1113 1420 752 
Q 1681 391 2138 391 
Q 2594 391 2855 752 
Q 3116 1113 3116 1747 
z
" transform="scale(0.015625)"/>
       <path id="DejaVuSans-72" d="M 2631 2963 
Q 2534 3019 2420 3045 
Q 2306 3072 2169 3072 
Q 1681 3072 1420 2755 
Q 1159 2438 1159 1844 
L 1159 0 
L 581 0 
L 581 3500 
L 1159 3500 
L 1159 2956 
Q 1341 3275 1631 3429 
Q 1922 3584 2338 3584 
Q 2397 3584 2469 3576 
Q 2541 3569 2628 3553 
L 2631 2963 
z
" transform="scale(0.015625)"/>
       <path id="DejaVuSans-74" d="M 1172 4494 
L 1172 3500 
L 2356 3500 
L 2356 3053 
L 1172 3053 
L 1172 1153 
Q 1172 725 1289 603 
Q 1406 481 1766 481 
L 2356 481 
L 2356 0 
L 1766 0 
Q 1100 0 847 248 
Q 594 497 594 1153 
L 594 3053 
L 172 3053 
L 172 3500 
L 594 3500 
L 594 4494 
L 1172 4494 
z
" transform="scale(0.015625)"/>
       <path id="DejaVuSans-69" d="M 603 3500 
L 1178 3500 
L 1178 0 
L 603 0 
L 603 3500 
z
M 603 4863 
L 1178 4863 
L 1178 4134 
L 603 4134 
L 603 4863 
z
" transform="scale(0.015625)"/>
       <path id="DejaVuSans-6e" d="M 3513 2113 
L 3513 0 
L 2938 0 
L 2938 2094 
Q 2938 2591 2744 2837 
Q 2550 3084 2163 3084 
Q 1697 3084 1428 2787 
Q 1159 2491 1159 1978 
L 1159 0 
L 581 0 
L 581 3500 
L 1159 3500 
L 1159 2956 
Q 1366 3272 1645 3428 
Q 1925 3584 2291 3584 
Q 2894 3584 3203 3211 
Q 3513 2838 3513 2113 
z
" transform="scale(0.015625)"/>
      </defs>
      <use xlink:href="#DejaVuSans-70"/>
      <use xlink:href="#DejaVuSans-72" x="63.476562"/>
      <use xlink:href="#DejaVuSans-6f" x="102.339844"/>
      <use xlink:href="#DejaVuSans-70" x="163.521484"/>
      <use xlink:href="#DejaVuSans-6f" x="226.998047"/>
      <use xlink:href="#DejaVuSans-72" x="288.179688"/>
      <use xlink:href="#DejaVuSans-74" x="329.292969"/>
      <use xlink:href="#DejaVuSans-69" x="368.501953"/>
      <use xlink:href="#DejaVuSans-6f" x="396.285156"/>
      <use xlink:href="#DejaVuSans-6e" x="457.466797"/>
      <use xlink:href="#DejaVuSans-20" x="520.845703"/>
      <use xlink:href="#DejaVuSans-6f" x="552.632812"/>
      <use xlink:href="#DejaVuSans-66" x="613.814453"/>
      <use xlink:href="#DejaVuSans-20" x="649.019531"/>
      <use xlink:href="#DejaVuSans-74" x="680.806641"/>
      <use xlink:href="#DejaVuSans-72" x="720.015625"/>
      <use xlink:href="#DejaVuSans-69" x="761.128906"/>
      <use xlink:href="#DejaVuSans-61" x="788.912109"/>
      <use xlink:href="#DejaVuSans-6c" x="850.191406"/>
      <use xlink:href="#DejaVuSans-73" x="877.974609"/>
     </g>
    </g>
   </g>
   <g id="line2d_49">
    <path d="M 9.668714 293.76 
L 9.668714 289.927604 
L 32.296153 289.927604 
L 32.296153 266.933228 
L 45.532356 266.933228 
L 45.532356 263.100832 
L 54.923592 263.100832 
L 54.923592 259.268436 
L 62.208 259.268436 
L 62.208 251.603644 
L 68.159795 251.603644 
L 68.159795 247.771248 
L 73.191966 247.771248 
L 73.191966 236.274059 
L 84.835439 236.274059 
L 84.835439 224.776871 
L 87.946792 224.776871 
L 87.946792 220.944475 
L 93.400188 220.944475 
L 93.400188 209.447287 
L 95.819405 209.447287 
L 95.819405 205.614891 
L 98.071642 205.614891 
L 98.071642 201.782495 
L 100.17847 201.782495 
L 100.17847 197.950099 
L 109.055608 197.950099 
L 109.055608 194.117703 
L 110.57423 194.117703 
L 110.57423 190.285307 
L 112.025336 190.285307 
L 112.025336 186.452911 
L 113.414673 186.452911 
L 113.414673 182.620515 
L 117.25964 182.620515 
L 117.25964 178.788119 
L 120.699081 178.788119 
L 120.699081 174.955723 
L 124.784969 174.955723 
L 124.784969 171.123327 
L 127.545302 171.123327 
L 127.545302 167.290931 
L 130.896395 167.290931 
L 130.896395 163.458535 
L 131.683047 163.458535 
L 131.683047 159.626139 
L 132.451188 159.626139 
L 132.451188 151.961347 
L 133.201669 151.961347 
L 133.201669 148.12895 
L 138.021172 148.12895 
L 138.021172 144.296554 
L 139.887079 144.296554 
L 139.887079 136.631762 
L 140.486078 136.631762 
L 140.486078 128.96697 
L 141.074283 128.96697 
L 141.074283 125.134574 
L 142.219821 125.134574 
L 142.219821 121.302178 
L 149.278315 121.302178 
L 149.278315 117.469782 
L 152.307128 117.469782 
L 152.307128 105.972594 
L 156.92344 105.972594 
L 156.92344 102.140198 
L 160.648611 102.140198 
L 160.648611 98.307802 
L 164.84726 98.307802 
L 164.84726 94.475406 
L 166.49355 94.475406 
L 166.49355 90.64301 
L 168.060786 90.64301 
L 168.060786 86.810614 
L 170.516417 86.810614 
L 170.516417 82.978218 
L 174.518708 82.978218 
L 174.518708 79.145822 
L 178.641502 79.145822 
L 178.641502 75.313426 
L 180.782893 75.313426 
L 180.782893 71.48103 
L 187.192061 71.48103 
L 187.192061 67.648634 
L 233.631608 67.648634 
L 233.631608 63.816238 
L 235.65492 63.816238 
L 235.65492 59.983842 
L 238.398734 59.983842 
L 238.398734 56.151446 
L 241.038971 56.151446 
L 241.038971 52.31905 
L 247.433195 52.31905 
L 247.433195 48.486653 
L 257.959144 48.486653 
L 257.959144 44.654257 
L 265.714379 44.654257 
L 265.714379 40.821861 
L 266.9089 40.821861 
L 266.9089 36.989465 
L 276.58288 36.989465 
L 276.58288 33.157069 
L 278.886485 33.157069 
L 278.886485 29.324673 
L 282.746658 29.324673 
L 282.746658 25.492277 
L 288.843806 25.492277 
L 288.843806 21.659881 
L 294.07087 21.659881 
L 294.07087 17.827485 
L 299.484567 17.827485 
L 299.484567 13.995089 
L 308.695515 13.995089 
L 308.695515 10.162693 
L 319.023176 10.162693 
L 319.023176 6.330297 
L 319.023176 6.330297 
L 460.8 6.330297 
L 460.8 6.330297 
" clip-path="url(#pc251e22324)" style="fill: none; stroke: #000000; stroke-width: 1.5; stroke-linecap: square"/>
   </g>
   <g id="line2d_50">
    <path clip-path="url(#pc251e22324)" style="fill: none; stroke: #000000; stroke-width: 1.5; stroke-linecap: square"/>
   </g>
   <g id="line2d_51">
    <path d="M 157.280214 293.76 
L 157.280214 289.927604 
L 161.904323 289.927604 
L 161.904323 286.095208 
L 170.752118 286.095208 
L 170.752118 282.262812 
L 190.303414 282.262812 
L 190.303414 278.430416 
L 247.900666 278.430416 
L 247.900666 274.59802 
L 252.143489 274.59802 
L 252.143489 270.765624 
L 253.04316 270.765624 
L 253.04316 266.933228 
L 253.955441 266.933228 
L 253.955441 263.100832 
L 257.170115 263.100832 
L 257.170115 259.268436 
L 276.092671 259.268436 
L 276.092671 255.43604 
L 278.343045 255.43604 
L 278.343045 251.603644 
L 278.732138 251.603644 
L 278.732138 247.771248 
L 278.98898 247.771248 
L 278.98898 243.938851 
L 280.780896 243.938851 
L 280.780896 240.106455 
L 293.243832 240.106455 
L 293.243832 236.274059 
L 295.613417 236.274059 
L 295.613417 232.441663 
L 298.528509 232.441663 
L 298.528509 228.609267 
L 299.967997 228.609267 
L 299.967997 224.776871 
L 303.169328 224.776871 
L 303.169328 220.944475 
L 309.287398 220.944475 
L 309.287398 217.112079 
L 310.34867 217.112079 
L 310.34867 213.279683 
L 312.071046 213.279683 
L 312.071046 209.447287 
L 319.274874 209.447287 
L 319.274874 205.614891 
L 320.435646 205.614891 
L 320.435646 201.782495 
L 325.84958 201.782495 
L 325.84958 197.950099 
L 327.138975 197.950099 
L 327.138975 194.117703 
L 329.927348 194.117703 
L 329.927348 190.285307 
L 331.029867 190.285307 
L 331.029867 186.452911 
L 333.730891 186.452911 
L 333.730891 182.620515 
L 348.558104 182.620515 
L 348.558104 178.788119 
L 352.089331 178.788119 
L 352.089331 174.955723 
L 353.680677 174.955723 
L 353.680677 171.123327 
L 354.188095 171.123327 
L 354.188095 167.290931 
L 354.474787 167.290931 
L 354.474787 163.458535 
L 357.381595 163.458535 
L 357.381595 159.626139 
L 359.671099 159.626139 
L 359.671099 155.793743 
L 361.64143 155.793743 
L 361.64143 151.961347 
L 366.666433 151.961347 
L 366.666433 148.12895 
L 370.008011 148.12895 
L 370.008011 144.296554 
L 371.441658 144.296554 
L 371.441658 140.464158 
L 372.371408 140.464158 
L 372.371408 136.631762 
L 372.90202 136.631762 
L 372.90202 132.799366 
L 374.050903 132.799366 
L 374.050903 128.96697 
L 374.337546 128.96697 
L 374.337546 125.134574 
L 374.555567 125.134574 
L 374.555567 121.302178 
L 376.021317 121.302178 
L 376.021317 117.469782 
L 379.142826 117.469782 
L 379.142826 113.637386 
L 380.942689 113.637386 
L 380.942689 109.80499 
L 381.05062 109.80499 
L 381.05062 105.972594 
L 382.877115 105.972594 
L 382.877115 102.140198 
L 383.695331 102.140198 
L 383.695331 98.307802 
L 391.399954 98.307802 
L 391.399954 94.475406 
L 397.794436 94.475406 
L 397.794436 90.64301 
L 419.830981 90.64301 
L 419.830981 86.810614 
L 419.830981 86.810614 
L 419.830981 86.810614 
L 460.8 86.810614 
" clip-path="url(#pc251e22324)" style="fill: none; stroke: #00bfbf; stroke-width: 1.5; stroke-linecap: square"/>
   </g>
   <g id="line2d_52">
    <path clip-path="url(#pc251e22324)" style="fill: none; stroke: #00bfbf; stroke-width: 1.5; stroke-linecap: square"/>
   </g>
   <g id="line2d_53">
    <path d="M 185.29274 293.76 
L 185.29274 289.927604 
L 190.044329 289.927604 
L 190.044329 286.095208 
L 199.951694 286.095208 
L 199.951694 282.262812 
L 206.927405 282.262812 
L 206.927405 278.430416 
L 251.476852 278.430416 
L 251.476852 274.59802 
L 255.880456 274.59802 
L 255.880456 270.765624 
L 256.446708 270.765624 
L 256.446708 266.933228 
L 257.632696 266.933228 
L 257.632696 263.100832 
L 262.045031 263.100832 
L 262.045031 259.268436 
L 279.513469 259.268436 
L 279.513469 255.43604 
L 280.901757 255.43604 
L 280.901757 251.603644 
L 281.150127 251.603644 
L 281.150127 247.771248 
L 281.57831 247.771248 
L 281.57831 243.938851 
L 284.500052 243.938851 
L 284.500052 240.106455 
L 299.959027 240.106455 
L 299.959027 236.274059 
L 300.329256 236.274059 
L 300.329256 232.441663 
L 301.989503 232.441663 
L 301.989503 228.609267 
L 302.574396 228.609267 
L 302.574396 224.776871 
L 310.921196 224.776871 
L 310.921196 220.944475 
L 312.333104 220.944475 
L 312.333104 217.112079 
L 312.947564 217.112079 
L 312.947564 213.279683 
L 316.719793 213.279683 
L 316.719793 209.447287 
L 321.153605 209.447287 
L 321.153605 205.614891 
L 328.603989 205.614891 
L 328.603989 201.782495 
L 329.880741 201.782495 
L 329.880741 197.950099 
L 332.610225 197.950099 
L 332.610225 194.117703 
L 334.431186 194.117703 
L 334.431186 190.285307 
L 351.912603 190.285307 
L 351.912603 186.452911 
L 353.210049 186.452911 
L 353.210049 182.620515 
L 355.101258 182.620515 
L 355.101258 178.788119 
L 355.501415 178.788119 
L 355.501415 174.955723 
L 356.359127 174.955723 
L 356.359127 171.123327 
L 357.062526 171.123327 
L 357.062526 167.290931 
L 359.547709 167.290931 
L 359.547709 163.458535 
L 361.474207 163.458535 
L 361.474207 159.626139 
L 363.074076 159.626139 
L 363.074076 155.793743 
L 374.566978 155.793743 
L 374.566978 151.961347 
L 374.638545 151.961347 
L 374.638545 148.12895 
L 375.383127 148.12895 
L 375.383127 144.296554 
L 375.64158 144.296554 
L 375.64158 140.464158 
L 376.956226 140.464158 
L 376.956226 136.631762 
L 377.066738 136.631762 
L 377.066738 132.799366 
L 377.131769 132.799366 
L 377.131769 128.96697 
L 377.78829 128.96697 
L 377.78829 125.134574 
L 380.193535 125.134574 
L 380.193535 121.302178 
L 383.586467 121.302178 
L 383.586467 117.469782 
L 383.628673 117.469782 
L 383.628673 113.637386 
L 383.808303 113.637386 
L 383.808303 109.80499 
L 386.743734 109.80499 
L 386.743734 105.972594 
L 394.827321 105.972594 
L 394.827321 102.140198 
L 400.927694 102.140198 
L 400.927694 98.307802 
L 420.826948 98.307802 
L 420.826948 94.475406 
L 420.826948 94.475406 
L 420.826948 94.475406 
L 460.8 94.475406 
" clip-path="url(#pc251e22324)" style="fill: none; stroke: #bf00bf; stroke-width: 1.5; stroke-linecap: square"/>
   </g>
   <g id="line2d_54">
    <path clip-path="url(#pc251e22324)" style="fill: none; stroke: #bf00bf; stroke-width: 1.5; stroke-linecap: square"/>
   </g>
   <g id="line2d_55">
    <path d="M 208.9566 293.76 
L 208.9566 289.927604 
L 210.312522 289.927604 
L 210.312522 286.095208 
L 216.473354 286.095208 
L 216.473354 282.262812 
L 218.384249 282.262812 
L 218.384249 278.430416 
L 255.444841 278.430416 
L 255.444841 274.59802 
L 259.882746 274.59802 
L 259.882746 270.765624 
L 260.17238 270.765624 
L 260.17238 266.933228 
L 261.085258 266.933228 
L 261.085258 263.100832 
L 265.106842 263.100832 
L 265.106842 259.268436 
L 281.711954 259.268436 
L 281.711954 255.43604 
L 283.572195 255.43604 
L 283.572195 251.603644 
L 284.167016 251.603644 
L 284.167016 247.771248 
L 284.629451 247.771248 
L 284.629451 243.938851 
L 286.9419 243.938851 
L 286.9419 240.106455 
L 302.270724 240.106455 
L 302.270724 236.274059 
L 302.826 236.274059 
L 302.826 232.441663 
L 305.087823 232.441663 
L 305.087823 228.609267 
L 306.192222 228.609267 
L 306.192222 224.776871 
L 313.915451 224.776871 
L 313.915451 220.944475 
L 315.522248 220.944475 
L 315.522248 217.112079 
L 316.320038 217.112079 
L 316.320038 213.279683 
L 319.435837 213.279683 
L 319.435837 209.447287 
L 322.318452 209.447287 
L 322.318452 205.614891 
L 331.567471 205.614891 
L 331.567471 201.782495 
L 332.492867 201.782495 
L 332.492867 197.950099 
L 335.296583 197.950099 
L 335.296583 194.117703 
L 336.902191 194.117703 
L 336.902191 190.285307 
L 353.935801 190.285307 
L 353.935801 186.452911 
L 354.753959 186.452911 
L 354.753959 182.620515 
L 356.881817 182.620515 
L 356.881817 178.788119 
L 357.260855 178.788119 
L 357.260855 174.955723 
L 358.126264 174.955723 
L 358.126264 171.123327 
L 358.581432 171.123327 
L 358.581432 167.290931 
L 361.214886 167.290931 
L 361.214886 163.458535 
L 362.81805 163.458535 
L 362.81805 159.626139 
L 364.581842 159.626139 
L 364.581842 155.793743 
L 376.195001 155.793743 
L 376.195001 151.961347 
L 376.537044 151.961347 
L 376.537044 148.12895 
L 377.252199 148.12895 
L 377.252199 144.296554 
L 377.364229 144.296554 
L 377.364229 140.464158 
L 378.32182 140.464158 
L 378.32182 136.631762 
L 378.885574 136.631762 
L 378.885574 132.799366 
L 378.939502 132.799366 
L 378.939502 128.96697 
L 379.298736 128.96697 
L 379.298736 125.134574 
L 381.381177 125.134574 
L 381.381177 121.302178 
L 384.633639 121.302178 
L 384.633639 117.469782 
L 384.926335 117.469782 
L 384.926335 113.637386 
L 385.09072 113.637386 
L 385.09072 109.80499 
L 387.970836 109.80499 
L 387.970836 105.972594 
L 396.950045 105.972594 
L 396.950045 102.140198 
L 402.434408 102.140198 
L 402.434408 98.307802 
L 421.899257 98.307802 
L 421.899257 94.475406 
L 421.899257 94.475406 
L 421.899257 94.475406 
L 460.8 94.475406 
" clip-path="url(#pc251e22324)" style="fill: none; stroke: #ff0000; stroke-width: 3; stroke-linecap: square"/>
   </g>
   <g id="line2d_56">
    <path clip-path="url(#pc251e22324)" style="fill: none; stroke: #ff0000; stroke-width: 3; stroke-linecap: square"/>
   </g>
   <g id="line2d_57">
    <path d="M 460.8 293.76 
L 460.8 3.456 
" clip-path="url(#pc251e22324)" style="fill: none; stroke: #000000; stroke-width: 1.5; stroke-linecap: square"/>
   </g>
   <g id="patch_3">
    <path d="M 62.208 293.76 
L 62.208 3.456 
" style="fill: none; stroke: #000000; stroke-width: 0.8; stroke-linejoin: miter; stroke-linecap: square"/>
   </g>
   <g id="patch_4">
    <path d="M 460.8 293.76 
L 460.8 3.456 
" style="fill: none; stroke: #000000; stroke-width: 0.8; stroke-linejoin: miter; stroke-linecap: square"/>
   </g>
   <g id="patch_5">
    <path d="M 62.208 293.76 
L 460.8 293.76 
" style="fill: none; stroke: #000000; stroke-width: 0.8; stroke-linejoin: miter; stroke-linecap: square"/>
   </g>
   <g id="patch_6">
    <path d="M 62.208 3.456 
L 460.8 3.456 
" style="fill: none; stroke: #000000; stroke-width: 0.8; stroke-linejoin: miter; stroke-linecap: square"/>
   </g>
   <g id="text_12">
    <!-- {f20-f24}, 5-D -->
    <g transform="translate(188.654 24.458955)scale(0.2 -0.2)">
     <defs>
      <path id="DejaVuSans-7b" d="M 3272 -594 
L 3272 -1044 
L 3078 -1044 
Q 2300 -1044 2036 -812 
Q 1772 -581 1772 109 
L 1772 856 
Q 1772 1328 1603 1509 
Q 1434 1691 991 1691 
L 800 1691 
L 800 2138 
L 991 2138 
Q 1438 2138 1605 2317 
Q 1772 2497 1772 2963 
L 1772 3713 
Q 1772 4403 2036 4633 
Q 2300 4863 3078 4863 
L 3272 4863 
L 3272 4416 
L 3059 4416 
Q 2619 4416 2484 4278 
Q 2350 4141 2350 3700 
L 2350 2925 
Q 2350 2434 2208 2212 
Q 2066 1991 1722 1913 
Q 2069 1828 2209 1606 
Q 2350 1384 2350 897 
L 2350 122 
Q 2350 -319 2484 -456 
Q 2619 -594 3059 -594 
L 3272 -594 
z
" transform="scale(0.015625)"/>
      <path id="DejaVuSans-2d" d="M 313 2009 
L 1997 2009 
L 1997 1497 
L 313 1497 
L 313 2009 
z
" transform="scale(0.015625)"/>
      <path id="DejaVuSans-7d" d="M 800 -594 
L 1019 -594 
Q 1456 -594 1589 -459 
Q 1722 -325 1722 122 
L 1722 897 
Q 1722 1384 1862 1606 
Q 2003 1828 2350 1913 
Q 2003 1991 1862 2212 
Q 1722 2434 1722 2925 
L 1722 3700 
Q 1722 4144 1589 4280 
Q 1456 4416 1019 4416 
L 800 4416 
L 800 4863 
L 997 4863 
Q 1775 4863 2036 4633 
Q 2297 4403 2297 3713 
L 2297 2963 
Q 2297 2497 2465 2317 
Q 2634 2138 3078 2138 
L 3272 2138 
L 3272 1691 
L 3078 1691 
Q 2634 1691 2465 1509 
Q 2297 1328 2297 856 
L 2297 109 
Q 2297 -581 2036 -812 
Q 1775 -1044 997 -1044 
L 800 -1044 
L 800 -594 
z
" transform="scale(0.015625)"/>
      <path id="DejaVuSans-2c" d="M 750 794 
L 1409 794 
L 1409 256 
L 897 -744 
L 494 -744 
L 750 256 
L 750 794 
z
" transform="scale(0.015625)"/>
      <path id="DejaVuSans-35" d="M 691 4666 
L 3169 4666 
L 3169 4134 
L 1269 4134 
L 1269 2991 
Q 1406 3038 1543 3061 
Q 1681 3084 1819 3084 
Q 2600 3084 3056 2656 
Q 3513 2228 3513 1497 
Q 3513 744 3044 326 
Q 2575 -91 1722 -91 
Q 1428 -91 1123 -41 
Q 819 9 494 109 
L 494 744 
Q 775 591 1075 516 
Q 1375 441 1709 441 
Q 2250 441 2565 725 
Q 2881 1009 2881 1497 
Q 2881 1984 2565 2268 
Q 2250 2553 1709 2553 
Q 1456 2553 1204 2497 
Q 953 2441 691 2322 
L 691 4666 
z
" transform="scale(0.015625)"/>
     </defs>
     <use xlink:href="#DejaVuSans-7b"/>
     <use xlink:href="#DejaVuSans-66" x="63.623047"/>
     <use xlink:href="#DejaVuSans-32" x="98.828125"/>
     <use xlink:href="#DejaVuSans-30" x="162.451172"/>
     <use xlink:href="#DejaVuSans-2d" x="226.074219"/>
     <use xlink:href="#DejaVuSans-66" x="262.158203"/>
     <use xlink:href="#DejaVuSans-32" x="297.363281"/>
     <use xlink:href="#DejaVuSans-34" x="360.986328"/>
     <use xlink:href="#DejaVuSans-7d" x="424.609375"/>
     <use xlink:href="#DejaVuSans-2c" x="488.232422"/>
     <use xlink:href="#DejaVuSans-20" x="520.019531"/>
     <use xlink:href="#DejaVuSans-35" x="551.806641"/>
     <use xlink:href="#DejaVuSans-2d" x="615.429688"/>
     <use xlink:href="#DejaVuSans-44" x="651.513672"/>
    </g>
   </g>
   <g id="text_13">
    <!-- absolute targets -->
    <g transform="translate(62.208 609.932673)scale(0.14 -0.14)">
     <defs>
      <path id="DejaVuSans-62" d="M 3116 1747 
Q 3116 2381 2855 2742 
Q 2594 3103 2138 3103 
Q 1681 3103 1420 2742 
Q 1159 2381 1159 1747 
Q 1159 1113 1420 752 
Q 1681 391 2138 391 
Q 2594 391 2855 752 
Q 3116 1113 3116 1747 
z
M 1159 2969 
Q 1341 3281 1617 3432 
Q 1894 3584 2278 3584 
Q 2916 3584 3314 3078 
Q 3713 2572 3713 1747 
Q 3713 922 3314 415 
Q 2916 -91 2278 -91 
Q 1894 -91 1617 61 
Q 1341 213 1159 525 
L 1159 0 
L 581 0 
L 581 4863 
L 1159 4863 
L 1159 2969 
z
" transform="scale(0.015625)"/>
      <path id="DejaVuSans-75" d="M 544 1381 
L 544 3500 
L 1119 3500 
L 1119 1403 
Q 1119 906 1312 657 
Q 1506 409 1894 409 
Q 2359 409 2629 706 
Q 2900 1003 2900 1516 
L 2900 3500 
L 3475 3500 
L 3475 0 
L 2900 0 
L 2900 538 
Q 2691 219 2414 64 
Q 2138 -91 1772 -91 
Q 1169 -91 856 284 
Q 544 659 544 1381 
z
M 1991 3584 
L 1991 3584 
z
" transform="scale(0.015625)"/>
      <path id="DejaVuSans-65" d="M 3597 1894 
L 3597 1613 
L 953 1613 
Q 991 1019 1311 708 
Q 1631 397 2203 397 
Q 2534 397 2845 478 
Q 3156 559 3463 722 
L 3463 178 
Q 3153 47 2828 -22 
Q 2503 -91 2169 -91 
Q 1331 -91 842 396 
Q 353 884 353 1716 
Q 353 2575 817 3079 
Q 1281 3584 2069 3584 
Q 2775 3584 3186 3129 
Q 3597 2675 3597 1894 
z
M 3022 2063 
Q 3016 2534 2758 2815 
Q 2500 3097 2075 3097 
Q 1594 3097 1305 2825 
Q 1016 2553 972 2059 
L 3022 2063 
z
" transform="scale(0.015625)"/>
     </defs>
     <use xlink:href="#DejaVuSans-61"/>
     <use xlink:href="#DejaVuSans-62" x="61.279297"/>
     <use xlink:href="#DejaVuSans-73" x="124.755859"/>
     <use xlink:href="#DejaVuSans-6f" x="176.855469"/>
     <use xlink:href="#DejaVuSans-6c" x="238.037109"/>
     <use xlink:href="#DejaVuSans-75" x="265.820312"/>
     <use xlink:href="#DejaVuSans-74" x="329.199219"/>
     <use xlink:href="#DejaVuSans-65" x="368.408203"/>
     <use xlink:href="#DejaVuSans-20" x="429.931641"/>
     <use xlink:href="#DejaVuSans-74" x="461.71875"/>
     <use xlink:href="#DejaVuSans-61" x="500.927734"/>
     <use xlink:href="#DejaVuSans-72" x="562.207031"/>
     <use xlink:href="#DejaVuSans-67" x="601.570312"/>
     <use xlink:href="#DejaVuSans-65" x="665.046875"/>
     <use xlink:href="#DejaVuSans-74" x="726.570312"/>
     <use xlink:href="#DejaVuSans-73" x="765.779297"/>
    </g>
   </g>
   <g id="text_14">
    <!-- v2.6.3 -->
    <g style="fill: #808080" transform="translate(245.82275 288.777272)scale(0.1 -0.1)">
     <defs>
      <path id="DejaVuSans-33" d="M 2597 2516 
Q 3050 2419 3304 2112 
Q 3559 1806 3559 1356 
Q 3559 666 3084 287 
Q 2609 -91 1734 -91 
Q 1441 -91 1130 -33 
Q 819 25 488 141 
L 488 750 
Q 750 597 1062 519 
Q 1375 441 1716 441 
Q 2309 441 2620 675 
Q 2931 909 2931 1356 
Q 2931 1769 2642 2001 
Q 2353 2234 1838 2234 
L 1294 2234 
L 1294 2753 
L 1863 2753 
Q 2328 2753 2575 2939 
Q 2822 3125 2822 3475 
Q 2822 3834 2567 4026 
Q 2313 4219 1838 4219 
Q 1578 4219 1281 4162 
Q 984 4106 628 3988 
L 628 4550 
Q 988 4650 1302 4700 
Q 1616 4750 1894 4750 
Q 2613 4750 3031 4423 
Q 3450 4097 3450 3541 
Q 3450 3153 3228 2886 
Q 3006 2619 2597 2516 
z
" transform="scale(0.015625)"/>
     </defs>
     <use xlink:href="#DejaVuSans-76"/>
     <use xlink:href="#DejaVuSans-32" x="59.179688"/>
     <use xlink:href="#DejaVuSans-2e" x="122.802734"/>
     <use xlink:href="#DejaVuSans-36" x="154.589844"/>
     <use xlink:href="#DejaVuSans-2e" x="218.212891"/>
     <use xlink:href="#DejaVuSans-33" x="250"/>
    </g>
   </g>
   <g id="legend_1">
    <g id="patch_7">
     <path d="M 196.893062 136.881 
L 326.114937 136.881 
Q 330.114937 136.881 330.114937 132.881 
L 330.114937 17.456 
Q 330.114937 13.456 326.114937 13.456 
L 196.893062 13.456 
Q 192.893062 13.456 192.893062 17.456 
L 192.893062 132.881 
Q 192.893062 136.881 196.893062 136.881 
z
" style="fill: #ffffff; opacity: 0.2; stroke: #cccccc; stroke-linejoin: miter"/>
    </g>
    <g id="line2d_58">
     <path d="M 200.893062 29.652875 
L 200.893062 29.652875 
L 220.893062 29.652875 
L 220.893062 29.652875 
L 240.893062 29.652875 
" style="fill: none; stroke: #000000; stroke-width: 1.5; stroke-linecap: square"/>
    </g>
    <g id="text_15">
     <!-- 1: 5/5 -->
     <g transform="translate(256.893062 36.652875)scale(0.2 -0.2)">
      <defs>
       <path id="DejaVuSans-3a" d="M 750 794 
L 1409 794 
L 1409 0 
L 750 0 
L 750 794 
z
M 750 3309 
L 1409 3309 
L 1409 2516 
L 750 2516 
L 750 3309 
z
" transform="scale(0.015625)"/>
      </defs>
      <use xlink:href="#DejaVuSans-31"/>
      <use xlink:href="#DejaVuSans-3a" x="63.623047"/>
      <use xlink:href="#DejaVuSans-20" x="97.314453"/>
      <use xlink:href="#DejaVuSans-35" x="129.101562"/>
      <use xlink:href="#DejaVuSans-2f" x="192.724609"/>
      <use xlink:href="#DejaVuSans-35" x="226.416016"/>
     </g>
    </g>
    <g id="line2d_59">
     <path d="M 200.893062 59.009125 
L 200.893062 59.009125 
L 220.893062 59.009125 
L 220.893062 59.009125 
L 240.893062 59.009125 
" style="fill: none; stroke: #00bfbf; stroke-width: 1.5; stroke-linecap: square"/>
    </g>
    <g id="text_16">
     <!-- -1: 4/5 -->
     <g transform="translate(256.893062 66.009125)scale(0.2 -0.2)">
      <use xlink:href="#DejaVuSans-2d"/>
      <use xlink:href="#DejaVuSans-31" x="36.083984"/>
      <use xlink:href="#DejaVuSans-3a" x="99.707031"/>
      <use xlink:href="#DejaVuSans-20" x="133.398438"/>
      <use xlink:href="#DejaVuSans-34" x="165.185547"/>
      <use xlink:href="#DejaVuSans-2f" x="228.808594"/>
      <use xlink:href="#DejaVuSans-35" x="262.5"/>
     </g>
    </g>
    <g id="line2d_60">
     <path d="M 200.893062 88.365375 
L 200.893062 88.365375 
L 220.893062 88.365375 
L 220.893062 88.365375 
L 240.893062 88.365375 
" style="fill: none; stroke: #bf00bf; stroke-width: 1.5; stroke-linecap: square"/>
    </g>
    <g id="text_17">
     <!-- -4: 4/5 -->
     <g transform="translate(256.893062 95.365375)scale(0.2 -0.2)">
      <use xlink:href="#DejaVuSans-2d"/>
      <use xlink:href="#DejaVuSans-34" x="36.083984"/>
      <use xlink:href="#DejaVuSans-3a" x="99.707031"/>
      <use xlink:href="#DejaVuSans-20" x="133.398438"/>
      <use xlink:href="#DejaVuSans-34" x="165.185547"/>
      <use xlink:href="#DejaVuSans-2f" x="228.808594"/>
      <use xlink:href="#DejaVuSans-35" x="262.5"/>
     </g>
    </g>
    <g id="line2d_61">
     <path d="M 200.893062 117.721625 
L 200.893062 117.721625 
L 220.893062 117.721625 
L 220.893062 117.721625 
L 240.893062 117.721625 
" style="fill: none; stroke: #ff0000; stroke-width: 3; stroke-linecap: square"/>
    </g>
    <g id="text_18">
     <!-- -8: 4/5 -->
     <g transform="translate(256.893062 124.721625)scale(0.2 -0.2)">
      <use xlink:href="#DejaVuSans-2d"/>
      <use xlink:href="#DejaVuSans-38" x="36.083984"/>
      <use xlink:href="#DejaVuSans-3a" x="99.707031"/>
      <use xlink:href="#DejaVuSans-20" x="133.398438"/>
      <use xlink:href="#DejaVuSans-34" x="165.185547"/>
      <use xlink:href="#DejaVuSans-2f" x="228.808594"/>
      <use xlink:href="#DejaVuSans-35" x="262.5"/>
     </g>
    </g>
   </g>
  </g>
 </g>
 <defs>
  <clipPath id="pc251e22324">
   <rect x="62.208" y="3.456" width="398.592" height="290.304"/>
  </clipPath>
 </defs>
</svg>
