<?xml version="1.0" encoding="utf-8" standalone="no"?>
<!DOCTYPE svg PUBLIC "-//W3C//DTD SVG 1.1//EN"
  "http://www.w3.org/Graphics/SVG/1.1/DTD/svg11.dtd">
<svg xmlns:xlink="http://www.w3.org/1999/xlink" width="460.8pt" height="345.6pt" viewBox="0 0 460.8 345.6" xmlns="http://www.w3.org/2000/svg" version="1.1">
 <metadata>
  <rdf:RDF xmlns:dc="http://purl.org/dc/elements/1.1/" xmlns:cc="http://creativecommons.org/ns#" xmlns:rdf="http://www.w3.org/1999/02/22-rdf-syntax-ns#">
   <cc:Work>
    <dc:type rdf:resource="http://purl.org/dc/dcmitype/StillImage"/>
    <dc:date>2023-04-07T14:55:26.377920</dc:date>
    <dc:format>image/svg+xml</dc:format>
    <dc:creator>
     <cc:Agent>
      <dc:title>Matplotlib v3.5.2, https://matplotlib.org/</dc:title>
     </cc:Agent>
    </dc:creator>
   </cc:Work>
  </rdf:RDF>
 </metadata>
 <defs>
  <style type="text/css">*{stroke-linejoin: round; stroke-linecap: butt}</style>
 </defs>
 <g id="figure_1">
  <g id="patch_1">
   <path d="M 0 345.6 
L 460.8 345.6 
L 460.8 0 
L 0 0 
z
" style="fill: #ffffff"/>
  </g>
  <g id="axes_1">
   <g id="patch_2">
    <path d="M 0 293.76 
L 460.8 293.76 
L 460.8 3.456 
L 0 3.456 
z
" style="fill: #ffffff"/>
   </g>
   <g id="matplotlib.axis_1">
    <g id="xtick_1">
     <g id="line2d_1">
      <path d="M 103.610286 293.76 
L 103.610286 3.456 
" clip-path="url(#p078d326114)" style="fill: none; stroke: #b0b0b0; stroke-width: 0.8; stroke-linecap: square"/>
     </g>
     <g id="line2d_2">
      <defs>
       <path id="m4982cb9d10" d="M 0 0 
L 0 3.5 
" style="stroke: #000000; stroke-width: 0.8"/>
      </defs>
      <g>
       <use xlink:href="#m4982cb9d10" x="103.610286" y="293.76" style="stroke: #000000; stroke-width: 0.8"/>
      </g>
     </g>
     <g id="text_1">
      <!-- -4 -->
      <g transform="translate(93.639974 315.956875)scale(0.2 -0.2)">
       <defs>
        <path id="DejaVuSans-2d" d="M 313 2009 
L 1997 2009 
L 1997 1497 
L 313 1497 
L 313 2009 
z
" transform="scale(0.015625)"/>
        <path id="DejaVuSans-34" d="M 2419 4116 
L 825 1625 
L 2419 1625 
L 2419 4116 
z
M 2253 4666 
L 3047 4666 
L 3047 1625 
L 3713 1625 
L 3713 1100 
L 3047 1100 
L 3047 0 
L 2419 0 
L 2419 1100 
L 313 1100 
L 313 1709 
L 2253 4666 
z
" transform="scale(0.015625)"/>
       </defs>
       <use xlink:href="#DejaVuSans-2d"/>
       <use xlink:href="#DejaVuSans-34" x="36.083984"/>
      </g>
     </g>
    </g>
    <g id="xtick_2">
     <g id="line2d_3">
      <path d="M 207.332628 293.76 
L 207.332628 3.456 
" clip-path="url(#p078d326114)" style="fill: none; stroke: #b0b0b0; stroke-width: 0.8; stroke-linecap: square"/>
     </g>
     <g id="line2d_4">
      <g>
       <use xlink:href="#m4982cb9d10" x="207.332628" y="293.76" style="stroke: #000000; stroke-width: 0.8"/>
      </g>
     </g>
     <g id="text_2">
      <!-- 0 -->
      <g transform="translate(200.970128 315.956875)scale(0.2 -0.2)">
       <defs>
        <path id="DejaVuSans-30" d="M 2034 4250 
Q 1547 4250 1301 3770 
Q 1056 3291 1056 2328 
Q 1056 1369 1301 889 
Q 1547 409 2034 409 
Q 2525 409 2770 889 
Q 3016 1369 3016 2328 
Q 3016 3291 2770 3770 
Q 2525 4250 2034 4250 
z
M 2034 4750 
Q 2819 4750 3233 4129 
Q 3647 3509 3647 2328 
Q 3647 1150 3233 529 
Q 2819 -91 2034 -91 
Q 1250 -91 836 529 
Q 422 1150 422 2328 
Q 422 3509 836 4129 
Q 1250 4750 2034 4750 
z
" transform="scale(0.015625)"/>
       </defs>
       <use xlink:href="#DejaVuSans-30"/>
      </g>
     </g>
    </g>
    <g id="xtick_3">
     <g id="line2d_5">
      <path d="M 311.05497 293.76 
L 311.05497 3.456 
" clip-path="url(#p078d326114)" style="fill: none; stroke: #b0b0b0; stroke-width: 0.8; stroke-linecap: square"/>
     </g>
     <g id="line2d_6">
      <g>
       <use xlink:href="#m4982cb9d10" x="311.05497" y="293.76" style="stroke: #000000; stroke-width: 0.8"/>
      </g>
     </g>
     <g id="text_3">
      <!-- 4 -->
      <g transform="translate(304.69247 315.956875)scale(0.2 -0.2)">
       <use xlink:href="#DejaVuSans-34"/>
      </g>
     </g>
    </g>
    <g id="xtick_4">
     <g id="line2d_7">
      <path d="M 414.777311 293.76 
L 414.777311 3.456 
" clip-path="url(#p078d326114)" style="fill: none; stroke: #b0b0b0; stroke-width: 0.8; stroke-linecap: square"/>
     </g>
     <g id="line2d_8">
      <g>
       <use xlink:href="#m4982cb9d10" x="414.777311" y="293.76" style="stroke: #000000; stroke-width: 0.8"/>
      </g>
     </g>
     <g id="text_4">
      <!-- 8 -->
      <g transform="translate(408.414811 315.956875)scale(0.2 -0.2)">
       <defs>
        <path id="DejaVuSans-38" d="M 2034 2216 
Q 1584 2216 1326 1975 
Q 1069 1734 1069 1313 
Q 1069 891 1326 650 
Q 1584 409 2034 409 
Q 2484 409 2743 651 
Q 3003 894 3003 1313 
Q 3003 1734 2745 1975 
Q 2488 2216 2034 2216 
z
M 1403 2484 
Q 997 2584 770 2862 
Q 544 3141 544 3541 
Q 544 4100 942 4425 
Q 1341 4750 2034 4750 
Q 2731 4750 3128 4425 
Q 3525 4100 3525 3541 
Q 3525 3141 3298 2862 
Q 3072 2584 2669 2484 
Q 3125 2378 3379 2068 
Q 3634 1759 3634 1313 
Q 3634 634 3220 271 
Q 2806 -91 2034 -91 
Q 1263 -91 848 271 
Q 434 634 434 1313 
Q 434 1759 690 2068 
Q 947 2378 1403 2484 
z
M 1172 3481 
Q 1172 3119 1398 2916 
Q 1625 2713 2034 2713 
Q 2441 2713 2670 2916 
Q 2900 3119 2900 3481 
Q 2900 3844 2670 4047 
Q 2441 4250 2034 4250 
Q 1625 4250 1398 4047 
Q 1172 3844 1172 3481 
z
" transform="scale(0.015625)"/>
       </defs>
       <use xlink:href="#DejaVuSans-38"/>
      </g>
     </g>
    </g>
    <g id="text_5">
     <!-- log10 of Df -->
     <g transform="translate(175.214063 339.313125)scale(0.2 -0.2)">
      <defs>
       <path id="DejaVuSans-6c" d="M 603 4863 
L 1178 4863 
L 1178 0 
L 603 0 
L 603 4863 
z
" transform="scale(0.015625)"/>
       <path id="DejaVuSans-6f" d="M 1959 3097 
Q 1497 3097 1228 2736 
Q 959 2375 959 1747 
Q 959 1119 1226 758 
Q 1494 397 1959 397 
Q 2419 397 2687 759 
Q 2956 1122 2956 1747 
Q 2956 2369 2687 2733 
Q 2419 3097 1959 3097 
z
M 1959 3584 
Q 2709 3584 3137 3096 
Q 3566 2609 3566 1747 
Q 3566 888 3137 398 
Q 2709 -91 1959 -91 
Q 1206 -91 779 398 
Q 353 888 353 1747 
Q 353 2609 779 3096 
Q 1206 3584 1959 3584 
z
" transform="scale(0.015625)"/>
       <path id="DejaVuSans-67" d="M 2906 1791 
Q 2906 2416 2648 2759 
Q 2391 3103 1925 3103 
Q 1463 3103 1205 2759 
Q 947 2416 947 1791 
Q 947 1169 1205 825 
Q 1463 481 1925 481 
Q 2391 481 2648 825 
Q 2906 1169 2906 1791 
z
M 3481 434 
Q 3481 -459 3084 -895 
Q 2688 -1331 1869 -1331 
Q 1566 -1331 1297 -1286 
Q 1028 -1241 775 -1147 
L 775 -588 
Q 1028 -725 1275 -790 
Q 1522 -856 1778 -856 
Q 2344 -856 2625 -561 
Q 2906 -266 2906 331 
L 2906 616 
Q 2728 306 2450 153 
Q 2172 0 1784 0 
Q 1141 0 747 490 
Q 353 981 353 1791 
Q 353 2603 747 3093 
Q 1141 3584 1784 3584 
Q 2172 3584 2450 3431 
Q 2728 3278 2906 2969 
L 2906 3500 
L 3481 3500 
L 3481 434 
z
" transform="scale(0.015625)"/>
       <path id="DejaVuSans-31" d="M 794 531 
L 1825 531 
L 1825 4091 
L 703 3866 
L 703 4441 
L 1819 4666 
L 2450 4666 
L 2450 531 
L 3481 531 
L 3481 0 
L 794 0 
L 794 531 
z
" transform="scale(0.015625)"/>
       <path id="DejaVuSans-20" transform="scale(0.015625)"/>
       <path id="DejaVuSans-66" d="M 2375 4863 
L 2375 4384 
L 1825 4384 
Q 1516 4384 1395 4259 
Q 1275 4134 1275 3809 
L 1275 3500 
L 2222 3500 
L 2222 3053 
L 1275 3053 
L 1275 0 
L 697 0 
L 697 3053 
L 147 3053 
L 147 3500 
L 697 3500 
L 697 3744 
Q 697 4328 969 4595 
Q 1241 4863 1831 4863 
L 2375 4863 
z
" transform="scale(0.015625)"/>
       <path id="DejaVuSans-44" d="M 1259 4147 
L 1259 519 
L 2022 519 
Q 2988 519 3436 956 
Q 3884 1394 3884 2338 
Q 3884 3275 3436 3711 
Q 2988 4147 2022 4147 
L 1259 4147 
z
M 628 4666 
L 1925 4666 
Q 3281 4666 3915 4102 
Q 4550 3538 4550 2338 
Q 4550 1131 3912 565 
Q 3275 0 1925 0 
L 628 0 
L 628 4666 
z
" transform="scale(0.015625)"/>
      </defs>
      <use xlink:href="#DejaVuSans-6c"/>
      <use xlink:href="#DejaVuSans-6f" x="27.783203"/>
      <use xlink:href="#DejaVuSans-67" x="88.964844"/>
      <use xlink:href="#DejaVuSans-31" x="152.441406"/>
      <use xlink:href="#DejaVuSans-30" x="216.064453"/>
      <use xlink:href="#DejaVuSans-20" x="279.6875"/>
      <use xlink:href="#DejaVuSans-6f" x="311.474609"/>
      <use xlink:href="#DejaVuSans-66" x="372.65625"/>
      <use xlink:href="#DejaVuSans-20" x="407.861328"/>
      <use xlink:href="#DejaVuSans-44" x="439.648438"/>
      <use xlink:href="#DejaVuSans-66" x="516.650391"/>
     </g>
    </g>
   </g>
   <g id="matplotlib.axis_2">
    <g id="ytick_1">
     <g id="line2d_9">
      <path d="M 0 293.76 
L 460.8 293.76 
" clip-path="url(#p078d326114)" style="fill: none; stroke: #b0b0b0; stroke-width: 0.8; stroke-linecap: square"/>
     </g>
     <g id="line2d_10">
      <defs>
       <path id="md6ec654135" d="M 0 0 
L -3.5 0 
" style="stroke: #000000; stroke-width: 0.8"/>
      </defs>
      <g>
       <use xlink:href="#md6ec654135" x="0" y="293.76" style="stroke: #000000; stroke-width: 0.8"/>
      </g>
     </g>
    </g>
    <g id="ytick_2">
     <g id="line2d_11">
      <path d="M 0 236.274059 
L 460.8 236.274059 
" clip-path="url(#p078d326114)" style="fill: none; stroke: #b0b0b0; stroke-width: 0.8; stroke-linecap: square"/>
     </g>
     <g id="line2d_12">
      <g>
       <use xlink:href="#md6ec654135" x="0" y="236.274059" style="stroke: #000000; stroke-width: 0.8"/>
      </g>
     </g>
    </g>
    <g id="ytick_3">
     <g id="line2d_13">
      <path d="M 0 178.788119 
L 460.8 178.788119 
" clip-path="url(#p078d326114)" style="fill: none; stroke: #b0b0b0; stroke-width: 0.8; stroke-linecap: square"/>
     </g>
     <g id="line2d_14">
      <g>
       <use xlink:href="#md6ec654135" x="0" y="178.788119" style="stroke: #000000; stroke-width: 0.8"/>
      </g>
     </g>
    </g>
    <g id="ytick_4">
     <g id="line2d_15">
      <path d="M 0 121.302178 
L 460.8 121.302178 
" clip-path="url(#p078d326114)" style="fill: none; stroke: #b0b0b0; stroke-width: 0.8; stroke-linecap: square"/>
     </g>
     <g id="line2d_16">
      <g>
       <use xlink:href="#md6ec654135" x="0" y="121.302178" style="stroke: #000000; stroke-width: 0.8"/>
      </g>
     </g>
    </g>
    <g id="ytick_5">
     <g id="line2d_17">
      <path d="M 0 63.816238 
L 460.8 63.816238 
" clip-path="url(#p078d326114)" style="fill: none; stroke: #b0b0b0; stroke-width: 0.8; stroke-linecap: square"/>
     </g>
     <g id="line2d_18">
      <g>
       <use xlink:href="#md6ec654135" x="0" y="63.816238" style="stroke: #000000; stroke-width: 0.8"/>
      </g>
     </g>
    </g>
    <g id="ytick_6">
     <g id="line2d_19">
      <path d="M 0 6.330297 
L 460.8 6.330297 
" clip-path="url(#p078d326114)" style="fill: none; stroke: #b0b0b0; stroke-width: 0.8; stroke-linecap: square"/>
     </g>
     <g id="line2d_20">
      <g>
       <use xlink:href="#md6ec654135" x="0" y="6.330297" style="stroke: #000000; stroke-width: 0.8"/>
      </g>
     </g>
    </g>
   </g>
   <g id="line2d_21">
    <path d="M -1 259.268436 
L 157.70907 259.268436 
L 157.70907 255.43604 
L 168.329972 255.43604 
L 168.329972 251.603644 
L 171.713025 251.603644 
L 171.713025 247.771248 
L 173.110478 247.771248 
L 173.110478 243.938851 
L 175.501857 243.938851 
L 175.501857 236.274059 
L 180.397526 236.274059 
L 180.397526 232.441663 
L 182.328002 232.441663 
L 182.328002 228.609267 
L 183.114556 228.609267 
L 183.114556 224.776871 
L 183.307741 224.776871 
L 183.326319 194.117703 
L 183.755104 194.117703 
L 183.755104 190.285307 
L 188.72934 190.285307 
L 188.72934 186.452911 
L 191.113625 186.452911 
L 191.113625 182.620515 
L 194.532867 182.620515 
L 194.532867 178.788119 
L 197.796346 178.788119 
L 197.796346 174.955723 
L 203.184156 174.955723 
L 203.184156 125.134574 
L 205.746987 125.134574 
L 205.746987 121.302178 
L 208.172736 121.302178 
L 208.172736 117.469782 
L 209.741498 117.469782 
L 209.802736 109.80499 
L 210.093159 109.80499 
L 210.093159 105.972594 
L 210.753571 105.972594 
L 210.753571 102.140198 
L 211.273601 102.140198 
L 211.273601 98.307802 
L 212.362169 98.307802 
L 212.362169 94.475406 
L 213.121376 94.475406 
L 213.121376 90.64301 
L 213.970868 90.64301 
L 213.970868 86.810614 
L 214.782371 86.810614 
L 214.882227 75.313426 
L 215.135048 75.313426 
L 215.135048 71.48103 
L 218.052114 71.48103 
L 218.052114 63.816238 
L 221.07093 63.816238 
L 221.07093 59.983842 
L 225.597754 59.983842 
L 225.597754 56.151446 
L 236.362313 56.151446 
L 236.362313 52.31905 
L 236.652497 52.31905 
L 236.652497 48.486653 
L 237.223279 48.486653 
L 237.223279 44.654257 
L 239.305531 44.654257 
L 239.305531 40.821861 
L 241.173332 40.821861 
L 241.273436 17.827485 
L 241.291953 17.827485 
L 241.339505 6.330297 
L 241.339505 6.330297 
L 460.8 6.330297 
L 460.8 6.330297 
" clip-path="url(#p078d326114)" style="fill: none; stroke: #ff0000; stroke-width: 3; stroke-linecap: square"/>
   </g>
   <g id="line2d_22">
    <path d="M 227.010029 293.76 
L 227.010029 289.927604 
L 227.154672 289.927604 
L 227.154672 286.095208 
L 227.329779 286.095208 
L 227.365597 278.430416 
L 229.256688 278.430416 
L 229.256688 274.59802 
L 229.943147 274.59802 
L 229.943147 270.765624 
L 230.400246 270.765624 
L 230.400246 266.933228 
L 232.550955 266.933228 
L 232.550955 263.100832 
L 232.807366 263.100832 
L 232.807366 259.268436 
L 233.006257 259.268436 
L 233.006257 255.43604 
L 233.184742 255.43604 
L 233.184742 251.603644 
L 233.313066 251.603644 
L 233.420656 243.938851 
L 234.066163 243.938851 
L 234.066163 240.106455 
L 236.075056 240.106455 
L 236.075056 236.274059 
L 254.104493 236.274059 
L 254.104493 232.441663 
L 255.571901 232.441663 
L 255.631775 209.447287 
L 255.735489 209.447287 
L 255.735489 205.614891 
L 255.864275 205.614891 
L 255.945059 194.117703 
L 256.118514 194.117703 
L 256.13594 186.452911 
L 256.249439 186.452911 
L 256.272322 178.788119 
L 256.361751 178.788119 
L 256.467732 163.458535 
L 256.518989 163.458535 
L 256.556269 155.793743 
L 256.688408 155.793743 
L 256.688408 151.961347 
L 256.880651 151.961347 
L 256.96448 128.96697 
L 257.071464 128.96697 
L 257.071464 125.134574 
L 257.187282 125.134574 
L 257.187282 121.302178 
L 271.53633 121.302178 
L 271.53633 117.469782 
L 271.871013 117.469782 
L 271.958621 109.80499 
L 272.047599 109.80499 
L 272.097698 102.140198 
L 272.181853 102.140198 
L 272.181853 98.307802 
L 272.303209 98.307802 
L 272.303209 94.475406 
L 272.417057 94.475406 
L 272.417057 90.64301 
L 272.540215 90.64301 
L 272.540215 86.810614 
L 272.664506 86.810614 
L 272.664506 82.978218 
L 273.049829 82.978218 
L 273.049829 79.145822 
L 273.181818 79.145822 
L 273.24057 71.48103 
L 273.347306 71.48103 
L 273.347306 67.648634 
L 274.263621 67.648634 
L 274.263621 63.816238 
L 310.273625 63.816238 
L 310.303771 56.151446 
L 314.585174 56.151446 
L 314.585174 52.31905 
L 317.016826 52.31905 
L 317.016826 48.486653 
L 317.872546 48.486653 
L 317.872546 6.330297 
L 317.872546 6.330297 
L 460.8 6.330297 
L 460.8 6.330297 
" clip-path="url(#p078d326114)" style="fill: none; stroke: #00bfbf; stroke-width: 1.5; stroke-linecap: square"/>
   </g>
   <g id="line2d_23">
    <path d="M 224.832773 293.76 
L 224.832773 289.927604 
L 227.010029 289.927604 
L 227.010029 286.095208 
L 227.154672 286.095208 
L 227.154672 282.262812 
L 227.300374 282.262812 
L 227.329779 274.59802 
L 227.497809 274.59802 
L 227.497809 270.765624 
L 228.107949 270.765624 
L 228.206251 263.100832 
L 228.691887 263.100832 
L 228.697089 255.43604 
L 231.882126 255.43604 
L 231.882126 251.603644 
L 232.470428 251.603644 
L 232.470428 247.771248 
L 232.66635 247.771248 
L 232.66635 243.938851 
L 233.006257 243.938851 
L 233.046001 236.274059 
L 254.104493 236.274059 
L 254.104493 232.441663 
L 254.856203 232.441663 
L 254.947262 220.944475 
L 255.240206 220.944475 
L 255.240206 217.112079 
L 255.432061 217.112079 
L 255.432061 213.279683 
L 255.583304 213.279683 
L 255.64025 194.117703 
L 255.698669 194.117703 
L 255.735489 186.452911 
L 255.904031 186.452911 
L 255.979852 174.955723 
L 256.09556 174.955723 
L 256.198244 163.458535 
L 256.207912 163.458535 
L 256.315131 148.12895 
L 256.409621 148.12895 
L 256.473043 136.631762 
L 256.640205 136.631762 
L 256.640205 132.799366 
L 256.898519 132.799366 
L 256.96448 125.134574 
L 257.1496 125.134574 
L 257.1496 121.302178 
L 271.53633 121.302178 
L 271.641376 113.637386 
L 271.871013 113.637386 
L 271.958621 105.972594 
L 272.047599 105.972594 
L 272.097698 98.307802 
L 272.181853 98.307802 
L 272.181853 94.475406 
L 272.303209 94.475406 
L 272.303209 90.64301 
L 272.417057 90.64301 
L 272.417057 86.810614 
L 272.540215 86.810614 
L 272.540215 82.978218 
L 273.049829 82.978218 
L 273.049829 79.145822 
L 273.181818 79.145822 
L 273.24057 71.48103 
L 273.347306 71.48103 
L 273.347306 67.648634 
L 274.263621 67.648634 
L 274.263621 63.816238 
L 296.767838 63.816238 
L 296.767838 59.983842 
L 310.273625 59.983842 
L 310.273625 56.151446 
L 314.585174 56.151446 
L 314.585174 52.31905 
L 315.063419 52.31905 
L 315.063419 48.486653 
L 316.901878 48.486653 
L 316.901878 44.654257 
L 317.016826 44.654257 
L 317.016826 40.821861 
L 317.16689 40.821861 
L 317.16689 36.989465 
L 317.872546 36.989465 
L 317.872546 6.330297 
L 317.872546 6.330297 
L 460.8 6.330297 
L 460.8 6.330297 
" clip-path="url(#p078d326114)" style="fill: none; stroke: #bf00bf; stroke-width: 1.5; stroke-linecap: square"/>
   </g>
   <g id="line2d_24">
    <path d="M 224.589647 293.76 
L 224.589647 289.927604 
L 224.832773 289.927604 
L 224.832773 286.095208 
L 226.502233 286.095208 
L 226.502233 282.262812 
L 226.903266 282.262812 
L 226.903266 278.430416 
L 227.300374 278.430416 
L 227.329779 270.765624 
L 228.107949 270.765624 
L 228.206251 263.100832 
L 228.524463 263.100832 
L 228.524463 259.268436 
L 228.691887 259.268436 
L 228.697089 251.603644 
L 229.351858 251.603644 
L 229.351858 247.771248 
L 229.474987 247.771248 
L 229.474987 243.938851 
L 229.679532 243.938851 
L 229.679532 240.106455 
L 230.968992 240.106455 
L 230.968992 236.274059 
L 251.016088 236.274059 
L 251.016088 232.441663 
L 253.382123 232.441663 
L 253.382123 228.609267 
L 254.104493 228.609267 
L 254.104493 224.776871 
L 254.278881 224.776871 
L 254.278881 220.944475 
L 254.740943 220.944475 
L 254.74218 209.447287 
L 254.856203 209.447287 
L 254.947262 201.782495 
L 255.085037 201.782495 
L 255.141334 194.117703 
L 255.206164 194.117703 
L 255.233038 182.620515 
L 255.391457 182.620515 
L 255.45804 171.123327 
L 255.549502 171.123327 
L 255.636301 155.793743 
L 255.687577 155.793743 
L 255.798591 144.296554 
L 255.864282 144.296554 
L 255.963323 136.631762 
L 256.093858 136.631762 
L 256.194279 125.134574 
L 256.255017 125.134574 
L 256.255017 121.302178 
L 271.53633 121.302178 
L 271.641376 105.972594 
L 271.743968 105.972594 
L 271.743968 102.140198 
L 271.871013 102.140198 
L 271.958621 90.64301 
L 272.01597 90.64301 
L 272.047599 82.978218 
L 272.303209 82.978218 
L 272.350462 75.313426 
L 272.514315 75.313426 
L 272.514315 71.48103 
L 273.24057 71.48103 
L 273.243034 63.816238 
L 296.767838 63.816238 
L 296.767838 59.983842 
L 297.333623 59.983842 
L 297.333623 56.151446 
L 298.756512 56.151446 
L 298.756512 52.31905 
L 303.516551 52.31905 
L 303.516551 48.486653 
L 309.056237 48.486653 
L 309.056237 44.654257 
L 309.444656 44.654257 
L 309.444656 40.821861 
L 310.957944 40.821861 
L 310.957944 36.989465 
L 313.451153 36.989465 
L 313.451153 33.157069 
L 314.585174 33.157069 
L 314.585174 29.324673 
L 315.602371 29.324673 
L 315.602371 25.492277 
L 316.901878 25.492277 
L 316.901878 21.659881 
L 317.399128 21.659881 
L 317.399128 17.827485 
L 317.800606 17.827485 
L 317.872546 6.330297 
L 317.872546 6.330297 
L 460.8 6.330297 
L 460.8 6.330297 
" clip-path="url(#p078d326114)" style="fill: none; stroke: #000000; stroke-width: 1.5; stroke-linecap: square"/>
   </g>
   <g id="line2d_25">
    <path d="M 223.052374 293.76 
L 223.052374 289.927604 
L 223.3669 289.927604 
L 223.3669 286.095208 
L 224.178098 286.095208 
L 224.178098 282.262812 
L 224.589647 282.262812 
L 224.589647 278.430416 
L 224.832773 278.430416 
L 224.832773 274.59802 
L 225.181718 274.59802 
L 225.181718 270.765624 
L 226.200905 270.765624 
L 226.200905 266.933228 
L 226.411692 266.933228 
L 226.411692 263.100832 
L 226.728463 263.100832 
L 226.728463 259.268436 
L 226.903266 259.268436 
L 226.903266 255.43604 
L 227.329779 255.43604 
L 227.329779 251.603644 
L 227.644958 251.603644 
L 227.653042 243.938851 
L 227.756208 243.938851 
L 227.756208 240.106455 
L 227.943268 240.106455 
L 227.943268 236.274059 
L 235.979968 236.274059 
L 235.979968 232.441663 
L 238.415976 232.441663 
L 238.415976 228.609267 
L 239.06532 228.609267 
L 239.06532 224.776871 
L 241.132889 224.776871 
L 241.132889 220.944475 
L 241.517678 220.944475 
L 241.517678 217.112079 
L 243.849511 217.112079 
L 243.849511 213.279683 
L 244.810914 213.279683 
L 244.810914 209.447287 
L 244.969227 209.447287 
L 244.969227 205.614891 
L 247.047715 205.614891 
L 247.047715 201.782495 
L 247.746928 201.782495 
L 247.7544 194.117703 
L 248.467566 194.117703 
L 248.467566 190.285307 
L 248.762053 190.285307 
L 248.85656 182.620515 
L 249.118175 182.620515 
L 249.118175 178.788119 
L 249.84332 178.788119 
L 249.912781 167.290931 
L 250.262777 167.290931 
L 250.262777 163.458535 
L 250.727052 163.458535 
L 250.78883 155.793743 
L 251.014441 155.793743 
L 251.014441 151.961347 
L 251.66749 151.961347 
L 251.66749 148.12895 
L 251.966898 148.12895 
L 251.966898 144.296554 
L 252.689684 144.296554 
L 252.689684 140.464158 
L 253.367626 140.464158 
L 253.380274 132.799366 
L 253.848834 132.799366 
L 253.848834 128.96697 
L 254.252828 128.96697 
L 254.252828 125.134574 
L 254.477863 125.134574 
L 254.477863 121.302178 
L 255.046441 121.302178 
L 255.046441 117.469782 
L 265.194215 117.469782 
L 265.194215 113.637386 
L 266.920828 113.637386 
L 266.975243 105.972594 
L 268.076224 105.972594 
L 268.076224 102.140198 
L 268.503909 102.140198 
L 268.503909 98.307802 
L 268.690416 98.307802 
L 268.800097 86.810614 
L 269.075437 86.810614 
L 269.131645 75.313426 
L 269.196575 75.313426 
L 269.29503 67.648634 
L 269.494084 67.648634 
L 269.494084 63.816238 
L 270.125838 63.816238 
L 270.125838 59.983842 
L 270.333351 59.983842 
L 270.40308 52.31905 
L 272.614389 52.31905 
L 272.614389 48.486653 
L 274.679809 48.486653 
L 274.679809 44.654257 
L 284.082398 44.654257 
L 284.082398 40.821861 
L 285.881657 40.821861 
L 285.881657 36.989465 
L 287.480244 36.989465 
L 287.480244 33.157069 
L 289.789952 33.157069 
L 289.789952 29.324673 
L 291.217015 29.324673 
L 291.217015 25.492277 
L 292.952497 25.492277 
L 292.952497 21.659881 
L 295.933474 21.659881 
L 295.933474 17.827485 
L 297.310497 17.827485 
L 297.310497 13.995089 
L 304.218103 13.995089 
L 304.218103 10.162693 
L 310.609951 10.162693 
L 310.609951 6.330297 
L 310.609951 6.330297 
L 460.8 6.330297 
L 460.8 6.330297 
" clip-path="url(#p078d326114)" style="fill: none; stroke: #00bfbf; stroke-width: 1.5; stroke-linecap: square"/>
   </g>
   <g id="line2d_26">
    <path d="M -1 289.927604 
L 12.22391 289.927604 
L 12.22391 286.095208 
L 38.201223 286.095208 
L 38.201223 282.262812 
L 52.292989 282.262812 
L 52.292989 278.430416 
L 203.184204 278.430416 
L 203.184236 270.765624 
L 212.518772 270.765624 
L 212.518772 266.933228 
L 212.844619 266.933228 
L 212.844619 263.100832 
L 213.03898 263.100832 
L 213.03898 259.268436 
L 213.19149 259.268436 
L 213.19149 255.43604 
L 213.625752 255.43604 
L 213.625752 251.603644 
L 213.812902 251.603644 
L 213.812902 247.771248 
L 213.963648 247.771248 
L 213.963648 243.938851 
L 214.587676 243.938851 
L 214.587676 240.106455 
L 214.882242 240.106455 
L 214.9779 228.609267 
L 215.057988 228.609267 
L 215.057988 224.776871 
L 215.787475 224.776871 
L 215.787475 220.944475 
L 216.078115 220.944475 
L 216.078115 217.112079 
L 216.308555 217.112079 
L 216.380241 205.614891 
L 216.58352 205.614891 
L 216.58352 201.782495 
L 217.721007 201.782495 
L 217.721007 197.950099 
L 218.052127 197.950099 
L 218.054525 182.620515 
L 219.021736 182.620515 
L 219.021736 178.788119 
L 220.254476 178.788119 
L 220.324785 171.123327 
L 221.13074 171.123327 
L 221.13074 167.290931 
L 221.798209 167.290931 
L 221.798209 163.458535 
L 221.922806 163.458535 
L 221.922806 159.626139 
L 222.196634 159.626139 
L 222.196634 155.793743 
L 222.449392 155.793743 
L 222.449392 151.961347 
L 222.583549 151.961347 
L 222.583549 148.12895 
L 223.096404 148.12895 
L 223.113029 136.631762 
L 223.3669 136.631762 
L 223.3669 132.799366 
L 223.598685 132.799366 
L 223.598685 128.96697 
L 224.793761 128.96697 
L 224.793761 125.134574 
L 225.06671 125.134574 
L 225.06671 121.302178 
L 225.597862 121.302178 
L 225.598375 109.80499 
L 227.969056 109.80499 
L 227.969056 105.972594 
L 229.675262 105.972594 
L 229.675262 102.140198 
L 230.922831 102.140198 
L 230.922831 98.307802 
L 231.727356 98.307802 
L 231.727356 94.475406 
L 234.31069 94.475406 
L 234.31069 90.64301 
L 234.464448 90.64301 
L 234.464448 86.810614 
L 236.091265 86.810614 
L 236.091265 82.978218 
L 237.801297 82.978218 
L 237.801297 79.145822 
L 242.028982 79.145822 
L 242.029328 71.48103 
L 243.794868 71.48103 
L 243.794868 67.648634 
L 251.73863 67.648634 
L 251.73863 63.816238 
L 262.633207 63.816238 
L 262.742056 56.151446 
L 262.978873 56.151446 
L 262.978873 52.31905 
L 263.205467 52.31905 
L 263.205467 48.486653 
L 263.33095 48.486653 
L 263.33095 44.654257 
L 263.741294 44.654257 
L 263.805125 36.989465 
L 264.019973 36.989465 
L 264.019973 33.157069 
L 264.160721 33.157069 
L 264.160721 29.324673 
L 264.455378 29.324673 
L 264.455378 25.492277 
L 264.579535 25.492277 
L 264.62003 17.827485 
L 264.749031 17.827485 
L 264.749031 13.995089 
L 264.985508 13.995089 
L 264.985508 10.162693 
L 265.471156 10.162693 
L 265.471156 6.330297 
L 265.471156 6.330297 
L 460.8 6.330297 
L 460.8 6.330297 
" clip-path="url(#p078d326114)" style="fill: none; stroke: #bf00bf; stroke-width: 1.5; stroke-linecap: square"/>
   </g>
   <g id="line2d_27">
    <path d="M -1 270.765624 
L 173.110478 270.765624 
L 173.110478 266.933228 
L 183.326323 266.933228 
L 183.326323 263.100832 
L 194.541961 263.100832 
L 194.541961 259.268436 
L 203.184156 259.268436 
L 203.184156 228.609267 
L 204.350304 228.609267 
L 204.350304 224.776871 
L 209.886983 224.776871 
L 209.886983 220.944475 
L 211.055208 220.944475 
L 211.055208 217.112079 
L 211.901093 217.112079 
L 211.901093 213.279683 
L 212.121142 213.279683 
L 212.121142 209.447287 
L 212.265857 209.447287 
L 212.362169 201.782495 
L 212.416581 201.782495 
L 212.416581 197.950099 
L 212.825628 197.950099 
L 212.825628 194.117703 
L 213.028148 194.117703 
L 213.029037 186.452911 
L 213.615723 186.452911 
L 213.615723 182.620515 
L 214.294614 182.620515 
L 214.294614 178.788119 
L 214.532221 178.788119 
L 214.532221 174.955723 
L 214.706545 174.955723 
L 214.782371 167.290931 
L 214.879561 167.290931 
L 214.882227 159.626139 
L 215.135048 159.626139 
L 215.135048 155.793743 
L 215.381712 155.793743 
L 215.381712 151.961347 
L 215.595908 151.961347 
L 215.595908 148.12895 
L 215.787454 148.12895 
L 215.787454 144.296554 
L 216.016396 144.296554 
L 216.016396 140.464158 
L 216.160859 140.464158 
L 216.160859 136.631762 
L 216.343672 136.631762 
L 216.343672 132.799366 
L 216.613176 132.799366 
L 216.613176 128.96697 
L 217.52904 128.96697 
L 217.52904 125.134574 
L 217.721007 125.134574 
L 217.731444 117.469782 
L 218.052114 117.469782 
L 218.052114 98.307802 
L 218.51172 98.307802 
L 218.51172 94.475406 
L 218.985947 94.475406 
L 218.985947 90.64301 
L 219.472913 90.64301 
L 219.472913 86.810614 
L 219.87839 86.810614 
L 219.87839 82.978218 
L 220.254476 82.978218 
L 220.254476 79.145822 
L 225.597754 79.145822 
L 225.597754 71.48103 
L 230.922786 71.48103 
L 230.922786 67.648634 
L 241.979842 67.648634 
L 241.979842 63.816238 
L 243.794854 63.816238 
L 243.794854 59.983842 
L 250.220127 59.983842 
L 250.220127 56.151446 
L 250.551043 56.151446 
L 250.551043 52.31905 
L 252.156557 52.31905 
L 252.156557 48.486653 
L 252.745025 48.486653 
L 252.804416 40.821861 
L 252.959381 40.821861 
L 253.055256 33.157069 
L 253.45266 33.157069 
L 253.45266 29.324673 
L 255.234296 29.324673 
L 255.234296 25.492277 
L 256.684441 25.492277 
L 256.684441 21.659881 
L 260.923259 21.659881 
L 260.949662 13.995089 
L 261.384894 13.995089 
L 261.490945 6.330297 
L 261.490945 6.330297 
L 460.8 6.330297 
L 460.8 6.330297 
" clip-path="url(#p078d326114)" style="fill: none; stroke: #000000; stroke-width: 1.5; stroke-linecap: square"/>
   </g>
   <g id="line2d_28">
    <path d="M -1 270.765624 
L 157.70907 270.765624 
L 157.70907 266.933228 
L 168.329972 266.933228 
L 168.329972 263.100832 
L 171.713025 263.100832 
L 171.713025 259.268436 
L 173.110478 259.268436 
L 173.110478 255.43604 
L 183.326319 255.43604 
L 183.326319 251.603644 
L 183.755104 251.603644 
L 183.755104 247.771248 
L 188.72934 247.771248 
L 188.72934 243.938851 
L 194.532867 243.938851 
L 194.532867 240.106455 
L 197.796346 240.106455 
L 197.796346 236.274059 
L 202.675267 236.274059 
L 202.721401 228.609267 
L 203.184156 228.609267 
L 203.184158 186.452911 
L 203.96763 186.452911 
L 203.96763 182.620515 
L 204.672254 182.620515 
L 204.672254 178.788119 
L 205.087152 178.788119 
L 205.087152 174.955723 
L 205.441969 174.955723 
L 205.441969 171.123327 
L 206.169002 171.123327 
L 206.169002 167.290931 
L 206.778123 167.290931 
L 206.778123 163.458535 
L 207.297459 163.458535 
L 207.390762 151.961347 
L 208.155786 151.961347 
L 208.155786 148.12895 
L 208.953461 148.12895 
L 208.953461 144.296554 
L 211.260322 144.296554 
L 211.260322 140.464158 
L 211.67635 140.464158 
L 211.67635 136.631762 
L 212.362169 136.631762 
L 212.362169 132.799366 
L 213.814056 132.799366 
L 213.814056 128.96697 
L 213.970868 128.96697 
L 213.970868 125.134574 
L 214.782371 125.134574 
L 214.882227 109.80499 
L 215.135048 109.80499 
L 215.135048 105.972594 
L 215.381712 105.972594 
L 215.381712 102.140198 
L 215.522209 102.140198 
L 215.571829 94.475406 
L 215.821335 94.475406 
L 215.821335 90.64301 
L 216.153654 90.64301 
L 216.153654 86.810614 
L 218.052114 86.810614 
L 218.052114 71.48103 
L 221.07093 71.48103 
L 221.07093 67.648634 
L 224.79335 67.648634 
L 224.79335 63.816238 
L 225.597754 63.816238 
L 225.597754 59.983842 
L 236.362313 59.983842 
L 236.362313 56.151446 
L 236.652497 56.151446 
L 236.652497 52.31905 
L 237.223279 52.31905 
L 237.223279 48.486653 
L 239.305531 48.486653 
L 239.305531 44.654257 
L 241.979842 44.654257 
L 241.979842 40.821861 
L 242.609677 40.821861 
L 242.609677 36.989465 
L 242.85764 36.989465 
L 242.85764 33.157069 
L 243.517054 33.157069 
L 243.617255 25.492277 
L 243.793299 25.492277 
L 243.793299 21.659881 
L 244.853558 21.659881 
L 244.853558 17.827485 
L 245.737086 17.827485 
L 245.737086 13.995089 
L 246.967825 13.995089 
L 246.967825 10.162693 
L 259.023034 10.162693 
L 259.023034 6.330297 
L 259.023034 6.330297 
L 460.8 6.330297 
L 460.8 6.330297 
" clip-path="url(#p078d326114)" style="fill: none; stroke: #00bfbf; stroke-width: 1.5; stroke-linecap: square"/>
   </g>
   <g id="line2d_29">
    <path d="M -1 259.268436 
L 157.70907 259.268436 
L 157.70907 255.43604 
L 168.329972 255.43604 
L 168.329972 251.603644 
L 171.713025 251.603644 
L 171.713025 247.771248 
L 173.110478 247.771248 
L 173.110478 243.938851 
L 175.501857 243.938851 
L 175.501857 236.274059 
L 182.328002 236.274059 
L 182.328002 232.441663 
L 183.307741 232.441663 
L 183.326319 197.950099 
L 183.755104 197.950099 
L 183.755104 194.117703 
L 187.87389 194.117703 
L 187.87389 190.285307 
L 188.72934 190.285307 
L 188.72934 186.452911 
L 191.113625 186.452911 
L 191.113625 182.620515 
L 194.532867 182.620515 
L 194.532867 178.788119 
L 197.796346 178.788119 
L 197.796346 174.955723 
L 203.184156 174.955723 
L 203.184156 125.134574 
L 205.746987 125.134574 
L 205.746987 121.302178 
L 209.230943 121.302178 
L 209.230943 117.469782 
L 209.741498 117.469782 
L 209.802736 109.80499 
L 210.093159 109.80499 
L 210.093159 105.972594 
L 210.753571 105.972594 
L 210.753571 102.140198 
L 212.362169 102.140198 
L 212.362169 98.307802 
L 212.868771 98.307802 
L 212.868771 94.475406 
L 213.121376 94.475406 
L 213.121376 90.64301 
L 213.970868 90.64301 
L 213.970868 86.810614 
L 214.782371 86.810614 
L 214.882227 75.313426 
L 215.135048 75.313426 
L 215.135048 71.48103 
L 218.052114 71.48103 
L 218.052114 63.816238 
L 221.07093 63.816238 
L 221.07093 59.983842 
L 225.597754 59.983842 
L 225.597754 56.151446 
L 236.362313 56.151446 
L 236.362313 52.31905 
L 236.652497 52.31905 
L 236.652497 48.486653 
L 237.223279 48.486653 
L 237.223279 44.654257 
L 239.305531 44.654257 
L 239.305531 40.821861 
L 241.209873 40.821861 
L 241.291953 21.659881 
L 241.37815 21.659881 
L 241.42829 10.162693 
L 241.500488 10.162693 
L 241.500488 6.330297 
L 241.500488 6.330297 
L 460.8 6.330297 
L 460.8 6.330297 
" clip-path="url(#p078d326114)" style="fill: none; stroke: #bf00bf; stroke-width: 1.5; stroke-linecap: square"/>
   </g>
   <g id="patch_3">
    <path d="M 0 293.76 
L 0 3.456 
" style="fill: none; stroke: #000000; stroke-width: 0.8; stroke-linejoin: miter; stroke-linecap: square"/>
   </g>
   <g id="patch_4">
    <path d="M 460.8 293.76 
L 460.8 3.456 
" style="fill: none; stroke: #000000; stroke-width: 0.8; stroke-linejoin: miter; stroke-linecap: square"/>
   </g>
   <g id="patch_5">
    <path d="M 0 293.76 
L 460.8 293.76 
" style="fill: none; stroke: #000000; stroke-width: 0.8; stroke-linejoin: miter; stroke-linecap: square"/>
   </g>
   <g id="patch_6">
    <path d="M 0 3.456 
L 460.8 3.456 
" style="fill: none; stroke: #000000; stroke-width: 0.8; stroke-linejoin: miter; stroke-linecap: square"/>
   </g>
   <g id="text_6">
    <!-- {f20-f24}, 20-D -->
    <g transform="translate(293.159 287.95392)scale(0.2 -0.2)">
     <defs>
      <path id="DejaVuSans-7b" d="M 3272 -594 
L 3272 -1044 
L 3078 -1044 
Q 2300 -1044 2036 -812 
Q 1772 -581 1772 109 
L 1772 856 
Q 1772 1328 1603 1509 
Q 1434 1691 991 1691 
L 800 1691 
L 800 2138 
L 991 2138 
Q 1438 2138 1605 2317 
Q 1772 2497 1772 2963 
L 1772 3713 
Q 1772 4403 2036 4633 
Q 2300 4863 3078 4863 
L 3272 4863 
L 3272 4416 
L 3059 4416 
Q 2619 4416 2484 4278 
Q 2350 4141 2350 3700 
L 2350 2925 
Q 2350 2434 2208 2212 
Q 2066 1991 1722 1913 
Q 2069 1828 2209 1606 
Q 2350 1384 2350 897 
L 2350 122 
Q 2350 -319 2484 -456 
Q 2619 -594 3059 -594 
L 3272 -594 
z
" transform="scale(0.015625)"/>
      <path id="DejaVuSans-32" d="M 1228 531 
L 3431 531 
L 3431 0 
L 469 0 
L 469 531 
Q 828 903 1448 1529 
Q 2069 2156 2228 2338 
Q 2531 2678 2651 2914 
Q 2772 3150 2772 3378 
Q 2772 3750 2511 3984 
Q 2250 4219 1831 4219 
Q 1534 4219 1204 4116 
Q 875 4013 500 3803 
L 500 4441 
Q 881 4594 1212 4672 
Q 1544 4750 1819 4750 
Q 2544 4750 2975 4387 
Q 3406 4025 3406 3419 
Q 3406 3131 3298 2873 
Q 3191 2616 2906 2266 
Q 2828 2175 2409 1742 
Q 1991 1309 1228 531 
z
" transform="scale(0.015625)"/>
      <path id="DejaVuSans-7d" d="M 800 -594 
L 1019 -594 
Q 1456 -594 1589 -459 
Q 1722 -325 1722 122 
L 1722 897 
Q 1722 1384 1862 1606 
Q 2003 1828 2350 1913 
Q 2003 1991 1862 2212 
Q 1722 2434 1722 2925 
L 1722 3700 
Q 1722 4144 1589 4280 
Q 1456 4416 1019 4416 
L 800 4416 
L 800 4863 
L 997 4863 
Q 1775 4863 2036 4633 
Q 2297 4403 2297 3713 
L 2297 2963 
Q 2297 2497 2465 2317 
Q 2634 2138 3078 2138 
L 3272 2138 
L 3272 1691 
L 3078 1691 
Q 2634 1691 2465 1509 
Q 2297 1328 2297 856 
L 2297 109 
Q 2297 -581 2036 -812 
Q 1775 -1044 997 -1044 
L 800 -1044 
L 800 -594 
z
" transform="scale(0.015625)"/>
      <path id="DejaVuSans-2c" d="M 750 794 
L 1409 794 
L 1409 256 
L 897 -744 
L 494 -744 
L 750 256 
L 750 794 
z
" transform="scale(0.015625)"/>
     </defs>
     <use xlink:href="#DejaVuSans-7b"/>
     <use xlink:href="#DejaVuSans-66" x="63.623047"/>
     <use xlink:href="#DejaVuSans-32" x="98.828125"/>
     <use xlink:href="#DejaVuSans-30" x="162.451172"/>
     <use xlink:href="#DejaVuSans-2d" x="226.074219"/>
     <use xlink:href="#DejaVuSans-66" x="262.158203"/>
     <use xlink:href="#DejaVuSans-32" x="297.363281"/>
     <use xlink:href="#DejaVuSans-34" x="360.986328"/>
     <use xlink:href="#DejaVuSans-7d" x="424.609375"/>
     <use xlink:href="#DejaVuSans-2c" x="488.232422"/>
     <use xlink:href="#DejaVuSans-20" x="520.019531"/>
     <use xlink:href="#DejaVuSans-32" x="551.806641"/>
     <use xlink:href="#DejaVuSans-30" x="615.429688"/>
     <use xlink:href="#DejaVuSans-2d" x="679.052734"/>
     <use xlink:href="#DejaVuSans-44" x="715.136719"/>
    </g>
   </g>
   <g id="text_7">
    <!-- v2.6.3 -->
    <g style="fill: #808080" transform="translate(214.71875 288.777272)scale(0.1 -0.1)">
     <defs>
      <path id="DejaVuSans-76" d="M 191 3500 
L 800 3500 
L 1894 563 
L 2988 3500 
L 3597 3500 
L 2284 0 
L 1503 0 
L 191 3500 
z
" transform="scale(0.015625)"/>
      <path id="DejaVuSans-2e" d="M 684 794 
L 1344 794 
L 1344 0 
L 684 0 
L 684 794 
z
" transform="scale(0.015625)"/>
      <path id="DejaVuSans-36" d="M 2113 2584 
Q 1688 2584 1439 2293 
Q 1191 2003 1191 1497 
Q 1191 994 1439 701 
Q 1688 409 2113 409 
Q 2538 409 2786 701 
Q 3034 994 3034 1497 
Q 3034 2003 2786 2293 
Q 2538 2584 2113 2584 
z
M 3366 4563 
L 3366 3988 
Q 3128 4100 2886 4159 
Q 2644 4219 2406 4219 
Q 1781 4219 1451 3797 
Q 1122 3375 1075 2522 
Q 1259 2794 1537 2939 
Q 1816 3084 2150 3084 
Q 2853 3084 3261 2657 
Q 3669 2231 3669 1497 
Q 3669 778 3244 343 
Q 2819 -91 2113 -91 
Q 1303 -91 875 529 
Q 447 1150 447 2328 
Q 447 3434 972 4092 
Q 1497 4750 2381 4750 
Q 2619 4750 2861 4703 
Q 3103 4656 3366 4563 
z
" transform="scale(0.015625)"/>
      <path id="DejaVuSans-33" d="M 2597 2516 
Q 3050 2419 3304 2112 
Q 3559 1806 3559 1356 
Q 3559 666 3084 287 
Q 2609 -91 1734 -91 
Q 1441 -91 1130 -33 
Q 819 25 488 141 
L 488 750 
Q 750 597 1062 519 
Q 1375 441 1716 441 
Q 2309 441 2620 675 
Q 2931 909 2931 1356 
Q 2931 1769 2642 2001 
Q 2353 2234 1838 2234 
L 1294 2234 
L 1294 2753 
L 1863 2753 
Q 2328 2753 2575 2939 
Q 2822 3125 2822 3475 
Q 2822 3834 2567 4026 
Q 2313 4219 1838 4219 
Q 1578 4219 1281 4162 
Q 984 4106 628 3988 
L 628 4550 
Q 988 4650 1302 4700 
Q 1616 4750 1894 4750 
Q 2613 4750 3031 4423 
Q 3450 4097 3450 3541 
Q 3450 3153 3228 2886 
Q 3006 2619 2597 2516 
z
" transform="scale(0.015625)"/>
     </defs>
     <use xlink:href="#DejaVuSans-76"/>
     <use xlink:href="#DejaVuSans-32" x="59.179688"/>
     <use xlink:href="#DejaVuSans-2e" x="122.802734"/>
     <use xlink:href="#DejaVuSans-36" x="154.589844"/>
     <use xlink:href="#DejaVuSans-2e" x="218.212891"/>
     <use xlink:href="#DejaVuSans-33" x="250"/>
    </g>
   </g>
  </g>
 </g>
 <defs>
  <clipPath id="p078d326114">
   <rect x="0" y="3.456" width="460.8" height="290.304"/>
  </clipPath>
 </defs>
</svg>
