<?xml version="1.0" encoding="utf-8" standalone="no"?>
<!DOCTYPE svg PUBLIC "-//W3C//DTD SVG 1.1//EN"
  "http://www.w3.org/Graphics/SVG/1.1/DTD/svg11.dtd">
<svg xmlns:xlink="http://www.w3.org/1999/xlink" width="460.8pt" height="345.6pt" viewBox="0 0 460.8 345.6" xmlns="http://www.w3.org/2000/svg" version="1.1">
 <metadata>
  <rdf:RDF xmlns:dc="http://purl.org/dc/elements/1.1/" xmlns:cc="http://creativecommons.org/ns#" xmlns:rdf="http://www.w3.org/1999/02/22-rdf-syntax-ns#">
   <cc:Work>
    <dc:type rdf:resource="http://purl.org/dc/dcmitype/StillImage"/>
    <dc:date>2023-04-07T14:55:23.340866</dc:date>
    <dc:format>image/svg+xml</dc:format>
    <dc:creator>
     <cc:Agent>
      <dc:title>Matplotlib v3.5.2, https://matplotlib.org/</dc:title>
     </cc:Agent>
    </dc:creator>
   </cc:Work>
  </rdf:RDF>
 </metadata>
 <defs>
  <style type="text/css">*{stroke-linejoin: round; stroke-linecap: butt}</style>
 </defs>
 <g id="figure_1">
  <g id="patch_1">
   <path d="M 0 345.6 
L 460.8 345.6 
L 460.8 0 
L 0 0 
z
" style="fill: #ffffff"/>
  </g>
  <g id="axes_1">
   <g id="patch_2">
    <path d="M 0 293.76 
L 460.8 293.76 
L 460.8 3.456 
L 0 3.456 
z
" style="fill: #ffffff"/>
   </g>
   <g id="matplotlib.axis_1">
    <g id="xtick_1">
     <g id="line2d_1">
      <path d="M 106.526728 293.76 
L 106.526728 3.456 
" clip-path="url(#pad66d51440)" style="fill: none; stroke: #b0b0b0; stroke-width: 0.8; stroke-linecap: square"/>
     </g>
     <g id="line2d_2">
      <defs>
       <path id="m5488e6d3b4" d="M 0 0 
L 0 3.5 
" style="stroke: #000000; stroke-width: 0.8"/>
      </defs>
      <g>
       <use xlink:href="#m5488e6d3b4" x="106.526728" y="293.76" style="stroke: #000000; stroke-width: 0.8"/>
      </g>
     </g>
     <g id="text_1">
      <!-- -4 -->
      <g transform="translate(96.556415 315.956875)scale(0.2 -0.2)">
       <defs>
        <path id="DejaVuSans-2d" d="M 313 2009 
L 1997 2009 
L 1997 1497 
L 313 1497 
L 313 2009 
z
" transform="scale(0.015625)"/>
        <path id="DejaVuSans-34" d="M 2419 4116 
L 825 1625 
L 2419 1625 
L 2419 4116 
z
M 2253 4666 
L 3047 4666 
L 3047 1625 
L 3713 1625 
L 3713 1100 
L 3047 1100 
L 3047 0 
L 2419 0 
L 2419 1100 
L 313 1100 
L 313 1709 
L 2253 4666 
z
" transform="scale(0.015625)"/>
       </defs>
       <use xlink:href="#DejaVuSans-2d"/>
       <use xlink:href="#DejaVuSans-34" x="36.083984"/>
      </g>
     </g>
    </g>
    <g id="xtick_2">
     <g id="line2d_3">
      <path d="M 213.168666 293.76 
L 213.168666 3.456 
" clip-path="url(#pad66d51440)" style="fill: none; stroke: #b0b0b0; stroke-width: 0.8; stroke-linecap: square"/>
     </g>
     <g id="line2d_4">
      <g>
       <use xlink:href="#m5488e6d3b4" x="213.168666" y="293.76" style="stroke: #000000; stroke-width: 0.8"/>
      </g>
     </g>
     <g id="text_2">
      <!-- 0 -->
      <g transform="translate(206.806166 315.956875)scale(0.2 -0.2)">
       <defs>
        <path id="DejaVuSans-30" d="M 2034 4250 
Q 1547 4250 1301 3770 
Q 1056 3291 1056 2328 
Q 1056 1369 1301 889 
Q 1547 409 2034 409 
Q 2525 409 2770 889 
Q 3016 1369 3016 2328 
Q 3016 3291 2770 3770 
Q 2525 4250 2034 4250 
z
M 2034 4750 
Q 2819 4750 3233 4129 
Q 3647 3509 3647 2328 
Q 3647 1150 3233 529 
Q 2819 -91 2034 -91 
Q 1250 -91 836 529 
Q 422 1150 422 2328 
Q 422 3509 836 4129 
Q 1250 4750 2034 4750 
z
" transform="scale(0.015625)"/>
       </defs>
       <use xlink:href="#DejaVuSans-30"/>
      </g>
     </g>
    </g>
    <g id="xtick_3">
     <g id="line2d_5">
      <path d="M 319.810603 293.76 
L 319.810603 3.456 
" clip-path="url(#pad66d51440)" style="fill: none; stroke: #b0b0b0; stroke-width: 0.8; stroke-linecap: square"/>
     </g>
     <g id="line2d_6">
      <g>
       <use xlink:href="#m5488e6d3b4" x="319.810603" y="293.76" style="stroke: #000000; stroke-width: 0.8"/>
      </g>
     </g>
     <g id="text_3">
      <!-- 4 -->
      <g transform="translate(313.448103 315.956875)scale(0.2 -0.2)">
       <use xlink:href="#DejaVuSans-34"/>
      </g>
     </g>
    </g>
    <g id="xtick_4">
     <g id="line2d_7">
      <path d="M 426.452541 293.76 
L 426.452541 3.456 
" clip-path="url(#pad66d51440)" style="fill: none; stroke: #b0b0b0; stroke-width: 0.8; stroke-linecap: square"/>
     </g>
     <g id="line2d_8">
      <g>
       <use xlink:href="#m5488e6d3b4" x="426.452541" y="293.76" style="stroke: #000000; stroke-width: 0.8"/>
      </g>
     </g>
     <g id="text_4">
      <!-- 8 -->
      <g transform="translate(420.090041 315.956875)scale(0.2 -0.2)">
       <defs>
        <path id="DejaVuSans-38" d="M 2034 2216 
Q 1584 2216 1326 1975 
Q 1069 1734 1069 1313 
Q 1069 891 1326 650 
Q 1584 409 2034 409 
Q 2484 409 2743 651 
Q 3003 894 3003 1313 
Q 3003 1734 2745 1975 
Q 2488 2216 2034 2216 
z
M 1403 2484 
Q 997 2584 770 2862 
Q 544 3141 544 3541 
Q 544 4100 942 4425 
Q 1341 4750 2034 4750 
Q 2731 4750 3128 4425 
Q 3525 4100 3525 3541 
Q 3525 3141 3298 2862 
Q 3072 2584 2669 2484 
Q 3125 2378 3379 2068 
Q 3634 1759 3634 1313 
Q 3634 634 3220 271 
Q 2806 -91 2034 -91 
Q 1263 -91 848 271 
Q 434 634 434 1313 
Q 434 1759 690 2068 
Q 947 2378 1403 2484 
z
M 1172 3481 
Q 1172 3119 1398 2916 
Q 1625 2713 2034 2713 
Q 2441 2713 2670 2916 
Q 2900 3119 2900 3481 
Q 2900 3844 2670 4047 
Q 2441 4250 2034 4250 
Q 1625 4250 1398 4047 
Q 1172 3844 1172 3481 
z
" transform="scale(0.015625)"/>
       </defs>
       <use xlink:href="#DejaVuSans-38"/>
      </g>
     </g>
    </g>
    <g id="text_5">
     <!-- log10 of Df -->
     <g transform="translate(175.214063 339.313125)scale(0.2 -0.2)">
      <defs>
       <path id="DejaVuSans-6c" d="M 603 4863 
L 1178 4863 
L 1178 0 
L 603 0 
L 603 4863 
z
" transform="scale(0.015625)"/>
       <path id="DejaVuSans-6f" d="M 1959 3097 
Q 1497 3097 1228 2736 
Q 959 2375 959 1747 
Q 959 1119 1226 758 
Q 1494 397 1959 397 
Q 2419 397 2687 759 
Q 2956 1122 2956 1747 
Q 2956 2369 2687 2733 
Q 2419 3097 1959 3097 
z
M 1959 3584 
Q 2709 3584 3137 3096 
Q 3566 2609 3566 1747 
Q 3566 888 3137 398 
Q 2709 -91 1959 -91 
Q 1206 -91 779 398 
Q 353 888 353 1747 
Q 353 2609 779 3096 
Q 1206 3584 1959 3584 
z
" transform="scale(0.015625)"/>
       <path id="DejaVuSans-67" d="M 2906 1791 
Q 2906 2416 2648 2759 
Q 2391 3103 1925 3103 
Q 1463 3103 1205 2759 
Q 947 2416 947 1791 
Q 947 1169 1205 825 
Q 1463 481 1925 481 
Q 2391 481 2648 825 
Q 2906 1169 2906 1791 
z
M 3481 434 
Q 3481 -459 3084 -895 
Q 2688 -1331 1869 -1331 
Q 1566 -1331 1297 -1286 
Q 1028 -1241 775 -1147 
L 775 -588 
Q 1028 -725 1275 -790 
Q 1522 -856 1778 -856 
Q 2344 -856 2625 -561 
Q 2906 -266 2906 331 
L 2906 616 
Q 2728 306 2450 153 
Q 2172 0 1784 0 
Q 1141 0 747 490 
Q 353 981 353 1791 
Q 353 2603 747 3093 
Q 1141 3584 1784 3584 
Q 2172 3584 2450 3431 
Q 2728 3278 2906 2969 
L 2906 3500 
L 3481 3500 
L 3481 434 
z
" transform="scale(0.015625)"/>
       <path id="DejaVuSans-31" d="M 794 531 
L 1825 531 
L 1825 4091 
L 703 3866 
L 703 4441 
L 1819 4666 
L 2450 4666 
L 2450 531 
L 3481 531 
L 3481 0 
L 794 0 
L 794 531 
z
" transform="scale(0.015625)"/>
       <path id="DejaVuSans-20" transform="scale(0.015625)"/>
       <path id="DejaVuSans-66" d="M 2375 4863 
L 2375 4384 
L 1825 4384 
Q 1516 4384 1395 4259 
Q 1275 4134 1275 3809 
L 1275 3500 
L 2222 3500 
L 2222 3053 
L 1275 3053 
L 1275 0 
L 697 0 
L 697 3053 
L 147 3053 
L 147 3500 
L 697 3500 
L 697 3744 
Q 697 4328 969 4595 
Q 1241 4863 1831 4863 
L 2375 4863 
z
" transform="scale(0.015625)"/>
       <path id="DejaVuSans-44" d="M 1259 4147 
L 1259 519 
L 2022 519 
Q 2988 519 3436 956 
Q 3884 1394 3884 2338 
Q 3884 3275 3436 3711 
Q 2988 4147 2022 4147 
L 1259 4147 
z
M 628 4666 
L 1925 4666 
Q 3281 4666 3915 4102 
Q 4550 3538 4550 2338 
Q 4550 1131 3912 565 
Q 3275 0 1925 0 
L 628 0 
L 628 4666 
z
" transform="scale(0.015625)"/>
      </defs>
      <use xlink:href="#DejaVuSans-6c"/>
      <use xlink:href="#DejaVuSans-6f" x="27.783203"/>
      <use xlink:href="#DejaVuSans-67" x="88.964844"/>
      <use xlink:href="#DejaVuSans-31" x="152.441406"/>
      <use xlink:href="#DejaVuSans-30" x="216.064453"/>
      <use xlink:href="#DejaVuSans-20" x="279.6875"/>
      <use xlink:href="#DejaVuSans-6f" x="311.474609"/>
      <use xlink:href="#DejaVuSans-66" x="372.65625"/>
      <use xlink:href="#DejaVuSans-20" x="407.861328"/>
      <use xlink:href="#DejaVuSans-44" x="439.648438"/>
      <use xlink:href="#DejaVuSans-66" x="516.650391"/>
     </g>
    </g>
   </g>
   <g id="matplotlib.axis_2">
    <g id="ytick_1">
     <g id="line2d_9">
      <path d="M 0 293.76 
L 460.8 293.76 
" clip-path="url(#pad66d51440)" style="fill: none; stroke: #b0b0b0; stroke-width: 0.8; stroke-linecap: square"/>
     </g>
     <g id="line2d_10">
      <defs>
       <path id="m3e66d85771" d="M 0 0 
L -3.5 0 
" style="stroke: #000000; stroke-width: 0.8"/>
      </defs>
      <g>
       <use xlink:href="#m3e66d85771" x="0" y="293.76" style="stroke: #000000; stroke-width: 0.8"/>
      </g>
     </g>
    </g>
    <g id="ytick_2">
     <g id="line2d_11">
      <path d="M 0 236.274059 
L 460.8 236.274059 
" clip-path="url(#pad66d51440)" style="fill: none; stroke: #b0b0b0; stroke-width: 0.8; stroke-linecap: square"/>
     </g>
     <g id="line2d_12">
      <g>
       <use xlink:href="#m3e66d85771" x="0" y="236.274059" style="stroke: #000000; stroke-width: 0.8"/>
      </g>
     </g>
    </g>
    <g id="ytick_3">
     <g id="line2d_13">
      <path d="M 0 178.788119 
L 460.8 178.788119 
" clip-path="url(#pad66d51440)" style="fill: none; stroke: #b0b0b0; stroke-width: 0.8; stroke-linecap: square"/>
     </g>
     <g id="line2d_14">
      <g>
       <use xlink:href="#m3e66d85771" x="0" y="178.788119" style="stroke: #000000; stroke-width: 0.8"/>
      </g>
     </g>
    </g>
    <g id="ytick_4">
     <g id="line2d_15">
      <path d="M 0 121.302178 
L 460.8 121.302178 
" clip-path="url(#pad66d51440)" style="fill: none; stroke: #b0b0b0; stroke-width: 0.8; stroke-linecap: square"/>
     </g>
     <g id="line2d_16">
      <g>
       <use xlink:href="#m3e66d85771" x="0" y="121.302178" style="stroke: #000000; stroke-width: 0.8"/>
      </g>
     </g>
    </g>
    <g id="ytick_5">
     <g id="line2d_17">
      <path d="M 0 63.816238 
L 460.8 63.816238 
" clip-path="url(#pad66d51440)" style="fill: none; stroke: #b0b0b0; stroke-width: 0.8; stroke-linecap: square"/>
     </g>
     <g id="line2d_18">
      <g>
       <use xlink:href="#m3e66d85771" x="0" y="63.816238" style="stroke: #000000; stroke-width: 0.8"/>
      </g>
     </g>
    </g>
    <g id="ytick_6">
     <g id="line2d_19">
      <path d="M 0 6.330297 
L 460.8 6.330297 
" clip-path="url(#pad66d51440)" style="fill: none; stroke: #b0b0b0; stroke-width: 0.8; stroke-linecap: square"/>
     </g>
     <g id="line2d_20">
      <g>
       <use xlink:href="#m3e66d85771" x="0" y="6.330297" style="stroke: #000000; stroke-width: 0.8"/>
      </g>
     </g>
    </g>
   </g>
   <g id="line2d_21">
    <path d="M -1 33.157069 
L -0.750319 33.157069 
L -0.660699 25.492277 
L -0.574985 25.492277 
L -0.502773 17.827485 
L -0.366899 17.827485 
L -0.366899 13.995089 
L -0.133743 13.995089 
L -0.11639 6.330297 
L -0.11639 6.330297 
L 460.8 6.330297 
L 460.8 6.330297 
" clip-path="url(#pad66d51440)" style="fill: none; stroke: #ff0000; stroke-width: 3; stroke-linecap: square"/>
   </g>
   <g id="line2d_22">
    <path d="M 231.538882 293.76 
L 231.538882 289.927604 
L 233.180365 289.927604 
L 233.180365 286.095208 
L 233.502632 286.095208 
L 233.502632 282.262812 
L 233.945752 282.262812 
L 233.945752 278.430416 
L 236.824512 278.430416 
L 236.824512 274.59802 
L 238.938447 274.59802 
L 238.938447 270.765624 
L 241.139226 270.765624 
L 241.139226 266.933228 
L 248.147763 266.933228 
L 248.147763 263.100832 
L 250.933596 263.100832 
L 250.933596 259.268436 
L 253.317439 259.268436 
L 253.317439 255.43604 
L 254.497272 255.43604 
L 254.576236 247.771248 
L 257.648599 247.771248 
L 257.648599 243.938851 
L 259.731784 243.938851 
L 259.731784 240.106455 
L 261.26004 240.106455 
L 261.26004 236.274059 
L 286.217511 236.274059 
L 286.217511 232.441663 
L 286.484667 232.441663 
L 286.484667 228.609267 
L 287.06828 228.609267 
L 287.06828 224.776871 
L 288.345502 224.776871 
L 288.345502 220.944475 
L 289.435846 220.944475 
L 289.435846 217.112079 
L 290.341344 217.112079 
L 290.363132 209.447287 
L 290.489346 209.447287 
L 290.489346 205.614891 
L 290.923812 205.614891 
L 291.010242 197.950099 
L 291.559164 197.950099 
L 291.559164 194.117703 
L 293.067142 194.117703 
L 293.067142 190.285307 
L 293.694247 190.285307 
L 293.694247 186.452911 
L 294.427236 186.452911 
L 294.427236 182.620515 
L 295.152928 182.620515 
L 295.152928 178.788119 
L 295.894237 178.788119 
L 295.894237 174.955723 
L 296.133313 174.955723 
L 296.133313 171.123327 
L 325.044642 171.123327 
L 325.044642 167.290931 
L 332.209216 167.290931 
L 332.209216 163.458535 
L 346.191881 163.458535 
L 346.191881 159.626139 
L 347.126096 159.626139 
L 347.126096 155.793743 
L 358.524644 155.793743 
L 358.524644 151.961347 
L 360.236695 151.961347 
L 360.236695 148.12895 
L 361.797007 148.12895 
L 361.797007 144.296554 
L 361.9936 144.296554 
L 361.9936 140.464158 
L 366.242538 140.464158 
L 366.242538 136.631762 
L 373.728129 136.631762 
L 373.728129 132.799366 
L 376.132486 132.799366 
L 376.132486 128.96697 
L 379.024775 128.96697 
L 379.024775 125.134574 
L 381.360423 125.134574 
L 381.360423 121.302178 
L 381.567463 121.302178 
L 381.567463 117.469782 
L 382.653712 117.469782 
L 382.653712 113.637386 
L 383.03576 113.637386 
L 383.03576 109.80499 
L 388.319996 109.80499 
L 388.319996 105.972594 
L 388.523885 105.972594 
L 388.523885 102.140198 
L 391.340255 102.140198 
L 391.340255 98.307802 
L 392.699947 98.307802 
L 392.699947 94.475406 
L 393.134634 94.475406 
L 393.134634 90.64301 
L 393.393161 90.64301 
L 393.393161 86.810614 
L 393.715338 86.810614 
L 393.715338 82.978218 
L 394.171182 82.978218 
L 394.171182 79.145822 
L 395.223849 79.145822 
L 395.223849 75.313426 
L 399.560097 75.313426 
L 399.560097 71.48103 
L 401.031671 71.48103 
L 401.031671 67.648634 
L 401.23799 67.648634 
L 401.23799 63.816238 
L 403.758763 63.816238 
L 403.758763 59.983842 
L 404.026162 59.983842 
L 404.026162 56.151446 
L 404.776276 56.151446 
L 404.776276 52.31905 
L 405.953461 52.31905 
L 405.953461 48.486653 
L 408.840983 48.486653 
L 408.840983 44.654257 
L 413.530756 44.654257 
L 413.530756 40.821861 
L 414.678976 40.821861 
L 414.678976 36.989465 
L 420.503565 36.989465 
L 420.503565 33.157069 
L 422.938692 33.157069 
L 422.938692 29.324673 
L 423.401073 29.324673 
L 423.401073 25.492277 
L 423.713348 25.492277 
L 423.713348 21.659881 
L 424.631272 21.659881 
L 424.631272 17.827485 
L 426.95133 17.827485 
L 426.95133 13.995089 
L 431.321598 13.995089 
L 431.321598 10.162693 
L 432.192477 10.162693 
L 432.192477 6.330297 
L 432.192477 6.330297 
L 460.8 6.330297 
L 460.8 6.330297 
" clip-path="url(#pad66d51440)" style="fill: none; stroke: #00bfbf; stroke-width: 1.5; stroke-linecap: square"/>
   </g>
   <g id="line2d_23">
    <path d="M 229.547369 293.76 
L 229.547369 289.927604 
L 230.514037 289.927604 
L 230.514037 286.095208 
L 231.538882 286.095208 
L 231.538882 282.262812 
L 232.970622 282.262812 
L 232.970622 278.430416 
L 233.180365 278.430416 
L 233.180365 274.59802 
L 233.502632 274.59802 
L 233.502632 270.765624 
L 233.945752 270.765624 
L 233.945752 266.933228 
L 236.824512 266.933228 
L 236.824512 263.100832 
L 238.50112 263.100832 
L 238.50112 259.268436 
L 241.139226 259.268436 
L 241.139226 255.43604 
L 242.390684 255.43604 
L 242.390684 251.603644 
L 243.753892 251.603644 
L 243.753892 247.771248 
L 249.877081 247.771248 
L 249.877081 243.938851 
L 250.933596 243.938851 
L 250.933596 240.106455 
L 254.576236 240.106455 
L 254.576236 236.274059 
L 281.201119 236.274059 
L 281.201119 232.441663 
L 285.679537 232.441663 
L 285.679537 228.609267 
L 286.481547 228.609267 
L 286.484667 220.944475 
L 286.671572 220.944475 
L 286.671572 217.112079 
L 286.989225 217.112079 
L 287.097838 205.614891 
L 288.651511 205.614891 
L 288.651511 201.782495 
L 289.608818 201.782495 
L 289.608818 197.950099 
L 290.467572 197.950099 
L 290.467572 194.117703 
L 290.923812 194.117703 
L 290.923812 190.285307 
L 291.399814 190.285307 
L 291.399814 186.452911 
L 291.80634 186.452911 
L 291.86145 178.788119 
L 294.427236 178.788119 
L 294.427236 174.955723 
L 295.152928 174.955723 
L 295.152928 171.123327 
L 310.618286 171.123327 
L 310.618286 167.290931 
L 323.212587 167.290931 
L 323.212587 163.458535 
L 325.044642 163.458535 
L 325.044642 159.626139 
L 332.209216 159.626139 
L 332.209216 155.793743 
L 341.399715 155.793743 
L 341.399715 151.961347 
L 346.191881 151.961347 
L 346.191881 148.12895 
L 347.126096 148.12895 
L 347.126096 144.296554 
L 355.518848 144.296554 
L 355.518848 140.464158 
L 358.524644 140.464158 
L 358.524644 136.631762 
L 359.116516 136.631762 
L 359.116516 132.799366 
L 360.202801 132.799366 
L 360.236695 125.134574 
L 361.797007 125.134574 
L 361.797007 121.302178 
L 361.9936 121.302178 
L 361.9936 117.469782 
L 366.242538 117.469782 
L 366.242538 113.637386 
L 368.205584 113.637386 
L 368.205584 109.80499 
L 370.663638 109.80499 
L 370.663638 105.972594 
L 373.728129 105.972594 
L 373.728129 102.140198 
L 373.850131 102.140198 
L 373.850131 98.307802 
L 376.367322 98.307802 
L 376.367322 94.475406 
L 379.322018 94.475406 
L 379.322018 90.64301 
L 381.223053 90.64301 
L 381.223053 86.810614 
L 381.383144 86.810614 
L 381.383144 82.978218 
L 387.152008 82.978218 
L 387.152008 79.145822 
L 389.852375 79.145822 
L 389.852375 75.313426 
L 391.314587 75.313426 
L 391.314587 71.48103 
L 393.000802 71.48103 
L 393.000802 67.648634 
L 393.393161 67.648634 
L 393.39713 59.983842 
L 394.522755 59.983842 
L 394.522755 56.151446 
L 395.223849 56.151446 
L 395.223849 52.31905 
L 401.363336 52.31905 
L 401.363336 48.486653 
L 403.758763 48.486653 
L 403.758763 44.654257 
L 404.026162 44.654257 
L 404.026162 40.821861 
L 404.270447 40.821861 
L 404.270447 36.989465 
L 404.58104 36.989465 
L 404.58104 33.157069 
L 404.751223 33.157069 
L 404.751223 29.324673 
L 406.434372 29.324673 
L 406.434372 25.492277 
L 411.084586 25.492277 
L 411.084586 21.659881 
L 415.074482 21.659881 
L 415.074482 17.827485 
L 417.692004 17.827485 
L 417.692004 13.995089 
L 417.82623 13.995089 
L 417.82623 10.162693 
L 423.401073 10.162693 
L 423.401073 6.330297 
L 423.401073 6.330297 
L 460.8 6.330297 
L 460.8 6.330297 
" clip-path="url(#pad66d51440)" style="fill: none; stroke: #bf00bf; stroke-width: 1.5; stroke-linecap: square"/>
   </g>
   <g id="line2d_24">
    <path d="M 214.819932 293.76 
L 214.819932 289.927604 
L 224.376528 289.927604 
L 224.376528 286.095208 
L 227.019841 286.095208 
L 227.019841 282.262812 
L 228.123889 282.262812 
L 228.123889 278.430416 
L 229.9596 278.430416 
L 229.9596 274.59802 
L 230.514037 274.59802 
L 230.514037 270.765624 
L 231.538882 270.765624 
L 231.538882 266.933228 
L 232.872219 266.933228 
L 232.872219 263.100832 
L 233.180365 263.100832 
L 233.180365 259.268436 
L 233.945752 259.268436 
L 233.945752 255.43604 
L 237.128506 255.43604 
L 237.128506 251.603644 
L 238.09013 251.603644 
L 238.09013 247.771248 
L 238.50112 247.771248 
L 238.50112 243.938851 
L 242.390684 243.938851 
L 242.390684 240.106455 
L 244.997553 240.106455 
L 244.997553 236.274059 
L 279.074625 236.274059 
L 279.074625 232.441663 
L 281.201119 232.441663 
L 281.201119 228.609267 
L 282.996919 228.609267 
L 282.996919 224.776871 
L 284.416517 224.776871 
L 284.416517 220.944475 
L 284.605059 220.944475 
L 284.605059 217.112079 
L 285.498326 217.112079 
L 285.498326 213.279683 
L 285.679537 213.279683 
L 285.684335 205.614891 
L 286.989225 205.614891 
L 287.097838 194.117703 
L 288.16608 194.117703 
L 288.16608 190.285307 
L 290.100937 190.285307 
L 290.100937 186.452911 
L 290.923812 186.452911 
L 290.923812 182.620515 
L 291.659448 182.620515 
L 291.659448 178.788119 
L 292.809169 178.788119 
L 292.809169 174.955723 
L 293.980741 174.955723 
L 293.980741 171.123327 
L 297.392184 171.123327 
L 297.392184 167.290931 
L 310.547634 167.290931 
L 310.618286 159.626139 
L 323.212587 159.626139 
L 323.212587 155.793743 
L 325.044642 155.793743 
L 325.044642 151.961347 
L 332.209216 151.961347 
L 332.209216 148.12895 
L 334.607542 148.12895 
L 334.607542 144.296554 
L 334.8274 144.296554 
L 334.866904 136.631762 
L 342.803687 136.631762 
L 342.803687 132.799366 
L 345.617403 132.799366 
L 345.617403 128.96697 
L 346.152265 128.96697 
L 346.191881 121.302178 
L 347.126096 121.302178 
L 347.126096 117.469782 
L 351.056686 117.469782 
L 351.056686 113.637386 
L 354.478065 113.637386 
L 354.478065 109.80499 
L 355.400311 109.80499 
L 355.400311 105.972594 
L 355.518848 105.972594 
L 355.518848 102.140198 
L 357.789359 102.140198 
L 357.789359 98.307802 
L 359.97658 98.307802 
L 359.97658 94.475406 
L 360.202801 94.475406 
L 360.202801 90.64301 
L 361.9936 90.64301 
L 361.9936 86.810614 
L 364.961596 86.810614 
L 364.961596 82.978218 
L 365.809369 82.978218 
L 365.809369 79.145822 
L 369.079887 79.145822 
L 369.079887 75.313426 
L 370.267064 75.313426 
L 370.267064 71.48103 
L 372.60082 71.48103 
L 372.60082 67.648634 
L 376.788521 67.648634 
L 376.788521 63.816238 
L 383.013108 63.816238 
L 383.013108 59.983842 
L 389.852375 59.983842 
L 389.852375 56.151446 
L 393.393161 56.151446 
L 393.393161 52.31905 
L 397.18283 52.31905 
L 397.18283 48.486653 
L 397.403995 48.486653 
L 397.403995 44.654257 
L 401.250488 44.654257 
L 401.250488 40.821861 
L 401.363336 40.821861 
L 401.363336 36.989465 
L 403.758763 36.989465 
L 403.758763 33.157069 
L 404.026162 33.157069 
L 404.026162 29.324673 
L 404.751223 29.324673 
L 404.751223 25.492277 
L 406.434372 25.492277 
L 406.434372 21.659881 
L 408.441111 21.659881 
L 408.441111 17.827485 
L 410.854655 17.827485 
L 410.854655 13.995089 
L 415.074482 13.995089 
L 415.074482 10.162693 
L 417.570229 10.162693 
L 417.570229 6.330297 
L 417.570229 6.330297 
L 460.8 6.330297 
L 460.8 6.330297 
" clip-path="url(#pad66d51440)" style="fill: none; stroke: #000000; stroke-width: 1.5; stroke-linecap: square"/>
   </g>
   <g id="line2d_25">
    <path d="M 209.376676 293.76 
L 209.376676 289.927604 
L 212.220312 289.927604 
L 212.220312 286.095208 
L 214.646036 286.095208 
L 214.646036 282.262812 
L 214.819932 282.262812 
L 214.819932 278.430416 
L 216.875961 278.430416 
L 216.875961 274.59802 
L 217.80497 274.59802 
L 217.80497 270.765624 
L 218.354134 270.765624 
L 218.354134 266.933228 
L 223.599224 266.933228 
L 223.599224 263.100832 
L 223.792767 263.100832 
L 223.792767 259.268436 
L 224.200426 259.268436 
L 224.259994 251.603644 
L 224.376528 251.603644 
L 224.376528 247.771248 
L 231.058021 247.771248 
L 231.058021 243.938851 
L 231.82311 243.938851 
L 231.82311 240.106455 
L 234.411287 240.106455 
L 234.411287 236.274059 
L 266.825189 236.274059 
L 266.825189 232.441663 
L 270.881983 232.441663 
L 270.881983 228.609267 
L 271.047444 228.609267 
L 271.047444 224.776871 
L 272.309181 224.776871 
L 272.309181 220.944475 
L 273.826782 220.944475 
L 273.826782 217.112079 
L 274.150237 217.112079 
L 274.150237 213.279683 
L 274.603353 213.279683 
L 274.603353 209.447287 
L 274.744804 209.447287 
L 274.744804 205.614891 
L 275.322041 205.614891 
L 275.322041 201.782495 
L 275.683345 201.782495 
L 275.683345 197.950099 
L 276.047931 197.950099 
L 276.047931 194.117703 
L 277.376586 194.117703 
L 277.376586 190.285307 
L 277.544385 190.285307 
L 277.544385 186.452911 
L 277.814747 186.452911 
L 277.917933 178.788119 
L 278.258837 178.788119 
L 278.258837 174.955723 
L 278.466428 174.955723 
L 278.466428 171.123327 
L 281.201119 171.123327 
L 281.201119 167.290931 
L 281.716131 167.290931 
L 281.716131 163.458535 
L 282.474986 163.458535 
L 282.474986 159.626139 
L 282.723849 159.626139 
L 282.723849 155.793743 
L 283.244007 155.793743 
L 283.244007 151.961347 
L 284.495639 151.961347 
L 284.495639 148.12895 
L 284.867021 148.12895 
L 284.867021 144.296554 
L 290.923812 144.296554 
L 290.923812 140.464158 
L 297.392184 140.464158 
L 297.392184 136.631762 
L 305.488647 136.631762 
L 305.488647 132.799366 
L 309.956973 132.799366 
L 309.956973 128.96697 
L 322.160257 128.96697 
L 322.160257 125.134574 
L 323.212587 125.134574 
L 323.212587 121.302178 
L 325.467343 121.302178 
L 325.467343 117.469782 
L 329.679801 117.469782 
L 329.679801 113.637386 
L 331.280676 113.637386 
L 331.280676 109.80499 
L 331.448268 109.80499 
L 331.448268 105.972594 
L 332.54595 105.972594 
L 332.54595 102.140198 
L 334.663422 102.140198 
L 334.663422 98.307802 
L 335.94221 98.307802 
L 335.94221 94.475406 
L 342.687989 94.475406 
L 342.687989 90.64301 
L 343.604594 90.64301 
L 343.604594 86.810614 
L 343.835512 86.810614 
L 343.835512 82.978218 
L 351.056686 82.978218 
L 351.056686 79.145822 
L 352.172251 79.145822 
L 352.172251 75.313426 
L 352.676412 75.313426 
L 352.676412 71.48103 
L 361.129338 71.48103 
L 361.129338 67.648634 
L 363.985125 67.648634 
L 363.985125 63.816238 
L 365.083993 63.816238 
L 365.083993 59.983842 
L 366.889414 59.983842 
L 366.889414 56.151446 
L 369.036952 56.151446 
L 369.036952 52.31905 
L 371.298139 52.31905 
L 371.298139 48.486653 
L 379.485801 48.486653 
L 379.485801 44.654257 
L 380.418603 44.654257 
L 380.418603 40.821861 
L 381.78548 40.821861 
L 381.78548 36.989465 
L 385.558137 36.989465 
L 385.558137 33.157069 
L 386.232992 33.157069 
L 386.232992 29.324673 
L 386.888887 29.324673 
L 386.888887 25.492277 
L 388.689115 25.492277 
L 388.689115 21.659881 
L 390.20656 21.659881 
L 390.20656 17.827485 
L 393.003026 17.827485 
L 393.003026 13.995089 
L 398.642162 13.995089 
L 398.731967 6.330297 
L 398.731967 6.330297 
L 460.8 6.330297 
L 460.8 6.330297 
" clip-path="url(#pad66d51440)" style="fill: none; stroke: #00bfbf; stroke-width: 1.5; stroke-linecap: square"/>
   </g>
   <g id="line2d_26">
    <path d="M 113.099203 293.76 
L 113.099203 289.927604 
L 117.073185 289.927604 
L 117.073185 286.095208 
L 118.5276 286.095208 
L 118.5276 282.262812 
L 121.738506 282.262812 
L 121.738506 278.430416 
L 125.855425 278.430416 
L 125.855425 274.59802 
L 127.147085 274.59802 
L 127.147085 270.765624 
L 129.074798 270.765624 
L 129.075229 263.100832 
L 129.589578 263.100832 
L 129.589578 259.268436 
L 129.706999 259.268436 
L 129.706999 255.43604 
L 130.641201 255.43604 
L 130.641201 251.603644 
L 132.933209 251.603644 
L 132.933209 247.771248 
L 133.664087 247.771248 
L 133.664087 243.938851 
L 136.513751 243.938851 
L 136.513751 240.106455 
L 140.740519 240.106455 
L 140.740519 236.274059 
L 183.451116 236.274059 
L 183.451116 232.441663 
L 197.909849 232.441663 
L 197.909849 228.609267 
L 198.882663 228.609267 
L 198.882663 224.776871 
L 206.909979 224.776871 
L 206.931654 217.112079 
L 209.806118 217.112079 
L 209.806118 213.279683 
L 211.151711 213.279683 
L 211.151711 209.447287 
L 212.662129 209.447287 
L 212.662129 205.614891 
L 213.269083 205.614891 
L 213.269083 201.782495 
L 213.41908 201.782495 
L 213.41908 197.950099 
L 213.971564 197.950099 
L 213.971564 194.117703 
L 217.316472 194.117703 
L 217.316472 190.285307 
L 217.564399 190.285307 
L 217.564399 186.452911 
L 218.564648 186.452911 
L 218.564648 182.620515 
L 219.665391 182.620515 
L 219.665391 178.788119 
L 221.987027 178.788119 
L 221.987027 174.955723 
L 223.903841 174.955723 
L 223.903841 171.123327 
L 224.977978 171.123327 
L 224.977978 167.290931 
L 225.557972 167.290931 
L 225.557972 163.458535 
L 227.377652 163.458535 
L 227.377652 159.626139 
L 228.009988 159.626139 
L 228.084534 151.961347 
L 230.00471 151.961347 
L 230.00471 148.12895 
L 230.129119 148.12895 
L 230.129119 144.296554 
L 230.922337 144.296554 
L 230.997424 136.631762 
L 234.167439 136.631762 
L 234.167439 132.799366 
L 235.140127 132.799366 
L 235.140127 128.96697 
L 235.329135 128.96697 
L 235.329135 125.134574 
L 237.254506 125.134574 
L 237.254506 121.302178 
L 238.475476 121.302178 
L 238.475476 117.469782 
L 239.806604 117.469782 
L 239.806604 113.637386 
L 240.199052 113.637386 
L 240.271387 105.972594 
L 240.391151 105.972594 
L 240.391151 102.140198 
L 241.254962 102.140198 
L 241.254962 98.307802 
L 242.196473 98.307802 
L 242.196473 94.475406 
L 243.234122 94.475406 
L 243.234122 90.64301 
L 244.220347 90.64301 
L 244.220347 86.810614 
L 247.716373 86.810614 
L 247.742352 79.145822 
L 248.696857 79.145822 
L 248.696857 75.313426 
L 249.70154 75.313426 
L 249.70154 71.48103 
L 250.228549 71.48103 
L 250.228549 67.648634 
L 250.342902 67.648634 
L 250.342902 63.816238 
L 252.366908 63.816238 
L 252.435496 56.151446 
L 254.464921 56.151446 
L 254.464921 52.31905 
L 255.046101 52.31905 
L 255.046101 48.486653 
L 255.77295 48.486653 
L 255.77295 44.654257 
L 256.624047 44.654257 
L 256.624047 40.821861 
L 260.009198 40.821861 
L 260.009198 36.989465 
L 261.28683 36.989465 
L 261.28683 33.157069 
L 266.943491 33.157069 
L 266.943491 29.324673 
L 269.483917 29.324673 
L 269.483917 25.492277 
L 271.147889 25.492277 
L 271.147889 21.659881 
L 272.371842 21.659881 
L 272.371842 17.827485 
L 279.838827 17.827485 
L 279.838827 13.995089 
L 281.550395 13.995089 
L 281.550395 10.162693 
L 303.823697 10.162693 
L 303.823697 6.330297 
L 303.823697 6.330297 
L 460.8 6.330297 
L 460.8 6.330297 
" clip-path="url(#pad66d51440)" style="fill: none; stroke: #bf00bf; stroke-width: 1.5; stroke-linecap: square"/>
   </g>
   <g id="line2d_27">
    <path d="M -1 59.983842 
L -0.750319 59.983842 
L -0.750319 56.151446 
L -0.574985 56.151446 
L -0.502773 48.486653 
L -0.366899 48.486653 
L -0.366899 44.654257 
L -0.133743 44.654257 
L -0.11639 36.989465 
L 27.819438 36.989465 
L 27.819438 33.157069 
L 65.578791 33.157069 
L 65.578791 29.324673 
L 111.812323 29.324673 
L 111.812323 25.492277 
L 115.735933 25.492277 
L 115.735933 21.659881 
L 148.872131 21.659881 
L 148.872131 17.827485 
L 165.430669 17.827485 
L 165.430669 13.995089 
L 194.817621 13.995089 
L 194.817621 10.162693 
L 209.019329 10.162693 
L 209.019329 6.330297 
L 209.019329 6.330297 
L 460.8 6.330297 
L 460.8 6.330297 
" clip-path="url(#pad66d51440)" style="fill: none; stroke: #000000; stroke-width: 1.5; stroke-linecap: square"/>
   </g>
   <g id="patch_3">
    <path d="M 0 293.76 
L 0 3.456 
" style="fill: none; stroke: #000000; stroke-width: 0.8; stroke-linejoin: miter; stroke-linecap: square"/>
   </g>
   <g id="patch_4">
    <path d="M 460.8 293.76 
L 460.8 3.456 
" style="fill: none; stroke: #000000; stroke-width: 0.8; stroke-linejoin: miter; stroke-linecap: square"/>
   </g>
   <g id="patch_5">
    <path d="M -0 293.76 
L 460.8 293.76 
" style="fill: none; stroke: #000000; stroke-width: 0.8; stroke-linejoin: miter; stroke-linecap: square"/>
   </g>
   <g id="patch_6">
    <path d="M -0 3.456 
L 460.8 3.456 
" style="fill: none; stroke: #000000; stroke-width: 0.8; stroke-linejoin: miter; stroke-linecap: square"/>
   </g>
   <g id="text_6">
    <!-- {f10-f14}, 5-D -->
    <g transform="translate(305.884 287.95392)scale(0.2 -0.2)">
     <defs>
      <path id="DejaVuSans-7b" d="M 3272 -594 
L 3272 -1044 
L 3078 -1044 
Q 2300 -1044 2036 -812 
Q 1772 -581 1772 109 
L 1772 856 
Q 1772 1328 1603 1509 
Q 1434 1691 991 1691 
L 800 1691 
L 800 2138 
L 991 2138 
Q 1438 2138 1605 2317 
Q 1772 2497 1772 2963 
L 1772 3713 
Q 1772 4403 2036 4633 
Q 2300 4863 3078 4863 
L 3272 4863 
L 3272 4416 
L 3059 4416 
Q 2619 4416 2484 4278 
Q 2350 4141 2350 3700 
L 2350 2925 
Q 2350 2434 2208 2212 
Q 2066 1991 1722 1913 
Q 2069 1828 2209 1606 
Q 2350 1384 2350 897 
L 2350 122 
Q 2350 -319 2484 -456 
Q 2619 -594 3059 -594 
L 3272 -594 
z
" transform="scale(0.015625)"/>
      <path id="DejaVuSans-7d" d="M 800 -594 
L 1019 -594 
Q 1456 -594 1589 -459 
Q 1722 -325 1722 122 
L 1722 897 
Q 1722 1384 1862 1606 
Q 2003 1828 2350 1913 
Q 2003 1991 1862 2212 
Q 1722 2434 1722 2925 
L 1722 3700 
Q 1722 4144 1589 4280 
Q 1456 4416 1019 4416 
L 800 4416 
L 800 4863 
L 997 4863 
Q 1775 4863 2036 4633 
Q 2297 4403 2297 3713 
L 2297 2963 
Q 2297 2497 2465 2317 
Q 2634 2138 3078 2138 
L 3272 2138 
L 3272 1691 
L 3078 1691 
Q 2634 1691 2465 1509 
Q 2297 1328 2297 856 
L 2297 109 
Q 2297 -581 2036 -812 
Q 1775 -1044 997 -1044 
L 800 -1044 
L 800 -594 
z
" transform="scale(0.015625)"/>
      <path id="DejaVuSans-2c" d="M 750 794 
L 1409 794 
L 1409 256 
L 897 -744 
L 494 -744 
L 750 256 
L 750 794 
z
" transform="scale(0.015625)"/>
      <path id="DejaVuSans-35" d="M 691 4666 
L 3169 4666 
L 3169 4134 
L 1269 4134 
L 1269 2991 
Q 1406 3038 1543 3061 
Q 1681 3084 1819 3084 
Q 2600 3084 3056 2656 
Q 3513 2228 3513 1497 
Q 3513 744 3044 326 
Q 2575 -91 1722 -91 
Q 1428 -91 1123 -41 
Q 819 9 494 109 
L 494 744 
Q 775 591 1075 516 
Q 1375 441 1709 441 
Q 2250 441 2565 725 
Q 2881 1009 2881 1497 
Q 2881 1984 2565 2268 
Q 2250 2553 1709 2553 
Q 1456 2553 1204 2497 
Q 953 2441 691 2322 
L 691 4666 
z
" transform="scale(0.015625)"/>
     </defs>
     <use xlink:href="#DejaVuSans-7b"/>
     <use xlink:href="#DejaVuSans-66" x="63.623047"/>
     <use xlink:href="#DejaVuSans-31" x="98.828125"/>
     <use xlink:href="#DejaVuSans-30" x="162.451172"/>
     <use xlink:href="#DejaVuSans-2d" x="226.074219"/>
     <use xlink:href="#DejaVuSans-66" x="262.158203"/>
     <use xlink:href="#DejaVuSans-31" x="297.363281"/>
     <use xlink:href="#DejaVuSans-34" x="360.986328"/>
     <use xlink:href="#DejaVuSans-7d" x="424.609375"/>
     <use xlink:href="#DejaVuSans-2c" x="488.232422"/>
     <use xlink:href="#DejaVuSans-20" x="520.019531"/>
     <use xlink:href="#DejaVuSans-35" x="551.806641"/>
     <use xlink:href="#DejaVuSans-2d" x="615.429688"/>
     <use xlink:href="#DejaVuSans-44" x="651.513672"/>
    </g>
   </g>
   <g id="text_7">
    <!-- v2.6.3 -->
    <g style="fill: #808080" transform="translate(214.71875 288.777272)scale(0.1 -0.1)">
     <defs>
      <path id="DejaVuSans-76" d="M 191 3500 
L 800 3500 
L 1894 563 
L 2988 3500 
L 3597 3500 
L 2284 0 
L 1503 0 
L 191 3500 
z
" transform="scale(0.015625)"/>
      <path id="DejaVuSans-32" d="M 1228 531 
L 3431 531 
L 3431 0 
L 469 0 
L 469 531 
Q 828 903 1448 1529 
Q 2069 2156 2228 2338 
Q 2531 2678 2651 2914 
Q 2772 3150 2772 3378 
Q 2772 3750 2511 3984 
Q 2250 4219 1831 4219 
Q 1534 4219 1204 4116 
Q 875 4013 500 3803 
L 500 4441 
Q 881 4594 1212 4672 
Q 1544 4750 1819 4750 
Q 2544 4750 2975 4387 
Q 3406 4025 3406 3419 
Q 3406 3131 3298 2873 
Q 3191 2616 2906 2266 
Q 2828 2175 2409 1742 
Q 1991 1309 1228 531 
z
" transform="scale(0.015625)"/>
      <path id="DejaVuSans-2e" d="M 684 794 
L 1344 794 
L 1344 0 
L 684 0 
L 684 794 
z
" transform="scale(0.015625)"/>
      <path id="DejaVuSans-36" d="M 2113 2584 
Q 1688 2584 1439 2293 
Q 1191 2003 1191 1497 
Q 1191 994 1439 701 
Q 1688 409 2113 409 
Q 2538 409 2786 701 
Q 3034 994 3034 1497 
Q 3034 2003 2786 2293 
Q 2538 2584 2113 2584 
z
M 3366 4563 
L 3366 3988 
Q 3128 4100 2886 4159 
Q 2644 4219 2406 4219 
Q 1781 4219 1451 3797 
Q 1122 3375 1075 2522 
Q 1259 2794 1537 2939 
Q 1816 3084 2150 3084 
Q 2853 3084 3261 2657 
Q 3669 2231 3669 1497 
Q 3669 778 3244 343 
Q 2819 -91 2113 -91 
Q 1303 -91 875 529 
Q 447 1150 447 2328 
Q 447 3434 972 4092 
Q 1497 4750 2381 4750 
Q 2619 4750 2861 4703 
Q 3103 4656 3366 4563 
z
" transform="scale(0.015625)"/>
      <path id="DejaVuSans-33" d="M 2597 2516 
Q 3050 2419 3304 2112 
Q 3559 1806 3559 1356 
Q 3559 666 3084 287 
Q 2609 -91 1734 -91 
Q 1441 -91 1130 -33 
Q 819 25 488 141 
L 488 750 
Q 750 597 1062 519 
Q 1375 441 1716 441 
Q 2309 441 2620 675 
Q 2931 909 2931 1356 
Q 2931 1769 2642 2001 
Q 2353 2234 1838 2234 
L 1294 2234 
L 1294 2753 
L 1863 2753 
Q 2328 2753 2575 2939 
Q 2822 3125 2822 3475 
Q 2822 3834 2567 4026 
Q 2313 4219 1838 4219 
Q 1578 4219 1281 4162 
Q 984 4106 628 3988 
L 628 4550 
Q 988 4650 1302 4700 
Q 1616 4750 1894 4750 
Q 2613 4750 3031 4423 
Q 3450 4097 3450 3541 
Q 3450 3153 3228 2886 
Q 3006 2619 2597 2516 
z
" transform="scale(0.015625)"/>
     </defs>
     <use xlink:href="#DejaVuSans-76"/>
     <use xlink:href="#DejaVuSans-32" x="59.179688"/>
     <use xlink:href="#DejaVuSans-2e" x="122.802734"/>
     <use xlink:href="#DejaVuSans-36" x="154.589844"/>
     <use xlink:href="#DejaVuSans-2e" x="218.212891"/>
     <use xlink:href="#DejaVuSans-33" x="250"/>
    </g>
   </g>
  </g>
 </g>
 <defs>
  <clipPath id="pad66d51440">
   <rect x="0" y="3.456" width="460.8" height="290.304"/>
  </clipPath>
 </defs>
</svg>
