<?xml version="1.0" encoding="utf-8" standalone="no"?>
<!DOCTYPE svg PUBLIC "-//W3C//DTD SVG 1.1//EN"
  "http://www.w3.org/Graphics/SVG/1.1/DTD/svg11.dtd">
<svg xmlns:xlink="http://www.w3.org/1999/xlink" width="460.8pt" height="345.6pt" viewBox="0 0 460.8 345.6" xmlns="http://www.w3.org/2000/svg" version="1.1">
 <metadata>
  <rdf:RDF xmlns:dc="http://purl.org/dc/elements/1.1/" xmlns:cc="http://creativecommons.org/ns#" xmlns:rdf="http://www.w3.org/1999/02/22-rdf-syntax-ns#">
   <cc:Work>
    <dc:type rdf:resource="http://purl.org/dc/dcmitype/StillImage"/>
    <dc:date>2023-04-07T14:55:25.658550</dc:date>
    <dc:format>image/svg+xml</dc:format>
    <dc:creator>
     <cc:Agent>
      <dc:title>Matplotlib v3.5.2, https://matplotlib.org/</dc:title>
     </cc:Agent>
    </dc:creator>
   </cc:Work>
  </rdf:RDF>
 </metadata>
 <defs>
  <style type="text/css">*{stroke-linejoin: round; stroke-linecap: butt}</style>
 </defs>
 <g id="figure_1">
  <g id="patch_1">
   <path d="M 0 345.6 
L 460.8 345.6 
L 460.8 0 
L 0 0 
z
" style="fill: #ffffff"/>
  </g>
  <g id="axes_1">
   <g id="patch_2">
    <path d="M 0 293.76 
L 460.8 293.76 
L 460.8 3.456 
L 0 3.456 
z
" style="fill: #ffffff"/>
   </g>
   <g id="matplotlib.axis_1">
    <g id="xtick_1">
     <g id="line2d_1">
      <path d="M 103.610286 293.76 
L 103.610286 3.456 
" clip-path="url(#p471783530e)" style="fill: none; stroke: #b0b0b0; stroke-width: 0.8; stroke-linecap: square"/>
     </g>
     <g id="line2d_2">
      <defs>
       <path id="mb19cfb68ac" d="M 0 0 
L 0 3.5 
" style="stroke: #000000; stroke-width: 0.8"/>
      </defs>
      <g>
       <use xlink:href="#mb19cfb68ac" x="103.610286" y="293.76" style="stroke: #000000; stroke-width: 0.8"/>
      </g>
     </g>
     <g id="text_1">
      <!-- -4 -->
      <g transform="translate(93.639974 315.956875)scale(0.2 -0.2)">
       <defs>
        <path id="DejaVuSans-2d" d="M 313 2009 
L 1997 2009 
L 1997 1497 
L 313 1497 
L 313 2009 
z
" transform="scale(0.015625)"/>
        <path id="DejaVuSans-34" d="M 2419 4116 
L 825 1625 
L 2419 1625 
L 2419 4116 
z
M 2253 4666 
L 3047 4666 
L 3047 1625 
L 3713 1625 
L 3713 1100 
L 3047 1100 
L 3047 0 
L 2419 0 
L 2419 1100 
L 313 1100 
L 313 1709 
L 2253 4666 
z
" transform="scale(0.015625)"/>
       </defs>
       <use xlink:href="#DejaVuSans-2d"/>
       <use xlink:href="#DejaVuSans-34" x="36.083984"/>
      </g>
     </g>
    </g>
    <g id="xtick_2">
     <g id="line2d_3">
      <path d="M 207.332628 293.76 
L 207.332628 3.456 
" clip-path="url(#p471783530e)" style="fill: none; stroke: #b0b0b0; stroke-width: 0.8; stroke-linecap: square"/>
     </g>
     <g id="line2d_4">
      <g>
       <use xlink:href="#mb19cfb68ac" x="207.332628" y="293.76" style="stroke: #000000; stroke-width: 0.8"/>
      </g>
     </g>
     <g id="text_2">
      <!-- 0 -->
      <g transform="translate(200.970128 315.956875)scale(0.2 -0.2)">
       <defs>
        <path id="DejaVuSans-30" d="M 2034 4250 
Q 1547 4250 1301 3770 
Q 1056 3291 1056 2328 
Q 1056 1369 1301 889 
Q 1547 409 2034 409 
Q 2525 409 2770 889 
Q 3016 1369 3016 2328 
Q 3016 3291 2770 3770 
Q 2525 4250 2034 4250 
z
M 2034 4750 
Q 2819 4750 3233 4129 
Q 3647 3509 3647 2328 
Q 3647 1150 3233 529 
Q 2819 -91 2034 -91 
Q 1250 -91 836 529 
Q 422 1150 422 2328 
Q 422 3509 836 4129 
Q 1250 4750 2034 4750 
z
" transform="scale(0.015625)"/>
       </defs>
       <use xlink:href="#DejaVuSans-30"/>
      </g>
     </g>
    </g>
    <g id="xtick_3">
     <g id="line2d_5">
      <path d="M 311.05497 293.76 
L 311.05497 3.456 
" clip-path="url(#p471783530e)" style="fill: none; stroke: #b0b0b0; stroke-width: 0.8; stroke-linecap: square"/>
     </g>
     <g id="line2d_6">
      <g>
       <use xlink:href="#mb19cfb68ac" x="311.05497" y="293.76" style="stroke: #000000; stroke-width: 0.8"/>
      </g>
     </g>
     <g id="text_3">
      <!-- 4 -->
      <g transform="translate(304.69247 315.956875)scale(0.2 -0.2)">
       <use xlink:href="#DejaVuSans-34"/>
      </g>
     </g>
    </g>
    <g id="xtick_4">
     <g id="line2d_7">
      <path d="M 414.777311 293.76 
L 414.777311 3.456 
" clip-path="url(#p471783530e)" style="fill: none; stroke: #b0b0b0; stroke-width: 0.8; stroke-linecap: square"/>
     </g>
     <g id="line2d_8">
      <g>
       <use xlink:href="#mb19cfb68ac" x="414.777311" y="293.76" style="stroke: #000000; stroke-width: 0.8"/>
      </g>
     </g>
     <g id="text_4">
      <!-- 8 -->
      <g transform="translate(408.414811 315.956875)scale(0.2 -0.2)">
       <defs>
        <path id="DejaVuSans-38" d="M 2034 2216 
Q 1584 2216 1326 1975 
Q 1069 1734 1069 1313 
Q 1069 891 1326 650 
Q 1584 409 2034 409 
Q 2484 409 2743 651 
Q 3003 894 3003 1313 
Q 3003 1734 2745 1975 
Q 2488 2216 2034 2216 
z
M 1403 2484 
Q 997 2584 770 2862 
Q 544 3141 544 3541 
Q 544 4100 942 4425 
Q 1341 4750 2034 4750 
Q 2731 4750 3128 4425 
Q 3525 4100 3525 3541 
Q 3525 3141 3298 2862 
Q 3072 2584 2669 2484 
Q 3125 2378 3379 2068 
Q 3634 1759 3634 1313 
Q 3634 634 3220 271 
Q 2806 -91 2034 -91 
Q 1263 -91 848 271 
Q 434 634 434 1313 
Q 434 1759 690 2068 
Q 947 2378 1403 2484 
z
M 1172 3481 
Q 1172 3119 1398 2916 
Q 1625 2713 2034 2713 
Q 2441 2713 2670 2916 
Q 2900 3119 2900 3481 
Q 2900 3844 2670 4047 
Q 2441 4250 2034 4250 
Q 1625 4250 1398 4047 
Q 1172 3844 1172 3481 
z
" transform="scale(0.015625)"/>
       </defs>
       <use xlink:href="#DejaVuSans-38"/>
      </g>
     </g>
    </g>
    <g id="text_5">
     <!-- log10 of Df -->
     <g transform="translate(175.214063 339.313125)scale(0.2 -0.2)">
      <defs>
       <path id="DejaVuSans-6c" d="M 603 4863 
L 1178 4863 
L 1178 0 
L 603 0 
L 603 4863 
z
" transform="scale(0.015625)"/>
       <path id="DejaVuSans-6f" d="M 1959 3097 
Q 1497 3097 1228 2736 
Q 959 2375 959 1747 
Q 959 1119 1226 758 
Q 1494 397 1959 397 
Q 2419 397 2687 759 
Q 2956 1122 2956 1747 
Q 2956 2369 2687 2733 
Q 2419 3097 1959 3097 
z
M 1959 3584 
Q 2709 3584 3137 3096 
Q 3566 2609 3566 1747 
Q 3566 888 3137 398 
Q 2709 -91 1959 -91 
Q 1206 -91 779 398 
Q 353 888 353 1747 
Q 353 2609 779 3096 
Q 1206 3584 1959 3584 
z
" transform="scale(0.015625)"/>
       <path id="DejaVuSans-67" d="M 2906 1791 
Q 2906 2416 2648 2759 
Q 2391 3103 1925 3103 
Q 1463 3103 1205 2759 
Q 947 2416 947 1791 
Q 947 1169 1205 825 
Q 1463 481 1925 481 
Q 2391 481 2648 825 
Q 2906 1169 2906 1791 
z
M 3481 434 
Q 3481 -459 3084 -895 
Q 2688 -1331 1869 -1331 
Q 1566 -1331 1297 -1286 
Q 1028 -1241 775 -1147 
L 775 -588 
Q 1028 -725 1275 -790 
Q 1522 -856 1778 -856 
Q 2344 -856 2625 -561 
Q 2906 -266 2906 331 
L 2906 616 
Q 2728 306 2450 153 
Q 2172 0 1784 0 
Q 1141 0 747 490 
Q 353 981 353 1791 
Q 353 2603 747 3093 
Q 1141 3584 1784 3584 
Q 2172 3584 2450 3431 
Q 2728 3278 2906 2969 
L 2906 3500 
L 3481 3500 
L 3481 434 
z
" transform="scale(0.015625)"/>
       <path id="DejaVuSans-31" d="M 794 531 
L 1825 531 
L 1825 4091 
L 703 3866 
L 703 4441 
L 1819 4666 
L 2450 4666 
L 2450 531 
L 3481 531 
L 3481 0 
L 794 0 
L 794 531 
z
" transform="scale(0.015625)"/>
       <path id="DejaVuSans-20" transform="scale(0.015625)"/>
       <path id="DejaVuSans-66" d="M 2375 4863 
L 2375 4384 
L 1825 4384 
Q 1516 4384 1395 4259 
Q 1275 4134 1275 3809 
L 1275 3500 
L 2222 3500 
L 2222 3053 
L 1275 3053 
L 1275 0 
L 697 0 
L 697 3053 
L 147 3053 
L 147 3500 
L 697 3500 
L 697 3744 
Q 697 4328 969 4595 
Q 1241 4863 1831 4863 
L 2375 4863 
z
" transform="scale(0.015625)"/>
       <path id="DejaVuSans-44" d="M 1259 4147 
L 1259 519 
L 2022 519 
Q 2988 519 3436 956 
Q 3884 1394 3884 2338 
Q 3884 3275 3436 3711 
Q 2988 4147 2022 4147 
L 1259 4147 
z
M 628 4666 
L 1925 4666 
Q 3281 4666 3915 4102 
Q 4550 3538 4550 2338 
Q 4550 1131 3912 565 
Q 3275 0 1925 0 
L 628 0 
L 628 4666 
z
" transform="scale(0.015625)"/>
      </defs>
      <use xlink:href="#DejaVuSans-6c"/>
      <use xlink:href="#DejaVuSans-6f" x="27.783203"/>
      <use xlink:href="#DejaVuSans-67" x="88.964844"/>
      <use xlink:href="#DejaVuSans-31" x="152.441406"/>
      <use xlink:href="#DejaVuSans-30" x="216.064453"/>
      <use xlink:href="#DejaVuSans-20" x="279.6875"/>
      <use xlink:href="#DejaVuSans-6f" x="311.474609"/>
      <use xlink:href="#DejaVuSans-66" x="372.65625"/>
      <use xlink:href="#DejaVuSans-20" x="407.861328"/>
      <use xlink:href="#DejaVuSans-44" x="439.648438"/>
      <use xlink:href="#DejaVuSans-66" x="516.650391"/>
     </g>
    </g>
   </g>
   <g id="matplotlib.axis_2">
    <g id="ytick_1">
     <g id="line2d_9">
      <path d="M 0 293.76 
L 460.8 293.76 
" clip-path="url(#p471783530e)" style="fill: none; stroke: #b0b0b0; stroke-width: 0.8; stroke-linecap: square"/>
     </g>
     <g id="line2d_10">
      <defs>
       <path id="m3dd73d122d" d="M 0 0 
L -3.5 0 
" style="stroke: #000000; stroke-width: 0.8"/>
      </defs>
      <g>
       <use xlink:href="#m3dd73d122d" x="0" y="293.76" style="stroke: #000000; stroke-width: 0.8"/>
      </g>
     </g>
    </g>
    <g id="ytick_2">
     <g id="line2d_11">
      <path d="M 0 236.274059 
L 460.8 236.274059 
" clip-path="url(#p471783530e)" style="fill: none; stroke: #b0b0b0; stroke-width: 0.8; stroke-linecap: square"/>
     </g>
     <g id="line2d_12">
      <g>
       <use xlink:href="#m3dd73d122d" x="0" y="236.274059" style="stroke: #000000; stroke-width: 0.8"/>
      </g>
     </g>
    </g>
    <g id="ytick_3">
     <g id="line2d_13">
      <path d="M 0 178.788119 
L 460.8 178.788119 
" clip-path="url(#p471783530e)" style="fill: none; stroke: #b0b0b0; stroke-width: 0.8; stroke-linecap: square"/>
     </g>
     <g id="line2d_14">
      <g>
       <use xlink:href="#m3dd73d122d" x="0" y="178.788119" style="stroke: #000000; stroke-width: 0.8"/>
      </g>
     </g>
    </g>
    <g id="ytick_4">
     <g id="line2d_15">
      <path d="M 0 121.302178 
L 460.8 121.302178 
" clip-path="url(#p471783530e)" style="fill: none; stroke: #b0b0b0; stroke-width: 0.8; stroke-linecap: square"/>
     </g>
     <g id="line2d_16">
      <g>
       <use xlink:href="#m3dd73d122d" x="0" y="121.302178" style="stroke: #000000; stroke-width: 0.8"/>
      </g>
     </g>
    </g>
    <g id="ytick_5">
     <g id="line2d_17">
      <path d="M 0 63.816238 
L 460.8 63.816238 
" clip-path="url(#p471783530e)" style="fill: none; stroke: #b0b0b0; stroke-width: 0.8; stroke-linecap: square"/>
     </g>
     <g id="line2d_18">
      <g>
       <use xlink:href="#m3dd73d122d" x="0" y="63.816238" style="stroke: #000000; stroke-width: 0.8"/>
      </g>
     </g>
    </g>
    <g id="ytick_6">
     <g id="line2d_19">
      <path d="M 0 6.330297 
L 460.8 6.330297 
" clip-path="url(#p471783530e)" style="fill: none; stroke: #b0b0b0; stroke-width: 0.8; stroke-linecap: square"/>
     </g>
     <g id="line2d_20">
      <g>
       <use xlink:href="#m3dd73d122d" x="0" y="6.330297" style="stroke: #000000; stroke-width: 0.8"/>
      </g>
     </g>
    </g>
   </g>
   <g id="line2d_21">
    <path d="M -1 109.80499 
L -0.861053 109.80499 
L -0.753674 98.307802 
L -0.693117 98.307802 
L -0.651203 90.64301 
L -0.574723 90.64301 
L -0.468937 71.48103 
L -0.457462 71.48103 
L -0.349039 44.654257 
L -0.34622 44.654257 
L -0.242784 25.492277 
L -0.206027 25.492277 
L -0.137281 6.330297 
L -0.137281 6.330297 
L 460.8 6.330297 
L 460.8 6.330297 
" clip-path="url(#p471783530e)" style="fill: none; stroke: #ff0000; stroke-width: 3; stroke-linecap: square"/>
   </g>
   <g id="line2d_22">
    <path d="M 243.219641 293.76 
L 243.219641 289.927604 
L 243.425179 289.927604 
L 243.425179 286.095208 
L 243.977713 286.095208 
L 243.977713 282.262812 
L 244.907757 282.262812 
L 244.907757 278.430416 
L 246.874603 278.430416 
L 246.874603 274.59802 
L 247.590531 274.59802 
L 247.590531 270.765624 
L 247.936947 270.765624 
L 247.936947 266.933228 
L 248.384206 266.933228 
L 248.384206 263.100832 
L 249.508005 263.100832 
L 249.508005 259.268436 
L 250.538693 259.268436 
L 250.538693 255.43604 
L 252.290727 255.43604 
L 252.290727 251.603644 
L 253.486184 251.603644 
L 253.486184 247.771248 
L 253.971419 247.771248 
L 253.971419 243.938851 
L 258.057409 243.938851 
L 258.057409 240.106455 
L 260.141633 240.106455 
L 260.141633 236.274059 
L 282.810576 236.274059 
L 282.810576 232.441663 
L 290.143804 232.441663 
L 290.143804 228.609267 
L 290.873175 228.609267 
L 290.873175 224.776871 
L 291.260825 224.776871 
L 291.260825 220.944475 
L 291.57967 220.944475 
L 291.649078 213.279683 
L 291.80981 213.279683 
L 291.864803 205.614891 
L 292.006497 205.614891 
L 292.006497 201.782495 
L 292.207739 201.782495 
L 292.207739 197.950099 
L 292.507365 197.950099 
L 292.507365 194.117703 
L 292.635455 194.117703 
L 292.635455 190.285307 
L 293.034842 190.285307 
L 293.034842 186.452911 
L 293.188538 186.452911 
L 293.188538 182.620515 
L 293.30707 182.620515 
L 293.30707 178.788119 
L 293.605276 178.788119 
L 293.605276 174.955723 
L 299.683999 174.955723 
L 299.683999 171.123327 
L 305.648941 171.123327 
L 305.648941 167.290931 
L 306.757486 167.290931 
L 306.757486 163.458535 
L 307.609649 163.458535 
L 307.609649 159.626139 
L 319.162703 159.626139 
L 319.162703 155.793743 
L 327.953891 155.793743 
L 327.953891 151.961347 
L 333.075384 151.961347 
L 333.075384 148.12895 
L 333.698758 148.12895 
L 333.698758 144.296554 
L 334.376272 144.296554 
L 334.376272 140.464158 
L 360.285448 140.464158 
L 360.285448 136.631762 
L 362.787855 136.631762 
L 362.787855 132.799366 
L 364.682769 132.799366 
L 364.682769 128.96697 
L 365.031789 128.96697 
L 365.031789 125.134574 
L 365.955022 125.134574 
L 365.955022 121.302178 
L 368.344397 121.302178 
L 368.344397 117.469782 
L 369.257821 117.469782 
L 369.257821 113.637386 
L 369.56047 113.637386 
L 369.56047 109.80499 
L 370.296183 109.80499 
L 370.296183 105.972594 
L 372.344988 105.972594 
L 372.344988 102.140198 
L 374.661427 102.140198 
L 374.661427 98.307802 
L 378.995618 98.307802 
L 378.995618 94.475406 
L 379.402594 94.475406 
L 379.402594 90.64301 
L 380.402497 90.64301 
L 380.402497 86.810614 
L 381.29357 86.810614 
L 381.29357 82.978218 
L 381.741804 82.978218 
L 381.741804 79.145822 
L 384.624852 79.145822 
L 384.624852 75.313426 
L 388.061282 75.313426 
L 388.061282 71.48103 
L 389.025235 71.48103 
L 389.025235 67.648634 
L 393.210492 67.648634 
L 393.210492 63.816238 
L 413.084905 63.816238 
L 413.084905 59.983842 
L 413.71839 59.983842 
L 413.71839 56.151446 
L 417.016456 56.151446 
L 417.037276 48.486653 
L 418.592059 48.486653 
L 418.592059 44.654257 
L 418.752071 44.654257 
L 418.752071 40.821861 
L 419.254275 40.821861 
L 419.254275 36.989465 
L 420.21625 36.989465 
L 420.21625 33.157069 
L 420.74206 33.157069 
L 420.74206 29.324673 
L 421.334491 29.324673 
L 421.334491 25.492277 
L 423.45446 25.492277 
L 423.45446 21.659881 
L 423.843939 21.659881 
L 423.843939 17.827485 
L 426.607736 17.827485 
L 426.607736 13.995089 
L 429.022535 13.995089 
L 429.022535 10.162693 
L 433.238021 10.162693 
L 433.238021 6.330297 
L 433.238021 6.330297 
L 460.8 6.330297 
L 460.8 6.330297 
" clip-path="url(#p471783530e)" style="fill: none; stroke: #00bfbf; stroke-width: 1.5; stroke-linecap: square"/>
   </g>
   <g id="line2d_23">
    <path d="M 241.352333 293.76 
L 241.352333 289.927604 
L 243.219641 289.927604 
L 243.219641 286.095208 
L 243.977713 286.095208 
L 243.977713 282.262812 
L 244.907757 282.262812 
L 244.907757 278.430416 
L 245.71459 278.430416 
L 245.71459 274.59802 
L 246.531216 274.59802 
L 246.531216 270.765624 
L 246.874603 270.765624 
L 246.874603 266.933228 
L 247.590531 266.933228 
L 247.590531 263.100832 
L 247.936947 263.100832 
L 247.936947 259.268436 
L 249.508005 259.268436 
L 249.508005 255.43604 
L 250.538693 255.43604 
L 250.538693 251.603644 
L 251.9446 251.603644 
L 251.9446 247.771248 
L 252.523102 247.771248 
L 252.523102 243.938851 
L 256.842648 243.938851 
L 256.842648 240.106455 
L 258.057409 240.106455 
L 258.057409 236.274059 
L 280.280121 236.274059 
L 280.280121 232.441663 
L 280.836582 232.441663 
L 280.836582 228.609267 
L 282.810576 228.609267 
L 282.810576 224.776871 
L 283.959152 224.776871 
L 283.959152 220.944475 
L 285.667106 220.944475 
L 285.667106 217.112079 
L 287.281786 217.112079 
L 287.281786 213.279683 
L 289.923956 213.279683 
L 289.923956 209.447287 
L 290.143804 209.447287 
L 290.143804 205.614891 
L 290.585139 205.614891 
L 290.585139 201.782495 
L 290.873175 201.782495 
L 290.873175 197.950099 
L 291.030264 197.950099 
L 291.030264 194.117703 
L 291.215152 194.117703 
L 291.260825 182.620515 
L 292.175733 182.620515 
L 292.207739 174.955723 
L 292.489861 174.955723 
L 292.489861 171.123327 
L 293.122858 171.123327 
L 293.122858 167.290931 
L 293.30707 167.290931 
L 293.30707 163.458535 
L 293.605276 163.458535 
L 293.605276 159.626139 
L 299.683999 159.626139 
L 299.683999 155.793743 
L 305.648941 155.793743 
L 305.648941 151.961347 
L 306.757486 151.961347 
L 306.757486 148.12895 
L 309.466164 148.12895 
L 309.466164 144.296554 
L 319.26982 144.296554 
L 319.26982 140.464158 
L 324.695376 140.464158 
L 324.695376 136.631762 
L 327.953891 136.631762 
L 327.953891 132.799366 
L 333.075384 132.799366 
L 333.075384 128.96697 
L 334.376272 128.96697 
L 334.376272 125.134574 
L 360.238668 125.134574 
L 360.285448 117.469782 
L 361.377459 117.469782 
L 361.377459 113.637386 
L 364.009519 113.637386 
L 364.009519 109.80499 
L 364.682769 109.80499 
L 364.682769 105.972594 
L 365.031789 105.972594 
L 365.031789 102.140198 
L 368.891849 102.140198 
L 368.891849 98.307802 
L 370.296183 98.307802 
L 370.296183 94.475406 
L 372.344988 94.475406 
L 372.344988 90.64301 
L 374.661427 90.64301 
L 374.661427 86.810614 
L 375.394798 86.810614 
L 375.394798 82.978218 
L 376.140562 82.978218 
L 376.140562 79.145822 
L 376.568627 79.145822 
L 376.568627 75.313426 
L 377.416388 75.313426 
L 377.416388 71.48103 
L 381.86235 71.48103 
L 381.86235 67.648634 
L 383.690658 67.648634 
L 383.690658 63.816238 
L 409.573137 63.816238 
L 409.573137 59.983842 
L 413.084905 59.983842 
L 413.084905 56.151446 
L 413.926695 56.151446 
L 413.926695 52.31905 
L 416.965529 52.31905 
L 417.037276 40.821861 
L 417.469831 40.821861 
L 417.469831 36.989465 
L 418.679517 36.989465 
L 418.752071 29.324673 
L 420.21625 29.324673 
L 420.21625 25.492277 
L 420.74206 25.492277 
L 420.74206 21.659881 
L 421.739656 21.659881 
L 421.739656 17.827485 
L 426.607736 17.827485 
L 426.607736 13.995089 
L 429.022535 13.995089 
L 429.022535 10.162693 
L 429.246033 10.162693 
L 429.246033 6.330297 
L 429.246033 6.330297 
L 460.8 6.330297 
L 460.8 6.330297 
" clip-path="url(#p471783530e)" style="fill: none; stroke: #bf00bf; stroke-width: 1.5; stroke-linecap: square"/>
   </g>
   <g id="line2d_24">
    <path d="M 235.328222 293.76 
L 235.328222 289.927604 
L 236.842368 289.927604 
L 236.842368 286.095208 
L 237.615231 286.095208 
L 237.615231 282.262812 
L 238.738094 282.262812 
L 238.738094 278.430416 
L 238.927525 278.430416 
L 238.927525 274.59802 
L 239.130461 274.59802 
L 239.130461 270.765624 
L 239.349559 270.765624 
L 239.349559 266.933228 
L 240.047738 266.933228 
L 240.047738 263.100832 
L 240.630602 263.100832 
L 240.630602 259.268436 
L 244.139326 259.268436 
L 244.139326 255.43604 
L 244.5421 255.43604 
L 244.5421 251.603644 
L 245.290747 251.603644 
L 245.290747 247.771248 
L 245.430738 247.771248 
L 245.430738 243.938851 
L 245.71459 243.938851 
L 245.71459 240.106455 
L 249.92904 240.106455 
L 249.92904 236.274059 
L 265.575798 236.274059 
L 265.575798 232.441663 
L 266.688766 232.441663 
L 266.688766 228.609267 
L 268.007099 228.609267 
L 268.007099 224.776871 
L 271.808852 224.776871 
L 271.808852 220.944475 
L 272.520895 220.944475 
L 272.520895 217.112079 
L 276.187663 217.112079 
L 276.187663 213.279683 
L 280.280121 213.279683 
L 280.280121 209.447287 
L 280.836582 209.447287 
L 280.836582 205.614891 
L 282.810576 205.614891 
L 282.810576 201.782495 
L 283.959152 201.782495 
L 283.959152 197.950099 
L 284.259693 197.950099 
L 284.259693 194.117703 
L 284.976194 194.117703 
L 284.976194 190.285307 
L 287.223339 190.285307 
L 287.223339 186.452911 
L 287.718439 186.452911 
L 287.718439 182.620515 
L 288.156376 182.620515 
L 288.156376 178.788119 
L 288.355023 178.788119 
L 288.355023 174.955723 
L 288.550052 174.955723 
L 288.550052 171.123327 
L 289.089781 171.123327 
L 289.089781 167.290931 
L 289.523152 167.290931 
L 289.523152 163.458535 
L 290.145188 163.458535 
L 290.207996 155.793743 
L 290.43153 155.793743 
L 290.43153 151.961347 
L 290.848453 151.961347 
L 290.848453 148.12895 
L 291.986784 148.12895 
L 291.986784 144.296554 
L 296.957305 144.296554 
L 296.957305 140.464158 
L 299.683999 140.464158 
L 299.683999 136.631762 
L 306.048464 136.631762 
L 306.048464 132.799366 
L 309.064761 132.799366 
L 309.064761 128.96697 
L 321.338376 128.96697 
L 321.338376 125.134574 
L 331.639183 125.134574 
L 331.639183 121.302178 
L 357.69389 121.302178 
L 357.69389 117.469782 
L 360.285448 117.469782 
L 360.285448 113.637386 
L 361.377459 113.637386 
L 361.377459 109.80499 
L 361.898446 109.80499 
L 361.898446 105.972594 
L 362.028946 105.972594 
L 362.028946 102.140198 
L 362.703613 102.140198 
L 362.703613 98.307802 
L 364.618572 98.307802 
L 364.618572 94.475406 
L 365.031789 94.475406 
L 365.031789 90.64301 
L 365.376081 90.64301 
L 365.410513 82.978218 
L 366.135901 82.978218 
L 366.135901 79.145822 
L 368.586002 79.145822 
L 368.586002 75.313426 
L 370.13259 75.313426 
L 370.13259 71.48103 
L 374.213592 71.48103 
L 374.213592 67.648634 
L 376.067888 67.648634 
L 376.067888 63.816238 
L 407.01892 63.816238 
L 407.01892 59.983842 
L 408.612012 59.983842 
L 408.612012 56.151446 
L 410.03261 56.151446 
L 410.03261 52.31905 
L 411.241553 52.31905 
L 411.323303 40.821861 
L 411.90157 40.821861 
L 411.90157 36.989465 
L 412.575571 36.989465 
L 412.575571 33.157069 
L 412.708863 33.157069 
L 412.708863 29.324673 
L 413.124872 29.324673 
L 413.124872 25.492277 
L 413.658275 25.492277 
L 413.658275 21.659881 
L 415.449947 21.659881 
L 415.449947 17.827485 
L 415.868466 17.827485 
L 415.868466 13.995089 
L 416.947581 13.995089 
L 416.965529 6.330297 
L 416.965529 6.330297 
L 460.8 6.330297 
L 460.8 6.330297 
" clip-path="url(#p471783530e)" style="fill: none; stroke: #000000; stroke-width: 1.5; stroke-linecap: square"/>
   </g>
   <g id="line2d_25">
    <path d="M 228.612244 293.76 
L 228.612244 289.927604 
L 228.73169 289.927604 
L 228.73169 286.095208 
L 231.019195 286.095208 
L 231.019195 282.262812 
L 231.567008 282.262812 
L 231.608046 270.765624 
L 231.758331 270.765624 
L 231.758331 266.933228 
L 233.17084 266.933228 
L 233.17084 263.100832 
L 234.865309 263.100832 
L 234.942423 255.43604 
L 235.076384 255.43604 
L 235.076384 251.603644 
L 235.358445 251.603644 
L 235.358445 247.771248 
L 236.031979 247.771248 
L 236.031979 243.938851 
L 238.014055 243.938851 
L 238.014055 240.106455 
L 238.530284 240.106455 
L 238.530284 236.274059 
L 265.575798 236.274059 
L 265.575798 232.441663 
L 266.688766 232.441663 
L 266.688766 228.609267 
L 268.007099 228.609267 
L 268.007099 224.776871 
L 270.758806 224.776871 
L 270.758806 220.944475 
L 270.973509 220.944475 
L 270.973509 217.112079 
L 271.808852 217.112079 
L 271.808852 213.279683 
L 272.520895 213.279683 
L 272.520895 209.447287 
L 273.504307 209.447287 
L 273.577663 201.782495 
L 275.519261 201.782495 
L 275.519261 197.950099 
L 275.831463 197.950099 
L 275.831463 194.117703 
L 276.187663 194.117703 
L 276.187663 190.285307 
L 276.655368 190.285307 
L 276.655368 186.452911 
L 277.090094 186.452911 
L 277.090094 182.620515 
L 280.241083 182.620515 
L 280.241083 178.788119 
L 281.054647 178.788119 
L 281.054647 174.955723 
L 281.641742 174.955723 
L 281.668682 167.290931 
L 282.154261 167.290931 
L 282.154261 163.458535 
L 282.361525 163.458535 
L 282.36746 155.793743 
L 282.646368 155.793743 
L 282.646368 151.961347 
L 282.867785 151.961347 
L 282.867785 148.12895 
L 283.047053 148.12895 
L 283.155486 140.464158 
L 283.539611 140.464158 
L 283.539611 136.631762 
L 284.015016 136.631762 
L 284.015016 132.799366 
L 284.861532 132.799366 
L 284.861532 128.96697 
L 285.140663 128.96697 
L 285.140663 125.134574 
L 285.49956 125.134574 
L 285.49956 121.302178 
L 351.304024 121.302178 
L 351.304024 117.469782 
L 351.427109 117.469782 
L 351.427109 113.637386 
L 351.807618 113.637386 
L 351.807618 109.80499 
L 353.101977 109.80499 
L 353.101977 105.972594 
L 353.540145 105.972594 
L 353.540145 102.140198 
L 355.041323 102.140198 
L 355.041323 98.307802 
L 355.19005 98.307802 
L 355.19005 94.475406 
L 356.349643 94.475406 
L 356.349643 90.64301 
L 357.69389 90.64301 
L 357.69389 86.810614 
L 358.959587 86.810614 
L 359.066546 79.145822 
L 359.240596 79.145822 
L 359.240596 75.313426 
L 360.439366 75.313426 
L 360.518695 67.648634 
L 363.246125 67.648634 
L 363.246125 63.816238 
L 393.432963 63.816238 
L 393.432963 59.983842 
L 395.710706 59.983842 
L 395.710706 56.151446 
L 395.901485 56.151446 
L 395.901485 52.31905 
L 396.037115 52.31905 
L 396.037115 48.486653 
L 397.476994 48.486653 
L 397.476994 44.654257 
L 397.635562 44.654257 
L 397.635562 40.821861 
L 398.077999 40.821861 
L 398.132729 33.157069 
L 400.006556 33.157069 
L 400.006556 29.324673 
L 401.837828 29.324673 
L 401.837828 25.492277 
L 402.300572 25.492277 
L 402.300572 21.659881 
L 403.737814 21.659881 
L 403.737814 17.827485 
L 403.96946 17.827485 
L 403.96946 13.995089 
L 406.010799 13.995089 
L 406.010799 10.162693 
L 406.194362 10.162693 
L 406.194362 6.330297 
L 406.194362 6.330297 
L 460.8 6.330297 
L 460.8 6.330297 
" clip-path="url(#p471783530e)" style="fill: none; stroke: #00bfbf; stroke-width: 1.5; stroke-linecap: square"/>
   </g>
   <g id="line2d_26">
    <path d="M 144.294252 293.76 
L 144.294252 289.927604 
L 146.553001 289.927604 
L 146.553001 286.095208 
L 147.535891 286.095208 
L 147.535891 282.262812 
L 147.655194 282.262812 
L 147.655194 278.430416 
L 148.185417 278.430416 
L 148.185417 274.59802 
L 148.802912 274.59802 
L 148.802912 270.765624 
L 149.131097 270.765624 
L 149.131097 266.933228 
L 150.891388 266.933228 
L 150.891388 263.100832 
L 151.923029 263.100832 
L 151.923029 259.268436 
L 152.48192 259.268436 
L 152.48192 255.43604 
L 152.923868 255.43604 
L 152.969249 247.771248 
L 154.092563 247.771248 
L 154.092563 243.938851 
L 155.352077 243.938851 
L 155.388283 236.274059 
L 207.570213 236.274059 
L 207.570213 232.441663 
L 209.867553 232.441663 
L 209.867553 228.609267 
L 210.847689 228.609267 
L 210.847689 224.776871 
L 211.085259 224.776871 
L 211.085259 220.944475 
L 214.81482 220.944475 
L 214.81482 217.112079 
L 216.178672 217.112079 
L 216.178672 213.279683 
L 216.377731 213.279683 
L 216.377731 209.447287 
L 216.708642 209.447287 
L 216.708642 205.614891 
L 220.176547 205.614891 
L 220.176547 201.782495 
L 220.810484 201.782495 
L 220.810484 197.950099 
L 222.726654 197.950099 
L 222.726654 194.117703 
L 223.249188 194.117703 
L 223.249188 190.285307 
L 224.490468 190.285307 
L 224.490468 186.452911 
L 232.524405 186.452911 
L 232.524405 182.620515 
L 232.991911 182.620515 
L 233.004181 174.955723 
L 234.657565 174.955723 
L 234.657565 171.123327 
L 235.94044 171.123327 
L 235.94044 167.290931 
L 236.359319 167.290931 
L 236.359319 163.458535 
L 240.677474 163.458535 
L 240.677474 159.626139 
L 241.429122 159.626139 
L 241.429122 155.793743 
L 241.599589 155.793743 
L 241.599589 151.961347 
L 241.829961 151.961347 
L 241.829961 148.12895 
L 242.097126 148.12895 
L 242.097126 144.296554 
L 244.1643 144.296554 
L 244.1643 140.464158 
L 244.841489 140.464158 
L 244.841489 136.631762 
L 245.557731 136.631762 
L 245.557731 132.799366 
L 246.495427 132.799366 
L 246.495427 128.96697 
L 247.627219 128.96697 
L 247.627219 125.134574 
L 255.783985 125.134574 
L 255.783985 121.302178 
L 265.575798 121.302178 
L 265.575798 117.469782 
L 266.688766 117.469782 
L 266.688766 113.637386 
L 268.007099 113.637386 
L 268.007099 109.80499 
L 268.755898 109.80499 
L 268.755898 105.972594 
L 268.968936 105.972594 
L 268.968936 102.140198 
L 269.664955 102.140198 
L 269.664955 98.307802 
L 270.758806 98.307802 
L 270.758806 94.475406 
L 270.973509 94.475406 
L 270.973509 90.64301 
L 271.808852 90.64301 
L 271.808852 86.810614 
L 272.396618 86.810614 
L 272.396618 82.978218 
L 272.520895 82.978218 
L 272.520895 79.145822 
L 274.601113 79.145822 
L 274.601113 75.313426 
L 274.989756 75.313426 
L 274.989756 71.48103 
L 275.519261 71.48103 
L 275.519261 67.648634 
L 277.090094 67.648634 
L 277.090094 63.816238 
L 302.73129 63.816238 
L 302.73129 59.983842 
L 303.257269 59.983842 
L 303.257269 56.151446 
L 304.098916 56.151446 
L 304.098916 52.31905 
L 304.791294 52.31905 
L 304.791294 48.486653 
L 309.421668 48.486653 
L 309.421668 44.654257 
L 313.141784 44.654257 
L 313.141784 40.821861 
L 314.404125 40.821861 
L 314.404125 36.989465 
L 317.141732 36.989465 
L 317.141732 33.157069 
L 317.910906 33.157069 
L 317.910906 29.324673 
L 320.13056 29.324673 
L 320.13056 25.492277 
L 320.466983 25.492277 
L 320.466983 21.659881 
L 320.939473 21.659881 
L 320.939473 17.827485 
L 323.967587 17.827485 
L 323.967587 13.995089 
L 324.151456 13.995089 
L 324.151456 10.162693 
L 327.457272 10.162693 
L 327.457272 6.330297 
L 327.457272 6.330297 
L 460.8 6.330297 
L 460.8 6.330297 
" clip-path="url(#p471783530e)" style="fill: none; stroke: #bf00bf; stroke-width: 1.5; stroke-linecap: square"/>
   </g>
   <g id="line2d_27">
    <path d="M -1 174.955723 
L -0.833916 174.955723 
L -0.833916 171.123327 
L -0.468937 171.123327 
L -0.392237 155.793743 
L -0.34622 155.793743 
L -0.242784 136.631762 
L -0.206027 136.631762 
L -0.137281 121.302178 
L 113.148922 121.302178 
L 113.148922 117.469782 
L 130.875059 117.469782 
L 130.875059 113.637386 
L 131.499575 113.637386 
L 131.499575 109.80499 
L 137.742251 109.80499 
L 137.742251 105.972594 
L 140.46703 105.972594 
L 140.46703 102.140198 
L 145.684822 102.140198 
L 145.684822 98.307802 
L 149.2956 98.307802 
L 149.2956 94.475406 
L 153.79372 94.475406 
L 153.79372 90.64301 
L 160.815155 90.64301 
L 160.815155 86.810614 
L 164.126958 86.810614 
L 164.126958 82.978218 
L 173.965778 82.978218 
L 173.965778 79.145822 
L 174.293946 79.145822 
L 174.293946 75.313426 
L 179.217387 75.313426 
L 179.217387 71.48103 
L 179.780816 71.48103 
L 179.780816 67.648634 
L 181.540226 67.648634 
L 181.540226 63.816238 
L 184.571375 63.816238 
L 184.571375 59.983842 
L 185.638277 59.983842 
L 185.638277 56.151446 
L 191.141755 56.151446 
L 191.141755 52.31905 
L 191.710553 52.31905 
L 191.710553 48.486653 
L 192.939936 48.486653 
L 192.939936 44.654257 
L 194.213849 44.654257 
L 194.213849 40.821861 
L 195.439625 40.821861 
L 195.439625 36.989465 
L 201.196847 36.989465 
L 201.196847 33.157069 
L 202.926702 33.157069 
L 202.926702 29.324673 
L 203.703396 29.324673 
L 203.703396 25.492277 
L 205.655329 25.492277 
L 205.655329 21.659881 
L 216.364573 21.659881 
L 216.364573 17.827485 
L 221.110096 17.827485 
L 221.110096 13.995089 
L 222.014731 13.995089 
L 222.014731 10.162693 
L 232.280147 10.162693 
L 232.280147 6.330297 
L 232.280147 6.330297 
L 460.8 6.330297 
L 460.8 6.330297 
" clip-path="url(#p471783530e)" style="fill: none; stroke: #000000; stroke-width: 1.5; stroke-linecap: square"/>
   </g>
   <g id="patch_3">
    <path d="M 0 293.76 
L 0 3.456 
" style="fill: none; stroke: #000000; stroke-width: 0.8; stroke-linejoin: miter; stroke-linecap: square"/>
   </g>
   <g id="patch_4">
    <path d="M 460.8 293.76 
L 460.8 3.456 
" style="fill: none; stroke: #000000; stroke-width: 0.8; stroke-linejoin: miter; stroke-linecap: square"/>
   </g>
   <g id="patch_5">
    <path d="M 0 293.76 
L 460.8 293.76 
" style="fill: none; stroke: #000000; stroke-width: 0.8; stroke-linejoin: miter; stroke-linecap: square"/>
   </g>
   <g id="patch_6">
    <path d="M 0 3.456 
L 460.8 3.456 
" style="fill: none; stroke: #000000; stroke-width: 0.8; stroke-linejoin: miter; stroke-linecap: square"/>
   </g>
   <g id="text_6">
    <!-- {f10-f14}, 20-D -->
    <g transform="translate(293.159 287.95392)scale(0.2 -0.2)">
     <defs>
      <path id="DejaVuSans-7b" d="M 3272 -594 
L 3272 -1044 
L 3078 -1044 
Q 2300 -1044 2036 -812 
Q 1772 -581 1772 109 
L 1772 856 
Q 1772 1328 1603 1509 
Q 1434 1691 991 1691 
L 800 1691 
L 800 2138 
L 991 2138 
Q 1438 2138 1605 2317 
Q 1772 2497 1772 2963 
L 1772 3713 
Q 1772 4403 2036 4633 
Q 2300 4863 3078 4863 
L 3272 4863 
L 3272 4416 
L 3059 4416 
Q 2619 4416 2484 4278 
Q 2350 4141 2350 3700 
L 2350 2925 
Q 2350 2434 2208 2212 
Q 2066 1991 1722 1913 
Q 2069 1828 2209 1606 
Q 2350 1384 2350 897 
L 2350 122 
Q 2350 -319 2484 -456 
Q 2619 -594 3059 -594 
L 3272 -594 
z
" transform="scale(0.015625)"/>
      <path id="DejaVuSans-7d" d="M 800 -594 
L 1019 -594 
Q 1456 -594 1589 -459 
Q 1722 -325 1722 122 
L 1722 897 
Q 1722 1384 1862 1606 
Q 2003 1828 2350 1913 
Q 2003 1991 1862 2212 
Q 1722 2434 1722 2925 
L 1722 3700 
Q 1722 4144 1589 4280 
Q 1456 4416 1019 4416 
L 800 4416 
L 800 4863 
L 997 4863 
Q 1775 4863 2036 4633 
Q 2297 4403 2297 3713 
L 2297 2963 
Q 2297 2497 2465 2317 
Q 2634 2138 3078 2138 
L 3272 2138 
L 3272 1691 
L 3078 1691 
Q 2634 1691 2465 1509 
Q 2297 1328 2297 856 
L 2297 109 
Q 2297 -581 2036 -812 
Q 1775 -1044 997 -1044 
L 800 -1044 
L 800 -594 
z
" transform="scale(0.015625)"/>
      <path id="DejaVuSans-2c" d="M 750 794 
L 1409 794 
L 1409 256 
L 897 -744 
L 494 -744 
L 750 256 
L 750 794 
z
" transform="scale(0.015625)"/>
      <path id="DejaVuSans-32" d="M 1228 531 
L 3431 531 
L 3431 0 
L 469 0 
L 469 531 
Q 828 903 1448 1529 
Q 2069 2156 2228 2338 
Q 2531 2678 2651 2914 
Q 2772 3150 2772 3378 
Q 2772 3750 2511 3984 
Q 2250 4219 1831 4219 
Q 1534 4219 1204 4116 
Q 875 4013 500 3803 
L 500 4441 
Q 881 4594 1212 4672 
Q 1544 4750 1819 4750 
Q 2544 4750 2975 4387 
Q 3406 4025 3406 3419 
Q 3406 3131 3298 2873 
Q 3191 2616 2906 2266 
Q 2828 2175 2409 1742 
Q 1991 1309 1228 531 
z
" transform="scale(0.015625)"/>
     </defs>
     <use xlink:href="#DejaVuSans-7b"/>
     <use xlink:href="#DejaVuSans-66" x="63.623047"/>
     <use xlink:href="#DejaVuSans-31" x="98.828125"/>
     <use xlink:href="#DejaVuSans-30" x="162.451172"/>
     <use xlink:href="#DejaVuSans-2d" x="226.074219"/>
     <use xlink:href="#DejaVuSans-66" x="262.158203"/>
     <use xlink:href="#DejaVuSans-31" x="297.363281"/>
     <use xlink:href="#DejaVuSans-34" x="360.986328"/>
     <use xlink:href="#DejaVuSans-7d" x="424.609375"/>
     <use xlink:href="#DejaVuSans-2c" x="488.232422"/>
     <use xlink:href="#DejaVuSans-20" x="520.019531"/>
     <use xlink:href="#DejaVuSans-32" x="551.806641"/>
     <use xlink:href="#DejaVuSans-30" x="615.429688"/>
     <use xlink:href="#DejaVuSans-2d" x="679.052734"/>
     <use xlink:href="#DejaVuSans-44" x="715.136719"/>
    </g>
   </g>
   <g id="text_7">
    <!-- v2.6.3 -->
    <g style="fill: #808080" transform="translate(214.71875 288.777272)scale(0.1 -0.1)">
     <defs>
      <path id="DejaVuSans-76" d="M 191 3500 
L 800 3500 
L 1894 563 
L 2988 3500 
L 3597 3500 
L 2284 0 
L 1503 0 
L 191 3500 
z
" transform="scale(0.015625)"/>
      <path id="DejaVuSans-2e" d="M 684 794 
L 1344 794 
L 1344 0 
L 684 0 
L 684 794 
z
" transform="scale(0.015625)"/>
      <path id="DejaVuSans-36" d="M 2113 2584 
Q 1688 2584 1439 2293 
Q 1191 2003 1191 1497 
Q 1191 994 1439 701 
Q 1688 409 2113 409 
Q 2538 409 2786 701 
Q 3034 994 3034 1497 
Q 3034 2003 2786 2293 
Q 2538 2584 2113 2584 
z
M 3366 4563 
L 3366 3988 
Q 3128 4100 2886 4159 
Q 2644 4219 2406 4219 
Q 1781 4219 1451 3797 
Q 1122 3375 1075 2522 
Q 1259 2794 1537 2939 
Q 1816 3084 2150 3084 
Q 2853 3084 3261 2657 
Q 3669 2231 3669 1497 
Q 3669 778 3244 343 
Q 2819 -91 2113 -91 
Q 1303 -91 875 529 
Q 447 1150 447 2328 
Q 447 3434 972 4092 
Q 1497 4750 2381 4750 
Q 2619 4750 2861 4703 
Q 3103 4656 3366 4563 
z
" transform="scale(0.015625)"/>
      <path id="DejaVuSans-33" d="M 2597 2516 
Q 3050 2419 3304 2112 
Q 3559 1806 3559 1356 
Q 3559 666 3084 287 
Q 2609 -91 1734 -91 
Q 1441 -91 1130 -33 
Q 819 25 488 141 
L 488 750 
Q 750 597 1062 519 
Q 1375 441 1716 441 
Q 2309 441 2620 675 
Q 2931 909 2931 1356 
Q 2931 1769 2642 2001 
Q 2353 2234 1838 2234 
L 1294 2234 
L 1294 2753 
L 1863 2753 
Q 2328 2753 2575 2939 
Q 2822 3125 2822 3475 
Q 2822 3834 2567 4026 
Q 2313 4219 1838 4219 
Q 1578 4219 1281 4162 
Q 984 4106 628 3988 
L 628 4550 
Q 988 4650 1302 4700 
Q 1616 4750 1894 4750 
Q 2613 4750 3031 4423 
Q 3450 4097 3450 3541 
Q 3450 3153 3228 2886 
Q 3006 2619 2597 2516 
z
" transform="scale(0.015625)"/>
     </defs>
     <use xlink:href="#DejaVuSans-76"/>
     <use xlink:href="#DejaVuSans-32" x="59.179688"/>
     <use xlink:href="#DejaVuSans-2e" x="122.802734"/>
     <use xlink:href="#DejaVuSans-36" x="154.589844"/>
     <use xlink:href="#DejaVuSans-2e" x="218.212891"/>
     <use xlink:href="#DejaVuSans-33" x="250"/>
    </g>
   </g>
  </g>
 </g>
 <defs>
  <clipPath id="p471783530e">
   <rect x="0" y="3.456" width="460.8" height="290.304"/>
  </clipPath>
 </defs>
</svg>
