<?xml version="1.0" encoding="utf-8" standalone="no"?>
<!DOCTYPE svg PUBLIC "-//W3C//DTD SVG 1.1//EN"
  "http://www.w3.org/Graphics/SVG/1.1/DTD/svg11.dtd">
<svg xmlns:xlink="http://www.w3.org/1999/xlink" width="460.8pt" height="345.6pt" viewBox="0 0 460.8 345.6" xmlns="http://www.w3.org/2000/svg" version="1.1">
 <metadata>
  <rdf:RDF xmlns:dc="http://purl.org/dc/elements/1.1/" xmlns:cc="http://creativecommons.org/ns#" xmlns:rdf="http://www.w3.org/1999/02/22-rdf-syntax-ns#">
   <cc:Work>
    <dc:type rdf:resource="http://purl.org/dc/dcmitype/StillImage"/>
    <dc:date>2023-04-07T14:55:24.225933</dc:date>
    <dc:format>image/svg+xml</dc:format>
    <dc:creator>
     <cc:Agent>
      <dc:title>Matplotlib v3.5.2, https://matplotlib.org/</dc:title>
     </cc:Agent>
    </dc:creator>
   </cc:Work>
  </rdf:RDF>
 </metadata>
 <defs>
  <style type="text/css">*{stroke-linejoin: round; stroke-linecap: butt}</style>
 </defs>
 <g id="figure_1">
  <g id="patch_1">
   <path d="M 0 345.6 
L 460.8 345.6 
L 460.8 0 
L 0 0 
z
" style="fill: #ffffff"/>
  </g>
  <g id="axes_1">
   <g id="patch_2">
    <path d="M 62.208 293.76 
L 460.8 293.76 
L 460.8 3.456 
L 62.208 3.456 
z
" style="fill: #ffffff"/>
   </g>
   <g id="line2d_1"/>
   <g id="line2d_2">
    <path d="M 378.92894 293.76 
L 378.92894 282.262812 
L 383.020812 282.262812 
L 383.020812 270.765624 
L 383.020812 270.765624 
L 383.020812 270.765624 
L 460.8 270.765624 
" clip-path="url(#p508e0fb572)" style="fill: none; stroke: #f5deb3; stroke-width: 1.5; stroke-linecap: square"/>
   </g>
   <g id="line2d_3"/>
   <g id="line2d_4"/>
   <g id="line2d_5"/>
   <g id="line2d_6"/>
   <g id="line2d_7">
    <path d="M 343.449082 293.76 
L 343.449082 289.927604 
L 367.830676 289.927604 
L 367.830676 286.095208 
L 373.811119 286.095208 
L 373.811119 282.262812 
L 374.326579 282.262812 
L 374.326579 278.430416 
L 375.012399 278.430416 
L 375.012399 274.59802 
L 379.523829 274.59802 
L 379.523829 270.765624 
L 379.738449 270.765624 
L 379.738449 266.933228 
L 382.013858 266.933228 
L 382.013858 263.100832 
L 387.69059 263.100832 
L 387.69059 259.268436 
L 392.868876 259.268436 
L 392.868876 255.43604 
L 393.244849 255.43604 
L 393.244849 251.603644 
L 394.553298 251.603644 
L 394.553298 247.771248 
L 404.873026 247.771248 
L 404.873026 243.938851 
L 409.533015 243.938851 
L 409.533015 240.106455 
L 412.574319 240.106455 
L 412.574319 236.274059 
L 416.236319 236.274059 
L 416.236319 232.441663 
L 417.958493 232.441663 
L 417.958493 228.609267 
L 419.314433 228.609267 
L 419.314433 224.776871 
L 422.852372 224.776871 
L 422.900186 217.112079 
L 422.999644 217.112079 
L 422.999644 213.279683 
L 424.199638 213.279683 
L 424.199638 209.447287 
L 428.540824 209.447287 
L 428.540824 205.614891 
L 433.189037 205.614891 
L 433.189037 201.782495 
L 442.326227 201.782495 
L 442.326227 197.950099 
L 442.863931 197.950099 
L 442.863931 194.117703 
L 446.308953 194.117703 
L 446.308953 190.285307 
L 450.850064 190.285307 
L 450.850064 186.452911 
L 453.200424 186.452911 
L 453.200424 182.620515 
L 455.596779 182.620515 
L 455.596779 178.788119 
L 460.595264 178.788119 
L 460.595264 174.955723 
L 461.8 174.955723 
L 461.8 174.955723 
" clip-path="url(#p508e0fb572)" style="fill: none; stroke: #f5deb3; stroke-width: 1.5; stroke-linecap: square"/>
   </g>
   <g id="line2d_8">
    <path d="M 361.349139 293.76 
L 361.349139 289.927604 
L 362.75039 289.927604 
L 362.75039 286.095208 
L 363.180919 286.095208 
L 363.180919 282.262812 
L 363.360306 282.262812 
L 363.360306 278.430416 
L 363.874262 278.430416 
L 363.874262 274.59802 
L 363.889461 274.59802 
L 363.889461 270.765624 
L 378.491443 270.765624 
L 378.491443 266.933228 
L 379.365382 266.933228 
L 379.365382 263.100832 
L 379.984555 263.100832 
L 379.984555 259.268436 
L 380.058721 259.268436 
L 380.058721 255.43604 
L 380.498309 255.43604 
L 380.498309 251.603644 
L 380.915524 251.603644 
L 380.915524 247.771248 
L 380.921537 247.771248 
L 380.921537 243.938851 
L 381.287738 243.938851 
L 381.287738 240.106455 
L 381.304455 240.106455 
L 381.304455 236.274059 
L 381.602805 236.274059 
L 381.602805 232.441663 
L 383.129163 232.441663 
L 383.129163 228.609267 
L 419.813944 228.609267 
L 419.813944 224.776871 
L 420.370414 224.776871 
L 420.370414 220.944475 
L 420.370414 220.944475 
L 420.370414 220.944475 
L 460.8 220.944475 
" clip-path="url(#p508e0fb572)" style="fill: none; stroke: #f5deb3; stroke-width: 1.5; stroke-linecap: square"/>
   </g>
   <g id="line2d_9">
    <path d="M 243.564369 293.76 
L 243.564369 289.927604 
L 282.311297 289.927604 
L 282.311297 286.095208 
L 282.899249 286.095208 
L 282.899249 282.262812 
L 283.625156 282.262812 
L 283.625156 278.430416 
L 286.709031 278.430416 
L 286.709031 274.59802 
L 290.869855 274.59802 
L 290.869855 270.765624 
L 291.352371 270.765624 
L 291.352371 266.933228 
L 291.515513 266.933228 
L 291.515513 263.100832 
L 292.398504 263.100832 
L 292.409816 255.43604 
L 292.668911 255.43604 
L 292.668911 251.603644 
L 292.992691 251.603644 
L 292.992691 247.771248 
L 300.342862 247.771248 
L 300.342862 243.938851 
L 305.406256 243.938851 
L 305.406256 240.106455 
L 306.190497 240.106455 
L 306.190497 236.274059 
L 307.104492 236.274059 
L 307.104492 232.441663 
L 307.842381 232.441663 
L 307.842381 228.609267 
L 308.975078 228.609267 
L 309.029504 220.944475 
L 313.669628 220.944475 
L 313.669628 217.112079 
L 314.717051 217.112079 
L 314.717051 213.279683 
L 315.573752 213.279683 
L 315.573752 209.447287 
L 315.820366 209.447287 
L 315.820366 205.614891 
L 316.092518 205.614891 
L 316.092518 201.782495 
L 316.220932 201.782495 
L 316.302635 194.117703 
L 316.413966 194.117703 
L 316.413966 190.285307 
L 316.654337 190.285307 
L 316.654337 186.452911 
L 317.661184 186.452911 
L 317.760182 178.788119 
L 317.93659 178.788119 
L 317.93659 174.955723 
L 318.376036 174.955723 
L 318.376036 171.123327 
L 319.023058 171.123327 
L 319.023058 167.290931 
L 319.977457 167.290931 
L 320.018748 159.626139 
L 320.467146 159.626139 
L 320.467146 155.793743 
L 321.429675 155.793743 
L 321.515575 148.12895 
L 325.338013 148.12895 
L 325.338013 144.296554 
L 330.897897 144.296554 
L 330.897897 140.464158 
L 331.162952 140.464158 
L 331.200888 132.799366 
L 332.310617 132.799366 
L 332.310617 128.96697 
L 336.227097 128.96697 
L 336.227097 125.134574 
L 338.005379 125.134574 
L 338.005379 121.302178 
L 339.047698 121.302178 
L 339.047698 117.469782 
L 341.251019 117.469782 
L 341.251019 113.637386 
L 341.706378 113.637386 
L 341.706378 109.80499 
L 342.679812 109.80499 
L 342.679812 105.972594 
L 343.420648 105.972594 
L 343.420648 102.140198 
L 343.599134 102.140198 
L 343.599134 98.307802 
L 348.240499 98.307802 
L 348.240499 94.475406 
L 349.876843 94.475406 
L 349.904064 86.810614 
L 350.385412 86.810614 
L 350.385412 82.978218 
L 350.73685 82.978218 
L 350.73685 79.145822 
L 350.880522 79.145822 
L 350.880522 75.313426 
L 352.982479 75.313426 
L 352.982479 71.48103 
L 355.207673 71.48103 
L 355.207673 67.648634 
L 355.397936 67.648634 
L 355.397936 63.816238 
L 358.203292 63.816238 
L 358.203292 59.983842 
L 360.489261 59.983842 
L 360.489261 56.151446 
L 363.154379 56.151446 
L 363.154379 52.31905 
L 363.735239 52.31905 
L 363.735239 48.486653 
L 377.825656 48.486653 
L 377.825656 44.654257 
L 383.863641 44.654257 
L 383.863641 40.821861 
L 383.992845 40.821861 
L 383.992845 36.989465 
L 387.036617 36.989465 
L 387.036617 33.157069 
L 395.629104 33.157069 
L 395.629104 29.324673 
L 397.157308 29.324673 
L 397.157308 25.492277 
L 401.518883 25.492277 
L 401.518883 21.659881 
L 406.363786 21.659881 
L 406.363786 17.827485 
L 407.968634 17.827485 
L 408.056475 10.162693 
L 420.862546 10.162693 
L 420.862546 6.330297 
L 420.862546 6.330297 
L 460.8 6.330297 
L 460.8 6.330297 
" clip-path="url(#p508e0fb572)" style="fill: none; stroke: #f5deb3; stroke-width: 1.5; stroke-linecap: square"/>
   </g>
   <g id="line2d_10"/>
   <g id="line2d_11">
    <path d="M 396.049313 293.76 
L 396.049313 289.927604 
L 442.552466 289.927604 
L 442.552466 286.095208 
L 449.393895 286.095208 
L 449.393895 282.262812 
L 456.622186 282.262812 
L 456.622186 278.430416 
L 457.808915 278.430416 
L 457.808915 274.59802 
L 461.8 274.59802 
" clip-path="url(#p508e0fb572)" style="fill: none; stroke: #f5deb3; stroke-width: 1.5; stroke-linecap: square"/>
   </g>
   <g id="line2d_12"/>
   <g id="line2d_13"/>
   <g id="line2d_14"/>
   <g id="line2d_15"/>
   <g id="line2d_16"/>
   <g id="line2d_17">
    <path d="M 355.007152 293.76 
L 355.007152 289.927604 
L 357.216339 289.927604 
L 357.216339 286.095208 
L 358.183692 286.095208 
L 358.183692 282.262812 
L 359.495477 282.262812 
L 359.495477 278.430416 
L 362.040535 278.430416 
L 362.040535 274.59802 
L 362.158253 274.59802 
L 362.158253 270.765624 
L 363.37446 270.765624 
L 363.37446 266.933228 
L 363.71042 266.933228 
L 363.71042 263.100832 
L 363.842574 263.100832 
L 363.842574 259.268436 
L 366.941593 259.268436 
L 366.941593 255.43604 
L 367.394564 255.43604 
L 367.394564 251.603644 
L 374.440437 251.603644 
L 374.440437 247.771248 
L 380.430859 247.771248 
L 380.430859 243.938851 
L 380.508586 243.938851 
L 380.508586 240.106455 
L 380.554222 240.106455 
L 380.554222 236.274059 
L 383.145315 236.274059 
L 383.145315 232.441663 
L 383.81725 232.441663 
L 383.81725 228.609267 
L 386.127959 228.609267 
L 386.127959 224.776871 
L 387.264526 224.776871 
L 387.264526 220.944475 
L 388.157564 220.944475 
L 388.157564 217.112079 
L 389.353231 217.112079 
L 389.353231 213.279683 
L 390.799786 213.279683 
L 390.799786 209.447287 
L 394.946925 209.447287 
L 394.946925 205.614891 
L 395.815606 205.614891 
L 395.815606 201.782495 
L 397.792795 201.782495 
L 397.792795 197.950099 
L 398.74628 197.950099 
L 398.74628 194.117703 
L 401.164657 194.117703 
L 401.164657 190.285307 
L 402.250242 190.285307 
L 402.250242 186.452911 
L 402.250242 186.452911 
L 402.250242 186.452911 
L 460.8 186.452911 
" clip-path="url(#p508e0fb572)" style="fill: none; stroke: #f5deb3; stroke-width: 1.5; stroke-linecap: square"/>
   </g>
   <g id="line2d_18"/>
   <g id="line2d_19">
    <path d="M 370.813544 293.76 
L 370.813544 289.927604 
L 401.554455 289.927604 
L 401.554455 286.095208 
L 410.47672 286.095208 
L 410.47672 282.262812 
L 413.439895 282.262812 
L 413.439895 278.430416 
L 421.105419 278.430416 
L 421.105419 274.59802 
L 426.164627 274.59802 
L 426.164627 270.765624 
L 427.189246 270.765624 
L 427.189246 266.933228 
L 428.421763 266.933228 
L 428.421763 263.100832 
L 430.644417 263.100832 
L 430.644417 259.268436 
L 432.741175 259.268436 
L 432.741175 255.43604 
L 432.911994 255.43604 
L 432.911994 251.603644 
L 434.150149 251.603644 
L 434.150149 247.771248 
L 436.909055 247.771248 
L 436.909055 243.938851 
L 446.363114 243.938851 
L 446.363114 240.106455 
L 447.26248 240.106455 
L 447.26248 236.274059 
L 448.554052 236.274059 
L 448.554052 232.441663 
L 450.620886 232.441663 
L 450.620886 228.609267 
L 460.526349 228.609267 
L 460.526349 224.776871 
L 461.18972 224.776871 
L 461.18972 220.944475 
L 461.8 220.944475 
L 461.8 220.944475 
" clip-path="url(#p508e0fb572)" style="fill: none; stroke: #f5deb3; stroke-width: 1.5; stroke-linecap: square"/>
   </g>
   <g id="line2d_20">
    <path d="M 356.399937 293.76 
L 356.399937 289.927604 
L 356.399937 289.927604 
L 356.399937 289.927604 
L 460.8 289.927604 
" clip-path="url(#p508e0fb572)" style="fill: none; stroke: #f5deb3; stroke-width: 1.5; stroke-linecap: square"/>
   </g>
   <g id="line2d_21"/>
   <g id="line2d_22">
    <path d="M 370.947963 293.76 
L 370.947963 289.927604 
L 390.533534 289.927604 
L 390.533534 286.095208 
L 410.389069 286.095208 
L 410.389069 282.262812 
L 420.014147 282.262812 
L 420.014147 278.430416 
L 434.747066 278.430416 
L 434.747066 274.59802 
L 434.747066 274.59802 
L 434.747066 274.59802 
L 460.8 274.59802 
" clip-path="url(#p508e0fb572)" style="fill: none; stroke: #f5deb3; stroke-width: 1.5; stroke-linecap: square"/>
   </g>
   <g id="line2d_23">
    <path d="M 388.263669 293.76 
L 388.263669 289.927604 
L 395.474993 289.927604 
L 395.474993 286.095208 
L 395.474993 286.095208 
L 395.474993 286.095208 
L 460.8 286.095208 
" clip-path="url(#p508e0fb572)" style="fill: none; stroke: #f5deb3; stroke-width: 1.5; stroke-linecap: square"/>
   </g>
   <g id="line2d_24">
    <path d="M 272.079414 293.76 
L 272.079414 289.927604 
L 274.953329 289.927604 
L 274.953329 286.095208 
L 276.710264 286.095208 
L 276.710264 282.262812 
L 280.990508 282.262812 
L 280.990508 278.430416 
L 283.758103 278.430416 
L 283.758103 274.59802 
L 335.004809 274.59802 
L 335.004809 270.765624 
L 336.654229 270.765624 
L 336.654229 266.933228 
L 337.036954 266.933228 
L 337.036954 263.100832 
L 337.172151 263.100832 
L 337.172151 259.268436 
L 338.463855 259.268436 
L 338.463855 255.43604 
L 338.749561 255.43604 
L 338.832877 247.771248 
L 340.177108 247.771248 
L 340.177108 243.938851 
L 340.489784 243.938851 
L 340.5649 236.274059 
L 340.733926 236.274059 
L 340.733926 232.441663 
L 341.046438 232.441663 
L 341.046438 228.609267 
L 343.291198 228.609267 
L 343.291198 224.776871 
L 345.330058 224.776871 
L 345.330058 220.944475 
L 345.834794 220.944475 
L 345.834794 217.112079 
L 346.024675 217.112079 
L 346.024675 213.279683 
L 346.772275 213.279683 
L 346.772275 209.447287 
L 346.932324 209.447287 
L 346.932324 205.614891 
L 347.149797 205.614891 
L 347.231109 197.950099 
L 347.614861 197.950099 
L 347.725165 190.285307 
L 348.151413 190.285307 
L 348.151413 186.452911 
L 348.504278 186.452911 
L 348.607578 178.788119 
L 348.847347 178.788119 
L 348.847347 174.955723 
L 349.09035 174.955723 
L 349.125202 167.290931 
L 350.500117 167.290931 
L 350.517288 159.626139 
L 350.996323 159.626139 
L 350.996323 155.793743 
L 351.66606 155.793743 
L 351.66606 151.961347 
L 352.679523 151.961347 
L 352.679523 148.12895 
L 352.944431 148.12895 
L 352.944431 144.296554 
L 355.689002 144.296554 
L 355.689002 140.464158 
L 357.420763 140.464158 
L 357.420763 136.631762 
L 361.707839 136.631762 
L 361.707839 132.799366 
L 367.467844 132.799366 
L 367.467844 128.96697 
L 367.618432 128.96697 
L 367.618432 125.134574 
L 368.333506 125.134574 
L 368.333506 121.302178 
L 370.115755 121.302178 
L 370.115755 117.469782 
L 371.009621 117.469782 
L 371.009621 113.637386 
L 372.594508 113.637386 
L 372.594508 109.80499 
L 373.514963 109.80499 
L 373.514963 105.972594 
L 377.748718 105.972594 
L 377.748718 102.140198 
L 381.769093 102.140198 
L 381.769093 98.307802 
L 382.488282 98.307802 
L 382.488282 94.475406 
L 386.009845 94.475406 
L 386.009845 90.64301 
L 391.30427 90.64301 
L 391.30427 86.810614 
L 392.156998 86.810614 
L 392.156998 82.978218 
L 393.942216 82.978218 
L 393.980021 75.313426 
L 394.20819 75.313426 
L 394.20819 71.48103 
L 396.345851 71.48103 
L 396.345851 67.648634 
L 397.399109 67.648634 
L 397.399109 63.816238 
L 415.319487 63.816238 
L 415.319487 59.983842 
L 416.038652 59.983842 
L 416.038652 56.151446 
L 417.167374 56.151446 
L 417.167374 52.31905 
L 420.794704 52.31905 
L 420.794704 48.486653 
L 426.790534 48.486653 
L 426.790534 44.654257 
L 431.471928 44.654257 
L 431.471928 40.821861 
L 431.968039 40.821861 
L 431.968039 36.989465 
L 436.30859 36.989465 
L 436.30859 33.157069 
L 438.368198 33.157069 
L 438.368198 29.324673 
L 445.155515 29.324673 
L 445.155515 25.492277 
L 447.694025 25.492277 
L 447.694025 21.659881 
L 453.144539 21.659881 
L 453.144539 17.827485 
L 454.56821 17.827485 
L 454.56821 13.995089 
L 458.588156 13.995089 
L 458.588156 10.162693 
L 461.8 10.162693 
L 461.8 10.162693 
" clip-path="url(#p508e0fb572)" style="fill: none; stroke: #f5deb3; stroke-width: 1.5; stroke-linecap: square"/>
   </g>
   <g id="line2d_25">
    <path d="M 371.426437 293.76 
L 371.426437 289.927604 
L 374.158744 289.927604 
L 374.158744 286.095208 
L 374.32474 286.095208 
L 374.32474 282.262812 
L 375.487192 282.262812 
L 375.487192 278.430416 
L 376.981917 278.430416 
L 376.981917 274.59802 
L 377.564322 274.59802 
L 377.564322 270.765624 
L 377.812845 270.765624 
L 377.812845 266.933228 
L 378.512891 266.933228 
L 378.512891 263.100832 
L 378.546048 263.100832 
L 378.546048 259.268436 
L 380.391544 259.268436 
L 380.391544 255.43604 
L 381.39458 255.43604 
L 381.39458 251.603644 
L 400.14929 251.603644 
L 400.14929 247.771248 
L 400.72306 247.771248 
L 400.72306 243.938851 
L 401.176379 243.938851 
L 401.176379 240.106455 
L 401.565638 240.106455 
L 401.565638 236.274059 
L 401.658548 236.274059 
L 401.658548 232.441663 
L 401.888094 232.441663 
L 401.888094 228.609267 
L 402.213855 228.609267 
L 402.213855 224.776871 
L 402.246136 224.776871 
L 402.246136 220.944475 
L 402.316066 220.944475 
L 402.316066 217.112079 
L 402.317432 217.112079 
L 402.317432 213.279683 
L 402.344347 213.279683 
L 402.344347 209.447287 
L 402.353314 209.447287 
L 402.353314 205.614891 
L 402.409398 205.614891 
L 402.409398 201.782495 
L 402.554806 201.782495 
L 402.554806 197.950099 
L 402.577848 197.950099 
L 402.577848 194.117703 
L 402.688575 194.117703 
L 402.688575 190.285307 
L 403.014316 190.285307 
L 403.014316 186.452911 
L 403.161434 186.452911 
L 403.161434 182.620515 
L 403.192031 182.620515 
L 403.192031 178.788119 
L 403.27456 178.788119 
L 403.27456 174.955723 
L 403.324733 174.955723 
L 403.324733 171.123327 
L 403.583087 171.123327 
L 403.583087 167.290931 
L 403.685784 167.290931 
L 403.685784 163.458535 
L 403.875893 163.458535 
L 403.875893 159.626139 
L 409.224184 159.626139 
L 409.224184 155.793743 
L 432.424309 155.793743 
L 432.424309 151.961347 
L 432.424309 151.961347 
L 432.424309 151.961347 
L 460.8 151.961347 
" clip-path="url(#p508e0fb572)" style="fill: none; stroke: #f5deb3; stroke-width: 1.5; stroke-linecap: square"/>
   </g>
   <g id="line2d_26">
    <path d="M 323.10395 293.76 
L 323.10395 289.927604 
L 325.647959 289.927604 
L 325.647959 286.095208 
L 332.566143 286.095208 
L 332.566143 282.262812 
L 333.63915 282.262812 
L 333.63915 278.430416 
L 334.784733 278.430416 
L 334.784733 274.59802 
L 336.23153 274.59802 
L 336.23153 270.765624 
L 338.657803 270.765624 
L 338.657803 266.933228 
L 345.185526 266.933228 
L 345.185526 263.100832 
L 348.451489 263.100832 
L 348.451489 259.268436 
L 356.944901 259.268436 
L 356.944901 255.43604 
L 358.765159 255.43604 
L 358.765159 251.603644 
L 367.979044 251.603644 
L 367.979044 247.771248 
L 373.421949 247.771248 
L 373.421949 243.938851 
L 374.250607 243.938851 
L 374.250607 240.106455 
L 379.533633 240.106455 
L 379.533633 236.274059 
L 384.328025 236.274059 
L 384.328025 232.441663 
L 386.394707 232.441663 
L 386.394707 228.609267 
L 388.921407 228.609267 
L 388.921407 224.776871 
L 391.0082 224.776871 
L 391.0082 220.944475 
L 391.764434 220.944475 
L 391.764434 217.112079 
L 391.764434 217.112079 
L 391.764434 217.112079 
L 460.8 217.112079 
" clip-path="url(#p508e0fb572)" style="fill: none; stroke: #f5deb3; stroke-width: 1.5; stroke-linecap: square"/>
   </g>
   <g id="line2d_27"/>
   <g id="line2d_28">
    <path d="M 263.646884 293.76 
L 263.646884 289.927604 
L 275.46096 289.927604 
L 275.46096 286.095208 
L 313.245246 286.095208 
L 313.245246 282.262812 
L 324.5384 282.262812 
L 324.5384 278.430416 
L 327.777204 278.430416 
L 327.777204 274.59802 
L 329.691315 274.59802 
L 329.691315 270.765624 
L 345.130458 270.765624 
L 345.130458 266.933228 
L 345.817177 266.933228 
L 345.817177 263.100832 
L 347.482212 263.100832 
L 347.482212 259.268436 
L 348.185233 259.268436 
L 348.185233 255.43604 
L 349.11923 255.43604 
L 349.11923 251.603644 
L 351.01887 251.603644 
L 351.01887 247.771248 
L 351.929241 247.771248 
L 351.929241 243.938851 
L 352.871751 243.938851 
L 352.871751 240.106455 
L 353.428653 240.106455 
L 353.428653 236.274059 
L 358.593591 236.274059 
L 358.593591 232.441663 
L 358.790335 232.441663 
L 358.790335 228.609267 
L 359.293475 228.609267 
L 359.366281 220.944475 
L 359.653732 220.944475 
L 359.653732 217.112079 
L 366.554102 217.112079 
L 366.554102 213.279683 
L 368.266576 213.279683 
L 368.266576 209.447287 
L 369.035957 209.447287 
L 369.035957 205.614891 
L 369.636119 205.614891 
L 369.636119 201.782495 
L 370.113138 201.782495 
L 370.197275 194.117703 
L 372.096553 194.117703 
L 372.096553 190.285307 
L 372.239042 190.285307 
L 372.239042 186.452911 
L 372.714558 186.452911 
L 372.714558 182.620515 
L 375.617863 182.620515 
L 375.617863 178.788119 
L 376.870221 178.788119 
L 376.870221 174.955723 
L 377.024287 174.955723 
L 377.024287 171.123327 
L 377.221852 171.123327 
L 377.221852 167.290931 
L 377.906535 167.290931 
L 377.906535 163.458535 
L 378.860566 163.458535 
L 378.860566 159.626139 
L 380.03479 159.626139 
L 380.037107 151.961347 
L 380.297454 151.961347 
L 380.297454 148.12895 
L 381.298884 148.12895 
L 381.298884 144.296554 
L 381.677794 144.296554 
L 381.677794 140.464158 
L 382.283484 140.464158 
L 382.283484 136.631762 
L 382.695007 136.631762 
L 382.695007 132.799366 
L 383.260251 132.799366 
L 383.260251 128.96697 
L 383.589496 128.96697 
L 383.589496 125.134574 
L 385.118689 125.134574 
L 385.118689 121.302178 
L 386.554474 121.302178 
L 386.554474 117.469782 
L 386.714093 117.469782 
L 386.714093 113.637386 
L 387.238833 113.637386 
L 387.238833 109.80499 
L 388.531155 109.80499 
L 388.531155 105.972594 
L 389.35149 105.972594 
L 389.35149 102.140198 
L 396.674064 102.140198 
L 396.674064 98.307802 
L 399.508102 98.307802 
L 399.508102 94.475406 
L 403.666506 94.475406 
L 403.666506 90.64301 
L 404.026409 90.64301 
L 404.026409 86.810614 
L 404.370663 86.810614 
L 404.370663 82.978218 
L 406.912295 82.978218 
L 406.912295 79.145822 
L 407.400015 79.145822 
L 407.400015 75.313426 
L 411.742962 75.313426 
L 411.742962 71.48103 
L 412.856549 71.48103 
L 412.856549 67.648634 
L 416.872376 67.648634 
L 416.872376 63.816238 
L 417.033264 63.816238 
L 417.033264 59.983842 
L 436.663325 59.983842 
L 436.663325 56.151446 
L 436.816818 56.151446 
L 436.816818 52.31905 
L 437.069678 52.31905 
L 437.069678 48.486653 
L 439.673507 48.486653 
L 439.673507 44.654257 
L 447.879249 44.654257 
L 447.879249 40.821861 
L 461.8 40.821861 
L 461.8 40.821861 
" clip-path="url(#p508e0fb572)" style="fill: none; stroke: #f5deb3; stroke-width: 1.5; stroke-linecap: square"/>
   </g>
   <g id="line2d_29"/>
   <g id="line2d_30"/>
   <g id="matplotlib.axis_1">
    <g id="xtick_1">
     <g id="line2d_31">
      <path d="M 62.208 293.76 
L 62.208 3.456 
" clip-path="url(#p508e0fb572)" style="fill: none; stroke: #b0b0b0; stroke-width: 0.8; stroke-linecap: square"/>
     </g>
     <g id="line2d_32">
      <defs>
       <path id="m5d97e41e15" d="M 0 0 
L 0 3.5 
" style="stroke: #000000; stroke-width: 0.8"/>
      </defs>
      <g>
       <use xlink:href="#m5d97e41e15" x="62.208" y="293.76" style="stroke: #000000; stroke-width: 0.8"/>
      </g>
     </g>
     <g id="text_1">
      <!-- 0 -->
      <g transform="translate(55.8455 315.956875)scale(0.2 -0.2)">
       <defs>
        <path id="DejaVuSans-30" d="M 2034 4250 
Q 1547 4250 1301 3770 
Q 1056 3291 1056 2328 
Q 1056 1369 1301 889 
Q 1547 409 2034 409 
Q 2525 409 2770 889 
Q 3016 1369 3016 2328 
Q 3016 3291 2770 3770 
Q 2525 4250 2034 4250 
z
M 2034 4750 
Q 2819 4750 3233 4129 
Q 3647 3509 3647 2328 
Q 3647 1150 3233 529 
Q 2819 -91 2034 -91 
Q 1250 -91 836 529 
Q 422 1150 422 2328 
Q 422 3509 836 4129 
Q 1250 4750 2034 4750 
z
" transform="scale(0.015625)"/>
       </defs>
       <use xlink:href="#DejaVuSans-30"/>
      </g>
     </g>
    </g>
    <g id="xtick_2">
     <g id="line2d_33">
      <path d="M 212.54724 293.76 
L 212.54724 3.456 
" clip-path="url(#p508e0fb572)" style="fill: none; stroke: #b0b0b0; stroke-width: 0.8; stroke-linecap: square"/>
     </g>
     <g id="line2d_34">
      <g>
       <use xlink:href="#m5d97e41e15" x="212.54724" y="293.76" style="stroke: #000000; stroke-width: 0.8"/>
      </g>
     </g>
     <g id="text_2">
      <!-- 2 -->
      <g transform="translate(206.18474 315.956875)scale(0.2 -0.2)">
       <defs>
        <path id="DejaVuSans-32" d="M 1228 531 
L 3431 531 
L 3431 0 
L 469 0 
L 469 531 
Q 828 903 1448 1529 
Q 2069 2156 2228 2338 
Q 2531 2678 2651 2914 
Q 2772 3150 2772 3378 
Q 2772 3750 2511 3984 
Q 2250 4219 1831 4219 
Q 1534 4219 1204 4116 
Q 875 4013 500 3803 
L 500 4441 
Q 881 4594 1212 4672 
Q 1544 4750 1819 4750 
Q 2544 4750 2975 4387 
Q 3406 4025 3406 3419 
Q 3406 3131 3298 2873 
Q 3191 2616 2906 2266 
Q 2828 2175 2409 1742 
Q 1991 1309 1228 531 
z
" transform="scale(0.015625)"/>
       </defs>
       <use xlink:href="#DejaVuSans-32"/>
      </g>
     </g>
    </g>
    <g id="xtick_3">
     <g id="line2d_35">
      <path d="M 362.88648 293.76 
L 362.88648 3.456 
" clip-path="url(#p508e0fb572)" style="fill: none; stroke: #b0b0b0; stroke-width: 0.8; stroke-linecap: square"/>
     </g>
     <g id="line2d_36">
      <g>
       <use xlink:href="#m5d97e41e15" x="362.88648" y="293.76" style="stroke: #000000; stroke-width: 0.8"/>
      </g>
     </g>
     <g id="text_3">
      <!-- 4 -->
      <g transform="translate(356.52398 315.956875)scale(0.2 -0.2)">
       <defs>
        <path id="DejaVuSans-34" d="M 2419 4116 
L 825 1625 
L 2419 1625 
L 2419 4116 
z
M 2253 4666 
L 3047 4666 
L 3047 1625 
L 3713 1625 
L 3713 1100 
L 3047 1100 
L 3047 0 
L 2419 0 
L 2419 1100 
L 313 1100 
L 313 1709 
L 2253 4666 
z
" transform="scale(0.015625)"/>
       </defs>
       <use xlink:href="#DejaVuSans-34"/>
      </g>
     </g>
    </g>
    <g id="text_4">
     <!-- log10 of FEvals / DIM -->
     <g transform="translate(156.430563 339.313125)scale(0.2 -0.2)">
      <defs>
       <path id="DejaVuSans-6c" d="M 603 4863 
L 1178 4863 
L 1178 0 
L 603 0 
L 603 4863 
z
" transform="scale(0.015625)"/>
       <path id="DejaVuSans-6f" d="M 1959 3097 
Q 1497 3097 1228 2736 
Q 959 2375 959 1747 
Q 959 1119 1226 758 
Q 1494 397 1959 397 
Q 2419 397 2687 759 
Q 2956 1122 2956 1747 
Q 2956 2369 2687 2733 
Q 2419 3097 1959 3097 
z
M 1959 3584 
Q 2709 3584 3137 3096 
Q 3566 2609 3566 1747 
Q 3566 888 3137 398 
Q 2709 -91 1959 -91 
Q 1206 -91 779 398 
Q 353 888 353 1747 
Q 353 2609 779 3096 
Q 1206 3584 1959 3584 
z
" transform="scale(0.015625)"/>
       <path id="DejaVuSans-67" d="M 2906 1791 
Q 2906 2416 2648 2759 
Q 2391 3103 1925 3103 
Q 1463 3103 1205 2759 
Q 947 2416 947 1791 
Q 947 1169 1205 825 
Q 1463 481 1925 481 
Q 2391 481 2648 825 
Q 2906 1169 2906 1791 
z
M 3481 434 
Q 3481 -459 3084 -895 
Q 2688 -1331 1869 -1331 
Q 1566 -1331 1297 -1286 
Q 1028 -1241 775 -1147 
L 775 -588 
Q 1028 -725 1275 -790 
Q 1522 -856 1778 -856 
Q 2344 -856 2625 -561 
Q 2906 -266 2906 331 
L 2906 616 
Q 2728 306 2450 153 
Q 2172 0 1784 0 
Q 1141 0 747 490 
Q 353 981 353 1791 
Q 353 2603 747 3093 
Q 1141 3584 1784 3584 
Q 2172 3584 2450 3431 
Q 2728 3278 2906 2969 
L 2906 3500 
L 3481 3500 
L 3481 434 
z
" transform="scale(0.015625)"/>
       <path id="DejaVuSans-31" d="M 794 531 
L 1825 531 
L 1825 4091 
L 703 3866 
L 703 4441 
L 1819 4666 
L 2450 4666 
L 2450 531 
L 3481 531 
L 3481 0 
L 794 0 
L 794 531 
z
" transform="scale(0.015625)"/>
       <path id="DejaVuSans-20" transform="scale(0.015625)"/>
       <path id="DejaVuSans-66" d="M 2375 4863 
L 2375 4384 
L 1825 4384 
Q 1516 4384 1395 4259 
Q 1275 4134 1275 3809 
L 1275 3500 
L 2222 3500 
L 2222 3053 
L 1275 3053 
L 1275 0 
L 697 0 
L 697 3053 
L 147 3053 
L 147 3500 
L 697 3500 
L 697 3744 
Q 697 4328 969 4595 
Q 1241 4863 1831 4863 
L 2375 4863 
z
" transform="scale(0.015625)"/>
       <path id="DejaVuSans-46" d="M 628 4666 
L 3309 4666 
L 3309 4134 
L 1259 4134 
L 1259 2759 
L 3109 2759 
L 3109 2228 
L 1259 2228 
L 1259 0 
L 628 0 
L 628 4666 
z
" transform="scale(0.015625)"/>
       <path id="DejaVuSans-45" d="M 628 4666 
L 3578 4666 
L 3578 4134 
L 1259 4134 
L 1259 2753 
L 3481 2753 
L 3481 2222 
L 1259 2222 
L 1259 531 
L 3634 531 
L 3634 0 
L 628 0 
L 628 4666 
z
" transform="scale(0.015625)"/>
       <path id="DejaVuSans-76" d="M 191 3500 
L 800 3500 
L 1894 563 
L 2988 3500 
L 3597 3500 
L 2284 0 
L 1503 0 
L 191 3500 
z
" transform="scale(0.015625)"/>
       <path id="DejaVuSans-61" d="M 2194 1759 
Q 1497 1759 1228 1600 
Q 959 1441 959 1056 
Q 959 750 1161 570 
Q 1363 391 1709 391 
Q 2188 391 2477 730 
Q 2766 1069 2766 1631 
L 2766 1759 
L 2194 1759 
z
M 3341 1997 
L 3341 0 
L 2766 0 
L 2766 531 
Q 2569 213 2275 61 
Q 1981 -91 1556 -91 
Q 1019 -91 701 211 
Q 384 513 384 1019 
Q 384 1609 779 1909 
Q 1175 2209 1959 2209 
L 2766 2209 
L 2766 2266 
Q 2766 2663 2505 2880 
Q 2244 3097 1772 3097 
Q 1472 3097 1187 3025 
Q 903 2953 641 2809 
L 641 3341 
Q 956 3463 1253 3523 
Q 1550 3584 1831 3584 
Q 2591 3584 2966 3190 
Q 3341 2797 3341 1997 
z
" transform="scale(0.015625)"/>
       <path id="DejaVuSans-73" d="M 2834 3397 
L 2834 2853 
Q 2591 2978 2328 3040 
Q 2066 3103 1784 3103 
Q 1356 3103 1142 2972 
Q 928 2841 928 2578 
Q 928 2378 1081 2264 
Q 1234 2150 1697 2047 
L 1894 2003 
Q 2506 1872 2764 1633 
Q 3022 1394 3022 966 
Q 3022 478 2636 193 
Q 2250 -91 1575 -91 
Q 1294 -91 989 -36 
Q 684 19 347 128 
L 347 722 
Q 666 556 975 473 
Q 1284 391 1588 391 
Q 1994 391 2212 530 
Q 2431 669 2431 922 
Q 2431 1156 2273 1281 
Q 2116 1406 1581 1522 
L 1381 1569 
Q 847 1681 609 1914 
Q 372 2147 372 2553 
Q 372 3047 722 3315 
Q 1072 3584 1716 3584 
Q 2034 3584 2315 3537 
Q 2597 3491 2834 3397 
z
" transform="scale(0.015625)"/>
       <path id="DejaVuSans-2f" d="M 1625 4666 
L 2156 4666 
L 531 -594 
L 0 -594 
L 1625 4666 
z
" transform="scale(0.015625)"/>
       <path id="DejaVuSans-44" d="M 1259 4147 
L 1259 519 
L 2022 519 
Q 2988 519 3436 956 
Q 3884 1394 3884 2338 
Q 3884 3275 3436 3711 
Q 2988 4147 2022 4147 
L 1259 4147 
z
M 628 4666 
L 1925 4666 
Q 3281 4666 3915 4102 
Q 4550 3538 4550 2338 
Q 4550 1131 3912 565 
Q 3275 0 1925 0 
L 628 0 
L 628 4666 
z
" transform="scale(0.015625)"/>
       <path id="DejaVuSans-49" d="M 628 4666 
L 1259 4666 
L 1259 0 
L 628 0 
L 628 4666 
z
" transform="scale(0.015625)"/>
       <path id="DejaVuSans-4d" d="M 628 4666 
L 1569 4666 
L 2759 1491 
L 3956 4666 
L 4897 4666 
L 4897 0 
L 4281 0 
L 4281 4097 
L 3078 897 
L 2444 897 
L 1241 4097 
L 1241 0 
L 628 0 
L 628 4666 
z
" transform="scale(0.015625)"/>
      </defs>
      <use xlink:href="#DejaVuSans-6c"/>
      <use xlink:href="#DejaVuSans-6f" x="27.783203"/>
      <use xlink:href="#DejaVuSans-67" x="88.964844"/>
      <use xlink:href="#DejaVuSans-31" x="152.441406"/>
      <use xlink:href="#DejaVuSans-30" x="216.064453"/>
      <use xlink:href="#DejaVuSans-20" x="279.6875"/>
      <use xlink:href="#DejaVuSans-6f" x="311.474609"/>
      <use xlink:href="#DejaVuSans-66" x="372.65625"/>
      <use xlink:href="#DejaVuSans-20" x="407.861328"/>
      <use xlink:href="#DejaVuSans-46" x="439.648438"/>
      <use xlink:href="#DejaVuSans-45" x="497.167969"/>
      <use xlink:href="#DejaVuSans-76" x="560.351562"/>
      <use xlink:href="#DejaVuSans-61" x="619.53125"/>
      <use xlink:href="#DejaVuSans-6c" x="680.810547"/>
      <use xlink:href="#DejaVuSans-73" x="708.59375"/>
      <use xlink:href="#DejaVuSans-20" x="760.693359"/>
      <use xlink:href="#DejaVuSans-2f" x="792.480469"/>
      <use xlink:href="#DejaVuSans-20" x="826.171875"/>
      <use xlink:href="#DejaVuSans-44" x="857.958984"/>
      <use xlink:href="#DejaVuSans-49" x="934.960938"/>
      <use xlink:href="#DejaVuSans-4d" x="964.453125"/>
     </g>
    </g>
   </g>
   <g id="matplotlib.axis_2">
    <g id="ytick_1">
     <g id="line2d_37">
      <path d="M 62.208 293.76 
L 460.8 293.76 
" clip-path="url(#p508e0fb572)" style="fill: none; stroke: #b0b0b0; stroke-width: 0.8; stroke-linecap: square"/>
     </g>
     <g id="line2d_38">
      <defs>
       <path id="mb72e9cd5fb" d="M 0 0 
L -3.5 0 
" style="stroke: #000000; stroke-width: 0.8"/>
      </defs>
      <g>
       <use xlink:href="#mb72e9cd5fb" x="62.208" y="293.76" style="stroke: #000000; stroke-width: 0.8"/>
      </g>
     </g>
     <g id="text_5">
      <!-- 0.0 -->
      <g transform="translate(29.763 299.83875)scale(0.16 -0.16)">
       <defs>
        <path id="DejaVuSans-2e" d="M 684 794 
L 1344 794 
L 1344 0 
L 684 0 
L 684 794 
z
" transform="scale(0.015625)"/>
       </defs>
       <use xlink:href="#DejaVuSans-30"/>
       <use xlink:href="#DejaVuSans-2e" x="63.623047"/>
       <use xlink:href="#DejaVuSans-30" x="95.410156"/>
      </g>
     </g>
    </g>
    <g id="ytick_2">
     <g id="line2d_39">
      <path d="M 62.208 236.274059 
L 460.8 236.274059 
" clip-path="url(#p508e0fb572)" style="fill: none; stroke: #b0b0b0; stroke-width: 0.8; stroke-linecap: square"/>
     </g>
     <g id="line2d_40">
      <g>
       <use xlink:href="#mb72e9cd5fb" x="62.208" y="236.274059" style="stroke: #000000; stroke-width: 0.8"/>
      </g>
     </g>
     <g id="text_6">
      <!-- 0.2 -->
      <g transform="translate(29.763 242.352809)scale(0.16 -0.16)">
       <use xlink:href="#DejaVuSans-30"/>
       <use xlink:href="#DejaVuSans-2e" x="63.623047"/>
       <use xlink:href="#DejaVuSans-32" x="95.410156"/>
      </g>
     </g>
    </g>
    <g id="ytick_3">
     <g id="line2d_41">
      <path d="M 62.208 178.788119 
L 460.8 178.788119 
" clip-path="url(#p508e0fb572)" style="fill: none; stroke: #b0b0b0; stroke-width: 0.8; stroke-linecap: square"/>
     </g>
     <g id="line2d_42">
      <g>
       <use xlink:href="#mb72e9cd5fb" x="62.208" y="178.788119" style="stroke: #000000; stroke-width: 0.8"/>
      </g>
     </g>
     <g id="text_7">
      <!-- 0.4 -->
      <g transform="translate(29.763 184.866869)scale(0.16 -0.16)">
       <use xlink:href="#DejaVuSans-30"/>
       <use xlink:href="#DejaVuSans-2e" x="63.623047"/>
       <use xlink:href="#DejaVuSans-34" x="95.410156"/>
      </g>
     </g>
    </g>
    <g id="ytick_4">
     <g id="line2d_43">
      <path d="M 62.208 121.302178 
L 460.8 121.302178 
" clip-path="url(#p508e0fb572)" style="fill: none; stroke: #b0b0b0; stroke-width: 0.8; stroke-linecap: square"/>
     </g>
     <g id="line2d_44">
      <g>
       <use xlink:href="#mb72e9cd5fb" x="62.208" y="121.302178" style="stroke: #000000; stroke-width: 0.8"/>
      </g>
     </g>
     <g id="text_8">
      <!-- 0.6 -->
      <g transform="translate(29.763 127.380928)scale(0.16 -0.16)">
       <defs>
        <path id="DejaVuSans-36" d="M 2113 2584 
Q 1688 2584 1439 2293 
Q 1191 2003 1191 1497 
Q 1191 994 1439 701 
Q 1688 409 2113 409 
Q 2538 409 2786 701 
Q 3034 994 3034 1497 
Q 3034 2003 2786 2293 
Q 2538 2584 2113 2584 
z
M 3366 4563 
L 3366 3988 
Q 3128 4100 2886 4159 
Q 2644 4219 2406 4219 
Q 1781 4219 1451 3797 
Q 1122 3375 1075 2522 
Q 1259 2794 1537 2939 
Q 1816 3084 2150 3084 
Q 2853 3084 3261 2657 
Q 3669 2231 3669 1497 
Q 3669 778 3244 343 
Q 2819 -91 2113 -91 
Q 1303 -91 875 529 
Q 447 1150 447 2328 
Q 447 3434 972 4092 
Q 1497 4750 2381 4750 
Q 2619 4750 2861 4703 
Q 3103 4656 3366 4563 
z
" transform="scale(0.015625)"/>
       </defs>
       <use xlink:href="#DejaVuSans-30"/>
       <use xlink:href="#DejaVuSans-2e" x="63.623047"/>
       <use xlink:href="#DejaVuSans-36" x="95.410156"/>
      </g>
     </g>
    </g>
    <g id="ytick_5">
     <g id="line2d_45">
      <path d="M 62.208 63.816238 
L 460.8 63.816238 
" clip-path="url(#p508e0fb572)" style="fill: none; stroke: #b0b0b0; stroke-width: 0.8; stroke-linecap: square"/>
     </g>
     <g id="line2d_46">
      <g>
       <use xlink:href="#mb72e9cd5fb" x="62.208" y="63.816238" style="stroke: #000000; stroke-width: 0.8"/>
      </g>
     </g>
     <g id="text_9">
      <!-- 0.8 -->
      <g transform="translate(29.763 69.894988)scale(0.16 -0.16)">
       <defs>
        <path id="DejaVuSans-38" d="M 2034 2216 
Q 1584 2216 1326 1975 
Q 1069 1734 1069 1313 
Q 1069 891 1326 650 
Q 1584 409 2034 409 
Q 2484 409 2743 651 
Q 3003 894 3003 1313 
Q 3003 1734 2745 1975 
Q 2488 2216 2034 2216 
z
M 1403 2484 
Q 997 2584 770 2862 
Q 544 3141 544 3541 
Q 544 4100 942 4425 
Q 1341 4750 2034 4750 
Q 2731 4750 3128 4425 
Q 3525 4100 3525 3541 
Q 3525 3141 3298 2862 
Q 3072 2584 2669 2484 
Q 3125 2378 3379 2068 
Q 3634 1759 3634 1313 
Q 3634 634 3220 271 
Q 2806 -91 2034 -91 
Q 1263 -91 848 271 
Q 434 634 434 1313 
Q 434 1759 690 2068 
Q 947 2378 1403 2484 
z
M 1172 3481 
Q 1172 3119 1398 2916 
Q 1625 2713 2034 2713 
Q 2441 2713 2670 2916 
Q 2900 3119 2900 3481 
Q 2900 3844 2670 4047 
Q 2441 4250 2034 4250 
Q 1625 4250 1398 4047 
Q 1172 3844 1172 3481 
z
" transform="scale(0.015625)"/>
       </defs>
       <use xlink:href="#DejaVuSans-30"/>
       <use xlink:href="#DejaVuSans-2e" x="63.623047"/>
       <use xlink:href="#DejaVuSans-38" x="95.410156"/>
      </g>
     </g>
    </g>
    <g id="ytick_6">
     <g id="line2d_47">
      <path d="M 62.208 6.330297 
L 460.8 6.330297 
" clip-path="url(#p508e0fb572)" style="fill: none; stroke: #b0b0b0; stroke-width: 0.8; stroke-linecap: square"/>
     </g>
     <g id="line2d_48">
      <g>
       <use xlink:href="#mb72e9cd5fb" x="62.208" y="6.330297" style="stroke: #000000; stroke-width: 0.8"/>
      </g>
     </g>
     <g id="text_10">
      <!-- 1.0 -->
      <g transform="translate(29.763 12.409047)scale(0.16 -0.16)">
       <use xlink:href="#DejaVuSans-31"/>
       <use xlink:href="#DejaVuSans-2e" x="63.623047"/>
       <use xlink:href="#DejaVuSans-30" x="95.410156"/>
      </g>
     </g>
    </g>
    <g id="text_11">
     <!-- proportion of trials -->
     <g transform="translate(21.603625 241.61425)rotate(-90)scale(0.2 -0.2)">
      <defs>
       <path id="DejaVuSans-70" d="M 1159 525 
L 1159 -1331 
L 581 -1331 
L 581 3500 
L 1159 3500 
L 1159 2969 
Q 1341 3281 1617 3432 
Q 1894 3584 2278 3584 
Q 2916 3584 3314 3078 
Q 3713 2572 3713 1747 
Q 3713 922 3314 415 
Q 2916 -91 2278 -91 
Q 1894 -91 1617 61 
Q 1341 213 1159 525 
z
M 3116 1747 
Q 3116 2381 2855 2742 
Q 2594 3103 2138 3103 
Q 1681 3103 1420 2742 
Q 1159 2381 1159 1747 
Q 1159 1113 1420 752 
Q 1681 391 2138 391 
Q 2594 391 2855 752 
Q 3116 1113 3116 1747 
z
" transform="scale(0.015625)"/>
       <path id="DejaVuSans-72" d="M 2631 2963 
Q 2534 3019 2420 3045 
Q 2306 3072 2169 3072 
Q 1681 3072 1420 2755 
Q 1159 2438 1159 1844 
L 1159 0 
L 581 0 
L 581 3500 
L 1159 3500 
L 1159 2956 
Q 1341 3275 1631 3429 
Q 1922 3584 2338 3584 
Q 2397 3584 2469 3576 
Q 2541 3569 2628 3553 
L 2631 2963 
z
" transform="scale(0.015625)"/>
       <path id="DejaVuSans-74" d="M 1172 4494 
L 1172 3500 
L 2356 3500 
L 2356 3053 
L 1172 3053 
L 1172 1153 
Q 1172 725 1289 603 
Q 1406 481 1766 481 
L 2356 481 
L 2356 0 
L 1766 0 
Q 1100 0 847 248 
Q 594 497 594 1153 
L 594 3053 
L 172 3053 
L 172 3500 
L 594 3500 
L 594 4494 
L 1172 4494 
z
" transform="scale(0.015625)"/>
       <path id="DejaVuSans-69" d="M 603 3500 
L 1178 3500 
L 1178 0 
L 603 0 
L 603 3500 
z
M 603 4863 
L 1178 4863 
L 1178 4134 
L 603 4134 
L 603 4863 
z
" transform="scale(0.015625)"/>
       <path id="DejaVuSans-6e" d="M 3513 2113 
L 3513 0 
L 2938 0 
L 2938 2094 
Q 2938 2591 2744 2837 
Q 2550 3084 2163 3084 
Q 1697 3084 1428 2787 
Q 1159 2491 1159 1978 
L 1159 0 
L 581 0 
L 581 3500 
L 1159 3500 
L 1159 2956 
Q 1366 3272 1645 3428 
Q 1925 3584 2291 3584 
Q 2894 3584 3203 3211 
Q 3513 2838 3513 2113 
z
" transform="scale(0.015625)"/>
      </defs>
      <use xlink:href="#DejaVuSans-70"/>
      <use xlink:href="#DejaVuSans-72" x="63.476562"/>
      <use xlink:href="#DejaVuSans-6f" x="102.339844"/>
      <use xlink:href="#DejaVuSans-70" x="163.521484"/>
      <use xlink:href="#DejaVuSans-6f" x="226.998047"/>
      <use xlink:href="#DejaVuSans-72" x="288.179688"/>
      <use xlink:href="#DejaVuSans-74" x="329.292969"/>
      <use xlink:href="#DejaVuSans-69" x="368.501953"/>
      <use xlink:href="#DejaVuSans-6f" x="396.285156"/>
      <use xlink:href="#DejaVuSans-6e" x="457.466797"/>
      <use xlink:href="#DejaVuSans-20" x="520.845703"/>
      <use xlink:href="#DejaVuSans-6f" x="552.632812"/>
      <use xlink:href="#DejaVuSans-66" x="613.814453"/>
      <use xlink:href="#DejaVuSans-20" x="649.019531"/>
      <use xlink:href="#DejaVuSans-74" x="680.806641"/>
      <use xlink:href="#DejaVuSans-72" x="720.015625"/>
      <use xlink:href="#DejaVuSans-69" x="761.128906"/>
      <use xlink:href="#DejaVuSans-61" x="788.912109"/>
      <use xlink:href="#DejaVuSans-6c" x="850.191406"/>
      <use xlink:href="#DejaVuSans-73" x="877.974609"/>
     </g>
    </g>
   </g>
   <g id="line2d_49">
    <path d="M 9.66669 293.76 
L 9.66669 213.279683 
L 68.160024 213.279683 
L 68.160024 209.447287 
L 81.396737 209.447287 
L 81.396737 201.782495 
L 87.947783 201.782495 
L 87.947783 197.950099 
L 90.788335 197.950099 
L 90.788335 194.117703 
L 100.179932 194.117703 
L 100.179932 186.452911 
L 105.790113 186.452911 
L 105.790113 182.620515 
L 107.464621 182.620515 
L 107.464621 178.788119 
L 112.027254 178.788119 
L 112.027254 174.955723 
L 113.416645 174.955723 
L 113.416645 167.290931 
L 117.261761 167.290931 
L 117.261761 163.458535 
L 126.653358 163.458535 
L 126.653358 159.626139 
L 129.266412 159.626139 
L 129.266412 155.793743 
L 130.092931 155.793743 
L 130.092931 151.961347 
L 136.044955 151.961347 
L 136.044955 148.12895 
L 142.222903 148.12895 
L 142.222903 144.296554 
L 143.329644 144.296554 
L 143.329644 140.464158 
L 143.869256 140.464158 
L 143.869256 136.631762 
L 154.700378 136.631762 
L 154.700378 132.799366 
L 155.459616 132.799366 
L 155.459616 128.96697 
L 159.346398 128.96697 
L 159.346398 125.134574 
L 165.131436 125.134574 
L 165.131436 121.302178 
L 172.135902 121.302178 
L 172.135902 117.469782 
L 172.360272 117.469782 
L 172.360272 113.637386 
L 173.675044 113.637386 
L 173.675044 109.80499 
L 175.349552 109.80499 
L 175.349552 105.972594 
L 185.447576 105.972594 
L 185.447576 102.140198 
L 187.196874 102.140198 
L 187.196874 98.307802 
L 187.619935 98.307802 
L 187.619935 94.475406 
L 190.049252 94.475406 
L 190.049252 90.64301 
L 190.820447 90.64301 
L 190.820447 86.810614 
L 192.18866 86.810614 
L 192.18866 82.978218 
L 194.310792 82.978218 
L 194.310792 79.145822 
L 196.835923 79.145822 
L 196.835923 75.313426 
L 201.181947 75.313426 
L 201.274297 67.648634 
L 203.759412 67.648634 
L 203.759412 63.816238 
L 207.087698 63.816238 
L 207.087698 59.983842 
L 208.595853 59.983842 
L 208.595853 56.151446 
L 211.146492 56.151446 
L 211.146492 52.31905 
L 212.219139 52.31905 
L 212.219139 44.654257 
L 212.872076 44.654257 
L 212.872076 40.821861 
L 214.572432 40.821861 
L 214.572432 36.989465 
L 215.180378 36.989465 
L 215.180378 33.157069 
L 218.171163 33.157069 
L 218.171163 29.324673 
L 218.71618 29.324673 
L 218.71618 25.492277 
L 219.622325 25.492277 
L 219.622325 21.659881 
L 224.901582 21.659881 
L 224.901582 17.827485 
L 262.817565 17.827485 
L 262.817565 13.995089 
L 263.151825 13.995089 
L 263.151825 10.162693 
L 270.225214 10.162693 
L 270.225214 6.330297 
L 270.225214 6.330297 
L 460.8 6.330297 
L 460.8 6.330297 
" clip-path="url(#p508e0fb572)" style="fill: none; stroke: #000000; stroke-width: 1.5; stroke-linecap: square"/>
   </g>
   <g id="line2d_50">
    <path clip-path="url(#p508e0fb572)" style="fill: none; stroke: #000000; stroke-width: 1.5; stroke-linecap: square"/>
   </g>
   <g id="line2d_51">
    <path d="M 186.333941 293.76 
L 186.333941 289.927604 
L 198.181263 289.927604 
L 198.181263 286.095208 
L 203.844761 286.095208 
L 203.844761 282.262812 
L 204.099475 282.262812 
L 204.099475 278.430416 
L 204.268187 278.430416 
L 204.268187 274.59802 
L 205.016785 274.59802 
L 205.016785 270.765624 
L 205.262551 270.765624 
L 205.262551 266.933228 
L 206.06866 266.933228 
L 206.06866 263.100832 
L 206.22752 263.100832 
L 206.22752 259.268436 
L 210.248246 259.268436 
L 210.248246 255.43604 
L 211.146492 255.43604 
L 211.146492 251.603644 
L 211.620118 251.603644 
L 211.620118 247.771248 
L 213.448758 247.771248 
L 213.448758 243.938851 
L 214.756007 243.938851 
L 214.756007 240.106455 
L 214.938556 240.106455 
L 214.938556 236.274059 
L 217.950583 236.274059 
L 217.950583 232.441663 
L 218.390263 232.441663 
L 218.444809 224.776871 
L 222.440965 224.776871 
L 222.440965 220.944475 
L 223.109176 220.944475 
L 223.109176 217.112079 
L 224.040645 217.112079 
L 224.040645 213.279683 
L 224.677211 213.279683 
L 224.677211 209.447287 
L 227.76821 209.447287 
L 227.76821 205.614891 
L 231.554106 205.614891 
L 231.554106 201.782495 
L 233.501042 201.782495 
L 233.501042 197.950099 
L 235.468048 197.950099 
L 235.468048 194.117703 
L 246.966048 194.117703 
L 246.966048 190.285307 
L 254.868201 190.285307 
L 254.868201 186.452911 
L 264.06725 186.452911 
L 264.06725 182.620515 
L 264.970813 182.620515 
L 264.970813 178.788119 
L 265.439233 178.788119 
L 265.439233 174.955723 
L 270.169381 174.955723 
L 270.169381 171.123327 
L 270.280952 171.123327 
L 270.280952 167.290931 
L 270.975217 167.290931 
L 270.975217 163.458535 
L 273.723866 163.458535 
L 273.723866 159.626139 
L 275.31809 159.626139 
L 275.31809 155.793743 
L 276.682812 155.793743 
L 276.682812 151.961347 
L 278.080593 151.961347 
L 278.185676 144.296554 
L 278.94612 144.296554 
L 278.94612 140.464158 
L 279.243713 140.464158 
L 279.243713 136.631762 
L 279.588907 136.631762 
L 279.588907 132.799366 
L 280.268533 132.799366 
L 280.268533 128.96697 
L 280.9584 128.96697 
L 280.9584 125.134574 
L 281.68901 125.134574 
L 281.68901 121.302178 
L 282.156834 121.302178 
L 282.156834 117.469782 
L 284.364226 117.469782 
L 284.364226 113.637386 
L 285.319641 113.637386 
L 285.319641 109.80499 
L 285.627358 109.80499 
L 285.627358 105.972594 
L 301.557343 105.972594 
L 301.557343 102.140198 
L 302.905045 102.140198 
L 302.905045 98.307802 
L 304.87791 98.307802 
L 304.87791 94.475406 
L 308.780442 94.475406 
L 308.780442 90.64301 
L 312.703096 90.64301 
L 312.703096 86.810614 
L 314.181579 86.810614 
L 314.181579 82.978218 
L 317.262164 82.978218 
L 317.262164 79.145822 
L 317.786184 79.145822 
L 317.786184 75.313426 
L 320.89293 75.313426 
L 320.89293 71.48103 
L 326.780295 71.48103 
L 326.780295 67.648634 
L 327.790599 67.648634 
L 327.790599 63.816238 
L 328.186126 63.816238 
L 328.186126 59.983842 
L 328.692504 59.983842 
L 328.692504 56.151446 
L 329.684095 56.151446 
L 329.684095 52.31905 
L 330.244328 52.31905 
L 330.244328 48.486653 
L 330.403653 48.486653 
L 330.403653 44.654257 
L 330.774163 44.654257 
L 330.774163 40.821861 
L 332.064826 40.821861 
L 332.064826 36.989465 
L 333.335467 36.989465 
L 333.335467 33.157069 
L 333.760474 33.157069 
L 333.760474 29.324673 
L 336.1161 29.324673 
L 336.1161 25.492277 
L 337.570162 25.492277 
L 337.570162 21.659881 
L 347.74282 21.659881 
L 347.74282 17.827485 
L 348.403703 17.827485 
L 348.403703 13.995089 
L 350.007878 13.995089 
L 350.007878 10.162693 
L 366.379157 10.162693 
L 366.379157 6.330297 
L 366.379157 6.330297 
L 460.8 6.330297 
L 460.8 6.330297 
" clip-path="url(#p508e0fb572)" style="fill: none; stroke: #00bfbf; stroke-width: 1.5; stroke-linecap: square"/>
   </g>
   <g id="line2d_52">
    <path clip-path="url(#p508e0fb572)" style="fill: none; stroke: #00bfbf; stroke-width: 1.5; stroke-linecap: square"/>
   </g>
   <g id="line2d_53">
    <path d="M 235.37084 293.76 
L 235.37084 289.927604 
L 242.952721 289.927604 
L 242.952721 286.095208 
L 243.132305 286.095208 
L 243.132305 282.262812 
L 245.357328 282.262812 
L 245.357328 278.430416 
L 268.729902 278.430416 
L 268.729902 274.59802 
L 269.159228 274.59802 
L 269.159228 270.765624 
L 271.018803 270.765624 
L 271.018803 266.933228 
L 273.793954 266.933228 
L 273.793954 263.100832 
L 274.221221 263.100832 
L 274.221221 259.268436 
L 274.943675 259.268436 
L 274.943675 255.43604 
L 275.70713 255.43604 
L 275.70713 251.603644 
L 276.296031 251.603644 
L 276.296031 247.771248 
L 276.416239 247.771248 
L 276.416239 243.938851 
L 278.010349 243.938851 
L 278.010349 240.106455 
L 278.290422 240.106455 
L 278.290422 236.274059 
L 278.920485 236.274059 
L 278.9888 228.609267 
L 280.10407 228.609267 
L 280.10407 224.776871 
L 281.806596 224.776871 
L 281.806596 217.112079 
L 284.745463 217.112079 
L 284.745463 213.279683 
L 287.957549 213.279683 
L 288.022297 205.614891 
L 288.247908 205.614891 
L 288.247908 201.782495 
L 288.580248 201.782495 
L 288.580248 197.950099 
L 290.988201 197.950099 
L 290.988201 194.117703 
L 291.822103 194.117703 
L 291.822103 190.285307 
L 294.437814 190.285307 
L 294.437814 186.452911 
L 296.977612 186.452911 
L 296.977612 182.620515 
L 301.368787 182.620515 
L 301.368787 178.788119 
L 304.614386 178.788119 
L 304.614386 174.955723 
L 304.87791 174.955723 
L 304.87791 171.123327 
L 305.776334 171.123327 
L 305.776334 167.290931 
L 307.958489 167.290931 
L 307.958489 163.458535 
L 308.109165 163.458535 
L 308.109165 159.626139 
L 308.41191 159.626139 
L 308.41191 155.793743 
L 309.652309 155.793743 
L 309.652309 151.961347 
L 310.572895 151.961347 
L 310.572895 148.12895 
L 313.971919 148.12895 
L 313.971919 144.296554 
L 314.859509 144.296554 
L 314.859509 140.464158 
L 315.850717 140.464158 
L 315.850717 136.631762 
L 317.055494 136.631762 
L 317.055494 132.799366 
L 319.232598 132.799366 
L 319.232598 128.96697 
L 320.040587 128.96697 
L 320.040587 125.134574 
L 320.197882 125.134574 
L 320.197882 121.302178 
L 321.329559 121.302178 
L 321.329559 117.469782 
L 321.932566 117.469782 
L 321.932566 113.637386 
L 324.914548 113.637386 
L 324.914548 109.80499 
L 326.794105 109.80499 
L 326.794105 105.972594 
L 327.024068 105.972594 
L 327.024068 102.140198 
L 330.408951 102.140198 
L 330.408951 98.307802 
L 332.100052 98.307802 
L 332.100052 94.475406 
L 332.786868 94.475406 
L 332.804921 86.810614 
L 333.749319 86.810614 
L 333.749319 82.978218 
L 335.25539 82.978218 
L 335.25539 79.145822 
L 335.517655 79.145822 
L 335.517655 75.313426 
L 338.142206 75.313426 
L 338.142206 71.48103 
L 338.545151 71.48103 
L 338.545151 67.648634 
L 346.281936 67.648634 
L 346.281936 63.816238 
L 349.620046 63.816238 
L 349.709128 56.151446 
L 356.675135 56.151446 
L 356.675135 52.31905 
L 358.43833 52.31905 
L 358.43833 48.486653 
L 363.378962 48.486653 
L 363.378962 44.654257 
L 365.378975 44.654257 
L 365.400745 36.989465 
L 366.909862 36.989465 
L 366.909862 33.157069 
L 381.603541 33.157069 
L 381.603541 29.324673 
L 383.204585 29.324673 
L 383.204585 25.492277 
L 387.15729 25.492277 
L 387.15729 21.659881 
L 387.653921 21.659881 
L 387.653921 17.827485 
L 401.823579 17.827485 
L 401.823579 13.995089 
L 403.962093 13.995089 
L 403.962093 10.162693 
L 420.672499 10.162693 
L 420.672499 6.330297 
L 420.672499 6.330297 
L 460.8 6.330297 
L 460.8 6.330297 
" clip-path="url(#p508e0fb572)" style="fill: none; stroke: #bf00bf; stroke-width: 1.5; stroke-linecap: square"/>
   </g>
   <g id="line2d_54">
    <path clip-path="url(#p508e0fb572)" style="fill: none; stroke: #bf00bf; stroke-width: 1.5; stroke-linecap: square"/>
   </g>
   <g id="line2d_55">
    <path d="M 261.240169 293.76 
L 261.240169 289.927604 
L 273.16788 289.927604 
L 273.16788 286.095208 
L 278.333967 286.095208 
L 278.333967 282.262812 
L 279.530229 282.262812 
L 279.530229 278.430416 
L 280.120554 278.430416 
L 280.120554 274.59802 
L 281.81442 274.59802 
L 281.81442 270.765624 
L 282.411307 270.765624 
L 282.411307 266.933228 
L 282.906816 266.933228 
L 282.959732 259.268436 
L 283.985805 259.268436 
L 283.985805 255.43604 
L 285.319641 255.43604 
L 285.319641 251.603644 
L 285.987323 251.603644 
L 285.987323 247.771248 
L 287.664585 247.771248 
L 287.664585 243.938851 
L 290.04136 243.938851 
L 290.04136 240.106455 
L 291.643126 240.106455 
L 291.643126 236.274059 
L 291.850878 236.274059 
L 291.850878 232.441663 
L 292.60714 232.441663 
L 292.60714 228.609267 
L 294.031408 228.609267 
L 294.031408 224.776871 
L 297.846018 224.776871 
L 297.846018 220.944475 
L 300.643054 220.944475 
L 300.643054 217.112079 
L 307.463043 217.112079 
L 307.463043 213.279683 
L 307.926864 213.279683 
L 307.926864 209.447287 
L 309.652309 209.447287 
L 309.652309 205.614891 
L 310.468989 205.614891 
L 310.468989 201.782495 
L 312.514251 201.782495 
L 312.575288 194.117703 
L 313.245246 194.117703 
L 313.245246 190.285307 
L 314.0507 190.285307 
L 314.108933 182.620515 
L 314.340834 182.620515 
L 314.421612 174.955723 
L 315.173563 174.955723 
L 315.173563 171.123327 
L 316.538424 171.123327 
L 316.538424 167.290931 
L 316.705424 167.290931 
L 316.705424 163.458535 
L 317.783585 163.458535 
L 317.783585 159.626139 
L 318.927823 159.626139 
L 318.927823 155.793743 
L 321.522531 155.793743 
L 321.522531 151.961347 
L 321.824797 151.961347 
L 321.824797 148.12895 
L 322.565075 148.12895 
L 322.565075 144.296554 
L 322.833398 144.296554 
L 322.833398 140.464158 
L 323.49253 140.464158 
L 323.49253 136.631762 
L 323.766354 136.631762 
L 323.766354 132.799366 
L 324.078653 132.799366 
L 324.078653 128.96697 
L 327.550577 128.96697 
L 327.550577 125.134574 
L 329.156306 125.134574 
L 329.156306 121.302178 
L 329.35386 121.302178 
L 329.35386 117.469782 
L 332.673397 117.469782 
L 332.673397 113.637386 
L 333.619952 113.637386 
L 333.619952 109.80499 
L 334.34634 109.80499 
L 334.34634 105.972594 
L 334.877253 105.972594 
L 334.881872 98.307802 
L 335.179197 98.307802 
L 335.179197 94.475406 
L 335.559905 94.475406 
L 335.559905 90.64301 
L 335.969003 90.64301 
L 336.079017 82.978218 
L 337.399569 82.978218 
L 337.399569 79.145822 
L 337.601341 79.145822 
L 337.601341 75.313426 
L 339.312234 75.313426 
L 339.312234 71.48103 
L 340.1129 71.48103 
L 340.1129 67.648634 
L 347.804022 67.648634 
L 347.804022 63.816238 
L 351.867076 63.816238 
L 351.882628 56.151446 
L 357.409182 56.151446 
L 357.409182 52.31905 
L 359.170061 52.31905 
L 359.170061 48.486653 
L 363.935649 48.486653 
L 363.935649 44.654257 
L 366.138915 44.654257 
L 366.138915 40.821861 
L 366.331015 40.821861 
L 366.331015 36.989465 
L 367.40025 36.989465 
L 367.40025 33.157069 
L 382.335344 33.157069 
L 382.335344 29.324673 
L 383.890758 29.324673 
L 383.890758 25.492277 
L 387.862692 25.492277 
L 387.862692 21.659881 
L 388.426514 21.659881 
L 388.426514 17.827485 
L 402.597393 17.827485 
L 402.597393 13.995089 
L 404.7106 13.995089 
L 404.7106 10.162693 
L 421.593054 10.162693 
L 421.593054 6.330297 
L 421.593054 6.330297 
L 460.8 6.330297 
L 460.8 6.330297 
" clip-path="url(#p508e0fb572)" style="fill: none; stroke: #ff0000; stroke-width: 3; stroke-linecap: square"/>
   </g>
   <g id="line2d_56">
    <path clip-path="url(#p508e0fb572)" style="fill: none; stroke: #ff0000; stroke-width: 3; stroke-linecap: square"/>
   </g>
   <g id="line2d_57">
    <path d="M 421.593054 293.76 
L 421.593054 3.456 
" clip-path="url(#p508e0fb572)" style="fill: none; stroke: #000000; stroke-width: 1.5; stroke-linecap: square"/>
   </g>
   <g id="patch_3">
    <path d="M 62.208 293.76 
L 62.208 3.456 
" style="fill: none; stroke: #000000; stroke-width: 0.8; stroke-linejoin: miter; stroke-linecap: square"/>
   </g>
   <g id="patch_4">
    <path d="M 460.8 293.76 
L 460.8 3.456 
" style="fill: none; stroke: #000000; stroke-width: 0.8; stroke-linejoin: miter; stroke-linecap: square"/>
   </g>
   <g id="patch_5">
    <path d="M 62.208 293.76 
L 460.8 293.76 
" style="fill: none; stroke: #000000; stroke-width: 0.8; stroke-linejoin: miter; stroke-linecap: square"/>
   </g>
   <g id="patch_6">
    <path d="M 62.208 3.456 
L 460.8 3.456 
" style="fill: none; stroke: #000000; stroke-width: 0.8; stroke-linejoin: miter; stroke-linecap: square"/>
   </g>
   <g id="text_12">
    <!-- {f15-f19}, 5-D -->
    <g transform="translate(188.654 24.458955)scale(0.2 -0.2)">
     <defs>
      <path id="DejaVuSans-7b" d="M 3272 -594 
L 3272 -1044 
L 3078 -1044 
Q 2300 -1044 2036 -812 
Q 1772 -581 1772 109 
L 1772 856 
Q 1772 1328 1603 1509 
Q 1434 1691 991 1691 
L 800 1691 
L 800 2138 
L 991 2138 
Q 1438 2138 1605 2317 
Q 1772 2497 1772 2963 
L 1772 3713 
Q 1772 4403 2036 4633 
Q 2300 4863 3078 4863 
L 3272 4863 
L 3272 4416 
L 3059 4416 
Q 2619 4416 2484 4278 
Q 2350 4141 2350 3700 
L 2350 2925 
Q 2350 2434 2208 2212 
Q 2066 1991 1722 1913 
Q 2069 1828 2209 1606 
Q 2350 1384 2350 897 
L 2350 122 
Q 2350 -319 2484 -456 
Q 2619 -594 3059 -594 
L 3272 -594 
z
" transform="scale(0.015625)"/>
      <path id="DejaVuSans-35" d="M 691 4666 
L 3169 4666 
L 3169 4134 
L 1269 4134 
L 1269 2991 
Q 1406 3038 1543 3061 
Q 1681 3084 1819 3084 
Q 2600 3084 3056 2656 
Q 3513 2228 3513 1497 
Q 3513 744 3044 326 
Q 2575 -91 1722 -91 
Q 1428 -91 1123 -41 
Q 819 9 494 109 
L 494 744 
Q 775 591 1075 516 
Q 1375 441 1709 441 
Q 2250 441 2565 725 
Q 2881 1009 2881 1497 
Q 2881 1984 2565 2268 
Q 2250 2553 1709 2553 
Q 1456 2553 1204 2497 
Q 953 2441 691 2322 
L 691 4666 
z
" transform="scale(0.015625)"/>
      <path id="DejaVuSans-2d" d="M 313 2009 
L 1997 2009 
L 1997 1497 
L 313 1497 
L 313 2009 
z
" transform="scale(0.015625)"/>
      <path id="DejaVuSans-39" d="M 703 97 
L 703 672 
Q 941 559 1184 500 
Q 1428 441 1663 441 
Q 2288 441 2617 861 
Q 2947 1281 2994 2138 
Q 2813 1869 2534 1725 
Q 2256 1581 1919 1581 
Q 1219 1581 811 2004 
Q 403 2428 403 3163 
Q 403 3881 828 4315 
Q 1253 4750 1959 4750 
Q 2769 4750 3195 4129 
Q 3622 3509 3622 2328 
Q 3622 1225 3098 567 
Q 2575 -91 1691 -91 
Q 1453 -91 1209 -44 
Q 966 3 703 97 
z
M 1959 2075 
Q 2384 2075 2632 2365 
Q 2881 2656 2881 3163 
Q 2881 3666 2632 3958 
Q 2384 4250 1959 4250 
Q 1534 4250 1286 3958 
Q 1038 3666 1038 3163 
Q 1038 2656 1286 2365 
Q 1534 2075 1959 2075 
z
" transform="scale(0.015625)"/>
      <path id="DejaVuSans-7d" d="M 800 -594 
L 1019 -594 
Q 1456 -594 1589 -459 
Q 1722 -325 1722 122 
L 1722 897 
Q 1722 1384 1862 1606 
Q 2003 1828 2350 1913 
Q 2003 1991 1862 2212 
Q 1722 2434 1722 2925 
L 1722 3700 
Q 1722 4144 1589 4280 
Q 1456 4416 1019 4416 
L 800 4416 
L 800 4863 
L 997 4863 
Q 1775 4863 2036 4633 
Q 2297 4403 2297 3713 
L 2297 2963 
Q 2297 2497 2465 2317 
Q 2634 2138 3078 2138 
L 3272 2138 
L 3272 1691 
L 3078 1691 
Q 2634 1691 2465 1509 
Q 2297 1328 2297 856 
L 2297 109 
Q 2297 -581 2036 -812 
Q 1775 -1044 997 -1044 
L 800 -1044 
L 800 -594 
z
" transform="scale(0.015625)"/>
      <path id="DejaVuSans-2c" d="M 750 794 
L 1409 794 
L 1409 256 
L 897 -744 
L 494 -744 
L 750 256 
L 750 794 
z
" transform="scale(0.015625)"/>
     </defs>
     <use xlink:href="#DejaVuSans-7b"/>
     <use xlink:href="#DejaVuSans-66" x="63.623047"/>
     <use xlink:href="#DejaVuSans-31" x="98.828125"/>
     <use xlink:href="#DejaVuSans-35" x="162.451172"/>
     <use xlink:href="#DejaVuSans-2d" x="226.074219"/>
     <use xlink:href="#DejaVuSans-66" x="262.158203"/>
     <use xlink:href="#DejaVuSans-31" x="297.363281"/>
     <use xlink:href="#DejaVuSans-39" x="360.986328"/>
     <use xlink:href="#DejaVuSans-7d" x="424.609375"/>
     <use xlink:href="#DejaVuSans-2c" x="488.232422"/>
     <use xlink:href="#DejaVuSans-20" x="520.019531"/>
     <use xlink:href="#DejaVuSans-35" x="551.806641"/>
     <use xlink:href="#DejaVuSans-2d" x="615.429688"/>
     <use xlink:href="#DejaVuSans-44" x="651.513672"/>
    </g>
   </g>
   <g id="text_13">
    <!-- absolute targets -->
    <g transform="translate(62.208 609.932673)scale(0.14 -0.14)">
     <defs>
      <path id="DejaVuSans-62" d="M 3116 1747 
Q 3116 2381 2855 2742 
Q 2594 3103 2138 3103 
Q 1681 3103 1420 2742 
Q 1159 2381 1159 1747 
Q 1159 1113 1420 752 
Q 1681 391 2138 391 
Q 2594 391 2855 752 
Q 3116 1113 3116 1747 
z
M 1159 2969 
Q 1341 3281 1617 3432 
Q 1894 3584 2278 3584 
Q 2916 3584 3314 3078 
Q 3713 2572 3713 1747 
Q 3713 922 3314 415 
Q 2916 -91 2278 -91 
Q 1894 -91 1617 61 
Q 1341 213 1159 525 
L 1159 0 
L 581 0 
L 581 4863 
L 1159 4863 
L 1159 2969 
z
" transform="scale(0.015625)"/>
      <path id="DejaVuSans-75" d="M 544 1381 
L 544 3500 
L 1119 3500 
L 1119 1403 
Q 1119 906 1312 657 
Q 1506 409 1894 409 
Q 2359 409 2629 706 
Q 2900 1003 2900 1516 
L 2900 3500 
L 3475 3500 
L 3475 0 
L 2900 0 
L 2900 538 
Q 2691 219 2414 64 
Q 2138 -91 1772 -91 
Q 1169 -91 856 284 
Q 544 659 544 1381 
z
M 1991 3584 
L 1991 3584 
z
" transform="scale(0.015625)"/>
      <path id="DejaVuSans-65" d="M 3597 1894 
L 3597 1613 
L 953 1613 
Q 991 1019 1311 708 
Q 1631 397 2203 397 
Q 2534 397 2845 478 
Q 3156 559 3463 722 
L 3463 178 
Q 3153 47 2828 -22 
Q 2503 -91 2169 -91 
Q 1331 -91 842 396 
Q 353 884 353 1716 
Q 353 2575 817 3079 
Q 1281 3584 2069 3584 
Q 2775 3584 3186 3129 
Q 3597 2675 3597 1894 
z
M 3022 2063 
Q 3016 2534 2758 2815 
Q 2500 3097 2075 3097 
Q 1594 3097 1305 2825 
Q 1016 2553 972 2059 
L 3022 2063 
z
" transform="scale(0.015625)"/>
     </defs>
     <use xlink:href="#DejaVuSans-61"/>
     <use xlink:href="#DejaVuSans-62" x="61.279297"/>
     <use xlink:href="#DejaVuSans-73" x="124.755859"/>
     <use xlink:href="#DejaVuSans-6f" x="176.855469"/>
     <use xlink:href="#DejaVuSans-6c" x="238.037109"/>
     <use xlink:href="#DejaVuSans-75" x="265.820312"/>
     <use xlink:href="#DejaVuSans-74" x="329.199219"/>
     <use xlink:href="#DejaVuSans-65" x="368.408203"/>
     <use xlink:href="#DejaVuSans-20" x="429.931641"/>
     <use xlink:href="#DejaVuSans-74" x="461.71875"/>
     <use xlink:href="#DejaVuSans-61" x="500.927734"/>
     <use xlink:href="#DejaVuSans-72" x="562.207031"/>
     <use xlink:href="#DejaVuSans-67" x="601.570312"/>
     <use xlink:href="#DejaVuSans-65" x="665.046875"/>
     <use xlink:href="#DejaVuSans-74" x="726.570312"/>
     <use xlink:href="#DejaVuSans-73" x="765.779297"/>
    </g>
   </g>
   <g id="text_14">
    <!-- v2.6.3 -->
    <g style="fill: #808080" transform="translate(245.82275 288.777272)scale(0.1 -0.1)">
     <defs>
      <path id="DejaVuSans-33" d="M 2597 2516 
Q 3050 2419 3304 2112 
Q 3559 1806 3559 1356 
Q 3559 666 3084 287 
Q 2609 -91 1734 -91 
Q 1441 -91 1130 -33 
Q 819 25 488 141 
L 488 750 
Q 750 597 1062 519 
Q 1375 441 1716 441 
Q 2309 441 2620 675 
Q 2931 909 2931 1356 
Q 2931 1769 2642 2001 
Q 2353 2234 1838 2234 
L 1294 2234 
L 1294 2753 
L 1863 2753 
Q 2328 2753 2575 2939 
Q 2822 3125 2822 3475 
Q 2822 3834 2567 4026 
Q 2313 4219 1838 4219 
Q 1578 4219 1281 4162 
Q 984 4106 628 3988 
L 628 4550 
Q 988 4650 1302 4700 
Q 1616 4750 1894 4750 
Q 2613 4750 3031 4423 
Q 3450 4097 3450 3541 
Q 3450 3153 3228 2886 
Q 3006 2619 2597 2516 
z
" transform="scale(0.015625)"/>
     </defs>
     <use xlink:href="#DejaVuSans-76"/>
     <use xlink:href="#DejaVuSans-32" x="59.179688"/>
     <use xlink:href="#DejaVuSans-2e" x="122.802734"/>
     <use xlink:href="#DejaVuSans-36" x="154.589844"/>
     <use xlink:href="#DejaVuSans-2e" x="218.212891"/>
     <use xlink:href="#DejaVuSans-33" x="250"/>
    </g>
   </g>
   <g id="legend_1">
    <g id="patch_7">
     <path d="M 76.208 283.76 
L 205.429875 283.76 
Q 209.429875 283.76 209.429875 279.76 
L 209.429875 164.335 
Q 209.429875 160.335 205.429875 160.335 
L 76.208 160.335 
Q 72.208 160.335 72.208 164.335 
L 72.208 279.76 
Q 72.208 283.76 76.208 283.76 
z
" style="fill: #ffffff; opacity: 0.2; stroke: #cccccc; stroke-linejoin: miter"/>
    </g>
    <g id="line2d_58">
     <path d="M 80.208 176.531875 
L 80.208 176.531875 
L 100.208 176.531875 
L 100.208 176.531875 
L 120.208 176.531875 
" style="fill: none; stroke: #000000; stroke-width: 1.5; stroke-linecap: square"/>
    </g>
    <g id="text_15">
     <!-- 1: 5/5 -->
     <g transform="translate(136.208 183.531875)scale(0.2 -0.2)">
      <defs>
       <path id="DejaVuSans-3a" d="M 750 794 
L 1409 794 
L 1409 0 
L 750 0 
L 750 794 
z
M 750 3309 
L 1409 3309 
L 1409 2516 
L 750 2516 
L 750 3309 
z
" transform="scale(0.015625)"/>
      </defs>
      <use xlink:href="#DejaVuSans-31"/>
      <use xlink:href="#DejaVuSans-3a" x="63.623047"/>
      <use xlink:href="#DejaVuSans-20" x="97.314453"/>
      <use xlink:href="#DejaVuSans-35" x="129.101562"/>
      <use xlink:href="#DejaVuSans-2f" x="192.724609"/>
      <use xlink:href="#DejaVuSans-35" x="226.416016"/>
     </g>
    </g>
    <g id="line2d_59">
     <path d="M 80.208 205.888125 
L 80.208 205.888125 
L 100.208 205.888125 
L 100.208 205.888125 
L 120.208 205.888125 
" style="fill: none; stroke: #00bfbf; stroke-width: 1.5; stroke-linecap: square"/>
    </g>
    <g id="text_16">
     <!-- -1: 5/5 -->
     <g transform="translate(136.208 212.888125)scale(0.2 -0.2)">
      <use xlink:href="#DejaVuSans-2d"/>
      <use xlink:href="#DejaVuSans-31" x="36.083984"/>
      <use xlink:href="#DejaVuSans-3a" x="99.707031"/>
      <use xlink:href="#DejaVuSans-20" x="133.398438"/>
      <use xlink:href="#DejaVuSans-35" x="165.185547"/>
      <use xlink:href="#DejaVuSans-2f" x="228.808594"/>
      <use xlink:href="#DejaVuSans-35" x="262.5"/>
     </g>
    </g>
    <g id="line2d_60">
     <path d="M 80.208 235.244375 
L 80.208 235.244375 
L 100.208 235.244375 
L 100.208 235.244375 
L 120.208 235.244375 
" style="fill: none; stroke: #bf00bf; stroke-width: 1.5; stroke-linecap: square"/>
    </g>
    <g id="text_17">
     <!-- -4: 5/5 -->
     <g transform="translate(136.208 242.244375)scale(0.2 -0.2)">
      <use xlink:href="#DejaVuSans-2d"/>
      <use xlink:href="#DejaVuSans-34" x="36.083984"/>
      <use xlink:href="#DejaVuSans-3a" x="99.707031"/>
      <use xlink:href="#DejaVuSans-20" x="133.398438"/>
      <use xlink:href="#DejaVuSans-35" x="165.185547"/>
      <use xlink:href="#DejaVuSans-2f" x="228.808594"/>
      <use xlink:href="#DejaVuSans-35" x="262.5"/>
     </g>
    </g>
    <g id="line2d_61">
     <path d="M 80.208 264.600625 
L 80.208 264.600625 
L 100.208 264.600625 
L 100.208 264.600625 
L 120.208 264.600625 
" style="fill: none; stroke: #ff0000; stroke-width: 3; stroke-linecap: square"/>
    </g>
    <g id="text_18">
     <!-- -8: 5/5 -->
     <g transform="translate(136.208 271.600625)scale(0.2 -0.2)">
      <use xlink:href="#DejaVuSans-2d"/>
      <use xlink:href="#DejaVuSans-38" x="36.083984"/>
      <use xlink:href="#DejaVuSans-3a" x="99.707031"/>
      <use xlink:href="#DejaVuSans-20" x="133.398438"/>
      <use xlink:href="#DejaVuSans-35" x="165.185547"/>
      <use xlink:href="#DejaVuSans-2f" x="228.808594"/>
      <use xlink:href="#DejaVuSans-35" x="262.5"/>
     </g>
    </g>
   </g>
  </g>
 </g>
 <defs>
  <clipPath id="p508e0fb572">
   <rect x="62.208" y="3.456" width="398.592" height="290.304"/>
  </clipPath>
 </defs>
</svg>
