<?xml version="1.0" encoding="utf-8" standalone="no"?>
<!DOCTYPE svg PUBLIC "-//W3C//DTD SVG 1.1//EN"
  "http://www.w3.org/Graphics/SVG/1.1/DTD/svg11.dtd">
<svg xmlns:xlink="http://www.w3.org/1999/xlink" width="460.8pt" height="345.6pt" viewBox="0 0 460.8 345.6" xmlns="http://www.w3.org/2000/svg" version="1.1">
 <metadata>
  <rdf:RDF xmlns:dc="http://purl.org/dc/elements/1.1/" xmlns:cc="http://creativecommons.org/ns#" xmlns:rdf="http://www.w3.org/1999/02/22-rdf-syntax-ns#">
   <cc:Work>
    <dc:type rdf:resource="http://purl.org/dc/dcmitype/StillImage"/>
    <dc:date>2023-04-07T14:55:25.796330</dc:date>
    <dc:format>image/svg+xml</dc:format>
    <dc:creator>
     <cc:Agent>
      <dc:title>Matplotlib v3.5.2, https://matplotlib.org/</dc:title>
     </cc:Agent>
    </dc:creator>
   </cc:Work>
  </rdf:RDF>
 </metadata>
 <defs>
  <style type="text/css">*{stroke-linejoin: round; stroke-linecap: butt}</style>
 </defs>
 <g id="figure_1">
  <g id="patch_1">
   <path d="M 0 345.6 
L 460.8 345.6 
L 460.8 0 
L 0 0 
z
" style="fill: #ffffff"/>
  </g>
  <g id="axes_1">
   <g id="patch_2">
    <path d="M 62.208 293.76 
L 460.8 293.76 
L 460.8 3.456 
L 62.208 3.456 
z
" style="fill: #ffffff"/>
   </g>
   <g id="line2d_1">
    <path d="M 233.777524 293.76 
L 233.777524 288.969505 
L 236.358852 288.969505 
L 236.358852 284.17901 
L 237.336829 284.17901 
L 237.336829 279.388515 
L 237.336829 279.388515 
L 237.336829 274.59802 
L 237.815048 274.59802 
L 237.815048 269.807525 
L 237.97291 269.807525 
L 237.97291 265.01703 
L 238.130013 265.01703 
L 238.130013 260.226535 
L 238.904384 260.226535 
L 238.904384 255.43604 
L 239.360343 255.43604 
L 239.360343 250.645545 
L 239.510925 250.645545 
L 239.510925 245.85505 
L 239.510925 245.85505 
L 239.510925 241.064554 
L 239.660815 241.064554 
L 239.660815 236.274059 
L 239.660815 236.274059 
L 239.660815 231.483564 
L 240.106402 231.483564 
L 240.106402 226.693069 
L 240.106402 226.693069 
L 240.106402 221.902574 
L 241.123051 221.902574 
L 241.123051 217.112079 
L 241.407801 217.112079 
L 241.407801 212.321584 
L 241.54925 212.321584 
L 241.54925 207.531089 
L 241.690089 207.531089 
L 241.690089 202.740594 
L 241.830323 202.740594 
L 241.830323 197.950099 
L 242.247448 197.950099 
L 242.247448 193.159604 
L 242.247448 193.159604 
L 242.247448 188.369109 
L 242.385313 188.369109 
L 242.385313 183.578614 
L 244.77225 183.578614 
L 244.77225 178.788119 
L 246.026609 178.788119 
L 246.026609 173.997624 
L 246.271801 173.997624 
L 246.271801 169.207129 
L 261.203118 169.207129 
L 261.203118 164.416634 
L 263.894388 164.416634 
L 263.894388 159.626139 
L 266.802014 159.626139 
L 266.802014 154.835644 
L 273.240885 154.835644 
L 273.240885 150.045149 
L 273.240885 150.045149 
L 273.240885 150.045149 
L 460.8 150.045149 
" clip-path="url(#p9f0c0180df)" style="fill: none; stroke: #f5deb3; stroke-width: 1.5; stroke-linecap: square"/>
   </g>
   <g id="line2d_2"/>
   <g id="line2d_3">
    <path d="M 234.301983 293.76 
L 234.301983 288.969505 
L 239.788748 288.969505 
L 239.788748 284.17901 
L 242.45076 284.17901 
L 242.45076 279.388515 
L 246.705114 279.388515 
L 246.705114 274.59802 
L 247.217612 274.59802 
L 247.217612 269.807525 
L 247.482086 269.807525 
L 247.482086 265.01703 
L 247.504496 265.01703 
L 247.504496 260.226535 
L 247.593982 260.226535 
L 247.593982 255.43604 
L 248.333951 255.43604 
L 248.333951 250.645545 
L 248.8647 250.645545 
L 248.8647 245.85505 
L 249.014771 245.85505 
L 249.014771 241.064554 
L 249.286355 241.064554 
L 249.286355 236.274059 
L 249.455614 236.274059 
L 249.455614 231.483564 
L 249.497792 231.483564 
L 249.497792 226.693069 
L 249.524126 226.693069 
L 249.524126 221.902574 
L 249.550438 221.902574 
L 249.550438 217.112079 
L 249.634496 217.112079 
L 249.634496 212.321584 
L 251.061478 212.321584 
L 251.061478 207.531089 
L 251.564848 207.531089 
L 251.564848 202.740594 
L 252.045959 202.740594 
L 252.045959 197.950099 
L 252.452772 197.950099 
L 252.452772 193.159604 
L 253.265587 193.159604 
L 253.265587 188.369109 
L 253.634372 188.369109 
L 253.634372 183.578614 
L 259.553319 183.578614 
L 259.553319 178.788119 
L 260.159479 178.788119 
L 260.159479 173.997624 
L 260.526116 173.997624 
L 260.526116 169.207129 
L 261.092486 169.207129 
L 261.092486 164.416634 
L 261.147849 164.416634 
L 261.147849 159.626139 
L 261.169968 159.626139 
L 261.169968 154.835644 
L 262.289296 154.835644 
L 262.289296 150.045149 
L 262.399502 150.045149 
L 262.399502 145.254653 
L 263.243809 145.254653 
L 263.243809 140.464158 
L 263.751688 140.464158 
L 263.751688 135.673663 
L 263.843495 135.673663 
L 263.843495 130.883168 
L 264.452368 130.883168 
L 264.452368 126.092673 
L 264.89922 126.092673 
L 264.89922 121.302178 
L 265.899566 121.302178 
L 265.899566 116.511683 
L 267.863834 116.511683 
L 267.863834 111.721188 
L 269.451742 111.721188 
L 269.451742 106.930693 
L 275.257623 106.930693 
L 275.257623 102.140198 
L 277.590013 102.140198 
L 277.590013 97.349703 
L 277.747872 97.349703 
L 277.747872 92.559208 
L 278.629709 92.559208 
L 278.629709 87.768713 
L 278.892037 87.768713 
L 278.892037 82.978218 
L 279.279504 82.978218 
L 279.279504 78.187723 
L 279.279504 78.187723 
L 279.279504 78.187723 
L 460.8 78.187723 
" clip-path="url(#p9f0c0180df)" style="fill: none; stroke: #f5deb3; stroke-width: 1.5; stroke-linecap: square"/>
   </g>
   <g id="line2d_4">
    <path d="M 275.956259 293.76 
L 275.956259 288.969505 
L 279.798104 288.969505 
L 279.798104 284.17901 
L 282.115586 284.17901 
L 282.115586 279.388515 
L 282.520524 279.388515 
L 282.520524 274.59802 
L 285.189096 274.59802 
L 285.189096 269.807525 
L 285.204986 269.807525 
L 285.204986 265.01703 
L 286.570473 265.01703 
L 286.570473 260.226535 
L 287.157649 260.226535 
L 287.157649 255.43604 
L 287.170948 255.43604 
L 287.170948 250.645545 
L 287.523043 250.645545 
L 287.523043 245.85505 
L 287.983431 245.85505 
L 287.983431 241.064554 
L 288.302847 241.064554 
L 288.302847 236.274059 
L 289.258358 236.274059 
L 289.258358 231.483564 
L 289.596473 231.483564 
L 289.596473 226.693069 
L 289.744265 226.693069 
L 289.744265 221.902574 
L 291.608504 221.902574 
L 291.608504 217.112079 
L 292.664805 217.112079 
L 292.664805 212.321584 
L 293.109823 212.321584 
L 293.109823 207.531089 
L 293.403626 207.531089 
L 293.403626 202.740594 
L 295.921271 202.740594 
L 295.921271 197.950099 
L 302.822508 197.950099 
L 302.822508 193.159604 
L 305.189914 193.159604 
L 305.189914 188.369109 
L 308.072701 188.369109 
L 308.072701 183.578614 
L 309.99769 183.578614 
L 309.99769 178.788119 
L 311.174011 178.788119 
L 311.174011 173.997624 
L 313.708147 173.997624 
L 313.708147 169.207129 
L 316.362896 169.207129 
L 316.362896 164.416634 
L 320.056408 164.416634 
L 320.056408 159.626139 
L 320.571937 159.626139 
L 320.571937 154.835644 
L 322.021155 154.835644 
L 322.021155 150.045149 
L 322.021155 150.045149 
L 322.021155 150.045149 
L 460.8 150.045149 
" clip-path="url(#p9f0c0180df)" style="fill: none; stroke: #f5deb3; stroke-width: 1.5; stroke-linecap: square"/>
   </g>
   <g id="line2d_5"/>
   <g id="line2d_6"/>
   <g id="line2d_7">
    <path d="M 263.43691 293.76 
L 263.43691 288.969505 
L 263.799324 288.969505 
L 263.799324 284.17901 
L 265.320573 284.17901 
L 265.320573 279.388515 
L 265.787786 279.388515 
L 265.787786 274.59802 
L 266.049073 274.59802 
L 266.049073 269.807525 
L 266.273632 269.807525 
L 266.273632 265.01703 
L 266.845405 265.01703 
L 266.845405 260.226535 
L 267.119902 260.226535 
L 267.119902 255.43604 
L 267.361639 255.43604 
L 267.361639 250.645545 
L 268.213207 250.645545 
L 268.213207 245.85505 
L 268.260696 245.85505 
L 268.260696 241.064554 
L 268.964854 241.064554 
L 268.964854 236.274059 
L 270.133738 236.274059 
L 270.133738 231.483564 
L 270.262307 231.483564 
L 270.262307 226.693069 
L 271.793536 226.693069 
L 271.793536 221.902574 
L 288.676354 221.902574 
L 288.676354 217.112079 
L 290.221533 217.112079 
L 290.221533 212.321584 
L 290.639661 212.321584 
L 290.639661 207.531089 
L 291.470389 207.531089 
L 291.470389 202.740594 
L 291.567857 202.740594 
L 291.567857 197.950099 
L 292.098079 197.950099 
L 292.098079 193.159604 
L 292.266288 193.159604 
L 292.266288 188.369109 
L 293.636233 188.369109 
L 293.636233 183.578614 
L 293.949674 183.578614 
L 293.949674 178.788119 
L 294.694629 178.788119 
L 294.694629 173.997624 
L 294.764511 173.997624 
L 294.764511 169.207129 
L 294.846069 169.207129 
L 294.846069 164.416634 
L 294.892021 164.416634 
L 294.892021 159.626139 
L 296.124042 159.626139 
L 296.124042 154.835644 
L 296.745988 154.835644 
L 296.745988 150.045149 
L 296.94002 150.045149 
L 296.94002 145.254653 
L 297.953038 145.254653 
L 297.953038 140.464158 
L 298.091315 140.464158 
L 298.091315 135.673663 
L 298.523802 135.673663 
L 298.523802 130.883168 
L 298.63513 130.883168 
L 298.63513 126.092673 
L 299.008516 126.092673 
L 299.008516 121.302178 
L 299.512343 121.302178 
L 299.512343 116.511683 
L 300.19976 116.511683 
L 300.19976 111.721188 
L 300.369932 111.721188 
L 300.369932 106.930693 
L 301.219625 106.930693 
L 301.219625 102.140198 
L 301.503728 102.140198 
L 301.503728 97.349703 
L 301.714129 97.349703 
L 301.714129 92.559208 
L 302.214888 92.559208 
L 302.214888 87.768713 
L 324.908203 87.768713 
L 324.908203 82.978218 
L 346.202564 82.978218 
L 346.202564 78.187723 
L 409.25775 78.187723 
L 409.25775 73.397228 
L 424.036602 73.397228 
L 424.036602 68.606733 
L 428.175278 68.606733 
L 428.175278 63.816238 
L 434.016596 63.816238 
L 434.016596 59.025743 
L 443.156951 59.025743 
L 443.156951 54.235248 
L 450.026802 54.235248 
L 450.026802 49.444752 
L 454.033904 49.444752 
L 454.033904 44.654257 
L 458.798732 44.654257 
L 458.798732 39.863762 
L 461.8 39.863762 
" clip-path="url(#p9f0c0180df)" style="fill: none; stroke: #f5deb3; stroke-width: 1.5; stroke-linecap: square"/>
   </g>
   <g id="line2d_8">
    <path d="M 369.380159 293.76 
L 369.380159 288.969505 
L 369.438003 288.969505 
L 369.438003 284.17901 
L 369.482788 284.17901 
L 369.482788 279.388515 
L 369.864896 279.388515 
L 369.864896 274.59802 
L 369.877173 274.59802 
L 369.877173 269.807525 
L 369.903165 269.807525 
L 369.903165 265.01703 
L 369.957984 265.01703 
L 369.957984 260.226535 
L 369.959695 260.226535 
L 369.959695 255.43604 
L 369.975096 255.43604 
L 369.975096 250.645545 
L 370.053695 250.645545 
L 370.053695 245.85505 
L 370.096595 245.85505 
L 370.096595 241.064554 
L 370.483809 241.064554 
L 370.483809 236.274059 
L 370.485104 236.274059 
L 370.485104 231.483564 
L 370.640461 231.483564 
L 370.640461 226.693069 
L 371.588591 226.693069 
L 371.588591 221.902574 
L 371.588591 221.902574 
L 371.588591 221.902574 
L 460.8 221.902574 
" clip-path="url(#p9f0c0180df)" style="fill: none; stroke: #f5deb3; stroke-width: 1.5; stroke-linecap: square"/>
   </g>
   <g id="line2d_9">
    <path d="M 262.625854 293.76 
L 262.625854 288.969505 
L 264.545553 288.969505 
L 264.545553 284.17901 
L 264.661661 284.17901 
L 264.661661 279.388515 
L 266.194738 279.388515 
L 266.194738 274.59802 
L 266.421439 274.59802 
L 266.421439 269.807525 
L 266.487265 269.807525 
L 266.487265 265.01703 
L 266.71817 265.01703 
L 266.71817 260.226535 
L 267.046107 260.226535 
L 267.046107 255.43604 
L 267.631848 255.43604 
L 267.631848 250.645545 
L 267.752566 250.645545 
L 267.752566 245.85505 
L 268.031522 245.85505 
L 268.031522 241.064554 
L 269.362973 241.064554 
L 269.362973 236.274059 
L 269.693909 236.274059 
L 269.693909 231.483564 
L 270.517938 231.483564 
L 270.517938 226.693069 
L 272.366076 226.693069 
L 272.366076 221.902574 
L 273.118434 221.902574 
L 273.118434 217.112079 
L 285.709423 217.112079 
L 285.709423 212.321584 
L 285.893139 212.321584 
L 285.893139 207.531089 
L 286.329203 207.531089 
L 286.329203 202.740594 
L 286.332614 202.740594 
L 286.332614 197.950099 
L 286.83517 197.950099 
L 286.83517 193.159604 
L 286.910645 193.159604 
L 286.910645 188.369109 
L 287.804618 188.369109 
L 287.804618 183.578614 
L 288.130622 183.578614 
L 288.130622 178.788119 
L 288.196722 178.788119 
L 288.196722 173.997624 
L 288.261081 173.997624 
L 288.261081 169.207129 
L 288.298031 169.207129 
L 288.298031 164.416634 
L 288.419828 164.416634 
L 288.419828 159.626139 
L 288.627117 159.626139 
L 288.627117 154.835644 
L 289.084843 154.835644 
L 289.084843 150.045149 
L 289.188125 150.045149 
L 289.188125 145.254653 
L 289.659675 145.254653 
L 289.659675 140.464158 
L 290.043945 140.464158 
L 290.043945 135.673663 
L 290.434275 135.673663 
L 290.434275 130.883168 
L 290.461334 130.883168 
L 290.461334 126.092673 
L 290.790255 126.092673 
L 290.790255 121.302178 
L 291.232042 121.302178 
L 291.232042 116.511683 
L 292.195119 116.511683 
L 292.195119 111.721188 
L 292.628265 111.721188 
L 292.628265 106.930693 
L 293.413236 106.930693 
L 293.413236 102.140198 
L 293.860426 102.140198 
L 293.860426 97.349703 
L 295.43071 97.349703 
L 295.43071 92.559208 
L 296.088648 92.559208 
L 296.088648 87.768713 
L 296.118989 87.768713 
L 296.118989 82.978218 
L 301.81511 82.978218 
L 301.81511 78.187723 
L 303.462448 78.187723 
L 303.462448 73.397228 
L 304.622239 73.397228 
L 304.622239 68.606733 
L 304.811594 68.606733 
L 304.811594 63.816238 
L 305.05949 63.816238 
L 305.05949 59.025743 
L 305.253021 59.025743 
L 305.253021 54.235248 
L 306.475484 54.235248 
L 306.475484 49.444752 
L 306.964085 49.444752 
L 306.964085 44.654257 
L 307.856438 44.654257 
L 307.856438 39.863762 
L 308.543323 39.863762 
L 308.543323 35.073267 
L 309.594579 35.073267 
L 309.594579 30.282772 
L 310.548127 30.282772 
L 310.548127 25.492277 
L 310.765084 25.492277 
L 310.765084 20.701782 
L 311.389237 20.701782 
L 311.389237 15.911287 
L 311.480931 15.911287 
L 311.480931 11.120792 
L 317.246056 11.120792 
L 317.246056 6.330297 
L 317.246056 6.330297 
L 317.246056 6.330297 
L 460.8 6.330297 
" clip-path="url(#p9f0c0180df)" style="fill: none; stroke: #f5deb3; stroke-width: 1.5; stroke-linecap: square"/>
   </g>
   <g id="line2d_10">
    <path d="M 427.402705 293.76 
L 427.402705 288.969505 
L 427.750238 288.969505 
L 427.750238 284.17901 
L 428.205702 284.17901 
L 428.205702 279.388515 
L 429.90649 279.388515 
L 429.90649 274.59802 
L 430.01422 274.59802 
L 430.01422 269.807525 
L 430.742685 269.807525 
L 430.742685 265.01703 
L 430.852285 265.01703 
L 430.852285 260.226535 
L 431.911912 260.226535 
L 431.911912 255.43604 
L 436.610659 255.43604 
L 436.610659 250.645545 
L 436.710677 250.645545 
L 436.710677 245.85505 
L 436.710677 245.85505 
L 436.710677 245.85505 
L 460.8 245.85505 
" clip-path="url(#p9f0c0180df)" style="fill: none; stroke: #f5deb3; stroke-width: 1.5; stroke-linecap: square"/>
   </g>
   <g id="line2d_11">
    <path d="M 271.553099 293.76 
L 271.553099 288.969505 
L 274.157301 288.969505 
L 274.157301 284.17901 
L 277.840895 284.17901 
L 277.840895 279.388515 
L 283.353024 279.388515 
L 283.353024 274.59802 
L 284.146597 274.59802 
L 284.146597 269.807525 
L 284.559678 269.807525 
L 284.559678 265.01703 
L 287.346643 265.01703 
L 287.346643 260.226535 
L 287.389594 260.226535 
L 287.389594 255.43604 
L 287.850227 255.43604 
L 287.850227 250.645545 
L 296.938788 250.645545 
L 296.938788 245.85505 
L 297.40129 245.85505 
L 297.40129 241.064554 
L 299.819524 241.064554 
L 299.819524 236.274059 
L 301.312445 236.274059 
L 301.312445 231.483564 
L 312.447654 231.483564 
L 312.447654 226.693069 
L 382.848175 226.693069 
L 382.848175 221.902574 
L 402.364541 221.902574 
L 402.364541 217.112079 
L 403.289417 217.112079 
L 403.289417 212.321584 
L 405.193912 212.321584 
L 405.193912 207.531089 
L 405.319552 207.531089 
L 405.319552 202.740594 
L 405.353325 202.740594 
L 405.353325 197.950099 
L 405.537347 197.950099 
L 405.537347 193.159604 
L 405.653866 193.159604 
L 405.653866 188.369109 
L 405.68271 188.369109 
L 405.68271 183.578614 
L 405.710032 183.578614 
L 405.710032 178.788119 
L 405.793572 178.788119 
L 405.793572 173.997624 
L 405.811274 173.997624 
L 405.811274 169.207129 
L 405.818474 169.207129 
L 405.818474 164.416634 
L 405.828 164.416634 
L 405.828 159.626139 
L 405.852613 159.626139 
L 405.852613 154.835644 
L 405.8552 154.835644 
L 405.8552 150.045149 
L 405.875717 150.045149 
L 405.875717 145.254653 
L 405.893417 145.254653 
L 405.893417 140.464158 
L 405.91124 140.464158 
L 405.91124 135.673663 
L 405.913647 135.673663 
L 405.913647 130.883168 
L 405.935309 130.883168 
L 405.935309 126.092673 
L 405.996364 126.092673 
L 405.996364 121.302178 
L 406.12818 121.302178 
L 406.12818 116.511683 
L 406.220375 116.511683 
L 406.220375 111.721188 
L 406.410411 111.721188 
L 406.410411 106.930693 
L 429.625225 106.930693 
L 429.625225 102.140198 
L 432.34671 102.140198 
L 432.34671 97.349703 
L 432.829146 97.349703 
L 432.829146 92.559208 
L 432.938879 92.559208 
L 432.938879 87.768713 
L 436.144395 87.768713 
L 436.144395 82.978218 
L 459.544508 82.978218 
L 459.544508 78.187723 
L 459.544508 78.187723 
L 459.544508 78.187723 
L 460.8 78.187723 
" clip-path="url(#p9f0c0180df)" style="fill: none; stroke: #f5deb3; stroke-width: 1.5; stroke-linecap: square"/>
   </g>
   <g id="line2d_12">
    <path d="M 236.311543 293.76 
L 236.311543 288.969505 
L 240.35832 288.969505 
L 240.35832 284.17901 
L 240.504379 284.17901 
L 240.504379 279.388515 
L 241.790318 279.388515 
L 241.790318 274.59802 
L 242.069332 274.59802 
L 242.069332 269.807525 
L 242.620308 269.807525 
L 242.620308 265.01703 
L 243.027524 265.01703 
L 243.027524 260.226535 
L 243.027524 260.226535 
L 243.027524 255.43604 
L 243.296206 255.43604 
L 243.296206 250.645545 
L 243.296206 250.645545 
L 243.296206 245.85505 
L 243.429723 245.85505 
L 243.429723 241.064554 
L 243.562696 241.064554 
L 243.562696 236.274059 
L 243.695129 236.274059 
L 243.695129 231.483564 
L 243.827028 231.483564 
L 243.827028 226.693069 
L 243.827028 226.693069 
L 243.827028 221.902574 
L 244.219557 221.902574 
L 244.219557 217.112079 
L 244.219557 217.112079 
L 244.219557 212.321584 
L 244.219557 212.321584 
L 244.219557 207.531089 
L 244.607422 207.531089 
L 244.607422 202.740594 
L 244.607422 202.740594 
L 244.607422 197.950099 
L 244.607422 197.950099 
L 244.607422 193.159604 
L 244.990735 193.159604 
L 244.990735 188.369109 
L 245.117512 188.369109 
L 245.117512 183.578614 
L 247.319153 183.578614 
L 247.319153 178.788119 
L 251.111664 178.788119 
L 251.111664 173.997624 
L 265.04355 173.997624 
L 265.04355 169.207129 
L 267.364687 169.207129 
L 267.364687 164.416634 
L 267.683208 164.416634 
L 267.683208 159.626139 
L 268.061376 159.626139 
L 268.061376 154.835644 
L 276.126859 154.835644 
L 276.126859 150.045149 
L 276.126859 150.045149 
L 276.126859 150.045149 
L 460.8 150.045149 
" clip-path="url(#p9f0c0180df)" style="fill: none; stroke: #f5deb3; stroke-width: 1.5; stroke-linecap: square"/>
   </g>
   <g id="line2d_13"/>
   <g id="line2d_14"/>
   <g id="line2d_15"/>
   <g id="line2d_16">
    <path d="M 355.447107 293.76 
L 355.447107 288.969505 
L 356.170265 288.969505 
L 356.170265 284.17901 
L 361.085696 284.17901 
L 361.085696 279.388515 
L 377.733998 279.388515 
L 377.733998 274.59802 
L 377.809036 274.59802 
L 377.809036 269.807525 
L 378.109731 269.807525 
L 378.109731 265.01703 
L 389.841387 265.01703 
L 389.841387 260.226535 
L 392.70726 260.226535 
L 392.70726 255.43604 
L 393.942206 255.43604 
L 393.942206 250.645545 
L 397.655237 250.645545 
L 397.655237 245.85505 
L 399.639355 245.85505 
L 399.639355 241.064554 
L 401.302227 241.064554 
L 401.302227 236.274059 
L 409.300041 236.274059 
L 409.300041 231.483564 
L 416.033682 231.483564 
L 416.033682 226.693069 
L 416.292217 226.693069 
L 416.292217 221.902574 
L 440.367498 221.902574 
L 440.367498 217.112079 
L 443.654437 217.112079 
L 443.654437 212.321584 
L 443.708077 212.321584 
L 443.708077 207.531089 
L 444.890638 207.531089 
L 444.890638 202.740594 
L 446.352941 202.740594 
L 446.352941 197.950099 
L 446.704834 197.950099 
L 446.704834 193.159604 
L 446.943246 193.159604 
L 446.943246 188.369109 
L 448.599223 188.369109 
L 448.599223 183.578614 
L 449.038271 183.578614 
L 449.038271 178.788119 
L 449.67133 178.788119 
L 449.67133 173.997624 
L 449.791865 173.997624 
L 449.791865 169.207129 
L 449.874837 169.207129 
L 449.874837 164.416634 
L 451.369142 164.416634 
L 451.369142 159.626139 
L 454.222248 159.626139 
L 454.222248 154.835644 
L 456.524297 154.835644 
L 456.524297 150.045149 
L 461.8 150.045149 
" clip-path="url(#p9f0c0180df)" style="fill: none; stroke: #f5deb3; stroke-width: 1.5; stroke-linecap: square"/>
   </g>
   <g id="line2d_17">
    <path d="M 357.30575 293.76 
L 357.30575 288.969505 
L 359.438916 288.969505 
L 359.438916 284.17901 
L 361.082413 284.17901 
L 361.082413 279.388515 
L 361.26781 279.388515 
L 361.26781 274.59802 
L 364.576506 274.59802 
L 364.576506 269.807525 
L 365.324741 269.807525 
L 365.324741 265.01703 
L 365.373564 265.01703 
L 365.373564 260.226535 
L 369.460069 260.226535 
L 369.460069 255.43604 
L 370.047524 255.43604 
L 370.047524 250.645545 
L 370.112979 250.645545 
L 370.112979 245.85505 
L 371.629147 245.85505 
L 371.629147 241.064554 
L 373.370133 241.064554 
L 373.370133 236.274059 
L 373.654598 236.274059 
L 373.654598 231.483564 
L 379.799288 231.483564 
L 379.799288 226.693069 
L 384.389863 226.693069 
L 384.389863 221.902574 
L 404.337906 221.902574 
L 404.337906 217.112079 
L 409.607106 217.112079 
L 409.607106 212.321584 
L 411.185812 212.321584 
L 411.185812 207.531089 
L 412.137845 207.531089 
L 412.137845 202.740594 
L 412.991825 202.740594 
L 412.991825 197.950099 
L 413.28304 197.950099 
L 413.28304 193.159604 
L 414.125457 193.159604 
L 414.125457 188.369109 
L 414.419464 188.369109 
L 414.419464 183.578614 
L 415.242996 183.578614 
L 415.242996 178.788119 
L 415.422896 178.788119 
L 415.422896 173.997624 
L 415.422896 173.997624 
L 415.422896 173.997624 
L 460.8 173.997624 
" clip-path="url(#p9f0c0180df)" style="fill: none; stroke: #f5deb3; stroke-width: 1.5; stroke-linecap: square"/>
   </g>
   <g id="line2d_18">
    <path d="M 216.330596 293.76 
L 216.330596 288.969505 
L 223.744279 288.969505 
L 223.744279 284.17901 
L 223.871575 284.17901 
L 223.871575 279.388515 
L 224.364474 279.388515 
L 224.364474 274.59802 
L 224.545996 274.59802 
L 224.545996 269.807525 
L 226.72318 269.807525 
L 226.72318 265.01703 
L 226.797183 265.01703 
L 226.797183 260.226535 
L 226.871019 260.226535 
L 226.871019 255.43604 
L 226.913136 255.43604 
L 226.913136 250.645545 
L 227.258543 250.645545 
L 227.258543 245.85505 
L 227.517804 245.85505 
L 227.517804 241.064554 
L 227.620934 241.064554 
L 227.620934 236.274059 
L 227.65181 236.274059 
L 227.65181 231.483564 
L 227.805752 231.483564 
L 227.805752 226.693069 
L 228.060721 226.693069 
L 228.060721 221.902574 
L 228.182403 221.902574 
L 228.182403 217.112079 
L 229.08084 217.112079 
L 229.08084 212.321584 
L 229.355385 212.321584 
L 229.355385 207.531089 
L 229.374908 207.531089 
L 229.374908 202.740594 
L 229.423663 202.740594 
L 229.423663 197.950099 
L 230.127316 197.950099 
L 230.127316 193.159604 
L 231.908729 193.159604 
L 231.908729 188.369109 
L 232.133692 188.369109 
L 232.133692 183.578614 
L 236.169203 183.578614 
L 236.169203 178.788119 
L 247.683223 178.788119 
L 247.683223 173.997624 
L 251.321608 173.997624 
L 251.321608 169.207129 
L 252.730737 169.207129 
L 252.730737 164.416634 
L 253.541402 164.416634 
L 253.541402 159.626139 
L 254.89104 159.626139 
L 254.89104 154.835644 
L 255.188942 154.835644 
L 255.188942 150.045149 
L 255.76367 150.045149 
L 255.76367 145.254653 
L 256.109737 145.254653 
L 256.109737 140.464158 
L 256.908841 140.464158 
L 256.908841 135.673663 
L 258.366448 135.673663 
L 258.366448 130.883168 
L 261.963623 130.883168 
L 261.963623 126.092673 
L 263.430033 126.092673 
L 263.430033 121.302178 
L 265.601702 121.302178 
L 265.601702 116.511683 
L 265.960087 116.511683 
L 265.960087 111.721188 
L 268.670369 111.721188 
L 268.670369 106.930693 
L 268.93872 106.930693 
L 268.93872 102.140198 
L 270.393152 102.140198 
L 270.393152 97.349703 
L 275.586304 97.349703 
L 275.586304 92.559208 
L 285.06347 92.559208 
L 285.06347 87.768713 
L 286.698875 87.768713 
L 286.698875 82.978218 
L 292.297554 82.978218 
L 292.297554 78.187723 
L 292.297554 78.187723 
L 292.297554 78.187723 
L 460.8 78.187723 
" clip-path="url(#p9f0c0180df)" style="fill: none; stroke: #f5deb3; stroke-width: 1.5; stroke-linecap: square"/>
   </g>
   <g id="line2d_19"/>
   <g id="line2d_20">
    <path d="M 282.489848 293.76 
L 282.489848 288.969505 
L 285.690298 288.969505 
L 285.690298 284.17901 
L 289.178749 284.17901 
L 289.178749 279.388515 
L 292.542377 279.388515 
L 292.542377 274.59802 
L 294.135498 274.59802 
L 294.135498 269.807525 
L 295.353188 269.807525 
L 295.353188 265.01703 
L 296.9055 265.01703 
L 296.9055 260.226535 
L 297.598725 260.226535 
L 297.598725 255.43604 
L 298.699409 255.43604 
L 298.699409 250.645545 
L 299.002732 250.645545 
L 299.002732 245.85505 
L 299.180391 245.85505 
L 299.180391 241.064554 
L 301.767316 241.064554 
L 301.767316 236.274059 
L 301.810864 236.274059 
L 301.810864 231.483564 
L 303.109382 231.483564 
L 303.109382 226.693069 
L 303.562195 226.693069 
L 303.562195 221.902574 
L 304.382763 221.902574 
L 304.382763 217.112079 
L 306.012143 217.112079 
L 306.012143 212.321584 
L 306.130456 212.321584 
L 306.130456 207.531089 
L 307.91284 207.531089 
L 307.91284 202.740594 
L 310.374661 202.740594 
L 310.374661 197.950099 
L 314.75298 197.950099 
L 314.75298 193.159604 
L 316.680146 193.159604 
L 316.680146 188.369109 
L 325.88646 188.369109 
L 325.88646 183.578614 
L 333.836716 183.578614 
L 333.836716 178.788119 
L 336.592113 178.788119 
L 336.592113 173.997624 
L 336.635617 173.997624 
L 336.635617 169.207129 
L 337.956618 169.207129 
L 337.956618 164.416634 
L 340.898702 164.416634 
L 340.898702 159.626139 
L 365.399765 159.626139 
L 365.399765 154.835644 
L 366.04805 154.835644 
L 366.04805 150.045149 
L 366.04805 150.045149 
L 366.04805 150.045149 
L 460.8 150.045149 
" clip-path="url(#p9f0c0180df)" style="fill: none; stroke: #f5deb3; stroke-width: 1.5; stroke-linecap: square"/>
   </g>
   <g id="line2d_21"/>
   <g id="line2d_22">
    <path d="M 286.123914 293.76 
L 286.123914 288.969505 
L 286.320675 288.969505 
L 286.320675 284.17901 
L 287.391245 284.17901 
L 287.391245 279.388515 
L 288.116094 279.388515 
L 288.116094 274.59802 
L 288.43582 274.59802 
L 288.43582 269.807525 
L 288.506092 269.807525 
L 288.506092 265.01703 
L 288.869406 265.01703 
L 288.869406 260.226535 
L 289.185 260.226535 
L 289.185 255.43604 
L 289.633484 255.43604 
L 289.633484 250.645545 
L 289.958602 250.645545 
L 289.958602 245.85505 
L 290.677002 245.85505 
L 290.677002 241.064554 
L 291.40914 241.064554 
L 291.40914 236.274059 
L 291.486411 236.274059 
L 291.486411 231.483564 
L 292.494406 231.483564 
L 292.494406 226.693069 
L 292.733558 226.693069 
L 292.733558 221.902574 
L 293.192852 221.902574 
L 293.192852 217.112079 
L 293.216339 217.112079 
L 293.216339 212.321584 
L 293.421472 212.321584 
L 293.421472 207.531089 
L 294.095191 207.531089 
L 294.095191 202.740594 
L 294.79479 202.740594 
L 294.79479 197.950099 
L 295.115601 197.950099 
L 295.115601 193.159604 
L 295.461668 193.159604 
L 295.461668 188.369109 
L 296.016477 188.369109 
L 296.016477 183.578614 
L 297.333183 183.578614 
L 297.333183 178.788119 
L 298.244404 178.788119 
L 298.244404 173.997624 
L 298.991162 173.997624 
L 298.991162 169.207129 
L 298.994634 169.207129 
L 298.994634 164.416634 
L 301.567953 164.416634 
L 301.567953 159.626139 
L 302.364465 159.626139 
L 302.364465 154.835644 
L 303.340119 154.835644 
L 303.340119 150.045149 
L 315.232172 150.045149 
L 315.232172 145.254653 
L 317.639313 145.254653 
L 317.639313 140.464158 
L 318.342878 140.464158 
L 318.342878 135.673663 
L 318.79775 135.673663 
L 318.79775 130.883168 
L 320.128565 130.883168 
L 320.128565 126.092673 
L 320.778623 126.092673 
L 320.778623 121.302178 
L 321.271851 121.302178 
L 321.271851 116.511683 
L 331.961694 116.511683 
L 331.961694 111.721188 
L 333.860191 111.721188 
L 333.860191 106.930693 
L 338.20791 106.930693 
L 338.20791 102.140198 
L 341.774639 102.140198 
L 341.774639 97.349703 
L 348.546925 97.349703 
L 348.546925 92.559208 
L 353.569464 92.559208 
L 353.569464 87.768713 
L 359.869628 87.768713 
L 359.869628 82.978218 
L 359.869628 82.978218 
L 359.869628 82.978218 
L 460.8 82.978218 
" clip-path="url(#p9f0c0180df)" style="fill: none; stroke: #f5deb3; stroke-width: 1.5; stroke-linecap: square"/>
   </g>
   <g id="line2d_23">
    <path d="M 398.857464 293.76 
L 398.857464 288.969505 
L 406.749969 288.969505 
L 406.749969 284.17901 
L 417.669802 284.17901 
L 417.669802 279.388515 
L 421.291537 279.388515 
L 421.291537 274.59802 
L 427.802653 274.59802 
L 427.802653 269.807525 
L 432.887105 269.807525 
L 432.887105 265.01703 
L 432.887105 265.01703 
L 432.887105 265.01703 
L 460.8 265.01703 
" clip-path="url(#p9f0c0180df)" style="fill: none; stroke: #f5deb3; stroke-width: 1.5; stroke-linecap: square"/>
   </g>
   <g id="line2d_24">
    <path d="M 271.151109 293.76 
L 271.151109 288.969505 
L 278.456539 288.969505 
L 278.456539 284.17901 
L 279.7439 284.17901 
L 279.7439 279.388515 
L 281.294303 279.388515 
L 281.294303 274.59802 
L 281.324135 274.59802 
L 281.324135 269.807525 
L 281.938541 269.807525 
L 281.938541 265.01703 
L 282.556915 265.01703 
L 282.556915 260.226535 
L 285.414362 260.226535 
L 285.414362 255.43604 
L 286.111899 255.43604 
L 286.111899 250.645545 
L 286.359886 250.645545 
L 286.359886 245.85505 
L 287.20583 245.85505 
L 287.20583 241.064554 
L 287.560836 241.064554 
L 287.560836 236.274059 
L 287.573972 236.274059 
L 287.573972 231.483564 
L 289.084843 231.483564 
L 289.084843 226.693069 
L 289.224041 226.693069 
L 289.224041 221.902574 
L 335.836051 221.902574 
L 335.836051 217.112079 
L 336.020851 217.112079 
L 336.020851 212.321584 
L 336.373351 212.321584 
L 336.373351 207.531089 
L 337.526106 207.531089 
L 337.526106 202.740594 
L 337.547075 202.740594 
L 337.547075 197.950099 
L 337.848025 197.950099 
L 337.848025 193.159604 
L 338.253834 193.159604 
L 338.253834 188.369109 
L 338.414756 188.369109 
L 338.414756 183.578614 
L 338.524932 183.578614 
L 338.524932 178.788119 
L 338.577643 178.788119 
L 338.577643 173.997624 
L 339.08115 173.997624 
L 339.08115 169.207129 
L 339.32834 169.207129 
L 339.32834 164.416634 
L 339.332713 164.416634 
L 339.332713 159.626139 
L 339.410658 159.626139 
L 339.410658 154.835644 
L 339.500801 154.835644 
L 339.500801 150.045149 
L 339.506155 150.045149 
L 339.506155 145.254653 
L 339.6637 145.254653 
L 339.6637 140.464158 
L 339.712278 140.464158 
L 339.712278 135.673663 
L 339.899923 135.673663 
L 339.899923 130.883168 
L 340.024314 130.883168 
L 340.024314 126.092673 
L 340.052952 126.092673 
L 340.052952 121.302178 
L 340.135435 121.302178 
L 340.135435 116.511683 
L 340.494151 116.511683 
L 340.494151 111.721188 
L 340.672848 111.721188 
L 340.672848 106.930693 
L 341.339133 106.930693 
L 341.339133 102.140198 
L 341.78525 102.140198 
L 341.78525 97.349703 
L 342.106305 97.349703 
L 342.106305 92.559208 
L 342.537862 92.559208 
L 342.537862 87.768713 
L 344.06375 87.768713 
L 344.06375 82.978218 
L 345.170364 82.978218 
L 345.170364 78.187723 
L 349.534078 78.187723 
L 349.534078 73.397228 
L 351.493657 73.397228 
L 351.493657 68.606733 
L 352.08281 68.606733 
L 352.08281 63.816238 
L 352.280249 63.816238 
L 352.280249 59.025743 
L 352.649889 59.025743 
L 352.649889 54.235248 
L 352.784508 54.235248 
L 352.784508 49.444752 
L 353.660685 49.444752 
L 353.660685 44.654257 
L 354.568222 44.654257 
L 354.568222 39.863762 
L 354.618177 39.863762 
L 354.618177 35.073267 
L 354.985952 35.073267 
L 354.985952 30.282772 
L 355.22458 30.282772 
L 355.22458 25.492277 
L 355.744522 25.492277 
L 355.744522 20.701782 
L 356.205394 20.701782 
L 356.205394 15.911287 
L 356.602224 15.911287 
L 356.602224 11.120792 
L 357.325724 11.120792 
L 357.325724 6.330297 
L 357.325724 6.330297 
L 357.325724 6.330297 
L 460.8 6.330297 
" clip-path="url(#p9f0c0180df)" style="fill: none; stroke: #f5deb3; stroke-width: 1.5; stroke-linecap: square"/>
   </g>
   <g id="line2d_25">
    <path d="M 374.431939 293.76 
L 374.431939 288.969505 
L 374.891016 288.969505 
L 374.891016 284.17901 
L 375.037736 284.17901 
L 375.037736 279.388515 
L 375.039088 279.388515 
L 375.039088 274.59802 
L 375.743522 274.59802 
L 375.743522 269.807525 
L 375.984923 269.807525 
L 375.984923 265.01703 
L 376.115045 265.01703 
L 376.115045 260.226535 
L 376.355457 260.226535 
L 376.355457 255.43604 
L 376.753284 255.43604 
L 376.753284 250.645545 
L 376.93498 250.645545 
L 376.93498 245.85505 
L 377.090176 245.85505 
L 377.090176 241.064554 
L 377.402041 241.064554 
L 377.402041 236.274059 
L 377.632361 236.274059 
L 377.632361 231.483564 
L 378.077609 231.483564 
L 378.077609 226.693069 
L 379.091345 226.693069 
L 379.091345 221.902574 
L 379.091345 221.902574 
L 379.091345 221.902574 
L 460.8 221.902574 
" clip-path="url(#p9f0c0180df)" style="fill: none; stroke: #f5deb3; stroke-width: 1.5; stroke-linecap: square"/>
   </g>
   <g id="line2d_26">
    <path d="M 298.327175 293.76 
L 298.327175 288.969505 
L 301.531574 288.969505 
L 301.531574 284.17901 
L 302.622257 284.17901 
L 302.622257 279.388515 
L 303.514878 279.388515 
L 303.514878 274.59802 
L 303.837683 274.59802 
L 303.837683 269.807525 
L 304.554972 269.807525 
L 304.554972 265.01703 
L 304.717539 265.01703 
L 304.717539 260.226535 
L 305.777043 260.226535 
L 305.777043 255.43604 
L 307.305843 255.43604 
L 307.305843 250.645545 
L 307.605863 250.645545 
L 307.605863 245.85505 
L 308.997039 245.85505 
L 308.997039 241.064554 
L 310.022462 241.064554 
L 310.022462 236.274059 
L 311.409811 236.274059 
L 311.409811 231.483564 
L 311.581814 231.483564 
L 311.581814 226.693069 
L 312.985005 226.693069 
L 312.985005 221.902574 
L 312.998571 221.902574 
L 312.998571 217.112079 
L 313.899288 217.112079 
L 313.899288 212.321584 
L 314.525824 212.321584 
L 314.525824 207.531089 
L 315.308082 207.531089 
L 315.308082 202.740594 
L 318.074365 202.740594 
L 318.074365 197.950099 
L 318.696651 197.950099 
L 318.696651 193.159604 
L 319.159136 193.159604 
L 319.159136 188.369109 
L 319.197798 188.369109 
L 319.197798 183.578614 
L 319.839585 183.578614 
L 319.839585 178.788119 
L 319.903686 178.788119 
L 319.903686 173.997624 
L 320.499557 173.997624 
L 320.499557 169.207129 
L 320.53487 169.207129 
L 320.53487 164.416634 
L 320.959217 164.416634 
L 320.959217 159.626139 
L 321.142929 159.626139 
L 321.142929 154.835644 
L 321.627833 154.835644 
L 321.627833 150.045149 
L 322.620359 150.045149 
L 322.620359 145.254653 
L 322.646724 145.254653 
L 322.646724 140.464158 
L 322.699391 140.464158 
L 322.699391 135.673663 
L 322.72793 135.673663 
L 322.72793 130.883168 
L 322.837935 130.883168 
L 322.837935 126.092673 
L 323.382469 126.092673 
L 323.382469 121.302178 
L 323.720623 121.302178 
L 323.720623 116.511683 
L 324.401483 116.511683 
L 324.401483 111.721188 
L 327.345211 111.721188 
L 327.345211 106.930693 
L 356.576844 106.930693 
L 356.576844 102.140198 
L 365.491077 102.140198 
L 365.491077 97.349703 
L 366.058734 97.349703 
L 366.058734 92.559208 
L 366.493798 92.559208 
L 366.493798 87.768713 
L 369.424355 87.768713 
L 369.424355 82.978218 
L 373.197471 82.978218 
L 373.197471 78.187723 
L 394.267318 78.187723 
L 394.267318 73.397228 
L 399.817167 73.397228 
L 399.817167 68.606733 
L 414.041849 68.606733 
L 414.041849 63.816238 
L 427.722574 63.816238 
L 427.722574 59.025743 
L 427.722574 59.025743 
L 427.722574 59.025743 
L 460.8 59.025743 
" clip-path="url(#p9f0c0180df)" style="fill: none; stroke: #f5deb3; stroke-width: 1.5; stroke-linecap: square"/>
   </g>
   <g id="line2d_27">
    <path d="M 266.552958 293.76 
L 266.552958 288.969505 
L 268.411605 288.969505 
L 268.411605 284.17901 
L 270.256728 284.17901 
L 270.256728 279.388515 
L 270.401486 279.388515 
L 270.401486 274.59802 
L 271.74559 274.59802 
L 271.74559 269.807525 
L 272.100843 269.807525 
L 272.100843 265.01703 
L 273.547543 265.01703 
L 273.547543 260.226535 
L 273.901291 260.226535 
L 273.901291 255.43604 
L 273.95365 255.43604 
L 273.95365 250.645545 
L 273.993487 250.645545 
L 273.993487 245.85505 
L 274.492289 245.85505 
L 274.492289 241.064554 
L 275.841245 241.064554 
L 275.841245 236.274059 
L 276.082542 236.274059 
L 276.082542 231.483564 
L 276.499993 231.483564 
L 276.499993 226.693069 
L 276.504601 226.693069 
L 276.504601 221.902574 
L 276.727336 221.902574 
L 276.727336 217.112079 
L 276.816462 217.112079 
L 276.816462 212.321584 
L 277.170555 212.321584 
L 277.170555 207.531089 
L 277.271988 207.531089 
L 277.271988 202.740594 
L 277.46049 202.740594 
L 277.46049 197.950099 
L 277.491801 197.950099 
L 277.491801 193.159604 
L 277.556565 193.159604 
L 277.556565 188.369109 
L 277.891725 188.369109 
L 277.891725 183.578614 
L 277.98434 183.578614 
L 277.98434 178.788119 
L 278.336949 178.788119 
L 278.336949 173.997624 
L 279.361938 173.997624 
L 279.361938 169.207129 
L 279.7105 169.207129 
L 279.7105 164.416634 
L 279.791854 164.416634 
L 279.791854 159.626139 
L 279.960175 159.626139 
L 279.960175 154.835644 
L 280.304493 154.835644 
L 280.304493 150.045149 
L 281.626875 150.045149 
L 281.626875 145.254653 
L 282.293606 145.254653 
L 282.293606 140.464158 
L 282.393798 140.464158 
L 282.393798 135.673663 
L 283.041433 135.673663 
L 283.041433 130.883168 
L 283.25761 130.883168 
L 283.25761 126.092673 
L 285.679862 126.092673 
L 285.679862 121.302178 
L 285.73722 121.302178 
L 285.73722 116.511683 
L 286.153075 116.511683 
L 286.153075 111.721188 
L 302.753488 111.721188 
L 302.753488 106.930693 
L 303.526966 106.930693 
L 303.526966 102.140198 
L 312.416986 102.140198 
L 312.416986 97.349703 
L 313.122664 97.349703 
L 313.122664 92.559208 
L 316.945636 92.559208 
L 316.945636 87.768713 
L 318.824237 87.768713 
L 318.824237 82.978218 
L 323.46679 82.978218 
L 323.46679 78.187723 
L 323.46679 78.187723 
L 323.46679 78.187723 
L 460.8 78.187723 
" clip-path="url(#p9f0c0180df)" style="fill: none; stroke: #f5deb3; stroke-width: 1.5; stroke-linecap: square"/>
   </g>
   <g id="line2d_28">
    <path d="M 251.850443 293.76 
L 251.850443 288.969505 
L 253.583271 288.969505 
L 253.583271 284.17901 
L 254.386905 284.17901 
L 254.386905 279.388515 
L 254.797106 279.388515 
L 254.797106 274.59802 
L 256.549964 274.59802 
L 256.549964 269.807525 
L 256.719339 269.807525 
L 256.719339 265.01703 
L 257.034568 265.01703 
L 257.034568 260.226535 
L 257.334351 260.226535 
L 257.334351 255.43604 
L 299.271154 255.43604 
L 299.271154 250.645545 
L 299.320451 250.645545 
L 299.320451 245.85505 
L 299.475879 245.85505 
L 299.475879 241.064554 
L 299.576057 241.064554 
L 299.576057 236.274059 
L 299.887146 236.274059 
L 299.887146 231.483564 
L 308.489731 231.483564 
L 308.489731 226.693069 
L 309.878522 226.693069 
L 309.878522 221.902574 
L 310.108193 221.902574 
L 310.108193 217.112079 
L 310.177273 217.112079 
L 310.177273 212.321584 
L 310.281439 212.321584 
L 310.281439 207.531089 
L 310.633301 207.531089 
L 310.633301 202.740594 
L 311.138932 202.740594 
L 311.138932 197.950099 
L 311.55741 197.950099 
L 311.55741 193.159604 
L 311.735688 193.159604 
L 311.735688 188.369109 
L 312.192235 188.369109 
L 312.192235 183.578614 
L 312.56622 183.578614 
L 312.56622 178.788119 
L 312.634106 178.788119 
L 312.634106 173.997624 
L 312.663048 173.997624 
L 312.663048 169.207129 
L 313.158676 169.207129 
L 313.158676 164.416634 
L 313.398487 164.416634 
L 313.398487 159.626139 
L 313.431221 159.626139 
L 313.431221 154.835644 
L 313.571458 154.835644 
L 313.571458 150.045149 
L 314.218051 150.045149 
L 314.218051 145.254653 
L 314.452396 145.254653 
L 314.452396 140.464158 
L 314.549545 140.464158 
L 314.549545 135.673663 
L 314.605544 135.673663 
L 314.605544 130.883168 
L 314.627774 130.883168 
L 314.627774 126.092673 
L 315.306678 126.092673 
L 315.306678 121.302178 
L 315.6051 121.302178 
L 315.6051 116.511683 
L 315.653068 116.511683 
L 315.653068 111.721188 
L 315.703046 111.721188 
L 315.703046 106.930693 
L 315.784098 106.930693 
L 315.784098 102.140198 
L 315.873921 102.140198 
L 315.873921 97.349703 
L 316.245771 97.349703 
L 316.245771 92.559208 
L 317.534557 92.559208 
L 317.534557 87.768713 
L 318.718161 87.768713 
L 318.718161 82.978218 
L 318.845662 82.978218 
L 318.845662 78.187723 
L 320.425815 78.187723 
L 320.425815 73.397228 
L 320.49237 73.397228 
L 320.49237 68.606733 
L 320.709675 68.606733 
L 320.709675 63.816238 
L 321.216242 63.816238 
L 321.216242 59.025743 
L 322.111911 59.025743 
L 322.111911 54.235248 
L 322.595657 54.235248 
L 322.595657 49.444752 
L 323.432869 49.444752 
L 323.432869 44.654257 
L 323.715739 44.654257 
L 323.715739 39.863762 
L 324.5203 39.863762 
L 324.5203 35.073267 
L 325.507504 35.073267 
L 325.507504 30.282772 
L 327.842049 30.282772 
L 327.842049 25.492277 
L 328.978914 25.492277 
L 328.978914 20.701782 
L 329.318932 20.701782 
L 329.318932 15.911287 
L 345.36892 15.911287 
L 345.36892 11.120792 
L 346.564402 11.120792 
L 346.564402 6.330297 
L 346.564402 6.330297 
L 346.564402 6.330297 
L 460.8 6.330297 
" clip-path="url(#p9f0c0180df)" style="fill: none; stroke: #f5deb3; stroke-width: 1.5; stroke-linecap: square"/>
   </g>
   <g id="line2d_29">
    <path d="M 221.53793 293.76 
L 221.53793 288.969505 
L 221.53793 288.969505 
L 221.53793 284.17901 
L 221.53793 284.17901 
L 221.53793 279.388515 
L 230.983757 279.388515 
L 230.983757 274.59802 
L 230.983757 274.59802 
L 230.983757 269.807525 
L 230.983757 269.807525 
L 230.983757 265.01703 
L 246.306678 265.01703 
L 246.306678 260.226535 
L 246.306678 260.226535 
L 246.306678 255.43604 
L 246.306678 255.43604 
L 246.306678 250.645545 
L 246.85971 250.645545 
L 246.85971 245.85505 
L 246.85971 245.85505 
L 246.85971 241.064554 
L 246.85971 241.064554 
L 246.85971 236.274059 
L 256.753109 236.274059 
L 256.753109 231.483564 
L 256.753109 231.483564 
L 256.753109 226.693069 
L 256.753109 226.693069 
L 256.753109 221.902574 
L 258.047662 221.902574 
L 258.047662 217.112079 
L 258.047662 217.112079 
L 258.047662 212.321584 
L 258.047662 212.321584 
L 258.047662 207.531089 
L 258.322246 207.531089 
L 258.322246 202.740594 
L 258.322246 202.740594 
L 258.322246 197.950099 
L 258.322246 197.950099 
L 258.322246 193.159604 
L 259.238148 193.159604 
L 259.238148 188.369109 
L 259.238148 188.369109 
L 259.238148 183.578614 
L 259.238148 183.578614 
L 259.238148 178.788119 
L 259.285032 178.788119 
L 259.285032 173.997624 
L 259.285032 173.997624 
L 259.285032 169.207129 
L 259.285032 169.207129 
L 259.285032 164.416634 
L 276.143171 164.416634 
L 276.143171 159.626139 
L 276.143171 159.626139 
L 276.143171 154.835644 
L 276.143171 154.835644 
L 276.143171 150.045149 
L 276.143171 150.045149 
L 276.143171 150.045149 
L 460.8 150.045149 
" clip-path="url(#p9f0c0180df)" style="fill: none; stroke: #f5deb3; stroke-width: 1.5; stroke-linecap: square"/>
   </g>
   <g id="line2d_30"/>
   <g id="matplotlib.axis_1">
    <g id="xtick_1">
     <g id="line2d_31">
      <path d="M 137.390016 293.76 
L 137.390016 3.456 
" clip-path="url(#p9f0c0180df)" style="fill: none; stroke: #b0b0b0; stroke-width: 0.8; stroke-linecap: square"/>
     </g>
     <g id="line2d_32">
      <defs>
       <path id="m473552e438" d="M 0 0 
L 0 3.5 
" style="stroke: #000000; stroke-width: 0.8"/>
      </defs>
      <g>
       <use xlink:href="#m473552e438" x="137.390016" y="293.76" style="stroke: #000000; stroke-width: 0.8"/>
      </g>
     </g>
     <g id="text_1">
      <!-- 1 -->
      <g transform="translate(131.027516 315.956875)scale(0.2 -0.2)">
       <defs>
        <path id="DejaVuSans-31" d="M 794 531 
L 1825 531 
L 1825 4091 
L 703 3866 
L 703 4441 
L 1819 4666 
L 2450 4666 
L 2450 531 
L 3481 531 
L 3481 0 
L 794 0 
L 794 531 
z
" transform="scale(0.015625)"/>
       </defs>
       <use xlink:href="#DejaVuSans-31"/>
      </g>
     </g>
    </g>
    <g id="xtick_2">
     <g id="line2d_33">
      <path d="M 287.754048 293.76 
L 287.754048 3.456 
" clip-path="url(#p9f0c0180df)" style="fill: none; stroke: #b0b0b0; stroke-width: 0.8; stroke-linecap: square"/>
     </g>
     <g id="line2d_34">
      <g>
       <use xlink:href="#m473552e438" x="287.754048" y="293.76" style="stroke: #000000; stroke-width: 0.8"/>
      </g>
     </g>
     <g id="text_2">
      <!-- 3 -->
      <g transform="translate(281.391548 315.956875)scale(0.2 -0.2)">
       <defs>
        <path id="DejaVuSans-33" d="M 2597 2516 
Q 3050 2419 3304 2112 
Q 3559 1806 3559 1356 
Q 3559 666 3084 287 
Q 2609 -91 1734 -91 
Q 1441 -91 1130 -33 
Q 819 25 488 141 
L 488 750 
Q 750 597 1062 519 
Q 1375 441 1716 441 
Q 2309 441 2620 675 
Q 2931 909 2931 1356 
Q 2931 1769 2642 2001 
Q 2353 2234 1838 2234 
L 1294 2234 
L 1294 2753 
L 1863 2753 
Q 2328 2753 2575 2939 
Q 2822 3125 2822 3475 
Q 2822 3834 2567 4026 
Q 2313 4219 1838 4219 
Q 1578 4219 1281 4162 
Q 984 4106 628 3988 
L 628 4550 
Q 988 4650 1302 4700 
Q 1616 4750 1894 4750 
Q 2613 4750 3031 4423 
Q 3450 4097 3450 3541 
Q 3450 3153 3228 2886 
Q 3006 2619 2597 2516 
z
" transform="scale(0.015625)"/>
       </defs>
       <use xlink:href="#DejaVuSans-33"/>
      </g>
     </g>
    </g>
    <g id="xtick_3">
     <g id="line2d_35">
      <path d="M 438.118081 293.76 
L 438.118081 3.456 
" clip-path="url(#p9f0c0180df)" style="fill: none; stroke: #b0b0b0; stroke-width: 0.8; stroke-linecap: square"/>
     </g>
     <g id="line2d_36">
      <g>
       <use xlink:href="#m473552e438" x="438.118081" y="293.76" style="stroke: #000000; stroke-width: 0.8"/>
      </g>
     </g>
     <g id="text_3">
      <!-- 5 -->
      <g transform="translate(431.755581 315.956875)scale(0.2 -0.2)">
       <defs>
        <path id="DejaVuSans-35" d="M 691 4666 
L 3169 4666 
L 3169 4134 
L 1269 4134 
L 1269 2991 
Q 1406 3038 1543 3061 
Q 1681 3084 1819 3084 
Q 2600 3084 3056 2656 
Q 3513 2228 3513 1497 
Q 3513 744 3044 326 
Q 2575 -91 1722 -91 
Q 1428 -91 1123 -41 
Q 819 9 494 109 
L 494 744 
Q 775 591 1075 516 
Q 1375 441 1709 441 
Q 2250 441 2565 725 
Q 2881 1009 2881 1497 
Q 2881 1984 2565 2268 
Q 2250 2553 1709 2553 
Q 1456 2553 1204 2497 
Q 953 2441 691 2322 
L 691 4666 
z
" transform="scale(0.015625)"/>
       </defs>
       <use xlink:href="#DejaVuSans-35"/>
      </g>
     </g>
    </g>
    <g id="text_4">
     <!-- log10 of FEvals / DIM -->
     <g transform="translate(156.430563 339.313125)scale(0.2 -0.2)">
      <defs>
       <path id="DejaVuSans-6c" d="M 603 4863 
L 1178 4863 
L 1178 0 
L 603 0 
L 603 4863 
z
" transform="scale(0.015625)"/>
       <path id="DejaVuSans-6f" d="M 1959 3097 
Q 1497 3097 1228 2736 
Q 959 2375 959 1747 
Q 959 1119 1226 758 
Q 1494 397 1959 397 
Q 2419 397 2687 759 
Q 2956 1122 2956 1747 
Q 2956 2369 2687 2733 
Q 2419 3097 1959 3097 
z
M 1959 3584 
Q 2709 3584 3137 3096 
Q 3566 2609 3566 1747 
Q 3566 888 3137 398 
Q 2709 -91 1959 -91 
Q 1206 -91 779 398 
Q 353 888 353 1747 
Q 353 2609 779 3096 
Q 1206 3584 1959 3584 
z
" transform="scale(0.015625)"/>
       <path id="DejaVuSans-67" d="M 2906 1791 
Q 2906 2416 2648 2759 
Q 2391 3103 1925 3103 
Q 1463 3103 1205 2759 
Q 947 2416 947 1791 
Q 947 1169 1205 825 
Q 1463 481 1925 481 
Q 2391 481 2648 825 
Q 2906 1169 2906 1791 
z
M 3481 434 
Q 3481 -459 3084 -895 
Q 2688 -1331 1869 -1331 
Q 1566 -1331 1297 -1286 
Q 1028 -1241 775 -1147 
L 775 -588 
Q 1028 -725 1275 -790 
Q 1522 -856 1778 -856 
Q 2344 -856 2625 -561 
Q 2906 -266 2906 331 
L 2906 616 
Q 2728 306 2450 153 
Q 2172 0 1784 0 
Q 1141 0 747 490 
Q 353 981 353 1791 
Q 353 2603 747 3093 
Q 1141 3584 1784 3584 
Q 2172 3584 2450 3431 
Q 2728 3278 2906 2969 
L 2906 3500 
L 3481 3500 
L 3481 434 
z
" transform="scale(0.015625)"/>
       <path id="DejaVuSans-30" d="M 2034 4250 
Q 1547 4250 1301 3770 
Q 1056 3291 1056 2328 
Q 1056 1369 1301 889 
Q 1547 409 2034 409 
Q 2525 409 2770 889 
Q 3016 1369 3016 2328 
Q 3016 3291 2770 3770 
Q 2525 4250 2034 4250 
z
M 2034 4750 
Q 2819 4750 3233 4129 
Q 3647 3509 3647 2328 
Q 3647 1150 3233 529 
Q 2819 -91 2034 -91 
Q 1250 -91 836 529 
Q 422 1150 422 2328 
Q 422 3509 836 4129 
Q 1250 4750 2034 4750 
z
" transform="scale(0.015625)"/>
       <path id="DejaVuSans-20" transform="scale(0.015625)"/>
       <path id="DejaVuSans-66" d="M 2375 4863 
L 2375 4384 
L 1825 4384 
Q 1516 4384 1395 4259 
Q 1275 4134 1275 3809 
L 1275 3500 
L 2222 3500 
L 2222 3053 
L 1275 3053 
L 1275 0 
L 697 0 
L 697 3053 
L 147 3053 
L 147 3500 
L 697 3500 
L 697 3744 
Q 697 4328 969 4595 
Q 1241 4863 1831 4863 
L 2375 4863 
z
" transform="scale(0.015625)"/>
       <path id="DejaVuSans-46" d="M 628 4666 
L 3309 4666 
L 3309 4134 
L 1259 4134 
L 1259 2759 
L 3109 2759 
L 3109 2228 
L 1259 2228 
L 1259 0 
L 628 0 
L 628 4666 
z
" transform="scale(0.015625)"/>
       <path id="DejaVuSans-45" d="M 628 4666 
L 3578 4666 
L 3578 4134 
L 1259 4134 
L 1259 2753 
L 3481 2753 
L 3481 2222 
L 1259 2222 
L 1259 531 
L 3634 531 
L 3634 0 
L 628 0 
L 628 4666 
z
" transform="scale(0.015625)"/>
       <path id="DejaVuSans-76" d="M 191 3500 
L 800 3500 
L 1894 563 
L 2988 3500 
L 3597 3500 
L 2284 0 
L 1503 0 
L 191 3500 
z
" transform="scale(0.015625)"/>
       <path id="DejaVuSans-61" d="M 2194 1759 
Q 1497 1759 1228 1600 
Q 959 1441 959 1056 
Q 959 750 1161 570 
Q 1363 391 1709 391 
Q 2188 391 2477 730 
Q 2766 1069 2766 1631 
L 2766 1759 
L 2194 1759 
z
M 3341 1997 
L 3341 0 
L 2766 0 
L 2766 531 
Q 2569 213 2275 61 
Q 1981 -91 1556 -91 
Q 1019 -91 701 211 
Q 384 513 384 1019 
Q 384 1609 779 1909 
Q 1175 2209 1959 2209 
L 2766 2209 
L 2766 2266 
Q 2766 2663 2505 2880 
Q 2244 3097 1772 3097 
Q 1472 3097 1187 3025 
Q 903 2953 641 2809 
L 641 3341 
Q 956 3463 1253 3523 
Q 1550 3584 1831 3584 
Q 2591 3584 2966 3190 
Q 3341 2797 3341 1997 
z
" transform="scale(0.015625)"/>
       <path id="DejaVuSans-73" d="M 2834 3397 
L 2834 2853 
Q 2591 2978 2328 3040 
Q 2066 3103 1784 3103 
Q 1356 3103 1142 2972 
Q 928 2841 928 2578 
Q 928 2378 1081 2264 
Q 1234 2150 1697 2047 
L 1894 2003 
Q 2506 1872 2764 1633 
Q 3022 1394 3022 966 
Q 3022 478 2636 193 
Q 2250 -91 1575 -91 
Q 1294 -91 989 -36 
Q 684 19 347 128 
L 347 722 
Q 666 556 975 473 
Q 1284 391 1588 391 
Q 1994 391 2212 530 
Q 2431 669 2431 922 
Q 2431 1156 2273 1281 
Q 2116 1406 1581 1522 
L 1381 1569 
Q 847 1681 609 1914 
Q 372 2147 372 2553 
Q 372 3047 722 3315 
Q 1072 3584 1716 3584 
Q 2034 3584 2315 3537 
Q 2597 3491 2834 3397 
z
" transform="scale(0.015625)"/>
       <path id="DejaVuSans-2f" d="M 1625 4666 
L 2156 4666 
L 531 -594 
L 0 -594 
L 1625 4666 
z
" transform="scale(0.015625)"/>
       <path id="DejaVuSans-44" d="M 1259 4147 
L 1259 519 
L 2022 519 
Q 2988 519 3436 956 
Q 3884 1394 3884 2338 
Q 3884 3275 3436 3711 
Q 2988 4147 2022 4147 
L 1259 4147 
z
M 628 4666 
L 1925 4666 
Q 3281 4666 3915 4102 
Q 4550 3538 4550 2338 
Q 4550 1131 3912 565 
Q 3275 0 1925 0 
L 628 0 
L 628 4666 
z
" transform="scale(0.015625)"/>
       <path id="DejaVuSans-49" d="M 628 4666 
L 1259 4666 
L 1259 0 
L 628 0 
L 628 4666 
z
" transform="scale(0.015625)"/>
       <path id="DejaVuSans-4d" d="M 628 4666 
L 1569 4666 
L 2759 1491 
L 3956 4666 
L 4897 4666 
L 4897 0 
L 4281 0 
L 4281 4097 
L 3078 897 
L 2444 897 
L 1241 4097 
L 1241 0 
L 628 0 
L 628 4666 
z
" transform="scale(0.015625)"/>
      </defs>
      <use xlink:href="#DejaVuSans-6c"/>
      <use xlink:href="#DejaVuSans-6f" x="27.783203"/>
      <use xlink:href="#DejaVuSans-67" x="88.964844"/>
      <use xlink:href="#DejaVuSans-31" x="152.441406"/>
      <use xlink:href="#DejaVuSans-30" x="216.064453"/>
      <use xlink:href="#DejaVuSans-20" x="279.6875"/>
      <use xlink:href="#DejaVuSans-6f" x="311.474609"/>
      <use xlink:href="#DejaVuSans-66" x="372.65625"/>
      <use xlink:href="#DejaVuSans-20" x="407.861328"/>
      <use xlink:href="#DejaVuSans-46" x="439.648438"/>
      <use xlink:href="#DejaVuSans-45" x="497.167969"/>
      <use xlink:href="#DejaVuSans-76" x="560.351562"/>
      <use xlink:href="#DejaVuSans-61" x="619.53125"/>
      <use xlink:href="#DejaVuSans-6c" x="680.810547"/>
      <use xlink:href="#DejaVuSans-73" x="708.59375"/>
      <use xlink:href="#DejaVuSans-20" x="760.693359"/>
      <use xlink:href="#DejaVuSans-2f" x="792.480469"/>
      <use xlink:href="#DejaVuSans-20" x="826.171875"/>
      <use xlink:href="#DejaVuSans-44" x="857.958984"/>
      <use xlink:href="#DejaVuSans-49" x="934.960938"/>
      <use xlink:href="#DejaVuSans-4d" x="964.453125"/>
     </g>
    </g>
   </g>
   <g id="matplotlib.axis_2">
    <g id="ytick_1">
     <g id="line2d_37">
      <path d="M 62.208 293.76 
L 460.8 293.76 
" clip-path="url(#p9f0c0180df)" style="fill: none; stroke: #b0b0b0; stroke-width: 0.8; stroke-linecap: square"/>
     </g>
     <g id="line2d_38">
      <defs>
       <path id="me1880de372" d="M 0 0 
L -3.5 0 
" style="stroke: #000000; stroke-width: 0.8"/>
      </defs>
      <g>
       <use xlink:href="#me1880de372" x="62.208" y="293.76" style="stroke: #000000; stroke-width: 0.8"/>
      </g>
     </g>
     <g id="text_5">
      <!-- 0.0 -->
      <g transform="translate(29.763 299.83875)scale(0.16 -0.16)">
       <defs>
        <path id="DejaVuSans-2e" d="M 684 794 
L 1344 794 
L 1344 0 
L 684 0 
L 684 794 
z
" transform="scale(0.015625)"/>
       </defs>
       <use xlink:href="#DejaVuSans-30"/>
       <use xlink:href="#DejaVuSans-2e" x="63.623047"/>
       <use xlink:href="#DejaVuSans-30" x="95.410156"/>
      </g>
     </g>
    </g>
    <g id="ytick_2">
     <g id="line2d_39">
      <path d="M 62.208 236.274059 
L 460.8 236.274059 
" clip-path="url(#p9f0c0180df)" style="fill: none; stroke: #b0b0b0; stroke-width: 0.8; stroke-linecap: square"/>
     </g>
     <g id="line2d_40">
      <g>
       <use xlink:href="#me1880de372" x="62.208" y="236.274059" style="stroke: #000000; stroke-width: 0.8"/>
      </g>
     </g>
     <g id="text_6">
      <!-- 0.2 -->
      <g transform="translate(29.763 242.352809)scale(0.16 -0.16)">
       <defs>
        <path id="DejaVuSans-32" d="M 1228 531 
L 3431 531 
L 3431 0 
L 469 0 
L 469 531 
Q 828 903 1448 1529 
Q 2069 2156 2228 2338 
Q 2531 2678 2651 2914 
Q 2772 3150 2772 3378 
Q 2772 3750 2511 3984 
Q 2250 4219 1831 4219 
Q 1534 4219 1204 4116 
Q 875 4013 500 3803 
L 500 4441 
Q 881 4594 1212 4672 
Q 1544 4750 1819 4750 
Q 2544 4750 2975 4387 
Q 3406 4025 3406 3419 
Q 3406 3131 3298 2873 
Q 3191 2616 2906 2266 
Q 2828 2175 2409 1742 
Q 1991 1309 1228 531 
z
" transform="scale(0.015625)"/>
       </defs>
       <use xlink:href="#DejaVuSans-30"/>
       <use xlink:href="#DejaVuSans-2e" x="63.623047"/>
       <use xlink:href="#DejaVuSans-32" x="95.410156"/>
      </g>
     </g>
    </g>
    <g id="ytick_3">
     <g id="line2d_41">
      <path d="M 62.208 178.788119 
L 460.8 178.788119 
" clip-path="url(#p9f0c0180df)" style="fill: none; stroke: #b0b0b0; stroke-width: 0.8; stroke-linecap: square"/>
     </g>
     <g id="line2d_42">
      <g>
       <use xlink:href="#me1880de372" x="62.208" y="178.788119" style="stroke: #000000; stroke-width: 0.8"/>
      </g>
     </g>
     <g id="text_7">
      <!-- 0.4 -->
      <g transform="translate(29.763 184.866869)scale(0.16 -0.16)">
       <defs>
        <path id="DejaVuSans-34" d="M 2419 4116 
L 825 1625 
L 2419 1625 
L 2419 4116 
z
M 2253 4666 
L 3047 4666 
L 3047 1625 
L 3713 1625 
L 3713 1100 
L 3047 1100 
L 3047 0 
L 2419 0 
L 2419 1100 
L 313 1100 
L 313 1709 
L 2253 4666 
z
" transform="scale(0.015625)"/>
       </defs>
       <use xlink:href="#DejaVuSans-30"/>
       <use xlink:href="#DejaVuSans-2e" x="63.623047"/>
       <use xlink:href="#DejaVuSans-34" x="95.410156"/>
      </g>
     </g>
    </g>
    <g id="ytick_4">
     <g id="line2d_43">
      <path d="M 62.208 121.302178 
L 460.8 121.302178 
" clip-path="url(#p9f0c0180df)" style="fill: none; stroke: #b0b0b0; stroke-width: 0.8; stroke-linecap: square"/>
     </g>
     <g id="line2d_44">
      <g>
       <use xlink:href="#me1880de372" x="62.208" y="121.302178" style="stroke: #000000; stroke-width: 0.8"/>
      </g>
     </g>
     <g id="text_8">
      <!-- 0.6 -->
      <g transform="translate(29.763 127.380928)scale(0.16 -0.16)">
       <defs>
        <path id="DejaVuSans-36" d="M 2113 2584 
Q 1688 2584 1439 2293 
Q 1191 2003 1191 1497 
Q 1191 994 1439 701 
Q 1688 409 2113 409 
Q 2538 409 2786 701 
Q 3034 994 3034 1497 
Q 3034 2003 2786 2293 
Q 2538 2584 2113 2584 
z
M 3366 4563 
L 3366 3988 
Q 3128 4100 2886 4159 
Q 2644 4219 2406 4219 
Q 1781 4219 1451 3797 
Q 1122 3375 1075 2522 
Q 1259 2794 1537 2939 
Q 1816 3084 2150 3084 
Q 2853 3084 3261 2657 
Q 3669 2231 3669 1497 
Q 3669 778 3244 343 
Q 2819 -91 2113 -91 
Q 1303 -91 875 529 
Q 447 1150 447 2328 
Q 447 3434 972 4092 
Q 1497 4750 2381 4750 
Q 2619 4750 2861 4703 
Q 3103 4656 3366 4563 
z
" transform="scale(0.015625)"/>
       </defs>
       <use xlink:href="#DejaVuSans-30"/>
       <use xlink:href="#DejaVuSans-2e" x="63.623047"/>
       <use xlink:href="#DejaVuSans-36" x="95.410156"/>
      </g>
     </g>
    </g>
    <g id="ytick_5">
     <g id="line2d_45">
      <path d="M 62.208 63.816238 
L 460.8 63.816238 
" clip-path="url(#p9f0c0180df)" style="fill: none; stroke: #b0b0b0; stroke-width: 0.8; stroke-linecap: square"/>
     </g>
     <g id="line2d_46">
      <g>
       <use xlink:href="#me1880de372" x="62.208" y="63.816238" style="stroke: #000000; stroke-width: 0.8"/>
      </g>
     </g>
     <g id="text_9">
      <!-- 0.8 -->
      <g transform="translate(29.763 69.894988)scale(0.16 -0.16)">
       <defs>
        <path id="DejaVuSans-38" d="M 2034 2216 
Q 1584 2216 1326 1975 
Q 1069 1734 1069 1313 
Q 1069 891 1326 650 
Q 1584 409 2034 409 
Q 2484 409 2743 651 
Q 3003 894 3003 1313 
Q 3003 1734 2745 1975 
Q 2488 2216 2034 2216 
z
M 1403 2484 
Q 997 2584 770 2862 
Q 544 3141 544 3541 
Q 544 4100 942 4425 
Q 1341 4750 2034 4750 
Q 2731 4750 3128 4425 
Q 3525 4100 3525 3541 
Q 3525 3141 3298 2862 
Q 3072 2584 2669 2484 
Q 3125 2378 3379 2068 
Q 3634 1759 3634 1313 
Q 3634 634 3220 271 
Q 2806 -91 2034 -91 
Q 1263 -91 848 271 
Q 434 634 434 1313 
Q 434 1759 690 2068 
Q 947 2378 1403 2484 
z
M 1172 3481 
Q 1172 3119 1398 2916 
Q 1625 2713 2034 2713 
Q 2441 2713 2670 2916 
Q 2900 3119 2900 3481 
Q 2900 3844 2670 4047 
Q 2441 4250 2034 4250 
Q 1625 4250 1398 4047 
Q 1172 3844 1172 3481 
z
" transform="scale(0.015625)"/>
       </defs>
       <use xlink:href="#DejaVuSans-30"/>
       <use xlink:href="#DejaVuSans-2e" x="63.623047"/>
       <use xlink:href="#DejaVuSans-38" x="95.410156"/>
      </g>
     </g>
    </g>
    <g id="ytick_6">
     <g id="line2d_47">
      <path d="M 62.208 6.330297 
L 460.8 6.330297 
" clip-path="url(#p9f0c0180df)" style="fill: none; stroke: #b0b0b0; stroke-width: 0.8; stroke-linecap: square"/>
     </g>
     <g id="line2d_48">
      <g>
       <use xlink:href="#me1880de372" x="62.208" y="6.330297" style="stroke: #000000; stroke-width: 0.8"/>
      </g>
     </g>
     <g id="text_10">
      <!-- 1.0 -->
      <g transform="translate(29.763 12.409047)scale(0.16 -0.16)">
       <use xlink:href="#DejaVuSans-31"/>
       <use xlink:href="#DejaVuSans-2e" x="63.623047"/>
       <use xlink:href="#DejaVuSans-30" x="95.410156"/>
      </g>
     </g>
    </g>
    <g id="text_11">
     <!-- proportion of trials -->
     <g transform="translate(21.603625 241.61425)rotate(-90)scale(0.2 -0.2)">
      <defs>
       <path id="DejaVuSans-70" d="M 1159 525 
L 1159 -1331 
L 581 -1331 
L 581 3500 
L 1159 3500 
L 1159 2969 
Q 1341 3281 1617 3432 
Q 1894 3584 2278 3584 
Q 2916 3584 3314 3078 
Q 3713 2572 3713 1747 
Q 3713 922 3314 415 
Q 2916 -91 2278 -91 
Q 1894 -91 1617 61 
Q 1341 213 1159 525 
z
M 3116 1747 
Q 3116 2381 2855 2742 
Q 2594 3103 2138 3103 
Q 1681 3103 1420 2742 
Q 1159 2381 1159 1747 
Q 1159 1113 1420 752 
Q 1681 391 2138 391 
Q 2594 391 2855 752 
Q 3116 1113 3116 1747 
z
" transform="scale(0.015625)"/>
       <path id="DejaVuSans-72" d="M 2631 2963 
Q 2534 3019 2420 3045 
Q 2306 3072 2169 3072 
Q 1681 3072 1420 2755 
Q 1159 2438 1159 1844 
L 1159 0 
L 581 0 
L 581 3500 
L 1159 3500 
L 1159 2956 
Q 1341 3275 1631 3429 
Q 1922 3584 2338 3584 
Q 2397 3584 2469 3576 
Q 2541 3569 2628 3553 
L 2631 2963 
z
" transform="scale(0.015625)"/>
       <path id="DejaVuSans-74" d="M 1172 4494 
L 1172 3500 
L 2356 3500 
L 2356 3053 
L 1172 3053 
L 1172 1153 
Q 1172 725 1289 603 
Q 1406 481 1766 481 
L 2356 481 
L 2356 0 
L 1766 0 
Q 1100 0 847 248 
Q 594 497 594 1153 
L 594 3053 
L 172 3053 
L 172 3500 
L 594 3500 
L 594 4494 
L 1172 4494 
z
" transform="scale(0.015625)"/>
       <path id="DejaVuSans-69" d="M 603 3500 
L 1178 3500 
L 1178 0 
L 603 0 
L 603 3500 
z
M 603 4863 
L 1178 4863 
L 1178 4134 
L 603 4134 
L 603 4863 
z
" transform="scale(0.015625)"/>
       <path id="DejaVuSans-6e" d="M 3513 2113 
L 3513 0 
L 2938 0 
L 2938 2094 
Q 2938 2591 2744 2837 
Q 2550 3084 2163 3084 
Q 1697 3084 1428 2787 
Q 1159 2491 1159 1978 
L 1159 0 
L 581 0 
L 581 3500 
L 1159 3500 
L 1159 2956 
Q 1366 3272 1645 3428 
Q 1925 3584 2291 3584 
Q 2894 3584 3203 3211 
Q 3513 2838 3513 2113 
z
" transform="scale(0.015625)"/>
      </defs>
      <use xlink:href="#DejaVuSans-70"/>
      <use xlink:href="#DejaVuSans-72" x="63.476562"/>
      <use xlink:href="#DejaVuSans-6f" x="102.339844"/>
      <use xlink:href="#DejaVuSans-70" x="163.521484"/>
      <use xlink:href="#DejaVuSans-6f" x="226.998047"/>
      <use xlink:href="#DejaVuSans-72" x="288.179688"/>
      <use xlink:href="#DejaVuSans-74" x="329.292969"/>
      <use xlink:href="#DejaVuSans-69" x="368.501953"/>
      <use xlink:href="#DejaVuSans-6f" x="396.285156"/>
      <use xlink:href="#DejaVuSans-6e" x="457.466797"/>
      <use xlink:href="#DejaVuSans-20" x="520.845703"/>
      <use xlink:href="#DejaVuSans-6f" x="552.632812"/>
      <use xlink:href="#DejaVuSans-66" x="613.814453"/>
      <use xlink:href="#DejaVuSans-20" x="649.019531"/>
      <use xlink:href="#DejaVuSans-74" x="680.806641"/>
      <use xlink:href="#DejaVuSans-72" x="720.015625"/>
      <use xlink:href="#DejaVuSans-69" x="761.128906"/>
      <use xlink:href="#DejaVuSans-61" x="788.912109"/>
      <use xlink:href="#DejaVuSans-6c" x="850.191406"/>
      <use xlink:href="#DejaVuSans-73" x="877.974609"/>
     </g>
    </g>
   </g>
   <g id="line2d_49">
    <path d="M 178.34076 293.76 
L 178.34076 288.969505 
L 180.979316 288.969505 
L 180.979316 284.17901 
L 183.380608 284.17901 
L 183.380608 279.388515 
L 183.856118 279.388515 
L 183.856118 274.59802 
L 186.752821 274.59802 
L 186.752821 269.807525 
L 188.74287 269.807525 
L 188.74287 265.01703 
L 190.135312 265.01703 
L 190.135312 260.226535 
L 190.232536 260.226535 
L 190.232536 255.43604 
L 192.270955 255.43604 
L 192.270955 250.645545 
L 192.331701 250.645545 
L 192.331701 245.85505 
L 192.392334 245.85505 
L 192.392334 241.064554 
L 192.75379 241.064554 
L 192.75379 236.274059 
L 195.344225 236.274059 
L 195.344225 231.483564 
L 197.692704 231.483564 
L 197.692704 226.693069 
L 202.474791 226.693069 
L 202.474791 221.902574 
L 208.249375 221.902574 
L 208.249375 217.112079 
L 210.983059 217.112079 
L 210.983059 212.321584 
L 211.978958 212.321584 
L 211.978958 207.531089 
L 213.266592 207.531089 
L 213.266592 202.740594 
L 213.616315 202.740594 
L 213.616315 197.950099 
L 214.628231 197.950099 
L 214.628231 193.159604 
L 214.994074 193.159604 
L 214.994074 188.369109 
L 215.400806 188.369109 
L 215.400806 183.578614 
L 215.99421 183.578614 
L 215.99421 178.788119 
L 216.548126 178.788119 
L 216.548126 173.997624 
L 217.879276 173.997624 
L 217.879276 169.207129 
L 218.045369 169.207129 
L 218.045369 164.416634 
L 218.416019 164.416634 
L 218.416019 159.626139 
L 219.264848 159.626139 
L 219.264848 154.835644 
L 219.857922 154.835644 
L 219.857922 150.045149 
L 257.573857 150.045149 
L 257.573857 145.254653 
L 257.688855 145.254653 
L 257.688855 140.464158 
L 259.479663 140.464158 
L 259.479663 135.673663 
L 259.634536 135.673663 
L 259.634536 130.883168 
L 259.968871 130.883168 
L 259.968871 126.092673 
L 260.631188 126.092673 
L 260.631188 121.302178 
L 261.448851 121.302178 
L 261.448851 116.511683 
L 261.54007 116.511683 
L 261.54007 111.721188 
L 261.612863 111.721188 
L 261.612863 106.930693 
L 261.797753 106.930693 
L 261.797753 102.140198 
L 262.615279 102.140198 
L 262.615279 97.349703 
L 262.668121 97.349703 
L 262.668121 92.559208 
L 262.706818 92.559208 
L 262.706818 87.768713 
L 263.299097 87.768713 
L 263.299097 82.978218 
L 263.789122 82.978218 
L 263.789122 78.187723 
L 263.850286 78.187723 
L 263.850286 73.397228 
L 264.002695 73.397228 
L 264.002695 68.606733 
L 264.767456 68.606733 
L 264.767456 63.816238 
L 265.563069 63.816238 
L 265.563069 59.025743 
L 266.049073 59.025743 
L 266.049073 54.235248 
L 266.565456 54.235248 
L 266.565456 49.444752 
L 267.565263 49.444752 
L 267.565263 44.654257 
L 267.568292 44.654257 
L 267.568292 39.863762 
L 267.821777 39.863762 
L 267.821777 35.073267 
L 269.965273 35.073267 
L 269.965273 30.282772 
L 270.242775 30.282772 
L 270.242775 25.492277 
L 270.985098 25.492277 
L 270.985098 20.701782 
L 271.372951 20.701782 
L 271.372951 15.911287 
L 273.983532 15.911287 
L 273.983532 11.120792 
L 279.933219 11.120792 
L 279.933219 6.330297 
L 279.933219 6.330297 
L 279.933219 6.330297 
L 460.8 6.330297 
" clip-path="url(#p9f0c0180df)" style="fill: none; stroke: #000000; stroke-width: 1.5; stroke-linecap: square"/>
   </g>
   <g id="line2d_50">
    <path clip-path="url(#p9f0c0180df)" style="fill: none; stroke: #000000; stroke-width: 1.5; stroke-linecap: square"/>
   </g>
   <g id="line2d_51">
    <path d="M 231.917757 293.76 
L 231.917757 288.969505 
L 232.437177 288.969505 
L 232.437177 284.17901 
L 232.764266 284.17901 
L 232.764266 279.388515 
L 233.391521 279.388515 
L 233.391521 274.59802 
L 233.4863 274.59802 
L 233.4863 269.807525 
L 234.694018 269.807525 
L 234.694018 265.01703 
L 234.884164 265.01703 
L 234.884164 260.226535 
L 235.089595 260.226535 
L 235.089595 255.43604 
L 235.204074 255.43604 
L 235.204074 250.645545 
L 235.431836 250.645545 
L 235.431836 245.85505 
L 235.456145 245.85505 
L 235.456145 241.064554 
L 236.797128 241.064554 
L 236.797128 236.274059 
L 237.860229 236.274059 
L 237.860229 231.483564 
L 237.96541 231.483564 
L 237.96541 226.693069 
L 238.212004 226.693069 
L 238.212004 221.902574 
L 246.882551 221.902574 
L 246.882551 217.112079 
L 268.328839 217.112079 
L 268.328839 212.321584 
L 268.458806 212.321584 
L 268.458806 207.531089 
L 268.970658 207.531089 
L 268.970658 202.740594 
L 270.584297 202.740594 
L 270.584297 197.950099 
L 270.862087 197.950099 
L 270.862087 193.159604 
L 271.281151 193.159604 
L 271.281151 188.369109 
L 271.867978 188.369109 
L 271.867978 183.578614 
L 272.245544 183.578614 
L 272.245544 178.788119 
L 276.513816 178.788119 
L 276.513816 173.997624 
L 286.766252 173.997624 
L 286.766252 169.207129 
L 287.70667 169.207129 
L 287.70667 164.416634 
L 289.751944 164.416634 
L 289.751944 159.626139 
L 289.779574 159.626139 
L 289.779574 154.835644 
L 289.805648 154.835644 
L 289.805648 150.045149 
L 289.944866 150.045149 
L 289.944866 145.254653 
L 290.086533 145.254653 
L 290.086533 140.464158 
L 290.333358 140.464158 
L 290.333358 135.673663 
L 290.428258 135.673663 
L 290.428258 130.883168 
L 290.438786 130.883168 
L 290.438786 126.092673 
L 290.615741 126.092673 
L 290.615741 121.302178 
L 290.775376 121.302178 
L 290.775376 116.511683 
L 290.888288 116.511683 
L 290.888288 111.721188 
L 291.177696 111.721188 
L 291.177696 106.930693 
L 291.547515 106.930693 
L 291.547515 102.140198 
L 291.595444 102.140198 
L 291.595444 97.349703 
L 291.806658 97.349703 
L 291.806658 92.559208 
L 291.894501 92.559208 
L 291.894501 87.768713 
L 291.987846 87.768713 
L 291.987846 82.978218 
L 292.048019 82.978218 
L 292.048019 78.187723 
L 292.359995 78.187723 
L 292.359995 73.397228 
L 292.456261 73.397228 
L 292.456261 68.606733 
L 292.936165 68.606733 
L 292.936165 63.816238 
L 292.983492 63.816238 
L 292.983492 59.025743 
L 293.337647 59.025743 
L 293.337647 54.235248 
L 293.481802 54.235248 
L 293.481802 49.444752 
L 293.484542 49.444752 
L 293.484542 44.654257 
L 293.649865 44.654257 
L 293.649865 39.863762 
L 293.819778 39.863762 
L 293.819778 35.073267 
L 294.815838 35.073267 
L 294.815838 30.282772 
L 295.706997 30.282772 
L 295.706997 25.492277 
L 295.890747 25.492277 
L 295.890747 20.701782 
L 297.051959 20.701782 
L 297.051959 15.911287 
L 319.233924 15.911287 
L 319.233924 11.120792 
L 320.981058 11.120792 
L 320.981058 6.330297 
L 320.981058 6.330297 
L 320.981058 6.330297 
L 460.8 6.330297 
" clip-path="url(#p9f0c0180df)" style="fill: none; stroke: #00bfbf; stroke-width: 1.5; stroke-linecap: square"/>
   </g>
   <g id="line2d_52">
    <path clip-path="url(#p9f0c0180df)" style="fill: none; stroke: #00bfbf; stroke-width: 1.5; stroke-linecap: square"/>
   </g>
   <g id="line2d_53">
    <path d="M 247.932914 293.76 
L 247.932914 288.969505 
L 250.025657 288.969505 
L 250.025657 284.17901 
L 250.865012 284.17901 
L 250.865012 279.388515 
L 250.945756 279.388515 
L 250.945756 274.59802 
L 250.965911 274.59802 
L 250.965911 269.807525 
L 251.016245 269.807525 
L 251.016245 265.01703 
L 251.156766 265.01703 
L 251.156766 260.226535 
L 251.525259 260.226535 
L 251.525259 255.43604 
L 251.703034 255.43604 
L 251.703034 250.645545 
L 251.722727 250.645545 
L 251.722727 245.85505 
L 252.00695 245.85505 
L 252.00695 241.064554 
L 252.759358 241.064554 
L 252.759358 236.274059 
L 253.279668 236.274059 
L 253.279668 231.483564 
L 253.373385 231.483564 
L 253.373385 226.693069 
L 254.980251 226.693069 
L 254.980251 221.902574 
L 255.950137 221.902574 
L 255.950137 217.112079 
L 271.668195 217.112079 
L 271.668195 212.321584 
L 271.809502 212.321584 
L 271.809502 207.531089 
L 271.992556 207.531089 
L 271.992556 202.740594 
L 273.438895 202.740594 
L 273.438895 197.950099 
L 274.320298 197.950099 
L 274.320298 193.159604 
L 274.746156 193.159604 
L 274.746156 188.369109 
L 278.315159 188.369109 
L 278.315159 183.578614 
L 280.885858 183.578614 
L 280.885858 178.788119 
L 288.861517 178.788119 
L 288.861517 173.997624 
L 290.438786 173.997624 
L 290.438786 169.207129 
L 292.927806 169.207129 
L 292.927806 164.416634 
L 293.934816 164.416634 
L 293.934816 159.626139 
L 294.007689 159.626139 
L 294.007689 154.835644 
L 294.148922 154.835644 
L 294.148922 150.045149 
L 294.684068 150.045149 
L 294.684068 145.254653 
L 294.705187 145.254653 
L 294.705187 140.464158 
L 295.219677 140.464158 
L 295.219677 135.673663 
L 295.351894 135.673663 
L 295.351894 130.883168 
L 295.425548 130.883168 
L 295.425548 126.092673 
L 295.447483 126.092673 
L 295.447483 121.302178 
L 295.616017 121.302178 
L 295.616017 116.511683 
L 295.841083 116.511683 
L 295.841083 111.721188 
L 295.942876 111.721188 
L 295.942876 106.930693 
L 296.102558 106.930693 
L 296.102558 102.140198 
L 296.287872 102.140198 
L 296.287872 97.349703 
L 296.499629 97.349703 
L 296.499629 92.559208 
L 296.629261 92.559208 
L 296.629261 87.768713 
L 296.858593 87.768713 
L 296.858593 82.978218 
L 297.039677 82.978218 
L 297.039677 78.187723 
L 297.472892 78.187723 
L 297.472892 73.397228 
L 297.574564 73.397228 
L 297.574564 68.606733 
L 297.630108 68.606733 
L 297.630108 63.816238 
L 297.827367 63.816238 
L 297.827367 59.025743 
L 298.109153 59.025743 
L 298.109153 54.235248 
L 298.367303 54.235248 
L 298.367303 49.444752 
L 298.672544 49.444752 
L 298.672544 44.654257 
L 298.769389 44.654257 
L 298.769389 39.863762 
L 298.974958 39.863762 
L 298.974958 35.073267 
L 300.786591 35.073267 
L 300.786591 30.282772 
L 300.818339 30.282772 
L 300.818339 25.492277 
L 300.839122 25.492277 
L 300.839122 20.701782 
L 302.101465 20.701782 
L 302.101465 15.911287 
L 321.511925 15.911287 
L 321.511925 11.120792 
L 323.121563 11.120792 
L 323.121563 6.330297 
L 323.121563 6.330297 
L 323.121563 6.330297 
L 460.8 6.330297 
" clip-path="url(#p9f0c0180df)" style="fill: none; stroke: #bf00bf; stroke-width: 1.5; stroke-linecap: square"/>
   </g>
   <g id="line2d_54">
    <path clip-path="url(#p9f0c0180df)" style="fill: none; stroke: #bf00bf; stroke-width: 1.5; stroke-linecap: square"/>
   </g>
   <g id="line2d_55">
    <path d="M 251.860247 293.76 
L 251.860247 288.969505 
L 262.349778 288.969505 
L 262.349778 284.17901 
L 263.857074 284.17901 
L 263.857074 279.388515 
L 263.918111 279.388515 
L 263.918111 274.59802 
L 264.605317 274.59802 
L 264.605317 269.807525 
L 264.764155 269.807525 
L 264.764155 265.01703 
L 265.637075 265.01703 
L 265.637075 260.226535 
L 265.982356 260.226535 
L 265.982356 255.43604 
L 266.061765 255.43604 
L 266.061765 250.645545 
L 266.690174 250.645545 
L 266.690174 245.85505 
L 266.780298 245.85505 
L 266.780298 241.064554 
L 267.474245 241.064554 
L 267.474245 236.274059 
L 267.522819 236.274059 
L 267.522819 231.483564 
L 267.845817 231.483564 
L 267.845817 226.693069 
L 268.664511 226.693069 
L 268.664511 221.902574 
L 272.069186 221.902574 
L 272.069186 217.112079 
L 272.781888 217.112079 
L 272.781888 212.321584 
L 273.405977 212.321584 
L 273.405977 207.531089 
L 274.048183 207.531089 
L 274.048183 202.740594 
L 274.697489 202.740594 
L 274.697489 197.950099 
L 274.886884 197.950099 
L 274.886884 193.159604 
L 275.096844 193.159604 
L 275.096844 188.369109 
L 279.054396 188.369109 
L 279.054396 183.578614 
L 284.135655 183.578614 
L 284.135655 178.788119 
L 290.869002 178.788119 
L 290.869002 173.997624 
L 291.365321 173.997624 
L 291.365321 169.207129 
L 294.430901 169.207129 
L 294.430901 164.416634 
L 294.46415 164.416634 
L 294.46415 159.626139 
L 294.781629 159.626139 
L 294.781629 154.835644 
L 294.97588 154.835644 
L 294.97588 150.045149 
L 296.101293 150.045149 
L 296.101293 145.254653 
L 296.804195 145.254653 
L 296.804195 140.464158 
L 296.900566 140.464158 
L 296.900566 135.673663 
L 297.299077 135.673663 
L 297.299077 130.883168 
L 297.628901 130.883168 
L 297.628901 126.092673 
L 297.700006 126.092673 
L 297.700006 121.302178 
L 297.841754 121.302178 
L 297.841754 116.511683 
L 297.94109 116.511683 
L 297.94109 111.721188 
L 298.187524 111.721188 
L 298.187524 106.930693 
L 298.350786 106.930693 
L 298.350786 102.140198 
L 298.50384 102.140198 
L 298.50384 97.349703 
L 298.817122 97.349703 
L 298.817122 92.559208 
L 298.927455 92.559208 
L 298.927455 87.768713 
L 298.943683 87.768713 
L 298.943683 82.978218 
L 298.99232 82.978218 
L 298.99232 78.187723 
L 299.345644 78.187723 
L 299.345644 73.397228 
L 299.539664 73.397228 
L 299.539664 68.606733 
L 299.811626 68.606733 
L 299.811626 63.816238 
L 299.913031 63.816238 
L 299.913031 59.025743 
L 300.349957 59.025743 
L 300.349957 54.235248 
L 300.462983 54.235248 
L 300.462983 49.444752 
L 300.670286 49.444752 
L 300.670286 44.654257 
L 300.787687 44.654257 
L 300.787687 39.863762 
L 300.824903 39.863762 
L 300.824903 35.073267 
L 302.692588 35.073267 
L 302.692588 30.282772 
L 303.105302 30.282772 
L 303.105302 25.492277 
L 303.19292 25.492277 
L 303.19292 20.701782 
L 304.236259 20.701782 
L 304.236259 15.911287 
L 322.694352 15.911287 
L 322.694352 11.120792 
L 324.160404 11.120792 
L 324.160404 6.330297 
L 324.160404 6.330297 
L 324.160404 6.330297 
L 460.8 6.330297 
" clip-path="url(#p9f0c0180df)" style="fill: none; stroke: #ff0000; stroke-width: 3; stroke-linecap: square"/>
   </g>
   <g id="line2d_56">
    <path clip-path="url(#p9f0c0180df)" style="fill: none; stroke: #ff0000; stroke-width: 3; stroke-linecap: square"/>
   </g>
   <g id="line2d_57">
    <path d="M 324.160404 293.76 
L 324.160404 3.456 
" clip-path="url(#p9f0c0180df)" style="fill: none; stroke: #000000; stroke-width: 1.5; stroke-linecap: square"/>
   </g>
   <g id="patch_3">
    <path d="M 62.208 293.76 
L 62.208 3.456 
" style="fill: none; stroke: #000000; stroke-width: 0.8; stroke-linejoin: miter; stroke-linecap: square"/>
   </g>
   <g id="patch_4">
    <path d="M 460.8 293.76 
L 460.8 3.456 
" style="fill: none; stroke: #000000; stroke-width: 0.8; stroke-linejoin: miter; stroke-linecap: square"/>
   </g>
   <g id="patch_5">
    <path d="M 62.208 293.76 
L 460.8 293.76 
" style="fill: none; stroke: #000000; stroke-width: 0.8; stroke-linejoin: miter; stroke-linecap: square"/>
   </g>
   <g id="patch_6">
    <path d="M 62.208 3.456 
L 460.8 3.456 
" style="fill: none; stroke: #000000; stroke-width: 0.8; stroke-linejoin: miter; stroke-linecap: square"/>
   </g>
   <g id="text_12">
    <!-- {f6-f9}, 20-D -->
    <g transform="translate(195.0165 24.458955)scale(0.2 -0.2)">
     <defs>
      <path id="DejaVuSans-7b" d="M 3272 -594 
L 3272 -1044 
L 3078 -1044 
Q 2300 -1044 2036 -812 
Q 1772 -581 1772 109 
L 1772 856 
Q 1772 1328 1603 1509 
Q 1434 1691 991 1691 
L 800 1691 
L 800 2138 
L 991 2138 
Q 1438 2138 1605 2317 
Q 1772 2497 1772 2963 
L 1772 3713 
Q 1772 4403 2036 4633 
Q 2300 4863 3078 4863 
L 3272 4863 
L 3272 4416 
L 3059 4416 
Q 2619 4416 2484 4278 
Q 2350 4141 2350 3700 
L 2350 2925 
Q 2350 2434 2208 2212 
Q 2066 1991 1722 1913 
Q 2069 1828 2209 1606 
Q 2350 1384 2350 897 
L 2350 122 
Q 2350 -319 2484 -456 
Q 2619 -594 3059 -594 
L 3272 -594 
z
" transform="scale(0.015625)"/>
      <path id="DejaVuSans-2d" d="M 313 2009 
L 1997 2009 
L 1997 1497 
L 313 1497 
L 313 2009 
z
" transform="scale(0.015625)"/>
      <path id="DejaVuSans-39" d="M 703 97 
L 703 672 
Q 941 559 1184 500 
Q 1428 441 1663 441 
Q 2288 441 2617 861 
Q 2947 1281 2994 2138 
Q 2813 1869 2534 1725 
Q 2256 1581 1919 1581 
Q 1219 1581 811 2004 
Q 403 2428 403 3163 
Q 403 3881 828 4315 
Q 1253 4750 1959 4750 
Q 2769 4750 3195 4129 
Q 3622 3509 3622 2328 
Q 3622 1225 3098 567 
Q 2575 -91 1691 -91 
Q 1453 -91 1209 -44 
Q 966 3 703 97 
z
M 1959 2075 
Q 2384 2075 2632 2365 
Q 2881 2656 2881 3163 
Q 2881 3666 2632 3958 
Q 2384 4250 1959 4250 
Q 1534 4250 1286 3958 
Q 1038 3666 1038 3163 
Q 1038 2656 1286 2365 
Q 1534 2075 1959 2075 
z
" transform="scale(0.015625)"/>
      <path id="DejaVuSans-7d" d="M 800 -594 
L 1019 -594 
Q 1456 -594 1589 -459 
Q 1722 -325 1722 122 
L 1722 897 
Q 1722 1384 1862 1606 
Q 2003 1828 2350 1913 
Q 2003 1991 1862 2212 
Q 1722 2434 1722 2925 
L 1722 3700 
Q 1722 4144 1589 4280 
Q 1456 4416 1019 4416 
L 800 4416 
L 800 4863 
L 997 4863 
Q 1775 4863 2036 4633 
Q 2297 4403 2297 3713 
L 2297 2963 
Q 2297 2497 2465 2317 
Q 2634 2138 3078 2138 
L 3272 2138 
L 3272 1691 
L 3078 1691 
Q 2634 1691 2465 1509 
Q 2297 1328 2297 856 
L 2297 109 
Q 2297 -581 2036 -812 
Q 1775 -1044 997 -1044 
L 800 -1044 
L 800 -594 
z
" transform="scale(0.015625)"/>
      <path id="DejaVuSans-2c" d="M 750 794 
L 1409 794 
L 1409 256 
L 897 -744 
L 494 -744 
L 750 256 
L 750 794 
z
" transform="scale(0.015625)"/>
     </defs>
     <use xlink:href="#DejaVuSans-7b"/>
     <use xlink:href="#DejaVuSans-66" x="63.623047"/>
     <use xlink:href="#DejaVuSans-36" x="98.828125"/>
     <use xlink:href="#DejaVuSans-2d" x="162.451172"/>
     <use xlink:href="#DejaVuSans-66" x="198.535156"/>
     <use xlink:href="#DejaVuSans-39" x="233.740234"/>
     <use xlink:href="#DejaVuSans-7d" x="297.363281"/>
     <use xlink:href="#DejaVuSans-2c" x="360.986328"/>
     <use xlink:href="#DejaVuSans-20" x="392.773438"/>
     <use xlink:href="#DejaVuSans-32" x="424.560547"/>
     <use xlink:href="#DejaVuSans-30" x="488.183594"/>
     <use xlink:href="#DejaVuSans-2d" x="551.806641"/>
     <use xlink:href="#DejaVuSans-44" x="587.890625"/>
    </g>
   </g>
   <g id="text_13">
    <!-- absolute targets -->
    <g transform="translate(62.208 609.932673)scale(0.14 -0.14)">
     <defs>
      <path id="DejaVuSans-62" d="M 3116 1747 
Q 3116 2381 2855 2742 
Q 2594 3103 2138 3103 
Q 1681 3103 1420 2742 
Q 1159 2381 1159 1747 
Q 1159 1113 1420 752 
Q 1681 391 2138 391 
Q 2594 391 2855 752 
Q 3116 1113 3116 1747 
z
M 1159 2969 
Q 1341 3281 1617 3432 
Q 1894 3584 2278 3584 
Q 2916 3584 3314 3078 
Q 3713 2572 3713 1747 
Q 3713 922 3314 415 
Q 2916 -91 2278 -91 
Q 1894 -91 1617 61 
Q 1341 213 1159 525 
L 1159 0 
L 581 0 
L 581 4863 
L 1159 4863 
L 1159 2969 
z
" transform="scale(0.015625)"/>
      <path id="DejaVuSans-75" d="M 544 1381 
L 544 3500 
L 1119 3500 
L 1119 1403 
Q 1119 906 1312 657 
Q 1506 409 1894 409 
Q 2359 409 2629 706 
Q 2900 1003 2900 1516 
L 2900 3500 
L 3475 3500 
L 3475 0 
L 2900 0 
L 2900 538 
Q 2691 219 2414 64 
Q 2138 -91 1772 -91 
Q 1169 -91 856 284 
Q 544 659 544 1381 
z
M 1991 3584 
L 1991 3584 
z
" transform="scale(0.015625)"/>
      <path id="DejaVuSans-65" d="M 3597 1894 
L 3597 1613 
L 953 1613 
Q 991 1019 1311 708 
Q 1631 397 2203 397 
Q 2534 397 2845 478 
Q 3156 559 3463 722 
L 3463 178 
Q 3153 47 2828 -22 
Q 2503 -91 2169 -91 
Q 1331 -91 842 396 
Q 353 884 353 1716 
Q 353 2575 817 3079 
Q 1281 3584 2069 3584 
Q 2775 3584 3186 3129 
Q 3597 2675 3597 1894 
z
M 3022 2063 
Q 3016 2534 2758 2815 
Q 2500 3097 2075 3097 
Q 1594 3097 1305 2825 
Q 1016 2553 972 2059 
L 3022 2063 
z
" transform="scale(0.015625)"/>
     </defs>
     <use xlink:href="#DejaVuSans-61"/>
     <use xlink:href="#DejaVuSans-62" x="61.279297"/>
     <use xlink:href="#DejaVuSans-73" x="124.755859"/>
     <use xlink:href="#DejaVuSans-6f" x="176.855469"/>
     <use xlink:href="#DejaVuSans-6c" x="238.037109"/>
     <use xlink:href="#DejaVuSans-75" x="265.820312"/>
     <use xlink:href="#DejaVuSans-74" x="329.199219"/>
     <use xlink:href="#DejaVuSans-65" x="368.408203"/>
     <use xlink:href="#DejaVuSans-20" x="429.931641"/>
     <use xlink:href="#DejaVuSans-74" x="461.71875"/>
     <use xlink:href="#DejaVuSans-61" x="500.927734"/>
     <use xlink:href="#DejaVuSans-72" x="562.207031"/>
     <use xlink:href="#DejaVuSans-67" x="601.570312"/>
     <use xlink:href="#DejaVuSans-65" x="665.046875"/>
     <use xlink:href="#DejaVuSans-74" x="726.570312"/>
     <use xlink:href="#DejaVuSans-73" x="765.779297"/>
    </g>
   </g>
   <g id="text_14">
    <!-- v2.6.3 -->
    <g style="fill: #808080" transform="translate(245.82275 288.777272)scale(0.1 -0.1)">
     <use xlink:href="#DejaVuSans-76"/>
     <use xlink:href="#DejaVuSans-32" x="59.179688"/>
     <use xlink:href="#DejaVuSans-2e" x="122.802734"/>
     <use xlink:href="#DejaVuSans-36" x="154.589844"/>
     <use xlink:href="#DejaVuSans-2e" x="218.212891"/>
     <use xlink:href="#DejaVuSans-33" x="250"/>
    </g>
   </g>
   <g id="legend_1">
    <g id="patch_7">
     <path d="M 76.208 136.881 
L 205.429875 136.881 
Q 209.429875 136.881 209.429875 132.881 
L 209.429875 17.456 
Q 209.429875 13.456 205.429875 13.456 
L 76.208 13.456 
Q 72.208 13.456 72.208 17.456 
L 72.208 132.881 
Q 72.208 136.881 76.208 136.881 
z
" style="fill: #ffffff; opacity: 0.2; stroke: #cccccc; stroke-linejoin: miter"/>
    </g>
    <g id="line2d_58">
     <path d="M 80.208 29.652875 
L 80.208 29.652875 
L 100.208 29.652875 
L 100.208 29.652875 
L 120.208 29.652875 
" style="fill: none; stroke: #000000; stroke-width: 1.5; stroke-linecap: square"/>
    </g>
    <g id="text_15">
     <!-- 1: 4/4 -->
     <g transform="translate(136.208 36.652875)scale(0.2 -0.2)">
      <defs>
       <path id="DejaVuSans-3a" d="M 750 794 
L 1409 794 
L 1409 0 
L 750 0 
L 750 794 
z
M 750 3309 
L 1409 3309 
L 1409 2516 
L 750 2516 
L 750 3309 
z
" transform="scale(0.015625)"/>
      </defs>
      <use xlink:href="#DejaVuSans-31"/>
      <use xlink:href="#DejaVuSans-3a" x="63.623047"/>
      <use xlink:href="#DejaVuSans-20" x="97.314453"/>
      <use xlink:href="#DejaVuSans-34" x="129.101562"/>
      <use xlink:href="#DejaVuSans-2f" x="192.724609"/>
      <use xlink:href="#DejaVuSans-34" x="226.416016"/>
     </g>
    </g>
    <g id="line2d_59">
     <path d="M 80.208 59.009125 
L 80.208 59.009125 
L 100.208 59.009125 
L 100.208 59.009125 
L 120.208 59.009125 
" style="fill: none; stroke: #00bfbf; stroke-width: 1.5; stroke-linecap: square"/>
    </g>
    <g id="text_16">
     <!-- -1: 4/4 -->
     <g transform="translate(136.208 66.009125)scale(0.2 -0.2)">
      <use xlink:href="#DejaVuSans-2d"/>
      <use xlink:href="#DejaVuSans-31" x="36.083984"/>
      <use xlink:href="#DejaVuSans-3a" x="99.707031"/>
      <use xlink:href="#DejaVuSans-20" x="133.398438"/>
      <use xlink:href="#DejaVuSans-34" x="165.185547"/>
      <use xlink:href="#DejaVuSans-2f" x="228.808594"/>
      <use xlink:href="#DejaVuSans-34" x="262.5"/>
     </g>
    </g>
    <g id="line2d_60">
     <path d="M 80.208 88.365375 
L 80.208 88.365375 
L 100.208 88.365375 
L 100.208 88.365375 
L 120.208 88.365375 
" style="fill: none; stroke: #bf00bf; stroke-width: 1.5; stroke-linecap: square"/>
    </g>
    <g id="text_17">
     <!-- -4: 4/4 -->
     <g transform="translate(136.208 95.365375)scale(0.2 -0.2)">
      <use xlink:href="#DejaVuSans-2d"/>
      <use xlink:href="#DejaVuSans-34" x="36.083984"/>
      <use xlink:href="#DejaVuSans-3a" x="99.707031"/>
      <use xlink:href="#DejaVuSans-20" x="133.398438"/>
      <use xlink:href="#DejaVuSans-34" x="165.185547"/>
      <use xlink:href="#DejaVuSans-2f" x="228.808594"/>
      <use xlink:href="#DejaVuSans-34" x="262.5"/>
     </g>
    </g>
    <g id="line2d_61">
     <path d="M 80.208 117.721625 
L 80.208 117.721625 
L 100.208 117.721625 
L 100.208 117.721625 
L 120.208 117.721625 
" style="fill: none; stroke: #ff0000; stroke-width: 3; stroke-linecap: square"/>
    </g>
    <g id="text_18">
     <!-- -8: 4/4 -->
     <g transform="translate(136.208 124.721625)scale(0.2 -0.2)">
      <use xlink:href="#DejaVuSans-2d"/>
      <use xlink:href="#DejaVuSans-38" x="36.083984"/>
      <use xlink:href="#DejaVuSans-3a" x="99.707031"/>
      <use xlink:href="#DejaVuSans-20" x="133.398438"/>
      <use xlink:href="#DejaVuSans-34" x="165.185547"/>
      <use xlink:href="#DejaVuSans-2f" x="228.808594"/>
      <use xlink:href="#DejaVuSans-34" x="262.5"/>
     </g>
    </g>
   </g>
  </g>
 </g>
 <defs>
  <clipPath id="p9f0c0180df">
   <rect x="62.208" y="3.456" width="398.592" height="290.304"/>
  </clipPath>
 </defs>
</svg>
