<?xml version="1.0" encoding="utf-8" standalone="no"?>
<!DOCTYPE svg PUBLIC "-//W3C//DTD SVG 1.1//EN"
  "http://www.w3.org/Graphics/SVG/1.1/DTD/svg11.dtd">
<svg xmlns:xlink="http://www.w3.org/1999/xlink" width="460.8pt" height="345.6pt" viewBox="0 0 460.8 345.6" xmlns="http://www.w3.org/2000/svg" version="1.1">
 <metadata>
  <rdf:RDF xmlns:dc="http://purl.org/dc/elements/1.1/" xmlns:cc="http://creativecommons.org/ns#" xmlns:rdf="http://www.w3.org/1999/02/22-rdf-syntax-ns#">
   <cc:Work>
    <dc:type rdf:resource="http://purl.org/dc/dcmitype/StillImage"/>
    <dc:date>2023-04-03T10:15:58.349201</dc:date>
    <dc:format>image/svg+xml</dc:format>
    <dc:creator>
     <cc:Agent>
      <dc:title>Matplotlib v3.5.2, https://matplotlib.org/</dc:title>
     </cc:Agent>
    </dc:creator>
   </cc:Work>
  </rdf:RDF>
 </metadata>
 <defs>
  <style type="text/css">*{stroke-linejoin: round; stroke-linecap: butt}</style>
 </defs>
 <g id="figure_1">
  <g id="patch_1">
   <path d="M 0 345.6 
L 460.8 345.6 
L 460.8 0 
L 0 0 
z
" style="fill: #ffffff"/>
  </g>
  <g id="axes_1">
   <g id="patch_2">
    <path d="M 34.16 291.28 
L 453.192 291.28 
L 453.192 3 
L 34.16 3 
z
" style="fill: #ffffff"/>
   </g>
   <g id="matplotlib.axis_1">
    <g id="xtick_1">
     <g id="line2d_1">
      <path d="M 145.484292 291.28 
L 145.484292 3 
" clip-path="url(#p9921cde504)" style="fill: none; stroke: #b0b0b0; stroke-width: 0.8; stroke-linecap: square"/>
     </g>
     <g id="line2d_2">
      <defs>
       <path id="m9564216796" d="M 0 0 
L 0 3.5 
" style="stroke: #000000; stroke-width: 0.8"/>
      </defs>
      <g>
       <use xlink:href="#m9564216796" x="145.484292" y="291.28" style="stroke: #000000; stroke-width: 0.8"/>
      </g>
     </g>
     <g id="text_1">
      <!-- -1 -->
      <g transform="translate(135.51398 313.476875)scale(0.2 -0.2)">
       <defs>
        <path id="DejaVuSans-2d" d="M 313 2009 
L 1997 2009 
L 1997 1497 
L 313 1497 
L 313 2009 
z
" transform="scale(0.015625)"/>
        <path id="DejaVuSans-31" d="M 794 531 
L 1825 531 
L 1825 4091 
L 703 3866 
L 703 4441 
L 1819 4666 
L 2450 4666 
L 2450 531 
L 3481 531 
L 3481 0 
L 794 0 
L 794 531 
z
" transform="scale(0.015625)"/>
       </defs>
       <use xlink:href="#DejaVuSans-2d"/>
       <use xlink:href="#DejaVuSans-31" x="36.083984"/>
      </g>
     </g>
    </g>
    <g id="xtick_2">
     <g id="line2d_3">
      <path d="M 341.867708 291.28 
L 341.867708 3 
" clip-path="url(#p9921cde504)" style="fill: none; stroke: #b0b0b0; stroke-width: 0.8; stroke-linecap: square"/>
     </g>
     <g id="line2d_4">
      <g>
       <use xlink:href="#m9564216796" x="341.867708" y="291.28" style="stroke: #000000; stroke-width: 0.8"/>
      </g>
     </g>
     <g id="text_2">
      <!-- 1 -->
      <g transform="translate(335.505208 313.476875)scale(0.2 -0.2)">
       <use xlink:href="#DejaVuSans-31"/>
      </g>
     </g>
    </g>
    <g id="xtick_3">
     <g id="line2d_5">
      <defs>
       <path id="mf71f21b9d9" d="M 0 0 
L 0 2 
" style="stroke: #000000; stroke-width: 0.6"/>
      </defs>
      <g>
       <use xlink:href="#mf71f21b9d9" x="37.776825" y="291.28" style="stroke: #000000; stroke-width: 0.6"/>
      </g>
     </g>
    </g>
    <g id="xtick_4">
     <g id="line2d_6">
      <g>
       <use xlink:href="#mf71f21b9d9" x="42.799579" y="291.28" style="stroke: #000000; stroke-width: 0.6"/>
      </g>
     </g>
    </g>
    <g id="xtick_5">
     <g id="line2d_7">
      <g>
       <use xlink:href="#mf71f21b9d9" x="76.851234" y="291.28" style="stroke: #000000; stroke-width: 0.6"/>
      </g>
     </g>
    </g>
    <g id="xtick_6">
     <g id="line2d_8">
      <g>
       <use xlink:href="#mf71f21b9d9" x="94.141936" y="291.28" style="stroke: #000000; stroke-width: 0.6"/>
      </g>
     </g>
    </g>
    <g id="xtick_7">
     <g id="line2d_9">
      <g>
       <use xlink:href="#mf71f21b9d9" x="106.409883" y="291.28" style="stroke: #000000; stroke-width: 0.6"/>
      </g>
     </g>
    </g>
    <g id="xtick_8">
     <g id="line2d_10">
      <g>
       <use xlink:href="#mf71f21b9d9" x="115.925643" y="291.28" style="stroke: #000000; stroke-width: 0.6"/>
      </g>
     </g>
    </g>
    <g id="xtick_9">
     <g id="line2d_11">
      <g>
       <use xlink:href="#mf71f21b9d9" x="123.700585" y="291.28" style="stroke: #000000; stroke-width: 0.6"/>
      </g>
     </g>
    </g>
    <g id="xtick_10">
     <g id="line2d_12">
      <g>
       <use xlink:href="#mf71f21b9d9" x="130.274204" y="291.28" style="stroke: #000000; stroke-width: 0.6"/>
      </g>
     </g>
    </g>
    <g id="xtick_11">
     <g id="line2d_13">
      <g>
       <use xlink:href="#mf71f21b9d9" x="135.968533" y="291.28" style="stroke: #000000; stroke-width: 0.6"/>
      </g>
     </g>
    </g>
    <g id="xtick_12">
     <g id="line2d_14">
      <g>
       <use xlink:href="#mf71f21b9d9" x="140.991286" y="291.28" style="stroke: #000000; stroke-width: 0.6"/>
      </g>
     </g>
    </g>
    <g id="xtick_13">
     <g id="line2d_15">
      <g>
       <use xlink:href="#mf71f21b9d9" x="175.042942" y="291.28" style="stroke: #000000; stroke-width: 0.6"/>
      </g>
     </g>
    </g>
    <g id="xtick_14">
     <g id="line2d_16">
      <g>
       <use xlink:href="#mf71f21b9d9" x="192.333643" y="291.28" style="stroke: #000000; stroke-width: 0.6"/>
      </g>
     </g>
    </g>
    <g id="xtick_15">
     <g id="line2d_17">
      <g>
       <use xlink:href="#mf71f21b9d9" x="204.601591" y="291.28" style="stroke: #000000; stroke-width: 0.6"/>
      </g>
     </g>
    </g>
    <g id="xtick_16">
     <g id="line2d_18">
      <g>
       <use xlink:href="#mf71f21b9d9" x="214.117351" y="291.28" style="stroke: #000000; stroke-width: 0.6"/>
      </g>
     </g>
    </g>
    <g id="xtick_17">
     <g id="line2d_19">
      <g>
       <use xlink:href="#mf71f21b9d9" x="221.892292" y="291.28" style="stroke: #000000; stroke-width: 0.6"/>
      </g>
     </g>
    </g>
    <g id="xtick_18">
     <g id="line2d_20">
      <g>
       <use xlink:href="#mf71f21b9d9" x="228.465912" y="291.28" style="stroke: #000000; stroke-width: 0.6"/>
      </g>
     </g>
    </g>
    <g id="xtick_19">
     <g id="line2d_21">
      <g>
       <use xlink:href="#mf71f21b9d9" x="234.16024" y="291.28" style="stroke: #000000; stroke-width: 0.6"/>
      </g>
     </g>
    </g>
    <g id="xtick_20">
     <g id="line2d_22">
      <g>
       <use xlink:href="#mf71f21b9d9" x="239.182994" y="291.28" style="stroke: #000000; stroke-width: 0.6"/>
      </g>
     </g>
    </g>
    <g id="xtick_21">
     <g id="line2d_23">
      <g>
       <use xlink:href="#mf71f21b9d9" x="273.234649" y="291.28" style="stroke: #000000; stroke-width: 0.6"/>
      </g>
     </g>
    </g>
    <g id="xtick_22">
     <g id="line2d_24">
      <g>
       <use xlink:href="#mf71f21b9d9" x="290.525351" y="291.28" style="stroke: #000000; stroke-width: 0.6"/>
      </g>
     </g>
    </g>
    <g id="xtick_23">
     <g id="line2d_25">
      <g>
       <use xlink:href="#mf71f21b9d9" x="302.793299" y="291.28" style="stroke: #000000; stroke-width: 0.6"/>
      </g>
     </g>
    </g>
    <g id="xtick_24">
     <g id="line2d_26">
      <g>
       <use xlink:href="#mf71f21b9d9" x="312.309058" y="291.28" style="stroke: #000000; stroke-width: 0.6"/>
      </g>
     </g>
    </g>
    <g id="xtick_25">
     <g id="line2d_27">
      <g>
       <use xlink:href="#mf71f21b9d9" x="320.084" y="291.28" style="stroke: #000000; stroke-width: 0.6"/>
      </g>
     </g>
    </g>
    <g id="xtick_26">
     <g id="line2d_28">
      <g>
       <use xlink:href="#mf71f21b9d9" x="326.65762" y="291.28" style="stroke: #000000; stroke-width: 0.6"/>
      </g>
     </g>
    </g>
    <g id="xtick_27">
     <g id="line2d_29">
      <g>
       <use xlink:href="#mf71f21b9d9" x="332.351948" y="291.28" style="stroke: #000000; stroke-width: 0.6"/>
      </g>
     </g>
    </g>
    <g id="xtick_28">
     <g id="line2d_30">
      <g>
       <use xlink:href="#mf71f21b9d9" x="337.374701" y="291.28" style="stroke: #000000; stroke-width: 0.6"/>
      </g>
     </g>
    </g>
    <g id="xtick_29">
     <g id="line2d_31">
      <g>
       <use xlink:href="#mf71f21b9d9" x="371.426357" y="291.28" style="stroke: #000000; stroke-width: 0.6"/>
      </g>
     </g>
    </g>
    <g id="xtick_30">
     <g id="line2d_32">
      <g>
       <use xlink:href="#mf71f21b9d9" x="388.717058" y="291.28" style="stroke: #000000; stroke-width: 0.6"/>
      </g>
     </g>
    </g>
    <g id="xtick_31">
     <g id="line2d_33">
      <g>
       <use xlink:href="#mf71f21b9d9" x="400.985006" y="291.28" style="stroke: #000000; stroke-width: 0.6"/>
      </g>
     </g>
    </g>
    <g id="xtick_32">
     <g id="line2d_34">
      <g>
       <use xlink:href="#mf71f21b9d9" x="410.500766" y="291.28" style="stroke: #000000; stroke-width: 0.6"/>
      </g>
     </g>
    </g>
    <g id="xtick_33">
     <g id="line2d_35">
      <g>
       <use xlink:href="#mf71f21b9d9" x="418.275708" y="291.28" style="stroke: #000000; stroke-width: 0.6"/>
      </g>
     </g>
    </g>
    <g id="xtick_34">
     <g id="line2d_36">
      <g>
       <use xlink:href="#mf71f21b9d9" x="424.849327" y="291.28" style="stroke: #000000; stroke-width: 0.6"/>
      </g>
     </g>
    </g>
    <g id="xtick_35">
     <g id="line2d_37">
      <g>
       <use xlink:href="#mf71f21b9d9" x="430.543655" y="291.28" style="stroke: #000000; stroke-width: 0.6"/>
      </g>
     </g>
    </g>
    <g id="xtick_36">
     <g id="line2d_38">
      <g>
       <use xlink:href="#mf71f21b9d9" x="435.566409" y="291.28" style="stroke: #000000; stroke-width: 0.6"/>
      </g>
     </g>
    </g>
    <g id="text_3">
     <!-- log10 of FEvals ratio -->
     <g transform="translate(141.371312 336.833125)scale(0.2 -0.2)">
      <defs>
       <path id="DejaVuSans-6c" d="M 603 4863 
L 1178 4863 
L 1178 0 
L 603 0 
L 603 4863 
z
" transform="scale(0.015625)"/>
       <path id="DejaVuSans-6f" d="M 1959 3097 
Q 1497 3097 1228 2736 
Q 959 2375 959 1747 
Q 959 1119 1226 758 
Q 1494 397 1959 397 
Q 2419 397 2687 759 
Q 2956 1122 2956 1747 
Q 2956 2369 2687 2733 
Q 2419 3097 1959 3097 
z
M 1959 3584 
Q 2709 3584 3137 3096 
Q 3566 2609 3566 1747 
Q 3566 888 3137 398 
Q 2709 -91 1959 -91 
Q 1206 -91 779 398 
Q 353 888 353 1747 
Q 353 2609 779 3096 
Q 1206 3584 1959 3584 
z
" transform="scale(0.015625)"/>
       <path id="DejaVuSans-67" d="M 2906 1791 
Q 2906 2416 2648 2759 
Q 2391 3103 1925 3103 
Q 1463 3103 1205 2759 
Q 947 2416 947 1791 
Q 947 1169 1205 825 
Q 1463 481 1925 481 
Q 2391 481 2648 825 
Q 2906 1169 2906 1791 
z
M 3481 434 
Q 3481 -459 3084 -895 
Q 2688 -1331 1869 -1331 
Q 1566 -1331 1297 -1286 
Q 1028 -1241 775 -1147 
L 775 -588 
Q 1028 -725 1275 -790 
Q 1522 -856 1778 -856 
Q 2344 -856 2625 -561 
Q 2906 -266 2906 331 
L 2906 616 
Q 2728 306 2450 153 
Q 2172 0 1784 0 
Q 1141 0 747 490 
Q 353 981 353 1791 
Q 353 2603 747 3093 
Q 1141 3584 1784 3584 
Q 2172 3584 2450 3431 
Q 2728 3278 2906 2969 
L 2906 3500 
L 3481 3500 
L 3481 434 
z
" transform="scale(0.015625)"/>
       <path id="DejaVuSans-30" d="M 2034 4250 
Q 1547 4250 1301 3770 
Q 1056 3291 1056 2328 
Q 1056 1369 1301 889 
Q 1547 409 2034 409 
Q 2525 409 2770 889 
Q 3016 1369 3016 2328 
Q 3016 3291 2770 3770 
Q 2525 4250 2034 4250 
z
M 2034 4750 
Q 2819 4750 3233 4129 
Q 3647 3509 3647 2328 
Q 3647 1150 3233 529 
Q 2819 -91 2034 -91 
Q 1250 -91 836 529 
Q 422 1150 422 2328 
Q 422 3509 836 4129 
Q 1250 4750 2034 4750 
z
" transform="scale(0.015625)"/>
       <path id="DejaVuSans-20" transform="scale(0.015625)"/>
       <path id="DejaVuSans-66" d="M 2375 4863 
L 2375 4384 
L 1825 4384 
Q 1516 4384 1395 4259 
Q 1275 4134 1275 3809 
L 1275 3500 
L 2222 3500 
L 2222 3053 
L 1275 3053 
L 1275 0 
L 697 0 
L 697 3053 
L 147 3053 
L 147 3500 
L 697 3500 
L 697 3744 
Q 697 4328 969 4595 
Q 1241 4863 1831 4863 
L 2375 4863 
z
" transform="scale(0.015625)"/>
       <path id="DejaVuSans-46" d="M 628 4666 
L 3309 4666 
L 3309 4134 
L 1259 4134 
L 1259 2759 
L 3109 2759 
L 3109 2228 
L 1259 2228 
L 1259 0 
L 628 0 
L 628 4666 
z
" transform="scale(0.015625)"/>
       <path id="DejaVuSans-45" d="M 628 4666 
L 3578 4666 
L 3578 4134 
L 1259 4134 
L 1259 2753 
L 3481 2753 
L 3481 2222 
L 1259 2222 
L 1259 531 
L 3634 531 
L 3634 0 
L 628 0 
L 628 4666 
z
" transform="scale(0.015625)"/>
       <path id="DejaVuSans-76" d="M 191 3500 
L 800 3500 
L 1894 563 
L 2988 3500 
L 3597 3500 
L 2284 0 
L 1503 0 
L 191 3500 
z
" transform="scale(0.015625)"/>
       <path id="DejaVuSans-61" d="M 2194 1759 
Q 1497 1759 1228 1600 
Q 959 1441 959 1056 
Q 959 750 1161 570 
Q 1363 391 1709 391 
Q 2188 391 2477 730 
Q 2766 1069 2766 1631 
L 2766 1759 
L 2194 1759 
z
M 3341 1997 
L 3341 0 
L 2766 0 
L 2766 531 
Q 2569 213 2275 61 
Q 1981 -91 1556 -91 
Q 1019 -91 701 211 
Q 384 513 384 1019 
Q 384 1609 779 1909 
Q 1175 2209 1959 2209 
L 2766 2209 
L 2766 2266 
Q 2766 2663 2505 2880 
Q 2244 3097 1772 3097 
Q 1472 3097 1187 3025 
Q 903 2953 641 2809 
L 641 3341 
Q 956 3463 1253 3523 
Q 1550 3584 1831 3584 
Q 2591 3584 2966 3190 
Q 3341 2797 3341 1997 
z
" transform="scale(0.015625)"/>
       <path id="DejaVuSans-73" d="M 2834 3397 
L 2834 2853 
Q 2591 2978 2328 3040 
Q 2066 3103 1784 3103 
Q 1356 3103 1142 2972 
Q 928 2841 928 2578 
Q 928 2378 1081 2264 
Q 1234 2150 1697 2047 
L 1894 2003 
Q 2506 1872 2764 1633 
Q 3022 1394 3022 966 
Q 3022 478 2636 193 
Q 2250 -91 1575 -91 
Q 1294 -91 989 -36 
Q 684 19 347 128 
L 347 722 
Q 666 556 975 473 
Q 1284 391 1588 391 
Q 1994 391 2212 530 
Q 2431 669 2431 922 
Q 2431 1156 2273 1281 
Q 2116 1406 1581 1522 
L 1381 1569 
Q 847 1681 609 1914 
Q 372 2147 372 2553 
Q 372 3047 722 3315 
Q 1072 3584 1716 3584 
Q 2034 3584 2315 3537 
Q 2597 3491 2834 3397 
z
" transform="scale(0.015625)"/>
       <path id="DejaVuSans-72" d="M 2631 2963 
Q 2534 3019 2420 3045 
Q 2306 3072 2169 3072 
Q 1681 3072 1420 2755 
Q 1159 2438 1159 1844 
L 1159 0 
L 581 0 
L 581 3500 
L 1159 3500 
L 1159 2956 
Q 1341 3275 1631 3429 
Q 1922 3584 2338 3584 
Q 2397 3584 2469 3576 
Q 2541 3569 2628 3553 
L 2631 2963 
z
" transform="scale(0.015625)"/>
       <path id="DejaVuSans-74" d="M 1172 4494 
L 1172 3500 
L 2356 3500 
L 2356 3053 
L 1172 3053 
L 1172 1153 
Q 1172 725 1289 603 
Q 1406 481 1766 481 
L 2356 481 
L 2356 0 
L 1766 0 
Q 1100 0 847 248 
Q 594 497 594 1153 
L 594 3053 
L 172 3053 
L 172 3500 
L 594 3500 
L 594 4494 
L 1172 4494 
z
" transform="scale(0.015625)"/>
       <path id="DejaVuSans-69" d="M 603 3500 
L 1178 3500 
L 1178 0 
L 603 0 
L 603 3500 
z
M 603 4863 
L 1178 4863 
L 1178 4134 
L 603 4134 
L 603 4863 
z
" transform="scale(0.015625)"/>
      </defs>
      <use xlink:href="#DejaVuSans-6c"/>
      <use xlink:href="#DejaVuSans-6f" x="27.783203"/>
      <use xlink:href="#DejaVuSans-67" x="88.964844"/>
      <use xlink:href="#DejaVuSans-31" x="152.441406"/>
      <use xlink:href="#DejaVuSans-30" x="216.064453"/>
      <use xlink:href="#DejaVuSans-20" x="279.6875"/>
      <use xlink:href="#DejaVuSans-6f" x="311.474609"/>
      <use xlink:href="#DejaVuSans-66" x="372.65625"/>
      <use xlink:href="#DejaVuSans-20" x="407.861328"/>
      <use xlink:href="#DejaVuSans-46" x="439.648438"/>
      <use xlink:href="#DejaVuSans-45" x="497.167969"/>
      <use xlink:href="#DejaVuSans-76" x="560.351562"/>
      <use xlink:href="#DejaVuSans-61" x="619.53125"/>
      <use xlink:href="#DejaVuSans-6c" x="680.810547"/>
      <use xlink:href="#DejaVuSans-73" x="708.59375"/>
      <use xlink:href="#DejaVuSans-20" x="760.693359"/>
      <use xlink:href="#DejaVuSans-72" x="792.480469"/>
      <use xlink:href="#DejaVuSans-61" x="833.59375"/>
      <use xlink:href="#DejaVuSans-74" x="894.873047"/>
      <use xlink:href="#DejaVuSans-69" x="934.082031"/>
      <use xlink:href="#DejaVuSans-6f" x="961.865234"/>
     </g>
    </g>
   </g>
   <g id="matplotlib.axis_2">
    <g id="ytick_1">
     <g id="line2d_39">
      <path d="M 34.16 288.453725 
L 453.192 288.453725 
" clip-path="url(#p9921cde504)" style="fill: none; stroke: #b0b0b0; stroke-width: 0.8; stroke-linecap: square"/>
     </g>
     <g id="line2d_40">
      <defs>
       <path id="mf9450d0c3a" d="M 0 0 
L -3.5 0 
" style="stroke: #000000; stroke-width: 0.8"/>
      </defs>
      <g>
       <use xlink:href="#mf9450d0c3a" x="34.16" y="288.453725" style="stroke: #000000; stroke-width: 0.8"/>
      </g>
     </g>
    </g>
    <g id="ytick_2">
     <g id="line2d_41">
      <path d="M 34.16 217.796863 
L 453.192 217.796863 
" clip-path="url(#p9921cde504)" style="fill: none; stroke: #b0b0b0; stroke-width: 0.8; stroke-linecap: square"/>
     </g>
     <g id="line2d_42">
      <g>
       <use xlink:href="#mf9450d0c3a" x="34.16" y="217.796863" style="stroke: #000000; stroke-width: 0.8"/>
      </g>
     </g>
    </g>
    <g id="ytick_3">
     <g id="line2d_43">
      <path d="M 34.16 147.14 
L 453.192 147.14 
" clip-path="url(#p9921cde504)" style="fill: none; stroke: #b0b0b0; stroke-width: 0.8; stroke-linecap: square"/>
     </g>
     <g id="line2d_44">
      <g>
       <use xlink:href="#mf9450d0c3a" x="34.16" y="147.14" style="stroke: #000000; stroke-width: 0.8"/>
      </g>
     </g>
    </g>
    <g id="ytick_4">
     <g id="line2d_45">
      <path d="M 34.16 76.483137 
L 453.192 76.483137 
" clip-path="url(#p9921cde504)" style="fill: none; stroke: #b0b0b0; stroke-width: 0.8; stroke-linecap: square"/>
     </g>
     <g id="line2d_46">
      <g>
       <use xlink:href="#mf9450d0c3a" x="34.16" y="76.483137" style="stroke: #000000; stroke-width: 0.8"/>
      </g>
     </g>
    </g>
    <g id="ytick_5">
     <g id="line2d_47">
      <path d="M 34.16 5.826275 
L 453.192 5.826275 
" clip-path="url(#p9921cde504)" style="fill: none; stroke: #b0b0b0; stroke-width: 0.8; stroke-linecap: square"/>
     </g>
     <g id="line2d_48">
      <g>
       <use xlink:href="#mf9450d0c3a" x="34.16" y="5.826275" style="stroke: #000000; stroke-width: 0.8"/>
      </g>
     </g>
    </g>
    <g id="text_4">
     <!-- proportion of trials -->
     <g transform="translate(19.000625 240.14625)rotate(-90)scale(0.2 -0.2)">
      <defs>
       <path id="DejaVuSans-70" d="M 1159 525 
L 1159 -1331 
L 581 -1331 
L 581 3500 
L 1159 3500 
L 1159 2969 
Q 1341 3281 1617 3432 
Q 1894 3584 2278 3584 
Q 2916 3584 3314 3078 
Q 3713 2572 3713 1747 
Q 3713 922 3314 415 
Q 2916 -91 2278 -91 
Q 1894 -91 1617 61 
Q 1341 213 1159 525 
z
M 3116 1747 
Q 3116 2381 2855 2742 
Q 2594 3103 2138 3103 
Q 1681 3103 1420 2742 
Q 1159 2381 1159 1747 
Q 1159 1113 1420 752 
Q 1681 391 2138 391 
Q 2594 391 2855 752 
Q 3116 1113 3116 1747 
z
" transform="scale(0.015625)"/>
       <path id="DejaVuSans-6e" d="M 3513 2113 
L 3513 0 
L 2938 0 
L 2938 2094 
Q 2938 2591 2744 2837 
Q 2550 3084 2163 3084 
Q 1697 3084 1428 2787 
Q 1159 2491 1159 1978 
L 1159 0 
L 581 0 
L 581 3500 
L 1159 3500 
L 1159 2956 
Q 1366 3272 1645 3428 
Q 1925 3584 2291 3584 
Q 2894 3584 3203 3211 
Q 3513 2838 3513 2113 
z
" transform="scale(0.015625)"/>
      </defs>
      <use xlink:href="#DejaVuSans-70"/>
      <use xlink:href="#DejaVuSans-72" x="63.476562"/>
      <use xlink:href="#DejaVuSans-6f" x="102.339844"/>
      <use xlink:href="#DejaVuSans-70" x="163.521484"/>
      <use xlink:href="#DejaVuSans-6f" x="226.998047"/>
      <use xlink:href="#DejaVuSans-72" x="288.179688"/>
      <use xlink:href="#DejaVuSans-74" x="329.292969"/>
      <use xlink:href="#DejaVuSans-69" x="368.501953"/>
      <use xlink:href="#DejaVuSans-6f" x="396.285156"/>
      <use xlink:href="#DejaVuSans-6e" x="457.466797"/>
      <use xlink:href="#DejaVuSans-20" x="520.845703"/>
      <use xlink:href="#DejaVuSans-6f" x="552.632812"/>
      <use xlink:href="#DejaVuSans-66" x="613.814453"/>
      <use xlink:href="#DejaVuSans-20" x="649.019531"/>
      <use xlink:href="#DejaVuSans-74" x="680.806641"/>
      <use xlink:href="#DejaVuSans-72" x="720.015625"/>
      <use xlink:href="#DejaVuSans-69" x="761.128906"/>
      <use xlink:href="#DejaVuSans-61" x="788.912109"/>
      <use xlink:href="#DejaVuSans-6c" x="850.191406"/>
      <use xlink:href="#DejaVuSans-73" x="877.974609"/>
     </g>
    </g>
   </g>
   <g id="line2d_49">
    <path d="M 34.16 288.453725 
L 115.925643 288.453725 
L 115.925643 286.192706 
L 134.296 286.192706 
L 134.296 283.931686 
L 137.709351 283.931686 
L 137.709351 281.670667 
L 138.558018 281.670667 
L 138.558018 280.916993 
L 147.438866 280.916993 
L 147.438866 280.16332 
L 153.437822 280.16332 
L 153.437822 279.409647 
L 154.641395 279.409647 
L 154.641395 278.655974 
L 155.000052 278.655974 
L 155.000052 276.394954 
L 159.792017 276.394954 
L 159.792017 275.641281 
L 162.774994 275.641281 
L 162.774994 274.887608 
L 163.225005 274.887608 
L 163.225005 274.133935 
L 165.069363 274.133935 
L 165.069363 273.380261 
L 167.375012 273.380261 
L 167.375012 272.626588 
L 173.563807 272.626588 
L 173.563807 271.872915 
L 175.81364 271.872915 
L 175.81364 271.119242 
L 176.001277 271.119242 
L 176.103418 268.858222 
L 177.506198 268.858222 
L 177.574051 267.350876 
L 178.833749 267.350876 
L 178.833749 266.597203 
L 179.321116 266.597203 
L 179.321116 265.843529 
L 180.041878 265.843529 
L 180.041878 265.089856 
L 180.594169 265.089856 
L 180.594169 264.336183 
L 181.145351 264.336183 
L 181.145351 263.58251 
L 183.473551 263.58251 
L 183.473551 262.828837 
L 184.558701 262.828837 
L 184.558701 261.32149 
L 185.517036 261.32149 
L 185.517036 260.567817 
L 187.549636 260.567817 
L 187.549636 259.814144 
L 189.087082 259.814144 
L 189.087082 259.060471 
L 189.751555 259.060471 
L 189.751555 258.306797 
L 192.333643 258.306797 
L 192.333643 257.553124 
L 196.430483 257.553124 
L 196.430483 256.799451 
L 198.479236 256.799451 
L 198.479236 256.045778 
L 198.907263 256.045778 
L 198.907263 254.538431 
L 199.645896 254.538431 
L 199.645896 253.784758 
L 199.949869 253.784758 
L 199.949869 253.031085 
L 200.134052 253.031085 
L 200.134052 252.277412 
L 201.69291 252.277412 
L 201.796918 250.770065 
L 201.849403 250.770065 
L 201.849403 249.262719 
L 202.49068 249.262719 
L 202.49068 248.509046 
L 202.929058 248.509046 
L 202.929058 247.755373 
L 203.633012 247.755373 
L 203.633012 247.001699 
L 204.130381 247.001699 
L 204.130381 245.494353 
L 205.559926 245.494353 
L 205.559926 244.74068 
L 206.342409 244.74068 
L 206.342409 243.987007 
L 207.300744 243.987007 
L 207.300744 243.233333 
L 207.849425 243.233333 
L 207.849425 242.47966 
L 208.783634 242.47966 
L 208.783634 241.725987 
L 209.419324 241.725987 
L 209.419324 240.972314 
L 210.677766 240.972314 
L 210.704 239.464967 
L 211.752679 239.464967 
L 211.752679 238.711294 
L 212.127373 238.711294 
L 212.216623 236.450275 
L 212.395703 236.450275 
L 212.395703 235.696601 
L 213.223311 235.696601 
L 213.223311 234.942928 
L 213.64614 234.942928 
L 213.64614 234.189255 
L 214.06098 234.189255 
L 214.117351 231.928235 
L 215.546896 231.928235 
L 215.546896 231.174562 
L 215.919483 231.174562 
L 215.919483 230.420889 
L 216.366629 230.420889 
L 216.366629 229.667216 
L 217.27762 229.667216 
L 217.381335 227.406196 
L 217.648535 227.406196 
L 217.648535 226.652523 
L 217.880295 226.652523 
L 217.880295 225.89885 
L 218.181769 225.89885 
L 218.181769 225.145176 
L 220.69097 225.145176 
L 220.69097 223.63783 
L 221.429603 223.63783 
L 221.429603 222.884157 
L 221.649305 222.884157 
L 221.649305 222.130484 
L 221.892292 222.130484 
L 221.892292 221.37681 
L 222.021713 221.37681 
L 222.021713 220.623137 
L 222.396962 220.623137 
L 222.396962 219.869464 
L 222.799648 219.869464 
L 222.799648 219.115791 
L 222.952769 219.115791 
L 223.030917 217.608444 
L 223.63311 217.608444 
L 223.63311 216.854771 
L 224.270281 216.854771 
L 224.270281 216.101098 
L 224.834433 216.101098 
L 224.834433 214.593752 
L 225.305643 214.593752 
L 225.400816 213.086405 
L 225.897932 213.086405 
L 225.897932 212.332732 
L 226.463905 212.332732 
L 226.497816 210.825386 
L 226.597988 210.825386 
L 226.597988 210.071712 
L 226.73686 210.071712 
L 226.73686 209.318039 
L 227.445775 209.318039 
L 227.445775 208.564366 
L 227.825367 208.564366 
L 227.825367 207.810693 
L 228.308263 207.810693 
L 228.312733 206.303346 
L 229.033496 206.303346 
L 229.033496 205.549673 
L 229.585787 205.549673 
L 229.585787 204.796 
L 229.978507 204.796 
L 229.978507 204.042327 
L 230.225243 204.042327 
L 230.225243 203.288654 
L 230.613912 203.288654 
L 230.619784 201.781307 
L 231.408052 201.781307 
L 231.408052 201.027634 
L 231.795142 201.027634 
L 231.795142 200.273961 
L 232.465168 200.273961 
L 232.487708 198.766614 
L 233.68903 198.766614 
L 233.68903 198.012941 
L 234.350192 198.012941 
L 234.350192 197.259268 
L 234.771521 197.259268 
L 234.771521 196.505595 
L 235.295156 196.505595 
L 235.295156 195.751922 
L 235.429848 195.751922 
L 235.429848 194.998248 
L 235.617708 194.998248 
L 235.617708 194.244575 
L 235.901058 194.244575 
L 235.901058 193.490902 
L 236.447785 193.490902 
L 236.552126 191.983556 
L 236.600906 191.983556 
L 236.600906 191.229882 
L 237.981672 191.229882 
L 237.981672 188.968863 
L 238.295301 188.968863 
L 238.295301 188.21519 
L 239.965477 188.21519 
L 240.024353 186.707843 
L 240.262649 186.707843 
L 240.262649 185.200497 
L 240.745098 185.200497 
L 240.745098 184.446824 
L 241.23853 184.446824 
L 241.23853 183.69315 
L 241.488643 183.69315 
L 241.488643 182.185804 
L 242.072649 182.185804 
L 242.072649 181.432131 
L 242.560016 181.432131 
L 242.609163 179.924784 
L 242.820236 179.924784 
L 242.820236 179.171111 
L 243.280778 179.171111 
L 243.280778 178.417438 
L 243.498685 178.417438 
L 243.498685 177.663765 
L 243.676 177.663765 
L 243.676 115.108889 
L 243.805421 115.108889 
L 243.833069 113.601542 
L 245.068585 113.601542 
L 245.068585 112.847869 
L 245.328587 112.847869 
L 245.328587 112.094196 
L 245.476778 112.094196 
L 245.510438 110.58685 
L 246.342125 110.58685 
L 246.342125 109.833176 
L 246.498269 109.833176 
L 246.498269 109.079503 
L 246.712451 109.079503 
L 246.712451 108.32583 
L 247.089351 108.32583 
L 247.089351 107.572157 
L 247.970859 107.572157 
L 248.044963 105.311137 
L 248.698754 105.311137 
L 248.698754 104.557464 
L 249.263585 104.557464 
L 249.263585 103.803791 
L 249.778409 103.803791 
L 249.821593 102.296444 
L 250.682559 102.296444 
L 250.734217 100.789098 
L 251.323836 100.789098 
L 251.403847 99.281752 
L 251.450942 99.281752 
L 251.450942 98.528078 
L 251.568743 98.528078 
L 251.568743 97.774405 
L 253.19176 97.774405 
L 253.297796 94.759712 
L 254.027036 94.759712 
L 254.027036 94.006039 
L 254.393082 94.006039 
L 254.393082 93.252366 
L 254.545655 93.252366 
L 254.545655 92.498693 
L 255.379117 92.498693 
L 255.379117 91.74502 
L 255.553853 91.74502 
L 255.553853 90.991346 
L 256.115554 90.991346 
L 256.1339 89.484 
L 257.078863 89.484 
L 257.078863 88.730327 
L 257.256178 88.730327 
L 257.256178 87.976654 
L 258.60203 87.976654 
L 258.60203 87.22298 
L 258.976724 87.22298 
L 258.976724 86.469307 
L 259.091933 86.469307 
L 259.091933 85.715634 
L 259.859 85.715634 
L 259.859 84.208288 
L 260.966701 84.208288 
L 260.966701 82.700941 
L 262.581646 82.700941 
L 262.615713 81.193595 
L 262.911721 81.193595 
L 262.911721 80.439922 
L 263.095036 80.439922 
L 263.095036 79.686248 
L 263.27235 79.686248 
L 263.27235 78.178902 
L 264.344765 78.178902 
L 264.380052 75.917882 
L 265.68504 75.917882 
L 265.68504 75.164209 
L 266.110775 75.164209 
L 266.21449 73.656863 
L 267.012591 73.656863 
L 267.012591 72.90319 
L 267.499957 72.90319 
L 267.499957 72.149516 
L 267.732268 72.149516 
L 267.732268 71.395843 
L 268.125833 71.395843 
L 268.22072 69.888497 
L 268.773011 69.888497 
L 268.773011 69.134824 
L 269.524126 69.134824 
L 269.524126 68.38115 
L 269.648999 68.38115 
L 269.648999 67.627477 
L 269.821299 67.627477 
L 269.821299 66.873804 
L 270.165403 66.873804 
L 270.165403 66.120131 
L 270.352646 66.120131 
L 270.352646 65.366458 
L 270.482461 65.366458 
L 270.482461 64.612784 
L 271.165256 64.612784 
L 271.165256 63.859111 
L 271.652393 63.859111 
L 271.652393 63.105438 
L 272.250166 63.105438 
L 272.250166 62.351765 
L 272.806062 62.351765 
L 272.806062 61.598092 
L 273.009614 61.598092 
L 273.009614 60.844418 
L 273.234649 60.844418 
L 273.234649 59.337072 
L 274.142005 59.337072 
L 274.142005 58.583399 
L 274.731088 58.583399 
L 274.731088 57.829725 
L 274.975467 57.829725 
L 274.975467 57.076052 
L 275.315263 57.076052 
L 275.315263 56.322379 
L 276.827857 56.322379 
L 276.827857 55.568706 
L 279.808269 55.568706 
L 279.808269 54.815033 
L 280.563052 54.815033 
L 280.563052 53.307686 
L 281.009591 53.307686 
L 281.009591 52.554013 
L 282.57949 52.554013 
L 282.57949 51.80034 
L 283.221619 51.80034 
L 283.297136 50.292993 
L 283.626089 50.292993 
L 283.626089 49.53932 
L 285.056058 49.53932 
L 285.056058 48.785647 
L 285.44645 48.785647 
L 285.555869 47.278301 
L 286.774 47.278301 
L 286.814827 45.770954 
L 287.261367 45.770954 
L 287.261367 45.017281 
L 287.98213 45.017281 
L 287.98213 44.263608 
L 288.53442 44.263608 
L 288.53442 43.509935 
L 289.079649 43.509935 
L 289.079649 42.756261 
L 289.324029 42.756261 
L 289.324029 42.002588 
L 290.525351 42.002588 
L 290.525351 40.495242 
L 290.808701 40.495242 
L 290.808701 39.741569 
L 291.413802 39.741569 
L 291.413802 38.987895 
L 291.600781 38.987895 
L 291.600781 38.234222 
L 293.572655 38.234222 
L 293.572655 37.480549 
L 294.468395 37.480549 
L 294.468395 36.726876 
L 294.589769 36.726876 
L 294.673058 35.219529 
L 295.862822 35.219529 
L 295.862822 34.465856 
L 296.112935 34.465856 
L 296.112935 33.712183 
L 297.531909 33.712183 
L 297.531909 32.95851 
L 298.300292 32.95851 
L 298.300292 31.451163 
L 300.605941 31.451163 
L 300.605941 30.69749 
L 305.656395 30.69749 
L 305.656395 29.943817 
L 305.848063 29.943817 
L 305.848063 29.190144 
L 307.816052 29.190144 
L 307.816052 28.436471 
L 308.715677 28.436471 
L 308.715677 27.682797 
L 309.761072 27.682797 
L 309.761072 26.929124 
L 312.309058 26.929124 
L 312.309058 26.175451 
L 316.373477 26.175451 
L 316.373477 25.421778 
L 320.084 25.421778 
L 320.084 24.668105 
L 321.136995 24.668105 
L 321.136995 23.914431 
L 324.148418 23.914431 
L 324.148418 23.160758 
L 324.789695 23.160758 
L 324.789695 22.407085 
L 326.65762 22.407085 
L 326.65762 20.899739 
L 327.858942 20.899739 
L 327.858942 20.146065 
L 329.59976 20.146065 
L 329.59976 19.392392 
L 330.788005 19.392392 
L 330.788005 18.638719 
L 333.655619 18.638719 
L 333.655619 17.885046 
L 334.432561 17.885046 
L 334.432561 17.131373 
L 337.845912 17.131373 
L 337.845912 16.377699 
L 339.68035 16.377699 
L 339.68035 15.624026 
L 341.867708 15.624026 
L 341.867708 14.870353 
L 343.948321 14.870353 
L 343.948321 14.11668 
L 345.932126 14.11668 
L 345.932126 13.363007 
L 348.196948 13.363007 
L 348.196948 12.609333 
L 349.642649 12.609333 
L 349.642649 11.85566 
L 350.549415 11.85566 
L 350.549415 11.101987 
L 353.056 11.101987 
L 353.056 10.348314 
L 353.417029 10.348314 
L 353.417029 9.594641 
L 360.280687 9.594641 
L 360.280687 8.840967 
L 369.239 8.840967 
L 369.239 7.333621 
L 370.997769 7.333621 
L 370.997769 6.579948 
L 379.201299 6.579948 
L 379.201299 5.826275 
L 453.192 5.826275 
L 453.192 5.826275 
" clip-path="url(#p9921cde504)" style="fill: none; stroke: #000000; stroke-width: 3; stroke-linecap: square"/>
   </g>
   <g id="line2d_50">
    <path clip-path="url(#p9921cde504)" style="fill: none; stroke: #000000; stroke-width: 3; stroke-linecap: square"/>
   </g>
   <g id="line2d_51">
    <path d="M 34.16 288.453725 
L 92.591022 288.453725 
L 92.591022 287.700052 
L 106.893603 287.700052 
L 106.893603 286.192706 
L 110.221803 286.192706 
L 110.221803 285.439033 
L 110.409889 285.439033 
L 110.409889 283.931686 
L 114.517354 283.931686 
L 114.517354 282.42434 
L 121.892427 282.42434 
L 121.892427 281.670667 
L 125.408713 281.670667 
L 125.408713 280.916993 
L 126.761718 280.916993 
L 126.761718 280.16332 
L 129.516178 280.16332 
L 129.516178 279.409647 
L 130.616013 279.409647 
L 130.616013 278.655974 
L 130.969908 278.655974 
L 130.969908 277.902301 
L 134.132299 277.902301 
L 134.132299 277.148627 
L 134.486194 277.148627 
L 134.486194 276.394954 
L 138.239764 276.394954 
L 138.239764 275.641281 
L 138.59366 275.641281 
L 138.59366 274.887608 
L 151.520003 274.887608 
L 151.520003 273.380261 
L 153.299729 273.380261 
L 153.299729 272.626588 
L 154.283327 272.626588 
L 154.283327 271.872915 
L 155.321605 271.872915 
L 155.321605 271.119242 
L 156.232231 271.119242 
L 156.232231 269.611895 
L 156.347678 269.611895 
L 156.347678 268.858222 
L 157.054805 268.858222 
L 157.054805 268.104549 
L 157.215829 268.104549 
L 157.215829 266.597203 
L 158.338542 266.597203 
L 158.440244 264.336183 
L 158.955176 264.336183 
L 158.955176 263.58251 
L 159.32214 263.58251 
L 159.32214 262.828837 
L 159.51199 262.828837 
L 159.51199 262.075163 
L 159.863964 262.075163 
L 159.863964 261.32149 
L 160.180521 261.32149 
L 160.214287 259.814144 
L 161.188778 259.814144 
L 161.286032 257.553124 
L 162.294289 257.553124 
L 162.294289 256.799451 
L 163.189689 256.799451 
L 163.189689 256.045778 
L 163.971429 256.045778 
L 163.971429 255.292105 
L 164.092831 255.292105 
L 164.173287 253.784758 
L 165.001066 253.784758 
L 165.001066 253.031085 
L 165.31395 253.031085 
L 165.31395 252.277412 
L 165.890359 252.277412 
L 165.890359 251.523739 
L 166.297548 251.523739 
L 166.297548 250.770065 
L 166.518827 250.770065 
L 166.518827 250.016392 
L 167.75142 250.016392 
L 167.75142 249.262719 
L 168.735018 249.262719 
L 168.769228 247.755373 
L 169.752826 247.755373 
L 169.752826 247.001699 
L 170.445629 247.001699 
L 170.445629 246.248026 
L 170.797389 246.248026 
L 170.797389 245.494353 
L 170.926402 245.494353 
L 170.926402 244.74068 
L 171.152463 244.74068 
L 171.152463 243.987007 
L 171.429227 243.987007 
L 171.429227 243.233333 
L 171.778366 243.233333 
L 171.778366 242.47966 
L 171.91 242.47966 
L 171.91 241.725987 
L 172.761964 241.725987 
L 172.761964 240.972314 
L 172.979688 240.972314 
L 173.044443 238.711294 
L 173.579295 238.711294 
L 173.579295 237.957621 
L 173.691962 237.957621 
L 173.691962 237.203948 
L 173.963286 237.203948 
L 173.963286 236.450275 
L 174.116189 236.450275 
L 174.116189 235.696601 
L 175.242413 235.696601 
L 175.353338 234.189255 
L 175.543526 234.189255 
L 175.596309 231.928235 
L 175.772575 231.928235 
L 175.772575 231.174562 
L 176.361595 231.174562 
L 176.361595 230.420889 
L 176.527124 230.420889 
L 176.527124 229.667216 
L 178.05818 229.667216 
L 178.05818 228.913542 
L 181.462495 228.913542 
L 181.462495 228.159869 
L 182.446093 228.159869 
L 182.446093 227.406196 
L 184.72446 227.406196 
L 184.72446 226.652523 
L 185.49092 226.652523 
L 185.49092 225.89885 
L 188.183495 225.89885 
L 188.183495 225.145176 
L 191.048923 225.145176 
L 191.048923 224.391503 
L 193.651146 224.391503 
L 193.684911 222.884157 
L 194.756657 222.884157 
L 194.756657 222.130484 
L 194.927097 222.130484 
L 194.927097 221.37681 
L 195.910695 221.37681 
L 195.910695 220.623137 
L 197.033761 220.623137 
L 197.033761 219.115791 
L 199.220632 219.115791 
L 199.220632 218.362118 
L 200.391313 218.362118 
L 200.391313 217.608444 
L 200.974078 217.608444 
L 200.974078 216.854771 
L 202.355241 216.854771 
L 202.355241 216.101098 
L 202.736918 216.101098 
L 202.736918 215.347425 
L 203.725016 215.347425 
L 203.725016 214.593752 
L 204.771196 214.593752 
L 204.771196 213.840078 
L 206.844384 213.840078 
L 206.844384 213.086405 
L 207.241302 213.086405 
L 207.241302 212.332732 
L 208.679705 212.332732 
L 208.679705 211.579059 
L 208.823963 211.579059 
L 208.823963 210.825386 
L 209.305625 210.825386 
L 209.305625 210.071712 
L 210.648438 210.071712 
L 210.648438 209.318039 
L 211.079667 209.318039 
L 211.079667 208.564366 
L 211.348768 208.564366 
L 211.348768 207.810693 
L 212.002333 207.810693 
L 212.087924 205.549673 
L 213.520713 205.549673 
L 213.58094 203.288654 
L 214.934835 203.288654 
L 214.934835 201.781307 
L 215.556615 201.781307 
L 215.556615 201.027634 
L 215.68725 201.027634 
L 215.736612 199.520288 
L 217.041145 199.520288 
L 217.093856 197.259268 
L 217.361434 197.259268 
L 217.395199 195.751922 
L 218.022094 195.751922 
L 218.022094 194.998248 
L 218.165602 194.998248 
L 218.165602 194.244575 
L 218.466945 194.244575 
L 218.466945 193.490902 
L 218.837015 193.490902 
L 218.895155 191.229882 
L 219.190077 191.229882 
L 219.223842 189.722536 
L 219.370183 189.722536 
L 219.461657 188.21519 
L 219.942526 188.21519 
L 219.942526 187.461516 
L 220.295588 187.461516 
L 220.295588 186.707843 
L 220.538397 186.707843 
L 220.580484 184.446824 
L 220.756171 184.446824 
L 220.756171 183.69315 
L 221.110066 183.69315 
L 221.110066 182.939477 
L 221.65223 182.939477 
L 221.65223 182.185804 
L 221.892292 182.185804 
L 221.892292 181.432131 
L 222.401978 181.432131 
L 222.401978 180.678458 
L 222.662659 180.678458 
L 222.662659 179.924784 
L 223.095228 179.924784 
L 223.095228 179.171111 
L 223.909824 179.171111 
L 224.016554 177.663765 
L 224.507838 177.663765 
L 224.507838 176.910092 
L 225.100129 176.910092 
L 225.100129 176.156418 
L 225.219619 176.156418 
L 225.219619 175.402745 
L 225.416072 175.402745 
L 225.416072 174.649072 
L 226.117936 174.649072 
L 226.117936 173.895399 
L 226.305366 173.895399 
L 226.305366 173.141725 
L 226.454024 173.141725 
L 226.454024 172.388052 
L 227.471832 172.388052 
L 227.471832 171.634379 
L 227.794337 171.634379 
L 227.794337 170.880706 
L 228.232884 170.880706 
L 228.27511 169.373359 
L 229.127074 169.373359 
L 229.148232 167.11234 
L 229.629006 167.11234 
L 229.629006 166.358667 
L 230.030411 166.358667 
L 230.030411 165.604993 
L 230.328397 165.604993 
L 230.328397 164.85132 
L 230.48097 164.85132 
L 230.48097 164.097647 
L 231.022397 164.097647 
L 231.022397 163.343974 
L 231.151494 163.343974 
L 231.212396 161.836627 
L 231.346153 161.836627 
L 231.346153 161.082954 
L 231.56747 161.082954 
L 231.56747 160.329281 
L 231.682292 160.329281 
L 231.682292 159.575608 
L 232.001596 159.575608 
L 232.001596 158.821935 
L 232.223401 158.821935 
L 232.232907 157.314588 
L 232.534251 157.314588 
L 232.534251 156.560915 
L 232.892235 156.560915 
L 232.892235 155.807242 
L 233.187396 155.807242 
L 233.187396 155.053569 
L 234.009831 155.053569 
L 234.106968 153.546222 
L 234.24613 153.546222 
L 234.24613 152.792549 
L 234.362894 152.792549 
L 234.362894 152.038876 
L 234.562009 152.038876 
L 234.562009 151.285203 
L 234.779491 151.285203 
L 234.862439 149.777856 
L 234.937441 149.777856 
L 234.937441 149.024183 
L 235.292515 149.024183 
L 235.292515 148.27051 
L 235.635167 148.27051 
L 235.719536 146.763163 
L 235.99678 146.763163 
L 235.99678 146.00949 
L 236.187582 146.00949 
L 236.187582 145.255817 
L 236.582662 145.255817 
L 236.582662 144.502144 
L 237.330164 144.502144 
L 237.330164 143.748471 
L 237.832014 143.748471 
L 237.832014 142.994797 
L 238.473187 142.994797 
L 238.473187 142.241124 
L 238.640707 142.241124 
L 238.640707 141.487451 
L 238.811203 141.487451 
L 238.916357 139.226431 
L 238.941892 139.226431 
L 238.969905 137.719085 
L 239.721826 137.719085 
L 239.721826 136.965412 
L 239.912627 136.965412 
L 239.912627 136.211739 
L 240.098948 136.211739 
L 240.203262 133.950719 
L 240.772822 133.950719 
L 240.857757 132.443373 
L 240.891522 132.443373 
L 240.891522 131.689699 
L 241.681056 131.689699 
L 241.771481 130.182353 
L 241.963268 130.182353 
L 241.963268 129.42868 
L 242.156993 129.42868 
L 242.198232 127.921333 
L 242.376533 127.921333 
L 242.432643 126.413987 
L 242.57035 126.413987 
L 242.57035 125.660314 
L 243.208663 125.660314 
L 243.208663 124.906641 
L 243.624213 124.906641 
L 243.719548 122.645621 
L 243.847033 122.645621 
L 243.847033 121.891948 
L 244.206414 121.891948 
L 244.206414 121.138275 
L 244.550292 121.138275 
L 244.550292 120.384601 
L 245.181438 120.384601 
L 245.215203 118.877255 
L 245.405052 118.877255 
L 245.405052 118.123582 
L 245.825989 118.123582 
L 245.905927 115.862562 
L 245.95106 115.862562 
L 245.95106 115.108889 
L 246.264458 115.108889 
L 246.286949 113.601542 
L 246.483998 113.601542 
L 246.540109 111.340523 
L 246.9315 111.340523 
L 246.9315 110.58685 
L 247.47738 110.58685 
L 247.47738 109.833176 
L 247.691409 109.833176 
L 247.691409 109.079503 
L 247.827013 109.079503 
L 247.832454 107.572157 
L 248.351417 107.572157 
L 248.351417 106.818484 
L 248.653178 106.818484 
L 248.653178 106.06481 
L 249.188243 106.06481 
L 249.188243 105.311137 
L 249.630972 105.311137 
L 249.72731 103.803791 
L 249.854183 103.803791 
L 249.854183 103.050118 
L 250.225534 103.050118 
L 250.225534 102.296444 
L 250.371953 102.296444 
L 250.371953 101.542771 
L 250.542707 101.542771 
L 250.542707 100.789098 
L 251.450942 100.789098 
L 251.450942 100.035425 
L 252.261764 100.035425 
L 252.340235 97.774405 
L 252.410272 97.774405 
L 252.452566 96.267059 
L 253.158036 96.267059 
L 253.158036 94.759712 
L 253.629701 94.759712 
L 253.629701 94.006039 
L 254.738171 94.006039 
L 254.738171 93.252366 
L 254.960945 93.252366 
L 254.960945 92.498693 
L 255.264346 92.498693 
L 255.264346 91.74502 
L 255.512707 91.74502 
L 255.512707 90.991346 
L 256.030574 90.991346 
L 256.030574 90.237673 
L 256.616794 90.237673 
L 256.616794 89.484 
L 257.247265 89.484 
L 257.247265 88.730327 
L 257.602339 88.730327 
L 257.602339 87.976654 
L 260.115493 87.976654 
L 260.141838 86.469307 
L 260.354255 86.469307 
L 260.354255 85.715634 
L 260.998806 85.715634 
L 260.998806 84.961961 
L 261.254994 84.961961 
L 261.297511 83.454614 
L 262.03165 83.454614 
L 262.03165 82.700941 
L 262.170911 82.700941 
L 262.239755 80.439922 
L 263.014744 80.439922 
L 263.014744 79.686248 
L 264.508056 79.686248 
L 264.508056 78.932575 
L 264.677225 78.932575 
L 264.677225 78.178902 
L 264.855097 78.178902 
L 264.855097 77.425229 
L 265.193092 77.425229 
L 265.193092 76.671556 
L 265.695032 76.671556 
L 265.695032 75.917882 
L 266.394097 75.917882 
L 266.394097 75.164209 
L 266.53103 75.164209 
L 266.53103 74.410536 
L 267.371433 74.410536 
L 267.371433 73.656863 
L 267.852206 73.656863 
L 267.959237 70.64217 
L 268.26058 70.64217 
L 268.26058 69.888497 
L 268.61959 69.888497 
L 268.70417 68.38115 
L 268.950186 68.38115 
L 269.011988 66.873804 
L 269.23498 66.873804 
L 269.23498 66.120131 
L 269.736161 66.120131 
L 269.736161 65.366458 
L 269.905492 65.366458 
L 269.905492 64.612784 
L 270.089223 64.612784 
L 270.089223 63.859111 
L 270.638495 63.859111 
L 270.638495 63.105438 
L 271.445865 63.105438 
L 271.50086 61.598092 
L 271.940796 61.598092 
L 271.994752 60.090745 
L 272.469331 60.090745 
L 272.469331 59.337072 
L 275.972554 59.337072 
L 275.972554 58.583399 
L 277.794909 58.583399 
L 277.837425 57.076052 
L 277.984496 57.076052 
L 277.984496 56.322379 
L 278.388299 56.322379 
L 278.388299 55.568706 
L 279.161542 55.568706 
L 279.161542 54.815033 
L 280.020398 54.815033 
L 280.020398 54.061359 
L 281.209063 54.061359 
L 281.209063 53.307686 
L 283.079294 53.307686 
L 283.079294 52.554013 
L 283.267107 52.554013 
L 283.267107 51.80034 
L 283.486647 51.80034 
L 283.542758 50.292993 
L 284.829662 50.292993 
L 284.829662 49.53932 
L 286.250372 49.53932 
L 286.250372 48.785647 
L 289.36079 48.785647 
L 289.36079 48.031974 
L 289.625534 48.031974 
L 289.625534 47.278301 
L 291.756903 47.278301 
L 291.852901 45.770954 
L 291.877746 45.770954 
L 291.911511 44.263608 
L 292.983257 44.263608 
L 292.983257 43.509935 
L 293.865174 43.509935 
L 293.865174 42.756261 
L 295.48618 42.756261 
L 295.48618 42.002588 
L 296.080584 42.002588 
L 296.080584 41.248915 
L 296.687185 41.248915 
L 296.725135 39.741569 
L 299.243274 39.741569 
L 299.243274 38.987895 
L 301.793947 38.987895 
L 301.793947 38.234222 
L 302.790286 38.234222 
L 302.790286 37.480549 
L 303.623669 37.480549 
L 303.623669 36.726876 
L 306.165448 36.726876 
L 306.165448 35.973203 
L 306.366067 35.973203 
L 306.366067 35.219529 
L 307.050562 35.219529 
L 307.050562 34.465856 
L 307.348715 34.465856 
L 307.348715 33.712183 
L 307.641144 33.712183 
L 307.641144 32.95851 
L 308.087997 32.95851 
L 308.130513 31.451163 
L 310.091112 31.451163 
L 310.091112 30.69749 
L 318.805623 30.69749 
L 318.805623 29.943817 
L 319.888653 29.943817 
L 319.888653 29.190144 
L 321.486311 29.190144 
L 321.486311 28.436471 
L 322.631051 28.436471 
L 322.631051 27.682797 
L 326.72282 27.682797 
L 326.72282 26.929124 
L 328.780865 26.929124 
L 328.780865 26.175451 
L 329.000404 26.175451 
L 329.056515 24.668105 
L 329.658539 24.668105 
L 329.658539 23.914431 
L 330.34342 23.914431 
L 330.34342 23.160758 
L 332.400936 23.160758 
L 332.400936 22.407085 
L 333.083374 22.407085 
L 333.083374 21.653412 
L 336.458536 21.653412 
L 336.458536 20.899739 
L 339.576549 20.899739 
L 339.576549 20.146065 
L 342.776892 20.146065 
L 342.776892 19.392392 
L 343.301594 19.392392 
L 343.301594 18.638719 
L 348.750232 18.638719 
L 348.750232 17.885046 
L 353.154901 17.885046 
L 353.154901 17.131373 
L 355.074696 17.131373 
L 355.074696 16.377699 
L 355.841533 16.377699 
L 355.841533 15.624026 
L 364.417086 15.624026 
L 364.417086 14.870353 
L 365.611418 14.870353 
L 365.611418 14.11668 
L 368.796969 14.11668 
L 368.796969 13.363007 
L 377.546485 13.363007 
L 377.546485 12.609333 
L 379.582387 12.609333 
L 379.582387 11.85566 
L 395.048169 11.85566 
L 395.048169 11.101987 
L 396.249174 11.101987 
L 396.249174 10.348314 
L 398.805263 10.348314 
L 398.805263 9.594641 
L 401.355936 9.594641 
L 401.355936 8.840967 
L 407.649986 8.840967 
L 407.692502 7.333621 
L 432.645363 7.333621 
L 432.645363 6.579948 
L 436.020525 6.579948 
L 436.020525 5.826275 
L 453.192 5.826275 
L 453.192 5.826275 
" clip-path="url(#p9921cde504)" style="fill: none; stroke: #00bfbf; stroke-width: 3; stroke-linecap: square"/>
   </g>
   <g id="line2d_52">
    <path clip-path="url(#p9921cde504)" style="fill: none; stroke: #00bfbf; stroke-width: 3; stroke-linecap: square"/>
   </g>
   <g id="line2d_53">
    <path d="M 34.16 288.453725 
L 100.40303 288.453725 
L 100.40303 287.700052 
L 106.308397 287.700052 
L 106.308397 286.946379 
L 116.338181 286.946379 
L 116.338181 286.192706 
L 120.426672 286.192706 
L 120.426672 285.439033 
L 122.243548 285.439033 
L 122.243548 284.685359 
L 126.332039 284.685359 
L 126.332039 283.931686 
L 127.29985 283.931686 
L 127.29985 283.178013 
L 130.839857 283.178013 
L 130.839857 282.42434 
L 143.235001 282.42434 
L 143.235001 281.670667 
L 146.775007 281.670667 
L 146.775007 280.916993 
L 147.323491 280.916993 
L 147.323491 280.16332 
L 150.863498 280.16332 
L 150.863498 279.409647 
L 157.128784 279.409647 
L 157.128784 278.655974 
L 159.10629 278.655974 
L 159.10629 277.902301 
L 160.98348 277.902301 
L 160.98348 277.148627 
L 161.607844 277.148627 
L 161.607844 276.394954 
L 161.977925 276.394954 
L 161.977925 275.641281 
L 162.634243 275.641281 
L 162.634243 274.887608 
L 163.258606 274.887608 
L 163.258606 274.133935 
L 163.395147 274.133935 
L 163.395147 273.380261 
L 163.628687 273.380261 
L 163.628687 272.626588 
L 164.019511 272.626588 
L 164.019511 271.872915 
L 164.389592 271.872915 
L 164.389592 271.119242 
L 166.757897 271.119242 
L 166.757897 270.365569 
L 172.971197 270.365569 
L 172.971197 269.611895 
L 173.59556 269.611895 
L 173.59556 268.858222 
L 173.965641 268.858222 
L 173.965641 268.104549 
L 176.281764 268.104549 
L 176.281764 267.350876 
L 177.099911 267.350876 
L 177.099911 266.597203 
L 177.340737 266.597203 
L 177.340737 265.843529 
L 178.750673 265.843529 
L 178.750673 265.089856 
L 179.511578 265.089856 
L 179.511578 264.336183 
L 181.161395 264.336183 
L 181.161395 263.58251 
L 182.187131 263.58251 
L 182.187131 262.828837 
L 182.693048 262.828837 
L 182.693048 262.075163 
L 183.411068 262.075163 
L 183.411068 261.32149 
L 183.755268 261.32149 
L 183.755268 260.567817 
L 186.781538 260.567817 
L 186.781538 259.814144 
L 187.066762 259.814144 
L 187.066762 259.060471 
L 188.619918 259.060471 
L 188.619918 258.306797 
L 188.778661 258.306797 
L 188.778661 257.553124 
L 189.087628 257.553124 
L 189.122861 256.045778 
L 190.304427 256.045778 
L 190.304427 255.292105 
L 191.264197 255.292105 
L 191.264197 254.538431 
L 191.608398 254.538431 
L 191.608398 253.784758 
L 192.014688 253.784758 
L 192.014688 253.031085 
L 192.389032 253.031085 
L 192.389032 252.277412 
L 192.901926 252.277412 
L 192.901926 251.523739 
L 193.158978 251.523739 
L 193.158978 250.770065 
L 193.462581 250.770065 
L 193.462581 250.016392 
L 193.987511 250.016392 
L 194.016823 248.509046 
L 194.641187 248.509046 
L 194.641187 247.755373 
L 195.011268 247.755373 
L 195.011268 247.001699 
L 196.070244 247.001699 
L 196.070244 246.248026 
L 196.473048 246.248026 
L 196.473048 245.494353 
L 197.382281 245.494353 
L 197.382281 244.74068 
L 198.830174 244.74068 
L 198.830174 243.987007 
L 199.459151 243.987007 
L 199.459151 243.233333 
L 199.867817 243.233333 
L 199.867817 242.47966 
L 201.31571 242.47966 
L 201.31571 241.725987 
L 203.178583 241.725987 
L 203.178583 240.972314 
L 204.264657 240.972314 
L 204.264657 240.218641 
L 204.443023 240.218641 
L 204.443023 239.464967 
L 206.420529 239.464967 
L 206.420529 238.711294 
L 206.71859 238.711294 
L 206.71859 237.957621 
L 207.826268 237.957621 
L 207.826268 237.203948 
L 208.058214 237.203948 
L 208.058214 236.450275 
L 209.067422 236.450275 
L 209.067422 235.696601 
L 209.45919 235.696601 
L 209.45919 234.942928 
L 209.803774 234.942928 
L 209.803774 234.189255 
L 209.970075 234.189255 
L 209.970075 233.435582 
L 210.133254 233.435582 
L 210.133254 232.681908 
L 210.273472 232.681908 
L 210.273472 231.928235 
L 210.810165 231.928235 
L 210.810165 231.174562 
L 211.044928 231.174562 
L 211.044928 230.420889 
L 211.436696 230.420889 
L 211.436696 229.667216 
L 211.598221 229.667216 
L 211.598221 228.913542 
L 212.184361 228.913542 
L 212.250978 227.406196 
L 212.460927 227.406196 
L 212.460927 226.652523 
L 212.717275 226.652523 
L 212.717275 225.89885 
L 213.221832 225.89885 
L 213.271922 224.391503 
L 213.47951 224.391503 
L 213.47951 223.63783 
L 213.600648 223.63783 
L 213.600648 222.884157 
L 214.161867 222.884157 
L 214.161867 222.130484 
L 214.556367 222.130484 
L 214.654748 220.623137 
L 214.825516 220.623137 
L 214.825516 219.869464 
L 215.311986 219.869464 
L 215.311986 219.115791 
L 215.457016 219.115791 
L 215.457016 218.362118 
L 215.967467 218.362118 
L 215.967467 217.608444 
L 217.024709 217.608444 
L 217.126498 216.101098 
L 217.477786 216.101098 
L 217.477786 215.347425 
L 217.659894 215.347425 
L 217.750861 213.840078 
L 218.120942 213.840078 
L 218.120942 213.086405 
L 218.284258 213.086405 
L 218.284258 212.332732 
L 218.622642 212.332732 
L 218.654339 210.825386 
L 218.908423 210.825386 
L 218.957456 209.318039 
L 219.177289 209.318039 
L 219.177289 208.564366 
L 219.298878 208.564366 
L 219.312953 207.05702 
L 219.58182 207.05702 
L 219.58182 206.303346 
L 219.923242 206.303346 
L 219.951901 204.796 
L 220.082899 204.796 
L 220.082899 204.042327 
L 220.200857 204.042327 
L 220.293323 202.53498 
L 220.461735 202.53498 
L 220.461735 201.781307 
L 220.730883 201.781307 
L 220.730883 201.027634 
L 220.887878 201.027634 
L 220.887878 200.273961 
L 221.217353 200.273961 
L 221.217353 199.520288 
L 221.512242 199.520288 
L 221.512242 198.766614 
L 221.872834 198.766614 
L 221.882323 197.259268 
L 222.178363 197.259268 
L 222.178363 196.505595 
L 222.725167 196.505595 
L 222.797882 194.998248 
L 222.930076 194.998248 
L 222.994164 193.490902 
L 225.01837 193.490902 
L 225.051046 191.983556 
L 225.788316 191.983556 
L 225.788316 191.229882 
L 227.051867 191.229882 
L 227.051867 190.476209 
L 228.699582 190.476209 
L 228.699582 189.722536 
L 232.559327 189.722536 
L 232.559327 188.968863 
L 232.903527 188.968863 
L 232.903527 188.21519 
L 233.242929 188.21519 
L 233.242929 187.461516 
L 233.579886 187.461516 
L 233.663725 185.95417 
L 233.776325 185.95417 
L 233.776325 185.200497 
L 233.978056 185.200497 
L 233.978056 184.446824 
L 234.322256 184.446824 
L 234.322256 183.69315 
L 234.779029 183.69315 
L 234.779029 182.939477 
L 235.073887 182.939477 
L 235.12323 181.432131 
L 235.415309 181.432131 
L 235.415309 180.678458 
L 237.004309 180.678458 
L 237.004309 179.924784 
L 237.445542 179.924784 
L 237.445542 179.171111 
L 237.618666 179.171111 
L 237.685319 177.663765 
L 237.768178 177.663765 
L 237.789743 176.156418 
L 238.029519 176.156418 
L 238.029519 175.402745 
L 239.165676 175.402745 
L 239.186906 173.895399 
L 239.34464 173.895399 
L 239.34464 173.141725 
L 239.509877 173.141725 
L 239.614094 171.634379 
L 239.98788 171.634379 
L 239.98788 170.880706 
L 240.168742 170.880706 
L 240.216165 169.373359 
L 240.327901 169.373359 
L 240.327901 168.619686 
L 240.524569 168.619686 
L 240.552958 167.11234 
L 241.001911 167.11234 
L 241.001911 166.358667 
L 241.162947 166.358667 
L 241.177322 164.85132 
L 241.453187 164.85132 
L 241.547403 163.343974 
L 241.578668 163.343974 
L 241.578668 162.590301 
L 241.722336 162.590301 
L 241.722336 161.836627 
L 242.100163 161.836627 
L 242.208806 160.329281 
L 242.243065 160.329281 
L 242.288257 158.821935 
L 242.521188 158.821935 
L 242.622077 155.807242 
L 242.634832 155.807242 
L 242.654393 153.546222 
L 242.804932 153.546222 
L 242.894169 150.531529 
L 243.149132 150.531529 
L 243.154101 149.024183 
L 243.297264 149.024183 
L 243.391578 146.00949 
L 243.449114 146.00949 
L 243.449114 145.255817 
L 243.59941 145.255817 
L 243.708749 142.994797 
L 243.843508 142.994797 
L 243.921528 141.487451 
L 244.029569 141.487451 
L 244.118213 139.980105 
L 244.265763 139.980105 
L 244.374527 138.472758 
L 244.401707 138.472758 
L 244.401707 137.719085 
L 244.641491 137.719085 
L 244.742577 136.211739 
L 244.830542 136.211739 
L 244.840564 134.704392 
L 244.985691 134.704392 
L 244.993194 133.197046 
L 245.112658 133.197046 
L 245.112658 132.443373 
L 245.232332 132.443373 
L 245.269478 129.42868 
L 245.360004 129.42868 
L 245.369084 127.921333 
L 245.612807 127.921333 
L 245.612807 127.16766 
L 245.748812 127.16766 
L 245.832344 124.906641 
L 245.893841 124.906641 
L 245.893841 124.152967 
L 246.046614 124.152967 
L 246.049162 122.645621 
L 246.229986 122.645621 
L 246.288939 119.630928 
L 246.404293 119.630928 
L 246.404293 118.877255 
L 246.655152 118.877255 
L 246.655152 118.123582 
L 246.77339 118.123582 
L 246.77339 117.369908 
L 247.284085 117.369908 
L 247.284085 116.616235 
L 247.461535 116.616235 
L 247.527399 113.601542 
L 247.736832 113.601542 
L 247.769296 112.094196 
L 247.871599 112.094196 
L 247.957503 110.58685 
L 248.013783 110.58685 
L 248.013783 109.833176 
L 248.426555 109.833176 
L 248.482977 108.32583 
L 248.56159 108.32583 
L 248.628181 106.818484 
L 249.21719 106.818484 
L 249.252652 105.311137 
L 249.398127 105.311137 
L 249.398127 104.557464 
L 249.649087 104.557464 
L 249.649087 103.803791 
L 249.850341 103.803791 
L 249.850341 103.050118 
L 250.107124 103.050118 
L 250.156636 101.542771 
L 250.460483 101.542771 
L 250.460483 100.789098 
L 251.397789 100.789098 
L 251.408552 99.281752 
L 251.537761 99.281752 
L 251.537761 98.528078 
L 251.789557 98.528078 
L 251.789557 97.774405 
L 251.956359 97.774405 
L 251.974966 96.267059 
L 252.309393 96.267059 
L 252.309393 95.513386 
L 252.603839 95.513386 
L 252.603839 94.759712 
L 252.736249 94.759712 
L 252.736249 94.006039 
L 252.856445 94.006039 
L 252.856445 93.252366 
L 253.245111 93.252366 
L 253.245111 92.498693 
L 253.3765 92.498693 
L 253.404253 90.991346 
L 253.682176 90.991346 
L 253.682176 90.237673 
L 254.514728 90.237673 
L 254.514728 89.484 
L 254.693004 89.484 
L 254.693004 88.730327 
L 255.354505 88.730327 
L 255.354505 87.976654 
L 255.659682 87.976654 
L 255.659682 87.22298 
L 255.809877 87.22298 
L 255.809877 86.469307 
L 255.973999 86.469307 
L 255.973999 85.715634 
L 256.131019 85.715634 
L 256.131019 84.961961 
L 256.669389 84.961961 
L 256.669389 84.208288 
L 257.578912 84.208288 
L 257.680384 82.700941 
L 260.046125 82.700941 
L 260.046125 81.947268 
L 260.234644 81.947268 
L 260.234644 81.193595 
L 260.390326 81.193595 
L 260.390326 80.439922 
L 260.587645 80.439922 
L 260.587645 79.686248 
L 261.385908 79.686248 
L 261.385908 78.932575 
L 262.531225 78.932575 
L 262.531225 78.178902 
L 263.311779 78.178902 
L 263.311779 77.425229 
L 264.365878 77.425229 
L 264.365878 76.671556 
L 265.254976 76.671556 
L 265.254976 75.917882 
L 266.241459 75.917882 
L 266.293063 74.410536 
L 266.953183 74.410536 
L 266.953183 73.656863 
L 267.188917 73.656863 
L 267.256151 71.395843 
L 267.486579 71.395843 
L 267.486579 70.64217 
L 267.880515 70.64217 
L 267.966101 69.134824 
L 268.055134 69.134824 
L 268.055134 68.38115 
L 268.250596 68.38115 
L 268.250596 67.627477 
L 268.399334 67.627477 
L 268.399334 66.873804 
L 268.619554 66.873804 
L 268.649745 65.366458 
L 268.784141 65.366458 
L 268.784141 64.612784 
L 269.125563 64.612784 
L 269.125563 63.859111 
L 269.418007 63.859111 
L 269.418007 63.105438 
L 269.545997 63.105438 
L 269.545997 62.351765 
L 269.781466 62.351765 
L 269.839797 60.844418 
L 269.943607 60.844418 
L 269.943607 60.090745 
L 270.097639 60.090745 
L 270.108529 58.583399 
L 270.221184 58.583399 
L 270.316725 57.076052 
L 270.714563 57.076052 
L 270.764727 55.568706 
L 270.893897 55.568706 
L 270.893897 54.815033 
L 272.086035 54.815033 
L 272.086035 54.061359 
L 272.436297 54.061359 
L 272.536727 52.554013 
L 272.958014 52.554013 
L 272.958014 51.80034 
L 273.263984 51.80034 
L 273.263984 51.046667 
L 273.716935 51.046667 
L 273.716935 50.292993 
L 274.762177 50.292993 
L 274.762177 49.53932 
L 275.147572 49.53932 
L 275.251415 48.031974 
L 275.4639 48.031974 
L 275.4639 47.278301 
L 275.926602 47.278301 
L 275.926602 46.524627 
L 276.567221 46.524627 
L 276.658754 45.017281 
L 278.061399 45.017281 
L 278.106647 43.509935 
L 278.242144 43.509935 
L 278.242144 42.756261 
L 278.964316 42.756261 
L 279.072141 41.248915 
L 279.16472 41.248915 
L 279.16472 40.495242 
L 279.626789 40.495242 
L 279.626789 39.741569 
L 280.911234 39.741569 
L 280.911234 38.987895 
L 281.180383 38.987895 
L 281.290195 37.480549 
L 281.65862 37.480549 
L 281.666853 35.973203 
L 282.322333 35.973203 
L 282.322333 35.219529 
L 283.372582 35.219529 
L 283.379575 32.95851 
L 284.256119 32.95851 
L 284.256119 32.204837 
L 284.618625 32.204837 
L 284.618625 31.451163 
L 285.721946 31.451163 
L 285.721946 30.69749 
L 286.857818 30.69749 
L 286.857818 29.943817 
L 289.455318 29.943817 
L 289.455318 29.190144 
L 289.902874 29.190144 
L 289.902874 28.436471 
L 290.379643 28.436471 
L 290.379643 27.682797 
L 290.813345 27.682797 
L 290.851054 26.175451 
L 291.475418 26.175451 
L 291.475418 25.421778 
L 291.845499 25.421778 
L 291.845499 24.668105 
L 292.333208 24.668105 
L 292.333208 23.914431 
L 293.008395 23.914431 
L 293.008395 23.160758 
L 293.944898 23.160758 
L 293.944898 22.407085 
L 295.096162 22.407085 
L 295.096162 21.653412 
L 295.323937 21.653412 
L 295.323937 20.899739 
L 296.012543 20.899739 
L 296.012543 20.146065 
L 297.240646 20.146065 
L 297.240646 19.392392 
L 298.861226 19.392392 
L 298.861226 18.638719 
L 299.536413 18.638719 
L 299.536413 17.885046 
L 301.141743 17.885046 
L 301.141743 17.131373 
L 301.851956 17.131373 
L 301.851956 16.377699 
L 302.946063 16.377699 
L 302.946063 15.624026 
L 303.284172 15.624026 
L 303.284172 14.870353 
L 303.739243 14.870353 
L 303.739243 14.11668 
L 305.699506 14.11668 
L 305.699506 13.363007 
L 305.881671 13.363007 
L 305.881671 12.609333 
L 306.682767 12.609333 
L 306.682767 11.85566 
L 306.967485 11.85566 
L 306.967485 11.101987 
L 308.876054 11.101987 
L 308.876054 10.348314 
L 310.296468 10.348314 
L 310.296468 9.594641 
L 312.438896 9.594641 
L 312.438896 8.840967 
L 317.082836 8.840967 
L 317.082836 8.087294 
L 320.027856 8.087294 
L 320.027856 7.333621 
L 326.555874 7.333621 
L 326.555874 6.579948 
L 340.677739 6.579948 
L 340.677739 5.826275 
L 453.192 5.826275 
L 453.192 5.826275 
" clip-path="url(#p9921cde504)" style="fill: none; stroke: #bf00bf; stroke-width: 3; stroke-linecap: square"/>
   </g>
   <g id="line2d_54">
    <path clip-path="url(#p9921cde504)" style="fill: none; stroke: #bf00bf; stroke-width: 3; stroke-linecap: square"/>
   </g>
   <g id="line2d_55">
    <path d="M 34.16 288.453725 
L 116.961683 288.453725 
L 116.961683 287.700052 
L 123.111448 287.700052 
L 123.111448 286.946379 
L 130.510907 286.946379 
L 130.510907 286.192706 
L 132.278612 286.192706 
L 132.278612 285.439033 
L 136.660672 285.439033 
L 136.660672 284.685359 
L 138.428377 284.685359 
L 138.428377 283.931686 
L 143.138227 283.931686 
L 143.138227 283.178013 
L 145.557292 283.178013 
L 145.557292 282.42434 
L 156.687451 282.42434 
L 156.687451 281.670667 
L 158.455156 281.670667 
L 158.455156 280.916993 
L 159.106516 280.916993 
L 159.106516 280.16332 
L 160.874221 280.16332 
L 160.874221 279.409647 
L 163.049649 279.409647 
L 163.049649 278.655974 
L 163.609579 278.655974 
L 163.609579 277.902301 
L 164.439385 277.902301 
L 164.439385 277.148627 
L 164.803864 277.148627 
L 164.803864 276.394954 
L 165.363794 276.394954 
L 165.363794 275.641281 
L 166.1936 275.641281 
L 166.1936 274.887608 
L 166.79666 274.887608 
L 166.79666 274.133935 
L 167.35659 274.133935 
L 167.35659 273.380261 
L 168.186396 273.380261 
L 168.186396 272.626588 
L 175.227318 272.626588 
L 175.227318 271.872915 
L 175.787247 271.872915 
L 175.787247 271.119242 
L 176.617053 271.119242 
L 176.617053 270.365569 
L 177.369233 270.365569 
L 177.369233 269.611895 
L 178.755808 269.611895 
L 178.755808 268.858222 
L 180.510022 268.858222 
L 180.510022 268.104549 
L 181.003453 268.104549 
L 181.003453 267.350876 
L 182.502818 267.350876 
L 182.502818 266.597203 
L 182.832827 266.597203 
L 182.832827 265.843529 
L 188.163993 265.843529 
L 188.163993 265.089856 
L 188.982592 265.089856 
L 188.982592 264.336183 
L 190.933476 264.336183 
L 190.933476 263.58251 
L 192.207185 263.58251 
L 192.207185 262.828837 
L 193.348503 262.828837 
L 193.348503 262.075163 
L 194.552676 262.075163 
L 194.552676 261.32149 
L 195.605372 261.32149 
L 195.605372 260.567817 
L 195.819133 260.567817 
L 195.819133 259.814144 
L 196.165302 259.814144 
L 196.165302 259.060471 
L 196.320382 259.060471 
L 196.320382 258.306797 
L 196.995108 258.306797 
L 196.995108 257.553124 
L 204.504628 257.553124 
L 204.504628 256.799451 
L 205.376536 256.799451 
L 205.376536 256.045778 
L 205.637631 256.045778 
L 205.637631 255.292105 
L 209.009371 255.292105 
L 209.078577 253.784758 
L 210.182662 253.784758 
L 210.182662 253.031085 
L 210.52425 253.031085 
L 210.52425 252.277412 
L 211.311531 252.277412 
L 211.311531 251.523739 
L 211.428436 251.523739 
L 211.432584 250.016392 
L 211.787396 250.016392 
L 211.871414 248.509046 
L 213.004404 248.509046 
L 213.004764 247.001699 
L 213.412733 247.001699 
L 213.413979 245.494353 
L 213.625629 245.494353 
L 213.625629 244.74068 
L 213.884704 244.74068 
L 213.884704 243.987007 
L 214.219361 243.987007 
L 214.219361 243.233333 
L 214.761503 243.233333 
L 214.761503 242.47966 
L 214.885111 242.47966 
L 214.885111 241.725987 
L 215.060903 241.725987 
L 215.134626 240.218641 
L 215.590399 240.218641 
L 215.618425 238.711294 
L 215.742527 238.711294 
L 215.742527 237.957621 
L 216.228736 237.957621 
L 216.228736 237.203948 
L 216.540703 237.203948 
L 216.540703 236.450275 
L 216.751135 236.450275 
L 216.751135 235.696601 
L 216.962229 235.696601 
L 217.046531 234.189255 
L 217.167336 234.189255 
L 217.172244 232.681908 
L 217.487441 232.681908 
L 217.487441 231.928235 
L 217.623299 231.928235 
L 217.623299 231.174562 
L 218.04737 231.174562 
L 218.04737 230.420889 
L 218.294314 230.420889 
L 218.388201 228.913542 
L 218.66109 228.913542 
L 218.66109 228.159869 
L 218.877176 228.159869 
L 218.877176 227.406196 
L 219.04036 227.406196 
L 219.04036 226.652523 
L 219.15417 226.652523 
L 219.15417 225.89885 
L 219.342579 225.89885 
L 219.342579 225.145176 
L 219.60029 225.145176 
L 219.60029 224.391503 
L 219.864162 224.391503 
L 219.864162 223.63783 
L 220.233113 223.63783 
L 220.233113 222.884157 
L 220.369126 222.884157 
L 220.430096 220.623137 
L 220.483898 220.623137 
L 220.483898 219.869464 
L 220.793043 219.869464 
L 220.793043 219.115791 
L 221.034876 219.115791 
L 221.034876 218.362118 
L 221.210668 218.362118 
L 221.253898 216.854771 
L 221.49233 216.854771 
L 221.504779 215.347425 
L 221.622849 215.347425 
L 221.622849 214.593752 
L 221.892292 214.593752 
L 221.91892 213.086405 
L 222.064709 213.086405 
L 222.064709 212.332732 
L 222.537478 212.332732 
L 222.537478 211.579059 
L 222.690468 211.579059 
L 222.690468 210.825386 
L 222.894515 210.825386 
L 222.954528 209.318039 
L 223.111995 209.318039 
L 223.111995 208.564366 
L 223.742679 208.564366 
L 223.742679 207.810693 
L 224.049083 207.810693 
L 224.049083 207.05702 
L 224.744336 207.05702 
L 224.744336 206.303346 
L 225.046031 206.303346 
L 225.046031 205.549673 
L 225.362202 205.549673 
L 225.393974 204.042327 
L 226.50352 204.042327 
L 226.50352 203.288654 
L 227.463935 203.288654 
L 227.463935 202.53498 
L 228.97415 202.53498 
L 228.97415 201.781307 
L 230.2001 201.781307 
L 230.2001 201.027634 
L 231.450023 201.027634 
L 231.450023 200.273961 
L 231.814175 200.273961 
L 231.88154 198.766614 
L 233.193599 198.766614 
L 233.193599 198.012941 
L 233.723104 198.012941 
L 233.723104 197.259268 
L 234.047684 197.259268 
L 234.047684 196.505595 
L 234.23324 196.505595 
L 234.23324 195.751922 
L 234.746519 195.751922 
L 234.746519 194.998248 
L 235.57032 194.998248 
L 235.57032 194.244575 
L 235.939272 194.244575 
L 235.939272 193.490902 
L 236.084959 193.490902 
L 236.116841 191.983556 
L 236.687667 191.983556 
L 236.687667 191.229882 
L 237.042666 191.229882 
L 237.042666 190.476209 
L 237.210937 190.476209 
L 237.210937 189.722536 
L 237.937589 189.722536 
L 237.937589 188.968863 
L 238.80655 188.968863 
L 238.80655 188.21519 
L 239.034075 188.21519 
L 239.034075 187.461516 
L 239.180948 187.461516 
L 239.199321 185.95417 
L 239.787 185.95417 
L 239.787 185.200497 
L 240.072909 185.200497 
L 240.072909 184.446824 
L 240.242709 184.446824 
L 240.242709 183.69315 
L 240.395905 183.69315 
L 240.43117 182.185804 
L 240.508483 182.185804 
L 240.613897 179.924784 
L 240.666507 179.924784 
L 240.666507 179.171111 
L 240.802638 179.171111 
L 240.83914 177.663765 
L 240.922968 177.663765 
L 240.922968 176.910092 
L 241.061655 176.910092 
L 241.061655 176.156418 
L 241.237447 176.156418 
L 241.329899 174.649072 
L 241.591906 174.649072 
L 241.632444 172.388052 
L 241.839284 172.388052 
L 241.919071 168.619686 
L 241.999875 168.619686 
L 242.009744 166.358667 
L 242.17289 166.358667 
L 242.17289 165.604993 
L 242.295272 165.604993 
L 242.301887 164.097647 
L 242.416077 164.097647 
L 242.46407 162.590301 
L 242.717247 162.590301 
L 242.81497 160.329281 
L 242.872039 160.329281 
L 242.933068 158.821935 
L 243.098715 158.821935 
L 243.183974 155.053569 
L 243.228972 155.053569 
L 243.228972 154.299895 
L 243.443205 154.299895 
L 243.543055 151.285203 
L 243.612677 151.285203 
L 243.656512 148.27051 
L 243.755832 148.27051 
L 243.840202 146.763163 
L 243.989932 146.763163 
L 243.989932 146.00949 
L 244.307639 146.00949 
L 244.338136 144.502144 
L 244.427137 144.502144 
L 244.427137 143.748471 
L 244.549861 143.748471 
L 244.549861 142.994797 
L 244.815878 142.994797 
L 244.862599 141.487451 
L 245.090124 141.487451 
L 245.136312 139.226431 
L 245.21179 139.226431 
L 245.314609 136.211739 
L 245.349086 136.211739 
L 245.459176 132.443373 
L 245.472633 132.443373 
L 245.557839 130.936026 
L 245.688042 130.936026 
L 245.796485 128.675007 
L 245.913835 128.675007 
L 245.913835 127.921333 
L 246.222674 127.921333 
L 246.333102 126.413987 
L 246.359057 126.413987 
L 246.452944 124.906641 
L 246.564532 124.906641 
L 246.669946 120.384601 
L 246.722555 120.384601 
L 246.759691 118.123582 
L 246.874597 118.123582 
L 246.874597 117.369908 
L 247.16766 117.369908 
L 247.16766 116.616235 
L 247.895333 116.616235 
L 247.970278 114.355216 
L 248.159509 114.355216 
L 248.255396 112.847869 
L 248.561056 112.847869 
L 248.58345 111.340523 
L 248.991419 111.340523 
L 248.991419 110.58685 
L 249.2202 110.58685 
L 249.2202 109.833176 
L 249.505318 109.833176 
L 249.557073 108.32583 
L 249.672873 108.32583 
L 249.702374 106.818484 
L 249.886802 106.818484 
L 249.983663 105.311137 
L 250.294771 105.311137 
L 250.327261 103.803791 
L 251.807422 103.803791 
L 251.879731 101.542771 
L 252.173004 101.542771 
L 252.173004 100.789098 
L 253.110774 100.789098 
L 253.110774 100.035425 
L 255.692495 100.035425 
L 255.692495 99.281752 
L 255.948867 99.281752 
L 255.948867 98.528078 
L 256.102397 98.528078 
L 256.102397 97.774405 
L 256.617922 97.774405 
L 256.617922 97.020732 
L 257.899353 97.020732 
L 257.899353 96.267059 
L 259.69609 96.267059 
L 259.69609 95.513386 
L 260.917948 95.513386 
L 260.917948 94.759712 
L 261.183079 94.759712 
L 261.183079 94.006039 
L 261.424049 94.006039 
L 261.424049 93.252366 
L 262.589964 93.252366 
L 262.673971 91.74502 
L 262.950506 91.74502 
L 262.950506 90.991346 
L 263.508682 90.991346 
L 263.508682 90.237673 
L 264.856205 90.237673 
L 264.856205 89.484 
L 265.375865 89.484 
L 265.375865 88.730327 
L 266.17067 88.730327 
L 266.249453 87.22298 
L 266.309206 87.22298 
L 266.309206 86.469307 
L 266.578639 86.469307 
L 266.578639 85.715634 
L 266.825265 85.715634 
L 266.833461 84.208288 
L 267.202701 84.208288 
L 267.266946 82.700941 
L 267.393391 82.700941 
L 267.393391 81.947268 
L 267.751089 81.947268 
L 267.862126 79.686248 
L 268.186288 79.686248 
L 268.223197 78.178902 
L 268.596603 78.178902 
L 268.685927 75.917882 
L 268.755792 75.917882 
L 268.755792 75.164209 
L 269.004572 75.164209 
L 269.054878 73.656863 
L 269.394642 73.656863 
L 269.438073 72.149516 
L 269.514973 72.149516 
L 269.514973 71.395843 
L 269.6794 71.395843 
L 269.767851 69.134824 
L 269.867594 69.134824 
L 269.867594 68.38115 
L 270.058612 68.38115 
L 270.058612 67.627477 
L 270.319369 67.627477 
L 270.366193 65.366458 
L 270.466582 65.366458 
L 270.466582 64.612784 
L 270.605353 64.612784 
L 270.605353 63.859111 
L 271.115374 63.859111 
L 271.216906 62.351765 
L 271.322321 62.351765 
L 271.37493 60.844418 
L 271.820575 60.844418 
L 271.820575 60.090745 
L 272.545189 60.090745 
L 272.63218 57.829725 
L 272.885582 57.829725 
L 272.885582 57.076052 
L 273.282584 57.076052 
L 273.282584 56.322379 
L 273.526115 56.322379 
L 273.526115 55.568706 
L 273.673374 55.568706 
L 273.673374 54.815033 
L 273.872574 54.815033 
L 273.872574 54.061359 
L 274.046318 54.061359 
L 274.046318 53.307686 
L 274.157693 53.307686 
L 274.157693 52.554013 
L 274.341714 52.554013 
L 274.341714 51.80034 
L 274.462519 51.80034 
L 274.462519 51.046667 
L 274.599199 51.046667 
L 274.599199 50.292993 
L 274.839038 50.292993 
L 274.918482 48.785647 
L 275.014961 48.785647 
L 275.014961 48.031974 
L 275.589497 48.031974 
L 275.683384 46.524627 
L 275.887216 46.524627 
L 275.887216 45.770954 
L 276.338991 45.770954 
L 276.363082 44.263608 
L 276.590608 44.263608 
L 276.590608 43.509935 
L 277.046174 43.509935 
L 277.046174 42.756261 
L 278.065015 42.756261 
L 278.17043 41.248915 
L 278.223039 41.248915 
L 278.261131 39.741569 
L 278.564811 39.741569 
L 278.564811 38.987895 
L 278.787514 38.987895 
L 278.891349 37.480549 
L 278.926881 37.480549 
L 278.926881 36.726876 
L 279.102672 36.726876 
L 279.102672 35.973203 
L 279.214103 35.973203 
L 279.214103 35.219529 
L 279.395816 35.219529 
L 279.395816 34.465856 
L 279.784297 34.465856 
L 279.784297 33.712183 
L 280.582472 33.712183 
L 280.582472 32.95851 
L 280.720683 32.95851 
L 280.720683 32.204837 
L 281.003999 32.204837 
L 281.098207 29.190144 
L 282.341214 29.190144 
L 282.341214 28.436471 
L 282.53962 28.436471 
L 282.53962 27.682797 
L 284.142386 27.682797 
L 284.142386 26.929124 
L 287.326346 26.929124 
L 287.326346 26.175451 
L 289.064474 26.175451 
L 289.064474 25.421778 
L 290.401555 25.421778 
L 290.444882 23.914431 
L 291.004811 23.914431 
L 291.004811 23.160758 
L 291.834617 23.160758 
L 291.834617 22.407085 
L 292.811697 22.407085 
L 292.826901 20.899739 
L 293.278676 20.899739 
L 293.278676 20.146065 
L 294.033555 20.146065 
L 294.033555 19.392392 
L 294.174455 19.392392 
L 294.174455 18.638719 
L 295.504496 18.638719 
L 295.504496 17.885046 
L 297.501588 17.885046 
L 297.501588 17.131373 
L 298.625082 17.131373 
L 298.625082 16.377699 
L 299.08607 16.377699 
L 299.08607 15.624026 
L 299.537845 15.624026 
L 299.537845 14.870353 
L 301.051015 14.870353 
L 301.051015 14.11668 
L 301.763665 14.11668 
L 301.763665 13.363007 
L 302.513024 13.363007 
L 302.513024 12.609333 
L 303.24109 12.609333 
L 303.24109 11.85566 
L 303.52121 11.85566 
L 303.52121 11.101987 
L 304.114678 11.101987 
L 304.114678 10.348314 
L 306.051514 10.348314 
L 306.15104 8.840967 
L 315.655226 8.840967 
L 315.655226 8.087294 
L 320.460895 8.087294 
L 320.460895 7.333621 
L 326.720064 7.333621 
L 326.720064 6.579948 
L 339.266647 6.579948 
L 339.266647 5.826275 
L 453.192 5.826275 
L 453.192 5.826275 
" clip-path="url(#p9921cde504)" style="fill: none; stroke: #ff0000; stroke-width: 3; stroke-linecap: square"/>
   </g>
   <g id="line2d_56">
    <path clip-path="url(#p9921cde504)" style="fill: none; stroke: #ff0000; stroke-width: 3; stroke-linecap: square"/>
   </g>
   <g id="line2d_57">
    <path d="M 243.676 291.28 
L 243.676 3 
" clip-path="url(#p9921cde504)" style="fill: none; stroke: #000000; stroke-width: 1.5; stroke-linecap: square"/>
   </g>
   <g id="line2d_58">
    <path d="M 34.16 147.14 
L 453.192 147.14 
" clip-path="url(#p9921cde504)" style="fill: none; stroke-dasharray: 2,3.3; stroke-dashoffset: 0; stroke: #000000; stroke-width: 2"/>
   </g>
   <g id="patch_3">
    <path d="M 34.16 291.28 
L 34.16 3 
" style="fill: none; stroke: #000000; stroke-width: 0.8; stroke-linejoin: miter; stroke-linecap: square"/>
   </g>
   <g id="patch_4">
    <path d="M 453.192 291.28 
L 453.192 3 
" style="fill: none; stroke: #000000; stroke-width: 0.8; stroke-linejoin: miter; stroke-linecap: square"/>
   </g>
   <g id="patch_5">
    <path d="M 34.16 291.28 
L 453.192 291.28 
" style="fill: none; stroke: #000000; stroke-width: 0.8; stroke-linejoin: miter; stroke-linecap: square"/>
   </g>
   <g id="patch_6">
    <path d="M 34.16 3 
L 453.192 3 
" style="fill: none; stroke: #000000; stroke-width: 0.8; stroke-linejoin: miter; stroke-linecap: square"/>
   </g>
   <g id="text_5">
    <!-- f15-f19,5-D -->
    <g transform="translate(330.91761 285.5144)scale(0.2 -0.2)">
     <defs>
      <path id="DejaVuSans-35" d="M 691 4666 
L 3169 4666 
L 3169 4134 
L 1269 4134 
L 1269 2991 
Q 1406 3038 1543 3061 
Q 1681 3084 1819 3084 
Q 2600 3084 3056 2656 
Q 3513 2228 3513 1497 
Q 3513 744 3044 326 
Q 2575 -91 1722 -91 
Q 1428 -91 1123 -41 
Q 819 9 494 109 
L 494 744 
Q 775 591 1075 516 
Q 1375 441 1709 441 
Q 2250 441 2565 725 
Q 2881 1009 2881 1497 
Q 2881 1984 2565 2268 
Q 2250 2553 1709 2553 
Q 1456 2553 1204 2497 
Q 953 2441 691 2322 
L 691 4666 
z
" transform="scale(0.015625)"/>
      <path id="DejaVuSans-39" d="M 703 97 
L 703 672 
Q 941 559 1184 500 
Q 1428 441 1663 441 
Q 2288 441 2617 861 
Q 2947 1281 2994 2138 
Q 2813 1869 2534 1725 
Q 2256 1581 1919 1581 
Q 1219 1581 811 2004 
Q 403 2428 403 3163 
Q 403 3881 828 4315 
Q 1253 4750 1959 4750 
Q 2769 4750 3195 4129 
Q 3622 3509 3622 2328 
Q 3622 1225 3098 567 
Q 2575 -91 1691 -91 
Q 1453 -91 1209 -44 
Q 966 3 703 97 
z
M 1959 2075 
Q 2384 2075 2632 2365 
Q 2881 2656 2881 3163 
Q 2881 3666 2632 3958 
Q 2384 4250 1959 4250 
Q 1534 4250 1286 3958 
Q 1038 3666 1038 3163 
Q 1038 2656 1286 2365 
Q 1534 2075 1959 2075 
z
" transform="scale(0.015625)"/>
      <path id="DejaVuSans-2c" d="M 750 794 
L 1409 794 
L 1409 256 
L 897 -744 
L 494 -744 
L 750 256 
L 750 794 
z
" transform="scale(0.015625)"/>
      <path id="DejaVuSans-44" d="M 1259 4147 
L 1259 519 
L 2022 519 
Q 2988 519 3436 956 
Q 3884 1394 3884 2338 
Q 3884 3275 3436 3711 
Q 2988 4147 2022 4147 
L 1259 4147 
z
M 628 4666 
L 1925 4666 
Q 3281 4666 3915 4102 
Q 4550 3538 4550 2338 
Q 4550 1131 3912 565 
Q 3275 0 1925 0 
L 628 0 
L 628 4666 
z
" transform="scale(0.015625)"/>
     </defs>
     <use xlink:href="#DejaVuSans-66"/>
     <use xlink:href="#DejaVuSans-31" x="35.205078"/>
     <use xlink:href="#DejaVuSans-35" x="98.828125"/>
     <use xlink:href="#DejaVuSans-2d" x="162.451172"/>
     <use xlink:href="#DejaVuSans-66" x="198.535156"/>
     <use xlink:href="#DejaVuSans-31" x="233.740234"/>
     <use xlink:href="#DejaVuSans-39" x="297.363281"/>
     <use xlink:href="#DejaVuSans-2c" x="360.986328"/>
     <use xlink:href="#DejaVuSans-35" x="392.773438"/>
     <use xlink:href="#DejaVuSans-2d" x="456.396484"/>
     <use xlink:href="#DejaVuSans-44" x="492.480469"/>
    </g>
   </g>
   <g id="text_6">
    <!-- v2.6.1.158 -->
    <g style="fill: #808080" transform="translate(216.861937 286.317512)scale(0.1 -0.1)">
     <defs>
      <path id="DejaVuSans-32" d="M 1228 531 
L 3431 531 
L 3431 0 
L 469 0 
L 469 531 
Q 828 903 1448 1529 
Q 2069 2156 2228 2338 
Q 2531 2678 2651 2914 
Q 2772 3150 2772 3378 
Q 2772 3750 2511 3984 
Q 2250 4219 1831 4219 
Q 1534 4219 1204 4116 
Q 875 4013 500 3803 
L 500 4441 
Q 881 4594 1212 4672 
Q 1544 4750 1819 4750 
Q 2544 4750 2975 4387 
Q 3406 4025 3406 3419 
Q 3406 3131 3298 2873 
Q 3191 2616 2906 2266 
Q 2828 2175 2409 1742 
Q 1991 1309 1228 531 
z
" transform="scale(0.015625)"/>
      <path id="DejaVuSans-2e" d="M 684 794 
L 1344 794 
L 1344 0 
L 684 0 
L 684 794 
z
" transform="scale(0.015625)"/>
      <path id="DejaVuSans-36" d="M 2113 2584 
Q 1688 2584 1439 2293 
Q 1191 2003 1191 1497 
Q 1191 994 1439 701 
Q 1688 409 2113 409 
Q 2538 409 2786 701 
Q 3034 994 3034 1497 
Q 3034 2003 2786 2293 
Q 2538 2584 2113 2584 
z
M 3366 4563 
L 3366 3988 
Q 3128 4100 2886 4159 
Q 2644 4219 2406 4219 
Q 1781 4219 1451 3797 
Q 1122 3375 1075 2522 
Q 1259 2794 1537 2939 
Q 1816 3084 2150 3084 
Q 2853 3084 3261 2657 
Q 3669 2231 3669 1497 
Q 3669 778 3244 343 
Q 2819 -91 2113 -91 
Q 1303 -91 875 529 
Q 447 1150 447 2328 
Q 447 3434 972 4092 
Q 1497 4750 2381 4750 
Q 2619 4750 2861 4703 
Q 3103 4656 3366 4563 
z
" transform="scale(0.015625)"/>
      <path id="DejaVuSans-38" d="M 2034 2216 
Q 1584 2216 1326 1975 
Q 1069 1734 1069 1313 
Q 1069 891 1326 650 
Q 1584 409 2034 409 
Q 2484 409 2743 651 
Q 3003 894 3003 1313 
Q 3003 1734 2745 1975 
Q 2488 2216 2034 2216 
z
M 1403 2484 
Q 997 2584 770 2862 
Q 544 3141 544 3541 
Q 544 4100 942 4425 
Q 1341 4750 2034 4750 
Q 2731 4750 3128 4425 
Q 3525 4100 3525 3541 
Q 3525 3141 3298 2862 
Q 3072 2584 2669 2484 
Q 3125 2378 3379 2068 
Q 3634 1759 3634 1313 
Q 3634 634 3220 271 
Q 2806 -91 2034 -91 
Q 1263 -91 848 271 
Q 434 634 434 1313 
Q 434 1759 690 2068 
Q 947 2378 1403 2484 
z
M 1172 3481 
Q 1172 3119 1398 2916 
Q 1625 2713 2034 2713 
Q 2441 2713 2670 2916 
Q 2900 3119 2900 3481 
Q 2900 3844 2670 4047 
Q 2441 4250 2034 4250 
Q 1625 4250 1398 4047 
Q 1172 3844 1172 3481 
z
" transform="scale(0.015625)"/>
     </defs>
     <use xlink:href="#DejaVuSans-76"/>
     <use xlink:href="#DejaVuSans-32" x="59.179688"/>
     <use xlink:href="#DejaVuSans-2e" x="122.802734"/>
     <use xlink:href="#DejaVuSans-36" x="154.589844"/>
     <use xlink:href="#DejaVuSans-2e" x="218.212891"/>
     <use xlink:href="#DejaVuSans-31" x="250"/>
     <use xlink:href="#DejaVuSans-2e" x="313.623047"/>
     <use xlink:href="#DejaVuSans-31" x="345.410156"/>
     <use xlink:href="#DejaVuSans-35" x="409.033203"/>
     <use xlink:href="#DejaVuSans-38" x="472.65625"/>
    </g>
   </g>
   <g id="legend_1">
    <g id="patch_7">
     <path d="M 48.16 136.425 
L 177.381875 136.425 
Q 181.381875 136.425 181.381875 132.425 
L 181.381875 17 
Q 181.381875 13 177.381875 13 
L 48.16 13 
Q 44.16 13 44.16 17 
L 44.16 132.425 
Q 44.16 136.425 48.16 136.425 
z
" style="fill: #ffffff; opacity: 0.2; stroke: #cccccc; stroke-linejoin: miter"/>
    </g>
    <g id="line2d_59">
     <path d="M 52.16 29.196875 
L 72.16 29.196875 
L 92.16 29.196875 
" style="fill: none; stroke: #000000; stroke-width: 3; stroke-linecap: square"/>
    </g>
    <g id="text_7">
     <!-- 1: 5/5 -->
     <g transform="translate(108.16 36.196875)scale(0.2 -0.2)">
      <defs>
       <path id="DejaVuSans-3a" d="M 750 794 
L 1409 794 
L 1409 0 
L 750 0 
L 750 794 
z
M 750 3309 
L 1409 3309 
L 1409 2516 
L 750 2516 
L 750 3309 
z
" transform="scale(0.015625)"/>
       <path id="DejaVuSans-2f" d="M 1625 4666 
L 2156 4666 
L 531 -594 
L 0 -594 
L 1625 4666 
z
" transform="scale(0.015625)"/>
      </defs>
      <use xlink:href="#DejaVuSans-31"/>
      <use xlink:href="#DejaVuSans-3a" x="63.623047"/>
      <use xlink:href="#DejaVuSans-20" x="97.314453"/>
      <use xlink:href="#DejaVuSans-35" x="129.101562"/>
      <use xlink:href="#DejaVuSans-2f" x="192.724609"/>
      <use xlink:href="#DejaVuSans-35" x="226.416016"/>
     </g>
    </g>
    <g id="line2d_60">
     <path d="M 52.16 58.553125 
L 72.16 58.553125 
L 92.16 58.553125 
" style="fill: none; stroke: #00bfbf; stroke-width: 3; stroke-linecap: square"/>
    </g>
    <g id="text_8">
     <!-- -1: 5/5 -->
     <g transform="translate(108.16 65.553125)scale(0.2 -0.2)">
      <use xlink:href="#DejaVuSans-2d"/>
      <use xlink:href="#DejaVuSans-31" x="36.083984"/>
      <use xlink:href="#DejaVuSans-3a" x="99.707031"/>
      <use xlink:href="#DejaVuSans-20" x="133.398438"/>
      <use xlink:href="#DejaVuSans-35" x="165.185547"/>
      <use xlink:href="#DejaVuSans-2f" x="228.808594"/>
      <use xlink:href="#DejaVuSans-35" x="262.5"/>
     </g>
    </g>
    <g id="line2d_61">
     <path d="M 52.16 87.909375 
L 72.16 87.909375 
L 92.16 87.909375 
" style="fill: none; stroke: #bf00bf; stroke-width: 3; stroke-linecap: square"/>
    </g>
    <g id="text_9">
     <!-- -4: 5/5 -->
     <g transform="translate(108.16 94.909375)scale(0.2 -0.2)">
      <defs>
       <path id="DejaVuSans-34" d="M 2419 4116 
L 825 1625 
L 2419 1625 
L 2419 4116 
z
M 2253 4666 
L 3047 4666 
L 3047 1625 
L 3713 1625 
L 3713 1100 
L 3047 1100 
L 3047 0 
L 2419 0 
L 2419 1100 
L 313 1100 
L 313 1709 
L 2253 4666 
z
" transform="scale(0.015625)"/>
      </defs>
      <use xlink:href="#DejaVuSans-2d"/>
      <use xlink:href="#DejaVuSans-34" x="36.083984"/>
      <use xlink:href="#DejaVuSans-3a" x="99.707031"/>
      <use xlink:href="#DejaVuSans-20" x="133.398438"/>
      <use xlink:href="#DejaVuSans-35" x="165.185547"/>
      <use xlink:href="#DejaVuSans-2f" x="228.808594"/>
      <use xlink:href="#DejaVuSans-35" x="262.5"/>
     </g>
    </g>
    <g id="line2d_62">
     <path d="M 52.16 117.265625 
L 72.16 117.265625 
L 92.16 117.265625 
" style="fill: none; stroke: #ff0000; stroke-width: 3; stroke-linecap: square"/>
    </g>
    <g id="text_10">
     <!-- -8: 5/5 -->
     <g transform="translate(108.16 124.265625)scale(0.2 -0.2)">
      <use xlink:href="#DejaVuSans-2d"/>
      <use xlink:href="#DejaVuSans-38" x="36.083984"/>
      <use xlink:href="#DejaVuSans-3a" x="99.707031"/>
      <use xlink:href="#DejaVuSans-20" x="133.398438"/>
      <use xlink:href="#DejaVuSans-35" x="165.185547"/>
      <use xlink:href="#DejaVuSans-2f" x="228.808594"/>
      <use xlink:href="#DejaVuSans-35" x="262.5"/>
     </g>
    </g>
   </g>
  </g>
 </g>
 <defs>
  <clipPath id="p9921cde504">
   <rect x="34.16" y="3" width="419.032" height="288.28"/>
  </clipPath>
 </defs>
</svg>
