<?xml version="1.0" encoding="utf-8" standalone="no"?>
<!DOCTYPE svg PUBLIC "-//W3C//DTD SVG 1.1//EN"
  "http://www.w3.org/Graphics/SVG/1.1/DTD/svg11.dtd">
<svg xmlns:xlink="http://www.w3.org/1999/xlink" width="460.8pt" height="345.6pt" viewBox="0 0 460.8 345.6" xmlns="http://www.w3.org/2000/svg" version="1.1">
 <metadata>
  <rdf:RDF xmlns:dc="http://purl.org/dc/elements/1.1/" xmlns:cc="http://creativecommons.org/ns#" xmlns:rdf="http://www.w3.org/1999/02/22-rdf-syntax-ns#">
   <cc:Work>
    <dc:type rdf:resource="http://purl.org/dc/dcmitype/StillImage"/>
    <dc:date>2023-04-03T10:15:57.930087</dc:date>
    <dc:format>image/svg+xml</dc:format>
    <dc:creator>
     <cc:Agent>
      <dc:title>Matplotlib v3.5.2, https://matplotlib.org/</dc:title>
     </cc:Agent>
    </dc:creator>
   </cc:Work>
  </rdf:RDF>
 </metadata>
 <defs>
  <style type="text/css">*{stroke-linejoin: round; stroke-linecap: butt}</style>
 </defs>
 <g id="figure_1">
  <g id="patch_1">
   <path d="M 0 345.6 
L 460.8 345.6 
L 460.8 0 
L 0 0 
z
" style="fill: #ffffff"/>
  </g>
  <g id="axes_1">
   <g id="patch_2">
    <path d="M 34.16 291.28 
L 447.387167 291.28 
L 447.387167 3 
L 34.16 3 
z
" style="fill: #ffffff"/>
   </g>
   <g id="matplotlib.axis_1">
    <g id="xtick_1">
     <g id="line2d_1">
      <path d="M 34.785033 291.28 
L 34.785033 3 
" clip-path="url(#p9fb3dac8d8)" style="fill: none; stroke: #b0b0b0; stroke-width: 0.8; stroke-linecap: square"/>
     </g>
     <g id="line2d_2">
      <defs>
       <path id="m1f880f46f4" d="M 0 0 
L 0 3.5 
" style="stroke: #000000; stroke-width: 0.8"/>
      </defs>
      <g>
       <use xlink:href="#m1f880f46f4" x="34.785033" y="291.28" style="stroke: #000000; stroke-width: 0.8"/>
      </g>
     </g>
     <g id="text_1">
      <!-- -1 -->
      <g transform="translate(24.81472 313.476875)scale(0.2 -0.2)">
       <defs>
        <path id="DejaVuSans-2d" d="M 313 2009 
L 1997 2009 
L 1997 1497 
L 313 1497 
L 313 2009 
z
" transform="scale(0.015625)"/>
        <path id="DejaVuSans-31" d="M 794 531 
L 1825 531 
L 1825 4091 
L 703 3866 
L 703 4441 
L 1819 4666 
L 2450 4666 
L 2450 531 
L 3481 531 
L 3481 0 
L 794 0 
L 794 531 
z
" transform="scale(0.015625)"/>
       </defs>
       <use xlink:href="#DejaVuSans-2d"/>
       <use xlink:href="#DejaVuSans-31" x="36.083984"/>
      </g>
     </g>
    </g>
    <g id="xtick_2">
     <g id="line2d_3">
      <path d="M 240.773583 291.28 
L 240.773583 3 
" clip-path="url(#p9fb3dac8d8)" style="fill: none; stroke: #b0b0b0; stroke-width: 0.8; stroke-linecap: square"/>
     </g>
     <g id="line2d_4">
      <g>
       <use xlink:href="#m1f880f46f4" x="240.773583" y="291.28" style="stroke: #000000; stroke-width: 0.8"/>
      </g>
     </g>
     <g id="text_2">
      <!-- 0 -->
      <g transform="translate(234.411083 313.476875)scale(0.2 -0.2)">
       <defs>
        <path id="DejaVuSans-30" d="M 2034 4250 
Q 1547 4250 1301 3770 
Q 1056 3291 1056 2328 
Q 1056 1369 1301 889 
Q 1547 409 2034 409 
Q 2525 409 2770 889 
Q 3016 1369 3016 2328 
Q 3016 3291 2770 3770 
Q 2525 4250 2034 4250 
z
M 2034 4750 
Q 2819 4750 3233 4129 
Q 3647 3509 3647 2328 
Q 3647 1150 3233 529 
Q 2819 -91 2034 -91 
Q 1250 -91 836 529 
Q 422 1150 422 2328 
Q 422 3509 836 4129 
Q 1250 4750 2034 4750 
z
" transform="scale(0.015625)"/>
       </defs>
       <use xlink:href="#DejaVuSans-30"/>
      </g>
     </g>
    </g>
    <g id="xtick_3">
     <g id="line2d_5">
      <path d="M 446.762134 291.28 
L 446.762134 3 
" clip-path="url(#p9fb3dac8d8)" style="fill: none; stroke: #b0b0b0; stroke-width: 0.8; stroke-linecap: square"/>
     </g>
     <g id="line2d_6">
      <g>
       <use xlink:href="#m1f880f46f4" x="446.762134" y="291.28" style="stroke: #000000; stroke-width: 0.8"/>
      </g>
     </g>
     <g id="text_3">
      <!-- 1 -->
      <g transform="translate(440.399634 313.476875)scale(0.2 -0.2)">
       <use xlink:href="#DejaVuSans-31"/>
      </g>
     </g>
    </g>
    <g id="xtick_4">
     <g id="line2d_7">
      <defs>
       <path id="m7b1daa13cb" d="M 0 0 
L 0 2 
" style="stroke: #000000; stroke-width: 0.6"/>
      </defs>
      <g>
       <use xlink:href="#m7b1daa13cb" x="96.793765" y="291.28" style="stroke: #000000; stroke-width: 0.6"/>
      </g>
     </g>
    </g>
    <g id="xtick_5">
     <g id="line2d_8">
      <g>
       <use xlink:href="#m7b1daa13cb" x="133.066548" y="291.28" style="stroke: #000000; stroke-width: 0.6"/>
      </g>
     </g>
    </g>
    <g id="xtick_6">
     <g id="line2d_9">
      <g>
       <use xlink:href="#m7b1daa13cb" x="158.802498" y="291.28" style="stroke: #000000; stroke-width: 0.6"/>
      </g>
     </g>
    </g>
    <g id="xtick_7">
     <g id="line2d_10">
      <g>
       <use xlink:href="#m7b1daa13cb" x="178.764851" y="291.28" style="stroke: #000000; stroke-width: 0.6"/>
      </g>
     </g>
    </g>
    <g id="xtick_8">
     <g id="line2d_11">
      <g>
       <use xlink:href="#m7b1daa13cb" x="195.075281" y="291.28" style="stroke: #000000; stroke-width: 0.6"/>
      </g>
     </g>
    </g>
    <g id="xtick_9">
     <g id="line2d_12">
      <g>
       <use xlink:href="#m7b1daa13cb" x="208.865553" y="291.28" style="stroke: #000000; stroke-width: 0.6"/>
      </g>
     </g>
    </g>
    <g id="xtick_10">
     <g id="line2d_13">
      <g>
       <use xlink:href="#m7b1daa13cb" x="220.81123" y="291.28" style="stroke: #000000; stroke-width: 0.6"/>
      </g>
     </g>
    </g>
    <g id="xtick_11">
     <g id="line2d_14">
      <g>
       <use xlink:href="#m7b1daa13cb" x="231.348064" y="291.28" style="stroke: #000000; stroke-width: 0.6"/>
      </g>
     </g>
    </g>
    <g id="xtick_12">
     <g id="line2d_15">
      <g>
       <use xlink:href="#m7b1daa13cb" x="302.782316" y="291.28" style="stroke: #000000; stroke-width: 0.6"/>
      </g>
     </g>
    </g>
    <g id="xtick_13">
     <g id="line2d_16">
      <g>
       <use xlink:href="#m7b1daa13cb" x="339.055099" y="291.28" style="stroke: #000000; stroke-width: 0.6"/>
      </g>
     </g>
    </g>
    <g id="xtick_14">
     <g id="line2d_17">
      <g>
       <use xlink:href="#m7b1daa13cb" x="364.791049" y="291.28" style="stroke: #000000; stroke-width: 0.6"/>
      </g>
     </g>
    </g>
    <g id="xtick_15">
     <g id="line2d_18">
      <g>
       <use xlink:href="#m7b1daa13cb" x="384.753402" y="291.28" style="stroke: #000000; stroke-width: 0.6"/>
      </g>
     </g>
    </g>
    <g id="xtick_16">
     <g id="line2d_19">
      <g>
       <use xlink:href="#m7b1daa13cb" x="401.063832" y="291.28" style="stroke: #000000; stroke-width: 0.6"/>
      </g>
     </g>
    </g>
    <g id="xtick_17">
     <g id="line2d_20">
      <g>
       <use xlink:href="#m7b1daa13cb" x="414.854104" y="291.28" style="stroke: #000000; stroke-width: 0.6"/>
      </g>
     </g>
    </g>
    <g id="xtick_18">
     <g id="line2d_21">
      <g>
       <use xlink:href="#m7b1daa13cb" x="426.799781" y="291.28" style="stroke: #000000; stroke-width: 0.6"/>
      </g>
     </g>
    </g>
    <g id="xtick_19">
     <g id="line2d_22">
      <g>
       <use xlink:href="#m7b1daa13cb" x="437.336615" y="291.28" style="stroke: #000000; stroke-width: 0.6"/>
      </g>
     </g>
    </g>
    <g id="text_4">
     <!-- log10 of FEvals ratio -->
     <g transform="translate(138.468896 336.833125)scale(0.2 -0.2)">
      <defs>
       <path id="DejaVuSans-6c" d="M 603 4863 
L 1178 4863 
L 1178 0 
L 603 0 
L 603 4863 
z
" transform="scale(0.015625)"/>
       <path id="DejaVuSans-6f" d="M 1959 3097 
Q 1497 3097 1228 2736 
Q 959 2375 959 1747 
Q 959 1119 1226 758 
Q 1494 397 1959 397 
Q 2419 397 2687 759 
Q 2956 1122 2956 1747 
Q 2956 2369 2687 2733 
Q 2419 3097 1959 3097 
z
M 1959 3584 
Q 2709 3584 3137 3096 
Q 3566 2609 3566 1747 
Q 3566 888 3137 398 
Q 2709 -91 1959 -91 
Q 1206 -91 779 398 
Q 353 888 353 1747 
Q 353 2609 779 3096 
Q 1206 3584 1959 3584 
z
" transform="scale(0.015625)"/>
       <path id="DejaVuSans-67" d="M 2906 1791 
Q 2906 2416 2648 2759 
Q 2391 3103 1925 3103 
Q 1463 3103 1205 2759 
Q 947 2416 947 1791 
Q 947 1169 1205 825 
Q 1463 481 1925 481 
Q 2391 481 2648 825 
Q 2906 1169 2906 1791 
z
M 3481 434 
Q 3481 -459 3084 -895 
Q 2688 -1331 1869 -1331 
Q 1566 -1331 1297 -1286 
Q 1028 -1241 775 -1147 
L 775 -588 
Q 1028 -725 1275 -790 
Q 1522 -856 1778 -856 
Q 2344 -856 2625 -561 
Q 2906 -266 2906 331 
L 2906 616 
Q 2728 306 2450 153 
Q 2172 0 1784 0 
Q 1141 0 747 490 
Q 353 981 353 1791 
Q 353 2603 747 3093 
Q 1141 3584 1784 3584 
Q 2172 3584 2450 3431 
Q 2728 3278 2906 2969 
L 2906 3500 
L 3481 3500 
L 3481 434 
z
" transform="scale(0.015625)"/>
       <path id="DejaVuSans-20" transform="scale(0.015625)"/>
       <path id="DejaVuSans-66" d="M 2375 4863 
L 2375 4384 
L 1825 4384 
Q 1516 4384 1395 4259 
Q 1275 4134 1275 3809 
L 1275 3500 
L 2222 3500 
L 2222 3053 
L 1275 3053 
L 1275 0 
L 697 0 
L 697 3053 
L 147 3053 
L 147 3500 
L 697 3500 
L 697 3744 
Q 697 4328 969 4595 
Q 1241 4863 1831 4863 
L 2375 4863 
z
" transform="scale(0.015625)"/>
       <path id="DejaVuSans-46" d="M 628 4666 
L 3309 4666 
L 3309 4134 
L 1259 4134 
L 1259 2759 
L 3109 2759 
L 3109 2228 
L 1259 2228 
L 1259 0 
L 628 0 
L 628 4666 
z
" transform="scale(0.015625)"/>
       <path id="DejaVuSans-45" d="M 628 4666 
L 3578 4666 
L 3578 4134 
L 1259 4134 
L 1259 2753 
L 3481 2753 
L 3481 2222 
L 1259 2222 
L 1259 531 
L 3634 531 
L 3634 0 
L 628 0 
L 628 4666 
z
" transform="scale(0.015625)"/>
       <path id="DejaVuSans-76" d="M 191 3500 
L 800 3500 
L 1894 563 
L 2988 3500 
L 3597 3500 
L 2284 0 
L 1503 0 
L 191 3500 
z
" transform="scale(0.015625)"/>
       <path id="DejaVuSans-61" d="M 2194 1759 
Q 1497 1759 1228 1600 
Q 959 1441 959 1056 
Q 959 750 1161 570 
Q 1363 391 1709 391 
Q 2188 391 2477 730 
Q 2766 1069 2766 1631 
L 2766 1759 
L 2194 1759 
z
M 3341 1997 
L 3341 0 
L 2766 0 
L 2766 531 
Q 2569 213 2275 61 
Q 1981 -91 1556 -91 
Q 1019 -91 701 211 
Q 384 513 384 1019 
Q 384 1609 779 1909 
Q 1175 2209 1959 2209 
L 2766 2209 
L 2766 2266 
Q 2766 2663 2505 2880 
Q 2244 3097 1772 3097 
Q 1472 3097 1187 3025 
Q 903 2953 641 2809 
L 641 3341 
Q 956 3463 1253 3523 
Q 1550 3584 1831 3584 
Q 2591 3584 2966 3190 
Q 3341 2797 3341 1997 
z
" transform="scale(0.015625)"/>
       <path id="DejaVuSans-73" d="M 2834 3397 
L 2834 2853 
Q 2591 2978 2328 3040 
Q 2066 3103 1784 3103 
Q 1356 3103 1142 2972 
Q 928 2841 928 2578 
Q 928 2378 1081 2264 
Q 1234 2150 1697 2047 
L 1894 2003 
Q 2506 1872 2764 1633 
Q 3022 1394 3022 966 
Q 3022 478 2636 193 
Q 2250 -91 1575 -91 
Q 1294 -91 989 -36 
Q 684 19 347 128 
L 347 722 
Q 666 556 975 473 
Q 1284 391 1588 391 
Q 1994 391 2212 530 
Q 2431 669 2431 922 
Q 2431 1156 2273 1281 
Q 2116 1406 1581 1522 
L 1381 1569 
Q 847 1681 609 1914 
Q 372 2147 372 2553 
Q 372 3047 722 3315 
Q 1072 3584 1716 3584 
Q 2034 3584 2315 3537 
Q 2597 3491 2834 3397 
z
" transform="scale(0.015625)"/>
       <path id="DejaVuSans-72" d="M 2631 2963 
Q 2534 3019 2420 3045 
Q 2306 3072 2169 3072 
Q 1681 3072 1420 2755 
Q 1159 2438 1159 1844 
L 1159 0 
L 581 0 
L 581 3500 
L 1159 3500 
L 1159 2956 
Q 1341 3275 1631 3429 
Q 1922 3584 2338 3584 
Q 2397 3584 2469 3576 
Q 2541 3569 2628 3553 
L 2631 2963 
z
" transform="scale(0.015625)"/>
       <path id="DejaVuSans-74" d="M 1172 4494 
L 1172 3500 
L 2356 3500 
L 2356 3053 
L 1172 3053 
L 1172 1153 
Q 1172 725 1289 603 
Q 1406 481 1766 481 
L 2356 481 
L 2356 0 
L 1766 0 
Q 1100 0 847 248 
Q 594 497 594 1153 
L 594 3053 
L 172 3053 
L 172 3500 
L 594 3500 
L 594 4494 
L 1172 4494 
z
" transform="scale(0.015625)"/>
       <path id="DejaVuSans-69" d="M 603 3500 
L 1178 3500 
L 1178 0 
L 603 0 
L 603 3500 
z
M 603 4863 
L 1178 4863 
L 1178 4134 
L 603 4134 
L 603 4863 
z
" transform="scale(0.015625)"/>
      </defs>
      <use xlink:href="#DejaVuSans-6c"/>
      <use xlink:href="#DejaVuSans-6f" x="27.783203"/>
      <use xlink:href="#DejaVuSans-67" x="88.964844"/>
      <use xlink:href="#DejaVuSans-31" x="152.441406"/>
      <use xlink:href="#DejaVuSans-30" x="216.064453"/>
      <use xlink:href="#DejaVuSans-20" x="279.6875"/>
      <use xlink:href="#DejaVuSans-6f" x="311.474609"/>
      <use xlink:href="#DejaVuSans-66" x="372.65625"/>
      <use xlink:href="#DejaVuSans-20" x="407.861328"/>
      <use xlink:href="#DejaVuSans-46" x="439.648438"/>
      <use xlink:href="#DejaVuSans-45" x="497.167969"/>
      <use xlink:href="#DejaVuSans-76" x="560.351562"/>
      <use xlink:href="#DejaVuSans-61" x="619.53125"/>
      <use xlink:href="#DejaVuSans-6c" x="680.810547"/>
      <use xlink:href="#DejaVuSans-73" x="708.59375"/>
      <use xlink:href="#DejaVuSans-20" x="760.693359"/>
      <use xlink:href="#DejaVuSans-72" x="792.480469"/>
      <use xlink:href="#DejaVuSans-61" x="833.59375"/>
      <use xlink:href="#DejaVuSans-74" x="894.873047"/>
      <use xlink:href="#DejaVuSans-69" x="934.082031"/>
      <use xlink:href="#DejaVuSans-6f" x="961.865234"/>
     </g>
    </g>
   </g>
   <g id="matplotlib.axis_2">
    <g id="ytick_1">
     <g id="line2d_23">
      <path d="M 34.16 288.453725 
L 447.387167 288.453725 
" clip-path="url(#p9fb3dac8d8)" style="fill: none; stroke: #b0b0b0; stroke-width: 0.8; stroke-linecap: square"/>
     </g>
     <g id="line2d_24">
      <defs>
       <path id="mb5550a4d12" d="M 0 0 
L -3.5 0 
" style="stroke: #000000; stroke-width: 0.8"/>
      </defs>
      <g>
       <use xlink:href="#mb5550a4d12" x="34.16" y="288.453725" style="stroke: #000000; stroke-width: 0.8"/>
      </g>
     </g>
    </g>
    <g id="ytick_2">
     <g id="line2d_25">
      <path d="M 34.16 217.796863 
L 447.387167 217.796863 
" clip-path="url(#p9fb3dac8d8)" style="fill: none; stroke: #b0b0b0; stroke-width: 0.8; stroke-linecap: square"/>
     </g>
     <g id="line2d_26">
      <g>
       <use xlink:href="#mb5550a4d12" x="34.16" y="217.796863" style="stroke: #000000; stroke-width: 0.8"/>
      </g>
     </g>
    </g>
    <g id="ytick_3">
     <g id="line2d_27">
      <path d="M 34.16 147.14 
L 447.387167 147.14 
" clip-path="url(#p9fb3dac8d8)" style="fill: none; stroke: #b0b0b0; stroke-width: 0.8; stroke-linecap: square"/>
     </g>
     <g id="line2d_28">
      <g>
       <use xlink:href="#mb5550a4d12" x="34.16" y="147.14" style="stroke: #000000; stroke-width: 0.8"/>
      </g>
     </g>
    </g>
    <g id="ytick_4">
     <g id="line2d_29">
      <path d="M 34.16 76.483137 
L 447.387167 76.483137 
" clip-path="url(#p9fb3dac8d8)" style="fill: none; stroke: #b0b0b0; stroke-width: 0.8; stroke-linecap: square"/>
     </g>
     <g id="line2d_30">
      <g>
       <use xlink:href="#mb5550a4d12" x="34.16" y="76.483137" style="stroke: #000000; stroke-width: 0.8"/>
      </g>
     </g>
    </g>
    <g id="ytick_5">
     <g id="line2d_31">
      <path d="M 34.16 5.826275 
L 447.387167 5.826275 
" clip-path="url(#p9fb3dac8d8)" style="fill: none; stroke: #b0b0b0; stroke-width: 0.8; stroke-linecap: square"/>
     </g>
     <g id="line2d_32">
      <g>
       <use xlink:href="#mb5550a4d12" x="34.16" y="5.826275" style="stroke: #000000; stroke-width: 0.8"/>
      </g>
     </g>
    </g>
    <g id="text_5">
     <!-- proportion of trials -->
     <g transform="translate(19.000625 240.14625)rotate(-90)scale(0.2 -0.2)">
      <defs>
       <path id="DejaVuSans-70" d="M 1159 525 
L 1159 -1331 
L 581 -1331 
L 581 3500 
L 1159 3500 
L 1159 2969 
Q 1341 3281 1617 3432 
Q 1894 3584 2278 3584 
Q 2916 3584 3314 3078 
Q 3713 2572 3713 1747 
Q 3713 922 3314 415 
Q 2916 -91 2278 -91 
Q 1894 -91 1617 61 
Q 1341 213 1159 525 
z
M 3116 1747 
Q 3116 2381 2855 2742 
Q 2594 3103 2138 3103 
Q 1681 3103 1420 2742 
Q 1159 2381 1159 1747 
Q 1159 1113 1420 752 
Q 1681 391 2138 391 
Q 2594 391 2855 752 
Q 3116 1113 3116 1747 
z
" transform="scale(0.015625)"/>
       <path id="DejaVuSans-6e" d="M 3513 2113 
L 3513 0 
L 2938 0 
L 2938 2094 
Q 2938 2591 2744 2837 
Q 2550 3084 2163 3084 
Q 1697 3084 1428 2787 
Q 1159 2491 1159 1978 
L 1159 0 
L 581 0 
L 581 3500 
L 1159 3500 
L 1159 2956 
Q 1366 3272 1645 3428 
Q 1925 3584 2291 3584 
Q 2894 3584 3203 3211 
Q 3513 2838 3513 2113 
z
" transform="scale(0.015625)"/>
      </defs>
      <use xlink:href="#DejaVuSans-70"/>
      <use xlink:href="#DejaVuSans-72" x="63.476562"/>
      <use xlink:href="#DejaVuSans-6f" x="102.339844"/>
      <use xlink:href="#DejaVuSans-70" x="163.521484"/>
      <use xlink:href="#DejaVuSans-6f" x="226.998047"/>
      <use xlink:href="#DejaVuSans-72" x="288.179688"/>
      <use xlink:href="#DejaVuSans-74" x="329.292969"/>
      <use xlink:href="#DejaVuSans-69" x="368.501953"/>
      <use xlink:href="#DejaVuSans-6f" x="396.285156"/>
      <use xlink:href="#DejaVuSans-6e" x="457.466797"/>
      <use xlink:href="#DejaVuSans-20" x="520.845703"/>
      <use xlink:href="#DejaVuSans-6f" x="552.632812"/>
      <use xlink:href="#DejaVuSans-66" x="613.814453"/>
      <use xlink:href="#DejaVuSans-20" x="649.019531"/>
      <use xlink:href="#DejaVuSans-74" x="680.806641"/>
      <use xlink:href="#DejaVuSans-72" x="720.015625"/>
      <use xlink:href="#DejaVuSans-69" x="761.128906"/>
      <use xlink:href="#DejaVuSans-61" x="788.912109"/>
      <use xlink:href="#DejaVuSans-6c" x="850.191406"/>
      <use xlink:href="#DejaVuSans-73" x="877.974609"/>
     </g>
    </g>
   </g>
   <g id="line2d_33">
    <path d="M 34.16 288.453725 
L 153.246301 288.453725 
L 153.246301 287.511634 
L 153.460033 287.511634 
L 153.460033 286.569542 
L 154.267507 286.569542 
L 154.267507 285.627451 
L 154.67041 285.627451 
L 154.67041 284.685359 
L 155.561468 284.685359 
L 155.561468 283.743268 
L 156.911829 283.743268 
L 156.911829 282.801176 
L 165.989255 282.801176 
L 165.989255 281.859085 
L 167.545115 281.859085 
L 167.545115 280.916993 
L 168.131564 280.916993 
L 168.131564 279.974902 
L 168.391116 279.974902 
L 168.391116 278.090719 
L 169.074378 278.090719 
L 169.074378 277.148627 
L 169.195158 277.148627 
L 169.195158 276.206536 
L 170.577938 276.206536 
L 170.577938 275.264444 
L 170.706283 275.264444 
L 170.706283 273.380261 
L 172.477039 273.380261 
L 172.477039 272.43817 
L 172.786931 272.43817 
L 172.786931 271.496078 
L 174.013662 271.496078 
L 174.013662 270.553987 
L 174.957481 270.553987 
L 174.957481 269.611895 
L 175.569522 269.611895 
L 175.569522 268.669804 
L 177.449243 268.669804 
L 177.513646 266.785621 
L 178.141436 266.785621 
L 178.141436 265.843529 
L 178.764851 265.843529 
L 178.764851 264.901438 
L 179.764411 264.901438 
L 179.764411 263.959346 
L 180.449641 263.959346 
L 180.449641 263.017255 
L 182.273524 263.017255 
L 182.273524 262.075163 
L 183.276379 262.075163 
L 183.276379 260.19098 
L 183.726919 260.19098 
L 183.726919 259.248889 
L 183.84194 259.248889 
L 183.84194 258.306797 
L 186.157108 258.306797 
L 186.157108 257.364706 
L 187.409058 257.364706 
L 187.409058 256.422614 
L 187.621854 256.422614 
L 187.694747 253.59634 
L 189.301685 253.59634 
L 189.301685 252.654248 
L 190.339069 252.654248 
L 190.339069 251.712157 
L 190.710528 251.712157 
L 190.710528 250.770065 
L 190.943193 250.770065 
L 190.943193 248.885882 
L 191.99774 248.885882 
L 191.99774 247.943791 
L 192.334507 247.943791 
L 192.334507 247.001699 
L 193.205742 247.001699 
L 193.205742 246.059608 
L 193.354849 246.059608 
L 193.354849 245.117516 
L 194.206733 245.117516 
L 194.300733 243.233333 
L 194.499976 243.233333 
L 194.499976 242.291242 
L 195.178762 242.291242 
L 195.178762 241.34915 
L 195.520909 241.34915 
L 195.520909 240.407059 
L 195.856593 240.407059 
L 195.856593 239.464967 
L 196.679982 239.464967 
L 196.679982 238.522876 
L 196.856898 238.522876 
L 196.856898 237.580784 
L 197.484688 237.580784 
L 197.484688 236.638693 
L 197.975725 236.638693 
L 198.008648 234.75451 
L 198.412758 234.75451 
L 198.412758 233.812418 
L 198.727204 233.812418 
L 198.727204 232.870327 
L 199.040548 232.870327 
L 199.040548 231.928235 
L 199.416495 231.928235 
L 199.416495 230.986144 
L 199.607253 230.986144 
L 199.607253 229.101961 
L 200.144551 229.101961 
L 200.20591 226.275686 
L 200.972355 226.275686 
L 200.972355 225.333595 
L 202.140249 225.333595 
L 202.140249 224.391503 
L 202.262039 224.391503 
L 202.262039 223.449412 
L 202.432276 223.449412 
L 202.501618 220.623137 
L 203.072679 220.623137 
L 203.072679 219.681046 
L 203.988136 219.681046 
L 204.005177 217.796863 
L 205.427852 217.796863 
L 205.517399 215.91268 
L 206.214171 215.91268 
L 206.214171 214.970588 
L 207.020958 214.970588 
L 207.020958 214.028497 
L 207.533623 214.028497 
L 207.533623 213.086405 
L 208.091006 213.086405 
L 208.091006 212.144314 
L 208.30817 212.144314 
L 208.30817 211.202222 
L 208.644937 211.202222 
L 208.644937 210.260131 
L 209.229952 210.260131 
L 209.229952 209.318039 
L 210.177944 209.318039 
L 210.286446 204.607582 
L 210.672881 204.607582 
L 210.672881 203.66549 
L 210.803384 203.66549 
L 210.803384 202.723399 
L 211.842306 202.723399 
L 211.842306 200.839216 
L 212.436481 200.839216 
L 212.436481 199.897124 
L 212.713875 199.897124 
L 212.713875 198.955033 
L 213.118551 198.955033 
L 213.118551 198.012941 
L 213.73163 198.012941 
L 213.73163 197.07085 
L 213.87688 197.07085 
L 213.942643 195.186667 
L 214.181554 195.186667 
L 214.181554 193.302484 
L 214.522015 193.302484 
L 214.522015 192.360392 
L 215.037634 192.360392 
L 215.037634 191.418301 
L 215.445196 191.418301 
L 215.450844 189.534118 
L 216.077875 189.534118 
L 216.077875 188.592026 
L 216.222548 188.592026 
L 216.25781 186.707843 
L 216.892661 186.707843 
L 216.892661 185.765752 
L 217.154159 185.765752 
L 217.154159 184.82366 
L 217.302557 184.82366 
L 217.302557 183.881569 
L 219.25537 183.881569 
L 219.25537 182.939477 
L 219.383109 182.939477 
L 219.383109 181.997386 
L 219.511551 181.997386 
L 219.549163 180.113203 
L 220.169939 180.113203 
L 220.169939 179.171111 
L 220.81123 179.171111 
L 220.81123 177.286928 
L 221.105023 177.286928 
L 221.105023 176.344837 
L 221.483502 176.344837 
L 221.483502 175.402745 
L 222.098442 175.402745 
L 222.098442 174.460654 
L 222.340493 174.460654 
L 222.340493 173.518562 
L 222.959594 173.518562 
L 223.039362 170.692288 
L 223.681841 170.692288 
L 223.714532 168.808105 
L 223.844053 168.808105 
L 223.844053 167.866013 
L 224.723969 167.866013 
L 224.771104 165.98183 
L 225.322759 165.98183 
L 225.322759 164.097647 
L 225.688648 164.097647 
L 225.688648 163.155556 
L 226.053046 163.155556 
L 226.053046 162.213464 
L 226.326964 162.213464 
L 226.326964 161.271373 
L 227.039136 161.271373 
L 227.039136 160.329281 
L 228.827906 160.329281 
L 228.827906 159.38719 
L 229.916679 159.38719 
L 229.916679 157.503007 
L 230.034123 157.503007 
L 230.034123 156.560915 
L 230.959952 156.560915 
L 230.959952 155.618824 
L 231.402964 155.618824 
L 231.461376 153.734641 
L 232.635276 153.734641 
L 232.635276 152.792549 
L 233.034493 152.792549 
L 233.034493 150.908366 
L 233.173381 150.908366 
L 233.173381 149.966275 
L 233.516117 149.966275 
L 233.612988 147.14 
L 233.640191 147.14 
L 233.715756 145.255817 
L 234.143907 145.255817 
L 234.143907 144.313725 
L 234.380887 144.313725 
L 234.418745 142.429542 
L 234.794096 142.429542 
L 234.794096 141.487451 
L 235.689278 141.487451 
L 235.732267 139.603268 
L 235.955359 139.603268 
L 236.050274 136.776993 
L 236.349956 136.776993 
L 236.349956 135.834902 
L 236.587571 135.834902 
L 236.587571 134.89281 
L 236.993034 134.89281 
L 236.993034 133.950719 
L 237.12166 133.950719 
L 237.12166 133.008627 
L 237.447561 133.008627 
L 237.447561 132.066536 
L 238.288432 132.066536 
L 238.288432 131.124444 
L 238.705059 131.124444 
L 238.705059 130.182353 
L 238.916222 130.182353 
L 238.916222 129.240261 
L 239.036447 129.240261 
L 239.036447 128.29817 
L 239.609233 128.29817 
L 239.609233 127.356078 
L 239.762729 127.356078 
L 239.762729 126.413987 
L 240.773583 126.413987 
L 240.773583 125.471895 
L 241.424202 125.471895 
L 241.424202 124.529804 
L 242.060795 124.529804 
L 242.060795 123.587712 
L 242.302846 123.587712 
L 242.302846 122.645621 
L 242.54512 122.645621 
L 242.54512 121.703529 
L 243.057785 121.703529 
L 243.057785 120.761438 
L 243.73937 120.761438 
L 243.73937 119.819346 
L 243.858706 119.819346 
L 243.954708 117.935163 
L 243.980367 117.935163 
L 243.980367 116.993072 
L 244.613645 116.993072 
L 244.613645 116.05098 
L 245.304156 116.05098 
L 245.304156 115.108889 
L 246.295535 115.108889 
L 246.295535 114.166797 
L 246.945664 114.166797 
L 246.945664 112.282614 
L 247.40326 112.282614 
L 247.40326 111.340523 
L 248.130578 111.340523 
L 248.232876 108.514248 
L 248.525455 108.514248 
L 248.525455 107.572157 
L 248.986658 107.572157 
L 248.986658 106.630065 
L 249.41779 106.630065 
L 249.41779 105.687974 
L 250.076471 105.687974 
L 250.137385 103.803791 
L 250.756486 103.803791 
L 250.756486 102.861699 
L 250.877198 102.861699 
L 250.911933 100.977516 
L 251.181234 100.977516 
L 251.24184 99.093333 
L 251.717979 99.093333 
L 251.717979 97.20915 
L 252.332825 97.20915 
L 252.332825 96.267059 
L 252.495331 96.267059 
L 252.495331 95.324967 
L 252.719261 95.324967 
L 252.719261 93.440784 
L 252.87093 93.440784 
L 252.873369 90.61451 
L 253.410666 90.61451 
L 253.410666 89.672418 
L 254.928254 89.672418 
L 254.928254 87.788235 
L 255.528154 87.788235 
L 255.528154 86.846144 
L 255.953549 86.846144 
L 255.953549 85.904052 
L 256.208382 85.904052 
L 256.309466 84.019869 
L 256.6783 84.019869 
L 256.6783 83.077778 
L 257.084014 83.077778 
L 257.084014 82.135686 
L 257.299839 82.135686 
L 257.299839 81.193595 
L 257.940094 81.193595 
L 257.940094 80.251503 
L 258.142721 80.251503 
L 258.142721 79.309412 
L 258.865631 79.309412 
L 258.865631 78.36732 
L 259.954624 78.36732 
L 259.954624 77.425229 
L 260.654941 77.425229 
L 260.654941 76.483137 
L 260.980697 76.483137 
L 260.980697 75.541046 
L 261.430323 75.541046 
L 261.510484 72.714771 
L 262.673767 72.714771 
L 262.673767 71.77268 
L 262.915035 71.77268 
L 262.915035 70.830588 
L 263.039747 70.830588 
L 263.039747 69.888497 
L 263.211106 69.888497 
L 263.211106 68.946405 
L 264.543307 68.946405 
L 264.543307 68.004314 
L 264.888616 68.004314 
L 264.988935 66.120131 
L 266.202638 66.120131 
L 266.202638 65.178039 
L 266.7523 65.178039 
L 266.7523 64.235948 
L 267.365613 64.235948 
L 267.365613 63.293856 
L 267.735027 63.293856 
L 267.735027 62.351765 
L 267.904397 62.351765 
L 267.904397 61.409673 
L 269.029691 61.409673 
L 269.029691 59.52549 
L 270.099738 59.52549 
L 270.099738 58.583399 
L 270.874286 58.583399 
L 270.874286 56.699216 
L 271.453315 56.699216 
L 271.453315 55.757124 
L 271.655598 55.757124 
L 271.655598 54.815033 
L 273.968826 54.815033 
L 273.968826 53.872941 
L 274.41501 53.872941 
L 274.453151 51.046667 
L 274.722608 51.046667 
L 274.722608 50.104575 
L 276.22563 50.104575 
L 276.22563 49.162484 
L 276.613147 49.162484 
L 276.613147 48.220392 
L 277.559031 48.220392 
L 277.559031 47.278301 
L 277.692288 47.278301 
L 277.692288 46.336209 
L 278.231281 46.336209 
L 278.231281 45.394118 
L 278.962065 45.394118 
L 278.962065 44.452026 
L 279.717004 44.452026 
L 279.717004 43.509935 
L 281.655612 43.509935 
L 281.655612 42.567843 
L 281.904506 42.567843 
L 281.904506 41.625752 
L 282.604657 41.625752 
L 282.604657 40.68366 
L 282.819963 40.68366 
L 282.819963 38.799477 
L 283.73438 38.799477 
L 283.73438 37.857386 
L 284.403362 37.857386 
L 284.489319 35.031111 
L 284.727491 35.031111 
L 284.727491 34.08902 
L 286.11333 34.08902 
L 286.11333 33.146928 
L 290.571834 33.146928 
L 290.571834 32.204837 
L 291.941094 32.204837 
L 291.941094 31.262745 
L 293.356797 31.262745 
L 293.356797 29.378562 
L 293.572623 29.378562 
L 293.572623 27.494379 
L 294.10992 27.494379 
L 294.10992 26.552288 
L 294.379204 26.552288 
L 294.379204 25.610196 
L 296.227408 25.610196 
L 296.227408 24.668105 
L 298.355845 24.668105 
L 298.355845 23.726013 
L 299.273643 23.726013 
L 299.273643 22.783922 
L 300.91201 22.783922 
L 300.91201 21.84183 
L 301.917964 21.84183 
L 301.917964 20.899739 
L 302.782316 20.899739 
L 302.782316 18.073464 
L 305.426637 18.073464 
L 305.426637 17.131373 
L 306.758957 17.131373 
L 306.758957 16.189281 
L 310.139311 16.189281 
L 310.139311 14.305098 
L 311.531272 14.305098 
L 311.531272 13.363007 
L 318.02136 13.363007 
L 318.02136 11.478824 
L 319.605411 11.478824 
L 319.605411 10.536732 
L 325.426745 10.536732 
L 325.426745 9.594641 
L 334.690346 9.594641 
L 334.690346 7.710458 
L 337.334668 7.710458 
L 337.334668 5.826275 
L 447.387167 5.826275 
L 447.387167 5.826275 
" clip-path="url(#p9fb3dac8d8)" style="fill: none; stroke: #000000; stroke-width: 3; stroke-linecap: square"/>
   </g>
   <g id="line2d_34">
    <path clip-path="url(#p9fb3dac8d8)" style="fill: none; stroke: #000000; stroke-width: 3; stroke-linecap: square"/>
   </g>
   <g id="line2d_35">
    <path d="M 34.16 288.453725 
L 50.142329 288.453725 
L 50.142329 287.511634 
L 60.38756 287.511634 
L 60.38756 285.627451 
L 62.368298 285.627451 
L 62.368298 284.685359 
L 66.515122 284.685359 
L 66.515122 283.743268 
L 71.072628 283.743268 
L 71.072628 282.801176 
L 73.699692 282.801176 
L 73.699692 281.859085 
L 75.690928 281.859085 
L 75.690928 280.916993 
L 85.537435 280.916993 
L 85.537435 279.974902 
L 101.215638 279.974902 
L 101.215638 279.03281 
L 107.452576 279.03281 
L 107.452576 278.090719 
L 109.999535 278.090719 
L 109.999535 277.148627 
L 111.663542 277.148627 
L 111.663542 276.206536 
L 116.175038 276.206536 
L 116.175038 275.264444 
L 120.244765 275.264444 
L 120.244765 273.380261 
L 121.908772 273.380261 
L 121.908772 271.496078 
L 122.225503 271.496078 
L 122.225503 270.553987 
L 123.696164 270.553987 
L 123.696164 269.611895 
L 123.88951 269.611895 
L 123.88951 268.669804 
L 125.086241 268.669804 
L 125.086241 267.727712 
L 126.372328 267.727712 
L 126.372328 266.785621 
L 127.081213 266.785621 
L 127.081213 265.843529 
L 128.036335 265.843529 
L 128.036335 264.901438 
L 130.929834 264.901438 
L 130.929834 263.959346 
L 132.593841 263.959346 
L 132.593841 263.017255 
L 133.556898 263.017255 
L 133.556898 262.075163 
L 135.220905 262.075163 
L 135.331472 259.248889 
L 135.548134 259.248889 
L 135.548134 258.306797 
L 137.212141 258.306797 
L 137.31221 256.422614 
L 141.459034 256.422614 
L 141.459034 255.480523 
L 145.39464 255.480523 
L 145.39464 254.538431 
L 146.01654 254.538431 
L 146.01654 253.59634 
L 147.058647 253.59634 
L 147.058647 252.654248 
L 148.643604 252.654248 
L 148.643604 251.712157 
L 150.63484 251.712157 
L 150.63484 250.770065 
L 154.741101 250.770065 
L 154.741101 249.827974 
L 156.111596 249.827974 
L 156.111596 248.885882 
L 156.301384 248.885882 
L 156.301384 247.943791 
L 160.481347 247.943791 
L 160.481347 247.001699 
L 161.072844 247.001699 
L 161.072844 246.059608 
L 162.736851 246.059608 
L 162.736851 245.117516 
L 163.078721 245.117516 
L 163.078721 244.175425 
L 163.998092 244.175425 
L 163.998092 243.233333 
L 164.834057 243.233333 
L 164.834057 242.291242 
L 165.82004 242.291242 
L 165.82004 241.34915 
L 167.882253 241.34915 
L 167.882253 240.407059 
L 168.2877 240.407059 
L 168.2877 239.464967 
L 171.711387 239.464967 
L 171.711387 238.522876 
L 172.355183 238.522876 
L 172.355183 237.580784 
L 172.720553 237.580784 
L 172.720553 236.638693 
L 174.452706 236.638693 
L 174.452706 235.696601 
L 175.740232 235.696601 
L 175.740232 234.75451 
L 176.159551 234.75451 
L 176.159551 233.812418 
L 176.514919 233.812418 
L 176.514919 232.870327 
L 177.010162 232.870327 
L 177.010162 231.928235 
L 180.161695 231.928235 
L 180.241679 230.044052 
L 181.951603 230.044052 
L 181.951603 229.101961 
L 183.626729 229.101961 
L 183.626729 228.159869 
L 184.237966 228.159869 
L 184.237966 227.217778 
L 184.488061 227.217778 
L 184.531288 225.333595 
L 185.540673 225.333595 
L 185.540673 224.391503 
L 186.93015 224.391503 
L 186.93015 223.449412 
L 187.403633 223.449412 
L 187.403633 222.50732 
L 187.916337 222.50732 
L 187.916337 221.565229 
L 189.86704 221.565229 
L 189.86704 220.623137 
L 191.076417 220.623137 
L 191.076417 219.681046 
L 191.463905 219.681046 
L 191.53994 217.796863 
L 193.078977 217.796863 
L 193.078977 216.854771 
L 193.808602 216.854771 
L 193.808602 215.91268 
L 194.269105 215.91268 
L 194.269105 214.970588 
L 195.652612 214.970588 
L 195.652612 214.028497 
L 195.868134 214.028497 
L 195.883586 212.144314 
L 196.051137 212.144314 
L 196.051137 211.202222 
L 197.010425 211.202222 
L 197.010425 210.260131 
L 197.648864 210.260131 
L 197.648864 208.375948 
L 197.777143 208.375948 
L 197.777143 207.433856 
L 199.072638 207.433856 
L 199.072638 206.491765 
L 199.629602 206.491765 
L 199.629602 205.549673 
L 200.096571 205.549673 
L 200.096571 204.607582 
L 200.375693 204.607582 
L 200.377504 202.723399 
L 200.649561 202.723399 
L 200.649561 201.781307 
L 201.612796 201.781307 
L 201.612796 200.839216 
L 201.801438 200.839216 
L 201.801438 199.897124 
L 202.460215 199.897124 
L 202.531064 198.012941 
L 203.173738 198.012941 
L 203.173738 197.07085 
L 203.40012 197.07085 
L 203.40012 196.128758 
L 203.588673 196.128758 
L 203.588673 195.186667 
L 203.776426 195.186667 
L 203.776426 194.244575 
L 204.5008 194.244575 
L 204.606047 192.360392 
L 204.702059 192.360392 
L 204.702059 191.418301 
L 205.425115 191.418301 
L 205.425115 190.476209 
L 205.592654 190.476209 
L 205.592654 189.534118 
L 205.818345 189.534118 
L 205.818345 188.592026 
L 206.409809 188.592026 
L 206.505464 186.707843 
L 206.558787 186.707843 
L 206.558787 185.765752 
L 208.333932 185.765752 
L 208.333932 184.82366 
L 209.246783 184.82366 
L 209.322564 181.997386 
L 210.05219 181.997386 
L 210.134506 180.113203 
L 210.335257 180.113203 
L 210.335257 179.171111 
L 210.960996 179.171111 
L 210.979513 177.286928 
L 211.09288 177.286928 
L 211.09288 176.344837 
L 211.286617 176.344837 
L 211.308996 174.460654 
L 212.127173 174.460654 
L 212.127173 173.518562 
L 212.311134 173.518562 
L 212.311134 172.576471 
L 212.707614 172.576471 
L 212.796793 169.750196 
L 212.952232 169.750196 
L 212.952232 168.808105 
L 213.097001 168.808105 
L 213.097001 167.866013 
L 213.437239 167.866013 
L 213.437239 166.923922 
L 213.791837 166.923922 
L 213.791837 165.98183 
L 214.057781 165.98183 
L 214.137241 163.155556 
L 214.315115 163.155556 
L 214.315115 162.213464 
L 214.451011 162.213464 
L 214.451011 161.271373 
L 214.652861 161.271373 
L 214.652861 160.329281 
L 215.305879 160.329281 
L 215.305879 159.38719 
L 215.512222 159.38719 
L 215.576225 156.560915 
L 216.15859 156.560915 
L 216.15859 155.618824 
L 217.222884 155.618824 
L 217.222884 154.676732 
L 217.423367 154.676732 
L 217.423367 153.734641 
L 217.822597 153.734641 
L 217.856383 151.850458 
L 218.118203 151.850458 
L 218.118203 150.908366 
L 218.463608 150.908366 
L 218.463608 149.966275 
L 218.674198 149.966275 
L 218.674198 149.024183 
L 218.979227 149.024183 
L 218.979227 148.082092 
L 219.83226 148.082092 
L 219.83226 147.14 
L 219.975453 147.14 
L 219.975453 146.197908 
L 221.241433 146.197908 
L 221.241433 145.255817 
L 221.394032 145.255817 
L 221.394032 144.313725 
L 221.519254 144.313725 
L 221.519254 143.371634 
L 221.734324 143.371634 
L 221.836241 141.487451 
L 221.914879 141.487451 
L 221.914879 140.545359 
L 222.387429 140.545359 
L 222.387429 139.603268 
L 222.65429 139.603268 
L 222.691616 137.719085 
L 222.798739 137.719085 
L 222.798739 136.776993 
L 223.000564 136.776993 
L 223.000564 135.834902 
L 223.21731 135.834902 
L 223.21731 134.89281 
L 224.301819 134.89281 
L 224.301819 133.950719 
L 225.221291 133.950719 
L 225.221291 133.008627 
L 225.85555 133.008627 
L 225.85555 132.066536 
L 226.023949 132.066536 
L 226.06069 130.182353 
L 227.058519 130.182353 
L 227.058519 129.240261 
L 227.557386 129.240261 
L 227.557386 128.29817 
L 227.669937 128.29817 
L 227.766408 125.471895 
L 228.967528 125.471895 
L 229.04038 123.587712 
L 230.04457 123.587712 
L 230.04457 122.645621 
L 230.348504 122.645621 
L 230.348504 121.703529 
L 230.468846 121.703529 
L 230.468846 120.761438 
L 230.63734 120.761438 
L 230.63734 119.819346 
L 231.245296 119.819346 
L 231.245296 118.877255 
L 231.839946 118.877255 
L 231.883753 116.993072 
L 232.42543 116.993072 
L 232.531059 115.108889 
L 232.744908 115.108889 
L 232.744908 114.166797 
L 233.048916 114.166797 
L 233.048916 113.224706 
L 233.650599 113.224706 
L 233.650599 112.282614 
L 234.218675 112.282614 
L 234.218675 111.340523 
L 234.370936 111.340523 
L 234.370936 110.398431 
L 234.890648 110.398431 
L 234.890648 109.45634 
L 235.460507 109.45634 
L 235.460507 108.514248 
L 236.6155 108.514248 
L 236.6155 107.572157 
L 237.00873 107.572157 
L 237.071275 105.687974 
L 238.158466 105.687974 
L 238.158466 104.745882 
L 238.276872 104.745882 
L 238.276872 103.803791 
L 238.476942 103.803791 
L 238.476942 102.861699 
L 239.294877 102.861699 
L 239.294877 101.919608 
L 240.367502 101.919608 
L 240.367502 100.977516 
L 240.952324 100.977516 
L 240.952324 100.035425 
L 241.097127 100.035425 
L 241.203886 98.151242 
L 241.543516 98.151242 
L 241.543516 97.20915 
L 241.808808 97.20915 
L 241.808808 96.267059 
L 242.601427 96.267059 
L 242.601427 95.324967 
L 243.069812 95.324967 
L 243.17211 93.440784 
L 243.472815 93.440784 
L 243.55938 91.556601 
L 243.764648 91.556601 
L 243.764648 90.61451 
L 243.951751 90.61451 
L 243.951751 89.672418 
L 244.076304 89.672418 
L 244.182968 85.904052 
L 244.625672 85.904052 
L 244.625672 84.961961 
L 245.249335 84.961961 
L 245.249335 84.019869 
L 245.759179 84.019869 
L 245.759179 83.077778 
L 245.886957 83.077778 
L 245.886957 82.135686 
L 247.883935 82.135686 
L 247.883935 81.193595 
L 248.413269 81.193595 
L 248.413269 80.251503 
L 248.647009 80.251503 
L 248.647009 79.309412 
L 248.851858 79.309412 
L 248.901321 77.425229 
L 249.245088 77.425229 
L 249.245088 76.483137 
L 249.948264 76.483137 
L 249.948264 75.541046 
L 250.877198 75.541046 
L 250.933622 73.656863 
L 251.397145 73.656863 
L 251.397145 72.714771 
L 251.704094 72.714771 
L 251.707135 70.830588 
L 252.597629 70.830588 
L 252.597629 69.888497 
L 252.881179 69.888497 
L 252.881179 68.946405 
L 253.061152 68.946405 
L 253.061152 68.004314 
L 253.205247 68.004314 
L 253.205247 67.062222 
L 255.089144 67.062222 
L 255.089144 66.120131 
L 255.322735 66.120131 
L 255.322735 65.178039 
L 256.017571 65.178039 
L 256.112712 63.293856 
L 256.188109 63.293856 
L 256.188109 62.351765 
L 256.362976 62.351765 
L 256.362976 61.409673 
L 256.878595 61.409673 
L 256.895515 59.52549 
L 257.485693 59.52549 
L 257.530197 57.641307 
L 258.487755 57.641307 
L 258.487755 56.699216 
L 259.181879 56.699216 
L 259.181879 55.757124 
L 260.017381 55.757124 
L 260.085318 53.872941 
L 260.516941 53.872941 
L 260.605243 51.988758 
L 260.649627 51.988758 
L 260.649627 51.046667 
L 260.899932 51.046667 
L 260.899932 50.104575 
L 261.300079 50.104575 
L 261.300079 49.162484 
L 261.645484 49.162484 
L 261.645484 48.220392 
L 262.161103 48.220392 
L 262.201187 46.336209 
L 262.42595 46.336209 
L 262.42595 45.394118 
L 262.71772 45.394118 
L 262.71772 44.452026 
L 263.960058 44.452026 
L 263.960058 43.509935 
L 265.298368 43.509935 
L 265.298368 42.567843 
L 266.020329 42.567843 
L 266.020329 41.625752 
L 266.18244 41.625752 
L 266.18244 40.68366 
L 266.483852 40.68366 
L 266.483852 39.741569 
L 267.109021 39.741569 
L 267.109021 38.799477 
L 267.483695 38.799477 
L 267.483695 37.857386 
L 269.203404 37.857386 
L 269.242566 35.973203 
L 269.783121 35.973203 
L 269.783121 35.031111 
L 270.073922 35.031111 
L 270.073922 34.08902 
L 270.467152 34.08902 
L 270.467152 33.146928 
L 272.270304 33.146928 
L 272.270304 32.204837 
L 274.970643 32.204837 
L 275.065628 30.320654 
L 277.410172 30.320654 
L 277.410172 29.378562 
L 277.552812 29.378562 
L 277.552812 28.436471 
L 278.707757 28.436471 
L 278.707757 27.494379 
L 280.253151 27.494379 
L 280.253151 26.552288 
L 281.871691 26.552288 
L 281.871691 25.610196 
L 282.749031 25.610196 
L 282.749031 24.668105 
L 284.65914 24.668105 
L 284.65914 23.726013 
L 290.241037 23.726013 
L 290.241037 22.783922 
L 293.291806 22.783922 
L 293.291806 21.84183 
L 293.562688 21.84183 
L 293.562688 20.899739 
L 298.963499 20.899739 
L 298.963499 19.957647 
L 305.140102 19.957647 
L 305.140102 19.015556 
L 306.484625 19.015556 
L 306.484625 18.073464 
L 309.869674 18.073464 
L 309.869674 17.131373 
L 313.772768 17.131373 
L 313.772768 16.189281 
L 315.849525 16.189281 
L 315.849525 15.24719 
L 319.212907 15.24719 
L 319.212907 14.305098 
L 321.499271 14.305098 
L 321.499271 13.363007 
L 328.085883 13.363007 
L 328.085883 12.420915 
L 328.337721 12.420915 
L 328.337721 11.478824 
L 328.801244 11.478824 
L 328.801244 10.536732 
L 336.330487 10.536732 
L 336.330487 9.594641 
L 337.529562 9.594641 
L 337.529562 8.652549 
L 348.566845 8.652549 
L 348.566845 7.710458 
L 349.307947 7.710458 
L 349.307947 6.768366 
L 369.788908 6.768366 
L 369.788908 5.826275 
L 447.387167 5.826275 
L 447.387167 5.826275 
" clip-path="url(#p9fb3dac8d8)" style="fill: none; stroke: #00bfbf; stroke-width: 3; stroke-linecap: square"/>
   </g>
   <g id="line2d_36">
    <path clip-path="url(#p9fb3dac8d8)" style="fill: none; stroke: #00bfbf; stroke-width: 3; stroke-linecap: square"/>
   </g>
   <g id="line2d_37">
    <path d="M 34.16 288.453725 
L 76.960367 288.453725 
L 76.960367 287.511634 
L 77.700727 287.511634 
L 77.700727 286.569542 
L 88.128264 286.569542 
L 88.128264 285.627451 
L 93.435851 285.627451 
L 93.435851 284.685359 
L 102.074634 284.685359 
L 102.074634 283.743268 
L 106.100084 283.743268 
L 106.100084 282.801176 
L 139.806855 282.801176 
L 139.806855 281.859085 
L 140.547215 281.859085 
L 140.547215 280.916993 
L 143.739782 280.916993 
L 143.739782 279.974902 
L 144.480143 279.974902 
L 144.480143 279.03281 
L 146.399225 279.03281 
L 146.399225 278.090719 
L 150.974752 278.090719 
L 150.974752 277.148627 
L 154.780616 277.148627 
L 154.780616 276.206536 
L 154.907679 276.206536 
L 154.907679 275.264444 
L 155.520976 275.264444 
L 155.520976 274.322353 
L 156.091391 274.322353 
L 156.091391 273.380261 
L 156.28234 273.380261 
L 156.28234 272.43817 
L 157.026872 272.43817 
L 157.026872 271.496078 
L 160.215267 271.496078 
L 160.215267 270.553987 
L 161.609306 270.553987 
L 161.609306 269.611895 
L 162.858517 269.611895 
L 162.858517 268.669804 
L 164.921122 268.669804 
L 164.921122 267.727712 
L 165.948513 267.727712 
L 165.948513 266.785621 
L 166.482494 266.785621 
L 166.482494 265.843529 
L 168.263651 265.843529 
L 168.263651 264.901438 
L 168.854049 264.901438 
L 168.946573 263.017255 
L 171.256101 263.017255 
L 171.256101 262.075163 
L 171.743322 262.075163 
L 171.743322 261.133072 
L 172.8795 261.133072 
L 172.8795 260.19098 
L 173.796407 260.19098 
L 173.796407 259.248889 
L 175.134104 259.248889 
L 175.134104 258.306797 
L 178.247166 258.306797 
L 178.255108 256.422614 
L 179.894883 256.422614 
L 179.894883 255.480523 
L 181.435488 255.480523 
L 181.435488 254.538431 
L 182.370969 254.538431 
L 182.370969 253.59634 
L 183.485309 253.59634 
L 183.485309 252.654248 
L 183.920333 252.654248 
L 183.920333 251.712157 
L 184.82627 251.712157 
L 184.82627 250.770065 
L 185.761751 250.770065 
L 185.761751 249.827974 
L 186.773585 249.827974 
L 186.797016 247.943791 
L 186.991161 247.943791 
L 186.991161 247.001699 
L 187.274002 247.001699 
L 187.274002 246.059608 
L 187.537377 246.059608 
L 187.537377 245.117516 
L 187.947273 245.117516 
L 188.039891 243.233333 
L 188.882754 243.233333 
L 188.882754 242.291242 
L 189.193811 242.291242 
L 189.246226 240.407059 
L 189.430682 240.407059 
L 189.430682 239.464967 
L 190.692706 239.464967 
L 190.692706 238.522876 
L 191.096835 238.522876 
L 191.096835 237.580784 
L 191.561856 237.580784 
L 191.561856 236.638693 
L 192.147189 236.638693 
L 192.147189 235.696601 
L 193.093213 235.696601 
L 193.093213 234.75451 
L 193.928346 234.75451 
L 194.023507 232.870327 
L 194.066999 232.870327 
L 194.066999 231.928235 
L 194.29095 231.928235 
L 194.29095 230.986144 
L 194.777776 230.986144 
L 194.777776 230.044052 
L 195.352799 230.044052 
L 195.352799 229.101961 
L 195.549241 229.101961 
L 195.549241 228.159869 
L 195.848156 228.159869 
L 195.848156 227.217778 
L 196.372676 227.217778 
L 196.372676 226.275686 
L 196.922307 226.275686 
L 196.922307 225.333595 
L 197.068083 225.333595 
L 197.068083 224.391503 
L 197.964914 224.391503 
L 197.964914 223.449412 
L 198.651679 223.449412 
L 198.651679 222.50732 
L 199.122848 222.50732 
L 199.140504 220.623137 
L 199.65186 220.623137 
L 199.65186 219.681046 
L 200.058329 219.681046 
L 200.058329 218.738954 
L 200.601213 218.738954 
L 200.623947 216.854771 
L 200.937936 216.854771 
L 200.937936 215.91268 
L 201.416633 215.91268 
L 201.416633 214.970588 
L 202.202357 214.970588 
L 202.202357 214.028497 
L 202.531286 214.028497 
L 202.531286 213.086405 
L 203.272501 213.086405 
L 203.272501 212.144314 
L 203.524867 212.144314 
L 203.524867 211.202222 
L 203.972798 211.202222 
L 203.972798 210.260131 
L 205.306023 210.260131 
L 205.306023 209.318039 
L 205.65229 209.318039 
L 205.65229 208.375948 
L 206.116369 208.375948 
L 206.116369 207.433856 
L 207.35918 207.433856 
L 207.35918 206.491765 
L 207.997716 206.491765 
L 207.997716 205.549673 
L 208.486301 205.549673 
L 208.486301 204.607582 
L 208.967328 204.607582 
L 208.967328 203.66549 
L 209.150004 203.66549 
L 209.150004 202.723399 
L 209.344025 202.723399 
L 209.354041 200.839216 
L 209.4961 200.839216 
L 209.4961 199.897124 
L 209.649499 199.897124 
L 209.649499 198.955033 
L 210.279507 198.955033 
L 210.316112 197.07085 
L 211.069813 197.07085 
L 211.108798 195.186667 
L 211.251594 195.186667 
L 211.251594 194.244575 
L 211.530846 194.244575 
L 211.530846 193.302484 
L 211.894522 193.302484 
L 211.911284 191.418301 
L 212.019431 191.418301 
L 212.114833 188.592026 
L 212.830004 188.592026 
L 212.830004 187.649935 
L 213.383988 187.649935 
L 213.383988 186.707843 
L 213.507591 186.707843 
L 213.507591 185.765752 
L 213.664963 185.765752 
L 213.664963 184.82366 
L 214.600445 184.82366 
L 214.600445 183.881569 
L 214.910921 183.881569 
L 214.910921 182.939477 
L 215.647962 182.939477 
L 215.647962 181.997386 
L 215.936734 181.997386 
L 215.936734 181.055294 
L 216.357401 181.055294 
L 216.357401 180.113203 
L 216.77477 180.113203 
L 216.83073 177.286928 
L 217.040721 177.286928 
L 217.118967 173.518562 
L 217.226551 173.518562 
L 217.226551 172.576471 
L 217.472214 172.576471 
L 217.472214 171.634379 
L 217.661274 171.634379 
L 217.661274 170.692288 
L 217.986827 170.692288 
L 217.986827 169.750196 
L 218.27721 169.750196 
L 218.27721 168.808105 
L 218.402327 168.808105 
L 218.402327 167.866013 
L 218.757908 167.866013 
L 218.757908 166.923922 
L 219.14636 166.923922 
L 219.188265 165.039739 
L 219.895774 165.039739 
L 219.895774 164.097647 
L 220.123746 164.097647 
L 220.123746 163.155556 
L 220.283674 163.155556 
L 220.283674 162.213464 
L 220.442471 162.213464 
L 220.527681 160.329281 
L 220.652097 160.329281 
L 220.677717 157.503007 
L 220.772259 157.503007 
L 220.772259 156.560915 
L 221.005344 156.560915 
L 221.005344 155.618824 
L 221.213936 155.618824 
L 221.213936 154.676732 
L 222.037371 154.676732 
L 222.037371 153.734641 
L 222.362281 153.734641 
L 222.362281 152.792549 
L 223.133745 152.792549 
L 223.133745 151.850458 
L 223.767602 151.850458 
L 223.767602 150.908366 
L 223.95718 150.908366 
L 223.95718 149.966275 
L 224.40079 149.966275 
L 224.405604 148.082092 
L 224.610899 148.082092 
L 224.666702 146.197908 
L 225.705006 146.197908 
L 225.793548 144.313725 
L 226.288598 144.313725 
L 226.288598 143.371634 
L 226.602631 143.371634 
L 226.602631 142.429542 
L 226.915359 142.429542 
L 226.915359 141.487451 
L 227.049042 141.487451 
L 227.049042 140.545359 
L 227.300732 140.545359 
L 227.353439 138.661176 
L 227.735078 138.661176 
L 227.783523 136.776993 
L 228.021129 136.776993 
L 228.097142 134.89281 
L 228.199832 134.89281 
L 228.28892 133.008627 
L 228.495342 133.008627 
L 228.604228 130.182353 
L 228.813815 130.182353 
L 228.813815 129.240261 
L 229.278792 129.240261 
L 229.278792 128.29817 
L 229.404924 128.29817 
L 229.404924 126.413987 
L 229.599539 126.413987 
L 229.637933 124.529804 
L 229.758171 124.529804 
L 229.758171 123.587712 
L 229.941989 123.587712 
L 229.941989 122.645621 
L 230.135585 122.645621 
L 230.135585 121.703529 
L 230.448488 121.703529 
L 230.448488 120.761438 
L 231.059949 120.761438 
L 231.071348 118.877255 
L 231.316653 118.877255 
L 231.36998 116.993072 
L 231.630272 116.993072 
L 231.630272 116.05098 
L 231.820148 116.05098 
L 231.820148 115.108889 
L 232.450713 115.108889 
L 232.450713 114.166797 
L 232.591613 114.166797 
L 232.591613 113.224706 
L 233.415048 113.224706 
L 233.415048 112.282614 
L 233.659184 112.282614 
L 233.659184 111.340523 
L 234.632023 111.340523 
L 234.632023 110.398431 
L 234.756362 110.398431 
L 234.756362 109.45634 
L 235.540531 109.45634 
L 235.540531 108.514248 
L 235.983843 108.514248 
L 236.05356 105.687974 
L 236.551832 105.687974 
L 236.551832 104.745882 
L 236.893281 104.745882 
L 236.95266 102.861699 
L 237.980308 102.861699 
L 237.980308 101.919608 
L 238.187507 101.919608 
L 238.187507 100.977516 
L 238.990275 100.977516 
L 238.990275 100.035425 
L 239.122989 100.035425 
L 239.201316 98.151242 
L 239.657648 98.151242 
L 239.657648 97.20915 
L 240.069481 97.20915 
L 240.069481 96.267059 
L 240.3831 96.267059 
L 240.3831 95.324967 
L 240.678767 95.324967 
L 240.678767 94.382876 
L 240.871621 94.382876 
L 240.871621 93.440784 
L 241.050406 93.440784 
L 241.093654 91.556601 
L 241.292526 91.556601 
L 241.360206 89.672418 
L 242.264613 89.672418 
L 242.264613 88.730327 
L 243.057299 88.730327 
L 243.057299 87.788235 
L 243.843023 87.788235 
L 243.843023 86.846144 
L 244.661782 86.846144 
L 244.736671 84.019869 
L 244.988738 84.019869 
L 245.058455 80.251503 
L 245.613464 80.251503 
L 245.613464 79.309412 
L 246.0097 79.309412 
L 246.0097 78.36732 
L 246.281607 78.36732 
L 246.381496 76.483137 
L 248.999846 76.483137 
L 248.999846 75.541046 
L 249.620073 75.541046 
L 249.620073 74.598954 
L 249.837649 74.598954 
L 249.837649 73.656863 
L 249.992872 73.656863 
L 249.992872 71.77268 
L 250.346119 71.77268 
L 250.346119 70.830588 
L 251.136765 70.830588 
L 251.136765 69.888497 
L 251.310417 69.888497 
L 251.310417 68.946405 
L 252.042524 68.946405 
L 252.042524 68.004314 
L 252.209517 68.004314 
L 252.209517 67.062222 
L 253.489004 67.062222 
L 253.553001 65.178039 
L 253.770576 65.178039 
L 253.770576 64.235948 
L 253.943323 64.235948 
L 253.943323 63.293856 
L 254.358154 63.293856 
L 254.458174 61.409673 
L 255.326338 61.409673 
L 255.326338 60.467582 
L 255.639957 60.467582 
L 255.639957 59.52549 
L 255.889511 59.52549 
L 255.892524 57.641307 
L 256.067415 57.641307 
L 256.067415 56.699216 
L 256.641508 56.699216 
L 256.641508 55.757124 
L 256.869995 55.757124 
L 256.869995 54.815033 
L 257.137438 54.815033 
L 257.137438 53.872941 
L 257.540608 53.872941 
L 257.574074 51.988758 
L 257.876251 51.988758 
L 257.876251 51.046667 
L 258.199287 51.046667 
L 258.199287 50.104575 
L 258.345539 50.104575 
L 258.345539 49.162484 
L 259.168974 49.162484 
L 259.168974 48.220392 
L 259.301939 48.220392 
L 259.301939 47.278301 
L 259.768795 47.278301 
L 259.789264 45.394118 
L 259.993528 45.394118 
L 259.993528 44.452026 
L 260.657429 44.452026 
L 260.657429 43.509935 
L 260.802923 43.509935 
L 260.802923 42.567843 
L 260.971048 42.567843 
L 261.070366 40.68366 
L 262.132214 40.68366 
L 262.132214 39.741569 
L 263.701723 39.741569 
L 263.734234 37.857386 
L 264.491017 37.857386 
L 264.593834 35.973203 
L 264.81141 35.973203 
L 264.81141 35.031111 
L 265.324619 35.031111 
L 265.324619 34.08902 
L 268.917084 34.08902 
L 268.917084 33.146928 
L 270.136008 33.146928 
L 270.136008 32.204837 
L 271.763626 32.204837 
L 271.843756 30.320654 
L 272.111199 30.320654 
L 272.111199 29.378562 
L 272.695167 29.378562 
L 272.695167 28.436471 
L 273.173048 28.436471 
L 273.173048 27.494379 
L 274.742556 27.494379 
L 274.742556 26.552288 
L 281.224232 26.552288 
L 281.224232 25.610196 
L 281.576939 25.610196 
L 281.576939 24.668105 
L 288.083816 24.668105 
L 288.083816 23.726013 
L 290.155712 23.726013 
L 290.155712 22.783922 
L 291.269105 22.783922 
L 291.269105 21.84183 
L 292.075522 21.84183 
L 292.075522 20.899739 
L 292.204586 20.899739 
L 292.204586 19.957647 
L 296.610235 19.957647 
L 296.610235 19.015556 
L 296.82781 19.015556 
L 296.82781 18.073464 
L 300.933485 18.073464 
L 300.933485 17.131373 
L 301.53339 17.131373 
L 301.53339 16.189281 
L 303.860157 16.189281 
L 303.860157 15.24719 
L 304.1276 15.24719 
L 304.1276 14.305098 
L 305.189448 14.305098 
L 305.189448 13.363007 
L 306.758957 13.363007 
L 306.758957 12.420915 
L 306.888927 12.420915 
L 306.888927 11.478824 
L 308.808737 11.478824 
L 308.808737 10.536732 
L 308.974121 10.536732 
L 308.974121 9.594641 
L 318.266604 9.594641 
L 318.266604 8.652549 
L 323.217605 8.652549 
L 323.217605 7.710458 
L 327.287315 7.710458 
L 327.287315 6.768366 
L 344.02053 6.768366 
L 344.02053 5.826275 
L 447.387167 5.826275 
L 447.387167 5.826275 
" clip-path="url(#p9fb3dac8d8)" style="fill: none; stroke: #bf00bf; stroke-width: 3; stroke-linecap: square"/>
   </g>
   <g id="line2d_38">
    <path clip-path="url(#p9fb3dac8d8)" style="fill: none; stroke: #bf00bf; stroke-width: 3; stroke-linecap: square"/>
   </g>
   <g id="line2d_39">
    <path d="M 34.16 288.453725 
L 81.197963 288.453725 
L 81.197963 287.511634 
L 90.982398 287.511634 
L 90.982398 286.569542 
L 100.347451 286.569542 
L 100.347451 285.627451 
L 105.802928 285.627451 
L 105.802928 284.685359 
L 107.828517 284.685359 
L 107.828517 283.743268 
L 108.824368 283.743268 
L 108.824368 282.801176 
L 113.230157 282.801176 
L 113.230157 281.859085 
L 123.014592 281.859085 
L 123.014592 280.916993 
L 125.361243 280.916993 
L 125.361243 279.974902 
L 132.379645 279.974902 
L 132.379645 279.03281 
L 134.539636 279.03281 
L 134.539636 278.090719 
L 135.145678 278.090719 
L 135.145678 277.148627 
L 137.835122 277.148627 
L 137.835122 276.206536 
L 139.860711 276.206536 
L 139.860711 275.264444 
L 140.856562 275.264444 
L 140.856562 274.322353 
L 141.079712 274.322353 
L 141.079712 273.380261 
L 144.324071 273.380261 
L 144.324071 272.43817 
L 144.510731 272.43817 
L 144.510731 271.496078 
L 149.966207 271.496078 
L 149.966207 270.553987 
L 150.864148 270.553987 
L 150.864148 269.611895 
L 151.991796 269.611895 
L 151.991796 268.669804 
L 152.987647 268.669804 
L 152.987647 267.727712 
L 153.689124 267.727712 
L 153.689124 266.785621 
L 159.1446 266.785621 
L 159.1446 265.843529 
L 160.229201 265.843529 
L 160.229201 264.901438 
L 161.170189 264.901438 
L 161.170189 263.959346 
L 162.042595 263.959346 
L 162.042595 263.017255 
L 162.16604 263.017255 
L 162.16604 262.075163 
L 165.684677 262.075163 
L 165.684677 261.133072 
L 167.710266 261.133072 
L 167.710266 260.19098 
L 168.706117 260.19098 
L 168.706117 259.248889 
L 170.937071 259.248889 
L 170.937071 258.306797 
L 174.1662 258.306797 
L 174.1662 257.364706 
L 175.630768 257.364706 
L 175.630768 256.422614 
L 177.940332 256.422614 
L 177.940332 255.480523 
L 178.701695 255.480523 
L 178.701695 254.538431 
L 178.878067 254.538431 
L 178.878067 253.59634 
L 180.917646 253.59634 
L 180.917646 252.654248 
L 181.523333 252.654248 
L 181.523333 251.712157 
L 185.073787 251.712157 
L 185.073787 250.770065 
L 189.798354 250.770065 
L 189.899387 247.943791 
L 190.41781 247.943791 
L 190.41781 247.001699 
L 192.754503 247.001699 
L 192.754503 246.059608 
L 193.968264 246.059608 
L 193.968264 245.117516 
L 194.505819 245.117516 
L 194.505819 244.175425 
L 194.730337 244.175425 
L 194.730337 243.233333 
L 195.111507 243.233333 
L 195.111507 242.291242 
L 196.284214 242.291242 
L 196.284214 241.34915 
L 197.432278 241.34915 
L 197.533529 238.522876 
L 197.851696 238.522876 
L 197.851696 237.580784 
L 198.055477 237.580784 
L 198.055477 235.696601 
L 198.504469 235.696601 
L 198.504469 234.75451 
L 198.661961 234.75451 
L 198.661961 233.812418 
L 199.265833 233.812418 
L 199.265833 232.870327 
L 200.018384 232.870327 
L 200.018384 231.928235 
L 200.187956 231.928235 
L 200.187956 230.986144 
L 200.366187 230.986144 
L 200.465311 229.101961 
L 200.68531 229.101961 
L 200.68531 228.159869 
L 200.860714 228.159869 
L 200.957379 226.275686 
L 201.20641 226.275686 
L 201.20641 225.333595 
L 201.461537 225.333595 
L 201.461537 224.391503 
L 201.943282 224.391503 
L 201.967774 222.50732 
L 203.111735 222.50732 
L 203.111735 221.565229 
L 203.532801 221.565229 
L 203.532801 220.623137 
L 204.220215 220.623137 
L 204.220215 219.681046 
L 204.547479 219.681046 
L 204.547479 218.738954 
L 204.884473 218.738954 
L 204.884473 217.796863 
L 205.38385 217.796863 
L 205.38385 216.854771 
L 208.473381 216.854771 
L 208.473381 215.91268 
L 208.774438 215.91268 
L 208.774438 214.970588 
L 209.091815 214.970588 
L 209.091815 214.028497 
L 209.273721 214.028497 
L 209.380126 212.144314 
L 209.441682 212.144314 
L 209.441682 211.202222 
L 209.579786 211.202222 
L 209.579786 210.260131 
L 210.356014 210.260131 
L 210.362492 208.375948 
L 210.837759 208.375948 
L 210.910261 206.491765 
L 211.408506 206.491765 
L 211.408506 205.549673 
L 212.865947 205.549673 
L 212.930579 203.66549 
L 213.001748 203.66549 
L 213.064432 201.781307 
L 213.114692 201.781307 
L 213.114692 200.839216 
L 213.441956 200.839216 
L 213.441956 199.897124 
L 213.62731 199.897124 
L 213.62731 198.955033 
L 214.035194 198.955033 
L 214.035194 198.012941 
L 214.273483 198.012941 
L 214.273483 197.07085 
L 215.049711 197.07085 
L 215.159265 195.186667 
L 215.407127 195.186667 
L 215.407127 194.244575 
L 215.531455 194.244575 
L 215.531455 193.302484 
L 215.764953 193.302484 
L 215.764953 192.360392 
L 216.141565 192.360392 
L 216.141565 191.418301 
L 217.315373 191.418301 
L 217.367858 189.534118 
L 217.594676 189.534118 
L 217.627097 187.649935 
L 217.808389 187.649935 
L 217.808389 186.707843 
L 217.97927 186.707843 
L 217.97927 185.765752 
L 218.135652 185.765752 
L 218.168198 183.881569 
L 218.415834 183.881569 
L 218.415834 182.939477 
L 218.592402 182.939477 
L 218.619615 180.113203 
L 219.315406 180.113203 
L 219.315406 179.171111 
L 219.964335 179.171111 
L 219.964335 178.22902 
L 220.582522 178.22902 
L 220.582522 177.286928 
L 220.698773 177.286928 
L 220.698773 176.344837 
L 220.930325 176.344837 
L 221.029449 174.460654 
L 221.117774 174.460654 
L 221.117774 173.518562 
L 221.321555 173.518562 
L 221.424852 170.692288 
L 221.872582 170.692288 
L 221.896225 168.808105 
L 222.061555 168.808105 
L 222.061555 167.866013 
L 222.536478 167.866013 
L 222.536478 166.923922 
L 222.861895 166.923922 
L 222.861895 165.98183 
L 223.016056 165.98183 
L 223.041347 164.097647 
L 223.284462 164.097647 
L 223.284462 163.155556 
L 223.483752 163.155556 
L 223.537472 161.271373 
L 223.632265 161.271373 
L 223.731389 159.38719 
L 224.000563 159.38719 
L 224.096939 157.503007 
L 224.126792 157.503007 
L 224.155025 155.618824 
L 224.61682 155.618824 
L 224.723969 153.734641 
L 224.786697 153.734641 
L 224.786697 152.792549 
L 226.489153 152.792549 
L 226.589922 150.908366 
L 226.777817 150.908366 
L 226.798879 148.082092 
L 227.311604 148.082092 
L 227.311604 147.14 
L 227.573264 147.14 
L 227.573264 146.197908 
L 228.04096 146.197908 
L 228.14975 142.429542 
L 228.542102 142.429542 
L 228.557771 140.545359 
L 228.712234 140.545359 
L 228.712234 139.603268 
L 228.884188 139.603268 
L 228.884188 138.661176 
L 229.174029 138.661176 
L 229.174029 137.719085 
L 229.31833 137.719085 
L 229.31833 136.776993 
L 229.545192 136.776993 
L 229.629091 133.008627 
L 229.800074 133.008627 
L 229.800074 132.066536 
L 230.057996 132.066536 
L 230.057996 131.124444 
L 230.721893 131.124444 
L 230.721893 130.182353 
L 231.18285 130.182353 
L 231.22456 128.29817 
L 231.972644 128.29817 
L 232.077008 126.413987 
L 232.219739 126.413987 
L 232.220149 124.529804 
L 232.404271 124.529804 
L 232.404271 123.587712 
L 232.686638 123.587712 
L 232.777311 121.703529 
L 232.981092 121.703529 
L 232.989573 118.877255 
L 234.102401 118.877255 
L 234.102401 117.935163 
L 234.308072 117.935163 
L 234.312703 116.05098 
L 234.674585 116.05098 
L 234.674585 115.108889 
L 234.926929 115.108889 
L 234.943999 113.224706 
L 235.143929 113.224706 
L 235.143929 112.282614 
L 235.291802 112.282614 
L 235.390926 110.398431 
L 235.680431 110.398431 
L 235.786329 105.687974 
L 236.184901 105.687974 
L 236.226375 103.803791 
L 236.330173 103.803791 
L 236.330173 102.861699 
L 236.743186 102.861699 
L 236.743186 101.919608 
L 236.897649 101.919608 
L 236.917783 100.035425 
L 237.130514 100.035425 
L 237.130514 99.093333 
L 237.359444 99.093333 
L 237.416043 97.20915 
L 238.458416 97.20915 
L 238.461835 95.324967 
L 238.759816 95.324967 
L 238.86528 91.556601 
L 239.169626 91.556601 
L 239.169626 90.61451 
L 240.151744 90.61451 
L 240.151744 89.672418 
L 240.374128 89.672418 
L 240.374128 88.730327 
L 240.85854 88.730327 
L 240.886182 85.904052 
L 241.696808 85.904052 
L 241.696808 84.019869 
L 242.059991 84.019869 
L 242.085607 82.135686 
L 242.287816 82.135686 
L 242.287816 81.193595 
L 242.715 81.193595 
L 242.723888 79.309412 
L 243.463424 79.309412 
L 243.515341 77.425229 
L 243.967184 77.425229 
L 243.967184 76.483137 
L 244.351235 76.483137 
L 244.351235 75.541046 
L 244.835357 75.541046 
L 244.835357 74.598954 
L 245.120658 74.598954 
L 245.120658 73.656863 
L 245.451468 73.656863 
L 245.451468 72.714771 
L 245.569795 72.714771 
L 245.569795 71.77268 
L 246.096176 71.77268 
L 246.096176 70.830588 
L 246.334121 70.830588 
L 246.334121 69.888497 
L 246.743603 69.888497 
L 246.743603 68.946405 
L 247.050695 68.946405 
L 247.050695 68.004314 
L 247.222969 68.004314 
L 247.275015 65.178039 
L 247.4075 65.178039 
L 247.426749 62.351765 
L 247.760673 62.351765 
L 247.760673 61.409673 
L 248.22837 61.409673 
L 248.22837 60.467582 
L 248.74518 60.467582 
L 248.74518 59.52549 
L 248.899643 59.52549 
L 248.899643 58.583399 
L 249.361438 58.583399 
L 249.389657 56.699216 
L 249.547129 56.699216 
L 249.547129 55.757124 
L 249.737459 55.757124 
L 249.836584 53.872941 
L 250.231986 53.872941 
L 250.231986 52.93085 
L 250.875201 52.93085 
L 250.875201 51.046667 
L 251.836295 51.046667 
L 251.836295 50.104575 
L 252.444286 50.104575 
L 252.444286 49.162484 
L 252.636252 49.162484 
L 252.636252 48.220392 
L 252.874047 48.220392 
L 252.911982 45.394118 
L 253.428793 45.394118 
L 253.529628 43.509935 
L 253.583255 43.509935 
L 253.583255 42.567843 
L 254.04505 42.567843 
L 254.04505 41.625752 
L 254.28981 41.625752 
L 254.299051 39.741569 
L 254.642747 39.741569 
L 254.642747 38.799477 
L 255.969178 38.799477 
L 255.969178 37.857386 
L 256.453408 37.857386 
L 256.453408 36.915294 
L 257.415278 36.915294 
L 257.415278 35.031111 
L 257.55766 35.031111 
L 257.55766 34.08902 
L 258.725522 34.08902 
L 258.725522 33.146928 
L 258.973422 33.146928 
L 259.052689 31.262745 
L 260.069705 31.262745 
L 260.069705 30.320654 
L 260.65279 30.320654 
L 260.65279 29.378562 
L 260.779779 29.378562 
L 260.839128 27.494379 
L 261.027574 27.494379 
L 261.027574 26.552288 
L 262.993484 26.552288 
L 262.993484 25.610196 
L 263.736301 25.610196 
L 263.736301 24.668105 
L 265.181824 24.668105 
L 265.265599 22.783922 
L 274.117801 22.783922 
L 274.117801 21.84183 
L 277.831468 21.84183 
L 277.831468 20.899739 
L 278.569566 20.899739 
L 278.569566 19.957647 
L 285.745962 19.957647 
L 285.745962 19.015556 
L 286.248887 19.015556 
L 286.248887 18.073464 
L 286.725945 18.073464 
L 286.725945 17.131373 
L 288.447902 17.131373 
L 288.447902 16.189281 
L 291.419642 16.189281 
L 291.419642 15.24719 
L 295.42728 15.24719 
L 295.42728 14.305098 
L 299.133703 14.305098 
L 299.133703 13.363007 
L 300.107439 13.363007 
L 300.107439 12.420915 
L 301.835644 12.420915 
L 301.835644 11.478824 
L 301.967357 11.478824 
L 301.967357 10.536732 
L 305.688261 10.536732 
L 305.688261 9.594641 
L 312.073088 9.594641 
L 312.073088 8.652549 
L 313.49518 8.652549 
L 313.49518 7.710458 
L 314.553096 7.710458 
L 314.553096 6.768366 
L 327.940838 6.768366 
L 327.940838 5.826275 
L 447.387167 5.826275 
L 447.387167 5.826275 
" clip-path="url(#p9fb3dac8d8)" style="fill: none; stroke: #ff0000; stroke-width: 3; stroke-linecap: square"/>
   </g>
   <g id="line2d_40">
    <path clip-path="url(#p9fb3dac8d8)" style="fill: none; stroke: #ff0000; stroke-width: 3; stroke-linecap: square"/>
   </g>
   <g id="line2d_41">
    <path d="M 240.773583 291.28 
L 240.773583 3 
" clip-path="url(#p9fb3dac8d8)" style="fill: none; stroke: #000000; stroke-width: 1.5; stroke-linecap: square"/>
   </g>
   <g id="line2d_42">
    <path d="M 34.16 147.14 
L 447.387167 147.14 
" clip-path="url(#p9fb3dac8d8)" style="fill: none; stroke-dasharray: 2,3.3; stroke-dashoffset: 0; stroke: #000000; stroke-width: 2"/>
   </g>
   <g id="patch_3">
    <path d="M 34.16 291.28 
L 34.16 3 
" style="fill: none; stroke: #000000; stroke-width: 0.8; stroke-linejoin: miter; stroke-linecap: square"/>
   </g>
   <g id="patch_4">
    <path d="M 447.387167 291.28 
L 447.387167 3 
" style="fill: none; stroke: #000000; stroke-width: 0.8; stroke-linejoin: miter; stroke-linecap: square"/>
   </g>
   <g id="patch_5">
    <path d="M 34.16 291.28 
L 447.387167 291.28 
" style="fill: none; stroke: #000000; stroke-width: 0.8; stroke-linejoin: miter; stroke-linecap: square"/>
   </g>
   <g id="patch_6">
    <path d="M 34.16 3 
L 447.387167 3 
" style="fill: none; stroke: #000000; stroke-width: 0.8; stroke-linejoin: miter; stroke-linecap: square"/>
   </g>
   <g id="text_6">
    <!-- f6-f9,5-D -->
    <g transform="translate(350.678874 285.5144)scale(0.2 -0.2)">
     <defs>
      <path id="DejaVuSans-36" d="M 2113 2584 
Q 1688 2584 1439 2293 
Q 1191 2003 1191 1497 
Q 1191 994 1439 701 
Q 1688 409 2113 409 
Q 2538 409 2786 701 
Q 3034 994 3034 1497 
Q 3034 2003 2786 2293 
Q 2538 2584 2113 2584 
z
M 3366 4563 
L 3366 3988 
Q 3128 4100 2886 4159 
Q 2644 4219 2406 4219 
Q 1781 4219 1451 3797 
Q 1122 3375 1075 2522 
Q 1259 2794 1537 2939 
Q 1816 3084 2150 3084 
Q 2853 3084 3261 2657 
Q 3669 2231 3669 1497 
Q 3669 778 3244 343 
Q 2819 -91 2113 -91 
Q 1303 -91 875 529 
Q 447 1150 447 2328 
Q 447 3434 972 4092 
Q 1497 4750 2381 4750 
Q 2619 4750 2861 4703 
Q 3103 4656 3366 4563 
z
" transform="scale(0.015625)"/>
      <path id="DejaVuSans-39" d="M 703 97 
L 703 672 
Q 941 559 1184 500 
Q 1428 441 1663 441 
Q 2288 441 2617 861 
Q 2947 1281 2994 2138 
Q 2813 1869 2534 1725 
Q 2256 1581 1919 1581 
Q 1219 1581 811 2004 
Q 403 2428 403 3163 
Q 403 3881 828 4315 
Q 1253 4750 1959 4750 
Q 2769 4750 3195 4129 
Q 3622 3509 3622 2328 
Q 3622 1225 3098 567 
Q 2575 -91 1691 -91 
Q 1453 -91 1209 -44 
Q 966 3 703 97 
z
M 1959 2075 
Q 2384 2075 2632 2365 
Q 2881 2656 2881 3163 
Q 2881 3666 2632 3958 
Q 2384 4250 1959 4250 
Q 1534 4250 1286 3958 
Q 1038 3666 1038 3163 
Q 1038 2656 1286 2365 
Q 1534 2075 1959 2075 
z
" transform="scale(0.015625)"/>
      <path id="DejaVuSans-2c" d="M 750 794 
L 1409 794 
L 1409 256 
L 897 -744 
L 494 -744 
L 750 256 
L 750 794 
z
" transform="scale(0.015625)"/>
      <path id="DejaVuSans-35" d="M 691 4666 
L 3169 4666 
L 3169 4134 
L 1269 4134 
L 1269 2991 
Q 1406 3038 1543 3061 
Q 1681 3084 1819 3084 
Q 2600 3084 3056 2656 
Q 3513 2228 3513 1497 
Q 3513 744 3044 326 
Q 2575 -91 1722 -91 
Q 1428 -91 1123 -41 
Q 819 9 494 109 
L 494 744 
Q 775 591 1075 516 
Q 1375 441 1709 441 
Q 2250 441 2565 725 
Q 2881 1009 2881 1497 
Q 2881 1984 2565 2268 
Q 2250 2553 1709 2553 
Q 1456 2553 1204 2497 
Q 953 2441 691 2322 
L 691 4666 
z
" transform="scale(0.015625)"/>
      <path id="DejaVuSans-44" d="M 1259 4147 
L 1259 519 
L 2022 519 
Q 2988 519 3436 956 
Q 3884 1394 3884 2338 
Q 3884 3275 3436 3711 
Q 2988 4147 2022 4147 
L 1259 4147 
z
M 628 4666 
L 1925 4666 
Q 3281 4666 3915 4102 
Q 4550 3538 4550 2338 
Q 4550 1131 3912 565 
Q 3275 0 1925 0 
L 628 0 
L 628 4666 
z
" transform="scale(0.015625)"/>
     </defs>
     <use xlink:href="#DejaVuSans-66"/>
     <use xlink:href="#DejaVuSans-36" x="35.205078"/>
     <use xlink:href="#DejaVuSans-2d" x="98.828125"/>
     <use xlink:href="#DejaVuSans-66" x="134.912109"/>
     <use xlink:href="#DejaVuSans-39" x="170.117188"/>
     <use xlink:href="#DejaVuSans-2c" x="233.740234"/>
     <use xlink:href="#DejaVuSans-35" x="265.527344"/>
     <use xlink:href="#DejaVuSans-2d" x="329.150391"/>
     <use xlink:href="#DejaVuSans-44" x="365.234375"/>
    </g>
   </g>
   <g id="text_7">
    <!-- v2.6.1.158 -->
    <g style="fill: #808080" transform="translate(213.959521 286.317512)scale(0.1 -0.1)">
     <defs>
      <path id="DejaVuSans-32" d="M 1228 531 
L 3431 531 
L 3431 0 
L 469 0 
L 469 531 
Q 828 903 1448 1529 
Q 2069 2156 2228 2338 
Q 2531 2678 2651 2914 
Q 2772 3150 2772 3378 
Q 2772 3750 2511 3984 
Q 2250 4219 1831 4219 
Q 1534 4219 1204 4116 
Q 875 4013 500 3803 
L 500 4441 
Q 881 4594 1212 4672 
Q 1544 4750 1819 4750 
Q 2544 4750 2975 4387 
Q 3406 4025 3406 3419 
Q 3406 3131 3298 2873 
Q 3191 2616 2906 2266 
Q 2828 2175 2409 1742 
Q 1991 1309 1228 531 
z
" transform="scale(0.015625)"/>
      <path id="DejaVuSans-2e" d="M 684 794 
L 1344 794 
L 1344 0 
L 684 0 
L 684 794 
z
" transform="scale(0.015625)"/>
      <path id="DejaVuSans-38" d="M 2034 2216 
Q 1584 2216 1326 1975 
Q 1069 1734 1069 1313 
Q 1069 891 1326 650 
Q 1584 409 2034 409 
Q 2484 409 2743 651 
Q 3003 894 3003 1313 
Q 3003 1734 2745 1975 
Q 2488 2216 2034 2216 
z
M 1403 2484 
Q 997 2584 770 2862 
Q 544 3141 544 3541 
Q 544 4100 942 4425 
Q 1341 4750 2034 4750 
Q 2731 4750 3128 4425 
Q 3525 4100 3525 3541 
Q 3525 3141 3298 2862 
Q 3072 2584 2669 2484 
Q 3125 2378 3379 2068 
Q 3634 1759 3634 1313 
Q 3634 634 3220 271 
Q 2806 -91 2034 -91 
Q 1263 -91 848 271 
Q 434 634 434 1313 
Q 434 1759 690 2068 
Q 947 2378 1403 2484 
z
M 1172 3481 
Q 1172 3119 1398 2916 
Q 1625 2713 2034 2713 
Q 2441 2713 2670 2916 
Q 2900 3119 2900 3481 
Q 2900 3844 2670 4047 
Q 2441 4250 2034 4250 
Q 1625 4250 1398 4047 
Q 1172 3844 1172 3481 
z
" transform="scale(0.015625)"/>
     </defs>
     <use xlink:href="#DejaVuSans-76"/>
     <use xlink:href="#DejaVuSans-32" x="59.179688"/>
     <use xlink:href="#DejaVuSans-2e" x="122.802734"/>
     <use xlink:href="#DejaVuSans-36" x="154.589844"/>
     <use xlink:href="#DejaVuSans-2e" x="218.212891"/>
     <use xlink:href="#DejaVuSans-31" x="250"/>
     <use xlink:href="#DejaVuSans-2e" x="313.623047"/>
     <use xlink:href="#DejaVuSans-31" x="345.410156"/>
     <use xlink:href="#DejaVuSans-35" x="409.033203"/>
     <use xlink:href="#DejaVuSans-38" x="472.65625"/>
    </g>
   </g>
   <g id="legend_1">
    <g id="patch_7">
     <path d="M 48.16 136.425 
L 177.381875 136.425 
Q 181.381875 136.425 181.381875 132.425 
L 181.381875 17 
Q 181.381875 13 177.381875 13 
L 48.16 13 
Q 44.16 13 44.16 17 
L 44.16 132.425 
Q 44.16 136.425 48.16 136.425 
z
" style="fill: #ffffff; opacity: 0.2; stroke: #cccccc; stroke-linejoin: miter"/>
    </g>
    <g id="line2d_43">
     <path d="M 52.16 29.196875 
L 72.16 29.196875 
L 92.16 29.196875 
" style="fill: none; stroke: #000000; stroke-width: 3; stroke-linecap: square"/>
    </g>
    <g id="text_8">
     <!-- 1: 4/4 -->
     <g transform="translate(108.16 36.196875)scale(0.2 -0.2)">
      <defs>
       <path id="DejaVuSans-3a" d="M 750 794 
L 1409 794 
L 1409 0 
L 750 0 
L 750 794 
z
M 750 3309 
L 1409 3309 
L 1409 2516 
L 750 2516 
L 750 3309 
z
" transform="scale(0.015625)"/>
       <path id="DejaVuSans-34" d="M 2419 4116 
L 825 1625 
L 2419 1625 
L 2419 4116 
z
M 2253 4666 
L 3047 4666 
L 3047 1625 
L 3713 1625 
L 3713 1100 
L 3047 1100 
L 3047 0 
L 2419 0 
L 2419 1100 
L 313 1100 
L 313 1709 
L 2253 4666 
z
" transform="scale(0.015625)"/>
       <path id="DejaVuSans-2f" d="M 1625 4666 
L 2156 4666 
L 531 -594 
L 0 -594 
L 1625 4666 
z
" transform="scale(0.015625)"/>
      </defs>
      <use xlink:href="#DejaVuSans-31"/>
      <use xlink:href="#DejaVuSans-3a" x="63.623047"/>
      <use xlink:href="#DejaVuSans-20" x="97.314453"/>
      <use xlink:href="#DejaVuSans-34" x="129.101562"/>
      <use xlink:href="#DejaVuSans-2f" x="192.724609"/>
      <use xlink:href="#DejaVuSans-34" x="226.416016"/>
     </g>
    </g>
    <g id="line2d_44">
     <path d="M 52.16 58.553125 
L 72.16 58.553125 
L 92.16 58.553125 
" style="fill: none; stroke: #00bfbf; stroke-width: 3; stroke-linecap: square"/>
    </g>
    <g id="text_9">
     <!-- -1: 4/4 -->
     <g transform="translate(108.16 65.553125)scale(0.2 -0.2)">
      <use xlink:href="#DejaVuSans-2d"/>
      <use xlink:href="#DejaVuSans-31" x="36.083984"/>
      <use xlink:href="#DejaVuSans-3a" x="99.707031"/>
      <use xlink:href="#DejaVuSans-20" x="133.398438"/>
      <use xlink:href="#DejaVuSans-34" x="165.185547"/>
      <use xlink:href="#DejaVuSans-2f" x="228.808594"/>
      <use xlink:href="#DejaVuSans-34" x="262.5"/>
     </g>
    </g>
    <g id="line2d_45">
     <path d="M 52.16 87.909375 
L 72.16 87.909375 
L 92.16 87.909375 
" style="fill: none; stroke: #bf00bf; stroke-width: 3; stroke-linecap: square"/>
    </g>
    <g id="text_10">
     <!-- -4: 4/4 -->
     <g transform="translate(108.16 94.909375)scale(0.2 -0.2)">
      <use xlink:href="#DejaVuSans-2d"/>
      <use xlink:href="#DejaVuSans-34" x="36.083984"/>
      <use xlink:href="#DejaVuSans-3a" x="99.707031"/>
      <use xlink:href="#DejaVuSans-20" x="133.398438"/>
      <use xlink:href="#DejaVuSans-34" x="165.185547"/>
      <use xlink:href="#DejaVuSans-2f" x="228.808594"/>
      <use xlink:href="#DejaVuSans-34" x="262.5"/>
     </g>
    </g>
    <g id="line2d_46">
     <path d="M 52.16 117.265625 
L 72.16 117.265625 
L 92.16 117.265625 
" style="fill: none; stroke: #ff0000; stroke-width: 3; stroke-linecap: square"/>
    </g>
    <g id="text_11">
     <!-- -8: 4/4 -->
     <g transform="translate(108.16 124.265625)scale(0.2 -0.2)">
      <use xlink:href="#DejaVuSans-2d"/>
      <use xlink:href="#DejaVuSans-38" x="36.083984"/>
      <use xlink:href="#DejaVuSans-3a" x="99.707031"/>
      <use xlink:href="#DejaVuSans-20" x="133.398438"/>
      <use xlink:href="#DejaVuSans-34" x="165.185547"/>
      <use xlink:href="#DejaVuSans-2f" x="228.808594"/>
      <use xlink:href="#DejaVuSans-34" x="262.5"/>
     </g>
    </g>
   </g>
  </g>
 </g>
 <defs>
  <clipPath id="p9fb3dac8d8">
   <rect x="34.16" y="3" width="413.227167" height="288.28"/>
  </clipPath>
 </defs>
</svg>
