<?xml version="1.0" encoding="utf-8" standalone="no"?>
<!DOCTYPE svg PUBLIC "-//W3C//DTD SVG 1.1//EN"
  "http://www.w3.org/Graphics/SVG/1.1/DTD/svg11.dtd">
<svg xmlns:xlink="http://www.w3.org/1999/xlink" width="460.8pt" height="345.6pt" viewBox="0 0 460.8 345.6" xmlns="http://www.w3.org/2000/svg" version="1.1">
 <metadata>
  <rdf:RDF xmlns:dc="http://purl.org/dc/elements/1.1/" xmlns:cc="http://creativecommons.org/ns#" xmlns:rdf="http://www.w3.org/1999/02/22-rdf-syntax-ns#">
   <cc:Work>
    <dc:type rdf:resource="http://purl.org/dc/dcmitype/StillImage"/>
    <dc:date>2023-04-03T10:15:59.022062</dc:date>
    <dc:format>image/svg+xml</dc:format>
    <dc:creator>
     <cc:Agent>
      <dc:title>Matplotlib v3.5.2, https://matplotlib.org/</dc:title>
     </cc:Agent>
    </dc:creator>
   </cc:Work>
  </rdf:RDF>
 </metadata>
 <defs>
  <style type="text/css">*{stroke-linejoin: round; stroke-linecap: butt}</style>
 </defs>
 <g id="figure_1">
  <g id="patch_1">
   <path d="M 0 345.6 
L 460.8 345.6 
L 460.8 0 
L 0 0 
z
" style="fill: #ffffff"/>
  </g>
  <g id="axes_1">
   <g id="patch_2">
    <path d="M 34.16 291.28 
L 446.924475 291.28 
L 446.924475 3 
L 34.16 3 
z
" style="fill: #ffffff"/>
   </g>
   <g id="matplotlib.axis_1">
    <g id="xtick_1">
     <g id="line2d_1">
      <path d="M 34.249547 291.28 
L 34.249547 3 
" clip-path="url(#p90a961af87)" style="fill: none; stroke: #b0b0b0; stroke-width: 0.8; stroke-linecap: square"/>
     </g>
     <g id="line2d_2">
      <defs>
       <path id="m10a05a5f2c" d="M 0 0 
L 0 3.5 
" style="stroke: #000000; stroke-width: 0.8"/>
      </defs>
      <g>
       <use xlink:href="#m10a05a5f2c" x="34.249547" y="291.28" style="stroke: #000000; stroke-width: 0.8"/>
      </g>
     </g>
     <g id="text_1">
      <!-- -1 -->
      <g transform="translate(24.279235 313.476875)scale(0.2 -0.2)">
       <defs>
        <path id="DejaVuSans-2d" d="M 313 2009 
L 1997 2009 
L 1997 1497 
L 313 1497 
L 313 2009 
z
" transform="scale(0.015625)"/>
        <path id="DejaVuSans-31" d="M 794 531 
L 1825 531 
L 1825 4091 
L 703 3866 
L 703 4441 
L 1819 4666 
L 2450 4666 
L 2450 531 
L 3481 531 
L 3481 0 
L 794 0 
L 794 531 
z
" transform="scale(0.015625)"/>
       </defs>
       <use xlink:href="#DejaVuSans-2d"/>
       <use xlink:href="#DejaVuSans-31" x="36.083984"/>
      </g>
     </g>
    </g>
    <g id="xtick_2">
     <g id="line2d_3">
      <path d="M 240.542238 291.28 
L 240.542238 3 
" clip-path="url(#p90a961af87)" style="fill: none; stroke: #b0b0b0; stroke-width: 0.8; stroke-linecap: square"/>
     </g>
     <g id="line2d_4">
      <g>
       <use xlink:href="#m10a05a5f2c" x="240.542238" y="291.28" style="stroke: #000000; stroke-width: 0.8"/>
      </g>
     </g>
     <g id="text_2">
      <!-- 0 -->
      <g transform="translate(234.179738 313.476875)scale(0.2 -0.2)">
       <defs>
        <path id="DejaVuSans-30" d="M 2034 4250 
Q 1547 4250 1301 3770 
Q 1056 3291 1056 2328 
Q 1056 1369 1301 889 
Q 1547 409 2034 409 
Q 2525 409 2770 889 
Q 3016 1369 3016 2328 
Q 3016 3291 2770 3770 
Q 2525 4250 2034 4250 
z
M 2034 4750 
Q 2819 4750 3233 4129 
Q 3647 3509 3647 2328 
Q 3647 1150 3233 529 
Q 2819 -91 2034 -91 
Q 1250 -91 836 529 
Q 422 1150 422 2328 
Q 422 3509 836 4129 
Q 1250 4750 2034 4750 
z
" transform="scale(0.015625)"/>
       </defs>
       <use xlink:href="#DejaVuSans-30"/>
      </g>
     </g>
    </g>
    <g id="xtick_3">
     <g id="line2d_5">
      <path d="M 446.834928 291.28 
L 446.834928 3 
" clip-path="url(#p90a961af87)" style="fill: none; stroke: #b0b0b0; stroke-width: 0.8; stroke-linecap: square"/>
     </g>
     <g id="line2d_6">
      <g>
       <use xlink:href="#m10a05a5f2c" x="446.834928" y="291.28" style="stroke: #000000; stroke-width: 0.8"/>
      </g>
     </g>
     <g id="text_3">
      <!-- 1 -->
      <g transform="translate(440.472428 313.476875)scale(0.2 -0.2)">
       <use xlink:href="#DejaVuSans-31"/>
      </g>
     </g>
    </g>
    <g id="xtick_4">
     <g id="line2d_7">
      <defs>
       <path id="m53b272e767" d="M 0 0 
L 0 2 
" style="stroke: #000000; stroke-width: 0.6"/>
      </defs>
      <g>
       <use xlink:href="#m53b272e767" x="96.349835" y="291.28" style="stroke: #000000; stroke-width: 0.6"/>
      </g>
     </g>
    </g>
    <g id="xtick_5">
     <g id="line2d_8">
      <g>
       <use xlink:href="#m53b272e767" x="132.676174" y="291.28" style="stroke: #000000; stroke-width: 0.6"/>
      </g>
     </g>
    </g>
    <g id="xtick_6">
     <g id="line2d_9">
      <g>
       <use xlink:href="#m53b272e767" x="158.450123" y="291.28" style="stroke: #000000; stroke-width: 0.6"/>
      </g>
     </g>
    </g>
    <g id="xtick_7">
     <g id="line2d_10">
      <g>
       <use xlink:href="#m53b272e767" x="178.44195" y="291.28" style="stroke: #000000; stroke-width: 0.6"/>
      </g>
     </g>
    </g>
    <g id="xtick_8">
     <g id="line2d_11">
      <g>
       <use xlink:href="#m53b272e767" x="194.776462" y="291.28" style="stroke: #000000; stroke-width: 0.6"/>
      </g>
     </g>
    </g>
    <g id="xtick_9">
     <g id="line2d_12">
      <g>
       <use xlink:href="#m53b272e767" x="208.587096" y="291.28" style="stroke: #000000; stroke-width: 0.6"/>
      </g>
     </g>
    </g>
    <g id="xtick_10">
     <g id="line2d_13">
      <g>
       <use xlink:href="#m53b272e767" x="220.55041" y="291.28" style="stroke: #000000; stroke-width: 0.6"/>
      </g>
     </g>
    </g>
    <g id="xtick_11">
     <g id="line2d_14">
      <g>
       <use xlink:href="#m53b272e767" x="231.102802" y="291.28" style="stroke: #000000; stroke-width: 0.6"/>
      </g>
     </g>
    </g>
    <g id="xtick_12">
     <g id="line2d_15">
      <g>
       <use xlink:href="#m53b272e767" x="302.642525" y="291.28" style="stroke: #000000; stroke-width: 0.6"/>
      </g>
     </g>
    </g>
    <g id="xtick_13">
     <g id="line2d_16">
      <g>
       <use xlink:href="#m53b272e767" x="338.968865" y="291.28" style="stroke: #000000; stroke-width: 0.6"/>
      </g>
     </g>
    </g>
    <g id="xtick_14">
     <g id="line2d_17">
      <g>
       <use xlink:href="#m53b272e767" x="364.742813" y="291.28" style="stroke: #000000; stroke-width: 0.6"/>
      </g>
     </g>
    </g>
    <g id="xtick_15">
     <g id="line2d_18">
      <g>
       <use xlink:href="#m53b272e767" x="384.73464" y="291.28" style="stroke: #000000; stroke-width: 0.6"/>
      </g>
     </g>
    </g>
    <g id="xtick_16">
     <g id="line2d_19">
      <g>
       <use xlink:href="#m53b272e767" x="401.069153" y="291.28" style="stroke: #000000; stroke-width: 0.6"/>
      </g>
     </g>
    </g>
    <g id="xtick_17">
     <g id="line2d_20">
      <g>
       <use xlink:href="#m53b272e767" x="414.879786" y="291.28" style="stroke: #000000; stroke-width: 0.6"/>
      </g>
     </g>
    </g>
    <g id="xtick_18">
     <g id="line2d_21">
      <g>
       <use xlink:href="#m53b272e767" x="426.843101" y="291.28" style="stroke: #000000; stroke-width: 0.6"/>
      </g>
     </g>
    </g>
    <g id="xtick_19">
     <g id="line2d_22">
      <g>
       <use xlink:href="#m53b272e767" x="437.395492" y="291.28" style="stroke: #000000; stroke-width: 0.6"/>
      </g>
     </g>
    </g>
    <g id="text_4">
     <!-- log10 of FEvals ratio -->
     <g transform="translate(138.23755 336.833125)scale(0.2 -0.2)">
      <defs>
       <path id="DejaVuSans-6c" d="M 603 4863 
L 1178 4863 
L 1178 0 
L 603 0 
L 603 4863 
z
" transform="scale(0.015625)"/>
       <path id="DejaVuSans-6f" d="M 1959 3097 
Q 1497 3097 1228 2736 
Q 959 2375 959 1747 
Q 959 1119 1226 758 
Q 1494 397 1959 397 
Q 2419 397 2687 759 
Q 2956 1122 2956 1747 
Q 2956 2369 2687 2733 
Q 2419 3097 1959 3097 
z
M 1959 3584 
Q 2709 3584 3137 3096 
Q 3566 2609 3566 1747 
Q 3566 888 3137 398 
Q 2709 -91 1959 -91 
Q 1206 -91 779 398 
Q 353 888 353 1747 
Q 353 2609 779 3096 
Q 1206 3584 1959 3584 
z
" transform="scale(0.015625)"/>
       <path id="DejaVuSans-67" d="M 2906 1791 
Q 2906 2416 2648 2759 
Q 2391 3103 1925 3103 
Q 1463 3103 1205 2759 
Q 947 2416 947 1791 
Q 947 1169 1205 825 
Q 1463 481 1925 481 
Q 2391 481 2648 825 
Q 2906 1169 2906 1791 
z
M 3481 434 
Q 3481 -459 3084 -895 
Q 2688 -1331 1869 -1331 
Q 1566 -1331 1297 -1286 
Q 1028 -1241 775 -1147 
L 775 -588 
Q 1028 -725 1275 -790 
Q 1522 -856 1778 -856 
Q 2344 -856 2625 -561 
Q 2906 -266 2906 331 
L 2906 616 
Q 2728 306 2450 153 
Q 2172 0 1784 0 
Q 1141 0 747 490 
Q 353 981 353 1791 
Q 353 2603 747 3093 
Q 1141 3584 1784 3584 
Q 2172 3584 2450 3431 
Q 2728 3278 2906 2969 
L 2906 3500 
L 3481 3500 
L 3481 434 
z
" transform="scale(0.015625)"/>
       <path id="DejaVuSans-20" transform="scale(0.015625)"/>
       <path id="DejaVuSans-66" d="M 2375 4863 
L 2375 4384 
L 1825 4384 
Q 1516 4384 1395 4259 
Q 1275 4134 1275 3809 
L 1275 3500 
L 2222 3500 
L 2222 3053 
L 1275 3053 
L 1275 0 
L 697 0 
L 697 3053 
L 147 3053 
L 147 3500 
L 697 3500 
L 697 3744 
Q 697 4328 969 4595 
Q 1241 4863 1831 4863 
L 2375 4863 
z
" transform="scale(0.015625)"/>
       <path id="DejaVuSans-46" d="M 628 4666 
L 3309 4666 
L 3309 4134 
L 1259 4134 
L 1259 2759 
L 3109 2759 
L 3109 2228 
L 1259 2228 
L 1259 0 
L 628 0 
L 628 4666 
z
" transform="scale(0.015625)"/>
       <path id="DejaVuSans-45" d="M 628 4666 
L 3578 4666 
L 3578 4134 
L 1259 4134 
L 1259 2753 
L 3481 2753 
L 3481 2222 
L 1259 2222 
L 1259 531 
L 3634 531 
L 3634 0 
L 628 0 
L 628 4666 
z
" transform="scale(0.015625)"/>
       <path id="DejaVuSans-76" d="M 191 3500 
L 800 3500 
L 1894 563 
L 2988 3500 
L 3597 3500 
L 2284 0 
L 1503 0 
L 191 3500 
z
" transform="scale(0.015625)"/>
       <path id="DejaVuSans-61" d="M 2194 1759 
Q 1497 1759 1228 1600 
Q 959 1441 959 1056 
Q 959 750 1161 570 
Q 1363 391 1709 391 
Q 2188 391 2477 730 
Q 2766 1069 2766 1631 
L 2766 1759 
L 2194 1759 
z
M 3341 1997 
L 3341 0 
L 2766 0 
L 2766 531 
Q 2569 213 2275 61 
Q 1981 -91 1556 -91 
Q 1019 -91 701 211 
Q 384 513 384 1019 
Q 384 1609 779 1909 
Q 1175 2209 1959 2209 
L 2766 2209 
L 2766 2266 
Q 2766 2663 2505 2880 
Q 2244 3097 1772 3097 
Q 1472 3097 1187 3025 
Q 903 2953 641 2809 
L 641 3341 
Q 956 3463 1253 3523 
Q 1550 3584 1831 3584 
Q 2591 3584 2966 3190 
Q 3341 2797 3341 1997 
z
" transform="scale(0.015625)"/>
       <path id="DejaVuSans-73" d="M 2834 3397 
L 2834 2853 
Q 2591 2978 2328 3040 
Q 2066 3103 1784 3103 
Q 1356 3103 1142 2972 
Q 928 2841 928 2578 
Q 928 2378 1081 2264 
Q 1234 2150 1697 2047 
L 1894 2003 
Q 2506 1872 2764 1633 
Q 3022 1394 3022 966 
Q 3022 478 2636 193 
Q 2250 -91 1575 -91 
Q 1294 -91 989 -36 
Q 684 19 347 128 
L 347 722 
Q 666 556 975 473 
Q 1284 391 1588 391 
Q 1994 391 2212 530 
Q 2431 669 2431 922 
Q 2431 1156 2273 1281 
Q 2116 1406 1581 1522 
L 1381 1569 
Q 847 1681 609 1914 
Q 372 2147 372 2553 
Q 372 3047 722 3315 
Q 1072 3584 1716 3584 
Q 2034 3584 2315 3537 
Q 2597 3491 2834 3397 
z
" transform="scale(0.015625)"/>
       <path id="DejaVuSans-72" d="M 2631 2963 
Q 2534 3019 2420 3045 
Q 2306 3072 2169 3072 
Q 1681 3072 1420 2755 
Q 1159 2438 1159 1844 
L 1159 0 
L 581 0 
L 581 3500 
L 1159 3500 
L 1159 2956 
Q 1341 3275 1631 3429 
Q 1922 3584 2338 3584 
Q 2397 3584 2469 3576 
Q 2541 3569 2628 3553 
L 2631 2963 
z
" transform="scale(0.015625)"/>
       <path id="DejaVuSans-74" d="M 1172 4494 
L 1172 3500 
L 2356 3500 
L 2356 3053 
L 1172 3053 
L 1172 1153 
Q 1172 725 1289 603 
Q 1406 481 1766 481 
L 2356 481 
L 2356 0 
L 1766 0 
Q 1100 0 847 248 
Q 594 497 594 1153 
L 594 3053 
L 172 3053 
L 172 3500 
L 594 3500 
L 594 4494 
L 1172 4494 
z
" transform="scale(0.015625)"/>
       <path id="DejaVuSans-69" d="M 603 3500 
L 1178 3500 
L 1178 0 
L 603 0 
L 603 3500 
z
M 603 4863 
L 1178 4863 
L 1178 4134 
L 603 4134 
L 603 4863 
z
" transform="scale(0.015625)"/>
      </defs>
      <use xlink:href="#DejaVuSans-6c"/>
      <use xlink:href="#DejaVuSans-6f" x="27.783203"/>
      <use xlink:href="#DejaVuSans-67" x="88.964844"/>
      <use xlink:href="#DejaVuSans-31" x="152.441406"/>
      <use xlink:href="#DejaVuSans-30" x="216.064453"/>
      <use xlink:href="#DejaVuSans-20" x="279.6875"/>
      <use xlink:href="#DejaVuSans-6f" x="311.474609"/>
      <use xlink:href="#DejaVuSans-66" x="372.65625"/>
      <use xlink:href="#DejaVuSans-20" x="407.861328"/>
      <use xlink:href="#DejaVuSans-46" x="439.648438"/>
      <use xlink:href="#DejaVuSans-45" x="497.167969"/>
      <use xlink:href="#DejaVuSans-76" x="560.351562"/>
      <use xlink:href="#DejaVuSans-61" x="619.53125"/>
      <use xlink:href="#DejaVuSans-6c" x="680.810547"/>
      <use xlink:href="#DejaVuSans-73" x="708.59375"/>
      <use xlink:href="#DejaVuSans-20" x="760.693359"/>
      <use xlink:href="#DejaVuSans-72" x="792.480469"/>
      <use xlink:href="#DejaVuSans-61" x="833.59375"/>
      <use xlink:href="#DejaVuSans-74" x="894.873047"/>
      <use xlink:href="#DejaVuSans-69" x="934.082031"/>
      <use xlink:href="#DejaVuSans-6f" x="961.865234"/>
     </g>
    </g>
   </g>
   <g id="matplotlib.axis_2">
    <g id="ytick_1">
     <g id="line2d_23">
      <path d="M 34.16 288.453725 
L 446.924475 288.453725 
" clip-path="url(#p90a961af87)" style="fill: none; stroke: #b0b0b0; stroke-width: 0.8; stroke-linecap: square"/>
     </g>
     <g id="line2d_24">
      <defs>
       <path id="m8c1a503a48" d="M 0 0 
L -3.5 0 
" style="stroke: #000000; stroke-width: 0.8"/>
      </defs>
      <g>
       <use xlink:href="#m8c1a503a48" x="34.16" y="288.453725" style="stroke: #000000; stroke-width: 0.8"/>
      </g>
     </g>
    </g>
    <g id="ytick_2">
     <g id="line2d_25">
      <path d="M 34.16 217.796863 
L 446.924475 217.796863 
" clip-path="url(#p90a961af87)" style="fill: none; stroke: #b0b0b0; stroke-width: 0.8; stroke-linecap: square"/>
     </g>
     <g id="line2d_26">
      <g>
       <use xlink:href="#m8c1a503a48" x="34.16" y="217.796863" style="stroke: #000000; stroke-width: 0.8"/>
      </g>
     </g>
    </g>
    <g id="ytick_3">
     <g id="line2d_27">
      <path d="M 34.16 147.14 
L 446.924475 147.14 
" clip-path="url(#p90a961af87)" style="fill: none; stroke: #b0b0b0; stroke-width: 0.8; stroke-linecap: square"/>
     </g>
     <g id="line2d_28">
      <g>
       <use xlink:href="#m8c1a503a48" x="34.16" y="147.14" style="stroke: #000000; stroke-width: 0.8"/>
      </g>
     </g>
    </g>
    <g id="ytick_4">
     <g id="line2d_29">
      <path d="M 34.16 76.483137 
L 446.924475 76.483137 
" clip-path="url(#p90a961af87)" style="fill: none; stroke: #b0b0b0; stroke-width: 0.8; stroke-linecap: square"/>
     </g>
     <g id="line2d_30">
      <g>
       <use xlink:href="#m8c1a503a48" x="34.16" y="76.483137" style="stroke: #000000; stroke-width: 0.8"/>
      </g>
     </g>
    </g>
    <g id="ytick_5">
     <g id="line2d_31">
      <path d="M 34.16 5.826275 
L 446.924475 5.826275 
" clip-path="url(#p90a961af87)" style="fill: none; stroke: #b0b0b0; stroke-width: 0.8; stroke-linecap: square"/>
     </g>
     <g id="line2d_32">
      <g>
       <use xlink:href="#m8c1a503a48" x="34.16" y="5.826275" style="stroke: #000000; stroke-width: 0.8"/>
      </g>
     </g>
    </g>
    <g id="text_5">
     <!-- proportion of trials -->
     <g transform="translate(19.000625 240.14625)rotate(-90)scale(0.2 -0.2)">
      <defs>
       <path id="DejaVuSans-70" d="M 1159 525 
L 1159 -1331 
L 581 -1331 
L 581 3500 
L 1159 3500 
L 1159 2969 
Q 1341 3281 1617 3432 
Q 1894 3584 2278 3584 
Q 2916 3584 3314 3078 
Q 3713 2572 3713 1747 
Q 3713 922 3314 415 
Q 2916 -91 2278 -91 
Q 1894 -91 1617 61 
Q 1341 213 1159 525 
z
M 3116 1747 
Q 3116 2381 2855 2742 
Q 2594 3103 2138 3103 
Q 1681 3103 1420 2742 
Q 1159 2381 1159 1747 
Q 1159 1113 1420 752 
Q 1681 391 2138 391 
Q 2594 391 2855 752 
Q 3116 1113 3116 1747 
z
" transform="scale(0.015625)"/>
       <path id="DejaVuSans-6e" d="M 3513 2113 
L 3513 0 
L 2938 0 
L 2938 2094 
Q 2938 2591 2744 2837 
Q 2550 3084 2163 3084 
Q 1697 3084 1428 2787 
Q 1159 2491 1159 1978 
L 1159 0 
L 581 0 
L 581 3500 
L 1159 3500 
L 1159 2956 
Q 1366 3272 1645 3428 
Q 1925 3584 2291 3584 
Q 2894 3584 3203 3211 
Q 3513 2838 3513 2113 
z
" transform="scale(0.015625)"/>
      </defs>
      <use xlink:href="#DejaVuSans-70"/>
      <use xlink:href="#DejaVuSans-72" x="63.476562"/>
      <use xlink:href="#DejaVuSans-6f" x="102.339844"/>
      <use xlink:href="#DejaVuSans-70" x="163.521484"/>
      <use xlink:href="#DejaVuSans-6f" x="226.998047"/>
      <use xlink:href="#DejaVuSans-72" x="288.179688"/>
      <use xlink:href="#DejaVuSans-74" x="329.292969"/>
      <use xlink:href="#DejaVuSans-69" x="368.501953"/>
      <use xlink:href="#DejaVuSans-6f" x="396.285156"/>
      <use xlink:href="#DejaVuSans-6e" x="457.466797"/>
      <use xlink:href="#DejaVuSans-20" x="520.845703"/>
      <use xlink:href="#DejaVuSans-6f" x="552.632812"/>
      <use xlink:href="#DejaVuSans-66" x="613.814453"/>
      <use xlink:href="#DejaVuSans-20" x="649.019531"/>
      <use xlink:href="#DejaVuSans-74" x="680.806641"/>
      <use xlink:href="#DejaVuSans-72" x="720.015625"/>
      <use xlink:href="#DejaVuSans-69" x="761.128906"/>
      <use xlink:href="#DejaVuSans-61" x="788.912109"/>
      <use xlink:href="#DejaVuSans-6c" x="850.191406"/>
      <use xlink:href="#DejaVuSans-73" x="877.974609"/>
     </g>
    </g>
   </g>
   <g id="line2d_33">
    <path d="M 34.16 288.453725 
L 123.188475 288.453725 
L 123.188475 287.511634 
L 123.711133 287.511634 
L 123.711133 286.569542 
L 164.338023 286.569542 
L 164.338023 285.627451 
L 164.860681 285.627451 
L 164.860681 284.685359 
L 168.978324 284.685359 
L 169.059166 282.801176 
L 169.500982 282.801176 
L 169.581824 280.916993 
L 171.929081 280.916993 
L 171.929081 279.974902 
L 172.946508 279.974902 
L 172.946508 279.03281 
L 175.524639 279.03281 
L 175.524639 278.090719 
L 175.803723 278.090719 
L 175.836231 276.206536 
L 176.542066 276.206536 
L 176.542066 275.264444 
L 176.82115 275.264444 
L 176.897445 273.380261 
L 177.420103 273.380261 
L 177.420103 272.43817 
L 177.697759 272.43817 
L 177.697759 271.496078 
L 178.715186 271.496078 
L 178.715186 270.553987 
L 179.232768 270.553987 
L 179.232768 269.611895 
L 179.431789 269.611895 
L 179.431789 268.669804 
L 179.690468 268.669804 
L 179.710873 266.785621 
L 180.287431 266.785621 
L 180.287431 265.843529 
L 180.649614 265.843529 
L 180.649614 264.901438 
L 181.604909 264.901438 
L 181.667041 263.017255 
L 182.92735 263.017255 
L 182.92735 262.075163 
L 183.944777 262.075163 
L 183.944777 261.133072 
L 184.556764 261.133072 
L 184.556764 260.19098 
L 184.809599 260.19098 
L 184.858846 258.306797 
L 185.827026 258.306797 
L 185.827026 257.364706 
L 186.661962 257.364706 
L 186.661962 256.422614 
L 186.8345 256.422614 
L 186.8345 255.480523 
L 187.591913 255.480523 
L 187.591913 254.538431 
L 188.290998 254.538431 
L 188.290998 253.59634 
L 188.454404 253.59634 
L 188.454404 252.654248 
L 188.716749 252.654248 
L 188.733488 250.770065 
L 189.308426 250.770065 
L 189.308426 249.827974 
L 190.219796 249.827974 
L 190.219796 248.885882 
L 190.627524 248.885882 
L 190.627524 247.943791 
L 191.009349 247.943791 
L 191.067791 246.059608 
L 191.237223 246.059608 
L 191.237223 245.117516 
L 192.198148 245.117516 
L 192.198148 244.175425 
L 192.430541 244.175425 
L 192.430541 243.233333 
L 193.251939 243.233333 
L 193.251939 242.291242 
L 193.447968 242.291242 
L 193.447968 241.34915 
L 193.579379 241.34915 
L 193.579379 240.407059 
L 194.126946 240.407059 
L 194.126946 239.464967 
L 194.269366 239.464967 
L 194.269366 238.522876 
L 195.496079 238.522876 
L 195.496079 237.580784 
L 195.857115 237.580784 
L 195.857115 236.638693 
L 196.337691 236.638693 
L 196.337691 235.696601 
L 196.714003 235.696601 
L 196.714003 234.75451 
L 197.159089 234.75451 
L 197.159089 233.812418 
L 197.73143 233.812418 
L 197.739364 231.928235 
L 198.054036 231.928235 
L 198.054036 230.986144 
L 198.626241 230.986144 
L 198.626241 230.044052 
L 200.151244 230.044052 
L 200.151244 229.101961 
L 200.621153 229.101961 
L 200.691927 227.217778 
L 201.220764 227.217778 
L 201.220764 226.275686 
L 201.668489 226.275686 
L 201.709354 224.391503 
L 202.021704 224.391503 
L 202.021704 223.449412 
L 202.391155 223.449412 
L 202.391736 221.565229 
L 202.685916 221.565229 
L 202.685916 220.623137 
L 203.149561 220.623137 
L 203.149561 219.681046 
L 203.409163 219.681046 
L 203.409163 218.738954 
L 204.506309 218.738954 
L 204.599077 216.854771 
L 205.360306 216.854771 
L 205.360306 215.91268 
L 205.575639 215.91268 
L 205.575639 214.970588 
L 205.958201 214.970588 
L 205.958201 214.028497 
L 206.181704 214.028497 
L 206.181704 213.086405 
L 206.298886 213.086405 
L 206.298886 212.144314 
L 207.757536 212.144314 
L 207.757536 211.202222 
L 208.173113 211.202222 
L 208.173113 210.260131 
L 209.088363 210.260131 
L 209.088363 209.318039 
L 209.643768 209.318039 
L 209.643768 208.375948 
L 210.613367 208.375948 
L 210.613367 207.433856 
L 211.768671 207.433856 
L 211.768671 206.491765 
L 212.047755 206.491765 
L 212.047755 205.549673 
L 212.410475 205.549673 
L 212.483827 203.66549 
L 212.853278 203.66549 
L 212.853278 202.723399 
L 213.621692 202.723399 
L 213.621692 201.781307 
L 213.79972 201.781307 
L 213.79972 200.839216 
L 213.941791 200.839216 
L 213.941791 199.897124 
L 214.598254 199.897124 
L 214.659628 198.012941 
L 215.088833 198.012941 
L 215.088833 197.07085 
L 215.290692 197.07085 
L 215.321501 195.186667 
L 215.408233 195.186667 
L 215.408233 194.244575 
L 215.540637 194.244575 
L 215.540637 193.302484 
L 215.726499 193.302484 
L 215.726499 192.360392 
L 216.893646 192.360392 
L 216.893646 191.418301 
L 217.06564 191.418301 
L 217.06564 190.476209 
L 217.350364 190.476209 
L 217.350364 188.592026 
L 218.219659 188.592026 
L 218.219659 187.649935 
L 218.9361 187.649935 
L 218.9361 186.707843 
L 219.171382 186.707843 
L 219.171382 185.765752 
L 219.305552 185.765752 
L 219.305552 184.82366 
L 219.46003 184.82366 
L 219.46003 183.881569 
L 219.764247 183.881569 
L 219.860101 181.997386 
L 220.382315 181.997386 
L 220.382315 181.055294 
L 220.840016 181.055294 
L 220.840016 180.113203 
L 221.053631 180.113203 
L 221.053631 179.171111 
L 221.436979 179.171111 
L 221.436979 178.22902 
L 222.563793 178.22902 
L 222.563793 177.286928 
L 222.750916 177.286928 
L 222.750916 176.344837 
L 224.261843 176.344837 
L 224.261843 175.402745 
L 224.535031 175.402745 
L 224.535031 174.460654 
L 224.671932 174.460654 
L 224.671932 173.518562 
L 225.022617 173.518562 
L 225.103458 171.634379 
L 225.480317 171.634379 
L 225.561159 168.808105 
L 225.693955 168.808105 
L 225.742995 166.923922 
L 225.870356 166.923922 
L 225.870356 165.98183 
L 226.07728 165.98183 
L 226.158122 164.097647 
L 226.188622 164.097647 
L 226.188622 163.155556 
L 226.463828 163.155556 
L 226.534915 161.271373 
L 227.218959 161.271373 
L 227.218959 160.329281 
L 227.81151 160.329281 
L 227.81151 159.38719 
L 228.674573 159.38719 
L 228.674573 158.445098 
L 229.089419 158.445098 
L 229.089419 157.503007 
L 229.250025 157.503007 
L 229.250025 156.560915 
L 229.45887 156.560915 
L 229.495971 154.676732 
L 229.922153 154.676732 
L 229.922153 153.734641 
L 230.221649 153.734641 
L 230.22637 151.850458 
L 230.714117 151.850458 
L 230.714117 150.908366 
L 232.003229 150.908366 
L 232.003229 149.966275 
L 232.158896 149.966275 
L 232.217338 148.082092 
L 232.281321 148.082092 
L 232.32263 144.313725 
L 232.451811 144.313725 
L 232.532653 142.429542 
L 232.640896 142.429542 
L 232.746734 140.545359 
L 232.941738 140.545359 
L 232.958035 138.661176 
L 233.213039 138.661176 
L 233.213039 137.719085 
L 233.399438 137.719085 
L 233.399438 136.776993 
L 233.599995 136.776993 
L 233.647161 134.89281 
L 233.996401 134.89281 
L 233.996401 133.950719 
L 234.445207 133.950719 
L 234.445207 133.008627 
L 234.791059 133.008627 
L 234.825251 131.124444 
L 235.591156 131.124444 
L 235.591156 130.182353 
L 236.374427 130.182353 
L 236.374427 129.240261 
L 236.678644 129.240261 
L 236.777323 127.356078 
L 236.799198 127.356078 
L 236.880039 124.529804 
L 236.935959 124.529804 
L 236.938482 122.645621 
L 237.912521 122.645621 
L 237.912521 121.703529 
L 238.302327 121.703529 
L 238.302327 120.761438 
L 238.482566 120.761438 
L 238.482566 119.819346 
L 238.635768 119.819346 
L 238.635768 118.877255 
L 238.956501 118.877255 
L 238.956501 117.935163 
L 239.665313 117.935163 
L 239.665313 116.993072 
L 240.172786 116.993072 
L 240.172786 116.05098 
L 240.370932 116.05098 
L 240.370932 115.108889 
L 240.542238 115.108889 
L 240.542238 112.282614 
L 240.867435 112.282614 
L 240.867435 111.340523 
L 241.465872 111.340523 
L 241.465872 110.398431 
L 242.156548 110.398431 
L 242.215067 108.514248 
L 242.475948 108.514248 
L 242.475948 107.572157 
L 242.740715 107.572157 
L 242.794214 105.687974 
L 243.051975 105.687974 
L 243.051975 104.745882 
L 243.56028 104.745882 
L 243.631915 102.861699 
L 244.01074 102.861699 
L 244.01074 101.919608 
L 244.180982 101.919608 
L 244.180982 100.977516 
L 244.578795 100.977516 
L 244.578795 100.035425 
L 244.718319 100.035425 
L 244.776761 98.151242 
L 245.908619 98.151242 
L 245.908619 97.20915 
L 246.053279 97.20915 
L 246.053279 96.267059 
L 246.250651 96.267059 
L 246.250651 95.324967 
L 246.527745 95.324967 
L 246.527745 94.382876 
L 246.831962 94.382876 
L 246.831962 93.440784 
L 247.247993 93.440784 
L 247.247993 92.498693 
L 247.677691 92.498693 
L 247.677691 91.556601 
L 248.530952 91.556601 
L 248.530952 90.61451 
L 249.376164 90.61451 
L 249.376164 89.672418 
L 249.726789 89.672418 
L 249.818631 87.788235 
L 249.865997 87.788235 
L 249.967923 85.904052 
L 250.911222 85.904052 
L 250.911222 84.961961 
L 251.925668 84.961961 
L 251.963615 81.193595 
L 252.441899 81.193595 
L 252.505552 79.309412 
L 253.239915 79.309412 
L 253.239915 78.36732 
L 253.559316 78.36732 
L 253.559316 77.425229 
L 253.877582 77.425229 
L 253.887458 75.541046 
L 254.435406 75.541046 
L 254.435406 74.598954 
L 254.613691 74.598954 
L 254.613691 73.656863 
L 255.50891 73.656863 
L 255.50891 72.714771 
L 255.938608 72.714771 
L 255.938608 71.77268 
L 256.673363 71.77268 
L 256.673363 69.888497 
L 256.791869 69.888497 
L 256.791869 68.946405 
L 257.611113 68.946405 
L 257.637081 67.062222 
L 257.91533 67.062222 
L 257.91533 66.120131 
L 258.562872 66.120131 
L 258.562872 65.178039 
L 258.941697 65.178039 
L 258.941697 64.235948 
L 259.183101 64.235948 
L 259.183101 63.293856 
L 260.901999 63.293856 
L 260.901999 62.351765 
L 261.11022 62.351765 
L 261.181608 60.467582 
L 262.148375 60.467582 
L 262.148375 59.52549 
L 262.658871 59.52549 
L 262.658871 58.583399 
L 263.82533 58.583399 
L 263.82533 57.641307 
L 265.857915 57.641307 
L 265.857915 56.699216 
L 266.823789 56.699216 
L 266.894572 53.872941 
L 267.202613 53.872941 
L 267.202613 52.93085 
L 267.322038 52.93085 
L 267.322038 51.988758 
L 268.1753 51.988758 
L 268.1753 51.046667 
L 268.573025 51.046667 
L 268.573025 50.104575 
L 269.020511 50.104575 
L 269.020511 49.162484 
L 269.442524 49.162484 
L 269.442524 48.220392 
L 271.640036 48.220392 
L 271.640036 47.278301 
L 272.069733 47.278301 
L 272.069733 46.336209 
L 272.922995 46.336209 
L 272.922995 45.394118 
L 273.531806 45.394118 
L 273.531806 44.452026 
L 273.742239 44.452026 
L 273.768206 42.567843 
L 275.155489 42.567843 
L 275.155489 41.625752 
L 278.20722 41.625752 
L 278.279501 39.741569 
L 278.586044 39.741569 
L 278.586044 38.799477 
L 280.825955 38.799477 
L 280.825955 37.857386 
L 282.954915 37.857386 
L 282.954915 36.915294 
L 283.333739 36.915294 
L 283.364615 35.031111 
L 283.890263 35.031111 
L 283.890263 34.08902 
L 284.709827 34.08902 
L 284.709827 33.146928 
L 285.57365 33.146928 
L 285.57365 32.204837 
L 285.728343 32.204837 
L 285.728343 31.262745 
L 286.53892 31.262745 
L 286.53892 30.320654 
L 288.004916 30.320654 
L 288.085758 28.436471 
L 288.530564 28.436471 
L 288.611406 26.552288 
L 289.350129 26.552288 
L 289.43097 24.668105 
L 290.368644 24.668105 
L 290.449486 22.783922 
L 291.11747 22.783922 
L 291.11747 21.84183 
L 291.286615 21.84183 
L 291.286615 20.899739 
L 292.060769 20.899739 
L 292.060769 19.957647 
L 295.757772 19.957647 
L 295.838614 18.073464 
L 295.924037 18.073464 
L 295.924037 17.131373 
L 296.449685 17.131373 
L 296.449685 16.189281 
L 296.701071 16.189281 
L 296.781913 14.305098 
L 297.26925 14.305098 
L 297.26925 13.363007 
L 298.287765 13.363007 
L 298.287765 12.420915 
L 303.676893 12.420915 
L 303.676893 11.478824 
L 304.620192 11.478824 
L 304.620192 10.536732 
L 307.192963 10.536732 
L 307.192963 9.594641 
L 348.342511 9.594641 
L 348.342511 8.652549 
L 352.982812 8.652549 
L 353.063654 6.768366 
L 360.901933 6.768366 
L 360.901933 5.826275 
L 446.924475 5.826275 
L 446.924475 5.826275 
" clip-path="url(#p90a961af87)" style="fill: none; stroke: #000000; stroke-width: 3; stroke-linecap: square"/>
   </g>
   <g id="line2d_34">
    <path clip-path="url(#p90a961af87)" style="fill: none; stroke: #000000; stroke-width: 3; stroke-linecap: square"/>
   </g>
   <g id="line2d_35">
    <path d="M 34.16 288.453725 
L 163.206655 288.453725 
L 163.206655 287.197603 
L 169.47707 287.197603 
L 169.47707 285.941481 
L 169.926563 285.941481 
L 169.926563 284.685359 
L 170.058413 284.685359 
L 170.058413 283.429237 
L 173.021019 283.429237 
L 173.021019 282.173115 
L 175.911327 282.173115 
L 175.911327 280.916993 
L 176.023983 280.916993 
L 176.084585 277.148627 
L 176.196978 277.148627 
L 176.196978 275.892505 
L 176.328827 275.892505 
L 176.328827 274.636383 
L 179.740927 274.636383 
L 179.740927 273.380261 
L 179.872777 273.380261 
L 179.953488 270.868017 
L 180.120514 270.868017 
L 180.120514 269.611895 
L 181.156934 269.611895 
L 181.20599 267.099651 
L 181.584059 267.099651 
L 181.584059 265.843529 
L 182.631235 265.843529 
L 182.631235 264.587407 
L 182.743891 264.587407 
L 182.804493 259.562919 
L 182.875741 259.562919 
L 182.936343 255.794553 
L 185.483335 255.794553 
L 185.483335 254.538431 
L 186.223903 254.538431 
L 186.223903 253.282309 
L 186.840422 253.282309 
L 186.840422 252.026187 
L 186.972272 252.026187 
L 186.972272 250.770065 
L 187.854474 250.770065 
L 187.925898 247.001699 
L 188.008692 247.001699 
L 188.057748 244.489455 
L 189.767852 244.489455 
L 189.767852 243.233333 
L 190.144616 243.233333 
L 190.144616 241.977211 
L 190.535831 241.977211 
L 190.535831 240.721089 
L 191.398423 240.721089 
L 191.398423 239.464967 
L 192.203244 239.464967 
L 192.203244 238.208845 
L 192.335093 238.208845 
L 192.335093 236.952723 
L 192.65816 236.952723 
L 192.65816 235.696601 
L 192.770816 235.696601 
L 192.831418 231.928235 
L 193.055823 231.928235 
L 193.055823 230.672113 
L 193.57706 230.672113 
L 193.57706 229.415991 
L 194.288731 229.415991 
L 194.288731 228.159869 
L 194.401387 228.159869 
L 194.46199 224.391503 
L 196.864524 224.391503 
L 196.867347 221.879259 
L 196.996374 221.879259 
L 196.996374 220.623137 
L 197.255739 220.623137 
L 197.255739 219.367015 
L 197.387589 219.367015 
L 197.387589 218.110893 
L 197.903767 218.110893 
L 197.952823 215.598649 
L 198.497918 215.598649 
L 198.497918 214.342527 
L 199.534339 214.342527 
L 199.583394 211.830283 
L 199.775731 211.830283 
L 199.775731 210.574161 
L 199.907581 210.574161 
L 199.907581 209.318039 
L 200.296968 209.318039 
L 200.296968 208.061917 
L 200.428817 208.061917 
L 200.428817 206.805795 
L 202.230169 206.805795 
L 202.230169 205.549673 
L 203.86074 205.549673 
L 203.86074 204.293551 
L 206.891449 204.293551 
L 206.891449 203.037429 
L 207.282664 203.037429 
L 207.282664 201.781307 
L 208.522021 201.781307 
L 208.522021 200.525185 
L 208.913236 200.525185 
L 208.913236 199.269063 
L 209.802656 199.269063 
L 209.802656 198.012941 
L 210.323893 198.012941 
L 210.323893 196.756819 
L 211.433227 196.756819 
L 211.433227 195.500697 
L 211.954464 195.500697 
L 211.954464 194.244575 
L 215.273033 194.244575 
L 215.273033 192.988453 
L 219.931384 192.988453 
L 219.931384 191.732331 
L 223.206689 191.732331 
L 223.206689 190.476209 
L 223.330303 190.476209 
L 223.330303 189.220087 
L 225.039034 189.220087 
L 225.039034 187.963965 
L 225.575565 187.963965 
L 225.601445 185.451721 
L 225.825425 185.451721 
L 225.825425 184.195599 
L 227.047402 184.195599 
L 227.047402 182.939477 
L 227.816435 182.939477 
L 227.86504 180.427233 
L 228.327613 180.427233 
L 228.327613 179.171111 
L 228.79559 179.171111 
L 228.79559 177.914989 
L 229.442465 177.914989 
L 229.442465 176.658867 
L 229.762859 176.658867 
L 229.871134 174.146623 
L 230.037489 174.146623 
L 230.037489 172.890501 
L 231.263959 172.890501 
L 231.263959 171.634379 
L 231.460622 171.634379 
L 231.460622 170.378257 
L 231.785333 170.378257 
L 231.785333 169.122135 
L 232.192842 169.122135 
L 232.192842 167.866013 
L 232.83066 167.866013 
L 232.83066 166.609891 
L 232.97269 166.609891 
L 232.985964 164.097647 
L 233.535101 164.097647 
L 233.535101 162.841525 
L 233.759081 162.841525 
L 233.759081 161.585403 
L 234.224782 161.585403 
L 234.33247 159.073159 
L 234.981058 159.073159 
L 234.981058 157.817037 
L 235.314568 157.817037 
L 235.407334 155.304793 
L 235.750091 155.304793 
L 235.750091 154.048671 
L 236.247256 154.048671 
L 236.265896 151.536427 
L 236.384883 151.536427 
L 236.384883 150.280305 
L 236.729246 150.280305 
L 236.729246 149.024183 
L 237.376121 149.024183 
L 237.376121 147.768061 
L 237.489011 147.768061 
L 237.489011 146.511939 
L 237.804791 146.511939 
L 237.804791 145.255817 
L 238.093614 145.255817 
L 238.093614 143.999695 
L 238.519764 143.999695 
L 238.519764 142.743573 
L 238.656025 142.743573 
L 238.656025 141.487451 
L 238.880005 141.487451 
L 238.880005 140.231329 
L 239.394278 140.231329 
L 239.394278 138.975207 
L 239.776491 138.975207 
L 239.776491 137.719085 
L 240.065684 137.719085 
L 240.126498 133.950719 
L 240.178782 133.950719 
L 240.178782 131.438475 
L 240.352223 131.438475 
L 240.352223 130.182353 
L 240.542238 130.182353 
L 240.542238 128.926231 
L 240.871015 128.926231 
L 240.88793 126.413987 
L 241.837563 126.413987 
L 241.85017 123.901743 
L 241.981494 123.901743 
L 241.981494 122.645621 
L 242.497045 122.645621 
L 242.596661 120.133377 
L 242.925714 120.133377 
L 242.925714 118.877255 
L 243.159072 118.877255 
L 243.159072 117.621133 
L 243.383052 117.621133 
L 243.464603 115.108889 
L 244.071473 115.108889 
L 244.071473 113.852767 
L 244.199553 113.852767 
L 244.199553 112.596645 
L 244.515202 112.596645 
L 244.605029 110.084401 
L 244.640705 110.084401 
L 244.640705 107.572157 
L 245.173335 107.572157 
L 245.247422 105.059913 
L 245.374062 105.059913 
L 245.374062 103.803791 
L 245.735746 103.803791 
L 245.735746 102.547669 
L 245.959725 102.547669 
L 246.024857 100.035425 
L 246.353217 100.035425 
L 246.443417 97.523181 
L 247.000092 97.523181 
L 247.000092 96.267059 
L 247.181703 96.267059 
L 247.181703 95.010937 
L 247.428762 95.010937 
L 247.517882 91.242571 
L 247.677691 91.242571 
L 247.677691 89.986449 
L 247.950735 89.986449 
L 248.04733 87.474205 
L 248.285879 87.474205 
L 248.285879 86.218083 
L 248.92989 86.218083 
L 249.018249 81.193595 
L 249.320477 81.193595 
L 249.320477 79.937473 
L 249.576765 79.937473 
L 249.576765 78.681351 
L 249.750469 78.681351 
L 249.750469 77.425229 
L 250.005435 77.425229 
L 250.005435 76.169107 
L 250.488047 76.169107 
L 250.488047 74.912985 
L 250.738399 74.912985 
L 250.738399 73.656863 
L 251.456617 73.656863 
L 251.456617 72.400741 
L 251.576566 72.400741 
L 251.594922 69.888497 
L 251.864984 69.888497 
L 251.864984 68.632375 
L 251.979806 68.632375 
L 251.979806 66.120131 
L 252.327142 66.120131 
L 252.327142 64.864009 
L 253.406803 64.864009 
L 253.406803 63.607887 
L 253.823524 63.607887 
L 253.887458 61.095643 
L 254.949971 61.095643 
L 254.949971 59.839521 
L 255.229459 59.839521 
L 255.229459 58.583399 
L 255.843104 58.583399 
L 255.91854 56.071155 
L 256.274787 56.071155 
L 256.274787 53.558911 
L 256.400197 53.558911 
L 256.440779 49.790545 
L 257.416693 49.790545 
L 257.416693 48.534423 
L 257.90985 48.534423 
L 257.90985 47.278301 
L 258.243492 47.278301 
L 258.243492 46.022179 
L 259.145017 46.022179 
L 259.244952 43.509935 
L 259.691383 43.509935 
L 259.691383 42.253813 
L 260.213522 42.253813 
L 260.305027 39.741569 
L 260.486524 39.741569 
L 260.486524 38.485447 
L 262.280907 38.485447 
L 262.280907 35.973203 
L 263.178769 35.973203 
L 263.178769 34.717081 
L 263.606941 34.717081 
L 263.606941 33.460959 
L 263.77988 33.460959 
L 263.77988 30.948715 
L 263.986364 30.948715 
L 264.083619 28.436471 
L 264.600009 28.436471 
L 264.600009 27.180349 
L 266.750045 27.180349 
L 266.750045 25.924227 
L 267.640692 25.924227 
L 267.718614 23.411983 
L 267.901922 23.411983 
L 267.901922 22.155861 
L 269.620008 22.155861 
L 269.620008 19.643617 
L 271.491457 19.643617 
L 271.491457 18.387495 
L 271.935674 18.387495 
L 271.935674 17.131373 
L 272.105102 17.131373 
L 272.105102 15.875251 
L 272.590173 15.875251 
L 272.590173 14.619129 
L 273.558742 14.619129 
L 273.558742 13.363007 
L 275.407015 13.363007 
L 275.407015 12.106885 
L 277.331585 12.106885 
L 277.331585 10.850763 
L 277.94523 10.850763 
L 277.94523 9.594641 
L 279.440767 9.594641 
L 279.440767 8.338519 
L 281.247143 8.338519 
L 281.247143 7.082397 
L 285.280894 7.082397 
L 285.280894 5.826275 
L 446.924475 5.826275 
L 446.924475 5.826275 
" clip-path="url(#p90a961af87)" style="fill: none; stroke: #00bfbf; stroke-width: 3; stroke-linecap: square"/>
   </g>
   <g id="line2d_36">
    <path clip-path="url(#p90a961af87)" style="fill: none; stroke: #00bfbf; stroke-width: 3; stroke-linecap: square"/>
   </g>
   <g id="line2d_37">
    <path d="M 34.16 288.453725 
L 179.765536 288.453725 
L 179.765536 287.197603 
L 181.150505 287.197603 
L 181.150505 285.941481 
L 182.143095 285.941481 
L 182.143095 284.685359 
L 182.59753 284.685359 
L 182.59753 283.429237 
L 183.334853 283.429237 
L 183.334853 282.173115 
L 184.02899 282.173115 
L 184.13159 279.660871 
L 185.516559 279.660871 
L 185.620727 277.148627 
L 186.326436 277.148627 
L 186.326436 275.892505 
L 186.509148 275.892505 
L 186.527133 273.380261 
L 186.954696 273.380261 
L 186.963584 270.868017 
L 187.700907 270.868017 
L 187.700907 269.611895 
L 187.912102 269.611895 
L 187.912102 268.355773 
L 188.148461 268.355773 
L 188.148461 267.099651 
L 188.395044 267.099651 
L 188.395044 265.843529 
L 188.904692 265.843529 
L 188.904692 264.587407 
L 189.340543 264.587407 
L 189.359127 262.075163 
L 189.986781 262.075163 
L 190.096451 259.562919 
L 190.692489 259.562919 
L 190.790588 257.050675 
L 191.089137 257.050675 
L 191.089137 255.794553 
L 191.32075 255.794553 
L 191.384129 253.282309 
L 192.382324 253.282309 
L 192.382324 252.026187 
L 192.514515 252.026187 
L 192.514515 250.770065 
L 193.088033 250.770065 
L 193.088033 249.513943 
L 193.706597 249.513943 
L 193.716294 247.001699 
L 194.162391 247.001699 
L 194.162391 245.745577 
L 194.659003 245.745577 
L 194.659003 244.489455 
L 194.910058 244.489455 
L 194.910058 243.233333 
L 195.455191 243.233333 
L 195.455191 241.977211 
L 195.750183 241.977211 
L 195.750183 240.721089 
L 196.102141 240.721089 
L 196.102141 239.464967 
L 196.510109 239.464967 
L 196.510109 238.208845 
L 197.584973 238.208845 
L 197.584973 236.952723 
L 197.850734 236.952723 
L 197.895078 234.440479 
L 198.145727 234.440479 
L 198.145727 233.184357 
L 198.528445 233.184357 
L 198.528445 231.928235 
L 198.887668 231.928235 
L 198.969942 229.415991 
L 199.025057 229.415991 
L 199.025057 228.159869 
L 199.342103 228.159869 
L 199.342103 226.903747 
L 199.962532 226.903747 
L 199.962532 225.647625 
L 200.079426 225.647625 
L 200.079426 224.391503 
L 200.416968 224.391503 
L 200.416968 223.135381 
L 200.773564 223.135381 
L 200.773564 221.879259 
L 200.923989 221.879259 
L 200.923989 220.623137 
L 201.154291 220.623137 
L 201.154291 219.367015 
L 201.4206 219.367015 
L 201.4206 218.110893 
L 201.848428 218.110893 
L 201.848428 216.854771 
L 202.3653 216.854771 
L 202.3653 215.598649 
L 203.071009 215.598649 
L 203.071009 214.342527 
L 203.440165 214.342527 
L 203.440165 213.086405 
L 203.699269 213.086405 
L 203.699269 211.830283 
L 204.145873 211.830283 
L 204.145873 210.574161 
L 204.774134 210.574161 
L 204.774134 209.318039 
L 204.893034 209.318039 
L 204.893034 208.061917 
L 205.967899 208.061917 
L 205.967899 206.805795 
L 206.085116 206.805795 
L 206.085116 205.549673 
L 207.159981 205.549673 
L 207.159981 204.293551 
L 207.83371 204.293551 
L 207.83371 203.037429 
L 208.128702 203.037429 
L 208.128702 201.781307 
L 208.908575 201.781307 
L 208.908575 200.525185 
L 209.203567 200.525185 
L 209.203567 199.269063 
L 210.906964 199.269063 
L 210.906964 198.012941 
L 211.403576 198.012941 
L 211.403576 196.756819 
L 211.981829 196.756819 
L 211.981829 195.500697 
L 212.478441 195.500697 
L 212.478441 194.244575 
L 217.735021 194.244575 
L 217.735021 192.988453 
L 219.457073 192.988453 
L 219.457073 191.732331 
L 219.844289 191.732331 
L 219.844289 190.476209 
L 222.205109 190.476209 
L 222.205109 189.220087 
L 222.321311 189.220087 
L 222.321311 187.963965 
L 222.553264 187.963965 
L 222.553264 186.707843 
L 223.417778 186.707843 
L 223.417778 185.451721 
L 223.927161 185.451721 
L 223.927161 184.195599 
L 224.043363 184.195599 
L 224.043363 182.939477 
L 224.275316 182.939477 
L 224.314376 180.427233 
L 224.430579 180.427233 
L 224.430579 179.171111 
L 224.662531 179.171111 
L 224.662531 177.914989 
L 225.13983 177.914989 
L 225.13983 176.658867 
L 225.527046 176.658867 
L 225.575565 174.146623 
L 226.518149 174.146623 
L 226.573538 171.634379 
L 226.960306 171.634379 
L 226.960306 170.378257 
L 228.240201 170.378257 
L 228.328146 166.609891 
L 228.627416 166.609891 
L 228.682805 162.841525 
L 229.069573 162.841525 
L 229.069573 161.585403 
L 229.762859 161.585403 
L 229.762859 160.329281 
L 230.037489 160.329281 
L 230.050198 157.817037 
L 230.314979 157.817037 
L 230.314979 156.560915 
L 230.437413 156.560915 
L 230.437413 155.304793 
L 231.785333 155.304793 
L 231.789774 152.792549 
L 232.037031 152.792549 
L 232.147795 150.280305 
L 232.424246 150.280305 
L 232.424246 149.024183 
L 233.324071 149.024183 
L 233.394755 146.511939 
L 233.511826 146.511939 
L 233.511826 145.255817 
L 233.899041 145.255817 
L 233.899041 143.999695 
L 234.224782 143.999695 
L 234.33247 141.487451 
L 235.021892 141.487451 
L 235.116807 138.975207 
L 235.314568 138.975207 
L 235.424101 136.462963 
L 235.504022 136.462963 
L 235.504022 135.206841 
L 236.247256 135.206841 
L 236.247256 133.950719 
L 236.617883 133.950719 
L 236.620004 131.438475 
L 236.734085 131.438475 
L 236.743944 128.926231 
L 236.966038 128.926231 
L 236.966038 127.670109 
L 237.131159 127.670109 
L 237.146153 125.157865 
L 237.533368 125.157865 
L 237.533368 123.901743 
L 237.794159 123.901743 
L 237.830552 121.389499 
L 237.910361 121.389499 
L 237.910361 120.133377 
L 238.142314 120.133377 
L 238.142314 118.877255 
L 238.342056 118.877255 
L 238.342056 117.621133 
L 238.519764 117.621133 
L 238.519764 116.365011 
L 238.729271 116.365011 
L 238.729271 115.108889 
L 239.006828 115.108889 
L 239.006828 113.852767 
L 239.776491 113.852767 
L 239.776491 112.596645 
L 240.178782 112.596645 
L 240.178782 111.340523 
L 240.542238 111.340523 
L 240.542238 110.084401 
L 240.930923 110.084401 
L 240.986312 107.572157 
L 241.373079 107.572157 
L 241.373079 106.316035 
L 241.837563 106.316035 
L 241.837563 105.059913 
L 241.981494 105.059913 
L 241.981494 103.803791 
L 242.107199 103.803791 
L 242.162588 101.291547 
L 242.549356 101.291547 
L 242.549356 100.035425 
L 242.692543 100.035425 
L 242.740919 97.523181 
L 243.917196 97.523181 
L 243.917196 96.267059 
L 244.071473 96.267059 
L 244.071473 95.010937 
L 244.640705 95.010937 
L 244.727753 92.498693 
L 245.904029 92.498693 
L 245.904029 91.242571 
L 246.024857 91.242571 
L 246.024857 89.986449 
L 246.202548 89.986449 
L 246.202548 88.730327 
L 246.443417 88.730327 
L 246.443417 87.474205 
L 247.154467 87.474205 
L 247.154467 86.218083 
L 247.378824 86.218083 
L 247.378824 84.961961 
L 247.517882 84.961961 
L 247.517882 82.449717 
L 247.677691 82.449717 
L 247.677691 81.193595 
L 247.807529 81.193595 
L 247.807529 79.937473 
L 248.04733 79.937473 
L 248.04733 78.681351 
L 248.935687 78.681351 
L 248.983805 76.169107 
L 249.434666 76.169107 
L 249.434666 74.912985 
L 249.836874 74.912985 
L 249.836874 73.656863 
L 250.488047 73.656863 
L 250.488047 72.400741 
L 250.610942 72.400741 
L 250.610942 71.144619 
L 250.738399 71.144619 
L 250.738399 69.888497 
L 251.013151 69.888497 
L 251.032778 67.376253 
L 251.449448 67.376253 
L 251.456617 64.864009 
L 251.576566 64.864009 
L 251.576566 63.607887 
L 251.864984 63.607887 
L 251.864984 62.351765 
L 251.979806 62.351765 
L 251.979806 59.839521 
L 252.209054 59.839521 
L 252.209054 58.583399 
L 253.887458 58.583399 
L 253.887458 57.327277 
L 254.949971 57.327277 
L 254.949971 56.071155 
L 255.229459 56.071155 
L 255.229459 54.815033 
L 255.843104 54.815033 
L 255.91854 52.302789 
L 256.274787 52.302789 
L 256.274787 49.790545 
L 256.440779 49.790545 
L 256.440779 48.534423 
L 257.416693 48.534423 
L 257.416693 47.278301 
L 258.243492 47.278301 
L 258.243492 46.022179 
L 258.954541 46.022179 
L 258.954541 44.766057 
L 259.145017 44.766057 
L 259.244952 42.253813 
L 259.691383 42.253813 
L 259.691383 40.997691 
L 260.213522 40.997691 
L 260.305027 38.485447 
L 262.280907 38.485447 
L 262.280907 37.229325 
L 263.178769 37.229325 
L 263.178769 35.973203 
L 263.606941 35.973203 
L 263.606941 34.717081 
L 263.77988 34.717081 
L 263.77988 32.204837 
L 263.986364 32.204837 
L 264.083619 29.692593 
L 264.600009 29.692593 
L 264.600009 28.436471 
L 264.794669 28.436471 
L 264.794669 27.180349 
L 266.750045 27.180349 
L 266.750045 25.924227 
L 267.640692 25.924227 
L 267.718614 23.411983 
L 267.901922 23.411983 
L 267.901922 22.155861 
L 269.620008 22.155861 
L 269.620008 19.643617 
L 271.491457 19.643617 
L 271.491457 18.387495 
L 271.935674 18.387495 
L 271.935674 17.131373 
L 272.105102 17.131373 
L 272.105102 15.875251 
L 272.590173 15.875251 
L 272.590173 14.619129 
L 273.558742 14.619129 
L 273.558742 13.363007 
L 275.407015 13.363007 
L 275.407015 12.106885 
L 277.331585 12.106885 
L 277.331585 10.850763 
L 277.94523 10.850763 
L 277.94523 9.594641 
L 279.440767 9.594641 
L 279.440767 8.338519 
L 281.247143 8.338519 
L 281.247143 7.082397 
L 285.280894 7.082397 
L 285.280894 5.826275 
L 446.924475 5.826275 
L 446.924475 5.826275 
" clip-path="url(#p90a961af87)" style="fill: none; stroke: #bf00bf; stroke-width: 3; stroke-linecap: square"/>
   </g>
   <g id="line2d_38">
    <path clip-path="url(#p90a961af87)" style="fill: none; stroke: #bf00bf; stroke-width: 3; stroke-linecap: square"/>
   </g>
   <g id="line2d_39">
    <path d="M 34.16 288.453725 
L 181.993657 288.453725 
L 181.993657 287.197603 
L 183.670953 287.197603 
L 183.670953 285.941481 
L 183.963714 285.941481 
L 183.963714 284.685359 
L 185.139022 284.685359 
L 185.139022 283.429237 
L 185.584362 283.429237 
L 185.584362 282.173115 
L 186.89378 282.173115 
L 186.89378 280.916993 
L 187.024719 280.916993 
L 187.024719 279.660871 
L 187.871763 279.660871 
L 187.871763 278.404749 
L 188.104633 278.404749 
L 188.104633 277.148627 
L 188.702015 277.148627 
L 188.702015 275.892505 
L 188.994776 275.892505 
L 188.994776 274.636383 
L 189.159891 274.636383 
L 189.214062 272.124139 
L 189.43038 272.124139 
L 189.43038 270.868017 
L 190.170085 270.868017 
L 190.170085 269.611895 
L 190.615424 269.611895 
L 190.615424 268.355773 
L 190.837187 268.355773 
L 190.837187 267.099651 
L 191.129948 267.099651 
L 191.193748 264.587407 
L 191.924842 264.587407 
L 191.924842 263.331285 
L 192.305257 263.331285 
L 192.305257 262.075163 
L 192.53182 262.075163 
L 192.53182 260.819041 
L 192.750596 260.819041 
L 192.750596 259.562919 
L 192.902825 259.562919 
L 192.902825 258.306797 
L 193.135696 258.306797 
L 193.180878 255.794553 
L 194.060014 255.794553 
L 194.060014 254.538431 
L 194.245124 254.538431 
L 194.245124 253.282309 
L 194.461442 253.282309 
L 194.461442 252.026187 
L 195.037997 252.026187 
L 195.037997 250.770065 
L 195.180168 250.770065 
L 195.270868 248.257821 
L 195.792094 248.257821 
L 195.792094 247.001699 
L 196.22481 247.001699 
L 196.22481 245.745577 
L 196.380296 245.745577 
L 196.380296 244.489455 
L 196.596614 244.489455 
L 196.596614 243.233333 
L 197.562882 243.233333 
L 197.616754 240.721089 
L 198.211941 240.721089 
L 198.211941 239.464967 
L 198.359982 239.464967 
L 198.359982 238.208845 
L 199.29405 238.208845 
L 199.333738 235.696601 
L 199.586811 235.696601 
L 199.586811 234.440479 
L 199.698054 234.440479 
L 199.698054 233.184357 
L 200.21123 233.184357 
L 200.21123 231.928235 
L 200.347113 231.928235 
L 200.347113 230.672113 
L 200.762119 230.672113 
L 200.823156 228.159869 
L 201.011034 228.159869 
L 201.011034 226.903747 
L 201.207459 226.903747 
L 201.303795 224.391503 
L 202.346402 224.391503 
L 202.346402 223.135381 
L 202.479103 223.135381 
L 202.516877 220.623137 
L 202.924442 220.623137 
L 202.958328 218.110893 
L 203.49486 218.110893 
L 203.49486 216.854771 
L 203.72773 216.854771 
L 203.72773 215.598649 
L 204.23386 215.598649 
L 204.23386 214.342527 
L 204.837159 214.342527 
L 204.837159 213.086405 
L 205.053477 213.086405 
L 205.053477 211.830283 
L 205.211844 211.830283 
L 205.211844 210.574161 
L 205.444714 210.574161 
L 205.444714 209.318039 
L 206.554142 209.318039 
L 206.554142 208.061917 
L 206.77046 208.061917 
L 206.816845 205.549673 
L 208.154917 205.549673 
L 208.154917 204.293551 
L 208.533829 204.293551 
L 208.533829 203.037429 
L 208.803975 203.037429 
L 208.803975 201.781307 
L 209.8719 201.781307 
L 209.8719 200.525185 
L 210.520959 200.525185 
L 210.520959 199.269063 
L 210.803265 199.269063 
L 210.803265 198.012941 
L 211.415191 198.012941 
L 211.415191 196.756819 
L 212.520249 196.756819 
L 212.520249 195.500697 
L 213.132175 195.500697 
L 213.132175 194.244575 
L 217.794788 194.244575 
L 217.794788 192.988453 
L 220.266442 192.988453 
L 220.266442 191.732331 
L 220.772898 191.732331 
L 220.772898 190.476209 
L 221.075403 190.476209 
L 221.075403 189.220087 
L 221.810588 189.220087 
L 221.810588 187.963965 
L 222.043251 187.963965 
L 222.043251 186.707843 
L 222.677778 186.707843 
L 222.677778 185.451721 
L 222.869292 185.451721 
L 222.869292 184.195599 
L 223.818054 184.195599 
L 223.818054 182.939477 
L 224.550644 182.939477 
L 224.550644 181.683355 
L 224.821259 181.683355 
L 224.821259 180.427233 
L 225.149432 180.427233 
L 225.238638 177.914989 
L 225.270664 177.914989 
L 225.270664 176.658867 
L 225.575565 176.658867 
L 225.655888 174.146623 
L 225.958392 174.146623 
L 225.958392 172.890501 
L 226.693577 172.890501 
L 226.693577 171.634379 
L 226.92624 171.634379 
L 227.022298 169.122135 
L 227.077458 169.122135 
L 227.077458 166.609891 
L 227.528754 166.609891 
L 227.528754 165.353769 
L 227.752281 165.353769 
L 227.831259 162.841525 
L 228.357306 162.841525 
L 228.357306 161.585403 
L 228.566443 161.585403 
L 228.566443 160.329281 
L 228.701044 160.329281 
L 228.799106 157.817037 
L 229.625147 157.817037 
L 229.704249 155.304793 
L 229.762859 155.304793 
L 229.762859 154.048671 
L 230.037489 154.048671 
L 230.121628 151.536427 
L 230.153653 151.536427 
L 230.222434 149.024183 
L 230.524905 149.024183 
L 230.57391 146.511939 
L 230.82896 146.511939 
L 230.82896 145.255817 
L 231.335416 145.255817 
L 231.335416 143.999695 
L 231.577115 143.999695 
L 231.637921 141.487451 
L 231.785333 141.487451 
L 231.785333 140.231329 
L 231.960448 140.231329 
L 232.026519 135.206841 
L 232.373105 135.206841 
L 232.373105 133.950719 
L 232.605768 133.950719 
L 232.605768 132.694597 
L 233.431809 132.694597 
L 233.431809 131.438475 
L 233.833314 131.438475 
L 233.833314 128.926231 
L 234.224782 128.926231 
L 234.33247 126.413987 
L 234.380572 126.413987 
L 234.380572 125.157865 
L 235.008457 125.157865 
L 235.105423 122.645621 
L 235.314568 122.645621 
L 235.407894 118.877255 
L 235.801156 118.877255 
L 235.833182 116.365011 
L 236.247256 116.365011 
L 236.247256 115.108889 
L 236.97829 115.108889 
L 236.97829 113.852767 
L 237.280761 113.852767 
L 237.280761 112.596645 
L 237.480111 112.596645 
L 237.480111 111.340523 
L 237.639976 111.340523 
L 237.639976 108.828279 
L 237.986566 108.828279 
L 237.986566 107.572157 
L 238.289071 107.572157 
L 238.289071 106.316035 
L 238.519764 106.316035 
L 238.519764 105.059913 
L 239.024256 105.059913 
L 239.024256 103.803791 
L 239.256919 103.803791 
L 239.256919 102.547669 
L 239.776491 102.547669 
L 239.776491 101.291547 
L 240.08296 101.291547 
L 240.178782 98.779303 
L 240.542238 98.779303 
L 240.542238 97.523181 
L 240.784952 97.523181 
L 240.784952 96.267059 
L 241.031722 96.267059 
L 241.087423 93.754815 
L 241.837563 93.754815 
L 241.837563 92.498693 
L 241.981494 92.498693 
L 242.034928 89.986449 
L 242.452306 89.986449 
L 242.484332 87.474205 
L 242.692543 87.474205 
L 242.692543 86.218083 
L 244.071473 86.218083 
L 244.071473 84.961961 
L 244.291126 84.961961 
L 244.291126 82.449717 
L 244.640705 82.449717 
L 244.640705 81.193595 
L 246.024857 81.193595 
L 246.024857 79.937473 
L 246.443417 79.937473 
L 246.443417 78.681351 
L 247.154467 78.681351 
L 247.154467 77.425229 
L 247.436102 77.425229 
L 247.517882 73.656863 
L 247.677691 73.656863 
L 247.738573 71.144619 
L 248.04733 71.144619 
L 248.04733 69.888497 
L 248.935687 69.888497 
L 248.935687 68.632375 
L 250.488047 68.632375 
L 250.488047 67.376253 
L 250.738399 67.376253 
L 250.738399 66.120131 
L 251.449448 66.120131 
L 251.456617 63.607887 
L 251.576566 63.607887 
L 251.576566 62.351765 
L 251.864984 62.351765 
L 251.864984 61.095643 
L 251.979806 61.095643 
L 251.979806 58.583399 
L 253.887458 58.583399 
L 253.887458 57.327277 
L 254.949971 57.327277 
L 254.949971 56.071155 
L 255.229459 56.071155 
L 255.229459 54.815033 
L 255.843104 54.815033 
L 255.91854 52.302789 
L 256.274787 52.302789 
L 256.274787 49.790545 
L 256.440779 49.790545 
L 256.440779 48.534423 
L 257.416693 48.534423 
L 257.416693 47.278301 
L 258.243492 47.278301 
L 258.243492 46.022179 
L 258.954541 46.022179 
L 258.954541 44.766057 
L 259.145017 44.766057 
L 259.244952 42.253813 
L 259.691383 42.253813 
L 259.691383 40.997691 
L 260.213522 40.997691 
L 260.305027 38.485447 
L 262.280907 38.485447 
L 262.280907 37.229325 
L 263.178769 37.229325 
L 263.178769 35.973203 
L 263.606941 35.973203 
L 263.606941 34.717081 
L 263.77988 34.717081 
L 263.77988 32.204837 
L 263.986364 32.204837 
L 264.083619 29.692593 
L 264.600009 29.692593 
L 264.600009 28.436471 
L 264.794669 28.436471 
L 264.794669 27.180349 
L 266.750045 27.180349 
L 266.750045 25.924227 
L 267.640692 25.924227 
L 267.718614 23.411983 
L 267.901922 23.411983 
L 267.901922 22.155861 
L 269.620008 22.155861 
L 269.620008 19.643617 
L 271.491457 19.643617 
L 271.491457 18.387495 
L 271.935674 18.387495 
L 271.935674 17.131373 
L 272.105102 17.131373 
L 272.105102 15.875251 
L 272.590173 15.875251 
L 272.590173 14.619129 
L 273.558742 14.619129 
L 273.558742 13.363007 
L 275.407015 13.363007 
L 275.407015 12.106885 
L 277.331585 12.106885 
L 277.331585 10.850763 
L 277.94523 10.850763 
L 277.94523 9.594641 
L 279.440767 9.594641 
L 279.440767 8.338519 
L 281.247143 8.338519 
L 281.247143 7.082397 
L 285.280894 7.082397 
L 285.280894 5.826275 
L 446.924475 5.826275 
L 446.924475 5.826275 
" clip-path="url(#p90a961af87)" style="fill: none; stroke: #ff0000; stroke-width: 3; stroke-linecap: square"/>
   </g>
   <g id="line2d_40">
    <path clip-path="url(#p90a961af87)" style="fill: none; stroke: #ff0000; stroke-width: 3; stroke-linecap: square"/>
   </g>
   <g id="line2d_41">
    <path d="M 240.542238 291.28 
L 240.542238 3 
" clip-path="url(#p90a961af87)" style="fill: none; stroke: #000000; stroke-width: 1.5; stroke-linecap: square"/>
   </g>
   <g id="line2d_42">
    <path d="M 34.16 147.14 
L 446.924475 147.14 
" clip-path="url(#p90a961af87)" style="fill: none; stroke-dasharray: 2,3.3; stroke-dashoffset: 0; stroke: #000000; stroke-width: 2"/>
   </g>
   <g id="patch_3">
    <path d="M 34.16 291.28 
L 34.16 3 
" style="fill: none; stroke: #000000; stroke-width: 0.8; stroke-linejoin: miter; stroke-linecap: square"/>
   </g>
   <g id="patch_4">
    <path d="M 446.924475 291.28 
L 446.924475 3 
" style="fill: none; stroke: #000000; stroke-width: 0.8; stroke-linejoin: miter; stroke-linecap: square"/>
   </g>
   <g id="patch_5">
    <path d="M 34.16 291.28 
L 446.924475 291.28 
" style="fill: none; stroke: #000000; stroke-width: 0.8; stroke-linejoin: miter; stroke-linecap: square"/>
   </g>
   <g id="patch_6">
    <path d="M 34.16 3 
L 446.924475 3 
" style="fill: none; stroke: #000000; stroke-width: 0.8; stroke-linejoin: miter; stroke-linecap: square"/>
   </g>
   <g id="text_6">
    <!-- f1-f5,20-D -->
    <g transform="translate(337.500436 285.5144)scale(0.2 -0.2)">
     <defs>
      <path id="DejaVuSans-35" d="M 691 4666 
L 3169 4666 
L 3169 4134 
L 1269 4134 
L 1269 2991 
Q 1406 3038 1543 3061 
Q 1681 3084 1819 3084 
Q 2600 3084 3056 2656 
Q 3513 2228 3513 1497 
Q 3513 744 3044 326 
Q 2575 -91 1722 -91 
Q 1428 -91 1123 -41 
Q 819 9 494 109 
L 494 744 
Q 775 591 1075 516 
Q 1375 441 1709 441 
Q 2250 441 2565 725 
Q 2881 1009 2881 1497 
Q 2881 1984 2565 2268 
Q 2250 2553 1709 2553 
Q 1456 2553 1204 2497 
Q 953 2441 691 2322 
L 691 4666 
z
" transform="scale(0.015625)"/>
      <path id="DejaVuSans-2c" d="M 750 794 
L 1409 794 
L 1409 256 
L 897 -744 
L 494 -744 
L 750 256 
L 750 794 
z
" transform="scale(0.015625)"/>
      <path id="DejaVuSans-32" d="M 1228 531 
L 3431 531 
L 3431 0 
L 469 0 
L 469 531 
Q 828 903 1448 1529 
Q 2069 2156 2228 2338 
Q 2531 2678 2651 2914 
Q 2772 3150 2772 3378 
Q 2772 3750 2511 3984 
Q 2250 4219 1831 4219 
Q 1534 4219 1204 4116 
Q 875 4013 500 3803 
L 500 4441 
Q 881 4594 1212 4672 
Q 1544 4750 1819 4750 
Q 2544 4750 2975 4387 
Q 3406 4025 3406 3419 
Q 3406 3131 3298 2873 
Q 3191 2616 2906 2266 
Q 2828 2175 2409 1742 
Q 1991 1309 1228 531 
z
" transform="scale(0.015625)"/>
      <path id="DejaVuSans-44" d="M 1259 4147 
L 1259 519 
L 2022 519 
Q 2988 519 3436 956 
Q 3884 1394 3884 2338 
Q 3884 3275 3436 3711 
Q 2988 4147 2022 4147 
L 1259 4147 
z
M 628 4666 
L 1925 4666 
Q 3281 4666 3915 4102 
Q 4550 3538 4550 2338 
Q 4550 1131 3912 565 
Q 3275 0 1925 0 
L 628 0 
L 628 4666 
z
" transform="scale(0.015625)"/>
     </defs>
     <use xlink:href="#DejaVuSans-66"/>
     <use xlink:href="#DejaVuSans-31" x="35.205078"/>
     <use xlink:href="#DejaVuSans-2d" x="98.828125"/>
     <use xlink:href="#DejaVuSans-66" x="134.912109"/>
     <use xlink:href="#DejaVuSans-35" x="170.117188"/>
     <use xlink:href="#DejaVuSans-2c" x="233.740234"/>
     <use xlink:href="#DejaVuSans-32" x="265.527344"/>
     <use xlink:href="#DejaVuSans-30" x="329.150391"/>
     <use xlink:href="#DejaVuSans-2d" x="392.773438"/>
     <use xlink:href="#DejaVuSans-44" x="428.857422"/>
    </g>
   </g>
   <g id="text_7">
    <!-- v2.6.1.158 -->
    <g style="fill: #808080" transform="translate(213.728175 286.317512)scale(0.1 -0.1)">
     <defs>
      <path id="DejaVuSans-2e" d="M 684 794 
L 1344 794 
L 1344 0 
L 684 0 
L 684 794 
z
" transform="scale(0.015625)"/>
      <path id="DejaVuSans-36" d="M 2113 2584 
Q 1688 2584 1439 2293 
Q 1191 2003 1191 1497 
Q 1191 994 1439 701 
Q 1688 409 2113 409 
Q 2538 409 2786 701 
Q 3034 994 3034 1497 
Q 3034 2003 2786 2293 
Q 2538 2584 2113 2584 
z
M 3366 4563 
L 3366 3988 
Q 3128 4100 2886 4159 
Q 2644 4219 2406 4219 
Q 1781 4219 1451 3797 
Q 1122 3375 1075 2522 
Q 1259 2794 1537 2939 
Q 1816 3084 2150 3084 
Q 2853 3084 3261 2657 
Q 3669 2231 3669 1497 
Q 3669 778 3244 343 
Q 2819 -91 2113 -91 
Q 1303 -91 875 529 
Q 447 1150 447 2328 
Q 447 3434 972 4092 
Q 1497 4750 2381 4750 
Q 2619 4750 2861 4703 
Q 3103 4656 3366 4563 
z
" transform="scale(0.015625)"/>
      <path id="DejaVuSans-38" d="M 2034 2216 
Q 1584 2216 1326 1975 
Q 1069 1734 1069 1313 
Q 1069 891 1326 650 
Q 1584 409 2034 409 
Q 2484 409 2743 651 
Q 3003 894 3003 1313 
Q 3003 1734 2745 1975 
Q 2488 2216 2034 2216 
z
M 1403 2484 
Q 997 2584 770 2862 
Q 544 3141 544 3541 
Q 544 4100 942 4425 
Q 1341 4750 2034 4750 
Q 2731 4750 3128 4425 
Q 3525 4100 3525 3541 
Q 3525 3141 3298 2862 
Q 3072 2584 2669 2484 
Q 3125 2378 3379 2068 
Q 3634 1759 3634 1313 
Q 3634 634 3220 271 
Q 2806 -91 2034 -91 
Q 1263 -91 848 271 
Q 434 634 434 1313 
Q 434 1759 690 2068 
Q 947 2378 1403 2484 
z
M 1172 3481 
Q 1172 3119 1398 2916 
Q 1625 2713 2034 2713 
Q 2441 2713 2670 2916 
Q 2900 3119 2900 3481 
Q 2900 3844 2670 4047 
Q 2441 4250 2034 4250 
Q 1625 4250 1398 4047 
Q 1172 3844 1172 3481 
z
" transform="scale(0.015625)"/>
     </defs>
     <use xlink:href="#DejaVuSans-76"/>
     <use xlink:href="#DejaVuSans-32" x="59.179688"/>
     <use xlink:href="#DejaVuSans-2e" x="122.802734"/>
     <use xlink:href="#DejaVuSans-36" x="154.589844"/>
     <use xlink:href="#DejaVuSans-2e" x="218.212891"/>
     <use xlink:href="#DejaVuSans-31" x="250"/>
     <use xlink:href="#DejaVuSans-2e" x="313.623047"/>
     <use xlink:href="#DejaVuSans-31" x="345.410156"/>
     <use xlink:href="#DejaVuSans-35" x="409.033203"/>
     <use xlink:href="#DejaVuSans-38" x="472.65625"/>
    </g>
   </g>
   <g id="legend_1">
    <g id="patch_7">
     <path d="M 303.7026 136.425 
L 432.924475 136.425 
Q 436.924475 136.425 436.924475 132.425 
L 436.924475 17 
Q 436.924475 13 432.924475 13 
L 303.7026 13 
Q 299.7026 13 299.7026 17 
L 299.7026 132.425 
Q 299.7026 136.425 303.7026 136.425 
z
" style="fill: #ffffff; opacity: 0.2; stroke: #cccccc; stroke-linejoin: miter"/>
    </g>
    <g id="line2d_43">
     <path d="M 307.7026 29.196875 
L 327.7026 29.196875 
L 347.7026 29.196875 
" style="fill: none; stroke: #000000; stroke-width: 3; stroke-linecap: square"/>
    </g>
    <g id="text_8">
     <!-- 1: 4/4 -->
     <g transform="translate(363.7026 36.196875)scale(0.2 -0.2)">
      <defs>
       <path id="DejaVuSans-3a" d="M 750 794 
L 1409 794 
L 1409 0 
L 750 0 
L 750 794 
z
M 750 3309 
L 1409 3309 
L 1409 2516 
L 750 2516 
L 750 3309 
z
" transform="scale(0.015625)"/>
       <path id="DejaVuSans-34" d="M 2419 4116 
L 825 1625 
L 2419 1625 
L 2419 4116 
z
M 2253 4666 
L 3047 4666 
L 3047 1625 
L 3713 1625 
L 3713 1100 
L 3047 1100 
L 3047 0 
L 2419 0 
L 2419 1100 
L 313 1100 
L 313 1709 
L 2253 4666 
z
" transform="scale(0.015625)"/>
       <path id="DejaVuSans-2f" d="M 1625 4666 
L 2156 4666 
L 531 -594 
L 0 -594 
L 1625 4666 
z
" transform="scale(0.015625)"/>
      </defs>
      <use xlink:href="#DejaVuSans-31"/>
      <use xlink:href="#DejaVuSans-3a" x="63.623047"/>
      <use xlink:href="#DejaVuSans-20" x="97.314453"/>
      <use xlink:href="#DejaVuSans-34" x="129.101562"/>
      <use xlink:href="#DejaVuSans-2f" x="192.724609"/>
      <use xlink:href="#DejaVuSans-34" x="226.416016"/>
     </g>
    </g>
    <g id="line2d_44">
     <path d="M 307.7026 58.553125 
L 327.7026 58.553125 
L 347.7026 58.553125 
" style="fill: none; stroke: #00bfbf; stroke-width: 3; stroke-linecap: square"/>
    </g>
    <g id="text_9">
     <!-- -1: 3/3 -->
     <g transform="translate(363.7026 65.553125)scale(0.2 -0.2)">
      <defs>
       <path id="DejaVuSans-33" d="M 2597 2516 
Q 3050 2419 3304 2112 
Q 3559 1806 3559 1356 
Q 3559 666 3084 287 
Q 2609 -91 1734 -91 
Q 1441 -91 1130 -33 
Q 819 25 488 141 
L 488 750 
Q 750 597 1062 519 
Q 1375 441 1716 441 
Q 2309 441 2620 675 
Q 2931 909 2931 1356 
Q 2931 1769 2642 2001 
Q 2353 2234 1838 2234 
L 1294 2234 
L 1294 2753 
L 1863 2753 
Q 2328 2753 2575 2939 
Q 2822 3125 2822 3475 
Q 2822 3834 2567 4026 
Q 2313 4219 1838 4219 
Q 1578 4219 1281 4162 
Q 984 4106 628 3988 
L 628 4550 
Q 988 4650 1302 4700 
Q 1616 4750 1894 4750 
Q 2613 4750 3031 4423 
Q 3450 4097 3450 3541 
Q 3450 3153 3228 2886 
Q 3006 2619 2597 2516 
z
" transform="scale(0.015625)"/>
      </defs>
      <use xlink:href="#DejaVuSans-2d"/>
      <use xlink:href="#DejaVuSans-31" x="36.083984"/>
      <use xlink:href="#DejaVuSans-3a" x="99.707031"/>
      <use xlink:href="#DejaVuSans-20" x="133.398438"/>
      <use xlink:href="#DejaVuSans-33" x="165.185547"/>
      <use xlink:href="#DejaVuSans-2f" x="228.808594"/>
      <use xlink:href="#DejaVuSans-33" x="262.5"/>
     </g>
    </g>
    <g id="line2d_45">
     <path d="M 307.7026 87.909375 
L 327.7026 87.909375 
L 347.7026 87.909375 
" style="fill: none; stroke: #bf00bf; stroke-width: 3; stroke-linecap: square"/>
    </g>
    <g id="text_10">
     <!-- -4: 3/3 -->
     <g transform="translate(363.7026 94.909375)scale(0.2 -0.2)">
      <use xlink:href="#DejaVuSans-2d"/>
      <use xlink:href="#DejaVuSans-34" x="36.083984"/>
      <use xlink:href="#DejaVuSans-3a" x="99.707031"/>
      <use xlink:href="#DejaVuSans-20" x="133.398438"/>
      <use xlink:href="#DejaVuSans-33" x="165.185547"/>
      <use xlink:href="#DejaVuSans-2f" x="228.808594"/>
      <use xlink:href="#DejaVuSans-33" x="262.5"/>
     </g>
    </g>
    <g id="line2d_46">
     <path d="M 307.7026 117.265625 
L 327.7026 117.265625 
L 347.7026 117.265625 
" style="fill: none; stroke: #ff0000; stroke-width: 3; stroke-linecap: square"/>
    </g>
    <g id="text_11">
     <!-- -8: 3/3 -->
     <g transform="translate(363.7026 124.265625)scale(0.2 -0.2)">
      <use xlink:href="#DejaVuSans-2d"/>
      <use xlink:href="#DejaVuSans-38" x="36.083984"/>
      <use xlink:href="#DejaVuSans-3a" x="99.707031"/>
      <use xlink:href="#DejaVuSans-20" x="133.398438"/>
      <use xlink:href="#DejaVuSans-33" x="165.185547"/>
      <use xlink:href="#DejaVuSans-2f" x="228.808594"/>
      <use xlink:href="#DejaVuSans-33" x="262.5"/>
     </g>
    </g>
   </g>
  </g>
 </g>
 <defs>
  <clipPath id="p90a961af87">
   <rect x="34.16" y="3" width="412.764475" height="288.28"/>
  </clipPath>
 </defs>
</svg>
