<?xml version="1.0" encoding="utf-8" standalone="no"?>
<!DOCTYPE svg PUBLIC "-//W3C//DTD SVG 1.1//EN"
  "http://www.w3.org/Graphics/SVG/1.1/DTD/svg11.dtd">
<svg xmlns:xlink="http://www.w3.org/1999/xlink" width="460.8pt" height="345.6pt" viewBox="0 0 460.8 345.6" xmlns="http://www.w3.org/2000/svg" version="1.1">
 <metadata>
  <rdf:RDF xmlns:dc="http://purl.org/dc/elements/1.1/" xmlns:cc="http://creativecommons.org/ns#" xmlns:rdf="http://www.w3.org/1999/02/22-rdf-syntax-ns#">
   <cc:Work>
    <dc:type rdf:resource="http://purl.org/dc/dcmitype/StillImage"/>
    <dc:date>2023-04-03T10:15:59.737790</dc:date>
    <dc:format>image/svg+xml</dc:format>
    <dc:creator>
     <cc:Agent>
      <dc:title>Matplotlib v3.5.2, https://matplotlib.org/</dc:title>
     </cc:Agent>
    </dc:creator>
   </cc:Work>
  </rdf:RDF>
 </metadata>
 <defs>
  <style type="text/css">*{stroke-linejoin: round; stroke-linecap: butt}</style>
 </defs>
 <g id="figure_1">
  <g id="patch_1">
   <path d="M 0 345.6 
L 460.8 345.6 
L 460.8 0 
L 0 0 
z
" style="fill: #ffffff"/>
  </g>
  <g id="axes_1">
   <g id="patch_2">
    <path d="M 34.16 291.28 
L 453.192 291.28 
L 453.192 3 
L 34.16 3 
z
" style="fill: #ffffff"/>
   </g>
   <g id="matplotlib.axis_1">
    <g id="xtick_1">
     <g id="line2d_1">
      <path d="M 124.988231 291.28 
L 124.988231 3 
" clip-path="url(#p73c3b8f887)" style="fill: none; stroke: #b0b0b0; stroke-width: 0.8; stroke-linecap: square"/>
     </g>
     <g id="line2d_2">
      <defs>
       <path id="m6daddff775" d="M 0 0 
L 0 3.5 
" style="stroke: #000000; stroke-width: 0.8"/>
      </defs>
      <g>
       <use xlink:href="#m6daddff775" x="124.988231" y="291.28" style="stroke: #000000; stroke-width: 0.8"/>
      </g>
     </g>
     <g id="text_1">
      <!-- -2 -->
      <g transform="translate(115.017919 313.476875)scale(0.2 -0.2)">
       <defs>
        <path id="DejaVuSans-2d" d="M 313 2009 
L 1997 2009 
L 1997 1497 
L 313 1497 
L 313 2009 
z
" transform="scale(0.015625)"/>
        <path id="DejaVuSans-32" d="M 1228 531 
L 3431 531 
L 3431 0 
L 469 0 
L 469 531 
Q 828 903 1448 1529 
Q 2069 2156 2228 2338 
Q 2531 2678 2651 2914 
Q 2772 3150 2772 3378 
Q 2772 3750 2511 3984 
Q 2250 4219 1831 4219 
Q 1534 4219 1204 4116 
Q 875 4013 500 3803 
L 500 4441 
Q 881 4594 1212 4672 
Q 1544 4750 1819 4750 
Q 2544 4750 2975 4387 
Q 3406 4025 3406 3419 
Q 3406 3131 3298 2873 
Q 3191 2616 2906 2266 
Q 2828 2175 2409 1742 
Q 1991 1309 1228 531 
z
" transform="scale(0.015625)"/>
       </defs>
       <use xlink:href="#DejaVuSans-2d"/>
       <use xlink:href="#DejaVuSans-32" x="36.083984"/>
      </g>
     </g>
    </g>
    <g id="xtick_2">
     <g id="line2d_3">
      <path d="M 243.676 291.28 
L 243.676 3 
" clip-path="url(#p73c3b8f887)" style="fill: none; stroke: #b0b0b0; stroke-width: 0.8; stroke-linecap: square"/>
     </g>
     <g id="line2d_4">
      <g>
       <use xlink:href="#m6daddff775" x="243.676" y="291.28" style="stroke: #000000; stroke-width: 0.8"/>
      </g>
     </g>
     <g id="text_2">
      <!-- 0 -->
      <g transform="translate(237.3135 313.476875)scale(0.2 -0.2)">
       <defs>
        <path id="DejaVuSans-30" d="M 2034 4250 
Q 1547 4250 1301 3770 
Q 1056 3291 1056 2328 
Q 1056 1369 1301 889 
Q 1547 409 2034 409 
Q 2525 409 2770 889 
Q 3016 1369 3016 2328 
Q 3016 3291 2770 3770 
Q 2525 4250 2034 4250 
z
M 2034 4750 
Q 2819 4750 3233 4129 
Q 3647 3509 3647 2328 
Q 3647 1150 3233 529 
Q 2819 -91 2034 -91 
Q 1250 -91 836 529 
Q 422 1150 422 2328 
Q 422 3509 836 4129 
Q 1250 4750 2034 4750 
z
" transform="scale(0.015625)"/>
       </defs>
       <use xlink:href="#DejaVuSans-30"/>
      </g>
     </g>
    </g>
    <g id="xtick_3">
     <g id="line2d_5">
      <path d="M 362.363769 291.28 
L 362.363769 3 
" clip-path="url(#p73c3b8f887)" style="fill: none; stroke: #b0b0b0; stroke-width: 0.8; stroke-linecap: square"/>
     </g>
     <g id="line2d_6">
      <g>
       <use xlink:href="#m6daddff775" x="362.363769" y="291.28" style="stroke: #000000; stroke-width: 0.8"/>
      </g>
     </g>
     <g id="text_3">
      <!-- 2 -->
      <g transform="translate(356.001269 313.476875)scale(0.2 -0.2)">
       <use xlink:href="#DejaVuSans-32"/>
      </g>
     </g>
    </g>
    <g id="text_4">
     <!-- log10 of FEvals ratio -->
     <g transform="translate(141.371312 336.833125)scale(0.2 -0.2)">
      <defs>
       <path id="DejaVuSans-6c" d="M 603 4863 
L 1178 4863 
L 1178 0 
L 603 0 
L 603 4863 
z
" transform="scale(0.015625)"/>
       <path id="DejaVuSans-6f" d="M 1959 3097 
Q 1497 3097 1228 2736 
Q 959 2375 959 1747 
Q 959 1119 1226 758 
Q 1494 397 1959 397 
Q 2419 397 2687 759 
Q 2956 1122 2956 1747 
Q 2956 2369 2687 2733 
Q 2419 3097 1959 3097 
z
M 1959 3584 
Q 2709 3584 3137 3096 
Q 3566 2609 3566 1747 
Q 3566 888 3137 398 
Q 2709 -91 1959 -91 
Q 1206 -91 779 398 
Q 353 888 353 1747 
Q 353 2609 779 3096 
Q 1206 3584 1959 3584 
z
" transform="scale(0.015625)"/>
       <path id="DejaVuSans-67" d="M 2906 1791 
Q 2906 2416 2648 2759 
Q 2391 3103 1925 3103 
Q 1463 3103 1205 2759 
Q 947 2416 947 1791 
Q 947 1169 1205 825 
Q 1463 481 1925 481 
Q 2391 481 2648 825 
Q 2906 1169 2906 1791 
z
M 3481 434 
Q 3481 -459 3084 -895 
Q 2688 -1331 1869 -1331 
Q 1566 -1331 1297 -1286 
Q 1028 -1241 775 -1147 
L 775 -588 
Q 1028 -725 1275 -790 
Q 1522 -856 1778 -856 
Q 2344 -856 2625 -561 
Q 2906 -266 2906 331 
L 2906 616 
Q 2728 306 2450 153 
Q 2172 0 1784 0 
Q 1141 0 747 490 
Q 353 981 353 1791 
Q 353 2603 747 3093 
Q 1141 3584 1784 3584 
Q 2172 3584 2450 3431 
Q 2728 3278 2906 2969 
L 2906 3500 
L 3481 3500 
L 3481 434 
z
" transform="scale(0.015625)"/>
       <path id="DejaVuSans-31" d="M 794 531 
L 1825 531 
L 1825 4091 
L 703 3866 
L 703 4441 
L 1819 4666 
L 2450 4666 
L 2450 531 
L 3481 531 
L 3481 0 
L 794 0 
L 794 531 
z
" transform="scale(0.015625)"/>
       <path id="DejaVuSans-20" transform="scale(0.015625)"/>
       <path id="DejaVuSans-66" d="M 2375 4863 
L 2375 4384 
L 1825 4384 
Q 1516 4384 1395 4259 
Q 1275 4134 1275 3809 
L 1275 3500 
L 2222 3500 
L 2222 3053 
L 1275 3053 
L 1275 0 
L 697 0 
L 697 3053 
L 147 3053 
L 147 3500 
L 697 3500 
L 697 3744 
Q 697 4328 969 4595 
Q 1241 4863 1831 4863 
L 2375 4863 
z
" transform="scale(0.015625)"/>
       <path id="DejaVuSans-46" d="M 628 4666 
L 3309 4666 
L 3309 4134 
L 1259 4134 
L 1259 2759 
L 3109 2759 
L 3109 2228 
L 1259 2228 
L 1259 0 
L 628 0 
L 628 4666 
z
" transform="scale(0.015625)"/>
       <path id="DejaVuSans-45" d="M 628 4666 
L 3578 4666 
L 3578 4134 
L 1259 4134 
L 1259 2753 
L 3481 2753 
L 3481 2222 
L 1259 2222 
L 1259 531 
L 3634 531 
L 3634 0 
L 628 0 
L 628 4666 
z
" transform="scale(0.015625)"/>
       <path id="DejaVuSans-76" d="M 191 3500 
L 800 3500 
L 1894 563 
L 2988 3500 
L 3597 3500 
L 2284 0 
L 1503 0 
L 191 3500 
z
" transform="scale(0.015625)"/>
       <path id="DejaVuSans-61" d="M 2194 1759 
Q 1497 1759 1228 1600 
Q 959 1441 959 1056 
Q 959 750 1161 570 
Q 1363 391 1709 391 
Q 2188 391 2477 730 
Q 2766 1069 2766 1631 
L 2766 1759 
L 2194 1759 
z
M 3341 1997 
L 3341 0 
L 2766 0 
L 2766 531 
Q 2569 213 2275 61 
Q 1981 -91 1556 -91 
Q 1019 -91 701 211 
Q 384 513 384 1019 
Q 384 1609 779 1909 
Q 1175 2209 1959 2209 
L 2766 2209 
L 2766 2266 
Q 2766 2663 2505 2880 
Q 2244 3097 1772 3097 
Q 1472 3097 1187 3025 
Q 903 2953 641 2809 
L 641 3341 
Q 956 3463 1253 3523 
Q 1550 3584 1831 3584 
Q 2591 3584 2966 3190 
Q 3341 2797 3341 1997 
z
" transform="scale(0.015625)"/>
       <path id="DejaVuSans-73" d="M 2834 3397 
L 2834 2853 
Q 2591 2978 2328 3040 
Q 2066 3103 1784 3103 
Q 1356 3103 1142 2972 
Q 928 2841 928 2578 
Q 928 2378 1081 2264 
Q 1234 2150 1697 2047 
L 1894 2003 
Q 2506 1872 2764 1633 
Q 3022 1394 3022 966 
Q 3022 478 2636 193 
Q 2250 -91 1575 -91 
Q 1294 -91 989 -36 
Q 684 19 347 128 
L 347 722 
Q 666 556 975 473 
Q 1284 391 1588 391 
Q 1994 391 2212 530 
Q 2431 669 2431 922 
Q 2431 1156 2273 1281 
Q 2116 1406 1581 1522 
L 1381 1569 
Q 847 1681 609 1914 
Q 372 2147 372 2553 
Q 372 3047 722 3315 
Q 1072 3584 1716 3584 
Q 2034 3584 2315 3537 
Q 2597 3491 2834 3397 
z
" transform="scale(0.015625)"/>
       <path id="DejaVuSans-72" d="M 2631 2963 
Q 2534 3019 2420 3045 
Q 2306 3072 2169 3072 
Q 1681 3072 1420 2755 
Q 1159 2438 1159 1844 
L 1159 0 
L 581 0 
L 581 3500 
L 1159 3500 
L 1159 2956 
Q 1341 3275 1631 3429 
Q 1922 3584 2338 3584 
Q 2397 3584 2469 3576 
Q 2541 3569 2628 3553 
L 2631 2963 
z
" transform="scale(0.015625)"/>
       <path id="DejaVuSans-74" d="M 1172 4494 
L 1172 3500 
L 2356 3500 
L 2356 3053 
L 1172 3053 
L 1172 1153 
Q 1172 725 1289 603 
Q 1406 481 1766 481 
L 2356 481 
L 2356 0 
L 1766 0 
Q 1100 0 847 248 
Q 594 497 594 1153 
L 594 3053 
L 172 3053 
L 172 3500 
L 594 3500 
L 594 4494 
L 1172 4494 
z
" transform="scale(0.015625)"/>
       <path id="DejaVuSans-69" d="M 603 3500 
L 1178 3500 
L 1178 0 
L 603 0 
L 603 3500 
z
M 603 4863 
L 1178 4863 
L 1178 4134 
L 603 4134 
L 603 4863 
z
" transform="scale(0.015625)"/>
      </defs>
      <use xlink:href="#DejaVuSans-6c"/>
      <use xlink:href="#DejaVuSans-6f" x="27.783203"/>
      <use xlink:href="#DejaVuSans-67" x="88.964844"/>
      <use xlink:href="#DejaVuSans-31" x="152.441406"/>
      <use xlink:href="#DejaVuSans-30" x="216.064453"/>
      <use xlink:href="#DejaVuSans-20" x="279.6875"/>
      <use xlink:href="#DejaVuSans-6f" x="311.474609"/>
      <use xlink:href="#DejaVuSans-66" x="372.65625"/>
      <use xlink:href="#DejaVuSans-20" x="407.861328"/>
      <use xlink:href="#DejaVuSans-46" x="439.648438"/>
      <use xlink:href="#DejaVuSans-45" x="497.167969"/>
      <use xlink:href="#DejaVuSans-76" x="560.351562"/>
      <use xlink:href="#DejaVuSans-61" x="619.53125"/>
      <use xlink:href="#DejaVuSans-6c" x="680.810547"/>
      <use xlink:href="#DejaVuSans-73" x="708.59375"/>
      <use xlink:href="#DejaVuSans-20" x="760.693359"/>
      <use xlink:href="#DejaVuSans-72" x="792.480469"/>
      <use xlink:href="#DejaVuSans-61" x="833.59375"/>
      <use xlink:href="#DejaVuSans-74" x="894.873047"/>
      <use xlink:href="#DejaVuSans-69" x="934.082031"/>
      <use xlink:href="#DejaVuSans-6f" x="961.865234"/>
     </g>
    </g>
   </g>
   <g id="matplotlib.axis_2">
    <g id="ytick_1">
     <g id="line2d_7">
      <path d="M 34.16 288.453725 
L 453.192 288.453725 
" clip-path="url(#p73c3b8f887)" style="fill: none; stroke: #b0b0b0; stroke-width: 0.8; stroke-linecap: square"/>
     </g>
     <g id="line2d_8">
      <defs>
       <path id="m5217067af1" d="M 0 0 
L -3.5 0 
" style="stroke: #000000; stroke-width: 0.8"/>
      </defs>
      <g>
       <use xlink:href="#m5217067af1" x="34.16" y="288.453725" style="stroke: #000000; stroke-width: 0.8"/>
      </g>
     </g>
    </g>
    <g id="ytick_2">
     <g id="line2d_9">
      <path d="M 34.16 217.796863 
L 453.192 217.796863 
" clip-path="url(#p73c3b8f887)" style="fill: none; stroke: #b0b0b0; stroke-width: 0.8; stroke-linecap: square"/>
     </g>
     <g id="line2d_10">
      <g>
       <use xlink:href="#m5217067af1" x="34.16" y="217.796863" style="stroke: #000000; stroke-width: 0.8"/>
      </g>
     </g>
    </g>
    <g id="ytick_3">
     <g id="line2d_11">
      <path d="M 34.16 147.14 
L 453.192 147.14 
" clip-path="url(#p73c3b8f887)" style="fill: none; stroke: #b0b0b0; stroke-width: 0.8; stroke-linecap: square"/>
     </g>
     <g id="line2d_12">
      <g>
       <use xlink:href="#m5217067af1" x="34.16" y="147.14" style="stroke: #000000; stroke-width: 0.8"/>
      </g>
     </g>
    </g>
    <g id="ytick_4">
     <g id="line2d_13">
      <path d="M 34.16 76.483137 
L 453.192 76.483137 
" clip-path="url(#p73c3b8f887)" style="fill: none; stroke: #b0b0b0; stroke-width: 0.8; stroke-linecap: square"/>
     </g>
     <g id="line2d_14">
      <g>
       <use xlink:href="#m5217067af1" x="34.16" y="76.483137" style="stroke: #000000; stroke-width: 0.8"/>
      </g>
     </g>
    </g>
    <g id="ytick_5">
     <g id="line2d_15">
      <path d="M 34.16 5.826275 
L 453.192 5.826275 
" clip-path="url(#p73c3b8f887)" style="fill: none; stroke: #b0b0b0; stroke-width: 0.8; stroke-linecap: square"/>
     </g>
     <g id="line2d_16">
      <g>
       <use xlink:href="#m5217067af1" x="34.16" y="5.826275" style="stroke: #000000; stroke-width: 0.8"/>
      </g>
     </g>
    </g>
    <g id="text_5">
     <!-- proportion of trials -->
     <g transform="translate(19.000625 240.14625)rotate(-90)scale(0.2 -0.2)">
      <defs>
       <path id="DejaVuSans-70" d="M 1159 525 
L 1159 -1331 
L 581 -1331 
L 581 3500 
L 1159 3500 
L 1159 2969 
Q 1341 3281 1617 3432 
Q 1894 3584 2278 3584 
Q 2916 3584 3314 3078 
Q 3713 2572 3713 1747 
Q 3713 922 3314 415 
Q 2916 -91 2278 -91 
Q 1894 -91 1617 61 
Q 1341 213 1159 525 
z
M 3116 1747 
Q 3116 2381 2855 2742 
Q 2594 3103 2138 3103 
Q 1681 3103 1420 2742 
Q 1159 2381 1159 1747 
Q 1159 1113 1420 752 
Q 1681 391 2138 391 
Q 2594 391 2855 752 
Q 3116 1113 3116 1747 
z
" transform="scale(0.015625)"/>
       <path id="DejaVuSans-6e" d="M 3513 2113 
L 3513 0 
L 2938 0 
L 2938 2094 
Q 2938 2591 2744 2837 
Q 2550 3084 2163 3084 
Q 1697 3084 1428 2787 
Q 1159 2491 1159 1978 
L 1159 0 
L 581 0 
L 581 3500 
L 1159 3500 
L 1159 2956 
Q 1366 3272 1645 3428 
Q 1925 3584 2291 3584 
Q 2894 3584 3203 3211 
Q 3513 2838 3513 2113 
z
" transform="scale(0.015625)"/>
      </defs>
      <use xlink:href="#DejaVuSans-70"/>
      <use xlink:href="#DejaVuSans-72" x="63.476562"/>
      <use xlink:href="#DejaVuSans-6f" x="102.339844"/>
      <use xlink:href="#DejaVuSans-70" x="163.521484"/>
      <use xlink:href="#DejaVuSans-6f" x="226.998047"/>
      <use xlink:href="#DejaVuSans-72" x="288.179688"/>
      <use xlink:href="#DejaVuSans-74" x="329.292969"/>
      <use xlink:href="#DejaVuSans-69" x="368.501953"/>
      <use xlink:href="#DejaVuSans-6f" x="396.285156"/>
      <use xlink:href="#DejaVuSans-6e" x="457.466797"/>
      <use xlink:href="#DejaVuSans-20" x="520.845703"/>
      <use xlink:href="#DejaVuSans-6f" x="552.632812"/>
      <use xlink:href="#DejaVuSans-66" x="613.814453"/>
      <use xlink:href="#DejaVuSans-20" x="649.019531"/>
      <use xlink:href="#DejaVuSans-74" x="680.806641"/>
      <use xlink:href="#DejaVuSans-72" x="720.015625"/>
      <use xlink:href="#DejaVuSans-69" x="761.128906"/>
      <use xlink:href="#DejaVuSans-61" x="788.912109"/>
      <use xlink:href="#DejaVuSans-6c" x="850.191406"/>
      <use xlink:href="#DejaVuSans-73" x="877.974609"/>
     </g>
    </g>
   </g>
   <g id="line2d_17">
    <path d="M 34.16 274.995275 
L 50.090013 274.995275 
L 50.090013 274.098045 
L 51.875851 274.098045 
L 51.875851 273.200815 
L 52.619858 273.200815 
L 52.619858 272.303585 
L 54.342055 272.303585 
L 54.342055 271.406355 
L 56.771718 271.406355 
L 56.771718 270.509125 
L 57.388531 270.509125 
L 57.388531 269.611895 
L 62.145435 269.611895 
L 62.145435 268.714665 
L 62.433401 268.714665 
L 62.433401 267.817435 
L 64.49632 267.817435 
L 64.49632 266.920205 
L 66.52872 266.920205 
L 66.52872 266.022975 
L 71.207277 266.022975 
L 71.207277 265.125745 
L 131.813467 265.125745 
L 131.813467 264.228515 
L 134.574928 264.228515 
L 134.574928 263.331285 
L 137.153101 263.331285 
L 137.153101 262.434055 
L 140.18869 262.434055 
L 140.18869 261.536825 
L 150.389959 261.536825 
L 150.389959 260.639595 
L 151.301742 260.639595 
L 151.301742 259.742365 
L 151.439197 259.742365 
L 151.439197 258.845135 
L 153.32152 258.845135 
L 153.32152 257.947905 
L 154.274222 257.947905 
L 154.274222 257.050675 
L 155.431657 257.050675 
L 155.431657 256.153445 
L 157.394338 256.153445 
L 157.394338 255.256215 
L 159.244695 255.256215 
L 159.244695 254.358985 
L 159.591511 254.358985 
L 159.591511 253.461755 
L 160.091128 253.461755 
L 160.091128 252.564525 
L 160.429928 252.564525 
L 160.429928 251.667295 
L 161.194412 251.667295 
L 161.194412 250.770065 
L 161.876966 250.770065 
L 161.876966 249.872835 
L 162.620972 249.872835 
L 162.6271 248.078375 
L 164.34317 248.078375 
L 164.34317 247.181145 
L 166.772833 247.181145 
L 166.772833 246.283915 
L 167.389645 246.283915 
L 167.389645 245.386685 
L 169.440212 245.386685 
L 169.440212 244.489455 
L 170.631197 244.489455 
L 170.631197 243.592225 
L 171.54298 243.592225 
L 171.54298 242.694995 
L 171.680435 242.694995 
L 171.680435 241.797765 
L 172.146549 241.797765 
L 172.146549 240.900535 
L 172.434516 240.900535 
L 172.434516 240.003305 
L 172.828369 240.003305 
L 172.828369 239.106075 
L 173.740152 239.106075 
L 173.740152 238.208845 
L 173.877607 238.208845 
L 173.877607 237.311615 
L 174.497434 237.311615 
L 174.497434 236.414385 
L 175.300089 236.414385 
L 175.300089 235.517155 
L 175.672894 235.517155 
L 175.672894 234.619925 
L 176.529834 234.619925 
L 176.529834 233.722695 
L 177.870066 233.722695 
L 177.870066 232.825465 
L 179.485932 232.825465 
L 179.485932 231.928235 
L 181.208391 231.928235 
L 181.208391 231.031005 
L 181.435649 231.031005 
L 181.435649 230.133775 
L 181.683105 230.133775 
L 181.683105 229.236545 
L 183.632822 229.236545 
L 183.632822 228.339315 
L 184.332116 228.339315 
L 184.332116 226.544855 
L 189.681449 226.544855 
L 189.681449 225.647625 
L 191.878622 225.647625 
L 191.878622 224.750395 
L 195.541327 224.750395 
L 195.541327 223.853165 
L 197.738499 223.853165 
L 197.738499 222.955935 
L 202.196405 222.955935 
L 202.196405 220.264245 
L 215.361771 220.264245 
L 215.361771 218.469785 
L 217.311876 218.469785 
L 217.311876 217.572555 
L 217.99551 217.572555 
L 217.99551 216.675325 
L 219.264123 216.675325 
L 219.264123 215.778095 
L 220.031256 215.778095 
L 220.060694 212.189175 
L 220.439523 212.189175 
L 220.439523 211.291945 
L 221.049961 211.291945 
L 221.049961 210.394715 
L 221.360654 210.394715 
L 221.360654 209.497485 
L 221.793967 209.497485 
L 221.793967 208.600255 
L 223.516165 208.600255 
L 223.516165 207.703025 
L 224.800886 207.703025 
L 224.800886 206.805795 
L 225.015139 206.805795 
L 225.015139 205.908565 
L 225.811711 205.908565 
L 225.811711 204.114105 
L 225.945828 204.114105 
L 225.945828 203.216875 
L 226.56264 203.216875 
L 226.56264 202.319645 
L 226.800977 202.319645 
L 226.800977 201.422415 
L 227.187994 201.422415 
L 227.187994 200.525185 
L 227.544984 200.525185 
L 227.544984 199.627955 
L 227.918005 199.627955 
L 227.9998 197.833495 
L 228.8473 197.833495 
L 228.8473 196.936265 
L 228.97987 196.936265 
L 229.075858 195.141805 
L 229.22374 195.141805 
L 229.267181 193.347345 
L 229.703843 193.347345 
L 229.703843 192.450115 
L 230.035547 192.450115 
L 230.035547 191.552885 
L 230.44785 191.552885 
L 230.44785 190.655655 
L 231.015616 190.655655 
L 231.111604 188.861195 
L 231.319544 188.861195 
L 231.319544 187.963965 
L 231.607511 187.963965 
L 231.714523 184.375045 
L 231.800864 184.375045 
L 231.88289 182.580585 
L 232.170047 182.580585 
L 232.170047 181.683355 
L 232.313657 181.683355 
L 232.313657 180.786125 
L 233.144372 180.786125 
L 233.226061 177.197205 
L 233.670429 177.197205 
L 233.75027 174.505515 
L 233.836611 174.505515 
L 233.836611 173.608285 
L 233.99337 173.608285 
L 233.99337 172.711055 
L 234.421301 172.711055 
L 234.483516 170.916595 
L 234.59971 170.916595 
L 234.59971 170.019365 
L 234.805177 170.019365 
L 234.805177 169.122135 
L 235.109605 169.122135 
L 235.216523 166.430445 
L 235.702829 166.430445 
L 235.785246 164.635985 
L 235.881234 164.635985 
L 235.933331 162.841525 
L 236.172316 162.841525 
L 236.172316 161.944295 
L 236.457047 161.944295 
L 236.514149 160.149835 
L 237.070561 160.149835 
L 237.070561 159.252605 
L 237.291986 159.252605 
L 237.358527 157.458145 
L 237.553113 157.458145 
L 237.553113 156.560915 
L 237.706569 156.560915 
L 237.706569 155.663685 
L 237.924983 155.663685 
L 237.969077 152.971995 
L 238.5199 152.971995 
L 238.60624 148.485845 
L 239.207906 148.485845 
L 239.207906 147.588615 
L 239.327732 147.588615 
L 239.421446 145.794155 
L 239.742316 145.794155 
L 239.750285 143.999695 
L 239.949748 143.999695 
L 239.973427 142.205235 
L 240.261393 142.205235 
L 240.261393 141.308005 
L 240.381386 141.308005 
L 240.381386 140.410775 
L 240.618335 140.410775 
L 240.68076 138.616315 
L 240.960573 138.616315 
L 240.960573 136.821855 
L 241.226677 136.821855 
L 241.226677 135.924625 
L 241.453846 135.924625 
L 241.453846 135.027395 
L 241.601891 135.027395 
L 241.601891 134.130165 
L 241.814581 134.130165 
L 241.814581 133.232935 
L 242.061718 133.232935 
L 242.104877 130.541245 
L 242.324312 130.541245 
L 242.324312 129.644015 
L 242.549914 129.644015 
L 242.549914 128.746785 
L 242.738707 128.746785 
L 242.738707 127.849555 
L 242.877933 127.849555 
L 242.877933 126.952325 
L 242.995942 126.952325 
L 242.995942 126.055095 
L 243.133396 126.055095 
L 243.133396 125.157865 
L 243.319525 125.157865 
L 243.319525 124.260635 
L 243.676 124.260635 
L 243.676 117.980025 
L 243.799064 117.980025 
L 243.799064 117.082795 
L 244.097362 117.082795 
L 244.097362 116.185565 
L 244.302089 116.185565 
L 244.356712 114.391105 
L 244.511945 114.391105 
L 244.576042 112.596645 
L 245.113895 112.596645 
L 245.113895 111.699415 
L 245.387965 111.699415 
L 245.387965 110.802185 
L 246.093965 110.802185 
L 246.189953 108.110495 
L 247.125856 108.110495 
L 247.125856 107.213265 
L 248.374923 107.213265 
L 248.374923 106.316035 
L 248.828618 106.316035 
L 248.914959 103.624345 
L 249.035269 103.624345 
L 249.035269 102.727115 
L 249.409175 102.727115 
L 249.409175 101.829885 
L 250.258467 101.829885 
L 250.320958 100.035425 
L 250.458413 100.035425 
L 250.458413 99.138195 
L 250.938894 99.138195 
L 250.938894 98.240965 
L 251.09035 98.240965 
L 251.09035 95.549275 
L 251.297361 95.549275 
L 251.297361 94.652045 
L 251.535395 94.652045 
L 251.535395 93.754815 
L 252.109167 93.754815 
L 252.109167 92.857585 
L 252.347805 92.857585 
L 252.347805 91.960355 
L 252.888611 91.960355 
L 252.888611 91.063125 
L 253.047425 91.063125 
L 253.089237 89.268665 
L 253.185225 89.268665 
L 253.185225 88.371435 
L 253.628244 88.371435 
L 253.628244 87.474205 
L 254.40608 87.474205 
L 254.450872 85.679745 
L 254.820664 85.679745 
L 254.820664 84.782515 
L 255.696684 84.782515 
L 255.696684 83.885285 
L 255.82389 83.885285 
L 255.910231 81.193595 
L 257.253739 81.193595 
L 257.253739 80.296365 
L 258.26391 80.296365 
L 258.26391 79.399135 
L 258.530667 79.399135 
L 258.530667 78.501905 
L 260.042697 78.501905 
L 260.042697 77.604675 
L 260.213627 77.604675 
L 260.213627 76.707445 
L 260.623516 76.707445 
L 260.623516 75.810215 
L 261.134411 75.810215 
L 261.134411 74.912985 
L 261.401352 74.912985 
L 261.401352 74.015755 
L 261.540289 74.015755 
L 261.540289 65.940685 
L 261.815936 65.940685 
L 261.815936 65.043455 
L 262.302955 65.043455 
L 262.302955 64.146225 
L 262.691956 64.146225 
L 262.791151 62.351765 
L 263.322634 62.351765 
L 263.322634 61.454535 
L 264.275336 61.454535 
L 264.275336 60.557305 
L 264.500128 60.557305 
L 264.500128 59.660075 
L 264.988323 59.660075 
L 264.988323 58.762845 
L 265.513172 58.762845 
L 265.513172 57.865615 
L 266.994288 57.865615 
L 266.994288 56.968385 
L 268.459428 56.968385 
L 268.459428 56.071155 
L 268.954639 56.071155 
L 268.954639 54.276695 
L 271.990229 54.276695 
L 271.990229 52.482235 
L 274.319305 52.482235 
L 274.319305 51.585005 
L 275.963111 51.585005 
L 275.963111 50.687775 
L 279.404578 50.687775 
L 279.404578 42.612705 
L 282.440168 42.612705 
L 282.440168 40.818245 
L 283.377461 40.818245 
L 283.377461 39.921015 
L 289.854518 39.921015 
L 289.854518 39.023785 
L 293.8274 39.023785 
L 293.8274 36.332095 
L 297.268868 36.332095 
L 297.268868 32.743175 
L 300.304457 32.743175 
L 300.304457 29.154255 
L 300.987576 29.154255 
L 300.987576 28.257025 
L 303.749037 28.257025 
L 303.749037 27.359795 
L 306.738593 27.359795 
L 306.738593 26.462565 
L 307.718807 26.462565 
L 307.718807 24.668105 
L 309.006075 24.668105 
L 309.006075 23.770875 
L 309.500054 23.770875 
L 309.500054 22.873645 
L 309.641459 22.873645 
L 309.641459 21.976415 
L 311.69169 21.976415 
L 311.69169 20.181955 
L 312.133722 20.181955 
L 312.133722 19.284725 
L 312.40292 19.284725 
L 312.40292 18.387495 
L 313.054853 18.387495 
L 313.054853 17.490265 
L 316.331091 17.490265 
L 316.331091 16.593035 
L 319.458738 16.593035 
L 319.458738 15.695805 
L 320.379869 15.695805 
L 320.379869 14.798575 
L 322.495629 14.798575 
L 322.495629 13.901345 
L 323.448331 13.901345 
L 323.448331 13.004115 
L 328.246646 13.004115 
L 328.246646 12.106885 
L 329.199348 12.106885 
L 329.199348 11.209655 
L 331.149512 11.209655 
L 331.149512 10.312425 
L 332.102214 10.312425 
L 332.102214 9.415195 
L 333.755917 9.415195 
L 333.755917 8.517965 
L 334.244113 8.517965 
L 334.244113 7.620735 
L 341.080934 7.620735 
L 341.080934 6.723505 
L 341.569129 6.723505 
L 341.569129 5.826275 
L 453.192 5.826275 
L 453.192 5.826275 
" clip-path="url(#p73c3b8f887)" style="fill: none; stroke: #000000; stroke-width: 3; stroke-linecap: square"/>
   </g>
   <g id="line2d_18">
    <path clip-path="url(#p73c3b8f887)" style="fill: none; stroke: #000000; stroke-width: 3; stroke-linecap: square"/>
   </g>
   <g id="line2d_19">
    <path d="M 34.16 123.587712 
L 79.530377 123.587712 
L 79.530377 122.01756 
L 80.596512 122.01756 
L 80.596512 120.447407 
L 154.944736 120.447407 
L 154.944736 118.877255 
L 170.860665 118.877255 
L 170.860665 117.307102 
L 171.389098 117.307102 
L 171.389098 115.73695 
L 183.668694 115.73695 
L 183.668694 114.166797 
L 190.149053 114.166797 
L 190.149053 112.596645 
L 191.215188 112.596645 
L 191.215188 111.026492 
L 203.26034 111.026492 
L 203.26034 109.45634 
L 208.92576 109.45634 
L 208.92576 107.886187 
L 211.77746 107.886187 
L 211.77746 106.316035 
L 219.295782 106.316035 
L 219.295782 104.745882 
L 223.47396 104.745882 
L 223.47396 103.17573 
L 235.553709 103.17573 
L 235.553709 101.605577 
L 240.852888 101.605577 
L 240.852888 100.035425 
L 240.861694 100.035425 
L 240.861694 98.465272 
L 240.941383 98.465272 
L 240.941383 96.89512 
L 241.117179 96.89512 
L 241.117179 95.324967 
L 241.424544 95.324967 
L 241.424544 93.754815 
L 241.54537 93.754815 
L 241.54537 92.184662 
L 241.661319 92.184662 
L 241.661319 90.61451 
L 241.992284 90.61451 
L 241.992284 89.044357 
L 242.209632 89.044357 
L 242.209632 87.474205 
L 242.632808 87.474205 
L 242.632808 85.904052 
L 242.858564 85.904052 
L 242.858564 84.3339 
L 242.969547 84.3339 
L 242.969547 82.763747 
L 243.624916 82.763747 
L 243.624916 81.193595 
L 248.659098 81.193595 
L 248.659098 79.623442 
L 258.071606 79.623442 
L 258.071606 78.05329 
L 262.818669 78.05329 
L 262.818669 76.483137 
L 265.204601 76.483137 
L 265.204601 74.912985 
L 265.563412 74.912985 
L 265.563412 73.342832 
L 265.692767 73.342832 
L 265.692767 71.77268 
L 273.916164 71.77268 
L 273.916164 70.202527 
L 276.767864 70.202527 
L 276.767864 68.632375 
L 281.479341 68.632375 
L 281.479341 67.062222 
L 282.007773 67.062222 
L 282.007773 65.49207 
L 288.464364 65.49207 
L 288.464364 63.921917 
L 300.224996 63.921917 
L 300.224996 62.351765 
L 300.544113 62.351765 
L 300.544113 60.781612 
L 313.879015 60.781612 
L 313.879015 59.21146 
L 329.914458 59.21146 
L 329.914458 57.641307 
L 354.243592 57.641307 
L 354.243592 56.071155 
L 365.2154 56.071155 
L 365.2154 54.501002 
L 368.690282 54.501002 
L 368.690282 52.93085 
L 453.192 52.93085 
" clip-path="url(#p73c3b8f887)" style="fill: none; stroke: #00bfbf; stroke-width: 3; stroke-linecap: square"/>
   </g>
   <g id="line2d_20">
    <path clip-path="url(#p73c3b8f887)" style="fill: none; stroke: #00bfbf; stroke-width: 3; stroke-linecap: square"/>
   </g>
   <g id="line2d_21">
    <path d="M 34.16 70.059786 
L 90.803423 70.059786 
L 90.803423 67.918669 
L 93.641593 67.918669 
L 93.641593 65.777552 
L 156.075575 65.777552 
L 156.075575 63.636435 
L 171.548805 63.636435 
L 171.548805 61.495318 
L 172.26418 61.495318 
L 172.26418 59.354201 
L 199.304155 59.354201 
L 199.304155 57.213084 
L 202.142325 57.213084 
L 202.142325 55.071967 
L 203.839814 55.071967 
L 203.839814 52.93085 
L 219.856089 52.93085 
L 219.856089 50.789733 
L 243.750375 50.789733 
L 243.750375 48.648616 
L 258.293637 48.648616 
L 258.293637 46.507499 
L 264.576307 46.507499 
L 264.576307 44.366381 
L 280.049537 44.366381 
L 280.049537 42.225264 
L 280.764912 42.225264 
L 280.764912 40.084147 
L 312.340546 40.084147 
L 312.340546 37.94303 
L 328.356821 37.94303 
L 328.356821 35.801913 
L 352.251107 35.801913 
L 352.251107 33.660796 
L 366.794369 33.660796 
L 366.794369 31.519679 
L 453.192 31.519679 
" clip-path="url(#p73c3b8f887)" style="fill: none; stroke: #bf00bf; stroke-width: 3; stroke-linecap: square"/>
   </g>
   <g id="line2d_22">
    <path clip-path="url(#p73c3b8f887)" style="fill: none; stroke: #bf00bf; stroke-width: 3; stroke-linecap: square"/>
   </g>
   <g id="line2d_23">
    <path d="M 34.16 70.059786 
L 100.282782 70.059786 
L 100.282782 67.918669 
L 102.270964 67.918669 
L 102.270964 65.777552 
L 157.125935 65.777552 
L 157.125935 63.636435 
L 172.175623 63.636435 
L 172.175623 61.495318 
L 172.861959 61.495318 
L 172.861959 59.354201 
L 204.381633 59.354201 
L 204.381633 57.213084 
L 206.638463 57.213084 
L 206.638463 55.071967 
L 208.626645 55.071967 
L 208.626645 52.93085 
L 219.760058 52.93085 
L 219.760058 50.789733 
L 243.752711 50.789733 
L 243.752711 48.648616 
L 258.459083 48.648616 
L 258.459083 46.507499 
L 263.481616 46.507499 
L 263.481616 44.366381 
L 278.531304 44.366381 
L 278.531304 42.225264 
L 279.21764 42.225264 
L 279.21764 40.084147 
L 310.737314 40.084147 
L 310.737314 37.94303 
L 326.115739 37.94303 
L 326.115739 35.801913 
L 350.108392 35.801913 
L 350.108392 33.660796 
L 364.814764 33.660796 
L 364.814764 31.519679 
L 453.192 31.519679 
" clip-path="url(#p73c3b8f887)" style="fill: none; stroke: #ff0000; stroke-width: 3; stroke-linecap: square"/>
   </g>
   <g id="line2d_24">
    <path clip-path="url(#p73c3b8f887)" style="fill: none; stroke: #ff0000; stroke-width: 3; stroke-linecap: square"/>
   </g>
   <g id="line2d_25">
    <path d="M 243.676 291.28 
L 243.676 3 
" clip-path="url(#p73c3b8f887)" style="fill: none; stroke: #000000; stroke-width: 1.5; stroke-linecap: square"/>
   </g>
   <g id="line2d_26">
    <path d="M 34.16 147.14 
L 453.192 147.14 
" clip-path="url(#p73c3b8f887)" style="fill: none; stroke-dasharray: 2,3.3; stroke-dashoffset: 0; stroke: #000000; stroke-width: 2"/>
   </g>
   <g id="patch_3">
    <path d="M 34.16 291.28 
L 34.16 3 
" style="fill: none; stroke: #000000; stroke-width: 0.8; stroke-linejoin: miter; stroke-linecap: square"/>
   </g>
   <g id="patch_4">
    <path d="M 453.192 291.28 
L 453.192 3 
" style="fill: none; stroke: #000000; stroke-width: 0.8; stroke-linejoin: miter; stroke-linecap: square"/>
   </g>
   <g id="patch_5">
    <path d="M 34.16 291.28 
L 453.192 291.28 
" style="fill: none; stroke: #000000; stroke-width: 0.8; stroke-linejoin: miter; stroke-linecap: square"/>
   </g>
   <g id="patch_6">
    <path d="M 34.16 3 
L 453.192 3 
" style="fill: none; stroke: #000000; stroke-width: 0.8; stroke-linejoin: miter; stroke-linecap: square"/>
   </g>
   <g id="text_6">
    <!-- f20-f24,20-D -->
    <g transform="translate(318.19261 285.5144)scale(0.2 -0.2)">
     <defs>
      <path id="DejaVuSans-34" d="M 2419 4116 
L 825 1625 
L 2419 1625 
L 2419 4116 
z
M 2253 4666 
L 3047 4666 
L 3047 1625 
L 3713 1625 
L 3713 1100 
L 3047 1100 
L 3047 0 
L 2419 0 
L 2419 1100 
L 313 1100 
L 313 1709 
L 2253 4666 
z
" transform="scale(0.015625)"/>
      <path id="DejaVuSans-2c" d="M 750 794 
L 1409 794 
L 1409 256 
L 897 -744 
L 494 -744 
L 750 256 
L 750 794 
z
" transform="scale(0.015625)"/>
      <path id="DejaVuSans-44" d="M 1259 4147 
L 1259 519 
L 2022 519 
Q 2988 519 3436 956 
Q 3884 1394 3884 2338 
Q 3884 3275 3436 3711 
Q 2988 4147 2022 4147 
L 1259 4147 
z
M 628 4666 
L 1925 4666 
Q 3281 4666 3915 4102 
Q 4550 3538 4550 2338 
Q 4550 1131 3912 565 
Q 3275 0 1925 0 
L 628 0 
L 628 4666 
z
" transform="scale(0.015625)"/>
     </defs>
     <use xlink:href="#DejaVuSans-66"/>
     <use xlink:href="#DejaVuSans-32" x="35.205078"/>
     <use xlink:href="#DejaVuSans-30" x="98.828125"/>
     <use xlink:href="#DejaVuSans-2d" x="162.451172"/>
     <use xlink:href="#DejaVuSans-66" x="198.535156"/>
     <use xlink:href="#DejaVuSans-32" x="233.740234"/>
     <use xlink:href="#DejaVuSans-34" x="297.363281"/>
     <use xlink:href="#DejaVuSans-2c" x="360.986328"/>
     <use xlink:href="#DejaVuSans-32" x="392.773438"/>
     <use xlink:href="#DejaVuSans-30" x="456.396484"/>
     <use xlink:href="#DejaVuSans-2d" x="520.019531"/>
     <use xlink:href="#DejaVuSans-44" x="556.103516"/>
    </g>
   </g>
   <g id="text_7">
    <!-- v2.6.1.158 -->
    <g style="fill: #808080" transform="translate(216.861937 286.317512)scale(0.1 -0.1)">
     <defs>
      <path id="DejaVuSans-2e" d="M 684 794 
L 1344 794 
L 1344 0 
L 684 0 
L 684 794 
z
" transform="scale(0.015625)"/>
      <path id="DejaVuSans-36" d="M 2113 2584 
Q 1688 2584 1439 2293 
Q 1191 2003 1191 1497 
Q 1191 994 1439 701 
Q 1688 409 2113 409 
Q 2538 409 2786 701 
Q 3034 994 3034 1497 
Q 3034 2003 2786 2293 
Q 2538 2584 2113 2584 
z
M 3366 4563 
L 3366 3988 
Q 3128 4100 2886 4159 
Q 2644 4219 2406 4219 
Q 1781 4219 1451 3797 
Q 1122 3375 1075 2522 
Q 1259 2794 1537 2939 
Q 1816 3084 2150 3084 
Q 2853 3084 3261 2657 
Q 3669 2231 3669 1497 
Q 3669 778 3244 343 
Q 2819 -91 2113 -91 
Q 1303 -91 875 529 
Q 447 1150 447 2328 
Q 447 3434 972 4092 
Q 1497 4750 2381 4750 
Q 2619 4750 2861 4703 
Q 3103 4656 3366 4563 
z
" transform="scale(0.015625)"/>
      <path id="DejaVuSans-35" d="M 691 4666 
L 3169 4666 
L 3169 4134 
L 1269 4134 
L 1269 2991 
Q 1406 3038 1543 3061 
Q 1681 3084 1819 3084 
Q 2600 3084 3056 2656 
Q 3513 2228 3513 1497 
Q 3513 744 3044 326 
Q 2575 -91 1722 -91 
Q 1428 -91 1123 -41 
Q 819 9 494 109 
L 494 744 
Q 775 591 1075 516 
Q 1375 441 1709 441 
Q 2250 441 2565 725 
Q 2881 1009 2881 1497 
Q 2881 1984 2565 2268 
Q 2250 2553 1709 2553 
Q 1456 2553 1204 2497 
Q 953 2441 691 2322 
L 691 4666 
z
" transform="scale(0.015625)"/>
      <path id="DejaVuSans-38" d="M 2034 2216 
Q 1584 2216 1326 1975 
Q 1069 1734 1069 1313 
Q 1069 891 1326 650 
Q 1584 409 2034 409 
Q 2484 409 2743 651 
Q 3003 894 3003 1313 
Q 3003 1734 2745 1975 
Q 2488 2216 2034 2216 
z
M 1403 2484 
Q 997 2584 770 2862 
Q 544 3141 544 3541 
Q 544 4100 942 4425 
Q 1341 4750 2034 4750 
Q 2731 4750 3128 4425 
Q 3525 4100 3525 3541 
Q 3525 3141 3298 2862 
Q 3072 2584 2669 2484 
Q 3125 2378 3379 2068 
Q 3634 1759 3634 1313 
Q 3634 634 3220 271 
Q 2806 -91 2034 -91 
Q 1263 -91 848 271 
Q 434 634 434 1313 
Q 434 1759 690 2068 
Q 947 2378 1403 2484 
z
M 1172 3481 
Q 1172 3119 1398 2916 
Q 1625 2713 2034 2713 
Q 2441 2713 2670 2916 
Q 2900 3119 2900 3481 
Q 2900 3844 2670 4047 
Q 2441 4250 2034 4250 
Q 1625 4250 1398 4047 
Q 1172 3844 1172 3481 
z
" transform="scale(0.015625)"/>
     </defs>
     <use xlink:href="#DejaVuSans-76"/>
     <use xlink:href="#DejaVuSans-32" x="59.179688"/>
     <use xlink:href="#DejaVuSans-2e" x="122.802734"/>
     <use xlink:href="#DejaVuSans-36" x="154.589844"/>
     <use xlink:href="#DejaVuSans-2e" x="218.212891"/>
     <use xlink:href="#DejaVuSans-31" x="250"/>
     <use xlink:href="#DejaVuSans-2e" x="313.623047"/>
     <use xlink:href="#DejaVuSans-31" x="345.410156"/>
     <use xlink:href="#DejaVuSans-35" x="409.033203"/>
     <use xlink:href="#DejaVuSans-38" x="472.65625"/>
    </g>
   </g>
   <g id="legend_1">
    <g id="patch_7">
     <path d="M 309.970125 281.28 
L 439.192 281.28 
Q 443.192 281.28 443.192 277.28 
L 443.192 161.855 
Q 443.192 157.855 439.192 157.855 
L 309.970125 157.855 
Q 305.970125 157.855 305.970125 161.855 
L 305.970125 277.28 
Q 305.970125 281.28 309.970125 281.28 
z
" style="fill: #ffffff; opacity: 0.2; stroke: #cccccc; stroke-linejoin: miter"/>
    </g>
    <g id="line2d_27">
     <path d="M 313.970125 174.051875 
L 333.970125 174.051875 
L 353.970125 174.051875 
" style="fill: none; stroke: #000000; stroke-width: 3; stroke-linecap: square"/>
    </g>
    <g id="text_8">
     <!-- 1: 5/4 -->
     <g transform="translate(369.970125 181.051875)scale(0.2 -0.2)">
      <defs>
       <path id="DejaVuSans-3a" d="M 750 794 
L 1409 794 
L 1409 0 
L 750 0 
L 750 794 
z
M 750 3309 
L 1409 3309 
L 1409 2516 
L 750 2516 
L 750 3309 
z
" transform="scale(0.015625)"/>
       <path id="DejaVuSans-2f" d="M 1625 4666 
L 2156 4666 
L 531 -594 
L 0 -594 
L 1625 4666 
z
" transform="scale(0.015625)"/>
      </defs>
      <use xlink:href="#DejaVuSans-31"/>
      <use xlink:href="#DejaVuSans-3a" x="63.623047"/>
      <use xlink:href="#DejaVuSans-20" x="97.314453"/>
      <use xlink:href="#DejaVuSans-35" x="129.101562"/>
      <use xlink:href="#DejaVuSans-2f" x="192.724609"/>
      <use xlink:href="#DejaVuSans-34" x="226.416016"/>
     </g>
    </g>
    <g id="line2d_28">
     <path d="M 313.970125 203.408125 
L 333.970125 203.408125 
L 353.970125 203.408125 
" style="fill: none; stroke: #00bfbf; stroke-width: 3; stroke-linecap: square"/>
    </g>
    <g id="text_9">
     <!-- -1: 3/3 -->
     <g transform="translate(369.970125 210.408125)scale(0.2 -0.2)">
      <defs>
       <path id="DejaVuSans-33" d="M 2597 2516 
Q 3050 2419 3304 2112 
Q 3559 1806 3559 1356 
Q 3559 666 3084 287 
Q 2609 -91 1734 -91 
Q 1441 -91 1130 -33 
Q 819 25 488 141 
L 488 750 
Q 750 597 1062 519 
Q 1375 441 1716 441 
Q 2309 441 2620 675 
Q 2931 909 2931 1356 
Q 2931 1769 2642 2001 
Q 2353 2234 1838 2234 
L 1294 2234 
L 1294 2753 
L 1863 2753 
Q 2328 2753 2575 2939 
Q 2822 3125 2822 3475 
Q 2822 3834 2567 4026 
Q 2313 4219 1838 4219 
Q 1578 4219 1281 4162 
Q 984 4106 628 3988 
L 628 4550 
Q 988 4650 1302 4700 
Q 1616 4750 1894 4750 
Q 2613 4750 3031 4423 
Q 3450 4097 3450 3541 
Q 3450 3153 3228 2886 
Q 3006 2619 2597 2516 
z
" transform="scale(0.015625)"/>
      </defs>
      <use xlink:href="#DejaVuSans-2d"/>
      <use xlink:href="#DejaVuSans-31" x="36.083984"/>
      <use xlink:href="#DejaVuSans-3a" x="99.707031"/>
      <use xlink:href="#DejaVuSans-20" x="133.398438"/>
      <use xlink:href="#DejaVuSans-33" x="165.185547"/>
      <use xlink:href="#DejaVuSans-2f" x="228.808594"/>
      <use xlink:href="#DejaVuSans-33" x="262.5"/>
     </g>
    </g>
    <g id="line2d_29">
     <path d="M 313.970125 232.764375 
L 333.970125 232.764375 
L 353.970125 232.764375 
" style="fill: none; stroke: #bf00bf; stroke-width: 3; stroke-linecap: square"/>
    </g>
    <g id="text_10">
     <!-- -4: 2/1 -->
     <g transform="translate(369.970125 239.764375)scale(0.2 -0.2)">
      <use xlink:href="#DejaVuSans-2d"/>
      <use xlink:href="#DejaVuSans-34" x="36.083984"/>
      <use xlink:href="#DejaVuSans-3a" x="99.707031"/>
      <use xlink:href="#DejaVuSans-20" x="133.398438"/>
      <use xlink:href="#DejaVuSans-32" x="165.185547"/>
      <use xlink:href="#DejaVuSans-2f" x="228.808594"/>
      <use xlink:href="#DejaVuSans-31" x="262.5"/>
     </g>
    </g>
    <g id="line2d_30">
     <path d="M 313.970125 262.120625 
L 333.970125 262.120625 
L 353.970125 262.120625 
" style="fill: none; stroke: #ff0000; stroke-width: 3; stroke-linecap: square"/>
    </g>
    <g id="text_11">
     <!-- -8: 2/1 -->
     <g transform="translate(369.970125 269.120625)scale(0.2 -0.2)">
      <use xlink:href="#DejaVuSans-2d"/>
      <use xlink:href="#DejaVuSans-38" x="36.083984"/>
      <use xlink:href="#DejaVuSans-3a" x="99.707031"/>
      <use xlink:href="#DejaVuSans-20" x="133.398438"/>
      <use xlink:href="#DejaVuSans-32" x="165.185547"/>
      <use xlink:href="#DejaVuSans-2f" x="228.808594"/>
      <use xlink:href="#DejaVuSans-31" x="262.5"/>
     </g>
    </g>
   </g>
  </g>
 </g>
 <defs>
  <clipPath id="p73c3b8f887">
   <rect x="34.16" y="3" width="419.032" height="288.28"/>
  </clipPath>
 </defs>
</svg>
