<?xml version="1.0" encoding="utf-8" standalone="no"?>
<!DOCTYPE svg PUBLIC "-//W3C//DTD SVG 1.1//EN"
  "http://www.w3.org/Graphics/SVG/1.1/DTD/svg11.dtd">
<svg xmlns:xlink="http://www.w3.org/1999/xlink" width="460.8pt" height="345.6pt" viewBox="0 0 460.8 345.6" xmlns="http://www.w3.org/2000/svg" version="1.1">
 <metadata>
  <rdf:RDF xmlns:dc="http://purl.org/dc/elements/1.1/" xmlns:cc="http://creativecommons.org/ns#" xmlns:rdf="http://www.w3.org/1999/02/22-rdf-syntax-ns#">
   <cc:Work>
    <dc:type rdf:resource="http://purl.org/dc/dcmitype/StillImage"/>
    <dc:date>2023-04-07T14:45:01.900466</dc:date>
    <dc:format>image/svg+xml</dc:format>
    <dc:creator>
     <cc:Agent>
      <dc:title>Matplotlib v3.5.2, https://matplotlib.org/</dc:title>
     </cc:Agent>
    </dc:creator>
   </cc:Work>
  </rdf:RDF>
 </metadata>
 <defs>
  <style type="text/css">*{stroke-linejoin: round; stroke-linecap: butt}</style>
 </defs>
 <g id="figure_1">
  <g id="patch_1">
   <path d="M 0 345.6 
L 460.8 345.6 
L 460.8 0 
L 0 0 
z
" style="fill: #ffffff"/>
  </g>
  <g id="axes_1">
   <g id="patch_2">
    <path d="M 62.208 293.76 
L 460.8 293.76 
L 460.8 3.456 
L 62.208 3.456 
z
" style="fill: #ffffff"/>
   </g>
   <g id="line2d_1">
    <path d="M 205.261524 293.76 
L 205.261524 289.927604 
L 208.298695 289.927604 
L 208.298695 286.095208 
L 209.251382 286.095208 
L 209.251382 282.262812 
L 210.386992 282.262812 
L 210.386992 278.430416 
L 210.526206 278.430416 
L 210.526206 274.59802 
L 210.802864 274.59802 
L 210.802864 270.765624 
L 214.571338 270.765624 
L 214.571338 266.933228 
L 216.245834 266.933228 
L 216.245834 263.100832 
L 218.498142 263.100832 
L 218.498142 259.268436 
L 221.806846 259.268436 
L 221.806846 255.43604 
L 222.727865 255.43604 
L 222.727865 251.603644 
L 228.295211 251.603644 
L 228.295211 247.771248 
L 234.680916 247.771248 
L 234.680916 243.938851 
L 239.164166 243.938851 
L 239.164166 240.106455 
L 239.82196 240.106455 
L 239.82196 236.274059 
L 240.43899 236.274059 
L 240.43899 232.441663 
L 241.071835 232.441663 
L 241.071835 228.609267 
L 241.316169 228.609267 
L 241.316169 224.776871 
L 243.689063 224.776871 
L 243.689063 220.944475 
L 244.459567 220.944475 
L 244.459567 217.112079 
L 255.643288 217.112079 
L 255.643288 213.279683 
L 256.486799 213.279683 
L 256.486799 209.447287 
L 257.523783 209.447287 
L 257.523783 205.614891 
L 259.72007 205.614891 
L 259.72007 201.782495 
L 267.587432 201.782495 
L 267.587432 197.950099 
L 271.082572 197.950099 
L 271.082572 194.117703 
L 273.752403 194.117703 
L 273.752403 190.285307 
L 283.549473 190.285307 
L 283.549473 186.452911 
L 283.549473 186.452911 
L 283.549473 186.452911 
L 460.8 186.452911 
" clip-path="url(#p2d0bc4ea46)" style="fill: none; stroke: #f5deb3; stroke-width: 1.5; stroke-linecap: square"/>
   </g>
   <g id="line2d_2">
    <path d="M 269.030694 293.76 
L 269.030694 282.262812 
L 284.348157 282.262812 
L 284.348157 270.765624 
L 295.784315 270.765624 
L 295.784315 259.268436 
L 332.428392 259.268436 
L 332.428392 247.771248 
L 359.033764 247.771248 
L 359.033764 236.274059 
L 359.033764 236.274059 
L 359.033764 236.274059 
L 460.8 236.274059 
" clip-path="url(#p2d0bc4ea46)" style="fill: none; stroke: #f5deb3; stroke-width: 1.5; stroke-linecap: square"/>
   </g>
   <g id="line2d_3">
    <path d="M 173.023481 293.76 
L 173.023481 289.927604 
L 176.94152 289.927604 
L 176.94152 286.095208 
L 207.773957 286.095208 
L 207.773957 282.262812 
L 209.033986 282.262812 
L 209.033986 278.430416 
L 210.940319 278.430416 
L 210.940319 274.59802 
L 216.478187 274.59802 
L 216.478187 270.765624 
L 219.830797 270.765624 
L 219.830797 266.933228 
L 222.727865 266.933228 
L 222.727865 263.100832 
L 225.167636 263.100832 
L 225.167636 259.268436 
L 225.564413 259.268436 
L 225.564413 255.43604 
L 229.248433 255.43604 
L 229.248433 251.603644 
L 231.075232 251.603644 
L 231.075232 247.771248 
L 236.454689 247.771248 
L 236.454689 243.938851 
L 238.01756 243.938851 
L 238.01756 240.106455 
L 243.739325 240.106455 
L 243.739325 236.274059 
L 250.578973 236.274059 
L 250.578973 232.441663 
L 257.949031 232.441663 
L 257.949031 228.609267 
L 267.063142 228.609267 
L 267.063142 224.776871 
L 267.611614 224.776871 
L 267.611614 220.944475 
L 269.341661 220.944475 
L 269.341661 217.112079 
L 272.590373 217.112079 
L 272.590373 213.279683 
L 276.155241 213.279683 
L 276.155241 209.447287 
L 276.90934 209.447287 
L 276.90934 205.614891 
L 287.994792 205.614891 
L 287.994792 201.782495 
L 290.850424 201.782495 
L 290.850424 197.950099 
L 315.931529 197.950099 
L 315.931529 194.117703 
L 317.924403 194.117703 
L 317.924403 190.285307 
L 318.404814 190.285307 
L 318.404814 186.452911 
L 327.258298 186.452911 
L 327.258298 182.620515 
L 341.095382 182.620515 
L 341.095382 178.788119 
L 341.095382 178.788119 
L 341.095382 178.788119 
L 460.8 178.788119 
" clip-path="url(#p2d0bc4ea46)" style="fill: none; stroke: #f5deb3; stroke-width: 1.5; stroke-linecap: square"/>
   </g>
   <g id="line2d_4">
    <path d="M 198.281513 293.76 
L 198.281513 289.927604 
L 215.239455 289.927604 
L 215.239455 286.095208 
L 215.299521 286.095208 
L 215.299521 282.262812 
L 217.615777 282.262812 
L 217.615777 278.430416 
L 243.436583 278.430416 
L 243.436583 274.59802 
L 244.385792 274.59802 
L 244.385792 270.765624 
L 247.906484 270.765624 
L 247.906484 266.933228 
L 248.126765 266.933228 
L 248.126765 263.100832 
L 251.403449 263.100832 
L 251.403449 259.268436 
L 260.660666 259.268436 
L 260.660666 255.43604 
L 261.878869 255.43604 
L 261.878869 251.603644 
L 264.454203 251.603644 
L 264.454203 247.771248 
L 264.547267 247.771248 
L 264.547267 243.938851 
L 267.828449 243.938851 
L 267.828449 240.106455 
L 268.446889 240.106455 
L 268.446889 236.274059 
L 269.661046 236.274059 
L 269.661046 232.441663 
L 273.672193 232.441663 
L 273.672193 228.609267 
L 286.184754 228.609267 
L 286.184754 224.776871 
L 294.937137 224.776871 
L 294.937137 220.944475 
L 295.316952 220.944475 
L 295.316952 217.112079 
L 299.754944 217.112079 
L 299.754944 213.279683 
L 301.237882 213.279683 
L 301.237882 209.447287 
L 309.583772 209.447287 
L 309.583772 205.614891 
L 312.337869 205.614891 
L 312.337869 201.782495 
L 315.524614 201.782495 
L 315.524614 197.950099 
L 318.674025 197.950099 
L 318.674025 194.117703 
L 329.080917 194.117703 
L 329.080917 190.285307 
L 333.109986 190.285307 
L 333.109986 186.452911 
L 346.22121 186.452911 
L 346.22121 182.620515 
L 346.971764 182.620515 
L 346.971764 178.788119 
L 348.414872 178.788119 
L 348.414872 174.955723 
L 351.059968 174.955723 
L 351.059968 171.123327 
L 356.170852 171.123327 
L 356.170852 167.290931 
L 356.170852 167.290931 
L 356.170852 167.290931 
L 460.8 167.290931 
" clip-path="url(#p2d0bc4ea46)" style="fill: none; stroke: #f5deb3; stroke-width: 1.5; stroke-linecap: square"/>
   </g>
   <g id="line2d_5">
    <path d="M 289.820093 293.76 
L 289.820093 289.927604 
L 289.820093 289.927604 
L 289.820093 289.927604 
L 460.8 289.927604 
" clip-path="url(#p2d0bc4ea46)" style="fill: none; stroke: #f5deb3; stroke-width: 1.5; stroke-linecap: square"/>
   </g>
   <g id="line2d_6"/>
   <g id="line2d_7">
    <path d="M 218.05994 293.76 
L 218.05994 289.927604 
L 223.762824 289.927604 
L 223.762824 286.095208 
L 225.432689 286.095208 
L 225.432689 282.262812 
L 228.894228 282.262812 
L 228.894228 278.430416 
L 236.107561 278.430416 
L 236.107561 274.59802 
L 283.176462 274.59802 
L 283.176462 270.765624 
L 295.25482 270.765624 
L 295.25482 266.933228 
L 298.234554 266.933228 
L 298.234554 263.100832 
L 298.950421 263.100832 
L 298.950421 259.268436 
L 302.544639 259.268436 
L 302.544639 255.43604 
L 311.579793 255.43604 
L 311.579793 251.603644 
L 313.617659 251.603644 
L 313.617659 247.771248 
L 314.672379 247.771248 
L 314.672379 243.938851 
L 314.860538 243.938851 
L 314.860538 240.106455 
L 316.109852 240.106455 
L 316.109852 236.274059 
L 317.641081 236.274059 
L 317.641081 232.441663 
L 321.666382 232.441663 
L 321.666382 228.609267 
L 322.697641 228.609267 
L 322.697641 224.776871 
L 323.768803 224.776871 
L 323.768803 220.944475 
L 329.069882 220.944475 
L 329.069882 217.112079 
L 330.405259 217.112079 
L 330.405259 213.279683 
L 331.723785 213.279683 
L 331.723785 209.447287 
L 335.384066 209.447287 
L 335.384066 205.614891 
L 338.409404 205.614891 
L 338.409404 201.782495 
L 341.547852 201.782495 
L 341.547852 197.950099 
L 351.410728 197.950099 
L 351.410728 194.117703 
L 351.527431 194.117703 
L 351.527431 190.285307 
L 355.928558 190.285307 
L 355.928558 186.452911 
L 369.506764 186.452911 
L 369.506764 182.620515 
L 371.408128 182.620515 
L 371.408128 178.788119 
L 372.885811 178.788119 
L 372.885811 174.955723 
L 379.125771 174.955723 
L 379.125771 171.123327 
L 381.233011 171.123327 
L 381.233011 167.290931 
L 381.824232 167.290931 
L 381.824232 163.458535 
L 389.781075 163.458535 
L 389.781075 159.626139 
L 391.881004 159.626139 
L 391.881004 155.793743 
L 397.149417 155.793743 
L 397.149417 151.961347 
L 401.601713 151.961347 
L 401.601713 148.12895 
L 404.659146 148.12895 
L 404.659146 144.296554 
L 405.744468 144.296554 
L 405.744468 140.464158 
L 407.543987 140.464158 
L 407.543987 136.631762 
L 409.933938 136.631762 
L 409.933938 132.799366 
L 416.846333 132.799366 
L 416.846333 128.96697 
L 419.361679 128.96697 
L 419.361679 125.134574 
L 421.994136 125.134574 
L 421.994136 121.302178 
L 422.175905 121.302178 
L 422.175905 117.469782 
L 425.415014 117.469782 
L 425.415014 113.637386 
L 425.56506 113.637386 
L 425.56506 109.80499 
L 428.585958 109.80499 
L 428.585958 105.972594 
L 436.568863 105.972594 
L 436.568863 102.140198 
L 455.241527 102.140198 
L 455.241527 98.307802 
L 456.585544 98.307802 
L 456.585544 94.475406 
L 461.8 94.475406 
" clip-path="url(#p2d0bc4ea46)" style="fill: none; stroke: #f5deb3; stroke-width: 1.5; stroke-linecap: square"/>
   </g>
   <g id="line2d_8">
    <path d="M 327.192119 293.76 
L 327.192119 289.927604 
L 332.891457 289.927604 
L 332.891457 286.095208 
L 335.245818 286.095208 
L 335.245818 282.262812 
L 337.289088 282.262812 
L 337.289088 278.430416 
L 337.811155 278.430416 
L 337.811155 274.59802 
L 338.602288 274.59802 
L 338.602288 270.765624 
L 342.079454 270.765624 
L 342.079454 266.933228 
L 362.418756 266.933228 
L 362.418756 263.100832 
L 362.574024 263.100832 
L 362.574024 259.268436 
L 362.590499 259.268436 
L 362.590499 255.43604 
L 363.384516 255.43604 
L 363.384516 251.603644 
L 364.094941 251.603644 
L 364.094941 247.771248 
L 364.679805 247.771248 
L 364.679805 243.938851 
L 387.634151 243.938851 
L 387.634151 240.106455 
L 387.980437 240.106455 
L 387.980437 236.274059 
L 388.022483 236.274059 
L 388.022483 232.441663 
L 388.785854 232.441663 
L 388.785854 228.609267 
L 389.035906 228.609267 
L 389.035906 224.776871 
L 396.68998 224.776871 
L 396.68998 220.944475 
L 397.382181 220.944475 
L 397.382181 217.112079 
L 416.802297 217.112079 
L 416.802297 213.279683 
L 416.861957 213.279683 
L 416.861957 209.447287 
L 417.145753 209.447287 
L 417.145753 205.614891 
L 420.153104 205.614891 
L 420.153104 201.782495 
L 431.54635 201.782495 
L 431.54635 197.950099 
L 438.043475 197.950099 
L 438.043475 194.117703 
L 438.043475 194.117703 
L 438.043475 194.117703 
L 460.8 194.117703 
" clip-path="url(#p2d0bc4ea46)" style="fill: none; stroke: #f5deb3; stroke-width: 1.5; stroke-linecap: square"/>
   </g>
   <g id="line2d_9">
    <path d="M 210.317162 293.76 
L 210.317162 289.927604 
L 214.263068 289.927604 
L 214.263068 286.095208 
L 224.810851 286.095208 
L 224.810851 282.262812 
L 225.651934 282.262812 
L 225.651934 278.430416 
L 257.474358 278.430416 
L 257.474358 274.59802 
L 261.326773 274.59802 
L 261.326773 270.765624 
L 265.217414 270.765624 
L 265.217414 266.933228 
L 268.198543 266.933228 
L 268.198543 263.100832 
L 273.196936 263.100832 
L 273.196936 259.268436 
L 285.576992 259.268436 
L 285.576992 255.43604 
L 286.680473 255.43604 
L 286.680473 251.603644 
L 286.707419 251.603644 
L 286.707419 247.771248 
L 296.270211 247.771248 
L 296.270211 243.938851 
L 298.778736 243.938851 
L 298.778736 240.106455 
L 307.780643 240.106455 
L 307.780643 236.274059 
L 311.378005 236.274059 
L 311.378005 232.441663 
L 313.53487 232.441663 
L 313.53487 228.609267 
L 314.849165 228.609267 
L 314.849165 224.776871 
L 318.26681 224.776871 
L 318.26681 220.944475 
L 320.386186 220.944475 
L 320.386186 217.112079 
L 323.256304 217.112079 
L 323.256304 213.279683 
L 323.258502 213.279683 
L 323.258502 209.447287 
L 325.69302 209.447287 
L 325.69302 205.614891 
L 330.212221 205.614891 
L 330.212221 201.782495 
L 332.411791 201.782495 
L 332.411791 197.950099 
L 334.652806 197.950099 
L 334.652806 194.117703 
L 337.606445 194.117703 
L 337.606445 190.285307 
L 344.732362 190.285307 
L 344.732362 186.452911 
L 345.973352 186.452911 
L 345.973352 182.620515 
L 347.186848 182.620515 
L 347.186848 178.788119 
L 353.944941 178.788119 
L 353.944941 174.955723 
L 355.61845 174.955723 
L 355.61845 171.123327 
L 359.897209 171.123327 
L 359.897209 167.290931 
L 369.289096 167.290931 
L 369.289096 163.458535 
L 369.428849 163.458535 
L 369.428849 159.626139 
L 370.774944 159.626139 
L 370.774944 155.793743 
L 373.985014 155.793743 
L 373.985014 151.961347 
L 376.402647 151.961347 
L 376.402647 148.12895 
L 377.372009 148.12895 
L 377.372009 144.296554 
L 377.5208 144.296554 
L 377.5208 140.464158 
L 381.228173 140.464158 
L 381.228173 136.631762 
L 381.433373 136.631762 
L 381.433373 132.799366 
L 383.812189 132.799366 
L 383.812189 128.96697 
L 384.618251 128.96697 
L 384.618251 125.134574 
L 391.874826 125.134574 
L 391.874826 121.302178 
L 393.871926 121.302178 
L 393.871926 117.469782 
L 393.9194 117.469782 
L 393.9194 113.637386 
L 394.151732 113.637386 
L 394.151732 109.80499 
L 394.179281 109.80499 
L 394.179281 105.972594 
L 394.977043 105.972594 
L 394.977043 102.140198 
L 396.05708 102.140198 
L 396.05708 98.307802 
L 396.780722 98.307802 
L 396.780722 94.475406 
L 396.839154 94.475406 
L 396.839154 90.64301 
L 398.134609 90.64301 
L 398.134609 86.810614 
L 399.019574 86.810614 
L 399.019574 82.978218 
L 399.218404 82.978218 
L 399.218404 79.145822 
L 404.369489 79.145822 
L 404.369489 75.313426 
L 407.989445 75.313426 
L 407.989445 71.48103 
L 420.091021 71.48103 
L 420.091021 67.648634 
L 424.421643 67.648634 
L 424.421643 63.816238 
L 433.577587 63.816238 
L 433.577587 59.983842 
L 461.8 59.983842 
" clip-path="url(#p2d0bc4ea46)" style="fill: none; stroke: #f5deb3; stroke-width: 1.5; stroke-linecap: square"/>
   </g>
   <g id="line2d_10">
    <path d="M 313.108749 293.76 
L 313.108749 289.927604 
L 327.271906 289.927604 
L 327.271906 286.095208 
L 331.150667 286.095208 
L 331.150667 282.262812 
L 334.168627 282.262812 
L 334.168627 278.430416 
L 343.719479 278.430416 
L 343.719479 274.59802 
L 345.753405 274.59802 
L 345.753405 270.765624 
L 346.83648 270.765624 
L 346.83648 266.933228 
L 347.652397 266.933228 
L 347.652397 263.100832 
L 350.654159 263.100832 
L 350.654159 259.268436 
L 375.396499 259.268436 
L 375.396499 255.43604 
L 382.662083 255.43604 
L 382.662083 251.603644 
L 385.637912 251.603644 
L 385.637912 247.771248 
L 389.377283 247.771248 
L 389.377283 243.938851 
L 392.544367 243.938851 
L 392.544367 240.106455 
L 394.2503 240.106455 
L 394.2503 236.274059 
L 394.405054 236.274059 
L 394.405054 232.441663 
L 411.866076 232.441663 
L 411.866076 228.609267 
L 418.947108 228.609267 
L 418.947108 224.776871 
L 421.992321 224.776871 
L 421.992321 220.944475 
L 421.992321 220.944475 
L 421.992321 220.944475 
L 460.8 220.944475 
" clip-path="url(#p2d0bc4ea46)" style="fill: none; stroke: #f5deb3; stroke-width: 1.5; stroke-linecap: square"/>
   </g>
   <g id="line2d_11">
    <path d="M 266.367473 293.76 
L 266.367473 289.927604 
L 293.851691 289.927604 
L 293.851691 286.095208 
L 306.251714 286.095208 
L 306.251714 282.262812 
L 312.131456 282.262812 
L 312.131456 278.430416 
L 314.954212 278.430416 
L 314.954212 274.59802 
L 317.914049 274.59802 
L 317.914049 270.765624 
L 319.028721 270.765624 
L 319.028721 266.933228 
L 320.09448 266.933228 
L 320.09448 263.100832 
L 328.374558 263.100832 
L 328.374558 259.268436 
L 329.817293 259.268436 
L 329.817293 255.43604 
L 329.867594 255.43604 
L 329.867594 251.603644 
L 331.872682 251.603644 
L 331.872682 247.771248 
L 337.299097 247.771248 
L 337.299097 243.938851 
L 337.675766 243.938851 
L 337.675766 240.106455 
L 340.249643 240.106455 
L 340.249643 236.274059 
L 340.846262 236.274059 
L 340.846262 232.441663 
L 341.323665 232.441663 
L 341.323665 228.609267 
L 341.70562 228.609267 
L 341.70562 224.776871 
L 342.408738 224.776871 
L 342.408738 220.944475 
L 346.302689 220.944475 
L 346.302689 217.112079 
L 356.325269 217.112079 
L 356.325269 213.279683 
L 356.883203 213.279683 
L 356.883203 209.447287 
L 358.676987 209.447287 
L 358.676987 205.614891 
L 362.258753 205.614891 
L 362.258753 201.782495 
L 363.407655 201.782495 
L 363.407655 197.950099 
L 365.070487 197.950099 
L 365.070487 194.117703 
L 373.42586 194.117703 
L 373.42586 190.285307 
L 374.435444 190.285307 
L 374.435444 186.452911 
L 374.533381 186.452911 
L 374.533381 182.620515 
L 376.836464 182.620515 
L 376.836464 178.788119 
L 380.458696 178.788119 
L 380.458696 174.955723 
L 398.183363 174.955723 
L 398.183363 171.123327 
L 436.7389 171.123327 
L 436.7389 167.290931 
L 445.695281 167.290931 
L 445.695281 163.458535 
L 447.428196 163.458535 
L 447.428196 159.626139 
L 447.932971 159.626139 
L 447.932971 155.793743 
L 448.204883 155.793743 
L 448.204883 151.961347 
L 461.8 151.961347 
" clip-path="url(#p2d0bc4ea46)" style="fill: none; stroke: #f5deb3; stroke-width: 1.5; stroke-linecap: square"/>
   </g>
   <g id="line2d_12">
    <path d="M 213.256575 293.76 
L 213.256575 289.927604 
L 216.187486 289.927604 
L 216.187486 286.095208 
L 217.559829 286.095208 
L 217.559829 282.262812 
L 229.521292 282.262812 
L 229.521292 278.430416 
L 229.75337 278.430416 
L 229.75337 274.59802 
L 242.275616 274.59802 
L 242.275616 270.765624 
L 243.964554 270.765624 
L 243.964554 266.933228 
L 245.140213 266.933228 
L 245.140213 263.100832 
L 245.854065 263.100832 
L 245.854065 259.268436 
L 249.962225 259.268436 
L 249.962225 255.43604 
L 255.660722 255.43604 
L 255.660722 251.603644 
L 257.391815 251.603644 
L 257.391815 247.771248 
L 258.656298 247.771248 
L 258.656298 243.938851 
L 260.239233 243.938851 
L 260.239233 240.106455 
L 260.329999 240.106455 
L 260.329999 236.274059 
L 260.510778 236.274059 
L 260.510778 232.441663 
L 262.094256 232.441663 
L 262.094256 228.609267 
L 265.746359 228.609267 
L 265.746359 224.776871 
L 272.704319 224.776871 
L 272.704319 220.944475 
L 279.862555 220.944475 
L 279.862555 217.112079 
L 287.274833 217.112079 
L 287.274833 213.279683 
L 291.05736 213.279683 
L 291.05736 209.447287 
L 294.25496 209.447287 
L 294.25496 205.614891 
L 296.425583 205.614891 
L 296.425583 201.782495 
L 306.754782 201.782495 
L 306.754782 197.950099 
L 311.241724 197.950099 
L 311.241724 194.117703 
L 316.314407 194.117703 
L 316.314407 190.285307 
L 316.896464 190.285307 
L 316.896464 186.452911 
L 327.176528 186.452911 
L 327.176528 182.620515 
L 327.594892 182.620515 
L 327.594892 178.788119 
L 327.594892 178.788119 
L 327.594892 178.788119 
L 460.8 178.788119 
" clip-path="url(#p2d0bc4ea46)" style="fill: none; stroke: #f5deb3; stroke-width: 1.5; stroke-linecap: square"/>
   </g>
   <g id="line2d_13">
    <path d="M 266.505297 293.76 
L 266.505297 289.927604 
L 277.797159 289.927604 
L 277.797159 286.095208 
L 282.077748 286.095208 
L 282.077748 282.262812 
L 283.048662 282.262812 
L 283.048662 278.430416 
L 287.466187 278.430416 
L 287.466187 274.59802 
L 291.021978 274.59802 
L 291.021978 270.765624 
L 293.948931 270.765624 
L 293.948931 266.933228 
L 294.18006 266.933228 
L 294.18006 263.100832 
L 294.18006 263.100832 
L 294.18006 259.268436 
L 296.255136 259.268436 
L 296.255136 255.43604 
L 308.110895 255.43604 
L 308.110895 251.603644 
L 308.110895 251.603644 
L 308.110895 251.603644 
L 460.8 251.603644 
" clip-path="url(#p2d0bc4ea46)" style="fill: none; stroke: #f5deb3; stroke-width: 1.5; stroke-linecap: square"/>
   </g>
   <g id="line2d_14">
    <path d="M 183.598338 293.76 
L 183.598338 289.927604 
L 192.791173 289.927604 
L 192.791173 286.095208 
L 241.639128 286.095208 
L 241.639128 282.262812 
L 272.807563 282.262812 
L 272.807563 278.430416 
L 280.430604 278.430416 
L 280.430604 274.59802 
L 284.275692 274.59802 
L 284.275692 270.765624 
L 285.303982 270.765624 
L 285.303982 266.933228 
L 291.519678 266.933228 
L 291.519678 263.100832 
L 292.266484 263.100832 
L 292.266484 259.268436 
L 296.310378 259.268436 
L 296.310378 255.43604 
L 298.568707 255.43604 
L 298.568707 251.603644 
L 299.019766 251.603644 
L 299.019766 247.771248 
L 299.27278 247.771248 
L 299.27278 243.938851 
L 300.947505 243.938851 
L 300.947505 240.106455 
L 303.444134 240.106455 
L 303.444134 236.274059 
L 306.674518 236.274059 
L 306.674518 232.441663 
L 309.793605 232.441663 
L 309.793605 228.609267 
L 325.486331 228.609267 
L 325.486331 224.776871 
L 325.949049 224.776871 
L 325.949049 220.944475 
L 327.106277 220.944475 
L 327.106277 217.112079 
L 327.849854 217.112079 
L 327.849854 213.279683 
L 336.781784 213.279683 
L 336.781784 209.447287 
L 339.806499 209.447287 
L 339.806499 205.614891 
L 343.539302 205.614891 
L 343.539302 201.782495 
L 345.666116 201.782495 
L 345.666116 197.950099 
L 348.498164 197.950099 
L 348.498164 194.117703 
L 357.193242 194.117703 
L 357.193242 190.285307 
L 357.193242 190.285307 
L 357.193242 190.285307 
L 460.8 190.285307 
" clip-path="url(#p2d0bc4ea46)" style="fill: none; stroke: #f5deb3; stroke-width: 1.5; stroke-linecap: square"/>
   </g>
   <g id="line2d_15">
    <path d="M 372.727303 293.76 
L 372.727303 289.927604 
L 374.205006 289.927604 
L 374.205006 286.095208 
L 376.527983 286.095208 
L 376.527983 282.262812 
L 379.198737 282.262812 
L 379.198737 278.430416 
L 381.330378 278.430416 
L 381.330378 274.59802 
L 384.659829 274.59802 
L 384.659829 270.765624 
L 386.958168 270.765624 
L 386.958168 266.933228 
L 390.789928 266.933228 
L 390.789928 263.100832 
L 396.033201 263.100832 
L 396.033201 259.268436 
L 398.638776 259.268436 
L 398.638776 255.43604 
L 398.901511 255.43604 
L 398.901511 251.603644 
L 402.957581 251.603644 
L 402.957581 247.771248 
L 403.638769 247.771248 
L 403.638769 243.938851 
L 403.683144 243.938851 
L 403.683144 240.106455 
L 404.263234 240.106455 
L 404.263234 236.274059 
L 405.127021 236.274059 
L 405.127021 232.441663 
L 406.869793 232.441663 
L 406.869793 228.609267 
L 409.870221 228.609267 
L 409.870221 224.776871 
L 414.467089 224.776871 
L 414.467089 220.944475 
L 414.467089 220.944475 
L 414.467089 220.944475 
L 460.8 220.944475 
" clip-path="url(#p2d0bc4ea46)" style="fill: none; stroke: #f5deb3; stroke-width: 1.5; stroke-linecap: square"/>
   </g>
   <g id="line2d_16">
    <path d="M 271.37468 293.76 
L 271.37468 289.927604 
L 337.913732 289.927604 
L 337.913732 286.095208 
L 359.426631 286.095208 
L 359.426631 282.262812 
L 360.164414 282.262812 
L 360.164414 278.430416 
L 366.804769 278.430416 
L 366.804769 274.59802 
L 372.834344 274.59802 
L 372.834344 270.765624 
L 387.095609 270.765624 
L 387.095609 266.933228 
L 394.786426 266.933228 
L 394.786426 263.100832 
L 395.791296 263.100832 
L 395.791296 259.268436 
L 397.602028 259.268436 
L 397.602028 255.43604 
L 403.710077 255.43604 
L 403.710077 251.603644 
L 407.51821 251.603644 
L 407.51821 247.771248 
L 409.852258 247.771248 
L 409.852258 243.938851 
L 410.963514 243.938851 
L 410.963514 240.106455 
L 412.33495 240.106455 
L 412.33495 236.274059 
L 412.505469 236.274059 
L 412.505469 232.441663 
L 416.246131 232.441663 
L 416.246131 228.609267 
L 416.461767 228.609267 
L 416.461767 224.776871 
L 418.352897 224.776871 
L 418.352897 220.944475 
L 422.580514 220.944475 
L 422.580514 217.112079 
L 422.805857 217.112079 
L 422.805857 213.279683 
L 428.892014 213.279683 
L 428.892014 209.447287 
L 431.707885 209.447287 
L 431.707885 205.614891 
L 432.842 205.614891 
L 432.842 201.782495 
L 438.249922 201.782495 
L 438.249922 197.950099 
L 441.00688 197.950099 
L 441.00688 194.117703 
L 442.053657 194.117703 
L 442.053657 190.285307 
L 443.044832 190.285307 
L 443.044832 186.452911 
L 443.973701 186.452911 
L 443.973701 182.620515 
L 444.211431 182.620515 
L 444.211431 178.788119 
L 444.952538 178.788119 
L 444.952538 174.955723 
L 450.856008 174.955723 
L 450.856008 171.123327 
L 454.170114 171.123327 
L 454.170114 167.290931 
L 458.318092 167.290931 
L 458.318092 163.458535 
L 461.8 163.458535 
" clip-path="url(#p2d0bc4ea46)" style="fill: none; stroke: #f5deb3; stroke-width: 1.5; stroke-linecap: square"/>
   </g>
   <g id="line2d_17">
    <path d="M 279.16589 293.76 
L 279.16589 289.927604 
L 281.117053 289.927604 
L 281.117053 286.095208 
L 296.615035 286.095208 
L 296.615035 282.262812 
L 355.780366 282.262812 
L 355.780366 278.430416 
L 387.036777 278.430416 
L 387.036777 274.59802 
L 387.036777 274.59802 
L 387.036777 274.59802 
L 460.8 274.59802 
" clip-path="url(#p2d0bc4ea46)" style="fill: none; stroke: #f5deb3; stroke-width: 1.5; stroke-linecap: square"/>
   </g>
   <g id="line2d_18">
    <path d="M 191.94319 293.76 
L 191.94319 289.927604 
L 207.393912 289.927604 
L 207.393912 286.095208 
L 213.826541 286.095208 
L 213.826541 282.262812 
L 215.179279 282.262812 
L 215.179279 278.430416 
L 215.479057 278.430416 
L 215.479057 274.59802 
L 225.432689 274.59802 
L 225.432689 270.765624 
L 231.55289 270.765624 
L 231.55289 266.933228 
L 232.734919 266.933228 
L 232.734919 263.100832 
L 235.108952 263.100832 
L 235.108952 259.268436 
L 238.433811 259.268436 
L 238.433811 255.43604 
L 245.49909 255.43604 
L 245.49909 251.603644 
L 246.228498 251.603644 
L 246.228498 247.771248 
L 247.617879 247.771248 
L 247.617879 243.938851 
L 248.104804 243.938851 
L 248.104804 240.106455 
L 257.65522 240.106455 
L 257.65522 236.274059 
L 259.098528 236.274059 
L 259.098528 232.441663 
L 259.441839 232.441663 
L 259.441839 228.609267 
L 259.842971 228.609267 
L 259.842971 224.776871 
L 260.660666 224.776871 
L 260.660666 220.944475 
L 270.201398 220.944475 
L 270.201398 217.112079 
L 270.798791 217.112079 
L 270.798791 213.279683 
L 275.516401 213.279683 
L 275.516401 209.447287 
L 277.973621 209.447287 
L 277.973621 205.614891 
L 283.423127 205.614891 
L 283.423127 201.782495 
L 291.826211 201.782495 
L 291.826211 197.950099 
L 294.94237 197.950099 
L 294.94237 194.117703 
L 297.623357 194.117703 
L 297.623357 190.285307 
L 301.384256 190.285307 
L 301.384256 186.452911 
L 314.703814 186.452911 
L 314.703814 182.620515 
L 319.922092 182.620515 
L 319.922092 178.788119 
L 319.922092 178.788119 
L 319.922092 178.788119 
L 460.8 178.788119 
" clip-path="url(#p2d0bc4ea46)" style="fill: none; stroke: #f5deb3; stroke-width: 1.5; stroke-linecap: square"/>
   </g>
   <g id="line2d_19">
    <path d="M 311.548346 293.76 
L 311.548346 289.553712 
L 314.526236 289.553712 
L 314.526236 285.347423 
L 317.37634 285.347423 
L 317.37634 281.141135 
L 320.909973 281.141135 
L 320.909973 276.934847 
L 321.774666 276.934847 
L 321.774666 272.728558 
L 322.044958 272.728558 
L 322.044958 268.52227 
L 324.705161 268.52227 
L 324.705161 264.315982 
L 324.828982 264.315982 
L 324.828982 260.109693 
L 325.432911 260.109693 
L 325.432911 255.903405 
L 326.774449 255.903405 
L 326.774449 251.697117 
L 328.462756 251.697117 
L 328.462756 247.490828 
L 329.038595 247.490828 
L 329.038595 243.28454 
L 329.180065 243.28454 
L 329.180065 239.078252 
L 329.530174 239.078252 
L 329.530174 234.871963 
L 331.262658 234.871963 
L 331.262658 230.665675 
L 336.946946 230.665675 
L 336.946946 226.459387 
L 338.193126 226.459387 
L 338.193126 222.253098 
L 342.825384 222.253098 
L 342.825384 218.04681 
L 346.150429 218.04681 
L 346.150429 213.840522 
L 347.190016 213.840522 
L 347.190016 209.634233 
L 347.813368 209.634233 
L 347.813368 205.427945 
L 348.120637 205.427945 
L 348.12269 197.015368 
L 350.347895 197.015368 
L 350.410143 188.602792 
L 351.589319 188.602792 
L 351.589319 184.396503 
L 354.094847 184.396503 
L 354.094847 180.190215 
L 356.658802 180.190215 
L 356.658802 175.983927 
L 357.72519 175.983927 
L 357.72519 171.777638 
L 357.863307 171.777638 
L 357.863307 167.57135 
L 365.738343 167.57135 
L 365.738343 163.365062 
L 367.122264 163.365062 
L 367.148631 154.952485 
L 368.225041 154.952485 
L 368.225041 150.746197 
L 369.464094 150.746197 
L 369.464094 146.539908 
L 370.698973 146.539908 
L 370.698973 142.33362 
L 370.99009 142.33362 
L 370.99009 138.127332 
L 373.195775 138.127332 
L 373.195775 133.921043 
L 373.54854 133.921043 
L 373.54854 129.714755 
L 374.517384 129.714755 
L 374.517384 125.508467 
L 374.694747 125.508467 
L 374.694747 121.302178 
L 383.533122 121.302178 
L 383.533122 117.09589 
L 384.688299 117.09589 
L 384.688299 112.889602 
L 389.376703 112.889602 
L 389.376703 108.683313 
L 417.0506 108.683313 
L 417.0506 104.477025 
L 417.0506 104.477025 
L 460.8 104.477025 
L 460.8 104.477025 
" clip-path="url(#p2d0bc4ea46)" style="fill: none; stroke: #f5deb3; stroke-width: 1.5; stroke-linecap: square"/>
   </g>
   <g id="line2d_20">
    <path d="M 188.03668 293.76 
L 188.03668 289.927604 
L 188.03668 289.927604 
L 188.03668 286.095208 
L 191.448551 286.095208 
L 191.448551 282.262812 
L 193.266025 282.262812 
L 193.266025 278.430416 
L 204.013773 278.430416 
L 204.013773 274.59802 
L 218.930539 274.59802 
L 218.930539 270.765624 
L 222.680033 270.765624 
L 222.680033 266.933228 
L 228.415897 266.933228 
L 228.415897 263.100832 
L 235.466804 263.100832 
L 235.466804 259.268436 
L 243.512532 259.268436 
L 243.512532 255.43604 
L 244.60662 255.43604 
L 244.60662 251.603644 
L 246.298229 251.603644 
L 246.298229 247.771248 
L 247.617879 247.771248 
L 247.617879 243.938851 
L 250.415643 243.938851 
L 250.415643 240.106455 
L 250.49741 240.106455 
L 250.49741 236.274059 
L 256.007465 236.274059 
L 256.007465 232.441663 
L 258.608559 232.441663 
L 258.608559 228.609267 
L 259.192517 228.609267 
L 259.192517 224.776871 
L 259.781578 224.776871 
L 259.781578 220.944475 
L 260.615772 220.944475 
L 260.615772 217.112079 
L 263.233414 217.112079 
L 263.233414 213.279683 
L 266.29205 213.279683 
L 266.29205 209.447287 
L 271.439239 209.447287 
L 271.439239 205.614891 
L 271.449987 205.614891 
L 271.449987 201.782495 
L 272.776624 201.782495 
L 272.776624 197.950099 
L 281.805019 197.950099 
L 281.805019 194.117703 
L 282.745966 194.117703 
L 282.745966 190.285307 
L 283.998848 190.285307 
L 283.998848 186.452911 
L 300.096314 186.452911 
L 300.096314 182.620515 
L 301.500028 182.620515 
L 301.500028 178.788119 
L 383.012517 178.788119 
L 383.012517 174.955723 
L 383.012517 174.955723 
L 383.012517 174.955723 
L 460.8 174.955723 
" clip-path="url(#p2d0bc4ea46)" style="fill: none; stroke: #f5deb3; stroke-width: 1.5; stroke-linecap: square"/>
   </g>
   <g id="line2d_21">
    <path d="M 330.399961 293.76 
L 330.399961 289.927604 
L 347.505272 289.927604 
L 347.505272 286.095208 
L 353.243737 286.095208 
L 353.243737 282.262812 
L 353.243737 282.262812 
L 353.243737 282.262812 
L 460.8 282.262812 
" clip-path="url(#p2d0bc4ea46)" style="fill: none; stroke: #f5deb3; stroke-width: 1.5; stroke-linecap: square"/>
   </g>
   <g id="line2d_22">
    <path d="M 175.955175 293.76 
L 175.955175 289.927604 
L 180.95888 289.927604 
L 180.95888 286.095208 
L 187.478624 286.095208 
L 187.478624 282.262812 
L 188.312172 282.262812 
L 188.312172 278.430416 
L 193.266025 278.430416 
L 193.266025 274.59802 
L 195.978631 274.59802 
L 195.978631 270.765624 
L 237.014873 270.765624 
L 237.014873 266.933228 
L 257.523783 266.933228 
L 257.523783 263.100832 
L 259.192517 263.100832 
L 259.192517 259.268436 
L 262.279783 259.268436 
L 262.279783 255.43604 
L 264.22708 255.43604 
L 264.22708 251.603644 
L 270.36844 251.603644 
L 270.36844 247.771248 
L 273.166364 247.771248 
L 273.166364 243.938851 
L 279.478289 243.938851 
L 279.478289 240.106455 
L 283.063723 240.106455 
L 283.063723 236.274059 
L 286.902118 236.274059 
L 286.902118 232.441663 
L 303.058752 232.441663 
L 303.058752 228.609267 
L 303.532735 228.609267 
L 303.532735 224.776871 
L 306.248013 224.776871 
L 306.248013 220.944475 
L 307.314753 220.944475 
L 307.314753 217.112079 
L 309.912906 217.112079 
L 309.912906 213.279683 
L 317.515531 213.279683 
L 317.515531 209.447287 
L 325.768412 209.447287 
L 325.768412 205.614891 
L 331.069448 205.614891 
L 331.069448 201.782495 
L 331.759379 201.782495 
L 331.759379 197.950099 
L 332.366927 197.950099 
L 332.366927 194.117703 
L 343.670117 194.117703 
L 343.670117 190.285307 
L 352.233506 190.285307 
L 352.233506 186.452911 
L 357.631764 186.452911 
L 357.631764 182.620515 
L 365.898878 182.620515 
L 365.898878 178.788119 
L 368.494461 178.788119 
L 368.494461 174.955723 
L 372.128778 174.955723 
L 372.128778 171.123327 
L 377.058421 171.123327 
L 377.058421 167.290931 
L 379.893982 167.290931 
L 379.893982 163.458535 
L 382.071832 163.458535 
L 382.071832 159.626139 
L 392.174333 159.626139 
L 392.174333 155.793743 
L 393.127627 155.793743 
L 393.127627 151.961347 
L 396.28389 151.961347 
L 396.28389 148.12895 
L 405.488233 148.12895 
L 405.488233 144.296554 
L 418.744025 144.296554 
L 418.744025 140.464158 
L 420.715486 140.464158 
L 420.715486 136.631762 
L 422.320532 136.631762 
L 422.320532 132.799366 
L 427.853567 132.799366 
L 427.853567 128.96697 
L 427.96688 128.96697 
L 427.96688 125.134574 
L 427.96688 125.134574 
L 427.96688 125.134574 
L 460.8 125.134574 
" clip-path="url(#p2d0bc4ea46)" style="fill: none; stroke: #f5deb3; stroke-width: 1.5; stroke-linecap: square"/>
   </g>
   <g id="line2d_23">
    <path d="M 273.298636 293.76 
L 273.298636 289.927604 
L 278.419331 289.927604 
L 278.419331 286.095208 
L 280.763517 286.095208 
L 280.763517 282.262812 
L 281.395566 282.262812 
L 281.395566 278.430416 
L 282.593559 278.430416 
L 282.593559 274.59802 
L 284.986107 274.59802 
L 284.986107 270.765624 
L 297.279335 270.765624 
L 297.279335 266.933228 
L 300.434152 266.933228 
L 300.434152 263.100832 
L 300.614965 263.100832 
L 300.614965 259.268436 
L 301.950611 259.268436 
L 301.950611 255.43604 
L 307.991827 255.43604 
L 307.991827 251.603644 
L 310.287844 251.603644 
L 310.287844 247.771248 
L 315.432564 247.771248 
L 315.432564 243.938851 
L 320.594325 243.938851 
L 320.594325 240.106455 
L 322.719994 240.106455 
L 322.719994 236.274059 
L 326.748783 236.274059 
L 326.748783 232.441663 
L 337.59653 232.441663 
L 337.59653 228.609267 
L 337.626266 228.609267 
L 337.626266 224.776871 
L 339.8647 224.776871 
L 339.8647 220.944475 
L 343.82149 220.944475 
L 343.82149 217.112079 
L 357.425589 217.112079 
L 357.425589 213.279683 
L 357.425589 213.279683 
L 357.425589 213.279683 
L 460.8 213.279683 
" clip-path="url(#p2d0bc4ea46)" style="fill: none; stroke: #f5deb3; stroke-width: 1.5; stroke-linecap: square"/>
   </g>
   <g id="line2d_24">
    <path d="M 238.551771 293.76 
L 238.551771 289.927604 
L 239.651636 289.927604 
L 239.651636 286.095208 
L 244.850244 286.095208 
L 244.850244 282.262812 
L 245.736169 282.262812 
L 245.736169 278.430416 
L 250.700936 278.430416 
L 250.700936 274.59802 
L 251.44314 274.59802 
L 251.44314 270.765624 
L 258.893952 270.765624 
L 258.893952 266.933228 
L 278.410649 266.933228 
L 278.410649 263.100832 
L 299.944037 263.100832 
L 299.944037 259.268436 
L 300.694032 259.268436 
L 300.694032 255.43604 
L 301.806761 255.43604 
L 301.806761 251.603644 
L 302.911515 251.603644 
L 302.911515 247.771248 
L 304.386183 247.771248 
L 304.386183 243.938851 
L 305.080094 243.938851 
L 305.080094 240.106455 
L 305.267503 240.106455 
L 305.267503 236.274059 
L 307.422034 236.274059 
L 307.422034 232.441663 
L 314.612282 232.441663 
L 314.612282 228.609267 
L 315.202704 228.609267 
L 315.202704 224.776871 
L 316.10438 224.776871 
L 316.10438 220.944475 
L 323.917766 220.944475 
L 323.917766 217.112079 
L 328.400855 217.112079 
L 328.400855 213.279683 
L 329.311796 213.279683 
L 329.311796 209.447287 
L 330.359317 209.447287 
L 330.359317 205.614891 
L 330.503993 205.614891 
L 330.503993 201.782495 
L 332.593937 201.782495 
L 332.593937 197.950099 
L 337.895489 197.950099 
L 337.895489 194.117703 
L 339.292764 194.117703 
L 339.292764 190.285307 
L 339.815765 190.285307 
L 339.815765 186.452911 
L 344.629735 186.452911 
L 344.629735 182.620515 
L 347.657602 182.620515 
L 347.657602 178.788119 
L 349.094267 178.788119 
L 349.094267 174.955723 
L 352.664046 174.955723 
L 352.664046 171.123327 
L 353.966398 171.123327 
L 353.966398 167.290931 
L 357.628697 167.290931 
L 357.628697 163.458535 
L 362.652368 163.458535 
L 362.652368 159.626139 
L 363.836603 159.626139 
L 363.836603 155.793743 
L 368.171777 155.793743 
L 368.171777 151.961347 
L 381.112575 151.961347 
L 381.112575 148.12895 
L 383.120536 148.12895 
L 383.120536 144.296554 
L 385.116701 144.296554 
L 385.116701 140.464158 
L 393.71284 140.464158 
L 393.71284 136.631762 
L 396.845384 136.631762 
L 396.845384 132.799366 
L 412.120217 132.799366 
L 412.120217 128.96697 
L 414.53439 128.96697 
L 414.53439 125.134574 
L 415.568968 125.134574 
L 415.568968 121.302178 
L 415.825762 121.302178 
L 415.825762 117.469782 
L 416.251097 117.469782 
L 416.251097 113.637386 
L 417.926923 113.637386 
L 417.926923 109.80499 
L 418.345853 109.80499 
L 418.345853 105.972594 
L 420.415507 105.972594 
L 420.415507 102.140198 
L 433.135175 102.140198 
L 433.135175 98.307802 
L 433.603038 98.307802 
L 433.603038 94.475406 
L 437.02645 94.475406 
L 437.02645 90.64301 
L 446.64628 90.64301 
L 446.64628 86.810614 
L 448.076512 86.810614 
L 448.076512 82.978218 
L 461.8 82.978218 
" clip-path="url(#p2d0bc4ea46)" style="fill: none; stroke: #f5deb3; stroke-width: 1.5; stroke-linecap: square"/>
   </g>
   <g id="line2d_25">
    <path d="M 346.528678 293.76 
L 346.528678 289.927604 
L 348.752814 289.927604 
L 348.752814 286.095208 
L 352.028381 286.095208 
L 352.028381 282.262812 
L 352.882971 282.262812 
L 352.882971 278.430416 
L 352.909569 278.430416 
L 352.909569 274.59802 
L 353.604899 274.59802 
L 353.604899 270.765624 
L 353.736503 270.765624 
L 353.736503 266.933228 
L 354.238962 266.933228 
L 354.238962 263.100832 
L 355.163413 263.100832 
L 355.163413 259.268436 
L 356.136348 259.268436 
L 356.136348 255.43604 
L 356.509927 255.43604 
L 356.509927 251.603644 
L 356.560684 251.603644 
L 356.560684 247.771248 
L 356.607406 247.771248 
L 356.607406 243.938851 
L 356.661962 243.938851 
L 356.661962 240.106455 
L 356.980358 240.106455 
L 356.980358 236.274059 
L 357.417871 236.274059 
L 357.417871 232.441663 
L 357.63023 232.441663 
L 357.63023 228.609267 
L 358.14082 228.609267 
L 358.14082 224.776871 
L 359.037437 224.776871 
L 359.037437 220.944475 
L 359.367056 220.944475 
L 359.367056 217.112079 
L 360.375909 217.112079 
L 360.375909 213.279683 
L 360.458297 213.279683 
L 360.458297 209.447287 
L 361.999496 209.447287 
L 361.999496 205.614891 
L 362.164109 205.614891 
L 362.164109 201.782495 
L 371.393541 201.782495 
L 371.393541 197.950099 
L 372.310763 197.950099 
L 372.310763 194.117703 
L 373.133827 194.117703 
L 373.133827 190.285307 
L 373.408364 190.285307 
L 373.408364 186.452911 
L 373.824763 186.452911 
L 373.824763 182.620515 
L 374.272788 182.620515 
L 374.272788 178.788119 
L 374.292589 178.788119 
L 374.292589 174.955723 
L 374.533838 174.955723 
L 374.533838 171.123327 
L 375.11626 171.123327 
L 375.11626 167.290931 
L 375.123441 167.290931 
L 375.123441 163.458535 
L 375.20233 163.458535 
L 375.20233 159.626139 
L 376.411277 159.626139 
L 376.411277 155.793743 
L 376.679807 155.793743 
L 376.679807 151.961347 
L 376.679807 151.961347 
L 376.679807 151.961347 
L 460.8 151.961347 
" clip-path="url(#p2d0bc4ea46)" style="fill: none; stroke: #f5deb3; stroke-width: 1.5; stroke-linecap: square"/>
   </g>
   <g id="line2d_26">
    <path d="M 251.403449 293.76 
L 251.403449 289.927604 
L 252.592817 289.927604 
L 252.592817 286.095208 
L 252.878765 286.095208 
L 252.878765 282.262812 
L 253.256174 282.262812 
L 253.256174 278.430416 
L 253.405924 278.430416 
L 253.405924 274.59802 
L 254.253907 274.59802 
L 254.253907 270.765624 
L 254.866818 270.765624 
L 254.866818 266.933228 
L 255.08042 266.933228 
L 255.08042 263.100832 
L 257.704372 263.100832 
L 257.704372 259.268436 
L 265.45069 259.268436 
L 265.45069 255.43604 
L 266.203836 255.43604 
L 266.203836 251.603644 
L 267.12454 251.603644 
L 267.12454 247.771248 
L 267.466254 247.771248 
L 267.466254 243.938851 
L 269.898552 243.938851 
L 269.898552 240.106455 
L 276.350029 240.106455 
L 276.350029 236.274059 
L 276.954763 236.274059 
L 276.954763 232.441663 
L 276.972914 232.441663 
L 276.972914 228.609267 
L 277.4324 228.609267 
L 277.4324 224.776871 
L 278.850472 224.776871 
L 278.850472 220.944475 
L 279.063925 220.944475 
L 279.063925 217.112079 
L 279.821006 217.112079 
L 279.821006 213.279683 
L 288.976782 213.279683 
L 288.976782 209.447287 
L 291.192636 209.447287 
L 291.192636 205.614891 
L 291.274704 205.614891 
L 291.274704 201.782495 
L 292.049948 201.782495 
L 292.049948 197.950099 
L 293.344619 197.950099 
L 293.344619 194.117703 
L 297.758038 194.117703 
L 297.758038 190.285307 
L 297.925611 190.285307 
L 297.925611 186.452911 
L 300.636948 186.452911 
L 300.636948 182.620515 
L 301.474336 182.620515 
L 301.474336 178.788119 
L 309.650532 178.788119 
L 309.650532 174.955723 
L 310.635884 174.955723 
L 310.635884 171.123327 
L 313.89114 171.123327 
L 313.89114 167.290931 
L 316.145401 167.290931 
L 316.145401 163.458535 
L 331.706822 163.458535 
L 331.706822 159.626139 
L 333.52987 159.626139 
L 333.52987 155.793743 
L 355.24767 155.793743 
L 355.24767 151.961347 
L 355.542504 151.961347 
L 355.542504 148.12895 
L 368.516996 148.12895 
L 368.516996 144.296554 
L 372.245639 144.296554 
L 372.245639 140.464158 
L 374.765151 140.464158 
L 374.765151 136.631762 
L 375.168736 136.631762 
L 375.168736 132.799366 
L 377.718693 132.799366 
L 377.718693 128.96697 
L 378.074856 128.96697 
L 378.074856 125.134574 
L 378.410137 125.134574 
L 378.410137 121.302178 
L 380.380092 121.302178 
L 380.380092 117.469782 
L 381.793881 117.469782 
L 381.793881 113.637386 
L 381.85565 113.637386 
L 381.85565 109.80499 
L 381.911106 109.80499 
L 381.911106 105.972594 
L 386.802265 105.972594 
L 386.802265 102.140198 
L 386.802265 102.140198 
L 386.802265 102.140198 
L 460.8 102.140198 
" clip-path="url(#p2d0bc4ea46)" style="fill: none; stroke: #f5deb3; stroke-width: 1.5; stroke-linecap: square"/>
   </g>
   <g id="line2d_27">
    <path d="M 206.384576 293.76 
L 206.384576 289.927604 
L 214.076699 289.927604 
L 214.076699 286.095208 
L 243.461919 286.095208 
L 243.461919 282.262812 
L 254.290281 282.262812 
L 254.290281 278.430416 
L 274.631697 278.430416 
L 274.631697 274.59802 
L 287.558165 274.59802 
L 287.558165 270.765624 
L 291.906703 270.765624 
L 291.906703 266.933228 
L 292.723309 266.933228 
L 292.723309 263.100832 
L 293.063167 263.100832 
L 293.063167 259.268436 
L 300.145429 259.268436 
L 300.145429 255.43604 
L 302.370063 255.43604 
L 302.370063 251.603644 
L 302.378398 251.603644 
L 302.378398 247.771248 
L 304.849138 247.771248 
L 304.849138 243.938851 
L 307.471978 243.938851 
L 307.471978 240.106455 
L 309.570404 240.106455 
L 309.570404 236.274059 
L 311.867697 236.274059 
L 311.867697 232.441663 
L 311.964138 232.441663 
L 311.964138 228.609267 
L 313.261361 228.609267 
L 313.261361 224.776871 
L 316.18637 224.776871 
L 316.18637 220.944475 
L 319.853857 220.944475 
L 319.853857 217.112079 
L 324.155985 217.112079 
L 324.155985 213.279683 
L 327.035873 213.279683 
L 327.035873 209.447287 
L 327.368944 209.447287 
L 327.368944 205.614891 
L 337.511419 205.614891 
L 337.511419 201.782495 
L 337.881448 201.782495 
L 337.881448 197.950099 
L 338.849983 197.950099 
L 338.849983 194.117703 
L 341.164035 194.117703 
L 341.164035 190.285307 
L 343.203389 190.285307 
L 343.203389 186.452911 
L 344.102422 186.452911 
L 344.102422 182.620515 
L 348.20673 182.620515 
L 348.20673 178.788119 
L 404.340894 178.788119 
L 404.340894 174.955723 
L 404.340894 174.955723 
L 404.340894 174.955723 
L 460.8 174.955723 
" clip-path="url(#p2d0bc4ea46)" style="fill: none; stroke: #f5deb3; stroke-width: 1.5; stroke-linecap: square"/>
   </g>
   <g id="line2d_28">
    <path d="M 219.726164 293.76 
L 219.726164 289.927604 
L 220.246008 289.927604 
L 220.246008 286.095208 
L 227.063159 286.095208 
L 227.063159 282.262812 
L 234.84621 282.262812 
L 234.84621 278.430416 
L 250.619678 278.430416 
L 250.619678 274.59802 
L 270.301726 274.59802 
L 270.301726 270.765624 
L 282.023384 270.765624 
L 282.023384 266.933228 
L 301.047478 266.933228 
L 301.047478 263.100832 
L 302.960668 263.100832 
L 302.960668 259.268436 
L 304.635983 259.268436 
L 304.635983 255.43604 
L 304.663189 255.43604 
L 304.663189 251.603644 
L 306.166492 251.603644 
L 306.166492 247.771248 
L 306.476665 247.771248 
L 306.476665 243.938851 
L 308.551846 243.938851 
L 308.551846 240.106455 
L 312.734688 240.106455 
L 312.734688 236.274059 
L 313.873565 236.274059 
L 313.873565 232.441663 
L 328.087679 232.441663 
L 328.087679 228.609267 
L 329.069882 228.609267 
L 329.069882 224.776871 
L 329.560993 224.776871 
L 329.560993 220.944475 
L 329.83886 220.944475 
L 329.83886 217.112079 
L 330.394663 217.112079 
L 330.394663 213.279683 
L 331.267818 213.279683 
L 331.267818 209.447287 
L 332.148371 209.447287 
L 332.148371 205.614891 
L 332.562548 205.614891 
L 332.562548 201.782495 
L 333.098606 201.782495 
L 333.098606 197.950099 
L 336.948391 197.950099 
L 336.948391 194.117703 
L 337.020565 194.117703 
L 337.020565 190.285307 
L 340.618479 190.285307 
L 340.618479 186.452911 
L 341.517714 186.452911 
L 341.517714 182.620515 
L 341.633091 182.620515 
L 341.633091 178.788119 
L 344.557704 178.788119 
L 344.557704 174.955723 
L 344.79151 174.955723 
L 344.79151 171.123327 
L 355.078937 171.123327 
L 355.078937 167.290931 
L 358.436951 167.290931 
L 358.436951 163.458535 
L 361.281909 163.458535 
L 361.281909 159.626139 
L 362.849044 159.626139 
L 362.849044 155.793743 
L 363.472486 155.793743 
L 363.472486 151.961347 
L 365.630479 151.961347 
L 365.630479 148.12895 
L 372.627178 148.12895 
L 372.627178 144.296554 
L 377.765496 144.296554 
L 377.765496 140.464158 
L 380.289041 140.464158 
L 380.289041 136.631762 
L 381.436702 136.631762 
L 381.436702 132.799366 
L 383.571947 132.799366 
L 383.571947 128.96697 
L 400.555898 128.96697 
L 400.555898 125.134574 
L 410.596929 125.134574 
L 410.596929 121.302178 
L 420.79944 121.302178 
L 420.79944 117.469782 
L 424.784807 117.469782 
L 424.784807 113.637386 
L 438.389739 113.637386 
L 438.389739 109.80499 
L 439.178346 109.80499 
L 439.178346 105.972594 
L 448.261383 105.972594 
L 448.261383 102.140198 
L 448.865402 102.140198 
L 448.865402 98.307802 
L 449.470829 98.307802 
L 449.470829 94.475406 
L 449.555996 94.475406 
L 449.555996 90.64301 
L 451.751183 90.64301 
L 451.751183 86.810614 
L 461.8 86.810614 
" clip-path="url(#p2d0bc4ea46)" style="fill: none; stroke: #f5deb3; stroke-width: 1.5; stroke-linecap: square"/>
   </g>
   <g id="line2d_29">
    <path d="M 216.420254 293.76 
L 216.420254 289.927604 
L 216.420254 289.927604 
L 216.420254 286.095208 
L 216.420254 286.095208 
L 216.420254 282.262812 
L 239.308297 282.262812 
L 239.308297 278.430416 
L 239.308297 278.430416 
L 239.308297 274.59802 
L 239.308297 274.59802 
L 239.308297 270.765624 
L 244.113848 270.765624 
L 244.113848 266.933228 
L 244.113848 266.933228 
L 244.113848 263.100832 
L 244.113848 263.100832 
L 244.113848 259.268436 
L 272.745656 259.268436 
L 272.745656 255.43604 
L 272.745656 255.43604 
L 272.745656 251.603644 
L 272.745656 251.603644 
L 272.745656 247.771248 
L 303.809071 247.771248 
L 303.809071 243.938851 
L 303.809071 243.938851 
L 303.809071 240.106455 
L 303.809071 240.106455 
L 303.809071 236.274059 
L 316.227287 236.274059 
L 316.227287 232.441663 
L 316.227287 232.441663 
L 316.227287 228.609267 
L 316.227287 228.609267 
L 316.227287 224.776871 
L 322.724462 224.776871 
L 322.724462 220.944475 
L 322.724462 220.944475 
L 322.724462 217.112079 
L 322.724462 217.112079 
L 322.724462 213.279683 
L 324.799643 213.279683 
L 324.799643 209.447287 
L 325.486331 209.447287 
L 325.486331 205.614891 
L 334.383489 205.614891 
L 334.383489 201.782495 
L 335.274732 201.782495 
L 335.274732 197.950099 
L 335.486992 197.950099 
L 335.486992 194.117703 
L 342.267847 194.117703 
L 342.267847 190.285307 
L 344.697049 190.285307 
L 344.697049 186.452911 
L 347.80508 186.452911 
L 347.80508 182.620515 
L 360.005067 182.620515 
L 360.005067 178.788119 
L 360.005067 178.788119 
L 360.005067 178.788119 
L 460.8 178.788119 
" clip-path="url(#p2d0bc4ea46)" style="fill: none; stroke: #f5deb3; stroke-width: 1.5; stroke-linecap: square"/>
   </g>
   <g id="line2d_30">
    <path d="M 296.605091 293.76 
L 296.605091 289.927604 
L 298.643539 289.927604 
L 298.643539 286.095208 
L 333.044906 286.095208 
L 333.044906 282.262812 
L 342.581872 282.262812 
L 342.581872 278.430416 
L 355.980226 278.430416 
L 355.980226 274.59802 
L 360.652526 274.59802 
L 360.652526 270.765624 
L 361.667081 270.765624 
L 361.667081 266.933228 
L 361.930998 266.933228 
L 361.930998 263.100832 
L 362.200133 263.100832 
L 362.200133 259.268436 
L 362.481613 259.268436 
L 362.481613 255.43604 
L 362.481613 255.43604 
L 362.481613 255.43604 
L 460.8 255.43604 
" clip-path="url(#p2d0bc4ea46)" style="fill: none; stroke: #f5deb3; stroke-width: 1.5; stroke-linecap: square"/>
   </g>
   <g id="matplotlib.axis_1">
    <g id="xtick_1">
     <g id="line2d_31">
      <path d="M 62.208 293.76 
L 62.208 3.456 
" clip-path="url(#p2d0bc4ea46)" style="fill: none; stroke: #b0b0b0; stroke-width: 0.8; stroke-linecap: square"/>
     </g>
     <g id="line2d_32">
      <defs>
       <path id="mfcae748176" d="M 0 0 
L 0 3.5 
" style="stroke: #000000; stroke-width: 0.8"/>
      </defs>
      <g>
       <use xlink:href="#mfcae748176" x="62.208" y="293.76" style="stroke: #000000; stroke-width: 0.8"/>
      </g>
     </g>
     <g id="text_1">
      <!-- 0 -->
      <g transform="translate(55.8455 315.956875)scale(0.2 -0.2)">
       <defs>
        <path id="DejaVuSans-30" d="M 2034 4250 
Q 1547 4250 1301 3770 
Q 1056 3291 1056 2328 
Q 1056 1369 1301 889 
Q 1547 409 2034 409 
Q 2525 409 2770 889 
Q 3016 1369 3016 2328 
Q 3016 3291 2770 3770 
Q 2525 4250 2034 4250 
z
M 2034 4750 
Q 2819 4750 3233 4129 
Q 3647 3509 3647 2328 
Q 3647 1150 3233 529 
Q 2819 -91 2034 -91 
Q 1250 -91 836 529 
Q 422 1150 422 2328 
Q 422 3509 836 4129 
Q 1250 4750 2034 4750 
z
" transform="scale(0.015625)"/>
       </defs>
       <use xlink:href="#DejaVuSans-30"/>
      </g>
     </g>
    </g>
    <g id="xtick_2">
     <g id="line2d_33">
      <path d="M 212.54616 293.76 
L 212.54616 3.456 
" clip-path="url(#p2d0bc4ea46)" style="fill: none; stroke: #b0b0b0; stroke-width: 0.8; stroke-linecap: square"/>
     </g>
     <g id="line2d_34">
      <g>
       <use xlink:href="#mfcae748176" x="212.54616" y="293.76" style="stroke: #000000; stroke-width: 0.8"/>
      </g>
     </g>
     <g id="text_2">
      <!-- 2 -->
      <g transform="translate(206.18366 315.956875)scale(0.2 -0.2)">
       <defs>
        <path id="DejaVuSans-32" d="M 1228 531 
L 3431 531 
L 3431 0 
L 469 0 
L 469 531 
Q 828 903 1448 1529 
Q 2069 2156 2228 2338 
Q 2531 2678 2651 2914 
Q 2772 3150 2772 3378 
Q 2772 3750 2511 3984 
Q 2250 4219 1831 4219 
Q 1534 4219 1204 4116 
Q 875 4013 500 3803 
L 500 4441 
Q 881 4594 1212 4672 
Q 1544 4750 1819 4750 
Q 2544 4750 2975 4387 
Q 3406 4025 3406 3419 
Q 3406 3131 3298 2873 
Q 3191 2616 2906 2266 
Q 2828 2175 2409 1742 
Q 1991 1309 1228 531 
z
" transform="scale(0.015625)"/>
       </defs>
       <use xlink:href="#DejaVuSans-32"/>
      </g>
     </g>
    </g>
    <g id="xtick_3">
     <g id="line2d_35">
      <path d="M 362.884321 293.76 
L 362.884321 3.456 
" clip-path="url(#p2d0bc4ea46)" style="fill: none; stroke: #b0b0b0; stroke-width: 0.8; stroke-linecap: square"/>
     </g>
     <g id="line2d_36">
      <g>
       <use xlink:href="#mfcae748176" x="362.884321" y="293.76" style="stroke: #000000; stroke-width: 0.8"/>
      </g>
     </g>
     <g id="text_3">
      <!-- 4 -->
      <g transform="translate(356.521821 315.956875)scale(0.2 -0.2)">
       <defs>
        <path id="DejaVuSans-34" d="M 2419 4116 
L 825 1625 
L 2419 1625 
L 2419 4116 
z
M 2253 4666 
L 3047 4666 
L 3047 1625 
L 3713 1625 
L 3713 1100 
L 3047 1100 
L 3047 0 
L 2419 0 
L 2419 1100 
L 313 1100 
L 313 1709 
L 2253 4666 
z
" transform="scale(0.015625)"/>
       </defs>
       <use xlink:href="#DejaVuSans-34"/>
      </g>
     </g>
    </g>
    <g id="text_4">
     <!-- log10 of FEvals / DIM -->
     <g transform="translate(156.430563 339.313125)scale(0.2 -0.2)">
      <defs>
       <path id="DejaVuSans-6c" d="M 603 4863 
L 1178 4863 
L 1178 0 
L 603 0 
L 603 4863 
z
" transform="scale(0.015625)"/>
       <path id="DejaVuSans-6f" d="M 1959 3097 
Q 1497 3097 1228 2736 
Q 959 2375 959 1747 
Q 959 1119 1226 758 
Q 1494 397 1959 397 
Q 2419 397 2687 759 
Q 2956 1122 2956 1747 
Q 2956 2369 2687 2733 
Q 2419 3097 1959 3097 
z
M 1959 3584 
Q 2709 3584 3137 3096 
Q 3566 2609 3566 1747 
Q 3566 888 3137 398 
Q 2709 -91 1959 -91 
Q 1206 -91 779 398 
Q 353 888 353 1747 
Q 353 2609 779 3096 
Q 1206 3584 1959 3584 
z
" transform="scale(0.015625)"/>
       <path id="DejaVuSans-67" d="M 2906 1791 
Q 2906 2416 2648 2759 
Q 2391 3103 1925 3103 
Q 1463 3103 1205 2759 
Q 947 2416 947 1791 
Q 947 1169 1205 825 
Q 1463 481 1925 481 
Q 2391 481 2648 825 
Q 2906 1169 2906 1791 
z
M 3481 434 
Q 3481 -459 3084 -895 
Q 2688 -1331 1869 -1331 
Q 1566 -1331 1297 -1286 
Q 1028 -1241 775 -1147 
L 775 -588 
Q 1028 -725 1275 -790 
Q 1522 -856 1778 -856 
Q 2344 -856 2625 -561 
Q 2906 -266 2906 331 
L 2906 616 
Q 2728 306 2450 153 
Q 2172 0 1784 0 
Q 1141 0 747 490 
Q 353 981 353 1791 
Q 353 2603 747 3093 
Q 1141 3584 1784 3584 
Q 2172 3584 2450 3431 
Q 2728 3278 2906 2969 
L 2906 3500 
L 3481 3500 
L 3481 434 
z
" transform="scale(0.015625)"/>
       <path id="DejaVuSans-31" d="M 794 531 
L 1825 531 
L 1825 4091 
L 703 3866 
L 703 4441 
L 1819 4666 
L 2450 4666 
L 2450 531 
L 3481 531 
L 3481 0 
L 794 0 
L 794 531 
z
" transform="scale(0.015625)"/>
       <path id="DejaVuSans-20" transform="scale(0.015625)"/>
       <path id="DejaVuSans-66" d="M 2375 4863 
L 2375 4384 
L 1825 4384 
Q 1516 4384 1395 4259 
Q 1275 4134 1275 3809 
L 1275 3500 
L 2222 3500 
L 2222 3053 
L 1275 3053 
L 1275 0 
L 697 0 
L 697 3053 
L 147 3053 
L 147 3500 
L 697 3500 
L 697 3744 
Q 697 4328 969 4595 
Q 1241 4863 1831 4863 
L 2375 4863 
z
" transform="scale(0.015625)"/>
       <path id="DejaVuSans-46" d="M 628 4666 
L 3309 4666 
L 3309 4134 
L 1259 4134 
L 1259 2759 
L 3109 2759 
L 3109 2228 
L 1259 2228 
L 1259 0 
L 628 0 
L 628 4666 
z
" transform="scale(0.015625)"/>
       <path id="DejaVuSans-45" d="M 628 4666 
L 3578 4666 
L 3578 4134 
L 1259 4134 
L 1259 2753 
L 3481 2753 
L 3481 2222 
L 1259 2222 
L 1259 531 
L 3634 531 
L 3634 0 
L 628 0 
L 628 4666 
z
" transform="scale(0.015625)"/>
       <path id="DejaVuSans-76" d="M 191 3500 
L 800 3500 
L 1894 563 
L 2988 3500 
L 3597 3500 
L 2284 0 
L 1503 0 
L 191 3500 
z
" transform="scale(0.015625)"/>
       <path id="DejaVuSans-61" d="M 2194 1759 
Q 1497 1759 1228 1600 
Q 959 1441 959 1056 
Q 959 750 1161 570 
Q 1363 391 1709 391 
Q 2188 391 2477 730 
Q 2766 1069 2766 1631 
L 2766 1759 
L 2194 1759 
z
M 3341 1997 
L 3341 0 
L 2766 0 
L 2766 531 
Q 2569 213 2275 61 
Q 1981 -91 1556 -91 
Q 1019 -91 701 211 
Q 384 513 384 1019 
Q 384 1609 779 1909 
Q 1175 2209 1959 2209 
L 2766 2209 
L 2766 2266 
Q 2766 2663 2505 2880 
Q 2244 3097 1772 3097 
Q 1472 3097 1187 3025 
Q 903 2953 641 2809 
L 641 3341 
Q 956 3463 1253 3523 
Q 1550 3584 1831 3584 
Q 2591 3584 2966 3190 
Q 3341 2797 3341 1997 
z
" transform="scale(0.015625)"/>
       <path id="DejaVuSans-73" d="M 2834 3397 
L 2834 2853 
Q 2591 2978 2328 3040 
Q 2066 3103 1784 3103 
Q 1356 3103 1142 2972 
Q 928 2841 928 2578 
Q 928 2378 1081 2264 
Q 1234 2150 1697 2047 
L 1894 2003 
Q 2506 1872 2764 1633 
Q 3022 1394 3022 966 
Q 3022 478 2636 193 
Q 2250 -91 1575 -91 
Q 1294 -91 989 -36 
Q 684 19 347 128 
L 347 722 
Q 666 556 975 473 
Q 1284 391 1588 391 
Q 1994 391 2212 530 
Q 2431 669 2431 922 
Q 2431 1156 2273 1281 
Q 2116 1406 1581 1522 
L 1381 1569 
Q 847 1681 609 1914 
Q 372 2147 372 2553 
Q 372 3047 722 3315 
Q 1072 3584 1716 3584 
Q 2034 3584 2315 3537 
Q 2597 3491 2834 3397 
z
" transform="scale(0.015625)"/>
       <path id="DejaVuSans-2f" d="M 1625 4666 
L 2156 4666 
L 531 -594 
L 0 -594 
L 1625 4666 
z
" transform="scale(0.015625)"/>
       <path id="DejaVuSans-44" d="M 1259 4147 
L 1259 519 
L 2022 519 
Q 2988 519 3436 956 
Q 3884 1394 3884 2338 
Q 3884 3275 3436 3711 
Q 2988 4147 2022 4147 
L 1259 4147 
z
M 628 4666 
L 1925 4666 
Q 3281 4666 3915 4102 
Q 4550 3538 4550 2338 
Q 4550 1131 3912 565 
Q 3275 0 1925 0 
L 628 0 
L 628 4666 
z
" transform="scale(0.015625)"/>
       <path id="DejaVuSans-49" d="M 628 4666 
L 1259 4666 
L 1259 0 
L 628 0 
L 628 4666 
z
" transform="scale(0.015625)"/>
       <path id="DejaVuSans-4d" d="M 628 4666 
L 1569 4666 
L 2759 1491 
L 3956 4666 
L 4897 4666 
L 4897 0 
L 4281 0 
L 4281 4097 
L 3078 897 
L 2444 897 
L 1241 4097 
L 1241 0 
L 628 0 
L 628 4666 
z
" transform="scale(0.015625)"/>
      </defs>
      <use xlink:href="#DejaVuSans-6c"/>
      <use xlink:href="#DejaVuSans-6f" x="27.783203"/>
      <use xlink:href="#DejaVuSans-67" x="88.964844"/>
      <use xlink:href="#DejaVuSans-31" x="152.441406"/>
      <use xlink:href="#DejaVuSans-30" x="216.064453"/>
      <use xlink:href="#DejaVuSans-20" x="279.6875"/>
      <use xlink:href="#DejaVuSans-6f" x="311.474609"/>
      <use xlink:href="#DejaVuSans-66" x="372.65625"/>
      <use xlink:href="#DejaVuSans-20" x="407.861328"/>
      <use xlink:href="#DejaVuSans-46" x="439.648438"/>
      <use xlink:href="#DejaVuSans-45" x="497.167969"/>
      <use xlink:href="#DejaVuSans-76" x="560.351562"/>
      <use xlink:href="#DejaVuSans-61" x="619.53125"/>
      <use xlink:href="#DejaVuSans-6c" x="680.810547"/>
      <use xlink:href="#DejaVuSans-73" x="708.59375"/>
      <use xlink:href="#DejaVuSans-20" x="760.693359"/>
      <use xlink:href="#DejaVuSans-2f" x="792.480469"/>
      <use xlink:href="#DejaVuSans-20" x="826.171875"/>
      <use xlink:href="#DejaVuSans-44" x="857.958984"/>
      <use xlink:href="#DejaVuSans-49" x="934.960938"/>
      <use xlink:href="#DejaVuSans-4d" x="964.453125"/>
     </g>
    </g>
   </g>
   <g id="matplotlib.axis_2">
    <g id="ytick_1">
     <g id="line2d_37">
      <path d="M 62.208 293.76 
L 460.8 293.76 
" clip-path="url(#p2d0bc4ea46)" style="fill: none; stroke: #b0b0b0; stroke-width: 0.8; stroke-linecap: square"/>
     </g>
     <g id="line2d_38">
      <defs>
       <path id="m71b3516b82" d="M 0 0 
L -3.5 0 
" style="stroke: #000000; stroke-width: 0.8"/>
      </defs>
      <g>
       <use xlink:href="#m71b3516b82" x="62.208" y="293.76" style="stroke: #000000; stroke-width: 0.8"/>
      </g>
     </g>
     <g id="text_5">
      <!-- 0.0 -->
      <g transform="translate(29.763 299.83875)scale(0.16 -0.16)">
       <defs>
        <path id="DejaVuSans-2e" d="M 684 794 
L 1344 794 
L 1344 0 
L 684 0 
L 684 794 
z
" transform="scale(0.015625)"/>
       </defs>
       <use xlink:href="#DejaVuSans-30"/>
       <use xlink:href="#DejaVuSans-2e" x="63.623047"/>
       <use xlink:href="#DejaVuSans-30" x="95.410156"/>
      </g>
     </g>
    </g>
    <g id="ytick_2">
     <g id="line2d_39">
      <path d="M 62.208 236.274059 
L 460.8 236.274059 
" clip-path="url(#p2d0bc4ea46)" style="fill: none; stroke: #b0b0b0; stroke-width: 0.8; stroke-linecap: square"/>
     </g>
     <g id="line2d_40">
      <g>
       <use xlink:href="#m71b3516b82" x="62.208" y="236.274059" style="stroke: #000000; stroke-width: 0.8"/>
      </g>
     </g>
     <g id="text_6">
      <!-- 0.2 -->
      <g transform="translate(29.763 242.352809)scale(0.16 -0.16)">
       <use xlink:href="#DejaVuSans-30"/>
       <use xlink:href="#DejaVuSans-2e" x="63.623047"/>
       <use xlink:href="#DejaVuSans-32" x="95.410156"/>
      </g>
     </g>
    </g>
    <g id="ytick_3">
     <g id="line2d_41">
      <path d="M 62.208 178.788119 
L 460.8 178.788119 
" clip-path="url(#p2d0bc4ea46)" style="fill: none; stroke: #b0b0b0; stroke-width: 0.8; stroke-linecap: square"/>
     </g>
     <g id="line2d_42">
      <g>
       <use xlink:href="#m71b3516b82" x="62.208" y="178.788119" style="stroke: #000000; stroke-width: 0.8"/>
      </g>
     </g>
     <g id="text_7">
      <!-- 0.4 -->
      <g transform="translate(29.763 184.866869)scale(0.16 -0.16)">
       <use xlink:href="#DejaVuSans-30"/>
       <use xlink:href="#DejaVuSans-2e" x="63.623047"/>
       <use xlink:href="#DejaVuSans-34" x="95.410156"/>
      </g>
     </g>
    </g>
    <g id="ytick_4">
     <g id="line2d_43">
      <path d="M 62.208 121.302178 
L 460.8 121.302178 
" clip-path="url(#p2d0bc4ea46)" style="fill: none; stroke: #b0b0b0; stroke-width: 0.8; stroke-linecap: square"/>
     </g>
     <g id="line2d_44">
      <g>
       <use xlink:href="#m71b3516b82" x="62.208" y="121.302178" style="stroke: #000000; stroke-width: 0.8"/>
      </g>
     </g>
     <g id="text_8">
      <!-- 0.6 -->
      <g transform="translate(29.763 127.380928)scale(0.16 -0.16)">
       <defs>
        <path id="DejaVuSans-36" d="M 2113 2584 
Q 1688 2584 1439 2293 
Q 1191 2003 1191 1497 
Q 1191 994 1439 701 
Q 1688 409 2113 409 
Q 2538 409 2786 701 
Q 3034 994 3034 1497 
Q 3034 2003 2786 2293 
Q 2538 2584 2113 2584 
z
M 3366 4563 
L 3366 3988 
Q 3128 4100 2886 4159 
Q 2644 4219 2406 4219 
Q 1781 4219 1451 3797 
Q 1122 3375 1075 2522 
Q 1259 2794 1537 2939 
Q 1816 3084 2150 3084 
Q 2853 3084 3261 2657 
Q 3669 2231 3669 1497 
Q 3669 778 3244 343 
Q 2819 -91 2113 -91 
Q 1303 -91 875 529 
Q 447 1150 447 2328 
Q 447 3434 972 4092 
Q 1497 4750 2381 4750 
Q 2619 4750 2861 4703 
Q 3103 4656 3366 4563 
z
" transform="scale(0.015625)"/>
       </defs>
       <use xlink:href="#DejaVuSans-30"/>
       <use xlink:href="#DejaVuSans-2e" x="63.623047"/>
       <use xlink:href="#DejaVuSans-36" x="95.410156"/>
      </g>
     </g>
    </g>
    <g id="ytick_5">
     <g id="line2d_45">
      <path d="M 62.208 63.816238 
L 460.8 63.816238 
" clip-path="url(#p2d0bc4ea46)" style="fill: none; stroke: #b0b0b0; stroke-width: 0.8; stroke-linecap: square"/>
     </g>
     <g id="line2d_46">
      <g>
       <use xlink:href="#m71b3516b82" x="62.208" y="63.816238" style="stroke: #000000; stroke-width: 0.8"/>
      </g>
     </g>
     <g id="text_9">
      <!-- 0.8 -->
      <g transform="translate(29.763 69.894988)scale(0.16 -0.16)">
       <defs>
        <path id="DejaVuSans-38" d="M 2034 2216 
Q 1584 2216 1326 1975 
Q 1069 1734 1069 1313 
Q 1069 891 1326 650 
Q 1584 409 2034 409 
Q 2484 409 2743 651 
Q 3003 894 3003 1313 
Q 3003 1734 2745 1975 
Q 2488 2216 2034 2216 
z
M 1403 2484 
Q 997 2584 770 2862 
Q 544 3141 544 3541 
Q 544 4100 942 4425 
Q 1341 4750 2034 4750 
Q 2731 4750 3128 4425 
Q 3525 4100 3525 3541 
Q 3525 3141 3298 2862 
Q 3072 2584 2669 2484 
Q 3125 2378 3379 2068 
Q 3634 1759 3634 1313 
Q 3634 634 3220 271 
Q 2806 -91 2034 -91 
Q 1263 -91 848 271 
Q 434 634 434 1313 
Q 434 1759 690 2068 
Q 947 2378 1403 2484 
z
M 1172 3481 
Q 1172 3119 1398 2916 
Q 1625 2713 2034 2713 
Q 2441 2713 2670 2916 
Q 2900 3119 2900 3481 
Q 2900 3844 2670 4047 
Q 2441 4250 2034 4250 
Q 1625 4250 1398 4047 
Q 1172 3844 1172 3481 
z
" transform="scale(0.015625)"/>
       </defs>
       <use xlink:href="#DejaVuSans-30"/>
       <use xlink:href="#DejaVuSans-2e" x="63.623047"/>
       <use xlink:href="#DejaVuSans-38" x="95.410156"/>
      </g>
     </g>
    </g>
    <g id="ytick_6">
     <g id="line2d_47">
      <path d="M 62.208 6.330297 
L 460.8 6.330297 
" clip-path="url(#p2d0bc4ea46)" style="fill: none; stroke: #b0b0b0; stroke-width: 0.8; stroke-linecap: square"/>
     </g>
     <g id="line2d_48">
      <g>
       <use xlink:href="#m71b3516b82" x="62.208" y="6.330297" style="stroke: #000000; stroke-width: 0.8"/>
      </g>
     </g>
     <g id="text_10">
      <!-- 1.0 -->
      <g transform="translate(29.763 12.409047)scale(0.16 -0.16)">
       <use xlink:href="#DejaVuSans-31"/>
       <use xlink:href="#DejaVuSans-2e" x="63.623047"/>
       <use xlink:href="#DejaVuSans-30" x="95.410156"/>
      </g>
     </g>
    </g>
    <g id="text_11">
     <!-- proportion of trials -->
     <g transform="translate(21.603625 241.61425)rotate(-90)scale(0.2 -0.2)">
      <defs>
       <path id="DejaVuSans-70" d="M 1159 525 
L 1159 -1331 
L 581 -1331 
L 581 3500 
L 1159 3500 
L 1159 2969 
Q 1341 3281 1617 3432 
Q 1894 3584 2278 3584 
Q 2916 3584 3314 3078 
Q 3713 2572 3713 1747 
Q 3713 922 3314 415 
Q 2916 -91 2278 -91 
Q 1894 -91 1617 61 
Q 1341 213 1159 525 
z
M 3116 1747 
Q 3116 2381 2855 2742 
Q 2594 3103 2138 3103 
Q 1681 3103 1420 2742 
Q 1159 2381 1159 1747 
Q 1159 1113 1420 752 
Q 1681 391 2138 391 
Q 2594 391 2855 752 
Q 3116 1113 3116 1747 
z
" transform="scale(0.015625)"/>
       <path id="DejaVuSans-72" d="M 2631 2963 
Q 2534 3019 2420 3045 
Q 2306 3072 2169 3072 
Q 1681 3072 1420 2755 
Q 1159 2438 1159 1844 
L 1159 0 
L 581 0 
L 581 3500 
L 1159 3500 
L 1159 2956 
Q 1341 3275 1631 3429 
Q 1922 3584 2338 3584 
Q 2397 3584 2469 3576 
Q 2541 3569 2628 3553 
L 2631 2963 
z
" transform="scale(0.015625)"/>
       <path id="DejaVuSans-74" d="M 1172 4494 
L 1172 3500 
L 2356 3500 
L 2356 3053 
L 1172 3053 
L 1172 1153 
Q 1172 725 1289 603 
Q 1406 481 1766 481 
L 2356 481 
L 2356 0 
L 1766 0 
Q 1100 0 847 248 
Q 594 497 594 1153 
L 594 3053 
L 172 3053 
L 172 3500 
L 594 3500 
L 594 4494 
L 1172 4494 
z
" transform="scale(0.015625)"/>
       <path id="DejaVuSans-69" d="M 603 3500 
L 1178 3500 
L 1178 0 
L 603 0 
L 603 3500 
z
M 603 4863 
L 1178 4863 
L 1178 4134 
L 603 4134 
L 603 4863 
z
" transform="scale(0.015625)"/>
       <path id="DejaVuSans-6e" d="M 3513 2113 
L 3513 0 
L 2938 0 
L 2938 2094 
Q 2938 2591 2744 2837 
Q 2550 3084 2163 3084 
Q 1697 3084 1428 2787 
Q 1159 2491 1159 1978 
L 1159 0 
L 581 0 
L 581 3500 
L 1159 3500 
L 1159 2956 
Q 1366 3272 1645 3428 
Q 1925 3584 2291 3584 
Q 2894 3584 3203 3211 
Q 3513 2838 3513 2113 
z
" transform="scale(0.015625)"/>
      </defs>
      <use xlink:href="#DejaVuSans-70"/>
      <use xlink:href="#DejaVuSans-72" x="63.476562"/>
      <use xlink:href="#DejaVuSans-6f" x="102.339844"/>
      <use xlink:href="#DejaVuSans-70" x="163.521484"/>
      <use xlink:href="#DejaVuSans-6f" x="226.998047"/>
      <use xlink:href="#DejaVuSans-72" x="288.179688"/>
      <use xlink:href="#DejaVuSans-74" x="329.292969"/>
      <use xlink:href="#DejaVuSans-69" x="368.501953"/>
      <use xlink:href="#DejaVuSans-6f" x="396.285156"/>
      <use xlink:href="#DejaVuSans-6e" x="457.466797"/>
      <use xlink:href="#DejaVuSans-20" x="520.845703"/>
      <use xlink:href="#DejaVuSans-6f" x="552.632812"/>
      <use xlink:href="#DejaVuSans-66" x="613.814453"/>
      <use xlink:href="#DejaVuSans-20" x="649.019531"/>
      <use xlink:href="#DejaVuSans-74" x="680.806641"/>
      <use xlink:href="#DejaVuSans-72" x="720.015625"/>
      <use xlink:href="#DejaVuSans-69" x="761.128906"/>
      <use xlink:href="#DejaVuSans-61" x="788.912109"/>
      <use xlink:href="#DejaVuSans-6c" x="850.191406"/>
      <use xlink:href="#DejaVuSans-73" x="877.974609"/>
     </g>
    </g>
   </g>
   <g id="line2d_49">
    <path d="M 9.667068 293.76 
L 9.667068 289.927604 
L 45.531834 289.927604 
L 45.531834 274.59802 
L 54.923363 274.59802 
L 54.923363 266.933228 
L 62.208 266.933228 
L 62.208 259.268436 
L 68.159981 259.268436 
L 68.159981 251.603644 
L 77.551511 251.603644 
L 77.551511 247.771248 
L 81.396599 247.771248 
L 81.396599 232.441663 
L 84.836148 232.441663 
L 84.836148 220.944475 
L 87.947598 220.944475 
L 87.947598 217.112079 
L 93.401165 217.112079 
L 93.401165 213.279683 
L 100.179659 213.279683 
L 100.179659 209.447287 
L 104.024747 209.447287 
L 104.024747 201.782495 
L 105.7898 201.782495 
L 105.7898 197.950099 
L 107.464296 197.950099 
L 107.464296 194.117703 
L 112.026897 194.117703 
L 112.026897 190.285307 
L 116.029313 190.285307 
L 116.029313 186.452911 
L 117.261365 186.452911 
L 117.261365 182.620515 
L 119.59418 182.620515 
L 119.59418 178.788119 
L 122.807807 178.788119 
L 122.807807 174.955723 
L 124.786929 174.955723 
L 124.786929 159.626139 
L 125.733242 159.626139 
L 125.733242 151.961347 
L 133.203894 151.961347 
L 133.203894 148.12895 
L 135.357126 148.12895 
L 135.357126 140.464158 
L 138.023547 140.464158 
L 138.023547 136.631762 
L 140.48853 136.631762 
L 140.48853 132.799366 
L 142.222328 132.799366 
L 142.222328 128.96697 
L 144.921842 128.96697 
L 144.921842 125.134574 
L 148.824455 125.134574 
L 148.824455 121.302178 
L 149.281043 121.302178 
L 149.281043 117.469782 
L 151.47284 117.469782 
L 151.47284 113.637386 
L 159.3457 113.637386 
L 159.3457 109.80499 
L 160.330062 109.80499 
L 160.330062 102.140198 
L 160.651695 102.140198 
L 160.651695 98.307802 
L 165.130697 98.307802 
L 165.130697 94.475406 
L 167.54999 94.475406 
L 167.54999 90.64301 
L 170.989538 90.64301 
L 170.989538 86.810614 
L 172.359481 86.810614 
L 172.359481 82.978218 
L 174.522226 82.978218 
L 174.522226 79.145822 
L 176.550551 79.145822 
L 176.550551 75.313426 
L 182.469739 75.313426 
L 182.469739 71.48103 
L 182.95821 71.48103 
L 182.95821 67.648634 
L 192.671373 67.648634 
L 192.671373 63.816238 
L 201.088337 63.816238 
L 201.088337 59.983842 
L 216.245834 59.983842 
L 216.245834 56.151446 
L 224.039482 56.151446 
L 224.039482 52.31905 
L 225.651934 52.31905 
L 225.651934 48.486653 
L 232.523164 48.486653 
L 232.523164 44.654257 
L 235.337129 44.654257 
L 235.337129 40.821861 
L 244.898751 40.821861 
L 244.898751 36.989465 
L 247.928579 36.989465 
L 247.928579 33.157069 
L 267.368986 33.157069 
L 267.368986 29.324673 
L 269.180788 29.324673 
L 269.180788 25.492277 
L 271.266797 25.492277 
L 271.266797 21.659881 
L 274.845448 21.659881 
L 274.845448 17.827485 
L 275.639503 17.827485 
L 275.639503 13.995089 
L 281.41141 13.995089 
L 281.41141 10.162693 
L 282.340521 10.162693 
L 282.340521 6.330297 
L 282.340521 6.330297 
L 460.8 6.330297 
L 460.8 6.330297 
" clip-path="url(#p2d0bc4ea46)" style="fill: none; stroke: #000000; stroke-width: 1.5; stroke-linecap: square"/>
   </g>
   <g id="line2d_50">
    <path clip-path="url(#p2d0bc4ea46)" style="fill: none; stroke: #000000; stroke-width: 1.5; stroke-linecap: square"/>
   </g>
   <g id="line2d_51">
    <path d="M 164.282713 293.76 
L 164.282713 289.927604 
L 170.282387 289.927604 
L 170.282387 286.095208 
L 176.94152 286.095208 
L 176.94152 282.262812 
L 178.829069 282.262812 
L 178.829069 278.430416 
L 182.305278 278.430416 
L 182.305278 274.59802 
L 187.898058 274.59802 
L 187.898058 270.765624 
L 241.826055 270.765624 
L 241.826055 266.933228 
L 242.40667 266.933228 
L 242.40667 263.100832 
L 249.418121 263.100832 
L 249.418121 259.268436 
L 249.460298 259.268436 
L 249.460298 255.43604 
L 250.721219 255.43604 
L 250.721219 251.603644 
L 251.44314 251.603644 
L 251.44314 247.771248 
L 251.7982 247.771248 
L 251.7982 243.938851 
L 282.201669 243.938851 
L 282.201669 240.106455 
L 290.027561 240.106455 
L 290.027561 236.274059 
L 292.504154 236.274059 
L 292.504154 232.441663 
L 293.096405 232.441663 
L 293.096405 228.609267 
L 296.847847 228.609267 
L 296.847847 224.776871 
L 297.181769 224.776871 
L 297.181769 220.944475 
L 298.196687 220.944475 
L 298.196687 217.112079 
L 298.310155 217.112079 
L 298.310155 213.279683 
L 298.498395 213.279683 
L 298.498395 209.447287 
L 298.941164 209.447287 
L 298.941164 205.614891 
L 302.349218 205.614891 
L 302.349218 201.782495 
L 311.406457 201.782495 
L 311.406457 197.950099 
L 315.904008 197.950099 
L 315.904008 194.117703 
L 318.519373 194.117703 
L 318.519373 190.285307 
L 318.711942 190.285307 
L 318.711942 186.452911 
L 320.568082 186.452911 
L 320.568082 182.620515 
L 321.638677 182.620515 
L 321.638677 178.788119 
L 323.350684 178.788119 
L 323.350684 174.955723 
L 329.917818 174.955723 
L 329.917818 171.123327 
L 331.119586 171.123327 
L 331.119586 167.290931 
L 332.451619 167.290931 
L 332.451619 163.458535 
L 332.612096 163.458535 
L 332.612096 159.626139 
L 336.111168 159.626139 
L 336.111168 155.793743 
L 344.50157 155.793743 
L 344.50157 151.961347 
L 348.118585 151.961347 
L 348.118585 148.12895 
L 348.930495 148.12895 
L 348.930495 144.296554 
L 350.148862 144.296554 
L 350.148862 140.464158 
L 350.816143 140.464158 
L 350.816143 136.631762 
L 353.469278 136.631762 
L 353.469278 132.799366 
L 366.558917 132.799366 
L 366.558917 128.96697 
L 369.252587 128.96697 
L 369.252587 125.134574 
L 370.139694 125.134574 
L 370.139694 121.302178 
L 370.149625 121.302178 
L 370.149625 117.469782 
L 370.473616 117.469782 
L 370.473616 113.637386 
L 370.662465 113.637386 
L 370.662465 109.80499 
L 373.005745 109.80499 
L 373.005745 105.972594 
L 374.500006 105.972594 
L 374.500006 102.140198 
L 384.352445 102.140198 
L 384.352445 98.307802 
L 387.62742 98.307802 
L 387.62742 94.475406 
L 391.368003 94.475406 
L 391.368003 90.64301 
L 392.146637 90.64301 
L 392.146637 86.810614 
L 393.717157 86.810614 
L 393.717157 82.978218 
L 394.284503 82.978218 
L 394.284503 79.145822 
L 394.341347 79.145822 
L 394.341347 75.313426 
L 394.725922 75.313426 
L 394.725922 71.48103 
L 394.793797 71.48103 
L 394.793797 67.648634 
L 400.649457 67.648634 
L 400.649457 63.816238 
L 445.126437 63.816238 
L 445.126437 59.983842 
L 445.126437 59.983842 
L 445.126437 59.983842 
L 460.8 59.983842 
" clip-path="url(#p2d0bc4ea46)" style="fill: none; stroke: #00bfbf; stroke-width: 1.5; stroke-linecap: square"/>
   </g>
   <g id="line2d_52">
    <path clip-path="url(#p2d0bc4ea46)" style="fill: none; stroke: #00bfbf; stroke-width: 1.5; stroke-linecap: square"/>
   </g>
   <g id="line2d_53">
    <path d="M 190.692251 293.76 
L 190.692251 289.927604 
L 195.099238 289.927604 
L 195.099238 286.095208 
L 197.462774 286.095208 
L 197.462774 282.262812 
L 198.078745 282.262812 
L 198.078745 278.430416 
L 198.78299 278.430416 
L 198.78299 274.59802 
L 201.640106 274.59802 
L 201.640106 270.765624 
L 254.016484 270.765624 
L 254.016484 266.933228 
L 254.362908 266.933228 
L 254.362908 263.100832 
L 255.009375 263.100832 
L 255.009375 259.268436 
L 255.062673 259.268436 
L 255.062673 255.43604 
L 255.625845 255.43604 
L 255.625845 251.603644 
L 256.503789 251.603644 
L 256.503789 247.771248 
L 285.1419 247.771248 
L 285.1419 243.938851 
L 294.558146 243.938851 
L 294.558146 240.106455 
L 296.719262 240.106455 
L 296.719262 236.274059 
L 299.587449 236.274059 
L 299.587449 232.441663 
L 300.27456 232.441663 
L 300.27456 228.609267 
L 300.847225 228.609267 
L 300.847225 224.776871 
L 301.09085 224.776871 
L 301.09085 220.944475 
L 301.306846 220.944475 
L 301.306846 217.112079 
L 306.395714 217.112079 
L 306.395714 213.279683 
L 314.769444 213.279683 
L 314.769444 209.447287 
L 319.992614 209.447287 
L 319.992614 205.614891 
L 321.339355 205.614891 
L 321.339355 201.782495 
L 321.527622 201.782495 
L 321.527622 197.950099 
L 323.022475 197.950099 
L 323.022475 194.117703 
L 323.673456 194.117703 
L 323.673456 190.285307 
L 326.070265 190.285307 
L 326.070265 186.452911 
L 326.28332 186.452911 
L 326.28332 182.620515 
L 332.880001 182.620515 
L 332.880001 178.788119 
L 333.459191 178.788119 
L 333.459191 174.955723 
L 334.463114 174.955723 
L 334.463114 171.123327 
L 336.428382 171.123327 
L 336.428382 167.290931 
L 338.180604 167.290931 
L 338.180604 163.458535 
L 347.033361 163.458535 
L 347.033361 159.626139 
L 347.063056 159.626139 
L 347.063056 155.793743 
L 347.386882 155.793743 
L 347.386882 151.961347 
L 350.115089 151.961347 
L 350.115089 148.12895 
L 351.047773 148.12895 
L 351.047773 144.296554 
L 352.937916 144.296554 
L 352.937916 140.464158 
L 355.708864 140.464158 
L 355.708864 136.631762 
L 367.3514 136.631762 
L 367.3514 132.799366 
L 371.212934 132.799366 
L 371.212934 128.96697 
L 371.925981 128.96697 
L 371.925981 125.134574 
L 373.022022 125.134574 
L 373.022022 121.302178 
L 373.357715 121.302178 
L 373.357715 117.469782 
L 374.317439 117.469782 
L 374.317439 113.637386 
L 374.529268 113.637386 
L 374.529268 109.80499 
L 376.755882 109.80499 
L 376.755882 105.972594 
L 394.326398 105.972594 
L 394.326398 102.140198 
L 395.482944 102.140198 
L 395.482944 98.307802 
L 396.266282 98.307802 
L 396.266282 94.475406 
L 397.437055 94.475406 
L 397.437055 90.64301 
L 397.652032 90.64301 
L 397.652032 86.810614 
L 399.453538 86.810614 
L 399.453538 82.978218 
L 401.674422 82.978218 
L 401.674422 79.145822 
L 450.781554 79.145822 
L 450.781554 75.313426 
L 450.781554 75.313426 
L 450.781554 75.313426 
L 460.8 75.313426 
" clip-path="url(#p2d0bc4ea46)" style="fill: none; stroke: #bf00bf; stroke-width: 1.5; stroke-linecap: square"/>
   </g>
   <g id="line2d_54">
    <path clip-path="url(#p2d0bc4ea46)" style="fill: none; stroke: #bf00bf; stroke-width: 1.5; stroke-linecap: square"/>
   </g>
   <g id="line2d_55">
    <path d="M 207.086657 293.76 
L 207.086657 289.927604 
L 210.036339 289.927604 
L 210.036339 286.095208 
L 210.664828 286.095208 
L 210.664828 282.262812 
L 210.802864 282.262812 
L 210.802864 278.430416 
L 210.871664 278.430416 
L 210.871664 274.59802 
L 212.085894 274.59802 
L 212.085894 270.765624 
L 256.959198 270.765624 
L 256.959198 266.933228 
L 258.941275 266.933228 
L 258.941275 263.100832 
L 259.934844 263.100832 
L 259.934844 259.268436 
L 260.269517 259.268436 
L 260.269517 255.43604 
L 265.861331 255.43604 
L 265.861331 251.603644 
L 266.052055 251.603644 
L 266.052055 247.771248 
L 287.466187 247.771248 
L 287.466187 243.938851 
L 299.432774 243.938851 
L 299.432774 240.106455 
L 301.216301 240.106455 
L 301.216301 236.274059 
L 302.060188 236.274059 
L 302.060188 232.441663 
L 303.107683 232.441663 
L 303.107683 228.609267 
L 303.258096 228.609267 
L 303.258096 224.776871 
L 303.637136 224.776871 
L 303.637136 220.944475 
L 304.16603 220.944475 
L 304.16603 217.112079 
L 309.896363 217.112079 
L 309.896363 213.279683 
L 318.241189 213.279683 
L 318.241189 209.447287 
L 321.83671 209.447287 
L 321.83671 205.614891 
L 323.734164 205.614891 
L 323.734164 201.782495 
L 324.900123 201.782495 
L 324.900123 197.950099 
L 326.327365 197.950099 
L 326.327365 194.117703 
L 327.090645 194.117703 
L 327.090645 190.285307 
L 329.163561 190.285307 
L 329.163561 186.452911 
L 329.255144 186.452911 
L 329.255144 182.620515 
L 334.469351 182.620515 
L 334.469351 178.788119 
L 335.658819 178.788119 
L 335.658819 174.955723 
L 336.739635 174.955723 
L 336.739635 171.123327 
L 338.781746 171.123327 
L 338.781746 167.290931 
L 340.201282 167.290931 
L 340.201282 163.458535 
L 349.569914 163.458535 
L 349.569914 159.626139 
L 349.583655 159.626139 
L 349.583655 155.793743 
L 350.201864 155.793743 
L 350.201864 151.961347 
L 353.040469 151.961347 
L 353.040469 148.12895 
L 353.518897 148.12895 
L 353.518897 144.296554 
L 354.911829 144.296554 
L 354.911829 140.464158 
L 357.383889 140.464158 
L 357.383889 136.631762 
L 368.701088 136.631762 
L 368.701088 132.799366 
L 372.357688 132.799366 
L 372.357688 128.96697 
L 373.892407 128.96697 
L 373.892407 125.134574 
L 374.973654 125.134574 
L 374.973654 121.302178 
L 375.090214 121.302178 
L 375.090214 117.469782 
L 376.468605 117.469782 
L 376.468605 113.637386 
L 376.967783 113.637386 
L 376.967783 109.80499 
L 378.71026 109.80499 
L 378.71026 105.972594 
L 396.360784 105.972594 
L 396.360784 102.140198 
L 397.324259 102.140198 
L 397.324259 98.307802 
L 397.331533 98.307802 
L 397.331533 94.475406 
L 399.247138 94.475406 
L 399.247138 90.64301 
L 399.775901 90.64301 
L 399.775901 86.810614 
L 401.493044 86.810614 
L 401.493044 82.978218 
L 402.700595 82.978218 
L 402.700595 79.145822 
L 451.584542 79.145822 
L 451.584542 75.313426 
L 451.584542 75.313426 
L 451.584542 75.313426 
L 460.8 75.313426 
" clip-path="url(#p2d0bc4ea46)" style="fill: none; stroke: #ff0000; stroke-width: 3; stroke-linecap: square"/>
   </g>
   <g id="line2d_56">
    <path clip-path="url(#p2d0bc4ea46)" style="fill: none; stroke: #ff0000; stroke-width: 3; stroke-linecap: square"/>
   </g>
   <g id="line2d_57">
    <path d="M 460.8 293.76 
L 460.8 3.456 
" clip-path="url(#p2d0bc4ea46)" style="fill: none; stroke: #000000; stroke-width: 1.5; stroke-linecap: square"/>
   </g>
   <g id="patch_3">
    <path d="M 62.208 293.76 
L 62.208 3.456 
" style="fill: none; stroke: #000000; stroke-width: 0.8; stroke-linejoin: miter; stroke-linecap: square"/>
   </g>
   <g id="patch_4">
    <path d="M 460.8 293.76 
L 460.8 3.456 
" style="fill: none; stroke: #000000; stroke-width: 0.8; stroke-linejoin: miter; stroke-linecap: square"/>
   </g>
   <g id="patch_5">
    <path d="M 62.208 293.76 
L 460.8 293.76 
" style="fill: none; stroke: #000000; stroke-width: 0.8; stroke-linejoin: miter; stroke-linecap: square"/>
   </g>
   <g id="patch_6">
    <path d="M 62.208 3.456 
L 460.8 3.456 
" style="fill: none; stroke: #000000; stroke-width: 0.8; stroke-linejoin: miter; stroke-linecap: square"/>
   </g>
   <g id="text_12">
    <!-- {f20-f24}, 5-D -->
    <g transform="translate(188.654 24.458955)scale(0.2 -0.2)">
     <defs>
      <path id="DejaVuSans-7b" d="M 3272 -594 
L 3272 -1044 
L 3078 -1044 
Q 2300 -1044 2036 -812 
Q 1772 -581 1772 109 
L 1772 856 
Q 1772 1328 1603 1509 
Q 1434 1691 991 1691 
L 800 1691 
L 800 2138 
L 991 2138 
Q 1438 2138 1605 2317 
Q 1772 2497 1772 2963 
L 1772 3713 
Q 1772 4403 2036 4633 
Q 2300 4863 3078 4863 
L 3272 4863 
L 3272 4416 
L 3059 4416 
Q 2619 4416 2484 4278 
Q 2350 4141 2350 3700 
L 2350 2925 
Q 2350 2434 2208 2212 
Q 2066 1991 1722 1913 
Q 2069 1828 2209 1606 
Q 2350 1384 2350 897 
L 2350 122 
Q 2350 -319 2484 -456 
Q 2619 -594 3059 -594 
L 3272 -594 
z
" transform="scale(0.015625)"/>
      <path id="DejaVuSans-2d" d="M 313 2009 
L 1997 2009 
L 1997 1497 
L 313 1497 
L 313 2009 
z
" transform="scale(0.015625)"/>
      <path id="DejaVuSans-7d" d="M 800 -594 
L 1019 -594 
Q 1456 -594 1589 -459 
Q 1722 -325 1722 122 
L 1722 897 
Q 1722 1384 1862 1606 
Q 2003 1828 2350 1913 
Q 2003 1991 1862 2212 
Q 1722 2434 1722 2925 
L 1722 3700 
Q 1722 4144 1589 4280 
Q 1456 4416 1019 4416 
L 800 4416 
L 800 4863 
L 997 4863 
Q 1775 4863 2036 4633 
Q 2297 4403 2297 3713 
L 2297 2963 
Q 2297 2497 2465 2317 
Q 2634 2138 3078 2138 
L 3272 2138 
L 3272 1691 
L 3078 1691 
Q 2634 1691 2465 1509 
Q 2297 1328 2297 856 
L 2297 109 
Q 2297 -581 2036 -812 
Q 1775 -1044 997 -1044 
L 800 -1044 
L 800 -594 
z
" transform="scale(0.015625)"/>
      <path id="DejaVuSans-2c" d="M 750 794 
L 1409 794 
L 1409 256 
L 897 -744 
L 494 -744 
L 750 256 
L 750 794 
z
" transform="scale(0.015625)"/>
      <path id="DejaVuSans-35" d="M 691 4666 
L 3169 4666 
L 3169 4134 
L 1269 4134 
L 1269 2991 
Q 1406 3038 1543 3061 
Q 1681 3084 1819 3084 
Q 2600 3084 3056 2656 
Q 3513 2228 3513 1497 
Q 3513 744 3044 326 
Q 2575 -91 1722 -91 
Q 1428 -91 1123 -41 
Q 819 9 494 109 
L 494 744 
Q 775 591 1075 516 
Q 1375 441 1709 441 
Q 2250 441 2565 725 
Q 2881 1009 2881 1497 
Q 2881 1984 2565 2268 
Q 2250 2553 1709 2553 
Q 1456 2553 1204 2497 
Q 953 2441 691 2322 
L 691 4666 
z
" transform="scale(0.015625)"/>
     </defs>
     <use xlink:href="#DejaVuSans-7b"/>
     <use xlink:href="#DejaVuSans-66" x="63.623047"/>
     <use xlink:href="#DejaVuSans-32" x="98.828125"/>
     <use xlink:href="#DejaVuSans-30" x="162.451172"/>
     <use xlink:href="#DejaVuSans-2d" x="226.074219"/>
     <use xlink:href="#DejaVuSans-66" x="262.158203"/>
     <use xlink:href="#DejaVuSans-32" x="297.363281"/>
     <use xlink:href="#DejaVuSans-34" x="360.986328"/>
     <use xlink:href="#DejaVuSans-7d" x="424.609375"/>
     <use xlink:href="#DejaVuSans-2c" x="488.232422"/>
     <use xlink:href="#DejaVuSans-20" x="520.019531"/>
     <use xlink:href="#DejaVuSans-35" x="551.806641"/>
     <use xlink:href="#DejaVuSans-2d" x="615.429688"/>
     <use xlink:href="#DejaVuSans-44" x="651.513672"/>
    </g>
   </g>
   <g id="text_13">
    <!-- absolute targets -->
    <g transform="translate(62.208 609.932673)scale(0.14 -0.14)">
     <defs>
      <path id="DejaVuSans-62" d="M 3116 1747 
Q 3116 2381 2855 2742 
Q 2594 3103 2138 3103 
Q 1681 3103 1420 2742 
Q 1159 2381 1159 1747 
Q 1159 1113 1420 752 
Q 1681 391 2138 391 
Q 2594 391 2855 752 
Q 3116 1113 3116 1747 
z
M 1159 2969 
Q 1341 3281 1617 3432 
Q 1894 3584 2278 3584 
Q 2916 3584 3314 3078 
Q 3713 2572 3713 1747 
Q 3713 922 3314 415 
Q 2916 -91 2278 -91 
Q 1894 -91 1617 61 
Q 1341 213 1159 525 
L 1159 0 
L 581 0 
L 581 4863 
L 1159 4863 
L 1159 2969 
z
" transform="scale(0.015625)"/>
      <path id="DejaVuSans-75" d="M 544 1381 
L 544 3500 
L 1119 3500 
L 1119 1403 
Q 1119 906 1312 657 
Q 1506 409 1894 409 
Q 2359 409 2629 706 
Q 2900 1003 2900 1516 
L 2900 3500 
L 3475 3500 
L 3475 0 
L 2900 0 
L 2900 538 
Q 2691 219 2414 64 
Q 2138 -91 1772 -91 
Q 1169 -91 856 284 
Q 544 659 544 1381 
z
M 1991 3584 
L 1991 3584 
z
" transform="scale(0.015625)"/>
      <path id="DejaVuSans-65" d="M 3597 1894 
L 3597 1613 
L 953 1613 
Q 991 1019 1311 708 
Q 1631 397 2203 397 
Q 2534 397 2845 478 
Q 3156 559 3463 722 
L 3463 178 
Q 3153 47 2828 -22 
Q 2503 -91 2169 -91 
Q 1331 -91 842 396 
Q 353 884 353 1716 
Q 353 2575 817 3079 
Q 1281 3584 2069 3584 
Q 2775 3584 3186 3129 
Q 3597 2675 3597 1894 
z
M 3022 2063 
Q 3016 2534 2758 2815 
Q 2500 3097 2075 3097 
Q 1594 3097 1305 2825 
Q 1016 2553 972 2059 
L 3022 2063 
z
" transform="scale(0.015625)"/>
     </defs>
     <use xlink:href="#DejaVuSans-61"/>
     <use xlink:href="#DejaVuSans-62" x="61.279297"/>
     <use xlink:href="#DejaVuSans-73" x="124.755859"/>
     <use xlink:href="#DejaVuSans-6f" x="176.855469"/>
     <use xlink:href="#DejaVuSans-6c" x="238.037109"/>
     <use xlink:href="#DejaVuSans-75" x="265.820312"/>
     <use xlink:href="#DejaVuSans-74" x="329.199219"/>
     <use xlink:href="#DejaVuSans-65" x="368.408203"/>
     <use xlink:href="#DejaVuSans-20" x="429.931641"/>
     <use xlink:href="#DejaVuSans-74" x="461.71875"/>
     <use xlink:href="#DejaVuSans-61" x="500.927734"/>
     <use xlink:href="#DejaVuSans-72" x="562.207031"/>
     <use xlink:href="#DejaVuSans-67" x="601.570312"/>
     <use xlink:href="#DejaVuSans-65" x="665.046875"/>
     <use xlink:href="#DejaVuSans-74" x="726.570312"/>
     <use xlink:href="#DejaVuSans-73" x="765.779297"/>
    </g>
   </g>
   <g id="text_14">
    <!-- v2.6.3 -->
    <g style="fill: #808080" transform="translate(245.82275 288.777272)scale(0.1 -0.1)">
     <defs>
      <path id="DejaVuSans-33" d="M 2597 2516 
Q 3050 2419 3304 2112 
Q 3559 1806 3559 1356 
Q 3559 666 3084 287 
Q 2609 -91 1734 -91 
Q 1441 -91 1130 -33 
Q 819 25 488 141 
L 488 750 
Q 750 597 1062 519 
Q 1375 441 1716 441 
Q 2309 441 2620 675 
Q 2931 909 2931 1356 
Q 2931 1769 2642 2001 
Q 2353 2234 1838 2234 
L 1294 2234 
L 1294 2753 
L 1863 2753 
Q 2328 2753 2575 2939 
Q 2822 3125 2822 3475 
Q 2822 3834 2567 4026 
Q 2313 4219 1838 4219 
Q 1578 4219 1281 4162 
Q 984 4106 628 3988 
L 628 4550 
Q 988 4650 1302 4700 
Q 1616 4750 1894 4750 
Q 2613 4750 3031 4423 
Q 3450 4097 3450 3541 
Q 3450 3153 3228 2886 
Q 3006 2619 2597 2516 
z
" transform="scale(0.015625)"/>
     </defs>
     <use xlink:href="#DejaVuSans-76"/>
     <use xlink:href="#DejaVuSans-32" x="59.179688"/>
     <use xlink:href="#DejaVuSans-2e" x="122.802734"/>
     <use xlink:href="#DejaVuSans-36" x="154.589844"/>
     <use xlink:href="#DejaVuSans-2e" x="218.212891"/>
     <use xlink:href="#DejaVuSans-33" x="250"/>
    </g>
   </g>
   <g id="legend_1">
    <g id="patch_7">
     <path d="M 196.893062 136.881 
L 326.114937 136.881 
Q 330.114937 136.881 330.114937 132.881 
L 330.114937 17.456 
Q 330.114937 13.456 326.114937 13.456 
L 196.893062 13.456 
Q 192.893062 13.456 192.893062 17.456 
L 192.893062 132.881 
Q 192.893062 136.881 196.893062 136.881 
z
" style="fill: #ffffff; opacity: 0.2; stroke: #cccccc; stroke-linejoin: miter"/>
    </g>
    <g id="line2d_58">
     <path d="M 200.893062 29.652875 
L 200.893062 29.652875 
L 220.893062 29.652875 
L 220.893062 29.652875 
L 240.893062 29.652875 
" style="fill: none; stroke: #000000; stroke-width: 1.5; stroke-linecap: square"/>
    </g>
    <g id="text_15">
     <!-- 1: 5/5 -->
     <g transform="translate(256.893062 36.652875)scale(0.2 -0.2)">
      <defs>
       <path id="DejaVuSans-3a" d="M 750 794 
L 1409 794 
L 1409 0 
L 750 0 
L 750 794 
z
M 750 3309 
L 1409 3309 
L 1409 2516 
L 750 2516 
L 750 3309 
z
" transform="scale(0.015625)"/>
      </defs>
      <use xlink:href="#DejaVuSans-31"/>
      <use xlink:href="#DejaVuSans-3a" x="63.623047"/>
      <use xlink:href="#DejaVuSans-20" x="97.314453"/>
      <use xlink:href="#DejaVuSans-35" x="129.101562"/>
      <use xlink:href="#DejaVuSans-2f" x="192.724609"/>
      <use xlink:href="#DejaVuSans-35" x="226.416016"/>
     </g>
    </g>
    <g id="line2d_59">
     <path d="M 200.893062 59.009125 
L 200.893062 59.009125 
L 220.893062 59.009125 
L 220.893062 59.009125 
L 240.893062 59.009125 
" style="fill: none; stroke: #00bfbf; stroke-width: 1.5; stroke-linecap: square"/>
    </g>
    <g id="text_16">
     <!-- -1: 5/5 -->
     <g transform="translate(256.893062 66.009125)scale(0.2 -0.2)">
      <use xlink:href="#DejaVuSans-2d"/>
      <use xlink:href="#DejaVuSans-31" x="36.083984"/>
      <use xlink:href="#DejaVuSans-3a" x="99.707031"/>
      <use xlink:href="#DejaVuSans-20" x="133.398438"/>
      <use xlink:href="#DejaVuSans-35" x="165.185547"/>
      <use xlink:href="#DejaVuSans-2f" x="228.808594"/>
      <use xlink:href="#DejaVuSans-35" x="262.5"/>
     </g>
    </g>
    <g id="line2d_60">
     <path d="M 200.893062 88.365375 
L 200.893062 88.365375 
L 220.893062 88.365375 
L 220.893062 88.365375 
L 240.893062 88.365375 
" style="fill: none; stroke: #bf00bf; stroke-width: 1.5; stroke-linecap: square"/>
    </g>
    <g id="text_17">
     <!-- -4: 5/5 -->
     <g transform="translate(256.893062 95.365375)scale(0.2 -0.2)">
      <use xlink:href="#DejaVuSans-2d"/>
      <use xlink:href="#DejaVuSans-34" x="36.083984"/>
      <use xlink:href="#DejaVuSans-3a" x="99.707031"/>
      <use xlink:href="#DejaVuSans-20" x="133.398438"/>
      <use xlink:href="#DejaVuSans-35" x="165.185547"/>
      <use xlink:href="#DejaVuSans-2f" x="228.808594"/>
      <use xlink:href="#DejaVuSans-35" x="262.5"/>
     </g>
    </g>
    <g id="line2d_61">
     <path d="M 200.893062 117.721625 
L 200.893062 117.721625 
L 220.893062 117.721625 
L 220.893062 117.721625 
L 240.893062 117.721625 
" style="fill: none; stroke: #ff0000; stroke-width: 3; stroke-linecap: square"/>
    </g>
    <g id="text_18">
     <!-- -8: 5/5 -->
     <g transform="translate(256.893062 124.721625)scale(0.2 -0.2)">
      <use xlink:href="#DejaVuSans-2d"/>
      <use xlink:href="#DejaVuSans-38" x="36.083984"/>
      <use xlink:href="#DejaVuSans-3a" x="99.707031"/>
      <use xlink:href="#DejaVuSans-20" x="133.398438"/>
      <use xlink:href="#DejaVuSans-35" x="165.185547"/>
      <use xlink:href="#DejaVuSans-2f" x="228.808594"/>
      <use xlink:href="#DejaVuSans-35" x="262.5"/>
     </g>
    </g>
   </g>
  </g>
 </g>
 <defs>
  <clipPath id="p2d0bc4ea46">
   <rect x="62.208" y="3.456" width="398.592" height="290.304"/>
  </clipPath>
 </defs>
</svg>
