<?xml version="1.0" encoding="utf-8" standalone="no"?>
<!DOCTYPE svg PUBLIC "-//W3C//DTD SVG 1.1//EN"
  "http://www.w3.org/Graphics/SVG/1.1/DTD/svg11.dtd">
<svg xmlns:xlink="http://www.w3.org/1999/xlink" width="460.8pt" height="345.6pt" viewBox="0 0 460.8 345.6" xmlns="http://www.w3.org/2000/svg" version="1.1">
 <metadata>
  <rdf:RDF xmlns:dc="http://purl.org/dc/elements/1.1/" xmlns:cc="http://creativecommons.org/ns#" xmlns:rdf="http://www.w3.org/1999/02/22-rdf-syntax-ns#">
   <cc:Work>
    <dc:type rdf:resource="http://purl.org/dc/dcmitype/StillImage"/>
    <dc:date>2023-04-07T14:45:04.299172</dc:date>
    <dc:format>image/svg+xml</dc:format>
    <dc:creator>
     <cc:Agent>
      <dc:title>Matplotlib v3.5.2, https://matplotlib.org/</dc:title>
     </cc:Agent>
    </dc:creator>
   </cc:Work>
  </rdf:RDF>
 </metadata>
 <defs>
  <style type="text/css">*{stroke-linejoin: round; stroke-linecap: butt}</style>
 </defs>
 <g id="figure_1">
  <g id="patch_1">
   <path d="M 0 345.6 
L 460.8 345.6 
L 460.8 0 
L 0 0 
z
" style="fill: #ffffff"/>
  </g>
  <g id="axes_1">
   <g id="patch_2">
    <path d="M 62.208 293.76 
L 460.8 293.76 
L 460.8 3.456 
L 62.208 3.456 
z
" style="fill: #ffffff"/>
   </g>
   <g id="line2d_1"/>
   <g id="line2d_2"/>
   <g id="line2d_3"/>
   <g id="line2d_4"/>
   <g id="line2d_5"/>
   <g id="line2d_6"/>
   <g id="line2d_7"/>
   <g id="line2d_8"/>
   <g id="line2d_9">
    <path d="M 317.155378 293.76 
L 317.155378 289.927604 
L 333.376132 289.927604 
L 333.376132 286.095208 
L 338.838013 286.095208 
L 338.838013 282.262812 
L 339.570815 282.262812 
L 339.570815 278.430416 
L 340.097502 278.430416 
L 340.097502 274.59802 
L 340.365842 274.59802 
L 340.365842 270.765624 
L 340.836299 270.765624 
L 340.836299 266.933228 
L 341.780456 266.933228 
L 341.82069 259.268436 
L 342.828898 259.268436 
L 342.828898 255.43604 
L 343.614814 255.43604 
L 343.614814 251.603644 
L 343.907062 251.603644 
L 343.907062 247.771248 
L 344.161049 247.771248 
L 344.161049 243.938851 
L 344.420561 243.938851 
L 344.420561 240.106455 
L 344.773557 240.106455 
L 344.819654 232.441663 
L 344.940845 232.441663 
L 344.940845 228.609267 
L 346.214028 228.609267 
L 346.214028 224.776871 
L 346.491841 224.776871 
L 346.491841 220.944475 
L 357.233212 220.944475 
L 357.233212 217.112079 
L 359.590085 217.112079 
L 359.590085 213.279683 
L 362.020084 213.279683 
L 362.020084 209.447287 
L 363.962256 209.447287 
L 363.962256 205.614891 
L 365.337618 205.614891 
L 365.337618 201.782495 
L 365.747013 201.782495 
L 365.747013 197.950099 
L 367.228786 197.950099 
L 367.228786 194.117703 
L 367.984383 194.117703 
L 368.001303 186.452911 
L 369.300824 186.452911 
L 369.300824 182.620515 
L 369.758275 182.620515 
L 369.758275 178.788119 
L 370.09724 178.788119 
L 370.09724 174.955723 
L 370.238008 174.955723 
L 370.238008 171.123327 
L 370.56766 171.123327 
L 370.56766 167.290931 
L 370.691231 167.290931 
L 370.691231 163.458535 
L 371.341441 163.458535 
L 371.341441 159.626139 
L 372.062638 159.626139 
L 372.062638 155.793743 
L 372.765591 155.793743 
L 372.765591 151.961347 
L 373.067688 151.961347 
L 373.067688 148.12895 
L 374.077213 148.12895 
L 374.077213 144.296554 
L 375.809449 144.296554 
L 375.809449 140.464158 
L 379.075551 140.464158 
L 379.075551 136.631762 
L 379.215075 136.631762 
L 379.288176 128.96697 
L 379.570521 128.96697 
L 379.570521 125.134574 
L 379.722696 125.134574 
L 379.811714 117.469782 
L 380.64536 117.469782 
L 380.665665 109.80499 
L 384.422785 109.80499 
L 384.422785 105.972594 
L 384.67762 105.972594 
L 384.67762 102.140198 
L 386.311212 102.140198 
L 386.383982 94.475406 
L 386.96562 94.475406 
L 386.96562 90.64301 
L 391.447307 90.64301 
L 391.447307 86.810614 
L 397.888609 86.810614 
L 397.888609 82.978218 
L 398.705744 82.978218 
L 398.705744 79.145822 
L 399.404438 79.145822 
L 399.404438 75.313426 
L 399.581783 75.313426 
L 399.581783 71.48103 
L 401.262314 71.48103 
L 401.262314 67.648634 
L 402.554004 67.648634 
L 402.554004 63.816238 
L 460.213277 63.816238 
L 460.213277 59.983842 
L 461.8 59.983842 
L 461.8 59.983842 
" clip-path="url(#p88157f88e7)" style="fill: none; stroke: #f5deb3; stroke-width: 1.5; stroke-linecap: square"/>
   </g>
   <g id="line2d_10"/>
   <g id="line2d_11"/>
   <g id="line2d_12"/>
   <g id="line2d_13"/>
   <g id="line2d_14"/>
   <g id="line2d_15"/>
   <g id="line2d_16"/>
   <g id="line2d_17"/>
   <g id="line2d_18"/>
   <g id="line2d_19"/>
   <g id="line2d_20"/>
   <g id="line2d_21"/>
   <g id="line2d_22"/>
   <g id="line2d_23"/>
   <g id="line2d_24">
    <path d="M 329.397334 293.76 
L 329.397334 289.927604 
L 332.00588 289.927604 
L 332.039543 282.262812 
L 366.826942 282.262812 
L 366.937329 274.59802 
L 369.560953 274.59802 
L 369.560953 270.765624 
L 370.148594 270.765624 
L 370.148594 266.933228 
L 370.429866 266.933228 
L 370.429866 263.100832 
L 372.793367 263.100832 
L 372.793367 259.268436 
L 375.303875 259.268436 
L 375.303875 255.43604 
L 375.45488 255.43604 
L 375.45488 251.603644 
L 388.60215 251.603644 
L 388.60215 247.771248 
L 390.356132 247.771248 
L 390.356132 243.938851 
L 390.779247 243.938851 
L 390.779247 240.106455 
L 391.114469 240.106455 
L 391.114469 236.274059 
L 391.340021 236.274059 
L 391.340021 232.441663 
L 391.884734 232.441663 
L 391.958247 224.776871 
L 392.207386 224.776871 
L 392.207386 220.944475 
L 392.897324 220.944475 
L 392.96892 213.279683 
L 393.273349 213.279683 
L 393.273349 209.447287 
L 393.648024 209.447287 
L 393.648024 205.614891 
L 394.068131 205.614891 
L 394.068131 201.782495 
L 394.6491 201.782495 
L 394.6491 197.950099 
L 394.916203 197.950099 
L 394.948986 190.285307 
L 395.41304 190.285307 
L 395.41304 186.452911 
L 395.724806 186.452911 
L 395.724806 182.620515 
L 395.838363 182.620515 
L 395.838363 178.788119 
L 396.195022 178.788119 
L 396.195022 174.955723 
L 396.777321 174.955723 
L 396.849514 167.290931 
L 397.243003 167.290931 
L 397.243003 163.458535 
L 397.729089 163.458535 
L 397.736007 155.793743 
L 398.248925 155.793743 
L 398.248925 151.961347 
L 398.471756 151.961347 
L 398.471756 148.12895 
L 398.637983 148.12895 
L 398.637983 144.296554 
L 398.750858 144.296554 
L 398.750858 140.464158 
L 398.968948 140.464158 
L 399.038512 132.799366 
L 399.435361 132.799366 
L 399.47756 125.134574 
L 403.421373 125.134574 
L 403.421373 121.302178 
L 405.1574 121.302178 
L 405.1574 117.469782 
L 405.335493 117.469782 
L 405.335493 113.637386 
L 406.583382 113.637386 
L 406.583382 109.80499 
L 418.144927 109.80499 
L 418.144927 105.972594 
L 418.742158 105.972594 
L 418.742158 102.140198 
L 419.199759 102.140198 
L 419.199759 98.307802 
L 423.660046 98.307802 
L 423.660046 94.475406 
L 425.185749 94.475406 
L 425.185749 90.64301 
L 425.935763 90.64301 
L 425.935763 86.810614 
L 426.452572 86.810614 
L 426.452572 82.978218 
L 427.550808 82.978218 
L 427.550808 79.145822 
L 443.463615 79.145822 
L 443.463615 75.313426 
L 443.935825 75.313426 
L 443.935825 71.48103 
L 444.566263 71.48103 
L 444.566263 67.648634 
L 445.118354 67.648634 
L 445.118354 63.816238 
L 461.8 63.816238 
L 461.8 63.816238 
" clip-path="url(#p88157f88e7)" style="fill: none; stroke: #f5deb3; stroke-width: 1.5; stroke-linecap: square"/>
   </g>
   <g id="line2d_25">
    <path d="M 385.1814 293.76 
L 385.1814 289.927604 
L 385.662796 289.927604 
L 385.662796 286.095208 
L 385.900414 286.095208 
L 385.900414 282.262812 
L 386.225001 282.262812 
L 386.225001 278.430416 
L 386.782801 278.430416 
L 386.782801 274.59802 
L 387.216801 274.59802 
L 387.216801 270.765624 
L 387.216801 270.765624 
L 387.216801 270.765624 
L 460.8 270.765624 
" clip-path="url(#p88157f88e7)" style="fill: none; stroke: #f5deb3; stroke-width: 1.5; stroke-linecap: square"/>
   </g>
   <g id="line2d_26">
    <path d="M 416.457377 293.76 
L 416.457377 289.927604 
L 429.004427 289.927604 
L 429.004427 286.095208 
L 429.004427 286.095208 
L 429.004427 286.095208 
L 460.8 286.095208 
" clip-path="url(#p88157f88e7)" style="fill: none; stroke: #f5deb3; stroke-width: 1.5; stroke-linecap: square"/>
   </g>
   <g id="line2d_27"/>
   <g id="line2d_28">
    <path d="M 407.31191 293.76 
L 407.31191 289.927604 
L 408.640218 289.927604 
L 408.640218 286.095208 
L 431.667481 286.095208 
L 431.667481 282.262812 
L 431.953745 282.262812 
L 431.953745 278.430416 
L 432.252628 278.430416 
L 432.252628 274.59802 
L 432.344838 274.59802 
L 432.344838 270.765624 
L 433.678185 270.765624 
L 433.678185 266.933228 
L 433.861067 266.933228 
L 433.861067 263.100832 
L 434.450771 263.100832 
L 434.450771 259.268436 
L 434.519345 259.268436 
L 434.519345 255.43604 
L 434.699909 255.43604 
L 434.699909 251.603644 
L 434.73734 251.603644 
L 434.73734 247.771248 
L 434.918974 247.771248 
L 434.918974 243.938851 
L 434.920811 243.938851 
L 434.920811 240.106455 
L 435.339663 240.106455 
L 435.339663 236.274059 
L 436.045639 236.274059 
L 436.045639 232.441663 
L 436.128062 232.441663 
L 436.128062 228.609267 
L 436.26985 228.609267 
L 436.26985 224.776871 
L 436.717251 224.776871 
L 436.717251 220.944475 
L 436.970462 220.944475 
L 436.970462 217.112079 
L 437.289951 217.112079 
L 437.289951 213.279683 
L 437.355946 213.279683 
L 437.355946 209.447287 
L 437.389803 209.447287 
L 437.389803 205.614891 
L 437.552335 205.614891 
L 437.552335 201.782495 
L 437.643455 201.782495 
L 437.643455 197.950099 
L 437.695428 197.950099 
L 437.695428 194.117703 
L 438.154644 194.117703 
L 438.154644 190.285307 
L 438.311312 190.285307 
L 438.311312 186.452911 
L 438.441379 186.452911 
L 438.441379 182.620515 
L 438.586608 182.620515 
L 438.586608 178.788119 
L 439.138956 178.788119 
L 439.138956 174.955723 
L 439.16107 174.955723 
L 439.16107 171.123327 
L 440.813255 171.123327 
L 440.813255 167.290931 
L 441.060819 167.290931 
L 441.060819 163.458535 
L 441.353987 163.458535 
L 441.353987 159.626139 
L 441.974554 159.626139 
L 441.974554 155.793743 
L 442.186817 155.793743 
L 442.186817 151.961347 
L 442.309532 151.961347 
L 442.309532 148.12895 
L 442.42824 148.12895 
L 442.42824 144.296554 
L 442.687768 144.296554 
L 442.687768 140.464158 
L 443.62061 140.464158 
L 443.62061 136.631762 
L 444.305066 136.631762 
L 444.305066 132.799366 
L 444.668482 132.799366 
L 444.668482 128.96697 
L 448.966099 128.96697 
L 448.966099 125.134574 
L 452.662934 125.134574 
L 452.662934 121.302178 
L 460.661406 121.302178 
L 460.661406 117.469782 
L 461.8 117.469782 
" clip-path="url(#p88157f88e7)" style="fill: none; stroke: #f5deb3; stroke-width: 1.5; stroke-linecap: square"/>
   </g>
   <g id="line2d_29"/>
   <g id="line2d_30"/>
   <g id="matplotlib.axis_1">
    <g id="xtick_1">
     <g id="line2d_31">
      <path d="M 62.208 293.76 
L 62.208 3.456 
" clip-path="url(#p88157f88e7)" style="fill: none; stroke: #b0b0b0; stroke-width: 0.8; stroke-linecap: square"/>
     </g>
     <g id="line2d_32">
      <defs>
       <path id="m04ff2602a8" d="M 0 0 
L 0 3.5 
" style="stroke: #000000; stroke-width: 0.8"/>
      </defs>
      <g>
       <use xlink:href="#m04ff2602a8" x="62.208" y="293.76" style="stroke: #000000; stroke-width: 0.8"/>
      </g>
     </g>
     <g id="text_1">
      <!-- 0 -->
      <g transform="translate(55.8455 315.956875)scale(0.2 -0.2)">
       <defs>
        <path id="DejaVuSans-30" d="M 2034 4250 
Q 1547 4250 1301 3770 
Q 1056 3291 1056 2328 
Q 1056 1369 1301 889 
Q 1547 409 2034 409 
Q 2525 409 2770 889 
Q 3016 1369 3016 2328 
Q 3016 3291 2770 3770 
Q 2525 4250 2034 4250 
z
M 2034 4750 
Q 2819 4750 3233 4129 
Q 3647 3509 3647 2328 
Q 3647 1150 3233 529 
Q 2819 -91 2034 -91 
Q 1250 -91 836 529 
Q 422 1150 422 2328 
Q 422 3509 836 4129 
Q 1250 4750 2034 4750 
z
" transform="scale(0.015625)"/>
       </defs>
       <use xlink:href="#DejaVuSans-30"/>
      </g>
     </g>
    </g>
    <g id="xtick_2">
     <g id="line2d_33">
      <path d="M 212.572475 293.76 
L 212.572475 3.456 
" clip-path="url(#p88157f88e7)" style="fill: none; stroke: #b0b0b0; stroke-width: 0.8; stroke-linecap: square"/>
     </g>
     <g id="line2d_34">
      <g>
       <use xlink:href="#m04ff2602a8" x="212.572475" y="293.76" style="stroke: #000000; stroke-width: 0.8"/>
      </g>
     </g>
     <g id="text_2">
      <!-- 2 -->
      <g transform="translate(206.209975 315.956875)scale(0.2 -0.2)">
       <defs>
        <path id="DejaVuSans-32" d="M 1228 531 
L 3431 531 
L 3431 0 
L 469 0 
L 469 531 
Q 828 903 1448 1529 
Q 2069 2156 2228 2338 
Q 2531 2678 2651 2914 
Q 2772 3150 2772 3378 
Q 2772 3750 2511 3984 
Q 2250 4219 1831 4219 
Q 1534 4219 1204 4116 
Q 875 4013 500 3803 
L 500 4441 
Q 881 4594 1212 4672 
Q 1544 4750 1819 4750 
Q 2544 4750 2975 4387 
Q 3406 4025 3406 3419 
Q 3406 3131 3298 2873 
Q 3191 2616 2906 2266 
Q 2828 2175 2409 1742 
Q 1991 1309 1228 531 
z
" transform="scale(0.015625)"/>
       </defs>
       <use xlink:href="#DejaVuSans-32"/>
      </g>
     </g>
    </g>
    <g id="xtick_3">
     <g id="line2d_35">
      <path d="M 362.93695 293.76 
L 362.93695 3.456 
" clip-path="url(#p88157f88e7)" style="fill: none; stroke: #b0b0b0; stroke-width: 0.8; stroke-linecap: square"/>
     </g>
     <g id="line2d_36">
      <g>
       <use xlink:href="#m04ff2602a8" x="362.93695" y="293.76" style="stroke: #000000; stroke-width: 0.8"/>
      </g>
     </g>
     <g id="text_3">
      <!-- 4 -->
      <g transform="translate(356.57445 315.956875)scale(0.2 -0.2)">
       <defs>
        <path id="DejaVuSans-34" d="M 2419 4116 
L 825 1625 
L 2419 1625 
L 2419 4116 
z
M 2253 4666 
L 3047 4666 
L 3047 1625 
L 3713 1625 
L 3713 1100 
L 3047 1100 
L 3047 0 
L 2419 0 
L 2419 1100 
L 313 1100 
L 313 1709 
L 2253 4666 
z
" transform="scale(0.015625)"/>
       </defs>
       <use xlink:href="#DejaVuSans-34"/>
      </g>
     </g>
    </g>
    <g id="text_4">
     <!-- log10 of FEvals / DIM -->
     <g transform="translate(156.430563 339.313125)scale(0.2 -0.2)">
      <defs>
       <path id="DejaVuSans-6c" d="M 603 4863 
L 1178 4863 
L 1178 0 
L 603 0 
L 603 4863 
z
" transform="scale(0.015625)"/>
       <path id="DejaVuSans-6f" d="M 1959 3097 
Q 1497 3097 1228 2736 
Q 959 2375 959 1747 
Q 959 1119 1226 758 
Q 1494 397 1959 397 
Q 2419 397 2687 759 
Q 2956 1122 2956 1747 
Q 2956 2369 2687 2733 
Q 2419 3097 1959 3097 
z
M 1959 3584 
Q 2709 3584 3137 3096 
Q 3566 2609 3566 1747 
Q 3566 888 3137 398 
Q 2709 -91 1959 -91 
Q 1206 -91 779 398 
Q 353 888 353 1747 
Q 353 2609 779 3096 
Q 1206 3584 1959 3584 
z
" transform="scale(0.015625)"/>
       <path id="DejaVuSans-67" d="M 2906 1791 
Q 2906 2416 2648 2759 
Q 2391 3103 1925 3103 
Q 1463 3103 1205 2759 
Q 947 2416 947 1791 
Q 947 1169 1205 825 
Q 1463 481 1925 481 
Q 2391 481 2648 825 
Q 2906 1169 2906 1791 
z
M 3481 434 
Q 3481 -459 3084 -895 
Q 2688 -1331 1869 -1331 
Q 1566 -1331 1297 -1286 
Q 1028 -1241 775 -1147 
L 775 -588 
Q 1028 -725 1275 -790 
Q 1522 -856 1778 -856 
Q 2344 -856 2625 -561 
Q 2906 -266 2906 331 
L 2906 616 
Q 2728 306 2450 153 
Q 2172 0 1784 0 
Q 1141 0 747 490 
Q 353 981 353 1791 
Q 353 2603 747 3093 
Q 1141 3584 1784 3584 
Q 2172 3584 2450 3431 
Q 2728 3278 2906 2969 
L 2906 3500 
L 3481 3500 
L 3481 434 
z
" transform="scale(0.015625)"/>
       <path id="DejaVuSans-31" d="M 794 531 
L 1825 531 
L 1825 4091 
L 703 3866 
L 703 4441 
L 1819 4666 
L 2450 4666 
L 2450 531 
L 3481 531 
L 3481 0 
L 794 0 
L 794 531 
z
" transform="scale(0.015625)"/>
       <path id="DejaVuSans-20" transform="scale(0.015625)"/>
       <path id="DejaVuSans-66" d="M 2375 4863 
L 2375 4384 
L 1825 4384 
Q 1516 4384 1395 4259 
Q 1275 4134 1275 3809 
L 1275 3500 
L 2222 3500 
L 2222 3053 
L 1275 3053 
L 1275 0 
L 697 0 
L 697 3053 
L 147 3053 
L 147 3500 
L 697 3500 
L 697 3744 
Q 697 4328 969 4595 
Q 1241 4863 1831 4863 
L 2375 4863 
z
" transform="scale(0.015625)"/>
       <path id="DejaVuSans-46" d="M 628 4666 
L 3309 4666 
L 3309 4134 
L 1259 4134 
L 1259 2759 
L 3109 2759 
L 3109 2228 
L 1259 2228 
L 1259 0 
L 628 0 
L 628 4666 
z
" transform="scale(0.015625)"/>
       <path id="DejaVuSans-45" d="M 628 4666 
L 3578 4666 
L 3578 4134 
L 1259 4134 
L 1259 2753 
L 3481 2753 
L 3481 2222 
L 1259 2222 
L 1259 531 
L 3634 531 
L 3634 0 
L 628 0 
L 628 4666 
z
" transform="scale(0.015625)"/>
       <path id="DejaVuSans-76" d="M 191 3500 
L 800 3500 
L 1894 563 
L 2988 3500 
L 3597 3500 
L 2284 0 
L 1503 0 
L 191 3500 
z
" transform="scale(0.015625)"/>
       <path id="DejaVuSans-61" d="M 2194 1759 
Q 1497 1759 1228 1600 
Q 959 1441 959 1056 
Q 959 750 1161 570 
Q 1363 391 1709 391 
Q 2188 391 2477 730 
Q 2766 1069 2766 1631 
L 2766 1759 
L 2194 1759 
z
M 3341 1997 
L 3341 0 
L 2766 0 
L 2766 531 
Q 2569 213 2275 61 
Q 1981 -91 1556 -91 
Q 1019 -91 701 211 
Q 384 513 384 1019 
Q 384 1609 779 1909 
Q 1175 2209 1959 2209 
L 2766 2209 
L 2766 2266 
Q 2766 2663 2505 2880 
Q 2244 3097 1772 3097 
Q 1472 3097 1187 3025 
Q 903 2953 641 2809 
L 641 3341 
Q 956 3463 1253 3523 
Q 1550 3584 1831 3584 
Q 2591 3584 2966 3190 
Q 3341 2797 3341 1997 
z
" transform="scale(0.015625)"/>
       <path id="DejaVuSans-73" d="M 2834 3397 
L 2834 2853 
Q 2591 2978 2328 3040 
Q 2066 3103 1784 3103 
Q 1356 3103 1142 2972 
Q 928 2841 928 2578 
Q 928 2378 1081 2264 
Q 1234 2150 1697 2047 
L 1894 2003 
Q 2506 1872 2764 1633 
Q 3022 1394 3022 966 
Q 3022 478 2636 193 
Q 2250 -91 1575 -91 
Q 1294 -91 989 -36 
Q 684 19 347 128 
L 347 722 
Q 666 556 975 473 
Q 1284 391 1588 391 
Q 1994 391 2212 530 
Q 2431 669 2431 922 
Q 2431 1156 2273 1281 
Q 2116 1406 1581 1522 
L 1381 1569 
Q 847 1681 609 1914 
Q 372 2147 372 2553 
Q 372 3047 722 3315 
Q 1072 3584 1716 3584 
Q 2034 3584 2315 3537 
Q 2597 3491 2834 3397 
z
" transform="scale(0.015625)"/>
       <path id="DejaVuSans-2f" d="M 1625 4666 
L 2156 4666 
L 531 -594 
L 0 -594 
L 1625 4666 
z
" transform="scale(0.015625)"/>
       <path id="DejaVuSans-44" d="M 1259 4147 
L 1259 519 
L 2022 519 
Q 2988 519 3436 956 
Q 3884 1394 3884 2338 
Q 3884 3275 3436 3711 
Q 2988 4147 2022 4147 
L 1259 4147 
z
M 628 4666 
L 1925 4666 
Q 3281 4666 3915 4102 
Q 4550 3538 4550 2338 
Q 4550 1131 3912 565 
Q 3275 0 1925 0 
L 628 0 
L 628 4666 
z
" transform="scale(0.015625)"/>
       <path id="DejaVuSans-49" d="M 628 4666 
L 1259 4666 
L 1259 0 
L 628 0 
L 628 4666 
z
" transform="scale(0.015625)"/>
       <path id="DejaVuSans-4d" d="M 628 4666 
L 1569 4666 
L 2759 1491 
L 3956 4666 
L 4897 4666 
L 4897 0 
L 4281 0 
L 4281 4097 
L 3078 897 
L 2444 897 
L 1241 4097 
L 1241 0 
L 628 0 
L 628 4666 
z
" transform="scale(0.015625)"/>
      </defs>
      <use xlink:href="#DejaVuSans-6c"/>
      <use xlink:href="#DejaVuSans-6f" x="27.783203"/>
      <use xlink:href="#DejaVuSans-67" x="88.964844"/>
      <use xlink:href="#DejaVuSans-31" x="152.441406"/>
      <use xlink:href="#DejaVuSans-30" x="216.064453"/>
      <use xlink:href="#DejaVuSans-20" x="279.6875"/>
      <use xlink:href="#DejaVuSans-6f" x="311.474609"/>
      <use xlink:href="#DejaVuSans-66" x="372.65625"/>
      <use xlink:href="#DejaVuSans-20" x="407.861328"/>
      <use xlink:href="#DejaVuSans-46" x="439.648438"/>
      <use xlink:href="#DejaVuSans-45" x="497.167969"/>
      <use xlink:href="#DejaVuSans-76" x="560.351562"/>
      <use xlink:href="#DejaVuSans-61" x="619.53125"/>
      <use xlink:href="#DejaVuSans-6c" x="680.810547"/>
      <use xlink:href="#DejaVuSans-73" x="708.59375"/>
      <use xlink:href="#DejaVuSans-20" x="760.693359"/>
      <use xlink:href="#DejaVuSans-2f" x="792.480469"/>
      <use xlink:href="#DejaVuSans-20" x="826.171875"/>
      <use xlink:href="#DejaVuSans-44" x="857.958984"/>
      <use xlink:href="#DejaVuSans-49" x="934.960938"/>
      <use xlink:href="#DejaVuSans-4d" x="964.453125"/>
     </g>
    </g>
   </g>
   <g id="matplotlib.axis_2">
    <g id="ytick_1">
     <g id="line2d_37">
      <path d="M 62.208 293.76 
L 460.8 293.76 
" clip-path="url(#p88157f88e7)" style="fill: none; stroke: #b0b0b0; stroke-width: 0.8; stroke-linecap: square"/>
     </g>
     <g id="line2d_38">
      <defs>
       <path id="mede4504d39" d="M 0 0 
L -3.5 0 
" style="stroke: #000000; stroke-width: 0.8"/>
      </defs>
      <g>
       <use xlink:href="#mede4504d39" x="62.208" y="293.76" style="stroke: #000000; stroke-width: 0.8"/>
      </g>
     </g>
     <g id="text_5">
      <!-- 0.0 -->
      <g transform="translate(29.763 299.83875)scale(0.16 -0.16)">
       <defs>
        <path id="DejaVuSans-2e" d="M 684 794 
L 1344 794 
L 1344 0 
L 684 0 
L 684 794 
z
" transform="scale(0.015625)"/>
       </defs>
       <use xlink:href="#DejaVuSans-30"/>
       <use xlink:href="#DejaVuSans-2e" x="63.623047"/>
       <use xlink:href="#DejaVuSans-30" x="95.410156"/>
      </g>
     </g>
    </g>
    <g id="ytick_2">
     <g id="line2d_39">
      <path d="M 62.208 236.274059 
L 460.8 236.274059 
" clip-path="url(#p88157f88e7)" style="fill: none; stroke: #b0b0b0; stroke-width: 0.8; stroke-linecap: square"/>
     </g>
     <g id="line2d_40">
      <g>
       <use xlink:href="#mede4504d39" x="62.208" y="236.274059" style="stroke: #000000; stroke-width: 0.8"/>
      </g>
     </g>
     <g id="text_6">
      <!-- 0.2 -->
      <g transform="translate(29.763 242.352809)scale(0.16 -0.16)">
       <use xlink:href="#DejaVuSans-30"/>
       <use xlink:href="#DejaVuSans-2e" x="63.623047"/>
       <use xlink:href="#DejaVuSans-32" x="95.410156"/>
      </g>
     </g>
    </g>
    <g id="ytick_3">
     <g id="line2d_41">
      <path d="M 62.208 178.788119 
L 460.8 178.788119 
" clip-path="url(#p88157f88e7)" style="fill: none; stroke: #b0b0b0; stroke-width: 0.8; stroke-linecap: square"/>
     </g>
     <g id="line2d_42">
      <g>
       <use xlink:href="#mede4504d39" x="62.208" y="178.788119" style="stroke: #000000; stroke-width: 0.8"/>
      </g>
     </g>
     <g id="text_7">
      <!-- 0.4 -->
      <g transform="translate(29.763 184.866869)scale(0.16 -0.16)">
       <use xlink:href="#DejaVuSans-30"/>
       <use xlink:href="#DejaVuSans-2e" x="63.623047"/>
       <use xlink:href="#DejaVuSans-34" x="95.410156"/>
      </g>
     </g>
    </g>
    <g id="ytick_4">
     <g id="line2d_43">
      <path d="M 62.208 121.302178 
L 460.8 121.302178 
" clip-path="url(#p88157f88e7)" style="fill: none; stroke: #b0b0b0; stroke-width: 0.8; stroke-linecap: square"/>
     </g>
     <g id="line2d_44">
      <g>
       <use xlink:href="#mede4504d39" x="62.208" y="121.302178" style="stroke: #000000; stroke-width: 0.8"/>
      </g>
     </g>
     <g id="text_8">
      <!-- 0.6 -->
      <g transform="translate(29.763 127.380928)scale(0.16 -0.16)">
       <defs>
        <path id="DejaVuSans-36" d="M 2113 2584 
Q 1688 2584 1439 2293 
Q 1191 2003 1191 1497 
Q 1191 994 1439 701 
Q 1688 409 2113 409 
Q 2538 409 2786 701 
Q 3034 994 3034 1497 
Q 3034 2003 2786 2293 
Q 2538 2584 2113 2584 
z
M 3366 4563 
L 3366 3988 
Q 3128 4100 2886 4159 
Q 2644 4219 2406 4219 
Q 1781 4219 1451 3797 
Q 1122 3375 1075 2522 
Q 1259 2794 1537 2939 
Q 1816 3084 2150 3084 
Q 2853 3084 3261 2657 
Q 3669 2231 3669 1497 
Q 3669 778 3244 343 
Q 2819 -91 2113 -91 
Q 1303 -91 875 529 
Q 447 1150 447 2328 
Q 447 3434 972 4092 
Q 1497 4750 2381 4750 
Q 2619 4750 2861 4703 
Q 3103 4656 3366 4563 
z
" transform="scale(0.015625)"/>
       </defs>
       <use xlink:href="#DejaVuSans-30"/>
       <use xlink:href="#DejaVuSans-2e" x="63.623047"/>
       <use xlink:href="#DejaVuSans-36" x="95.410156"/>
      </g>
     </g>
    </g>
    <g id="ytick_5">
     <g id="line2d_45">
      <path d="M 62.208 63.816238 
L 460.8 63.816238 
" clip-path="url(#p88157f88e7)" style="fill: none; stroke: #b0b0b0; stroke-width: 0.8; stroke-linecap: square"/>
     </g>
     <g id="line2d_46">
      <g>
       <use xlink:href="#mede4504d39" x="62.208" y="63.816238" style="stroke: #000000; stroke-width: 0.8"/>
      </g>
     </g>
     <g id="text_9">
      <!-- 0.8 -->
      <g transform="translate(29.763 69.894988)scale(0.16 -0.16)">
       <defs>
        <path id="DejaVuSans-38" d="M 2034 2216 
Q 1584 2216 1326 1975 
Q 1069 1734 1069 1313 
Q 1069 891 1326 650 
Q 1584 409 2034 409 
Q 2484 409 2743 651 
Q 3003 894 3003 1313 
Q 3003 1734 2745 1975 
Q 2488 2216 2034 2216 
z
M 1403 2484 
Q 997 2584 770 2862 
Q 544 3141 544 3541 
Q 544 4100 942 4425 
Q 1341 4750 2034 4750 
Q 2731 4750 3128 4425 
Q 3525 4100 3525 3541 
Q 3525 3141 3298 2862 
Q 3072 2584 2669 2484 
Q 3125 2378 3379 2068 
Q 3634 1759 3634 1313 
Q 3634 634 3220 271 
Q 2806 -91 2034 -91 
Q 1263 -91 848 271 
Q 434 634 434 1313 
Q 434 1759 690 2068 
Q 947 2378 1403 2484 
z
M 1172 3481 
Q 1172 3119 1398 2916 
Q 1625 2713 2034 2713 
Q 2441 2713 2670 2916 
Q 2900 3119 2900 3481 
Q 2900 3844 2670 4047 
Q 2441 4250 2034 4250 
Q 1625 4250 1398 4047 
Q 1172 3844 1172 3481 
z
" transform="scale(0.015625)"/>
       </defs>
       <use xlink:href="#DejaVuSans-30"/>
       <use xlink:href="#DejaVuSans-2e" x="63.623047"/>
       <use xlink:href="#DejaVuSans-38" x="95.410156"/>
      </g>
     </g>
    </g>
    <g id="ytick_6">
     <g id="line2d_47">
      <path d="M 62.208 6.330297 
L 460.8 6.330297 
" clip-path="url(#p88157f88e7)" style="fill: none; stroke: #b0b0b0; stroke-width: 0.8; stroke-linecap: square"/>
     </g>
     <g id="line2d_48">
      <g>
       <use xlink:href="#mede4504d39" x="62.208" y="6.330297" style="stroke: #000000; stroke-width: 0.8"/>
      </g>
     </g>
     <g id="text_10">
      <!-- 1.0 -->
      <g transform="translate(29.763 12.409047)scale(0.16 -0.16)">
       <use xlink:href="#DejaVuSans-31"/>
       <use xlink:href="#DejaVuSans-2e" x="63.623047"/>
       <use xlink:href="#DejaVuSans-30" x="95.410156"/>
      </g>
     </g>
    </g>
    <g id="text_11">
     <!-- proportion of trials -->
     <g transform="translate(21.603625 241.61425)rotate(-90)scale(0.2 -0.2)">
      <defs>
       <path id="DejaVuSans-70" d="M 1159 525 
L 1159 -1331 
L 581 -1331 
L 581 3500 
L 1159 3500 
L 1159 2969 
Q 1341 3281 1617 3432 
Q 1894 3584 2278 3584 
Q 2916 3584 3314 3078 
Q 3713 2572 3713 1747 
Q 3713 922 3314 415 
Q 2916 -91 2278 -91 
Q 1894 -91 1617 61 
Q 1341 213 1159 525 
z
M 3116 1747 
Q 3116 2381 2855 2742 
Q 2594 3103 2138 3103 
Q 1681 3103 1420 2742 
Q 1159 2381 1159 1747 
Q 1159 1113 1420 752 
Q 1681 391 2138 391 
Q 2594 391 2855 752 
Q 3116 1113 3116 1747 
z
" transform="scale(0.015625)"/>
       <path id="DejaVuSans-72" d="M 2631 2963 
Q 2534 3019 2420 3045 
Q 2306 3072 2169 3072 
Q 1681 3072 1420 2755 
Q 1159 2438 1159 1844 
L 1159 0 
L 581 0 
L 581 3500 
L 1159 3500 
L 1159 2956 
Q 1341 3275 1631 3429 
Q 1922 3584 2338 3584 
Q 2397 3584 2469 3576 
Q 2541 3569 2628 3553 
L 2631 2963 
z
" transform="scale(0.015625)"/>
       <path id="DejaVuSans-74" d="M 1172 4494 
L 1172 3500 
L 2356 3500 
L 2356 3053 
L 1172 3053 
L 1172 1153 
Q 1172 725 1289 603 
Q 1406 481 1766 481 
L 2356 481 
L 2356 0 
L 1766 0 
Q 1100 0 847 248 
Q 594 497 594 1153 
L 594 3053 
L 172 3053 
L 172 3500 
L 594 3500 
L 594 4494 
L 1172 4494 
z
" transform="scale(0.015625)"/>
       <path id="DejaVuSans-69" d="M 603 3500 
L 1178 3500 
L 1178 0 
L 603 0 
L 603 3500 
z
M 603 4863 
L 1178 4863 
L 1178 4134 
L 603 4134 
L 603 4863 
z
" transform="scale(0.015625)"/>
       <path id="DejaVuSans-6e" d="M 3513 2113 
L 3513 0 
L 2938 0 
L 2938 2094 
Q 2938 2591 2744 2837 
Q 2550 3084 2163 3084 
Q 1697 3084 1428 2787 
Q 1159 2491 1159 1978 
L 1159 0 
L 581 0 
L 581 3500 
L 1159 3500 
L 1159 2956 
Q 1366 3272 1645 3428 
Q 1925 3584 2291 3584 
Q 2894 3584 3203 3211 
Q 3513 2838 3513 2113 
z
" transform="scale(0.015625)"/>
      </defs>
      <use xlink:href="#DejaVuSans-70"/>
      <use xlink:href="#DejaVuSans-72" x="63.476562"/>
      <use xlink:href="#DejaVuSans-6f" x="102.339844"/>
      <use xlink:href="#DejaVuSans-70" x="163.521484"/>
      <use xlink:href="#DejaVuSans-6f" x="226.998047"/>
      <use xlink:href="#DejaVuSans-72" x="288.179688"/>
      <use xlink:href="#DejaVuSans-74" x="329.292969"/>
      <use xlink:href="#DejaVuSans-69" x="368.501953"/>
      <use xlink:href="#DejaVuSans-6f" x="396.285156"/>
      <use xlink:href="#DejaVuSans-6e" x="457.466797"/>
      <use xlink:href="#DejaVuSans-20" x="520.845703"/>
      <use xlink:href="#DejaVuSans-6f" x="552.632812"/>
      <use xlink:href="#DejaVuSans-66" x="613.814453"/>
      <use xlink:href="#DejaVuSans-20" x="649.019531"/>
      <use xlink:href="#DejaVuSans-74" x="680.806641"/>
      <use xlink:href="#DejaVuSans-72" x="720.015625"/>
      <use xlink:href="#DejaVuSans-69" x="761.128906"/>
      <use xlink:href="#DejaVuSans-61" x="788.912109"/>
      <use xlink:href="#DejaVuSans-6c" x="850.191406"/>
      <use xlink:href="#DejaVuSans-73" x="877.974609"/>
     </g>
    </g>
   </g>
   <g id="line2d_49">
    <path d="M -1 232.441663 
L 54.922088 232.441663 
L 54.922088 228.609267 
L 58.767849 228.609267 
L 58.767849 224.776871 
L 62.208 224.776871 
L 62.208 220.944475 
L 66.771399 220.944475 
L 66.771399 217.112079 
L 70.774516 217.112079 
L 70.774516 213.279683 
L 76.517563 213.279683 
L 76.517563 209.447287 
L 101.191038 209.447287 
L 101.191038 205.614891 
L 105.797428 205.614891 
L 105.797428 201.782495 
L 110.211051 201.782495 
L 110.211051 197.950099 
L 117.271002 197.950099 
L 117.271002 194.117703 
L 118.748685 194.117703 
L 118.748685 190.285307 
L 119.036363 190.285307 
L 119.036363 186.452911 
L 122.04404 186.452911 
L 122.04404 182.620515 
L 125.976756 182.620515 
L 125.976756 178.788119 
L 150.629172 178.788119 
L 150.629172 174.955723 
L 155.097793 174.955723 
L 155.097793 171.123327 
L 156.400294 171.123327 
L 156.400294 167.290931 
L 157.121898 167.290931 
L 157.121898 163.458535 
L 161.302951 163.458535 
L 161.302951 159.626139 
L 162.45955 159.626139 
L 162.45955 155.793743 
L 163.503285 155.793743 
L 163.503285 151.961347 
L 164.868442 151.961347 
L 164.868442 148.12895 
L 168.273389 148.12895 
L 168.273389 140.464158 
L 169.760609 140.464158 
L 169.82113 132.799366 
L 171.586492 132.799366 
L 171.586492 128.96697 
L 178.665531 128.96697 
L 178.665531 125.134574 
L 181.406485 125.134574 
L 181.406485 121.302178 
L 186.500216 121.302178 
L 186.500216 117.469782 
L 190.232913 117.469782 
L 190.232913 113.637386 
L 192.210478 113.637386 
L 192.210478 109.80499 
L 193.815138 109.80499 
L 193.815138 105.972594 
L 194.389998 105.972594 
L 194.389998 102.140198 
L 196.110342 102.140198 
L 196.13736 94.475406 
L 196.990339 94.475406 
L 196.990339 90.64301 
L 197.924036 90.64301 
L 197.924036 86.810614 
L 201.135828 86.810614 
L 201.135828 82.978218 
L 202.184771 82.978218 
L 202.184771 79.145822 
L 205.081853 79.145822 
L 205.081853 75.313426 
L 206.013073 75.313426 
L 206.013073 71.48103 
L 207.533823 71.48103 
L 207.533823 67.648634 
L 212.145226 67.648634 
L 212.145226 63.816238 
L 286.936426 63.816238 
L 287.013339 52.31905 
L 287.086739 52.31905 
L 287.086739 48.486653 
L 287.337386 48.486653 
L 287.337386 44.654257 
L 287.494098 44.654257 
L 287.494098 40.821861 
L 287.95328 40.821861 
L 287.95328 36.989465 
L 288.227974 36.989465 
L 288.250493 29.324673 
L 289.870647 29.324673 
L 289.870647 25.492277 
L 307.04719 25.492277 
L 307.04719 21.659881 
L 307.456027 21.659881 
L 307.456027 17.827485 
L 308.731789 17.827485 
L 308.838953 10.162693 
L 309.149875 10.162693 
L 309.149875 6.330297 
L 309.149875 6.330297 
L 460.8 6.330297 
L 460.8 6.330297 
" clip-path="url(#p88157f88e7)" style="fill: none; stroke: #000000; stroke-width: 1.5; stroke-linecap: square"/>
   </g>
   <g id="line2d_50">
    <path clip-path="url(#p88157f88e7)" style="fill: none; stroke: #000000; stroke-width: 1.5; stroke-linecap: square"/>
   </g>
   <g id="line2d_51">
    <path d="M 202.674771 293.76 
L 202.674771 289.927604 
L 203.633248 289.927604 
L 203.633248 286.095208 
L 205.792794 286.095208 
L 205.792794 282.262812 
L 209.43925 282.262812 
L 209.43925 278.430416 
L 211.069084 278.430416 
L 211.069084 274.59802 
L 212.588797 274.59802 
L 212.588797 270.765624 
L 214.243183 270.765624 
L 214.243183 266.933228 
L 269.632013 266.933228 
L 269.632013 263.100832 
L 270.327016 263.100832 
L 270.327016 259.268436 
L 271.775515 259.268436 
L 271.831396 247.771248 
L 272.29338 247.771248 
L 272.29338 243.938851 
L 272.50502 243.938851 
L 272.50502 240.106455 
L 273.310185 240.106455 
L 273.310185 236.274059 
L 274.09101 236.274059 
L 274.09101 232.441663 
L 274.259277 232.441663 
L 274.259277 228.609267 
L 275.234303 228.609267 
L 275.294137 220.944475 
L 275.764186 220.944475 
L 275.764186 217.112079 
L 276.108837 217.112079 
L 276.108837 213.279683 
L 276.812529 213.279683 
L 276.812529 209.447287 
L 276.924181 209.447287 
L 276.924181 205.614891 
L 278.169421 205.614891 
L 278.169421 201.782495 
L 278.291808 201.782495 
L 278.291808 197.950099 
L 278.591463 197.950099 
L 278.591463 194.117703 
L 295.515173 194.117703 
L 295.515173 190.285307 
L 295.921959 190.285307 
L 295.921959 186.452911 
L 297.150743 186.452911 
L 297.150743 182.620515 
L 297.410486 182.620515 
L 297.410486 178.788119 
L 299.040425 178.788119 
L 299.040425 174.955723 
L 299.527843 174.955723 
L 299.527843 171.123327 
L 299.865321 171.123327 
L 299.865321 167.290931 
L 300.258397 167.290931 
L 300.258397 163.458535 
L 300.438233 163.458535 
L 300.438233 159.626139 
L 302.633318 159.626139 
L 302.633318 155.793743 
L 315.130722 155.793743 
L 315.130722 151.961347 
L 316.183698 151.961347 
L 316.183698 148.12895 
L 316.453924 148.12895 
L 316.453924 144.296554 
L 317.066354 144.296554 
L 317.066354 140.464158 
L 317.292425 140.464158 
L 317.292425 136.631762 
L 317.418371 136.631762 
L 317.418371 132.799366 
L 318.701836 132.799366 
L 318.701836 128.96697 
L 330.599339 128.96697 
L 330.599339 125.134574 
L 331.724282 125.134574 
L 331.724282 121.302178 
L 332.927378 121.302178 
L 332.927378 117.469782 
L 333.406799 117.469782 
L 333.406799 113.637386 
L 337.075516 113.637386 
L 337.075516 109.80499 
L 345.177385 109.80499 
L 345.177385 105.972594 
L 346.629059 105.972594 
L 346.629059 102.140198 
L 354.214036 102.140198 
L 354.214036 98.307802 
L 354.363609 98.307802 
L 354.363609 94.475406 
L 354.960562 94.475406 
L 354.960562 90.64301 
L 355.38096 90.64301 
L 355.38096 86.810614 
L 355.526318 86.810614 
L 355.526318 82.978218 
L 355.795811 82.978218 
L 355.795811 79.145822 
L 359.422524 79.145822 
L 359.422524 75.313426 
L 374.170047 75.313426 
L 374.170047 71.48103 
L 374.773652 71.48103 
L 374.773652 67.648634 
L 375.280504 67.648634 
L 375.280504 63.816238 
L 375.394405 63.816238 
L 375.394405 59.983842 
L 375.903639 59.983842 
L 375.903639 56.151446 
L 383.470851 56.151446 
L 383.470851 52.31905 
L 384.022817 52.31905 
L 384.022817 48.486653 
L 385.275185 48.486653 
L 385.275185 44.654257 
L 387.122523 44.654257 
L 387.122523 40.821861 
L 387.395206 40.821861 
L 387.395206 36.989465 
L 394.557863 36.989465 
L 394.557863 33.157069 
L 396.090331 33.157069 
L 396.090331 29.324673 
L 397.797695 29.324673 
L 397.797695 25.492277 
L 398.146573 25.492277 
L 398.146573 21.659881 
L 400.933056 21.659881 
L 400.933056 17.827485 
L 409.12661 17.827485 
L 409.12661 13.995089 
L 411.810733 13.995089 
L 411.810733 10.162693 
L 412.793514 10.162693 
L 412.793514 6.330297 
L 412.793514 6.330297 
L 460.8 6.330297 
L 460.8 6.330297 
" clip-path="url(#p88157f88e7)" style="fill: none; stroke: #00bfbf; stroke-width: 1.5; stroke-linecap: square"/>
   </g>
   <g id="line2d_52">
    <path clip-path="url(#p88157f88e7)" style="fill: none; stroke: #00bfbf; stroke-width: 1.5; stroke-linecap: square"/>
   </g>
   <g id="line2d_53">
    <path d="M 279.218711 293.76 
L 279.218711 289.927604 
L 280.513666 289.927604 
L 280.513666 286.095208 
L 300.383942 286.095208 
L 300.383942 282.262812 
L 302.154731 282.262812 
L 302.154731 278.430416 
L 302.295176 278.430416 
L 302.295176 274.59802 
L 303.207871 274.59802 
L 303.207871 270.765624 
L 303.380307 270.765624 
L 303.380307 266.933228 
L 303.955895 266.933228 
L 304.0254 259.268436 
L 304.723108 259.268436 
L 304.723108 255.43604 
L 305.025593 255.43604 
L 305.025593 251.603644 
L 305.159988 251.603644 
L 305.159988 247.771248 
L 317.381495 247.771248 
L 317.381495 243.938851 
L 317.594276 243.938851 
L 317.594276 240.106455 
L 320.166251 240.106455 
L 320.230319 232.441663 
L 320.34665 232.441663 
L 320.34665 228.609267 
L 320.766913 228.609267 
L 320.871879 220.944475 
L 321.918299 220.944475 
L 321.918299 217.112079 
L 322.196927 217.112079 
L 322.196927 213.279683 
L 322.400394 213.279683 
L 322.420163 205.614891 
L 323.208981 205.614891 
L 323.208981 201.782495 
L 324.674258 201.782495 
L 324.674258 197.950099 
L 325.014496 197.950099 
L 325.018667 190.285307 
L 325.538574 190.285307 
L 325.538574 186.452911 
L 326.2764 186.452911 
L 326.2764 182.620515 
L 326.768409 182.620515 
L 326.768409 178.788119 
L 327.620165 178.788119 
L 327.620165 174.955723 
L 333.718685 174.955723 
L 333.718685 171.123327 
L 334.987257 171.123327 
L 334.987257 167.290931 
L 335.940399 167.290931 
L 335.940399 163.458535 
L 336.326615 163.458535 
L 336.326615 159.626139 
L 340.608712 159.626139 
L 340.608712 155.793743 
L 342.129677 155.793743 
L 342.129677 151.961347 
L 342.635205 151.961347 
L 342.635205 148.12895 
L 343.363363 148.12895 
L 343.363363 144.296554 
L 343.940379 144.296554 
L 343.940379 140.464158 
L 346.53072 140.464158 
L 346.615336 132.799366 
L 346.908179 132.799366 
L 346.908179 128.96697 
L 347.21322 128.96697 
L 347.21322 125.134574 
L 347.948989 125.134574 
L 347.948989 121.302178 
L 356.950475 121.302178 
L 356.950475 117.469782 
L 357.14892 117.469782 
L 357.14892 113.637386 
L 357.865516 113.637386 
L 357.927622 105.972594 
L 358.268236 105.972594 
L 358.268236 102.140198 
L 358.59396 102.140198 
L 358.59396 98.307802 
L 366.417009 98.307802 
L 366.417009 94.475406 
L 376.309048 94.475406 
L 376.309048 90.64301 
L 376.908674 90.64301 
L 376.908674 86.810614 
L 377.408629 86.810614 
L 377.408629 82.978218 
L 377.537076 82.978218 
L 377.537076 79.145822 
L 377.994133 79.145822 
L 377.994133 75.313426 
L 385.467765 75.313426 
L 385.467765 71.48103 
L 388.735698 71.48103 
L 388.735698 67.648634 
L 390.00038 67.648634 
L 390.00038 63.816238 
L 437.863477 63.816238 
L 437.863477 59.983842 
L 441.375508 59.983842 
L 441.375508 56.151446 
L 444.659477 56.151446 
L 444.659477 52.31905 
L 445.297513 52.31905 
L 445.297513 48.486653 
L 459.750723 48.486653 
L 459.750723 44.654257 
L 460.242806 44.654257 
L 460.242806 40.821861 
L 460.242806 40.821861 
L 460.8 40.821861 
L 460.8 40.821861 
" clip-path="url(#p88157f88e7)" style="fill: none; stroke: #bf00bf; stroke-width: 1.5; stroke-linecap: square"/>
   </g>
   <g id="line2d_54">
    <path clip-path="url(#p88157f88e7)" style="fill: none; stroke: #bf00bf; stroke-width: 1.5; stroke-linecap: square"/>
   </g>
   <g id="line2d_55">
    <path d="M 306.533202 293.76 
L 306.533202 289.927604 
L 310.252676 289.927604 
L 310.252676 286.095208 
L 320.029231 286.095208 
L 320.029231 282.262812 
L 320.400155 282.262812 
L 320.400155 278.430416 
L 322.629542 278.430416 
L 322.629542 274.59802 
L 323.073662 274.59802 
L 323.073662 270.765624 
L 323.217248 270.765624 
L 323.217248 266.933228 
L 323.448414 266.933228 
L 323.448414 263.100832 
L 326.523331 263.100832 
L 326.523331 259.268436 
L 327.098378 259.268436 
L 327.098378 255.43604 
L 327.22437 255.43604 
L 327.254087 247.771248 
L 327.346478 247.771248 
L 327.417295 240.106455 
L 327.475387 240.106455 
L 327.557506 232.441663 
L 328.066364 232.441663 
L 328.066364 228.609267 
L 328.256754 228.609267 
L 328.256754 224.776871 
L 328.47795 224.776871 
L 328.47795 220.944475 
L 329.831751 220.944475 
L 329.831751 217.112079 
L 330.128293 217.112079 
L 330.128293 213.279683 
L 330.471625 213.279683 
L 330.471625 209.447287 
L 330.702905 209.447287 
L 330.702905 205.614891 
L 331.348007 205.614891 
L 331.348007 201.782495 
L 337.468918 201.782495 
L 337.468918 197.950099 
L 338.545393 197.950099 
L 338.545393 194.117703 
L 339.582835 194.117703 
L 339.582835 190.285307 
L 339.918587 190.285307 
L 339.918587 186.452911 
L 343.989999 186.452911 
L 343.989999 182.620515 
L 345.472762 182.620515 
L 345.472762 178.788119 
L 345.697468 178.788119 
L 345.697468 174.955723 
L 346.488059 174.955723 
L 346.488059 171.123327 
L 346.843834 171.123327 
L 346.843834 167.290931 
L 349.918806 167.290931 
L 349.918806 163.458535 
L 350.483069 163.458535 
L 350.483069 159.626139 
L 352.605747 159.626139 
L 352.605747 155.793743 
L 352.939615 155.793743 
L 352.990354 140.464158 
L 353.14827 140.464158 
L 353.217599 132.799366 
L 353.398045 132.799366 
L 353.501084 125.134574 
L 353.643319 125.134574 
L 353.643319 121.302178 
L 360.420518 121.302178 
L 360.420518 117.469782 
L 360.580942 117.469782 
L 360.580942 113.637386 
L 361.087094 113.637386 
L 361.087094 109.80499 
L 361.263364 109.80499 
L 361.263364 105.972594 
L 361.576841 105.972594 
L 361.576841 102.140198 
L 361.88093 102.140198 
L 361.88093 98.307802 
L 369.23762 98.307802 
L 369.23762 94.475406 
L 379.103126 94.475406 
L 379.103126 90.64301 
L 379.495985 90.64301 
L 379.495985 86.810614 
L 380.072108 86.810614 
L 380.155363 79.145822 
L 380.619343 79.145822 
L 380.619343 75.313426 
L 387.85919 75.313426 
L 387.85919 71.48103 
L 390.589905 71.48103 
L 390.589905 67.648634 
L 391.993734 67.648634 
L 391.993734 63.816238 
L 438.65874 63.816238 
L 438.65874 59.983842 
L 442.103256 59.983842 
L 442.103256 56.151446 
L 445.348668 56.151446 
L 445.348668 52.31905 
L 445.966791 52.31905 
L 445.966791 48.486653 
L 460.539036 48.486653 
L 460.539036 44.654257 
L 460.797946 44.654257 
L 460.797946 40.821861 
L 460.8 40.821861 
" clip-path="url(#p88157f88e7)" style="fill: none; stroke: #ff0000; stroke-width: 3; stroke-linecap: square"/>
   </g>
   <g id="line2d_56">
    <path clip-path="url(#p88157f88e7)" style="fill: none; stroke: #ff0000; stroke-width: 3; stroke-linecap: square"/>
   </g>
   <g id="line2d_57">
    <path d="M 460.797946 293.76 
L 460.797946 3.456 
" clip-path="url(#p88157f88e7)" style="fill: none; stroke: #000000; stroke-width: 1.5; stroke-linecap: square"/>
   </g>
   <g id="patch_3">
    <path d="M 62.208 293.76 
L 62.208 3.456 
" style="fill: none; stroke: #000000; stroke-width: 0.8; stroke-linejoin: miter; stroke-linecap: square"/>
   </g>
   <g id="patch_4">
    <path d="M 460.8 293.76 
L 460.8 3.456 
" style="fill: none; stroke: #000000; stroke-width: 0.8; stroke-linejoin: miter; stroke-linecap: square"/>
   </g>
   <g id="patch_5">
    <path d="M 62.208 293.76 
L 460.8 293.76 
" style="fill: none; stroke: #000000; stroke-width: 0.8; stroke-linejoin: miter; stroke-linecap: square"/>
   </g>
   <g id="patch_6">
    <path d="M 62.208 3.456 
L 460.8 3.456 
" style="fill: none; stroke: #000000; stroke-width: 0.8; stroke-linejoin: miter; stroke-linecap: square"/>
   </g>
   <g id="text_12">
    <!-- {f15-f19}, 20-D -->
    <g transform="translate(182.2915 24.458955)scale(0.2 -0.2)">
     <defs>
      <path id="DejaVuSans-7b" d="M 3272 -594 
L 3272 -1044 
L 3078 -1044 
Q 2300 -1044 2036 -812 
Q 1772 -581 1772 109 
L 1772 856 
Q 1772 1328 1603 1509 
Q 1434 1691 991 1691 
L 800 1691 
L 800 2138 
L 991 2138 
Q 1438 2138 1605 2317 
Q 1772 2497 1772 2963 
L 1772 3713 
Q 1772 4403 2036 4633 
Q 2300 4863 3078 4863 
L 3272 4863 
L 3272 4416 
L 3059 4416 
Q 2619 4416 2484 4278 
Q 2350 4141 2350 3700 
L 2350 2925 
Q 2350 2434 2208 2212 
Q 2066 1991 1722 1913 
Q 2069 1828 2209 1606 
Q 2350 1384 2350 897 
L 2350 122 
Q 2350 -319 2484 -456 
Q 2619 -594 3059 -594 
L 3272 -594 
z
" transform="scale(0.015625)"/>
      <path id="DejaVuSans-35" d="M 691 4666 
L 3169 4666 
L 3169 4134 
L 1269 4134 
L 1269 2991 
Q 1406 3038 1543 3061 
Q 1681 3084 1819 3084 
Q 2600 3084 3056 2656 
Q 3513 2228 3513 1497 
Q 3513 744 3044 326 
Q 2575 -91 1722 -91 
Q 1428 -91 1123 -41 
Q 819 9 494 109 
L 494 744 
Q 775 591 1075 516 
Q 1375 441 1709 441 
Q 2250 441 2565 725 
Q 2881 1009 2881 1497 
Q 2881 1984 2565 2268 
Q 2250 2553 1709 2553 
Q 1456 2553 1204 2497 
Q 953 2441 691 2322 
L 691 4666 
z
" transform="scale(0.015625)"/>
      <path id="DejaVuSans-2d" d="M 313 2009 
L 1997 2009 
L 1997 1497 
L 313 1497 
L 313 2009 
z
" transform="scale(0.015625)"/>
      <path id="DejaVuSans-39" d="M 703 97 
L 703 672 
Q 941 559 1184 500 
Q 1428 441 1663 441 
Q 2288 441 2617 861 
Q 2947 1281 2994 2138 
Q 2813 1869 2534 1725 
Q 2256 1581 1919 1581 
Q 1219 1581 811 2004 
Q 403 2428 403 3163 
Q 403 3881 828 4315 
Q 1253 4750 1959 4750 
Q 2769 4750 3195 4129 
Q 3622 3509 3622 2328 
Q 3622 1225 3098 567 
Q 2575 -91 1691 -91 
Q 1453 -91 1209 -44 
Q 966 3 703 97 
z
M 1959 2075 
Q 2384 2075 2632 2365 
Q 2881 2656 2881 3163 
Q 2881 3666 2632 3958 
Q 2384 4250 1959 4250 
Q 1534 4250 1286 3958 
Q 1038 3666 1038 3163 
Q 1038 2656 1286 2365 
Q 1534 2075 1959 2075 
z
" transform="scale(0.015625)"/>
      <path id="DejaVuSans-7d" d="M 800 -594 
L 1019 -594 
Q 1456 -594 1589 -459 
Q 1722 -325 1722 122 
L 1722 897 
Q 1722 1384 1862 1606 
Q 2003 1828 2350 1913 
Q 2003 1991 1862 2212 
Q 1722 2434 1722 2925 
L 1722 3700 
Q 1722 4144 1589 4280 
Q 1456 4416 1019 4416 
L 800 4416 
L 800 4863 
L 997 4863 
Q 1775 4863 2036 4633 
Q 2297 4403 2297 3713 
L 2297 2963 
Q 2297 2497 2465 2317 
Q 2634 2138 3078 2138 
L 3272 2138 
L 3272 1691 
L 3078 1691 
Q 2634 1691 2465 1509 
Q 2297 1328 2297 856 
L 2297 109 
Q 2297 -581 2036 -812 
Q 1775 -1044 997 -1044 
L 800 -1044 
L 800 -594 
z
" transform="scale(0.015625)"/>
      <path id="DejaVuSans-2c" d="M 750 794 
L 1409 794 
L 1409 256 
L 897 -744 
L 494 -744 
L 750 256 
L 750 794 
z
" transform="scale(0.015625)"/>
     </defs>
     <use xlink:href="#DejaVuSans-7b"/>
     <use xlink:href="#DejaVuSans-66" x="63.623047"/>
     <use xlink:href="#DejaVuSans-31" x="98.828125"/>
     <use xlink:href="#DejaVuSans-35" x="162.451172"/>
     <use xlink:href="#DejaVuSans-2d" x="226.074219"/>
     <use xlink:href="#DejaVuSans-66" x="262.158203"/>
     <use xlink:href="#DejaVuSans-31" x="297.363281"/>
     <use xlink:href="#DejaVuSans-39" x="360.986328"/>
     <use xlink:href="#DejaVuSans-7d" x="424.609375"/>
     <use xlink:href="#DejaVuSans-2c" x="488.232422"/>
     <use xlink:href="#DejaVuSans-20" x="520.019531"/>
     <use xlink:href="#DejaVuSans-32" x="551.806641"/>
     <use xlink:href="#DejaVuSans-30" x="615.429688"/>
     <use xlink:href="#DejaVuSans-2d" x="679.052734"/>
     <use xlink:href="#DejaVuSans-44" x="715.136719"/>
    </g>
   </g>
   <g id="text_13">
    <!-- absolute targets -->
    <g transform="translate(62.208 609.932673)scale(0.14 -0.14)">
     <defs>
      <path id="DejaVuSans-62" d="M 3116 1747 
Q 3116 2381 2855 2742 
Q 2594 3103 2138 3103 
Q 1681 3103 1420 2742 
Q 1159 2381 1159 1747 
Q 1159 1113 1420 752 
Q 1681 391 2138 391 
Q 2594 391 2855 752 
Q 3116 1113 3116 1747 
z
M 1159 2969 
Q 1341 3281 1617 3432 
Q 1894 3584 2278 3584 
Q 2916 3584 3314 3078 
Q 3713 2572 3713 1747 
Q 3713 922 3314 415 
Q 2916 -91 2278 -91 
Q 1894 -91 1617 61 
Q 1341 213 1159 525 
L 1159 0 
L 581 0 
L 581 4863 
L 1159 4863 
L 1159 2969 
z
" transform="scale(0.015625)"/>
      <path id="DejaVuSans-75" d="M 544 1381 
L 544 3500 
L 1119 3500 
L 1119 1403 
Q 1119 906 1312 657 
Q 1506 409 1894 409 
Q 2359 409 2629 706 
Q 2900 1003 2900 1516 
L 2900 3500 
L 3475 3500 
L 3475 0 
L 2900 0 
L 2900 538 
Q 2691 219 2414 64 
Q 2138 -91 1772 -91 
Q 1169 -91 856 284 
Q 544 659 544 1381 
z
M 1991 3584 
L 1991 3584 
z
" transform="scale(0.015625)"/>
      <path id="DejaVuSans-65" d="M 3597 1894 
L 3597 1613 
L 953 1613 
Q 991 1019 1311 708 
Q 1631 397 2203 397 
Q 2534 397 2845 478 
Q 3156 559 3463 722 
L 3463 178 
Q 3153 47 2828 -22 
Q 2503 -91 2169 -91 
Q 1331 -91 842 396 
Q 353 884 353 1716 
Q 353 2575 817 3079 
Q 1281 3584 2069 3584 
Q 2775 3584 3186 3129 
Q 3597 2675 3597 1894 
z
M 3022 2063 
Q 3016 2534 2758 2815 
Q 2500 3097 2075 3097 
Q 1594 3097 1305 2825 
Q 1016 2553 972 2059 
L 3022 2063 
z
" transform="scale(0.015625)"/>
     </defs>
     <use xlink:href="#DejaVuSans-61"/>
     <use xlink:href="#DejaVuSans-62" x="61.279297"/>
     <use xlink:href="#DejaVuSans-73" x="124.755859"/>
     <use xlink:href="#DejaVuSans-6f" x="176.855469"/>
     <use xlink:href="#DejaVuSans-6c" x="238.037109"/>
     <use xlink:href="#DejaVuSans-75" x="265.820312"/>
     <use xlink:href="#DejaVuSans-74" x="329.199219"/>
     <use xlink:href="#DejaVuSans-65" x="368.408203"/>
     <use xlink:href="#DejaVuSans-20" x="429.931641"/>
     <use xlink:href="#DejaVuSans-74" x="461.71875"/>
     <use xlink:href="#DejaVuSans-61" x="500.927734"/>
     <use xlink:href="#DejaVuSans-72" x="562.207031"/>
     <use xlink:href="#DejaVuSans-67" x="601.570312"/>
     <use xlink:href="#DejaVuSans-65" x="665.046875"/>
     <use xlink:href="#DejaVuSans-74" x="726.570312"/>
     <use xlink:href="#DejaVuSans-73" x="765.779297"/>
    </g>
   </g>
   <g id="text_14">
    <!-- v2.6.3 -->
    <g style="fill: #808080" transform="translate(245.82275 288.777272)scale(0.1 -0.1)">
     <defs>
      <path id="DejaVuSans-33" d="M 2597 2516 
Q 3050 2419 3304 2112 
Q 3559 1806 3559 1356 
Q 3559 666 3084 287 
Q 2609 -91 1734 -91 
Q 1441 -91 1130 -33 
Q 819 25 488 141 
L 488 750 
Q 750 597 1062 519 
Q 1375 441 1716 441 
Q 2309 441 2620 675 
Q 2931 909 2931 1356 
Q 2931 1769 2642 2001 
Q 2353 2234 1838 2234 
L 1294 2234 
L 1294 2753 
L 1863 2753 
Q 2328 2753 2575 2939 
Q 2822 3125 2822 3475 
Q 2822 3834 2567 4026 
Q 2313 4219 1838 4219 
Q 1578 4219 1281 4162 
Q 984 4106 628 3988 
L 628 4550 
Q 988 4650 1302 4700 
Q 1616 4750 1894 4750 
Q 2613 4750 3031 4423 
Q 3450 4097 3450 3541 
Q 3450 3153 3228 2886 
Q 3006 2619 2597 2516 
z
" transform="scale(0.015625)"/>
     </defs>
     <use xlink:href="#DejaVuSans-76"/>
     <use xlink:href="#DejaVuSans-32" x="59.179688"/>
     <use xlink:href="#DejaVuSans-2e" x="122.802734"/>
     <use xlink:href="#DejaVuSans-36" x="154.589844"/>
     <use xlink:href="#DejaVuSans-2e" x="218.212891"/>
     <use xlink:href="#DejaVuSans-33" x="250"/>
    </g>
   </g>
   <g id="legend_1">
    <g id="patch_7">
     <path d="M 76.208 283.76 
L 205.429875 283.76 
Q 209.429875 283.76 209.429875 279.76 
L 209.429875 164.335 
Q 209.429875 160.335 205.429875 160.335 
L 76.208 160.335 
Q 72.208 160.335 72.208 164.335 
L 72.208 279.76 
Q 72.208 283.76 76.208 283.76 
z
" style="fill: #ffffff; opacity: 0.2; stroke: #cccccc; stroke-linejoin: miter"/>
    </g>
    <g id="line2d_58">
     <path d="M 80.208 176.531875 
L 80.208 176.531875 
L 100.208 176.531875 
L 100.208 176.531875 
L 120.208 176.531875 
" style="fill: none; stroke: #000000; stroke-width: 1.5; stroke-linecap: square"/>
    </g>
    <g id="text_15">
     <!-- 1: 5/5 -->
     <g transform="translate(136.208 183.531875)scale(0.2 -0.2)">
      <defs>
       <path id="DejaVuSans-3a" d="M 750 794 
L 1409 794 
L 1409 0 
L 750 0 
L 750 794 
z
M 750 3309 
L 1409 3309 
L 1409 2516 
L 750 2516 
L 750 3309 
z
" transform="scale(0.015625)"/>
      </defs>
      <use xlink:href="#DejaVuSans-31"/>
      <use xlink:href="#DejaVuSans-3a" x="63.623047"/>
      <use xlink:href="#DejaVuSans-20" x="97.314453"/>
      <use xlink:href="#DejaVuSans-35" x="129.101562"/>
      <use xlink:href="#DejaVuSans-2f" x="192.724609"/>
      <use xlink:href="#DejaVuSans-35" x="226.416016"/>
     </g>
    </g>
    <g id="line2d_59">
     <path d="M 80.208 205.888125 
L 80.208 205.888125 
L 100.208 205.888125 
L 100.208 205.888125 
L 120.208 205.888125 
" style="fill: none; stroke: #00bfbf; stroke-width: 1.5; stroke-linecap: square"/>
    </g>
    <g id="text_16">
     <!-- -1: 5/5 -->
     <g transform="translate(136.208 212.888125)scale(0.2 -0.2)">
      <use xlink:href="#DejaVuSans-2d"/>
      <use xlink:href="#DejaVuSans-31" x="36.083984"/>
      <use xlink:href="#DejaVuSans-3a" x="99.707031"/>
      <use xlink:href="#DejaVuSans-20" x="133.398438"/>
      <use xlink:href="#DejaVuSans-35" x="165.185547"/>
      <use xlink:href="#DejaVuSans-2f" x="228.808594"/>
      <use xlink:href="#DejaVuSans-35" x="262.5"/>
     </g>
    </g>
    <g id="line2d_60">
     <path d="M 80.208 235.244375 
L 80.208 235.244375 
L 100.208 235.244375 
L 100.208 235.244375 
L 120.208 235.244375 
" style="fill: none; stroke: #bf00bf; stroke-width: 1.5; stroke-linecap: square"/>
    </g>
    <g id="text_17">
     <!-- -4: 5/5 -->
     <g transform="translate(136.208 242.244375)scale(0.2 -0.2)">
      <use xlink:href="#DejaVuSans-2d"/>
      <use xlink:href="#DejaVuSans-34" x="36.083984"/>
      <use xlink:href="#DejaVuSans-3a" x="99.707031"/>
      <use xlink:href="#DejaVuSans-20" x="133.398438"/>
      <use xlink:href="#DejaVuSans-35" x="165.185547"/>
      <use xlink:href="#DejaVuSans-2f" x="228.808594"/>
      <use xlink:href="#DejaVuSans-35" x="262.5"/>
     </g>
    </g>
    <g id="line2d_61">
     <path d="M 80.208 264.600625 
L 80.208 264.600625 
L 100.208 264.600625 
L 100.208 264.600625 
L 120.208 264.600625 
" style="fill: none; stroke: #ff0000; stroke-width: 3; stroke-linecap: square"/>
    </g>
    <g id="text_18">
     <!-- -8: 5/5 -->
     <g transform="translate(136.208 271.600625)scale(0.2 -0.2)">
      <use xlink:href="#DejaVuSans-2d"/>
      <use xlink:href="#DejaVuSans-38" x="36.083984"/>
      <use xlink:href="#DejaVuSans-3a" x="99.707031"/>
      <use xlink:href="#DejaVuSans-20" x="133.398438"/>
      <use xlink:href="#DejaVuSans-35" x="165.185547"/>
      <use xlink:href="#DejaVuSans-2f" x="228.808594"/>
      <use xlink:href="#DejaVuSans-35" x="262.5"/>
     </g>
    </g>
   </g>
  </g>
 </g>
 <defs>
  <clipPath id="p88157f88e7">
   <rect x="62.208" y="3.456" width="398.592" height="290.304"/>
  </clipPath>
 </defs>
</svg>
