<?xml version="1.0" encoding="utf-8" standalone="no"?>
<!DOCTYPE svg PUBLIC "-//W3C//DTD SVG 1.1//EN"
  "http://www.w3.org/Graphics/SVG/1.1/DTD/svg11.dtd">
<svg xmlns:xlink="http://www.w3.org/1999/xlink" width="460.8pt" height="345.6pt" viewBox="0 0 460.8 345.6" xmlns="http://www.w3.org/2000/svg" version="1.1">
 <metadata>
  <rdf:RDF xmlns:dc="http://purl.org/dc/elements/1.1/" xmlns:cc="http://creativecommons.org/ns#" xmlns:rdf="http://www.w3.org/1999/02/22-rdf-syntax-ns#">
   <cc:Work>
    <dc:type rdf:resource="http://purl.org/dc/dcmitype/StillImage"/>
    <dc:date>2023-04-07T14:45:02.272576</dc:date>
    <dc:format>image/svg+xml</dc:format>
    <dc:creator>
     <cc:Agent>
      <dc:title>Matplotlib v3.5.2, https://matplotlib.org/</dc:title>
     </cc:Agent>
    </dc:creator>
   </cc:Work>
  </rdf:RDF>
 </metadata>
 <defs>
  <style type="text/css">*{stroke-linejoin: round; stroke-linecap: butt}</style>
 </defs>
 <g id="figure_1">
  <g id="patch_1">
   <path d="M 0 345.6 
L 460.8 345.6 
L 460.8 0 
L 0 0 
z
" style="fill: #ffffff"/>
  </g>
  <g id="axes_1">
   <g id="patch_2">
    <path d="M 62.208 293.76 
L 460.8 293.76 
L 460.8 3.456 
L 62.208 3.456 
z
" style="fill: #ffffff"/>
   </g>
   <g id="line2d_1"/>
   <g id="line2d_2">
    <path d="M 378.926666 293.76 
L 378.926666 282.262812 
L 383.018508 282.262812 
L 383.018508 270.765624 
L 383.018508 270.765624 
L 383.018508 270.765624 
L 460.8 270.765624 
" clip-path="url(#pf1ff101641)" style="fill: none; stroke: #f5deb3; stroke-width: 1.5; stroke-linecap: square"/>
   </g>
   <g id="line2d_3"/>
   <g id="line2d_4"/>
   <g id="line2d_5"/>
   <g id="line2d_6"/>
   <g id="line2d_7">
    <path d="M 343.447062 293.76 
L 343.447062 289.927604 
L 367.828481 289.927604 
L 367.828481 286.095208 
L 373.808881 286.095208 
L 373.808881 282.262812 
L 374.324338 282.262812 
L 374.324338 278.430416 
L 375.010152 278.430416 
L 375.010152 274.59802 
L 379.52155 274.59802 
L 379.52155 270.765624 
L 379.736169 270.765624 
L 379.736169 266.933228 
L 382.011561 266.933228 
L 382.011561 263.100832 
L 387.688253 263.100832 
L 387.688253 259.268436 
L 392.866501 259.268436 
L 392.866501 255.43604 
L 393.242472 255.43604 
L 393.242472 251.603644 
L 394.550912 251.603644 
L 394.550912 247.771248 
L 404.870565 247.771248 
L 404.870565 243.938851 
L 409.530521 243.938851 
L 409.530521 240.106455 
L 412.571803 240.106455 
L 412.571803 236.274059 
L 416.233777 236.274059 
L 416.233777 232.441663 
L 417.955938 232.441663 
L 417.955938 228.609267 
L 419.311869 228.609267 
L 419.311869 224.776871 
L 422.849782 224.776871 
L 422.897596 217.112079 
L 422.997052 217.112079 
L 422.997052 213.279683 
L 424.197038 213.279683 
L 424.197038 209.447287 
L 428.538193 209.447287 
L 428.538193 205.614891 
L 433.186373 205.614891 
L 433.186373 201.782495 
L 442.323497 201.782495 
L 442.323497 197.950099 
L 442.861197 197.950099 
L 442.861197 194.117703 
L 446.306194 194.117703 
L 446.306194 190.285307 
L 450.847273 190.285307 
L 450.847273 186.452911 
L 453.197616 186.452911 
L 453.197616 182.620515 
L 455.593953 182.620515 
L 455.593953 178.788119 
L 460.592403 178.788119 
L 460.592403 174.955723 
L 461.8 174.955723 
L 461.8 174.955723 
" clip-path="url(#pf1ff101641)" style="fill: none; stroke: #f5deb3; stroke-width: 1.5; stroke-linecap: square"/>
   </g>
   <g id="line2d_8">
    <path d="M 361.346991 293.76 
L 361.346991 289.927604 
L 362.748232 289.927604 
L 362.748232 286.095208 
L 363.178757 286.095208 
L 363.178757 282.262812 
L 363.358143 282.262812 
L 363.358143 278.430416 
L 363.872095 278.430416 
L 363.872095 274.59802 
L 363.887295 274.59802 
L 363.887295 270.765624 
L 378.489171 270.765624 
L 378.489171 266.933228 
L 379.363104 266.933228 
L 379.363104 263.100832 
L 379.982273 263.100832 
L 379.982273 259.268436 
L 380.056438 259.268436 
L 380.056438 255.43604 
L 380.496024 255.43604 
L 380.496024 251.603644 
L 380.913235 251.603644 
L 380.913235 247.771248 
L 380.919248 247.771248 
L 380.919248 243.938851 
L 381.285447 243.938851 
L 381.285447 240.106455 
L 381.302164 240.106455 
L 381.302164 236.274059 
L 381.600511 236.274059 
L 381.600511 232.441663 
L 383.126858 232.441663 
L 383.126858 228.609267 
L 419.811376 228.609267 
L 419.811376 224.776871 
L 420.367842 224.776871 
L 420.367842 220.944475 
L 420.367842 220.944475 
L 420.367842 220.944475 
L 460.8 220.944475 
" clip-path="url(#pf1ff101641)" style="fill: none; stroke: #f5deb3; stroke-width: 1.5; stroke-linecap: square"/>
   </g>
   <g id="line2d_9">
    <path d="M 243.563067 293.76 
L 243.563067 289.927604 
L 282.309716 289.927604 
L 282.309716 286.095208 
L 282.897664 286.095208 
L 282.897664 282.262812 
L 283.623566 282.262812 
L 283.623566 278.430416 
L 286.707419 278.430416 
L 286.707419 274.59802 
L 290.868213 274.59802 
L 290.868213 270.765624 
L 291.350726 270.765624 
L 291.350726 266.933228 
L 291.513866 266.933228 
L 291.513866 263.100832 
L 292.396851 263.100832 
L 292.408163 255.43604 
L 292.667256 255.43604 
L 292.667256 251.603644 
L 292.991034 251.603644 
L 292.991034 247.771248 
L 300.341151 247.771248 
L 300.341151 243.938851 
L 305.40451 243.938851 
L 305.40451 240.106455 
L 306.188745 240.106455 
L 306.188745 236.274059 
L 307.102733 236.274059 
L 307.102733 232.441663 
L 307.840617 232.441663 
L 307.840617 228.609267 
L 308.973305 228.609267 
L 309.027732 220.944475 
L 313.667822 220.944475 
L 313.667822 217.112079 
L 314.715237 217.112079 
L 314.715237 213.279683 
L 315.571932 213.279683 
L 315.571932 209.447287 
L 315.818544 209.447287 
L 315.818544 205.614891 
L 316.090695 205.614891 
L 316.090695 201.782495 
L 316.219108 201.782495 
L 316.30081 194.117703 
L 316.41214 194.117703 
L 316.41214 190.285307 
L 316.65251 190.285307 
L 316.65251 186.452911 
L 317.65935 186.452911 
L 317.758347 178.788119 
L 317.934753 178.788119 
L 317.934753 174.955723 
L 318.374196 174.955723 
L 318.374196 171.123327 
L 319.021214 171.123327 
L 319.021214 167.290931 
L 319.975606 167.290931 
L 320.016897 159.626139 
L 320.465292 159.626139 
L 320.465292 155.793743 
L 321.427813 155.793743 
L 321.513713 148.12895 
L 325.336123 148.12895 
L 325.336123 144.296554 
L 330.895968 144.296554 
L 330.895968 140.464158 
L 331.161021 140.464158 
L 331.198956 132.799366 
L 332.308677 132.799366 
L 332.308677 128.96697 
L 336.22513 128.96697 
L 336.22513 125.134574 
L 338.003398 125.134574 
L 338.003398 121.302178 
L 339.045709 121.302178 
L 339.045709 117.469782 
L 341.249015 117.469782 
L 341.249015 113.637386 
L 341.704371 113.637386 
L 341.704371 109.80499 
L 342.677798 109.80499 
L 342.677798 105.972594 
L 343.418629 105.972594 
L 343.418629 102.140198 
L 343.597114 102.140198 
L 343.597114 98.307802 
L 348.238445 98.307802 
L 348.238445 94.475406 
L 349.874777 94.475406 
L 349.901998 86.810614 
L 350.383343 86.810614 
L 350.383343 82.978218 
L 350.734778 82.978218 
L 350.734778 79.145822 
L 350.878449 79.145822 
L 350.878449 75.313426 
L 352.980391 75.313426 
L 352.980391 71.48103 
L 355.205568 71.48103 
L 355.205568 67.648634 
L 355.395831 67.648634 
L 355.395831 63.816238 
L 358.201166 63.816238 
L 358.201166 59.983842 
L 360.487119 59.983842 
L 360.487119 56.151446 
L 363.152217 56.151446 
L 363.152217 52.31905 
L 363.733074 52.31905 
L 363.733074 48.486653 
L 377.823389 48.486653 
L 377.823389 44.654257 
L 383.861331 44.654257 
L 383.861331 40.821861 
L 383.990534 40.821861 
L 383.990534 36.989465 
L 387.034284 36.989465 
L 387.034284 33.157069 
L 395.626709 33.157069 
L 395.626709 29.324673 
L 397.154903 29.324673 
L 397.154903 25.492277 
L 401.516446 25.492277 
L 401.516446 21.659881 
L 406.361315 21.659881 
L 406.361315 17.827485 
L 407.96615 17.827485 
L 408.053991 10.162693 
L 420.85997 10.162693 
L 420.85997 6.330297 
L 420.85997 6.330297 
L 460.8 6.330297 
L 460.8 6.330297 
" clip-path="url(#pf1ff101641)" style="fill: none; stroke: #f5deb3; stroke-width: 1.5; stroke-linecap: square"/>
   </g>
   <g id="line2d_10"/>
   <g id="line2d_11">
    <path d="M 396.046916 293.76 
L 396.046916 289.927604 
L 442.549735 289.927604 
L 442.549735 286.095208 
L 449.391114 286.095208 
L 449.391114 282.262812 
L 456.619354 282.262812 
L 456.619354 278.430416 
L 457.806074 278.430416 
L 457.806074 274.59802 
L 461.8 274.59802 
" clip-path="url(#pf1ff101641)" style="fill: none; stroke: #f5deb3; stroke-width: 1.5; stroke-linecap: square"/>
   </g>
   <g id="line2d_12"/>
   <g id="line2d_13"/>
   <g id="line2d_14"/>
   <g id="line2d_15"/>
   <g id="line2d_16"/>
   <g id="line2d_17">
    <path d="M 355.00505 293.76 
L 355.00505 289.927604 
L 357.214221 289.927604 
L 357.214221 286.095208 
L 358.181566 286.095208 
L 358.181566 282.262812 
L 359.493342 282.262812 
L 359.493342 278.430416 
L 362.038382 278.430416 
L 362.038382 274.59802 
L 362.156098 274.59802 
L 362.156098 270.765624 
L 363.372297 270.765624 
L 363.372297 266.933228 
L 363.708254 266.933228 
L 363.708254 263.100832 
L 363.840407 263.100832 
L 363.840407 259.268436 
L 366.939404 259.268436 
L 366.939404 255.43604 
L 367.392372 255.43604 
L 367.392372 251.603644 
L 374.438194 251.603644 
L 374.438194 247.771248 
L 380.428574 247.771248 
L 380.428574 243.938851 
L 380.5063 243.938851 
L 380.5063 240.106455 
L 380.551935 240.106455 
L 380.551935 236.274059 
L 383.14301 236.274059 
L 383.14301 232.441663 
L 383.814941 232.441663 
L 383.814941 228.609267 
L 386.125633 228.609267 
L 386.125633 224.776871 
L 387.262191 224.776871 
L 387.262191 220.944475 
L 388.155223 220.944475 
L 388.155223 217.112079 
L 389.350882 217.112079 
L 389.350882 213.279683 
L 390.797426 213.279683 
L 390.797426 209.447287 
L 394.944535 209.447287 
L 394.944535 205.614891 
L 395.81321 205.614891 
L 395.81321 201.782495 
L 397.790385 201.782495 
L 397.790385 197.950099 
L 398.743863 197.950099 
L 398.743863 194.117703 
L 401.162223 194.117703 
L 401.162223 190.285307 
L 402.2478 190.285307 
L 402.2478 186.452911 
L 402.2478 186.452911 
L 402.2478 186.452911 
L 460.8 186.452911 
" clip-path="url(#pf1ff101641)" style="fill: none; stroke: #f5deb3; stroke-width: 1.5; stroke-linecap: square"/>
   </g>
   <g id="line2d_18"/>
   <g id="line2d_19">
    <path d="M 370.811327 293.76 
L 370.811327 289.927604 
L 401.552018 289.927604 
L 401.552018 286.095208 
L 410.474219 286.095208 
L 410.474219 282.262812 
L 413.437373 282.262812 
L 413.437373 278.430416 
L 421.102841 278.430416 
L 421.102841 274.59802 
L 426.162013 274.59802 
L 426.162013 270.765624 
L 427.186625 270.765624 
L 427.186625 266.933228 
L 428.419133 266.933228 
L 428.419133 263.100832 
L 430.641771 263.100832 
L 430.641771 259.268436 
L 432.738514 259.268436 
L 432.738514 255.43604 
L 432.909331 255.43604 
L 432.909331 251.603644 
L 434.147478 251.603644 
L 434.147478 247.771248 
L 436.906364 247.771248 
L 436.906364 243.938851 
L 446.360355 243.938851 
L 446.360355 240.106455 
L 447.259714 240.106455 
L 447.259714 236.274059 
L 448.551278 236.274059 
L 448.551278 232.441663 
L 450.618097 232.441663 
L 450.618097 228.609267 
L 460.523489 228.609267 
L 460.523489 224.776871 
L 461.186855 224.776871 
L 461.186855 220.944475 
L 461.8 220.944475 
L 461.8 220.944475 
" clip-path="url(#pf1ff101641)" style="fill: none; stroke: #f5deb3; stroke-width: 1.5; stroke-linecap: square"/>
   </g>
   <g id="line2d_20">
    <path d="M 356.397824 293.76 
L 356.397824 289.927604 
L 356.397824 289.927604 
L 356.397824 289.927604 
L 460.8 289.927604 
" clip-path="url(#pf1ff101641)" style="fill: none; stroke: #f5deb3; stroke-width: 1.5; stroke-linecap: square"/>
   </g>
   <g id="line2d_21"/>
   <g id="line2d_22">
    <path d="M 370.945746 293.76 
L 370.945746 289.927604 
L 390.531176 289.927604 
L 390.531176 286.095208 
L 410.386569 286.095208 
L 410.386569 282.262812 
L 420.011577 282.262812 
L 420.011577 278.430416 
L 434.744391 278.430416 
L 434.744391 274.59802 
L 434.744391 274.59802 
L 434.744391 274.59802 
L 460.8 274.59802 
" clip-path="url(#pf1ff101641)" style="fill: none; stroke: #f5deb3; stroke-width: 1.5; stroke-linecap: square"/>
   </g>
   <g id="line2d_23">
    <path d="M 388.261328 293.76 
L 388.261328 289.927604 
L 395.4726 289.927604 
L 395.4726 286.095208 
L 395.4726 286.095208 
L 395.4726 286.095208 
L 460.8 286.095208 
" clip-path="url(#pf1ff101641)" style="fill: none; stroke: #f5deb3; stroke-width: 1.5; stroke-linecap: square"/>
   </g>
   <g id="line2d_24">
    <path d="M 272.077907 293.76 
L 272.077907 289.927604 
L 274.951801 289.927604 
L 274.951801 286.095208 
L 276.708724 286.095208 
L 276.708724 282.262812 
L 280.988937 282.262812 
L 280.988937 278.430416 
L 283.756512 278.430416 
L 283.756512 274.59802 
L 335.002849 274.59802 
L 335.002849 270.765624 
L 336.652258 270.765624 
L 336.652258 266.933228 
L 337.03498 266.933228 
L 337.03498 263.100832 
L 337.170176 263.100832 
L 337.170176 259.268436 
L 338.461871 259.268436 
L 338.461871 255.43604 
L 338.747575 255.43604 
L 338.830891 247.771248 
L 340.175111 247.771248 
L 340.175111 243.938851 
L 340.487785 243.938851 
L 340.562901 236.274059 
L 340.731925 236.274059 
L 340.731925 232.441663 
L 341.044435 232.441663 
L 341.044435 228.609267 
L 343.289179 228.609267 
L 343.289179 224.776871 
L 345.328025 224.776871 
L 345.328025 220.944475 
L 345.832757 220.944475 
L 345.832757 217.112079 
L 346.022637 217.112079 
L 346.022637 213.279683 
L 346.770231 213.279683 
L 346.770231 209.447287 
L 346.93028 209.447287 
L 346.93028 205.614891 
L 347.147751 205.614891 
L 347.229063 197.950099 
L 347.612811 197.950099 
L 347.723114 190.285307 
L 348.14936 190.285307 
L 348.14936 186.452911 
L 348.502222 186.452911 
L 348.605521 178.788119 
L 348.845288 178.788119 
L 348.845288 174.955723 
L 349.08829 174.955723 
L 349.123141 167.290931 
L 350.498046 167.290931 
L 350.515217 159.626139 
L 350.994249 159.626139 
L 350.994249 155.793743 
L 351.663981 155.793743 
L 351.663981 151.961347 
L 352.677437 151.961347 
L 352.677437 148.12895 
L 352.942343 148.12895 
L 352.942343 144.296554 
L 355.686894 144.296554 
L 355.686894 140.464158 
L 357.418643 140.464158 
L 357.418643 136.631762 
L 361.705688 136.631762 
L 361.705688 132.799366 
L 367.465652 132.799366 
L 367.465652 128.96697 
L 367.616238 128.96697 
L 367.616238 125.134574 
L 368.331308 125.134574 
L 368.331308 121.302178 
L 370.113543 121.302178 
L 370.113543 117.469782 
L 371.007403 117.469782 
L 371.007403 113.637386 
L 372.592279 113.637386 
L 372.592279 109.80499 
L 373.512727 109.80499 
L 373.512727 105.972594 
L 377.746451 105.972594 
L 377.746451 102.140198 
L 381.766798 102.140198 
L 381.766798 98.307802 
L 382.485982 98.307802 
L 382.485982 94.475406 
L 386.007519 94.475406 
L 386.007519 90.64301 
L 391.301907 90.64301 
L 391.301907 86.810614 
L 392.154628 86.810614 
L 392.154628 82.978218 
L 393.939833 82.978218 
L 393.977639 75.313426 
L 394.205806 75.313426 
L 394.205806 71.48103 
L 396.343451 71.48103 
L 396.343451 67.648634 
L 397.396702 67.648634 
L 397.396702 63.816238 
L 415.316952 63.816238 
L 415.316952 59.983842 
L 416.036111 59.983842 
L 416.036111 56.151446 
L 417.164825 56.151446 
L 417.164825 52.31905 
L 420.792129 52.31905 
L 420.792129 48.486653 
L 426.787915 48.486653 
L 426.787915 44.654257 
L 431.469276 44.654257 
L 431.469276 40.821861 
L 431.965383 40.821861 
L 431.965383 36.989465 
L 436.305903 36.989465 
L 436.305903 33.157069 
L 438.365497 33.157069 
L 438.365497 29.324673 
L 445.152765 29.324673 
L 445.152765 25.492277 
L 447.691256 25.492277 
L 447.691256 21.659881 
L 453.141731 21.659881 
L 453.141731 17.827485 
L 454.565392 17.827485 
L 454.565392 13.995089 
L 458.585309 13.995089 
L 458.585309 10.162693 
L 461.8 10.162693 
L 461.8 10.162693 
" clip-path="url(#pf1ff101641)" style="fill: none; stroke: #f5deb3; stroke-width: 1.5; stroke-linecap: square"/>
   </g>
   <g id="line2d_25">
    <path d="M 371.424216 293.76 
L 371.424216 289.927604 
L 374.156504 289.927604 
L 374.156504 286.095208 
L 374.322498 286.095208 
L 374.322498 282.262812 
L 375.484943 282.262812 
L 375.484943 278.430416 
L 376.979657 278.430416 
L 376.979657 274.59802 
L 377.562058 274.59802 
L 377.562058 270.765624 
L 377.810579 270.765624 
L 377.810579 266.933228 
L 378.51062 266.933228 
L 378.51062 263.100832 
L 378.543776 263.100832 
L 378.543776 259.268436 
L 380.389259 259.268436 
L 380.389259 255.43604 
L 381.392288 255.43604 
L 381.392288 251.603644 
L 400.146863 251.603644 
L 400.146863 247.771248 
L 400.720629 247.771248 
L 400.720629 243.938851 
L 401.173944 243.938851 
L 401.173944 240.106455 
L 401.563201 240.106455 
L 401.563201 236.274059 
L 401.656111 236.274059 
L 401.656111 232.441663 
L 401.885654 232.441663 
L 401.885654 228.609267 
L 402.211414 228.609267 
L 402.211414 224.776871 
L 402.243694 224.776871 
L 402.243694 220.944475 
L 402.313624 220.944475 
L 402.313624 217.112079 
L 402.314989 217.112079 
L 402.314989 213.279683 
L 402.341904 213.279683 
L 402.341904 209.447287 
L 402.350871 209.447287 
L 402.350871 205.614891 
L 402.406955 205.614891 
L 402.406955 201.782495 
L 402.552362 201.782495 
L 402.552362 197.950099 
L 402.575404 197.950099 
L 402.575404 194.117703 
L 402.686129 194.117703 
L 402.686129 190.285307 
L 403.011868 190.285307 
L 403.011868 186.452911 
L 403.158985 186.452911 
L 403.158985 182.620515 
L 403.189583 182.620515 
L 403.189583 178.788119 
L 403.27211 178.788119 
L 403.27211 174.955723 
L 403.322284 174.955723 
L 403.322284 171.123327 
L 403.580635 171.123327 
L 403.580635 167.290931 
L 403.683331 167.290931 
L 403.683331 163.458535 
L 403.873439 163.458535 
L 403.873439 159.626139 
L 409.221692 159.626139 
L 409.221692 155.793743 
L 432.42165 155.793743 
L 432.42165 151.961347 
L 432.42165 151.961347 
L 432.42165 151.961347 
L 460.8 151.961347 
" clip-path="url(#pf1ff101641)" style="fill: none; stroke: #f5deb3; stroke-width: 1.5; stroke-linecap: square"/>
   </g>
   <g id="line2d_26">
    <path d="M 323.102077 293.76 
L 323.102077 289.927604 
L 325.646067 289.927604 
L 325.646067 286.095208 
L 332.564201 286.095208 
L 332.564201 282.262812 
L 333.637201 282.262812 
L 333.637201 278.430416 
L 334.782775 278.430416 
L 334.782775 274.59802 
L 336.229562 274.59802 
L 336.229562 270.765624 
L 338.655818 270.765624 
L 338.655818 266.933228 
L 345.183494 266.933228 
L 345.183494 263.100832 
L 348.449433 263.100832 
L 348.449433 259.268436 
L 356.942784 259.268436 
L 356.942784 255.43604 
L 358.763029 255.43604 
L 358.763029 251.603644 
L 367.976848 251.603644 
L 367.976848 247.771248 
L 373.419714 247.771248 
L 373.419714 243.938851 
L 374.248366 243.938851 
L 374.248366 240.106455 
L 379.531354 240.106455 
L 379.531354 236.274059 
L 384.325712 236.274059 
L 384.325712 232.441663 
L 386.392378 232.441663 
L 386.392378 228.609267 
L 388.919061 228.609267 
L 388.919061 224.776871 
L 391.005839 224.776871 
L 391.005839 220.944475 
L 391.762068 220.944475 
L 391.762068 217.112079 
L 391.762068 217.112079 
L 391.762068 217.112079 
L 460.8 217.112079 
" clip-path="url(#pf1ff101641)" style="fill: none; stroke: #f5deb3; stroke-width: 1.5; stroke-linecap: square"/>
   </g>
   <g id="line2d_27"/>
   <g id="line2d_28">
    <path d="M 263.645437 293.76 
L 263.645437 289.927604 
L 275.459428 289.927604 
L 275.459428 286.095208 
L 313.243444 286.095208 
L 313.243444 282.262812 
L 324.536516 282.262812 
L 324.536516 278.430416 
L 327.775297 278.430416 
L 327.775297 274.59802 
L 329.689394 274.59802 
L 329.689394 270.765624 
L 345.128426 270.765624 
L 345.128426 266.933228 
L 345.81514 266.933228 
L 345.81514 263.100832 
L 347.480163 263.100832 
L 347.480163 259.268436 
L 348.183179 259.268436 
L 348.183179 255.43604 
L 349.117169 255.43604 
L 349.117169 251.603644 
L 351.016796 251.603644 
L 351.016796 247.771248 
L 351.92716 247.771248 
L 351.92716 243.938851 
L 352.869663 243.938851 
L 352.869663 240.106455 
L 353.426562 240.106455 
L 353.426562 236.274059 
L 358.591462 236.274059 
L 358.591462 232.441663 
L 358.788205 232.441663 
L 358.788205 228.609267 
L 359.291341 228.609267 
L 359.364147 220.944475 
L 359.651596 220.944475 
L 359.651596 217.112079 
L 366.551916 217.112079 
L 366.551916 213.279683 
L 368.264378 213.279683 
L 368.264378 209.447287 
L 369.033753 209.447287 
L 369.033753 205.614891 
L 369.633911 205.614891 
L 369.633911 201.782495 
L 370.110927 201.782495 
L 370.195063 194.117703 
L 372.094327 194.117703 
L 372.094327 190.285307 
L 372.236816 190.285307 
L 372.236816 186.452911 
L 372.712328 186.452911 
L 372.712328 182.620515 
L 375.615613 182.620515 
L 375.615613 178.788119 
L 376.867961 178.788119 
L 376.867961 174.955723 
L 377.022027 174.955723 
L 377.022027 171.123327 
L 377.21959 171.123327 
L 377.21959 167.290931 
L 377.904267 167.290931 
L 377.904267 163.458535 
L 378.858292 163.458535 
L 378.858292 159.626139 
L 380.032507 159.626139 
L 380.034824 151.961347 
L 380.29517 151.961347 
L 380.29517 148.12895 
L 381.296592 148.12895 
L 381.296592 144.296554 
L 381.6755 144.296554 
L 381.6755 140.464158 
L 382.281186 140.464158 
L 382.281186 136.631762 
L 382.692705 136.631762 
L 382.692705 132.799366 
L 383.257945 132.799366 
L 383.257945 128.96697 
L 383.587188 128.96697 
L 383.587188 125.134574 
L 385.11637 125.134574 
L 385.11637 121.302178 
L 386.552145 121.302178 
L 386.552145 117.469782 
L 386.711762 117.469782 
L 386.711762 113.637386 
L 387.236499 113.637386 
L 387.236499 109.80499 
L 388.528811 109.80499 
L 388.528811 105.972594 
L 389.34914 105.972594 
L 389.34914 102.140198 
L 396.671662 102.140198 
L 396.671662 98.307802 
L 399.50568 98.307802 
L 399.50568 94.475406 
L 403.664054 94.475406 
L 403.664054 90.64301 
L 404.023954 90.64301 
L 404.023954 86.810614 
L 404.368206 86.810614 
L 404.368206 82.978218 
L 406.909819 82.978218 
L 406.909819 79.145822 
L 407.397536 79.145822 
L 407.397536 75.313426 
L 411.740452 75.313426 
L 411.740452 71.48103 
L 412.854031 71.48103 
L 412.854031 67.648634 
L 416.869829 67.648634 
L 416.869829 63.816238 
L 417.030716 63.816238 
L 417.030716 59.983842 
L 436.660636 59.983842 
L 436.660636 56.151446 
L 436.814128 56.151446 
L 436.814128 52.31905 
L 437.066986 52.31905 
L 437.066986 48.486653 
L 439.670796 48.486653 
L 439.670796 44.654257 
L 447.87648 44.654257 
L 447.87648 40.821861 
L 461.8 40.821861 
L 461.8 40.821861 
" clip-path="url(#pf1ff101641)" style="fill: none; stroke: #f5deb3; stroke-width: 1.5; stroke-linecap: square"/>
   </g>
   <g id="line2d_29"/>
   <g id="line2d_30"/>
   <g id="matplotlib.axis_1">
    <g id="xtick_1">
     <g id="line2d_31">
      <path d="M 62.208 293.76 
L 62.208 3.456 
" clip-path="url(#pf1ff101641)" style="fill: none; stroke: #b0b0b0; stroke-width: 0.8; stroke-linecap: square"/>
     </g>
     <g id="line2d_32">
      <defs>
       <path id="mf90d384414" d="M 0 0 
L 0 3.5 
" style="stroke: #000000; stroke-width: 0.8"/>
      </defs>
      <g>
       <use xlink:href="#mf90d384414" x="62.208" y="293.76" style="stroke: #000000; stroke-width: 0.8"/>
      </g>
     </g>
     <g id="text_1">
      <!-- 0 -->
      <g transform="translate(55.8455 315.956875)scale(0.2 -0.2)">
       <defs>
        <path id="DejaVuSans-30" d="M 2034 4250 
Q 1547 4250 1301 3770 
Q 1056 3291 1056 2328 
Q 1056 1369 1301 889 
Q 1547 409 2034 409 
Q 2525 409 2770 889 
Q 3016 1369 3016 2328 
Q 3016 3291 2770 3770 
Q 2525 4250 2034 4250 
z
M 2034 4750 
Q 2819 4750 3233 4129 
Q 3647 3509 3647 2328 
Q 3647 1150 3233 529 
Q 2819 -91 2034 -91 
Q 1250 -91 836 529 
Q 422 1150 422 2328 
Q 422 3509 836 4129 
Q 1250 4750 2034 4750 
z
" transform="scale(0.015625)"/>
       </defs>
       <use xlink:href="#DejaVuSans-30"/>
      </g>
     </g>
    </g>
    <g id="xtick_2">
     <g id="line2d_33">
      <path d="M 212.54616 293.76 
L 212.54616 3.456 
" clip-path="url(#pf1ff101641)" style="fill: none; stroke: #b0b0b0; stroke-width: 0.8; stroke-linecap: square"/>
     </g>
     <g id="line2d_34">
      <g>
       <use xlink:href="#mf90d384414" x="212.54616" y="293.76" style="stroke: #000000; stroke-width: 0.8"/>
      </g>
     </g>
     <g id="text_2">
      <!-- 2 -->
      <g transform="translate(206.18366 315.956875)scale(0.2 -0.2)">
       <defs>
        <path id="DejaVuSans-32" d="M 1228 531 
L 3431 531 
L 3431 0 
L 469 0 
L 469 531 
Q 828 903 1448 1529 
Q 2069 2156 2228 2338 
Q 2531 2678 2651 2914 
Q 2772 3150 2772 3378 
Q 2772 3750 2511 3984 
Q 2250 4219 1831 4219 
Q 1534 4219 1204 4116 
Q 875 4013 500 3803 
L 500 4441 
Q 881 4594 1212 4672 
Q 1544 4750 1819 4750 
Q 2544 4750 2975 4387 
Q 3406 4025 3406 3419 
Q 3406 3131 3298 2873 
Q 3191 2616 2906 2266 
Q 2828 2175 2409 1742 
Q 1991 1309 1228 531 
z
" transform="scale(0.015625)"/>
       </defs>
       <use xlink:href="#DejaVuSans-32"/>
      </g>
     </g>
    </g>
    <g id="xtick_3">
     <g id="line2d_35">
      <path d="M 362.884321 293.76 
L 362.884321 3.456 
" clip-path="url(#pf1ff101641)" style="fill: none; stroke: #b0b0b0; stroke-width: 0.8; stroke-linecap: square"/>
     </g>
     <g id="line2d_36">
      <g>
       <use xlink:href="#mf90d384414" x="362.884321" y="293.76" style="stroke: #000000; stroke-width: 0.8"/>
      </g>
     </g>
     <g id="text_3">
      <!-- 4 -->
      <g transform="translate(356.521821 315.956875)scale(0.2 -0.2)">
       <defs>
        <path id="DejaVuSans-34" d="M 2419 4116 
L 825 1625 
L 2419 1625 
L 2419 4116 
z
M 2253 4666 
L 3047 4666 
L 3047 1625 
L 3713 1625 
L 3713 1100 
L 3047 1100 
L 3047 0 
L 2419 0 
L 2419 1100 
L 313 1100 
L 313 1709 
L 2253 4666 
z
" transform="scale(0.015625)"/>
       </defs>
       <use xlink:href="#DejaVuSans-34"/>
      </g>
     </g>
    </g>
    <g id="text_4">
     <!-- log10 of FEvals / DIM -->
     <g transform="translate(156.430563 339.313125)scale(0.2 -0.2)">
      <defs>
       <path id="DejaVuSans-6c" d="M 603 4863 
L 1178 4863 
L 1178 0 
L 603 0 
L 603 4863 
z
" transform="scale(0.015625)"/>
       <path id="DejaVuSans-6f" d="M 1959 3097 
Q 1497 3097 1228 2736 
Q 959 2375 959 1747 
Q 959 1119 1226 758 
Q 1494 397 1959 397 
Q 2419 397 2687 759 
Q 2956 1122 2956 1747 
Q 2956 2369 2687 2733 
Q 2419 3097 1959 3097 
z
M 1959 3584 
Q 2709 3584 3137 3096 
Q 3566 2609 3566 1747 
Q 3566 888 3137 398 
Q 2709 -91 1959 -91 
Q 1206 -91 779 398 
Q 353 888 353 1747 
Q 353 2609 779 3096 
Q 1206 3584 1959 3584 
z
" transform="scale(0.015625)"/>
       <path id="DejaVuSans-67" d="M 2906 1791 
Q 2906 2416 2648 2759 
Q 2391 3103 1925 3103 
Q 1463 3103 1205 2759 
Q 947 2416 947 1791 
Q 947 1169 1205 825 
Q 1463 481 1925 481 
Q 2391 481 2648 825 
Q 2906 1169 2906 1791 
z
M 3481 434 
Q 3481 -459 3084 -895 
Q 2688 -1331 1869 -1331 
Q 1566 -1331 1297 -1286 
Q 1028 -1241 775 -1147 
L 775 -588 
Q 1028 -725 1275 -790 
Q 1522 -856 1778 -856 
Q 2344 -856 2625 -561 
Q 2906 -266 2906 331 
L 2906 616 
Q 2728 306 2450 153 
Q 2172 0 1784 0 
Q 1141 0 747 490 
Q 353 981 353 1791 
Q 353 2603 747 3093 
Q 1141 3584 1784 3584 
Q 2172 3584 2450 3431 
Q 2728 3278 2906 2969 
L 2906 3500 
L 3481 3500 
L 3481 434 
z
" transform="scale(0.015625)"/>
       <path id="DejaVuSans-31" d="M 794 531 
L 1825 531 
L 1825 4091 
L 703 3866 
L 703 4441 
L 1819 4666 
L 2450 4666 
L 2450 531 
L 3481 531 
L 3481 0 
L 794 0 
L 794 531 
z
" transform="scale(0.015625)"/>
       <path id="DejaVuSans-20" transform="scale(0.015625)"/>
       <path id="DejaVuSans-66" d="M 2375 4863 
L 2375 4384 
L 1825 4384 
Q 1516 4384 1395 4259 
Q 1275 4134 1275 3809 
L 1275 3500 
L 2222 3500 
L 2222 3053 
L 1275 3053 
L 1275 0 
L 697 0 
L 697 3053 
L 147 3053 
L 147 3500 
L 697 3500 
L 697 3744 
Q 697 4328 969 4595 
Q 1241 4863 1831 4863 
L 2375 4863 
z
" transform="scale(0.015625)"/>
       <path id="DejaVuSans-46" d="M 628 4666 
L 3309 4666 
L 3309 4134 
L 1259 4134 
L 1259 2759 
L 3109 2759 
L 3109 2228 
L 1259 2228 
L 1259 0 
L 628 0 
L 628 4666 
z
" transform="scale(0.015625)"/>
       <path id="DejaVuSans-45" d="M 628 4666 
L 3578 4666 
L 3578 4134 
L 1259 4134 
L 1259 2753 
L 3481 2753 
L 3481 2222 
L 1259 2222 
L 1259 531 
L 3634 531 
L 3634 0 
L 628 0 
L 628 4666 
z
" transform="scale(0.015625)"/>
       <path id="DejaVuSans-76" d="M 191 3500 
L 800 3500 
L 1894 563 
L 2988 3500 
L 3597 3500 
L 2284 0 
L 1503 0 
L 191 3500 
z
" transform="scale(0.015625)"/>
       <path id="DejaVuSans-61" d="M 2194 1759 
Q 1497 1759 1228 1600 
Q 959 1441 959 1056 
Q 959 750 1161 570 
Q 1363 391 1709 391 
Q 2188 391 2477 730 
Q 2766 1069 2766 1631 
L 2766 1759 
L 2194 1759 
z
M 3341 1997 
L 3341 0 
L 2766 0 
L 2766 531 
Q 2569 213 2275 61 
Q 1981 -91 1556 -91 
Q 1019 -91 701 211 
Q 384 513 384 1019 
Q 384 1609 779 1909 
Q 1175 2209 1959 2209 
L 2766 2209 
L 2766 2266 
Q 2766 2663 2505 2880 
Q 2244 3097 1772 3097 
Q 1472 3097 1187 3025 
Q 903 2953 641 2809 
L 641 3341 
Q 956 3463 1253 3523 
Q 1550 3584 1831 3584 
Q 2591 3584 2966 3190 
Q 3341 2797 3341 1997 
z
" transform="scale(0.015625)"/>
       <path id="DejaVuSans-73" d="M 2834 3397 
L 2834 2853 
Q 2591 2978 2328 3040 
Q 2066 3103 1784 3103 
Q 1356 3103 1142 2972 
Q 928 2841 928 2578 
Q 928 2378 1081 2264 
Q 1234 2150 1697 2047 
L 1894 2003 
Q 2506 1872 2764 1633 
Q 3022 1394 3022 966 
Q 3022 478 2636 193 
Q 2250 -91 1575 -91 
Q 1294 -91 989 -36 
Q 684 19 347 128 
L 347 722 
Q 666 556 975 473 
Q 1284 391 1588 391 
Q 1994 391 2212 530 
Q 2431 669 2431 922 
Q 2431 1156 2273 1281 
Q 2116 1406 1581 1522 
L 1381 1569 
Q 847 1681 609 1914 
Q 372 2147 372 2553 
Q 372 3047 722 3315 
Q 1072 3584 1716 3584 
Q 2034 3584 2315 3537 
Q 2597 3491 2834 3397 
z
" transform="scale(0.015625)"/>
       <path id="DejaVuSans-2f" d="M 1625 4666 
L 2156 4666 
L 531 -594 
L 0 -594 
L 1625 4666 
z
" transform="scale(0.015625)"/>
       <path id="DejaVuSans-44" d="M 1259 4147 
L 1259 519 
L 2022 519 
Q 2988 519 3436 956 
Q 3884 1394 3884 2338 
Q 3884 3275 3436 3711 
Q 2988 4147 2022 4147 
L 1259 4147 
z
M 628 4666 
L 1925 4666 
Q 3281 4666 3915 4102 
Q 4550 3538 4550 2338 
Q 4550 1131 3912 565 
Q 3275 0 1925 0 
L 628 0 
L 628 4666 
z
" transform="scale(0.015625)"/>
       <path id="DejaVuSans-49" d="M 628 4666 
L 1259 4666 
L 1259 0 
L 628 0 
L 628 4666 
z
" transform="scale(0.015625)"/>
       <path id="DejaVuSans-4d" d="M 628 4666 
L 1569 4666 
L 2759 1491 
L 3956 4666 
L 4897 4666 
L 4897 0 
L 4281 0 
L 4281 4097 
L 3078 897 
L 2444 897 
L 1241 4097 
L 1241 0 
L 628 0 
L 628 4666 
z
" transform="scale(0.015625)"/>
      </defs>
      <use xlink:href="#DejaVuSans-6c"/>
      <use xlink:href="#DejaVuSans-6f" x="27.783203"/>
      <use xlink:href="#DejaVuSans-67" x="88.964844"/>
      <use xlink:href="#DejaVuSans-31" x="152.441406"/>
      <use xlink:href="#DejaVuSans-30" x="216.064453"/>
      <use xlink:href="#DejaVuSans-20" x="279.6875"/>
      <use xlink:href="#DejaVuSans-6f" x="311.474609"/>
      <use xlink:href="#DejaVuSans-66" x="372.65625"/>
      <use xlink:href="#DejaVuSans-20" x="407.861328"/>
      <use xlink:href="#DejaVuSans-46" x="439.648438"/>
      <use xlink:href="#DejaVuSans-45" x="497.167969"/>
      <use xlink:href="#DejaVuSans-76" x="560.351562"/>
      <use xlink:href="#DejaVuSans-61" x="619.53125"/>
      <use xlink:href="#DejaVuSans-6c" x="680.810547"/>
      <use xlink:href="#DejaVuSans-73" x="708.59375"/>
      <use xlink:href="#DejaVuSans-20" x="760.693359"/>
      <use xlink:href="#DejaVuSans-2f" x="792.480469"/>
      <use xlink:href="#DejaVuSans-20" x="826.171875"/>
      <use xlink:href="#DejaVuSans-44" x="857.958984"/>
      <use xlink:href="#DejaVuSans-49" x="934.960938"/>
      <use xlink:href="#DejaVuSans-4d" x="964.453125"/>
     </g>
    </g>
   </g>
   <g id="matplotlib.axis_2">
    <g id="ytick_1">
     <g id="line2d_37">
      <path d="M 62.208 293.76 
L 460.8 293.76 
" clip-path="url(#pf1ff101641)" style="fill: none; stroke: #b0b0b0; stroke-width: 0.8; stroke-linecap: square"/>
     </g>
     <g id="line2d_38">
      <defs>
       <path id="m0d401e1d7b" d="M 0 0 
L -3.5 0 
" style="stroke: #000000; stroke-width: 0.8"/>
      </defs>
      <g>
       <use xlink:href="#m0d401e1d7b" x="62.208" y="293.76" style="stroke: #000000; stroke-width: 0.8"/>
      </g>
     </g>
     <g id="text_5">
      <!-- 0.0 -->
      <g transform="translate(29.763 299.83875)scale(0.16 -0.16)">
       <defs>
        <path id="DejaVuSans-2e" d="M 684 794 
L 1344 794 
L 1344 0 
L 684 0 
L 684 794 
z
" transform="scale(0.015625)"/>
       </defs>
       <use xlink:href="#DejaVuSans-30"/>
       <use xlink:href="#DejaVuSans-2e" x="63.623047"/>
       <use xlink:href="#DejaVuSans-30" x="95.410156"/>
      </g>
     </g>
    </g>
    <g id="ytick_2">
     <g id="line2d_39">
      <path d="M 62.208 236.274059 
L 460.8 236.274059 
" clip-path="url(#pf1ff101641)" style="fill: none; stroke: #b0b0b0; stroke-width: 0.8; stroke-linecap: square"/>
     </g>
     <g id="line2d_40">
      <g>
       <use xlink:href="#m0d401e1d7b" x="62.208" y="236.274059" style="stroke: #000000; stroke-width: 0.8"/>
      </g>
     </g>
     <g id="text_6">
      <!-- 0.2 -->
      <g transform="translate(29.763 242.352809)scale(0.16 -0.16)">
       <use xlink:href="#DejaVuSans-30"/>
       <use xlink:href="#DejaVuSans-2e" x="63.623047"/>
       <use xlink:href="#DejaVuSans-32" x="95.410156"/>
      </g>
     </g>
    </g>
    <g id="ytick_3">
     <g id="line2d_41">
      <path d="M 62.208 178.788119 
L 460.8 178.788119 
" clip-path="url(#pf1ff101641)" style="fill: none; stroke: #b0b0b0; stroke-width: 0.8; stroke-linecap: square"/>
     </g>
     <g id="line2d_42">
      <g>
       <use xlink:href="#m0d401e1d7b" x="62.208" y="178.788119" style="stroke: #000000; stroke-width: 0.8"/>
      </g>
     </g>
     <g id="text_7">
      <!-- 0.4 -->
      <g transform="translate(29.763 184.866869)scale(0.16 -0.16)">
       <use xlink:href="#DejaVuSans-30"/>
       <use xlink:href="#DejaVuSans-2e" x="63.623047"/>
       <use xlink:href="#DejaVuSans-34" x="95.410156"/>
      </g>
     </g>
    </g>
    <g id="ytick_4">
     <g id="line2d_43">
      <path d="M 62.208 121.302178 
L 460.8 121.302178 
" clip-path="url(#pf1ff101641)" style="fill: none; stroke: #b0b0b0; stroke-width: 0.8; stroke-linecap: square"/>
     </g>
     <g id="line2d_44">
      <g>
       <use xlink:href="#m0d401e1d7b" x="62.208" y="121.302178" style="stroke: #000000; stroke-width: 0.8"/>
      </g>
     </g>
     <g id="text_8">
      <!-- 0.6 -->
      <g transform="translate(29.763 127.380928)scale(0.16 -0.16)">
       <defs>
        <path id="DejaVuSans-36" d="M 2113 2584 
Q 1688 2584 1439 2293 
Q 1191 2003 1191 1497 
Q 1191 994 1439 701 
Q 1688 409 2113 409 
Q 2538 409 2786 701 
Q 3034 994 3034 1497 
Q 3034 2003 2786 2293 
Q 2538 2584 2113 2584 
z
M 3366 4563 
L 3366 3988 
Q 3128 4100 2886 4159 
Q 2644 4219 2406 4219 
Q 1781 4219 1451 3797 
Q 1122 3375 1075 2522 
Q 1259 2794 1537 2939 
Q 1816 3084 2150 3084 
Q 2853 3084 3261 2657 
Q 3669 2231 3669 1497 
Q 3669 778 3244 343 
Q 2819 -91 2113 -91 
Q 1303 -91 875 529 
Q 447 1150 447 2328 
Q 447 3434 972 4092 
Q 1497 4750 2381 4750 
Q 2619 4750 2861 4703 
Q 3103 4656 3366 4563 
z
" transform="scale(0.015625)"/>
       </defs>
       <use xlink:href="#DejaVuSans-30"/>
       <use xlink:href="#DejaVuSans-2e" x="63.623047"/>
       <use xlink:href="#DejaVuSans-36" x="95.410156"/>
      </g>
     </g>
    </g>
    <g id="ytick_5">
     <g id="line2d_45">
      <path d="M 62.208 63.816238 
L 460.8 63.816238 
" clip-path="url(#pf1ff101641)" style="fill: none; stroke: #b0b0b0; stroke-width: 0.8; stroke-linecap: square"/>
     </g>
     <g id="line2d_46">
      <g>
       <use xlink:href="#m0d401e1d7b" x="62.208" y="63.816238" style="stroke: #000000; stroke-width: 0.8"/>
      </g>
     </g>
     <g id="text_9">
      <!-- 0.8 -->
      <g transform="translate(29.763 69.894988)scale(0.16 -0.16)">
       <defs>
        <path id="DejaVuSans-38" d="M 2034 2216 
Q 1584 2216 1326 1975 
Q 1069 1734 1069 1313 
Q 1069 891 1326 650 
Q 1584 409 2034 409 
Q 2484 409 2743 651 
Q 3003 894 3003 1313 
Q 3003 1734 2745 1975 
Q 2488 2216 2034 2216 
z
M 1403 2484 
Q 997 2584 770 2862 
Q 544 3141 544 3541 
Q 544 4100 942 4425 
Q 1341 4750 2034 4750 
Q 2731 4750 3128 4425 
Q 3525 4100 3525 3541 
Q 3525 3141 3298 2862 
Q 3072 2584 2669 2484 
Q 3125 2378 3379 2068 
Q 3634 1759 3634 1313 
Q 3634 634 3220 271 
Q 2806 -91 2034 -91 
Q 1263 -91 848 271 
Q 434 634 434 1313 
Q 434 1759 690 2068 
Q 947 2378 1403 2484 
z
M 1172 3481 
Q 1172 3119 1398 2916 
Q 1625 2713 2034 2713 
Q 2441 2713 2670 2916 
Q 2900 3119 2900 3481 
Q 2900 3844 2670 4047 
Q 2441 4250 2034 4250 
Q 1625 4250 1398 4047 
Q 1172 3844 1172 3481 
z
" transform="scale(0.015625)"/>
       </defs>
       <use xlink:href="#DejaVuSans-30"/>
       <use xlink:href="#DejaVuSans-2e" x="63.623047"/>
       <use xlink:href="#DejaVuSans-38" x="95.410156"/>
      </g>
     </g>
    </g>
    <g id="ytick_6">
     <g id="line2d_47">
      <path d="M 62.208 6.330297 
L 460.8 6.330297 
" clip-path="url(#pf1ff101641)" style="fill: none; stroke: #b0b0b0; stroke-width: 0.8; stroke-linecap: square"/>
     </g>
     <g id="line2d_48">
      <g>
       <use xlink:href="#m0d401e1d7b" x="62.208" y="6.330297" style="stroke: #000000; stroke-width: 0.8"/>
      </g>
     </g>
     <g id="text_10">
      <!-- 1.0 -->
      <g transform="translate(29.763 12.409047)scale(0.16 -0.16)">
       <use xlink:href="#DejaVuSans-31"/>
       <use xlink:href="#DejaVuSans-2e" x="63.623047"/>
       <use xlink:href="#DejaVuSans-30" x="95.410156"/>
      </g>
     </g>
    </g>
    <g id="text_11">
     <!-- proportion of trials -->
     <g transform="translate(21.603625 241.61425)rotate(-90)scale(0.2 -0.2)">
      <defs>
       <path id="DejaVuSans-70" d="M 1159 525 
L 1159 -1331 
L 581 -1331 
L 581 3500 
L 1159 3500 
L 1159 2969 
Q 1341 3281 1617 3432 
Q 1894 3584 2278 3584 
Q 2916 3584 3314 3078 
Q 3713 2572 3713 1747 
Q 3713 922 3314 415 
Q 2916 -91 2278 -91 
Q 1894 -91 1617 61 
Q 1341 213 1159 525 
z
M 3116 1747 
Q 3116 2381 2855 2742 
Q 2594 3103 2138 3103 
Q 1681 3103 1420 2742 
Q 1159 2381 1159 1747 
Q 1159 1113 1420 752 
Q 1681 391 2138 391 
Q 2594 391 2855 752 
Q 3116 1113 3116 1747 
z
" transform="scale(0.015625)"/>
       <path id="DejaVuSans-72" d="M 2631 2963 
Q 2534 3019 2420 3045 
Q 2306 3072 2169 3072 
Q 1681 3072 1420 2755 
Q 1159 2438 1159 1844 
L 1159 0 
L 581 0 
L 581 3500 
L 1159 3500 
L 1159 2956 
Q 1341 3275 1631 3429 
Q 1922 3584 2338 3584 
Q 2397 3584 2469 3576 
Q 2541 3569 2628 3553 
L 2631 2963 
z
" transform="scale(0.015625)"/>
       <path id="DejaVuSans-74" d="M 1172 4494 
L 1172 3500 
L 2356 3500 
L 2356 3053 
L 1172 3053 
L 1172 1153 
Q 1172 725 1289 603 
Q 1406 481 1766 481 
L 2356 481 
L 2356 0 
L 1766 0 
Q 1100 0 847 248 
Q 594 497 594 1153 
L 594 3053 
L 172 3053 
L 172 3500 
L 594 3500 
L 594 4494 
L 1172 4494 
z
" transform="scale(0.015625)"/>
       <path id="DejaVuSans-69" d="M 603 3500 
L 1178 3500 
L 1178 0 
L 603 0 
L 603 3500 
z
M 603 4863 
L 1178 4863 
L 1178 4134 
L 603 4134 
L 603 4863 
z
" transform="scale(0.015625)"/>
       <path id="DejaVuSans-6e" d="M 3513 2113 
L 3513 0 
L 2938 0 
L 2938 2094 
Q 2938 2591 2744 2837 
Q 2550 3084 2163 3084 
Q 1697 3084 1428 2787 
Q 1159 2491 1159 1978 
L 1159 0 
L 581 0 
L 581 3500 
L 1159 3500 
L 1159 2956 
Q 1366 3272 1645 3428 
Q 1925 3584 2291 3584 
Q 2894 3584 3203 3211 
Q 3513 2838 3513 2113 
z
" transform="scale(0.015625)"/>
      </defs>
      <use xlink:href="#DejaVuSans-70"/>
      <use xlink:href="#DejaVuSans-72" x="63.476562"/>
      <use xlink:href="#DejaVuSans-6f" x="102.339844"/>
      <use xlink:href="#DejaVuSans-70" x="163.521484"/>
      <use xlink:href="#DejaVuSans-6f" x="226.998047"/>
      <use xlink:href="#DejaVuSans-72" x="288.179688"/>
      <use xlink:href="#DejaVuSans-74" x="329.292969"/>
      <use xlink:href="#DejaVuSans-69" x="368.501953"/>
      <use xlink:href="#DejaVuSans-6f" x="396.285156"/>
      <use xlink:href="#DejaVuSans-6e" x="457.466797"/>
      <use xlink:href="#DejaVuSans-20" x="520.845703"/>
      <use xlink:href="#DejaVuSans-6f" x="552.632812"/>
      <use xlink:href="#DejaVuSans-66" x="613.814453"/>
      <use xlink:href="#DejaVuSans-20" x="649.019531"/>
      <use xlink:href="#DejaVuSans-74" x="680.806641"/>
      <use xlink:href="#DejaVuSans-72" x="720.015625"/>
      <use xlink:href="#DejaVuSans-69" x="761.128906"/>
      <use xlink:href="#DejaVuSans-61" x="788.912109"/>
      <use xlink:href="#DejaVuSans-6c" x="850.191406"/>
      <use xlink:href="#DejaVuSans-73" x="877.974609"/>
     </g>
    </g>
   </g>
   <g id="line2d_49">
    <path d="M 9.667068 293.76 
L 9.667068 213.279683 
L 54.923363 213.279683 
L 54.923363 205.614891 
L 62.208 205.614891 
L 62.208 197.950099 
L 73.19231 197.950099 
L 73.19231 194.117703 
L 81.396599 194.117703 
L 81.396599 190.285307 
L 84.836148 190.285307 
L 84.836148 186.452911 
L 87.947598 186.452911 
L 87.947598 182.620515 
L 90.788129 182.620515 
L 90.788129 178.788119 
L 93.401165 178.788119 
L 93.401165 174.955723 
L 105.7898 174.955723 
L 105.7898 171.123327 
L 109.057076 171.123327 
L 109.057076 167.290931 
L 130.092444 167.290931 
L 130.092444 163.458535 
L 139.889513 163.458535 
L 139.889513 159.626139 
L 143.329062 159.626139 
L 143.329062 155.793743 
L 147.891662 155.793743 
L 147.891662 151.961347 
L 149.281043 151.961347 
L 149.281043 144.296554 
L 155.458946 144.296554 
L 155.458946 140.464158 
L 156.200921 140.464158 
L 156.200921 136.631762 
L 156.56568 136.631762 
L 156.56568 132.799366 
L 159.3457 132.799366 
L 159.3457 128.96697 
L 159.67713 128.96697 
L 159.67713 125.134574 
L 166.496817 125.134574 
L 166.496817 121.302178 
L 169.315042 121.302178 
L 169.315042 117.469782 
L 170.282387 117.469782 
L 170.282387 113.637386 
L 170.51981 113.637386 
L 170.51981 109.80499 
L 172.359481 109.80499 
L 172.359481 105.972594 
L 179.733435 105.972594 
L 179.733435 102.140198 
L 180.088281 102.140198 
L 180.088281 98.307802 
L 180.439312 98.307802 
L 180.439312 94.475406 
L 180.95888 94.475406 
L 180.95888 90.64301 
L 182.95821 90.64301 
L 182.95821 86.810614 
L 184.842127 86.810614 
L 184.842127 82.978218 
L 190.436206 82.978218 
L 190.436206 79.145822 
L 192.671373 79.145822 
L 192.671373 75.313426 
L 192.791173 75.313426 
L 192.791173 71.48103 
L 195.651628 71.48103 
L 195.651628 67.648634 
L 195.869994 67.648634 
L 195.869994 63.816238 
L 197.462774 63.816238 
L 197.462774 59.983842 
L 198.382427 59.983842 
L 198.382427 56.151446 
L 199.08022 56.151446 
L 199.08022 52.31905 
L 201.548789 52.31905 
L 201.548789 48.486653 
L 204.435011 48.486653 
L 204.435011 44.654257 
L 205.424345 44.654257 
L 205.424345 40.821861 
L 209.539009 40.821861 
L 209.539009 36.989465 
L 211.484424 36.989465 
L 211.484424 33.157069 
L 215.299521 33.157069 
L 215.299521 29.324673 
L 216.880868 29.324673 
L 216.880868 25.492277 
L 222.680033 25.492277 
L 222.680033 21.659881 
L 222.918496 21.659881 
L 222.918496 17.827485 
L 223.993535 17.827485 
L 223.993535 13.995089 
L 262.265549 13.995089 
L 262.265549 10.162693 
L 265.823052 10.162693 
L 265.823052 6.330297 
L 265.823052 6.330297 
L 460.8 6.330297 
L 460.8 6.330297 
" clip-path="url(#pf1ff101641)" style="fill: none; stroke: #000000; stroke-width: 1.5; stroke-linecap: square"/>
   </g>
   <g id="line2d_50">
    <path clip-path="url(#pf1ff101641)" style="fill: none; stroke: #000000; stroke-width: 1.5; stroke-linecap: square"/>
   </g>
   <g id="line2d_51">
    <path d="M 192.065687 293.76 
L 192.065687 289.927604 
L 196.302391 289.927604 
L 196.302391 286.095208 
L 199.374768 286.095208 
L 199.374768 282.262812 
L 199.666682 282.262812 
L 199.666682 278.430416 
L 200.808916 278.430416 
L 200.808916 274.59802 
L 201.365387 274.59802 
L 201.365387 270.765624 
L 201.731167 270.765624 
L 201.731167 266.933228 
L 202.628078 266.933228 
L 202.628078 263.100832 
L 203.067459 263.100832 
L 203.067459 259.268436 
L 203.241569 259.268436 
L 203.241569 255.43604 
L 204.850883 255.43604 
L 204.850883 251.603644 
L 205.01576 251.603644 
L 205.01576 247.771248 
L 205.907991 247.771248 
L 205.907991 243.938851 
L 207.470275 243.938851 
L 207.470275 240.106455 
L 207.999878 240.106455 
L 207.999878 236.274059 
L 209.179077 236.274059 
L 209.179077 232.441663 
L 213.447672 232.441663 
L 213.447672 228.609267 
L 214.386725 228.609267 
L 214.386725 224.776871 
L 214.632644 224.776871 
L 214.632644 220.944475 
L 214.998083 220.944475 
L 214.998083 217.112079 
L 218.004749 217.112079 
L 218.004749 213.279683 
L 220.960157 213.279683 
L 220.960157 209.447287 
L 230.88964 209.447287 
L 230.88964 205.614891 
L 231.038198 205.614891 
L 231.038198 201.782495 
L 233.292976 201.782495 
L 233.292976 197.950099 
L 239.077381 197.950099 
L 239.077381 194.117703 
L 266.203836 194.117703 
L 266.203836 190.285307 
L 267.912386 190.285307 
L 267.912386 186.452911 
L 268.198543 186.452911 
L 268.198543 182.620515 
L 273.702295 182.620515 
L 273.702295 178.788119 
L 274.543848 178.788119 
L 274.543848 174.955723 
L 274.777588 174.955723 
L 274.777588 171.123327 
L 276.580415 171.123327 
L 276.580415 167.290931 
L 277.876685 167.290931 
L 277.876685 163.458535 
L 278.175381 163.458535 
L 278.175381 159.626139 
L 281.029028 159.626139 
L 281.029028 155.793743 
L 284.042717 155.793743 
L 284.042717 151.961347 
L 287.168777 151.961347 
L 287.168777 148.12895 
L 289.500218 148.12895 
L 289.500218 144.296554 
L 290.456597 144.296554 
L 290.456597 140.464158 
L 298.130315 140.464158 
L 298.130315 136.631762 
L 299.213154 136.631762 
L 299.213154 132.799366 
L 299.391708 132.799366 
L 299.391708 128.96697 
L 299.849627 128.96697 
L 299.849627 125.134574 
L 303.697217 125.134574 
L 303.697217 121.302178 
L 312.967471 121.302178 
L 312.967471 117.469782 
L 313.656026 117.469782 
L 313.656026 113.637386 
L 313.855981 113.637386 
L 313.855981 109.80499 
L 314.019735 109.80499 
L 314.019735 105.972594 
L 314.557813 105.972594 
L 314.557813 102.140198 
L 315.242063 102.140198 
L 315.242063 98.307802 
L 316.213654 98.307802 
L 316.213654 94.475406 
L 319.902611 94.475406 
L 319.902611 90.64301 
L 320.758463 90.64301 
L 320.758463 86.810614 
L 320.917058 86.810614 
L 320.917058 82.978218 
L 321.397578 82.978218 
L 321.397578 79.145822 
L 331.360551 79.145822 
L 331.360551 75.313426 
L 331.98391 75.313426 
L 332.054495 67.648634 
L 332.757005 67.648634 
L 332.757005 63.816238 
L 333.861931 63.816238 
L 333.925404 56.151446 
L 336.757083 56.151446 
L 336.757083 52.31905 
L 339.036222 52.31905 
L 339.036222 48.486653 
L 344.273753 48.486653 
L 344.273753 44.654257 
L 348.28647 44.654257 
L 348.28647 40.821861 
L 349.145029 40.821861 
L 349.145029 36.989465 
L 349.331473 36.989465 
L 349.331473 33.157069 
L 349.608178 33.157069 
L 349.608178 29.324673 
L 350.023243 29.324673 
L 350.023243 25.492277 
L 352.626521 25.492277 
L 352.626521 21.659881 
L 354.15547 21.659881 
L 354.15547 17.827485 
L 354.49492 17.827485 
L 354.49492 13.995089 
L 366.967071 13.995089 
L 366.967071 10.162693 
L 378.519114 10.162693 
L 378.519114 6.330297 
L 378.519114 6.330297 
L 460.8 6.330297 
L 460.8 6.330297 
" clip-path="url(#pf1ff101641)" style="fill: none; stroke: #00bfbf; stroke-width: 1.5; stroke-linecap: square"/>
   </g>
   <g id="line2d_52">
    <path clip-path="url(#pf1ff101641)" style="fill: none; stroke: #00bfbf; stroke-width: 1.5; stroke-linecap: square"/>
   </g>
   <g id="line2d_53">
    <path d="M 225.999693 293.76 
L 225.999693 289.927604 
L 226.514482 289.927604 
L 226.514482 286.095208 
L 231.62576 286.095208 
L 231.62576 282.262812 
L 233.154354 282.262812 
L 233.154354 278.430416 
L 235.239534 278.430416 
L 235.239534 274.59802 
L 236.328887 274.59802 
L 236.328887 270.765624 
L 239.279521 270.765624 
L 239.279521 266.933228 
L 242.485051 266.933228 
L 242.485051 263.100832 
L 274.612196 263.100832 
L 274.612196 259.268436 
L 275.383309 259.268436 
L 275.383309 255.43604 
L 276.900247 255.43604 
L 276.900247 251.603644 
L 277.10873 251.603644 
L 277.10873 247.771248 
L 277.664183 247.771248 
L 277.664183 243.938851 
L 277.920783 243.938851 
L 278.000009 236.274059 
L 279.259078 236.274059 
L 279.259078 232.441663 
L 279.72107 232.441663 
L 279.72107 228.609267 
L 280.479536 228.609267 
L 280.479536 224.776871 
L 281.718831 224.776871 
L 281.718831 220.944475 
L 282.101019 220.944475 
L 282.101019 217.112079 
L 282.601196 217.112079 
L 282.601196 213.279683 
L 283.616164 213.279683 
L 283.616164 205.614891 
L 283.866888 205.614891 
L 283.866888 201.782495 
L 284.152131 201.782495 
L 284.152131 197.950099 
L 284.535817 197.950099 
L 284.535817 194.117703 
L 284.72956 194.117703 
L 284.72956 190.285307 
L 285.965057 190.285307 
L 285.999482 182.620515 
L 287.656426 182.620515 
L 287.656426 178.788119 
L 295.399612 178.788119 
L 295.399612 174.955723 
L 301.891455 174.955723 
L 301.891455 171.123327 
L 302.077014 171.123327 
L 302.077014 167.290931 
L 302.370063 167.290931 
L 302.370063 163.458535 
L 302.845863 163.458535 
L 302.845863 159.626139 
L 306.110792 159.626139 
L 306.173911 151.961347 
L 307.695785 151.961347 
L 307.695785 148.12895 
L 310.173189 148.12895 
L 310.173189 144.296554 
L 311.582936 144.296554 
L 311.582936 140.464158 
L 315.757757 140.464158 
L 315.757757 136.631762 
L 316.338868 136.631762 
L 316.338868 132.799366 
L 316.574381 132.799366 
L 316.574381 128.96697 
L 316.773374 128.96697 
L 316.773374 125.134574 
L 317.120046 125.134574 
L 317.120046 121.302178 
L 318.066435 121.302178 
L 318.066435 117.469782 
L 322.326602 117.469782 
L 322.326602 113.637386 
L 323.32876 113.637386 
L 323.32876 109.80499 
L 323.651748 109.80499 
L 323.651748 105.972594 
L 323.971571 105.972594 
L 323.971571 102.140198 
L 324.782866 102.140198 
L 324.782866 98.307802 
L 332.8538 98.307802 
L 332.8538 94.475406 
L 333.831738 94.475406 
L 333.831738 90.64301 
L 334.075658 90.64301 
L 334.075658 86.810614 
L 334.926069 86.810614 
L 334.926069 82.978218 
L 335.265604 82.978218 
L 335.265604 79.145822 
L 342.861573 79.145822 
L 342.861573 75.313426 
L 350.74709 75.313426 
L 350.74709 71.48103 
L 351.11713 71.48103 
L 351.123683 63.816238 
L 351.327112 63.816238 
L 351.327112 59.983842 
L 351.832037 59.983842 
L 351.832037 56.151446 
L 354.199798 56.151446 
L 354.199798 52.31905 
L 355.760069 52.31905 
L 355.760069 48.486653 
L 359.350326 48.486653 
L 359.350326 44.654257 
L 362.941726 44.654257 
L 362.941726 40.821861 
L 364.983664 40.821861 
L 364.983664 36.989465 
L 367.188713 36.989465 
L 367.188713 33.157069 
L 377.825455 33.157069 
L 377.825455 29.324673 
L 379.499187 29.324673 
L 379.499187 25.492277 
L 390.987349 25.492277 
L 390.987349 21.659881 
L 400.963939 21.659881 
L 400.963939 17.827485 
L 404.572045 17.827485 
L 404.572045 13.995089 
L 405.014946 13.995089 
L 405.014946 10.162693 
L 409.955407 10.162693 
L 409.955407 6.330297 
L 409.955407 6.330297 
L 460.8 6.330297 
L 460.8 6.330297 
" clip-path="url(#pf1ff101641)" style="fill: none; stroke: #bf00bf; stroke-width: 1.5; stroke-linecap: square"/>
   </g>
   <g id="line2d_54">
    <path clip-path="url(#pf1ff101641)" style="fill: none; stroke: #bf00bf; stroke-width: 1.5; stroke-linecap: square"/>
   </g>
   <g id="line2d_55">
    <path d="M 240.299777 293.76 
L 240.299777 289.927604 
L 242.091252 289.927604 
L 242.091252 286.095208 
L 243.436583 286.095208 
L 243.436583 282.262812 
L 255.292635 282.262812 
L 255.292635 278.430416 
L 278.480034 278.430416 
L 278.480034 274.59802 
L 278.87616 274.59802 
L 278.87616 270.765624 
L 281.687433 270.765624 
L 281.687433 266.933228 
L 283.74914 266.933228 
L 283.74914 263.100832 
L 284.657937 263.100832 
L 284.657937 259.268436 
L 286.375784 259.268436 
L 286.375784 255.43604 
L 286.962306 255.43604 
L 287.029052 247.771248 
L 288.863516 247.771248 
L 288.863516 243.938851 
L 289.227084 243.938851 
L 289.227084 240.106455 
L 289.728143 240.106455 
L 289.728143 236.274059 
L 290.19138 236.274059 
L 290.19138 232.441663 
L 290.486599 232.441663 
L 290.486599 228.609267 
L 291.484794 228.609267 
L 291.484794 224.776871 
L 292.447723 224.776871 
L 292.447723 220.944475 
L 292.840709 220.944475 
L 292.840709 217.112079 
L 293.640006 217.112079 
L 293.640006 213.279683 
L 305.083929 213.279683 
L 305.083929 209.447287 
L 305.278943 209.447287 
L 305.278943 205.614891 
L 305.571185 205.614891 
L 305.661741 197.950099 
L 312.783195 197.950099 
L 312.783195 194.117703 
L 313.132735 194.117703 
L 313.132735 190.285307 
L 313.664873 190.285307 
L 313.664873 186.452911 
L 313.797298 186.452911 
L 313.797298 182.620515 
L 314.19428 182.620515 
L 314.19428 178.788119 
L 314.897472 178.788119 
L 314.957047 171.123327 
L 315.354257 171.123327 
L 315.354257 167.290931 
L 315.696856 167.290931 
L 315.696856 163.458535 
L 316.057828 163.458535 
L 316.057828 159.626139 
L 316.869745 159.626139 
L 316.869745 155.793743 
L 317.297288 155.793743 
L 317.297288 151.961347 
L 318.807803 151.961347 
L 318.807803 148.12895 
L 319.734102 148.12895 
L 319.778145 136.631762 
L 320.026605 136.631762 
L 320.026605 132.799366 
L 320.273188 132.799366 
L 320.273188 128.96697 
L 320.938303 128.96697 
L 320.938303 125.134574 
L 325.087694 125.134574 
L 325.087694 121.302178 
L 326.009713 121.302178 
L 326.009713 117.469782 
L 326.229183 117.469782 
L 326.229183 113.637386 
L 326.900508 113.637386 
L 326.900508 109.80499 
L 327.42316 109.80499 
L 327.42316 105.972594 
L 333.657986 105.972594 
L 333.657986 102.140198 
L 334.892228 102.140198 
L 334.892228 98.307802 
L 335.958101 98.307802 
L 335.958101 94.475406 
L 336.262045 94.475406 
L 336.262045 90.64301 
L 336.375482 90.64301 
L 336.375482 86.810614 
L 336.80066 86.810614 
L 336.80066 82.978218 
L 337.047949 82.978218 
L 337.047949 79.145822 
L 343.51213 79.145822 
L 343.51213 75.313426 
L 352.585373 75.313426 
L 352.585373 71.48103 
L 353.051942 71.48103 
L 353.051942 67.648634 
L 353.183153 67.648634 
L 353.183153 63.816238 
L 353.393397 63.816238 
L 353.393397 59.983842 
L 353.989556 59.983842 
L 353.989556 56.151446 
L 355.417176 56.151446 
L 355.417176 52.31905 
L 356.717216 52.31905 
L 356.717216 48.486653 
L 360.27493 48.486653 
L 360.27493 44.654257 
L 363.820745 44.654257 
L 363.820745 40.821861 
L 365.566191 40.821861 
L 365.566191 36.989465 
L 367.972938 36.989465 
L 367.972938 33.157069 
L 378.554282 33.157069 
L 378.554282 29.324673 
L 379.995032 29.324673 
L 379.995032 25.492277 
L 391.436962 25.492277 
L 391.436962 21.659881 
L 401.747566 21.659881 
L 401.747566 17.827485 
L 405.303409 17.827485 
L 405.303409 13.995089 
L 405.695247 13.995089 
L 405.695247 10.162693 
L 410.575273 10.162693 
L 410.575273 6.330297 
L 410.575273 6.330297 
L 460.8 6.330297 
L 460.8 6.330297 
" clip-path="url(#pf1ff101641)" style="fill: none; stroke: #ff0000; stroke-width: 3; stroke-linecap: square"/>
   </g>
   <g id="line2d_56">
    <path clip-path="url(#pf1ff101641)" style="fill: none; stroke: #ff0000; stroke-width: 3; stroke-linecap: square"/>
   </g>
   <g id="line2d_57">
    <path d="M 410.575273 293.76 
L 410.575273 3.456 
" clip-path="url(#pf1ff101641)" style="fill: none; stroke: #000000; stroke-width: 1.5; stroke-linecap: square"/>
   </g>
   <g id="patch_3">
    <path d="M 62.208 293.76 
L 62.208 3.456 
" style="fill: none; stroke: #000000; stroke-width: 0.8; stroke-linejoin: miter; stroke-linecap: square"/>
   </g>
   <g id="patch_4">
    <path d="M 460.8 293.76 
L 460.8 3.456 
" style="fill: none; stroke: #000000; stroke-width: 0.8; stroke-linejoin: miter; stroke-linecap: square"/>
   </g>
   <g id="patch_5">
    <path d="M 62.208 293.76 
L 460.8 293.76 
" style="fill: none; stroke: #000000; stroke-width: 0.8; stroke-linejoin: miter; stroke-linecap: square"/>
   </g>
   <g id="patch_6">
    <path d="M 62.208 3.456 
L 460.8 3.456 
" style="fill: none; stroke: #000000; stroke-width: 0.8; stroke-linejoin: miter; stroke-linecap: square"/>
   </g>
   <g id="text_12">
    <!-- {f15-f19}, 5-D -->
    <g transform="translate(188.654 24.458955)scale(0.2 -0.2)">
     <defs>
      <path id="DejaVuSans-7b" d="M 3272 -594 
L 3272 -1044 
L 3078 -1044 
Q 2300 -1044 2036 -812 
Q 1772 -581 1772 109 
L 1772 856 
Q 1772 1328 1603 1509 
Q 1434 1691 991 1691 
L 800 1691 
L 800 2138 
L 991 2138 
Q 1438 2138 1605 2317 
Q 1772 2497 1772 2963 
L 1772 3713 
Q 1772 4403 2036 4633 
Q 2300 4863 3078 4863 
L 3272 4863 
L 3272 4416 
L 3059 4416 
Q 2619 4416 2484 4278 
Q 2350 4141 2350 3700 
L 2350 2925 
Q 2350 2434 2208 2212 
Q 2066 1991 1722 1913 
Q 2069 1828 2209 1606 
Q 2350 1384 2350 897 
L 2350 122 
Q 2350 -319 2484 -456 
Q 2619 -594 3059 -594 
L 3272 -594 
z
" transform="scale(0.015625)"/>
      <path id="DejaVuSans-35" d="M 691 4666 
L 3169 4666 
L 3169 4134 
L 1269 4134 
L 1269 2991 
Q 1406 3038 1543 3061 
Q 1681 3084 1819 3084 
Q 2600 3084 3056 2656 
Q 3513 2228 3513 1497 
Q 3513 744 3044 326 
Q 2575 -91 1722 -91 
Q 1428 -91 1123 -41 
Q 819 9 494 109 
L 494 744 
Q 775 591 1075 516 
Q 1375 441 1709 441 
Q 2250 441 2565 725 
Q 2881 1009 2881 1497 
Q 2881 1984 2565 2268 
Q 2250 2553 1709 2553 
Q 1456 2553 1204 2497 
Q 953 2441 691 2322 
L 691 4666 
z
" transform="scale(0.015625)"/>
      <path id="DejaVuSans-2d" d="M 313 2009 
L 1997 2009 
L 1997 1497 
L 313 1497 
L 313 2009 
z
" transform="scale(0.015625)"/>
      <path id="DejaVuSans-39" d="M 703 97 
L 703 672 
Q 941 559 1184 500 
Q 1428 441 1663 441 
Q 2288 441 2617 861 
Q 2947 1281 2994 2138 
Q 2813 1869 2534 1725 
Q 2256 1581 1919 1581 
Q 1219 1581 811 2004 
Q 403 2428 403 3163 
Q 403 3881 828 4315 
Q 1253 4750 1959 4750 
Q 2769 4750 3195 4129 
Q 3622 3509 3622 2328 
Q 3622 1225 3098 567 
Q 2575 -91 1691 -91 
Q 1453 -91 1209 -44 
Q 966 3 703 97 
z
M 1959 2075 
Q 2384 2075 2632 2365 
Q 2881 2656 2881 3163 
Q 2881 3666 2632 3958 
Q 2384 4250 1959 4250 
Q 1534 4250 1286 3958 
Q 1038 3666 1038 3163 
Q 1038 2656 1286 2365 
Q 1534 2075 1959 2075 
z
" transform="scale(0.015625)"/>
      <path id="DejaVuSans-7d" d="M 800 -594 
L 1019 -594 
Q 1456 -594 1589 -459 
Q 1722 -325 1722 122 
L 1722 897 
Q 1722 1384 1862 1606 
Q 2003 1828 2350 1913 
Q 2003 1991 1862 2212 
Q 1722 2434 1722 2925 
L 1722 3700 
Q 1722 4144 1589 4280 
Q 1456 4416 1019 4416 
L 800 4416 
L 800 4863 
L 997 4863 
Q 1775 4863 2036 4633 
Q 2297 4403 2297 3713 
L 2297 2963 
Q 2297 2497 2465 2317 
Q 2634 2138 3078 2138 
L 3272 2138 
L 3272 1691 
L 3078 1691 
Q 2634 1691 2465 1509 
Q 2297 1328 2297 856 
L 2297 109 
Q 2297 -581 2036 -812 
Q 1775 -1044 997 -1044 
L 800 -1044 
L 800 -594 
z
" transform="scale(0.015625)"/>
      <path id="DejaVuSans-2c" d="M 750 794 
L 1409 794 
L 1409 256 
L 897 -744 
L 494 -744 
L 750 256 
L 750 794 
z
" transform="scale(0.015625)"/>
     </defs>
     <use xlink:href="#DejaVuSans-7b"/>
     <use xlink:href="#DejaVuSans-66" x="63.623047"/>
     <use xlink:href="#DejaVuSans-31" x="98.828125"/>
     <use xlink:href="#DejaVuSans-35" x="162.451172"/>
     <use xlink:href="#DejaVuSans-2d" x="226.074219"/>
     <use xlink:href="#DejaVuSans-66" x="262.158203"/>
     <use xlink:href="#DejaVuSans-31" x="297.363281"/>
     <use xlink:href="#DejaVuSans-39" x="360.986328"/>
     <use xlink:href="#DejaVuSans-7d" x="424.609375"/>
     <use xlink:href="#DejaVuSans-2c" x="488.232422"/>
     <use xlink:href="#DejaVuSans-20" x="520.019531"/>
     <use xlink:href="#DejaVuSans-35" x="551.806641"/>
     <use xlink:href="#DejaVuSans-2d" x="615.429688"/>
     <use xlink:href="#DejaVuSans-44" x="651.513672"/>
    </g>
   </g>
   <g id="text_13">
    <!-- absolute targets -->
    <g transform="translate(62.208 609.932673)scale(0.14 -0.14)">
     <defs>
      <path id="DejaVuSans-62" d="M 3116 1747 
Q 3116 2381 2855 2742 
Q 2594 3103 2138 3103 
Q 1681 3103 1420 2742 
Q 1159 2381 1159 1747 
Q 1159 1113 1420 752 
Q 1681 391 2138 391 
Q 2594 391 2855 752 
Q 3116 1113 3116 1747 
z
M 1159 2969 
Q 1341 3281 1617 3432 
Q 1894 3584 2278 3584 
Q 2916 3584 3314 3078 
Q 3713 2572 3713 1747 
Q 3713 922 3314 415 
Q 2916 -91 2278 -91 
Q 1894 -91 1617 61 
Q 1341 213 1159 525 
L 1159 0 
L 581 0 
L 581 4863 
L 1159 4863 
L 1159 2969 
z
" transform="scale(0.015625)"/>
      <path id="DejaVuSans-75" d="M 544 1381 
L 544 3500 
L 1119 3500 
L 1119 1403 
Q 1119 906 1312 657 
Q 1506 409 1894 409 
Q 2359 409 2629 706 
Q 2900 1003 2900 1516 
L 2900 3500 
L 3475 3500 
L 3475 0 
L 2900 0 
L 2900 538 
Q 2691 219 2414 64 
Q 2138 -91 1772 -91 
Q 1169 -91 856 284 
Q 544 659 544 1381 
z
M 1991 3584 
L 1991 3584 
z
" transform="scale(0.015625)"/>
      <path id="DejaVuSans-65" d="M 3597 1894 
L 3597 1613 
L 953 1613 
Q 991 1019 1311 708 
Q 1631 397 2203 397 
Q 2534 397 2845 478 
Q 3156 559 3463 722 
L 3463 178 
Q 3153 47 2828 -22 
Q 2503 -91 2169 -91 
Q 1331 -91 842 396 
Q 353 884 353 1716 
Q 353 2575 817 3079 
Q 1281 3584 2069 3584 
Q 2775 3584 3186 3129 
Q 3597 2675 3597 1894 
z
M 3022 2063 
Q 3016 2534 2758 2815 
Q 2500 3097 2075 3097 
Q 1594 3097 1305 2825 
Q 1016 2553 972 2059 
L 3022 2063 
z
" transform="scale(0.015625)"/>
     </defs>
     <use xlink:href="#DejaVuSans-61"/>
     <use xlink:href="#DejaVuSans-62" x="61.279297"/>
     <use xlink:href="#DejaVuSans-73" x="124.755859"/>
     <use xlink:href="#DejaVuSans-6f" x="176.855469"/>
     <use xlink:href="#DejaVuSans-6c" x="238.037109"/>
     <use xlink:href="#DejaVuSans-75" x="265.820312"/>
     <use xlink:href="#DejaVuSans-74" x="329.199219"/>
     <use xlink:href="#DejaVuSans-65" x="368.408203"/>
     <use xlink:href="#DejaVuSans-20" x="429.931641"/>
     <use xlink:href="#DejaVuSans-74" x="461.71875"/>
     <use xlink:href="#DejaVuSans-61" x="500.927734"/>
     <use xlink:href="#DejaVuSans-72" x="562.207031"/>
     <use xlink:href="#DejaVuSans-67" x="601.570312"/>
     <use xlink:href="#DejaVuSans-65" x="665.046875"/>
     <use xlink:href="#DejaVuSans-74" x="726.570312"/>
     <use xlink:href="#DejaVuSans-73" x="765.779297"/>
    </g>
   </g>
   <g id="text_14">
    <!-- v2.6.3 -->
    <g style="fill: #808080" transform="translate(245.82275 288.777272)scale(0.1 -0.1)">
     <defs>
      <path id="DejaVuSans-33" d="M 2597 2516 
Q 3050 2419 3304 2112 
Q 3559 1806 3559 1356 
Q 3559 666 3084 287 
Q 2609 -91 1734 -91 
Q 1441 -91 1130 -33 
Q 819 25 488 141 
L 488 750 
Q 750 597 1062 519 
Q 1375 441 1716 441 
Q 2309 441 2620 675 
Q 2931 909 2931 1356 
Q 2931 1769 2642 2001 
Q 2353 2234 1838 2234 
L 1294 2234 
L 1294 2753 
L 1863 2753 
Q 2328 2753 2575 2939 
Q 2822 3125 2822 3475 
Q 2822 3834 2567 4026 
Q 2313 4219 1838 4219 
Q 1578 4219 1281 4162 
Q 984 4106 628 3988 
L 628 4550 
Q 988 4650 1302 4700 
Q 1616 4750 1894 4750 
Q 2613 4750 3031 4423 
Q 3450 4097 3450 3541 
Q 3450 3153 3228 2886 
Q 3006 2619 2597 2516 
z
" transform="scale(0.015625)"/>
     </defs>
     <use xlink:href="#DejaVuSans-76"/>
     <use xlink:href="#DejaVuSans-32" x="59.179688"/>
     <use xlink:href="#DejaVuSans-2e" x="122.802734"/>
     <use xlink:href="#DejaVuSans-36" x="154.589844"/>
     <use xlink:href="#DejaVuSans-2e" x="218.212891"/>
     <use xlink:href="#DejaVuSans-33" x="250"/>
    </g>
   </g>
   <g id="legend_1">
    <g id="patch_7">
     <path d="M 76.208 283.76 
L 205.429875 283.76 
Q 209.429875 283.76 209.429875 279.76 
L 209.429875 164.335 
Q 209.429875 160.335 205.429875 160.335 
L 76.208 160.335 
Q 72.208 160.335 72.208 164.335 
L 72.208 279.76 
Q 72.208 283.76 76.208 283.76 
z
" style="fill: #ffffff; opacity: 0.2; stroke: #cccccc; stroke-linejoin: miter"/>
    </g>
    <g id="line2d_58">
     <path d="M 80.208 176.531875 
L 80.208 176.531875 
L 100.208 176.531875 
L 100.208 176.531875 
L 120.208 176.531875 
" style="fill: none; stroke: #000000; stroke-width: 1.5; stroke-linecap: square"/>
    </g>
    <g id="text_15">
     <!-- 1: 5/5 -->
     <g transform="translate(136.208 183.531875)scale(0.2 -0.2)">
      <defs>
       <path id="DejaVuSans-3a" d="M 750 794 
L 1409 794 
L 1409 0 
L 750 0 
L 750 794 
z
M 750 3309 
L 1409 3309 
L 1409 2516 
L 750 2516 
L 750 3309 
z
" transform="scale(0.015625)"/>
      </defs>
      <use xlink:href="#DejaVuSans-31"/>
      <use xlink:href="#DejaVuSans-3a" x="63.623047"/>
      <use xlink:href="#DejaVuSans-20" x="97.314453"/>
      <use xlink:href="#DejaVuSans-35" x="129.101562"/>
      <use xlink:href="#DejaVuSans-2f" x="192.724609"/>
      <use xlink:href="#DejaVuSans-35" x="226.416016"/>
     </g>
    </g>
    <g id="line2d_59">
     <path d="M 80.208 205.888125 
L 80.208 205.888125 
L 100.208 205.888125 
L 100.208 205.888125 
L 120.208 205.888125 
" style="fill: none; stroke: #00bfbf; stroke-width: 1.5; stroke-linecap: square"/>
    </g>
    <g id="text_16">
     <!-- -1: 5/5 -->
     <g transform="translate(136.208 212.888125)scale(0.2 -0.2)">
      <use xlink:href="#DejaVuSans-2d"/>
      <use xlink:href="#DejaVuSans-31" x="36.083984"/>
      <use xlink:href="#DejaVuSans-3a" x="99.707031"/>
      <use xlink:href="#DejaVuSans-20" x="133.398438"/>
      <use xlink:href="#DejaVuSans-35" x="165.185547"/>
      <use xlink:href="#DejaVuSans-2f" x="228.808594"/>
      <use xlink:href="#DejaVuSans-35" x="262.5"/>
     </g>
    </g>
    <g id="line2d_60">
     <path d="M 80.208 235.244375 
L 80.208 235.244375 
L 100.208 235.244375 
L 100.208 235.244375 
L 120.208 235.244375 
" style="fill: none; stroke: #bf00bf; stroke-width: 1.5; stroke-linecap: square"/>
    </g>
    <g id="text_17">
     <!-- -4: 5/5 -->
     <g transform="translate(136.208 242.244375)scale(0.2 -0.2)">
      <use xlink:href="#DejaVuSans-2d"/>
      <use xlink:href="#DejaVuSans-34" x="36.083984"/>
      <use xlink:href="#DejaVuSans-3a" x="99.707031"/>
      <use xlink:href="#DejaVuSans-20" x="133.398438"/>
      <use xlink:href="#DejaVuSans-35" x="165.185547"/>
      <use xlink:href="#DejaVuSans-2f" x="228.808594"/>
      <use xlink:href="#DejaVuSans-35" x="262.5"/>
     </g>
    </g>
    <g id="line2d_61">
     <path d="M 80.208 264.600625 
L 80.208 264.600625 
L 100.208 264.600625 
L 100.208 264.600625 
L 120.208 264.600625 
" style="fill: none; stroke: #ff0000; stroke-width: 3; stroke-linecap: square"/>
    </g>
    <g id="text_18">
     <!-- -8: 5/5 -->
     <g transform="translate(136.208 271.600625)scale(0.2 -0.2)">
      <use xlink:href="#DejaVuSans-2d"/>
      <use xlink:href="#DejaVuSans-38" x="36.083984"/>
      <use xlink:href="#DejaVuSans-3a" x="99.707031"/>
      <use xlink:href="#DejaVuSans-20" x="133.398438"/>
      <use xlink:href="#DejaVuSans-35" x="165.185547"/>
      <use xlink:href="#DejaVuSans-2f" x="228.808594"/>
      <use xlink:href="#DejaVuSans-35" x="262.5"/>
     </g>
    </g>
   </g>
  </g>
 </g>
 <defs>
  <clipPath id="pf1ff101641">
   <rect x="62.208" y="3.456" width="398.592" height="290.304"/>
  </clipPath>
 </defs>
</svg>
