<?xml version="1.0" encoding="utf-8" standalone="no"?>
<!DOCTYPE svg PUBLIC "-//W3C//DTD SVG 1.1//EN"
  "http://www.w3.org/Graphics/SVG/1.1/DTD/svg11.dtd">
<svg xmlns:xlink="http://www.w3.org/1999/xlink" width="460.8pt" height="345.6pt" viewBox="0 0 460.8 345.6" xmlns="http://www.w3.org/2000/svg" version="1.1">
 <metadata>
  <rdf:RDF xmlns:dc="http://purl.org/dc/elements/1.1/" xmlns:cc="http://creativecommons.org/ns#" xmlns:rdf="http://www.w3.org/1999/02/22-rdf-syntax-ns#">
   <cc:Work>
    <dc:type rdf:resource="http://purl.org/dc/dcmitype/StillImage"/>
    <dc:date>2023-04-03T10:09:10.596828</dc:date>
    <dc:format>image/svg+xml</dc:format>
    <dc:creator>
     <cc:Agent>
      <dc:title>Matplotlib v3.5.2, https://matplotlib.org/</dc:title>
     </cc:Agent>
    </dc:creator>
   </cc:Work>
  </rdf:RDF>
 </metadata>
 <defs>
  <style type="text/css">*{stroke-linejoin: round; stroke-linecap: butt}</style>
 </defs>
 <g id="figure_1">
  <g id="patch_1">
   <path d="M 0 345.6 
L 460.8 345.6 
L 460.8 0 
L 0 0 
z
" style="fill: #ffffff"/>
  </g>
  <g id="axes_1">
   <g id="patch_2">
    <path d="M 34.16 291.28 
L 453.192 291.28 
L 453.192 3 
L 34.16 3 
z
" style="fill: #ffffff"/>
   </g>
   <g id="matplotlib.axis_1">
    <g id="xtick_1">
     <g id="line2d_1">
      <path d="M 144.268688 291.28 
L 144.268688 3 
" clip-path="url(#p5fd8a669e0)" style="fill: none; stroke: #b0b0b0; stroke-width: 0.8; stroke-linecap: square"/>
     </g>
     <g id="line2d_2">
      <defs>
       <path id="m048a034b4d" d="M 0 0 
L 0 3.5 
" style="stroke: #000000; stroke-width: 0.8"/>
      </defs>
      <g>
       <use xlink:href="#m048a034b4d" x="144.268688" y="291.28" style="stroke: #000000; stroke-width: 0.8"/>
      </g>
     </g>
     <g id="text_1">
      <!-- -1 -->
      <g transform="translate(134.298376 313.476875)scale(0.2 -0.2)">
       <defs>
        <path id="DejaVuSans-2d" d="M 313 2009 
L 1997 2009 
L 1997 1497 
L 313 1497 
L 313 2009 
z
" transform="scale(0.015625)"/>
        <path id="DejaVuSans-31" d="M 794 531 
L 1825 531 
L 1825 4091 
L 703 3866 
L 703 4441 
L 1819 4666 
L 2450 4666 
L 2450 531 
L 3481 531 
L 3481 0 
L 794 0 
L 794 531 
z
" transform="scale(0.015625)"/>
       </defs>
       <use xlink:href="#DejaVuSans-2d"/>
       <use xlink:href="#DejaVuSans-31" x="36.083984"/>
      </g>
     </g>
    </g>
    <g id="xtick_2">
     <g id="line2d_3">
      <path d="M 343.083312 291.28 
L 343.083312 3 
" clip-path="url(#p5fd8a669e0)" style="fill: none; stroke: #b0b0b0; stroke-width: 0.8; stroke-linecap: square"/>
     </g>
     <g id="line2d_4">
      <g>
       <use xlink:href="#m048a034b4d" x="343.083312" y="291.28" style="stroke: #000000; stroke-width: 0.8"/>
      </g>
     </g>
     <g id="text_2">
      <!-- 1 -->
      <g transform="translate(336.720812 313.476875)scale(0.2 -0.2)">
       <use xlink:href="#DejaVuSans-31"/>
      </g>
     </g>
    </g>
    <g id="xtick_3">
     <g id="line2d_5">
      <defs>
       <path id="m4f0f2119ea" d="M 0 0 
L 0 2 
" style="stroke: #000000; stroke-width: 0.6"/>
      </defs>
      <g>
       <use xlink:href="#m4f0f2119ea" x="35.227812" y="291.28" style="stroke: #000000; stroke-width: 0.6"/>
      </g>
     </g>
    </g>
    <g id="xtick_4">
     <g id="line2d_6">
      <g>
       <use xlink:href="#m4f0f2119ea" x="40.312747" y="291.28" style="stroke: #000000; stroke-width: 0.6"/>
      </g>
     </g>
    </g>
    <g id="xtick_5">
     <g id="line2d_7">
      <g>
       <use xlink:href="#m4f0f2119ea" x="74.785959" y="291.28" style="stroke: #000000; stroke-width: 0.6"/>
      </g>
     </g>
    </g>
    <g id="xtick_6">
     <g id="line2d_8">
      <g>
       <use xlink:href="#m4f0f2119ea" x="92.290718" y="291.28" style="stroke: #000000; stroke-width: 0.6"/>
      </g>
     </g>
    </g>
    <g id="xtick_7">
     <g id="line2d_9">
      <g>
       <use xlink:href="#m4f0f2119ea" x="104.710542" y="291.28" style="stroke: #000000; stroke-width: 0.6"/>
      </g>
     </g>
    </g>
    <g id="xtick_8">
     <g id="line2d_10">
      <g>
       <use xlink:href="#m4f0f2119ea" x="114.344105" y="291.28" style="stroke: #000000; stroke-width: 0.6"/>
      </g>
     </g>
    </g>
    <g id="xtick_9">
     <g id="line2d_11">
      <g>
       <use xlink:href="#m4f0f2119ea" x="122.2153" y="291.28" style="stroke: #000000; stroke-width: 0.6"/>
      </g>
     </g>
    </g>
    <g id="xtick_10">
     <g id="line2d_12">
      <g>
       <use xlink:href="#m4f0f2119ea" x="128.870301" y="291.28" style="stroke: #000000; stroke-width: 0.6"/>
      </g>
     </g>
    </g>
    <g id="xtick_11">
     <g id="line2d_13">
      <g>
       <use xlink:href="#m4f0f2119ea" x="134.635124" y="291.28" style="stroke: #000000; stroke-width: 0.6"/>
      </g>
     </g>
    </g>
    <g id="xtick_12">
     <g id="line2d_14">
      <g>
       <use xlink:href="#m4f0f2119ea" x="139.720059" y="291.28" style="stroke: #000000; stroke-width: 0.6"/>
      </g>
     </g>
    </g>
    <g id="xtick_13">
     <g id="line2d_15">
      <g>
       <use xlink:href="#m4f0f2119ea" x="174.193271" y="291.28" style="stroke: #000000; stroke-width: 0.6"/>
      </g>
     </g>
    </g>
    <g id="xtick_14">
     <g id="line2d_16">
      <g>
       <use xlink:href="#m4f0f2119ea" x="191.69803" y="291.28" style="stroke: #000000; stroke-width: 0.6"/>
      </g>
     </g>
    </g>
    <g id="xtick_15">
     <g id="line2d_17">
      <g>
       <use xlink:href="#m4f0f2119ea" x="204.117853" y="291.28" style="stroke: #000000; stroke-width: 0.6"/>
      </g>
     </g>
    </g>
    <g id="xtick_16">
     <g id="line2d_18">
      <g>
       <use xlink:href="#m4f0f2119ea" x="213.751417" y="291.28" style="stroke: #000000; stroke-width: 0.6"/>
      </g>
     </g>
    </g>
    <g id="xtick_17">
     <g id="line2d_19">
      <g>
       <use xlink:href="#m4f0f2119ea" x="221.622612" y="291.28" style="stroke: #000000; stroke-width: 0.6"/>
      </g>
     </g>
    </g>
    <g id="xtick_18">
     <g id="line2d_20">
      <g>
       <use xlink:href="#m4f0f2119ea" x="228.277613" y="291.28" style="stroke: #000000; stroke-width: 0.6"/>
      </g>
     </g>
    </g>
    <g id="xtick_19">
     <g id="line2d_21">
      <g>
       <use xlink:href="#m4f0f2119ea" x="234.042436" y="291.28" style="stroke: #000000; stroke-width: 0.6"/>
      </g>
     </g>
    </g>
    <g id="xtick_20">
     <g id="line2d_22">
      <g>
       <use xlink:href="#m4f0f2119ea" x="239.127371" y="291.28" style="stroke: #000000; stroke-width: 0.6"/>
      </g>
     </g>
    </g>
    <g id="xtick_21">
     <g id="line2d_23">
      <g>
       <use xlink:href="#m4f0f2119ea" x="273.600583" y="291.28" style="stroke: #000000; stroke-width: 0.6"/>
      </g>
     </g>
    </g>
    <g id="xtick_22">
     <g id="line2d_24">
      <g>
       <use xlink:href="#m4f0f2119ea" x="291.105341" y="291.28" style="stroke: #000000; stroke-width: 0.6"/>
      </g>
     </g>
    </g>
    <g id="xtick_23">
     <g id="line2d_25">
      <g>
       <use xlink:href="#m4f0f2119ea" x="303.525165" y="291.28" style="stroke: #000000; stroke-width: 0.6"/>
      </g>
     </g>
    </g>
    <g id="xtick_24">
     <g id="line2d_26">
      <g>
       <use xlink:href="#m4f0f2119ea" x="313.158729" y="291.28" style="stroke: #000000; stroke-width: 0.6"/>
      </g>
     </g>
    </g>
    <g id="xtick_25">
     <g id="line2d_27">
      <g>
       <use xlink:href="#m4f0f2119ea" x="321.029924" y="291.28" style="stroke: #000000; stroke-width: 0.6"/>
      </g>
     </g>
    </g>
    <g id="xtick_26">
     <g id="line2d_28">
      <g>
       <use xlink:href="#m4f0f2119ea" x="327.684924" y="291.28" style="stroke: #000000; stroke-width: 0.6"/>
      </g>
     </g>
    </g>
    <g id="xtick_27">
     <g id="line2d_29">
      <g>
       <use xlink:href="#m4f0f2119ea" x="333.449748" y="291.28" style="stroke: #000000; stroke-width: 0.6"/>
      </g>
     </g>
    </g>
    <g id="xtick_28">
     <g id="line2d_30">
      <g>
       <use xlink:href="#m4f0f2119ea" x="338.534683" y="291.28" style="stroke: #000000; stroke-width: 0.6"/>
      </g>
     </g>
    </g>
    <g id="xtick_29">
     <g id="line2d_31">
      <g>
       <use xlink:href="#m4f0f2119ea" x="373.007895" y="291.28" style="stroke: #000000; stroke-width: 0.6"/>
      </g>
     </g>
    </g>
    <g id="xtick_30">
     <g id="line2d_32">
      <g>
       <use xlink:href="#m4f0f2119ea" x="390.512653" y="291.28" style="stroke: #000000; stroke-width: 0.6"/>
      </g>
     </g>
    </g>
    <g id="xtick_31">
     <g id="line2d_33">
      <g>
       <use xlink:href="#m4f0f2119ea" x="402.932477" y="291.28" style="stroke: #000000; stroke-width: 0.6"/>
      </g>
     </g>
    </g>
    <g id="xtick_32">
     <g id="line2d_34">
      <g>
       <use xlink:href="#m4f0f2119ea" x="412.566041" y="291.28" style="stroke: #000000; stroke-width: 0.6"/>
      </g>
     </g>
    </g>
    <g id="xtick_33">
     <g id="line2d_35">
      <g>
       <use xlink:href="#m4f0f2119ea" x="420.437236" y="291.28" style="stroke: #000000; stroke-width: 0.6"/>
      </g>
     </g>
    </g>
    <g id="xtick_34">
     <g id="line2d_36">
      <g>
       <use xlink:href="#m4f0f2119ea" x="427.092236" y="291.28" style="stroke: #000000; stroke-width: 0.6"/>
      </g>
     </g>
    </g>
    <g id="xtick_35">
     <g id="line2d_37">
      <g>
       <use xlink:href="#m4f0f2119ea" x="432.85706" y="291.28" style="stroke: #000000; stroke-width: 0.6"/>
      </g>
     </g>
    </g>
    <g id="xtick_36">
     <g id="line2d_38">
      <g>
       <use xlink:href="#m4f0f2119ea" x="437.941995" y="291.28" style="stroke: #000000; stroke-width: 0.6"/>
      </g>
     </g>
    </g>
    <g id="text_3">
     <!-- log10 of FEvals ratio -->
     <g transform="translate(141.371312 336.833125)scale(0.2 -0.2)">
      <defs>
       <path id="DejaVuSans-6c" d="M 603 4863 
L 1178 4863 
L 1178 0 
L 603 0 
L 603 4863 
z
" transform="scale(0.015625)"/>
       <path id="DejaVuSans-6f" d="M 1959 3097 
Q 1497 3097 1228 2736 
Q 959 2375 959 1747 
Q 959 1119 1226 758 
Q 1494 397 1959 397 
Q 2419 397 2687 759 
Q 2956 1122 2956 1747 
Q 2956 2369 2687 2733 
Q 2419 3097 1959 3097 
z
M 1959 3584 
Q 2709 3584 3137 3096 
Q 3566 2609 3566 1747 
Q 3566 888 3137 398 
Q 2709 -91 1959 -91 
Q 1206 -91 779 398 
Q 353 888 353 1747 
Q 353 2609 779 3096 
Q 1206 3584 1959 3584 
z
" transform="scale(0.015625)"/>
       <path id="DejaVuSans-67" d="M 2906 1791 
Q 2906 2416 2648 2759 
Q 2391 3103 1925 3103 
Q 1463 3103 1205 2759 
Q 947 2416 947 1791 
Q 947 1169 1205 825 
Q 1463 481 1925 481 
Q 2391 481 2648 825 
Q 2906 1169 2906 1791 
z
M 3481 434 
Q 3481 -459 3084 -895 
Q 2688 -1331 1869 -1331 
Q 1566 -1331 1297 -1286 
Q 1028 -1241 775 -1147 
L 775 -588 
Q 1028 -725 1275 -790 
Q 1522 -856 1778 -856 
Q 2344 -856 2625 -561 
Q 2906 -266 2906 331 
L 2906 616 
Q 2728 306 2450 153 
Q 2172 0 1784 0 
Q 1141 0 747 490 
Q 353 981 353 1791 
Q 353 2603 747 3093 
Q 1141 3584 1784 3584 
Q 2172 3584 2450 3431 
Q 2728 3278 2906 2969 
L 2906 3500 
L 3481 3500 
L 3481 434 
z
" transform="scale(0.015625)"/>
       <path id="DejaVuSans-30" d="M 2034 4250 
Q 1547 4250 1301 3770 
Q 1056 3291 1056 2328 
Q 1056 1369 1301 889 
Q 1547 409 2034 409 
Q 2525 409 2770 889 
Q 3016 1369 3016 2328 
Q 3016 3291 2770 3770 
Q 2525 4250 2034 4250 
z
M 2034 4750 
Q 2819 4750 3233 4129 
Q 3647 3509 3647 2328 
Q 3647 1150 3233 529 
Q 2819 -91 2034 -91 
Q 1250 -91 836 529 
Q 422 1150 422 2328 
Q 422 3509 836 4129 
Q 1250 4750 2034 4750 
z
" transform="scale(0.015625)"/>
       <path id="DejaVuSans-20" transform="scale(0.015625)"/>
       <path id="DejaVuSans-66" d="M 2375 4863 
L 2375 4384 
L 1825 4384 
Q 1516 4384 1395 4259 
Q 1275 4134 1275 3809 
L 1275 3500 
L 2222 3500 
L 2222 3053 
L 1275 3053 
L 1275 0 
L 697 0 
L 697 3053 
L 147 3053 
L 147 3500 
L 697 3500 
L 697 3744 
Q 697 4328 969 4595 
Q 1241 4863 1831 4863 
L 2375 4863 
z
" transform="scale(0.015625)"/>
       <path id="DejaVuSans-46" d="M 628 4666 
L 3309 4666 
L 3309 4134 
L 1259 4134 
L 1259 2759 
L 3109 2759 
L 3109 2228 
L 1259 2228 
L 1259 0 
L 628 0 
L 628 4666 
z
" transform="scale(0.015625)"/>
       <path id="DejaVuSans-45" d="M 628 4666 
L 3578 4666 
L 3578 4134 
L 1259 4134 
L 1259 2753 
L 3481 2753 
L 3481 2222 
L 1259 2222 
L 1259 531 
L 3634 531 
L 3634 0 
L 628 0 
L 628 4666 
z
" transform="scale(0.015625)"/>
       <path id="DejaVuSans-76" d="M 191 3500 
L 800 3500 
L 1894 563 
L 2988 3500 
L 3597 3500 
L 2284 0 
L 1503 0 
L 191 3500 
z
" transform="scale(0.015625)"/>
       <path id="DejaVuSans-61" d="M 2194 1759 
Q 1497 1759 1228 1600 
Q 959 1441 959 1056 
Q 959 750 1161 570 
Q 1363 391 1709 391 
Q 2188 391 2477 730 
Q 2766 1069 2766 1631 
L 2766 1759 
L 2194 1759 
z
M 3341 1997 
L 3341 0 
L 2766 0 
L 2766 531 
Q 2569 213 2275 61 
Q 1981 -91 1556 -91 
Q 1019 -91 701 211 
Q 384 513 384 1019 
Q 384 1609 779 1909 
Q 1175 2209 1959 2209 
L 2766 2209 
L 2766 2266 
Q 2766 2663 2505 2880 
Q 2244 3097 1772 3097 
Q 1472 3097 1187 3025 
Q 903 2953 641 2809 
L 641 3341 
Q 956 3463 1253 3523 
Q 1550 3584 1831 3584 
Q 2591 3584 2966 3190 
Q 3341 2797 3341 1997 
z
" transform="scale(0.015625)"/>
       <path id="DejaVuSans-73" d="M 2834 3397 
L 2834 2853 
Q 2591 2978 2328 3040 
Q 2066 3103 1784 3103 
Q 1356 3103 1142 2972 
Q 928 2841 928 2578 
Q 928 2378 1081 2264 
Q 1234 2150 1697 2047 
L 1894 2003 
Q 2506 1872 2764 1633 
Q 3022 1394 3022 966 
Q 3022 478 2636 193 
Q 2250 -91 1575 -91 
Q 1294 -91 989 -36 
Q 684 19 347 128 
L 347 722 
Q 666 556 975 473 
Q 1284 391 1588 391 
Q 1994 391 2212 530 
Q 2431 669 2431 922 
Q 2431 1156 2273 1281 
Q 2116 1406 1581 1522 
L 1381 1569 
Q 847 1681 609 1914 
Q 372 2147 372 2553 
Q 372 3047 722 3315 
Q 1072 3584 1716 3584 
Q 2034 3584 2315 3537 
Q 2597 3491 2834 3397 
z
" transform="scale(0.015625)"/>
       <path id="DejaVuSans-72" d="M 2631 2963 
Q 2534 3019 2420 3045 
Q 2306 3072 2169 3072 
Q 1681 3072 1420 2755 
Q 1159 2438 1159 1844 
L 1159 0 
L 581 0 
L 581 3500 
L 1159 3500 
L 1159 2956 
Q 1341 3275 1631 3429 
Q 1922 3584 2338 3584 
Q 2397 3584 2469 3576 
Q 2541 3569 2628 3553 
L 2631 2963 
z
" transform="scale(0.015625)"/>
       <path id="DejaVuSans-74" d="M 1172 4494 
L 1172 3500 
L 2356 3500 
L 2356 3053 
L 1172 3053 
L 1172 1153 
Q 1172 725 1289 603 
Q 1406 481 1766 481 
L 2356 481 
L 2356 0 
L 1766 0 
Q 1100 0 847 248 
Q 594 497 594 1153 
L 594 3053 
L 172 3053 
L 172 3500 
L 594 3500 
L 594 4494 
L 1172 4494 
z
" transform="scale(0.015625)"/>
       <path id="DejaVuSans-69" d="M 603 3500 
L 1178 3500 
L 1178 0 
L 603 0 
L 603 3500 
z
M 603 4863 
L 1178 4863 
L 1178 4134 
L 603 4134 
L 603 4863 
z
" transform="scale(0.015625)"/>
      </defs>
      <use xlink:href="#DejaVuSans-6c"/>
      <use xlink:href="#DejaVuSans-6f" x="27.783203"/>
      <use xlink:href="#DejaVuSans-67" x="88.964844"/>
      <use xlink:href="#DejaVuSans-31" x="152.441406"/>
      <use xlink:href="#DejaVuSans-30" x="216.064453"/>
      <use xlink:href="#DejaVuSans-20" x="279.6875"/>
      <use xlink:href="#DejaVuSans-6f" x="311.474609"/>
      <use xlink:href="#DejaVuSans-66" x="372.65625"/>
      <use xlink:href="#DejaVuSans-20" x="407.861328"/>
      <use xlink:href="#DejaVuSans-46" x="439.648438"/>
      <use xlink:href="#DejaVuSans-45" x="497.167969"/>
      <use xlink:href="#DejaVuSans-76" x="560.351562"/>
      <use xlink:href="#DejaVuSans-61" x="619.53125"/>
      <use xlink:href="#DejaVuSans-6c" x="680.810547"/>
      <use xlink:href="#DejaVuSans-73" x="708.59375"/>
      <use xlink:href="#DejaVuSans-20" x="760.693359"/>
      <use xlink:href="#DejaVuSans-72" x="792.480469"/>
      <use xlink:href="#DejaVuSans-61" x="833.59375"/>
      <use xlink:href="#DejaVuSans-74" x="894.873047"/>
      <use xlink:href="#DejaVuSans-69" x="934.082031"/>
      <use xlink:href="#DejaVuSans-6f" x="961.865234"/>
     </g>
    </g>
   </g>
   <g id="matplotlib.axis_2">
    <g id="ytick_1">
     <g id="line2d_39">
      <path d="M 34.16 288.453725 
L 453.192 288.453725 
" clip-path="url(#p5fd8a669e0)" style="fill: none; stroke: #b0b0b0; stroke-width: 0.8; stroke-linecap: square"/>
     </g>
     <g id="line2d_40">
      <defs>
       <path id="m4161c0ee5a" d="M 0 0 
L -3.5 0 
" style="stroke: #000000; stroke-width: 0.8"/>
      </defs>
      <g>
       <use xlink:href="#m4161c0ee5a" x="34.16" y="288.453725" style="stroke: #000000; stroke-width: 0.8"/>
      </g>
     </g>
    </g>
    <g id="ytick_2">
     <g id="line2d_41">
      <path d="M 34.16 217.796863 
L 453.192 217.796863 
" clip-path="url(#p5fd8a669e0)" style="fill: none; stroke: #b0b0b0; stroke-width: 0.8; stroke-linecap: square"/>
     </g>
     <g id="line2d_42">
      <g>
       <use xlink:href="#m4161c0ee5a" x="34.16" y="217.796863" style="stroke: #000000; stroke-width: 0.8"/>
      </g>
     </g>
    </g>
    <g id="ytick_3">
     <g id="line2d_43">
      <path d="M 34.16 147.14 
L 453.192 147.14 
" clip-path="url(#p5fd8a669e0)" style="fill: none; stroke: #b0b0b0; stroke-width: 0.8; stroke-linecap: square"/>
     </g>
     <g id="line2d_44">
      <g>
       <use xlink:href="#m4161c0ee5a" x="34.16" y="147.14" style="stroke: #000000; stroke-width: 0.8"/>
      </g>
     </g>
    </g>
    <g id="ytick_4">
     <g id="line2d_45">
      <path d="M 34.16 76.483137 
L 453.192 76.483137 
" clip-path="url(#p5fd8a669e0)" style="fill: none; stroke: #b0b0b0; stroke-width: 0.8; stroke-linecap: square"/>
     </g>
     <g id="line2d_46">
      <g>
       <use xlink:href="#m4161c0ee5a" x="34.16" y="76.483137" style="stroke: #000000; stroke-width: 0.8"/>
      </g>
     </g>
    </g>
    <g id="ytick_5">
     <g id="line2d_47">
      <path d="M 34.16 5.826275 
L 453.192 5.826275 
" clip-path="url(#p5fd8a669e0)" style="fill: none; stroke: #b0b0b0; stroke-width: 0.8; stroke-linecap: square"/>
     </g>
     <g id="line2d_48">
      <g>
       <use xlink:href="#m4161c0ee5a" x="34.16" y="5.826275" style="stroke: #000000; stroke-width: 0.8"/>
      </g>
     </g>
    </g>
    <g id="text_4">
     <!-- proportion of trials -->
     <g transform="translate(19.000625 240.14625)rotate(-90)scale(0.2 -0.2)">
      <defs>
       <path id="DejaVuSans-70" d="M 1159 525 
L 1159 -1331 
L 581 -1331 
L 581 3500 
L 1159 3500 
L 1159 2969 
Q 1341 3281 1617 3432 
Q 1894 3584 2278 3584 
Q 2916 3584 3314 3078 
Q 3713 2572 3713 1747 
Q 3713 922 3314 415 
Q 2916 -91 2278 -91 
Q 1894 -91 1617 61 
Q 1341 213 1159 525 
z
M 3116 1747 
Q 3116 2381 2855 2742 
Q 2594 3103 2138 3103 
Q 1681 3103 1420 2742 
Q 1159 2381 1159 1747 
Q 1159 1113 1420 752 
Q 1681 391 2138 391 
Q 2594 391 2855 752 
Q 3116 1113 3116 1747 
z
" transform="scale(0.015625)"/>
       <path id="DejaVuSans-6e" d="M 3513 2113 
L 3513 0 
L 2938 0 
L 2938 2094 
Q 2938 2591 2744 2837 
Q 2550 3084 2163 3084 
Q 1697 3084 1428 2787 
Q 1159 2491 1159 1978 
L 1159 0 
L 581 0 
L 581 3500 
L 1159 3500 
L 1159 2956 
Q 1366 3272 1645 3428 
Q 1925 3584 2291 3584 
Q 2894 3584 3203 3211 
Q 3513 2838 3513 2113 
z
" transform="scale(0.015625)"/>
      </defs>
      <use xlink:href="#DejaVuSans-70"/>
      <use xlink:href="#DejaVuSans-72" x="63.476562"/>
      <use xlink:href="#DejaVuSans-6f" x="102.339844"/>
      <use xlink:href="#DejaVuSans-70" x="163.521484"/>
      <use xlink:href="#DejaVuSans-6f" x="226.998047"/>
      <use xlink:href="#DejaVuSans-72" x="288.179688"/>
      <use xlink:href="#DejaVuSans-74" x="329.292969"/>
      <use xlink:href="#DejaVuSans-69" x="368.501953"/>
      <use xlink:href="#DejaVuSans-6f" x="396.285156"/>
      <use xlink:href="#DejaVuSans-6e" x="457.466797"/>
      <use xlink:href="#DejaVuSans-20" x="520.845703"/>
      <use xlink:href="#DejaVuSans-6f" x="552.632812"/>
      <use xlink:href="#DejaVuSans-66" x="613.814453"/>
      <use xlink:href="#DejaVuSans-20" x="649.019531"/>
      <use xlink:href="#DejaVuSans-74" x="680.806641"/>
      <use xlink:href="#DejaVuSans-72" x="720.015625"/>
      <use xlink:href="#DejaVuSans-69" x="761.128906"/>
      <use xlink:href="#DejaVuSans-61" x="788.912109"/>
      <use xlink:href="#DejaVuSans-6c" x="850.191406"/>
      <use xlink:href="#DejaVuSans-73" x="877.974609"/>
     </g>
    </g>
   </g>
   <g id="line2d_49">
    <path d="M 34.16 288.453725 
L 132.941886 288.453725 
L 132.941886 284.685359 
L 180.371227 284.685359 
L 180.371227 283.931686 
L 203.657012 283.931686 
L 203.657012 283.178013 
L 204.28422 283.178013 
L 204.28422 282.42434 
L 205.20827 282.42434 
L 205.20827 281.670667 
L 206.112956 281.670667 
L 206.112956 280.916993 
L 206.901509 280.916993 
L 206.901509 280.16332 
L 207.962775 280.16332 
L 207.962775 279.409647 
L 208.342312 279.409647 
L 208.342312 278.655974 
L 209.319627 278.655974 
L 209.319627 277.902301 
L 210.372141 277.902301 
L 210.372141 277.148627 
L 210.985002 277.148627 
L 210.985002 276.394954 
L 211.264157 276.394954 
L 211.264157 275.641281 
L 211.44037 275.641281 
L 211.44037 274.887608 
L 212.293995 274.887608 
L 212.293995 274.133935 
L 212.685387 274.133935 
L 212.685387 273.380261 
L 213.751417 273.380261 
L 213.751417 265.843529 
L 214.550101 265.843529 
L 214.550101 264.336183 
L 215.404138 264.336183 
L 215.404138 263.58251 
L 216.417704 263.58251 
L 216.442406 262.075163 
L 216.777724 262.075163 
L 216.777724 261.32149 
L 216.95081 261.32149 
L 216.95081 260.567817 
L 217.384854 260.567817 
L 217.384854 259.814144 
L 219.830984 259.814144 
L 219.830984 259.060471 
L 220.154346 259.060471 
L 220.154346 258.306797 
L 220.618566 258.306797 
L 220.618566 257.553124 
L 221.180466 257.553124 
L 221.180466 256.799451 
L 221.816243 256.799451 
L 221.816243 256.045778 
L 222.559136 256.045778 
L 222.661814 254.538431 
L 222.715634 254.538431 
L 222.813419 253.031085 
L 223.520105 253.031085 
L 223.53108 251.523739 
L 224.815242 251.523739 
L 224.815242 250.016392 
L 225.641516 250.016392 
L 225.641516 248.509046 
L 226.027574 248.509046 
L 226.126434 247.001699 
L 226.238856 247.001699 
L 226.238856 246.248026 
L 226.707547 246.248026 
L 226.707547 245.494353 
L 226.896839 245.494353 
L 226.896839 244.74068 
L 227.042865 244.74068 
L 227.123523 243.233333 
L 227.836485 243.233333 
L 227.836485 242.47966 
L 228.219573 242.47966 
L 228.219573 241.725987 
L 228.427776 241.725987 
L 228.427776 240.972314 
L 228.746325 240.972314 
L 228.746325 240.218641 
L 229.110119 240.218641 
L 229.110119 239.464967 
L 229.61559 239.464967 
L 229.61559 238.711294 
L 230.477004 238.711294 
L 230.477004 237.957621 
L 230.665702 237.957621 
L 230.727041 236.450275 
L 231.045065 236.450275 
L 231.151007 234.942928 
L 231.202245 234.942928 
L 231.202245 234.189255 
L 231.366225 234.189255 
L 231.366225 232.681908 
L 231.596306 232.681908 
L 231.596306 231.928235 
L 231.778214 231.928235 
L 231.778214 231.174562 
L 232.081384 231.174562 
L 232.081384 230.420889 
L 232.702265 230.420889 
L 232.702265 229.667216 
L 233.125894 229.667216 
L 233.173171 228.159869 
L 233.25853 228.159869 
L 233.25853 227.406196 
L 233.593848 227.406196 
L 233.606951 225.89885 
L 233.920996 225.89885 
L 233.920996 225.145176 
L 234.042436 225.145176 
L 234.042436 224.391503 
L 234.395503 224.391503 
L 234.395503 223.63783 
L 235.108467 223.63783 
L 235.211074 222.130484 
L 235.456769 222.130484 
L 235.456769 221.37681 
L 235.720485 221.37681 
L 235.735675 219.869464 
L 235.836306 219.869464 
L 235.901712 216.854771 
L 235.953418 216.854771 
L 235.953418 216.101098 
L 236.12342 216.101098 
L 236.12342 215.347425 
L 236.236032 215.347425 
L 236.236032 214.593752 
L 236.391575 214.593752 
L 236.476235 211.579059 
L 236.659725 211.579059 
L 236.659725 210.825386 
L 236.874901 210.825386 
L 236.874901 210.071712 
L 237.354662 210.071712 
L 237.388664 208.564366 
L 237.564411 208.564366 
L 237.564411 207.810693 
L 237.866135 207.810693 
L 237.866135 207.05702 
L 238.347842 207.05702 
L 238.352964 205.549673 
L 238.632366 205.549673 
L 238.632366 204.796 
L 238.758151 204.796 
L 238.758151 204.042327 
L 238.934364 204.042327 
L 238.983703 201.781307 
L 239.14727 201.781307 
L 239.14727 201.027634 
L 239.262495 201.027634 
L 239.370237 199.520288 
L 239.414229 199.520288 
L 239.414229 198.766614 
L 239.561264 198.766614 
L 239.561264 198.012941 
L 239.793766 198.012941 
L 239.865373 194.244575 
L 239.938682 194.244575 
L 240.027674 191.983556 
L 240.188472 191.983556 
L 240.188472 191.229882 
L 240.430777 191.229882 
L 240.430777 190.476209 
L 240.808753 190.476209 
L 240.808753 189.722536 
L 240.921496 189.722536 
L 240.921496 188.968863 
L 241.112523 188.968863 
L 241.147012 187.461516 
L 241.282054 187.461516 
L 241.311722 185.95417 
L 241.769963 185.95417 
L 241.879784 182.939477 
L 241.8931 182.939477 
L 241.8931 182.185804 
L 242.006574 182.185804 
L 242.017209 179.924784 
L 242.614734 179.924784 
L 242.715612 177.663765 
L 242.805761 177.663765 
L 242.891824 176.156418 
L 242.942558 176.156418 
L 242.942558 175.402745 
L 243.064859 175.402745 
L 243.064859 173.895399 
L 243.302214 173.895399 
L 243.391035 172.388052 
L 243.676 172.388052 
L 243.676 164.097647 
L 243.819191 164.097647 
L 243.911699 161.836627 
L 243.939647 161.836627 
L 243.939647 161.082954 
L 244.055537 161.082954 
L 244.158374 158.821935 
L 244.199304 158.821935 
L 244.246564 157.314588 
L 244.340767 157.314588 
L 244.387252 155.807242 
L 244.5601 155.807242 
L 244.5601 155.053569 
L 244.688456 155.053569 
L 244.688456 154.299895 
L 244.957164 154.299895 
L 244.957164 153.546222 
L 245.256518 153.546222 
L 245.292482 152.038876 
L 245.586982 152.038876 
L 245.586982 151.285203 
L 245.853203 151.285203 
L 245.853203 150.531529 
L 246.045793 150.531529 
L 246.148882 146.763163 
L 246.20563 146.763163 
L 246.276393 145.255817 
L 246.555203 145.255817 
L 246.555203 144.502144 
L 246.875393 144.502144 
L 246.977382 140.733778 
L 246.988226 140.733778 
L 246.988226 139.980105 
L 247.153595 139.980105 
L 247.168409 138.472758 
L 247.344622 138.472758 
L 247.344622 137.719085 
L 247.550126 137.719085 
L 247.550126 136.965412 
L 247.781835 136.965412 
L 247.869159 135.458065 
L 248.553261 135.458065 
L 248.553261 134.704392 
L 248.993862 134.704392 
L 249.062672 133.197046 
L 249.183079 133.197046 
L 249.203251 131.689699 
L 249.412412 131.689699 
L 249.498936 129.42868 
L 249.561923 129.42868 
L 249.661238 127.921333 
L 249.931937 127.921333 
L 249.942018 126.413987 
L 250.060837 126.413987 
L 250.103179 124.152967 
L 250.223138 124.152967 
L 250.331 122.645621 
L 250.626241 122.645621 
L 250.626241 121.891948 
L 250.7734 121.891948 
L 250.780576 120.384601 
L 251.342476 120.384601 
L 251.342476 119.630928 
L 251.459357 119.630928 
L 251.547195 117.369908 
L 251.640138 117.369908 
L 251.693789 115.108889 
L 251.85609 115.108889 
L 251.85609 114.355216 
L 252.13093 114.355216 
L 252.202038 111.340523 
L 252.259194 111.340523 
L 252.321957 109.833176 
L 252.656742 109.833176 
L 252.656742 108.32583 
L 252.935778 108.32583 
L 252.975428 106.818484 
L 253.280869 106.818484 
L 253.351662 105.311137 
L 253.497678 105.311137 
L 253.497678 104.557464 
L 253.686981 104.557464 
L 253.727932 103.050118 
L 253.834991 103.050118 
L 253.834991 101.542771 
L 253.974331 101.542771 
L 253.974331 100.789098 
L 254.150134 100.789098 
L 254.237343 98.528078 
L 254.536231 98.528078 
L 254.641192 97.020732 
L 254.755564 97.020732 
L 254.755564 96.267059 
L 255.034022 96.267059 
L 255.130631 94.759712 
L 255.486767 94.759712 
L 255.486767 94.006039 
L 255.638281 94.006039 
L 255.638281 93.252366 
L 255.839194 93.252366 
L 255.839194 92.498693 
L 255.963394 92.498693 
L 256.048667 90.991346 
L 256.169183 90.991346 
L 256.169183 90.237673 
L 256.388517 90.237673 
L 256.401094 88.730327 
L 256.535532 88.730327 
L 256.535532 87.976654 
L 256.654162 87.976654 
L 256.654162 87.22298 
L 257.097432 87.22298 
L 257.097432 86.469307 
L 257.541491 86.469307 
L 257.541491 85.715634 
L 257.68162 85.715634 
L 257.725151 84.208288 
L 258.034047 84.208288 
L 258.098178 82.700941 
L 258.410756 82.700941 
L 258.45554 81.193595 
L 258.709224 81.193595 
L 258.730385 78.932575 
L 259.095442 78.932575 
L 259.095442 78.178902 
L 261.091836 78.178902 
L 261.180759 75.917882 
L 261.640652 75.917882 
L 261.640652 75.164209 
L 262.27378 75.164209 
L 262.27378 73.656863 
L 262.49308 73.656863 
L 262.49308 72.90319 
L 262.716162 72.90319 
L 262.716162 72.149516 
L 263.03569 72.149516 
L 263.03569 71.395843 
L 263.730026 71.395843 
L 263.730026 70.64217 
L 264.03278 70.64217 
L 264.03278 69.888497 
L 264.355376 69.888497 
L 264.368896 67.627477 
L 265.00379 67.627477 
L 265.00379 66.873804 
L 265.166091 66.873804 
L 265.166091 66.120131 
L 265.569195 66.120131 
L 265.569195 65.366458 
L 266.285429 65.366458 
L 266.285429 64.612784 
L 267.144992 64.612784 
L 267.144992 63.105438 
L 267.662028 63.105438 
L 267.687486 61.598092 
L 268.326356 61.598092 
L 268.352796 60.090745 
L 268.440631 60.090745 
L 268.440631 59.337072 
L 269.479184 59.337072 
L 269.479184 58.583399 
L 269.698518 58.583399 
L 269.796812 57.076052 
L 269.93016 57.076052 
L 270.03515 55.568706 
L 270.407858 55.568706 
L 270.407858 54.815033 
L 270.991621 54.815033 
L 270.991621 54.061359 
L 271.344048 54.061359 
L 271.344048 53.307686 
L 271.949257 53.307686 
L 272.040386 51.80034 
L 272.140284 51.80034 
L 272.140284 51.046667 
L 272.437629 51.046667 
L 272.437629 50.292993 
L 272.588126 50.292993 
L 272.588126 49.53932 
L 272.749874 49.53932 
L 272.779154 47.278301 
L 273.306894 47.278301 
L 273.306894 46.524627 
L 274.381292 46.524627 
L 274.381292 45.770954 
L 276.056527 45.770954 
L 276.056527 45.017281 
L 276.747295 45.017281 
L 276.747295 44.263608 
L 277.6123 44.263608 
L 277.6123 43.509935 
L 278.19131 43.509935 
L 278.19131 42.756261 
L 278.338752 42.756261 
L 278.338752 42.002588 
L 278.802357 42.002588 
L 278.802357 41.248915 
L 281.464832 41.248915 
L 281.464832 40.495242 
L 282.600523 40.495242 
L 282.600523 39.741569 
L 282.79155 39.741569 
L 282.79155 38.987895 
L 283.893275 38.987895 
L 283.893275 38.234222 
L 291.105341 38.234222 
L 291.105341 36.726876 
L 297.760342 36.726876 
L 297.760342 35.219529 
L 303.525165 35.219529 
L 303.525165 33.712183 
L 308.958826 33.712183 
L 308.958826 32.95851 
L 312.916286 32.95851 
L 312.916286 32.204837 
L 317.178057 32.204837 
L 317.273465 29.943817 
L 317.369084 29.943817 
L 317.369084 29.190144 
L 327.20788 29.190144 
L 327.20788 28.436471 
L 327.684924 28.436471 
L 327.684924 25.421778 
L 333.449748 25.421778 
L 333.449748 23.914431 
L 338.534683 23.914431 
L 338.534683 22.407085 
L 343.083312 22.407085 
L 343.083312 19.392392 
L 347.198047 19.392392 
L 347.198047 17.885046 
L 357.609507 17.885046 
L 357.609507 16.377699 
L 364.702806 16.377699 
L 364.702806 14.870353 
L 368.459265 14.870353 
L 368.459265 13.363007 
L 373.007895 13.363007 
L 373.007895 10.348314 
L 394.627389 10.348314 
L 394.627389 8.840967 
L 408.017412 8.840967 
L 408.017412 7.333621 
L 437.941995 7.333621 
L 437.941995 5.826275 
L 453.192 5.826275 
L 453.192 5.826275 
" clip-path="url(#p5fd8a669e0)" style="fill: none; stroke: #000000; stroke-width: 3; stroke-linecap: square"/>
   </g>
   <g id="line2d_50">
    <path clip-path="url(#p5fd8a669e0)" style="fill: none; stroke: #000000; stroke-width: 3; stroke-linecap: square"/>
   </g>
   <g id="line2d_51">
    <path d="M 34.16 288.453725 
L 172.853011 288.453725 
L 172.853011 287.700052 
L 182.486575 287.700052 
L 182.486575 286.946379 
L 189.792284 286.946379 
L 189.792284 286.192706 
L 192.177145 286.192706 
L 192.177145 285.439033 
L 196.284347 285.439033 
L 196.284347 284.685359 
L 196.73406 284.685359 
L 196.73406 283.931686 
L 198.523263 283.931686 
L 198.523263 283.178013 
L 199.425848 283.178013 
L 199.425848 282.42434 
L 201.360909 282.42434 
L 201.360909 281.670667 
L 201.810709 281.670667 
L 201.810709 280.916993 
L 202.058588 280.916993 
L 202.058588 280.16332 
L 204.482396 280.16332 
L 204.482396 279.409647 
L 205.917911 279.409647 
L 205.917911 278.655974 
L 206.352709 278.655974 
L 206.367624 277.148627 
L 206.561054 277.148627 
L 206.561054 276.394954 
L 208.156827 276.394954 
L 208.156827 275.641281 
L 210.994473 275.641281 
L 210.994473 274.887608 
L 211.692151 274.887608 
L 211.692151 274.133935 
L 215.986272 274.133935 
L 215.986272 273.380261 
L 216.194618 273.380261 
L 216.194618 272.626588 
L 216.742123 272.626588 
L 216.742123 271.872915 
L 217.080729 271.872915 
L 217.080729 271.119242 
L 217.401933 271.119242 
L 217.401933 270.365569 
L 218.401 270.365569 
L 218.401 269.611895 
L 219.121685 269.611895 
L 219.121685 268.858222 
L 220.733618 268.858222 
L 220.733618 268.104549 
L 220.925763 268.104549 
L 220.925763 267.350876 
L 221.421669 267.350876 
L 221.421669 266.597203 
L 223.128767 266.597203 
L 223.128767 265.843529 
L 223.33386 265.843529 
L 223.33386 265.089856 
L 223.470049 265.089856 
L 223.470049 264.336183 
L 223.806531 264.336183 
L 223.847521 262.828837 
L 224.077641 262.828837 
L 224.077641 262.075163 
L 224.24438 262.075163 
L 224.24438 261.32149 
L 224.837412 261.32149 
L 224.837412 260.567817 
L 225.343637 260.567817 
L 225.343637 259.814144 
L 225.621271 259.814144 
L 225.621271 259.060471 
L 225.882464 259.060471 
L 225.882464 258.306797 
L 226.443621 258.306797 
L 226.512524 256.799451 
L 226.85113 256.799451 
L 226.85113 256.045778 
L 227.242843 256.045778 
L 227.242843 255.292105 
L 227.800569 255.292105 
L 227.800569 254.538431 
L 227.913733 254.538431 
L 227.913733 253.784758 
L 228.277613 253.784758 
L 228.363445 251.523739 
L 228.482706 251.523739 
L 228.502751 250.016392 
L 228.618895 250.016392 
L 228.618895 249.262719 
L 228.755249 249.262719 
L 228.820664 247.755373 
L 229.201017 247.755373 
L 229.226487 246.248026 
L 229.326081 246.248026 
L 229.326081 245.494353 
L 229.794049 245.494353 
L 229.794049 244.74068 
L 230.063624 244.74068 
L 230.152649 242.47966 
L 230.559327 242.47966 
L 230.656656 240.972314 
L 230.829029 240.972314 
L 230.8979 239.464967 
L 231.027146 239.464967 
L 231.102993 237.957621 
L 231.239183 237.957621 
L 231.239183 237.203948 
L 231.454408 237.203948 
L 231.525721 235.696601 
L 231.72123 235.696601 
L 231.72123 234.942928 
L 231.846774 234.942928 
L 231.926323 233.435582 
L 232.062512 233.435582 
L 232.118753 231.928235 
L 232.19948 231.928235 
L 232.238358 230.420889 
L 232.404511 230.420889 
L 232.404511 229.667216 
L 232.637799 229.667216 
L 232.670104 228.159869 
L 232.949415 228.159869 
L 232.990295 225.89885 
L 233.062087 225.89885 
L 233.062087 225.145176 
L 233.214832 225.145176 
L 233.245126 223.63783 
L 233.481085 223.63783 
L 233.481085 222.884157 
L 233.687973 222.884157 
L 233.687973 222.130484 
L 234.107733 222.130484 
L 234.12801 220.623137 
L 234.341206 220.623137 
L 234.341206 219.869464 
L 234.524184 219.869464 
L 234.524184 219.115791 
L 235.098327 219.115791 
L 235.114038 217.608444 
L 235.239112 217.608444 
L 235.340273 216.101098 
L 235.391672 216.101098 
L 235.391672 215.347425 
L 235.569702 215.347425 
L 235.56983 213.840078 
L 235.691542 213.840078 
L 235.759096 212.332732 
L 235.850466 212.332732 
L 235.850466 211.579059 
L 235.983783 211.579059 
L 235.983783 210.825386 
L 236.131455 210.825386 
L 236.214022 209.318039 
L 236.393031 209.318039 
L 236.394658 207.810693 
L 236.563179 207.810693 
L 236.619396 205.549673 
L 236.726067 205.549673 
L 236.726067 204.796 
L 236.84639 204.796 
L 236.84639 204.042327 
L 237.021 204.042327 
L 237.021 203.288654 
L 237.261592 203.288654 
L 237.261592 202.53498 
L 237.387204 202.53498 
L 237.493475 201.027634 
L 237.553357 201.027634 
L 237.553357 200.273961 
L 237.698569 200.273961 
L 237.725134 198.766614 
L 237.834758 198.766614 
L 237.834758 198.012941 
L 237.982094 198.012941 
L 237.982094 197.259268 
L 238.190439 197.259268 
L 238.268727 195.751922 
L 238.308488 195.751922 
L 238.308488 194.998248 
L 238.436603 194.998248 
L 238.44235 193.490902 
L 238.591065 193.490902 
L 238.591065 192.737229 
L 238.762044 192.737229 
L 238.762044 191.983556 
L 239.084647 191.983556 
L 239.161378 190.476209 
L 239.207968 190.476209 
L 239.223541 188.968863 
L 239.375844 188.968863 
L 239.375844 188.21519 
L 239.499984 188.21519 
L 239.499984 187.461516 
L 239.761858 187.461516 
L 239.857198 185.95417 
L 239.919541 185.95417 
L 240.007491 182.939477 
L 240.046871 182.939477 
L 240.064657 181.432131 
L 240.173644 181.432131 
L 240.173644 180.678458 
L 240.387958 180.678458 
L 240.387958 179.924784 
L 240.59943 179.924784 
L 240.59943 179.171111 
L 240.715734 179.171111 
L 240.807103 176.910092 
L 240.830821 176.910092 
L 240.908353 173.895399 
L 240.956969 173.895399 
L 240.996974 172.388052 
L 241.076229 172.388052 
L 241.076229 171.634379 
L 241.239313 171.634379 
L 241.282982 170.127033 
L 241.351296 170.127033 
L 241.44954 166.358667 
L 241.516948 166.358667 
L 241.578341 163.343974 
L 241.635996 163.343974 
L 241.726333 160.329281 
L 241.832336 160.329281 
L 241.908977 158.068261 
L 241.967531 158.068261 
L 242.076852 155.807242 
L 242.165277 155.807242 
L 242.213903 154.299895 
L 242.282049 154.299895 
L 242.381666 151.285203 
L 242.410438 151.285203 
L 242.439906 149.024183 
L 242.559166 149.024183 
L 242.575237 147.516837 
L 242.772516 147.516837 
L 242.840244 146.00949 
L 242.888278 146.00949 
L 242.985233 144.502144 
L 243.008245 144.502144 
L 243.072185 142.241124 
L 243.129127 142.241124 
L 243.209271 139.226431 
L 243.326427 139.226431 
L 243.338277 137.719085 
L 243.55979 137.719085 
L 243.55979 136.965412 
L 243.676 136.965412 
L 243.718681 135.458065 
L 243.831575 135.458065 
L 243.915513 133.197046 
L 244.034773 133.197046 
L 244.120504 130.936026 
L 244.156362 130.936026 
L 244.156362 130.182353 
L 244.275621 130.182353 
L 244.302341 127.921333 
L 244.581288 127.921333 
L 244.684877 126.413987 
L 244.716341 126.413987 
L 244.821214 124.152967 
L 244.851965 124.152967 
L 244.925726 122.645621 
L 245.021294 122.645621 
L 245.058629 118.877255 
L 245.266007 118.877255 
L 245.325106 115.862562 
L 245.433883 115.862562 
L 245.48768 114.355216 
L 245.641186 114.355216 
L 245.641186 113.601542 
L 245.765378 113.601542 
L 245.854055 109.833176 
L 245.883901 109.833176 
L 245.982474 106.818484 
L 246.043385 106.818484 
L 246.153765 104.557464 
L 246.224243 104.557464 
L 246.33358 102.296444 
L 246.392119 102.296444 
L 246.406177 100.789098 
L 246.53767 100.789098 
L 246.607509 98.528078 
L 246.724705 98.528078 
L 246.76922 97.020732 
L 246.908899 97.020732 
L 246.970618 93.252366 
L 247.122981 93.252366 
L 247.156495 91.74502 
L 247.246924 91.74502 
L 247.345999 88.730327 
L 247.487773 88.730327 
L 247.487773 87.976654 
L 247.606577 87.976654 
L 247.606577 87.22298 
L 247.749527 87.22298 
L 247.786775 84.961961 
L 247.875056 84.961961 
L 247.921362 83.454614 
L 248.040526 83.454614 
L 248.040526 82.700941 
L 248.392427 82.700941 
L 248.446224 81.193595 
L 248.605918 81.193595 
L 248.687073 78.932575 
L 248.730881 78.932575 
L 248.767606 77.425229 
L 248.862876 77.425229 
L 248.862876 76.671556 
L 249.008455 76.671556 
L 249.110508 75.164209 
L 249.248872 75.164209 
L 249.350663 73.656863 
L 249.591511 73.656863 
L 249.603821 72.149516 
L 250.000811 72.149516 
L 250.081525 70.64217 
L 250.154958 70.64217 
L 250.207475 69.134824 
L 250.322374 69.134824 
L 250.322374 68.38115 
L 250.541649 68.38115 
L 250.541649 67.627477 
L 250.75107 67.627477 
L 250.75107 66.873804 
L 250.901631 66.873804 
L 250.901631 66.120131 
L 251.109976 66.120131 
L 251.200604 64.612784 
L 251.239919 64.612784 
L 251.239919 63.859111 
L 251.364979 63.859111 
L 251.364979 63.105438 
L 251.626301 63.105438 
L 251.626301 62.351765 
L 251.900698 62.351765 
L 251.900698 61.598092 
L 252.027132 61.598092 
L 252.109043 60.090745 
L 252.152067 60.090745 
L 252.152067 59.337072 
L 252.458856 59.337072 
L 252.555148 57.076052 
L 252.621098 57.076052 
L 252.621098 56.322379 
L 252.827762 56.322379 
L 252.827762 55.568706 
L 253.248283 55.568706 
L 253.273116 54.061359 
L 253.444428 54.061359 
L 253.444428 53.307686 
L 253.651092 53.307686 
L 253.651092 52.554013 
L 253.939261 52.554013 
L 253.939261 51.80034 
L 254.302843 51.80034 
L 254.366891 50.292993 
L 254.644526 50.292993 
L 254.644526 49.53932 
L 254.988788 49.53932 
L 254.988788 48.785647 
L 255.466876 48.785647 
L 255.476906 47.278301 
L 255.634086 47.278301 
L 255.634086 46.524627 
L 255.924165 46.524627 
L 255.924165 45.770954 
L 257.040125 45.770954 
L 257.137225 44.263608 
L 257.843919 44.263608 
L 257.843919 43.509935 
L 258.277342 43.509935 
L 258.277342 42.756261 
L 258.55071 42.756261 
L 258.55071 42.002588 
L 258.671211 42.002588 
L 258.762581 40.495242 
L 258.982434 40.495242 
L 258.982434 39.741569 
L 259.110052 39.741569 
L 259.216674 38.234222 
L 259.306773 38.234222 
L 259.306773 37.480549 
L 259.423338 37.480549 
L 259.531511 35.219529 
L 259.852283 35.219529 
L 259.933115 33.712183 
L 261.674159 33.712183 
L 261.674159 32.95851 
L 262.049441 32.95851 
L 262.071976 31.451163 
L 262.238086 31.451163 
L 262.238086 30.69749 
L 262.895306 30.69749 
L 262.976772 29.190144 
L 263.043517 29.190144 
L 263.043517 28.436471 
L 263.670607 28.436471 
L 263.670607 27.682797 
L 264.361655 27.682797 
L 264.361655 26.929124 
L 264.669674 26.929124 
L 264.759189 25.421778 
L 264.800921 25.421778 
L 264.879646 23.914431 
L 265.15471 23.914431 
L 265.15471 23.160758 
L 265.474685 23.160758 
L 265.474685 22.407085 
L 265.586434 22.407085 
L 265.586434 21.653412 
L 266.473752 21.653412 
L 266.473752 20.899739 
L 267.320928 20.899739 
L 267.320928 20.146065 
L 268.396443 20.146065 
L 268.396443 19.392392 
L 268.573019 19.392392 
L 268.667551 17.885046 
L 269.168793 17.885046 
L 269.168793 17.131373 
L 269.39551 17.131373 
L 269.39551 16.377699 
L 270.884464 16.377699 
L 270.884464 15.624026 
L 271.404921 15.624026 
L 271.404921 14.870353 
L 275.177019 14.870353 
L 275.177019 14.11668 
L 275.692371 14.11668 
L 275.692371 13.363007 
L 277.408043 13.363007 
L 277.408043 12.609333 
L 280.15312 12.609333 
L 280.240464 11.101987 
L 281.239531 11.101987 
L 281.239531 10.348314 
L 282.296371 10.348314 
L 282.296371 9.594641 
L 284.012042 9.594641 
L 284.012042 8.840967 
L 289.786684 8.840967 
L 289.786684 8.087294 
L 311.782505 8.087294 
L 311.782505 7.333621 
L 324.702042 7.333621 
L 324.702042 6.579948 
L 325.701109 6.579948 
L 325.701109 5.826275 
L 453.192 5.826275 
L 453.192 5.826275 
" clip-path="url(#p5fd8a669e0)" style="fill: none; stroke: #00bfbf; stroke-width: 3; stroke-linecap: square"/>
   </g>
   <g id="line2d_52">
    <path clip-path="url(#p5fd8a669e0)" style="fill: none; stroke: #00bfbf; stroke-width: 3; stroke-linecap: square"/>
   </g>
   <g id="line2d_53">
    <path d="M 34.16 288.453725 
L 191.028876 288.453725 
L 191.028876 287.700052 
L 194.85618 287.700052 
L 194.85618 286.946379 
L 195.938386 286.946379 
L 195.938386 286.192706 
L 197.353149 286.192706 
L 197.353149 285.439033 
L 198.024663 285.439033 
L 198.024663 284.685359 
L 201.180453 284.685359 
L 201.180453 283.931686 
L 202.262659 283.931686 
L 202.262659 283.178013 
L 204.348936 283.178013 
L 204.459536 281.670667 
L 207.792011 281.670667 
L 207.792011 280.916993 
L 208.28684 280.916993 
L 208.28684 280.16332 
L 209.369046 280.16332 
L 209.369046 279.409647 
L 211.455323 279.409647 
L 211.455323 278.655974 
L 214.116284 278.655974 
L 214.116284 277.902301 
L 214.890491 277.902301 
L 214.926739 276.394954 
L 215.858675 276.394954 
L 215.858675 275.641281 
L 221.214764 275.641281 
L 221.251012 273.380261 
L 222.182948 273.380261 
L 222.291408 271.872915 
L 223.164744 271.872915 
L 223.164744 271.119242 
L 223.714982 271.119242 
L 223.714982 270.365569 
L 224.089063 270.365569 
L 224.089063 269.611895 
L 224.534932 269.611895 
L 224.534932 268.858222 
L 225.521048 268.858222 
L 225.521048 268.104549 
L 228.321151 268.104549 
L 228.3574 266.597203 
L 228.503763 266.597203 
L 228.503763 265.843529 
L 228.70874 265.843529 
L 228.70874 265.089856 
L 229.289336 265.089856 
L 229.289336 264.336183 
L 229.411505 264.336183 
L 229.489017 260.567817 
L 229.866771 260.567817 
L 229.866771 259.814144 
L 230.086051 259.814144 
L 230.086051 259.060471 
L 230.859206 259.060471 
L 230.96119 257.553124 
L 231.001473 257.553124 
L 231.001473 256.799451 
L 231.236592 256.799451 
L 231.290345 255.292105 
L 231.664425 255.292105 
L 231.766691 253.784758 
L 232.624385 253.784758 
L 232.631198 252.277412 
L 232.747916 252.277412 
L 232.841282 250.770065 
L 233.09641 250.770065 
L 233.09641 250.016392 
L 233.219791 250.016392 
L 233.219791 249.262719 
L 233.404784 249.262719 
L 233.404784 248.509046 
L 233.612423 248.509046 
L 233.612423 247.755373 
L 233.822507 247.755373 
L 233.895342 244.74068 
L 234.264401 244.74068 
L 234.264401 243.987007 
L 234.607583 243.987007 
L 234.607583 243.233333 
L 234.770481 243.233333 
L 234.770481 242.47966 
L 235.128908 242.47966 
L 235.234013 240.972314 
L 235.338991 240.972314 
L 235.409372 239.464967 
L 235.454917 239.464967 
L 235.558409 237.957621 
L 235.677641 237.957621 
L 235.766068 234.189255 
L 235.840033 234.189255 
L 235.878541 232.681908 
L 236.284103 232.681908 
L 236.322295 231.174562 
L 236.595404 231.174562 
L 236.621805 229.667216 
L 236.75368 229.667216 
L 236.75368 228.913542 
L 236.981983 228.913542 
L 237.089472 225.145176 
L 237.106506 225.145176 
L 237.106506 224.391503 
L 237.264102 224.391503 
L 237.356064 222.130484 
L 237.400259 222.130484 
L 237.498044 220.623137 
L 237.661414 220.623137 
L 237.661414 219.869464 
L 237.823232 219.869464 
L 237.905285 217.608444 
L 237.952391 217.608444 
L 238.046448 214.593752 
L 238.181096 214.593752 
L 238.18715 213.086405 
L 238.36011 213.086405 
L 238.36011 212.332732 
L 238.491933 212.332732 
L 238.580039 207.810693 
L 238.6723 207.810693 
L 238.767901 206.303346 
L 238.788048 206.303346 
L 238.879763 204.796 
L 238.940569 204.796 
L 239.016913 203.288654 
L 239.072671 203.288654 
L 239.072671 202.53498 
L 239.27744 202.53498 
L 239.27744 201.781307 
L 239.420064 201.781307 
L 239.481242 200.273961 
L 239.536807 200.273961 
L 239.585223 198.766614 
L 239.729057 198.766614 
L 239.837453 194.998248 
L 239.88142 194.998248 
L 239.88142 194.244575 
L 240.01516 194.244575 
L 240.091503 191.983556 
L 240.199771 191.983556 
L 240.254642 190.476209 
L 240.344545 190.476209 
L 240.44973 188.968863 
L 240.552232 188.968863 
L 240.663187 185.200497 
L 240.716293 185.200497 
L 240.820962 181.432131 
L 240.851505 181.432131 
L 240.945561 176.910092 
L 240.998157 176.910092 
L 241.086892 173.895399 
L 241.135735 173.895399 
L 241.197988 170.880706 
L 241.291661 170.880706 
L 241.291661 170.127033 
L 241.403262 170.127033 
L 241.495464 167.866013 
L 241.527694 167.866013 
L 241.563443 166.358667 
L 241.64996 166.358667 
L 241.737777 164.097647 
L 241.822237 164.097647 
L 241.912219 162.590301 
L 241.939514 162.590301 
L 241.975741 161.082954 
L 242.142691 161.082954 
L 242.237841 158.068261 
L 242.517813 158.068261 
L 242.596643 155.807242 
L 242.686745 155.807242 
L 242.699818 153.546222 
L 242.842165 153.546222 
L 242.896828 149.777856 
L 242.970723 149.777856 
L 243.03028 146.00949 
L 243.098884 146.00949 
L 243.181186 143.748471 
L 243.217282 143.748471 
L 243.300589 141.487451 
L 243.335793 141.487451 
L 243.441751 136.211739 
L 243.500146 136.211739 
L 243.607473 133.950719 
L 243.631969 133.950719 
L 243.740388 130.182353 
L 243.907331 130.182353 
L 243.907331 129.42868 
L 244.025791 129.42868 
L 244.025791 128.675007 
L 244.146661 128.675007 
L 244.252063 124.906641 
L 244.329145 124.906641 
L 244.432913 121.891948 
L 244.460968 121.891948 
L 244.549074 118.877255 
L 244.657225 118.877255 
L 244.682063 117.369908 
L 244.815385 117.369908 
L 244.844638 114.355216 
L 244.976461 114.355216 
L 245.064567 111.340523 
L 245.133155 111.340523 
L 245.227258 108.32583 
L 245.45343 108.32583 
L 245.522525 106.818484 
L 245.564542 106.818484 
L 245.654348 104.557464 
L 245.690347 104.557464 
L 245.784471 100.789098 
L 245.82217 100.789098 
L 245.910276 99.281752 
L 245.940862 99.281752 
L 245.940862 98.528078 
L 246.072685 98.528078 
L 246.17371 96.267059 
L 246.216265 96.267059 
L 246.317938 94.759712 
L 246.416111 94.759712 
L 246.416111 94.006039 
L 246.528021 94.006039 
L 246.593045 92.498693 
L 246.645248 92.498693 
L 246.645248 91.74502 
L 246.835444 91.74502 
L 246.855331 90.237673 
L 246.958746 90.237673 
L 247.045263 88.730327 
L 247.075814 88.730327 
L 247.158599 87.22298 
L 247.494569 87.22298 
L 247.590401 84.961961 
L 247.626393 84.961961 
L 247.714499 83.454614 
L 247.980837 83.454614 
L 247.980837 82.700941 
L 248.238644 82.700941 
L 248.329551 78.932575 
L 248.390357 78.932575 
L 248.430333 76.671556 
L 248.656981 76.671556 
L 248.721918 75.164209 
L 248.772327 75.164209 
L 248.772327 74.410536 
L 248.967712 74.410536 
L 249.053628 70.64217 
L 249.251795 70.64217 
L 249.251795 69.888497 
L 249.692 69.888497 
L 249.778149 67.627477 
L 249.842851 67.627477 
L 249.842851 66.873804 
L 250.126934 66.873804 
L 250.210688 65.366458 
L 250.531103 65.366458 
L 250.582001 63.105438 
L 250.849878 63.105438 
L 250.926221 61.598092 
L 251.049107 61.598092 
L 251.049107 60.844418 
L 251.196486 60.844418 
L 251.196486 60.090745 
L 251.494532 60.090745 
L 251.494532 59.337072 
L 251.722024 59.337072 
L 251.722024 58.583399 
L 251.924246 58.583399 
L 251.941367 57.076052 
L 252.445925 57.076052 
L 252.445925 56.322379 
L 252.572496 56.322379 
L 252.650694 54.815033 
L 252.773258 54.815033 
L 252.854496 53.307686 
L 252.993798 53.307686 
L 252.993798 52.554013 
L 253.512409 52.554013 
L 253.512409 51.80034 
L 253.731546 51.80034 
L 253.793139 50.292993 
L 253.925486 50.292993 
L 253.925486 49.53932 
L 254.052 49.53932 
L 254.052 48.785647 
L 254.243237 48.785647 
L 254.336578 47.278301 
L 254.448006 47.278301 
L 254.463965 45.770954 
L 254.647729 45.770954 
L 254.651808 44.263608 
L 254.776516 44.263608 
L 254.776516 43.509935 
L 255.075728 43.509935 
L 255.09942 42.002588 
L 255.386879 42.002588 
L 255.386879 41.248915 
L 255.516782 41.248915 
L 255.611095 39.741569 
L 255.722798 39.741569 
L 255.722798 38.987895 
L 256.061977 38.987895 
L 256.145763 37.480549 
L 256.492188 37.480549 
L 256.573828 35.219529 
L 256.798387 35.219529 
L 256.896732 32.204837 
L 257.362739 32.204837 
L 257.413662 29.943817 
L 257.69005 29.943817 
L 257.69005 29.190144 
L 258.2895 29.190144 
L 258.351752 27.682797 
L 259.789365 27.682797 
L 259.789365 26.929124 
L 260.078625 26.929124 
L 260.078625 26.175451 
L 260.817776 26.175451 
L 260.927867 23.914431 
L 261.586678 23.914431 
L 261.586678 23.160758 
L 261.859803 23.160758 
L 261.859803 22.407085 
L 263.028322 22.407085 
L 263.028322 21.653412 
L 263.767472 21.653412 
L 263.767472 20.899739 
L 263.941642 20.899739 
L 263.97789 19.392392 
L 264.909826 19.392392 
L 264.909826 18.638719 
L 269.165872 18.638719 
L 269.165872 17.885046 
L 270.53606 17.885046 
L 270.53606 17.131373 
L 272.215895 17.131373 
L 272.215895 16.377699 
L 273.586083 16.377699 
L 273.586083 15.624026 
L 275.412633 15.624026 
L 275.412633 14.870353 
L 278.462656 14.870353 
L 278.462656 14.11668 
L 279.405912 14.11668 
L 279.442132 12.609333 
L 282.455934 12.609333 
L 282.455934 11.85566 
L 284.511834 11.85566 
L 284.511834 11.101987 
L 285.766405 11.101987 
L 285.766405 10.348314 
L 287.561857 10.348314 
L 287.561857 9.594641 
L 289.368855 9.594641 
L 289.368855 8.840967 
L 292.418878 8.840967 
L 292.418878 8.087294 
L 292.872792 8.087294 
L 292.872792 7.333621 
L 325.44326 7.333621 
L 325.44326 6.579948 
L 328.493283 6.579948 
L 328.493283 5.826275 
L 453.192 5.826275 
L 453.192 5.826275 
" clip-path="url(#p5fd8a669e0)" style="fill: none; stroke: #bf00bf; stroke-width: 3; stroke-linecap: square"/>
   </g>
   <g id="line2d_54">
    <path clip-path="url(#p5fd8a669e0)" style="fill: none; stroke: #bf00bf; stroke-width: 3; stroke-linecap: square"/>
   </g>
   <g id="line2d_55">
    <path d="M 34.16 288.453725 
L 190.073749 288.453725 
L 190.073749 287.700052 
L 193.280993 287.700052 
L 193.280993 286.946379 
L 195.318192 286.946379 
L 195.318192 286.192706 
L 195.629905 286.192706 
L 195.629905 285.439033 
L 196.70351 285.439033 
L 196.70351 284.685359 
L 197.311007 284.685359 
L 197.311007 283.931686 
L 198.525436 283.931686 
L 198.525436 283.178013 
L 198.837149 283.178013 
L 198.837149 282.42434 
L 199.910754 282.42434 
L 199.910754 281.670667 
L 202.55545 281.670667 
L 202.55545 280.916993 
L 202.867163 280.916993 
L 202.867163 280.16332 
L 203.940768 280.16332 
L 203.940768 279.409647 
L 215.283975 279.409647 
L 215.283975 278.655974 
L 218.491219 278.655974 
L 218.491219 277.902301 
L 222.521233 277.902301 
L 222.617105 276.394954 
L 223.75374 276.394954 
L 223.75374 275.641281 
L 224.179537 275.641281 
L 224.179537 274.887608 
L 224.567142 274.887608 
L 224.567142 274.133935 
L 225.824349 274.133935 
L 225.824349 273.380261 
L 226.960984 273.380261 
L 226.960984 272.626588 
L 227.386781 272.626588 
L 227.386781 271.872915 
L 227.774386 271.872915 
L 227.774386 271.119242 
L 229.854363 271.119242 
L 229.854363 270.365569 
L 230.990998 270.365569 
L 230.990998 269.611895 
L 231.416795 269.611895 
L 231.425944 268.104549 
L 231.8044 268.104549 
L 231.8044 267.350876 
L 232.088496 267.350876 
L 232.088496 266.597203 
L 232.696088 266.597203 
L 232.696088 265.843529 
L 234.137724 265.843529 
L 234.200706 264.336183 
L 234.46603 264.336183 
L 234.46603 263.58251 
L 234.633189 263.58251 
L 234.741538 261.32149 
L 234.745315 261.32149 
L 234.745315 260.567817 
L 235.044391 260.567817 
L 235.073621 258.306797 
L 235.234437 258.306797 
L 235.234437 257.553124 
L 235.34913 257.553124 
L 235.34913 256.799451 
L 235.539372 256.799451 
L 235.620166 255.292105 
L 235.721517 255.292105 
L 235.721517 254.538431 
L 235.951566 254.538431 
L 235.951566 253.784758 
L 236.610694 253.784758 
L 236.694876 252.277412 
L 236.75594 252.277412 
L 236.75594 251.523739 
L 237.093619 251.523739 
L 237.093619 250.770065 
L 237.283665 250.770065 
L 237.283665 250.016392 
L 237.40795 250.016392 
L 237.517446 247.001699 
L 237.611971 247.001699 
L 237.698917 243.987007 
L 237.879162 243.987007 
L 237.887479 242.47966 
L 238.152807 242.47966 
L 238.25512 240.972314 
L 238.343436 240.972314 
L 238.400758 237.957621 
L 238.566557 237.957621 
L 238.663203 235.696601 
L 238.744104 235.696601 
L 238.805167 232.681908 
L 238.948299 232.681908 
L 239.049302 230.420889 
L 239.07241 230.420889 
L 239.133473 228.913542 
L 239.193894 228.913542 
L 239.193894 228.159869 
L 239.33666 228.159869 
L 239.408982 225.145176 
L 239.532664 225.145176 
L 239.532664 224.391503 
L 239.70843 224.391503 
L 239.724172 222.130484 
L 239.991153 222.130484 
L 239.991153 221.37681 
L 240.225837 221.37681 
L 240.304347 219.115791 
L 240.392664 219.115791 
L 240.483651 216.854771 
L 240.613349 216.854771 
L 240.72097 214.593752 
L 240.750369 214.593752 
L 240.802435 212.332732 
L 240.864608 212.332732 
L 240.939569 209.318039 
L 240.996478 209.318039 
L 241.085236 207.05702 
L 241.130742 207.05702 
L 241.210209 201.781307 
L 241.276936 201.781307 
L 241.315129 200.273961 
L 241.40625 200.273961 
L 241.498494 195.751922 
L 241.521094 195.751922 
L 241.60903 192.737229 
L 241.664293 192.737229 
L 241.664293 191.983556 
L 241.866075 191.983556 
L 241.945622 188.968863 
L 242.10243 188.968863 
L 242.200437 182.939477 
L 242.249926 182.939477 
L 242.321192 179.924784 
L 242.416864 179.924784 
L 242.434546 178.417438 
L 242.56451 178.417438 
L 242.60912 176.156418 
L 242.744672 176.156418 
L 242.834799 172.388052 
L 242.862647 172.388052 
L 242.96846 170.127033 
L 242.984679 170.127033 
L 243.017877 167.11234 
L 243.210159 167.11234 
L 243.312513 163.343974 
L 243.323573 163.343974 
L 243.345684 160.329281 
L 243.486371 160.329281 
L 243.570574 156.560915 
L 243.607364 156.560915 
L 243.712618 152.792549 
L 243.808939 152.792549 
L 243.851659 148.27051 
L 243.920728 148.27051 
L 243.99485 144.502144 
L 244.033737 144.502144 
L 244.081374 142.994797 
L 244.161695 142.994797 
L 244.251287 139.226431 
L 244.337787 139.226431 
L 244.388533 136.965412 
L 244.450861 136.965412 
L 244.517587 133.197046 
L 244.613427 133.197046 
L 244.716341 127.921333 
L 244.740835 127.921333 
L 244.849681 123.399294 
L 244.85797 123.399294 
L 244.911874 120.384601 
L 244.994333 120.384601 
L 245.026291 117.369908 
L 245.12109 117.369908 
L 245.225679 112.847869 
L 245.24018 112.847869 
L 245.345994 109.079503 
L 245.362292 109.079503 
L 245.467097 105.311137 
L 245.515689 105.311137 
L 245.621503 102.296444 
L 245.676734 102.296444 
L 245.767789 99.281752 
L 245.794905 99.281752 
L 245.89921 94.759712 
L 245.932535 94.759712 
L 246.032355 92.498693 
L 246.053043 92.498693 
L 246.149302 87.976654 
L 246.188537 87.976654 
L 246.291331 84.961961 
L 246.313032 84.961961 
L 246.386099 83.454614 
L 246.447862 83.454614 
L 246.504574 81.947268 
L 246.5713 81.947268 
L 246.659039 80.439922 
L 246.704445 80.439922 
L 246.793674 76.671556 
L 246.822712 76.671556 
L 246.903394 74.410536 
L 246.944288 74.410536 
L 246.944288 73.656863 
L 247.102583 73.656863 
L 247.21253 70.64217 
L 247.250233 70.64217 
L 247.311996 68.38115 
L 247.36894 68.38115 
L 247.396795 66.873804 
L 247.494802 66.873804 
L 247.494802 66.120131 
L 247.615745 66.120131 
L 247.722802 63.105438 
L 247.776034 63.105438 
L 247.88462 57.829725 
L 247.934085 57.829725 
L 247.985616 54.815033 
L 248.108646 54.815033 
L 248.185805 53.307686 
L 248.256971 53.307686 
L 248.256971 52.554013 
L 248.403868 52.554013 
L 248.458184 51.046667 
L 248.731675 51.046667 
L 248.780736 49.53932 
L 248.965262 49.53932 
L 248.975033 48.031974 
L 249.228102 48.031974 
L 249.228102 47.278301 
L 249.392305 47.278301 
L 249.440824 45.770954 
L 249.59581 45.770954 
L 249.685115 43.509935 
L 249.780628 43.509935 
L 249.828335 41.248915 
L 249.943805 41.248915 
L 249.943805 40.495242 
L 250.068378 40.495242 
L 250.068378 39.741569 
L 250.368538 39.741569 
L 250.440231 38.234222 
L 250.593529 38.234222 
L 250.593529 36.726876 
L 250.807939 36.726876 
L 250.807939 35.973203 
L 251.126054 35.973203 
L 251.126054 35.219529 
L 251.280507 35.219529 
L 251.280507 34.465856 
L 251.398953 34.465856 
L 251.453862 32.95851 
L 251.530341 32.95851 
L 251.530341 32.204837 
L 251.950288 32.204837 
L 252.049785 30.69749 
L 252.295244 30.69749 
L 252.401058 28.436471 
L 252.790564 28.436471 
L 252.790564 27.682797 
L 253.005047 27.682797 
L 253.005047 26.929124 
L 253.955822 26.929124 
L 254.051335 25.421778 
L 254.099013 25.421778 
L 254.099013 24.668105 
L 260.830391 24.668105 
L 260.830391 23.914431 
L 263.574798 23.914431 
L 263.574798 23.160758 
L 268.163521 23.160758 
L 268.163521 22.407085 
L 269.300156 22.407085 
L 269.300156 21.653412 
L 269.725953 21.653412 
L 269.725953 20.899739 
L 270.113558 20.899739 
L 270.113558 20.146065 
L 270.907928 20.146065 
L 270.907928 19.392392 
L 272.044562 19.392392 
L 272.044562 18.638719 
L 272.47036 18.638719 
L 272.47036 17.885046 
L 272.857965 17.885046 
L 272.857965 17.131373 
L 276.972361 17.131373 
L 276.972361 16.377699 
L 277.547984 16.377699 
L 277.547984 15.624026 
L 279.716767 15.624026 
L 279.747122 14.11668 
L 280.755229 14.11668 
L 280.755229 13.363007 
L 282.491529 13.363007 
L 282.491529 12.609333 
L 284.785243 12.609333 
L 284.785243 11.85566 
L 287.701464 11.85566 
L 287.701464 11.101987 
L 289.708112 11.101987 
L 289.708112 10.348314 
L 290.44587 10.348314 
L 290.44587 9.594641 
L 291.314205 9.594641 
L 291.314205 8.840967 
L 292.452518 8.840967 
L 292.452518 8.087294 
L 294.058611 8.087294 
L 294.058611 7.333621 
L 323.094401 7.333621 
L 323.094401 6.579948 
L 325.838807 6.579948 
L 325.838807 5.826275 
L 453.192 5.826275 
L 453.192 5.826275 
" clip-path="url(#p5fd8a669e0)" style="fill: none; stroke: #ff0000; stroke-width: 3; stroke-linecap: square"/>
   </g>
   <g id="line2d_56">
    <path clip-path="url(#p5fd8a669e0)" style="fill: none; stroke: #ff0000; stroke-width: 3; stroke-linecap: square"/>
   </g>
   <g id="line2d_57">
    <path d="M 243.676 291.28 
L 243.676 3 
" clip-path="url(#p5fd8a669e0)" style="fill: none; stroke: #000000; stroke-width: 1.5; stroke-linecap: square"/>
   </g>
   <g id="line2d_58">
    <path d="M 34.16 147.14 
L 453.192 147.14 
" clip-path="url(#p5fd8a669e0)" style="fill: none; stroke-dasharray: 2,3.3; stroke-dashoffset: 0; stroke: #000000; stroke-width: 2"/>
   </g>
   <g id="patch_3">
    <path d="M 34.16 291.28 
L 34.16 3 
" style="fill: none; stroke: #000000; stroke-width: 0.8; stroke-linejoin: miter; stroke-linecap: square"/>
   </g>
   <g id="patch_4">
    <path d="M 453.192 291.28 
L 453.192 3 
" style="fill: none; stroke: #000000; stroke-width: 0.8; stroke-linejoin: miter; stroke-linecap: square"/>
   </g>
   <g id="patch_5">
    <path d="M 34.16 291.28 
L 453.192 291.28 
" style="fill: none; stroke: #000000; stroke-width: 0.8; stroke-linejoin: miter; stroke-linecap: square"/>
   </g>
   <g id="patch_6">
    <path d="M 34.16 3 
L 453.192 3 
" style="fill: none; stroke: #000000; stroke-width: 0.8; stroke-linejoin: miter; stroke-linecap: square"/>
   </g>
   <g id="text_5">
    <!-- f10-f14,5-D -->
    <g transform="translate(330.91761 285.5144)scale(0.2 -0.2)">
     <defs>
      <path id="DejaVuSans-34" d="M 2419 4116 
L 825 1625 
L 2419 1625 
L 2419 4116 
z
M 2253 4666 
L 3047 4666 
L 3047 1625 
L 3713 1625 
L 3713 1100 
L 3047 1100 
L 3047 0 
L 2419 0 
L 2419 1100 
L 313 1100 
L 313 1709 
L 2253 4666 
z
" transform="scale(0.015625)"/>
      <path id="DejaVuSans-2c" d="M 750 794 
L 1409 794 
L 1409 256 
L 897 -744 
L 494 -744 
L 750 256 
L 750 794 
z
" transform="scale(0.015625)"/>
      <path id="DejaVuSans-35" d="M 691 4666 
L 3169 4666 
L 3169 4134 
L 1269 4134 
L 1269 2991 
Q 1406 3038 1543 3061 
Q 1681 3084 1819 3084 
Q 2600 3084 3056 2656 
Q 3513 2228 3513 1497 
Q 3513 744 3044 326 
Q 2575 -91 1722 -91 
Q 1428 -91 1123 -41 
Q 819 9 494 109 
L 494 744 
Q 775 591 1075 516 
Q 1375 441 1709 441 
Q 2250 441 2565 725 
Q 2881 1009 2881 1497 
Q 2881 1984 2565 2268 
Q 2250 2553 1709 2553 
Q 1456 2553 1204 2497 
Q 953 2441 691 2322 
L 691 4666 
z
" transform="scale(0.015625)"/>
      <path id="DejaVuSans-44" d="M 1259 4147 
L 1259 519 
L 2022 519 
Q 2988 519 3436 956 
Q 3884 1394 3884 2338 
Q 3884 3275 3436 3711 
Q 2988 4147 2022 4147 
L 1259 4147 
z
M 628 4666 
L 1925 4666 
Q 3281 4666 3915 4102 
Q 4550 3538 4550 2338 
Q 4550 1131 3912 565 
Q 3275 0 1925 0 
L 628 0 
L 628 4666 
z
" transform="scale(0.015625)"/>
     </defs>
     <use xlink:href="#DejaVuSans-66"/>
     <use xlink:href="#DejaVuSans-31" x="35.205078"/>
     <use xlink:href="#DejaVuSans-30" x="98.828125"/>
     <use xlink:href="#DejaVuSans-2d" x="162.451172"/>
     <use xlink:href="#DejaVuSans-66" x="198.535156"/>
     <use xlink:href="#DejaVuSans-31" x="233.740234"/>
     <use xlink:href="#DejaVuSans-34" x="297.363281"/>
     <use xlink:href="#DejaVuSans-2c" x="360.986328"/>
     <use xlink:href="#DejaVuSans-35" x="392.773438"/>
     <use xlink:href="#DejaVuSans-2d" x="456.396484"/>
     <use xlink:href="#DejaVuSans-44" x="492.480469"/>
    </g>
   </g>
   <g id="text_6">
    <!-- v2.6.1.158 -->
    <g style="fill: #808080" transform="translate(216.861937 286.317512)scale(0.1 -0.1)">
     <defs>
      <path id="DejaVuSans-32" d="M 1228 531 
L 3431 531 
L 3431 0 
L 469 0 
L 469 531 
Q 828 903 1448 1529 
Q 2069 2156 2228 2338 
Q 2531 2678 2651 2914 
Q 2772 3150 2772 3378 
Q 2772 3750 2511 3984 
Q 2250 4219 1831 4219 
Q 1534 4219 1204 4116 
Q 875 4013 500 3803 
L 500 4441 
Q 881 4594 1212 4672 
Q 1544 4750 1819 4750 
Q 2544 4750 2975 4387 
Q 3406 4025 3406 3419 
Q 3406 3131 3298 2873 
Q 3191 2616 2906 2266 
Q 2828 2175 2409 1742 
Q 1991 1309 1228 531 
z
" transform="scale(0.015625)"/>
      <path id="DejaVuSans-2e" d="M 684 794 
L 1344 794 
L 1344 0 
L 684 0 
L 684 794 
z
" transform="scale(0.015625)"/>
      <path id="DejaVuSans-36" d="M 2113 2584 
Q 1688 2584 1439 2293 
Q 1191 2003 1191 1497 
Q 1191 994 1439 701 
Q 1688 409 2113 409 
Q 2538 409 2786 701 
Q 3034 994 3034 1497 
Q 3034 2003 2786 2293 
Q 2538 2584 2113 2584 
z
M 3366 4563 
L 3366 3988 
Q 3128 4100 2886 4159 
Q 2644 4219 2406 4219 
Q 1781 4219 1451 3797 
Q 1122 3375 1075 2522 
Q 1259 2794 1537 2939 
Q 1816 3084 2150 3084 
Q 2853 3084 3261 2657 
Q 3669 2231 3669 1497 
Q 3669 778 3244 343 
Q 2819 -91 2113 -91 
Q 1303 -91 875 529 
Q 447 1150 447 2328 
Q 447 3434 972 4092 
Q 1497 4750 2381 4750 
Q 2619 4750 2861 4703 
Q 3103 4656 3366 4563 
z
" transform="scale(0.015625)"/>
      <path id="DejaVuSans-38" d="M 2034 2216 
Q 1584 2216 1326 1975 
Q 1069 1734 1069 1313 
Q 1069 891 1326 650 
Q 1584 409 2034 409 
Q 2484 409 2743 651 
Q 3003 894 3003 1313 
Q 3003 1734 2745 1975 
Q 2488 2216 2034 2216 
z
M 1403 2484 
Q 997 2584 770 2862 
Q 544 3141 544 3541 
Q 544 4100 942 4425 
Q 1341 4750 2034 4750 
Q 2731 4750 3128 4425 
Q 3525 4100 3525 3541 
Q 3525 3141 3298 2862 
Q 3072 2584 2669 2484 
Q 3125 2378 3379 2068 
Q 3634 1759 3634 1313 
Q 3634 634 3220 271 
Q 2806 -91 2034 -91 
Q 1263 -91 848 271 
Q 434 634 434 1313 
Q 434 1759 690 2068 
Q 947 2378 1403 2484 
z
M 1172 3481 
Q 1172 3119 1398 2916 
Q 1625 2713 2034 2713 
Q 2441 2713 2670 2916 
Q 2900 3119 2900 3481 
Q 2900 3844 2670 4047 
Q 2441 4250 2034 4250 
Q 1625 4250 1398 4047 
Q 1172 3844 1172 3481 
z
" transform="scale(0.015625)"/>
     </defs>
     <use xlink:href="#DejaVuSans-76"/>
     <use xlink:href="#DejaVuSans-32" x="59.179688"/>
     <use xlink:href="#DejaVuSans-2e" x="122.802734"/>
     <use xlink:href="#DejaVuSans-36" x="154.589844"/>
     <use xlink:href="#DejaVuSans-2e" x="218.212891"/>
     <use xlink:href="#DejaVuSans-31" x="250"/>
     <use xlink:href="#DejaVuSans-2e" x="313.623047"/>
     <use xlink:href="#DejaVuSans-31" x="345.410156"/>
     <use xlink:href="#DejaVuSans-35" x="409.033203"/>
     <use xlink:href="#DejaVuSans-38" x="472.65625"/>
    </g>
   </g>
   <g id="legend_1">
    <g id="patch_7">
     <path d="M 48.16 136.425 
L 177.381875 136.425 
Q 181.381875 136.425 181.381875 132.425 
L 181.381875 17 
Q 181.381875 13 177.381875 13 
L 48.16 13 
Q 44.16 13 44.16 17 
L 44.16 132.425 
Q 44.16 136.425 48.16 136.425 
z
" style="fill: #ffffff; opacity: 0.2; stroke: #cccccc; stroke-linejoin: miter"/>
    </g>
    <g id="line2d_59">
     <path d="M 52.16 29.196875 
L 72.16 29.196875 
L 92.16 29.196875 
" style="fill: none; stroke: #000000; stroke-width: 3; stroke-linecap: square"/>
    </g>
    <g id="text_7">
     <!-- 1: 5/5 -->
     <g transform="translate(108.16 36.196875)scale(0.2 -0.2)">
      <defs>
       <path id="DejaVuSans-3a" d="M 750 794 
L 1409 794 
L 1409 0 
L 750 0 
L 750 794 
z
M 750 3309 
L 1409 3309 
L 1409 2516 
L 750 2516 
L 750 3309 
z
" transform="scale(0.015625)"/>
       <path id="DejaVuSans-2f" d="M 1625 4666 
L 2156 4666 
L 531 -594 
L 0 -594 
L 1625 4666 
z
" transform="scale(0.015625)"/>
      </defs>
      <use xlink:href="#DejaVuSans-31"/>
      <use xlink:href="#DejaVuSans-3a" x="63.623047"/>
      <use xlink:href="#DejaVuSans-20" x="97.314453"/>
      <use xlink:href="#DejaVuSans-35" x="129.101562"/>
      <use xlink:href="#DejaVuSans-2f" x="192.724609"/>
      <use xlink:href="#DejaVuSans-35" x="226.416016"/>
     </g>
    </g>
    <g id="line2d_60">
     <path d="M 52.16 58.553125 
L 72.16 58.553125 
L 92.16 58.553125 
" style="fill: none; stroke: #00bfbf; stroke-width: 3; stroke-linecap: square"/>
    </g>
    <g id="text_8">
     <!-- -1: 5/5 -->
     <g transform="translate(108.16 65.553125)scale(0.2 -0.2)">
      <use xlink:href="#DejaVuSans-2d"/>
      <use xlink:href="#DejaVuSans-31" x="36.083984"/>
      <use xlink:href="#DejaVuSans-3a" x="99.707031"/>
      <use xlink:href="#DejaVuSans-20" x="133.398438"/>
      <use xlink:href="#DejaVuSans-35" x="165.185547"/>
      <use xlink:href="#DejaVuSans-2f" x="228.808594"/>
      <use xlink:href="#DejaVuSans-35" x="262.5"/>
     </g>
    </g>
    <g id="line2d_61">
     <path d="M 52.16 87.909375 
L 72.16 87.909375 
L 92.16 87.909375 
" style="fill: none; stroke: #bf00bf; stroke-width: 3; stroke-linecap: square"/>
    </g>
    <g id="text_9">
     <!-- -4: 5/5 -->
     <g transform="translate(108.16 94.909375)scale(0.2 -0.2)">
      <use xlink:href="#DejaVuSans-2d"/>
      <use xlink:href="#DejaVuSans-34" x="36.083984"/>
      <use xlink:href="#DejaVuSans-3a" x="99.707031"/>
      <use xlink:href="#DejaVuSans-20" x="133.398438"/>
      <use xlink:href="#DejaVuSans-35" x="165.185547"/>
      <use xlink:href="#DejaVuSans-2f" x="228.808594"/>
      <use xlink:href="#DejaVuSans-35" x="262.5"/>
     </g>
    </g>
    <g id="line2d_62">
     <path d="M 52.16 117.265625 
L 72.16 117.265625 
L 92.16 117.265625 
" style="fill: none; stroke: #ff0000; stroke-width: 3; stroke-linecap: square"/>
    </g>
    <g id="text_10">
     <!-- -8: 5/5 -->
     <g transform="translate(108.16 124.265625)scale(0.2 -0.2)">
      <use xlink:href="#DejaVuSans-2d"/>
      <use xlink:href="#DejaVuSans-38" x="36.083984"/>
      <use xlink:href="#DejaVuSans-3a" x="99.707031"/>
      <use xlink:href="#DejaVuSans-20" x="133.398438"/>
      <use xlink:href="#DejaVuSans-35" x="165.185547"/>
      <use xlink:href="#DejaVuSans-2f" x="228.808594"/>
      <use xlink:href="#DejaVuSans-35" x="262.5"/>
     </g>
    </g>
   </g>
  </g>
 </g>
 <defs>
  <clipPath id="p5fd8a669e0">
   <rect x="34.16" y="3" width="419.032" height="288.28"/>
  </clipPath>
 </defs>
</svg>
