<?xml version="1.0" encoding="utf-8" standalone="no"?>
<!DOCTYPE svg PUBLIC "-//W3C//DTD SVG 1.1//EN"
  "http://www.w3.org/Graphics/SVG/1.1/DTD/svg11.dtd">
<svg xmlns:xlink="http://www.w3.org/1999/xlink" width="460.8pt" height="345.6pt" viewBox="0 0 460.8 345.6" xmlns="http://www.w3.org/2000/svg" version="1.1">
 <metadata>
  <rdf:RDF xmlns:dc="http://purl.org/dc/elements/1.1/" xmlns:cc="http://creativecommons.org/ns#" xmlns:rdf="http://www.w3.org/1999/02/22-rdf-syntax-ns#">
   <cc:Work>
    <dc:type rdf:resource="http://purl.org/dc/dcmitype/StillImage"/>
    <dc:date>2023-04-07T14:48:07.482783</dc:date>
    <dc:format>image/svg+xml</dc:format>
    <dc:creator>
     <cc:Agent>
      <dc:title>Matplotlib v3.5.2, https://matplotlib.org/</dc:title>
     </cc:Agent>
    </dc:creator>
   </cc:Work>
  </rdf:RDF>
 </metadata>
 <defs>
  <style type="text/css">*{stroke-linejoin: round; stroke-linecap: butt}</style>
 </defs>
 <g id="figure_1">
  <g id="patch_1">
   <path d="M 0 345.6 
L 460.8 345.6 
L 460.8 0 
L 0 0 
z
" style="fill: #ffffff"/>
  </g>
  <g id="axes_1">
   <g id="patch_2">
    <path d="M 0 293.76 
L 460.8 293.76 
L 460.8 3.456 
L 0 3.456 
z
" style="fill: #ffffff"/>
   </g>
   <g id="matplotlib.axis_1">
    <g id="xtick_1">
     <g id="line2d_1">
      <path d="M 104.836405 293.76 
L 104.836405 3.456 
" clip-path="url(#p4368f937c6)" style="fill: none; stroke: #b0b0b0; stroke-width: 0.8; stroke-linecap: square"/>
     </g>
     <g id="line2d_2">
      <defs>
       <path id="mf5cc2a1db9" d="M 0 0 
L 0 3.5 
" style="stroke: #000000; stroke-width: 0.8"/>
      </defs>
      <g>
       <use xlink:href="#mf5cc2a1db9" x="104.836405" y="293.76" style="stroke: #000000; stroke-width: 0.8"/>
      </g>
     </g>
     <g id="text_1">
      <!-- -4 -->
      <g transform="translate(94.866093 315.956875)scale(0.2 -0.2)">
       <defs>
        <path id="DejaVuSans-2d" d="M 313 2009 
L 1997 2009 
L 1997 1497 
L 313 1497 
L 313 2009 
z
" transform="scale(0.015625)"/>
        <path id="DejaVuSans-34" d="M 2419 4116 
L 825 1625 
L 2419 1625 
L 2419 4116 
z
M 2253 4666 
L 3047 4666 
L 3047 1625 
L 3713 1625 
L 3713 1100 
L 3047 1100 
L 3047 0 
L 2419 0 
L 2419 1100 
L 313 1100 
L 313 1709 
L 2253 4666 
z
" transform="scale(0.015625)"/>
       </defs>
       <use xlink:href="#DejaVuSans-2d"/>
       <use xlink:href="#DejaVuSans-34" x="36.083984"/>
      </g>
     </g>
    </g>
    <g id="xtick_2">
     <g id="line2d_3">
      <path d="M 209.786192 293.76 
L 209.786192 3.456 
" clip-path="url(#p4368f937c6)" style="fill: none; stroke: #b0b0b0; stroke-width: 0.8; stroke-linecap: square"/>
     </g>
     <g id="line2d_4">
      <g>
       <use xlink:href="#mf5cc2a1db9" x="209.786192" y="293.76" style="stroke: #000000; stroke-width: 0.8"/>
      </g>
     </g>
     <g id="text_2">
      <!-- 0 -->
      <g transform="translate(203.423692 315.956875)scale(0.2 -0.2)">
       <defs>
        <path id="DejaVuSans-30" d="M 2034 4250 
Q 1547 4250 1301 3770 
Q 1056 3291 1056 2328 
Q 1056 1369 1301 889 
Q 1547 409 2034 409 
Q 2525 409 2770 889 
Q 3016 1369 3016 2328 
Q 3016 3291 2770 3770 
Q 2525 4250 2034 4250 
z
M 2034 4750 
Q 2819 4750 3233 4129 
Q 3647 3509 3647 2328 
Q 3647 1150 3233 529 
Q 2819 -91 2034 -91 
Q 1250 -91 836 529 
Q 422 1150 422 2328 
Q 422 3509 836 4129 
Q 1250 4750 2034 4750 
z
" transform="scale(0.015625)"/>
       </defs>
       <use xlink:href="#DejaVuSans-30"/>
      </g>
     </g>
    </g>
    <g id="xtick_3">
     <g id="line2d_5">
      <path d="M 314.735979 293.76 
L 314.735979 3.456 
" clip-path="url(#p4368f937c6)" style="fill: none; stroke: #b0b0b0; stroke-width: 0.8; stroke-linecap: square"/>
     </g>
     <g id="line2d_6">
      <g>
       <use xlink:href="#mf5cc2a1db9" x="314.735979" y="293.76" style="stroke: #000000; stroke-width: 0.8"/>
      </g>
     </g>
     <g id="text_3">
      <!-- 4 -->
      <g transform="translate(308.373479 315.956875)scale(0.2 -0.2)">
       <use xlink:href="#DejaVuSans-34"/>
      </g>
     </g>
    </g>
    <g id="xtick_4">
     <g id="line2d_7">
      <path d="M 419.685765 293.76 
L 419.685765 3.456 
" clip-path="url(#p4368f937c6)" style="fill: none; stroke: #b0b0b0; stroke-width: 0.8; stroke-linecap: square"/>
     </g>
     <g id="line2d_8">
      <g>
       <use xlink:href="#mf5cc2a1db9" x="419.685765" y="293.76" style="stroke: #000000; stroke-width: 0.8"/>
      </g>
     </g>
     <g id="text_4">
      <!-- 8 -->
      <g transform="translate(413.323265 315.956875)scale(0.2 -0.2)">
       <defs>
        <path id="DejaVuSans-38" d="M 2034 2216 
Q 1584 2216 1326 1975 
Q 1069 1734 1069 1313 
Q 1069 891 1326 650 
Q 1584 409 2034 409 
Q 2484 409 2743 651 
Q 3003 894 3003 1313 
Q 3003 1734 2745 1975 
Q 2488 2216 2034 2216 
z
M 1403 2484 
Q 997 2584 770 2862 
Q 544 3141 544 3541 
Q 544 4100 942 4425 
Q 1341 4750 2034 4750 
Q 2731 4750 3128 4425 
Q 3525 4100 3525 3541 
Q 3525 3141 3298 2862 
Q 3072 2584 2669 2484 
Q 3125 2378 3379 2068 
Q 3634 1759 3634 1313 
Q 3634 634 3220 271 
Q 2806 -91 2034 -91 
Q 1263 -91 848 271 
Q 434 634 434 1313 
Q 434 1759 690 2068 
Q 947 2378 1403 2484 
z
M 1172 3481 
Q 1172 3119 1398 2916 
Q 1625 2713 2034 2713 
Q 2441 2713 2670 2916 
Q 2900 3119 2900 3481 
Q 2900 3844 2670 4047 
Q 2441 4250 2034 4250 
Q 1625 4250 1398 4047 
Q 1172 3844 1172 3481 
z
" transform="scale(0.015625)"/>
       </defs>
       <use xlink:href="#DejaVuSans-38"/>
      </g>
     </g>
    </g>
    <g id="text_5">
     <!-- log10 of Df -->
     <g transform="translate(175.214063 339.313125)scale(0.2 -0.2)">
      <defs>
       <path id="DejaVuSans-6c" d="M 603 4863 
L 1178 4863 
L 1178 0 
L 603 0 
L 603 4863 
z
" transform="scale(0.015625)"/>
       <path id="DejaVuSans-6f" d="M 1959 3097 
Q 1497 3097 1228 2736 
Q 959 2375 959 1747 
Q 959 1119 1226 758 
Q 1494 397 1959 397 
Q 2419 397 2687 759 
Q 2956 1122 2956 1747 
Q 2956 2369 2687 2733 
Q 2419 3097 1959 3097 
z
M 1959 3584 
Q 2709 3584 3137 3096 
Q 3566 2609 3566 1747 
Q 3566 888 3137 398 
Q 2709 -91 1959 -91 
Q 1206 -91 779 398 
Q 353 888 353 1747 
Q 353 2609 779 3096 
Q 1206 3584 1959 3584 
z
" transform="scale(0.015625)"/>
       <path id="DejaVuSans-67" d="M 2906 1791 
Q 2906 2416 2648 2759 
Q 2391 3103 1925 3103 
Q 1463 3103 1205 2759 
Q 947 2416 947 1791 
Q 947 1169 1205 825 
Q 1463 481 1925 481 
Q 2391 481 2648 825 
Q 2906 1169 2906 1791 
z
M 3481 434 
Q 3481 -459 3084 -895 
Q 2688 -1331 1869 -1331 
Q 1566 -1331 1297 -1286 
Q 1028 -1241 775 -1147 
L 775 -588 
Q 1028 -725 1275 -790 
Q 1522 -856 1778 -856 
Q 2344 -856 2625 -561 
Q 2906 -266 2906 331 
L 2906 616 
Q 2728 306 2450 153 
Q 2172 0 1784 0 
Q 1141 0 747 490 
Q 353 981 353 1791 
Q 353 2603 747 3093 
Q 1141 3584 1784 3584 
Q 2172 3584 2450 3431 
Q 2728 3278 2906 2969 
L 2906 3500 
L 3481 3500 
L 3481 434 
z
" transform="scale(0.015625)"/>
       <path id="DejaVuSans-31" d="M 794 531 
L 1825 531 
L 1825 4091 
L 703 3866 
L 703 4441 
L 1819 4666 
L 2450 4666 
L 2450 531 
L 3481 531 
L 3481 0 
L 794 0 
L 794 531 
z
" transform="scale(0.015625)"/>
       <path id="DejaVuSans-20" transform="scale(0.015625)"/>
       <path id="DejaVuSans-66" d="M 2375 4863 
L 2375 4384 
L 1825 4384 
Q 1516 4384 1395 4259 
Q 1275 4134 1275 3809 
L 1275 3500 
L 2222 3500 
L 2222 3053 
L 1275 3053 
L 1275 0 
L 697 0 
L 697 3053 
L 147 3053 
L 147 3500 
L 697 3500 
L 697 3744 
Q 697 4328 969 4595 
Q 1241 4863 1831 4863 
L 2375 4863 
z
" transform="scale(0.015625)"/>
       <path id="DejaVuSans-44" d="M 1259 4147 
L 1259 519 
L 2022 519 
Q 2988 519 3436 956 
Q 3884 1394 3884 2338 
Q 3884 3275 3436 3711 
Q 2988 4147 2022 4147 
L 1259 4147 
z
M 628 4666 
L 1925 4666 
Q 3281 4666 3915 4102 
Q 4550 3538 4550 2338 
Q 4550 1131 3912 565 
Q 3275 0 1925 0 
L 628 0 
L 628 4666 
z
" transform="scale(0.015625)"/>
      </defs>
      <use xlink:href="#DejaVuSans-6c"/>
      <use xlink:href="#DejaVuSans-6f" x="27.783203"/>
      <use xlink:href="#DejaVuSans-67" x="88.964844"/>
      <use xlink:href="#DejaVuSans-31" x="152.441406"/>
      <use xlink:href="#DejaVuSans-30" x="216.064453"/>
      <use xlink:href="#DejaVuSans-20" x="279.6875"/>
      <use xlink:href="#DejaVuSans-6f" x="311.474609"/>
      <use xlink:href="#DejaVuSans-66" x="372.65625"/>
      <use xlink:href="#DejaVuSans-20" x="407.861328"/>
      <use xlink:href="#DejaVuSans-44" x="439.648438"/>
      <use xlink:href="#DejaVuSans-66" x="516.650391"/>
     </g>
    </g>
   </g>
   <g id="matplotlib.axis_2">
    <g id="ytick_1">
     <g id="line2d_9">
      <path d="M 0 293.76 
L 460.8 293.76 
" clip-path="url(#p4368f937c6)" style="fill: none; stroke: #b0b0b0; stroke-width: 0.8; stroke-linecap: square"/>
     </g>
     <g id="line2d_10">
      <defs>
       <path id="mcb5aa5ff6d" d="M 0 0 
L -3.5 0 
" style="stroke: #000000; stroke-width: 0.8"/>
      </defs>
      <g>
       <use xlink:href="#mcb5aa5ff6d" x="0" y="293.76" style="stroke: #000000; stroke-width: 0.8"/>
      </g>
     </g>
    </g>
    <g id="ytick_2">
     <g id="line2d_11">
      <path d="M 0 236.274059 
L 460.8 236.274059 
" clip-path="url(#p4368f937c6)" style="fill: none; stroke: #b0b0b0; stroke-width: 0.8; stroke-linecap: square"/>
     </g>
     <g id="line2d_12">
      <g>
       <use xlink:href="#mcb5aa5ff6d" x="0" y="236.274059" style="stroke: #000000; stroke-width: 0.8"/>
      </g>
     </g>
    </g>
    <g id="ytick_3">
     <g id="line2d_13">
      <path d="M 0 178.788119 
L 460.8 178.788119 
" clip-path="url(#p4368f937c6)" style="fill: none; stroke: #b0b0b0; stroke-width: 0.8; stroke-linecap: square"/>
     </g>
     <g id="line2d_14">
      <g>
       <use xlink:href="#mcb5aa5ff6d" x="0" y="178.788119" style="stroke: #000000; stroke-width: 0.8"/>
      </g>
     </g>
    </g>
    <g id="ytick_4">
     <g id="line2d_15">
      <path d="M 0 121.302178 
L 460.8 121.302178 
" clip-path="url(#p4368f937c6)" style="fill: none; stroke: #b0b0b0; stroke-width: 0.8; stroke-linecap: square"/>
     </g>
     <g id="line2d_16">
      <g>
       <use xlink:href="#mcb5aa5ff6d" x="0" y="121.302178" style="stroke: #000000; stroke-width: 0.8"/>
      </g>
     </g>
    </g>
    <g id="ytick_5">
     <g id="line2d_17">
      <path d="M 0 63.816238 
L 460.8 63.816238 
" clip-path="url(#p4368f937c6)" style="fill: none; stroke: #b0b0b0; stroke-width: 0.8; stroke-linecap: square"/>
     </g>
     <g id="line2d_18">
      <g>
       <use xlink:href="#mcb5aa5ff6d" x="0" y="63.816238" style="stroke: #000000; stroke-width: 0.8"/>
      </g>
     </g>
    </g>
    <g id="ytick_6">
     <g id="line2d_19">
      <path d="M 0 6.330297 
L 460.8 6.330297 
" clip-path="url(#p4368f937c6)" style="fill: none; stroke: #b0b0b0; stroke-width: 0.8; stroke-linecap: square"/>
     </g>
     <g id="line2d_20">
      <g>
       <use xlink:href="#mcb5aa5ff6d" x="0" y="6.330297" style="stroke: #000000; stroke-width: 0.8"/>
      </g>
     </g>
    </g>
   </g>
   <g id="line2d_21">
    <path d="M -1 270.765624 
L 162.115054 270.765624 
L 162.115054 266.933228 
L 165.04565 266.933228 
L 165.156533 259.268436 
L 165.733255 259.268436 
L 165.733255 255.43604 
L 168.358644 255.43604 
L 168.358644 251.603644 
L 172.756499 251.603644 
L 172.756499 247.771248 
L 177.578737 247.771248 
L 177.578737 236.274059 
L 180.308464 236.274059 
L 180.308464 232.441663 
L 183.995587 232.441663 
L 183.995587 228.609267 
L 185.476995 228.609267 
L 185.476995 220.944475 
L 185.80414 220.944475 
L 185.80414 217.112079 
L 187.033428 217.112079 
L 187.033428 213.279683 
L 188.235702 213.279683 
L 188.236193 205.614891 
L 188.593025 205.614891 
L 188.593025 201.782495 
L 190.09718 201.782495 
L 190.09718 186.452911 
L 193.375254 186.452911 
L 193.375254 171.123327 
L 194.697126 171.123327 
L 194.697126 167.290931 
L 196.736659 167.290931 
L 196.736659 163.458535 
L 196.978414 163.458535 
L 196.978414 159.626139 
L 197.72892 159.626139 
L 197.72892 155.793743 
L 197.995439 155.793743 
L 197.995439 151.961347 
L 199.542424 151.961347 
L 199.542424 148.12895 
L 205.588628 148.12895 
L 205.588628 98.307802 
L 208.580732 98.307802 
L 208.580732 94.475406 
L 208.959233 94.475406 
L 208.959233 90.64301 
L 212.285531 90.64301 
L 212.285531 86.810614 
L 213.010608 86.810614 
L 213.010608 82.978218 
L 213.248267 82.978218 
L 213.248267 79.145822 
L 214.875252 79.145822 
L 214.875252 75.313426 
L 215.250426 75.313426 
L 215.250426 71.48103 
L 217.425133 71.48103 
L 217.425133 63.816238 
L 217.680945 63.816238 
L 217.680945 56.151446 
L 220.632532 56.151446 
L 220.632532 52.31905 
L 227.453543 52.31905 
L 227.453543 48.486653 
L 228.267466 48.486653 
L 228.267466 40.821861 
L 240.324001 40.821861 
L 240.324001 36.989465 
L 244.096988 36.989465 
L 244.164581 6.330297 
L 244.164581 6.330297 
L 460.8 6.330297 
L 460.8 6.330297 
" clip-path="url(#p4368f937c6)" style="fill: none; stroke: #ff0000; stroke-width: 3; stroke-linecap: square"/>
   </g>
   <g id="line2d_22">
    <path d="M 228.547216 293.76 
L 228.547216 289.927604 
L 229.260559 289.927604 
L 229.260559 286.095208 
L 230.367843 286.095208 
L 230.367843 282.262812 
L 230.631505 282.262812 
L 230.631505 278.430416 
L 231.955001 278.430416 
L 231.955001 274.59802 
L 232.327325 274.59802 
L 232.327325 270.765624 
L 232.576836 270.765624 
L 232.663557 263.100832 
L 233.598004 263.100832 
L 233.598004 259.268436 
L 233.912535 259.268436 
L 233.912535 255.43604 
L 235.465105 255.43604 
L 235.465105 251.603644 
L 235.999033 251.603644 
L 235.999033 247.771248 
L 236.302723 247.771248 
L 236.302723 243.938851 
L 236.656501 243.938851 
L 236.656501 240.106455 
L 238.155455 240.106455 
L 238.155455 236.274059 
L 257.111553 236.274059 
L 257.111553 232.441663 
L 258.156403 232.441663 
L 258.263105 224.776871 
L 258.598012 224.776871 
L 258.598012 220.944475 
L 258.725172 220.944475 
L 258.725172 217.112079 
L 258.894387 217.112079 
L 258.894387 213.279683 
L 259.16704 213.279683 
L 259.22664 197.950099 
L 259.305036 197.950099 
L 259.384434 182.620515 
L 259.434361 182.620515 
L 259.529859 167.290931 
L 259.645086 167.290931 
L 259.697304 155.793743 
L 259.757114 155.793743 
L 259.865817 144.296554 
L 259.938643 144.296554 
L 260.045506 128.96697 
L 260.065295 128.96697 
L 260.065295 125.134574 
L 260.286145 125.134574 
L 260.286145 121.302178 
L 274.749677 121.302178 
L 274.749677 117.469782 
L 275.088321 117.469782 
L 275.176965 109.80499 
L 275.266997 109.80499 
L 275.317689 102.140198 
L 275.40284 102.140198 
L 275.40284 98.307802 
L 275.525632 98.307802 
L 275.525632 94.475406 
L 275.640827 94.475406 
L 275.640827 90.64301 
L 275.765442 90.64301 
L 275.765442 86.810614 
L 275.891204 86.810614 
L 275.891204 82.978218 
L 276.281087 82.978218 
L 276.281087 79.145822 
L 276.41221 79.145822 
L 276.474085 71.48103 
L 276.582085 71.48103 
L 276.582085 67.648634 
L 277.250498 67.648634 
L 277.250498 63.816238 
L 316.455092 63.816238 
L 316.455092 59.983842 
L 321.634234 59.983842 
L 321.634234 6.330297 
L 321.634234 6.330297 
L 460.8 6.330297 
L 460.8 6.330297 
" clip-path="url(#p4368f937c6)" style="fill: none; stroke: #00bfbf; stroke-width: 1.5; stroke-linecap: square"/>
   </g>
   <g id="line2d_23">
    <path d="M 226.43785 293.76 
L 226.43785 289.927604 
L 226.857484 289.927604 
L 226.857484 286.095208 
L 227.234724 286.095208 
L 227.234724 282.262812 
L 228.547216 282.262812 
L 228.547216 278.430416 
L 228.66702 278.430416 
L 228.66702 274.59802 
L 230.367843 274.59802 
L 230.367843 270.765624 
L 230.574187 270.765624 
L 230.631505 263.100832 
L 230.938233 263.100832 
L 230.938233 259.268436 
L 232.044838 259.268436 
L 232.044838 255.43604 
L 232.205643 255.43604 
L 232.205643 251.603644 
L 232.576836 251.603644 
L 232.576836 247.771248 
L 233.912535 247.771248 
L 233.912535 243.938851 
L 234.729727 243.938851 
L 234.729727 240.106455 
L 235.832939 240.106455 
L 235.832939 236.274059 
L 257.111553 236.274059 
L 257.111553 232.441663 
L 257.547118 232.441663 
L 257.547118 228.609267 
L 258.156403 228.609267 
L 258.263105 220.944475 
L 258.598012 220.944475 
L 258.598012 217.112079 
L 258.725172 217.112079 
L 258.806378 209.447287 
L 258.894387 209.447287 
L 258.955349 197.950099 
L 259.073433 197.950099 
L 259.16704 182.620515 
L 259.201091 182.620515 
L 259.310842 163.458535 
L 259.33457 163.458535 
L 259.438495 151.961347 
L 259.445809 151.961347 
L 259.445809 148.12895 
L 259.645086 148.12895 
L 259.697304 136.631762 
L 259.865817 136.631762 
L 259.938643 128.96697 
L 259.985143 128.96697 
L 260.027981 121.302178 
L 274.749677 121.302178 
L 274.749677 117.469782 
L 275.088321 117.469782 
L 275.176965 109.80499 
L 275.266997 109.80499 
L 275.317689 102.140198 
L 275.40284 102.140198 
L 275.40284 98.307802 
L 275.525632 98.307802 
L 275.525632 94.475406 
L 275.640827 94.475406 
L 275.640827 90.64301 
L 275.765442 90.64301 
L 275.765442 86.810614 
L 275.891204 86.810614 
L 275.891204 82.978218 
L 276.281087 82.978218 
L 276.281087 79.145822 
L 276.41221 79.145822 
L 276.474085 71.48103 
L 276.582085 71.48103 
L 276.582085 67.648634 
L 277.250498 67.648634 
L 277.250498 63.816238 
L 312.056923 63.816238 
L 312.056923 59.983842 
L 315.663056 59.983842 
L 315.663056 56.151446 
L 318.033574 56.151446 
L 318.033574 52.31905 
L 318.817159 52.31905 
L 318.817159 48.486653 
L 321.634234 48.486653 
L 321.634234 6.330297 
L 321.634234 6.330297 
L 460.8 6.330297 
L 460.8 6.330297 
" clip-path="url(#p4368f937c6)" style="fill: none; stroke: #bf00bf; stroke-width: 1.5; stroke-linecap: square"/>
   </g>
   <g id="line2d_24">
    <path d="M 226.43785 293.76 
L 226.43785 289.927604 
L 226.857484 289.927604 
L 226.857484 286.095208 
L 227.234724 286.095208 
L 227.234724 282.262812 
L 228.127232 282.262812 
L 228.127232 278.430416 
L 228.547216 278.430416 
L 228.547216 274.59802 
L 229.153306 274.59802 
L 229.20663 266.933228 
L 229.67634 266.933228 
L 229.67634 263.100832 
L 229.965733 263.100832 
L 229.965733 259.268436 
L 230.367843 259.268436 
L 230.367843 255.43604 
L 230.631505 255.43604 
L 230.631505 251.603644 
L 230.938233 251.603644 
L 230.938233 247.771248 
L 231.278603 247.771248 
L 231.278603 243.938851 
L 232.205643 243.938851 
L 232.205643 240.106455 
L 232.576836 240.106455 
L 232.576836 236.274059 
L 256.700528 236.274059 
L 256.700528 232.441663 
L 257.111553 232.441663 
L 257.111553 228.609267 
L 257.257448 228.609267 
L 257.257448 224.776871 
L 257.547118 224.776871 
L 257.547542 217.112079 
L 257.798707 217.112079 
L 257.798707 213.279683 
L 258.029071 213.279683 
L 258.099523 205.614891 
L 258.173493 205.614891 
L 258.263105 190.285307 
L 258.581061 190.285307 
L 258.690611 178.788119 
L 258.725172 178.788119 
L 258.817014 167.290931 
L 258.856247 167.290931 
L 258.917102 148.12895 
L 259.100896 148.12895 
L 259.16704 136.631762 
L 259.212319 136.631762 
L 259.212319 132.799366 
L 259.359257 132.799366 
L 259.403743 125.134574 
L 259.833235 125.134574 
L 259.833235 121.302178 
L 274.749677 121.302178 
L 274.749677 117.469782 
L 275.088321 117.469782 
L 275.176965 109.80499 
L 275.266997 109.80499 
L 275.317689 102.140198 
L 275.40284 102.140198 
L 275.40284 98.307802 
L 275.525632 98.307802 
L 275.525632 94.475406 
L 275.640827 94.475406 
L 275.716746 79.145822 
L 275.846613 79.145822 
L 275.846613 75.313426 
L 276.121705 75.313426 
L 276.121705 71.48103 
L 276.410202 71.48103 
L 276.410202 67.648634 
L 276.582085 67.648634 
L 276.582085 63.816238 
L 307.794566 63.816238 
L 307.794566 59.983842 
L 309.873485 59.983842 
L 309.873485 56.151446 
L 310.234919 56.151446 
L 310.234919 52.31905 
L 312.056923 52.31905 
L 312.056923 48.486653 
L 313.690055 48.486653 
L 313.690055 44.654257 
L 313.8817 44.654257 
L 313.8817 40.821861 
L 315.755776 40.821861 
L 315.755776 36.989465 
L 316.916702 36.989465 
L 316.916702 33.157069 
L 317.183761 33.157069 
L 317.254156 25.492277 
L 317.594144 25.492277 
L 317.594144 21.659881 
L 318.817159 21.659881 
L 318.817159 17.827485 
L 319.644996 17.827485 
L 319.644996 13.995089 
L 321.199282 13.995089 
L 321.199282 10.162693 
L 321.634234 10.162693 
L 321.634234 6.330297 
L 321.634234 6.330297 
L 460.8 6.330297 
L 460.8 6.330297 
" clip-path="url(#p4368f937c6)" style="fill: none; stroke: #000000; stroke-width: 1.5; stroke-linecap: square"/>
   </g>
   <g id="line2d_25">
    <path d="M 222.367251 293.76 
L 222.367251 289.927604 
L 223.124841 289.927604 
L 223.124841 286.095208 
L 226.43785 286.095208 
L 226.43785 282.262812 
L 226.804517 282.262812 
L 226.857484 274.59802 
L 227.234724 274.59802 
L 227.234724 270.765624 
L 227.748372 270.765624 
L 227.748372 266.933228 
L 227.867781 266.933228 
L 227.867781 263.100832 
L 228.127232 263.100832 
L 228.127232 259.268436 
L 228.547216 259.268436 
L 228.547216 255.43604 
L 229.20663 255.43604 
L 229.20663 251.603644 
L 229.965733 251.603644 
L 229.965733 247.771248 
L 230.631505 247.771248 
L 230.631505 243.938851 
L 230.805375 243.938851 
L 230.805375 240.106455 
L 231.949328 240.106455 
L 231.949328 236.274059 
L 240.643573 236.274059 
L 240.643573 232.441663 
L 242.932518 232.441663 
L 242.932518 228.609267 
L 244.088212 228.609267 
L 244.088212 224.776871 
L 246.232246 224.776871 
L 246.232246 220.944475 
L 246.408987 220.944475 
L 246.408987 217.112079 
L 246.984264 217.112079 
L 246.984264 213.279683 
L 247.323107 213.279683 
L 247.323107 209.447287 
L 247.704749 209.447287 
L 247.704749 205.614891 
L 248.439048 205.614891 
L 248.439048 201.782495 
L 249.083238 201.782495 
L 249.083238 197.950099 
L 249.608305 197.950099 
L 249.67423 190.285307 
L 250.763404 190.285307 
L 250.763404 186.452911 
L 250.901239 186.452911 
L 250.901239 182.620515 
L 251.155538 182.620515 
L 251.155538 178.788119 
L 252.069433 178.788119 
L 252.069433 174.955723 
L 252.337606 174.955723 
L 252.337606 171.123327 
L 253.41016 171.123327 
L 253.41016 167.290931 
L 253.829014 167.290931 
L 253.829014 163.458535 
L 254.208145 163.458535 
L 254.250888 155.793743 
L 254.934106 155.793743 
L 254.934106 151.961347 
L 255.177049 151.961347 
L 255.177049 148.12895 
L 255.492722 148.12895 
L 255.492722 144.296554 
L 255.750599 144.296554 
L 255.750599 140.464158 
L 255.889193 140.464158 
L 255.889193 136.631762 
L 256.498542 136.631762 
L 256.498542 132.799366 
L 256.641107 132.799366 
L 256.642639 125.134574 
L 256.868781 125.134574 
L 256.868781 121.302178 
L 257.986962 121.302178 
L 257.986962 117.469782 
L 264.316976 117.469782 
L 264.316976 113.637386 
L 271.222513 113.637386 
L 271.222513 109.80499 
L 271.738705 109.80499 
L 271.738705 105.972594 
L 271.984154 105.972594 
L 271.987824 98.307802 
L 272.155621 98.307802 
L 272.250606 86.810614 
L 272.32087 86.810614 
L 272.32087 82.978218 
L 272.609093 82.978218 
L 272.696247 75.313426 
L 272.738614 75.313426 
L 272.759296 67.648634 
L 272.874727 67.648634 
L 272.874727 63.816238 
L 273.202885 63.816238 
L 273.202885 59.983842 
L 274.749677 59.983842 
L 274.749677 56.151446 
L 276.494368 56.151446 
L 276.494368 52.31905 
L 277.631042 52.31905 
L 277.631042 48.486653 
L 289.852208 48.486653 
L 289.852208 44.654257 
L 290.426138 44.654257 
L 290.426138 40.821861 
L 291.398938 40.821861 
L 291.398938 36.989465 
L 292.781697 36.989465 
L 292.781697 33.157069 
L 297.387408 33.157069 
L 297.387408 29.324673 
L 299.977797 29.324673 
L 299.977797 25.492277 
L 300.558828 25.492277 
L 300.558828 21.659881 
L 301.366208 21.659881 
L 301.366208 17.827485 
L 301.645472 17.827485 
L 301.645472 13.995089 
L 302.887075 13.995089 
L 302.887075 10.162693 
L 303.92071 10.162693 
L 303.92071 6.330297 
L 303.92071 6.330297 
L 460.8 6.330297 
L 460.8 6.330297 
" clip-path="url(#p4368f937c6)" style="fill: none; stroke: #00bfbf; stroke-width: 1.5; stroke-linecap: square"/>
   </g>
   <g id="line2d_26">
    <path d="M 205.588724 293.76 
L 205.588724 289.927604 
L 214.79199 289.927604 
L 214.876385 282.262812 
L 215.617959 282.262812 
L 215.617959 278.430416 
L 215.784605 278.430416 
L 215.784605 274.59802 
L 215.935166 274.59802 
L 216.029126 263.100832 
L 216.297944 263.100832 
L 216.297944 259.268436 
L 216.536739 259.268436 
L 216.536739 255.43604 
L 216.67848 255.43604 
L 216.67848 251.603644 
L 217.324401 251.603644 
L 217.425238 236.274059 
L 217.905223 236.274059 
L 217.957247 224.776871 
L 218.341103 224.776871 
L 218.341103 220.944475 
L 218.655122 220.944475 
L 218.655122 217.112079 
L 219.418154 217.112079 
L 219.418154 213.279683 
L 220.632611 213.279683 
L 220.633432 201.782495 
L 220.790986 201.782495 
L 220.899102 190.285307 
L 221.086149 190.285307 
L 221.086149 186.452911 
L 221.531154 186.452911 
L 221.531154 182.620515 
L 222.367251 182.620515 
L 222.367251 178.788119 
L 223.124841 178.788119 
L 223.124841 174.955723 
L 223.558577 174.955723 
L 223.571999 163.458535 
L 224.060005 163.458535 
L 224.060005 159.626139 
L 224.261946 159.626139 
L 224.261946 155.793743 
L 224.821169 155.793743 
L 224.821169 151.961347 
L 225.829947 151.961347 
L 225.829947 148.12895 
L 226.205512 148.12895 
L 226.205512 144.296554 
L 226.867969 144.296554 
L 226.867969 140.464158 
L 227.453589 140.464158 
L 227.453589 136.631762 
L 228.267667 136.631762 
L 228.268175 125.134574 
L 230.666856 125.134574 
L 230.666856 121.302178 
L 231.977528 121.302178 
L 231.977556 113.637386 
L 234.04941 113.637386 
L 234.04941 109.80499 
L 236.501985 109.80499 
L 236.501985 105.972594 
L 237.239095 105.972594 
L 237.239095 102.140198 
L 238.283107 102.140198 
L 238.283107 98.307802 
L 240.057432 98.307802 
L 240.057432 94.475406 
L 240.324054 94.475406 
L 240.324054 90.64301 
L 241.150712 90.64301 
L 241.150712 86.810614 
L 242.144788 86.810614 
L 242.144788 82.978218 
L 244.89315 82.978218 
L 244.893155 75.313426 
L 245.275087 75.313426 
L 245.275087 71.48103 
L 246.679938 71.48103 
L 246.679938 67.648634 
L 254.40005 67.648634 
L 254.40005 63.816238 
L 264.527023 63.816238 
L 264.527023 59.983842 
L 265.654806 59.983842 
L 265.690093 52.31905 
L 266.188575 52.31905 
L 266.241074 40.821861 
L 266.380517 40.821861 
L 266.380517 36.989465 
L 266.498649 36.989465 
L 266.498649 33.157069 
L 266.887287 33.157069 
L 266.887287 29.324673 
L 267.049242 29.324673 
L 267.049242 25.492277 
L 267.209826 25.492277 
L 267.209826 21.659881 
L 267.632951 21.659881 
L 267.641953 13.995089 
L 267.807432 13.995089 
L 267.807432 10.162693 
L 267.979126 10.162693 
L 267.979126 6.330297 
L 267.979126 6.330297 
L 460.8 6.330297 
L 460.8 6.330297 
" clip-path="url(#p4368f937c6)" style="fill: none; stroke: #bf00bf; stroke-width: 1.5; stroke-linecap: square"/>
   </g>
   <g id="line2d_27">
    <path d="M -1 278.430416 
L 173.511848 278.430416 
L 173.511848 274.59802 
L 180.308621 274.59802 
L 180.308621 270.765624 
L 183.469031 270.765624 
L 183.469031 266.933228 
L 187.973771 266.933228 
L 187.973771 263.100832 
L 200.142819 263.100832 
L 200.142819 259.268436 
L 205.588628 259.268436 
L 205.588628 236.274059 
L 210.765942 236.274059 
L 210.765942 232.441663 
L 212.285531 232.441663 
L 212.285531 228.609267 
L 214.471083 228.609267 
L 214.55729 220.944475 
L 214.777207 220.944475 
L 214.875252 213.279683 
L 214.921451 213.279683 
L 214.921626 205.614891 
L 215.274345 205.614891 
L 215.274345 201.782495 
L 215.412721 201.782495 
L 215.481097 194.117703 
L 215.54899 194.117703 
L 215.54899 190.285307 
L 215.817696 190.285307 
L 215.848573 182.620515 
L 215.948671 182.620515 
L 215.948671 178.788119 
L 216.523855 178.788119 
L 216.523855 174.955723 
L 216.951285 174.955723 
L 216.951285 171.123327 
L 217.364121 171.123327 
L 217.425133 151.961347 
L 217.680945 151.961347 
L 217.680945 144.296554 
L 217.817347 144.296554 
L 217.817347 140.464158 
L 217.930528 140.464158 
L 217.930528 136.631762 
L 218.680679 136.631762 
L 218.680679 132.799366 
L 219.297478 132.799366 
L 219.297478 128.96697 
L 220.372135 128.96697 
L 220.372135 125.134574 
L 220.632532 125.134574 
L 220.632532 117.469782 
L 220.899102 117.469782 
L 220.931196 109.80499 
L 221.208509 109.80499 
L 221.314181 102.140198 
L 221.679722 102.140198 
L 221.679722 98.307802 
L 227.453543 98.307802 
L 227.453543 94.475406 
L 228.267466 94.475406 
L 228.267466 82.978218 
L 231.389573 82.978218 
L 231.389573 79.145822 
L 234.049152 79.145822 
L 234.049152 75.313426 
L 234.492633 75.313426 
L 234.492633 71.48103 
L 240.324001 71.48103 
L 240.324001 63.816238 
L 242.166226 63.816238 
L 242.166226 59.983842 
L 245.596725 59.983842 
L 245.596725 56.151446 
L 246.929769 56.151446 
L 246.929769 52.31905 
L 247.86184 52.31905 
L 247.872958 44.654257 
L 252.310389 44.654257 
L 252.310389 40.821861 
L 252.856892 40.821861 
L 252.856892 36.989465 
L 253.944717 36.989465 
L 253.944717 33.157069 
L 254.331221 33.157069 
L 254.331221 29.324673 
L 254.614783 29.324673 
L 254.721739 21.659881 
L 255.093565 21.659881 
L 255.093565 17.827485 
L 255.794269 17.827485 
L 255.794269 13.995089 
L 256.824117 13.995089 
L 256.824117 10.162693 
L 262.977017 10.162693 
L 262.977017 6.330297 
L 262.977017 6.330297 
L 460.8 6.330297 
L 460.8 6.330297 
" clip-path="url(#p4368f937c6)" style="fill: none; stroke: #000000; stroke-width: 1.5; stroke-linecap: square"/>
   </g>
   <g id="line2d_28">
    <path d="M -1 274.59802 
L 162.115054 274.59802 
L 162.115054 270.765624 
L 165.04565 270.765624 
L 165.156533 263.100832 
L 165.733255 263.100832 
L 165.733255 259.268436 
L 168.358644 259.268436 
L 168.358644 255.43604 
L 172.756499 255.43604 
L 172.756499 251.603644 
L 180.308464 251.603644 
L 180.308464 247.771248 
L 185.80414 247.771248 
L 185.80414 243.938851 
L 187.033428 243.938851 
L 187.033428 240.106455 
L 188.235702 240.106455 
L 188.236193 232.441663 
L 188.593025 232.441663 
L 188.593025 228.609267 
L 196.736659 228.609267 
L 196.736659 224.776871 
L 205.588628 224.776871 
L 205.594952 178.788119 
L 205.893872 178.788119 
L 205.893961 171.123327 
L 206.034054 171.123327 
L 206.034054 167.290931 
L 206.205987 167.290931 
L 206.205987 163.458535 
L 206.559666 163.458535 
L 206.559666 159.626139 
L 207.094335 159.626139 
L 207.094335 155.793743 
L 207.250831 155.793743 
L 207.250831 151.961347 
L 207.785153 151.961347 
L 207.785153 148.12895 
L 208.959233 148.12895 
L 208.959233 144.296554 
L 209.522566 144.296554 
L 209.522566 140.464158 
L 209.750419 140.464158 
L 209.750419 136.631762 
L 209.862869 136.631762 
L 209.862869 132.799366 
L 210.084203 132.799366 
L 210.084203 128.96697 
L 210.301023 128.96697 
L 210.301023 125.134574 
L 211.130173 125.134574 
L 211.130173 121.302178 
L 212.285531 121.302178 
L 212.285531 117.469782 
L 212.45014 117.469782 
L 212.45014 113.637386 
L 214.875252 113.637386 
L 214.875252 109.80499 
L 215.43197 109.80499 
L 215.43197 105.972594 
L 217.425133 105.972594 
L 217.49228 94.475406 
L 217.680945 94.475406 
L 217.680945 86.810614 
L 220.632532 86.810614 
L 220.632532 79.145822 
L 227.453543 79.145822 
L 227.453543 75.313426 
L 228.267466 75.313426 
L 228.267466 67.648634 
L 230.019512 67.648634 
L 230.019512 63.816238 
L 240.324001 63.816238 
L 240.324001 59.983842 
L 241.727064 59.983842 
L 241.727064 56.151446 
L 243.520767 56.151446 
L 243.520767 52.31905 
L 243.958245 52.31905 
L 243.958245 48.486653 
L 244.881158 48.486653 
L 244.881158 44.654257 
L 245.625771 44.654257 
L 245.673141 36.989465 
L 245.793782 36.989465 
L 245.793782 33.157069 
L 246.008735 33.157069 
L 246.06128 17.827485 
L 246.954652 17.827485 
L 246.954652 13.995089 
L 247.709717 13.995089 
L 247.709717 10.162693 
L 248.367775 10.162693 
L 248.367775 6.330297 
L 248.367775 6.330297 
L 460.8 6.330297 
L 460.8 6.330297 
" clip-path="url(#p4368f937c6)" style="fill: none; stroke: #00bfbf; stroke-width: 1.5; stroke-linecap: square"/>
   </g>
   <g id="line2d_29">
    <path d="M -1 274.59802 
L 162.115054 274.59802 
L 162.115054 270.765624 
L 165.04565 270.765624 
L 165.156533 263.100832 
L 165.733255 263.100832 
L 165.733255 259.268436 
L 168.358644 259.268436 
L 168.358644 255.43604 
L 172.756499 255.43604 
L 172.756499 251.603644 
L 180.308464 251.603644 
L 180.308464 247.771248 
L 183.995587 247.771248 
L 183.995587 243.938851 
L 185.80414 243.938851 
L 185.80414 240.106455 
L 187.033428 240.106455 
L 187.033428 236.274059 
L 188.235702 236.274059 
L 188.236193 228.609267 
L 188.593025 228.609267 
L 188.593025 224.776871 
L 190.09718 224.776871 
L 190.09718 220.944475 
L 194.697126 220.944475 
L 194.697126 217.112079 
L 195.531679 217.112079 
L 195.531679 213.279683 
L 195.917925 213.279683 
L 195.917925 205.614891 
L 196.736659 205.614891 
L 196.736659 201.782495 
L 197.004154 201.782495 
L 197.004154 197.950099 
L 197.674483 197.950099 
L 197.674483 194.117703 
L 197.995439 194.117703 
L 197.995439 190.285307 
L 199.477404 190.285307 
L 199.477404 182.620515 
L 199.751952 182.620515 
L 199.751952 178.788119 
L 200.346987 178.788119 
L 200.346987 174.955723 
L 200.788623 174.955723 
L 200.788623 171.123327 
L 201.033647 171.123327 
L 201.033647 167.290931 
L 202.185642 167.290931 
L 202.185642 163.458535 
L 202.402661 163.458535 
L 202.402661 159.626139 
L 205.588628 159.626139 
L 205.588628 109.80499 
L 208.580732 109.80499 
L 208.580732 105.972594 
L 208.959233 105.972594 
L 208.959233 102.140198 
L 212.285531 102.140198 
L 212.285531 98.307802 
L 213.248267 98.307802 
L 213.248267 94.475406 
L 213.878875 94.475406 
L 213.878875 90.64301 
L 214.875252 90.64301 
L 214.875252 86.810614 
L 215.250426 86.810614 
L 215.250426 82.978218 
L 217.425133 82.978218 
L 217.425133 75.313426 
L 217.680945 75.313426 
L 217.680945 67.648634 
L 220.632532 67.648634 
L 220.632532 63.816238 
L 227.453543 63.816238 
L 227.453543 59.983842 
L 228.267466 59.983842 
L 228.267466 52.31905 
L 230.019512 52.31905 
L 230.019512 48.486653 
L 237.167406 48.486653 
L 237.167406 44.654257 
L 240.324001 44.654257 
L 240.324001 40.821861 
L 244.101399 40.821861 
L 244.172468 13.995089 
L 244.334904 13.995089 
L 244.406147 6.330297 
L 244.406147 6.330297 
L 460.8 6.330297 
L 460.8 6.330297 
" clip-path="url(#p4368f937c6)" style="fill: none; stroke: #bf00bf; stroke-width: 1.5; stroke-linecap: square"/>
   </g>
   <g id="patch_3">
    <path d="M 0 293.76 
L 0 3.456 
" style="fill: none; stroke: #000000; stroke-width: 0.8; stroke-linejoin: miter; stroke-linecap: square"/>
   </g>
   <g id="patch_4">
    <path d="M 460.8 293.76 
L 460.8 3.456 
" style="fill: none; stroke: #000000; stroke-width: 0.8; stroke-linejoin: miter; stroke-linecap: square"/>
   </g>
   <g id="patch_5">
    <path d="M 0 293.76 
L 460.8 293.76 
" style="fill: none; stroke: #000000; stroke-width: 0.8; stroke-linejoin: miter; stroke-linecap: square"/>
   </g>
   <g id="patch_6">
    <path d="M 0 3.456 
L 460.8 3.456 
" style="fill: none; stroke: #000000; stroke-width: 0.8; stroke-linejoin: miter; stroke-linecap: square"/>
   </g>
   <g id="text_6">
    <!-- {f20-f24}, 20-D -->
    <g transform="translate(293.159 287.95392)scale(0.2 -0.2)">
     <defs>
      <path id="DejaVuSans-7b" d="M 3272 -594 
L 3272 -1044 
L 3078 -1044 
Q 2300 -1044 2036 -812 
Q 1772 -581 1772 109 
L 1772 856 
Q 1772 1328 1603 1509 
Q 1434 1691 991 1691 
L 800 1691 
L 800 2138 
L 991 2138 
Q 1438 2138 1605 2317 
Q 1772 2497 1772 2963 
L 1772 3713 
Q 1772 4403 2036 4633 
Q 2300 4863 3078 4863 
L 3272 4863 
L 3272 4416 
L 3059 4416 
Q 2619 4416 2484 4278 
Q 2350 4141 2350 3700 
L 2350 2925 
Q 2350 2434 2208 2212 
Q 2066 1991 1722 1913 
Q 2069 1828 2209 1606 
Q 2350 1384 2350 897 
L 2350 122 
Q 2350 -319 2484 -456 
Q 2619 -594 3059 -594 
L 3272 -594 
z
" transform="scale(0.015625)"/>
      <path id="DejaVuSans-32" d="M 1228 531 
L 3431 531 
L 3431 0 
L 469 0 
L 469 531 
Q 828 903 1448 1529 
Q 2069 2156 2228 2338 
Q 2531 2678 2651 2914 
Q 2772 3150 2772 3378 
Q 2772 3750 2511 3984 
Q 2250 4219 1831 4219 
Q 1534 4219 1204 4116 
Q 875 4013 500 3803 
L 500 4441 
Q 881 4594 1212 4672 
Q 1544 4750 1819 4750 
Q 2544 4750 2975 4387 
Q 3406 4025 3406 3419 
Q 3406 3131 3298 2873 
Q 3191 2616 2906 2266 
Q 2828 2175 2409 1742 
Q 1991 1309 1228 531 
z
" transform="scale(0.015625)"/>
      <path id="DejaVuSans-7d" d="M 800 -594 
L 1019 -594 
Q 1456 -594 1589 -459 
Q 1722 -325 1722 122 
L 1722 897 
Q 1722 1384 1862 1606 
Q 2003 1828 2350 1913 
Q 2003 1991 1862 2212 
Q 1722 2434 1722 2925 
L 1722 3700 
Q 1722 4144 1589 4280 
Q 1456 4416 1019 4416 
L 800 4416 
L 800 4863 
L 997 4863 
Q 1775 4863 2036 4633 
Q 2297 4403 2297 3713 
L 2297 2963 
Q 2297 2497 2465 2317 
Q 2634 2138 3078 2138 
L 3272 2138 
L 3272 1691 
L 3078 1691 
Q 2634 1691 2465 1509 
Q 2297 1328 2297 856 
L 2297 109 
Q 2297 -581 2036 -812 
Q 1775 -1044 997 -1044 
L 800 -1044 
L 800 -594 
z
" transform="scale(0.015625)"/>
      <path id="DejaVuSans-2c" d="M 750 794 
L 1409 794 
L 1409 256 
L 897 -744 
L 494 -744 
L 750 256 
L 750 794 
z
" transform="scale(0.015625)"/>
     </defs>
     <use xlink:href="#DejaVuSans-7b"/>
     <use xlink:href="#DejaVuSans-66" x="63.623047"/>
     <use xlink:href="#DejaVuSans-32" x="98.828125"/>
     <use xlink:href="#DejaVuSans-30" x="162.451172"/>
     <use xlink:href="#DejaVuSans-2d" x="226.074219"/>
     <use xlink:href="#DejaVuSans-66" x="262.158203"/>
     <use xlink:href="#DejaVuSans-32" x="297.363281"/>
     <use xlink:href="#DejaVuSans-34" x="360.986328"/>
     <use xlink:href="#DejaVuSans-7d" x="424.609375"/>
     <use xlink:href="#DejaVuSans-2c" x="488.232422"/>
     <use xlink:href="#DejaVuSans-20" x="520.019531"/>
     <use xlink:href="#DejaVuSans-32" x="551.806641"/>
     <use xlink:href="#DejaVuSans-30" x="615.429688"/>
     <use xlink:href="#DejaVuSans-2d" x="679.052734"/>
     <use xlink:href="#DejaVuSans-44" x="715.136719"/>
    </g>
   </g>
   <g id="text_7">
    <!-- v2.6.3 -->
    <g style="fill: #808080" transform="translate(214.71875 288.777272)scale(0.1 -0.1)">
     <defs>
      <path id="DejaVuSans-76" d="M 191 3500 
L 800 3500 
L 1894 563 
L 2988 3500 
L 3597 3500 
L 2284 0 
L 1503 0 
L 191 3500 
z
" transform="scale(0.015625)"/>
      <path id="DejaVuSans-2e" d="M 684 794 
L 1344 794 
L 1344 0 
L 684 0 
L 684 794 
z
" transform="scale(0.015625)"/>
      <path id="DejaVuSans-36" d="M 2113 2584 
Q 1688 2584 1439 2293 
Q 1191 2003 1191 1497 
Q 1191 994 1439 701 
Q 1688 409 2113 409 
Q 2538 409 2786 701 
Q 3034 994 3034 1497 
Q 3034 2003 2786 2293 
Q 2538 2584 2113 2584 
z
M 3366 4563 
L 3366 3988 
Q 3128 4100 2886 4159 
Q 2644 4219 2406 4219 
Q 1781 4219 1451 3797 
Q 1122 3375 1075 2522 
Q 1259 2794 1537 2939 
Q 1816 3084 2150 3084 
Q 2853 3084 3261 2657 
Q 3669 2231 3669 1497 
Q 3669 778 3244 343 
Q 2819 -91 2113 -91 
Q 1303 -91 875 529 
Q 447 1150 447 2328 
Q 447 3434 972 4092 
Q 1497 4750 2381 4750 
Q 2619 4750 2861 4703 
Q 3103 4656 3366 4563 
z
" transform="scale(0.015625)"/>
      <path id="DejaVuSans-33" d="M 2597 2516 
Q 3050 2419 3304 2112 
Q 3559 1806 3559 1356 
Q 3559 666 3084 287 
Q 2609 -91 1734 -91 
Q 1441 -91 1130 -33 
Q 819 25 488 141 
L 488 750 
Q 750 597 1062 519 
Q 1375 441 1716 441 
Q 2309 441 2620 675 
Q 2931 909 2931 1356 
Q 2931 1769 2642 2001 
Q 2353 2234 1838 2234 
L 1294 2234 
L 1294 2753 
L 1863 2753 
Q 2328 2753 2575 2939 
Q 2822 3125 2822 3475 
Q 2822 3834 2567 4026 
Q 2313 4219 1838 4219 
Q 1578 4219 1281 4162 
Q 984 4106 628 3988 
L 628 4550 
Q 988 4650 1302 4700 
Q 1616 4750 1894 4750 
Q 2613 4750 3031 4423 
Q 3450 4097 3450 3541 
Q 3450 3153 3228 2886 
Q 3006 2619 2597 2516 
z
" transform="scale(0.015625)"/>
     </defs>
     <use xlink:href="#DejaVuSans-76"/>
     <use xlink:href="#DejaVuSans-32" x="59.179688"/>
     <use xlink:href="#DejaVuSans-2e" x="122.802734"/>
     <use xlink:href="#DejaVuSans-36" x="154.589844"/>
     <use xlink:href="#DejaVuSans-2e" x="218.212891"/>
     <use xlink:href="#DejaVuSans-33" x="250"/>
    </g>
   </g>
  </g>
 </g>
 <defs>
  <clipPath id="p4368f937c6">
   <rect x="0" y="3.456" width="460.8" height="290.304"/>
  </clipPath>
 </defs>
</svg>
