<?xml version="1.0" encoding="utf-8" standalone="no"?>
<!DOCTYPE svg PUBLIC "-//W3C//DTD SVG 1.1//EN"
  "http://www.w3.org/Graphics/SVG/1.1/DTD/svg11.dtd">
<svg xmlns:xlink="http://www.w3.org/1999/xlink" width="460.8pt" height="345.6pt" viewBox="0 0 460.8 345.6" xmlns="http://www.w3.org/2000/svg" version="1.1">
 <metadata>
  <rdf:RDF xmlns:dc="http://purl.org/dc/elements/1.1/" xmlns:cc="http://creativecommons.org/ns#" xmlns:rdf="http://www.w3.org/1999/02/22-rdf-syntax-ns#">
   <cc:Work>
    <dc:type rdf:resource="http://purl.org/dc/dcmitype/StillImage"/>
    <dc:date>2023-04-07T14:48:05.500485</dc:date>
    <dc:format>image/svg+xml</dc:format>
    <dc:creator>
     <cc:Agent>
      <dc:title>Matplotlib v3.5.2, https://matplotlib.org/</dc:title>
     </cc:Agent>
    </dc:creator>
   </cc:Work>
  </rdf:RDF>
 </metadata>
 <defs>
  <style type="text/css">*{stroke-linejoin: round; stroke-linecap: butt}</style>
 </defs>
 <g id="figure_1">
  <g id="patch_1">
   <path d="M 0 345.6 
L 460.8 345.6 
L 460.8 0 
L 0 0 
z
" style="fill: #ffffff"/>
  </g>
  <g id="axes_1">
   <g id="patch_2">
    <path d="M 0 293.76 
L 460.8 293.76 
L 460.8 3.456 
L 0 3.456 
z
" style="fill: #ffffff"/>
   </g>
   <g id="matplotlib.axis_1">
    <g id="xtick_1">
     <g id="line2d_1">
      <path d="M 106.828883 293.76 
L 106.828883 3.456 
" clip-path="url(#pa871e37703)" style="fill: none; stroke: #b0b0b0; stroke-width: 0.8; stroke-linecap: square"/>
     </g>
     <g id="line2d_2">
      <defs>
       <path id="m536e593ab9" d="M 0 0 
L 0 3.5 
" style="stroke: #000000; stroke-width: 0.8"/>
      </defs>
      <g>
       <use xlink:href="#m536e593ab9" x="106.828883" y="293.76" style="stroke: #000000; stroke-width: 0.8"/>
      </g>
     </g>
     <g id="text_1">
      <!-- -4 -->
      <g transform="translate(96.858571 315.956875)scale(0.2 -0.2)">
       <defs>
        <path id="DejaVuSans-2d" d="M 313 2009 
L 1997 2009 
L 1997 1497 
L 313 1497 
L 313 2009 
z
" transform="scale(0.015625)"/>
        <path id="DejaVuSans-34" d="M 2419 4116 
L 825 1625 
L 2419 1625 
L 2419 4116 
z
M 2253 4666 
L 3047 4666 
L 3047 1625 
L 3713 1625 
L 3713 1100 
L 3047 1100 
L 3047 0 
L 2419 0 
L 2419 1100 
L 313 1100 
L 313 1709 
L 2253 4666 
z
" transform="scale(0.015625)"/>
       </defs>
       <use xlink:href="#DejaVuSans-2d"/>
       <use xlink:href="#DejaVuSans-34" x="36.083984"/>
      </g>
     </g>
    </g>
    <g id="xtick_2">
     <g id="line2d_3">
      <path d="M 213.773303 293.76 
L 213.773303 3.456 
" clip-path="url(#pa871e37703)" style="fill: none; stroke: #b0b0b0; stroke-width: 0.8; stroke-linecap: square"/>
     </g>
     <g id="line2d_4">
      <g>
       <use xlink:href="#m536e593ab9" x="213.773303" y="293.76" style="stroke: #000000; stroke-width: 0.8"/>
      </g>
     </g>
     <g id="text_2">
      <!-- 0 -->
      <g transform="translate(207.410803 315.956875)scale(0.2 -0.2)">
       <defs>
        <path id="DejaVuSans-30" d="M 2034 4250 
Q 1547 4250 1301 3770 
Q 1056 3291 1056 2328 
Q 1056 1369 1301 889 
Q 1547 409 2034 409 
Q 2525 409 2770 889 
Q 3016 1369 3016 2328 
Q 3016 3291 2770 3770 
Q 2525 4250 2034 4250 
z
M 2034 4750 
Q 2819 4750 3233 4129 
Q 3647 3509 3647 2328 
Q 3647 1150 3233 529 
Q 2819 -91 2034 -91 
Q 1250 -91 836 529 
Q 422 1150 422 2328 
Q 422 3509 836 4129 
Q 1250 4750 2034 4750 
z
" transform="scale(0.015625)"/>
       </defs>
       <use xlink:href="#DejaVuSans-30"/>
      </g>
     </g>
    </g>
    <g id="xtick_3">
     <g id="line2d_5">
      <path d="M 320.717723 293.76 
L 320.717723 3.456 
" clip-path="url(#pa871e37703)" style="fill: none; stroke: #b0b0b0; stroke-width: 0.8; stroke-linecap: square"/>
     </g>
     <g id="line2d_6">
      <g>
       <use xlink:href="#m536e593ab9" x="320.717723" y="293.76" style="stroke: #000000; stroke-width: 0.8"/>
      </g>
     </g>
     <g id="text_3">
      <!-- 4 -->
      <g transform="translate(314.355223 315.956875)scale(0.2 -0.2)">
       <use xlink:href="#DejaVuSans-34"/>
      </g>
     </g>
    </g>
    <g id="xtick_4">
     <g id="line2d_7">
      <path d="M 427.662143 293.76 
L 427.662143 3.456 
" clip-path="url(#pa871e37703)" style="fill: none; stroke: #b0b0b0; stroke-width: 0.8; stroke-linecap: square"/>
     </g>
     <g id="line2d_8">
      <g>
       <use xlink:href="#m536e593ab9" x="427.662143" y="293.76" style="stroke: #000000; stroke-width: 0.8"/>
      </g>
     </g>
     <g id="text_4">
      <!-- 8 -->
      <g transform="translate(421.299643 315.956875)scale(0.2 -0.2)">
       <defs>
        <path id="DejaVuSans-38" d="M 2034 2216 
Q 1584 2216 1326 1975 
Q 1069 1734 1069 1313 
Q 1069 891 1326 650 
Q 1584 409 2034 409 
Q 2484 409 2743 651 
Q 3003 894 3003 1313 
Q 3003 1734 2745 1975 
Q 2488 2216 2034 2216 
z
M 1403 2484 
Q 997 2584 770 2862 
Q 544 3141 544 3541 
Q 544 4100 942 4425 
Q 1341 4750 2034 4750 
Q 2731 4750 3128 4425 
Q 3525 4100 3525 3541 
Q 3525 3141 3298 2862 
Q 3072 2584 2669 2484 
Q 3125 2378 3379 2068 
Q 3634 1759 3634 1313 
Q 3634 634 3220 271 
Q 2806 -91 2034 -91 
Q 1263 -91 848 271 
Q 434 634 434 1313 
Q 434 1759 690 2068 
Q 947 2378 1403 2484 
z
M 1172 3481 
Q 1172 3119 1398 2916 
Q 1625 2713 2034 2713 
Q 2441 2713 2670 2916 
Q 2900 3119 2900 3481 
Q 2900 3844 2670 4047 
Q 2441 4250 2034 4250 
Q 1625 4250 1398 4047 
Q 1172 3844 1172 3481 
z
" transform="scale(0.015625)"/>
       </defs>
       <use xlink:href="#DejaVuSans-38"/>
      </g>
     </g>
    </g>
    <g id="text_5">
     <!-- log10 of Df -->
     <g transform="translate(175.214063 339.313125)scale(0.2 -0.2)">
      <defs>
       <path id="DejaVuSans-6c" d="M 603 4863 
L 1178 4863 
L 1178 0 
L 603 0 
L 603 4863 
z
" transform="scale(0.015625)"/>
       <path id="DejaVuSans-6f" d="M 1959 3097 
Q 1497 3097 1228 2736 
Q 959 2375 959 1747 
Q 959 1119 1226 758 
Q 1494 397 1959 397 
Q 2419 397 2687 759 
Q 2956 1122 2956 1747 
Q 2956 2369 2687 2733 
Q 2419 3097 1959 3097 
z
M 1959 3584 
Q 2709 3584 3137 3096 
Q 3566 2609 3566 1747 
Q 3566 888 3137 398 
Q 2709 -91 1959 -91 
Q 1206 -91 779 398 
Q 353 888 353 1747 
Q 353 2609 779 3096 
Q 1206 3584 1959 3584 
z
" transform="scale(0.015625)"/>
       <path id="DejaVuSans-67" d="M 2906 1791 
Q 2906 2416 2648 2759 
Q 2391 3103 1925 3103 
Q 1463 3103 1205 2759 
Q 947 2416 947 1791 
Q 947 1169 1205 825 
Q 1463 481 1925 481 
Q 2391 481 2648 825 
Q 2906 1169 2906 1791 
z
M 3481 434 
Q 3481 -459 3084 -895 
Q 2688 -1331 1869 -1331 
Q 1566 -1331 1297 -1286 
Q 1028 -1241 775 -1147 
L 775 -588 
Q 1028 -725 1275 -790 
Q 1522 -856 1778 -856 
Q 2344 -856 2625 -561 
Q 2906 -266 2906 331 
L 2906 616 
Q 2728 306 2450 153 
Q 2172 0 1784 0 
Q 1141 0 747 490 
Q 353 981 353 1791 
Q 353 2603 747 3093 
Q 1141 3584 1784 3584 
Q 2172 3584 2450 3431 
Q 2728 3278 2906 2969 
L 2906 3500 
L 3481 3500 
L 3481 434 
z
" transform="scale(0.015625)"/>
       <path id="DejaVuSans-31" d="M 794 531 
L 1825 531 
L 1825 4091 
L 703 3866 
L 703 4441 
L 1819 4666 
L 2450 4666 
L 2450 531 
L 3481 531 
L 3481 0 
L 794 0 
L 794 531 
z
" transform="scale(0.015625)"/>
       <path id="DejaVuSans-20" transform="scale(0.015625)"/>
       <path id="DejaVuSans-66" d="M 2375 4863 
L 2375 4384 
L 1825 4384 
Q 1516 4384 1395 4259 
Q 1275 4134 1275 3809 
L 1275 3500 
L 2222 3500 
L 2222 3053 
L 1275 3053 
L 1275 0 
L 697 0 
L 697 3053 
L 147 3053 
L 147 3500 
L 697 3500 
L 697 3744 
Q 697 4328 969 4595 
Q 1241 4863 1831 4863 
L 2375 4863 
z
" transform="scale(0.015625)"/>
       <path id="DejaVuSans-44" d="M 1259 4147 
L 1259 519 
L 2022 519 
Q 2988 519 3436 956 
Q 3884 1394 3884 2338 
Q 3884 3275 3436 3711 
Q 2988 4147 2022 4147 
L 1259 4147 
z
M 628 4666 
L 1925 4666 
Q 3281 4666 3915 4102 
Q 4550 3538 4550 2338 
Q 4550 1131 3912 565 
Q 3275 0 1925 0 
L 628 0 
L 628 4666 
z
" transform="scale(0.015625)"/>
      </defs>
      <use xlink:href="#DejaVuSans-6c"/>
      <use xlink:href="#DejaVuSans-6f" x="27.783203"/>
      <use xlink:href="#DejaVuSans-67" x="88.964844"/>
      <use xlink:href="#DejaVuSans-31" x="152.441406"/>
      <use xlink:href="#DejaVuSans-30" x="216.064453"/>
      <use xlink:href="#DejaVuSans-20" x="279.6875"/>
      <use xlink:href="#DejaVuSans-6f" x="311.474609"/>
      <use xlink:href="#DejaVuSans-66" x="372.65625"/>
      <use xlink:href="#DejaVuSans-20" x="407.861328"/>
      <use xlink:href="#DejaVuSans-44" x="439.648438"/>
      <use xlink:href="#DejaVuSans-66" x="516.650391"/>
     </g>
    </g>
   </g>
   <g id="matplotlib.axis_2">
    <g id="ytick_1">
     <g id="line2d_9">
      <path d="M 0 293.76 
L 460.8 293.76 
" clip-path="url(#pa871e37703)" style="fill: none; stroke: #b0b0b0; stroke-width: 0.8; stroke-linecap: square"/>
     </g>
     <g id="line2d_10">
      <defs>
       <path id="m3675e258e6" d="M 0 0 
L -3.5 0 
" style="stroke: #000000; stroke-width: 0.8"/>
      </defs>
      <g>
       <use xlink:href="#m3675e258e6" x="0" y="293.76" style="stroke: #000000; stroke-width: 0.8"/>
      </g>
     </g>
    </g>
    <g id="ytick_2">
     <g id="line2d_11">
      <path d="M 0 236.274059 
L 460.8 236.274059 
" clip-path="url(#pa871e37703)" style="fill: none; stroke: #b0b0b0; stroke-width: 0.8; stroke-linecap: square"/>
     </g>
     <g id="line2d_12">
      <g>
       <use xlink:href="#m3675e258e6" x="0" y="236.274059" style="stroke: #000000; stroke-width: 0.8"/>
      </g>
     </g>
    </g>
    <g id="ytick_3">
     <g id="line2d_13">
      <path d="M 0 178.788119 
L 460.8 178.788119 
" clip-path="url(#pa871e37703)" style="fill: none; stroke: #b0b0b0; stroke-width: 0.8; stroke-linecap: square"/>
     </g>
     <g id="line2d_14">
      <g>
       <use xlink:href="#m3675e258e6" x="0" y="178.788119" style="stroke: #000000; stroke-width: 0.8"/>
      </g>
     </g>
    </g>
    <g id="ytick_4">
     <g id="line2d_15">
      <path d="M 0 121.302178 
L 460.8 121.302178 
" clip-path="url(#pa871e37703)" style="fill: none; stroke: #b0b0b0; stroke-width: 0.8; stroke-linecap: square"/>
     </g>
     <g id="line2d_16">
      <g>
       <use xlink:href="#m3675e258e6" x="0" y="121.302178" style="stroke: #000000; stroke-width: 0.8"/>
      </g>
     </g>
    </g>
    <g id="ytick_5">
     <g id="line2d_17">
      <path d="M 0 63.816238 
L 460.8 63.816238 
" clip-path="url(#pa871e37703)" style="fill: none; stroke: #b0b0b0; stroke-width: 0.8; stroke-linecap: square"/>
     </g>
     <g id="line2d_18">
      <g>
       <use xlink:href="#m3675e258e6" x="0" y="63.816238" style="stroke: #000000; stroke-width: 0.8"/>
      </g>
     </g>
    </g>
    <g id="ytick_6">
     <g id="line2d_19">
      <path d="M 0 6.330297 
L 460.8 6.330297 
" clip-path="url(#pa871e37703)" style="fill: none; stroke: #b0b0b0; stroke-width: 0.8; stroke-linecap: square"/>
     </g>
     <g id="line2d_20">
      <g>
       <use xlink:href="#m3675e258e6" x="0" y="6.330297" style="stroke: #000000; stroke-width: 0.8"/>
      </g>
     </g>
    </g>
   </g>
   <g id="line2d_21">
    <path d="M -1 98.307802 
L 167.365316 98.307802 
L 167.365316 94.475406 
L 178.81078 94.475406 
L 178.81078 90.64301 
L 181.951685 90.64301 
L 181.951685 86.810614 
L 182.665208 86.810614 
L 182.665208 82.978218 
L 187.424678 82.978218 
L 187.424678 79.145822 
L 195.691844 79.145822 
L 195.691844 75.313426 
L 197.171118 75.313426 
L 197.171118 71.48103 
L 201.747681 71.48103 
L 201.747681 67.648634 
L 202.484851 67.648634 
L 202.484851 63.816238 
L 205.851525 63.816238 
L 205.851525 59.983842 
L 209.044149 59.983842 
L 209.044149 56.151446 
L 209.495962 56.151446 
L 209.495962 44.654257 
L 211.163932 44.654257 
L 211.163932 40.821861 
L 212.930627 40.821861 
L 212.930627 36.989465 
L 222.026894 36.989465 
L 222.026894 33.157069 
L 229.016648 33.157069 
L 229.016648 29.324673 
L 232.488674 29.324673 
L 232.582603 10.162693 
L 232.622555 10.162693 
L 232.622555 6.330297 
L 232.622555 6.330297 
L 460.8 6.330297 
L 460.8 6.330297 
" clip-path="url(#pa871e37703)" style="fill: none; stroke: #ff0000; stroke-width: 3; stroke-linecap: square"/>
   </g>
   <g id="line2d_22">
    <path d="M 231.568677 293.76 
L 231.568677 289.927604 
L 235.888645 289.927604 
L 235.888645 286.095208 
L 240.512765 286.095208 
L 240.512765 282.262812 
L 241.199283 282.262812 
L 241.199283 278.430416 
L 243.180227 278.430416 
L 243.180227 274.59802 
L 244.734525 274.59802 
L 244.734525 270.765624 
L 245.668791 270.765624 
L 245.668791 266.933228 
L 246.829261 266.933228 
L 246.829261 263.100832 
L 248.66778 263.100832 
L 248.66778 259.268436 
L 249.460647 259.268436 
L 249.460647 255.43604 
L 249.74338 255.43604 
L 249.74338 251.603644 
L 249.857793 251.603644 
L 249.857793 247.771248 
L 250.400637 247.771248 
L 250.400637 243.938851 
L 250.802629 243.938851 
L 250.802629 240.106455 
L 251.18434 240.106455 
L 251.18434 236.274059 
L 251.386158 236.274059 
L 251.386158 232.441663 
L 252.196234 232.441663 
L 252.196234 228.609267 
L 252.411319 228.609267 
L 252.411319 224.776871 
L 252.770845 224.776871 
L 252.770845 220.944475 
L 253.859019 220.944475 
L 253.859019 217.112079 
L 254.903655 217.112079 
L 254.99607 209.447287 
L 256.32757 209.447287 
L 256.32757 205.614891 
L 257.265517 205.614891 
L 257.265517 201.782495 
L 257.739937 201.782495 
L 257.795284 190.285307 
L 258.1083 190.285307 
L 258.1083 186.452911 
L 258.405623 186.452911 
L 258.424814 178.788119 
L 258.964491 178.788119 
L 258.964491 174.955723 
L 259.269645 174.955723 
L 259.269645 171.123327 
L 259.559564 171.123327 
L 259.559564 167.290931 
L 259.995084 167.290931 
L 259.995084 163.458535 
L 260.466241 163.458535 
L 260.564837 155.793743 
L 260.974418 155.793743 
L 261.051016 148.12895 
L 261.159677 148.12895 
L 261.159677 144.296554 
L 261.594379 144.296554 
L 261.594379 140.464158 
L 261.882946 140.464158 
L 261.882946 136.631762 
L 262.035555 136.631762 
L 262.035555 132.799366 
L 262.167124 132.799366 
L 262.167124 128.96697 
L 262.453284 128.96697 
L 262.515719 121.302178 
L 262.912513 121.302178 
L 262.912513 117.469782 
L 263.077009 117.469782 
L 263.077009 113.637386 
L 263.313264 113.637386 
L 263.323986 105.972594 
L 263.591193 105.972594 
L 263.591193 102.140198 
L 263.705681 102.140198 
L 263.705681 98.307802 
L 264.327302 98.307802 
L 264.327302 94.475406 
L 264.589564 94.475406 
L 264.658706 86.810614 
L 265.373641 86.810614 
L 265.373641 82.978218 
L 265.635767 82.978218 
L 265.635767 79.145822 
L 266.808229 79.145822 
L 266.808229 75.313426 
L 267.201283 75.313426 
L 267.201283 71.48103 
L 267.371713 71.48103 
L 267.371713 67.648634 
L 268.618401 67.648634 
L 268.618401 63.816238 
L 304.123394 63.816238 
L 304.123394 59.983842 
L 308.255696 59.983842 
L 308.255696 56.151446 
L 313.796861 56.151446 
L 313.796861 52.31905 
L 315.880101 52.31905 
L 315.880101 6.330297 
L 315.880101 6.330297 
L 460.8 6.330297 
L 460.8 6.330297 
" clip-path="url(#pa871e37703)" style="fill: none; stroke: #00bfbf; stroke-width: 1.5; stroke-linecap: square"/>
   </g>
   <g id="line2d_23">
    <path d="M 229.480866 293.76 
L 229.480866 289.927604 
L 231.568677 289.927604 
L 231.568677 286.095208 
L 232.223651 286.095208 
L 232.223651 282.262812 
L 232.509718 282.262812 
L 232.509718 278.430416 
L 238.397264 278.430416 
L 238.397264 274.59802 
L 239.625534 274.59802 
L 239.625534 270.765624 
L 239.978328 270.765624 
L 239.978328 266.933228 
L 240.483319 266.933228 
L 240.537773 255.43604 
L 241.026463 255.43604 
L 241.047963 247.771248 
L 241.355311 247.771248 
L 241.355311 243.938851 
L 241.871546 243.938851 
L 241.871546 240.106455 
L 242.319485 240.106455 
L 242.39337 232.441663 
L 242.856193 232.441663 
L 242.856193 228.609267 
L 243.028191 228.609267 
L 243.028191 224.776871 
L 243.180227 224.776871 
L 243.180227 220.944475 
L 243.493147 220.944475 
L 243.493147 217.112079 
L 246.343064 217.112079 
L 246.343064 213.279683 
L 248.66778 213.279683 
L 248.66778 209.447287 
L 249.038732 209.447287 
L 249.038732 205.614891 
L 249.179893 205.614891 
L 249.179893 201.782495 
L 249.688986 201.782495 
L 249.688986 197.950099 
L 250.802629 197.950099 
L 250.802629 194.117703 
L 252.234208 194.117703 
L 252.234208 190.285307 
L 252.770845 190.285307 
L 252.770845 186.452911 
L 253.620777 186.452911 
L 253.620777 182.620515 
L 253.859019 182.620515 
L 253.859019 178.788119 
L 254.99607 178.788119 
L 254.99607 174.955723 
L 257.265517 174.955723 
L 257.270629 167.290931 
L 257.653778 167.290931 
L 257.653778 163.458535 
L 257.795284 163.458535 
L 257.795284 159.626139 
L 258.1083 159.626139 
L 258.1083 155.793743 
L 258.405623 155.793743 
L 258.405623 151.961347 
L 258.964491 151.961347 
L 258.964491 148.12895 
L 259.269645 148.12895 
L 259.269645 144.296554 
L 259.400976 144.296554 
L 259.400976 140.464158 
L 259.559564 140.464158 
L 259.559564 136.631762 
L 260.466241 136.631762 
L 260.564837 128.96697 
L 260.717871 128.96697 
L 260.717871 125.134574 
L 260.974418 125.134574 
L 261.051016 117.469782 
L 261.094353 117.469782 
L 261.159677 109.80499 
L 261.594379 109.80499 
L 261.594379 105.972594 
L 261.736011 105.972594 
L 261.736011 102.140198 
L 261.878768 102.140198 
L 261.878768 98.307802 
L 262.035555 98.307802 
L 262.035555 94.475406 
L 262.167124 94.475406 
L 262.167124 90.64301 
L 262.831518 90.64301 
L 262.912513 82.978218 
L 263.030239 82.978218 
L 263.030239 79.145822 
L 263.149424 79.145822 
L 263.247263 71.48103 
L 263.317141 71.48103 
L 263.366666 63.816238 
L 263.466127 63.816238 
L 263.466127 59.983842 
L 263.777647 59.983842 
L 263.79988 52.31905 
L 264.589564 52.31905 
L 264.589564 48.486653 
L 285.125 48.486653 
L 285.125 44.654257 
L 286.153792 44.654257 
L 286.153792 40.821861 
L 291.474689 40.821861 
L 291.474689 36.989465 
L 296.182637 36.989465 
L 296.182637 33.157069 
L 300.156782 33.157069 
L 300.156782 29.324673 
L 304.123394 29.324673 
L 304.123394 25.492277 
L 307.513881 25.492277 
L 307.513881 21.659881 
L 313.796861 21.659881 
L 313.796861 17.827485 
L 315.880101 17.827485 
L 315.880101 6.330297 
L 315.880101 6.330297 
L 460.8 6.330297 
L 460.8 6.330297 
" clip-path="url(#pa871e37703)" style="fill: none; stroke: #bf00bf; stroke-width: 1.5; stroke-linecap: square"/>
   </g>
   <g id="line2d_24">
    <path d="M 221.920504 293.76 
L 221.920504 289.927604 
L 224.455899 289.927604 
L 224.455899 286.095208 
L 227.163656 286.095208 
L 227.163656 282.262812 
L 227.407101 282.262812 
L 227.407101 278.430416 
L 227.747677 278.430416 
L 227.747677 274.59802 
L 228.72434 274.59802 
L 228.72434 270.765624 
L 230.632243 270.765624 
L 230.632243 266.933228 
L 230.945536 266.933228 
L 230.945536 263.100832 
L 231.339681 263.100832 
L 231.339681 259.268436 
L 231.568677 259.268436 
L 231.592856 251.603644 
L 232.223651 251.603644 
L 232.223651 247.771248 
L 232.83189 247.771248 
L 232.904115 240.106455 
L 233.11513 240.106455 
L 233.11513 236.274059 
L 235.025169 236.274059 
L 235.025169 232.441663 
L 238.397264 232.441663 
L 238.397264 228.609267 
L 239.027039 228.609267 
L 239.027039 224.776871 
L 239.343217 224.776871 
L 239.343217 220.944475 
L 239.625534 220.944475 
L 239.625534 217.112079 
L 239.978328 217.112079 
L 239.978328 213.279683 
L 240.103841 213.279683 
L 240.103841 209.447287 
L 240.537773 209.447287 
L 240.537773 205.614891 
L 241.026463 205.614891 
L 241.026463 201.782495 
L 242.39337 201.782495 
L 242.39337 197.950099 
L 243.375969 197.950099 
L 243.375969 194.117703 
L 244.480608 194.117703 
L 244.480608 190.285307 
L 248.450239 190.285307 
L 248.450239 186.452911 
L 248.598409 186.452911 
L 248.598409 182.620515 
L 249.179893 182.620515 
L 249.179893 178.788119 
L 249.688986 178.788119 
L 249.688986 174.955723 
L 250.257359 174.955723 
L 250.257359 171.123327 
L 250.387454 171.123327 
L 250.387454 167.290931 
L 250.802629 167.290931 
L 250.802629 163.458535 
L 251.036969 163.458535 
L 251.036969 159.626139 
L 251.284222 159.626139 
L 251.284222 155.793743 
L 252.140305 155.793743 
L 252.234208 148.12895 
L 253.620777 148.12895 
L 253.620777 144.296554 
L 254.196386 144.296554 
L 254.196386 140.464158 
L 254.55044 140.464158 
L 254.55044 136.631762 
L 254.959993 136.631762 
L 254.959993 132.799366 
L 255.992426 132.799366 
L 255.992426 128.96697 
L 256.755408 128.96697 
L 256.755408 125.134574 
L 257.257443 125.134574 
L 257.270629 113.637386 
L 257.524907 113.637386 
L 257.524907 109.80499 
L 258.093184 109.80499 
L 258.150147 102.140198 
L 258.314582 102.140198 
L 258.405623 94.475406 
L 258.53422 94.475406 
L 258.53422 90.64301 
L 258.841899 90.64301 
L 258.841899 86.810614 
L 259.059927 86.810614 
L 259.059927 82.978218 
L 259.269645 82.978218 
L 259.269645 79.145822 
L 259.50445 79.145822 
L 259.50445 75.313426 
L 260.306082 75.313426 
L 260.306082 71.48103 
L 260.717871 71.48103 
L 260.798841 63.816238 
L 261.159677 63.816238 
L 261.196673 56.151446 
L 261.962552 56.151446 
L 262.018969 48.486653 
L 262.167124 48.486653 
L 262.167124 44.654257 
L 262.505236 44.654257 
L 262.505236 40.821861 
L 263.317141 40.821861 
L 263.317141 36.989465 
L 271.067342 36.989465 
L 271.067342 33.157069 
L 281.539465 33.157069 
L 281.539465 29.324673 
L 281.670348 29.324673 
L 281.670348 25.492277 
L 285.125 25.492277 
L 285.125 21.659881 
L 287.585914 21.659881 
L 287.585914 17.827485 
L 291.474689 17.827485 
L 291.474689 13.995089 
L 298.834821 13.995089 
L 298.834821 10.162693 
L 305.392393 10.162693 
L 305.392393 6.330297 
L 305.392393 6.330297 
L 460.8 6.330297 
L 460.8 6.330297 
" clip-path="url(#pa871e37703)" style="fill: none; stroke: #000000; stroke-width: 1.5; stroke-linecap: square"/>
   </g>
   <g id="line2d_25">
    <path d="M 208.445837 293.76 
L 208.445837 289.927604 
L 213.841647 289.927604 
L 213.841647 286.095208 
L 214.898363 286.095208 
L 214.898363 282.262812 
L 221.920504 282.262812 
L 221.920504 278.430416 
L 223.000489 278.430416 
L 223.000489 274.59802 
L 223.332765 274.59802 
L 223.332765 270.765624 
L 223.956461 270.765624 
L 223.956461 266.933228 
L 224.455899 266.933228 
L 224.455899 263.100832 
L 225.262375 263.100832 
L 225.262375 259.268436 
L 226.880155 259.268436 
L 226.880155 255.43604 
L 227.001645 255.43604 
L 227.001645 251.603644 
L 227.163656 251.603644 
L 227.163656 247.771248 
L 227.281729 247.771248 
L 227.281729 243.938851 
L 227.407101 243.938851 
L 227.515392 232.441663 
L 227.747677 232.441663 
L 227.814494 224.776871 
L 228.72434 224.776871 
L 228.788194 217.112079 
L 230.632243 217.112079 
L 230.703202 209.447287 
L 230.745282 209.447287 
L 230.745282 205.614891 
L 231.279944 205.614891 
L 231.342418 194.117703 
L 231.568677 194.117703 
L 231.568677 190.285307 
L 232.199538 190.285307 
L 232.223651 182.620515 
L 232.83189 182.620515 
L 232.83189 178.788119 
L 233.833735 178.788119 
L 233.833735 174.955723 
L 234.509736 174.955723 
L 234.509736 171.123327 
L 235.025169 171.123327 
L 235.025169 167.290931 
L 237.166699 167.290931 
L 237.166699 163.458535 
L 237.387245 163.458535 
L 237.387245 159.626139 
L 237.81791 159.626139 
L 237.81791 155.793743 
L 238.430812 155.793743 
L 238.52036 148.12895 
L 239.625534 148.12895 
L 239.670033 140.464158 
L 242.300646 140.464158 
L 242.390649 132.799366 
L 243.923946 132.799366 
L 243.923946 128.96697 
L 244.151919 128.96697 
L 244.151919 125.134574 
L 244.480608 125.134574 
L 244.480608 121.302178 
L 244.86805 121.302178 
L 244.86805 117.469782 
L 245.085377 117.469782 
L 245.10875 109.80499 
L 247.012651 109.80499 
L 247.012651 105.972594 
L 247.303419 105.972594 
L 247.303419 102.140198 
L 247.552599 102.140198 
L 247.552599 98.307802 
L 247.707374 98.307802 
L 247.707374 94.475406 
L 248.75271 94.475406 
L 248.75271 90.64301 
L 249.865499 90.64301 
L 249.865499 86.810614 
L 250.122787 86.810614 
L 250.122787 82.978218 
L 250.416606 82.978218 
L 250.416606 79.145822 
L 250.530608 79.145822 
L 250.530608 75.313426 
L 251.036969 75.313426 
L 251.036969 71.48103 
L 251.284222 71.48103 
L 251.284222 67.648634 
L 252.51424 67.648634 
L 252.51424 63.816238 
L 254.207285 63.816238 
L 254.207285 59.983842 
L 254.368216 59.983842 
L 254.368216 56.151446 
L 254.832738 56.151446 
L 254.832738 52.31905 
L 255.211976 52.31905 
L 255.311313 44.654257 
L 255.609238 44.654257 
L 255.609238 40.821861 
L 256.733753 40.821861 
L 256.75663 33.157069 
L 257.150774 33.157069 
L 257.150774 29.324673 
L 257.431378 29.324673 
L 257.524907 21.659881 
L 257.736082 21.659881 
L 257.736082 17.827485 
L 258.074501 17.827485 
L 258.074501 13.995089 
L 258.314582 13.995089 
L 258.314582 10.162693 
L 258.841899 10.162693 
L 258.841899 6.330297 
L 258.841899 6.330297 
L 460.8 6.330297 
L 460.8 6.330297 
" clip-path="url(#pa871e37703)" style="fill: none; stroke: #00bfbf; stroke-width: 1.5; stroke-linecap: square"/>
   </g>
   <g id="line2d_26">
    <path d="M -1 282.262812 
L 44.504417 282.262812 
L 44.504417 278.430416 
L 46.011745 278.430416 
L 46.011745 274.59802 
L 66.903397 274.59802 
L 66.903397 270.765624 
L 141.555994 270.765624 
L 141.555994 266.933228 
L 209.499446 266.933228 
L 209.504351 259.268436 
L 213.015192 259.268436 
L 213.015192 255.43604 
L 213.841647 255.43604 
L 213.841647 251.603644 
L 215.911313 251.603644 
L 215.911313 247.771248 
L 216.321093 247.771248 
L 216.322626 236.274059 
L 216.684602 236.274059 
L 216.684602 232.441663 
L 217.204724 232.441663 
L 217.204724 228.609267 
L 217.728683 228.609267 
L 217.728683 224.776871 
L 218.806772 224.776871 
L 218.806772 220.944475 
L 218.95999 220.944475 
L 218.95999 217.112079 
L 219.199868 217.112079 
L 219.226698 209.447287 
L 219.410348 209.447287 
L 219.410348 205.614891 
L 220.212592 205.614891 
L 220.212592 201.782495 
L 220.787123 201.782495 
L 220.787123 197.950099 
L 220.898262 197.950099 
L 220.898262 194.117703 
L 221.282645 194.117703 
L 221.380246 186.452911 
L 221.619796 186.452911 
L 221.67548 178.788119 
L 221.739494 178.788119 
L 221.819805 171.123327 
L 221.920504 171.123327 
L 221.920504 167.290931 
L 222.370264 167.290931 
L 222.370264 163.458535 
L 222.487651 163.458535 
L 222.487651 159.626139 
L 222.941798 159.626139 
L 222.941798 155.793743 
L 223.332765 155.793743 
L 223.332765 151.961347 
L 224.298641 151.961347 
L 224.321167 144.296554 
L 224.768503 144.296554 
L 224.825992 132.799366 
L 225.262375 132.799366 
L 225.262375 128.96697 
L 225.521469 128.96697 
L 225.521469 125.134574 
L 226.609713 125.134574 
L 226.609713 121.302178 
L 227.425802 121.302178 
L 227.425802 117.469782 
L 228.318321 117.469782 
L 228.318321 113.637386 
L 229.031552 113.637386 
L 229.031552 109.80499 
L 231.776628 109.80499 
L 231.776628 105.972594 
L 232.606165 105.972594 
L 232.606443 94.475406 
L 233.06049 94.475406 
L 233.06049 90.64301 
L 235.787485 90.64301 
L 235.787485 86.810614 
L 236.809994 86.810614 
L 236.809994 82.978218 
L 238.949828 82.978218 
L 238.949828 79.145822 
L 241.748152 79.145822 
L 241.748152 75.313426 
L 243.959622 75.313426 
L 243.959622 71.48103 
L 244.106154 71.48103 
L 244.106154 67.648634 
L 244.625924 67.648634 
L 244.731671 59.983842 
L 245.279338 59.983842 
L 245.279338 56.151446 
L 245.576038 56.151446 
L 245.576038 52.31905 
L 245.704478 52.31905 
L 245.734047 44.654257 
L 246.763933 44.654257 
L 246.763933 40.821861 
L 247.157231 40.821861 
L 247.157231 36.989465 
L 247.568283 36.989465 
L 247.568283 33.157069 
L 247.719125 33.157069 
L 247.719125 29.324673 
L 247.849414 29.324673 
L 247.849414 25.492277 
L 248.66956 25.492277 
L 248.66956 21.659881 
L 248.922652 21.659881 
L 248.922652 17.827485 
L 250.09651 17.827485 
L 250.09651 13.995089 
L 250.823266 13.995089 
L 250.823266 10.162693 
L 251.284222 10.162693 
L 251.284222 6.330297 
L 251.284222 6.330297 
L 460.8 6.330297 
L 460.8 6.330297 
" clip-path="url(#pa871e37703)" style="fill: none; stroke: #bf00bf; stroke-width: 1.5; stroke-linecap: square"/>
   </g>
   <g id="line2d_27">
    <path d="M -1 240.106455 
L 1.266266 240.106455 
L 1.266266 236.274059 
L 188.781874 236.274059 
L 188.781874 232.441663 
L 193.353252 232.441663 
L 193.353252 228.609267 
L 195.038477 228.609267 
L 195.038477 224.776871 
L 195.691844 224.776871 
L 195.691844 220.944475 
L 195.863262 220.944475 
L 195.863262 217.112079 
L 204.088662 217.112079 
L 204.088662 213.279683 
L 206.839513 213.279683 
L 206.839513 209.447287 
L 209.495962 209.447287 
L 209.495962 197.950099 
L 209.806829 197.950099 
L 209.806829 194.117703 
L 210.224346 194.117703 
L 210.224346 190.285307 
L 211.170883 190.285307 
L 211.170883 186.452911 
L 212.137031 186.452911 
L 212.137031 182.620515 
L 212.6531 182.620515 
L 212.734227 174.955723 
L 212.930627 174.955723 
L 212.93064 167.290931 
L 213.577108 167.290931 
L 213.580963 159.626139 
L 214.076916 159.626139 
L 214.076916 155.793743 
L 214.326342 155.793743 
L 214.433605 148.12895 
L 214.787032 148.12895 
L 214.873895 140.464158 
L 214.937215 140.464158 
L 214.937215 136.631762 
L 215.344614 136.631762 
L 215.42028 125.134574 
L 216.320144 125.134574 
L 216.320144 121.302178 
L 216.48783 121.302178 
L 216.48783 117.469782 
L 216.646857 117.469782 
L 216.646857 113.637386 
L 217.204724 113.637386 
L 217.204724 109.80499 
L 217.395833 109.80499 
L 217.395833 105.972594 
L 218.959084 105.972594 
L 218.959085 98.307802 
L 220.451374 98.307802 
L 220.451374 94.475406 
L 220.617757 94.475406 
L 220.617757 90.64301 
L 221.00775 90.64301 
L 221.00775 86.810614 
L 221.557427 86.810614 
L 221.557427 82.978218 
L 222.072428 82.978218 
L 222.072428 79.145822 
L 223.710922 79.145822 
L 223.710922 75.313426 
L 224.825784 75.313426 
L 224.825784 71.48103 
L 226.609713 71.48103 
L 226.609713 67.648634 
L 230.657956 67.648634 
L 230.657956 63.816238 
L 232.605825 63.816238 
L 232.605825 59.983842 
L 233.618436 59.983842 
L 233.618436 56.151446 
L 234.10536 56.151446 
L 234.10536 52.31905 
L 235.064736 52.31905 
L 235.064736 48.486653 
L 235.834816 48.486653 
L 235.834816 44.654257 
L 237.128907 44.654257 
L 237.128907 40.821861 
L 237.434026 40.821861 
L 237.434768 33.157069 
L 238.859337 33.157069 
L 238.949305 25.492277 
L 239.448955 25.492277 
L 239.448955 21.659881 
L 240.190433 21.659881 
L 240.190433 17.827485 
L 241.002445 17.827485 
L 241.002445 13.995089 
L 244.244346 13.995089 
L 244.244346 10.162693 
L 245.074041 10.162693 
L 245.074041 6.330297 
L 245.074041 6.330297 
L 460.8 6.330297 
L 460.8 6.330297 
" clip-path="url(#pa871e37703)" style="fill: none; stroke: #000000; stroke-width: 1.5; stroke-linecap: square"/>
   </g>
   <g id="line2d_28">
    <path d="M -1 148.12895 
L 181.951685 148.12895 
L 181.951685 144.296554 
L 187.424678 144.296554 
L 187.424678 140.464158 
L 193.353252 140.464158 
L 193.353252 136.631762 
L 195.691844 136.631762 
L 195.691844 132.799366 
L 197.050465 132.799366 
L 197.050465 113.637386 
L 198.416524 113.637386 
L 198.416524 109.80499 
L 200.857593 109.80499 
L 200.857593 105.972594 
L 201.747681 105.972594 
L 201.772401 98.307802 
L 204.088662 98.307802 
L 204.088662 94.475406 
L 205.098835 94.475406 
L 205.098835 90.64301 
L 205.730494 90.64301 
L 205.730494 86.810614 
L 207.690258 86.810614 
L 207.690258 82.978218 
L 209.044149 82.978218 
L 209.044149 79.145822 
L 209.495962 79.145822 
L 209.495962 59.983842 
L 211.163932 59.983842 
L 211.163932 56.151446 
L 212.930627 56.151446 
L 212.930627 52.31905 
L 218.959084 52.31905 
L 218.959084 48.486653 
L 223.710922 48.486653 
L 223.710922 44.654257 
L 229.016648 44.654257 
L 229.016648 40.821861 
L 232.896169 40.821861 
L 232.896169 36.989465 
L 233.147541 36.989465 
L 233.214327 29.324673 
L 233.330345 29.324673 
L 233.385364 17.827485 
L 233.519993 17.827485 
L 233.593111 10.162693 
L 234.14319 10.162693 
L 234.14319 6.330297 
L 234.14319 6.330297 
L 460.8 6.330297 
L 460.8 6.330297 
" clip-path="url(#pa871e37703)" style="fill: none; stroke: #00bfbf; stroke-width: 1.5; stroke-linecap: square"/>
   </g>
   <g id="line2d_29">
    <path d="M -1 98.307802 
L 178.81078 98.307802 
L 178.81078 94.475406 
L 181.951685 94.475406 
L 181.951685 90.64301 
L 182.665208 90.64301 
L 182.665208 86.810614 
L 187.424678 86.810614 
L 187.424678 82.978218 
L 191.956919 82.978218 
L 191.956919 79.145822 
L 195.691844 79.145822 
L 195.691844 75.313426 
L 197.171118 75.313426 
L 197.171118 71.48103 
L 201.747681 71.48103 
L 201.747681 67.648634 
L 202.484851 67.648634 
L 202.484851 63.816238 
L 205.851525 63.816238 
L 205.851525 59.983842 
L 209.044149 59.983842 
L 209.044149 56.151446 
L 209.495962 56.151446 
L 209.495962 44.654257 
L 211.163932 44.654257 
L 211.163932 40.821861 
L 212.930627 40.821861 
L 212.930627 36.989465 
L 229.016648 36.989465 
L 229.016648 33.157069 
L 232.521502 33.157069 
L 232.622555 10.162693 
L 232.643674 10.162693 
L 232.643674 6.330297 
L 232.643674 6.330297 
L 460.8 6.330297 
L 460.8 6.330297 
" clip-path="url(#pa871e37703)" style="fill: none; stroke: #bf00bf; stroke-width: 1.5; stroke-linecap: square"/>
   </g>
   <g id="patch_3">
    <path d="M 0 293.76 
L 0 3.456 
" style="fill: none; stroke: #000000; stroke-width: 0.8; stroke-linejoin: miter; stroke-linecap: square"/>
   </g>
   <g id="patch_4">
    <path d="M 460.8 293.76 
L 460.8 3.456 
" style="fill: none; stroke: #000000; stroke-width: 0.8; stroke-linejoin: miter; stroke-linecap: square"/>
   </g>
   <g id="patch_5">
    <path d="M 0 293.76 
L 460.8 293.76 
" style="fill: none; stroke: #000000; stroke-width: 0.8; stroke-linejoin: miter; stroke-linecap: square"/>
   </g>
   <g id="patch_6">
    <path d="M 0 3.456 
L 460.8 3.456 
" style="fill: none; stroke: #000000; stroke-width: 0.8; stroke-linejoin: miter; stroke-linecap: square"/>
   </g>
   <g id="text_6">
    <!-- {f20-f24}, 5-D -->
    <g transform="translate(305.884 287.95392)scale(0.2 -0.2)">
     <defs>
      <path id="DejaVuSans-7b" d="M 3272 -594 
L 3272 -1044 
L 3078 -1044 
Q 2300 -1044 2036 -812 
Q 1772 -581 1772 109 
L 1772 856 
Q 1772 1328 1603 1509 
Q 1434 1691 991 1691 
L 800 1691 
L 800 2138 
L 991 2138 
Q 1438 2138 1605 2317 
Q 1772 2497 1772 2963 
L 1772 3713 
Q 1772 4403 2036 4633 
Q 2300 4863 3078 4863 
L 3272 4863 
L 3272 4416 
L 3059 4416 
Q 2619 4416 2484 4278 
Q 2350 4141 2350 3700 
L 2350 2925 
Q 2350 2434 2208 2212 
Q 2066 1991 1722 1913 
Q 2069 1828 2209 1606 
Q 2350 1384 2350 897 
L 2350 122 
Q 2350 -319 2484 -456 
Q 2619 -594 3059 -594 
L 3272 -594 
z
" transform="scale(0.015625)"/>
      <path id="DejaVuSans-32" d="M 1228 531 
L 3431 531 
L 3431 0 
L 469 0 
L 469 531 
Q 828 903 1448 1529 
Q 2069 2156 2228 2338 
Q 2531 2678 2651 2914 
Q 2772 3150 2772 3378 
Q 2772 3750 2511 3984 
Q 2250 4219 1831 4219 
Q 1534 4219 1204 4116 
Q 875 4013 500 3803 
L 500 4441 
Q 881 4594 1212 4672 
Q 1544 4750 1819 4750 
Q 2544 4750 2975 4387 
Q 3406 4025 3406 3419 
Q 3406 3131 3298 2873 
Q 3191 2616 2906 2266 
Q 2828 2175 2409 1742 
Q 1991 1309 1228 531 
z
" transform="scale(0.015625)"/>
      <path id="DejaVuSans-7d" d="M 800 -594 
L 1019 -594 
Q 1456 -594 1589 -459 
Q 1722 -325 1722 122 
L 1722 897 
Q 1722 1384 1862 1606 
Q 2003 1828 2350 1913 
Q 2003 1991 1862 2212 
Q 1722 2434 1722 2925 
L 1722 3700 
Q 1722 4144 1589 4280 
Q 1456 4416 1019 4416 
L 800 4416 
L 800 4863 
L 997 4863 
Q 1775 4863 2036 4633 
Q 2297 4403 2297 3713 
L 2297 2963 
Q 2297 2497 2465 2317 
Q 2634 2138 3078 2138 
L 3272 2138 
L 3272 1691 
L 3078 1691 
Q 2634 1691 2465 1509 
Q 2297 1328 2297 856 
L 2297 109 
Q 2297 -581 2036 -812 
Q 1775 -1044 997 -1044 
L 800 -1044 
L 800 -594 
z
" transform="scale(0.015625)"/>
      <path id="DejaVuSans-2c" d="M 750 794 
L 1409 794 
L 1409 256 
L 897 -744 
L 494 -744 
L 750 256 
L 750 794 
z
" transform="scale(0.015625)"/>
      <path id="DejaVuSans-35" d="M 691 4666 
L 3169 4666 
L 3169 4134 
L 1269 4134 
L 1269 2991 
Q 1406 3038 1543 3061 
Q 1681 3084 1819 3084 
Q 2600 3084 3056 2656 
Q 3513 2228 3513 1497 
Q 3513 744 3044 326 
Q 2575 -91 1722 -91 
Q 1428 -91 1123 -41 
Q 819 9 494 109 
L 494 744 
Q 775 591 1075 516 
Q 1375 441 1709 441 
Q 2250 441 2565 725 
Q 2881 1009 2881 1497 
Q 2881 1984 2565 2268 
Q 2250 2553 1709 2553 
Q 1456 2553 1204 2497 
Q 953 2441 691 2322 
L 691 4666 
z
" transform="scale(0.015625)"/>
     </defs>
     <use xlink:href="#DejaVuSans-7b"/>
     <use xlink:href="#DejaVuSans-66" x="63.623047"/>
     <use xlink:href="#DejaVuSans-32" x="98.828125"/>
     <use xlink:href="#DejaVuSans-30" x="162.451172"/>
     <use xlink:href="#DejaVuSans-2d" x="226.074219"/>
     <use xlink:href="#DejaVuSans-66" x="262.158203"/>
     <use xlink:href="#DejaVuSans-32" x="297.363281"/>
     <use xlink:href="#DejaVuSans-34" x="360.986328"/>
     <use xlink:href="#DejaVuSans-7d" x="424.609375"/>
     <use xlink:href="#DejaVuSans-2c" x="488.232422"/>
     <use xlink:href="#DejaVuSans-20" x="520.019531"/>
     <use xlink:href="#DejaVuSans-35" x="551.806641"/>
     <use xlink:href="#DejaVuSans-2d" x="615.429688"/>
     <use xlink:href="#DejaVuSans-44" x="651.513672"/>
    </g>
   </g>
   <g id="text_7">
    <!-- v2.6.3 -->
    <g style="fill: #808080" transform="translate(214.71875 288.777272)scale(0.1 -0.1)">
     <defs>
      <path id="DejaVuSans-76" d="M 191 3500 
L 800 3500 
L 1894 563 
L 2988 3500 
L 3597 3500 
L 2284 0 
L 1503 0 
L 191 3500 
z
" transform="scale(0.015625)"/>
      <path id="DejaVuSans-2e" d="M 684 794 
L 1344 794 
L 1344 0 
L 684 0 
L 684 794 
z
" transform="scale(0.015625)"/>
      <path id="DejaVuSans-36" d="M 2113 2584 
Q 1688 2584 1439 2293 
Q 1191 2003 1191 1497 
Q 1191 994 1439 701 
Q 1688 409 2113 409 
Q 2538 409 2786 701 
Q 3034 994 3034 1497 
Q 3034 2003 2786 2293 
Q 2538 2584 2113 2584 
z
M 3366 4563 
L 3366 3988 
Q 3128 4100 2886 4159 
Q 2644 4219 2406 4219 
Q 1781 4219 1451 3797 
Q 1122 3375 1075 2522 
Q 1259 2794 1537 2939 
Q 1816 3084 2150 3084 
Q 2853 3084 3261 2657 
Q 3669 2231 3669 1497 
Q 3669 778 3244 343 
Q 2819 -91 2113 -91 
Q 1303 -91 875 529 
Q 447 1150 447 2328 
Q 447 3434 972 4092 
Q 1497 4750 2381 4750 
Q 2619 4750 2861 4703 
Q 3103 4656 3366 4563 
z
" transform="scale(0.015625)"/>
      <path id="DejaVuSans-33" d="M 2597 2516 
Q 3050 2419 3304 2112 
Q 3559 1806 3559 1356 
Q 3559 666 3084 287 
Q 2609 -91 1734 -91 
Q 1441 -91 1130 -33 
Q 819 25 488 141 
L 488 750 
Q 750 597 1062 519 
Q 1375 441 1716 441 
Q 2309 441 2620 675 
Q 2931 909 2931 1356 
Q 2931 1769 2642 2001 
Q 2353 2234 1838 2234 
L 1294 2234 
L 1294 2753 
L 1863 2753 
Q 2328 2753 2575 2939 
Q 2822 3125 2822 3475 
Q 2822 3834 2567 4026 
Q 2313 4219 1838 4219 
Q 1578 4219 1281 4162 
Q 984 4106 628 3988 
L 628 4550 
Q 988 4650 1302 4700 
Q 1616 4750 1894 4750 
Q 2613 4750 3031 4423 
Q 3450 4097 3450 3541 
Q 3450 3153 3228 2886 
Q 3006 2619 2597 2516 
z
" transform="scale(0.015625)"/>
     </defs>
     <use xlink:href="#DejaVuSans-76"/>
     <use xlink:href="#DejaVuSans-32" x="59.179688"/>
     <use xlink:href="#DejaVuSans-2e" x="122.802734"/>
     <use xlink:href="#DejaVuSans-36" x="154.589844"/>
     <use xlink:href="#DejaVuSans-2e" x="218.212891"/>
     <use xlink:href="#DejaVuSans-33" x="250"/>
    </g>
   </g>
  </g>
 </g>
 <defs>
  <clipPath id="pa871e37703">
   <rect x="0" y="3.456" width="460.8" height="290.304"/>
  </clipPath>
 </defs>
</svg>
