<?xml version="1.0" encoding="utf-8" standalone="no"?>
<!DOCTYPE svg PUBLIC "-//W3C//DTD SVG 1.1//EN"
  "http://www.w3.org/Graphics/SVG/1.1/DTD/svg11.dtd">
<svg xmlns:xlink="http://www.w3.org/1999/xlink" width="460.8pt" height="345.6pt" viewBox="0 0 460.8 345.6" xmlns="http://www.w3.org/2000/svg" version="1.1">
 <metadata>
  <rdf:RDF xmlns:dc="http://purl.org/dc/elements/1.1/" xmlns:cc="http://creativecommons.org/ns#" xmlns:rdf="http://www.w3.org/1999/02/22-rdf-syntax-ns#">
   <cc:Work>
    <dc:type rdf:resource="http://purl.org/dc/dcmitype/StillImage"/>
    <dc:date>2023-04-07T14:48:04.497532</dc:date>
    <dc:format>image/svg+xml</dc:format>
    <dc:creator>
     <cc:Agent>
      <dc:title>Matplotlib v3.5.2, https://matplotlib.org/</dc:title>
     </cc:Agent>
    </dc:creator>
   </cc:Work>
  </rdf:RDF>
 </metadata>
 <defs>
  <style type="text/css">*{stroke-linejoin: round; stroke-linecap: butt}</style>
 </defs>
 <g id="figure_1">
  <g id="patch_1">
   <path d="M 0 345.6 
L 460.8 345.6 
L 460.8 0 
L 0 0 
z
" style="fill: #ffffff"/>
  </g>
  <g id="axes_1">
   <g id="patch_2">
    <path d="M 0 293.76 
L 460.8 293.76 
L 460.8 3.456 
L 0 3.456 
z
" style="fill: #ffffff"/>
   </g>
   <g id="matplotlib.axis_1">
    <g id="xtick_1">
     <g id="line2d_1">
      <path d="M 106.828883 293.76 
L 106.828883 3.456 
" clip-path="url(#p8d5af0b30c)" style="fill: none; stroke: #b0b0b0; stroke-width: 0.8; stroke-linecap: square"/>
     </g>
     <g id="line2d_2">
      <defs>
       <path id="m7825f73513" d="M 0 0 
L 0 3.5 
" style="stroke: #000000; stroke-width: 0.8"/>
      </defs>
      <g>
       <use xlink:href="#m7825f73513" x="106.828883" y="293.76" style="stroke: #000000; stroke-width: 0.8"/>
      </g>
     </g>
     <g id="text_1">
      <!-- -4 -->
      <g transform="translate(96.858571 315.956875)scale(0.2 -0.2)">
       <defs>
        <path id="DejaVuSans-2d" d="M 313 2009 
L 1997 2009 
L 1997 1497 
L 313 1497 
L 313 2009 
z
" transform="scale(0.015625)"/>
        <path id="DejaVuSans-34" d="M 2419 4116 
L 825 1625 
L 2419 1625 
L 2419 4116 
z
M 2253 4666 
L 3047 4666 
L 3047 1625 
L 3713 1625 
L 3713 1100 
L 3047 1100 
L 3047 0 
L 2419 0 
L 2419 1100 
L 313 1100 
L 313 1709 
L 2253 4666 
z
" transform="scale(0.015625)"/>
       </defs>
       <use xlink:href="#DejaVuSans-2d"/>
       <use xlink:href="#DejaVuSans-34" x="36.083984"/>
      </g>
     </g>
    </g>
    <g id="xtick_2">
     <g id="line2d_3">
      <path d="M 213.773303 293.76 
L 213.773303 3.456 
" clip-path="url(#p8d5af0b30c)" style="fill: none; stroke: #b0b0b0; stroke-width: 0.8; stroke-linecap: square"/>
     </g>
     <g id="line2d_4">
      <g>
       <use xlink:href="#m7825f73513" x="213.773303" y="293.76" style="stroke: #000000; stroke-width: 0.8"/>
      </g>
     </g>
     <g id="text_2">
      <!-- 0 -->
      <g transform="translate(207.410803 315.956875)scale(0.2 -0.2)">
       <defs>
        <path id="DejaVuSans-30" d="M 2034 4250 
Q 1547 4250 1301 3770 
Q 1056 3291 1056 2328 
Q 1056 1369 1301 889 
Q 1547 409 2034 409 
Q 2525 409 2770 889 
Q 3016 1369 3016 2328 
Q 3016 3291 2770 3770 
Q 2525 4250 2034 4250 
z
M 2034 4750 
Q 2819 4750 3233 4129 
Q 3647 3509 3647 2328 
Q 3647 1150 3233 529 
Q 2819 -91 2034 -91 
Q 1250 -91 836 529 
Q 422 1150 422 2328 
Q 422 3509 836 4129 
Q 1250 4750 2034 4750 
z
" transform="scale(0.015625)"/>
       </defs>
       <use xlink:href="#DejaVuSans-30"/>
      </g>
     </g>
    </g>
    <g id="xtick_3">
     <g id="line2d_5">
      <path d="M 320.717723 293.76 
L 320.717723 3.456 
" clip-path="url(#p8d5af0b30c)" style="fill: none; stroke: #b0b0b0; stroke-width: 0.8; stroke-linecap: square"/>
     </g>
     <g id="line2d_6">
      <g>
       <use xlink:href="#m7825f73513" x="320.717723" y="293.76" style="stroke: #000000; stroke-width: 0.8"/>
      </g>
     </g>
     <g id="text_3">
      <!-- 4 -->
      <g transform="translate(314.355223 315.956875)scale(0.2 -0.2)">
       <use xlink:href="#DejaVuSans-34"/>
      </g>
     </g>
    </g>
    <g id="xtick_4">
     <g id="line2d_7">
      <path d="M 427.662143 293.76 
L 427.662143 3.456 
" clip-path="url(#p8d5af0b30c)" style="fill: none; stroke: #b0b0b0; stroke-width: 0.8; stroke-linecap: square"/>
     </g>
     <g id="line2d_8">
      <g>
       <use xlink:href="#m7825f73513" x="427.662143" y="293.76" style="stroke: #000000; stroke-width: 0.8"/>
      </g>
     </g>
     <g id="text_4">
      <!-- 8 -->
      <g transform="translate(421.299643 315.956875)scale(0.2 -0.2)">
       <defs>
        <path id="DejaVuSans-38" d="M 2034 2216 
Q 1584 2216 1326 1975 
Q 1069 1734 1069 1313 
Q 1069 891 1326 650 
Q 1584 409 2034 409 
Q 2484 409 2743 651 
Q 3003 894 3003 1313 
Q 3003 1734 2745 1975 
Q 2488 2216 2034 2216 
z
M 1403 2484 
Q 997 2584 770 2862 
Q 544 3141 544 3541 
Q 544 4100 942 4425 
Q 1341 4750 2034 4750 
Q 2731 4750 3128 4425 
Q 3525 4100 3525 3541 
Q 3525 3141 3298 2862 
Q 3072 2584 2669 2484 
Q 3125 2378 3379 2068 
Q 3634 1759 3634 1313 
Q 3634 634 3220 271 
Q 2806 -91 2034 -91 
Q 1263 -91 848 271 
Q 434 634 434 1313 
Q 434 1759 690 2068 
Q 947 2378 1403 2484 
z
M 1172 3481 
Q 1172 3119 1398 2916 
Q 1625 2713 2034 2713 
Q 2441 2713 2670 2916 
Q 2900 3119 2900 3481 
Q 2900 3844 2670 4047 
Q 2441 4250 2034 4250 
Q 1625 4250 1398 4047 
Q 1172 3844 1172 3481 
z
" transform="scale(0.015625)"/>
       </defs>
       <use xlink:href="#DejaVuSans-38"/>
      </g>
     </g>
    </g>
    <g id="text_5">
     <!-- log10 of Df -->
     <g transform="translate(175.214063 339.313125)scale(0.2 -0.2)">
      <defs>
       <path id="DejaVuSans-6c" d="M 603 4863 
L 1178 4863 
L 1178 0 
L 603 0 
L 603 4863 
z
" transform="scale(0.015625)"/>
       <path id="DejaVuSans-6f" d="M 1959 3097 
Q 1497 3097 1228 2736 
Q 959 2375 959 1747 
Q 959 1119 1226 758 
Q 1494 397 1959 397 
Q 2419 397 2687 759 
Q 2956 1122 2956 1747 
Q 2956 2369 2687 2733 
Q 2419 3097 1959 3097 
z
M 1959 3584 
Q 2709 3584 3137 3096 
Q 3566 2609 3566 1747 
Q 3566 888 3137 398 
Q 2709 -91 1959 -91 
Q 1206 -91 779 398 
Q 353 888 353 1747 
Q 353 2609 779 3096 
Q 1206 3584 1959 3584 
z
" transform="scale(0.015625)"/>
       <path id="DejaVuSans-67" d="M 2906 1791 
Q 2906 2416 2648 2759 
Q 2391 3103 1925 3103 
Q 1463 3103 1205 2759 
Q 947 2416 947 1791 
Q 947 1169 1205 825 
Q 1463 481 1925 481 
Q 2391 481 2648 825 
Q 2906 1169 2906 1791 
z
M 3481 434 
Q 3481 -459 3084 -895 
Q 2688 -1331 1869 -1331 
Q 1566 -1331 1297 -1286 
Q 1028 -1241 775 -1147 
L 775 -588 
Q 1028 -725 1275 -790 
Q 1522 -856 1778 -856 
Q 2344 -856 2625 -561 
Q 2906 -266 2906 331 
L 2906 616 
Q 2728 306 2450 153 
Q 2172 0 1784 0 
Q 1141 0 747 490 
Q 353 981 353 1791 
Q 353 2603 747 3093 
Q 1141 3584 1784 3584 
Q 2172 3584 2450 3431 
Q 2728 3278 2906 2969 
L 2906 3500 
L 3481 3500 
L 3481 434 
z
" transform="scale(0.015625)"/>
       <path id="DejaVuSans-31" d="M 794 531 
L 1825 531 
L 1825 4091 
L 703 3866 
L 703 4441 
L 1819 4666 
L 2450 4666 
L 2450 531 
L 3481 531 
L 3481 0 
L 794 0 
L 794 531 
z
" transform="scale(0.015625)"/>
       <path id="DejaVuSans-20" transform="scale(0.015625)"/>
       <path id="DejaVuSans-66" d="M 2375 4863 
L 2375 4384 
L 1825 4384 
Q 1516 4384 1395 4259 
Q 1275 4134 1275 3809 
L 1275 3500 
L 2222 3500 
L 2222 3053 
L 1275 3053 
L 1275 0 
L 697 0 
L 697 3053 
L 147 3053 
L 147 3500 
L 697 3500 
L 697 3744 
Q 697 4328 969 4595 
Q 1241 4863 1831 4863 
L 2375 4863 
z
" transform="scale(0.015625)"/>
       <path id="DejaVuSans-44" d="M 1259 4147 
L 1259 519 
L 2022 519 
Q 2988 519 3436 956 
Q 3884 1394 3884 2338 
Q 3884 3275 3436 3711 
Q 2988 4147 2022 4147 
L 1259 4147 
z
M 628 4666 
L 1925 4666 
Q 3281 4666 3915 4102 
Q 4550 3538 4550 2338 
Q 4550 1131 3912 565 
Q 3275 0 1925 0 
L 628 0 
L 628 4666 
z
" transform="scale(0.015625)"/>
      </defs>
      <use xlink:href="#DejaVuSans-6c"/>
      <use xlink:href="#DejaVuSans-6f" x="27.783203"/>
      <use xlink:href="#DejaVuSans-67" x="88.964844"/>
      <use xlink:href="#DejaVuSans-31" x="152.441406"/>
      <use xlink:href="#DejaVuSans-30" x="216.064453"/>
      <use xlink:href="#DejaVuSans-20" x="279.6875"/>
      <use xlink:href="#DejaVuSans-6f" x="311.474609"/>
      <use xlink:href="#DejaVuSans-66" x="372.65625"/>
      <use xlink:href="#DejaVuSans-20" x="407.861328"/>
      <use xlink:href="#DejaVuSans-44" x="439.648438"/>
      <use xlink:href="#DejaVuSans-66" x="516.650391"/>
     </g>
    </g>
   </g>
   <g id="matplotlib.axis_2">
    <g id="ytick_1">
     <g id="line2d_9">
      <path d="M 0 293.76 
L 460.8 293.76 
" clip-path="url(#p8d5af0b30c)" style="fill: none; stroke: #b0b0b0; stroke-width: 0.8; stroke-linecap: square"/>
     </g>
     <g id="line2d_10">
      <defs>
       <path id="mb3c5852a9e" d="M 0 0 
L -3.5 0 
" style="stroke: #000000; stroke-width: 0.8"/>
      </defs>
      <g>
       <use xlink:href="#mb3c5852a9e" x="0" y="293.76" style="stroke: #000000; stroke-width: 0.8"/>
      </g>
     </g>
    </g>
    <g id="ytick_2">
     <g id="line2d_11">
      <path d="M 0 236.274059 
L 460.8 236.274059 
" clip-path="url(#p8d5af0b30c)" style="fill: none; stroke: #b0b0b0; stroke-width: 0.8; stroke-linecap: square"/>
     </g>
     <g id="line2d_12">
      <g>
       <use xlink:href="#mb3c5852a9e" x="0" y="236.274059" style="stroke: #000000; stroke-width: 0.8"/>
      </g>
     </g>
    </g>
    <g id="ytick_3">
     <g id="line2d_13">
      <path d="M 0 178.788119 
L 460.8 178.788119 
" clip-path="url(#p8d5af0b30c)" style="fill: none; stroke: #b0b0b0; stroke-width: 0.8; stroke-linecap: square"/>
     </g>
     <g id="line2d_14">
      <g>
       <use xlink:href="#mb3c5852a9e" x="0" y="178.788119" style="stroke: #000000; stroke-width: 0.8"/>
      </g>
     </g>
    </g>
    <g id="ytick_4">
     <g id="line2d_15">
      <path d="M 0 121.302178 
L 460.8 121.302178 
" clip-path="url(#p8d5af0b30c)" style="fill: none; stroke: #b0b0b0; stroke-width: 0.8; stroke-linecap: square"/>
     </g>
     <g id="line2d_16">
      <g>
       <use xlink:href="#mb3c5852a9e" x="0" y="121.302178" style="stroke: #000000; stroke-width: 0.8"/>
      </g>
     </g>
    </g>
    <g id="ytick_5">
     <g id="line2d_17">
      <path d="M 0 63.816238 
L 460.8 63.816238 
" clip-path="url(#p8d5af0b30c)" style="fill: none; stroke: #b0b0b0; stroke-width: 0.8; stroke-linecap: square"/>
     </g>
     <g id="line2d_18">
      <g>
       <use xlink:href="#mb3c5852a9e" x="0" y="63.816238" style="stroke: #000000; stroke-width: 0.8"/>
      </g>
     </g>
    </g>
    <g id="ytick_6">
     <g id="line2d_19">
      <path d="M 0 6.330297 
L 460.8 6.330297 
" clip-path="url(#p8d5af0b30c)" style="fill: none; stroke: #b0b0b0; stroke-width: 0.8; stroke-linecap: square"/>
     </g>
     <g id="line2d_20">
      <g>
       <use xlink:href="#mb3c5852a9e" x="0" y="6.330297" style="stroke: #000000; stroke-width: 0.8"/>
      </g>
     </g>
    </g>
   </g>
   <g id="line2d_21">
    <path d="M -1 69.405149 
L -0.977737 69.405149 
L -0.888317 67.808317 
L -0.803143 67.808317 
L -0.75175 65.413069 
L -0.620514 65.413069 
L -0.540924 63.017822 
L -0.391302 63.017822 
L -0.329891 60.622574 
L -0.24546 60.622574 
L -0.238546 59.025743 
L -0.115537 59.025743 
L -0.115537 47.049505 
L 167.365316 47.049505 
L 167.365316 46.251089 
L 178.81078 46.251089 
L 178.81078 45.452673 
L 181.951685 45.452673 
L 181.951685 44.654257 
L 182.665208 44.654257 
L 182.665208 43.855842 
L 185.500128 43.855842 
L 185.500128 43.057426 
L 187.424678 43.057426 
L 187.424678 42.25901 
L 188.971836 42.25901 
L 188.971836 41.460594 
L 195.691844 41.460594 
L 195.691844 40.662178 
L 196.77267 40.662178 
L 196.77267 39.863762 
L 197.171118 39.863762 
L 197.171118 39.065347 
L 201.747681 39.065347 
L 201.747681 38.266931 
L 202.484851 38.266931 
L 202.484851 37.468515 
L 203.535373 37.468515 
L 203.535373 36.670099 
L 205.851525 36.670099 
L 205.851525 35.871683 
L 206.766081 35.871683 
L 206.766081 35.073267 
L 207.492171 35.073267 
L 207.492171 34.274851 
L 209.044149 34.274851 
L 209.044149 33.476436 
L 209.495962 33.476436 
L 209.495962 31.081188 
L 209.951096 31.081188 
L 209.994414 29.484356 
L 210.155534 29.484356 
L 210.155534 28.685941 
L 211.163932 28.685941 
L 211.163932 27.887525 
L 212.930627 27.887525 
L 212.930627 27.089109 
L 213.714623 27.089109 
L 213.714623 25.492277 
L 214.605509 25.492277 
L 214.605509 24.693861 
L 221.762993 24.693861 
L 221.762993 23.09703 
L 222.026894 23.09703 
L 222.026894 22.298614 
L 222.279392 22.298614 
L 222.279392 21.500198 
L 222.698309 21.500198 
L 222.698309 20.701782 
L 223.602249 20.701782 
L 223.602249 19.903366 
L 224.061762 19.903366 
L 224.061762 19.10495 
L 225.195538 19.10495 
L 225.195538 18.306535 
L 225.324564 18.306535 
L 225.376697 16.709703 
L 225.891303 16.709703 
L 225.891303 15.911287 
L 226.045361 15.911287 
L 226.045361 15.112871 
L 226.470987 15.112871 
L 226.470987 11.919208 
L 229.016648 11.919208 
L 229.016648 11.120792 
L 232.488674 11.120792 
L 232.582603 7.128713 
L 232.622555 7.128713 
L 232.622555 6.330297 
L 232.622555 6.330297 
L 460.8 6.330297 
L 460.8 6.330297 
" clip-path="url(#p8d5af0b30c)" style="fill: none; stroke: #ff0000; stroke-width: 3; stroke-linecap: square"/>
   </g>
   <g id="line2d_22">
    <path d="M 197.69391 293.76 
L 197.69391 281.783762 
L 231.568677 281.783762 
L 231.568677 280.985347 
L 232.195626 280.985347 
L 232.195626 280.186931 
L 232.529216 280.186931 
L 232.578912 278.590099 
L 233.841764 278.590099 
L 233.841764 277.791683 
L 234.164945 277.791683 
L 234.164945 276.993267 
L 234.972776 276.993267 
L 234.972776 276.194851 
L 235.888645 276.194851 
L 235.888645 275.396436 
L 237.252466 275.396436 
L 237.252466 274.59802 
L 238.054724 274.59802 
L 238.054724 273.799604 
L 238.766431 273.799604 
L 238.766431 273.001188 
L 239.616179 273.001188 
L 239.661891 271.404356 
L 239.779843 271.404356 
L 239.779843 270.605941 
L 240.512765 270.605941 
L 240.512765 269.807525 
L 241.125775 269.807525 
L 241.199283 268.210693 
L 241.695661 268.210693 
L 241.695661 267.412277 
L 241.8232 267.412277 
L 241.910375 265.01703 
L 242.472005 265.01703 
L 242.472005 264.218614 
L 243.180227 264.218614 
L 243.180227 263.420198 
L 243.343622 263.420198 
L 243.397514 261.823366 
L 243.658198 261.823366 
L 243.658198 261.02495 
L 244.734525 261.02495 
L 244.83135 259.428119 
L 245.086992 259.428119 
L 245.086992 258.629703 
L 245.668791 258.629703 
L 245.668791 257.831287 
L 246.423305 257.831287 
L 246.423305 257.032871 
L 246.594671 257.032871 
L 246.594671 256.234455 
L 246.775155 256.234455 
L 246.829261 254.637624 
L 247.745693 254.637624 
L 247.745693 253.839208 
L 248.66778 253.839208 
L 248.66778 253.040792 
L 248.851617 253.040792 
L 248.851617 252.242376 
L 249.236295 252.242376 
L 249.236295 251.44396 
L 249.460647 251.44396 
L 249.460647 250.645545 
L 249.74338 250.645545 
L 249.74338 249.847129 
L 249.857793 249.847129 
L 249.857793 249.048713 
L 250.400637 249.048713 
L 250.400637 248.250297 
L 250.677312 248.250297 
L 250.677312 247.451881 
L 250.802629 247.451881 
L 250.866973 245.85505 
L 251.181486 245.85505 
L 251.18434 244.258218 
L 251.307705 244.258218 
L 251.386158 242.661386 
L 251.604179 242.661386 
L 251.645351 229.886733 
L 252.196234 229.886733 
L 252.196234 229.088317 
L 252.411319 229.088317 
L 252.430881 227.491485 
L 252.770845 227.491485 
L 252.779201 225.894653 
L 252.89221 225.894653 
L 252.953345 224.297822 
L 253.086787 224.297822 
L 253.086787 223.499406 
L 253.229905 223.499406 
L 253.229905 222.70099 
L 253.66747 222.70099 
L 253.73885 221.104158 
L 253.859019 221.104158 
L 253.859019 220.305743 
L 254.379514 220.305743 
L 254.379514 219.507327 
L 254.503718 219.507327 
L 254.503718 218.708911 
L 254.826956 218.708911 
L 254.903655 216.313663 
L 254.991541 216.313663 
L 254.99607 214.716832 
L 255.219135 214.716832 
L 255.219135 213.918416 
L 256.064488 213.918416 
L 256.064488 213.12 
L 256.32757 213.12 
L 256.32757 212.321584 
L 256.445269 212.321584 
L 256.499867 210.724752 
L 256.79605 210.724752 
L 256.857038 209.127921 
L 257.24528 209.127921 
L 257.265517 207.531089 
L 257.389288 207.531089 
L 257.479424 205.934257 
L 257.584276 205.934257 
L 257.584276 205.135842 
L 257.739937 205.135842 
L 257.809515 201.942178 
L 257.983312 201.942178 
L 257.983312 201.143762 
L 258.1083 201.143762 
L 258.181863 199.546931 
L 258.244703 199.546931 
L 258.244703 198.748515 
L 258.405623 198.748515 
L 258.424814 197.151683 
L 258.957444 197.151683 
L 258.964491 195.554851 
L 259.269645 195.554851 
L 259.269645 194.756436 
L 259.559564 194.756436 
L 259.559564 193.95802 
L 259.995084 193.95802 
L 260.09122 192.361188 
L 260.466241 192.361188 
L 260.564837 189.965941 
L 260.974418 189.965941 
L 261.051016 188.369109 
L 261.159677 188.369109 
L 261.159677 187.570693 
L 261.594379 187.570693 
L 261.594379 186.772277 
L 261.882946 186.772277 
L 261.882946 185.973861 
L 262.035555 185.973861 
L 262.035555 185.175446 
L 262.167124 185.175446 
L 262.167124 184.37703 
L 262.453284 184.37703 
L 262.515719 182.780198 
L 262.912513 182.780198 
L 262.934873 181.183366 
L 263.077009 181.183366 
L 263.077009 180.38495 
L 263.313264 180.38495 
L 263.323986 178.788119 
L 263.557621 178.788119 
L 263.591193 176.392871 
L 263.705681 176.392871 
L 263.705681 175.594455 
L 264.209208 175.594455 
L 264.314717 173.199208 
L 264.327302 173.199208 
L 264.327302 172.400792 
L 264.589564 172.400792 
L 264.658706 170.80396 
L 264.702031 170.80396 
L 264.702031 170.005545 
L 264.906726 170.005545 
L 264.906726 169.207129 
L 265.208951 169.207129 
L 265.208951 168.408713 
L 265.332515 168.408713 
L 265.373641 166.811881 
L 265.596922 166.811881 
L 265.635767 164.416634 
L 265.794228 164.416634 
L 265.794228 163.618218 
L 265.992884 163.618218 
L 265.992884 162.819802 
L 266.341904 162.819802 
L 266.397088 159.626139 
L 266.613356 159.626139 
L 266.693432 158.029307 
L 266.808229 158.029307 
L 266.840348 156.432475 
L 267.055918 156.432475 
L 267.055918 155.634059 
L 267.201283 155.634059 
L 267.279992 153.238812 
L 267.371713 153.238812 
L 267.454519 150.045149 
L 267.621913 150.045149 
L 267.621913 149.246733 
L 267.87827 149.246733 
L 267.87827 148.448317 
L 268.11975 148.448317 
L 268.11975 142.859406 
L 268.584828 142.859406 
L 268.618401 141.262574 
L 268.774662 141.262574 
L 268.880942 139.665743 
L 268.903728 139.665743 
L 268.903728 138.867327 
L 269.186134 138.867327 
L 269.186134 138.068911 
L 269.68511 138.068911 
L 269.690738 136.472079 
L 270.028761 136.472079 
L 270.028761 135.673663 
L 270.594412 135.673663 
L 270.594412 134.875248 
L 271.328721 134.875248 
L 271.434816 133.278416 
L 271.666198 133.278416 
L 271.666198 132.48 
L 271.784594 132.48 
L 271.784594 131.681584 
L 272.020219 131.681584 
L 272.039594 130.084752 
L 272.242612 130.084752 
L 272.344954 128.487921 
L 272.54966 128.487921 
L 272.623519 126.891089 
L 272.728727 126.891089 
L 272.728727 126.092673 
L 273.010515 126.092673 
L 273.010515 125.294257 
L 273.23067 125.294257 
L 273.23067 124.495842 
L 273.753644 124.495842 
L 273.753644 123.697426 
L 274.063355 123.697426 
L 274.159635 120.503762 
L 275.171373 120.503762 
L 275.211948 118.906931 
L 275.412865 118.906931 
L 275.412865 118.108515 
L 275.968856 118.108515 
L 276.031264 116.511683 
L 276.201926 116.511683 
L 276.201926 115.713267 
L 276.390196 115.713267 
L 276.390196 114.914851 
L 276.592289 114.914851 
L 276.592289 114.116436 
L 277.150929 114.116436 
L 277.193228 112.519604 
L 277.684313 112.519604 
L 277.684313 111.721188 
L 277.896165 111.721188 
L 277.896165 110.922772 
L 278.129239 110.922772 
L 278.217612 109.325941 
L 278.254651 109.325941 
L 278.254651 108.527525 
L 278.92914 108.527525 
L 278.975929 106.930693 
L 279.890882 106.930693 
L 279.910883 105.333861 
L 281.36551 105.333861 
L 281.36551 104.535446 
L 281.658054 104.535446 
L 281.658054 103.73703 
L 283.842614 103.73703 
L 283.842614 102.938614 
L 285.076986 102.938614 
L 285.11565 101.341782 
L 286.841086 101.341782 
L 286.841086 100.543366 
L 287.391304 100.543366 
L 287.391304 99.74495 
L 287.553195 99.74495 
L 287.553195 98.946535 
L 289.051093 98.946535 
L 289.059582 97.349703 
L 289.296809 97.349703 
L 289.296809 96.551287 
L 290.25681 96.551287 
L 290.25681 95.752871 
L 290.374994 95.752871 
L 290.374994 94.954455 
L 291.313298 94.954455 
L 291.313298 94.15604 
L 291.748996 94.15604 
L 291.837001 92.559208 
L 292.648765 92.559208 
L 292.648765 91.760792 
L 293.513497 91.760792 
L 293.513497 90.962376 
L 294.459309 90.962376 
L 294.52729 89.365545 
L 296.733519 89.365545 
L 296.733519 88.567129 
L 296.973274 88.567129 
L 296.973274 87.768713 
L 297.267209 87.768713 
L 297.267209 86.970297 
L 301.522395 86.970297 
L 301.522395 86.171881 
L 303.373203 86.171881 
L 303.373203 85.373465 
L 304.123394 85.373465 
L 304.123394 84.57505 
L 304.482252 84.57505 
L 304.482252 83.776634 
L 304.615429 83.776634 
L 304.615429 82.978218 
L 307.446036 82.978218 
L 307.446036 82.179802 
L 308.255696 82.179802 
L 308.255696 81.381386 
L 310.338766 81.381386 
L 310.3732 79.784554 
L 313.796861 79.784554 
L 313.796861 78.986139 
L 315.880101 78.986139 
L 315.880101 69.405149 
L 316.353191 69.405149 
L 316.432231 67.808317 
L 318.613627 67.808317 
L 318.613627 67.009901 
L 322.310011 67.009901 
L 322.310011 66.211485 
L 324.456091 66.211485 
L 324.456091 65.413069 
L 325.020787 65.413069 
L 325.020787 64.614653 
L 325.966607 64.614653 
L 325.966607 63.816238 
L 326.529752 63.816238 
L 326.529752 63.017822 
L 327.707306 63.017822 
L 327.707306 62.219406 
L 328.097927 62.219406 
L 328.097927 61.42099 
L 330.989685 61.42099 
L 330.989685 60.622574 
L 333.151504 60.622574 
L 333.256311 59.025743 
L 334.229293 59.025743 
L 334.229293 58.227327 
L 335.203005 58.227327 
L 335.203005 57.428911 
L 340.526063 57.428911 
L 340.526063 56.630495 
L 347.17383 56.630495 
L 347.17383 55.832079 
L 348.348728 55.832079 
L 348.348728 55.033663 
L 348.536971 55.033663 
L 348.536971 54.235248 
L 350.167969 54.235248 
L 350.167969 53.436832 
L 350.558322 53.436832 
L 350.558322 52.638416 
L 351.138119 52.638416 
L 351.138119 51.84 
L 353.958316 51.84 
L 353.958316 51.041584 
L 358.449404 51.041584 
L 358.449404 50.243168 
L 359.541573 50.243168 
L 359.541573 49.444752 
L 360.486428 49.444752 
L 360.486428 48.646337 
L 360.997136 48.646337 
L 360.997136 47.847921 
L 361.25848 47.847921 
L 361.25848 47.049505 
L 363.238244 47.049505 
L 363.238244 46.251089 
L 364.53089 46.251089 
L 364.53089 45.452673 
L 367.415256 45.452673 
L 367.415256 44.654257 
L 368.426064 44.654257 
L 368.426064 43.855842 
L 369.271213 43.855842 
L 369.271213 43.057426 
L 370.18409 43.057426 
L 370.18409 42.25901 
L 372.839953 42.25901 
L 372.839953 41.460594 
L 375.87939 41.460594 
L 375.87939 40.662178 
L 376.792093 40.662178 
L 376.792093 39.863762 
L 380.099852 39.863762 
L 380.099852 39.065347 
L 381.12071 39.065347 
L 381.12071 38.266931 
L 384.406368 38.266931 
L 384.406368 37.468515 
L 387.347242 37.468515 
L 387.347242 36.670099 
L 387.477293 36.670099 
L 387.477293 35.871683 
L 389.06242 35.871683 
L 389.06242 35.073267 
L 389.440846 35.073267 
L 389.440846 34.274851 
L 391.069035 34.274851 
L 391.069035 33.476436 
L 391.975136 33.476436 
L 391.975136 32.67802 
L 392.354462 32.67802 
L 392.450263 31.081188 
L 392.518605 31.081188 
L 392.518605 30.282772 
L 392.754872 30.282772 
L 392.754872 29.484356 
L 393.516465 29.484356 
L 393.516465 28.685941 
L 393.819849 28.685941 
L 393.91287 27.089109 
L 394.508993 27.089109 
L 394.508993 26.290693 
L 394.832083 26.290693 
L 394.832083 25.492277 
L 396.344873 25.492277 
L 396.431093 23.895446 
L 397.016209 23.895446 
L 397.016209 23.09703 
L 399.939943 23.09703 
L 399.939943 22.298614 
L 401.133896 22.298614 
L 401.133896 21.500198 
L 402.169169 21.500198 
L 402.169169 20.701782 
L 403.273602 20.701782 
L 403.273602 19.903366 
L 403.431873 19.903366 
L 403.431873 19.10495 
L 404.903996 19.10495 
L 404.903996 18.306535 
L 405.172153 18.306535 
L 405.172153 17.508119 
L 407.104919 17.508119 
L 407.104919 16.709703 
L 408.437541 16.709703 
L 408.437541 15.911287 
L 410.000631 15.911287 
L 410.000631 15.112871 
L 410.446438 15.112871 
L 410.446438 14.314455 
L 412.063825 14.314455 
L 412.063825 13.51604 
L 414.703707 13.51604 
L 414.703707 12.717624 
L 415.855183 12.717624 
L 415.855183 11.919208 
L 419.904078 11.919208 
L 419.904078 11.120792 
L 424.60202 11.120792 
L 424.60202 10.322376 
L 427.217207 10.322376 
L 427.217207 9.52396 
L 427.521545 9.52396 
L 427.521545 8.725545 
L 427.84785 8.725545 
L 427.84785 7.927129 
L 428.415932 7.927129 
L 428.415932 7.128713 
L 433.41836 7.128713 
L 433.41836 6.330297 
L 433.41836 6.330297 
L 460.8 6.330297 
L 460.8 6.330297 
" clip-path="url(#p8d5af0b30c)" style="fill: none; stroke: #00bfbf; stroke-width: 1.5; stroke-linecap: square"/>
   </g>
   <g id="line2d_23">
    <path d="M 197.69391 293.76 
L 197.69391 281.783762 
L 227.22629 281.783762 
L 227.22629 280.985347 
L 229.480866 280.985347 
L 229.480866 280.186931 
L 230.80805 280.186931 
L 230.80805 279.388515 
L 231.568677 279.388515 
L 231.568677 278.590099 
L 231.830366 278.590099 
L 231.830366 277.791683 
L 232.195626 277.791683 
L 232.299903 275.396436 
L 232.383516 275.396436 
L 232.383516 274.59802 
L 232.509718 274.59802 
L 232.578912 272.202772 
L 233.179434 272.202772 
L 233.179434 271.404356 
L 233.630381 271.404356 
L 233.630381 270.605941 
L 234.972776 270.605941 
L 234.972776 269.807525 
L 235.631718 269.807525 
L 235.631718 269.009109 
L 237.317933 269.009109 
L 237.317933 268.210693 
L 237.872008 268.210693 
L 237.872008 267.412277 
L 238.191659 267.412277 
L 238.191659 266.613861 
L 238.33801 266.613861 
L 238.397264 265.01703 
L 238.766431 265.01703 
L 238.766431 264.218614 
L 239.260128 264.218614 
L 239.260128 263.420198 
L 239.625534 263.420198 
L 239.625534 262.621782 
L 239.978328 262.621782 
L 239.978328 261.823366 
L 240.146975 261.823366 
L 240.146975 261.02495 
L 240.483319 261.02495 
L 240.537773 258.629703 
L 241.026463 258.629703 
L 241.125775 256.234455 
L 241.355311 256.234455 
L 241.355311 255.43604 
L 241.695661 255.43604 
L 241.695661 254.637624 
L 241.871546 254.637624 
L 241.910375 253.040792 
L 242.319485 253.040792 
L 242.39337 251.44396 
L 242.694133 251.44396 
L 242.694133 250.645545 
L 242.856193 250.645545 
L 242.856193 249.847129 
L 243.028191 249.847129 
L 243.028191 249.048713 
L 243.180227 249.048713 
L 243.180227 248.250297 
L 243.343622 248.250297 
L 243.343622 247.451881 
L 243.493147 247.451881 
L 243.493147 246.653465 
L 243.658198 246.653465 
L 243.718366 245.056634 
L 244.176482 245.056634 
L 244.176482 244.258218 
L 244.409032 244.258218 
L 244.409032 243.459802 
L 244.83135 243.459802 
L 244.83135 242.661386 
L 245.086992 242.661386 
L 245.086992 241.86297 
L 246.343064 241.86297 
L 246.423305 239.467723 
L 246.775155 239.467723 
L 246.775155 238.669307 
L 247.995706 238.669307 
L 247.995706 237.870891 
L 248.66778 237.870891 
L 248.66778 237.072475 
L 248.851617 237.072475 
L 248.851617 236.274059 
L 249.038732 236.274059 
L 249.038732 235.475644 
L 249.176572 235.475644 
L 249.236295 233.080396 
L 249.688986 233.080396 
L 249.766047 231.483564 
L 250.005727 231.483564 
L 250.072483 229.886733 
L 250.209071 229.886733 
L 250.209071 229.088317 
L 250.407287 229.088317 
L 250.407287 228.289901 
L 250.677312 228.289901 
L 250.677312 227.491485 
L 250.802629 227.491485 
L 250.802629 226.693069 
L 251.265377 226.693069 
L 251.300133 225.096238 
L 251.604179 225.096238 
L 251.604179 213.12 
L 252.234208 213.12 
L 252.234208 212.321584 
L 252.770845 212.321584 
L 252.770845 211.523168 
L 252.89221 211.523168 
L 252.995549 209.127921 
L 253.086787 209.127921 
L 253.086787 208.329505 
L 253.198711 208.329505 
L 253.290876 205.934257 
L 253.569454 205.934257 
L 253.620777 204.337426 
L 253.859019 204.337426 
L 253.859019 203.53901 
L 254.379514 203.53901 
L 254.379514 202.740594 
L 254.61824 202.740594 
L 254.67744 201.143762 
L 254.826956 201.143762 
L 254.826956 200.345347 
L 254.991541 200.345347 
L 254.99607 198.748515 
L 255.262797 198.748515 
L 255.262797 197.950099 
L 255.661618 197.950099 
L 255.661618 197.151683 
L 255.843317 197.151683 
L 255.855119 195.554851 
L 256.254595 195.554851 
L 256.254595 194.756436 
L 256.3855 194.756436 
L 256.387235 193.159604 
L 256.499867 193.159604 
L 256.499867 192.361188 
L 256.79605 192.361188 
L 256.808939 190.764356 
L 256.918206 190.764356 
L 256.918206 189.965941 
L 257.24528 189.965941 
L 257.329056 186.772277 
L 257.584276 186.772277 
L 257.653778 185.175446 
L 257.795284 185.175446 
L 257.869976 183.578614 
L 258.1083 183.578614 
L 258.181863 181.981782 
L 258.292589 181.981782 
L 258.292589 181.183366 
L 258.405623 181.183366 
L 258.405623 180.38495 
L 258.727353 180.38495 
L 258.727353 179.586535 
L 258.964491 179.586535 
L 258.964491 178.788119 
L 259.269645 178.788119 
L 259.269645 177.989703 
L 259.400976 177.989703 
L 259.400976 177.191287 
L 259.559564 177.191287 
L 259.559564 176.392871 
L 259.856648 176.392871 
L 259.856648 175.594455 
L 260.015744 175.594455 
L 260.015744 174.79604 
L 260.414117 174.79604 
L 260.466241 173.199208 
L 260.564837 173.199208 
L 260.6045 171.602376 
L 260.717871 171.602376 
L 260.717871 170.80396 
L 260.861952 170.80396 
L 260.861952 170.005545 
L 260.974418 170.005545 
L 261.051016 168.408713 
L 261.094353 168.408713 
L 261.159677 166.811881 
L 261.594379 166.811881 
L 261.594379 166.013465 
L 261.736011 166.013465 
L 261.736011 165.21505 
L 261.878768 165.21505 
L 261.878768 164.416634 
L 262.035555 164.416634 
L 262.035555 163.618218 
L 262.167124 163.618218 
L 262.249249 162.021386 
L 262.742537 162.021386 
L 262.831518 159.626139 
L 262.912513 159.626139 
L 262.912513 158.827723 
L 263.030239 158.827723 
L 263.030239 158.029307 
L 263.149424 158.029307 
L 263.247263 156.432475 
L 263.317141 156.432475 
L 263.366666 154.835644 
L 263.466127 154.835644 
L 263.557621 152.440396 
L 263.777647 152.440396 
L 263.79988 150.843564 
L 263.924134 150.843564 
L 263.924134 150.045149 
L 264.209208 150.045149 
L 264.209208 149.246733 
L 264.589564 149.246733 
L 264.632101 146.851485 
L 264.702031 146.851485 
L 264.765285 145.254653 
L 265.208951 145.254653 
L 265.208951 144.456238 
L 265.332515 144.456238 
L 265.332515 143.657822 
L 265.584882 143.657822 
L 265.584882 142.859406 
L 265.796625 142.859406 
L 265.796625 142.06099 
L 265.958061 142.06099 
L 265.958061 141.262574 
L 266.125847 141.262574 
L 266.125847 140.464158 
L 266.362922 140.464158 
L 266.362922 138.867327 
L 266.613356 138.867327 
L 266.693432 137.270495 
L 266.856091 137.270495 
L 266.860333 135.673663 
L 267.279992 135.673663 
L 267.279992 134.875248 
L 267.425167 134.875248 
L 267.487994 133.278416 
L 267.621913 133.278416 
L 267.621913 132.48 
L 267.919454 132.48 
L 267.919454 131.681584 
L 268.105367 131.681584 
L 268.11975 129.286337 
L 268.330676 129.286337 
L 268.330676 128.487921 
L 268.563912 128.487921 
L 268.597179 126.891089 
L 268.824746 126.891089 
L 268.903728 125.294257 
L 269.242351 125.294257 
L 269.242351 124.495842 
L 269.4462 124.495842 
L 269.485449 122.89901 
L 269.617046 122.89901 
L 269.690738 121.302178 
L 269.891408 121.302178 
L 270.000202 119.705347 
L 270.028761 119.705347 
L 270.028761 118.906931 
L 270.44158 118.906931 
L 270.533255 117.310099 
L 270.580812 117.310099 
L 270.580812 116.511683 
L 271.328721 116.511683 
L 271.434816 114.914851 
L 271.784594 114.914851 
L 271.784594 114.116436 
L 272.242612 114.116436 
L 272.242612 113.31802 
L 272.462617 113.31802 
L 272.55617 111.721188 
L 272.623519 111.721188 
L 272.623519 110.922772 
L 272.863553 110.922772 
L 272.945267 108.527525 
L 273.23067 108.527525 
L 273.23067 107.729109 
L 273.462991 107.729109 
L 273.462991 106.930693 
L 273.753644 106.930693 
L 273.753644 106.132277 
L 274.063355 106.132277 
L 274.129946 104.535446 
L 274.939011 104.535446 
L 274.999163 102.938614 
L 275.45857 102.938614 
L 275.45857 102.140198 
L 275.968856 102.140198 
L 275.968856 101.341782 
L 276.201926 101.341782 
L 276.201926 100.543366 
L 276.390196 100.543366 
L 276.390196 99.74495 
L 276.987093 99.74495 
L 277.015548 98.148119 
L 277.1063 98.148119 
L 277.1063 97.349703 
L 279.805844 97.349703 
L 279.805844 96.551287 
L 282.105533 96.551287 
L 282.105533 95.752871 
L 283.245261 95.752871 
L 283.245261 94.954455 
L 285.11565 94.954455 
L 285.125 93.357624 
L 286.153792 93.357624 
L 286.153792 92.559208 
L 287.391304 92.559208 
L 287.391304 91.760792 
L 287.553195 91.760792 
L 287.553195 90.962376 
L 289.059582 90.962376 
L 289.059582 90.16396 
L 289.296809 90.16396 
L 289.296809 89.365545 
L 289.422719 89.365545 
L 289.502564 87.768713 
L 289.542019 87.768713 
L 289.542019 86.970297 
L 290.954134 86.970297 
L 290.954134 86.171881 
L 291.32177 86.171881 
L 291.32177 85.373465 
L 291.474689 85.373465 
L 291.474689 84.57505 
L 291.748996 84.57505 
L 291.748996 83.776634 
L 292.648765 83.776634 
L 292.648765 82.978218 
L 294.299247 82.978218 
L 294.299247 82.179802 
L 294.459309 82.179802 
L 294.459309 81.381386 
L 296.182637 81.381386 
L 296.182637 80.58297 
L 296.394961 80.58297 
L 296.394961 79.784554 
L 296.674929 79.784554 
L 296.674929 78.986139 
L 296.973274 78.986139 
L 296.973274 78.187723 
L 297.267209 78.187723 
L 297.267209 77.389307 
L 300.156782 77.389307 
L 300.156782 76.590891 
L 300.82984 76.590891 
L 300.82984 75.792475 
L 303.373203 75.792475 
L 303.373203 74.994059 
L 304.123394 74.994059 
L 304.123394 74.195644 
L 304.482252 74.195644 
L 304.482252 73.397228 
L 304.615429 73.397228 
L 304.615429 72.598812 
L 307.513881 72.598812 
L 307.513881 71.800396 
L 309.260171 71.800396 
L 309.260171 71.00198 
L 310.338766 71.00198 
L 310.3732 69.405149 
L 311.941815 69.405149 
L 311.941815 68.606733 
L 313.796861 68.606733 
L 313.796861 67.808317 
L 315.880101 67.808317 
L 315.880101 65.413069 
L 318.613627 65.413069 
L 318.613627 64.614653 
L 320.156262 64.614653 
L 320.156262 63.816238 
L 322.094169 63.816238 
L 322.094169 63.017822 
L 324.456091 63.017822 
L 324.456091 62.219406 
L 324.866403 62.219406 
L 324.866403 61.42099 
L 325.020787 61.42099 
L 325.020787 60.622574 
L 325.966607 60.622574 
L 325.966607 59.824158 
L 326.529752 59.824158 
L 326.529752 59.025743 
L 328.097927 59.025743 
L 328.097927 58.227327 
L 329.933552 58.227327 
L 329.933552 57.428911 
L 333.151504 57.428911 
L 333.151504 56.630495 
L 334.229293 56.630495 
L 334.229293 55.832079 
L 335.271327 55.832079 
L 335.271327 55.033663 
L 341.03743 55.033663 
L 341.03743 54.235248 
L 341.206762 54.235248 
L 341.206762 53.436832 
L 341.857254 53.436832 
L 341.952182 51.041584 
L 342.1483 51.041584 
L 342.1483 50.243168 
L 346.344666 50.243168 
L 346.351691 48.646337 
L 347.751386 48.646337 
L 347.751386 47.847921 
L 348.112528 47.847921 
L 348.112528 47.049505 
L 348.348728 47.049505 
L 348.348728 46.251089 
L 350.167969 46.251089 
L 350.272427 44.654257 
L 353.958316 44.654257 
L 353.958316 43.855842 
L 359.541573 43.855842 
L 359.541573 43.057426 
L 361.093319 43.057426 
L 361.093319 42.25901 
L 361.25848 42.25901 
L 361.25848 41.460594 
L 363.150891 41.460594 
L 363.238244 39.863762 
L 367.745304 39.863762 
L 367.745304 39.065347 
L 368.157513 39.065347 
L 368.157513 38.266931 
L 368.869291 38.266931 
L 368.869291 37.468515 
L 371.428519 37.468515 
L 371.428519 36.670099 
L 373.053843 36.670099 
L 373.053843 35.871683 
L 374.679691 35.871683 
L 374.679691 35.073267 
L 374.944464 35.073267 
L 374.944464 34.274851 
L 375.247967 34.274851 
L 375.247967 33.476436 
L 375.87939 33.476436 
L 375.87939 32.67802 
L 376.792093 32.67802 
L 376.792093 31.879604 
L 376.961378 31.879604 
L 376.961378 31.081188 
L 380.789113 31.081188 
L 380.789113 30.282772 
L 380.926565 30.282772 
L 380.926565 29.484356 
L 382.576324 29.484356 
L 382.576324 28.685941 
L 384.262881 28.685941 
L 384.274555 27.089109 
L 386.81387 27.089109 
L 386.81387 26.290693 
L 389.06242 26.290693 
L 389.06242 25.492277 
L 390.305606 25.492277 
L 390.305606 24.693861 
L 390.749895 24.693861 
L 390.749895 23.895446 
L 391.975136 23.895446 
L 391.975136 23.09703 
L 394.277603 23.09703 
L 394.277603 22.298614 
L 394.508993 22.298614 
L 394.508993 21.500198 
L 394.832083 21.500198 
L 394.832083 20.701782 
L 396.232505 20.701782 
L 396.232505 19.903366 
L 399.44014 19.903366 
L 399.44014 19.10495 
L 399.972043 19.10495 
L 399.972043 18.306535 
L 400.14185 18.306535 
L 400.14185 17.508119 
L 401.133896 17.508119 
L 401.133896 16.709703 
L 401.67318 16.709703 
L 401.67318 15.911287 
L 403.231167 15.911287 
L 403.231167 15.112871 
L 405.172153 15.112871 
L 405.172153 14.314455 
L 407.925895 14.314455 
L 407.925895 13.51604 
L 408.437541 13.51604 
L 408.437541 12.717624 
L 409.715777 12.717624 
L 409.715777 11.919208 
L 410.000631 11.919208 
L 410.000631 11.120792 
L 413.524342 11.120792 
L 413.524342 10.322376 
L 417.949722 10.322376 
L 417.949722 9.52396 
L 419.904078 9.52396 
L 419.904078 8.725545 
L 422.286535 8.725545 
L 422.286535 7.927129 
L 427.217207 7.927129 
L 427.217207 7.128713 
L 427.521545 7.128713 
L 427.521545 6.330297 
L 427.521545 6.330297 
L 460.8 6.330297 
L 460.8 6.330297 
" clip-path="url(#p8d5af0b30c)" style="fill: none; stroke: #bf00bf; stroke-width: 1.5; stroke-linecap: square"/>
   </g>
   <g id="line2d_24">
    <path d="M 191.954903 293.76 
L 191.954903 292.961584 
L 197.69391 292.961584 
L 197.69391 281.783762 
L 203.135038 281.783762 
L 203.135038 280.985347 
L 221.920504 280.985347 
L 221.920504 280.186931 
L 224.455899 280.186931 
L 224.455899 279.388515 
L 225.25049 279.388515 
L 225.25049 278.590099 
L 226.304733 278.590099 
L 226.304733 277.791683 
L 226.558801 277.791683 
L 226.558801 276.993267 
L 226.877528 276.993267 
L 226.877528 276.194851 
L 227.163656 276.194851 
L 227.22629 274.59802 
L 227.407101 274.59802 
L 227.407101 273.799604 
L 227.747677 273.799604 
L 227.747677 273.001188 
L 228.72434 273.001188 
L 228.792444 271.404356 
L 230.632243 271.404356 
L 230.632243 270.605941 
L 230.80805 270.605941 
L 230.80805 269.807525 
L 230.945536 269.807525 
L 230.945536 269.009109 
L 231.322299 269.009109 
L 231.339681 267.412277 
L 231.489745 267.412277 
L 231.592856 265.01703 
L 231.761613 265.01703 
L 231.761613 264.218614 
L 232.223651 264.218614 
L 232.223651 263.420198 
L 232.383516 263.420198 
L 232.486482 261.823366 
L 232.518927 261.823366 
L 232.529216 260.226535 
L 232.75264 260.226535 
L 232.83189 258.629703 
L 232.904115 258.629703 
L 232.904115 257.831287 
L 233.067862 257.831287 
L 233.11513 256.234455 
L 233.179434 256.234455 
L 233.179434 255.43604 
L 233.580247 255.43604 
L 233.580247 254.637624 
L 234.25851 254.637624 
L 234.333815 253.040792 
L 234.587349 253.040792 
L 234.587349 252.242376 
L 235.025169 252.242376 
L 235.025169 251.44396 
L 236.237709 251.44396 
L 236.237709 250.645545 
L 237.215341 250.645545 
L 237.317933 249.048713 
L 237.453345 249.048713 
L 237.506434 247.451881 
L 237.96002 247.451881 
L 237.96002 246.653465 
L 238.33801 246.653465 
L 238.397264 245.056634 
L 238.988697 245.056634 
L 239.027039 243.459802 
L 239.260128 243.459802 
L 239.343217 241.86297 
L 239.625534 241.86297 
L 239.625534 241.064554 
L 239.775995 241.064554 
L 239.775995 240.266139 
L 239.978328 240.266139 
L 240.029016 238.669307 
L 240.090962 238.669307 
L 240.146975 236.274059 
L 240.537773 236.274059 
L 240.537773 235.475644 
L 241.026463 235.475644 
L 241.026463 234.677228 
L 241.15691 234.677228 
L 241.15691 233.878812 
L 241.577402 233.878812 
L 241.577402 233.080396 
L 242.39337 233.080396 
L 242.39337 232.28198 
L 242.529132 232.28198 
L 242.529132 231.483564 
L 243.116296 231.483564 
L 243.116296 230.685149 
L 243.285387 230.685149 
L 243.375969 229.088317 
L 243.658198 229.088317 
L 243.658198 228.289901 
L 244.465506 228.289901 
L 244.49782 225.894653 
L 244.908454 225.894653 
L 244.908454 225.096238 
L 246.760383 225.096238 
L 246.760383 224.297822 
L 247.171726 224.297822 
L 247.184755 222.70099 
L 248.033476 222.70099 
L 248.033476 221.902574 
L 248.23271 221.902574 
L 248.23271 221.104158 
L 248.450239 221.104158 
L 248.540063 219.507327 
L 248.598409 219.507327 
L 248.598409 218.708911 
L 248.851617 218.708911 
L 248.851617 217.910495 
L 249.176572 217.910495 
L 249.236295 215.515248 
L 249.688986 215.515248 
L 249.766047 213.918416 
L 250.004264 213.918416 
L 250.072483 211.523168 
L 250.140744 211.523168 
L 250.140744 210.724752 
L 250.257359 210.724752 
L 250.257359 209.926337 
L 250.387454 209.926337 
L 250.387454 209.127921 
L 250.802629 209.127921 
L 250.804956 207.531089 
L 251.036969 207.531089 
L 251.081767 205.934257 
L 251.189499 205.934257 
L 251.284222 203.53901 
L 251.498316 203.53901 
L 251.604179 190.764356 
L 251.727736 190.764356 
L 251.727736 189.965941 
L 252.140305 189.965941 
L 252.234208 188.369109 
L 252.331295 188.369109 
L 252.331295 187.570693 
L 252.900092 187.570693 
L 252.995549 185.175446 
L 253.302072 185.175446 
L 253.388363 183.578614 
L 253.620777 183.578614 
L 253.726396 181.981782 
L 253.908308 181.981782 
L 253.908308 181.183366 
L 254.196386 181.183366 
L 254.196386 180.38495 
L 254.377866 180.38495 
L 254.379514 178.788119 
L 254.55044 178.788119 
L 254.55044 177.989703 
L 254.826956 177.989703 
L 254.864178 176.392871 
L 254.959993 176.392871 
L 254.959993 175.594455 
L 255.441131 175.594455 
L 255.443256 173.997624 
L 255.661618 173.997624 
L 255.664412 172.400792 
L 255.843317 172.400792 
L 255.843317 171.602376 
L 255.992426 171.602376 
L 255.992426 170.80396 
L 256.597449 170.80396 
L 256.597449 170.005545 
L 256.755408 170.005545 
L 256.755408 169.207129 
L 257.257443 169.207129 
L 257.365068 166.013465 
L 257.524907 166.013465 
L 257.584276 164.416634 
L 257.869976 164.416634 
L 257.869976 163.618218 
L 258.077395 163.618218 
L 258.171367 160.424554 
L 258.280561 160.424554 
L 258.338332 157.230891 
L 258.405623 157.230891 
L 258.48698 155.634059 
L 258.53422 155.634059 
L 258.53422 154.835644 
L 258.841899 154.835644 
L 258.910003 153.238812 
L 258.95655 153.238812 
L 259.059927 151.64198 
L 259.269645 151.64198 
L 259.308507 150.045149 
L 259.50445 150.045149 
L 259.50445 149.246733 
L 260.148199 149.246733 
L 260.148199 148.448317 
L 260.306082 148.448317 
L 260.306082 147.649901 
L 260.717871 147.649901 
L 260.798841 146.053069 
L 260.996268 146.053069 
L 260.996268 145.254653 
L 261.159677 145.254653 
L 261.203939 142.859406 
L 261.553029 142.859406 
L 261.553029 142.06099 
L 261.765935 142.06099 
L 261.765935 141.262574 
L 261.931166 141.262574 
L 262.018969 138.867327 
L 262.167124 138.867327 
L 262.167354 137.270495 
L 262.294757 137.270495 
L 262.294757 136.472079 
L 262.505236 136.472079 
L 262.505236 135.673663 
L 262.664865 135.673663 
L 262.742537 134.076832 
L 262.788317 134.076832 
L 262.788317 133.278416 
L 262.986544 133.278416 
L 263.084324 130.883168 
L 263.317141 130.883168 
L 263.317141 130.084752 
L 263.557621 130.084752 
L 263.602619 127.689505 
L 264.002531 127.689505 
L 264.002531 126.891089 
L 264.209208 126.891089 
L 264.209208 126.092673 
L 264.389836 126.092673 
L 264.45247 124.495842 
L 264.619415 124.495842 
L 264.69081 122.100594 
L 264.765285 122.100594 
L 264.765285 121.302178 
L 264.888644 121.302178 
L 264.903373 119.705347 
L 265.015713 119.705347 
L 265.041348 118.108515 
L 265.208951 118.108515 
L 265.208951 117.310099 
L 265.3262 117.310099 
L 265.3262 116.511683 
L 265.928725 116.511683 
L 265.942978 114.914851 
L 266.356545 114.914851 
L 266.362922 112.519604 
L 266.901519 112.519604 
L 266.901519 111.721188 
L 267.275849 111.721188 
L 267.275849 110.922772 
L 267.487994 110.922772 
L 267.487994 110.124356 
L 267.621913 110.124356 
L 267.621913 109.325941 
L 267.919454 109.325941 
L 267.919454 108.527525 
L 268.330676 108.527525 
L 268.330676 107.729109 
L 268.467872 107.729109 
L 268.467872 106.930693 
L 268.597179 106.930693 
L 268.686044 104.535446 
L 268.903728 104.535446 
L 268.903728 103.73703 
L 269.174005 103.73703 
L 269.242351 102.140198 
L 269.350359 102.140198 
L 269.4462 98.946535 
L 269.485449 98.946535 
L 269.485449 98.148119 
L 269.850893 98.148119 
L 269.850893 97.349703 
L 270.214216 97.349703 
L 270.214216 96.551287 
L 270.455318 96.551287 
L 270.455318 95.752871 
L 271.026378 95.752871 
L 271.067342 94.15604 
L 271.693093 94.15604 
L 271.693093 93.357624 
L 271.876724 93.357624 
L 271.876724 92.559208 
L 272.120957 92.559208 
L 272.120957 91.760792 
L 272.55617 91.760792 
L 272.55617 90.962376 
L 273.423194 90.962376 
L 273.423194 90.16396 
L 273.574849 90.16396 
L 273.574849 89.365545 
L 274.254226 89.365545 
L 274.353941 87.768713 
L 279.24034 87.768713 
L 279.24034 86.970297 
L 279.805844 86.970297 
L 279.805844 86.171881 
L 280.2626 86.171881 
L 280.2626 85.373465 
L 280.40342 85.373465 
L 280.40342 84.57505 
L 281.343208 84.57505 
L 281.358866 82.978218 
L 281.539465 82.978218 
L 281.539465 82.179802 
L 281.670348 82.179802 
L 281.670348 81.381386 
L 281.791769 81.381386 
L 281.791769 80.58297 
L 282.128126 80.58297 
L 282.180944 78.986139 
L 282.95882 78.986139 
L 282.95882 78.187723 
L 283.245261 78.187723 
L 283.245261 77.389307 
L 284.466109 77.389307 
L 284.466109 76.590891 
L 284.713296 76.590891 
L 284.713296 75.792475 
L 285.125 75.792475 
L 285.125 74.994059 
L 285.585097 74.994059 
L 285.585097 74.195644 
L 287.29107 74.195644 
L 287.29107 73.397228 
L 287.585914 73.397228 
L 287.585914 72.598812 
L 288.190343 72.598812 
L 288.190343 71.800396 
L 288.309985 71.800396 
L 288.309985 71.00198 
L 289.502564 71.00198 
L 289.502564 70.203564 
L 290.944379 70.203564 
L 290.944379 69.405149 
L 291.474689 69.405149 
L 291.474689 68.606733 
L 291.748996 68.606733 
L 291.748996 67.808317 
L 292.23424 67.808317 
L 292.23424 67.009901 
L 292.976484 67.009901 
L 292.976484 66.211485 
L 293.612329 66.211485 
L 293.612329 65.413069 
L 294.299247 65.413069 
L 294.299247 64.614653 
L 295.239349 64.614653 
L 295.239349 63.816238 
L 295.599549 63.816238 
L 295.599549 63.017822 
L 296.784168 63.017822 
L 296.784168 62.219406 
L 298.834821 62.219406 
L 298.834821 61.42099 
L 299.06124 61.42099 
L 299.06124 60.622574 
L 299.790285 60.622574 
L 299.790285 59.824158 
L 303.373203 59.824158 
L 303.373203 59.025743 
L 305.329964 59.025743 
L 305.392393 57.428911 
L 306.820189 57.428911 
L 306.820189 56.630495 
L 307.012499 56.630495 
L 307.012499 55.832079 
L 310.380609 55.832079 
L 310.380609 55.033663 
L 312.319392 55.033663 
L 312.319392 54.235248 
L 313.802254 54.235248 
L 313.802254 53.436832 
L 315.770703 53.436832 
L 315.770703 52.638416 
L 316.177883 52.638416 
L 316.177883 51.84 
L 316.84461 51.84 
L 316.84461 51.041584 
L 324.456091 51.041584 
L 324.456091 50.243168 
L 325.966607 50.243168 
L 325.966607 49.444752 
L 329.817349 49.444752 
L 329.817349 48.646337 
L 330.49232 48.646337 
L 330.49232 47.847921 
L 330.900755 47.847921 
L 330.900755 47.049505 
L 333.151504 47.049505 
L 333.151504 46.251089 
L 334.990186 46.251089 
L 334.990186 45.452673 
L 340.09264 45.452673 
L 340.09264 44.654257 
L 341.490763 44.654257 
L 341.490763 43.855842 
L 341.857254 43.855842 
L 341.952182 42.25901 
L 342.648366 42.25901 
L 342.708008 40.662178 
L 345.727337 40.662178 
L 345.727337 39.863762 
L 346.344666 39.863762 
L 346.344666 39.065347 
L 347.374222 39.065347 
L 347.374222 38.266931 
L 347.979619 38.266931 
L 347.979619 37.468515 
L 348.295198 37.468515 
L 348.295198 36.670099 
L 350.272427 36.670099 
L 350.272427 35.871683 
L 351.526576 35.871683 
L 351.526576 35.073267 
L 353.829649 35.073267 
L 353.829649 34.274851 
L 354.699742 34.274851 
L 354.699742 33.476436 
L 356.304157 33.476436 
L 356.304157 32.67802 
L 356.916475 32.67802 
L 356.916475 31.879604 
L 357.427181 31.879604 
L 357.427181 31.081188 
L 357.821158 31.081188 
L 357.821158 30.282772 
L 358.71182 30.282772 
L 358.71182 29.484356 
L 359.541573 29.484356 
L 359.541573 28.685941 
L 360.714059 28.685941 
L 360.714059 27.887525 
L 361.25848 27.887525 
L 361.25848 27.089109 
L 362.715757 27.089109 
L 362.715757 26.290693 
L 363.238244 26.290693 
L 363.238244 25.492277 
L 363.464148 25.492277 
L 363.472119 23.895446 
L 363.583992 23.895446 
L 363.583992 23.09703 
L 365.470994 23.09703 
L 365.470994 22.298614 
L 366.722093 22.298614 
L 366.722093 21.500198 
L 371.114383 21.500198 
L 371.114383 20.701782 
L 373.292154 20.701782 
L 373.292154 19.903366 
L 376.153754 19.903366 
L 376.153754 19.10495 
L 383.594207 19.10495 
L 383.594207 18.306535 
L 389.226569 18.306535 
L 389.226569 17.508119 
L 391.257719 17.508119 
L 391.257719 16.709703 
L 392.296606 16.709703 
L 392.296606 15.911287 
L 395.666462 15.911287 
L 395.666462 15.112871 
L 396.783096 15.112871 
L 396.783096 14.314455 
L 398.240919 14.314455 
L 398.240919 13.51604 
L 400.964357 13.51604 
L 400.964357 12.717624 
L 405.172153 12.717624 
L 405.268049 11.120792 
L 405.860452 11.120792 
L 405.860452 10.322376 
L 406.012532 10.322376 
L 406.012532 9.52396 
L 407.925895 9.52396 
L 407.925895 8.725545 
L 409.836388 8.725545 
L 409.836388 7.927129 
L 413.524342 7.927129 
L 413.524342 7.128713 
L 418.196858 7.128713 
L 418.196858 6.330297 
L 418.196858 6.330297 
L 460.8 6.330297 
L 460.8 6.330297 
" clip-path="url(#p8d5af0b30c)" style="fill: none; stroke: #000000; stroke-width: 1.5; stroke-linecap: square"/>
   </g>
   <g id="line2d_25">
    <path d="M -0.115537 293.76 
L -0.115537 290.566337 
L 191.954903 290.566337 
L 191.954903 289.767921 
L 197.69391 289.767921 
L 197.69391 278.590099 
L 203.135038 278.590099 
L 203.135038 277.791683 
L 207.054042 277.791683 
L 207.054042 276.993267 
L 208.445837 276.993267 
L 208.445837 276.194851 
L 211.14888 276.194851 
L 211.14888 275.396436 
L 213.230547 275.396436 
L 213.230547 274.59802 
L 213.725509 274.59802 
L 213.725509 273.799604 
L 213.841647 273.799604 
L 213.841647 273.001188 
L 214.15364 273.001188 
L 214.15364 272.202772 
L 214.611513 272.202772 
L 214.611513 271.404356 
L 214.898363 271.404356 
L 214.898363 270.605941 
L 215.445871 270.605941 
L 215.445871 269.807525 
L 216.855118 269.807525 
L 216.855118 269.009109 
L 217.983677 269.009109 
L 217.983677 268.210693 
L 219.904522 268.210693 
L 219.904522 267.412277 
L 220.276014 267.412277 
L 220.308395 265.815446 
L 220.572918 265.815446 
L 220.572918 265.01703 
L 221.546614 265.01703 
L 221.546614 264.218614 
L 221.920504 264.218614 
L 221.920504 263.420198 
L 222.17806 263.420198 
L 222.17806 262.621782 
L 222.522775 262.621782 
L 222.522775 261.823366 
L 222.652751 261.823366 
L 222.652751 261.02495 
L 222.90752 261.02495 
L 223.000489 259.428119 
L 223.332765 259.428119 
L 223.345792 257.831287 
L 223.796256 257.831287 
L 223.796256 257.032871 
L 223.956461 257.032871 
L 223.956461 256.234455 
L 224.455899 256.234455 
L 224.455899 255.43604 
L 225.118806 255.43604 
L 225.118806 254.637624 
L 225.256914 254.637624 
L 225.262375 252.242376 
L 225.924927 252.242376 
L 225.924927 251.44396 
L 226.158177 251.44396 
L 226.158177 250.645545 
L 226.807252 250.645545 
L 226.880155 248.250297 
L 227.001645 248.250297 
L 227.001645 247.451881 
L 227.146163 247.451881 
L 227.163656 245.85505 
L 227.281729 245.85505 
L 227.281729 245.056634 
L 227.407101 245.056634 
L 227.515392 242.661386 
L 227.747677 242.661386 
L 227.814494 241.064554 
L 227.863401 241.064554 
L 227.863401 240.266139 
L 228.057609 240.266139 
L 228.057609 239.467723 
L 228.345834 239.467723 
L 228.433372 237.870891 
L 228.72434 237.870891 
L 228.792444 235.475644 
L 229.448294 235.475644 
L 229.448294 234.677228 
L 230.048443 234.677228 
L 230.048443 233.878812 
L 230.38305 233.878812 
L 230.38305 233.080396 
L 230.560882 233.080396 
L 230.632243 231.483564 
L 230.703202 231.483564 
L 230.745282 229.886733 
L 231.152698 229.886733 
L 231.165874 228.289901 
L 231.279944 228.289901 
L 231.342418 225.096238 
L 231.537684 225.096238 
L 231.568677 223.499406 
L 231.866751 223.499406 
L 231.866751 222.70099 
L 232.130873 222.70099 
L 232.240298 219.507327 
L 232.599169 219.507327 
L 232.599169 218.708911 
L 232.83189 218.708911 
L 232.83189 217.910495 
L 233.78704 217.910495 
L 233.833735 216.313663 
L 234.448366 216.313663 
L 234.509736 214.716832 
L 235.025169 214.716832 
L 235.046541 213.12 
L 235.552416 213.12 
L 235.625115 211.523168 
L 236.058553 211.523168 
L 236.058553 210.724752 
L 236.739484 210.724752 
L 236.739484 209.926337 
L 237.166699 209.926337 
L 237.166699 209.127921 
L 237.387245 209.127921 
L 237.453345 207.531089 
L 237.81791 207.531089 
L 237.81791 206.732673 
L 238.430812 206.732673 
L 238.52036 205.135842 
L 238.601626 205.135842 
L 238.601626 204.337426 
L 239.040289 204.337426 
L 239.082442 202.740594 
L 239.264389 202.740594 
L 239.264389 201.942178 
L 239.625534 201.942178 
L 239.670033 200.345347 
L 240.03895 200.345347 
L 240.03895 199.546931 
L 240.229028 199.546931 
L 240.229028 198.748515 
L 241.577402 198.748515 
L 241.577402 197.950099 
L 242.097606 197.950099 
L 242.097606 197.151683 
L 242.300646 197.151683 
L 242.390649 195.554851 
L 242.490511 195.554851 
L 242.490511 194.756436 
L 242.65285 194.756436 
L 242.71502 192.361188 
L 243.116296 192.361188 
L 243.116296 191.562772 
L 243.285387 191.562772 
L 243.335608 189.965941 
L 243.549619 189.965941 
L 243.658198 188.369109 
L 243.923946 188.369109 
L 243.923946 187.570693 
L 244.151919 187.570693 
L 244.238203 185.973861 
L 244.480608 185.973861 
L 244.480608 185.175446 
L 244.644625 185.175446 
L 244.644625 184.37703 
L 244.835883 184.37703 
L 244.86805 182.780198 
L 244.994167 182.780198 
L 245.085377 181.183366 
L 245.10875 181.183366 
L 245.10875 180.38495 
L 245.897837 180.38495 
L 245.931972 178.788119 
L 246.260851 178.788119 
L 246.260851 177.989703 
L 246.472247 177.989703 
L 246.472247 177.191287 
L 246.758773 177.191287 
L 246.758773 176.392871 
L 247.012651 176.392871 
L 247.018971 174.79604 
L 247.169511 174.79604 
L 247.23105 173.199208 
L 247.303419 173.199208 
L 247.410273 171.602376 
L 247.417525 171.602376 
L 247.417525 170.80396 
L 247.549212 170.80396 
L 247.552599 169.207129 
L 247.707374 169.207129 
L 247.707374 168.408713 
L 248.083973 168.408713 
L 248.096064 166.811881 
L 248.75271 166.811881 
L 248.75271 166.013465 
L 249.187133 166.013465 
L 249.187133 165.21505 
L 249.55659 165.21505 
L 249.55659 164.416634 
L 249.700485 164.416634 
L 249.78956 162.021386 
L 249.865499 162.021386 
L 249.893096 160.424554 
L 250.004264 160.424554 
L 250.049063 158.827723 
L 250.122787 158.827723 
L 250.122787 158.029307 
L 250.416606 158.029307 
L 250.416606 157.230891 
L 250.530608 157.230891 
L 250.530608 156.432475 
L 251.036969 156.432475 
L 251.036969 155.634059 
L 251.284222 155.634059 
L 251.284222 154.835644 
L 251.604179 154.835644 
L 251.632182 142.859406 
L 251.991598 142.859406 
L 251.991598 142.06099 
L 252.153882 142.06099 
L 252.153882 141.262574 
L 252.445008 141.262574 
L 252.53669 138.867327 
L 252.953345 138.867327 
L 252.953345 138.068911 
L 253.388363 138.068911 
L 253.404424 136.472079 
L 253.590019 136.472079 
L 253.590019 135.673663 
L 254.207285 135.673663 
L 254.207285 134.875248 
L 254.368216 134.875248 
L 254.368216 134.076832 
L 254.554632 134.076832 
L 254.554632 133.278416 
L 254.832738 133.278416 
L 254.832738 132.48 
L 255.102356 132.48 
L 255.211976 130.883168 
L 255.311313 130.883168 
L 255.339025 129.286337 
L 255.441131 129.286337 
L 255.533751 127.689505 
L 255.574651 127.689505 
L 255.609238 126.092673 
L 256.262509 126.092673 
L 256.262509 125.294257 
L 256.459381 125.294257 
L 256.459381 124.495842 
L 256.717536 124.495842 
L 256.75663 122.100594 
L 256.864425 122.100594 
L 256.864425 121.302178 
L 257.150774 121.302178 
L 257.150774 120.503762 
L 257.397659 120.503762 
L 257.431378 118.906931 
L 257.524907 118.906931 
L 257.594895 116.511683 
L 257.736082 116.511683 
L 257.736082 115.713267 
L 258.074501 115.713267 
L 258.082289 114.116436 
L 258.314582 114.116436 
L 258.314582 113.31802 
L 258.841899 113.31802 
L 258.890733 111.721188 
L 259.15099 111.721188 
L 259.15099 110.922772 
L 259.51982 110.922772 
L 259.51982 110.124356 
L 260.148199 110.124356 
L 260.148199 109.325941 
L 260.443721 109.325941 
L 260.443721 108.527525 
L 260.597476 108.527525 
L 260.597476 107.729109 
L 260.726044 107.729109 
L 260.810206 106.132277 
L 260.996268 106.132277 
L 261.055581 104.535446 
L 261.203939 104.535446 
L 261.266831 102.938614 
L 261.441194 102.938614 
L 261.441194 102.140198 
L 261.79822 102.140198 
L 261.881158 100.543366 
L 261.962164 100.543366 
L 262.049176 98.946535 
L 262.376913 98.946535 
L 262.376913 98.148119 
L 262.551204 98.148119 
L 262.551204 97.349703 
L 262.664865 97.349703 
L 262.664865 96.551287 
L 262.917587 96.551287 
L 262.917587 95.752871 
L 263.042577 95.752871 
L 263.042577 94.954455 
L 263.321832 94.954455 
L 263.366546 93.357624 
L 263.441888 93.357624 
L 263.488718 90.962376 
L 263.615726 90.962376 
L 263.615726 90.16396 
L 264.015502 90.16396 
L 264.015502 89.365545 
L 264.166272 89.365545 
L 264.166272 88.567129 
L 264.499975 88.567129 
L 264.519917 86.171881 
L 264.798909 86.171881 
L 264.800219 84.57505 
L 265.015713 84.57505 
L 265.015713 83.776634 
L 265.212525 83.776634 
L 265.212525 82.978218 
L 265.3262 82.978218 
L 265.3262 82.179802 
L 265.943576 82.179802 
L 265.943576 81.381386 
L 266.097768 81.381386 
L 266.20849 78.986139 
L 267.070495 78.986139 
L 267.070495 78.187723 
L 267.287632 78.187723 
L 267.287632 77.389307 
L 268.330676 77.389307 
L 268.330676 76.590891 
L 268.887589 76.590891 
L 268.887589 75.792475 
L 269.055458 75.792475 
L 269.055458 74.994059 
L 270.39735 74.994059 
L 270.39735 74.195644 
L 271.288671 74.195644 
L 271.288671 73.397228 
L 271.558799 73.397228 
L 271.558799 72.598812 
L 272.120897 72.598812 
L 272.120897 71.800396 
L 272.268452 71.800396 
L 272.268452 71.00198 
L 273.250743 71.00198 
L 273.250743 70.203564 
L 275.117588 70.203564 
L 275.117588 69.405149 
L 275.942625 69.405149 
L 275.942625 68.606733 
L 276.715293 68.606733 
L 276.715293 67.808317 
L 277.038109 67.808317 
L 277.038109 67.009901 
L 277.234503 67.009901 
L 277.250902 65.413069 
L 278.611888 65.413069 
L 278.611888 64.614653 
L 279.24034 64.614653 
L 279.24034 63.816238 
L 279.797981 63.816238 
L 279.797981 63.017822 
L 280.22922 63.017822 
L 280.22922 62.219406 
L 280.649176 62.219406 
L 280.649176 61.42099 
L 281.137365 61.42099 
L 281.137365 60.622574 
L 281.343208 60.622574 
L 281.343208 59.824158 
L 281.497368 59.824158 
L 281.497368 59.025743 
L 282.128126 59.025743 
L 282.180944 57.428911 
L 282.292735 57.428911 
L 282.336722 55.033663 
L 283.067863 55.033663 
L 283.067863 54.235248 
L 284.41361 54.235248 
L 284.41361 53.436832 
L 284.912715 53.436832 
L 284.912715 52.638416 
L 285.640676 52.638416 
L 285.640676 51.84 
L 286.953817 51.84 
L 286.953817 51.041584 
L 287.111182 51.041584 
L 287.111182 50.243168 
L 288.362275 50.243168 
L 288.362275 49.444752 
L 290.203094 49.444752 
L 290.203094 48.646337 
L 291.748996 48.646337 
L 291.748996 47.847921 
L 293.394198 47.847921 
L 293.394198 47.049505 
L 296.487429 47.049505 
L 296.487429 46.251089 
L 297.88839 46.251089 
L 297.88839 45.452673 
L 301.362709 45.452673 
L 301.362709 44.654257 
L 303.668961 44.654257 
L 303.668961 43.855842 
L 303.912487 43.855842 
L 303.912487 43.057426 
L 312.319392 43.057426 
L 312.319392 42.25901 
L 312.835172 42.25901 
L 312.835172 41.460594 
L 322.558915 41.460594 
L 322.558915 40.662178 
L 323.884445 40.662178 
L 323.884445 39.863762 
L 324.09087 39.863762 
L 324.09087 39.065347 
L 324.456091 39.065347 
L 324.456091 38.266931 
L 325.966607 38.266931 
L 325.966607 37.468515 
L 326.764663 37.468515 
L 326.764663 36.670099 
L 328.175312 36.670099 
L 328.175312 35.871683 
L 328.437283 35.871683 
L 328.437283 35.073267 
L 333.151504 35.073267 
L 333.151504 34.274851 
L 333.412393 34.274851 
L 333.412393 33.476436 
L 334.990186 33.476436 
L 334.990186 32.67802 
L 335.564423 32.67802 
L 335.564423 31.879604 
L 338.308799 31.879604 
L 338.308799 31.081188 
L 338.562791 31.081188 
L 338.562791 30.282772 
L 339.886925 30.282772 
L 339.886925 29.484356 
L 340.455485 29.484356 
L 340.455485 28.685941 
L 342.236876 28.685941 
L 342.236876 27.887525 
L 343.011652 27.887525 
L 343.011652 27.089109 
L 344.642681 27.089109 
L 344.642681 26.290693 
L 344.994249 26.290693 
L 344.994249 25.492277 
L 345.506771 25.492277 
L 345.506771 24.693861 
L 345.802264 24.693861 
L 345.802264 23.895446 
L 346.351954 23.895446 
L 346.351954 23.09703 
L 346.757567 23.09703 
L 346.757567 22.298614 
L 347.031751 22.298614 
L 347.031751 21.500198 
L 347.979619 21.500198 
L 348.033442 19.903366 
L 349.880443 19.903366 
L 349.880443 19.10495 
L 359.428495 19.10495 
L 359.428495 18.306535 
L 363.238244 18.306535 
L 363.238244 17.508119 
L 366.015527 17.508119 
L 366.015527 16.709703 
L 374.370577 16.709703 
L 374.413906 15.112871 
L 381.481625 15.112871 
L 381.481625 14.314455 
L 383.198344 14.314455 
L 383.198344 13.51604 
L 383.821637 13.51604 
L 383.821637 12.717624 
L 385.29243 12.717624 
L 385.29243 11.919208 
L 387.304412 11.919208 
L 387.304412 11.120792 
L 388.404427 11.120792 
L 388.404427 10.322376 
L 388.833258 10.322376 
L 388.833258 9.52396 
L 389.978597 9.52396 
L 389.978597 8.725545 
L 394.193974 8.725545 
L 394.193974 7.927129 
L 395.993262 7.927129 
L 395.993262 7.128713 
L 401.598331 7.128713 
L 401.598331 6.330297 
L 401.598331 6.330297 
L 460.8 6.330297 
L 460.8 6.330297 
" clip-path="url(#p8d5af0b30c)" style="fill: none; stroke: #00bfbf; stroke-width: 1.5; stroke-linecap: square"/>
   </g>
   <g id="line2d_26">
    <path d="M -1 289.767921 
L -0.115537 289.767921 
L -0.115537 277.791683 
L 6.027987 277.791683 
L 6.027987 276.993267 
L 21.362368 276.993267 
L 21.362368 276.194851 
L 31.309925 276.194851 
L 31.309925 275.396436 
L 44.504417 275.396436 
L 44.504417 274.59802 
L 46.011745 274.59802 
L 46.011745 273.799604 
L 65.203454 273.799604 
L 65.203454 273.001188 
L 66.903397 273.001188 
L 66.903397 272.202772 
L 68.049779 272.202772 
L 68.049779 271.404356 
L 74.538862 271.404356 
L 74.625414 269.807525 
L 76.06054 269.807525 
L 76.06054 269.009109 
L 78.611525 269.009109 
L 78.611525 268.210693 
L 80.18671 268.210693 
L 80.18671 267.412277 
L 85.668636 267.412277 
L 85.668636 266.613861 
L 88.371022 266.613861 
L 88.371022 265.815446 
L 90.918706 265.815446 
L 90.918706 265.01703 
L 91.589968 265.01703 
L 91.589968 264.218614 
L 93.594213 264.218614 
L 93.680005 262.621782 
L 104.681431 262.621782 
L 104.681431 261.823366 
L 107.062854 261.823366 
L 107.062854 261.02495 
L 109.491434 261.02495 
L 109.491434 260.226535 
L 120.590348 260.226535 
L 120.590348 259.428119 
L 127.350505 259.428119 
L 127.350505 258.629703 
L 128.083022 258.629703 
L 128.083022 257.831287 
L 132.364266 257.831287 
L 132.364266 257.032871 
L 132.965725 257.032871 
L 132.965725 256.234455 
L 134.340885 256.234455 
L 134.340885 255.43604 
L 134.686187 255.43604 
L 134.686187 254.637624 
L 135.130332 254.637624 
L 135.130332 253.839208 
L 137.239814 253.839208 
L 137.239814 253.040792 
L 141.555994 253.040792 
L 141.555994 252.242376 
L 144.806981 252.242376 
L 144.806981 251.44396 
L 146.204536 251.44396 
L 146.204536 250.645545 
L 147.612601 250.645545 
L 147.612601 249.847129 
L 147.72595 249.847129 
L 147.72595 249.048713 
L 149.64508 249.048713 
L 149.64508 248.250297 
L 151.48895 248.250297 
L 151.48895 247.451881 
L 158.264761 247.451881 
L 158.264761 246.653465 
L 162.223887 246.653465 
L 162.223887 245.85505 
L 167.816749 245.85505 
L 167.816749 245.056634 
L 168.221211 245.056634 
L 168.221211 244.258218 
L 174.931874 244.258218 
L 174.931874 243.459802 
L 175.403504 243.459802 
L 175.403504 242.661386 
L 176.369123 242.661386 
L 176.369123 241.86297 
L 177.694205 241.86297 
L 177.694205 241.064554 
L 178.274616 241.064554 
L 178.274616 240.266139 
L 179.09845 240.266139 
L 179.09845 239.467723 
L 180.443991 239.467723 
L 180.443991 238.669307 
L 181.202538 238.669307 
L 181.202538 237.870891 
L 181.343745 237.870891 
L 181.343745 237.072475 
L 181.642079 237.072475 
L 181.642079 236.274059 
L 183.046538 236.274059 
L 183.139029 234.677228 
L 183.69313 234.677228 
L 183.69313 233.878812 
L 184.684837 233.878812 
L 184.684837 233.080396 
L 185.264163 233.080396 
L 185.264163 232.28198 
L 185.429443 232.28198 
L 185.429443 231.483564 
L 186.287103 231.483564 
L 186.287103 230.685149 
L 188.975891 230.685149 
L 188.975891 229.886733 
L 189.626758 229.886733 
L 189.626758 229.088317 
L 190.158079 229.088317 
L 190.158079 228.289901 
L 191.723124 228.289901 
L 191.723124 227.491485 
L 191.954903 227.491485 
L 191.954903 226.693069 
L 192.350923 226.693069 
L 192.350923 225.894653 
L 193.513972 225.894653 
L 193.513972 225.096238 
L 193.962088 225.096238 
L 193.962088 224.297822 
L 194.159139 224.297822 
L 194.159139 223.499406 
L 195.687541 223.499406 
L 195.687541 222.70099 
L 197.666085 222.70099 
L 197.69391 210.724752 
L 198.410491 210.724752 
L 198.410491 209.926337 
L 198.80255 209.926337 
L 198.889149 208.329505 
L 200.779846 208.329505 
L 200.779846 207.531089 
L 201.04708 207.531089 
L 201.134612 205.934257 
L 202.729352 205.934257 
L 202.729352 205.135842 
L 203.533396 205.135842 
L 203.533396 204.337426 
L 203.681782 204.337426 
L 203.681782 203.53901 
L 204.362954 203.53901 
L 204.362954 202.740594 
L 204.492518 202.740594 
L 204.571149 201.143762 
L 204.716636 201.143762 
L 204.716636 200.345347 
L 205.025589 200.345347 
L 205.025589 199.546931 
L 205.898288 199.546931 
L 205.898288 198.748515 
L 206.289955 198.748515 
L 206.289955 197.950099 
L 206.971947 197.950099 
L 206.971947 197.151683 
L 208.670014 197.151683 
L 208.670014 196.353267 
L 209.3657 196.353267 
L 209.450959 194.756436 
L 209.499446 194.756436 
L 209.504351 193.159604 
L 210.645748 193.159604 
L 210.645748 192.361188 
L 210.976488 192.361188 
L 211.062828 190.764356 
L 212.041727 190.764356 
L 212.070191 189.167525 
L 212.506498 189.167525 
L 212.506498 188.369109 
L 212.656403 188.369109 
L 212.656403 187.570693 
L 213.015192 187.570693 
L 213.015192 186.772277 
L 213.222177 186.772277 
L 213.329195 185.175446 
L 213.841647 185.175446 
L 213.841647 184.37703 
L 215.375854 184.37703 
L 215.429067 182.780198 
L 215.911313 182.780198 
L 216.003847 181.183366 
L 216.321093 181.183366 
L 216.322626 178.788119 
L 216.663151 178.788119 
L 216.684602 177.191287 
L 217.204724 177.191287 
L 217.204724 176.392871 
L 217.504484 176.392871 
L 217.504484 175.594455 
L 217.701345 175.594455 
L 217.728683 173.997624 
L 218.140702 173.997624 
L 218.229063 172.400792 
L 218.478426 172.400792 
L 218.478426 171.602376 
L 218.697931 171.602376 
L 218.806772 170.005545 
L 218.809441 170.005545 
L 218.809441 169.207129 
L 218.95999 169.207129 
L 218.95999 168.408713 
L 219.199868 168.408713 
L 219.274071 166.013465 
L 219.410348 166.013465 
L 219.432812 164.416634 
L 219.657722 164.416634 
L 219.699605 162.819802 
L 219.976223 162.819802 
L 219.976223 162.021386 
L 220.212592 162.021386 
L 220.212592 161.22297 
L 220.596063 161.22297 
L 220.596063 160.424554 
L 220.787123 160.424554 
L 220.787123 159.626139 
L 220.898262 159.626139 
L 220.940867 158.029307 
L 221.282645 158.029307 
L 221.380246 156.432475 
L 221.411719 156.432475 
L 221.474699 154.835644 
L 221.541146 154.835644 
L 221.619796 152.440396 
L 221.67548 152.440396 
L 221.739494 150.843564 
L 221.819805 150.843564 
L 221.920504 149.246733 
L 222.023612 149.246733 
L 222.023612 148.448317 
L 222.370264 148.448317 
L 222.471247 146.851485 
L 222.487651 146.851485 
L 222.487651 146.053069 
L 222.74578 146.053069 
L 222.74578 145.254653 
L 222.941798 145.254653 
L 222.941798 144.456238 
L 223.332765 144.456238 
L 223.332765 143.657822 
L 223.645653 143.657822 
L 223.645653 142.859406 
L 223.965016 142.859406 
L 223.965016 142.06099 
L 224.185795 142.06099 
L 224.185795 141.262574 
L 224.298641 141.262574 
L 224.321167 139.665743 
L 224.48182 139.665743 
L 224.48182 138.867327 
L 224.768503 138.867327 
L 224.825992 136.472079 
L 225.262375 136.472079 
L 225.262375 135.673663 
L 225.521469 135.673663 
L 225.521469 134.875248 
L 225.654197 134.875248 
L 225.654197 134.076832 
L 226.007358 134.076832 
L 226.007358 133.278416 
L 226.355139 133.278416 
L 226.355139 132.48 
L 226.599328 132.48 
L 226.609713 130.883168 
L 227.197932 130.883168 
L 227.197932 130.084752 
L 227.425802 130.084752 
L 227.533081 127.689505 
L 227.921398 127.689505 
L 227.921398 126.891089 
L 228.037674 126.891089 
L 228.050899 125.294257 
L 228.211757 125.294257 
L 228.318321 123.697426 
L 228.358259 123.697426 
L 228.358259 122.89901 
L 228.584529 122.89901 
L 228.657498 121.302178 
L 228.735154 121.302178 
L 228.735154 120.503762 
L 228.948732 120.503762 
L 229.031552 118.906931 
L 229.429092 118.906931 
L 229.523598 116.511683 
L 230.018676 116.511683 
L 230.069521 113.31802 
L 230.277346 113.31802 
L 230.387551 111.721188 
L 230.534152 111.721188 
L 230.612635 110.124356 
L 230.656848 110.124356 
L 230.707899 108.527525 
L 230.842562 108.527525 
L 230.854489 106.930693 
L 231.776628 106.930693 
L 231.776628 106.132277 
L 232.210409 106.132277 
L 232.210409 105.333861 
L 232.606165 105.333861 
L 232.606443 102.938614 
L 232.792544 102.938614 
L 232.792544 102.140198 
L 233.06049 102.140198 
L 233.117211 100.543366 
L 233.315956 100.543366 
L 233.315956 99.74495 
L 233.466716 99.74495 
L 233.466716 98.946535 
L 234.565902 98.946535 
L 234.565902 98.148119 
L 235.09883 98.148119 
L 235.121201 96.551287 
L 235.411147 96.551287 
L 235.51754 93.357624 
L 235.575512 93.357624 
L 235.575512 92.559208 
L 235.787485 92.559208 
L 235.787485 91.760792 
L 236.679606 91.760792 
L 236.679606 90.962376 
L 236.809994 90.962376 
L 236.809994 90.16396 
L 236.940103 90.16396 
L 236.940103 89.365545 
L 237.158326 89.365545 
L 237.158326 88.567129 
L 237.334518 88.567129 
L 237.334518 87.768713 
L 237.530409 87.768713 
L 237.530409 86.970297 
L 238.110413 86.970297 
L 238.111861 85.373465 
L 238.258153 85.373465 
L 238.258153 84.57505 
L 238.691284 84.57505 
L 238.691284 83.776634 
L 238.908434 83.776634 
L 238.960127 81.381386 
L 240.07332 81.381386 
L 240.118695 79.784554 
L 240.20958 79.784554 
L 240.296882 78.187723 
L 240.573198 78.187723 
L 240.634448 76.590891 
L 240.843401 76.590891 
L 240.843401 75.792475 
L 241.11377 75.792475 
L 241.11377 74.994059 
L 241.57865 74.994059 
L 241.671112 72.598812 
L 241.690429 72.598812 
L 241.748152 71.00198 
L 242.027656 71.00198 
L 242.067407 68.606733 
L 242.637563 68.606733 
L 242.637563 67.808317 
L 242.892287 67.808317 
L 242.892287 67.009901 
L 243.104453 67.009901 
L 243.104453 66.211485 
L 243.834702 66.211485 
L 243.834702 65.413069 
L 243.959622 65.413069 
L 243.959622 64.614653 
L 244.106154 64.614653 
L 244.106154 63.816238 
L 244.42455 63.816238 
L 244.481541 62.219406 
L 244.589528 62.219406 
L 244.625924 60.622574 
L 244.705242 60.622574 
L 244.731671 59.025743 
L 244.885424 59.025743 
L 244.885424 58.227327 
L 245.061601 58.227327 
L 245.061601 57.428911 
L 245.18821 57.428911 
L 245.279338 55.832079 
L 245.576038 55.832079 
L 245.652653 54.235248 
L 245.704478 54.235248 
L 245.789149 51.84 
L 245.908359 51.84 
L 246.000766 50.243168 
L 246.763933 50.243168 
L 246.843932 48.646337 
L 246.918479 48.646337 
L 246.981934 47.049505 
L 247.157231 47.049505 
L 247.229376 45.452673 
L 247.359608 45.452673 
L 247.359608 44.654257 
L 247.568283 44.654257 
L 247.568283 43.855842 
L 247.719125 43.855842 
L 247.719125 43.057426 
L 247.844802 43.057426 
L 247.849414 41.460594 
L 248.58185 41.460594 
L 248.66956 39.863762 
L 248.922652 39.863762 
L 248.922652 39.065347 
L 249.525473 39.065347 
L 249.565205 37.468515 
L 249.734671 37.468515 
L 249.734671 36.670099 
L 250.066195 36.670099 
L 250.09651 35.073267 
L 250.204725 35.073267 
L 250.204725 34.274851 
L 250.823266 34.274851 
L 250.823266 33.476436 
L 251.284222 33.476436 
L 251.284222 32.67802 
L 251.543762 32.67802 
L 251.543762 31.879604 
L 252.61166 31.879604 
L 252.61166 31.081188 
L 253.193544 31.081188 
L 253.262401 28.685941 
L 253.367409 28.685941 
L 253.367409 27.887525 
L 253.989644 27.887525 
L 253.989644 27.089109 
L 254.133991 27.089109 
L 254.133991 26.290693 
L 254.296097 26.290693 
L 254.296097 25.492277 
L 254.783185 25.492277 
L 254.783185 24.693861 
L 255.71511 24.693861 
L 255.71511 23.895446 
L 256.130025 23.895446 
L 256.130025 23.09703 
L 257.397659 23.09703 
L 257.397659 22.298614 
L 258.029627 22.298614 
L 258.029627 21.500198 
L 258.568522 21.500198 
L 258.568522 20.701782 
L 260.407726 20.701782 
L 260.407726 19.903366 
L 262.960293 19.903366 
L 262.960293 19.10495 
L 263.688407 19.10495 
L 263.688407 18.306535 
L 266.581323 18.306535 
L 266.581323 17.508119 
L 266.815796 17.508119 
L 266.815796 16.709703 
L 266.941853 16.709703 
L 266.941853 15.911287 
L 268.975826 15.911287 
L 268.975826 15.112871 
L 272.820417 15.112871 
L 272.820417 14.314455 
L 275.817695 14.314455 
L 275.817695 13.51604 
L 276.511808 13.51604 
L 276.511808 12.717624 
L 277.954885 12.717624 
L 277.954885 11.919208 
L 280.839474 11.919208 
L 280.839474 11.120792 
L 281.208695 11.120792 
L 281.208695 10.322376 
L 282.964398 10.322376 
L 282.964398 9.52396 
L 286.070708 9.52396 
L 286.070708 8.725545 
L 293.650208 8.725545 
L 293.650208 7.927129 
L 298.987025 7.927129 
L 298.987025 7.128713 
L 311.3793 7.128713 
L 311.3793 6.330297 
L 311.3793 6.330297 
L 460.8 6.330297 
L 460.8 6.330297 
" clip-path="url(#p8d5af0b30c)" style="fill: none; stroke: #bf00bf; stroke-width: 1.5; stroke-linecap: square"/>
   </g>
   <g id="line2d_27">
    <path d="M -1 160.424554 
L -0.977737 160.424554 
L -0.888317 158.827723 
L -0.803143 158.827723 
L -0.75175 156.432475 
L -0.620514 156.432475 
L -0.540924 154.037228 
L -0.391302 154.037228 
L -0.329891 151.64198 
L -0.24546 151.64198 
L -0.24546 150.843564 
L -0.115537 150.843564 
L -0.115537 138.867327 
L 1.266266 138.867327 
L 1.266266 138.068911 
L 3.774669 138.068911 
L 3.774669 137.270495 
L 17.463097 137.270495 
L 17.463097 136.472079 
L 28.817219 136.472079 
L 28.817219 135.673663 
L 31.140122 135.673663 
L 31.140122 134.875248 
L 38.957609 134.875248 
L 38.957609 134.076832 
L 56.192274 134.076832 
L 56.192274 133.278416 
L 60.200682 133.278416 
L 60.200682 132.48 
L 60.63119 132.48 
L 60.63119 131.681584 
L 60.853236 131.681584 
L 60.853236 130.883168 
L 66.653539 130.883168 
L 66.653539 130.084752 
L 69.641518 130.084752 
L 69.641518 129.286337 
L 74.990393 129.286337 
L 74.990393 128.487921 
L 76.276504 128.487921 
L 76.344222 126.092673 
L 77.902887 126.092673 
L 77.902887 125.294257 
L 83.572571 125.294257 
L 83.572571 124.495842 
L 84.855693 124.495842 
L 84.855693 123.697426 
L 92.782569 123.697426 
L 92.782569 122.89901 
L 94.694091 122.89901 
L 94.694091 122.100594 
L 119.173237 122.100594 
L 119.173237 121.302178 
L 120.925326 121.302178 
L 120.925326 120.503762 
L 124.607452 120.503762 
L 124.607452 119.705347 
L 125.570962 119.705347 
L 125.570962 118.906931 
L 135.570163 118.906931 
L 135.570163 118.108515 
L 135.959517 118.108515 
L 135.959517 117.310099 
L 150.564719 117.310099 
L 150.564719 116.511683 
L 155.635955 116.511683 
L 155.635955 115.713267 
L 157.056765 115.713267 
L 157.056765 114.914851 
L 161.814477 114.914851 
L 161.814477 114.116436 
L 162.246031 114.116436 
L 162.246031 113.31802 
L 179.230307 113.31802 
L 179.230307 112.519604 
L 182.145402 112.519604 
L 182.178691 110.922772 
L 183.882774 110.922772 
L 183.882774 110.124356 
L 184.382287 110.124356 
L 184.382287 109.325941 
L 188.781874 109.325941 
L 188.781874 108.527525 
L 191.954903 108.527525 
L 191.954903 107.729109 
L 192.30196 107.729109 
L 192.30196 106.930693 
L 193.353252 106.930693 
L 193.353252 106.132277 
L 194.168745 106.132277 
L 194.168745 105.333861 
L 195.038477 105.333861 
L 195.038477 104.535446 
L 195.495318 104.535446 
L 195.495318 103.73703 
L 195.691844 103.73703 
L 195.691844 102.938614 
L 195.863262 102.938614 
L 195.863262 102.140198 
L 197.69391 102.140198 
L 197.69391 91.760792 
L 198.570423 91.760792 
L 198.570423 90.962376 
L 201.09478 90.962376 
L 201.09478 90.16396 
L 204.088662 90.16396 
L 204.088662 89.365545 
L 206.839513 89.365545 
L 206.839513 88.567129 
L 207.311128 88.567129 
L 207.311128 87.768713 
L 207.623875 87.768713 
L 207.623875 86.970297 
L 209.495962 86.970297 
L 209.495962 84.57505 
L 209.806829 84.57505 
L 209.806829 83.776634 
L 210.224346 83.776634 
L 210.224346 82.978218 
L 211.170883 82.978218 
L 211.170883 82.179802 
L 212.137031 82.179802 
L 212.137031 81.381386 
L 212.6531 81.381386 
L 212.734227 79.784554 
L 212.930627 79.784554 
L 212.93064 78.187723 
L 213.577108 78.187723 
L 213.580963 76.590891 
L 213.714623 76.590891 
L 213.714623 73.397228 
L 214.076916 73.397228 
L 214.076916 72.598812 
L 214.326342 72.598812 
L 214.433605 71.00198 
L 214.787032 71.00198 
L 214.873895 69.405149 
L 214.937215 69.405149 
L 214.937215 68.606733 
L 215.344614 68.606733 
L 215.42028 66.211485 
L 216.320144 66.211485 
L 216.320144 65.413069 
L 216.48783 65.413069 
L 216.48783 64.614653 
L 216.646857 64.614653 
L 216.646857 63.816238 
L 217.204724 63.816238 
L 217.204724 63.017822 
L 217.395833 63.017822 
L 217.395833 62.219406 
L 218.959084 62.219406 
L 218.959085 60.622574 
L 220.451374 60.622574 
L 220.451374 59.824158 
L 220.617757 59.824158 
L 220.617757 59.025743 
L 221.00775 59.025743 
L 221.00775 58.227327 
L 221.557427 58.227327 
L 221.557427 57.428911 
L 221.762993 57.428911 
L 221.762993 45.452673 
L 222.072428 45.452673 
L 222.072428 44.654257 
L 223.710922 44.654257 
L 223.710922 43.855842 
L 224.320107 43.855842 
L 224.320107 43.057426 
L 224.825784 43.057426 
L 224.825784 42.25901 
L 226.470987 42.25901 
L 226.470987 38.266931 
L 226.609713 38.266931 
L 226.609713 37.468515 
L 227.486354 37.468515 
L 227.486354 36.670099 
L 229.667525 36.670099 
L 229.667525 35.073267 
L 229.811362 35.073267 
L 229.811362 31.879604 
L 230.657956 31.879604 
L 230.657956 31.081188 
L 232.402347 31.081188 
L 232.402359 27.089109 
L 232.605825 27.089109 
L 232.605825 26.290693 
L 233.618436 26.290693 
L 233.618436 25.492277 
L 234.10536 25.492277 
L 234.10536 24.693861 
L 234.519347 24.693861 
L 234.519347 21.500198 
L 235.064736 21.500198 
L 235.064736 20.701782 
L 235.834816 20.701782 
L 235.834816 19.903366 
L 236.309245 19.903366 
L 236.309245 16.709703 
L 237.128907 16.709703 
L 237.128907 15.911287 
L 237.434026 15.911287 
L 237.434768 14.314455 
L 237.859724 14.314455 
L 237.859724 13.51604 
L 238.859337 13.51604 
L 238.949305 11.919208 
L 239.448955 11.919208 
L 239.448955 11.120792 
L 240.190433 11.120792 
L 240.190433 10.322376 
L 241.002445 10.322376 
L 241.002445 9.52396 
L 241.557397 9.52396 
L 241.557397 8.725545 
L 243.497098 8.725545 
L 243.497098 7.927129 
L 244.244346 7.927129 
L 244.244346 7.128713 
L 245.074041 7.128713 
L 245.074041 6.330297 
L 245.074041 6.330297 
L 460.8 6.330297 
L 460.8 6.330297 
" clip-path="url(#p8d5af0b30c)" style="fill: none; stroke: #000000; stroke-width: 1.5; stroke-linecap: square"/>
   </g>
   <g id="line2d_28">
    <path d="M -1 89.365545 
L -0.977737 89.365545 
L -0.888317 87.768713 
L -0.803143 87.768713 
L -0.75175 85.373465 
L -0.620514 85.373465 
L -0.540924 82.978218 
L -0.391302 82.978218 
L -0.329891 80.58297 
L -0.24546 80.58297 
L -0.238546 78.986139 
L -0.115537 78.986139 
L -0.115537 67.009901 
L 157.848757 67.009901 
L 157.848757 66.211485 
L 168.734237 66.211485 
L 168.734237 65.413069 
L 172.042433 65.413069 
L 172.042433 64.614653 
L 172.159492 64.614653 
L 172.159492 63.816238 
L 173.198744 63.816238 
L 173.198744 63.017822 
L 176.331018 63.017822 
L 176.331018 62.219406 
L 179.236027 62.219406 
L 179.236027 61.42099 
L 180.090802 61.42099 
L 180.090802 60.622574 
L 181.951685 60.622574 
L 181.951685 59.824158 
L 182.469326 59.824158 
L 182.469326 59.025743 
L 183.892925 59.025743 
L 183.892925 58.227327 
L 185.500128 58.227327 
L 185.500128 57.428911 
L 185.913584 57.428911 
L 185.913584 56.630495 
L 187.424678 56.630495 
L 187.424678 55.832079 
L 188.971836 55.832079 
L 188.971836 55.033663 
L 193.353252 55.033663 
L 193.353252 54.235248 
L 195.691844 54.235248 
L 195.691844 53.436832 
L 197.050465 53.436832 
L 197.050465 49.444752 
L 198.416524 49.444752 
L 198.416524 48.646337 
L 200.857593 48.646337 
L 200.857593 47.847921 
L 201.747681 47.847921 
L 201.772401 46.251089 
L 204.088662 46.251089 
L 204.088662 45.452673 
L 205.098835 45.452673 
L 205.098835 44.654257 
L 205.730494 44.654257 
L 205.730494 43.855842 
L 207.492171 43.855842 
L 207.492171 43.057426 
L 207.690258 43.057426 
L 207.690258 42.25901 
L 209.044149 42.25901 
L 209.044149 41.460594 
L 209.495962 41.460594 
L 209.495962 37.468515 
L 211.163932 37.468515 
L 211.163932 36.670099 
L 212.930627 36.670099 
L 212.930627 35.871683 
L 213.714623 35.871683 
L 213.714623 30.282772 
L 218.959084 30.282772 
L 218.959084 29.484356 
L 221.762993 29.484356 
L 221.762993 25.492277 
L 223.710922 25.492277 
L 223.710922 24.693861 
L 226.470987 24.693861 
L 226.470987 19.10495 
L 228.117717 19.10495 
L 228.117717 18.306535 
L 228.49981 18.306535 
L 228.49981 17.508119 
L 228.8707 17.508119 
L 228.8707 16.709703 
L 229.016648 16.709703 
L 229.016648 15.911287 
L 229.811362 15.911287 
L 229.811362 13.51604 
L 232.896169 13.51604 
L 232.896169 12.717624 
L 233.147541 12.717624 
L 233.214327 11.120792 
L 233.330345 11.120792 
L 233.385364 8.725545 
L 233.519993 8.725545 
L 233.593111 7.128713 
L 234.14319 7.128713 
L 234.14319 6.330297 
L 234.14319 6.330297 
L 460.8 6.330297 
L 460.8 6.330297 
" clip-path="url(#p8d5af0b30c)" style="fill: none; stroke: #00bfbf; stroke-width: 1.5; stroke-linecap: square"/>
   </g>
   <g id="line2d_29">
    <path d="M -1 69.405149 
L -0.977737 69.405149 
L -0.888317 67.808317 
L -0.803143 67.808317 
L -0.75175 65.413069 
L -0.620514 65.413069 
L -0.540924 63.017822 
L -0.391302 63.017822 
L -0.329891 60.622574 
L -0.24546 60.622574 
L -0.238546 59.025743 
L -0.115537 59.025743 
L -0.115537 47.049505 
L 178.81078 47.049505 
L 178.81078 46.251089 
L 181.951685 46.251089 
L 181.951685 45.452673 
L 182.665208 45.452673 
L 182.665208 44.654257 
L 185.500128 44.654257 
L 185.500128 43.855842 
L 187.424678 43.855842 
L 187.424678 43.057426 
L 188.971836 43.057426 
L 188.971836 42.25901 
L 191.956919 42.25901 
L 191.956919 41.460594 
L 195.691844 41.460594 
L 195.691844 40.662178 
L 196.77267 40.662178 
L 196.77267 39.863762 
L 197.171118 39.863762 
L 197.171118 39.065347 
L 201.747681 39.065347 
L 201.747681 38.266931 
L 202.484851 38.266931 
L 202.484851 37.468515 
L 203.535373 37.468515 
L 203.535373 36.670099 
L 205.851525 36.670099 
L 205.851525 35.871683 
L 206.766081 35.871683 
L 206.766081 35.073267 
L 207.492171 35.073267 
L 207.492171 34.274851 
L 209.044149 34.274851 
L 209.044149 33.476436 
L 209.495962 33.476436 
L 209.495962 31.081188 
L 209.951096 31.081188 
L 209.994414 29.484356 
L 210.155534 29.484356 
L 210.155534 28.685941 
L 211.163932 28.685941 
L 211.163932 27.887525 
L 212.930627 27.887525 
L 212.930627 27.089109 
L 213.714623 27.089109 
L 213.714623 25.492277 
L 214.954569 25.492277 
L 214.954569 24.693861 
L 221.762993 24.693861 
L 221.762993 23.09703 
L 222.279392 23.09703 
L 222.279392 22.298614 
L 222.698309 22.298614 
L 222.698309 21.500198 
L 223.602249 21.500198 
L 223.602249 20.701782 
L 224.061762 20.701782 
L 224.061762 19.903366 
L 225.195538 19.903366 
L 225.195538 19.10495 
L 225.324564 19.10495 
L 225.376697 17.508119 
L 225.891303 17.508119 
L 225.891303 16.709703 
L 226.045361 16.709703 
L 226.045361 15.911287 
L 226.470987 15.911287 
L 226.539435 12.717624 
L 229.016648 12.717624 
L 229.016648 11.919208 
L 232.521502 11.919208 
L 232.622555 7.128713 
L 232.643674 7.128713 
L 232.643674 6.330297 
L 232.643674 6.330297 
L 460.8 6.330297 
L 460.8 6.330297 
" clip-path="url(#p8d5af0b30c)" style="fill: none; stroke: #bf00bf; stroke-width: 1.5; stroke-linecap: square"/>
   </g>
   <g id="patch_3">
    <path d="M 0 293.76 
L 0 3.456 
" style="fill: none; stroke: #000000; stroke-width: 0.8; stroke-linejoin: miter; stroke-linecap: square"/>
   </g>
   <g id="patch_4">
    <path d="M 460.8 293.76 
L 460.8 3.456 
" style="fill: none; stroke: #000000; stroke-width: 0.8; stroke-linejoin: miter; stroke-linecap: square"/>
   </g>
   <g id="patch_5">
    <path d="M 0 293.76 
L 460.8 293.76 
" style="fill: none; stroke: #000000; stroke-width: 0.8; stroke-linejoin: miter; stroke-linecap: square"/>
   </g>
   <g id="patch_6">
    <path d="M 0 3.456 
L 460.8 3.456 
" style="fill: none; stroke: #000000; stroke-width: 0.8; stroke-linejoin: miter; stroke-linecap: square"/>
   </g>
   <g id="text_6">
    <!-- {f1-f24}, 5-D -->
    <g transform="translate(318.609 287.95392)scale(0.2 -0.2)">
     <defs>
      <path id="DejaVuSans-7b" d="M 3272 -594 
L 3272 -1044 
L 3078 -1044 
Q 2300 -1044 2036 -812 
Q 1772 -581 1772 109 
L 1772 856 
Q 1772 1328 1603 1509 
Q 1434 1691 991 1691 
L 800 1691 
L 800 2138 
L 991 2138 
Q 1438 2138 1605 2317 
Q 1772 2497 1772 2963 
L 1772 3713 
Q 1772 4403 2036 4633 
Q 2300 4863 3078 4863 
L 3272 4863 
L 3272 4416 
L 3059 4416 
Q 2619 4416 2484 4278 
Q 2350 4141 2350 3700 
L 2350 2925 
Q 2350 2434 2208 2212 
Q 2066 1991 1722 1913 
Q 2069 1828 2209 1606 
Q 2350 1384 2350 897 
L 2350 122 
Q 2350 -319 2484 -456 
Q 2619 -594 3059 -594 
L 3272 -594 
z
" transform="scale(0.015625)"/>
      <path id="DejaVuSans-32" d="M 1228 531 
L 3431 531 
L 3431 0 
L 469 0 
L 469 531 
Q 828 903 1448 1529 
Q 2069 2156 2228 2338 
Q 2531 2678 2651 2914 
Q 2772 3150 2772 3378 
Q 2772 3750 2511 3984 
Q 2250 4219 1831 4219 
Q 1534 4219 1204 4116 
Q 875 4013 500 3803 
L 500 4441 
Q 881 4594 1212 4672 
Q 1544 4750 1819 4750 
Q 2544 4750 2975 4387 
Q 3406 4025 3406 3419 
Q 3406 3131 3298 2873 
Q 3191 2616 2906 2266 
Q 2828 2175 2409 1742 
Q 1991 1309 1228 531 
z
" transform="scale(0.015625)"/>
      <path id="DejaVuSans-7d" d="M 800 -594 
L 1019 -594 
Q 1456 -594 1589 -459 
Q 1722 -325 1722 122 
L 1722 897 
Q 1722 1384 1862 1606 
Q 2003 1828 2350 1913 
Q 2003 1991 1862 2212 
Q 1722 2434 1722 2925 
L 1722 3700 
Q 1722 4144 1589 4280 
Q 1456 4416 1019 4416 
L 800 4416 
L 800 4863 
L 997 4863 
Q 1775 4863 2036 4633 
Q 2297 4403 2297 3713 
L 2297 2963 
Q 2297 2497 2465 2317 
Q 2634 2138 3078 2138 
L 3272 2138 
L 3272 1691 
L 3078 1691 
Q 2634 1691 2465 1509 
Q 2297 1328 2297 856 
L 2297 109 
Q 2297 -581 2036 -812 
Q 1775 -1044 997 -1044 
L 800 -1044 
L 800 -594 
z
" transform="scale(0.015625)"/>
      <path id="DejaVuSans-2c" d="M 750 794 
L 1409 794 
L 1409 256 
L 897 -744 
L 494 -744 
L 750 256 
L 750 794 
z
" transform="scale(0.015625)"/>
      <path id="DejaVuSans-35" d="M 691 4666 
L 3169 4666 
L 3169 4134 
L 1269 4134 
L 1269 2991 
Q 1406 3038 1543 3061 
Q 1681 3084 1819 3084 
Q 2600 3084 3056 2656 
Q 3513 2228 3513 1497 
Q 3513 744 3044 326 
Q 2575 -91 1722 -91 
Q 1428 -91 1123 -41 
Q 819 9 494 109 
L 494 744 
Q 775 591 1075 516 
Q 1375 441 1709 441 
Q 2250 441 2565 725 
Q 2881 1009 2881 1497 
Q 2881 1984 2565 2268 
Q 2250 2553 1709 2553 
Q 1456 2553 1204 2497 
Q 953 2441 691 2322 
L 691 4666 
z
" transform="scale(0.015625)"/>
     </defs>
     <use xlink:href="#DejaVuSans-7b"/>
     <use xlink:href="#DejaVuSans-66" x="63.623047"/>
     <use xlink:href="#DejaVuSans-31" x="98.828125"/>
     <use xlink:href="#DejaVuSans-2d" x="162.451172"/>
     <use xlink:href="#DejaVuSans-66" x="198.535156"/>
     <use xlink:href="#DejaVuSans-32" x="233.740234"/>
     <use xlink:href="#DejaVuSans-34" x="297.363281"/>
     <use xlink:href="#DejaVuSans-7d" x="360.986328"/>
     <use xlink:href="#DejaVuSans-2c" x="424.609375"/>
     <use xlink:href="#DejaVuSans-20" x="456.396484"/>
     <use xlink:href="#DejaVuSans-35" x="488.183594"/>
     <use xlink:href="#DejaVuSans-2d" x="551.806641"/>
     <use xlink:href="#DejaVuSans-44" x="587.890625"/>
    </g>
   </g>
   <g id="text_7">
    <!-- v2.6.3 -->
    <g style="fill: #808080" transform="translate(214.71875 288.777272)scale(0.1 -0.1)">
     <defs>
      <path id="DejaVuSans-76" d="M 191 3500 
L 800 3500 
L 1894 563 
L 2988 3500 
L 3597 3500 
L 2284 0 
L 1503 0 
L 191 3500 
z
" transform="scale(0.015625)"/>
      <path id="DejaVuSans-2e" d="M 684 794 
L 1344 794 
L 1344 0 
L 684 0 
L 684 794 
z
" transform="scale(0.015625)"/>
      <path id="DejaVuSans-36" d="M 2113 2584 
Q 1688 2584 1439 2293 
Q 1191 2003 1191 1497 
Q 1191 994 1439 701 
Q 1688 409 2113 409 
Q 2538 409 2786 701 
Q 3034 994 3034 1497 
Q 3034 2003 2786 2293 
Q 2538 2584 2113 2584 
z
M 3366 4563 
L 3366 3988 
Q 3128 4100 2886 4159 
Q 2644 4219 2406 4219 
Q 1781 4219 1451 3797 
Q 1122 3375 1075 2522 
Q 1259 2794 1537 2939 
Q 1816 3084 2150 3084 
Q 2853 3084 3261 2657 
Q 3669 2231 3669 1497 
Q 3669 778 3244 343 
Q 2819 -91 2113 -91 
Q 1303 -91 875 529 
Q 447 1150 447 2328 
Q 447 3434 972 4092 
Q 1497 4750 2381 4750 
Q 2619 4750 2861 4703 
Q 3103 4656 3366 4563 
z
" transform="scale(0.015625)"/>
      <path id="DejaVuSans-33" d="M 2597 2516 
Q 3050 2419 3304 2112 
Q 3559 1806 3559 1356 
Q 3559 666 3084 287 
Q 2609 -91 1734 -91 
Q 1441 -91 1130 -33 
Q 819 25 488 141 
L 488 750 
Q 750 597 1062 519 
Q 1375 441 1716 441 
Q 2309 441 2620 675 
Q 2931 909 2931 1356 
Q 2931 1769 2642 2001 
Q 2353 2234 1838 2234 
L 1294 2234 
L 1294 2753 
L 1863 2753 
Q 2328 2753 2575 2939 
Q 2822 3125 2822 3475 
Q 2822 3834 2567 4026 
Q 2313 4219 1838 4219 
Q 1578 4219 1281 4162 
Q 984 4106 628 3988 
L 628 4550 
Q 988 4650 1302 4700 
Q 1616 4750 1894 4750 
Q 2613 4750 3031 4423 
Q 3450 4097 3450 3541 
Q 3450 3153 3228 2886 
Q 3006 2619 2597 2516 
z
" transform="scale(0.015625)"/>
     </defs>
     <use xlink:href="#DejaVuSans-76"/>
     <use xlink:href="#DejaVuSans-32" x="59.179688"/>
     <use xlink:href="#DejaVuSans-2e" x="122.802734"/>
     <use xlink:href="#DejaVuSans-36" x="154.589844"/>
     <use xlink:href="#DejaVuSans-2e" x="218.212891"/>
     <use xlink:href="#DejaVuSans-33" x="250"/>
    </g>
   </g>
  </g>
 </g>
 <defs>
  <clipPath id="p8d5af0b30c">
   <rect x="0" y="3.456" width="460.8" height="290.304"/>
  </clipPath>
 </defs>
</svg>
