<?xml version="1.0" encoding="utf-8" standalone="no"?>
<!DOCTYPE svg PUBLIC "-//W3C//DTD SVG 1.1//EN"
  "http://www.w3.org/Graphics/SVG/1.1/DTD/svg11.dtd">
<svg xmlns:xlink="http://www.w3.org/1999/xlink" width="460.8pt" height="345.6pt" viewBox="0 0 460.8 345.6" xmlns="http://www.w3.org/2000/svg" version="1.1">
 <metadata>
  <rdf:RDF xmlns:dc="http://purl.org/dc/elements/1.1/" xmlns:cc="http://creativecommons.org/ns#" xmlns:rdf="http://www.w3.org/1999/02/22-rdf-syntax-ns#">
   <cc:Work>
    <dc:type rdf:resource="http://purl.org/dc/dcmitype/StillImage"/>
    <dc:date>2023-04-07T14:48:06.600531</dc:date>
    <dc:format>image/svg+xml</dc:format>
    <dc:creator>
     <cc:Agent>
      <dc:title>Matplotlib v3.5.2, https://matplotlib.org/</dc:title>
     </cc:Agent>
    </dc:creator>
   </cc:Work>
  </rdf:RDF>
 </metadata>
 <defs>
  <style type="text/css">*{stroke-linejoin: round; stroke-linecap: butt}</style>
 </defs>
 <g id="figure_1">
  <g id="patch_1">
   <path d="M 0 345.6 
L 460.8 345.6 
L 460.8 0 
L 0 0 
z
" style="fill: #ffffff"/>
  </g>
  <g id="axes_1">
   <g id="patch_2">
    <path d="M 0 293.76 
L 460.8 293.76 
L 460.8 3.456 
L 0 3.456 
z
" style="fill: #ffffff"/>
   </g>
   <g id="matplotlib.axis_1">
    <g id="xtick_1">
     <g id="line2d_1">
      <path d="M 104.836405 293.76 
L 104.836405 3.456 
" clip-path="url(#p9af5bc4ae2)" style="fill: none; stroke: #b0b0b0; stroke-width: 0.8; stroke-linecap: square"/>
     </g>
     <g id="line2d_2">
      <defs>
       <path id="m3d0edf8f4c" d="M 0 0 
L 0 3.5 
" style="stroke: #000000; stroke-width: 0.8"/>
      </defs>
      <g>
       <use xlink:href="#m3d0edf8f4c" x="104.836405" y="293.76" style="stroke: #000000; stroke-width: 0.8"/>
      </g>
     </g>
     <g id="text_1">
      <!-- -4 -->
      <g transform="translate(94.866093 315.956875)scale(0.2 -0.2)">
       <defs>
        <path id="DejaVuSans-2d" d="M 313 2009 
L 1997 2009 
L 1997 1497 
L 313 1497 
L 313 2009 
z
" transform="scale(0.015625)"/>
        <path id="DejaVuSans-34" d="M 2419 4116 
L 825 1625 
L 2419 1625 
L 2419 4116 
z
M 2253 4666 
L 3047 4666 
L 3047 1625 
L 3713 1625 
L 3713 1100 
L 3047 1100 
L 3047 0 
L 2419 0 
L 2419 1100 
L 313 1100 
L 313 1709 
L 2253 4666 
z
" transform="scale(0.015625)"/>
       </defs>
       <use xlink:href="#DejaVuSans-2d"/>
       <use xlink:href="#DejaVuSans-34" x="36.083984"/>
      </g>
     </g>
    </g>
    <g id="xtick_2">
     <g id="line2d_3">
      <path d="M 209.786192 293.76 
L 209.786192 3.456 
" clip-path="url(#p9af5bc4ae2)" style="fill: none; stroke: #b0b0b0; stroke-width: 0.8; stroke-linecap: square"/>
     </g>
     <g id="line2d_4">
      <g>
       <use xlink:href="#m3d0edf8f4c" x="209.786192" y="293.76" style="stroke: #000000; stroke-width: 0.8"/>
      </g>
     </g>
     <g id="text_2">
      <!-- 0 -->
      <g transform="translate(203.423692 315.956875)scale(0.2 -0.2)">
       <defs>
        <path id="DejaVuSans-30" d="M 2034 4250 
Q 1547 4250 1301 3770 
Q 1056 3291 1056 2328 
Q 1056 1369 1301 889 
Q 1547 409 2034 409 
Q 2525 409 2770 889 
Q 3016 1369 3016 2328 
Q 3016 3291 2770 3770 
Q 2525 4250 2034 4250 
z
M 2034 4750 
Q 2819 4750 3233 4129 
Q 3647 3509 3647 2328 
Q 3647 1150 3233 529 
Q 2819 -91 2034 -91 
Q 1250 -91 836 529 
Q 422 1150 422 2328 
Q 422 3509 836 4129 
Q 1250 4750 2034 4750 
z
" transform="scale(0.015625)"/>
       </defs>
       <use xlink:href="#DejaVuSans-30"/>
      </g>
     </g>
    </g>
    <g id="xtick_3">
     <g id="line2d_5">
      <path d="M 314.735979 293.76 
L 314.735979 3.456 
" clip-path="url(#p9af5bc4ae2)" style="fill: none; stroke: #b0b0b0; stroke-width: 0.8; stroke-linecap: square"/>
     </g>
     <g id="line2d_6">
      <g>
       <use xlink:href="#m3d0edf8f4c" x="314.735979" y="293.76" style="stroke: #000000; stroke-width: 0.8"/>
      </g>
     </g>
     <g id="text_3">
      <!-- 4 -->
      <g transform="translate(308.373479 315.956875)scale(0.2 -0.2)">
       <use xlink:href="#DejaVuSans-34"/>
      </g>
     </g>
    </g>
    <g id="xtick_4">
     <g id="line2d_7">
      <path d="M 419.685765 293.76 
L 419.685765 3.456 
" clip-path="url(#p9af5bc4ae2)" style="fill: none; stroke: #b0b0b0; stroke-width: 0.8; stroke-linecap: square"/>
     </g>
     <g id="line2d_8">
      <g>
       <use xlink:href="#m3d0edf8f4c" x="419.685765" y="293.76" style="stroke: #000000; stroke-width: 0.8"/>
      </g>
     </g>
     <g id="text_4">
      <!-- 8 -->
      <g transform="translate(413.323265 315.956875)scale(0.2 -0.2)">
       <defs>
        <path id="DejaVuSans-38" d="M 2034 2216 
Q 1584 2216 1326 1975 
Q 1069 1734 1069 1313 
Q 1069 891 1326 650 
Q 1584 409 2034 409 
Q 2484 409 2743 651 
Q 3003 894 3003 1313 
Q 3003 1734 2745 1975 
Q 2488 2216 2034 2216 
z
M 1403 2484 
Q 997 2584 770 2862 
Q 544 3141 544 3541 
Q 544 4100 942 4425 
Q 1341 4750 2034 4750 
Q 2731 4750 3128 4425 
Q 3525 4100 3525 3541 
Q 3525 3141 3298 2862 
Q 3072 2584 2669 2484 
Q 3125 2378 3379 2068 
Q 3634 1759 3634 1313 
Q 3634 634 3220 271 
Q 2806 -91 2034 -91 
Q 1263 -91 848 271 
Q 434 634 434 1313 
Q 434 1759 690 2068 
Q 947 2378 1403 2484 
z
M 1172 3481 
Q 1172 3119 1398 2916 
Q 1625 2713 2034 2713 
Q 2441 2713 2670 2916 
Q 2900 3119 2900 3481 
Q 2900 3844 2670 4047 
Q 2441 4250 2034 4250 
Q 1625 4250 1398 4047 
Q 1172 3844 1172 3481 
z
" transform="scale(0.015625)"/>
       </defs>
       <use xlink:href="#DejaVuSans-38"/>
      </g>
     </g>
    </g>
    <g id="text_5">
     <!-- log10 of Df -->
     <g transform="translate(175.214063 339.313125)scale(0.2 -0.2)">
      <defs>
       <path id="DejaVuSans-6c" d="M 603 4863 
L 1178 4863 
L 1178 0 
L 603 0 
L 603 4863 
z
" transform="scale(0.015625)"/>
       <path id="DejaVuSans-6f" d="M 1959 3097 
Q 1497 3097 1228 2736 
Q 959 2375 959 1747 
Q 959 1119 1226 758 
Q 1494 397 1959 397 
Q 2419 397 2687 759 
Q 2956 1122 2956 1747 
Q 2956 2369 2687 2733 
Q 2419 3097 1959 3097 
z
M 1959 3584 
Q 2709 3584 3137 3096 
Q 3566 2609 3566 1747 
Q 3566 888 3137 398 
Q 2709 -91 1959 -91 
Q 1206 -91 779 398 
Q 353 888 353 1747 
Q 353 2609 779 3096 
Q 1206 3584 1959 3584 
z
" transform="scale(0.015625)"/>
       <path id="DejaVuSans-67" d="M 2906 1791 
Q 2906 2416 2648 2759 
Q 2391 3103 1925 3103 
Q 1463 3103 1205 2759 
Q 947 2416 947 1791 
Q 947 1169 1205 825 
Q 1463 481 1925 481 
Q 2391 481 2648 825 
Q 2906 1169 2906 1791 
z
M 3481 434 
Q 3481 -459 3084 -895 
Q 2688 -1331 1869 -1331 
Q 1566 -1331 1297 -1286 
Q 1028 -1241 775 -1147 
L 775 -588 
Q 1028 -725 1275 -790 
Q 1522 -856 1778 -856 
Q 2344 -856 2625 -561 
Q 2906 -266 2906 331 
L 2906 616 
Q 2728 306 2450 153 
Q 2172 0 1784 0 
Q 1141 0 747 490 
Q 353 981 353 1791 
Q 353 2603 747 3093 
Q 1141 3584 1784 3584 
Q 2172 3584 2450 3431 
Q 2728 3278 2906 2969 
L 2906 3500 
L 3481 3500 
L 3481 434 
z
" transform="scale(0.015625)"/>
       <path id="DejaVuSans-31" d="M 794 531 
L 1825 531 
L 1825 4091 
L 703 3866 
L 703 4441 
L 1819 4666 
L 2450 4666 
L 2450 531 
L 3481 531 
L 3481 0 
L 794 0 
L 794 531 
z
" transform="scale(0.015625)"/>
       <path id="DejaVuSans-20" transform="scale(0.015625)"/>
       <path id="DejaVuSans-66" d="M 2375 4863 
L 2375 4384 
L 1825 4384 
Q 1516 4384 1395 4259 
Q 1275 4134 1275 3809 
L 1275 3500 
L 2222 3500 
L 2222 3053 
L 1275 3053 
L 1275 0 
L 697 0 
L 697 3053 
L 147 3053 
L 147 3500 
L 697 3500 
L 697 3744 
Q 697 4328 969 4595 
Q 1241 4863 1831 4863 
L 2375 4863 
z
" transform="scale(0.015625)"/>
       <path id="DejaVuSans-44" d="M 1259 4147 
L 1259 519 
L 2022 519 
Q 2988 519 3436 956 
Q 3884 1394 3884 2338 
Q 3884 3275 3436 3711 
Q 2988 4147 2022 4147 
L 1259 4147 
z
M 628 4666 
L 1925 4666 
Q 3281 4666 3915 4102 
Q 4550 3538 4550 2338 
Q 4550 1131 3912 565 
Q 3275 0 1925 0 
L 628 0 
L 628 4666 
z
" transform="scale(0.015625)"/>
      </defs>
      <use xlink:href="#DejaVuSans-6c"/>
      <use xlink:href="#DejaVuSans-6f" x="27.783203"/>
      <use xlink:href="#DejaVuSans-67" x="88.964844"/>
      <use xlink:href="#DejaVuSans-31" x="152.441406"/>
      <use xlink:href="#DejaVuSans-30" x="216.064453"/>
      <use xlink:href="#DejaVuSans-20" x="279.6875"/>
      <use xlink:href="#DejaVuSans-6f" x="311.474609"/>
      <use xlink:href="#DejaVuSans-66" x="372.65625"/>
      <use xlink:href="#DejaVuSans-20" x="407.861328"/>
      <use xlink:href="#DejaVuSans-44" x="439.648438"/>
      <use xlink:href="#DejaVuSans-66" x="516.650391"/>
     </g>
    </g>
   </g>
   <g id="matplotlib.axis_2">
    <g id="ytick_1">
     <g id="line2d_9">
      <path d="M 0 293.76 
L 460.8 293.76 
" clip-path="url(#p9af5bc4ae2)" style="fill: none; stroke: #b0b0b0; stroke-width: 0.8; stroke-linecap: square"/>
     </g>
     <g id="line2d_10">
      <defs>
       <path id="m3878e0519a" d="M 0 0 
L -3.5 0 
" style="stroke: #000000; stroke-width: 0.8"/>
      </defs>
      <g>
       <use xlink:href="#m3878e0519a" x="0" y="293.76" style="stroke: #000000; stroke-width: 0.8"/>
      </g>
     </g>
    </g>
    <g id="ytick_2">
     <g id="line2d_11">
      <path d="M 0 236.274059 
L 460.8 236.274059 
" clip-path="url(#p9af5bc4ae2)" style="fill: none; stroke: #b0b0b0; stroke-width: 0.8; stroke-linecap: square"/>
     </g>
     <g id="line2d_12">
      <g>
       <use xlink:href="#m3878e0519a" x="0" y="236.274059" style="stroke: #000000; stroke-width: 0.8"/>
      </g>
     </g>
    </g>
    <g id="ytick_3">
     <g id="line2d_13">
      <path d="M 0 178.788119 
L 460.8 178.788119 
" clip-path="url(#p9af5bc4ae2)" style="fill: none; stroke: #b0b0b0; stroke-width: 0.8; stroke-linecap: square"/>
     </g>
     <g id="line2d_14">
      <g>
       <use xlink:href="#m3878e0519a" x="0" y="178.788119" style="stroke: #000000; stroke-width: 0.8"/>
      </g>
     </g>
    </g>
    <g id="ytick_4">
     <g id="line2d_15">
      <path d="M 0 121.302178 
L 460.8 121.302178 
" clip-path="url(#p9af5bc4ae2)" style="fill: none; stroke: #b0b0b0; stroke-width: 0.8; stroke-linecap: square"/>
     </g>
     <g id="line2d_16">
      <g>
       <use xlink:href="#m3878e0519a" x="0" y="121.302178" style="stroke: #000000; stroke-width: 0.8"/>
      </g>
     </g>
    </g>
    <g id="ytick_5">
     <g id="line2d_17">
      <path d="M 0 63.816238 
L 460.8 63.816238 
" clip-path="url(#p9af5bc4ae2)" style="fill: none; stroke: #b0b0b0; stroke-width: 0.8; stroke-linecap: square"/>
     </g>
     <g id="line2d_18">
      <g>
       <use xlink:href="#m3878e0519a" x="0" y="63.816238" style="stroke: #000000; stroke-width: 0.8"/>
      </g>
     </g>
    </g>
    <g id="ytick_6">
     <g id="line2d_19">
      <path d="M 0 6.330297 
L 460.8 6.330297 
" clip-path="url(#p9af5bc4ae2)" style="fill: none; stroke: #b0b0b0; stroke-width: 0.8; stroke-linecap: square"/>
     </g>
     <g id="line2d_20">
      <g>
       <use xlink:href="#m3878e0519a" x="0" y="6.330297" style="stroke: #000000; stroke-width: 0.8"/>
      </g>
     </g>
    </g>
   </g>
   <g id="line2d_21">
    <path d="M -1 125.294257 
L -0.993142 125.294257 
L -0.940541 122.100594 
L -0.8701 122.100594 
L -0.782564 119.705347 
L -0.734445 119.705347 
L -0.636728 114.914851 
L -0.600437 114.914851 
L -0.549226 112.519604 
L -0.474419 112.519604 
L -0.395584 110.124356 
L -0.326741 110.124356 
L -0.251589 107.729109 
L -0.212834 107.729109 
L -0.113382 91.760792 
L 108.22773 91.760792 
L 108.22773 90.962376 
L 129.005878 90.962376 
L 129.005878 90.16396 
L 132.891897 90.16396 
L 132.891897 89.365545 
L 141.820206 89.365545 
L 141.820206 88.567129 
L 157.898597 88.567129 
L 157.898597 87.768713 
L 160.55917 87.768713 
L 160.55917 86.970297 
L 160.970491 86.970297 
L 160.970491 86.171881 
L 162.115054 86.171881 
L 162.115054 85.373465 
L 162.420122 85.373465 
L 162.420122 84.57505 
L 165.04565 84.57505 
L 165.156533 82.978218 
L 165.733255 82.978218 
L 165.733255 82.179802 
L 168.358644 82.179802 
L 168.358644 81.381386 
L 172.756499 81.381386 
L 172.756499 80.58297 
L 177.578737 80.58297 
L 177.578737 78.187723 
L 180.308464 78.187723 
L 180.308464 77.389307 
L 183.995587 77.389307 
L 183.995587 76.590891 
L 185.476995 76.590891 
L 185.476995 74.994059 
L 185.80414 74.994059 
L 185.80414 74.195644 
L 187.033428 74.195644 
L 187.033428 73.397228 
L 188.235702 73.397228 
L 188.236193 71.800396 
L 188.593025 71.800396 
L 188.593025 71.00198 
L 190.09718 71.00198 
L 190.09718 67.808317 
L 193.375254 67.808317 
L 193.375254 64.614653 
L 194.697126 64.614653 
L 194.697126 63.816238 
L 196.736659 63.816238 
L 196.736659 63.017822 
L 196.978414 63.017822 
L 196.978414 62.219406 
L 197.72892 62.219406 
L 197.72892 61.42099 
L 197.995439 61.42099 
L 197.995439 60.622574 
L 199.542424 60.622574 
L 199.542424 59.824158 
L 205.588628 59.824158 
L 205.588628 49.444752 
L 208.580732 49.444752 
L 208.580732 48.646337 
L 208.959233 48.646337 
L 208.959233 47.847921 
L 212.285531 47.847921 
L 212.285531 47.049505 
L 213.010608 47.049505 
L 213.010608 46.251089 
L 213.248267 46.251089 
L 213.248267 45.452673 
L 214.875252 45.452673 
L 214.875252 44.654257 
L 215.250426 44.654257 
L 215.250426 43.855842 
L 217.425133 43.855842 
L 217.425133 42.25901 
L 217.680945 42.25901 
L 217.680945 40.662178 
L 220.632532 40.662178 
L 220.632532 39.863762 
L 222.24705 39.863762 
L 222.24705 39.065347 
L 225.525123 39.065347 
L 225.525123 34.274851 
L 227.453543 34.274851 
L 227.453543 33.476436 
L 228.067794 33.476436 
L 228.067794 31.081188 
L 228.267466 31.081188 
L 228.267466 29.484356 
L 230.145308 29.484356 
L 230.145308 27.089109 
L 231.901821 27.089109 
L 231.901821 25.492277 
L 237.052091 25.492277 
L 237.052091 24.693861 
L 238.043567 24.693861 
L 238.043567 21.500198 
L 238.955635 21.500198 
L 238.955635 18.306535 
L 239.800075 18.306535 
L 239.800079 14.314455 
L 240.324001 14.314455 
L 240.324001 13.51604 
L 240.586238 13.51604 
L 240.586238 12.717624 
L 244.096988 12.717624 
L 244.164581 6.330297 
L 244.164581 6.330297 
L 460.8 6.330297 
L 460.8 6.330297 
" clip-path="url(#p9af5bc4ae2)" style="fill: none; stroke: #ff0000; stroke-width: 3; stroke-linecap: square"/>
   </g>
   <g id="line2d_22">
    <path d="M 194.006697 293.76 
L 194.006697 281.783762 
L 228.547216 281.783762 
L 228.547216 280.985347 
L 229.260559 280.985347 
L 229.260559 280.186931 
L 230.367843 280.186931 
L 230.367843 279.388515 
L 230.631505 279.388515 
L 230.631505 278.590099 
L 231.955001 278.590099 
L 231.955001 277.791683 
L 232.327325 277.791683 
L 232.327325 276.993267 
L 232.461082 276.993267 
L 232.461082 276.194851 
L 232.576836 276.194851 
L 232.663557 274.59802 
L 233.598004 274.59802 
L 233.598004 273.799604 
L 233.912535 273.799604 
L 233.912535 273.001188 
L 235.465105 273.001188 
L 235.465105 272.202772 
L 235.999033 272.202772 
L 235.999033 271.404356 
L 236.172892 271.404356 
L 236.172892 270.605941 
L 236.302723 270.605941 
L 236.383986 268.210693 
L 236.656501 268.210693 
L 236.656501 267.412277 
L 237.137824 267.412277 
L 237.137824 266.613861 
L 238.155455 266.613861 
L 238.155455 265.815446 
L 239.041312 265.815446 
L 239.041312 265.01703 
L 239.298622 265.01703 
L 239.298622 264.218614 
L 240.0163 264.218614 
L 240.0163 263.420198 
L 240.179922 263.420198 
L 240.277575 261.823366 
L 240.429711 261.823366 
L 240.429711 261.02495 
L 240.97899 261.02495 
L 240.97899 260.226535 
L 243.385014 260.226535 
L 243.385014 259.428119 
L 246.09789 259.428119 
L 246.09789 258.629703 
L 246.30586 258.629703 
L 246.30586 257.831287 
L 247.676674 257.831287 
L 247.676674 257.032871 
L 247.805983 257.032871 
L 247.805983 256.234455 
L 249.796105 256.234455 
L 249.796105 255.43604 
L 250.520505 255.43604 
L 250.528818 253.839208 
L 250.645168 253.839208 
L 250.645168 253.040792 
L 250.871021 253.040792 
L 250.871021 252.242376 
L 251.03133 252.242376 
L 251.03133 251.44396 
L 251.212954 251.44396 
L 251.212954 250.645545 
L 252.102679 250.645545 
L 252.172656 248.250297 
L 252.578119 248.250297 
L 252.578119 247.451881 
L 252.852913 247.451881 
L 252.852913 246.653465 
L 253.145972 246.653465 
L 253.199678 245.056634 
L 253.373912 245.056634 
L 253.373912 244.258218 
L 253.581687 244.258218 
L 253.676498 241.86297 
L 253.940646 241.86297 
L 253.940646 241.064554 
L 254.375719 241.064554 
L 254.464863 239.467723 
L 254.544739 239.467723 
L 254.544739 238.669307 
L 254.657139 238.669307 
L 254.682059 237.072475 
L 255.13177 237.072475 
L 255.160927 235.475644 
L 255.34564 235.475644 
L 255.34564 234.677228 
L 255.542345 234.677228 
L 255.603614 231.483564 
L 256.0488 231.483564 
L 256.0488 230.685149 
L 256.76509 230.685149 
L 256.76509 229.886733 
L 256.942422 229.886733 
L 256.942422 229.088317 
L 257.111553 229.088317 
L 257.18401 227.491485 
L 257.925261 227.491485 
L 257.972287 225.894653 
L 258.156403 225.894653 
L 258.263105 223.499406 
L 258.447005 223.499406 
L 258.513743 221.902574 
L 258.598012 221.902574 
L 258.598012 221.104158 
L 258.725172 221.104158 
L 258.725172 220.305743 
L 258.894387 220.305743 
L 258.894387 219.507327 
L 259.16704 219.507327 
L 259.22664 216.313663 
L 259.305036 216.313663 
L 259.384434 213.12 
L 259.434361 213.12 
L 259.529859 209.926337 
L 259.645086 209.926337 
L 259.697304 206.732673 
L 259.757114 206.732673 
L 259.865817 204.337426 
L 259.938643 204.337426 
L 260.045506 201.143762 
L 260.065295 201.143762 
L 260.065295 200.345347 
L 260.286145 200.345347 
L 260.286145 199.546931 
L 260.579014 199.546931 
L 260.579014 198.748515 
L 260.903202 198.748515 
L 260.903202 197.950099 
L 261.031726 197.950099 
L 261.031726 197.151683 
L 261.61358 197.151683 
L 261.61358 196.353267 
L 261.804178 196.353267 
L 261.836839 194.756436 
L 262.110502 194.756436 
L 262.110502 193.95802 
L 262.292726 193.95802 
L 262.292726 193.159604 
L 262.527829 193.159604 
L 262.554908 191.562772 
L 263.906555 191.562772 
L 263.906555 190.764356 
L 264.263616 190.764356 
L 264.263616 189.965941 
L 264.402971 189.965941 
L 264.402971 189.167525 
L 264.635426 189.167525 
L 264.666192 176.392871 
L 265.038492 176.392871 
L 265.038492 175.594455 
L 265.862509 175.594455 
L 265.862509 174.79604 
L 266.874606 174.79604 
L 266.874606 173.997624 
L 273.319165 173.997624 
L 273.319165 173.199208 
L 274.107919 173.199208 
L 274.107919 172.400792 
L 274.263431 172.400792 
L 274.263431 171.602376 
L 274.749677 171.602376 
L 274.749677 170.80396 
L 275.057684 170.80396 
L 275.090831 168.408713 
L 275.176965 168.408713 
L 275.266997 166.013465 
L 275.291332 166.013465 
L 275.372241 163.618218 
L 275.40284 163.618218 
L 275.40284 162.819802 
L 275.525632 162.819802 
L 275.607725 161.22297 
L 275.640827 161.22297 
L 275.670367 158.827723 
L 275.765442 158.827723 
L 275.858009 157.230891 
L 275.891204 157.230891 
L 275.968954 154.037228 
L 276.052498 154.037228 
L 276.144909 152.440396 
L 276.281087 152.440396 
L 276.281087 151.64198 
L 276.41221 151.64198 
L 276.474085 150.045149 
L 276.582085 150.045149 
L 276.582085 149.246733 
L 276.873415 149.246733 
L 276.978427 147.649901 
L 277.250498 147.649901 
L 277.250498 146.851485 
L 277.987234 146.851485 
L 277.987234 146.053069 
L 279.343931 146.053069 
L 279.343931 145.254653 
L 279.886619 145.254653 
L 279.886619 144.456238 
L 280.314059 144.456238 
L 280.314059 143.657822 
L 280.990546 143.657822 
L 281.042631 141.262574 
L 281.990111 141.262574 
L 281.990111 140.464158 
L 282.322547 140.464158 
L 282.322547 139.665743 
L 282.483686 139.665743 
L 282.575343 136.472079 
L 282.895413 136.472079 
L 282.895413 135.673663 
L 283.014649 135.673663 
L 283.047738 134.076832 
L 283.407818 134.076832 
L 283.475293 130.883168 
L 283.587309 130.883168 
L 283.655459 129.286337 
L 283.732012 129.286337 
L 283.739431 127.689505 
L 284.049935 127.689505 
L 284.15794 126.092673 
L 284.334146 126.092673 
L 284.443381 123.697426 
L 284.48385 123.697426 
L 284.551734 121.302178 
L 284.787348 121.302178 
L 284.787348 120.503762 
L 284.928969 120.503762 
L 284.928969 119.705347 
L 285.110356 119.705347 
L 285.191562 117.310099 
L 285.501199 117.310099 
L 285.501199 116.511683 
L 285.663897 116.511683 
L 285.756794 114.914851 
L 285.787366 114.914851 
L 285.787366 114.116436 
L 285.898739 114.116436 
L 285.993401 112.519604 
L 286.19688 112.519604 
L 286.19688 111.721188 
L 286.32999 111.721188 
L 286.32999 110.922772 
L 286.479069 110.922772 
L 286.558997 109.325941 
L 286.622898 109.325941 
L 286.622898 108.527525 
L 287.454147 108.527525 
L 287.454147 107.729109 
L 287.589666 107.729109 
L 287.589666 106.930693 
L 288.360743 106.930693 
L 288.360743 106.132277 
L 288.752337 106.132277 
L 288.752337 105.333861 
L 288.896395 105.333861 
L 288.896395 104.535446 
L 290.838929 104.535446 
L 290.838929 103.73703 
L 292.732345 103.73703 
L 292.732345 102.938614 
L 293.387015 102.938614 
L 293.387015 102.140198 
L 294.414486 102.140198 
L 294.425099 100.543366 
L 294.527133 100.543366 
L 294.527133 99.74495 
L 294.91796 99.74495 
L 294.91796 98.946535 
L 295.030209 98.946535 
L 295.100439 96.551287 
L 295.263073 96.551287 
L 295.263073 95.752871 
L 295.462088 95.752871 
L 295.462088 94.954455 
L 296.037797 94.954455 
L 296.098488 92.559208 
L 296.778052 92.559208 
L 296.778052 91.760792 
L 297.896913 91.760792 
L 297.896913 90.962376 
L 298.219268 90.962376 
L 298.219268 90.16396 
L 299.792769 90.16396 
L 299.792769 89.365545 
L 303.549249 89.365545 
L 303.549249 88.567129 
L 305.836292 88.567129 
L 305.836292 87.768713 
L 314.673991 87.768713 
L 314.673991 86.970297 
L 316.058346 86.970297 
L 316.058346 86.171881 
L 316.455092 86.171881 
L 316.455092 85.373465 
L 319.060689 85.373465 
L 319.060689 84.57505 
L 321.634234 84.57505 
L 321.634234 73.397228 
L 325.648727 73.397228 
L 325.648727 72.598812 
L 325.793812 72.598812 
L 325.793812 71.800396 
L 328.173191 71.800396 
L 328.173191 71.00198 
L 329.066111 71.00198 
L 329.066111 70.203564 
L 330.29981 70.203564 
L 330.368565 68.606733 
L 331.370565 68.606733 
L 331.370565 67.808317 
L 332.288379 67.808317 
L 332.288379 67.009901 
L 332.470537 67.009901 
L 332.470537 66.211485 
L 334.394615 66.211485 
L 334.394615 65.413069 
L 336.398089 65.413069 
L 336.398089 64.614653 
L 336.761108 64.614653 
L 336.761108 63.816238 
L 337.075056 63.816238 
L 337.075056 63.017822 
L 338.08405 63.017822 
L 338.191431 61.42099 
L 338.899681 61.42099 
L 338.899681 60.622574 
L 343.012546 60.622574 
L 343.012546 59.824158 
L 346.339417 59.824158 
L 346.339417 59.025743 
L 348.550558 59.025743 
L 348.550558 58.227327 
L 349.493433 58.227327 
L 349.493433 57.428911 
L 351.350778 57.428911 
L 351.350778 56.630495 
L 352.164053 56.630495 
L 352.164053 55.832079 
L 352.721945 55.832079 
L 352.721945 55.033663 
L 353.734301 55.033663 
L 353.734301 54.235248 
L 354.110089 54.235248 
L 354.110089 53.436832 
L 354.53241 53.436832 
L 354.53241 52.638416 
L 355.473624 52.638416 
L 355.473624 51.84 
L 355.949439 51.84 
L 355.949439 51.041584 
L 356.117159 51.041584 
L 356.117159 50.243168 
L 358.237729 50.243168 
L 358.237729 49.444752 
L 358.467687 49.444752 
L 358.467687 48.646337 
L 360.294091 48.646337 
L 360.294091 47.847921 
L 361.162904 47.847921 
L 361.162904 47.049505 
L 363.554325 47.049505 
L 363.554325 46.251089 
L 364.514984 46.251089 
L 364.549048 44.654257 
L 366.78312 44.654257 
L 366.78312 43.855842 
L 367.378057 43.855842 
L 367.378057 43.057426 
L 367.717035 43.057426 
L 367.717035 42.25901 
L 368.998407 42.25901 
L 368.998407 41.460594 
L 369.351557 41.460594 
L 369.351557 40.662178 
L 373.661824 40.662178 
L 373.661824 39.863762 
L 375.018167 39.863762 
L 375.018167 39.065347 
L 375.574302 39.065347 
L 375.574302 38.266931 
L 376.7513 38.266931 
L 376.7513 37.468515 
L 377.114775 37.468515 
L 377.114775 36.670099 
L 378.503758 36.670099 
L 378.503758 35.871683 
L 378.916525 35.871683 
L 378.916525 35.073267 
L 380.249018 35.073267 
L 380.249018 34.274851 
L 380.673693 34.274851 
L 380.673693 33.476436 
L 381.53618 33.476436 
L 381.599949 31.879604 
L 382.007779 31.879604 
L 382.092986 30.282772 
L 382.150745 30.282772 
L 382.150745 29.484356 
L 382.318873 29.484356 
L 382.318873 28.685941 
L 383.189499 28.685941 
L 383.189499 27.887525 
L 383.46837 27.887525 
L 383.46837 27.089109 
L 386.061271 27.089109 
L 386.061271 26.290693 
L 386.403795 26.290693 
L 386.403795 25.492277 
L 387.130244 25.492277 
L 387.130244 24.693861 
L 388.051564 24.693861 
L 388.051564 23.895446 
L 388.332354 23.895446 
L 388.332354 23.09703 
L 389.05881 23.09703 
L 389.05881 22.298614 
L 389.555534 22.298614 
L 389.555534 21.500198 
L 389.826574 21.500198 
L 389.826574 20.701782 
L 390.562176 20.701782 
L 390.562176 19.903366 
L 392.195921 19.903366 
L 392.195921 19.10495 
L 394.21237 19.10495 
L 394.21237 18.306535 
L 418.614313 18.306535 
L 418.614313 17.508119 
L 420.078245 17.508119 
L 420.078245 16.709703 
L 421.951408 16.709703 
L 421.951408 15.911287 
L 423.545656 15.911287 
L 423.545656 15.112871 
L 423.680303 15.112871 
L 423.680303 14.314455 
L 424.807506 14.314455 
L 424.807506 13.51604 
L 426.078613 13.51604 
L 426.078613 12.717624 
L 426.192017 12.717624 
L 426.192017 11.919208 
L 426.320542 11.919208 
L 426.320542 11.120792 
L 426.884556 11.120792 
L 426.884556 10.322376 
L 428.461646 10.322376 
L 428.461646 9.52396 
L 431.65619 9.52396 
L 431.766784 7.927129 
L 433.406514 7.927129 
L 433.406514 7.128713 
L 434.351563 7.128713 
L 434.351563 6.330297 
L 434.351563 6.330297 
L 460.8 6.330297 
L 460.8 6.330297 
" clip-path="url(#p9af5bc4ae2)" style="fill: none; stroke: #00bfbf; stroke-width: 1.5; stroke-linecap: square"/>
   </g>
   <g id="line2d_23">
    <path d="M 194.006697 293.76 
L 194.006697 281.783762 
L 226.43785 281.783762 
L 226.43785 280.985347 
L 226.857484 280.985347 
L 226.857484 280.186931 
L 227.234724 280.186931 
L 227.234724 279.388515 
L 228.547216 279.388515 
L 228.547216 278.590099 
L 228.66702 278.590099 
L 228.66702 277.791683 
L 230.367843 277.791683 
L 230.367843 276.993267 
L 230.574187 276.993267 
L 230.631505 275.396436 
L 230.938233 275.396436 
L 230.938233 274.59802 
L 232.044838 274.59802 
L 232.044838 273.799604 
L 232.205643 273.799604 
L 232.205643 273.001188 
L 232.461082 273.001188 
L 232.461082 272.202772 
L 232.576836 272.202772 
L 232.576836 271.404356 
L 233.912535 271.404356 
L 233.912535 270.605941 
L 234.729727 270.605941 
L 234.729727 269.807525 
L 235.832939 269.807525 
L 235.832939 269.009109 
L 236.172892 269.009109 
L 236.172892 268.210693 
L 236.344592 268.210693 
L 236.383986 266.613861 
L 237.137824 266.613861 
L 237.137824 265.815446 
L 237.762376 265.815446 
L 237.772281 264.218614 
L 238.763034 264.218614 
L 238.763034 263.420198 
L 239.208678 263.420198 
L 239.298622 261.823366 
L 240.0163 261.823366 
L 240.0163 261.02495 
L 240.179922 261.02495 
L 240.266704 259.428119 
L 241.715974 259.428119 
L 241.715974 258.629703 
L 245.86801 258.629703 
L 245.86801 257.831287 
L 246.09789 257.831287 
L 246.09789 257.032871 
L 247.205843 257.032871 
L 247.205843 256.234455 
L 247.651502 256.234455 
L 247.676674 254.637624 
L 247.805983 254.637624 
L 247.805983 253.839208 
L 248.684077 253.839208 
L 248.684077 253.040792 
L 248.825336 253.040792 
L 248.825336 252.242376 
L 249.242641 252.242376 
L 249.242641 251.44396 
L 249.580626 251.44396 
L 249.580626 250.645545 
L 250.245714 250.645545 
L 250.302491 249.048713 
L 250.514947 249.048713 
L 250.514947 248.250297 
L 250.645168 248.250297 
L 250.645168 247.451881 
L 250.779688 247.451881 
L 250.871021 245.056634 
L 251.257049 245.056634 
L 251.257049 244.258218 
L 252.341111 244.258218 
L 252.402792 242.661386 
L 252.578119 242.661386 
L 252.630092 241.064554 
L 252.852913 241.064554 
L 252.852913 240.266139 
L 253.167005 240.266139 
L 253.199678 238.669307 
L 253.364527 238.669307 
L 253.373912 237.072475 
L 253.581687 237.072475 
L 253.676498 234.677228 
L 253.940646 234.677228 
L 254.022039 233.080396 
L 254.375719 233.080396 
L 254.464863 230.685149 
L 254.544739 230.685149 
L 254.544739 229.886733 
L 254.682059 229.886733 
L 254.682059 229.088317 
L 255.569784 229.088317 
L 255.643806 227.491485 
L 256.14169 227.491485 
L 256.14169 226.693069 
L 256.265963 226.693069 
L 256.265963 225.894653 
L 257.111553 225.894653 
L 257.195382 223.499406 
L 257.547118 223.499406 
L 257.547118 222.70099 
L 257.921206 222.70099 
L 257.921206 221.902574 
L 258.156403 221.902574 
L 258.263105 220.305743 
L 258.447005 220.305743 
L 258.513743 218.708911 
L 258.598012 218.708911 
L 258.598012 217.910495 
L 258.725172 217.910495 
L 258.806378 216.313663 
L 258.894387 216.313663 
L 258.955349 213.918416 
L 259.073433 213.918416 
L 259.16704 210.724752 
L 259.201091 210.724752 
L 259.310842 206.732673 
L 259.33457 206.732673 
L 259.438495 203.53901 
L 259.445809 203.53901 
L 259.445809 202.740594 
L 259.645086 202.740594 
L 259.697304 198.748515 
L 259.865817 198.748515 
L 259.938643 197.151683 
L 259.985143 197.151683 
L 260.027981 195.554851 
L 260.379527 195.554851 
L 260.479684 193.95802 
L 260.579014 193.95802 
L 260.579014 193.159604 
L 260.85686 193.159604 
L 260.85686 192.361188 
L 261.031726 192.361188 
L 261.031726 191.562772 
L 261.1664 191.562772 
L 261.1664 190.764356 
L 262.292726 190.764356 
L 262.292726 189.965941 
L 262.554908 189.965941 
L 262.554908 189.167525 
L 263.242948 189.167525 
L 263.242948 188.369109 
L 264.402971 188.369109 
L 264.402971 187.570693 
L 264.635426 187.570693 
L 264.666192 174.79604 
L 266.01 174.79604 
L 266.01 173.997624 
L 271.76124 173.997624 
L 271.76124 173.199208 
L 272.293023 173.199208 
L 272.293023 172.400792 
L 272.442255 172.400792 
L 272.442255 171.602376 
L 272.582473 171.602376 
L 272.582473 170.80396 
L 273.319165 170.80396 
L 273.319165 170.005545 
L 273.63573 170.005545 
L 273.63573 169.207129 
L 274.180113 169.207129 
L 274.180113 168.408713 
L 274.309211 168.408713 
L 274.309211 167.610297 
L 274.479401 167.610297 
L 274.496761 166.013465 
L 274.643862 166.013465 
L 274.749677 163.618218 
L 274.796199 163.618218 
L 274.815003 162.021386 
L 275.088321 162.021386 
L 275.176965 160.424554 
L 275.246266 160.424554 
L 275.317689 157.230891 
L 275.39935 157.230891 
L 275.40284 155.634059 
L 275.525632 155.634059 
L 275.525632 154.835644 
L 275.640827 154.835644 
L 275.68806 153.238812 
L 275.765442 153.238812 
L 275.765442 152.440396 
L 275.891204 152.440396 
L 275.968954 150.045149 
L 276.281087 150.045149 
L 276.281087 149.246733 
L 276.41221 149.246733 
L 276.474085 147.649901 
L 276.582085 147.649901 
L 276.582085 146.851485 
L 277.250498 146.851485 
L 277.250498 146.053069 
L 277.954044 146.053069 
L 277.987234 144.456238 
L 278.495139 144.456238 
L 278.495139 143.657822 
L 279.343931 143.657822 
L 279.400072 142.06099 
L 279.630789 142.06099 
L 279.630789 141.262574 
L 279.886619 141.262574 
L 279.886619 140.464158 
L 280.15439 140.464158 
L 280.15439 139.665743 
L 280.273452 139.665743 
L 280.369322 137.270495 
L 280.441845 137.270495 
L 280.470697 135.673663 
L 280.663733 135.673663 
L 280.663733 134.875248 
L 281.014013 134.875248 
L 281.042631 133.278416 
L 281.559417 133.278416 
L 281.559417 132.48 
L 281.673607 132.48 
L 281.673607 131.681584 
L 281.943124 131.681584 
L 282.016379 129.286337 
L 282.322547 129.286337 
L 282.427939 127.689505 
L 282.483686 127.689505 
L 282.575343 125.294257 
L 282.646395 125.294257 
L 282.646395 124.495842 
L 282.761192 124.495842 
L 282.852576 122.89901 
L 283.014649 122.89901 
L 283.047738 120.503762 
L 283.252826 120.503762 
L 283.252826 119.705347 
L 283.407818 119.705347 
L 283.490397 115.713267 
L 283.6815 115.713267 
L 283.725875 114.116436 
L 283.882664 114.116436 
L 283.930002 112.519604 
L 284.04671 112.519604 
L 284.04671 111.721188 
L 284.15794 111.721188 
L 284.15794 110.922772 
L 284.518318 110.922772 
L 284.551734 109.325941 
L 284.787348 109.325941 
L 284.787348 108.527525 
L 284.926435 108.527525 
L 284.930737 106.930693 
L 285.146696 106.930693 
L 285.146696 106.132277 
L 285.823124 106.132277 
L 285.823124 105.333861 
L 286.134915 105.333861 
L 286.19688 103.73703 
L 286.558997 103.73703 
L 286.558997 102.938614 
L 286.821927 102.938614 
L 286.821927 102.140198 
L 288.161468 102.140198 
L 288.161468 101.341782 
L 289.844676 101.341782 
L 289.844676 100.543366 
L 291.009201 100.543366 
L 291.009201 99.74495 
L 291.768075 99.74495 
L 291.768075 98.946535 
L 292.732345 98.946535 
L 292.732345 98.148119 
L 293.006096 98.148119 
L 293.006096 97.349703 
L 293.387015 97.349703 
L 293.387015 96.551287 
L 294.414486 96.551287 
L 294.425099 94.954455 
L 294.527133 94.954455 
L 294.63395 93.357624 
L 294.753397 93.357624 
L 294.753397 92.559208 
L 295.030209 92.559208 
L 295.100439 90.962376 
L 295.148578 90.962376 
L 295.148578 90.16396 
L 295.263073 90.16396 
L 295.263073 89.365545 
L 295.462088 89.365545 
L 295.515276 86.970297 
L 296.473183 86.970297 
L 296.473183 86.171881 
L 303.549249 86.171881 
L 303.549249 85.373465 
L 305.216571 85.373465 
L 305.216571 84.57505 
L 309.437907 84.57505 
L 309.437907 83.776634 
L 310.645634 83.776634 
L 310.645634 82.978218 
L 312.056923 82.978218 
L 312.056923 82.179802 
L 315.663056 82.179802 
L 315.663056 81.381386 
L 316.828419 81.381386 
L 316.828419 80.58297 
L 318.033574 80.58297 
L 318.033574 79.784554 
L 318.817159 79.784554 
L 318.817159 78.986139 
L 321.634234 78.986139 
L 321.634234 70.203564 
L 325.648727 70.203564 
L 325.648727 69.405149 
L 328.06336 69.405149 
L 328.173191 67.808317 
L 329.066111 67.808317 
L 329.066111 67.009901 
L 330.29981 67.009901 
L 330.368565 65.413069 
L 331.370565 65.413069 
L 331.370565 64.614653 
L 332.288379 64.614653 
L 332.288379 63.816238 
L 332.470537 63.816238 
L 332.470537 63.017822 
L 334.394615 63.017822 
L 334.394615 62.219406 
L 336.398089 62.219406 
L 336.398089 61.42099 
L 336.761108 61.42099 
L 336.761108 60.622574 
L 337.075056 60.622574 
L 337.075056 59.824158 
L 337.820067 59.824158 
L 337.820067 59.025743 
L 338.08405 59.025743 
L 338.191431 57.428911 
L 339.923733 57.428911 
L 339.923733 56.630495 
L 341.315371 56.630495 
L 341.315371 55.832079 
L 342.436798 55.832079 
L 342.436798 55.033663 
L 343.528485 55.033663 
L 343.528485 54.235248 
L 343.985307 54.235248 
L 343.985307 53.436832 
L 346.606297 53.436832 
L 346.606297 52.638416 
L 347.688239 52.638416 
L 347.688239 51.84 
L 348.48172 51.84 
L 348.48172 51.041584 
L 349.316532 51.041584 
L 349.316532 50.243168 
L 349.493433 50.243168 
L 349.493433 49.444752 
L 350.088894 49.444752 
L 350.088894 48.646337 
L 352.598901 48.646337 
L 352.598901 47.847921 
L 353.070282 47.847921 
L 353.070282 47.049505 
L 353.734301 47.049505 
L 353.734301 46.251089 
L 354.509454 46.251089 
L 354.509454 45.452673 
L 359.907123 45.452673 
L 359.907123 44.654257 
L 360.70835 44.654257 
L 360.70835 43.855842 
L 360.894171 43.855842 
L 360.894171 43.057426 
L 361.058356 43.057426 
L 361.058356 42.25901 
L 364.549048 42.25901 
L 364.555139 40.662178 
L 369.351557 40.662178 
L 369.351557 39.863762 
L 370.673432 39.863762 
L 370.673432 39.065347 
L 370.898029 39.065347 
L 370.898029 38.266931 
L 373.010108 38.266931 
L 373.010108 37.468515 
L 373.438125 37.468515 
L 373.438125 36.670099 
L 373.661824 36.670099 
L 373.745792 34.274851 
L 375.566893 34.274851 
L 375.574302 32.67802 
L 376.7513 32.67802 
L 376.7513 31.879604 
L 377.114775 31.879604 
L 377.148552 30.282772 
L 377.403595 30.282772 
L 377.403595 29.484356 
L 378.054837 29.484356 
L 378.108697 27.887525 
L 378.293141 27.887525 
L 378.293141 27.089109 
L 379.022277 27.089109 
L 379.022277 26.290693 
L 379.137492 26.290693 
L 379.137492 25.492277 
L 379.2971 25.492277 
L 379.385198 23.895446 
L 381.599949 23.895446 
L 381.599949 23.09703 
L 382.318873 23.09703 
L 382.318873 22.298614 
L 384.410587 22.298614 
L 384.410587 21.500198 
L 386.095917 21.500198 
L 386.095917 20.701782 
L 386.421898 20.701782 
L 386.421898 19.903366 
L 387.327821 19.903366 
L 387.327821 19.10495 
L 387.608967 19.10495 
L 387.608967 18.306535 
L 414.598114 18.306535 
L 414.598114 17.508119 
L 417.486414 17.508119 
L 417.486414 16.709703 
L 418.166699 16.709703 
L 418.166699 15.911287 
L 418.614313 15.911287 
L 418.614313 15.112871 
L 420.078245 15.112871 
L 420.078245 14.314455 
L 422.367104 14.314455 
L 422.367104 13.51604 
L 422.791659 13.51604 
L 422.791659 12.717624 
L 423.545656 12.717624 
L 423.545656 11.919208 
L 423.680303 11.919208 
L 423.680303 11.120792 
L 426.320542 11.120792 
L 426.320542 10.322376 
L 426.686097 10.322376 
L 426.686097 9.52396 
L 428.461646 9.52396 
L 428.461646 8.725545 
L 431.165849 8.725545 
L 431.165849 7.927129 
L 431.65619 7.927129 
L 431.65619 7.128713 
L 432.917139 7.128713 
L 432.917139 6.330297 
L 432.917139 6.330297 
L 460.8 6.330297 
L 460.8 6.330297 
" clip-path="url(#p9af5bc4ae2)" style="fill: none; stroke: #bf00bf; stroke-width: 1.5; stroke-linecap: square"/>
   </g>
   <g id="line2d_24">
    <path d="M 194.006697 293.76 
L 194.006697 281.783762 
L 226.43785 281.783762 
L 226.43785 280.985347 
L 226.857484 280.985347 
L 226.857484 280.186931 
L 227.234724 280.186931 
L 227.234724 279.388515 
L 228.127232 279.388515 
L 228.127232 278.590099 
L 228.547216 278.590099 
L 228.547216 277.791683 
L 229.153306 277.791683 
L 229.20663 276.194851 
L 229.67634 276.194851 
L 229.67634 275.396436 
L 229.965733 275.396436 
L 229.965733 274.59802 
L 230.367843 274.59802 
L 230.367843 273.799604 
L 230.631505 273.799604 
L 230.631505 273.001188 
L 230.938233 273.001188 
L 230.938233 272.202772 
L 231.278603 272.202772 
L 231.278603 271.404356 
L 231.488947 271.404356 
L 231.488947 270.605941 
L 232.205643 270.605941 
L 232.205643 269.807525 
L 232.576836 269.807525 
L 232.576836 269.009109 
L 235.069484 269.009109 
L 235.069484 268.210693 
L 235.310762 268.210693 
L 235.310762 267.412277 
L 235.481072 267.412277 
L 235.481072 266.613861 
L 236.021655 266.613861 
L 236.052562 265.01703 
L 236.383986 265.01703 
L 236.383986 264.218614 
L 237.137824 264.218614 
L 237.226802 262.621782 
L 237.448696 262.621782 
L 237.448696 261.823366 
L 237.762376 261.823366 
L 237.762376 261.02495 
L 238.525065 261.02495 
L 238.525065 260.226535 
L 238.763034 260.226535 
L 238.763034 259.428119 
L 239.298622 259.428119 
L 239.351685 257.831287 
L 239.646308 257.831287 
L 239.698275 256.234455 
L 241.162792 256.234455 
L 241.162792 255.43604 
L 244.760719 255.43604 
L 244.760719 254.637624 
L 245.912642 254.637624 
L 245.912642 253.839208 
L 246.09789 253.839208 
L 246.09789 253.040792 
L 246.600983 253.040792 
L 246.600983 252.242376 
L 246.812167 252.242376 
L 246.812167 251.44396 
L 246.949475 251.44396 
L 246.949475 250.645545 
L 247.328871 250.645545 
L 247.328871 249.847129 
L 247.676674 249.847129 
L 247.676674 249.048713 
L 247.805983 249.048713 
L 247.805983 248.250297 
L 247.963994 248.250297 
L 247.963994 247.451881 
L 248.400485 247.451881 
L 248.400485 246.653465 
L 248.684077 246.653465 
L 248.684077 245.85505 
L 249.242641 245.85505 
L 249.280556 243.459802 
L 250.245714 243.459802 
L 250.295163 241.86297 
L 250.514947 241.86297 
L 250.514947 241.064554 
L 250.779688 241.064554 
L 250.779688 240.266139 
L 251.18675 240.266139 
L 251.257049 238.669307 
L 251.382518 238.669307 
L 251.382518 237.870891 
L 251.544714 237.870891 
L 251.544714 237.072475 
L 251.86071 237.072475 
L 251.86071 236.274059 
L 252.057496 236.274059 
L 252.092768 234.677228 
L 252.402792 234.677228 
L 252.502252 233.080396 
L 252.630092 233.080396 
L 252.630092 232.28198 
L 252.757802 232.28198 
L 252.811291 229.088317 
L 252.977653 229.088317 
L 252.979742 227.491485 
L 253.158359 227.491485 
L 253.167005 225.894653 
L 253.7237 225.894653 
L 253.777841 224.297822 
L 254.263482 224.297822 
L 254.263482 223.499406 
L 254.856604 223.499406 
L 254.946803 221.902574 
L 255.514492 221.902574 
L 255.573655 219.507327 
L 255.664426 219.507327 
L 255.664426 218.708911 
L 256.01589 218.708911 
L 256.11659 217.112079 
L 256.625228 217.112079 
L 256.700528 215.515248 
L 256.754686 215.515248 
L 256.754686 214.716832 
L 256.948135 214.716832 
L 257.028168 213.12 
L 257.111553 213.12 
L 257.111553 212.321584 
L 257.257448 212.321584 
L 257.359304 210.724752 
L 257.504714 210.724752 
L 257.547542 208.329505 
L 257.798707 208.329505 
L 257.798707 207.531089 
L 257.921473 207.531089 
L 258.029071 205.934257 
L 258.099523 205.934257 
L 258.185605 203.53901 
L 258.226287 203.53901 
L 258.263105 201.942178 
L 258.581061 201.942178 
L 258.690611 199.546931 
L 258.725172 199.546931 
L 258.817014 197.151683 
L 258.856247 197.151683 
L 258.917102 193.159604 
L 259.100896 193.159604 
L 259.16704 190.764356 
L 259.212319 190.764356 
L 259.212319 189.965941 
L 259.359257 189.965941 
L 259.436223 187.570693 
L 259.833235 187.570693 
L 259.942788 185.973861 
L 264.666192 185.973861 
L 264.666192 173.997624 
L 266.253617 173.997624 
L 266.253617 173.199208 
L 266.912574 173.199208 
L 266.912574 172.400792 
L 267.096111 172.400792 
L 267.096111 171.602376 
L 267.475955 171.602376 
L 267.475955 170.80396 
L 267.600326 170.80396 
L 267.600326 170.005545 
L 268.079317 170.005545 
L 268.097199 168.408713 
L 268.673791 168.408713 
L 268.695025 166.811881 
L 268.991558 166.811881 
L 268.991558 166.013465 
L 269.262652 166.013465 
L 269.262652 165.21505 
L 269.664108 165.21505 
L 269.664108 164.416634 
L 269.831848 164.416634 
L 269.831848 163.618218 
L 270.257013 163.618218 
L 270.352667 160.424554 
L 271.51069 160.424554 
L 271.51069 159.626139 
L 271.66779 159.626139 
L 271.66779 158.827723 
L 272.256729 158.827723 
L 272.256729 158.029307 
L 273.245311 158.029307 
L 273.319165 156.432475 
L 273.504027 156.432475 
L 273.504027 155.634059 
L 274.690938 155.634059 
L 274.749677 154.037228 
L 275.088321 154.037228 
L 275.176965 152.440396 
L 275.266997 152.440396 
L 275.317689 150.843564 
L 275.39935 150.843564 
L 275.40284 149.246733 
L 275.525632 149.246733 
L 275.525632 148.448317 
L 275.640827 148.448317 
L 275.716746 145.254653 
L 275.846613 145.254653 
L 275.936865 143.657822 
L 276.121705 143.657822 
L 276.121705 142.859406 
L 276.333637 142.859406 
L 276.410202 141.262574 
L 276.582085 141.262574 
L 276.582085 140.464158 
L 277.08601 140.464158 
L 277.172772 138.867327 
L 277.27753 138.867327 
L 277.368299 136.472079 
L 277.466479 136.472079 
L 277.466479 135.673663 
L 277.734357 135.673663 
L 277.815564 134.076832 
L 278.460931 134.076832 
L 278.550212 130.084752 
L 278.670648 130.084752 
L 278.670648 129.286337 
L 278.865786 129.286337 
L 278.865786 128.487921 
L 279.037063 128.487921 
L 279.111599 126.092673 
L 279.519561 126.092673 
L 279.584473 124.495842 
L 279.656565 124.495842 
L 279.656565 123.697426 
L 279.817103 123.697426 
L 279.886619 121.302178 
L 280.002162 121.302178 
L 280.089497 118.906931 
L 280.188389 118.906931 
L 280.273452 116.511683 
L 280.314059 116.511683 
L 280.314059 115.713267 
L 280.468289 115.713267 
L 280.528973 114.116436 
L 280.607647 114.116436 
L 280.718429 110.922772 
L 280.849972 110.922772 
L 280.849972 110.124356 
L 281.014013 110.124356 
L 281.014013 109.325941 
L 281.232194 109.325941 
L 281.232194 108.527525 
L 281.363059 108.527525 
L 281.426839 106.930693 
L 281.592139 106.930693 
L 281.592139 106.132277 
L 281.943124 106.132277 
L 281.952244 104.535446 
L 282.575343 104.535446 
L 282.575343 103.73703 
L 282.761192 103.73703 
L 282.761192 102.938614 
L 282.907427 102.938614 
L 283.014649 101.341782 
L 283.037753 101.341782 
L 283.047738 99.74495 
L 283.252826 99.74495 
L 283.30124 98.148119 
L 283.407818 98.148119 
L 283.475293 96.551287 
L 284.787348 96.551287 
L 284.787348 95.752871 
L 285.328749 95.752871 
L 285.328749 94.954455 
L 285.826983 94.954455 
L 285.826983 94.15604 
L 287.064351 94.15604 
L 287.064351 93.357624 
L 288.161468 93.357624 
L 288.161468 92.559208 
L 290.504614 92.559208 
L 290.524165 90.962376 
L 290.813129 90.962376 
L 290.813129 90.16396 
L 291.009201 90.16396 
L 291.106663 88.567129 
L 292.158799 88.567129 
L 292.158799 87.768713 
L 292.732345 87.768713 
L 292.732345 86.970297 
L 292.929661 86.970297 
L 293.029415 85.373465 
L 293.041345 85.373465 
L 293.044193 83.776634 
L 293.387015 83.776634 
L 293.387015 82.978218 
L 293.683791 82.978218 
L 293.758379 81.381386 
L 293.981218 81.381386 
L 293.981218 80.58297 
L 294.99294 80.58297 
L 294.99294 79.784554 
L 295.785359 79.784554 
L 295.785359 78.986139 
L 307.794566 78.986139 
L 307.794566 78.187723 
L 309.873485 78.187723 
L 309.873485 77.389307 
L 310.234919 77.389307 
L 310.234919 76.590891 
L 310.370355 76.590891 
L 310.370355 75.792475 
L 312.056923 75.792475 
L 312.056923 74.994059 
L 313.690055 74.994059 
L 313.690055 74.195644 
L 313.8817 74.195644 
L 313.8817 73.397228 
L 315.755776 73.397228 
L 315.755776 72.598812 
L 316.916702 72.598812 
L 316.916702 71.800396 
L 317.183761 71.800396 
L 317.254156 70.203564 
L 317.391177 70.203564 
L 317.391177 69.405149 
L 317.594144 69.405149 
L 317.594144 68.606733 
L 318.817159 68.606733 
L 318.817159 67.808317 
L 319.292947 67.808317 
L 319.292947 67.009901 
L 319.644996 67.009901 
L 319.644996 66.211485 
L 320.040186 66.211485 
L 320.040186 65.413069 
L 321.199282 65.413069 
L 321.199282 64.614653 
L 321.634234 64.614653 
L 321.672215 63.017822 
L 321.74608 63.017822 
L 321.74608 62.219406 
L 323.885961 62.219406 
L 323.96516 60.622574 
L 324.45339 60.622574 
L 324.45339 59.824158 
L 325.297534 59.824158 
L 325.297534 59.025743 
L 326.156022 59.025743 
L 326.156022 58.227327 
L 326.941529 58.227327 
L 326.941529 57.428911 
L 327.357323 57.428911 
L 327.357323 56.630495 
L 329.572162 56.630495 
L 329.572162 55.832079 
L 330.29981 55.832079 
L 330.368565 54.235248 
L 330.706088 54.235248 
L 330.736698 52.638416 
L 333.180376 52.638416 
L 333.180376 51.84 
L 335.197183 51.84 
L 335.197183 51.041584 
L 336.506253 51.041584 
L 336.506253 50.243168 
L 338.673388 50.243168 
L 338.673388 49.444752 
L 340.225218 49.444752 
L 340.225218 48.646337 
L 341.75671 48.646337 
L 341.75671 47.847921 
L 342.296367 47.847921 
L 342.296367 47.049505 
L 344.772016 47.049505 
L 344.781077 45.452673 
L 347.629245 45.452673 
L 347.629245 44.654257 
L 359.537403 44.654257 
L 359.537403 43.855842 
L 359.907123 43.855842 
L 359.999053 42.25901 
L 360.70835 42.25901 
L 360.70835 41.460594 
L 360.886491 41.460594 
L 360.886491 40.662178 
L 363.204553 40.662178 
L 363.204553 39.863762 
L 364.549048 39.863762 
L 364.549048 39.065347 
L 366.382271 39.065347 
L 366.382271 38.266931 
L 367.755271 38.266931 
L 367.755271 37.468515 
L 368.095799 37.468515 
L 368.095799 36.670099 
L 368.480104 36.670099 
L 368.480104 35.871683 
L 368.845116 35.871683 
L 368.845116 35.073267 
L 369.351557 35.073267 
L 369.351557 34.274851 
L 369.640006 34.274851 
L 369.640006 33.476436 
L 369.87599 33.476436 
L 369.883809 31.879604 
L 370.022544 31.879604 
L 370.022544 31.081188 
L 370.185564 31.081188 
L 370.185564 30.282772 
L 370.512323 30.282772 
L 370.512323 29.484356 
L 370.898029 29.484356 
L 370.898029 28.685941 
L 371.650157 28.685941 
L 371.650157 27.887525 
L 371.807915 27.887525 
L 371.807915 27.089109 
L 373.016492 27.089109 
L 373.016492 26.290693 
L 373.438125 26.290693 
L 373.438125 25.492277 
L 373.651308 25.492277 
L 373.745792 22.298614 
L 375.329855 22.298614 
L 375.329855 21.500198 
L 375.832903 21.500198 
L 375.832903 20.701782 
L 376.587779 20.701782 
L 376.665907 19.10495 
L 380.727266 19.10495 
L 380.727266 18.306535 
L 413.52425 18.306535 
L 413.52425 17.508119 
L 414.598114 17.508119 
L 414.598114 16.709703 
L 415.075475 16.709703 
L 415.075475 15.911287 
L 416.350788 15.911287 
L 416.350788 15.112871 
L 417.605823 15.112871 
L 417.605823 14.314455 
L 417.902649 14.314455 
L 417.902649 13.51604 
L 418.019047 13.51604 
L 418.019047 12.717624 
L 419.914361 12.717624 
L 420.021025 11.120792 
L 420.578141 11.120792 
L 420.578141 10.322376 
L 421.098302 10.322376 
L 421.098302 9.52396 
L 422.555628 9.52396 
L 422.555628 8.725545 
L 423.545656 8.725545 
L 423.545656 7.927129 
L 424.40894 7.927129 
L 424.40894 7.128713 
L 427.61593 7.128713 
L 427.61593 6.330297 
L 427.61593 6.330297 
L 460.8 6.330297 
L 460.8 6.330297 
" clip-path="url(#p9af5bc4ae2)" style="fill: none; stroke: #000000; stroke-width: 1.5; stroke-linecap: square"/>
   </g>
   <g id="line2d_25">
    <path d="M 194.006697 293.76 
L 194.006697 281.783762 
L 219.322164 281.783762 
L 219.322164 280.985347 
L 222.367251 280.985347 
L 222.367251 280.186931 
L 223.124841 280.186931 
L 223.124841 279.388515 
L 226.43785 279.388515 
L 226.43785 278.590099 
L 226.804517 278.590099 
L 226.857484 276.993267 
L 227.234724 276.993267 
L 227.282157 275.396436 
L 227.748372 275.396436 
L 227.748372 274.59802 
L 227.867781 274.59802 
L 227.867781 273.799604 
L 228.005627 273.799604 
L 228.005627 273.001188 
L 228.127232 273.001188 
L 228.127232 272.202772 
L 228.547216 272.202772 
L 228.547216 271.404356 
L 229.20663 271.404356 
L 229.20663 270.605941 
L 229.559746 270.605941 
L 229.559746 269.807525 
L 229.808969 269.807525 
L 229.902257 268.210693 
L 229.965733 268.210693 
L 229.972275 266.613861 
L 230.12896 266.613861 
L 230.160579 265.01703 
L 230.318301 265.01703 
L 230.318301 264.218614 
L 230.631505 264.218614 
L 230.631505 263.420198 
L 230.805375 263.420198 
L 230.88102 261.823366 
L 231.054484 261.823366 
L 231.054484 261.02495 
L 231.169591 261.02495 
L 231.169591 260.226535 
L 231.303303 260.226535 
L 231.303303 259.428119 
L 231.749066 259.428119 
L 231.831952 256.234455 
L 231.949328 256.234455 
L 231.949328 255.43604 
L 232.590264 255.43604 
L 232.665409 253.040792 
L 233.113508 253.040792 
L 233.113508 252.242376 
L 233.2469 252.242376 
L 233.312446 250.645545 
L 233.433472 250.645545 
L 233.433472 249.847129 
L 233.923075 249.847129 
L 233.923075 249.048713 
L 234.512265 249.048713 
L 234.570885 247.451881 
L 235.844361 247.451881 
L 235.844361 246.653465 
L 235.97742 246.653465 
L 235.97742 245.85505 
L 236.338752 245.85505 
L 236.338752 245.056634 
L 237.478494 245.056634 
L 237.478494 244.258218 
L 238.010207 244.258218 
L 238.116325 242.661386 
L 238.165685 242.661386 
L 238.165685 241.86297 
L 238.425726 241.86297 
L 238.525065 240.266139 
L 240.51581 240.266139 
L 240.550776 238.669307 
L 240.643573 238.669307 
L 240.643573 237.870891 
L 240.761811 237.870891 
L 240.761811 237.072475 
L 240.908751 237.072475 
L 240.908751 236.274059 
L 241.140583 236.274059 
L 241.140583 235.475644 
L 241.382335 235.475644 
L 241.382335 234.677228 
L 241.541623 234.677228 
L 241.541623 233.878812 
L 241.806228 233.878812 
L 241.806228 233.080396 
L 241.972235 233.080396 
L 242.058172 231.483564 
L 242.275224 231.483564 
L 242.275224 230.685149 
L 242.932518 230.685149 
L 242.932518 229.886733 
L 243.299889 229.886733 
L 243.299889 229.088317 
L 243.915345 229.088317 
L 244.024025 227.491485 
L 244.088212 227.491485 
L 244.088212 226.693069 
L 244.536495 226.693069 
L 244.536495 225.894653 
L 244.71728 225.894653 
L 244.759397 224.297822 
L 245.009216 224.297822 
L 245.095618 221.902574 
L 245.212193 221.902574 
L 245.212193 221.104158 
L 245.496638 221.104158 
L 245.496638 220.305743 
L 245.890397 220.305743 
L 245.972246 217.910495 
L 246.232246 217.910495 
L 246.295887 216.313663 
L 246.400761 216.313663 
L 246.408987 214.716832 
L 246.899342 214.716832 
L 246.984264 213.12 
L 247.097762 213.12 
L 247.097762 212.321584 
L 247.323107 212.321584 
L 247.323107 211.523168 
L 247.704749 211.523168 
L 247.782308 209.926337 
L 247.963994 209.926337 
L 247.97451 208.329505 
L 248.439048 208.329505 
L 248.521552 205.934257 
L 248.963403 205.934257 
L 248.963403 205.135842 
L 249.083238 205.135842 
L 249.083238 204.337426 
L 249.242641 204.337426 
L 249.268028 202.740594 
L 249.608305 202.740594 
L 249.67423 200.345347 
L 250.295008 200.345347 
L 250.358042 197.950099 
L 250.489518 197.950099 
L 250.514947 196.353267 
L 250.763404 196.353267 
L 250.779688 194.756436 
L 250.879142 194.756436 
L 250.901239 193.159604 
L 251.155538 193.159604 
L 251.257049 191.562772 
L 251.267612 191.562772 
L 251.267612 190.764356 
L 251.594797 190.764356 
L 251.702031 189.167525 
L 251.957201 189.167525 
L 251.957201 188.369109 
L 252.069433 188.369109 
L 252.129332 185.973861 
L 252.337606 185.973861 
L 252.337606 185.175446 
L 253.002102 185.175446 
L 253.002102 184.37703 
L 253.41016 184.37703 
L 253.41016 183.578614 
L 253.829014 183.578614 
L 253.829014 182.780198 
L 254.208145 182.780198 
L 254.250888 181.183366 
L 254.934106 181.183366 
L 254.934106 180.38495 
L 255.177049 180.38495 
L 255.177049 179.586535 
L 255.492722 179.586535 
L 255.492722 178.788119 
L 255.750599 178.788119 
L 255.750599 177.989703 
L 255.889193 177.989703 
L 255.889193 177.191287 
L 256.498542 177.191287 
L 256.498542 176.392871 
L 256.641107 176.392871 
L 256.642639 174.79604 
L 256.868781 174.79604 
L 256.868781 173.997624 
L 257.986962 173.997624 
L 257.986962 173.199208 
L 260.475496 173.199208 
L 260.475496 172.400792 
L 261.413874 172.400792 
L 261.481001 170.80396 
L 262.910927 170.80396 
L 262.910927 170.005545 
L 264.316976 170.005545 
L 264.316976 169.207129 
L 264.666192 169.207129 
L 264.666192 157.230891 
L 265.258727 157.230891 
L 265.258727 156.432475 
L 265.474769 156.432475 
L 265.474769 155.634059 
L 266.763264 155.634059 
L 266.763264 154.835644 
L 267.096111 154.835644 
L 267.096111 154.037228 
L 267.557338 154.037228 
L 267.590661 152.440396 
L 268.373599 152.440396 
L 268.373599 151.64198 
L 268.524029 151.64198 
L 268.524029 150.843564 
L 269.608417 150.843564 
L 269.608417 150.045149 
L 270.153284 150.045149 
L 270.153284 149.246733 
L 270.37841 149.246733 
L 270.37841 148.448317 
L 270.605017 148.448317 
L 270.605017 147.649901 
L 271.222513 147.649901 
L 271.290774 146.053069 
L 271.51069 146.053069 
L 271.51069 145.254653 
L 271.654396 145.254653 
L 271.738705 142.859406 
L 271.984154 142.859406 
L 272.016854 140.464158 
L 272.155621 140.464158 
L 272.250606 138.068911 
L 272.308395 138.068911 
L 272.32087 136.472079 
L 272.483475 136.472079 
L 272.483475 135.673663 
L 272.609093 135.673663 
L 272.696247 134.076832 
L 272.738614 134.076832 
L 272.759296 132.48 
L 272.874727 132.48 
L 272.94956 130.084752 
L 273.027296 130.084752 
L 273.097045 128.487921 
L 273.202885 128.487921 
L 273.248629 126.092673 
L 273.319165 126.092673 
L 273.397295 124.495842 
L 273.46889 124.495842 
L 273.46889 123.697426 
L 273.695231 123.697426 
L 273.695231 122.89901 
L 273.868404 122.89901 
L 273.868404 122.100594 
L 274.022781 122.100594 
L 274.092518 120.503762 
L 274.241058 120.503762 
L 274.318202 118.906931 
L 274.36408 118.906931 
L 274.435977 116.511683 
L 274.669691 116.511683 
L 274.749677 113.31802 
L 274.851135 113.31802 
L 274.882974 110.922772 
L 274.989946 110.922772 
L 274.989946 110.124356 
L 275.201228 110.124356 
L 275.201228 109.325941 
L 275.357594 109.325941 
L 275.39935 106.930693 
L 275.538724 106.930693 
L 275.538724 106.132277 
L 275.711175 106.132277 
L 275.711175 105.333861 
L 275.958461 105.333861 
L 276.019972 103.73703 
L 276.090216 103.73703 
L 276.112678 102.140198 
L 276.203476 102.140198 
L 276.203476 101.341782 
L 276.494368 101.341782 
L 276.494368 100.543366 
L 276.736859 100.543366 
L 276.736859 99.74495 
L 277.101553 99.74495 
L 277.107704 98.148119 
L 277.223924 98.148119 
L 277.223924 97.349703 
L 277.406869 97.349703 
L 277.42786 94.954455 
L 277.631042 94.954455 
L 277.68342 93.357624 
L 277.951027 93.357624 
L 277.951027 92.559208 
L 278.269184 92.559208 
L 278.269184 91.760792 
L 278.428146 91.760792 
L 278.494273 90.16396 
L 278.65108 90.16396 
L 278.670062 88.567129 
L 278.958522 88.567129 
L 278.958522 87.768713 
L 279.22701 87.768713 
L 279.317859 86.171881 
L 279.378936 86.171881 
L 279.378936 85.373465 
L 280.041158 85.373465 
L 280.041158 84.57505 
L 280.276111 84.57505 
L 280.373933 82.978218 
L 282.221984 82.978218 
L 282.221984 82.179802 
L 282.3874 82.179802 
L 282.3874 81.381386 
L 283.679306 81.381386 
L 283.772709 79.784554 
L 285.686808 79.784554 
L 285.686808 78.986139 
L 286.303759 78.986139 
L 286.303759 78.187723 
L 286.618258 78.187723 
L 286.618258 77.389307 
L 286.797884 77.389307 
L 286.838963 75.792475 
L 287.063019 75.792475 
L 287.112502 74.195644 
L 287.260696 74.195644 
L 287.260696 73.397228 
L 287.908834 73.397228 
L 287.94332 71.800396 
L 288.069818 71.800396 
L 288.116851 70.203564 
L 288.53489 70.203564 
L 288.555306 68.606733 
L 288.695716 68.606733 
L 288.695716 67.808317 
L 289.852208 67.808317 
L 289.852208 67.009901 
L 290.426138 67.009901 
L 290.481288 65.413069 
L 291.398938 65.413069 
L 291.398938 64.614653 
L 291.960407 64.614653 
L 291.960407 63.816238 
L 292.781697 63.816238 
L 292.781697 63.017822 
L 297.387408 63.017822 
L 297.387408 62.219406 
L 299.977797 62.219406 
L 299.977797 61.42099 
L 300.558828 61.42099 
L 300.558828 60.622574 
L 301.366208 60.622574 
L 301.366208 59.824158 
L 301.645472 59.824158 
L 301.645472 59.025743 
L 302.887075 59.025743 
L 302.887075 58.227327 
L 303.211675 58.227327 
L 303.211675 57.428911 
L 303.500821 57.428911 
L 303.500821 56.630495 
L 303.874118 56.630495 
L 303.92071 55.033663 
L 304.626769 55.033663 
L 304.626769 54.235248 
L 305.982147 54.235248 
L 305.982147 53.436832 
L 306.488045 53.436832 
L 306.488045 52.638416 
L 308.398968 52.638416 
L 308.398968 51.84 
L 309.679203 51.84 
L 309.679203 51.041584 
L 310.046826 51.041584 
L 310.142394 49.444752 
L 310.488916 49.444752 
L 310.488916 48.646337 
L 311.035582 48.646337 
L 311.035582 47.847921 
L 311.358963 47.847921 
L 311.358963 47.049505 
L 311.536864 47.049505 
L 311.536864 46.251089 
L 315.153756 46.251089 
L 315.153756 45.452673 
L 316.921159 45.452673 
L 316.921159 44.654257 
L 318.110586 44.654257 
L 318.110586 43.855842 
L 319.050035 43.855842 
L 319.050035 43.057426 
L 329.113066 43.057426 
L 329.113066 42.25901 
L 352.620325 42.25901 
L 352.620325 41.460594 
L 357.349559 41.460594 
L 357.349559 40.662178 
L 358.034886 40.662178 
L 358.034886 39.863762 
L 358.273671 39.863762 
L 358.303142 38.266931 
L 358.402401 38.266931 
L 358.402401 37.468515 
L 358.627518 37.468515 
L 358.627518 36.670099 
L 359.275961 36.670099 
L 359.275961 35.871683 
L 359.726124 35.871683 
L 359.726124 35.073267 
L 359.837351 35.073267 
L 359.837351 34.274851 
L 359.999053 34.274851 
L 359.999053 33.476436 
L 360.697008 33.476436 
L 360.697008 32.67802 
L 361.055027 32.67802 
L 361.133178 31.081188 
L 361.718155 31.081188 
L 361.718155 30.282772 
L 363.204553 30.282772 
L 363.204553 29.484356 
L 363.453143 29.484356 
L 363.541781 27.887525 
L 363.567726 27.887525 
L 363.567726 27.089109 
L 364.405816 27.089109 
L 364.506677 25.492277 
L 365.0743 25.492277 
L 365.0743 24.693861 
L 365.854505 24.693861 
L 365.854505 23.895446 
L 366.382271 23.895446 
L 366.382271 23.09703 
L 367.457459 23.09703 
L 367.457459 22.298614 
L 367.670076 22.298614 
L 367.670076 21.500198 
L 367.876403 21.500198 
L 367.876403 20.701782 
L 368.18111 20.701782 
L 368.18111 19.903366 
L 369.438246 19.903366 
L 369.438246 19.10495 
L 370.512323 19.10495 
L 370.512323 18.306535 
L 395.978803 18.306535 
L 395.978803 17.508119 
L 397.588686 17.508119 
L 397.588686 16.709703 
L 397.855692 16.709703 
L 397.855692 15.911287 
L 400.329644 15.911287 
L 400.329644 15.112871 
L 400.464002 15.112871 
L 400.464002 14.314455 
L 401.907959 14.314455 
L 401.907959 13.51604 
L 402.599711 13.51604 
L 402.599711 12.717624 
L 402.952661 12.717624 
L 402.952661 11.919208 
L 403.527774 11.919208 
L 403.527774 11.120792 
L 405.543274 11.120792 
L 405.543274 10.322376 
L 406.130438 10.322376 
L 406.130438 9.52396 
L 406.804563 9.52396 
L 406.804563 8.725545 
L 408.440231 8.725545 
L 408.440231 7.927129 
L 408.777079 7.927129 
L 408.777079 7.128713 
L 416.952039 7.128713 
L 416.952039 6.330297 
L 416.952039 6.330297 
L 460.8 6.330297 
L 460.8 6.330297 
" clip-path="url(#p9af5bc4ae2)" style="fill: none; stroke: #00bfbf; stroke-width: 1.5; stroke-linecap: square"/>
   </g>
   <g id="line2d_26">
    <path d="M -0.113382 293.76 
L -0.113382 281.783762 
L 71.648427 281.783762 
L 71.648427 280.985347 
L 78.030386 280.985347 
L 78.030386 280.186931 
L 82.903544 280.186931 
L 82.903544 279.388515 
L 83.241214 279.388515 
L 83.241214 278.590099 
L 87.178413 278.590099 
L 87.178413 277.791683 
L 87.58088 277.791683 
L 87.58088 276.993267 
L 88.490782 276.993267 
L 88.490782 276.194851 
L 90.468469 276.194851 
L 90.468469 275.396436 
L 91.957016 275.396436 
L 91.957016 274.59802 
L 92.199236 274.59802 
L 92.199236 273.799604 
L 92.471726 273.799604 
L 92.471726 273.001188 
L 93.412464 273.001188 
L 93.412464 272.202772 
L 96.467665 272.202772 
L 96.467665 271.404356 
L 100.810771 271.404356 
L 100.810771 270.605941 
L 101.769975 270.605941 
L 101.769975 269.807525 
L 143.385371 269.807525 
L 143.385371 269.009109 
L 145.02167 269.009109 
L 145.02167 268.210693 
L 147.058475 268.210693 
L 147.058475 267.412277 
L 147.849473 267.412277 
L 147.849473 266.613861 
L 151.744834 266.613861 
L 151.744834 265.815446 
L 152.137074 265.815446 
L 152.137074 265.01703 
L 152.368834 265.01703 
L 152.368834 264.218614 
L 152.661868 264.218614 
L 152.661868 263.420198 
L 153.612656 263.420198 
L 153.612656 262.621782 
L 153.966518 262.621782 
L 153.966518 261.823366 
L 154.176903 261.823366 
L 154.267409 260.226535 
L 158.055776 260.226535 
L 158.055776 259.428119 
L 158.533356 259.428119 
L 158.533356 258.629703 
L 163.335306 258.629703 
L 163.335306 257.831287 
L 172.736191 257.831287 
L 172.736191 257.032871 
L 174.634977 257.032871 
L 174.634977 256.234455 
L 176.015735 256.234455 
L 176.015735 255.43604 
L 176.604847 255.43604 
L 176.604847 254.637624 
L 179.078919 254.637624 
L 179.078919 253.839208 
L 179.494563 253.839208 
L 179.567905 252.242376 
L 182.176711 252.242376 
L 182.176711 251.44396 
L 182.341069 251.44396 
L 182.341069 250.645545 
L 185.210467 250.645545 
L 185.31135 249.048713 
L 185.370876 249.048713 
L 185.370876 248.250297 
L 187.413413 248.250297 
L 187.413413 247.451881 
L 187.628736 247.451881 
L 187.628736 246.653465 
L 192.490901 246.653465 
L 192.490901 245.85505 
L 194.006697 245.85505 
L 194.006697 233.878812 
L 197.324421 233.878812 
L 197.324421 233.080396 
L 200.692116 233.080396 
L 200.692116 232.28198 
L 201.016886 232.28198 
L 201.016886 231.483564 
L 203.020346 231.483564 
L 203.020346 230.685149 
L 203.662219 230.685149 
L 203.662219 229.886733 
L 204.334774 229.886733 
L 204.334774 229.088317 
L 205.588724 229.088317 
L 205.588724 228.289901 
L 205.814059 228.289901 
L 205.814059 227.491485 
L 207.329568 227.491485 
L 207.329568 226.693069 
L 209.50489 226.693069 
L 209.50489 225.894653 
L 212.661305 225.894653 
L 212.661305 225.096238 
L 213.880032 225.096238 
L 213.880032 224.297822 
L 214.345681 224.297822 
L 214.345681 223.499406 
L 214.478806 223.499406 
L 214.504497 221.902574 
L 214.79199 221.902574 
L 214.876385 220.305743 
L 215.617959 220.305743 
L 215.717643 218.708911 
L 215.773561 218.708911 
L 215.784605 217.112079 
L 215.935166 217.112079 
L 216.029126 214.716832 
L 216.297944 214.716832 
L 216.297944 213.918416 
L 216.536739 213.918416 
L 216.536739 213.12 
L 216.67848 213.12 
L 216.67848 212.321584 
L 217.324401 212.321584 
L 217.425238 209.127921 
L 217.905223 209.127921 
L 217.957247 205.934257 
L 218.036058 205.934257 
L 218.050684 204.337426 
L 218.341103 204.337426 
L 218.341103 203.53901 
L 218.655122 203.53901 
L 218.655122 202.740594 
L 219.418154 202.740594 
L 219.453635 201.143762 
L 219.594962 201.143762 
L 219.594962 200.345347 
L 220.17468 200.345347 
L 220.17468 199.546931 
L 220.632611 199.546931 
L 220.633432 197.151683 
L 220.790986 197.151683 
L 220.899102 194.756436 
L 221.086149 194.756436 
L 221.086149 193.95802 
L 221.531154 193.95802 
L 221.531154 193.159604 
L 221.983941 193.159604 
L 222.035793 191.562772 
L 222.367251 191.562772 
L 222.442914 189.965941 
L 223.118914 189.965941 
L 223.124841 188.369109 
L 223.23403 188.369109 
L 223.23403 187.570693 
L 223.558577 187.570693 
L 223.571999 185.175446 
L 223.672858 185.175446 
L 223.672858 184.37703 
L 224.060005 184.37703 
L 224.060005 183.578614 
L 224.261946 183.578614 
L 224.331228 181.981782 
L 224.490959 181.981782 
L 224.490959 181.183366 
L 224.821169 181.183366 
L 224.863359 178.788119 
L 225.059694 178.788119 
L 225.059694 177.989703 
L 225.298281 177.989703 
L 225.298281 177.191287 
L 225.477393 177.191287 
L 225.477393 176.392871 
L 225.673906 176.392871 
L 225.673906 175.594455 
L 225.829947 175.594455 
L 225.829947 174.79604 
L 226.157123 174.79604 
L 226.205512 173.199208 
L 226.613528 173.199208 
L 226.672616 171.602376 
L 226.867969 171.602376 
L 226.946575 170.005545 
L 227.453589 170.005545 
L 227.453589 169.207129 
L 227.705463 169.207129 
L 227.705463 168.408713 
L 228.267667 168.408713 
L 228.372984 165.21505 
L 228.879972 165.21505 
L 228.880912 163.618218 
L 229.321145 163.618218 
L 229.321145 162.819802 
L 229.500548 162.819802 
L 229.500548 162.021386 
L 230.074045 162.021386 
L 230.074045 161.22297 
L 230.311259 161.22297 
L 230.410155 159.626139 
L 230.544418 159.626139 
L 230.544418 158.827723 
L 230.666856 158.827723 
L 230.666856 158.029307 
L 231.675159 158.029307 
L 231.675159 157.230891 
L 231.899254 157.230891 
L 231.977556 154.835644 
L 232.23628 154.835644 
L 232.23628 154.037228 
L 232.921168 154.037228 
L 232.921168 153.238812 
L 234.04941 153.238812 
L 234.04941 152.440396 
L 234.32442 152.440396 
L 234.32442 151.64198 
L 234.546499 151.64198 
L 234.654508 150.045149 
L 234.780667 150.045149 
L 234.780667 149.246733 
L 234.899667 149.246733 
L 234.986334 147.649901 
L 235.792148 147.649901 
L 235.792148 146.851485 
L 236.501985 146.851485 
L 236.501985 146.053069 
L 236.959487 146.053069 
L 236.980211 144.456238 
L 237.239095 144.456238 
L 237.239095 143.657822 
L 237.398928 143.657822 
L 237.398928 142.859406 
L 238.00877 142.859406 
L 238.00877 142.06099 
L 238.168019 142.06099 
L 238.168019 141.262574 
L 238.283107 141.262574 
L 238.283107 140.464158 
L 238.65782 140.464158 
L 238.65782 139.665743 
L 238.781607 139.665743 
L 238.781607 138.867327 
L 239.499724 138.867327 
L 239.499724 138.068911 
L 240.057432 138.068911 
L 240.057432 137.270495 
L 240.324054 137.270495 
L 240.324054 136.472079 
L 240.55484 136.472079 
L 240.55484 135.673663 
L 241.033774 135.673663 
L 241.033774 134.875248 
L 241.150712 134.875248 
L 241.150712 134.076832 
L 241.519974 134.076832 
L 241.519974 133.278416 
L 241.83404 133.278416 
L 241.83404 132.48 
L 242.022001 132.48 
L 242.022001 131.681584 
L 242.137718 131.681584 
L 242.228122 126.891089 
L 242.334059 126.891089 
L 242.372804 125.294257 
L 242.46153 125.294257 
L 242.46153 124.495842 
L 242.590475 124.495842 
L 242.61925 122.100594 
L 242.768874 122.100594 
L 242.768874 121.302178 
L 243.00221 121.302178 
L 243.088351 119.705347 
L 243.118648 119.705347 
L 243.223871 115.713267 
L 243.570552 115.713267 
L 243.627302 113.31802 
L 243.882449 113.31802 
L 243.882449 112.519604 
L 244.515773 112.519604 
L 244.515773 111.721188 
L 244.736443 111.721188 
L 244.736443 110.922772 
L 244.89315 110.922772 
L 244.893155 109.325941 
L 245.049438 109.325941 
L 245.049438 108.527525 
L 245.232415 108.527525 
L 245.275087 106.930693 
L 245.790574 106.930693 
L 245.790574 106.132277 
L 246.364228 106.132277 
L 246.467171 104.535446 
L 246.569899 104.535446 
L 246.679938 102.938614 
L 246.694756 102.938614 
L 246.694756 102.140198 
L 246.891847 102.140198 
L 246.891847 101.341782 
L 247.665756 101.341782 
L 247.676802 99.74495 
L 247.915434 99.74495 
L 247.915434 98.946535 
L 248.77366 98.946535 
L 248.77366 98.148119 
L 249.206437 98.148119 
L 249.206437 97.349703 
L 250.151322 97.349703 
L 250.151322 96.551287 
L 251.018678 96.551287 
L 251.018678 95.752871 
L 251.427269 95.752871 
L 251.492379 93.357624 
L 251.559046 93.357624 
L 251.559046 92.559208 
L 251.906322 92.559208 
L 251.906322 91.760792 
L 252.21542 91.760792 
L 252.21542 90.962376 
L 252.63967 90.962376 
L 252.63967 90.16396 
L 253.093582 90.16396 
L 253.204392 87.768713 
L 253.972533 87.768713 
L 253.972533 86.970297 
L 254.168008 86.970297 
L 254.168008 86.171881 
L 254.40005 86.171881 
L 254.477789 84.57505 
L 254.601245 84.57505 
L 254.689614 82.978218 
L 254.940643 82.978218 
L 254.940643 82.179802 
L 255.076298 82.179802 
L 255.076298 81.381386 
L 255.235745 81.381386 
L 255.235745 80.58297 
L 255.55649 80.58297 
L 255.55649 79.784554 
L 255.702523 79.784554 
L 255.702523 78.986139 
L 256.314108 78.986139 
L 256.397668 77.389307 
L 256.47066 77.389307 
L 256.47066 76.590891 
L 256.758122 76.590891 
L 256.758122 75.792475 
L 256.937807 75.792475 
L 256.937807 74.994059 
L 257.077166 74.994059 
L 257.077166 74.195644 
L 257.492751 74.195644 
L 257.492751 73.397228 
L 257.74284 73.397228 
L 257.768334 71.800396 
L 257.861688 71.800396 
L 257.861688 71.00198 
L 258.077762 71.00198 
L 258.077762 70.203564 
L 258.275301 70.203564 
L 258.275301 69.405149 
L 258.719421 69.405149 
L 258.719421 68.606733 
L 258.915071 68.606733 
L 258.915071 67.808317 
L 260.132919 67.808317 
L 260.132919 67.009901 
L 260.45025 67.009901 
L 260.45025 66.211485 
L 261.362114 66.211485 
L 261.422943 64.614653 
L 261.568109 64.614653 
L 261.568109 63.816238 
L 262.568847 63.816238 
L 262.587857 62.219406 
L 262.986845 62.219406 
L 263.010373 60.622574 
L 264.454781 60.622574 
L 264.527023 59.025743 
L 265.258727 59.025743 
L 265.258727 58.227327 
L 265.631117 58.227327 
L 265.690093 55.033663 
L 265.834642 55.033663 
L 265.935565 52.638416 
L 266.188575 52.638416 
L 266.241074 50.243168 
L 266.380517 50.243168 
L 266.380517 49.444752 
L 266.498649 49.444752 
L 266.498649 48.646337 
L 266.887287 48.646337 
L 266.907275 47.049505 
L 267.049242 47.049505 
L 267.096111 45.452673 
L 267.209826 45.452673 
L 267.209826 44.654257 
L 267.632951 44.654257 
L 267.641953 43.057426 
L 267.778387 43.057426 
L 267.807432 41.460594 
L 267.979126 41.460594 
L 267.979126 40.662178 
L 270.605017 40.662178 
L 270.605017 39.863762 
L 272.483475 39.863762 
L 272.502526 38.266931 
L 272.926186 38.266931 
L 272.926186 37.468515 
L 273.245311 37.468515 
L 273.319165 35.871683 
L 274.318202 35.871683 
L 274.318202 35.073267 
L 274.669691 35.073267 
L 274.690938 33.476436 
L 274.882974 33.476436 
L 274.882974 32.67802 
L 275.39935 32.67802 
L 275.39935 31.879604 
L 277.188399 31.879604 
L 277.188399 31.081188 
L 280.041158 31.081188 
L 280.041158 30.282772 
L 301.86455 30.282772 
L 301.86455 29.484356 
L 303.364783 29.484356 
L 303.364783 28.685941 
L 308.118379 28.685941 
L 308.118379 27.887525 
L 308.595477 27.887525 
L 308.595477 27.089109 
L 308.844211 27.089109 
L 308.844211 26.290693 
L 309.168677 26.290693 
L 309.168677 25.492277 
L 309.862144 25.492277 
L 309.862144 24.693861 
L 310.053783 24.693861 
L 310.053783 23.895446 
L 311.930382 23.895446 
L 311.930382 23.09703 
L 312.489762 23.09703 
L 312.535717 21.500198 
L 312.61506 21.500198 
L 312.61506 20.701782 
L 312.828443 20.701782 
L 312.828443 19.903366 
L 313.696403 19.903366 
L 313.784452 18.306535 
L 315.877118 18.306535 
L 315.877118 17.508119 
L 317.73061 17.508119 
L 317.73061 16.709703 
L 318.188466 16.709703 
L 318.188466 15.911287 
L 318.732109 15.911287 
L 318.732109 15.112871 
L 319.592943 15.112871 
L 319.670983 13.51604 
L 319.927583 13.51604 
L 319.927583 12.717624 
L 321.3112 12.717624 
L 321.3112 11.919208 
L 321.619235 11.919208 
L 321.646414 10.322376 
L 322.417672 10.322376 
L 322.417672 9.52396 
L 323.060411 9.52396 
L 323.060411 8.725545 
L 323.236502 8.725545 
L 323.249013 7.128713 
L 325.236026 7.128713 
L 325.236026 6.330297 
L 325.236026 6.330297 
L 460.8 6.330297 
L 460.8 6.330297 
" clip-path="url(#p9af5bc4ae2)" style="fill: none; stroke: #bf00bf; stroke-width: 1.5; stroke-linecap: square"/>
   </g>
   <g id="line2d_27">
    <path d="M -1 205.135842 
L -0.993142 205.135842 
L -0.940541 202.740594 
L -0.8701 202.740594 
L -0.782564 201.143762 
L -0.734445 201.143762 
L -0.646617 197.151683 
L -0.600437 197.151683 
L -0.570032 195.554851 
L -0.455097 195.554851 
L -0.395584 193.95802 
L -0.326741 193.95802 
L -0.251589 191.562772 
L -0.212834 191.562772 
L -0.113382 175.594455 
L 1.076345 175.594455 
L 1.076345 174.79604 
L 5.986713 174.79604 
L 5.986713 173.997624 
L 22.839532 173.997624 
L 22.839532 173.199208 
L 28.700354 173.199208 
L 28.700354 172.400792 
L 31.585498 172.400792 
L 31.585498 171.602376 
L 61.087002 171.602376 
L 61.087002 170.80396 
L 72.786471 170.80396 
L 72.786471 170.005545 
L 75.360927 170.005545 
L 75.360927 169.207129 
L 77.574256 169.207129 
L 77.574256 168.408713 
L 96.113314 168.408713 
L 96.113314 167.610297 
L 98.350927 167.610297 
L 98.350927 166.811881 
L 101.163963 166.811881 
L 101.163963 166.013465 
L 103.032124 166.013465 
L 103.032124 165.21505 
L 105.706688 165.21505 
L 105.706688 164.416634 
L 106.788482 164.416634 
L 106.788482 163.618218 
L 107.932517 163.618218 
L 107.932517 162.819802 
L 112.641864 162.819802 
L 112.641864 162.021386 
L 113.075193 162.021386 
L 113.075193 161.22297 
L 118.128072 161.22297 
L 118.128072 160.424554 
L 119.643084 160.424554 
L 119.643084 159.626139 
L 119.794047 159.626139 
L 119.794047 158.827723 
L 120.06607 158.827723 
L 120.06607 158.029307 
L 127.816491 158.029307 
L 127.816491 157.230891 
L 129.059923 157.230891 
L 129.059923 156.432475 
L 132.223943 156.432475 
L 132.223943 155.634059 
L 132.502319 155.634059 
L 132.502319 154.835644 
L 134.451111 154.835644 
L 134.451111 154.037228 
L 134.602002 154.037228 
L 134.602002 153.238812 
L 136.020308 153.238812 
L 136.020308 152.440396 
L 137.059707 152.440396 
L 137.059707 151.64198 
L 138.112388 151.64198 
L 138.112388 150.843564 
L 139.652203 150.843564 
L 139.652203 150.045149 
L 145.754868 150.045149 
L 145.754868 149.246733 
L 146.070676 149.246733 
L 146.070676 148.448317 
L 149.43451 148.448317 
L 149.43451 147.649901 
L 151.416462 147.649901 
L 151.416462 146.851485 
L 152.325989 146.851485 
L 152.325989 146.053069 
L 154.156692 146.053069 
L 154.156692 145.254653 
L 158.513688 145.254653 
L 158.513688 144.456238 
L 159.458748 144.456238 
L 159.458748 143.657822 
L 160.451101 143.657822 
L 160.451101 142.859406 
L 160.565419 142.859406 
L 160.565419 142.06099 
L 161.450011 142.06099 
L 161.538313 140.464158 
L 165.504982 140.464158 
L 165.504982 139.665743 
L 171.100041 139.665743 
L 171.100041 138.867327 
L 173.511848 138.867327 
L 173.511848 138.068911 
L 173.831439 138.068911 
L 173.831439 137.270495 
L 174.294006 137.270495 
L 174.294006 136.472079 
L 180.308621 136.472079 
L 180.308621 135.673663 
L 183.469031 135.673663 
L 183.469031 134.875248 
L 184.734728 134.875248 
L 184.734728 134.076832 
L 185.886145 134.076832 
L 185.91096 132.48 
L 187.973771 132.48 
L 187.973771 131.681584 
L 191.359001 131.681584 
L 191.359001 130.883168 
L 194.006697 130.883168 
L 194.006697 118.906931 
L 196.736519 118.906931 
L 196.736519 118.108515 
L 197.24237 118.108515 
L 197.258746 116.511683 
L 198.507431 116.511683 
L 198.507431 115.713267 
L 199.68306 115.713267 
L 199.68306 114.914851 
L 200.142819 114.914851 
L 200.142819 114.116436 
L 201.575459 114.116436 
L 201.575459 113.31802 
L 203.61419 113.31802 
L 203.61419 112.519604 
L 205.588628 112.519604 
L 205.627095 106.930693 
L 206.238709 106.930693 
L 206.238709 106.132277 
L 206.518796 106.132277 
L 206.518796 105.333861 
L 207.190079 105.333861 
L 207.190079 104.535446 
L 207.654799 104.535446 
L 207.718438 102.938614 
L 209.201846 102.938614 
L 209.201846 102.140198 
L 209.804615 102.140198 
L 209.804615 101.341782 
L 210.632248 101.341782 
L 210.632248 100.543366 
L 210.765942 100.543366 
L 210.855394 98.946535 
L 211.638179 98.946535 
L 211.638179 98.148119 
L 211.878071 98.148119 
L 211.878071 97.349703 
L 212.285531 97.349703 
L 212.285531 96.551287 
L 213.540584 96.551287 
L 213.540584 95.752871 
L 214.375643 95.752871 
L 214.471083 94.15604 
L 214.55729 94.15604 
L 214.55729 93.357624 
L 214.777207 93.357624 
L 214.875252 91.760792 
L 214.921451 91.760792 
L 214.921626 90.16396 
L 215.274345 90.16396 
L 215.370252 88.567129 
L 215.412721 88.567129 
L 215.481097 85.373465 
L 215.54899 85.373465 
L 215.566513 83.776634 
L 215.817696 83.776634 
L 215.848573 82.179802 
L 215.948671 82.179802 
L 215.948671 81.381386 
L 216.523855 81.381386 
L 216.523855 80.58297 
L 216.951285 80.58297 
L 216.951285 79.784554 
L 217.364121 79.784554 
L 217.425133 75.792475 
L 217.680945 75.792475 
L 217.680945 74.195644 
L 217.817347 74.195644 
L 217.817347 73.397228 
L 217.930528 73.397228 
L 217.930528 72.598812 
L 218.680679 72.598812 
L 218.680679 71.800396 
L 219.297478 71.800396 
L 219.297478 71.00198 
L 220.372135 71.00198 
L 220.372135 70.203564 
L 220.632532 70.203564 
L 220.632532 68.606733 
L 220.899102 68.606733 
L 220.931196 67.009901 
L 221.208509 67.009901 
L 221.314181 65.413069 
L 221.679722 65.413069 
L 221.679722 64.614653 
L 225.54454 64.614653 
L 225.54454 62.219406 
L 227.453543 62.219406 
L 227.453543 61.42099 
L 228.267466 61.42099 
L 228.267466 59.025743 
L 230.938633 59.025743 
L 230.938633 58.227327 
L 231.389573 58.227327 
L 231.389573 57.428911 
L 231.901821 57.428911 
L 231.901821 56.630495 
L 233.423382 56.630495 
L 233.423382 55.832079 
L 234.049152 55.832079 
L 234.049152 55.033663 
L 234.492633 55.033663 
L 234.492633 54.235248 
L 235.966053 54.235248 
L 235.966053 53.436832 
L 237.052086 53.436832 
L 237.052091 51.041584 
L 238.043562 51.041584 
L 238.043562 50.243168 
L 238.955631 50.243168 
L 238.955635 47.847921 
L 239.800071 47.847921 
L 239.800075 46.251089 
L 240.324001 46.251089 
L 240.324001 44.654257 
L 240.58623 44.654257 
L 240.586234 43.057426 
L 241.321633 43.057426 
L 241.321636 41.460594 
L 242.012437 41.460594 
L 242.012437 40.662178 
L 242.166226 40.662178 
L 242.166226 39.863762 
L 242.663745 39.863762 
L 242.663745 39.065347 
L 243.279826 39.065347 
L 243.27983 36.670099 
L 243.864294 36.670099 
L 243.864306 35.073267 
L 244.420256 35.073267 
L 244.420259 33.476436 
L 244.950331 33.476436 
L 244.950344 30.282772 
L 245.45686 30.282772 
L 245.456863 28.685941 
L 245.596725 28.685941 
L 245.596725 27.887525 
L 246.406973 27.887525 
L 246.406973 27.089109 
L 246.853885 27.089109 
L 246.929769 25.492277 
L 247.283928 25.492277 
L 247.28393 23.895446 
L 247.69833 23.895446 
L 247.69833 23.09703 
L 247.86184 23.09703 
L 247.872958 21.500198 
L 248.098186 21.500198 
L 248.098186 20.701782 
L 248.484479 20.701782 
L 248.484479 19.903366 
L 248.85812 19.903366 
L 248.85812 19.10495 
L 249.570519 19.10495 
L 249.570519 18.306535 
L 249.910686 18.306535 
L 249.910686 17.508119 
L 250.8742 17.508119 
L 250.8742 15.911287 
L 251.178079 15.911287 
L 251.178079 15.112871 
L 252.310389 15.112871 
L 252.310389 14.314455 
L 252.856892 14.314455 
L 252.856892 13.51604 
L 253.944717 13.51604 
L 253.944717 12.717624 
L 254.331221 12.717624 
L 254.331221 11.919208 
L 254.614783 11.919208 
L 254.721739 10.322376 
L 255.093565 10.322376 
L 255.093565 9.52396 
L 255.794269 9.52396 
L 255.794269 8.725545 
L 255.996427 8.725545 
L 255.996427 7.927129 
L 256.824117 7.927129 
L 256.824117 7.128713 
L 262.977017 7.128713 
L 262.977017 6.330297 
L 262.977017 6.330297 
L 460.8 6.330297 
L 460.8 6.330297 
" clip-path="url(#p9af5bc4ae2)" style="fill: none; stroke: #000000; stroke-width: 1.5; stroke-linecap: square"/>
   </g>
   <g id="line2d_28">
    <path d="M -1 149.246733 
L -0.993142 149.246733 
L -0.940541 146.053069 
L -0.8701 146.053069 
L -0.782564 143.657822 
L -0.734445 143.657822 
L -0.636728 138.867327 
L -0.600437 138.867327 
L -0.549226 136.472079 
L -0.474419 136.472079 
L -0.395584 134.076832 
L -0.326741 134.076832 
L -0.251589 131.681584 
L -0.212834 131.681584 
L -0.113382 115.713267 
L 33.778964 115.713267 
L 33.778964 114.914851 
L 42.897314 114.914851 
L 42.897314 114.116436 
L 56.068123 114.116436 
L 56.068123 113.31802 
L 71.024281 113.31802 
L 71.024281 112.519604 
L 143.32223 112.519604 
L 143.32223 111.721188 
L 147.477078 111.721188 
L 147.477078 109.325941 
L 162.115054 109.325941 
L 162.115054 108.527525 
L 165.04565 108.527525 
L 165.156533 106.930693 
L 165.733255 106.930693 
L 165.733255 106.132277 
L 168.071621 106.132277 
L 168.071621 105.333861 
L 168.358644 105.333861 
L 168.358644 104.535446 
L 170.601761 104.535446 
L 170.601761 103.73703 
L 172.114949 103.73703 
L 172.114949 102.938614 
L 172.756499 102.938614 
L 172.756499 102.140198 
L 174.932902 102.140198 
L 174.932902 101.341782 
L 180.308464 101.341782 
L 180.308464 100.543366 
L 182.138693 100.543366 
L 182.138693 99.74495 
L 184.484354 99.74495 
L 184.484354 98.946535 
L 185.80414 98.946535 
L 185.80414 98.148119 
L 186.740042 98.148119 
L 186.740042 97.349703 
L 187.033428 97.349703 
L 187.033428 96.551287 
L 188.235702 96.551287 
L 188.236193 94.954455 
L 188.593025 94.954455 
L 188.593025 94.15604 
L 189.750666 94.15604 
L 189.750666 93.357624 
L 194.006697 93.357624 
L 194.006697 83.776634 
L 196.736659 83.776634 
L 196.736659 82.978218 
L 202.893821 82.978218 
L 202.893821 82.179802 
L 205.588628 82.179802 
L 205.594952 72.598812 
L 205.893872 72.598812 
L 205.893961 71.00198 
L 206.034054 71.00198 
L 206.034054 70.203564 
L 206.205987 70.203564 
L 206.205987 69.405149 
L 206.559666 69.405149 
L 206.559666 68.606733 
L 207.094335 68.606733 
L 207.094335 67.808317 
L 207.250831 67.808317 
L 207.250831 67.009901 
L 207.785153 67.009901 
L 207.785153 66.211485 
L 208.959233 66.211485 
L 208.959233 65.413069 
L 209.522566 65.413069 
L 209.522566 64.614653 
L 209.728606 64.614653 
L 209.750419 60.622574 
L 209.862869 60.622574 
L 209.862869 59.824158 
L 210.084203 59.824158 
L 210.084203 59.025743 
L 210.301023 59.025743 
L 210.301023 58.227327 
L 211.130173 58.227327 
L 211.130173 57.428911 
L 212.285531 57.428911 
L 212.285531 56.630495 
L 212.45014 56.630495 
L 212.45014 55.832079 
L 214.875252 55.832079 
L 214.875252 55.033663 
L 215.43197 55.033663 
L 215.43197 54.235248 
L 217.425133 54.235248 
L 217.49228 51.84 
L 217.626865 51.84 
L 217.680945 47.847921 
L 219.758037 47.847921 
L 219.758037 47.049505 
L 220.632532 47.049505 
L 220.632532 45.452673 
L 225.525123 45.452673 
L 225.525123 44.654257 
L 227.453543 44.654257 
L 227.453543 43.855842 
L 228.267466 43.855842 
L 228.267466 42.25901 
L 230.019512 42.25901 
L 230.019512 41.460594 
L 230.145308 41.460594 
L 230.145308 38.266931 
L 230.41309 38.266931 
L 230.41309 37.468515 
L 231.901821 37.468515 
L 231.901821 35.073267 
L 233.423382 35.073267 
L 233.423382 33.476436 
L 234.765487 33.476436 
L 234.765493 31.879604 
L 235.966053 31.879604 
L 235.966053 31.081188 
L 237.052086 31.081188 
L 237.052091 29.484356 
L 238.043567 29.484356 
L 238.049751 27.089109 
L 238.955635 27.089109 
L 238.955635 25.492277 
L 239.800079 25.492277 
L 239.89218 22.298614 
L 240.324001 22.298614 
L 240.324001 21.500198 
L 240.586238 21.500198 
L 240.586238 20.701782 
L 241.018268 20.701782 
L 241.018268 19.903366 
L 241.321636 19.903366 
L 241.321636 18.306535 
L 241.727064 18.306535 
L 241.727064 17.508119 
L 242.032295 17.508119 
L 242.032295 16.709703 
L 243.520767 16.709703 
L 243.520767 15.911287 
L 243.958245 15.911287 
L 243.958245 15.112871 
L 244.881158 15.112871 
L 244.881158 14.314455 
L 245.625771 14.314455 
L 245.673141 12.717624 
L 245.793782 12.717624 
L 245.793782 11.919208 
L 246.008735 11.919208 
L 246.06128 8.725545 
L 246.954652 8.725545 
L 246.954652 7.927129 
L 247.709717 7.927129 
L 247.709717 7.128713 
L 248.367775 7.128713 
L 248.367775 6.330297 
L 248.367775 6.330297 
L 460.8 6.330297 
L 460.8 6.330297 
" clip-path="url(#p9af5bc4ae2)" style="fill: none; stroke: #00bfbf; stroke-width: 1.5; stroke-linecap: square"/>
   </g>
   <g id="line2d_29">
    <path d="M -1 130.883168 
L -0.993142 130.883168 
L -0.940541 127.689505 
L -0.8701 127.689505 
L -0.782564 125.294257 
L -0.734445 125.294257 
L -0.636728 120.503762 
L -0.600437 120.503762 
L -0.549226 118.108515 
L -0.474419 118.108515 
L -0.395584 115.713267 
L -0.326741 115.713267 
L -0.251589 113.31802 
L -0.212834 113.31802 
L -0.113382 97.349703 
L 141.820206 97.349703 
L 141.820206 96.551287 
L 157.898597 96.551287 
L 157.898597 95.752871 
L 162.01981 95.752871 
L 162.115054 94.15604 
L 162.254561 94.15604 
L 162.254561 93.357624 
L 162.429236 93.357624 
L 162.429236 92.559208 
L 163.928619 92.559208 
L 163.987578 90.962376 
L 165.04565 90.962376 
L 165.156533 89.365545 
L 165.733255 89.365545 
L 165.733255 88.567129 
L 166.553829 88.567129 
L 166.59324 86.970297 
L 167.112936 86.970297 
L 167.112936 86.171881 
L 167.673669 86.171881 
L 167.673669 85.373465 
L 168.358644 85.373465 
L 168.358644 84.57505 
L 172.448724 84.57505 
L 172.448724 83.776634 
L 172.756499 83.776634 
L 172.756499 82.978218 
L 173.818357 82.978218 
L 173.818357 82.179802 
L 174.328243 82.179802 
L 174.328243 81.381386 
L 180.308464 81.381386 
L 180.308464 80.58297 
L 183.995587 80.58297 
L 183.995587 79.784554 
L 185.80414 79.784554 
L 185.80414 78.986139 
L 187.033428 78.986139 
L 187.033428 78.187723 
L 188.235702 78.187723 
L 188.236193 76.590891 
L 188.593025 76.590891 
L 188.593025 75.792475 
L 190.09718 75.792475 
L 190.09718 74.994059 
L 194.697126 74.994059 
L 194.697126 74.195644 
L 195.531679 74.195644 
L 195.531679 73.397228 
L 195.917925 73.397228 
L 195.917925 71.800396 
L 196.736659 71.800396 
L 196.736659 71.00198 
L 197.004154 71.00198 
L 197.004154 70.203564 
L 197.674483 70.203564 
L 197.674483 69.405149 
L 197.995439 69.405149 
L 197.995439 68.606733 
L 199.477404 68.606733 
L 199.477404 67.009901 
L 199.751952 67.009901 
L 199.751952 66.211485 
L 200.346987 66.211485 
L 200.346987 65.413069 
L 200.788623 65.413069 
L 200.788623 64.614653 
L 201.033647 64.614653 
L 201.033647 63.816238 
L 202.185642 63.816238 
L 202.185642 63.017822 
L 202.402661 63.017822 
L 202.402661 62.219406 
L 205.588628 62.219406 
L 205.588628 51.84 
L 208.580732 51.84 
L 208.580732 51.041584 
L 208.959233 51.041584 
L 208.959233 50.243168 
L 212.285531 50.243168 
L 212.285531 49.444752 
L 213.248267 49.444752 
L 213.248267 48.646337 
L 213.878875 48.646337 
L 213.878875 47.847921 
L 214.875252 47.847921 
L 214.875252 47.049505 
L 215.250426 47.049505 
L 215.250426 46.251089 
L 217.425133 46.251089 
L 217.425133 44.654257 
L 217.680945 44.654257 
L 217.680945 43.057426 
L 220.632532 43.057426 
L 220.632532 42.25901 
L 222.24705 42.25901 
L 222.24705 41.460594 
L 225.525123 41.460594 
L 225.525123 36.670099 
L 227.453543 36.670099 
L 227.453543 35.871683 
L 228.067794 35.871683 
L 228.067794 33.476436 
L 228.267466 33.476436 
L 228.267466 31.879604 
L 230.019512 31.879604 
L 230.019512 31.081188 
L 230.145308 31.081188 
L 230.145308 28.685941 
L 231.901821 28.685941 
L 231.901821 27.089109 
L 237.052091 27.089109 
L 237.052091 26.290693 
L 237.167406 26.290693 
L 237.167406 25.492277 
L 238.043567 25.492277 
L 238.043567 22.298614 
L 238.955635 22.298614 
L 238.955635 19.10495 
L 239.800075 19.10495 
L 239.800079 15.112871 
L 240.324001 15.112871 
L 240.324001 14.314455 
L 240.586238 14.314455 
L 240.586238 13.51604 
L 244.101399 13.51604 
L 244.172468 7.927129 
L 244.334904 7.927129 
L 244.406147 6.330297 
L 244.406147 6.330297 
L 460.8 6.330297 
L 460.8 6.330297 
" clip-path="url(#p9af5bc4ae2)" style="fill: none; stroke: #bf00bf; stroke-width: 1.5; stroke-linecap: square"/>
   </g>
   <g id="patch_3">
    <path d="M 0 293.76 
L 0 3.456 
" style="fill: none; stroke: #000000; stroke-width: 0.8; stroke-linejoin: miter; stroke-linecap: square"/>
   </g>
   <g id="patch_4">
    <path d="M 460.8 293.76 
L 460.8 3.456 
" style="fill: none; stroke: #000000; stroke-width: 0.8; stroke-linejoin: miter; stroke-linecap: square"/>
   </g>
   <g id="patch_5">
    <path d="M 0 293.76 
L 460.8 293.76 
" style="fill: none; stroke: #000000; stroke-width: 0.8; stroke-linejoin: miter; stroke-linecap: square"/>
   </g>
   <g id="patch_6">
    <path d="M 0 3.456 
L 460.8 3.456 
" style="fill: none; stroke: #000000; stroke-width: 0.8; stroke-linejoin: miter; stroke-linecap: square"/>
   </g>
   <g id="text_6">
    <!-- {f1-f24}, 20-D -->
    <g transform="translate(305.884 287.95392)scale(0.2 -0.2)">
     <defs>
      <path id="DejaVuSans-7b" d="M 3272 -594 
L 3272 -1044 
L 3078 -1044 
Q 2300 -1044 2036 -812 
Q 1772 -581 1772 109 
L 1772 856 
Q 1772 1328 1603 1509 
Q 1434 1691 991 1691 
L 800 1691 
L 800 2138 
L 991 2138 
Q 1438 2138 1605 2317 
Q 1772 2497 1772 2963 
L 1772 3713 
Q 1772 4403 2036 4633 
Q 2300 4863 3078 4863 
L 3272 4863 
L 3272 4416 
L 3059 4416 
Q 2619 4416 2484 4278 
Q 2350 4141 2350 3700 
L 2350 2925 
Q 2350 2434 2208 2212 
Q 2066 1991 1722 1913 
Q 2069 1828 2209 1606 
Q 2350 1384 2350 897 
L 2350 122 
Q 2350 -319 2484 -456 
Q 2619 -594 3059 -594 
L 3272 -594 
z
" transform="scale(0.015625)"/>
      <path id="DejaVuSans-32" d="M 1228 531 
L 3431 531 
L 3431 0 
L 469 0 
L 469 531 
Q 828 903 1448 1529 
Q 2069 2156 2228 2338 
Q 2531 2678 2651 2914 
Q 2772 3150 2772 3378 
Q 2772 3750 2511 3984 
Q 2250 4219 1831 4219 
Q 1534 4219 1204 4116 
Q 875 4013 500 3803 
L 500 4441 
Q 881 4594 1212 4672 
Q 1544 4750 1819 4750 
Q 2544 4750 2975 4387 
Q 3406 4025 3406 3419 
Q 3406 3131 3298 2873 
Q 3191 2616 2906 2266 
Q 2828 2175 2409 1742 
Q 1991 1309 1228 531 
z
" transform="scale(0.015625)"/>
      <path id="DejaVuSans-7d" d="M 800 -594 
L 1019 -594 
Q 1456 -594 1589 -459 
Q 1722 -325 1722 122 
L 1722 897 
Q 1722 1384 1862 1606 
Q 2003 1828 2350 1913 
Q 2003 1991 1862 2212 
Q 1722 2434 1722 2925 
L 1722 3700 
Q 1722 4144 1589 4280 
Q 1456 4416 1019 4416 
L 800 4416 
L 800 4863 
L 997 4863 
Q 1775 4863 2036 4633 
Q 2297 4403 2297 3713 
L 2297 2963 
Q 2297 2497 2465 2317 
Q 2634 2138 3078 2138 
L 3272 2138 
L 3272 1691 
L 3078 1691 
Q 2634 1691 2465 1509 
Q 2297 1328 2297 856 
L 2297 109 
Q 2297 -581 2036 -812 
Q 1775 -1044 997 -1044 
L 800 -1044 
L 800 -594 
z
" transform="scale(0.015625)"/>
      <path id="DejaVuSans-2c" d="M 750 794 
L 1409 794 
L 1409 256 
L 897 -744 
L 494 -744 
L 750 256 
L 750 794 
z
" transform="scale(0.015625)"/>
     </defs>
     <use xlink:href="#DejaVuSans-7b"/>
     <use xlink:href="#DejaVuSans-66" x="63.623047"/>
     <use xlink:href="#DejaVuSans-31" x="98.828125"/>
     <use xlink:href="#DejaVuSans-2d" x="162.451172"/>
     <use xlink:href="#DejaVuSans-66" x="198.535156"/>
     <use xlink:href="#DejaVuSans-32" x="233.740234"/>
     <use xlink:href="#DejaVuSans-34" x="297.363281"/>
     <use xlink:href="#DejaVuSans-7d" x="360.986328"/>
     <use xlink:href="#DejaVuSans-2c" x="424.609375"/>
     <use xlink:href="#DejaVuSans-20" x="456.396484"/>
     <use xlink:href="#DejaVuSans-32" x="488.183594"/>
     <use xlink:href="#DejaVuSans-30" x="551.806641"/>
     <use xlink:href="#DejaVuSans-2d" x="615.429688"/>
     <use xlink:href="#DejaVuSans-44" x="651.513672"/>
    </g>
   </g>
   <g id="text_7">
    <!-- v2.6.3 -->
    <g style="fill: #808080" transform="translate(214.71875 288.777272)scale(0.1 -0.1)">
     <defs>
      <path id="DejaVuSans-76" d="M 191 3500 
L 800 3500 
L 1894 563 
L 2988 3500 
L 3597 3500 
L 2284 0 
L 1503 0 
L 191 3500 
z
" transform="scale(0.015625)"/>
      <path id="DejaVuSans-2e" d="M 684 794 
L 1344 794 
L 1344 0 
L 684 0 
L 684 794 
z
" transform="scale(0.015625)"/>
      <path id="DejaVuSans-36" d="M 2113 2584 
Q 1688 2584 1439 2293 
Q 1191 2003 1191 1497 
Q 1191 994 1439 701 
Q 1688 409 2113 409 
Q 2538 409 2786 701 
Q 3034 994 3034 1497 
Q 3034 2003 2786 2293 
Q 2538 2584 2113 2584 
z
M 3366 4563 
L 3366 3988 
Q 3128 4100 2886 4159 
Q 2644 4219 2406 4219 
Q 1781 4219 1451 3797 
Q 1122 3375 1075 2522 
Q 1259 2794 1537 2939 
Q 1816 3084 2150 3084 
Q 2853 3084 3261 2657 
Q 3669 2231 3669 1497 
Q 3669 778 3244 343 
Q 2819 -91 2113 -91 
Q 1303 -91 875 529 
Q 447 1150 447 2328 
Q 447 3434 972 4092 
Q 1497 4750 2381 4750 
Q 2619 4750 2861 4703 
Q 3103 4656 3366 4563 
z
" transform="scale(0.015625)"/>
      <path id="DejaVuSans-33" d="M 2597 2516 
Q 3050 2419 3304 2112 
Q 3559 1806 3559 1356 
Q 3559 666 3084 287 
Q 2609 -91 1734 -91 
Q 1441 -91 1130 -33 
Q 819 25 488 141 
L 488 750 
Q 750 597 1062 519 
Q 1375 441 1716 441 
Q 2309 441 2620 675 
Q 2931 909 2931 1356 
Q 2931 1769 2642 2001 
Q 2353 2234 1838 2234 
L 1294 2234 
L 1294 2753 
L 1863 2753 
Q 2328 2753 2575 2939 
Q 2822 3125 2822 3475 
Q 2822 3834 2567 4026 
Q 2313 4219 1838 4219 
Q 1578 4219 1281 4162 
Q 984 4106 628 3988 
L 628 4550 
Q 988 4650 1302 4700 
Q 1616 4750 1894 4750 
Q 2613 4750 3031 4423 
Q 3450 4097 3450 3541 
Q 3450 3153 3228 2886 
Q 3006 2619 2597 2516 
z
" transform="scale(0.015625)"/>
     </defs>
     <use xlink:href="#DejaVuSans-76"/>
     <use xlink:href="#DejaVuSans-32" x="59.179688"/>
     <use xlink:href="#DejaVuSans-2e" x="122.802734"/>
     <use xlink:href="#DejaVuSans-36" x="154.589844"/>
     <use xlink:href="#DejaVuSans-2e" x="218.212891"/>
     <use xlink:href="#DejaVuSans-33" x="250"/>
    </g>
   </g>
  </g>
 </g>
 <defs>
  <clipPath id="p9af5bc4ae2">
   <rect x="0" y="3.456" width="460.8" height="290.304"/>
  </clipPath>
 </defs>
</svg>
