<?xml version="1.0" encoding="utf-8" standalone="no"?>
<!DOCTYPE svg PUBLIC "-//W3C//DTD SVG 1.1//EN"
  "http://www.w3.org/Graphics/SVG/1.1/DTD/svg11.dtd">
<svg xmlns:xlink="http://www.w3.org/1999/xlink" width="460.8pt" height="345.6pt" viewBox="0 0 460.8 345.6" xmlns="http://www.w3.org/2000/svg" version="1.1">
 <metadata>
  <rdf:RDF xmlns:dc="http://purl.org/dc/elements/1.1/" xmlns:cc="http://creativecommons.org/ns#" xmlns:rdf="http://www.w3.org/1999/02/22-rdf-syntax-ns#">
   <cc:Work>
    <dc:type rdf:resource="http://purl.org/dc/dcmitype/StillImage"/>
    <dc:date>2023-04-07T14:48:05.276857</dc:date>
    <dc:format>image/svg+xml</dc:format>
    <dc:creator>
     <cc:Agent>
      <dc:title>Matplotlib v3.5.2, https://matplotlib.org/</dc:title>
     </cc:Agent>
    </dc:creator>
   </cc:Work>
  </rdf:RDF>
 </metadata>
 <defs>
  <style type="text/css">*{stroke-linejoin: round; stroke-linecap: butt}</style>
 </defs>
 <g id="figure_1">
  <g id="patch_1">
   <path d="M 0 345.6 
L 460.8 345.6 
L 460.8 0 
L 0 0 
z
" style="fill: #ffffff"/>
  </g>
  <g id="axes_1">
   <g id="patch_2">
    <path d="M 62.208 293.76 
L 460.8 293.76 
L 460.8 3.456 
L 62.208 3.456 
z
" style="fill: #ffffff"/>
   </g>
   <g id="line2d_1">
    <path d="M 205.261804 293.76 
L 205.261804 289.927604 
L 208.298981 289.927604 
L 208.298981 286.095208 
L 209.25167 286.095208 
L 209.25167 282.262812 
L 210.387283 282.262812 
L 210.387283 278.430416 
L 210.526496 278.430416 
L 210.526496 274.59802 
L 210.803155 274.59802 
L 210.803155 270.765624 
L 214.571636 270.765624 
L 214.571636 266.933228 
L 216.246136 266.933228 
L 216.246136 263.100832 
L 218.498448 263.100832 
L 218.498448 259.268436 
L 221.807159 259.268436 
L 221.807159 255.43604 
L 222.728179 255.43604 
L 222.728179 251.603644 
L 228.295537 251.603644 
L 228.295537 247.771248 
L 234.681253 247.771248 
L 234.681253 243.938851 
L 239.164513 243.938851 
L 239.164513 240.106455 
L 239.822308 240.106455 
L 239.822308 236.274059 
L 240.439339 236.274059 
L 240.439339 232.441663 
L 241.072185 232.441663 
L 241.072185 228.609267 
L 241.316519 228.609267 
L 241.316519 224.776871 
L 243.689418 224.776871 
L 243.689418 220.944475 
L 244.459924 220.944475 
L 244.459924 217.112079 
L 255.643667 217.112079 
L 255.643667 213.279683 
L 256.48718 213.279683 
L 256.48718 209.447287 
L 257.524166 209.447287 
L 257.524166 205.614891 
L 259.720457 205.614891 
L 259.720457 201.782495 
L 267.587835 201.782495 
L 267.587835 197.950099 
L 271.082982 197.950099 
L 271.082982 194.117703 
L 273.752817 194.117703 
L 273.752817 190.285307 
L 283.549906 190.285307 
L 283.549906 186.452911 
L 283.549906 186.452911 
L 283.549906 186.452911 
L 460.8 186.452911 
" clip-path="url(#p3e30ad7e91)" style="fill: none; stroke: #f5deb3; stroke-width: 1.5; stroke-linecap: square"/>
   </g>
   <g id="line2d_2">
    <path d="M 269.031099 293.76 
L 269.031099 282.262812 
L 284.348592 282.262812 
L 284.348592 270.765624 
L 295.784773 270.765624 
L 295.784773 259.268436 
L 332.428921 259.268436 
L 332.428921 247.771248 
L 359.034345 247.771248 
L 359.034345 236.274059 
L 359.034345 236.274059 
L 359.034345 236.274059 
L 460.8 236.274059 
" clip-path="url(#p3e30ad7e91)" style="fill: none; stroke: #f5deb3; stroke-width: 1.5; stroke-linecap: square"/>
   </g>
   <g id="line2d_3">
    <path d="M 173.023698 293.76 
L 173.023698 289.927604 
L 176.941744 289.927604 
L 176.941744 286.095208 
L 207.774242 286.095208 
L 207.774242 282.262812 
L 209.034273 282.262812 
L 209.034273 278.430416 
L 210.940611 278.430416 
L 210.940611 274.59802 
L 216.478489 274.59802 
L 216.478489 270.765624 
L 219.831106 270.765624 
L 219.831106 266.933228 
L 222.728179 266.933228 
L 222.728179 263.100832 
L 225.167955 263.100832 
L 225.167955 259.268436 
L 225.564733 259.268436 
L 225.564733 255.43604 
L 229.24876 255.43604 
L 229.24876 251.603644 
L 231.075563 251.603644 
L 231.075563 247.771248 
L 236.45503 247.771248 
L 236.45503 243.938851 
L 238.017904 243.938851 
L 238.017904 240.106455 
L 243.739681 240.106455 
L 243.739681 236.274059 
L 250.579342 236.274059 
L 250.579342 232.441663 
L 257.949415 232.441663 
L 257.949415 228.609267 
L 267.063543 228.609267 
L 267.063543 224.776871 
L 267.612017 224.776871 
L 267.612017 220.944475 
L 269.342066 220.944475 
L 269.342066 217.112079 
L 272.590785 217.112079 
L 272.590785 213.279683 
L 276.15566 213.279683 
L 276.15566 209.447287 
L 276.90976 209.447287 
L 276.90976 205.614891 
L 287.995234 205.614891 
L 287.995234 201.782495 
L 290.850872 201.782495 
L 290.850872 197.950099 
L 315.932026 197.950099 
L 315.932026 194.117703 
L 317.924903 194.117703 
L 317.924903 190.285307 
L 318.405315 190.285307 
L 318.405315 186.452911 
L 327.258817 186.452911 
L 327.258817 182.620515 
L 341.095929 182.620515 
L 341.095929 178.788119 
L 341.095929 178.788119 
L 341.095929 178.788119 
L 460.8 178.788119 
" clip-path="url(#p3e30ad7e91)" style="fill: none; stroke: #f5deb3; stroke-width: 1.5; stroke-linecap: square"/>
   </g>
   <g id="line2d_4">
    <path d="M 198.28178 293.76 
L 198.28178 289.927604 
L 215.239755 289.927604 
L 215.239755 286.095208 
L 215.299821 286.095208 
L 215.299821 282.262812 
L 217.616081 282.262812 
L 217.616081 278.430416 
L 243.436937 278.430416 
L 243.436937 274.59802 
L 244.386149 274.59802 
L 244.386149 270.765624 
L 247.906848 270.765624 
L 247.906848 266.933228 
L 248.127129 266.933228 
L 248.127129 263.100832 
L 251.403819 263.100832 
L 251.403819 259.268436 
L 260.661054 259.268436 
L 260.661054 255.43604 
L 261.87926 255.43604 
L 261.87926 251.603644 
L 264.454599 251.603644 
L 264.454599 247.771248 
L 264.547664 247.771248 
L 264.547664 243.938851 
L 267.828851 243.938851 
L 267.828851 240.106455 
L 268.447293 240.106455 
L 268.447293 236.274059 
L 269.661453 236.274059 
L 269.661453 232.441663 
L 273.672607 232.441663 
L 273.672607 228.609267 
L 286.185193 228.609267 
L 286.185193 224.776871 
L 294.937593 224.776871 
L 294.937593 220.944475 
L 295.317409 220.944475 
L 295.317409 217.112079 
L 299.755409 217.112079 
L 299.755409 213.279683 
L 301.23835 213.279683 
L 301.23835 209.447287 
L 309.584257 209.447287 
L 309.584257 205.614891 
L 312.338359 205.614891 
L 312.338359 201.782495 
L 315.52511 201.782495 
L 315.52511 197.950099 
L 318.674527 197.950099 
L 318.674527 194.117703 
L 329.081439 194.117703 
L 329.081439 190.285307 
L 333.110516 190.285307 
L 333.110516 186.452911 
L 346.221766 186.452911 
L 346.221766 182.620515 
L 346.972322 182.620515 
L 346.972322 178.788119 
L 348.415432 178.788119 
L 348.415432 174.955723 
L 351.060534 174.955723 
L 351.060534 171.123327 
L 356.171427 171.123327 
L 356.171427 167.290931 
L 356.171427 167.290931 
L 356.171427 167.290931 
L 460.8 167.290931 
" clip-path="url(#p3e30ad7e91)" style="fill: none; stroke: #f5deb3; stroke-width: 1.5; stroke-linecap: square"/>
   </g>
   <g id="line2d_5">
    <path d="M 289.820539 293.76 
L 289.820539 289.927604 
L 289.820539 289.927604 
L 289.820539 289.927604 
L 460.8 289.927604 
" clip-path="url(#p3e30ad7e91)" style="fill: none; stroke: #f5deb3; stroke-width: 1.5; stroke-linecap: square"/>
   </g>
   <g id="line2d_6"/>
   <g id="line2d_7">
    <path d="M 218.060246 293.76 
L 218.060246 289.927604 
L 223.76314 289.927604 
L 223.76314 286.095208 
L 225.433009 286.095208 
L 225.433009 282.262812 
L 228.894555 282.262812 
L 228.894555 278.430416 
L 236.107901 278.430416 
L 236.107901 274.59802 
L 283.176895 274.59802 
L 283.176895 270.765624 
L 295.255276 270.765624 
L 295.255276 266.933228 
L 298.235016 266.933228 
L 298.235016 263.100832 
L 298.950885 263.100832 
L 298.950885 259.268436 
L 302.545109 259.268436 
L 302.545109 255.43604 
L 311.580282 255.43604 
L 311.580282 251.603644 
L 313.618152 251.603644 
L 313.618152 247.771248 
L 314.672873 247.771248 
L 314.672873 243.938851 
L 314.861033 243.938851 
L 314.861033 240.106455 
L 316.11035 240.106455 
L 316.11035 236.274059 
L 317.641581 236.274059 
L 317.641581 232.441663 
L 321.66689 232.441663 
L 321.66689 228.609267 
L 322.698152 228.609267 
L 322.698152 224.776871 
L 323.769316 224.776871 
L 323.769316 220.944475 
L 329.070404 220.944475 
L 329.070404 217.112079 
L 330.405784 217.112079 
L 330.405784 213.279683 
L 331.724313 213.279683 
L 331.724313 209.447287 
L 335.384601 209.447287 
L 335.384601 205.614891 
L 338.409945 205.614891 
L 338.409945 201.782495 
L 341.548399 201.782495 
L 341.548399 197.950099 
L 351.411294 197.950099 
L 351.411294 194.117703 
L 351.527998 194.117703 
L 351.527998 190.285307 
L 355.929133 190.285307 
L 355.929133 186.452911 
L 369.507366 186.452911 
L 369.507366 182.620515 
L 371.408734 182.620515 
L 371.408734 178.788119 
L 372.886419 178.788119 
L 372.886419 174.955723 
L 379.126391 174.955723 
L 379.126391 171.123327 
L 381.233636 171.123327 
L 381.233636 167.290931 
L 381.824858 167.290931 
L 381.824858 163.458535 
L 389.781717 163.458535 
L 389.781717 159.626139 
L 391.88165 159.626139 
L 391.88165 155.793743 
L 397.150073 155.793743 
L 397.150073 151.961347 
L 401.602377 151.961347 
L 401.602377 148.12895 
L 404.659817 148.12895 
L 404.659817 144.296554 
L 405.745141 144.296554 
L 405.745141 140.464158 
L 407.544664 140.464158 
L 407.544664 136.631762 
L 409.934619 136.631762 
L 409.934619 132.799366 
L 416.847028 132.799366 
L 416.847028 128.96697 
L 419.362378 128.96697 
L 419.362378 125.134574 
L 421.994841 125.134574 
L 421.994841 121.302178 
L 422.17661 121.302178 
L 422.17661 117.469782 
L 425.415725 117.469782 
L 425.415725 113.637386 
L 425.565772 113.637386 
L 425.565772 109.80499 
L 428.586676 109.80499 
L 428.586676 105.972594 
L 436.569597 105.972594 
L 436.569597 102.140198 
L 455.242297 102.140198 
L 455.242297 98.307802 
L 456.586317 98.307802 
L 456.586317 94.475406 
L 461.8 94.475406 
" clip-path="url(#p3e30ad7e91)" style="fill: none; stroke: #f5deb3; stroke-width: 1.5; stroke-linecap: square"/>
   </g>
   <g id="line2d_8">
    <path d="M 327.192638 293.76 
L 327.192638 289.927604 
L 332.891987 289.927604 
L 332.891987 286.095208 
L 335.246353 286.095208 
L 335.246353 282.262812 
L 337.289627 282.262812 
L 337.289627 278.430416 
L 337.811695 278.430416 
L 337.811695 274.59802 
L 338.60283 274.59802 
L 338.60283 270.765624 
L 342.080002 270.765624 
L 342.080002 266.933228 
L 362.419344 266.933228 
L 362.419344 263.100832 
L 362.574612 263.100832 
L 362.574612 259.268436 
L 362.591087 259.268436 
L 362.591087 255.43604 
L 363.385106 255.43604 
L 363.385106 251.603644 
L 364.095532 251.603644 
L 364.095532 247.771248 
L 364.680397 247.771248 
L 364.680397 243.938851 
L 387.634788 243.938851 
L 387.634788 240.106455 
L 387.981075 240.106455 
L 387.981075 236.274059 
L 388.023121 236.274059 
L 388.023121 232.441663 
L 388.786493 232.441663 
L 388.786493 228.609267 
L 389.036546 228.609267 
L 389.036546 224.776871 
L 396.690635 224.776871 
L 396.690635 220.944475 
L 397.382837 220.944475 
L 397.382837 217.112079 
L 416.802991 217.112079 
L 416.802991 213.279683 
L 416.862652 213.279683 
L 416.862652 209.447287 
L 417.146448 209.447287 
L 417.146448 205.614891 
L 420.153805 205.614891 
L 420.153805 201.782495 
L 431.547073 201.782495 
L 431.547073 197.950099 
L 438.044211 197.950099 
L 438.044211 194.117703 
L 438.044211 194.117703 
L 438.044211 194.117703 
L 460.8 194.117703 
" clip-path="url(#p3e30ad7e91)" style="fill: none; stroke: #f5deb3; stroke-width: 1.5; stroke-linecap: square"/>
   </g>
   <g id="line2d_9">
    <path d="M 210.317452 293.76 
L 210.317452 289.927604 
L 214.263366 289.927604 
L 214.263366 286.095208 
L 224.811169 286.095208 
L 224.811169 282.262812 
L 225.652254 282.262812 
L 225.652254 278.430416 
L 257.47474 278.430416 
L 257.47474 274.59802 
L 261.327163 274.59802 
L 261.327163 270.765624 
L 265.217812 270.765624 
L 265.217812 266.933228 
L 268.198946 266.933228 
L 268.198946 263.100832 
L 273.197349 263.100832 
L 273.197349 259.268436 
L 285.57743 259.268436 
L 285.57743 255.43604 
L 286.680912 255.43604 
L 286.680912 251.603644 
L 286.707859 251.603644 
L 286.707859 247.771248 
L 296.27067 247.771248 
L 296.27067 243.938851 
L 298.7792 243.938851 
L 298.7792 240.106455 
L 307.781124 240.106455 
L 307.781124 236.274059 
L 311.378493 236.274059 
L 311.378493 232.441663 
L 313.535362 232.441663 
L 313.535362 228.609267 
L 314.84966 228.609267 
L 314.84966 224.776871 
L 318.267311 224.776871 
L 318.267311 220.944475 
L 320.386691 220.944475 
L 320.386691 217.112079 
L 323.256816 217.112079 
L 323.256816 213.279683 
L 323.259014 213.279683 
L 323.259014 209.447287 
L 325.693536 209.447287 
L 325.693536 205.614891 
L 330.212746 205.614891 
L 330.212746 201.782495 
L 332.41232 201.782495 
L 332.41232 197.950099 
L 334.653339 197.950099 
L 334.653339 194.117703 
L 337.606984 194.117703 
L 337.606984 190.285307 
L 344.732915 190.285307 
L 344.732915 186.452911 
L 345.973908 186.452911 
L 345.973908 182.620515 
L 347.187406 182.620515 
L 347.187406 178.788119 
L 353.945513 178.788119 
L 353.945513 174.955723 
L 355.619025 174.955723 
L 355.619025 171.123327 
L 359.897792 171.123327 
L 359.897792 167.290931 
L 369.289698 167.290931 
L 369.289698 163.458535 
L 369.429451 163.458535 
L 369.429451 159.626139 
L 370.775549 159.626139 
L 370.775549 155.793743 
L 373.985625 155.793743 
L 373.985625 151.961347 
L 376.403263 151.961347 
L 376.403263 148.12895 
L 377.372626 148.12895 
L 377.372626 144.296554 
L 377.521418 144.296554 
L 377.521418 140.464158 
L 381.228797 140.464158 
L 381.228797 136.631762 
L 381.433998 136.631762 
L 381.433998 132.799366 
L 383.812819 132.799366 
L 383.812819 128.96697 
L 384.618882 128.96697 
L 384.618882 125.134574 
L 391.875471 125.134574 
L 391.875471 121.302178 
L 393.872576 121.302178 
L 393.872576 117.469782 
L 393.92005 117.469782 
L 393.92005 113.637386 
L 394.152382 113.637386 
L 394.152382 109.80499 
L 394.179931 109.80499 
L 394.179931 105.972594 
L 394.977694 105.972594 
L 394.977694 102.140198 
L 396.057734 102.140198 
L 396.057734 98.307802 
L 396.781377 98.307802 
L 396.781377 94.475406 
L 396.839809 94.475406 
L 396.839809 90.64301 
L 398.135267 90.64301 
L 398.135267 86.810614 
L 399.020233 86.810614 
L 399.020233 82.978218 
L 399.219064 82.978218 
L 399.219064 79.145822 
L 404.370159 79.145822 
L 404.370159 75.313426 
L 407.990122 75.313426 
L 407.990122 71.48103 
L 420.091722 71.48103 
L 420.091722 67.648634 
L 424.422352 67.648634 
L 424.422352 63.816238 
L 433.578314 63.816238 
L 433.578314 59.983842 
L 461.8 59.983842 
" clip-path="url(#p3e30ad7e91)" style="fill: none; stroke: #f5deb3; stroke-width: 1.5; stroke-linecap: square"/>
   </g>
   <g id="line2d_10">
    <path d="M 313.10924 293.76 
L 313.10924 289.927604 
L 327.272425 289.927604 
L 327.272425 286.095208 
L 331.151193 286.095208 
L 331.151193 282.262812 
L 334.16916 282.262812 
L 334.16916 278.430416 
L 343.72003 278.430416 
L 343.72003 274.59802 
L 345.753961 274.59802 
L 345.753961 270.765624 
L 346.837037 270.765624 
L 346.837037 266.933228 
L 347.652956 266.933228 
L 347.652956 263.100832 
L 350.654724 263.100832 
L 350.654724 259.268436 
L 375.397113 259.268436 
L 375.397113 255.43604 
L 382.66271 255.43604 
L 382.66271 251.603644 
L 385.638546 251.603644 
L 385.638546 247.771248 
L 389.377924 247.771248 
L 389.377924 243.938851 
L 392.545014 243.938851 
L 392.545014 240.106455 
L 394.25095 240.106455 
L 394.25095 236.274059 
L 394.405705 236.274059 
L 394.405705 232.441663 
L 411.86676 232.441663 
L 411.86676 228.609267 
L 418.947807 228.609267 
L 418.947807 224.776871 
L 421.993026 224.776871 
L 421.993026 220.944475 
L 421.993026 220.944475 
L 421.993026 220.944475 
L 460.8 220.944475 
" clip-path="url(#p3e30ad7e91)" style="fill: none; stroke: #f5deb3; stroke-width: 1.5; stroke-linecap: square"/>
   </g>
   <g id="line2d_11">
    <path d="M 266.367873 293.76 
L 266.367873 289.927604 
L 293.852145 289.927604 
L 293.852145 286.095208 
L 306.252192 286.095208 
L 306.252192 282.262812 
L 312.131946 282.262812 
L 312.131946 278.430416 
L 314.954707 278.430416 
L 314.954707 274.59802 
L 317.91455 274.59802 
L 317.91455 270.765624 
L 319.029224 270.765624 
L 319.029224 266.933228 
L 320.094985 266.933228 
L 320.094985 263.100832 
L 328.375079 263.100832 
L 328.375079 259.268436 
L 329.817817 259.268436 
L 329.817817 255.43604 
L 329.868118 255.43604 
L 329.868118 251.603644 
L 331.87321 251.603644 
L 331.87321 247.771248 
L 337.299636 247.771248 
L 337.299636 243.938851 
L 337.676306 243.938851 
L 337.676306 240.106455 
L 340.250188 240.106455 
L 340.250188 236.274059 
L 340.846807 236.274059 
L 340.846807 232.441663 
L 341.324211 232.441663 
L 341.324211 228.609267 
L 341.706168 228.609267 
L 341.706168 224.776871 
L 342.409287 224.776871 
L 342.409287 220.944475 
L 346.303246 220.944475 
L 346.303246 217.112079 
L 356.325845 217.112079 
L 356.325845 213.279683 
L 356.883781 213.279683 
L 356.883781 209.447287 
L 358.677568 209.447287 
L 358.677568 205.614891 
L 362.259341 205.614891 
L 362.259341 201.782495 
L 363.408245 201.782495 
L 363.408245 197.950099 
L 365.07108 197.950099 
L 365.07108 194.117703 
L 373.426469 194.117703 
L 373.426469 190.285307 
L 374.436056 190.285307 
L 374.436056 186.452911 
L 374.533993 186.452911 
L 374.533993 182.620515 
L 376.83708 182.620515 
L 376.83708 178.788119 
L 380.459319 178.788119 
L 380.459319 174.955723 
L 398.184021 174.955723 
L 398.184021 171.123327 
L 436.739633 171.123327 
L 436.739633 167.290931 
L 445.696032 167.290931 
L 445.696032 163.458535 
L 447.42895 163.458535 
L 447.42895 159.626139 
L 447.933727 159.626139 
L 447.933727 155.793743 
L 448.205639 155.793743 
L 448.205639 151.961347 
L 461.8 151.961347 
" clip-path="url(#p3e30ad7e91)" style="fill: none; stroke: #f5deb3; stroke-width: 1.5; stroke-linecap: square"/>
   </g>
   <g id="line2d_12">
    <path d="M 213.256871 293.76 
L 213.256871 289.927604 
L 216.187788 289.927604 
L 216.187788 286.095208 
L 217.560133 286.095208 
L 217.560133 282.262812 
L 229.52162 282.262812 
L 229.52162 278.430416 
L 229.753699 278.430416 
L 229.753699 274.59802 
L 242.275969 274.59802 
L 242.275969 270.765624 
L 243.96491 270.765624 
L 243.96491 266.933228 
L 245.140572 266.933228 
L 245.140572 263.100832 
L 245.854425 263.100832 
L 245.854425 259.268436 
L 249.962593 259.268436 
L 249.962593 255.43604 
L 255.661101 255.43604 
L 255.661101 251.603644 
L 257.392198 251.603644 
L 257.392198 247.771248 
L 258.656683 247.771248 
L 258.656683 243.938851 
L 260.239621 243.938851 
L 260.239621 240.106455 
L 260.330387 240.106455 
L 260.330387 236.274059 
L 260.511166 236.274059 
L 260.511166 232.441663 
L 262.094648 232.441663 
L 262.094648 228.609267 
L 265.746758 228.609267 
L 265.746758 224.776871 
L 272.704732 224.776871 
L 272.704732 220.944475 
L 279.862981 220.944475 
L 279.862981 217.112079 
L 287.275274 217.112079 
L 287.275274 213.279683 
L 291.057808 213.279683 
L 291.057808 209.447287 
L 294.255414 209.447287 
L 294.255414 205.614891 
L 296.426041 205.614891 
L 296.426041 201.782495 
L 306.755261 201.782495 
L 306.755261 197.950099 
L 311.242212 197.950099 
L 311.242212 194.117703 
L 316.314905 194.117703 
L 316.314905 190.285307 
L 316.896963 190.285307 
L 316.896963 186.452911 
L 327.177047 186.452911 
L 327.177047 182.620515 
L 327.595412 182.620515 
L 327.595412 178.788119 
L 327.595412 178.788119 
L 327.595412 178.788119 
L 460.8 178.788119 
" clip-path="url(#p3e30ad7e91)" style="fill: none; stroke: #f5deb3; stroke-width: 1.5; stroke-linecap: square"/>
   </g>
   <g id="line2d_13">
    <path d="M 266.505697 293.76 
L 266.505697 289.927604 
L 277.797581 289.927604 
L 277.797581 286.095208 
L 282.078179 286.095208 
L 282.078179 282.262812 
L 283.049094 282.262812 
L 283.049094 278.430416 
L 287.466628 278.430416 
L 287.466628 274.59802 
L 291.022427 274.59802 
L 291.022427 270.765624 
L 293.949385 270.765624 
L 293.949385 266.933228 
L 294.180514 266.933228 
L 294.180514 263.100832 
L 294.180514 263.100832 
L 294.180514 259.268436 
L 296.255594 259.268436 
L 296.255594 255.43604 
L 308.111377 255.43604 
L 308.111377 251.603644 
L 308.111377 251.603644 
L 308.111377 251.603644 
L 460.8 251.603644 
" clip-path="url(#p3e30ad7e91)" style="fill: none; stroke: #f5deb3; stroke-width: 1.5; stroke-linecap: square"/>
   </g>
   <g id="line2d_14">
    <path d="M 183.598576 293.76 
L 183.598576 289.927604 
L 192.791429 289.927604 
L 192.791429 286.095208 
L 241.639479 286.095208 
L 241.639479 282.262812 
L 272.807975 282.262812 
L 272.807975 278.430416 
L 280.431031 278.430416 
L 280.431031 274.59802 
L 284.276127 274.59802 
L 284.276127 270.765624 
L 285.304419 270.765624 
L 285.304419 266.933228 
L 291.520127 266.933228 
L 291.520127 263.100832 
L 292.266935 263.100832 
L 292.266935 259.268436 
L 296.310836 259.268436 
L 296.310836 255.43604 
L 298.56917 255.43604 
L 298.56917 251.603644 
L 299.02023 251.603644 
L 299.02023 247.771248 
L 299.273245 247.771248 
L 299.273245 243.938851 
L 300.947973 243.938851 
L 300.947973 240.106455 
L 303.444606 240.106455 
L 303.444606 236.274059 
L 306.674997 236.274059 
L 306.674997 232.441663 
L 309.79409 232.441663 
L 309.79409 228.609267 
L 325.486847 228.609267 
L 325.486847 224.776871 
L 325.949565 224.776871 
L 325.949565 220.944475 
L 327.106795 220.944475 
L 327.106795 217.112079 
L 327.850375 217.112079 
L 327.850375 213.279683 
L 336.782322 213.279683 
L 336.782322 209.447287 
L 339.807043 209.447287 
L 339.807043 205.614891 
L 343.539853 205.614891 
L 343.539853 201.782495 
L 345.666671 201.782495 
L 345.666671 197.950099 
L 348.498725 197.950099 
L 348.498725 194.117703 
L 357.193819 194.117703 
L 357.193819 190.285307 
L 357.193819 190.285307 
L 357.193819 190.285307 
L 460.8 190.285307 
" clip-path="url(#p3e30ad7e91)" style="fill: none; stroke: #f5deb3; stroke-width: 1.5; stroke-linecap: square"/>
   </g>
   <g id="line2d_15">
    <path d="M 372.727912 293.76 
L 372.727912 289.927604 
L 374.205617 289.927604 
L 374.205617 286.095208 
L 376.528598 286.095208 
L 376.528598 282.262812 
L 379.199357 282.262812 
L 379.199357 278.430416 
L 381.331003 278.430416 
L 381.331003 274.59802 
L 384.66046 274.59802 
L 384.66046 270.765624 
L 386.958805 270.765624 
L 386.958805 266.933228 
L 390.790572 266.933228 
L 390.790572 263.100832 
L 396.033855 263.100832 
L 396.033855 259.268436 
L 398.639435 259.268436 
L 398.639435 255.43604 
L 398.902171 255.43604 
L 398.902171 251.603644 
L 402.958248 251.603644 
L 402.958248 247.771248 
L 403.639438 247.771248 
L 403.639438 243.938851 
L 403.683813 243.938851 
L 403.683813 240.106455 
L 404.263904 240.106455 
L 404.263904 236.274059 
L 405.127693 236.274059 
L 405.127693 232.441663 
L 406.870468 232.441663 
L 406.870468 228.609267 
L 409.870901 228.609267 
L 409.870901 224.776871 
L 414.467779 224.776871 
L 414.467779 220.944475 
L 414.467779 220.944475 
L 414.467779 220.944475 
L 460.8 220.944475 
" clip-path="url(#p3e30ad7e91)" style="fill: none; stroke: #f5deb3; stroke-width: 1.5; stroke-linecap: square"/>
   </g>
   <g id="line2d_16">
    <path d="M 271.37509 293.76 
L 271.37509 289.927604 
L 337.914272 289.927604 
L 337.914272 286.095208 
L 359.427213 286.095208 
L 359.427213 282.262812 
L 360.164998 282.262812 
L 360.164998 278.430416 
L 366.805366 278.430416 
L 366.805366 274.59802 
L 372.834953 274.59802 
L 372.834953 270.765624 
L 387.096245 270.765624 
L 387.096245 266.933228 
L 394.787078 266.933228 
L 394.787078 263.100832 
L 395.791949 263.100832 
L 395.791949 259.268436 
L 397.602684 259.268436 
L 397.602684 255.43604 
L 403.710746 255.43604 
L 403.710746 251.603644 
L 407.518886 251.603644 
L 407.518886 247.771248 
L 409.852939 247.771248 
L 409.852939 243.938851 
L 410.964197 243.938851 
L 410.964197 240.106455 
L 412.335636 240.106455 
L 412.335636 236.274059 
L 412.506155 236.274059 
L 412.506155 232.441663 
L 416.246824 232.441663 
L 416.246824 228.609267 
L 416.462461 228.609267 
L 416.462461 224.776871 
L 418.353594 224.776871 
L 418.353594 220.944475 
L 422.58122 220.944475 
L 422.58122 217.112079 
L 422.806563 217.112079 
L 422.806563 213.279683 
L 428.892732 213.279683 
L 428.892732 209.447287 
L 431.708609 209.447287 
L 431.708609 205.614891 
L 432.842726 205.614891 
L 432.842726 201.782495 
L 438.250658 201.782495 
L 438.250658 197.950099 
L 441.007622 197.950099 
L 441.007622 194.117703 
L 442.054401 194.117703 
L 442.054401 190.285307 
L 443.045578 190.285307 
L 443.045578 186.452911 
L 443.974448 186.452911 
L 443.974448 182.620515 
L 444.212179 182.620515 
L 444.212179 178.788119 
L 444.953288 178.788119 
L 444.953288 174.955723 
L 450.856769 174.955723 
L 450.856769 171.123327 
L 454.170882 171.123327 
L 454.170882 167.290931 
L 458.318868 167.290931 
L 458.318868 163.458535 
L 461.8 163.458535 
" clip-path="url(#p3e30ad7e91)" style="fill: none; stroke: #f5deb3; stroke-width: 1.5; stroke-linecap: square"/>
   </g>
   <g id="line2d_17">
    <path d="M 279.166315 293.76 
L 279.166315 289.927604 
L 281.117482 289.927604 
L 281.117482 286.095208 
L 296.615494 286.095208 
L 296.615494 282.262812 
L 355.780941 282.262812 
L 355.780941 278.430416 
L 387.037413 278.430416 
L 387.037413 274.59802 
L 387.037413 274.59802 
L 387.037413 274.59802 
L 460.8 274.59802 
" clip-path="url(#p3e30ad7e91)" style="fill: none; stroke: #f5deb3; stroke-width: 1.5; stroke-linecap: square"/>
   </g>
   <g id="line2d_18">
    <path d="M 191.943444 293.76 
L 191.943444 289.927604 
L 207.394196 289.927604 
L 207.394196 286.095208 
L 213.826838 286.095208 
L 213.826838 282.262812 
L 215.179579 282.262812 
L 215.179579 278.430416 
L 215.479357 278.430416 
L 215.479357 274.59802 
L 225.433009 274.59802 
L 225.433009 270.765624 
L 231.553222 270.765624 
L 231.553222 266.933228 
L 232.735253 266.933228 
L 232.735253 263.100832 
L 235.10929 263.100832 
L 235.10929 259.268436 
L 238.434156 259.268436 
L 238.434156 255.43604 
L 245.499449 255.43604 
L 245.499449 251.603644 
L 246.228858 251.603644 
L 246.228858 247.771248 
L 247.618242 247.771248 
L 247.618242 243.938851 
L 248.105168 243.938851 
L 248.105168 240.106455 
L 257.655603 240.106455 
L 257.655603 236.274059 
L 259.098913 236.274059 
L 259.098913 232.441663 
L 259.442226 232.441663 
L 259.442226 228.609267 
L 259.843358 228.609267 
L 259.843358 224.776871 
L 260.661054 224.776871 
L 260.661054 220.944475 
L 270.201806 220.944475 
L 270.201806 217.112079 
L 270.7992 217.112079 
L 270.7992 213.279683 
L 275.516819 213.279683 
L 275.516819 209.447287 
L 277.974044 209.447287 
L 277.974044 205.614891 
L 283.42356 205.614891 
L 283.42356 201.782495 
L 291.82666 201.782495 
L 291.82666 197.950099 
L 294.942826 197.950099 
L 294.942826 194.117703 
L 297.623819 194.117703 
L 297.623819 190.285307 
L 301.384724 190.285307 
L 301.384724 186.452911 
L 314.704308 186.452911 
L 314.704308 182.620515 
L 319.922597 182.620515 
L 319.922597 178.788119 
L 319.922597 178.788119 
L 319.922597 178.788119 
L 460.8 178.788119 
" clip-path="url(#p3e30ad7e91)" style="fill: none; stroke: #f5deb3; stroke-width: 1.5; stroke-linecap: square"/>
   </g>
   <g id="line2d_19">
    <path d="M 311.548834 293.76 
L 311.548834 289.553712 
L 314.526731 289.553712 
L 314.526731 285.347423 
L 317.376839 285.347423 
L 317.376839 281.141135 
L 320.910479 281.141135 
L 320.910479 276.934847 
L 321.775175 276.934847 
L 321.775175 272.728558 
L 322.045467 272.728558 
L 322.045467 268.52227 
L 324.705676 268.52227 
L 324.705676 264.315982 
L 324.829496 264.315982 
L 324.829496 260.109693 
L 325.433427 260.109693 
L 325.433427 255.903405 
L 326.774967 255.903405 
L 326.774967 251.697117 
L 328.463278 251.697117 
L 328.463278 247.490828 
L 329.039118 247.490828 
L 329.039118 243.28454 
L 329.180588 243.28454 
L 329.180588 239.078252 
L 329.530698 239.078252 
L 329.530698 234.871963 
L 331.263185 234.871963 
L 331.263185 230.665675 
L 336.947484 230.665675 
L 336.947484 226.459387 
L 338.193666 226.459387 
L 338.193666 222.253098 
L 342.825933 222.253098 
L 342.825933 218.04681 
L 346.150986 218.04681 
L 346.150986 213.840522 
L 347.190574 213.840522 
L 347.190574 209.634233 
L 347.813928 209.634233 
L 347.813928 205.427945 
L 348.121197 205.427945 
L 348.12325 197.015368 
L 350.348459 197.015368 
L 350.410708 188.602792 
L 351.589885 188.602792 
L 351.589885 184.396503 
L 354.095418 184.396503 
L 354.095418 180.190215 
L 356.659379 180.190215 
L 356.659379 175.983927 
L 357.725769 175.983927 
L 357.725769 171.777638 
L 357.863886 171.777638 
L 357.863886 167.57135 
L 365.738937 167.57135 
L 365.738937 163.365062 
L 367.122861 163.365062 
L 367.149228 154.952485 
L 368.22564 154.952485 
L 368.22564 150.746197 
L 369.464696 150.746197 
L 369.464696 146.539908 
L 370.699577 146.539908 
L 370.699577 142.33362 
L 370.990694 142.33362 
L 370.990694 138.127332 
L 373.196385 138.127332 
L 373.196385 133.921043 
L 373.549149 133.921043 
L 373.549149 129.714755 
L 374.517995 129.714755 
L 374.517995 125.508467 
L 374.695359 125.508467 
L 374.695359 121.302178 
L 383.533751 121.302178 
L 383.533751 117.09589 
L 384.688931 117.09589 
L 384.688931 112.889602 
L 389.377344 112.889602 
L 389.377344 108.683313 
L 417.051295 108.683313 
L 417.051295 104.477025 
L 417.051295 104.477025 
L 460.8 104.477025 
L 460.8 104.477025 
" clip-path="url(#p3e30ad7e91)" style="fill: none; stroke: #f5deb3; stroke-width: 1.5; stroke-linecap: square"/>
   </g>
   <g id="line2d_20">
    <path d="M 188.036927 293.76 
L 188.036927 289.927604 
L 188.036927 289.927604 
L 188.036927 286.095208 
L 191.448804 286.095208 
L 191.448804 282.262812 
L 193.266282 282.262812 
L 193.266282 278.430416 
L 204.01405 278.430416 
L 204.01405 274.59802 
L 218.930846 274.59802 
L 218.930846 270.765624 
L 222.680347 270.765624 
L 222.680347 266.933228 
L 228.416223 266.933228 
L 228.416223 263.100832 
L 235.467143 263.100832 
L 235.467143 259.268436 
L 243.512887 259.268436 
L 243.512887 255.43604 
L 244.606977 255.43604 
L 244.606977 251.603644 
L 246.298589 251.603644 
L 246.298589 247.771248 
L 247.618242 247.771248 
L 247.618242 243.938851 
L 250.416011 243.938851 
L 250.416011 240.106455 
L 250.497778 240.106455 
L 250.497778 236.274059 
L 256.007844 236.274059 
L 256.007844 232.441663 
L 258.608944 232.441663 
L 258.608944 228.609267 
L 259.192903 228.609267 
L 259.192903 224.776871 
L 259.781965 224.776871 
L 259.781965 220.944475 
L 260.61616 220.944475 
L 260.61616 217.112079 
L 263.233808 217.112079 
L 263.233808 213.279683 
L 266.29245 213.279683 
L 266.29245 209.447287 
L 271.439649 209.447287 
L 271.439649 205.614891 
L 271.450397 205.614891 
L 271.450397 201.782495 
L 272.777036 201.782495 
L 272.777036 197.950099 
L 281.805449 197.950099 
L 281.805449 194.117703 
L 282.746398 194.117703 
L 282.746398 190.285307 
L 283.999283 190.285307 
L 283.999283 186.452911 
L 300.09678 186.452911 
L 300.09678 182.620515 
L 301.500496 182.620515 
L 301.500496 178.788119 
L 383.013145 178.788119 
L 383.013145 174.955723 
L 383.013145 174.955723 
L 383.013145 174.955723 
L 460.8 174.955723 
" clip-path="url(#p3e30ad7e91)" style="fill: none; stroke: #f5deb3; stroke-width: 1.5; stroke-linecap: square"/>
   </g>
   <g id="line2d_21">
    <path d="M 330.400487 293.76 
L 330.400487 289.927604 
L 347.50583 289.927604 
L 347.50583 286.095208 
L 353.244307 286.095208 
L 353.244307 282.262812 
L 353.244307 282.262812 
L 353.244307 282.262812 
L 460.8 282.262812 
" clip-path="url(#p3e30ad7e91)" style="fill: none; stroke: #f5deb3; stroke-width: 1.5; stroke-linecap: square"/>
   </g>
   <g id="line2d_22">
    <path d="M 175.955398 293.76 
L 175.955398 289.927604 
L 180.959112 289.927604 
L 180.959112 286.095208 
L 187.478869 286.095208 
L 187.478869 282.262812 
L 188.312418 282.262812 
L 188.312418 278.430416 
L 193.266282 278.430416 
L 193.266282 274.59802 
L 195.978893 274.59802 
L 195.978893 270.765624 
L 237.015216 270.765624 
L 237.015216 266.933228 
L 257.524166 266.933228 
L 257.524166 263.100832 
L 259.192903 263.100832 
L 259.192903 259.268436 
L 262.280175 259.268436 
L 262.280175 255.43604 
L 264.227476 255.43604 
L 264.227476 251.603644 
L 270.368848 251.603644 
L 270.368848 247.771248 
L 273.166778 247.771248 
L 273.166778 243.938851 
L 279.478715 243.938851 
L 279.478715 240.106455 
L 283.064155 240.106455 
L 283.064155 236.274059 
L 286.902558 236.274059 
L 286.902558 232.441663 
L 303.059224 232.441663 
L 303.059224 228.609267 
L 303.533208 228.609267 
L 303.533208 224.776871 
L 306.248491 224.776871 
L 306.248491 220.944475 
L 307.315233 220.944475 
L 307.315233 217.112079 
L 309.913391 217.112079 
L 309.913391 213.279683 
L 317.516031 213.279683 
L 317.516031 209.447287 
L 325.768928 209.447287 
L 325.768928 205.614891 
L 331.069975 205.614891 
L 331.069975 201.782495 
L 331.759907 201.782495 
L 331.759907 197.950099 
L 332.367456 197.950099 
L 332.367456 194.117703 
L 343.670668 194.117703 
L 343.670668 190.285307 
L 352.234074 190.285307 
L 352.234074 186.452911 
L 357.632343 186.452911 
L 357.632343 182.620515 
L 365.899472 182.620515 
L 365.899472 178.788119 
L 368.495061 178.788119 
L 368.495061 174.955723 
L 372.129385 174.955723 
L 372.129385 171.123327 
L 377.059037 171.123327 
L 377.059037 167.290931 
L 379.894604 167.290931 
L 379.894604 163.458535 
L 382.072458 163.458535 
L 382.072458 159.626139 
L 392.174979 159.626139 
L 392.174979 155.793743 
L 393.128275 155.793743 
L 393.128275 151.961347 
L 396.284544 151.961347 
L 396.284544 148.12895 
L 405.488905 148.12895 
L 405.488905 144.296554 
L 418.744723 144.296554 
L 418.744723 140.464158 
L 420.716188 140.464158 
L 420.716188 136.631762 
L 422.321237 136.631762 
L 422.321237 132.799366 
L 427.854284 132.799366 
L 427.854284 128.96697 
L 427.967596 128.96697 
L 427.967596 125.134574 
L 427.967596 125.134574 
L 427.967596 125.134574 
L 460.8 125.134574 
" clip-path="url(#p3e30ad7e91)" style="fill: none; stroke: #f5deb3; stroke-width: 1.5; stroke-linecap: square"/>
   </g>
   <g id="line2d_23">
    <path d="M 273.299049 293.76 
L 273.299049 289.927604 
L 278.419754 289.927604 
L 278.419754 286.095208 
L 280.763945 286.095208 
L 280.763945 282.262812 
L 281.395996 282.262812 
L 281.395996 278.430416 
L 282.59399 278.430416 
L 282.59399 274.59802 
L 284.986543 274.59802 
L 284.986543 270.765624 
L 297.279795 270.765624 
L 297.279795 266.933228 
L 300.434619 266.933228 
L 300.434619 263.100832 
L 300.615432 263.100832 
L 300.615432 259.268436 
L 301.951081 259.268436 
L 301.951081 255.43604 
L 307.992309 255.43604 
L 307.992309 251.603644 
L 310.28833 251.603644 
L 310.28833 247.771248 
L 315.43306 247.771248 
L 315.43306 243.938851 
L 320.594831 243.938851 
L 320.594831 240.106455 
L 322.720504 240.106455 
L 322.720504 236.274059 
L 326.749301 236.274059 
L 326.749301 232.441663 
L 337.597069 232.441663 
L 337.597069 228.609267 
L 337.626805 228.609267 
L 337.626805 224.776871 
L 339.865244 224.776871 
L 339.865244 220.944475 
L 343.822042 220.944475 
L 343.822042 217.112079 
L 357.426168 217.112079 
L 357.426168 213.279683 
L 357.426168 213.279683 
L 357.426168 213.279683 
L 460.8 213.279683 
" clip-path="url(#p3e30ad7e91)" style="fill: none; stroke: #f5deb3; stroke-width: 1.5; stroke-linecap: square"/>
   </g>
   <g id="line2d_24">
    <path d="M 238.552117 293.76 
L 238.552117 289.927604 
L 239.651983 289.927604 
L 239.651983 286.095208 
L 244.850602 286.095208 
L 244.850602 282.262812 
L 245.736528 282.262812 
L 245.736528 278.430416 
L 250.701305 278.430416 
L 250.701305 274.59802 
L 251.44351 274.59802 
L 251.44351 270.765624 
L 258.894337 270.765624 
L 258.894337 266.933228 
L 278.411073 266.933228 
L 278.411073 263.100832 
L 299.944503 263.100832 
L 299.944503 259.268436 
L 300.694499 259.268436 
L 300.694499 255.43604 
L 301.80723 255.43604 
L 301.80723 251.603644 
L 302.911987 251.603644 
L 302.911987 247.771248 
L 304.386658 247.771248 
L 304.386658 243.938851 
L 305.080569 243.938851 
L 305.080569 240.106455 
L 305.267979 240.106455 
L 305.267979 236.274059 
L 307.422514 236.274059 
L 307.422514 232.441663 
L 314.612776 232.441663 
L 314.612776 228.609267 
L 315.2032 228.609267 
L 315.2032 224.776871 
L 316.104877 224.776871 
L 316.104877 220.944475 
L 323.918279 220.944475 
L 323.918279 217.112079 
L 328.401376 217.112079 
L 328.401376 213.279683 
L 329.31232 213.279683 
L 329.31232 209.447287 
L 330.359842 209.447287 
L 330.359842 205.614891 
L 330.504518 205.614891 
L 330.504518 201.782495 
L 332.594467 201.782495 
L 332.594467 197.950099 
L 337.896029 197.950099 
L 337.896029 194.117703 
L 339.293307 194.117703 
L 339.293307 190.285307 
L 339.816309 190.285307 
L 339.816309 186.452911 
L 344.630288 186.452911 
L 344.630288 182.620515 
L 347.658161 182.620515 
L 347.658161 178.788119 
L 349.094829 178.788119 
L 349.094829 174.955723 
L 352.664614 174.955723 
L 352.664614 171.123327 
L 353.96697 171.123327 
L 353.96697 167.290931 
L 357.629275 167.290931 
L 357.629275 163.458535 
L 362.652957 163.458535 
L 362.652957 159.626139 
L 363.837193 159.626139 
L 363.837193 155.793743 
L 368.172376 155.793743 
L 368.172376 151.961347 
L 381.113199 151.961347 
L 381.113199 148.12895 
L 383.121165 148.12895 
L 383.121165 144.296554 
L 385.117333 144.296554 
L 385.117333 140.464158 
L 393.713489 140.464158 
L 393.713489 136.631762 
L 396.846039 136.631762 
L 396.846039 132.799366 
L 412.120902 132.799366 
L 412.120902 128.96697 
L 414.53508 128.96697 
L 414.53508 125.134574 
L 415.56966 125.134574 
L 415.56966 121.302178 
L 415.826455 121.302178 
L 415.826455 117.469782 
L 416.25179 117.469782 
L 416.25179 113.637386 
L 417.92762 113.637386 
L 417.92762 109.80499 
L 418.34655 109.80499 
L 418.34655 105.972594 
L 420.416209 105.972594 
L 420.416209 102.140198 
L 433.135902 102.140198 
L 433.135902 98.307802 
L 433.603765 98.307802 
L 433.603765 94.475406 
L 437.027184 94.475406 
L 437.027184 90.64301 
L 446.647033 90.64301 
L 446.647033 86.810614 
L 448.077268 86.810614 
L 448.077268 82.978218 
L 461.8 82.978218 
" clip-path="url(#p3e30ad7e91)" style="fill: none; stroke: #f5deb3; stroke-width: 1.5; stroke-linecap: square"/>
   </g>
   <g id="line2d_25">
    <path d="M 346.529235 293.76 
L 346.529235 289.927604 
L 348.753375 289.927604 
L 348.753375 286.095208 
L 352.028949 286.095208 
L 352.028949 282.262812 
L 352.88354 282.262812 
L 352.88354 278.430416 
L 352.910138 278.430416 
L 352.910138 274.59802 
L 353.605469 274.59802 
L 353.605469 270.765624 
L 353.737073 270.765624 
L 353.737073 266.933228 
L 354.239534 266.933228 
L 354.239534 263.100832 
L 355.163986 263.100832 
L 355.163986 259.268436 
L 356.136924 259.268436 
L 356.136924 255.43604 
L 356.510504 255.43604 
L 356.510504 251.603644 
L 356.561261 251.603644 
L 356.561261 247.771248 
L 356.607983 247.771248 
L 356.607983 243.938851 
L 356.662539 243.938851 
L 356.662539 240.106455 
L 356.980935 240.106455 
L 356.980935 236.274059 
L 357.418449 236.274059 
L 357.418449 232.441663 
L 357.630809 232.441663 
L 357.630809 228.609267 
L 358.1414 228.609267 
L 358.1414 224.776871 
L 359.038018 224.776871 
L 359.038018 220.944475 
L 359.367638 220.944475 
L 359.367638 217.112079 
L 360.376493 217.112079 
L 360.376493 213.279683 
L 360.458881 213.279683 
L 360.458881 209.447287 
L 362.000083 209.447287 
L 362.000083 205.614891 
L 362.164697 205.614891 
L 362.164697 201.782495 
L 371.394147 201.782495 
L 371.394147 197.950099 
L 372.31137 197.950099 
L 372.31137 194.117703 
L 373.134436 194.117703 
L 373.134436 190.285307 
L 373.408974 190.285307 
L 373.408974 186.452911 
L 373.825373 186.452911 
L 373.825373 182.620515 
L 374.2734 182.620515 
L 374.2734 178.788119 
L 374.293201 178.788119 
L 374.293201 174.955723 
L 374.53445 174.955723 
L 374.53445 171.123327 
L 375.116872 171.123327 
L 375.116872 167.290931 
L 375.124054 167.290931 
L 375.124054 163.458535 
L 375.202943 163.458535 
L 375.202943 159.626139 
L 376.411892 159.626139 
L 376.411892 155.793743 
L 376.680423 155.793743 
L 376.680423 151.961347 
L 376.680423 151.961347 
L 376.680423 151.961347 
L 460.8 151.961347 
" clip-path="url(#p3e30ad7e91)" style="fill: none; stroke: #f5deb3; stroke-width: 1.5; stroke-linecap: square"/>
   </g>
   <g id="line2d_26">
    <path d="M 251.403819 293.76 
L 251.403819 289.927604 
L 252.59319 289.927604 
L 252.59319 286.095208 
L 252.879138 286.095208 
L 252.879138 282.262812 
L 253.256548 282.262812 
L 253.256548 278.430416 
L 253.406299 278.430416 
L 253.406299 274.59802 
L 254.254284 274.59802 
L 254.254284 270.765624 
L 254.867195 270.765624 
L 254.867195 266.933228 
L 255.080798 266.933228 
L 255.080798 263.100832 
L 257.704755 263.100832 
L 257.704755 259.268436 
L 265.451088 259.268436 
L 265.451088 255.43604 
L 266.204236 255.43604 
L 266.204236 251.603644 
L 267.124942 251.603644 
L 267.124942 247.771248 
L 267.466656 247.771248 
L 267.466656 243.938851 
L 269.898958 243.938851 
L 269.898958 240.106455 
L 276.350448 240.106455 
L 276.350448 236.274059 
L 276.955183 236.274059 
L 276.955183 232.441663 
L 276.973335 232.441663 
L 276.973335 228.609267 
L 277.432822 228.609267 
L 277.432822 224.776871 
L 278.850896 224.776871 
L 278.850896 220.944475 
L 279.06435 220.944475 
L 279.06435 217.112079 
L 279.821432 217.112079 
L 279.821432 213.279683 
L 288.977226 213.279683 
L 288.977226 209.447287 
L 291.193084 209.447287 
L 291.193084 205.614891 
L 291.275153 205.614891 
L 291.275153 201.782495 
L 292.050399 201.782495 
L 292.050399 197.950099 
L 293.345072 197.950099 
L 293.345072 194.117703 
L 297.758499 194.117703 
L 297.758499 190.285307 
L 297.926072 190.285307 
L 297.926072 186.452911 
L 300.637414 186.452911 
L 300.637414 182.620515 
L 301.474805 182.620515 
L 301.474805 178.788119 
L 309.651016 178.788119 
L 309.651016 174.955723 
L 310.63637 174.955723 
L 310.63637 171.123327 
L 313.891633 171.123327 
L 313.891633 167.290931 
L 316.145898 167.290931 
L 316.145898 163.458535 
L 331.70735 163.458535 
L 331.70735 159.626139 
L 333.530401 159.626139 
L 333.530401 155.793743 
L 355.248244 155.793743 
L 355.248244 151.961347 
L 355.543079 151.961347 
L 355.543079 148.12895 
L 368.517596 148.12895 
L 368.517596 144.296554 
L 372.246247 144.296554 
L 372.246247 140.464158 
L 374.765764 140.464158 
L 374.765764 136.631762 
L 375.169349 136.631762 
L 375.169349 132.799366 
L 377.719311 132.799366 
L 377.719311 128.96697 
L 378.075475 128.96697 
L 378.075475 125.134574 
L 378.410756 125.134574 
L 378.410756 121.302178 
L 380.380715 121.302178 
L 380.380715 117.469782 
L 381.794507 117.469782 
L 381.794507 113.637386 
L 381.856276 113.637386 
L 381.856276 109.80499 
L 381.911732 109.80499 
L 381.911732 105.972594 
L 386.8029 105.972594 
L 386.8029 102.140198 
L 386.8029 102.140198 
L 386.8029 102.140198 
L 460.8 102.140198 
" clip-path="url(#p3e30ad7e91)" style="fill: none; stroke: #f5deb3; stroke-width: 1.5; stroke-linecap: square"/>
   </g>
   <g id="line2d_27">
    <path d="M 206.384859 293.76 
L 206.384859 289.927604 
L 214.076997 289.927604 
L 214.076997 286.095208 
L 243.462274 286.095208 
L 243.462274 282.262812 
L 254.290657 282.262812 
L 254.290657 278.430416 
L 274.632113 278.430416 
L 274.632113 274.59802 
L 287.558606 274.59802 
L 287.558606 270.765624 
L 291.907153 270.765624 
L 291.907153 266.933228 
L 292.723761 266.933228 
L 292.723761 263.100832 
L 293.063619 263.100832 
L 293.063619 259.268436 
L 300.145895 259.268436 
L 300.145895 255.43604 
L 302.370534 255.43604 
L 302.370534 251.603644 
L 302.378868 251.603644 
L 302.378868 247.771248 
L 304.849613 247.771248 
L 304.849613 243.938851 
L 307.472458 243.938851 
L 307.472458 240.106455 
L 309.570888 240.106455 
L 309.570888 236.274059 
L 311.868186 236.274059 
L 311.868186 232.441663 
L 311.964628 232.441663 
L 311.964628 228.609267 
L 313.261853 228.609267 
L 313.261853 224.776871 
L 316.186867 224.776871 
L 316.186867 220.944475 
L 319.854362 220.944475 
L 319.854362 217.112079 
L 324.156498 217.112079 
L 324.156498 213.279683 
L 327.036392 213.279683 
L 327.036392 209.447287 
L 327.369464 209.447287 
L 327.369464 205.614891 
L 337.511958 205.614891 
L 337.511958 201.782495 
L 337.881988 201.782495 
L 337.881988 197.950099 
L 338.850524 197.950099 
L 338.850524 194.117703 
L 341.164581 194.117703 
L 341.164581 190.285307 
L 343.20394 190.285307 
L 343.20394 186.452911 
L 344.102974 186.452911 
L 344.102974 182.620515 
L 348.20729 182.620515 
L 348.20729 178.788119 
L 404.341565 178.788119 
L 404.341565 174.955723 
L 404.341565 174.955723 
L 404.341565 174.955723 
L 460.8 174.955723 
" clip-path="url(#p3e30ad7e91)" style="fill: none; stroke: #f5deb3; stroke-width: 1.5; stroke-linecap: square"/>
   </g>
   <g id="line2d_28">
    <path d="M 219.726472 293.76 
L 219.726472 289.927604 
L 220.246317 289.927604 
L 220.246317 286.095208 
L 227.063482 286.095208 
L 227.063482 282.262812 
L 234.846548 282.262812 
L 234.846548 278.430416 
L 250.620047 278.430416 
L 250.620047 274.59802 
L 270.302134 274.59802 
L 270.302134 270.765624 
L 282.023815 270.765624 
L 282.023815 266.933228 
L 301.047946 266.933228 
L 301.047946 263.100832 
L 302.96114 263.100832 
L 302.96114 259.268436 
L 304.636458 259.268436 
L 304.636458 255.43604 
L 304.663664 255.43604 
L 304.663664 251.603644 
L 306.16697 251.603644 
L 306.16697 247.771248 
L 306.477144 247.771248 
L 306.477144 243.938851 
L 308.552329 243.938851 
L 308.552329 240.106455 
L 312.735178 240.106455 
L 312.735178 236.274059 
L 313.874058 236.274059 
L 313.874058 232.441663 
L 328.088199 232.441663 
L 328.088199 228.609267 
L 329.070404 228.609267 
L 329.070404 224.776871 
L 329.561517 224.776871 
L 329.561517 220.944475 
L 329.839384 220.944475 
L 329.839384 217.112079 
L 330.395188 217.112079 
L 330.395188 213.279683 
L 331.268345 213.279683 
L 331.268345 209.447287 
L 332.1489 209.447287 
L 332.1489 205.614891 
L 332.563078 205.614891 
L 332.563078 201.782495 
L 333.099137 201.782495 
L 333.099137 197.950099 
L 336.948929 197.950099 
L 336.948929 194.117703 
L 337.021103 194.117703 
L 337.021103 190.285307 
L 340.619024 190.285307 
L 340.619024 186.452911 
L 341.518261 186.452911 
L 341.518261 182.620515 
L 341.633639 182.620515 
L 341.633639 178.788119 
L 344.558257 178.788119 
L 344.558257 174.955723 
L 344.792064 174.955723 
L 344.792064 171.123327 
L 355.079511 171.123327 
L 355.079511 167.290931 
L 358.437531 167.290931 
L 358.437531 163.458535 
L 361.282494 163.458535 
L 361.282494 159.626139 
L 362.849633 159.626139 
L 362.849633 155.793743 
L 363.473076 155.793743 
L 363.473076 151.961347 
L 365.631073 151.961347 
L 365.631073 148.12895 
L 372.627786 148.12895 
L 372.627786 144.296554 
L 377.766114 144.296554 
L 377.766114 140.464158 
L 380.289664 140.464158 
L 380.289664 136.631762 
L 381.437327 136.631762 
L 381.437327 132.799366 
L 383.572577 132.799366 
L 383.572577 128.96697 
L 400.556561 128.96697 
L 400.556561 125.134574 
L 410.597612 125.134574 
L 410.597612 121.302178 
L 420.800142 121.302178 
L 420.800142 117.469782 
L 424.785517 117.469782 
L 424.785517 113.637386 
L 438.390476 113.637386 
L 438.390476 109.80499 
L 439.179084 109.80499 
L 439.179084 105.972594 
L 448.262139 105.972594 
L 448.262139 102.140198 
L 448.866159 102.140198 
L 448.866159 98.307802 
L 449.471588 98.307802 
L 449.471588 94.475406 
L 449.556755 94.475406 
L 449.556755 90.64301 
L 451.751946 90.64301 
L 451.751946 86.810614 
L 461.8 86.810614 
" clip-path="url(#p3e30ad7e91)" style="fill: none; stroke: #f5deb3; stroke-width: 1.5; stroke-linecap: square"/>
   </g>
   <g id="line2d_29">
    <path d="M 216.420556 293.76 
L 216.420556 289.927604 
L 216.420556 289.927604 
L 216.420556 286.095208 
L 216.420556 286.095208 
L 216.420556 282.262812 
L 239.308643 282.262812 
L 239.308643 278.430416 
L 239.308643 278.430416 
L 239.308643 274.59802 
L 239.308643 274.59802 
L 239.308643 270.765624 
L 244.114204 270.765624 
L 244.114204 266.933228 
L 244.114204 266.933228 
L 244.114204 263.100832 
L 244.114204 263.100832 
L 244.114204 259.268436 
L 272.746068 259.268436 
L 272.746068 255.43604 
L 272.746068 255.43604 
L 272.746068 251.603644 
L 272.746068 251.603644 
L 272.746068 247.771248 
L 303.809544 247.771248 
L 303.809544 243.938851 
L 303.809544 243.938851 
L 303.809544 240.106455 
L 303.809544 240.106455 
L 303.809544 236.274059 
L 316.227785 236.274059 
L 316.227785 232.441663 
L 316.227785 232.441663 
L 316.227785 228.609267 
L 316.227785 228.609267 
L 316.227785 224.776871 
L 322.724973 224.776871 
L 322.724973 220.944475 
L 322.724973 220.944475 
L 322.724973 217.112079 
L 322.724973 217.112079 
L 322.724973 213.279683 
L 324.800157 213.279683 
L 324.800157 209.447287 
L 325.486847 209.447287 
L 325.486847 205.614891 
L 334.384022 205.614891 
L 334.384022 201.782495 
L 335.275266 201.782495 
L 335.275266 197.950099 
L 335.487527 197.950099 
L 335.487527 194.117703 
L 342.268396 194.117703 
L 342.268396 190.285307 
L 344.697602 190.285307 
L 344.697602 186.452911 
L 347.805639 186.452911 
L 347.805639 182.620515 
L 360.00565 182.620515 
L 360.00565 178.788119 
L 360.00565 178.788119 
L 360.00565 178.788119 
L 460.8 178.788119 
" clip-path="url(#p3e30ad7e91)" style="fill: none; stroke: #f5deb3; stroke-width: 1.5; stroke-linecap: square"/>
   </g>
   <g id="line2d_30">
    <path d="M 296.60555 293.76 
L 296.60555 289.927604 
L 298.644002 289.927604 
L 298.644002 286.095208 
L 333.045437 286.095208 
L 333.045437 282.262812 
L 342.582421 282.262812 
L 342.582421 278.430416 
L 355.980802 278.430416 
L 355.980802 274.59802 
L 360.653111 274.59802 
L 360.653111 270.765624 
L 361.667667 270.765624 
L 361.667667 266.933228 
L 361.931585 266.933228 
L 361.931585 263.100832 
L 362.20072 263.100832 
L 362.20072 259.268436 
L 362.482201 259.268436 
L 362.482201 255.43604 
L 362.482201 255.43604 
L 362.482201 255.43604 
L 460.8 255.43604 
" clip-path="url(#p3e30ad7e91)" style="fill: none; stroke: #f5deb3; stroke-width: 1.5; stroke-linecap: square"/>
   </g>
   <g id="matplotlib.axis_1">
    <g id="xtick_1">
     <g id="line2d_31">
      <path d="M 62.208 293.76 
L 62.208 3.456 
" clip-path="url(#p3e30ad7e91)" style="fill: none; stroke: #b0b0b0; stroke-width: 0.8; stroke-linecap: square"/>
     </g>
     <g id="line2d_32">
      <defs>
       <path id="m334d5dfc15" d="M 0 0 
L 0 3.5 
" style="stroke: #000000; stroke-width: 0.8"/>
      </defs>
      <g>
       <use xlink:href="#m334d5dfc15" x="62.208" y="293.76" style="stroke: #000000; stroke-width: 0.8"/>
      </g>
     </g>
     <g id="text_1">
      <!-- 0 -->
      <g transform="translate(55.8455 315.956875)scale(0.2 -0.2)">
       <defs>
        <path id="DejaVuSans-30" d="M 2034 4250 
Q 1547 4250 1301 3770 
Q 1056 3291 1056 2328 
Q 1056 1369 1301 889 
Q 1547 409 2034 409 
Q 2525 409 2770 889 
Q 3016 1369 3016 2328 
Q 3016 3291 2770 3770 
Q 2525 4250 2034 4250 
z
M 2034 4750 
Q 2819 4750 3233 4129 
Q 3647 3509 3647 2328 
Q 3647 1150 3233 529 
Q 2819 -91 2034 -91 
Q 1250 -91 836 529 
Q 422 1150 422 2328 
Q 422 3509 836 4129 
Q 1250 4750 2034 4750 
z
" transform="scale(0.015625)"/>
       </defs>
       <use xlink:href="#DejaVuSans-30"/>
      </g>
     </g>
    </g>
    <g id="xtick_2">
     <g id="line2d_33">
      <path d="M 212.546455 293.76 
L 212.546455 3.456 
" clip-path="url(#p3e30ad7e91)" style="fill: none; stroke: #b0b0b0; stroke-width: 0.8; stroke-linecap: square"/>
     </g>
     <g id="line2d_34">
      <g>
       <use xlink:href="#m334d5dfc15" x="212.546455" y="293.76" style="stroke: #000000; stroke-width: 0.8"/>
      </g>
     </g>
     <g id="text_2">
      <!-- 2 -->
      <g transform="translate(206.183955 315.956875)scale(0.2 -0.2)">
       <defs>
        <path id="DejaVuSans-32" d="M 1228 531 
L 3431 531 
L 3431 0 
L 469 0 
L 469 531 
Q 828 903 1448 1529 
Q 2069 2156 2228 2338 
Q 2531 2678 2651 2914 
Q 2772 3150 2772 3378 
Q 2772 3750 2511 3984 
Q 2250 4219 1831 4219 
Q 1534 4219 1204 4116 
Q 875 4013 500 3803 
L 500 4441 
Q 881 4594 1212 4672 
Q 1544 4750 1819 4750 
Q 2544 4750 2975 4387 
Q 3406 4025 3406 3419 
Q 3406 3131 3298 2873 
Q 3191 2616 2906 2266 
Q 2828 2175 2409 1742 
Q 1991 1309 1228 531 
z
" transform="scale(0.015625)"/>
       </defs>
       <use xlink:href="#DejaVuSans-32"/>
      </g>
     </g>
    </g>
    <g id="xtick_3">
     <g id="line2d_35">
      <path d="M 362.88491 293.76 
L 362.88491 3.456 
" clip-path="url(#p3e30ad7e91)" style="fill: none; stroke: #b0b0b0; stroke-width: 0.8; stroke-linecap: square"/>
     </g>
     <g id="line2d_36">
      <g>
       <use xlink:href="#m334d5dfc15" x="362.88491" y="293.76" style="stroke: #000000; stroke-width: 0.8"/>
      </g>
     </g>
     <g id="text_3">
      <!-- 4 -->
      <g transform="translate(356.52241 315.956875)scale(0.2 -0.2)">
       <defs>
        <path id="DejaVuSans-34" d="M 2419 4116 
L 825 1625 
L 2419 1625 
L 2419 4116 
z
M 2253 4666 
L 3047 4666 
L 3047 1625 
L 3713 1625 
L 3713 1100 
L 3047 1100 
L 3047 0 
L 2419 0 
L 2419 1100 
L 313 1100 
L 313 1709 
L 2253 4666 
z
" transform="scale(0.015625)"/>
       </defs>
       <use xlink:href="#DejaVuSans-34"/>
      </g>
     </g>
    </g>
    <g id="text_4">
     <!-- log10 of FEvals / DIM -->
     <g transform="translate(156.430563 339.313125)scale(0.2 -0.2)">
      <defs>
       <path id="DejaVuSans-6c" d="M 603 4863 
L 1178 4863 
L 1178 0 
L 603 0 
L 603 4863 
z
" transform="scale(0.015625)"/>
       <path id="DejaVuSans-6f" d="M 1959 3097 
Q 1497 3097 1228 2736 
Q 959 2375 959 1747 
Q 959 1119 1226 758 
Q 1494 397 1959 397 
Q 2419 397 2687 759 
Q 2956 1122 2956 1747 
Q 2956 2369 2687 2733 
Q 2419 3097 1959 3097 
z
M 1959 3584 
Q 2709 3584 3137 3096 
Q 3566 2609 3566 1747 
Q 3566 888 3137 398 
Q 2709 -91 1959 -91 
Q 1206 -91 779 398 
Q 353 888 353 1747 
Q 353 2609 779 3096 
Q 1206 3584 1959 3584 
z
" transform="scale(0.015625)"/>
       <path id="DejaVuSans-67" d="M 2906 1791 
Q 2906 2416 2648 2759 
Q 2391 3103 1925 3103 
Q 1463 3103 1205 2759 
Q 947 2416 947 1791 
Q 947 1169 1205 825 
Q 1463 481 1925 481 
Q 2391 481 2648 825 
Q 2906 1169 2906 1791 
z
M 3481 434 
Q 3481 -459 3084 -895 
Q 2688 -1331 1869 -1331 
Q 1566 -1331 1297 -1286 
Q 1028 -1241 775 -1147 
L 775 -588 
Q 1028 -725 1275 -790 
Q 1522 -856 1778 -856 
Q 2344 -856 2625 -561 
Q 2906 -266 2906 331 
L 2906 616 
Q 2728 306 2450 153 
Q 2172 0 1784 0 
Q 1141 0 747 490 
Q 353 981 353 1791 
Q 353 2603 747 3093 
Q 1141 3584 1784 3584 
Q 2172 3584 2450 3431 
Q 2728 3278 2906 2969 
L 2906 3500 
L 3481 3500 
L 3481 434 
z
" transform="scale(0.015625)"/>
       <path id="DejaVuSans-31" d="M 794 531 
L 1825 531 
L 1825 4091 
L 703 3866 
L 703 4441 
L 1819 4666 
L 2450 4666 
L 2450 531 
L 3481 531 
L 3481 0 
L 794 0 
L 794 531 
z
" transform="scale(0.015625)"/>
       <path id="DejaVuSans-20" transform="scale(0.015625)"/>
       <path id="DejaVuSans-66" d="M 2375 4863 
L 2375 4384 
L 1825 4384 
Q 1516 4384 1395 4259 
Q 1275 4134 1275 3809 
L 1275 3500 
L 2222 3500 
L 2222 3053 
L 1275 3053 
L 1275 0 
L 697 0 
L 697 3053 
L 147 3053 
L 147 3500 
L 697 3500 
L 697 3744 
Q 697 4328 969 4595 
Q 1241 4863 1831 4863 
L 2375 4863 
z
" transform="scale(0.015625)"/>
       <path id="DejaVuSans-46" d="M 628 4666 
L 3309 4666 
L 3309 4134 
L 1259 4134 
L 1259 2759 
L 3109 2759 
L 3109 2228 
L 1259 2228 
L 1259 0 
L 628 0 
L 628 4666 
z
" transform="scale(0.015625)"/>
       <path id="DejaVuSans-45" d="M 628 4666 
L 3578 4666 
L 3578 4134 
L 1259 4134 
L 1259 2753 
L 3481 2753 
L 3481 2222 
L 1259 2222 
L 1259 531 
L 3634 531 
L 3634 0 
L 628 0 
L 628 4666 
z
" transform="scale(0.015625)"/>
       <path id="DejaVuSans-76" d="M 191 3500 
L 800 3500 
L 1894 563 
L 2988 3500 
L 3597 3500 
L 2284 0 
L 1503 0 
L 191 3500 
z
" transform="scale(0.015625)"/>
       <path id="DejaVuSans-61" d="M 2194 1759 
Q 1497 1759 1228 1600 
Q 959 1441 959 1056 
Q 959 750 1161 570 
Q 1363 391 1709 391 
Q 2188 391 2477 730 
Q 2766 1069 2766 1631 
L 2766 1759 
L 2194 1759 
z
M 3341 1997 
L 3341 0 
L 2766 0 
L 2766 531 
Q 2569 213 2275 61 
Q 1981 -91 1556 -91 
Q 1019 -91 701 211 
Q 384 513 384 1019 
Q 384 1609 779 1909 
Q 1175 2209 1959 2209 
L 2766 2209 
L 2766 2266 
Q 2766 2663 2505 2880 
Q 2244 3097 1772 3097 
Q 1472 3097 1187 3025 
Q 903 2953 641 2809 
L 641 3341 
Q 956 3463 1253 3523 
Q 1550 3584 1831 3584 
Q 2591 3584 2966 3190 
Q 3341 2797 3341 1997 
z
" transform="scale(0.015625)"/>
       <path id="DejaVuSans-73" d="M 2834 3397 
L 2834 2853 
Q 2591 2978 2328 3040 
Q 2066 3103 1784 3103 
Q 1356 3103 1142 2972 
Q 928 2841 928 2578 
Q 928 2378 1081 2264 
Q 1234 2150 1697 2047 
L 1894 2003 
Q 2506 1872 2764 1633 
Q 3022 1394 3022 966 
Q 3022 478 2636 193 
Q 2250 -91 1575 -91 
Q 1294 -91 989 -36 
Q 684 19 347 128 
L 347 722 
Q 666 556 975 473 
Q 1284 391 1588 391 
Q 1994 391 2212 530 
Q 2431 669 2431 922 
Q 2431 1156 2273 1281 
Q 2116 1406 1581 1522 
L 1381 1569 
Q 847 1681 609 1914 
Q 372 2147 372 2553 
Q 372 3047 722 3315 
Q 1072 3584 1716 3584 
Q 2034 3584 2315 3537 
Q 2597 3491 2834 3397 
z
" transform="scale(0.015625)"/>
       <path id="DejaVuSans-2f" d="M 1625 4666 
L 2156 4666 
L 531 -594 
L 0 -594 
L 1625 4666 
z
" transform="scale(0.015625)"/>
       <path id="DejaVuSans-44" d="M 1259 4147 
L 1259 519 
L 2022 519 
Q 2988 519 3436 956 
Q 3884 1394 3884 2338 
Q 3884 3275 3436 3711 
Q 2988 4147 2022 4147 
L 1259 4147 
z
M 628 4666 
L 1925 4666 
Q 3281 4666 3915 4102 
Q 4550 3538 4550 2338 
Q 4550 1131 3912 565 
Q 3275 0 1925 0 
L 628 0 
L 628 4666 
z
" transform="scale(0.015625)"/>
       <path id="DejaVuSans-49" d="M 628 4666 
L 1259 4666 
L 1259 0 
L 628 0 
L 628 4666 
z
" transform="scale(0.015625)"/>
       <path id="DejaVuSans-4d" d="M 628 4666 
L 1569 4666 
L 2759 1491 
L 3956 4666 
L 4897 4666 
L 4897 0 
L 4281 0 
L 4281 4097 
L 3078 897 
L 2444 897 
L 1241 4097 
L 1241 0 
L 628 0 
L 628 4666 
z
" transform="scale(0.015625)"/>
      </defs>
      <use xlink:href="#DejaVuSans-6c"/>
      <use xlink:href="#DejaVuSans-6f" x="27.783203"/>
      <use xlink:href="#DejaVuSans-67" x="88.964844"/>
      <use xlink:href="#DejaVuSans-31" x="152.441406"/>
      <use xlink:href="#DejaVuSans-30" x="216.064453"/>
      <use xlink:href="#DejaVuSans-20" x="279.6875"/>
      <use xlink:href="#DejaVuSans-6f" x="311.474609"/>
      <use xlink:href="#DejaVuSans-66" x="372.65625"/>
      <use xlink:href="#DejaVuSans-20" x="407.861328"/>
      <use xlink:href="#DejaVuSans-46" x="439.648438"/>
      <use xlink:href="#DejaVuSans-45" x="497.167969"/>
      <use xlink:href="#DejaVuSans-76" x="560.351562"/>
      <use xlink:href="#DejaVuSans-61" x="619.53125"/>
      <use xlink:href="#DejaVuSans-6c" x="680.810547"/>
      <use xlink:href="#DejaVuSans-73" x="708.59375"/>
      <use xlink:href="#DejaVuSans-20" x="760.693359"/>
      <use xlink:href="#DejaVuSans-2f" x="792.480469"/>
      <use xlink:href="#DejaVuSans-20" x="826.171875"/>
      <use xlink:href="#DejaVuSans-44" x="857.958984"/>
      <use xlink:href="#DejaVuSans-49" x="934.960938"/>
      <use xlink:href="#DejaVuSans-4d" x="964.453125"/>
     </g>
    </g>
   </g>
   <g id="matplotlib.axis_2">
    <g id="ytick_1">
     <g id="line2d_37">
      <path d="M 62.208 293.76 
L 460.8 293.76 
" clip-path="url(#p3e30ad7e91)" style="fill: none; stroke: #b0b0b0; stroke-width: 0.8; stroke-linecap: square"/>
     </g>
     <g id="line2d_38">
      <defs>
       <path id="mc8ae619f67" d="M 0 0 
L -3.5 0 
" style="stroke: #000000; stroke-width: 0.8"/>
      </defs>
      <g>
       <use xlink:href="#mc8ae619f67" x="62.208" y="293.76" style="stroke: #000000; stroke-width: 0.8"/>
      </g>
     </g>
     <g id="text_5">
      <!-- 0.0 -->
      <g transform="translate(29.763 299.83875)scale(0.16 -0.16)">
       <defs>
        <path id="DejaVuSans-2e" d="M 684 794 
L 1344 794 
L 1344 0 
L 684 0 
L 684 794 
z
" transform="scale(0.015625)"/>
       </defs>
       <use xlink:href="#DejaVuSans-30"/>
       <use xlink:href="#DejaVuSans-2e" x="63.623047"/>
       <use xlink:href="#DejaVuSans-30" x="95.410156"/>
      </g>
     </g>
    </g>
    <g id="ytick_2">
     <g id="line2d_39">
      <path d="M 62.208 236.274059 
L 460.8 236.274059 
" clip-path="url(#p3e30ad7e91)" style="fill: none; stroke: #b0b0b0; stroke-width: 0.8; stroke-linecap: square"/>
     </g>
     <g id="line2d_40">
      <g>
       <use xlink:href="#mc8ae619f67" x="62.208" y="236.274059" style="stroke: #000000; stroke-width: 0.8"/>
      </g>
     </g>
     <g id="text_6">
      <!-- 0.2 -->
      <g transform="translate(29.763 242.352809)scale(0.16 -0.16)">
       <use xlink:href="#DejaVuSans-30"/>
       <use xlink:href="#DejaVuSans-2e" x="63.623047"/>
       <use xlink:href="#DejaVuSans-32" x="95.410156"/>
      </g>
     </g>
    </g>
    <g id="ytick_3">
     <g id="line2d_41">
      <path d="M 62.208 178.788119 
L 460.8 178.788119 
" clip-path="url(#p3e30ad7e91)" style="fill: none; stroke: #b0b0b0; stroke-width: 0.8; stroke-linecap: square"/>
     </g>
     <g id="line2d_42">
      <g>
       <use xlink:href="#mc8ae619f67" x="62.208" y="178.788119" style="stroke: #000000; stroke-width: 0.8"/>
      </g>
     </g>
     <g id="text_7">
      <!-- 0.4 -->
      <g transform="translate(29.763 184.866869)scale(0.16 -0.16)">
       <use xlink:href="#DejaVuSans-30"/>
       <use xlink:href="#DejaVuSans-2e" x="63.623047"/>
       <use xlink:href="#DejaVuSans-34" x="95.410156"/>
      </g>
     </g>
    </g>
    <g id="ytick_4">
     <g id="line2d_43">
      <path d="M 62.208 121.302178 
L 460.8 121.302178 
" clip-path="url(#p3e30ad7e91)" style="fill: none; stroke: #b0b0b0; stroke-width: 0.8; stroke-linecap: square"/>
     </g>
     <g id="line2d_44">
      <g>
       <use xlink:href="#mc8ae619f67" x="62.208" y="121.302178" style="stroke: #000000; stroke-width: 0.8"/>
      </g>
     </g>
     <g id="text_8">
      <!-- 0.6 -->
      <g transform="translate(29.763 127.380928)scale(0.16 -0.16)">
       <defs>
        <path id="DejaVuSans-36" d="M 2113 2584 
Q 1688 2584 1439 2293 
Q 1191 2003 1191 1497 
Q 1191 994 1439 701 
Q 1688 409 2113 409 
Q 2538 409 2786 701 
Q 3034 994 3034 1497 
Q 3034 2003 2786 2293 
Q 2538 2584 2113 2584 
z
M 3366 4563 
L 3366 3988 
Q 3128 4100 2886 4159 
Q 2644 4219 2406 4219 
Q 1781 4219 1451 3797 
Q 1122 3375 1075 2522 
Q 1259 2794 1537 2939 
Q 1816 3084 2150 3084 
Q 2853 3084 3261 2657 
Q 3669 2231 3669 1497 
Q 3669 778 3244 343 
Q 2819 -91 2113 -91 
Q 1303 -91 875 529 
Q 447 1150 447 2328 
Q 447 3434 972 4092 
Q 1497 4750 2381 4750 
Q 2619 4750 2861 4703 
Q 3103 4656 3366 4563 
z
" transform="scale(0.015625)"/>
       </defs>
       <use xlink:href="#DejaVuSans-30"/>
       <use xlink:href="#DejaVuSans-2e" x="63.623047"/>
       <use xlink:href="#DejaVuSans-36" x="95.410156"/>
      </g>
     </g>
    </g>
    <g id="ytick_5">
     <g id="line2d_45">
      <path d="M 62.208 63.816238 
L 460.8 63.816238 
" clip-path="url(#p3e30ad7e91)" style="fill: none; stroke: #b0b0b0; stroke-width: 0.8; stroke-linecap: square"/>
     </g>
     <g id="line2d_46">
      <g>
       <use xlink:href="#mc8ae619f67" x="62.208" y="63.816238" style="stroke: #000000; stroke-width: 0.8"/>
      </g>
     </g>
     <g id="text_9">
      <!-- 0.8 -->
      <g transform="translate(29.763 69.894988)scale(0.16 -0.16)">
       <defs>
        <path id="DejaVuSans-38" d="M 2034 2216 
Q 1584 2216 1326 1975 
Q 1069 1734 1069 1313 
Q 1069 891 1326 650 
Q 1584 409 2034 409 
Q 2484 409 2743 651 
Q 3003 894 3003 1313 
Q 3003 1734 2745 1975 
Q 2488 2216 2034 2216 
z
M 1403 2484 
Q 997 2584 770 2862 
Q 544 3141 544 3541 
Q 544 4100 942 4425 
Q 1341 4750 2034 4750 
Q 2731 4750 3128 4425 
Q 3525 4100 3525 3541 
Q 3525 3141 3298 2862 
Q 3072 2584 2669 2484 
Q 3125 2378 3379 2068 
Q 3634 1759 3634 1313 
Q 3634 634 3220 271 
Q 2806 -91 2034 -91 
Q 1263 -91 848 271 
Q 434 634 434 1313 
Q 434 1759 690 2068 
Q 947 2378 1403 2484 
z
M 1172 3481 
Q 1172 3119 1398 2916 
Q 1625 2713 2034 2713 
Q 2441 2713 2670 2916 
Q 2900 3119 2900 3481 
Q 2900 3844 2670 4047 
Q 2441 4250 2034 4250 
Q 1625 4250 1398 4047 
Q 1172 3844 1172 3481 
z
" transform="scale(0.015625)"/>
       </defs>
       <use xlink:href="#DejaVuSans-30"/>
       <use xlink:href="#DejaVuSans-2e" x="63.623047"/>
       <use xlink:href="#DejaVuSans-38" x="95.410156"/>
      </g>
     </g>
    </g>
    <g id="ytick_6">
     <g id="line2d_47">
      <path d="M 62.208 6.330297 
L 460.8 6.330297 
" clip-path="url(#p3e30ad7e91)" style="fill: none; stroke: #b0b0b0; stroke-width: 0.8; stroke-linecap: square"/>
     </g>
     <g id="line2d_48">
      <g>
       <use xlink:href="#mc8ae619f67" x="62.208" y="6.330297" style="stroke: #000000; stroke-width: 0.8"/>
      </g>
     </g>
     <g id="text_10">
      <!-- 1.0 -->
      <g transform="translate(29.763 12.409047)scale(0.16 -0.16)">
       <use xlink:href="#DejaVuSans-31"/>
       <use xlink:href="#DejaVuSans-2e" x="63.623047"/>
       <use xlink:href="#DejaVuSans-30" x="95.410156"/>
      </g>
     </g>
    </g>
    <g id="text_11">
     <!-- proportion of trials -->
     <g transform="translate(21.603625 241.61425)rotate(-90)scale(0.2 -0.2)">
      <defs>
       <path id="DejaVuSans-70" d="M 1159 525 
L 1159 -1331 
L 581 -1331 
L 581 3500 
L 1159 3500 
L 1159 2969 
Q 1341 3281 1617 3432 
Q 1894 3584 2278 3584 
Q 2916 3584 3314 3078 
Q 3713 2572 3713 1747 
Q 3713 922 3314 415 
Q 2916 -91 2278 -91 
Q 1894 -91 1617 61 
Q 1341 213 1159 525 
z
M 3116 1747 
Q 3116 2381 2855 2742 
Q 2594 3103 2138 3103 
Q 1681 3103 1420 2742 
Q 1159 2381 1159 1747 
Q 1159 1113 1420 752 
Q 1681 391 2138 391 
Q 2594 391 2855 752 
Q 3116 1113 3116 1747 
z
" transform="scale(0.015625)"/>
       <path id="DejaVuSans-72" d="M 2631 2963 
Q 2534 3019 2420 3045 
Q 2306 3072 2169 3072 
Q 1681 3072 1420 2755 
Q 1159 2438 1159 1844 
L 1159 0 
L 581 0 
L 581 3500 
L 1159 3500 
L 1159 2956 
Q 1341 3275 1631 3429 
Q 1922 3584 2338 3584 
Q 2397 3584 2469 3576 
Q 2541 3569 2628 3553 
L 2631 2963 
z
" transform="scale(0.015625)"/>
       <path id="DejaVuSans-74" d="M 1172 4494 
L 1172 3500 
L 2356 3500 
L 2356 3053 
L 1172 3053 
L 1172 1153 
Q 1172 725 1289 603 
Q 1406 481 1766 481 
L 2356 481 
L 2356 0 
L 1766 0 
Q 1100 0 847 248 
Q 594 497 594 1153 
L 594 3053 
L 172 3053 
L 172 3500 
L 594 3500 
L 594 4494 
L 1172 4494 
z
" transform="scale(0.015625)"/>
       <path id="DejaVuSans-69" d="M 603 3500 
L 1178 3500 
L 1178 0 
L 603 0 
L 603 3500 
z
M 603 4863 
L 1178 4863 
L 1178 4134 
L 603 4134 
L 603 4863 
z
" transform="scale(0.015625)"/>
       <path id="DejaVuSans-6e" d="M 3513 2113 
L 3513 0 
L 2938 0 
L 2938 2094 
Q 2938 2591 2744 2837 
Q 2550 3084 2163 3084 
Q 1697 3084 1428 2787 
Q 1159 2491 1159 1978 
L 1159 0 
L 581 0 
L 581 3500 
L 1159 3500 
L 1159 2956 
Q 1366 3272 1645 3428 
Q 1925 3584 2291 3584 
Q 2894 3584 3203 3211 
Q 3513 2838 3513 2113 
z
" transform="scale(0.015625)"/>
      </defs>
      <use xlink:href="#DejaVuSans-70"/>
      <use xlink:href="#DejaVuSans-72" x="63.476562"/>
      <use xlink:href="#DejaVuSans-6f" x="102.339844"/>
      <use xlink:href="#DejaVuSans-70" x="163.521484"/>
      <use xlink:href="#DejaVuSans-6f" x="226.998047"/>
      <use xlink:href="#DejaVuSans-72" x="288.179688"/>
      <use xlink:href="#DejaVuSans-74" x="329.292969"/>
      <use xlink:href="#DejaVuSans-69" x="368.501953"/>
      <use xlink:href="#DejaVuSans-6f" x="396.285156"/>
      <use xlink:href="#DejaVuSans-6e" x="457.466797"/>
      <use xlink:href="#DejaVuSans-20" x="520.845703"/>
      <use xlink:href="#DejaVuSans-6f" x="552.632812"/>
      <use xlink:href="#DejaVuSans-66" x="613.814453"/>
      <use xlink:href="#DejaVuSans-20" x="649.019531"/>
      <use xlink:href="#DejaVuSans-74" x="680.806641"/>
      <use xlink:href="#DejaVuSans-72" x="720.015625"/>
      <use xlink:href="#DejaVuSans-69" x="761.128906"/>
      <use xlink:href="#DejaVuSans-61" x="788.912109"/>
      <use xlink:href="#DejaVuSans-6c" x="850.191406"/>
      <use xlink:href="#DejaVuSans-73" x="877.974609"/>
     </g>
    </g>
   </g>
   <g id="line2d_49">
    <path d="M 9.666965 293.76 
L 9.666965 289.927604 
L 32.295157 289.927604 
L 32.295157 286.095208 
L 62.208 286.095208 
L 62.208 274.59802 
L 68.159993 274.59802 
L 68.159993 259.268436 
L 73.192332 259.268436 
L 73.192332 255.43604 
L 77.551541 255.43604 
L 77.551541 251.603644 
L 84.836192 251.603644 
L 84.836192 240.106455 
L 87.947648 240.106455 
L 87.947648 224.776871 
L 90.788185 224.776871 
L 90.788185 217.112079 
L 98.072836 217.112079 
L 98.072836 209.447287 
L 100.179734 209.447287 
L 100.179734 201.782495 
L 104.024829 201.782495 
L 104.024829 197.950099 
L 105.789885 197.950099 
L 105.789885 194.117703 
L 107.464384 194.117703 
L 107.464384 190.285307 
L 109.057168 190.285307 
L 109.057168 186.452911 
L 110.575841 186.452911 
L 110.575841 182.620515 
L 112.026994 182.620515 
L 112.026994 178.788119 
L 118.448716 178.788119 
L 118.448716 174.955723 
L 127.547477 174.955723 
L 127.547477 171.123327 
L 128.418077 171.123327 
L 128.418077 167.290931 
L 129.266062 167.290931 
L 129.266062 159.626139 
L 130.092577 159.626139 
L 130.092577 155.793743 
L 130.898681 155.793743 
L 130.898681 151.961347 
L 132.453527 151.961347 
L 132.453527 144.296554 
L 136.04457 144.296554 
L 136.04457 140.464158 
L 138.65761 140.464158 
L 138.65761 136.631762 
L 141.076908 136.631762 
L 141.076908 132.799366 
L 142.222485 132.799366 
L 142.222485 125.134574 
L 147.89183 125.134574 
L 147.89183 121.302178 
L 148.361559 121.302178 
L 148.361559 117.469782 
L 152.720769 117.469782 
L 152.720769 113.637386 
L 155.832225 113.637386 
L 155.832225 109.80499 
L 157.283379 109.80499 
L 157.283379 105.972594 
L 157.985461 105.972594 
L 157.985461 102.140198 
L 162.214175 102.140198 
L 162.214175 98.307802 
L 163.412313 98.307802 
L 163.412313 94.475406 
L 164.850677 94.475406 
L 164.850677 90.64301 
L 165.957413 90.64301 
L 165.957413 86.810614 
L 167.808265 86.810614 
L 167.808265 82.978218 
L 181.639253 82.978218 
L 181.639253 79.145822 
L 220.554297 79.145822 
L 220.554297 75.313426 
L 226.215497 75.313426 
L 226.215497 71.48103 
L 230.703317 71.48103 
L 230.703317 67.648634 
L 239.907139 67.648634 
L 239.907139 63.816238 
L 243.58866 63.816238 
L 243.58866 59.983842 
L 247.214374 59.983842 
L 247.214374 56.151446 
L 248.693 56.151446 
L 248.693 52.31905 
L 249.249229 52.31905 
L 249.249229 48.486653 
L 253.703755 48.486653 
L 253.703755 44.654257 
L 256.62285 44.654257 
L 256.62285 40.821861 
L 260.929131 40.821861 
L 260.929131 36.989465 
L 272.24654 36.989465 
L 272.24654 33.157069 
L 275.048603 33.157069 
L 275.048603 29.324673 
L 276.15566 29.324673 
L 276.15566 25.492277 
L 282.155685 25.492277 
L 282.155685 21.659881 
L 282.440868 21.659881 
L 282.440868 17.827485 
L 293.498569 17.827485 
L 293.498569 13.995089 
L 293.781735 13.995089 
L 293.781735 10.162693 
L 297.338195 10.162693 
L 297.338195 6.330297 
L 297.338195 6.330297 
L 460.8 6.330297 
L 460.8 6.330297 
" clip-path="url(#p3e30ad7e91)" style="fill: none; stroke: #000000; stroke-width: 1.5; stroke-linecap: square"/>
   </g>
   <g id="line2d_50">
    <path clip-path="url(#p3e30ad7e91)" style="fill: none; stroke: #000000; stroke-width: 1.5; stroke-linecap: square"/>
   </g>
   <g id="line2d_51">
    <path d="M 164.850677 293.76 
L 164.850677 289.927604 
L 173.023698 289.927604 
L 173.023698 286.095208 
L 180.959112 286.095208 
L 180.959112 282.262812 
L 185.893121 282.262812 
L 185.893121 278.430416 
L 187.196222 278.430416 
L 187.196222 274.59802 
L 189.524146 274.59802 
L 189.524146 270.765624 
L 198.882636 270.765624 
L 198.882636 266.933228 
L 249.628833 266.933228 
L 249.628833 263.100832 
L 250.272424 263.100832 
L 250.272424 259.268436 
L 252.033151 259.268436 
L 252.033151 255.43604 
L 253.350223 255.43604 
L 253.350223 251.603644 
L 254.45384 251.603644 
L 254.45384 247.771248 
L 277.253401 247.771248 
L 277.253401 243.938851 
L 279.225647 243.938851 
L 279.225647 240.106455 
L 282.163425 240.106455 
L 282.163425 236.274059 
L 289.370588 236.274059 
L 289.370588 232.441663 
L 297.396491 232.441663 
L 297.396491 228.609267 
L 297.546608 228.609267 
L 297.546608 224.776871 
L 297.744096 224.776871 
L 297.744096 220.944475 
L 308.631553 220.944475 
L 308.631553 217.112079 
L 313.641767 217.112079 
L 313.641767 213.279683 
L 317.505546 213.279683 
L 317.505546 209.447287 
L 318.367039 209.447287 
L 318.367039 205.614891 
L 321.504945 205.614891 
L 321.504945 201.782495 
L 324.484148 201.782495 
L 324.484148 197.950099 
L 328.440782 197.950099 
L 328.440782 194.117703 
L 329.085117 194.117703 
L 329.085117 190.285307 
L 329.833993 190.285307 
L 329.833993 186.452911 
L 330.388122 186.452911 
L 330.388122 182.620515 
L 333.27265 182.620515 
L 333.27265 178.788119 
L 334.908149 178.788119 
L 334.908149 174.955723 
L 347.370643 174.955723 
L 347.370643 171.123327 
L 348.912029 171.123327 
L 348.912029 167.290931 
L 349.454429 167.290931 
L 349.454429 163.458535 
L 351.49192 163.458535 
L 351.49192 159.626139 
L 351.669151 159.626139 
L 351.669151 155.793743 
L 352.150727 155.793743 
L 352.150727 151.961347 
L 352.47566 151.961347 
L 352.47566 148.12895 
L 355.874955 148.12895 
L 355.874955 144.296554 
L 366.25178 144.296554 
L 366.25178 140.464158 
L 367.483835 140.464158 
L 367.483835 136.631762 
L 370.847763 136.631762 
L 370.847763 132.799366 
L 371.705086 132.799366 
L 371.705086 128.96697 
L 372.077695 128.96697 
L 372.077695 125.134574 
L 372.158886 125.134574 
L 372.158886 121.302178 
L 372.217806 121.302178 
L 372.217806 117.469782 
L 373.145881 117.469782 
L 373.145881 113.637386 
L 374.444763 113.637386 
L 374.444763 109.80499 
L 374.943144 109.80499 
L 374.943144 105.972594 
L 382.250441 105.972594 
L 382.250441 102.140198 
L 387.50728 102.140198 
L 387.50728 98.307802 
L 394.636593 98.307802 
L 394.636593 94.475406 
L 406.137481 94.475406 
L 406.137481 90.64301 
L 420.491434 90.64301 
L 420.491434 86.810614 
L 450.69404 86.810614 
L 450.69404 82.978218 
L 450.69404 82.978218 
L 450.69404 82.978218 
L 460.8 82.978218 
" clip-path="url(#p3e30ad7e91)" style="fill: none; stroke: #00bfbf; stroke-width: 1.5; stroke-linecap: square"/>
   </g>
   <g id="line2d_52">
    <path clip-path="url(#p3e30ad7e91)" style="fill: none; stroke: #00bfbf; stroke-width: 1.5; stroke-linecap: square"/>
   </g>
   <g id="line2d_53">
    <path d="M 191.448804 293.76 
L 191.448804 289.927604 
L 200.902594 289.927604 
L 200.902594 286.095208 
L 202.093168 286.095208 
L 202.093168 282.262812 
L 205.180088 282.262812 
L 205.180088 278.430416 
L 206.776767 278.430416 
L 206.776767 274.59802 
L 208.224533 274.59802 
L 208.224533 270.765624 
L 214.014636 270.765624 
L 214.014636 266.933228 
L 254.670156 266.933228 
L 254.670156 263.100832 
L 256.05954 263.100832 
L 256.05954 259.268436 
L 256.993062 259.268436 
L 256.993062 255.43604 
L 258.192254 255.43604 
L 258.192254 251.603644 
L 262.123259 251.603644 
L 262.123259 247.771248 
L 279.571017 247.771248 
L 279.571017 243.938851 
L 281.883604 243.938851 
L 281.883604 240.106455 
L 285.311448 240.106455 
L 285.311448 236.274059 
L 294.2661 236.274059 
L 294.2661 232.441663 
L 298.437799 232.441663 
L 298.437799 228.609267 
L 300.208298 228.609267 
L 300.208298 224.776871 
L 300.882608 224.776871 
L 300.882608 220.944475 
L 317.787448 220.944475 
L 317.787448 217.112079 
L 320.111932 217.112079 
L 320.111932 213.279683 
L 320.458614 213.279683 
L 320.458614 209.447287 
L 324.732998 209.447287 
L 324.732998 205.614891 
L 327.437219 205.614891 
L 327.437219 201.782495 
L 328.489503 201.782495 
L 328.489503 197.950099 
L 330.988554 197.950099 
L 330.988554 194.117703 
L 331.595171 194.117703 
L 331.595171 190.285307 
L 332.51511 190.285307 
L 332.51511 186.452911 
L 335.109045 186.452911 
L 335.109045 182.620515 
L 335.683398 182.620515 
L 335.683398 178.788119 
L 336.244867 178.788119 
L 336.244867 174.955723 
L 349.499717 174.955723 
L 349.499717 171.123327 
L 352.300959 171.123327 
L 352.300959 167.290931 
L 353.109817 167.290931 
L 353.109817 163.458535 
L 354.508998 163.458535 
L 354.508998 159.626139 
L 354.583175 159.626139 
L 354.583175 155.793743 
L 356.333826 155.793743 
L 356.333826 151.961347 
L 357.87759 151.961347 
L 357.87759 148.12895 
L 368.675453 148.12895 
L 368.675453 144.296554 
L 370.606941 144.296554 
L 370.606941 140.464158 
L 373.708416 140.464158 
L 373.708416 136.631762 
L 374.247133 136.631762 
L 374.247133 132.799366 
L 374.542674 132.799366 
L 374.542674 128.96697 
L 374.671251 128.96697 
L 374.671251 125.134574 
L 375.254388 125.134574 
L 375.254388 121.302178 
L 375.425583 121.302178 
L 375.425583 117.469782 
L 376.723611 117.469782 
L 376.723611 113.637386 
L 378.333564 113.637386 
L 378.333564 109.80499 
L 383.200806 109.80499 
L 383.200806 105.972594 
L 390.505215 105.972594 
L 390.505215 102.140198 
L 397.014021 102.140198 
L 397.014021 98.307802 
L 397.014021 98.307802 
L 397.014021 98.307802 
L 460.8 98.307802 
" clip-path="url(#p3e30ad7e91)" style="fill: none; stroke: #bf00bf; stroke-width: 1.5; stroke-linecap: square"/>
   </g>
   <g id="line2d_54">
    <path clip-path="url(#p3e30ad7e91)" style="fill: none; stroke: #bf00bf; stroke-width: 1.5; stroke-linecap: square"/>
   </g>
   <g id="line2d_55">
    <path d="M 207.622754 293.76 
L 207.622754 289.927604 
L 210.665119 289.927604 
L 210.665119 286.095208 
L 211.820234 286.095208 
L 211.820234 282.262812 
L 215.299821 282.262812 
L 215.299821 278.430416 
L 215.657911 278.430416 
L 215.657911 274.59802 
L 220.143008 274.59802 
L 220.143008 270.765624 
L 225.956746 270.765624 
L 225.956746 266.933228 
L 258.095335 266.933228 
L 258.095335 263.100832 
L 260.451018 263.100832 
L 260.451018 259.268436 
L 261.517091 259.268436 
L 261.517091 255.43604 
L 261.821582 255.43604 
L 261.821582 251.603644 
L 272.099393 251.603644 
L 272.099393 247.771248 
L 282.555777 247.771248 
L 282.555777 243.938851 
L 284.915482 243.938851 
L 284.915482 240.106455 
L 287.884999 240.106455 
L 287.884999 236.274059 
L 297.868716 236.274059 
L 297.868716 232.441663 
L 302.507779 232.441663 
L 302.507779 228.609267 
L 302.549255 228.609267 
L 302.549255 224.776871 
L 305.43156 224.776871 
L 305.43156 220.944475 
L 320.307393 220.944475 
L 320.307393 217.112079 
L 322.079666 217.112079 
L 322.079666 213.279683 
L 322.70933 213.279683 
L 322.70933 209.447287 
L 328.468899 209.447287 
L 328.468899 205.614891 
L 330.648556 205.614891 
L 330.648556 201.782495 
L 331.545759 201.782495 
L 331.545759 197.950099 
L 334.136099 197.950099 
L 334.136099 194.117703 
L 334.268141 194.117703 
L 334.268141 190.285307 
L 335.410363 190.285307 
L 335.410363 186.452911 
L 337.104625 186.452911 
L 337.104625 182.620515 
L 338.185319 182.620515 
L 338.185319 178.788119 
L 338.261754 178.788119 
L 338.261754 174.955723 
L 352.010734 174.955723 
L 352.010734 171.123327 
L 354.229322 171.123327 
L 354.229322 167.290931 
L 355.543896 167.290931 
L 355.543896 163.458535 
L 356.305085 163.458535 
L 356.305085 159.626139 
L 356.389638 159.626139 
L 356.389638 155.793743 
L 358.393357 155.793743 
L 358.393357 151.961347 
L 359.441727 151.961347 
L 359.441727 148.12895 
L 370.958079 148.12895 
L 370.958079 144.296554 
L 372.859494 144.296554 
L 372.859494 140.464158 
L 375.558707 140.464158 
L 375.558707 136.631762 
L 376.199809 136.631762 
L 376.199809 132.799366 
L 376.413618 132.799366 
L 376.413618 128.96697 
L 376.768875 128.96697 
L 376.768875 125.134574 
L 377.233251 125.134574 
L 377.233251 121.302178 
L 377.294616 121.302178 
L 377.294616 117.469782 
L 378.820064 117.469782 
L 378.820064 113.637386 
L 380.281234 113.637386 
L 380.281234 109.80499 
L 384.396346 109.80499 
L 384.396346 105.972594 
L 393.219668 105.972594 
L 393.219668 102.140198 
L 399.009871 102.140198 
L 399.009871 98.307802 
L 399.009871 98.307802 
L 399.009871 98.307802 
L 460.8 98.307802 
" clip-path="url(#p3e30ad7e91)" style="fill: none; stroke: #ff0000; stroke-width: 3; stroke-linecap: square"/>
   </g>
   <g id="line2d_56">
    <path clip-path="url(#p3e30ad7e91)" style="fill: none; stroke: #ff0000; stroke-width: 3; stroke-linecap: square"/>
   </g>
   <g id="line2d_57">
    <path d="M 460.8 293.76 
L 460.8 3.456 
" clip-path="url(#p3e30ad7e91)" style="fill: none; stroke: #000000; stroke-width: 1.5; stroke-linecap: square"/>
   </g>
   <g id="patch_3">
    <path d="M 62.208 293.76 
L 62.208 3.456 
" style="fill: none; stroke: #000000; stroke-width: 0.8; stroke-linejoin: miter; stroke-linecap: square"/>
   </g>
   <g id="patch_4">
    <path d="M 460.8 293.76 
L 460.8 3.456 
" style="fill: none; stroke: #000000; stroke-width: 0.8; stroke-linejoin: miter; stroke-linecap: square"/>
   </g>
   <g id="patch_5">
    <path d="M 62.208 293.76 
L 460.8 293.76 
" style="fill: none; stroke: #000000; stroke-width: 0.8; stroke-linejoin: miter; stroke-linecap: square"/>
   </g>
   <g id="patch_6">
    <path d="M 62.208 3.456 
L 460.8 3.456 
" style="fill: none; stroke: #000000; stroke-width: 0.8; stroke-linejoin: miter; stroke-linecap: square"/>
   </g>
   <g id="text_12">
    <!-- {f20-f24}, 5-D -->
    <g transform="translate(188.654 24.458955)scale(0.2 -0.2)">
     <defs>
      <path id="DejaVuSans-7b" d="M 3272 -594 
L 3272 -1044 
L 3078 -1044 
Q 2300 -1044 2036 -812 
Q 1772 -581 1772 109 
L 1772 856 
Q 1772 1328 1603 1509 
Q 1434 1691 991 1691 
L 800 1691 
L 800 2138 
L 991 2138 
Q 1438 2138 1605 2317 
Q 1772 2497 1772 2963 
L 1772 3713 
Q 1772 4403 2036 4633 
Q 2300 4863 3078 4863 
L 3272 4863 
L 3272 4416 
L 3059 4416 
Q 2619 4416 2484 4278 
Q 2350 4141 2350 3700 
L 2350 2925 
Q 2350 2434 2208 2212 
Q 2066 1991 1722 1913 
Q 2069 1828 2209 1606 
Q 2350 1384 2350 897 
L 2350 122 
Q 2350 -319 2484 -456 
Q 2619 -594 3059 -594 
L 3272 -594 
z
" transform="scale(0.015625)"/>
      <path id="DejaVuSans-2d" d="M 313 2009 
L 1997 2009 
L 1997 1497 
L 313 1497 
L 313 2009 
z
" transform="scale(0.015625)"/>
      <path id="DejaVuSans-7d" d="M 800 -594 
L 1019 -594 
Q 1456 -594 1589 -459 
Q 1722 -325 1722 122 
L 1722 897 
Q 1722 1384 1862 1606 
Q 2003 1828 2350 1913 
Q 2003 1991 1862 2212 
Q 1722 2434 1722 2925 
L 1722 3700 
Q 1722 4144 1589 4280 
Q 1456 4416 1019 4416 
L 800 4416 
L 800 4863 
L 997 4863 
Q 1775 4863 2036 4633 
Q 2297 4403 2297 3713 
L 2297 2963 
Q 2297 2497 2465 2317 
Q 2634 2138 3078 2138 
L 3272 2138 
L 3272 1691 
L 3078 1691 
Q 2634 1691 2465 1509 
Q 2297 1328 2297 856 
L 2297 109 
Q 2297 -581 2036 -812 
Q 1775 -1044 997 -1044 
L 800 -1044 
L 800 -594 
z
" transform="scale(0.015625)"/>
      <path id="DejaVuSans-2c" d="M 750 794 
L 1409 794 
L 1409 256 
L 897 -744 
L 494 -744 
L 750 256 
L 750 794 
z
" transform="scale(0.015625)"/>
      <path id="DejaVuSans-35" d="M 691 4666 
L 3169 4666 
L 3169 4134 
L 1269 4134 
L 1269 2991 
Q 1406 3038 1543 3061 
Q 1681 3084 1819 3084 
Q 2600 3084 3056 2656 
Q 3513 2228 3513 1497 
Q 3513 744 3044 326 
Q 2575 -91 1722 -91 
Q 1428 -91 1123 -41 
Q 819 9 494 109 
L 494 744 
Q 775 591 1075 516 
Q 1375 441 1709 441 
Q 2250 441 2565 725 
Q 2881 1009 2881 1497 
Q 2881 1984 2565 2268 
Q 2250 2553 1709 2553 
Q 1456 2553 1204 2497 
Q 953 2441 691 2322 
L 691 4666 
z
" transform="scale(0.015625)"/>
     </defs>
     <use xlink:href="#DejaVuSans-7b"/>
     <use xlink:href="#DejaVuSans-66" x="63.623047"/>
     <use xlink:href="#DejaVuSans-32" x="98.828125"/>
     <use xlink:href="#DejaVuSans-30" x="162.451172"/>
     <use xlink:href="#DejaVuSans-2d" x="226.074219"/>
     <use xlink:href="#DejaVuSans-66" x="262.158203"/>
     <use xlink:href="#DejaVuSans-32" x="297.363281"/>
     <use xlink:href="#DejaVuSans-34" x="360.986328"/>
     <use xlink:href="#DejaVuSans-7d" x="424.609375"/>
     <use xlink:href="#DejaVuSans-2c" x="488.232422"/>
     <use xlink:href="#DejaVuSans-20" x="520.019531"/>
     <use xlink:href="#DejaVuSans-35" x="551.806641"/>
     <use xlink:href="#DejaVuSans-2d" x="615.429688"/>
     <use xlink:href="#DejaVuSans-44" x="651.513672"/>
    </g>
   </g>
   <g id="text_13">
    <!-- absolute targets -->
    <g transform="translate(62.208 609.932673)scale(0.14 -0.14)">
     <defs>
      <path id="DejaVuSans-62" d="M 3116 1747 
Q 3116 2381 2855 2742 
Q 2594 3103 2138 3103 
Q 1681 3103 1420 2742 
Q 1159 2381 1159 1747 
Q 1159 1113 1420 752 
Q 1681 391 2138 391 
Q 2594 391 2855 752 
Q 3116 1113 3116 1747 
z
M 1159 2969 
Q 1341 3281 1617 3432 
Q 1894 3584 2278 3584 
Q 2916 3584 3314 3078 
Q 3713 2572 3713 1747 
Q 3713 922 3314 415 
Q 2916 -91 2278 -91 
Q 1894 -91 1617 61 
Q 1341 213 1159 525 
L 1159 0 
L 581 0 
L 581 4863 
L 1159 4863 
L 1159 2969 
z
" transform="scale(0.015625)"/>
      <path id="DejaVuSans-75" d="M 544 1381 
L 544 3500 
L 1119 3500 
L 1119 1403 
Q 1119 906 1312 657 
Q 1506 409 1894 409 
Q 2359 409 2629 706 
Q 2900 1003 2900 1516 
L 2900 3500 
L 3475 3500 
L 3475 0 
L 2900 0 
L 2900 538 
Q 2691 219 2414 64 
Q 2138 -91 1772 -91 
Q 1169 -91 856 284 
Q 544 659 544 1381 
z
M 1991 3584 
L 1991 3584 
z
" transform="scale(0.015625)"/>
      <path id="DejaVuSans-65" d="M 3597 1894 
L 3597 1613 
L 953 1613 
Q 991 1019 1311 708 
Q 1631 397 2203 397 
Q 2534 397 2845 478 
Q 3156 559 3463 722 
L 3463 178 
Q 3153 47 2828 -22 
Q 2503 -91 2169 -91 
Q 1331 -91 842 396 
Q 353 884 353 1716 
Q 353 2575 817 3079 
Q 1281 3584 2069 3584 
Q 2775 3584 3186 3129 
Q 3597 2675 3597 1894 
z
M 3022 2063 
Q 3016 2534 2758 2815 
Q 2500 3097 2075 3097 
Q 1594 3097 1305 2825 
Q 1016 2553 972 2059 
L 3022 2063 
z
" transform="scale(0.015625)"/>
     </defs>
     <use xlink:href="#DejaVuSans-61"/>
     <use xlink:href="#DejaVuSans-62" x="61.279297"/>
     <use xlink:href="#DejaVuSans-73" x="124.755859"/>
     <use xlink:href="#DejaVuSans-6f" x="176.855469"/>
     <use xlink:href="#DejaVuSans-6c" x="238.037109"/>
     <use xlink:href="#DejaVuSans-75" x="265.820312"/>
     <use xlink:href="#DejaVuSans-74" x="329.199219"/>
     <use xlink:href="#DejaVuSans-65" x="368.408203"/>
     <use xlink:href="#DejaVuSans-20" x="429.931641"/>
     <use xlink:href="#DejaVuSans-74" x="461.71875"/>
     <use xlink:href="#DejaVuSans-61" x="500.927734"/>
     <use xlink:href="#DejaVuSans-72" x="562.207031"/>
     <use xlink:href="#DejaVuSans-67" x="601.570312"/>
     <use xlink:href="#DejaVuSans-65" x="665.046875"/>
     <use xlink:href="#DejaVuSans-74" x="726.570312"/>
     <use xlink:href="#DejaVuSans-73" x="765.779297"/>
    </g>
   </g>
   <g id="text_14">
    <!-- v2.6.3 -->
    <g style="fill: #808080" transform="translate(245.82275 288.777272)scale(0.1 -0.1)">
     <defs>
      <path id="DejaVuSans-33" d="M 2597 2516 
Q 3050 2419 3304 2112 
Q 3559 1806 3559 1356 
Q 3559 666 3084 287 
Q 2609 -91 1734 -91 
Q 1441 -91 1130 -33 
Q 819 25 488 141 
L 488 750 
Q 750 597 1062 519 
Q 1375 441 1716 441 
Q 2309 441 2620 675 
Q 2931 909 2931 1356 
Q 2931 1769 2642 2001 
Q 2353 2234 1838 2234 
L 1294 2234 
L 1294 2753 
L 1863 2753 
Q 2328 2753 2575 2939 
Q 2822 3125 2822 3475 
Q 2822 3834 2567 4026 
Q 2313 4219 1838 4219 
Q 1578 4219 1281 4162 
Q 984 4106 628 3988 
L 628 4550 
Q 988 4650 1302 4700 
Q 1616 4750 1894 4750 
Q 2613 4750 3031 4423 
Q 3450 4097 3450 3541 
Q 3450 3153 3228 2886 
Q 3006 2619 2597 2516 
z
" transform="scale(0.015625)"/>
     </defs>
     <use xlink:href="#DejaVuSans-76"/>
     <use xlink:href="#DejaVuSans-32" x="59.179688"/>
     <use xlink:href="#DejaVuSans-2e" x="122.802734"/>
     <use xlink:href="#DejaVuSans-36" x="154.589844"/>
     <use xlink:href="#DejaVuSans-2e" x="218.212891"/>
     <use xlink:href="#DejaVuSans-33" x="250"/>
    </g>
   </g>
   <g id="legend_1">
    <g id="patch_7">
     <path d="M 76.208 136.881 
L 205.429875 136.881 
Q 209.429875 136.881 209.429875 132.881 
L 209.429875 17.456 
Q 209.429875 13.456 205.429875 13.456 
L 76.208 13.456 
Q 72.208 13.456 72.208 17.456 
L 72.208 132.881 
Q 72.208 136.881 76.208 136.881 
z
" style="fill: #ffffff; opacity: 0.2; stroke: #cccccc; stroke-linejoin: miter"/>
    </g>
    <g id="line2d_58">
     <path d="M 80.208 29.652875 
L 80.208 29.652875 
L 100.208 29.652875 
L 100.208 29.652875 
L 120.208 29.652875 
" style="fill: none; stroke: #000000; stroke-width: 1.5; stroke-linecap: square"/>
    </g>
    <g id="text_15">
     <!-- 1: 5/5 -->
     <g transform="translate(136.208 36.652875)scale(0.2 -0.2)">
      <defs>
       <path id="DejaVuSans-3a" d="M 750 794 
L 1409 794 
L 1409 0 
L 750 0 
L 750 794 
z
M 750 3309 
L 1409 3309 
L 1409 2516 
L 750 2516 
L 750 3309 
z
" transform="scale(0.015625)"/>
      </defs>
      <use xlink:href="#DejaVuSans-31"/>
      <use xlink:href="#DejaVuSans-3a" x="63.623047"/>
      <use xlink:href="#DejaVuSans-20" x="97.314453"/>
      <use xlink:href="#DejaVuSans-35" x="129.101562"/>
      <use xlink:href="#DejaVuSans-2f" x="192.724609"/>
      <use xlink:href="#DejaVuSans-35" x="226.416016"/>
     </g>
    </g>
    <g id="line2d_59">
     <path d="M 80.208 59.009125 
L 80.208 59.009125 
L 100.208 59.009125 
L 100.208 59.009125 
L 120.208 59.009125 
" style="fill: none; stroke: #00bfbf; stroke-width: 1.5; stroke-linecap: square"/>
    </g>
    <g id="text_16">
     <!-- -1: 5/5 -->
     <g transform="translate(136.208 66.009125)scale(0.2 -0.2)">
      <use xlink:href="#DejaVuSans-2d"/>
      <use xlink:href="#DejaVuSans-31" x="36.083984"/>
      <use xlink:href="#DejaVuSans-3a" x="99.707031"/>
      <use xlink:href="#DejaVuSans-20" x="133.398438"/>
      <use xlink:href="#DejaVuSans-35" x="165.185547"/>
      <use xlink:href="#DejaVuSans-2f" x="228.808594"/>
      <use xlink:href="#DejaVuSans-35" x="262.5"/>
     </g>
    </g>
    <g id="line2d_60">
     <path d="M 80.208 88.365375 
L 80.208 88.365375 
L 100.208 88.365375 
L 100.208 88.365375 
L 120.208 88.365375 
" style="fill: none; stroke: #bf00bf; stroke-width: 1.5; stroke-linecap: square"/>
    </g>
    <g id="text_17">
     <!-- -4: 4/5 -->
     <g transform="translate(136.208 95.365375)scale(0.2 -0.2)">
      <use xlink:href="#DejaVuSans-2d"/>
      <use xlink:href="#DejaVuSans-34" x="36.083984"/>
      <use xlink:href="#DejaVuSans-3a" x="99.707031"/>
      <use xlink:href="#DejaVuSans-20" x="133.398438"/>
      <use xlink:href="#DejaVuSans-34" x="165.185547"/>
      <use xlink:href="#DejaVuSans-2f" x="228.808594"/>
      <use xlink:href="#DejaVuSans-35" x="262.5"/>
     </g>
    </g>
    <g id="line2d_61">
     <path d="M 80.208 117.721625 
L 80.208 117.721625 
L 100.208 117.721625 
L 100.208 117.721625 
L 120.208 117.721625 
" style="fill: none; stroke: #ff0000; stroke-width: 3; stroke-linecap: square"/>
    </g>
    <g id="text_18">
     <!-- -8: 4/5 -->
     <g transform="translate(136.208 124.721625)scale(0.2 -0.2)">
      <use xlink:href="#DejaVuSans-2d"/>
      <use xlink:href="#DejaVuSans-38" x="36.083984"/>
      <use xlink:href="#DejaVuSans-3a" x="99.707031"/>
      <use xlink:href="#DejaVuSans-20" x="133.398438"/>
      <use xlink:href="#DejaVuSans-34" x="165.185547"/>
      <use xlink:href="#DejaVuSans-2f" x="228.808594"/>
      <use xlink:href="#DejaVuSans-35" x="262.5"/>
     </g>
    </g>
   </g>
  </g>
 </g>
 <defs>
  <clipPath id="p3e30ad7e91">
   <rect x="62.208" y="3.456" width="398.592" height="290.304"/>
  </clipPath>
 </defs>
</svg>
