<?xml version="1.0" encoding="utf-8" standalone="no"?>
<!DOCTYPE svg PUBLIC "-//W3C//DTD SVG 1.1//EN"
  "http://www.w3.org/Graphics/SVG/1.1/DTD/svg11.dtd">
<svg xmlns:xlink="http://www.w3.org/1999/xlink" width="460.8pt" height="345.6pt" viewBox="0 0 460.8 345.6" xmlns="http://www.w3.org/2000/svg" version="1.1">
 <metadata>
  <rdf:RDF xmlns:dc="http://purl.org/dc/elements/1.1/" xmlns:cc="http://creativecommons.org/ns#" xmlns:rdf="http://www.w3.org/1999/02/22-rdf-syntax-ns#">
   <cc:Work>
    <dc:type rdf:resource="http://purl.org/dc/dcmitype/StillImage"/>
    <dc:date>2023-04-03T10:24:54.039089</dc:date>
    <dc:format>image/svg+xml</dc:format>
    <dc:creator>
     <cc:Agent>
      <dc:title>Matplotlib v3.5.2, https://matplotlib.org/</dc:title>
     </cc:Agent>
    </dc:creator>
   </cc:Work>
  </rdf:RDF>
 </metadata>
 <defs>
  <style type="text/css">*{stroke-linejoin: round; stroke-linecap: butt}</style>
 </defs>
 <g id="figure_1">
  <g id="patch_1">
   <path d="M 0 345.6 
L 460.8 345.6 
L 460.8 0 
L 0 0 
z
" style="fill: #ffffff"/>
  </g>
  <g id="axes_1">
   <g id="patch_2">
    <path d="M 34.16 291.28 
L 453.192 291.28 
L 453.192 3 
L 34.16 3 
z
" style="fill: #ffffff"/>
   </g>
   <g id="matplotlib.axis_1">
    <g id="xtick_1">
     <g id="line2d_1">
      <path d="M 121.348382 291.28 
L 121.348382 3 
" clip-path="url(#ped50519993)" style="fill: none; stroke: #b0b0b0; stroke-width: 0.8; stroke-linecap: square"/>
     </g>
     <g id="line2d_2">
      <defs>
       <path id="md75a5cd2a1" d="M 0 0 
L 0 3.5 
" style="stroke: #000000; stroke-width: 0.8"/>
      </defs>
      <g>
       <use xlink:href="#md75a5cd2a1" x="121.348382" y="291.28" style="stroke: #000000; stroke-width: 0.8"/>
      </g>
     </g>
     <g id="text_1">
      <!-- -2 -->
      <g transform="translate(111.37807 313.476875)scale(0.2 -0.2)">
       <defs>
        <path id="DejaVuSans-2d" d="M 313 2009 
L 1997 2009 
L 1997 1497 
L 313 1497 
L 313 2009 
z
" transform="scale(0.015625)"/>
        <path id="DejaVuSans-32" d="M 1228 531 
L 3431 531 
L 3431 0 
L 469 0 
L 469 531 
Q 828 903 1448 1529 
Q 2069 2156 2228 2338 
Q 2531 2678 2651 2914 
Q 2772 3150 2772 3378 
Q 2772 3750 2511 3984 
Q 2250 4219 1831 4219 
Q 1534 4219 1204 4116 
Q 875 4013 500 3803 
L 500 4441 
Q 881 4594 1212 4672 
Q 1544 4750 1819 4750 
Q 2544 4750 2975 4387 
Q 3406 4025 3406 3419 
Q 3406 3131 3298 2873 
Q 3191 2616 2906 2266 
Q 2828 2175 2409 1742 
Q 1991 1309 1228 531 
z
" transform="scale(0.015625)"/>
       </defs>
       <use xlink:href="#DejaVuSans-2d"/>
       <use xlink:href="#DejaVuSans-32" x="36.083984"/>
      </g>
     </g>
    </g>
    <g id="xtick_2">
     <g id="line2d_3">
      <path d="M 243.676 291.28 
L 243.676 3 
" clip-path="url(#ped50519993)" style="fill: none; stroke: #b0b0b0; stroke-width: 0.8; stroke-linecap: square"/>
     </g>
     <g id="line2d_4">
      <g>
       <use xlink:href="#md75a5cd2a1" x="243.676" y="291.28" style="stroke: #000000; stroke-width: 0.8"/>
      </g>
     </g>
     <g id="text_2">
      <!-- 0 -->
      <g transform="translate(237.3135 313.476875)scale(0.2 -0.2)">
       <defs>
        <path id="DejaVuSans-30" d="M 2034 4250 
Q 1547 4250 1301 3770 
Q 1056 3291 1056 2328 
Q 1056 1369 1301 889 
Q 1547 409 2034 409 
Q 2525 409 2770 889 
Q 3016 1369 3016 2328 
Q 3016 3291 2770 3770 
Q 2525 4250 2034 4250 
z
M 2034 4750 
Q 2819 4750 3233 4129 
Q 3647 3509 3647 2328 
Q 3647 1150 3233 529 
Q 2819 -91 2034 -91 
Q 1250 -91 836 529 
Q 422 1150 422 2328 
Q 422 3509 836 4129 
Q 1250 4750 2034 4750 
z
" transform="scale(0.015625)"/>
       </defs>
       <use xlink:href="#DejaVuSans-30"/>
      </g>
     </g>
    </g>
    <g id="xtick_3">
     <g id="line2d_5">
      <path d="M 366.003618 291.28 
L 366.003618 3 
" clip-path="url(#ped50519993)" style="fill: none; stroke: #b0b0b0; stroke-width: 0.8; stroke-linecap: square"/>
     </g>
     <g id="line2d_6">
      <g>
       <use xlink:href="#md75a5cd2a1" x="366.003618" y="291.28" style="stroke: #000000; stroke-width: 0.8"/>
      </g>
     </g>
     <g id="text_3">
      <!-- 2 -->
      <g transform="translate(359.641118 313.476875)scale(0.2 -0.2)">
       <use xlink:href="#DejaVuSans-32"/>
      </g>
     </g>
    </g>
    <g id="text_4">
     <!-- log10 of FEvals ratio -->
     <g transform="translate(141.371312 336.833125)scale(0.2 -0.2)">
      <defs>
       <path id="DejaVuSans-6c" d="M 603 4863 
L 1178 4863 
L 1178 0 
L 603 0 
L 603 4863 
z
" transform="scale(0.015625)"/>
       <path id="DejaVuSans-6f" d="M 1959 3097 
Q 1497 3097 1228 2736 
Q 959 2375 959 1747 
Q 959 1119 1226 758 
Q 1494 397 1959 397 
Q 2419 397 2687 759 
Q 2956 1122 2956 1747 
Q 2956 2369 2687 2733 
Q 2419 3097 1959 3097 
z
M 1959 3584 
Q 2709 3584 3137 3096 
Q 3566 2609 3566 1747 
Q 3566 888 3137 398 
Q 2709 -91 1959 -91 
Q 1206 -91 779 398 
Q 353 888 353 1747 
Q 353 2609 779 3096 
Q 1206 3584 1959 3584 
z
" transform="scale(0.015625)"/>
       <path id="DejaVuSans-67" d="M 2906 1791 
Q 2906 2416 2648 2759 
Q 2391 3103 1925 3103 
Q 1463 3103 1205 2759 
Q 947 2416 947 1791 
Q 947 1169 1205 825 
Q 1463 481 1925 481 
Q 2391 481 2648 825 
Q 2906 1169 2906 1791 
z
M 3481 434 
Q 3481 -459 3084 -895 
Q 2688 -1331 1869 -1331 
Q 1566 -1331 1297 -1286 
Q 1028 -1241 775 -1147 
L 775 -588 
Q 1028 -725 1275 -790 
Q 1522 -856 1778 -856 
Q 2344 -856 2625 -561 
Q 2906 -266 2906 331 
L 2906 616 
Q 2728 306 2450 153 
Q 2172 0 1784 0 
Q 1141 0 747 490 
Q 353 981 353 1791 
Q 353 2603 747 3093 
Q 1141 3584 1784 3584 
Q 2172 3584 2450 3431 
Q 2728 3278 2906 2969 
L 2906 3500 
L 3481 3500 
L 3481 434 
z
" transform="scale(0.015625)"/>
       <path id="DejaVuSans-31" d="M 794 531 
L 1825 531 
L 1825 4091 
L 703 3866 
L 703 4441 
L 1819 4666 
L 2450 4666 
L 2450 531 
L 3481 531 
L 3481 0 
L 794 0 
L 794 531 
z
" transform="scale(0.015625)"/>
       <path id="DejaVuSans-20" transform="scale(0.015625)"/>
       <path id="DejaVuSans-66" d="M 2375 4863 
L 2375 4384 
L 1825 4384 
Q 1516 4384 1395 4259 
Q 1275 4134 1275 3809 
L 1275 3500 
L 2222 3500 
L 2222 3053 
L 1275 3053 
L 1275 0 
L 697 0 
L 697 3053 
L 147 3053 
L 147 3500 
L 697 3500 
L 697 3744 
Q 697 4328 969 4595 
Q 1241 4863 1831 4863 
L 2375 4863 
z
" transform="scale(0.015625)"/>
       <path id="DejaVuSans-46" d="M 628 4666 
L 3309 4666 
L 3309 4134 
L 1259 4134 
L 1259 2759 
L 3109 2759 
L 3109 2228 
L 1259 2228 
L 1259 0 
L 628 0 
L 628 4666 
z
" transform="scale(0.015625)"/>
       <path id="DejaVuSans-45" d="M 628 4666 
L 3578 4666 
L 3578 4134 
L 1259 4134 
L 1259 2753 
L 3481 2753 
L 3481 2222 
L 1259 2222 
L 1259 531 
L 3634 531 
L 3634 0 
L 628 0 
L 628 4666 
z
" transform="scale(0.015625)"/>
       <path id="DejaVuSans-76" d="M 191 3500 
L 800 3500 
L 1894 563 
L 2988 3500 
L 3597 3500 
L 2284 0 
L 1503 0 
L 191 3500 
z
" transform="scale(0.015625)"/>
       <path id="DejaVuSans-61" d="M 2194 1759 
Q 1497 1759 1228 1600 
Q 959 1441 959 1056 
Q 959 750 1161 570 
Q 1363 391 1709 391 
Q 2188 391 2477 730 
Q 2766 1069 2766 1631 
L 2766 1759 
L 2194 1759 
z
M 3341 1997 
L 3341 0 
L 2766 0 
L 2766 531 
Q 2569 213 2275 61 
Q 1981 -91 1556 -91 
Q 1019 -91 701 211 
Q 384 513 384 1019 
Q 384 1609 779 1909 
Q 1175 2209 1959 2209 
L 2766 2209 
L 2766 2266 
Q 2766 2663 2505 2880 
Q 2244 3097 1772 3097 
Q 1472 3097 1187 3025 
Q 903 2953 641 2809 
L 641 3341 
Q 956 3463 1253 3523 
Q 1550 3584 1831 3584 
Q 2591 3584 2966 3190 
Q 3341 2797 3341 1997 
z
" transform="scale(0.015625)"/>
       <path id="DejaVuSans-73" d="M 2834 3397 
L 2834 2853 
Q 2591 2978 2328 3040 
Q 2066 3103 1784 3103 
Q 1356 3103 1142 2972 
Q 928 2841 928 2578 
Q 928 2378 1081 2264 
Q 1234 2150 1697 2047 
L 1894 2003 
Q 2506 1872 2764 1633 
Q 3022 1394 3022 966 
Q 3022 478 2636 193 
Q 2250 -91 1575 -91 
Q 1294 -91 989 -36 
Q 684 19 347 128 
L 347 722 
Q 666 556 975 473 
Q 1284 391 1588 391 
Q 1994 391 2212 530 
Q 2431 669 2431 922 
Q 2431 1156 2273 1281 
Q 2116 1406 1581 1522 
L 1381 1569 
Q 847 1681 609 1914 
Q 372 2147 372 2553 
Q 372 3047 722 3315 
Q 1072 3584 1716 3584 
Q 2034 3584 2315 3537 
Q 2597 3491 2834 3397 
z
" transform="scale(0.015625)"/>
       <path id="DejaVuSans-72" d="M 2631 2963 
Q 2534 3019 2420 3045 
Q 2306 3072 2169 3072 
Q 1681 3072 1420 2755 
Q 1159 2438 1159 1844 
L 1159 0 
L 581 0 
L 581 3500 
L 1159 3500 
L 1159 2956 
Q 1341 3275 1631 3429 
Q 1922 3584 2338 3584 
Q 2397 3584 2469 3576 
Q 2541 3569 2628 3553 
L 2631 2963 
z
" transform="scale(0.015625)"/>
       <path id="DejaVuSans-74" d="M 1172 4494 
L 1172 3500 
L 2356 3500 
L 2356 3053 
L 1172 3053 
L 1172 1153 
Q 1172 725 1289 603 
Q 1406 481 1766 481 
L 2356 481 
L 2356 0 
L 1766 0 
Q 1100 0 847 248 
Q 594 497 594 1153 
L 594 3053 
L 172 3053 
L 172 3500 
L 594 3500 
L 594 4494 
L 1172 4494 
z
" transform="scale(0.015625)"/>
       <path id="DejaVuSans-69" d="M 603 3500 
L 1178 3500 
L 1178 0 
L 603 0 
L 603 3500 
z
M 603 4863 
L 1178 4863 
L 1178 4134 
L 603 4134 
L 603 4863 
z
" transform="scale(0.015625)"/>
      </defs>
      <use xlink:href="#DejaVuSans-6c"/>
      <use xlink:href="#DejaVuSans-6f" x="27.783203"/>
      <use xlink:href="#DejaVuSans-67" x="88.964844"/>
      <use xlink:href="#DejaVuSans-31" x="152.441406"/>
      <use xlink:href="#DejaVuSans-30" x="216.064453"/>
      <use xlink:href="#DejaVuSans-20" x="279.6875"/>
      <use xlink:href="#DejaVuSans-6f" x="311.474609"/>
      <use xlink:href="#DejaVuSans-66" x="372.65625"/>
      <use xlink:href="#DejaVuSans-20" x="407.861328"/>
      <use xlink:href="#DejaVuSans-46" x="439.648438"/>
      <use xlink:href="#DejaVuSans-45" x="497.167969"/>
      <use xlink:href="#DejaVuSans-76" x="560.351562"/>
      <use xlink:href="#DejaVuSans-61" x="619.53125"/>
      <use xlink:href="#DejaVuSans-6c" x="680.810547"/>
      <use xlink:href="#DejaVuSans-73" x="708.59375"/>
      <use xlink:href="#DejaVuSans-20" x="760.693359"/>
      <use xlink:href="#DejaVuSans-72" x="792.480469"/>
      <use xlink:href="#DejaVuSans-61" x="833.59375"/>
      <use xlink:href="#DejaVuSans-74" x="894.873047"/>
      <use xlink:href="#DejaVuSans-69" x="934.082031"/>
      <use xlink:href="#DejaVuSans-6f" x="961.865234"/>
     </g>
    </g>
   </g>
   <g id="matplotlib.axis_2">
    <g id="ytick_1">
     <g id="line2d_7">
      <path d="M 34.16 288.453725 
L 453.192 288.453725 
" clip-path="url(#ped50519993)" style="fill: none; stroke: #b0b0b0; stroke-width: 0.8; stroke-linecap: square"/>
     </g>
     <g id="line2d_8">
      <defs>
       <path id="m20e8cb04ea" d="M 0 0 
L -3.5 0 
" style="stroke: #000000; stroke-width: 0.8"/>
      </defs>
      <g>
       <use xlink:href="#m20e8cb04ea" x="34.16" y="288.453725" style="stroke: #000000; stroke-width: 0.8"/>
      </g>
     </g>
    </g>
    <g id="ytick_2">
     <g id="line2d_9">
      <path d="M 34.16 217.796863 
L 453.192 217.796863 
" clip-path="url(#ped50519993)" style="fill: none; stroke: #b0b0b0; stroke-width: 0.8; stroke-linecap: square"/>
     </g>
     <g id="line2d_10">
      <g>
       <use xlink:href="#m20e8cb04ea" x="34.16" y="217.796863" style="stroke: #000000; stroke-width: 0.8"/>
      </g>
     </g>
    </g>
    <g id="ytick_3">
     <g id="line2d_11">
      <path d="M 34.16 147.14 
L 453.192 147.14 
" clip-path="url(#ped50519993)" style="fill: none; stroke: #b0b0b0; stroke-width: 0.8; stroke-linecap: square"/>
     </g>
     <g id="line2d_12">
      <g>
       <use xlink:href="#m20e8cb04ea" x="34.16" y="147.14" style="stroke: #000000; stroke-width: 0.8"/>
      </g>
     </g>
    </g>
    <g id="ytick_4">
     <g id="line2d_13">
      <path d="M 34.16 76.483137 
L 453.192 76.483137 
" clip-path="url(#ped50519993)" style="fill: none; stroke: #b0b0b0; stroke-width: 0.8; stroke-linecap: square"/>
     </g>
     <g id="line2d_14">
      <g>
       <use xlink:href="#m20e8cb04ea" x="34.16" y="76.483137" style="stroke: #000000; stroke-width: 0.8"/>
      </g>
     </g>
    </g>
    <g id="ytick_5">
     <g id="line2d_15">
      <path d="M 34.16 5.826275 
L 453.192 5.826275 
" clip-path="url(#ped50519993)" style="fill: none; stroke: #b0b0b0; stroke-width: 0.8; stroke-linecap: square"/>
     </g>
     <g id="line2d_16">
      <g>
       <use xlink:href="#m20e8cb04ea" x="34.16" y="5.826275" style="stroke: #000000; stroke-width: 0.8"/>
      </g>
     </g>
    </g>
    <g id="text_5">
     <!-- proportion of trials -->
     <g transform="translate(19.000625 240.14625)rotate(-90)scale(0.2 -0.2)">
      <defs>
       <path id="DejaVuSans-70" d="M 1159 525 
L 1159 -1331 
L 581 -1331 
L 581 3500 
L 1159 3500 
L 1159 2969 
Q 1341 3281 1617 3432 
Q 1894 3584 2278 3584 
Q 2916 3584 3314 3078 
Q 3713 2572 3713 1747 
Q 3713 922 3314 415 
Q 2916 -91 2278 -91 
Q 1894 -91 1617 61 
Q 1341 213 1159 525 
z
M 3116 1747 
Q 3116 2381 2855 2742 
Q 2594 3103 2138 3103 
Q 1681 3103 1420 2742 
Q 1159 2381 1159 1747 
Q 1159 1113 1420 752 
Q 1681 391 2138 391 
Q 2594 391 2855 752 
Q 3116 1113 3116 1747 
z
" transform="scale(0.015625)"/>
       <path id="DejaVuSans-6e" d="M 3513 2113 
L 3513 0 
L 2938 0 
L 2938 2094 
Q 2938 2591 2744 2837 
Q 2550 3084 2163 3084 
Q 1697 3084 1428 2787 
Q 1159 2491 1159 1978 
L 1159 0 
L 581 0 
L 581 3500 
L 1159 3500 
L 1159 2956 
Q 1366 3272 1645 3428 
Q 1925 3584 2291 3584 
Q 2894 3584 3203 3211 
Q 3513 2838 3513 2113 
z
" transform="scale(0.015625)"/>
      </defs>
      <use xlink:href="#DejaVuSans-70"/>
      <use xlink:href="#DejaVuSans-72" x="63.476562"/>
      <use xlink:href="#DejaVuSans-6f" x="102.339844"/>
      <use xlink:href="#DejaVuSans-70" x="163.521484"/>
      <use xlink:href="#DejaVuSans-6f" x="226.998047"/>
      <use xlink:href="#DejaVuSans-72" x="288.179688"/>
      <use xlink:href="#DejaVuSans-74" x="329.292969"/>
      <use xlink:href="#DejaVuSans-69" x="368.501953"/>
      <use xlink:href="#DejaVuSans-6f" x="396.285156"/>
      <use xlink:href="#DejaVuSans-6e" x="457.466797"/>
      <use xlink:href="#DejaVuSans-20" x="520.845703"/>
      <use xlink:href="#DejaVuSans-6f" x="552.632812"/>
      <use xlink:href="#DejaVuSans-66" x="613.814453"/>
      <use xlink:href="#DejaVuSans-20" x="649.019531"/>
      <use xlink:href="#DejaVuSans-74" x="680.806641"/>
      <use xlink:href="#DejaVuSans-72" x="720.015625"/>
      <use xlink:href="#DejaVuSans-69" x="761.128906"/>
      <use xlink:href="#DejaVuSans-61" x="788.912109"/>
      <use xlink:href="#DejaVuSans-6c" x="850.191406"/>
      <use xlink:href="#DejaVuSans-73" x="877.974609"/>
     </g>
    </g>
   </g>
   <g id="line2d_17">
    <path d="M 34.16 288.453725 
L 50.205002 288.453725 
L 50.205002 287.700052 
L 108.570108 287.700052 
L 108.570108 286.946379 
L 112.792844 286.946379 
L 112.792844 286.192706 
L 126.98225 286.192706 
L 126.98225 285.439033 
L 127.609899 285.439033 
L 127.609899 284.685359 
L 129.780952 284.685359 
L 129.780952 283.931686 
L 132.312686 283.931686 
L 132.312686 283.178013 
L 135.818027 283.178013 
L 135.818027 282.42434 
L 137.228789 282.42434 
L 137.228789 281.670667 
L 155.162303 281.670667 
L 155.162303 280.916993 
L 156.652213 280.916993 
L 156.652213 280.16332 
L 157.600996 280.16332 
L 157.600996 279.409647 
L 159.320053 279.409647 
L 159.320053 278.655974 
L 161.110444 278.655974 
L 161.110444 277.902301 
L 161.49524 277.902301 
L 161.49524 277.148627 
L 161.829624 277.148627 
L 161.829624 276.394954 
L 162.804032 276.394954 
L 162.804032 275.641281 
L 163.877233 275.641281 
L 163.877233 274.887608 
L 164.890891 274.887608 
L 164.890891 274.133935 
L 165.432007 274.133935 
L 165.432007 273.380261 
L 166.605234 273.380261 
L 166.605234 272.626588 
L 167.72376 272.626588 
L 167.72376 271.872915 
L 168.417057 271.872915 
L 168.417057 271.119242 
L 169.51415 271.119242 
L 169.51415 270.365569 
L 170.23333 270.365569 
L 170.23333 269.611895 
L 171.157951 269.611895 
L 171.170111 268.104549 
L 172.280939 268.104549 
L 172.280939 267.350876 
L 172.949401 267.350876 
L 172.949401 266.597203 
L 173.574444 266.597203 
L 173.574444 265.843529 
L 173.835713 265.843529 
L 173.835713 265.089856 
L 174.080423 265.089856 
L 174.080423 264.336183 
L 176.433739 264.336183 
L 176.433739 263.58251 
L 177.364109 263.58251 
L 177.364109 262.828837 
L 181.216173 262.828837 
L 181.216173 262.075163 
L 181.750214 262.075163 
L 181.750214 261.32149 
L 182.512191 261.32149 
L 182.512191 260.567817 
L 183.098055 260.567817 
L 183.098055 259.814144 
L 183.669326 259.814144 
L 183.727728 258.306797 
L 184.344856 258.306797 
L 184.344856 257.553124 
L 184.837446 257.553124 
L 184.837446 256.799451 
L 185.673288 256.799451 
L 185.767815 255.292105 
L 185.975006 255.292105 
L 185.975006 254.538431 
L 188.439577 254.538431 
L 188.439577 253.784758 
L 189.570092 253.784758 
L 189.570092 253.031085 
L 190.15392 253.031085 
L 190.15392 251.523739 
L 191.501761 251.523739 
L 191.501761 250.770065 
L 191.986585 250.770065 
L 192.073033 246.248026 
L 192.131434 246.248026 
L 192.131434 245.494353 
L 192.368794 245.494353 
L 192.368794 244.74068 
L 193.854087 244.74068 
L 193.854087 243.987007 
L 194.183134 243.987007 
L 194.224493 242.47966 
L 194.900529 242.47966 
L 194.900529 241.725987 
L 195.593895 241.725987 
L 195.644477 240.218641 
L 196.081306 240.218641 
L 196.081306 238.711294 
L 196.363657 238.711294 
L 196.363657 237.957621 
L 198.411266 237.957621 
L 198.411266 237.203948 
L 199.96604 237.203948 
L 199.96604 236.450275 
L 200.924332 236.450275 
L 200.924332 235.696601 
L 202.628199 235.696601 
L 202.628199 234.942928 
L 204.387147 234.942928 
L 204.387147 234.189255 
L 206.851718 234.189255 
L 206.851718 233.435582 
L 207.185849 233.435582 
L 207.185849 232.681908 
L 208.566061 232.681908 
L 208.566061 231.928235 
L 209.00838 231.928235 
L 209.00838 231.174562 
L 209.717583 231.174562 
L 209.717583 230.420889 
L 210.798771 230.420889 
L 210.798771 229.667216 
L 210.967772 229.667216 
L 210.967772 228.913542 
L 211.517951 228.913542 
L 211.517951 228.159869 
L 211.898142 228.159869 
L 211.898142 227.406196 
L 212.595275 227.406196 
L 212.595275 226.652523 
L 213.527409 226.652523 
L 213.56556 225.145176 
L 214.006037 225.145176 
L 214.006037 224.391503 
L 215.120334 224.391503 
L 215.120334 223.63783 
L 215.393977 223.63783 
L 215.393977 222.884157 
L 216.284247 222.884157 
L 216.326112 221.37681 
L 216.804739 221.37681 
L 216.804739 220.623137 
L 217.62213 220.623137 
L 217.632088 219.115791 
L 217.925711 219.115791 
L 217.925711 218.362118 
L 218.203359 218.362118 
L 218.261761 216.854771 
L 219.240055 216.854771 
L 219.336473 213.840078 
L 219.495793 213.840078 
L 219.495793 213.086405 
L 220.106472 213.086405 
L 220.188839 211.579059 
L 220.395986 211.579059 
L 220.395986 210.825386 
L 221.169138 210.825386 
L 221.169138 206.303346 
L 223.295321 206.303346 
L 223.295321 205.549673 
L 223.870154 205.549673 
L 223.967841 204.042327 
L 224.083082 204.042327 
L 224.083082 203.288654 
L 224.638816 203.288654 
L 224.73784 201.781307 
L 224.924854 201.781307 
L 224.924854 201.027634 
L 225.263859 201.027634 
L 225.263859 198.012941 
L 226.122066 198.012941 
L 226.122066 197.259268 
L 226.715244 197.259268 
L 226.715244 196.505595 
L 227.052436 196.505595 
L 227.052436 195.751922 
L 227.434424 195.751922 
L 227.478733 194.244575 
L 227.899499 194.244575 
L 227.967523 192.737229 
L 228.758526 192.737229 
L 228.810867 183.69315 
L 229.193077 183.69315 
L 229.270183 182.185804 
L 229.482033 182.185804 
L 229.482033 181.432131 
L 230.106885 181.432131 
L 230.106885 180.678458 
L 230.451866 180.678458 
L 230.451866 179.924784 
L 230.93705 179.924784 
L 231.036807 178.417438 
L 231.438541 178.417438 
L 231.438541 177.663765 
L 231.93955 177.663765 
L 231.93955 176.156418 
L 232.27386 176.156418 
L 232.27386 175.402745 
L 232.786382 175.402745 
L 232.786382 174.649072 
L 232.905588 174.649072 
L 232.905588 170.880706 
L 233.357653 170.880706 
L 233.416055 169.373359 
L 233.675587 169.373359 
L 233.757953 167.866013 
L 234.05711 167.866013 
L 234.065733 166.358667 
L 234.201606 166.358667 
L 234.201606 165.604993 
L 234.738253 165.604993 
L 234.738253 164.097647 
L 234.984209 164.097647 
L 235.005893 162.590301 
L 235.609252 162.590301 
L 235.609252 161.836627 
L 236.452596 161.836627 
L 236.452596 161.082954 
L 236.668265 161.082954 
L 236.668265 160.329281 
L 237.222595 160.329281 
L 237.222595 159.575608 
L 237.437931 159.575608 
L 237.437931 158.821935 
L 238.20793 158.821935 
L 238.20793 158.068261 
L 238.450764 158.068261 
L 238.450764 157.314588 
L 238.832973 157.314588 
L 238.900137 155.053569 
L 239.022035 155.053569 
L 239.022035 154.299895 
L 239.581279 154.299895 
L 239.581279 150.531529 
L 239.75433 150.531529 
L 239.75433 149.777856 
L 241.707462 149.777856 
L 241.754939 148.27051 
L 242.03854 148.27051 
L 242.03854 147.516837 
L 242.265238 147.516837 
L 242.295788 146.00949 
L 242.634176 146.00949 
L 242.634176 145.255817 
L 242.968909 145.255817 
L 242.968909 144.502144 
L 243.214021 144.502144 
L 243.308593 142.994797 
L 243.676 142.994797 
L 243.676 138.472758 
L 243.91282 138.472758 
L 244.010132 136.965412 
L 244.286673 136.965412 
L 244.286673 136.211739 
L 244.546999 136.211739 
L 244.624783 134.704392 
L 245.194305 134.704392 
L 245.194305 133.950719 
L 246.092493 133.950719 
L 246.160342 132.443373 
L 246.663764 132.443373 
L 246.663764 131.689699 
L 246.804683 131.689699 
L 246.804683 130.936026 
L 247.000722 130.936026 
L 247.108265 129.42868 
L 247.223008 129.42868 
L 247.223008 128.675007 
L 247.355014 128.675007 
L 247.355014 127.921333 
L 247.770721 127.921333 
L 247.770721 126.413987 
L 248.26113 126.413987 
L 248.26113 125.660314 
L 248.519027 125.660314 
L 248.575008 123.399294 
L 248.702855 123.399294 
L 248.702855 122.645621 
L 249.274127 122.645621 
L 249.332529 121.138275 
L 249.603386 121.138275 
L 249.603386 120.384601 
L 249.726648 120.384601 
L 249.726648 119.630928 
L 250.503916 119.630928 
L 250.503916 118.877255 
L 250.692686 118.877255 
L 250.692686 118.123582 
L 251.317729 118.123582 
L 251.317729 116.616235 
L 251.48532 116.616235 
L 251.48532 115.862562 
L 251.914678 115.862562 
L 251.914678 115.108889 
L 252.218259 115.108889 
L 252.218259 114.355216 
L 253.629021 114.355216 
L 253.629021 113.601542 
L 253.849463 113.601542 
L 253.849463 112.847869 
L 254.029826 112.847869 
L 254.029826 112.094196 
L 254.446412 112.094196 
L 254.446412 108.32583 
L 254.930019 108.32583 
L 254.930019 107.572157 
L 256.160756 107.572157 
L 256.160756 106.818484 
L 256.572595 106.818484 
L 256.572595 106.06481 
L 256.783136 106.06481 
L 256.783136 105.311137 
L 258.193898 105.311137 
L 258.286938 103.803791 
L 258.404187 103.803791 
L 258.404187 103.050118 
L 259.289439 103.050118 
L 259.289439 101.542771 
L 259.634419 101.542771 
L 259.693448 100.035425 
L 259.829293 100.035425 
L 259.829293 99.281752 
L 260.119603 99.281752 
L 260.119603 97.774405 
L 260.255476 97.774405 
L 260.255476 97.020732 
L 261.10421 97.020732 
L 261.10421 96.267059 
L 261.244797 96.267059 
L 261.295154 94.759712 
L 262.088141 94.759712 
L 262.088141 88.730327 
L 262.959141 88.730327 
L 262.959141 87.976654 
L 263.078185 87.976654 
L 263.078185 87.22298 
L 263.359346 87.22298 
L 263.359346 86.469307 
L 263.802485 86.469307 
L 263.851269 84.961961 
L 264.166762 84.961961 
L 264.214324 83.454614 
L 265.216824 83.454614 
L 265.216824 81.947268 
L 265.827497 81.947268 
L 265.827497 81.193595 
L 266.182862 81.193595 
L 266.182862 80.439922 
L 266.931168 80.439922 
L 266.931168 78.178902 
L 267.343007 78.178902 
L 267.343007 77.425229 
L 267.891689 77.425229 
L 267.891689 76.671556 
L 268.015527 76.671556 
L 268.015527 75.917882 
L 268.383613 75.917882 
L 268.383613 75.164209 
L 269.057351 75.164209 
L 269.057351 73.656863 
L 269.184119 73.656863 
L 269.184119 72.90319 
L 270.084313 72.90319 
L 270.084313 72.149516 
L 271.286313 72.149516 
L 271.286313 71.395843 
L 271.728038 71.395843 
L 271.728038 70.64217 
L 272.299309 70.64217 
L 272.299309 69.888497 
L 272.697075 69.888497 
L 272.697075 69.134824 
L 272.858553 69.134824 
L 272.858553 66.120131 
L 273.442381 66.120131 
L 273.442381 65.366458 
L 273.558481 65.366458 
L 273.558481 64.612784 
L 273.729553 64.612784 
L 273.729553 63.105438 
L 274.013653 63.105438 
L 274.013653 62.351765 
L 274.21238 62.351765 
L 274.21238 61.598092 
L 274.572897 61.598092 
L 274.572897 60.090745 
L 275.390288 60.090745 
L 275.390288 59.337072 
L 276.405562 59.337072 
L 276.405562 57.829725 
L 276.953274 57.829725 
L 276.953274 57.076052 
L 277.454479 57.076052 
L 277.454479 56.322379 
L 277.70158 56.322379 
L 277.70158 54.815033 
L 277.946403 54.815033 
L 277.946403 54.061359 
L 278.744724 54.061359 
L 278.744724 53.307686 
L 279.827763 53.307686 
L 279.827763 52.554013 
L 280.500282 52.554013 
L 280.500282 48.785647 
L 284.212793 48.785647 
L 284.212793 48.031974 
L 284.784065 48.031974 
L 284.784065 47.278301 
L 285.100593 47.278301 
L 285.100593 46.524627 
L 285.343309 46.524627 
L 285.343309 45.770954 
L 286.000786 45.770954 
L 286.000786 45.017281 
L 286.427668 45.017281 
L 286.427668 44.263608 
L 287.903776 44.263608 
L 287.903776 42.756261 
L 288.307514 42.756261 
L 288.307514 42.002588 
L 289.474954 42.002588 
L 289.474954 41.248915 
L 291.270694 41.248915 
L 291.270694 40.495242 
L 291.998496 40.495242 
L 291.998496 39.741569 
L 293.396877 39.741569 
L 293.396877 38.987895 
L 295.365415 38.987895 
L 295.365415 37.480549 
L 305.222019 37.480549 
L 305.222019 36.726876 
L 305.896435 36.726876 
L 305.896435 35.973203 
L 306.135827 35.973203 
L 306.135827 34.465856 
L 309.682836 34.465856 
L 309.682836 33.712183 
L 310.767194 33.712183 
L 310.767194 32.204837 
L 311.809018 32.204837 
L 311.809018 31.451163 
L 313.777556 31.451163 
L 313.777556 30.69749 
L 316.481221 30.69749 
L 316.481221 29.190144 
L 318.934943 29.190144 
L 318.934943 27.682797 
L 319.704942 27.682797 
L 319.704942 26.175451 
L 320.039073 26.175451 
L 320.039073 25.421778 
L 320.71349 25.421778 
L 320.71349 24.668105 
L 321.18105 24.668105 
L 321.18105 23.914431 
L 323.25195 23.914431 
L 323.25195 22.407085 
L 325.783684 22.407085 
L 325.783684 20.899739 
L 328.094977 20.899739 
L 328.094977 20.146065 
L 328.247201 20.146065 
L 328.247201 19.392392 
L 328.921618 19.392392 
L 328.921618 18.638719 
L 329.657963 18.638719 
L 329.657963 17.885046 
L 330.33238 17.885046 
L 330.33238 17.131373 
L 331.22366 17.131373 
L 331.22366 15.624026 
L 332.189697 15.624026 
L 332.189697 14.11668 
L 339.593191 14.11668 
L 339.593191 13.363007 
L 345.663774 13.363007 
L 345.663774 11.85566 
L 347.324509 11.85566 
L 347.324509 10.348314 
L 349.388701 10.348314 
L 349.388701 8.840967 
L 349.880624 8.840967 
L 349.880624 7.333621 
L 360.241735 7.333621 
L 360.241735 5.826275 
L 453.192 5.826275 
L 453.192 5.826275 
" clip-path="url(#ped50519993)" style="fill: none; stroke: #000000; stroke-width: 3; stroke-linecap: square"/>
   </g>
   <g id="line2d_18">
    <path clip-path="url(#ped50519993)" style="fill: none; stroke: #000000; stroke-width: 3; stroke-linecap: square"/>
   </g>
   <g id="line2d_19">
    <path d="M 34.16 261.041698 
L 69.982267 261.041698 
L 69.982267 260.096456 
L 77.124809 260.096456 
L 77.124809 259.151214 
L 81.126814 259.151214 
L 81.126814 258.205972 
L 82.748117 258.205972 
L 82.748117 257.260729 
L 83.095352 257.260729 
L 83.095352 256.315487 
L 89.365492 256.315487 
L 89.365492 255.370245 
L 143.753707 255.370245 
L 143.753707 254.425002 
L 145.211804 254.425002 
L 145.211804 253.47976 
L 145.737407 253.47976 
L 145.737407 252.534518 
L 147.568556 252.534518 
L 147.568556 251.589275 
L 148.016631 251.589275 
L 148.016631 250.644033 
L 150.896249 250.644033 
L 150.896249 249.698791 
L 152.354346 249.698791 
L 152.354346 248.753548 
L 152.879949 248.753548 
L 152.879949 247.808306 
L 154.711098 247.808306 
L 154.711098 246.863064 
L 154.898254 246.863064 
L 154.898254 245.917821 
L 156.356351 245.917821 
L 156.356351 244.972579 
L 156.519556 244.972579 
L 156.519556 244.027337 
L 156.866791 244.027337 
L 156.881954 242.136852 
L 157.977654 242.136852 
L 157.977654 241.19161 
L 158.324889 241.19161 
L 158.324889 240.246368 
L 158.503257 240.246368 
L 158.503257 239.301125 
L 158.713102 239.301125 
L 158.713102 238.355883 
L 158.850492 238.355883 
L 158.850492 237.410641 
L 159.109859 237.410641 
L 159.109859 236.465398 
L 160.334405 236.465398 
L 160.334405 235.520156 
L 160.68164 235.520156 
L 160.68164 234.574914 
L 161.453309 234.574914 
L 161.453309 233.629671 
L 163.136932 233.629671 
L 163.136932 232.684429 
L 164.595029 232.684429 
L 164.595029 231.739187 
L 165.120632 231.739187 
L 165.120632 230.793945 
L 166.95178 230.793945 
L 166.95178 229.848702 
L 168.729456 229.848702 
L 168.729456 228.90346 
L 170.730399 228.90346 
L 170.730399 227.958218 
L 183.477616 227.958218 
L 183.477616 227.012975 
L 184.01875 227.012975 
L 184.01875 226.067733 
L 186.362201 226.067733 
L 186.362201 225.122491 
L 187.005713 225.122491 
L 187.005713 224.177248 
L 187.184803 224.177248 
L 187.184803 223.232006 
L 187.398699 223.232006 
L 187.410502 221.341521 
L 188.438473 221.341521 
L 188.438473 220.396279 
L 188.675763 220.396279 
L 188.675763 219.451037 
L 189.528253 219.451037 
L 189.528253 218.505794 
L 194.349964 218.505794 
L 194.349964 217.560552 
L 198.379314 217.560552 
L 198.379314 216.61531 
L 200.847218 216.61531 
L 200.847218 215.670068 
L 201.045618 215.670068 
L 201.045618 214.724825 
L 201.783916 214.724825 
L 201.783916 213.779583 
L 203.093196 213.779583 
L 203.190669 211.889098 
L 204.981449 211.889098 
L 204.981449 210.943856 
L 206.68911 210.943856 
L 206.68911 209.998614 
L 208.378276 209.998614 
L 208.378276 209.053371 
L 208.89927 209.053371 
L 208.89927 208.108129 
L 209.03256 208.108129 
L 209.03256 207.162887 
L 209.293317 207.162887 
L 209.293317 206.217644 
L 209.6906 206.217644 
L 209.6906 205.272402 
L 210.126536 205.272402 
L 210.126536 204.32716 
L 210.266529 204.32716 
L 210.266529 203.381918 
L 211.631739 203.381918 
L 211.631739 202.436675 
L 211.807396 202.436675 
L 211.914604 200.546191 
L 213.33706 200.546191 
L 213.347364 198.655706 
L 213.584654 198.655706 
L 213.584654 197.710464 
L 215.080657 197.710464 
L 215.080657 196.765221 
L 215.411616 196.765221 
L 215.411616 195.819979 
L 216.513417 195.819979 
L 216.513417 194.874737 
L 216.750707 194.874737 
L 216.750707 193.929494 
L 219.22145 193.929494 
L 219.258855 192.03901 
L 220.358654 192.03901 
L 220.358654 191.093767 
L 221.476563 191.093767 
L 221.476563 190.148525 
L 221.78807 190.148525 
L 221.78807 189.203283 
L 222.424908 189.203283 
L 222.424908 188.258041 
L 223.246168 188.258041 
L 223.246168 187.312798 
L 223.771771 187.312798 
L 223.771771 186.367556 
L 224.50653 186.367556 
L 224.50653 185.422314 
L 225.602919 185.422314 
L 225.643733 183.531829 
L 225.961617 183.531829 
L 225.97342 181.641344 
L 226.659245 181.641344 
L 226.761643 179.75086 
L 228.547498 179.75086 
L 228.547498 178.805617 
L 228.743072 178.805617 
L 228.743072 177.860375 
L 229.016771 177.860375 
L 229.125789 175.96989 
L 230.175832 175.96989 
L 230.175832 175.024648 
L 230.413122 175.024648 
L 230.413122 174.079406 
L 233.566533 174.079406 
L 233.566533 173.134164 
L 233.692584 173.134164 
L 233.692584 172.188921 
L 233.808162 172.188921 
L 233.808162 171.243679 
L 234.584963 171.243679 
L 234.584963 170.298437 
L 236.017724 170.298437 
L 236.087323 168.407952 
L 236.255014 168.407952 
L 236.255014 167.46271 
L 236.500587 167.46271 
L 236.572771 165.572225 
L 236.863087 165.572225 
L 236.863087 164.626983 
L 236.974214 164.626983 
L 236.985169 162.736498 
L 238.245951 162.736498 
L 238.335143 160.846014 
L 238.426237 160.846014 
L 238.426237 159.900771 
L 238.584487 159.900771 
L 238.584487 158.955529 
L 239.550919 158.955529 
L 239.608535 157.065044 
L 240.346834 157.065044 
L 240.346834 156.119802 
L 241.412004 156.119802 
L 241.412004 155.17456 
L 241.929214 155.17456 
L 241.929214 154.229317 
L 242.148167 154.229317 
L 242.148167 153.284075 
L 242.270249 153.284075 
L 242.270249 152.338833 
L 242.500895 152.338833 
L 242.500895 151.39359 
L 242.787499 151.39359 
L 242.787499 150.448348 
L 243.620222 150.448348 
L 243.620222 149.503106 
L 243.869567 149.503106 
L 243.958993 146.667379 
L 244.484596 146.667379 
L 244.484596 145.722137 
L 244.835999 145.722137 
L 244.835999 144.776894 
L 245.042612 144.776894 
L 245.042612 143.831652 
L 246.315744 143.831652 
L 246.315744 142.88641 
L 250.370314 142.88641 
L 250.370314 141.941167 
L 250.63663 141.941167 
L 250.63663 140.995925 
L 252.494704 140.995925 
L 252.494704 140.050683 
L 254.14201 140.050683 
L 254.14201 139.10544 
L 254.255569 139.10544 
L 254.255569 138.160198 
L 254.871857 138.160198 
L 254.871857 137.214956 
L 255.074419 137.214956 
L 255.074419 136.269713 
L 255.81503 136.269713 
L 255.870104 134.379229 
L 256.101591 134.379229 
L 256.101591 133.433986 
L 256.442235 133.433986 
L 256.478521 131.543502 
L 256.907237 131.543502 
L 256.907237 130.59826 
L 257.249055 130.59826 
L 257.249055 129.653017 
L 258.100302 129.653017 
L 258.100302 128.707775 
L 258.425717 128.707775 
L 258.475424 126.81729 
L 258.707153 126.81729 
L 258.707153 125.872048 
L 258.971944 125.872048 
L 258.971944 124.926806 
L 259.222467 124.926806 
L 259.232756 123.036321 
L 260.429135 123.036321 
L 260.429135 122.091079 
L 260.551218 122.091079 
L 260.551218 121.145836 
L 260.916311 121.145836 
L 260.916311 120.200594 
L 261.063904 120.200594 
L 261.155184 116.419625 
L 261.409478 116.419625 
L 261.481663 114.52914 
L 261.641477 114.52914 
L 261.641477 113.583898 
L 261.901191 113.583898 
L 261.901191 112.638656 
L 262.150535 112.638656 
L 262.192317 110.748171 
L 263.116968 110.748171 
L 263.116968 109.802929 
L 263.335128 109.802929 
L 263.335128 108.857686 
L 263.710797 108.857686 
L 263.710797 107.912444 
L 263.9187 107.912444 
L 263.9187 106.967202 
L 264.575531 106.967202 
L 264.647715 105.076717 
L 266.255806 105.076717 
L 266.255806 104.131475 
L 266.501181 104.131475 
L 266.501181 103.186233 
L 267.579689 103.186233 
L 267.688707 101.295748 
L 272.150754 101.295748 
L 272.150754 100.350506 
L 272.614181 100.350506 
L 272.614181 99.405263 
L 273.608851 99.405263 
L 273.608851 98.460021 
L 274.134454 98.460021 
L 274.134454 97.514779 
L 274.502434 97.514779 
L 274.502434 96.569536 
L 275.303892 96.569536 
L 275.350721 94.679052 
L 275.965602 94.679052 
L 275.965602 93.733809 
L 276.487924 93.733809 
L 276.487924 92.788567 
L 277.019008 92.788567 
L 277.019008 91.843325 
L 277.403595 91.843325 
L 277.403595 90.898082 
L 277.605834 90.898082 
L 277.605834 89.95284 
L 277.916739 89.95284 
L 277.916739 89.007598 
L 278.237946 89.007598 
L 278.310131 87.117113 
L 279.16446 87.117113 
L 279.16446 86.171871 
L 279.381078 86.171871 
L 279.436153 84.281386 
L 279.64752 84.281386 
L 279.64752 83.336144 
L 279.780748 83.336144 
L 279.780748 82.390902 
L 280.163596 82.390902 
L 280.163596 81.445659 
L 280.473286 81.445659 
L 280.569648 79.555175 
L 280.587 79.555175 
L 280.598803 77.66469 
L 281.145783 77.66469 
L 281.145783 76.719448 
L 281.991765 76.719448 
L 281.991765 75.774206 
L 282.330513 75.774206 
L 282.330513 74.828963 
L 282.946801 74.828963 
L 282.946801 73.883721 
L 283.462039 73.883721 
L 283.462039 72.938479 
L 284.079838 72.938479 
L 284.152022 71.047994 
L 284.920137 71.047994 
L 284.920137 70.102752 
L 285.403179 70.102752 
L 285.44574 68.212267 
L 286.005488 68.212267 
L 286.005488 67.267025 
L 286.861277 67.267025 
L 286.861277 66.321782 
L 287.276888 66.321782 
L 287.386879 64.431298 
L 288.742435 64.431298 
L 288.742435 63.486055 
L 289.218028 63.486055 
L 289.218028 62.540813 
L 289.879638 62.540813 
L 289.879638 61.595571 
L 290.997548 61.595571 
L 290.997548 60.650329 
L 292.992357 60.650329 
L 292.992357 59.705086 
L 293.11444 59.705086 
L 293.11444 58.759844 
L 294.232063 58.759844 
L 294.233919 56.869359 
L 294.464413 56.869359 
L 294.464413 55.924117 
L 294.713757 55.924117 
L 294.713757 54.978875 
L 294.972217 54.978875 
L 295.005153 53.08839 
L 295.68019 53.08839 
L 295.68019 52.143148 
L 295.992928 52.143148 
L 295.992928 51.197905 
L 296.609216 51.197905 
L 296.66322 49.307421 
L 300.073954 49.307421 
L 300.073954 48.362179 
L 301.83482 48.362179 
L 301.83482 47.416936 
L 302.451108 47.416936 
L 302.451108 46.471694 
L 304.995697 46.471694 
L 304.995697 45.526452 
L 306.384071 45.526452 
L 306.384071 44.581209 
L 306.506154 44.581209 
L 306.506154 43.635967 
L 307.856127 43.635967 
L 307.856127 42.690725 
L 308.105471 42.690725 
L 308.105471 41.745482 
L 309.071904 41.745482 
L 309.071904 40.80024 
L 311.9443 40.80024 
L 311.999375 38.909755 
L 313.036508 38.909755 
L 313.036508 37.964513 
L 314.554987 37.964513 
L 314.554987 37.019271 
L 315.581926 37.019271 
L 315.581926 36.074028 
L 316.479657 36.074028 
L 316.479657 35.128786 
L 322.205072 35.128786 
L 322.31409 33.238302 
L 325.336014 33.238302 
L 325.391089 31.347817 
L 326.428222 31.347817 
L 326.428222 30.402575 
L 327.91345 30.402575 
L 327.946701 28.51209 
L 329.371547 28.51209 
L 329.371547 27.566848 
L 329.87303 27.566848 
L 329.89715 25.676363 
L 331.331128 25.676363 
L 331.331128 24.731121 
L 331.728298 24.731121 
L 331.728298 23.785878 
L 331.856731 23.785878 
L 331.856731 22.840636 
L 332.743384 22.840636 
L 332.743384 21.895394 
L 333.687879 21.895394 
L 333.687879 20.950151 
L 334.201481 20.950151 
L 334.201481 20.004909 
L 334.727084 20.004909 
L 334.727084 19.059667 
L 336.558232 19.059667 
L 336.558232 18.114425 
L 349.630536 18.114425 
L 349.630536 17.169182 
L 351.288603 17.169182 
L 351.288603 16.22394 
L 370.207309 16.22394 
L 370.207309 15.278698 
L 371.10504 15.278698 
L 371.10504 14.333455 
L 453.192 14.333455 
L 453.192 14.333455 
" clip-path="url(#ped50519993)" style="fill: none; stroke: #00bfbf; stroke-width: 3; stroke-linecap: square"/>
   </g>
   <g id="line2d_20">
    <path clip-path="url(#ped50519993)" style="fill: none; stroke: #00bfbf; stroke-width: 3; stroke-linecap: square"/>
   </g>
   <g id="line2d_21">
    <path d="M 34.16 264.141687 
L 89.109483 264.141687 
L 89.109483 263.128685 
L 95.895797 263.128685 
L 95.895797 262.115683 
L 96.374424 262.115683 
L 96.374424 261.102682 
L 96.84458 261.102682 
L 96.84458 260.08968 
L 98.819774 260.08968 
L 98.819774 259.076679 
L 101.453569 259.076679 
L 101.453569 258.063677 
L 147.153961 258.063677 
L 147.153961 257.050675 
L 162.455948 257.050675 
L 162.455948 256.037674 
L 164.033435 256.037674 
L 164.033435 255.024672 
L 164.833395 255.024672 
L 164.833395 254.011671 
L 165.383912 254.011671 
L 165.383912 252.998669 
L 166.513574 252.998669 
L 166.513574 251.985667 
L 167.66854 251.985667 
L 167.66854 250.972666 
L 169.242262 250.972666 
L 169.242262 249.959664 
L 169.720889 249.959664 
L 169.720889 248.946662 
L 170.191045 248.946662 
L 170.191045 247.933661 
L 171.619709 247.933661 
L 171.619709 246.920659 
L 172.098336 246.920659 
L 172.170225 243.881654 
L 172.568492 243.881654 
L 172.648853 241.855651 
L 173.119009 241.855651 
L 173.119009 240.84265 
L 173.299887 240.84265 
L 173.299887 239.829648 
L 173.778515 239.829648 
L 173.778515 238.816646 
L 174.24867 238.816646 
L 174.24867 237.803645 
L 174.543686 237.803645 
L 174.543686 236.790643 
L 174.800034 236.790643 
L 174.800034 235.777641 
L 175.094203 235.777641 
L 175.094203 234.76464 
L 176.223865 234.76464 
L 176.223865 233.751638 
L 177.177481 233.751638 
L 177.177481 232.738637 
L 177.727997 232.738637 
L 177.727997 231.725635 
L 178.857659 231.725635 
L 178.857659 230.712633 
L 182.80623 230.712633 
L 182.80623 229.699632 
L 187.3404 229.699632 
L 187.3404 228.68663 
L 190.191647 228.68663 
L 190.191647 227.673629 
L 190.42787 227.673629 
L 190.42787 226.660627 
L 190.816966 226.660627 
L 190.816966 225.647625 
L 191.043136 225.647625 
L 191.043136 224.634624 
L 195.584565 224.634624 
L 195.584565 223.621622 
L 197.389813 223.621622 
L 197.389813 222.60862 
L 202.635563 222.60862 
L 202.635563 221.595619 
L 204.60005 221.595619 
L 204.60005 220.582617 
L 204.821808 220.582617 
L 204.821808 219.569616 
L 206.47068 219.569616 
L 206.47068 218.556614 
L 207.387934 218.556614 
L 207.387934 217.543612 
L 208.73936 217.543612 
L 208.73936 216.530611 
L 209.35242 216.530611 
L 209.35242 215.517609 
L 209.931155 215.517609 
L 209.931155 214.504607 
L 210.252057 214.504607 
L 210.333808 212.478604 
L 210.821439 212.478604 
L 210.821439 211.465603 
L 213.498613 211.465603 
L 213.498613 210.452601 
L 213.734836 210.452601 
L 213.734836 209.439599 
L 214.123932 209.439599 
L 214.123932 208.426598 
L 214.563582 208.426598 
L 214.563582 207.413596 
L 214.683525 207.413596 
L 214.683525 206.400595 
L 217.201349 206.400595 
L 217.201349 205.387593 
L 217.437572 205.387593 
L 217.437572 204.374591 
L 217.826667 204.374591 
L 217.826667 203.36159 
L 218.891531 203.36159 
L 218.891531 202.348588 
L 219.524434 202.348588 
L 219.524434 201.335586 
L 220.236207 201.335586 
L 220.236207 200.322585 
L 220.500426 200.322585 
L 220.500426 199.309583 
L 221.586883 199.309583 
L 221.586883 198.296582 
L 222.594266 198.296582 
L 222.594266 197.28358 
L 222.877872 197.28358 
L 222.877872 196.270578 
L 223.428389 196.270578 
L 223.428389 195.257577 
L 224.276804 195.257577 
L 224.276804 194.244575 
L 224.558051 194.244575 
L 224.558051 193.231574 
L 224.988577 193.231574 
L 224.988577 192.218572 
L 225.848566 192.218572 
L 225.848566 191.20557 
L 226.312723 191.20557 
L 226.339254 188.166565 
L 227.813053 188.166565 
L 227.813053 187.153564 
L 230.980021 187.153564 
L 230.980021 186.140562 
L 231.216244 186.140562 
L 231.216244 185.127561 
L 231.605339 185.127561 
L 231.605339 184.114559 
L 232.628893 184.114559 
L 232.628893 183.101557 
L 232.865116 183.101557 
L 232.865116 182.088556 
L 233.144158 182.088556 
L 233.254212 180.062553 
L 233.559023 180.062553 
L 233.559023 179.049551 
L 233.97875 179.049551 
L 233.97875 178.036549 
L 236.372938 178.036549 
L 236.372938 177.023548 
L 236.61539 177.023548 
L 236.61539 176.010546 
L 236.749368 176.010546 
L 236.749368 174.997544 
L 237.261759 174.997544 
L 237.261759 173.984543 
L 237.420757 173.984543 
L 237.420757 172.971541 
L 237.870547 172.971541 
L 237.870547 171.95854 
L 238.021811 171.95854 
L 238.021811 170.945538 
L 239.164401 170.945538 
L 239.180099 168.919535 
L 239.623866 168.919535 
L 239.707479 166.893532 
L 239.875966 166.893532 
L 239.875966 165.88053 
L 240.170996 165.88053 
L 240.170996 164.867528 
L 240.520902 164.867528 
L 240.520902 163.854527 
L 241.015005 163.854527 
L 241.015005 162.841525 
L 241.197228 162.841525 
L 241.197228 161.828523 
L 241.573283 161.828523 
L 241.573283 160.815522 
L 242.173127 160.815522 
L 242.173127 159.80252 
L 242.737437 159.80252 
L 242.737437 158.789519 
L 243.392451 158.789519 
L 243.449209 156.763515 
L 243.932469 156.763515 
L 243.942968 154.737512 
L 244.376236 154.737512 
L 244.376236 153.724511 
L 244.628336 153.724511 
L 244.628336 152.711509 
L 244.799886 152.711509 
L 244.799886 151.698507 
L 244.923366 151.698507 
L 244.923366 150.685506 
L 245.07263 150.685506 
L 245.07263 149.672504 
L 251.040431 149.672504 
L 251.040431 148.659502 
L 251.764488 148.659502 
L 251.764488 147.646501 
L 252.689303 147.646501 
L 252.719745 145.620498 
L 254.138019 145.620498 
L 254.138019 144.607496 
L 255.100444 144.607496 
L 255.100444 143.594494 
L 255.351955 143.594494 
L 255.351955 142.581493 
L 256.152695 142.581493 
L 256.215347 140.555489 
L 256.320707 140.555489 
L 256.320707 139.542488 
L 256.844086 139.542488 
L 256.844086 138.529486 
L 257.000828 138.529486 
L 257.079893 136.503483 
L 257.158123 136.503483 
L 257.158123 135.490481 
L 257.285715 135.490481 
L 257.285715 134.47748 
L 258.159421 134.47748 
L 258.176213 132.451477 
L 258.530142 132.451477 
L 258.530142 131.438475 
L 259.04438 131.438475 
L 259.080659 129.412472 
L 259.922355 129.412472 
L 259.922355 128.39947 
L 260.056334 128.39947 
L 260.056334 127.386468 
L 260.210321 127.386468 
L 260.210321 126.373467 
L 260.63376 126.373467 
L 260.63376 125.360465 
L 260.967717 125.360465 
L 260.988451 123.334462 
L 261.596457 123.334462 
L 261.596457 122.32146 
L 262.393102 122.32146 
L 262.471366 120.295457 
L 262.836868 120.295457 
L 262.928583 117.256452 
L 263.088969 117.256452 
L 263.088969 116.243451 
L 263.383999 116.243451 
L 263.447129 114.217447 
L 263.625091 114.217447 
L 263.625091 113.204446 
L 263.75907 113.204446 
L 263.827867 111.178443 
L 264.375485 111.178443 
L 264.375485 110.165441 
L 266.174102 110.165441 
L 266.174102 109.152439 
L 267.530603 109.152439 
L 267.530603 108.139438 
L 268.307221 108.139438 
L 268.307221 107.126436 
L 270.718273 107.126436 
L 270.736278 105.100433 
L 272.682759 105.100433 
L 272.682759 104.087431 
L 273.113724 104.087431 
L 273.113724 103.07443 
L 273.664241 103.07443 
L 273.664241 102.061428 
L 273.968764 102.061428 
L 273.968764 101.048426 
L 274.680536 101.048426 
L 274.767123 99.022423 
L 274.793903 99.022423 
L 274.793903 98.009422 
L 276.02671 98.009422 
L 276.031213 95.983418 
L 276.415996 95.983418 
L 276.415996 94.970417 
L 277.403763 94.970417 
L 277.444984 92.944414 
L 277.537742 92.944414 
L 277.537742 91.931412 
L 278.013864 91.931412 
L 278.013864 90.91841 
L 278.407409 90.91841 
L 278.407409 89.905409 
L 279.052636 89.905409 
L 279.052636 88.892407 
L 279.186614 88.892407 
L 279.186614 87.879405 
L 279.426045 87.879405 
L 279.428349 84.840401 
L 279.729446 84.840401 
L 279.762624 82.814397 
L 279.952774 82.814397 
L 280.057089 80.788394 
L 281.14772 80.788394 
L 281.14772 79.775393 
L 281.309275 79.775393 
L 281.389216 76.736388 
L 281.601647 76.736388 
L 281.601647 75.723386 
L 282.085825 75.723386 
L 282.110145 73.697383 
L 282.958148 73.697383 
L 282.958148 72.684381 
L 284.167904 72.684381 
L 284.167904 71.67138 
L 284.463272 71.67138 
L 284.463272 70.658378 
L 285.013788 70.658378 
L 285.013788 69.645376 
L 286.14345 69.645376 
L 286.14345 68.632375 
L 286.545351 68.632375 
L 286.545351 67.619373 
L 287.095868 67.619373 
L 287.095868 66.606371 
L 287.607143 66.606371 
L 287.607143 65.59337 
L 288.22553 65.59337 
L 288.318916 63.567367 
L 289.669592 63.567367 
L 289.669592 62.554365 
L 291.865086 62.554365 
L 291.865086 61.541363 
L 292.820801 61.541363 
L 292.820801 60.528362 
L 293.508118 60.528362 
L 293.508118 59.51536 
L 293.624429 59.51536 
L 293.624429 58.502359 
L 294.068195 58.502359 
L 294.068195 57.489357 
L 294.31055 57.489357 
L 294.320296 55.463354 
L 294.615326 55.463354 
L 294.615326 54.450352 
L 294.926392 54.450352 
L 294.926392 53.43735 
L 295.156991 53.43735 
L 295.156991 52.424349 
L 295.888817 52.424349 
L 295.888817 51.411347 
L 296.575265 51.411347 
L 296.575265 50.398346 
L 297.53769 50.398346 
L 297.53769 49.385344 
L 299.588143 49.385344 
L 299.588143 48.372342 
L 304.87781 48.372342 
L 304.87781 47.359341 
L 305.503466 47.359341 
L 305.503466 46.346339 
L 307.262808 46.346339 
L 307.262808 45.333338 
L 307.706575 45.333338 
L 307.706575 44.320336 
L 307.958675 44.320336 
L 307.958675 43.307334 
L 308.253705 43.307334 
L 308.253705 42.294333 
L 310.659676 42.294333 
L 310.659676 41.281331 
L 311.288416 41.281331 
L 311.288416 40.268329 
L 312.60375 40.268329 
L 312.620543 38.242326 
L 321.420543 38.242326 
L 321.420543 37.229325 
L 324.298056 37.229325 
L 324.298056 36.216323 
L 324.926796 36.216323 
L 324.926796 35.203321 
L 326.24213 35.203321 
L 326.258922 33.177318 
L 329.667172 33.177318 
L 329.667172 32.164317 
L 330.504588 32.164317 
L 330.504588 31.151315 
L 332.044619 31.151315 
L 332.044619 30.138313 
L 332.595136 30.138313 
L 332.595136 29.125312 
L 332.882035 29.125312 
L 332.882035 28.11231 
L 333.432552 28.11231 
L 333.432552 27.099308 
L 333.724797 27.099308 
L 333.724797 26.086307 
L 334.562214 26.086307 
L 334.562214 25.073305 
L 352.701464 25.073305 
L 352.701464 24.060304 
L 353.109089 24.060304 
L 353.109089 23.047302 
L 355.486536 23.047302 
L 355.486536 22.0343 
L 356.037053 22.0343 
L 356.037053 21.021299 
L 357.166714 21.021299 
L 357.166714 20.008297 
L 453.192 20.008297 
L 453.192 20.008297 
" clip-path="url(#ped50519993)" style="fill: none; stroke: #bf00bf; stroke-width: 3; stroke-linecap: square"/>
   </g>
   <g id="line2d_22">
    <path clip-path="url(#ped50519993)" style="fill: none; stroke: #bf00bf; stroke-width: 3; stroke-linecap: square"/>
   </g>
   <g id="line2d_23">
    <path d="M 34.16 264.141687 
L 102.304788 264.141687 
L 102.304788 263.128685 
L 105.217802 263.128685 
L 105.217802 262.115683 
L 106.163208 262.115683 
L 106.163208 261.102682 
L 107.135879 261.102682 
L 107.135879 260.08968 
L 107.609176 260.08968 
L 107.609176 259.076679 
L 109.202302 259.076679 
L 109.202302 258.063677 
L 147.956634 258.063677 
L 147.956634 257.050675 
L 168.329517 257.050675 
L 168.329517 256.037674 
L 168.689435 256.037674 
L 168.689435 255.024672 
L 175.209125 255.024672 
L 175.209125 254.011671 
L 177.090785 254.011671 
L 177.090785 252.998669 
L 177.951083 252.998669 
L 177.951083 251.985667 
L 178.122139 251.985667 
L 178.122139 250.972666 
L 179.067545 250.972666 
L 179.067545 249.959664 
L 179.464777 249.959664 
L 179.464777 248.946662 
L 180.003799 248.946662 
L 180.040216 246.920659 
L 180.513514 246.920659 
L 180.513514 245.907658 
L 180.864097 245.907658 
L 180.949205 243.881654 
L 181.809503 243.881654 
L 181.809503 242.868653 
L 181.921876 242.868653 
L 181.921876 241.855651 
L 182.10664 241.855651 
L 182.10664 240.84265 
L 182.377791 240.84265 
L 182.395173 238.816646 
L 182.782174 238.816646 
L 182.782174 237.803645 
L 183.159704 237.803645 
L 183.255471 235.777641 
L 183.323197 235.777641 
L 183.323197 234.76464 
L 183.988299 234.76464 
L 183.988299 233.751638 
L 184.295868 233.751638 
L 184.295868 232.738637 
L 184.769165 232.738637 
L 184.848597 230.712633 
L 186.362291 230.712633 
L 186.362291 229.699632 
L 191.212604 229.699632 
L 191.212604 228.68663 
L 192.412724 228.68663 
L 192.412724 227.673629 
L 192.826273 227.673629 
L 192.826273 226.660627 
L 193.193041 226.660627 
L 193.193041 225.647625 
L 194.800509 225.647625 
L 194.800509 224.634624 
L 197.516119 224.634624 
L 197.627097 222.60862 
L 203.475208 222.60862 
L 203.475208 221.595619 
L 205.040987 221.595619 
L 205.040987 220.582617 
L 207.960479 220.582617 
L 207.960479 219.569616 
L 208.188195 219.569616 
L 208.188195 218.556614 
L 208.84686 218.556614 
L 208.84686 217.543612 
L 209.753974 217.543612 
L 209.753974 216.530611 
L 209.917112 216.530611 
L 209.917112 215.517609 
L 210.161893 215.517609 
L 210.161893 214.504607 
L 210.393831 214.504607 
L 210.393831 213.491606 
L 211.51904 213.491606 
L 211.51904 212.478604 
L 211.710075 212.478604 
L 211.710075 211.465603 
L 214.874881 211.465603 
L 214.935893 209.439599 
L 215.215143 209.439599 
L 215.215143 208.426598 
L 215.349442 208.426598 
L 215.349442 207.413596 
L 215.716211 207.413596 
L 215.716211 206.400595 
L 218.523798 206.400595 
L 218.523798 205.387593 
L 218.937347 205.387593 
L 218.937347 204.374591 
L 219.304115 204.374591 
L 219.304115 203.36159 
L 219.877141 203.36159 
L 219.877141 202.348588 
L 220.039288 202.348588 
L 220.039288 201.335586 
L 220.594202 201.335586 
L 220.594202 200.322585 
L 220.860972 200.322585 
L 220.860972 199.309583 
L 221.748919 199.309583 
L 221.748919 198.296582 
L 222.742631 198.296582 
L 222.742631 197.28358 
L 223.60293 197.28358 
L 223.627193 195.257577 
L 224.590128 195.257577 
L 224.590128 194.244575 
L 225.116624 194.244575 
L 225.116624 193.231574 
L 225.307189 193.231574 
L 225.307189 192.218572 
L 226.429034 192.218572 
L 226.461906 190.192569 
L 226.85832 190.192569 
L 226.85832 189.179567 
L 227.606722 189.179567 
L 227.606722 188.166565 
L 227.994813 188.166565 
L 227.994813 187.153564 
L 231.683768 187.153564 
L 231.683768 186.140562 
L 232.097317 186.140562 
L 232.097317 185.127561 
L 232.464086 185.127561 
L 232.464086 184.114559 
L 233.11572 184.114559 
L 233.11572 183.101557 
L 233.640401 183.101557 
L 233.640401 182.088556 
L 234.042209 182.088556 
L 234.053951 180.062553 
L 234.420719 180.062553 
L 234.476194 178.036549 
L 236.763653 178.036549 
L 236.787163 176.010546 
L 237.11387 176.010546 
L 237.11387 174.997544 
L 237.630114 174.997544 
L 237.738312 172.971541 
L 237.845748 172.971541 
L 237.845748 171.95854 
L 238.743796 171.95854 
L 238.743796 170.945538 
L 239.431025 170.945538 
L 239.455358 168.919535 
L 239.808063 168.919535 
L 239.808063 167.906533 
L 240.217499 167.906533 
L 240.27443 165.88053 
L 240.403856 165.88053 
L 240.403856 164.867528 
L 240.569303 164.867528 
L 240.569303 163.854527 
L 241.233855 163.854527 
L 241.326217 161.828523 
L 241.814402 161.828523 
L 241.814402 160.815522 
L 242.558735 160.815522 
L 242.558735 159.80252 
L 242.830967 159.80252 
L 242.830967 158.789519 
L 243.115514 158.789519 
L 243.115514 157.776517 
L 243.548028 157.776517 
L 243.548028 156.763515 
L 243.975812 156.763515 
L 243.975812 155.750514 
L 244.168345 155.750514 
L 244.168345 154.737512 
L 244.52105 154.737512 
L 244.52105 153.724511 
L 244.702745 153.724511 
L 244.702745 152.711509 
L 244.930487 152.711509 
L 244.987417 150.685506 
L 245.489506 150.685506 
L 245.489506 149.672504 
L 250.790084 149.672504 
L 250.790084 148.659502 
L 252.20045 148.659502 
L 252.20045 147.646501 
L 252.607768 147.646501 
L 252.607768 146.633499 
L 252.746717 146.633499 
L 252.746717 145.620498 
L 254.036889 145.620498 
L 254.036889 144.607496 
L 254.486187 144.607496 
L 254.486187 143.594494 
L 254.968305 143.594494 
L 254.968305 142.581493 
L 256.064041 142.581493 
L 256.064041 141.568491 
L 256.44282 141.568491 
L 256.44282 140.555489 
L 256.640896 140.555489 
L 256.640896 139.542488 
L 256.760035 139.542488 
L 256.760035 138.529486 
L 256.899149 138.529486 
L 256.999363 136.503483 
L 257.142697 136.503483 
L 257.142697 135.490481 
L 257.563556 135.490481 
L 257.563556 134.47748 
L 257.9457 134.47748 
L 257.9457 133.464478 
L 258.178475 133.464478 
L 258.178475 132.451477 
L 258.464928 132.451477 
L 258.500944 130.425473 
L 258.805999 130.425473 
L 258.805999 129.412472 
L 259.286823 129.412472 
L 259.286823 128.39947 
L 259.637039 128.39947 
L 259.637039 127.386468 
L 260.319693 127.386468 
L 260.319693 126.373467 
L 260.587268 126.373467 
L 260.587268 125.360465 
L 260.799574 125.360465 
L 260.799574 124.347464 
L 261.353883 124.347464 
L 261.353883 123.334462 
L 261.855684 123.334462 
L 261.954194 121.308459 
L 262.278867 121.308459 
L 262.278867 120.295457 
L 262.409184 120.295457 
L 262.409184 119.282456 
L 262.761889 119.282456 
L 262.761889 118.269454 
L 262.874728 118.269454 
L 262.891462 116.243451 
L 263.092473 116.243451 
L 263.171326 114.217447 
L 263.213932 114.217447 
L 263.228256 111.178443 
L 263.585835 111.178443 
L 263.585835 110.165441 
L 265.542099 110.165441 
L 265.542099 109.152439 
L 266.680377 109.152439 
L 266.680377 108.139438 
L 268.911861 108.139438 
L 268.911861 107.126436 
L 270.414716 107.126436 
L 270.414716 106.113435 
L 270.531434 106.113435 
L 270.531434 105.100433 
L 271.980495 105.100433 
L 271.980495 104.087431 
L 272.413094 104.087431 
L 272.413094 103.07443 
L 273.273392 103.07443 
L 273.301083 101.048426 
L 273.747238 101.048426 
L 273.747238 100.035425 
L 274.018143 100.035425 
L 274.018143 99.022423 
L 274.787086 99.022423 
L 274.787086 98.009422 
L 275.130937 98.009422 
L 275.172861 95.983418 
L 275.703871 95.983418 
L 275.703871 94.970417 
L 276.034698 94.970417 
L 276.034698 93.957415 
L 276.384914 93.957415 
L 276.384914 92.944414 
L 276.560058 92.944414 
L 276.560058 91.931412 
L 277.101401 91.931412 
L 277.101401 90.91841 
L 277.427112 90.91841 
L 277.491474 88.892407 
L 277.991331 88.892407 
L 277.991331 87.879405 
L 278.175515 87.879405 
L 278.175515 86.866404 
L 278.341547 86.866404 
L 278.341547 85.853402 
L 278.702069 85.853402 
L 278.718842 83.827399 
L 279.594722 83.827399 
L 279.594722 82.814397 
L 279.840348 82.814397 
L 279.840348 81.801396 
L 280.096523 81.801396 
L 280.164668 78.762391 
L 280.658702 78.762391 
L 280.658702 77.749389 
L 281.079379 77.749389 
L 281.132301 75.723386 
L 281.454771 75.723386 
L 281.454771 74.710384 
L 281.751198 74.710384 
L 281.796981 72.684381 
L 283.298169 72.684381 
L 283.298169 71.67138 
L 283.632857 71.67138 
L 283.632857 70.658378 
L 284.493156 70.658378 
L 284.493156 69.645376 
L 285.179828 69.645376 
L 285.179828 68.632375 
L 286.00685 68.632375 
L 286.040127 66.606371 
L 286.816649 66.606371 
L 286.816649 65.59337 
L 287.53371 65.59337 
L 287.553821 63.567367 
L 288.688427 63.567367 
L 288.688427 62.554365 
L 290.972648 62.554365 
L 290.972648 61.541363 
L 291.269689 61.541363 
L 291.269689 60.528362 
L 291.878812 60.528362 
L 291.878812 59.51536 
L 292.383195 59.51536 
L 292.383195 58.502359 
L 292.879299 58.502359 
L 292.879299 57.489357 
L 293.232005 57.489357 
L 293.307933 55.463354 
L 293.641441 55.463354 
L 293.698371 53.43735 
L 293.835446 53.43735 
L 293.835446 52.424349 
L 294.239349 52.424349 
L 294.239349 51.411347 
L 295.264566 51.411347 
L 295.264566 50.398346 
L 296.195983 50.398346 
L 296.195983 49.385344 
L 300.883294 49.385344 
L 300.883294 48.372342 
L 302.769242 48.372342 
L 302.769242 47.359341 
L 304.785256 47.359341 
L 304.785256 46.346339 
L 306.394866 46.346339 
L 306.394866 45.333338 
L 306.747571 45.333338 
L 306.747571 44.320336 
L 307.157007 44.320336 
L 307.213938 42.294333 
L 310.064837 42.294333 
L 310.064837 41.281331 
L 310.566638 41.281331 
L 310.566638 40.268329 
L 311.602417 40.268329 
L 311.602417 39.255328 
L 311.924886 39.255328 
L 311.924886 38.242326 
L 319.480654 38.242326 
L 319.480654 37.229325 
L 323.580404 37.229325 
L 323.580404 36.216323 
L 324.082205 36.216323 
L 324.082205 35.203321 
L 325.117983 35.203321 
L 325.117983 34.19032 
L 325.440452 34.19032 
L 325.440452 33.177318 
L 329.664372 33.177318 
L 329.664372 32.164317 
L 330.467894 32.164317 
L 330.467894 31.151315 
L 331.546032 31.151315 
L 331.546032 30.138313 
L 332.349553 30.138313 
L 332.40633 28.11231 
L 333.209852 28.11231 
L 333.209852 27.099308 
L 333.920024 27.099308 
L 333.920024 26.086307 
L 334.723546 26.086307 
L 334.723546 25.073305 
L 351.452087 25.073305 
L 351.452087 24.060304 
L 353.069006 24.060304 
L 353.069006 23.047302 
L 354.950665 23.047302 
L 354.950665 22.0343 
L 355.810964 22.0343 
L 355.810964 21.021299 
L 357.324658 21.021299 
L 357.324658 20.008297 
L 453.192 20.008297 
L 453.192 20.008297 
" clip-path="url(#ped50519993)" style="fill: none; stroke: #ff0000; stroke-width: 3; stroke-linecap: square"/>
   </g>
   <g id="line2d_24">
    <path clip-path="url(#ped50519993)" style="fill: none; stroke: #ff0000; stroke-width: 3; stroke-linecap: square"/>
   </g>
   <g id="line2d_25">
    <path d="M 243.676 291.28 
L 243.676 3 
" clip-path="url(#ped50519993)" style="fill: none; stroke: #000000; stroke-width: 1.5; stroke-linecap: square"/>
   </g>
   <g id="line2d_26">
    <path d="M 34.16 147.14 
L 453.192 147.14 
" clip-path="url(#ped50519993)" style="fill: none; stroke-dasharray: 2,3.3; stroke-dashoffset: 0; stroke: #000000; stroke-width: 2"/>
   </g>
   <g id="patch_3">
    <path d="M 34.16 291.28 
L 34.16 3 
" style="fill: none; stroke: #000000; stroke-width: 0.8; stroke-linejoin: miter; stroke-linecap: square"/>
   </g>
   <g id="patch_4">
    <path d="M 453.192 291.28 
L 453.192 3 
" style="fill: none; stroke: #000000; stroke-width: 0.8; stroke-linejoin: miter; stroke-linecap: square"/>
   </g>
   <g id="patch_5">
    <path d="M 34.16 291.28 
L 453.192 291.28 
" style="fill: none; stroke: #000000; stroke-width: 0.8; stroke-linejoin: miter; stroke-linecap: square"/>
   </g>
   <g id="patch_6">
    <path d="M 34.16 3 
L 453.192 3 
" style="fill: none; stroke: #000000; stroke-width: 0.8; stroke-linejoin: miter; stroke-linecap: square"/>
   </g>
   <g id="text_6">
    <!-- f20-f24,5-D -->
    <g transform="translate(330.91761 285.5144)scale(0.2 -0.2)">
     <defs>
      <path id="DejaVuSans-34" d="M 2419 4116 
L 825 1625 
L 2419 1625 
L 2419 4116 
z
M 2253 4666 
L 3047 4666 
L 3047 1625 
L 3713 1625 
L 3713 1100 
L 3047 1100 
L 3047 0 
L 2419 0 
L 2419 1100 
L 313 1100 
L 313 1709 
L 2253 4666 
z
" transform="scale(0.015625)"/>
      <path id="DejaVuSans-2c" d="M 750 794 
L 1409 794 
L 1409 256 
L 897 -744 
L 494 -744 
L 750 256 
L 750 794 
z
" transform="scale(0.015625)"/>
      <path id="DejaVuSans-35" d="M 691 4666 
L 3169 4666 
L 3169 4134 
L 1269 4134 
L 1269 2991 
Q 1406 3038 1543 3061 
Q 1681 3084 1819 3084 
Q 2600 3084 3056 2656 
Q 3513 2228 3513 1497 
Q 3513 744 3044 326 
Q 2575 -91 1722 -91 
Q 1428 -91 1123 -41 
Q 819 9 494 109 
L 494 744 
Q 775 591 1075 516 
Q 1375 441 1709 441 
Q 2250 441 2565 725 
Q 2881 1009 2881 1497 
Q 2881 1984 2565 2268 
Q 2250 2553 1709 2553 
Q 1456 2553 1204 2497 
Q 953 2441 691 2322 
L 691 4666 
z
" transform="scale(0.015625)"/>
      <path id="DejaVuSans-44" d="M 1259 4147 
L 1259 519 
L 2022 519 
Q 2988 519 3436 956 
Q 3884 1394 3884 2338 
Q 3884 3275 3436 3711 
Q 2988 4147 2022 4147 
L 1259 4147 
z
M 628 4666 
L 1925 4666 
Q 3281 4666 3915 4102 
Q 4550 3538 4550 2338 
Q 4550 1131 3912 565 
Q 3275 0 1925 0 
L 628 0 
L 628 4666 
z
" transform="scale(0.015625)"/>
     </defs>
     <use xlink:href="#DejaVuSans-66"/>
     <use xlink:href="#DejaVuSans-32" x="35.205078"/>
     <use xlink:href="#DejaVuSans-30" x="98.828125"/>
     <use xlink:href="#DejaVuSans-2d" x="162.451172"/>
     <use xlink:href="#DejaVuSans-66" x="198.535156"/>
     <use xlink:href="#DejaVuSans-32" x="233.740234"/>
     <use xlink:href="#DejaVuSans-34" x="297.363281"/>
     <use xlink:href="#DejaVuSans-2c" x="360.986328"/>
     <use xlink:href="#DejaVuSans-35" x="392.773438"/>
     <use xlink:href="#DejaVuSans-2d" x="456.396484"/>
     <use xlink:href="#DejaVuSans-44" x="492.480469"/>
    </g>
   </g>
   <g id="text_7">
    <!-- v2.6.1.158 -->
    <g style="fill: #808080" transform="translate(216.861937 286.317512)scale(0.1 -0.1)">
     <defs>
      <path id="DejaVuSans-2e" d="M 684 794 
L 1344 794 
L 1344 0 
L 684 0 
L 684 794 
z
" transform="scale(0.015625)"/>
      <path id="DejaVuSans-36" d="M 2113 2584 
Q 1688 2584 1439 2293 
Q 1191 2003 1191 1497 
Q 1191 994 1439 701 
Q 1688 409 2113 409 
Q 2538 409 2786 701 
Q 3034 994 3034 1497 
Q 3034 2003 2786 2293 
Q 2538 2584 2113 2584 
z
M 3366 4563 
L 3366 3988 
Q 3128 4100 2886 4159 
Q 2644 4219 2406 4219 
Q 1781 4219 1451 3797 
Q 1122 3375 1075 2522 
Q 1259 2794 1537 2939 
Q 1816 3084 2150 3084 
Q 2853 3084 3261 2657 
Q 3669 2231 3669 1497 
Q 3669 778 3244 343 
Q 2819 -91 2113 -91 
Q 1303 -91 875 529 
Q 447 1150 447 2328 
Q 447 3434 972 4092 
Q 1497 4750 2381 4750 
Q 2619 4750 2861 4703 
Q 3103 4656 3366 4563 
z
" transform="scale(0.015625)"/>
      <path id="DejaVuSans-38" d="M 2034 2216 
Q 1584 2216 1326 1975 
Q 1069 1734 1069 1313 
Q 1069 891 1326 650 
Q 1584 409 2034 409 
Q 2484 409 2743 651 
Q 3003 894 3003 1313 
Q 3003 1734 2745 1975 
Q 2488 2216 2034 2216 
z
M 1403 2484 
Q 997 2584 770 2862 
Q 544 3141 544 3541 
Q 544 4100 942 4425 
Q 1341 4750 2034 4750 
Q 2731 4750 3128 4425 
Q 3525 4100 3525 3541 
Q 3525 3141 3298 2862 
Q 3072 2584 2669 2484 
Q 3125 2378 3379 2068 
Q 3634 1759 3634 1313 
Q 3634 634 3220 271 
Q 2806 -91 2034 -91 
Q 1263 -91 848 271 
Q 434 634 434 1313 
Q 434 1759 690 2068 
Q 947 2378 1403 2484 
z
M 1172 3481 
Q 1172 3119 1398 2916 
Q 1625 2713 2034 2713 
Q 2441 2713 2670 2916 
Q 2900 3119 2900 3481 
Q 2900 3844 2670 4047 
Q 2441 4250 2034 4250 
Q 1625 4250 1398 4047 
Q 1172 3844 1172 3481 
z
" transform="scale(0.015625)"/>
     </defs>
     <use xlink:href="#DejaVuSans-76"/>
     <use xlink:href="#DejaVuSans-32" x="59.179688"/>
     <use xlink:href="#DejaVuSans-2e" x="122.802734"/>
     <use xlink:href="#DejaVuSans-36" x="154.589844"/>
     <use xlink:href="#DejaVuSans-2e" x="218.212891"/>
     <use xlink:href="#DejaVuSans-31" x="250"/>
     <use xlink:href="#DejaVuSans-2e" x="313.623047"/>
     <use xlink:href="#DejaVuSans-31" x="345.410156"/>
     <use xlink:href="#DejaVuSans-35" x="409.033203"/>
     <use xlink:href="#DejaVuSans-38" x="472.65625"/>
    </g>
   </g>
   <g id="legend_1">
    <g id="patch_7">
     <path d="M 48.16 136.425 
L 177.381875 136.425 
Q 181.381875 136.425 181.381875 132.425 
L 181.381875 17 
Q 181.381875 13 177.381875 13 
L 48.16 13 
Q 44.16 13 44.16 17 
L 44.16 132.425 
Q 44.16 136.425 48.16 136.425 
z
" style="fill: #ffffff; opacity: 0.2; stroke: #cccccc; stroke-linejoin: miter"/>
    </g>
    <g id="line2d_27">
     <path d="M 52.16 29.196875 
L 72.16 29.196875 
L 92.16 29.196875 
" style="fill: none; stroke: #000000; stroke-width: 3; stroke-linecap: square"/>
    </g>
    <g id="text_8">
     <!-- 1: 5/5 -->
     <g transform="translate(108.16 36.196875)scale(0.2 -0.2)">
      <defs>
       <path id="DejaVuSans-3a" d="M 750 794 
L 1409 794 
L 1409 0 
L 750 0 
L 750 794 
z
M 750 3309 
L 1409 3309 
L 1409 2516 
L 750 2516 
L 750 3309 
z
" transform="scale(0.015625)"/>
       <path id="DejaVuSans-2f" d="M 1625 4666 
L 2156 4666 
L 531 -594 
L 0 -594 
L 1625 4666 
z
" transform="scale(0.015625)"/>
      </defs>
      <use xlink:href="#DejaVuSans-31"/>
      <use xlink:href="#DejaVuSans-3a" x="63.623047"/>
      <use xlink:href="#DejaVuSans-20" x="97.314453"/>
      <use xlink:href="#DejaVuSans-35" x="129.101562"/>
      <use xlink:href="#DejaVuSans-2f" x="192.724609"/>
      <use xlink:href="#DejaVuSans-35" x="226.416016"/>
     </g>
    </g>
    <g id="line2d_28">
     <path d="M 52.16 58.553125 
L 72.16 58.553125 
L 92.16 58.553125 
" style="fill: none; stroke: #00bfbf; stroke-width: 3; stroke-linecap: square"/>
    </g>
    <g id="text_9">
     <!-- -1: 5/4 -->
     <g transform="translate(108.16 65.553125)scale(0.2 -0.2)">
      <use xlink:href="#DejaVuSans-2d"/>
      <use xlink:href="#DejaVuSans-31" x="36.083984"/>
      <use xlink:href="#DejaVuSans-3a" x="99.707031"/>
      <use xlink:href="#DejaVuSans-20" x="133.398438"/>
      <use xlink:href="#DejaVuSans-35" x="165.185547"/>
      <use xlink:href="#DejaVuSans-2f" x="228.808594"/>
      <use xlink:href="#DejaVuSans-34" x="262.5"/>
     </g>
    </g>
    <g id="line2d_29">
     <path d="M 52.16 87.909375 
L 72.16 87.909375 
L 92.16 87.909375 
" style="fill: none; stroke: #bf00bf; stroke-width: 3; stroke-linecap: square"/>
    </g>
    <g id="text_10">
     <!-- -4: 4/4 -->
     <g transform="translate(108.16 94.909375)scale(0.2 -0.2)">
      <use xlink:href="#DejaVuSans-2d"/>
      <use xlink:href="#DejaVuSans-34" x="36.083984"/>
      <use xlink:href="#DejaVuSans-3a" x="99.707031"/>
      <use xlink:href="#DejaVuSans-20" x="133.398438"/>
      <use xlink:href="#DejaVuSans-34" x="165.185547"/>
      <use xlink:href="#DejaVuSans-2f" x="228.808594"/>
      <use xlink:href="#DejaVuSans-34" x="262.5"/>
     </g>
    </g>
    <g id="line2d_30">
     <path d="M 52.16 117.265625 
L 72.16 117.265625 
L 92.16 117.265625 
" style="fill: none; stroke: #ff0000; stroke-width: 3; stroke-linecap: square"/>
    </g>
    <g id="text_11">
     <!-- -8: 4/4 -->
     <g transform="translate(108.16 124.265625)scale(0.2 -0.2)">
      <use xlink:href="#DejaVuSans-2d"/>
      <use xlink:href="#DejaVuSans-38" x="36.083984"/>
      <use xlink:href="#DejaVuSans-3a" x="99.707031"/>
      <use xlink:href="#DejaVuSans-20" x="133.398438"/>
      <use xlink:href="#DejaVuSans-34" x="165.185547"/>
      <use xlink:href="#DejaVuSans-2f" x="228.808594"/>
      <use xlink:href="#DejaVuSans-34" x="262.5"/>
     </g>
    </g>
   </g>
  </g>
 </g>
 <defs>
  <clipPath id="ped50519993">
   <rect x="34.16" y="3" width="419.032" height="288.28"/>
  </clipPath>
 </defs>
</svg>
