<?xml version="1.0" encoding="utf-8" standalone="no"?>
<!DOCTYPE svg PUBLIC "-//W3C//DTD SVG 1.1//EN"
  "http://www.w3.org/Graphics/SVG/1.1/DTD/svg11.dtd">
<svg xmlns:xlink="http://www.w3.org/1999/xlink" width="460.8pt" height="345.6pt" viewBox="0 0 460.8 345.6" xmlns="http://www.w3.org/2000/svg" version="1.1">
 <metadata>
  <rdf:RDF xmlns:dc="http://purl.org/dc/elements/1.1/" xmlns:cc="http://creativecommons.org/ns#" xmlns:rdf="http://www.w3.org/1999/02/22-rdf-syntax-ns#">
   <cc:Work>
    <dc:type rdf:resource="http://purl.org/dc/dcmitype/StillImage"/>
    <dc:date>2023-04-03T10:24:54.196883</dc:date>
    <dc:format>image/svg+xml</dc:format>
    <dc:creator>
     <cc:Agent>
      <dc:title>Matplotlib v3.5.2, https://matplotlib.org/</dc:title>
     </cc:Agent>
    </dc:creator>
   </cc:Work>
  </rdf:RDF>
 </metadata>
 <defs>
  <style type="text/css">*{stroke-linejoin: round; stroke-linecap: butt}</style>
 </defs>
 <g id="figure_1">
  <g id="patch_1">
   <path d="M 0 345.6 
L 460.8 345.6 
L 460.8 0 
L 0 0 
z
" style="fill: #ffffff"/>
  </g>
  <g id="axes_1">
   <g id="patch_2">
    <path d="M 34.16 291.28 
L 453.192 291.28 
L 453.192 3 
L 34.16 3 
z
" style="fill: #ffffff"/>
   </g>
   <g id="matplotlib.axis_1">
    <g id="xtick_1">
     <g id="line2d_1">
      <path d="M 139.772105 291.28 
L 139.772105 3 
" clip-path="url(#p97fd6dd921)" style="fill: none; stroke: #b0b0b0; stroke-width: 0.8; stroke-linecap: square"/>
     </g>
     <g id="line2d_2">
      <defs>
       <path id="m315a1e2aad" d="M 0 0 
L 0 3.5 
" style="stroke: #000000; stroke-width: 0.8"/>
      </defs>
      <g>
       <use xlink:href="#m315a1e2aad" x="139.772105" y="291.28" style="stroke: #000000; stroke-width: 0.8"/>
      </g>
     </g>
     <g id="text_1">
      <!-- -1 -->
      <g transform="translate(129.801793 313.476875)scale(0.2 -0.2)">
       <defs>
        <path id="DejaVuSans-2d" d="M 313 2009 
L 1997 2009 
L 1997 1497 
L 313 1497 
L 313 2009 
z
" transform="scale(0.015625)"/>
        <path id="DejaVuSans-31" d="M 794 531 
L 1825 531 
L 1825 4091 
L 703 3866 
L 703 4441 
L 1819 4666 
L 2450 4666 
L 2450 531 
L 3481 531 
L 3481 0 
L 794 0 
L 794 531 
z
" transform="scale(0.015625)"/>
       </defs>
       <use xlink:href="#DejaVuSans-2d"/>
       <use xlink:href="#DejaVuSans-31" x="36.083984"/>
      </g>
     </g>
    </g>
    <g id="xtick_2">
     <g id="line2d_3">
      <path d="M 347.579895 291.28 
L 347.579895 3 
" clip-path="url(#p97fd6dd921)" style="fill: none; stroke: #b0b0b0; stroke-width: 0.8; stroke-linecap: square"/>
     </g>
     <g id="line2d_4">
      <g>
       <use xlink:href="#m315a1e2aad" x="347.579895" y="291.28" style="stroke: #000000; stroke-width: 0.8"/>
      </g>
     </g>
     <g id="text_2">
      <!-- 1 -->
      <g transform="translate(341.217395 313.476875)scale(0.2 -0.2)">
       <use xlink:href="#DejaVuSans-31"/>
      </g>
     </g>
    </g>
    <g id="xtick_3">
     <g id="line2d_5">
      <defs>
       <path id="ma147814efa" d="M 0 0 
L 0 2 
" style="stroke: #000000; stroke-width: 0.6"/>
      </defs>
      <g>
       <use xlink:href="#ma147814efa" x="67.1464" y="291.28" style="stroke: #000000; stroke-width: 0.6"/>
      </g>
     </g>
    </g>
    <g id="xtick_4">
     <g id="line2d_6">
      <g>
       <use xlink:href="#ma147814efa" x="85.442967" y="291.28" style="stroke: #000000; stroke-width: 0.6"/>
      </g>
     </g>
    </g>
    <g id="xtick_5">
     <g id="line2d_7">
      <g>
       <use xlink:href="#ma147814efa" x="98.424589" y="291.28" style="stroke: #000000; stroke-width: 0.6"/>
      </g>
     </g>
    </g>
    <g id="xtick_6">
     <g id="line2d_8">
      <g>
       <use xlink:href="#ma147814efa" x="108.493916" y="291.28" style="stroke: #000000; stroke-width: 0.6"/>
      </g>
     </g>
    </g>
    <g id="xtick_7">
     <g id="line2d_9">
      <g>
       <use xlink:href="#ma147814efa" x="116.721156" y="291.28" style="stroke: #000000; stroke-width: 0.6"/>
      </g>
     </g>
    </g>
    <g id="xtick_8">
     <g id="line2d_10">
      <g>
       <use xlink:href="#ma147814efa" x="123.677188" y="291.28" style="stroke: #000000; stroke-width: 0.6"/>
      </g>
     </g>
    </g>
    <g id="xtick_9">
     <g id="line2d_11">
      <g>
       <use xlink:href="#ma147814efa" x="129.702778" y="291.28" style="stroke: #000000; stroke-width: 0.6"/>
      </g>
     </g>
    </g>
    <g id="xtick_10">
     <g id="line2d_12">
      <g>
       <use xlink:href="#ma147814efa" x="135.017724" y="291.28" style="stroke: #000000; stroke-width: 0.6"/>
      </g>
     </g>
    </g>
    <g id="xtick_11">
     <g id="line2d_13">
      <g>
       <use xlink:href="#ma147814efa" x="171.050294" y="291.28" style="stroke: #000000; stroke-width: 0.6"/>
      </g>
     </g>
    </g>
    <g id="xtick_12">
     <g id="line2d_14">
      <g>
       <use xlink:href="#ma147814efa" x="189.346862" y="291.28" style="stroke: #000000; stroke-width: 0.6"/>
      </g>
     </g>
    </g>
    <g id="xtick_13">
     <g id="line2d_15">
      <g>
       <use xlink:href="#ma147814efa" x="202.328483" y="291.28" style="stroke: #000000; stroke-width: 0.6"/>
      </g>
     </g>
    </g>
    <g id="xtick_14">
     <g id="line2d_16">
      <g>
       <use xlink:href="#ma147814efa" x="212.397811" y="291.28" style="stroke: #000000; stroke-width: 0.6"/>
      </g>
     </g>
    </g>
    <g id="xtick_15">
     <g id="line2d_17">
      <g>
       <use xlink:href="#ma147814efa" x="220.625051" y="291.28" style="stroke: #000000; stroke-width: 0.6"/>
      </g>
     </g>
    </g>
    <g id="xtick_16">
     <g id="line2d_18">
      <g>
       <use xlink:href="#ma147814efa" x="227.581083" y="291.28" style="stroke: #000000; stroke-width: 0.6"/>
      </g>
     </g>
    </g>
    <g id="xtick_17">
     <g id="line2d_19">
      <g>
       <use xlink:href="#ma147814efa" x="233.606672" y="291.28" style="stroke: #000000; stroke-width: 0.6"/>
      </g>
     </g>
    </g>
    <g id="xtick_18">
     <g id="line2d_20">
      <g>
       <use xlink:href="#ma147814efa" x="238.921619" y="291.28" style="stroke: #000000; stroke-width: 0.6"/>
      </g>
     </g>
    </g>
    <g id="xtick_19">
     <g id="line2d_21">
      <g>
       <use xlink:href="#ma147814efa" x="274.954189" y="291.28" style="stroke: #000000; stroke-width: 0.6"/>
      </g>
     </g>
    </g>
    <g id="xtick_20">
     <g id="line2d_22">
      <g>
       <use xlink:href="#ma147814efa" x="293.250757" y="291.28" style="stroke: #000000; stroke-width: 0.6"/>
      </g>
     </g>
    </g>
    <g id="xtick_21">
     <g id="line2d_23">
      <g>
       <use xlink:href="#ma147814efa" x="306.232378" y="291.28" style="stroke: #000000; stroke-width: 0.6"/>
      </g>
     </g>
    </g>
    <g id="xtick_22">
     <g id="line2d_24">
      <g>
       <use xlink:href="#ma147814efa" x="316.301706" y="291.28" style="stroke: #000000; stroke-width: 0.6"/>
      </g>
     </g>
    </g>
    <g id="xtick_23">
     <g id="line2d_25">
      <g>
       <use xlink:href="#ma147814efa" x="324.528946" y="291.28" style="stroke: #000000; stroke-width: 0.6"/>
      </g>
     </g>
    </g>
    <g id="xtick_24">
     <g id="line2d_26">
      <g>
       <use xlink:href="#ma147814efa" x="331.484978" y="291.28" style="stroke: #000000; stroke-width: 0.6"/>
      </g>
     </g>
    </g>
    <g id="xtick_25">
     <g id="line2d_27">
      <g>
       <use xlink:href="#ma147814efa" x="337.510567" y="291.28" style="stroke: #000000; stroke-width: 0.6"/>
      </g>
     </g>
    </g>
    <g id="xtick_26">
     <g id="line2d_28">
      <g>
       <use xlink:href="#ma147814efa" x="342.825513" y="291.28" style="stroke: #000000; stroke-width: 0.6"/>
      </g>
     </g>
    </g>
    <g id="xtick_27">
     <g id="line2d_29">
      <g>
       <use xlink:href="#ma147814efa" x="378.858084" y="291.28" style="stroke: #000000; stroke-width: 0.6"/>
      </g>
     </g>
    </g>
    <g id="xtick_28">
     <g id="line2d_30">
      <g>
       <use xlink:href="#ma147814efa" x="397.154651" y="291.28" style="stroke: #000000; stroke-width: 0.6"/>
      </g>
     </g>
    </g>
    <g id="xtick_29">
     <g id="line2d_31">
      <g>
       <use xlink:href="#ma147814efa" x="410.136273" y="291.28" style="stroke: #000000; stroke-width: 0.6"/>
      </g>
     </g>
    </g>
    <g id="xtick_30">
     <g id="line2d_32">
      <g>
       <use xlink:href="#ma147814efa" x="420.2056" y="291.28" style="stroke: #000000; stroke-width: 0.6"/>
      </g>
     </g>
    </g>
    <g id="xtick_31">
     <g id="line2d_33">
      <g>
       <use xlink:href="#ma147814efa" x="428.43284" y="291.28" style="stroke: #000000; stroke-width: 0.6"/>
      </g>
     </g>
    </g>
    <g id="xtick_32">
     <g id="line2d_34">
      <g>
       <use xlink:href="#ma147814efa" x="435.388872" y="291.28" style="stroke: #000000; stroke-width: 0.6"/>
      </g>
     </g>
    </g>
    <g id="xtick_33">
     <g id="line2d_35">
      <g>
       <use xlink:href="#ma147814efa" x="441.414462" y="291.28" style="stroke: #000000; stroke-width: 0.6"/>
      </g>
     </g>
    </g>
    <g id="xtick_34">
     <g id="line2d_36">
      <g>
       <use xlink:href="#ma147814efa" x="446.729408" y="291.28" style="stroke: #000000; stroke-width: 0.6"/>
      </g>
     </g>
    </g>
    <g id="text_3">
     <!-- log10 of FEvals ratio -->
     <g transform="translate(141.371312 336.833125)scale(0.2 -0.2)">
      <defs>
       <path id="DejaVuSans-6c" d="M 603 4863 
L 1178 4863 
L 1178 0 
L 603 0 
L 603 4863 
z
" transform="scale(0.015625)"/>
       <path id="DejaVuSans-6f" d="M 1959 3097 
Q 1497 3097 1228 2736 
Q 959 2375 959 1747 
Q 959 1119 1226 758 
Q 1494 397 1959 397 
Q 2419 397 2687 759 
Q 2956 1122 2956 1747 
Q 2956 2369 2687 2733 
Q 2419 3097 1959 3097 
z
M 1959 3584 
Q 2709 3584 3137 3096 
Q 3566 2609 3566 1747 
Q 3566 888 3137 398 
Q 2709 -91 1959 -91 
Q 1206 -91 779 398 
Q 353 888 353 1747 
Q 353 2609 779 3096 
Q 1206 3584 1959 3584 
z
" transform="scale(0.015625)"/>
       <path id="DejaVuSans-67" d="M 2906 1791 
Q 2906 2416 2648 2759 
Q 2391 3103 1925 3103 
Q 1463 3103 1205 2759 
Q 947 2416 947 1791 
Q 947 1169 1205 825 
Q 1463 481 1925 481 
Q 2391 481 2648 825 
Q 2906 1169 2906 1791 
z
M 3481 434 
Q 3481 -459 3084 -895 
Q 2688 -1331 1869 -1331 
Q 1566 -1331 1297 -1286 
Q 1028 -1241 775 -1147 
L 775 -588 
Q 1028 -725 1275 -790 
Q 1522 -856 1778 -856 
Q 2344 -856 2625 -561 
Q 2906 -266 2906 331 
L 2906 616 
Q 2728 306 2450 153 
Q 2172 0 1784 0 
Q 1141 0 747 490 
Q 353 981 353 1791 
Q 353 2603 747 3093 
Q 1141 3584 1784 3584 
Q 2172 3584 2450 3431 
Q 2728 3278 2906 2969 
L 2906 3500 
L 3481 3500 
L 3481 434 
z
" transform="scale(0.015625)"/>
       <path id="DejaVuSans-30" d="M 2034 4250 
Q 1547 4250 1301 3770 
Q 1056 3291 1056 2328 
Q 1056 1369 1301 889 
Q 1547 409 2034 409 
Q 2525 409 2770 889 
Q 3016 1369 3016 2328 
Q 3016 3291 2770 3770 
Q 2525 4250 2034 4250 
z
M 2034 4750 
Q 2819 4750 3233 4129 
Q 3647 3509 3647 2328 
Q 3647 1150 3233 529 
Q 2819 -91 2034 -91 
Q 1250 -91 836 529 
Q 422 1150 422 2328 
Q 422 3509 836 4129 
Q 1250 4750 2034 4750 
z
" transform="scale(0.015625)"/>
       <path id="DejaVuSans-20" transform="scale(0.015625)"/>
       <path id="DejaVuSans-66" d="M 2375 4863 
L 2375 4384 
L 1825 4384 
Q 1516 4384 1395 4259 
Q 1275 4134 1275 3809 
L 1275 3500 
L 2222 3500 
L 2222 3053 
L 1275 3053 
L 1275 0 
L 697 0 
L 697 3053 
L 147 3053 
L 147 3500 
L 697 3500 
L 697 3744 
Q 697 4328 969 4595 
Q 1241 4863 1831 4863 
L 2375 4863 
z
" transform="scale(0.015625)"/>
       <path id="DejaVuSans-46" d="M 628 4666 
L 3309 4666 
L 3309 4134 
L 1259 4134 
L 1259 2759 
L 3109 2759 
L 3109 2228 
L 1259 2228 
L 1259 0 
L 628 0 
L 628 4666 
z
" transform="scale(0.015625)"/>
       <path id="DejaVuSans-45" d="M 628 4666 
L 3578 4666 
L 3578 4134 
L 1259 4134 
L 1259 2753 
L 3481 2753 
L 3481 2222 
L 1259 2222 
L 1259 531 
L 3634 531 
L 3634 0 
L 628 0 
L 628 4666 
z
" transform="scale(0.015625)"/>
       <path id="DejaVuSans-76" d="M 191 3500 
L 800 3500 
L 1894 563 
L 2988 3500 
L 3597 3500 
L 2284 0 
L 1503 0 
L 191 3500 
z
" transform="scale(0.015625)"/>
       <path id="DejaVuSans-61" d="M 2194 1759 
Q 1497 1759 1228 1600 
Q 959 1441 959 1056 
Q 959 750 1161 570 
Q 1363 391 1709 391 
Q 2188 391 2477 730 
Q 2766 1069 2766 1631 
L 2766 1759 
L 2194 1759 
z
M 3341 1997 
L 3341 0 
L 2766 0 
L 2766 531 
Q 2569 213 2275 61 
Q 1981 -91 1556 -91 
Q 1019 -91 701 211 
Q 384 513 384 1019 
Q 384 1609 779 1909 
Q 1175 2209 1959 2209 
L 2766 2209 
L 2766 2266 
Q 2766 2663 2505 2880 
Q 2244 3097 1772 3097 
Q 1472 3097 1187 3025 
Q 903 2953 641 2809 
L 641 3341 
Q 956 3463 1253 3523 
Q 1550 3584 1831 3584 
Q 2591 3584 2966 3190 
Q 3341 2797 3341 1997 
z
" transform="scale(0.015625)"/>
       <path id="DejaVuSans-73" d="M 2834 3397 
L 2834 2853 
Q 2591 2978 2328 3040 
Q 2066 3103 1784 3103 
Q 1356 3103 1142 2972 
Q 928 2841 928 2578 
Q 928 2378 1081 2264 
Q 1234 2150 1697 2047 
L 1894 2003 
Q 2506 1872 2764 1633 
Q 3022 1394 3022 966 
Q 3022 478 2636 193 
Q 2250 -91 1575 -91 
Q 1294 -91 989 -36 
Q 684 19 347 128 
L 347 722 
Q 666 556 975 473 
Q 1284 391 1588 391 
Q 1994 391 2212 530 
Q 2431 669 2431 922 
Q 2431 1156 2273 1281 
Q 2116 1406 1581 1522 
L 1381 1569 
Q 847 1681 609 1914 
Q 372 2147 372 2553 
Q 372 3047 722 3315 
Q 1072 3584 1716 3584 
Q 2034 3584 2315 3537 
Q 2597 3491 2834 3397 
z
" transform="scale(0.015625)"/>
       <path id="DejaVuSans-72" d="M 2631 2963 
Q 2534 3019 2420 3045 
Q 2306 3072 2169 3072 
Q 1681 3072 1420 2755 
Q 1159 2438 1159 1844 
L 1159 0 
L 581 0 
L 581 3500 
L 1159 3500 
L 1159 2956 
Q 1341 3275 1631 3429 
Q 1922 3584 2338 3584 
Q 2397 3584 2469 3576 
Q 2541 3569 2628 3553 
L 2631 2963 
z
" transform="scale(0.015625)"/>
       <path id="DejaVuSans-74" d="M 1172 4494 
L 1172 3500 
L 2356 3500 
L 2356 3053 
L 1172 3053 
L 1172 1153 
Q 1172 725 1289 603 
Q 1406 481 1766 481 
L 2356 481 
L 2356 0 
L 1766 0 
Q 1100 0 847 248 
Q 594 497 594 1153 
L 594 3053 
L 172 3053 
L 172 3500 
L 594 3500 
L 594 4494 
L 1172 4494 
z
" transform="scale(0.015625)"/>
       <path id="DejaVuSans-69" d="M 603 3500 
L 1178 3500 
L 1178 0 
L 603 0 
L 603 3500 
z
M 603 4863 
L 1178 4863 
L 1178 4134 
L 603 4134 
L 603 4863 
z
" transform="scale(0.015625)"/>
      </defs>
      <use xlink:href="#DejaVuSans-6c"/>
      <use xlink:href="#DejaVuSans-6f" x="27.783203"/>
      <use xlink:href="#DejaVuSans-67" x="88.964844"/>
      <use xlink:href="#DejaVuSans-31" x="152.441406"/>
      <use xlink:href="#DejaVuSans-30" x="216.064453"/>
      <use xlink:href="#DejaVuSans-20" x="279.6875"/>
      <use xlink:href="#DejaVuSans-6f" x="311.474609"/>
      <use xlink:href="#DejaVuSans-66" x="372.65625"/>
      <use xlink:href="#DejaVuSans-20" x="407.861328"/>
      <use xlink:href="#DejaVuSans-46" x="439.648438"/>
      <use xlink:href="#DejaVuSans-45" x="497.167969"/>
      <use xlink:href="#DejaVuSans-76" x="560.351562"/>
      <use xlink:href="#DejaVuSans-61" x="619.53125"/>
      <use xlink:href="#DejaVuSans-6c" x="680.810547"/>
      <use xlink:href="#DejaVuSans-73" x="708.59375"/>
      <use xlink:href="#DejaVuSans-20" x="760.693359"/>
      <use xlink:href="#DejaVuSans-72" x="792.480469"/>
      <use xlink:href="#DejaVuSans-61" x="833.59375"/>
      <use xlink:href="#DejaVuSans-74" x="894.873047"/>
      <use xlink:href="#DejaVuSans-69" x="934.082031"/>
      <use xlink:href="#DejaVuSans-6f" x="961.865234"/>
     </g>
    </g>
   </g>
   <g id="matplotlib.axis_2">
    <g id="ytick_1">
     <g id="line2d_37">
      <path d="M 34.16 288.453725 
L 453.192 288.453725 
" clip-path="url(#p97fd6dd921)" style="fill: none; stroke: #b0b0b0; stroke-width: 0.8; stroke-linecap: square"/>
     </g>
     <g id="line2d_38">
      <defs>
       <path id="m11fc0b623c" d="M 0 0 
L -3.5 0 
" style="stroke: #000000; stroke-width: 0.8"/>
      </defs>
      <g>
       <use xlink:href="#m11fc0b623c" x="34.16" y="288.453725" style="stroke: #000000; stroke-width: 0.8"/>
      </g>
     </g>
    </g>
    <g id="ytick_2">
     <g id="line2d_39">
      <path d="M 34.16 217.796863 
L 453.192 217.796863 
" clip-path="url(#p97fd6dd921)" style="fill: none; stroke: #b0b0b0; stroke-width: 0.8; stroke-linecap: square"/>
     </g>
     <g id="line2d_40">
      <g>
       <use xlink:href="#m11fc0b623c" x="34.16" y="217.796863" style="stroke: #000000; stroke-width: 0.8"/>
      </g>
     </g>
    </g>
    <g id="ytick_3">
     <g id="line2d_41">
      <path d="M 34.16 147.14 
L 453.192 147.14 
" clip-path="url(#p97fd6dd921)" style="fill: none; stroke: #b0b0b0; stroke-width: 0.8; stroke-linecap: square"/>
     </g>
     <g id="line2d_42">
      <g>
       <use xlink:href="#m11fc0b623c" x="34.16" y="147.14" style="stroke: #000000; stroke-width: 0.8"/>
      </g>
     </g>
    </g>
    <g id="ytick_4">
     <g id="line2d_43">
      <path d="M 34.16 76.483137 
L 453.192 76.483137 
" clip-path="url(#p97fd6dd921)" style="fill: none; stroke: #b0b0b0; stroke-width: 0.8; stroke-linecap: square"/>
     </g>
     <g id="line2d_44">
      <g>
       <use xlink:href="#m11fc0b623c" x="34.16" y="76.483137" style="stroke: #000000; stroke-width: 0.8"/>
      </g>
     </g>
    </g>
    <g id="ytick_5">
     <g id="line2d_45">
      <path d="M 34.16 5.826275 
L 453.192 5.826275 
" clip-path="url(#p97fd6dd921)" style="fill: none; stroke: #b0b0b0; stroke-width: 0.8; stroke-linecap: square"/>
     </g>
     <g id="line2d_46">
      <g>
       <use xlink:href="#m11fc0b623c" x="34.16" y="5.826275" style="stroke: #000000; stroke-width: 0.8"/>
      </g>
     </g>
    </g>
    <g id="text_4">
     <!-- proportion of trials -->
     <g transform="translate(19.000625 240.14625)rotate(-90)scale(0.2 -0.2)">
      <defs>
       <path id="DejaVuSans-70" d="M 1159 525 
L 1159 -1331 
L 581 -1331 
L 581 3500 
L 1159 3500 
L 1159 2969 
Q 1341 3281 1617 3432 
Q 1894 3584 2278 3584 
Q 2916 3584 3314 3078 
Q 3713 2572 3713 1747 
Q 3713 922 3314 415 
Q 2916 -91 2278 -91 
Q 1894 -91 1617 61 
Q 1341 213 1159 525 
z
M 3116 1747 
Q 3116 2381 2855 2742 
Q 2594 3103 2138 3103 
Q 1681 3103 1420 2742 
Q 1159 2381 1159 1747 
Q 1159 1113 1420 752 
Q 1681 391 2138 391 
Q 2594 391 2855 752 
Q 3116 1113 3116 1747 
z
" transform="scale(0.015625)"/>
       <path id="DejaVuSans-6e" d="M 3513 2113 
L 3513 0 
L 2938 0 
L 2938 2094 
Q 2938 2591 2744 2837 
Q 2550 3084 2163 3084 
Q 1697 3084 1428 2787 
Q 1159 2491 1159 1978 
L 1159 0 
L 581 0 
L 581 3500 
L 1159 3500 
L 1159 2956 
Q 1366 3272 1645 3428 
Q 1925 3584 2291 3584 
Q 2894 3584 3203 3211 
Q 3513 2838 3513 2113 
z
" transform="scale(0.015625)"/>
      </defs>
      <use xlink:href="#DejaVuSans-70"/>
      <use xlink:href="#DejaVuSans-72" x="63.476562"/>
      <use xlink:href="#DejaVuSans-6f" x="102.339844"/>
      <use xlink:href="#DejaVuSans-70" x="163.521484"/>
      <use xlink:href="#DejaVuSans-6f" x="226.998047"/>
      <use xlink:href="#DejaVuSans-72" x="288.179688"/>
      <use xlink:href="#DejaVuSans-74" x="329.292969"/>
      <use xlink:href="#DejaVuSans-69" x="368.501953"/>
      <use xlink:href="#DejaVuSans-6f" x="396.285156"/>
      <use xlink:href="#DejaVuSans-6e" x="457.466797"/>
      <use xlink:href="#DejaVuSans-20" x="520.845703"/>
      <use xlink:href="#DejaVuSans-6f" x="552.632812"/>
      <use xlink:href="#DejaVuSans-66" x="613.814453"/>
      <use xlink:href="#DejaVuSans-20" x="649.019531"/>
      <use xlink:href="#DejaVuSans-74" x="680.806641"/>
      <use xlink:href="#DejaVuSans-72" x="720.015625"/>
      <use xlink:href="#DejaVuSans-69" x="761.128906"/>
      <use xlink:href="#DejaVuSans-61" x="788.912109"/>
      <use xlink:href="#DejaVuSans-6c" x="850.191406"/>
      <use xlink:href="#DejaVuSans-73" x="877.974609"/>
     </g>
    </g>
   </g>
   <g id="line2d_47">
    <path d="M 34.16 288.453725 
L 115.827565 288.453725 
L 115.827565 286.192706 
L 127.169968 286.192706 
L 127.169968 285.439033 
L 134.442195 285.439033 
L 134.442195 284.685359 
L 136.567449 284.685359 
L 136.587026 283.178013 
L 144.188977 283.178013 
L 144.188977 282.42434 
L 144.526487 282.42434 
L 144.526487 275.641281 
L 149.63923 275.641281 
L 149.63923 274.887608 
L 153.271929 274.887608 
L 153.271929 274.133935 
L 155.22358 274.133935 
L 155.22358 273.380261 
L 157.663357 273.380261 
L 157.663357 272.626588 
L 158.426336 272.626588 
L 158.426336 271.872915 
L 159.982521 271.872915 
L 159.982521 271.119242 
L 160.571167 271.119242 
L 160.571167 270.365569 
L 162.127352 270.365569 
L 162.127352 269.611895 
L 165.007871 269.611895 
L 165.007871 268.858222 
L 165.402321 268.858222 
L 165.402321 268.104549 
L 165.840237 268.104549 
L 165.840237 267.350876 
L 168.383914 267.350876 
L 168.383914 266.597203 
L 169.788693 266.597203 
L 169.788693 265.843529 
L 170.304411 265.843529 
L 170.304411 265.089856 
L 171.067104 265.089856 
L 171.067104 264.336183 
L 171.651523 264.336183 
L 171.651523 263.58251 
L 172.868437 263.58251 
L 172.868437 262.828837 
L 174.69841 262.828837 
L 174.69841 262.075163 
L 175.013268 262.075163 
L 175.013268 261.32149 
L 183.338369 261.32149 
L 183.338369 260.567817 
L 185.4832 260.567817 
L 185.4832 259.814144 
L 188.453271 259.814144 
L 188.453271 259.060471 
L 188.992012 259.060471 
L 188.992012 258.306797 
L 189.824378 258.306797 
L 189.824378 257.553124 
L 190.548197 257.553124 
L 190.548197 256.799451 
L 190.693974 256.799451 
L 190.693974 256.045778 
L 191.380563 256.045778 
L 191.380563 255.292105 
L 192.019129 255.292105 
L 192.019129 254.538431 
L 193.273241 254.538431 
L 193.273241 253.031085 
L 193.680355 253.031085 
L 193.680355 252.277412 
L 194.101243 252.277412 
L 194.16396 249.262719 
L 195.825187 249.262719 
L 195.825187 248.509046 
L 196.68051 248.509046 
L 196.68051 247.755373 
L 196.829881 247.755373 
L 196.829881 247.001699 
L 198.974713 247.001699 
L 198.974713 246.248026 
L 199.778865 246.248026 
L 199.778865 245.494353 
L 200.558653 245.494353 
L 200.558653 244.74068 
L 200.712809 244.74068 
L 200.712809 243.987007 
L 202.328483 243.987007 
L 202.388291 242.47966 
L 202.703484 242.47966 
L 202.703484 241.725987 
L 203.342568 241.725987 
L 203.434113 240.218641 
L 203.636543 240.218641 
L 203.636543 238.711294 
L 204.26648 238.711294 
L 204.26648 237.957621 
L 204.533122 237.957621 
L 204.533122 237.203948 
L 204.90775 237.203948 
L 204.90775 235.696601 
L 206.389318 235.696601 
L 206.389318 234.942928 
L 206.710238 234.942928 
L 206.710238 234.189255 
L 208.001092 234.189255 
L 208.001092 233.435582 
L 208.534149 233.435582 
L 208.534149 232.681908 
L 209.176345 232.681908 
L 209.176345 231.928235 
L 210.11029 231.928235 
L 210.145924 230.420889 
L 212.755474 230.420889 
L 212.755474 229.667216 
L 213.904045 229.667216 
L 213.904045 228.913542 
L 214.433866 228.913542 
L 214.433866 228.159869 
L 214.736411 228.159869 
L 214.736411 227.406196 
L 214.900305 227.406196 
L 214.977078 225.89885 
L 216.797873 225.89885 
L 216.797873 225.145176 
L 217.013133 225.145176 
L 217.013133 223.63783 
L 217.152193 223.63783 
L 217.152193 221.37681 
L 217.731817 221.37681 
L 217.731817 220.623137 
L 218.045784 220.623137 
L 218.045784 219.869464 
L 218.455167 219.869464 
L 218.455167 219.115791 
L 219.73146 219.115791 
L 219.73146 218.362118 
L 220.625051 218.362118 
L 220.625051 216.101098 
L 221.303633 216.101098 
L 221.303633 215.347425 
L 222.248126 215.347425 
L 222.248126 214.593752 
L 222.443194 214.593752 
L 222.443194 213.840078 
L 222.584805 213.840078 
L 222.584805 213.086405 
L 223.182071 213.086405 
L 223.182071 212.332732 
L 223.417172 212.332732 
L 223.417172 211.579059 
L 223.99311 211.579059 
L 224.032321 210.071712 
L 224.246031 210.071712 
L 224.246031 209.318039 
L 224.55143 209.318039 
L 224.588025 207.810693 
L 225.078398 207.810693 
L 225.078398 207.05702 
L 225.379432 207.05702 
L 225.379432 204.042327 
L 225.880825 204.042327 
L 225.880825 203.288654 
L 226.393517 203.288654 
L 226.393517 202.53498 
L 226.81477 202.53498 
L 226.81477 201.781307 
L 227.08246 201.781307 
L 227.08246 201.027634 
L 227.395557 201.027634 
L 227.395557 200.273961 
L 227.832476 200.273961 
L 227.852648 198.766614 
L 227.958699 198.766614 
L 227.958699 196.505595 
L 228.227924 196.505595 
L 228.227924 195.751922 
L 228.76642 195.751922 
L 228.76642 194.998248 
L 230.272253 194.998248 
L 230.272253 194.244575 
L 230.694379 194.244575 
L 230.694379 192.737229 
L 231.124329 192.737229 
L 231.206198 191.229882 
L 231.507462 191.229882 
L 231.570618 189.722536 
L 231.956696 189.722536 
L 231.956696 188.968863 
L 232.250564 188.968863 
L 232.335465 182.939477 
L 232.938143 182.939477 
L 232.953967 181.432131 
L 233.390591 181.432131 
L 233.390591 180.678458 
L 233.786334 180.678458 
L 233.786334 179.924784 
L 234.480897 179.924784 
L 234.480897 179.171111 
L 235.11938 179.171111 
L 235.11938 178.417438 
L 235.474175 178.417438 
L 235.474175 177.663765 
L 236.185939 177.663765 
L 236.185939 176.910092 
L 236.625729 176.910092 
L 236.625729 176.156418 
L 236.954994 176.156418 
L 237.060535 174.649072 
L 237.274167 174.649072 
L 237.274167 173.895399 
L 237.787361 173.895399 
L 237.787361 173.141725 
L 238.028027 173.141725 
L 238.028027 171.634379 
L 238.566768 171.634379 
L 238.566768 170.880706 
L 239.399135 170.880706 
L 239.399135 170.127033 
L 240.308601 170.127033 
L 240.308601 169.373359 
L 240.924429 169.373359 
L 241.012118 167.11234 
L 241.576789 167.11234 
L 241.576789 166.358667 
L 241.926754 166.358667 
L 241.926754 165.604993 
L 242.397589 165.604993 
L 242.397589 164.85132 
L 242.913308 164.85132 
L 242.913308 164.097647 
L 243.141971 164.097647 
L 243.141971 163.343974 
L 243.32115 163.343974 
L 243.331534 161.836627 
L 243.676 161.836627 
L 243.676 102.296444 
L 243.847252 102.296444 
L 243.847252 101.542771 
L 244.153516 101.542771 
L 244.260419 100.035425 
L 244.364943 100.035425 
L 244.364943 99.281752 
L 244.557128 99.281752 
L 244.609944 97.774405 
L 245.043526 97.774405 
L 245.13648 96.267059 
L 245.194364 96.267059 
L 245.194364 95.513386 
L 246.072575 95.513386 
L 246.072575 94.759712 
L 246.462372 94.759712 
L 246.508778 93.252366 
L 246.75389 93.252366 
L 246.75389 92.498693 
L 247.307306 92.498693 
L 247.307306 91.74502 
L 247.976861 91.74502 
L 247.976861 90.991346 
L 248.24125 90.991346 
L 248.291322 89.484 
L 248.430381 89.484 
L 248.430381 87.22298 
L 248.655444 87.22298 
L 248.695044 84.208288 
L 248.948556 84.208288 
L 248.948556 83.454614 
L 250.095071 83.454614 
L 250.13341 81.947268 
L 251.90324 81.947268 
L 251.90324 81.193595 
L 252.046721 81.193595 
L 252.046721 80.439922 
L 252.731243 80.439922 
L 252.731243 78.178902 
L 253.008869 78.178902 
L 253.008869 77.425229 
L 253.211299 77.425229 
L 253.211299 76.671556 
L 253.745328 76.671556 
L 253.841236 75.164209 
L 254.486499 75.164209 
L 254.486499 74.410536 
L 255.247354 74.410536 
L 255.31051 72.90319 
L 255.606412 72.90319 
L 255.606412 72.149516 
L 255.989092 72.149516 
L 255.989092 71.395843 
L 256.657621 71.395843 
L 256.657621 69.134824 
L 257.707085 69.134824 
L 257.707085 68.38115 
L 258.859272 68.38115 
L 258.859272 66.120131 
L 259.236888 66.120131 
L 259.236888 64.612784 
L 259.669112 64.612784 
L 259.669112 63.859111 
L 260.26954 63.859111 
L 260.26954 61.598092 
L 260.800427 61.598092 
L 260.800427 60.844418 
L 261.073892 60.844418 
L 261.078976 59.337072 
L 261.58961 59.337072 
L 261.58961 58.583399 
L 262.352302 58.583399 
L 262.352302 57.829725 
L 262.47119 57.829725 
L 262.47119 57.076052 
L 262.936722 57.076052 
L 262.936722 56.322379 
L 264.287172 56.322379 
L 264.287172 55.568706 
L 264.412345 55.568706 
L 264.412345 54.815033 
L 265.046573 54.815033 
L 265.046573 54.061359 
L 265.207055 54.061359 
L 265.316682 52.554013 
L 265.87894 52.554013 
L 265.983608 50.292993 
L 266.192921 50.292993 
L 266.192921 49.53932 
L 266.611835 49.53932 
L 266.611835 48.785647 
L 267.127553 48.785647 
L 267.127553 48.031974 
L 267.890245 48.031974 
L 267.890245 47.278301 
L 268.474665 47.278301 
L 268.474665 46.524627 
L 268.9286 46.524627 
L 268.9286 45.770954 
L 269.097924 45.770954 
L 269.097924 45.017281 
L 269.804839 45.017281 
L 269.812467 43.509935 
L 270.199807 43.509935 
L 270.199807 42.756261 
L 270.493782 42.756261 
L 270.493782 42.002588 
L 271.521551 42.002588 
L 271.521551 41.248915 
L 271.745993 41.248915 
L 271.745993 40.495242 
L 272.826696 40.495242 
L 272.826696 39.741569 
L 273.424385 39.741569 
L 273.424385 38.987895 
L 274.656334 38.987895 
L 274.656334 38.234222 
L 276.262248 38.234222 
L 276.262248 37.480549 
L 277.393966 37.480549 
L 277.393966 32.95851 
L 278.657361 32.95851 
L 278.657361 32.204837 
L 280.269135 32.204837 
L 280.269135 31.451163 
L 280.758034 31.451163 
L 280.758034 30.69749 
L 281.834317 30.69749 
L 281.834317 29.943817 
L 282.599164 29.943817 
L 282.599164 29.190144 
L 285.023517 29.190144 
L 285.023517 28.436471 
L 286.211082 28.436471 
L 286.211082 27.682797 
L 287.93581 27.682797 
L 287.93581 25.421778 
L 293.250757 25.421778 
L 293.250757 24.668105 
L 293.544731 24.668105 
L 293.544731 23.914431 
L 293.9397 23.914431 
L 293.9397 23.160758 
L 294.711236 23.160758 
L 294.711236 22.407085 
L 297.551618 22.407085 
L 297.551618 21.653412 
L 304.885266 21.653412 
L 304.885266 20.899739 
L 306.74894 20.899739 
L 306.74894 20.146065 
L 309.883063 20.146065 
L 309.883063 19.392392 
L 310.817008 19.392392 
L 310.817008 18.638719 
L 312.917497 18.638719 
L 312.917497 17.885046 
L 313.851442 17.885046 
L 313.851442 17.131373 
L 316.301706 17.131373 
L 316.301706 16.377699 
L 324.528946 16.377699 
L 324.528946 15.624026 
L 328.559366 15.624026 
L 328.559366 14.870353 
L 331.484978 14.870353 
L 331.5938 12.609333 
L 334.097309 12.609333 
L 334.097309 11.85566 
L 337.131743 11.85566 
L 337.131743 11.101987 
L 347.579895 11.101987 
L 347.579895 10.348314 
L 351.880756 10.348314 
L 351.880756 9.594641 
L 355.807135 9.594641 
L 355.807135 8.840967 
L 359.419053 8.840967 
L 359.419053 8.087294 
L 376.54348 8.087294 
L 376.54348 6.579948 
L 387.085324 6.579948 
L 387.085324 5.826275 
L 453.192 5.826275 
L 453.192 5.826275 
" clip-path="url(#p97fd6dd921)" style="fill: none; stroke: #000000; stroke-width: 3; stroke-linecap: square"/>
   </g>
   <g id="line2d_48">
    <path clip-path="url(#p97fd6dd921)" style="fill: none; stroke: #000000; stroke-width: 3; stroke-linecap: square"/>
   </g>
   <g id="line2d_49">
    <path d="M 34.16 288.453725 
L 69.257105 288.453725 
L 69.257105 286.946379 
L 84.526112 286.946379 
L 84.526112 286.192706 
L 85.128468 286.192706 
L 85.128468 285.439033 
L 92.738051 285.439033 
L 92.738051 283.931686 
L 94.359539 283.931686 
L 94.359539 283.178013 
L 94.734021 283.178013 
L 94.734021 282.42434 
L 103.45729 282.42434 
L 103.45729 281.670667 
L 105.334535 281.670667 
L 105.334535 280.916993 
L 106.401446 280.916993 
L 106.401446 280.16332 
L 108.609414 280.16332 
L 108.609414 279.409647 
L 109.437577 279.409647 
L 109.437577 278.655974 
L 117.840484 278.655974 
L 117.840484 277.902301 
L 118.214967 277.902301 
L 118.214967 277.148627 
L 118.911071 277.148627 
L 118.911071 276.394954 
L 119.554176 276.394954 
L 119.554176 275.641281 
L 121.588113 275.641281 
L 121.588113 274.887608 
L 126.459691 274.887608 
L 126.459691 274.133935 
L 131.880237 274.133935 
L 131.880237 273.380261 
L 133.757482 273.380261 
L 133.757482 272.626588 
L 134.824393 272.626588 
L 134.824393 271.872915 
L 136.888516 271.872915 
L 136.888516 270.365569 
L 137.271613 270.365569 
L 137.271613 268.858222 
L 139.297329 268.858222 
L 139.297329 268.104549 
L 140.752274 268.104549 
L 140.752274 267.350876 
L 143.14228 267.350876 
L 143.14228 266.597203 
L 144.490343 266.597203 
L 144.490343 265.843529 
L 145.069059 265.843529 
L 145.069059 265.089856 
L 147.334018 265.089856 
L 147.334018 264.336183 
L 148.335294 264.336183 
L 148.335294 263.58251 
L 148.578812 263.58251 
L 148.578812 262.828837 
L 149.539881 262.828837 
L 149.539881 262.075163 
L 150.480908 262.075163 
L 150.480908 261.32149 
L 150.731499 261.32149 
L 150.731499 260.567817 
L 152.759879 260.567817 
L 152.759879 259.814144 
L 153.142976 259.814144 
L 153.142976 259.060471 
L 153.713489 259.060471 
L 153.771826 257.553124 
L 154.576449 257.553124 
L 154.576449 256.799451 
L 154.732896 256.799451 
L 154.732896 256.045778 
L 155.590734 256.045778 
L 155.673923 253.784758 
L 156.049129 253.784758 
L 156.049129 253.031085 
L 156.657645 253.031085 
L 156.657645 252.277412 
L 158.73636 252.277412 
L 158.73636 251.523739 
L 160.012982 251.523739 
L 160.012982 250.770065 
L 160.736109 250.770065 
L 160.736109 250.016392 
L 160.866413 250.016392 
L 160.974051 247.755373 
L 161.242143 247.755373 
L 161.242143 247.001699 
L 161.915078 247.001699 
L 161.99095 245.494353 
L 162.365432 245.494353 
L 162.374047 243.987007 
L 162.748529 243.987007 
L 162.748529 243.233333 
L 163.356578 243.233333 
L 163.356578 242.47966 
L 163.929374 242.47966 
L 163.929374 241.725987 
L 165.523007 241.725987 
L 165.523007 240.972314 
L 165.841881 240.972314 
L 165.929124 239.464967 
L 166.131025 239.464967 
L 166.131025 238.711294 
L 166.955151 238.711294 
L 166.955151 237.957621 
L 167.107569 237.957621 
L 167.107569 237.203948 
L 167.403301 237.203948 
L 167.483299 235.696601 
L 167.776903 235.696601 
L 167.776903 234.942928 
L 168.549592 234.942928 
L 168.549592 234.189255 
L 169.16727 234.189255 
L 169.212466 231.928235 
L 170.17053 231.928235 
L 170.17053 231.174562 
L 171.221709 231.174562 
L 171.221709 230.420889 
L 171.721572 230.420889 
L 171.721572 229.667216 
L 172.170279 229.667216 
L 172.170279 228.913542 
L 172.372181 228.913542 
L 172.372181 228.159869 
L 172.887986 228.159869 
L 172.887986 227.406196 
L 174.765232 227.406196 
L 174.790748 225.89885 
L 175.832142 225.89885 
L 175.832142 225.145176 
L 176.414723 225.145176 
L 176.414723 224.391503 
L 177.594363 224.391503 
L 177.594363 223.63783 
L 179.471608 223.63783 
L 179.471608 222.884157 
L 180.538519 222.884157 
L 180.538519 222.130484 
L 182.019304 222.130484 
L 182.019304 221.37681 
L 182.655879 221.37681 
L 182.655879 220.623137 
L 188.341768 220.623137 
L 188.341768 219.869464 
L 188.711686 219.869464 
L 188.711686 219.115791 
L 189.219524 219.115791 
L 189.219524 218.362118 
L 189.602621 218.362118 
L 189.602621 217.608444 
L 190.436097 217.608444 
L 190.436097 216.854771 
L 190.705075 216.854771 
L 190.705075 216.101098 
L 191.008473 216.101098 
L 191.008473 215.347425 
L 193.048144 215.347425 
L 193.048144 214.593752 
L 193.945954 214.593752 
L 193.945954 213.840078 
L 194.264828 213.840078 
L 194.264828 213.086405 
L 195.202518 213.086405 
L 195.28028 211.579059 
L 195.826248 211.579059 
L 195.826248 210.825386 
L 195.962327 210.825386 
L 195.962327 210.071712 
L 196.19985 210.071712 
L 196.19985 209.318039 
L 197.635413 209.318039 
L 197.635413 208.564366 
L 198.597559 208.564366 
L 198.597559 207.810693 
L 200.949537 207.810693 
L 200.949537 207.05702 
L 203.232236 207.05702 
L 203.232236 206.303346 
L 206.490673 206.303346 
L 206.490673 205.549673 
L 206.930769 205.549673 
L 206.930769 204.796 
L 208.668442 204.796 
L 208.668442 204.042327 
L 208.900753 204.042327 
L 208.960128 202.53498 
L 210.18297 202.53498 
L 210.18297 201.781307 
L 210.321897 201.781307 
L 210.321897 201.027634 
L 212.490746 201.027634 
L 212.490746 200.273961 
L 213.191818 200.273961 
L 213.191818 198.766614 
L 213.623151 198.766614 
L 213.623151 198.012941 
L 214.645084 198.012941 
L 214.645084 197.259268 
L 214.889347 197.259268 
L 214.889347 196.505595 
L 215.779206 196.505595 
L 215.779206 195.751922 
L 216.09808 195.751922 
L 216.09808 194.998248 
L 217.047369 194.998248 
L 217.047369 194.244575 
L 217.6595 194.244575 
L 217.6595 193.490902 
L 218.033102 193.490902 
L 218.033102 192.737229 
L 218.859393 192.737229 
L 218.859393 191.983556 
L 219.128022 191.983556 
L 219.150348 190.476209 
L 219.327322 190.476209 
L 219.327322 189.722536 
L 219.468665 189.722536 
L 219.468665 188.968863 
L 222.253445 188.968863 
L 222.253445 187.461516 
L 222.704343 187.461516 
L 222.704343 186.707843 
L 223.509023 186.707843 
L 223.509023 185.95417 
L 223.703227 185.95417 
L 223.739751 184.446824 
L 223.952883 184.446824 
L 223.952883 183.69315 
L 224.385274 183.69315 
L 224.482288 181.432131 
L 226.777561 181.432131 
L 226.777561 180.678458 
L 228.140875 180.678458 
L 228.143701 179.171111 
L 229.063181 179.171111 
L 229.101945 177.663765 
L 229.615645 177.663765 
L 229.615645 176.910092 
L 229.880658 176.910092 
L 229.971619 174.649072 
L 230.042972 174.649072 
L 230.042972 173.895399 
L 230.645265 173.895399 
L 230.645265 173.141725 
L 231.01057 173.141725 
L 231.01057 172.388052 
L 231.863483 172.388052 
L 231.863483 171.634379 
L 232.109501 171.634379 
L 232.149388 170.127033 
L 232.281441 170.127033 
L 232.381699 167.866013 
L 232.441074 167.866013 
L 232.441074 167.11234 
L 233.625623 167.11234 
L 233.625623 166.358667 
L 233.802843 166.358667 
L 233.802843 165.604993 
L 234.44275 165.604993 
L 234.46041 164.097647 
L 234.586562 164.097647 
L 234.586562 163.343974 
L 234.953703 163.343974 
L 234.986228 161.082954 
L 235.199046 161.082954 
L 235.272577 158.821935 
L 235.519767 158.821935 
L 235.611192 157.314588 
L 236.833997 157.314588 
L 236.833997 156.560915 
L 237.004945 156.560915 
L 237.004945 155.807242 
L 237.207599 155.807242 
L 237.293691 153.546222 
L 237.402211 153.546222 
L 237.490127 152.038876 
L 237.535832 152.038876 
L 237.535832 151.285203 
L 237.685284 151.285203 
L 237.685284 150.531529 
L 237.802432 150.531529 
L 237.802432 149.777856 
L 238.260301 149.777856 
L 238.344061 146.763163 
L 238.643162 146.763163 
L 238.703958 144.502144 
L 239.352983 144.502144 
L 239.352983 143.748471 
L 239.490696 143.748471 
L 239.556549 142.241124 
L 239.66008 142.241124 
L 239.73608 140.733778 
L 239.975166 140.733778 
L 239.978954 139.226431 
L 240.108042 139.226431 
L 240.108042 137.719085 
L 240.298173 137.719085 
L 240.392061 136.211739 
L 240.500074 136.211739 
L 240.531137 134.704392 
L 240.638929 134.704392 
L 240.638929 133.197046 
L 240.961274 133.197046 
L 240.961274 132.443373 
L 241.447157 132.443373 
L 241.540374 130.182353 
L 241.913976 130.182353 
L 241.913976 129.42868 
L 242.069963 129.42868 
L 242.069963 128.675007 
L 242.336884 128.675007 
L 242.336884 127.921333 
L 242.688152 127.921333 
L 242.688152 127.16766 
L 242.867771 127.16766 
L 242.918641 125.660314 
L 243.14698 125.660314 
L 243.14698 124.906641 
L 243.349539 124.906641 
L 243.351748 123.399294 
L 243.676 123.399294 
L 243.731283 121.891948 
L 244.345482 121.891948 
L 244.390471 120.384601 
L 244.618218 120.384601 
L 244.693091 118.877255 
L 244.920903 118.877255 
L 244.920903 118.123582 
L 245.165815 118.123582 
L 245.165815 117.369908 
L 245.429645 117.369908 
L 245.536479 115.862562 
L 246.218526 115.862562 
L 246.218526 115.108889 
L 246.331171 115.108889 
L 246.331171 114.355216 
L 246.633216 114.355216 
L 246.633216 113.601542 
L 247.196698 113.601542 
L 247.196698 112.847869 
L 247.470241 112.847869 
L 247.51881 111.340523 
L 247.602379 111.340523 
L 247.602379 110.58685 
L 247.750269 110.58685 
L 247.750269 109.833176 
L 248.001128 109.833176 
L 248.001128 109.079503 
L 248.809357 109.079503 
L 248.809357 108.32583 
L 248.95145 108.32583 
L 248.95145 107.572157 
L 249.673148 107.572157 
L 249.718079 106.06481 
L 250.248966 106.06481 
L 250.315365 104.557464 
L 250.783773 104.557464 
L 250.783773 103.803791 
L 251.057195 103.803791 
L 251.057195 103.050118 
L 252.297346 103.050118 
L 252.297346 102.296444 
L 252.63323 102.296444 
L 252.63323 101.542771 
L 252.828233 101.542771 
L 252.828233 100.789098 
L 253.374364 100.789098 
L 253.374364 100.035425 
L 253.5943 100.035425 
L 253.636462 98.528078 
L 253.905251 98.528078 
L 253.905251 97.774405 
L 254.424325 97.774405 
L 254.535327 96.267059 
L 254.713479 96.267059 
L 254.713479 95.513386 
L 255.148287 95.513386 
L 255.148287 94.759712 
L 255.657028 94.759712 
L 255.679174 93.252366 
L 255.922034 93.252366 
L 255.922034 92.498693 
L 256.187916 92.498693 
L 256.187916 91.74502 
L 256.487403 91.74502 
L 256.578663 88.730327 
L 256.996144 88.730327 
L 257.089442 87.22298 
L 257.192906 87.22298 
L 257.192906 86.469307 
L 257.829762 86.469307 
L 257.89767 84.961961 
L 257.941356 84.961961 
L 257.941356 84.208288 
L 258.360649 84.208288 
L 258.360649 83.454614 
L 259.168878 83.454614 
L 259.168878 82.700941 
L 259.727818 82.700941 
L 259.727818 81.947268 
L 259.897693 81.947268 
L 259.897693 81.193595 
L 260.103548 81.193595 
L 260.135771 79.686248 
L 260.542749 79.686248 
L 260.542749 78.932575 
L 261.073636 78.932575 
L 261.073636 78.178902 
L 261.881864 78.178902 
L 261.881864 77.425229 
L 262.596749 77.425229 
L 262.596749 76.671556 
L 262.790779 76.671556 
L 262.790779 75.917882 
L 263.199339 75.917882 
L 263.199339 75.164209 
L 264.710976 75.164209 
L 264.790528 73.656863 
L 264.842148 73.656863 
L 264.842148 72.90319 
L 264.99243 72.90319 
L 264.99243 72.149516 
L 265.393024 72.149516 
L 265.393024 71.395843 
L 265.522826 71.395843 
L 265.522826 70.64217 
L 266.038634 70.64217 
L 266.038634 69.888497 
L 266.806046 69.888497 
L 266.806046 69.134824 
L 267.309505 69.134824 
L 267.410997 66.873804 
L 268.145162 66.873804 
L 268.145162 66.120131 
L 268.580947 66.120131 
L 268.580947 65.366458 
L 268.964045 65.366458 
L 268.964045 64.612784 
L 269.256947 64.612784 
L 269.301936 63.105438 
L 269.417353 63.105438 
L 269.417353 62.351765 
L 269.583521 62.351765 
L 269.583521 61.598092 
L 270.014292 61.598092 
L 270.0994 60.090745 
L 270.341509 60.090745 
L 270.341509 59.337072 
L 270.794936 59.337072 
L 270.826552 57.829725 
L 272.713348 57.829725 
L 272.713348 57.076052 
L 272.944148 57.076052 
L 272.944148 56.322379 
L 273.116038 56.322379 
L 273.116038 55.568706 
L 274.122084 55.568706 
L 274.21502 54.061359 
L 274.366444 54.061359 
L 274.366444 53.307686 
L 274.505181 53.307686 
L 274.505181 52.554013 
L 275.276128 52.554013 
L 275.276128 51.80034 
L 275.534524 51.80034 
L 275.534524 51.046667 
L 276.299853 51.046667 
L 276.299853 50.292993 
L 276.532164 50.292993 
L 276.591539 48.785647 
L 276.68295 48.785647 
L 276.68295 48.031974 
L 276.915262 48.031974 
L 276.974636 45.770954 
L 277.953308 45.770954 
L 277.953308 45.017281 
L 278.336405 45.017281 
L 278.336405 44.263608 
L 279.373546 44.263608 
L 279.418536 42.756261 
L 279.618863 42.756261 
L 279.618863 42.002588 
L 281.053936 42.002588 
L 281.053936 41.248915 
L 281.584823 41.248915 
L 281.584823 40.495242 
L 281.775679 40.495242 
L 281.775679 39.741569 
L 282.393051 39.741569 
L 282.393051 38.987895 
L 286.279061 38.987895 
L 286.32405 37.480549 
L 288.758018 37.480549 
L 288.758018 36.726876 
L 293.464395 36.726876 
L 293.464395 35.973203 
L 294.94929 35.973203 
L 294.94929 35.219529 
L 295.7064 35.219529 
L 295.7064 34.465856 
L 299.277909 34.465856 
L 299.277909 33.712183 
L 302.091821 33.712183 
L 302.091821 32.95851 
L 302.474918 32.95851 
L 302.474918 32.204837 
L 305.823 32.204837 
L 305.823 31.451163 
L 309.394508 31.451163 
L 309.394508 30.69749 
L 310.889864 30.69749 
L 310.889864 29.943817 
L 311.859177 29.943817 
L 311.859177 29.190144 
L 312.728514 29.190144 
L 312.728514 28.436471 
L 314.123787 28.436471 
L 314.123787 27.682797 
L 314.76111 27.682797 
L 314.76111 26.929124 
L 315.656285 26.929124 
L 315.656285 26.175451 
L 316.300023 26.175451 
L 316.300023 25.421778 
L 318.830164 25.421778 
L 318.830164 24.668105 
L 336.351532 24.668105 
L 336.351532 23.914431 
L 339.253465 23.914431 
L 339.253465 23.160758 
L 342.11141 23.160758 
L 342.11141 22.407085 
L 344.884249 22.407085 
L 344.884249 21.653412 
L 348.803792 21.653412 
L 348.803792 20.899739 
L 349.903573 20.899739 
L 349.903573 20.146065 
L 350.425386 20.146065 
L 350.425386 19.392392 
L 352.603155 19.392392 
L 352.603155 18.638719 
L 352.835466 18.638719 
L 352.894841 17.131373 
L 354.25661 17.131373 
L 354.25661 16.377699 
L 358.689664 16.377699 
L 358.689664 15.624026 
L 363.324342 15.624026 
L 363.324342 14.870353 
L 372.582852 14.870353 
L 372.582852 14.11668 
L 374.395928 14.11668 
L 374.395928 13.363007 
L 374.73719 13.363007 
L 374.73719 12.609333 
L 378.395123 12.609333 
L 378.395123 11.85566 
L 391.102675 11.85566 
L 391.102675 11.101987 
L 392.373547 11.101987 
L 392.373547 10.348314 
L 395.078334 10.348314 
L 395.078334 9.594641 
L 397.77739 9.594641 
L 397.77739 8.840967 
L 404.437588 8.840967 
L 404.482577 7.333621 
L 430.887041 7.333621 
L 430.887041 6.579948 
L 434.45855 6.579948 
L 434.45855 5.826275 
L 453.192 5.826275 
L 453.192 5.826275 
" clip-path="url(#p97fd6dd921)" style="fill: none; stroke: #00bfbf; stroke-width: 3; stroke-linecap: square"/>
   </g>
   <g id="line2d_50">
    <path clip-path="url(#p97fd6dd921)" style="fill: none; stroke: #00bfbf; stroke-width: 3; stroke-linecap: square"/>
   </g>
   <g id="line2d_51">
    <path d="M 34.16 288.453725 
L 59.789543 288.453725 
L 59.789543 287.700052 
L 76.651702 287.700052 
L 76.651702 286.946379 
L 80.978036 286.946379 
L 80.978036 286.192706 
L 86.505302 286.192706 
L 86.505302 285.439033 
L 88.471399 285.439033 
L 88.471399 284.685359 
L 103.367461 284.685359 
L 103.367461 283.931686 
L 105.333558 283.931686 
L 105.333558 283.178013 
L 107.161122 283.178013 
L 107.161122 282.42434 
L 107.693795 282.42434 
L 107.693795 281.670667 
L 108.907916 281.670667 
L 108.907916 280.916993 
L 109.659892 280.916993 
L 109.713085 279.409647 
L 119.84621 279.409647 
L 119.84621 278.655974 
L 120.807168 278.655974 
L 120.807168 277.902301 
L 135.260969 277.902301 
L 135.260969 277.148627 
L 137.007762 277.148627 
L 137.007762 276.394954 
L 137.669328 276.394954 
L 137.669328 275.641281 
L 137.812932 275.641281 
L 137.812932 274.887608 
L 140.082433 274.887608 
L 140.082433 274.133935 
L 141.995662 274.133935 
L 141.995662 273.380261 
L 142.116141 273.380261 
L 142.116141 272.626588 
L 144.878745 272.626588 
L 144.878745 271.872915 
L 145.24593 271.872915 
L 145.24593 271.119242 
L 147.946057 271.119242 
L 147.946057 270.365569 
L 150.14206 270.365569 
L 150.14206 269.611895 
L 156.855198 269.611895 
L 156.855198 268.858222 
L 157.549639 268.858222 
L 157.549639 268.104549 
L 159.296433 268.104549 
L 159.296433 267.350876 
L 160.101602 267.350876 
L 160.101602 266.597203 
L 166.570194 266.597203 
L 166.570194 265.843529 
L 166.798192 265.843529 
L 166.798192 265.089856 
L 167.13462 265.089856 
L 167.13462 264.336183 
L 168.507666 264.336183 
L 168.507666 263.58251 
L 168.764289 263.58251 
L 168.86895 262.075163 
L 170.215988 262.075163 
L 170.234727 260.567817 
L 170.550388 260.567817 
L 170.550388 259.814144 
L 171.961689 259.814144 
L 171.961689 259.060471 
L 173.717357 259.060471 
L 173.717357 258.306797 
L 173.927786 258.306797 
L 173.927786 257.553124 
L 174.275711 257.553124 
L 174.275711 256.799451 
L 175.792735 256.799451 
L 175.821589 255.292105 
L 177.539529 255.292105 
L 177.539529 254.538431 
L 178.043691 254.538431 
L 178.116374 253.031085 
L 178.344699 253.031085 
L 178.344699 252.277412 
L 178.637536 252.277412 
L 178.637536 251.523739 
L 179.22445 251.523739 
L 179.22445 250.770065 
L 179.678049 250.770065 
L 179.73659 249.262719 
L 180.267897 249.262719 
L 180.267897 248.509046 
L 180.583616 248.509046 
L 180.583616 247.755373 
L 180.868423 247.755373 
L 180.868423 247.001699 
L 181.383192 247.001699 
L 181.383192 246.248026 
L 182.014691 246.248026 
L 182.076805 244.74068 
L 182.81986 244.74068 
L 182.81986 243.987007 
L 183.19555 243.987007 
L 183.19555 243.233333 
L 183.796221 243.233333 
L 183.796221 242.47966 
L 186.42635 242.47966 
L 186.42635 241.725987 
L 186.57453 241.725987 
L 186.57453 240.972314 
L 188.477824 240.972314 
L 188.477824 240.218641 
L 189.509768 240.218641 
L 189.509768 239.464967 
L 190.199424 239.464967 
L 190.199424 238.711294 
L 191.01416 238.711294 
L 191.01416 237.957621 
L 191.359461 237.957621 
L 191.359461 237.203948 
L 192.254376 237.203948 
L 192.254376 236.450275 
L 192.504658 236.450275 
L 192.504658 235.696601 
L 192.952985 235.696601 
L 192.952985 234.942928 
L 194.094785 234.942928 
L 194.094785 234.189255 
L 194.67004 234.189255 
L 194.67004 233.435582 
L 194.884506 233.435582 
L 194.945434 231.928235 
L 195.132121 231.928235 
L 195.234467 229.667216 
L 195.660303 229.667216 
L 195.660303 228.913542 
L 196.350358 228.913542 
L 196.350358 228.159869 
L 196.475039 228.159869 
L 196.475039 227.406196 
L 196.607512 227.406196 
L 196.607512 226.652523 
L 196.968796 226.652523 
L 196.968796 225.89885 
L 197.819744 225.89885 
L 197.819744 225.145176 
L 198.525496 225.145176 
L 198.525496 224.391503 
L 198.650234 224.391503 
L 198.650234 223.63783 
L 199.555664 223.63783 
L 199.555664 222.884157 
L 199.838852 222.884157 
L 199.838852 222.130484 
L 200.208749 222.130484 
L 200.25341 220.623137 
L 201.100058 220.623137 
L 201.115062 219.115791 
L 203.137115 219.115791 
L 203.137115 218.362118 
L 203.788811 218.362118 
L 203.788811 217.608444 
L 204.507608 217.608444 
L 204.507608 216.854771 
L 205.102167 216.854771 
L 205.102167 216.101098 
L 205.353295 216.101098 
L 205.353295 215.347425 
L 205.516725 215.347425 
L 205.516725 214.593752 
L 205.940209 214.593752 
L 205.940209 213.840078 
L 206.263555 213.840078 
L 206.263555 213.086405 
L 206.378377 213.086405 
L 206.378377 212.332732 
L 206.813917 212.332732 
L 206.813917 211.579059 
L 207.299375 211.579059 
L 207.319392 210.071712 
L 207.584182 210.071712 
L 207.584182 209.318039 
L 207.854378 209.318039 
L 207.906306 207.810693 
L 208.098951 207.810693 
L 208.098951 207.05702 
L 208.31082 207.05702 
L 208.40043 205.549673 
L 208.792564 205.549673 
L 208.792564 204.796 
L 209.265472 204.796 
L 209.265472 204.042327 
L 209.550279 204.042327 
L 209.550279 203.288654 
L 209.770923 203.288654 
L 209.770923 202.53498 
L 209.911309 202.53498 
L 209.911309 201.781307 
L 210.065048 201.781307 
L 210.175257 200.273961 
L 210.747754 200.273961 
L 210.758661 198.766614 
L 211.619962 198.766614 
L 211.619962 198.012941 
L 211.877406 198.012941 
L 211.877406 197.259268 
L 212.645001 197.259268 
L 212.645001 196.505595 
L 213.760421 196.505595 
L 213.760421 195.751922 
L 215.222916 195.751922 
L 215.222916 194.998248 
L 216.747686 194.998248 
L 216.747686 194.244575 
L 216.883277 194.244575 
L 216.958711 192.737229 
L 217.523138 192.737229 
L 217.523138 191.983556 
L 218.10588 191.983556 
L 218.116905 190.476209 
L 218.261549 190.476209 
L 218.261549 189.722536 
L 218.896183 189.722536 
L 218.896183 188.968863 
L 219.2213 188.968863 
L 219.257467 187.461516 
L 219.459308 187.461516 
L 219.459308 186.707843 
L 219.616081 186.707843 
L 219.616081 185.95417 
L 220.009794 185.95417 
L 220.009794 185.200497 
L 220.938905 185.200497 
L 220.938905 184.446824 
L 222.208565 184.446824 
L 222.300327 182.939477 
L 223.231967 182.939477 
L 223.231967 182.185804 
L 223.722428 182.185804 
L 223.722428 181.432131 
L 224.234532 181.432131 
L 224.234532 180.678458 
L 224.450205 180.678458 
L 224.450205 179.924784 
L 224.761512 179.924784 
L 224.761512 179.171111 
L 225.049269 179.171111 
L 225.049269 178.417438 
L 225.888278 178.417438 
L 225.888278 177.663765 
L 227.761206 177.663765 
L 227.761206 176.910092 
L 228.129894 176.910092 
L 228.129894 176.156418 
L 229.46834 176.156418 
L 229.46834 175.402745 
L 229.744738 175.402745 
L 229.744738 174.649072 
L 230.123776 174.649072 
L 230.222391 173.141725 
L 230.781696 173.141725 
L 230.781696 172.388052 
L 231.102751 172.388052 
L 231.196254 170.880706 
L 231.625037 170.880706 
L 231.625037 170.127033 
L 232.057906 170.127033 
L 232.057906 169.373359 
L 232.472606 169.373359 
L 232.472606 168.619686 
L 233.3248 168.619686 
L 233.3248 167.866013 
L 233.529676 167.866013 
L 233.529676 167.11234 
L 233.875223 167.11234 
L 233.875223 166.358667 
L 234.040617 166.358667 
L 234.079959 164.85132 
L 234.436348 164.85132 
L 234.436348 164.097647 
L 234.570137 164.097647 
L 234.638156 162.590301 
L 234.855354 162.590301 
L 234.855354 161.836627 
L 234.99227 161.836627 
L 235.052714 160.329281 
L 235.201807 160.329281 
L 235.294241 158.821935 
L 235.450452 158.821935 
L 235.547966 156.560915 
L 235.582125 156.560915 
L 235.582125 155.807242 
L 235.766234 155.807242 
L 235.766234 155.053569 
L 235.914366 155.053569 
L 235.933507 153.546222 
L 236.159776 153.546222 
L 236.159776 152.792549 
L 236.536234 152.792549 
L 236.536234 152.038876 
L 236.748243 152.038876 
L 236.782598 150.531529 
L 236.891016 150.531529 
L 236.891016 149.777856 
L 237.114442 149.777856 
L 237.148088 147.516837 
L 237.500563 147.516837 
L 237.500563 146.763163 
L 237.935979 146.763163 
L 237.936419 145.255817 
L 238.581931 145.255817 
L 238.581931 144.502144 
L 238.857113 144.502144 
L 238.857113 143.748471 
L 239.182001 143.748471 
L 239.182001 142.994797 
L 239.306912 142.994797 
L 239.412727 140.733778 
L 239.655162 140.733778 
L 239.676969 139.226431 
L 239.828868 139.226431 
L 239.828868 138.472758 
L 240.083193 138.472758 
L 240.116194 136.965412 
L 240.241395 136.965412 
L 240.255585 134.704392 
L 240.930762 134.704392 
L 240.965407 133.197046 
L 241.423091 133.197046 
L 241.517169 131.689699 
L 241.545082 131.689699 
L 241.614441 128.675007 
L 241.747978 128.675007 
L 241.747978 127.921333 
L 241.886048 127.921333 
L 241.975724 126.413987 
L 242.311585 126.413987 
L 242.400818 124.906641 
L 242.562806 124.906641 
L 242.562806 124.152967 
L 242.746324 124.152967 
L 242.746324 123.399294 
L 242.908805 123.399294 
L 243.018431 121.891948 
L 243.09443 121.891948 
L 243.09443 121.138275 
L 243.354717 121.138275 
L 243.354717 120.384601 
L 243.657163 120.384601 
L 243.752397 118.877255 
L 243.866 118.877255 
L 243.866 118.123582 
L 244.006122 118.123582 
L 244.069182 116.616235 
L 244.213176 116.616235 
L 244.213176 115.862562 
L 244.58359 115.862562 
L 244.58359 115.108889 
L 245.520638 115.108889 
L 245.572597 113.601542 
L 245.962597 113.601542 
L 245.962597 112.847869 
L 246.419266 112.847869 
L 246.519428 111.340523 
L 246.680109 111.340523 
L 246.738876 109.079503 
L 246.810676 109.079503 
L 246.810676 108.32583 
L 246.941359 108.32583 
L 247.049016 106.818484 
L 247.715928 106.818484 
L 247.795529 105.311137 
L 248.507835 105.311137 
L 248.507835 104.557464 
L 248.815596 104.557464 
L 248.815596 103.803791 
L 249.423562 103.803791 
L 249.530061 102.296444 
L 250.003238 102.296444 
L 250.003238 101.542771 
L 250.782795 101.542771 
L 250.782795 100.789098 
L 251.366961 100.789098 
L 251.366961 100.035425 
L 251.980307 100.035425 
L 251.980307 99.281752 
L 252.296657 99.281752 
L 252.3588 97.020732 
L 252.938476 97.020732 
L 252.938476 96.267059 
L 254.302199 96.267059 
L 254.302199 95.513386 
L 254.420753 95.513386 
L 254.420753 94.759712 
L 256.335436 94.759712 
L 256.335436 94.006039 
L 256.486195 94.006039 
L 256.486195 93.252366 
L 257.355991 93.252366 
L 257.355991 92.498693 
L 257.601615 92.498693 
L 257.601615 91.74502 
L 258.379084 91.74502 
L 258.379084 90.991346 
L 258.79662 90.991346 
L 258.79662 90.237673 
L 259.209586 90.237673 
L 259.209586 89.484 
L 259.494504 89.484 
L 259.494504 88.730327 
L 259.991074 88.730327 
L 259.991074 87.976654 
L 260.58888 87.976654 
L 260.58888 87.22298 
L 262.102743 87.22298 
L 262.163892 85.715634 
L 262.481769 85.715634 
L 262.481769 84.961961 
L 263.763734 84.961961 
L 263.763734 84.208288 
L 263.995632 84.208288 
L 263.995632 83.454614 
L 264.430954 83.454614 
L 264.466236 81.947268 
L 264.981972 81.947268 
L 264.981972 81.193595 
L 265.935114 81.193595 
L 265.935114 80.439922 
L 266.141521 80.439922 
L 266.141521 79.686248 
L 267.10262 79.686248 
L 267.10262 78.932575 
L 267.427207 78.932575 
L 267.427207 78.178902 
L 267.667742 78.178902 
L 267.684509 76.671556 
L 267.831543 76.671556 
L 267.910331 75.164209 
L 268.03441 75.164209 
L 268.03441 74.410536 
L 268.238895 74.410536 
L 268.238895 73.656863 
L 268.602705 73.656863 
L 268.602705 72.90319 
L 268.872003 72.90319 
L 268.872003 72.149516 
L 269.457133 72.149516 
L 269.457133 71.395843 
L 269.694269 71.395843 
L 269.791574 69.888497 
L 270.004599 69.888497 
L 270.004599 69.134824 
L 270.495595 69.134824 
L 270.60298 67.627477 
L 270.95908 67.627477 
L 270.95908 66.873804 
L 271.192883 66.873804 
L 271.192883 66.120131 
L 272.490205 66.120131 
L 272.490205 65.366458 
L 272.660469 65.366458 
L 272.683437 63.859111 
L 275.703191 63.859111 
L 275.703191 63.105438 
L 276.142665 63.105438 
L 276.142665 62.351765 
L 276.290105 62.351765 
L 276.346665 60.844418 
L 277.389825 60.844418 
L 277.389825 60.090745 
L 277.649271 60.090745 
L 277.716417 58.583399 
L 277.934078 58.583399 
L 277.991861 57.076052 
L 278.10429 57.076052 
L 278.121348 55.568706 
L 278.448847 55.568706 
L 278.448847 54.815033 
L 279.077903 54.815033 
L 279.14246 53.307686 
L 279.609306 53.307686 
L 279.609306 52.554013 
L 280.261205 52.554013 
L 280.261205 51.80034 
L 280.554537 51.80034 
L 280.554537 51.046667 
L 281.848321 51.046667 
L 281.848321 50.292993 
L 283.110153 50.292993 
L 283.110153 49.53932 
L 284.611414 49.53932 
L 284.611414 48.785647 
L 285.458983 48.785647 
L 285.458983 48.031974 
L 285.648814 48.031974 
L 285.648814 47.278301 
L 286.443749 47.278301 
L 286.443749 46.524627 
L 287.195911 46.524627 
L 287.195911 45.770954 
L 287.910376 45.770954 
L 287.945011 44.263608 
L 288.247695 44.263608 
L 288.280618 42.756261 
L 288.534343 42.756261 
L 288.534343 42.002588 
L 288.79258 42.002588 
L 288.79258 41.248915 
L 289.0888 41.248915 
L 289.0888 40.495242 
L 289.228876 40.495242 
L 289.228876 39.741569 
L 289.803265 39.741569 
L 289.803265 38.987895 
L 290.100819 38.987895 
L 290.100819 38.234222 
L 290.360622 38.234222 
L 290.360622 37.480549 
L 290.542232 37.480549 
L 290.542232 36.726876 
L 290.95679 36.726876 
L 290.95679 35.973203 
L 291.614215 35.973203 
L 291.614215 35.219529 
L 291.818442 35.219529 
L 291.86794 33.712183 
L 292.253512 33.712183 
L 292.253512 32.95851 
L 292.722856 32.95851 
L 292.722856 32.204837 
L 293.106736 32.204837 
L 293.106736 31.451163 
L 293.434415 31.451163 
L 293.434415 30.69749 
L 293.840495 30.69749 
L 293.840495 29.943817 
L 293.951784 29.943817 
L 293.951784 29.190144 
L 294.531459 29.190144 
L 294.531459 28.436471 
L 294.972107 28.436471 
L 294.972107 27.682797 
L 295.210988 27.682797 
L 295.210988 26.929124 
L 295.373798 26.929124 
L 295.373798 26.175451 
L 295.895182 26.175451 
L 295.895182 25.421778 
L 296.963196 25.421778 
L 296.963196 24.668105 
L 297.28538 24.668105 
L 297.28538 23.914431 
L 297.865056 23.914431 
L 297.865056 23.160758 
L 298.948974 23.160758 
L 298.948974 22.407085 
L 299.228779 22.407085 
L 299.230258 20.899739 
L 302.282571 20.899739 
L 302.323342 19.392392 
L 303.879572 19.392392 
L 303.879572 18.638719 
L 304.920033 18.638719 
L 304.920033 17.885046 
L 306.695577 17.885046 
L 306.695577 17.131373 
L 307.240912 17.131373 
L 307.240912 16.377699 
L 312.195963 16.377699 
L 312.195963 15.624026 
L 313.215203 15.624026 
L 313.215203 14.870353 
L 315.52956 14.870353 
L 315.52956 14.11668 
L 316.501663 14.11668 
L 316.501663 13.363007 
L 317.690365 13.363007 
L 317.690365 12.609333 
L 318.394552 12.609333 
L 318.394552 11.85566 
L 320.670886 11.85566 
L 320.670886 11.101987 
L 324.004483 11.101987 
L 324.004483 10.348314 
L 325.69565 10.348314 
L 325.69565 9.594641 
L 326.863156 9.594641 
L 326.863156 8.840967 
L 332.250741 8.840967 
L 332.250741 8.087294 
L 337.752396 8.087294 
L 337.752396 7.333621 
L 352.867272 7.333621 
L 352.867272 6.579948 
L 355.134334 6.579948 
L 355.134334 5.826275 
L 453.192 5.826275 
L 453.192 5.826275 
" clip-path="url(#p97fd6dd921)" style="fill: none; stroke: #bf00bf; stroke-width: 3; stroke-linecap: square"/>
   </g>
   <g id="line2d_52">
    <path clip-path="url(#p97fd6dd921)" style="fill: none; stroke: #bf00bf; stroke-width: 3; stroke-linecap: square"/>
   </g>
   <g id="line2d_53">
    <path d="M 34.16 288.453725 
L 78.730452 288.453725 
L 78.730452 287.700052 
L 93.067886 287.700052 
L 93.067886 286.946379 
L 94.938426 286.946379 
L 94.938426 286.192706 
L 104.757888 286.192706 
L 104.757888 285.439033 
L 105.816993 285.439033 
L 105.816993 284.685359 
L 109.068781 284.685359 
L 109.068781 283.931686 
L 110.925045 283.931686 
L 110.925045 283.178013 
L 113.03377 283.178013 
L 113.03377 282.42434 
L 119.095322 282.42434 
L 119.095322 281.670667 
L 120.154427 281.670667 
L 120.154427 280.916993 
L 120.965862 280.916993 
L 120.965862 280.16332 
L 121.954871 280.16332 
L 122.024966 278.655974 
L 137.622419 278.655974 
L 137.622419 277.902301 
L 138.16981 277.902301 
L 138.16981 277.148627 
L 139.478683 277.148627 
L 139.478683 276.394954 
L 141.587408 276.394954 
L 141.587408 275.641281 
L 143.518395 275.641281 
L 143.518395 274.887608 
L 148.433573 274.887608 
L 148.433573 274.133935 
L 150.508509 274.133935 
L 150.508509 273.380261 
L 152.507244 273.380261 
L 152.507244 272.626588 
L 154.377783 272.626588 
L 154.377783 271.872915 
L 159.942724 271.872915 
L 159.942724 271.119242 
L 161.798988 271.119242 
L 161.798988 270.365569 
L 163.907713 270.365569 
L 163.907713 269.611895 
L 166.673427 269.611895 
L 166.673427 268.858222 
L 168.316686 268.858222 
L 168.316686 268.104549 
L 169.188411 268.104549 
L 169.188411 267.350876 
L 169.578826 267.350876 
L 169.578826 266.597203 
L 170.924469 266.597203 
L 170.924469 265.843529 
L 172.072033 265.843529 
L 172.072033 265.089856 
L 172.440148 265.089856 
L 172.440148 264.336183 
L 172.565019 264.336183 
L 172.565019 263.58251 
L 172.828814 263.58251 
L 172.828814 262.828837 
L 174.370744 262.828837 
L 174.461009 261.32149 
L 175.520113 261.32149 
L 175.520113 260.567817 
L 177.603235 260.567817 
L 177.603235 259.814144 
L 177.753135 259.814144 
L 177.753135 259.060471 
L 179.450146 259.060471 
L 179.459499 257.553124 
L 180.360346 257.553124 
L 180.360346 256.799451 
L 181.458304 256.799451 
L 181.568224 255.292105 
L 181.645981 255.292105 
L 181.670538 253.784758 
L 182.350461 253.784758 
L 182.350461 253.031085 
L 182.536479 253.031085 
L 182.536479 252.277412 
L 183.257756 252.277412 
L 183.314568 250.770065 
L 184.102364 250.770065 
L 184.102364 250.016392 
L 184.548413 250.016392 
L 184.548413 249.262719 
L 185.423293 249.262719 
L 185.423293 248.509046 
L 186.777582 248.509046 
L 186.777582 247.755373 
L 188.648122 247.755373 
L 188.648122 247.001699 
L 190.071876 247.001699 
L 190.071876 246.248026 
L 190.489325 246.248026 
L 190.489325 245.494353 
L 190.752456 245.494353 
L 190.752456 244.74068 
L 191.279589 244.74068 
L 191.279589 243.987007 
L 193.893945 243.987007 
L 193.893945 243.233333 
L 194.344394 243.233333 
L 194.392338 241.725987 
L 194.717669 241.725987 
L 194.717669 240.972314 
L 195.151277 240.972314 
L 195.227065 239.464967 
L 196.010607 239.464967 
L 196.010607 238.711294 
L 196.35899 238.711294 
L 196.35899 237.957621 
L 196.870325 237.957621 
L 196.870325 237.203948 
L 197.742049 237.203948 
L 197.742049 236.450275 
L 198.132464 236.450275 
L 198.132464 235.696601 
L 198.549531 235.696601 
L 198.592455 234.189255 
L 198.935064 234.189255 
L 198.973347 232.681908 
L 199.478108 232.681908 
L 199.478108 231.928235 
L 199.65156 231.928235 
L 199.65156 231.174562 
L 202.466934 231.174562 
L 202.466934 230.420889 
L 204.846916 230.420889 
L 204.846916 229.667216 
L 205.099877 229.667216 
L 205.099877 228.913542 
L 205.800037 228.913542 
L 205.800037 228.159869 
L 205.972893 228.159869 
L 205.972893 227.406196 
L 206.11108 227.406196 
L 206.11108 226.652523 
L 206.387782 226.652523 
L 206.387782 225.89885 
L 207.446887 225.89885 
L 207.446887 225.145176 
L 207.673418 225.145176 
L 207.673418 224.391503 
L 207.87293 224.391503 
L 207.87293 223.63783 
L 208.079121 223.63783 
L 208.079121 222.884157 
L 208.377897 222.884157 
L 208.393221 221.37681 
L 208.563915 221.37681 
L 208.563915 220.623137 
L 208.732522 220.623137 
L 208.732522 219.869464 
L 209.003529 219.869464 
L 209.003529 219.115791 
L 209.285192 219.115791 
L 209.285192 218.362118 
L 209.437001 218.362118 
L 209.437001 217.608444 
L 209.62302 217.608444 
L 209.62302 216.854771 
L 210.028483 216.854771 
L 210.1298 214.593752 
L 210.281722 214.593752 
L 210.344297 213.086405 
L 210.575849 213.086405 
L 210.575849 212.332732 
L 211.053037 212.332732 
L 211.053037 211.579059 
L 211.188905 211.579059 
L 211.261405 210.071712 
L 211.634953 210.071712 
L 211.634953 209.318039 
L 212.052849 209.318039 
L 212.052849 208.564366 
L 212.512351 208.564366 
L 212.512351 207.810693 
L 213.127901 207.810693 
L 213.127901 207.05702 
L 213.368663 207.05702 
L 213.368663 206.303346 
L 213.938266 206.303346 
L 213.938266 205.549673 
L 214.928842 205.549673 
L 214.928842 204.796 
L 215.040389 204.796 
L 215.096059 203.288654 
L 215.907918 203.288654 
L 215.907918 202.53498 
L 216.337061 202.53498 
L 216.337061 201.781307 
L 216.489248 201.781307 
L 216.489248 201.027634 
L 217.54737 201.027634 
L 217.591753 199.520288 
L 217.739 199.520288 
L 217.739 198.766614 
L 218.040706 198.766614 
L 218.064706 197.259268 
L 218.36487 197.259268 
L 218.36487 196.505595 
L 218.890095 196.505595 
L 218.890095 195.751922 
L 219.017667 195.751922 
L 219.017667 194.998248 
L 219.190629 194.998248 
L 219.190629 194.244575 
L 219.306094 194.244575 
L 219.306094 193.490902 
L 219.73146 193.490902 
L 219.73146 192.737229 
L 220.062354 192.737229 
L 220.062354 191.983556 
L 220.279918 191.983556 
L 220.279918 191.229882 
L 220.452769 191.229882 
L 220.452769 190.476209 
L 221.56865 190.476209 
L 221.56865 189.722536 
L 221.798412 189.722536 
L 221.798412 188.968863 
L 222.166599 188.968863 
L 222.166599 188.21519 
L 223.144108 188.21519 
L 223.144108 187.461516 
L 223.271308 187.461516 
L 223.271308 186.707843 
L 224.094353 186.707843 
L 224.094353 185.95417 
L 224.501838 185.95417 
L 224.564246 184.446824 
L 225.302066 184.446824 
L 225.302066 183.69315 
L 226.596433 183.69315 
L 226.596433 182.939477 
L 227.246001 182.939477 
L 227.293009 181.432131 
L 227.916422 181.432131 
L 227.916422 180.678458 
L 229.422559 180.678458 
L 229.422559 179.924784 
L 229.58124 179.924784 
L 229.58124 179.171111 
L 231.078117 179.171111 
L 231.078117 178.417438 
L 231.975429 178.417438 
L 232.057801 176.156418 
L 233.339962 176.156418 
L 233.339962 175.402745 
L 233.868821 175.402745 
L 233.924296 173.895399 
L 234.066001 173.895399 
L 234.165058 170.127033 
L 234.346398 170.127033 
L 234.346398 169.373359 
L 234.994798 169.373359 
L 235.097081 167.11234 
L 235.165662 167.11234 
L 235.273714 164.85132 
L 235.350042 164.85132 
L 235.409662 163.343974 
L 235.537494 163.343974 
L 235.537494 162.590301 
L 235.662623 162.590301 
L 235.725237 161.082954 
L 235.790455 161.082954 
L 235.892454 158.821935 
L 235.98105 158.821935 
L 236.09007 156.560915 
L 236.223059 156.560915 
L 236.272943 155.053569 
L 236.453612 155.053569 
L 236.535639 153.546222 
L 236.663472 153.546222 
L 236.730033 152.038876 
L 236.829382 152.038876 
L 236.85114 150.531529 
L 236.982994 150.531529 
L 237.082342 148.27051 
L 237.133456 148.27051 
L 237.188763 146.00949 
L 237.558105 146.00949 
L 237.558105 145.255817 
L 237.722865 145.255817 
L 237.722865 144.502144 
L 237.85601 144.502144 
L 237.955359 142.241124 
L 238.11328 142.241124 
L 238.139578 140.733778 
L 238.535396 140.733778 
L 238.639667 139.226431 
L 238.837101 139.226431 
L 238.837101 138.472758 
L 239.06295 138.472758 
L 239.118974 136.965412 
L 239.425799 136.965412 
L 239.458923 135.458065 
L 239.61935 135.458065 
L 239.61935 134.704392 
L 239.799704 134.704392 
L 239.803119 133.197046 
L 240.11409 133.197046 
L 240.11409 132.443373 
L 240.347234 132.443373 
L 240.371015 130.182353 
L 240.565496 130.182353 
L 240.659815 128.675007 
L 240.706209 128.675007 
L 240.787648 127.16766 
L 240.818457 127.16766 
L 240.818457 126.413987 
L 241.085339 126.413987 
L 241.085339 125.660314 
L 241.240068 125.660314 
L 241.270135 124.152967 
L 241.485846 124.152967 
L 241.577934 122.645621 
L 241.626399 122.645621 
L 241.726608 120.384601 
L 241.789818 120.384601 
L 241.789818 119.630928 
L 241.968349 119.630928 
L 241.980186 117.369908 
L 242.079535 117.369908 
L 242.143269 115.862562 
L 242.49535 115.862562 
L 242.49535 115.108889 
L 242.697114 115.108889 
L 242.748311 113.601542 
L 243.286787 113.601542 
L 243.313992 112.094196 
L 243.398334 112.094196 
L 243.454004 110.58685 
L 243.536124 110.58685 
L 243.621327 108.32583 
L 243.874523 108.32583 
L 243.875081 106.818484 
L 243.98777 106.818484 
L 244.01418 105.311137 
L 244.127484 105.311137 
L 244.127484 104.557464 
L 244.695006 104.557464 
L 244.695006 103.803791 
L 245.0005 103.803791 
L 245.0005 103.050118 
L 245.364243 103.050118 
L 245.364243 102.296444 
L 245.591613 102.296444 
L 245.591613 101.542771 
L 245.815649 101.542771 
L 245.815649 100.789098 
L 246.096946 100.789098 
L 246.096946 100.035425 
L 246.369485 100.035425 
L 246.398651 98.528078 
L 246.534828 98.528078 
L 246.534828 97.774405 
L 246.884551 97.774405 
L 246.884551 97.020732 
L 247.443733 97.020732 
L 247.443733 96.267059 
L 247.745503 96.267059 
L 247.745503 95.513386 
L 247.960742 95.513386 
L 247.960742 94.759712 
L 248.615525 94.759712 
L 248.615525 94.006039 
L 249.093582 94.006039 
L 249.124676 92.498693 
L 250.511725 92.498693 
L 250.604488 90.991346 
L 251.448886 90.991346 
L 251.448886 90.237673 
L 252.087183 90.237673 
L 252.087183 89.484 
L 252.771825 89.484 
L 252.771825 88.730327 
L 256.189076 88.730327 
L 256.189076 87.976654 
L 256.506477 87.976654 
L 256.506477 87.22298 
L 257.469461 87.22298 
L 257.469461 86.469307 
L 257.635541 86.469307 
L 257.635541 85.715634 
L 257.932391 85.715634 
L 257.932391 84.961961 
L 258.421525 84.961961 
L 258.524315 83.454614 
L 259.28691 83.454614 
L 259.28691 82.700941 
L 259.847439 82.700941 
L 259.847439 81.947268 
L 260.333374 81.947268 
L 260.333374 81.193595 
L 260.483374 81.193595 
L 260.483374 80.439922 
L 261.105686 80.439922 
L 261.105686 79.686248 
L 261.358647 79.686248 
L 261.358647 78.932575 
L 261.951146 78.932575 
L 262.058832 77.425229 
L 262.231663 77.425229 
L 262.231663 76.671556 
L 262.398422 76.671556 
L 262.398422 75.917882 
L 262.930829 75.917882 
L 262.930829 75.164209 
L 263.141979 75.164209 
L 263.252123 73.656863 
L 263.672745 73.656863 
L 263.672745 72.90319 
L 263.925705 72.90319 
L 263.97388 71.395843 
L 264.500514 71.395843 
L 264.545062 69.888497 
L 264.797325 69.888497 
L 264.798722 68.38115 
L 265.038087 68.38115 
L 265.038087 67.627477 
L 265.219805 67.627477 
L 265.219805 66.873804 
L 265.472765 66.873804 
L 265.472765 66.120131 
L 266.160724 66.120131 
L 266.160724 65.366458 
L 266.274715 65.366458 
L 266.355839 63.105438 
L 266.58001 63.105438 
L 266.598266 61.598092 
L 266.709813 61.598092 
L 266.765483 60.090745 
L 267.107192 60.090745 
L 267.107192 59.337072 
L 267.518479 59.337072 
L 267.518479 58.583399 
L 267.80827 58.583399 
L 267.80827 57.829725 
L 268.006485 57.829725 
L 268.075773 56.322379 
L 268.120851 56.322379 
L 268.120851 55.568706 
L 268.248684 55.568706 
L 268.248684 54.815033 
L 268.368874 54.815033 
L 268.442887 52.554013 
L 268.495964 52.554013 
L 268.495964 51.80034 
L 268.731172 51.80034 
L 268.731172 51.046667 
L 268.922898 51.046667 
L 268.982199 49.53932 
L 269.408424 49.53932 
L 269.441222 48.031974 
L 269.540571 48.031974 
L 269.540571 47.278301 
L 269.71013 47.278301 
L 269.764038 45.770954 
L 269.961882 45.770954 
L 269.961882 45.017281 
L 270.411012 45.017281 
L 270.492395 42.756261 
L 271.828378 42.756261 
L 271.828378 42.002588 
L 272.06914 42.002588 
L 272.06914 41.248915 
L 272.42872 41.248915 
L 272.42872 40.495242 
L 272.777693 40.495242 
L 272.825279 38.987895 
L 273.276685 38.987895 
L 273.276685 38.234222 
L 273.629319 38.234222 
L 273.629319 37.480549 
L 273.740865 37.480549 
L 273.796535 35.973203 
L 274.070042 35.973203 
L 274.070042 35.219529 
L 275.037538 35.219529 
L 275.037538 34.465856 
L 275.206539 34.465856 
L 275.206539 33.712183 
L 275.355677 33.712183 
L 275.355677 32.95851 
L 276.060157 32.95851 
L 276.060157 32.204837 
L 276.246175 32.204837 
L 276.246175 31.451163 
L 276.439477 31.451163 
L 276.439477 30.69749 
L 276.585712 30.69749 
L 276.585712 29.943817 
L 276.741182 29.943817 
L 276.741182 29.190144 
L 276.967452 29.190144 
L 276.967452 28.436471 
L 277.5586 28.436471 
L 277.5586 27.682797 
L 277.81206 27.682797 
L 277.857094 26.175451 
L 278.036657 26.175451 
L 278.036657 25.421778 
L 278.258109 25.421778 
L 278.340523 23.914431 
L 280.255571 23.914431 
L 280.255571 23.160758 
L 280.391962 23.160758 
L 280.391962 22.407085 
L 283.644853 22.407085 
L 283.644853 21.653412 
L 287.424549 21.653412 
L 287.530249 20.146065 
L 288.008306 20.146065 
L 288.008306 19.392392 
L 289.445297 19.392392 
L 289.445297 18.638719 
L 289.923354 18.638719 
L 289.923354 17.885046 
L 290.36361 17.885046 
L 290.36361 17.131373 
L 290.675906 17.131373 
L 290.675906 16.377699 
L 291.279618 16.377699 
L 291.279618 15.624026 
L 292.278659 15.624026 
L 292.278659 14.870353 
L 293.816875 14.870353 
L 293.816875 14.11668 
L 294.749025 14.11668 
L 294.749025 13.363007 
L 296.383934 13.363007 
L 296.383934 12.609333 
L 297.930994 12.609333 
L 297.930994 11.85566 
L 301.788817 11.85566 
L 301.788817 11.101987 
L 302.713225 11.101987 
L 302.713225 10.348314 
L 304.762733 10.348314 
L 304.762733 9.594641 
L 306.80017 9.594641 
L 306.80017 8.840967 
L 312.409535 8.840967 
L 312.409535 8.087294 
L 316.264604 8.087294 
L 316.264604 7.333621 
L 316.771818 7.333621 
L 316.771818 6.579948 
L 318.686867 6.579948 
L 318.686867 5.826275 
L 453.192 5.826275 
L 453.192 5.826275 
" clip-path="url(#p97fd6dd921)" style="fill: none; stroke: #ff0000; stroke-width: 3; stroke-linecap: square"/>
   </g>
   <g id="line2d_54">
    <path clip-path="url(#p97fd6dd921)" style="fill: none; stroke: #ff0000; stroke-width: 3; stroke-linecap: square"/>
   </g>
   <g id="line2d_55">
    <path d="M 243.676 291.28 
L 243.676 3 
" clip-path="url(#p97fd6dd921)" style="fill: none; stroke: #000000; stroke-width: 1.5; stroke-linecap: square"/>
   </g>
   <g id="line2d_56">
    <path d="M 34.16 147.14 
L 453.192 147.14 
" clip-path="url(#p97fd6dd921)" style="fill: none; stroke-dasharray: 2,3.3; stroke-dashoffset: 0; stroke: #000000; stroke-width: 2"/>
   </g>
   <g id="patch_3">
    <path d="M 34.16 291.28 
L 34.16 3 
" style="fill: none; stroke: #000000; stroke-width: 0.8; stroke-linejoin: miter; stroke-linecap: square"/>
   </g>
   <g id="patch_4">
    <path d="M 453.192 291.28 
L 453.192 3 
" style="fill: none; stroke: #000000; stroke-width: 0.8; stroke-linejoin: miter; stroke-linecap: square"/>
   </g>
   <g id="patch_5">
    <path d="M 34.16 291.28 
L 453.192 291.28 
" style="fill: none; stroke: #000000; stroke-width: 0.8; stroke-linejoin: miter; stroke-linecap: square"/>
   </g>
   <g id="patch_6">
    <path d="M 34.16 3 
L 453.192 3 
" style="fill: none; stroke: #000000; stroke-width: 0.8; stroke-linejoin: miter; stroke-linecap: square"/>
   </g>
   <g id="text_5">
    <!-- f15-f19,5-D -->
    <g transform="translate(330.91761 285.5144)scale(0.2 -0.2)">
     <defs>
      <path id="DejaVuSans-35" d="M 691 4666 
L 3169 4666 
L 3169 4134 
L 1269 4134 
L 1269 2991 
Q 1406 3038 1543 3061 
Q 1681 3084 1819 3084 
Q 2600 3084 3056 2656 
Q 3513 2228 3513 1497 
Q 3513 744 3044 326 
Q 2575 -91 1722 -91 
Q 1428 -91 1123 -41 
Q 819 9 494 109 
L 494 744 
Q 775 591 1075 516 
Q 1375 441 1709 441 
Q 2250 441 2565 725 
Q 2881 1009 2881 1497 
Q 2881 1984 2565 2268 
Q 2250 2553 1709 2553 
Q 1456 2553 1204 2497 
Q 953 2441 691 2322 
L 691 4666 
z
" transform="scale(0.015625)"/>
      <path id="DejaVuSans-39" d="M 703 97 
L 703 672 
Q 941 559 1184 500 
Q 1428 441 1663 441 
Q 2288 441 2617 861 
Q 2947 1281 2994 2138 
Q 2813 1869 2534 1725 
Q 2256 1581 1919 1581 
Q 1219 1581 811 2004 
Q 403 2428 403 3163 
Q 403 3881 828 4315 
Q 1253 4750 1959 4750 
Q 2769 4750 3195 4129 
Q 3622 3509 3622 2328 
Q 3622 1225 3098 567 
Q 2575 -91 1691 -91 
Q 1453 -91 1209 -44 
Q 966 3 703 97 
z
M 1959 2075 
Q 2384 2075 2632 2365 
Q 2881 2656 2881 3163 
Q 2881 3666 2632 3958 
Q 2384 4250 1959 4250 
Q 1534 4250 1286 3958 
Q 1038 3666 1038 3163 
Q 1038 2656 1286 2365 
Q 1534 2075 1959 2075 
z
" transform="scale(0.015625)"/>
      <path id="DejaVuSans-2c" d="M 750 794 
L 1409 794 
L 1409 256 
L 897 -744 
L 494 -744 
L 750 256 
L 750 794 
z
" transform="scale(0.015625)"/>
      <path id="DejaVuSans-44" d="M 1259 4147 
L 1259 519 
L 2022 519 
Q 2988 519 3436 956 
Q 3884 1394 3884 2338 
Q 3884 3275 3436 3711 
Q 2988 4147 2022 4147 
L 1259 4147 
z
M 628 4666 
L 1925 4666 
Q 3281 4666 3915 4102 
Q 4550 3538 4550 2338 
Q 4550 1131 3912 565 
Q 3275 0 1925 0 
L 628 0 
L 628 4666 
z
" transform="scale(0.015625)"/>
     </defs>
     <use xlink:href="#DejaVuSans-66"/>
     <use xlink:href="#DejaVuSans-31" x="35.205078"/>
     <use xlink:href="#DejaVuSans-35" x="98.828125"/>
     <use xlink:href="#DejaVuSans-2d" x="162.451172"/>
     <use xlink:href="#DejaVuSans-66" x="198.535156"/>
     <use xlink:href="#DejaVuSans-31" x="233.740234"/>
     <use xlink:href="#DejaVuSans-39" x="297.363281"/>
     <use xlink:href="#DejaVuSans-2c" x="360.986328"/>
     <use xlink:href="#DejaVuSans-35" x="392.773438"/>
     <use xlink:href="#DejaVuSans-2d" x="456.396484"/>
     <use xlink:href="#DejaVuSans-44" x="492.480469"/>
    </g>
   </g>
   <g id="text_6">
    <!-- v2.6.1.158 -->
    <g style="fill: #808080" transform="translate(216.861937 286.317512)scale(0.1 -0.1)">
     <defs>
      <path id="DejaVuSans-32" d="M 1228 531 
L 3431 531 
L 3431 0 
L 469 0 
L 469 531 
Q 828 903 1448 1529 
Q 2069 2156 2228 2338 
Q 2531 2678 2651 2914 
Q 2772 3150 2772 3378 
Q 2772 3750 2511 3984 
Q 2250 4219 1831 4219 
Q 1534 4219 1204 4116 
Q 875 4013 500 3803 
L 500 4441 
Q 881 4594 1212 4672 
Q 1544 4750 1819 4750 
Q 2544 4750 2975 4387 
Q 3406 4025 3406 3419 
Q 3406 3131 3298 2873 
Q 3191 2616 2906 2266 
Q 2828 2175 2409 1742 
Q 1991 1309 1228 531 
z
" transform="scale(0.015625)"/>
      <path id="DejaVuSans-2e" d="M 684 794 
L 1344 794 
L 1344 0 
L 684 0 
L 684 794 
z
" transform="scale(0.015625)"/>
      <path id="DejaVuSans-36" d="M 2113 2584 
Q 1688 2584 1439 2293 
Q 1191 2003 1191 1497 
Q 1191 994 1439 701 
Q 1688 409 2113 409 
Q 2538 409 2786 701 
Q 3034 994 3034 1497 
Q 3034 2003 2786 2293 
Q 2538 2584 2113 2584 
z
M 3366 4563 
L 3366 3988 
Q 3128 4100 2886 4159 
Q 2644 4219 2406 4219 
Q 1781 4219 1451 3797 
Q 1122 3375 1075 2522 
Q 1259 2794 1537 2939 
Q 1816 3084 2150 3084 
Q 2853 3084 3261 2657 
Q 3669 2231 3669 1497 
Q 3669 778 3244 343 
Q 2819 -91 2113 -91 
Q 1303 -91 875 529 
Q 447 1150 447 2328 
Q 447 3434 972 4092 
Q 1497 4750 2381 4750 
Q 2619 4750 2861 4703 
Q 3103 4656 3366 4563 
z
" transform="scale(0.015625)"/>
      <path id="DejaVuSans-38" d="M 2034 2216 
Q 1584 2216 1326 1975 
Q 1069 1734 1069 1313 
Q 1069 891 1326 650 
Q 1584 409 2034 409 
Q 2484 409 2743 651 
Q 3003 894 3003 1313 
Q 3003 1734 2745 1975 
Q 2488 2216 2034 2216 
z
M 1403 2484 
Q 997 2584 770 2862 
Q 544 3141 544 3541 
Q 544 4100 942 4425 
Q 1341 4750 2034 4750 
Q 2731 4750 3128 4425 
Q 3525 4100 3525 3541 
Q 3525 3141 3298 2862 
Q 3072 2584 2669 2484 
Q 3125 2378 3379 2068 
Q 3634 1759 3634 1313 
Q 3634 634 3220 271 
Q 2806 -91 2034 -91 
Q 1263 -91 848 271 
Q 434 634 434 1313 
Q 434 1759 690 2068 
Q 947 2378 1403 2484 
z
M 1172 3481 
Q 1172 3119 1398 2916 
Q 1625 2713 2034 2713 
Q 2441 2713 2670 2916 
Q 2900 3119 2900 3481 
Q 2900 3844 2670 4047 
Q 2441 4250 2034 4250 
Q 1625 4250 1398 4047 
Q 1172 3844 1172 3481 
z
" transform="scale(0.015625)"/>
     </defs>
     <use xlink:href="#DejaVuSans-76"/>
     <use xlink:href="#DejaVuSans-32" x="59.179688"/>
     <use xlink:href="#DejaVuSans-2e" x="122.802734"/>
     <use xlink:href="#DejaVuSans-36" x="154.589844"/>
     <use xlink:href="#DejaVuSans-2e" x="218.212891"/>
     <use xlink:href="#DejaVuSans-31" x="250"/>
     <use xlink:href="#DejaVuSans-2e" x="313.623047"/>
     <use xlink:href="#DejaVuSans-31" x="345.410156"/>
     <use xlink:href="#DejaVuSans-35" x="409.033203"/>
     <use xlink:href="#DejaVuSans-38" x="472.65625"/>
    </g>
   </g>
   <g id="legend_1">
    <g id="patch_7">
     <path d="M 48.16 136.425 
L 177.381875 136.425 
Q 181.381875 136.425 181.381875 132.425 
L 181.381875 17 
Q 181.381875 13 177.381875 13 
L 48.16 13 
Q 44.16 13 44.16 17 
L 44.16 132.425 
Q 44.16 136.425 48.16 136.425 
z
" style="fill: #ffffff; opacity: 0.2; stroke: #cccccc; stroke-linejoin: miter"/>
    </g>
    <g id="line2d_57">
     <path d="M 52.16 29.196875 
L 72.16 29.196875 
L 92.16 29.196875 
" style="fill: none; stroke: #000000; stroke-width: 3; stroke-linecap: square"/>
    </g>
    <g id="text_7">
     <!-- 1: 5/5 -->
     <g transform="translate(108.16 36.196875)scale(0.2 -0.2)">
      <defs>
       <path id="DejaVuSans-3a" d="M 750 794 
L 1409 794 
L 1409 0 
L 750 0 
L 750 794 
z
M 750 3309 
L 1409 3309 
L 1409 2516 
L 750 2516 
L 750 3309 
z
" transform="scale(0.015625)"/>
       <path id="DejaVuSans-2f" d="M 1625 4666 
L 2156 4666 
L 531 -594 
L 0 -594 
L 1625 4666 
z
" transform="scale(0.015625)"/>
      </defs>
      <use xlink:href="#DejaVuSans-31"/>
      <use xlink:href="#DejaVuSans-3a" x="63.623047"/>
      <use xlink:href="#DejaVuSans-20" x="97.314453"/>
      <use xlink:href="#DejaVuSans-35" x="129.101562"/>
      <use xlink:href="#DejaVuSans-2f" x="192.724609"/>
      <use xlink:href="#DejaVuSans-35" x="226.416016"/>
     </g>
    </g>
    <g id="line2d_58">
     <path d="M 52.16 58.553125 
L 72.16 58.553125 
L 92.16 58.553125 
" style="fill: none; stroke: #00bfbf; stroke-width: 3; stroke-linecap: square"/>
    </g>
    <g id="text_8">
     <!-- -1: 5/5 -->
     <g transform="translate(108.16 65.553125)scale(0.2 -0.2)">
      <use xlink:href="#DejaVuSans-2d"/>
      <use xlink:href="#DejaVuSans-31" x="36.083984"/>
      <use xlink:href="#DejaVuSans-3a" x="99.707031"/>
      <use xlink:href="#DejaVuSans-20" x="133.398438"/>
      <use xlink:href="#DejaVuSans-35" x="165.185547"/>
      <use xlink:href="#DejaVuSans-2f" x="228.808594"/>
      <use xlink:href="#DejaVuSans-35" x="262.5"/>
     </g>
    </g>
    <g id="line2d_59">
     <path d="M 52.16 87.909375 
L 72.16 87.909375 
L 92.16 87.909375 
" style="fill: none; stroke: #bf00bf; stroke-width: 3; stroke-linecap: square"/>
    </g>
    <g id="text_9">
     <!-- -4: 5/5 -->
     <g transform="translate(108.16 94.909375)scale(0.2 -0.2)">
      <defs>
       <path id="DejaVuSans-34" d="M 2419 4116 
L 825 1625 
L 2419 1625 
L 2419 4116 
z
M 2253 4666 
L 3047 4666 
L 3047 1625 
L 3713 1625 
L 3713 1100 
L 3047 1100 
L 3047 0 
L 2419 0 
L 2419 1100 
L 313 1100 
L 313 1709 
L 2253 4666 
z
" transform="scale(0.015625)"/>
      </defs>
      <use xlink:href="#DejaVuSans-2d"/>
      <use xlink:href="#DejaVuSans-34" x="36.083984"/>
      <use xlink:href="#DejaVuSans-3a" x="99.707031"/>
      <use xlink:href="#DejaVuSans-20" x="133.398438"/>
      <use xlink:href="#DejaVuSans-35" x="165.185547"/>
      <use xlink:href="#DejaVuSans-2f" x="228.808594"/>
      <use xlink:href="#DejaVuSans-35" x="262.5"/>
     </g>
    </g>
    <g id="line2d_60">
     <path d="M 52.16 117.265625 
L 72.16 117.265625 
L 92.16 117.265625 
" style="fill: none; stroke: #ff0000; stroke-width: 3; stroke-linecap: square"/>
    </g>
    <g id="text_10">
     <!-- -8: 5/5 -->
     <g transform="translate(108.16 124.265625)scale(0.2 -0.2)">
      <use xlink:href="#DejaVuSans-2d"/>
      <use xlink:href="#DejaVuSans-38" x="36.083984"/>
      <use xlink:href="#DejaVuSans-3a" x="99.707031"/>
      <use xlink:href="#DejaVuSans-20" x="133.398438"/>
      <use xlink:href="#DejaVuSans-35" x="165.185547"/>
      <use xlink:href="#DejaVuSans-2f" x="228.808594"/>
      <use xlink:href="#DejaVuSans-35" x="262.5"/>
     </g>
    </g>
   </g>
  </g>
 </g>
 <defs>
  <clipPath id="p97fd6dd921">
   <rect x="34.16" y="3" width="419.032" height="288.28"/>
  </clipPath>
 </defs>
</svg>
