<?xml version="1.0" encoding="utf-8" standalone="no"?>
<!DOCTYPE svg PUBLIC "-//W3C//DTD SVG 1.1//EN"
  "http://www.w3.org/Graphics/SVG/1.1/DTD/svg11.dtd">
<svg xmlns:xlink="http://www.w3.org/1999/xlink" width="460.8pt" height="345.6pt" viewBox="0 0 460.8 345.6" xmlns="http://www.w3.org/2000/svg" version="1.1">
 <metadata>
  <rdf:RDF xmlns:dc="http://purl.org/dc/elements/1.1/" xmlns:cc="http://creativecommons.org/ns#" xmlns:rdf="http://www.w3.org/1999/02/22-rdf-syntax-ns#">
   <cc:Work>
    <dc:type rdf:resource="http://purl.org/dc/dcmitype/StillImage"/>
    <dc:date>2023-04-03T10:23:06.463063</dc:date>
    <dc:format>image/svg+xml</dc:format>
    <dc:creator>
     <cc:Agent>
      <dc:title>Matplotlib v3.5.2, https://matplotlib.org/</dc:title>
     </cc:Agent>
    </dc:creator>
   </cc:Work>
  </rdf:RDF>
 </metadata>
 <defs>
  <style type="text/css">*{stroke-linejoin: round; stroke-linecap: butt}</style>
 </defs>
 <g id="figure_1">
  <g id="patch_1">
   <path d="M 0 345.6 
L 460.8 345.6 
L 460.8 0 
L 0 0 
z
" style="fill: #ffffff"/>
  </g>
  <g id="axes_1">
   <g id="patch_2">
    <path d="M 34.16 291.28 
L 453.192 291.28 
L 453.192 3 
L 34.16 3 
z
" style="fill: #ffffff"/>
   </g>
   <g id="matplotlib.axis_1">
    <g id="xtick_1">
     <g id="line2d_1">
      <path d="M 85.989696 291.28 
L 85.989696 3 
" clip-path="url(#pc4f764bbd5)" style="fill: none; stroke: #b0b0b0; stroke-width: 0.8; stroke-linecap: square"/>
     </g>
     <g id="line2d_2">
      <defs>
       <path id="m241770bf97" d="M 0 0 
L 0 3.5 
" style="stroke: #000000; stroke-width: 0.8"/>
      </defs>
      <g>
       <use xlink:href="#m241770bf97" x="85.989696" y="291.28" style="stroke: #000000; stroke-width: 0.8"/>
      </g>
     </g>
     <g id="text_1">
      <!-- -1 -->
      <g transform="translate(76.019383 313.476875)scale(0.2 -0.2)">
       <defs>
        <path id="DejaVuSans-2d" d="M 313 2009 
L 1997 2009 
L 1997 1497 
L 313 1497 
L 313 2009 
z
" transform="scale(0.015625)"/>
        <path id="DejaVuSans-31" d="M 794 531 
L 1825 531 
L 1825 4091 
L 703 3866 
L 703 4441 
L 1819 4666 
L 2450 4666 
L 2450 531 
L 3481 531 
L 3481 0 
L 794 0 
L 794 531 
z
" transform="scale(0.015625)"/>
       </defs>
       <use xlink:href="#DejaVuSans-2d"/>
       <use xlink:href="#DejaVuSans-31" x="36.083984"/>
      </g>
     </g>
    </g>
    <g id="xtick_2">
     <g id="line2d_3">
      <path d="M 243.676 291.28 
L 243.676 3 
" clip-path="url(#pc4f764bbd5)" style="fill: none; stroke: #b0b0b0; stroke-width: 0.8; stroke-linecap: square"/>
     </g>
     <g id="line2d_4">
      <g>
       <use xlink:href="#m241770bf97" x="243.676" y="291.28" style="stroke: #000000; stroke-width: 0.8"/>
      </g>
     </g>
     <g id="text_2">
      <!-- 0 -->
      <g transform="translate(237.3135 313.476875)scale(0.2 -0.2)">
       <defs>
        <path id="DejaVuSans-30" d="M 2034 4250 
Q 1547 4250 1301 3770 
Q 1056 3291 1056 2328 
Q 1056 1369 1301 889 
Q 1547 409 2034 409 
Q 2525 409 2770 889 
Q 3016 1369 3016 2328 
Q 3016 3291 2770 3770 
Q 2525 4250 2034 4250 
z
M 2034 4750 
Q 2819 4750 3233 4129 
Q 3647 3509 3647 2328 
Q 3647 1150 3233 529 
Q 2819 -91 2034 -91 
Q 1250 -91 836 529 
Q 422 1150 422 2328 
Q 422 3509 836 4129 
Q 1250 4750 2034 4750 
z
" transform="scale(0.015625)"/>
       </defs>
       <use xlink:href="#DejaVuSans-30"/>
      </g>
     </g>
    </g>
    <g id="xtick_3">
     <g id="line2d_5">
      <path d="M 401.362304 291.28 
L 401.362304 3 
" clip-path="url(#pc4f764bbd5)" style="fill: none; stroke: #b0b0b0; stroke-width: 0.8; stroke-linecap: square"/>
     </g>
     <g id="line2d_6">
      <g>
       <use xlink:href="#m241770bf97" x="401.362304" y="291.28" style="stroke: #000000; stroke-width: 0.8"/>
      </g>
     </g>
     <g id="text_3">
      <!-- 1 -->
      <g transform="translate(394.999804 313.476875)scale(0.2 -0.2)">
       <use xlink:href="#DejaVuSans-31"/>
      </g>
     </g>
    </g>
    <g id="xtick_4">
     <g id="line2d_7">
      <defs>
       <path id="m587fc46506" d="M 0 0 
L 0 2 
" style="stroke: #000000; stroke-width: 0.6"/>
      </defs>
      <g>
       <use xlink:href="#m587fc46506" x="38.521388" y="291.28" style="stroke: #000000; stroke-width: 0.6"/>
      </g>
     </g>
    </g>
    <g id="xtick_5">
     <g id="line2d_8">
      <g>
       <use xlink:href="#m587fc46506" x="51.007186" y="291.28" style="stroke: #000000; stroke-width: 0.6"/>
      </g>
     </g>
    </g>
    <g id="xtick_6">
     <g id="line2d_9">
      <g>
       <use xlink:href="#m587fc46506" x="61.563778" y="291.28" style="stroke: #000000; stroke-width: 0.6"/>
      </g>
     </g>
    </g>
    <g id="xtick_7">
     <g id="line2d_10">
      <g>
       <use xlink:href="#m587fc46506" x="70.708314" y="291.28" style="stroke: #000000; stroke-width: 0.6"/>
      </g>
     </g>
    </g>
    <g id="xtick_8">
     <g id="line2d_11">
      <g>
       <use xlink:href="#m587fc46506" x="78.774366" y="291.28" style="stroke: #000000; stroke-width: 0.6"/>
      </g>
     </g>
    </g>
    <g id="xtick_9">
     <g id="line2d_12">
      <g>
       <use xlink:href="#m587fc46506" x="133.458003" y="291.28" style="stroke: #000000; stroke-width: 0.6"/>
      </g>
     </g>
    </g>
    <g id="xtick_10">
     <g id="line2d_13">
      <g>
       <use xlink:href="#m587fc46506" x="161.225183" y="291.28" style="stroke: #000000; stroke-width: 0.6"/>
      </g>
     </g>
    </g>
    <g id="xtick_11">
     <g id="line2d_14">
      <g>
       <use xlink:href="#m587fc46506" x="180.926311" y="291.28" style="stroke: #000000; stroke-width: 0.6"/>
      </g>
     </g>
    </g>
    <g id="xtick_12">
     <g id="line2d_15">
      <g>
       <use xlink:href="#m587fc46506" x="196.207693" y="291.28" style="stroke: #000000; stroke-width: 0.6"/>
      </g>
     </g>
    </g>
    <g id="xtick_13">
     <g id="line2d_16">
      <g>
       <use xlink:href="#m587fc46506" x="208.693491" y="291.28" style="stroke: #000000; stroke-width: 0.6"/>
      </g>
     </g>
    </g>
    <g id="xtick_14">
     <g id="line2d_17">
      <g>
       <use xlink:href="#m587fc46506" x="219.250082" y="291.28" style="stroke: #000000; stroke-width: 0.6"/>
      </g>
     </g>
    </g>
    <g id="xtick_15">
     <g id="line2d_18">
      <g>
       <use xlink:href="#m587fc46506" x="228.394618" y="291.28" style="stroke: #000000; stroke-width: 0.6"/>
      </g>
     </g>
    </g>
    <g id="xtick_16">
     <g id="line2d_19">
      <g>
       <use xlink:href="#m587fc46506" x="236.46067" y="291.28" style="stroke: #000000; stroke-width: 0.6"/>
      </g>
     </g>
    </g>
    <g id="xtick_17">
     <g id="line2d_20">
      <g>
       <use xlink:href="#m587fc46506" x="291.144307" y="291.28" style="stroke: #000000; stroke-width: 0.6"/>
      </g>
     </g>
    </g>
    <g id="xtick_18">
     <g id="line2d_21">
      <g>
       <use xlink:href="#m587fc46506" x="318.911487" y="291.28" style="stroke: #000000; stroke-width: 0.6"/>
      </g>
     </g>
    </g>
    <g id="xtick_19">
     <g id="line2d_22">
      <g>
       <use xlink:href="#m587fc46506" x="338.612615" y="291.28" style="stroke: #000000; stroke-width: 0.6"/>
      </g>
     </g>
    </g>
    <g id="xtick_20">
     <g id="line2d_23">
      <g>
       <use xlink:href="#m587fc46506" x="353.893997" y="291.28" style="stroke: #000000; stroke-width: 0.6"/>
      </g>
     </g>
    </g>
    <g id="xtick_21">
     <g id="line2d_24">
      <g>
       <use xlink:href="#m587fc46506" x="366.379795" y="291.28" style="stroke: #000000; stroke-width: 0.6"/>
      </g>
     </g>
    </g>
    <g id="xtick_22">
     <g id="line2d_25">
      <g>
       <use xlink:href="#m587fc46506" x="376.936387" y="291.28" style="stroke: #000000; stroke-width: 0.6"/>
      </g>
     </g>
    </g>
    <g id="xtick_23">
     <g id="line2d_26">
      <g>
       <use xlink:href="#m587fc46506" x="386.080922" y="291.28" style="stroke: #000000; stroke-width: 0.6"/>
      </g>
     </g>
    </g>
    <g id="xtick_24">
     <g id="line2d_27">
      <g>
       <use xlink:href="#m587fc46506" x="394.146975" y="291.28" style="stroke: #000000; stroke-width: 0.6"/>
      </g>
     </g>
    </g>
    <g id="xtick_25">
     <g id="line2d_28">
      <g>
       <use xlink:href="#m587fc46506" x="448.830612" y="291.28" style="stroke: #000000; stroke-width: 0.6"/>
      </g>
     </g>
    </g>
    <g id="text_4">
     <!-- log10 of FEvals ratio -->
     <g transform="translate(141.371312 336.833125)scale(0.2 -0.2)">
      <defs>
       <path id="DejaVuSans-6c" d="M 603 4863 
L 1178 4863 
L 1178 0 
L 603 0 
L 603 4863 
z
" transform="scale(0.015625)"/>
       <path id="DejaVuSans-6f" d="M 1959 3097 
Q 1497 3097 1228 2736 
Q 959 2375 959 1747 
Q 959 1119 1226 758 
Q 1494 397 1959 397 
Q 2419 397 2687 759 
Q 2956 1122 2956 1747 
Q 2956 2369 2687 2733 
Q 2419 3097 1959 3097 
z
M 1959 3584 
Q 2709 3584 3137 3096 
Q 3566 2609 3566 1747 
Q 3566 888 3137 398 
Q 2709 -91 1959 -91 
Q 1206 -91 779 398 
Q 353 888 353 1747 
Q 353 2609 779 3096 
Q 1206 3584 1959 3584 
z
" transform="scale(0.015625)"/>
       <path id="DejaVuSans-67" d="M 2906 1791 
Q 2906 2416 2648 2759 
Q 2391 3103 1925 3103 
Q 1463 3103 1205 2759 
Q 947 2416 947 1791 
Q 947 1169 1205 825 
Q 1463 481 1925 481 
Q 2391 481 2648 825 
Q 2906 1169 2906 1791 
z
M 3481 434 
Q 3481 -459 3084 -895 
Q 2688 -1331 1869 -1331 
Q 1566 -1331 1297 -1286 
Q 1028 -1241 775 -1147 
L 775 -588 
Q 1028 -725 1275 -790 
Q 1522 -856 1778 -856 
Q 2344 -856 2625 -561 
Q 2906 -266 2906 331 
L 2906 616 
Q 2728 306 2450 153 
Q 2172 0 1784 0 
Q 1141 0 747 490 
Q 353 981 353 1791 
Q 353 2603 747 3093 
Q 1141 3584 1784 3584 
Q 2172 3584 2450 3431 
Q 2728 3278 2906 2969 
L 2906 3500 
L 3481 3500 
L 3481 434 
z
" transform="scale(0.015625)"/>
       <path id="DejaVuSans-20" transform="scale(0.015625)"/>
       <path id="DejaVuSans-66" d="M 2375 4863 
L 2375 4384 
L 1825 4384 
Q 1516 4384 1395 4259 
Q 1275 4134 1275 3809 
L 1275 3500 
L 2222 3500 
L 2222 3053 
L 1275 3053 
L 1275 0 
L 697 0 
L 697 3053 
L 147 3053 
L 147 3500 
L 697 3500 
L 697 3744 
Q 697 4328 969 4595 
Q 1241 4863 1831 4863 
L 2375 4863 
z
" transform="scale(0.015625)"/>
       <path id="DejaVuSans-46" d="M 628 4666 
L 3309 4666 
L 3309 4134 
L 1259 4134 
L 1259 2759 
L 3109 2759 
L 3109 2228 
L 1259 2228 
L 1259 0 
L 628 0 
L 628 4666 
z
" transform="scale(0.015625)"/>
       <path id="DejaVuSans-45" d="M 628 4666 
L 3578 4666 
L 3578 4134 
L 1259 4134 
L 1259 2753 
L 3481 2753 
L 3481 2222 
L 1259 2222 
L 1259 531 
L 3634 531 
L 3634 0 
L 628 0 
L 628 4666 
z
" transform="scale(0.015625)"/>
       <path id="DejaVuSans-76" d="M 191 3500 
L 800 3500 
L 1894 563 
L 2988 3500 
L 3597 3500 
L 2284 0 
L 1503 0 
L 191 3500 
z
" transform="scale(0.015625)"/>
       <path id="DejaVuSans-61" d="M 2194 1759 
Q 1497 1759 1228 1600 
Q 959 1441 959 1056 
Q 959 750 1161 570 
Q 1363 391 1709 391 
Q 2188 391 2477 730 
Q 2766 1069 2766 1631 
L 2766 1759 
L 2194 1759 
z
M 3341 1997 
L 3341 0 
L 2766 0 
L 2766 531 
Q 2569 213 2275 61 
Q 1981 -91 1556 -91 
Q 1019 -91 701 211 
Q 384 513 384 1019 
Q 384 1609 779 1909 
Q 1175 2209 1959 2209 
L 2766 2209 
L 2766 2266 
Q 2766 2663 2505 2880 
Q 2244 3097 1772 3097 
Q 1472 3097 1187 3025 
Q 903 2953 641 2809 
L 641 3341 
Q 956 3463 1253 3523 
Q 1550 3584 1831 3584 
Q 2591 3584 2966 3190 
Q 3341 2797 3341 1997 
z
" transform="scale(0.015625)"/>
       <path id="DejaVuSans-73" d="M 2834 3397 
L 2834 2853 
Q 2591 2978 2328 3040 
Q 2066 3103 1784 3103 
Q 1356 3103 1142 2972 
Q 928 2841 928 2578 
Q 928 2378 1081 2264 
Q 1234 2150 1697 2047 
L 1894 2003 
Q 2506 1872 2764 1633 
Q 3022 1394 3022 966 
Q 3022 478 2636 193 
Q 2250 -91 1575 -91 
Q 1294 -91 989 -36 
Q 684 19 347 128 
L 347 722 
Q 666 556 975 473 
Q 1284 391 1588 391 
Q 1994 391 2212 530 
Q 2431 669 2431 922 
Q 2431 1156 2273 1281 
Q 2116 1406 1581 1522 
L 1381 1569 
Q 847 1681 609 1914 
Q 372 2147 372 2553 
Q 372 3047 722 3315 
Q 1072 3584 1716 3584 
Q 2034 3584 2315 3537 
Q 2597 3491 2834 3397 
z
" transform="scale(0.015625)"/>
       <path id="DejaVuSans-72" d="M 2631 2963 
Q 2534 3019 2420 3045 
Q 2306 3072 2169 3072 
Q 1681 3072 1420 2755 
Q 1159 2438 1159 1844 
L 1159 0 
L 581 0 
L 581 3500 
L 1159 3500 
L 1159 2956 
Q 1341 3275 1631 3429 
Q 1922 3584 2338 3584 
Q 2397 3584 2469 3576 
Q 2541 3569 2628 3553 
L 2631 2963 
z
" transform="scale(0.015625)"/>
       <path id="DejaVuSans-74" d="M 1172 4494 
L 1172 3500 
L 2356 3500 
L 2356 3053 
L 1172 3053 
L 1172 1153 
Q 1172 725 1289 603 
Q 1406 481 1766 481 
L 2356 481 
L 2356 0 
L 1766 0 
Q 1100 0 847 248 
Q 594 497 594 1153 
L 594 3053 
L 172 3053 
L 172 3500 
L 594 3500 
L 594 4494 
L 1172 4494 
z
" transform="scale(0.015625)"/>
       <path id="DejaVuSans-69" d="M 603 3500 
L 1178 3500 
L 1178 0 
L 603 0 
L 603 3500 
z
M 603 4863 
L 1178 4863 
L 1178 4134 
L 603 4134 
L 603 4863 
z
" transform="scale(0.015625)"/>
      </defs>
      <use xlink:href="#DejaVuSans-6c"/>
      <use xlink:href="#DejaVuSans-6f" x="27.783203"/>
      <use xlink:href="#DejaVuSans-67" x="88.964844"/>
      <use xlink:href="#DejaVuSans-31" x="152.441406"/>
      <use xlink:href="#DejaVuSans-30" x="216.064453"/>
      <use xlink:href="#DejaVuSans-20" x="279.6875"/>
      <use xlink:href="#DejaVuSans-6f" x="311.474609"/>
      <use xlink:href="#DejaVuSans-66" x="372.65625"/>
      <use xlink:href="#DejaVuSans-20" x="407.861328"/>
      <use xlink:href="#DejaVuSans-46" x="439.648438"/>
      <use xlink:href="#DejaVuSans-45" x="497.167969"/>
      <use xlink:href="#DejaVuSans-76" x="560.351562"/>
      <use xlink:href="#DejaVuSans-61" x="619.53125"/>
      <use xlink:href="#DejaVuSans-6c" x="680.810547"/>
      <use xlink:href="#DejaVuSans-73" x="708.59375"/>
      <use xlink:href="#DejaVuSans-20" x="760.693359"/>
      <use xlink:href="#DejaVuSans-72" x="792.480469"/>
      <use xlink:href="#DejaVuSans-61" x="833.59375"/>
      <use xlink:href="#DejaVuSans-74" x="894.873047"/>
      <use xlink:href="#DejaVuSans-69" x="934.082031"/>
      <use xlink:href="#DejaVuSans-6f" x="961.865234"/>
     </g>
    </g>
   </g>
   <g id="matplotlib.axis_2">
    <g id="ytick_1">
     <g id="line2d_29">
      <path d="M 34.16 288.453725 
L 453.192 288.453725 
" clip-path="url(#pc4f764bbd5)" style="fill: none; stroke: #b0b0b0; stroke-width: 0.8; stroke-linecap: square"/>
     </g>
     <g id="line2d_30">
      <defs>
       <path id="mfcfcdc0e0e" d="M 0 0 
L -3.5 0 
" style="stroke: #000000; stroke-width: 0.8"/>
      </defs>
      <g>
       <use xlink:href="#mfcfcdc0e0e" x="34.16" y="288.453725" style="stroke: #000000; stroke-width: 0.8"/>
      </g>
     </g>
    </g>
    <g id="ytick_2">
     <g id="line2d_31">
      <path d="M 34.16 217.796863 
L 453.192 217.796863 
" clip-path="url(#pc4f764bbd5)" style="fill: none; stroke: #b0b0b0; stroke-width: 0.8; stroke-linecap: square"/>
     </g>
     <g id="line2d_32">
      <g>
       <use xlink:href="#mfcfcdc0e0e" x="34.16" y="217.796863" style="stroke: #000000; stroke-width: 0.8"/>
      </g>
     </g>
    </g>
    <g id="ytick_3">
     <g id="line2d_33">
      <path d="M 34.16 147.14 
L 453.192 147.14 
" clip-path="url(#pc4f764bbd5)" style="fill: none; stroke: #b0b0b0; stroke-width: 0.8; stroke-linecap: square"/>
     </g>
     <g id="line2d_34">
      <g>
       <use xlink:href="#mfcfcdc0e0e" x="34.16" y="147.14" style="stroke: #000000; stroke-width: 0.8"/>
      </g>
     </g>
    </g>
    <g id="ytick_4">
     <g id="line2d_35">
      <path d="M 34.16 76.483137 
L 453.192 76.483137 
" clip-path="url(#pc4f764bbd5)" style="fill: none; stroke: #b0b0b0; stroke-width: 0.8; stroke-linecap: square"/>
     </g>
     <g id="line2d_36">
      <g>
       <use xlink:href="#mfcfcdc0e0e" x="34.16" y="76.483137" style="stroke: #000000; stroke-width: 0.8"/>
      </g>
     </g>
    </g>
    <g id="ytick_5">
     <g id="line2d_37">
      <path d="M 34.16 5.826275 
L 453.192 5.826275 
" clip-path="url(#pc4f764bbd5)" style="fill: none; stroke: #b0b0b0; stroke-width: 0.8; stroke-linecap: square"/>
     </g>
     <g id="line2d_38">
      <g>
       <use xlink:href="#mfcfcdc0e0e" x="34.16" y="5.826275" style="stroke: #000000; stroke-width: 0.8"/>
      </g>
     </g>
    </g>
    <g id="text_5">
     <!-- proportion of trials -->
     <g transform="translate(19.000625 240.14625)rotate(-90)scale(0.2 -0.2)">
      <defs>
       <path id="DejaVuSans-70" d="M 1159 525 
L 1159 -1331 
L 581 -1331 
L 581 3500 
L 1159 3500 
L 1159 2969 
Q 1341 3281 1617 3432 
Q 1894 3584 2278 3584 
Q 2916 3584 3314 3078 
Q 3713 2572 3713 1747 
Q 3713 922 3314 415 
Q 2916 -91 2278 -91 
Q 1894 -91 1617 61 
Q 1341 213 1159 525 
z
M 3116 1747 
Q 3116 2381 2855 2742 
Q 2594 3103 2138 3103 
Q 1681 3103 1420 2742 
Q 1159 2381 1159 1747 
Q 1159 1113 1420 752 
Q 1681 391 2138 391 
Q 2594 391 2855 752 
Q 3116 1113 3116 1747 
z
" transform="scale(0.015625)"/>
       <path id="DejaVuSans-6e" d="M 3513 2113 
L 3513 0 
L 2938 0 
L 2938 2094 
Q 2938 2591 2744 2837 
Q 2550 3084 2163 3084 
Q 1697 3084 1428 2787 
Q 1159 2491 1159 1978 
L 1159 0 
L 581 0 
L 581 3500 
L 1159 3500 
L 1159 2956 
Q 1366 3272 1645 3428 
Q 1925 3584 2291 3584 
Q 2894 3584 3203 3211 
Q 3513 2838 3513 2113 
z
" transform="scale(0.015625)"/>
      </defs>
      <use xlink:href="#DejaVuSans-70"/>
      <use xlink:href="#DejaVuSans-72" x="63.476562"/>
      <use xlink:href="#DejaVuSans-6f" x="102.339844"/>
      <use xlink:href="#DejaVuSans-70" x="163.521484"/>
      <use xlink:href="#DejaVuSans-6f" x="226.998047"/>
      <use xlink:href="#DejaVuSans-72" x="288.179688"/>
      <use xlink:href="#DejaVuSans-74" x="329.292969"/>
      <use xlink:href="#DejaVuSans-69" x="368.501953"/>
      <use xlink:href="#DejaVuSans-6f" x="396.285156"/>
      <use xlink:href="#DejaVuSans-6e" x="457.466797"/>
      <use xlink:href="#DejaVuSans-20" x="520.845703"/>
      <use xlink:href="#DejaVuSans-6f" x="552.632812"/>
      <use xlink:href="#DejaVuSans-66" x="613.814453"/>
      <use xlink:href="#DejaVuSans-20" x="649.019531"/>
      <use xlink:href="#DejaVuSans-74" x="680.806641"/>
      <use xlink:href="#DejaVuSans-72" x="720.015625"/>
      <use xlink:href="#DejaVuSans-69" x="761.128906"/>
      <use xlink:href="#DejaVuSans-61" x="788.912109"/>
      <use xlink:href="#DejaVuSans-6c" x="850.191406"/>
      <use xlink:href="#DejaVuSans-73" x="877.974609"/>
     </g>
    </g>
   </g>
   <g id="line2d_39">
    <path d="M 34.16 288.453725 
L 101.115726 288.453725 
L 101.115726 287.700052 
L 102.152982 287.700052 
L 102.152982 286.946379 
L 103.029723 286.946379 
L 103.029723 286.192706 
L 103.174761 286.192706 
L 103.174761 285.439033 
L 103.367669 285.439033 
L 103.367669 284.685359 
L 104.466467 284.685359 
L 104.466467 283.931686 
L 108.737951 283.931686 
L 108.737951 283.178013 
L 109.004592 283.178013 
L 109.004592 282.42434 
L 109.798343 282.42434 
L 109.798343 280.916993 
L 109.973489 280.916993 
L 109.973489 280.16332 
L 112.210547 280.16332 
L 112.210547 279.409647 
L 120.567554 279.409647 
L 120.567554 278.655974 
L 132.156544 278.655974 
L 132.156544 277.902301 
L 133.1938 277.902301 
L 133.1938 277.148627 
L 134.070542 277.148627 
L 134.070542 276.394954 
L 134.21558 276.394954 
L 134.21558 275.641281 
L 134.408488 275.641281 
L 134.408488 274.887608 
L 135.507286 274.887608 
L 135.507286 274.133935 
L 139.778769 274.133935 
L 139.778769 273.380261 
L 140.045411 273.380261 
L 140.045411 272.626588 
L 140.839161 272.626588 
L 140.839161 271.119242 
L 141.014308 271.119242 
L 141.014308 270.365569 
L 143.251366 270.365569 
L 143.251366 269.611895 
L 151.608373 269.611895 
L 151.608373 268.858222 
L 172.128912 268.858222 
L 172.128912 268.104549 
L 175.985263 268.104549 
L 175.985263 267.350876 
L 185.818486 267.350876 
L 185.818486 266.597203 
L 191.739872 266.597203 
L 191.739872 265.843529 
L 195.390797 265.843529 
L 195.390797 265.089856 
L 196.207693 265.089856 
L 196.306315 263.58251 
L 196.593509 263.58251 
L 196.593509 262.828837 
L 200.401508 262.828837 
L 200.401508 262.075163 
L 201.401258 262.075163 
L 201.401258 261.32149 
L 202.359889 261.32149 
L 202.359889 260.567817 
L 205.554939 260.567817 
L 205.554939 259.814144 
L 206.455082 259.814144 
L 206.493067 258.306797 
L 206.794043 258.306797 
L 206.812831 256.799451 
L 207.026082 256.799451 
L 207.026082 256.045778 
L 207.476487 256.045778 
L 207.476487 255.292105 
L 209.565194 255.292105 
L 209.675056 253.784758 
L 210.023813 253.784758 
L 210.023813 253.031085 
L 210.889236 253.031085 
L 210.908024 251.523739 
L 211.571681 251.523739 
L 211.571681 250.770065 
L 211.979477 250.770065 
L 211.979477 250.016392 
L 212.332621 250.016392 
L 212.332621 249.262719 
L 213.660387 249.262719 
L 213.660387 248.509046 
L 214.119006 248.509046 
L 214.119006 247.755373 
L 215.001757 247.755373 
L 215.001757 247.001699 
L 215.72863 247.001699 
L 215.72863 246.248026 
L 216.296823 246.248026 
L 216.296823 245.494353 
L 216.427815 245.494353 
L 216.427815 244.74068 
L 216.859305 244.74068 
L 216.89952 243.233333 
L 218.033051 243.233333 
L 218.033051 242.47966 
L 218.359205 242.47966 
L 218.359205 241.725987 
L 218.754191 241.725987 
L 218.754191 240.972314 
L 219.038269 240.972314 
L 219.038269 240.218641 
L 219.469577 240.218641 
L 219.469577 239.464967 
L 219.749557 239.464967 
L 219.855394 237.203948 
L 220.162783 237.203948 
L 220.181571 235.696601 
L 220.668188 235.696601 
L 220.668188 234.942928 
L 220.813227 234.942928 
L 220.845228 233.435582 
L 220.994713 233.435582 
L 221.006135 231.928235 
L 222.104933 231.928235 
L 222.104933 231.174562 
L 222.238737 231.174562 
L 222.343604 229.667216 
L 222.350397 229.667216 
L 222.454398 228.159869 
L 222.467205 228.159869 
L 222.485993 226.652523 
L 222.798786 226.652523 
L 222.798786 225.89885 
L 222.933935 225.89885 
L 222.933935 225.145176 
L 223.133462 225.145176 
L 223.149649 223.63783 
L 223.392554 223.63783 
L 223.392554 222.884157 
L 223.84475 222.884157 
L 223.84475 222.130484 
L 224.424528 222.130484 
L 224.424528 221.37681 
L 224.663142 221.37681 
L 224.663142 220.623137 
L 225.165899 220.623137 
L 225.238356 219.115791 
L 225.696975 219.115791 
L 225.701362 217.608444 
L 226.104027 217.608444 
L 226.104027 216.854771 
L 226.376416 216.854771 
L 226.438797 215.347425 
L 226.643057 215.347425 
L 226.643057 214.593752 
L 226.784551 214.593752 
L 226.893979 212.332732 
L 227.436808 212.332732 
L 227.466995 210.071712 
L 227.611955 210.071712 
L 227.611955 209.318039 
L 228.005783 209.318039 
L 228.005783 208.564366 
L 228.259144 208.564366 
L 228.259144 207.810693 
L 228.597329 207.810693 
L 228.597329 207.05702 
L 228.729629 207.05702 
L 228.780001 205.549673 
L 229.555702 205.549673 
L 229.633719 204.042327 
L 229.849013 204.042327 
L 229.849013 203.288654 
L 230.014321 203.288654 
L 230.019536 201.781307 
L 230.268261 201.781307 
L 230.268261 201.027634 
L 230.571847 201.027634 
L 230.571847 200.273961 
L 230.957664 200.273961 
L 230.957664 199.520288 
L 231.299174 199.520288 
L 231.299174 198.766614 
L 231.556264 198.766614 
L 231.588468 197.259268 
L 231.727946 197.259268 
L 231.727946 196.505595 
L 232.323129 196.505595 
L 232.40701 194.998248 
L 232.572682 194.998248 
L 232.572682 194.244575 
L 232.824823 194.244575 
L 232.824823 193.490902 
L 233.118297 193.490902 
L 233.118297 192.737229 
L 233.491121 192.737229 
L 233.491121 191.983556 
L 233.852339 191.983556 
L 233.852339 191.229882 
L 234.032367 191.229882 
L 234.032367 190.476209 
L 234.446782 190.476209 
L 234.446782 189.722536 
L 234.643536 189.722536 
L 234.711431 188.21519 
L 234.827285 188.21519 
L 234.827285 187.461516 
L 235.032321 187.461516 
L 235.032321 186.707843 
L 235.355853 186.707843 
L 235.422719 185.200497 
L 235.489509 185.200497 
L 235.509392 183.69315 
L 235.680792 183.69315 
L 235.765413 180.678458 
L 236.167527 180.678458 
L 236.167527 179.924784 
L 236.371512 179.924784 
L 236.371512 179.171111 
L 236.557534 179.171111 
L 236.660807 176.910092 
L 236.6836 176.910092 
L 236.702572 175.402745 
L 236.811921 175.402745 
L 236.89548 173.141725 
L 237.14894 173.141725 
L 237.187436 171.634379 
L 237.331111 171.634379 
L 237.331111 170.880706 
L 237.532771 170.880706 
L 237.544708 169.373359 
L 237.741864 169.373359 
L 237.741864 168.619686 
L 237.994278 168.619686 
L 238.028565 166.358667 
L 238.20602 166.358667 
L 238.285655 163.343974 
L 238.317859 163.343974 
L 238.349713 161.836627 
L 238.471948 161.836627 
L 238.561259 158.821935 
L 238.685169 158.821935 
L 238.685169 158.068261 
L 238.9237 158.068261 
L 239.028777 155.807242 
L 239.202773 155.807242 
L 239.202773 155.053569 
L 239.397503 155.053569 
L 239.492068 152.792549 
L 239.524287 152.792549 
L 239.53116 151.285203 
L 239.697978 151.285203 
L 239.740065 149.777856 
L 239.850284 149.777856 
L 239.850284 149.024183 
L 240.107374 149.024183 
L 240.139579 147.516837 
L 240.37501 147.516837 
L 240.453499 146.00949 
L 240.486297 146.00949 
L 240.486297 145.255817 
L 240.609352 145.255817 
L 240.617647 143.748471 
L 240.726546 143.748471 
L 240.726546 142.994797 
L 240.853572 142.994797 
L 240.853572 142.241124 
L 240.983636 142.241124 
L 241.01584 140.733778 
L 241.229087 140.733778 
L 241.229087 139.980105 
L 241.409161 139.980105 
L 241.492463 137.719085 
L 241.573308 137.719085 
L 241.586358 136.211739 
L 241.731775 136.211739 
L 241.781758 133.950719 
L 241.849697 133.950719 
L 241.849697 133.197046 
L 242.09837 133.197046 
L 242.09837 132.443373 
L 242.21715 132.443373 
L 242.318231 130.182353 
L 242.334112 130.182353 
L 242.420506 127.921333 
L 242.451888 127.921333 
L 242.532403 123.399294 
L 242.616035 123.399294 
L 242.726819 121.891948 
L 242.789294 121.891948 
L 242.789294 121.138275 
L 242.965351 121.138275 
L 242.965351 120.384601 
L 243.128525 120.384601 
L 243.155672 118.877255 
L 243.326154 118.877255 
L 243.41782 115.862562 
L 243.5013 115.862562 
L 243.565938 114.355216 
L 243.7743 114.355216 
L 243.807098 112.847869 
L 243.938447 112.847869 
L 244.035488 111.340523 
L 244.149815 111.340523 
L 244.250948 109.079503 
L 244.313962 109.079503 
L 244.402791 107.572157 
L 244.507086 107.572157 
L 244.540242 104.557464 
L 244.671234 104.557464 
L 244.671234 103.803791 
L 244.937976 103.803791 
L 244.937976 103.050118 
L 245.141231 103.050118 
L 245.141231 102.296444 
L 245.447348 102.296444 
L 245.447348 101.542771 
L 245.647547 101.542771 
L 245.738358 99.281752 
L 245.811695 99.281752 
L 245.918877 96.267059 
L 246.050226 96.267059 
L 246.050226 95.513386 
L 246.317518 95.513386 
L 246.317518 94.759712 
L 246.462157 94.759712 
L 246.519464 91.74502 
L 246.650813 91.74502 
L 246.703335 90.237673 
L 246.88748 90.237673 
L 246.88748 89.484 
L 247.104401 89.484 
L 247.197323 87.22298 
L 247.347801 87.22298 
L 247.347801 86.469307 
L 247.620408 86.469307 
L 247.620408 85.715634 
L 247.764221 85.715634 
L 247.870104 84.208288 
L 247.909259 84.208288 
L 247.909259 83.454614 
L 248.102167 83.454614 
L 248.208289 81.947268 
L 248.278609 81.947268 
L 248.278609 81.193595 
L 248.503308 81.193595 
L 248.503308 80.439922 
L 248.720137 80.439922 
L 248.720137 79.686248 
L 248.889125 79.686248 
L 248.979627 77.425229 
L 249.182882 77.425229 
L 249.200965 75.917882 
L 249.382885 75.917882 
L 249.415683 74.410536 
L 249.547032 74.410536 
L 249.547032 73.656863 
L 249.802382 73.656863 
L 249.802382 72.90319 
L 250.11805 72.90319 
L 250.150848 71.395843 
L 250.282198 71.395843 
L 250.282198 70.64217 
L 250.560611 70.64217 
L 250.568299 69.134824 
L 251.292986 69.134824 
L 251.292986 68.38115 
L 251.511083 68.38115 
L 251.511083 67.627477 
L 251.900355 67.627477 
L 251.933153 66.120131 
L 252.064502 66.120131 
L 252.136408 63.859111 
L 252.204361 63.859111 
L 252.267757 62.351765 
L 252.337924 62.351765 
L 252.337924 61.598092 
L 252.676109 61.598092 
L 252.723741 60.090745 
L 253.061926 60.090745 
L 253.061926 59.337072 
L 253.326784 59.337072 
L 253.326784 58.583399 
L 253.472449 58.583399 
L 253.514137 56.322379 
L 253.645486 56.322379 
L 253.73909 54.061359 
L 254.095365 54.061359 
L 254.095365 53.307686 
L 254.532841 53.307686 
L 254.643281 51.046667 
L 254.707987 51.046667 
L 254.707987 50.292993 
L 256.7599 50.292993 
L 256.7599 49.53932 
L 256.924465 49.53932 
L 256.945045 48.031974 
L 257.352824 48.031974 
L 257.352824 47.278301 
L 257.53149 47.278301 
L 257.53149 46.524627 
L 257.869674 46.524627 
L 257.869674 45.770954 
L 259.111102 45.770954 
L 259.111102 45.017281 
L 259.496919 45.017281 
L 259.496919 44.263608 
L 261.227721 44.263608 
L 261.227721 43.509935 
L 261.613538 43.509935 
L 261.613538 42.756261 
L 261.820645 42.756261 
L 261.820645 42.002588 
L 262.206462 42.002588 
L 262.206462 41.248915 
L 264.304667 41.248915 
L 264.304667 40.495242 
L 265.302052 40.495242 
L 265.302052 39.741569 
L 266.421286 39.741569 
L 266.421286 38.987895 
L 266.71839 38.987895 
L 266.71839 38.234222 
L 267.01421 38.234222 
L 267.01421 37.480549 
L 267.231368 37.480549 
L 267.231368 36.726876 
L 271.18621 36.726876 
L 271.18621 35.973203 
L 271.572027 35.973203 
L 271.572027 35.219529 
L 271.699189 35.219529 
L 271.699189 34.465856 
L 272.085005 34.465856 
L 272.085005 33.712183 
L 276.379776 33.712183 
L 276.379776 32.95851 
L 276.535425 32.95851 
L 276.535425 32.204837 
L 276.892754 32.204837 
L 276.892754 31.451163 
L 279.998714 31.451163 
L 279.998714 30.69749 
L 281.003245 30.69749 
L 281.003245 29.943817 
L 281.389062 29.943817 
L 281.389062 29.190144 
L 286.196811 29.190144 
L 286.196811 28.436471 
L 293.623729 28.436471 
L 293.623729 27.682797 
L 295.675073 27.682797 
L 295.675073 26.929124 
L 298.194246 26.929124 
L 298.194246 26.175451 
L 298.451336 26.175451 
L 298.48354 24.668105 
L 299.609674 24.668105 
L 299.609674 23.914431 
L 303.456952 23.914431 
L 303.456952 23.160758 
L 304.002677 23.160758 
L 304.077495 21.653412 
L 304.463312 21.653412 
L 304.463312 20.899739 
L 306.52185 20.899739 
L 306.52185 20.146065 
L 306.77894 20.146065 
L 306.811144 18.638719 
L 307.270082 18.638719 
L 307.270082 17.885046 
L 309.27106 17.885046 
L 309.27106 17.131373 
L 309.513074 17.131373 
L 309.513074 16.377699 
L 309.903735 16.377699 
L 309.903735 15.624026 
L 312.422908 15.624026 
L 312.422908 14.870353 
L 312.679998 14.870353 
L 312.712202 13.363007 
L 315.597686 13.363007 
L 315.597686 12.609333 
L 319.346297 12.609333 
L 319.346297 11.85566 
L 320.719761 11.85566 
L 320.719761 11.101987 
L 321.498744 11.101987 
L 321.498744 10.348314 
L 323.735828 10.348314 
L 323.735828 9.594641 
L 326.255001 9.594641 
L 326.255001 8.840967 
L 326.512091 8.840967 
L 326.544295 7.333621 
L 330.552984 7.333621 
L 330.552984 6.579948 
L 335.330837 6.579948 
L 335.330837 5.826275 
L 453.192 5.826275 
L 453.192 5.826275 
" clip-path="url(#pc4f764bbd5)" style="fill: none; stroke: #000000; stroke-width: 3; stroke-linecap: square"/>
   </g>
   <g id="line2d_40">
    <path clip-path="url(#pc4f764bbd5)" style="fill: none; stroke: #000000; stroke-width: 3; stroke-linecap: square"/>
   </g>
   <g id="line2d_41">
    <path d="M 34.16 288.453725 
L 50.669963 288.453725 
L 50.669963 287.700052 
L 54.069286 287.700052 
L 54.069286 286.946379 
L 54.756727 286.946379 
L 54.756727 286.192706 
L 61.405861 286.192706 
L 61.405861 285.439033 
L 72.418165 285.439033 
L 72.418165 284.685359 
L 84.623886 284.685359 
L 84.623886 283.931686 
L 88.023209 283.931686 
L 88.023209 283.178013 
L 88.239284 283.178013 
L 88.239284 282.42434 
L 88.71065 282.42434 
L 88.71065 281.670667 
L 91.002833 281.670667 
L 91.002833 280.916993 
L 91.638607 280.916993 
L 91.638607 280.16332 
L 92.326048 280.16332 
L 92.326048 279.409647 
L 102.015137 279.409647 
L 102.015137 278.655974 
L 113.475605 278.655974 
L 113.475605 277.902301 
L 121.99165 277.902301 
L 121.99165 277.148627 
L 124.536541 277.148627 
L 124.536541 276.394954 
L 129.074084 276.394954 
L 129.074084 275.641281 
L 133.210128 275.641281 
L 133.210128 274.887608 
L 139.644877 274.887608 
L 139.644877 274.133935 
L 142.676687 274.133935 
L 142.676687 273.380261 
L 143.072577 273.380261 
L 143.072577 272.626588 
L 144.222432 272.626588 
L 144.222432 271.872915 
L 150.657181 271.872915 
L 150.657181 271.119242 
L 150.985591 271.119242 
L 150.985591 270.365569 
L 151.47571 270.365569 
L 151.47571 269.611895 
L 151.588622 269.611895 
L 151.588622 268.858222 
L 154.742037 268.858222 
L 154.742037 268.104549 
L 156.987827 268.104549 
L 156.987827 267.350876 
L 157.628548 267.350876 
L 157.628548 266.597203 
L 158.490464 266.597203 
L 158.490464 265.843529 
L 158.874883 265.843529 
L 158.874883 265.089856 
L 161.826553 265.089856 
L 161.826553 264.336183 
L 162.105862 264.336183 
L 162.105862 263.58251 
L 162.676121 263.58251 
L 162.676121 262.828837 
L 163.028007 262.828837 
L 163.028007 262.075163 
L 164.403256 262.075163 
L 164.403256 261.32149 
L 166.643405 261.32149 
L 166.643405 260.567817 
L 171.980153 260.567817 
L 171.980153 259.814144 
L 172.273659 259.814144 
L 172.273659 259.060471 
L 172.838857 259.060471 
L 172.838857 258.306797 
L 173.644286 258.306797 
L 173.644286 257.553124 
L 175.278354 257.553124 
L 175.278354 256.799451 
L 176.185603 256.799451 
L 176.185603 256.045778 
L 178.082411 256.045778 
L 178.082411 255.292105 
L 180.582563 255.292105 
L 180.582563 254.538431 
L 185.279872 254.538431 
L 185.279872 253.784758 
L 185.429633 253.784758 
L 185.429633 253.031085 
L 186.584799 253.031085 
L 186.584799 252.277412 
L 188.471855 252.277412 
L 188.471855 251.523739 
L 188.695961 251.523739 
L 188.695961 250.770065 
L 189.045031 250.770065 
L 189.045031 250.016392 
L 190.90708 250.016392 
L 190.90708 249.262719 
L 191.582472 249.262719 
L 191.582472 248.509046 
L 191.714621 248.509046 
L 191.714621 247.755373 
L 192.273093 247.755373 
L 192.311358 246.248026 
L 193.795918 246.248026 
L 193.795918 245.494353 
L 195.19787 245.494353 
L 195.19787 244.74068 
L 195.702979 244.74068 
L 195.702979 243.987007 
L 196.968455 243.987007 
L 196.968455 243.233333 
L 197.105526 243.233333 
L 197.105526 242.47966 
L 198.357179 242.47966 
L 198.357179 241.725987 
L 200.230667 241.725987 
L 200.230667 240.972314 
L 201.972577 240.972314 
L 201.972577 240.218641 
L 205.278 240.218641 
L 205.278 239.464967 
L 205.934077 239.464967 
L 205.934077 238.711294 
L 207.130286 238.711294 
L 207.130286 237.957621 
L 207.59821 237.957621 
L 207.59821 237.203948 
L 208.373511 237.203948 
L 208.373511 236.450275 
L 208.60222 236.450275 
L 208.60222 235.696601 
L 209.232277 235.696601 
L 209.232277 234.942928 
L 209.549474 234.942928 
L 209.562836 233.435582 
L 210.093529 233.435582 
L 210.139527 231.928235 
L 211.213607 231.928235 
L 211.213607 231.174562 
L 212.036334 231.174562 
L 212.036334 230.420889 
L 212.847675 230.420889 
L 212.859067 228.913542 
L 213.754925 228.913542 
L 213.754925 228.159869 
L 213.893605 228.159869 
L 213.896297 226.652523 
L 214.480954 226.652523 
L 214.480954 225.89885 
L 215.291617 225.89885 
L 215.291617 225.145176 
L 215.651732 225.145176 
L 215.651732 224.391503 
L 215.82231 224.391503 
L 215.82231 223.63783 
L 216.3082 223.63783 
L 216.3082 222.884157 
L 218.485147 222.884157 
L 218.566423 219.869464 
L 218.74075 219.869464 
L 218.74075 219.115791 
L 219.271443 219.115791 
L 219.271443 218.362118 
L 219.622386 218.362118 
L 219.622386 217.608444 
L 220.504052 217.608444 
L 220.602275 216.101098 
L 220.683716 216.101098 
L 220.683716 215.347425 
L 220.915704 215.347425 
L 220.998973 212.332732 
L 221.458596 212.332732 
L 221.529666 210.071712 
L 222.029041 210.071712 
L 222.029041 209.318039 
L 222.268051 209.318039 
L 222.268051 208.564366 
L 222.412342 208.564366 
L 222.412342 207.810693 
L 222.789859 207.810693 
L 222.789859 207.05702 
L 223.034825 207.05702 
L 223.116266 204.796 
L 223.565518 204.796 
L 223.646959 203.288654 
L 224.025575 203.288654 
L 224.025575 202.53498 
L 224.213928 202.53498 
L 224.213928 201.781307 
L 224.461591 201.781307 
L 224.461591 201.027634 
L 224.700601 201.027634 
L 224.700601 200.273961 
L 224.819959 200.273961 
L 224.884762 198.012941 
L 224.992284 198.012941 
L 224.992284 197.259268 
L 225.231294 197.259268 
L 225.329742 194.244575 
L 225.67512 194.244575 
L 225.67512 193.490902 
L 226.458125 193.490902 
L 226.565427 191.983556 
L 226.702498 191.983556 
L 226.702498 191.229882 
L 226.988817 191.229882 
L 226.988817 190.476209 
L 227.252509 190.476209 
L 227.317312 188.21519 
L 227.365595 188.21519 
L 227.447035 186.707843 
L 227.663061 186.707843 
L 227.663061 185.95417 
L 227.783202 185.95417 
L 227.848005 183.69315 
L 228.10767 183.69315 
L 228.10767 182.939477 
L 228.638363 182.939477 
L 228.638363 182.185804 
L 228.792095 182.185804 
L 228.792361 180.678458 
L 228.947291 180.678458 
L 229.03137 179.171111 
L 229.224608 179.171111 
L 229.224608 178.417438 
L 229.656903 178.417438 
L 229.656903 177.663765 
L 229.850214 177.663765 
L 229.921284 175.402745 
L 230.309769 175.402745 
L 230.309769 174.649072 
L 230.67915 174.649072 
L 230.788894 173.141725 
L 231.333675 173.141725 
L 231.333675 172.388052 
L 231.583278 172.388052 
L 231.648082 170.127033 
L 231.957136 170.127033 
L 232.038577 168.619686 
L 232.43844 168.619686 
L 232.43844 167.866013 
L 233.019906 167.866013 
L 233.019906 167.11234 
L 233.272301 167.11234 
L 233.272301 166.358667 
L 233.383902 166.358667 
L 233.488352 164.85132 
L 233.622912 164.85132 
L 233.622912 164.097647 
L 234.480389 164.097647 
L 234.480389 163.343974 
L 234.874972 163.343974 
L 234.874972 162.590301 
L 235.226844 162.590301 
L 235.226844 161.836627 
L 235.380435 161.836627 
L 235.380435 161.082954 
L 235.577298 161.082954 
L 235.577298 160.329281 
L 235.775597 160.329281 
L 235.836208 158.821935 
L 236.17482 158.821935 
L 236.239623 156.560915 
L 236.419229 156.560915 
L 236.46067 155.053569 
L 236.670706 155.053569 
L 236.670706 154.299895 
L 236.887308 154.299895 
L 236.887308 153.546222 
L 237.029981 153.546222 
L 237.113899 151.285203 
L 237.43561 151.285203 
L 237.43561 150.531529 
L 237.81808 150.531529 
L 237.823148 149.024183 
L 237.966895 149.024183 
L 237.970483 147.516837 
L 238.082501 147.516837 
L 238.082501 146.763163 
L 238.199192 146.763163 
L 238.296867 145.255817 
L 238.847054 145.255817 
L 238.925991 142.994797 
L 239.173431 142.994797 
L 239.23553 141.487451 
L 239.444979 141.487451 
L 239.444979 140.733778 
L 239.922971 140.733778 
L 239.922971 139.980105 
L 240.128713 139.980105 
L 240.128713 139.226431 
L 240.307953 139.226431 
L 240.307953 138.472758 
L 240.468885 138.472758 
L 240.468885 137.719085 
L 240.82634 137.719085 
L 240.915138 136.211739 
L 241.001731 136.211739 
L 241.096137 134.704392 
L 241.211484 134.704392 
L 241.272866 133.197046 
L 242.486353 133.197046 
L 242.573962 131.689699 
L 242.623562 131.689699 
L 242.623562 130.936026 
L 242.86121 130.936026 
L 242.867868 129.42868 
L 243.017638 129.42868 
L 243.097379 126.413987 
L 243.34761 126.413987 
L 243.432117 124.906641 
L 243.597868 124.906641 
L 243.597868 124.152967 
L 243.716995 124.152967 
L 243.716995 123.399294 
L 243.922339 123.399294 
L 243.976734 121.138275 
L 244.052311 121.138275 
L 244.052311 120.384601 
L 244.184085 120.384601 
L 244.224175 118.877255 
L 244.325742 118.877255 
L 244.400687 117.369908 
L 244.521223 117.369908 
L 244.521223 116.616235 
L 244.712509 116.616235 
L 244.712509 115.862562 
L 245.052508 115.862562 
L 245.052508 115.108889 
L 245.179457 115.108889 
L 245.179457 114.355216 
L 245.331459 114.355216 
L 245.38248 111.340523 
L 245.582352 111.340523 
L 245.582352 110.58685 
L 245.752545 110.58685 
L 245.805916 109.079503 
L 245.897242 109.079503 
L 245.908293 107.572157 
L 246.011604 107.572157 
L 246.113637 104.557464 
L 246.146881 104.557464 
L 246.238265 103.050118 
L 246.259044 103.050118 
L 246.323609 101.542771 
L 246.443609 101.542771 
L 246.443609 100.789098 
L 246.867389 100.789098 
L 246.95329 98.528078 
L 247.072733 98.528078 
L 247.114829 96.267059 
L 247.214326 96.267059 
L 247.320174 94.006039 
L 247.393566 94.006039 
L 247.48508 92.498693 
L 247.841492 92.498693 
L 247.918611 90.991346 
L 248.070111 90.991346 
L 248.160998 88.730327 
L 248.18175 88.730327 
L 248.283626 85.715634 
L 248.344188 85.715634 
L 248.454695 83.454614 
L 248.48286 83.454614 
L 248.48286 82.700941 
L 248.934899 82.700941 
L 249.037535 81.193595 
L 249.103054 81.193595 
L 249.151501 79.686248 
L 249.214264 79.686248 
L 249.24288 78.178902 
L 249.419608 78.178902 
L 249.419608 77.425229 
L 249.953481 77.425229 
L 249.953481 76.671556 
L 250.082273 76.671556 
L 250.162549 75.164209 
L 250.327578 75.164209 
L 250.438303 73.656863 
L 250.51773 73.656863 
L 250.51773 72.90319 
L 250.809266 72.90319 
L 250.809266 72.149516 
L 251.01461 72.149516 
L 251.018335 70.64217 
L 251.137923 70.64217 
L 251.223679 69.134824 
L 251.373515 69.134824 
L 251.406283 67.627477 
L 251.578859 67.627477 
L 251.578859 66.873804 
L 251.839121 66.873804 
L 251.839121 66.120131 
L 251.993709 66.120131 
L 251.993709 65.366458 
L 252.199053 65.366458 
L 252.199053 64.612784 
L 252.527249 64.612784 
L 252.527249 63.859111 
L 252.771556 63.859111 
L 252.771556 63.105438 
L 253.460952 63.105438 
L 253.460952 62.351765 
L 253.620657 62.351765 
L 253.620657 61.598092 
L 253.837259 61.598092 
L 253.837259 60.844418 
L 254.768031 60.844418 
L 254.768031 60.090745 
L 254.998459 60.090745 
L 254.998459 59.337072 
L 255.674378 59.337072 
L 255.674378 58.583399 
L 255.857567 58.583399 
L 255.857567 57.829725 
L 256.589935 57.829725 
L 256.62029 56.322379 
L 257.296208 56.322379 
L 257.296208 55.568706 
L 257.40852 55.568706 
L 257.479398 54.061359 
L 257.840958 54.061359 
L 257.840958 53.307686 
L 259.295575 53.307686 
L 259.295575 52.554013 
L 259.462788 52.554013 
L 259.462788 51.80034 
L 259.749273 51.80034 
L 259.749273 51.046667 
L 260.284935 51.046667 
L 260.284935 50.292993 
L 260.425192 50.292993 
L 260.425192 49.53932 
L 260.608381 49.53932 
L 260.608381 48.785647 
L 261.275693 48.785647 
L 261.275693 48.031974 
L 261.906766 48.031974 
L 261.906766 47.278301 
L 262.591772 47.278301 
L 262.655218 45.770954 
L 262.711347 45.770954 
L 262.711347 45.017281 
L 263.096814 45.017281 
L 263.096814 44.263608 
L 264.43503 44.263608 
L 264.43503 43.509935 
L 265.035749 43.509935 
L 265.110949 42.002588 
L 265.294139 42.002588 
L 265.294139 41.248915 
L 267.277529 41.248915 
L 267.277529 40.495242 
L 268.772723 40.495242 
L 268.772723 39.741569 
L 268.909794 39.741569 
L 268.909794 38.987895 
L 269.146096 38.987895 
L 269.146096 38.234222 
L 269.721507 38.234222 
L 269.721507 37.480549 
L 270.168598 37.480549 
L 270.168598 36.726876 
L 271.790429 36.726876 
L 271.790429 35.973203 
L 274.919412 35.973203 
L 274.919412 35.219529 
L 275.207472 35.219529 
L 275.207472 34.465856 
L 275.344543 34.465856 
L 275.344543 33.712183 
L 277.082268 33.712183 
L 277.082268 32.95851 
L 279.605169 32.95851 
L 279.605169 32.204837 
L 280.177778 32.204837 
L 280.177778 31.451163 
L 280.406488 31.451163 
L 280.406488 30.69749 
L 283.517017 30.69749 
L 283.517017 29.943817 
L 286.612527 29.943817 
L 286.612527 29.190144 
L 286.841237 29.190144 
L 286.841237 28.436471 
L 291.327772 28.436471 
L 291.327772 27.682797 
L 297.389147 27.682797 
L 297.389147 26.929124 
L 297.526219 26.929124 
L 297.526219 26.175451 
L 305.698692 26.175451 
L 305.698692 25.421778 
L 306.886484 25.421778 
L 306.886484 24.668105 
L 308.794203 24.668105 
L 308.794203 23.914431 
L 309.022913 23.914431 
L 309.022913 23.160758 
L 309.702786 23.160758 
L 309.702786 22.407085 
L 311.424027 22.407085 
L 311.424027 21.653412 
L 314.240328 21.653412 
L 314.240328 20.899739 
L 333.825653 20.899739 
L 333.825653 20.146065 
L 336.641955 20.146065 
L 336.641955 19.392392 
L 337.09198 19.392392 
L 337.09198 18.638719 
L 339.908282 18.638719 
L 339.978492 17.131373 
L 342.794793 17.131373 
L 342.794793 16.377699 
L 346.753199 16.377699 
L 346.753199 15.624026 
L 349.5695 15.624026 
L 349.5695 14.870353 
L 354.330096 14.870353 
L 354.330096 14.11668 
L 355.994229 14.11668 
L 355.994229 13.363007 
L 357.146398 13.363007 
L 357.146398 12.609333 
L 357.628297 12.609333 
L 357.628297 11.85566 
L 358.535546 11.85566 
L 358.535546 11.101987 
L 358.810531 11.101987 
L 358.810531 10.348314 
L 360.432354 10.348314 
L 360.444599 8.840967 
L 361.351848 8.840967 
L 361.351848 8.087294 
L 363.248656 8.087294 
L 363.248656 7.333621 
L 378.052923 7.333621 
L 378.052923 6.579948 
L 380.869224 6.579948 
L 380.869224 5.826275 
L 453.192 5.826275 
L 453.192 5.826275 
" clip-path="url(#pc4f764bbd5)" style="fill: none; stroke: #00bfbf; stroke-width: 3; stroke-linecap: square"/>
   </g>
   <g id="line2d_42">
    <path clip-path="url(#pc4f764bbd5)" style="fill: none; stroke: #00bfbf; stroke-width: 3; stroke-linecap: square"/>
   </g>
   <g id="line2d_43">
    <path d="M 34.16 288.453725 
L 104.697265 288.453725 
L 104.697265 287.700052 
L 127.356249 287.700052 
L 127.356249 286.946379 
L 129.636918 286.946379 
L 129.636918 286.192706 
L 133.809467 286.192706 
L 133.809467 285.439033 
L 138.959799 285.439033 
L 138.959799 284.685359 
L 143.545407 284.685359 
L 143.545407 283.931686 
L 148.809938 283.931686 
L 148.809938 283.178013 
L 150.722784 283.178013 
L 150.722784 282.42434 
L 152.295902 282.42434 
L 152.295902 281.670667 
L 154.484282 281.670667 
L 154.497094 280.16332 
L 156.102028 280.16332 
L 156.102028 279.409647 
L 156.468451 279.409647 
L 156.468451 278.655974 
L 156.744646 278.655974 
L 156.744646 277.902301 
L 158.639496 277.902301 
L 158.639496 277.148627 
L 158.802202 277.148627 
L 158.802202 276.394954 
L 162.31574 276.394954 
L 162.31574 275.641281 
L 163.68017 275.641281 
L 163.68017 274.887608 
L 163.899452 274.887608 
L 163.899452 274.133935 
L 164.322788 274.133935 
L 164.322788 273.380261 
L 166.541204 273.380261 
L 166.541204 272.626588 
L 167.183822 272.626588 
L 167.183822 271.872915 
L 168.072001 271.872915 
L 168.072001 271.119242 
L 168.332072 271.119242 
L 168.332072 270.365569 
L 168.48506 270.365569 
L 168.48506 269.611895 
L 168.895241 269.611895 
L 168.97469 268.104549 
L 169.879246 268.104549 
L 169.879246 267.350876 
L 170.521864 267.350876 
L 170.521864 266.597203 
L 172.199256 266.597203 
L 172.199256 265.843529 
L 172.657609 265.843529 
L 172.728242 264.336183 
L 173.74959 264.336183 
L 173.74959 263.58251 
L 175.353875 263.58251 
L 175.353875 262.828837 
L 175.662437 262.828837 
L 175.662437 262.075163 
L 175.809108 262.075163 
L 175.809108 261.32149 
L 176.473382 261.32149 
L 176.473382 260.567817 
L 177.143266 260.567817 
L 177.156078 259.060471 
L 177.452426 259.060471 
L 177.452426 258.306797 
L 177.922139 258.306797 
L 177.922139 257.553124 
L 179.334417 257.553124 
L 179.334417 256.799451 
L 179.834986 256.799451 
L 179.834986 256.045778 
L 180.691644 256.045778 
L 180.691644 255.292105 
L 181.125285 255.292105 
L 181.125285 254.538431 
L 182.672459 254.538431 
L 182.672459 253.784758 
L 182.974043 253.784758 
L 182.974043 253.031085 
L 183.579149 253.031085 
L 183.579149 252.277412 
L 183.741855 252.277412 
L 183.741855 251.523739 
L 185.030567 251.523739 
L 185.030567 250.770065 
L 187.255393 250.770065 
L 187.255393 250.016392 
L 187.751697 250.016392 
L 187.751697 249.262719 
L 187.891602 249.262719 
L 187.914404 247.755373 
L 188.269785 247.755373 
L 188.269785 247.001699 
L 188.746816 247.001699 
L 188.759628 245.494353 
L 189.68247 245.494353 
L 189.68247 244.74068 
L 190.731561 244.74068 
L 190.731561 243.987007 
L 191.13082 243.987007 
L 191.229644 242.47966 
L 191.427942 242.47966 
L 191.427942 241.725987 
L 192.535723 241.725987 
L 192.535723 240.972314 
L 192.921687 240.972314 
L 192.921687 240.218641 
L 193.332424 240.218641 
L 193.345236 238.711294 
L 194.468862 238.711294 
L 194.468862 237.957621 
L 197.138909 237.957621 
L 197.138909 237.203948 
L 197.667895 237.203948 
L 197.667895 236.450275 
L 197.810969 236.450275 
L 197.810969 235.696601 
L 198.309702 235.696601 
L 198.309702 234.942928 
L 198.596954 234.942928 
L 198.609766 233.435582 
L 199.827822 233.435582 
L 199.827822 232.681908 
L 200.293528 232.681908 
L 200.293528 231.928235 
L 200.509801 231.928235 
L 200.522613 230.420889 
L 200.748761 230.420889 
L 200.748761 229.667216 
L 201.170737 229.667216 
L 201.170737 228.913542 
L 201.311458 228.913542 
L 201.311458 228.159869 
L 201.471902 228.159869 
L 201.471902 227.406196 
L 201.840443 227.406196 
L 201.840443 226.652523 
L 202.961605 226.652523 
L 202.961605 225.89885 
L 204.466076 225.89885 
L 204.508779 224.391503 
L 204.92131 224.391503 
L 204.92131 223.63783 
L 205.389111 223.63783 
L 205.442802 222.130484 
L 207.405964 222.130484 
L 207.492492 220.623137 
L 207.913696 220.623137 
L 207.913696 219.869464 
L 208.250145 219.869464 
L 208.250145 219.115791 
L 208.426513 219.115791 
L 208.439324 217.608444 
L 208.589219 217.608444 
L 208.602031 216.101098 
L 209.050044 216.101098 
L 209.14008 214.593752 
L 209.707497 214.593752 
L 209.707497 213.840078 
L 210.041013 213.840078 
L 210.041013 213.086405 
L 210.266998 213.086405 
L 210.266998 212.332732 
L 211.588187 212.332732 
L 211.588187 211.579059 
L 211.911078 211.579059 
L 211.911078 210.825386 
L 212.057866 210.825386 
L 212.115569 207.810693 
L 213.020944 207.810693 
L 213.020944 207.05702 
L 213.60504 207.05702 
L 213.701946 205.549673 
L 215.070633 205.549673 
L 215.070633 204.796 
L 215.24912 204.796 
L 215.24912 204.042327 
L 215.881978 204.042327 
L 215.881978 203.288654 
L 216.718221 203.288654 
L 216.718221 202.53498 
L 217.285638 202.53498 
L 217.39646 201.027634 
L 217.475376 201.027634 
L 217.475376 200.273961 
L 217.660497 200.273961 
L 217.672846 198.766614 
L 217.818856 198.766614 
L 217.818856 198.012941 
L 217.931668 198.012941 
L 217.931668 197.259268 
L 218.320251 197.259268 
L 218.320251 196.505595 
L 218.742647 196.505595 
L 218.761493 194.998248 
L 219.22002 194.998248 
L 219.22002 194.244575 
L 219.579256 194.244575 
L 219.685284 191.983556 
L 219.722536 191.983556 
L 219.722536 191.229882 
L 219.938696 191.229882 
L 219.944368 189.722536 
L 220.099688 189.722536 
L 220.146673 188.21519 
L 220.361093 188.21519 
L 220.366764 186.707843 
L 220.86822 186.707843 
L 220.940921 185.200497 
L 221.030295 185.200497 
L 221.042324 183.69315 
L 221.26971 183.69315 
L 221.370123 178.417438 
L 221.452691 178.417438 
L 221.452691 177.663765 
L 221.647925 177.663765 
L 221.742351 175.402745 
L 221.937541 175.402745 
L 221.999085 173.141725 
L 222.218429 173.141725 
L 222.305955 170.127033 
L 222.395328 170.127033 
L 222.395328 169.373359 
L 222.515259 169.373359 
L 222.553904 167.11234 
L 222.627797 167.11234 
L 222.719228 164.097647 
L 222.744715 164.097647 
L 222.744715 163.343974 
L 222.880685 163.343974 
L 222.9763 161.082954 
L 223.128992 161.082954 
L 223.167112 158.821935 
L 223.303081 158.821935 
L 223.303081 158.068261 
L 223.484715 158.068261 
L 223.484715 157.314588 
L 223.661865 157.314588 
L 223.661865 156.560915 
L 223.918937 156.560915 
L 223.984837 155.053569 
L 224.071629 155.053569 
L 224.109748 152.792549 
L 224.245718 152.792549 
L 224.251913 150.531529 
L 224.49926 150.531529 
L 224.53082 149.024183 
L 224.760665 149.024183 
L 224.766337 147.516837 
L 225.140892 147.516837 
L 225.248467 143.748471 
L 225.33784 143.748471 
L 225.33784 142.994797 
L 225.473457 142.994797 
L 225.473457 142.241124 
L 225.596125 142.241124 
L 225.690188 139.226431 
L 225.76289 139.226431 
L 225.852264 137.719085 
L 226.141924 137.719085 
L 226.141924 136.965412 
L 226.604377 136.965412 
L 226.604377 136.211739 
L 226.861449 136.211739 
L 226.861449 135.458065 
L 226.974401 135.458065 
L 227.052261 133.197046 
L 227.1188 133.197046 
L 227.18823 131.689699 
L 227.375873 131.689699 
L 227.375873 130.936026 
L 227.528564 130.936026 
L 227.566684 129.42868 
L 227.702654 129.42868 
L 227.702654 128.675007 
L 228.099673 128.675007 
L 228.099673 127.921333 
L 228.415969 127.921333 
L 228.415969 127.16766 
L 228.930392 127.16766 
L 228.930392 126.413987 
L 229.890541 126.413987 
L 229.890541 125.660314 
L 230.364121 125.660314 
L 230.364121 124.906641 
L 230.557447 124.906641 
L 230.644915 123.399294 
L 230.722709 123.399294 
L 230.784881 121.891948 
L 230.83824 121.891948 
L 230.916034 120.384601 
L 230.978206 120.384601 
L 230.978206 119.630928 
L 231.295656 119.630928 
L 231.295656 118.877255 
L 231.437715 118.877255 
L 231.488982 117.369908 
L 231.742133 117.369908 
L 231.742133 116.616235 
L 232.022927 116.616235 
L 232.100721 115.108889 
L 232.162893 115.108889 
L 232.162893 114.355216 
L 232.673668 114.355216 
L 232.77415 111.340523 
L 233.054944 111.340523 
L 233.132738 109.079503 
L 233.19491 109.079503 
L 233.19491 108.32583 
L 233.361369 108.32583 
L 233.440044 105.311137 
L 233.502216 105.311137 
L 233.554694 103.803791 
L 233.614517 103.803791 
L 233.705685 102.296444 
L 233.749287 102.296444 
L 233.749287 101.542771 
L 233.942612 101.542771 
L 234.012991 100.035425 
L 234.552542 100.035425 
L 234.552542 99.281752 
L 234.739381 99.281752 
L 234.799204 97.774405 
L 234.900029 97.774405 
L 234.900029 97.020732 
L 235.093355 97.020732 
L 235.127299 95.513386 
L 235.656586 95.513386 
L 235.656586 94.759712 
L 235.771398 94.759712 
L 235.849912 92.498693 
L 236.078704 92.498693 
L 236.159316 90.237673 
L 236.278041 90.237673 
L 236.278041 89.484 
L 236.466622 89.484 
L 236.533563 87.976654 
L 236.726888 87.976654 
L 236.726888 87.22298 
L 237.034598 87.22298 
L 237.034598 86.469307 
L 237.310058 86.469307 
L 237.413577 84.961961 
L 237.580389 84.961961 
L 237.617364 83.454614 
L 237.911575 83.454614 
L 237.933373 81.947268 
L 238.066615 81.947268 
L 238.126699 80.439922 
L 238.373921 80.439922 
L 238.373921 79.686248 
L 238.83271 79.686248 
L 238.943592 78.178902 
L 239.084826 78.178902 
L 239.126572 76.671556 
L 239.204444 76.671556 
L 239.311385 74.410536 
L 239.319897 74.410536 
L 239.390502 72.90319 
L 239.824829 72.90319 
L 239.857293 70.64217 
L 240.109784 70.64217 
L 240.109784 69.888497 
L 240.303109 69.888497 
L 240.343402 68.38115 
L 240.504584 68.38115 
L 240.524788 66.873804 
L 240.650708 66.873804 
L 240.751619 65.366458 
L 241.145885 65.366458 
L 241.145885 64.612784 
L 241.339211 64.612784 
L 241.339211 63.859111 
L 241.487796 63.859111 
L 241.536601 62.351765 
L 241.843906 62.351765 
L 241.8931 60.844418 
L 241.966573 60.844418 
L 241.966573 60.090745 
L 242.116878 60.090745 
L 242.144681 58.583399 
L 242.249234 58.583399 
L 242.335552 56.322379 
L 242.426609 56.322379 
L 242.523897 54.061359 
L 242.709802 54.061359 
L 242.709802 53.307686 
L 242.827119 53.307686 
L 242.852514 51.80034 
L 242.97667 51.80034 
L 242.97667 51.046667 
L 243.263421 51.046667 
L 243.369199 49.53932 
L 243.474976 49.53932 
L 243.555914 48.031974 
L 243.621315 48.031974 
L 243.621315 47.278301 
L 243.86322 47.278301 
L 243.962123 45.017281 
L 244.214239 45.017281 
L 244.214239 44.263608 
L 244.361318 44.263608 
L 244.393782 42.002588 
L 244.515742 42.002588 
L 244.519915 40.495242 
L 244.727296 40.495242 
L 244.767858 38.987895 
L 244.954242 38.987895 
L 245.061277 35.219529 
L 245.073534 35.219529 
L 245.073534 34.465856 
L 245.285088 34.465856 
L 245.285088 33.712183 
L 245.507861 33.712183 
L 245.540325 31.451163 
L 245.654201 31.451163 
L 245.751879 28.436471 
L 246.20782 28.436471 
L 246.20782 27.682797 
L 246.419374 27.682797 
L 246.503063 25.421778 
L 246.68117 25.421778 
L 246.785723 23.914431 
L 246.963098 23.914431 
L 247.022513 22.407085 
L 247.095987 22.407085 
L 247.095987 21.653412 
L 247.274094 21.653412 
L 247.378647 20.146065 
L 247.389004 20.146065 
L 247.389004 19.392392 
L 247.51316 19.392392 
L 247.576132 17.131373 
L 247.649606 17.131373 
L 247.649606 16.377699 
L 247.787687 16.377699 
L 247.86116 14.11668 
L 247.932266 14.11668 
L 248.039267 11.85566 
L 248.106084 11.85566 
L 248.14382 9.594641 
L 248.321195 9.594641 
L 248.321195 8.840967 
L 248.535547 8.840967 
L 248.535547 8.087294 
L 248.659703 8.087294 
L 248.747101 6.579948 
L 248.871257 6.579948 
L 248.871257 5.826275 
L 453.192 5.826275 
L 453.192 5.826275 
" clip-path="url(#pc4f764bbd5)" style="fill: none; stroke: #bf00bf; stroke-width: 3; stroke-linecap: square"/>
   </g>
   <g id="line2d_44">
    <path clip-path="url(#pc4f764bbd5)" style="fill: none; stroke: #bf00bf; stroke-width: 3; stroke-linecap: square"/>
   </g>
   <g id="line2d_45">
    <path d="M 34.16 288.453725 
L 97.579094 288.453725 
L 97.579094 287.700052 
L 123.508913 287.700052 
L 123.508913 286.946379 
L 129.372252 286.946379 
L 129.372252 286.192706 
L 143.025839 286.192706 
L 143.025839 285.439033 
L 143.238702 285.439033 
L 143.238702 284.685359 
L 146.250593 284.685359 
L 146.250593 283.931686 
L 147.751759 283.931686 
L 147.751759 283.178013 
L 148.978948 283.178013 
L 148.978948 282.42434 
L 149.388811 282.42434 
L 149.388811 281.670667 
L 149.854659 281.670667 
L 149.854659 280.916993 
L 152.319669 280.916993 
L 152.319669 280.16332 
L 153.183422 280.16332 
L 153.183422 279.409647 
L 153.557642 279.409647 
L 153.657856 277.902301 
L 154.045526 277.902301 
L 154.045526 277.148627 
L 154.335189 277.148627 
L 154.335189 276.394954 
L 157.729809 276.394954 
L 157.729809 275.641281 
L 158.437505 275.641281 
L 158.437505 274.887608 
L 159.811116 274.887608 
L 159.811116 274.133935 
L 161.586516 274.133935 
L 161.586516 273.380261 
L 162.166059 273.380261 
L 162.166059 272.626588 
L 162.755628 272.626588 
L 162.755628 271.872915 
L 167.481549 271.872915 
L 167.481549 271.119242 
L 168.495874 271.119242 
L 168.495874 270.365569 
L 168.905737 270.365569 
L 168.905737 269.611895 
L 170.346494 269.611895 
L 170.346494 268.858222 
L 171.853373 268.858222 
L 171.853373 268.104549 
L 172.700349 268.104549 
L 172.700349 267.350876 
L 173.221795 267.350876 
L 173.221795 266.597203 
L 173.387645 266.597203 
L 173.387645 265.843529 
L 173.631657 265.843529 
L 173.631657 265.089856 
L 173.775316 265.089856 
L 173.775316 264.336183 
L 174.581722 264.336183 
L 174.581722 263.58251 
L 174.918152 263.58251 
L 174.918152 262.828837 
L 177.078672 262.828837 
L 177.078672 262.075163 
L 177.426269 262.075163 
L 177.426269 261.32149 
L 177.954431 261.32149 
L 177.954431 260.567817 
L 179.127891 260.567817 
L 179.127891 259.814144 
L 179.328042 259.814144 
L 179.328042 259.060471 
L 179.515562 259.060471 
L 179.613007 256.799451 
L 179.925424 256.799451 
L 179.925424 256.045778 
L 181.103442 256.045778 
L 181.103442 255.292105 
L 181.682985 255.292105 
L 181.682985 254.538431 
L 182.661885 254.538431 
L 182.680351 253.031085 
L 183.332366 253.031085 
L 183.332366 252.277412 
L 183.720036 252.277412 
L 183.720036 251.523739 
L 184.053963 251.523739 
L 184.053963 250.770065 
L 185.350801 250.770065 
L 185.350801 250.016392 
L 185.703639 250.016392 
L 185.703639 249.262719 
L 185.829362 249.262719 
L 185.829362 248.509046 
L 186.128347 248.509046 
L 186.128347 247.755373 
L 186.408906 247.755373 
L 186.408906 247.001699 
L 188.21695 247.001699 
L 188.21695 246.248026 
L 188.586448 246.248026 
L 188.586448 245.494353 
L 188.974118 245.494353 
L 188.974118 244.74068 
L 189.522968 244.74068 
L 189.522968 243.987007 
L 189.86342 243.987007 
L 189.960059 242.47966 
L 190.34773 242.47966 
L 190.34773 241.725987 
L 191.735459 241.725987 
L 191.735459 240.972314 
L 192.123129 240.972314 
L 192.123129 240.218641 
L 192.315003 240.218641 
L 192.315003 239.464967 
L 192.702673 239.464967 
L 192.702673 238.711294 
L 192.916887 238.711294 
L 192.916887 237.957621 
L 194.098648 237.957621 
L 194.098648 237.203948 
L 194.435078 237.203948 
L 194.435078 236.450275 
L 194.58934 236.450275 
L 194.595012 234.942928 
L 196.212006 234.942928 
L 196.212006 234.189255 
L 196.595598 234.189255 
L 196.595598 233.435582 
L 197.771675 233.435582 
L 197.771675 232.681908 
L 198.824568 232.681908 
L 198.824568 231.928235 
L 199.160998 231.928235 
L 199.160998 231.174562 
L 200.495437 231.174562 
L 200.495437 230.420889 
L 200.883107 230.420889 
L 200.883107 229.667216 
L 201.321519 229.667216 
L 201.321519 228.913542 
L 201.832309 228.913542 
L 201.832309 228.159869 
L 202.229142 228.159869 
L 202.229142 227.406196 
L 203.006688 227.406196 
L 203.006688 226.652523 
L 203.646531 226.652523 
L 203.646531 225.89885 
L 204.730665 225.89885 
L 204.730665 225.145176 
L 205.067095 225.145176 
L 205.118335 223.63783 
L 205.220565 223.63783 
L 205.220565 222.884157 
L 205.454765 222.884157 
L 205.454765 222.130484 
L 205.833208 222.130484 
L 205.833208 221.37681 
L 206.401309 221.37681 
L 206.401309 220.623137 
L 206.610754 220.623137 
L 206.610754 219.869464 
L 207.165955 219.869464 
L 207.227615 218.362118 
L 207.615286 218.362118 
L 207.615286 217.608444 
L 208.298217 217.608444 
L 208.298217 216.854771 
L 209.075764 216.854771 
L 209.075764 216.101098 
L 209.946485 216.101098 
L 210.005375 214.593752 
L 211.406165 214.593752 
L 211.406165 213.840078 
L 212.433814 213.840078 
L 212.470384 212.332732 
L 214.455043 212.332732 
L 214.455043 211.579059 
L 215.852582 211.579059 
L 215.852582 210.825386 
L 216.240252 210.825386 
L 216.240252 210.071712 
L 217.159734 210.071712 
L 217.159734 209.318039 
L 217.539692 209.318039 
L 217.539692 208.564366 
L 217.653303 208.564366 
L 217.653303 207.810693 
L 218.291388 207.810693 
L 218.291388 207.05702 
L 218.430872 207.05702 
L 218.430872 206.303346 
L 218.605184 206.303346 
L 218.714152 204.796 
L 219.352236 204.796 
L 219.352236 204.042327 
L 219.666033 204.042327 
L 219.666033 203.288654 
L 219.779623 203.288654 
L 219.837313 201.781307 
L 220.010109 201.781307 
L 220.093107 200.273961 
L 220.475397 200.273961 
L 220.524872 198.766614 
L 220.670803 198.766614 
L 220.731191 197.259268 
L 220.789194 197.259268 
L 220.813571 195.751922 
L 221.044988 195.751922 
L 221.15316 193.490902 
L 221.204311 193.490902 
L 221.261524 191.983556 
L 221.419825 191.983556 
L 221.453699 189.722536 
L 221.54184 189.722536 
L 221.617189 187.461516 
L 221.69356 187.461516 
L 221.765452 185.200497 
L 221.842396 185.200497 
L 221.842396 184.446824 
L 222.007357 184.446824 
L 222.046538 182.185804 
L 222.152703 182.185804 
L 222.225822 178.417438 
L 222.311005 178.417438 
L 222.374153 176.156418 
L 222.493721 176.156418 
L 222.539619 173.141725 
L 222.80727 173.141725 
L 222.912593 170.127033 
L 222.985538 170.127033 
L 223.065831 168.619686 
L 223.13738 168.619686 
L 223.13738 167.866013 
L 223.337169 167.866013 
L 223.337169 167.11234 
L 223.448572 167.11234 
L 223.503636 164.097647 
L 223.565631 164.097647 
L 223.623623 161.836627 
L 223.762369 161.836627 
L 223.817433 160.329281 
L 223.887772 160.329281 
L 223.963991 157.314588 
L 224.128938 157.314588 
L 224.208336 155.053569 
L 224.262288 155.053569 
L 224.313427 152.792549 
L 224.424934 152.792549 
L 224.45681 151.285203 
L 224.555333 151.285203 
L 224.614084 149.777856 
L 224.704168 149.777856 
L 224.778952 148.27051 
L 224.846421 148.27051 
L 224.906689 145.255817 
L 225.041696 145.255817 
L 225.148595 142.994797 
L 225.160218 142.994797 
L 225.21417 141.487451 
L 225.29743 141.487451 
L 225.385596 139.226431 
L 225.438869 139.226431 
L 225.438869 138.472758 
L 225.634958 138.472758 
L 225.680856 136.965412 
L 225.768369 136.965412 
L 225.768369 136.211739 
L 225.921757 136.211739 
L 225.999152 132.443373 
L 226.095984 132.443373 
L 226.124034 130.936026 
L 226.254286 130.936026 
L 226.330049 126.413987 
L 226.365409 126.413987 
L 226.451649 124.152967 
L 226.485395 124.152967 
L 226.593948 121.138275 
L 226.812937 121.138275 
L 226.903606 118.877255 
L 226.958671 118.877255 
L 226.958671 118.123582 
L 227.078657 118.123582 
L 227.078657 117.369908 
L 227.708193 117.369908 
L 227.762145 115.862562 
L 228.005164 115.862562 
L 228.072476 114.355216 
L 228.191324 114.355216 
L 228.301455 112.094196 
L 228.355407 112.094196 
L 228.400091 109.833176 
L 228.470837 109.833176 
L 228.470837 109.079503 
L 228.722233 109.079503 
L 228.798452 106.818484 
L 228.93178 106.818484 
L 228.93178 106.06481 
L 229.259394 106.06481 
L 229.259394 105.311137 
L 229.564834 105.311137 
L 229.673225 103.050118 
L 229.831526 103.050118 
L 229.892442 100.789098 
L 229.945715 100.789098 
L 230.02889 99.281752 
L 230.220057 99.281752 
L 230.27333 97.774405 
L 230.428603 97.774405 
L 230.433115 96.267059 
L 230.756218 96.267059 
L 230.756218 95.513386 
L 231.333384 95.513386 
L 231.400378 94.006039 
L 231.888572 94.006039 
L 231.977332 92.498693 
L 232.299473 92.498693 
L 232.375692 90.991346 
L 232.836635 90.991346 
L 232.836635 90.237673 
L 233.281905 90.237673 
L 233.281905 89.484 
L 233.60952 89.484 
L 233.625468 87.976654 
L 233.797297 87.976654 
L 233.85057 86.469307 
L 234.333458 86.469307 
L 234.353582 84.961961 
L 234.93745 84.961961 
L 234.93745 84.208288 
L 236.88845 84.208288 
L 236.88845 83.454614 
L 237.18676 83.454614 
L 237.18676 82.700941 
L 237.40246 82.700941 
L 237.40246 81.947268 
L 238.514919 81.947268 
L 238.514919 81.193595 
L 238.959113 81.193595 
L 238.959113 80.439922 
L 239.534571 80.439922 
L 239.626518 78.178902 
L 239.736692 78.178902 
L 239.736692 77.425229 
L 240.020491 77.425229 
L 240.020491 76.671556 
L 240.193852 76.671556 
L 240.193852 75.917882 
L 240.492516 75.917882 
L 240.492516 75.164209 
L 241.699018 75.164209 
L 241.699018 74.410536 
L 241.88597 74.410536 
L 241.933307 72.90319 
L 242.143026 72.90319 
L 242.143026 72.149516 
L 242.619554 72.149516 
L 242.672674 70.64217 
L 242.839458 70.64217 
L 242.848225 69.134824 
L 242.952959 69.134824 
L 243.044907 65.366458 
L 243.155081 65.366458 
L 243.254626 60.844418 
L 243.266512 60.844418 
L 243.3648 59.337072 
L 243.438879 59.337072 
L 243.438879 58.583399 
L 243.61224 58.583399 
L 243.694389 55.568706 
L 243.731154 55.568706 
L 243.841328 52.554013 
L 244.125126 52.554013 
L 244.125126 51.80034 
L 244.298487 51.80034 
L 244.298487 51.046667 
L 244.845238 51.046667 
L 244.937185 48.031974 
L 245.047359 48.031974 
L 245.117406 46.524627 
L 245.304358 46.524627 
L 245.331158 44.263608 
L 245.504519 44.263608 
L 245.514077 42.756261 
L 245.803653 42.756261 
L 245.803653 42.002588 
L 245.990605 42.002588 
L 246.091063 40.495242 
L 246.257847 40.495242 
L 246.300782 38.234222 
L 246.406731 38.234222 
L 246.476332 35.219529 
L 246.61645 35.219529 
L 246.66868 32.95851 
L 246.77731 32.95851 
L 246.878399 29.943817 
L 246.944093 29.943817 
L 247.009685 27.682797 
L 247.092978 27.682797 
L 247.196637 26.175451 
L 247.320058 26.175451 
L 247.354927 24.668105 
L 247.983342 24.668105 
L 247.983342 23.914431 
L 248.150125 23.914431 
L 248.158892 22.407085 
L 248.29901 22.407085 
L 248.29901 21.653412 
L 248.487572 21.653412 
L 248.560959 19.392392 
L 249.335587 19.392392 
L 249.335587 18.638719 
L 250.047241 18.638719 
L 250.047241 17.885046 
L 250.503809 17.885046 
L 250.503809 17.131373 
L 250.952581 17.131373 
L 250.952581 16.377699 
L 252.51225 16.377699 
L 252.51225 15.624026 
L 254.107875 15.624026 
L 254.107875 14.870353 
L 255.837454 14.870353 
L 255.837454 14.11668 
L 256.572884 14.11668 
L 256.572884 13.363007 
L 258.06102 13.363007 
L 258.06102 12.609333 
L 259.441521 12.609333 
L 259.441521 11.85566 
L 261.90653 11.85566 
L 261.90653 11.101987 
L 263.193537 11.101987 
L 263.193537 10.348314 
L 274.939361 10.348314 
L 274.939361 9.594641 
L 278.543427 9.594641 
L 278.543427 8.840967 
L 280.071878 8.840967 
L 280.071878 8.087294 
L 281.008436 8.087294 
L 281.008436 7.333621 
L 283.675944 7.333621 
L 283.675944 6.579948 
L 286.140953 6.579948 
L 286.140953 5.826275 
L 453.192 5.826275 
L 453.192 5.826275 
" clip-path="url(#pc4f764bbd5)" style="fill: none; stroke: #ff0000; stroke-width: 3; stroke-linecap: square"/>
   </g>
   <g id="line2d_46">
    <path clip-path="url(#pc4f764bbd5)" style="fill: none; stroke: #ff0000; stroke-width: 3; stroke-linecap: square"/>
   </g>
   <g id="line2d_47">
    <path d="M 243.676 291.28 
L 243.676 3 
" clip-path="url(#pc4f764bbd5)" style="fill: none; stroke: #000000; stroke-width: 1.5; stroke-linecap: square"/>
   </g>
   <g id="line2d_48">
    <path d="M 34.16 147.14 
L 453.192 147.14 
" clip-path="url(#pc4f764bbd5)" style="fill: none; stroke-dasharray: 2,3.3; stroke-dashoffset: 0; stroke: #000000; stroke-width: 2"/>
   </g>
   <g id="patch_3">
    <path d="M 34.16 291.28 
L 34.16 3 
" style="fill: none; stroke: #000000; stroke-width: 0.8; stroke-linejoin: miter; stroke-linecap: square"/>
   </g>
   <g id="patch_4">
    <path d="M 453.192 291.28 
L 453.192 3 
" style="fill: none; stroke: #000000; stroke-width: 0.8; stroke-linejoin: miter; stroke-linecap: square"/>
   </g>
   <g id="patch_5">
    <path d="M 34.16 291.28 
L 453.192 291.28 
" style="fill: none; stroke: #000000; stroke-width: 0.8; stroke-linejoin: miter; stroke-linecap: square"/>
   </g>
   <g id="patch_6">
    <path d="M 34.16 3 
L 453.192 3 
" style="fill: none; stroke: #000000; stroke-width: 0.8; stroke-linejoin: miter; stroke-linecap: square"/>
   </g>
   <g id="text_6">
    <!-- f10-f14,20-D -->
    <g transform="translate(318.19261 285.5144)scale(0.2 -0.2)">
     <defs>
      <path id="DejaVuSans-34" d="M 2419 4116 
L 825 1625 
L 2419 1625 
L 2419 4116 
z
M 2253 4666 
L 3047 4666 
L 3047 1625 
L 3713 1625 
L 3713 1100 
L 3047 1100 
L 3047 0 
L 2419 0 
L 2419 1100 
L 313 1100 
L 313 1709 
L 2253 4666 
z
" transform="scale(0.015625)"/>
      <path id="DejaVuSans-2c" d="M 750 794 
L 1409 794 
L 1409 256 
L 897 -744 
L 494 -744 
L 750 256 
L 750 794 
z
" transform="scale(0.015625)"/>
      <path id="DejaVuSans-32" d="M 1228 531 
L 3431 531 
L 3431 0 
L 469 0 
L 469 531 
Q 828 903 1448 1529 
Q 2069 2156 2228 2338 
Q 2531 2678 2651 2914 
Q 2772 3150 2772 3378 
Q 2772 3750 2511 3984 
Q 2250 4219 1831 4219 
Q 1534 4219 1204 4116 
Q 875 4013 500 3803 
L 500 4441 
Q 881 4594 1212 4672 
Q 1544 4750 1819 4750 
Q 2544 4750 2975 4387 
Q 3406 4025 3406 3419 
Q 3406 3131 3298 2873 
Q 3191 2616 2906 2266 
Q 2828 2175 2409 1742 
Q 1991 1309 1228 531 
z
" transform="scale(0.015625)"/>
      <path id="DejaVuSans-44" d="M 1259 4147 
L 1259 519 
L 2022 519 
Q 2988 519 3436 956 
Q 3884 1394 3884 2338 
Q 3884 3275 3436 3711 
Q 2988 4147 2022 4147 
L 1259 4147 
z
M 628 4666 
L 1925 4666 
Q 3281 4666 3915 4102 
Q 4550 3538 4550 2338 
Q 4550 1131 3912 565 
Q 3275 0 1925 0 
L 628 0 
L 628 4666 
z
" transform="scale(0.015625)"/>
     </defs>
     <use xlink:href="#DejaVuSans-66"/>
     <use xlink:href="#DejaVuSans-31" x="35.205078"/>
     <use xlink:href="#DejaVuSans-30" x="98.828125"/>
     <use xlink:href="#DejaVuSans-2d" x="162.451172"/>
     <use xlink:href="#DejaVuSans-66" x="198.535156"/>
     <use xlink:href="#DejaVuSans-31" x="233.740234"/>
     <use xlink:href="#DejaVuSans-34" x="297.363281"/>
     <use xlink:href="#DejaVuSans-2c" x="360.986328"/>
     <use xlink:href="#DejaVuSans-32" x="392.773438"/>
     <use xlink:href="#DejaVuSans-30" x="456.396484"/>
     <use xlink:href="#DejaVuSans-2d" x="520.019531"/>
     <use xlink:href="#DejaVuSans-44" x="556.103516"/>
    </g>
   </g>
   <g id="text_7">
    <!-- v2.6.1.158 -->
    <g style="fill: #808080" transform="translate(216.861937 286.317512)scale(0.1 -0.1)">
     <defs>
      <path id="DejaVuSans-2e" d="M 684 794 
L 1344 794 
L 1344 0 
L 684 0 
L 684 794 
z
" transform="scale(0.015625)"/>
      <path id="DejaVuSans-36" d="M 2113 2584 
Q 1688 2584 1439 2293 
Q 1191 2003 1191 1497 
Q 1191 994 1439 701 
Q 1688 409 2113 409 
Q 2538 409 2786 701 
Q 3034 994 3034 1497 
Q 3034 2003 2786 2293 
Q 2538 2584 2113 2584 
z
M 3366 4563 
L 3366 3988 
Q 3128 4100 2886 4159 
Q 2644 4219 2406 4219 
Q 1781 4219 1451 3797 
Q 1122 3375 1075 2522 
Q 1259 2794 1537 2939 
Q 1816 3084 2150 3084 
Q 2853 3084 3261 2657 
Q 3669 2231 3669 1497 
Q 3669 778 3244 343 
Q 2819 -91 2113 -91 
Q 1303 -91 875 529 
Q 447 1150 447 2328 
Q 447 3434 972 4092 
Q 1497 4750 2381 4750 
Q 2619 4750 2861 4703 
Q 3103 4656 3366 4563 
z
" transform="scale(0.015625)"/>
      <path id="DejaVuSans-35" d="M 691 4666 
L 3169 4666 
L 3169 4134 
L 1269 4134 
L 1269 2991 
Q 1406 3038 1543 3061 
Q 1681 3084 1819 3084 
Q 2600 3084 3056 2656 
Q 3513 2228 3513 1497 
Q 3513 744 3044 326 
Q 2575 -91 1722 -91 
Q 1428 -91 1123 -41 
Q 819 9 494 109 
L 494 744 
Q 775 591 1075 516 
Q 1375 441 1709 441 
Q 2250 441 2565 725 
Q 2881 1009 2881 1497 
Q 2881 1984 2565 2268 
Q 2250 2553 1709 2553 
Q 1456 2553 1204 2497 
Q 953 2441 691 2322 
L 691 4666 
z
" transform="scale(0.015625)"/>
      <path id="DejaVuSans-38" d="M 2034 2216 
Q 1584 2216 1326 1975 
Q 1069 1734 1069 1313 
Q 1069 891 1326 650 
Q 1584 409 2034 409 
Q 2484 409 2743 651 
Q 3003 894 3003 1313 
Q 3003 1734 2745 1975 
Q 2488 2216 2034 2216 
z
M 1403 2484 
Q 997 2584 770 2862 
Q 544 3141 544 3541 
Q 544 4100 942 4425 
Q 1341 4750 2034 4750 
Q 2731 4750 3128 4425 
Q 3525 4100 3525 3541 
Q 3525 3141 3298 2862 
Q 3072 2584 2669 2484 
Q 3125 2378 3379 2068 
Q 3634 1759 3634 1313 
Q 3634 634 3220 271 
Q 2806 -91 2034 -91 
Q 1263 -91 848 271 
Q 434 634 434 1313 
Q 434 1759 690 2068 
Q 947 2378 1403 2484 
z
M 1172 3481 
Q 1172 3119 1398 2916 
Q 1625 2713 2034 2713 
Q 2441 2713 2670 2916 
Q 2900 3119 2900 3481 
Q 2900 3844 2670 4047 
Q 2441 4250 2034 4250 
Q 1625 4250 1398 4047 
Q 1172 3844 1172 3481 
z
" transform="scale(0.015625)"/>
     </defs>
     <use xlink:href="#DejaVuSans-76"/>
     <use xlink:href="#DejaVuSans-32" x="59.179688"/>
     <use xlink:href="#DejaVuSans-2e" x="122.802734"/>
     <use xlink:href="#DejaVuSans-36" x="154.589844"/>
     <use xlink:href="#DejaVuSans-2e" x="218.212891"/>
     <use xlink:href="#DejaVuSans-31" x="250"/>
     <use xlink:href="#DejaVuSans-2e" x="313.623047"/>
     <use xlink:href="#DejaVuSans-31" x="345.410156"/>
     <use xlink:href="#DejaVuSans-35" x="409.033203"/>
     <use xlink:href="#DejaVuSans-38" x="472.65625"/>
    </g>
   </g>
   <g id="legend_1">
    <g id="patch_7">
     <path d="M 48.16 136.425 
L 177.381875 136.425 
Q 181.381875 136.425 181.381875 132.425 
L 181.381875 17 
Q 181.381875 13 177.381875 13 
L 48.16 13 
Q 44.16 13 44.16 17 
L 44.16 132.425 
Q 44.16 136.425 48.16 136.425 
z
" style="fill: #ffffff; opacity: 0.2; stroke: #cccccc; stroke-linejoin: miter"/>
    </g>
    <g id="line2d_49">
     <path d="M 52.16 29.196875 
L 72.16 29.196875 
L 92.16 29.196875 
" style="fill: none; stroke: #000000; stroke-width: 3; stroke-linecap: square"/>
    </g>
    <g id="text_8">
     <!-- 1: 5/5 -->
     <g transform="translate(108.16 36.196875)scale(0.2 -0.2)">
      <defs>
       <path id="DejaVuSans-3a" d="M 750 794 
L 1409 794 
L 1409 0 
L 750 0 
L 750 794 
z
M 750 3309 
L 1409 3309 
L 1409 2516 
L 750 2516 
L 750 3309 
z
" transform="scale(0.015625)"/>
       <path id="DejaVuSans-2f" d="M 1625 4666 
L 2156 4666 
L 531 -594 
L 0 -594 
L 1625 4666 
z
" transform="scale(0.015625)"/>
      </defs>
      <use xlink:href="#DejaVuSans-31"/>
      <use xlink:href="#DejaVuSans-3a" x="63.623047"/>
      <use xlink:href="#DejaVuSans-20" x="97.314453"/>
      <use xlink:href="#DejaVuSans-35" x="129.101562"/>
      <use xlink:href="#DejaVuSans-2f" x="192.724609"/>
      <use xlink:href="#DejaVuSans-35" x="226.416016"/>
     </g>
    </g>
    <g id="line2d_50">
     <path d="M 52.16 58.553125 
L 72.16 58.553125 
L 92.16 58.553125 
" style="fill: none; stroke: #00bfbf; stroke-width: 3; stroke-linecap: square"/>
    </g>
    <g id="text_9">
     <!-- -1: 5/5 -->
     <g transform="translate(108.16 65.553125)scale(0.2 -0.2)">
      <use xlink:href="#DejaVuSans-2d"/>
      <use xlink:href="#DejaVuSans-31" x="36.083984"/>
      <use xlink:href="#DejaVuSans-3a" x="99.707031"/>
      <use xlink:href="#DejaVuSans-20" x="133.398438"/>
      <use xlink:href="#DejaVuSans-35" x="165.185547"/>
      <use xlink:href="#DejaVuSans-2f" x="228.808594"/>
      <use xlink:href="#DejaVuSans-35" x="262.5"/>
     </g>
    </g>
    <g id="line2d_51">
     <path d="M 52.16 87.909375 
L 72.16 87.909375 
L 92.16 87.909375 
" style="fill: none; stroke: #bf00bf; stroke-width: 3; stroke-linecap: square"/>
    </g>
    <g id="text_10">
     <!-- -4: 5/5 -->
     <g transform="translate(108.16 94.909375)scale(0.2 -0.2)">
      <use xlink:href="#DejaVuSans-2d"/>
      <use xlink:href="#DejaVuSans-34" x="36.083984"/>
      <use xlink:href="#DejaVuSans-3a" x="99.707031"/>
      <use xlink:href="#DejaVuSans-20" x="133.398438"/>
      <use xlink:href="#DejaVuSans-35" x="165.185547"/>
      <use xlink:href="#DejaVuSans-2f" x="228.808594"/>
      <use xlink:href="#DejaVuSans-35" x="262.5"/>
     </g>
    </g>
    <g id="line2d_52">
     <path d="M 52.16 117.265625 
L 72.16 117.265625 
L 92.16 117.265625 
" style="fill: none; stroke: #ff0000; stroke-width: 3; stroke-linecap: square"/>
    </g>
    <g id="text_11">
     <!-- -8: 5/5 -->
     <g transform="translate(108.16 124.265625)scale(0.2 -0.2)">
      <use xlink:href="#DejaVuSans-2d"/>
      <use xlink:href="#DejaVuSans-38" x="36.083984"/>
      <use xlink:href="#DejaVuSans-3a" x="99.707031"/>
      <use xlink:href="#DejaVuSans-20" x="133.398438"/>
      <use xlink:href="#DejaVuSans-35" x="165.185547"/>
      <use xlink:href="#DejaVuSans-2f" x="228.808594"/>
      <use xlink:href="#DejaVuSans-35" x="262.5"/>
     </g>
    </g>
   </g>
  </g>
 </g>
 <defs>
  <clipPath id="pc4f764bbd5">
   <rect x="34.16" y="3" width="419.032" height="288.28"/>
  </clipPath>
 </defs>
</svg>
