<?xml version="1.0" encoding="utf-8" standalone="no"?>
<!DOCTYPE svg PUBLIC "-//W3C//DTD SVG 1.1//EN"
  "http://www.w3.org/Graphics/SVG/1.1/DTD/svg11.dtd">
<svg xmlns:xlink="http://www.w3.org/1999/xlink" width="460.8pt" height="345.6pt" viewBox="0 0 460.8 345.6" xmlns="http://www.w3.org/2000/svg" version="1.1">
 <metadata>
  <rdf:RDF xmlns:dc="http://purl.org/dc/elements/1.1/" xmlns:cc="http://creativecommons.org/ns#" xmlns:rdf="http://www.w3.org/1999/02/22-rdf-syntax-ns#">
   <cc:Work>
    <dc:type rdf:resource="http://purl.org/dc/dcmitype/StillImage"/>
    <dc:date>2023-04-03T10:23:06.767613</dc:date>
    <dc:format>image/svg+xml</dc:format>
    <dc:creator>
     <cc:Agent>
      <dc:title>Matplotlib v3.5.2, https://matplotlib.org/</dc:title>
     </cc:Agent>
    </dc:creator>
   </cc:Work>
  </rdf:RDF>
 </metadata>
 <defs>
  <style type="text/css">*{stroke-linejoin: round; stroke-linecap: butt}</style>
 </defs>
 <g id="figure_1">
  <g id="patch_1">
   <path d="M 0 345.6 
L 460.8 345.6 
L 460.8 0 
L 0 0 
z
" style="fill: #ffffff"/>
  </g>
  <g id="axes_1">
   <g id="patch_2">
    <path d="M 34.16 291.28 
L 446.924475 291.28 
L 446.924475 3 
L 34.16 3 
z
" style="fill: #ffffff"/>
   </g>
   <g id="matplotlib.axis_1">
    <g id="xtick_1">
     <g id="line2d_1">
      <path d="M 34.249547 291.28 
L 34.249547 3 
" clip-path="url(#p16bf17e9b8)" style="fill: none; stroke: #b0b0b0; stroke-width: 0.8; stroke-linecap: square"/>
     </g>
     <g id="line2d_2">
      <defs>
       <path id="m0beb8d2ba4" d="M 0 0 
L 0 3.5 
" style="stroke: #000000; stroke-width: 0.8"/>
      </defs>
      <g>
       <use xlink:href="#m0beb8d2ba4" x="34.249547" y="291.28" style="stroke: #000000; stroke-width: 0.8"/>
      </g>
     </g>
     <g id="text_1">
      <!-- -1 -->
      <g transform="translate(24.279235 313.476875)scale(0.2 -0.2)">
       <defs>
        <path id="DejaVuSans-2d" d="M 313 2009 
L 1997 2009 
L 1997 1497 
L 313 1497 
L 313 2009 
z
" transform="scale(0.015625)"/>
        <path id="DejaVuSans-31" d="M 794 531 
L 1825 531 
L 1825 4091 
L 703 3866 
L 703 4441 
L 1819 4666 
L 2450 4666 
L 2450 531 
L 3481 531 
L 3481 0 
L 794 0 
L 794 531 
z
" transform="scale(0.015625)"/>
       </defs>
       <use xlink:href="#DejaVuSans-2d"/>
       <use xlink:href="#DejaVuSans-31" x="36.083984"/>
      </g>
     </g>
    </g>
    <g id="xtick_2">
     <g id="line2d_3">
      <path d="M 240.542238 291.28 
L 240.542238 3 
" clip-path="url(#p16bf17e9b8)" style="fill: none; stroke: #b0b0b0; stroke-width: 0.8; stroke-linecap: square"/>
     </g>
     <g id="line2d_4">
      <g>
       <use xlink:href="#m0beb8d2ba4" x="240.542238" y="291.28" style="stroke: #000000; stroke-width: 0.8"/>
      </g>
     </g>
     <g id="text_2">
      <!-- 0 -->
      <g transform="translate(234.179738 313.476875)scale(0.2 -0.2)">
       <defs>
        <path id="DejaVuSans-30" d="M 2034 4250 
Q 1547 4250 1301 3770 
Q 1056 3291 1056 2328 
Q 1056 1369 1301 889 
Q 1547 409 2034 409 
Q 2525 409 2770 889 
Q 3016 1369 3016 2328 
Q 3016 3291 2770 3770 
Q 2525 4250 2034 4250 
z
M 2034 4750 
Q 2819 4750 3233 4129 
Q 3647 3509 3647 2328 
Q 3647 1150 3233 529 
Q 2819 -91 2034 -91 
Q 1250 -91 836 529 
Q 422 1150 422 2328 
Q 422 3509 836 4129 
Q 1250 4750 2034 4750 
z
" transform="scale(0.015625)"/>
       </defs>
       <use xlink:href="#DejaVuSans-30"/>
      </g>
     </g>
    </g>
    <g id="xtick_3">
     <g id="line2d_5">
      <path d="M 446.834928 291.28 
L 446.834928 3 
" clip-path="url(#p16bf17e9b8)" style="fill: none; stroke: #b0b0b0; stroke-width: 0.8; stroke-linecap: square"/>
     </g>
     <g id="line2d_6">
      <g>
       <use xlink:href="#m0beb8d2ba4" x="446.834928" y="291.28" style="stroke: #000000; stroke-width: 0.8"/>
      </g>
     </g>
     <g id="text_3">
      <!-- 1 -->
      <g transform="translate(440.472428 313.476875)scale(0.2 -0.2)">
       <use xlink:href="#DejaVuSans-31"/>
      </g>
     </g>
    </g>
    <g id="xtick_4">
     <g id="line2d_7">
      <defs>
       <path id="mb5d0452b6c" d="M 0 0 
L 0 2 
" style="stroke: #000000; stroke-width: 0.6"/>
      </defs>
      <g>
       <use xlink:href="#mb5d0452b6c" x="96.349835" y="291.28" style="stroke: #000000; stroke-width: 0.6"/>
      </g>
     </g>
    </g>
    <g id="xtick_5">
     <g id="line2d_8">
      <g>
       <use xlink:href="#mb5d0452b6c" x="132.676174" y="291.28" style="stroke: #000000; stroke-width: 0.6"/>
      </g>
     </g>
    </g>
    <g id="xtick_6">
     <g id="line2d_9">
      <g>
       <use xlink:href="#mb5d0452b6c" x="158.450123" y="291.28" style="stroke: #000000; stroke-width: 0.6"/>
      </g>
     </g>
    </g>
    <g id="xtick_7">
     <g id="line2d_10">
      <g>
       <use xlink:href="#mb5d0452b6c" x="178.44195" y="291.28" style="stroke: #000000; stroke-width: 0.6"/>
      </g>
     </g>
    </g>
    <g id="xtick_8">
     <g id="line2d_11">
      <g>
       <use xlink:href="#mb5d0452b6c" x="194.776462" y="291.28" style="stroke: #000000; stroke-width: 0.6"/>
      </g>
     </g>
    </g>
    <g id="xtick_9">
     <g id="line2d_12">
      <g>
       <use xlink:href="#mb5d0452b6c" x="208.587096" y="291.28" style="stroke: #000000; stroke-width: 0.6"/>
      </g>
     </g>
    </g>
    <g id="xtick_10">
     <g id="line2d_13">
      <g>
       <use xlink:href="#mb5d0452b6c" x="220.55041" y="291.28" style="stroke: #000000; stroke-width: 0.6"/>
      </g>
     </g>
    </g>
    <g id="xtick_11">
     <g id="line2d_14">
      <g>
       <use xlink:href="#mb5d0452b6c" x="231.102802" y="291.28" style="stroke: #000000; stroke-width: 0.6"/>
      </g>
     </g>
    </g>
    <g id="xtick_12">
     <g id="line2d_15">
      <g>
       <use xlink:href="#mb5d0452b6c" x="302.642525" y="291.28" style="stroke: #000000; stroke-width: 0.6"/>
      </g>
     </g>
    </g>
    <g id="xtick_13">
     <g id="line2d_16">
      <g>
       <use xlink:href="#mb5d0452b6c" x="338.968865" y="291.28" style="stroke: #000000; stroke-width: 0.6"/>
      </g>
     </g>
    </g>
    <g id="xtick_14">
     <g id="line2d_17">
      <g>
       <use xlink:href="#mb5d0452b6c" x="364.742813" y="291.28" style="stroke: #000000; stroke-width: 0.6"/>
      </g>
     </g>
    </g>
    <g id="xtick_15">
     <g id="line2d_18">
      <g>
       <use xlink:href="#mb5d0452b6c" x="384.73464" y="291.28" style="stroke: #000000; stroke-width: 0.6"/>
      </g>
     </g>
    </g>
    <g id="xtick_16">
     <g id="line2d_19">
      <g>
       <use xlink:href="#mb5d0452b6c" x="401.069153" y="291.28" style="stroke: #000000; stroke-width: 0.6"/>
      </g>
     </g>
    </g>
    <g id="xtick_17">
     <g id="line2d_20">
      <g>
       <use xlink:href="#mb5d0452b6c" x="414.879786" y="291.28" style="stroke: #000000; stroke-width: 0.6"/>
      </g>
     </g>
    </g>
    <g id="xtick_18">
     <g id="line2d_21">
      <g>
       <use xlink:href="#mb5d0452b6c" x="426.843101" y="291.28" style="stroke: #000000; stroke-width: 0.6"/>
      </g>
     </g>
    </g>
    <g id="xtick_19">
     <g id="line2d_22">
      <g>
       <use xlink:href="#mb5d0452b6c" x="437.395492" y="291.28" style="stroke: #000000; stroke-width: 0.6"/>
      </g>
     </g>
    </g>
    <g id="text_4">
     <!-- log10 of FEvals ratio -->
     <g transform="translate(138.23755 336.833125)scale(0.2 -0.2)">
      <defs>
       <path id="DejaVuSans-6c" d="M 603 4863 
L 1178 4863 
L 1178 0 
L 603 0 
L 603 4863 
z
" transform="scale(0.015625)"/>
       <path id="DejaVuSans-6f" d="M 1959 3097 
Q 1497 3097 1228 2736 
Q 959 2375 959 1747 
Q 959 1119 1226 758 
Q 1494 397 1959 397 
Q 2419 397 2687 759 
Q 2956 1122 2956 1747 
Q 2956 2369 2687 2733 
Q 2419 3097 1959 3097 
z
M 1959 3584 
Q 2709 3584 3137 3096 
Q 3566 2609 3566 1747 
Q 3566 888 3137 398 
Q 2709 -91 1959 -91 
Q 1206 -91 779 398 
Q 353 888 353 1747 
Q 353 2609 779 3096 
Q 1206 3584 1959 3584 
z
" transform="scale(0.015625)"/>
       <path id="DejaVuSans-67" d="M 2906 1791 
Q 2906 2416 2648 2759 
Q 2391 3103 1925 3103 
Q 1463 3103 1205 2759 
Q 947 2416 947 1791 
Q 947 1169 1205 825 
Q 1463 481 1925 481 
Q 2391 481 2648 825 
Q 2906 1169 2906 1791 
z
M 3481 434 
Q 3481 -459 3084 -895 
Q 2688 -1331 1869 -1331 
Q 1566 -1331 1297 -1286 
Q 1028 -1241 775 -1147 
L 775 -588 
Q 1028 -725 1275 -790 
Q 1522 -856 1778 -856 
Q 2344 -856 2625 -561 
Q 2906 -266 2906 331 
L 2906 616 
Q 2728 306 2450 153 
Q 2172 0 1784 0 
Q 1141 0 747 490 
Q 353 981 353 1791 
Q 353 2603 747 3093 
Q 1141 3584 1784 3584 
Q 2172 3584 2450 3431 
Q 2728 3278 2906 2969 
L 2906 3500 
L 3481 3500 
L 3481 434 
z
" transform="scale(0.015625)"/>
       <path id="DejaVuSans-20" transform="scale(0.015625)"/>
       <path id="DejaVuSans-66" d="M 2375 4863 
L 2375 4384 
L 1825 4384 
Q 1516 4384 1395 4259 
Q 1275 4134 1275 3809 
L 1275 3500 
L 2222 3500 
L 2222 3053 
L 1275 3053 
L 1275 0 
L 697 0 
L 697 3053 
L 147 3053 
L 147 3500 
L 697 3500 
L 697 3744 
Q 697 4328 969 4595 
Q 1241 4863 1831 4863 
L 2375 4863 
z
" transform="scale(0.015625)"/>
       <path id="DejaVuSans-46" d="M 628 4666 
L 3309 4666 
L 3309 4134 
L 1259 4134 
L 1259 2759 
L 3109 2759 
L 3109 2228 
L 1259 2228 
L 1259 0 
L 628 0 
L 628 4666 
z
" transform="scale(0.015625)"/>
       <path id="DejaVuSans-45" d="M 628 4666 
L 3578 4666 
L 3578 4134 
L 1259 4134 
L 1259 2753 
L 3481 2753 
L 3481 2222 
L 1259 2222 
L 1259 531 
L 3634 531 
L 3634 0 
L 628 0 
L 628 4666 
z
" transform="scale(0.015625)"/>
       <path id="DejaVuSans-76" d="M 191 3500 
L 800 3500 
L 1894 563 
L 2988 3500 
L 3597 3500 
L 2284 0 
L 1503 0 
L 191 3500 
z
" transform="scale(0.015625)"/>
       <path id="DejaVuSans-61" d="M 2194 1759 
Q 1497 1759 1228 1600 
Q 959 1441 959 1056 
Q 959 750 1161 570 
Q 1363 391 1709 391 
Q 2188 391 2477 730 
Q 2766 1069 2766 1631 
L 2766 1759 
L 2194 1759 
z
M 3341 1997 
L 3341 0 
L 2766 0 
L 2766 531 
Q 2569 213 2275 61 
Q 1981 -91 1556 -91 
Q 1019 -91 701 211 
Q 384 513 384 1019 
Q 384 1609 779 1909 
Q 1175 2209 1959 2209 
L 2766 2209 
L 2766 2266 
Q 2766 2663 2505 2880 
Q 2244 3097 1772 3097 
Q 1472 3097 1187 3025 
Q 903 2953 641 2809 
L 641 3341 
Q 956 3463 1253 3523 
Q 1550 3584 1831 3584 
Q 2591 3584 2966 3190 
Q 3341 2797 3341 1997 
z
" transform="scale(0.015625)"/>
       <path id="DejaVuSans-73" d="M 2834 3397 
L 2834 2853 
Q 2591 2978 2328 3040 
Q 2066 3103 1784 3103 
Q 1356 3103 1142 2972 
Q 928 2841 928 2578 
Q 928 2378 1081 2264 
Q 1234 2150 1697 2047 
L 1894 2003 
Q 2506 1872 2764 1633 
Q 3022 1394 3022 966 
Q 3022 478 2636 193 
Q 2250 -91 1575 -91 
Q 1294 -91 989 -36 
Q 684 19 347 128 
L 347 722 
Q 666 556 975 473 
Q 1284 391 1588 391 
Q 1994 391 2212 530 
Q 2431 669 2431 922 
Q 2431 1156 2273 1281 
Q 2116 1406 1581 1522 
L 1381 1569 
Q 847 1681 609 1914 
Q 372 2147 372 2553 
Q 372 3047 722 3315 
Q 1072 3584 1716 3584 
Q 2034 3584 2315 3537 
Q 2597 3491 2834 3397 
z
" transform="scale(0.015625)"/>
       <path id="DejaVuSans-72" d="M 2631 2963 
Q 2534 3019 2420 3045 
Q 2306 3072 2169 3072 
Q 1681 3072 1420 2755 
Q 1159 2438 1159 1844 
L 1159 0 
L 581 0 
L 581 3500 
L 1159 3500 
L 1159 2956 
Q 1341 3275 1631 3429 
Q 1922 3584 2338 3584 
Q 2397 3584 2469 3576 
Q 2541 3569 2628 3553 
L 2631 2963 
z
" transform="scale(0.015625)"/>
       <path id="DejaVuSans-74" d="M 1172 4494 
L 1172 3500 
L 2356 3500 
L 2356 3053 
L 1172 3053 
L 1172 1153 
Q 1172 725 1289 603 
Q 1406 481 1766 481 
L 2356 481 
L 2356 0 
L 1766 0 
Q 1100 0 847 248 
Q 594 497 594 1153 
L 594 3053 
L 172 3053 
L 172 3500 
L 594 3500 
L 594 4494 
L 1172 4494 
z
" transform="scale(0.015625)"/>
       <path id="DejaVuSans-69" d="M 603 3500 
L 1178 3500 
L 1178 0 
L 603 0 
L 603 3500 
z
M 603 4863 
L 1178 4863 
L 1178 4134 
L 603 4134 
L 603 4863 
z
" transform="scale(0.015625)"/>
      </defs>
      <use xlink:href="#DejaVuSans-6c"/>
      <use xlink:href="#DejaVuSans-6f" x="27.783203"/>
      <use xlink:href="#DejaVuSans-67" x="88.964844"/>
      <use xlink:href="#DejaVuSans-31" x="152.441406"/>
      <use xlink:href="#DejaVuSans-30" x="216.064453"/>
      <use xlink:href="#DejaVuSans-20" x="279.6875"/>
      <use xlink:href="#DejaVuSans-6f" x="311.474609"/>
      <use xlink:href="#DejaVuSans-66" x="372.65625"/>
      <use xlink:href="#DejaVuSans-20" x="407.861328"/>
      <use xlink:href="#DejaVuSans-46" x="439.648438"/>
      <use xlink:href="#DejaVuSans-45" x="497.167969"/>
      <use xlink:href="#DejaVuSans-76" x="560.351562"/>
      <use xlink:href="#DejaVuSans-61" x="619.53125"/>
      <use xlink:href="#DejaVuSans-6c" x="680.810547"/>
      <use xlink:href="#DejaVuSans-73" x="708.59375"/>
      <use xlink:href="#DejaVuSans-20" x="760.693359"/>
      <use xlink:href="#DejaVuSans-72" x="792.480469"/>
      <use xlink:href="#DejaVuSans-61" x="833.59375"/>
      <use xlink:href="#DejaVuSans-74" x="894.873047"/>
      <use xlink:href="#DejaVuSans-69" x="934.082031"/>
      <use xlink:href="#DejaVuSans-6f" x="961.865234"/>
     </g>
    </g>
   </g>
   <g id="matplotlib.axis_2">
    <g id="ytick_1">
     <g id="line2d_23">
      <path d="M 34.16 288.453725 
L 446.924475 288.453725 
" clip-path="url(#p16bf17e9b8)" style="fill: none; stroke: #b0b0b0; stroke-width: 0.8; stroke-linecap: square"/>
     </g>
     <g id="line2d_24">
      <defs>
       <path id="m8455b56f91" d="M 0 0 
L -3.5 0 
" style="stroke: #000000; stroke-width: 0.8"/>
      </defs>
      <g>
       <use xlink:href="#m8455b56f91" x="34.16" y="288.453725" style="stroke: #000000; stroke-width: 0.8"/>
      </g>
     </g>
    </g>
    <g id="ytick_2">
     <g id="line2d_25">
      <path d="M 34.16 217.796863 
L 446.924475 217.796863 
" clip-path="url(#p16bf17e9b8)" style="fill: none; stroke: #b0b0b0; stroke-width: 0.8; stroke-linecap: square"/>
     </g>
     <g id="line2d_26">
      <g>
       <use xlink:href="#m8455b56f91" x="34.16" y="217.796863" style="stroke: #000000; stroke-width: 0.8"/>
      </g>
     </g>
    </g>
    <g id="ytick_3">
     <g id="line2d_27">
      <path d="M 34.16 147.14 
L 446.924475 147.14 
" clip-path="url(#p16bf17e9b8)" style="fill: none; stroke: #b0b0b0; stroke-width: 0.8; stroke-linecap: square"/>
     </g>
     <g id="line2d_28">
      <g>
       <use xlink:href="#m8455b56f91" x="34.16" y="147.14" style="stroke: #000000; stroke-width: 0.8"/>
      </g>
     </g>
    </g>
    <g id="ytick_4">
     <g id="line2d_29">
      <path d="M 34.16 76.483137 
L 446.924475 76.483137 
" clip-path="url(#p16bf17e9b8)" style="fill: none; stroke: #b0b0b0; stroke-width: 0.8; stroke-linecap: square"/>
     </g>
     <g id="line2d_30">
      <g>
       <use xlink:href="#m8455b56f91" x="34.16" y="76.483137" style="stroke: #000000; stroke-width: 0.8"/>
      </g>
     </g>
    </g>
    <g id="ytick_5">
     <g id="line2d_31">
      <path d="M 34.16 5.826275 
L 446.924475 5.826275 
" clip-path="url(#p16bf17e9b8)" style="fill: none; stroke: #b0b0b0; stroke-width: 0.8; stroke-linecap: square"/>
     </g>
     <g id="line2d_32">
      <g>
       <use xlink:href="#m8455b56f91" x="34.16" y="5.826275" style="stroke: #000000; stroke-width: 0.8"/>
      </g>
     </g>
    </g>
    <g id="text_5">
     <!-- proportion of trials -->
     <g transform="translate(19.000625 240.14625)rotate(-90)scale(0.2 -0.2)">
      <defs>
       <path id="DejaVuSans-70" d="M 1159 525 
L 1159 -1331 
L 581 -1331 
L 581 3500 
L 1159 3500 
L 1159 2969 
Q 1341 3281 1617 3432 
Q 1894 3584 2278 3584 
Q 2916 3584 3314 3078 
Q 3713 2572 3713 1747 
Q 3713 922 3314 415 
Q 2916 -91 2278 -91 
Q 1894 -91 1617 61 
Q 1341 213 1159 525 
z
M 3116 1747 
Q 3116 2381 2855 2742 
Q 2594 3103 2138 3103 
Q 1681 3103 1420 2742 
Q 1159 2381 1159 1747 
Q 1159 1113 1420 752 
Q 1681 391 2138 391 
Q 2594 391 2855 752 
Q 3116 1113 3116 1747 
z
" transform="scale(0.015625)"/>
       <path id="DejaVuSans-6e" d="M 3513 2113 
L 3513 0 
L 2938 0 
L 2938 2094 
Q 2938 2591 2744 2837 
Q 2550 3084 2163 3084 
Q 1697 3084 1428 2787 
Q 1159 2491 1159 1978 
L 1159 0 
L 581 0 
L 581 3500 
L 1159 3500 
L 1159 2956 
Q 1366 3272 1645 3428 
Q 1925 3584 2291 3584 
Q 2894 3584 3203 3211 
Q 3513 2838 3513 2113 
z
" transform="scale(0.015625)"/>
      </defs>
      <use xlink:href="#DejaVuSans-70"/>
      <use xlink:href="#DejaVuSans-72" x="63.476562"/>
      <use xlink:href="#DejaVuSans-6f" x="102.339844"/>
      <use xlink:href="#DejaVuSans-70" x="163.521484"/>
      <use xlink:href="#DejaVuSans-6f" x="226.998047"/>
      <use xlink:href="#DejaVuSans-72" x="288.179688"/>
      <use xlink:href="#DejaVuSans-74" x="329.292969"/>
      <use xlink:href="#DejaVuSans-69" x="368.501953"/>
      <use xlink:href="#DejaVuSans-6f" x="396.285156"/>
      <use xlink:href="#DejaVuSans-6e" x="457.466797"/>
      <use xlink:href="#DejaVuSans-20" x="520.845703"/>
      <use xlink:href="#DejaVuSans-6f" x="552.632812"/>
      <use xlink:href="#DejaVuSans-66" x="613.814453"/>
      <use xlink:href="#DejaVuSans-20" x="649.019531"/>
      <use xlink:href="#DejaVuSans-74" x="680.806641"/>
      <use xlink:href="#DejaVuSans-72" x="720.015625"/>
      <use xlink:href="#DejaVuSans-69" x="761.128906"/>
      <use xlink:href="#DejaVuSans-61" x="788.912109"/>
      <use xlink:href="#DejaVuSans-6c" x="850.191406"/>
      <use xlink:href="#DejaVuSans-73" x="877.974609"/>
     </g>
    </g>
   </g>
   <g id="line2d_33">
    <path d="M 34.16 288.453725 
L 145.696947 288.453725 
L 145.696947 287.511634 
L 153.767634 287.511634 
L 153.767634 286.569542 
L 155.961248 286.569542 
L 155.961248 285.627451 
L 164.031935 285.627451 
L 164.135936 282.801176 
L 164.80644 282.801176 
L 164.80644 281.859085 
L 166.838736 281.859085 
L 166.838736 280.916993 
L 170.893216 280.916993 
L 170.893216 279.974902 
L 171.994051 279.974902 
L 171.994051 279.03281 
L 172.219035 279.03281 
L 172.315284 277.148627 
L 173.083467 277.148627 
L 173.083467 276.206536 
L 173.501665 276.206536 
L 173.501665 275.264444 
L 174.089873 275.264444 
L 174.089873 274.322353 
L 174.400237 274.322353 
L 174.400237 273.380261 
L 174.792359 273.380261 
L 174.792359 272.43817 
L 175.017343 272.43817 
L 175.113592 269.611895 
L 175.728567 269.611895 
L 175.728567 268.669804 
L 176.047156 268.669804 
L 176.047156 267.727712 
L 176.190382 267.727712 
L 176.190382 266.785621 
L 177.076529 266.785621 
L 177.076529 265.843529 
L 177.486074 265.843529 
L 177.486074 264.901438 
L 178.526875 264.901438 
L 178.526875 263.959346 
L 178.988689 263.959346 
L 178.988689 263.017255 
L 179.133629 263.017255 
L 179.133629 262.075163 
L 179.874836 262.075163 
L 179.874836 261.133072 
L 180.284382 261.133072 
L 180.284382 260.19098 
L 181.154154 260.19098 
L 181.157517 258.306797 
L 181.572352 258.306797 
L 181.572352 257.364706 
L 182.789258 257.364706 
L 182.789258 256.422614 
L 183.785539 256.422614 
L 183.785539 255.480523 
L 184.354174 255.480523 
L 184.354174 254.538431 
L 185.070719 254.538431 
L 185.070719 253.59634 
L 185.201342 253.59634 
L 185.201342 252.654248 
L 185.587566 252.654248 
L 185.587566 251.712157 
L 185.83245 251.712157 
L 185.83245 250.770065 
L 186.052594 250.770065 
L 186.052594 249.827974 
L 186.311458 249.827974 
L 186.334155 247.943791 
L 187.204316 247.943791 
L 187.204316 247.001699 
L 187.869026 247.001699 
L 187.869026 246.059608 
L 188.740525 246.059608 
L 188.850902 244.175425 
L 191.522455 244.175425 
L 191.522455 243.233333 
L 191.739162 243.233333 
L 191.739162 242.291242 
L 191.940653 242.291242 
L 191.964146 240.407059 
L 192.060395 240.407059 
L 192.060395 239.464967 
L 192.19296 239.464967 
L 192.268624 236.638693 
L 192.450625 236.638693 
L 192.450625 235.696601 
L 192.611158 235.696601 
L 192.611158 234.75451 
L 195.041264 234.75451 
L 195.066932 232.870327 
L 195.465643 232.870327 
L 195.473678 230.986144 
L 195.610307 230.986144 
L 195.63966 229.101961 
L 195.935492 229.101961 
L 195.935492 228.159869 
L 196.096751 228.159869 
L 196.096751 227.217778 
L 196.598456 227.217778 
L 196.598456 226.275686 
L 196.821639 226.275686 
L 196.821639 225.333595 
L 197.231185 225.333595 
L 197.231185 224.391503 
L 197.526317 224.391503 
L 197.572618 222.50732 
L 198.243123 222.50732 
L 198.279736 220.623137 
L 198.620746 220.623137 
L 198.697934 218.738954 
L 199.004826 218.738954 
L 199.004826 217.796863 
L 200.324624 217.796863 
L 200.404247 215.91268 
L 200.629231 215.91268 
L 200.72548 214.028497 
L 200.957656 214.028497 
L 200.957656 213.086405 
L 201.419053 213.086405 
L 201.476723 210.260131 
L 201.894591 210.260131 
L 201.894591 209.318039 
L 202.534369 209.318039 
L 202.534369 208.375948 
L 203.433676 208.375948 
L 203.433676 207.433856 
L 203.56393 207.433856 
L 203.56393 206.491765 
L 203.788914 206.491765 
L 203.885163 203.66549 
L 204.138763 203.66549 
L 204.138763 202.723399 
L 204.329898 202.723399 
L 204.329898 201.781307 
L 204.600578 201.781307 
L 204.600578 200.839216 
L 204.81583 200.839216 
L 204.81583 199.897124 
L 205.476053 199.897124 
L 205.486725 198.012941 
L 205.797705 198.012941 
L 205.903961 195.186667 
L 205.931798 195.186667 
L 205.931798 194.244575 
L 206.956641 194.244575 
L 206.956641 193.302484 
L 207.298446 193.302484 
L 207.298446 192.360392 
L 207.525537 192.360392 
L 207.526556 190.476209 
L 207.76026 190.476209 
L 207.76026 189.534118 
L 207.981282 189.534118 
L 207.981282 188.592026 
L 208.587096 188.592026 
L 208.646407 186.707843 
L 209.055953 186.707843 
L 209.055953 185.765752 
L 209.483839 185.765752 
L 209.483839 184.82366 
L 209.745269 184.82366 
L 209.745269 183.881569 
L 211.019601 183.881569 
L 211.019601 182.939477 
L 211.199455 182.939477 
L 211.221957 181.055294 
L 211.741024 181.055294 
L 211.741024 180.113203 
L 211.988068 180.113203 
L 212.013735 178.22902 
L 212.177775 178.22902 
L 212.177775 177.286928 
L 212.587861 177.286928 
L 212.587861 176.344837 
L 213.006059 176.344837 
L 213.006059 175.402745 
L 213.21897 175.402745 
L 213.21897 174.460654 
L 213.480915 174.460654 
L 213.480915 173.518562 
L 213.611759 173.518562 
L 213.720675 170.692288 
L 214.067504 170.692288 
L 214.163495 167.866013 
L 214.359137 167.866013 
L 214.462791 165.98183 
L 215.321668 165.98183 
L 215.321668 165.039739 
L 216.127045 165.039739 
L 216.127045 164.097647 
L 216.283329 164.097647 
L 216.343451 162.213464 
L 216.545243 162.213464 
L 216.640598 160.329281 
L 216.665917 160.329281 
L 216.739074 158.445098 
L 217.17283 158.445098 
L 217.271427 155.618824 
L 217.501625 155.618824 
L 217.501625 154.676732 
L 217.622473 154.676732 
L 217.628575 152.792549 
L 217.824091 152.792549 
L 217.824091 151.850458 
L 218.004882 151.850458 
L 218.004882 150.908366 
L 218.365857 150.908366 
L 218.460627 149.024183 
L 218.58859 149.024183 
L 218.638024 147.14 
L 219.269132 147.14 
L 219.269132 146.197908 
L 219.502541 146.197908 
L 219.5927 144.313725 
L 219.770837 144.313725 
L 219.770837 143.371634 
L 219.958287 143.371634 
L 219.958287 142.429542 
L 220.265841 142.429542 
L 220.265841 141.487451 
L 220.638073 141.487451 
L 220.721587 137.719085 
L 220.975576 137.719085 
L 220.975576 136.776993 
L 221.431322 136.776993 
L 221.431322 135.834902 
L 221.819903 135.834902 
L 221.819903 134.89281 
L 222.025205 134.89281 
L 222.025205 133.950719 
L 222.177207 133.950719 
L 222.275649 132.066536 
L 223.02618 132.066536 
L 223.02618 131.124444 
L 223.444378 131.124444 
L 223.444378 130.182353 
L 223.812836 130.182353 
L 223.838503 128.29817 
L 224.854397 128.29817 
L 224.854397 127.356078 
L 225.053215 127.356078 
L 225.053215 126.413987 
L 225.169099 126.413987 
L 225.169099 125.471895 
L 225.936513 125.471895 
L 225.936513 124.529804 
L 226.724295 124.529804 
L 226.724295 123.587712 
L 226.903881 123.587712 
L 226.903881 122.645621 
L 227.030942 122.645621 
L 227.030942 121.703529 
L 227.277897 121.703529 
L 227.349055 119.819346 
L 227.485721 119.819346 
L 227.485721 118.877255 
L 227.671521 118.877255 
L 227.671521 117.935163 
L 228.344176 117.935163 
L 228.436071 116.05098 
L 228.762374 116.05098 
L 228.863243 114.166797 
L 229.076342 114.166797 
L 229.096195 112.282614 
L 229.281441 112.282614 
L 229.281441 111.340523 
L 229.395865 111.340523 
L 229.467444 109.45634 
L 229.76701 109.45634 
L 229.76701 108.514248 
L 229.923189 108.514248 
L 229.923189 107.572157 
L 230.190625 107.572157 
L 230.285366 104.745882 
L 230.629614 104.745882 
L 230.629614 103.803791 
L 231.117418 103.803791 
L 231.117418 102.861699 
L 232.355381 102.861699 
L 232.355381 101.919608 
L 232.615078 101.919608 
L 232.615078 100.977516 
L 232.731788 100.977516 
L 232.821425 98.151242 
L 232.990103 98.151242 
L 233.038984 96.267059 
L 233.132037 96.267059 
L 233.132037 95.324967 
L 233.378378 95.324967 
L 233.378378 94.382876 
L 233.494729 94.382876 
L 233.494729 93.440784 
L 233.889962 93.440784 
L 233.979599 91.556601 
L 234.088113 91.556601 
L 234.088113 90.61451 
L 234.343161 90.61451 
L 234.404865 87.788235 
L 234.683369 87.788235 
L 234.761359 85.904052 
L 234.913405 85.904052 
L 234.93244 84.019869 
L 235.661673 84.019869 
L 235.661673 83.077778 
L 235.841543 83.077778 
L 235.841543 82.135686 
L 236.551174 82.135686 
L 236.551174 81.193595 
L 237.383226 81.193595 
L 237.383226 80.251503 
L 237.928478 80.251503 
L 237.928478 79.309412 
L 238.283502 79.309412 
L 238.384224 77.425229 
L 238.880886 77.425229 
L 238.880886 76.483137 
L 239.644185 76.483137 
L 239.644185 75.541046 
L 240.353921 75.541046 
L 240.393323 73.656863 
L 240.491086 73.656863 
L 240.491086 72.714771 
L 241.115758 72.714771 
L 241.198247 70.830588 
L 242.273932 70.830588 
L 242.273932 69.888497 
L 242.57998 69.888497 
L 242.57998 68.946405 
L 242.879547 68.946405 
L 242.879547 68.004314 
L 243.162656 68.004314 
L 243.162656 67.062222 
L 243.737393 67.062222 
L 243.827029 64.235948 
L 244.052157 64.235948 
L 244.052157 63.293856 
L 244.884209 63.293856 
L 244.884209 62.351765 
L 245.688974 62.351765 
L 245.688974 61.409673 
L 246.15152 61.409673 
L 246.15152 60.467582 
L 246.381869 60.467582 
L 246.381869 59.52549 
L 246.549003 59.52549 
L 246.549003 58.583399 
L 247.004749 58.583399 
L 247.004749 57.641307 
L 247.145169 57.641307 
L 247.145169 56.699216 
L 247.854904 56.699216 
L 247.854904 55.757124 
L 248.104554 55.757124 
L 248.135154 53.872941 
L 248.699231 53.872941 
L 248.699231 52.93085 
L 248.845788 52.93085 
L 248.845788 51.988758 
L 249.145355 51.988758 
L 249.197908 50.104575 
L 249.262728 50.104575 
L 249.287544 48.220392 
L 250.567659 48.220392 
L 250.567659 47.278301 
L 251.041015 47.278301 
L 251.149489 45.394118 
L 252.121363 45.394118 
L 252.121363 44.452026 
L 252.417328 44.452026 
L 252.417328 43.509935 
L 253.711553 43.509935 
L 253.711553 42.567843 
L 255.891509 42.567843 
L 255.891509 41.625752 
L 256.213975 41.625752 
L 256.213975 40.68366 
L 256.346771 40.68366 
L 256.346771 39.741569 
L 256.646338 39.741569 
L 256.646338 38.799477 
L 257.306823 38.799477 
L 257.306823 37.857386 
L 257.581878 37.857386 
L 257.581878 36.915294 
L 259.110159 36.915294 
L 259.110159 35.973203 
L 259.66154 35.973203 
L 259.66154 35.031111 
L 259.918311 35.031111 
L 259.918311 34.08902 
L 264.570674 34.08902 
L 264.570674 33.146928 
L 264.807806 33.146928 
L 264.807806 32.204837 
L 265.927347 32.204837 
L 265.927347 31.262745 
L 266.825955 31.262745 
L 266.825955 30.320654 
L 272.279846 30.320654 
L 272.369483 28.436471 
L 273.428331 28.436471 
L 273.428331 27.494379 
L 274.231427 27.494379 
L 274.231427 26.552288 
L 280.663816 26.552288 
L 280.663816 25.610196 
L 287.652613 25.610196 
L 287.652613 24.668105 
L 354.86852 24.668105 
L 354.86852 23.726013 
L 356.026694 23.726013 
L 356.026694 22.783922 
L 361.670077 22.783922 
L 361.670077 21.84183 
L 362.221283 21.84183 
L 362.221283 20.899739 
L 362.828251 20.899739 
L 362.828251 19.957647 
L 363.379457 19.957647 
L 363.379457 19.015556 
L 365.874125 19.015556 
L 365.874125 18.073464 
L 371.33464 18.073464 
L 371.33464 17.131373 
L 372.675682 17.131373 
L 372.675682 16.189281 
L 373.226887 16.189281 
L 373.226887 15.24719 
L 378.136197 15.24719 
L 378.136197 14.305098 
L 378.687402 14.305098 
L 378.687402 13.363007 
L 381.759673 13.363007 
L 381.759673 12.420915 
L 382.917847 12.420915 
L 382.917847 11.478824 
L 392.765277 11.478824 
L 392.765277 10.536732 
L 394.416579 10.536732 
L 394.416579 9.594641 
L 398.225793 9.594641 
L 398.225793 8.652549 
L 401.218135 8.652549 
L 401.218135 7.710458 
L 401.769341 7.710458 
L 401.769341 6.768366 
L 421.307731 6.768366 
L 421.307731 5.826275 
L 446.924475 5.826275 
L 446.924475 5.826275 
" clip-path="url(#p16bf17e9b8)" style="fill: none; stroke: #000000; stroke-width: 3; stroke-linecap: square"/>
   </g>
   <g id="line2d_34">
    <path clip-path="url(#p16bf17e9b8)" style="fill: none; stroke: #000000; stroke-width: 3; stroke-linecap: square"/>
   </g>
   <g id="line2d_35">
    <path d="M 34.16 288.453725 
L 173.680953 288.453725 
L 173.680953 287.511634 
L 174.185144 287.511634 
L 174.185144 286.569542 
L 175.163533 286.569542 
L 175.163533 285.627451 
L 175.667724 285.627451 
L 175.667724 284.685359 
L 180.683154 284.685359 
L 180.683154 283.743268 
L 181.187346 283.743268 
L 181.187346 282.801176 
L 182.583412 282.801176 
L 182.583412 281.859085 
L 182.773634 281.859085 
L 182.773634 280.916993 
L 183.087603 280.916993 
L 183.087603 279.974902 
L 183.701009 279.974902 
L 183.769023 277.148627 
L 184.225053 277.148627 
L 184.273214 274.322353 
L 184.743843 274.322353 
L 184.835176 272.43817 
L 185.338266 272.43817 
L 185.339367 270.553987 
L 185.598391 270.553987 
L 185.707632 267.727712 
L 185.956143 267.727712 
L 186.05871 265.843529 
L 186.120193 265.843529 
L 186.120193 264.901438 
L 186.265641 264.901438 
L 186.265641 263.959346 
L 186.883517 263.959346 
L 186.986084 262.075163 
L 187.047567 262.075163 
L 187.080971 260.19098 
L 187.407248 260.19098 
L 187.407248 259.248889 
L 187.623582 259.248889 
L 187.623582 258.306797 
L 188.550957 258.306797 
L 188.550957 257.364706 
L 188.889828 257.364706 
L 188.93025 255.480523 
L 189.857624 255.480523 
L 189.857624 254.538431 
L 190.368056 254.538431 
L 190.368056 253.59634 
L 190.89969 253.59634 
L 190.89969 252.654248 
L 191.227254 252.654248 
L 191.29543 250.770065 
L 191.403882 250.770065 
L 191.403882 249.827974 
L 191.878713 249.827974 
L 191.879263 247.943791 
L 192.050772 247.943791 
L 192.050772 247.001699 
L 192.340058 247.001699 
L 192.382904 245.117516 
L 192.600592 245.117516 
L 192.638807 243.233333 
L 192.806637 243.233333 
L 192.806637 242.291242 
L 193.017323 242.291242 
L 193.127512 240.407059 
L 193.142998 240.407059 
L 193.142998 239.464967 
L 194.02098 239.464967 
L 194.02098 238.522876 
L 194.286799 238.522876 
L 194.313122 235.696601 
L 194.409449 235.696601 
L 194.50085 233.812418 
L 194.615404 233.812418 
L 194.615404 232.870327 
L 194.858268 232.870327 
L 194.90469 230.986144 
L 194.987531 230.986144 
L 194.997318 229.101961 
L 195.233281 229.101961 
L 195.335847 227.217778 
L 195.379275 227.217778 
L 195.397331 225.333595 
L 195.501509 225.333595 
L 195.581955 222.50732 
L 195.625133 222.50732 
L 195.686617 218.738954 
L 195.785642 218.738954 
L 195.785642 217.796863 
L 196.199832 217.796863 
L 196.309707 214.970588 
L 196.363882 214.970588 
L 196.363882 214.028497 
L 196.752614 214.028497 
L 196.752614 213.086405 
L 196.891609 213.086405 
L 196.90072 211.202222 
L 197.036824 211.202222 
L 197.036824 210.260131 
L 197.190006 210.260131 
L 197.190006 209.318039 
L 197.468994 209.318039 
L 197.495318 207.433856 
L 197.639367 207.433856 
L 197.735399 204.607582 
L 197.818983 204.607582 
L 197.867271 202.723399 
L 197.964198 202.723399 
L 197.964198 201.781307 
L 198.205962 201.781307 
L 198.207387 199.897124 
L 198.496673 199.897124 
L 198.566741 197.07085 
L 198.662773 197.07085 
L 198.662773 196.128758 
L 199.173938 196.128758 
L 199.173938 195.186667 
L 199.645193 195.186667 
L 199.645193 194.244575 
L 199.934479 194.244575 
L 199.934479 193.302484 
L 200.611744 193.302484 
L 200.611744 192.360392 
L 200.98093 192.360392 
L 200.98093 191.418301 
L 201.1564 191.418301 
L 201.1564 190.476209 
L 201.44379 190.476209 
L 201.485121 187.649935 
L 202.122951 187.649935 
L 202.122951 186.707843 
L 202.422813 186.707843 
L 202.422813 185.765752 
L 202.817129 185.765752 
L 202.817129 184.82366 
L 203.182906 184.82366 
L 203.182906 183.881569 
L 203.796151 183.881569 
L 203.796151 182.939477 
L 204.135405 182.939477 
L 204.135405 181.997386 
L 204.424691 181.997386 
L 204.424691 181.055294 
L 204.556245 181.055294 
L 204.625985 179.171111 
L 205.101956 179.171111 
L 205.101956 178.22902 
L 205.541417 178.22902 
L 205.605008 176.344837 
L 206.168746 176.344837 
L 206.168746 175.402745 
L 206.313961 175.402745 
L 206.365102 173.518562 
L 206.458032 173.518562 
L 206.458032 172.576471 
L 206.603247 172.576471 
L 206.603247 171.634379 
L 206.914756 171.634379 
L 207.012536 168.808105 
L 207.135297 168.808105 
L 207.20579 166.923922 
L 207.280512 166.923922 
L 207.301822 165.039739 
L 207.883055 165.039739 
L 207.979087 163.155556 
L 208.24587 163.155556 
L 208.24587 162.213464 
L 208.723613 162.213464 
L 208.723613 161.271373 
L 209.619209 161.271373 
L 209.619209 160.329281 
L 211.428066 160.329281 
L 211.525029 158.445098 
L 212.898368 158.445098 
L 212.898368 157.503007 
L 213.219114 157.503007 
L 213.219114 156.560915 
L 214.707225 156.560915 
L 214.707225 155.618824 
L 216.898652 155.618824 
L 216.898652 154.676732 
L 218.22743 154.676732 
L 218.22743 153.734641 
L 221.906968 153.734641 
L 221.906968 152.792549 
L 222.840673 152.792549 
L 222.840673 151.850458 
L 223.152026 151.850458 
L 223.152026 150.908366 
L 223.771505 150.908366 
L 223.771505 149.966275 
L 224.284926 149.966275 
L 224.284926 149.024183 
L 225.182428 149.024183 
L 225.182428 148.082092 
L 225.604649 148.082092 
L 225.604649 147.14 
L 226.520211 147.14 
L 226.60767 145.255817 
L 226.831564 145.255817 
L 226.831564 144.313725 
L 227.302175 144.313725 
L 227.302175 143.371634 
L 227.451043 143.371634 
L 227.451043 142.429542 
L 227.819977 142.429542 
L 227.819977 141.487451 
L 229.113656 141.487451 
L 229.113656 140.545359 
L 229.284187 140.545359 
L 229.293243 138.661176 
L 230.190745 138.661176 
L 230.190745 137.719085 
L 230.981713 137.719085 
L 230.981713 136.776993 
L 231.481226 136.776993 
L 231.499515 134.89281 
L 231.615987 134.89281 
L 231.615987 133.950719 
L 232.116214 133.950719 
L 232.116214 133.008627 
L 232.793194 133.008627 
L 232.793194 132.066536 
L 233.456042 132.066536 
L 233.456042 131.124444 
L 233.672755 131.124444 
L 233.672755 130.182353 
L 233.906486 130.182353 
L 233.906486 129.240261 
L 234.217839 129.240261 
L 234.217839 128.29817 
L 234.803988 128.29817 
L 234.837318 125.471895 
L 234.930606 125.471895 
L 234.930606 124.529804 
L 235.066245 124.529804 
L 235.160764 121.703529 
L 235.73482 121.703529 
L 235.795752 119.819346 
L 236.216118 119.819346 
L 236.22923 117.935163 
L 236.540583 117.935163 
L 236.540583 116.993072 
L 236.670462 116.993072 
L 236.670462 116.05098 
L 237.160062 116.05098 
L 237.160062 115.108889 
L 237.352293 115.108889 
L 237.352293 114.166797 
L 237.567964 114.166797 
L 237.567964 113.224706 
L 238.269299 113.224706 
L 238.367988 111.340523 
L 238.49652 111.340523 
L 238.49652 110.398431 
L 238.610143 110.398431 
L 238.610143 109.45634 
L 238.88579 109.45634 
L 238.993206 107.572157 
L 239.021018 107.572157 
L 239.021018 106.630065 
L 239.26549 106.630065 
L 239.26549 105.687974 
L 239.74443 105.687974 
L 239.783292 102.861699 
L 239.879502 102.861699 
L 239.879502 101.919608 
L 240.179468 101.919608 
L 240.179468 100.977516 
L 240.607795 100.977516 
L 240.690732 98.151242 
L 241.029375 98.151242 
L 241.07697 96.267059 
L 241.208534 96.267059 
L 241.208534 95.324967 
L 241.354633 95.324967 
L 241.406028 92.498693 
L 241.772516 92.498693 
L 241.781094 90.61451 
L 242.217998 90.61451 
L 242.217998 89.672418 
L 242.502212 89.672418 
L 242.547039 85.904052 
L 243.182027 85.904052 
L 243.182027 84.961961 
L 243.367871 84.961961 
L 243.444541 82.135686 
L 243.82598 82.135686 
L 243.82598 81.193595 
L 244.079529 81.193595 
L 244.079529 80.251503 
L 244.260966 80.251503 
L 244.260966 79.309412 
L 244.532591 79.309412 
L 244.532591 78.36732 
L 244.738568 78.36732 
L 244.738568 77.425229 
L 244.869783 77.425229 
L 244.869783 76.483137 
L 245.436183 76.483137 
L 245.504771 73.656863 
L 245.63607 73.656863 
L 245.63607 72.714771 
L 245.882795 72.714771 
L 245.882795 71.77268 
L 245.996418 71.77268 
L 245.996418 70.830588 
L 246.219285 70.830588 
L 246.219285 69.888497 
L 246.586055 69.888497 
L 246.586055 68.946405 
L 246.780297 68.946405 
L 246.780297 68.004314 
L 246.89392 68.004314 
L 246.971004 66.120131 
L 247.061312 66.120131 
L 247.078837 64.235948 
L 247.642191 64.235948 
L 247.723819 61.409673 
L 247.917765 61.409673 
L 247.991556 58.583399 
L 248.205539 58.583399 
L 248.22871 56.699216 
L 248.319162 56.699216 
L 248.319162 55.757124 
L 248.557781 55.757124 
L 248.557781 54.815033 
L 249.252394 54.815033 
L 249.252394 53.872941 
L 249.527968 53.872941 
L 249.601758 51.988758 
L 249.722501 51.988758 
L 249.722501 51.046667 
L 250.402267 51.046667 
L 250.402267 50.104575 
L 250.677841 50.104575 
L 250.751631 48.220392 
L 251.775965 48.220392 
L 251.775965 47.278301 
L 252.234619 47.278301 
L 252.234619 46.336209 
L 253.41862 46.336209 
L 253.41862 45.394118 
L 253.844822 45.394118 
L 253.844822 44.452026 
L 254.994695 44.452026 
L 254.994695 43.509935 
L 255.326779 43.509935 
L 255.326779 42.567843 
L 255.592177 42.567843 
L 255.592177 41.625752 
L 255.867751 41.625752 
L 255.941541 39.741569 
L 256.224281 39.741569 
L 256.224281 38.799477 
L 257.649523 38.799477 
L 257.649523 37.857386 
L 260.184605 37.857386 
L 260.184605 36.915294 
L 265.129103 36.915294 
L 265.129103 35.973203 
L 265.633295 35.973203 
L 265.633295 35.031111 
L 265.855874 35.031111 
L 265.855874 34.08902 
L 266.360065 34.08902 
L 266.360065 33.146928 
L 275.673203 33.146928 
L 275.673203 32.204837 
L 276.399973 32.204837 
L 276.399973 31.262745 
L 277.046542 31.262745 
L 277.046542 30.320654 
L 277.773312 30.320654 
L 277.773312 29.378562 
L 278.855399 29.378562 
L 278.855399 28.436471 
L 279.582169 28.436471 
L 279.582169 27.494379 
L 294.660682 27.494379 
L 294.660682 26.552288 
L 296.270885 26.552288 
L 296.270885 25.610196 
L 297.390771 25.610196 
L 297.420758 23.726013 
L 299.000974 23.726013 
L 299.000974 22.783922 
L 300.150847 22.783922 
L 300.150847 21.84183 
L 302.013809 21.84183 
L 302.013809 20.899739 
L 302.610668 20.899739 
L 302.610668 19.957647 
L 305.340757 19.957647 
L 305.340757 19.015556 
L 306.827066 19.015556 
L 306.827066 18.073464 
L 307.578785 18.073464 
L 307.578785 17.131373 
L 308.302196 17.131373 
L 308.331599 15.24719 
L 309.165562 15.24719 
L 309.165562 14.305098 
L 310.330282 14.305098 
L 310.330282 13.363007 
L 312.383746 13.363007 
L 312.383746 12.420915 
L 314.026401 12.420915 
L 314.026401 11.478824 
L 316.199957 11.478824 
L 316.199957 10.536732 
L 316.475532 10.536732 
L 316.549322 8.652549 
L 320.792385 8.652549 
L 320.792385 7.710458 
L 363.218449 7.710458 
L 363.218449 6.768366 
L 365.948538 6.768366 
L 365.948538 5.826275 
L 446.924475 5.826275 
L 446.924475 5.826275 
" clip-path="url(#p16bf17e9b8)" style="fill: none; stroke: #00bfbf; stroke-width: 3; stroke-linecap: square"/>
   </g>
   <g id="line2d_36">
    <path clip-path="url(#p16bf17e9b8)" style="fill: none; stroke: #00bfbf; stroke-width: 3; stroke-linecap: square"/>
   </g>
   <g id="line2d_37">
    <path d="M 34.16 288.453725 
L 171.891128 288.453725 
L 171.97824 286.569542 
L 173.548919 286.569542 
L 173.636031 284.685359 
L 177.663961 284.685359 
L 177.751073 282.801176 
L 178.519978 282.801176 
L 178.607091 280.916993 
L 179.516348 280.916993 
L 179.60346 279.03281 
L 180.519361 279.03281 
L 180.606473 277.148627 
L 180.792871 277.148627 
L 180.792871 276.206536 
L 181.063354 276.206536 
L 181.150466 273.380261 
L 181.501213 273.380261 
L 181.540075 271.496078 
L 182.248417 271.496078 
L 182.248417 270.553987 
L 182.728523 270.553987 
L 182.756315 268.669804 
L 182.868304 268.669804 
L 182.868304 267.727712 
L 183.576646 267.727712 
L 183.616799 265.843529 
L 183.74128 265.843529 
L 183.824286 263.959346 
L 183.988714 263.959346 
L 183.988714 263.017255 
L 184.32514 263.017255 
L 184.414106 261.133072 
L 184.532628 261.133072 
L 184.532628 260.19098 
L 184.697055 260.19098 
L 184.697055 259.248889 
L 185.2334 259.248889 
L 185.2334 258.306797 
L 185.399071 258.306797 
L 185.399071 257.364706 
L 185.941741 257.364706 
L 185.941741 256.422614 
L 186.235452 256.422614 
L 186.322564 253.59634 
L 186.843566 253.59634 
L 186.926352 251.712157 
L 187.013465 251.712157 
L 187.02721 249.827974 
L 187.144576 249.827974 
L 187.231688 247.943791 
L 187.699583 247.943791 
L 187.724591 246.059608 
L 188.085697 246.059608 
L 188.085697 245.117516 
L 188.342154 245.117516 
L 188.342154 244.175425 
L 188.471796 244.175425 
L 188.529148 242.291242 
L 188.695952 242.291242 
L 188.804596 239.464967 
L 189.089358 239.464967 
L 189.089358 238.522876 
L 189.385165 238.522876 
L 189.385165 237.580784 
L 189.514114 237.580784 
L 189.5518 235.696601 
L 189.647161 235.696601 
L 189.698966 233.812418 
L 189.800025 233.812418 
L 189.800025 232.870327 
L 190.242958 232.870327 
L 190.242958 231.928235 
L 190.355503 231.928235 
L 190.417587 228.159869 
L 190.471293 228.159869 
L 190.558405 225.333595 
L 190.756007 225.333595 
L 190.756007 224.391503 
L 190.880029 224.391503 
L 190.920434 222.50732 
L 191.166081 222.50732 
L 191.166081 221.565229 
L 191.366501 221.565229 
L 191.384548 218.738954 
L 191.537997 218.738954 
L 191.628524 216.854771 
L 191.764006 216.854771 
L 191.851118 214.028497 
L 191.928541 214.028497 
L 192.000439 211.202222 
L 192.16512 211.202222 
L 192.16512 210.260131 
L 192.369514 210.260131 
L 192.369514 209.318039 
L 192.645045 209.318039 
L 192.645045 208.375948 
L 192.782682 208.375948 
L 192.782682 207.433856 
L 192.913507 207.433856 
L 192.92784 205.549673 
L 193.245125 205.549673 
L 193.250588 203.66549 
L 193.636182 203.66549 
L 193.636182 202.723399 
L 193.815491 202.723399 
L 193.868151 200.839216 
L 194.109431 200.839216 
L 194.109431 199.897124 
L 194.330593 199.897124 
L 194.330593 198.955033 
L 194.523833 198.955033 
L 194.523833 198.012941 
L 194.817773 198.012941 
L 194.877814 196.128758 
L 195.017418 196.128758 
L 195.017418 195.186667 
L 195.409728 195.186667 
L 195.49684 192.360392 
L 195.586156 192.360392 
L 195.63498 190.476209 
L 196.097422 190.476209 
L 196.105957 188.592026 
L 196.324181 188.592026 
L 196.324181 187.649935 
L 196.578882 187.649935 
L 196.578882 186.707843 
L 197.100639 186.707843 
L 197.196444 184.82366 
L 197.658886 184.82366 
L 197.658886 183.881569 
L 197.791539 183.881569 
L 197.791539 182.939477 
L 198.009763 182.939477 
L 198.085605 181.055294 
L 198.776505 181.055294 
L 198.868424 179.171111 
L 198.994729 179.171111 
L 198.994729 178.22902 
L 199.485986 178.22902 
L 199.485986 177.286928 
L 199.650898 177.286928 
L 199.650898 176.344837 
L 199.859561 176.344837 
L 199.948428 174.460654 
L 200.477123 174.460654 
L 200.477123 173.518562 
L 200.747212 173.518562 
L 200.747212 172.576471 
L 200.939565 172.576471 
L 201.041152 169.750196 
L 201.33648 169.750196 
L 201.364774 167.866013 
L 201.658714 167.866013 
L 201.658714 166.923922 
L 201.809535 166.923922 
L 201.827216 165.039739 
L 202.121156 165.039739 
L 202.121156 164.097647 
L 202.321446 164.097647 
L 202.427097 162.213464 
L 202.629193 162.213464 
L 202.629193 161.271373 
L 202.889539 161.271373 
L 202.889539 160.329281 
L 203.614159 160.329281 
L 203.614159 159.38719 
L 204.589332 159.38719 
L 204.589332 158.445098 
L 206.274915 158.445098 
L 206.274915 157.503007 
L 207.259881 157.503007 
L 207.259881 156.560915 
L 219.152937 156.560915 
L 219.152937 155.618824 
L 223.620338 155.618824 
L 223.620338 154.676732 
L 223.852661 154.676732 
L 223.852661 153.734641 
L 224.068955 153.734641 
L 224.068955 152.792549 
L 225.23514 152.792549 
L 225.23514 151.850458 
L 225.620719 151.850458 
L 225.620719 150.908366 
L 225.814132 150.908366 
L 225.814132 149.966275 
L 229.211308 149.966275 
L 229.211308 149.024183 
L 229.702541 149.024183 
L 229.702541 148.082092 
L 229.934865 148.082092 
L 229.934865 147.14 
L 230.066848 147.14 
L 230.151158 144.313725 
L 230.281533 144.313725 
L 230.320443 142.429542 
L 230.513857 142.429542 
L 230.536737 140.545359 
L 230.73015 140.545359 
L 230.73015 139.603268 
L 232.276287 139.603268 
L 232.276287 138.661176 
L 233.146163 138.661176 
L 233.146163 137.719085 
L 233.395674 137.719085 
L 233.395674 136.776993 
L 233.631753 136.776993 
L 233.631753 135.834902 
L 234.0811 135.834902 
L 234.0811 134.89281 
L 234.31468 134.89281 
L 234.31468 133.950719 
L 234.432548 133.950719 
L 234.432548 133.008627 
L 234.789214 133.008627 
L 234.789214 132.066536 
L 235.04896 132.066536 
L 235.04896 131.124444 
L 235.293512 131.124444 
L 235.293512 130.182353 
L 235.67909 130.182353 
L 235.67909 129.240261 
L 235.872503 129.240261 
L 235.872503 128.29817 
L 236.149052 128.29817 
L 236.149052 127.356078 
L 236.53463 127.356078 
L 236.53463 126.413987 
L 236.728043 126.413987 
L 236.83014 124.529804 
L 237.853504 124.529804 
L 237.853504 123.587712 
L 237.998657 123.587712 
L 237.998657 122.645621 
L 238.358491 122.645621 
L 238.358491 121.703529 
L 238.548501 121.703529 
L 238.548501 120.761438 
L 238.744069 120.761438 
L 238.780824 117.935163 
L 238.937483 117.935163 
L 239.022021 115.108889 
L 239.04867 115.108889 
L 239.04867 114.166797 
L 239.292568 114.166797 
L 239.292568 113.224706 
L 239.477878 113.224706 
L 239.477878 112.282614 
L 239.713956 112.282614 
L 239.713956 111.340523 
L 239.863456 111.340523 
L 239.863456 110.398431 
L 240.05687 110.398431 
L 240.099535 108.514248 
L 240.217188 108.514248 
L 240.292948 105.687974 
L 240.461086 105.687974 
L 240.514751 103.803791 
L 240.701796 103.803791 
L 240.701796 102.861699 
L 240.871418 102.861699 
L 240.90033 100.977516 
L 241.093743 100.977516 
L 241.204079 98.151242 
L 241.256996 98.151242 
L 241.256996 97.20915 
L 241.45041 97.20915 
L 241.516742 95.324967 
L 241.710156 95.324967 
L 241.710156 94.382876 
L 242.02444 94.382876 
L 242.02444 93.440784 
L 242.756445 93.440784 
L 242.756445 92.498693 
L 243.100767 92.498693 
L 243.192957 90.61451 
L 243.924963 90.61451 
L 243.924963 89.672418 
L 244.139471 89.672418 
L 244.139471 88.730327 
L 244.269285 88.730327 
L 244.269285 87.788235 
L 244.385773 87.788235 
L 244.385773 86.846144 
L 244.816784 86.846144 
L 244.888056 84.019869 
L 244.995011 84.019869 
L 244.995011 83.077778 
L 245.246651 83.077778 
L 245.246651 82.135686 
L 245.409137 82.135686 
L 245.440065 80.251503 
L 245.745782 80.251503 
L 245.745782 79.309412 
L 245.91142 79.309412 
L 245.91142 78.36732 
L 246.367289 78.36732 
L 246.367289 77.425229 
L 246.535529 77.425229 
L 246.604303 75.541046 
L 246.752867 75.541046 
L 246.848201 73.656863 
L 246.9143 73.656863 
L 246.946281 71.77268 
L 247.106586 71.77268 
L 247.20445 69.888497 
L 247.350484 69.888497 
L 247.350484 68.946405 
L 247.704046 68.946405 
L 247.704046 68.004314 
L 247.953277 68.004314 
L 247.953277 67.062222 
L 248.125097 67.062222 
L 248.125097 66.120131 
L 248.323837 66.120131 
L 248.323837 65.178039 
L 248.559916 65.178039 
L 248.559916 64.235948 
L 249.121794 64.235948 
L 249.121794 63.293856 
L 249.293614 63.293856 
L 249.360711 61.409673 
L 249.580073 61.409673 
L 249.580073 60.467582 
L 249.717377 60.467582 
L 249.717377 59.52549 
L 249.977123 59.52549 
L 250.082356 57.641307 
L 250.312078 57.641307 
L 250.312078 56.699216 
L 250.6564 56.699216 
L 250.6564 55.757124 
L 250.814361 55.757124 
L 250.898987 52.93085 
L 251.158683 52.93085 
L 251.158683 51.988758 
L 251.284566 51.988758 
L 251.284566 51.046667 
L 251.477979 51.046667 
L 251.477979 50.104575 
L 251.986945 50.104575 
L 251.986945 49.162484 
L 253.301415 49.162484 
L 253.301415 48.220392 
L 253.707032 48.220392 
L 253.803698 46.336209 
L 254.091162 46.336209 
L 254.091162 45.394118 
L 254.593445 45.394118 
L 254.593445 44.452026 
L 255.213248 44.452026 
L 255.213248 43.509935 
L 255.50891 43.509935 
L 255.50891 42.567843 
L 255.68073 42.567843 
L 255.68073 41.625752 
L 256.011193 41.625752 
L 256.011193 40.68366 
L 256.183013 40.68366 
L 256.183013 39.741569 
L 257.076687 39.741569 
L 257.163799 37.857386 
L 258.087015 37.857386 
L 258.174127 35.973203 
L 258.37406 35.973203 
L 258.37406 35.031111 
L 258.876343 35.031111 
L 258.876343 34.08902 
L 259.744947 34.08902 
L 259.744947 33.146928 
L 266.256292 33.146928 
L 266.256292 32.204837 
L 267.266619 32.204837 
L 267.266619 31.262745 
L 267.941874 31.262745 
L 267.941874 30.320654 
L 268.92684 30.320654 
L 268.952202 28.436471 
L 269.937167 28.436471 
L 269.937167 27.494379 
L 293.238667 27.494379 
L 293.238667 26.552288 
L 294.407184 26.552288 
L 294.407184 25.610196 
L 296.151262 25.610196 
L 296.151262 24.668105 
L 296.862216 24.668105 
L 296.862216 23.726013 
L 297.319779 23.726013 
L 297.319779 22.783922 
L 300.546193 22.783922 
L 300.546193 21.84183 
L 300.794299 21.84183 
L 300.794299 20.899739 
L 301.296582 20.899739 
L 301.296582 19.957647 
L 301.569557 19.957647 
L 301.569557 19.015556 
L 302.764724 19.015556 
L 302.764724 18.073464 
L 303.008622 18.073464 
L 303.008622 17.131373 
L 303.706895 17.131373 
L 303.706895 16.189281 
L 304.209178 16.189281 
L 304.209178 15.24719 
L 305.740493 15.24719 
L 305.740493 14.305098 
L 306.472499 14.305098 
L 306.472499 13.363007 
L 306.816821 13.363007 
L 306.816821 12.420915 
L 309.461836 12.420915 
L 309.461836 11.478824 
L 310.251582 11.478824 
L 310.251582 10.536732 
L 311.669331 10.536732 
L 311.669331 9.594641 
L 311.84115 9.594641 
L 311.84115 8.652549 
L 314.534481 8.652549 
L 314.534481 7.710458 
L 356.95472 7.710458 
L 356.95472 6.768366 
L 359.867315 6.768366 
L 359.867315 5.826275 
L 446.924475 5.826275 
L 446.924475 5.826275 
" clip-path="url(#p16bf17e9b8)" style="fill: none; stroke: #bf00bf; stroke-width: 3; stroke-linecap: square"/>
   </g>
   <g id="line2d_38">
    <path clip-path="url(#p16bf17e9b8)" style="fill: none; stroke: #bf00bf; stroke-width: 3; stroke-linecap: square"/>
   </g>
   <g id="line2d_39">
    <path d="M 34.16 288.453725 
L 173.945033 288.453725 
L 173.945033 287.511634 
L 174.296604 287.511634 
L 174.296604 286.569542 
L 175.317898 286.569542 
L 175.317898 285.627451 
L 175.669469 285.627451 
L 175.669469 284.685359 
L 178.500559 284.685359 
L 178.500559 283.743268 
L 178.968053 283.743268 
L 179.029092 281.859085 
L 179.873424 281.859085 
L 179.873424 280.916993 
L 180.093343 280.916993 
L 180.093343 279.974902 
L 180.340918 279.974902 
L 180.401958 278.090719 
L 180.50217 278.090719 
L 180.50217 277.148627 
L 181.215502 277.148627 
L 181.215502 276.206536 
L 181.381122 276.206536 
L 181.466209 274.322353 
L 182.415151 274.322353 
L 182.415151 273.380261 
L 182.588367 273.380261 
L 182.588367 272.43817 
L 183.019007 272.43817 
L 183.019007 271.496078 
L 183.294103 271.496078 
L 183.294103 270.553987 
L 183.51628 270.553987 
L 183.51628 269.611895 
L 183.89796 269.611895 
L 183.96924 267.727712 
L 184.32081 267.727712 
L 184.395232 265.843529 
L 184.649078 265.843529 
L 184.649078 264.901438 
L 185.52803 264.901438 
L 185.578543 263.017255 
L 185.951831 263.017255 
L 186.057201 261.133072 
L 186.244491 261.133072 
L 186.303401 259.248889 
L 186.457495 259.248889 
L 186.457495 258.306797 
L 186.588996 258.306797 
L 186.588996 257.364706 
L 186.811446 257.364706 
L 186.811446 256.422614 
L 187.123443 256.422614 
L 187.163017 254.538431 
L 187.314645 254.538431 
L 187.316209 252.654248 
L 187.430067 252.654248 
L 187.430067 251.712157 
L 187.703651 251.712157 
L 187.703651 250.770065 
L 187.961861 250.770065 
L 187.963987 248.885882 
L 188.195161 248.885882 
L 188.263407 247.001699 
L 188.524765 247.001699 
L 188.524765 246.059608 
L 188.842939 246.059608 
L 188.842939 245.117516 
L 188.99226 245.117516 
L 189.076516 242.291242 
L 189.227626 242.291242 
L 189.227626 241.34915 
L 189.752465 241.34915 
L 189.831482 239.464967 
L 190.034585 239.464967 
L 190.11755 237.580784 
L 190.176389 237.580784 
L 190.176389 236.638693 
L 190.328755 236.638693 
L 190.328755 235.696601 
L 190.507356 235.696601 
L 190.507356 234.75451 
L 190.630431 234.75451 
L 190.630431 233.812418 
L 190.780245 233.812418 
L 190.780245 232.870327 
L 190.974851 232.870327 
L 191.03589 230.986144 
L 191.239709 230.986144 
L 191.277518 229.101961 
L 191.366972 229.101961 
L 191.475092 225.333595 
L 191.509383 225.333595 
L 191.509383 224.391503 
L 191.665446 224.391503 
L 191.665446 223.449412 
L 191.834466 223.449412 
L 191.895506 221.565229 
L 192.100141 221.565229 
L 192.100141 220.623137 
L 192.242673 220.623137 
L 192.269302 218.738954 
L 192.391018 218.738954 
L 192.410315 216.854771 
L 192.766575 216.854771 
L 192.847957 214.970588 
L 192.959756 214.970588 
L 193.056966 213.086405 
L 193.121625 213.086405 
L 193.2223 210.260131 
L 193.33978 210.260131 
L 193.33978 209.318039 
L 193.505779 209.318039 
L 193.505779 208.375948 
L 193.826414 208.375948 
L 193.899373 206.491765 
L 194.005728 206.491765 
L 194.081915 203.66549 
L 194.128683 203.66549 
L 194.128683 202.723399 
L 194.384731 202.723399 
L 194.384731 201.781307 
L 194.499563 201.781307 
L 194.531379 199.897124 
L 194.705366 199.897124 
L 194.776462 198.012941 
L 194.828838 198.012941 
L 194.828838 197.07085 
L 195.077446 197.07085 
L 195.077446 196.128758 
L 195.378515 196.128758 
L 195.378515 195.186667 
L 195.494786 195.186667 
L 195.494786 194.244575 
L 195.725225 194.244575 
L 195.725225 193.302484 
L 195.904244 193.302484 
L 195.904244 192.360392 
L 196.081408 192.360392 
L 196.081408 191.418301 
L 196.566503 191.418301 
L 196.613202 189.534118 
L 197.214282 189.534118 
L 197.214282 188.592026 
L 197.442906 188.592026 
L 197.442906 187.649935 
L 197.727858 187.649935 
L 197.727858 186.707843 
L 198.063999 186.707843 
L 198.063999 185.765752 
L 198.391668 185.765752 
L 198.391668 184.82366 
L 198.595793 184.82366 
L 198.595793 183.881569 
L 198.923614 183.881569 
L 198.923614 182.939477 
L 199.055148 182.939477 
L 199.055148 181.997386 
L 199.455409 181.997386 
L 199.455409 181.055294 
L 199.710448 181.055294 
L 199.710448 180.113203 
L 199.880726 180.113203 
L 199.955523 178.22902 
L 200.00391 178.22902 
L 200.058792 176.344837 
L 200.318254 176.344837 
L 200.318254 175.402745 
L 200.570064 175.402745 
L 200.638888 173.518562 
L 200.904286 173.518562 
L 200.904286 172.576471 
L 201.267016 172.576471 
L 201.312038 170.692288 
L 201.492967 170.692288 
L 201.587651 167.866013 
L 202.041383 167.866013 
L 202.041383 166.923922 
L 202.260801 166.923922 
L 202.260801 165.98183 
L 202.393343 165.98183 
L 202.393343 165.039739 
L 202.756074 165.039739 
L 202.756074 164.097647 
L 202.900998 164.097647 
L 202.900998 163.155556 
L 203.076708 163.155556 
L 203.076708 162.213464 
L 203.48189 162.213464 
L 203.48189 161.271373 
L 203.749858 161.271373 
L 203.749858 160.329281 
L 204.341505 160.329281 
L 204.341505 159.38719 
L 204.555586 159.38719 
L 204.555586 158.445098 
L 206.538177 158.445098 
L 206.538177 157.503007 
L 207.397792 157.503007 
L 207.397792 156.560915 
L 221.799826 156.560915 
L 221.799826 155.618824 
L 223.659354 155.618824 
L 223.659354 154.676732 
L 223.771415 154.676732 
L 223.771415 153.734641 
L 224.936725 153.734641 
L 224.936725 152.792549 
L 225.630944 152.792549 
L 225.630944 151.850458 
L 226.796253 151.850458 
L 226.796253 150.908366 
L 227.767777 150.908366 
L 227.767777 149.966275 
L 229.627306 149.966275 
L 229.627306 149.024183 
L 231.810571 149.024183 
L 231.810571 148.082092 
L 233.782161 148.082092 
L 233.782161 147.14 
L 233.956773 147.14 
L 233.956773 146.197908 
L 234.163753 146.197908 
L 234.163753 145.255817 
L 234.510549 145.255817 
L 234.510549 144.313725 
L 234.683444 144.313725 
L 234.762317 142.429542 
L 234.947471 142.429542 
L 234.947471 141.487451 
L 235.338429 141.487451 
L 235.338429 140.545359 
L 235.816302 140.545359 
L 235.816302 139.603268 
L 236.072632 139.603268 
L 236.135343 137.719085 
L 236.482138 137.719085 
L 236.482138 136.776993 
L 236.655034 136.776993 
L 236.655034 135.834902 
L 237.124703 135.834902 
L 237.124703 134.89281 
L 237.300652 134.89281 
L 237.300652 133.950719 
L 237.639749 133.950719 
L 237.72613 129.240261 
L 237.778523 129.240261 
L 237.820343 126.413987 
L 238.044221 126.413987 
L 238.086415 124.529804 
L 238.302242 124.529804 
L 238.302242 123.587712 
L 238.561943 123.587712 
L 238.662527 121.703529 
L 239.209531 121.703529 
L 239.209531 120.761438 
L 239.366223 120.761438 
L 239.401906 118.877255 
L 239.641107 118.877255 
L 239.641107 117.935163 
L 239.781684 117.935163 
L 239.781684 116.993072 
L 239.942335 116.993072 
L 240.002135 115.108889 
L 240.131705 115.108889 
L 240.131705 114.166797 
L 240.4785 114.166797 
L 240.533532 112.282614 
L 240.603562 112.282614 
L 240.651396 110.398431 
L 240.737881 110.398431 
L 240.806416 108.514248 
L 240.907659 108.514248 
L 240.963847 105.687974 
L 241.698842 105.687974 
L 241.764292 103.803791 
L 242.040584 103.803791 
L 242.040584 102.861699 
L 242.243655 102.861699 
L 242.243655 101.919608 
L 242.365719 101.919608 
L 242.365719 100.977516 
L 242.679483 100.977516 
L 242.726004 98.151242 
L 242.879248 98.151242 
L 242.879248 97.20915 
L 243.637469 97.20915 
L 243.637469 96.267059 
L 243.778047 96.267059 
L 243.87478 94.382876 
L 243.967519 94.382876 
L 244.044558 91.556601 
L 244.171958 91.556601 
L 244.171958 90.61451 
L 244.44924 90.61451 
L 244.529895 87.788235 
L 244.651073 87.788235 
L 244.651073 86.846144 
L 245.025353 86.846144 
L 245.069575 84.961961 
L 245.191805 84.961961 
L 245.191805 84.019869 
L 245.767917 84.019869 
L 245.816382 82.135686 
L 246.143548 82.135686 
L 246.143548 81.193595 
L 246.320701 81.193595 
L 246.320701 80.251503 
L 246.553852 80.251503 
L 246.553852 79.309412 
L 246.667496 79.309412 
L 246.705833 77.425229 
L 246.840392 77.425229 
L 246.87561 75.541046 
L 247.129965 75.541046 
L 247.129965 74.598954 
L 247.308857 74.598954 
L 247.370895 71.77268 
L 247.511603 71.77268 
L 247.511603 70.830588 
L 248.069237 70.830588 
L 248.087715 68.946405 
L 248.22958 68.946405 
L 248.22958 68.004314 
L 248.549814 68.004314 
L 248.647435 65.178039 
L 249.088829 65.178039 
L 249.133052 62.351765 
L 249.420839 62.351765 
L 249.431284 60.467582 
L 249.826465 60.467582 
L 249.831394 58.583399 
L 249.967043 58.583399 
L 249.996952 56.699216 
L 250.13991 56.699216 
L 250.13991 55.757124 
L 250.389035 55.757124 
L 250.389035 54.815033 
L 250.570801 54.815033 
L 250.570801 53.872941 
L 250.718891 53.872941 
L 250.718891 52.93085 
L 251.193441 52.93085 
L 251.193441 51.988758 
L 251.427246 51.988758 
L 251.427246 51.046667 
L 251.736111 51.046667 
L 251.736111 50.104575 
L 251.902863 50.104575 
L 251.902863 49.162484 
L 252.151192 49.162484 
L 252.151192 48.220392 
L 252.298272 48.220392 
L 252.298272 47.278301 
L 252.478975 47.278301 
L 252.478975 46.336209 
L 252.894829 46.336209 
L 252.894829 45.394118 
L 253.064607 45.394118 
L 253.064607 44.452026 
L 253.189403 44.452026 
L 253.189403 43.509935 
L 254.060428 43.509935 
L 254.060428 42.567843 
L 254.545299 42.567843 
L 254.567164 40.68366 
L 254.780295 40.68366 
L 254.836431 38.799477 
L 255.374803 38.799477 
L 255.374803 37.857386 
L 255.918164 37.857386 
L 255.918164 36.915294 
L 256.328906 36.915294 
L 256.328906 35.973203 
L 256.542452 35.973203 
L 256.542452 35.031111 
L 256.747668 35.031111 
L 256.747668 34.08902 
L 260.75616 34.08902 
L 260.75616 33.146928 
L 264.569505 33.146928 
L 264.569505 32.204837 
L 265.39901 32.204837 
L 265.39901 31.262745 
L 266.552096 31.262745 
L 266.552096 30.320654 
L 267.381601 30.320654 
L 267.411712 28.436471 
L 268.241216 28.436471 
L 268.241216 27.494379 
L 295.721834 27.494379 
L 295.761045 25.610196 
L 296.297947 25.610196 
L 296.337158 23.726013 
L 298.521451 23.726013 
L 298.599266 21.84183 
L 298.638477 21.84183 
L 298.638477 20.899739 
L 300.361423 20.899739 
L 300.400634 19.015556 
L 300.883837 19.015556 
L 300.883837 18.073464 
L 301.485264 18.073464 
L 301.485264 17.131373 
L 301.845548 17.131373 
L 301.845548 16.189281 
L 303.125356 16.189281 
L 303.125356 15.24719 
L 308.208374 15.24719 
L 308.252597 13.363007 
L 308.950938 13.363007 
L 308.950938 12.420915 
L 310.312986 12.420915 
L 310.312986 11.478824 
L 311.270736 11.478824 
L 311.270736 10.536732 
L 312.308948 10.536732 
L 312.308948 9.594641 
L 313.179973 9.594641 
L 313.179973 8.652549 
L 315.661997 8.652549 
L 315.661997 7.710458 
L 359.480968 7.710458 
L 359.520179 5.826275 
L 446.924475 5.826275 
L 446.924475 5.826275 
" clip-path="url(#p16bf17e9b8)" style="fill: none; stroke: #ff0000; stroke-width: 3; stroke-linecap: square"/>
   </g>
   <g id="line2d_40">
    <path clip-path="url(#p16bf17e9b8)" style="fill: none; stroke: #ff0000; stroke-width: 3; stroke-linecap: square"/>
   </g>
   <g id="line2d_41">
    <path d="M 240.542238 291.28 
L 240.542238 3 
" clip-path="url(#p16bf17e9b8)" style="fill: none; stroke: #000000; stroke-width: 1.5; stroke-linecap: square"/>
   </g>
   <g id="line2d_42">
    <path d="M 34.16 147.14 
L 446.924475 147.14 
" clip-path="url(#p16bf17e9b8)" style="fill: none; stroke-dasharray: 2,3.3; stroke-dashoffset: 0; stroke: #000000; stroke-width: 2"/>
   </g>
   <g id="patch_3">
    <path d="M 34.16 291.28 
L 34.16 3 
" style="fill: none; stroke: #000000; stroke-width: 0.8; stroke-linejoin: miter; stroke-linecap: square"/>
   </g>
   <g id="patch_4">
    <path d="M 446.924475 291.28 
L 446.924475 3 
" style="fill: none; stroke: #000000; stroke-width: 0.8; stroke-linejoin: miter; stroke-linecap: square"/>
   </g>
   <g id="patch_5">
    <path d="M 34.16 291.28 
L 446.924475 291.28 
" style="fill: none; stroke: #000000; stroke-width: 0.8; stroke-linejoin: miter; stroke-linecap: square"/>
   </g>
   <g id="patch_6">
    <path d="M 34.16 3 
L 446.924475 3 
" style="fill: none; stroke: #000000; stroke-width: 0.8; stroke-linejoin: miter; stroke-linecap: square"/>
   </g>
   <g id="text_6">
    <!-- f6-f9,20-D -->
    <g transform="translate(337.500436 285.5144)scale(0.2 -0.2)">
     <defs>
      <path id="DejaVuSans-36" d="M 2113 2584 
Q 1688 2584 1439 2293 
Q 1191 2003 1191 1497 
Q 1191 994 1439 701 
Q 1688 409 2113 409 
Q 2538 409 2786 701 
Q 3034 994 3034 1497 
Q 3034 2003 2786 2293 
Q 2538 2584 2113 2584 
z
M 3366 4563 
L 3366 3988 
Q 3128 4100 2886 4159 
Q 2644 4219 2406 4219 
Q 1781 4219 1451 3797 
Q 1122 3375 1075 2522 
Q 1259 2794 1537 2939 
Q 1816 3084 2150 3084 
Q 2853 3084 3261 2657 
Q 3669 2231 3669 1497 
Q 3669 778 3244 343 
Q 2819 -91 2113 -91 
Q 1303 -91 875 529 
Q 447 1150 447 2328 
Q 447 3434 972 4092 
Q 1497 4750 2381 4750 
Q 2619 4750 2861 4703 
Q 3103 4656 3366 4563 
z
" transform="scale(0.015625)"/>
      <path id="DejaVuSans-39" d="M 703 97 
L 703 672 
Q 941 559 1184 500 
Q 1428 441 1663 441 
Q 2288 441 2617 861 
Q 2947 1281 2994 2138 
Q 2813 1869 2534 1725 
Q 2256 1581 1919 1581 
Q 1219 1581 811 2004 
Q 403 2428 403 3163 
Q 403 3881 828 4315 
Q 1253 4750 1959 4750 
Q 2769 4750 3195 4129 
Q 3622 3509 3622 2328 
Q 3622 1225 3098 567 
Q 2575 -91 1691 -91 
Q 1453 -91 1209 -44 
Q 966 3 703 97 
z
M 1959 2075 
Q 2384 2075 2632 2365 
Q 2881 2656 2881 3163 
Q 2881 3666 2632 3958 
Q 2384 4250 1959 4250 
Q 1534 4250 1286 3958 
Q 1038 3666 1038 3163 
Q 1038 2656 1286 2365 
Q 1534 2075 1959 2075 
z
" transform="scale(0.015625)"/>
      <path id="DejaVuSans-2c" d="M 750 794 
L 1409 794 
L 1409 256 
L 897 -744 
L 494 -744 
L 750 256 
L 750 794 
z
" transform="scale(0.015625)"/>
      <path id="DejaVuSans-32" d="M 1228 531 
L 3431 531 
L 3431 0 
L 469 0 
L 469 531 
Q 828 903 1448 1529 
Q 2069 2156 2228 2338 
Q 2531 2678 2651 2914 
Q 2772 3150 2772 3378 
Q 2772 3750 2511 3984 
Q 2250 4219 1831 4219 
Q 1534 4219 1204 4116 
Q 875 4013 500 3803 
L 500 4441 
Q 881 4594 1212 4672 
Q 1544 4750 1819 4750 
Q 2544 4750 2975 4387 
Q 3406 4025 3406 3419 
Q 3406 3131 3298 2873 
Q 3191 2616 2906 2266 
Q 2828 2175 2409 1742 
Q 1991 1309 1228 531 
z
" transform="scale(0.015625)"/>
      <path id="DejaVuSans-44" d="M 1259 4147 
L 1259 519 
L 2022 519 
Q 2988 519 3436 956 
Q 3884 1394 3884 2338 
Q 3884 3275 3436 3711 
Q 2988 4147 2022 4147 
L 1259 4147 
z
M 628 4666 
L 1925 4666 
Q 3281 4666 3915 4102 
Q 4550 3538 4550 2338 
Q 4550 1131 3912 565 
Q 3275 0 1925 0 
L 628 0 
L 628 4666 
z
" transform="scale(0.015625)"/>
     </defs>
     <use xlink:href="#DejaVuSans-66"/>
     <use xlink:href="#DejaVuSans-36" x="35.205078"/>
     <use xlink:href="#DejaVuSans-2d" x="98.828125"/>
     <use xlink:href="#DejaVuSans-66" x="134.912109"/>
     <use xlink:href="#DejaVuSans-39" x="170.117188"/>
     <use xlink:href="#DejaVuSans-2c" x="233.740234"/>
     <use xlink:href="#DejaVuSans-32" x="265.527344"/>
     <use xlink:href="#DejaVuSans-30" x="329.150391"/>
     <use xlink:href="#DejaVuSans-2d" x="392.773438"/>
     <use xlink:href="#DejaVuSans-44" x="428.857422"/>
    </g>
   </g>
   <g id="text_7">
    <!-- v2.6.1.158 -->
    <g style="fill: #808080" transform="translate(213.728175 286.317512)scale(0.1 -0.1)">
     <defs>
      <path id="DejaVuSans-2e" d="M 684 794 
L 1344 794 
L 1344 0 
L 684 0 
L 684 794 
z
" transform="scale(0.015625)"/>
      <path id="DejaVuSans-35" d="M 691 4666 
L 3169 4666 
L 3169 4134 
L 1269 4134 
L 1269 2991 
Q 1406 3038 1543 3061 
Q 1681 3084 1819 3084 
Q 2600 3084 3056 2656 
Q 3513 2228 3513 1497 
Q 3513 744 3044 326 
Q 2575 -91 1722 -91 
Q 1428 -91 1123 -41 
Q 819 9 494 109 
L 494 744 
Q 775 591 1075 516 
Q 1375 441 1709 441 
Q 2250 441 2565 725 
Q 2881 1009 2881 1497 
Q 2881 1984 2565 2268 
Q 2250 2553 1709 2553 
Q 1456 2553 1204 2497 
Q 953 2441 691 2322 
L 691 4666 
z
" transform="scale(0.015625)"/>
      <path id="DejaVuSans-38" d="M 2034 2216 
Q 1584 2216 1326 1975 
Q 1069 1734 1069 1313 
Q 1069 891 1326 650 
Q 1584 409 2034 409 
Q 2484 409 2743 651 
Q 3003 894 3003 1313 
Q 3003 1734 2745 1975 
Q 2488 2216 2034 2216 
z
M 1403 2484 
Q 997 2584 770 2862 
Q 544 3141 544 3541 
Q 544 4100 942 4425 
Q 1341 4750 2034 4750 
Q 2731 4750 3128 4425 
Q 3525 4100 3525 3541 
Q 3525 3141 3298 2862 
Q 3072 2584 2669 2484 
Q 3125 2378 3379 2068 
Q 3634 1759 3634 1313 
Q 3634 634 3220 271 
Q 2806 -91 2034 -91 
Q 1263 -91 848 271 
Q 434 634 434 1313 
Q 434 1759 690 2068 
Q 947 2378 1403 2484 
z
M 1172 3481 
Q 1172 3119 1398 2916 
Q 1625 2713 2034 2713 
Q 2441 2713 2670 2916 
Q 2900 3119 2900 3481 
Q 2900 3844 2670 4047 
Q 2441 4250 2034 4250 
Q 1625 4250 1398 4047 
Q 1172 3844 1172 3481 
z
" transform="scale(0.015625)"/>
     </defs>
     <use xlink:href="#DejaVuSans-76"/>
     <use xlink:href="#DejaVuSans-32" x="59.179688"/>
     <use xlink:href="#DejaVuSans-2e" x="122.802734"/>
     <use xlink:href="#DejaVuSans-36" x="154.589844"/>
     <use xlink:href="#DejaVuSans-2e" x="218.212891"/>
     <use xlink:href="#DejaVuSans-31" x="250"/>
     <use xlink:href="#DejaVuSans-2e" x="313.623047"/>
     <use xlink:href="#DejaVuSans-31" x="345.410156"/>
     <use xlink:href="#DejaVuSans-35" x="409.033203"/>
     <use xlink:href="#DejaVuSans-38" x="472.65625"/>
    </g>
   </g>
   <g id="legend_1">
    <g id="patch_7">
     <path d="M 48.16 136.425 
L 177.381875 136.425 
Q 181.381875 136.425 181.381875 132.425 
L 181.381875 17 
Q 181.381875 13 177.381875 13 
L 48.16 13 
Q 44.16 13 44.16 17 
L 44.16 132.425 
Q 44.16 136.425 48.16 136.425 
z
" style="fill: #ffffff; opacity: 0.2; stroke: #cccccc; stroke-linejoin: miter"/>
    </g>
    <g id="line2d_43">
     <path d="M 52.16 29.196875 
L 72.16 29.196875 
L 92.16 29.196875 
" style="fill: none; stroke: #000000; stroke-width: 3; stroke-linecap: square"/>
    </g>
    <g id="text_8">
     <!-- 1: 4/4 -->
     <g transform="translate(108.16 36.196875)scale(0.2 -0.2)">
      <defs>
       <path id="DejaVuSans-3a" d="M 750 794 
L 1409 794 
L 1409 0 
L 750 0 
L 750 794 
z
M 750 3309 
L 1409 3309 
L 1409 2516 
L 750 2516 
L 750 3309 
z
" transform="scale(0.015625)"/>
       <path id="DejaVuSans-34" d="M 2419 4116 
L 825 1625 
L 2419 1625 
L 2419 4116 
z
M 2253 4666 
L 3047 4666 
L 3047 1625 
L 3713 1625 
L 3713 1100 
L 3047 1100 
L 3047 0 
L 2419 0 
L 2419 1100 
L 313 1100 
L 313 1709 
L 2253 4666 
z
" transform="scale(0.015625)"/>
       <path id="DejaVuSans-2f" d="M 1625 4666 
L 2156 4666 
L 531 -594 
L 0 -594 
L 1625 4666 
z
" transform="scale(0.015625)"/>
      </defs>
      <use xlink:href="#DejaVuSans-31"/>
      <use xlink:href="#DejaVuSans-3a" x="63.623047"/>
      <use xlink:href="#DejaVuSans-20" x="97.314453"/>
      <use xlink:href="#DejaVuSans-34" x="129.101562"/>
      <use xlink:href="#DejaVuSans-2f" x="192.724609"/>
      <use xlink:href="#DejaVuSans-34" x="226.416016"/>
     </g>
    </g>
    <g id="line2d_44">
     <path d="M 52.16 58.553125 
L 72.16 58.553125 
L 92.16 58.553125 
" style="fill: none; stroke: #00bfbf; stroke-width: 3; stroke-linecap: square"/>
    </g>
    <g id="text_9">
     <!-- -1: 4/4 -->
     <g transform="translate(108.16 65.553125)scale(0.2 -0.2)">
      <use xlink:href="#DejaVuSans-2d"/>
      <use xlink:href="#DejaVuSans-31" x="36.083984"/>
      <use xlink:href="#DejaVuSans-3a" x="99.707031"/>
      <use xlink:href="#DejaVuSans-20" x="133.398438"/>
      <use xlink:href="#DejaVuSans-34" x="165.185547"/>
      <use xlink:href="#DejaVuSans-2f" x="228.808594"/>
      <use xlink:href="#DejaVuSans-34" x="262.5"/>
     </g>
    </g>
    <g id="line2d_45">
     <path d="M 52.16 87.909375 
L 72.16 87.909375 
L 92.16 87.909375 
" style="fill: none; stroke: #bf00bf; stroke-width: 3; stroke-linecap: square"/>
    </g>
    <g id="text_10">
     <!-- -4: 4/4 -->
     <g transform="translate(108.16 94.909375)scale(0.2 -0.2)">
      <use xlink:href="#DejaVuSans-2d"/>
      <use xlink:href="#DejaVuSans-34" x="36.083984"/>
      <use xlink:href="#DejaVuSans-3a" x="99.707031"/>
      <use xlink:href="#DejaVuSans-20" x="133.398438"/>
      <use xlink:href="#DejaVuSans-34" x="165.185547"/>
      <use xlink:href="#DejaVuSans-2f" x="228.808594"/>
      <use xlink:href="#DejaVuSans-34" x="262.5"/>
     </g>
    </g>
    <g id="line2d_46">
     <path d="M 52.16 117.265625 
L 72.16 117.265625 
L 92.16 117.265625 
" style="fill: none; stroke: #ff0000; stroke-width: 3; stroke-linecap: square"/>
    </g>
    <g id="text_11">
     <!-- -8: 4/4 -->
     <g transform="translate(108.16 124.265625)scale(0.2 -0.2)">
      <use xlink:href="#DejaVuSans-2d"/>
      <use xlink:href="#DejaVuSans-38" x="36.083984"/>
      <use xlink:href="#DejaVuSans-3a" x="99.707031"/>
      <use xlink:href="#DejaVuSans-20" x="133.398438"/>
      <use xlink:href="#DejaVuSans-34" x="165.185547"/>
      <use xlink:href="#DejaVuSans-2f" x="228.808594"/>
      <use xlink:href="#DejaVuSans-34" x="262.5"/>
     </g>
    </g>
   </g>
  </g>
 </g>
 <defs>
  <clipPath id="p16bf17e9b8">
   <rect x="34.16" y="3" width="412.764475" height="288.28"/>
  </clipPath>
 </defs>
</svg>
