<?xml version="1.0" encoding="utf-8" standalone="no"?>
<!DOCTYPE svg PUBLIC "-//W3C//DTD SVG 1.1//EN"
  "http://www.w3.org/Graphics/SVG/1.1/DTD/svg11.dtd">
<svg xmlns:xlink="http://www.w3.org/1999/xlink" width="460.8pt" height="345.6pt" viewBox="0 0 460.8 345.6" xmlns="http://www.w3.org/2000/svg" version="1.1">
 <metadata>
  <rdf:RDF xmlns:dc="http://purl.org/dc/elements/1.1/" xmlns:cc="http://creativecommons.org/ns#" xmlns:rdf="http://www.w3.org/1999/02/22-rdf-syntax-ns#">
   <cc:Work>
    <dc:type rdf:resource="http://purl.org/dc/dcmitype/StillImage"/>
    <dc:date>2023-04-03T10:23:05.120183</dc:date>
    <dc:format>image/svg+xml</dc:format>
    <dc:creator>
     <cc:Agent>
      <dc:title>Matplotlib v3.5.2, https://matplotlib.org/</dc:title>
     </cc:Agent>
    </dc:creator>
   </cc:Work>
  </rdf:RDF>
 </metadata>
 <defs>
  <style type="text/css">*{stroke-linejoin: round; stroke-linecap: butt}</style>
 </defs>
 <g id="figure_1">
  <g id="patch_1">
   <path d="M 0 345.6 
L 460.8 345.6 
L 460.8 0 
L 0 0 
z
" style="fill: #ffffff"/>
  </g>
  <g id="axes_1">
   <g id="patch_2">
    <path d="M 34.16 291.28 
L 453.192 291.28 
L 453.192 3 
L 34.16 3 
z
" style="fill: #ffffff"/>
   </g>
   <g id="matplotlib.axis_1">
    <g id="xtick_1">
     <g id="line2d_1">
      <path d="M 122.269557 291.28 
L 122.269557 3 
" clip-path="url(#pbff39cf363)" style="fill: none; stroke: #b0b0b0; stroke-width: 0.8; stroke-linecap: square"/>
     </g>
     <g id="line2d_2">
      <defs>
       <path id="mde0bb10c8e" d="M 0 0 
L 0 3.5 
" style="stroke: #000000; stroke-width: 0.8"/>
      </defs>
      <g>
       <use xlink:href="#mde0bb10c8e" x="122.269557" y="291.28" style="stroke: #000000; stroke-width: 0.8"/>
      </g>
     </g>
     <g id="text_1">
      <!-- -2 -->
      <g transform="translate(112.299244 313.476875)scale(0.2 -0.2)">
       <defs>
        <path id="DejaVuSans-2d" d="M 313 2009 
L 1997 2009 
L 1997 1497 
L 313 1497 
L 313 2009 
z
" transform="scale(0.015625)"/>
        <path id="DejaVuSans-32" d="M 1228 531 
L 3431 531 
L 3431 0 
L 469 0 
L 469 531 
Q 828 903 1448 1529 
Q 2069 2156 2228 2338 
Q 2531 2678 2651 2914 
Q 2772 3150 2772 3378 
Q 2772 3750 2511 3984 
Q 2250 4219 1831 4219 
Q 1534 4219 1204 4116 
Q 875 4013 500 3803 
L 500 4441 
Q 881 4594 1212 4672 
Q 1544 4750 1819 4750 
Q 2544 4750 2975 4387 
Q 3406 4025 3406 3419 
Q 3406 3131 3298 2873 
Q 3191 2616 2906 2266 
Q 2828 2175 2409 1742 
Q 1991 1309 1228 531 
z
" transform="scale(0.015625)"/>
       </defs>
       <use xlink:href="#DejaVuSans-2d"/>
       <use xlink:href="#DejaVuSans-32" x="36.083984"/>
      </g>
     </g>
    </g>
    <g id="xtick_2">
     <g id="line2d_3">
      <path d="M 243.676 291.28 
L 243.676 3 
" clip-path="url(#pbff39cf363)" style="fill: none; stroke: #b0b0b0; stroke-width: 0.8; stroke-linecap: square"/>
     </g>
     <g id="line2d_4">
      <g>
       <use xlink:href="#mde0bb10c8e" x="243.676" y="291.28" style="stroke: #000000; stroke-width: 0.8"/>
      </g>
     </g>
     <g id="text_2">
      <!-- 0 -->
      <g transform="translate(237.3135 313.476875)scale(0.2 -0.2)">
       <defs>
        <path id="DejaVuSans-30" d="M 2034 4250 
Q 1547 4250 1301 3770 
Q 1056 3291 1056 2328 
Q 1056 1369 1301 889 
Q 1547 409 2034 409 
Q 2525 409 2770 889 
Q 3016 1369 3016 2328 
Q 3016 3291 2770 3770 
Q 2525 4250 2034 4250 
z
M 2034 4750 
Q 2819 4750 3233 4129 
Q 3647 3509 3647 2328 
Q 3647 1150 3233 529 
Q 2819 -91 2034 -91 
Q 1250 -91 836 529 
Q 422 1150 422 2328 
Q 422 3509 836 4129 
Q 1250 4750 2034 4750 
z
" transform="scale(0.015625)"/>
       </defs>
       <use xlink:href="#DejaVuSans-30"/>
      </g>
     </g>
    </g>
    <g id="xtick_3">
     <g id="line2d_5">
      <path d="M 365.082443 291.28 
L 365.082443 3 
" clip-path="url(#pbff39cf363)" style="fill: none; stroke: #b0b0b0; stroke-width: 0.8; stroke-linecap: square"/>
     </g>
     <g id="line2d_6">
      <g>
       <use xlink:href="#mde0bb10c8e" x="365.082443" y="291.28" style="stroke: #000000; stroke-width: 0.8"/>
      </g>
     </g>
     <g id="text_3">
      <!-- 2 -->
      <g transform="translate(358.719943 313.476875)scale(0.2 -0.2)">
       <use xlink:href="#DejaVuSans-32"/>
      </g>
     </g>
    </g>
    <g id="text_4">
     <!-- log10 of FEvals ratio -->
     <g transform="translate(141.371312 336.833125)scale(0.2 -0.2)">
      <defs>
       <path id="DejaVuSans-6c" d="M 603 4863 
L 1178 4863 
L 1178 0 
L 603 0 
L 603 4863 
z
" transform="scale(0.015625)"/>
       <path id="DejaVuSans-6f" d="M 1959 3097 
Q 1497 3097 1228 2736 
Q 959 2375 959 1747 
Q 959 1119 1226 758 
Q 1494 397 1959 397 
Q 2419 397 2687 759 
Q 2956 1122 2956 1747 
Q 2956 2369 2687 2733 
Q 2419 3097 1959 3097 
z
M 1959 3584 
Q 2709 3584 3137 3096 
Q 3566 2609 3566 1747 
Q 3566 888 3137 398 
Q 2709 -91 1959 -91 
Q 1206 -91 779 398 
Q 353 888 353 1747 
Q 353 2609 779 3096 
Q 1206 3584 1959 3584 
z
" transform="scale(0.015625)"/>
       <path id="DejaVuSans-67" d="M 2906 1791 
Q 2906 2416 2648 2759 
Q 2391 3103 1925 3103 
Q 1463 3103 1205 2759 
Q 947 2416 947 1791 
Q 947 1169 1205 825 
Q 1463 481 1925 481 
Q 2391 481 2648 825 
Q 2906 1169 2906 1791 
z
M 3481 434 
Q 3481 -459 3084 -895 
Q 2688 -1331 1869 -1331 
Q 1566 -1331 1297 -1286 
Q 1028 -1241 775 -1147 
L 775 -588 
Q 1028 -725 1275 -790 
Q 1522 -856 1778 -856 
Q 2344 -856 2625 -561 
Q 2906 -266 2906 331 
L 2906 616 
Q 2728 306 2450 153 
Q 2172 0 1784 0 
Q 1141 0 747 490 
Q 353 981 353 1791 
Q 353 2603 747 3093 
Q 1141 3584 1784 3584 
Q 2172 3584 2450 3431 
Q 2728 3278 2906 2969 
L 2906 3500 
L 3481 3500 
L 3481 434 
z
" transform="scale(0.015625)"/>
       <path id="DejaVuSans-31" d="M 794 531 
L 1825 531 
L 1825 4091 
L 703 3866 
L 703 4441 
L 1819 4666 
L 2450 4666 
L 2450 531 
L 3481 531 
L 3481 0 
L 794 0 
L 794 531 
z
" transform="scale(0.015625)"/>
       <path id="DejaVuSans-20" transform="scale(0.015625)"/>
       <path id="DejaVuSans-66" d="M 2375 4863 
L 2375 4384 
L 1825 4384 
Q 1516 4384 1395 4259 
Q 1275 4134 1275 3809 
L 1275 3500 
L 2222 3500 
L 2222 3053 
L 1275 3053 
L 1275 0 
L 697 0 
L 697 3053 
L 147 3053 
L 147 3500 
L 697 3500 
L 697 3744 
Q 697 4328 969 4595 
Q 1241 4863 1831 4863 
L 2375 4863 
z
" transform="scale(0.015625)"/>
       <path id="DejaVuSans-46" d="M 628 4666 
L 3309 4666 
L 3309 4134 
L 1259 4134 
L 1259 2759 
L 3109 2759 
L 3109 2228 
L 1259 2228 
L 1259 0 
L 628 0 
L 628 4666 
z
" transform="scale(0.015625)"/>
       <path id="DejaVuSans-45" d="M 628 4666 
L 3578 4666 
L 3578 4134 
L 1259 4134 
L 1259 2753 
L 3481 2753 
L 3481 2222 
L 1259 2222 
L 1259 531 
L 3634 531 
L 3634 0 
L 628 0 
L 628 4666 
z
" transform="scale(0.015625)"/>
       <path id="DejaVuSans-76" d="M 191 3500 
L 800 3500 
L 1894 563 
L 2988 3500 
L 3597 3500 
L 2284 0 
L 1503 0 
L 191 3500 
z
" transform="scale(0.015625)"/>
       <path id="DejaVuSans-61" d="M 2194 1759 
Q 1497 1759 1228 1600 
Q 959 1441 959 1056 
Q 959 750 1161 570 
Q 1363 391 1709 391 
Q 2188 391 2477 730 
Q 2766 1069 2766 1631 
L 2766 1759 
L 2194 1759 
z
M 3341 1997 
L 3341 0 
L 2766 0 
L 2766 531 
Q 2569 213 2275 61 
Q 1981 -91 1556 -91 
Q 1019 -91 701 211 
Q 384 513 384 1019 
Q 384 1609 779 1909 
Q 1175 2209 1959 2209 
L 2766 2209 
L 2766 2266 
Q 2766 2663 2505 2880 
Q 2244 3097 1772 3097 
Q 1472 3097 1187 3025 
Q 903 2953 641 2809 
L 641 3341 
Q 956 3463 1253 3523 
Q 1550 3584 1831 3584 
Q 2591 3584 2966 3190 
Q 3341 2797 3341 1997 
z
" transform="scale(0.015625)"/>
       <path id="DejaVuSans-73" d="M 2834 3397 
L 2834 2853 
Q 2591 2978 2328 3040 
Q 2066 3103 1784 3103 
Q 1356 3103 1142 2972 
Q 928 2841 928 2578 
Q 928 2378 1081 2264 
Q 1234 2150 1697 2047 
L 1894 2003 
Q 2506 1872 2764 1633 
Q 3022 1394 3022 966 
Q 3022 478 2636 193 
Q 2250 -91 1575 -91 
Q 1294 -91 989 -36 
Q 684 19 347 128 
L 347 722 
Q 666 556 975 473 
Q 1284 391 1588 391 
Q 1994 391 2212 530 
Q 2431 669 2431 922 
Q 2431 1156 2273 1281 
Q 2116 1406 1581 1522 
L 1381 1569 
Q 847 1681 609 1914 
Q 372 2147 372 2553 
Q 372 3047 722 3315 
Q 1072 3584 1716 3584 
Q 2034 3584 2315 3537 
Q 2597 3491 2834 3397 
z
" transform="scale(0.015625)"/>
       <path id="DejaVuSans-72" d="M 2631 2963 
Q 2534 3019 2420 3045 
Q 2306 3072 2169 3072 
Q 1681 3072 1420 2755 
Q 1159 2438 1159 1844 
L 1159 0 
L 581 0 
L 581 3500 
L 1159 3500 
L 1159 2956 
Q 1341 3275 1631 3429 
Q 1922 3584 2338 3584 
Q 2397 3584 2469 3576 
Q 2541 3569 2628 3553 
L 2631 2963 
z
" transform="scale(0.015625)"/>
       <path id="DejaVuSans-74" d="M 1172 4494 
L 1172 3500 
L 2356 3500 
L 2356 3053 
L 1172 3053 
L 1172 1153 
Q 1172 725 1289 603 
Q 1406 481 1766 481 
L 2356 481 
L 2356 0 
L 1766 0 
Q 1100 0 847 248 
Q 594 497 594 1153 
L 594 3053 
L 172 3053 
L 172 3500 
L 594 3500 
L 594 4494 
L 1172 4494 
z
" transform="scale(0.015625)"/>
       <path id="DejaVuSans-69" d="M 603 3500 
L 1178 3500 
L 1178 0 
L 603 0 
L 603 3500 
z
M 603 4863 
L 1178 4863 
L 1178 4134 
L 603 4134 
L 603 4863 
z
" transform="scale(0.015625)"/>
      </defs>
      <use xlink:href="#DejaVuSans-6c"/>
      <use xlink:href="#DejaVuSans-6f" x="27.783203"/>
      <use xlink:href="#DejaVuSans-67" x="88.964844"/>
      <use xlink:href="#DejaVuSans-31" x="152.441406"/>
      <use xlink:href="#DejaVuSans-30" x="216.064453"/>
      <use xlink:href="#DejaVuSans-20" x="279.6875"/>
      <use xlink:href="#DejaVuSans-6f" x="311.474609"/>
      <use xlink:href="#DejaVuSans-66" x="372.65625"/>
      <use xlink:href="#DejaVuSans-20" x="407.861328"/>
      <use xlink:href="#DejaVuSans-46" x="439.648438"/>
      <use xlink:href="#DejaVuSans-45" x="497.167969"/>
      <use xlink:href="#DejaVuSans-76" x="560.351562"/>
      <use xlink:href="#DejaVuSans-61" x="619.53125"/>
      <use xlink:href="#DejaVuSans-6c" x="680.810547"/>
      <use xlink:href="#DejaVuSans-73" x="708.59375"/>
      <use xlink:href="#DejaVuSans-20" x="760.693359"/>
      <use xlink:href="#DejaVuSans-72" x="792.480469"/>
      <use xlink:href="#DejaVuSans-61" x="833.59375"/>
      <use xlink:href="#DejaVuSans-74" x="894.873047"/>
      <use xlink:href="#DejaVuSans-69" x="934.082031"/>
      <use xlink:href="#DejaVuSans-6f" x="961.865234"/>
     </g>
    </g>
   </g>
   <g id="matplotlib.axis_2">
    <g id="ytick_1">
     <g id="line2d_7">
      <path d="M 34.16 288.453725 
L 453.192 288.453725 
" clip-path="url(#pbff39cf363)" style="fill: none; stroke: #b0b0b0; stroke-width: 0.8; stroke-linecap: square"/>
     </g>
     <g id="line2d_8">
      <defs>
       <path id="mcec8006dcf" d="M 0 0 
L -3.5 0 
" style="stroke: #000000; stroke-width: 0.8"/>
      </defs>
      <g>
       <use xlink:href="#mcec8006dcf" x="34.16" y="288.453725" style="stroke: #000000; stroke-width: 0.8"/>
      </g>
     </g>
    </g>
    <g id="ytick_2">
     <g id="line2d_9">
      <path d="M 34.16 217.796863 
L 453.192 217.796863 
" clip-path="url(#pbff39cf363)" style="fill: none; stroke: #b0b0b0; stroke-width: 0.8; stroke-linecap: square"/>
     </g>
     <g id="line2d_10">
      <g>
       <use xlink:href="#mcec8006dcf" x="34.16" y="217.796863" style="stroke: #000000; stroke-width: 0.8"/>
      </g>
     </g>
    </g>
    <g id="ytick_3">
     <g id="line2d_11">
      <path d="M 34.16 147.14 
L 453.192 147.14 
" clip-path="url(#pbff39cf363)" style="fill: none; stroke: #b0b0b0; stroke-width: 0.8; stroke-linecap: square"/>
     </g>
     <g id="line2d_12">
      <g>
       <use xlink:href="#mcec8006dcf" x="34.16" y="147.14" style="stroke: #000000; stroke-width: 0.8"/>
      </g>
     </g>
    </g>
    <g id="ytick_4">
     <g id="line2d_13">
      <path d="M 34.16 76.483137 
L 453.192 76.483137 
" clip-path="url(#pbff39cf363)" style="fill: none; stroke: #b0b0b0; stroke-width: 0.8; stroke-linecap: square"/>
     </g>
     <g id="line2d_14">
      <g>
       <use xlink:href="#mcec8006dcf" x="34.16" y="76.483137" style="stroke: #000000; stroke-width: 0.8"/>
      </g>
     </g>
    </g>
    <g id="ytick_5">
     <g id="line2d_15">
      <path d="M 34.16 5.826275 
L 453.192 5.826275 
" clip-path="url(#pbff39cf363)" style="fill: none; stroke: #b0b0b0; stroke-width: 0.8; stroke-linecap: square"/>
     </g>
     <g id="line2d_16">
      <g>
       <use xlink:href="#mcec8006dcf" x="34.16" y="5.826275" style="stroke: #000000; stroke-width: 0.8"/>
      </g>
     </g>
    </g>
    <g id="text_5">
     <!-- proportion of trials -->
     <g transform="translate(19.000625 240.14625)rotate(-90)scale(0.2 -0.2)">
      <defs>
       <path id="DejaVuSans-70" d="M 1159 525 
L 1159 -1331 
L 581 -1331 
L 581 3500 
L 1159 3500 
L 1159 2969 
Q 1341 3281 1617 3432 
Q 1894 3584 2278 3584 
Q 2916 3584 3314 3078 
Q 3713 2572 3713 1747 
Q 3713 922 3314 415 
Q 2916 -91 2278 -91 
Q 1894 -91 1617 61 
Q 1341 213 1159 525 
z
M 3116 1747 
Q 3116 2381 2855 2742 
Q 2594 3103 2138 3103 
Q 1681 3103 1420 2742 
Q 1159 2381 1159 1747 
Q 1159 1113 1420 752 
Q 1681 391 2138 391 
Q 2594 391 2855 752 
Q 3116 1113 3116 1747 
z
" transform="scale(0.015625)"/>
       <path id="DejaVuSans-6e" d="M 3513 2113 
L 3513 0 
L 2938 0 
L 2938 2094 
Q 2938 2591 2744 2837 
Q 2550 3084 2163 3084 
Q 1697 3084 1428 2787 
Q 1159 2491 1159 1978 
L 1159 0 
L 581 0 
L 581 3500 
L 1159 3500 
L 1159 2956 
Q 1366 3272 1645 3428 
Q 1925 3584 2291 3584 
Q 2894 3584 3203 3211 
Q 3513 2838 3513 2113 
z
" transform="scale(0.015625)"/>
      </defs>
      <use xlink:href="#DejaVuSans-70"/>
      <use xlink:href="#DejaVuSans-72" x="63.476562"/>
      <use xlink:href="#DejaVuSans-6f" x="102.339844"/>
      <use xlink:href="#DejaVuSans-70" x="163.521484"/>
      <use xlink:href="#DejaVuSans-6f" x="226.998047"/>
      <use xlink:href="#DejaVuSans-72" x="288.179688"/>
      <use xlink:href="#DejaVuSans-74" x="329.292969"/>
      <use xlink:href="#DejaVuSans-69" x="368.501953"/>
      <use xlink:href="#DejaVuSans-6f" x="396.285156"/>
      <use xlink:href="#DejaVuSans-6e" x="457.466797"/>
      <use xlink:href="#DejaVuSans-20" x="520.845703"/>
      <use xlink:href="#DejaVuSans-6f" x="552.632812"/>
      <use xlink:href="#DejaVuSans-66" x="613.814453"/>
      <use xlink:href="#DejaVuSans-20" x="649.019531"/>
      <use xlink:href="#DejaVuSans-74" x="680.806641"/>
      <use xlink:href="#DejaVuSans-72" x="720.015625"/>
      <use xlink:href="#DejaVuSans-69" x="761.128906"/>
      <use xlink:href="#DejaVuSans-61" x="788.912109"/>
      <use xlink:href="#DejaVuSans-6c" x="850.191406"/>
      <use xlink:href="#DejaVuSans-73" x="877.974609"/>
     </g>
    </g>
   </g>
   <g id="line2d_17">
    <path d="M 34.16 288.453725 
L 52.155379 288.453725 
L 52.155379 287.700052 
L 53.30547 287.700052 
L 53.30547 286.946379 
L 99.856964 286.946379 
L 99.856964 286.192706 
L 110.080974 286.192706 
L 110.080974 285.439033 
L 111.231065 285.439033 
L 111.231065 284.685359 
L 127.181777 284.685359 
L 127.181777 283.931686 
L 128.354464 283.931686 
L 128.354464 283.178013 
L 129.504555 283.178013 
L 129.504555 282.42434 
L 130.207612 282.42434 
L 130.207612 281.670667 
L 131.132091 281.670667 
L 131.132091 280.916993 
L 132.282183 280.916993 
L 132.282183 280.16332 
L 133.644761 280.16332 
L 133.644761 279.409647 
L 134.794852 279.409647 
L 134.794852 278.655974 
L 142.174273 278.655974 
L 142.174273 277.902301 
L 150.453093 277.902301 
L 150.453093 277.148627 
L 157.782559 277.148627 
L 157.801001 274.887608 
L 158.74264 274.887608 
L 158.74264 274.133935 
L 158.951092 274.133935 
L 158.951092 273.380261 
L 159.892731 273.380261 
L 159.892731 272.626588 
L 160.447764 272.626588 
L 160.447764 271.872915 
L 162.607558 271.872915 
L 162.607558 271.119242 
L 163.757649 271.119242 
L 163.757649 270.365569 
L 165.977639 270.365569 
L 165.977639 269.611895 
L 166.518152 269.611895 
L 166.518152 268.858222 
L 167.12773 268.858222 
L 167.12773 268.104549 
L 167.679072 268.104549 
L 167.679072 267.350876 
L 167.969697 267.350876 
L 167.969697 266.597203 
L 168.829164 266.597203 
L 168.829164 265.843529 
L 170.582038 265.843529 
L 170.582038 265.089856 
L 171.13707 265.089856 
L 171.13707 264.336183 
L 172.209574 264.336183 
L 172.209574 263.58251 
L 173.359665 263.58251 
L 173.359665 262.828837 
L 175.09797 262.828837 
L 175.09797 262.075163 
L 176.05605 262.075163 
L 176.05605 260.567817 
L 176.248061 260.567817 
L 176.248061 259.814144 
L 178.833677 259.814144 
L 178.833677 259.060471 
L 181.346346 259.060471 
L 181.346346 258.306797 
L 185.10271 258.306797 
L 185.107372 256.799451 
L 186.603536 256.799451 
L 186.603536 256.045778 
L 186.745356 256.045778 
L 186.745356 255.292105 
L 186.879618 255.292105 
L 186.879618 254.538431 
L 187.593382 254.538431 
L 187.593382 253.784758 
L 187.753627 253.784758 
L 187.753627 253.031085 
L 188.133207 253.031085 
L 188.133207 252.277412 
L 188.855528 252.277412 
L 188.855528 250.770065 
L 189.625572 250.770065 
L 189.625572 250.016392 
L 191.149416 250.016392 
L 191.168638 248.509046 
L 192.375826 248.509046 
L 192.375826 247.001699 
L 199.544835 247.001699 
L 199.544835 246.248026 
L 200.099868 246.248026 
L 200.099868 245.494353 
L 201.753267 245.494353 
L 201.753267 244.74068 
L 202.087523 244.74068 
L 202.087523 243.987007 
L 202.877495 243.987007 
L 202.877495 243.233333 
L 203.010886 243.233333 
L 203.010886 242.47966 
L 203.380862 242.47966 
L 203.380862 241.725987 
L 204.473816 241.725987 
L 204.473816 240.972314 
L 205.502587 240.972314 
L 205.502587 240.218641 
L 206.158489 240.218641 
L 206.250724 238.711294 
L 206.349758 238.711294 
L 206.444225 236.450275 
L 206.964489 236.450275 
L 206.964489 235.696601 
L 207.129019 235.696601 
L 207.129019 233.435582 
L 207.363962 233.435582 
L 207.363962 232.681908 
L 207.684051 232.681908 
L 207.684051 231.928235 
L 208.671159 231.928235 
L 208.701653 230.420889 
L 208.996679 230.420889 
L 208.996679 229.667216 
L 209.184325 229.667216 
L 209.268623 228.159869 
L 209.326585 228.159869 
L 209.326585 227.406196 
L 209.794223 227.406196 
L 209.794223 226.652523 
L 210.309143 226.652523 
L 210.309143 225.89885 
L 210.539744 225.89885 
L 210.539744 225.145176 
L 211.696994 225.145176 
L 211.696994 224.391503 
L 211.935576 224.391503 
L 212.020755 222.884157 
L 212.71116 222.884157 
L 212.71116 222.130484 
L 213.679224 222.130484 
L 213.679224 221.37681 
L 214.431242 221.37681 
L 214.488068 219.115791 
L 215.201833 219.115791 
L 215.268235 216.854771 
L 215.380658 216.854771 
L 215.380658 216.101098 
L 215.708154 216.101098 
L 215.708154 215.347425 
L 217.234023 215.347425 
L 217.234023 214.593752 
L 217.818326 214.593752 
L 217.818326 213.086405 
L 218.373358 213.086405 
L 218.373358 211.579059 
L 218.485781 211.579059 
L 218.485781 210.825386 
L 218.740499 210.825386 
L 218.777088 209.318039 
L 219.269871 209.318039 
L 219.269871 208.564366 
L 219.744305 208.564366 
L 219.744305 207.810693 
L 219.911159 207.810693 
L 219.911159 207.05702 
L 220.48353 207.05702 
L 220.48353 206.303346 
L 221.253168 206.303346 
L 221.338624 204.042327 
L 221.45863 204.042327 
L 221.45863 203.288654 
L 222.381993 203.288654 
L 222.414817 201.781307 
L 222.799555 201.781307 
L 222.799555 201.027634 
L 223.292338 201.027634 
L 223.292338 200.273961 
L 223.866362 200.273961 
L 223.866362 199.520288 
L 224.83554 199.520288 
L 224.83554 198.766614 
L 225.402509 198.766614 
L 225.402509 194.244575 
L 225.957542 194.244575 
L 225.957542 193.490902 
L 226.652178 193.490902 
L 226.735069 191.983556 
L 227.610941 191.983556 
L 227.610941 191.229882 
L 228.07276 191.229882 
L 228.085814 189.722536 
L 228.507632 189.722536 
L 228.507632 188.968863 
L 228.63973 188.968863 
L 228.697692 187.461516 
L 228.922807 187.461516 
L 229.026667 183.69315 
L 229.537359 183.69315 
L 229.537359 182.939477 
L 229.695974 182.939477 
L 229.695974 182.185804 
L 230.039528 182.185804 
L 230.039528 181.432131 
L 230.521059 181.432131 
L 230.619337 179.924784 
L 230.803575 179.924784 
L 230.876521 178.417438 
L 231.285259 178.417438 
L 231.285259 176.910092 
L 231.51734 176.910092 
L 231.51734 176.156418 
L 231.972604 176.156418 
L 231.972604 175.402745 
L 232.736804 175.402745 
L 232.827399 173.895399 
L 232.986693 173.895399 
L 232.986693 173.141725 
L 233.54953 173.141725 
L 233.54953 172.388052 
L 233.769038 172.388052 
L 233.769038 171.634379 
L 233.981644 171.634379 
L 233.981644 170.127033 
L 234.305122 170.127033 
L 234.305122 169.373359 
L 234.805557 169.373359 
L 234.805557 167.866013 
L 234.972413 167.866013 
L 234.972413 167.11234 
L 235.092595 167.11234 
L 235.092595 166.358667 
L 235.853235 166.358667 
L 235.853235 165.604993 
L 236.091816 165.604993 
L 236.091816 162.590301 
L 236.257102 162.590301 
L 236.310104 161.082954 
L 236.703516 161.082954 
L 236.794873 159.575608 
L 236.877074 159.575608 
L 236.935036 158.068261 
L 237.318227 158.068261 
L 237.318227 157.314588 
L 237.633956 157.314588 
L 237.633956 156.560915 
L 238.201988 156.560915 
L 238.201988 155.807242 
L 238.480424 155.807242 
L 238.480424 155.053569 
L 238.769772 155.053569 
L 238.769772 154.299895 
L 239.115412 154.299895 
L 239.194188 152.792549 
L 239.612114 152.792549 
L 239.612114 152.038876 
L 240.443826 152.038876 
L 240.443826 151.285203 
L 240.659791 151.285203 
L 240.659791 150.531529 
L 240.983553 150.531529 
L 241.010796 148.27051 
L 241.226378 148.27051 
L 241.226378 147.516837 
L 241.565828 147.516837 
L 241.565828 146.763163 
L 242.449589 146.763163 
L 242.449589 146.00949 
L 242.631781 146.00949 
L 242.717237 143.748471 
L 242.769444 143.748471 
L 242.839007 142.241124 
L 243.135487 142.241124 
L 243.135487 141.487451 
L 243.676 141.487451 
L 243.676 134.704392 
L 243.804825 134.704392 
L 243.804825 133.950719 
L 244.029872 133.950719 
L 244.029872 133.197046 
L 244.168782 133.197046 
L 244.168782 132.443373 
L 244.285578 132.443373 
L 244.285578 131.689699 
L 244.680429 131.689699 
L 244.680429 130.936026 
L 244.825302 130.936026 
L 244.825302 130.182353 
L 244.954916 130.182353 
L 244.954916 129.42868 
L 245.127545 129.42868 
L 245.168648 127.921333 
L 245.718717 127.921333 
L 245.731306 126.413987 
L 246.01148 126.413987 
L 246.01148 125.660314 
L 246.781123 125.660314 
L 246.781123 123.399294 
L 246.934844 123.399294 
L 246.934844 122.645621 
L 247.046081 122.645621 
L 247.046081 121.891948 
L 247.235972 121.891948 
L 247.235972 121.138275 
L 247.352756 121.138275 
L 247.352756 120.384601 
L 248.891295 120.384601 
L 248.891295 119.630928 
L 249.166723 119.630928 
L 249.166723 118.877255 
L 249.55875 118.877255 
L 249.55875 117.369908 
L 250.124368 117.369908 
L 250.124368 116.616235 
L 250.261807 116.616235 
L 250.261807 115.862562 
L 251.260184 115.862562 
L 251.28792 114.355216 
L 252.625611 114.355216 
L 252.717078 112.847869 
L 253.150203 112.847869 
L 253.250543 109.833176 
L 253.688329 109.833176 
L 253.688329 109.079503 
L 253.810274 109.079503 
L 253.810274 108.32583 
L 254.365307 108.32583 
L 254.365307 103.050118 
L 254.611692 103.050118 
L 254.611692 102.296444 
L 255.152323 102.296444 
L 255.152323 101.542771 
L 255.451736 101.542771 
L 255.451736 100.789098 
L 255.916523 100.789098 
L 255.916523 100.035425 
L 256.475479 100.035425 
L 256.475479 99.281752 
L 257.048611 99.281752 
L 257.048611 98.528078 
L 258.429193 98.528078 
L 258.500156 97.020732 
L 258.69684 97.020732 
L 258.69684 96.267059 
L 258.964768 96.267059 
L 258.964768 95.513386 
L 259.436821 95.513386 
L 259.436821 94.759712 
L 259.995777 94.759712 
L 259.995777 94.006039 
L 260.148385 94.006039 
L 260.148385 93.252366 
L 260.30246 93.252366 
L 260.30246 92.498693 
L 260.745488 92.498693 
L 260.745488 91.74502 
L 260.869429 91.74502 
L 260.927391 90.237673 
L 261.112497 90.237673 
L 261.112497 89.484 
L 261.233707 89.484 
L 261.233707 88.730327 
L 261.629934 88.730327 
L 261.629934 87.976654 
L 261.949491 87.976654 
L 261.949491 78.932575 
L 262.197033 78.932575 
L 262.197033 78.178902 
L 262.685252 78.178902 
L 262.685252 77.425229 
L 263.235749 77.425229 
L 263.235749 76.671556 
L 263.668263 76.671556 
L 263.668263 75.917882 
L 264.196409 75.917882 
L 264.196409 75.164209 
L 264.65577 75.164209 
L 264.65577 74.410536 
L 265.054613 74.410536 
L 265.089823 72.149516 
L 267.164785 72.149516 
L 267.164785 71.395843 
L 267.348501 71.395843 
L 267.348501 70.64217 
L 267.832241 70.64217 
L 267.832241 68.38115 
L 268.307264 68.38115 
L 268.307264 67.627477 
L 268.53783 67.627477 
L 268.53783 66.873804 
L 271.345111 66.873804 
L 271.345111 66.120131 
L 271.516795 66.120131 
L 271.516795 64.612784 
L 272.083765 64.612784 
L 272.083765 63.859111 
L 272.433753 63.859111 
L 272.433753 63.105438 
L 272.638797 63.105438 
L 272.638797 59.337072 
L 272.96834 59.337072 
L 272.96834 58.583399 
L 273.327167 58.583399 
L 273.327167 57.829725 
L 273.503238 57.829725 
L 273.503238 57.076052 
L 274.748969 57.076052 
L 274.748969 56.322379 
L 275.938483 56.322379 
L 275.938483 55.568706 
L 276.159095 55.568706 
L 276.159095 54.815033 
L 276.702683 54.815033 
L 276.775174 51.046667 
L 280.222981 51.046667 
L 280.222981 47.278301 
L 281.679875 47.278301 
L 281.679875 46.524627 
L 282.735651 46.524627 
L 282.735651 45.770954 
L 283.328104 45.770954 
L 283.328104 45.017281 
L 285.376752 45.017281 
L 285.376752 44.263608 
L 285.864971 44.263608 
L 285.864971 43.509935 
L 286.105731 43.509935 
L 286.105731 42.756261 
L 287.570723 42.756261 
L 287.570723 42.002588 
L 288.134661 42.002588 
L 288.134661 41.248915 
L 288.74926 41.248915 
L 288.74926 40.495242 
L 289.093424 40.495242 
L 289.093424 39.741569 
L 289.642674 39.741569 
L 289.642674 38.987895 
L 290.837072 38.987895 
L 290.912288 35.973203 
L 291.50641 35.973203 
L 291.50641 35.219529 
L 293.02246 35.219529 
L 293.090681 32.95851 
L 293.689915 32.95851 
L 293.689915 32.204837 
L 294.976174 32.204837 
L 294.976174 29.943817 
L 296.148059 29.943817 
L 296.148059 29.190144 
L 296.426108 29.190144 
L 296.426108 28.436471 
L 297.319523 28.436471 
L 297.319523 27.682797 
L 298.496472 27.682797 
L 298.496472 26.929124 
L 300.606644 26.929124 
L 300.606644 26.175451 
L 300.767529 26.175451 
L 300.767529 25.421778 
L 302.323916 25.421778 
L 302.323916 24.668105 
L 302.466035 24.668105 
L 302.466035 23.914431 
L 304.114264 23.914431 
L 304.114264 23.160758 
L 305.243662 23.160758 
L 305.243662 22.407085 
L 306.080656 22.407085 
L 306.162912 20.899739 
L 306.651131 20.899739 
L 306.651131 20.146065 
L 309.185778 20.146065 
L 309.185778 17.131373 
L 311.29595 17.131373 
L 311.29595 15.624026 
L 313.249664 15.624026 
L 313.249664 14.870353 
L 315.64796 14.870353 
L 315.64796 14.11668 
L 316.21493 14.11668 
L 316.21493 13.363007 
L 316.769962 13.363007 
L 316.769962 12.609333 
L 316.934219 12.609333 
L 316.934219 11.85566 
L 318.161885 11.85566 
L 318.161885 11.101987 
L 318.831223 11.101987 
L 318.831223 10.348314 
L 320.597406 10.348314 
L 320.597406 8.840967 
L 321.18772 8.840967 
L 321.18772 8.087294 
L 321.857058 8.087294 
L 321.857058 7.333621 
L 327.459269 7.333621 
L 327.459269 6.579948 
L 338.870897 6.579948 
L 338.870897 5.826275 
L 453.192 5.826275 
L 453.192 5.826275 
" clip-path="url(#pbff39cf363)" style="fill: none; stroke: #000000; stroke-width: 3; stroke-linecap: square"/>
   </g>
   <g id="line2d_18">
    <path clip-path="url(#pbff39cf363)" style="fill: none; stroke: #000000; stroke-width: 3; stroke-linecap: square"/>
   </g>
   <g id="line2d_19">
    <path d="M 34.16 260.727615 
L 112.561182 260.727615 
L 112.561182 259.833224 
L 113.624441 259.833224 
L 113.624441 258.938833 
L 119.649937 258.938833 
L 119.649937 258.044443 
L 120.713197 258.044443 
L 120.713197 257.150052 
L 123.621805 257.150052 
L 123.621805 256.255661 
L 124.685065 256.255661 
L 124.685065 255.361271 
L 125.230899 255.361271 
L 125.230899 254.46688 
L 125.575519 254.46688 
L 125.575519 253.572489 
L 126.294158 253.572489 
L 126.294158 252.678099 
L 126.638779 252.678099 
L 126.638779 251.783708 
L 128.807736 251.783708 
L 128.807736 250.889317 
L 131.133539 250.889317 
L 131.133539 249.994927 
L 131.798443 249.994927 
L 131.798443 249.100536 
L 132.861702 249.100536 
L 132.861702 248.206145 
L 137.101576 248.206145 
L 137.101576 247.311755 
L 140.180535 247.311755 
L 140.180535 246.417364 
L 147.014267 246.417364 
L 147.014267 245.522973 
L 153.644356 245.522973 
L 153.656071 243.734192 
L 154.103023 243.734192 
L 154.103023 242.839801 
L 156.493523 242.839801 
L 156.493523 241.945411 
L 156.723316 241.945411 
L 156.73503 240.156629 
L 157.915494 240.156629 
L 157.915494 239.262239 
L 158.074891 239.262239 
L 158.150997 237.473457 
L 159.683985 237.473457 
L 159.683985 236.579067 
L 160.028605 236.579067 
L 160.028605 235.684676 
L 163.782469 235.684676 
L 163.782469 234.790285 
L 164.092508 234.790285 
L 164.092508 233.895895 
L 166.251528 233.895895 
L 166.251528 233.001504 
L 166.418311 233.001504 
L 166.418311 232.107113 
L 167.01358 232.107113 
L 167.01358 231.212723 
L 167.188509 231.212723 
L 167.188509 230.318332 
L 167.921247 230.318332 
L 167.921247 229.423941 
L 170.267468 229.423941 
L 170.267468 228.529551 
L 171.000207 228.529551 
L 171.000207 227.63516 
L 174.102336 227.63516 
L 174.102336 226.740769 
L 177.869247 226.740769 
L 177.869247 225.846379 
L 178.074204 225.846379 
L 178.074204 224.951988 
L 178.222214 224.951988 
L 178.222214 224.057597 
L 179.683297 224.057597 
L 179.683297 223.163207 
L 180.027918 223.163207 
L 180.027918 222.268816 
L 180.948206 222.268816 
L 180.948206 221.374425 
L 182.52467 221.374425 
L 182.626585 219.585644 
L 184.850473 219.585644 
L 184.850473 218.691253 
L 186.250841 218.691253 
L 186.250841 217.796863 
L 190.007916 217.796863 
L 190.007916 216.902472 
L 191.03625 216.902472 
L 191.071175 215.113691 
L 191.778295 215.113691 
L 191.778295 214.2193 
L 192.910284 214.2193 
L 192.910284 213.324909 
L 193.200266 213.324909 
L 193.200266 212.430519 
L 193.435769 212.430519 
L 193.435769 211.536128 
L 194.949028 211.536128 
L 195.057226 209.747347 
L 198.016626 209.747347 
L 198.027988 207.958565 
L 198.136185 207.958565 
L 198.136185 207.064175 
L 198.557594 207.064175 
L 198.557594 206.169784 
L 199.067241 206.169784 
L 199.067241 205.275393 
L 200.883397 205.275393 
L 200.883397 204.381003 
L 202.703722 204.381003 
L 202.703722 203.486612 
L 205.615682 203.486612 
L 205.687323 201.697831 
L 207.043052 201.697831 
L 207.043052 200.80344 
L 207.526831 200.80344 
L 207.526831 199.909049 
L 208.171692 199.909049 
L 208.171692 199.014659 
L 209.281183 199.014659 
L 209.281183 198.120268 
L 209.859119 198.120268 
L 209.859119 197.225877 
L 210.210457 197.225877 
L 210.210457 196.331487 
L 210.564765 196.331487 
L 210.564765 195.437096 
L 211.628024 195.437096 
L 211.733153 192.753924 
L 211.867931 192.753924 
L 211.867931 191.859533 
L 213.506985 191.859533 
L 213.506985 190.965143 
L 216.839495 190.965143 
L 216.839495 190.070752 
L 217.499403 190.070752 
L 217.499403 189.176361 
L 217.911357 189.176361 
L 217.911357 188.281971 
L 221.489356 188.281971 
L 221.489356 187.38758 
L 222.167968 187.38758 
L 222.167968 186.493189 
L 223.236962 186.493189 
L 223.236962 185.598799 
L 223.813549 185.598799 
L 223.848609 183.810017 
L 224.461001 183.810017 
L 224.55184 181.126845 
L 224.673004 181.126845 
L 224.673004 180.232455 
L 225.201866 180.232455 
L 225.246928 178.443673 
L 225.865921 178.443673 
L 225.865921 177.549283 
L 226.012811 177.549283 
L 226.012811 176.654892 
L 226.243381 176.654892 
L 226.265125 173.97172 
L 226.376646 173.97172 
L 226.376646 173.077329 
L 226.881468 173.077329 
L 226.892508 171.288548 
L 226.994561 171.288548 
L 226.994561 170.394157 
L 227.214165 170.394157 
L 227.219433 168.605376 
L 227.665352 168.605376 
L 227.665352 167.710985 
L 227.900855 167.710985 
L 227.900855 166.816595 
L 228.104052 166.816595 
L 228.104052 165.922204 
L 228.532967 165.922204 
L 228.532967 165.027813 
L 228.755502 165.027813 
L 228.755502 164.133423 
L 229.088199 164.133423 
L 229.088199 163.239032 
L 231.482988 163.239032 
L 231.482988 162.344641 
L 231.939148 162.344641 
L 231.939148 161.450251 
L 233.532327 161.450251 
L 233.532327 160.55586 
L 233.861844 160.55586 
L 233.861844 159.661469 
L 234.19454 159.661469 
L 234.19454 158.767079 
L 236.343519 158.767079 
L 236.343519 157.872688 
L 237.988494 157.872688 
L 237.988494 156.978297 
L 239.991349 156.978297 
L 239.991349 156.083907 
L 240.509414 156.083907 
L 240.509414 155.189516 
L 240.900453 155.189516 
L 240.972094 153.400735 
L 241.054608 153.400735 
L 241.054608 152.506344 
L 241.638054 152.506344 
L 241.638054 151.611953 
L 242.58979 151.611953 
L 242.58979 150.717563 
L 242.747545 150.717563 
L 242.856357 148.034391 
L 242.88827 148.034391 
L 242.88827 147.14 
L 243.220967 147.14 
L 243.220967 146.245609 
L 243.361068 146.245609 
L 243.415728 143.562437 
L 243.480761 143.562437 
L 243.495872 141.773656 
L 244.01691 141.773656 
L 244.01691 140.879265 
L 244.349606 140.879265 
L 244.460314 138.196093 
L 244.83568 138.196093 
L 244.83568 137.301703 
L 245.017851 137.301703 
L 245.126401 134.618531 
L 245.18216 134.618531 
L 245.18216 133.72414 
L 245.459098 133.72414 
L 245.459098 132.829749 
L 245.668749 132.829749 
L 245.668749 131.935359 
L 245.952095 131.935359 
L 246.042301 130.146577 
L 246.55972 130.146577 
L 246.55972 129.252187 
L 247.972071 129.252187 
L 247.972071 128.357796 
L 251.217456 128.357796 
L 251.217456 127.463405 
L 252.280715 127.463405 
L 252.376443 125.674624 
L 253.143978 125.674624 
L 253.143978 124.780233 
L 254.207237 124.780233 
L 254.207237 123.885843 
L 256.420656 123.885843 
L 256.420656 122.991452 
L 256.774128 122.991452 
L 256.774128 122.097061 
L 258.018202 122.097061 
L 258.018202 121.202671 
L 258.139365 121.202671 
L 258.139365 120.30828 
L 258.521733 120.30828 
L 258.521733 119.413889 
L 259.133381 119.413889 
L 259.133381 118.519499 
L 259.332616 118.519499 
L 259.404257 116.730717 
L 259.479173 116.730717 
L 259.479173 115.836327 
L 259.654951 115.836327 
L 259.726639 114.047545 
L 260.397058 114.047545 
L 260.397058 113.153155 
L 260.518221 113.153155 
L 260.518221 112.258764 
L 260.685794 112.258764 
L 260.729755 110.469983 
L 260.850918 110.469983 
L 260.850918 109.575592 
L 261.243765 109.575592 
L 261.243765 108.681201 
L 261.858029 108.681201 
L 261.858029 107.786811 
L 262.105495 107.786811 
L 262.190725 105.103639 
L 262.238596 105.103639 
L 262.238596 104.209248 
L 262.438192 104.209248 
L 262.438192 103.314857 
L 262.676282 103.314857 
L 262.676282 102.420467 
L 263.06465 102.420467 
L 263.06465 101.526076 
L 263.267919 101.526076 
L 263.267919 100.631685 
L 263.397347 100.631685 
L 263.397347 99.737295 
L 264.774964 99.737295 
L 264.774964 98.842904 
L 265.017164 98.842904 
L 265.017164 97.948513 
L 270.542144 97.948513 
L 270.542144 97.054123 
L 271.964115 97.054123 
L 271.964115 96.159732 
L 272.199618 96.159732 
L 272.199618 95.265341 
L 272.45358 95.265341 
L 272.45358 94.370951 
L 274.444434 94.370951 
L 274.444434 93.47656 
L 275.20629 93.47656 
L 275.20629 92.582169 
L 275.365539 92.582169 
L 275.43718 90.793388 
L 276.827429 90.793388 
L 276.882089 89.004607 
L 276.953896 89.004607 
L 276.953896 88.110216 
L 277.276689 88.110216 
L 277.276689 87.215825 
L 277.565543 87.215825 
L 277.565543 86.321435 
L 277.83109 86.321435 
L 277.911412 84.532653 
L 279.206286 84.532653 
L 279.260946 80.955091 
L 279.418457 80.955091 
L 279.418457 80.0607 
L 279.538982 80.0607 
L 279.593642 78.271919 
L 279.654264 78.271919 
L 279.654264 77.377528 
L 280.290268 77.377528 
L 280.290268 76.483137 
L 280.622965 76.483137 
L 280.622965 75.588747 
L 281.797313 75.588747 
L 281.797313 74.694356 
L 282.13001 74.694356 
L 282.13001 73.799965 
L 285.670542 73.799965 
L 285.670542 72.905575 
L 287.597064 72.905575 
L 287.597064 72.011184 
L 291.239214 72.011184 
L 291.239214 71.116793 
L 292.270834 71.116793 
L 292.270834 70.222403 
L 292.763215 70.222403 
L 292.763215 69.328012 
L 292.986819 69.328012 
L 292.986819 68.433621 
L 293.495954 68.433621 
L 293.598467 66.64484 
L 294.443747 66.64484 
L 294.443747 65.750449 
L 295.33413 65.750449 
L 295.33413 64.856059 
L 296.397389 64.856059 
L 296.397389 63.961668 
L 296.675206 63.961668 
L 296.675206 63.067277 
L 297.278954 63.067277 
L 297.278954 62.172887 
L 298.342213 62.172887 
L 298.342213 61.278496 
L 300.127693 61.278496 
L 300.127693 60.384105 
L 301.190952 60.384105 
L 301.190952 59.489715 
L 303.443954 59.489715 
L 303.443954 58.595324 
L 305.669854 58.595324 
L 305.683774 56.806543 
L 307.596376 56.806543 
L 307.596376 55.912152 
L 316.752343 55.912152 
L 316.752343 55.017761 
L 319.664302 55.017761 
L 319.735943 53.22898 
L 320.523735 53.22898 
L 320.631932 51.440199 
L 321.575452 51.440199 
L 321.575452 50.545808 
L 322.226555 50.545808 
L 322.238269 48.757027 
L 329.787216 48.757027 
L 329.787216 47.862636 
L 331.73204 47.862636 
L 331.73204 46.968245 
L 334.580778 46.968245 
L 334.580778 46.073855 
L 335.537977 46.073855 
L 335.537977 45.179464 
L 335.770707 45.179464 
L 335.770707 44.285073 
L 336.503446 44.285073 
L 336.503446 43.390683 
L 337.285582 43.390683 
L 337.285582 42.496292 
L 337.89723 42.496292 
L 337.89723 41.601901 
L 346.451445 41.601901 
L 346.451445 40.707511 
L 347.742675 40.707511 
L 347.742675 39.81312 
L 349.388256 39.81312 
L 349.388256 38.918729 
L 349.786528 38.918729 
L 349.786528 38.024339 
L 351.731352 38.024339 
L 351.731352 37.129948 
L 354.580091 37.129948 
L 354.580091 36.235557 
L 363.531227 36.235557 
L 363.639424 34.446776 
L 368.164497 34.446776 
L 368.164497 33.552385 
L 369.055467 33.552385 
L 369.055467 32.657995 
L 390.750167 32.657995 
L 390.750167 31.763604 
L 392.395747 31.763604 
L 392.395747 30.869213 
L 411.171989 30.869213 
L 411.171989 29.974823 
L 412.062959 29.974823 
L 412.062959 29.080432 
L 453.192 29.080432 
L 453.192 29.080432 
" clip-path="url(#pbff39cf363)" style="fill: none; stroke: #00bfbf; stroke-width: 3; stroke-linecap: square"/>
   </g>
   <g id="line2d_20">
    <path clip-path="url(#pbff39cf363)" style="fill: none; stroke: #00bfbf; stroke-width: 3; stroke-linecap: square"/>
   </g>
   <g id="line2d_21">
    <path d="M 34.16 248.946662 
L 132.762799 248.946662 
L 132.762799 247.933661 
L 133.478211 247.933661 
L 133.478211 246.920659 
L 134.108382 246.920659 
L 134.108382 245.907658 
L 139.498009 245.907658 
L 139.498009 244.894656 
L 139.973033 244.894656 
L 139.973033 243.881654 
L 140.213421 243.881654 
L 140.213421 242.868653 
L 140.439648 242.868653 
L 140.439648 241.855651 
L 140.688444 241.855651 
L 140.688444 240.84265 
L 141.155059 240.84265 
L 141.155059 239.829648 
L 142.399968 239.829648 
L 142.399968 238.816646 
L 143.11538 238.816646 
L 143.11538 237.803645 
L 145.013929 237.803645 
L 145.013929 236.790643 
L 145.729341 236.790643 
L 145.729341 235.777641 
L 160.069613 235.777641 
L 160.069613 234.76464 
L 160.304057 234.76464 
L 160.304057 233.751638 
L 160.690223 233.751638 
L 160.690223 232.738637 
L 165.42192 232.738637 
L 165.42192 231.725635 
L 167.040475 231.725635 
L 167.040475 230.712633 
L 168.669823 230.712633 
L 168.669823 229.699632 
L 173.775685 229.699632 
L 173.775685 228.68663 
L 174.250708 228.68663 
L 174.250708 227.673629 
L 174.717324 227.673629 
L 174.717324 226.660627 
L 175.561217 226.660627 
L 175.561217 225.647625 
L 176.677644 225.647625 
L 176.677644 224.634624 
L 179.291605 224.634624 
L 179.291605 223.621622 
L 179.978961 223.621622 
L 179.978961 222.60862 
L 184.258018 222.60862 
L 184.258018 221.595619 
L 185.729399 221.595619 
L 185.729399 220.582617 
L 186.166235 220.582617 
L 186.166235 219.569616 
L 189.238706 219.569616 
L 189.238706 218.556614 
L 190.370179 218.556614 
L 190.370179 217.543612 
L 191.085591 217.543612 
L 191.188399 215.517609 
L 192.901445 215.517609 
L 192.901445 214.504607 
L 193.376469 214.504607 
L 193.376469 213.491606 
L 193.843084 213.491606 
L 193.843084 212.478604 
L 194.631054 212.478604 
L 194.631054 211.465603 
L 194.865499 211.465603 
L 194.865499 210.452601 
L 195.074682 210.452601 
L 195.074682 209.439599 
L 195.251665 209.439599 
L 195.251665 208.426598 
L 195.803404 208.426598 
L 195.803404 207.413596 
L 196.479359 207.413596 
L 196.479359 206.400595 
L 198.417365 206.400595 
L 198.417365 205.387593 
L 199.983362 205.387593 
L 199.983362 204.374591 
L 201.522448 204.374591 
L 201.522448 203.36159 
L 201.756893 203.36159 
L 201.756893 202.348588 
L 202.143059 202.348588 
L 202.143059 201.335586 
L 203.526982 201.335586 
L 203.526982 200.322585 
L 206.000397 200.322585 
L 206.000397 199.309583 
L 206.143767 199.309583 
L 206.143767 198.296582 
L 206.276737 198.296582 
L 206.276737 197.28358 
L 206.70681 197.28358 
L 206.70681 196.270578 
L 206.874756 196.270578 
L 206.874756 195.257577 
L 207.935418 195.257577 
L 207.935418 194.244575 
L 208.047315 194.244575 
L 208.047315 193.231574 
L 208.673583 193.231574 
L 208.673583 192.218572 
L 209.885111 192.218572 
L 209.885111 191.20557 
L 210.019869 191.20557 
L 210.019869 190.192569 
L 210.730276 190.192569 
L 210.730276 189.179567 
L 211.445687 189.179567 
L 211.445687 188.166565 
L 211.69063 188.166565 
L 211.69063 187.153564 
L 211.925074 187.153564 
L 211.925074 186.140562 
L 212.31124 186.140562 
L 212.31124 185.127561 
L 214.540402 185.127561 
L 214.540402 184.114559 
L 215.176071 184.114559 
L 215.176071 183.101557 
L 217.042937 183.101557 
L 217.042937 182.088556 
L 218.819459 182.088556 
L 218.819459 181.075554 
L 221.035914 181.075554 
L 221.035914 180.062553 
L 221.270358 180.062553 
L 221.270358 179.049551 
L 221.431796 179.049551 
L 221.431796 178.036549 
L 221.656524 178.036549 
L 221.656524 177.023548 
L 222.12685 177.023548 
L 222.12685 176.010546 
L 223.534444 176.010546 
L 223.534444 174.997544 
L 223.761953 174.997544 
L 223.761953 173.984543 
L 223.898438 173.984543 
L 223.898438 172.971541 
L 224.489622 172.971541 
L 224.489622 171.95854 
L 224.647855 171.95854 
L 224.697109 169.932536 
L 225.403522 169.932536 
L 225.508047 167.906533 
L 225.710853 167.906533 
L 225.753973 165.88053 
L 225.848131 165.88053 
L 225.948472 163.854527 
L 226.198674 163.854527 
L 226.198674 162.841525 
L 226.388221 162.841525 
L 226.491482 159.80252 
L 226.744027 159.80252 
L 226.744027 158.789519 
L 226.95801 158.789519 
L 226.966342 156.763515 
L 228.907703 156.763515 
L 228.916036 154.737512 
L 231.139091 154.737512 
L 231.139091 153.724511 
L 231.599978 153.724511 
L 231.599978 152.711509 
L 234.198663 152.711509 
L 234.206995 150.685506 
L 235.879035 150.685506 
L 235.879035 149.672504 
L 238.088423 149.672504 
L 238.088423 148.659502 
L 240.227736 148.659502 
L 240.227736 147.646501 
L 240.660129 147.646501 
L 240.705208 145.620498 
L 240.838178 145.620498 
L 240.945261 142.581493 
L 241.366541 142.581493 
L 241.366541 141.568491 
L 242.415013 141.568491 
L 242.458665 139.542488 
L 242.707047 139.542488 
L 242.707047 138.529486 
L 243.039018 138.529486 
L 243.039018 137.516485 
L 243.235024 137.516485 
L 243.235024 136.503483 
L 243.719701 136.503483 
L 243.773615 133.464478 
L 244.204759 133.464478 
L 244.204759 132.451477 
L 244.344447 132.451477 
L 244.434446 128.39947 
L 244.58131 128.39947 
L 244.645184 126.373467 
L 244.895386 126.373467 
L 244.979817 124.347464 
L 245.007951 124.347464 
L 245.007951 123.334462 
L 245.188194 123.334462 
L 245.224318 121.308459 
L 245.766619 121.308459 
L 245.774951 119.282456 
L 247.596602 119.282456 
L 247.596602 118.269454 
L 247.729572 118.269454 
L 247.729572 117.256452 
L 250.126418 117.256452 
L 250.126418 116.243451 
L 251.472704 116.243451 
L 251.491817 114.217447 
L 252.207228 114.217447 
L 252.207228 113.204446 
L 253.558217 113.204446 
L 253.558217 112.191444 
L 254.273629 112.191444 
L 254.273629 111.178443 
L 255.147999 111.178443 
L 255.147999 110.165441 
L 256.688291 110.165441 
L 256.688291 109.152439 
L 257.764784 109.152439 
L 257.764784 108.139438 
L 257.897754 108.139438 
L 257.897754 107.126436 
L 258.095885 107.126436 
L 258.095885 106.113435 
L 258.421685 106.113435 
L 258.421685 105.100433 
L 259.051063 105.100433 
L 259.051063 104.087431 
L 260.031649 104.087431 
L 260.031649 103.07443 
L 260.167779 103.07443 
L 260.167779 102.061428 
L 260.2946 102.061428 
L 260.2946 101.048426 
L 260.608204 101.048426 
L 260.608204 100.035425 
L 260.858406 100.035425 
L 260.869579 98.009422 
L 261.111725 98.009422 
L 261.151214 95.983418 
L 261.481257 95.983418 
L 261.48959 93.957415 
L 261.640886 93.957415 
L 261.73573 91.931412 
L 263.041159 91.931412 
L 263.057825 89.905409 
L 263.227351 89.905409 
L 263.235683 87.879405 
L 263.579685 87.879405 
L 263.676108 84.840401 
L 263.917978 84.840401 
L 263.92631 82.814397 
L 264.133712 82.814397 
L 264.219119 79.775393 
L 264.493282 79.775393 
L 264.493282 78.762391 
L 264.987279 78.762391 
L 264.987279 77.749389 
L 265.942457 77.749389 
L 265.942457 76.736388 
L 267.110067 76.736388 
L 267.110067 75.723386 
L 267.243037 75.723386 
L 267.243037 74.710384 
L 269.639884 74.710384 
L 269.639884 73.697383 
L 270.98617 73.697383 
L 270.98617 72.684381 
L 273.747867 72.684381 
L 273.747867 71.67138 
L 274.505412 71.67138 
L 274.505412 70.658378 
L 275.155461 70.658378 
L 275.155461 69.645376 
L 276.110639 69.645376 
L 276.110639 68.632375 
L 276.728167 68.632375 
L 276.728167 66.606371 
L 277.074744 66.606371 
L 277.074744 65.59337 
L 277.69875 65.59337 
L 277.69875 64.580368 
L 279.004179 64.580368 
L 279.020845 62.554365 
L 279.157409 62.554365 
L 279.157409 61.541363 
L 280.134317 61.541363 
L 280.142649 59.51536 
L 280.758322 59.51536 
L 280.766654 57.489357 
L 282.063751 57.489357 
L 282.088749 53.43735 
L 283.09315 53.43735 
L 283.09315 52.424349 
L 284.500744 52.424349 
L 284.500744 51.411347 
L 285.455922 51.411347 
L 285.455922 50.398346 
L 285.769492 50.398346 
L 285.769492 49.385344 
L 287.835893 49.385344 
L 287.835893 48.372342 
L 290.022055 48.372342 
L 290.022055 47.359341 
L 291.500586 47.359341 
L 291.500586 46.346339 
L 293.631172 46.346339 
L 293.631172 45.333338 
L 298.714858 45.333338 
L 298.714858 44.320336 
L 299.430269 44.320336 
L 299.430269 43.307334 
L 299.545968 43.307334 
L 299.545968 42.294333 
L 300.261379 42.294333 
L 300.261379 41.281331 
L 301.251973 41.281331 
L 301.251973 40.268329 
L 301.98827 40.268329 
L 301.98827 39.255328 
L 304.895253 39.255328 
L 304.895253 38.242326 
L 306.961653 38.242326 
L 306.961653 37.229325 
L 317.110561 37.229325 
L 317.110561 35.203321 
L 318.40643 35.203321 
L 318.40643 34.19032 
L 321.980248 34.19032 
L 321.980248 33.177318 
L 322.69566 33.177318 
L 322.69566 32.164317 
L 330.404449 32.164317 
L 330.404449 31.151315 
L 331.88298 31.151315 
L 331.88298 30.138313 
L 332.992534 30.138313 
L 332.992534 29.125312 
L 333.823644 29.125312 
L 333.823644 28.11231 
L 342.370664 28.11231 
L 342.370664 27.099308 
L 349.451795 27.099308 
L 349.451795 26.086307 
L 352.118294 26.086307 
L 352.118294 25.073305 
L 352.949404 25.073305 
L 352.949404 24.060304 
L 356.257924 24.060304 
L 356.257924 23.047302 
L 358.788824 23.047302 
L 358.788824 22.0343 
L 375.383684 22.0343 
L 375.383684 21.021299 
L 389.834189 21.021299 
L 389.834189 20.008297 
L 453.192 20.008297 
L 453.192 20.008297 
" clip-path="url(#pbff39cf363)" style="fill: none; stroke: #bf00bf; stroke-width: 3; stroke-linecap: square"/>
   </g>
   <g id="line2d_22">
    <path clip-path="url(#pbff39cf363)" style="fill: none; stroke: #bf00bf; stroke-width: 3; stroke-linecap: square"/>
   </g>
   <g id="line2d_23">
    <path d="M 34.16 248.946662 
L 139.178398 248.946662 
L 139.178398 247.933661 
L 145.877279 247.933661 
L 145.877279 246.920659 
L 146.805128 246.920659 
L 146.805128 245.907658 
L 148.768357 245.907658 
L 148.768357 244.894656 
L 149.696206 244.894656 
L 149.706644 242.868653 
L 150.634493 242.868653 
L 150.67199 240.84265 
L 151.141723 240.84265 
L 151.141723 239.829648 
L 151.599839 239.829648 
L 151.599839 238.816646 
L 152.069572 238.816646 
L 152.069572 237.803645 
L 152.722852 237.803645 
L 152.722852 236.790643 
L 153.650702 236.790643 
L 153.650702 235.777641 
L 162.723042 235.777641 
L 162.723042 234.76464 
L 163.133477 234.76464 
L 163.133477 233.751638 
L 163.497483 233.751638 
L 163.497483 232.738637 
L 167.788006 232.738637 
L 167.788006 231.725635 
L 173.198424 231.725635 
L 173.198424 230.712633 
L 179.713739 230.712633 
L 179.713739 229.699632 
L 179.828207 229.699632 
L 179.828207 228.68663 
L 181.68548 228.68663 
L 181.68548 227.673629 
L 182.719285 227.673629 
L 182.719285 226.660627 
L 183.657572 226.660627 
L 183.657572 225.647625 
L 184.622918 225.647625 
L 184.622918 224.634624 
L 185.092651 224.634624 
L 185.092651 223.621622 
L 185.35375 223.621622 
L 185.35375 222.60862 
L 186.673781 222.60862 
L 186.673781 221.595619 
L 189.79621 221.595619 
L 189.79621 220.582617 
L 190.140211 220.582617 
L 190.140211 219.569616 
L 191.185349 219.569616 
L 191.185349 218.556614 
L 191.694199 218.556614 
L 191.694199 217.543612 
L 192.113199 217.543612 
L 192.113199 216.530611 
L 196.743068 216.530611 
L 196.776543 214.504607 
L 197.153503 214.504607 
L 197.153503 213.491606 
L 197.517509 213.491606 
L 197.517509 212.478604 
L 197.888129 212.478604 
L 197.888129 211.465603 
L 198.639616 211.465603 
L 198.639616 210.452601 
L 200.779207 210.452601 
L 200.779207 209.439599 
L 201.717493 209.439599 
L 201.808032 207.413596 
L 202.68284 207.413596 
L 202.68284 206.400595 
L 203.152573 206.400595 
L 203.258382 204.374591 
L 203.668817 204.374591 
L 203.668817 203.36159 
L 204.032823 203.36159 
L 204.032823 202.348588 
L 204.469757 202.348588 
L 204.469757 201.335586 
L 204.733702 201.335586 
L 204.733702 200.322585 
L 206.418631 200.322585 
L 206.418631 199.309583 
L 206.739992 199.309583 
L 206.739992 198.296582 
L 207.087571 198.296582 
L 207.130292 196.270578 
L 208.276314 196.270578 
L 208.323346 194.244575 
L 208.609225 194.244575 
L 208.609225 193.231574 
L 209.387277 193.231574 
L 209.387277 192.218572 
L 210.163214 192.218572 
L 210.163214 191.20557 
L 210.516984 191.20557 
L 210.516984 190.192569 
L 211.404816 190.192569 
L 211.404816 189.179567 
L 212.332666 189.179567 
L 212.332666 188.166565 
L 213.340854 188.166565 
L 213.340854 187.153564 
L 213.751289 187.153564 
L 213.751289 186.140562 
L 214.115295 186.140562 
L 214.115295 185.127561 
L 215.245558 185.127561 
L 215.245558 184.114559 
L 215.705506 184.114559 
L 215.705506 183.101557 
L 218.405818 183.101557 
L 218.405818 182.088556 
L 219.373776 182.088556 
L 219.373776 181.075554 
L 222.18426 181.075554 
L 222.22082 179.049551 
L 222.464794 179.049551 
L 222.464794 178.036549 
L 222.594695 178.036549 
L 222.594695 177.023548 
L 222.958701 177.023548 
L 222.958701 176.010546 
L 223.883153 176.010546 
L 223.883153 174.997544 
L 224.251927 174.997544 
L 224.251927 173.984543 
L 224.678877 173.984543 
L 224.678877 172.971541 
L 224.807555 172.971541 
L 224.887646 170.945538 
L 225.136278 170.945538 
L 225.136278 169.932536 
L 225.599307 169.932536 
L 225.599307 168.919535 
L 225.849416 168.919535 
L 225.88909 166.893532 
L 226.123326 166.893532 
L 226.232865 163.854527 
L 226.605819 163.854527 
L 226.662321 161.828523 
L 226.745329 161.828523 
L 226.745329 160.815522 
L 227.051175 160.815522 
L 227.051175 159.80252 
L 227.249224 159.80252 
L 227.297056 157.776517 
L 227.748482 157.776517 
L 227.748482 156.763515 
L 228.851045 156.763515 
L 228.851045 155.750514 
L 229.30247 155.750514 
L 229.30247 154.737512 
L 231.31521 154.737512 
L 231.31521 153.724511 
L 232.303292 153.724511 
L 232.303292 152.711509 
L 233.933389 152.711509 
L 233.933389 151.698507 
L 234.384815 151.698507 
L 234.384815 150.685506 
L 235.971561 150.685506 
L 235.971561 149.672504 
L 238.489783 149.672504 
L 238.489783 148.659502 
L 240.481774 148.659502 
L 240.481774 147.646501 
L 240.760018 147.646501 
L 240.760018 146.633499 
L 240.957298 146.633499 
L 240.957298 145.620498 
L 241.107597 145.620498 
L 241.146698 143.594494 
L 241.409623 143.594494 
L 241.409623 142.581493 
L 241.668959 142.581493 
L 241.668959 141.568491 
L 242.720942 141.568491 
L 242.814981 139.542488 
L 242.90554 139.542488 
L 242.90554 138.529486 
L 243.196199 138.529486 
L 243.196199 137.516485 
L 243.403563 137.516485 
L 243.407303 135.490481 
L 243.575477 135.490481 
L 243.575477 134.47748 
L 244.026903 134.47748 
L 244.026903 133.464478 
L 244.287138 133.464478 
L 244.318431 131.438475 
L 244.431541 131.438475 
L 244.53701 129.412472 
L 244.668481 129.412472 
L 244.751582 126.373467 
L 244.814968 126.373467 
L 244.814968 125.360465 
L 245.005098 125.360465 
L 245.074833 123.334462 
L 245.131336 123.334462 
L 245.131336 122.32146 
L 245.355745 122.32146 
L 245.43316 120.295457 
L 245.884585 120.295457 
L 245.884585 119.282456 
L 247.275332 119.282456 
L 247.275332 118.269454 
L 247.622911 118.269454 
L 247.622911 117.256452 
L 249.922617 117.256452 
L 249.922617 116.243451 
L 251.052324 116.243451 
L 251.052324 115.230449 
L 251.617048 115.230449 
L 251.617048 114.217447 
L 252.544898 114.217447 
L 252.544898 113.204446 
L 253.15237 113.204446 
L 253.15237 112.191444 
L 254.080219 112.191444 
L 254.080219 111.178443 
L 255.087569 111.178443 
L 255.087569 110.165441 
L 256.48482 110.165441 
L 256.48482 109.152439 
L 257.357803 109.152439 
L 257.357803 108.139438 
L 257.705382 108.139438 
L 257.705382 107.126436 
L 257.903179 107.126436 
L 257.903179 106.113435 
L 258.790594 106.113435 
L 258.827581 104.087431 
L 260.005088 104.087431 
L 260.074254 102.061428 
L 260.388083 102.061428 
L 260.388083 101.048426 
L 260.738132 101.048426 
L 260.738132 100.035425 
L 261.134795 100.035425 
L 261.200987 96.99642 
L 261.374555 96.99642 
L 261.408773 94.970417 
L 261.773635 94.970417 
L 261.872578 91.931412 
L 262.900556 91.931412 
L 263.006262 88.892407 
L 263.220597 88.892407 
L 263.220597 87.879405 
L 263.356312 87.879405 
L 263.457688 84.840401 
L 263.762664 84.840401 
L 263.819166 81.801396 
L 263.930975 81.801396 
L 263.930975 80.788394 
L 264.21409 80.788394 
L 264.270592 78.762391 
L 264.418493 78.762391 
L 264.418493 77.749389 
L 265.342896 77.749389 
L 265.342896 76.736388 
L 266.201209 76.736388 
L 266.201209 75.723386 
L 266.548789 75.723386 
L 266.548789 74.710384 
L 268.848494 74.710384 
L 268.848494 73.697383 
L 269.978201 73.697383 
L 269.978201 72.684381 
L 273.082606 72.684381 
L 273.082606 71.67138 
L 274.432702 71.67138 
L 274.500964 69.645376 
L 275.425367 69.645376 
L 275.425367 68.632375 
L 276.807808 68.632375 
L 276.807808 67.619373 
L 277.444207 67.619373 
L 277.550575 65.59337 
L 277.942229 65.59337 
L 277.942229 64.580368 
L 278.134176 64.580368 
L 278.134176 63.567367 
L 278.970208 63.567367 
L 278.970208 62.554365 
L 279.290249 62.554365 
L 279.290249 61.541363 
L 280.062386 61.541363 
L 280.062386 60.528362 
L 280.513812 60.528362 
L 280.560409 58.502359 
L 281.011834 58.502359 
L 281.011834 57.489357 
L 281.588387 57.489357 
L 281.588387 56.476355 
L 281.908428 56.476355 
L 281.926012 54.450352 
L 282.039813 54.450352 
L 282.039813 53.43735 
L 282.359854 53.43735 
L 282.359854 52.424349 
L 283.344371 52.424349 
L 283.344371 51.411347 
L 284.268773 51.411347 
L 284.268773 50.398346 
L 285.567977 50.398346 
L 285.567977 49.385344 
L 287.103298 49.385344 
L 287.103298 48.372342 
L 288.88133 48.372342 
L 288.88133 47.359341 
L 290.251341 47.359341 
L 290.251341 46.346339 
L 291.651265 46.346339 
L 291.651265 45.333338 
L 292.492624 45.333338 
L 292.492624 44.320336 
L 299.169418 44.320336 
L 299.169418 43.307334 
L 299.966889 43.307334 
L 299.966889 42.294333 
L 300.097267 42.294333 
L 300.097267 41.281331 
L 300.894738 41.281331 
L 300.894738 40.268329 
L 301.959102 40.268329 
L 301.959102 39.255328 
L 303.627898 39.255328 
L 303.627898 38.242326 
L 303.915503 38.242326 
L 303.915503 37.229325 
L 304.65827 37.229325 
L 304.65827 36.216323 
L 305.16322 36.216323 
L 305.16322 35.203321 
L 317.359036 35.203321 
L 317.359036 34.19032 
L 318.54467 34.19032 
L 318.54467 33.177318 
L 318.75896 33.177318 
L 318.75896 32.164317 
L 322.397805 32.164317 
L 322.397805 31.151315 
L 323.325655 31.151315 
L 323.325655 30.138313 
L 329.066797 30.138313 
L 329.066797 29.125312 
L 333.120346 29.125312 
L 333.120346 28.11231 
L 333.917817 28.11231 
L 333.917817 27.099308 
L 345.652365 27.099308 
L 345.652365 26.086307 
L 350.275346 26.086307 
L 350.275346 25.073305 
L 351.180268 25.073305 
L 351.180268 24.060304 
L 351.977739 24.060304 
L 351.977739 23.047302 
L 356.348734 23.047302 
L 356.348734 22.0343 
L 374.408655 22.0343 
L 374.408655 21.021299 
L 377.383041 21.021299 
L 377.383041 20.008297 
L 453.192 20.008297 
L 453.192 20.008297 
" clip-path="url(#pbff39cf363)" style="fill: none; stroke: #ff0000; stroke-width: 3; stroke-linecap: square"/>
   </g>
   <g id="line2d_24">
    <path clip-path="url(#pbff39cf363)" style="fill: none; stroke: #ff0000; stroke-width: 3; stroke-linecap: square"/>
   </g>
   <g id="line2d_25">
    <path d="M 243.676 291.28 
L 243.676 3 
" clip-path="url(#pbff39cf363)" style="fill: none; stroke: #000000; stroke-width: 1.5; stroke-linecap: square"/>
   </g>
   <g id="line2d_26">
    <path d="M 34.16 147.14 
L 453.192 147.14 
" clip-path="url(#pbff39cf363)" style="fill: none; stroke-dasharray: 2,3.3; stroke-dashoffset: 0; stroke: #000000; stroke-width: 2"/>
   </g>
   <g id="patch_3">
    <path d="M 34.16 291.28 
L 34.16 3 
" style="fill: none; stroke: #000000; stroke-width: 0.8; stroke-linejoin: miter; stroke-linecap: square"/>
   </g>
   <g id="patch_4">
    <path d="M 453.192 291.28 
L 453.192 3 
" style="fill: none; stroke: #000000; stroke-width: 0.8; stroke-linejoin: miter; stroke-linecap: square"/>
   </g>
   <g id="patch_5">
    <path d="M 34.16 291.28 
L 453.192 291.28 
" style="fill: none; stroke: #000000; stroke-width: 0.8; stroke-linejoin: miter; stroke-linecap: square"/>
   </g>
   <g id="patch_6">
    <path d="M 34.16 3 
L 453.192 3 
" style="fill: none; stroke: #000000; stroke-width: 0.8; stroke-linejoin: miter; stroke-linecap: square"/>
   </g>
   <g id="text_6">
    <!-- f20-f24,5-D -->
    <g transform="translate(330.91761 285.5144)scale(0.2 -0.2)">
     <defs>
      <path id="DejaVuSans-34" d="M 2419 4116 
L 825 1625 
L 2419 1625 
L 2419 4116 
z
M 2253 4666 
L 3047 4666 
L 3047 1625 
L 3713 1625 
L 3713 1100 
L 3047 1100 
L 3047 0 
L 2419 0 
L 2419 1100 
L 313 1100 
L 313 1709 
L 2253 4666 
z
" transform="scale(0.015625)"/>
      <path id="DejaVuSans-2c" d="M 750 794 
L 1409 794 
L 1409 256 
L 897 -744 
L 494 -744 
L 750 256 
L 750 794 
z
" transform="scale(0.015625)"/>
      <path id="DejaVuSans-35" d="M 691 4666 
L 3169 4666 
L 3169 4134 
L 1269 4134 
L 1269 2991 
Q 1406 3038 1543 3061 
Q 1681 3084 1819 3084 
Q 2600 3084 3056 2656 
Q 3513 2228 3513 1497 
Q 3513 744 3044 326 
Q 2575 -91 1722 -91 
Q 1428 -91 1123 -41 
Q 819 9 494 109 
L 494 744 
Q 775 591 1075 516 
Q 1375 441 1709 441 
Q 2250 441 2565 725 
Q 2881 1009 2881 1497 
Q 2881 1984 2565 2268 
Q 2250 2553 1709 2553 
Q 1456 2553 1204 2497 
Q 953 2441 691 2322 
L 691 4666 
z
" transform="scale(0.015625)"/>
      <path id="DejaVuSans-44" d="M 1259 4147 
L 1259 519 
L 2022 519 
Q 2988 519 3436 956 
Q 3884 1394 3884 2338 
Q 3884 3275 3436 3711 
Q 2988 4147 2022 4147 
L 1259 4147 
z
M 628 4666 
L 1925 4666 
Q 3281 4666 3915 4102 
Q 4550 3538 4550 2338 
Q 4550 1131 3912 565 
Q 3275 0 1925 0 
L 628 0 
L 628 4666 
z
" transform="scale(0.015625)"/>
     </defs>
     <use xlink:href="#DejaVuSans-66"/>
     <use xlink:href="#DejaVuSans-32" x="35.205078"/>
     <use xlink:href="#DejaVuSans-30" x="98.828125"/>
     <use xlink:href="#DejaVuSans-2d" x="162.451172"/>
     <use xlink:href="#DejaVuSans-66" x="198.535156"/>
     <use xlink:href="#DejaVuSans-32" x="233.740234"/>
     <use xlink:href="#DejaVuSans-34" x="297.363281"/>
     <use xlink:href="#DejaVuSans-2c" x="360.986328"/>
     <use xlink:href="#DejaVuSans-35" x="392.773438"/>
     <use xlink:href="#DejaVuSans-2d" x="456.396484"/>
     <use xlink:href="#DejaVuSans-44" x="492.480469"/>
    </g>
   </g>
   <g id="text_7">
    <!-- v2.6.1.158 -->
    <g style="fill: #808080" transform="translate(216.861937 286.317512)scale(0.1 -0.1)">
     <defs>
      <path id="DejaVuSans-2e" d="M 684 794 
L 1344 794 
L 1344 0 
L 684 0 
L 684 794 
z
" transform="scale(0.015625)"/>
      <path id="DejaVuSans-36" d="M 2113 2584 
Q 1688 2584 1439 2293 
Q 1191 2003 1191 1497 
Q 1191 994 1439 701 
Q 1688 409 2113 409 
Q 2538 409 2786 701 
Q 3034 994 3034 1497 
Q 3034 2003 2786 2293 
Q 2538 2584 2113 2584 
z
M 3366 4563 
L 3366 3988 
Q 3128 4100 2886 4159 
Q 2644 4219 2406 4219 
Q 1781 4219 1451 3797 
Q 1122 3375 1075 2522 
Q 1259 2794 1537 2939 
Q 1816 3084 2150 3084 
Q 2853 3084 3261 2657 
Q 3669 2231 3669 1497 
Q 3669 778 3244 343 
Q 2819 -91 2113 -91 
Q 1303 -91 875 529 
Q 447 1150 447 2328 
Q 447 3434 972 4092 
Q 1497 4750 2381 4750 
Q 2619 4750 2861 4703 
Q 3103 4656 3366 4563 
z
" transform="scale(0.015625)"/>
      <path id="DejaVuSans-38" d="M 2034 2216 
Q 1584 2216 1326 1975 
Q 1069 1734 1069 1313 
Q 1069 891 1326 650 
Q 1584 409 2034 409 
Q 2484 409 2743 651 
Q 3003 894 3003 1313 
Q 3003 1734 2745 1975 
Q 2488 2216 2034 2216 
z
M 1403 2484 
Q 997 2584 770 2862 
Q 544 3141 544 3541 
Q 544 4100 942 4425 
Q 1341 4750 2034 4750 
Q 2731 4750 3128 4425 
Q 3525 4100 3525 3541 
Q 3525 3141 3298 2862 
Q 3072 2584 2669 2484 
Q 3125 2378 3379 2068 
Q 3634 1759 3634 1313 
Q 3634 634 3220 271 
Q 2806 -91 2034 -91 
Q 1263 -91 848 271 
Q 434 634 434 1313 
Q 434 1759 690 2068 
Q 947 2378 1403 2484 
z
M 1172 3481 
Q 1172 3119 1398 2916 
Q 1625 2713 2034 2713 
Q 2441 2713 2670 2916 
Q 2900 3119 2900 3481 
Q 2900 3844 2670 4047 
Q 2441 4250 2034 4250 
Q 1625 4250 1398 4047 
Q 1172 3844 1172 3481 
z
" transform="scale(0.015625)"/>
     </defs>
     <use xlink:href="#DejaVuSans-76"/>
     <use xlink:href="#DejaVuSans-32" x="59.179688"/>
     <use xlink:href="#DejaVuSans-2e" x="122.802734"/>
     <use xlink:href="#DejaVuSans-36" x="154.589844"/>
     <use xlink:href="#DejaVuSans-2e" x="218.212891"/>
     <use xlink:href="#DejaVuSans-31" x="250"/>
     <use xlink:href="#DejaVuSans-2e" x="313.623047"/>
     <use xlink:href="#DejaVuSans-31" x="345.410156"/>
     <use xlink:href="#DejaVuSans-35" x="409.033203"/>
     <use xlink:href="#DejaVuSans-38" x="472.65625"/>
    </g>
   </g>
   <g id="legend_1">
    <g id="patch_7">
     <path d="M 48.16 136.425 
L 177.381875 136.425 
Q 181.381875 136.425 181.381875 132.425 
L 181.381875 17 
Q 181.381875 13 177.381875 13 
L 48.16 13 
Q 44.16 13 44.16 17 
L 44.16 132.425 
Q 44.16 136.425 48.16 136.425 
z
" style="fill: #ffffff; opacity: 0.2; stroke: #cccccc; stroke-linejoin: miter"/>
    </g>
    <g id="line2d_27">
     <path d="M 52.16 29.196875 
L 72.16 29.196875 
L 92.16 29.196875 
" style="fill: none; stroke: #000000; stroke-width: 3; stroke-linecap: square"/>
    </g>
    <g id="text_8">
     <!-- 1: 5/5 -->
     <g transform="translate(108.16 36.196875)scale(0.2 -0.2)">
      <defs>
       <path id="DejaVuSans-3a" d="M 750 794 
L 1409 794 
L 1409 0 
L 750 0 
L 750 794 
z
M 750 3309 
L 1409 3309 
L 1409 2516 
L 750 2516 
L 750 3309 
z
" transform="scale(0.015625)"/>
       <path id="DejaVuSans-2f" d="M 1625 4666 
L 2156 4666 
L 531 -594 
L 0 -594 
L 1625 4666 
z
" transform="scale(0.015625)"/>
      </defs>
      <use xlink:href="#DejaVuSans-31"/>
      <use xlink:href="#DejaVuSans-3a" x="63.623047"/>
      <use xlink:href="#DejaVuSans-20" x="97.314453"/>
      <use xlink:href="#DejaVuSans-35" x="129.101562"/>
      <use xlink:href="#DejaVuSans-2f" x="192.724609"/>
      <use xlink:href="#DejaVuSans-35" x="226.416016"/>
     </g>
    </g>
    <g id="line2d_28">
     <path d="M 52.16 58.553125 
L 72.16 58.553125 
L 92.16 58.553125 
" style="fill: none; stroke: #00bfbf; stroke-width: 3; stroke-linecap: square"/>
    </g>
    <g id="text_9">
     <!-- -1: 5/5 -->
     <g transform="translate(108.16 65.553125)scale(0.2 -0.2)">
      <use xlink:href="#DejaVuSans-2d"/>
      <use xlink:href="#DejaVuSans-31" x="36.083984"/>
      <use xlink:href="#DejaVuSans-3a" x="99.707031"/>
      <use xlink:href="#DejaVuSans-20" x="133.398438"/>
      <use xlink:href="#DejaVuSans-35" x="165.185547"/>
      <use xlink:href="#DejaVuSans-2f" x="228.808594"/>
      <use xlink:href="#DejaVuSans-35" x="262.5"/>
     </g>
    </g>
    <g id="line2d_29">
     <path d="M 52.16 87.909375 
L 72.16 87.909375 
L 92.16 87.909375 
" style="fill: none; stroke: #bf00bf; stroke-width: 3; stroke-linecap: square"/>
    </g>
    <g id="text_10">
     <!-- -4: 4/4 -->
     <g transform="translate(108.16 94.909375)scale(0.2 -0.2)">
      <use xlink:href="#DejaVuSans-2d"/>
      <use xlink:href="#DejaVuSans-34" x="36.083984"/>
      <use xlink:href="#DejaVuSans-3a" x="99.707031"/>
      <use xlink:href="#DejaVuSans-20" x="133.398438"/>
      <use xlink:href="#DejaVuSans-34" x="165.185547"/>
      <use xlink:href="#DejaVuSans-2f" x="228.808594"/>
      <use xlink:href="#DejaVuSans-34" x="262.5"/>
     </g>
    </g>
    <g id="line2d_30">
     <path d="M 52.16 117.265625 
L 72.16 117.265625 
L 92.16 117.265625 
" style="fill: none; stroke: #ff0000; stroke-width: 3; stroke-linecap: square"/>
    </g>
    <g id="text_11">
     <!-- -8: 4/4 -->
     <g transform="translate(108.16 124.265625)scale(0.2 -0.2)">
      <use xlink:href="#DejaVuSans-2d"/>
      <use xlink:href="#DejaVuSans-38" x="36.083984"/>
      <use xlink:href="#DejaVuSans-3a" x="99.707031"/>
      <use xlink:href="#DejaVuSans-20" x="133.398438"/>
      <use xlink:href="#DejaVuSans-34" x="165.185547"/>
      <use xlink:href="#DejaVuSans-2f" x="228.808594"/>
      <use xlink:href="#DejaVuSans-34" x="262.5"/>
     </g>
    </g>
   </g>
  </g>
 </g>
 <defs>
  <clipPath id="pbff39cf363">
   <rect x="34.16" y="3" width="419.032" height="288.28"/>
  </clipPath>
 </defs>
</svg>
