<?xml version="1.0" encoding="utf-8" standalone="no"?>
<!DOCTYPE svg PUBLIC "-//W3C//DTD SVG 1.1//EN"
  "http://www.w3.org/Graphics/SVG/1.1/DTD/svg11.dtd">
<svg xmlns:xlink="http://www.w3.org/1999/xlink" width="460.8pt" height="345.6pt" viewBox="0 0 460.8 345.6" xmlns="http://www.w3.org/2000/svg" version="1.1">
 <metadata>
  <rdf:RDF xmlns:dc="http://purl.org/dc/elements/1.1/" xmlns:cc="http://creativecommons.org/ns#" xmlns:rdf="http://www.w3.org/1999/02/22-rdf-syntax-ns#">
   <cc:Work>
    <dc:type rdf:resource="http://purl.org/dc/dcmitype/StillImage"/>
    <dc:date>2023-04-03T10:23:05.281031</dc:date>
    <dc:format>image/svg+xml</dc:format>
    <dc:creator>
     <cc:Agent>
      <dc:title>Matplotlib v3.5.2, https://matplotlib.org/</dc:title>
     </cc:Agent>
    </dc:creator>
   </cc:Work>
  </rdf:RDF>
 </metadata>
 <defs>
  <style type="text/css">*{stroke-linejoin: round; stroke-linecap: butt}</style>
 </defs>
 <g id="figure_1">
  <g id="patch_1">
   <path d="M 0 345.6 
L 460.8 345.6 
L 460.8 0 
L 0 0 
z
" style="fill: #ffffff"/>
  </g>
  <g id="axes_1">
   <g id="patch_2">
    <path d="M 34.16 291.28 
L 453.192 291.28 
L 453.192 3 
L 34.16 3 
z
" style="fill: #ffffff"/>
   </g>
   <g id="matplotlib.axis_1">
    <g id="xtick_1">
     <g id="line2d_1">
      <path d="M 139.599314 291.28 
L 139.599314 3 
" clip-path="url(#p79613d9d72)" style="fill: none; stroke: #b0b0b0; stroke-width: 0.8; stroke-linecap: square"/>
     </g>
     <g id="line2d_2">
      <defs>
       <path id="m562a48f4f5" d="M 0 0 
L 0 3.5 
" style="stroke: #000000; stroke-width: 0.8"/>
      </defs>
      <g>
       <use xlink:href="#m562a48f4f5" x="139.599314" y="291.28" style="stroke: #000000; stroke-width: 0.8"/>
      </g>
     </g>
     <g id="text_1">
      <!-- -1 -->
      <g transform="translate(129.629001 313.476875)scale(0.2 -0.2)">
       <defs>
        <path id="DejaVuSans-2d" d="M 313 2009 
L 1997 2009 
L 1997 1497 
L 313 1497 
L 313 2009 
z
" transform="scale(0.015625)"/>
        <path id="DejaVuSans-31" d="M 794 531 
L 1825 531 
L 1825 4091 
L 703 3866 
L 703 4441 
L 1819 4666 
L 2450 4666 
L 2450 531 
L 3481 531 
L 3481 0 
L 794 0 
L 794 531 
z
" transform="scale(0.015625)"/>
       </defs>
       <use xlink:href="#DejaVuSans-2d"/>
       <use xlink:href="#DejaVuSans-31" x="36.083984"/>
      </g>
     </g>
    </g>
    <g id="xtick_2">
     <g id="line2d_3">
      <path d="M 347.752686 291.28 
L 347.752686 3 
" clip-path="url(#p79613d9d72)" style="fill: none; stroke: #b0b0b0; stroke-width: 0.8; stroke-linecap: square"/>
     </g>
     <g id="line2d_4">
      <g>
       <use xlink:href="#m562a48f4f5" x="347.752686" y="291.28" style="stroke: #000000; stroke-width: 0.8"/>
      </g>
     </g>
     <g id="text_2">
      <!-- 1 -->
      <g transform="translate(341.390186 313.476875)scale(0.2 -0.2)">
       <use xlink:href="#DejaVuSans-31"/>
      </g>
     </g>
    </g>
    <g id="xtick_3">
     <g id="line2d_5">
      <defs>
       <path id="m02c3697dfb" d="M 0 0 
L 0 2 
" style="stroke: #000000; stroke-width: 0.6"/>
      </defs>
      <g>
       <use xlink:href="#m02c3697dfb" x="66.852832" y="291.28" style="stroke: #000000; stroke-width: 0.6"/>
      </g>
     </g>
    </g>
    <g id="xtick_4">
     <g id="line2d_6">
      <g>
       <use xlink:href="#m02c3697dfb" x="85.179826" y="291.28" style="stroke: #000000; stroke-width: 0.6"/>
      </g>
     </g>
    </g>
    <g id="xtick_5">
     <g id="line2d_7">
      <g>
       <use xlink:href="#m02c3697dfb" x="98.183036" y="291.28" style="stroke: #000000; stroke-width: 0.6"/>
      </g>
     </g>
    </g>
    <g id="xtick_6">
     <g id="line2d_8">
      <g>
       <use xlink:href="#m02c3697dfb" x="108.269109" y="291.28" style="stroke: #000000; stroke-width: 0.6"/>
      </g>
     </g>
    </g>
    <g id="xtick_7">
     <g id="line2d_9">
      <g>
       <use xlink:href="#m02c3697dfb" x="116.510031" y="291.28" style="stroke: #000000; stroke-width: 0.6"/>
      </g>
     </g>
    </g>
    <g id="xtick_8">
     <g id="line2d_10">
      <g>
       <use xlink:href="#m02c3697dfb" x="123.477631" y="291.28" style="stroke: #000000; stroke-width: 0.6"/>
      </g>
     </g>
    </g>
    <g id="xtick_9">
     <g id="line2d_11">
      <g>
       <use xlink:href="#m02c3697dfb" x="129.513241" y="291.28" style="stroke: #000000; stroke-width: 0.6"/>
      </g>
     </g>
    </g>
    <g id="xtick_10">
     <g id="line2d_12">
      <g>
       <use xlink:href="#m02c3697dfb" x="134.837026" y="291.28" style="stroke: #000000; stroke-width: 0.6"/>
      </g>
     </g>
    </g>
    <g id="xtick_11">
     <g id="line2d_13">
      <g>
       <use xlink:href="#m02c3697dfb" x="170.929518" y="291.28" style="stroke: #000000; stroke-width: 0.6"/>
      </g>
     </g>
    </g>
    <g id="xtick_12">
     <g id="line2d_14">
      <g>
       <use xlink:href="#m02c3697dfb" x="189.256513" y="291.28" style="stroke: #000000; stroke-width: 0.6"/>
      </g>
     </g>
    </g>
    <g id="xtick_13">
     <g id="line2d_15">
      <g>
       <use xlink:href="#m02c3697dfb" x="202.259723" y="291.28" style="stroke: #000000; stroke-width: 0.6"/>
      </g>
     </g>
    </g>
    <g id="xtick_14">
     <g id="line2d_16">
      <g>
       <use xlink:href="#m02c3697dfb" x="212.345796" y="291.28" style="stroke: #000000; stroke-width: 0.6"/>
      </g>
     </g>
    </g>
    <g id="xtick_15">
     <g id="line2d_17">
      <g>
       <use xlink:href="#m02c3697dfb" x="220.586717" y="291.28" style="stroke: #000000; stroke-width: 0.6"/>
      </g>
     </g>
    </g>
    <g id="xtick_16">
     <g id="line2d_18">
      <g>
       <use xlink:href="#m02c3697dfb" x="227.554317" y="291.28" style="stroke: #000000; stroke-width: 0.6"/>
      </g>
     </g>
    </g>
    <g id="xtick_17">
     <g id="line2d_19">
      <g>
       <use xlink:href="#m02c3697dfb" x="233.589927" y="291.28" style="stroke: #000000; stroke-width: 0.6"/>
      </g>
     </g>
    </g>
    <g id="xtick_18">
     <g id="line2d_20">
      <g>
       <use xlink:href="#m02c3697dfb" x="238.913712" y="291.28" style="stroke: #000000; stroke-width: 0.6"/>
      </g>
     </g>
    </g>
    <g id="xtick_19">
     <g id="line2d_21">
      <g>
       <use xlink:href="#m02c3697dfb" x="275.006204" y="291.28" style="stroke: #000000; stroke-width: 0.6"/>
      </g>
     </g>
    </g>
    <g id="xtick_20">
     <g id="line2d_22">
      <g>
       <use xlink:href="#m02c3697dfb" x="293.333199" y="291.28" style="stroke: #000000; stroke-width: 0.6"/>
      </g>
     </g>
    </g>
    <g id="xtick_21">
     <g id="line2d_23">
      <g>
       <use xlink:href="#m02c3697dfb" x="306.336409" y="291.28" style="stroke: #000000; stroke-width: 0.6"/>
      </g>
     </g>
    </g>
    <g id="xtick_22">
     <g id="line2d_24">
      <g>
       <use xlink:href="#m02c3697dfb" x="316.422482" y="291.28" style="stroke: #000000; stroke-width: 0.6"/>
      </g>
     </g>
    </g>
    <g id="xtick_23">
     <g id="line2d_25">
      <g>
       <use xlink:href="#m02c3697dfb" x="324.663404" y="291.28" style="stroke: #000000; stroke-width: 0.6"/>
      </g>
     </g>
    </g>
    <g id="xtick_24">
     <g id="line2d_26">
      <g>
       <use xlink:href="#m02c3697dfb" x="331.631004" y="291.28" style="stroke: #000000; stroke-width: 0.6"/>
      </g>
     </g>
    </g>
    <g id="xtick_25">
     <g id="line2d_27">
      <g>
       <use xlink:href="#m02c3697dfb" x="337.666613" y="291.28" style="stroke: #000000; stroke-width: 0.6"/>
      </g>
     </g>
    </g>
    <g id="xtick_26">
     <g id="line2d_28">
      <g>
       <use xlink:href="#m02c3697dfb" x="342.990398" y="291.28" style="stroke: #000000; stroke-width: 0.6"/>
      </g>
     </g>
    </g>
    <g id="xtick_27">
     <g id="line2d_29">
      <g>
       <use xlink:href="#m02c3697dfb" x="379.082891" y="291.28" style="stroke: #000000; stroke-width: 0.6"/>
      </g>
     </g>
    </g>
    <g id="xtick_28">
     <g id="line2d_30">
      <g>
       <use xlink:href="#m02c3697dfb" x="397.409886" y="291.28" style="stroke: #000000; stroke-width: 0.6"/>
      </g>
     </g>
    </g>
    <g id="xtick_29">
     <g id="line2d_31">
      <g>
       <use xlink:href="#m02c3697dfb" x="410.413095" y="291.28" style="stroke: #000000; stroke-width: 0.6"/>
      </g>
     </g>
    </g>
    <g id="xtick_30">
     <g id="line2d_32">
      <g>
       <use xlink:href="#m02c3697dfb" x="420.499168" y="291.28" style="stroke: #000000; stroke-width: 0.6"/>
      </g>
     </g>
    </g>
    <g id="xtick_31">
     <g id="line2d_33">
      <g>
       <use xlink:href="#m02c3697dfb" x="428.74009" y="291.28" style="stroke: #000000; stroke-width: 0.6"/>
      </g>
     </g>
    </g>
    <g id="xtick_32">
     <g id="line2d_34">
      <g>
       <use xlink:href="#m02c3697dfb" x="435.70769" y="291.28" style="stroke: #000000; stroke-width: 0.6"/>
      </g>
     </g>
    </g>
    <g id="xtick_33">
     <g id="line2d_35">
      <g>
       <use xlink:href="#m02c3697dfb" x="441.7433" y="291.28" style="stroke: #000000; stroke-width: 0.6"/>
      </g>
     </g>
    </g>
    <g id="xtick_34">
     <g id="line2d_36">
      <g>
       <use xlink:href="#m02c3697dfb" x="447.067085" y="291.28" style="stroke: #000000; stroke-width: 0.6"/>
      </g>
     </g>
    </g>
    <g id="text_3">
     <!-- log10 of FEvals ratio -->
     <g transform="translate(141.371312 336.833125)scale(0.2 -0.2)">
      <defs>
       <path id="DejaVuSans-6c" d="M 603 4863 
L 1178 4863 
L 1178 0 
L 603 0 
L 603 4863 
z
" transform="scale(0.015625)"/>
       <path id="DejaVuSans-6f" d="M 1959 3097 
Q 1497 3097 1228 2736 
Q 959 2375 959 1747 
Q 959 1119 1226 758 
Q 1494 397 1959 397 
Q 2419 397 2687 759 
Q 2956 1122 2956 1747 
Q 2956 2369 2687 2733 
Q 2419 3097 1959 3097 
z
M 1959 3584 
Q 2709 3584 3137 3096 
Q 3566 2609 3566 1747 
Q 3566 888 3137 398 
Q 2709 -91 1959 -91 
Q 1206 -91 779 398 
Q 353 888 353 1747 
Q 353 2609 779 3096 
Q 1206 3584 1959 3584 
z
" transform="scale(0.015625)"/>
       <path id="DejaVuSans-67" d="M 2906 1791 
Q 2906 2416 2648 2759 
Q 2391 3103 1925 3103 
Q 1463 3103 1205 2759 
Q 947 2416 947 1791 
Q 947 1169 1205 825 
Q 1463 481 1925 481 
Q 2391 481 2648 825 
Q 2906 1169 2906 1791 
z
M 3481 434 
Q 3481 -459 3084 -895 
Q 2688 -1331 1869 -1331 
Q 1566 -1331 1297 -1286 
Q 1028 -1241 775 -1147 
L 775 -588 
Q 1028 -725 1275 -790 
Q 1522 -856 1778 -856 
Q 2344 -856 2625 -561 
Q 2906 -266 2906 331 
L 2906 616 
Q 2728 306 2450 153 
Q 2172 0 1784 0 
Q 1141 0 747 490 
Q 353 981 353 1791 
Q 353 2603 747 3093 
Q 1141 3584 1784 3584 
Q 2172 3584 2450 3431 
Q 2728 3278 2906 2969 
L 2906 3500 
L 3481 3500 
L 3481 434 
z
" transform="scale(0.015625)"/>
       <path id="DejaVuSans-30" d="M 2034 4250 
Q 1547 4250 1301 3770 
Q 1056 3291 1056 2328 
Q 1056 1369 1301 889 
Q 1547 409 2034 409 
Q 2525 409 2770 889 
Q 3016 1369 3016 2328 
Q 3016 3291 2770 3770 
Q 2525 4250 2034 4250 
z
M 2034 4750 
Q 2819 4750 3233 4129 
Q 3647 3509 3647 2328 
Q 3647 1150 3233 529 
Q 2819 -91 2034 -91 
Q 1250 -91 836 529 
Q 422 1150 422 2328 
Q 422 3509 836 4129 
Q 1250 4750 2034 4750 
z
" transform="scale(0.015625)"/>
       <path id="DejaVuSans-20" transform="scale(0.015625)"/>
       <path id="DejaVuSans-66" d="M 2375 4863 
L 2375 4384 
L 1825 4384 
Q 1516 4384 1395 4259 
Q 1275 4134 1275 3809 
L 1275 3500 
L 2222 3500 
L 2222 3053 
L 1275 3053 
L 1275 0 
L 697 0 
L 697 3053 
L 147 3053 
L 147 3500 
L 697 3500 
L 697 3744 
Q 697 4328 969 4595 
Q 1241 4863 1831 4863 
L 2375 4863 
z
" transform="scale(0.015625)"/>
       <path id="DejaVuSans-46" d="M 628 4666 
L 3309 4666 
L 3309 4134 
L 1259 4134 
L 1259 2759 
L 3109 2759 
L 3109 2228 
L 1259 2228 
L 1259 0 
L 628 0 
L 628 4666 
z
" transform="scale(0.015625)"/>
       <path id="DejaVuSans-45" d="M 628 4666 
L 3578 4666 
L 3578 4134 
L 1259 4134 
L 1259 2753 
L 3481 2753 
L 3481 2222 
L 1259 2222 
L 1259 531 
L 3634 531 
L 3634 0 
L 628 0 
L 628 4666 
z
" transform="scale(0.015625)"/>
       <path id="DejaVuSans-76" d="M 191 3500 
L 800 3500 
L 1894 563 
L 2988 3500 
L 3597 3500 
L 2284 0 
L 1503 0 
L 191 3500 
z
" transform="scale(0.015625)"/>
       <path id="DejaVuSans-61" d="M 2194 1759 
Q 1497 1759 1228 1600 
Q 959 1441 959 1056 
Q 959 750 1161 570 
Q 1363 391 1709 391 
Q 2188 391 2477 730 
Q 2766 1069 2766 1631 
L 2766 1759 
L 2194 1759 
z
M 3341 1997 
L 3341 0 
L 2766 0 
L 2766 531 
Q 2569 213 2275 61 
Q 1981 -91 1556 -91 
Q 1019 -91 701 211 
Q 384 513 384 1019 
Q 384 1609 779 1909 
Q 1175 2209 1959 2209 
L 2766 2209 
L 2766 2266 
Q 2766 2663 2505 2880 
Q 2244 3097 1772 3097 
Q 1472 3097 1187 3025 
Q 903 2953 641 2809 
L 641 3341 
Q 956 3463 1253 3523 
Q 1550 3584 1831 3584 
Q 2591 3584 2966 3190 
Q 3341 2797 3341 1997 
z
" transform="scale(0.015625)"/>
       <path id="DejaVuSans-73" d="M 2834 3397 
L 2834 2853 
Q 2591 2978 2328 3040 
Q 2066 3103 1784 3103 
Q 1356 3103 1142 2972 
Q 928 2841 928 2578 
Q 928 2378 1081 2264 
Q 1234 2150 1697 2047 
L 1894 2003 
Q 2506 1872 2764 1633 
Q 3022 1394 3022 966 
Q 3022 478 2636 193 
Q 2250 -91 1575 -91 
Q 1294 -91 989 -36 
Q 684 19 347 128 
L 347 722 
Q 666 556 975 473 
Q 1284 391 1588 391 
Q 1994 391 2212 530 
Q 2431 669 2431 922 
Q 2431 1156 2273 1281 
Q 2116 1406 1581 1522 
L 1381 1569 
Q 847 1681 609 1914 
Q 372 2147 372 2553 
Q 372 3047 722 3315 
Q 1072 3584 1716 3584 
Q 2034 3584 2315 3537 
Q 2597 3491 2834 3397 
z
" transform="scale(0.015625)"/>
       <path id="DejaVuSans-72" d="M 2631 2963 
Q 2534 3019 2420 3045 
Q 2306 3072 2169 3072 
Q 1681 3072 1420 2755 
Q 1159 2438 1159 1844 
L 1159 0 
L 581 0 
L 581 3500 
L 1159 3500 
L 1159 2956 
Q 1341 3275 1631 3429 
Q 1922 3584 2338 3584 
Q 2397 3584 2469 3576 
Q 2541 3569 2628 3553 
L 2631 2963 
z
" transform="scale(0.015625)"/>
       <path id="DejaVuSans-74" d="M 1172 4494 
L 1172 3500 
L 2356 3500 
L 2356 3053 
L 1172 3053 
L 1172 1153 
Q 1172 725 1289 603 
Q 1406 481 1766 481 
L 2356 481 
L 2356 0 
L 1766 0 
Q 1100 0 847 248 
Q 594 497 594 1153 
L 594 3053 
L 172 3053 
L 172 3500 
L 594 3500 
L 594 4494 
L 1172 4494 
z
" transform="scale(0.015625)"/>
       <path id="DejaVuSans-69" d="M 603 3500 
L 1178 3500 
L 1178 0 
L 603 0 
L 603 3500 
z
M 603 4863 
L 1178 4863 
L 1178 4134 
L 603 4134 
L 603 4863 
z
" transform="scale(0.015625)"/>
      </defs>
      <use xlink:href="#DejaVuSans-6c"/>
      <use xlink:href="#DejaVuSans-6f" x="27.783203"/>
      <use xlink:href="#DejaVuSans-67" x="88.964844"/>
      <use xlink:href="#DejaVuSans-31" x="152.441406"/>
      <use xlink:href="#DejaVuSans-30" x="216.064453"/>
      <use xlink:href="#DejaVuSans-20" x="279.6875"/>
      <use xlink:href="#DejaVuSans-6f" x="311.474609"/>
      <use xlink:href="#DejaVuSans-66" x="372.65625"/>
      <use xlink:href="#DejaVuSans-20" x="407.861328"/>
      <use xlink:href="#DejaVuSans-46" x="439.648438"/>
      <use xlink:href="#DejaVuSans-45" x="497.167969"/>
      <use xlink:href="#DejaVuSans-76" x="560.351562"/>
      <use xlink:href="#DejaVuSans-61" x="619.53125"/>
      <use xlink:href="#DejaVuSans-6c" x="680.810547"/>
      <use xlink:href="#DejaVuSans-73" x="708.59375"/>
      <use xlink:href="#DejaVuSans-20" x="760.693359"/>
      <use xlink:href="#DejaVuSans-72" x="792.480469"/>
      <use xlink:href="#DejaVuSans-61" x="833.59375"/>
      <use xlink:href="#DejaVuSans-74" x="894.873047"/>
      <use xlink:href="#DejaVuSans-69" x="934.082031"/>
      <use xlink:href="#DejaVuSans-6f" x="961.865234"/>
     </g>
    </g>
   </g>
   <g id="matplotlib.axis_2">
    <g id="ytick_1">
     <g id="line2d_37">
      <path d="M 34.16 288.453725 
L 453.192 288.453725 
" clip-path="url(#p79613d9d72)" style="fill: none; stroke: #b0b0b0; stroke-width: 0.8; stroke-linecap: square"/>
     </g>
     <g id="line2d_38">
      <defs>
       <path id="m52625e96ff" d="M 0 0 
L -3.5 0 
" style="stroke: #000000; stroke-width: 0.8"/>
      </defs>
      <g>
       <use xlink:href="#m52625e96ff" x="34.16" y="288.453725" style="stroke: #000000; stroke-width: 0.8"/>
      </g>
     </g>
    </g>
    <g id="ytick_2">
     <g id="line2d_39">
      <path d="M 34.16 217.796863 
L 453.192 217.796863 
" clip-path="url(#p79613d9d72)" style="fill: none; stroke: #b0b0b0; stroke-width: 0.8; stroke-linecap: square"/>
     </g>
     <g id="line2d_40">
      <g>
       <use xlink:href="#m52625e96ff" x="34.16" y="217.796863" style="stroke: #000000; stroke-width: 0.8"/>
      </g>
     </g>
    </g>
    <g id="ytick_3">
     <g id="line2d_41">
      <path d="M 34.16 147.14 
L 453.192 147.14 
" clip-path="url(#p79613d9d72)" style="fill: none; stroke: #b0b0b0; stroke-width: 0.8; stroke-linecap: square"/>
     </g>
     <g id="line2d_42">
      <g>
       <use xlink:href="#m52625e96ff" x="34.16" y="147.14" style="stroke: #000000; stroke-width: 0.8"/>
      </g>
     </g>
    </g>
    <g id="ytick_4">
     <g id="line2d_43">
      <path d="M 34.16 76.483137 
L 453.192 76.483137 
" clip-path="url(#p79613d9d72)" style="fill: none; stroke: #b0b0b0; stroke-width: 0.8; stroke-linecap: square"/>
     </g>
     <g id="line2d_44">
      <g>
       <use xlink:href="#m52625e96ff" x="34.16" y="76.483137" style="stroke: #000000; stroke-width: 0.8"/>
      </g>
     </g>
    </g>
    <g id="ytick_5">
     <g id="line2d_45">
      <path d="M 34.16 5.826275 
L 453.192 5.826275 
" clip-path="url(#p79613d9d72)" style="fill: none; stroke: #b0b0b0; stroke-width: 0.8; stroke-linecap: square"/>
     </g>
     <g id="line2d_46">
      <g>
       <use xlink:href="#m52625e96ff" x="34.16" y="5.826275" style="stroke: #000000; stroke-width: 0.8"/>
      </g>
     </g>
    </g>
    <g id="text_4">
     <!-- proportion of trials -->
     <g transform="translate(19.000625 240.14625)rotate(-90)scale(0.2 -0.2)">
      <defs>
       <path id="DejaVuSans-70" d="M 1159 525 
L 1159 -1331 
L 581 -1331 
L 581 3500 
L 1159 3500 
L 1159 2969 
Q 1341 3281 1617 3432 
Q 1894 3584 2278 3584 
Q 2916 3584 3314 3078 
Q 3713 2572 3713 1747 
Q 3713 922 3314 415 
Q 2916 -91 2278 -91 
Q 1894 -91 1617 61 
Q 1341 213 1159 525 
z
M 3116 1747 
Q 3116 2381 2855 2742 
Q 2594 3103 2138 3103 
Q 1681 3103 1420 2742 
Q 1159 2381 1159 1747 
Q 1159 1113 1420 752 
Q 1681 391 2138 391 
Q 2594 391 2855 752 
Q 3116 1113 3116 1747 
z
" transform="scale(0.015625)"/>
       <path id="DejaVuSans-6e" d="M 3513 2113 
L 3513 0 
L 2938 0 
L 2938 2094 
Q 2938 2591 2744 2837 
Q 2550 3084 2163 3084 
Q 1697 3084 1428 2787 
Q 1159 2491 1159 1978 
L 1159 0 
L 581 0 
L 581 3500 
L 1159 3500 
L 1159 2956 
Q 1366 3272 1645 3428 
Q 1925 3584 2291 3584 
Q 2894 3584 3203 3211 
Q 3513 2838 3513 2113 
z
" transform="scale(0.015625)"/>
      </defs>
      <use xlink:href="#DejaVuSans-70"/>
      <use xlink:href="#DejaVuSans-72" x="63.476562"/>
      <use xlink:href="#DejaVuSans-6f" x="102.339844"/>
      <use xlink:href="#DejaVuSans-70" x="163.521484"/>
      <use xlink:href="#DejaVuSans-6f" x="226.998047"/>
      <use xlink:href="#DejaVuSans-72" x="288.179688"/>
      <use xlink:href="#DejaVuSans-74" x="329.292969"/>
      <use xlink:href="#DejaVuSans-69" x="368.501953"/>
      <use xlink:href="#DejaVuSans-6f" x="396.285156"/>
      <use xlink:href="#DejaVuSans-6e" x="457.466797"/>
      <use xlink:href="#DejaVuSans-20" x="520.845703"/>
      <use xlink:href="#DejaVuSans-6f" x="552.632812"/>
      <use xlink:href="#DejaVuSans-66" x="613.814453"/>
      <use xlink:href="#DejaVuSans-20" x="649.019531"/>
      <use xlink:href="#DejaVuSans-74" x="680.806641"/>
      <use xlink:href="#DejaVuSans-72" x="720.015625"/>
      <use xlink:href="#DejaVuSans-69" x="761.128906"/>
      <use xlink:href="#DejaVuSans-61" x="788.912109"/>
      <use xlink:href="#DejaVuSans-6c" x="850.191406"/>
      <use xlink:href="#DejaVuSans-73" x="877.974609"/>
     </g>
    </g>
   </g>
   <g id="line2d_47">
    <path d="M 34.16 288.453725 
L 76.938905 288.453725 
L 76.938905 286.192706 
L 94.704402 286.192706 
L 94.704402 283.931686 
L 126.596104 283.931686 
L 126.596104 283.178013 
L 133.330514 283.178013 
L 133.330514 282.42434 
L 135.2913 282.42434 
L 135.2913 280.16332 
L 142.743623 280.16332 
L 142.743623 279.409647 
L 144.361602 279.409647 
L 144.361602 278.655974 
L 149.685387 278.655974 
L 149.685387 277.902301 
L 150.377825 277.902301 
L 150.377825 277.148627 
L 155.837142 277.148627 
L 155.837142 276.394954 
L 157.926308 276.394954 
L 157.926308 275.641281 
L 159.475882 275.641281 
L 159.475882 274.887608 
L 161.430778 274.887608 
L 161.430778 274.133935 
L 162.688596 274.133935 
L 162.688596 271.872915 
L 163.874613 271.872915 
L 163.874613 271.119242 
L 164.893908 271.119242 
L 164.995216 268.858222 
L 167.450884 268.858222 
L 167.450884 268.104549 
L 168.436001 268.104549 
L 168.436001 267.350876 
L 174.581187 267.350876 
L 174.612998 265.843529 
L 175.691806 265.843529 
L 175.691806 265.089856 
L 176.020113 265.089856 
L 176.020113 264.336183 
L 176.536689 264.336183 
L 176.536689 263.58251 
L 177.30065 263.58251 
L 177.30065 262.828837 
L 177.886041 262.828837 
L 177.886041 262.075163 
L 180.937995 262.075163 
L 181.015591 260.567817 
L 182.659406 260.567817 
L 182.659406 259.060471 
L 184.948499 259.060471 
L 184.948499 258.306797 
L 185.323605 258.306797 
L 185.323605 257.553124 
L 185.827386 257.553124 
L 185.827386 256.799451 
L 187.81732 256.799451 
L 187.927007 255.292105 
L 189.019242 255.292105 
L 189.019242 254.538431 
L 189.256513 254.538431 
L 189.256513 253.784758 
L 190.400876 253.784758 
L 190.400876 252.277412 
L 190.578015 252.277412 
L 190.578015 251.523739 
L 192.460028 251.523739 
L 192.460028 250.770065 
L 192.874438 250.770065 
L 192.874438 250.016392 
L 194.018801 250.016392 
L 194.018801 249.262719 
L 195.240495 249.262719 
L 195.240495 248.509046 
L 195.827039 248.509046 
L 195.827039 247.755373 
L 198.410595 247.755373 
L 198.410595 246.248026 
L 198.605213 246.248026 
L 198.605213 245.494353 
L 198.781089 245.494353 
L 198.781089 244.74068 
L 200.163986 244.74068 
L 200.163986 243.987007 
L 200.486949 243.987007 
L 200.486949 243.233333 
L 202.482933 243.233333 
L 202.482933 242.47966 
L 202.874697 242.47966 
L 202.874697 241.725987 
L 203.089102 241.725987 
L 203.089102 240.972314 
L 203.485361 240.972314 
L 203.485361 240.218641 
L 204.872103 240.218641 
L 204.872103 239.464967 
L 206.926146 239.464967 
L 207.022011 237.957621 
L 208.037782 237.957621 
L 208.037782 237.203948 
L 208.334014 237.203948 
L 208.334014 236.450275 
L 208.496669 236.450275 
L 208.496669 235.696601 
L 210.027342 235.696601 
L 210.027342 234.189255 
L 210.491739 234.189255 
L 210.491739 233.435582 
L 210.639935 233.435582 
L 210.639935 232.681908 
L 211.896041 232.681908 
L 211.972754 230.420889 
L 212.345796 230.420889 
L 212.345796 229.667216 
L 213.071332 229.667216 
L 213.071332 228.913542 
L 213.509807 228.913542 
L 213.509807 228.159869 
L 213.92765 228.159869 
L 213.972704 226.652523 
L 214.285212 226.652523 
L 214.285212 225.89885 
L 216.278704 225.89885 
L 216.371485 224.391503 
L 217.256038 224.391503 
L 217.256038 223.63783 
L 217.41349 223.63783 
L 217.41349 222.884157 
L 217.798172 222.884157 
L 217.798172 222.130484 
L 218.477883 222.130484 
L 218.477883 221.37681 
L 219.530243 221.37681 
L 219.530243 220.623137 
L 219.839594 220.623137 
L 219.904847 218.362118 
L 220.586717 218.362118 
L 220.586717 217.608444 
L 221.73108 217.608444 
L 221.73108 216.854771 
L 221.919414 216.854771 
L 221.919414 216.101098 
L 222.6679 216.101098 
L 222.6679 215.347425 
L 223.246304 215.347425 
L 223.246304 213.840078 
L 223.558675 213.840078 
L 223.576232 212.332732 
L 224.331889 212.332732 
L 224.331889 211.579059 
L 224.989561 211.579059 
L 224.989561 210.825386 
L 225.807892 210.825386 
L 225.807892 210.071712 
L 226.108686 210.071712 
L 226.108686 209.318039 
L 226.417152 209.318039 
L 226.487603 207.810693 
L 227.10987 207.810693 
L 227.10987 207.05702 
L 227.378731 207.05702 
L 227.486653 205.549673 
L 227.53905 205.549673 
L 227.53905 204.796 
L 227.772675 204.796 
L 227.79284 202.53498 
L 228.516985 202.53498 
L 228.516985 201.781307 
L 228.6283 201.781307 
L 228.69868 200.273961 
L 229.033562 200.273961 
L 229.033562 199.520288 
L 229.7408 199.520288 
L 229.797522 198.012941 
L 229.925667 198.012941 
L 229.925667 197.259268 
L 230.382913 197.259268 
L 230.382913 196.505595 
L 230.583197 196.505595 
L 230.583197 195.751922 
L 230.927438 195.751922 
L 231.017471 194.244575 
L 231.221625 194.244575 
L 231.221625 193.490902 
L 231.585951 193.490902 
L 231.585951 192.737229 
L 232.253871 192.737229 
L 232.316605 191.229882 
L 232.972367 191.229882 
L 233.054306 188.21519 
L 233.434867 188.21519 
L 233.434867 187.461516 
L 233.91786 187.461516 
L 233.91786 186.707843 
L 234.260988 186.707843 
L 234.260988 185.95417 
L 234.662411 185.95417 
L 234.662411 185.200497 
L 235.416202 185.200497 
L 235.435078 183.69315 
L 236.495092 183.69315 
L 236.495092 182.939477 
L 236.637107 182.939477 
L 236.7084 181.432131 
L 236.904495 181.432131 
L 236.904495 180.678458 
L 237.061987 180.678458 
L 237.072624 179.171111 
L 237.474519 179.171111 
L 237.474519 178.417438 
L 238.352215 178.417438 
L 238.352215 177.663765 
L 238.592003 177.663765 
L 238.676441 176.156418 
L 238.784753 176.156418 
L 238.784753 175.402745 
L 239.367986 175.402745 
L 239.367986 174.649072 
L 240.058075 174.649072 
L 240.058075 173.141725 
L 240.326325 173.141725 
L 240.326325 172.388052 
L 240.502772 172.388052 
L 240.502772 171.634379 
L 240.807596 171.634379 
L 240.807596 170.880706 
L 241.035838 170.880706 
L 241.092444 169.373359 
L 242.117227 169.373359 
L 242.117227 168.619686 
L 242.270708 168.619686 
L 242.270708 167.866013 
L 242.640277 167.866013 
L 242.640277 167.11234 
L 243.288015 167.11234 
L 243.288015 166.358667 
L 243.438729 166.358667 
L 243.438729 165.604993 
L 243.617815 165.604993 
L 243.676 103.050118 
L 243.765416 103.050118 
L 243.765416 102.296444 
L 245.172532 102.296444 
L 245.172532 101.542771 
L 245.599692 101.542771 
L 245.689108 100.035425 
L 246.154587 100.035425 
L 246.154587 99.281752 
L 246.453069 99.281752 
L 246.453069 98.528078 
L 246.647958 98.528078 
L 246.657296 97.020732 
L 246.794473 97.020732 
L 246.879515 95.513386 
L 247.03846 95.513386 
L 247.03846 94.759712 
L 247.23689 94.759712 
L 247.263681 93.252366 
L 247.561702 93.252366 
L 247.608908 91.74502 
L 247.916601 91.74502 
L 247.916601 90.991346 
L 248.078278 90.991346 
L 248.078278 90.237673 
L 248.262413 90.237673 
L 248.262413 89.484 
L 248.842239 89.484 
L 248.842239 88.730327 
L 249.42763 88.730327 
L 249.42763 87.976654 
L 250.090413 87.976654 
L 250.144148 86.469307 
L 250.418444 86.469307 
L 250.418444 85.715634 
L 250.6436 85.715634 
L 250.6436 84.208288 
L 251.169798 84.208288 
L 251.226833 82.700941 
L 251.297735 82.700941 
L 251.297735 81.947268 
L 251.774223 81.947268 
L 251.774223 81.193595 
L 252.479584 81.193595 
L 252.479584 80.439922 
L 253.01495 80.439922 
L 253.024701 78.932575 
L 253.14256 78.932575 
L 253.181338 77.425229 
L 253.697914 77.425229 
L 253.762073 75.917882 
L 254.153417 75.917882 
L 254.153417 75.164209 
L 254.461875 75.164209 
L 254.461875 74.410536 
L 255.047266 74.410536 
L 255.047266 73.656863 
L 255.986098 73.656863 
L 256.095977 72.149516 
L 256.583346 72.149516 
L 256.583346 71.395843 
L 258.09922 71.395843 
L 258.137398 69.888497 
L 259.993778 69.888497 
L 259.993778 69.134824 
L 261.608233 69.134824 
L 261.608233 68.38115 
L 261.755323 68.38115 
L 261.755323 67.627477 
L 262.728531 67.627477 
L 262.728531 66.873804 
L 263.699706 66.873804 
L 263.699706 66.120131 
L 264.105696 66.120131 
L 264.105696 65.366458 
L 265.200282 65.366458 
L 265.200282 64.612784 
L 266.370521 64.612784 
L 266.370521 63.859111 
L 266.765283 63.859111 
L 266.765283 63.105438 
L 267.455371 63.105438 
L 267.455371 61.598092 
L 268.135082 61.598092 
L 268.223471 60.090745 
L 268.379738 60.090745 
L 268.379738 58.583399 
L 268.641068 58.583399 
L 268.641068 57.829725 
L 271.073296 57.829725 
L 271.073296 56.322379 
L 271.38828 56.322379 
L 271.38828 55.568706 
L 271.753007 55.568706 
L 271.753007 54.815033 
L 272.726733 54.815033 
L 272.726733 54.061359 
L 273.233431 54.061359 
L 273.233431 53.307686 
L 274.786253 53.307686 
L 274.786253 52.554013 
L 275.006204 52.554013 
L 275.006204 51.046667 
L 275.465091 51.046667 
L 275.465091 50.292993 
L 276.074351 50.292993 
L 276.074351 49.53932 
L 276.851356 49.53932 
L 276.851356 48.785647 
L 278.35588 48.785647 
L 278.35588 48.031974 
L 278.624129 48.031974 
L 278.624129 47.278301 
L 278.939113 47.278301 
L 278.939113 46.524627 
L 281.973804 46.524627 
L 281.973804 45.017281 
L 283.918187 45.017281 
L 283.918187 44.263608 
L 285.534695 44.263608 
L 285.591729 42.756261 
L 287.536112 42.756261 
L 287.536112 42.002588 
L 288.132073 42.002588 
L 288.132073 41.248915 
L 288.441953 41.248915 
L 288.441953 40.495242 
L 292.059878 40.495242 
L 292.059878 39.741569 
L 292.945215 39.741569 
L 292.945215 38.987895 
L 293.333199 38.987895 
L 293.333199 38.234222 
L 295.777034 38.234222 
L 295.777034 36.726876 
L 296.114688 36.726876 
L 296.114688 35.973203 
L 296.563139 35.973203 
L 296.563139 35.219529 
L 296.894089 35.219529 
L 296.894089 34.465856 
L 299.154168 34.465856 
L 299.154168 33.712183 
L 305.753176 33.712183 
L 305.753176 32.95851 
L 306.336409 32.95851 
L 306.336409 32.204837 
L 309.371101 32.204837 
L 309.371101 31.451163 
L 312.770234 31.451163 
L 312.770234 30.69749 
L 315.159404 30.69749 
L 315.159404 29.943817 
L 315.809714 29.943817 
L 315.809714 29.190144 
L 316.422482 29.190144 
L 316.422482 28.436471 
L 317.112571 28.436471 
L 317.112571 27.682797 
L 318.198885 27.682797 
L 318.198885 26.929124 
L 320.730495 26.929124 
L 320.77904 25.421778 
L 323.818521 25.421778 
L 323.818521 24.668105 
L 324.663404 24.668105 
L 324.663404 23.914431 
L 331.631004 23.914431 
L 331.631004 22.407085 
L 334.413416 22.407085 
L 334.413416 21.653412 
L 347.752686 21.653412 
L 347.752686 20.899739 
L 352.0607 20.899739 
L 352.0607 20.146065 
L 355.993608 20.146065 
L 355.993608 19.392392 
L 358.437443 19.392392 
L 358.437443 18.638719 
L 359.611533 18.638719 
L 359.611533 17.885046 
L 359.996215 17.885046 
L 359.996215 17.131373 
L 372.903561 17.131373 
L 372.903561 16.377699 
L 376.764437 16.377699 
L 376.764437 14.870353 
L 383.390904 14.870353 
L 383.390904 14.11668 
L 387.323813 14.11668 
L 387.323813 13.363007 
L 392.086101 13.363007 
L 392.086101 12.609333 
L 393.75009 12.609333 
L 393.75009 11.85566 
L 396.904853 11.85566 
L 396.904853 11.101987 
L 400.639826 11.101987 
L 400.639826 10.348314 
L 402.472506 10.348314 
L 402.472506 9.594641 
L 406.480187 9.594641 
L 406.480187 8.840967 
L 408.094642 8.840967 
L 408.094642 8.087294 
L 412.85693 8.087294 
L 412.85693 7.333621 
L 422.56076 7.333621 
L 422.56076 6.579948 
L 434.618482 6.579948 
L 434.618482 5.826275 
L 453.192 5.826275 
L 453.192 5.826275 
" clip-path="url(#p79613d9d72)" style="fill: none; stroke: #000000; stroke-width: 3; stroke-linecap: square"/>
   </g>
   <g id="line2d_48">
    <path clip-path="url(#p79613d9d72)" style="fill: none; stroke: #000000; stroke-width: 3; stroke-linecap: square"/>
   </g>
   <g id="line2d_49">
    <path d="M 34.16 288.453725 
L 93.532309 288.453725 
L 93.532309 286.946379 
L 109.430066 286.946379 
L 109.430066 286.192706 
L 118.676488 286.192706 
L 118.676488 285.439033 
L 119.051593 285.439033 
L 119.051593 284.685359 
L 131.041964 284.685359 
L 131.041964 283.178013 
L 133.008696 283.178013 
L 133.008696 281.670667 
L 133.982756 281.670667 
L 133.982756 280.916993 
L 134.605103 280.916993 
L 134.605103 280.16332 
L 138.456447 280.16332 
L 138.456447 279.409647 
L 142.070165 279.409647 
L 142.070165 277.902301 
L 143.90202 277.902301 
L 143.90202 277.148627 
L 144.482489 277.148627 
L 144.482489 276.394954 
L 144.864688 276.394954 
L 144.864688 275.641281 
L 145.80728 275.641281 
L 145.80728 274.887608 
L 145.950343 274.887608 
L 145.950343 274.133935 
L 146.939721 274.133935 
L 146.939721 273.380261 
L 148.333834 273.380261 
L 148.333834 272.626588 
L 148.906453 272.626588 
L 148.906453 271.872915 
L 151.008406 271.872915 
L 151.008406 271.119242 
L 151.384761 271.119242 
L 151.384761 270.365569 
L 152.121271 270.365569 
L 152.121271 269.611895 
L 153.779407 269.611895 
L 153.779407 268.858222 
L 154.001638 268.858222 
L 154.076461 267.350876 
L 154.42126 267.350876 
L 154.42126 266.597203 
L 154.641855 266.597203 
L 154.742075 265.089856 
L 155.070323 265.089856 
L 155.070323 264.336183 
L 155.684667 264.336183 
L 155.684667 263.58251 
L 156.079536 263.58251 
L 156.186143 262.075163 
L 156.281773 262.075163 
L 156.301627 260.567817 
L 156.522223 260.567817 
L 156.561248 259.060471 
L 157.370312 259.060471 
L 157.370312 258.306797 
L 157.590908 258.306797 
L 157.590908 257.553124 
L 157.967923 257.553124 
L 157.967923 256.799451 
L 158.152875 256.799451 
L 158.152875 256.045778 
L 158.52798 256.045778 
L 158.52798 255.292105 
L 158.704362 255.292105 
L 158.704362 254.538431 
L 160.885793 254.538431 
L 160.885793 253.784758 
L 161.262147 253.784758 
L 161.262147 253.031085 
L 163.953847 253.031085 
L 163.953847 252.277412 
L 165.956922 252.277412 
L 165.956922 251.523739 
L 166.159159 251.523739 
L 166.159159 250.770065 
L 166.582573 250.770065 
L 166.582573 250.016392 
L 167.214344 250.016392 
L 167.214344 249.262719 
L 167.58945 249.262719 
L 167.600752 247.755373 
L 168.581748 247.755373 
L 168.581748 247.001699 
L 169.900741 247.001699 
L 169.900741 246.248026 
L 170.121337 246.248026 
L 170.121337 245.494353 
L 176.459959 245.494353 
L 176.459959 244.74068 
L 176.88166 244.74068 
L 176.88166 243.987007 
L 178.762027 243.987007 
L 178.762027 243.233333 
L 178.928706 243.233333 
L 178.928706 242.47966 
L 179.830712 242.47966 
L 179.830712 241.725987 
L 180.809073 241.725987 
L 180.809073 240.972314 
L 181.877758 240.972314 
L 181.877758 240.218641 
L 183.459998 240.218641 
L 183.459998 239.464967 
L 185.42673 239.464967 
L 185.42673 238.711294 
L 189.478277 238.711294 
L 189.478277 237.957621 
L 191.392826 237.957621 
L 191.392826 237.203948 
L 191.778266 237.203948 
L 191.778266 236.450275 
L 191.998861 236.450275 
L 191.998861 235.696601 
L 192.361141 235.696601 
L 192.361141 234.942928 
L 194.408187 234.942928 
L 194.4882 233.435582 
L 196.167174 233.435582 
L 196.167174 232.681908 
L 197.760992 232.681908 
L 197.760992 231.174562 
L 201.446298 231.174562 
L 201.446298 230.420889 
L 203.342442 230.420889 
L 203.342442 229.667216 
L 203.820382 229.667216 
L 203.820382 228.913542 
L 206.128602 228.913542 
L 206.128602 228.159869 
L 209.236859 228.159869 
L 209.236859 226.652523 
L 211.469409 226.652523 
L 211.469409 225.89885 
L 211.661511 225.89885 
L 211.661511 225.145176 
L 213.658749 225.145176 
L 213.658749 224.391503 
L 214.238666 224.391503 
L 214.290203 222.884157 
L 214.609607 222.884157 
L 214.609607 222.130484 
L 214.769768 222.130484 
L 214.769768 220.623137 
L 216.173624 220.623137 
L 216.173624 219.869464 
L 216.285712 219.869464 
L 216.285712 219.115791 
L 216.547847 219.115791 
L 216.611302 216.854771 
L 216.810787 216.854771 
L 216.909596 215.347425 
L 217.002317 215.347425 
L 217.002317 214.593752 
L 217.130192 214.593752 
L 217.130192 213.840078 
L 217.985798 213.840078 
L 217.985798 213.086405 
L 218.473613 213.086405 
L 218.473613 212.332732 
L 218.694209 212.332732 
L 218.694209 211.579059 
L 218.847836 211.579059 
L 218.862878 210.071712 
L 219.068432 210.071712 
L 219.068432 209.318039 
L 220.285787 209.318039 
L 220.285787 208.564366 
L 220.506382 208.564366 
L 220.506382 207.810693 
L 221.446435 207.810693 
L 221.446435 207.05702 
L 222.144211 207.05702 
L 222.144211 206.303346 
L 222.525243 206.303346 
L 222.525243 205.549673 
L 222.905171 205.549673 
L 223.010127 203.288654 
L 223.280276 203.288654 
L 223.280276 202.53498 
L 224.302117 202.53498 
L 224.395787 201.027634 
L 224.811704 201.027634 
L 224.811704 200.273961 
L 225.443744 200.273961 
L 225.443744 199.520288 
L 225.714729 199.520288 
L 225.714729 198.766614 
L 226.118384 198.766614 
L 226.118384 197.259268 
L 226.979343 197.259268 
L 226.988051 195.751922 
L 227.759545 195.751922 
L 227.759545 194.998248 
L 227.881459 194.998248 
L 227.881459 194.244575 
L 228.058152 194.244575 
L 228.058152 193.490902 
L 228.350933 193.490902 
L 228.350933 192.737229 
L 228.797005 192.737229 
L 228.902481 191.229882 
L 229.705549 191.229882 
L 229.705549 190.476209 
L 229.835025 190.476209 
L 229.835025 189.722536 
L 230.253387 189.722536 
L 230.344613 188.21519 
L 230.666304 188.21519 
L 230.666304 187.461516 
L 230.869214 187.461516 
L 230.869214 186.707843 
L 230.994096 186.707843 
L 230.994096 185.95417 
L 231.247638 185.95417 
L 231.247638 185.200497 
L 231.638079 185.200497 
L 231.732804 183.69315 
L 231.905263 183.69315 
L 231.905263 182.185804 
L 232.304534 182.185804 
L 232.304534 181.432131 
L 232.52096 181.432131 
L 232.52096 180.678458 
L 233.175486 180.678458 
L 233.175486 179.924784 
L 233.361644 179.924784 
L 233.467657 176.910092 
L 233.492827 176.910092 
L 233.492827 176.156418 
L 233.676829 176.156418 
L 233.676829 175.402745 
L 234.137812 175.402745 
L 234.137812 174.649072 
L 234.831691 174.649072 
L 234.831691 173.895399 
L 235.238458 173.895399 
L 235.238458 173.141725 
L 235.594193 173.141725 
L 235.643561 171.634379 
L 235.744403 171.634379 
L 235.744403 170.880706 
L 235.979263 170.880706 
L 235.979263 170.127033 
L 236.155879 170.127033 
L 236.155879 169.373359 
L 237.178377 169.373359 
L 237.178377 168.619686 
L 237.636932 168.619686 
L 237.636932 167.866013 
L 238.141045 167.866013 
L 238.141045 167.11234 
L 238.32796 167.11234 
L 238.34159 165.604993 
L 239.050592 165.604993 
L 239.083637 164.097647 
L 239.279705 164.097647 
L 239.369996 162.590301 
L 239.406768 162.590301 
L 239.514148 161.082954 
L 239.930683 161.082954 
L 239.930683 160.329281 
L 240.543691 160.329281 
L 240.543691 159.575608 
L 240.736087 159.575608 
L 240.736087 158.821935 
L 240.934013 158.821935 
L 240.934013 158.068261 
L 241.097638 158.068261 
L 241.183642 156.560915 
L 241.308236 156.560915 
L 241.417042 155.053569 
L 241.512171 155.053569 
L 241.601452 152.792549 
L 241.693229 152.792549 
L 241.693229 152.038876 
L 241.814137 152.038876 
L 241.814137 151.285203 
L 242.034733 151.285203 
L 242.034733 150.531529 
L 242.56412 150.531529 
L 242.596254 149.024183 
L 242.746186 149.024183 
L 242.746186 148.27051 
L 242.981059 148.27051 
L 242.987663 146.763163 
L 243.355282 146.763163 
L 243.355282 146.00949 
L 243.506712 146.00949 
L 243.506712 145.255817 
L 243.869576 145.255817 
L 243.869576 144.502144 
L 244.096962 144.502144 
L 244.114838 142.994797 
L 244.284762 142.994797 
L 244.284762 142.241124 
L 244.661117 142.241124 
L 244.705031 140.733778 
L 244.780144 140.733778 
L 244.793233 139.226431 
L 245.193646 139.226431 
L 245.193646 138.472758 
L 245.571219 138.472758 
L 245.571219 137.719085 
L 246.396952 137.719085 
L 246.396952 136.965412 
L 246.587074 136.965412 
L 246.650028 134.704392 
L 246.97052 134.704392 
L 247.080133 132.443373 
L 247.300728 132.443373 
L 247.352817 130.936026 
L 247.480107 130.936026 
L 247.480107 130.182353 
L 248.243903 130.182353 
L 248.243903 129.42868 
L 248.383132 129.42868 
L 248.426901 127.921333 
L 248.707837 127.921333 
L 248.707837 127.16766 
L 248.936489 127.16766 
L 248.936489 126.413987 
L 249.084192 126.413987 
L 249.084192 125.660314 
L 249.355892 125.660314 
L 249.355892 124.906641 
L 249.558129 124.906641 
L 249.656454 123.399294 
L 249.839514 123.399294 
L 249.839514 122.645621 
L 250.179026 122.645621 
L 250.250846 121.138275 
L 250.910464 121.138275 
L 250.910464 120.384601 
L 251.112836 120.384601 
L 251.112836 119.630928 
L 251.775892 119.630928 
L 251.775892 118.877255 
L 251.980718 118.877255 
L 251.980718 118.123582 
L 252.373952 118.123582 
L 252.373952 117.369908 
L 252.860788 117.369908 
L 252.886288 115.862562 
L 253.778967 115.862562 
L 253.830334 114.355216 
L 253.981204 114.355216 
L 253.981204 113.601542 
L 255.783755 113.601542 
L 255.783755 112.847869 
L 256.356037 112.847869 
L 256.403793 111.340523 
L 257.318705 111.340523 
L 257.318705 110.58685 
L 258.261297 110.58685 
L 258.261297 109.833176 
L 258.647666 109.833176 
L 258.647666 109.079503 
L 259.010346 109.079503 
L 259.010346 108.32583 
L 259.858929 108.32583 
L 259.858929 107.572157 
L 260.104047 107.572157 
L 260.104047 106.818484 
L 262.160195 106.818484 
L 262.160195 106.06481 
L 262.953399 106.06481 
L 262.953399 105.311137 
L 263.462423 105.311137 
L 263.462423 104.557464 
L 263.838777 104.557464 
L 263.838777 103.803791 
L 264.274537 103.803791 
L 264.318115 101.542771 
L 264.920131 101.542771 
L 264.920131 100.789098 
L 265.867209 100.789098 
L 265.867209 100.035425 
L 266.321583 100.035425 
L 266.321583 99.281752 
L 266.530477 99.281752 
L 266.530477 98.528078 
L 267.132371 98.528078 
L 267.132371 97.774405 
L 268.183994 97.774405 
L 268.183994 97.020732 
L 268.503751 97.020732 
L 268.533552 95.513386 
L 268.735789 95.513386 
L 268.735789 94.759712 
L 268.857351 94.759712 
L 268.857351 94.006039 
L 269.540533 94.006039 
L 269.540533 93.252366 
L 270.470483 93.252366 
L 270.483983 91.74502 
L 270.685141 91.74502 
L 270.704579 90.237673 
L 270.904397 90.237673 
L 270.977312 87.976654 
L 271.158378 87.976654 
L 271.158378 87.22298 
L 271.587579 87.22298 
L 271.587579 86.469307 
L 272.341346 86.469307 
L 272.341346 85.715634 
L 272.651873 85.715634 
L 272.651873 84.961961 
L 272.884571 84.961961 
L 272.944045 82.700941 
L 273.981601 82.700941 
L 273.981601 81.947268 
L 274.308078 81.947268 
L 274.375631 80.439922 
L 275.744595 80.439922 
L 275.744595 79.686248 
L 279.036589 79.686248 
L 279.036589 78.932575 
L 279.531952 78.932575 
L 279.531952 78.178902 
L 280.710817 78.178902 
L 280.710817 77.425229 
L 281.713343 77.425229 
L 281.713343 76.671556 
L 281.94604 76.671556 
L 282.005514 74.410536 
L 283.369547 74.410536 
L 283.369547 73.656863 
L 284.693086 73.656863 
L 284.693086 72.90319 
L 287.396631 72.90319 
L 287.396631 72.149516 
L 292.944383 72.149516 
L 292.944383 71.395843 
L 293.591946 71.395843 
L 293.591946 70.64217 
L 294.067905 70.64217 
L 294.112969 69.134824 
L 294.991429 69.134824 
L 294.991429 68.38115 
L 295.621509 68.38115 
L 295.621509 67.627477 
L 295.891936 67.627477 
L 295.891936 66.873804 
L 296.112531 66.873804 
L 296.112531 66.120131 
L 296.520001 66.120131 
L 296.520001 65.366458 
L 298.486733 65.366458 
L 298.486733 64.612784 
L 299.101621 64.612784 
L 299.101621 63.859111 
L 300.395857 63.859111 
L 300.395857 63.105438 
L 300.997764 63.105438 
L 300.997764 62.351765 
L 301.475705 62.351765 
L 301.475705 61.598092 
L 305.805132 61.598092 
L 305.805132 60.844418 
L 307.548202 60.844418 
L 307.548202 60.090745 
L 307.701276 60.090745 
L 307.701276 59.337072 
L 308.179216 59.337072 
L 308.179216 58.583399 
L 315.707445 58.583399 
L 315.707445 57.829725 
L 317.603588 57.829725 
L 317.603588 57.076052 
L 318.081529 57.076052 
L 318.081529 56.322379 
L 318.352335 56.322379 
L 318.352335 55.568706 
L 320.34983 55.568706 
L 320.399381 54.061359 
L 320.561344 54.061359 
L 320.588805 52.554013 
L 321.035902 52.554013 
L 321.035902 51.80034 
L 322.245974 51.80034 
L 322.245974 51.046667 
L 322.723914 51.046667 
L 322.723914 50.292993 
L 323.942661 50.292993 
L 323.942661 49.53932 
L 324.138792 49.53932 
L 324.138792 48.785647 
L 325.458976 48.785647 
L 325.458976 48.031974 
L 327.292317 48.031974 
L 327.292317 47.278301 
L 328.365735 47.278301 
L 328.365735 46.524627 
L 329.623737 46.524627 
L 329.672427 45.017281 
L 331.51988 45.017281 
L 331.51988 44.263608 
L 331.781657 44.263608 
L 331.781657 43.509935 
L 331.997821 43.509935 
L 331.997821 42.756261 
L 333.677801 42.756261 
L 333.677801 42.002588 
L 334.155741 42.002588 
L 334.155741 41.248915 
L 335.222779 41.248915 
L 335.222779 40.495242 
L 337.194629 40.495242 
L 337.194629 39.741569 
L 337.404169 39.741569 
L 337.404169 38.987895 
L 337.636867 38.987895 
L 337.69634 37.480549 
L 339.060374 37.480549 
L 339.060374 36.726876 
L 340.213562 36.726876 
L 340.213562 35.973203 
L 341.837014 35.973203 
L 341.837014 35.219529 
L 343.120321 35.219529 
L 343.120321 34.465856 
L 348.174358 34.465856 
L 348.174358 33.712183 
L 349.447344 33.712183 
L 349.447344 32.95851 
L 350.070502 32.95851 
L 350.070502 32.204837 
L 350.548442 32.204837 
L 350.548442 31.451163 
L 351.110921 31.451163 
L 351.110921 30.69749 
L 351.343487 30.69749 
L 351.343487 29.943817 
L 351.821428 29.943817 
L 351.821428 29.190144 
L 352.156628 29.190144 
L 352.156628 28.436471 
L 353.268841 28.436471 
L 353.268841 27.682797 
L 354.052772 27.682797 
L 354.052772 26.929124 
L 354.530712 26.929124 
L 354.530712 26.175451 
L 354.860173 26.175451 
L 354.860173 25.421778 
L 356.756316 25.421778 
L 356.756316 24.668105 
L 357.234257 24.668105 
L 357.234257 23.914431 
L 359.143565 23.914431 
L 359.143565 23.160758 
L 361.531447 23.160758 
L 361.576511 21.653412 
L 363.239029 21.653412 
L 363.239029 20.899739 
L 363.42759 20.899739 
L 363.472655 19.392392 
L 363.56664 19.392392 
L 363.56664 18.638719 
L 363.905531 18.638719 
L 363.950595 17.131373 
L 369.661543 17.131373 
L 369.661543 16.377699 
L 370.934528 16.377699 
L 370.934528 15.624026 
L 373.643813 15.624026 
L 373.643813 14.870353 
L 376.347357 14.870353 
L 376.347357 14.11668 
L 378.321225 14.11668 
L 378.321225 13.363007 
L 383.018631 13.363007 
L 383.063695 11.85566 
L 388.024886 11.85566 
L 388.024886 11.101987 
L 389.921029 11.101987 
L 389.921029 10.348314 
L 390.39897 10.348314 
L 390.39897 9.594641 
L 391.602333 9.594641 
L 391.602333 8.840967 
L 393.498477 8.840967 
L 393.498477 8.087294 
L 393.976417 8.087294 
L 393.976417 7.333621 
L 409.51207 7.333621 
L 409.51207 6.579948 
L 413.089518 6.579948 
L 413.089518 5.826275 
L 453.192 5.826275 
L 453.192 5.826275 
" clip-path="url(#p79613d9d72)" style="fill: none; stroke: #00bfbf; stroke-width: 3; stroke-linecap: square"/>
   </g>
   <g id="line2d_50">
    <path clip-path="url(#p79613d9d72)" style="fill: none; stroke: #00bfbf; stroke-width: 3; stroke-linecap: square"/>
   </g>
   <g id="line2d_51">
    <path d="M 34.16 288.453725 
L 63.14813 288.453725 
L 63.14813 287.700052 
L 80.038331 287.700052 
L 80.038331 286.946379 
L 84.37186 286.946379 
L 84.37186 286.192706 
L 89.811761 286.192706 
L 89.811761 285.439033 
L 90.130158 285.439033 
L 90.130158 284.685359 
L 106.701962 284.685359 
L 106.701962 283.931686 
L 107.020359 283.931686 
L 107.020359 283.178013 
L 111.035491 283.178013 
L 111.035491 282.42434 
L 111.353888 282.42434 
L 111.353888 281.670667 
L 138.018971 281.670667 
L 138.018971 280.916993 
L 143.574547 280.916993 
L 143.574547 280.16332 
L 148.269109 280.16332 
L 148.269109 279.409647 
L 148.746631 279.409647 
L 148.746631 278.655974 
L 151.982413 278.655974 
L 151.982413 277.902301 
L 153.635621 277.902301 
L 153.635621 277.148627 
L 155.923578 277.148627 
L 155.923578 276.394954 
L 157.256147 276.394954 
L 157.256147 275.641281 
L 157.671705 275.641281 
L 157.67409 273.380261 
L 158.207083 273.380261 
L 158.207083 272.626588 
L 158.479785 272.626588 
L 158.479785 271.872915 
L 159.005846 271.872915 
L 159.005846 271.119242 
L 159.812354 271.119242 
L 159.881227 269.611895 
L 159.956782 269.611895 
L 159.956782 268.858222 
L 160.306208 268.858222 
L 160.306208 268.104549 
L 160.76329 268.104549 
L 160.76329 267.350876 
L 168.629762 267.350876 
L 168.629762 266.597203 
L 169.962331 266.597203 
L 169.962331 265.843529 
L 170.238178 265.843529 
L 170.238178 265.089856 
L 170.556575 265.089856 
L 170.556575 264.336183 
L 170.913266 264.336183 
L 170.913266 263.58251 
L 174.110646 263.58251 
L 174.110646 262.828837 
L 174.564291 262.828837 
L 174.564291 262.075163 
L 175.410262 262.075163 
L 175.410262 261.32149 
L 175.728659 261.32149 
L 175.728659 260.567817 
L 176.771428 260.567817 
L 176.771428 259.814144 
L 178.569654 259.814144 
L 178.569654 259.060471 
L 178.897819 259.060471 
L 178.897819 258.306797 
L 180.705227 258.306797 
L 180.705227 257.553124 
L 181.104957 257.553124 
L 181.104957 256.799451 
L 182.077612 256.799451 
L 182.077612 256.045778 
L 182.193767 256.045778 
L 182.193767 255.292105 
L 182.454926 255.292105 
L 182.454926 254.538431 
L 182.781657 254.538431 
L 182.781657 253.784758 
L 183.063385 253.784758 
L 183.063385 253.031085 
L 183.261434 253.031085 
L 183.261434 252.277412 
L 183.82731 252.277412 
L 183.82731 251.523739 
L 184.143083 251.523739 
L 184.143083 250.770065 
L 184.428363 250.770065 
L 184.428363 250.016392 
L 184.633819 250.016392 
L 184.633819 249.262719 
L 184.943989 249.262719 
L 184.943989 248.509046 
L 185.638755 248.509046 
L 185.638755 247.755373 
L 186.759361 247.755373 
L 186.759361 247.001699 
L 187.512462 247.001699 
L 187.512462 246.248026 
L 188.168921 246.248026 
L 188.168921 245.494353 
L 188.752677 245.494353 
L 188.752677 244.74068 
L 189.180355 244.74068 
L 189.180355 243.987007 
L 190.936727 243.987007 
L 190.936727 243.233333 
L 191.387181 243.233333 
L 191.387181 242.47966 
L 191.754936 242.47966 
L 191.754936 241.725987 
L 192.269296 241.725987 
L 192.269296 240.972314 
L 193.070477 240.972314 
L 193.070477 240.218641 
L 193.201754 240.218641 
L 193.220232 238.711294 
L 193.41141 238.711294 
L 193.485724 237.203948 
L 194.348809 237.203948 
L 194.348809 236.450275 
L 194.519847 236.450275 
L 194.519847 235.696601 
L 194.783795 235.696601 
L 194.783795 234.942928 
L 195.335939 234.942928 
L 195.335939 234.189255 
L 195.836257 234.189255 
L 195.836257 233.435582 
L 196.374225 233.435582 
L 196.374225 232.681908 
L 197.746996 232.681908 
L 197.746996 231.928235 
L 198.188366 231.928235 
L 198.188366 231.174562 
L 198.419059 231.174562 
L 198.421687 229.667216 
L 202.005074 229.667216 
L 202.005074 228.913542 
L 203.320615 228.913542 
L 203.320615 228.159869 
L 203.735862 228.159869 
L 203.785571 226.652523 
L 204.076302 226.652523 
L 204.076302 225.89885 
L 204.348728 225.89885 
L 204.348728 225.145176 
L 204.598947 225.145176 
L 204.598947 224.391503 
L 204.871178 224.391503 
L 204.871178 223.63783 
L 205.580061 223.63783 
L 205.580061 222.884157 
L 206.429039 222.884157 
L 206.429039 222.130484 
L 206.624363 222.130484 
L 206.624363 221.37681 
L 207.371586 221.37681 
L 207.371586 220.623137 
L 207.997135 220.623137 
L 207.997135 219.869464 
L 208.687127 219.869464 
L 208.687127 219.115791 
L 208.857398 219.115791 
L 208.857398 218.362118 
L 209.102374 218.362118 
L 209.175795 216.854771 
L 209.255366 216.854771 
L 209.255366 216.101098 
L 209.445288 216.101098 
L 209.509513 214.593752 
L 209.763685 214.593752 
L 209.763685 213.840078 
L 209.965459 213.840078 
L 209.965459 213.086405 
L 210.417005 213.086405 
L 210.417005 212.332732 
L 210.806715 212.332732 
L 210.806715 211.579059 
L 211.078594 211.579059 
L 211.125112 209.318039 
L 211.410391 209.318039 
L 211.459196 207.810693 
L 211.60762 207.810693 
L 211.60762 207.05702 
L 211.926017 207.05702 
L 211.990875 205.549673 
L 212.302386 205.549673 
L 212.302386 204.796 
L 212.620783 204.796 
L 212.620783 204.042327 
L 213.363647 204.042327 
L 213.422992 202.53498 
L 213.741389 202.53498 
L 213.783935 201.027634 
L 214.138559 201.027634 
L 214.138559 200.273961 
L 214.935963 200.273961 
L 214.954651 198.766614 
L 215.121317 198.766614 
L 215.121317 198.012941 
L 215.431447 198.012941 
L 215.516603 196.505595 
L 215.718376 196.505595 
L 215.718376 195.751922 
L 215.996812 195.751922 
L 215.996812 194.998248 
L 216.764016 194.998248 
L 216.764016 194.244575 
L 216.882593 194.244575 
L 216.882593 193.490902 
L 217.002751 193.490902 
L 217.090761 191.983556 
L 217.329381 191.983556 
L 217.372141 190.476209 
L 217.714952 190.476209 
L 217.734026 188.968863 
L 218.040399 188.968863 
L 218.120026 187.461516 
L 218.280317 187.461516 
L 218.280317 186.707843 
L 218.70471 186.707843 
L 218.70471 185.95417 
L 219.066595 185.95417 
L 219.066595 185.200497 
L 219.41826 185.200497 
L 219.41826 184.446824 
L 219.655646 184.446824 
L 219.655646 183.69315 
L 219.941464 183.69315 
L 220.01753 182.185804 
L 220.298921 182.185804 
L 220.298921 181.432131 
L 220.487829 181.432131 
L 220.487829 180.678458 
L 220.750829 180.678458 
L 220.750829 179.924784 
L 221.112259 179.924784 
L 221.115013 178.417438 
L 221.701765 178.417438 
L 221.701765 177.663765 
L 222.62864 177.663765 
L 222.62864 176.910092 
L 224.200761 176.910092 
L 224.260595 175.402745 
L 226.674134 175.402745 
L 226.674134 174.649072 
L 227.846611 174.649072 
L 227.846611 173.895399 
L 228.282355 173.895399 
L 228.282355 173.141725 
L 229.139412 173.141725 
L 229.162151 171.634379 
L 229.451802 171.634379 
L 229.451802 170.880706 
L 229.577399 170.880706 
L 229.577399 170.127033 
L 230.440484 170.127033 
L 230.440484 169.373359 
L 231.79845 169.373359 
L 231.79845 168.619686 
L 232.465899 168.619686 
L 232.465899 167.866013 
L 232.61419 167.866013 
L 232.61419 167.11234 
L 232.862835 167.11234 
L 232.862835 166.358667 
L 233.210483 166.358667 
L 233.210483 165.604993 
L 233.838671 165.604993 
L 233.838671 164.85132 
L 234.848347 164.85132 
L 234.848347 164.097647 
L 235.157275 164.097647 
L 235.157275 163.343974 
L 236.621463 163.343974 
L 236.661033 161.836627 
L 237.080637 161.836627 
L 237.080637 161.082954 
L 237.399033 161.082954 
L 237.510012 159.575608 
L 237.738738 159.575608 
L 237.738738 158.821935 
L 238.100506 158.821935 
L 238.122828 157.314588 
L 238.268279 157.314588 
L 238.303482 155.807242 
L 238.441224 155.807242 
L 238.552127 153.546222 
L 238.639041 153.546222 
L 238.639041 152.792549 
L 239.330304 152.792549 
L 239.330304 152.038876 
L 239.606351 152.038876 
L 239.70194 150.531529 
L 240.213096 150.531529 
L 240.307644 148.27051 
L 240.336338 148.27051 
L 240.359151 146.763163 
L 240.447566 146.763163 
L 240.447566 146.00949 
L 240.590485 146.00949 
L 240.590485 145.255817 
L 240.730971 145.255817 
L 240.778461 142.994797 
L 240.937985 142.994797 
L 240.962853 141.487451 
L 241.110109 141.487451 
L 241.18663 139.980105 
L 241.585481 139.980105 
L 241.594508 138.472758 
L 241.699499 138.472758 
L 241.699499 137.719085 
L 241.959088 137.719085 
L 241.959088 136.965412 
L 242.150845 136.965412 
L 242.247352 133.950719 
L 242.515675 133.950719 
L 242.545443 132.443373 
L 242.781825 132.443373 
L 242.781825 131.689699 
L 242.916319 131.689699 
L 242.916319 130.936026 
L 243.27259 130.936026 
L 243.27259 130.182353 
L 243.526175 130.182353 
L 243.526175 129.42868 
L 243.888059 129.42868 
L 243.8991 127.16766 
L 244.040872 127.16766 
L 244.040872 126.413987 
L 244.199909 126.413987 
L 244.23186 124.906641 
L 244.647108 124.906641 
L 244.647108 124.152967 
L 244.785415 124.152967 
L 244.785415 123.399294 
L 245.039562 123.399294 
L 245.098485 121.138275 
L 245.261136 121.138275 
L 245.261136 120.384601 
L 245.373441 120.384601 
L 245.479728 118.877255 
L 245.510192 118.877255 
L 245.572294 117.369908 
L 246.016935 117.369908 
L 246.016935 116.616235 
L 246.292846 116.616235 
L 246.324377 115.108889 
L 246.593705 115.108889 
L 246.608643 112.847869 
L 246.891333 112.847869 
L 246.891333 112.094196 
L 247.535608 112.094196 
L 247.54464 110.58685 
L 247.748643 110.58685 
L 247.763537 109.079503 
L 247.963566 109.079503 
L 247.963566 108.32583 
L 248.407714 108.32583 
L 248.479191 106.818484 
L 248.564735 106.818484 
L 248.564735 106.06481 
L 248.758124 106.06481 
L 248.758124 105.311137 
L 248.90838 105.311137 
L 248.90838 104.557464 
L 250.464997 104.557464 
L 250.466012 103.050118 
L 250.60929 103.050118 
L 250.60929 102.296444 
L 250.933512 102.296444 
L 251.022436 100.789098 
L 251.046651 100.789098 
L 251.046651 100.035425 
L 251.650483 100.035425 
L 251.650483 99.281752 
L 252.412642 99.281752 
L 252.453208 97.774405 
L 254.589234 97.774405 
L 254.589234 97.020732 
L 254.918486 97.020732 
L 254.918486 96.267059 
L 255.405326 96.267059 
L 255.499163 94.006039 
L 255.975802 94.006039 
L 256.032562 92.498693 
L 257.769995 92.498693 
L 257.769995 91.74502 
L 257.886991 91.74502 
L 257.886991 90.991346 
L 258.491074 90.991346 
L 258.491074 90.237673 
L 264.047353 90.237673 
L 264.047353 89.484 
L 264.291455 89.484 
L 264.374029 87.976654 
L 265.043588 87.976654 
L 265.043588 87.22298 
L 265.543477 87.22298 
L 265.543477 86.469307 
L 265.749301 86.469307 
L 265.749301 85.715634 
L 266.415972 85.715634 
L 266.415972 84.961961 
L 267.382249 84.961961 
L 267.382249 84.208288 
L 268.020133 84.208288 
L 268.097902 82.700941 
L 268.56555 82.700941 
L 268.56555 81.947268 
L 268.740531 81.947268 
L 268.822521 80.439922 
L 269.898119 80.439922 
L 269.898119 79.686248 
L 270.042785 79.686248 
L 270.042785 78.932575 
L 270.194905 78.932575 
L 270.231547 77.425229 
L 270.552224 77.425229 
L 270.552224 76.671556 
L 270.849054 76.671556 
L 270.940021 75.164209 
L 271.115813 75.164209 
L 271.115813 74.410536 
L 271.348822 74.410536 
L 271.415169 72.90319 
L 272.780471 72.90319 
L 272.780471 72.149516 
L 273.386645 72.149516 
L 273.386645 71.395843 
L 273.542611 71.395843 
L 273.542611 70.64217 
L 274.258264 70.64217 
L 274.341056 69.134824 
L 275.857436 69.134824 
L 275.857436 68.38115 
L 276.450826 68.38115 
L 276.450826 67.627477 
L 276.712586 67.627477 
L 276.719727 66.120131 
L 277.072138 66.120131 
L 277.118024 64.612784 
L 277.229548 64.612784 
L 277.307616 63.105438 
L 278.189413 63.105438 
L 278.189413 62.351765 
L 278.669043 62.351765 
L 278.669043 61.598092 
L 278.926864 61.598092 
L 278.954323 60.090745 
L 279.443738 60.090745 
L 279.514754 57.829725 
L 279.90293 57.829725 
L 279.90293 57.076052 
L 280.164715 57.076052 
L 280.164715 56.322379 
L 280.613185 56.322379 
L 280.613185 55.568706 
L 280.87618 55.568706 
L 280.87618 54.815033 
L 281.16146 54.815033 
L 281.181646 53.307686 
L 281.285321 53.307686 
L 281.285321 52.554013 
L 281.677086 52.554013 
L 281.677086 51.80034 
L 282.368208 51.80034 
L 282.371852 50.292993 
L 282.698027 50.292993 
L 282.698027 49.53932 
L 283.492458 49.53932 
L 283.492458 48.785647 
L 284.708079 48.785647 
L 284.708079 48.031974 
L 284.956724 48.031974 
L 284.956724 47.278301 
L 286.00973 47.278301 
L 286.00973 46.524627 
L 286.211838 46.524627 
L 286.211838 45.770954 
L 286.460482 45.770954 
L 286.460482 45.017281 
L 286.743521 45.017281 
L 286.743521 44.263608 
L 287.060816 44.263608 
L 287.060816 43.509935 
L 287.309461 43.509935 
L 287.309461 42.756261 
L 289.208799 42.756261 
L 289.208799 42.002588 
L 289.887143 42.002588 
L 289.887143 41.248915 
L 290.135788 41.248915 
L 290.14129 39.741569 
L 290.389935 39.741569 
L 290.389935 38.987895 
L 291.497075 38.987895 
L 291.590838 36.726876 
L 291.710371 36.726876 
L 291.710371 35.973203 
L 291.959015 35.973203 
L 291.959015 35.219529 
L 293.347198 35.219529 
L 293.347198 34.465856 
L 293.574579 34.465856 
L 293.574579 33.712183 
L 293.861669 33.712183 
L 293.861669 32.95851 
L 294.719583 32.95851 
L 294.719583 32.204837 
L 294.907148 32.204837 
L 294.907148 31.451163 
L 295.56774 31.451163 
L 295.56774 30.69749 
L 295.816385 30.69749 
L 295.858084 29.190144 
L 296.148379 29.190144 
L 296.148379 28.436471 
L 296.397024 28.436471 
L 296.397024 27.682797 
L 296.736736 27.682797 
L 296.736736 26.929124 
L 297.51437 26.929124 
L 297.51437 26.175451 
L 297.763015 26.175451 
L 297.763015 25.421778 
L 298.337666 25.421778 
L 298.337666 24.668105 
L 300.573241 24.668105 
L 300.573241 23.914431 
L 300.821885 23.914431 
L 300.821885 23.160758 
L 300.992333 23.160758 
L 300.992333 22.407085 
L 301.707987 22.407085 
L 301.707987 21.653412 
L 302.897098 21.653412 
L 302.897098 20.899739 
L 304.162308 20.899739 
L 304.162308 20.146065 
L 304.942965 20.146065 
L 304.942965 19.392392 
L 305.985156 19.392392 
L 305.985156 18.638719 
L 306.660546 18.638719 
L 306.660546 17.885046 
L 307.150102 17.885046 
L 307.150102 17.131373 
L 307.832924 17.131373 
L 307.832924 16.377699 
L 308.192293 16.377699 
L 308.192293 15.624026 
L 308.309895 15.624026 
L 308.309895 14.870353 
L 308.548577 14.870353 
L 308.548577 14.11668 
L 308.931378 14.11668 
L 308.931378 13.363007 
L 310.517032 13.363007 
L 310.517032 12.609333 
L 311.002899 12.609333 
L 311.002899 11.85566 
L 313.842259 11.85566 
L 313.842259 11.101987 
L 314.090904 11.101987 
L 314.090904 10.348314 
L 318.356228 10.348314 
L 318.356228 9.594641 
L 319.728613 9.594641 
L 319.728613 8.840967 
L 322.331276 8.840967 
L 322.331276 8.087294 
L 322.579921 8.087294 
L 322.579921 7.333621 
L 330.346821 7.333621 
L 330.346821 6.579948 
L 337.187411 6.579948 
L 337.187411 5.826275 
L 453.192 5.826275 
L 453.192 5.826275 
" clip-path="url(#p79613d9d72)" style="fill: none; stroke: #bf00bf; stroke-width: 3; stroke-linecap: square"/>
   </g>
   <g id="line2d_52">
    <path clip-path="url(#p79613d9d72)" style="fill: none; stroke: #bf00bf; stroke-width: 3; stroke-linecap: square"/>
   </g>
   <g id="line2d_53">
    <path d="M 34.16 288.453725 
L 81.802954 288.453725 
L 81.802954 287.700052 
L 96.164231 287.700052 
L 96.164231 286.946379 
L 98.037881 286.946379 
L 98.037881 286.192706 
L 107.34827 286.192706 
L 107.34827 285.439033 
L 107.621795 285.439033 
L 107.621795 284.685359 
L 121.709546 284.685359 
L 121.709546 283.931686 
L 121.983072 283.931686 
L 121.983072 283.178013 
L 123.583197 283.178013 
L 123.583197 282.42434 
L 123.856722 282.42434 
L 123.856722 281.670667 
L 151.62199 281.670667 
L 151.62199 280.916993 
L 158.22361 280.916993 
L 158.22361 280.16332 
L 159.735202 280.16332 
L 159.735202 279.409647 
L 160.082961 279.409647 
L 160.082961 278.655974 
L 160.470281 278.655974 
L 160.470281 277.902301 
L 161.594553 277.902301 
L 161.594553 277.148627 
L 162.195192 277.148627 
L 162.195192 276.394954 
L 162.329632 276.394954 
L 162.329632 275.641281 
L 163.706784 275.641281 
L 163.706784 274.887608 
L 164.441863 274.887608 
L 164.441863 274.133935 
L 171.131129 274.133935 
L 171.131129 273.380261 
L 171.656889 273.380261 
L 171.656889 272.626588 
L 172.642721 272.626588 
L 172.642721 271.872915 
L 173.169375 271.872915 
L 173.169375 271.119242 
L 173.3778 271.119242 
L 173.3778 270.365569 
L 175.793567 270.365569 
L 175.793567 269.611895 
L 177.167306 269.611895 
L 177.167306 268.858222 
L 177.440831 268.858222 
L 177.440831 268.104549 
L 178.680133 268.104549 
L 178.680133 267.350876 
L 181.81811 267.350876 
L 181.81811 266.597203 
L 183.364168 266.597203 
L 183.402374 265.089856 
L 183.601858 265.089856 
L 183.677461 263.58251 
L 184.889631 263.58251 
L 184.889631 262.828837 
L 185.261725 262.828837 
L 185.261725 262.075163 
L 185.595282 262.075163 
L 185.595282 261.32149 
L 185.78161 261.32149 
L 185.789693 259.814144 
L 186.018166 259.814144 
L 186.018166 259.060471 
L 186.504086 259.060471 
L 186.504086 258.306797 
L 187.350099 258.306797 
L 187.373956 256.799451 
L 187.530652 256.799451 
L 187.530652 256.045778 
L 187.796889 256.045778 
L 187.891816 254.538431 
L 189.404302 254.538431 
L 189.404302 253.784758 
L 190.082896 253.784758 
L 190.082896 253.031085 
L 192.730513 253.031085 
L 192.730513 252.277412 
L 194.006814 252.277412 
L 194.006814 251.523739 
L 194.242105 251.523739 
L 194.242105 250.770065 
L 194.407376 250.770065 
L 194.407376 250.016392 
L 194.72563 250.016392 
L 194.72563 249.262719 
L 194.977185 249.262719 
L 194.977185 248.509046 
L 195.617097 248.509046 
L 195.617097 247.755373 
L 196.309893 247.755373 
L 196.309893 247.001699 
L 198.235802 247.001699 
L 198.300535 245.494353 
L 199.695242 245.494353 
L 199.695242 244.74068 
L 201.338883 244.74068 
L 201.338883 243.987007 
L 201.612408 243.987007 
L 201.612408 243.233333 
L 204.580551 243.233333 
L 204.580551 242.47966 
L 205.662084 242.47966 
L 205.662084 241.725987 
L 207.014532 241.725987 
L 207.014532 240.972314 
L 209.147173 240.972314 
L 209.147173 240.218641 
L 209.420699 240.218641 
L 209.420699 239.464967 
L 209.586002 239.464967 
L 209.624608 237.957621 
L 210.434947 237.957621 
L 210.434947 237.203948 
L 210.708472 237.203948 
L 210.708472 236.450275 
L 211.140597 236.450275 
L 211.140597 235.696601 
L 211.300051 235.696601 
L 211.366729 233.435582 
L 211.414123 233.435582 
L 211.414123 232.681908 
L 211.574127 232.681908 
L 211.60045 231.174562 
L 212.049402 231.174562 
L 212.049402 230.420889 
L 212.292674 230.420889 
L 212.322927 228.913542 
L 212.434336 228.913542 
L 212.501723 227.406196 
L 212.895414 227.406196 
L 212.895414 226.652523 
L 213.16894 226.652523 
L 213.16894 225.89885 
L 213.342205 225.89885 
L 213.342205 225.145176 
L 213.548525 225.145176 
L 213.61573 223.63783 
L 213.664639 223.63783 
L 213.664639 222.884157 
L 213.977739 222.884157 
L 214.027778 221.37681 
L 214.105784 221.37681 
L 214.105784 220.623137 
L 214.345591 220.623137 
L 214.345591 219.869464 
L 214.589075 219.869464 
L 214.589075 219.115791 
L 215.237499 219.115791 
L 215.300306 217.608444 
L 215.39982 217.608444 
L 215.39982 216.854771 
L 215.924052 216.854771 
L 215.924052 216.101098 
L 216.325014 216.101098 
L 216.325014 215.347425 
L 216.88517 215.347425 
L 216.88517 214.593752 
L 217.435644 214.593752 
L 217.435644 213.840078 
L 217.570044 213.840078 
L 217.570044 213.086405 
L 217.856203 213.086405 
L 217.909278 211.579059 
L 218.170723 211.579059 
L 218.17644 210.071712 
L 218.313455 210.071712 
L 218.313455 209.318039 
L 218.443219 209.318039 
L 218.443219 208.564366 
L 218.689991 208.564366 
L 218.689991 207.810693 
L 218.834283 207.810693 
L 218.834283 207.05702 
L 219.081636 207.05702 
L 219.142147 205.549673 
L 219.816715 205.549673 
L 219.816715 204.796 
L 219.95481 204.796 
L 219.95481 204.042327 
L 220.182164 204.042327 
L 220.182164 203.288654 
L 220.307794 203.288654 
L 220.345875 201.781307 
L 220.68989 201.781307 
L 220.68989 201.027634 
L 220.86868 201.027634 
L 220.86868 200.273961 
L 221.075211 200.273961 
L 221.080954 198.766614 
L 221.517515 198.766614 
L 221.517515 198.012941 
L 221.693756 198.012941 
L 221.693756 197.259268 
L 222.428835 197.259268 
L 222.456677 194.998248 
L 222.665578 194.998248 
L 222.665578 194.244575 
L 223.64689 194.244575 
L 223.64689 193.490902 
L 224.136219 193.490902 
L 224.136219 192.737229 
L 225.51649 192.737229 
L 225.51649 191.983556 
L 225.757652 191.983556 
L 225.757652 191.229882 
L 226.555472 191.229882 
L 226.555472 190.476209 
L 226.879238 190.476209 
L 226.879238 189.722536 
L 227.320426 189.722536 
L 227.320426 188.968863 
L 227.432158 188.968863 
L 227.487921 187.461516 
L 228.730987 187.461516 
L 228.76541 185.95417 
L 228.894595 185.95417 
L 228.894595 185.200497 
L 229.995713 185.200497 
L 229.995713 184.446824 
L 230.135258 184.446824 
L 230.135258 183.69315 
L 230.308813 183.69315 
L 230.308813 182.939477 
L 230.436859 182.939477 
L 230.437465 181.432131 
L 230.841762 181.432131 
L 230.920149 179.924784 
L 231.631381 179.924784 
L 231.730894 178.417438 
L 232.209554 178.417438 
L 232.209554 177.663765 
L 233.22463 177.663765 
L 233.22463 176.910092 
L 233.755628 176.910092 
L 233.755628 176.156418 
L 235.021065 176.156418 
L 235.021065 175.402745 
L 235.473222 175.402745 
L 235.473222 174.649072 
L 236.0847 174.649072 
L 236.0847 173.895399 
L 236.505571 173.895399 
L 236.505571 173.141725 
L 236.912044 173.141725 
L 236.912044 172.388052 
L 237.148547 172.388052 
L 237.18557 170.880706 
L 237.315003 170.880706 
L 237.406285 169.373359 
L 237.628104 169.373359 
L 237.718152 167.866013 
L 237.756149 167.866013 
L 237.83799 166.358667 
L 237.933857 166.358667 
L 237.933857 165.604993 
L 238.111515 165.604993 
L 238.111515 164.85132 
L 238.239439 164.85132 
L 238.244766 163.343974 
L 238.755526 163.343974 
L 238.807786 161.082954 
L 238.950671 161.082954 
L 239.050184 159.575608 
L 239.226078 159.575608 
L 239.226078 158.821935 
L 239.518552 158.821935 
L 239.518552 158.068261 
L 239.716496 158.068261 
L 239.716496 157.314588 
L 239.890906 157.314588 
L 239.890906 156.560915 
L 240.043124 156.560915 
L 240.067883 155.053569 
L 240.164432 155.053569 
L 240.164432 154.299895 
L 240.489082 154.299895 
L 240.489082 153.546222 
L 240.644295 153.546222 
L 240.644295 152.792549 
L 241.095678 152.792549 
L 241.164544 150.531529 
L 241.33684 150.531529 
L 241.33684 149.777856 
L 241.475925 149.777856 
L 241.571891 147.516837 
L 241.874598 147.516837 
L 241.874598 146.763163 
L 242.037719 146.763163 
L 242.06716 145.255817 
L 242.187698 145.255817 
L 242.289795 142.241124 
L 242.315743 142.241124 
L 242.340355 140.733778 
L 242.428783 140.733778 
L 242.428783 139.980105 
L 242.748808 139.980105 
L 242.802194 136.211739 
L 242.899614 136.211739 
L 242.988411 134.704392 
L 243.011346 134.704392 
L 243.115294 132.443373 
L 243.188602 132.443373 
L 243.24334 130.936026 
L 243.510265 130.936026 
L 243.609779 129.42868 
L 243.621983 129.42868 
L 243.72663 127.921333 
L 243.776664 127.921333 
L 243.837456 126.413987 
L 243.991801 126.413987 
L 244.014932 124.152967 
L 244.213873 124.152967 
L 244.310174 122.645621 
L 244.395362 122.645621 
L 244.437862 121.138275 
L 244.537375 121.138275 
L 244.537375 120.384601 
L 244.725575 120.384601 
L 244.725575 119.630928 
L 245.058202 119.630928 
L 245.058202 118.877255 
L 245.299364 118.877255 
L 245.360928 116.616235 
L 245.526524 116.616235 
L 245.526524 115.862562 
L 245.714445 115.862562 
L 245.714445 115.108889 
L 246.016652 115.108889 
L 246.107042 113.601542 
L 246.175874 113.601542 
L 246.261603 112.094196 
L 246.769098 112.094196 
L 246.862138 109.833176 
L 246.89995 109.833176 
L 246.97387 108.32583 
L 247.029632 108.32583 
L 247.029632 107.572157 
L 247.352106 107.572157 
L 247.352106 106.818484 
L 247.556691 106.818484 
L 247.556691 106.06481 
L 247.827546 106.06481 
L 247.936796 104.557464 
L 247.960534 104.557464 
L 247.960534 103.803791 
L 248.272698 103.803791 
L 248.347176 101.542771 
L 248.439386 101.542771 
L 248.514997 100.035425 
L 249.146518 100.035425 
L 249.146518 99.281752 
L 249.28517 99.281752 
L 249.28517 98.528078 
L 249.676969 98.528078 
L 249.676969 97.774405 
L 249.979176 97.774405 
L 249.979176 97.020732 
L 250.212766 97.020732 
L 250.212766 96.267059 
L 250.666636 96.267059 
L 250.666636 95.513386 
L 250.798608 95.513386 
L 250.798608 94.759712 
L 251.594233 94.759712 
L 251.594233 94.006039 
L 251.765222 94.006039 
L 251.765222 93.252366 
L 252.45589 93.252366 
L 252.45589 92.498693 
L 254.441784 92.498693 
L 254.535029 90.991346 
L 254.795013 90.991346 
L 254.795013 90.237673 
L 255.74475 90.237673 
L 255.74475 89.484 
L 256.04757 89.484 
L 256.04757 88.730327 
L 258.363454 88.730327 
L 258.375928 87.22298 
L 258.618898 87.22298 
L 258.618898 86.469307 
L 259.974549 86.469307 
L 259.974549 85.715634 
L 260.16853 85.715634 
L 260.16853 84.961961 
L 261.285038 84.961961 
L 261.318174 83.454614 
L 263.36686 83.454614 
L 263.36686 82.700941 
L 263.637625 82.700941 
L 263.637625 81.947268 
L 263.937073 81.947268 
L 263.937073 81.193595 
L 264.655944 81.193595 
L 264.655944 80.439922 
L 265.221888 80.439922 
L 265.221888 79.686248 
L 265.647502 79.686248 
L 265.647502 78.932575 
L 265.807311 78.932575 
L 265.807311 78.178902 
L 265.938188 78.178902 
L 265.938188 77.425229 
L 266.788624 77.425229 
L 266.788624 76.671556 
L 267.159988 76.671556 
L 267.159988 75.917882 
L 267.48782 75.917882 
L 267.580936 74.410536 
L 267.609432 74.410536 
L 267.609432 73.656863 
L 267.926455 73.656863 
L 267.926455 72.90319 
L 268.059788 72.90319 
L 268.161427 71.395843 
L 268.227556 71.395843 
L 268.227556 70.64217 
L 268.658224 70.64217 
L 268.658224 69.888497 
L 268.854051 69.888497 
L 268.904521 67.627477 
L 269.193696 67.627477 
L 269.193696 66.873804 
L 269.739148 66.873804 
L 269.739148 66.120131 
L 270.41459 66.120131 
L 270.497782 61.598092 
L 270.573892 61.598092 
L 270.629654 60.090745 
L 271.425379 60.090745 
L 271.425379 59.337072 
L 271.842876 59.337072 
L 271.87272 57.829725 
L 272.047415 57.829725 
L 272.047415 57.076052 
L 272.650565 57.076052 
L 272.650565 56.322379 
L 272.975011 56.322379 
L 272.975011 55.568706 
L 273.276991 55.568706 
L 273.276991 54.815033 
L 273.455793 54.815033 
L 273.455793 54.061359 
L 273.579198 54.061359 
L 273.631877 52.554013 
L 273.860952 52.554013 
L 273.860952 51.80034 
L 274.339804 51.80034 
L 274.398101 50.292993 
L 274.743566 50.292993 
L 274.743566 49.53932 
L 274.968278 49.53932 
L 274.968278 48.785647 
L 275.449217 48.785647 
L 275.501477 47.278301 
L 275.635545 47.278301 
L 275.742639 45.770954 
L 275.976179 45.770954 
L 275.976179 45.017281 
L 276.256052 45.017281 
L 276.358021 43.509935 
L 276.699025 43.509935 
L 276.699025 42.756261 
L 276.961702 42.756261 
L 277.012822 41.248915 
L 277.14803 41.248915 
L 277.250732 38.987895 
L 277.305413 38.987895 
L 277.305413 38.234222 
L 277.417145 38.234222 
L 277.472908 36.726876 
L 277.650824 36.726876 
L 277.650824 35.973203 
L 277.870507 35.973203 
L 277.870507 35.219529 
L 278.441108 35.219529 
L 278.441108 34.465856 
L 278.715974 34.465856 
L 278.716519 32.95851 
L 279.16331 32.95851 
L 279.16331 32.204837 
L 280.084893 32.204837 
L 280.120245 30.69749 
L 280.422452 30.69749 
L 280.422452 29.943817 
L 280.996333 29.943817 
L 280.996333 29.190144 
L 282.424016 29.190144 
L 282.424016 28.436471 
L 282.574411 28.436471 
L 282.574411 27.682797 
L 286.683125 27.682797 
L 286.683125 26.929124 
L 287.537095 26.929124 
L 287.537095 26.175451 
L 289.022248 26.175451 
L 289.022248 25.421778 
L 291.822056 25.421778 
L 291.822056 24.668105 
L 292.284946 24.668105 
L 292.284946 23.914431 
L 293.254092 23.914431 
L 293.254092 23.160758 
L 293.40632 23.160758 
L 293.40632 22.407085 
L 294.380349 22.407085 
L 294.380349 21.653412 
L 294.765684 21.653412 
L 294.765684 20.899739 
L 295.500763 20.899739 
L 295.500763 20.146065 
L 296.871134 20.146065 
L 296.871134 19.392392 
L 298.883179 19.392392 
L 298.883179 18.638719 
L 301.220664 18.638719 
L 301.220664 17.885046 
L 301.489955 17.885046 
L 301.489955 17.131373 
L 301.968807 17.131373 
L 301.968807 16.377699 
L 302.146609 16.377699 
L 302.146609 15.624026 
L 302.733149 15.624026 
L 302.733149 14.870353 
L 303.15115 14.870353 
L 303.15115 14.11668 
L 303.659095 14.11668 
L 303.659095 13.363007 
L 304.199526 13.363007 
L 304.199526 12.609333 
L 304.328028 12.609333 
L 304.328028 11.85566 
L 305.712011 11.85566 
L 305.712011 11.101987 
L 308.088187 11.101987 
L 308.088187 10.348314 
L 308.567039 10.348314 
L 308.567039 9.594641 
L 310.92626 9.594641 
L 310.92626 8.840967 
L 316.848593 8.840967 
L 316.848593 8.087294 
L 318.432856 8.087294 
L 318.432856 7.333621 
L 330.780153 7.333621 
L 330.780153 6.579948 
L 337.378385 6.579948 
L 337.378385 5.826275 
L 453.192 5.826275 
L 453.192 5.826275 
" clip-path="url(#p79613d9d72)" style="fill: none; stroke: #ff0000; stroke-width: 3; stroke-linecap: square"/>
   </g>
   <g id="line2d_54">
    <path clip-path="url(#p79613d9d72)" style="fill: none; stroke: #ff0000; stroke-width: 3; stroke-linecap: square"/>
   </g>
   <g id="line2d_55">
    <path d="M 243.676 291.28 
L 243.676 3 
" clip-path="url(#p79613d9d72)" style="fill: none; stroke: #000000; stroke-width: 1.5; stroke-linecap: square"/>
   </g>
   <g id="line2d_56">
    <path d="M 34.16 147.14 
L 453.192 147.14 
" clip-path="url(#p79613d9d72)" style="fill: none; stroke-dasharray: 2,3.3; stroke-dashoffset: 0; stroke: #000000; stroke-width: 2"/>
   </g>
   <g id="patch_3">
    <path d="M 34.16 291.28 
L 34.16 3 
" style="fill: none; stroke: #000000; stroke-width: 0.8; stroke-linejoin: miter; stroke-linecap: square"/>
   </g>
   <g id="patch_4">
    <path d="M 453.192 291.28 
L 453.192 3 
" style="fill: none; stroke: #000000; stroke-width: 0.8; stroke-linejoin: miter; stroke-linecap: square"/>
   </g>
   <g id="patch_5">
    <path d="M 34.16 291.28 
L 453.192 291.28 
" style="fill: none; stroke: #000000; stroke-width: 0.8; stroke-linejoin: miter; stroke-linecap: square"/>
   </g>
   <g id="patch_6">
    <path d="M 34.16 3 
L 453.192 3 
" style="fill: none; stroke: #000000; stroke-width: 0.8; stroke-linejoin: miter; stroke-linecap: square"/>
   </g>
   <g id="text_5">
    <!-- f15-f19,5-D -->
    <g transform="translate(330.91761 285.5144)scale(0.2 -0.2)">
     <defs>
      <path id="DejaVuSans-35" d="M 691 4666 
L 3169 4666 
L 3169 4134 
L 1269 4134 
L 1269 2991 
Q 1406 3038 1543 3061 
Q 1681 3084 1819 3084 
Q 2600 3084 3056 2656 
Q 3513 2228 3513 1497 
Q 3513 744 3044 326 
Q 2575 -91 1722 -91 
Q 1428 -91 1123 -41 
Q 819 9 494 109 
L 494 744 
Q 775 591 1075 516 
Q 1375 441 1709 441 
Q 2250 441 2565 725 
Q 2881 1009 2881 1497 
Q 2881 1984 2565 2268 
Q 2250 2553 1709 2553 
Q 1456 2553 1204 2497 
Q 953 2441 691 2322 
L 691 4666 
z
" transform="scale(0.015625)"/>
      <path id="DejaVuSans-39" d="M 703 97 
L 703 672 
Q 941 559 1184 500 
Q 1428 441 1663 441 
Q 2288 441 2617 861 
Q 2947 1281 2994 2138 
Q 2813 1869 2534 1725 
Q 2256 1581 1919 1581 
Q 1219 1581 811 2004 
Q 403 2428 403 3163 
Q 403 3881 828 4315 
Q 1253 4750 1959 4750 
Q 2769 4750 3195 4129 
Q 3622 3509 3622 2328 
Q 3622 1225 3098 567 
Q 2575 -91 1691 -91 
Q 1453 -91 1209 -44 
Q 966 3 703 97 
z
M 1959 2075 
Q 2384 2075 2632 2365 
Q 2881 2656 2881 3163 
Q 2881 3666 2632 3958 
Q 2384 4250 1959 4250 
Q 1534 4250 1286 3958 
Q 1038 3666 1038 3163 
Q 1038 2656 1286 2365 
Q 1534 2075 1959 2075 
z
" transform="scale(0.015625)"/>
      <path id="DejaVuSans-2c" d="M 750 794 
L 1409 794 
L 1409 256 
L 897 -744 
L 494 -744 
L 750 256 
L 750 794 
z
" transform="scale(0.015625)"/>
      <path id="DejaVuSans-44" d="M 1259 4147 
L 1259 519 
L 2022 519 
Q 2988 519 3436 956 
Q 3884 1394 3884 2338 
Q 3884 3275 3436 3711 
Q 2988 4147 2022 4147 
L 1259 4147 
z
M 628 4666 
L 1925 4666 
Q 3281 4666 3915 4102 
Q 4550 3538 4550 2338 
Q 4550 1131 3912 565 
Q 3275 0 1925 0 
L 628 0 
L 628 4666 
z
" transform="scale(0.015625)"/>
     </defs>
     <use xlink:href="#DejaVuSans-66"/>
     <use xlink:href="#DejaVuSans-31" x="35.205078"/>
     <use xlink:href="#DejaVuSans-35" x="98.828125"/>
     <use xlink:href="#DejaVuSans-2d" x="162.451172"/>
     <use xlink:href="#DejaVuSans-66" x="198.535156"/>
     <use xlink:href="#DejaVuSans-31" x="233.740234"/>
     <use xlink:href="#DejaVuSans-39" x="297.363281"/>
     <use xlink:href="#DejaVuSans-2c" x="360.986328"/>
     <use xlink:href="#DejaVuSans-35" x="392.773438"/>
     <use xlink:href="#DejaVuSans-2d" x="456.396484"/>
     <use xlink:href="#DejaVuSans-44" x="492.480469"/>
    </g>
   </g>
   <g id="text_6">
    <!-- v2.6.1.158 -->
    <g style="fill: #808080" transform="translate(216.861937 286.317512)scale(0.1 -0.1)">
     <defs>
      <path id="DejaVuSans-32" d="M 1228 531 
L 3431 531 
L 3431 0 
L 469 0 
L 469 531 
Q 828 903 1448 1529 
Q 2069 2156 2228 2338 
Q 2531 2678 2651 2914 
Q 2772 3150 2772 3378 
Q 2772 3750 2511 3984 
Q 2250 4219 1831 4219 
Q 1534 4219 1204 4116 
Q 875 4013 500 3803 
L 500 4441 
Q 881 4594 1212 4672 
Q 1544 4750 1819 4750 
Q 2544 4750 2975 4387 
Q 3406 4025 3406 3419 
Q 3406 3131 3298 2873 
Q 3191 2616 2906 2266 
Q 2828 2175 2409 1742 
Q 1991 1309 1228 531 
z
" transform="scale(0.015625)"/>
      <path id="DejaVuSans-2e" d="M 684 794 
L 1344 794 
L 1344 0 
L 684 0 
L 684 794 
z
" transform="scale(0.015625)"/>
      <path id="DejaVuSans-36" d="M 2113 2584 
Q 1688 2584 1439 2293 
Q 1191 2003 1191 1497 
Q 1191 994 1439 701 
Q 1688 409 2113 409 
Q 2538 409 2786 701 
Q 3034 994 3034 1497 
Q 3034 2003 2786 2293 
Q 2538 2584 2113 2584 
z
M 3366 4563 
L 3366 3988 
Q 3128 4100 2886 4159 
Q 2644 4219 2406 4219 
Q 1781 4219 1451 3797 
Q 1122 3375 1075 2522 
Q 1259 2794 1537 2939 
Q 1816 3084 2150 3084 
Q 2853 3084 3261 2657 
Q 3669 2231 3669 1497 
Q 3669 778 3244 343 
Q 2819 -91 2113 -91 
Q 1303 -91 875 529 
Q 447 1150 447 2328 
Q 447 3434 972 4092 
Q 1497 4750 2381 4750 
Q 2619 4750 2861 4703 
Q 3103 4656 3366 4563 
z
" transform="scale(0.015625)"/>
      <path id="DejaVuSans-38" d="M 2034 2216 
Q 1584 2216 1326 1975 
Q 1069 1734 1069 1313 
Q 1069 891 1326 650 
Q 1584 409 2034 409 
Q 2484 409 2743 651 
Q 3003 894 3003 1313 
Q 3003 1734 2745 1975 
Q 2488 2216 2034 2216 
z
M 1403 2484 
Q 997 2584 770 2862 
Q 544 3141 544 3541 
Q 544 4100 942 4425 
Q 1341 4750 2034 4750 
Q 2731 4750 3128 4425 
Q 3525 4100 3525 3541 
Q 3525 3141 3298 2862 
Q 3072 2584 2669 2484 
Q 3125 2378 3379 2068 
Q 3634 1759 3634 1313 
Q 3634 634 3220 271 
Q 2806 -91 2034 -91 
Q 1263 -91 848 271 
Q 434 634 434 1313 
Q 434 1759 690 2068 
Q 947 2378 1403 2484 
z
M 1172 3481 
Q 1172 3119 1398 2916 
Q 1625 2713 2034 2713 
Q 2441 2713 2670 2916 
Q 2900 3119 2900 3481 
Q 2900 3844 2670 4047 
Q 2441 4250 2034 4250 
Q 1625 4250 1398 4047 
Q 1172 3844 1172 3481 
z
" transform="scale(0.015625)"/>
     </defs>
     <use xlink:href="#DejaVuSans-76"/>
     <use xlink:href="#DejaVuSans-32" x="59.179688"/>
     <use xlink:href="#DejaVuSans-2e" x="122.802734"/>
     <use xlink:href="#DejaVuSans-36" x="154.589844"/>
     <use xlink:href="#DejaVuSans-2e" x="218.212891"/>
     <use xlink:href="#DejaVuSans-31" x="250"/>
     <use xlink:href="#DejaVuSans-2e" x="313.623047"/>
     <use xlink:href="#DejaVuSans-31" x="345.410156"/>
     <use xlink:href="#DejaVuSans-35" x="409.033203"/>
     <use xlink:href="#DejaVuSans-38" x="472.65625"/>
    </g>
   </g>
   <g id="legend_1">
    <g id="patch_7">
     <path d="M 48.16 136.425 
L 177.381875 136.425 
Q 181.381875 136.425 181.381875 132.425 
L 181.381875 17 
Q 181.381875 13 177.381875 13 
L 48.16 13 
Q 44.16 13 44.16 17 
L 44.16 132.425 
Q 44.16 136.425 48.16 136.425 
z
" style="fill: #ffffff; opacity: 0.2; stroke: #cccccc; stroke-linejoin: miter"/>
    </g>
    <g id="line2d_57">
     <path d="M 52.16 29.196875 
L 72.16 29.196875 
L 92.16 29.196875 
" style="fill: none; stroke: #000000; stroke-width: 3; stroke-linecap: square"/>
    </g>
    <g id="text_7">
     <!-- 1: 5/5 -->
     <g transform="translate(108.16 36.196875)scale(0.2 -0.2)">
      <defs>
       <path id="DejaVuSans-3a" d="M 750 794 
L 1409 794 
L 1409 0 
L 750 0 
L 750 794 
z
M 750 3309 
L 1409 3309 
L 1409 2516 
L 750 2516 
L 750 3309 
z
" transform="scale(0.015625)"/>
       <path id="DejaVuSans-2f" d="M 1625 4666 
L 2156 4666 
L 531 -594 
L 0 -594 
L 1625 4666 
z
" transform="scale(0.015625)"/>
      </defs>
      <use xlink:href="#DejaVuSans-31"/>
      <use xlink:href="#DejaVuSans-3a" x="63.623047"/>
      <use xlink:href="#DejaVuSans-20" x="97.314453"/>
      <use xlink:href="#DejaVuSans-35" x="129.101562"/>
      <use xlink:href="#DejaVuSans-2f" x="192.724609"/>
      <use xlink:href="#DejaVuSans-35" x="226.416016"/>
     </g>
    </g>
    <g id="line2d_58">
     <path d="M 52.16 58.553125 
L 72.16 58.553125 
L 92.16 58.553125 
" style="fill: none; stroke: #00bfbf; stroke-width: 3; stroke-linecap: square"/>
    </g>
    <g id="text_8">
     <!-- -1: 5/5 -->
     <g transform="translate(108.16 65.553125)scale(0.2 -0.2)">
      <use xlink:href="#DejaVuSans-2d"/>
      <use xlink:href="#DejaVuSans-31" x="36.083984"/>
      <use xlink:href="#DejaVuSans-3a" x="99.707031"/>
      <use xlink:href="#DejaVuSans-20" x="133.398438"/>
      <use xlink:href="#DejaVuSans-35" x="165.185547"/>
      <use xlink:href="#DejaVuSans-2f" x="228.808594"/>
      <use xlink:href="#DejaVuSans-35" x="262.5"/>
     </g>
    </g>
    <g id="line2d_59">
     <path d="M 52.16 87.909375 
L 72.16 87.909375 
L 92.16 87.909375 
" style="fill: none; stroke: #bf00bf; stroke-width: 3; stroke-linecap: square"/>
    </g>
    <g id="text_9">
     <!-- -4: 5/5 -->
     <g transform="translate(108.16 94.909375)scale(0.2 -0.2)">
      <defs>
       <path id="DejaVuSans-34" d="M 2419 4116 
L 825 1625 
L 2419 1625 
L 2419 4116 
z
M 2253 4666 
L 3047 4666 
L 3047 1625 
L 3713 1625 
L 3713 1100 
L 3047 1100 
L 3047 0 
L 2419 0 
L 2419 1100 
L 313 1100 
L 313 1709 
L 2253 4666 
z
" transform="scale(0.015625)"/>
      </defs>
      <use xlink:href="#DejaVuSans-2d"/>
      <use xlink:href="#DejaVuSans-34" x="36.083984"/>
      <use xlink:href="#DejaVuSans-3a" x="99.707031"/>
      <use xlink:href="#DejaVuSans-20" x="133.398438"/>
      <use xlink:href="#DejaVuSans-35" x="165.185547"/>
      <use xlink:href="#DejaVuSans-2f" x="228.808594"/>
      <use xlink:href="#DejaVuSans-35" x="262.5"/>
     </g>
    </g>
    <g id="line2d_60">
     <path d="M 52.16 117.265625 
L 72.16 117.265625 
L 92.16 117.265625 
" style="fill: none; stroke: #ff0000; stroke-width: 3; stroke-linecap: square"/>
    </g>
    <g id="text_10">
     <!-- -8: 5/5 -->
     <g transform="translate(108.16 124.265625)scale(0.2 -0.2)">
      <use xlink:href="#DejaVuSans-2d"/>
      <use xlink:href="#DejaVuSans-38" x="36.083984"/>
      <use xlink:href="#DejaVuSans-3a" x="99.707031"/>
      <use xlink:href="#DejaVuSans-20" x="133.398438"/>
      <use xlink:href="#DejaVuSans-35" x="165.185547"/>
      <use xlink:href="#DejaVuSans-2f" x="228.808594"/>
      <use xlink:href="#DejaVuSans-35" x="262.5"/>
     </g>
    </g>
   </g>
  </g>
 </g>
 <defs>
  <clipPath id="p79613d9d72">
   <rect x="34.16" y="3" width="419.032" height="288.28"/>
  </clipPath>
 </defs>
</svg>
