<?xml version="1.0" encoding="utf-8" standalone="no"?>
<!DOCTYPE svg PUBLIC "-//W3C//DTD SVG 1.1//EN"
  "http://www.w3.org/Graphics/SVG/1.1/DTD/svg11.dtd">
<svg xmlns:xlink="http://www.w3.org/1999/xlink" width="460.8pt" height="345.6pt" viewBox="0 0 460.8 345.6" xmlns="http://www.w3.org/2000/svg" version="1.1">
 <metadata>
  <rdf:RDF xmlns:dc="http://purl.org/dc/elements/1.1/" xmlns:cc="http://creativecommons.org/ns#" xmlns:rdf="http://www.w3.org/1999/02/22-rdf-syntax-ns#">
   <cc:Work>
    <dc:type rdf:resource="http://purl.org/dc/dcmitype/StillImage"/>
    <dc:date>2023-04-07T14:50:08.285179</dc:date>
    <dc:format>image/svg+xml</dc:format>
    <dc:creator>
     <cc:Agent>
      <dc:title>Matplotlib v3.5.2, https://matplotlib.org/</dc:title>
     </cc:Agent>
    </dc:creator>
   </cc:Work>
  </rdf:RDF>
 </metadata>
 <defs>
  <style type="text/css">*{stroke-linejoin: round; stroke-linecap: butt}</style>
 </defs>
 <g id="figure_1">
  <g id="patch_1">
   <path d="M 0 345.6 
L 460.8 345.6 
L 460.8 0 
L 0 0 
z
" style="fill: #ffffff"/>
  </g>
  <g id="axes_1">
   <g id="patch_2">
    <path d="M 0 293.76 
L 460.8 293.76 
L 460.8 3.456 
L 0 3.456 
z
" style="fill: #ffffff"/>
   </g>
   <g id="matplotlib.axis_1">
    <g id="xtick_1">
     <g id="line2d_1">
      <path d="M 106.673963 293.76 
L 106.673963 3.456 
" clip-path="url(#pd048e51061)" style="fill: none; stroke: #b0b0b0; stroke-width: 0.8; stroke-linecap: square"/>
     </g>
     <g id="line2d_2">
      <defs>
       <path id="m4a0cdad6e9" d="M 0 0 
L 0 3.5 
" style="stroke: #000000; stroke-width: 0.8"/>
      </defs>
      <g>
       <use xlink:href="#m4a0cdad6e9" x="106.673963" y="293.76" style="stroke: #000000; stroke-width: 0.8"/>
      </g>
     </g>
     <g id="text_1">
      <!-- -4 -->
      <g transform="translate(96.703651 315.956875)scale(0.2 -0.2)">
       <defs>
        <path id="DejaVuSans-2d" d="M 313 2009 
L 1997 2009 
L 1997 1497 
L 313 1497 
L 313 2009 
z
" transform="scale(0.015625)"/>
        <path id="DejaVuSans-34" d="M 2419 4116 
L 825 1625 
L 2419 1625 
L 2419 4116 
z
M 2253 4666 
L 3047 4666 
L 3047 1625 
L 3713 1625 
L 3713 1100 
L 3047 1100 
L 3047 0 
L 2419 0 
L 2419 1100 
L 313 1100 
L 313 1709 
L 2253 4666 
z
" transform="scale(0.015625)"/>
       </defs>
       <use xlink:href="#DejaVuSans-2d"/>
       <use xlink:href="#DejaVuSans-34" x="36.083984"/>
      </g>
     </g>
    </g>
    <g id="xtick_2">
     <g id="line2d_3">
      <path d="M 213.463296 293.76 
L 213.463296 3.456 
" clip-path="url(#pd048e51061)" style="fill: none; stroke: #b0b0b0; stroke-width: 0.8; stroke-linecap: square"/>
     </g>
     <g id="line2d_4">
      <g>
       <use xlink:href="#m4a0cdad6e9" x="213.463296" y="293.76" style="stroke: #000000; stroke-width: 0.8"/>
      </g>
     </g>
     <g id="text_2">
      <!-- 0 -->
      <g transform="translate(207.100796 315.956875)scale(0.2 -0.2)">
       <defs>
        <path id="DejaVuSans-30" d="M 2034 4250 
Q 1547 4250 1301 3770 
Q 1056 3291 1056 2328 
Q 1056 1369 1301 889 
Q 1547 409 2034 409 
Q 2525 409 2770 889 
Q 3016 1369 3016 2328 
Q 3016 3291 2770 3770 
Q 2525 4250 2034 4250 
z
M 2034 4750 
Q 2819 4750 3233 4129 
Q 3647 3509 3647 2328 
Q 3647 1150 3233 529 
Q 2819 -91 2034 -91 
Q 1250 -91 836 529 
Q 422 1150 422 2328 
Q 422 3509 836 4129 
Q 1250 4750 2034 4750 
z
" transform="scale(0.015625)"/>
       </defs>
       <use xlink:href="#DejaVuSans-30"/>
      </g>
     </g>
    </g>
    <g id="xtick_3">
     <g id="line2d_5">
      <path d="M 320.252629 293.76 
L 320.252629 3.456 
" clip-path="url(#pd048e51061)" style="fill: none; stroke: #b0b0b0; stroke-width: 0.8; stroke-linecap: square"/>
     </g>
     <g id="line2d_6">
      <g>
       <use xlink:href="#m4a0cdad6e9" x="320.252629" y="293.76" style="stroke: #000000; stroke-width: 0.8"/>
      </g>
     </g>
     <g id="text_3">
      <!-- 4 -->
      <g transform="translate(313.890129 315.956875)scale(0.2 -0.2)">
       <use xlink:href="#DejaVuSans-34"/>
      </g>
     </g>
    </g>
    <g id="xtick_4">
     <g id="line2d_7">
      <path d="M 427.041961 293.76 
L 427.041961 3.456 
" clip-path="url(#pd048e51061)" style="fill: none; stroke: #b0b0b0; stroke-width: 0.8; stroke-linecap: square"/>
     </g>
     <g id="line2d_8">
      <g>
       <use xlink:href="#m4a0cdad6e9" x="427.041961" y="293.76" style="stroke: #000000; stroke-width: 0.8"/>
      </g>
     </g>
     <g id="text_4">
      <!-- 8 -->
      <g transform="translate(420.679461 315.956875)scale(0.2 -0.2)">
       <defs>
        <path id="DejaVuSans-38" d="M 2034 2216 
Q 1584 2216 1326 1975 
Q 1069 1734 1069 1313 
Q 1069 891 1326 650 
Q 1584 409 2034 409 
Q 2484 409 2743 651 
Q 3003 894 3003 1313 
Q 3003 1734 2745 1975 
Q 2488 2216 2034 2216 
z
M 1403 2484 
Q 997 2584 770 2862 
Q 544 3141 544 3541 
Q 544 4100 942 4425 
Q 1341 4750 2034 4750 
Q 2731 4750 3128 4425 
Q 3525 4100 3525 3541 
Q 3525 3141 3298 2862 
Q 3072 2584 2669 2484 
Q 3125 2378 3379 2068 
Q 3634 1759 3634 1313 
Q 3634 634 3220 271 
Q 2806 -91 2034 -91 
Q 1263 -91 848 271 
Q 434 634 434 1313 
Q 434 1759 690 2068 
Q 947 2378 1403 2484 
z
M 1172 3481 
Q 1172 3119 1398 2916 
Q 1625 2713 2034 2713 
Q 2441 2713 2670 2916 
Q 2900 3119 2900 3481 
Q 2900 3844 2670 4047 
Q 2441 4250 2034 4250 
Q 1625 4250 1398 4047 
Q 1172 3844 1172 3481 
z
" transform="scale(0.015625)"/>
       </defs>
       <use xlink:href="#DejaVuSans-38"/>
      </g>
     </g>
    </g>
    <g id="text_5">
     <!-- log10 of Df -->
     <g transform="translate(175.214063 339.313125)scale(0.2 -0.2)">
      <defs>
       <path id="DejaVuSans-6c" d="M 603 4863 
L 1178 4863 
L 1178 0 
L 603 0 
L 603 4863 
z
" transform="scale(0.015625)"/>
       <path id="DejaVuSans-6f" d="M 1959 3097 
Q 1497 3097 1228 2736 
Q 959 2375 959 1747 
Q 959 1119 1226 758 
Q 1494 397 1959 397 
Q 2419 397 2687 759 
Q 2956 1122 2956 1747 
Q 2956 2369 2687 2733 
Q 2419 3097 1959 3097 
z
M 1959 3584 
Q 2709 3584 3137 3096 
Q 3566 2609 3566 1747 
Q 3566 888 3137 398 
Q 2709 -91 1959 -91 
Q 1206 -91 779 398 
Q 353 888 353 1747 
Q 353 2609 779 3096 
Q 1206 3584 1959 3584 
z
" transform="scale(0.015625)"/>
       <path id="DejaVuSans-67" d="M 2906 1791 
Q 2906 2416 2648 2759 
Q 2391 3103 1925 3103 
Q 1463 3103 1205 2759 
Q 947 2416 947 1791 
Q 947 1169 1205 825 
Q 1463 481 1925 481 
Q 2391 481 2648 825 
Q 2906 1169 2906 1791 
z
M 3481 434 
Q 3481 -459 3084 -895 
Q 2688 -1331 1869 -1331 
Q 1566 -1331 1297 -1286 
Q 1028 -1241 775 -1147 
L 775 -588 
Q 1028 -725 1275 -790 
Q 1522 -856 1778 -856 
Q 2344 -856 2625 -561 
Q 2906 -266 2906 331 
L 2906 616 
Q 2728 306 2450 153 
Q 2172 0 1784 0 
Q 1141 0 747 490 
Q 353 981 353 1791 
Q 353 2603 747 3093 
Q 1141 3584 1784 3584 
Q 2172 3584 2450 3431 
Q 2728 3278 2906 2969 
L 2906 3500 
L 3481 3500 
L 3481 434 
z
" transform="scale(0.015625)"/>
       <path id="DejaVuSans-31" d="M 794 531 
L 1825 531 
L 1825 4091 
L 703 3866 
L 703 4441 
L 1819 4666 
L 2450 4666 
L 2450 531 
L 3481 531 
L 3481 0 
L 794 0 
L 794 531 
z
" transform="scale(0.015625)"/>
       <path id="DejaVuSans-20" transform="scale(0.015625)"/>
       <path id="DejaVuSans-66" d="M 2375 4863 
L 2375 4384 
L 1825 4384 
Q 1516 4384 1395 4259 
Q 1275 4134 1275 3809 
L 1275 3500 
L 2222 3500 
L 2222 3053 
L 1275 3053 
L 1275 0 
L 697 0 
L 697 3053 
L 147 3053 
L 147 3500 
L 697 3500 
L 697 3744 
Q 697 4328 969 4595 
Q 1241 4863 1831 4863 
L 2375 4863 
z
" transform="scale(0.015625)"/>
       <path id="DejaVuSans-44" d="M 1259 4147 
L 1259 519 
L 2022 519 
Q 2988 519 3436 956 
Q 3884 1394 3884 2338 
Q 3884 3275 3436 3711 
Q 2988 4147 2022 4147 
L 1259 4147 
z
M 628 4666 
L 1925 4666 
Q 3281 4666 3915 4102 
Q 4550 3538 4550 2338 
Q 4550 1131 3912 565 
Q 3275 0 1925 0 
L 628 0 
L 628 4666 
z
" transform="scale(0.015625)"/>
      </defs>
      <use xlink:href="#DejaVuSans-6c"/>
      <use xlink:href="#DejaVuSans-6f" x="27.783203"/>
      <use xlink:href="#DejaVuSans-67" x="88.964844"/>
      <use xlink:href="#DejaVuSans-31" x="152.441406"/>
      <use xlink:href="#DejaVuSans-30" x="216.064453"/>
      <use xlink:href="#DejaVuSans-20" x="279.6875"/>
      <use xlink:href="#DejaVuSans-6f" x="311.474609"/>
      <use xlink:href="#DejaVuSans-66" x="372.65625"/>
      <use xlink:href="#DejaVuSans-20" x="407.861328"/>
      <use xlink:href="#DejaVuSans-44" x="439.648438"/>
      <use xlink:href="#DejaVuSans-66" x="516.650391"/>
     </g>
    </g>
   </g>
   <g id="matplotlib.axis_2">
    <g id="ytick_1">
     <g id="line2d_9">
      <path d="M 0 293.76 
L 460.8 293.76 
" clip-path="url(#pd048e51061)" style="fill: none; stroke: #b0b0b0; stroke-width: 0.8; stroke-linecap: square"/>
     </g>
     <g id="line2d_10">
      <defs>
       <path id="m1dfdda91c1" d="M 0 0 
L -3.5 0 
" style="stroke: #000000; stroke-width: 0.8"/>
      </defs>
      <g>
       <use xlink:href="#m1dfdda91c1" x="0" y="293.76" style="stroke: #000000; stroke-width: 0.8"/>
      </g>
     </g>
    </g>
    <g id="ytick_2">
     <g id="line2d_11">
      <path d="M 0 236.274059 
L 460.8 236.274059 
" clip-path="url(#pd048e51061)" style="fill: none; stroke: #b0b0b0; stroke-width: 0.8; stroke-linecap: square"/>
     </g>
     <g id="line2d_12">
      <g>
       <use xlink:href="#m1dfdda91c1" x="0" y="236.274059" style="stroke: #000000; stroke-width: 0.8"/>
      </g>
     </g>
    </g>
    <g id="ytick_3">
     <g id="line2d_13">
      <path d="M 0 178.788119 
L 460.8 178.788119 
" clip-path="url(#pd048e51061)" style="fill: none; stroke: #b0b0b0; stroke-width: 0.8; stroke-linecap: square"/>
     </g>
     <g id="line2d_14">
      <g>
       <use xlink:href="#m1dfdda91c1" x="0" y="178.788119" style="stroke: #000000; stroke-width: 0.8"/>
      </g>
     </g>
    </g>
    <g id="ytick_4">
     <g id="line2d_15">
      <path d="M 0 121.302178 
L 460.8 121.302178 
" clip-path="url(#pd048e51061)" style="fill: none; stroke: #b0b0b0; stroke-width: 0.8; stroke-linecap: square"/>
     </g>
     <g id="line2d_16">
      <g>
       <use xlink:href="#m1dfdda91c1" x="0" y="121.302178" style="stroke: #000000; stroke-width: 0.8"/>
      </g>
     </g>
    </g>
    <g id="ytick_5">
     <g id="line2d_17">
      <path d="M 0 63.816238 
L 460.8 63.816238 
" clip-path="url(#pd048e51061)" style="fill: none; stroke: #b0b0b0; stroke-width: 0.8; stroke-linecap: square"/>
     </g>
     <g id="line2d_18">
      <g>
       <use xlink:href="#m1dfdda91c1" x="0" y="63.816238" style="stroke: #000000; stroke-width: 0.8"/>
      </g>
     </g>
    </g>
    <g id="ytick_6">
     <g id="line2d_19">
      <path d="M 0 6.330297 
L 460.8 6.330297 
" clip-path="url(#pd048e51061)" style="fill: none; stroke: #b0b0b0; stroke-width: 0.8; stroke-linecap: square"/>
     </g>
     <g id="line2d_20">
      <g>
       <use xlink:href="#m1dfdda91c1" x="0" y="6.330297" style="stroke: #000000; stroke-width: 0.8"/>
      </g>
     </g>
    </g>
   </g>
   <g id="line2d_21">
    <path d="M -1 75.792475 
L -0.98564 75.792475 
L -0.911317 74.195644 
L -0.834856 74.195644 
L -0.734658 71.800396 
L -0.698901 71.800396 
L -0.588559 67.009901 
L -0.563052 67.009901 
L -0.536799 64.614653 
L -0.413231 64.614653 
L -0.320512 62.219406 
L -0.248837 62.219406 
L -0.18729 59.025743 
L -0.115369 59.025743 
L -0.115369 47.049505 
L 149.724804 47.049505 
L 149.724804 46.251089 
L 177.065907 46.251089 
L 177.065907 45.452673 
L 180.097176 45.452673 
L 180.097176 44.654257 
L 185.972751 44.654257 
L 185.972751 43.855842 
L 187.571561 43.855842 
L 187.571561 43.057426 
L 190.822635 43.057426 
L 190.822635 42.25901 
L 196.238699 42.25901 
L 196.238699 41.460594 
L 203.86808 41.460594 
L 203.86808 40.662178 
L 204.341316 40.662178 
L 204.341316 39.863762 
L 204.588394 39.863762 
L 204.588394 39.065347 
L 206.807177 39.065347 
L 206.807177 38.266931 
L 207.006459 38.266931 
L 207.087943 36.670099 
L 207.258583 36.670099 
L 207.258583 35.871683 
L 207.62505 35.871683 
L 207.62505 35.073267 
L 209.098465 35.073267 
L 209.192157 32.67802 
L 210.270495 32.67802 
L 210.270495 31.879604 
L 211.328428 31.879604 
L 211.328428 31.081188 
L 211.946534 31.081188 
L 211.946534 30.282772 
L 212.621842 30.282772 
L 212.621842 29.484356 
L 212.839803 29.484356 
L 212.839803 28.685941 
L 213.404701 28.685941 
L 213.404701 27.887525 
L 215.132455 27.887525 
L 215.132455 27.089109 
L 217.972183 27.089109 
L 217.972183 26.290693 
L 221.279218 26.290693 
L 221.279218 25.492277 
L 221.441399 25.492277 
L 221.441399 24.693861 
L 222.823196 24.693861 
L 222.823196 23.895446 
L 224.993064 23.895446 
L 224.993064 23.09703 
L 225.739154 23.09703 
L 225.739154 22.298614 
L 226.142566 22.298614 
L 226.142566 13.51604 
L 228.15097 13.51604 
L 228.15097 12.717624 
L 232.151527 12.717624 
L 232.216484 8.725545 
L 232.267931 8.725545 
L 232.371619 6.330297 
L 232.371619 6.330297 
L 460.8 6.330297 
L 460.8 6.330297 
" clip-path="url(#pd048e51061)" style="fill: none; stroke: #ff0000; stroke-width: 3; stroke-linecap: square"/>
   </g>
   <g id="line2d_22">
    <path d="M 197.40722 293.76 
L 197.40722 281.783762 
L 213.775521 281.783762 
L 213.775521 280.985347 
L 231.858903 280.985347 
L 231.858903 280.186931 
L 232.19201 280.186931 
L 232.19201 279.388515 
L 233.502654 279.388515 
L 233.502654 278.590099 
L 234.269099 278.590099 
L 234.269099 277.791683 
L 234.418132 277.791683 
L 234.418132 276.993267 
L 235.356774 276.993267 
L 235.356774 276.194851 
L 235.546567 276.194851 
L 235.546567 275.396436 
L 236.90841 275.396436 
L 236.90841 274.59802 
L 238.106247 274.59802 
L 238.106247 273.799604 
L 238.42018 273.799604 
L 238.42018 273.001188 
L 239.268695 273.001188 
L 239.314341 271.404356 
L 239.432122 271.404356 
L 239.432122 270.605941 
L 240.03113 270.605941 
L 240.03113 269.807525 
L 240.163981 269.807525 
L 240.163981 269.009109 
L 240.331272 269.009109 
L 240.331272 268.210693 
L 240.849503 268.210693 
L 240.861178 266.613861 
L 241.472516 266.613861 
L 241.472516 265.815446 
L 242.12038 265.815446 
L 242.12038 265.01703 
L 242.720929 265.01703 
L 242.720929 264.218614 
L 242.990733 264.218614 
L 243.044547 262.621782 
L 243.27244 262.621782 
L 243.304852 261.02495 
L 244.318723 261.02495 
L 244.379619 259.428119 
L 244.476304 259.428119 
L 244.498836 257.831287 
L 244.750737 257.831287 
L 244.750737 257.032871 
L 245.31253 257.032871 
L 245.31253 256.234455 
L 245.790474 256.234455 
L 245.790474 255.43604 
L 246.06595 255.43604 
L 246.06595 254.637624 
L 246.41729 254.637624 
L 246.41729 253.839208 
L 246.793748 253.839208 
L 246.793748 253.040792 
L 247.076124 253.040792 
L 247.076124 252.242376 
L 247.38642 252.242376 
L 247.424505 250.645545 
L 248.000341 250.645545 
L 248.018967 249.048713 
L 248.30717 249.048713 
L 248.368551 247.451881 
L 248.49074 247.451881 
L 248.49074 246.653465 
L 249.513539 246.653465 
L 249.513539 245.85505 
L 249.696089 245.85505 
L 249.696089 245.056634 
L 250.17143 245.056634 
L 250.270289 243.459802 
L 250.313788 243.459802 
L 250.320991 241.86297 
L 250.438923 241.86297 
L 250.438923 241.064554 
L 251.02601 241.064554 
L 251.02601 240.266139 
L 251.236289 240.266139 
L 251.280423 226.693069 
L 251.365004 226.693069 
L 251.46588 225.096238 
L 252.064814 225.096238 
L 252.064814 224.297822 
L 252.586521 224.297822 
L 252.652475 222.70099 
L 253.078759 222.70099 
L 253.078759 221.902574 
L 253.27559 221.902574 
L 253.370886 220.305743 
L 253.476101 220.305743 
L 253.534589 218.708911 
L 253.666209 218.708911 
L 253.667561 217.112079 
L 253.89285 217.112079 
L 253.89285 216.313663 
L 254.134645 216.313663 
L 254.134645 215.515248 
L 254.426054 215.515248 
L 254.534002 213.12 
L 254.621761 213.12 
L 254.621761 212.321584 
L 254.849024 212.321584 
L 254.95932 210.724752 
L 255.693152 210.724752 
L 255.693152 209.926337 
L 256.07338 209.926337 
L 256.07338 209.127921 
L 256.293364 209.127921 
L 256.293364 208.329505 
L 256.633047 208.329505 
L 256.738142 206.732673 
L 256.872231 206.732673 
L 256.887395 205.135842 
L 257.210735 205.135842 
L 257.210735 204.337426 
L 257.381042 204.337426 
L 257.421437 202.740594 
L 257.530683 202.740594 
L 257.609193 201.143762 
L 257.807456 201.143762 
L 257.870205 198.748515 
L 258.050055 198.748515 
L 258.050055 197.950099 
L 258.507622 197.950099 
L 258.588949 196.353267 
L 258.893661 196.353267 
L 258.893661 195.554851 
L 259.583718 195.554851 
L 259.583718 194.756436 
L 260.088521 194.756436 
L 260.088521 193.95802 
L 260.672449 193.95802 
L 260.672449 193.159604 
L 261.119877 193.159604 
L 261.226158 190.764356 
L 261.423472 190.764356 
L 261.423472 189.965941 
L 261.541053 189.965941 
L 261.629695 188.369109 
L 261.65556 188.369109 
L 261.65556 187.570693 
L 261.786937 187.570693 
L 261.786937 186.772277 
L 262.06964 186.772277 
L 262.072683 185.175446 
L 262.531246 185.175446 
L 262.642275 181.981782 
L 262.653488 181.981782 
L 262.695503 180.38495 
L 262.853705 180.38495 
L 262.942122 177.989703 
L 262.969432 177.989703 
L 263.046396 176.392871 
L 263.150156 176.392871 
L 263.175418 173.199208 
L 263.305927 173.199208 
L 263.305927 172.400792 
L 263.613998 172.400792 
L 263.613998 171.602376 
L 263.819626 171.602376 
L 263.881014 170.005545 
L 263.956701 170.005545 
L 264.033494 167.610297 
L 264.098352 167.610297 
L 264.205865 166.013465 
L 264.230003 166.013465 
L 264.281181 163.618218 
L 264.390993 163.618218 
L 264.421647 162.021386 
L 264.735484 162.021386 
L 264.81148 160.424554 
L 265.090432 160.424554 
L 265.177789 158.827723 
L 265.274912 158.827723 
L 265.274912 158.029307 
L 265.739899 158.029307 
L 265.763087 156.432475 
L 265.926685 156.432475 
L 266.010768 153.238812 
L 266.071916 153.238812 
L 266.071916 152.440396 
L 266.226722 152.440396 
L 266.306682 150.045149 
L 266.749749 150.045149 
L 266.749749 149.246733 
L 267.018917 149.246733 
L 267.04879 146.851485 
L 267.233816 146.851485 
L 267.282376 145.254653 
L 267.730931 145.254653 
L 267.730931 141.262574 
L 268.201765 141.262574 
L 268.201765 140.464158 
L 268.513772 140.464158 
L 268.513772 139.665743 
L 268.795769 139.665743 
L 268.795769 138.867327 
L 269.294022 138.867327 
L 269.299641 137.270495 
L 269.637174 137.270495 
L 269.637174 136.472079 
L 269.887701 136.472079 
L 269.912872 134.875248 
L 270.202005 134.875248 
L 270.202005 134.076832 
L 270.358326 134.076832 
L 270.358326 133.278416 
L 270.93568 133.278416 
L 271.041189 131.681584 
L 271.272237 131.681584 
L 271.272237 130.883168 
L 271.390461 130.883168 
L 271.390461 130.084752 
L 271.645091 130.084752 
L 271.645091 129.286337 
L 272.616303 129.286337 
L 272.616303 128.487921 
L 272.907556 128.487921 
L 272.907556 127.689505 
L 273.47194 127.689505 
L 273.47194 126.891089 
L 273.665917 126.891089 
L 273.762058 123.697426 
L 274.098501 123.697426 
L 274.098501 122.89901 
L 274.414345 122.89901 
L 274.414345 122.100594 
L 274.568185 122.100594 
L 274.568185 121.302178 
L 274.797501 121.302178 
L 274.812844 119.705347 
L 275.205825 119.705347 
L 275.205825 118.906931 
L 275.568655 118.906931 
L 275.568655 118.108515 
L 275.996216 118.108515 
L 275.996216 117.310099 
L 276.191184 117.310099 
L 276.261323 114.914851 
L 276.749013 114.914851 
L 276.791251 113.31802 
L 276.908356 113.31802 
L 276.908356 112.519604 
L 277.281624 112.519604 
L 277.281624 111.721188 
L 277.493169 111.721188 
L 277.5153 110.124356 
L 277.814149 110.124356 
L 277.814149 109.325941 
L 278.01175 109.325941 
L 278.01175 108.527525 
L 278.375044 108.527525 
L 278.375044 107.729109 
L 279.146203 107.729109 
L 279.146203 106.930693 
L 281.19125 106.930693 
L 281.19125 106.132277 
L 282.437793 106.132277 
L 282.437793 105.333861 
L 283.430995 105.333861 
L 283.430995 104.535446 
L 283.774946 104.535446 
L 283.774946 103.73703 
L 284.511851 103.73703 
L 284.511851 102.938614 
L 286.425119 102.938614 
L 286.425119 102.140198 
L 286.613106 102.140198 
L 286.613106 101.341782 
L 287.465051 101.341782 
L 287.465051 100.543366 
L 288.631921 100.543366 
L 288.640397 98.946535 
L 288.815482 98.946535 
L 288.815482 98.148119 
L 289.835889 98.148119 
L 289.835889 97.349703 
L 289.953901 97.349703 
L 289.953901 96.551287 
L 290.742638 96.551287 
L 290.742638 95.752871 
L 290.890845 95.752871 
L 290.890845 94.954455 
L 291.325911 94.954455 
L 291.325911 94.15604 
L 292.168973 94.15604 
L 292.200644 92.559208 
L 293.472203 92.559208 
L 293.472203 91.760792 
L 294.100176 91.760792 
L 294.100176 90.962376 
L 295.560873 90.962376 
L 295.560873 90.16396 
L 295.731926 90.16396 
L 295.731926 89.365545 
L 296.117236 89.365545 
L 296.117236 88.567129 
L 296.303206 88.567129 
L 296.303206 87.768713 
L 296.836122 87.768713 
L 296.836122 86.970297 
L 298.333502 86.970297 
L 298.333502 86.171881 
L 301.085136 86.171881 
L 301.085136 85.373465 
L 304.01083 85.373465 
L 304.040702 83.776634 
L 307.000188 83.776634 
L 307.0869 82.179802 
L 309.888722 82.179802 
L 309.923107 80.58297 
L 314.137611 80.58297 
L 314.137611 79.784554 
L 315.073824 79.784554 
L 315.073824 78.986139 
L 315.422022 78.986139 
L 315.422022 69.405149 
L 315.894426 69.405149 
L 315.894426 68.606733 
L 316.910787 68.606733 
L 316.910787 67.808317 
L 318.785082 67.808317 
L 318.785082 67.009901 
L 320.379047 67.009901 
L 320.379047 66.211485 
L 323.985575 66.211485 
L 323.985575 65.413069 
L 325.493901 65.413069 
L 325.493901 64.614653 
L 326.056229 64.614653 
L 326.056229 63.816238 
L 326.223224 63.816238 
L 326.223224 63.017822 
L 327.232076 63.017822 
L 327.232076 62.219406 
L 327.62213 62.219406 
L 327.62213 61.42099 
L 330.509694 61.42099 
L 330.509694 60.622574 
L 332.668378 60.622574 
L 332.773033 59.025743 
L 334.728427 59.025743 
L 334.728427 58.227327 
L 338.94758 58.227327 
L 338.94758 57.428911 
L 340.032243 57.428911 
L 340.032243 56.630495 
L 343.727691 56.630495 
L 343.727691 55.832079 
L 346.670369 55.832079 
L 346.734713 54.235248 
L 347.843563 54.235248 
L 347.843563 53.436832 
L 348.201605 53.436832 
L 348.201605 52.638416 
L 349.660166 52.638416 
L 349.660166 51.84 
L 350.049953 51.84 
L 350.049953 51.041584 
L 350.62891 51.041584 
L 350.62891 50.243168 
L 352.505288 50.243168 
L 352.505288 49.444752 
L 357.929592 49.444752 
L 357.929592 48.646337 
L 359.020178 48.646337 
L 359.020178 47.847921 
L 360.47363 47.847921 
L 360.47363 47.049505 
L 360.734595 47.049505 
L 360.734595 46.251089 
L 362.297064 46.251089 
L 362.297064 45.452673 
L 362.711487 45.452673 
L 362.711487 44.654257 
L 364.002259 44.654257 
L 364.002259 43.855842 
L 365.48058 43.855842 
L 365.48058 43.057426 
L 367.304732 43.057426 
L 367.304732 42.25901 
L 369.376615 42.25901 
L 369.376615 41.460594 
L 372.299272 41.460594 
L 372.299272 40.662178 
L 379.548643 40.662178 
L 379.548643 39.863762 
L 380.014941 39.863762 
L 380.014941 39.065347 
L 380.918375 39.065347 
L 380.918375 38.266931 
L 383.565172 38.266931 
L 383.565172 37.468515 
L 385.192045 37.468515 
L 385.192045 36.670099 
L 385.759694 36.670099 
L 385.759694 35.871683 
L 386.459971 35.871683 
L 386.459971 35.073267 
L 386.972802 35.073267 
L 386.972802 34.274851 
L 388.737028 34.274851 
L 388.737028 33.476436 
L 390.501919 33.476436 
L 390.501919 32.67802 
L 391.785482 32.67802 
L 391.785482 31.879604 
L 392.185312 31.879604 
L 392.185312 31.081188 
L 393.248744 31.081188 
L 393.297944 29.484356 
L 393.936888 29.484356 
L 393.936888 28.685941 
L 394.25951 28.685941 
L 394.25951 27.887525 
L 394.492986 27.887525 
L 394.492986 27.089109 
L 395.646376 27.089109 
L 395.646376 26.290693 
L 395.770106 26.290693 
L 395.856201 24.693861 
L 396.957502 24.693861 
L 396.957502 23.895446 
L 397.513106 23.895446 
L 397.513106 23.09703 
L 399.359963 23.09703 
L 399.42065 21.500198 
L 401.015029 21.500198 
L 401.015029 20.701782 
L 401.585956 20.701782 
L 401.585956 19.903366 
L 402.688788 19.903366 
L 402.688788 19.10495 
L 403.3627 19.10495 
L 403.3627 18.306535 
L 404.584585 18.306535 
L 404.584585 17.508119 
L 406.084214 17.508119 
L 406.084214 16.709703 
L 406.514549 16.709703 
L 406.514549 15.911287 
L 408.372419 15.911287 
L 408.372419 15.112871 
L 409.406062 15.112871 
L 409.406062 14.314455 
L 414.102317 14.314455 
L 414.102317 13.51604 
L 415.252123 13.51604 
L 415.252123 12.717624 
L 419.961671 12.717624 
L 419.961671 11.919208 
L 421.084763 11.919208 
L 421.084763 11.120792 
L 423.986275 11.120792 
L 423.986275 10.322376 
L 425.829238 10.322376 
L 425.829238 9.52396 
L 426.597671 9.52396 
L 426.597671 8.725545 
L 427.794657 8.725545 
L 427.794657 7.927129 
L 431.917747 7.927129 
L 431.917747 7.128713 
L 432.789831 7.128713 
L 432.789831 6.330297 
L 432.789831 6.330297 
L 460.8 6.330297 
L 460.8 6.330297 
" clip-path="url(#pd048e51061)" style="fill: none; stroke: #00bfbf; stroke-width: 1.5; stroke-linecap: square"/>
   </g>
   <g id="line2d_23">
    <path d="M 197.40722 293.76 
L 197.40722 281.783762 
L 213.775521 281.783762 
L 213.775521 280.985347 
L 224.582771 280.985347 
L 224.582771 280.186931 
L 225.664692 280.186931 
L 225.712891 278.590099 
L 231.087991 278.590099 
L 231.165568 276.993267 
L 232.488961 276.993267 
L 232.488961 276.194851 
L 232.648897 276.194851 
L 232.716265 274.59802 
L 233.338791 274.59802 
L 233.366208 273.001188 
L 233.502654 273.001188 
L 233.502654 272.202772 
L 233.935991 272.202772 
L 233.935991 271.404356 
L 234.269099 271.404356 
L 234.269099 270.605941 
L 234.418132 270.605941 
L 234.418132 269.807525 
L 234.991629 269.807525 
L 234.991629 269.009109 
L 235.356774 269.009109 
L 235.356774 268.210693 
L 236.179047 268.210693 
L 236.179047 267.412277 
L 236.90841 267.412277 
L 236.90841 266.613861 
L 237.597591 266.613861 
L 237.597591 265.815446 
L 238.106247 265.815446 
L 238.106247 265.01703 
L 238.42018 265.01703 
L 238.42018 264.218614 
L 238.839466 264.218614 
L 238.839466 263.420198 
L 239.088972 263.420198 
L 239.162622 261.823366 
L 239.215561 261.823366 
L 239.314341 260.226535 
L 239.432122 260.226535 
L 239.432122 259.428119 
L 240.016471 259.428119 
L 240.03113 257.831287 
L 240.163981 257.831287 
L 240.231041 256.234455 
L 240.73058 256.234455 
L 240.73058 255.43604 
L 241.283314 255.43604 
L 241.283314 254.637624 
L 241.52815 254.637624 
L 241.585808 253.040792 
L 242.06824 253.040792 
L 242.12038 251.44396 
L 242.240399 251.44396 
L 242.240399 250.645545 
L 242.380637 250.645545 
L 242.415533 249.048713 
L 242.5641 249.048713 
L 242.626284 247.451881 
L 242.832319 247.451881 
L 242.861115 245.85505 
L 243.044547 245.85505 
L 243.152592 244.258218 
L 243.297072 244.258218 
L 243.304852 242.661386 
L 244.284241 242.661386 
L 244.284241 241.86297 
L 245.226887 241.86297 
L 245.226887 241.064554 
L 245.532308 241.064554 
L 245.532308 240.266139 
L 245.790474 240.266139 
L 245.790474 239.467723 
L 246.41729 239.467723 
L 246.41729 238.669307 
L 246.9024 238.669307 
L 246.9024 237.870891 
L 247.809337 237.870891 
L 247.813296 236.274059 
L 248.000341 236.274059 
L 248.000341 235.475644 
L 248.30717 235.475644 
L 248.30717 234.677228 
L 248.49074 234.677228 
L 248.49074 233.878812 
L 249.438083 233.878812 
L 249.438083 233.080396 
L 249.672199 233.080396 
L 249.745302 231.483564 
L 249.84487 231.483564 
L 249.84487 230.685149 
L 250.062506 230.685149 
L 250.17143 228.289901 
L 250.270289 228.289901 
L 250.270289 227.491485 
L 250.438923 227.491485 
L 250.438923 226.693069 
L 251.02601 226.693069 
L 251.02601 225.894653 
L 251.236289 225.894653 
L 251.239311 213.12 
L 251.95176 213.12 
L 251.95176 212.321584 
L 252.29486 212.321584 
L 252.392514 210.724752 
L 252.586521 210.724752 
L 252.652475 209.127921 
L 252.834594 209.127921 
L 252.882127 207.531089 
L 253.069566 207.531089 
L 253.069566 206.732673 
L 253.370886 206.732673 
L 253.480002 202.740594 
L 253.534589 202.740594 
L 253.534589 201.942178 
L 253.666209 201.942178 
L 253.724 199.546931 
L 253.89285 199.546931 
L 253.89285 198.748515 
L 254.95932 198.748515 
L 255.068004 197.151683 
L 255.63169 197.151683 
L 255.63169 196.353267 
L 255.775513 196.353267 
L 255.775513 195.554851 
L 256.07338 195.554851 
L 256.07338 194.756436 
L 256.293364 194.756436 
L 256.398511 193.159604 
L 256.47797 193.159604 
L 256.47797 192.361188 
L 256.633047 192.361188 
L 256.633047 191.562772 
L 257.016037 191.562772 
L 257.016037 190.764356 
L 257.189908 190.764356 
L 257.210735 189.167525 
L 257.352586 189.167525 
L 257.421437 186.772277 
L 257.530683 186.772277 
L 257.609193 185.175446 
L 257.807456 185.175446 
L 257.807456 184.37703 
L 257.985202 184.37703 
L 258.050055 182.780198 
L 258.109082 182.780198 
L 258.196048 181.183366 
L 258.507622 181.183366 
L 258.519506 179.586535 
L 258.893661 179.586535 
L 258.979955 177.989703 
L 259.632872 177.989703 
L 259.632872 177.191287 
L 259.917107 177.191287 
L 259.917107 176.392871 
L 260.355437 176.392871 
L 260.355437 175.594455 
L 260.982575 175.594455 
L 260.982575 174.79604 
L 261.119877 174.79604 
L 261.226158 173.199208 
L 261.396809 173.199208 
L 261.396809 172.400792 
L 261.629695 172.400792 
L 261.65556 170.80396 
L 261.786937 170.80396 
L 261.891292 168.408713 
L 262.016455 168.408713 
L 262.072683 166.013465 
L 262.241364 166.013465 
L 262.342489 163.618218 
L 262.385411 163.618218 
L 262.410986 162.021386 
L 262.653488 162.021386 
L 262.695503 160.424554 
L 262.917583 160.424554 
L 262.969432 158.827723 
L 263.046396 158.827723 
L 263.150156 156.432475 
L 263.175418 156.432475 
L 263.175418 154.835644 
L 263.379617 154.835644 
L 263.39737 153.238812 
L 263.589161 153.238812 
L 263.676824 151.64198 
L 263.768796 151.64198 
L 263.768796 150.843564 
L 263.881014 150.843564 
L 263.94821 149.246733 
L 264.00058 149.246733 
L 264.00058 148.448317 
L 264.251946 148.448317 
L 264.251946 147.649901 
L 264.421647 147.649901 
L 264.421647 146.851485 
L 264.611226 146.851485 
L 264.611226 146.053069 
L 264.923651 146.053069 
L 264.923651 145.254653 
L 265.090432 145.254653 
L 265.127281 143.657822 
L 265.583213 143.657822 
L 265.583213 142.859406 
L 265.976651 142.859406 
L 266.071916 139.665743 
L 266.306682 139.665743 
L 266.306682 138.867327 
L 266.440098 138.867327 
L 266.538183 136.472079 
L 266.886015 136.472079 
L 266.886015 135.673663 
L 267.037356 135.673663 
L 267.117362 134.076832 
L 267.233816 134.076832 
L 267.233816 133.278416 
L 267.5768 133.278416 
L 267.5768 132.48 
L 267.730931 132.48 
L 267.753416 130.883168 
L 267.847194 130.883168 
L 267.847194 130.084752 
L 268.513772 130.084752 
L 268.513772 129.286337 
L 269.637174 129.286337 
L 269.637174 128.487921 
L 269.84885 128.487921 
L 269.912872 126.092673 
L 270.248032 126.092673 
L 270.358326 123.697426 
L 270.631338 123.697426 
L 270.631338 122.89901 
L 270.749363 122.89901 
L 270.749363 122.100594 
L 270.93568 122.100594 
L 271.041189 119.705347 
L 271.390461 119.705347 
L 271.44224 118.108515 
L 271.645091 118.108515 
L 271.755435 116.511683 
L 271.76903 116.511683 
L 271.76903 115.713267 
L 271.968545 115.713267 
L 271.968545 114.914851 
L 272.48248 114.914851 
L 272.506488 113.31802 
L 272.616303 113.31802 
L 272.616303 112.519604 
L 273.067487 112.519604 
L 273.067487 111.721188 
L 273.665917 111.721188 
L 273.742688 110.124356 
L 274.568185 110.124356 
L 274.585971 108.527525 
L 274.797501 108.527525 
L 274.797501 107.729109 
L 275.152375 107.729109 
L 275.205825 106.132277 
L 275.68024 106.132277 
L 275.68024 105.333861 
L 276.26121 105.333861 
L 276.367769 102.938614 
L 276.491805 102.938614 
L 276.491805 102.140198 
L 276.772785 102.140198 
L 276.772785 101.341782 
L 277.181242 101.341782 
L 277.281624 99.74495 
L 280.52034 99.74495 
L 280.52034 98.946535 
L 281.001829 98.946535 
L 281.001829 98.148119 
L 282.458085 98.148119 
L 282.513776 96.551287 
L 282.68559 96.551287 
L 282.68559 95.752871 
L 283.583693 95.752871 
L 283.603662 94.15604 
L 284.511851 94.15604 
L 284.511851 93.357624 
L 285.049139 93.357624 
L 285.049139 92.559208 
L 285.86545 92.559208 
L 285.868296 90.962376 
L 286.613106 90.962376 
L 286.613106 90.16396 
L 287.517717 90.16396 
L 287.517717 89.365545 
L 287.839485 89.365545 
L 287.839485 88.567129 
L 288.568449 88.567129 
L 288.568449 87.768713 
L 289.422289 87.768713 
L 289.422289 86.970297 
L 291.258071 86.970297 
L 291.325911 85.373465 
L 291.838267 85.373465 
L 291.838267 84.57505 
L 292.185126 84.57505 
L 292.200644 82.978218 
L 292.787759 82.978218 
L 292.787759 82.179802 
L 293.657253 82.179802 
L 293.657253 81.381386 
L 294.734755 81.381386 
L 294.734755 80.58297 
L 295.782603 80.58297 
L 295.782603 79.784554 
L 298.020139 79.784554 
L 298.020139 78.986139 
L 300.321376 78.986139 
L 300.37322 77.389307 
L 301.27671 77.389307 
L 301.27671 76.590891 
L 304.01083 76.590891 
L 304.040702 74.994059 
L 304.279626 74.994059 
L 304.279626 74.195644 
L 307.0869 74.195644 
L 307.196508 72.598812 
L 309.181116 72.598812 
L 309.181116 71.800396 
L 309.888722 71.800396 
L 309.888722 71.00198 
L 310.33088 71.00198 
L 310.33088 70.203564 
L 311.550647 70.203564 
L 311.550647 69.405149 
L 314.137611 69.405149 
L 314.137611 68.606733 
L 315.073824 68.606733 
L 315.073824 67.808317 
L 315.422022 67.808317 
L 315.474923 64.614653 
L 322.142571 64.614653 
L 322.142571 63.816238 
L 323.949165 63.816238 
L 323.985575 62.219406 
L 325.493901 62.219406 
L 325.526668 60.622574 
L 326.056229 60.622574 
L 326.056229 59.824158 
L 326.223224 59.824158 
L 326.223224 59.025743 
L 332.320291 59.025743 
L 332.320291 58.227327 
L 332.668378 58.227327 
L 332.773033 56.630495 
L 338.94758 56.630495 
L 338.94758 55.832079 
L 340.931516 55.832079 
L 340.931516 55.033663 
L 342.269008 55.033663 
L 342.269008 54.235248 
L 343.202606 54.235248 
L 343.202606 53.436832 
L 345.181153 53.436832 
L 345.181153 52.638416 
L 346.670369 52.638416 
L 346.734713 51.041584 
L 346.936391 51.041584 
L 346.936391 50.243168 
L 347.843563 50.243168 
L 347.843563 49.444752 
L 348.201605 49.444752 
L 348.201605 48.646337 
L 348.555463 48.646337 
L 348.555463 47.847921 
L 349.118816 47.847921 
L 349.118816 47.049505 
L 349.415416 47.049505 
L 349.415416 46.251089 
L 349.660166 46.251089 
L 349.660166 45.452673 
L 350.62891 45.452673 
L 350.62891 44.654257 
L 351.218195 44.654257 
L 351.218195 43.855842 
L 351.900076 43.855842 
L 351.900076 43.057426 
L 355.122232 43.057426 
L 355.122232 42.25901 
L 359.020178 42.25901 
L 359.020178 41.460594 
L 360.645682 41.460594 
L 360.645682 40.662178 
L 362.152103 40.662178 
L 362.184142 39.065347 
L 363.436067 39.065347 
L 363.436067 38.266931 
L 364.002259 38.266931 
L 364.002259 37.468515 
L 365.48058 37.468515 
L 365.48058 36.670099 
L 366.483957 36.670099 
L 366.483957 35.871683 
L 367.364893 35.871683 
L 367.364893 35.073267 
L 369.376615 35.073267 
L 369.376615 34.274851 
L 370.720046 34.274851 
L 370.720046 33.476436 
L 371.30676 33.476436 
L 371.30676 32.67802 
L 371.962811 32.67802 
L 371.962811 31.879604 
L 376.017164 31.879604 
L 376.017164 31.081188 
L 377.637979 31.081188 
L 377.637979 30.282772 
L 378.435086 30.282772 
L 378.435086 29.484356 
L 379.548643 29.484356 
L 379.643445 27.887525 
L 381.935354 27.887525 
L 382.025098 26.290693 
L 382.208719 26.290693 
L 382.208719 25.492277 
L 383.705116 25.492277 
L 383.705116 24.693861 
L 384.065724 24.693861 
L 384.065724 23.895446 
L 384.427424 23.895446 
L 384.427424 23.09703 
L 384.64988 23.09703 
L 384.64988 22.298614 
L 385.212358 22.298614 
L 385.212358 21.500198 
L 388.253063 21.500198 
L 388.253063 20.701782 
L 388.546892 20.701782 
L 388.546892 19.903366 
L 389.914311 19.903366 
L 389.914311 19.10495 
L 390.328039 19.10495 
L 390.328039 18.306535 
L 391.654211 18.306535 
L 391.654211 17.508119 
L 393.376082 17.508119 
L 393.376082 16.709703 
L 395.054273 16.709703 
L 395.054273 15.911287 
L 400.718542 15.911287 
L 400.718542 15.112871 
L 402.688788 15.112871 
L 402.688788 14.314455 
L 403.361748 14.314455 
L 403.361748 13.51604 
L 409.406062 13.51604 
L 409.406062 12.717624 
L 409.714736 12.717624 
L 409.714736 11.919208 
L 410.429632 11.919208 
L 410.429632 11.120792 
L 411.007361 11.120792 
L 411.007361 10.322376 
L 411.456035 10.322376 
L 411.456035 9.52396 
L 413.832761 9.52396 
L 413.832761 8.725545 
L 416.933785 8.725545 
L 416.933785 7.927129 
L 425.829238 7.927129 
L 425.829238 7.128713 
L 427.794657 7.128713 
L 427.794657 6.330297 
L 427.794657 6.330297 
L 460.8 6.330297 
L 460.8 6.330297 
" clip-path="url(#pd048e51061)" style="fill: none; stroke: #bf00bf; stroke-width: 1.5; stroke-linecap: square"/>
   </g>
   <g id="line2d_24">
    <path d="M 197.40722 293.76 
L 197.40722 281.783762 
L 213.775521 281.783762 
L 213.775521 280.985347 
L 219.501289 280.985347 
L 219.501289 280.186931 
L 220.174235 280.186931 
L 220.174235 279.388515 
L 223.175388 279.388515 
L 223.175388 278.590099 
L 224.065246 278.590099 
L 224.065246 277.791683 
L 225.219138 277.791683 
L 225.219138 276.993267 
L 225.664692 276.993267 
L 225.712891 275.396436 
L 226.544026 275.396436 
L 226.544026 274.59802 
L 228.302804 274.59802 
L 228.302804 273.799604 
L 228.630901 273.799604 
L 228.630901 273.001188 
L 229.485832 273.001188 
L 229.485832 272.202772 
L 229.762454 272.202772 
L 229.762454 271.404356 
L 230.120579 271.404356 
L 230.120579 270.605941 
L 230.281425 270.605941 
L 230.281425 269.807525 
L 231.165568 269.807525 
L 231.165568 269.009109 
L 231.39407 269.009109 
L 231.39407 268.210693 
L 231.575824 268.210693 
L 231.575824 267.412277 
L 231.967103 267.412277 
L 231.967103 266.613861 
L 232.24021 266.613861 
L 232.262478 265.01703 
L 232.648897 265.01703 
L 232.716265 262.621782 
L 233.338791 262.621782 
L 233.366208 261.02495 
L 233.502654 261.02495 
L 233.502654 260.226535 
L 233.647336 260.226535 
L 233.647336 259.428119 
L 233.935991 259.428119 
L 234.039638 257.831287 
L 234.269099 257.831287 
L 234.269099 257.032871 
L 234.991629 257.032871 
L 234.991629 256.234455 
L 235.256774 256.234455 
L 235.256774 255.43604 
L 236.109552 255.43604 
L 236.109552 254.637624 
L 236.473596 254.637624 
L 236.473596 253.839208 
L 236.593251 253.839208 
L 236.593251 253.040792 
L 237.444119 253.040792 
L 237.444119 252.242376 
L 237.562419 252.242376 
L 237.597591 250.645545 
L 237.799775 250.645545 
L 237.828526 249.048713 
L 238.106247 249.048713 
L 238.106247 248.250297 
L 238.42018 248.250297 
L 238.42018 247.451881 
L 238.741162 247.451881 
L 238.761283 245.85505 
L 238.858819 245.85505 
L 238.858819 245.056634 
L 239.432122 245.056634 
L 239.474464 243.459802 
L 240.016471 243.459802 
L 240.03113 241.86297 
L 240.130444 241.86297 
L 240.163981 240.266139 
L 240.448945 240.266139 
L 240.448945 239.467723 
L 240.624622 239.467723 
L 240.73058 237.870891 
L 241.317288 237.870891 
L 241.317288 237.072475 
L 242.240399 237.072475 
L 242.240399 236.274059 
L 242.90155 236.274059 
L 242.90155 235.475644 
L 243.152592 235.475644 
L 243.152592 234.677228 
L 243.272953 234.677228 
L 243.304852 233.080396 
L 243.612012 233.080396 
L 243.612012 232.28198 
L 243.767513 232.28198 
L 243.767513 231.483564 
L 244.284241 231.483564 
L 244.284241 230.685149 
L 245.031984 230.685149 
L 245.121854 229.088317 
L 245.200676 229.088317 
L 245.200676 228.289901 
L 245.769853 228.289901 
L 245.769853 227.491485 
L 246.41729 227.491485 
L 246.520579 225.894653 
L 246.619794 225.894653 
L 246.681218 224.297822 
L 246.9024 224.297822 
L 246.9024 223.499406 
L 247.709158 223.499406 
L 247.813296 221.902574 
L 248.000341 221.902574 
L 248.078989 220.305743 
L 248.30717 220.305743 
L 248.30717 219.507327 
L 249.226393 219.507327 
L 249.233405 217.910495 
L 249.672199 217.910495 
L 249.745302 215.515248 
L 249.795868 215.515248 
L 249.84487 213.12 
L 250.062506 213.12 
L 250.17143 210.724752 
L 250.270289 210.724752 
L 250.270289 209.926337 
L 250.627804 209.926337 
L 250.627804 209.127921 
L 250.861527 209.127921 
L 250.861527 208.329505 
L 251.02601 208.329505 
L 251.02601 207.531089 
L 251.239311 207.531089 
L 251.239311 195.554851 
L 251.829475 195.554851 
L 251.829475 194.756436 
L 251.95176 194.756436 
L 251.95176 193.95802 
L 252.139954 193.95802 
L 252.139954 193.159604 
L 252.392514 193.159604 
L 252.393121 191.562772 
L 252.520544 191.562772 
L 252.586521 189.167525 
L 252.652475 189.167525 
L 252.652475 188.369109 
L 252.77286 188.369109 
L 252.882127 185.973861 
L 252.911999 185.973861 
L 252.911999 185.175446 
L 253.134419 185.175446 
L 253.192929 182.780198 
L 253.381017 182.780198 
L 253.488092 180.38495 
L 253.711367 180.38495 
L 253.71528 178.788119 
L 253.89285 178.788119 
L 253.89285 177.989703 
L 254.111705 177.989703 
L 254.175521 176.392871 
L 254.667739 176.392871 
L 254.718261 174.79604 
L 254.95932 174.79604 
L 255.068004 172.400792 
L 255.775513 172.400792 
L 255.775513 171.602376 
L 256.271416 171.602376 
L 256.271416 170.80396 
L 256.398511 170.80396 
L 256.398511 170.005545 
L 256.997017 170.005545 
L 257.082097 167.610297 
L 257.189908 167.610297 
L 257.212174 164.416634 
L 257.356053 164.416634 
L 257.356053 163.618218 
L 257.485815 163.618218 
L 257.485815 162.819802 
L 257.619225 162.819802 
L 257.619225 162.021386 
L 257.807456 162.021386 
L 257.807456 161.22297 
L 257.985202 161.22297 
L 258.050055 159.626139 
L 258.109082 159.626139 
L 258.196048 157.230891 
L 258.359536 157.230891 
L 258.359536 156.432475 
L 258.554873 156.432475 
L 258.554873 155.634059 
L 258.729782 155.634059 
L 258.729782 154.835644 
L 258.893661 154.835644 
L 258.953196 153.238812 
L 259.15553 153.238812 
L 259.265848 150.843564 
L 259.423443 150.843564 
L 259.534346 149.246733 
L 259.7402 149.246733 
L 259.7402 148.448317 
L 259.917107 148.448317 
L 259.917107 147.649901 
L 260.735091 147.649901 
L 260.738543 146.053069 
L 260.852817 146.053069 
L 260.955036 142.859406 
L 261.016828 142.859406 
L 261.102596 140.464158 
L 261.358978 140.464158 
L 261.4574 137.270495 
L 261.833145 137.270495 
L 261.937237 135.673663 
L 261.996168 135.673663 
L 262.082216 134.076832 
L 262.241364 134.076832 
L 262.241364 133.278416 
L 262.50241 133.278416 
L 262.50241 132.48 
L 262.653488 132.48 
L 262.653488 131.681584 
L 263.046396 131.681584 
L 263.095948 130.084752 
L 263.171278 130.084752 
L 263.175418 128.487921 
L 263.379617 128.487921 
L 263.379617 127.689505 
L 263.792137 127.689505 
L 263.792137 126.891089 
L 263.96777 126.891089 
L 263.96777 126.092673 
L 264.118651 126.092673 
L 264.118651 125.294257 
L 264.237355 125.294257 
L 264.237355 124.495842 
L 264.480289 124.495842 
L 264.480289 123.697426 
L 264.690301 123.697426 
L 264.790627 122.100594 
L 264.832246 122.100594 
L 264.839557 120.503762 
L 265.134152 120.503762 
L 265.134152 119.705347 
L 265.462115 119.705347 
L 265.507599 118.108515 
L 265.583213 118.108515 
L 265.583213 117.310099 
L 265.723693 117.310099 
L 265.723693 116.511683 
L 265.976651 116.511683 
L 266.017716 114.914851 
L 266.150896 114.914851 
L 266.150896 114.116436 
L 266.529231 114.116436 
L 266.529231 113.31802 
L 266.835974 113.31802 
L 266.937271 111.721188 
L 267.233816 111.721188 
L 267.233816 110.922772 
L 267.768331 110.922772 
L 267.768331 110.124356 
L 268.061401 110.124356 
L 268.061401 109.325941 
L 268.204874 109.325941 
L 268.204874 108.527525 
L 268.50732 108.527525 
L 268.513772 106.930693 
L 269.028152 106.930693 
L 269.028152 106.132277 
L 269.243899 106.132277 
L 269.243899 105.333861 
L 269.363407 105.333861 
L 269.444615 103.73703 
L 269.707124 103.73703 
L 269.707124 102.938614 
L 269.84885 102.938614 
L 269.897054 100.543366 
L 270.011656 100.543366 
L 270.011656 99.74495 
L 270.75277 99.74495 
L 270.765472 98.148119 
L 271.310054 98.148119 
L 271.310054 97.349703 
L 271.645091 97.349703 
L 271.645091 96.551287 
L 272.123593 96.551287 
L 272.123593 95.752871 
L 272.520344 95.752871 
L 272.520344 94.954455 
L 273.742688 94.954455 
L 273.742688 94.15604 
L 273.863639 94.15604 
L 273.863639 93.357624 
L 275.089719 93.357624 
L 275.089719 92.559208 
L 275.920674 92.559208 
L 275.920674 91.760792 
L 277.914517 91.760792 
L 277.914517 90.962376 
L 278.652279 90.962376 
L 278.652279 90.16396 
L 279.249036 90.16396 
L 279.249036 89.365545 
L 279.839517 89.365545 
L 279.839517 88.567129 
L 280.648586 88.567129 
L 280.648586 87.768713 
L 281.001829 87.768713 
L 281.001829 86.970297 
L 282.195317 86.970297 
L 282.195317 86.171881 
L 282.437785 86.171881 
L 282.502129 83.776634 
L 282.68559 83.776634 
L 282.68559 82.978218 
L 283.872379 82.978218 
L 283.872379 82.179802 
L 284.500687 82.179802 
L 284.500687 81.381386 
L 285.582407 81.381386 
L 285.582407 80.58297 
L 285.694358 80.58297 
L 285.694358 79.784554 
L 286.561698 79.784554 
L 286.561698 78.986139 
L 286.877479 78.986139 
L 286.877479 78.187723 
L 287.517717 78.187723 
L 287.517717 77.389307 
L 288.029785 77.389307 
L 288.029785 76.590891 
L 289.792607 76.590891 
L 289.841231 74.994059 
L 290.781076 74.994059 
L 290.781076 74.195644 
L 291.325911 74.195644 
L 291.325911 73.397228 
L 291.498471 73.397228 
L 291.498471 72.598812 
L 294.722567 72.598812 
L 294.734755 71.00198 
L 294.837647 71.00198 
L 294.837647 70.203564 
L 298.020139 70.203564 
L 298.020139 69.405149 
L 299.27927 69.405149 
L 299.27927 68.606733 
L 300.321376 68.606733 
L 300.37322 67.009901 
L 302.538818 67.009901 
L 302.538818 66.211485 
L 304.01083 66.211485 
L 304.01083 65.413069 
L 304.282398 65.413069 
L 304.282398 64.614653 
L 305.078588 64.614653 
L 305.078588 63.816238 
L 305.595973 63.816238 
L 305.595973 63.017822 
L 305.91924 63.017822 
L 305.91924 62.219406 
L 307.0869 62.219406 
L 307.0869 61.42099 
L 308.306279 61.42099 
L 308.306279 60.622574 
L 313.912121 60.622574 
L 313.912121 59.824158 
L 314.843592 59.824158 
L 314.843592 59.025743 
L 315.422022 59.025743 
L 315.422022 58.227327 
L 318.734804 58.227327 
L 318.734804 57.428911 
L 322.142571 57.428911 
L 322.142571 56.630495 
L 323.966771 56.630495 
L 323.985575 55.033663 
L 324.270063 55.033663 
L 324.270063 54.235248 
L 325.493901 54.235248 
L 325.493901 53.436832 
L 331.353298 53.436832 
L 331.353298 52.638416 
L 332.154846 52.638416 
L 332.154846 51.84 
L 332.643817 51.84 
L 332.668378 50.243168 
L 335.00816 50.243168 
L 335.00816 49.444752 
L 335.164049 49.444752 
L 335.164049 48.646337 
L 338.94758 48.646337 
L 338.94758 47.847921 
L 340.931516 47.847921 
L 340.931516 47.049505 
L 341.305026 47.049505 
L 341.305026 46.251089 
L 343.202606 46.251089 
L 343.202606 45.452673 
L 345.89403 45.452673 
L 345.89403 44.654257 
L 346.734713 44.654257 
L 346.734713 43.855842 
L 346.936391 43.855842 
L 347.040503 42.25901 
L 347.257564 42.25901 
L 347.257564 41.460594 
L 347.731755 41.460594 
L 347.731755 40.662178 
L 348.010247 40.662178 
L 348.096074 39.065347 
L 348.691502 39.065347 
L 348.691502 38.266931 
L 348.803391 38.266931 
L 348.803391 37.468515 
L 349.118816 37.468515 
L 349.118816 36.670099 
L 349.660166 36.670099 
L 349.660166 35.871683 
L 350.888152 35.871683 
L 350.888152 35.073267 
L 351.900076 35.073267 
L 351.900076 34.274851 
L 352.981289 34.274851 
L 352.981289 33.476436 
L 354.140885 33.476436 
L 354.140885 32.67802 
L 354.38064 32.67802 
L 354.38064 31.879604 
L 354.575312 31.879604 
L 354.575312 31.081188 
L 355.122232 31.081188 
L 355.122232 30.282772 
L 356.955542 30.282772 
L 356.955542 29.484356 
L 358.714861 29.484356 
L 358.714861 28.685941 
L 360.645682 28.685941 
L 360.645682 27.887525 
L 361.997536 27.887525 
L 361.997536 27.089109 
L 362.184142 27.089109 
L 362.184142 26.290693 
L 362.307972 26.290693 
L 362.307972 25.492277 
L 363.436067 25.492277 
L 363.436067 24.693861 
L 365.160162 24.693861 
L 365.160162 23.895446 
L 365.48058 23.895446 
L 365.48058 23.09703 
L 365.899097 23.09703 
L 365.899097 22.298614 
L 367.119378 22.298614 
L 367.119378 21.500198 
L 367.626963 21.500198 
L 367.626963 20.701782 
L 374.538051 20.701782 
L 374.538051 19.903366 
L 377.461836 19.903366 
L 377.461836 19.10495 
L 378.778184 19.10495 
L 378.778184 18.306535 
L 383.315321 18.306535 
L 383.315321 17.508119 
L 385.619565 17.508119 
L 385.619565 16.709703 
L 389.811239 16.709703 
L 389.811239 15.911287 
L 390.116358 15.911287 
L 390.116358 15.112871 
L 390.27556 15.112871 
L 390.27556 14.314455 
L 391.961198 14.314455 
L 391.961198 13.51604 
L 393.387488 13.51604 
L 393.387488 12.717624 
L 398.06077 12.717624 
L 398.06077 11.919208 
L 398.228048 11.919208 
L 398.228048 11.120792 
L 400.718542 11.120792 
L 400.718542 10.322376 
L 405.182044 10.322376 
L 405.196714 8.725545 
L 405.33014 8.725545 
L 405.33014 7.927129 
L 409.714736 7.927129 
L 409.714736 7.128713 
L 413.776002 7.128713 
L 413.776002 6.330297 
L 413.776002 6.330297 
L 460.8 6.330297 
L 460.8 6.330297 
" clip-path="url(#pd048e51061)" style="fill: none; stroke: #000000; stroke-width: 1.5; stroke-linecap: square"/>
   </g>
   <g id="line2d_25">
    <path d="M -0.115369 293.76 
L -0.115369 290.566337 
L 192.727167 290.566337 
L 192.727167 289.767921 
L 197.40722 289.767921 
L 197.40722 277.791683 
L 208.694694 277.791683 
L 208.694694 276.993267 
L 209.997714 276.993267 
L 209.997714 276.194851 
L 211.754304 276.194851 
L 211.754304 275.396436 
L 212.902441 275.396436 
L 212.902441 274.59802 
L 213.775521 274.59802 
L 213.775521 273.799604 
L 216.531279 273.799604 
L 216.531279 273.001188 
L 219.303841 273.001188 
L 219.303841 272.202772 
L 219.501289 272.202772 
L 219.501289 271.404356 
L 220.174235 271.404356 
L 220.198914 269.807525 
L 220.950896 269.807525 
L 221.035738 268.210693 
L 221.325922 268.210693 
L 221.410139 265.815446 
L 222.542125 265.815446 
L 222.542125 265.01703 
L 222.806568 265.01703 
L 222.806568 264.218614 
L 223.567816 264.218614 
L 223.621519 262.621782 
L 223.791284 262.621782 
L 223.888267 261.02495 
L 223.930914 261.02495 
L 223.930914 260.226535 
L 224.416897 260.226535 
L 224.416897 259.428119 
L 224.547172 259.428119 
L 224.615733 257.831287 
L 225.058982 257.831287 
L 225.080703 256.234455 
L 225.219138 256.234455 
L 225.219138 255.43604 
L 225.658055 255.43604 
L 225.712891 253.839208 
L 225.946951 253.839208 
L 226.026078 252.242376 
L 226.281016 252.242376 
L 226.388393 249.847129 
L 226.709567 249.847129 
L 226.797171 248.250297 
L 227.037087 248.250297 
L 227.068271 245.85505 
L 227.217787 245.85505 
L 227.318208 244.258218 
L 227.389582 244.258218 
L 227.389582 243.459802 
L 227.548861 243.459802 
L 227.566491 241.86297 
L 227.734687 241.86297 
L 227.811401 240.266139 
L 227.962635 240.266139 
L 227.962635 239.467723 
L 228.173887 239.467723 
L 228.173887 238.669307 
L 228.302804 238.669307 
L 228.302804 237.870891 
L 228.46096 237.870891 
L 228.46096 237.072475 
L 228.889779 237.072475 
L 228.98231 235.475644 
L 229.049708 235.475644 
L 229.149116 233.878812 
L 229.236491 233.878812 
L 229.236491 233.080396 
L 229.37972 233.080396 
L 229.390186 231.483564 
L 229.523227 231.483564 
L 229.620273 229.886733 
L 229.762454 229.886733 
L 229.762454 229.088317 
L 230.250466 229.088317 
L 230.250466 228.289901 
L 230.563902 228.289901 
L 230.563902 227.491485 
L 230.910684 227.491485 
L 231.005853 225.894653 
L 231.161217 225.894653 
L 231.233943 224.297822 
L 231.575824 224.297822 
L 231.575824 223.499406 
L 231.967103 223.499406 
L 232.008912 221.902574 
L 232.309343 221.902574 
L 232.419271 219.507327 
L 232.533825 219.507327 
L 232.533825 218.708911 
L 232.648897 218.708911 
L 232.716265 217.112079 
L 232.761623 217.112079 
L 232.796352 215.515248 
L 233.282008 215.515248 
L 233.282008 214.716832 
L 233.411077 214.716832 
L 233.411077 213.918416 
L 233.535946 213.918416 
L 233.535946 213.12 
L 233.703537 213.12 
L 233.703537 212.321584 
L 234.284871 212.321584 
L 234.284871 211.523168 
L 234.887471 211.523168 
L 234.887471 210.724752 
L 235.146561 210.724752 
L 235.146561 209.926337 
L 235.359969 209.926337 
L 235.359969 209.127921 
L 235.650787 209.127921 
L 235.650787 208.329505 
L 235.87067 208.329505 
L 235.875873 206.732673 
L 236.269645 206.732673 
L 236.319763 205.135842 
L 236.518264 205.135842 
L 236.518264 204.337426 
L 238.210385 204.337426 
L 238.210385 203.53901 
L 238.649833 203.53901 
L 238.649833 202.740594 
L 238.860885 202.740594 
L 238.93711 201.143762 
L 239.147675 201.143762 
L 239.147675 200.345347 
L 239.438248 200.345347 
L 239.438248 199.546931 
L 239.712113 199.546931 
L 239.712113 198.748515 
L 240.222153 198.748515 
L 240.222153 197.950099 
L 240.954891 197.950099 
L 241.043838 196.353267 
L 241.164923 196.353267 
L 241.164923 195.554851 
L 241.495071 195.554851 
L 241.495071 194.756436 
L 242.04083 194.756436 
L 242.04083 193.95802 
L 242.188315 193.95802 
L 242.188315 193.159604 
L 242.616819 193.159604 
L 242.616819 192.361188 
L 242.783283 192.361188 
L 242.783283 191.562772 
L 242.914301 191.562772 
L 242.914301 190.764356 
L 243.0528 190.764356 
L 243.128835 189.167525 
L 243.202009 189.167525 
L 243.304852 187.570693 
L 243.591694 187.570693 
L 243.612012 185.973861 
L 243.837186 185.973861 
L 243.837186 185.175446 
L 243.978433 185.175446 
L 243.978433 184.37703 
L 244.11555 184.37703 
L 244.165161 182.780198 
L 244.841137 182.780198 
L 244.907404 180.38495 
L 244.988515 180.38495 
L 244.988515 179.586535 
L 245.118965 179.586535 
L 245.118965 178.788119 
L 245.398583 178.788119 
L 245.398583 177.989703 
L 245.646767 177.989703 
L 245.646767 177.191287 
L 245.893369 177.191287 
L 245.893369 176.392871 
L 246.156335 176.392871 
L 246.227541 174.79604 
L 246.304162 174.79604 
L 246.304162 173.997624 
L 246.45485 173.997624 
L 246.520579 171.602376 
L 246.632097 171.602376 
L 246.632097 170.80396 
L 247.02485 170.80396 
L 247.02485 170.005545 
L 247.153397 170.005545 
L 247.260902 167.610297 
L 247.709158 167.610297 
L 247.813296 166.013465 
L 247.876315 166.013465 
L 247.945666 164.416634 
L 248.000341 164.416634 
L 248.000341 163.618218 
L 248.186107 163.618218 
L 248.186107 162.819802 
L 248.696107 162.819802 
L 248.696107 162.021386 
L 248.816902 162.021386 
L 248.896176 160.424554 
L 249.029477 160.424554 
L 249.051047 158.827723 
L 249.226393 158.827723 
L 249.226393 158.029307 
L 249.579008 158.029307 
L 249.579008 157.230891 
L 249.795957 157.230891 
L 249.806659 155.634059 
L 250.101638 155.634059 
L 250.101638 154.835644 
L 250.270529 154.835644 
L 250.270529 154.037228 
L 250.39328 154.037228 
L 250.39328 153.238812 
L 250.572347 153.238812 
L 250.669617 150.843564 
L 251.186042 150.843564 
L 251.239311 138.068911 
L 252.139954 138.068911 
L 252.139954 137.270495 
L 252.376156 137.270495 
L 252.376156 136.472079 
L 252.523135 136.472079 
L 252.523135 135.673663 
L 252.687998 135.673663 
L 252.687998 134.875248 
L 253.094832 134.875248 
L 253.203547 133.278416 
L 253.480002 133.278416 
L 253.480002 132.48 
L 253.697866 132.48 
L 253.795364 130.883168 
L 253.829203 130.883168 
L 253.835997 128.487921 
L 254.160199 128.487921 
L 254.160199 127.689505 
L 254.52503 127.689505 
L 254.529485 126.092673 
L 254.667739 126.092673 
L 254.667739 125.294257 
L 254.887857 125.294257 
L 254.887857 124.495842 
L 255.297581 124.495842 
L 255.297581 123.697426 
L 255.872326 123.697426 
L 255.872326 122.89901 
L 256.278911 122.89901 
L 256.278911 122.100594 
L 256.46515 122.100594 
L 256.46515 121.302178 
L 256.651738 121.302178 
L 256.651738 120.503762 
L 256.870608 120.503762 
L 256.905911 118.906931 
L 256.997017 118.906931 
L 257.084149 115.713267 
L 257.182626 115.713267 
L 257.201977 113.31802 
L 257.313548 113.31802 
L 257.313548 112.519604 
L 257.703479 112.519604 
L 257.703479 111.721188 
L 258.162759 111.721188 
L 258.162759 110.922772 
L 258.749992 110.922772 
L 258.749992 110.124356 
L 258.864878 110.124356 
L 258.864878 109.325941 
L 258.998641 109.325941 
L 259.072736 106.930693 
L 259.302101 106.930693 
L 259.302101 106.132277 
L 259.551963 106.132277 
L 259.551963 105.333861 
L 259.854447 105.333861 
L 259.917107 103.73703 
L 259.98373 103.73703 
L 259.98373 102.938614 
L 260.116997 102.938614 
L 260.116997 102.140198 
L 260.277238 102.140198 
L 260.277238 101.341782 
L 260.430509 101.341782 
L 260.528921 99.74495 
L 260.596195 99.74495 
L 260.673755 98.148119 
L 260.710088 98.148119 
L 260.710088 97.349703 
L 261.035599 97.349703 
L 261.065431 95.752871 
L 261.235392 95.752871 
L 261.235392 94.954455 
L 261.358978 94.954455 
L 261.358978 94.15604 
L 261.549317 94.15604 
L 261.549317 93.357624 
L 261.863467 93.357624 
L 261.917939 91.760792 
L 261.99718 91.760792 
L 262.082216 89.365545 
L 262.162577 89.365545 
L 262.162577 88.567129 
L 262.769223 88.567129 
L 262.769223 87.768713 
L 262.952285 87.768713 
L 263.046396 86.171881 
L 263.175418 86.171881 
L 263.175418 85.373465 
L 263.355288 85.373465 
L 263.355288 84.57505 
L 263.63291 84.57505 
L 263.63291 83.776634 
L 263.806504 83.776634 
L 263.806504 82.978218 
L 264.349018 82.978218 
L 264.349018 82.179802 
L 264.806712 82.179802 
L 264.832246 80.58297 
L 265.282637 80.58297 
L 265.292741 78.986139 
L 265.507599 78.986139 
L 265.507599 78.187723 
L 266.427792 78.187723 
L 266.427792 77.389307 
L 267.233816 77.389307 
L 267.233816 76.590891 
L 267.554413 76.590891 
L 267.554413 75.792475 
L 267.768331 75.792475 
L 267.768331 74.994059 
L 267.957597 74.994059 
L 267.975252 73.397228 
L 268.893142 73.397228 
L 268.893142 72.598812 
L 269.046499 72.598812 
L 269.046499 71.800396 
L 270.390915 71.800396 
L 270.390915 71.00198 
L 270.539425 71.00198 
L 270.539425 70.203564 
L 273.144794 70.203564 
L 273.144794 69.405149 
L 274.397285 69.405149 
L 274.397285 68.606733 
L 274.930606 68.606733 
L 274.930606 67.808317 
L 275.280915 67.808317 
L 275.280915 67.009901 
L 275.918275 67.009901 
L 275.938514 64.614653 
L 276.550078 64.614653 
L 276.550078 63.816238 
L 277.61556 63.816238 
L 277.653999 62.219406 
L 277.914517 62.219406 
L 277.914517 61.42099 
L 278.652279 61.42099 
L 278.652279 60.622574 
L 279.106148 60.622574 
L 279.140152 59.025743 
L 279.568141 59.025743 
L 279.568141 58.227327 
L 279.983869 58.227327 
L 279.983869 57.428911 
L 281.324298 57.428911 
L 281.324298 56.630495 
L 281.84091 56.630495 
L 281.84091 55.832079 
L 282.811113 55.832079 
L 282.811113 55.033663 
L 284.088512 55.033663 
L 284.088512 54.235248 
L 284.401435 54.235248 
L 284.401435 53.436832 
L 284.889505 53.436832 
L 284.891877 51.84 
L 285.047211 51.84 
L 285.047211 51.041584 
L 287.69968 51.041584 
L 287.69968 50.243168 
L 287.94088 50.243168 
L 287.94088 49.444752 
L 288.261005 49.444752 
L 288.261005 48.646337 
L 289.988834 48.646337 
L 289.988834 47.847921 
L 291.325911 47.847921 
L 291.325911 47.049505 
L 294.734755 47.049505 
L 294.734755 46.251089 
L 303.020324 46.251089 
L 303.020324 45.452673 
L 304.296282 45.452673 
L 304.296282 44.654257 
L 305.078588 44.654257 
L 305.078588 43.855842 
L 308.845307 43.855842 
L 308.845307 43.057426 
L 310.787806 43.057426 
L 310.787806 42.25901 
L 313.941834 42.25901 
L 313.941834 41.460594 
L 314.940916 41.460594 
L 314.940916 40.662178 
L 320.042373 40.662178 
L 320.042373 39.863762 
L 321.16071 39.863762 
L 321.16071 39.065347 
L 322.355033 39.065347 
L 322.355033 38.266931 
L 323.985575 38.266931 
L 323.985575 37.468515 
L 329.292901 37.468515 
L 329.292901 36.670099 
L 330.785759 36.670099 
L 330.785759 35.871683 
L 331.460218 35.871683 
L 331.460218 35.073267 
L 332.177737 35.073267 
L 332.177737 34.274851 
L 332.668378 34.274851 
L 332.668378 33.476436 
L 333.912358 33.476436 
L 333.912358 32.67802 
L 335.068064 32.67802 
L 335.068064 31.879604 
L 335.974498 31.879604 
L 335.974498 31.081188 
L 336.393559 31.081188 
L 336.393559 30.282772 
L 338.94758 30.282772 
L 338.94758 29.484356 
L 339.148631 29.484356 
L 339.148631 28.685941 
L 339.28226 28.685941 
L 339.28226 27.887525 
L 340.801345 27.887525 
L 340.801345 27.089109 
L 341.031279 27.089109 
L 341.031279 26.290693 
L 341.514619 26.290693 
L 341.514619 25.492277 
L 342.720364 25.492277 
L 342.751313 23.895446 
L 343.202606 23.895446 
L 343.202606 23.09703 
L 344.147035 23.09703 
L 344.147035 22.298614 
L 345.89403 22.298614 
L 345.89403 21.500198 
L 346.902789 21.500198 
L 346.902789 20.701782 
L 348.010247 20.701782 
L 348.010247 19.903366 
L 351.358976 19.903366 
L 351.358976 19.10495 
L 353.713878 19.10495 
L 353.713878 18.306535 
L 371.570321 18.306535 
L 371.570321 17.508119 
L 372.013684 17.508119 
L 372.013684 16.709703 
L 375.902733 16.709703 
L 375.902733 15.911287 
L 377.461836 15.911287 
L 377.461836 15.112871 
L 380.081454 15.112871 
L 380.081454 14.314455 
L 380.984945 14.314455 
L 380.984945 13.51604 
L 381.666759 13.51604 
L 381.666759 12.717624 
L 383.073742 12.717624 
L 383.073742 11.919208 
L 383.315321 11.919208 
L 383.315321 11.120792 
L 387.98586 11.120792 
L 387.98586 10.322376 
L 388.713271 10.322376 
L 388.713271 9.52396 
L 388.904398 9.52396 
L 388.904398 8.725545 
L 390.116358 8.725545 
L 390.116358 7.927129 
L 393.254623 7.927129 
L 393.254623 7.128713 
L 398.809967 7.128713 
L 398.809967 6.330297 
L 398.809967 6.330297 
L 460.8 6.330297 
L 460.8 6.330297 
" clip-path="url(#pd048e51061)" style="fill: none; stroke: #00bfbf; stroke-width: 1.5; stroke-linecap: square"/>
   </g>
   <g id="line2d_26">
    <path d="M -1 288.969505 
L -0.541747 288.969505 
L -0.541747 288.171089 
L -0.115369 288.171089 
L -0.115369 276.194851 
L 9.805196 276.194851 
L 9.805196 275.396436 
L 19.858201 275.396436 
L 19.858201 274.59802 
L 28.414442 274.59802 
L 28.414442 273.799604 
L 31.263666 273.799604 
L 31.263666 273.001188 
L 31.570471 273.001188 
L 31.570471 272.202772 
L 32.396023 272.202772 
L 32.396023 271.404356 
L 37.364955 271.404356 
L 37.364955 270.605941 
L 58.927497 270.605941 
L 58.927497 269.807525 
L 66.739952 269.807525 
L 66.739952 269.009109 
L 69.102008 269.009109 
L 69.102008 268.210693 
L 70.252768 268.210693 
L 70.252768 267.412277 
L 72.865947 267.412277 
L 72.865947 266.613861 
L 77.955121 266.613861 
L 77.955121 265.815446 
L 80.518565 265.815446 
L 80.518565 265.01703 
L 82.327976 265.01703 
L 82.327976 264.218614 
L 82.620271 264.218614 
L 82.620271 263.420198 
L 83.48584 263.420198 
L 83.48584 262.621782 
L 83.875083 262.621782 
L 83.875083 261.823366 
L 89.591085 261.823366 
L 89.591085 261.02495 
L 97.110625 261.02495 
L 97.110625 260.226535 
L 102.758637 260.226535 
L 102.758637 259.428119 
L 104.527802 259.428119 
L 104.527802 258.629703 
L 109.652411 258.629703 
L 109.652411 257.831287 
L 113.837635 257.831287 
L 113.837635 257.032871 
L 117.341304 257.032871 
L 117.341304 256.234455 
L 118.109882 256.234455 
L 118.109882 255.43604 
L 121.805111 255.43604 
L 121.805111 254.637624 
L 121.944343 254.637624 
L 121.944343 253.839208 
L 122.414963 253.839208 
L 122.414963 253.040792 
L 124.072594 253.040792 
L 124.072594 252.242376 
L 128.109942 252.242376 
L 128.109942 251.44396 
L 135.86143 251.44396 
L 135.86143 250.645545 
L 136.130298 250.645545 
L 136.130298 249.847129 
L 137.356909 249.847129 
L 137.356909 249.048713 
L 142.679593 249.048713 
L 142.679593 248.250297 
L 147.169045 248.250297 
L 147.169045 247.451881 
L 149.469174 247.451881 
L 149.469174 246.653465 
L 152.506996 246.653465 
L 152.506996 245.85505 
L 161.280517 245.85505 
L 161.280517 245.056634 
L 164.077961 245.056634 
L 164.077961 244.258218 
L 165.28037 244.258218 
L 165.28037 243.459802 
L 165.988686 243.459802 
L 165.988686 242.661386 
L 167.373632 242.661386 
L 167.373632 241.86297 
L 170.125074 241.86297 
L 170.125074 241.064554 
L 170.276906 241.064554 
L 170.276906 240.266139 
L 172.629172 240.266139 
L 172.629172 239.467723 
L 174.079682 239.467723 
L 174.079682 238.669307 
L 176.998673 238.669307 
L 176.998673 237.870891 
L 177.284651 237.870891 
L 177.284651 237.072475 
L 177.927841 237.072475 
L 177.927841 236.274059 
L 179.233064 236.274059 
L 179.233064 235.475644 
L 179.847126 235.475644 
L 179.847126 234.677228 
L 181.661377 234.677228 
L 181.661377 233.878812 
L 181.875689 233.878812 
L 181.908362 232.28198 
L 182.994181 232.28198 
L 182.994181 231.483564 
L 183.332527 231.483564 
L 183.403798 229.886733 
L 183.570048 229.886733 
L 183.570048 229.088317 
L 183.715544 229.088317 
L 183.715544 228.289901 
L 184.756992 228.289901 
L 184.756992 227.491485 
L 184.913311 227.491485 
L 184.913311 226.693069 
L 185.454702 226.693069 
L 185.454702 225.894653 
L 185.978539 225.894653 
L 185.978539 225.096238 
L 186.780731 225.096238 
L 186.780731 224.297822 
L 187.652639 224.297822 
L 187.652639 223.499406 
L 188.400547 223.499406 
L 188.400547 222.70099 
L 188.75502 222.70099 
L 188.75502 221.902574 
L 190.436704 221.902574 
L 190.436704 221.104158 
L 190.710955 221.104158 
L 190.710955 220.305743 
L 193.498414 220.305743 
L 193.498414 219.507327 
L 196.891784 219.507327 
L 196.891784 218.708911 
L 197.347126 218.708911 
L 197.40722 205.934257 
L 199.762516 205.934257 
L 199.762516 205.135842 
L 200.462111 205.135842 
L 200.462111 204.337426 
L 200.66221 204.337426 
L 200.66221 203.53901 
L 201.431754 203.53901 
L 201.431754 202.740594 
L 201.885404 202.740594 
L 201.885404 201.942178 
L 202.002534 201.942178 
L 202.002534 201.143762 
L 202.470405 201.143762 
L 202.57668 199.546931 
L 202.610214 199.546931 
L 202.610214 198.748515 
L 203.59252 198.748515 
L 203.59252 197.950099 
L 203.978633 197.950099 
L 204.079332 194.756436 
L 204.152748 194.756436 
L 204.152748 193.95802 
L 205.452384 193.95802 
L 205.452384 193.159604 
L 206.281446 193.159604 
L 206.281446 192.361188 
L 206.639304 192.361188 
L 206.639304 191.562772 
L 206.776142 191.562772 
L 206.776142 190.764356 
L 207.015766 190.764356 
L 207.015766 189.965941 
L 207.228777 189.965941 
L 207.318097 188.369109 
L 208.123443 188.369109 
L 208.123443 187.570693 
L 209.192297 187.570693 
L 209.193464 183.578614 
L 209.737535 183.578614 
L 209.737535 182.780198 
L 210.603341 182.780198 
L 210.603341 181.981782 
L 211.495135 181.981782 
L 211.495135 181.183366 
L 211.665664 181.183366 
L 211.762653 179.586535 
L 211.992254 179.586535 
L 211.992254 178.788119 
L 212.354719 178.788119 
L 212.354719 177.989703 
L 212.679202 177.989703 
L 212.679202 177.191287 
L 213.181069 177.191287 
L 213.181069 176.392871 
L 213.494827 176.392871 
L 213.494827 175.594455 
L 213.769623 175.594455 
L 213.769623 174.79604 
L 213.899375 174.79604 
L 214.001424 173.199208 
L 214.206376 173.199208 
L 214.206376 172.400792 
L 214.722992 172.400792 
L 214.722992 171.602376 
L 214.857456 171.602376 
L 214.857456 170.80396 
L 215.042057 170.80396 
L 215.042057 170.005545 
L 215.233447 170.005545 
L 215.233447 169.207129 
L 215.352149 169.207129 
L 215.39539 167.610297 
L 215.589864 167.610297 
L 215.667898 166.013465 
L 215.782196 166.013465 
L 215.782196 165.21505 
L 216.007761 165.21505 
L 216.007761 164.416634 
L 216.166984 164.416634 
L 216.166984 163.618218 
L 216.459503 163.618218 
L 216.461354 162.021386 
L 216.585486 162.021386 
L 216.585486 161.22297 
L 217.539932 161.22297 
L 217.640704 159.626139 
L 218.132529 159.626139 
L 218.162539 156.432475 
L 218.920735 156.432475 
L 219.018729 154.835644 
L 219.468817 154.835644 
L 219.468817 154.037228 
L 219.757133 154.037228 
L 219.757133 153.238812 
L 220.086979 153.238812 
L 220.086979 152.440396 
L 220.214452 152.440396 
L 220.214452 151.64198 
L 220.339336 151.64198 
L 220.387092 150.045149 
L 220.506027 150.045149 
L 220.568 148.448317 
L 220.618237 148.448317 
L 220.618237 147.649901 
L 220.906786 147.649901 
L 220.906786 146.851485 
L 221.023431 146.851485 
L 221.133346 145.254653 
L 221.23632 145.254653 
L 221.23632 144.456238 
L 221.404562 144.456238 
L 221.404562 143.657822 
L 221.552568 143.657822 
L 221.552568 142.859406 
L 221.680073 142.859406 
L 221.751446 140.464158 
L 221.910818 140.464158 
L 221.999398 138.867327 
L 222.303858 138.867327 
L 222.303858 138.068911 
L 223.038155 138.068911 
L 223.038155 137.270495 
L 223.665868 137.270495 
L 223.7196 135.673663 
L 223.784916 135.673663 
L 223.784916 134.875248 
L 223.961673 134.875248 
L 223.961842 133.278416 
L 224.353846 133.278416 
L 224.383058 130.084752 
L 224.500073 130.084752 
L 224.532214 127.689505 
L 224.632365 127.689505 
L 224.632365 126.891089 
L 224.909704 126.891089 
L 224.909704 126.092673 
L 225.045397 126.092673 
L 225.077655 124.495842 
L 225.453364 124.495842 
L 225.485058 122.89901 
L 226.018716 122.89901 
L 226.018716 122.100594 
L 226.209052 122.100594 
L 226.209052 121.302178 
L 226.367102 121.302178 
L 226.477039 119.705347 
L 226.479139 119.705347 
L 226.479139 118.906931 
L 226.730809 118.906931 
L 226.730809 118.108515 
L 227.068271 118.108515 
L 227.068271 117.310099 
L 227.616459 117.310099 
L 227.616459 116.511683 
L 227.838797 116.511683 
L 227.838797 115.713267 
L 228.373533 115.713267 
L 228.373533 114.914851 
L 228.668694 114.914851 
L 228.754086 113.31802 
L 228.836092 113.31802 
L 228.846633 111.721188 
L 228.98231 111.721188 
L 228.98231 110.922772 
L 229.365939 110.922772 
L 229.365939 110.124356 
L 229.605249 110.124356 
L 229.709835 108.527525 
L 229.762454 108.527525 
L 229.762454 107.729109 
L 229.887717 107.729109 
L 229.887717 106.930693 
L 230.077287 106.930693 
L 230.077287 106.132277 
L 230.257871 106.132277 
L 230.257871 105.333861 
L 230.454416 105.333861 
L 230.454416 104.535446 
L 230.61321 104.535446 
L 230.632763 102.140198 
L 230.812078 102.140198 
L 230.855681 100.543366 
L 231.053085 100.543366 
L 231.053085 99.74495 
L 231.591856 99.74495 
L 231.591856 98.946535 
L 231.909772 98.946535 
L 232.00904 97.349703 
L 232.404299 97.349703 
L 232.404299 96.551287 
L 233.457501 96.551287 
L 233.457501 95.752871 
L 233.613681 95.752871 
L 233.613681 94.954455 
L 234.182951 94.954455 
L 234.184551 93.357624 
L 234.384858 93.357624 
L 234.384858 92.559208 
L 234.585659 92.559208 
L 234.585659 91.760792 
L 235.02267 91.760792 
L 235.02267 90.962376 
L 235.252291 90.962376 
L 235.252291 90.16396 
L 235.675973 90.16396 
L 235.675973 89.365545 
L 236.148999 89.365545 
L 236.247995 86.970297 
L 236.329712 86.970297 
L 236.353026 85.373465 
L 236.460547 85.373465 
L 236.466634 83.776634 
L 236.779066 83.776634 
L 236.779066 82.978218 
L 237.358209 82.978218 
L 237.358209 82.179802 
L 238.04168 82.179802 
L 238.131544 80.58297 
L 238.241741 80.58297 
L 238.241741 79.784554 
L 238.602845 79.784554 
L 238.603041 78.187723 
L 238.872538 78.187723 
L 238.872538 77.389307 
L 239.042356 77.389307 
L 239.042356 76.590891 
L 239.158464 76.590891 
L 239.158464 75.792475 
L 239.701886 75.792475 
L 239.701886 74.994059 
L 239.838255 74.994059 
L 239.891826 73.397228 
L 240.151295 73.397228 
L 240.245108 71.00198 
L 240.295937 71.00198 
L 240.392421 67.808317 
L 240.582751 67.808317 
L 240.582751 67.009901 
L 240.918652 67.009901 
L 240.918652 66.211485 
L 241.146288 66.211485 
L 241.221099 63.816238 
L 241.391213 63.816238 
L 241.427961 62.219406 
L 242.159198 62.219406 
L 242.159198 61.42099 
L 242.438091 61.42099 
L 242.438091 60.622574 
L 242.803553 60.622574 
L 242.911604 59.025743 
L 242.932251 59.025743 
L 243.041849 57.428911 
L 243.212663 57.428911 
L 243.258605 55.832079 
L 243.336237 55.832079 
L 243.384649 54.235248 
L 243.731782 54.235248 
L 243.796895 52.638416 
L 243.968755 52.638416 
L 244.012189 51.041584 
L 244.302881 51.041584 
L 244.302881 50.243168 
L 244.465991 50.243168 
L 244.494301 48.646337 
L 244.829481 48.646337 
L 244.829481 47.847921 
L 244.964615 47.847921 
L 244.964615 47.049505 
L 245.372583 47.049505 
L 245.372583 46.251089 
L 245.519373 46.251089 
L 245.519373 45.452673 
L 245.73931 45.452673 
L 245.73931 44.654257 
L 246.084678 44.654257 
L 246.084678 43.855842 
L 246.297658 43.855842 
L 246.333071 41.460594 
L 246.588727 41.460594 
L 246.588727 40.662178 
L 247.221208 40.662178 
L 247.221208 39.863762 
L 247.347879 39.863762 
L 247.347879 39.065347 
L 247.78699 39.065347 
L 247.78699 38.266931 
L 248.027913 38.266931 
L 248.122207 35.871683 
L 248.201526 35.871683 
L 248.276117 34.274851 
L 248.848341 34.274851 
L 248.903836 32.67802 
L 249.376113 32.67802 
L 249.471303 31.081188 
L 249.818329 31.081188 
L 249.818329 30.282772 
L 251.097714 30.282772 
L 251.174616 27.887525 
L 251.36894 27.887525 
L 251.36894 27.089109 
L 251.576243 27.089109 
L 251.576243 26.290693 
L 252.556815 26.290693 
L 252.556815 25.492277 
L 253.547466 25.492277 
L 253.547466 24.693861 
L 255.934183 24.693861 
L 255.934183 23.895446 
L 258.238543 23.895446 
L 258.273117 22.298614 
L 258.883807 22.298614 
L 258.883807 21.500198 
L 259.28025 21.500198 
L 259.28025 20.701782 
L 259.429971 20.701782 
L 259.527317 19.10495 
L 260.578558 19.10495 
L 260.578558 18.306535 
L 261.840928 18.306535 
L 261.840928 17.508119 
L 262.406976 17.508119 
L 262.406976 16.709703 
L 262.53328 16.709703 
L 262.53328 15.911287 
L 264.153117 15.911287 
L 264.250672 14.314455 
L 265.266602 14.314455 
L 265.266602 13.51604 
L 265.725707 13.51604 
L 265.725707 12.717624 
L 265.878384 12.717624 
L 265.878384 11.919208 
L 269.039528 11.919208 
L 269.039528 11.120792 
L 275.810042 11.120792 
L 275.810042 10.322376 
L 276.742292 10.322376 
L 276.742292 9.52396 
L 278.318354 9.52396 
L 278.318354 8.725545 
L 278.570285 8.725545 
L 278.570285 7.927129 
L 283.094032 7.927129 
L 283.094032 7.128713 
L 285.190579 7.128713 
L 285.190579 6.330297 
L 285.190579 6.330297 
L 460.8 6.330297 
L 460.8 6.330297 
" clip-path="url(#pd048e51061)" style="fill: none; stroke: #bf00bf; stroke-width: 1.5; stroke-linecap: square"/>
   </g>
   <g id="line2d_27">
    <path d="M -1 164.416634 
L -0.911317 164.416634 
L -0.834856 162.819802 
L -0.795948 162.819802 
L -0.691478 160.424554 
L -0.613214 160.424554 
L -0.536799 155.634059 
L -0.413231 155.634059 
L -0.320512 154.037228 
L -0.248837 154.037228 
L -0.18729 150.843564 
L -0.115369 150.843564 
L -0.115369 138.867327 
L 0.682295 138.867327 
L 0.682295 138.068911 
L 21.840658 138.068911 
L 21.840658 137.270495 
L 23.304895 137.270495 
L 23.304895 136.472079 
L 28.903057 136.472079 
L 28.903057 135.673663 
L 42.834625 135.673663 
L 42.834625 134.875248 
L 51.92407 134.875248 
L 51.92407 134.076832 
L 58.338492 134.076832 
L 58.338492 133.278416 
L 60.696303 133.278416 
L 60.696303 132.48 
L 62.905288 132.48 
L 62.905288 131.681584 
L 63.25976 131.681584 
L 63.25976 130.883168 
L 68.153282 130.883168 
L 68.153282 130.084752 
L 68.522371 130.084752 
L 68.522371 129.286337 
L 76.41934 129.286337 
L 76.41934 128.487921 
L 78.22992 128.487921 
L 78.22992 127.689505 
L 79.956532 127.689505 
L 79.956532 126.891089 
L 84.200552 126.891089 
L 84.200552 126.092673 
L 85.382413 126.092673 
L 85.382413 125.294257 
L 89.588648 125.294257 
L 89.588648 124.495842 
L 89.820831 124.495842 
L 89.820831 123.697426 
L 100.23975 123.697426 
L 100.23975 122.89901 
L 102.181967 122.89901 
L 102.181967 122.100594 
L 103.473873 122.100594 
L 103.473873 121.302178 
L 114.423155 121.302178 
L 114.423155 120.503762 
L 115.839369 120.503762 
L 115.839369 119.705347 
L 127.379303 119.705347 
L 127.379303 118.906931 
L 135.836647 118.906931 
L 135.836647 118.108515 
L 139.572044 118.108515 
L 139.572044 117.310099 
L 157.113973 117.310099 
L 157.113973 116.511683 
L 158.991206 116.511683 
L 158.991206 115.713267 
L 162.271898 115.713267 
L 162.271898 114.914851 
L 165.188539 114.914851 
L 165.188539 114.116436 
L 170.632213 114.116436 
L 170.632213 113.31802 
L 173.243648 113.31802 
L 173.243648 112.519604 
L 177.996074 112.519604 
L 177.996074 111.721188 
L 178.169064 111.721188 
L 178.169064 110.922772 
L 180.302381 110.922772 
L 180.302381 110.124356 
L 181.102235 110.124356 
L 181.102235 109.325941 
L 181.709594 109.325941 
L 181.709594 108.527525 
L 183.616113 108.527525 
L 183.616113 107.729109 
L 185.19742 107.729109 
L 185.19742 106.930693 
L 186.839513 106.930693 
L 186.839513 106.132277 
L 192.296912 106.132277 
L 192.296912 105.333861 
L 192.650032 105.333861 
L 192.650032 104.535446 
L 197.40722 104.535446 
L 197.40722 94.954455 
L 198.282225 94.954455 
L 198.282225 94.15604 
L 200.00916 94.15604 
L 200.030334 90.962376 
L 201.344845 90.962376 
L 201.344845 90.16396 
L 204.801407 90.16396 
L 204.801407 88.567129 
L 207.006459 88.567129 
L 207.006459 87.768713 
L 207.433535 87.768713 
L 207.433535 86.970297 
L 208.782539 86.970297 
L 208.782539 86.171881 
L 208.946857 86.171881 
L 208.946857 85.373465 
L 209.192157 85.373465 
L 209.192157 78.986139 
L 211.334729 78.986139 
L 211.334729 78.187723 
L 211.829397 78.187723 
L 211.829397 77.389307 
L 212.188674 77.389307 
L 212.188674 76.590891 
L 212.838911 76.590891 
L 212.838911 75.792475 
L 213.404701 75.792475 
L 213.404701 73.397228 
L 213.766468 73.397228 
L 213.766468 72.598812 
L 214.203978 72.598812 
L 214.203978 71.800396 
L 214.62552 71.800396 
L 214.62552 71.00198 
L 215.032328 71.00198 
L 215.132455 69.405149 
L 215.425988 69.405149 
L 215.527913 67.808317 
L 215.719255 67.808317 
L 215.826908 66.211485 
L 216.006443 66.211485 
L 216.006443 63.816238 
L 216.173886 63.816238 
L 216.173886 63.017822 
L 216.876643 63.017822 
L 216.876643 62.219406 
L 217.120363 62.219406 
L 217.120363 61.42099 
L 217.239702 61.42099 
L 217.239702 60.622574 
L 218.467987 60.622574 
L 218.467987 59.824158 
L 218.688956 59.824158 
L 218.688956 59.025743 
L 219.011032 59.025743 
L 219.011032 58.227327 
L 219.90368 58.227327 
L 219.90368 57.428911 
L 221.11407 57.428911 
L 221.133323 55.832079 
L 221.441399 55.832079 
L 221.441399 49.444752 
L 221.630329 49.444752 
L 221.630329 48.646337 
L 222.251579 48.646337 
L 222.303858 47.049505 
L 222.617681 47.049505 
L 222.617681 46.251089 
L 226.142566 46.251089 
L 226.142566 40.662178 
L 226.574109 40.662178 
L 226.574109 39.863762 
L 227.402751 39.863762 
L 227.402751 39.065347 
L 228.15097 39.065347 
L 228.15097 38.266931 
L 229.478097 38.266931 
L 229.478097 35.073267 
L 229.762454 35.073267 
L 229.762454 34.274851 
L 230.825596 34.274851 
L 230.825596 33.476436 
L 231.7965 33.476436 
L 231.7965 32.67802 
L 232.065324 32.67802 
L 232.065324 31.081188 
L 232.18963 31.081188 
L 232.18963 30.282772 
L 233.369909 30.282772 
L 233.369909 29.484356 
L 233.822716 29.484356 
L 233.822716 28.685941 
L 234.179254 28.685941 
L 234.179254 23.895446 
L 235.074695 23.895446 
L 235.074695 23.09703 
L 235.322053 23.09703 
L 235.322053 22.298614 
L 235.555862 22.298614 
L 235.555862 21.500198 
L 235.743391 21.500198 
L 235.825961 19.903366 
L 235.966557 19.903366 
L 235.966557 17.508119 
L 236.332766 17.508119 
L 236.332766 16.709703 
L 237.514788 16.709703 
L 237.514788 15.112871 
L 238.10507 15.112871 
L 238.10507 14.314455 
L 238.602789 14.314455 
L 238.602789 13.51604 
L 240.102022 13.51604 
L 240.102022 10.322376 
L 241.217291 10.322376 
L 241.217291 9.52396 
L 241.912897 9.52396 
L 241.912897 8.725545 
L 242.276915 8.725545 
L 242.276915 7.927129 
L 242.50933 7.927129 
L 242.50933 7.128713 
L 243.257492 7.128713 
L 243.257492 6.330297 
L 243.257492 6.330297 
L 460.8 6.330297 
L 460.8 6.330297 
" clip-path="url(#pd048e51061)" style="fill: none; stroke: #000000; stroke-width: 1.5; stroke-linecap: square"/>
   </g>
   <g id="line2d_28">
    <path d="M -1 105.333861 
L -0.98564 105.333861 
L -0.911317 103.73703 
L -0.834856 103.73703 
L -0.734658 101.341782 
L -0.698901 101.341782 
L -0.588559 96.551287 
L -0.563052 96.551287 
L -0.536799 94.15604 
L -0.413231 94.15604 
L -0.320512 91.760792 
L -0.248837 91.760792 
L -0.18729 88.567129 
L -0.115369 88.567129 
L -0.115369 76.590891 
L 91.529278 76.590891 
L 91.529278 75.792475 
L 149.231047 75.792475 
L 149.231047 74.994059 
L 149.724804 74.994059 
L 149.724804 74.195644 
L 165.60469 74.195644 
L 165.60469 73.397228 
L 173.243537 73.397228 
L 173.243537 72.598812 
L 175.031568 72.598812 
L 175.031568 71.800396 
L 177.034374 71.800396 
L 177.034374 71.00198 
L 179.829657 71.00198 
L 179.834254 69.405149 
L 180.85895 69.405149 
L 180.85895 68.606733 
L 183.370398 68.606733 
L 183.370398 67.808317 
L 186.033406 67.808317 
L 186.033406 67.009901 
L 186.739986 67.009901 
L 186.739986 66.211485 
L 189.491615 66.211485 
L 189.491615 65.413069 
L 191.061188 65.413069 
L 191.061188 64.614653 
L 191.20755 64.614653 
L 191.20755 63.816238 
L 191.678549 63.816238 
L 191.678549 62.219406 
L 192.41686 62.219406 
L 192.41686 61.42099 
L 193.152117 61.42099 
L 193.152117 60.622574 
L 196.238699 60.622574 
L 196.238699 59.824158 
L 196.72278 59.824158 
L 196.764709 51.84 
L 197.40722 51.84 
L 197.40722 50.243168 
L 198.107798 50.243168 
L 198.107798 49.444752 
L 201.145301 49.444752 
L 201.145301 48.646337 
L 203.792699 48.646337 
L 203.792699 47.847921 
L 204.801407 47.847921 
L 204.801407 47.049505 
L 205.005743 47.049505 
L 205.005743 46.251089 
L 205.242399 46.251089 
L 205.242399 45.452673 
L 206.807177 45.452673 
L 206.807177 44.654257 
L 207.006459 44.654257 
L 207.006459 43.855842 
L 207.513548 43.855842 
L 207.513548 43.057426 
L 209.192157 43.057426 
L 209.192157 39.065347 
L 210.270495 39.065347 
L 210.270495 38.266931 
L 212.621842 38.266931 
L 212.621842 37.468515 
L 212.839803 37.468515 
L 212.839803 36.670099 
L 213.404701 36.670099 
L 213.404701 29.484356 
L 215.132455 29.484356 
L 215.132455 28.685941 
L 216.006443 28.685941 
L 216.006443 27.089109 
L 217.972183 27.089109 
L 217.972183 26.290693 
L 221.279218 26.290693 
L 221.279218 25.492277 
L 221.441399 25.492277 
L 221.441399 24.693861 
L 226.142566 24.693861 
L 226.142566 16.709703 
L 228.15097 16.709703 
L 228.15097 15.911287 
L 228.575526 15.911287 
L 228.575526 15.112871 
L 229.156443 15.112871 
L 229.156443 14.314455 
L 229.478097 14.314455 
L 229.478097 12.717624 
L 232.32086 12.717624 
L 232.32086 11.919208 
L 232.566001 11.919208 
L 232.566001 11.120792 
L 232.697229 11.120792 
L 232.800509 8.725545 
L 232.986391 8.725545 
L 233.061842 7.128713 
L 233.580456 7.128713 
L 233.580456 6.330297 
L 233.580456 6.330297 
L 460.8 6.330297 
L 460.8 6.330297 
" clip-path="url(#pd048e51061)" style="fill: none; stroke: #00bfbf; stroke-width: 1.5; stroke-linecap: square"/>
   </g>
   <g id="line2d_29">
    <path d="M -1 75.792475 
L -0.98564 75.792475 
L -0.911317 74.195644 
L -0.834856 74.195644 
L -0.734658 71.800396 
L -0.698901 71.800396 
L -0.588559 67.009901 
L -0.563052 67.009901 
L -0.536799 64.614653 
L -0.413231 64.614653 
L -0.320512 62.219406 
L -0.248837 62.219406 
L -0.18729 59.025743 
L -0.115369 59.025743 
L -0.115369 47.049505 
L 149.724804 47.049505 
L 149.724804 46.251089 
L 177.065907 46.251089 
L 177.065907 45.452673 
L 180.097176 45.452673 
L 180.097176 44.654257 
L 185.972751 44.654257 
L 185.972751 43.855842 
L 187.571561 43.855842 
L 187.571561 43.057426 
L 190.822635 43.057426 
L 190.822635 42.25901 
L 196.238699 42.25901 
L 196.238699 41.460594 
L 204.588394 41.460594 
L 204.588394 40.662178 
L 206.807177 40.662178 
L 206.807177 39.863762 
L 207.006459 39.863762 
L 207.087943 38.266931 
L 207.258583 38.266931 
L 207.258583 37.468515 
L 207.62505 37.468515 
L 207.62505 36.670099 
L 209.098465 36.670099 
L 209.192157 34.274851 
L 209.894192 34.274851 
L 209.894192 33.476436 
L 210.270495 33.476436 
L 210.270495 32.67802 
L 211.946534 32.67802 
L 211.946534 31.879604 
L 212.621842 31.879604 
L 212.621842 31.081188 
L 212.839803 31.081188 
L 212.847283 29.484356 
L 213.404701 29.484356 
L 213.404701 27.887525 
L 215.132455 27.887525 
L 215.132455 27.089109 
L 217.972183 27.089109 
L 217.972183 26.290693 
L 221.279218 26.290693 
L 221.279218 25.492277 
L 221.441399 25.492277 
L 221.441399 24.693861 
L 222.823196 24.693861 
L 222.823196 23.895446 
L 225.482048 23.895446 
L 225.482048 23.09703 
L 225.739154 23.09703 
L 225.739154 22.298614 
L 226.142566 22.298614 
L 226.142566 13.51604 
L 228.15097 13.51604 
L 228.15097 12.717624 
L 232.155623 12.717624 
L 232.225775 10.322376 
L 232.267931 10.322376 
L 232.368594 7.128713 
L 232.391614 7.128713 
L 232.391614 6.330297 
L 232.391614 6.330297 
L 460.8 6.330297 
L 460.8 6.330297 
" clip-path="url(#pd048e51061)" style="fill: none; stroke: #bf00bf; stroke-width: 1.5; stroke-linecap: square"/>
   </g>
   <g id="patch_3">
    <path d="M 0 293.76 
L 0 3.456 
" style="fill: none; stroke: #000000; stroke-width: 0.8; stroke-linejoin: miter; stroke-linecap: square"/>
   </g>
   <g id="patch_4">
    <path d="M 460.8 293.76 
L 460.8 3.456 
" style="fill: none; stroke: #000000; stroke-width: 0.8; stroke-linejoin: miter; stroke-linecap: square"/>
   </g>
   <g id="patch_5">
    <path d="M 0 293.76 
L 460.8 293.76 
" style="fill: none; stroke: #000000; stroke-width: 0.8; stroke-linejoin: miter; stroke-linecap: square"/>
   </g>
   <g id="patch_6">
    <path d="M 0 3.456 
L 460.8 3.456 
" style="fill: none; stroke: #000000; stroke-width: 0.8; stroke-linejoin: miter; stroke-linecap: square"/>
   </g>
   <g id="text_6">
    <!-- {f1-f24}, 5-D -->
    <g transform="translate(318.609 287.95392)scale(0.2 -0.2)">
     <defs>
      <path id="DejaVuSans-7b" d="M 3272 -594 
L 3272 -1044 
L 3078 -1044 
Q 2300 -1044 2036 -812 
Q 1772 -581 1772 109 
L 1772 856 
Q 1772 1328 1603 1509 
Q 1434 1691 991 1691 
L 800 1691 
L 800 2138 
L 991 2138 
Q 1438 2138 1605 2317 
Q 1772 2497 1772 2963 
L 1772 3713 
Q 1772 4403 2036 4633 
Q 2300 4863 3078 4863 
L 3272 4863 
L 3272 4416 
L 3059 4416 
Q 2619 4416 2484 4278 
Q 2350 4141 2350 3700 
L 2350 2925 
Q 2350 2434 2208 2212 
Q 2066 1991 1722 1913 
Q 2069 1828 2209 1606 
Q 2350 1384 2350 897 
L 2350 122 
Q 2350 -319 2484 -456 
Q 2619 -594 3059 -594 
L 3272 -594 
z
" transform="scale(0.015625)"/>
      <path id="DejaVuSans-32" d="M 1228 531 
L 3431 531 
L 3431 0 
L 469 0 
L 469 531 
Q 828 903 1448 1529 
Q 2069 2156 2228 2338 
Q 2531 2678 2651 2914 
Q 2772 3150 2772 3378 
Q 2772 3750 2511 3984 
Q 2250 4219 1831 4219 
Q 1534 4219 1204 4116 
Q 875 4013 500 3803 
L 500 4441 
Q 881 4594 1212 4672 
Q 1544 4750 1819 4750 
Q 2544 4750 2975 4387 
Q 3406 4025 3406 3419 
Q 3406 3131 3298 2873 
Q 3191 2616 2906 2266 
Q 2828 2175 2409 1742 
Q 1991 1309 1228 531 
z
" transform="scale(0.015625)"/>
      <path id="DejaVuSans-7d" d="M 800 -594 
L 1019 -594 
Q 1456 -594 1589 -459 
Q 1722 -325 1722 122 
L 1722 897 
Q 1722 1384 1862 1606 
Q 2003 1828 2350 1913 
Q 2003 1991 1862 2212 
Q 1722 2434 1722 2925 
L 1722 3700 
Q 1722 4144 1589 4280 
Q 1456 4416 1019 4416 
L 800 4416 
L 800 4863 
L 997 4863 
Q 1775 4863 2036 4633 
Q 2297 4403 2297 3713 
L 2297 2963 
Q 2297 2497 2465 2317 
Q 2634 2138 3078 2138 
L 3272 2138 
L 3272 1691 
L 3078 1691 
Q 2634 1691 2465 1509 
Q 2297 1328 2297 856 
L 2297 109 
Q 2297 -581 2036 -812 
Q 1775 -1044 997 -1044 
L 800 -1044 
L 800 -594 
z
" transform="scale(0.015625)"/>
      <path id="DejaVuSans-2c" d="M 750 794 
L 1409 794 
L 1409 256 
L 897 -744 
L 494 -744 
L 750 256 
L 750 794 
z
" transform="scale(0.015625)"/>
      <path id="DejaVuSans-35" d="M 691 4666 
L 3169 4666 
L 3169 4134 
L 1269 4134 
L 1269 2991 
Q 1406 3038 1543 3061 
Q 1681 3084 1819 3084 
Q 2600 3084 3056 2656 
Q 3513 2228 3513 1497 
Q 3513 744 3044 326 
Q 2575 -91 1722 -91 
Q 1428 -91 1123 -41 
Q 819 9 494 109 
L 494 744 
Q 775 591 1075 516 
Q 1375 441 1709 441 
Q 2250 441 2565 725 
Q 2881 1009 2881 1497 
Q 2881 1984 2565 2268 
Q 2250 2553 1709 2553 
Q 1456 2553 1204 2497 
Q 953 2441 691 2322 
L 691 4666 
z
" transform="scale(0.015625)"/>
     </defs>
     <use xlink:href="#DejaVuSans-7b"/>
     <use xlink:href="#DejaVuSans-66" x="63.623047"/>
     <use xlink:href="#DejaVuSans-31" x="98.828125"/>
     <use xlink:href="#DejaVuSans-2d" x="162.451172"/>
     <use xlink:href="#DejaVuSans-66" x="198.535156"/>
     <use xlink:href="#DejaVuSans-32" x="233.740234"/>
     <use xlink:href="#DejaVuSans-34" x="297.363281"/>
     <use xlink:href="#DejaVuSans-7d" x="360.986328"/>
     <use xlink:href="#DejaVuSans-2c" x="424.609375"/>
     <use xlink:href="#DejaVuSans-20" x="456.396484"/>
     <use xlink:href="#DejaVuSans-35" x="488.183594"/>
     <use xlink:href="#DejaVuSans-2d" x="551.806641"/>
     <use xlink:href="#DejaVuSans-44" x="587.890625"/>
    </g>
   </g>
   <g id="text_7">
    <!-- v2.6.3 -->
    <g style="fill: #808080" transform="translate(214.71875 288.777272)scale(0.1 -0.1)">
     <defs>
      <path id="DejaVuSans-76" d="M 191 3500 
L 800 3500 
L 1894 563 
L 2988 3500 
L 3597 3500 
L 2284 0 
L 1503 0 
L 191 3500 
z
" transform="scale(0.015625)"/>
      <path id="DejaVuSans-2e" d="M 684 794 
L 1344 794 
L 1344 0 
L 684 0 
L 684 794 
z
" transform="scale(0.015625)"/>
      <path id="DejaVuSans-36" d="M 2113 2584 
Q 1688 2584 1439 2293 
Q 1191 2003 1191 1497 
Q 1191 994 1439 701 
Q 1688 409 2113 409 
Q 2538 409 2786 701 
Q 3034 994 3034 1497 
Q 3034 2003 2786 2293 
Q 2538 2584 2113 2584 
z
M 3366 4563 
L 3366 3988 
Q 3128 4100 2886 4159 
Q 2644 4219 2406 4219 
Q 1781 4219 1451 3797 
Q 1122 3375 1075 2522 
Q 1259 2794 1537 2939 
Q 1816 3084 2150 3084 
Q 2853 3084 3261 2657 
Q 3669 2231 3669 1497 
Q 3669 778 3244 343 
Q 2819 -91 2113 -91 
Q 1303 -91 875 529 
Q 447 1150 447 2328 
Q 447 3434 972 4092 
Q 1497 4750 2381 4750 
Q 2619 4750 2861 4703 
Q 3103 4656 3366 4563 
z
" transform="scale(0.015625)"/>
      <path id="DejaVuSans-33" d="M 2597 2516 
Q 3050 2419 3304 2112 
Q 3559 1806 3559 1356 
Q 3559 666 3084 287 
Q 2609 -91 1734 -91 
Q 1441 -91 1130 -33 
Q 819 25 488 141 
L 488 750 
Q 750 597 1062 519 
Q 1375 441 1716 441 
Q 2309 441 2620 675 
Q 2931 909 2931 1356 
Q 2931 1769 2642 2001 
Q 2353 2234 1838 2234 
L 1294 2234 
L 1294 2753 
L 1863 2753 
Q 2328 2753 2575 2939 
Q 2822 3125 2822 3475 
Q 2822 3834 2567 4026 
Q 2313 4219 1838 4219 
Q 1578 4219 1281 4162 
Q 984 4106 628 3988 
L 628 4550 
Q 988 4650 1302 4700 
Q 1616 4750 1894 4750 
Q 2613 4750 3031 4423 
Q 3450 4097 3450 3541 
Q 3450 3153 3228 2886 
Q 3006 2619 2597 2516 
z
" transform="scale(0.015625)"/>
     </defs>
     <use xlink:href="#DejaVuSans-76"/>
     <use xlink:href="#DejaVuSans-32" x="59.179688"/>
     <use xlink:href="#DejaVuSans-2e" x="122.802734"/>
     <use xlink:href="#DejaVuSans-36" x="154.589844"/>
     <use xlink:href="#DejaVuSans-2e" x="218.212891"/>
     <use xlink:href="#DejaVuSans-33" x="250"/>
    </g>
   </g>
  </g>
 </g>
 <defs>
  <clipPath id="pd048e51061">
   <rect x="0" y="3.456" width="460.8" height="290.304"/>
  </clipPath>
 </defs>
</svg>
