<?xml version="1.0" encoding="utf-8" standalone="no"?>
<!DOCTYPE svg PUBLIC "-//W3C//DTD SVG 1.1//EN"
  "http://www.w3.org/Graphics/SVG/1.1/DTD/svg11.dtd">
<svg xmlns:xlink="http://www.w3.org/1999/xlink" width="460.8pt" height="345.6pt" viewBox="0 0 460.8 345.6" xmlns="http://www.w3.org/2000/svg" version="1.1">
 <metadata>
  <rdf:RDF xmlns:dc="http://purl.org/dc/elements/1.1/" xmlns:cc="http://creativecommons.org/ns#" xmlns:rdf="http://www.w3.org/1999/02/22-rdf-syntax-ns#">
   <cc:Work>
    <dc:type rdf:resource="http://purl.org/dc/dcmitype/StillImage"/>
    <dc:date>2023-04-07T14:50:10.971785</dc:date>
    <dc:format>image/svg+xml</dc:format>
    <dc:creator>
     <cc:Agent>
      <dc:title>Matplotlib v3.5.2, https://matplotlib.org/</dc:title>
     </cc:Agent>
    </dc:creator>
   </cc:Work>
  </rdf:RDF>
 </metadata>
 <defs>
  <style type="text/css">*{stroke-linejoin: round; stroke-linecap: butt}</style>
 </defs>
 <g id="figure_1">
  <g id="patch_1">
   <path d="M 0 345.6 
L 460.8 345.6 
L 460.8 0 
L 0 0 
z
" style="fill: #ffffff"/>
  </g>
  <g id="axes_1">
   <g id="patch_2">
    <path d="M 0 293.76 
L 460.8 293.76 
L 460.8 3.456 
L 0 3.456 
z
" style="fill: #ffffff"/>
   </g>
   <g id="matplotlib.axis_1">
    <g id="xtick_1">
     <g id="line2d_1">
      <path d="M 103.443798 293.76 
L 103.443798 3.456 
" clip-path="url(#pf2caad855f)" style="fill: none; stroke: #b0b0b0; stroke-width: 0.8; stroke-linecap: square"/>
     </g>
     <g id="line2d_2">
      <defs>
       <path id="md727a58177" d="M 0 0 
L 0 3.5 
" style="stroke: #000000; stroke-width: 0.8"/>
      </defs>
      <g>
       <use xlink:href="#md727a58177" x="103.443798" y="293.76" style="stroke: #000000; stroke-width: 0.8"/>
      </g>
     </g>
     <g id="text_1">
      <!-- -4 -->
      <g transform="translate(93.473486 315.956875)scale(0.2 -0.2)">
       <defs>
        <path id="DejaVuSans-2d" d="M 313 2009 
L 1997 2009 
L 1997 1497 
L 313 1497 
L 313 2009 
z
" transform="scale(0.015625)"/>
        <path id="DejaVuSans-34" d="M 2419 4116 
L 825 1625 
L 2419 1625 
L 2419 4116 
z
M 2253 4666 
L 3047 4666 
L 3047 1625 
L 3713 1625 
L 3713 1100 
L 3047 1100 
L 3047 0 
L 2419 0 
L 2419 1100 
L 313 1100 
L 313 1709 
L 2253 4666 
z
" transform="scale(0.015625)"/>
       </defs>
       <use xlink:href="#DejaVuSans-2d"/>
       <use xlink:href="#DejaVuSans-34" x="36.083984"/>
      </g>
     </g>
    </g>
    <g id="xtick_2">
     <g id="line2d_3">
      <path d="M 206.999473 293.76 
L 206.999473 3.456 
" clip-path="url(#pf2caad855f)" style="fill: none; stroke: #b0b0b0; stroke-width: 0.8; stroke-linecap: square"/>
     </g>
     <g id="line2d_4">
      <g>
       <use xlink:href="#md727a58177" x="206.999473" y="293.76" style="stroke: #000000; stroke-width: 0.8"/>
      </g>
     </g>
     <g id="text_2">
      <!-- 0 -->
      <g transform="translate(200.636973 315.956875)scale(0.2 -0.2)">
       <defs>
        <path id="DejaVuSans-30" d="M 2034 4250 
Q 1547 4250 1301 3770 
Q 1056 3291 1056 2328 
Q 1056 1369 1301 889 
Q 1547 409 2034 409 
Q 2525 409 2770 889 
Q 3016 1369 3016 2328 
Q 3016 3291 2770 3770 
Q 2525 4250 2034 4250 
z
M 2034 4750 
Q 2819 4750 3233 4129 
Q 3647 3509 3647 2328 
Q 3647 1150 3233 529 
Q 2819 -91 2034 -91 
Q 1250 -91 836 529 
Q 422 1150 422 2328 
Q 422 3509 836 4129 
Q 1250 4750 2034 4750 
z
" transform="scale(0.015625)"/>
       </defs>
       <use xlink:href="#DejaVuSans-30"/>
      </g>
     </g>
    </g>
    <g id="xtick_3">
     <g id="line2d_5">
      <path d="M 310.555147 293.76 
L 310.555147 3.456 
" clip-path="url(#pf2caad855f)" style="fill: none; stroke: #b0b0b0; stroke-width: 0.8; stroke-linecap: square"/>
     </g>
     <g id="line2d_6">
      <g>
       <use xlink:href="#md727a58177" x="310.555147" y="293.76" style="stroke: #000000; stroke-width: 0.8"/>
      </g>
     </g>
     <g id="text_3">
      <!-- 4 -->
      <g transform="translate(304.192647 315.956875)scale(0.2 -0.2)">
       <use xlink:href="#DejaVuSans-34"/>
      </g>
     </g>
    </g>
    <g id="xtick_4">
     <g id="line2d_7">
      <path d="M 414.110821 293.76 
L 414.110821 3.456 
" clip-path="url(#pf2caad855f)" style="fill: none; stroke: #b0b0b0; stroke-width: 0.8; stroke-linecap: square"/>
     </g>
     <g id="line2d_8">
      <g>
       <use xlink:href="#md727a58177" x="414.110821" y="293.76" style="stroke: #000000; stroke-width: 0.8"/>
      </g>
     </g>
     <g id="text_4">
      <!-- 8 -->
      <g transform="translate(407.748321 315.956875)scale(0.2 -0.2)">
       <defs>
        <path id="DejaVuSans-38" d="M 2034 2216 
Q 1584 2216 1326 1975 
Q 1069 1734 1069 1313 
Q 1069 891 1326 650 
Q 1584 409 2034 409 
Q 2484 409 2743 651 
Q 3003 894 3003 1313 
Q 3003 1734 2745 1975 
Q 2488 2216 2034 2216 
z
M 1403 2484 
Q 997 2584 770 2862 
Q 544 3141 544 3541 
Q 544 4100 942 4425 
Q 1341 4750 2034 4750 
Q 2731 4750 3128 4425 
Q 3525 4100 3525 3541 
Q 3525 3141 3298 2862 
Q 3072 2584 2669 2484 
Q 3125 2378 3379 2068 
Q 3634 1759 3634 1313 
Q 3634 634 3220 271 
Q 2806 -91 2034 -91 
Q 1263 -91 848 271 
Q 434 634 434 1313 
Q 434 1759 690 2068 
Q 947 2378 1403 2484 
z
M 1172 3481 
Q 1172 3119 1398 2916 
Q 1625 2713 2034 2713 
Q 2441 2713 2670 2916 
Q 2900 3119 2900 3481 
Q 2900 3844 2670 4047 
Q 2441 4250 2034 4250 
Q 1625 4250 1398 4047 
Q 1172 3844 1172 3481 
z
" transform="scale(0.015625)"/>
       </defs>
       <use xlink:href="#DejaVuSans-38"/>
      </g>
     </g>
    </g>
    <g id="text_5">
     <!-- log10 of Df -->
     <g transform="translate(175.214063 339.313125)scale(0.2 -0.2)">
      <defs>
       <path id="DejaVuSans-6c" d="M 603 4863 
L 1178 4863 
L 1178 0 
L 603 0 
L 603 4863 
z
" transform="scale(0.015625)"/>
       <path id="DejaVuSans-6f" d="M 1959 3097 
Q 1497 3097 1228 2736 
Q 959 2375 959 1747 
Q 959 1119 1226 758 
Q 1494 397 1959 397 
Q 2419 397 2687 759 
Q 2956 1122 2956 1747 
Q 2956 2369 2687 2733 
Q 2419 3097 1959 3097 
z
M 1959 3584 
Q 2709 3584 3137 3096 
Q 3566 2609 3566 1747 
Q 3566 888 3137 398 
Q 2709 -91 1959 -91 
Q 1206 -91 779 398 
Q 353 888 353 1747 
Q 353 2609 779 3096 
Q 1206 3584 1959 3584 
z
" transform="scale(0.015625)"/>
       <path id="DejaVuSans-67" d="M 2906 1791 
Q 2906 2416 2648 2759 
Q 2391 3103 1925 3103 
Q 1463 3103 1205 2759 
Q 947 2416 947 1791 
Q 947 1169 1205 825 
Q 1463 481 1925 481 
Q 2391 481 2648 825 
Q 2906 1169 2906 1791 
z
M 3481 434 
Q 3481 -459 3084 -895 
Q 2688 -1331 1869 -1331 
Q 1566 -1331 1297 -1286 
Q 1028 -1241 775 -1147 
L 775 -588 
Q 1028 -725 1275 -790 
Q 1522 -856 1778 -856 
Q 2344 -856 2625 -561 
Q 2906 -266 2906 331 
L 2906 616 
Q 2728 306 2450 153 
Q 2172 0 1784 0 
Q 1141 0 747 490 
Q 353 981 353 1791 
Q 353 2603 747 3093 
Q 1141 3584 1784 3584 
Q 2172 3584 2450 3431 
Q 2728 3278 2906 2969 
L 2906 3500 
L 3481 3500 
L 3481 434 
z
" transform="scale(0.015625)"/>
       <path id="DejaVuSans-31" d="M 794 531 
L 1825 531 
L 1825 4091 
L 703 3866 
L 703 4441 
L 1819 4666 
L 2450 4666 
L 2450 531 
L 3481 531 
L 3481 0 
L 794 0 
L 794 531 
z
" transform="scale(0.015625)"/>
       <path id="DejaVuSans-20" transform="scale(0.015625)"/>
       <path id="DejaVuSans-66" d="M 2375 4863 
L 2375 4384 
L 1825 4384 
Q 1516 4384 1395 4259 
Q 1275 4134 1275 3809 
L 1275 3500 
L 2222 3500 
L 2222 3053 
L 1275 3053 
L 1275 0 
L 697 0 
L 697 3053 
L 147 3053 
L 147 3500 
L 697 3500 
L 697 3744 
Q 697 4328 969 4595 
Q 1241 4863 1831 4863 
L 2375 4863 
z
" transform="scale(0.015625)"/>
       <path id="DejaVuSans-44" d="M 1259 4147 
L 1259 519 
L 2022 519 
Q 2988 519 3436 956 
Q 3884 1394 3884 2338 
Q 3884 3275 3436 3711 
Q 2988 4147 2022 4147 
L 1259 4147 
z
M 628 4666 
L 1925 4666 
Q 3281 4666 3915 4102 
Q 4550 3538 4550 2338 
Q 4550 1131 3912 565 
Q 3275 0 1925 0 
L 628 0 
L 628 4666 
z
" transform="scale(0.015625)"/>
      </defs>
      <use xlink:href="#DejaVuSans-6c"/>
      <use xlink:href="#DejaVuSans-6f" x="27.783203"/>
      <use xlink:href="#DejaVuSans-67" x="88.964844"/>
      <use xlink:href="#DejaVuSans-31" x="152.441406"/>
      <use xlink:href="#DejaVuSans-30" x="216.064453"/>
      <use xlink:href="#DejaVuSans-20" x="279.6875"/>
      <use xlink:href="#DejaVuSans-6f" x="311.474609"/>
      <use xlink:href="#DejaVuSans-66" x="372.65625"/>
      <use xlink:href="#DejaVuSans-20" x="407.861328"/>
      <use xlink:href="#DejaVuSans-44" x="439.648438"/>
      <use xlink:href="#DejaVuSans-66" x="516.650391"/>
     </g>
    </g>
   </g>
   <g id="matplotlib.axis_2">
    <g id="ytick_1">
     <g id="line2d_9">
      <path d="M 0 293.76 
L 460.8 293.76 
" clip-path="url(#pf2caad855f)" style="fill: none; stroke: #b0b0b0; stroke-width: 0.8; stroke-linecap: square"/>
     </g>
     <g id="line2d_10">
      <defs>
       <path id="m75a9fd7a58" d="M 0 0 
L -3.5 0 
" style="stroke: #000000; stroke-width: 0.8"/>
      </defs>
      <g>
       <use xlink:href="#m75a9fd7a58" x="0" y="293.76" style="stroke: #000000; stroke-width: 0.8"/>
      </g>
     </g>
    </g>
    <g id="ytick_2">
     <g id="line2d_11">
      <path d="M 0 236.274059 
L 460.8 236.274059 
" clip-path="url(#pf2caad855f)" style="fill: none; stroke: #b0b0b0; stroke-width: 0.8; stroke-linecap: square"/>
     </g>
     <g id="line2d_12">
      <g>
       <use xlink:href="#m75a9fd7a58" x="0" y="236.274059" style="stroke: #000000; stroke-width: 0.8"/>
      </g>
     </g>
    </g>
    <g id="ytick_3">
     <g id="line2d_13">
      <path d="M 0 178.788119 
L 460.8 178.788119 
" clip-path="url(#pf2caad855f)" style="fill: none; stroke: #b0b0b0; stroke-width: 0.8; stroke-linecap: square"/>
     </g>
     <g id="line2d_14">
      <g>
       <use xlink:href="#m75a9fd7a58" x="0" y="178.788119" style="stroke: #000000; stroke-width: 0.8"/>
      </g>
     </g>
    </g>
    <g id="ytick_4">
     <g id="line2d_15">
      <path d="M 0 121.302178 
L 460.8 121.302178 
" clip-path="url(#pf2caad855f)" style="fill: none; stroke: #b0b0b0; stroke-width: 0.8; stroke-linecap: square"/>
     </g>
     <g id="line2d_16">
      <g>
       <use xlink:href="#m75a9fd7a58" x="0" y="121.302178" style="stroke: #000000; stroke-width: 0.8"/>
      </g>
     </g>
    </g>
    <g id="ytick_5">
     <g id="line2d_17">
      <path d="M 0 63.816238 
L 460.8 63.816238 
" clip-path="url(#pf2caad855f)" style="fill: none; stroke: #b0b0b0; stroke-width: 0.8; stroke-linecap: square"/>
     </g>
     <g id="line2d_18">
      <g>
       <use xlink:href="#m75a9fd7a58" x="0" y="63.816238" style="stroke: #000000; stroke-width: 0.8"/>
      </g>
     </g>
    </g>
    <g id="ytick_6">
     <g id="line2d_19">
      <path d="M 0 6.330297 
L 460.8 6.330297 
" clip-path="url(#pf2caad855f)" style="fill: none; stroke: #b0b0b0; stroke-width: 0.8; stroke-linecap: square"/>
     </g>
     <g id="line2d_20">
      <g>
       <use xlink:href="#m75a9fd7a58" x="0" y="6.330297" style="stroke: #000000; stroke-width: 0.8"/>
      </g>
     </g>
    </g>
   </g>
   <g id="line2d_21">
    <path d="M -1 59.025743 
L -0.907243 59.025743 
L -0.907243 54.235248 
L -0.903351 54.235248 
L -0.903351 49.444752 
L -0.7969 49.444752 
L -0.7969 44.654257 
L -0.658205 44.654257 
L -0.658205 39.863762 
L -0.612139 39.863762 
L -0.612139 35.073267 
L -0.553491 35.073267 
L -0.553491 30.282772 
L -0.551896 30.282772 
L -0.551896 25.492277 
L -0.485761 25.492277 
L -0.485761 20.701782 
L -0.446089 20.701782 
L -0.446089 15.911287 
L -0.271851 15.911287 
L -0.271851 11.120792 
L -0.153967 11.120792 
L -0.153967 6.330297 
L -0.153967 6.330297 
L -0.153967 6.330297 
L 460.8 6.330297 
" clip-path="url(#pf2caad855f)" style="fill: none; stroke: #ff0000; stroke-width: 3; stroke-linecap: square"/>
   </g>
   <g id="line2d_22">
    <path d="M 261.150468 293.76 
L 261.150468 288.969505 
L 261.150468 288.969505 
L 261.150468 284.17901 
L 261.150468 284.17901 
L 261.150468 279.388515 
L 261.150468 279.388515 
L 261.150468 274.59802 
L 261.150468 274.59802 
L 261.150468 269.807525 
L 261.150468 269.807525 
L 261.150468 265.01703 
L 261.150468 265.01703 
L 261.150468 260.226535 
L 261.150468 260.226535 
L 261.150468 255.43604 
L 261.150468 255.43604 
L 261.150468 250.645545 
L 261.150468 250.645545 
L 261.150468 245.85505 
L 261.150468 245.85505 
L 261.150468 241.064554 
L 261.150468 241.064554 
L 261.150468 236.274059 
L 261.150468 236.274059 
L 261.150468 231.483564 
L 261.150468 231.483564 
L 261.150468 226.693069 
L 261.150468 226.693069 
L 261.150468 221.902574 
L 271.541345 221.902574 
L 271.541345 217.112079 
L 271.634467 217.112079 
L 271.634467 212.321584 
L 272.271425 212.321584 
L 272.271425 207.531089 
L 275.116929 207.531089 
L 275.116929 202.740594 
L 275.835393 202.740594 
L 275.835393 197.950099 
L 279.378992 197.950099 
L 279.378992 193.159604 
L 279.984708 193.159604 
L 279.984708 188.369109 
L 280.605529 188.369109 
L 280.605529 183.578614 
L 280.805006 183.578614 
L 280.805006 178.788119 
L 281.708711 178.788119 
L 281.708711 173.997624 
L 284.433407 173.997624 
L 284.433407 169.207129 
L 284.916661 169.207129 
L 284.916661 164.416634 
L 286.492695 164.416634 
L 286.492695 159.626139 
L 291.05467 159.626139 
L 291.05467 154.835644 
L 293.669858 154.835644 
L 293.669858 150.045149 
L 321.322934 150.045149 
L 321.322934 145.254653 
L 323.813864 145.254653 
L 323.813864 140.464158 
L 324.694923 140.464158 
L 324.694923 135.673663 
L 325.912234 135.673663 
L 325.912234 130.883168 
L 325.980075 130.883168 
L 325.980075 126.092673 
L 326.968765 126.092673 
L 326.968765 121.302178 
L 327.874387 121.302178 
L 327.874387 116.511683 
L 329.952645 116.511683 
L 329.952645 111.721188 
L 331.226654 111.721188 
L 331.226654 106.930693 
L 331.467332 106.930693 
L 331.467332 102.140198 
L 332.287702 102.140198 
L 332.287702 97.349703 
L 332.59748 97.349703 
L 332.59748 92.559208 
L 333.593071 92.559208 
L 333.593071 87.768713 
L 333.699026 87.768713 
L 333.699026 82.978218 
L 334.397867 82.978218 
L 334.397867 78.187723 
L 338.067074 78.187723 
L 338.067074 73.397228 
L 339.484832 73.397228 
L 339.484832 68.606733 
L 345.395776 68.606733 
L 345.395776 63.816238 
L 346.101466 63.816238 
L 346.101466 59.025743 
L 348.142339 59.025743 
L 348.142339 54.235248 
L 349.822937 54.235248 
L 349.822937 49.444752 
L 350.669253 49.444752 
L 350.669253 44.654257 
L 350.751649 44.654257 
L 350.751649 39.863762 
L 351.386635 39.863762 
L 351.386635 35.073267 
L 351.512243 35.073267 
L 351.512243 30.282772 
L 351.872302 30.282772 
L 351.872302 25.492277 
L 353.865276 25.492277 
L 353.865276 20.701782 
L 355.746676 20.701782 
L 355.746676 15.911287 
L 357.988806 15.911287 
L 357.988806 11.120792 
L 362.342764 11.120792 
L 362.342764 6.330297 
L 362.342764 6.330297 
L 362.342764 6.330297 
L 460.8 6.330297 
" clip-path="url(#pf2caad855f)" style="fill: none; stroke: #00bfbf; stroke-width: 1.5; stroke-linecap: square"/>
   </g>
   <g id="line2d_23">
    <path d="M 261.150468 293.76 
L 261.150468 288.969505 
L 261.150468 288.969505 
L 261.150468 284.17901 
L 261.150468 284.17901 
L 261.150468 279.388515 
L 261.150468 279.388515 
L 261.150468 274.59802 
L 261.150468 274.59802 
L 261.150468 269.807525 
L 261.150468 269.807525 
L 261.150468 265.01703 
L 261.150468 265.01703 
L 261.150468 260.226535 
L 261.150468 260.226535 
L 261.150468 255.43604 
L 261.150468 255.43604 
L 261.150468 250.645545 
L 261.150468 250.645545 
L 261.150468 245.85505 
L 261.150468 245.85505 
L 261.150468 241.064554 
L 261.150468 241.064554 
L 261.150468 236.274059 
L 261.150468 236.274059 
L 261.150468 231.483564 
L 261.150468 231.483564 
L 261.150468 226.693069 
L 261.150468 226.693069 
L 261.150468 221.902574 
L 268.015611 221.902574 
L 268.015611 217.112079 
L 269.528487 217.112079 
L 269.528487 212.321584 
L 271.541345 212.321584 
L 271.541345 207.531089 
L 271.634467 207.531089 
L 271.634467 202.740594 
L 272.271425 202.740594 
L 272.271425 197.950099 
L 273.462089 197.950099 
L 273.462089 193.159604 
L 275.555773 193.159604 
L 275.555773 188.369109 
L 278.191205 188.369109 
L 278.191205 183.578614 
L 279.378992 183.578614 
L 279.378992 178.788119 
L 279.59609 178.788119 
L 279.59609 173.997624 
L 280.605529 173.997624 
L 280.605529 169.207129 
L 283.516 169.207129 
L 283.516 164.416634 
L 284.297408 164.416634 
L 284.297408 159.626139 
L 286.118193 159.626139 
L 286.118193 154.835644 
L 289.891355 154.835644 
L 289.891355 150.045149 
L 321.322934 150.045149 
L 321.322934 145.254653 
L 321.973921 145.254653 
L 321.973921 140.464158 
L 323.813864 140.464158 
L 323.813864 135.673663 
L 323.986905 135.673663 
L 323.986905 130.883168 
L 325.912234 130.883168 
L 325.912234 126.092673 
L 325.980075 126.092673 
L 325.980075 121.302178 
L 326.968765 121.302178 
L 326.968765 116.511683 
L 327.874387 116.511683 
L 327.874387 111.721188 
L 328.5905 111.721188 
L 328.5905 106.930693 
L 329.952645 106.930693 
L 329.952645 102.140198 
L 331.171609 102.140198 
L 331.171609 97.349703 
L 331.226654 97.349703 
L 331.226654 92.559208 
L 331.467332 92.559208 
L 331.467332 87.768713 
L 332.59748 87.768713 
L 332.59748 82.978218 
L 333.699026 82.978218 
L 333.699026 78.187723 
L 334.397867 78.187723 
L 334.397867 73.397228 
L 337.78424 73.397228 
L 337.78424 68.606733 
L 340.76774 68.606733 
L 340.76774 63.816238 
L 341.231782 63.816238 
L 341.231782 59.025743 
L 343.663953 59.025743 
L 343.663953 54.235248 
L 343.897812 54.235248 
L 343.897812 49.444752 
L 344.993959 49.444752 
L 344.993959 44.654257 
L 349.111975 44.654257 
L 349.111975 39.863762 
L 349.865408 39.863762 
L 349.865408 35.073267 
L 350.191013 35.073267 
L 350.191013 30.282772 
L 350.80942 30.282772 
L 350.80942 25.492277 
L 351.512243 25.492277 
L 351.512243 20.701782 
L 355.746676 20.701782 
L 355.746676 15.911287 
L 356.13952 15.911287 
L 356.13952 11.120792 
L 358.485852 11.120792 
L 358.485852 6.330297 
L 358.485852 6.330297 
L 358.485852 6.330297 
L 460.8 6.330297 
" clip-path="url(#pf2caad855f)" style="fill: none; stroke: #bf00bf; stroke-width: 1.5; stroke-linecap: square"/>
   </g>
   <g id="line2d_24">
    <path d="M 261.150468 293.76 
L 261.150468 288.969505 
L 261.150468 288.969505 
L 261.150468 284.17901 
L 261.150468 284.17901 
L 261.150468 279.388515 
L 261.150468 279.388515 
L 261.150468 274.59802 
L 261.150468 274.59802 
L 261.150468 269.807525 
L 261.150468 269.807525 
L 261.150468 265.01703 
L 261.150468 265.01703 
L 261.150468 260.226535 
L 261.150468 260.226535 
L 261.150468 255.43604 
L 261.150468 255.43604 
L 261.150468 250.645545 
L 261.150468 250.645545 
L 261.150468 245.85505 
L 261.150468 245.85505 
L 261.150468 241.064554 
L 261.150468 241.064554 
L 261.150468 236.274059 
L 261.150468 236.274059 
L 261.150468 231.483564 
L 261.150468 231.483564 
L 261.150468 226.693069 
L 261.150468 226.693069 
L 261.150468 221.902574 
L 263.582818 221.902574 
L 263.582818 217.112079 
L 268.015611 217.112079 
L 268.015611 212.321584 
L 268.4387 212.321584 
L 268.4387 207.531089 
L 270.722488 207.531089 
L 270.722488 202.740594 
L 271.201782 202.740594 
L 271.201782 197.950099 
L 272.270186 197.950099 
L 272.270186 193.159604 
L 272.271425 193.159604 
L 272.271425 188.369109 
L 273.118136 188.369109 
L 273.118136 183.578614 
L 273.581062 183.578614 
L 273.581062 178.788119 
L 275.555773 178.788119 
L 275.555773 173.997624 
L 276.825463 173.997624 
L 276.825463 169.207129 
L 277.426723 169.207129 
L 277.426723 164.416634 
L 277.730061 164.416634 
L 277.730061 159.626139 
L 279.748718 159.626139 
L 279.748718 154.835644 
L 281.644286 154.835644 
L 281.644286 150.045149 
L 318.432122 150.045149 
L 318.432122 145.254653 
L 319.37095 145.254653 
L 319.37095 140.464158 
L 319.841293 140.464158 
L 319.841293 135.673663 
L 321.322934 135.673663 
L 321.322934 130.883168 
L 321.552946 130.883168 
L 321.552946 126.092673 
L 322.149553 126.092673 
L 322.149553 121.302178 
L 322.470788 121.302178 
L 322.470788 116.511683 
L 322.619307 116.511683 
L 322.619307 111.721188 
L 324.716104 111.721188 
L 324.716104 106.930693 
L 326.089313 106.930693 
L 326.089313 102.140198 
L 326.400773 102.140198 
L 326.400773 97.349703 
L 326.968765 97.349703 
L 326.968765 92.559208 
L 327.607646 92.559208 
L 327.607646 87.768713 
L 329.939284 87.768713 
L 329.939284 82.978218 
L 330.118355 82.978218 
L 330.118355 78.187723 
L 331.226654 78.187723 
L 331.226654 73.397228 
L 331.336689 73.397228 
L 331.336689 68.606733 
L 331.347264 68.606733 
L 331.347264 63.816238 
L 331.461106 63.816238 
L 331.461106 59.025743 
L 331.467332 59.025743 
L 331.467332 54.235248 
L 331.967517 54.235248 
L 331.967517 49.444752 
L 334.821174 49.444752 
L 334.821174 44.654257 
L 338.673027 44.654257 
L 338.673027 39.863762 
L 339.824222 39.863762 
L 339.824222 35.073267 
L 341.231782 35.073267 
L 341.231782 30.282772 
L 342.49436 30.282772 
L 342.49436 25.492277 
L 343.704709 25.492277 
L 343.704709 20.701782 
L 344.836261 20.701782 
L 344.836261 15.911287 
L 345.435859 15.911287 
L 345.435859 11.120792 
L 350.412642 11.120792 
L 350.412642 6.330297 
L 350.412642 6.330297 
L 350.412642 6.330297 
L 460.8 6.330297 
" clip-path="url(#pf2caad855f)" style="fill: none; stroke: #000000; stroke-width: 1.5; stroke-linecap: square"/>
   </g>
   <g id="line2d_25">
    <path d="M 253.847675 293.76 
L 253.847675 288.969505 
L 259.077213 288.969505 
L 259.077213 284.17901 
L 259.080892 284.17901 
L 259.080892 279.388515 
L 259.774716 279.388515 
L 259.774716 274.59802 
L 261.150468 274.59802 
L 261.150468 269.807525 
L 261.150468 269.807525 
L 261.150468 265.01703 
L 261.150468 265.01703 
L 261.150468 260.226535 
L 261.150468 260.226535 
L 261.150468 255.43604 
L 261.150468 255.43604 
L 261.150468 250.645545 
L 261.150468 250.645545 
L 261.150468 245.85505 
L 261.150468 245.85505 
L 261.150468 241.064554 
L 261.150468 241.064554 
L 261.150468 236.274059 
L 261.150468 236.274059 
L 261.150468 231.483564 
L 261.150468 231.483564 
L 261.150468 226.693069 
L 261.150468 226.693069 
L 261.150468 221.902574 
L 261.150468 221.902574 
L 261.150468 217.112079 
L 261.150468 217.112079 
L 261.150468 212.321584 
L 261.150468 212.321584 
L 261.150468 207.531089 
L 261.150468 207.531089 
L 261.150468 202.740594 
L 261.480173 202.740594 
L 261.480173 197.950099 
L 262.421702 197.950099 
L 262.421702 193.159604 
L 264.395305 193.159604 
L 264.395305 188.369109 
L 266.658532 188.369109 
L 266.658532 183.578614 
L 266.730969 183.578614 
L 266.730969 178.788119 
L 266.773652 178.788119 
L 266.773652 173.997624 
L 267.264214 173.997624 
L 267.264214 169.207129 
L 269.247827 169.207129 
L 269.247827 164.416634 
L 269.62679 164.416634 
L 269.62679 159.626139 
L 270.294514 159.626139 
L 270.294514 154.835644 
L 270.838963 154.835644 
L 270.838963 150.045149 
L 272.220115 150.045149 
L 272.220115 145.254653 
L 274.400785 145.254653 
L 274.400785 140.464158 
L 275.022013 140.464158 
L 275.022013 135.673663 
L 275.09903 135.673663 
L 275.09903 130.883168 
L 276.186821 130.883168 
L 276.186821 126.092673 
L 277.436663 126.092673 
L 277.436663 121.302178 
L 279.155882 121.302178 
L 279.155882 116.511683 
L 281.611944 116.511683 
L 281.611944 111.721188 
L 281.68192 111.721188 
L 281.68192 106.930693 
L 281.899187 106.930693 
L 281.899187 102.140198 
L 284.847249 102.140198 
L 284.847249 97.349703 
L 289.060603 97.349703 
L 289.060603 92.559208 
L 293.42385 92.559208 
L 293.42385 87.768713 
L 294.045523 87.768713 
L 294.045523 82.978218 
L 294.97376 82.978218 
L 294.97376 78.187723 
L 295.777021 78.187723 
L 295.777021 73.397228 
L 296.401917 73.397228 
L 296.401917 68.606733 
L 296.749426 68.606733 
L 296.749426 63.816238 
L 297.324843 63.816238 
L 297.324843 59.025743 
L 301.128656 59.025743 
L 301.128656 54.235248 
L 302.609007 54.235248 
L 302.609007 49.444752 
L 303.064612 49.444752 
L 303.064612 44.654257 
L 303.391749 44.654257 
L 303.391749 39.863762 
L 305.031768 39.863762 
L 305.031768 35.073267 
L 305.497376 35.073267 
L 305.497376 30.282772 
L 306.268208 30.282772 
L 306.268208 25.492277 
L 308.066423 25.492277 
L 308.066423 20.701782 
L 308.436461 20.701782 
L 308.436461 15.911287 
L 309.503231 15.911287 
L 309.503231 11.120792 
L 317.822055 11.120792 
L 317.822055 6.330297 
L 317.822055 6.330297 
L 317.822055 6.330297 
L 460.8 6.330297 
" clip-path="url(#pf2caad855f)" style="fill: none; stroke: #00bfbf; stroke-width: 1.5; stroke-linecap: square"/>
   </g>
   <g id="line2d_26">
    <path d="M 203.839472 293.76 
L 203.839472 288.969505 
L 217.682938 288.969505 
L 217.682938 284.17901 
L 220.467878 284.17901 
L 220.467878 279.388515 
L 220.531223 279.388515 
L 220.531223 274.59802 
L 224.066022 274.59802 
L 224.066022 269.807525 
L 224.595834 269.807525 
L 224.595834 265.01703 
L 225.104317 265.01703 
L 225.104317 260.226535 
L 226.025506 260.226535 
L 226.025506 255.43604 
L 226.259412 255.43604 
L 226.259412 250.645545 
L 228.304803 250.645545 
L 228.304803 245.85505 
L 228.607536 245.85505 
L 228.607536 241.064554 
L 229.465669 241.064554 
L 229.465669 236.274059 
L 229.768925 236.274059 
L 229.768925 231.483564 
L 229.819989 231.483564 
L 229.819989 226.693069 
L 230.301343 226.693069 
L 230.301343 221.902574 
L 230.52845 221.902574 
L 230.52845 217.112079 
L 231.023661 217.112079 
L 231.023661 212.321584 
L 231.825716 212.321584 
L 231.825716 207.531089 
L 232.476178 207.531089 
L 232.476178 202.740594 
L 232.541651 202.740594 
L 232.541651 197.950099 
L 232.984916 197.950099 
L 232.984916 193.159604 
L 233.138026 193.159604 
L 233.138026 188.369109 
L 233.571088 188.369109 
L 233.571088 183.578614 
L 233.846035 183.578614 
L 233.846035 178.788119 
L 235.127186 178.788119 
L 235.127186 173.997624 
L 235.658878 173.997624 
L 235.658878 169.207129 
L 236.040831 169.207129 
L 236.040831 164.416634 
L 236.243707 164.416634 
L 236.243707 159.626139 
L 238.20775 159.626139 
L 238.20775 154.835644 
L 238.21456 154.835644 
L 238.21456 150.045149 
L 238.593245 150.045149 
L 238.593245 145.254653 
L 238.59674 145.254653 
L 238.59674 140.464158 
L 238.682377 140.464158 
L 238.682377 135.673663 
L 239.013548 135.673663 
L 239.013548 130.883168 
L 239.106882 130.883168 
L 239.106882 126.092673 
L 239.116978 126.092673 
L 239.116978 121.302178 
L 239.122097 121.302178 
L 239.122097 116.511683 
L 239.124262 116.511683 
L 239.124262 111.721188 
L 239.161739 111.721188 
L 239.161739 106.930693 
L 239.270356 106.930693 
L 239.270356 102.140198 
L 239.46632 102.140198 
L 239.46632 97.349703 
L 239.474309 97.349703 
L 239.474309 92.559208 
L 239.541693 92.559208 
L 239.541693 87.768713 
L 239.577493 87.768713 
L 239.577493 82.978218 
L 239.598967 82.978218 
L 239.598967 78.187723 
L 239.619549 78.187723 
L 239.619549 73.397228 
L 239.662333 73.397228 
L 239.662333 68.606733 
L 239.695682 68.606733 
L 239.695682 63.816238 
L 239.786111 63.816238 
L 239.786111 59.025743 
L 239.855655 59.025743 
L 239.855655 54.235248 
L 239.902187 54.235248 
L 239.902187 49.444752 
L 239.922642 49.444752 
L 239.922642 44.654257 
L 240.044537 44.654257 
L 240.044537 39.863762 
L 240.063687 39.863762 
L 240.063687 35.073267 
L 240.33244 35.073267 
L 240.33244 30.282772 
L 240.383499 30.282772 
L 240.383499 25.492277 
L 241.22882 25.492277 
L 241.22882 20.701782 
L 241.4373 20.701782 
L 241.4373 15.911287 
L 243.640287 15.911287 
L 243.640287 11.120792 
L 256.757631 11.120792 
L 256.757631 6.330297 
L 256.757631 6.330297 
L 256.757631 6.330297 
L 460.8 6.330297 
" clip-path="url(#pf2caad855f)" style="fill: none; stroke: #bf00bf; stroke-width: 1.5; stroke-linecap: square"/>
   </g>
   <g id="line2d_27">
    <path d="M -1 130.883168 
L -0.903351 130.883168 
L -0.903351 126.092673 
L -0.7969 126.092673 
L -0.7969 121.302178 
L -0.658205 121.302178 
L -0.658205 116.511683 
L -0.612139 116.511683 
L -0.612139 111.721188 
L -0.553491 111.721188 
L -0.553491 106.930693 
L -0.551896 106.930693 
L -0.551896 102.140198 
L -0.485761 102.140198 
L -0.485761 97.349703 
L -0.446089 97.349703 
L -0.446089 92.559208 
L -0.271851 92.559208 
L -0.271851 87.768713 
L -0.153967 87.768713 
L -0.153967 82.978218 
L 1.567123 82.978218 
L 1.567123 78.187723 
L 11.540685 78.187723 
L 11.540685 73.397228 
L 20.537234 73.397228 
L 20.537234 68.606733 
L 29.171765 68.606733 
L 29.171765 63.816238 
L 42.956712 63.816238 
L 42.956712 59.025743 
L 176.49251 59.025743 
L 176.49251 54.235248 
L 176.773947 54.235248 
L 176.773947 49.444752 
L 178.67638 49.444752 
L 178.67638 44.654257 
L 178.963396 44.654257 
L 178.963396 39.863762 
L 189.70724 39.863762 
L 189.70724 35.073267 
L 203.068543 35.073267 
L 203.068543 30.282772 
L 204.617959 30.282772 
L 204.617959 25.492277 
L 205.998843 25.492277 
L 205.998843 20.701782 
L 207.575846 20.701782 
L 207.575846 15.911287 
L 208.675398 15.911287 
L 208.675398 11.120792 
L 208.819528 11.120792 
L 208.819528 6.330297 
L 208.819528 6.330297 
L 208.819528 6.330297 
L 460.8 6.330297 
" clip-path="url(#pf2caad855f)" style="fill: none; stroke: #000000; stroke-width: 1.5; stroke-linecap: square"/>
   </g>
   <g id="patch_3">
    <path d="M 0 293.76 
L 0 3.456 
" style="fill: none; stroke: #000000; stroke-width: 0.8; stroke-linejoin: miter; stroke-linecap: square"/>
   </g>
   <g id="patch_4">
    <path d="M 460.8 293.76 
L 460.8 3.456 
" style="fill: none; stroke: #000000; stroke-width: 0.8; stroke-linejoin: miter; stroke-linecap: square"/>
   </g>
   <g id="patch_5">
    <path d="M 0 293.76 
L 460.8 293.76 
" style="fill: none; stroke: #000000; stroke-width: 0.8; stroke-linejoin: miter; stroke-linecap: square"/>
   </g>
   <g id="patch_6">
    <path d="M 0 3.456 
L 460.8 3.456 
" style="fill: none; stroke: #000000; stroke-width: 0.8; stroke-linejoin: miter; stroke-linecap: square"/>
   </g>
   <g id="text_6">
    <!-- {f6-f9}, 20-D -->
    <g transform="translate(318.609 287.95392)scale(0.2 -0.2)">
     <defs>
      <path id="DejaVuSans-7b" d="M 3272 -594 
L 3272 -1044 
L 3078 -1044 
Q 2300 -1044 2036 -812 
Q 1772 -581 1772 109 
L 1772 856 
Q 1772 1328 1603 1509 
Q 1434 1691 991 1691 
L 800 1691 
L 800 2138 
L 991 2138 
Q 1438 2138 1605 2317 
Q 1772 2497 1772 2963 
L 1772 3713 
Q 1772 4403 2036 4633 
Q 2300 4863 3078 4863 
L 3272 4863 
L 3272 4416 
L 3059 4416 
Q 2619 4416 2484 4278 
Q 2350 4141 2350 3700 
L 2350 2925 
Q 2350 2434 2208 2212 
Q 2066 1991 1722 1913 
Q 2069 1828 2209 1606 
Q 2350 1384 2350 897 
L 2350 122 
Q 2350 -319 2484 -456 
Q 2619 -594 3059 -594 
L 3272 -594 
z
" transform="scale(0.015625)"/>
      <path id="DejaVuSans-36" d="M 2113 2584 
Q 1688 2584 1439 2293 
Q 1191 2003 1191 1497 
Q 1191 994 1439 701 
Q 1688 409 2113 409 
Q 2538 409 2786 701 
Q 3034 994 3034 1497 
Q 3034 2003 2786 2293 
Q 2538 2584 2113 2584 
z
M 3366 4563 
L 3366 3988 
Q 3128 4100 2886 4159 
Q 2644 4219 2406 4219 
Q 1781 4219 1451 3797 
Q 1122 3375 1075 2522 
Q 1259 2794 1537 2939 
Q 1816 3084 2150 3084 
Q 2853 3084 3261 2657 
Q 3669 2231 3669 1497 
Q 3669 778 3244 343 
Q 2819 -91 2113 -91 
Q 1303 -91 875 529 
Q 447 1150 447 2328 
Q 447 3434 972 4092 
Q 1497 4750 2381 4750 
Q 2619 4750 2861 4703 
Q 3103 4656 3366 4563 
z
" transform="scale(0.015625)"/>
      <path id="DejaVuSans-39" d="M 703 97 
L 703 672 
Q 941 559 1184 500 
Q 1428 441 1663 441 
Q 2288 441 2617 861 
Q 2947 1281 2994 2138 
Q 2813 1869 2534 1725 
Q 2256 1581 1919 1581 
Q 1219 1581 811 2004 
Q 403 2428 403 3163 
Q 403 3881 828 4315 
Q 1253 4750 1959 4750 
Q 2769 4750 3195 4129 
Q 3622 3509 3622 2328 
Q 3622 1225 3098 567 
Q 2575 -91 1691 -91 
Q 1453 -91 1209 -44 
Q 966 3 703 97 
z
M 1959 2075 
Q 2384 2075 2632 2365 
Q 2881 2656 2881 3163 
Q 2881 3666 2632 3958 
Q 2384 4250 1959 4250 
Q 1534 4250 1286 3958 
Q 1038 3666 1038 3163 
Q 1038 2656 1286 2365 
Q 1534 2075 1959 2075 
z
" transform="scale(0.015625)"/>
      <path id="DejaVuSans-7d" d="M 800 -594 
L 1019 -594 
Q 1456 -594 1589 -459 
Q 1722 -325 1722 122 
L 1722 897 
Q 1722 1384 1862 1606 
Q 2003 1828 2350 1913 
Q 2003 1991 1862 2212 
Q 1722 2434 1722 2925 
L 1722 3700 
Q 1722 4144 1589 4280 
Q 1456 4416 1019 4416 
L 800 4416 
L 800 4863 
L 997 4863 
Q 1775 4863 2036 4633 
Q 2297 4403 2297 3713 
L 2297 2963 
Q 2297 2497 2465 2317 
Q 2634 2138 3078 2138 
L 3272 2138 
L 3272 1691 
L 3078 1691 
Q 2634 1691 2465 1509 
Q 2297 1328 2297 856 
L 2297 109 
Q 2297 -581 2036 -812 
Q 1775 -1044 997 -1044 
L 800 -1044 
L 800 -594 
z
" transform="scale(0.015625)"/>
      <path id="DejaVuSans-2c" d="M 750 794 
L 1409 794 
L 1409 256 
L 897 -744 
L 494 -744 
L 750 256 
L 750 794 
z
" transform="scale(0.015625)"/>
      <path id="DejaVuSans-32" d="M 1228 531 
L 3431 531 
L 3431 0 
L 469 0 
L 469 531 
Q 828 903 1448 1529 
Q 2069 2156 2228 2338 
Q 2531 2678 2651 2914 
Q 2772 3150 2772 3378 
Q 2772 3750 2511 3984 
Q 2250 4219 1831 4219 
Q 1534 4219 1204 4116 
Q 875 4013 500 3803 
L 500 4441 
Q 881 4594 1212 4672 
Q 1544 4750 1819 4750 
Q 2544 4750 2975 4387 
Q 3406 4025 3406 3419 
Q 3406 3131 3298 2873 
Q 3191 2616 2906 2266 
Q 2828 2175 2409 1742 
Q 1991 1309 1228 531 
z
" transform="scale(0.015625)"/>
     </defs>
     <use xlink:href="#DejaVuSans-7b"/>
     <use xlink:href="#DejaVuSans-66" x="63.623047"/>
     <use xlink:href="#DejaVuSans-36" x="98.828125"/>
     <use xlink:href="#DejaVuSans-2d" x="162.451172"/>
     <use xlink:href="#DejaVuSans-66" x="198.535156"/>
     <use xlink:href="#DejaVuSans-39" x="233.740234"/>
     <use xlink:href="#DejaVuSans-7d" x="297.363281"/>
     <use xlink:href="#DejaVuSans-2c" x="360.986328"/>
     <use xlink:href="#DejaVuSans-20" x="392.773438"/>
     <use xlink:href="#DejaVuSans-32" x="424.560547"/>
     <use xlink:href="#DejaVuSans-30" x="488.183594"/>
     <use xlink:href="#DejaVuSans-2d" x="551.806641"/>
     <use xlink:href="#DejaVuSans-44" x="587.890625"/>
    </g>
   </g>
   <g id="text_7">
    <!-- v2.6.3 -->
    <g style="fill: #808080" transform="translate(214.71875 288.777272)scale(0.1 -0.1)">
     <defs>
      <path id="DejaVuSans-76" d="M 191 3500 
L 800 3500 
L 1894 563 
L 2988 3500 
L 3597 3500 
L 2284 0 
L 1503 0 
L 191 3500 
z
" transform="scale(0.015625)"/>
      <path id="DejaVuSans-2e" d="M 684 794 
L 1344 794 
L 1344 0 
L 684 0 
L 684 794 
z
" transform="scale(0.015625)"/>
      <path id="DejaVuSans-33" d="M 2597 2516 
Q 3050 2419 3304 2112 
Q 3559 1806 3559 1356 
Q 3559 666 3084 287 
Q 2609 -91 1734 -91 
Q 1441 -91 1130 -33 
Q 819 25 488 141 
L 488 750 
Q 750 597 1062 519 
Q 1375 441 1716 441 
Q 2309 441 2620 675 
Q 2931 909 2931 1356 
Q 2931 1769 2642 2001 
Q 2353 2234 1838 2234 
L 1294 2234 
L 1294 2753 
L 1863 2753 
Q 2328 2753 2575 2939 
Q 2822 3125 2822 3475 
Q 2822 3834 2567 4026 
Q 2313 4219 1838 4219 
Q 1578 4219 1281 4162 
Q 984 4106 628 3988 
L 628 4550 
Q 988 4650 1302 4700 
Q 1616 4750 1894 4750 
Q 2613 4750 3031 4423 
Q 3450 4097 3450 3541 
Q 3450 3153 3228 2886 
Q 3006 2619 2597 2516 
z
" transform="scale(0.015625)"/>
     </defs>
     <use xlink:href="#DejaVuSans-76"/>
     <use xlink:href="#DejaVuSans-32" x="59.179688"/>
     <use xlink:href="#DejaVuSans-2e" x="122.802734"/>
     <use xlink:href="#DejaVuSans-36" x="154.589844"/>
     <use xlink:href="#DejaVuSans-2e" x="218.212891"/>
     <use xlink:href="#DejaVuSans-33" x="250"/>
    </g>
   </g>
  </g>
 </g>
 <defs>
  <clipPath id="pf2caad855f">
   <rect x="0" y="3.456" width="460.8" height="290.304"/>
  </clipPath>
 </defs>
</svg>
