<?xml version="1.0" encoding="utf-8" standalone="no"?>
<!DOCTYPE svg PUBLIC "-//W3C//DTD SVG 1.1//EN"
  "http://www.w3.org/Graphics/SVG/1.1/DTD/svg11.dtd">
<svg xmlns:xlink="http://www.w3.org/1999/xlink" width="460.8pt" height="345.6pt" viewBox="0 0 460.8 345.6" xmlns="http://www.w3.org/2000/svg" version="1.1">
 <metadata>
  <rdf:RDF xmlns:dc="http://purl.org/dc/elements/1.1/" xmlns:cc="http://creativecommons.org/ns#" xmlns:rdf="http://www.w3.org/1999/02/22-rdf-syntax-ns#">
   <cc:Work>
    <dc:type rdf:resource="http://purl.org/dc/dcmitype/StillImage"/>
    <dc:date>2023-04-07T14:50:11.892611</dc:date>
    <dc:format>image/svg+xml</dc:format>
    <dc:creator>
     <cc:Agent>
      <dc:title>Matplotlib v3.5.2, https://matplotlib.org/</dc:title>
     </cc:Agent>
    </dc:creator>
   </cc:Work>
  </rdf:RDF>
 </metadata>
 <defs>
  <style type="text/css">*{stroke-linejoin: round; stroke-linecap: butt}</style>
 </defs>
 <g id="figure_1">
  <g id="patch_1">
   <path d="M 0 345.6 
L 460.8 345.6 
L 460.8 0 
L 0 0 
z
" style="fill: #ffffff"/>
  </g>
  <g id="axes_1">
   <g id="patch_2">
    <path d="M 0 293.76 
L 460.8 293.76 
L 460.8 3.456 
L 0 3.456 
z
" style="fill: #ffffff"/>
   </g>
   <g id="matplotlib.axis_1">
    <g id="xtick_1">
     <g id="line2d_1">
      <path d="M 103.443798 293.76 
L 103.443798 3.456 
" clip-path="url(#p5b3f8c0407)" style="fill: none; stroke: #b0b0b0; stroke-width: 0.8; stroke-linecap: square"/>
     </g>
     <g id="line2d_2">
      <defs>
       <path id="m13f2022f14" d="M 0 0 
L 0 3.5 
" style="stroke: #000000; stroke-width: 0.8"/>
      </defs>
      <g>
       <use xlink:href="#m13f2022f14" x="103.443798" y="293.76" style="stroke: #000000; stroke-width: 0.8"/>
      </g>
     </g>
     <g id="text_1">
      <!-- -4 -->
      <g transform="translate(93.473486 315.956875)scale(0.2 -0.2)">
       <defs>
        <path id="DejaVuSans-2d" d="M 313 2009 
L 1997 2009 
L 1997 1497 
L 313 1497 
L 313 2009 
z
" transform="scale(0.015625)"/>
        <path id="DejaVuSans-34" d="M 2419 4116 
L 825 1625 
L 2419 1625 
L 2419 4116 
z
M 2253 4666 
L 3047 4666 
L 3047 1625 
L 3713 1625 
L 3713 1100 
L 3047 1100 
L 3047 0 
L 2419 0 
L 2419 1100 
L 313 1100 
L 313 1709 
L 2253 4666 
z
" transform="scale(0.015625)"/>
       </defs>
       <use xlink:href="#DejaVuSans-2d"/>
       <use xlink:href="#DejaVuSans-34" x="36.083984"/>
      </g>
     </g>
    </g>
    <g id="xtick_2">
     <g id="line2d_3">
      <path d="M 206.999473 293.76 
L 206.999473 3.456 
" clip-path="url(#p5b3f8c0407)" style="fill: none; stroke: #b0b0b0; stroke-width: 0.8; stroke-linecap: square"/>
     </g>
     <g id="line2d_4">
      <g>
       <use xlink:href="#m13f2022f14" x="206.999473" y="293.76" style="stroke: #000000; stroke-width: 0.8"/>
      </g>
     </g>
     <g id="text_2">
      <!-- 0 -->
      <g transform="translate(200.636973 315.956875)scale(0.2 -0.2)">
       <defs>
        <path id="DejaVuSans-30" d="M 2034 4250 
Q 1547 4250 1301 3770 
Q 1056 3291 1056 2328 
Q 1056 1369 1301 889 
Q 1547 409 2034 409 
Q 2525 409 2770 889 
Q 3016 1369 3016 2328 
Q 3016 3291 2770 3770 
Q 2525 4250 2034 4250 
z
M 2034 4750 
Q 2819 4750 3233 4129 
Q 3647 3509 3647 2328 
Q 3647 1150 3233 529 
Q 2819 -91 2034 -91 
Q 1250 -91 836 529 
Q 422 1150 422 2328 
Q 422 3509 836 4129 
Q 1250 4750 2034 4750 
z
" transform="scale(0.015625)"/>
       </defs>
       <use xlink:href="#DejaVuSans-30"/>
      </g>
     </g>
    </g>
    <g id="xtick_3">
     <g id="line2d_5">
      <path d="M 310.555147 293.76 
L 310.555147 3.456 
" clip-path="url(#p5b3f8c0407)" style="fill: none; stroke: #b0b0b0; stroke-width: 0.8; stroke-linecap: square"/>
     </g>
     <g id="line2d_6">
      <g>
       <use xlink:href="#m13f2022f14" x="310.555147" y="293.76" style="stroke: #000000; stroke-width: 0.8"/>
      </g>
     </g>
     <g id="text_3">
      <!-- 4 -->
      <g transform="translate(304.192647 315.956875)scale(0.2 -0.2)">
       <use xlink:href="#DejaVuSans-34"/>
      </g>
     </g>
    </g>
    <g id="xtick_4">
     <g id="line2d_7">
      <path d="M 414.110821 293.76 
L 414.110821 3.456 
" clip-path="url(#p5b3f8c0407)" style="fill: none; stroke: #b0b0b0; stroke-width: 0.8; stroke-linecap: square"/>
     </g>
     <g id="line2d_8">
      <g>
       <use xlink:href="#m13f2022f14" x="414.110821" y="293.76" style="stroke: #000000; stroke-width: 0.8"/>
      </g>
     </g>
     <g id="text_4">
      <!-- 8 -->
      <g transform="translate(407.748321 315.956875)scale(0.2 -0.2)">
       <defs>
        <path id="DejaVuSans-38" d="M 2034 2216 
Q 1584 2216 1326 1975 
Q 1069 1734 1069 1313 
Q 1069 891 1326 650 
Q 1584 409 2034 409 
Q 2484 409 2743 651 
Q 3003 894 3003 1313 
Q 3003 1734 2745 1975 
Q 2488 2216 2034 2216 
z
M 1403 2484 
Q 997 2584 770 2862 
Q 544 3141 544 3541 
Q 544 4100 942 4425 
Q 1341 4750 2034 4750 
Q 2731 4750 3128 4425 
Q 3525 4100 3525 3541 
Q 3525 3141 3298 2862 
Q 3072 2584 2669 2484 
Q 3125 2378 3379 2068 
Q 3634 1759 3634 1313 
Q 3634 634 3220 271 
Q 2806 -91 2034 -91 
Q 1263 -91 848 271 
Q 434 634 434 1313 
Q 434 1759 690 2068 
Q 947 2378 1403 2484 
z
M 1172 3481 
Q 1172 3119 1398 2916 
Q 1625 2713 2034 2713 
Q 2441 2713 2670 2916 
Q 2900 3119 2900 3481 
Q 2900 3844 2670 4047 
Q 2441 4250 2034 4250 
Q 1625 4250 1398 4047 
Q 1172 3844 1172 3481 
z
" transform="scale(0.015625)"/>
       </defs>
       <use xlink:href="#DejaVuSans-38"/>
      </g>
     </g>
    </g>
    <g id="text_5">
     <!-- log10 of Df -->
     <g transform="translate(175.214063 339.313125)scale(0.2 -0.2)">
      <defs>
       <path id="DejaVuSans-6c" d="M 603 4863 
L 1178 4863 
L 1178 0 
L 603 0 
L 603 4863 
z
" transform="scale(0.015625)"/>
       <path id="DejaVuSans-6f" d="M 1959 3097 
Q 1497 3097 1228 2736 
Q 959 2375 959 1747 
Q 959 1119 1226 758 
Q 1494 397 1959 397 
Q 2419 397 2687 759 
Q 2956 1122 2956 1747 
Q 2956 2369 2687 2733 
Q 2419 3097 1959 3097 
z
M 1959 3584 
Q 2709 3584 3137 3096 
Q 3566 2609 3566 1747 
Q 3566 888 3137 398 
Q 2709 -91 1959 -91 
Q 1206 -91 779 398 
Q 353 888 353 1747 
Q 353 2609 779 3096 
Q 1206 3584 1959 3584 
z
" transform="scale(0.015625)"/>
       <path id="DejaVuSans-67" d="M 2906 1791 
Q 2906 2416 2648 2759 
Q 2391 3103 1925 3103 
Q 1463 3103 1205 2759 
Q 947 2416 947 1791 
Q 947 1169 1205 825 
Q 1463 481 1925 481 
Q 2391 481 2648 825 
Q 2906 1169 2906 1791 
z
M 3481 434 
Q 3481 -459 3084 -895 
Q 2688 -1331 1869 -1331 
Q 1566 -1331 1297 -1286 
Q 1028 -1241 775 -1147 
L 775 -588 
Q 1028 -725 1275 -790 
Q 1522 -856 1778 -856 
Q 2344 -856 2625 -561 
Q 2906 -266 2906 331 
L 2906 616 
Q 2728 306 2450 153 
Q 2172 0 1784 0 
Q 1141 0 747 490 
Q 353 981 353 1791 
Q 353 2603 747 3093 
Q 1141 3584 1784 3584 
Q 2172 3584 2450 3431 
Q 2728 3278 2906 2969 
L 2906 3500 
L 3481 3500 
L 3481 434 
z
" transform="scale(0.015625)"/>
       <path id="DejaVuSans-31" d="M 794 531 
L 1825 531 
L 1825 4091 
L 703 3866 
L 703 4441 
L 1819 4666 
L 2450 4666 
L 2450 531 
L 3481 531 
L 3481 0 
L 794 0 
L 794 531 
z
" transform="scale(0.015625)"/>
       <path id="DejaVuSans-20" transform="scale(0.015625)"/>
       <path id="DejaVuSans-66" d="M 2375 4863 
L 2375 4384 
L 1825 4384 
Q 1516 4384 1395 4259 
Q 1275 4134 1275 3809 
L 1275 3500 
L 2222 3500 
L 2222 3053 
L 1275 3053 
L 1275 0 
L 697 0 
L 697 3053 
L 147 3053 
L 147 3500 
L 697 3500 
L 697 3744 
Q 697 4328 969 4595 
Q 1241 4863 1831 4863 
L 2375 4863 
z
" transform="scale(0.015625)"/>
       <path id="DejaVuSans-44" d="M 1259 4147 
L 1259 519 
L 2022 519 
Q 2988 519 3436 956 
Q 3884 1394 3884 2338 
Q 3884 3275 3436 3711 
Q 2988 4147 2022 4147 
L 1259 4147 
z
M 628 4666 
L 1925 4666 
Q 3281 4666 3915 4102 
Q 4550 3538 4550 2338 
Q 4550 1131 3912 565 
Q 3275 0 1925 0 
L 628 0 
L 628 4666 
z
" transform="scale(0.015625)"/>
      </defs>
      <use xlink:href="#DejaVuSans-6c"/>
      <use xlink:href="#DejaVuSans-6f" x="27.783203"/>
      <use xlink:href="#DejaVuSans-67" x="88.964844"/>
      <use xlink:href="#DejaVuSans-31" x="152.441406"/>
      <use xlink:href="#DejaVuSans-30" x="216.064453"/>
      <use xlink:href="#DejaVuSans-20" x="279.6875"/>
      <use xlink:href="#DejaVuSans-6f" x="311.474609"/>
      <use xlink:href="#DejaVuSans-66" x="372.65625"/>
      <use xlink:href="#DejaVuSans-20" x="407.861328"/>
      <use xlink:href="#DejaVuSans-44" x="439.648438"/>
      <use xlink:href="#DejaVuSans-66" x="516.650391"/>
     </g>
    </g>
   </g>
   <g id="matplotlib.axis_2">
    <g id="ytick_1">
     <g id="line2d_9">
      <path d="M 0 293.76 
L 460.8 293.76 
" clip-path="url(#p5b3f8c0407)" style="fill: none; stroke: #b0b0b0; stroke-width: 0.8; stroke-linecap: square"/>
     </g>
     <g id="line2d_10">
      <defs>
       <path id="mec3c72fef2" d="M 0 0 
L -3.5 0 
" style="stroke: #000000; stroke-width: 0.8"/>
      </defs>
      <g>
       <use xlink:href="#mec3c72fef2" x="0" y="293.76" style="stroke: #000000; stroke-width: 0.8"/>
      </g>
     </g>
    </g>
    <g id="ytick_2">
     <g id="line2d_11">
      <path d="M 0 236.274059 
L 460.8 236.274059 
" clip-path="url(#p5b3f8c0407)" style="fill: none; stroke: #b0b0b0; stroke-width: 0.8; stroke-linecap: square"/>
     </g>
     <g id="line2d_12">
      <g>
       <use xlink:href="#mec3c72fef2" x="0" y="236.274059" style="stroke: #000000; stroke-width: 0.8"/>
      </g>
     </g>
    </g>
    <g id="ytick_3">
     <g id="line2d_13">
      <path d="M 0 178.788119 
L 460.8 178.788119 
" clip-path="url(#p5b3f8c0407)" style="fill: none; stroke: #b0b0b0; stroke-width: 0.8; stroke-linecap: square"/>
     </g>
     <g id="line2d_14">
      <g>
       <use xlink:href="#mec3c72fef2" x="0" y="178.788119" style="stroke: #000000; stroke-width: 0.8"/>
      </g>
     </g>
    </g>
    <g id="ytick_4">
     <g id="line2d_15">
      <path d="M 0 121.302178 
L 460.8 121.302178 
" clip-path="url(#p5b3f8c0407)" style="fill: none; stroke: #b0b0b0; stroke-width: 0.8; stroke-linecap: square"/>
     </g>
     <g id="line2d_16">
      <g>
       <use xlink:href="#mec3c72fef2" x="0" y="121.302178" style="stroke: #000000; stroke-width: 0.8"/>
      </g>
     </g>
    </g>
    <g id="ytick_5">
     <g id="line2d_17">
      <path d="M 0 63.816238 
L 460.8 63.816238 
" clip-path="url(#p5b3f8c0407)" style="fill: none; stroke: #b0b0b0; stroke-width: 0.8; stroke-linecap: square"/>
     </g>
     <g id="line2d_18">
      <g>
       <use xlink:href="#mec3c72fef2" x="0" y="63.816238" style="stroke: #000000; stroke-width: 0.8"/>
      </g>
     </g>
    </g>
    <g id="ytick_6">
     <g id="line2d_19">
      <path d="M 0 6.330297 
L 460.8 6.330297 
" clip-path="url(#p5b3f8c0407)" style="fill: none; stroke: #b0b0b0; stroke-width: 0.8; stroke-linecap: square"/>
     </g>
     <g id="line2d_20">
      <g>
       <use xlink:href="#mec3c72fef2" x="0" y="6.330297" style="stroke: #000000; stroke-width: 0.8"/>
      </g>
     </g>
    </g>
   </g>
   <g id="line2d_21">
    <path d="M -1 182.620515 
L -0.937879 182.620515 
L -0.937879 178.788119 
L -0.111876 178.788119 
L -0.111876 121.302178 
L 214.735993 121.302178 
L 214.735993 117.469782 
L 219.294805 117.469782 
L 219.294805 113.637386 
L 222.529334 113.637386 
L 222.529334 98.307802 
L 225.038229 98.307802 
L 225.038229 86.810614 
L 227.088146 86.810614 
L 227.088146 79.145822 
L 228.821326 79.145822 
L 228.821326 71.48103 
L 230.322675 71.48103 
L 230.322675 63.816238 
L 233.903182 63.816238 
L 233.903182 59.983842 
L 234.881487 59.983842 
L 234.881487 40.821861 
L 235.78144 40.821861 
L 235.78144 21.659881 
L 236.614663 21.659881 
L 236.614667 10.162693 
L 237.390383 10.162693 
L 237.390383 6.330297 
L 237.390383 6.330297 
L 460.8 6.330297 
L 460.8 6.330297 
" clip-path="url(#p5b3f8c0407)" style="fill: none; stroke: #ff0000; stroke-width: 3; stroke-linecap: square"/>
   </g>
   <g id="line2d_22">
    <path d="M 251.888841 293.76 
L 251.888841 289.927604 
L 253.865714 289.927604 
L 253.865714 286.095208 
L 255.013895 286.095208 
L 255.013895 282.262812 
L 256.21554 282.262812 
L 256.21554 278.430416 
L 256.421495 278.430416 
L 256.421495 274.59802 
L 257.564281 274.59802 
L 257.564281 270.765624 
L 258.326472 270.765624 
L 258.326472 266.933228 
L 258.628727 266.933228 
L 258.628727 263.100832 
L 259.179948 263.100832 
L 259.179948 259.268436 
L 259.813463 259.268436 
L 259.813463 255.43604 
L 260.432609 255.43604 
L 260.432609 251.603644 
L 260.75324 251.603644 
L 260.793983 243.938851 
L 260.890743 243.938851 
L 260.890743 240.106455 
L 263.08316 240.106455 
L 263.08316 236.274059 
L 270.542977 236.274059 
L 270.542977 232.441663 
L 271.069122 232.441663 
L 271.177752 224.776871 
L 271.514256 224.776871 
L 271.617715 217.112079 
L 271.88652 217.112079 
L 271.88652 213.279683 
L 272.724602 213.279683 
L 272.807389 201.782495 
L 273.100054 201.782495 
L 273.149609 194.117703 
L 273.257084 194.117703 
L 273.290146 186.452911 
L 273.52538 186.452911 
L 273.52538 182.620515 
L 273.735292 182.620515 
L 273.735292 178.788119 
L 276.168713 178.788119 
L 276.168713 174.955723 
L 276.590475 174.955723 
L 276.590475 171.123327 
L 277.219941 171.123327 
L 277.281131 163.458535 
L 277.740406 163.458535 
L 277.740406 159.626139 
L 278.116396 159.626139 
L 278.116396 155.793743 
L 278.580921 155.793743 
L 278.580921 151.961347 
L 278.821721 151.961347 
L 278.821721 148.12895 
L 279.255191 148.12895 
L 279.28784 140.464158 
L 279.374393 140.464158 
L 279.374393 136.631762 
L 279.643137 136.631762 
L 279.709716 125.134574 
L 279.887488 125.134574 
L 279.963025 117.469782 
L 280.299381 117.469782 
L 280.299381 113.637386 
L 280.434004 113.637386 
L 280.434004 109.80499 
L 280.55716 109.80499 
L 280.574126 102.140198 
L 280.704876 102.140198 
L 280.771858 94.475406 
L 280.849682 94.475406 
L 280.849682 90.64301 
L 281.004342 90.64301 
L 281.004342 86.810614 
L 281.685255 86.810614 
L 281.685255 82.978218 
L 282.380351 82.978218 
L 282.395151 75.313426 
L 282.78803 75.313426 
L 282.78803 71.48103 
L 283.360453 71.48103 
L 283.434625 63.816238 
L 370.701491 63.816238 
L 370.701491 59.983842 
L 373.529651 59.983842 
L 373.529651 56.151446 
L 376.933335 56.151446 
L 376.933335 52.31905 
L 378.574486 52.31905 
L 378.574486 48.486653 
L 379.408694 48.486653 
L 379.462342 40.821861 
L 379.781959 40.821861 
L 379.781959 36.989465 
L 379.95408 36.989465 
L 379.95408 33.157069 
L 381.17701 33.157069 
L 381.17701 29.324673 
L 381.453445 29.324673 
L 381.453445 25.492277 
L 381.89199 25.492277 
L 381.89199 21.659881 
L 382.356727 21.659881 
L 382.356727 17.827485 
L 382.881832 17.827485 
L 382.881832 13.995089 
L 385.058176 13.995089 
L 385.058176 10.162693 
L 385.623642 10.162693 
L 385.623642 6.330297 
L 385.623642 6.330297 
L 460.8 6.330297 
L 460.8 6.330297 
" clip-path="url(#p5b3f8c0407)" style="fill: none; stroke: #00bfbf; stroke-width: 1.5; stroke-linecap: square"/>
   </g>
   <g id="line2d_23">
    <path d="M 251.888841 293.76 
L 251.888841 289.927604 
L 253.865714 289.927604 
L 253.865714 286.095208 
L 254.395046 286.095208 
L 254.477917 278.430416 
L 255.013895 278.430416 
L 255.013895 274.59802 
L 255.390651 274.59802 
L 255.466935 266.933228 
L 256.421495 266.933228 
L 256.421495 263.100832 
L 256.540634 263.100832 
L 256.540634 259.268436 
L 258.375131 259.268436 
L 258.375131 255.43604 
L 258.687318 255.43604 
L 258.687318 251.603644 
L 259.813463 251.603644 
L 259.813463 247.771248 
L 260.335834 247.771248 
L 260.335834 243.938851 
L 260.793983 243.938851 
L 260.793983 240.106455 
L 261.116966 240.106455 
L 261.116966 236.274059 
L 267.533505 236.274059 
L 267.533505 232.441663 
L 270.175281 232.441663 
L 270.175281 228.609267 
L 270.294047 228.609267 
L 270.294047 224.776871 
L 270.414486 224.776871 
L 270.451051 217.112079 
L 270.527723 217.112079 
L 270.544437 209.447287 
L 270.6784 209.447287 
L 270.750582 201.782495 
L 270.884907 201.782495 
L 270.98415 194.117703 
L 271.932501 194.117703 
L 271.932501 190.285307 
L 272.657234 190.285307 
L 272.657234 186.452911 
L 273.069647 186.452911 
L 273.069647 182.620515 
L 273.705586 182.620515 
L 273.705586 178.788119 
L 275.865067 178.788119 
L 275.865067 174.955723 
L 276.168713 174.955723 
L 276.168713 171.123327 
L 276.590475 171.123327 
L 276.590475 167.290931 
L 277.209776 167.290931 
L 277.281131 155.793743 
L 277.63083 155.793743 
L 277.740406 148.12895 
L 277.984615 148.12895 
L 277.984615 144.296554 
L 278.332235 144.296554 
L 278.332235 140.464158 
L 278.580921 140.464158 
L 278.580921 136.631762 
L 278.821721 136.631762 
L 278.821721 132.799366 
L 279.211571 132.799366 
L 279.28784 121.302178 
L 279.374393 121.302178 
L 279.374393 117.469782 
L 279.643137 117.469782 
L 279.709716 105.972594 
L 279.963025 105.972594 
L 280.037456 98.307802 
L 280.299381 98.307802 
L 280.299381 94.475406 
L 280.434004 94.475406 
L 280.434004 90.64301 
L 280.55716 90.64301 
L 280.55716 86.810614 
L 280.704876 86.810614 
L 280.704876 82.978218 
L 281.004342 82.978218 
L 281.004342 79.145822 
L 282.380351 79.145822 
L 282.395151 71.48103 
L 282.516026 71.48103 
L 282.516026 67.648634 
L 282.78803 67.648634 
L 282.78803 63.816238 
L 360.783404 63.816238 
L 360.783404 59.983842 
L 370.701491 59.983842 
L 370.738635 52.31905 
L 370.894696 52.31905 
L 370.894696 48.486653 
L 372.635805 48.486653 
L 372.635805 44.654257 
L 374.596927 44.654257 
L 374.596927 40.821861 
L 375.595538 40.821861 
L 375.639455 33.157069 
L 376.741198 33.157069 
L 376.741198 29.324673 
L 377.424111 29.324673 
L 377.458942 21.659881 
L 378.09734 21.659881 
L 378.09734 17.827485 
L 378.574486 17.827485 
L 378.574486 13.995089 
L 379.781959 13.995089 
L 379.781959 10.162693 
L 383.190107 10.162693 
L 383.190107 6.330297 
L 383.190107 6.330297 
L 460.8 6.330297 
L 460.8 6.330297 
" clip-path="url(#p5b3f8c0407)" style="fill: none; stroke: #bf00bf; stroke-width: 1.5; stroke-linecap: square"/>
   </g>
   <g id="line2d_24">
    <path d="M 249.266874 293.76 
L 249.337134 286.095208 
L 249.682005 286.095208 
L 249.722607 278.430416 
L 250.943381 278.430416 
L 250.943381 274.59802 
L 251.481533 274.59802 
L 251.481533 270.765624 
L 251.973813 270.765624 
L 251.973813 266.933228 
L 252.882359 266.933228 
L 252.882359 263.100832 
L 253.130072 263.100832 
L 253.130072 259.268436 
L 253.494998 259.268436 
L 253.494998 255.43604 
L 254.252767 255.43604 
L 254.252767 251.603644 
L 255.013895 251.603644 
L 255.013895 247.771248 
L 257.312372 247.771248 
L 257.312372 243.938851 
L 258.774276 243.938851 
L 258.774276 240.106455 
L 259.813463 240.106455 
L 259.813463 236.274059 
L 261.671518 236.274059 
L 261.671518 232.441663 
L 261.943803 232.441663 
L 261.943803 228.609267 
L 264.16511 228.609267 
L 264.16511 224.776871 
L 265.13429 224.776871 
L 265.197964 217.112079 
L 265.406778 217.112079 
L 265.406778 213.279683 
L 265.585413 213.279683 
L 265.585413 209.447287 
L 265.7303 209.447287 
L 265.7303 205.614891 
L 267.225951 205.614891 
L 267.225951 201.782495 
L 267.417609 201.782495 
L 267.524938 190.285307 
L 267.529405 190.285307 
L 267.552098 182.620515 
L 268.808155 182.620515 
L 268.808155 178.788119 
L 269.795764 178.788119 
L 269.795764 174.955723 
L 271.505476 174.955723 
L 271.505476 171.123327 
L 273.87674 171.123327 
L 273.87674 167.290931 
L 275.302373 167.290931 
L 275.325822 159.626139 
L 275.603822 159.626139 
L 275.603822 155.793743 
L 275.738869 155.793743 
L 275.738869 151.961347 
L 275.865067 151.961347 
L 275.865067 148.12895 
L 276.168713 148.12895 
L 276.177562 140.464158 
L 276.394024 140.464158 
L 276.468893 128.96697 
L 276.527217 128.96697 
L 276.527217 125.134574 
L 276.731236 125.134574 
L 276.830002 117.469782 
L 277.209776 117.469782 
L 277.281131 109.80499 
L 277.444742 109.80499 
L 277.444742 105.972594 
L 278.652633 105.972594 
L 278.652633 102.140198 
L 278.788948 102.140198 
L 278.821721 94.475406 
L 278.979496 94.475406 
L 278.979496 90.64301 
L 279.643137 90.64301 
L 279.709716 82.978218 
L 279.872273 82.978218 
L 279.963025 75.313426 
L 280.434004 75.313426 
L 280.434004 71.48103 
L 280.967877 71.48103 
L 281.004342 63.816238 
L 360.783404 63.816238 
L 360.783404 59.983842 
L 361.309679 59.983842 
L 361.309679 56.151446 
L 366.503394 56.151446 
L 366.503394 52.31905 
L 367.872426 52.31905 
L 367.872426 48.486653 
L 368.894949 48.486653 
L 368.894949 44.654257 
L 369.12042 44.654257 
L 369.158271 36.989465 
L 370.17184 36.989465 
L 370.17184 33.157069 
L 371.668623 33.157069 
L 371.672144 25.492277 
L 373.06447 25.492277 
L 373.06447 21.659881 
L 373.446998 21.659881 
L 373.446998 17.827485 
L 373.935936 17.827485 
L 373.935936 13.995089 
L 376.741198 13.995089 
L 376.741198 10.162693 
L 378.09734 10.162693 
L 378.09734 6.330297 
L 378.09734 6.330297 
L 460.8 6.330297 
L 460.8 6.330297 
" clip-path="url(#p5b3f8c0407)" style="fill: none; stroke: #000000; stroke-width: 1.5; stroke-linecap: square"/>
   </g>
   <g id="line2d_25">
    <path d="M -0.111876 293.76 
L -0.111876 286.095208 
L 208.128879 286.095208 
L 208.128879 282.262812 
L 215.189854 282.262812 
L 215.189854 278.430416 
L 217.853858 278.430416 
L 217.853858 274.59802 
L 218.386824 274.59802 
L 218.386824 270.765624 
L 228.730757 270.765624 
L 228.730757 266.933228 
L 230.449058 266.933228 
L 230.449058 263.100832 
L 232.134238 263.100832 
L 232.134238 259.268436 
L 232.35232 259.268436 
L 232.35232 255.43604 
L 233.819874 255.43604 
L 233.819874 251.603644 
L 234.193966 251.603644 
L 234.193966 247.771248 
L 235.390033 247.771248 
L 235.390033 243.938851 
L 235.847822 243.938851 
L 235.915608 236.274059 
L 238.393977 236.274059 
L 238.393977 232.441663 
L 239.28378 232.441663 
L 239.28378 228.609267 
L 239.691744 228.609267 
L 239.691744 224.776871 
L 240.551385 224.776871 
L 240.551385 220.944475 
L 241.613556 220.944475 
L 241.613556 217.112079 
L 243.170419 217.112079 
L 243.170419 213.279683 
L 243.518344 213.279683 
L 243.518344 209.447287 
L 245.068341 209.447287 
L 245.068341 205.614891 
L 245.212547 205.614891 
L 245.212547 201.782495 
L 245.588963 201.782495 
L 245.622452 194.117703 
L 247.043566 194.117703 
L 247.043566 190.285307 
L 247.346347 190.285307 
L 247.346347 186.452911 
L 247.538966 186.452911 
L 247.538966 182.620515 
L 249.083704 182.620515 
L 249.083704 178.788119 
L 268.016366 178.788119 
L 268.016366 174.955723 
L 269.143846 174.955723 
L 269.143846 171.123327 
L 269.432698 171.123327 
L 269.432698 167.290931 
L 269.786603 167.290931 
L 269.844679 159.626139 
L 270.366833 159.626139 
L 270.366833 155.793743 
L 270.585511 155.793743 
L 270.607117 148.12895 
L 270.715454 148.12895 
L 270.715454 144.296554 
L 271.030985 144.296554 
L 271.030985 140.464158 
L 271.505476 140.464158 
L 271.610857 132.799366 
L 271.718557 132.799366 
L 271.749882 125.134574 
L 272.147508 125.134574 
L 272.221996 117.469782 
L 272.342565 117.469782 
L 272.342565 113.637386 
L 273.430761 113.637386 
L 273.430761 109.80499 
L 273.730714 109.80499 
L 273.730714 105.972594 
L 273.854261 105.972594 
L 273.947709 98.307802 
L 274.233546 98.307802 
L 274.279361 90.64301 
L 274.542437 90.64301 
L 274.542437 86.810614 
L 275.200323 86.810614 
L 275.200323 82.978218 
L 275.48869 82.978218 
L 275.587057 75.313426 
L 275.964446 75.313426 
L 275.964446 71.48103 
L 276.472811 71.48103 
L 276.472811 67.648634 
L 279.872273 67.648634 
L 279.872273 63.816238 
L 346.976513 63.816238 
L 346.976513 59.983842 
L 348.625236 59.983842 
L 348.625236 56.151446 
L 351.953134 56.151446 
L 351.953134 52.31905 
L 353.702438 52.31905 
L 353.702438 48.486653 
L 354.074553 48.486653 
L 354.074553 44.654257 
L 354.973367 44.654257 
L 354.973367 40.821861 
L 355.729887 40.821861 
L 355.729887 36.989465 
L 355.914834 36.989465 
L 355.914834 33.157069 
L 358.618375 33.157069 
L 358.618375 29.324673 
L 361.088868 29.324673 
L 361.093023 21.659881 
L 362.602173 21.659881 
L 362.602173 17.827485 
L 362.746271 17.827485 
L 362.746271 13.995089 
L 364.759236 13.995089 
L 364.759236 10.162693 
L 366.309901 10.162693 
L 366.309901 6.330297 
L 366.309901 6.330297 
L 460.8 6.330297 
L 460.8 6.330297 
" clip-path="url(#p5b3f8c0407)" style="fill: none; stroke: #00bfbf; stroke-width: 1.5; stroke-linecap: square"/>
   </g>
   <g id="line2d_26">
    <path d="M -0.111876 293.76 
L -0.111876 236.274059 
L 52.0603 236.274059 
L 52.0603 232.441663 
L 72.894355 232.441663 
L 72.894355 228.609267 
L 74.135664 228.609267 
L 74.135664 224.776871 
L 75.754729 224.776871 
L 75.754729 220.944475 
L 82.744713 220.944475 
L 82.744713 217.112079 
L 83.17941 217.112079 
L 83.17941 213.279683 
L 84.076944 213.279683 
L 84.076944 209.447287 
L 88.687733 209.447287 
L 88.687733 205.614891 
L 89.526505 205.614891 
L 89.526505 201.782495 
L 92.055497 201.782495 
L 92.055497 197.950099 
L 104.447422 197.950099 
L 104.447422 194.117703 
L 105.314061 194.117703 
L 105.314061 190.285307 
L 109.952375 190.285307 
L 109.952375 186.452911 
L 114.980747 186.452911 
L 114.980747 182.620515 
L 116.084969 182.620515 
L 116.084969 178.788119 
L 244.301907 178.788119 
L 244.301907 174.955723 
L 245.590913 174.955723 
L 245.590913 171.123327 
L 246.125157 171.123327 
L 246.125157 167.290931 
L 246.577386 167.290931 
L 246.644051 159.626139 
L 246.964165 159.626139 
L 246.969353 151.961347 
L 249.220254 151.961347 
L 249.220254 148.12895 
L 251.092095 148.12895 
L 251.092095 144.296554 
L 252.028721 144.296554 
L 252.028721 140.464158 
L 253.188247 140.464158 
L 253.188247 136.631762 
L 254.074058 136.631762 
L 254.074058 132.799366 
L 256.149394 132.799366 
L 256.175721 125.134574 
L 257.345124 125.134574 
L 257.345124 121.302178 
L 258.130594 121.302178 
L 258.130594 117.469782 
L 258.370371 117.469782 
L 258.370371 113.637386 
L 258.703419 113.637386 
L 258.703419 109.80499 
L 259.57389 109.80499 
L 259.57389 105.972594 
L 259.823329 105.972594 
L 259.823329 102.140198 
L 260.727756 102.140198 
L 260.727756 98.307802 
L 260.914194 98.307802 
L 260.914194 94.475406 
L 261.062677 94.475406 
L 261.133529 86.810614 
L 261.610556 86.810614 
L 261.610556 82.978218 
L 262.077302 82.978218 
L 262.077302 79.145822 
L 262.752147 79.145822 
L 262.752147 75.313426 
L 262.877762 75.313426 
L 262.877762 71.48103 
L 263.08573 71.48103 
L 263.08573 67.648634 
L 264.175071 67.648634 
L 264.175071 63.816238 
L 289.713112 63.816238 
L 289.713112 59.983842 
L 294.907824 59.983842 
L 294.907824 56.151446 
L 300.265961 56.151446 
L 300.265961 52.31905 
L 301.055183 52.31905 
L 301.055183 48.486653 
L 302.96473 48.486653 
L 303.036711 36.989465 
L 304.766781 36.989465 
L 304.766781 33.157069 
L 306.075884 33.157069 
L 306.075884 29.324673 
L 307.810573 29.324673 
L 307.810573 25.492277 
L 308.899539 25.492277 
L 308.899539 21.659881 
L 309.134318 21.659881 
L 309.134318 17.827485 
L 311.389482 17.827485 
L 311.389482 13.995089 
L 311.556993 13.995089 
L 311.556993 10.162693 
L 313.899723 10.162693 
L 313.899723 6.330297 
L 313.899723 6.330297 
L 460.8 6.330297 
L 460.8 6.330297 
" clip-path="url(#p5b3f8c0407)" style="fill: none; stroke: #bf00bf; stroke-width: 1.5; stroke-linecap: square"/>
   </g>
   <g id="line2d_27">
    <path d="M -1 182.620515 
L -0.937879 182.620515 
L -0.937879 178.788119 
L -0.111876 178.788119 
L -0.111876 121.302178 
L 233.903177 121.302178 
L 233.903177 117.469782 
L 236.614659 117.469782 
L 236.614667 105.972594 
L 237.390379 105.972594 
L 237.390379 102.140198 
L 238.116012 102.140198 
L 238.116012 94.475406 
L 238.79764 94.475406 
L 238.79764 86.810614 
L 239.440293 86.810614 
L 239.440293 82.978218 
L 240.048191 82.978218 
L 240.048191 79.145822 
L 241.173471 79.145822 
L 241.173471 71.48103 
L 241.696515 71.48103 
L 241.696518 59.983842 
L 242.196305 59.983842 
L 242.196308 52.31905 
L 243.133791 52.31905 
L 243.133798 33.157069 
L 243.574764 33.157069 
L 243.574773 25.492277 
L 244.802539 25.492277 
L 244.802539 17.827485 
L 245.183716 17.827485 
L 245.183716 13.995089 
L 246.916894 13.995089 
L 246.916894 10.162693 
L 249.989633 10.162693 
L 249.989633 6.330297 
L 249.989633 6.330297 
L 460.8 6.330297 
L 460.8 6.330297 
" clip-path="url(#p5b3f8c0407)" style="fill: none; stroke: #000000; stroke-width: 1.5; stroke-linecap: square"/>
   </g>
   <g id="line2d_28">
    <path d="M -1 182.620515 
L -0.937879 182.620515 
L -0.937879 178.788119 
L -0.111876 178.788119 
L -0.111876 121.302178 
L 214.735993 121.302178 
L 214.735993 117.469782 
L 219.294805 117.469782 
L 219.294805 113.637386 
L 222.529334 113.637386 
L 222.530061 102.140198 
L 227.088146 102.140198 
L 227.088146 94.475406 
L 228.821326 94.475406 
L 228.821326 90.64301 
L 229.168489 90.64301 
L 229.168489 86.810614 
L 230.322675 86.810614 
L 230.323191 75.313426 
L 231.646952 75.313426 
L 231.646958 63.816238 
L 233.903182 63.816238 
L 233.903182 59.983842 
L 234.881487 59.983842 
L 234.881487 52.31905 
L 235.78144 52.31905 
L 235.78144 36.989465 
L 236.614663 36.989465 
L 236.614667 29.324673 
L 237.390379 29.324673 
L 237.390383 21.659881 
L 238.116009 21.659881 
L 238.132168 13.995089 
L 238.797644 13.995089 
L 238.797644 6.330297 
L 238.797644 6.330297 
L 460.8 6.330297 
L 460.8 6.330297 
" clip-path="url(#p5b3f8c0407)" style="fill: none; stroke: #00bfbf; stroke-width: 1.5; stroke-linecap: square"/>
   </g>
   <g id="line2d_29">
    <path d="M -1 182.620515 
L -0.937879 182.620515 
L -0.937879 178.788119 
L -0.111876 178.788119 
L -0.111876 121.302178 
L 214.735993 121.302178 
L 214.735993 117.469782 
L 219.294805 117.469782 
L 219.294805 113.637386 
L 222.529334 113.637386 
L 222.529334 98.307802 
L 225.038229 98.307802 
L 225.038229 86.810614 
L 227.088146 86.810614 
L 227.088146 79.145822 
L 228.821326 79.145822 
L 228.821326 71.48103 
L 230.322675 71.48103 
L 230.322675 63.816238 
L 233.903182 63.816238 
L 233.903182 59.983842 
L 234.881487 59.983842 
L 234.881487 40.821861 
L 235.78144 40.821861 
L 235.78144 21.659881 
L 236.614663 21.659881 
L 236.614667 13.995089 
L 237.390383 13.995089 
L 237.390383 6.330297 
L 237.390383 6.330297 
L 460.8 6.330297 
L 460.8 6.330297 
" clip-path="url(#p5b3f8c0407)" style="fill: none; stroke: #bf00bf; stroke-width: 1.5; stroke-linecap: square"/>
   </g>
   <g id="patch_3">
    <path d="M 0 293.76 
L 0 3.456 
" style="fill: none; stroke: #000000; stroke-width: 0.8; stroke-linejoin: miter; stroke-linecap: square"/>
   </g>
   <g id="patch_4">
    <path d="M 460.8 293.76 
L 460.8 3.456 
" style="fill: none; stroke: #000000; stroke-width: 0.8; stroke-linejoin: miter; stroke-linecap: square"/>
   </g>
   <g id="patch_5">
    <path d="M 0 293.76 
L 460.8 293.76 
" style="fill: none; stroke: #000000; stroke-width: 0.8; stroke-linejoin: miter; stroke-linecap: square"/>
   </g>
   <g id="patch_6">
    <path d="M 0 3.456 
L 460.8 3.456 
" style="fill: none; stroke: #000000; stroke-width: 0.8; stroke-linejoin: miter; stroke-linecap: square"/>
   </g>
   <g id="text_6">
    <!-- {f1-f5}, 20-D -->
    <g transform="translate(318.609 287.95392)scale(0.2 -0.2)">
     <defs>
      <path id="DejaVuSans-7b" d="M 3272 -594 
L 3272 -1044 
L 3078 -1044 
Q 2300 -1044 2036 -812 
Q 1772 -581 1772 109 
L 1772 856 
Q 1772 1328 1603 1509 
Q 1434 1691 991 1691 
L 800 1691 
L 800 2138 
L 991 2138 
Q 1438 2138 1605 2317 
Q 1772 2497 1772 2963 
L 1772 3713 
Q 1772 4403 2036 4633 
Q 2300 4863 3078 4863 
L 3272 4863 
L 3272 4416 
L 3059 4416 
Q 2619 4416 2484 4278 
Q 2350 4141 2350 3700 
L 2350 2925 
Q 2350 2434 2208 2212 
Q 2066 1991 1722 1913 
Q 2069 1828 2209 1606 
Q 2350 1384 2350 897 
L 2350 122 
Q 2350 -319 2484 -456 
Q 2619 -594 3059 -594 
L 3272 -594 
z
" transform="scale(0.015625)"/>
      <path id="DejaVuSans-35" d="M 691 4666 
L 3169 4666 
L 3169 4134 
L 1269 4134 
L 1269 2991 
Q 1406 3038 1543 3061 
Q 1681 3084 1819 3084 
Q 2600 3084 3056 2656 
Q 3513 2228 3513 1497 
Q 3513 744 3044 326 
Q 2575 -91 1722 -91 
Q 1428 -91 1123 -41 
Q 819 9 494 109 
L 494 744 
Q 775 591 1075 516 
Q 1375 441 1709 441 
Q 2250 441 2565 725 
Q 2881 1009 2881 1497 
Q 2881 1984 2565 2268 
Q 2250 2553 1709 2553 
Q 1456 2553 1204 2497 
Q 953 2441 691 2322 
L 691 4666 
z
" transform="scale(0.015625)"/>
      <path id="DejaVuSans-7d" d="M 800 -594 
L 1019 -594 
Q 1456 -594 1589 -459 
Q 1722 -325 1722 122 
L 1722 897 
Q 1722 1384 1862 1606 
Q 2003 1828 2350 1913 
Q 2003 1991 1862 2212 
Q 1722 2434 1722 2925 
L 1722 3700 
Q 1722 4144 1589 4280 
Q 1456 4416 1019 4416 
L 800 4416 
L 800 4863 
L 997 4863 
Q 1775 4863 2036 4633 
Q 2297 4403 2297 3713 
L 2297 2963 
Q 2297 2497 2465 2317 
Q 2634 2138 3078 2138 
L 3272 2138 
L 3272 1691 
L 3078 1691 
Q 2634 1691 2465 1509 
Q 2297 1328 2297 856 
L 2297 109 
Q 2297 -581 2036 -812 
Q 1775 -1044 997 -1044 
L 800 -1044 
L 800 -594 
z
" transform="scale(0.015625)"/>
      <path id="DejaVuSans-2c" d="M 750 794 
L 1409 794 
L 1409 256 
L 897 -744 
L 494 -744 
L 750 256 
L 750 794 
z
" transform="scale(0.015625)"/>
      <path id="DejaVuSans-32" d="M 1228 531 
L 3431 531 
L 3431 0 
L 469 0 
L 469 531 
Q 828 903 1448 1529 
Q 2069 2156 2228 2338 
Q 2531 2678 2651 2914 
Q 2772 3150 2772 3378 
Q 2772 3750 2511 3984 
Q 2250 4219 1831 4219 
Q 1534 4219 1204 4116 
Q 875 4013 500 3803 
L 500 4441 
Q 881 4594 1212 4672 
Q 1544 4750 1819 4750 
Q 2544 4750 2975 4387 
Q 3406 4025 3406 3419 
Q 3406 3131 3298 2873 
Q 3191 2616 2906 2266 
Q 2828 2175 2409 1742 
Q 1991 1309 1228 531 
z
" transform="scale(0.015625)"/>
     </defs>
     <use xlink:href="#DejaVuSans-7b"/>
     <use xlink:href="#DejaVuSans-66" x="63.623047"/>
     <use xlink:href="#DejaVuSans-31" x="98.828125"/>
     <use xlink:href="#DejaVuSans-2d" x="162.451172"/>
     <use xlink:href="#DejaVuSans-66" x="198.535156"/>
     <use xlink:href="#DejaVuSans-35" x="233.740234"/>
     <use xlink:href="#DejaVuSans-7d" x="297.363281"/>
     <use xlink:href="#DejaVuSans-2c" x="360.986328"/>
     <use xlink:href="#DejaVuSans-20" x="392.773438"/>
     <use xlink:href="#DejaVuSans-32" x="424.560547"/>
     <use xlink:href="#DejaVuSans-30" x="488.183594"/>
     <use xlink:href="#DejaVuSans-2d" x="551.806641"/>
     <use xlink:href="#DejaVuSans-44" x="587.890625"/>
    </g>
   </g>
   <g id="text_7">
    <!-- v2.6.3 -->
    <g style="fill: #808080" transform="translate(214.71875 288.777272)scale(0.1 -0.1)">
     <defs>
      <path id="DejaVuSans-76" d="M 191 3500 
L 800 3500 
L 1894 563 
L 2988 3500 
L 3597 3500 
L 2284 0 
L 1503 0 
L 191 3500 
z
" transform="scale(0.015625)"/>
      <path id="DejaVuSans-2e" d="M 684 794 
L 1344 794 
L 1344 0 
L 684 0 
L 684 794 
z
" transform="scale(0.015625)"/>
      <path id="DejaVuSans-36" d="M 2113 2584 
Q 1688 2584 1439 2293 
Q 1191 2003 1191 1497 
Q 1191 994 1439 701 
Q 1688 409 2113 409 
Q 2538 409 2786 701 
Q 3034 994 3034 1497 
Q 3034 2003 2786 2293 
Q 2538 2584 2113 2584 
z
M 3366 4563 
L 3366 3988 
Q 3128 4100 2886 4159 
Q 2644 4219 2406 4219 
Q 1781 4219 1451 3797 
Q 1122 3375 1075 2522 
Q 1259 2794 1537 2939 
Q 1816 3084 2150 3084 
Q 2853 3084 3261 2657 
Q 3669 2231 3669 1497 
Q 3669 778 3244 343 
Q 2819 -91 2113 -91 
Q 1303 -91 875 529 
Q 447 1150 447 2328 
Q 447 3434 972 4092 
Q 1497 4750 2381 4750 
Q 2619 4750 2861 4703 
Q 3103 4656 3366 4563 
z
" transform="scale(0.015625)"/>
      <path id="DejaVuSans-33" d="M 2597 2516 
Q 3050 2419 3304 2112 
Q 3559 1806 3559 1356 
Q 3559 666 3084 287 
Q 2609 -91 1734 -91 
Q 1441 -91 1130 -33 
Q 819 25 488 141 
L 488 750 
Q 750 597 1062 519 
Q 1375 441 1716 441 
Q 2309 441 2620 675 
Q 2931 909 2931 1356 
Q 2931 1769 2642 2001 
Q 2353 2234 1838 2234 
L 1294 2234 
L 1294 2753 
L 1863 2753 
Q 2328 2753 2575 2939 
Q 2822 3125 2822 3475 
Q 2822 3834 2567 4026 
Q 2313 4219 1838 4219 
Q 1578 4219 1281 4162 
Q 984 4106 628 3988 
L 628 4550 
Q 988 4650 1302 4700 
Q 1616 4750 1894 4750 
Q 2613 4750 3031 4423 
Q 3450 4097 3450 3541 
Q 3450 3153 3228 2886 
Q 3006 2619 2597 2516 
z
" transform="scale(0.015625)"/>
     </defs>
     <use xlink:href="#DejaVuSans-76"/>
     <use xlink:href="#DejaVuSans-32" x="59.179688"/>
     <use xlink:href="#DejaVuSans-2e" x="122.802734"/>
     <use xlink:href="#DejaVuSans-36" x="154.589844"/>
     <use xlink:href="#DejaVuSans-2e" x="218.212891"/>
     <use xlink:href="#DejaVuSans-33" x="250"/>
    </g>
   </g>
  </g>
 </g>
 <defs>
  <clipPath id="p5b3f8c0407">
   <rect x="0" y="3.456" width="460.8" height="290.304"/>
  </clipPath>
 </defs>
</svg>
