<?xml version="1.0" encoding="utf-8" standalone="no"?>
<!DOCTYPE svg PUBLIC "-//W3C//DTD SVG 1.1//EN"
  "http://www.w3.org/Graphics/SVG/1.1/DTD/svg11.dtd">
<svg xmlns:xlink="http://www.w3.org/1999/xlink" width="460.8pt" height="345.6pt" viewBox="0 0 460.8 345.6" xmlns="http://www.w3.org/2000/svg" version="1.1">
 <metadata>
  <rdf:RDF xmlns:dc="http://purl.org/dc/elements/1.1/" xmlns:cc="http://creativecommons.org/ns#" xmlns:rdf="http://www.w3.org/1999/02/22-rdf-syntax-ns#">
   <cc:Work>
    <dc:type rdf:resource="http://purl.org/dc/dcmitype/StillImage"/>
    <dc:date>2023-04-07T14:50:09.430794</dc:date>
    <dc:format>image/svg+xml</dc:format>
    <dc:creator>
     <cc:Agent>
      <dc:title>Matplotlib v3.5.2, https://matplotlib.org/</dc:title>
     </cc:Agent>
    </dc:creator>
   </cc:Work>
  </rdf:RDF>
 </metadata>
 <defs>
  <style type="text/css">*{stroke-linejoin: round; stroke-linecap: butt}</style>
 </defs>
 <g id="figure_1">
  <g id="patch_1">
   <path d="M 0 345.6 
L 460.8 345.6 
L 460.8 0 
L 0 0 
z
" style="fill: #ffffff"/>
  </g>
  <g id="axes_1">
   <g id="patch_2">
    <path d="M 62.208 293.76 
L 460.8 293.76 
L 460.8 3.456 
L 62.208 3.456 
z
" style="fill: #ffffff"/>
   </g>
   <g id="line2d_1"/>
   <g id="line2d_2">
    <path d="M 378.91819 293.76 
L 378.91819 282.262812 
L 383.009922 282.262812 
L 383.009922 270.765624 
L 383.009922 270.765624 
L 383.009922 270.765624 
L 460.8 270.765624 
" clip-path="url(#paad42e19c4)" style="fill: none; stroke: #f5deb3; stroke-width: 1.5; stroke-linecap: square"/>
   </g>
   <g id="line2d_3"/>
   <g id="line2d_4"/>
   <g id="line2d_5"/>
   <g id="line2d_6"/>
   <g id="line2d_7">
    <path d="M 343.439536 293.76 
L 343.439536 289.927604 
L 367.820302 289.927604 
L 367.820302 286.095208 
L 373.800542 286.095208 
L 373.800542 282.262812 
L 374.315985 282.262812 
L 374.315985 278.430416 
L 375.001781 278.430416 
L 375.001781 274.59802 
L 379.513059 274.59802 
L 379.513059 270.765624 
L 379.727671 270.765624 
L 379.727671 266.933228 
L 382.003003 266.933228 
L 382.003003 263.100832 
L 387.679542 263.100832 
L 387.679542 259.268436 
L 392.857652 259.268436 
L 392.857652 255.43604 
L 393.233613 255.43604 
L 393.233613 251.603644 
L 394.542018 251.603644 
L 394.542018 247.771248 
L 404.861395 247.771248 
L 404.861395 243.938851 
L 409.521226 243.938851 
L 409.521226 240.106455 
L 412.562427 240.106455 
L 412.562427 236.274059 
L 416.224302 236.274059 
L 416.224302 232.441663 
L 417.946418 232.441663 
L 417.946418 228.609267 
L 419.302312 228.609267 
L 419.302312 224.776871 
L 422.840131 224.776871 
L 422.887943 217.112079 
L 422.987397 217.112079 
L 422.987397 213.279683 
L 424.187351 213.279683 
L 424.187351 209.447287 
L 428.52839 209.447287 
L 428.52839 205.614891 
L 433.176445 205.614891 
L 433.176445 201.782495 
L 442.313325 201.782495 
L 442.313325 197.950099 
L 442.85101 197.950099 
L 442.85101 194.117703 
L 446.295915 194.117703 
L 446.295915 190.285307 
L 450.836873 190.285307 
L 450.836873 186.452911 
L 453.187153 186.452911 
L 453.187153 182.620515 
L 455.583426 182.620515 
L 455.583426 178.788119 
L 460.581741 178.788119 
L 460.581741 174.955723 
L 461.8 174.955723 
L 461.8 174.955723 
" clip-path="url(#paad42e19c4)" style="fill: none; stroke: #f5deb3; stroke-width: 1.5; stroke-linecap: square"/>
   </g>
   <g id="line2d_8">
    <path d="M 361.338985 293.76 
L 361.338985 289.927604 
L 362.740189 289.927604 
L 362.740189 286.095208 
L 363.170703 286.095208 
L 363.170703 282.262812 
L 363.350084 282.262812 
L 363.350084 278.430416 
L 363.864022 278.430416 
L 363.864022 274.59802 
L 363.879221 274.59802 
L 363.879221 270.765624 
L 378.480707 270.765624 
L 378.480707 266.933228 
L 379.354617 266.933228 
L 379.354617 263.100832 
L 379.973769 263.100832 
L 379.973769 259.268436 
L 380.047932 259.268436 
L 380.047932 255.43604 
L 380.487506 255.43604 
L 380.487506 251.603644 
L 380.904706 251.603644 
L 380.904706 247.771248 
L 380.910719 247.771248 
L 380.910719 243.938851 
L 381.276908 243.938851 
L 381.276908 240.106455 
L 381.293624 240.106455 
L 381.293624 236.274059 
L 381.591964 236.274059 
L 381.591964 232.441663 
L 383.11827 232.441663 
L 383.11827 228.609267 
L 419.801806 228.609267 
L 419.801806 224.776871 
L 420.358257 224.776871 
L 420.358257 220.944475 
L 420.358257 220.944475 
L 420.358257 220.944475 
L 460.8 220.944475 
" clip-path="url(#paad42e19c4)" style="fill: none; stroke: #f5deb3; stroke-width: 1.5; stroke-linecap: square"/>
   </g>
   <g id="line2d_9">
    <path d="M 243.558213 293.76 
L 243.558213 289.927604 
L 282.303826 289.927604 
L 282.303826 286.095208 
L 282.891758 286.095208 
L 282.891758 282.262812 
L 283.617641 282.262812 
L 283.617641 278.430416 
L 286.701411 278.430416 
L 286.701411 274.59802 
L 290.862094 274.59802 
L 290.862094 270.765624 
L 291.344594 270.765624 
L 291.344594 266.933228 
L 291.50773 266.933228 
L 291.50773 263.100832 
L 292.390691 263.100832 
L 292.402002 255.43604 
L 292.661088 255.43604 
L 292.661088 251.603644 
L 292.984858 251.603644 
L 292.984858 247.771248 
L 300.334779 247.771248 
L 300.334779 243.938851 
L 305.398001 243.938851 
L 305.398001 240.106455 
L 306.182216 240.106455 
L 306.182216 236.274059 
L 307.096179 236.274059 
L 307.096179 232.441663 
L 307.834044 232.441663 
L 307.834044 228.609267 
L 308.966702 228.609267 
L 309.021126 220.944475 
L 313.661092 220.944475 
L 313.661092 217.112079 
L 314.70848 217.112079 
L 314.70848 213.279683 
L 315.565152 213.279683 
L 315.565152 209.447287 
L 315.811757 209.447287 
L 315.811757 205.614891 
L 316.083901 205.614891 
L 316.083901 201.782495 
L 316.21231 201.782495 
L 316.29401 194.117703 
L 316.405338 194.117703 
L 316.405338 190.285307 
L 316.6457 190.285307 
L 316.6457 186.452911 
L 317.652513 186.452911 
L 317.751508 178.788119 
L 317.927909 178.788119 
L 317.927909 174.955723 
L 318.367341 174.955723 
L 318.367341 171.123327 
L 319.014341 171.123327 
L 319.014341 167.290931 
L 319.968707 167.290931 
L 320.009997 159.626139 
L 320.45838 159.626139 
L 320.45838 155.793743 
L 321.420876 155.793743 
L 321.506774 148.12895 
L 325.329081 148.12895 
L 325.329081 144.296554 
L 330.888777 144.296554 
L 330.888777 140.464158 
L 331.153823 140.464158 
L 331.191758 132.799366 
L 332.301449 132.799366 
L 332.301449 128.96697 
L 336.217796 128.96697 
L 336.217796 125.134574 
L 337.996018 125.134574 
L 337.996018 121.302178 
L 339.038301 121.302178 
L 339.038301 117.469782 
L 341.241547 117.469782 
L 341.241547 113.637386 
L 341.696891 113.637386 
L 341.696891 109.80499 
L 342.670292 109.80499 
L 342.670292 105.972594 
L 343.411103 105.972594 
L 343.411103 102.140198 
L 343.589583 102.140198 
L 343.589583 98.307802 
L 348.23079 98.307802 
L 348.23079 94.475406 
L 349.867078 94.475406 
L 349.894299 86.810614 
L 350.375631 86.810614 
L 350.375631 82.978218 
L 350.727056 82.978218 
L 350.727056 79.145822 
L 350.870724 79.145822 
L 350.870724 75.313426 
L 352.972609 75.313426 
L 352.972609 71.48103 
L 355.197727 71.48103 
L 355.197727 67.648634 
L 355.387984 67.648634 
L 355.387984 63.816238 
L 358.193245 63.816238 
L 358.193245 59.983842 
L 360.479136 59.983842 
L 360.479136 56.151446 
L 363.144164 56.151446 
L 363.144164 52.31905 
L 363.725005 52.31905 
L 363.725005 48.486653 
L 377.814943 48.486653 
L 377.814943 44.654257 
L 383.852723 44.654257 
L 383.852723 40.821861 
L 383.981922 40.821861 
L 383.981922 36.989465 
L 387.025591 36.989465 
L 387.025591 33.157069 
L 395.617786 33.157069 
L 395.617786 29.324673 
L 397.145939 29.324673 
L 397.145939 25.492277 
L 401.507366 25.492277 
L 401.507366 21.659881 
L 406.352105 21.659881 
L 406.352105 17.827485 
L 407.956897 17.827485 
L 408.044736 10.162693 
L 420.850372 10.162693 
L 420.850372 6.330297 
L 420.850372 6.330297 
L 460.8 6.330297 
L 460.8 6.330297 
" clip-path="url(#paad42e19c4)" style="fill: none; stroke: #f5deb3; stroke-width: 1.5; stroke-linecap: square"/>
   </g>
   <g id="line2d_10"/>
   <g id="line2d_11">
    <path d="M 396.037982 293.76 
L 396.037982 289.927604 
L 442.539556 289.927604 
L 442.539556 286.095208 
L 449.380753 286.095208 
L 449.380753 282.262812 
L 456.608799 282.262812 
L 456.608799 278.430416 
L 457.795487 278.430416 
L 457.795487 274.59802 
L 461.8 274.59802 
" clip-path="url(#paad42e19c4)" style="fill: none; stroke: #f5deb3; stroke-width: 1.5; stroke-linecap: square"/>
   </g>
   <g id="line2d_12"/>
   <g id="line2d_13"/>
   <g id="line2d_14"/>
   <g id="line2d_15"/>
   <g id="line2d_16"/>
   <g id="line2d_17">
    <path d="M 354.997214 293.76 
L 354.997214 289.927604 
L 357.206326 289.927604 
L 357.206326 286.095208 
L 358.173645 286.095208 
L 358.173645 282.262812 
L 359.485386 282.262812 
L 359.485386 278.430416 
L 362.030358 278.430416 
L 362.030358 274.59802 
L 362.148071 274.59802 
L 362.148071 270.765624 
L 363.364237 270.765624 
L 363.364237 266.933228 
L 363.700186 266.933228 
L 363.700186 263.100832 
L 363.832335 263.100832 
L 363.832335 259.268436 
L 366.931249 259.268436 
L 366.931249 255.43604 
L 367.384205 255.43604 
L 367.384205 251.603644 
L 374.429838 251.603644 
L 374.429838 247.771248 
L 380.420058 247.771248 
L 380.420058 243.938851 
L 380.497782 243.938851 
L 380.497782 240.106455 
L 380.543416 240.106455 
L 380.543416 236.274059 
L 383.134421 236.274059 
L 383.134421 232.441663 
L 383.806334 232.441663 
L 383.806334 228.609267 
L 386.116964 228.609267 
L 386.116964 224.776871 
L 387.253492 224.776871 
L 387.253492 220.944475 
L 388.1465 220.944475 
L 388.1465 217.112079 
L 389.342127 217.112079 
L 389.342127 213.279683 
L 390.788633 213.279683 
L 390.788633 209.447287 
L 394.935631 209.447287 
L 394.935631 205.614891 
L 395.804282 205.614891 
L 395.804282 201.782495 
L 397.781404 201.782495 
L 397.781404 197.950099 
L 398.734857 197.950099 
L 398.734857 194.117703 
L 401.153152 194.117703 
L 401.153152 190.285307 
L 402.2387 190.285307 
L 402.2387 186.452911 
L 402.2387 186.452911 
L 402.2387 186.452911 
L 460.8 186.452911 
" clip-path="url(#paad42e19c4)" style="fill: none; stroke: #f5deb3; stroke-width: 1.5; stroke-linecap: square"/>
   </g>
   <g id="line2d_18"/>
   <g id="line2d_19">
    <path d="M 370.803069 293.76 
L 370.803069 289.927604 
L 401.542936 289.927604 
L 401.542936 286.095208 
L 410.464899 286.095208 
L 410.464899 282.262812 
L 413.427973 282.262812 
L 413.427973 278.430416 
L 421.093237 278.430416 
L 421.093237 274.59802 
L 426.152273 274.59802 
L 426.152273 270.765624 
L 427.176857 270.765624 
L 427.176857 266.933228 
L 428.409332 266.933228 
L 428.409332 263.100832 
L 430.631912 263.100832 
L 430.631912 259.268436 
L 432.728598 259.268436 
L 432.728598 255.43604 
L 432.899411 255.43604 
L 432.899411 251.603644 
L 434.137525 251.603644 
L 434.137525 247.771248 
L 436.896337 247.771248 
L 436.896337 243.938851 
L 446.350074 243.938851 
L 446.350074 240.106455 
L 447.24941 240.106455 
L 447.24941 236.274059 
L 448.540938 236.274059 
L 448.540938 232.441663 
L 450.607702 232.441663 
L 450.607702 228.609267 
L 460.512829 228.609267 
L 460.512829 224.776871 
L 461.176178 224.776871 
L 461.176178 220.944475 
L 461.8 220.944475 
L 461.8 220.944475 
" clip-path="url(#paad42e19c4)" style="fill: none; stroke: #f5deb3; stroke-width: 1.5; stroke-linecap: square"/>
   </g>
   <g id="line2d_20">
    <path d="M 356.389951 293.76 
L 356.389951 289.927604 
L 356.389951 289.927604 
L 356.389951 289.927604 
L 460.8 289.927604 
" clip-path="url(#paad42e19c4)" style="fill: none; stroke: #f5deb3; stroke-width: 1.5; stroke-linecap: square"/>
   </g>
   <g id="line2d_21"/>
   <g id="line2d_22">
    <path d="M 370.937484 293.76 
L 370.937484 289.927604 
L 390.52239 289.927604 
L 390.52239 286.095208 
L 410.377251 286.095208 
L 410.377251 282.262812 
L 420.002002 282.262812 
L 420.002002 278.430416 
L 434.734421 278.430416 
L 434.734421 274.59802 
L 434.734421 274.59802 
L 434.734421 274.59802 
L 460.8 274.59802 
" clip-path="url(#paad42e19c4)" style="fill: none; stroke: #f5deb3; stroke-width: 1.5; stroke-linecap: square"/>
   </g>
   <g id="line2d_23">
    <path d="M 388.252602 293.76 
L 388.252602 289.927604 
L 395.463681 289.927604 
L 395.463681 286.095208 
L 395.463681 286.095208 
L 395.463681 286.095208 
L 460.8 286.095208 
" clip-path="url(#paad42e19c4)" style="fill: none; stroke: #f5deb3; stroke-width: 1.5; stroke-linecap: square"/>
   </g>
   <g id="line2d_24">
    <path d="M 272.072291 293.76 
L 272.072291 289.927604 
L 274.946108 289.927604 
L 274.946108 286.095208 
L 276.702984 286.095208 
L 276.702984 282.262812 
L 280.983082 282.262812 
L 280.983082 278.430416 
L 283.750583 278.430416 
L 283.750583 274.59802 
L 334.995549 274.59802 
L 334.995549 270.765624 
L 336.644914 270.765624 
L 336.644914 266.933228 
L 337.027625 266.933228 
L 337.027625 263.100832 
L 337.162818 263.100832 
L 337.162818 259.268436 
L 338.454478 259.268436 
L 338.454478 255.43604 
L 338.740174 255.43604 
L 338.823488 247.771248 
L 340.167673 247.771248 
L 340.167673 243.938851 
L 340.480338 243.938851 
L 340.555452 236.274059 
L 340.724472 236.274059 
L 340.724472 232.441663 
L 341.036973 232.441663 
L 341.036973 228.609267 
L 343.281657 228.609267 
L 343.281657 224.776871 
L 345.320448 224.776871 
L 345.320448 220.944475 
L 345.825167 220.944475 
L 345.825167 217.112079 
L 346.015042 217.112079 
L 346.015042 213.279683 
L 346.762616 213.279683 
L 346.762616 209.447287 
L 346.92266 209.447287 
L 346.92266 205.614891 
L 347.140126 205.614891 
L 347.221435 197.950099 
L 347.605173 197.950099 
L 347.715473 190.285307 
L 348.141708 190.285307 
L 348.141708 186.452911 
L 348.49456 186.452911 
L 348.597856 178.788119 
L 348.837617 178.788119 
L 348.837617 174.955723 
L 349.080612 174.955723 
L 349.115463 167.290931 
L 350.490331 167.290931 
L 350.507502 159.626139 
L 350.98652 159.626139 
L 350.98652 155.793743 
L 351.656235 155.793743 
L 351.656235 151.961347 
L 352.669663 151.961347 
L 352.669663 148.12895 
L 352.934563 148.12895 
L 352.934563 144.296554 
L 355.67904 144.296554 
L 355.67904 140.464158 
L 357.410743 140.464158 
L 357.410743 136.631762 
L 361.697673 136.631762 
L 361.697673 132.799366 
L 367.457483 132.799366 
L 367.457483 128.96697 
L 367.608065 128.96697 
L 367.608065 125.134574 
L 368.323115 125.134574 
L 368.323115 121.302178 
L 370.105303 121.302178 
L 370.105303 117.469782 
L 370.999139 117.469782 
L 370.999139 113.637386 
L 372.583973 113.637386 
L 372.583973 109.80499 
L 373.504396 109.80499 
L 373.504396 105.972594 
L 377.738007 105.972594 
L 377.738007 102.140198 
L 381.758246 102.140198 
L 381.758246 98.307802 
L 382.477411 98.307802 
L 382.477411 94.475406 
L 385.998854 94.475406 
L 385.998854 90.64301 
L 391.2931 90.64301 
L 391.2931 86.810614 
L 392.145799 86.810614 
L 392.145799 82.978218 
L 393.930956 82.978218 
L 393.96876 75.313426 
L 394.196921 75.313426 
L 394.196921 71.48103 
L 396.33451 71.48103 
L 396.33451 67.648634 
L 397.387732 67.648634 
L 397.387732 63.816238 
L 415.307502 63.816238 
L 415.307502 59.983842 
L 416.026642 59.983842 
L 416.026642 56.151446 
L 417.155326 56.151446 
L 417.155326 52.31905 
L 420.782533 52.31905 
L 420.782533 48.486653 
L 426.778159 48.486653 
L 426.778159 44.654257 
L 431.459394 44.654257 
L 431.459394 40.821861 
L 431.955488 40.821861 
L 431.955488 36.989465 
L 436.295892 36.989465 
L 436.295892 33.157069 
L 438.355431 33.157069 
L 438.355431 29.324673 
L 445.142517 29.324673 
L 445.142517 25.492277 
L 447.68094 25.492277 
L 447.68094 21.659881 
L 453.131269 21.659881 
L 453.131269 17.827485 
L 454.554892 17.827485 
L 454.554892 13.995089 
L 458.574701 13.995089 
L 458.574701 10.162693 
L 461.8 10.162693 
L 461.8 10.162693 
" clip-path="url(#paad42e19c4)" style="fill: none; stroke: #f5deb3; stroke-width: 1.5; stroke-linecap: square"/>
   </g>
   <g id="line2d_25">
    <path d="M 371.415941 293.76 
L 371.415941 289.927604 
L 374.148155 289.927604 
L 374.148155 286.095208 
L 374.314146 286.095208 
L 374.314146 282.262812 
L 375.476559 282.262812 
L 375.476559 278.430416 
L 376.971233 278.430416 
L 376.971233 274.59802 
L 377.553618 274.59802 
L 377.553618 270.765624 
L 377.802133 270.765624 
L 377.802133 266.933228 
L 378.502155 266.933228 
L 378.502155 263.100832 
L 378.53531 263.100832 
L 378.53531 259.268436 
L 380.380744 259.268436 
L 380.380744 255.43604 
L 381.383746 255.43604 
L 381.383746 251.603644 
L 400.137819 251.603644 
L 400.137819 247.771248 
L 400.71157 247.771248 
L 400.71157 243.938851 
L 401.164873 243.938851 
L 401.164873 240.106455 
L 401.554119 240.106455 
L 401.554119 236.274059 
L 401.647027 236.274059 
L 401.647027 232.441663 
L 401.876564 232.441663 
L 401.876564 228.609267 
L 402.202315 228.609267 
L 402.202315 224.776871 
L 402.234594 224.776871 
L 402.234594 220.944475 
L 402.304522 220.944475 
L 402.304522 217.112079 
L 402.305888 217.112079 
L 402.305888 213.279683 
L 402.332802 213.279683 
L 402.332802 209.447287 
L 402.341768 209.447287 
L 402.341768 205.614891 
L 402.397851 205.614891 
L 402.397851 201.782495 
L 402.543253 201.782495 
L 402.543253 197.950099 
L 402.566295 197.950099 
L 402.566295 194.117703 
L 402.677018 194.117703 
L 402.677018 190.285307 
L 403.002748 190.285307 
L 403.002748 186.452911 
L 403.149861 186.452911 
L 403.149861 182.620515 
L 403.180457 182.620515 
L 403.180457 178.788119 
L 403.262983 178.788119 
L 403.262983 174.955723 
L 403.313155 174.955723 
L 403.313155 171.123327 
L 403.5715 171.123327 
L 403.5715 167.290931 
L 403.674193 167.290931 
L 403.674193 163.458535 
L 403.864295 163.458535 
L 403.864295 159.626139 
L 409.212405 159.626139 
L 409.212405 155.793743 
L 432.411743 155.793743 
L 432.411743 151.961347 
L 432.411743 151.961347 
L 432.411743 151.961347 
L 460.8 151.961347 
" clip-path="url(#paad42e19c4)" style="fill: none; stroke: #f5deb3; stroke-width: 1.5; stroke-linecap: square"/>
   </g>
   <g id="line2d_26">
    <path d="M 323.095095 293.76 
L 323.095095 289.927604 
L 325.639017 289.927604 
L 325.639017 286.095208 
L 332.556966 286.095208 
L 332.556966 282.262812 
L 333.629937 282.262812 
L 333.629937 278.430416 
L 334.775481 278.430416 
L 334.775481 274.59802 
L 336.222228 274.59802 
L 336.222228 270.765624 
L 338.64842 270.765624 
L 338.64842 266.933228 
L 345.175921 266.933228 
L 345.175921 263.100832 
L 348.441773 263.100832 
L 348.441773 259.268436 
L 356.934897 259.268436 
L 356.934897 255.43604 
L 358.755093 255.43604 
L 358.755093 251.603644 
L 367.968665 251.603644 
L 367.968665 247.771248 
L 373.411385 247.771248 
L 373.411385 243.938851 
L 374.240015 243.938851 
L 374.240015 240.106455 
L 379.522862 240.106455 
L 379.522862 236.274059 
L 384.317091 236.274059 
L 384.317091 232.441663 
L 386.383703 232.441663 
L 386.383703 228.609267 
L 388.910318 228.609267 
L 388.910318 224.776871 
L 390.99704 224.776871 
L 390.99704 220.944475 
L 391.753248 220.944475 
L 391.753248 217.112079 
L 391.753248 217.112079 
L 391.753248 217.112079 
L 460.8 217.112079 
" clip-path="url(#paad42e19c4)" style="fill: none; stroke: #f5deb3; stroke-width: 1.5; stroke-linecap: square"/>
   </g>
   <g id="line2d_27"/>
   <g id="line2d_28">
    <path d="M 263.640047 293.76 
L 263.640047 289.927604 
L 275.453721 289.927604 
L 275.453721 286.095208 
L 313.236725 286.095208 
L 313.236725 282.262812 
L 324.529495 282.262812 
L 324.529495 278.430416 
L 327.76819 278.430416 
L 327.76819 274.59802 
L 329.682236 274.59802 
L 329.682236 270.765624 
L 345.120855 270.765624 
L 345.120855 266.933228 
L 345.80755 266.933228 
L 345.80755 263.100832 
L 347.472529 263.100832 
L 347.472529 259.268436 
L 348.175526 259.268436 
L 348.175526 255.43604 
L 349.109491 255.43604 
L 349.109491 251.603644 
L 351.009067 251.603644 
L 351.009067 247.771248 
L 351.919407 247.771248 
L 351.919407 243.938851 
L 352.861885 243.938851 
L 352.861885 240.106455 
L 353.418769 240.106455 
L 353.418769 236.274059 
L 358.583531 236.274059 
L 358.583531 232.441663 
L 358.780268 232.441663 
L 358.780268 228.609267 
L 359.283391 228.609267 
L 359.356195 220.944475 
L 359.643636 220.944475 
L 359.643636 217.112079 
L 366.543771 217.112079 
L 366.543771 213.279683 
L 368.256187 213.279683 
L 368.256187 209.447287 
L 369.025542 209.447287 
L 369.025542 205.614891 
L 369.625684 205.614891 
L 369.625684 201.782495 
L 370.102687 201.782495 
L 370.186821 194.117703 
L 372.086034 194.117703 
L 372.086034 190.285307 
L 372.228519 190.285307 
L 372.228519 186.452911 
L 372.704019 186.452911 
L 372.704019 182.620515 
L 375.607225 182.620515 
L 375.607225 178.788119 
L 376.85954 178.788119 
L 376.85954 174.955723 
L 377.013602 174.955723 
L 377.013602 171.123327 
L 377.21116 171.123327 
L 377.21116 167.290931 
L 377.895819 167.290931 
L 377.895819 163.458535 
L 378.849818 163.458535 
L 378.849818 159.626139 
L 380.024002 159.626139 
L 380.026319 151.961347 
L 380.286657 151.961347 
L 380.286657 148.12895 
L 381.288053 148.12895 
L 381.288053 144.296554 
L 381.666951 144.296554 
L 381.666951 140.464158 
L 382.27262 140.464158 
L 382.27262 136.631762 
L 382.684128 136.631762 
L 382.684128 132.799366 
L 383.249354 132.799366 
L 383.249354 128.96697 
L 383.578587 128.96697 
L 383.578587 125.134574 
L 385.107729 125.134574 
L 385.107729 121.302178 
L 386.543465 121.302178 
L 386.543465 117.469782 
L 386.703078 117.469782 
L 386.703078 113.637386 
L 387.227801 113.637386 
L 387.227801 109.80499 
L 388.520079 109.80499 
L 388.520079 105.972594 
L 389.340385 105.972594 
L 389.340385 102.140198 
L 396.662712 102.140198 
L 396.662712 98.307802 
L 399.496653 98.307802 
L 399.496653 94.475406 
L 403.654916 94.475406 
L 403.654916 90.64301 
L 404.014807 90.64301 
L 404.014807 86.810614 
L 404.359049 86.810614 
L 404.359049 82.978218 
L 406.900595 82.978218 
L 406.900595 79.145822 
L 407.388298 79.145822 
L 407.388298 75.313426 
L 411.731098 75.313426 
L 411.731098 71.48103 
L 412.844647 71.48103 
L 412.844647 67.648634 
L 416.860337 67.648634 
L 416.860337 63.816238 
L 417.02122 63.816238 
L 417.02122 59.983842 
L 436.650615 59.983842 
L 436.650615 56.151446 
L 436.804103 56.151446 
L 436.804103 52.31905 
L 437.056954 52.31905 
L 437.056954 48.486653 
L 439.660694 48.486653 
L 439.660694 44.654257 
L 447.866159 44.654257 
L 447.866159 40.821861 
L 461.8 40.821861 
L 461.8 40.821861 
" clip-path="url(#paad42e19c4)" style="fill: none; stroke: #f5deb3; stroke-width: 1.5; stroke-linecap: square"/>
   </g>
   <g id="line2d_29"/>
   <g id="line2d_30"/>
   <g id="matplotlib.axis_1">
    <g id="xtick_1">
     <g id="line2d_31">
      <path d="M 62.208 293.76 
L 62.208 3.456 
" clip-path="url(#paad42e19c4)" style="fill: none; stroke: #b0b0b0; stroke-width: 0.8; stroke-linecap: square"/>
     </g>
     <g id="line2d_32">
      <defs>
       <path id="mf4633947fc" d="M 0 0 
L 0 3.5 
" style="stroke: #000000; stroke-width: 0.8"/>
      </defs>
      <g>
       <use xlink:href="#mf4633947fc" x="62.208" y="293.76" style="stroke: #000000; stroke-width: 0.8"/>
      </g>
     </g>
     <g id="text_1">
      <!-- 0 -->
      <g transform="translate(55.8455 315.956875)scale(0.2 -0.2)">
       <defs>
        <path id="DejaVuSans-30" d="M 2034 4250 
Q 1547 4250 1301 3770 
Q 1056 3291 1056 2328 
Q 1056 1369 1301 889 
Q 1547 409 2034 409 
Q 2525 409 2770 889 
Q 3016 1369 3016 2328 
Q 3016 3291 2770 3770 
Q 2525 4250 2034 4250 
z
M 2034 4750 
Q 2819 4750 3233 4129 
Q 3647 3509 3647 2328 
Q 3647 1150 3233 529 
Q 2819 -91 2034 -91 
Q 1250 -91 836 529 
Q 422 1150 422 2328 
Q 422 3509 836 4129 
Q 1250 4750 2034 4750 
z
" transform="scale(0.015625)"/>
       </defs>
       <use xlink:href="#DejaVuSans-30"/>
      </g>
     </g>
    </g>
    <g id="xtick_2">
     <g id="line2d_33">
      <path d="M 212.542137 293.76 
L 212.542137 3.456 
" clip-path="url(#paad42e19c4)" style="fill: none; stroke: #b0b0b0; stroke-width: 0.8; stroke-linecap: square"/>
     </g>
     <g id="line2d_34">
      <g>
       <use xlink:href="#mf4633947fc" x="212.542137" y="293.76" style="stroke: #000000; stroke-width: 0.8"/>
      </g>
     </g>
     <g id="text_2">
      <!-- 2 -->
      <g transform="translate(206.179637 315.956875)scale(0.2 -0.2)">
       <defs>
        <path id="DejaVuSans-32" d="M 1228 531 
L 3431 531 
L 3431 0 
L 469 0 
L 469 531 
Q 828 903 1448 1529 
Q 2069 2156 2228 2338 
Q 2531 2678 2651 2914 
Q 2772 3150 2772 3378 
Q 2772 3750 2511 3984 
Q 2250 4219 1831 4219 
Q 1534 4219 1204 4116 
Q 875 4013 500 3803 
L 500 4441 
Q 881 4594 1212 4672 
Q 1544 4750 1819 4750 
Q 2544 4750 2975 4387 
Q 3406 4025 3406 3419 
Q 3406 3131 3298 2873 
Q 3191 2616 2906 2266 
Q 2828 2175 2409 1742 
Q 1991 1309 1228 531 
z
" transform="scale(0.015625)"/>
       </defs>
       <use xlink:href="#DejaVuSans-32"/>
      </g>
     </g>
    </g>
    <g id="xtick_3">
     <g id="line2d_35">
      <path d="M 362.876274 293.76 
L 362.876274 3.456 
" clip-path="url(#paad42e19c4)" style="fill: none; stroke: #b0b0b0; stroke-width: 0.8; stroke-linecap: square"/>
     </g>
     <g id="line2d_36">
      <g>
       <use xlink:href="#mf4633947fc" x="362.876274" y="293.76" style="stroke: #000000; stroke-width: 0.8"/>
      </g>
     </g>
     <g id="text_3">
      <!-- 4 -->
      <g transform="translate(356.513774 315.956875)scale(0.2 -0.2)">
       <defs>
        <path id="DejaVuSans-34" d="M 2419 4116 
L 825 1625 
L 2419 1625 
L 2419 4116 
z
M 2253 4666 
L 3047 4666 
L 3047 1625 
L 3713 1625 
L 3713 1100 
L 3047 1100 
L 3047 0 
L 2419 0 
L 2419 1100 
L 313 1100 
L 313 1709 
L 2253 4666 
z
" transform="scale(0.015625)"/>
       </defs>
       <use xlink:href="#DejaVuSans-34"/>
      </g>
     </g>
    </g>
    <g id="text_4">
     <!-- log10 of FEvals / DIM -->
     <g transform="translate(156.430563 339.313125)scale(0.2 -0.2)">
      <defs>
       <path id="DejaVuSans-6c" d="M 603 4863 
L 1178 4863 
L 1178 0 
L 603 0 
L 603 4863 
z
" transform="scale(0.015625)"/>
       <path id="DejaVuSans-6f" d="M 1959 3097 
Q 1497 3097 1228 2736 
Q 959 2375 959 1747 
Q 959 1119 1226 758 
Q 1494 397 1959 397 
Q 2419 397 2687 759 
Q 2956 1122 2956 1747 
Q 2956 2369 2687 2733 
Q 2419 3097 1959 3097 
z
M 1959 3584 
Q 2709 3584 3137 3096 
Q 3566 2609 3566 1747 
Q 3566 888 3137 398 
Q 2709 -91 1959 -91 
Q 1206 -91 779 398 
Q 353 888 353 1747 
Q 353 2609 779 3096 
Q 1206 3584 1959 3584 
z
" transform="scale(0.015625)"/>
       <path id="DejaVuSans-67" d="M 2906 1791 
Q 2906 2416 2648 2759 
Q 2391 3103 1925 3103 
Q 1463 3103 1205 2759 
Q 947 2416 947 1791 
Q 947 1169 1205 825 
Q 1463 481 1925 481 
Q 2391 481 2648 825 
Q 2906 1169 2906 1791 
z
M 3481 434 
Q 3481 -459 3084 -895 
Q 2688 -1331 1869 -1331 
Q 1566 -1331 1297 -1286 
Q 1028 -1241 775 -1147 
L 775 -588 
Q 1028 -725 1275 -790 
Q 1522 -856 1778 -856 
Q 2344 -856 2625 -561 
Q 2906 -266 2906 331 
L 2906 616 
Q 2728 306 2450 153 
Q 2172 0 1784 0 
Q 1141 0 747 490 
Q 353 981 353 1791 
Q 353 2603 747 3093 
Q 1141 3584 1784 3584 
Q 2172 3584 2450 3431 
Q 2728 3278 2906 2969 
L 2906 3500 
L 3481 3500 
L 3481 434 
z
" transform="scale(0.015625)"/>
       <path id="DejaVuSans-31" d="M 794 531 
L 1825 531 
L 1825 4091 
L 703 3866 
L 703 4441 
L 1819 4666 
L 2450 4666 
L 2450 531 
L 3481 531 
L 3481 0 
L 794 0 
L 794 531 
z
" transform="scale(0.015625)"/>
       <path id="DejaVuSans-20" transform="scale(0.015625)"/>
       <path id="DejaVuSans-66" d="M 2375 4863 
L 2375 4384 
L 1825 4384 
Q 1516 4384 1395 4259 
Q 1275 4134 1275 3809 
L 1275 3500 
L 2222 3500 
L 2222 3053 
L 1275 3053 
L 1275 0 
L 697 0 
L 697 3053 
L 147 3053 
L 147 3500 
L 697 3500 
L 697 3744 
Q 697 4328 969 4595 
Q 1241 4863 1831 4863 
L 2375 4863 
z
" transform="scale(0.015625)"/>
       <path id="DejaVuSans-46" d="M 628 4666 
L 3309 4666 
L 3309 4134 
L 1259 4134 
L 1259 2759 
L 3109 2759 
L 3109 2228 
L 1259 2228 
L 1259 0 
L 628 0 
L 628 4666 
z
" transform="scale(0.015625)"/>
       <path id="DejaVuSans-45" d="M 628 4666 
L 3578 4666 
L 3578 4134 
L 1259 4134 
L 1259 2753 
L 3481 2753 
L 3481 2222 
L 1259 2222 
L 1259 531 
L 3634 531 
L 3634 0 
L 628 0 
L 628 4666 
z
" transform="scale(0.015625)"/>
       <path id="DejaVuSans-76" d="M 191 3500 
L 800 3500 
L 1894 563 
L 2988 3500 
L 3597 3500 
L 2284 0 
L 1503 0 
L 191 3500 
z
" transform="scale(0.015625)"/>
       <path id="DejaVuSans-61" d="M 2194 1759 
Q 1497 1759 1228 1600 
Q 959 1441 959 1056 
Q 959 750 1161 570 
Q 1363 391 1709 391 
Q 2188 391 2477 730 
Q 2766 1069 2766 1631 
L 2766 1759 
L 2194 1759 
z
M 3341 1997 
L 3341 0 
L 2766 0 
L 2766 531 
Q 2569 213 2275 61 
Q 1981 -91 1556 -91 
Q 1019 -91 701 211 
Q 384 513 384 1019 
Q 384 1609 779 1909 
Q 1175 2209 1959 2209 
L 2766 2209 
L 2766 2266 
Q 2766 2663 2505 2880 
Q 2244 3097 1772 3097 
Q 1472 3097 1187 3025 
Q 903 2953 641 2809 
L 641 3341 
Q 956 3463 1253 3523 
Q 1550 3584 1831 3584 
Q 2591 3584 2966 3190 
Q 3341 2797 3341 1997 
z
" transform="scale(0.015625)"/>
       <path id="DejaVuSans-73" d="M 2834 3397 
L 2834 2853 
Q 2591 2978 2328 3040 
Q 2066 3103 1784 3103 
Q 1356 3103 1142 2972 
Q 928 2841 928 2578 
Q 928 2378 1081 2264 
Q 1234 2150 1697 2047 
L 1894 2003 
Q 2506 1872 2764 1633 
Q 3022 1394 3022 966 
Q 3022 478 2636 193 
Q 2250 -91 1575 -91 
Q 1294 -91 989 -36 
Q 684 19 347 128 
L 347 722 
Q 666 556 975 473 
Q 1284 391 1588 391 
Q 1994 391 2212 530 
Q 2431 669 2431 922 
Q 2431 1156 2273 1281 
Q 2116 1406 1581 1522 
L 1381 1569 
Q 847 1681 609 1914 
Q 372 2147 372 2553 
Q 372 3047 722 3315 
Q 1072 3584 1716 3584 
Q 2034 3584 2315 3537 
Q 2597 3491 2834 3397 
z
" transform="scale(0.015625)"/>
       <path id="DejaVuSans-2f" d="M 1625 4666 
L 2156 4666 
L 531 -594 
L 0 -594 
L 1625 4666 
z
" transform="scale(0.015625)"/>
       <path id="DejaVuSans-44" d="M 1259 4147 
L 1259 519 
L 2022 519 
Q 2988 519 3436 956 
Q 3884 1394 3884 2338 
Q 3884 3275 3436 3711 
Q 2988 4147 2022 4147 
L 1259 4147 
z
M 628 4666 
L 1925 4666 
Q 3281 4666 3915 4102 
Q 4550 3538 4550 2338 
Q 4550 1131 3912 565 
Q 3275 0 1925 0 
L 628 0 
L 628 4666 
z
" transform="scale(0.015625)"/>
       <path id="DejaVuSans-49" d="M 628 4666 
L 1259 4666 
L 1259 0 
L 628 0 
L 628 4666 
z
" transform="scale(0.015625)"/>
       <path id="DejaVuSans-4d" d="M 628 4666 
L 1569 4666 
L 2759 1491 
L 3956 4666 
L 4897 4666 
L 4897 0 
L 4281 0 
L 4281 4097 
L 3078 897 
L 2444 897 
L 1241 4097 
L 1241 0 
L 628 0 
L 628 4666 
z
" transform="scale(0.015625)"/>
      </defs>
      <use xlink:href="#DejaVuSans-6c"/>
      <use xlink:href="#DejaVuSans-6f" x="27.783203"/>
      <use xlink:href="#DejaVuSans-67" x="88.964844"/>
      <use xlink:href="#DejaVuSans-31" x="152.441406"/>
      <use xlink:href="#DejaVuSans-30" x="216.064453"/>
      <use xlink:href="#DejaVuSans-20" x="279.6875"/>
      <use xlink:href="#DejaVuSans-6f" x="311.474609"/>
      <use xlink:href="#DejaVuSans-66" x="372.65625"/>
      <use xlink:href="#DejaVuSans-20" x="407.861328"/>
      <use xlink:href="#DejaVuSans-46" x="439.648438"/>
      <use xlink:href="#DejaVuSans-45" x="497.167969"/>
      <use xlink:href="#DejaVuSans-76" x="560.351562"/>
      <use xlink:href="#DejaVuSans-61" x="619.53125"/>
      <use xlink:href="#DejaVuSans-6c" x="680.810547"/>
      <use xlink:href="#DejaVuSans-73" x="708.59375"/>
      <use xlink:href="#DejaVuSans-20" x="760.693359"/>
      <use xlink:href="#DejaVuSans-2f" x="792.480469"/>
      <use xlink:href="#DejaVuSans-20" x="826.171875"/>
      <use xlink:href="#DejaVuSans-44" x="857.958984"/>
      <use xlink:href="#DejaVuSans-49" x="934.960938"/>
      <use xlink:href="#DejaVuSans-4d" x="964.453125"/>
     </g>
    </g>
   </g>
   <g id="matplotlib.axis_2">
    <g id="ytick_1">
     <g id="line2d_37">
      <path d="M 62.208 293.76 
L 460.8 293.76 
" clip-path="url(#paad42e19c4)" style="fill: none; stroke: #b0b0b0; stroke-width: 0.8; stroke-linecap: square"/>
     </g>
     <g id="line2d_38">
      <defs>
       <path id="mc0f0323121" d="M 0 0 
L -3.5 0 
" style="stroke: #000000; stroke-width: 0.8"/>
      </defs>
      <g>
       <use xlink:href="#mc0f0323121" x="62.208" y="293.76" style="stroke: #000000; stroke-width: 0.8"/>
      </g>
     </g>
     <g id="text_5">
      <!-- 0.0 -->
      <g transform="translate(29.763 299.83875)scale(0.16 -0.16)">
       <defs>
        <path id="DejaVuSans-2e" d="M 684 794 
L 1344 794 
L 1344 0 
L 684 0 
L 684 794 
z
" transform="scale(0.015625)"/>
       </defs>
       <use xlink:href="#DejaVuSans-30"/>
       <use xlink:href="#DejaVuSans-2e" x="63.623047"/>
       <use xlink:href="#DejaVuSans-30" x="95.410156"/>
      </g>
     </g>
    </g>
    <g id="ytick_2">
     <g id="line2d_39">
      <path d="M 62.208 236.274059 
L 460.8 236.274059 
" clip-path="url(#paad42e19c4)" style="fill: none; stroke: #b0b0b0; stroke-width: 0.8; stroke-linecap: square"/>
     </g>
     <g id="line2d_40">
      <g>
       <use xlink:href="#mc0f0323121" x="62.208" y="236.274059" style="stroke: #000000; stroke-width: 0.8"/>
      </g>
     </g>
     <g id="text_6">
      <!-- 0.2 -->
      <g transform="translate(29.763 242.352809)scale(0.16 -0.16)">
       <use xlink:href="#DejaVuSans-30"/>
       <use xlink:href="#DejaVuSans-2e" x="63.623047"/>
       <use xlink:href="#DejaVuSans-32" x="95.410156"/>
      </g>
     </g>
    </g>
    <g id="ytick_3">
     <g id="line2d_41">
      <path d="M 62.208 178.788119 
L 460.8 178.788119 
" clip-path="url(#paad42e19c4)" style="fill: none; stroke: #b0b0b0; stroke-width: 0.8; stroke-linecap: square"/>
     </g>
     <g id="line2d_42">
      <g>
       <use xlink:href="#mc0f0323121" x="62.208" y="178.788119" style="stroke: #000000; stroke-width: 0.8"/>
      </g>
     </g>
     <g id="text_7">
      <!-- 0.4 -->
      <g transform="translate(29.763 184.866869)scale(0.16 -0.16)">
       <use xlink:href="#DejaVuSans-30"/>
       <use xlink:href="#DejaVuSans-2e" x="63.623047"/>
       <use xlink:href="#DejaVuSans-34" x="95.410156"/>
      </g>
     </g>
    </g>
    <g id="ytick_4">
     <g id="line2d_43">
      <path d="M 62.208 121.302178 
L 460.8 121.302178 
" clip-path="url(#paad42e19c4)" style="fill: none; stroke: #b0b0b0; stroke-width: 0.8; stroke-linecap: square"/>
     </g>
     <g id="line2d_44">
      <g>
       <use xlink:href="#mc0f0323121" x="62.208" y="121.302178" style="stroke: #000000; stroke-width: 0.8"/>
      </g>
     </g>
     <g id="text_8">
      <!-- 0.6 -->
      <g transform="translate(29.763 127.380928)scale(0.16 -0.16)">
       <defs>
        <path id="DejaVuSans-36" d="M 2113 2584 
Q 1688 2584 1439 2293 
Q 1191 2003 1191 1497 
Q 1191 994 1439 701 
Q 1688 409 2113 409 
Q 2538 409 2786 701 
Q 3034 994 3034 1497 
Q 3034 2003 2786 2293 
Q 2538 2584 2113 2584 
z
M 3366 4563 
L 3366 3988 
Q 3128 4100 2886 4159 
Q 2644 4219 2406 4219 
Q 1781 4219 1451 3797 
Q 1122 3375 1075 2522 
Q 1259 2794 1537 2939 
Q 1816 3084 2150 3084 
Q 2853 3084 3261 2657 
Q 3669 2231 3669 1497 
Q 3669 778 3244 343 
Q 2819 -91 2113 -91 
Q 1303 -91 875 529 
Q 447 1150 447 2328 
Q 447 3434 972 4092 
Q 1497 4750 2381 4750 
Q 2619 4750 2861 4703 
Q 3103 4656 3366 4563 
z
" transform="scale(0.015625)"/>
       </defs>
       <use xlink:href="#DejaVuSans-30"/>
       <use xlink:href="#DejaVuSans-2e" x="63.623047"/>
       <use xlink:href="#DejaVuSans-36" x="95.410156"/>
      </g>
     </g>
    </g>
    <g id="ytick_5">
     <g id="line2d_45">
      <path d="M 62.208 63.816238 
L 460.8 63.816238 
" clip-path="url(#paad42e19c4)" style="fill: none; stroke: #b0b0b0; stroke-width: 0.8; stroke-linecap: square"/>
     </g>
     <g id="line2d_46">
      <g>
       <use xlink:href="#mc0f0323121" x="62.208" y="63.816238" style="stroke: #000000; stroke-width: 0.8"/>
      </g>
     </g>
     <g id="text_9">
      <!-- 0.8 -->
      <g transform="translate(29.763 69.894988)scale(0.16 -0.16)">
       <defs>
        <path id="DejaVuSans-38" d="M 2034 2216 
Q 1584 2216 1326 1975 
Q 1069 1734 1069 1313 
Q 1069 891 1326 650 
Q 1584 409 2034 409 
Q 2484 409 2743 651 
Q 3003 894 3003 1313 
Q 3003 1734 2745 1975 
Q 2488 2216 2034 2216 
z
M 1403 2484 
Q 997 2584 770 2862 
Q 544 3141 544 3541 
Q 544 4100 942 4425 
Q 1341 4750 2034 4750 
Q 2731 4750 3128 4425 
Q 3525 4100 3525 3541 
Q 3525 3141 3298 2862 
Q 3072 2584 2669 2484 
Q 3125 2378 3379 2068 
Q 3634 1759 3634 1313 
Q 3634 634 3220 271 
Q 2806 -91 2034 -91 
Q 1263 -91 848 271 
Q 434 634 434 1313 
Q 434 1759 690 2068 
Q 947 2378 1403 2484 
z
M 1172 3481 
Q 1172 3119 1398 2916 
Q 1625 2713 2034 2713 
Q 2441 2713 2670 2916 
Q 2900 3119 2900 3481 
Q 2900 3844 2670 4047 
Q 2441 4250 2034 4250 
Q 1625 4250 1398 4047 
Q 1172 3844 1172 3481 
z
" transform="scale(0.015625)"/>
       </defs>
       <use xlink:href="#DejaVuSans-30"/>
       <use xlink:href="#DejaVuSans-2e" x="63.623047"/>
       <use xlink:href="#DejaVuSans-38" x="95.410156"/>
      </g>
     </g>
    </g>
    <g id="ytick_6">
     <g id="line2d_47">
      <path d="M 62.208 6.330297 
L 460.8 6.330297 
" clip-path="url(#paad42e19c4)" style="fill: none; stroke: #b0b0b0; stroke-width: 0.8; stroke-linecap: square"/>
     </g>
     <g id="line2d_48">
      <g>
       <use xlink:href="#mc0f0323121" x="62.208" y="6.330297" style="stroke: #000000; stroke-width: 0.8"/>
      </g>
     </g>
     <g id="text_10">
      <!-- 1.0 -->
      <g transform="translate(29.763 12.409047)scale(0.16 -0.16)">
       <use xlink:href="#DejaVuSans-31"/>
       <use xlink:href="#DejaVuSans-2e" x="63.623047"/>
       <use xlink:href="#DejaVuSans-30" x="95.410156"/>
      </g>
     </g>
    </g>
    <g id="text_11">
     <!-- proportion of trials -->
     <g transform="translate(21.603625 241.61425)rotate(-90)scale(0.2 -0.2)">
      <defs>
       <path id="DejaVuSans-70" d="M 1159 525 
L 1159 -1331 
L 581 -1331 
L 581 3500 
L 1159 3500 
L 1159 2969 
Q 1341 3281 1617 3432 
Q 1894 3584 2278 3584 
Q 2916 3584 3314 3078 
Q 3713 2572 3713 1747 
Q 3713 922 3314 415 
Q 2916 -91 2278 -91 
Q 1894 -91 1617 61 
Q 1341 213 1159 525 
z
M 3116 1747 
Q 3116 2381 2855 2742 
Q 2594 3103 2138 3103 
Q 1681 3103 1420 2742 
Q 1159 2381 1159 1747 
Q 1159 1113 1420 752 
Q 1681 391 2138 391 
Q 2594 391 2855 752 
Q 3116 1113 3116 1747 
z
" transform="scale(0.015625)"/>
       <path id="DejaVuSans-72" d="M 2631 2963 
Q 2534 3019 2420 3045 
Q 2306 3072 2169 3072 
Q 1681 3072 1420 2755 
Q 1159 2438 1159 1844 
L 1159 0 
L 581 0 
L 581 3500 
L 1159 3500 
L 1159 2956 
Q 1341 3275 1631 3429 
Q 1922 3584 2338 3584 
Q 2397 3584 2469 3576 
Q 2541 3569 2628 3553 
L 2631 2963 
z
" transform="scale(0.015625)"/>
       <path id="DejaVuSans-74" d="M 1172 4494 
L 1172 3500 
L 2356 3500 
L 2356 3053 
L 1172 3053 
L 1172 1153 
Q 1172 725 1289 603 
Q 1406 481 1766 481 
L 2356 481 
L 2356 0 
L 1766 0 
Q 1100 0 847 248 
Q 594 497 594 1153 
L 594 3053 
L 172 3053 
L 172 3500 
L 594 3500 
L 594 4494 
L 1172 4494 
z
" transform="scale(0.015625)"/>
       <path id="DejaVuSans-69" d="M 603 3500 
L 1178 3500 
L 1178 0 
L 603 0 
L 603 3500 
z
M 603 4863 
L 1178 4863 
L 1178 4134 
L 603 4134 
L 603 4863 
z
" transform="scale(0.015625)"/>
       <path id="DejaVuSans-6e" d="M 3513 2113 
L 3513 0 
L 2938 0 
L 2938 2094 
Q 2938 2591 2744 2837 
Q 2550 3084 2163 3084 
Q 1697 3084 1428 2787 
Q 1159 2491 1159 1978 
L 1159 0 
L 581 0 
L 581 3500 
L 1159 3500 
L 1159 2956 
Q 1366 3272 1645 3428 
Q 1925 3584 2291 3584 
Q 2894 3584 3203 3211 
Q 3513 2838 3513 2113 
z
" transform="scale(0.015625)"/>
      </defs>
      <use xlink:href="#DejaVuSans-70"/>
      <use xlink:href="#DejaVuSans-72" x="63.476562"/>
      <use xlink:href="#DejaVuSans-6f" x="102.339844"/>
      <use xlink:href="#DejaVuSans-70" x="163.521484"/>
      <use xlink:href="#DejaVuSans-6f" x="226.998047"/>
      <use xlink:href="#DejaVuSans-72" x="288.179688"/>
      <use xlink:href="#DejaVuSans-74" x="329.292969"/>
      <use xlink:href="#DejaVuSans-69" x="368.501953"/>
      <use xlink:href="#DejaVuSans-6f" x="396.285156"/>
      <use xlink:href="#DejaVuSans-6e" x="457.466797"/>
      <use xlink:href="#DejaVuSans-20" x="520.845703"/>
      <use xlink:href="#DejaVuSans-6f" x="552.632812"/>
      <use xlink:href="#DejaVuSans-66" x="613.814453"/>
      <use xlink:href="#DejaVuSans-20" x="649.019531"/>
      <use xlink:href="#DejaVuSans-74" x="680.806641"/>
      <use xlink:href="#DejaVuSans-72" x="720.015625"/>
      <use xlink:href="#DejaVuSans-69" x="761.128906"/>
      <use xlink:href="#DejaVuSans-61" x="788.912109"/>
      <use xlink:href="#DejaVuSans-6c" x="850.191406"/>
      <use xlink:href="#DejaVuSans-73" x="877.974609"/>
     </g>
    </g>
   </g>
   <g id="line2d_49">
    <path d="M 9.668474 293.76 
L 9.668474 213.279683 
L 32.296016 213.279683 
L 32.296016 209.447287 
L 68.159822 209.447287 
L 68.159822 205.614891 
L 77.551101 205.614891 
L 77.551101 201.782495 
L 81.396086 201.782495 
L 81.396086 197.950099 
L 87.946909 197.950099 
L 87.946909 194.117703 
L 93.40033 194.117703 
L 93.40033 190.285307 
L 95.819558 190.285307 
L 95.819558 186.452911 
L 104.023628 186.452911 
L 104.023628 182.620515 
L 114.747526 182.620515 
L 114.747526 178.788119 
L 117.259892 178.788119 
L 117.259892 174.955723 
L 118.447101 174.955723 
L 118.447101 171.123327 
L 130.090627 171.123327 
L 130.090627 167.290931 
L 136.042449 167.290931 
L 136.042449 163.458535 
L 142.220187 163.458535 
L 142.220187 159.626139 
L 144.919628 159.626139 
L 144.919628 155.793743 
L 145.433728 155.793743 
L 145.433728 151.961347 
L 146.438257 151.961347 
L 146.438257 148.12895 
L 150.173143 148.12895 
L 150.173143 144.296554 
L 151.043718 144.296554 
L 151.043718 140.464158 
L 156.198406 140.464158 
L 156.198406 136.631762 
L 156.923872 136.631762 
L 156.923872 132.799366 
L 157.98271 132.799366 
L 157.98271 128.96697 
L 158.669991 128.96697 
L 158.669991 125.134574 
L 160.327436 125.134574 
L 160.327436 121.302178 
L 162.815851 121.302178 
L 162.815851 117.469782 
L 169.312176 117.469782 
L 169.312176 113.637386 
L 170.279495 113.637386 
L 170.279495 109.80499 
L 174.727813 109.80499 
L 174.727813 105.972594 
L 178.457078 105.972594 
L 178.457078 102.140198 
L 188.987504 102.140198 
L 188.987504 98.307802 
L 192.184248 98.307802 
L 192.184248 94.475406 
L 193.380156 94.475406 
L 193.380156 90.64301 
L 193.846516 90.64301 
L 193.846516 86.810614 
L 194.077222 86.810614 
L 194.077222 82.978218 
L 194.420251 82.978218 
L 194.420251 79.145822 
L 194.872087 79.145822 
L 194.872087 75.313426 
L 204.009978 75.313426 
L 204.009978 71.48103 
L 204.598185 71.48103 
L 204.598185 67.648634 
L 204.929606 67.648634 
L 204.929606 63.816238 
L 206.694611 63.816238 
L 206.694611 59.983842 
L 210.243221 59.983842 
L 210.243221 56.151446 
L 212.476782 56.151446 
L 212.476782 52.31905 
L 212.995992 52.31905 
L 212.995992 48.486653 
L 213.124515 48.486653 
L 213.124515 44.654257 
L 220.600796 44.654257 
L 220.600796 40.821861 
L 223.66576 40.821861 
L 223.7585 33.157069 
L 224.940748 33.157069 
L 224.940748 29.324673 
L 227.926018 29.324673 
L 227.926018 25.492277 
L 231.838857 25.492277 
L 231.838857 21.659881 
L 263.803406 21.659881 
L 263.803406 17.827485 
L 266.021235 17.827485 
L 266.021235 13.995089 
L 266.761337 13.995089 
L 266.761337 10.162693 
L 269.90426 10.162693 
L 269.90426 6.330297 
L 269.90426 6.330297 
L 460.8 6.330297 
L 460.8 6.330297 
" clip-path="url(#paad42e19c4)" style="fill: none; stroke: #000000; stroke-width: 1.5; stroke-linecap: square"/>
   </g>
   <g id="line2d_50">
    <path clip-path="url(#paad42e19c4)" style="fill: none; stroke: #000000; stroke-width: 1.5; stroke-linecap: square"/>
   </g>
   <g id="line2d_51">
    <path d="M 199.565991 293.76 
L 199.565991 289.927604 
L 200.617594 289.927604 
L 200.617594 286.095208 
L 200.898611 286.095208 
L 200.898611 282.262812 
L 201.908793 282.262812 
L 201.908793 278.430416 
L 205.094063 278.430416 
L 205.094063 274.59802 
L 205.420512 274.59802 
L 205.420512 270.765624 
L 205.743729 270.765624 
L 205.743729 266.933228 
L 206.538042 266.933228 
L 206.538042 263.100832 
L 207.618578 263.100832 
L 207.618578 259.268436 
L 209.175144 259.268436 
L 209.175144 255.43604 
L 209.319589 255.43604 
L 209.319589 247.771248 
L 212.015599 247.771248 
L 212.015599 243.938851 
L 212.931541 243.938851 
L 212.931541 240.106455 
L 213.124515 240.106455 
L 213.124515 236.274059 
L 213.443624 236.274059 
L 213.507074 228.609267 
L 214.196996 228.609267 
L 214.196996 224.776871 
L 214.382653 224.776871 
L 214.382653 220.944475 
L 215.054503 220.944475 
L 215.054503 217.112079 
L 218.602594 217.112079 
L 218.602594 213.279683 
L 231.107704 213.279683 
L 231.107704 209.447287 
L 232.376673 209.447287 
L 232.376673 205.614891 
L 233.219162 205.614891 
L 233.219162 201.782495 
L 270.41836 201.782495 
L 270.41836 197.950099 
L 271.551665 197.950099 
L 271.551665 194.117703 
L 272.812233 194.117703 
L 272.812233 190.285307 
L 273.027913 190.285307 
L 273.027913 186.452911 
L 274.528391 186.452911 
L 274.528391 182.620515 
L 275.934839 182.620515 
L 275.934839 178.788119 
L 276.894502 178.788119 
L 276.894502 174.955723 
L 277.622866 174.955723 
L 277.622866 171.123327 
L 277.738265 171.123327 
L 277.738265 167.290931 
L 278.517536 167.290931 
L 278.517536 163.458535 
L 278.733127 163.458535 
L 278.733127 159.626139 
L 279.631738 159.626139 
L 279.631738 155.793743 
L 280.269332 155.793743 
L 280.269332 151.961347 
L 281.230846 151.961347 
L 281.230846 148.12895 
L 283.454417 148.12895 
L 283.454417 144.296554 
L 287.77443 144.296554 
L 287.77443 140.464158 
L 292.135143 140.464158 
L 292.135143 136.631762 
L 295.844286 136.631762 
L 295.844286 132.799366 
L 298.317992 132.799366 
L 298.317992 128.96697 
L 298.463906 128.96697 
L 298.463906 125.134574 
L 299.25727 125.134574 
L 299.25727 121.302178 
L 300.762146 121.302178 
L 300.762146 117.469782 
L 301.002004 117.469782 
L 301.002004 113.637386 
L 301.706933 113.637386 
L 301.706933 109.80499 
L 302.142004 109.80499 
L 302.142004 105.972594 
L 303.614636 105.972594 
L 303.614636 102.140198 
L 312.315817 102.140198 
L 312.315817 98.307802 
L 313.433273 98.307802 
L 313.433273 94.475406 
L 313.687617 94.475406 
L 313.687617 90.64301 
L 313.989654 90.64301 
L 313.989654 86.810614 
L 315.274603 86.810614 
L 315.274603 82.978218 
L 328.074876 82.978218 
L 328.074876 79.145822 
L 328.295953 79.145822 
L 328.295953 75.313426 
L 329.128893 75.313426 
L 329.128893 71.48103 
L 330.300822 71.48103 
L 330.300822 67.648634 
L 332.636201 67.648634 
L 332.636201 63.816238 
L 336.262088 63.816238 
L 336.262088 59.983842 
L 340.768197 59.983842 
L 340.768197 56.151446 
L 344.391812 56.151446 
L 344.391812 52.31905 
L 346.174428 52.31905 
L 346.174428 48.486653 
L 347.97621 48.486653 
L 347.97621 44.654257 
L 348.540172 44.654257 
L 348.540172 40.821861 
L 349.754067 40.821861 
L 349.754067 36.989465 
L 351.206622 36.989465 
L 351.206622 33.157069 
L 354.740221 33.157069 
L 354.740221 29.324673 
L 357.851588 29.324673 
L 357.851588 25.492277 
L 362.83054 25.492277 
L 362.83054 21.659881 
L 364.964539 21.659881 
L 364.964539 17.827485 
L 365.919312 17.827485 
L 365.919312 13.995089 
L 374.035169 13.995089 
L 374.035169 10.162693 
L 388.027364 10.162693 
L 388.027364 6.330297 
L 388.027364 6.330297 
L 460.8 6.330297 
L 460.8 6.330297 
" clip-path="url(#paad42e19c4)" style="fill: none; stroke: #00bfbf; stroke-width: 1.5; stroke-linecap: square"/>
   </g>
   <g id="line2d_52">
    <path clip-path="url(#paad42e19c4)" style="fill: none; stroke: #00bfbf; stroke-width: 1.5; stroke-linecap: square"/>
   </g>
   <g id="line2d_53">
    <path d="M 228.331044 293.76 
L 228.331044 289.927604 
L 234.410083 289.927604 
L 234.410083 286.095208 
L 237.317297 286.095208 
L 237.317297 282.262812 
L 240.461991 282.262812 
L 240.461991 278.430416 
L 243.95969 278.430416 
L 243.95969 274.59802 
L 274.233762 274.59802 
L 274.233762 270.765624 
L 274.684445 270.765624 
L 274.684445 266.933228 
L 275.176949 266.933228 
L 275.176949 263.100832 
L 276.455083 263.100832 
L 276.455083 259.268436 
L 277.729403 259.268436 
L 277.800235 251.603644 
L 278.152107 251.603644 
L 278.152107 247.771248 
L 281.302426 247.771248 
L 281.302426 243.938851 
L 281.618676 243.938851 
L 281.618676 240.106455 
L 281.869488 240.106455 
L 281.869488 236.274059 
L 282.226688 236.274059 
L 282.226688 232.441663 
L 282.5265 232.441663 
L 282.5265 228.609267 
L 283.432096 228.609267 
L 283.528711 220.944475 
L 283.639835 220.944475 
L 283.639835 217.112079 
L 283.787415 217.112079 
L 283.787415 213.279683 
L 283.985596 213.279683 
L 283.985596 209.447287 
L 284.262494 209.447287 
L 284.262494 205.614891 
L 284.623292 205.614891 
L 284.623292 201.782495 
L 285.178292 201.782495 
L 285.178292 197.950099 
L 289.00838 197.950099 
L 289.00838 194.117703 
L 289.783382 194.117703 
L 289.783382 190.285307 
L 293.12896 190.285307 
L 293.12896 186.452911 
L 294.841824 186.452911 
L 294.841824 182.620515 
L 298.828184 182.620515 
L 298.828184 178.788119 
L 301.162378 178.788119 
L 301.162378 174.955723 
L 302.116818 174.955723 
L 302.116818 171.123327 
L 302.342792 171.123327 
L 302.342792 167.290931 
L 303.437678 167.290931 
L 303.546379 159.626139 
L 306.01495 159.626139 
L 306.01495 155.793743 
L 307.020383 155.793743 
L 307.020383 151.961347 
L 307.379751 151.961347 
L 307.379751 148.12895 
L 309.312115 148.12895 
L 309.409657 140.464158 
L 309.916199 140.464158 
L 309.916199 136.631762 
L 311.632785 136.631762 
L 311.632785 132.799366 
L 314.992768 132.799366 
L 314.992768 128.96697 
L 316.234117 128.96697 
L 316.234117 125.134574 
L 316.640318 125.134574 
L 316.640318 121.302178 
L 317.608129 121.302178 
L 317.608129 117.469782 
L 325.60836 117.469782 
L 325.60836 113.637386 
L 326.979807 113.637386 
L 326.979807 109.80499 
L 330.041229 109.80499 
L 330.041229 105.972594 
L 330.928758 105.972594 
L 330.928758 102.140198 
L 332.132777 102.140198 
L 332.132777 98.307802 
L 335.179084 98.307802 
L 335.179084 94.475406 
L 337.459992 94.475406 
L 337.459992 90.64301 
L 338.666243 90.64301 
L 338.666243 86.810614 
L 348.034898 86.810614 
L 348.034898 82.978218 
L 349.986484 82.978218 
L 349.986484 79.145822 
L 350.272055 79.145822 
L 350.272055 75.313426 
L 351.17954 75.313426 
L 351.17954 71.48103 
L 351.520613 71.48103 
L 351.520613 67.648634 
L 354.385636 67.648634 
L 354.385636 63.816238 
L 359.842705 63.816238 
L 359.842705 59.983842 
L 362.548184 59.983842 
L 362.548184 56.151446 
L 367.233726 56.151446 
L 367.233726 52.31905 
L 369.663889 52.31905 
L 369.663889 48.486653 
L 381.534136 48.486653 
L 381.534136 44.654257 
L 381.926235 44.654257 
L 381.926235 40.821861 
L 384.193293 40.821861 
L 384.193293 36.989465 
L 385.076653 36.989465 
L 385.076653 33.157069 
L 389.968499 33.157069 
L 389.968499 29.324673 
L 392.037749 29.324673 
L 392.037749 25.492277 
L 403.842524 25.492277 
L 403.842524 21.659881 
L 405.650499 21.659881 
L 405.650499 17.827485 
L 406.683259 17.827485 
L 406.683259 13.995089 
L 409.124332 13.995089 
L 409.124332 10.162693 
L 412.518078 10.162693 
L 412.518078 6.330297 
L 412.518078 6.330297 
L 460.8 6.330297 
L 460.8 6.330297 
" clip-path="url(#paad42e19c4)" style="fill: none; stroke: #bf00bf; stroke-width: 1.5; stroke-linecap: square"/>
   </g>
   <g id="line2d_54">
    <path clip-path="url(#paad42e19c4)" style="fill: none; stroke: #bf00bf; stroke-width: 1.5; stroke-linecap: square"/>
   </g>
   <g id="line2d_55">
    <path d="M 239.418402 293.76 
L 239.418402 289.927604 
L 278.500227 289.927604 
L 278.500227 286.095208 
L 279.151599 286.095208 
L 279.151599 282.262812 
L 281.524122 282.262812 
L 281.524122 278.430416 
L 286.021006 278.430416 
L 286.021006 274.59802 
L 286.294872 274.59802 
L 286.294872 270.765624 
L 286.922868 270.765624 
L 286.922868 266.933228 
L 288.553483 266.933228 
L 288.553483 263.100832 
L 289.221008 263.100832 
L 289.221008 259.268436 
L 290.045785 259.268436 
L 290.045785 255.43604 
L 292.186413 255.43604 
L 292.186413 251.603644 
L 292.464145 251.603644 
L 292.464145 247.771248 
L 295.024971 247.771248 
L 295.024971 243.938851 
L 296.524145 243.938851 
L 296.524145 240.106455 
L 298.185636 240.106455 
L 298.185636 236.274059 
L 299.417304 236.274059 
L 299.417304 232.441663 
L 301.399325 232.441663 
L 301.399325 228.609267 
L 304.246218 228.609267 
L 304.246218 224.776871 
L 304.977563 224.776871 
L 304.977563 220.944475 
L 305.447334 220.944475 
L 305.447334 217.112079 
L 305.655226 217.112079 
L 305.655226 213.279683 
L 306.547212 213.279683 
L 306.547212 209.447287 
L 308.424328 209.447287 
L 308.424328 205.614891 
L 310.941565 205.614891 
L 310.941565 201.782495 
L 311.462924 201.782495 
L 311.462924 197.950099 
L 311.7299 197.950099 
L 311.7299 194.117703 
L 312.035021 194.117703 
L 312.035021 190.285307 
L 312.183434 190.285307 
L 312.183434 186.452911 
L 312.782547 186.452911 
L 312.782547 182.620515 
L 313.041992 182.620515 
L 313.041992 178.788119 
L 313.227763 178.788119 
L 313.227763 174.955723 
L 313.637497 174.955723 
L 313.637497 171.123327 
L 313.840451 171.123327 
L 313.840451 167.290931 
L 314.805416 167.290931 
L 314.805416 163.458535 
L 315.08322 163.458535 
L 315.08322 159.626139 
L 315.254953 159.626139 
L 315.254953 155.793743 
L 316.015392 155.793743 
L 316.086638 148.12895 
L 316.726324 148.12895 
L 316.726324 144.296554 
L 316.988317 144.296554 
L 316.988317 140.464158 
L 317.16888 140.464158 
L 317.16888 136.631762 
L 319.21144 136.631762 
L 319.21144 132.799366 
L 319.464174 132.799366 
L 319.464174 128.96697 
L 319.888407 128.96697 
L 319.888407 125.134574 
L 320.422448 125.134574 
L 320.422448 121.302178 
L 327.89998 121.302178 
L 327.89998 117.469782 
L 332.127753 117.469782 
L 332.127753 113.637386 
L 332.762906 113.637386 
L 332.762906 109.80499 
L 333.546668 109.80499 
L 333.639531 102.140198 
L 334.818688 102.140198 
L 334.818688 98.307802 
L 337.136973 98.307802 
L 337.136973 94.475406 
L 339.127616 94.475406 
L 339.127616 90.64301 
L 340.900302 90.64301 
L 340.900302 86.810614 
L 349.992297 86.810614 
L 349.992297 82.978218 
L 352.409795 82.978218 
L 352.450255 75.313426 
L 352.72139 75.313426 
L 352.72139 71.48103 
L 353.003545 71.48103 
L 353.003545 67.648634 
L 356.114028 67.648634 
L 356.114028 63.816238 
L 360.545819 63.816238 
L 360.545819 59.983842 
L 364.021367 59.983842 
L 364.021367 56.151446 
L 367.719704 56.151446 
L 367.719704 52.31905 
L 370.25043 52.31905 
L 370.25043 48.486653 
L 382.41575 48.486653 
L 382.41575 44.654257 
L 382.748837 44.654257 
L 382.748837 40.821861 
L 385.003477 40.821861 
L 385.003477 36.989465 
L 385.523397 36.989465 
L 385.523397 33.157069 
L 390.728048 33.157069 
L 390.728048 29.324673 
L 392.637221 29.324673 
L 392.637221 25.492277 
L 404.682833 25.492277 
L 404.682833 21.659881 
L 406.267017 21.659881 
L 406.267017 17.827485 
L 407.250079 17.827485 
L 407.250079 13.995089 
L 409.87531 13.995089 
L 409.87531 10.162693 
L 413.160288 10.162693 
L 413.160288 6.330297 
L 413.160288 6.330297 
L 460.8 6.330297 
L 460.8 6.330297 
" clip-path="url(#paad42e19c4)" style="fill: none; stroke: #ff0000; stroke-width: 3; stroke-linecap: square"/>
   </g>
   <g id="line2d_56">
    <path clip-path="url(#paad42e19c4)" style="fill: none; stroke: #ff0000; stroke-width: 3; stroke-linecap: square"/>
   </g>
   <g id="line2d_57">
    <path d="M 413.160288 293.76 
L 413.160288 3.456 
" clip-path="url(#paad42e19c4)" style="fill: none; stroke: #000000; stroke-width: 1.5; stroke-linecap: square"/>
   </g>
   <g id="patch_3">
    <path d="M 62.208 293.76 
L 62.208 3.456 
" style="fill: none; stroke: #000000; stroke-width: 0.8; stroke-linejoin: miter; stroke-linecap: square"/>
   </g>
   <g id="patch_4">
    <path d="M 460.8 293.76 
L 460.8 3.456 
" style="fill: none; stroke: #000000; stroke-width: 0.8; stroke-linejoin: miter; stroke-linecap: square"/>
   </g>
   <g id="patch_5">
    <path d="M 62.208 293.76 
L 460.8 293.76 
" style="fill: none; stroke: #000000; stroke-width: 0.8; stroke-linejoin: miter; stroke-linecap: square"/>
   </g>
   <g id="patch_6">
    <path d="M 62.208 3.456 
L 460.8 3.456 
" style="fill: none; stroke: #000000; stroke-width: 0.8; stroke-linejoin: miter; stroke-linecap: square"/>
   </g>
   <g id="text_12">
    <!-- {f15-f19}, 5-D -->
    <g transform="translate(188.654 24.458955)scale(0.2 -0.2)">
     <defs>
      <path id="DejaVuSans-7b" d="M 3272 -594 
L 3272 -1044 
L 3078 -1044 
Q 2300 -1044 2036 -812 
Q 1772 -581 1772 109 
L 1772 856 
Q 1772 1328 1603 1509 
Q 1434 1691 991 1691 
L 800 1691 
L 800 2138 
L 991 2138 
Q 1438 2138 1605 2317 
Q 1772 2497 1772 2963 
L 1772 3713 
Q 1772 4403 2036 4633 
Q 2300 4863 3078 4863 
L 3272 4863 
L 3272 4416 
L 3059 4416 
Q 2619 4416 2484 4278 
Q 2350 4141 2350 3700 
L 2350 2925 
Q 2350 2434 2208 2212 
Q 2066 1991 1722 1913 
Q 2069 1828 2209 1606 
Q 2350 1384 2350 897 
L 2350 122 
Q 2350 -319 2484 -456 
Q 2619 -594 3059 -594 
L 3272 -594 
z
" transform="scale(0.015625)"/>
      <path id="DejaVuSans-35" d="M 691 4666 
L 3169 4666 
L 3169 4134 
L 1269 4134 
L 1269 2991 
Q 1406 3038 1543 3061 
Q 1681 3084 1819 3084 
Q 2600 3084 3056 2656 
Q 3513 2228 3513 1497 
Q 3513 744 3044 326 
Q 2575 -91 1722 -91 
Q 1428 -91 1123 -41 
Q 819 9 494 109 
L 494 744 
Q 775 591 1075 516 
Q 1375 441 1709 441 
Q 2250 441 2565 725 
Q 2881 1009 2881 1497 
Q 2881 1984 2565 2268 
Q 2250 2553 1709 2553 
Q 1456 2553 1204 2497 
Q 953 2441 691 2322 
L 691 4666 
z
" transform="scale(0.015625)"/>
      <path id="DejaVuSans-2d" d="M 313 2009 
L 1997 2009 
L 1997 1497 
L 313 1497 
L 313 2009 
z
" transform="scale(0.015625)"/>
      <path id="DejaVuSans-39" d="M 703 97 
L 703 672 
Q 941 559 1184 500 
Q 1428 441 1663 441 
Q 2288 441 2617 861 
Q 2947 1281 2994 2138 
Q 2813 1869 2534 1725 
Q 2256 1581 1919 1581 
Q 1219 1581 811 2004 
Q 403 2428 403 3163 
Q 403 3881 828 4315 
Q 1253 4750 1959 4750 
Q 2769 4750 3195 4129 
Q 3622 3509 3622 2328 
Q 3622 1225 3098 567 
Q 2575 -91 1691 -91 
Q 1453 -91 1209 -44 
Q 966 3 703 97 
z
M 1959 2075 
Q 2384 2075 2632 2365 
Q 2881 2656 2881 3163 
Q 2881 3666 2632 3958 
Q 2384 4250 1959 4250 
Q 1534 4250 1286 3958 
Q 1038 3666 1038 3163 
Q 1038 2656 1286 2365 
Q 1534 2075 1959 2075 
z
" transform="scale(0.015625)"/>
      <path id="DejaVuSans-7d" d="M 800 -594 
L 1019 -594 
Q 1456 -594 1589 -459 
Q 1722 -325 1722 122 
L 1722 897 
Q 1722 1384 1862 1606 
Q 2003 1828 2350 1913 
Q 2003 1991 1862 2212 
Q 1722 2434 1722 2925 
L 1722 3700 
Q 1722 4144 1589 4280 
Q 1456 4416 1019 4416 
L 800 4416 
L 800 4863 
L 997 4863 
Q 1775 4863 2036 4633 
Q 2297 4403 2297 3713 
L 2297 2963 
Q 2297 2497 2465 2317 
Q 2634 2138 3078 2138 
L 3272 2138 
L 3272 1691 
L 3078 1691 
Q 2634 1691 2465 1509 
Q 2297 1328 2297 856 
L 2297 109 
Q 2297 -581 2036 -812 
Q 1775 -1044 997 -1044 
L 800 -1044 
L 800 -594 
z
" transform="scale(0.015625)"/>
      <path id="DejaVuSans-2c" d="M 750 794 
L 1409 794 
L 1409 256 
L 897 -744 
L 494 -744 
L 750 256 
L 750 794 
z
" transform="scale(0.015625)"/>
     </defs>
     <use xlink:href="#DejaVuSans-7b"/>
     <use xlink:href="#DejaVuSans-66" x="63.623047"/>
     <use xlink:href="#DejaVuSans-31" x="98.828125"/>
     <use xlink:href="#DejaVuSans-35" x="162.451172"/>
     <use xlink:href="#DejaVuSans-2d" x="226.074219"/>
     <use xlink:href="#DejaVuSans-66" x="262.158203"/>
     <use xlink:href="#DejaVuSans-31" x="297.363281"/>
     <use xlink:href="#DejaVuSans-39" x="360.986328"/>
     <use xlink:href="#DejaVuSans-7d" x="424.609375"/>
     <use xlink:href="#DejaVuSans-2c" x="488.232422"/>
     <use xlink:href="#DejaVuSans-20" x="520.019531"/>
     <use xlink:href="#DejaVuSans-35" x="551.806641"/>
     <use xlink:href="#DejaVuSans-2d" x="615.429688"/>
     <use xlink:href="#DejaVuSans-44" x="651.513672"/>
    </g>
   </g>
   <g id="text_13">
    <!-- absolute targets -->
    <g transform="translate(62.208 609.932673)scale(0.14 -0.14)">
     <defs>
      <path id="DejaVuSans-62" d="M 3116 1747 
Q 3116 2381 2855 2742 
Q 2594 3103 2138 3103 
Q 1681 3103 1420 2742 
Q 1159 2381 1159 1747 
Q 1159 1113 1420 752 
Q 1681 391 2138 391 
Q 2594 391 2855 752 
Q 3116 1113 3116 1747 
z
M 1159 2969 
Q 1341 3281 1617 3432 
Q 1894 3584 2278 3584 
Q 2916 3584 3314 3078 
Q 3713 2572 3713 1747 
Q 3713 922 3314 415 
Q 2916 -91 2278 -91 
Q 1894 -91 1617 61 
Q 1341 213 1159 525 
L 1159 0 
L 581 0 
L 581 4863 
L 1159 4863 
L 1159 2969 
z
" transform="scale(0.015625)"/>
      <path id="DejaVuSans-75" d="M 544 1381 
L 544 3500 
L 1119 3500 
L 1119 1403 
Q 1119 906 1312 657 
Q 1506 409 1894 409 
Q 2359 409 2629 706 
Q 2900 1003 2900 1516 
L 2900 3500 
L 3475 3500 
L 3475 0 
L 2900 0 
L 2900 538 
Q 2691 219 2414 64 
Q 2138 -91 1772 -91 
Q 1169 -91 856 284 
Q 544 659 544 1381 
z
M 1991 3584 
L 1991 3584 
z
" transform="scale(0.015625)"/>
      <path id="DejaVuSans-65" d="M 3597 1894 
L 3597 1613 
L 953 1613 
Q 991 1019 1311 708 
Q 1631 397 2203 397 
Q 2534 397 2845 478 
Q 3156 559 3463 722 
L 3463 178 
Q 3153 47 2828 -22 
Q 2503 -91 2169 -91 
Q 1331 -91 842 396 
Q 353 884 353 1716 
Q 353 2575 817 3079 
Q 1281 3584 2069 3584 
Q 2775 3584 3186 3129 
Q 3597 2675 3597 1894 
z
M 3022 2063 
Q 3016 2534 2758 2815 
Q 2500 3097 2075 3097 
Q 1594 3097 1305 2825 
Q 1016 2553 972 2059 
L 3022 2063 
z
" transform="scale(0.015625)"/>
     </defs>
     <use xlink:href="#DejaVuSans-61"/>
     <use xlink:href="#DejaVuSans-62" x="61.279297"/>
     <use xlink:href="#DejaVuSans-73" x="124.755859"/>
     <use xlink:href="#DejaVuSans-6f" x="176.855469"/>
     <use xlink:href="#DejaVuSans-6c" x="238.037109"/>
     <use xlink:href="#DejaVuSans-75" x="265.820312"/>
     <use xlink:href="#DejaVuSans-74" x="329.199219"/>
     <use xlink:href="#DejaVuSans-65" x="368.408203"/>
     <use xlink:href="#DejaVuSans-20" x="429.931641"/>
     <use xlink:href="#DejaVuSans-74" x="461.71875"/>
     <use xlink:href="#DejaVuSans-61" x="500.927734"/>
     <use xlink:href="#DejaVuSans-72" x="562.207031"/>
     <use xlink:href="#DejaVuSans-67" x="601.570312"/>
     <use xlink:href="#DejaVuSans-65" x="665.046875"/>
     <use xlink:href="#DejaVuSans-74" x="726.570312"/>
     <use xlink:href="#DejaVuSans-73" x="765.779297"/>
    </g>
   </g>
   <g id="text_14">
    <!-- v2.6.3 -->
    <g style="fill: #808080" transform="translate(245.82275 288.777272)scale(0.1 -0.1)">
     <defs>
      <path id="DejaVuSans-33" d="M 2597 2516 
Q 3050 2419 3304 2112 
Q 3559 1806 3559 1356 
Q 3559 666 3084 287 
Q 2609 -91 1734 -91 
Q 1441 -91 1130 -33 
Q 819 25 488 141 
L 488 750 
Q 750 597 1062 519 
Q 1375 441 1716 441 
Q 2309 441 2620 675 
Q 2931 909 2931 1356 
Q 2931 1769 2642 2001 
Q 2353 2234 1838 2234 
L 1294 2234 
L 1294 2753 
L 1863 2753 
Q 2328 2753 2575 2939 
Q 2822 3125 2822 3475 
Q 2822 3834 2567 4026 
Q 2313 4219 1838 4219 
Q 1578 4219 1281 4162 
Q 984 4106 628 3988 
L 628 4550 
Q 988 4650 1302 4700 
Q 1616 4750 1894 4750 
Q 2613 4750 3031 4423 
Q 3450 4097 3450 3541 
Q 3450 3153 3228 2886 
Q 3006 2619 2597 2516 
z
" transform="scale(0.015625)"/>
     </defs>
     <use xlink:href="#DejaVuSans-76"/>
     <use xlink:href="#DejaVuSans-32" x="59.179688"/>
     <use xlink:href="#DejaVuSans-2e" x="122.802734"/>
     <use xlink:href="#DejaVuSans-36" x="154.589844"/>
     <use xlink:href="#DejaVuSans-2e" x="218.212891"/>
     <use xlink:href="#DejaVuSans-33" x="250"/>
    </g>
   </g>
   <g id="legend_1">
    <g id="patch_7">
     <path d="M 76.208 136.881 
L 205.429875 136.881 
Q 209.429875 136.881 209.429875 132.881 
L 209.429875 17.456 
Q 209.429875 13.456 205.429875 13.456 
L 76.208 13.456 
Q 72.208 13.456 72.208 17.456 
L 72.208 132.881 
Q 72.208 136.881 76.208 136.881 
z
" style="fill: #ffffff; opacity: 0.2; stroke: #cccccc; stroke-linejoin: miter"/>
    </g>
    <g id="line2d_58">
     <path d="M 80.208 29.652875 
L 80.208 29.652875 
L 100.208 29.652875 
L 100.208 29.652875 
L 120.208 29.652875 
" style="fill: none; stroke: #000000; stroke-width: 1.5; stroke-linecap: square"/>
    </g>
    <g id="text_15">
     <!-- 1: 5/5 -->
     <g transform="translate(136.208 36.652875)scale(0.2 -0.2)">
      <defs>
       <path id="DejaVuSans-3a" d="M 750 794 
L 1409 794 
L 1409 0 
L 750 0 
L 750 794 
z
M 750 3309 
L 1409 3309 
L 1409 2516 
L 750 2516 
L 750 3309 
z
" transform="scale(0.015625)"/>
      </defs>
      <use xlink:href="#DejaVuSans-31"/>
      <use xlink:href="#DejaVuSans-3a" x="63.623047"/>
      <use xlink:href="#DejaVuSans-20" x="97.314453"/>
      <use xlink:href="#DejaVuSans-35" x="129.101562"/>
      <use xlink:href="#DejaVuSans-2f" x="192.724609"/>
      <use xlink:href="#DejaVuSans-35" x="226.416016"/>
     </g>
    </g>
    <g id="line2d_59">
     <path d="M 80.208 59.009125 
L 80.208 59.009125 
L 100.208 59.009125 
L 100.208 59.009125 
L 120.208 59.009125 
" style="fill: none; stroke: #00bfbf; stroke-width: 1.5; stroke-linecap: square"/>
    </g>
    <g id="text_16">
     <!-- -1: 5/5 -->
     <g transform="translate(136.208 66.009125)scale(0.2 -0.2)">
      <use xlink:href="#DejaVuSans-2d"/>
      <use xlink:href="#DejaVuSans-31" x="36.083984"/>
      <use xlink:href="#DejaVuSans-3a" x="99.707031"/>
      <use xlink:href="#DejaVuSans-20" x="133.398438"/>
      <use xlink:href="#DejaVuSans-35" x="165.185547"/>
      <use xlink:href="#DejaVuSans-2f" x="228.808594"/>
      <use xlink:href="#DejaVuSans-35" x="262.5"/>
     </g>
    </g>
    <g id="line2d_60">
     <path d="M 80.208 88.365375 
L 80.208 88.365375 
L 100.208 88.365375 
L 100.208 88.365375 
L 120.208 88.365375 
" style="fill: none; stroke: #bf00bf; stroke-width: 1.5; stroke-linecap: square"/>
    </g>
    <g id="text_17">
     <!-- -4: 5/5 -->
     <g transform="translate(136.208 95.365375)scale(0.2 -0.2)">
      <use xlink:href="#DejaVuSans-2d"/>
      <use xlink:href="#DejaVuSans-34" x="36.083984"/>
      <use xlink:href="#DejaVuSans-3a" x="99.707031"/>
      <use xlink:href="#DejaVuSans-20" x="133.398438"/>
      <use xlink:href="#DejaVuSans-35" x="165.185547"/>
      <use xlink:href="#DejaVuSans-2f" x="228.808594"/>
      <use xlink:href="#DejaVuSans-35" x="262.5"/>
     </g>
    </g>
    <g id="line2d_61">
     <path d="M 80.208 117.721625 
L 80.208 117.721625 
L 100.208 117.721625 
L 100.208 117.721625 
L 120.208 117.721625 
" style="fill: none; stroke: #ff0000; stroke-width: 3; stroke-linecap: square"/>
    </g>
    <g id="text_18">
     <!-- -8: 5/5 -->
     <g transform="translate(136.208 124.721625)scale(0.2 -0.2)">
      <use xlink:href="#DejaVuSans-2d"/>
      <use xlink:href="#DejaVuSans-38" x="36.083984"/>
      <use xlink:href="#DejaVuSans-3a" x="99.707031"/>
      <use xlink:href="#DejaVuSans-20" x="133.398438"/>
      <use xlink:href="#DejaVuSans-35" x="165.185547"/>
      <use xlink:href="#DejaVuSans-2f" x="228.808594"/>
      <use xlink:href="#DejaVuSans-35" x="262.5"/>
     </g>
    </g>
   </g>
  </g>
 </g>
 <defs>
  <clipPath id="paad42e19c4">
   <rect x="62.208" y="3.456" width="398.592" height="290.304"/>
  </clipPath>
 </defs>
</svg>
