<?xml version="1.0" encoding="utf-8" standalone="no"?>
<!DOCTYPE svg PUBLIC "-//W3C//DTD SVG 1.1//EN"
  "http://www.w3.org/Graphics/SVG/1.1/DTD/svg11.dtd">
<svg xmlns:xlink="http://www.w3.org/1999/xlink" width="460.8pt" height="345.6pt" viewBox="0 0 460.8 345.6" xmlns="http://www.w3.org/2000/svg" version="1.1">
 <metadata>
  <rdf:RDF xmlns:dc="http://purl.org/dc/elements/1.1/" xmlns:cc="http://creativecommons.org/ns#" xmlns:rdf="http://www.w3.org/1999/02/22-rdf-syntax-ns#">
   <cc:Work>
    <dc:type rdf:resource="http://purl.org/dc/dcmitype/StillImage"/>
    <dc:date>2023-04-07T14:50:09.085763</dc:date>
    <dc:format>image/svg+xml</dc:format>
    <dc:creator>
     <cc:Agent>
      <dc:title>Matplotlib v3.5.2, https://matplotlib.org/</dc:title>
     </cc:Agent>
    </dc:creator>
   </cc:Work>
  </rdf:RDF>
 </metadata>
 <defs>
  <style type="text/css">*{stroke-linejoin: round; stroke-linecap: butt}</style>
 </defs>
 <g id="figure_1">
  <g id="patch_1">
   <path d="M 0 345.6 
L 460.8 345.6 
L 460.8 0 
L 0 0 
z
" style="fill: #ffffff"/>
  </g>
  <g id="axes_1">
   <g id="patch_2">
    <path d="M 62.208 293.76 
L 460.8 293.76 
L 460.8 3.456 
L 62.208 3.456 
z
" style="fill: #ffffff"/>
   </g>
   <g id="line2d_1">
    <path d="M 205.257695 293.76 
L 205.257695 289.927604 
L 208.294785 289.927604 
L 208.294785 286.095208 
L 209.247446 286.095208 
L 209.247446 282.262812 
L 210.383027 282.262812 
L 210.383027 278.430416 
L 210.522237 278.430416 
L 210.522237 274.59802 
L 210.798888 274.59802 
L 210.798888 270.765624 
L 214.56726 270.765624 
L 214.56726 266.933228 
L 216.241712 266.933228 
L 216.241712 263.100832 
L 218.493959 263.100832 
L 218.493959 259.268436 
L 221.802575 259.268436 
L 221.802575 255.43604 
L 222.723569 255.43604 
L 222.723569 251.603644 
L 228.290767 251.603644 
L 228.290767 247.771248 
L 234.6763 247.771248 
L 234.6763 243.938851 
L 239.15943 243.938851 
L 239.15943 240.106455 
L 239.817207 240.106455 
L 239.817207 236.274059 
L 240.43422 236.274059 
L 240.43422 232.441663 
L 241.067048 232.441663 
L 241.067048 228.609267 
L 241.311375 228.609267 
L 241.311375 224.776871 
L 243.684206 224.776871 
L 243.684206 220.944475 
L 244.45469 220.944475 
L 244.45469 217.112079 
L 255.638111 217.112079 
L 255.638111 213.279683 
L 256.4816 213.279683 
L 256.4816 209.447287 
L 257.518556 209.447287 
L 257.518556 205.614891 
L 259.714784 205.614891 
L 259.714784 201.782495 
L 267.581936 201.782495 
L 267.581936 197.950099 
L 271.076983 197.950099 
L 271.076983 194.117703 
L 273.746742 194.117703 
L 273.746742 190.285307 
L 283.543549 190.285307 
L 283.543549 186.452911 
L 283.543549 186.452911 
L 283.543549 186.452911 
L 460.8 186.452911 
" clip-path="url(#pd096d88904)" style="fill: none; stroke: #f5deb3; stroke-width: 1.5; stroke-linecap: square"/>
   </g>
   <g id="line2d_2">
    <path d="M 269.025159 293.76 
L 269.025159 282.262812 
L 284.342212 282.262812 
L 284.342212 270.765624 
L 295.778065 270.765624 
L 295.778065 259.268436 
L 332.42116 259.268436 
L 332.42116 247.771248 
L 359.025821 247.771248 
L 359.025821 236.274059 
L 359.025821 236.274059 
L 359.025821 236.274059 
L 460.8 236.274059 
" clip-path="url(#pd096d88904)" style="fill: none; stroke: #f5deb3; stroke-width: 1.5; stroke-linecap: square"/>
   </g>
   <g id="line2d_3">
    <path d="M 173.020515 293.76 
L 173.020515 289.927604 
L 176.938449 289.927604 
L 176.938449 286.095208 
L 207.770061 286.095208 
L 207.770061 282.262812 
L 209.030056 282.262812 
L 209.030056 278.430416 
L 210.936339 278.430416 
L 210.936339 274.59802 
L 216.474059 274.59802 
L 216.474059 270.765624 
L 219.826579 270.765624 
L 219.826579 266.933228 
L 222.723569 266.933228 
L 222.723569 263.100832 
L 225.163275 263.100832 
L 225.163275 259.268436 
L 225.560041 259.268436 
L 225.560041 255.43604 
L 229.243962 255.43604 
L 229.243962 251.603644 
L 231.070713 251.603644 
L 231.070713 247.771248 
L 236.450026 247.771248 
L 236.450026 243.938851 
L 238.012855 243.938851 
L 238.012855 240.106455 
L 243.734467 240.106455 
L 243.734467 236.274059 
L 250.573931 236.274059 
L 250.573931 232.441663 
L 257.943793 232.441663 
L 257.943793 228.609267 
L 267.05766 228.609267 
L 267.05766 224.776871 
L 267.606117 224.776871 
L 267.606117 220.944475 
L 269.336118 220.944475 
L 269.336118 217.112079 
L 272.584743 217.112079 
L 272.584743 213.279683 
L 276.149515 213.279683 
L 276.149515 209.447287 
L 276.903594 209.447287 
L 276.903594 205.614891 
L 287.988749 205.614891 
L 287.988749 201.782495 
L 290.844305 201.782495 
L 290.844305 197.950099 
L 315.924739 197.950099 
L 315.924739 194.117703 
L 317.917559 194.117703 
L 317.917559 190.285307 
L 318.397957 190.285307 
L 318.397957 186.452911 
L 327.251205 186.452911 
L 327.251205 182.620515 
L 341.087919 182.620515 
L 341.087919 178.788119 
L 341.087919 178.788119 
L 341.087919 178.788119 
L 460.8 178.788119 
" clip-path="url(#pd096d88904)" style="fill: none; stroke: #f5deb3; stroke-width: 1.5; stroke-linecap: square"/>
   </g>
   <g id="line2d_4">
    <path d="M 198.277872 293.76 
L 198.277872 289.927604 
L 215.23536 289.927604 
L 215.23536 286.095208 
L 215.295424 286.095208 
L 215.295424 282.262812 
L 217.611618 282.262812 
L 217.611618 278.430416 
L 243.431733 278.430416 
L 243.431733 274.59802 
L 244.380917 274.59802 
L 244.380917 270.765624 
L 247.901515 270.765624 
L 247.901515 266.933228 
L 248.12179 266.933228 
L 248.12179 263.100832 
L 251.398386 263.100832 
L 251.398386 259.268436 
L 260.655355 259.268436 
L 260.655355 255.43604 
L 261.873525 255.43604 
L 261.873525 251.603644 
L 264.448791 251.603644 
L 264.448791 247.771248 
L 264.541852 247.771248 
L 264.541852 243.938851 
L 267.822946 243.938851 
L 267.822946 240.106455 
L 268.441369 240.106455 
L 268.441369 236.274059 
L 269.655495 236.274059 
L 269.655495 232.441663 
L 273.666534 232.441663 
L 273.666534 228.609267 
L 286.17876 228.609267 
L 286.17876 224.776871 
L 294.930909 224.776871 
L 294.930909 220.944475 
L 295.310714 220.944475 
L 295.310714 217.112079 
L 299.748587 217.112079 
L 299.748587 213.279683 
L 301.231486 213.279683 
L 301.231486 209.447287 
L 309.577152 209.447287 
L 309.577152 205.614891 
L 312.331176 205.614891 
L 312.331176 201.782495 
L 315.517834 201.782495 
L 315.517834 197.950099 
L 318.667162 197.950099 
L 318.667162 194.117703 
L 329.073775 194.117703 
L 329.073775 190.285307 
L 333.102736 190.285307 
L 333.102736 186.452911 
L 346.213609 186.452911 
L 346.213609 182.620515 
L 346.964143 182.620515 
L 346.964143 178.788119 
L 348.407212 178.788119 
L 348.407212 174.955723 
L 351.052238 174.955723 
L 351.052238 171.123327 
L 356.162985 171.123327 
L 356.162985 167.290931 
L 356.162985 167.290931 
L 356.162985 167.290931 
L 460.8 167.290931 
" clip-path="url(#pd096d88904)" style="fill: none; stroke: #f5deb3; stroke-width: 1.5; stroke-linecap: square"/>
   </g>
   <g id="line2d_5">
    <path d="M 289.814002 293.76 
L 289.814002 289.927604 
L 289.814002 289.927604 
L 289.814002 289.927604 
L 460.8 289.927604 
" clip-path="url(#pd096d88904)" style="fill: none; stroke: #f5deb3; stroke-width: 1.5; stroke-linecap: square"/>
   </g>
   <g id="line2d_6"/>
   <g id="line2d_7">
    <path d="M 218.055769 293.76 
L 218.055769 289.927604 
L 223.7585 289.927604 
L 223.7585 286.095208 
L 225.428321 286.095208 
L 225.428321 282.262812 
L 228.889768 282.262812 
L 228.889768 278.430416 
L 236.102907 278.430416 
L 236.102907 274.59802 
L 283.170549 274.59802 
L 283.170549 270.765624 
L 295.248583 270.765624 
L 295.248583 266.933228 
L 298.228237 266.933228 
L 298.228237 263.100832 
L 298.944085 263.100832 
L 298.944085 259.268436 
L 302.538207 259.268436 
L 302.538207 255.43604 
L 311.57312 255.43604 
L 311.57312 251.603644 
L 313.610931 251.603644 
L 313.610931 247.771248 
L 314.665622 247.771248 
L 314.665622 243.938851 
L 314.853776 243.938851 
L 314.853776 240.106455 
L 316.103058 240.106455 
L 316.103058 236.274059 
L 317.634245 236.274059 
L 317.634245 232.441663 
L 321.659438 232.441663 
L 321.659438 228.609267 
L 322.69067 228.609267 
L 322.69067 224.776871 
L 323.761804 224.776871 
L 323.761804 220.944475 
L 329.06274 220.944475 
L 329.06274 217.112079 
L 330.398082 217.112079 
L 330.398082 213.279683 
L 331.716572 213.279683 
L 331.716572 209.447287 
L 335.376756 209.447287 
L 335.376756 205.614891 
L 338.402013 205.614891 
L 338.402013 201.782495 
L 341.540376 201.782495 
L 341.540376 197.950099 
L 351.402988 197.950099 
L 351.402988 194.117703 
L 351.519689 194.117703 
L 351.519689 190.285307 
L 355.920697 190.285307 
L 355.920697 186.452911 
L 369.498541 186.452911 
L 369.498541 182.620515 
L 371.399853 182.620515 
L 371.399853 178.788119 
L 372.877497 178.788119 
L 372.877497 174.955723 
L 379.117289 174.955723 
L 379.117289 171.123327 
L 381.224474 171.123327 
L 381.224474 167.290931 
L 381.815679 167.290931 
L 381.815679 163.458535 
L 389.772309 163.458535 
L 389.772309 159.626139 
L 391.872181 159.626139 
L 391.872181 155.793743 
L 397.140454 155.793743 
L 397.140454 151.961347 
L 401.59263 151.961347 
L 401.59263 148.12895 
L 404.649981 148.12895 
L 404.649981 144.296554 
L 405.735275 144.296554 
L 405.735275 140.464158 
L 407.534745 140.464158 
L 407.534745 136.631762 
L 409.924632 136.631762 
L 409.924632 132.799366 
L 416.836843 132.799366 
L 416.836843 128.96697 
L 419.352121 128.96697 
L 419.352121 125.134574 
L 421.984508 125.134574 
L 421.984508 121.302178 
L 422.166272 121.302178 
L 422.166272 117.469782 
L 425.405294 117.469782 
L 425.405294 113.637386 
L 425.555336 113.637386 
L 425.555336 109.80499 
L 428.576153 109.80499 
L 428.576153 105.972594 
L 436.558845 105.972594 
L 436.558845 102.140198 
L 455.231009 102.140198 
L 455.231009 98.307802 
L 456.57499 98.307802 
L 456.57499 94.475406 
L 461.8 94.475406 
" clip-path="url(#pd096d88904)" style="fill: none; stroke: #f5deb3; stroke-width: 1.5; stroke-linecap: square"/>
   </g>
   <g id="line2d_8">
    <path d="M 327.185028 293.76 
L 327.185028 289.927604 
L 332.884213 289.927604 
L 332.884213 286.095208 
L 335.238511 286.095208 
L 335.238511 282.262812 
L 337.281726 282.262812 
L 337.281726 278.430416 
L 337.803779 278.430416 
L 337.803779 274.59802 
L 338.594892 274.59802 
L 338.594892 270.765624 
L 342.071964 270.765624 
L 342.071964 266.933228 
L 362.410722 266.933228 
L 362.410722 263.100832 
L 362.565986 263.100832 
L 362.565986 259.268436 
L 362.58246 259.268436 
L 362.58246 255.43604 
L 363.376456 255.43604 
L 363.376456 251.603644 
L 364.086862 251.603644 
L 364.086862 247.771248 
L 364.67171 247.771248 
L 364.67171 243.938851 
L 387.625442 243.938851 
L 387.625442 240.106455 
L 387.971719 240.106455 
L 387.971719 236.274059 
L 388.013764 236.274059 
L 388.013764 232.441663 
L 388.777114 232.441663 
L 388.777114 228.609267 
L 389.02716 228.609267 
L 389.02716 224.776871 
L 396.681029 224.776871 
L 396.681029 220.944475 
L 397.373211 220.944475 
L 397.373211 217.112079 
L 416.792807 217.112079 
L 416.792807 213.279683 
L 416.852466 213.279683 
L 416.852466 209.447287 
L 417.136255 209.447287 
L 417.136255 205.614891 
L 420.143525 205.614891 
L 420.143525 201.782495 
L 431.536466 201.782495 
L 431.536466 197.950099 
L 438.033417 197.950099 
L 438.033417 194.117703 
L 438.033417 194.117703 
L 438.033417 194.117703 
L 460.8 194.117703 
" clip-path="url(#pd096d88904)" style="fill: none; stroke: #f5deb3; stroke-width: 1.5; stroke-linecap: square"/>
   </g>
   <g id="line2d_9">
    <path d="M 210.313199 293.76 
L 210.313199 289.927604 
L 214.258999 289.927604 
L 214.258999 286.095208 
L 224.806499 286.095208 
L 224.806499 282.262812 
L 225.64756 282.262812 
L 225.64756 278.430416 
L 257.469132 278.430416 
L 257.469132 274.59802 
L 261.321444 274.59802 
L 261.321444 270.765624 
L 265.211981 270.765624 
L 265.211981 266.933228 
L 268.19303 266.933228 
L 268.19303 263.100832 
L 273.19129 263.100832 
L 273.19129 259.268436 
L 285.571015 259.268436 
L 285.571015 255.43604 
L 286.674466 255.43604 
L 286.674466 251.603644 
L 286.701411 251.603644 
L 286.701411 247.771248 
L 296.263947 247.771248 
L 296.263947 243.938851 
L 298.772405 243.938851 
L 298.772405 240.106455 
L 307.774071 240.106455 
L 307.774071 236.274059 
L 311.371337 236.274059 
L 311.371337 232.441663 
L 313.528144 232.441663 
L 313.528144 228.609267 
L 314.842404 228.609267 
L 314.842404 224.776871 
L 318.259957 224.776871 
L 318.259957 220.944475 
L 320.379277 220.944475 
L 320.379277 217.112079 
L 323.249318 217.112079 
L 323.249318 213.279683 
L 323.251516 213.279683 
L 323.251516 209.447287 
L 325.685969 209.447287 
L 325.685969 205.614891 
L 330.205049 205.614891 
L 330.205049 201.782495 
L 332.40456 201.782495 
L 332.40456 197.950099 
L 334.645515 197.950099 
L 334.645515 194.117703 
L 337.599075 194.117703 
L 337.599075 190.285307 
L 344.724801 190.285307 
L 344.724801 186.452911 
L 345.965758 186.452911 
L 345.965758 182.620515 
L 347.179222 182.620515 
L 347.179222 178.788119 
L 353.937134 178.788119 
L 353.937134 174.955723 
L 355.610598 174.955723 
L 355.610598 171.123327 
L 359.889242 171.123327 
L 359.889242 167.290931 
L 369.280878 167.290931 
L 369.280878 163.458535 
L 369.420627 163.458535 
L 369.420627 159.626139 
L 370.766687 159.626139 
L 370.766687 155.793743 
L 373.97667 155.793743 
L 373.97667 151.961347 
L 376.394239 151.961347 
L 376.394239 148.12895 
L 377.363574 148.12895 
L 377.363574 144.296554 
L 377.512362 144.296554 
L 377.512362 140.464158 
L 381.219635 140.464158 
L 381.219635 136.631762 
L 381.42483 136.631762 
L 381.42483 132.799366 
L 383.803583 132.799366 
L 383.803583 128.96697 
L 384.609622 128.96697 
L 384.609622 125.134574 
L 391.866003 125.134574 
L 391.866003 121.302178 
L 393.86305 121.302178 
L 393.86305 117.469782 
L 393.910523 117.469782 
L 393.910523 113.637386 
L 394.142849 113.637386 
L 394.142849 109.80499 
L 394.170397 109.80499 
L 394.170397 105.972594 
L 394.968137 105.972594 
L 394.968137 102.140198 
L 396.048146 102.140198 
L 396.048146 98.307802 
L 396.771768 98.307802 
L 396.771768 94.475406 
L 396.830199 94.475406 
L 396.830199 90.64301 
L 398.12562 90.64301 
L 398.12562 86.810614 
L 399.01056 86.810614 
L 399.01056 82.978218 
L 399.209385 82.978218 
L 399.209385 79.145822 
L 404.360332 79.145822 
L 404.360332 75.313426 
L 407.980191 75.313426 
L 407.980191 71.48103 
L 420.081443 71.48103 
L 420.081443 67.648634 
L 424.41195 67.648634 
L 424.41195 63.816238 
L 433.567648 63.816238 
L 433.567648 59.983842 
L 461.8 59.983842 
" clip-path="url(#pd096d88904)" style="fill: none; stroke: #f5deb3; stroke-width: 1.5; stroke-linecap: square"/>
   </g>
   <g id="line2d_10">
    <path d="M 313.102034 293.76 
L 313.102034 289.927604 
L 327.264813 289.927604 
L 327.264813 286.095208 
L 331.143469 286.095208 
L 331.143469 282.262812 
L 334.161349 282.262812 
L 334.161349 278.430416 
L 343.711945 278.430416 
L 343.711945 274.59802 
L 345.745817 274.59802 
L 345.745817 270.765624 
L 346.828863 270.765624 
L 346.828863 266.933228 
L 347.644758 266.933228 
L 347.644758 263.100832 
L 350.646439 263.100832 
L 350.646439 259.268436 
L 375.388118 259.268436 
L 375.388118 255.43604 
L 382.653507 255.43604 
L 382.653507 251.603644 
L 385.629257 251.603644 
L 385.629257 247.771248 
L 389.368527 247.771248 
L 389.368527 243.938851 
L 392.535527 243.938851 
L 392.535527 240.106455 
L 394.241414 240.106455 
L 394.241414 236.274059 
L 394.396164 236.274059 
L 394.396164 232.441663 
L 411.856718 232.441663 
L 411.856718 228.609267 
L 418.937561 228.609267 
L 418.937561 224.776871 
L 421.982693 224.776871 
L 421.982693 220.944475 
L 421.982693 220.944475 
L 421.982693 220.944475 
L 460.8 220.944475 
" clip-path="url(#pd096d88904)" style="fill: none; stroke: #f5deb3; stroke-width: 1.5; stroke-linecap: square"/>
   </g>
   <g id="line2d_11">
    <path d="M 266.362009 293.76 
L 266.362009 289.927604 
L 293.845492 289.927604 
L 293.845492 286.095208 
L 306.245183 286.095208 
L 306.245183 282.262812 
L 312.124768 282.262812 
L 312.124768 278.430416 
L 314.947448 278.430416 
L 314.947448 274.59802 
L 317.907206 274.59802 
L 317.907206 270.765624 
L 319.021848 270.765624 
L 319.021848 266.933228 
L 320.087579 266.933228 
L 320.087579 263.100832 
L 328.367435 263.100832 
L 328.367435 259.268436 
L 329.810131 259.268436 
L 329.810131 255.43604 
L 329.860431 255.43604 
L 329.860431 251.603644 
L 331.865465 251.603644 
L 331.865465 247.771248 
L 337.291735 247.771248 
L 337.291735 243.938851 
L 337.668395 243.938851 
L 337.668395 240.106455 
L 340.242202 240.106455 
L 340.242202 236.274059 
L 340.838805 236.274059 
L 340.838805 232.441663 
L 341.316195 232.441663 
L 341.316195 228.609267 
L 341.69814 228.609267 
L 341.69814 224.776871 
L 342.401239 224.776871 
L 342.401239 220.944475 
L 346.295086 220.944475 
L 346.295086 217.112079 
L 356.317398 217.112079 
L 356.317398 213.279683 
L 356.875317 213.279683 
L 356.875317 209.447287 
L 358.669053 209.447287 
L 358.669053 205.614891 
L 362.250723 205.614891 
L 362.250723 201.782495 
L 363.399594 201.782495 
L 363.399594 197.950099 
L 365.062382 197.950099 
L 365.062382 194.117703 
L 373.417531 194.117703 
L 373.417531 190.285307 
L 374.427089 190.285307 
L 374.427089 186.452911 
L 374.525023 186.452911 
L 374.525023 182.620515 
L 376.828044 182.620515 
L 376.828044 178.788119 
L 380.450179 178.788119 
L 380.450179 174.955723 
L 398.174372 174.955723 
L 398.174372 171.123327 
L 436.728877 171.123327 
L 436.728877 167.290931 
L 445.685018 167.290931 
L 445.685018 163.458535 
L 447.417887 163.458535 
L 447.417887 159.626139 
L 447.922649 159.626139 
L 447.922649 155.793743 
L 448.194554 155.793743 
L 448.194554 151.961347 
L 461.8 151.961347 
" clip-path="url(#pd096d88904)" style="fill: none; stroke: #f5deb3; stroke-width: 1.5; stroke-linecap: square"/>
   </g>
   <g id="line2d_12">
    <path d="M 213.252533 293.76 
L 213.252533 289.927604 
L 216.183365 289.927604 
L 216.183365 286.095208 
L 217.555672 286.095208 
L 217.555672 282.262812 
L 229.516815 282.262812 
L 229.516815 278.430416 
L 229.748887 278.430416 
L 229.748887 274.59802 
L 242.270797 274.59802 
L 242.270797 270.765624 
L 243.95969 270.765624 
L 243.95969 266.933228 
L 245.135318 266.933228 
L 245.135318 263.100832 
L 245.84915 263.100832 
L 245.84915 259.268436 
L 249.957201 259.268436 
L 249.957201 255.43604 
L 255.655545 255.43604 
L 255.655545 251.603644 
L 257.386592 251.603644 
L 257.386592 247.771248 
L 258.651041 247.771248 
L 258.651041 243.938851 
L 260.233934 243.938851 
L 260.233934 240.106455 
L 260.324697 240.106455 
L 260.324697 236.274059 
L 260.505471 236.274059 
L 260.505471 232.441663 
L 262.088907 232.441663 
L 262.088907 228.609267 
L 265.740912 228.609267 
L 265.740912 224.776871 
L 272.698686 224.776871 
L 272.698686 220.944475 
L 279.85673 220.944475 
L 279.85673 217.112079 
L 287.26881 217.112079 
L 287.26881 213.279683 
L 291.051236 213.279683 
L 291.051236 209.447287 
L 294.24875 209.447287 
L 294.24875 205.614891 
L 296.419315 205.614891 
L 296.419315 201.782495 
L 306.748237 201.782495 
L 306.748237 197.950099 
L 311.235059 197.950099 
L 311.235059 194.117703 
L 316.307607 194.117703 
L 316.307607 190.285307 
L 316.889648 190.285307 
L 316.889648 186.452911 
L 327.169437 186.452911 
L 327.169437 182.620515 
L 327.58779 182.620515 
L 327.58779 178.788119 
L 327.58779 178.788119 
L 327.58779 178.788119 
L 460.8 178.788119 
" clip-path="url(#pd096d88904)" style="fill: none; stroke: #f5deb3; stroke-width: 1.5; stroke-linecap: square"/>
   </g>
   <g id="line2d_13">
    <path d="M 266.49983 293.76 
L 266.49983 289.927604 
L 277.791389 289.927604 
L 277.791389 286.095208 
L 282.071864 286.095208 
L 282.071864 282.262812 
L 283.042751 282.262812 
L 283.042751 278.430416 
L 287.460159 278.430416 
L 287.460159 274.59802 
L 291.015855 274.59802 
L 291.015855 270.765624 
L 293.942729 270.765624 
L 293.942729 266.933228 
L 294.173852 266.933228 
L 294.173852 263.100832 
L 294.173852 263.100832 
L 294.173852 259.268436 
L 296.248872 259.268436 
L 296.248872 255.43604 
L 308.104314 255.43604 
L 308.104314 251.603644 
L 308.104314 251.603644 
L 308.104314 251.603644 
L 460.8 251.603644 
" clip-path="url(#pd096d88904)" style="fill: none; stroke: #f5deb3; stroke-width: 1.5; stroke-linecap: square"/>
   </g>
   <g id="line2d_14">
    <path d="M 183.59509 293.76 
L 183.59509 289.927604 
L 192.787678 289.927604 
L 192.787678 286.095208 
L 241.634326 286.095208 
L 241.634326 282.262812 
L 272.801927 282.262812 
L 272.801927 278.430416 
L 280.424764 278.430416 
L 280.424764 274.59802 
L 284.269749 274.59802 
L 284.269749 270.765624 
L 285.298012 270.765624 
L 285.298012 266.933228 
L 291.513541 266.933228 
L 291.513541 263.100832 
L 292.260328 263.100832 
L 292.260328 259.268436 
L 296.304113 259.268436 
L 296.304113 255.43604 
L 298.562381 255.43604 
L 298.562381 251.603644 
L 299.013429 251.603644 
L 299.013429 247.771248 
L 299.266436 247.771248 
L 299.266436 243.938851 
L 300.941116 243.938851 
L 300.941116 240.106455 
L 303.437678 240.106455 
L 303.437678 236.274059 
L 306.667975 236.274059 
L 306.667975 232.441663 
L 309.786979 232.441663 
L 309.786979 228.609267 
L 325.479285 228.609267 
L 325.479285 224.776871 
L 325.941991 224.776871 
L 325.941991 220.944475 
L 327.099188 220.944475 
L 327.099188 217.112079 
L 327.842745 217.112079 
L 327.842745 213.279683 
L 336.774436 213.279683 
L 336.774436 209.447287 
L 339.79907 209.447287 
L 339.79907 205.614891 
L 343.531773 205.614891 
L 343.531773 201.782495 
L 345.65853 201.782495 
L 345.65853 197.950099 
L 348.490503 197.950099 
L 348.490503 194.117703 
L 357.185347 194.117703 
L 357.185347 190.285307 
L 357.185347 190.285307 
L 357.185347 190.285307 
L 460.8 190.285307 
" clip-path="url(#pd096d88904)" style="fill: none; stroke: #f5deb3; stroke-width: 1.5; stroke-linecap: square"/>
   </g>
   <g id="line2d_15">
    <path d="M 372.718993 293.76 
L 372.718993 289.927604 
L 374.196657 289.927604 
L 374.196657 286.095208 
L 376.519571 286.095208 
L 376.519571 282.262812 
L 379.190253 282.262812 
L 379.190253 278.430416 
L 381.321837 278.430416 
L 381.321837 274.59802 
L 384.651199 274.59802 
L 384.651199 270.765624 
L 386.949478 270.765624 
L 386.949478 266.933228 
L 390.781135 266.933228 
L 390.781135 263.100832 
L 396.024267 263.100832 
L 396.024267 259.268436 
L 398.629773 259.268436 
L 398.629773 255.43604 
L 398.892501 255.43604 
L 398.892501 251.603644 
L 402.948462 251.603644 
L 402.948462 247.771248 
L 403.629632 247.771248 
L 403.629632 243.938851 
L 403.674006 243.938851 
L 403.674006 240.106455 
L 404.25408 240.106455 
L 404.25408 236.274059 
L 405.117844 236.274059 
L 405.117844 232.441663 
L 406.86057 232.441663 
L 406.86057 228.609267 
L 409.860917 228.609267 
L 409.860917 224.776871 
L 414.457662 224.776871 
L 414.457662 220.944475 
L 414.457662 220.944475 
L 414.457662 220.944475 
L 460.8 220.944475 
" clip-path="url(#pd096d88904)" style="fill: none; stroke: #f5deb3; stroke-width: 1.5; stroke-linecap: square"/>
   </g>
   <g id="line2d_16">
    <path d="M 271.369082 293.76 
L 271.369082 289.927604 
L 337.906354 289.927604 
L 337.906354 286.095208 
L 359.418677 286.095208 
L 359.418677 282.262812 
L 360.15644 282.262812 
L 360.15644 278.430416 
L 366.796618 278.430416 
L 366.796618 274.59802 
L 372.826031 274.59802 
L 372.826031 270.765624 
L 387.086915 270.765624 
L 387.086915 266.933228 
L 394.777526 266.933228 
L 394.777526 263.100832 
L 395.782369 263.100832 
L 395.782369 259.268436 
L 397.593052 259.268436 
L 397.593052 255.43604 
L 403.700938 255.43604 
L 403.700938 251.603644 
L 407.508969 251.603644 
L 407.508969 247.771248 
L 409.842955 247.771248 
L 409.842955 243.938851 
L 410.954181 243.938851 
L 410.954181 240.106455 
L 412.32558 240.106455 
L 412.32558 236.274059 
L 412.496095 236.274059 
L 412.496095 232.441663 
L 416.236656 232.441663 
L 416.236656 228.609267 
L 416.452286 228.609267 
L 416.452286 224.776871 
L 418.343366 224.776871 
L 418.343366 220.944475 
L 422.57087 220.944475 
L 422.57087 217.112079 
L 422.796207 217.112079 
L 422.796207 213.279683 
L 428.882201 213.279683 
L 428.882201 209.447287 
L 431.697997 209.447287 
L 431.697997 205.614891 
L 432.832081 205.614891 
L 432.832081 201.782495 
L 438.239858 201.782495 
L 438.239858 197.950099 
L 440.996743 197.950099 
L 440.996743 194.117703 
L 442.043492 194.117703 
L 442.043492 190.285307 
L 443.03464 190.285307 
L 443.03464 186.452911 
L 443.963484 186.452911 
L 443.963484 182.620515 
L 444.201208 182.620515 
L 444.201208 178.788119 
L 444.942295 178.788119 
L 444.942295 174.955723 
L 450.845607 174.955723 
L 450.845607 171.123327 
L 454.159625 171.123327 
L 454.159625 167.290931 
L 458.307491 167.290931 
L 458.307491 163.458535 
L 461.8 163.458535 
" clip-path="url(#pd096d88904)" style="fill: none; stroke: #f5deb3; stroke-width: 1.5; stroke-linecap: square"/>
   </g>
   <g id="line2d_17">
    <path d="M 279.160083 293.76 
L 279.160083 289.927604 
L 281.111195 289.927604 
L 281.111195 286.095208 
L 296.608762 286.095208 
L 296.608762 282.262812 
L 355.772509 282.262812 
L 355.772509 278.430416 
L 387.028084 278.430416 
L 387.028084 274.59802 
L 387.028084 274.59802 
L 387.028084 274.59802 
L 460.8 274.59802 
" clip-path="url(#pd096d88904)" style="fill: none; stroke: #f5deb3; stroke-width: 1.5; stroke-linecap: square"/>
   </g>
   <g id="line2d_18">
    <path d="M 191.939718 293.76 
L 191.939718 289.927604 
L 207.390026 289.927604 
L 207.390026 286.095208 
L 213.822483 286.095208 
L 213.822483 282.262812 
L 215.175186 282.262812 
L 215.175186 278.430416 
L 215.474955 278.430416 
L 215.474955 274.59802 
L 225.428321 274.59802 
L 225.428321 270.765624 
L 231.548358 270.765624 
L 231.548358 266.933228 
L 232.730356 266.933228 
L 232.730356 263.100832 
L 235.104325 263.100832 
L 235.104325 259.268436 
L 238.429095 259.268436 
L 238.429095 255.43604 
L 245.494185 255.43604 
L 245.494185 251.603644 
L 246.223573 251.603644 
L 246.223573 247.771248 
L 247.612917 247.771248 
L 247.612917 243.938851 
L 248.099829 243.938851 
L 248.099829 240.106455 
L 257.649989 240.106455 
L 257.649989 236.274059 
L 259.093259 236.274059 
L 259.093259 232.441663 
L 259.436561 232.441663 
L 259.436561 228.609267 
L 259.837682 228.609267 
L 259.837682 224.776871 
L 260.655355 224.776871 
L 260.655355 220.944475 
L 270.195832 220.944475 
L 270.195832 217.112079 
L 270.793209 217.112079 
L 270.793209 213.279683 
L 275.510693 213.279683 
L 275.510693 209.447287 
L 277.967847 209.447287 
L 277.967847 205.614891 
L 283.417207 205.614891 
L 283.417207 201.782495 
L 291.820066 201.782495 
L 291.820066 197.950099 
L 294.936142 197.950099 
L 294.936142 194.117703 
L 297.617057 194.117703 
L 297.617057 190.285307 
L 301.377855 190.285307 
L 301.377855 186.452911 
L 314.697057 186.452911 
L 314.697057 182.620515 
L 319.915196 182.620515 
L 319.915196 178.788119 
L 319.915196 178.788119 
L 319.915196 178.788119 
L 460.8 178.788119 
" clip-path="url(#pd096d88904)" style="fill: none; stroke: #f5deb3; stroke-width: 1.5; stroke-linecap: square"/>
   </g>
   <g id="line2d_19">
    <path d="M 311.541673 293.76 
L 311.541673 289.553712 
L 314.519484 289.553712 
L 314.519484 285.347423 
L 317.369511 285.347423 
L 317.369511 281.141135 
L 320.90305 281.141135 
L 320.90305 276.934847 
L 321.76772 276.934847 
L 321.76772 272.728558 
L 322.038004 272.728558 
L 322.038004 268.52227 
L 324.698137 268.52227 
L 324.698137 264.315982 
L 324.821954 264.315982 
L 324.821954 260.109693 
L 325.425867 260.109693 
L 325.425867 255.903405 
L 326.767368 255.903405 
L 326.767368 251.697117 
L 328.455631 251.697117 
L 328.455631 247.490828 
L 329.031454 247.490828 
L 329.031454 243.28454 
L 329.172921 243.28454 
L 329.172921 239.078252 
L 329.52302 239.078252 
L 329.52302 234.871963 
L 331.255458 234.871963 
L 331.255458 230.665675 
L 336.939593 230.665675 
L 336.939593 226.459387 
L 338.18574 226.459387 
L 338.18574 222.253098 
L 342.817874 222.253098 
L 342.817874 218.04681 
L 346.142831 218.04681 
L 346.142831 213.840522 
L 347.182389 213.840522 
L 347.182389 209.634233 
L 347.805725 209.634233 
L 347.805725 205.427945 
L 348.112986 205.427945 
L 348.115038 197.015368 
L 350.340183 197.015368 
L 350.40243 188.602792 
L 351.581574 188.602792 
L 351.581574 184.396503 
L 354.087035 184.396503 
L 354.087035 180.190215 
L 356.650922 180.190215 
L 356.650922 175.983927 
L 357.717282 175.983927 
L 357.717282 171.777638 
L 357.855395 171.777638 
L 357.855395 167.57135 
L 365.73022 167.57135 
L 365.73022 163.365062 
L 367.114104 163.365062 
L 367.14047 154.952485 
L 368.216851 154.952485 
L 368.216851 150.746197 
L 369.455871 150.746197 
L 369.455871 146.539908 
L 370.690717 146.539908 
L 370.690717 142.33362 
L 370.981826 142.33362 
L 370.981826 138.127332 
L 373.187453 138.127332 
L 373.187453 133.921043 
L 373.540208 133.921043 
L 373.540208 129.714755 
L 374.509026 129.714755 
L 374.509026 125.508467 
L 374.686385 125.508467 
L 374.686385 121.302178 
L 383.524523 121.302178 
L 383.524523 117.09589 
L 384.679669 117.09589 
L 384.679669 112.889602 
L 389.367947 112.889602 
L 389.367947 108.683313 
L 417.041104 108.683313 
L 417.041104 104.477025 
L 417.041104 104.477025 
L 460.8 104.477025 
L 460.8 104.477025 
" clip-path="url(#pd096d88904)" style="fill: none; stroke: #f5deb3; stroke-width: 1.5; stroke-linecap: square"/>
   </g>
   <g id="line2d_20">
    <path d="M 188.033313 293.76 
L 188.033313 289.927604 
L 188.033313 289.927604 
L 188.033313 286.095208 
L 191.445093 286.095208 
L 191.445093 282.262812 
L 193.262518 282.262812 
L 193.262518 278.430416 
L 204.009978 278.430416 
L 204.009978 274.59802 
L 218.926345 274.59802 
L 218.926345 270.765624 
L 222.675738 270.765624 
L 222.675738 266.933228 
L 228.411449 266.933228 
L 228.411449 263.100832 
L 235.462167 263.100832 
L 235.462167 259.268436 
L 243.50768 259.268436 
L 243.50768 255.43604 
L 244.601738 255.43604 
L 244.601738 251.603644 
L 246.293302 251.603644 
L 246.293302 247.771248 
L 247.612917 247.771248 
L 247.612917 243.938851 
L 250.410606 243.938851 
L 250.410606 240.106455 
L 250.492371 240.106455 
L 250.492371 236.274059 
L 256.002279 236.274059 
L 256.002279 232.441663 
L 258.603303 232.441663 
L 258.603303 228.609267 
L 259.187245 228.609267 
L 259.187245 224.776871 
L 259.776291 224.776871 
L 259.776291 220.944475 
L 260.610462 220.944475 
L 260.610462 217.112079 
L 263.228035 217.112079 
L 263.228035 213.279683 
L 266.286589 213.279683 
L 266.286589 209.447287 
L 271.43364 209.447287 
L 271.43364 205.614891 
L 271.444387 205.614891 
L 271.444387 201.782495 
L 272.770989 201.782495 
L 272.770989 197.950099 
L 281.799142 197.950099 
L 281.799142 194.117703 
L 282.740064 194.117703 
L 282.740064 190.285307 
L 283.992913 190.285307 
L 283.992913 186.452911 
L 300.089948 186.452911 
L 300.089948 182.620515 
L 301.493624 182.620515 
L 301.493624 178.788119 
L 383.003932 178.788119 
L 383.003932 174.955723 
L 383.003932 174.955723 
L 383.003932 174.955723 
L 460.8 174.955723 
" clip-path="url(#pd096d88904)" style="fill: none; stroke: #f5deb3; stroke-width: 1.5; stroke-linecap: square"/>
   </g>
   <g id="line2d_21">
    <path d="M 330.392784 293.76 
L 330.392784 289.927604 
L 347.497637 289.927604 
L 347.497637 286.095208 
L 353.235949 286.095208 
L 353.235949 282.262812 
L 353.235949 282.262812 
L 353.235949 282.262812 
L 460.8 282.262812 
" clip-path="url(#pd096d88904)" style="fill: none; stroke: #f5deb3; stroke-width: 1.5; stroke-linecap: square"/>
   </g>
   <g id="line2d_22">
    <path d="M 175.952131 293.76 
L 175.952131 289.927604 
L 180.955702 289.927604 
L 180.955702 286.095208 
L 187.475271 286.095208 
L 187.475271 282.262812 
L 188.308797 282.262812 
L 188.308797 278.430416 
L 193.262518 278.430416 
L 193.262518 274.59802 
L 195.975051 274.59802 
L 195.975051 270.765624 
L 237.010195 270.765624 
L 237.010195 266.933228 
L 257.518556 266.933228 
L 257.518556 263.100832 
L 259.187245 263.100832 
L 259.187245 259.268436 
L 262.274429 259.268436 
L 262.274429 255.43604 
L 264.221674 255.43604 
L 264.221674 251.603644 
L 270.36287 251.603644 
L 270.36287 247.771248 
L 273.160719 247.771248 
L 273.160719 243.938851 
L 279.472475 243.938851 
L 279.472475 240.106455 
L 283.057812 240.106455 
L 283.057812 236.274059 
L 286.896105 236.274059 
L 286.896105 232.441663 
L 303.052306 232.441663 
L 303.052306 228.609267 
L 303.526277 228.609267 
L 303.526277 224.776871 
L 306.241482 224.776871 
L 306.241482 220.944475 
L 307.308193 220.944475 
L 307.308193 217.112079 
L 309.906277 217.112079 
L 309.906277 213.279683 
L 317.508698 213.279683 
L 317.508698 209.447287 
L 325.761358 209.447287 
L 325.761358 205.614891 
L 331.062253 205.614891 
L 331.062253 201.782495 
L 331.752165 201.782495 
L 331.752165 197.950099 
L 332.359697 197.950099 
L 332.359697 194.117703 
L 343.662585 194.117703 
L 343.662585 190.285307 
L 352.225744 190.285307 
L 352.225744 186.452911 
L 357.623858 186.452911 
L 357.623858 182.620515 
L 365.89075 182.620515 
L 365.89075 178.788119 
L 368.486264 178.788119 
L 368.486264 174.955723 
L 372.120484 174.955723 
L 372.120484 171.123327 
L 377.049995 171.123327 
L 377.049995 167.290931 
L 379.88548 167.290931 
L 379.88548 163.458535 
L 382.063272 163.458535 
L 382.063272 159.626139 
L 392.165502 159.626139 
L 392.165502 155.793743 
L 393.118771 155.793743 
L 393.118771 151.961347 
L 396.27495 151.961347 
L 396.27495 148.12895 
L 405.479046 148.12895 
L 405.479046 144.296554 
L 418.734483 144.296554 
L 418.734483 140.464158 
L 420.705892 140.464158 
L 420.705892 136.631762 
L 422.310894 136.631762 
L 422.310894 132.799366 
L 427.843782 132.799366 
L 427.843782 128.96697 
L 427.957092 128.96697 
L 427.957092 125.134574 
L 427.957092 125.134574 
L 427.957092 125.134574 
L 460.8 125.134574 
" clip-path="url(#pd096d88904)" style="fill: none; stroke: #f5deb3; stroke-width: 1.5; stroke-linecap: square"/>
   </g>
   <g id="line2d_23">
    <path d="M 273.292987 293.76 
L 273.292987 289.927604 
L 278.413544 289.927604 
L 278.413544 286.095208 
L 280.757668 286.095208 
L 280.757668 282.262812 
L 281.389701 282.262812 
L 281.389701 278.430416 
L 282.587661 278.430416 
L 282.587661 274.59802 
L 284.980145 274.59802 
L 284.980145 270.765624 
L 297.273044 270.765624 
L 297.273044 266.933228 
L 300.427777 266.933228 
L 300.427777 263.100832 
L 300.608585 263.100832 
L 300.608585 259.268436 
L 301.944195 259.268436 
L 301.944195 255.43604 
L 307.98525 255.43604 
L 307.98525 251.603644 
L 310.281205 251.603644 
L 310.281205 247.771248 
L 315.425787 247.771248 
L 315.425787 243.938851 
L 320.587411 243.938851 
L 320.587411 240.106455 
L 322.713022 240.106455 
L 322.713022 236.274059 
L 326.741704 236.274059 
L 326.741704 232.441663 
L 337.58916 232.441663 
L 337.58916 228.609267 
L 337.618895 228.609267 
L 337.618895 224.776871 
L 339.85727 224.776871 
L 339.85727 220.944475 
L 343.813954 220.944475 
L 343.813954 217.112079 
L 357.417689 217.112079 
L 357.417689 213.279683 
L 357.417689 213.279683 
L 357.417689 213.279683 
L 460.8 213.279683 
" clip-path="url(#pd096d88904)" style="fill: none; stroke: #f5deb3; stroke-width: 1.5; stroke-linecap: square"/>
   </g>
   <g id="line2d_24">
    <path d="M 238.547052 293.76 
L 238.547052 289.927604 
L 239.646887 289.927604 
L 239.646887 286.095208 
L 244.845356 286.095208 
L 244.845356 282.262812 
L 245.731257 282.262812 
L 245.731257 278.430416 
L 250.695892 278.430416 
L 250.695892 274.59802 
L 251.438075 274.59802 
L 251.438075 270.765624 
L 258.888688 270.765624 
L 258.888688 266.933228 
L 278.404864 266.933228 
L 278.404864 263.100832 
L 299.937675 263.100832 
L 299.937675 259.268436 
L 300.687649 259.268436 
L 300.687649 255.43604 
L 301.800349 255.43604 
L 301.800349 251.603644 
L 302.905074 251.603644 
L 302.905074 247.771248 
L 304.379702 247.771248 
L 304.379702 243.938851 
L 305.073594 243.938851 
L 305.073594 240.106455 
L 305.260999 240.106455 
L 305.260999 236.274059 
L 307.415471 236.274059 
L 307.415471 232.441663 
L 314.605527 232.441663 
L 314.605527 228.609267 
L 315.195934 228.609267 
L 315.195934 224.776871 
L 316.097585 224.776871 
L 316.097585 220.944475 
L 323.910763 220.944475 
L 323.910763 217.112079 
L 328.393731 217.112079 
L 328.393731 213.279683 
L 329.304648 213.279683 
L 329.304648 209.447287 
L 330.352141 209.447287 
L 330.352141 205.614891 
L 330.496813 205.614891 
L 330.496813 201.782495 
L 332.586701 201.782495 
L 332.586701 197.950099 
L 337.888111 197.950099 
L 337.888111 194.117703 
L 339.285349 194.117703 
L 339.285349 190.285307 
L 339.808336 190.285307 
L 339.808336 186.452911 
L 344.622177 186.452911 
L 344.622177 182.620515 
L 347.649963 182.620515 
L 347.649963 178.788119 
L 349.086589 178.788119 
L 349.086589 174.955723 
L 352.656273 174.955723 
L 352.656273 171.123327 
L 353.958591 171.123327 
L 353.958591 167.290931 
L 357.620791 167.290931 
L 357.620791 163.458535 
L 362.644328 163.458535 
L 362.644328 159.626139 
L 363.828531 159.626139 
L 363.828531 155.793743 
L 368.163589 155.793743 
L 368.163589 151.961347 
L 381.104041 151.961347 
L 381.104041 148.12895 
L 383.111948 148.12895 
L 383.111948 144.296554 
L 385.108059 144.296554 
L 385.108059 140.464158 
L 393.703969 140.464158 
L 393.703969 136.631762 
L 396.836428 136.631762 
L 396.836428 132.799366 
L 412.110853 132.799366 
L 412.110853 128.96697 
L 414.524961 128.96697 
L 414.524961 125.134574 
L 415.559512 125.134574 
L 415.559512 121.302178 
L 415.816299 121.302178 
L 415.816299 117.469782 
L 416.241622 117.469782 
L 416.241622 113.637386 
L 417.917404 113.637386 
L 417.917404 109.80499 
L 418.336322 109.80499 
L 418.336322 105.972594 
L 420.405921 105.972594 
L 420.405921 102.140198 
L 433.125249 102.140198 
L 433.125249 98.307802 
L 433.593099 98.307802 
L 433.593099 94.475406 
L 437.016419 94.475406 
L 437.016419 90.64301 
L 446.635992 90.64301 
L 446.635992 86.810614 
L 448.066185 86.810614 
L 448.066185 82.978218 
L 461.8 82.978218 
" clip-path="url(#pd096d88904)" style="fill: none; stroke: #f5deb3; stroke-width: 1.5; stroke-linecap: square"/>
   </g>
   <g id="line2d_25">
    <path d="M 346.521069 293.76 
L 346.521069 289.927604 
L 348.745145 289.927604 
L 348.745145 286.095208 
L 352.020625 286.095208 
L 352.020625 282.262812 
L 352.875192 282.262812 
L 352.875192 278.430416 
L 352.901789 278.430416 
L 352.901789 274.59802 
L 353.5971 274.59802 
L 353.5971 270.765624 
L 353.728701 270.765624 
L 353.728701 266.933228 
L 354.231147 266.933228 
L 354.231147 263.100832 
L 355.155573 263.100832 
L 355.155573 259.268436 
L 356.128482 259.268436 
L 356.128482 255.43604 
L 356.502051 255.43604 
L 356.502051 251.603644 
L 356.552807 251.603644 
L 356.552807 247.771248 
L 356.599528 247.771248 
L 356.599528 243.938851 
L 356.654082 243.938851 
L 356.654082 240.106455 
L 356.97247 240.106455 
L 356.97247 236.274059 
L 357.409971 236.274059 
L 357.409971 232.441663 
L 357.622324 232.441663 
L 357.622324 228.609267 
L 358.132901 228.609267 
L 358.132901 224.776871 
L 359.029493 224.776871 
L 359.029493 220.944475 
L 359.359104 220.944475 
L 359.359104 217.112079 
L 360.36793 217.112079 
L 360.36793 213.279683 
L 360.450315 213.279683 
L 360.450315 209.447287 
L 361.991473 209.447287 
L 361.991473 205.614891 
L 362.156082 205.614891 
L 362.156082 201.782495 
L 371.385267 201.782495 
L 371.385267 197.950099 
L 372.302464 197.950099 
L 372.302464 194.117703 
L 373.125506 194.117703 
L 373.125506 190.285307 
L 373.400036 190.285307 
L 373.400036 186.452911 
L 373.816424 186.452911 
L 373.816424 182.620515 
L 374.264437 182.620515 
L 374.264437 178.788119 
L 374.284238 178.788119 
L 374.284238 174.955723 
L 374.52548 174.955723 
L 374.52548 171.123327 
L 375.107886 171.123327 
L 375.107886 167.290931 
L 375.115067 167.290931 
L 375.115067 163.458535 
L 375.193954 163.458535 
L 375.193954 159.626139 
L 376.402868 159.626139 
L 376.402868 155.793743 
L 376.671391 155.793743 
L 376.671391 151.961347 
L 376.671391 151.961347 
L 376.671391 151.961347 
L 460.8 151.961347 
" clip-path="url(#pd096d88904)" style="fill: none; stroke: #f5deb3; stroke-width: 1.5; stroke-linecap: square"/>
   </g>
   <g id="line2d_26">
    <path d="M 251.398386 293.76 
L 251.398386 289.927604 
L 252.587722 289.927604 
L 252.587722 286.095208 
L 252.873662 286.095208 
L 252.873662 282.262812 
L 253.251061 282.262812 
L 253.251061 278.430416 
L 253.400808 278.430416 
L 253.400808 274.59802 
L 254.248768 274.59802 
L 254.248768 270.765624 
L 254.861662 270.765624 
L 254.861662 266.933228 
L 255.075259 266.933228 
L 255.075259 263.100832 
L 257.699141 263.100832 
L 257.699141 259.268436 
L 265.445251 259.268436 
L 265.445251 255.43604 
L 266.198377 255.43604 
L 266.198377 251.603644 
L 267.119057 251.603644 
L 267.119057 247.771248 
L 267.460761 247.771248 
L 267.460761 243.938851 
L 269.892994 243.938851 
L 269.892994 240.106455 
L 276.344298 240.106455 
L 276.344298 236.274059 
L 276.949016 236.274059 
L 276.949016 232.441663 
L 276.967167 232.441663 
L 276.967167 228.609267 
L 277.426641 228.609267 
L 277.426641 224.776871 
L 278.844674 224.776871 
L 278.844674 220.944475 
L 279.058122 220.944475 
L 279.058122 217.112079 
L 279.815182 217.112079 
L 279.815182 213.279683 
L 288.970713 213.279683 
L 288.970713 209.447287 
L 291.186508 209.447287 
L 291.186508 205.614891 
L 291.268574 205.614891 
L 291.268574 201.782495 
L 292.043798 201.782495 
L 292.043798 197.950099 
L 293.338433 197.950099 
L 293.338433 194.117703 
L 297.751734 194.117703 
L 297.751734 190.285307 
L 297.919303 190.285307 
L 297.919303 186.452911 
L 300.630567 186.452911 
L 300.630567 182.620515 
L 301.467933 182.620515 
L 301.467933 178.788119 
L 309.64391 178.788119 
L 309.64391 174.955723 
L 310.629235 174.955723 
L 310.629235 171.123327 
L 313.884405 171.123327 
L 313.884405 167.290931 
L 316.138605 167.290931 
L 316.138605 163.458535 
L 331.69961 163.458535 
L 331.69961 159.626139 
L 333.522609 159.626139 
L 333.522609 155.793743 
L 355.239828 155.793743 
L 355.239828 151.961347 
L 355.534654 151.961347 
L 355.534654 148.12895 
L 368.508799 148.12895 
L 368.508799 144.296554 
L 372.237342 144.296554 
L 372.237342 140.464158 
L 374.756787 140.464158 
L 374.756787 136.631762 
L 375.160361 136.631762 
L 375.160361 132.799366 
L 377.710249 132.799366 
L 377.710249 128.96697 
L 378.066403 128.96697 
L 378.066403 125.134574 
L 378.401675 125.134574 
L 378.401675 121.302178 
L 380.371577 121.302178 
L 380.371577 117.469782 
L 381.785329 117.469782 
L 381.785329 113.637386 
L 381.847096 113.637386 
L 381.847096 109.80499 
L 381.90255 109.80499 
L 381.90255 105.972594 
L 386.793578 105.972594 
L 386.793578 102.140198 
L 386.793578 102.140198 
L 386.793578 102.140198 
L 460.8 102.140198 
" clip-path="url(#pd096d88904)" style="fill: none; stroke: #f5deb3; stroke-width: 1.5; stroke-linecap: square"/>
   </g>
   <g id="line2d_27">
    <path d="M 206.380718 293.76 
L 206.380718 289.927604 
L 214.072635 289.927604 
L 214.072635 286.095208 
L 243.457068 286.095208 
L 243.457068 282.262812 
L 254.285141 282.262812 
L 254.285141 278.430416 
L 274.626012 278.430416 
L 274.626012 274.59802 
L 287.552134 274.59802 
L 287.552134 270.765624 
L 291.900556 270.765624 
L 291.900556 266.933228 
L 292.71714 266.933228 
L 292.71714 263.100832 
L 293.056989 263.100832 
L 293.056989 259.268436 
L 300.139061 259.268436 
L 300.139061 255.43604 
L 302.363636 255.43604 
L 302.363636 251.603644 
L 302.37197 251.603644 
L 302.37197 247.771248 
L 304.842644 247.771248 
L 304.842644 243.938851 
L 307.465414 243.938851 
L 307.465414 240.106455 
L 309.563784 240.106455 
L 309.563784 236.274059 
L 311.861015 236.274059 
L 311.861015 232.441663 
L 311.957455 232.441663 
L 311.957455 228.609267 
L 313.254642 228.609267 
L 313.254642 224.776871 
L 316.179573 224.776871 
L 316.179573 220.944475 
L 319.846962 220.944475 
L 319.846962 217.112079 
L 324.148975 217.112079 
L 324.148975 213.279683 
L 327.028786 213.279683 
L 327.028786 209.447287 
L 327.361848 209.447287 
L 327.361848 205.614891 
L 337.504052 205.614891 
L 337.504052 201.782495 
L 337.874071 201.782495 
L 337.874071 197.950099 
L 338.842579 197.950099 
L 338.842579 194.117703 
L 341.15657 194.117703 
L 341.15657 190.285307 
L 343.195869 190.285307 
L 343.195869 186.452911 
L 344.094878 186.452911 
L 344.094878 182.620515 
L 348.199076 182.620515 
L 348.199076 178.788119 
L 404.331738 178.788119 
L 404.331738 174.955723 
L 404.331738 174.955723 
L 404.331738 174.955723 
L 460.8 174.955723 
" clip-path="url(#pd096d88904)" style="fill: none; stroke: #f5deb3; stroke-width: 1.5; stroke-linecap: square"/>
   </g>
   <g id="line2d_28">
    <path d="M 219.721948 293.76 
L 219.721948 289.927604 
L 220.241778 289.927604 
L 220.241778 286.095208 
L 227.058747 286.095208 
L 227.058747 282.262812 
L 234.84159 282.262812 
L 234.84159 278.430416 
L 250.614636 278.430416 
L 250.614636 274.59802 
L 270.296157 274.59802 
L 270.296157 270.765624 
L 282.017501 270.765624 
L 282.017501 266.933228 
L 301.041087 266.933228 
L 301.041087 263.100832 
L 302.954225 263.100832 
L 302.954225 259.268436 
L 304.629495 259.268436 
L 304.629495 255.43604 
L 304.656701 255.43604 
L 304.656701 251.603644 
L 306.159963 251.603644 
L 306.159963 247.771248 
L 306.470128 247.771248 
L 306.470128 243.938851 
L 308.545254 243.938851 
L 308.545254 240.106455 
L 312.727983 240.106455 
L 312.727983 236.274059 
L 313.866831 236.274059 
L 313.866831 232.441663 
L 328.080563 232.441663 
L 328.080563 228.609267 
L 329.06274 228.609267 
L 329.06274 224.776871 
L 329.553838 224.776871 
L 329.553838 220.944475 
L 329.831697 220.944475 
L 329.831697 217.112079 
L 330.387486 217.112079 
L 330.387486 213.279683 
L 331.260617 213.279683 
L 331.260617 209.447287 
L 332.141147 209.447287 
L 332.141147 205.614891 
L 332.555313 205.614891 
L 332.555313 201.782495 
L 333.091357 201.782495 
L 333.091357 197.950099 
L 336.941039 197.950099 
L 336.941039 194.117703 
L 337.01321 194.117703 
L 337.01321 190.285307 
L 340.611028 190.285307 
L 340.611028 186.452911 
L 341.510239 186.452911 
L 341.510239 182.620515 
L 341.625613 182.620515 
L 341.625613 178.788119 
L 344.550148 178.788119 
L 344.550148 174.955723 
L 344.783948 174.955723 
L 344.783948 171.123327 
L 355.0711 171.123327 
L 355.0711 167.290931 
L 358.429023 167.290931 
L 358.429023 163.458535 
L 361.273905 163.458535 
L 361.273905 159.626139 
L 362.840999 159.626139 
L 362.840999 155.793743 
L 363.464423 155.793743 
L 363.464423 151.961347 
L 365.622359 151.961347 
L 365.622359 148.12895 
L 372.618871 148.12895 
L 372.618871 144.296554 
L 377.757051 144.296554 
L 377.757051 140.464158 
L 380.280528 140.464158 
L 380.280528 136.631762 
L 381.428159 136.631762 
L 381.428159 132.799366 
L 383.563347 132.799366 
L 383.563347 128.96697 
L 400.546844 128.96697 
L 400.546844 125.134574 
L 410.587606 125.134574 
L 410.587606 121.302178 
L 420.789844 121.302178 
L 420.789844 117.469782 
L 424.775104 117.469782 
L 424.775104 113.637386 
L 438.379672 113.637386 
L 438.379672 109.80499 
L 439.168257 109.80499 
L 439.168257 105.972594 
L 448.251052 105.972594 
L 448.251052 102.140198 
L 448.855054 102.140198 
L 448.855054 98.307802 
L 449.460465 98.307802 
L 449.460465 94.475406 
L 449.54563 94.475406 
L 449.54563 90.64301 
L 451.740758 90.64301 
L 451.740758 86.810614 
L 461.8 86.810614 
" clip-path="url(#pd096d88904)" style="fill: none; stroke: #f5deb3; stroke-width: 1.5; stroke-linecap: square"/>
   </g>
   <g id="line2d_29">
    <path d="M 216.416127 293.76 
L 216.416127 289.927604 
L 216.416127 289.927604 
L 216.416127 286.095208 
L 216.416127 286.095208 
L 216.416127 282.262812 
L 239.303557 282.262812 
L 239.303557 278.430416 
L 239.303557 278.430416 
L 239.303557 274.59802 
L 239.303557 274.59802 
L 239.303557 270.765624 
L 244.10898 270.765624 
L 244.10898 266.933228 
L 244.10898 266.933228 
L 244.10898 263.100832 
L 244.10898 263.100832 
L 244.10898 259.268436 
L 272.740021 259.268436 
L 272.740021 255.43604 
L 272.740021 255.43604 
L 272.740021 251.603644 
L 272.740021 251.603644 
L 272.740021 247.771248 
L 303.802605 247.771248 
L 303.802605 243.938851 
L 303.802605 243.938851 
L 303.802605 240.106455 
L 303.802605 240.106455 
L 303.802605 236.274059 
L 316.220489 236.274059 
L 316.220489 232.441663 
L 316.220489 232.441663 
L 316.220489 228.609267 
L 316.220489 228.609267 
L 316.220489 224.776871 
L 322.71749 224.776871 
L 322.71749 220.944475 
L 322.71749 220.944475 
L 322.71749 217.112079 
L 322.71749 217.112079 
L 322.71749 213.279683 
L 324.792616 213.279683 
L 324.792616 209.447287 
L 325.479285 209.447287 
L 325.479285 205.614891 
L 334.376205 205.614891 
L 334.376205 201.782495 
L 335.267424 201.782495 
L 335.267424 197.950099 
L 335.479678 197.950099 
L 335.479678 194.117703 
L 342.260353 194.117703 
L 342.260353 190.285307 
L 344.689489 190.285307 
L 344.689489 186.452911 
L 347.797437 186.452911 
L 347.797437 182.620515 
L 359.997097 182.620515 
L 359.997097 178.788119 
L 359.997097 178.788119 
L 359.997097 178.788119 
L 460.8 178.788119 
" clip-path="url(#pd096d88904)" style="fill: none; stroke: #f5deb3; stroke-width: 1.5; stroke-linecap: square"/>
   </g>
   <g id="line2d_30">
    <path d="M 296.598818 293.76 
L 296.598818 289.927604 
L 298.637211 289.927604 
L 298.637211 286.095208 
L 333.037658 286.095208 
L 333.037658 282.262812 
L 342.574369 282.262812 
L 342.574369 278.430416 
L 355.972364 278.430416 
L 355.972364 274.59802 
L 360.644539 274.59802 
L 360.644539 270.765624 
L 361.659067 270.765624 
L 361.659067 266.933228 
L 361.922977 266.933228 
L 361.922977 263.100832 
L 362.192105 263.100832 
L 362.192105 259.268436 
L 362.473577 259.268436 
L 362.473577 255.43604 
L 362.473577 255.43604 
L 362.473577 255.43604 
L 460.8 255.43604 
" clip-path="url(#pd096d88904)" style="fill: none; stroke: #f5deb3; stroke-width: 1.5; stroke-linecap: square"/>
   </g>
   <g id="matplotlib.axis_1">
    <g id="xtick_1">
     <g id="line2d_31">
      <path d="M 62.208 293.76 
L 62.208 3.456 
" clip-path="url(#pd096d88904)" style="fill: none; stroke: #b0b0b0; stroke-width: 0.8; stroke-linecap: square"/>
     </g>
     <g id="line2d_32">
      <defs>
       <path id="m2757b79ce8" d="M 0 0 
L 0 3.5 
" style="stroke: #000000; stroke-width: 0.8"/>
      </defs>
      <g>
       <use xlink:href="#m2757b79ce8" x="62.208" y="293.76" style="stroke: #000000; stroke-width: 0.8"/>
      </g>
     </g>
     <g id="text_1">
      <!-- 0 -->
      <g transform="translate(55.8455 315.956875)scale(0.2 -0.2)">
       <defs>
        <path id="DejaVuSans-30" d="M 2034 4250 
Q 1547 4250 1301 3770 
Q 1056 3291 1056 2328 
Q 1056 1369 1301 889 
Q 1547 409 2034 409 
Q 2525 409 2770 889 
Q 3016 1369 3016 2328 
Q 3016 3291 2770 3770 
Q 2525 4250 2034 4250 
z
M 2034 4750 
Q 2819 4750 3233 4129 
Q 3647 3509 3647 2328 
Q 3647 1150 3233 529 
Q 2819 -91 2034 -91 
Q 1250 -91 836 529 
Q 422 1150 422 2328 
Q 422 3509 836 4129 
Q 1250 4750 2034 4750 
z
" transform="scale(0.015625)"/>
       </defs>
       <use xlink:href="#DejaVuSans-30"/>
      </g>
     </g>
    </g>
    <g id="xtick_2">
     <g id="line2d_33">
      <path d="M 212.542137 293.76 
L 212.542137 3.456 
" clip-path="url(#pd096d88904)" style="fill: none; stroke: #b0b0b0; stroke-width: 0.8; stroke-linecap: square"/>
     </g>
     <g id="line2d_34">
      <g>
       <use xlink:href="#m2757b79ce8" x="212.542137" y="293.76" style="stroke: #000000; stroke-width: 0.8"/>
      </g>
     </g>
     <g id="text_2">
      <!-- 2 -->
      <g transform="translate(206.179637 315.956875)scale(0.2 -0.2)">
       <defs>
        <path id="DejaVuSans-32" d="M 1228 531 
L 3431 531 
L 3431 0 
L 469 0 
L 469 531 
Q 828 903 1448 1529 
Q 2069 2156 2228 2338 
Q 2531 2678 2651 2914 
Q 2772 3150 2772 3378 
Q 2772 3750 2511 3984 
Q 2250 4219 1831 4219 
Q 1534 4219 1204 4116 
Q 875 4013 500 3803 
L 500 4441 
Q 881 4594 1212 4672 
Q 1544 4750 1819 4750 
Q 2544 4750 2975 4387 
Q 3406 4025 3406 3419 
Q 3406 3131 3298 2873 
Q 3191 2616 2906 2266 
Q 2828 2175 2409 1742 
Q 1991 1309 1228 531 
z
" transform="scale(0.015625)"/>
       </defs>
       <use xlink:href="#DejaVuSans-32"/>
      </g>
     </g>
    </g>
    <g id="xtick_3">
     <g id="line2d_35">
      <path d="M 362.876274 293.76 
L 362.876274 3.456 
" clip-path="url(#pd096d88904)" style="fill: none; stroke: #b0b0b0; stroke-width: 0.8; stroke-linecap: square"/>
     </g>
     <g id="line2d_36">
      <g>
       <use xlink:href="#m2757b79ce8" x="362.876274" y="293.76" style="stroke: #000000; stroke-width: 0.8"/>
      </g>
     </g>
     <g id="text_3">
      <!-- 4 -->
      <g transform="translate(356.513774 315.956875)scale(0.2 -0.2)">
       <defs>
        <path id="DejaVuSans-34" d="M 2419 4116 
L 825 1625 
L 2419 1625 
L 2419 4116 
z
M 2253 4666 
L 3047 4666 
L 3047 1625 
L 3713 1625 
L 3713 1100 
L 3047 1100 
L 3047 0 
L 2419 0 
L 2419 1100 
L 313 1100 
L 313 1709 
L 2253 4666 
z
" transform="scale(0.015625)"/>
       </defs>
       <use xlink:href="#DejaVuSans-34"/>
      </g>
     </g>
    </g>
    <g id="text_4">
     <!-- log10 of FEvals / DIM -->
     <g transform="translate(156.430563 339.313125)scale(0.2 -0.2)">
      <defs>
       <path id="DejaVuSans-6c" d="M 603 4863 
L 1178 4863 
L 1178 0 
L 603 0 
L 603 4863 
z
" transform="scale(0.015625)"/>
       <path id="DejaVuSans-6f" d="M 1959 3097 
Q 1497 3097 1228 2736 
Q 959 2375 959 1747 
Q 959 1119 1226 758 
Q 1494 397 1959 397 
Q 2419 397 2687 759 
Q 2956 1122 2956 1747 
Q 2956 2369 2687 2733 
Q 2419 3097 1959 3097 
z
M 1959 3584 
Q 2709 3584 3137 3096 
Q 3566 2609 3566 1747 
Q 3566 888 3137 398 
Q 2709 -91 1959 -91 
Q 1206 -91 779 398 
Q 353 888 353 1747 
Q 353 2609 779 3096 
Q 1206 3584 1959 3584 
z
" transform="scale(0.015625)"/>
       <path id="DejaVuSans-67" d="M 2906 1791 
Q 2906 2416 2648 2759 
Q 2391 3103 1925 3103 
Q 1463 3103 1205 2759 
Q 947 2416 947 1791 
Q 947 1169 1205 825 
Q 1463 481 1925 481 
Q 2391 481 2648 825 
Q 2906 1169 2906 1791 
z
M 3481 434 
Q 3481 -459 3084 -895 
Q 2688 -1331 1869 -1331 
Q 1566 -1331 1297 -1286 
Q 1028 -1241 775 -1147 
L 775 -588 
Q 1028 -725 1275 -790 
Q 1522 -856 1778 -856 
Q 2344 -856 2625 -561 
Q 2906 -266 2906 331 
L 2906 616 
Q 2728 306 2450 153 
Q 2172 0 1784 0 
Q 1141 0 747 490 
Q 353 981 353 1791 
Q 353 2603 747 3093 
Q 1141 3584 1784 3584 
Q 2172 3584 2450 3431 
Q 2728 3278 2906 2969 
L 2906 3500 
L 3481 3500 
L 3481 434 
z
" transform="scale(0.015625)"/>
       <path id="DejaVuSans-31" d="M 794 531 
L 1825 531 
L 1825 4091 
L 703 3866 
L 703 4441 
L 1819 4666 
L 2450 4666 
L 2450 531 
L 3481 531 
L 3481 0 
L 794 0 
L 794 531 
z
" transform="scale(0.015625)"/>
       <path id="DejaVuSans-20" transform="scale(0.015625)"/>
       <path id="DejaVuSans-66" d="M 2375 4863 
L 2375 4384 
L 1825 4384 
Q 1516 4384 1395 4259 
Q 1275 4134 1275 3809 
L 1275 3500 
L 2222 3500 
L 2222 3053 
L 1275 3053 
L 1275 0 
L 697 0 
L 697 3053 
L 147 3053 
L 147 3500 
L 697 3500 
L 697 3744 
Q 697 4328 969 4595 
Q 1241 4863 1831 4863 
L 2375 4863 
z
" transform="scale(0.015625)"/>
       <path id="DejaVuSans-46" d="M 628 4666 
L 3309 4666 
L 3309 4134 
L 1259 4134 
L 1259 2759 
L 3109 2759 
L 3109 2228 
L 1259 2228 
L 1259 0 
L 628 0 
L 628 4666 
z
" transform="scale(0.015625)"/>
       <path id="DejaVuSans-45" d="M 628 4666 
L 3578 4666 
L 3578 4134 
L 1259 4134 
L 1259 2753 
L 3481 2753 
L 3481 2222 
L 1259 2222 
L 1259 531 
L 3634 531 
L 3634 0 
L 628 0 
L 628 4666 
z
" transform="scale(0.015625)"/>
       <path id="DejaVuSans-76" d="M 191 3500 
L 800 3500 
L 1894 563 
L 2988 3500 
L 3597 3500 
L 2284 0 
L 1503 0 
L 191 3500 
z
" transform="scale(0.015625)"/>
       <path id="DejaVuSans-61" d="M 2194 1759 
Q 1497 1759 1228 1600 
Q 959 1441 959 1056 
Q 959 750 1161 570 
Q 1363 391 1709 391 
Q 2188 391 2477 730 
Q 2766 1069 2766 1631 
L 2766 1759 
L 2194 1759 
z
M 3341 1997 
L 3341 0 
L 2766 0 
L 2766 531 
Q 2569 213 2275 61 
Q 1981 -91 1556 -91 
Q 1019 -91 701 211 
Q 384 513 384 1019 
Q 384 1609 779 1909 
Q 1175 2209 1959 2209 
L 2766 2209 
L 2766 2266 
Q 2766 2663 2505 2880 
Q 2244 3097 1772 3097 
Q 1472 3097 1187 3025 
Q 903 2953 641 2809 
L 641 3341 
Q 956 3463 1253 3523 
Q 1550 3584 1831 3584 
Q 2591 3584 2966 3190 
Q 3341 2797 3341 1997 
z
" transform="scale(0.015625)"/>
       <path id="DejaVuSans-73" d="M 2834 3397 
L 2834 2853 
Q 2591 2978 2328 3040 
Q 2066 3103 1784 3103 
Q 1356 3103 1142 2972 
Q 928 2841 928 2578 
Q 928 2378 1081 2264 
Q 1234 2150 1697 2047 
L 1894 2003 
Q 2506 1872 2764 1633 
Q 3022 1394 3022 966 
Q 3022 478 2636 193 
Q 2250 -91 1575 -91 
Q 1294 -91 989 -36 
Q 684 19 347 128 
L 347 722 
Q 666 556 975 473 
Q 1284 391 1588 391 
Q 1994 391 2212 530 
Q 2431 669 2431 922 
Q 2431 1156 2273 1281 
Q 2116 1406 1581 1522 
L 1381 1569 
Q 847 1681 609 1914 
Q 372 2147 372 2553 
Q 372 3047 722 3315 
Q 1072 3584 1716 3584 
Q 2034 3584 2315 3537 
Q 2597 3491 2834 3397 
z
" transform="scale(0.015625)"/>
       <path id="DejaVuSans-2f" d="M 1625 4666 
L 2156 4666 
L 531 -594 
L 0 -594 
L 1625 4666 
z
" transform="scale(0.015625)"/>
       <path id="DejaVuSans-44" d="M 1259 4147 
L 1259 519 
L 2022 519 
Q 2988 519 3436 956 
Q 3884 1394 3884 2338 
Q 3884 3275 3436 3711 
Q 2988 4147 2022 4147 
L 1259 4147 
z
M 628 4666 
L 1925 4666 
Q 3281 4666 3915 4102 
Q 4550 3538 4550 2338 
Q 4550 1131 3912 565 
Q 3275 0 1925 0 
L 628 0 
L 628 4666 
z
" transform="scale(0.015625)"/>
       <path id="DejaVuSans-49" d="M 628 4666 
L 1259 4666 
L 1259 0 
L 628 0 
L 628 4666 
z
" transform="scale(0.015625)"/>
       <path id="DejaVuSans-4d" d="M 628 4666 
L 1569 4666 
L 2759 1491 
L 3956 4666 
L 4897 4666 
L 4897 0 
L 4281 0 
L 4281 4097 
L 3078 897 
L 2444 897 
L 1241 4097 
L 1241 0 
L 628 0 
L 628 4666 
z
" transform="scale(0.015625)"/>
      </defs>
      <use xlink:href="#DejaVuSans-6c"/>
      <use xlink:href="#DejaVuSans-6f" x="27.783203"/>
      <use xlink:href="#DejaVuSans-67" x="88.964844"/>
      <use xlink:href="#DejaVuSans-31" x="152.441406"/>
      <use xlink:href="#DejaVuSans-30" x="216.064453"/>
      <use xlink:href="#DejaVuSans-20" x="279.6875"/>
      <use xlink:href="#DejaVuSans-6f" x="311.474609"/>
      <use xlink:href="#DejaVuSans-66" x="372.65625"/>
      <use xlink:href="#DejaVuSans-20" x="407.861328"/>
      <use xlink:href="#DejaVuSans-46" x="439.648438"/>
      <use xlink:href="#DejaVuSans-45" x="497.167969"/>
      <use xlink:href="#DejaVuSans-76" x="560.351562"/>
      <use xlink:href="#DejaVuSans-61" x="619.53125"/>
      <use xlink:href="#DejaVuSans-6c" x="680.810547"/>
      <use xlink:href="#DejaVuSans-73" x="708.59375"/>
      <use xlink:href="#DejaVuSans-20" x="760.693359"/>
      <use xlink:href="#DejaVuSans-2f" x="792.480469"/>
      <use xlink:href="#DejaVuSans-20" x="826.171875"/>
      <use xlink:href="#DejaVuSans-44" x="857.958984"/>
      <use xlink:href="#DejaVuSans-49" x="934.960938"/>
      <use xlink:href="#DejaVuSans-4d" x="964.453125"/>
     </g>
    </g>
   </g>
   <g id="matplotlib.axis_2">
    <g id="ytick_1">
     <g id="line2d_37">
      <path d="M 62.208 293.76 
L 460.8 293.76 
" clip-path="url(#pd096d88904)" style="fill: none; stroke: #b0b0b0; stroke-width: 0.8; stroke-linecap: square"/>
     </g>
     <g id="line2d_38">
      <defs>
       <path id="mf7d757f885" d="M 0 0 
L -3.5 0 
" style="stroke: #000000; stroke-width: 0.8"/>
      </defs>
      <g>
       <use xlink:href="#mf7d757f885" x="62.208" y="293.76" style="stroke: #000000; stroke-width: 0.8"/>
      </g>
     </g>
     <g id="text_5">
      <!-- 0.0 -->
      <g transform="translate(29.763 299.83875)scale(0.16 -0.16)">
       <defs>
        <path id="DejaVuSans-2e" d="M 684 794 
L 1344 794 
L 1344 0 
L 684 0 
L 684 794 
z
" transform="scale(0.015625)"/>
       </defs>
       <use xlink:href="#DejaVuSans-30"/>
       <use xlink:href="#DejaVuSans-2e" x="63.623047"/>
       <use xlink:href="#DejaVuSans-30" x="95.410156"/>
      </g>
     </g>
    </g>
    <g id="ytick_2">
     <g id="line2d_39">
      <path d="M 62.208 236.274059 
L 460.8 236.274059 
" clip-path="url(#pd096d88904)" style="fill: none; stroke: #b0b0b0; stroke-width: 0.8; stroke-linecap: square"/>
     </g>
     <g id="line2d_40">
      <g>
       <use xlink:href="#mf7d757f885" x="62.208" y="236.274059" style="stroke: #000000; stroke-width: 0.8"/>
      </g>
     </g>
     <g id="text_6">
      <!-- 0.2 -->
      <g transform="translate(29.763 242.352809)scale(0.16 -0.16)">
       <use xlink:href="#DejaVuSans-30"/>
       <use xlink:href="#DejaVuSans-2e" x="63.623047"/>
       <use xlink:href="#DejaVuSans-32" x="95.410156"/>
      </g>
     </g>
    </g>
    <g id="ytick_3">
     <g id="line2d_41">
      <path d="M 62.208 178.788119 
L 460.8 178.788119 
" clip-path="url(#pd096d88904)" style="fill: none; stroke: #b0b0b0; stroke-width: 0.8; stroke-linecap: square"/>
     </g>
     <g id="line2d_42">
      <g>
       <use xlink:href="#mf7d757f885" x="62.208" y="178.788119" style="stroke: #000000; stroke-width: 0.8"/>
      </g>
     </g>
     <g id="text_7">
      <!-- 0.4 -->
      <g transform="translate(29.763 184.866869)scale(0.16 -0.16)">
       <use xlink:href="#DejaVuSans-30"/>
       <use xlink:href="#DejaVuSans-2e" x="63.623047"/>
       <use xlink:href="#DejaVuSans-34" x="95.410156"/>
      </g>
     </g>
    </g>
    <g id="ytick_4">
     <g id="line2d_43">
      <path d="M 62.208 121.302178 
L 460.8 121.302178 
" clip-path="url(#pd096d88904)" style="fill: none; stroke: #b0b0b0; stroke-width: 0.8; stroke-linecap: square"/>
     </g>
     <g id="line2d_44">
      <g>
       <use xlink:href="#mf7d757f885" x="62.208" y="121.302178" style="stroke: #000000; stroke-width: 0.8"/>
      </g>
     </g>
     <g id="text_8">
      <!-- 0.6 -->
      <g transform="translate(29.763 127.380928)scale(0.16 -0.16)">
       <defs>
        <path id="DejaVuSans-36" d="M 2113 2584 
Q 1688 2584 1439 2293 
Q 1191 2003 1191 1497 
Q 1191 994 1439 701 
Q 1688 409 2113 409 
Q 2538 409 2786 701 
Q 3034 994 3034 1497 
Q 3034 2003 2786 2293 
Q 2538 2584 2113 2584 
z
M 3366 4563 
L 3366 3988 
Q 3128 4100 2886 4159 
Q 2644 4219 2406 4219 
Q 1781 4219 1451 3797 
Q 1122 3375 1075 2522 
Q 1259 2794 1537 2939 
Q 1816 3084 2150 3084 
Q 2853 3084 3261 2657 
Q 3669 2231 3669 1497 
Q 3669 778 3244 343 
Q 2819 -91 2113 -91 
Q 1303 -91 875 529 
Q 447 1150 447 2328 
Q 447 3434 972 4092 
Q 1497 4750 2381 4750 
Q 2619 4750 2861 4703 
Q 3103 4656 3366 4563 
z
" transform="scale(0.015625)"/>
       </defs>
       <use xlink:href="#DejaVuSans-30"/>
       <use xlink:href="#DejaVuSans-2e" x="63.623047"/>
       <use xlink:href="#DejaVuSans-36" x="95.410156"/>
      </g>
     </g>
    </g>
    <g id="ytick_5">
     <g id="line2d_45">
      <path d="M 62.208 63.816238 
L 460.8 63.816238 
" clip-path="url(#pd096d88904)" style="fill: none; stroke: #b0b0b0; stroke-width: 0.8; stroke-linecap: square"/>
     </g>
     <g id="line2d_46">
      <g>
       <use xlink:href="#mf7d757f885" x="62.208" y="63.816238" style="stroke: #000000; stroke-width: 0.8"/>
      </g>
     </g>
     <g id="text_9">
      <!-- 0.8 -->
      <g transform="translate(29.763 69.894988)scale(0.16 -0.16)">
       <defs>
        <path id="DejaVuSans-38" d="M 2034 2216 
Q 1584 2216 1326 1975 
Q 1069 1734 1069 1313 
Q 1069 891 1326 650 
Q 1584 409 2034 409 
Q 2484 409 2743 651 
Q 3003 894 3003 1313 
Q 3003 1734 2745 1975 
Q 2488 2216 2034 2216 
z
M 1403 2484 
Q 997 2584 770 2862 
Q 544 3141 544 3541 
Q 544 4100 942 4425 
Q 1341 4750 2034 4750 
Q 2731 4750 3128 4425 
Q 3525 4100 3525 3541 
Q 3525 3141 3298 2862 
Q 3072 2584 2669 2484 
Q 3125 2378 3379 2068 
Q 3634 1759 3634 1313 
Q 3634 634 3220 271 
Q 2806 -91 2034 -91 
Q 1263 -91 848 271 
Q 434 634 434 1313 
Q 434 1759 690 2068 
Q 947 2378 1403 2484 
z
M 1172 3481 
Q 1172 3119 1398 2916 
Q 1625 2713 2034 2713 
Q 2441 2713 2670 2916 
Q 2900 3119 2900 3481 
Q 2900 3844 2670 4047 
Q 2441 4250 2034 4250 
Q 1625 4250 1398 4047 
Q 1172 3844 1172 3481 
z
" transform="scale(0.015625)"/>
       </defs>
       <use xlink:href="#DejaVuSans-30"/>
       <use xlink:href="#DejaVuSans-2e" x="63.623047"/>
       <use xlink:href="#DejaVuSans-38" x="95.410156"/>
      </g>
     </g>
    </g>
    <g id="ytick_6">
     <g id="line2d_47">
      <path d="M 62.208 6.330297 
L 460.8 6.330297 
" clip-path="url(#pd096d88904)" style="fill: none; stroke: #b0b0b0; stroke-width: 0.8; stroke-linecap: square"/>
     </g>
     <g id="line2d_48">
      <g>
       <use xlink:href="#mf7d757f885" x="62.208" y="6.330297" style="stroke: #000000; stroke-width: 0.8"/>
      </g>
     </g>
     <g id="text_10">
      <!-- 1.0 -->
      <g transform="translate(29.763 12.409047)scale(0.16 -0.16)">
       <use xlink:href="#DejaVuSans-31"/>
       <use xlink:href="#DejaVuSans-2e" x="63.623047"/>
       <use xlink:href="#DejaVuSans-30" x="95.410156"/>
      </g>
     </g>
    </g>
    <g id="text_11">
     <!-- proportion of trials -->
     <g transform="translate(21.603625 241.61425)rotate(-90)scale(0.2 -0.2)">
      <defs>
       <path id="DejaVuSans-70" d="M 1159 525 
L 1159 -1331 
L 581 -1331 
L 581 3500 
L 1159 3500 
L 1159 2969 
Q 1341 3281 1617 3432 
Q 1894 3584 2278 3584 
Q 2916 3584 3314 3078 
Q 3713 2572 3713 1747 
Q 3713 922 3314 415 
Q 2916 -91 2278 -91 
Q 1894 -91 1617 61 
Q 1341 213 1159 525 
z
M 3116 1747 
Q 3116 2381 2855 2742 
Q 2594 3103 2138 3103 
Q 1681 3103 1420 2742 
Q 1159 2381 1159 1747 
Q 1159 1113 1420 752 
Q 1681 391 2138 391 
Q 2594 391 2855 752 
Q 3116 1113 3116 1747 
z
" transform="scale(0.015625)"/>
       <path id="DejaVuSans-72" d="M 2631 2963 
Q 2534 3019 2420 3045 
Q 2306 3072 2169 3072 
Q 1681 3072 1420 2755 
Q 1159 2438 1159 1844 
L 1159 0 
L 581 0 
L 581 3500 
L 1159 3500 
L 1159 2956 
Q 1341 3275 1631 3429 
Q 1922 3584 2338 3584 
Q 2397 3584 2469 3576 
Q 2541 3569 2628 3553 
L 2631 2963 
z
" transform="scale(0.015625)"/>
       <path id="DejaVuSans-74" d="M 1172 4494 
L 1172 3500 
L 2356 3500 
L 2356 3053 
L 1172 3053 
L 1172 1153 
Q 1172 725 1289 603 
Q 1406 481 1766 481 
L 2356 481 
L 2356 0 
L 1766 0 
Q 1100 0 847 248 
Q 594 497 594 1153 
L 594 3053 
L 172 3053 
L 172 3500 
L 594 3500 
L 594 4494 
L 1172 4494 
z
" transform="scale(0.015625)"/>
       <path id="DejaVuSans-69" d="M 603 3500 
L 1178 3500 
L 1178 0 
L 603 0 
L 603 3500 
z
M 603 4863 
L 1178 4863 
L 1178 4134 
L 603 4134 
L 603 4863 
z
" transform="scale(0.015625)"/>
       <path id="DejaVuSans-6e" d="M 3513 2113 
L 3513 0 
L 2938 0 
L 2938 2094 
Q 2938 2591 2744 2837 
Q 2550 3084 2163 3084 
Q 1697 3084 1428 2787 
Q 1159 2491 1159 1978 
L 1159 0 
L 581 0 
L 581 3500 
L 1159 3500 
L 1159 2956 
Q 1366 3272 1645 3428 
Q 1925 3584 2291 3584 
Q 2894 3584 3203 3211 
Q 3513 2838 3513 2113 
z
" transform="scale(0.015625)"/>
      </defs>
      <use xlink:href="#DejaVuSans-70"/>
      <use xlink:href="#DejaVuSans-72" x="63.476562"/>
      <use xlink:href="#DejaVuSans-6f" x="102.339844"/>
      <use xlink:href="#DejaVuSans-70" x="163.521484"/>
      <use xlink:href="#DejaVuSans-6f" x="226.998047"/>
      <use xlink:href="#DejaVuSans-72" x="288.179688"/>
      <use xlink:href="#DejaVuSans-74" x="329.292969"/>
      <use xlink:href="#DejaVuSans-69" x="368.501953"/>
      <use xlink:href="#DejaVuSans-6f" x="396.285156"/>
      <use xlink:href="#DejaVuSans-6e" x="457.466797"/>
      <use xlink:href="#DejaVuSans-20" x="520.845703"/>
      <use xlink:href="#DejaVuSans-6f" x="552.632812"/>
      <use xlink:href="#DejaVuSans-66" x="613.814453"/>
      <use xlink:href="#DejaVuSans-20" x="649.019531"/>
      <use xlink:href="#DejaVuSans-74" x="680.806641"/>
      <use xlink:href="#DejaVuSans-72" x="720.015625"/>
      <use xlink:href="#DejaVuSans-69" x="761.128906"/>
      <use xlink:href="#DejaVuSans-61" x="788.912109"/>
      <use xlink:href="#DejaVuSans-6c" x="850.191406"/>
      <use xlink:href="#DejaVuSans-73" x="877.974609"/>
     </g>
    </g>
   </g>
   <g id="line2d_49">
    <path d="M 9.668474 293.76 
L 9.668474 289.927604 
L 32.296016 289.927604 
L 32.296016 286.095208 
L 45.53228 286.095208 
L 45.53228 266.933228 
L 54.923558 266.933228 
L 54.923558 251.603644 
L 77.551101 251.603644 
L 77.551101 243.938851 
L 81.396086 243.938851 
L 81.396086 236.274059 
L 84.835542 236.274059 
L 84.835542 232.441663 
L 87.946909 232.441663 
L 87.946909 228.609267 
L 90.787364 228.609267 
L 90.787364 220.944475 
L 100.178643 220.944475 
L 100.178643 213.279683 
L 107.463085 213.279683 
L 107.463085 209.447287 
L 109.055822 209.447287 
L 109.055822 201.782495 
L 110.574451 201.782495 
L 110.574451 190.285307 
L 112.025563 190.285307 
L 112.025563 186.452911 
L 113.414907 186.452911 
L 113.414907 182.620515 
L 118.447101 182.620515 
L 118.447101 174.955723 
L 121.76976 174.955723 
L 121.76976 171.123327 
L 122.806185 171.123327 
L 122.806185 163.458535 
L 123.810715 163.458535 
L 123.810715 159.626139 
L 128.416176 159.626139 
L 128.416176 155.793743 
L 129.264136 155.793743 
L 129.264136 151.961347 
L 130.090627 151.961347 
L 130.090627 144.296554 
L 133.935612 144.296554 
L 133.935612 136.631762 
L 135.355168 136.631762 
L 135.355168 128.96697 
L 136.042449 128.96697 
L 136.042449 121.302178 
L 137.375069 121.302178 
L 137.375069 117.469782 
L 141.074643 117.469782 
L 141.074643 113.637386 
L 141.652439 113.637386 
L 141.652439 109.80499 
L 143.326891 109.80499 
L 143.326891 105.972594 
L 151.043718 105.972594 
L 151.043718 102.140198 
L 152.718169 102.140198 
L 152.718169 98.307802 
L 154.697238 98.307802 
L 154.697238 94.475406 
L 159.008281 94.475406 
L 159.008281 90.64301 
L 163.702185 90.64301 
L 163.702185 86.810614 
L 167.54717 86.810614 
L 167.54717 82.978218 
L 167.805232 82.978218 
L 167.805232 79.145822 
L 170.040339 79.145822 
L 170.040339 75.313426 
L 170.279495 75.313426 
L 170.279495 71.48103 
L 174.519221 71.48103 
L 174.519221 67.648634 
L 211.004848 67.648634 
L 211.004848 63.816238 
L 218.384962 63.816238 
L 218.384962 59.983842 
L 219.774305 59.983842 
L 219.774305 56.151446 
L 235.038839 56.151446 
L 235.038839 52.31905 
L 238.488127 52.31905 
L 238.488127 48.486653 
L 248.773835 48.486653 
L 248.773835 44.654257 
L 252.606863 44.654257 
L 252.606863 40.821861 
L 276.81256 40.821861 
L 276.81256 36.989465 
L 278.827538 36.989465 
L 278.827538 33.157069 
L 281.079214 33.157069 
L 281.079214 29.324673 
L 283.662015 29.324673 
L 283.662015 25.492277 
L 285.945289 25.492277 
L 285.945289 21.659881 
L 291.426264 21.659881 
L 291.536776 13.995089 
L 292.689126 13.995089 
L 292.689126 10.162693 
L 294.573098 10.162693 
L 294.573098 6.330297 
L 294.573098 6.330297 
L 460.8 6.330297 
L 460.8 6.330297 
" clip-path="url(#pd096d88904)" style="fill: none; stroke: #000000; stroke-width: 1.5; stroke-linecap: square"/>
   </g>
   <g id="line2d_50">
    <path clip-path="url(#pd096d88904)" style="fill: none; stroke: #000000; stroke-width: 1.5; stroke-linecap: square"/>
   </g>
   <g id="line2d_51">
    <path d="M 167.024845 293.76 
L 167.024845 289.927604 
L 168.567399 289.927604 
L 168.567399 286.095208 
L 175.952131 286.095208 
L 175.952131 282.262812 
L 178.825948 282.262812 
L 178.825948 278.430416 
L 182.136774 278.430416 
L 182.136774 274.59802 
L 182.302064 274.59802 
L 182.302064 270.765624 
L 189.652387 270.765624 
L 189.652387 266.933228 
L 191.939718 266.933228 
L 191.939718 263.100832 
L 243.406378 263.100832 
L 243.406378 259.268436 
L 247.095986 259.268436 
L 247.095986 255.43604 
L 252.778627 255.43604 
L 252.778627 251.603644 
L 258.218867 251.603644 
L 258.218867 247.771248 
L 274.616263 247.771248 
L 274.616263 243.938851 
L 274.742774 243.938851 
L 274.742774 240.106455 
L 277.676178 240.106455 
L 277.676178 236.274059 
L 280.293924 236.274059 
L 280.293924 232.441663 
L 284.102471 232.441663 
L 284.102471 228.609267 
L 315.797952 228.609267 
L 315.797952 224.776871 
L 322.405464 224.776871 
L 322.405464 220.944475 
L 322.668303 220.944475 
L 322.668303 217.112079 
L 332.30478 217.112079 
L 332.30478 213.279683 
L 334.006784 213.279683 
L 334.006784 209.447287 
L 339.188373 209.447287 
L 339.188373 205.614891 
L 348.571557 205.614891 
L 348.571557 201.782495 
L 350.304698 201.782495 
L 350.304698 197.950099 
L 354.067373 197.950099 
L 354.067373 194.117703 
L 355.222499 194.117703 
L 355.222499 190.285307 
L 355.407688 190.285307 
L 355.407688 186.452911 
L 359.143882 186.452911 
L 359.143882 182.620515 
L 368.445003 182.620515 
L 368.445003 178.788119 
L 368.733835 178.788119 
L 368.733835 174.955723 
L 369.810988 174.955723 
L 369.810988 171.123327 
L 370.829689 171.123327 
L 370.829689 167.290931 
L 372.067318 167.290931 
L 372.067318 163.458535 
L 372.438651 163.458535 
L 372.438651 159.626139 
L 372.744097 159.626139 
L 372.744097 155.793743 
L 373.47704 155.793743 
L 373.47704 151.961347 
L 373.656325 151.961347 
L 373.656325 148.12895 
L 374.104674 148.12895 
L 374.104674 144.296554 
L 374.236328 144.296554 
L 374.236328 140.464158 
L 374.345864 140.464158 
L 374.345864 136.631762 
L 374.660001 136.631762 
L 374.660001 132.799366 
L 376.573261 132.799366 
L 376.573261 128.96697 
L 376.792682 128.96697 
L 376.792682 125.134574 
L 378.614423 125.134574 
L 378.614423 121.302178 
L 379.307684 121.302178 
L 379.307684 117.469782 
L 383.566465 117.469782 
L 383.566465 113.637386 
L 388.603904 113.637386 
L 388.603904 109.80499 
L 391.074472 109.80499 
L 391.074472 105.972594 
L 400.869353 105.972594 
L 400.869353 102.140198 
L 411.551386 102.140198 
L 411.551386 98.307802 
L 418.918331 98.307802 
L 418.918331 94.475406 
L 418.918331 94.475406 
L 418.918331 94.475406 
L 460.8 94.475406 
" clip-path="url(#pd096d88904)" style="fill: none; stroke: #00bfbf; stroke-width: 1.5; stroke-linecap: square"/>
   </g>
   <g id="line2d_52">
    <path clip-path="url(#pd096d88904)" style="fill: none; stroke: #00bfbf; stroke-width: 1.5; stroke-linecap: square"/>
   </g>
   <g id="line2d_53">
    <path d="M 188.852887 293.76 
L 188.852887 289.927604 
L 192.062212 289.927604 
L 192.062212 286.095208 
L 195.095681 286.095208 
L 195.095681 282.262812 
L 195.648057 282.262812 
L 195.648057 278.430416 
L 197.768585 278.430416 
L 197.768585 274.59802 
L 197.87108 274.59802 
L 197.87108 270.765624 
L 198.176648 270.765624 
L 198.176648 266.933228 
L 207.313485 266.933228 
L 207.313485 263.100832 
L 246.982518 263.100832 
L 246.982518 259.268436 
L 250.59429 259.268436 
L 250.59429 255.43604 
L 257.287267 255.43604 
L 257.287267 251.603644 
L 271.044365 251.603644 
L 271.044365 247.771248 
L 275.972275 247.771248 
L 275.972275 243.938851 
L 282.73246 243.938851 
L 282.73246 240.106455 
L 282.793237 240.106455 
L 282.793237 236.274059 
L 318.359682 236.274059 
L 318.359682 232.441663 
L 325.028665 232.441663 
L 325.028665 228.609267 
L 334.363698 228.609267 
L 334.363698 224.776871 
L 336.743921 224.776871 
L 336.743921 220.944475 
L 341.328831 220.944475 
L 341.328831 217.112079 
L 348.796439 217.112079 
L 348.796439 213.279683 
L 351.372355 213.279683 
L 351.372355 209.447287 
L 351.921234 209.447287 
L 351.921234 205.614891 
L 355.997361 205.614891 
L 355.997361 201.782495 
L 359.483213 201.782495 
L 359.483213 197.950099 
L 360.456644 197.950099 
L 360.456644 194.117703 
L 372.208412 194.117703 
L 372.208412 190.285307 
L 372.881822 190.285307 
L 372.881822 186.452911 
L 374.018466 186.452911 
L 374.018466 182.620515 
L 374.06994 182.620515 
L 374.06994 178.788119 
L 374.243242 178.788119 
L 374.243242 174.955723 
L 374.629953 174.955723 
L 374.629953 171.123327 
L 375.933591 171.123327 
L 375.933591 167.290931 
L 376.736363 167.290931 
L 376.736363 163.458535 
L 377.160196 163.458535 
L 377.160196 159.626139 
L 377.212001 159.626139 
L 377.212001 155.793743 
L 377.29984 155.793743 
L 377.29984 151.961347 
L 377.38828 151.961347 
L 377.38828 148.12895 
L 378.015937 148.12895 
L 378.015937 144.296554 
L 378.371227 144.296554 
L 378.371227 140.464158 
L 378.905007 140.464158 
L 378.905007 136.631762 
L 380.351705 136.631762 
L 380.351705 132.799366 
L 380.553295 132.799366 
L 380.553295 128.96697 
L 381.281738 128.96697 
L 381.281738 125.134574 
L 385.092856 125.134574 
L 385.092856 121.302178 
L 395.374293 121.302178 
L 395.374293 117.469782 
L 403.28344 117.469782 
L 403.28344 113.637386 
L 417.531369 113.637386 
L 417.531369 109.80499 
L 419.865104 109.80499 
L 419.865104 105.972594 
L 419.865104 105.972594 
L 419.865104 105.972594 
L 460.8 105.972594 
" clip-path="url(#pd096d88904)" style="fill: none; stroke: #bf00bf; stroke-width: 1.5; stroke-linecap: square"/>
   </g>
   <g id="line2d_54">
    <path clip-path="url(#pd096d88904)" style="fill: none; stroke: #bf00bf; stroke-width: 1.5; stroke-linecap: square"/>
   </g>
   <g id="line2d_55">
    <path d="M 208.070936 293.76 
L 208.070936 289.927604 
L 209.102681 289.927604 
L 209.102681 286.095208 
L 210.867686 286.095208 
L 210.867686 282.262812 
L 211.412912 282.262812 
L 211.412912 278.430416 
L 211.615046 278.430416 
L 211.615046 274.59802 
L 213.947799 274.59802 
L 213.947799 270.765624 
L 214.750829 270.765624 
L 214.750829 266.933228 
L 218.764871 266.933228 
L 218.764871 263.100832 
L 250.776946 263.100832 
L 250.776946 259.268436 
L 255.199215 259.268436 
L 255.199215 255.43604 
L 259.868334 255.43604 
L 259.868334 251.603644 
L 278.003024 251.603644 
L 278.003024 247.771248 
L 279.430434 247.771248 
L 279.430434 243.938851 
L 285.536142 243.938851 
L 285.536142 240.106455 
L 286.498775 240.106455 
L 286.498775 236.274059 
L 320.924299 236.274059 
L 320.924299 232.441663 
L 328.152518 232.441663 
L 328.152518 228.609267 
L 336.627411 228.609267 
L 336.627411 224.776871 
L 338.834399 224.776871 
L 338.834399 220.944475 
L 343.160058 220.944475 
L 343.160058 217.112079 
L 350.457874 217.112079 
L 350.457874 213.279683 
L 353.921676 213.279683 
L 353.921676 209.447287 
L 354.243057 209.447287 
L 354.243057 205.614891 
L 357.718811 205.614891 
L 357.718811 201.782495 
L 361.468758 201.782495 
L 361.468758 197.950099 
L 362.097961 197.950099 
L 362.097961 194.117703 
L 374.480211 194.117703 
L 374.480211 190.285307 
L 374.528222 190.285307 
L 374.528222 186.452911 
L 375.466793 186.452911 
L 375.466793 182.620515 
L 376.254126 182.620515 
L 376.254126 178.788119 
L 376.533754 178.788119 
L 376.533754 174.955723 
L 376.957663 174.955723 
L 376.957663 171.123327 
L 377.988004 171.123327 
L 377.988004 167.290931 
L 378.426824 167.290931 
L 378.426824 163.458535 
L 378.966484 163.458535 
L 378.966484 159.626139 
L 378.986817 159.626139 
L 378.986817 155.793743 
L 379.151809 155.793743 
L 379.151809 151.961347 
L 379.193818 151.961347 
L 379.193818 148.12895 
L 379.743253 148.12895 
L 379.743253 144.296554 
L 380.126162 144.296554 
L 380.126162 140.464158 
L 380.799302 140.464158 
L 380.799302 136.631762 
L 381.603738 136.631762 
L 381.603738 132.799366 
L 381.878483 132.799366 
L 381.878483 128.96697 
L 382.770142 128.96697 
L 382.770142 125.134574 
L 386.68797 125.134574 
L 386.68797 121.302178 
L 396.601425 121.302178 
L 396.601425 117.469782 
L 404.696617 117.469782 
L 404.696617 113.637386 
L 420.007107 113.637386 
L 420.007107 109.80499 
L 421.084896 109.80499 
L 421.084896 105.972594 
L 421.084896 105.972594 
L 421.084896 105.972594 
L 460.8 105.972594 
" clip-path="url(#pd096d88904)" style="fill: none; stroke: #ff0000; stroke-width: 3; stroke-linecap: square"/>
   </g>
   <g id="line2d_56">
    <path clip-path="url(#pd096d88904)" style="fill: none; stroke: #ff0000; stroke-width: 3; stroke-linecap: square"/>
   </g>
   <g id="line2d_57">
    <path d="M 460.8 293.76 
L 460.8 3.456 
" clip-path="url(#pd096d88904)" style="fill: none; stroke: #000000; stroke-width: 1.5; stroke-linecap: square"/>
   </g>
   <g id="patch_3">
    <path d="M 62.208 293.76 
L 62.208 3.456 
" style="fill: none; stroke: #000000; stroke-width: 0.8; stroke-linejoin: miter; stroke-linecap: square"/>
   </g>
   <g id="patch_4">
    <path d="M 460.8 293.76 
L 460.8 3.456 
" style="fill: none; stroke: #000000; stroke-width: 0.8; stroke-linejoin: miter; stroke-linecap: square"/>
   </g>
   <g id="patch_5">
    <path d="M 62.208 293.76 
L 460.8 293.76 
" style="fill: none; stroke: #000000; stroke-width: 0.8; stroke-linejoin: miter; stroke-linecap: square"/>
   </g>
   <g id="patch_6">
    <path d="M 62.208 3.456 
L 460.8 3.456 
" style="fill: none; stroke: #000000; stroke-width: 0.8; stroke-linejoin: miter; stroke-linecap: square"/>
   </g>
   <g id="text_12">
    <!-- {f20-f24}, 5-D -->
    <g transform="translate(188.654 24.458955)scale(0.2 -0.2)">
     <defs>
      <path id="DejaVuSans-7b" d="M 3272 -594 
L 3272 -1044 
L 3078 -1044 
Q 2300 -1044 2036 -812 
Q 1772 -581 1772 109 
L 1772 856 
Q 1772 1328 1603 1509 
Q 1434 1691 991 1691 
L 800 1691 
L 800 2138 
L 991 2138 
Q 1438 2138 1605 2317 
Q 1772 2497 1772 2963 
L 1772 3713 
Q 1772 4403 2036 4633 
Q 2300 4863 3078 4863 
L 3272 4863 
L 3272 4416 
L 3059 4416 
Q 2619 4416 2484 4278 
Q 2350 4141 2350 3700 
L 2350 2925 
Q 2350 2434 2208 2212 
Q 2066 1991 1722 1913 
Q 2069 1828 2209 1606 
Q 2350 1384 2350 897 
L 2350 122 
Q 2350 -319 2484 -456 
Q 2619 -594 3059 -594 
L 3272 -594 
z
" transform="scale(0.015625)"/>
      <path id="DejaVuSans-2d" d="M 313 2009 
L 1997 2009 
L 1997 1497 
L 313 1497 
L 313 2009 
z
" transform="scale(0.015625)"/>
      <path id="DejaVuSans-7d" d="M 800 -594 
L 1019 -594 
Q 1456 -594 1589 -459 
Q 1722 -325 1722 122 
L 1722 897 
Q 1722 1384 1862 1606 
Q 2003 1828 2350 1913 
Q 2003 1991 1862 2212 
Q 1722 2434 1722 2925 
L 1722 3700 
Q 1722 4144 1589 4280 
Q 1456 4416 1019 4416 
L 800 4416 
L 800 4863 
L 997 4863 
Q 1775 4863 2036 4633 
Q 2297 4403 2297 3713 
L 2297 2963 
Q 2297 2497 2465 2317 
Q 2634 2138 3078 2138 
L 3272 2138 
L 3272 1691 
L 3078 1691 
Q 2634 1691 2465 1509 
Q 2297 1328 2297 856 
L 2297 109 
Q 2297 -581 2036 -812 
Q 1775 -1044 997 -1044 
L 800 -1044 
L 800 -594 
z
" transform="scale(0.015625)"/>
      <path id="DejaVuSans-2c" d="M 750 794 
L 1409 794 
L 1409 256 
L 897 -744 
L 494 -744 
L 750 256 
L 750 794 
z
" transform="scale(0.015625)"/>
      <path id="DejaVuSans-35" d="M 691 4666 
L 3169 4666 
L 3169 4134 
L 1269 4134 
L 1269 2991 
Q 1406 3038 1543 3061 
Q 1681 3084 1819 3084 
Q 2600 3084 3056 2656 
Q 3513 2228 3513 1497 
Q 3513 744 3044 326 
Q 2575 -91 1722 -91 
Q 1428 -91 1123 -41 
Q 819 9 494 109 
L 494 744 
Q 775 591 1075 516 
Q 1375 441 1709 441 
Q 2250 441 2565 725 
Q 2881 1009 2881 1497 
Q 2881 1984 2565 2268 
Q 2250 2553 1709 2553 
Q 1456 2553 1204 2497 
Q 953 2441 691 2322 
L 691 4666 
z
" transform="scale(0.015625)"/>
     </defs>
     <use xlink:href="#DejaVuSans-7b"/>
     <use xlink:href="#DejaVuSans-66" x="63.623047"/>
     <use xlink:href="#DejaVuSans-32" x="98.828125"/>
     <use xlink:href="#DejaVuSans-30" x="162.451172"/>
     <use xlink:href="#DejaVuSans-2d" x="226.074219"/>
     <use xlink:href="#DejaVuSans-66" x="262.158203"/>
     <use xlink:href="#DejaVuSans-32" x="297.363281"/>
     <use xlink:href="#DejaVuSans-34" x="360.986328"/>
     <use xlink:href="#DejaVuSans-7d" x="424.609375"/>
     <use xlink:href="#DejaVuSans-2c" x="488.232422"/>
     <use xlink:href="#DejaVuSans-20" x="520.019531"/>
     <use xlink:href="#DejaVuSans-35" x="551.806641"/>
     <use xlink:href="#DejaVuSans-2d" x="615.429688"/>
     <use xlink:href="#DejaVuSans-44" x="651.513672"/>
    </g>
   </g>
   <g id="text_13">
    <!-- absolute targets -->
    <g transform="translate(62.208 609.932673)scale(0.14 -0.14)">
     <defs>
      <path id="DejaVuSans-62" d="M 3116 1747 
Q 3116 2381 2855 2742 
Q 2594 3103 2138 3103 
Q 1681 3103 1420 2742 
Q 1159 2381 1159 1747 
Q 1159 1113 1420 752 
Q 1681 391 2138 391 
Q 2594 391 2855 752 
Q 3116 1113 3116 1747 
z
M 1159 2969 
Q 1341 3281 1617 3432 
Q 1894 3584 2278 3584 
Q 2916 3584 3314 3078 
Q 3713 2572 3713 1747 
Q 3713 922 3314 415 
Q 2916 -91 2278 -91 
Q 1894 -91 1617 61 
Q 1341 213 1159 525 
L 1159 0 
L 581 0 
L 581 4863 
L 1159 4863 
L 1159 2969 
z
" transform="scale(0.015625)"/>
      <path id="DejaVuSans-75" d="M 544 1381 
L 544 3500 
L 1119 3500 
L 1119 1403 
Q 1119 906 1312 657 
Q 1506 409 1894 409 
Q 2359 409 2629 706 
Q 2900 1003 2900 1516 
L 2900 3500 
L 3475 3500 
L 3475 0 
L 2900 0 
L 2900 538 
Q 2691 219 2414 64 
Q 2138 -91 1772 -91 
Q 1169 -91 856 284 
Q 544 659 544 1381 
z
M 1991 3584 
L 1991 3584 
z
" transform="scale(0.015625)"/>
      <path id="DejaVuSans-65" d="M 3597 1894 
L 3597 1613 
L 953 1613 
Q 991 1019 1311 708 
Q 1631 397 2203 397 
Q 2534 397 2845 478 
Q 3156 559 3463 722 
L 3463 178 
Q 3153 47 2828 -22 
Q 2503 -91 2169 -91 
Q 1331 -91 842 396 
Q 353 884 353 1716 
Q 353 2575 817 3079 
Q 1281 3584 2069 3584 
Q 2775 3584 3186 3129 
Q 3597 2675 3597 1894 
z
M 3022 2063 
Q 3016 2534 2758 2815 
Q 2500 3097 2075 3097 
Q 1594 3097 1305 2825 
Q 1016 2553 972 2059 
L 3022 2063 
z
" transform="scale(0.015625)"/>
     </defs>
     <use xlink:href="#DejaVuSans-61"/>
     <use xlink:href="#DejaVuSans-62" x="61.279297"/>
     <use xlink:href="#DejaVuSans-73" x="124.755859"/>
     <use xlink:href="#DejaVuSans-6f" x="176.855469"/>
     <use xlink:href="#DejaVuSans-6c" x="238.037109"/>
     <use xlink:href="#DejaVuSans-75" x="265.820312"/>
     <use xlink:href="#DejaVuSans-74" x="329.199219"/>
     <use xlink:href="#DejaVuSans-65" x="368.408203"/>
     <use xlink:href="#DejaVuSans-20" x="429.931641"/>
     <use xlink:href="#DejaVuSans-74" x="461.71875"/>
     <use xlink:href="#DejaVuSans-61" x="500.927734"/>
     <use xlink:href="#DejaVuSans-72" x="562.207031"/>
     <use xlink:href="#DejaVuSans-67" x="601.570312"/>
     <use xlink:href="#DejaVuSans-65" x="665.046875"/>
     <use xlink:href="#DejaVuSans-74" x="726.570312"/>
     <use xlink:href="#DejaVuSans-73" x="765.779297"/>
    </g>
   </g>
   <g id="text_14">
    <!-- v2.6.3 -->
    <g style="fill: #808080" transform="translate(245.82275 288.777272)scale(0.1 -0.1)">
     <defs>
      <path id="DejaVuSans-33" d="M 2597 2516 
Q 3050 2419 3304 2112 
Q 3559 1806 3559 1356 
Q 3559 666 3084 287 
Q 2609 -91 1734 -91 
Q 1441 -91 1130 -33 
Q 819 25 488 141 
L 488 750 
Q 750 597 1062 519 
Q 1375 441 1716 441 
Q 2309 441 2620 675 
Q 2931 909 2931 1356 
Q 2931 1769 2642 2001 
Q 2353 2234 1838 2234 
L 1294 2234 
L 1294 2753 
L 1863 2753 
Q 2328 2753 2575 2939 
Q 2822 3125 2822 3475 
Q 2822 3834 2567 4026 
Q 2313 4219 1838 4219 
Q 1578 4219 1281 4162 
Q 984 4106 628 3988 
L 628 4550 
Q 988 4650 1302 4700 
Q 1616 4750 1894 4750 
Q 2613 4750 3031 4423 
Q 3450 4097 3450 3541 
Q 3450 3153 3228 2886 
Q 3006 2619 2597 2516 
z
" transform="scale(0.015625)"/>
     </defs>
     <use xlink:href="#DejaVuSans-76"/>
     <use xlink:href="#DejaVuSans-32" x="59.179688"/>
     <use xlink:href="#DejaVuSans-2e" x="122.802734"/>
     <use xlink:href="#DejaVuSans-36" x="154.589844"/>
     <use xlink:href="#DejaVuSans-2e" x="218.212891"/>
     <use xlink:href="#DejaVuSans-33" x="250"/>
    </g>
   </g>
   <g id="legend_1">
    <g id="patch_7">
     <path d="M 196.893062 136.881 
L 326.114937 136.881 
Q 330.114937 136.881 330.114937 132.881 
L 330.114937 17.456 
Q 330.114937 13.456 326.114937 13.456 
L 196.893062 13.456 
Q 192.893062 13.456 192.893062 17.456 
L 192.893062 132.881 
Q 192.893062 136.881 196.893062 136.881 
z
" style="fill: #ffffff; opacity: 0.2; stroke: #cccccc; stroke-linejoin: miter"/>
    </g>
    <g id="line2d_58">
     <path d="M 200.893062 29.652875 
L 200.893062 29.652875 
L 220.893062 29.652875 
L 220.893062 29.652875 
L 240.893062 29.652875 
" style="fill: none; stroke: #000000; stroke-width: 1.5; stroke-linecap: square"/>
    </g>
    <g id="text_15">
     <!-- 1: 5/5 -->
     <g transform="translate(256.893062 36.652875)scale(0.2 -0.2)">
      <defs>
       <path id="DejaVuSans-3a" d="M 750 794 
L 1409 794 
L 1409 0 
L 750 0 
L 750 794 
z
M 750 3309 
L 1409 3309 
L 1409 2516 
L 750 2516 
L 750 3309 
z
" transform="scale(0.015625)"/>
      </defs>
      <use xlink:href="#DejaVuSans-31"/>
      <use xlink:href="#DejaVuSans-3a" x="63.623047"/>
      <use xlink:href="#DejaVuSans-20" x="97.314453"/>
      <use xlink:href="#DejaVuSans-35" x="129.101562"/>
      <use xlink:href="#DejaVuSans-2f" x="192.724609"/>
      <use xlink:href="#DejaVuSans-35" x="226.416016"/>
     </g>
    </g>
    <g id="line2d_59">
     <path d="M 200.893062 59.009125 
L 200.893062 59.009125 
L 220.893062 59.009125 
L 220.893062 59.009125 
L 240.893062 59.009125 
" style="fill: none; stroke: #00bfbf; stroke-width: 1.5; stroke-linecap: square"/>
    </g>
    <g id="text_16">
     <!-- -1: 4/5 -->
     <g transform="translate(256.893062 66.009125)scale(0.2 -0.2)">
      <use xlink:href="#DejaVuSans-2d"/>
      <use xlink:href="#DejaVuSans-31" x="36.083984"/>
      <use xlink:href="#DejaVuSans-3a" x="99.707031"/>
      <use xlink:href="#DejaVuSans-20" x="133.398438"/>
      <use xlink:href="#DejaVuSans-34" x="165.185547"/>
      <use xlink:href="#DejaVuSans-2f" x="228.808594"/>
      <use xlink:href="#DejaVuSans-35" x="262.5"/>
     </g>
    </g>
    <g id="line2d_60">
     <path d="M 200.893062 88.365375 
L 200.893062 88.365375 
L 220.893062 88.365375 
L 220.893062 88.365375 
L 240.893062 88.365375 
" style="fill: none; stroke: #bf00bf; stroke-width: 1.5; stroke-linecap: square"/>
    </g>
    <g id="text_17">
     <!-- -4: 4/5 -->
     <g transform="translate(256.893062 95.365375)scale(0.2 -0.2)">
      <use xlink:href="#DejaVuSans-2d"/>
      <use xlink:href="#DejaVuSans-34" x="36.083984"/>
      <use xlink:href="#DejaVuSans-3a" x="99.707031"/>
      <use xlink:href="#DejaVuSans-20" x="133.398438"/>
      <use xlink:href="#DejaVuSans-34" x="165.185547"/>
      <use xlink:href="#DejaVuSans-2f" x="228.808594"/>
      <use xlink:href="#DejaVuSans-35" x="262.5"/>
     </g>
    </g>
    <g id="line2d_61">
     <path d="M 200.893062 117.721625 
L 200.893062 117.721625 
L 220.893062 117.721625 
L 220.893062 117.721625 
L 240.893062 117.721625 
" style="fill: none; stroke: #ff0000; stroke-width: 3; stroke-linecap: square"/>
    </g>
    <g id="text_18">
     <!-- -8: 4/5 -->
     <g transform="translate(256.893062 124.721625)scale(0.2 -0.2)">
      <use xlink:href="#DejaVuSans-2d"/>
      <use xlink:href="#DejaVuSans-38" x="36.083984"/>
      <use xlink:href="#DejaVuSans-3a" x="99.707031"/>
      <use xlink:href="#DejaVuSans-20" x="133.398438"/>
      <use xlink:href="#DejaVuSans-34" x="165.185547"/>
      <use xlink:href="#DejaVuSans-2f" x="228.808594"/>
      <use xlink:href="#DejaVuSans-35" x="262.5"/>
     </g>
    </g>
   </g>
  </g>
 </g>
 <defs>
  <clipPath id="pd096d88904">
   <rect x="62.208" y="3.456" width="398.592" height="290.304"/>
  </clipPath>
 </defs>
</svg>
