<?xml version="1.0" encoding="utf-8" standalone="no"?>
<!DOCTYPE svg PUBLIC "-//W3C//DTD SVG 1.1//EN"
  "http://www.w3.org/Graphics/SVG/1.1/DTD/svg11.dtd">
<svg xmlns:xlink="http://www.w3.org/1999/xlink" width="460.8pt" height="345.6pt" viewBox="0 0 460.8 345.6" xmlns="http://www.w3.org/2000/svg" version="1.1">
 <metadata>
  <rdf:RDF xmlns:dc="http://purl.org/dc/elements/1.1/" xmlns:cc="http://creativecommons.org/ns#" xmlns:rdf="http://www.w3.org/1999/02/22-rdf-syntax-ns#">
   <cc:Work>
    <dc:type rdf:resource="http://purl.org/dc/dcmitype/StillImage"/>
    <dc:date>2023-04-07T14:50:08.399488</dc:date>
    <dc:format>image/svg+xml</dc:format>
    <dc:creator>
     <cc:Agent>
      <dc:title>Matplotlib v3.5.2, https://matplotlib.org/</dc:title>
     </cc:Agent>
    </dc:creator>
   </cc:Work>
  </rdf:RDF>
 </metadata>
 <defs>
  <style type="text/css">*{stroke-linejoin: round; stroke-linecap: butt}</style>
 </defs>
 <g id="figure_1">
  <g id="patch_1">
   <path d="M 0 345.6 
L 460.8 345.6 
L 460.8 0 
L 0 0 
z
" style="fill: #ffffff"/>
  </g>
  <g id="axes_1">
   <g id="patch_2">
    <path d="M 62.208 293.76 
L 460.8 293.76 
L 460.8 3.456 
L 62.208 3.456 
z
" style="fill: #ffffff"/>
   </g>
   <g id="line2d_1">
    <path d="M 228.451578 293.76 
L 228.451578 289.927604 
L 230.922328 289.927604 
L 230.922328 286.095208 
L 231.802686 286.095208 
L 231.802686 282.262812 
L 232.126794 282.262812 
L 232.126794 278.430416 
L 232.412214 278.430416 
L 232.412214 274.59802 
L 232.975674 274.59802 
L 232.975674 270.765624 
L 233.010569 270.765624 
L 233.010569 266.933228 
L 233.219162 266.933228 
L 233.219162 263.100832 
L 234.609949 263.100832 
L 234.609949 259.268436 
L 235.462167 259.268436 
L 235.462167 255.43604 
L 235.816129 255.43604 
L 235.816129 251.603644 
L 236.039396 251.603644 
L 236.039396 247.771248 
L 247.005243 247.771248 
L 247.005243 243.938851 
L 251.378523 243.938851 
L 251.378523 240.106455 
L 251.616083 240.106455 
L 251.616083 236.274059 
L 255.181536 236.274059 
L 255.181536 232.441663 
L 255.445723 232.441663 
L 255.445723 228.609267 
L 259.853012 228.609267 
L 259.853012 224.776871 
L 267.858945 224.776871 
L 267.858945 220.944475 
L 268.240479 220.944475 
L 268.240479 217.112079 
L 270.804169 217.112079 
L 270.804169 213.279683 
L 278.758902 213.279683 
L 278.758902 209.447287 
L 285.319093 209.447287 
L 285.319093 205.614891 
L 301.838487 205.614891 
L 301.838487 201.782495 
L 304.55164 201.782495 
L 304.55164 197.950099 
L 308.682908 197.950099 
L 308.682908 194.117703 
L 325.405298 194.117703 
L 325.405298 190.285307 
L 333.297195 190.285307 
L 333.297195 186.452911 
L 337.308886 186.452911 
L 337.308886 182.620515 
L 337.308886 182.620515 
L 337.308886 182.620515 
L 460.8 182.620515 
" clip-path="url(#pb1a1011b0d)" style="fill: none; stroke: #f5deb3; stroke-width: 1.5; stroke-linecap: square"/>
   </g>
   <g id="line2d_2"/>
   <g id="line2d_3">
    <path d="M 148.359085 293.76 
L 148.359085 289.927604 
L 149.278713 289.927604 
L 149.278713 286.095208 
L 157.633566 286.095208 
L 157.633566 282.262812 
L 211.749111 282.262812 
L 211.749111 278.430416 
L 225.428321 278.430416 
L 225.428321 274.59802 
L 254.825926 274.59802 
L 254.825926 270.765624 
L 262.824752 270.765624 
L 262.824752 266.933228 
L 266.885132 266.933228 
L 266.885132 263.100832 
L 275.472723 263.100832 
L 275.472723 259.268436 
L 276.985308 259.268436 
L 276.985308 255.43604 
L 281.095208 255.43604 
L 281.095208 251.603644 
L 286.130829 251.603644 
L 286.130829 247.771248 
L 290.112574 247.771248 
L 290.112574 243.938851 
L 291.929255 243.938851 
L 291.929255 240.106455 
L 295.573459 240.106455 
L 295.573459 236.274059 
L 312.251232 236.274059 
L 312.251232 232.441663 
L 314.07128 232.441663 
L 314.07128 228.609267 
L 315.136808 228.609267 
L 315.136808 224.776871 
L 315.425787 224.776871 
L 315.425787 220.944475 
L 315.946738 220.944475 
L 315.946738 217.112079 
L 316.14407 217.112079 
L 316.14407 213.279683 
L 317.31156 213.279683 
L 317.31156 209.447287 
L 317.398448 209.447287 
L 317.398448 205.614891 
L 318.657043 205.614891 
L 318.657043 201.782495 
L 318.773216 201.782495 
L 318.773216 197.950099 
L 320.775263 197.950099 
L 320.775263 194.117703 
L 321.187582 194.117703 
L 321.187582 190.285307 
L 321.557741 190.285307 
L 321.557741 186.452911 
L 321.590134 186.452911 
L 321.590134 182.620515 
L 322.371613 182.620515 
L 322.371613 178.788119 
L 322.551747 178.788119 
L 322.551747 174.955723 
L 323.607814 174.955723 
L 323.607814 171.123327 
L 329.817321 171.123327 
L 329.817321 167.290931 
L 331.18314 167.290931 
L 331.18314 163.458535 
L 334.769303 163.458535 
L 334.769303 159.626139 
L 337.925989 159.626139 
L 337.925989 155.793743 
L 346.26252 155.793743 
L 346.26252 151.961347 
L 353.275398 151.961347 
L 353.275398 148.12895 
L 356.843916 148.12895 
L 356.843916 144.296554 
L 359.284848 144.296554 
L 359.284848 140.464158 
L 359.284848 140.464158 
L 359.284848 140.464158 
L 460.8 140.464158 
" clip-path="url(#pb1a1011b0d)" style="fill: none; stroke: #f5deb3; stroke-width: 1.5; stroke-linecap: square"/>
   </g>
   <g id="line2d_4">
    <path d="M 237.742442 293.76 
L 237.742442 289.927604 
L 242.323281 289.927604 
L 242.323281 286.095208 
L 243.202825 286.095208 
L 243.279306 278.430416 
L 243.381003 278.430416 
L 243.381003 274.59802 
L 244.699404 274.59802 
L 244.699404 270.765624 
L 245.255379 270.765624 
L 245.255379 266.933228 
L 246.409187 266.933228 
L 246.409187 263.100832 
L 246.593751 263.100832 
L 246.593751 259.268436 
L 247.768633 259.268436 
L 247.768633 255.43604 
L 248.55793 255.43604 
L 248.55793 251.603644 
L 249.031049 251.603644 
L 249.031049 247.771248 
L 249.539477 247.771248 
L 249.539477 243.938851 
L 249.686289 243.938851 
L 249.686289 240.106455 
L 249.977947 240.106455 
L 249.977947 236.274059 
L 250.18469 236.274059 
L 250.267023 224.776871 
L 250.492371 224.776871 
L 250.573931 217.112079 
L 250.736444 217.112079 
L 250.736444 213.279683 
L 251.51731 213.279683 
L 251.51731 209.447287 
L 252.144357 209.447287 
L 252.144357 205.614891 
L 252.395694 205.614891 
L 252.395694 201.782495 
L 252.511046 201.782495 
L 252.511046 197.950099 
L 253.044032 197.950099 
L 253.119467 190.285307 
L 254.394017 190.285307 
L 254.394017 186.452911 
L 254.718483 186.452911 
L 254.718483 182.620515 
L 254.968635 182.620515 
L 254.968635 178.788119 
L 255.287467 178.788119 
L 255.287467 174.955723 
L 255.777321 174.955723 
L 255.846704 167.290931 
L 256.03675 167.290931 
L 256.03675 163.458535 
L 256.617266 163.458535 
L 256.617266 159.626139 
L 257.121052 159.626139 
L 257.121052 155.793743 
L 257.386592 155.793743 
L 257.469132 148.12895 
L 257.50209 148.12895 
L 257.50209 144.296554 
L 257.764561 144.296554 
L 257.780895 136.631762 
L 258.251077 136.631762 
L 258.299332 128.96697 
L 258.571439 128.96697 
L 258.603303 121.302178 
L 259.06187 121.302178 
L 259.077568 113.637386 
L 259.265361 113.637386 
L 259.296555 105.972594 
L 259.837682 105.972594 
L 259.837682 102.140198 
L 260.051646 102.140198 
L 260.051646 98.307802 
L 261.772525 98.307802 
L 261.772525 94.475406 
L 263.789824 94.475406 
L 263.789824 90.64301 
L 264.950823 90.64301 
L 264.950823 86.810614 
L 266.0466 86.810614 
L 266.0466 82.978218 
L 269.221293 82.978218 
L 269.221293 79.145822 
L 275.662133 79.145822 
L 275.662133 75.313426 
L 275.934839 75.313426 
L 275.934839 71.48103 
L 276.976238 71.48103 
L 276.976238 67.648634 
L 277.346026 67.648634 
L 277.346026 63.816238 
L 277.551648 63.816238 
L 277.551648 59.983842 
L 279.997601 59.983842 
L 279.997601 56.151446 
L 282.641083 56.151446 
L 282.641083 52.31905 
L 289.252161 52.31905 
L 289.252161 48.486653 
L 292.85685 48.486653 
L 292.85685 44.654257 
L 297.36546 44.654257 
L 297.36546 40.821861 
L 297.515684 40.821861 
L 297.515684 36.989465 
L 300.928054 36.989465 
L 300.928054 33.157069 
L 305.738013 33.157069 
L 305.738013 29.324673 
L 308.17415 29.324673 
L 308.17415 25.492277 
L 318.565836 25.492277 
L 318.565836 21.659881 
L 323.332735 21.659881 
L 323.332735 17.827485 
L 325.893379 17.827485 
L 325.893379 13.995089 
L 327.404453 13.995089 
L 327.404453 10.162693 
L 334.181798 10.162693 
L 334.181798 6.330297 
L 334.181798 6.330297 
L 460.8 6.330297 
L 460.8 6.330297 
" clip-path="url(#pb1a1011b0d)" style="fill: none; stroke: #f5deb3; stroke-width: 1.5; stroke-linecap: square"/>
   </g>
   <g id="line2d_5"/>
   <g id="line2d_6"/>
   <g id="line2d_7">
    <path d="M 260.233934 293.76 
L 260.233934 289.927604 
L 260.759865 289.927604 
L 260.759865 286.095208 
L 261.218719 286.095208 
L 261.218719 282.262812 
L 261.70019 282.262812 
L 261.801414 274.59802 
L 263.365951 274.59802 
L 263.365951 270.765624 
L 263.489579 270.765624 
L 263.489579 266.933228 
L 263.979462 266.933228 
L 263.979462 263.100832 
L 264.275255 263.100832 
L 264.302013 255.43604 
L 264.475407 255.43604 
L 264.528574 243.938851 
L 264.594912 243.938851 
L 264.674339 236.274059 
L 264.950823 236.274059 
L 265.055537 224.776871 
L 265.094719 224.776871 
L 265.094719 220.944475 
L 265.224985 220.944475 
L 265.263963 205.614891 
L 265.689685 205.614891 
L 265.689685 201.782495 
L 265.817603 201.782495 
L 265.817603 197.950099 
L 266.059275 197.950099 
L 266.059275 194.117703 
L 266.624619 194.117703 
L 266.624619 190.285307 
L 266.823293 190.285307 
L 266.823293 186.452911 
L 267.033069 186.452911 
L 267.05766 178.788119 
L 267.155839 178.788119 
L 267.265939 171.123327 
L 267.545631 171.123327 
L 267.606117 163.458535 
L 268.014481 163.458535 
L 268.026415 155.793743 
L 268.216763 155.793743 
L 268.216763 151.961347 
L 268.955653 151.961347 
L 268.955653 148.12895 
L 269.45054 148.12895 
L 269.45054 144.296554 
L 269.847889 144.296554 
L 269.949287 132.799366 
L 270.106395 132.799366 
L 270.106395 128.96697 
L 270.26275 128.96697 
L 270.26275 125.134574 
L 271.033485 125.134574 
L 271.087848 117.469782 
L 271.775808 117.469782 
L 271.775808 113.637386 
L 274.302747 113.637386 
L 274.302747 109.80499 
L 274.518612 109.80499 
L 274.518612 105.972594 
L 277.764838 105.972594 
L 277.764838 102.140198 
L 277.888559 102.140198 
L 277.888559 98.307802 
L 279.329315 98.307802 
L 279.329315 94.475406 
L 280.285729 94.475406 
L 280.285729 90.64301 
L 280.408438 90.64301 
L 280.408438 86.810614 
L 281.365922 86.810614 
L 281.429294 79.145822 
L 281.955262 79.145822 
L 281.955262 75.313426 
L 282.087379 75.313426 
L 282.118388 67.648634 
L 282.740064 67.648634 
L 282.740064 63.816238 
L 283.706329 63.816238 
L 283.706329 59.983842 
L 284.014854 59.983842 
L 284.014854 56.151446 
L 285.100592 56.151446 
L 285.100592 52.31905 
L 287.043033 52.31905 
L 287.043033 48.486653 
L 287.512748 48.486653 
L 287.512748 44.654257 
L 289.264614 44.654257 
L 289.264614 40.821861 
L 291.110119 40.821861 
L 291.110119 36.989465 
L 296.016848 36.989465 
L 296.016848 33.157069 
L 302.196506 33.157069 
L 302.196506 29.324673 
L 309.876494 29.324673 
L 309.876494 25.492277 
L 311.839199 25.492277 
L 311.839199 21.659881 
L 314.54819 21.659881 
L 314.54819 17.827485 
L 315.074751 17.827485 
L 315.074751 13.995089 
L 322.504558 13.995089 
L 322.504558 10.162693 
L 356.995149 10.162693 
L 356.995149 6.330297 
L 356.995149 6.330297 
L 460.8 6.330297 
L 460.8 6.330297 
" clip-path="url(#pb1a1011b0d)" style="fill: none; stroke: #f5deb3; stroke-width: 1.5; stroke-linecap: square"/>
   </g>
   <g id="line2d_8">
    <path d="M 431.824232 293.76 
L 431.824232 289.927604 
L 432.377744 289.927604 
L 432.377744 286.095208 
L 432.377744 286.095208 
L 432.377744 286.095208 
L 460.8 286.095208 
" clip-path="url(#pb1a1011b0d)" style="fill: none; stroke: #f5deb3; stroke-width: 1.5; stroke-linecap: square"/>
   </g>
   <g id="line2d_9">
    <path d="M 256.03675 293.76 
L 256.03675 289.927604 
L 256.853334 289.927604 
L 256.853334 286.095208 
L 257.485615 286.095208 
L 257.485615 282.262812 
L 258.523585 282.262812 
L 258.523585 278.430416 
L 258.793837 278.430416 
L 258.888688 270.765624 
L 259.405501 270.765624 
L 259.405501 266.933228 
L 259.960118 266.933228 
L 259.960118 263.100832 
L 260.324697 263.100832 
L 260.324697 259.268436 
L 260.505471 259.268436 
L 260.610462 243.938851 
L 261.086166 243.938851 
L 261.086166 240.106455 
L 261.277458 240.106455 
L 261.277458 236.274059 
L 261.423847 236.274059 
L 261.43845 228.609267 
L 261.555038 228.609267 
L 261.656712 220.944475 
L 261.859116 220.944475 
L 261.931099 213.279683 
L 262.3597 213.279683 
L 262.3597 209.447287 
L 262.712619 209.447287 
L 262.712619 205.614891 
L 262.880674 205.614891 
L 262.880674 201.782495 
L 263.020062 201.782495 
L 263.020062 197.950099 
L 263.241853 197.950099 
L 263.310854 186.452911 
L 263.503286 186.452911 
L 263.61274 163.458535 
L 263.830554 163.458535 
L 263.830554 159.626139 
L 264.033442 159.626139 
L 264.046923 151.961347 
L 264.541852 151.961347 
L 264.581655 144.296554 
L 264.963931 144.296554 
L 264.963931 140.464158 
L 265.250976 140.464158 
L 265.315863 132.799366 
L 265.676865 132.799366 
L 265.753707 125.134574 
L 265.970446 125.134574 
L 265.970446 121.302178 
L 266.786134 121.302178 
L 266.860411 109.80499 
L 267.678554 109.80499 
L 267.678554 105.972594 
L 268.240479 105.972594 
L 268.240479 102.140198 
L 272.480812 102.140198 
L 272.480812 98.307802 
L 273.017675 98.307802 
L 273.017675 94.475406 
L 273.606248 94.475406 
L 273.606248 90.64301 
L 274.586999 90.64301 
L 274.586999 86.810614 
L 274.781602 86.810614 
L 274.781602 82.978218 
L 275.934839 82.978218 
L 275.934839 79.145822 
L 277.166165 79.145822 
L 277.166165 75.313426 
L 277.337056 75.313426 
L 277.337056 71.48103 
L 277.631757 71.48103 
L 277.631757 67.648634 
L 279.160083 67.648634 
L 279.160083 63.816238 
L 279.96451 63.816238 
L 279.96451 59.983842 
L 280.498132 59.983842 
L 280.498132 56.151446 
L 282.426868 56.151446 
L 282.426868 52.31905 
L 288.572564 52.31905 
L 288.572564 48.486653 
L 288.712153 48.486653 
L 288.712153 44.654257 
L 289.500316 44.654257 
L 289.500316 40.821861 
L 293.807599 40.821861 
L 293.807599 36.989465 
L 298.332141 36.989465 
L 298.332141 33.157069 
L 299.399054 33.157069 
L 299.399054 29.324673 
L 300.112281 29.324673 
L 300.112281 25.492277 
L 300.401233 25.492277 
L 300.401233 21.659881 
L 301.51074 21.659881 
L 301.51074 17.827485 
L 302.925563 17.827485 
L 302.925563 13.995089 
L 305.749286 13.995089 
L 305.749286 10.162693 
L 307.872791 10.162693 
L 307.872791 6.330297 
L 307.872791 6.330297 
L 460.8 6.330297 
L 460.8 6.330297 
" clip-path="url(#pb1a1011b0d)" style="fill: none; stroke: #f5deb3; stroke-width: 1.5; stroke-linecap: square"/>
   </g>
   <g id="line2d_10">
    <path d="M 422.658012 293.76 
L 422.658012 289.927604 
L 424.965315 289.927604 
L 424.965315 286.095208 
L 429.382471 286.095208 
L 429.382471 282.262812 
L 429.382471 282.262812 
L 429.382471 282.262812 
L 460.8 282.262812 
" clip-path="url(#pb1a1011b0d)" style="fill: none; stroke: #f5deb3; stroke-width: 1.5; stroke-linecap: square"/>
   </g>
   <g id="line2d_11">
    <path clip-path="url(#pb1a1011b0d)" style="fill: none; stroke: #f5deb3; stroke-width: 1.5; stroke-linecap: square"/>
   </g>
   <g id="line2d_12">
    <path d="M 229.283081 293.76 
L 229.283081 289.927604 
L 268.53548 289.927604 
L 268.53548 286.095208 
L 270.518004 286.095208 
L 270.518004 282.262812 
L 316.616088 282.262812 
L 316.616088 278.430416 
L 323.69249 278.430416 
L 323.69249 274.59802 
L 343.123011 274.59802 
L 343.123011 270.765624 
L 354.009173 270.765624 
L 354.009173 266.933228 
L 357.219528 266.933228 
L 357.219528 263.100832 
L 359.498422 263.100832 
L 359.498422 259.268436 
L 373.881269 259.268436 
L 373.881269 255.43604 
L 373.881269 255.43604 
L 373.881269 255.43604 
L 460.8 255.43604 
" clip-path="url(#pb1a1011b0d)" style="fill: none; stroke: #f5deb3; stroke-width: 1.5; stroke-linecap: square"/>
   </g>
   <g id="line2d_13"/>
   <g id="line2d_14">
    <path d="M 251.07912 293.76 
L 251.07912 289.927604 
L 255.480788 289.927604 
L 255.480788 286.095208 
L 264.647885 286.095208 
L 264.647885 282.262812 
L 265.753707 282.262812 
L 265.753707 278.430416 
L 269.621425 278.430416 
L 269.621425 274.59802 
L 269.892994 274.59802 
L 269.892994 270.765624 
L 272.040653 270.765624 
L 272.040653 266.933228 
L 274.645502 266.933228 
L 274.645502 263.100832 
L 275.339479 263.100832 
L 275.339479 259.268436 
L 279.041097 259.268436 
L 279.041097 255.43604 
L 279.85673 255.43604 
L 279.85673 251.603644 
L 281.007142 251.603644 
L 281.007142 247.771248 
L 281.799142 247.771248 
L 281.799142 243.938851 
L 285.33314 243.938851 
L 285.33314 240.106455 
L 288.143739 240.106455 
L 288.143739 236.274059 
L 288.528024 236.274059 
L 288.528024 232.441663 
L 289.549721 232.441663 
L 289.549721 228.609267 
L 289.984949 228.609267 
L 289.984949 224.776871 
L 296.638574 224.776871 
L 296.638574 220.944475 
L 297.4673 220.944475 
L 297.4673 217.112079 
L 300.775274 217.112079 
L 300.775274 213.279683 
L 303.235418 213.279683 
L 303.235418 209.447287 
L 303.710756 209.447287 
L 303.710756 205.614891 
L 305.394204 205.614891 
L 305.394204 201.782495 
L 307.232888 201.782495 
L 307.232888 197.950099 
L 308.590055 197.950099 
L 308.590055 194.117703 
L 309.382778 194.117703 
L 309.382778 190.285307 
L 311.689209 190.285307 
L 311.689209 186.452911 
L 312.306598 186.452911 
L 312.306598 182.620515 
L 318.629201 182.620515 
L 318.629201 178.788119 
L 319.837203 178.788119 
L 319.837203 174.955723 
L 321.534584 174.955723 
L 321.534584 171.123327 
L 332.464282 171.123327 
L 332.464282 167.290931 
L 343.959963 167.290931 
L 343.959963 163.458535 
L 345.875762 163.458535 
L 345.875762 159.626139 
L 349.674921 159.626139 
L 349.674921 155.793743 
L 353.571064 155.793743 
L 353.571064 151.961347 
L 359.973557 151.961347 
L 359.973557 148.12895 
L 360.40598 148.12895 
L 360.40598 144.296554 
L 360.40598 144.296554 
L 360.40598 144.296554 
L 460.8 144.296554 
" clip-path="url(#pb1a1011b0d)" style="fill: none; stroke: #f5deb3; stroke-width: 1.5; stroke-linecap: square"/>
   </g>
   <g id="line2d_15"/>
   <g id="line2d_16"/>
   <g id="line2d_17">
    <path d="M 304.668353 293.76 
L 304.668353 289.927604 
L 305.726737 289.927604 
L 305.726737 286.095208 
L 306.682583 286.095208 
L 306.682583 282.262812 
L 307.052889 282.262812 
L 307.052889 278.430416 
L 308.634795 278.430416 
L 308.634795 274.59802 
L 309.004128 274.59802 
L 309.004128 270.765624 
L 309.129705 270.765624 
L 309.129705 266.933228 
L 309.342418 266.933228 
L 309.342418 263.100832 
L 309.912892 263.100832 
L 309.952554 255.43604 
L 310.629235 255.43604 
L 310.67773 240.106455 
L 311.717385 240.106455 
L 311.751789 232.441663 
L 311.929485 232.441663 
L 311.945027 224.776871 
L 312.220432 224.776871 
L 312.220432 220.944475 
L 312.410924 220.944475 
L 312.410924 217.112079 
L 312.749213 217.112079 
L 312.749213 213.279683 
L 312.972808 213.279683 
L 312.972808 209.447287 
L 313.35301 209.447287 
L 313.35301 205.614891 
L 313.599117 205.614891 
L 313.599117 201.782495 
L 314.343828 201.782495 
L 314.343828 197.950099 
L 314.516612 197.950099 
L 314.516612 194.117703 
L 314.677056 194.117703 
L 314.677056 190.285307 
L 314.791179 190.285307 
L 314.833872 182.620515 
L 314.995599 182.620515 
L 315.040852 174.955723 
L 315.170607 174.955723 
L 315.170607 171.123327 
L 315.54011 171.123327 
L 315.54011 167.290931 
L 315.717768 167.290931 
L 315.717768 163.458535 
L 316.209583 163.458535 
L 316.209583 159.626139 
L 316.610701 159.626139 
L 316.610701 155.793743 
L 316.729009 155.793743 
L 316.785322 148.12895 
L 317.576763 148.12895 
L 317.576763 144.296554 
L 318.19587 144.296554 
L 318.19587 140.464158 
L 318.341805 140.464158 
L 318.341805 136.631762 
L 318.634265 136.631762 
L 318.634265 132.799366 
L 319.518429 132.799366 
L 319.518429 128.96697 
L 321.48358 128.96697 
L 321.48358 125.134574 
L 321.866473 125.134574 
L 321.866473 121.302178 
L 324.792616 121.302178 
L 324.805192 113.637386 
L 326.466019 113.637386 
L 326.466019 109.80499 
L 327.735638 109.80499 
L 327.735638 105.972594 
L 328.021746 105.972594 
L 328.050219 98.307802 
L 328.902315 98.307802 
L 328.902315 94.475406 
L 329.366669 94.475406 
L 329.366669 90.64301 
L 329.876582 90.64301 
L 329.887345 82.978218 
L 330.197943 82.978218 
L 330.304364 75.313426 
L 330.770285 75.313426 
L 330.770285 71.48103 
L 332.761263 71.48103 
L 332.761263 67.648634 
L 332.887485 67.648634 
L 332.887485 63.816238 
L 333.117361 63.816238 
L 333.117361 59.983842 
L 333.264865 59.983842 
L 333.264865 56.151446 
L 334.369952 56.151446 
L 334.369952 52.31905 
L 335.413118 52.31905 
L 335.413118 48.486653 
L 337.10392 48.486653 
L 337.197246 40.821861 
L 338.988123 40.821861 
L 338.988123 36.989465 
L 341.276995 36.989465 
L 341.276995 33.157069 
L 343.006819 33.157069 
L 343.006819 29.324673 
L 344.30313 29.324673 
L 344.30313 25.492277 
L 346.349292 25.492277 
L 346.349292 21.659881 
L 350.031027 21.659881 
L 350.13344 13.995089 
L 352.301656 13.995089 
L 352.301656 10.162693 
L 354.471054 10.162693 
L 354.471054 6.330297 
L 354.471054 6.330297 
L 460.8 6.330297 
L 460.8 6.330297 
" clip-path="url(#pb1a1011b0d)" style="fill: none; stroke: #f5deb3; stroke-width: 1.5; stroke-linecap: square"/>
   </g>
   <g id="line2d_18">
    <path d="M 196.831353 293.76 
L 196.831353 289.927604 
L 219.616982 289.927604 
L 219.616982 286.095208 
L 220.651764 286.095208 
L 220.651764 282.262812 
L 226.124766 282.262812 
L 226.124766 278.430416 
L 226.76446 278.430416 
L 226.76446 274.59802 
L 236.793492 274.59802 
L 236.793492 270.765624 
L 239.561392 270.765624 
L 239.561392 266.933228 
L 250.59429 266.933228 
L 250.59429 263.100832 
L 253.288562 263.100832 
L 253.288562 259.268436 
L 264.073869 259.268436 
L 264.073869 255.43604 
L 264.488707 255.43604 
L 264.488707 251.603644 
L 269.324653 251.603644 
L 269.324653 247.771248 
L 272.313832 247.771248 
L 272.313832 243.938851 
L 273.59619 243.938851 
L 273.59619 240.106455 
L 273.726708 240.106455 
L 273.726708 236.274059 
L 273.806769 236.274059 
L 273.806769 232.441663 
L 277.399791 232.441663 
L 277.399791 228.609267 
L 277.994234 228.609267 
L 277.994234 224.776871 
L 278.439573 224.776871 
L 278.439573 220.944475 
L 278.526187 220.944475 
L 278.526187 217.112079 
L 278.964377 217.112079 
L 278.964377 213.279683 
L 279.455665 213.279683 
L 279.455665 209.447287 
L 282.952239 209.447287 
L 282.952239 205.614891 
L 286.356177 205.614891 
L 286.356177 201.782495 
L 286.491998 201.782495 
L 286.491998 197.950099 
L 289.233473 197.950099 
L 289.233473 194.117703 
L 290.360318 194.117703 
L 290.360318 190.285307 
L 291.286133 190.285307 
L 291.286133 186.452911 
L 301.222855 186.452911 
L 301.222855 182.620515 
L 304.457968 182.620515 
L 304.457968 178.788119 
L 315.277409 178.788119 
L 315.277409 174.955723 
L 318.425997 174.955723 
L 318.425997 171.123327 
L 320.575485 171.123327 
L 320.575485 167.290931 
L 324.966163 167.290931 
L 324.966163 163.458535 
L 328.461252 163.458535 
L 328.461252 159.626139 
L 329.539339 159.626139 
L 329.539339 155.793743 
L 331.138291 155.793743 
L 331.138291 151.961347 
L 334.889547 151.961347 
L 334.889547 148.12895 
L 342.715121 148.12895 
L 342.715121 144.296554 
L 353.445798 144.296554 
L 353.445798 140.464158 
L 356.203058 140.464158 
L 356.203058 136.631762 
L 360.983924 136.631762 
L 360.983924 132.799366 
L 361.670586 132.799366 
L 361.670586 128.96697 
L 362.005558 128.96697 
L 362.005558 125.134574 
L 375.947593 125.134574 
L 375.947593 121.302178 
L 375.947593 121.302178 
L 375.947593 121.302178 
L 460.8 121.302178 
" clip-path="url(#pb1a1011b0d)" style="fill: none; stroke: #f5deb3; stroke-width: 1.5; stroke-linecap: square"/>
   </g>
   <g id="line2d_19">
    <path clip-path="url(#pb1a1011b0d)" style="fill: none; stroke: #f5deb3; stroke-width: 1.5; stroke-linecap: square"/>
   </g>
   <g id="line2d_20">
    <path d="M 208.811209 293.76 
L 208.811209 289.927604 
L 212.411297 289.927604 
L 212.411297 286.095208 
L 215.23536 286.095208 
L 215.23536 282.262812 
L 215.89006 282.262812 
L 215.89006 278.430416 
L 217.217965 278.430416 
L 217.217965 270.765624 
L 217.443491 270.765624 
L 217.443491 266.933228 
L 218.00058 266.933228 
L 218.00058 263.100832 
L 218.2756 263.100832 
L 218.2756 259.268436 
L 219.40603 259.268436 
L 219.458896 251.603644 
L 220.293309 251.603644 
L 220.293309 247.771248 
L 220.955908 247.771248 
L 220.955908 243.938851 
L 223.056438 243.938851 
L 223.056438 240.106455 
L 223.7585 240.106455 
L 223.7585 232.441663 
L 225.384296 232.441663 
L 225.384296 228.609267 
L 226.890908 228.609267 
L 226.890908 224.776871 
L 229.243962 224.776871 
L 229.243962 217.112079 
L 229.516815 217.112079 
L 229.516815 213.279683 
L 229.97932 213.279683 
L 229.97932 209.447287 
L 230.32195 209.447287 
L 230.32195 205.614891 
L 230.885126 205.614891 
L 230.885126 201.782495 
L 232.553993 201.782495 
L 232.553993 197.950099 
L 233.080248 197.950099 
L 233.080248 194.117703 
L 233.700756 194.117703 
L 233.700756 190.285307 
L 234.343189 190.285307 
L 234.343189 186.452911 
L 236.418621 186.452911 
L 236.512743 178.788119 
L 236.544057 178.788119 
L 236.544057 174.955723 
L 236.855554 174.955723 
L 236.855554 171.123327 
L 237.560915 171.123327 
L 237.591239 163.458535 
L 238.985634 163.458535 
L 238.985634 159.626139 
L 241.284318 159.626139 
L 241.284318 155.793743 
L 241.634326 155.793743 
L 241.634326 151.961347 
L 243.074957 151.961347 
L 243.151738 144.296554 
L 246.891459 144.296554 
L 246.891459 140.464158 
L 247.389169 140.464158 
L 247.389169 136.631762 
L 247.501235 136.631762 
L 247.501235 132.799366 
L 248.055863 132.799366 
L 248.055863 128.96697 
L 248.340588 128.96697 
L 248.405943 121.302178 
L 253.307297 121.302178 
L 253.307297 117.469782 
L 257.336967 117.469782 
L 257.336967 113.637386 
L 257.846152 113.637386 
L 257.846152 109.80499 
L 259.622306 109.80499 
L 259.622306 105.972594 
L 262.866702 105.972594 
L 262.866702 102.140198 
L 263.310854 102.140198 
L 263.310854 98.307802 
L 264.99013 98.307802 
L 264.99013 94.475406 
L 268.346987 94.475406 
L 268.346987 90.64301 
L 270.162322 90.64301 
L 270.162322 86.810614 
L 271.924386 86.810614 
L 271.924386 82.978218 
L 272.219528 82.978218 
L 272.219528 79.145822 
L 275.157774 79.145822 
L 275.157774 75.313426 
L 275.30131 75.313426 
L 275.30131 71.48103 
L 276.501133 71.48103 
L 276.501133 67.648634 
L 277.649533 67.648634 
L 277.649533 63.816238 
L 278.90458 63.816238 
L 278.90458 59.983842 
L 280.318496 59.983842 
L 280.318496 56.151446 
L 288.432376 56.151446 
L 288.432376 52.31905 
L 291.262719 52.31905 
L 291.262719 48.486653 
L 291.635339 48.486653 
L 291.635339 44.654257 
L 296.168355 44.654257 
L 296.168355 40.821861 
L 300.228169 40.821861 
L 300.228169 36.989465 
L 305.088933 36.989465 
L 305.088933 33.157069 
L 313.705288 33.157069 
L 313.705288 29.324673 
L 317.857982 29.324673 
L 317.857982 25.492277 
L 318.800936 25.492277 
L 318.800936 21.659881 
L 320.367274 21.659881 
L 320.367274 17.827485 
L 322.183668 17.827485 
L 322.183668 13.995089 
L 338.403395 13.995089 
L 338.403395 10.162693 
L 361.163314 10.162693 
L 361.163314 6.330297 
L 361.163314 6.330297 
L 460.8 6.330297 
L 460.8 6.330297 
" clip-path="url(#pb1a1011b0d)" style="fill: none; stroke: #f5deb3; stroke-width: 1.5; stroke-linecap: square"/>
   </g>
   <g id="line2d_21"/>
   <g id="line2d_22">
    <path d="M 207.694407 293.76 
L 207.694407 289.927604 
L 209.319589 289.927604 
L 209.319589 286.095208 
L 212.73742 286.095208 
L 212.73742 282.262812 
L 213.124515 282.262812 
L 213.124515 278.430416 
L 213.633603 278.430416 
L 213.633603 274.59802 
L 213.759645 274.59802 
L 213.759645 270.765624 
L 214.072635 270.765624 
L 214.072635 266.933228 
L 214.444305 266.933228 
L 214.50584 259.268436 
L 215.23536 259.268436 
L 215.23536 255.43604 
L 215.948933 255.43604 
L 215.948933 251.603644 
L 217.217965 251.603644 
L 217.217965 247.771248 
L 218.110866 247.771248 
L 218.110866 243.938851 
L 219.140409 243.938851 
L 219.140409 240.106455 
L 219.616982 240.106455 
L 219.721948 232.441663 
L 219.930875 232.441663 
L 219.930875 228.609267 
L 221.7041 228.609267 
L 221.7041 224.776871 
L 222.531823 224.776871 
L 222.531823 220.944475 
L 223.150923 220.944475 
L 223.150923 217.112079 
L 223.897119 217.112079 
L 223.897119 213.279683 
L 229.087017 213.279683 
L 229.087017 209.447287 
L 229.516815 209.447287 
L 229.516815 205.614891 
L 229.941028 205.614891 
L 229.941028 201.782495 
L 231.584812 201.782495 
L 231.584812 197.950099 
L 232.940741 197.950099 
L 232.940741 194.117703 
L 234.643141 194.117703 
L 234.643141 190.285307 
L 235.429797 190.285307 
L 235.429797 186.452911 
L 236.793492 186.452911 
L 236.793492 182.620515 
L 239.589915 182.620515 
L 239.589915 178.788119 
L 240.765922 178.788119 
L 240.765922 174.955723 
L 241.148694 174.955723 
L 241.148694 171.123327 
L 241.767951 171.123327 
L 241.767951 167.290931 
L 241.980621 167.290931 
L 241.980621 163.458535 
L 243.126164 163.458535 
L 243.126164 159.626139 
L 243.834758 159.626139 
L 243.834758 155.793743 
L 246.223573 155.793743 
L 246.223573 151.961347 
L 249.222639 151.961347 
L 249.222639 148.12895 
L 249.769886 148.12895 
L 249.769886 144.296554 
L 250.246459 144.296554 
L 250.246459 140.464158 
L 251.851928 140.464158 
L 251.851928 136.631762 
L 253.456786 136.631762 
L 253.456786 132.799366 
L 255.199215 132.799366 
L 255.199215 128.96697 
L 255.985029 128.96697 
L 255.985029 125.134574 
L 256.836529 125.134574 
L 256.836529 121.302178 
L 257.780895 121.302178 
L 257.846152 113.637386 
L 257.895009 113.637386 
L 257.895009 109.80499 
L 258.635136 109.80499 
L 258.635136 105.972594 
L 259.155946 105.972594 
L 259.155946 102.140198 
L 259.776291 102.140198 
L 259.776291 98.307802 
L 262.529578 98.307802 
L 262.543694 90.64301 
L 264.528574 90.64301 
L 264.528574 86.810614 
L 265.496863 86.810614 
L 265.496863 82.978218 
L 265.86863 82.978218 
L 265.86863 79.145822 
L 267.810938 79.145822 
L 267.810938 75.313426 
L 268.287858 75.313426 
L 268.287858 71.48103 
L 268.641031 71.48103 
L 268.641031 67.648634 
L 268.897618 67.648634 
L 268.897618 63.816238 
L 269.094517 63.816238 
L 269.094517 59.983842 
L 269.416255 59.983842 
L 269.46196 52.31905 
L 271.626551 52.31905 
L 271.626551 48.486653 
L 276.748685 48.486653 
L 276.748685 44.654257 
L 277.649533 44.654257 
L 277.649533 40.821861 
L 281.334189 40.821861 
L 281.334189 36.989465 
L 281.650133 36.989465 
L 281.650133 33.157069 
L 283.831559 33.157069 
L 283.831559 29.324673 
L 284.392841 29.324673 
L 284.392841 25.492277 
L 285.361215 25.492277 
L 285.361215 21.659881 
L 291.174767 21.659881 
L 291.174767 17.827485 
L 291.675837 17.827485 
L 291.675837 13.995089 
L 301.762165 13.995089 
L 301.762165 10.162693 
L 309.024525 10.162693 
L 309.024525 6.330297 
L 309.024525 6.330297 
L 460.8 6.330297 
L 460.8 6.330297 
" clip-path="url(#pb1a1011b0d)" style="fill: none; stroke: #f5deb3; stroke-width: 1.5; stroke-linecap: square"/>
   </g>
   <g id="line2d_23">
    <path d="M 428.534244 293.76 
L 428.534244 289.927604 
L 432.121305 289.927604 
L 432.121305 286.095208 
L 432.150489 286.095208 
L 432.150489 282.262812 
L 433.877315 282.262812 
L 433.877315 278.430416 
L 434.452208 278.430416 
L 434.452208 274.59802 
L 436.349024 274.59802 
L 436.349024 270.765624 
L 436.941614 270.765624 
L 436.941614 266.933228 
L 437.227631 266.933228 
L 437.227631 263.100832 
L 437.227631 263.100832 
L 437.227631 263.100832 
L 460.8 263.100832 
" clip-path="url(#pb1a1011b0d)" style="fill: none; stroke: #f5deb3; stroke-width: 1.5; stroke-linecap: square"/>
   </g>
   <g id="line2d_24">
    <path d="M 245.398872 293.76 
L 245.398872 289.927604 
L 246.914247 289.927604 
L 246.914247 286.095208 
L 250.756701 286.095208 
L 250.756701 282.262812 
L 251.219183 282.262812 
L 251.29895 274.59802 
L 251.398386 274.59802 
L 251.398386 270.765624 
L 251.793126 270.765624 
L 251.793126 266.933228 
L 252.105518 266.933228 
L 252.105518 263.100832 
L 254.321473 263.100832 
L 254.339624 255.43604 
L 254.610686 255.43604 
L 254.610686 251.603644 
L 254.879515 251.603644 
L 254.879515 247.771248 
L 255.252195 247.771248 
L 255.252195 243.938851 
L 255.829372 243.938851 
L 255.829372 240.106455 
L 256.157115 240.106455 
L 256.157115 236.274059 
L 256.903699 236.274059 
L 256.903699 232.441663 
L 257.204265 232.441663 
L 257.204265 228.609267 
L 258.138203 228.609267 
L 258.138203 224.776871 
L 258.746307 224.776871 
L 258.793837 217.112079 
L 259.791649 217.112079 
L 259.791649 213.279683 
L 260.744956 213.279683 
L 260.744956 209.447287 
L 261.306789 209.447287 
L 261.306789 205.614891 
L 262.416424 205.614891 
L 262.416424 201.782495 
L 262.557805 201.782495 
L 262.628266 194.117703 
L 262.838741 194.117703 
L 262.838741 190.285307 
L 263.255665 190.285307 
L 263.338414 182.620515 
L 263.558059 182.620515 
L 263.61274 174.955723 
L 264.033442 174.955723 
L 264.033442 171.123327 
L 264.555125 171.123327 
L 264.555125 167.290931 
L 264.740381 167.290931 
L 264.740381 163.458535 
L 265.522639 163.458535 
L 265.522639 159.626139 
L 266.160499 159.626139 
L 266.160499 155.793743 
L 266.399655 155.793743 
L 266.449781 148.12895 
L 267.436471 148.12895 
L 267.436471 144.296554 
L 268.358799 144.296554 
L 268.358799 140.464158 
L 268.769577 140.464158 
L 268.769577 136.631762 
L 269.496197 136.631762 
L 269.496197 132.799366 
L 269.892994 132.799366 
L 269.994252 125.134574 
L 271.701265 125.134574 
L 271.701265 121.302178 
L 272.271953 121.302178 
L 272.271953 117.469782 
L 273.616304 117.469782 
L 273.616304 113.637386 
L 274.0557 113.637386 
L 274.0557 109.80499 
L 274.508831 109.80499 
L 274.508831 105.972594 
L 275.032865 105.972594 
L 275.032865 102.140198 
L 275.30131 102.140198 
L 275.30131 98.307802 
L 275.577034 98.307802 
L 275.577034 94.475406 
L 276.748685 94.475406 
L 276.748685 90.64301 
L 277.711671 90.64301 
L 277.817919 79.145822 
L 278.248211 79.145822 
L 278.248211 75.313426 
L 278.681515 75.313426 
L 278.681515 71.48103 
L 279.371486 71.48103 
L 279.371486 67.648634 
L 279.589902 67.648634 
L 279.589902 63.816238 
L 280.252928 63.816238 
L 280.334868 56.151446 
L 283.669405 56.151446 
L 283.669405 52.31905 
L 284.74506 52.31905 
L 284.74506 48.486653 
L 285.633692 48.486653 
L 285.633692 44.654257 
L 285.959069 44.654257 
L 285.959069 40.821861 
L 292.537434 40.821861 
L 292.537434 36.989465 
L 295.486112 36.989465 
L 295.486112 33.157069 
L 299.608316 33.157069 
L 299.608316 29.324673 
L 309.513605 29.324673 
L 309.623897 21.659881 
L 312.380275 21.659881 
L 312.380275 17.827485 
L 314.924765 17.827485 
L 314.924765 13.995089 
L 329.962588 13.995089 
L 329.962588 10.162693 
L 331.566998 10.162693 
L 331.566998 6.330297 
L 331.566998 6.330297 
L 460.8 6.330297 
L 460.8 6.330297 
" clip-path="url(#pb1a1011b0d)" style="fill: none; stroke: #f5deb3; stroke-width: 1.5; stroke-linecap: square"/>
   </g>
   <g id="line2d_25"/>
   <g id="line2d_26">
    <path d="M 285.382256 293.76 
L 285.382256 289.927604 
L 286.546169 289.927604 
L 286.546169 286.095208 
L 287.26881 286.095208 
L 287.361325 274.59802 
L 287.466737 274.59802 
L 287.558694 266.933228 
L 290.897641 266.933228 
L 290.921318 259.268436 
L 291.08069 259.268436 
L 291.08069 255.43604 
L 291.40878 255.43604 
L 291.49029 247.771248 
L 291.670055 247.771248 
L 291.733605 240.106455 
L 291.808551 240.106455 
L 291.808551 236.274059 
L 291.923517 236.274059 
L 291.969391 228.609267 
L 292.140844 228.609267 
L 292.214862 220.944475 
L 292.452855 220.944475 
L 292.452855 217.112079 
L 292.571204 217.112079 
L 292.571204 213.279683 
L 292.683521 213.279683 
L 292.683521 209.447287 
L 292.934828 209.447287 
L 292.96819 197.950099 
L 293.173172 197.950099 
L 293.173172 194.117703 
L 293.404305 194.117703 
L 293.475515 178.788119 
L 296.193538 178.788119 
L 296.228762 167.290931 
L 296.454296 167.290931 
L 296.504203 159.626139 
L 296.821819 159.626139 
L 296.821819 155.793743 
L 296.989303 155.793743 
L 297.0384 148.12895 
L 297.472142 148.12895 
L 297.472142 144.296554 
L 297.756534 144.296554 
L 297.756534 140.464158 
L 298.185636 140.464158 
L 298.185636 136.631762 
L 301.01938 136.631762 
L 301.01938 132.799366 
L 301.446508 132.799366 
L 301.45508 125.134574 
L 301.740933 125.134574 
L 301.740933 121.302178 
L 301.977949 121.302178 
L 301.977949 117.469782 
L 305.264812 117.469782 
L 305.264812 113.637386 
L 306.208158 113.637386 
L 306.211863 105.972594 
L 306.333871 105.972594 
L 306.359693 94.475406 
L 306.609479 94.475406 
L 306.609479 90.64301 
L 308.741235 90.64301 
L 308.741235 86.810614 
L 309.170328 86.810614 
L 309.170328 82.978218 
L 309.416374 82.978218 
L 309.486811 71.48103 
L 310.038322 71.48103 
L 310.038322 67.648634 
L 312.087661 67.648634 
L 312.164919 59.983842 
L 312.5027 59.983842 
L 312.5027 56.151446 
L 313.014938 56.151446 
L 313.026965 48.486653 
L 315.913733 48.486653 
L 315.913733 44.654257 
L 317.989942 44.654257 
L 317.989942 40.821861 
L 324.270628 40.821861 
L 324.270628 36.989465 
L 324.851265 36.989465 
L 324.941129 25.492277 
L 325.846725 25.492277 
L 325.846725 21.659881 
L 326.666567 21.659881 
L 326.666567 17.827485 
L 330.456299 17.827485 
L 330.456299 13.995089 
L 332.803938 13.995089 
L 332.803938 10.162693 
L 346.103564 10.162693 
L 346.103564 6.330297 
L 346.103564 6.330297 
L 460.8 6.330297 
L 460.8 6.330297 
" clip-path="url(#pb1a1011b0d)" style="fill: none; stroke: #f5deb3; stroke-width: 1.5; stroke-linecap: square"/>
   </g>
   <g id="line2d_27">
    <path d="M 275.434709 293.76 
L 275.434709 289.927604 
L 276.381268 289.927604 
L 276.381268 286.095208 
L 285.15712 286.095208 
L 285.15712 282.262812 
L 285.703193 282.262812 
L 285.703193 278.430416 
L 285.931503 278.430416 
L 285.931503 274.59802 
L 292.214862 274.59802 
L 292.214862 270.765624 
L 297.785317 270.765624 
L 297.785317 266.933228 
L 304.815593 266.933228 
L 304.815593 263.100832 
L 305.115758 263.100832 
L 305.115758 259.268436 
L 306.433358 259.268436 
L 306.433358 255.43604 
L 311.02158 255.43604 
L 311.02158 251.603644 
L 311.714255 251.603644 
L 311.714255 247.771248 
L 314.831027 247.771248 
L 314.831027 243.938851 
L 316.130405 243.938851 
L 316.130405 240.106455 
L 322.946795 240.106455 
L 322.946795 236.274059 
L 359.06033 236.274059 
L 359.06033 232.441663 
L 362.546206 232.441663 
L 362.546206 228.609267 
L 362.546206 228.609267 
L 362.546206 224.776871 
L 363.168115 224.776871 
L 363.168115 220.944475 
L 365.965079 220.944475 
L 365.965079 217.112079 
L 369.403525 217.112079 
L 369.403525 213.279683 
L 370.442072 213.279683 
L 370.442072 209.447287 
L 370.90942 209.447287 
L 370.90942 205.614891 
L 374.499881 205.614891 
L 374.499881 201.782495 
L 374.845142 201.782495 
L 374.845142 197.950099 
L 375.597499 197.950099 
L 375.597499 194.117703 
L 376.878253 194.117703 
L 376.878253 190.285307 
L 380.092272 190.285307 
L 380.092272 186.452911 
L 380.651163 186.452911 
L 380.651163 182.620515 
L 381.199156 182.620515 
L 381.199156 178.788119 
L 381.682368 178.788119 
L 381.682368 174.955723 
L 382.953143 174.955723 
L 382.953143 171.123327 
L 383.7998 171.123327 
L 383.7998 167.290931 
L 384.558921 167.290931 
L 384.558921 163.458535 
L 386.040948 163.458535 
L 386.040948 159.626139 
L 386.844061 159.626139 
L 386.844061 155.793743 
L 387.173256 155.793743 
L 387.173256 151.961347 
L 387.186591 151.961347 
L 387.186591 148.12895 
L 387.618712 148.12895 
L 387.618712 144.296554 
L 390.484017 144.296554 
L 390.484017 140.464158 
L 390.740285 140.464158 
L 390.740285 136.631762 
L 398.518434 136.631762 
L 398.518434 132.799366 
L 399.218394 132.799366 
L 399.218394 128.96697 
L 399.245191 128.96697 
L 399.245191 125.134574 
L 406.022258 125.134574 
L 406.022258 121.302178 
L 408.804202 121.302178 
L 408.804202 117.469782 
L 413.271893 117.469782 
L 413.271893 113.637386 
L 413.271893 113.637386 
L 413.271893 113.637386 
L 460.8 113.637386 
" clip-path="url(#pb1a1011b0d)" style="fill: none; stroke: #f5deb3; stroke-width: 1.5; stroke-linecap: square"/>
   </g>
   <g id="line2d_28">
    <path d="M 240.183214 293.76 
L 240.183214 289.927604 
L 240.517462 289.927604 
L 240.517462 286.095208 
L 241.365423 286.095208 
L 241.365423 282.262812 
L 242.766015 282.262812 
L 242.766015 278.430416 
L 242.997995 278.430416 
L 242.997995 274.59802 
L 243.330194 274.59802 
L 243.330194 270.765624 
L 244.45469 270.765624 
L 244.45469 266.933228 
L 245.75487 266.933228 
L 245.75487 263.100832 
L 245.872678 263.100832 
L 245.872678 259.268436 
L 246.891459 259.268436 
L 246.891459 255.43604 
L 247.299239 255.43604 
L 247.299239 251.603644 
L 247.478852 251.603644 
L 247.478852 247.771248 
L 248.296946 247.771248 
L 248.296946 243.938851 
L 249.031049 243.938851 
L 249.031049 240.106455 
L 249.158901 240.106455 
L 249.158901 236.274059 
L 249.413111 236.274059 
L 249.413111 232.441663 
L 249.539477 232.441663 
L 249.539477 228.609267 
L 249.85327 228.609267 
L 249.85327 224.776871 
L 250.10215 224.776871 
L 250.10215 220.944475 
L 250.328636 220.944475 
L 250.328636 217.112079 
L 250.471949 217.112079 
L 250.471949 213.279683 
L 250.998814 213.279683 
L 250.998814 209.447287 
L 251.15923 209.447287 
L 251.15923 205.614891 
L 251.279027 205.614891 
L 251.279027 201.782495 
L 252.08608 201.782495 
L 252.08608 197.950099 
L 252.530232 197.950099 
L 252.530232 194.117703 
L 252.683314 194.117703 
L 252.683314 190.285307 
L 253.494051 190.285307 
L 253.494051 186.452911 
L 254.066293 186.452911 
L 254.066293 182.620515 
L 254.772249 182.620515 
L 254.772249 178.788119 
L 255.110723 178.788119 
L 255.110723 174.955723 
L 255.812031 174.955723 
L 255.812031 171.123327 
L 256.752371 171.123327 
L 256.752371 167.290931 
L 257.171005 167.290931 
L 257.171005 163.458535 
L 257.370059 163.458535 
L 257.370059 159.626139 
L 257.518556 159.626139 
L 257.518556 155.793743 
L 258.523585 155.793743 
L 258.523585 151.961347 
L 258.651041 151.961347 
L 258.651041 148.12895 
L 259.03045 148.12895 
L 259.03045 144.296554 
L 259.155946 144.296554 
L 259.155946 140.464158 
L 259.467592 140.464158 
L 259.467592 136.631762 
L 259.622306 136.631762 
L 259.622306 132.799366 
L 259.745552 132.799366 
L 259.745552 128.96697 
L 260.127723 128.96697 
L 260.127723 125.134574 
L 260.700186 125.134574 
L 260.700186 121.302178 
L 261.056637 121.302178 
L 261.056637 117.469782 
L 261.350735 117.469782 
L 261.43845 109.80499 
L 261.482219 109.80499 
L 261.496796 102.140198 
L 262.074593 102.140198 
L 262.074593 98.307802 
L 262.866702 98.307802 
L 262.866702 94.475406 
L 263.694591 94.475406 
L 263.694591 90.64301 
L 263.938918 90.64301 
L 263.938918 86.810614 
L 264.515291 86.810614 
L 264.515291 82.978218 
L 264.700772 82.978218 
L 264.700772 79.145822 
L 265.715309 79.145822 
L 265.715309 75.313426 
L 266.248813 75.313426 
L 266.248813 71.48103 
L 266.562284 71.48103 
L 266.562284 67.648634 
L 266.810912 67.648634 
L 266.810912 63.816238 
L 267.738795 63.816238 
L 267.738795 59.983842 
L 268.014481 59.983842 
L 268.014481 56.151446 
L 268.323348 56.151446 
L 268.323348 52.31905 
L 268.71121 52.31905 
L 268.71121 48.486653 
L 268.967248 48.486653 
L 268.967248 44.654257 
L 269.689529 44.654257 
L 269.689529 40.821861 
L 271.087848 40.821861 
L 271.087848 36.989465 
L 271.35831 36.989465 
L 271.35831 33.157069 
L 271.711924 33.157069 
L 271.711924 29.324673 
L 283.125501 29.324673 
L 283.125501 25.492277 
L 283.698947 25.492277 
L 283.698947 21.659881 
L 285.883207 21.659881 
L 285.883207 17.827485 
L 287.813502 17.827485 
L 287.813502 13.995089 
L 289.709775 13.995089 
L 289.709775 10.162693 
L 300.321471 10.162693 
L 300.321471 6.330297 
L 300.321471 6.330297 
L 460.8 6.330297 
L 460.8 6.330297 
" clip-path="url(#pb1a1011b0d)" style="fill: none; stroke: #f5deb3; stroke-width: 1.5; stroke-linecap: square"/>
   </g>
   <g id="line2d_29">
    <path d="M 293.883341 293.76 
L 293.883341 289.927604 
L 293.883341 289.927604 
L 293.883341 286.095208 
L 293.883341 286.095208 
L 293.883341 282.262812 
L 315.487181 282.262812 
L 315.487181 278.430416 
L 315.487181 278.430416 
L 315.487181 274.59802 
L 315.487181 274.59802 
L 315.487181 270.765624 
L 315.487181 270.765624 
L 315.487181 270.765624 
L 460.8 270.765624 
" clip-path="url(#pb1a1011b0d)" style="fill: none; stroke: #f5deb3; stroke-width: 1.5; stroke-linecap: square"/>
   </g>
   <g id="line2d_30"/>
   <g id="matplotlib.axis_1">
    <g id="xtick_1">
     <g id="line2d_31">
      <path d="M 62.208 293.76 
L 62.208 3.456 
" clip-path="url(#pb1a1011b0d)" style="fill: none; stroke: #b0b0b0; stroke-width: 0.8; stroke-linecap: square"/>
     </g>
     <g id="line2d_32">
      <defs>
       <path id="m21134fdcfc" d="M 0 0 
L 0 3.5 
" style="stroke: #000000; stroke-width: 0.8"/>
      </defs>
      <g>
       <use xlink:href="#m21134fdcfc" x="62.208" y="293.76" style="stroke: #000000; stroke-width: 0.8"/>
      </g>
     </g>
     <g id="text_1">
      <!-- 0 -->
      <g transform="translate(55.8455 315.956875)scale(0.2 -0.2)">
       <defs>
        <path id="DejaVuSans-30" d="M 2034 4250 
Q 1547 4250 1301 3770 
Q 1056 3291 1056 2328 
Q 1056 1369 1301 889 
Q 1547 409 2034 409 
Q 2525 409 2770 889 
Q 3016 1369 3016 2328 
Q 3016 3291 2770 3770 
Q 2525 4250 2034 4250 
z
M 2034 4750 
Q 2819 4750 3233 4129 
Q 3647 3509 3647 2328 
Q 3647 1150 3233 529 
Q 2819 -91 2034 -91 
Q 1250 -91 836 529 
Q 422 1150 422 2328 
Q 422 3509 836 4129 
Q 1250 4750 2034 4750 
z
" transform="scale(0.015625)"/>
       </defs>
       <use xlink:href="#DejaVuSans-30"/>
      </g>
     </g>
    </g>
    <g id="xtick_2">
     <g id="line2d_33">
      <path d="M 212.542137 293.76 
L 212.542137 3.456 
" clip-path="url(#pb1a1011b0d)" style="fill: none; stroke: #b0b0b0; stroke-width: 0.8; stroke-linecap: square"/>
     </g>
     <g id="line2d_34">
      <g>
       <use xlink:href="#m21134fdcfc" x="212.542137" y="293.76" style="stroke: #000000; stroke-width: 0.8"/>
      </g>
     </g>
     <g id="text_2">
      <!-- 2 -->
      <g transform="translate(206.179637 315.956875)scale(0.2 -0.2)">
       <defs>
        <path id="DejaVuSans-32" d="M 1228 531 
L 3431 531 
L 3431 0 
L 469 0 
L 469 531 
Q 828 903 1448 1529 
Q 2069 2156 2228 2338 
Q 2531 2678 2651 2914 
Q 2772 3150 2772 3378 
Q 2772 3750 2511 3984 
Q 2250 4219 1831 4219 
Q 1534 4219 1204 4116 
Q 875 4013 500 3803 
L 500 4441 
Q 881 4594 1212 4672 
Q 1544 4750 1819 4750 
Q 2544 4750 2975 4387 
Q 3406 4025 3406 3419 
Q 3406 3131 3298 2873 
Q 3191 2616 2906 2266 
Q 2828 2175 2409 1742 
Q 1991 1309 1228 531 
z
" transform="scale(0.015625)"/>
       </defs>
       <use xlink:href="#DejaVuSans-32"/>
      </g>
     </g>
    </g>
    <g id="xtick_3">
     <g id="line2d_35">
      <path d="M 362.876274 293.76 
L 362.876274 3.456 
" clip-path="url(#pb1a1011b0d)" style="fill: none; stroke: #b0b0b0; stroke-width: 0.8; stroke-linecap: square"/>
     </g>
     <g id="line2d_36">
      <g>
       <use xlink:href="#m21134fdcfc" x="362.876274" y="293.76" style="stroke: #000000; stroke-width: 0.8"/>
      </g>
     </g>
     <g id="text_3">
      <!-- 4 -->
      <g transform="translate(356.513774 315.956875)scale(0.2 -0.2)">
       <defs>
        <path id="DejaVuSans-34" d="M 2419 4116 
L 825 1625 
L 2419 1625 
L 2419 4116 
z
M 2253 4666 
L 3047 4666 
L 3047 1625 
L 3713 1625 
L 3713 1100 
L 3047 1100 
L 3047 0 
L 2419 0 
L 2419 1100 
L 313 1100 
L 313 1709 
L 2253 4666 
z
" transform="scale(0.015625)"/>
       </defs>
       <use xlink:href="#DejaVuSans-34"/>
      </g>
     </g>
    </g>
    <g id="text_4">
     <!-- log10 of FEvals / DIM -->
     <g transform="translate(156.430563 339.313125)scale(0.2 -0.2)">
      <defs>
       <path id="DejaVuSans-6c" d="M 603 4863 
L 1178 4863 
L 1178 0 
L 603 0 
L 603 4863 
z
" transform="scale(0.015625)"/>
       <path id="DejaVuSans-6f" d="M 1959 3097 
Q 1497 3097 1228 2736 
Q 959 2375 959 1747 
Q 959 1119 1226 758 
Q 1494 397 1959 397 
Q 2419 397 2687 759 
Q 2956 1122 2956 1747 
Q 2956 2369 2687 2733 
Q 2419 3097 1959 3097 
z
M 1959 3584 
Q 2709 3584 3137 3096 
Q 3566 2609 3566 1747 
Q 3566 888 3137 398 
Q 2709 -91 1959 -91 
Q 1206 -91 779 398 
Q 353 888 353 1747 
Q 353 2609 779 3096 
Q 1206 3584 1959 3584 
z
" transform="scale(0.015625)"/>
       <path id="DejaVuSans-67" d="M 2906 1791 
Q 2906 2416 2648 2759 
Q 2391 3103 1925 3103 
Q 1463 3103 1205 2759 
Q 947 2416 947 1791 
Q 947 1169 1205 825 
Q 1463 481 1925 481 
Q 2391 481 2648 825 
Q 2906 1169 2906 1791 
z
M 3481 434 
Q 3481 -459 3084 -895 
Q 2688 -1331 1869 -1331 
Q 1566 -1331 1297 -1286 
Q 1028 -1241 775 -1147 
L 775 -588 
Q 1028 -725 1275 -790 
Q 1522 -856 1778 -856 
Q 2344 -856 2625 -561 
Q 2906 -266 2906 331 
L 2906 616 
Q 2728 306 2450 153 
Q 2172 0 1784 0 
Q 1141 0 747 490 
Q 353 981 353 1791 
Q 353 2603 747 3093 
Q 1141 3584 1784 3584 
Q 2172 3584 2450 3431 
Q 2728 3278 2906 2969 
L 2906 3500 
L 3481 3500 
L 3481 434 
z
" transform="scale(0.015625)"/>
       <path id="DejaVuSans-31" d="M 794 531 
L 1825 531 
L 1825 4091 
L 703 3866 
L 703 4441 
L 1819 4666 
L 2450 4666 
L 2450 531 
L 3481 531 
L 3481 0 
L 794 0 
L 794 531 
z
" transform="scale(0.015625)"/>
       <path id="DejaVuSans-20" transform="scale(0.015625)"/>
       <path id="DejaVuSans-66" d="M 2375 4863 
L 2375 4384 
L 1825 4384 
Q 1516 4384 1395 4259 
Q 1275 4134 1275 3809 
L 1275 3500 
L 2222 3500 
L 2222 3053 
L 1275 3053 
L 1275 0 
L 697 0 
L 697 3053 
L 147 3053 
L 147 3500 
L 697 3500 
L 697 3744 
Q 697 4328 969 4595 
Q 1241 4863 1831 4863 
L 2375 4863 
z
" transform="scale(0.015625)"/>
       <path id="DejaVuSans-46" d="M 628 4666 
L 3309 4666 
L 3309 4134 
L 1259 4134 
L 1259 2759 
L 3109 2759 
L 3109 2228 
L 1259 2228 
L 1259 0 
L 628 0 
L 628 4666 
z
" transform="scale(0.015625)"/>
       <path id="DejaVuSans-45" d="M 628 4666 
L 3578 4666 
L 3578 4134 
L 1259 4134 
L 1259 2753 
L 3481 2753 
L 3481 2222 
L 1259 2222 
L 1259 531 
L 3634 531 
L 3634 0 
L 628 0 
L 628 4666 
z
" transform="scale(0.015625)"/>
       <path id="DejaVuSans-76" d="M 191 3500 
L 800 3500 
L 1894 563 
L 2988 3500 
L 3597 3500 
L 2284 0 
L 1503 0 
L 191 3500 
z
" transform="scale(0.015625)"/>
       <path id="DejaVuSans-61" d="M 2194 1759 
Q 1497 1759 1228 1600 
Q 959 1441 959 1056 
Q 959 750 1161 570 
Q 1363 391 1709 391 
Q 2188 391 2477 730 
Q 2766 1069 2766 1631 
L 2766 1759 
L 2194 1759 
z
M 3341 1997 
L 3341 0 
L 2766 0 
L 2766 531 
Q 2569 213 2275 61 
Q 1981 -91 1556 -91 
Q 1019 -91 701 211 
Q 384 513 384 1019 
Q 384 1609 779 1909 
Q 1175 2209 1959 2209 
L 2766 2209 
L 2766 2266 
Q 2766 2663 2505 2880 
Q 2244 3097 1772 3097 
Q 1472 3097 1187 3025 
Q 903 2953 641 2809 
L 641 3341 
Q 956 3463 1253 3523 
Q 1550 3584 1831 3584 
Q 2591 3584 2966 3190 
Q 3341 2797 3341 1997 
z
" transform="scale(0.015625)"/>
       <path id="DejaVuSans-73" d="M 2834 3397 
L 2834 2853 
Q 2591 2978 2328 3040 
Q 2066 3103 1784 3103 
Q 1356 3103 1142 2972 
Q 928 2841 928 2578 
Q 928 2378 1081 2264 
Q 1234 2150 1697 2047 
L 1894 2003 
Q 2506 1872 2764 1633 
Q 3022 1394 3022 966 
Q 3022 478 2636 193 
Q 2250 -91 1575 -91 
Q 1294 -91 989 -36 
Q 684 19 347 128 
L 347 722 
Q 666 556 975 473 
Q 1284 391 1588 391 
Q 1994 391 2212 530 
Q 2431 669 2431 922 
Q 2431 1156 2273 1281 
Q 2116 1406 1581 1522 
L 1381 1569 
Q 847 1681 609 1914 
Q 372 2147 372 2553 
Q 372 3047 722 3315 
Q 1072 3584 1716 3584 
Q 2034 3584 2315 3537 
Q 2597 3491 2834 3397 
z
" transform="scale(0.015625)"/>
       <path id="DejaVuSans-2f" d="M 1625 4666 
L 2156 4666 
L 531 -594 
L 0 -594 
L 1625 4666 
z
" transform="scale(0.015625)"/>
       <path id="DejaVuSans-44" d="M 1259 4147 
L 1259 519 
L 2022 519 
Q 2988 519 3436 956 
Q 3884 1394 3884 2338 
Q 3884 3275 3436 3711 
Q 2988 4147 2022 4147 
L 1259 4147 
z
M 628 4666 
L 1925 4666 
Q 3281 4666 3915 4102 
Q 4550 3538 4550 2338 
Q 4550 1131 3912 565 
Q 3275 0 1925 0 
L 628 0 
L 628 4666 
z
" transform="scale(0.015625)"/>
       <path id="DejaVuSans-49" d="M 628 4666 
L 1259 4666 
L 1259 0 
L 628 0 
L 628 4666 
z
" transform="scale(0.015625)"/>
       <path id="DejaVuSans-4d" d="M 628 4666 
L 1569 4666 
L 2759 1491 
L 3956 4666 
L 4897 4666 
L 4897 0 
L 4281 0 
L 4281 4097 
L 3078 897 
L 2444 897 
L 1241 4097 
L 1241 0 
L 628 0 
L 628 4666 
z
" transform="scale(0.015625)"/>
      </defs>
      <use xlink:href="#DejaVuSans-6c"/>
      <use xlink:href="#DejaVuSans-6f" x="27.783203"/>
      <use xlink:href="#DejaVuSans-67" x="88.964844"/>
      <use xlink:href="#DejaVuSans-31" x="152.441406"/>
      <use xlink:href="#DejaVuSans-30" x="216.064453"/>
      <use xlink:href="#DejaVuSans-20" x="279.6875"/>
      <use xlink:href="#DejaVuSans-6f" x="311.474609"/>
      <use xlink:href="#DejaVuSans-66" x="372.65625"/>
      <use xlink:href="#DejaVuSans-20" x="407.861328"/>
      <use xlink:href="#DejaVuSans-46" x="439.648438"/>
      <use xlink:href="#DejaVuSans-45" x="497.167969"/>
      <use xlink:href="#DejaVuSans-76" x="560.351562"/>
      <use xlink:href="#DejaVuSans-61" x="619.53125"/>
      <use xlink:href="#DejaVuSans-6c" x="680.810547"/>
      <use xlink:href="#DejaVuSans-73" x="708.59375"/>
      <use xlink:href="#DejaVuSans-20" x="760.693359"/>
      <use xlink:href="#DejaVuSans-2f" x="792.480469"/>
      <use xlink:href="#DejaVuSans-20" x="826.171875"/>
      <use xlink:href="#DejaVuSans-44" x="857.958984"/>
      <use xlink:href="#DejaVuSans-49" x="934.960938"/>
      <use xlink:href="#DejaVuSans-4d" x="964.453125"/>
     </g>
    </g>
   </g>
   <g id="matplotlib.axis_2">
    <g id="ytick_1">
     <g id="line2d_37">
      <path d="M 62.208 293.76 
L 460.8 293.76 
" clip-path="url(#pb1a1011b0d)" style="fill: none; stroke: #b0b0b0; stroke-width: 0.8; stroke-linecap: square"/>
     </g>
     <g id="line2d_38">
      <defs>
       <path id="mdc04dab9b0" d="M 0 0 
L -3.5 0 
" style="stroke: #000000; stroke-width: 0.8"/>
      </defs>
      <g>
       <use xlink:href="#mdc04dab9b0" x="62.208" y="293.76" style="stroke: #000000; stroke-width: 0.8"/>
      </g>
     </g>
     <g id="text_5">
      <!-- 0.0 -->
      <g transform="translate(29.763 299.83875)scale(0.16 -0.16)">
       <defs>
        <path id="DejaVuSans-2e" d="M 684 794 
L 1344 794 
L 1344 0 
L 684 0 
L 684 794 
z
" transform="scale(0.015625)"/>
       </defs>
       <use xlink:href="#DejaVuSans-30"/>
       <use xlink:href="#DejaVuSans-2e" x="63.623047"/>
       <use xlink:href="#DejaVuSans-30" x="95.410156"/>
      </g>
     </g>
    </g>
    <g id="ytick_2">
     <g id="line2d_39">
      <path d="M 62.208 236.274059 
L 460.8 236.274059 
" clip-path="url(#pb1a1011b0d)" style="fill: none; stroke: #b0b0b0; stroke-width: 0.8; stroke-linecap: square"/>
     </g>
     <g id="line2d_40">
      <g>
       <use xlink:href="#mdc04dab9b0" x="62.208" y="236.274059" style="stroke: #000000; stroke-width: 0.8"/>
      </g>
     </g>
     <g id="text_6">
      <!-- 0.2 -->
      <g transform="translate(29.763 242.352809)scale(0.16 -0.16)">
       <use xlink:href="#DejaVuSans-30"/>
       <use xlink:href="#DejaVuSans-2e" x="63.623047"/>
       <use xlink:href="#DejaVuSans-32" x="95.410156"/>
      </g>
     </g>
    </g>
    <g id="ytick_3">
     <g id="line2d_41">
      <path d="M 62.208 178.788119 
L 460.8 178.788119 
" clip-path="url(#pb1a1011b0d)" style="fill: none; stroke: #b0b0b0; stroke-width: 0.8; stroke-linecap: square"/>
     </g>
     <g id="line2d_42">
      <g>
       <use xlink:href="#mdc04dab9b0" x="62.208" y="178.788119" style="stroke: #000000; stroke-width: 0.8"/>
      </g>
     </g>
     <g id="text_7">
      <!-- 0.4 -->
      <g transform="translate(29.763 184.866869)scale(0.16 -0.16)">
       <use xlink:href="#DejaVuSans-30"/>
       <use xlink:href="#DejaVuSans-2e" x="63.623047"/>
       <use xlink:href="#DejaVuSans-34" x="95.410156"/>
      </g>
     </g>
    </g>
    <g id="ytick_4">
     <g id="line2d_43">
      <path d="M 62.208 121.302178 
L 460.8 121.302178 
" clip-path="url(#pb1a1011b0d)" style="fill: none; stroke: #b0b0b0; stroke-width: 0.8; stroke-linecap: square"/>
     </g>
     <g id="line2d_44">
      <g>
       <use xlink:href="#mdc04dab9b0" x="62.208" y="121.302178" style="stroke: #000000; stroke-width: 0.8"/>
      </g>
     </g>
     <g id="text_8">
      <!-- 0.6 -->
      <g transform="translate(29.763 127.380928)scale(0.16 -0.16)">
       <defs>
        <path id="DejaVuSans-36" d="M 2113 2584 
Q 1688 2584 1439 2293 
Q 1191 2003 1191 1497 
Q 1191 994 1439 701 
Q 1688 409 2113 409 
Q 2538 409 2786 701 
Q 3034 994 3034 1497 
Q 3034 2003 2786 2293 
Q 2538 2584 2113 2584 
z
M 3366 4563 
L 3366 3988 
Q 3128 4100 2886 4159 
Q 2644 4219 2406 4219 
Q 1781 4219 1451 3797 
Q 1122 3375 1075 2522 
Q 1259 2794 1537 2939 
Q 1816 3084 2150 3084 
Q 2853 3084 3261 2657 
Q 3669 2231 3669 1497 
Q 3669 778 3244 343 
Q 2819 -91 2113 -91 
Q 1303 -91 875 529 
Q 447 1150 447 2328 
Q 447 3434 972 4092 
Q 1497 4750 2381 4750 
Q 2619 4750 2861 4703 
Q 3103 4656 3366 4563 
z
" transform="scale(0.015625)"/>
       </defs>
       <use xlink:href="#DejaVuSans-30"/>
       <use xlink:href="#DejaVuSans-2e" x="63.623047"/>
       <use xlink:href="#DejaVuSans-36" x="95.410156"/>
      </g>
     </g>
    </g>
    <g id="ytick_5">
     <g id="line2d_45">
      <path d="M 62.208 63.816238 
L 460.8 63.816238 
" clip-path="url(#pb1a1011b0d)" style="fill: none; stroke: #b0b0b0; stroke-width: 0.8; stroke-linecap: square"/>
     </g>
     <g id="line2d_46">
      <g>
       <use xlink:href="#mdc04dab9b0" x="62.208" y="63.816238" style="stroke: #000000; stroke-width: 0.8"/>
      </g>
     </g>
     <g id="text_9">
      <!-- 0.8 -->
      <g transform="translate(29.763 69.894988)scale(0.16 -0.16)">
       <defs>
        <path id="DejaVuSans-38" d="M 2034 2216 
Q 1584 2216 1326 1975 
Q 1069 1734 1069 1313 
Q 1069 891 1326 650 
Q 1584 409 2034 409 
Q 2484 409 2743 651 
Q 3003 894 3003 1313 
Q 3003 1734 2745 1975 
Q 2488 2216 2034 2216 
z
M 1403 2484 
Q 997 2584 770 2862 
Q 544 3141 544 3541 
Q 544 4100 942 4425 
Q 1341 4750 2034 4750 
Q 2731 4750 3128 4425 
Q 3525 4100 3525 3541 
Q 3525 3141 3298 2862 
Q 3072 2584 2669 2484 
Q 3125 2378 3379 2068 
Q 3634 1759 3634 1313 
Q 3634 634 3220 271 
Q 2806 -91 2034 -91 
Q 1263 -91 848 271 
Q 434 634 434 1313 
Q 434 1759 690 2068 
Q 947 2378 1403 2484 
z
M 1172 3481 
Q 1172 3119 1398 2916 
Q 1625 2713 2034 2713 
Q 2441 2713 2670 2916 
Q 2900 3119 2900 3481 
Q 2900 3844 2670 4047 
Q 2441 4250 2034 4250 
Q 1625 4250 1398 4047 
Q 1172 3844 1172 3481 
z
" transform="scale(0.015625)"/>
       </defs>
       <use xlink:href="#DejaVuSans-30"/>
       <use xlink:href="#DejaVuSans-2e" x="63.623047"/>
       <use xlink:href="#DejaVuSans-38" x="95.410156"/>
      </g>
     </g>
    </g>
    <g id="ytick_6">
     <g id="line2d_47">
      <path d="M 62.208 6.330297 
L 460.8 6.330297 
" clip-path="url(#pb1a1011b0d)" style="fill: none; stroke: #b0b0b0; stroke-width: 0.8; stroke-linecap: square"/>
     </g>
     <g id="line2d_48">
      <g>
       <use xlink:href="#mdc04dab9b0" x="62.208" y="6.330297" style="stroke: #000000; stroke-width: 0.8"/>
      </g>
     </g>
     <g id="text_10">
      <!-- 1.0 -->
      <g transform="translate(29.763 12.409047)scale(0.16 -0.16)">
       <use xlink:href="#DejaVuSans-31"/>
       <use xlink:href="#DejaVuSans-2e" x="63.623047"/>
       <use xlink:href="#DejaVuSans-30" x="95.410156"/>
      </g>
     </g>
    </g>
    <g id="text_11">
     <!-- proportion of trials -->
     <g transform="translate(21.603625 241.61425)rotate(-90)scale(0.2 -0.2)">
      <defs>
       <path id="DejaVuSans-70" d="M 1159 525 
L 1159 -1331 
L 581 -1331 
L 581 3500 
L 1159 3500 
L 1159 2969 
Q 1341 3281 1617 3432 
Q 1894 3584 2278 3584 
Q 2916 3584 3314 3078 
Q 3713 2572 3713 1747 
Q 3713 922 3314 415 
Q 2916 -91 2278 -91 
Q 1894 -91 1617 61 
Q 1341 213 1159 525 
z
M 3116 1747 
Q 3116 2381 2855 2742 
Q 2594 3103 2138 3103 
Q 1681 3103 1420 2742 
Q 1159 2381 1159 1747 
Q 1159 1113 1420 752 
Q 1681 391 2138 391 
Q 2594 391 2855 752 
Q 3116 1113 3116 1747 
z
" transform="scale(0.015625)"/>
       <path id="DejaVuSans-72" d="M 2631 2963 
Q 2534 3019 2420 3045 
Q 2306 3072 2169 3072 
Q 1681 3072 1420 2755 
Q 1159 2438 1159 1844 
L 1159 0 
L 581 0 
L 581 3500 
L 1159 3500 
L 1159 2956 
Q 1341 3275 1631 3429 
Q 1922 3584 2338 3584 
Q 2397 3584 2469 3576 
Q 2541 3569 2628 3553 
L 2631 2963 
z
" transform="scale(0.015625)"/>
       <path id="DejaVuSans-74" d="M 1172 4494 
L 1172 3500 
L 2356 3500 
L 2356 3053 
L 1172 3053 
L 1172 1153 
Q 1172 725 1289 603 
Q 1406 481 1766 481 
L 2356 481 
L 2356 0 
L 1766 0 
Q 1100 0 847 248 
Q 594 497 594 1153 
L 594 3053 
L 172 3053 
L 172 3500 
L 594 3500 
L 594 4494 
L 1172 4494 
z
" transform="scale(0.015625)"/>
       <path id="DejaVuSans-69" d="M 603 3500 
L 1178 3500 
L 1178 0 
L 603 0 
L 603 3500 
z
M 603 4863 
L 1178 4863 
L 1178 4134 
L 603 4134 
L 603 4863 
z
" transform="scale(0.015625)"/>
       <path id="DejaVuSans-6e" d="M 3513 2113 
L 3513 0 
L 2938 0 
L 2938 2094 
Q 2938 2591 2744 2837 
Q 2550 3084 2163 3084 
Q 1697 3084 1428 2787 
Q 1159 2491 1159 1978 
L 1159 0 
L 581 0 
L 581 3500 
L 1159 3500 
L 1159 2956 
Q 1366 3272 1645 3428 
Q 1925 3584 2291 3584 
Q 2894 3584 3203 3211 
Q 3513 2838 3513 2113 
z
" transform="scale(0.015625)"/>
      </defs>
      <use xlink:href="#DejaVuSans-70"/>
      <use xlink:href="#DejaVuSans-72" x="63.476562"/>
      <use xlink:href="#DejaVuSans-6f" x="102.339844"/>
      <use xlink:href="#DejaVuSans-70" x="163.521484"/>
      <use xlink:href="#DejaVuSans-6f" x="226.998047"/>
      <use xlink:href="#DejaVuSans-72" x="288.179688"/>
      <use xlink:href="#DejaVuSans-74" x="329.292969"/>
      <use xlink:href="#DejaVuSans-69" x="368.501953"/>
      <use xlink:href="#DejaVuSans-6f" x="396.285156"/>
      <use xlink:href="#DejaVuSans-6e" x="457.466797"/>
      <use xlink:href="#DejaVuSans-20" x="520.845703"/>
      <use xlink:href="#DejaVuSans-6f" x="552.632812"/>
      <use xlink:href="#DejaVuSans-66" x="613.814453"/>
      <use xlink:href="#DejaVuSans-20" x="649.019531"/>
      <use xlink:href="#DejaVuSans-74" x="680.806641"/>
      <use xlink:href="#DejaVuSans-72" x="720.015625"/>
      <use xlink:href="#DejaVuSans-69" x="761.128906"/>
      <use xlink:href="#DejaVuSans-61" x="788.912109"/>
      <use xlink:href="#DejaVuSans-6c" x="850.191406"/>
      <use xlink:href="#DejaVuSans-73" x="877.974609"/>
     </g>
    </g>
   </g>
   <g id="line2d_49">
    <path d="M 9.668474 293.76 
L 9.668474 274.59802 
L 32.296016 274.59802 
L 32.296016 270.765624 
L 62.208 270.765624 
L 62.208 266.933228 
L 68.159822 266.933228 
L 68.159822 259.268436 
L 77.551101 259.268436 
L 77.551101 255.43604 
L 84.835542 255.43604 
L 84.835542 247.771248 
L 93.40033 247.771248 
L 93.40033 243.938851 
L 119.592644 243.938851 
L 119.592644 240.106455 
L 123.810715 240.106455 
L 123.810715 236.274059 
L 184.991035 236.274059 
L 184.991035 232.441663 
L 189.52049 232.441663 
L 189.52049 228.609267 
L 190.303999 228.609267 
L 190.303999 224.776871 
L 190.432775 224.776871 
L 190.432775 220.944475 
L 190.942857 220.944475 
L 190.942857 217.112079 
L 191.693342 217.112079 
L 191.693342 213.279683 
L 193.025962 213.279683 
L 193.025962 209.447287 
L 193.144454 209.447287 
L 193.144454 205.614891 
L 195.538327 205.614891 
L 195.538327 201.782495 
L 196.512867 201.782495 
L 196.512867 197.950099 
L 198.779335 197.950099 
L 198.779335 194.117703 
L 201.084621 194.117703 
L 201.084621 190.285307 
L 201.361663 190.285307 
L 201.361663 186.452911 
L 202.178957 186.452911 
L 202.178957 182.620515 
L 202.712669 182.620515 
L 202.712669 178.788119 
L 204.094659 178.788119 
L 204.094659 174.955723 
L 204.263366 174.955723 
L 204.263366 171.123327 
L 204.764316 171.123327 
L 204.764316 167.290931 
L 205.094063 167.290931 
L 205.094063 163.458535 
L 205.420512 163.458535 
L 205.420512 159.626139 
L 205.904145 159.626139 
L 205.904145 151.961347 
L 206.143301 151.961347 
L 206.143301 144.296554 
L 207.920845 144.296554 
L 207.920845 140.464158 
L 209.820174 140.464158 
L 209.820174 136.631762 
L 210.032383 136.631762 
L 210.032383 128.96697 
L 210.243221 128.96697 
L 210.243221 125.134574 
L 211.004848 125.134574 
L 211.004848 121.302178 
L 211.480429 121.302178 
L 211.480429 117.469782 
L 212.214047 117.469782 
L 212.214047 113.637386 
L 212.411297 113.637386 
L 212.411297 109.80499 
L 212.802255 109.80499 
L 212.802255 105.972594 
L 213.5704 105.972594 
L 213.5704 102.140198 
L 213.696685 102.140198 
L 213.696685 98.307802 
L 214.811791 98.307802 
L 214.811791 94.475406 
L 215.474955 94.475406 
L 215.474955 90.64301 
L 216.241712 90.64301 
L 216.241712 86.810614 
L 217.611618 86.810614 
L 217.611618 82.978218 
L 218.00058 82.978218 
L 218.00058 79.145822 
L 218.872609 79.145822 
L 218.872609 75.313426 
L 219.300041 75.313426 
L 219.300041 71.48103 
L 219.930875 71.48103 
L 219.930875 67.648634 
L 222.579865 67.648634 
L 222.579865 63.816238 
L 225.029941 63.816238 
L 225.029941 59.983842 
L 226.339393 59.983842 
L 226.339393 56.151446 
L 227.350405 56.151446 
L 227.350405 52.31905 
L 228.371271 52.31905 
L 228.371271 48.486653 
L 229.477975 48.486653 
L 229.477975 44.654257 
L 230.24612 44.654257 
L 230.24612 40.821861 
L 231.693931 40.821861 
L 231.693931 36.989465 
L 233.391977 36.989465 
L 233.391977 33.157069 
L 234.709425 33.157069 
L 234.709425 29.324673 
L 237.560915 29.324673 
L 237.560915 25.492277 
L 237.742442 25.492277 
L 237.742442 21.659881 
L 259.483097 21.659881 
L 259.483097 17.827485 
L 261.350735 17.827485 
L 261.350735 13.995089 
L 263.131146 13.995089 
L 263.131146 10.162693 
L 280.902756 10.162693 
L 280.902756 6.330297 
L 280.902756 6.330297 
L 460.8 6.330297 
L 460.8 6.330297 
" clip-path="url(#pb1a1011b0d)" style="fill: none; stroke: #000000; stroke-width: 1.5; stroke-linecap: square"/>
   </g>
   <g id="line2d_50">
    <path clip-path="url(#pb1a1011b0d)" style="fill: none; stroke: #000000; stroke-width: 1.5; stroke-linecap: square"/>
   </g>
   <g id="line2d_51">
    <path d="M 171.218974 293.76 
L 171.218974 289.927604 
L 172.132171 289.927604 
L 172.132171 286.095208 
L 173.455783 286.095208 
L 173.455783 282.262812 
L 176.151793 282.262812 
L 176.151793 274.59802 
L 177.132186 274.59802 
L 177.132186 270.765624 
L 177.895839 270.765624 
L 177.895839 266.933228 
L 179.73029 266.933228 
L 179.73029 263.100832 
L 180.261109 263.100832 
L 180.261109 259.268436 
L 182.302064 259.268436 
L 182.302064 255.43604 
L 182.466521 255.43604 
L 182.466521 251.603644 
L 182.630153 251.603644 
L 182.630153 247.771248 
L 186.329728 247.771248 
L 186.329728 243.938851 
L 186.619904 243.938851 
L 186.619904 240.106455 
L 197.355356 240.106455 
L 197.355356 236.274059 
L 216.416127 236.274059 
L 216.416127 232.441663 
L 217.499629 232.441663 
L 217.499629 228.609267 
L 217.88992 228.609267 
L 217.88992 224.776871 
L 218.979993 224.776871 
L 218.979993 220.944475 
L 219.353078 220.944475 
L 219.353078 217.112079 
L 219.564371 217.112079 
L 219.564371 213.279683 
L 219.826579 213.279683 
L 219.878768 205.614891 
L 220.293309 205.614891 
L 220.293309 201.782495 
L 220.75346 201.782495 
L 220.75346 197.950099 
L 220.905414 197.950099 
L 220.905414 194.117703 
L 222.338944 194.117703 
L 222.338944 190.285307 
L 223.103715 190.285307 
L 223.103715 186.452911 
L 223.572755 186.452911 
L 223.572755 182.620515 
L 223.850978 182.620515 
L 223.850978 178.788119 
L 224.035151 178.788119 
L 224.035151 174.955723 
L 224.49109 174.955723 
L 224.49109 171.123327 
L 224.806499 171.123327 
L 224.806499 167.290931 
L 225.074446 167.290931 
L 225.074446 163.458535 
L 226.253712 163.458535 
L 226.296581 155.793743 
L 226.38215 155.793743 
L 226.38215 151.961347 
L 226.63752 151.961347 
L 226.679888 144.296554 
L 227.680569 144.296554 
L 227.680569 140.464158 
L 229.283081 140.464158 
L 229.283081 136.631762 
L 229.90269 136.631762 
L 229.90269 132.799366 
L 230.208139 132.799366 
L 230.24612 125.134574 
L 231.548358 125.134574 
L 231.657599 113.637386 
L 232.055048 113.637386 
L 232.126794 105.972594 
L 232.835718 105.972594 
L 232.870763 98.307802 
L 234.30969 98.307802 
L 234.30969 94.475406 
L 235.104325 94.475406 
L 235.104325 90.64301 
L 235.234903 90.64301 
L 235.234903 86.810614 
L 235.719974 86.810614 
L 235.719974 82.978218 
L 236.102907 82.978218 
L 236.102907 79.145822 
L 237.408867 79.145822 
L 237.408867 75.313426 
L 237.742442 75.313426 
L 237.772599 67.648634 
L 238.340346 67.648634 
L 238.340346 63.816238 
L 238.576475 63.816238 
L 238.576475 59.983842 
L 238.810908 59.983842 
L 238.810908 56.151446 
L 239.561392 56.151446 
L 239.646887 48.486653 
L 240.042927 48.486653 
L 240.042927 44.654257 
L 242.060016 44.654257 
L 242.060016 40.821861 
L 245.802044 40.821861 
L 245.802044 36.989465 
L 263.803406 36.989465 
L 263.803406 33.157069 
L 264.248475 33.157069 
L 264.248475 29.324673 
L 266.286589 29.324673 
L 266.286589 25.492277 
L 267.678554 25.492277 
L 267.678554 21.659881 
L 283.365041 21.659881 
L 283.365041 17.827485 
L 286.674466 17.827485 
L 286.674466 13.995089 
L 303.722751 13.995089 
L 303.722751 10.162693 
L 308.135759 10.162693 
L 308.135759 6.330297 
L 308.135759 6.330297 
L 460.8 6.330297 
L 460.8 6.330297 
" clip-path="url(#pb1a1011b0d)" style="fill: none; stroke: #00bfbf; stroke-width: 1.5; stroke-linecap: square"/>
   </g>
   <g id="line2d_52">
    <path clip-path="url(#pb1a1011b0d)" style="fill: none; stroke: #00bfbf; stroke-width: 1.5; stroke-linecap: square"/>
   </g>
   <g id="line2d_53">
    <path d="M 211.209518 293.76 
L 211.209518 289.927604 
L 214.811791 289.927604 
L 214.811791 286.095208 
L 215.474955 286.095208 
L 215.474955 282.262812 
L 215.89006 282.262812 
L 215.89006 278.430416 
L 216.007699 278.430416 
L 216.007699 274.59802 
L 217.047793 274.59802 
L 217.047793 270.765624 
L 217.217965 270.765624 
L 217.217965 266.933228 
L 217.443491 266.933228 
L 217.443491 263.100832 
L 217.778884 263.100832 
L 217.778884 259.268436 
L 220.293309 259.268436 
L 220.293309 255.43604 
L 220.447415 255.43604 
L 220.447415 251.603644 
L 220.854841 251.603644 
L 220.854841 247.771248 
L 221.900755 247.771248 
L 221.900755 243.938851 
L 223.526153 243.938851 
L 223.526153 240.106455 
L 223.804772 240.106455 
L 223.804772 236.274059 
L 227.26734 236.274059 
L 227.26734 232.441663 
L 229.748887 232.441663 
L 229.748887 228.609267 
L 231.181561 228.609267 
L 231.181561 224.776871 
L 231.365475 224.776871 
L 231.365475 220.944475 
L 232.198384 220.944475 
L 232.269816 213.279683 
L 232.765514 213.279683 
L 232.800635 205.614891 
L 233.666591 205.614891 
L 233.666591 201.782495 
L 233.904999 201.782495 
L 233.904999 197.950099 
L 234.208986 197.950099 
L 234.30969 190.285307 
L 234.742516 190.285307 
L 234.742516 186.452911 
L 234.874547 186.452911 
L 234.874547 182.620515 
L 235.071598 182.620515 
L 235.071598 178.788119 
L 237.102629 178.788119 
L 237.102629 174.955723 
L 237.560915 174.955723 
L 237.560915 171.123327 
L 238.042763 171.123327 
L 238.042763 167.290931 
L 238.221638 167.290931 
L 238.221638 163.458535 
L 238.576475 163.458535 
L 238.576475 159.626139 
L 238.752457 159.626139 
L 238.752457 155.793743 
L 240.875744 155.793743 
L 240.930517 148.12895 
L 241.257238 148.12895 
L 241.257238 144.296554 
L 242.427995 144.296554 
L 242.427995 140.464158 
L 242.662381 140.464158 
L 242.662381 136.631762 
L 243.100571 136.631762 
L 243.100571 132.799366 
L 243.633867 132.799366 
L 243.633867 125.134574 
L 243.759569 125.134574 
L 243.759569 121.302178 
L 243.95969 121.302178 
L 244.03442 113.637386 
L 244.232868 113.637386 
L 244.232868 109.80499 
L 244.796778 109.80499 
L 244.796778 105.972594 
L 245.279339 105.972594 
L 245.279339 102.140198 
L 245.422727 102.140198 
L 245.422727 98.307802 
L 245.84915 98.307802 
L 245.896189 90.64301 
L 246.754392 90.64301 
L 246.754392 86.810614 
L 247.299239 86.810614 
L 247.299239 82.978218 
L 247.945689 82.978218 
L 247.945689 79.145822 
L 250.246459 79.145822 
L 250.246459 75.313426 
L 250.390133 75.313426 
L 250.390133 71.48103 
L 251.51731 71.48103 
L 251.51731 67.648634 
L 252.645111 67.648634 
L 252.702399 59.983842 
L 252.797656 59.983842 
L 252.797656 56.151446 
L 254.592685 56.151446 
L 254.592685 52.31905 
L 256.225696 52.31905 
L 256.225696 48.486653 
L 264.275255 48.486653 
L 264.275255 44.654257 
L 264.950823 44.654257 
L 264.950823 40.821861 
L 266.008545 40.821861 
L 266.008545 36.989465 
L 276.445866 36.989465 
L 276.445866 33.157069 
L 277.390836 33.157069 
L 277.390836 29.324673 
L 280.546952 29.324673 
L 280.546952 25.492277 
L 280.789966 25.492277 
L 280.789966 21.659881 
L 291.280281 21.659881 
L 291.280281 17.827485 
L 293.584768 17.827485 
L 293.584768 13.995089 
L 312.149482 13.995089 
L 312.149482 10.162693 
L 315.249337 10.162693 
L 315.249337 6.330297 
L 315.249337 6.330297 
L 460.8 6.330297 
L 460.8 6.330297 
" clip-path="url(#pb1a1011b0d)" style="fill: none; stroke: #bf00bf; stroke-width: 1.5; stroke-linecap: square"/>
   </g>
   <g id="line2d_54">
    <path clip-path="url(#pb1a1011b0d)" style="fill: none; stroke: #bf00bf; stroke-width: 1.5; stroke-linecap: square"/>
   </g>
   <g id="line2d_55">
    <path d="M 237.225469 293.76 
L 237.225469 289.927604 
L 239.646887 289.927604 
L 239.646887 286.095208 
L 240.848323 286.095208 
L 240.848323 282.262812 
L 241.067048 282.262812 
L 241.175864 274.59802 
L 241.500151 274.59802 
L 241.500151 270.765624 
L 241.634326 270.765624 
L 241.634326 266.933228 
L 241.927583 266.933228 
L 241.980621 251.603644 
L 242.191914 251.603644 
L 242.191914 247.771248 
L 242.37568 247.771248 
L 242.37568 243.938851 
L 242.714239 243.938851 
L 242.714239 240.106455 
L 242.946586 240.106455 
L 242.946586 236.274059 
L 243.100571 236.274059 
L 243.100571 232.441663 
L 243.330194 232.441663 
L 243.330194 228.609267 
L 244.009529 228.609267 
L 244.009529 224.776871 
L 244.158592 224.776871 
L 244.25759 213.279683 
L 244.479244 213.279683 
L 244.479244 209.447287 
L 244.918088 209.447287 
L 244.966487 201.782495 
L 245.255379 201.782495 
L 245.255379 197.950099 
L 245.375001 197.950099 
L 245.375001 194.117703 
L 245.494185 194.117703 
L 245.565488 186.452911 
L 245.872678 186.452911 
L 245.872678 182.620515 
L 246.107027 182.620515 
L 246.200297 174.955723 
L 246.800145 174.955723 
L 246.800145 171.123327 
L 247.027952 171.123327 
L 247.027952 167.290931 
L 247.321745 167.290931 
L 247.321745 163.458535 
L 249.052393 163.458535 
L 249.052393 159.626139 
L 249.30743 159.626139 
L 249.30743 155.793743 
L 249.560491 155.793743 
L 249.602478 148.12895 
L 250.18469 148.12895 
L 250.18469 144.296554 
L 250.59429 144.296554 
L 250.59429 140.464158 
L 251.018909 140.464158 
L 251.018909 136.631762 
L 251.773502 136.631762 
L 251.773502 132.799366 
L 252.066632 132.799366 
L 252.066632 128.96697 
L 252.530232 128.96697 
L 252.530232 125.134574 
L 253.251061 125.134574 
L 253.251061 121.302178 
L 254.157658 121.302178 
L 254.157658 117.469782 
L 255.287467 117.469782 
L 255.287467 113.637386 
L 257.336967 113.637386 
L 257.336967 109.80499 
L 257.584339 109.80499 
L 257.584339 105.972594 
L 257.82985 105.972594 
L 257.82985 102.140198 
L 258.888688 102.140198 
L 258.888688 98.307802 
L 259.837682 98.307802 
L 259.837682 94.475406 
L 260.864043 94.475406 
L 260.864043 90.64301 
L 262.698575 90.64301 
L 262.698575 86.810614 
L 263.407212 86.810614 
L 263.407212 82.978218 
L 264.221674 82.978218 
L 264.221674 79.145822 
L 264.581655 79.145822 
L 264.581655 75.313426 
L 264.950823 75.313426 
L 264.950823 71.48103 
L 265.146887 71.48103 
L 265.146887 67.648634 
L 265.664041 67.648634 
L 265.664041 63.816238 
L 265.843127 63.816238 
L 265.843127 59.983842 
L 267.485032 59.983842 
L 267.485032 56.151446 
L 268.594162 56.151446 
L 268.594162 52.31905 
L 279.898226 52.31905 
L 279.898226 48.486653 
L 283.491585 48.486653 
L 283.491585 44.654257 
L 283.905001 44.654257 
L 283.905001 40.821861 
L 284.766502 40.821861 
L 284.837872 33.157069 
L 289.512674 33.157069 
L 289.512674 29.324673 
L 290.653957 29.324673 
L 290.653957 25.492277 
L 293.823844 25.492277 
L 293.823844 21.659881 
L 297.947942 21.659881 
L 297.947942 17.827485 
L 301.253052 17.827485 
L 301.253052 13.995089 
L 318.883953 13.995089 
L 318.883953 10.162693 
L 320.898326 10.162693 
L 320.898326 6.330297 
L 320.898326 6.330297 
L 460.8 6.330297 
L 460.8 6.330297 
" clip-path="url(#pb1a1011b0d)" style="fill: none; stroke: #ff0000; stroke-width: 3; stroke-linecap: square"/>
   </g>
   <g id="line2d_56">
    <path clip-path="url(#pb1a1011b0d)" style="fill: none; stroke: #ff0000; stroke-width: 3; stroke-linecap: square"/>
   </g>
   <g id="line2d_57">
    <path d="M 320.898326 293.76 
L 320.898326 3.456 
" clip-path="url(#pb1a1011b0d)" style="fill: none; stroke: #000000; stroke-width: 1.5; stroke-linecap: square"/>
   </g>
   <g id="patch_3">
    <path d="M 62.208 293.76 
L 62.208 3.456 
" style="fill: none; stroke: #000000; stroke-width: 0.8; stroke-linejoin: miter; stroke-linecap: square"/>
   </g>
   <g id="patch_4">
    <path d="M 460.8 293.76 
L 460.8 3.456 
" style="fill: none; stroke: #000000; stroke-width: 0.8; stroke-linejoin: miter; stroke-linecap: square"/>
   </g>
   <g id="patch_5">
    <path d="M 62.208 293.76 
L 460.8 293.76 
" style="fill: none; stroke: #000000; stroke-width: 0.8; stroke-linejoin: miter; stroke-linecap: square"/>
   </g>
   <g id="patch_6">
    <path d="M 62.208 3.456 
L 460.8 3.456 
" style="fill: none; stroke: #000000; stroke-width: 0.8; stroke-linejoin: miter; stroke-linecap: square"/>
   </g>
   <g id="text_12">
    <!-- {f10-f14}, 5-D -->
    <g transform="translate(188.654 24.458955)scale(0.2 -0.2)">
     <defs>
      <path id="DejaVuSans-7b" d="M 3272 -594 
L 3272 -1044 
L 3078 -1044 
Q 2300 -1044 2036 -812 
Q 1772 -581 1772 109 
L 1772 856 
Q 1772 1328 1603 1509 
Q 1434 1691 991 1691 
L 800 1691 
L 800 2138 
L 991 2138 
Q 1438 2138 1605 2317 
Q 1772 2497 1772 2963 
L 1772 3713 
Q 1772 4403 2036 4633 
Q 2300 4863 3078 4863 
L 3272 4863 
L 3272 4416 
L 3059 4416 
Q 2619 4416 2484 4278 
Q 2350 4141 2350 3700 
L 2350 2925 
Q 2350 2434 2208 2212 
Q 2066 1991 1722 1913 
Q 2069 1828 2209 1606 
Q 2350 1384 2350 897 
L 2350 122 
Q 2350 -319 2484 -456 
Q 2619 -594 3059 -594 
L 3272 -594 
z
" transform="scale(0.015625)"/>
      <path id="DejaVuSans-2d" d="M 313 2009 
L 1997 2009 
L 1997 1497 
L 313 1497 
L 313 2009 
z
" transform="scale(0.015625)"/>
      <path id="DejaVuSans-7d" d="M 800 -594 
L 1019 -594 
Q 1456 -594 1589 -459 
Q 1722 -325 1722 122 
L 1722 897 
Q 1722 1384 1862 1606 
Q 2003 1828 2350 1913 
Q 2003 1991 1862 2212 
Q 1722 2434 1722 2925 
L 1722 3700 
Q 1722 4144 1589 4280 
Q 1456 4416 1019 4416 
L 800 4416 
L 800 4863 
L 997 4863 
Q 1775 4863 2036 4633 
Q 2297 4403 2297 3713 
L 2297 2963 
Q 2297 2497 2465 2317 
Q 2634 2138 3078 2138 
L 3272 2138 
L 3272 1691 
L 3078 1691 
Q 2634 1691 2465 1509 
Q 2297 1328 2297 856 
L 2297 109 
Q 2297 -581 2036 -812 
Q 1775 -1044 997 -1044 
L 800 -1044 
L 800 -594 
z
" transform="scale(0.015625)"/>
      <path id="DejaVuSans-2c" d="M 750 794 
L 1409 794 
L 1409 256 
L 897 -744 
L 494 -744 
L 750 256 
L 750 794 
z
" transform="scale(0.015625)"/>
      <path id="DejaVuSans-35" d="M 691 4666 
L 3169 4666 
L 3169 4134 
L 1269 4134 
L 1269 2991 
Q 1406 3038 1543 3061 
Q 1681 3084 1819 3084 
Q 2600 3084 3056 2656 
Q 3513 2228 3513 1497 
Q 3513 744 3044 326 
Q 2575 -91 1722 -91 
Q 1428 -91 1123 -41 
Q 819 9 494 109 
L 494 744 
Q 775 591 1075 516 
Q 1375 441 1709 441 
Q 2250 441 2565 725 
Q 2881 1009 2881 1497 
Q 2881 1984 2565 2268 
Q 2250 2553 1709 2553 
Q 1456 2553 1204 2497 
Q 953 2441 691 2322 
L 691 4666 
z
" transform="scale(0.015625)"/>
     </defs>
     <use xlink:href="#DejaVuSans-7b"/>
     <use xlink:href="#DejaVuSans-66" x="63.623047"/>
     <use xlink:href="#DejaVuSans-31" x="98.828125"/>
     <use xlink:href="#DejaVuSans-30" x="162.451172"/>
     <use xlink:href="#DejaVuSans-2d" x="226.074219"/>
     <use xlink:href="#DejaVuSans-66" x="262.158203"/>
     <use xlink:href="#DejaVuSans-31" x="297.363281"/>
     <use xlink:href="#DejaVuSans-34" x="360.986328"/>
     <use xlink:href="#DejaVuSans-7d" x="424.609375"/>
     <use xlink:href="#DejaVuSans-2c" x="488.232422"/>
     <use xlink:href="#DejaVuSans-20" x="520.019531"/>
     <use xlink:href="#DejaVuSans-35" x="551.806641"/>
     <use xlink:href="#DejaVuSans-2d" x="615.429688"/>
     <use xlink:href="#DejaVuSans-44" x="651.513672"/>
    </g>
   </g>
   <g id="text_13">
    <!-- absolute targets -->
    <g transform="translate(62.208 609.932673)scale(0.14 -0.14)">
     <defs>
      <path id="DejaVuSans-62" d="M 3116 1747 
Q 3116 2381 2855 2742 
Q 2594 3103 2138 3103 
Q 1681 3103 1420 2742 
Q 1159 2381 1159 1747 
Q 1159 1113 1420 752 
Q 1681 391 2138 391 
Q 2594 391 2855 752 
Q 3116 1113 3116 1747 
z
M 1159 2969 
Q 1341 3281 1617 3432 
Q 1894 3584 2278 3584 
Q 2916 3584 3314 3078 
Q 3713 2572 3713 1747 
Q 3713 922 3314 415 
Q 2916 -91 2278 -91 
Q 1894 -91 1617 61 
Q 1341 213 1159 525 
L 1159 0 
L 581 0 
L 581 4863 
L 1159 4863 
L 1159 2969 
z
" transform="scale(0.015625)"/>
      <path id="DejaVuSans-75" d="M 544 1381 
L 544 3500 
L 1119 3500 
L 1119 1403 
Q 1119 906 1312 657 
Q 1506 409 1894 409 
Q 2359 409 2629 706 
Q 2900 1003 2900 1516 
L 2900 3500 
L 3475 3500 
L 3475 0 
L 2900 0 
L 2900 538 
Q 2691 219 2414 64 
Q 2138 -91 1772 -91 
Q 1169 -91 856 284 
Q 544 659 544 1381 
z
M 1991 3584 
L 1991 3584 
z
" transform="scale(0.015625)"/>
      <path id="DejaVuSans-65" d="M 3597 1894 
L 3597 1613 
L 953 1613 
Q 991 1019 1311 708 
Q 1631 397 2203 397 
Q 2534 397 2845 478 
Q 3156 559 3463 722 
L 3463 178 
Q 3153 47 2828 -22 
Q 2503 -91 2169 -91 
Q 1331 -91 842 396 
Q 353 884 353 1716 
Q 353 2575 817 3079 
Q 1281 3584 2069 3584 
Q 2775 3584 3186 3129 
Q 3597 2675 3597 1894 
z
M 3022 2063 
Q 3016 2534 2758 2815 
Q 2500 3097 2075 3097 
Q 1594 3097 1305 2825 
Q 1016 2553 972 2059 
L 3022 2063 
z
" transform="scale(0.015625)"/>
     </defs>
     <use xlink:href="#DejaVuSans-61"/>
     <use xlink:href="#DejaVuSans-62" x="61.279297"/>
     <use xlink:href="#DejaVuSans-73" x="124.755859"/>
     <use xlink:href="#DejaVuSans-6f" x="176.855469"/>
     <use xlink:href="#DejaVuSans-6c" x="238.037109"/>
     <use xlink:href="#DejaVuSans-75" x="265.820312"/>
     <use xlink:href="#DejaVuSans-74" x="329.199219"/>
     <use xlink:href="#DejaVuSans-65" x="368.408203"/>
     <use xlink:href="#DejaVuSans-20" x="429.931641"/>
     <use xlink:href="#DejaVuSans-74" x="461.71875"/>
     <use xlink:href="#DejaVuSans-61" x="500.927734"/>
     <use xlink:href="#DejaVuSans-72" x="562.207031"/>
     <use xlink:href="#DejaVuSans-67" x="601.570312"/>
     <use xlink:href="#DejaVuSans-65" x="665.046875"/>
     <use xlink:href="#DejaVuSans-74" x="726.570312"/>
     <use xlink:href="#DejaVuSans-73" x="765.779297"/>
    </g>
   </g>
   <g id="text_14">
    <!-- v2.6.3 -->
    <g style="fill: #808080" transform="translate(245.82275 288.777272)scale(0.1 -0.1)">
     <defs>
      <path id="DejaVuSans-33" d="M 2597 2516 
Q 3050 2419 3304 2112 
Q 3559 1806 3559 1356 
Q 3559 666 3084 287 
Q 2609 -91 1734 -91 
Q 1441 -91 1130 -33 
Q 819 25 488 141 
L 488 750 
Q 750 597 1062 519 
Q 1375 441 1716 441 
Q 2309 441 2620 675 
Q 2931 909 2931 1356 
Q 2931 1769 2642 2001 
Q 2353 2234 1838 2234 
L 1294 2234 
L 1294 2753 
L 1863 2753 
Q 2328 2753 2575 2939 
Q 2822 3125 2822 3475 
Q 2822 3834 2567 4026 
Q 2313 4219 1838 4219 
Q 1578 4219 1281 4162 
Q 984 4106 628 3988 
L 628 4550 
Q 988 4650 1302 4700 
Q 1616 4750 1894 4750 
Q 2613 4750 3031 4423 
Q 3450 4097 3450 3541 
Q 3450 3153 3228 2886 
Q 3006 2619 2597 2516 
z
" transform="scale(0.015625)"/>
     </defs>
     <use xlink:href="#DejaVuSans-76"/>
     <use xlink:href="#DejaVuSans-32" x="59.179688"/>
     <use xlink:href="#DejaVuSans-2e" x="122.802734"/>
     <use xlink:href="#DejaVuSans-36" x="154.589844"/>
     <use xlink:href="#DejaVuSans-2e" x="218.212891"/>
     <use xlink:href="#DejaVuSans-33" x="250"/>
    </g>
   </g>
   <g id="legend_1">
    <g id="patch_7">
     <path d="M 76.208 136.881 
L 205.429875 136.881 
Q 209.429875 136.881 209.429875 132.881 
L 209.429875 17.456 
Q 209.429875 13.456 205.429875 13.456 
L 76.208 13.456 
Q 72.208 13.456 72.208 17.456 
L 72.208 132.881 
Q 72.208 136.881 76.208 136.881 
z
" style="fill: #ffffff; opacity: 0.2; stroke: #cccccc; stroke-linejoin: miter"/>
    </g>
    <g id="line2d_58">
     <path d="M 80.208 29.652875 
L 80.208 29.652875 
L 100.208 29.652875 
L 100.208 29.652875 
L 120.208 29.652875 
" style="fill: none; stroke: #000000; stroke-width: 1.5; stroke-linecap: square"/>
    </g>
    <g id="text_15">
     <!-- 1: 5/5 -->
     <g transform="translate(136.208 36.652875)scale(0.2 -0.2)">
      <defs>
       <path id="DejaVuSans-3a" d="M 750 794 
L 1409 794 
L 1409 0 
L 750 0 
L 750 794 
z
M 750 3309 
L 1409 3309 
L 1409 2516 
L 750 2516 
L 750 3309 
z
" transform="scale(0.015625)"/>
      </defs>
      <use xlink:href="#DejaVuSans-31"/>
      <use xlink:href="#DejaVuSans-3a" x="63.623047"/>
      <use xlink:href="#DejaVuSans-20" x="97.314453"/>
      <use xlink:href="#DejaVuSans-35" x="129.101562"/>
      <use xlink:href="#DejaVuSans-2f" x="192.724609"/>
      <use xlink:href="#DejaVuSans-35" x="226.416016"/>
     </g>
    </g>
    <g id="line2d_59">
     <path d="M 80.208 59.009125 
L 80.208 59.009125 
L 100.208 59.009125 
L 100.208 59.009125 
L 120.208 59.009125 
" style="fill: none; stroke: #00bfbf; stroke-width: 1.5; stroke-linecap: square"/>
    </g>
    <g id="text_16">
     <!-- -1: 5/5 -->
     <g transform="translate(136.208 66.009125)scale(0.2 -0.2)">
      <use xlink:href="#DejaVuSans-2d"/>
      <use xlink:href="#DejaVuSans-31" x="36.083984"/>
      <use xlink:href="#DejaVuSans-3a" x="99.707031"/>
      <use xlink:href="#DejaVuSans-20" x="133.398438"/>
      <use xlink:href="#DejaVuSans-35" x="165.185547"/>
      <use xlink:href="#DejaVuSans-2f" x="228.808594"/>
      <use xlink:href="#DejaVuSans-35" x="262.5"/>
     </g>
    </g>
    <g id="line2d_60">
     <path d="M 80.208 88.365375 
L 80.208 88.365375 
L 100.208 88.365375 
L 100.208 88.365375 
L 120.208 88.365375 
" style="fill: none; stroke: #bf00bf; stroke-width: 1.5; stroke-linecap: square"/>
    </g>
    <g id="text_17">
     <!-- -4: 5/5 -->
     <g transform="translate(136.208 95.365375)scale(0.2 -0.2)">
      <use xlink:href="#DejaVuSans-2d"/>
      <use xlink:href="#DejaVuSans-34" x="36.083984"/>
      <use xlink:href="#DejaVuSans-3a" x="99.707031"/>
      <use xlink:href="#DejaVuSans-20" x="133.398438"/>
      <use xlink:href="#DejaVuSans-35" x="165.185547"/>
      <use xlink:href="#DejaVuSans-2f" x="228.808594"/>
      <use xlink:href="#DejaVuSans-35" x="262.5"/>
     </g>
    </g>
    <g id="line2d_61">
     <path d="M 80.208 117.721625 
L 80.208 117.721625 
L 100.208 117.721625 
L 100.208 117.721625 
L 120.208 117.721625 
" style="fill: none; stroke: #ff0000; stroke-width: 3; stroke-linecap: square"/>
    </g>
    <g id="text_18">
     <!-- -8: 5/5 -->
     <g transform="translate(136.208 124.721625)scale(0.2 -0.2)">
      <use xlink:href="#DejaVuSans-2d"/>
      <use xlink:href="#DejaVuSans-38" x="36.083984"/>
      <use xlink:href="#DejaVuSans-3a" x="99.707031"/>
      <use xlink:href="#DejaVuSans-20" x="133.398438"/>
      <use xlink:href="#DejaVuSans-35" x="165.185547"/>
      <use xlink:href="#DejaVuSans-2f" x="228.808594"/>
      <use xlink:href="#DejaVuSans-35" x="262.5"/>
     </g>
    </g>
   </g>
  </g>
 </g>
 <defs>
  <clipPath id="pb1a1011b0d">
   <rect x="62.208" y="3.456" width="398.592" height="290.304"/>
  </clipPath>
 </defs>
</svg>
