<?xml version="1.0" encoding="utf-8" standalone="no"?>
<!DOCTYPE svg PUBLIC "-//W3C//DTD SVG 1.1//EN"
  "http://www.w3.org/Graphics/SVG/1.1/DTD/svg11.dtd">
<svg xmlns:xlink="http://www.w3.org/1999/xlink" width="460.8pt" height="345.6pt" viewBox="0 0 460.8 345.6" xmlns="http://www.w3.org/2000/svg" version="1.1">
 <metadata>
  <rdf:RDF xmlns:dc="http://purl.org/dc/elements/1.1/" xmlns:cc="http://creativecommons.org/ns#" xmlns:rdf="http://www.w3.org/1999/02/22-rdf-syntax-ns#">
   <cc:Work>
    <dc:type rdf:resource="http://purl.org/dc/dcmitype/StillImage"/>
    <dc:date>2023-04-03T10:19:30.899358</dc:date>
    <dc:format>image/svg+xml</dc:format>
    <dc:creator>
     <cc:Agent>
      <dc:title>Matplotlib v3.5.2, https://matplotlib.org/</dc:title>
     </cc:Agent>
    </dc:creator>
   </cc:Work>
  </rdf:RDF>
 </metadata>
 <defs>
  <style type="text/css">*{stroke-linejoin: round; stroke-linecap: butt}</style>
 </defs>
 <g id="figure_1">
  <g id="patch_1">
   <path d="M 0 345.6 
L 460.8 345.6 
L 460.8 0 
L 0 0 
z
" style="fill: #ffffff"/>
  </g>
  <g id="axes_1">
   <g id="patch_2">
    <path d="M 34.16 291.28 
L 453.192 291.28 
L 453.192 3 
L 34.16 3 
z
" style="fill: #ffffff"/>
   </g>
   <g id="matplotlib.axis_1">
    <g id="xtick_1">
     <g id="line2d_1">
      <path d="M 95.507657 291.28 
L 95.507657 3 
" clip-path="url(#p976c800afe)" style="fill: none; stroke: #b0b0b0; stroke-width: 0.8; stroke-linecap: square"/>
     </g>
     <g id="line2d_2">
      <defs>
       <path id="m9114e5bcd3" d="M 0 0 
L 0 3.5 
" style="stroke: #000000; stroke-width: 0.8"/>
      </defs>
      <g>
       <use xlink:href="#m9114e5bcd3" x="95.507657" y="291.28" style="stroke: #000000; stroke-width: 0.8"/>
      </g>
     </g>
     <g id="text_1">
      <!-- -1 -->
      <g transform="translate(85.537345 313.476875)scale(0.2 -0.2)">
       <defs>
        <path id="DejaVuSans-2d" d="M 313 2009 
L 1997 2009 
L 1997 1497 
L 313 1497 
L 313 2009 
z
" transform="scale(0.015625)"/>
        <path id="DejaVuSans-31" d="M 794 531 
L 1825 531 
L 1825 4091 
L 703 3866 
L 703 4441 
L 1819 4666 
L 2450 4666 
L 2450 531 
L 3481 531 
L 3481 0 
L 794 0 
L 794 531 
z
" transform="scale(0.015625)"/>
       </defs>
       <use xlink:href="#DejaVuSans-2d"/>
       <use xlink:href="#DejaVuSans-31" x="36.083984"/>
      </g>
     </g>
    </g>
    <g id="xtick_2">
     <g id="line2d_3">
      <path d="M 243.676 291.28 
L 243.676 3 
" clip-path="url(#p976c800afe)" style="fill: none; stroke: #b0b0b0; stroke-width: 0.8; stroke-linecap: square"/>
     </g>
     <g id="line2d_4">
      <g>
       <use xlink:href="#m9114e5bcd3" x="243.676" y="291.28" style="stroke: #000000; stroke-width: 0.8"/>
      </g>
     </g>
     <g id="text_2">
      <!-- 0 -->
      <g transform="translate(237.3135 313.476875)scale(0.2 -0.2)">
       <defs>
        <path id="DejaVuSans-30" d="M 2034 4250 
Q 1547 4250 1301 3770 
Q 1056 3291 1056 2328 
Q 1056 1369 1301 889 
Q 1547 409 2034 409 
Q 2525 409 2770 889 
Q 3016 1369 3016 2328 
Q 3016 3291 2770 3770 
Q 2525 4250 2034 4250 
z
M 2034 4750 
Q 2819 4750 3233 4129 
Q 3647 3509 3647 2328 
Q 3647 1150 3233 529 
Q 2819 -91 2034 -91 
Q 1250 -91 836 529 
Q 422 1150 422 2328 
Q 422 3509 836 4129 
Q 1250 4750 2034 4750 
z
" transform="scale(0.015625)"/>
       </defs>
       <use xlink:href="#DejaVuSans-30"/>
      </g>
     </g>
    </g>
    <g id="xtick_3">
     <g id="line2d_5">
      <path d="M 391.844343 291.28 
L 391.844343 3 
" clip-path="url(#p976c800afe)" style="fill: none; stroke: #b0b0b0; stroke-width: 0.8; stroke-linecap: square"/>
     </g>
     <g id="line2d_6">
      <g>
       <use xlink:href="#m9114e5bcd3" x="391.844343" y="291.28" style="stroke: #000000; stroke-width: 0.8"/>
      </g>
     </g>
     <g id="text_3">
      <!-- 1 -->
      <g transform="translate(385.481843 313.476875)scale(0.2 -0.2)">
       <use xlink:href="#DejaVuSans-31"/>
      </g>
     </g>
    </g>
    <g id="xtick_4">
     <g id="line2d_7">
      <defs>
       <path id="m39b9b04358" d="M 0 0 
L 0 2 
" style="stroke: #000000; stroke-width: 0.6"/>
      </defs>
      <g>
       <use xlink:href="#m39b9b04358" x="36.545546" y="291.28" style="stroke: #000000; stroke-width: 0.6"/>
      </g>
     </g>
    </g>
    <g id="xtick_5">
     <g id="line2d_8">
      <g>
       <use xlink:href="#m39b9b04358" x="50.904542" y="291.28" style="stroke: #000000; stroke-width: 0.6"/>
      </g>
     </g>
    </g>
    <g id="xtick_6">
     <g id="line2d_9">
      <g>
       <use xlink:href="#m39b9b04358" x="62.636696" y="291.28" style="stroke: #000000; stroke-width: 0.6"/>
      </g>
     </g>
    </g>
    <g id="xtick_7">
     <g id="line2d_10">
      <g>
       <use xlink:href="#m39b9b04358" x="72.556091" y="291.28" style="stroke: #000000; stroke-width: 0.6"/>
      </g>
     </g>
    </g>
    <g id="xtick_8">
     <g id="line2d_11">
      <g>
       <use xlink:href="#m39b9b04358" x="81.148661" y="291.28" style="stroke: #000000; stroke-width: 0.6"/>
      </g>
     </g>
    </g>
    <g id="xtick_9">
     <g id="line2d_12">
      <g>
       <use xlink:href="#m39b9b04358" x="88.727846" y="291.28" style="stroke: #000000; stroke-width: 0.6"/>
      </g>
     </g>
    </g>
    <g id="xtick_10">
     <g id="line2d_13">
      <g>
       <use xlink:href="#m39b9b04358" x="140.110773" y="291.28" style="stroke: #000000; stroke-width: 0.6"/>
      </g>
     </g>
    </g>
    <g id="xtick_11">
     <g id="line2d_14">
      <g>
       <use xlink:href="#m39b9b04358" x="166.201923" y="291.28" style="stroke: #000000; stroke-width: 0.6"/>
      </g>
     </g>
    </g>
    <g id="xtick_12">
     <g id="line2d_15">
      <g>
       <use xlink:href="#m39b9b04358" x="184.713888" y="291.28" style="stroke: #000000; stroke-width: 0.6"/>
      </g>
     </g>
    </g>
    <g id="xtick_13">
     <g id="line2d_16">
      <g>
       <use xlink:href="#m39b9b04358" x="199.072884" y="291.28" style="stroke: #000000; stroke-width: 0.6"/>
      </g>
     </g>
    </g>
    <g id="xtick_14">
     <g id="line2d_17">
      <g>
       <use xlink:href="#m39b9b04358" x="210.805038" y="291.28" style="stroke: #000000; stroke-width: 0.6"/>
      </g>
     </g>
    </g>
    <g id="xtick_15">
     <g id="line2d_18">
      <g>
       <use xlink:href="#m39b9b04358" x="220.724433" y="291.28" style="stroke: #000000; stroke-width: 0.6"/>
      </g>
     </g>
    </g>
    <g id="xtick_16">
     <g id="line2d_19">
      <g>
       <use xlink:href="#m39b9b04358" x="229.317004" y="291.28" style="stroke: #000000; stroke-width: 0.6"/>
      </g>
     </g>
    </g>
    <g id="xtick_17">
     <g id="line2d_20">
      <g>
       <use xlink:href="#m39b9b04358" x="236.896188" y="291.28" style="stroke: #000000; stroke-width: 0.6"/>
      </g>
     </g>
    </g>
    <g id="xtick_18">
     <g id="line2d_21">
      <g>
       <use xlink:href="#m39b9b04358" x="288.279116" y="291.28" style="stroke: #000000; stroke-width: 0.6"/>
      </g>
     </g>
    </g>
    <g id="xtick_19">
     <g id="line2d_22">
      <g>
       <use xlink:href="#m39b9b04358" x="314.370266" y="291.28" style="stroke: #000000; stroke-width: 0.6"/>
      </g>
     </g>
    </g>
    <g id="xtick_20">
     <g id="line2d_23">
      <g>
       <use xlink:href="#m39b9b04358" x="332.882231" y="291.28" style="stroke: #000000; stroke-width: 0.6"/>
      </g>
     </g>
    </g>
    <g id="xtick_21">
     <g id="line2d_24">
      <g>
       <use xlink:href="#m39b9b04358" x="347.241227" y="291.28" style="stroke: #000000; stroke-width: 0.6"/>
      </g>
     </g>
    </g>
    <g id="xtick_22">
     <g id="line2d_25">
      <g>
       <use xlink:href="#m39b9b04358" x="358.973381" y="291.28" style="stroke: #000000; stroke-width: 0.6"/>
      </g>
     </g>
    </g>
    <g id="xtick_23">
     <g id="line2d_26">
      <g>
       <use xlink:href="#m39b9b04358" x="368.892776" y="291.28" style="stroke: #000000; stroke-width: 0.6"/>
      </g>
     </g>
    </g>
    <g id="xtick_24">
     <g id="line2d_27">
      <g>
       <use xlink:href="#m39b9b04358" x="377.485347" y="291.28" style="stroke: #000000; stroke-width: 0.6"/>
      </g>
     </g>
    </g>
    <g id="xtick_25">
     <g id="line2d_28">
      <g>
       <use xlink:href="#m39b9b04358" x="385.064531" y="291.28" style="stroke: #000000; stroke-width: 0.6"/>
      </g>
     </g>
    </g>
    <g id="xtick_26">
     <g id="line2d_29">
      <g>
       <use xlink:href="#m39b9b04358" x="436.447458" y="291.28" style="stroke: #000000; stroke-width: 0.6"/>
      </g>
     </g>
    </g>
    <g id="text_4">
     <!-- log10 of FEvals ratio -->
     <g transform="translate(141.371312 336.833125)scale(0.2 -0.2)">
      <defs>
       <path id="DejaVuSans-6c" d="M 603 4863 
L 1178 4863 
L 1178 0 
L 603 0 
L 603 4863 
z
" transform="scale(0.015625)"/>
       <path id="DejaVuSans-6f" d="M 1959 3097 
Q 1497 3097 1228 2736 
Q 959 2375 959 1747 
Q 959 1119 1226 758 
Q 1494 397 1959 397 
Q 2419 397 2687 759 
Q 2956 1122 2956 1747 
Q 2956 2369 2687 2733 
Q 2419 3097 1959 3097 
z
M 1959 3584 
Q 2709 3584 3137 3096 
Q 3566 2609 3566 1747 
Q 3566 888 3137 398 
Q 2709 -91 1959 -91 
Q 1206 -91 779 398 
Q 353 888 353 1747 
Q 353 2609 779 3096 
Q 1206 3584 1959 3584 
z
" transform="scale(0.015625)"/>
       <path id="DejaVuSans-67" d="M 2906 1791 
Q 2906 2416 2648 2759 
Q 2391 3103 1925 3103 
Q 1463 3103 1205 2759 
Q 947 2416 947 1791 
Q 947 1169 1205 825 
Q 1463 481 1925 481 
Q 2391 481 2648 825 
Q 2906 1169 2906 1791 
z
M 3481 434 
Q 3481 -459 3084 -895 
Q 2688 -1331 1869 -1331 
Q 1566 -1331 1297 -1286 
Q 1028 -1241 775 -1147 
L 775 -588 
Q 1028 -725 1275 -790 
Q 1522 -856 1778 -856 
Q 2344 -856 2625 -561 
Q 2906 -266 2906 331 
L 2906 616 
Q 2728 306 2450 153 
Q 2172 0 1784 0 
Q 1141 0 747 490 
Q 353 981 353 1791 
Q 353 2603 747 3093 
Q 1141 3584 1784 3584 
Q 2172 3584 2450 3431 
Q 2728 3278 2906 2969 
L 2906 3500 
L 3481 3500 
L 3481 434 
z
" transform="scale(0.015625)"/>
       <path id="DejaVuSans-20" transform="scale(0.015625)"/>
       <path id="DejaVuSans-66" d="M 2375 4863 
L 2375 4384 
L 1825 4384 
Q 1516 4384 1395 4259 
Q 1275 4134 1275 3809 
L 1275 3500 
L 2222 3500 
L 2222 3053 
L 1275 3053 
L 1275 0 
L 697 0 
L 697 3053 
L 147 3053 
L 147 3500 
L 697 3500 
L 697 3744 
Q 697 4328 969 4595 
Q 1241 4863 1831 4863 
L 2375 4863 
z
" transform="scale(0.015625)"/>
       <path id="DejaVuSans-46" d="M 628 4666 
L 3309 4666 
L 3309 4134 
L 1259 4134 
L 1259 2759 
L 3109 2759 
L 3109 2228 
L 1259 2228 
L 1259 0 
L 628 0 
L 628 4666 
z
" transform="scale(0.015625)"/>
       <path id="DejaVuSans-45" d="M 628 4666 
L 3578 4666 
L 3578 4134 
L 1259 4134 
L 1259 2753 
L 3481 2753 
L 3481 2222 
L 1259 2222 
L 1259 531 
L 3634 531 
L 3634 0 
L 628 0 
L 628 4666 
z
" transform="scale(0.015625)"/>
       <path id="DejaVuSans-76" d="M 191 3500 
L 800 3500 
L 1894 563 
L 2988 3500 
L 3597 3500 
L 2284 0 
L 1503 0 
L 191 3500 
z
" transform="scale(0.015625)"/>
       <path id="DejaVuSans-61" d="M 2194 1759 
Q 1497 1759 1228 1600 
Q 959 1441 959 1056 
Q 959 750 1161 570 
Q 1363 391 1709 391 
Q 2188 391 2477 730 
Q 2766 1069 2766 1631 
L 2766 1759 
L 2194 1759 
z
M 3341 1997 
L 3341 0 
L 2766 0 
L 2766 531 
Q 2569 213 2275 61 
Q 1981 -91 1556 -91 
Q 1019 -91 701 211 
Q 384 513 384 1019 
Q 384 1609 779 1909 
Q 1175 2209 1959 2209 
L 2766 2209 
L 2766 2266 
Q 2766 2663 2505 2880 
Q 2244 3097 1772 3097 
Q 1472 3097 1187 3025 
Q 903 2953 641 2809 
L 641 3341 
Q 956 3463 1253 3523 
Q 1550 3584 1831 3584 
Q 2591 3584 2966 3190 
Q 3341 2797 3341 1997 
z
" transform="scale(0.015625)"/>
       <path id="DejaVuSans-73" d="M 2834 3397 
L 2834 2853 
Q 2591 2978 2328 3040 
Q 2066 3103 1784 3103 
Q 1356 3103 1142 2972 
Q 928 2841 928 2578 
Q 928 2378 1081 2264 
Q 1234 2150 1697 2047 
L 1894 2003 
Q 2506 1872 2764 1633 
Q 3022 1394 3022 966 
Q 3022 478 2636 193 
Q 2250 -91 1575 -91 
Q 1294 -91 989 -36 
Q 684 19 347 128 
L 347 722 
Q 666 556 975 473 
Q 1284 391 1588 391 
Q 1994 391 2212 530 
Q 2431 669 2431 922 
Q 2431 1156 2273 1281 
Q 2116 1406 1581 1522 
L 1381 1569 
Q 847 1681 609 1914 
Q 372 2147 372 2553 
Q 372 3047 722 3315 
Q 1072 3584 1716 3584 
Q 2034 3584 2315 3537 
Q 2597 3491 2834 3397 
z
" transform="scale(0.015625)"/>
       <path id="DejaVuSans-72" d="M 2631 2963 
Q 2534 3019 2420 3045 
Q 2306 3072 2169 3072 
Q 1681 3072 1420 2755 
Q 1159 2438 1159 1844 
L 1159 0 
L 581 0 
L 581 3500 
L 1159 3500 
L 1159 2956 
Q 1341 3275 1631 3429 
Q 1922 3584 2338 3584 
Q 2397 3584 2469 3576 
Q 2541 3569 2628 3553 
L 2631 2963 
z
" transform="scale(0.015625)"/>
       <path id="DejaVuSans-74" d="M 1172 4494 
L 1172 3500 
L 2356 3500 
L 2356 3053 
L 1172 3053 
L 1172 1153 
Q 1172 725 1289 603 
Q 1406 481 1766 481 
L 2356 481 
L 2356 0 
L 1766 0 
Q 1100 0 847 248 
Q 594 497 594 1153 
L 594 3053 
L 172 3053 
L 172 3500 
L 594 3500 
L 594 4494 
L 1172 4494 
z
" transform="scale(0.015625)"/>
       <path id="DejaVuSans-69" d="M 603 3500 
L 1178 3500 
L 1178 0 
L 603 0 
L 603 3500 
z
M 603 4863 
L 1178 4863 
L 1178 4134 
L 603 4134 
L 603 4863 
z
" transform="scale(0.015625)"/>
      </defs>
      <use xlink:href="#DejaVuSans-6c"/>
      <use xlink:href="#DejaVuSans-6f" x="27.783203"/>
      <use xlink:href="#DejaVuSans-67" x="88.964844"/>
      <use xlink:href="#DejaVuSans-31" x="152.441406"/>
      <use xlink:href="#DejaVuSans-30" x="216.064453"/>
      <use xlink:href="#DejaVuSans-20" x="279.6875"/>
      <use xlink:href="#DejaVuSans-6f" x="311.474609"/>
      <use xlink:href="#DejaVuSans-66" x="372.65625"/>
      <use xlink:href="#DejaVuSans-20" x="407.861328"/>
      <use xlink:href="#DejaVuSans-46" x="439.648438"/>
      <use xlink:href="#DejaVuSans-45" x="497.167969"/>
      <use xlink:href="#DejaVuSans-76" x="560.351562"/>
      <use xlink:href="#DejaVuSans-61" x="619.53125"/>
      <use xlink:href="#DejaVuSans-6c" x="680.810547"/>
      <use xlink:href="#DejaVuSans-73" x="708.59375"/>
      <use xlink:href="#DejaVuSans-20" x="760.693359"/>
      <use xlink:href="#DejaVuSans-72" x="792.480469"/>
      <use xlink:href="#DejaVuSans-61" x="833.59375"/>
      <use xlink:href="#DejaVuSans-74" x="894.873047"/>
      <use xlink:href="#DejaVuSans-69" x="934.082031"/>
      <use xlink:href="#DejaVuSans-6f" x="961.865234"/>
     </g>
    </g>
   </g>
   <g id="matplotlib.axis_2">
    <g id="ytick_1">
     <g id="line2d_30">
      <path d="M 34.16 288.453725 
L 453.192 288.453725 
" clip-path="url(#p976c800afe)" style="fill: none; stroke: #b0b0b0; stroke-width: 0.8; stroke-linecap: square"/>
     </g>
     <g id="line2d_31">
      <defs>
       <path id="m79aa72a8de" d="M 0 0 
L -3.5 0 
" style="stroke: #000000; stroke-width: 0.8"/>
      </defs>
      <g>
       <use xlink:href="#m79aa72a8de" x="34.16" y="288.453725" style="stroke: #000000; stroke-width: 0.8"/>
      </g>
     </g>
    </g>
    <g id="ytick_2">
     <g id="line2d_32">
      <path d="M 34.16 217.796863 
L 453.192 217.796863 
" clip-path="url(#p976c800afe)" style="fill: none; stroke: #b0b0b0; stroke-width: 0.8; stroke-linecap: square"/>
     </g>
     <g id="line2d_33">
      <g>
       <use xlink:href="#m79aa72a8de" x="34.16" y="217.796863" style="stroke: #000000; stroke-width: 0.8"/>
      </g>
     </g>
    </g>
    <g id="ytick_3">
     <g id="line2d_34">
      <path d="M 34.16 147.14 
L 453.192 147.14 
" clip-path="url(#p976c800afe)" style="fill: none; stroke: #b0b0b0; stroke-width: 0.8; stroke-linecap: square"/>
     </g>
     <g id="line2d_35">
      <g>
       <use xlink:href="#m79aa72a8de" x="34.16" y="147.14" style="stroke: #000000; stroke-width: 0.8"/>
      </g>
     </g>
    </g>
    <g id="ytick_4">
     <g id="line2d_36">
      <path d="M 34.16 76.483137 
L 453.192 76.483137 
" clip-path="url(#p976c800afe)" style="fill: none; stroke: #b0b0b0; stroke-width: 0.8; stroke-linecap: square"/>
     </g>
     <g id="line2d_37">
      <g>
       <use xlink:href="#m79aa72a8de" x="34.16" y="76.483137" style="stroke: #000000; stroke-width: 0.8"/>
      </g>
     </g>
    </g>
    <g id="ytick_5">
     <g id="line2d_38">
      <path d="M 34.16 5.826275 
L 453.192 5.826275 
" clip-path="url(#p976c800afe)" style="fill: none; stroke: #b0b0b0; stroke-width: 0.8; stroke-linecap: square"/>
     </g>
     <g id="line2d_39">
      <g>
       <use xlink:href="#m79aa72a8de" x="34.16" y="5.826275" style="stroke: #000000; stroke-width: 0.8"/>
      </g>
     </g>
    </g>
    <g id="text_5">
     <!-- proportion of trials -->
     <g transform="translate(19.000625 240.14625)rotate(-90)scale(0.2 -0.2)">
      <defs>
       <path id="DejaVuSans-70" d="M 1159 525 
L 1159 -1331 
L 581 -1331 
L 581 3500 
L 1159 3500 
L 1159 2969 
Q 1341 3281 1617 3432 
Q 1894 3584 2278 3584 
Q 2916 3584 3314 3078 
Q 3713 2572 3713 1747 
Q 3713 922 3314 415 
Q 2916 -91 2278 -91 
Q 1894 -91 1617 61 
Q 1341 213 1159 525 
z
M 3116 1747 
Q 3116 2381 2855 2742 
Q 2594 3103 2138 3103 
Q 1681 3103 1420 2742 
Q 1159 2381 1159 1747 
Q 1159 1113 1420 752 
Q 1681 391 2138 391 
Q 2594 391 2855 752 
Q 3116 1113 3116 1747 
z
" transform="scale(0.015625)"/>
       <path id="DejaVuSans-6e" d="M 3513 2113 
L 3513 0 
L 2938 0 
L 2938 2094 
Q 2938 2591 2744 2837 
Q 2550 3084 2163 3084 
Q 1697 3084 1428 2787 
Q 1159 2491 1159 1978 
L 1159 0 
L 581 0 
L 581 3500 
L 1159 3500 
L 1159 2956 
Q 1366 3272 1645 3428 
Q 1925 3584 2291 3584 
Q 2894 3584 3203 3211 
Q 3513 2838 3513 2113 
z
" transform="scale(0.015625)"/>
      </defs>
      <use xlink:href="#DejaVuSans-70"/>
      <use xlink:href="#DejaVuSans-72" x="63.476562"/>
      <use xlink:href="#DejaVuSans-6f" x="102.339844"/>
      <use xlink:href="#DejaVuSans-70" x="163.521484"/>
      <use xlink:href="#DejaVuSans-6f" x="226.998047"/>
      <use xlink:href="#DejaVuSans-72" x="288.179688"/>
      <use xlink:href="#DejaVuSans-74" x="329.292969"/>
      <use xlink:href="#DejaVuSans-69" x="368.501953"/>
      <use xlink:href="#DejaVuSans-6f" x="396.285156"/>
      <use xlink:href="#DejaVuSans-6e" x="457.466797"/>
      <use xlink:href="#DejaVuSans-20" x="520.845703"/>
      <use xlink:href="#DejaVuSans-6f" x="552.632812"/>
      <use xlink:href="#DejaVuSans-66" x="613.814453"/>
      <use xlink:href="#DejaVuSans-20" x="649.019531"/>
      <use xlink:href="#DejaVuSans-74" x="680.806641"/>
      <use xlink:href="#DejaVuSans-72" x="720.015625"/>
      <use xlink:href="#DejaVuSans-69" x="761.128906"/>
      <use xlink:href="#DejaVuSans-61" x="788.912109"/>
      <use xlink:href="#DejaVuSans-6c" x="850.191406"/>
      <use xlink:href="#DejaVuSans-73" x="877.974609"/>
     </g>
    </g>
   </g>
   <g id="line2d_40">
    <path d="M 34.16 288.453725 
L 141.500102 288.453725 
L 141.500102 287.511634 
L 152.393824 287.511634 
L 152.393824 285.627451 
L 152.880831 285.627451 
L 152.880831 284.685359 
L 154.782902 284.685359 
L 154.782902 283.743268 
L 158.90937 283.743268 
L 158.90937 282.801176 
L 161.312329 282.801176 
L 161.312329 281.859085 
L 162.431465 281.859085 
L 162.431465 280.916993 
L 163.06234 280.916993 
L 163.06234 279.974902 
L 163.507661 279.974902 
L 163.531469 278.090719 
L 164.612985 278.090719 
L 164.612985 277.148627 
L 166.201923 277.148627 
L 166.201923 276.206536 
L 170.243079 276.206536 
L 170.243079 275.264444 
L 171.713739 275.264444 
L 171.713739 274.322353 
L 172.981734 274.322353 
L 172.981734 273.380261 
L 174.071097 273.380261 
L 174.071097 272.43817 
L 174.380674 272.43817 
L 174.380674 271.496078 
L 175.239815 271.496078 
L 175.239815 270.553987 
L 175.530531 270.553987 
L 175.530531 269.611895 
L 182.142047 269.611895 
L 182.142047 268.669804 
L 182.901129 268.669804 
L 182.901129 267.727712 
L 183.353923 267.727712 
L 183.353923 266.785621 
L 184.300069 266.785621 
L 184.320317 264.901438 
L 185.15921 264.901438 
L 185.15921 263.959346 
L 185.493882 263.959346 
L 185.493882 262.075163 
L 185.880362 262.075163 
L 185.880362 261.133072 
L 186.424253 261.133072 
L 186.424253 259.248889 
L 186.541357 259.248889 
L 186.541357 258.306797 
L 187.403479 258.306797 
L 187.482001 256.422614 
L 188.443428 256.422614 
L 188.443428 255.480523 
L 190.782657 255.480523 
L 190.782657 254.538431 
L 192.371595 254.538431 
L 192.371595 253.59634 
L 192.914259 253.59634 
L 192.939799 251.712157 
L 193.03577 251.712157 
L 193.03577 249.827974 
L 193.23296 249.827974 
L 193.23296 248.885882 
L 194.247646 248.885882 
L 194.247646 247.001699 
L 194.972855 247.001699 
L 194.972855 246.059608 
L 195.13503 246.059608 
L 195.13503 245.117516 
L 196.091991 245.117516 
L 196.091991 244.175425 
L 197.191995 244.175425 
L 197.191995 243.233333 
L 197.401396 243.233333 
L 197.401396 242.291242 
L 197.53809 242.291242 
L 197.53809 241.34915 
L 198.273511 241.34915 
L 198.273511 240.407059 
L 199.327731 240.407059 
L 199.327731 239.464967 
L 199.551316 239.464967 
L 199.551316 238.522876 
L 199.862449 238.522876 
L 199.862449 237.580784 
L 200.702052 237.580784 
L 200.763191 235.696601 
L 201.664457 235.696601 
L 201.664457 234.75451 
L 202.066387 234.75451 
L 202.066387 233.812418 
L 202.29099 233.812418 
L 202.29099 232.870327 
L 202.514811 232.870327 
L 202.514811 231.928235 
L 202.783593 231.928235 
L 202.783593 230.986144 
L 203.883598 230.986144 
L 203.883598 230.044052 
L 204.149607 230.044052 
L 204.149607 229.101961 
L 204.273508 229.101961 
L 204.273508 228.159869 
L 204.9268 228.159869 
L 204.965114 226.275686 
L 205.361482 226.275686 
L 205.374265 224.391503 
L 206.415927 224.391503 
L 206.415927 223.449412 
L 206.554051 223.449412 
L 206.554051 222.50732 
L 206.765459 222.50732 
L 206.765459 221.565229 
L 207.731623 221.565229 
L 207.731623 220.623137 
L 208.406673 220.623137 
L 208.406673 219.681046 
L 209.270244 219.681046 
L 209.270244 218.738954 
L 210.292297 218.738954 
L 210.292297 217.796863 
L 210.885024 217.796863 
L 210.885024 216.854771 
L 212.065867 216.854771 
L 212.0969 214.970588 
L 212.194367 214.970588 
L 212.194367 214.028497 
L 212.434206 214.028497 
L 212.434206 212.144314 
L 212.816099 212.144314 
L 212.816099 211.202222 
L 213.067298 211.202222 
L 213.067298 210.260131 
L 213.573151 210.260131 
L 213.573151 209.318039 
L 213.798541 209.318039 
L 213.798541 208.375948 
L 214.423226 208.375948 
L 214.423226 207.433856 
L 215.881761 207.433856 
L 215.881761 206.491765 
L 216.335322 206.491765 
L 216.335322 205.549673 
L 216.931558 205.549673 
L 216.931558 204.607582 
L 217.093636 204.607582 
L 217.093636 203.66549 
L 217.58485 203.66549 
L 217.58485 202.723399 
L 217.980843 202.723399 
L 217.980843 201.781307 
L 218.723795 201.781307 
L 218.723795 200.839216 
L 219.154408 200.839216 
L 219.189639 198.012941 
L 219.540888 198.012941 
L 219.540888 197.07085 
L 219.842931 197.07085 
L 219.842931 196.128758 
L 220.013391 196.128758 
L 220.013391 195.186667 
L 220.211692 195.186667 
L 220.211692 194.244575 
L 220.350674 194.244575 
L 220.350674 193.302484 
L 220.942935 193.302484 
L 220.942935 192.360392 
L 221.064005 192.360392 
L 221.064005 191.418301 
L 222.024451 191.418301 
L 222.024451 190.476209 
L 222.353601 190.476209 
L 222.353601 189.534118 
L 223.492546 189.534118 
L 223.543075 187.649935 
L 223.613388 187.649935 
L 223.613388 186.707843 
L 224.134433 186.707843 
L 224.134433 185.765752 
L 224.672445 185.765752 
L 224.75495 183.881569 
L 225.801155 183.881569 
L 225.84601 181.055294 
L 226.23249 181.055294 
L 226.23249 180.113203 
L 226.793202 180.113203 
L 226.793202 179.171111 
L 226.944687 179.171111 
L 227.013031 177.286928 
L 227.659864 177.286928 
L 227.755607 175.402745 
L 228.391108 175.402745 
L 228.391108 174.460654 
L 229.125204 174.460654 
L 229.125204 173.518562 
L 229.498524 173.518562 
L 229.498524 172.576471 
L 229.932786 172.576471 
L 229.950095 170.692288 
L 230.229767 170.692288 
L 230.229767 169.750196 
L 230.681338 169.750196 
L 230.681338 168.808105 
L 231.244397 168.808105 
L 231.244397 166.923922 
L 231.482563 166.923922 
L 231.482563 165.98183 
L 231.943846 165.98183 
L 231.943846 164.097647 
L 232.085117 164.097647 
L 232.177417 162.213464 
L 233.35816 162.213464 
L 233.35816 161.271373 
L 233.556204 161.271373 
L 233.556204 160.329281 
L 233.845916 160.329281 
L 233.845916 159.38719 
L 234.016076 159.38719 
L 234.016076 158.445098 
L 234.467648 158.445098 
L 234.467648 157.503007 
L 234.76808 157.503007 
L 234.76808 156.560915 
L 236.096816 156.560915 
L 236.096816 155.618824 
L 236.712597 155.618824 
L 236.712597 154.676732 
L 237.23576 154.676732 
L 237.23576 153.734641 
L 237.754704 153.734641 
L 237.759942 151.850458 
L 237.977705 151.850458 
L 237.977705 150.908366 
L 238.708948 150.908366 
L 238.708948 149.966275 
L 238.957228 149.966275 
L 238.957228 149.024183 
L 239.158448 149.024183 
L 239.158448 147.14 
L 239.889691 147.14 
L 239.969677 144.313725 
L 240.375344 144.313725 
L 240.375344 143.371634 
L 240.536417 143.371634 
L 240.536417 142.429542 
L 240.795888 142.429542 
L 240.795888 141.487451 
L 241.181552 141.487451 
L 241.247459 139.603268 
L 241.494479 139.603268 
L 241.494479 138.661176 
L 241.731783 138.661176 
L 241.731783 137.719085 
L 242.004511 137.719085 
L 242.067199 135.834902 
L 242.125354 135.834902 
L 242.205109 133.950719 
L 242.358233 133.950719 
L 242.358233 133.008627 
L 242.495257 133.008627 
L 242.594484 131.124444 
L 242.708332 131.124444 
L 242.708332 130.182353 
L 242.905348 130.182353 
L 242.936352 127.356078 
L 243.291828 127.356078 
L 243.291828 126.413987 
L 243.676 126.413987 
L 243.676 123.587712 
L 243.920208 123.587712 
L 243.920208 122.645621 
L 244.814945 122.645621 
L 244.814945 121.703529 
L 245.264937 121.703529 
L 245.264937 120.761438 
L 245.568745 120.761438 
L 245.568745 119.819346 
L 245.821155 119.819346 
L 245.821155 118.877255 
L 246.059557 118.877255 
L 246.059557 117.935163 
L 246.536413 117.935163 
L 246.552398 116.05098 
L 246.722661 116.05098 
L 246.780621 114.166797 
L 247.212532 114.166797 
L 247.212532 113.224706 
L 247.407404 113.224706 
L 247.407404 112.282614 
L 247.674099 112.282614 
L 247.674099 111.340523 
L 247.943775 111.340523 
L 247.943775 110.398431 
L 248.375072 110.398431 
L 248.375072 109.45634 
L 248.61928 109.45634 
L 248.61928 108.514248 
L 248.758801 108.514248 
L 248.826644 106.630065 
L 249.093651 106.630065 
L 249.093651 105.687974 
L 249.577317 105.687974 
L 249.577317 104.745882 
L 249.744769 104.745882 
L 249.744769 103.803791 
L 250.30856 103.803791 
L 250.338707 101.919608 
L 250.776753 101.919608 
L 250.776753 100.977516 
L 251.646839 100.977516 
L 251.730085 99.093333 
L 252.268571 99.093333 
L 252.268571 98.151242 
L 252.565794 98.151242 
L 252.565794 97.20915 
L 253.134112 97.20915 
L 253.134112 96.267059 
L 254.090387 96.267059 
L 254.09487 94.382876 
L 254.242121 94.382876 
L 254.242121 93.440784 
L 256.169686 93.440784 
L 256.169686 92.498693 
L 256.786893 92.498693 
L 256.854253 90.61451 
L 257.518136 90.61451 
L 257.518136 89.672418 
L 258.034996 89.672418 
L 258.034996 87.788235 
L 259.664164 87.788235 
L 259.664164 86.846144 
L 260.652124 86.846144 
L 260.652124 85.904052 
L 260.853638 85.904052 
L 260.853638 84.961961 
L 261.081657 84.961961 
L 261.081657 84.019869 
L 261.304446 84.019869 
L 261.304446 83.077778 
L 261.566234 83.077778 
L 261.566234 82.135686 
L 261.751702 82.135686 
L 261.751702 81.193595 
L 262.065513 81.193595 
L 262.065513 80.251503 
L 262.187966 80.251503 
L 262.187966 78.36732 
L 262.490783 78.36732 
L 262.490783 77.425229 
L 262.730996 77.425229 
L 262.730996 76.483137 
L 262.919209 76.483137 
L 262.942355 74.598954 
L 263.32691 74.598954 
L 263.383332 72.714771 
L 263.462239 72.714771 
L 263.462239 71.77268 
L 264.009782 71.77268 
L 264.009782 70.830588 
L 264.556897 70.830588 
L 264.556897 68.946405 
L 264.697703 68.946405 
L 264.697703 68.004314 
L 264.943376 68.004314 
L 264.943376 67.062222 
L 265.667121 67.062222 
L 265.667121 66.120131 
L 265.818138 66.120131 
L 265.818138 65.178039 
L 266.089081 65.178039 
L 266.089081 64.235948 
L 266.466494 64.235948 
L 266.466494 63.293856 
L 266.705518 63.293856 
L 266.705518 62.351765 
L 267.248548 62.351765 
L 267.248548 61.409673 
L 268.453866 61.409673 
L 268.453866 60.467582 
L 268.967777 60.467582 
L 268.967777 59.52549 
L 269.76715 59.52549 
L 269.76715 58.583399 
L 270.556714 58.583399 
L 270.556714 57.641307 
L 270.969964 57.641307 
L 270.969964 56.699216 
L 271.764831 56.699216 
L 271.764831 55.757124 
L 272.150707 55.757124 
L 272.150707 53.872941 
L 275.197368 53.872941 
L 275.197368 52.93085 
L 275.663442 52.93085 
L 275.663442 51.988758 
L 276.546962 51.988758 
L 276.546962 51.046667 
L 278.178303 51.046667 
L 278.178303 50.104575 
L 278.813415 50.104575 
L 278.813415 49.162484 
L 280.204792 49.162484 
L 280.204792 48.220392 
L 280.699931 48.220392 
L 280.699931 47.278301 
L 280.916959 47.278301 
L 280.916959 46.336209 
L 281.064514 46.336209 
L 281.064514 45.394118 
L 281.607544 45.394118 
L 281.607544 44.452026 
L 281.838876 44.452026 
L 281.838876 43.509935 
L 282.182375 43.509935 
L 282.182375 42.567843 
L 282.569577 42.567843 
L 282.569577 41.625752 
L 282.913618 41.625752 
L 282.913618 40.68366 
L 283.777372 40.68366 
L 283.777372 39.741569 
L 284.601046 39.741569 
L 284.601046 38.799477 
L 285.616031 38.799477 
L 285.616031 37.857386 
L 286.699927 37.857386 
L 286.699927 36.915294 
L 287.469687 36.915294 
L 287.508463 35.031111 
L 289.779153 35.031111 
L 289.779153 34.08902 
L 290.619326 34.08902 
L 290.619326 33.146928 
L 291.758271 33.146928 
L 291.758271 32.204837 
L 295.180225 32.204837 
L 295.180225 31.262745 
L 295.723256 31.262745 
L 295.723256 30.320654 
L 298.19851 30.320654 
L 298.19851 29.378562 
L 299.062264 29.378562 
L 299.062264 28.436471 
L 299.498528 28.436471 
L 299.498528 27.494379 
L 301.058923 27.494379 
L 301.058923 26.552288 
L 301.400599 26.552288 
L 301.400599 25.610196 
L 304.978322 25.610196 
L 304.978322 24.668105 
L 310.270236 24.668105 
L 310.270236 23.726013 
L 315.174635 23.726013 
L 315.174635 22.783922 
L 315.939824 22.783922 
L 315.939824 21.84183 
L 327.929889 21.84183 
L 327.929889 20.899739 
L 329.831959 20.899739 
L 329.831959 19.957647 
L 349.765029 19.957647 
L 349.765029 19.015556 
L 361.083363 19.015556 
L 361.083363 18.073464 
L 374.18469 18.073464 
L 374.18469 17.131373 
L 377.485347 17.131373 
L 377.485347 16.189281 
L 379.074284 16.189281 
L 379.074284 15.24719 
L 389.217501 15.24719 
L 389.217501 14.305098 
L 393.118616 14.305098 
L 393.118616 13.363007 
L 399.136896 13.363007 
L 399.136896 12.420915 
L 400.27584 12.420915 
L 400.27584 11.478824 
L 406.71608 11.478824 
L 406.71608 10.536732 
L 413.495892 10.536732 
L 413.495892 9.594641 
L 418.787806 9.594641 
L 418.787806 8.652549 
L 424.457393 8.652549 
L 424.457393 7.710458 
L 436.447458 7.710458 
L 436.447458 6.768366 
L 438.349529 6.768366 
L 438.349529 5.826275 
L 453.192 5.826275 
L 453.192 5.826275 
" clip-path="url(#p976c800afe)" style="fill: none; stroke: #000000; stroke-width: 3; stroke-linecap: square"/>
   </g>
   <g id="line2d_41">
    <path clip-path="url(#p976c800afe)" style="fill: none; stroke: #000000; stroke-width: 3; stroke-linecap: square"/>
   </g>
   <g id="line2d_42">
    <path d="M 34.16 288.453725 
L 142.471318 288.453725 
L 142.471318 287.511634 
L 150.426272 287.511634 
L 150.426272 286.569542 
L 155.19818 286.569542 
L 155.19818 285.627451 
L 157.795705 285.627451 
L 157.795705 283.743268 
L 159.220457 283.743268 
L 159.220457 282.801176 
L 162.203284 282.801176 
L 162.203284 281.859085 
L 162.801466 281.859085 
L 162.801466 280.916993 
L 164.963538 280.916993 
L 164.963538 279.974902 
L 165.481515 279.974902 
L 165.481515 279.03281 
L 166.192822 279.03281 
L 166.192822 278.090719 
L 167.371172 278.090719 
L 167.371172 277.148627 
L 168.164663 277.148627 
L 168.164663 276.206536 
L 168.803476 276.206536 
L 168.803476 275.264444 
L 169.648021 275.264444 
L 169.648021 274.322353 
L 170.391499 274.322353 
L 170.391499 273.380261 
L 175.886105 273.380261 
L 175.886105 272.43817 
L 177.471934 272.43817 
L 177.471934 271.496078 
L 183.144721 271.496078 
L 183.144721 270.553987 
L 186.230252 270.553987 
L 186.230252 269.611895 
L 186.610392 269.611895 
L 186.610392 268.669804 
L 187.163496 268.669804 
L 187.163496 267.727712 
L 189.778371 267.727712 
L 189.778371 266.785621 
L 190.198796 266.785621 
L 190.198796 265.843529 
L 191.151528 265.843529 
L 191.151528 264.901438 
L 193.217669 264.901438 
L 193.217669 263.959346 
L 194.520079 263.959346 
L 194.520079 263.017255 
L 195.316487 263.017255 
L 195.316487 262.075163 
L 195.871583 262.075163 
L 195.871583 261.133072 
L 196.652743 261.133072 
L 196.652743 260.19098 
L 196.935595 260.19098 
L 196.954218 258.306797 
L 197.288329 258.306797 
L 197.288329 257.364706 
L 197.802082 257.364706 
L 197.802082 256.422614 
L 198.621313 256.422614 
L 198.621313 255.480523 
L 198.771686 255.480523 
L 198.771686 254.538431 
L 198.957115 254.538431 
L 198.957115 253.59634 
L 199.639837 253.59634 
L 199.639837 252.654248 
L 199.802056 252.654248 
L 199.802056 251.712157 
L 199.964155 251.712157 
L 199.964155 250.770065 
L 201.929736 250.770065 
L 201.929736 249.827974 
L 202.490432 249.827974 
L 202.490432 248.885882 
L 202.863094 248.885882 
L 202.863094 247.943791 
L 203.474869 247.943791 
L 203.474869 247.001699 
L 203.671175 247.001699 
L 203.671175 246.059608 
L 204.062711 246.059608 
L 204.062711 245.117516 
L 204.261302 245.117516 
L 204.323651 242.291242 
L 204.549687 242.291242 
L 204.587533 240.407059 
L 205.138923 240.407059 
L 205.138923 239.464967 
L 205.392116 239.464967 
L 205.392116 238.522876 
L 205.636942 238.522876 
L 205.636942 237.580784 
L 205.748403 237.580784 
L 205.748403 236.638693 
L 206.080077 236.638693 
L 206.080077 235.696601 
L 206.560401 235.696601 
L 206.560401 234.75451 
L 208.130422 234.75451 
L 208.130422 233.812418 
L 208.722473 233.812418 
L 208.731229 231.928235 
L 209.098553 231.928235 
L 209.098553 230.986144 
L 209.311628 230.986144 
L 209.311628 230.044052 
L 210.050649 230.044052 
L 210.050649 229.101961 
L 210.201119 229.101961 
L 210.201119 228.159869 
L 210.441998 228.159869 
L 210.441998 227.217778 
L 211.064902 227.217778 
L 211.070394 225.333595 
L 211.231392 225.333595 
L 211.28347 223.449412 
L 211.622375 223.449412 
L 211.622375 222.50732 
L 211.91912 222.50732 
L 212.009461 219.681046 
L 212.366699 219.681046 
L 212.41384 217.796863 
L 212.553752 217.796863 
L 212.553752 216.854771 
L 212.766827 216.854771 
L 212.766827 215.91268 
L 213.063846 215.91268 
L 213.161318 214.028497 
L 213.343872 214.028497 
L 213.43188 212.144314 
L 213.667899 212.144314 
L 213.667899 211.202222 
L 213.897197 211.202222 
L 213.899118 209.318039 
L 214.115236 209.318039 
L 214.150434 207.433856 
L 214.342061 207.433856 
L 214.342061 206.491765 
L 215.331421 206.491765 
L 215.331421 205.549673 
L 215.690639 205.549673 
L 215.734058 203.66549 
L 216.326699 203.66549 
L 216.326699 202.723399 
L 216.789573 202.723399 
L 216.789573 201.781307 
L 217.301 201.781307 
L 217.314396 199.897124 
L 217.984355 199.897124 
L 217.984355 198.955033 
L 218.245811 198.955033 
L 218.245811 198.012941 
L 218.801308 198.012941 
L 218.902037 195.186667 
L 219.60493 195.186667 
L 219.60493 194.244575 
L 219.969985 194.244575 
L 219.969985 193.302484 
L 220.275194 193.302484 
L 220.275194 192.360392 
L 220.788686 192.360392 
L 220.788686 191.418301 
L 221.037332 191.418301 
L 221.037332 189.534118 
L 221.494587 189.534118 
L 221.494587 188.592026 
L 221.969429 188.592026 
L 221.969429 187.649935 
L 222.132058 187.649935 
L 222.132058 186.707843 
L 222.311803 186.707843 
L 222.414051 183.881569 
L 222.462085 183.881569 
L 222.462085 182.939477 
L 222.811601 182.939477 
L 222.811601 181.997386 
L 222.92689 181.997386 
L 222.927982 180.113203 
L 223.060052 180.113203 
L 223.060052 179.171111 
L 223.430939 179.171111 
L 223.492546 177.286928 
L 223.643745 177.286928 
L 223.643745 176.344837 
L 223.992344 176.344837 
L 223.992344 175.402745 
L 224.240795 175.402745 
L 224.349238 173.518562 
L 224.392859 173.518562 
L 224.392859 172.576471 
L 224.611682 172.576471 
L 224.611682 171.634379 
L 224.804485 171.634379 
L 224.861217 169.750196 
L 224.917682 169.750196 
L 224.917682 168.808105 
L 225.444911 168.808105 
L 225.544572 166.923922 
L 225.776409 166.923922 
L 225.790709 165.039739 
L 226.059261 165.039739 
L 226.059261 164.097647 
L 226.323502 164.097647 
L 226.428675 161.271373 
L 226.554932 161.271373 
L 226.554932 160.329281 
L 226.786881 160.329281 
L 226.786881 159.38719 
L 227.079754 159.38719 
L 227.079754 158.445098 
L 227.259499 158.445098 
L 227.259499 157.503007 
L 227.504245 157.503007 
L 227.560018 155.618824 
L 227.951792 155.618824 
L 227.971886 153.734641 
L 228.440242 153.734641 
L 228.524662 150.908366 
L 228.572297 150.908366 
L 228.655241 149.024183 
L 228.700041 149.024183 
L 228.723142 147.14 
L 229.070928 147.14 
L 229.070928 146.197908 
L 229.516123 146.197908 
L 229.516123 145.255817 
L 229.705405 145.255817 
L 229.729199 143.371634 
L 230.00952 143.371634 
L 230.00952 142.429542 
L 230.531268 142.429542 
L 230.612799 140.545359 
L 230.859569 140.545359 
L 230.859569 139.603268 
L 230.972673 139.603268 
L 231.053402 137.719085 
L 231.952524 137.719085 
L 232.045103 133.008627 
L 232.507715 133.008627 
L 232.507715 132.066536 
L 232.684102 132.066536 
L 232.713213 129.240261 
L 232.897177 129.240261 
L 232.899489 127.356078 
L 233.029926 127.356078 
L 233.029926 126.413987 
L 233.393995 126.413987 
L 233.393995 125.471895 
L 233.691442 125.471895 
L 233.691442 124.529804 
L 233.893956 124.529804 
L 234.000258 122.645621 
L 234.027547 122.645621 
L 234.114596 119.819346 
L 234.164651 119.819346 
L 234.270335 116.993072 
L 234.502253 116.993072 
L 234.547906 115.108889 
L 235.400705 115.108889 
L 235.400705 114.166797 
L 235.556067 114.166797 
L 235.599253 112.282614 
L 235.682996 112.282614 
L 235.682996 111.340523 
L 236.1234 111.340523 
L 236.1234 110.398431 
L 236.282609 110.398431 
L 236.336476 108.514248 
L 236.444617 108.514248 
L 236.444617 107.572157 
L 237.12237 107.572157 
L 237.12237 106.630065 
L 237.42581 106.630065 
L 237.531347 103.803791 
L 237.622169 103.803791 
L 237.638886 100.977516 
L 237.805726 100.977516 
L 237.870619 99.093333 
L 238.121301 99.093333 
L 238.121301 98.151242 
L 238.241506 98.151242 
L 238.305524 96.267059 
L 238.353202 96.267059 
L 238.353202 95.324967 
L 238.553975 95.324967 
L 238.575959 93.440784 
L 238.769256 93.440784 
L 238.769256 92.498693 
L 238.924862 92.498693 
L 238.924862 91.556601 
L 239.127732 91.556601 
L 239.127732 90.61451 
L 239.542557 90.61451 
L 239.558475 88.730327 
L 239.77155 88.730327 
L 239.841326 86.846144 
L 240.054402 86.846144 
L 240.142243 84.961961 
L 240.399359 84.961961 
L 240.399359 83.077778 
L 240.738032 83.077778 
L 240.738032 82.135686 
L 240.90192 82.135686 
L 240.984028 80.251503 
L 241.134069 80.251503 
L 241.184772 78.36732 
L 241.286911 78.36732 
L 241.286911 77.425229 
L 241.817425 77.425229 
L 241.824111 75.541046 
L 242.070067 75.541046 
L 242.084607 73.656863 
L 242.753422 73.656863 
L 242.753422 72.714771 
L 243.335229 72.714771 
L 243.335229 71.77268 
L 244.018585 71.77268 
L 244.018585 70.830588 
L 244.806938 70.830588 
L 244.835467 68.946405 
L 245.048543 68.946405 
L 245.134633 67.062222 
L 245.23718 67.062222 
L 245.23718 66.120131 
L 245.768825 66.120131 
L 245.768825 65.178039 
L 245.9819 65.178039 
L 245.9819 64.235948 
L 246.165992 64.235948 
L 246.178913 62.351765 
L 246.88177 62.351765 
L 246.88177 61.409673 
L 247.11227 61.409673 
L 247.11227 60.467582 
L 247.274768 60.467582 
L 247.296705 58.583399 
L 247.52378 58.583399 
L 247.52378 57.641307 
L 248.044654 57.641307 
L 248.085169 55.757124 
L 248.207136 55.757124 
L 248.25773 53.872941 
L 249.312821 53.872941 
L 249.3881 51.988758 
L 249.974826 51.988758 
L 249.996176 50.104575 
L 250.405123 50.104575 
L 250.405123 49.162484 
L 251.255184 49.162484 
L 251.255184 48.220392 
L 251.40713 48.220392 
L 251.40713 47.278301 
L 251.800693 47.278301 
L 251.800693 46.336209 
L 251.93854 46.336209 
L 251.93854 45.394118 
L 252.134107 45.394118 
L 252.134107 44.452026 
L 252.724666 44.452026 
L 252.724666 43.509935 
L 253.646077 43.509935 
L 253.646077 42.567843 
L 254.878054 42.567843 
L 254.878054 41.625752 
L 257.040126 41.625752 
L 257.040126 40.68366 
L 258.489759 40.68366 
L 258.489759 39.741569 
L 262.468087 39.741569 
L 262.468087 38.799477 
L 268.37811 38.799477 
L 268.37811 37.857386 
L 269.76715 37.857386 
L 269.76715 36.915294 
L 273.314827 36.915294 
L 273.314827 35.973203 
L 273.951748 35.973203 
L 273.951748 35.031111 
L 280.910296 35.031111 
L 280.910296 34.08902 
L 282.769743 34.08902 
L 282.769743 33.146928 
L 286.678611 33.146928 
L 286.678611 32.204837 
L 290.028508 32.204837 
L 290.028508 31.262745 
L 291.765126 31.262745 
L 291.765126 30.320654 
L 293.409716 30.320654 
L 293.409716 29.378562 
L 294.281897 29.378562 
L 294.281897 28.436471 
L 296.443969 28.436471 
L 296.551808 26.552288 
L 296.764883 26.552288 
L 296.764883 25.610196 
L 297.501776 25.610196 
L 297.501776 24.668105 
L 297.895253 24.668105 
L 297.895253 23.726013 
L 298.328639 23.726013 
L 298.328639 22.783922 
L 298.662053 22.783922 
L 298.662053 21.84183 
L 299.360595 21.84183 
L 299.360595 20.899739 
L 301.005185 20.899739 
L 301.005185 19.957647 
L 301.87193 19.957647 
L 301.87193 19.015556 
L 305.924108 19.015556 
L 305.924108 18.073464 
L 306.257522 18.073464 
L 306.257522 17.131373 
L 308.478808 17.131373 
L 308.478808 16.189281 
L 309.390535 16.189281 
L 309.390535 15.24719 
L 310.123397 15.24719 
L 310.123397 14.305098 
L 311.283841 14.305098 
L 311.283841 13.363007 
L 311.496916 13.363007 
L 311.496916 12.420915 
L 312.627286 12.420915 
L 312.627286 11.478824 
L 315.042321 11.478824 
L 315.042321 10.536732 
L 315.375734 10.536732 
L 315.375734 9.594641 
L 327.840834 9.594641 
L 327.840834 8.652549 
L 329.485424 8.652549 
L 329.485424 7.710458 
L 334.404347 7.710458 
L 334.404347 6.768366 
L 334.737761 6.768366 
L 334.737761 5.826275 
L 453.192 5.826275 
L 453.192 5.826275 
" clip-path="url(#p976c800afe)" style="fill: none; stroke: #00bfbf; stroke-width: 3; stroke-linecap: square"/>
   </g>
   <g id="line2d_43">
    <path clip-path="url(#p976c800afe)" style="fill: none; stroke: #00bfbf; stroke-width: 3; stroke-linecap: square"/>
   </g>
   <g id="line2d_44">
    <path d="M 34.16 288.453725 
L 165.053597 288.453725 
L 165.053597 287.511634 
L 165.586141 287.511634 
L 165.586141 286.569542 
L 172.657559 286.569542 
L 172.657559 285.627451 
L 173.086708 285.627451 
L 173.086708 284.685359 
L 176.904476 284.685359 
L 176.904476 283.743268 
L 179.651218 283.743268 
L 179.651218 282.801176 
L 183.118385 282.801176 
L 183.156521 280.916993 
L 184.437713 280.916993 
L 184.437713 279.974902 
L 184.683896 279.974902 
L 184.683896 279.03281 
L 185.074892 279.03281 
L 185.074892 278.090719 
L 186.013906 278.090719 
L 186.013906 277.148627 
L 188.705065 277.148627 
L 188.705065 276.206536 
L 190.887664 276.206536 
L 190.887664 275.264444 
L 193.326666 275.264444 
L 193.326666 274.322353 
L 195.386709 274.322353 
L 195.428156 272.43817 
L 195.571615 272.43817 
L 195.571615 271.496078 
L 199.530558 271.496078 
L 199.530558 270.553987 
L 200.571017 270.553987 
L 200.571017 269.611895 
L 201.1962 269.611895 
L 201.1962 268.669804 
L 202.297711 268.669804 
L 202.297711 267.727712 
L 202.914001 267.727712 
L 202.914001 266.785621 
L 203.304997 266.785621 
L 203.304997 265.843529 
L 203.509423 265.843529 
L 203.610248 263.959346 
L 204.064341 263.959346 
L 204.064341 263.017255 
L 204.656641 263.017255 
L 204.683247 261.133072 
L 205.353003 261.133072 
L 205.353003 260.19098 
L 205.743999 260.19098 
L 205.743999 259.248889 
L 206.93517 259.248889 
L 206.93517 258.306797 
L 207.597953 258.306797 
L 207.597953 257.364706 
L 207.94045 257.364706 
L 207.988948 255.480523 
L 208.188549 255.480523 
L 208.188549 254.538431 
L 209.374172 254.538431 
L 209.469742 252.654248 
L 210.162288 252.654248 
L 210.162288 251.712157 
L 210.44952 251.712157 
L 210.44952 250.770065 
L 210.96238 250.770065 
L 210.982064 248.885882 
L 211.619121 248.885882 
L 211.661606 247.001699 
L 212.231788 247.001699 
L 212.231788 246.059608 
L 212.796962 246.059608 
L 212.796962 245.117516 
L 213.658261 245.117516 
L 213.721223 241.34915 
L 214.070447 241.34915 
L 214.070447 240.407059 
L 214.948783 240.407059 
L 214.948783 239.464967 
L 215.466854 239.464967 
L 215.547039 236.638693 
L 215.636586 236.638693 
L 215.636586 235.696601 
L 215.76879 235.696601 
L 215.76879 234.75451 
L 216.027581 234.75451 
L 216.097263 232.870327 
L 216.301334 232.870327 
L 216.32307 230.986144 
L 216.506285 230.986144 
L 216.506285 230.044052 
L 216.845808 230.044052 
L 216.845808 229.101961 
L 218.043379 229.101961 
L 218.043379 228.159869 
L 218.342213 228.159869 
L 218.342213 227.217778 
L 218.48263 227.217778 
L 218.48263 226.275686 
L 218.972156 226.275686 
L 219.052341 224.391503 
L 219.657754 224.391503 
L 219.657754 223.449412 
L 220.229689 223.449412 
L 220.333534 220.623137 
L 220.418738 220.623137 
L 220.418738 219.681046 
L 221.582949 219.681046 
L 221.582949 218.738954 
L 221.93439 218.738954 
L 221.93439 217.796863 
L 222.055306 217.796863 
L 222.055306 216.854771 
L 222.300398 216.854771 
L 222.300398 215.91268 
L 222.831536 215.91268 
L 222.831536 214.970588 
L 222.988717 214.970588 
L 222.988717 214.028497 
L 223.299862 214.028497 
L 223.408566 210.260131 
L 223.687943 210.260131 
L 223.760007 208.375948 
L 223.801901 208.375948 
L 223.801901 207.433856 
L 223.916619 207.433856 
L 223.916619 206.491765 
L 224.078939 206.491765 
L 224.184796 204.607582 
L 224.258125 204.607582 
L 224.258125 203.66549 
L 224.536237 203.66549 
L 224.562587 200.839216 
L 224.649121 200.839216 
L 224.707534 198.955033 
L 224.823299 198.955033 
L 224.823299 198.012941 
L 225.058975 198.012941 
L 225.058975 197.07085 
L 225.214295 197.07085 
L 225.214295 196.128758 
L 225.546223 196.128758 
L 225.611213 193.302484 
L 225.897779 193.302484 
L 225.897779 192.360392 
L 226.016347 192.360392 
L 226.096784 190.476209 
L 226.143757 190.476209 
L 226.228229 188.592026 
L 226.370024 188.592026 
L 226.380846 186.707843 
L 226.48778 186.707843 
L 226.548891 184.82366 
L 226.840462 184.82366 
L 226.840462 183.881569 
L 227.009886 183.881569 
L 227.009886 182.939477 
L 227.146254 182.939477 
L 227.146254 181.997386 
L 227.32974 181.997386 
L 227.37184 180.113203 
L 227.619669 180.113203 
L 227.709112 177.286928 
L 228.143899 177.286928 
L 228.14807 174.460654 
L 228.279294 174.460654 
L 228.279294 173.518562 
L 228.397991 173.518562 
L 228.397991 172.576471 
L 228.514307 172.576471 
L 228.541452 169.750196 
L 228.670808 169.750196 
L 228.670808 168.808105 
L 228.844468 168.808105 
L 228.923618 166.923922 
L 229.09637 166.923922 
L 229.09637 165.98183 
L 229.68867 165.98183 
L 229.68867 165.039739 
L 229.808328 165.039739 
L 229.808328 164.097647 
L 229.969516 164.097647 
L 230.069716 160.329281 
L 230.117953 160.329281 
L 230.223608 158.445098 
L 230.460712 158.445098 
L 230.460712 157.503007 
L 230.745747 157.503007 
L 230.745747 155.618824 
L 230.999838 155.618824 
L 231.082087 153.734641 
L 231.161588 153.734641 
L 231.268485 149.966275 
L 231.28253 149.966275 
L 231.28253 149.024183 
L 231.409829 149.024183 
L 231.513029 147.14 
L 231.522576 147.14 
L 231.522576 146.197908 
L 231.70727 146.197908 
L 231.709606 144.313725 
L 232.553791 144.313725 
L 232.553791 143.371634 
L 232.808781 143.371634 
L 232.808781 142.429542 
L 232.926288 142.429542 
L 232.972479 140.545359 
L 233.573014 140.545359 
L 233.644323 138.661176 
L 233.732978 138.661176 
L 233.833577 136.776993 
L 234.020493 136.776993 
L 234.123046 133.008627 
L 234.432204 133.008627 
L 234.432204 132.066536 
L 234.575411 132.066536 
L 234.575411 131.124444 
L 234.751905 131.124444 
L 234.751905 130.182353 
L 235.002386 130.182353 
L 235.002386 129.240261 
L 235.124862 129.240261 
L 235.190481 126.413987 
L 235.346194 126.413987 
L 235.426379 123.587712 
L 235.528135 123.587712 
L 235.56756 121.703529 
L 235.814955 121.703529 
L 235.814955 120.761438 
L 235.942956 120.761438 
L 236.050873 117.935163 
L 236.174861 117.935163 
L 236.174861 116.993072 
L 236.333952 116.993072 
L 236.386652 115.108889 
L 236.466838 115.108889 
L 236.466838 114.166797 
L 236.697599 114.166797 
L 236.729099 112.282614 
L 236.841045 112.282614 
L 236.841045 111.340523 
L 237.011836 111.340523 
L 237.092021 108.514248 
L 237.462091 108.514248 
L 237.462091 107.572157 
L 237.640572 107.572157 
L 237.722538 104.745882 
L 237.792328 104.745882 
L 237.867226 101.919608 
L 237.909575 101.919608 
L 237.97663 100.035425 
L 238.113346 100.035425 
L 238.193532 98.151242 
L 238.315066 98.151242 
L 238.416802 96.267059 
L 238.45152 96.267059 
L 238.45152 95.324967 
L 238.642389 95.324967 
L 238.748051 93.440784 
L 238.93954 93.440784 
L 238.93954 92.498693 
L 239.165127 92.498693 
L 239.172082 90.61451 
L 239.276882 90.61451 
L 239.325059 88.730327 
L 239.405244 88.730327 
L 239.405244 87.788235 
L 239.879977 87.788235 
L 239.964125 84.961961 
L 240.472276 84.961961 
L 240.552462 83.077778 
L 240.813976 83.077778 
L 240.813976 82.135686 
L 240.9977 82.135686 
L 240.9977 81.193595 
L 241.77393 81.193595 
L 241.77393 80.251503 
L 242.296668 80.251503 
L 242.296668 79.309412 
L 242.504927 79.309412 
L 242.504927 78.36732 
L 243.151653 78.36732 
L 243.151653 77.425229 
L 243.676 77.425229 
L 243.756086 74.598954 
L 243.836271 74.598954 
L 243.836271 73.656863 
L 244.04266 73.656863 
L 244.126939 70.830588 
L 244.199163 70.830588 
L 244.227091 68.946405 
L 244.76912 68.946405 
L 244.76912 68.004314 
L 245.393594 68.004314 
L 245.393594 67.062222 
L 245.619181 67.062222 
L 245.619181 66.120131 
L 246.571522 66.120131 
L 246.571522 65.178039 
L 246.687217 65.178039 
L 246.687217 64.235948 
L 246.976656 64.235948 
L 246.976656 63.293856 
L 247.15239 63.293856 
L 247.15239 62.351765 
L 247.757112 62.351765 
L 247.757112 61.409673 
L 248.750721 61.409673 
L 248.750721 60.467582 
L 249.257556 60.467582 
L 249.257556 59.52549 
L 249.449929 59.52549 
L 249.531657 57.641307 
L 249.611842 57.641307 
L 249.611842 56.699216 
L 250.213721 56.699216 
L 250.213721 55.757124 
L 251.342674 55.757124 
L 251.342674 54.815033 
L 253.654421 54.815033 
L 253.654421 53.872941 
L 254.480203 53.872941 
L 254.480203 52.93085 
L 265.690686 52.93085 
L 265.690686 51.988758 
L 269.891399 51.988758 
L 269.891399 51.046667 
L 272.236384 51.046667 
L 272.236384 50.104575 
L 277.555654 50.104575 
L 277.555654 49.162484 
L 278.68645 49.162484 
L 278.68645 48.220392 
L 281.917736 48.220392 
L 281.917736 47.278301 
L 282.308732 47.278301 
L 282.308732 46.336209 
L 283.305497 46.336209 
L 283.305497 45.394118 
L 284.165491 45.394118 
L 284.165491 44.452026 
L 285.938905 44.452026 
L 285.938905 43.509935 
L 287.398077 43.509935 
L 287.398077 42.567843 
L 287.803212 42.567843 
L 287.803212 41.625752 
L 288.624767 41.625752 
L 288.624767 40.68366 
L 289.438583 40.68366 
L 289.470057 38.799477 
L 289.550242 38.799477 
L 289.595086 36.915294 
L 290.722715 36.915294 
L 290.722715 35.973203 
L 292.548313 35.973203 
L 292.548313 35.031111 
L 292.661997 35.031111 
L 292.661997 34.08902 
L 294.653479 34.08902 
L 294.757853 32.204837 
L 294.845852 32.204837 
L 294.914356 30.320654 
L 295.609643 30.320654 
L 295.609643 29.378562 
L 296.201756 29.378562 
L 296.201756 28.436471 
L 296.738597 28.436471 
L 296.738597 27.494379 
L 297.867583 27.494379 
L 297.867583 26.552288 
L 298.46719 26.552288 
L 298.46719 25.610196 
L 298.872325 25.610196 
L 298.872325 24.668105 
L 299.972749 24.668105 
L 299.972749 23.726013 
L 300.165122 23.726013 
L 300.165122 22.783922 
L 300.928914 22.783922 
L 300.928914 21.84183 
L 301.506321 21.84183 
L 301.586507 19.957647 
L 302.057867 19.957647 
L 302.057867 19.015556 
L 304.600276 19.015556 
L 304.600276 18.073464 
L 304.756778 18.073464 
L 304.756778 17.131373 
L 305.00541 17.131373 
L 305.00541 16.189281 
L 305.161913 16.189281 
L 305.161913 15.24719 
L 307.710006 15.24719 
L 307.710006 14.305098 
L 308.115141 14.305098 
L 308.115141 13.363007 
L 309.815172 13.363007 
L 309.815172 12.420915 
L 310.007545 12.420915 
L 310.007545 11.478824 
L 310.220306 11.478824 
L 310.220306 10.536732 
L 310.412679 10.536732 
L 310.412679 9.594641 
L 310.771336 9.594641 
L 310.771336 8.652549 
L 311.176471 8.652549 
L 311.176471 7.710458 
L 311.90029 7.710458 
L 311.90029 6.768366 
L 312.305424 6.768366 
L 312.305424 5.826275 
L 453.192 5.826275 
L 453.192 5.826275 
" clip-path="url(#p976c800afe)" style="fill: none; stroke: #bf00bf; stroke-width: 3; stroke-linecap: square"/>
   </g>
   <g id="line2d_45">
    <path clip-path="url(#p976c800afe)" style="fill: none; stroke: #bf00bf; stroke-width: 3; stroke-linecap: square"/>
   </g>
   <g id="line2d_46">
    <path d="M 34.16 288.453725 
L 163.805726 288.453725 
L 163.805726 287.511634 
L 170.843707 287.511634 
L 170.843707 286.569542 
L 177.580025 286.569542 
L 177.580025 285.627451 
L 181.50417 285.627451 
L 181.50417 284.685359 
L 182.961184 284.685359 
L 182.961184 283.743268 
L 183.677503 283.743268 
L 183.677503 282.801176 
L 184.778702 282.801176 
L 184.778702 281.859085 
L 188.271708 281.859085 
L 188.271708 280.916993 
L 189.756835 280.916993 
L 189.756835 279.974902 
L 190.986456 279.974902 
L 190.986456 279.03281 
L 191.534107 279.03281 
L 191.534107 278.090719 
L 191.661869 278.090719 
L 191.661869 277.148627 
L 196.532475 277.148627 
L 196.532475 276.206536 
L 196.794817 276.206536 
L 196.794817 275.264444 
L 198.26818 275.264444 
L 198.355597 273.380261 
L 198.79127 273.380261 
L 198.79127 272.43817 
L 199.515976 272.43817 
L 199.515976 271.496078 
L 201.345125 271.496078 
L 201.345125 270.553987 
L 202.475736 270.553987 
L 202.475736 269.611895 
L 203.531135 269.611895 
L 203.531135 268.669804 
L 203.833331 268.669804 
L 203.833331 267.727712 
L 205.238765 267.727712 
L 205.308775 265.843529 
L 205.455355 265.843529 
L 205.455355 263.959346 
L 205.674438 263.959346 
L 205.674438 263.017255 
L 206.867282 263.017255 
L 206.867282 262.075163 
L 207.117458 262.075163 
L 207.188758 260.19098 
L 207.45528 260.19098 
L 207.473173 258.306797 
L 208.228293 258.306797 
L 208.228293 257.364706 
L 208.362128 257.364706 
L 208.362128 256.422614 
L 208.912293 256.422614 
L 208.912293 255.480523 
L 209.395215 255.480523 
L 209.395215 254.538431 
L 209.513717 254.538431 
L 209.513717 253.59634 
L 209.628613 253.59634 
L 209.705358 251.712157 
L 210.10937 251.712157 
L 210.10937 250.770065 
L 210.545043 250.770065 
L 210.545043 249.827974 
L 211.73925 249.827974 
L 211.845076 247.943791 
L 212.280749 247.943791 
L 212.280749 247.001699 
L 212.420106 247.001699 
L 212.420106 246.059608 
L 212.574552 246.059608 
L 212.574552 245.117516 
L 212.967757 245.117516 
L 212.967757 244.175425 
L 213.098898 244.175425 
L 213.132896 242.291242 
L 213.479417 242.291242 
L 213.479417 241.34915 
L 214.453997 241.34915 
L 214.453997 240.407059 
L 214.834604 240.407059 
L 214.834604 239.464967 
L 215.001649 239.464967 
L 215.06024 237.580784 
L 215.117224 237.580784 
L 215.117224 236.638693 
L 215.352625 236.638693 
L 215.400109 234.75451 
L 215.576732 234.75451 
L 215.669475 232.870327 
L 215.983227 232.870327 
L 215.983227 231.928235 
L 216.250035 231.928235 
L 216.250035 230.986144 
L 217.410227 230.986144 
L 217.410227 230.044052 
L 217.8459 230.044052 
L 217.8459 229.101961 
L 218.176542 229.101961 
L 218.176542 228.159869 
L 218.291479 228.159869 
L 218.384223 226.275686 
L 218.75223 226.275686 
L 218.839131 224.391503 
L 218.931875 224.391503 
L 218.931875 223.449412 
L 219.384497 223.449412 
L 219.45772 221.565229 
L 220.016064 221.565229 
L 220.016064 220.623137 
L 220.17418 220.623137 
L 220.17418 219.681046 
L 220.362584 219.681046 
L 220.399755 217.796863 
L 220.949626 217.796863 
L 220.949626 216.854771 
L 221.433813 216.854771 
L 221.433813 215.91268 
L 221.631194 215.91268 
L 221.631194 214.970588 
L 221.816912 214.970588 
L 221.816912 214.028497 
L 222.000391 214.028497 
L 222.000391 213.086405 
L 222.136427 213.086405 
L 222.235793 211.202222 
L 222.347513 211.202222 
L 222.347513 210.260131 
L 222.565374 210.260131 
L 222.565374 209.318039 
L 222.983517 209.318039 
L 222.983517 208.375948 
L 223.552211 208.375948 
L 223.552211 207.433856 
L 224.080495 207.433856 
L 224.080495 206.491765 
L 224.328325 206.491765 
L 224.328325 205.549673 
L 224.490579 205.549673 
L 224.490579 204.607582 
L 224.737524 204.607582 
L 224.737524 203.66549 
L 224.886669 203.66549 
L 224.92482 201.781307 
L 225.059709 201.781307 
L 225.059709 200.839216 
L 225.233189 200.839216 
L 225.233189 199.897124 
L 225.402363 199.897124 
L 225.402363 198.955033 
L 225.635397 198.955033 
L 225.728753 197.07085 
L 225.966645 197.07085 
L 226.064031 194.244575 
L 226.622374 194.244575 
L 226.622374 193.302484 
L 226.742425 193.302484 
L 226.820999 191.418301 
L 226.870996 191.418301 
L 226.968895 185.765752 
L 227.106398 185.765752 
L 227.106398 184.82366 
L 227.481765 184.82366 
L 227.560367 181.997386 
L 228.233905 181.997386 
L 228.32609 178.22902 
L 228.551108 178.22902 
L 228.622408 175.402745 
L 228.776317 175.402745 
L 228.854893 171.634379 
L 228.906823 171.634379 
L 228.922897 168.808105 
L 229.025342 168.808105 
L 229.025342 167.866013 
L 229.361758 167.866013 
L 229.361758 166.923922 
L 229.733502 166.923922 
L 229.844608 165.039739 
L 229.930314 165.039739 
L 229.930314 164.097647 
L 230.176778 164.097647 
L 230.176778 163.155556 
L 230.334824 163.155556 
L 230.334824 162.213464 
L 230.506002 162.213464 
L 230.585 160.329281 
L 230.6563 160.329281 
L 230.6563 159.38719 
L 230.828865 159.38719 
L 230.828865 158.445098 
L 230.940715 158.445098 
L 230.940715 157.503007 
L 231.072726 157.503007 
L 231.072726 156.560915 
L 231.348845 156.560915 
L 231.348845 155.618824 
L 231.620691 155.618824 
L 231.66602 152.792549 
L 232.059563 152.792549 
L 232.059563 151.850458 
L 232.187525 151.850458 
L 232.241708 149.966275 
L 232.310901 149.966275 
L 232.310901 149.024183 
L 232.426612 149.024183 
L 232.534046 147.14 
L 232.587847 147.14 
L 232.613799 145.255817 
L 232.703412 145.255817 
L 232.763028 140.545359 
L 232.853123 140.545359 
L 232.862757 137.719085 
L 233.134772 137.719085 
L 233.245878 134.89281 
L 233.297737 134.89281 
L 233.297737 133.950719 
L 233.432172 133.950719 
L 233.432172 133.008627 
L 233.578048 133.008627 
L 233.578048 132.066536 
L 233.721775 132.066536 
L 233.826021 130.182353 
L 233.909715 130.182353 
L 233.909715 129.240261 
L 234.067394 129.240261 
L 234.172306 125.471895 
L 234.26505 125.471895 
L 234.26505 124.529804 
L 234.407255 124.529804 
L 234.515225 120.761438 
L 234.586526 120.761438 
L 234.670346 118.877255 
L 234.778197 118.877255 
L 234.87094 116.993072 
L 234.923291 116.993072 
L 234.929751 115.108889 
L 235.129351 115.108889 
L 235.14789 113.224706 
L 235.591211 113.224706 
L 235.657635 111.340523 
L 236.104682 111.340523 
L 236.104682 110.398431 
L 236.491296 110.398431 
L 236.50196 107.572157 
L 236.700239 107.572157 
L 236.792983 105.687974 
L 236.979503 105.687974 
L 236.979503 104.745882 
L 237.123045 104.745882 
L 237.231171 101.919608 
L 237.532694 101.919608 
L 237.532694 100.977516 
L 237.806859 100.977516 
L 237.86911 99.093333 
L 238.227002 99.093333 
L 238.331021 95.324967 
L 238.351959 95.324967 
L 238.351959 94.382876 
L 238.527782 94.382876 
L 238.527782 93.440784 
L 238.68413 93.440784 
L 238.770869 91.556601 
L 239.107284 91.556601 
L 239.107284 90.61451 
L 239.479028 90.61451 
L 239.590134 87.788235 
L 239.922305 87.788235 
L 239.922305 86.846144 
L 240.488442 86.846144 
L 240.549002 84.961961 
L 240.602482 84.961961 
L 240.602482 84.019869 
L 240.938898 84.019869 
L 240.97237 82.135686 
L 241.210763 82.135686 
L 241.310642 80.251503 
L 241.421747 80.251503 
L 241.421747 79.309412 
L 241.688689 79.309412 
L 241.753918 77.425229 
L 242.229127 77.425229 
L 242.229127 76.483137 
L 242.365264 76.483137 
L 242.458007 73.656863 
L 243.102618 73.656863 
L 243.102618 72.714771 
L 243.437102 72.714771 
L 243.467301 70.830588 
L 243.792153 70.830588 
L 243.792153 69.888497 
L 244.048767 69.888497 
L 244.048767 68.946405 
L 244.280551 68.946405 
L 244.280551 68.004314 
L 244.675277 68.004314 
L 244.675277 67.062222 
L 244.838323 67.062222 
L 244.838323 66.120131 
L 245.298915 66.120131 
L 245.298915 65.178039 
L 245.655084 65.178039 
L 245.655084 64.235948 
L 246.50689 64.235948 
L 246.50689 63.293856 
L 246.893258 63.293856 
L 246.893258 62.351765 
L 247.486338 62.351765 
L 247.486338 60.467582 
L 248.724872 60.467582 
L 248.724872 59.52549 
L 249.395677 59.52549 
L 249.395677 58.583399 
L 249.949126 58.583399 
L 249.949126 57.641307 
L 250.403474 57.641307 
L 250.403474 56.699216 
L 251.498763 56.699216 
L 251.498763 55.757124 
L 253.133103 55.757124 
L 253.133103 54.815033 
L 253.73959 54.815033 
L 253.73959 53.872941 
L 260.018503 53.872941 
L 260.018503 52.93085 
L 263.369444 52.93085 
L 263.369444 51.988758 
L 268.066076 51.988758 
L 268.066076 51.046667 
L 269.999876 51.046667 
L 269.999876 50.104575 
L 272.737404 50.104575 
L 272.737404 49.162484 
L 273.437447 49.162484 
L 273.437447 47.278301 
L 274.949243 47.278301 
L 274.949243 46.336209 
L 275.17324 46.336209 
L 275.17324 45.394118 
L 275.346787 45.394118 
L 275.346787 44.452026 
L 275.900236 44.452026 
L 275.900236 43.509935 
L 277.207132 43.509935 
L 277.207132 42.567843 
L 277.449872 42.567843 
L 277.449872 41.625752 
L 278.623795 41.625752 
L 278.623795 40.68366 
L 279.084213 40.68366 
L 279.084213 39.741569 
L 279.532816 39.741569 
L 279.532816 38.799477 
L 279.819849 38.799477 
L 279.819849 37.857386 
L 281.044614 37.857386 
L 281.137358 35.973203 
L 281.555554 35.973203 
L 281.555554 35.031111 
L 282.718776 35.031111 
L 282.718776 34.08902 
L 284.803094 34.08902 
L 284.803094 33.146928 
L 286.156348 33.146928 
L 286.156348 31.262745 
L 286.836985 31.262745 
L 286.836985 30.320654 
L 287.120705 30.320654 
L 287.120705 29.378562 
L 288.065687 29.378562 
L 288.065687 28.436471 
L 288.605168 28.436471 
L 288.619136 26.552288 
L 290.168773 26.552288 
L 290.168773 25.610196 
L 290.674467 25.610196 
L 290.767211 23.726013 
L 291.803113 23.726013 
L 291.803113 22.783922 
L 292.042739 22.783922 
L 292.078579 19.957647 
L 293.952079 19.957647 
L 293.952079 19.015556 
L 294.505528 19.015556 
L 294.505528 18.073464 
L 296.055164 18.073464 
L 296.055164 17.131373 
L 297.689505 17.131373 
L 297.689505 16.189281 
L 302.059952 16.189281 
L 302.059952 15.24719 
L 305.483926 15.24719 
L 305.497523 12.420915 
L 307.406863 12.420915 
L 307.406863 11.478824 
L 307.960312 11.478824 
L 307.960312 10.536732 
L 309.509948 10.536732 
L 309.509948 9.594641 
L 311.144289 9.594641 
L 311.144289 8.652549 
L 318.202826 8.652549 
L 318.202826 7.710458 
L 324.089218 7.710458 
L 324.089218 6.768366 
L 337.544002 6.768366 
L 337.544002 5.826275 
L 453.192 5.826275 
L 453.192 5.826275 
" clip-path="url(#p976c800afe)" style="fill: none; stroke: #ff0000; stroke-width: 3; stroke-linecap: square"/>
   </g>
   <g id="line2d_47">
    <path clip-path="url(#p976c800afe)" style="fill: none; stroke: #ff0000; stroke-width: 3; stroke-linecap: square"/>
   </g>
   <g id="line2d_48">
    <path d="M 243.676 291.28 
L 243.676 3 
" clip-path="url(#p976c800afe)" style="fill: none; stroke: #000000; stroke-width: 1.5; stroke-linecap: square"/>
   </g>
   <g id="line2d_49">
    <path d="M 34.16 147.14 
L 453.192 147.14 
" clip-path="url(#p976c800afe)" style="fill: none; stroke-dasharray: 2,3.3; stroke-dashoffset: 0; stroke: #000000; stroke-width: 2"/>
   </g>
   <g id="patch_3">
    <path d="M 34.16 291.28 
L 34.16 3 
" style="fill: none; stroke: #000000; stroke-width: 0.8; stroke-linejoin: miter; stroke-linecap: square"/>
   </g>
   <g id="patch_4">
    <path d="M 453.192 291.28 
L 453.192 3 
" style="fill: none; stroke: #000000; stroke-width: 0.8; stroke-linejoin: miter; stroke-linecap: square"/>
   </g>
   <g id="patch_5">
    <path d="M 34.16 291.28 
L 453.192 291.28 
" style="fill: none; stroke: #000000; stroke-width: 0.8; stroke-linejoin: miter; stroke-linecap: square"/>
   </g>
   <g id="patch_6">
    <path d="M 34.16 3 
L 453.192 3 
" style="fill: none; stroke: #000000; stroke-width: 0.8; stroke-linejoin: miter; stroke-linecap: square"/>
   </g>
   <g id="text_6">
    <!-- f6-f9,5-D -->
    <g transform="translate(356.36761 285.5144)scale(0.2 -0.2)">
     <defs>
      <path id="DejaVuSans-36" d="M 2113 2584 
Q 1688 2584 1439 2293 
Q 1191 2003 1191 1497 
Q 1191 994 1439 701 
Q 1688 409 2113 409 
Q 2538 409 2786 701 
Q 3034 994 3034 1497 
Q 3034 2003 2786 2293 
Q 2538 2584 2113 2584 
z
M 3366 4563 
L 3366 3988 
Q 3128 4100 2886 4159 
Q 2644 4219 2406 4219 
Q 1781 4219 1451 3797 
Q 1122 3375 1075 2522 
Q 1259 2794 1537 2939 
Q 1816 3084 2150 3084 
Q 2853 3084 3261 2657 
Q 3669 2231 3669 1497 
Q 3669 778 3244 343 
Q 2819 -91 2113 -91 
Q 1303 -91 875 529 
Q 447 1150 447 2328 
Q 447 3434 972 4092 
Q 1497 4750 2381 4750 
Q 2619 4750 2861 4703 
Q 3103 4656 3366 4563 
z
" transform="scale(0.015625)"/>
      <path id="DejaVuSans-39" d="M 703 97 
L 703 672 
Q 941 559 1184 500 
Q 1428 441 1663 441 
Q 2288 441 2617 861 
Q 2947 1281 2994 2138 
Q 2813 1869 2534 1725 
Q 2256 1581 1919 1581 
Q 1219 1581 811 2004 
Q 403 2428 403 3163 
Q 403 3881 828 4315 
Q 1253 4750 1959 4750 
Q 2769 4750 3195 4129 
Q 3622 3509 3622 2328 
Q 3622 1225 3098 567 
Q 2575 -91 1691 -91 
Q 1453 -91 1209 -44 
Q 966 3 703 97 
z
M 1959 2075 
Q 2384 2075 2632 2365 
Q 2881 2656 2881 3163 
Q 2881 3666 2632 3958 
Q 2384 4250 1959 4250 
Q 1534 4250 1286 3958 
Q 1038 3666 1038 3163 
Q 1038 2656 1286 2365 
Q 1534 2075 1959 2075 
z
" transform="scale(0.015625)"/>
      <path id="DejaVuSans-2c" d="M 750 794 
L 1409 794 
L 1409 256 
L 897 -744 
L 494 -744 
L 750 256 
L 750 794 
z
" transform="scale(0.015625)"/>
      <path id="DejaVuSans-35" d="M 691 4666 
L 3169 4666 
L 3169 4134 
L 1269 4134 
L 1269 2991 
Q 1406 3038 1543 3061 
Q 1681 3084 1819 3084 
Q 2600 3084 3056 2656 
Q 3513 2228 3513 1497 
Q 3513 744 3044 326 
Q 2575 -91 1722 -91 
Q 1428 -91 1123 -41 
Q 819 9 494 109 
L 494 744 
Q 775 591 1075 516 
Q 1375 441 1709 441 
Q 2250 441 2565 725 
Q 2881 1009 2881 1497 
Q 2881 1984 2565 2268 
Q 2250 2553 1709 2553 
Q 1456 2553 1204 2497 
Q 953 2441 691 2322 
L 691 4666 
z
" transform="scale(0.015625)"/>
      <path id="DejaVuSans-44" d="M 1259 4147 
L 1259 519 
L 2022 519 
Q 2988 519 3436 956 
Q 3884 1394 3884 2338 
Q 3884 3275 3436 3711 
Q 2988 4147 2022 4147 
L 1259 4147 
z
M 628 4666 
L 1925 4666 
Q 3281 4666 3915 4102 
Q 4550 3538 4550 2338 
Q 4550 1131 3912 565 
Q 3275 0 1925 0 
L 628 0 
L 628 4666 
z
" transform="scale(0.015625)"/>
     </defs>
     <use xlink:href="#DejaVuSans-66"/>
     <use xlink:href="#DejaVuSans-36" x="35.205078"/>
     <use xlink:href="#DejaVuSans-2d" x="98.828125"/>
     <use xlink:href="#DejaVuSans-66" x="134.912109"/>
     <use xlink:href="#DejaVuSans-39" x="170.117188"/>
     <use xlink:href="#DejaVuSans-2c" x="233.740234"/>
     <use xlink:href="#DejaVuSans-35" x="265.527344"/>
     <use xlink:href="#DejaVuSans-2d" x="329.150391"/>
     <use xlink:href="#DejaVuSans-44" x="365.234375"/>
    </g>
   </g>
   <g id="text_7">
    <!-- v2.6.1.158 -->
    <g style="fill: #808080" transform="translate(216.861937 286.317512)scale(0.1 -0.1)">
     <defs>
      <path id="DejaVuSans-32" d="M 1228 531 
L 3431 531 
L 3431 0 
L 469 0 
L 469 531 
Q 828 903 1448 1529 
Q 2069 2156 2228 2338 
Q 2531 2678 2651 2914 
Q 2772 3150 2772 3378 
Q 2772 3750 2511 3984 
Q 2250 4219 1831 4219 
Q 1534 4219 1204 4116 
Q 875 4013 500 3803 
L 500 4441 
Q 881 4594 1212 4672 
Q 1544 4750 1819 4750 
Q 2544 4750 2975 4387 
Q 3406 4025 3406 3419 
Q 3406 3131 3298 2873 
Q 3191 2616 2906 2266 
Q 2828 2175 2409 1742 
Q 1991 1309 1228 531 
z
" transform="scale(0.015625)"/>
      <path id="DejaVuSans-2e" d="M 684 794 
L 1344 794 
L 1344 0 
L 684 0 
L 684 794 
z
" transform="scale(0.015625)"/>
      <path id="DejaVuSans-38" d="M 2034 2216 
Q 1584 2216 1326 1975 
Q 1069 1734 1069 1313 
Q 1069 891 1326 650 
Q 1584 409 2034 409 
Q 2484 409 2743 651 
Q 3003 894 3003 1313 
Q 3003 1734 2745 1975 
Q 2488 2216 2034 2216 
z
M 1403 2484 
Q 997 2584 770 2862 
Q 544 3141 544 3541 
Q 544 4100 942 4425 
Q 1341 4750 2034 4750 
Q 2731 4750 3128 4425 
Q 3525 4100 3525 3541 
Q 3525 3141 3298 2862 
Q 3072 2584 2669 2484 
Q 3125 2378 3379 2068 
Q 3634 1759 3634 1313 
Q 3634 634 3220 271 
Q 2806 -91 2034 -91 
Q 1263 -91 848 271 
Q 434 634 434 1313 
Q 434 1759 690 2068 
Q 947 2378 1403 2484 
z
M 1172 3481 
Q 1172 3119 1398 2916 
Q 1625 2713 2034 2713 
Q 2441 2713 2670 2916 
Q 2900 3119 2900 3481 
Q 2900 3844 2670 4047 
Q 2441 4250 2034 4250 
Q 1625 4250 1398 4047 
Q 1172 3844 1172 3481 
z
" transform="scale(0.015625)"/>
     </defs>
     <use xlink:href="#DejaVuSans-76"/>
     <use xlink:href="#DejaVuSans-32" x="59.179688"/>
     <use xlink:href="#DejaVuSans-2e" x="122.802734"/>
     <use xlink:href="#DejaVuSans-36" x="154.589844"/>
     <use xlink:href="#DejaVuSans-2e" x="218.212891"/>
     <use xlink:href="#DejaVuSans-31" x="250"/>
     <use xlink:href="#DejaVuSans-2e" x="313.623047"/>
     <use xlink:href="#DejaVuSans-31" x="345.410156"/>
     <use xlink:href="#DejaVuSans-35" x="409.033203"/>
     <use xlink:href="#DejaVuSans-38" x="472.65625"/>
    </g>
   </g>
   <g id="legend_1">
    <g id="patch_7">
     <path d="M 48.16 136.425 
L 177.381875 136.425 
Q 181.381875 136.425 181.381875 132.425 
L 181.381875 17 
Q 181.381875 13 177.381875 13 
L 48.16 13 
Q 44.16 13 44.16 17 
L 44.16 132.425 
Q 44.16 136.425 48.16 136.425 
z
" style="fill: #ffffff; opacity: 0.2; stroke: #cccccc; stroke-linejoin: miter"/>
    </g>
    <g id="line2d_50">
     <path d="M 52.16 29.196875 
L 72.16 29.196875 
L 92.16 29.196875 
" style="fill: none; stroke: #000000; stroke-width: 3; stroke-linecap: square"/>
    </g>
    <g id="text_8">
     <!-- 1: 4/4 -->
     <g transform="translate(108.16 36.196875)scale(0.2 -0.2)">
      <defs>
       <path id="DejaVuSans-3a" d="M 750 794 
L 1409 794 
L 1409 0 
L 750 0 
L 750 794 
z
M 750 3309 
L 1409 3309 
L 1409 2516 
L 750 2516 
L 750 3309 
z
" transform="scale(0.015625)"/>
       <path id="DejaVuSans-34" d="M 2419 4116 
L 825 1625 
L 2419 1625 
L 2419 4116 
z
M 2253 4666 
L 3047 4666 
L 3047 1625 
L 3713 1625 
L 3713 1100 
L 3047 1100 
L 3047 0 
L 2419 0 
L 2419 1100 
L 313 1100 
L 313 1709 
L 2253 4666 
z
" transform="scale(0.015625)"/>
       <path id="DejaVuSans-2f" d="M 1625 4666 
L 2156 4666 
L 531 -594 
L 0 -594 
L 1625 4666 
z
" transform="scale(0.015625)"/>
      </defs>
      <use xlink:href="#DejaVuSans-31"/>
      <use xlink:href="#DejaVuSans-3a" x="63.623047"/>
      <use xlink:href="#DejaVuSans-20" x="97.314453"/>
      <use xlink:href="#DejaVuSans-34" x="129.101562"/>
      <use xlink:href="#DejaVuSans-2f" x="192.724609"/>
      <use xlink:href="#DejaVuSans-34" x="226.416016"/>
     </g>
    </g>
    <g id="line2d_51">
     <path d="M 52.16 58.553125 
L 72.16 58.553125 
L 92.16 58.553125 
" style="fill: none; stroke: #00bfbf; stroke-width: 3; stroke-linecap: square"/>
    </g>
    <g id="text_9">
     <!-- -1: 4/4 -->
     <g transform="translate(108.16 65.553125)scale(0.2 -0.2)">
      <use xlink:href="#DejaVuSans-2d"/>
      <use xlink:href="#DejaVuSans-31" x="36.083984"/>
      <use xlink:href="#DejaVuSans-3a" x="99.707031"/>
      <use xlink:href="#DejaVuSans-20" x="133.398438"/>
      <use xlink:href="#DejaVuSans-34" x="165.185547"/>
      <use xlink:href="#DejaVuSans-2f" x="228.808594"/>
      <use xlink:href="#DejaVuSans-34" x="262.5"/>
     </g>
    </g>
    <g id="line2d_52">
     <path d="M 52.16 87.909375 
L 72.16 87.909375 
L 92.16 87.909375 
" style="fill: none; stroke: #bf00bf; stroke-width: 3; stroke-linecap: square"/>
    </g>
    <g id="text_10">
     <!-- -4: 4/4 -->
     <g transform="translate(108.16 94.909375)scale(0.2 -0.2)">
      <use xlink:href="#DejaVuSans-2d"/>
      <use xlink:href="#DejaVuSans-34" x="36.083984"/>
      <use xlink:href="#DejaVuSans-3a" x="99.707031"/>
      <use xlink:href="#DejaVuSans-20" x="133.398438"/>
      <use xlink:href="#DejaVuSans-34" x="165.185547"/>
      <use xlink:href="#DejaVuSans-2f" x="228.808594"/>
      <use xlink:href="#DejaVuSans-34" x="262.5"/>
     </g>
    </g>
    <g id="line2d_53">
     <path d="M 52.16 117.265625 
L 72.16 117.265625 
L 92.16 117.265625 
" style="fill: none; stroke: #ff0000; stroke-width: 3; stroke-linecap: square"/>
    </g>
    <g id="text_11">
     <!-- -8: 4/4 -->
     <g transform="translate(108.16 124.265625)scale(0.2 -0.2)">
      <use xlink:href="#DejaVuSans-2d"/>
      <use xlink:href="#DejaVuSans-38" x="36.083984"/>
      <use xlink:href="#DejaVuSans-3a" x="99.707031"/>
      <use xlink:href="#DejaVuSans-20" x="133.398438"/>
      <use xlink:href="#DejaVuSans-34" x="165.185547"/>
      <use xlink:href="#DejaVuSans-2f" x="228.808594"/>
      <use xlink:href="#DejaVuSans-34" x="262.5"/>
     </g>
    </g>
   </g>
  </g>
 </g>
 <defs>
  <clipPath id="p976c800afe">
   <rect x="34.16" y="3" width="419.032" height="288.28"/>
  </clipPath>
 </defs>
</svg>
