<?xml version="1.0" encoding="utf-8" standalone="no"?>
<!DOCTYPE svg PUBLIC "-//W3C//DTD SVG 1.1//EN"
  "http://www.w3.org/Graphics/SVG/1.1/DTD/svg11.dtd">
<svg xmlns:xlink="http://www.w3.org/1999/xlink" width="460.8pt" height="345.6pt" viewBox="0 0 460.8 345.6" xmlns="http://www.w3.org/2000/svg" version="1.1">
 <metadata>
  <rdf:RDF xmlns:dc="http://purl.org/dc/elements/1.1/" xmlns:cc="http://creativecommons.org/ns#" xmlns:rdf="http://www.w3.org/1999/02/22-rdf-syntax-ns#">
   <cc:Work>
    <dc:type rdf:resource="http://purl.org/dc/dcmitype/StillImage"/>
    <dc:date>2023-04-03T10:19:32.755188</dc:date>
    <dc:format>image/svg+xml</dc:format>
    <dc:creator>
     <cc:Agent>
      <dc:title>Matplotlib v3.5.2, https://matplotlib.org/</dc:title>
     </cc:Agent>
    </dc:creator>
   </cc:Work>
  </rdf:RDF>
 </metadata>
 <defs>
  <style type="text/css">*{stroke-linejoin: round; stroke-linecap: butt}</style>
 </defs>
 <g id="figure_1">
  <g id="patch_1">
   <path d="M 0 345.6 
L 460.8 345.6 
L 460.8 0 
L 0 0 
z
" style="fill: #ffffff"/>
  </g>
  <g id="axes_1">
   <g id="patch_2">
    <path d="M 34.16 291.28 
L 446.924475 291.28 
L 446.924475 3 
L 34.16 3 
z
" style="fill: #ffffff"/>
   </g>
   <g id="matplotlib.axis_1">
    <g id="xtick_1">
     <g id="line2d_1">
      <path d="M 34.249547 291.28 
L 34.249547 3 
" clip-path="url(#pbb7dff1d94)" style="fill: none; stroke: #b0b0b0; stroke-width: 0.8; stroke-linecap: square"/>
     </g>
     <g id="line2d_2">
      <defs>
       <path id="me975e05c5a" d="M 0 0 
L 0 3.5 
" style="stroke: #000000; stroke-width: 0.8"/>
      </defs>
      <g>
       <use xlink:href="#me975e05c5a" x="34.249547" y="291.28" style="stroke: #000000; stroke-width: 0.8"/>
      </g>
     </g>
     <g id="text_1">
      <!-- -1 -->
      <g transform="translate(24.279235 313.476875)scale(0.2 -0.2)">
       <defs>
        <path id="DejaVuSans-2d" d="M 313 2009 
L 1997 2009 
L 1997 1497 
L 313 1497 
L 313 2009 
z
" transform="scale(0.015625)"/>
        <path id="DejaVuSans-31" d="M 794 531 
L 1825 531 
L 1825 4091 
L 703 3866 
L 703 4441 
L 1819 4666 
L 2450 4666 
L 2450 531 
L 3481 531 
L 3481 0 
L 794 0 
L 794 531 
z
" transform="scale(0.015625)"/>
       </defs>
       <use xlink:href="#DejaVuSans-2d"/>
       <use xlink:href="#DejaVuSans-31" x="36.083984"/>
      </g>
     </g>
    </g>
    <g id="xtick_2">
     <g id="line2d_3">
      <path d="M 240.542238 291.28 
L 240.542238 3 
" clip-path="url(#pbb7dff1d94)" style="fill: none; stroke: #b0b0b0; stroke-width: 0.8; stroke-linecap: square"/>
     </g>
     <g id="line2d_4">
      <g>
       <use xlink:href="#me975e05c5a" x="240.542238" y="291.28" style="stroke: #000000; stroke-width: 0.8"/>
      </g>
     </g>
     <g id="text_2">
      <!-- 0 -->
      <g transform="translate(234.179738 313.476875)scale(0.2 -0.2)">
       <defs>
        <path id="DejaVuSans-30" d="M 2034 4250 
Q 1547 4250 1301 3770 
Q 1056 3291 1056 2328 
Q 1056 1369 1301 889 
Q 1547 409 2034 409 
Q 2525 409 2770 889 
Q 3016 1369 3016 2328 
Q 3016 3291 2770 3770 
Q 2525 4250 2034 4250 
z
M 2034 4750 
Q 2819 4750 3233 4129 
Q 3647 3509 3647 2328 
Q 3647 1150 3233 529 
Q 2819 -91 2034 -91 
Q 1250 -91 836 529 
Q 422 1150 422 2328 
Q 422 3509 836 4129 
Q 1250 4750 2034 4750 
z
" transform="scale(0.015625)"/>
       </defs>
       <use xlink:href="#DejaVuSans-30"/>
      </g>
     </g>
    </g>
    <g id="xtick_3">
     <g id="line2d_5">
      <path d="M 446.834928 291.28 
L 446.834928 3 
" clip-path="url(#pbb7dff1d94)" style="fill: none; stroke: #b0b0b0; stroke-width: 0.8; stroke-linecap: square"/>
     </g>
     <g id="line2d_6">
      <g>
       <use xlink:href="#me975e05c5a" x="446.834928" y="291.28" style="stroke: #000000; stroke-width: 0.8"/>
      </g>
     </g>
     <g id="text_3">
      <!-- 1 -->
      <g transform="translate(440.472428 313.476875)scale(0.2 -0.2)">
       <use xlink:href="#DejaVuSans-31"/>
      </g>
     </g>
    </g>
    <g id="xtick_4">
     <g id="line2d_7">
      <defs>
       <path id="m76259baa01" d="M 0 0 
L 0 2 
" style="stroke: #000000; stroke-width: 0.6"/>
      </defs>
      <g>
       <use xlink:href="#m76259baa01" x="96.349835" y="291.28" style="stroke: #000000; stroke-width: 0.6"/>
      </g>
     </g>
    </g>
    <g id="xtick_5">
     <g id="line2d_8">
      <g>
       <use xlink:href="#m76259baa01" x="132.676174" y="291.28" style="stroke: #000000; stroke-width: 0.6"/>
      </g>
     </g>
    </g>
    <g id="xtick_6">
     <g id="line2d_9">
      <g>
       <use xlink:href="#m76259baa01" x="158.450123" y="291.28" style="stroke: #000000; stroke-width: 0.6"/>
      </g>
     </g>
    </g>
    <g id="xtick_7">
     <g id="line2d_10">
      <g>
       <use xlink:href="#m76259baa01" x="178.44195" y="291.28" style="stroke: #000000; stroke-width: 0.6"/>
      </g>
     </g>
    </g>
    <g id="xtick_8">
     <g id="line2d_11">
      <g>
       <use xlink:href="#m76259baa01" x="194.776462" y="291.28" style="stroke: #000000; stroke-width: 0.6"/>
      </g>
     </g>
    </g>
    <g id="xtick_9">
     <g id="line2d_12">
      <g>
       <use xlink:href="#m76259baa01" x="208.587096" y="291.28" style="stroke: #000000; stroke-width: 0.6"/>
      </g>
     </g>
    </g>
    <g id="xtick_10">
     <g id="line2d_13">
      <g>
       <use xlink:href="#m76259baa01" x="220.55041" y="291.28" style="stroke: #000000; stroke-width: 0.6"/>
      </g>
     </g>
    </g>
    <g id="xtick_11">
     <g id="line2d_14">
      <g>
       <use xlink:href="#m76259baa01" x="231.102802" y="291.28" style="stroke: #000000; stroke-width: 0.6"/>
      </g>
     </g>
    </g>
    <g id="xtick_12">
     <g id="line2d_15">
      <g>
       <use xlink:href="#m76259baa01" x="302.642525" y="291.28" style="stroke: #000000; stroke-width: 0.6"/>
      </g>
     </g>
    </g>
    <g id="xtick_13">
     <g id="line2d_16">
      <g>
       <use xlink:href="#m76259baa01" x="338.968865" y="291.28" style="stroke: #000000; stroke-width: 0.6"/>
      </g>
     </g>
    </g>
    <g id="xtick_14">
     <g id="line2d_17">
      <g>
       <use xlink:href="#m76259baa01" x="364.742813" y="291.28" style="stroke: #000000; stroke-width: 0.6"/>
      </g>
     </g>
    </g>
    <g id="xtick_15">
     <g id="line2d_18">
      <g>
       <use xlink:href="#m76259baa01" x="384.73464" y="291.28" style="stroke: #000000; stroke-width: 0.6"/>
      </g>
     </g>
    </g>
    <g id="xtick_16">
     <g id="line2d_19">
      <g>
       <use xlink:href="#m76259baa01" x="401.069153" y="291.28" style="stroke: #000000; stroke-width: 0.6"/>
      </g>
     </g>
    </g>
    <g id="xtick_17">
     <g id="line2d_20">
      <g>
       <use xlink:href="#m76259baa01" x="414.879786" y="291.28" style="stroke: #000000; stroke-width: 0.6"/>
      </g>
     </g>
    </g>
    <g id="xtick_18">
     <g id="line2d_21">
      <g>
       <use xlink:href="#m76259baa01" x="426.843101" y="291.28" style="stroke: #000000; stroke-width: 0.6"/>
      </g>
     </g>
    </g>
    <g id="xtick_19">
     <g id="line2d_22">
      <g>
       <use xlink:href="#m76259baa01" x="437.395492" y="291.28" style="stroke: #000000; stroke-width: 0.6"/>
      </g>
     </g>
    </g>
    <g id="text_4">
     <!-- log10 of FEvals ratio -->
     <g transform="translate(138.23755 336.833125)scale(0.2 -0.2)">
      <defs>
       <path id="DejaVuSans-6c" d="M 603 4863 
L 1178 4863 
L 1178 0 
L 603 0 
L 603 4863 
z
" transform="scale(0.015625)"/>
       <path id="DejaVuSans-6f" d="M 1959 3097 
Q 1497 3097 1228 2736 
Q 959 2375 959 1747 
Q 959 1119 1226 758 
Q 1494 397 1959 397 
Q 2419 397 2687 759 
Q 2956 1122 2956 1747 
Q 2956 2369 2687 2733 
Q 2419 3097 1959 3097 
z
M 1959 3584 
Q 2709 3584 3137 3096 
Q 3566 2609 3566 1747 
Q 3566 888 3137 398 
Q 2709 -91 1959 -91 
Q 1206 -91 779 398 
Q 353 888 353 1747 
Q 353 2609 779 3096 
Q 1206 3584 1959 3584 
z
" transform="scale(0.015625)"/>
       <path id="DejaVuSans-67" d="M 2906 1791 
Q 2906 2416 2648 2759 
Q 2391 3103 1925 3103 
Q 1463 3103 1205 2759 
Q 947 2416 947 1791 
Q 947 1169 1205 825 
Q 1463 481 1925 481 
Q 2391 481 2648 825 
Q 2906 1169 2906 1791 
z
M 3481 434 
Q 3481 -459 3084 -895 
Q 2688 -1331 1869 -1331 
Q 1566 -1331 1297 -1286 
Q 1028 -1241 775 -1147 
L 775 -588 
Q 1028 -725 1275 -790 
Q 1522 -856 1778 -856 
Q 2344 -856 2625 -561 
Q 2906 -266 2906 331 
L 2906 616 
Q 2728 306 2450 153 
Q 2172 0 1784 0 
Q 1141 0 747 490 
Q 353 981 353 1791 
Q 353 2603 747 3093 
Q 1141 3584 1784 3584 
Q 2172 3584 2450 3431 
Q 2728 3278 2906 2969 
L 2906 3500 
L 3481 3500 
L 3481 434 
z
" transform="scale(0.015625)"/>
       <path id="DejaVuSans-20" transform="scale(0.015625)"/>
       <path id="DejaVuSans-66" d="M 2375 4863 
L 2375 4384 
L 1825 4384 
Q 1516 4384 1395 4259 
Q 1275 4134 1275 3809 
L 1275 3500 
L 2222 3500 
L 2222 3053 
L 1275 3053 
L 1275 0 
L 697 0 
L 697 3053 
L 147 3053 
L 147 3500 
L 697 3500 
L 697 3744 
Q 697 4328 969 4595 
Q 1241 4863 1831 4863 
L 2375 4863 
z
" transform="scale(0.015625)"/>
       <path id="DejaVuSans-46" d="M 628 4666 
L 3309 4666 
L 3309 4134 
L 1259 4134 
L 1259 2759 
L 3109 2759 
L 3109 2228 
L 1259 2228 
L 1259 0 
L 628 0 
L 628 4666 
z
" transform="scale(0.015625)"/>
       <path id="DejaVuSans-45" d="M 628 4666 
L 3578 4666 
L 3578 4134 
L 1259 4134 
L 1259 2753 
L 3481 2753 
L 3481 2222 
L 1259 2222 
L 1259 531 
L 3634 531 
L 3634 0 
L 628 0 
L 628 4666 
z
" transform="scale(0.015625)"/>
       <path id="DejaVuSans-76" d="M 191 3500 
L 800 3500 
L 1894 563 
L 2988 3500 
L 3597 3500 
L 2284 0 
L 1503 0 
L 191 3500 
z
" transform="scale(0.015625)"/>
       <path id="DejaVuSans-61" d="M 2194 1759 
Q 1497 1759 1228 1600 
Q 959 1441 959 1056 
Q 959 750 1161 570 
Q 1363 391 1709 391 
Q 2188 391 2477 730 
Q 2766 1069 2766 1631 
L 2766 1759 
L 2194 1759 
z
M 3341 1997 
L 3341 0 
L 2766 0 
L 2766 531 
Q 2569 213 2275 61 
Q 1981 -91 1556 -91 
Q 1019 -91 701 211 
Q 384 513 384 1019 
Q 384 1609 779 1909 
Q 1175 2209 1959 2209 
L 2766 2209 
L 2766 2266 
Q 2766 2663 2505 2880 
Q 2244 3097 1772 3097 
Q 1472 3097 1187 3025 
Q 903 2953 641 2809 
L 641 3341 
Q 956 3463 1253 3523 
Q 1550 3584 1831 3584 
Q 2591 3584 2966 3190 
Q 3341 2797 3341 1997 
z
" transform="scale(0.015625)"/>
       <path id="DejaVuSans-73" d="M 2834 3397 
L 2834 2853 
Q 2591 2978 2328 3040 
Q 2066 3103 1784 3103 
Q 1356 3103 1142 2972 
Q 928 2841 928 2578 
Q 928 2378 1081 2264 
Q 1234 2150 1697 2047 
L 1894 2003 
Q 2506 1872 2764 1633 
Q 3022 1394 3022 966 
Q 3022 478 2636 193 
Q 2250 -91 1575 -91 
Q 1294 -91 989 -36 
Q 684 19 347 128 
L 347 722 
Q 666 556 975 473 
Q 1284 391 1588 391 
Q 1994 391 2212 530 
Q 2431 669 2431 922 
Q 2431 1156 2273 1281 
Q 2116 1406 1581 1522 
L 1381 1569 
Q 847 1681 609 1914 
Q 372 2147 372 2553 
Q 372 3047 722 3315 
Q 1072 3584 1716 3584 
Q 2034 3584 2315 3537 
Q 2597 3491 2834 3397 
z
" transform="scale(0.015625)"/>
       <path id="DejaVuSans-72" d="M 2631 2963 
Q 2534 3019 2420 3045 
Q 2306 3072 2169 3072 
Q 1681 3072 1420 2755 
Q 1159 2438 1159 1844 
L 1159 0 
L 581 0 
L 581 3500 
L 1159 3500 
L 1159 2956 
Q 1341 3275 1631 3429 
Q 1922 3584 2338 3584 
Q 2397 3584 2469 3576 
Q 2541 3569 2628 3553 
L 2631 2963 
z
" transform="scale(0.015625)"/>
       <path id="DejaVuSans-74" d="M 1172 4494 
L 1172 3500 
L 2356 3500 
L 2356 3053 
L 1172 3053 
L 1172 1153 
Q 1172 725 1289 603 
Q 1406 481 1766 481 
L 2356 481 
L 2356 0 
L 1766 0 
Q 1100 0 847 248 
Q 594 497 594 1153 
L 594 3053 
L 172 3053 
L 172 3500 
L 594 3500 
L 594 4494 
L 1172 4494 
z
" transform="scale(0.015625)"/>
       <path id="DejaVuSans-69" d="M 603 3500 
L 1178 3500 
L 1178 0 
L 603 0 
L 603 3500 
z
M 603 4863 
L 1178 4863 
L 1178 4134 
L 603 4134 
L 603 4863 
z
" transform="scale(0.015625)"/>
      </defs>
      <use xlink:href="#DejaVuSans-6c"/>
      <use xlink:href="#DejaVuSans-6f" x="27.783203"/>
      <use xlink:href="#DejaVuSans-67" x="88.964844"/>
      <use xlink:href="#DejaVuSans-31" x="152.441406"/>
      <use xlink:href="#DejaVuSans-30" x="216.064453"/>
      <use xlink:href="#DejaVuSans-20" x="279.6875"/>
      <use xlink:href="#DejaVuSans-6f" x="311.474609"/>
      <use xlink:href="#DejaVuSans-66" x="372.65625"/>
      <use xlink:href="#DejaVuSans-20" x="407.861328"/>
      <use xlink:href="#DejaVuSans-46" x="439.648438"/>
      <use xlink:href="#DejaVuSans-45" x="497.167969"/>
      <use xlink:href="#DejaVuSans-76" x="560.351562"/>
      <use xlink:href="#DejaVuSans-61" x="619.53125"/>
      <use xlink:href="#DejaVuSans-6c" x="680.810547"/>
      <use xlink:href="#DejaVuSans-73" x="708.59375"/>
      <use xlink:href="#DejaVuSans-20" x="760.693359"/>
      <use xlink:href="#DejaVuSans-72" x="792.480469"/>
      <use xlink:href="#DejaVuSans-61" x="833.59375"/>
      <use xlink:href="#DejaVuSans-74" x="894.873047"/>
      <use xlink:href="#DejaVuSans-69" x="934.082031"/>
      <use xlink:href="#DejaVuSans-6f" x="961.865234"/>
     </g>
    </g>
   </g>
   <g id="matplotlib.axis_2">
    <g id="ytick_1">
     <g id="line2d_23">
      <path d="M 34.16 288.453725 
L 446.924475 288.453725 
" clip-path="url(#pbb7dff1d94)" style="fill: none; stroke: #b0b0b0; stroke-width: 0.8; stroke-linecap: square"/>
     </g>
     <g id="line2d_24">
      <defs>
       <path id="mb3293fc87a" d="M 0 0 
L -3.5 0 
" style="stroke: #000000; stroke-width: 0.8"/>
      </defs>
      <g>
       <use xlink:href="#mb3293fc87a" x="34.16" y="288.453725" style="stroke: #000000; stroke-width: 0.8"/>
      </g>
     </g>
    </g>
    <g id="ytick_2">
     <g id="line2d_25">
      <path d="M 34.16 217.796863 
L 446.924475 217.796863 
" clip-path="url(#pbb7dff1d94)" style="fill: none; stroke: #b0b0b0; stroke-width: 0.8; stroke-linecap: square"/>
     </g>
     <g id="line2d_26">
      <g>
       <use xlink:href="#mb3293fc87a" x="34.16" y="217.796863" style="stroke: #000000; stroke-width: 0.8"/>
      </g>
     </g>
    </g>
    <g id="ytick_3">
     <g id="line2d_27">
      <path d="M 34.16 147.14 
L 446.924475 147.14 
" clip-path="url(#pbb7dff1d94)" style="fill: none; stroke: #b0b0b0; stroke-width: 0.8; stroke-linecap: square"/>
     </g>
     <g id="line2d_28">
      <g>
       <use xlink:href="#mb3293fc87a" x="34.16" y="147.14" style="stroke: #000000; stroke-width: 0.8"/>
      </g>
     </g>
    </g>
    <g id="ytick_4">
     <g id="line2d_29">
      <path d="M 34.16 76.483137 
L 446.924475 76.483137 
" clip-path="url(#pbb7dff1d94)" style="fill: none; stroke: #b0b0b0; stroke-width: 0.8; stroke-linecap: square"/>
     </g>
     <g id="line2d_30">
      <g>
       <use xlink:href="#mb3293fc87a" x="34.16" y="76.483137" style="stroke: #000000; stroke-width: 0.8"/>
      </g>
     </g>
    </g>
    <g id="ytick_5">
     <g id="line2d_31">
      <path d="M 34.16 5.826275 
L 446.924475 5.826275 
" clip-path="url(#pbb7dff1d94)" style="fill: none; stroke: #b0b0b0; stroke-width: 0.8; stroke-linecap: square"/>
     </g>
     <g id="line2d_32">
      <g>
       <use xlink:href="#mb3293fc87a" x="34.16" y="5.826275" style="stroke: #000000; stroke-width: 0.8"/>
      </g>
     </g>
    </g>
    <g id="text_5">
     <!-- proportion of trials -->
     <g transform="translate(19.000625 240.14625)rotate(-90)scale(0.2 -0.2)">
      <defs>
       <path id="DejaVuSans-70" d="M 1159 525 
L 1159 -1331 
L 581 -1331 
L 581 3500 
L 1159 3500 
L 1159 2969 
Q 1341 3281 1617 3432 
Q 1894 3584 2278 3584 
Q 2916 3584 3314 3078 
Q 3713 2572 3713 1747 
Q 3713 922 3314 415 
Q 2916 -91 2278 -91 
Q 1894 -91 1617 61 
Q 1341 213 1159 525 
z
M 3116 1747 
Q 3116 2381 2855 2742 
Q 2594 3103 2138 3103 
Q 1681 3103 1420 2742 
Q 1159 2381 1159 1747 
Q 1159 1113 1420 752 
Q 1681 391 2138 391 
Q 2594 391 2855 752 
Q 3116 1113 3116 1747 
z
" transform="scale(0.015625)"/>
       <path id="DejaVuSans-6e" d="M 3513 2113 
L 3513 0 
L 2938 0 
L 2938 2094 
Q 2938 2591 2744 2837 
Q 2550 3084 2163 3084 
Q 1697 3084 1428 2787 
Q 1159 2491 1159 1978 
L 1159 0 
L 581 0 
L 581 3500 
L 1159 3500 
L 1159 2956 
Q 1366 3272 1645 3428 
Q 1925 3584 2291 3584 
Q 2894 3584 3203 3211 
Q 3513 2838 3513 2113 
z
" transform="scale(0.015625)"/>
      </defs>
      <use xlink:href="#DejaVuSans-70"/>
      <use xlink:href="#DejaVuSans-72" x="63.476562"/>
      <use xlink:href="#DejaVuSans-6f" x="102.339844"/>
      <use xlink:href="#DejaVuSans-70" x="163.521484"/>
      <use xlink:href="#DejaVuSans-6f" x="226.998047"/>
      <use xlink:href="#DejaVuSans-72" x="288.179688"/>
      <use xlink:href="#DejaVuSans-74" x="329.292969"/>
      <use xlink:href="#DejaVuSans-69" x="368.501953"/>
      <use xlink:href="#DejaVuSans-6f" x="396.285156"/>
      <use xlink:href="#DejaVuSans-6e" x="457.466797"/>
      <use xlink:href="#DejaVuSans-20" x="520.845703"/>
      <use xlink:href="#DejaVuSans-6f" x="552.632812"/>
      <use xlink:href="#DejaVuSans-66" x="613.814453"/>
      <use xlink:href="#DejaVuSans-20" x="649.019531"/>
      <use xlink:href="#DejaVuSans-74" x="680.806641"/>
      <use xlink:href="#DejaVuSans-72" x="720.015625"/>
      <use xlink:href="#DejaVuSans-69" x="761.128906"/>
      <use xlink:href="#DejaVuSans-61" x="788.912109"/>
      <use xlink:href="#DejaVuSans-6c" x="850.191406"/>
      <use xlink:href="#DejaVuSans-73" x="877.974609"/>
     </g>
    </g>
   </g>
   <g id="line2d_33">
    <path d="M 34.16 288.453725 
L 135.410549 288.453725 
L 135.410549 287.511634 
L 136.686445 287.511634 
L 136.686445 286.569542 
L 139.11895 286.569542 
L 139.11895 285.627451 
L 141.508087 285.627451 
L 141.508087 284.685359 
L 142.262844 284.685359 
L 142.262844 283.743268 
L 143.481236 283.743268 
L 143.481236 282.801176 
L 144.4428 282.801176 
L 144.4428 281.859085 
L 144.765266 281.859085 
L 144.765266 280.916993 
L 146.879422 280.916993 
L 146.879422 279.974902 
L 149.46171 279.974902 
L 149.46171 279.03281 
L 149.686694 279.03281 
L 149.782943 277.148627 
L 153.196226 277.148627 
L 153.196226 276.206536 
L 153.65804 276.206536 
L 153.65804 275.264444 
L 153.849538 275.264444 
L 153.849538 274.322353 
L 154.497738 274.322353 
L 154.544187 271.496078 
L 154.950109 271.496078 
L 154.953733 269.611895 
L 155.377247 269.611895 
L 155.377247 268.669804 
L 156.784503 268.669804 
L 156.784503 267.727712 
L 158.336015 267.727712 
L 158.336015 266.785621 
L 160.256917 266.785621 
L 160.256917 265.843529 
L 160.606818 265.843529 
L 160.606818 264.901438 
L 160.831138 264.901438 
L 160.920774 263.017255 
L 162.45136 263.017255 
L 162.538378 261.133072 
L 162.676344 261.133072 
L 162.782719 258.306797 
L 163.520253 258.306797 
L 163.61622 256.422614 
L 163.803475 256.422614 
L 163.803475 255.480523 
L 164.85519 255.480523 
L 164.85519 254.538431 
L 165.31841 254.538431 
L 165.31841 253.59634 
L 165.760758 253.59634 
L 165.760758 252.654248 
L 165.988915 252.654248 
L 165.988915 251.712157 
L 166.170935 251.712157 
L 166.185876 249.827974 
L 166.406703 249.827974 
L 166.406703 248.885882 
L 166.647691 248.885882 
L 166.647691 247.943791 
L 167.533838 247.943791 
L 167.533838 247.001699 
L 167.943383 247.001699 
L 167.943383 246.059608 
L 168.603441 246.059608 
L 168.603441 245.117516 
L 169.215108 245.117516 
L 169.215108 244.175425 
L 169.710616 244.175425 
L 169.736283 242.291242 
L 170.3838 242.291242 
L 170.3838 241.34915 
L 171.686907 241.34915 
L 171.747335 239.464967 
L 172.075691 239.464967 
L 172.075691 238.522876 
L 173.246567 238.522876 
L 173.246567 237.580784 
L 173.927291 237.580784 
L 173.927291 236.638693 
L 174.249757 236.638693 
L 174.249757 235.696601 
L 174.914944 235.696601 
L 174.993975 233.812418 
L 175.099875 233.812418 
L 175.099875 232.870327 
L 175.223491 232.870327 
L 175.272348 230.986144 
L 175.528028 230.986144 
L 175.546052 229.101961 
L 175.697319 229.101961 
L 175.697319 228.159869 
L 175.893996 228.159869 
L 175.893996 227.217778 
L 176.047757 227.217778 
L 176.088405 225.333595 
L 176.203904 225.333595 
L 176.203904 224.391503 
L 176.509903 224.391503 
L 176.509903 223.449412 
L 176.775004 223.449412 
L 176.775004 222.50732 
L 177.229631 222.50732 
L 177.229631 221.565229 
L 177.445509 221.565229 
L 177.532381 219.681046 
L 178.337423 219.681046 
L 178.337423 218.738954 
L 178.454127 218.738954 
L 178.562407 216.854771 
L 178.658656 216.854771 
L 178.658656 215.91268 
L 180.676275 215.91268 
L 180.676275 214.970588 
L 181.980772 214.970588 
L 182.071939 212.144314 
L 182.533753 212.144314 
L 182.533753 211.202222 
L 182.644936 211.202222 
L 182.725933 207.433856 
L 182.856231 207.433856 
L 182.856231 206.491765 
L 183.178697 206.491765 
L 183.178697 205.549673 
L 183.4199 205.549673 
L 183.4199 204.607582 
L 183.532285 204.607582 
L 183.532285 203.66549 
L 183.650941 203.66549 
L 183.650941 202.723399 
L 183.829446 202.723399 
L 183.875925 200.839216 
L 183.972174 200.839216 
L 183.972174 199.897124 
L 184.287594 199.897124 
L 184.287594 198.955033 
L 184.63992 198.955033 
L 184.63992 198.012941 
L 184.861737 198.012941 
L 184.861737 197.07085 
L 185.177429 197.07085 
L 185.177429 196.128758 
L 185.353262 196.128758 
L 185.353262 195.186667 
L 186.337078 195.186667 
L 186.383816 193.302484 
L 186.728942 193.302484 
L 186.804638 191.418301 
L 187.014925 191.418301 
L 187.072425 189.534118 
L 187.134712 189.534118 
L 187.134712 188.592026 
L 187.322126 188.592026 
L 187.385457 186.707843 
L 187.51663 186.707843 
L 187.51663 185.765752 
L 187.847272 185.765752 
L 187.847272 184.82366 
L 187.983626 184.82366 
L 187.983626 183.881569 
L 188.686225 183.881569 
L 188.733419 181.997386 
L 188.812489 181.997386 
L 188.854122 180.113203 
L 189.078055 180.113203 
L 189.142964 177.286928 
L 189.754632 177.286928 
L 189.754632 176.344837 
L 189.923 176.344837 
L 189.923 175.402745 
L 190.216319 175.402745 
L 190.315628 173.518562 
L 190.405265 173.518562 
L 190.405265 172.576471 
L 190.598559 172.576471 
L 190.671258 170.692288 
L 190.823543 170.692288 
L 190.919792 168.808105 
L 191.190325 168.808105 
L 191.190325 167.866013 
L 191.41409 167.866013 
L 191.41409 166.923922 
L 191.541035 166.923922 
L 191.541035 165.98183 
L 192.009147 165.98183 
L 192.009147 165.039739 
L 192.267209 165.039739 
L 192.267209 164.097647 
L 192.395966 164.097647 
L 192.423299 161.271373 
L 192.718741 161.271373 
L 192.718741 160.329281 
L 192.898525 160.329281 
L 192.898525 159.38719 
L 193.590519 159.38719 
L 193.590519 158.445098 
L 193.790677 158.445098 
L 193.790677 157.503007 
L 193.96643 157.503007 
L 193.96643 156.560915 
L 194.333075 156.560915 
L 194.333075 155.618824 
L 194.446149 155.618824 
L 194.446149 154.676732 
L 194.794889 154.676732 
L 194.794889 153.734641 
L 194.940343 153.734641 
L 194.940343 152.792549 
L 195.078481 152.792549 
L 195.09487 150.908366 
L 195.400948 150.908366 
L 195.400948 149.966275 
L 195.681036 149.966275 
L 195.681036 149.024183 
L 195.98437 149.024183 
L 196.090582 147.14 
L 196.288897 147.14 
L 196.288897 146.197908 
L 196.670243 146.197908 
L 196.727609 144.313725 
L 196.816422 144.313725 
L 196.920006 141.487451 
L 197.421711 141.487451 
L 197.421711 140.545359 
L 197.611914 140.545359 
L 197.709485 138.661176 
L 197.84041 138.661176 
L 197.84041 137.719085 
L 198.314082 137.719085 
L 198.314082 136.776993 
L 198.471519 136.776993 
L 198.501415 134.89281 
L 198.586329 134.89281 
L 198.611996 133.008627 
L 198.699598 133.008627 
L 198.699598 132.066536 
L 198.973224 132.066536 
L 199.077382 130.182353 
L 199.244568 130.182353 
L 199.334205 127.356078 
L 199.676741 127.356078 
L 199.787117 125.471895 
L 199.828081 125.471895 
L 199.828081 124.529804 
L 200.631444 124.529804 
L 200.631444 123.587712 
L 200.789724 123.587712 
L 200.831126 121.703529 
L 201.196149 121.703529 
L 201.196149 120.761438 
L 201.379593 120.761438 
L 201.439204 117.935163 
L 201.594426 117.935163 
L 201.594426 116.993072 
L 202.140131 116.993072 
L 202.140131 116.05098 
L 202.304161 116.05098 
L 202.348311 114.166797 
L 202.659198 114.166797 
L 202.659198 113.224706 
L 202.839208 113.224706 
L 202.839208 112.282614 
L 203.120615 112.282614 
L 203.148488 110.398431 
L 203.237812 110.398431 
L 203.330722 108.514248 
L 203.488688 108.514248 
L 203.488688 107.572157 
L 203.675226 107.572157 
L 203.751723 105.687974 
L 203.869688 105.687974 
L 203.925514 102.861699 
L 204.069864 102.861699 
L 204.069864 101.919608 
L 204.253429 101.919608 
L 204.253429 100.977516 
L 204.657102 100.977516 
L 204.657102 100.035425 
L 204.964118 100.035425 
L 204.964118 99.093333 
L 205.567524 99.093333 
L 205.567524 98.151242 
L 205.688394 98.151242 
L 205.688394 97.20915 
L 206.012928 97.20915 
L 206.012928 96.267059 
L 206.330824 96.267059 
L 206.330824 95.324967 
L 206.659798 95.324967 
L 206.727216 93.440784 
L 207.040559 93.440784 
L 207.040559 92.498693 
L 207.628538 92.498693 
L 207.628538 91.556601 
L 207.884885 91.556601 
L 207.884885 90.61451 
L 208.139116 90.61451 
L 208.139116 89.672418 
L 208.278729 89.672418 
L 208.278984 87.788235 
L 208.578551 87.788235 
L 208.578551 86.846144 
L 208.784612 86.846144 
L 208.874249 84.961961 
L 208.92543 84.961961 
L 208.92543 84.019869 
L 209.183207 84.019869 
L 209.183207 83.077778 
L 209.57491 83.077778 
L 209.57491 82.135686 
L 210.277636 82.135686 
L 210.277636 81.193595 
L 210.736194 81.193595 
L 210.796028 79.309412 
L 210.847465 79.309412 
L 210.873132 77.425229 
L 211.095595 77.425229 
L 211.095595 76.483137 
L 211.466819 76.483137 
L 211.556455 74.598954 
L 211.597 74.598954 
L 211.597 73.656863 
L 211.850525 73.656863 
L 211.850525 72.714771 
L 212.045212 72.714771 
L 212.045212 71.77268 
L 212.24648 71.77268 
L 212.24648 70.830588 
L 212.486501 70.830588 
L 212.564279 68.946405 
L 213.135981 68.946405 
L 213.135981 68.004314 
L 213.318553 68.004314 
L 213.4184 66.120131 
L 213.558933 66.120131 
L 213.596725 64.235948 
L 213.968033 64.235948 
L 213.968033 63.293856 
L 214.115792 63.293856 
L 214.115792 62.351765 
L 214.367569 62.351765 
L 214.367569 61.409673 
L 214.617334 61.409673 
L 214.617334 60.467582 
L 214.816212 60.467582 
L 214.816212 59.52549 
L 215.465692 59.52549 
L 215.532426 57.641307 
L 215.579512 57.641307 
L 215.579512 56.699216 
L 215.831993 56.699216 
L 215.831993 55.757124 
L 216.130824 55.757124 
L 216.228992 53.872941 
L 216.289247 53.872941 
L 216.289247 52.93085 
L 216.740019 52.93085 
L 216.740019 51.988758 
L 216.938728 51.988758 
L 216.938728 51.046667 
L 217.133574 51.046667 
L 217.225254 48.220392 
L 217.783054 48.220392 
L 217.783054 47.278301 
L 218.044197 47.278301 
L 218.044197 46.336209 
L 218.876929 46.336209 
L 218.876929 45.394118 
L 219.103966 45.394118 
L 219.103966 44.452026 
L 219.257063 44.452026 
L 219.257063 43.509935 
L 219.395996 43.509935 
L 219.395996 42.567843 
L 219.59571 42.567843 
L 219.59571 41.625752 
L 219.850789 41.625752 
L 219.850789 40.68366 
L 223.993461 40.68366 
L 223.993461 39.741569 
L 224.157379 39.741569 
L 224.157379 38.799477 
L 224.781115 38.799477 
L 224.875914 36.915294 
L 225.080681 36.915294 
L 225.080681 35.973203 
L 225.360544 35.973203 
L 225.430595 34.08902 
L 225.730162 34.08902 
L 225.730162 33.146928 
L 226.839585 33.146928 
L 226.839585 32.204837 
L 227.877588 32.204837 
L 227.877588 31.262745 
L 228.352655 31.262745 
L 228.352655 30.320654 
L 229.002135 30.320654 
L 229.002135 29.378562 
L 232.613985 29.378562 
L 232.613985 28.436471 
L 233.242149 28.436471 
L 233.242149 27.494379 
L 233.891629 27.494379 
L 233.891629 26.552288 
L 241.862674 26.552288 
L 241.862674 25.610196 
L 242.512154 25.610196 
L 242.512154 24.668105 
L 282.96787 24.668105 
L 282.96787 23.726013 
L 289.769427 23.726013 
L 289.769427 22.783922 
L 290.320632 22.783922 
L 290.320632 21.84183 
L 309.859022 21.84183 
L 309.859022 20.899739 
L 312.45236 20.899739 
L 312.45236 19.957647 
L 319.253917 19.957647 
L 319.253917 19.015556 
L 319.805123 19.015556 
L 319.805123 18.073464 
L 321.3813 18.073464 
L 321.3813 17.131373 
L 328.182857 17.131373 
L 328.182857 16.189281 
L 328.734063 16.189281 
L 328.734063 15.24719 
L 330.921345 15.24719 
L 330.921345 14.305098 
L 333.603551 14.305098 
L 333.603551 13.363007 
L 337.722902 13.363007 
L 337.722902 12.420915 
L 338.274107 12.420915 
L 338.274107 11.478824 
L 339.343513 11.478824 
L 339.343513 10.536732 
L 340.405108 10.536732 
L 340.405108 9.594641 
L 340.956313 9.594641 
L 340.956313 8.652549 
L 348.272453 8.652549 
L 348.272453 7.710458 
L 357.812497 7.710458 
L 357.812497 6.768366 
L 360.494704 6.768366 
L 360.494704 5.826275 
L 446.924475 5.826275 
L 446.924475 5.826275 
" clip-path="url(#pbb7dff1d94)" style="fill: none; stroke: #000000; stroke-width: 3; stroke-linecap: square"/>
   </g>
   <g id="line2d_34">
    <path clip-path="url(#pbb7dff1d94)" style="fill: none; stroke: #000000; stroke-width: 3; stroke-linecap: square"/>
   </g>
   <g id="line2d_35">
    <path d="M 34.16 288.453725 
L 154.921104 288.453725 
L 154.921104 287.511634 
L 159.734361 287.511634 
L 159.734361 286.569542 
L 160.48608 286.569542 
L 160.48608 285.627451 
L 161.209491 285.627451 
L 161.238895 283.743268 
L 162.072857 283.743268 
L 162.072857 282.801176 
L 163.001564 282.801176 
L 163.001564 281.859085 
L 163.237577 281.859085 
L 163.237577 280.916993 
L 163.868704 280.916993 
L 163.868704 279.974902 
L 164.971772 279.974902 
L 164.971772 279.03281 
L 165.291042 279.03281 
L 165.351284 277.148627 
L 165.566196 277.148627 
L 165.566196 276.206536 
L 165.903781 276.206536 
L 165.903781 275.264444 
L 166.184072 275.264444 
L 166.286639 273.380261 
L 166.348122 273.380261 
L 166.348122 272.43817 
L 166.933696 272.43817 
L 166.933696 271.496078 
L 167.386361 271.496078 
L 167.386361 270.553987 
L 167.851512 270.553987 
L 167.851512 269.611895 
L 169.107253 269.611895 
L 169.158179 267.727712 
L 169.382827 267.727712 
L 169.456617 265.843529 
L 170.098426 265.843529 
L 170.098426 264.901438 
L 170.595985 264.901438 
L 170.595985 263.959346 
L 170.870905 263.959346 
L 170.870905 263.017255 
L 172.068635 263.017255 
L 172.107192 261.133072 
L 172.663058 261.133072 
L 172.771163 259.248889 
L 172.905982 259.248889 
L 172.905982 258.306797 
L 173.280935 258.306797 
L 173.383502 256.422614 
L 173.419473 256.422614 
L 173.444985 254.538431 
L 173.699681 254.538431 
L 173.699681 253.59634 
L 173.883689 253.59634 
L 173.956773 250.770065 
L 174.80624 250.770065 
L 174.902052 248.885882 
L 174.948374 248.885882 
L 175.022927 247.001699 
L 175.086197 247.001699 
L 175.086197 246.059608 
L 175.366269 246.059608 
L 175.366269 245.117516 
L 175.953129 245.117516 
L 175.991851 241.34915 
L 176.255042 241.34915 
L 176.255042 240.407059 
L 177.058004 240.407059 
L 177.119538 238.522876 
L 177.264753 238.522876 
L 177.307723 236.638693 
L 177.692848 236.638693 
L 177.692848 235.696601 
L 177.867296 235.696601 
L 177.963328 231.928235 
L 178.517761 231.928235 
L 178.538448 230.044052 
L 178.790302 230.044052 
L 178.790302 229.101961 
L 179.135638 229.101961 
L 179.238204 225.333595 
L 179.258891 225.333595 
L 179.320375 222.50732 
L 180.421674 222.50732 
L 180.421674 221.565229 
L 180.803077 221.565229 
L 180.88589 218.738954 
L 181.087441 218.738954 
L 181.087441 217.796863 
L 182.066464 217.796863 
L 182.130431 214.970588 
L 182.18306 214.970588 
L 182.18306 214.028497 
L 182.321932 214.028497 
L 182.321932 213.086405 
L 182.786148 213.086405 
L 182.826558 211.202222 
L 183.122519 211.202222 
L 183.122519 210.260131 
L 183.481219 210.260131 
L 183.568237 206.491765 
L 183.945435 206.491765 
L 183.971759 204.607582 
L 184.101541 204.607582 
L 184.101541 203.66549 
L 184.216401 203.66549 
L 184.309924 201.781307 
L 184.361616 201.781307 
L 184.361616 200.839216 
L 184.573695 200.839216 
L 184.573695 199.897124 
L 184.710281 199.897124 
L 184.710281 198.955033 
L 184.861635 198.955033 
L 184.964159 197.07085 
L 185.037912 197.07085 
L 185.079444 193.302484 
L 185.185069 193.302484 
L 185.185069 192.360392 
L 186.210182 192.360392 
L 186.210182 191.418301 
L 186.680489 191.418301 
L 186.680489 190.476209 
L 187.220146 190.476209 
L 187.274912 188.592026 
L 187.369469 188.592026 
L 187.395792 186.707843 
L 187.889522 186.707843 
L 187.995356 183.881569 
L 188.037762 183.881569 
L 188.058449 181.055294 
L 188.461945 181.055294 
L 188.461945 180.113203 
L 189.560229 180.113203 
L 189.560229 179.171111 
L 189.924599 179.171111 
L 189.924599 178.22902 
L 190.071104 178.22902 
L 190.09179 175.402745 
L 190.216319 175.402745 
L 190.237006 173.518562 
L 190.63821 173.518562 
L 190.63821 172.576471 
L 190.818862 172.576471 
L 190.914894 168.808105 
L 190.935581 168.808105 
L 190.935581 167.866013 
L 191.102426 167.866013 
L 191.168681 165.98183 
L 191.469866 165.98183 
L 191.469866 165.039739 
L 191.617233 165.039739 
L 191.654125 163.155556 
L 192.081449 163.155556 
L 192.081449 162.213464 
L 192.304702 162.213464 
L 192.377327 160.329281 
L 192.841543 160.329281 
L 192.841543 159.38719 
L 193.203758 159.38719 
L 193.203758 158.445098 
L 193.815909 158.445098 
L 193.815909 157.503007 
L 194.52646 157.503007 
L 194.52646 156.560915 
L 194.735838 156.560915 
L 194.776462 154.676732 
L 195.083471 154.676732 
L 195.083471 153.734641 
L 195.200054 153.734641 
L 195.200054 152.792549 
L 195.505483 152.792549 
L 195.505483 151.850458 
L 196.265576 151.850458 
L 196.265576 150.908366 
L 196.478182 150.908366 
L 196.478182 149.966275 
L 196.662442 149.966275 
L 196.662442 149.024183 
L 196.794914 149.024183 
L 196.794914 148.082092 
L 197.44029 148.082092 
L 197.44029 147.14 
L 197.904507 147.14 
L 197.904507 146.197908 
L 198.624087 146.197908 
L 198.624087 145.255817 
L 198.828255 145.255817 
L 198.828255 144.313725 
L 198.97347 144.313725 
L 198.97347 143.371634 
L 199.576013 143.371634 
L 199.672045 141.487451 
L 199.696714 141.487451 
L 199.784779 139.603268 
L 199.885131 139.603268 
L 199.885131 138.661176 
L 200.008067 138.661176 
L 200.008067 137.719085 
L 200.627546 137.719085 
L 200.71945 135.834902 
L 201.029227 135.834902 
L 201.091425 133.950719 
L 201.183666 133.950719 
L 201.275684 132.066536 
L 201.32854 132.066536 
L 201.402778 130.182353 
L 201.587037 130.182353 
L 201.587037 129.240261 
L 202.022257 129.240261 
L 202.022257 128.29817 
L 202.206516 128.29817 
L 202.206516 127.356078 
L 202.46069 127.356078 
L 202.46069 126.413987 
L 203.855401 126.413987 
L 203.855401 125.471895 
L 204.03966 125.471895 
L 204.03966 124.529804 
L 204.158216 124.529804 
L 204.158216 123.587712 
L 204.398022 123.587712 
L 204.398022 122.645621 
L 204.607699 122.645621 
L 204.709375 119.819346 
L 204.893448 119.819346 
L 204.893448 118.877255 
L 205.328854 118.877255 
L 205.328854 117.935163 
L 205.552928 117.935163 
L 205.552928 116.993072 
L 205.737187 116.993072 
L 205.842484 115.108889 
L 205.969697 115.108889 
L 206.070729 113.224706 
L 206.10748 113.224706 
L 206.10748 112.282614 
L 206.254988 112.282614 
L 206.254988 111.340523 
L 206.594204 111.340523 
L 206.594204 110.398431 
L 207.161997 110.398431 
L 207.253198 108.514248 
L 207.317615 108.514248 
L 207.364408 105.687974 
L 207.548667 105.687974 
L 207.548667 104.745882 
L 208.180981 104.745882 
L 208.180981 103.803791 
L 208.337267 103.803791 
L 208.337267 102.861699 
L 208.859524 102.861699 
L 208.859524 101.919608 
L 208.972255 101.919608 
L 208.972255 100.977516 
L 209.345701 100.977516 
L 209.377326 99.093333 
L 209.50669 99.093333 
L 209.50669 98.151242 
L 209.731978 98.151242 
L 209.818043 96.267059 
L 209.916237 96.267059 
L 209.916237 95.324967 
L 210.366966 95.324967 
L 210.437522 93.440784 
L 210.528796 93.440784 
L 210.551226 91.556601 
L 210.671004 91.556601 
L 210.671004 90.61451 
L 210.920737 90.61451 
L 210.920737 89.672418 
L 211.399165 89.672418 
L 211.399165 88.730327 
L 211.672456 88.730327 
L 211.673023 86.846144 
L 211.786647 86.846144 
L 211.786647 85.904052 
L 211.923507 85.904052 
L 211.923507 84.961961 
L 212.066455 84.961961 
L 212.107766 83.077778 
L 212.270666 83.077778 
L 212.270666 82.135686 
L 212.395868 82.135686 
L 212.425271 80.251503 
L 212.818175 80.251503 
L 212.818175 79.309412 
L 213.038575 79.309412 
L 213.067735 76.483137 
L 213.181358 76.483137 
L 213.259233 73.656863 
L 213.365617 73.656863 
L 213.365617 72.714771 
L 213.541586 72.714771 
L 213.570989 70.830588 
L 213.673563 70.830588 
L 213.673563 69.888497 
L 213.968193 69.888497 
L 213.968193 68.946405 
L 214.404951 68.946405 
L 214.485994 66.120131 
L 215.215376 66.120131 
L 215.230104 64.235948 
L 215.49095 64.235948 
L 215.569672 61.409673 
L 215.779673 61.409673 
L 215.779673 60.467582 
L 216.125744 60.467582 
L 216.125744 59.52549 
L 216.374331 59.52549 
L 216.477418 57.641307 
L 216.487954 57.641307 
L 216.487954 56.699216 
L 217.623136 56.699216 
L 217.623136 55.757124 
L 218.120073 55.757124 
L 218.147243 53.872941 
L 218.782232 53.872941 
L 218.855833 51.988758 
L 219.265791 51.988758 
L 219.265791 51.046667 
L 219.807804 51.046667 
L 219.807804 50.104575 
L 220.293629 50.104575 
L 220.338772 48.220392 
L 220.569203 48.220392 
L 220.642994 46.336209 
L 221.117007 46.336209 
L 221.117007 45.394118 
L 221.439347 45.394118 
L 221.483 43.509935 
L 221.596623 43.509935 
L 221.596623 42.567843 
L 221.714921 42.567843 
L 221.788712 40.68366 
L 222.511718 40.68366 
L 222.511718 39.741569 
L 222.695977 39.741569 
L 222.695977 38.799477 
L 224.886057 38.799477 
L 224.886057 37.857386 
L 225.818315 37.857386 
L 225.818315 36.915294 
L 226.031775 36.915294 
L 226.031775 35.973203 
L 230.926983 35.973203 
L 230.926983 35.031111 
L 255.316854 35.031111 
L 255.316854 34.08902 
L 256.043624 34.08902 
L 256.043624 33.146928 
L 257.351932 33.146928 
L 257.351932 32.204837 
L 258.078702 32.204837 
L 258.078702 31.262745 
L 262.233867 31.262745 
L 262.233867 30.320654 
L 264.867623 30.320654 
L 264.963957 28.436471 
L 265.331839 28.436471 
L 265.331839 27.494379 
L 265.594393 27.494379 
L 265.594393 26.552288 
L 266.05861 26.552288 
L 266.05861 25.610196 
L 267.31212 25.610196 
L 267.31212 24.668105 
L 268.457838 24.668105 
L 268.457838 23.726013 
L 268.755873 23.726013 
L 268.755873 22.783922 
L 269.482643 22.783922 
L 269.482643 21.84183 
L 270.042209 21.84183 
L 270.042209 20.899739 
L 271.187928 20.899739 
L 271.187928 19.957647 
L 346.252488 19.957647 
L 346.252488 19.015556 
L 351.065745 19.015556 
L 351.065745 18.073464 
L 351.817464 18.073464 
L 351.817464 17.131373 
L 352.540876 17.131373 
L 352.570279 15.24719 
L 353.404241 15.24719 
L 353.404241 14.305098 
L 354.568962 14.305098 
L 354.568962 13.363007 
L 356.622426 13.363007 
L 356.622426 12.420915 
L 358.265081 12.420915 
L 358.265081 11.478824 
L 360.438637 11.478824 
L 360.438637 10.536732 
L 360.714211 10.536732 
L 360.788002 8.652549 
L 365.031065 8.652549 
L 365.031065 7.710458 
L 407.457128 7.710458 
L 407.457128 6.768366 
L 410.187217 6.768366 
L 410.187217 5.826275 
L 446.924475 5.826275 
L 446.924475 5.826275 
" clip-path="url(#pbb7dff1d94)" style="fill: none; stroke: #00bfbf; stroke-width: 3; stroke-linecap: square"/>
   </g>
   <g id="line2d_36">
    <path clip-path="url(#pbb7dff1d94)" style="fill: none; stroke: #00bfbf; stroke-width: 3; stroke-linecap: square"/>
   </g>
   <g id="line2d_37">
    <path d="M 34.16 288.453725 
L 156.135419 288.453725 
L 156.135419 287.511634 
L 159.819396 287.511634 
L 159.819396 286.569542 
L 160.84276 286.569542 
L 160.84276 285.627451 
L 162.037927 285.627451 
L 162.037927 284.685359 
L 162.281825 284.685359 
L 162.281825 283.743268 
L 163.483038 283.743268 
L 163.483038 282.801176 
L 164.230242 282.801176 
L 164.230242 281.859085 
L 164.885475 281.859085 
L 164.885475 280.916993 
L 165.013696 280.916993 
L 165.013696 279.974902 
L 165.558472 279.974902 
L 165.558472 279.03281 
L 165.745702 279.03281 
L 165.745702 278.090719 
L 166.090024 278.090719 
L 166.090024 277.148627 
L 166.306966 277.148627 
L 166.306966 276.206536 
L 166.514453 276.206536 
L 166.543266 274.322353 
L 166.678881 274.322353 
L 166.678881 273.380261 
L 167.037984 273.380261 
L 167.037984 272.43817 
L 167.923567 272.43817 
L 167.923567 271.496078 
L 168.695775 271.496078 
L 168.735039 269.611895 
L 169.009035 269.611895 
L 169.009035 268.669804 
L 169.524785 268.669804 
L 169.524785 267.727712 
L 170.071623 267.727712 
L 170.071623 266.785621 
L 170.658309 266.785621 
L 170.658309 265.843529 
L 170.775864 265.843529 
L 170.818827 263.959346 
L 170.942533 263.959346 
L 170.942533 263.017255 
L 171.114353 263.017255 
L 171.114353 262.075163 
L 171.514326 262.075163 
L 171.514326 261.133072 
L 172.147057 261.133072 
L 172.147057 260.19098 
L 172.337329 260.19098 
L 172.337329 259.248889 
L 172.510695 259.248889 
L 172.510695 258.306797 
L 172.810818 258.306797 
L 172.895551 256.422614 
L 173.103038 256.422614 
L 173.103038 255.480523 
L 173.267466 255.480523 
L 173.267466 254.538431 
L 173.513709 254.538431 
L 173.513709 253.59634 
L 173.666835 253.59634 
L 173.666835 252.654248 
L 173.807684 252.654248 
L 173.807684 251.712157 
L 174.057701 251.712157 
L 174.057701 250.770065 
L 174.32904 250.770065 
L 174.32904 249.827974 
L 174.512152 249.827974 
L 174.512152 248.885882 
L 174.62687 248.885882 
L 174.663205 246.059608 
L 174.985388 246.059608 
L 175.076245 244.175425 
L 175.352646 244.175425 
L 175.352646 243.233333 
L 175.59762 243.233333 
L 175.666218 240.407059 
L 176.09985 240.407059 
L 176.210211 238.522876 
L 176.30196 238.522876 
L 176.404474 236.638693 
L 176.505659 236.638693 
L 176.505659 235.696601 
L 176.643179 235.696601 
L 176.643179 234.75451 
L 176.799599 234.75451 
L 176.799599 233.812418 
L 177.152968 233.812418 
L 177.152968 232.870327 
L 177.360456 232.870327 
L 177.42808 230.044052 
L 177.524883 230.044052 
L 177.567981 228.159869 
L 178.176574 228.159869 
L 178.176574 227.217778 
L 178.384061 227.217778 
L 178.384061 226.275686 
L 178.548489 226.275686 
L 178.548489 225.333595 
L 178.769569 225.333595 
L 178.875841 223.449412 
L 178.925914 223.449412 
L 178.925914 222.50732 
L 179.2298 222.50732 
L 179.31011 220.623137 
L 179.793175 220.623137 
L 179.855037 218.738954 
L 179.9207 218.738954 
L 179.9207 217.796863 
L 180.138924 217.796863 
L 180.138924 216.854771 
L 180.417002 216.854771 
L 180.417002 215.91268 
L 180.533632 215.91268 
L 180.533632 214.970588 
L 180.758222 214.970588 
L 180.758222 214.028497 
L 180.878643 214.028497 
L 180.878643 213.086405 
L 181.215455 213.086405 
L 181.273019 211.202222 
L 181.382309 211.202222 
L 181.382309 210.260131 
L 181.614239 210.260131 
L 181.621867 208.375948 
L 182.073209 208.375948 
L 182.073209 207.433856 
L 182.206592 207.433856 
L 182.291433 204.607582 
L 182.610608 204.607582 
L 182.645472 202.723399 
L 183.094244 202.723399 
L 183.183331 200.839216 
L 183.272402 200.839216 
L 183.272402 199.897124 
L 183.388184 199.897124 
L 183.465641 198.012941 
L 183.613622 198.012941 
L 183.613622 197.07085 
L 183.777511 197.07085 
L 183.816395 195.186667 
L 184.009835 195.186667 
L 184.009835 194.244575 
L 184.156566 194.244575 
L 184.226128 190.476209 
L 184.648674 190.476209 
L 184.758354 188.592026 
L 185.262025 188.592026 
L 185.262025 187.649935 
L 185.472873 187.649935 
L 185.504691 185.765752 
L 185.61815 185.765752 
L 185.61815 184.82366 
L 186.009229 184.82366 
L 186.009229 183.881569 
L 186.46401 183.881569 
L 186.501061 181.055294 
L 186.910863 181.055294 
L 186.910863 180.113203 
L 187.337458 180.113203 
L 187.351661 178.22902 
L 187.487615 178.22902 
L 187.504074 176.344837 
L 187.645601 176.344837 
L 187.645601 175.402745 
L 188.048067 175.402745 
L 188.085953 173.518562 
L 188.29344 173.518562 
L 188.404076 170.692288 
L 188.413984 170.692288 
L 188.457868 168.808105 
L 188.561368 168.808105 
L 188.669207 166.923922 
L 188.988493 166.923922 
L 188.988493 165.98183 
L 189.329713 165.98183 
L 189.437589 163.155556 
L 189.679393 163.155556 
L 189.702554 161.271373 
L 189.897617 161.271373 
L 189.897617 160.329281 
L 190.020613 160.329281 
L 190.020613 159.38719 
L 190.224021 159.38719 
L 190.238837 157.503007 
L 190.556585 157.503007 
L 190.556585 156.560915 
L 190.788022 156.560915 
L 190.788022 155.618824 
L 191.33761 155.618824 
L 191.33761 154.676732 
L 192.069381 154.676732 
L 192.145331 152.792549 
L 192.433461 152.792549 
L 192.433461 151.850458 
L 192.554851 151.850458 
L 192.554851 150.908366 
L 192.822218 150.908366 
L 192.822218 149.966275 
L 193.028769 149.966275 
L 193.028769 149.024183 
L 193.220165 149.024183 
L 193.261093 146.197908 
L 193.477386 146.197908 
L 193.565554 143.371634 
L 193.788926 143.371634 
L 193.788926 142.429542 
L 193.911065 142.429542 
L 193.911065 141.487451 
L 194.116315 141.487451 
L 194.129289 139.603268 
L 194.517047 139.603268 
L 194.589721 137.719085 
L 194.858266 137.719085 
L 194.946388 135.834902 
L 195.021587 135.834902 
L 195.021587 134.89281 
L 195.206133 134.89281 
L 195.206133 133.950719 
L 196.044951 133.950719 
L 196.044951 133.008627 
L 196.405857 133.008627 
L 196.405857 132.066536 
L 196.536782 132.066536 
L 196.612732 130.182353 
L 196.769106 130.182353 
L 196.845056 128.29817 
L 196.9854 128.29817 
L 197.061349 126.413987 
L 197.240118 126.413987 
L 197.289619 124.529804 
L 197.396994 124.529804 
L 197.484016 121.703529 
L 197.521943 121.703529 
L 197.521943 120.761438 
L 197.738236 120.761438 
L 197.738236 119.819346 
L 198.162769 119.819346 
L 198.162769 118.877255 
L 198.284645 118.877255 
L 198.284645 117.935163 
L 198.503988 117.935163 
L 198.578585 116.05098 
L 198.619739 116.05098 
L 198.680487 114.166797 
L 198.748719 114.166797 
L 198.748719 113.224706 
L 198.936043 113.224706 
L 198.936043 112.282614 
L 199.346968 112.282614 
L 199.346968 111.340523 
L 199.475279 111.340523 
L 199.475279 110.398431 
L 200.215887 110.398431 
L 200.215887 109.45634 
L 200.442259 109.45634 
L 200.442259 108.514248 
L 200.947893 108.514248 
L 200.947893 107.572157 
L 201.292215 107.572157 
L 201.292215 106.630065 
L 201.684719 106.630065 
L 201.684719 105.687974 
L 202.127753 105.687974 
L 202.203702 103.803791 
L 202.364464 103.803791 
L 202.394441 101.919608 
L 202.804106 101.919608 
L 202.880589 100.035425 
L 202.983293 100.035425 
L 203.059242 97.20915 
L 203.387828 97.20915 
L 203.387828 96.267059 
L 203.736129 96.267059 
L 203.840979 94.382876 
L 203.93723 94.382876 
L 203.93723 93.440784 
L 204.197646 93.440784 
L 204.197646 92.498693 
L 204.457392 92.498693 
L 204.457392 91.556601 
L 204.582994 91.556601 
L 204.582994 90.61451 
L 204.726976 90.61451 
L 204.826892 88.730327 
L 204.973957 88.730327 
L 204.973957 87.788235 
L 205.192732 87.788235 
L 205.268681 85.904052 
L 205.402433 85.904052 
L 205.402433 84.961961 
L 205.945568 84.961961 
L 205.945568 84.019869 
L 206.144725 84.019869 
L 206.144725 83.077778 
L 206.312119 83.077778 
L 206.388068 80.251503 
L 206.548198 80.251503 
L 206.624147 78.36732 
L 207.064956 78.36732 
L 207.064956 77.425229 
L 207.27219 77.425229 
L 207.348992 74.598954 
L 207.424942 74.598954 
L 207.424942 73.656863 
L 207.558764 73.656863 
L 207.558764 72.714771 
L 207.705659 72.714771 
L 207.781608 70.830588 
L 207.965405 70.830588 
L 208.041354 68.946405 
L 208.101829 68.946405 
L 208.187301 67.062222 
L 208.290769 67.062222 
L 208.290769 66.120131 
L 208.458496 66.120131 
L 208.458496 65.178039 
L 208.635091 65.178039 
L 208.718241 63.293856 
L 209.009875 63.293856 
L 209.08641 61.409673 
L 209.693517 61.409673 
L 209.693517 60.467582 
L 210.109774 60.467582 
L 210.109774 59.52549 
L 210.956167 59.52549 
L 210.956167 58.583399 
L 211.280106 58.583399 
L 211.30494 56.699216 
L 211.548838 56.699216 
L 211.548838 55.757124 
L 211.695314 55.757124 
L 211.771264 53.872941 
L 211.979531 53.872941 
L 212.069853 51.988758 
L 212.448151 51.988758 
L 212.448151 51.046667 
L 213.174698 51.046667 
L 213.27748 48.220392 
L 213.418596 48.220392 
L 213.487601 46.336209 
L 213.659421 46.336209 
L 213.659421 45.394118 
L 213.954367 45.394118 
L 213.954367 44.452026 
L 214.225215 44.452026 
L 214.28071 42.567843 
L 215.012715 42.567843 
L 215.012715 41.625752 
L 215.357037 41.625752 
L 215.357037 40.68366 
L 216.150467 40.68366 
L 216.227923 38.799477 
L 216.352751 38.799477 
L 216.352751 37.857386 
L 216.882473 37.857386 
L 216.882473 36.915294 
L 217.226795 36.915294 
L 217.226795 35.973203 
L 217.733228 35.973203 
L 217.809178 34.08902 
L 218.002052 34.08902 
L 218.002052 33.146928 
L 218.486065 33.146928 
L 218.486065 32.204837 
L 218.791799 32.204837 
L 218.791799 31.262745 
L 219.140518 31.262745 
L 219.140518 30.320654 
L 219.87181 30.320654 
L 219.87181 29.378562 
L 220.209547 29.378562 
L 220.209547 28.436471 
L 220.381367 28.436471 
L 220.381367 27.494379 
L 220.661556 27.494379 
L 220.661556 26.552288 
L 222.079305 26.552288 
L 222.079305 25.610196 
L 222.251125 25.610196 
L 222.251125 24.668105 
L 223.074697 24.668105 
L 223.074697 23.726013 
L 224.944455 23.726013 
L 224.944455 22.783922 
L 250.071035 22.783922 
L 250.071035 21.84183 
L 251.081362 21.84183 
L 251.081362 20.899739 
L 251.430114 20.899739 
L 251.430114 19.957647 
L 252.223544 19.957647 
L 252.223544 19.015556 
L 253.233871 19.015556 
L 253.233871 18.073464 
L 254.342709 18.073464 
L 254.342709 17.131373 
L 258.772991 17.131373 
L 258.772991 16.189281 
L 259.829728 16.189281 
L 259.829728 15.24719 
L 260.170948 15.24719 
L 260.170948 14.305098 
L 260.840055 14.305098 
L 260.840055 13.363007 
L 261.181275 13.363007 
L 261.181275 12.420915 
L 261.685586 12.420915 
L 261.685586 11.478824 
L 264.0614 11.478824 
L 264.0614 10.536732 
L 265.071728 10.536732 
L 265.071728 9.594641 
L 265.494936 9.594641 
L 265.494936 8.652549 
L 267.364694 8.652549 
L 267.364694 7.710458 
L 268.407532 7.710458 
L 268.407532 6.768366 
L 270.277289 6.768366 
L 270.277289 5.826275 
L 446.924475 5.826275 
L 446.924475 5.826275 
" clip-path="url(#pbb7dff1d94)" style="fill: none; stroke: #bf00bf; stroke-width: 3; stroke-linecap: square"/>
   </g>
   <g id="line2d_38">
    <path clip-path="url(#pbb7dff1d94)" style="fill: none; stroke: #bf00bf; stroke-width: 3; stroke-linecap: square"/>
   </g>
   <g id="line2d_39">
    <path d="M 34.16 288.453725 
L 156.039748 288.453725 
L 156.039748 287.511634 
L 158.402134 287.511634 
L 158.402134 286.569542 
L 159.003561 286.569542 
L 159.003561 285.627451 
L 159.363845 285.627451 
L 159.363845 284.685359 
L 160.643653 284.685359 
L 160.643653 283.743268 
L 163.061094 283.743268 
L 163.061094 282.801176 
L 164.974076 282.801176 
L 164.974076 281.859085 
L 165.577932 281.859085 
L 165.577932 280.916993 
L 165.726671 280.916993 
L 165.770893 279.03281 
L 166.075205 279.03281 
L 166.075205 278.090719 
L 166.432413 278.090719 
L 166.469235 276.206536 
L 166.783983 276.206536 
L 166.783983 275.264444 
L 167.208002 275.264444 
L 167.208002 274.322353 
L 167.831283 274.322353 
L 167.831283 273.380261 
L 168.137467 273.380261 
L 168.161138 271.496078 
L 168.789033 271.496078 
L 168.803415 269.611895 
L 169.389368 269.611895 
L 169.389368 268.669804 
L 169.740938 268.669804 
L 169.827244 266.785621 
L 169.875133 266.785621 
L 169.875133 265.843529 
L 170.07412 265.843529 
L 170.07412 264.901438 
L 170.522912 264.901438 
L 170.522912 263.959346 
L 170.677976 263.959346 
L 170.69827 262.075163 
L 170.987938 262.075163 
L 170.987938 261.133072 
L 171.175249 261.133072 
L 171.175249 260.19098 
L 171.450532 260.19098 
L 171.516472 257.364706 
L 172.308046 257.364706 
L 172.308046 256.422614 
L 172.580723 256.422614 
L 172.580723 255.480523 
L 172.835214 255.480523 
L 172.835214 254.538431 
L 173.180293 254.538431 
L 173.237511 250.770065 
L 173.363513 250.770065 
L 173.363513 249.827974 
L 173.702882 249.827974 
L 173.702882 248.885882 
L 173.903459 248.885882 
L 173.967369 246.059608 
L 174.412388 246.059608 
L 174.473427 243.233333 
L 174.801597 243.233333 
L 174.853987 241.34915 
L 174.975177 241.34915 
L 174.975177 240.407059 
L 175.537678 240.407059 
L 175.644508 236.638693 
L 175.701973 236.638693 
L 175.701973 235.696601 
L 175.996079 235.696601 
L 176.064703 233.812418 
L 176.385338 233.812418 
L 176.385338 232.870327 
L 176.526905 232.870327 
L 176.526905 231.928235 
L 176.659837 231.928235 
L 176.766968 230.044052 
L 177.058488 230.044052 
L 177.058488 229.101961 
L 177.192852 229.101961 
L 177.192852 228.159869 
L 177.370824 228.159869 
L 177.390739 226.275686 
L 177.858234 226.275686 
L 177.919273 223.449412 
L 178.26457 223.449412 
L 178.289399 221.565229 
L 178.544581 221.565229 
L 178.544581 220.623137 
L 178.889262 220.623137 
L 178.983524 217.796863 
L 179.000895 217.796863 
L 179.076375 215.91268 
L 179.240833 215.91268 
L 179.240833 214.970588 
L 179.901641 214.970588 
L 179.93036 213.086405 
L 180.105683 213.086405 
L 180.200034 210.260131 
L 180.596307 210.260131 
L 180.667528 208.375948 
L 180.728567 208.375948 
L 180.802017 206.491765 
L 181.164747 206.491765 
L 181.164747 205.549673 
L 181.485382 205.549673 
L 181.578793 202.723399 
L 181.668025 202.723399 
L 181.668025 201.781307 
L 181.792818 201.781307 
L 181.792818 200.839216 
L 182.03333 200.839216 
L 182.03333 199.897124 
L 182.158532 199.897124 
L 182.253404 198.012941 
L 182.315804 198.012941 
L 182.315804 197.07085 
L 182.521965 197.07085 
L 182.521965 196.128758 
L 182.869061 196.128758 
L 182.914977 194.244575 
L 183.147985 194.244575 
L 183.191034 192.360392 
L 183.444788 192.360392 
L 183.444788 191.418301 
L 183.912282 191.418301 
L 183.973322 188.592026 
L 184.09141 188.592026 
L 184.166385 186.707843 
L 184.454141 186.707843 
L 184.454141 185.765752 
L 184.72859 185.765752 
L 184.774775 182.939477 
L 184.947382 182.939477 
L 185.037572 180.113203 
L 185.267514 180.113203 
L 185.267514 179.171111 
L 185.447925 179.171111 
L 185.479177 176.344837 
L 186.159731 176.344837 
L 186.159731 175.402745 
L 186.400312 175.402745 
L 186.400312 174.460654 
L 186.593832 174.460654 
L 186.594489 172.576471 
L 186.919427 172.576471 
L 187.018759 170.692288 
L 187.329777 170.692288 
L 187.329777 169.750196 
L 187.494865 169.750196 
L 187.494865 168.808105 
L 187.683328 168.808105 
L 187.756676 166.923922 
L 187.857596 166.923922 
L 187.857596 165.98183 
L 187.995724 165.98183 
L 187.995724 165.039739 
L 188.17823 165.039739 
L 188.288471 163.155556 
L 188.419511 163.155556 
L 188.419511 162.213464 
L 188.695676 162.213464 
L 188.695676 161.271373 
L 188.85138 161.271373 
L 188.924766 159.38719 
L 189.067442 159.38719 
L 189.067442 158.445098 
L 189.403126 158.445098 
L 189.403126 157.503007 
L 189.542857 157.503007 
L 189.542857 156.560915 
L 189.715221 156.560915 
L 189.715221 155.618824 
L 189.975714 155.618824 
L 189.975714 154.676732 
L 190.27904 154.676732 
L 190.365273 152.792549 
L 190.555204 152.792549 
L 190.555204 151.850458 
L 191.00143 151.850458 
L 191.00143 150.908366 
L 191.533225 150.908366 
L 191.533225 149.966275 
L 191.73406 149.966275 
L 191.73406 149.024183 
L 192.381665 149.024183 
L 192.381665 148.082092 
L 192.64788 148.082092 
L 192.64788 147.14 
L 192.879807 147.14 
L 192.954695 145.255817 
L 193.174567 145.255817 
L 193.174567 144.313725 
L 193.42156 144.313725 
L 193.42156 143.371634 
L 193.993906 143.371634 
L 193.993906 142.429542 
L 194.894282 142.429542 
L 194.978814 140.545359 
L 195.232989 140.545359 
L 195.317081 137.719085 
L 195.577647 137.719085 
L 195.579784 135.834902 
L 195.75268 135.834902 
L 195.777144 133.950719 
L 195.918508 133.950719 
L 195.918508 133.008627 
L 196.230854 133.008627 
L 196.278792 130.182353 
L 196.419321 130.182353 
L 196.419321 129.240261 
L 197.141867 129.240261 
L 197.141867 128.29817 
L 197.5586 128.29817 
L 197.636673 126.413987 
L 197.694074 126.413987 
L 197.694074 125.471895 
L 198.249152 125.471895 
L 198.249152 124.529804 
L 198.430257 124.529804 
L 198.430257 123.587712 
L 198.706421 123.587712 
L 198.738753 121.703529 
L 198.87933 121.703529 
L 198.87933 120.761438 
L 199.475608 120.761438 
L 199.475608 119.819346 
L 199.631178 119.819346 
L 199.631178 118.877255 
L 200.047256 118.877255 
L 200.047256 117.935163 
L 200.394051 117.935163 
L 200.394051 116.993072 
L 200.566947 116.993072 
L 200.611538 115.108889 
L 200.783439 115.108889 
L 200.783439 114.166797 
L 201.059603 114.166797 
L 201.130234 112.282614 
L 201.212965 112.282614 
L 201.30313 110.398431 
L 201.406399 110.398431 
L 201.406399 109.45634 
L 201.573249 109.45634 
L 201.579294 107.572157 
L 201.807116 107.572157 
L 201.807116 106.630065 
L 201.956135 106.630065 
L 201.976894 104.745882 
L 202.641618 104.745882 
L 202.692317 101.919608 
L 202.853057 101.919608 
L 202.853057 100.977516 
L 202.968482 100.977516 
L 202.968482 100.035425 
L 203.384182 100.035425 
L 203.384182 99.093333 
L 203.55302 99.093333 
L 203.55302 98.151242 
L 203.693598 98.151242 
L 203.748719 96.267059 
L 204.289203 96.267059 
L 204.289203 95.324967 
L 204.42978 95.324967 
L 204.445446 93.440784 
L 204.565367 93.440784 
L 204.565367 92.498693 
L 204.705945 92.498693 
L 204.74623 90.61451 
L 205.181628 90.61451 
L 205.241194 88.730327 
L 205.457793 88.730327 
L 205.457793 87.788235 
L 205.70398 87.788235 
L 205.78789 85.904052 
L 206.621384 85.904052 
L 206.621384 84.961961 
L 206.742192 84.961961 
L 206.791161 83.077778 
L 207.357566 83.077778 
L 207.357566 82.135686 
L 207.502394 82.135686 
L 207.613217 79.309412 
L 207.633731 79.309412 
L 207.633731 78.36732 
L 207.803509 78.36732 
L 207.803509 77.425229 
L 207.936075 77.425229 
L 207.980843 74.598954 
L 208.141072 74.598954 
L 208.141072 73.656863 
L 208.487867 73.656863 
L 208.562986 71.77268 
L 208.660763 71.77268 
L 208.678639 69.888497 
L 209.299169 69.888497 
L 209.299169 68.946405 
L 209.575333 68.946405 
L 209.668447 67.062222 
L 209.86478 67.062222 
L 209.86478 66.120131 
L 210.040687 66.120131 
L 210.09524 62.351765 
L 210.343229 62.351765 
L 210.343229 61.409673 
L 210.466207 61.409673 
L 210.466207 60.467582 
L 210.791644 60.467582 
L 210.826491 58.583399 
L 210.944656 58.583399 
L 210.998437 56.699216 
L 211.067808 56.699216 
L 211.067808 55.757124 
L 211.30494 55.757124 
L 211.30494 54.815033 
L 211.646836 54.815033 
L 211.646836 53.872941 
L 211.787413 53.872941 
L 211.787413 52.93085 
L 212.036648 52.93085 
L 212.106299 51.046667 
L 212.539261 51.046667 
L 212.584748 49.162484 
L 212.907674 49.162484 
L 212.907674 48.220392 
L 214.482715 48.220392 
L 214.482715 47.278301 
L 214.715199 47.278301 
L 214.715199 46.336209 
L 214.884977 46.336209 
L 214.884977 45.394118 
L 215.218897 45.394118 
L 215.218897 44.452026 
L 215.389697 44.452026 
L 215.495062 42.567843 
L 216.656802 42.567843 
L 216.656802 41.625752 
L 216.999265 41.625752 
L 217.038476 39.741569 
L 217.189317 39.741569 
L 217.233539 37.857386 
L 217.667766 37.857386 
L 217.711988 35.973203 
L 217.931881 35.973203 
L 217.931881 35.031111 
L 218.149277 35.031111 
L 218.149277 34.08902 
L 218.41033 34.08902 
L 218.41033 33.146928 
L 219.293929 33.146928 
L 219.293929 32.204837 
L 219.772378 32.204837 
L 219.772378 31.262745 
L 220.251679 31.262745 
L 220.251679 30.320654 
L 220.730128 30.320654 
L 220.730128 29.378562 
L 221.289891 29.378562 
L 221.289891 28.436471 
L 221.768339 28.436471 
L 221.768339 27.494379 
L 222.160916 27.494379 
L 222.160916 26.552288 
L 222.57653 26.552288 
L 222.639365 24.668105 
L 224.64294 24.668105 
L 224.64294 23.726013 
L 225.121388 23.726013 
L 225.121388 22.783922 
L 247.032678 22.783922 
L 247.032678 21.84183 
L 247.862183 21.84183 
L 247.862183 20.899739 
L 249.989633 20.899739 
L 249.989633 19.957647 
L 250.819138 19.957647 
L 250.819138 19.015556 
L 253.43548 19.015556 
L 253.43548 18.073464 
L 253.914212 18.073464 
L 253.953423 16.189281 
L 254.264984 16.189281 
L 254.264984 15.24719 
L 256.244774 15.24719 
L 256.244774 14.305098 
L 257.074278 14.305098 
L 257.074278 13.363007 
L 259.208669 13.363007 
L 259.24788 11.478824 
L 259.489528 11.478824 
L 259.489528 10.536732 
L 260.319032 10.536732 
L 260.319032 9.594641 
L 268.461911 9.594641 
L 268.501122 7.710458 
L 268.94036 7.710458 
L 268.979571 5.826275 
L 446.924475 5.826275 
L 446.924475 5.826275 
" clip-path="url(#pbb7dff1d94)" style="fill: none; stroke: #ff0000; stroke-width: 3; stroke-linecap: square"/>
   </g>
   <g id="line2d_40">
    <path clip-path="url(#pbb7dff1d94)" style="fill: none; stroke: #ff0000; stroke-width: 3; stroke-linecap: square"/>
   </g>
   <g id="line2d_41">
    <path d="M 240.542238 291.28 
L 240.542238 3 
" clip-path="url(#pbb7dff1d94)" style="fill: none; stroke: #000000; stroke-width: 1.5; stroke-linecap: square"/>
   </g>
   <g id="line2d_42">
    <path d="M 34.16 147.14 
L 446.924475 147.14 
" clip-path="url(#pbb7dff1d94)" style="fill: none; stroke-dasharray: 2,3.3; stroke-dashoffset: 0; stroke: #000000; stroke-width: 2"/>
   </g>
   <g id="patch_3">
    <path d="M 34.16 291.28 
L 34.16 3 
" style="fill: none; stroke: #000000; stroke-width: 0.8; stroke-linejoin: miter; stroke-linecap: square"/>
   </g>
   <g id="patch_4">
    <path d="M 446.924475 291.28 
L 446.924475 3 
" style="fill: none; stroke: #000000; stroke-width: 0.8; stroke-linejoin: miter; stroke-linecap: square"/>
   </g>
   <g id="patch_5">
    <path d="M 34.16 291.28 
L 446.924475 291.28 
" style="fill: none; stroke: #000000; stroke-width: 0.8; stroke-linejoin: miter; stroke-linecap: square"/>
   </g>
   <g id="patch_6">
    <path d="M 34.16 3 
L 446.924475 3 
" style="fill: none; stroke: #000000; stroke-width: 0.8; stroke-linejoin: miter; stroke-linecap: square"/>
   </g>
   <g id="text_6">
    <!-- f6-f9,20-D -->
    <g transform="translate(337.500436 285.5144)scale(0.2 -0.2)">
     <defs>
      <path id="DejaVuSans-36" d="M 2113 2584 
Q 1688 2584 1439 2293 
Q 1191 2003 1191 1497 
Q 1191 994 1439 701 
Q 1688 409 2113 409 
Q 2538 409 2786 701 
Q 3034 994 3034 1497 
Q 3034 2003 2786 2293 
Q 2538 2584 2113 2584 
z
M 3366 4563 
L 3366 3988 
Q 3128 4100 2886 4159 
Q 2644 4219 2406 4219 
Q 1781 4219 1451 3797 
Q 1122 3375 1075 2522 
Q 1259 2794 1537 2939 
Q 1816 3084 2150 3084 
Q 2853 3084 3261 2657 
Q 3669 2231 3669 1497 
Q 3669 778 3244 343 
Q 2819 -91 2113 -91 
Q 1303 -91 875 529 
Q 447 1150 447 2328 
Q 447 3434 972 4092 
Q 1497 4750 2381 4750 
Q 2619 4750 2861 4703 
Q 3103 4656 3366 4563 
z
" transform="scale(0.015625)"/>
      <path id="DejaVuSans-39" d="M 703 97 
L 703 672 
Q 941 559 1184 500 
Q 1428 441 1663 441 
Q 2288 441 2617 861 
Q 2947 1281 2994 2138 
Q 2813 1869 2534 1725 
Q 2256 1581 1919 1581 
Q 1219 1581 811 2004 
Q 403 2428 403 3163 
Q 403 3881 828 4315 
Q 1253 4750 1959 4750 
Q 2769 4750 3195 4129 
Q 3622 3509 3622 2328 
Q 3622 1225 3098 567 
Q 2575 -91 1691 -91 
Q 1453 -91 1209 -44 
Q 966 3 703 97 
z
M 1959 2075 
Q 2384 2075 2632 2365 
Q 2881 2656 2881 3163 
Q 2881 3666 2632 3958 
Q 2384 4250 1959 4250 
Q 1534 4250 1286 3958 
Q 1038 3666 1038 3163 
Q 1038 2656 1286 2365 
Q 1534 2075 1959 2075 
z
" transform="scale(0.015625)"/>
      <path id="DejaVuSans-2c" d="M 750 794 
L 1409 794 
L 1409 256 
L 897 -744 
L 494 -744 
L 750 256 
L 750 794 
z
" transform="scale(0.015625)"/>
      <path id="DejaVuSans-32" d="M 1228 531 
L 3431 531 
L 3431 0 
L 469 0 
L 469 531 
Q 828 903 1448 1529 
Q 2069 2156 2228 2338 
Q 2531 2678 2651 2914 
Q 2772 3150 2772 3378 
Q 2772 3750 2511 3984 
Q 2250 4219 1831 4219 
Q 1534 4219 1204 4116 
Q 875 4013 500 3803 
L 500 4441 
Q 881 4594 1212 4672 
Q 1544 4750 1819 4750 
Q 2544 4750 2975 4387 
Q 3406 4025 3406 3419 
Q 3406 3131 3298 2873 
Q 3191 2616 2906 2266 
Q 2828 2175 2409 1742 
Q 1991 1309 1228 531 
z
" transform="scale(0.015625)"/>
      <path id="DejaVuSans-44" d="M 1259 4147 
L 1259 519 
L 2022 519 
Q 2988 519 3436 956 
Q 3884 1394 3884 2338 
Q 3884 3275 3436 3711 
Q 2988 4147 2022 4147 
L 1259 4147 
z
M 628 4666 
L 1925 4666 
Q 3281 4666 3915 4102 
Q 4550 3538 4550 2338 
Q 4550 1131 3912 565 
Q 3275 0 1925 0 
L 628 0 
L 628 4666 
z
" transform="scale(0.015625)"/>
     </defs>
     <use xlink:href="#DejaVuSans-66"/>
     <use xlink:href="#DejaVuSans-36" x="35.205078"/>
     <use xlink:href="#DejaVuSans-2d" x="98.828125"/>
     <use xlink:href="#DejaVuSans-66" x="134.912109"/>
     <use xlink:href="#DejaVuSans-39" x="170.117188"/>
     <use xlink:href="#DejaVuSans-2c" x="233.740234"/>
     <use xlink:href="#DejaVuSans-32" x="265.527344"/>
     <use xlink:href="#DejaVuSans-30" x="329.150391"/>
     <use xlink:href="#DejaVuSans-2d" x="392.773438"/>
     <use xlink:href="#DejaVuSans-44" x="428.857422"/>
    </g>
   </g>
   <g id="text_7">
    <!-- v2.6.1.158 -->
    <g style="fill: #808080" transform="translate(213.728175 286.317512)scale(0.1 -0.1)">
     <defs>
      <path id="DejaVuSans-2e" d="M 684 794 
L 1344 794 
L 1344 0 
L 684 0 
L 684 794 
z
" transform="scale(0.015625)"/>
      <path id="DejaVuSans-35" d="M 691 4666 
L 3169 4666 
L 3169 4134 
L 1269 4134 
L 1269 2991 
Q 1406 3038 1543 3061 
Q 1681 3084 1819 3084 
Q 2600 3084 3056 2656 
Q 3513 2228 3513 1497 
Q 3513 744 3044 326 
Q 2575 -91 1722 -91 
Q 1428 -91 1123 -41 
Q 819 9 494 109 
L 494 744 
Q 775 591 1075 516 
Q 1375 441 1709 441 
Q 2250 441 2565 725 
Q 2881 1009 2881 1497 
Q 2881 1984 2565 2268 
Q 2250 2553 1709 2553 
Q 1456 2553 1204 2497 
Q 953 2441 691 2322 
L 691 4666 
z
" transform="scale(0.015625)"/>
      <path id="DejaVuSans-38" d="M 2034 2216 
Q 1584 2216 1326 1975 
Q 1069 1734 1069 1313 
Q 1069 891 1326 650 
Q 1584 409 2034 409 
Q 2484 409 2743 651 
Q 3003 894 3003 1313 
Q 3003 1734 2745 1975 
Q 2488 2216 2034 2216 
z
M 1403 2484 
Q 997 2584 770 2862 
Q 544 3141 544 3541 
Q 544 4100 942 4425 
Q 1341 4750 2034 4750 
Q 2731 4750 3128 4425 
Q 3525 4100 3525 3541 
Q 3525 3141 3298 2862 
Q 3072 2584 2669 2484 
Q 3125 2378 3379 2068 
Q 3634 1759 3634 1313 
Q 3634 634 3220 271 
Q 2806 -91 2034 -91 
Q 1263 -91 848 271 
Q 434 634 434 1313 
Q 434 1759 690 2068 
Q 947 2378 1403 2484 
z
M 1172 3481 
Q 1172 3119 1398 2916 
Q 1625 2713 2034 2713 
Q 2441 2713 2670 2916 
Q 2900 3119 2900 3481 
Q 2900 3844 2670 4047 
Q 2441 4250 2034 4250 
Q 1625 4250 1398 4047 
Q 1172 3844 1172 3481 
z
" transform="scale(0.015625)"/>
     </defs>
     <use xlink:href="#DejaVuSans-76"/>
     <use xlink:href="#DejaVuSans-32" x="59.179688"/>
     <use xlink:href="#DejaVuSans-2e" x="122.802734"/>
     <use xlink:href="#DejaVuSans-36" x="154.589844"/>
     <use xlink:href="#DejaVuSans-2e" x="218.212891"/>
     <use xlink:href="#DejaVuSans-31" x="250"/>
     <use xlink:href="#DejaVuSans-2e" x="313.623047"/>
     <use xlink:href="#DejaVuSans-31" x="345.410156"/>
     <use xlink:href="#DejaVuSans-35" x="409.033203"/>
     <use xlink:href="#DejaVuSans-38" x="472.65625"/>
    </g>
   </g>
   <g id="legend_1">
    <g id="patch_7">
     <path d="M 48.16 136.425 
L 177.381875 136.425 
Q 181.381875 136.425 181.381875 132.425 
L 181.381875 17 
Q 181.381875 13 177.381875 13 
L 48.16 13 
Q 44.16 13 44.16 17 
L 44.16 132.425 
Q 44.16 136.425 48.16 136.425 
z
" style="fill: #ffffff; opacity: 0.2; stroke: #cccccc; stroke-linejoin: miter"/>
    </g>
    <g id="line2d_43">
     <path d="M 52.16 29.196875 
L 72.16 29.196875 
L 92.16 29.196875 
" style="fill: none; stroke: #000000; stroke-width: 3; stroke-linecap: square"/>
    </g>
    <g id="text_8">
     <!-- 1: 4/4 -->
     <g transform="translate(108.16 36.196875)scale(0.2 -0.2)">
      <defs>
       <path id="DejaVuSans-3a" d="M 750 794 
L 1409 794 
L 1409 0 
L 750 0 
L 750 794 
z
M 750 3309 
L 1409 3309 
L 1409 2516 
L 750 2516 
L 750 3309 
z
" transform="scale(0.015625)"/>
       <path id="DejaVuSans-34" d="M 2419 4116 
L 825 1625 
L 2419 1625 
L 2419 4116 
z
M 2253 4666 
L 3047 4666 
L 3047 1625 
L 3713 1625 
L 3713 1100 
L 3047 1100 
L 3047 0 
L 2419 0 
L 2419 1100 
L 313 1100 
L 313 1709 
L 2253 4666 
z
" transform="scale(0.015625)"/>
       <path id="DejaVuSans-2f" d="M 1625 4666 
L 2156 4666 
L 531 -594 
L 0 -594 
L 1625 4666 
z
" transform="scale(0.015625)"/>
      </defs>
      <use xlink:href="#DejaVuSans-31"/>
      <use xlink:href="#DejaVuSans-3a" x="63.623047"/>
      <use xlink:href="#DejaVuSans-20" x="97.314453"/>
      <use xlink:href="#DejaVuSans-34" x="129.101562"/>
      <use xlink:href="#DejaVuSans-2f" x="192.724609"/>
      <use xlink:href="#DejaVuSans-34" x="226.416016"/>
     </g>
    </g>
    <g id="line2d_44">
     <path d="M 52.16 58.553125 
L 72.16 58.553125 
L 92.16 58.553125 
" style="fill: none; stroke: #00bfbf; stroke-width: 3; stroke-linecap: square"/>
    </g>
    <g id="text_9">
     <!-- -1: 4/4 -->
     <g transform="translate(108.16 65.553125)scale(0.2 -0.2)">
      <use xlink:href="#DejaVuSans-2d"/>
      <use xlink:href="#DejaVuSans-31" x="36.083984"/>
      <use xlink:href="#DejaVuSans-3a" x="99.707031"/>
      <use xlink:href="#DejaVuSans-20" x="133.398438"/>
      <use xlink:href="#DejaVuSans-34" x="165.185547"/>
      <use xlink:href="#DejaVuSans-2f" x="228.808594"/>
      <use xlink:href="#DejaVuSans-34" x="262.5"/>
     </g>
    </g>
    <g id="line2d_45">
     <path d="M 52.16 87.909375 
L 72.16 87.909375 
L 92.16 87.909375 
" style="fill: none; stroke: #bf00bf; stroke-width: 3; stroke-linecap: square"/>
    </g>
    <g id="text_10">
     <!-- -4: 4/4 -->
     <g transform="translate(108.16 94.909375)scale(0.2 -0.2)">
      <use xlink:href="#DejaVuSans-2d"/>
      <use xlink:href="#DejaVuSans-34" x="36.083984"/>
      <use xlink:href="#DejaVuSans-3a" x="99.707031"/>
      <use xlink:href="#DejaVuSans-20" x="133.398438"/>
      <use xlink:href="#DejaVuSans-34" x="165.185547"/>
      <use xlink:href="#DejaVuSans-2f" x="228.808594"/>
      <use xlink:href="#DejaVuSans-34" x="262.5"/>
     </g>
    </g>
    <g id="line2d_46">
     <path d="M 52.16 117.265625 
L 72.16 117.265625 
L 92.16 117.265625 
" style="fill: none; stroke: #ff0000; stroke-width: 3; stroke-linecap: square"/>
    </g>
    <g id="text_11">
     <!-- -8: 4/4 -->
     <g transform="translate(108.16 124.265625)scale(0.2 -0.2)">
      <use xlink:href="#DejaVuSans-2d"/>
      <use xlink:href="#DejaVuSans-38" x="36.083984"/>
      <use xlink:href="#DejaVuSans-3a" x="99.707031"/>
      <use xlink:href="#DejaVuSans-20" x="133.398438"/>
      <use xlink:href="#DejaVuSans-34" x="165.185547"/>
      <use xlink:href="#DejaVuSans-2f" x="228.808594"/>
      <use xlink:href="#DejaVuSans-34" x="262.5"/>
     </g>
    </g>
   </g>
  </g>
 </g>
 <defs>
  <clipPath id="pbb7dff1d94">
   <rect x="34.16" y="3" width="412.764475" height="288.28"/>
  </clipPath>
 </defs>
</svg>
