<?xml version="1.0" encoding="utf-8" standalone="no"?>
<!DOCTYPE svg PUBLIC "-//W3C//DTD SVG 1.1//EN"
  "http://www.w3.org/Graphics/SVG/1.1/DTD/svg11.dtd">
<svg xmlns:xlink="http://www.w3.org/1999/xlink" width="460.8pt" height="345.6pt" viewBox="0 0 460.8 345.6" xmlns="http://www.w3.org/2000/svg" version="1.1">
 <metadata>
  <rdf:RDF xmlns:dc="http://purl.org/dc/elements/1.1/" xmlns:cc="http://creativecommons.org/ns#" xmlns:rdf="http://www.w3.org/1999/02/22-rdf-syntax-ns#">
   <cc:Work>
    <dc:type rdf:resource="http://purl.org/dc/dcmitype/StillImage"/>
    <dc:date>2023-04-03T10:12:28.715813</dc:date>
    <dc:format>image/svg+xml</dc:format>
    <dc:creator>
     <cc:Agent>
      <dc:title>Matplotlib v3.5.2, https://matplotlib.org/</dc:title>
     </cc:Agent>
    </dc:creator>
   </cc:Work>
  </rdf:RDF>
 </metadata>
 <defs>
  <style type="text/css">*{stroke-linejoin: round; stroke-linecap: butt}</style>
 </defs>
 <g id="figure_1">
  <g id="patch_1">
   <path d="M 0 345.6 
L 460.8 345.6 
L 460.8 0 
L 0 0 
z
" style="fill: #ffffff"/>
  </g>
  <g id="axes_1">
   <g id="patch_2">
    <path d="M 34.16 291.28 
L 446.924475 291.28 
L 446.924475 3 
L 34.16 3 
z
" style="fill: #ffffff"/>
   </g>
   <g id="matplotlib.axis_1">
    <g id="xtick_1">
     <g id="line2d_1">
      <path d="M 34.249547 291.28 
L 34.249547 3 
" clip-path="url(#p33efd3eb9f)" style="fill: none; stroke: #b0b0b0; stroke-width: 0.8; stroke-linecap: square"/>
     </g>
     <g id="line2d_2">
      <defs>
       <path id="mf4f3183c52" d="M 0 0 
L 0 3.5 
" style="stroke: #000000; stroke-width: 0.8"/>
      </defs>
      <g>
       <use xlink:href="#mf4f3183c52" x="34.249547" y="291.28" style="stroke: #000000; stroke-width: 0.8"/>
      </g>
     </g>
     <g id="text_1">
      <!-- -1 -->
      <g transform="translate(24.279235 313.476875)scale(0.2 -0.2)">
       <defs>
        <path id="DejaVuSans-2d" d="M 313 2009 
L 1997 2009 
L 1997 1497 
L 313 1497 
L 313 2009 
z
" transform="scale(0.015625)"/>
        <path id="DejaVuSans-31" d="M 794 531 
L 1825 531 
L 1825 4091 
L 703 3866 
L 703 4441 
L 1819 4666 
L 2450 4666 
L 2450 531 
L 3481 531 
L 3481 0 
L 794 0 
L 794 531 
z
" transform="scale(0.015625)"/>
       </defs>
       <use xlink:href="#DejaVuSans-2d"/>
       <use xlink:href="#DejaVuSans-31" x="36.083984"/>
      </g>
     </g>
    </g>
    <g id="xtick_2">
     <g id="line2d_3">
      <path d="M 240.542238 291.28 
L 240.542238 3 
" clip-path="url(#p33efd3eb9f)" style="fill: none; stroke: #b0b0b0; stroke-width: 0.8; stroke-linecap: square"/>
     </g>
     <g id="line2d_4">
      <g>
       <use xlink:href="#mf4f3183c52" x="240.542238" y="291.28" style="stroke: #000000; stroke-width: 0.8"/>
      </g>
     </g>
     <g id="text_2">
      <!-- 0 -->
      <g transform="translate(234.179738 313.476875)scale(0.2 -0.2)">
       <defs>
        <path id="DejaVuSans-30" d="M 2034 4250 
Q 1547 4250 1301 3770 
Q 1056 3291 1056 2328 
Q 1056 1369 1301 889 
Q 1547 409 2034 409 
Q 2525 409 2770 889 
Q 3016 1369 3016 2328 
Q 3016 3291 2770 3770 
Q 2525 4250 2034 4250 
z
M 2034 4750 
Q 2819 4750 3233 4129 
Q 3647 3509 3647 2328 
Q 3647 1150 3233 529 
Q 2819 -91 2034 -91 
Q 1250 -91 836 529 
Q 422 1150 422 2328 
Q 422 3509 836 4129 
Q 1250 4750 2034 4750 
z
" transform="scale(0.015625)"/>
       </defs>
       <use xlink:href="#DejaVuSans-30"/>
      </g>
     </g>
    </g>
    <g id="xtick_3">
     <g id="line2d_5">
      <path d="M 446.834928 291.28 
L 446.834928 3 
" clip-path="url(#p33efd3eb9f)" style="fill: none; stroke: #b0b0b0; stroke-width: 0.8; stroke-linecap: square"/>
     </g>
     <g id="line2d_6">
      <g>
       <use xlink:href="#mf4f3183c52" x="446.834928" y="291.28" style="stroke: #000000; stroke-width: 0.8"/>
      </g>
     </g>
     <g id="text_3">
      <!-- 1 -->
      <g transform="translate(440.472428 313.476875)scale(0.2 -0.2)">
       <use xlink:href="#DejaVuSans-31"/>
      </g>
     </g>
    </g>
    <g id="xtick_4">
     <g id="line2d_7">
      <defs>
       <path id="me11799269e" d="M 0 0 
L 0 2 
" style="stroke: #000000; stroke-width: 0.6"/>
      </defs>
      <g>
       <use xlink:href="#me11799269e" x="96.349835" y="291.28" style="stroke: #000000; stroke-width: 0.6"/>
      </g>
     </g>
    </g>
    <g id="xtick_5">
     <g id="line2d_8">
      <g>
       <use xlink:href="#me11799269e" x="132.676174" y="291.28" style="stroke: #000000; stroke-width: 0.6"/>
      </g>
     </g>
    </g>
    <g id="xtick_6">
     <g id="line2d_9">
      <g>
       <use xlink:href="#me11799269e" x="158.450123" y="291.28" style="stroke: #000000; stroke-width: 0.6"/>
      </g>
     </g>
    </g>
    <g id="xtick_7">
     <g id="line2d_10">
      <g>
       <use xlink:href="#me11799269e" x="178.44195" y="291.28" style="stroke: #000000; stroke-width: 0.6"/>
      </g>
     </g>
    </g>
    <g id="xtick_8">
     <g id="line2d_11">
      <g>
       <use xlink:href="#me11799269e" x="194.776462" y="291.28" style="stroke: #000000; stroke-width: 0.6"/>
      </g>
     </g>
    </g>
    <g id="xtick_9">
     <g id="line2d_12">
      <g>
       <use xlink:href="#me11799269e" x="208.587096" y="291.28" style="stroke: #000000; stroke-width: 0.6"/>
      </g>
     </g>
    </g>
    <g id="xtick_10">
     <g id="line2d_13">
      <g>
       <use xlink:href="#me11799269e" x="220.55041" y="291.28" style="stroke: #000000; stroke-width: 0.6"/>
      </g>
     </g>
    </g>
    <g id="xtick_11">
     <g id="line2d_14">
      <g>
       <use xlink:href="#me11799269e" x="231.102802" y="291.28" style="stroke: #000000; stroke-width: 0.6"/>
      </g>
     </g>
    </g>
    <g id="xtick_12">
     <g id="line2d_15">
      <g>
       <use xlink:href="#me11799269e" x="302.642525" y="291.28" style="stroke: #000000; stroke-width: 0.6"/>
      </g>
     </g>
    </g>
    <g id="xtick_13">
     <g id="line2d_16">
      <g>
       <use xlink:href="#me11799269e" x="338.968865" y="291.28" style="stroke: #000000; stroke-width: 0.6"/>
      </g>
     </g>
    </g>
    <g id="xtick_14">
     <g id="line2d_17">
      <g>
       <use xlink:href="#me11799269e" x="364.742813" y="291.28" style="stroke: #000000; stroke-width: 0.6"/>
      </g>
     </g>
    </g>
    <g id="xtick_15">
     <g id="line2d_18">
      <g>
       <use xlink:href="#me11799269e" x="384.73464" y="291.28" style="stroke: #000000; stroke-width: 0.6"/>
      </g>
     </g>
    </g>
    <g id="xtick_16">
     <g id="line2d_19">
      <g>
       <use xlink:href="#me11799269e" x="401.069153" y="291.28" style="stroke: #000000; stroke-width: 0.6"/>
      </g>
     </g>
    </g>
    <g id="xtick_17">
     <g id="line2d_20">
      <g>
       <use xlink:href="#me11799269e" x="414.879786" y="291.28" style="stroke: #000000; stroke-width: 0.6"/>
      </g>
     </g>
    </g>
    <g id="xtick_18">
     <g id="line2d_21">
      <g>
       <use xlink:href="#me11799269e" x="426.843101" y="291.28" style="stroke: #000000; stroke-width: 0.6"/>
      </g>
     </g>
    </g>
    <g id="xtick_19">
     <g id="line2d_22">
      <g>
       <use xlink:href="#me11799269e" x="437.395492" y="291.28" style="stroke: #000000; stroke-width: 0.6"/>
      </g>
     </g>
    </g>
    <g id="text_4">
     <!-- log10 of FEvals ratio -->
     <g transform="translate(138.23755 336.833125)scale(0.2 -0.2)">
      <defs>
       <path id="DejaVuSans-6c" d="M 603 4863 
L 1178 4863 
L 1178 0 
L 603 0 
L 603 4863 
z
" transform="scale(0.015625)"/>
       <path id="DejaVuSans-6f" d="M 1959 3097 
Q 1497 3097 1228 2736 
Q 959 2375 959 1747 
Q 959 1119 1226 758 
Q 1494 397 1959 397 
Q 2419 397 2687 759 
Q 2956 1122 2956 1747 
Q 2956 2369 2687 2733 
Q 2419 3097 1959 3097 
z
M 1959 3584 
Q 2709 3584 3137 3096 
Q 3566 2609 3566 1747 
Q 3566 888 3137 398 
Q 2709 -91 1959 -91 
Q 1206 -91 779 398 
Q 353 888 353 1747 
Q 353 2609 779 3096 
Q 1206 3584 1959 3584 
z
" transform="scale(0.015625)"/>
       <path id="DejaVuSans-67" d="M 2906 1791 
Q 2906 2416 2648 2759 
Q 2391 3103 1925 3103 
Q 1463 3103 1205 2759 
Q 947 2416 947 1791 
Q 947 1169 1205 825 
Q 1463 481 1925 481 
Q 2391 481 2648 825 
Q 2906 1169 2906 1791 
z
M 3481 434 
Q 3481 -459 3084 -895 
Q 2688 -1331 1869 -1331 
Q 1566 -1331 1297 -1286 
Q 1028 -1241 775 -1147 
L 775 -588 
Q 1028 -725 1275 -790 
Q 1522 -856 1778 -856 
Q 2344 -856 2625 -561 
Q 2906 -266 2906 331 
L 2906 616 
Q 2728 306 2450 153 
Q 2172 0 1784 0 
Q 1141 0 747 490 
Q 353 981 353 1791 
Q 353 2603 747 3093 
Q 1141 3584 1784 3584 
Q 2172 3584 2450 3431 
Q 2728 3278 2906 2969 
L 2906 3500 
L 3481 3500 
L 3481 434 
z
" transform="scale(0.015625)"/>
       <path id="DejaVuSans-20" transform="scale(0.015625)"/>
       <path id="DejaVuSans-66" d="M 2375 4863 
L 2375 4384 
L 1825 4384 
Q 1516 4384 1395 4259 
Q 1275 4134 1275 3809 
L 1275 3500 
L 2222 3500 
L 2222 3053 
L 1275 3053 
L 1275 0 
L 697 0 
L 697 3053 
L 147 3053 
L 147 3500 
L 697 3500 
L 697 3744 
Q 697 4328 969 4595 
Q 1241 4863 1831 4863 
L 2375 4863 
z
" transform="scale(0.015625)"/>
       <path id="DejaVuSans-46" d="M 628 4666 
L 3309 4666 
L 3309 4134 
L 1259 4134 
L 1259 2759 
L 3109 2759 
L 3109 2228 
L 1259 2228 
L 1259 0 
L 628 0 
L 628 4666 
z
" transform="scale(0.015625)"/>
       <path id="DejaVuSans-45" d="M 628 4666 
L 3578 4666 
L 3578 4134 
L 1259 4134 
L 1259 2753 
L 3481 2753 
L 3481 2222 
L 1259 2222 
L 1259 531 
L 3634 531 
L 3634 0 
L 628 0 
L 628 4666 
z
" transform="scale(0.015625)"/>
       <path id="DejaVuSans-76" d="M 191 3500 
L 800 3500 
L 1894 563 
L 2988 3500 
L 3597 3500 
L 2284 0 
L 1503 0 
L 191 3500 
z
" transform="scale(0.015625)"/>
       <path id="DejaVuSans-61" d="M 2194 1759 
Q 1497 1759 1228 1600 
Q 959 1441 959 1056 
Q 959 750 1161 570 
Q 1363 391 1709 391 
Q 2188 391 2477 730 
Q 2766 1069 2766 1631 
L 2766 1759 
L 2194 1759 
z
M 3341 1997 
L 3341 0 
L 2766 0 
L 2766 531 
Q 2569 213 2275 61 
Q 1981 -91 1556 -91 
Q 1019 -91 701 211 
Q 384 513 384 1019 
Q 384 1609 779 1909 
Q 1175 2209 1959 2209 
L 2766 2209 
L 2766 2266 
Q 2766 2663 2505 2880 
Q 2244 3097 1772 3097 
Q 1472 3097 1187 3025 
Q 903 2953 641 2809 
L 641 3341 
Q 956 3463 1253 3523 
Q 1550 3584 1831 3584 
Q 2591 3584 2966 3190 
Q 3341 2797 3341 1997 
z
" transform="scale(0.015625)"/>
       <path id="DejaVuSans-73" d="M 2834 3397 
L 2834 2853 
Q 2591 2978 2328 3040 
Q 2066 3103 1784 3103 
Q 1356 3103 1142 2972 
Q 928 2841 928 2578 
Q 928 2378 1081 2264 
Q 1234 2150 1697 2047 
L 1894 2003 
Q 2506 1872 2764 1633 
Q 3022 1394 3022 966 
Q 3022 478 2636 193 
Q 2250 -91 1575 -91 
Q 1294 -91 989 -36 
Q 684 19 347 128 
L 347 722 
Q 666 556 975 473 
Q 1284 391 1588 391 
Q 1994 391 2212 530 
Q 2431 669 2431 922 
Q 2431 1156 2273 1281 
Q 2116 1406 1581 1522 
L 1381 1569 
Q 847 1681 609 1914 
Q 372 2147 372 2553 
Q 372 3047 722 3315 
Q 1072 3584 1716 3584 
Q 2034 3584 2315 3537 
Q 2597 3491 2834 3397 
z
" transform="scale(0.015625)"/>
       <path id="DejaVuSans-72" d="M 2631 2963 
Q 2534 3019 2420 3045 
Q 2306 3072 2169 3072 
Q 1681 3072 1420 2755 
Q 1159 2438 1159 1844 
L 1159 0 
L 581 0 
L 581 3500 
L 1159 3500 
L 1159 2956 
Q 1341 3275 1631 3429 
Q 1922 3584 2338 3584 
Q 2397 3584 2469 3576 
Q 2541 3569 2628 3553 
L 2631 2963 
z
" transform="scale(0.015625)"/>
       <path id="DejaVuSans-74" d="M 1172 4494 
L 1172 3500 
L 2356 3500 
L 2356 3053 
L 1172 3053 
L 1172 1153 
Q 1172 725 1289 603 
Q 1406 481 1766 481 
L 2356 481 
L 2356 0 
L 1766 0 
Q 1100 0 847 248 
Q 594 497 594 1153 
L 594 3053 
L 172 3053 
L 172 3500 
L 594 3500 
L 594 4494 
L 1172 4494 
z
" transform="scale(0.015625)"/>
       <path id="DejaVuSans-69" d="M 603 3500 
L 1178 3500 
L 1178 0 
L 603 0 
L 603 3500 
z
M 603 4863 
L 1178 4863 
L 1178 4134 
L 603 4134 
L 603 4863 
z
" transform="scale(0.015625)"/>
      </defs>
      <use xlink:href="#DejaVuSans-6c"/>
      <use xlink:href="#DejaVuSans-6f" x="27.783203"/>
      <use xlink:href="#DejaVuSans-67" x="88.964844"/>
      <use xlink:href="#DejaVuSans-31" x="152.441406"/>
      <use xlink:href="#DejaVuSans-30" x="216.064453"/>
      <use xlink:href="#DejaVuSans-20" x="279.6875"/>
      <use xlink:href="#DejaVuSans-6f" x="311.474609"/>
      <use xlink:href="#DejaVuSans-66" x="372.65625"/>
      <use xlink:href="#DejaVuSans-20" x="407.861328"/>
      <use xlink:href="#DejaVuSans-46" x="439.648438"/>
      <use xlink:href="#DejaVuSans-45" x="497.167969"/>
      <use xlink:href="#DejaVuSans-76" x="560.351562"/>
      <use xlink:href="#DejaVuSans-61" x="619.53125"/>
      <use xlink:href="#DejaVuSans-6c" x="680.810547"/>
      <use xlink:href="#DejaVuSans-73" x="708.59375"/>
      <use xlink:href="#DejaVuSans-20" x="760.693359"/>
      <use xlink:href="#DejaVuSans-72" x="792.480469"/>
      <use xlink:href="#DejaVuSans-61" x="833.59375"/>
      <use xlink:href="#DejaVuSans-74" x="894.873047"/>
      <use xlink:href="#DejaVuSans-69" x="934.082031"/>
      <use xlink:href="#DejaVuSans-6f" x="961.865234"/>
     </g>
    </g>
   </g>
   <g id="matplotlib.axis_2">
    <g id="ytick_1">
     <g id="line2d_23">
      <path d="M 34.16 288.453725 
L 446.924475 288.453725 
" clip-path="url(#p33efd3eb9f)" style="fill: none; stroke: #b0b0b0; stroke-width: 0.8; stroke-linecap: square"/>
     </g>
     <g id="line2d_24">
      <defs>
       <path id="mc304229ed3" d="M 0 0 
L -3.5 0 
" style="stroke: #000000; stroke-width: 0.8"/>
      </defs>
      <g>
       <use xlink:href="#mc304229ed3" x="34.16" y="288.453725" style="stroke: #000000; stroke-width: 0.8"/>
      </g>
     </g>
    </g>
    <g id="ytick_2">
     <g id="line2d_25">
      <path d="M 34.16 217.796863 
L 446.924475 217.796863 
" clip-path="url(#p33efd3eb9f)" style="fill: none; stroke: #b0b0b0; stroke-width: 0.8; stroke-linecap: square"/>
     </g>
     <g id="line2d_26">
      <g>
       <use xlink:href="#mc304229ed3" x="34.16" y="217.796863" style="stroke: #000000; stroke-width: 0.8"/>
      </g>
     </g>
    </g>
    <g id="ytick_3">
     <g id="line2d_27">
      <path d="M 34.16 147.14 
L 446.924475 147.14 
" clip-path="url(#p33efd3eb9f)" style="fill: none; stroke: #b0b0b0; stroke-width: 0.8; stroke-linecap: square"/>
     </g>
     <g id="line2d_28">
      <g>
       <use xlink:href="#mc304229ed3" x="34.16" y="147.14" style="stroke: #000000; stroke-width: 0.8"/>
      </g>
     </g>
    </g>
    <g id="ytick_4">
     <g id="line2d_29">
      <path d="M 34.16 76.483137 
L 446.924475 76.483137 
" clip-path="url(#p33efd3eb9f)" style="fill: none; stroke: #b0b0b0; stroke-width: 0.8; stroke-linecap: square"/>
     </g>
     <g id="line2d_30">
      <g>
       <use xlink:href="#mc304229ed3" x="34.16" y="76.483137" style="stroke: #000000; stroke-width: 0.8"/>
      </g>
     </g>
    </g>
    <g id="ytick_5">
     <g id="line2d_31">
      <path d="M 34.16 5.826275 
L 446.924475 5.826275 
" clip-path="url(#p33efd3eb9f)" style="fill: none; stroke: #b0b0b0; stroke-width: 0.8; stroke-linecap: square"/>
     </g>
     <g id="line2d_32">
      <g>
       <use xlink:href="#mc304229ed3" x="34.16" y="5.826275" style="stroke: #000000; stroke-width: 0.8"/>
      </g>
     </g>
    </g>
    <g id="text_5">
     <!-- proportion of trials -->
     <g transform="translate(19.000625 240.14625)rotate(-90)scale(0.2 -0.2)">
      <defs>
       <path id="DejaVuSans-70" d="M 1159 525 
L 1159 -1331 
L 581 -1331 
L 581 3500 
L 1159 3500 
L 1159 2969 
Q 1341 3281 1617 3432 
Q 1894 3584 2278 3584 
Q 2916 3584 3314 3078 
Q 3713 2572 3713 1747 
Q 3713 922 3314 415 
Q 2916 -91 2278 -91 
Q 1894 -91 1617 61 
Q 1341 213 1159 525 
z
M 3116 1747 
Q 3116 2381 2855 2742 
Q 2594 3103 2138 3103 
Q 1681 3103 1420 2742 
Q 1159 2381 1159 1747 
Q 1159 1113 1420 752 
Q 1681 391 2138 391 
Q 2594 391 2855 752 
Q 3116 1113 3116 1747 
z
" transform="scale(0.015625)"/>
       <path id="DejaVuSans-6e" d="M 3513 2113 
L 3513 0 
L 2938 0 
L 2938 2094 
Q 2938 2591 2744 2837 
Q 2550 3084 2163 3084 
Q 1697 3084 1428 2787 
Q 1159 2491 1159 1978 
L 1159 0 
L 581 0 
L 581 3500 
L 1159 3500 
L 1159 2956 
Q 1366 3272 1645 3428 
Q 1925 3584 2291 3584 
Q 2894 3584 3203 3211 
Q 3513 2838 3513 2113 
z
" transform="scale(0.015625)"/>
      </defs>
      <use xlink:href="#DejaVuSans-70"/>
      <use xlink:href="#DejaVuSans-72" x="63.476562"/>
      <use xlink:href="#DejaVuSans-6f" x="102.339844"/>
      <use xlink:href="#DejaVuSans-70" x="163.521484"/>
      <use xlink:href="#DejaVuSans-6f" x="226.998047"/>
      <use xlink:href="#DejaVuSans-72" x="288.179688"/>
      <use xlink:href="#DejaVuSans-74" x="329.292969"/>
      <use xlink:href="#DejaVuSans-69" x="368.501953"/>
      <use xlink:href="#DejaVuSans-6f" x="396.285156"/>
      <use xlink:href="#DejaVuSans-6e" x="457.466797"/>
      <use xlink:href="#DejaVuSans-20" x="520.845703"/>
      <use xlink:href="#DejaVuSans-6f" x="552.632812"/>
      <use xlink:href="#DejaVuSans-66" x="613.814453"/>
      <use xlink:href="#DejaVuSans-20" x="649.019531"/>
      <use xlink:href="#DejaVuSans-74" x="680.806641"/>
      <use xlink:href="#DejaVuSans-72" x="720.015625"/>
      <use xlink:href="#DejaVuSans-69" x="761.128906"/>
      <use xlink:href="#DejaVuSans-61" x="788.912109"/>
      <use xlink:href="#DejaVuSans-6c" x="850.191406"/>
      <use xlink:href="#DejaVuSans-73" x="877.974609"/>
     </g>
    </g>
   </g>
   <g id="line2d_33">
    <path d="M 34.16 288.453725 
L 162.117223 288.453725 
L 162.117223 287.511634 
L 164.549729 287.511634 
L 164.549729 286.569542 
L 165.170512 286.569542 
L 165.170512 285.627451 
L 167.693622 285.627451 
L 167.693622 284.685359 
L 169.873578 284.685359 
L 169.873578 283.743268 
L 170.196045 283.743268 
L 170.196045 282.801176 
L 173.124134 282.801176 
L 173.124134 281.859085 
L 173.349118 281.859085 
L 173.445367 279.974902 
L 176.85865 279.974902 
L 176.85865 279.03281 
L 177.320465 279.03281 
L 177.320465 278.090719 
L 178.156954 278.090719 
L 178.206611 276.206536 
L 178.616157 276.206536 
L 178.616157 275.264444 
L 180.808025 275.264444 
L 180.808025 274.322353 
L 183.919341 274.322353 
L 183.919341 273.380261 
L 186.200802 273.380261 
L 186.261916 270.553987 
L 186.351552 270.553987 
L 186.351552 269.611895 
L 187.182677 269.611895 
L 187.182677 268.669804 
L 188.213497 268.669804 
L 188.213497 267.727712 
L 189.766974 267.727712 
L 189.766974 266.785621 
L 193.37304 266.785621 
L 193.398707 264.901438 
L 194.340492 264.901438 
L 194.340492 263.959346 
L 194.645886 263.959346 
L 194.645886 263.017255 
L 196.595943 263.017255 
L 196.595943 262.075163 
L 197.266448 262.075163 
L 197.266448 261.133072 
L 197.720597 261.133072 
L 197.720597 260.19098 
L 197.945581 260.19098 
L 198.04183 258.306797 
L 198.656399 258.306797 
L 198.656399 257.364706 
L 199.750829 257.364706 
L 199.750829 256.422614 
L 201.455113 256.422614 
L 201.455113 255.480523 
L 201.634682 255.480523 
L 201.634682 254.538431 
L 201.916927 254.538431 
L 201.980119 252.654248 
L 202.296477 252.654248 
L 202.296477 251.712157 
L 202.411179 251.712157 
L 202.411179 250.770065 
L 202.803074 250.770065 
L 202.803074 249.827974 
L 203.21262 249.827974 
L 203.21262 248.885882 
L 203.353223 248.885882 
L 203.353223 247.943791 
L 203.908011 247.943791 
L 203.908011 247.001699 
L 204.841472 247.001699 
L 204.841472 246.059608 
L 206.549881 246.059608 
L 206.549881 245.117516 
L 207.038859 245.117516 
L 207.038859 244.175425 
L 208.507164 244.175425 
L 208.515804 242.291242 
L 209.471364 242.291242 
L 209.471364 241.34915 
L 210.050806 241.34915 
L 210.050806 240.407059 
L 210.2501 240.407059 
L 210.2501 239.464967 
L 210.475084 239.464967 
L 210.571333 237.580784 
L 210.797265 237.580784 
L 210.797265 236.638693 
L 211.77914 236.638693 
L 211.77914 235.696601 
L 211.978698 235.696601 
L 211.978698 234.75451 
L 212.615258 234.75451 
L 212.615258 233.812418 
L 212.77948 233.812418 
L 212.77948 232.870327 
L 212.91216 232.870327 
L 212.91216 231.928235 
L 213.449985 231.928235 
L 213.449985 230.986144 
L 213.984616 230.986144 
L 213.984616 230.044052 
L 214.44643 230.044052 
L 214.44643 229.101961 
L 214.795214 229.101961 
L 214.795214 228.159869 
L 215.11768 228.159869 
L 215.11768 227.217778 
L 215.332577 227.217778 
L 215.332577 226.275686 
L 215.742123 226.275686 
L 215.742123 225.333595 
L 217.027525 225.333595 
L 217.027525 224.391503 
L 217.661349 224.391503 
L 217.661349 223.449412 
L 217.969503 223.449412 
L 217.99517 221.565229 
L 218.292457 221.565229 
L 218.292457 220.623137 
L 218.794163 220.623137 
L 218.794163 219.681046 
L 219.46003 219.681046 
L 219.536761 217.796863 
L 220.419107 217.796863 
L 220.419107 216.854771 
L 221.045307 216.854771 
L 221.089612 214.970588 
L 221.200532 214.970588 
L 221.200532 214.028497 
L 222.347 214.028497 
L 222.425131 212.144314 
L 222.603924 212.144314 
L 222.603924 211.202222 
L 222.733418 211.202222 
L 222.733418 210.260131 
L 223.017504 210.260131 
L 223.017504 209.318039 
L 223.252862 209.318039 
L 223.326767 206.491765 
L 223.950966 206.491765 
L 223.950966 205.549673 
L 224.308643 205.549673 
L 224.347292 203.66549 
L 224.690701 203.66549 
L 224.78388 201.781307 
L 224.857637 201.781307 
L 224.857637 200.839216 
L 225.106346 200.839216 
L 225.106346 199.897124 
L 225.714995 199.897124 
L 225.729661 198.012941 
L 225.998585 198.012941 
L 225.998585 197.07085 
L 227.176388 197.07085 
L 227.176388 196.128758 
L 228.00153 196.128758 
L 228.099667 194.244575 
L 229.10428 194.244575 
L 229.10428 193.302484 
L 230.037742 193.302484 
L 230.037742 192.360392 
L 230.181486 192.360392 
L 230.181486 191.418301 
L 230.373045 191.418301 
L 230.373045 190.476209 
L 230.499005 190.476209 
L 230.524673 187.649935 
L 230.68356 187.649935 
L 230.68356 186.707843 
L 230.985216 186.707843 
L 230.985216 185.765752 
L 231.183551 185.765752 
L 231.273188 183.881569 
L 232.300937 183.881569 
L 232.330328 181.997386 
L 232.733044 181.997386 
L 232.733044 181.055294 
L 233.0347 181.055294 
L 233.135133 179.171111 
L 233.234399 179.171111 
L 233.234399 178.22902 
L 233.417663 178.22902 
L 233.417663 177.286928 
L 233.668618 177.286928 
L 233.668618 176.344837 
L 233.844886 176.344837 
L 233.952207 172.576471 
L 233.989851 172.576471 
L 233.989851 171.634379 
L 234.177191 171.634379 
L 234.27344 168.808105 
L 234.475995 168.808105 
L 234.475995 167.866013 
L 234.9777 167.866013 
L 234.9777 166.923922 
L 235.191682 166.923922 
L 235.191682 165.98183 
L 235.718327 165.98183 
L 235.782365 164.097647 
L 236.876795 164.097647 
L 236.876795 163.155556 
L 237.38407 163.155556 
L 237.403134 161.271373 
L 237.686723 161.271373 
L 237.686723 160.329281 
L 237.864948 160.329281 
L 237.864948 159.38719 
L 238.148537 159.38719 
L 238.148537 158.445098 
L 238.751095 158.445098 
L 238.819266 156.560915 
L 239.034684 156.560915 
L 239.120922 154.676732 
L 239.160641 154.676732 
L 239.160641 153.734641 
L 239.416648 153.734641 
L 239.44423 151.850458 
L 239.567521 151.850458 
L 239.567521 150.908366 
L 241.115933 150.908366 
L 241.172218 149.024183 
L 241.261854 149.024183 
L 241.261854 148.082092 
L 241.484513 148.082092 
L 241.490836 146.197908 
L 241.792492 146.197908 
L 241.792492 145.255817 
L 242.115622 145.255817 
L 242.115622 144.313725 
L 242.380337 144.313725 
L 242.380337 143.371634 
L 242.617327 143.371634 
L 242.681993 141.487451 
L 243.123799 141.487451 
L 243.212389 139.603268 
L 243.412406 139.603268 
L 243.514045 137.719085 
L 244.043514 137.719085 
L 244.043514 136.776993 
L 244.283205 136.776993 
L 244.345867 134.89281 
L 244.463825 134.89281 
L 244.545219 133.008627 
L 244.710048 133.008627 
L 244.747414 131.124444 
L 244.976976 131.124444 
L 245.023697 128.29817 
L 245.473348 128.29817 
L 245.478681 126.413987 
L 245.775004 126.413987 
L 245.775004 125.471895 
L 246.183084 125.471895 
L 246.183084 124.529804 
L 246.48474 124.529804 
L 246.569824 121.703529 
L 246.65946 121.703529 
L 246.745285 119.819346 
L 246.951589 119.819346 
L 247.028875 116.993072 
L 247.329066 116.993072 
L 247.329066 116.05098 
L 247.727161 116.05098 
L 247.727161 115.108889 
L 247.885051 115.108889 
L 247.885051 114.166797 
L 248.01075 114.166797 
L 248.01075 113.224706 
L 248.521405 113.224706 
L 248.521405 112.282614 
L 249.556188 112.282614 
L 249.601201 110.398431 
L 250.120268 110.398431 
L 250.120268 109.45634 
L 251.684883 109.45634 
L 251.684883 108.514248 
L 251.922832 108.514248 
L 251.922832 107.572157 
L 253.734367 107.572157 
L 253.806578 105.687974 
L 253.850724 105.687974 
L 253.943191 102.861699 
L 254.201113 102.861699 
L 254.22678 100.977516 
L 254.674951 100.977516 
L 254.784186 99.093333 
L 254.953794 99.093333 
L 254.976607 96.267059 
L 255.276174 96.267059 
L 255.276174 95.324967 
L 255.600186 95.324967 
L 255.600186 94.382876 
L 256.239083 94.382876 
L 256.239083 93.440784 
L 256.544984 93.440784 
L 256.544984 92.498693 
L 257.240828 92.498693 
L 257.240828 91.556601 
L 257.759895 91.556601 
L 257.759895 90.61451 
L 258.246491 90.61451 
L 258.246491 89.672418 
L 258.548147 89.672418 
L 258.548147 88.730327 
L 259.16872 88.730327 
L 259.200883 86.846144 
L 259.382977 86.846144 
L 259.484472 84.961961 
L 259.687787 84.961961 
L 259.687787 84.019869 
L 259.820589 84.019869 
L 259.820589 83.077778 
L 260.102182 83.077778 
L 260.102182 82.135686 
L 260.295313 82.135686 
L 260.295313 81.193595 
L 260.578902 81.193595 
L 260.621249 79.309412 
L 261.562933 79.309412 
L 261.562933 78.36732 
L 261.885399 78.36732 
L 261.94259 76.483137 
L 262.031298 76.483137 
L 262.031298 75.541046 
L 262.492159 75.541046 
L 262.492159 74.598954 
L 263.135986 74.598954 
L 263.239813 72.714771 
L 263.38166 72.714771 
L 263.437642 70.830588 
L 264.080782 70.830588 
L 264.080782 69.888497 
L 264.213712 69.888497 
L 264.213712 68.946405 
L 265.167705 68.946405 
L 265.167705 68.004314 
L 265.711371 68.004314 
L 265.711371 67.062222 
L 266.101167 67.062222 
L 266.101167 66.120131 
L 266.474671 66.120131 
L 266.474671 65.178039 
L 267.184406 65.178039 
L 267.184406 64.235948 
L 268.028733 64.235948 
L 268.028733 63.293856 
L 270.167004 63.293856 
L 270.167004 62.351765 
L 271.75651 62.351765 
L 271.75651 61.409673 
L 272.058166 61.409673 
L 272.058166 60.467582 
L 272.49738 60.467582 
L 272.49738 59.52549 
L 272.838574 59.52549 
L 272.838574 58.583399 
L 273.728075 58.583399 
L 273.728075 57.641307 
L 274.560127 57.641307 
L 274.560127 56.699216 
L 275.676274 56.699216 
L 275.676274 55.757124 
L 275.97584 55.757124 
L 276.057786 53.872941 
L 276.821086 53.872941 
L 276.821086 52.93085 
L 277.530821 52.93085 
L 277.530821 51.988758 
L 277.951271 51.988758 
L 278.040907 50.104575 
L 278.375148 50.104575 
L 278.375148 49.162484 
L 279.247814 49.162484 
L 279.25329 47.278301 
L 279.902852 47.278301 
L 279.902852 46.336209 
L 281.302774 46.336209 
L 281.302774 45.394118 
L 284.137308 45.394118 
L 284.137308 44.452026 
L 286.022689 44.452026 
L 286.022689 43.509935 
L 286.322255 43.509935 
L 286.33524 41.625752 
L 287.388996 41.625752 
L 287.388996 40.68366 
L 289.594229 40.68366 
L 289.594229 39.741569 
L 290.060566 39.741569 
L 290.060566 38.799477 
L 290.950067 38.799477 
L 290.950067 37.857386 
L 291.782119 37.857386 
L 291.782119 36.915294 
L 292.757833 36.915294 
L 292.757833 35.973203 
L 293.279778 35.973203 
L 293.324037 34.08902 
L 294.043078 34.08902 
L 294.043078 33.146928 
L 294.483723 33.146928 
L 294.483723 32.204837 
L 294.752814 32.204837 
L 294.752814 31.262745 
L 295.59714 31.262745 
L 295.59714 30.320654 
L 303.104248 30.320654 
L 303.104248 29.378562 
L 303.244681 29.378562 
L 303.244681 28.436471 
L 303.544248 28.436471 
L 303.544248 27.494379 
L 306.816221 27.494379 
L 306.816221 26.552288 
L 308.398648 26.552288 
L 308.398648 25.610196 
L 311.705715 25.610196 
L 311.705715 24.668105 
L 315.200205 24.668105 
L 315.200205 23.726013 
L 315.75141 23.726013 
L 315.75141 22.783922 
L 320.32624 22.783922 
L 320.32624 21.84183 
L 335.2898 21.84183 
L 335.2898 20.899739 
L 353.320284 20.899739 
L 353.320284 19.957647 
L 360.121841 19.957647 
L 360.121841 19.015556 
L 360.673046 19.015556 
L 360.673046 18.073464 
L 363.30895 18.073464 
L 363.30895 17.131373 
L 368.706556 17.131373 
L 368.706556 16.189281 
L 370.110507 16.189281 
L 370.110507 15.24719 
L 370.661712 15.24719 
L 370.661712 14.305098 
L 375.508113 14.305098 
L 375.508113 13.363007 
L 376.059318 13.363007 
L 376.059318 12.420915 
L 380.211436 12.420915 
L 380.211436 11.478824 
L 390.200102 11.478824 
L 390.200102 10.536732 
L 395.597708 10.536732 
L 395.597708 9.594641 
L 400.088003 9.594641 
L 400.088003 8.652549 
L 406.88956 8.652549 
L 406.88956 7.710458 
L 407.440765 7.710458 
L 407.440765 6.768366 
L 426.979155 6.768366 
L 426.979155 5.826275 
L 446.924475 5.826275 
L 446.924475 5.826275 
" clip-path="url(#p33efd3eb9f)" style="fill: none; stroke: #000000; stroke-width: 3; stroke-linecap: square"/>
   </g>
   <g id="line2d_34">
    <path clip-path="url(#p33efd3eb9f)" style="fill: none; stroke: #000000; stroke-width: 3; stroke-linecap: square"/>
   </g>
   <g id="line2d_35">
    <path d="M 34.16 288.453725 
L 136.120185 288.453725 
L 136.120185 287.511634 
L 138.090393 287.511634 
L 138.090393 286.569542 
L 138.684817 286.569542 
L 138.684817 285.627451 
L 139.302694 285.627451 
L 139.40526 283.743268 
L 139.466744 283.743268 
L 139.466744 282.801176 
L 140.970133 282.801176 
L 140.970133 281.859085 
L 142.2768 281.859085 
L 142.2768 280.916993 
L 143.714606 280.916993 
L 143.714606 279.974902 
L 145.225813 279.974902 
L 145.225813 279.03281 
L 148.204818 279.03281 
L 148.204818 278.090719 
L 150.238159 278.090719 
L 150.238159 277.148627 
L 150.383375 277.148627 
L 150.383375 276.206536 
L 150.985918 276.206536 
L 151.081949 274.322353 
L 180.851884 274.322353 
L 180.851884 273.380261 
L 185.665141 273.380261 
L 185.665141 272.43817 
L 186.41686 272.43817 
L 186.41686 271.496078 
L 187.140271 271.496078 
L 187.169674 269.611895 
L 188.003637 269.611895 
L 188.096334 267.727712 
L 189.168357 267.727712 
L 189.168357 266.785621 
L 189.548607 266.785621 
L 189.548607 265.843529 
L 191.221821 265.843529 
L 191.221821 264.901438 
L 192.864476 264.901438 
L 192.909591 263.017255 
L 193.66131 263.017255 
L 193.66131 262.075163 
L 194.361864 262.075163 
L 194.414125 259.248889 
L 195.038032 259.248889 
L 195.113584 257.364706 
L 195.248087 257.364706 
L 195.313607 255.480523 
L 195.387397 255.480523 
L 195.387397 254.538431 
L 195.836995 254.538431 
L 195.866398 252.654248 
L 196.412808 252.654248 
L 196.412808 251.712157 
L 196.70036 251.712157 
L 196.70036 250.770065 
L 197.865081 250.770065 
L 197.865081 249.827974 
L 198.466272 249.827974 
L 198.466272 248.885882 
L 199.63046 248.885882 
L 199.63046 247.943791 
L 199.918545 247.943791 
L 199.918545 247.001699 
L 200.108927 247.001699 
L 200.108927 246.059608 
L 201.5612 246.059608 
L 201.579446 244.175425 
L 202.282483 244.175425 
L 202.282483 243.233333 
L 202.558057 243.233333 
L 202.631848 241.34915 
L 203.062026 241.34915 
L 203.062026 240.407059 
L 203.734756 240.407059 
L 203.734756 239.464967 
L 204.01033 239.464967 
L 204.084121 237.580784 
L 206.874911 237.580784 
L 206.874911 236.638693 
L 208.327184 236.638693 
L 208.327184 235.696601 
L 208.581647 235.696601 
L 208.581647 234.75451 
L 209.843342 234.75451 
L 209.843342 233.812418 
L 210.481905 233.812418 
L 210.481905 232.870327 
L 211.325922 232.870327 
L 211.325922 231.928235 
L 211.641192 231.928235 
L 211.667516 230.044052 
L 212.733669 230.044052 
L 212.733669 229.101961 
L 213.60966 229.101961 
L 213.60966 228.159869 
L 215.579868 228.159869 
L 215.579868 227.217778 
L 215.84809 227.217778 
L 215.84809 226.275686 
L 216.015948 226.275686 
L 216.015948 225.333595 
L 216.174292 225.333595 
L 216.174292 224.391503 
L 216.792169 224.391503 
L 216.894735 221.565229 
L 216.956219 221.565229 
L 216.956219 220.623137 
L 217.330669 220.623137 
L 217.330669 219.681046 
L 217.498528 219.681046 
L 217.498528 218.738954 
L 217.99818 218.738954 
L 217.99818 217.796863 
L 218.459608 217.796863 
L 218.459608 216.854771 
L 218.745801 216.854771 
L 218.798183 214.970588 
L 219.20846 214.970588 
L 219.20846 214.028497 
L 219.766275 214.028497 
L 219.777206 212.144314 
L 219.905089 212.144314 
L 219.968388 209.318039 
L 220.5373 209.318039 
L 220.562811 207.433856 
L 220.69104 207.433856 
L 220.69104 206.491765 
L 220.997565 206.491765 
L 220.997565 205.549673 
L 221.180688 205.549673 
L 221.283255 202.723399 
L 221.344738 202.723399 
L 221.344738 201.781307 
L 222.715288 201.781307 
L 222.715288 200.839216 
L 222.848128 200.839216 
L 222.895811 198.012941 
L 223.01815 198.012941 
L 223.01815 197.07085 
L 223.181506 197.07085 
L 223.181506 196.128758 
L 224.154795 196.128758 
L 224.154795 195.186667 
L 224.53086 195.186667 
L 224.53086 194.244575 
L 224.750549 194.244575 
L 224.807798 192.360392 
L 224.918407 192.360392 
L 224.918407 191.418301 
L 225.592601 191.418301 
L 225.694293 188.592026 
L 225.909836 188.592026 
L 225.936159 186.707843 
L 226.077695 186.707843 
L 226.104018 184.82366 
L 226.210661 184.82366 
L 226.210661 183.881569 
L 226.501069 183.881569 
L 226.501069 182.939477 
L 227.002312 182.939477 
L 227.103808 179.171111 
L 227.170171 179.171111 
L 227.276076 177.286928 
L 227.713369 177.286928 
L 227.815936 174.460654 
L 227.87285 174.460654 
L 227.877419 172.576471 
L 228.041102 172.576471 
L 228.110919 170.692288 
L 228.189823 170.692288 
L 228.189823 169.750196 
L 228.475393 169.750196 
L 228.571425 167.866013 
L 228.801196 167.866013 
L 228.879423 165.98183 
L 229.246284 165.98183 
L 229.29653 163.155556 
L 229.380808 163.155556 
L 229.380808 162.213464 
L 229.621055 162.213464 
L 229.621055 161.271373 
L 229.840708 161.271373 
L 229.840708 160.329281 
L 230.082813 160.329281 
L 230.082813 159.38719 
L 230.362683 159.38719 
L 230.458585 156.560915 
L 230.561151 156.560915 
L 230.622635 154.676732 
L 230.687476 154.676732 
L 230.687476 153.734641 
L 231.096185 153.734641 
L 231.159707 150.908366 
L 231.959551 150.908366 
L 231.959551 149.966275 
L 232.116154 149.966275 
L 232.126024 147.14 
L 232.261369 147.14 
L 232.261369 146.197908 
L 232.535359 146.197908 
L 232.535359 145.255817 
L 232.803066 145.255817 
L 232.863912 143.371634 
L 232.959944 143.371634 
L 233.066827 141.487451 
L 233.114419 141.487451 
L 233.124271 139.603268 
L 233.234686 139.603268 
L 233.234686 138.661176 
L 233.432691 138.661176 
L 233.432691 137.719085 
L 233.636488 137.719085 
L 233.733898 135.834902 
L 233.86416 135.834902 
L 233.86416 134.89281 
L 234.04585 134.89281 
L 234.04585 133.950719 
L 234.213708 133.950719 
L 234.213708 133.008627 
L 234.805944 133.008627 
L 234.870497 131.124444 
L 234.973802 131.124444 
L 234.973802 130.182353 
L 235.177735 130.182353 
L 235.177735 129.240261 
L 235.567042 129.240261 
L 235.567042 128.29817 
L 236.381704 128.29817 
L 236.427197 126.413987 
L 236.615494 126.413987 
L 236.615494 125.471895 
L 236.82039 125.471895 
L 236.82039 124.529804 
L 237.143319 124.529804 
L 237.164455 122.645621 
L 237.264568 122.645621 
L 237.348616 119.819346 
L 237.40622 119.819346 
L 237.40622 118.877255 
L 237.78237 118.877255 
L 237.78237 117.935163 
L 238.100336 117.935163 
L 238.166314 116.05098 
L 238.648835 116.05098 
L 238.648835 115.108889 
L 238.79405 115.108889 
L 238.85315 112.282614 
L 238.993946 112.282614 
L 239.076048 110.398431 
L 239.269521 110.398431 
L 239.360709 107.572157 
L 239.396593 107.572157 
L 239.492625 105.687974 
L 239.687113 105.687974 
L 239.687113 104.745882 
L 239.868907 104.745882 
L 239.868907 103.803791 
L 240.036766 103.803791 
L 240.036766 102.861699 
L 240.524825 102.861699 
L 240.524825 101.919608 
L 240.851833 101.919608 
L 240.851833 100.977516 
L 241.39405 100.977516 
L 241.443619 99.093333 
L 241.539266 99.093333 
L 241.539266 98.151242 
L 242.030362 98.151242 
L 242.078607 95.324967 
L 242.141809 95.324967 
L 242.237841 93.440784 
L 242.905297 93.440784 
L 242.905297 92.498693 
L 243.148067 92.498693 
L 243.229278 89.672418 
L 243.315925 89.672418 
L 243.315925 88.730327 
L 243.586375 88.730327 
L 243.635148 86.846144 
L 244.547952 86.846144 
L 244.547952 85.904052 
L 244.779375 85.904052 
L 244.786613 84.019869 
L 244.892998 84.019869 
L 244.892998 83.077778 
L 246.508437 83.077778 
L 246.508437 82.135686 
L 246.721508 82.135686 
L 246.721508 81.193595 
L 246.997082 81.193595 
L 247.070873 78.36732 
L 248.193571 78.36732 
L 248.193571 77.425229 
L 248.844269 77.425229 
L 248.844269 76.483137 
L 249.300974 76.483137 
L 249.300974 75.541046 
L 250.753247 75.541046 
L 250.753247 74.598954 
L 251.313936 74.598954 
L 251.313936 73.656863 
L 251.651921 73.656863 
L 251.651921 72.714771 
L 251.963275 72.714771 
L 252.031063 70.830588 
L 252.582753 70.830588 
L 252.582753 69.888497 
L 252.806814 69.888497 
L 252.806814 68.946405 
L 252.96976 68.946405 
L 252.96976 68.004314 
L 253.118167 68.004314 
L 253.118167 67.062222 
L 253.483337 67.062222 
L 253.483337 66.120131 
L 253.737646 66.120131 
L 253.737646 65.178039 
L 253.852586 65.178039 
L 253.852586 64.235948 
L 254.223359 64.235948 
L 254.223359 63.293856 
L 254.415897 63.293856 
L 254.415897 62.351765 
L 255.57079 62.351765 
L 255.57079 61.409673 
L 256.113424 61.409673 
L 256.113424 60.467582 
L 256.631226 60.467582 
L 256.631226 59.52549 
L 257.268316 59.52549 
L 257.268316 58.583399 
L 257.786118 58.583399 
L 257.786118 57.641307 
L 257.924904 57.641307 
L 257.978076 55.757124 
L 258.465828 55.757124 
L 258.465828 54.815033 
L 258.777181 54.815033 
L 258.777181 53.872941 
L 259.079797 53.872941 
L 259.079797 52.93085 
L 259.39666 52.93085 
L 259.39666 51.988758 
L 260.292474 51.988758 
L 260.292474 51.046667 
L 260.927463 51.046667 
L 260.927463 50.104575 
L 261.229804 50.104575 
L 261.229804 49.162484 
L 261.447367 49.162484 
L 261.447367 48.220392 
L 262.082355 48.220392 
L 262.082355 47.278301 
L 262.484004 47.278301 
L 262.591319 45.394118 
L 262.902672 45.394118 
L 262.927331 43.509935 
L 263.445132 43.509935 
L 263.522151 41.625752 
L 263.628231 41.625752 
L 263.638896 39.741569 
L 263.741854 39.741569 
L 263.741854 38.799477 
L 264.738811 38.799477 
L 264.783123 36.915294 
L 264.896747 36.915294 
L 264.896747 35.973203 
L 265.355295 35.973203 
L 265.355295 35.031111 
L 267.052821 35.031111 
L 267.106381 33.146928 
L 267.570623 33.146928 
L 267.570623 32.204837 
L 267.74137 32.204837 
L 267.74137 31.262745 
L 268.864302 31.262745 
L 268.864302 30.320654 
L 269.29791 30.320654 
L 269.29791 29.378562 
L 270.442138 29.378562 
L 270.442138 28.436471 
L 270.555761 28.436471 
L 270.555761 27.494379 
L 271.231872 27.494379 
L 271.231872 26.552288 
L 271.86686 26.552288 
L 271.86686 25.610196 
L 273.072214 25.610196 
L 273.072214 24.668105 
L 273.423401 24.668105 
L 273.423401 23.726013 
L 274.227107 23.726013 
L 274.227107 22.783922 
L 274.567628 22.783922 
L 274.567628 21.84183 
L 274.681252 21.84183 
L 274.681252 20.899739 
L 279.886121 20.899739 
L 279.886121 19.957647 
L 284.011612 19.957647 
L 284.011612 19.015556 
L 286.012438 19.015556 
L 286.012438 18.073464 
L 288.742527 18.073464 
L 288.742527 17.131373 
L 293.027597 17.131373 
L 293.027597 16.189281 
L 293.739999 16.189281 
L 293.754367 14.305098 
L 296.470089 14.305098 
L 296.470089 13.363007 
L 301.291493 13.363007 
L 301.291493 12.420915 
L 302.018263 12.420915 
L 302.018263 11.478824 
L 307.29624 11.478824 
L 307.29624 10.536732 
L 307.464099 10.536732 
L 307.464099 9.594641 
L 308.02301 9.594641 
L 308.02301 8.652549 
L 308.190869 8.652549 
L 308.190869 7.710458 
L 310.65661 7.710458 
L 310.65661 6.768366 
L 311.383381 6.768366 
L 311.383381 5.826275 
L 446.924475 5.826275 
L 446.924475 5.826275 
" clip-path="url(#p33efd3eb9f)" style="fill: none; stroke: #00bfbf; stroke-width: 3; stroke-linecap: square"/>
   </g>
   <g id="line2d_36">
    <path clip-path="url(#p33efd3eb9f)" style="fill: none; stroke: #00bfbf; stroke-width: 3; stroke-linecap: square"/>
   </g>
   <g id="line2d_37">
    <path d="M 34.16 288.453725 
L 142.541175 288.453725 
L 142.541175 287.511634 
L 143.288379 287.511634 
L 143.288379 286.569542 
L 144.616609 286.569542 
L 144.616609 285.627451 
L 145.365103 285.627451 
L 145.365103 284.685359 
L 145.57259 284.685359 
L 145.57259 283.743268 
L 145.737018 283.743268 
L 145.737018 282.801176 
L 146.981704 282.801176 
L 146.981704 281.859085 
L 148.067172 281.859085 
L 148.067172 280.916993 
L 149.834001 280.916993 
L 149.834001 279.974902 
L 151.395466 279.974902 
L 151.395466 279.03281 
L 153.685007 279.03281 
L 153.685007 278.090719 
L 154.676144 278.090719 
L 154.676144 277.148627 
L 155.563796 277.148627 
L 155.563796 276.206536 
L 155.857736 276.206536 
L 155.857736 275.264444 
L 156.626118 275.264444 
L 156.626118 274.322353 
L 179.140298 274.322353 
L 179.140298 273.380261 
L 182.824275 273.380261 
L 182.824275 272.43817 
L 182.993941 272.43817 
L 182.993941 271.496078 
L 183.847639 271.496078 
L 183.847639 270.553987 
L 185.042806 270.553987 
L 185.042806 269.611895 
L 185.286703 269.611895 
L 185.286703 268.669804 
L 186.677918 268.669804 
L 186.677918 267.727712 
L 187.701282 267.727712 
L 187.701282 266.785621 
L 188.018575 266.785621 
L 188.018575 265.843529 
L 188.750581 265.843529 
L 188.750581 264.901438 
L 188.896448 264.901438 
L 188.896448 263.959346 
L 189.094902 263.959346 
L 189.140346 262.075163 
L 191.299962 262.075163 
L 191.299962 261.133072 
L 191.739917 261.133072 
L 191.739917 260.19098 
L 191.872218 260.19098 
L 191.872218 259.248889 
L 192.529664 259.248889 
L 192.604223 257.364706 
L 192.948545 257.364706 
L 192.948545 256.422614 
L 193.947412 256.422614 
L 193.947412 255.480523 
L 194.119232 255.480523 
L 194.119232 254.538431 
L 194.983939 254.538431 
L 194.983939 253.59634 
L 195.59356 253.59634 
L 195.59356 252.654248 
L 196.007303 252.654248 
L 196.007303 251.712157 
L 196.383307 251.712157 
L 196.383307 250.770065 
L 196.812562 250.770065 
L 196.812562 249.827974 
L 197.20247 249.827974 
L 197.20247 248.885882 
L 197.446368 248.885882 
L 197.446368 247.943791 
L 197.801055 247.943791 
L 197.801055 247.001699 
L 197.972875 247.001699 
L 197.972875 246.059608 
L 200.178239 246.059608 
L 200.178239 245.117516 
L 200.666205 245.117516 
L 200.666205 244.175425 
L 200.910245 244.175425 
L 200.910245 243.233333 
L 201.254567 243.233333 
L 201.254567 242.291242 
L 203.899582 242.291242 
L 203.899582 241.34915 
L 204.689328 241.34915 
L 204.689328 240.407059 
L 206.107077 240.407059 
L 206.118056 238.522876 
L 206.278897 238.522876 
L 206.278897 237.580784 
L 207.775848 237.580784 
L 207.775848 236.638693 
L 208.972227 236.638693 
L 208.972227 235.696601 
L 211.89089 235.696601 
L 211.89089 234.75451 
L 212.746907 234.75451 
L 212.746907 233.812418 
L 213.067701 233.812418 
L 213.067701 232.870327 
L 213.743277 232.870327 
L 213.743277 231.928235 
L 214.725492 231.928235 
L 214.74629 230.044052 
L 215.290283 230.044052 
L 215.290283 229.101961 
L 216.628614 229.101961 
L 216.628614 228.159869 
L 217.375818 228.159869 
L 217.375818 227.217778 
L 217.691938 227.217778 
L 217.691938 226.275686 
L 218.704047 226.275686 
L 218.704047 225.333595 
L 218.840534 225.333595 
L 218.840534 224.391503 
L 219.349729 224.391503 
L 219.452541 222.50732 
L 219.6505 222.50732 
L 219.696552 219.681046 
L 219.824457 219.681046 
L 219.824457 218.738954 
L 220.462381 218.738954 
L 220.462381 217.796863 
L 220.692921 217.796863 
L 220.692921 216.854771 
L 221.042309 216.854771 
L 221.153281 214.028497 
L 221.308291 214.028497 
L 221.371505 212.144314 
L 221.695935 212.144314 
L 221.789513 210.260131 
L 222.154611 210.260131 
L 222.239927 208.375948 
L 222.472275 208.375948 
L 222.472275 207.433856 
L 223.117743 207.433856 
L 223.117743 206.491765 
L 223.407004 206.491765 
L 223.464771 204.607582 
L 223.866237 204.607582 
L 223.92144 202.723399 
L 224.073724 202.723399 
L 224.073724 201.781307 
L 224.238152 201.781307 
L 224.320789 199.897124 
L 224.698222 199.897124 
L 224.698222 198.955033 
L 225.064795 198.955033 
L 225.064795 198.012941 
L 225.317158 198.012941 
L 225.423333 196.128758 
L 225.482838 196.128758 
L 225.482904 194.244575 
L 225.925463 194.244575 
L 225.990935 192.360392 
L 226.156252 192.360392 
L 226.156252 191.418301 
L 226.279351 191.418301 
L 226.320172 189.534118 
L 226.568306 189.534118 
L 226.672668 187.649935 
L 226.864164 187.649935 
L 226.864164 186.707843 
L 227.179616 186.707843 
L 227.27572 184.82366 
L 227.412025 184.82366 
L 227.412025 183.881569 
L 227.772446 183.881569 
L 227.772446 182.939477 
L 228.000897 182.939477 
L 228.102926 181.055294 
L 228.278734 181.055294 
L 228.374782 176.344837 
L 228.61868 176.344837 
L 228.61868 175.402745 
L 228.749391 175.402745 
L 228.822726 172.576471 
L 228.956879 172.576471 
L 229.06091 170.692288 
L 229.121306 170.692288 
L 229.179837 168.808105 
L 229.636657 168.808105 
L 229.651234 166.923922 
L 229.8966 166.923922 
L 229.945174 165.039739 
L 230.035855 165.039739 
L 230.035855 164.097647 
L 230.365992 164.097647 
L 230.389139 162.213464 
L 230.713557 162.213464 
L 230.713557 161.271373 
L 231.032224 161.271373 
L 231.137634 159.38719 
L 231.199228 159.38719 
L 231.199228 158.445098 
L 231.345121 158.445098 
L 231.45146 155.618824 
L 231.509549 155.618824 
L 231.509549 154.676732 
L 231.647867 154.676732 
L 231.647867 153.734641 
L 232.035238 153.734641 
L 232.082557 149.966275 
L 232.186142 149.966275 
L 232.186142 149.024183 
L 232.426879 149.024183 
L 232.426879 148.082092 
L 232.57923 148.082092 
L 232.57923 147.14 
L 232.727163 147.14 
L 232.754235 145.255817 
L 232.940579 145.255817 
L 232.945387 143.371634 
L 233.177278 143.371634 
L 233.21829 141.487451 
L 233.839703 141.487451 
L 233.839703 140.545359 
L 233.994824 140.545359 
L 234.06493 138.661176 
L 234.35887 138.661176 
L 234.35887 137.719085 
L 234.537271 137.719085 
L 234.537271 136.776993 
L 234.685725 136.776993 
L 234.779754 134.89281 
L 234.883205 134.89281 
L 234.903948 133.008627 
L 235.071894 133.008627 
L 235.127252 131.124444 
L 235.606532 131.124444 
L 235.606532 130.182353 
L 235.861641 130.182353 
L 235.906569 128.29817 
L 236.272104 128.29817 
L 236.276672 126.413987 
L 236.509169 126.413987 
L 236.586301 124.529804 
L 236.741493 124.529804 
L 236.741493 123.587712 
L 236.957786 123.587712 
L 236.957786 122.645621 
L 237.069296 122.645621 
L 237.167996 119.819346 
L 237.279389 119.819346 
L 237.345633 117.935163 
L 237.451209 117.935163 
L 237.451209 116.993072 
L 237.564816 116.993072 
L 237.564816 116.05098 
L 237.751328 116.05098 
L 237.751328 115.108889 
L 238.060433 115.108889 
L 238.060433 114.166797 
L 238.230665 114.166797 
L 238.230665 113.224706 
L 238.442229 113.224706 
L 238.442229 112.282614 
L 238.660453 112.282614 
L 238.660453 111.340523 
L 238.948084 111.340523 
L 239.004672 109.45634 
L 239.232802 109.45634 
L 239.242024 106.630065 
L 239.453289 106.630065 
L 239.523378 103.803791 
L 240.010407 103.803791 
L 240.077505 101.919608 
L 240.144539 101.919608 
L 240.144539 100.977516 
L 240.448675 100.977516 
L 240.448675 100.035425 
L 240.744073 100.035425 
L 240.809511 98.151242 
L 240.976397 98.151242 
L 240.976397 97.20915 
L 241.153832 97.20915 
L 241.210538 94.382876 
L 241.336326 94.382876 
L 241.336326 93.440784 
L 241.630266 93.440784 
L 241.630266 92.498693 
L 241.98717 92.498693 
L 241.98717 91.556601 
L 242.100139 91.556601 
L 242.145397 89.672418 
L 242.398649 89.672418 
L 242.398649 88.730327 
L 242.955679 88.730327 
L 242.955679 87.788235 
L 243.086445 87.788235 
L 243.1691 85.904052 
L 243.279882 85.904052 
L 243.279882 84.961961 
L 243.798847 84.961961 
L 243.798847 84.019869 
L 244.588594 84.019869 
L 244.595642 82.135686 
L 245.072514 82.135686 
L 245.165118 80.251503 
L 245.451182 80.251503 
L 245.451182 79.309412 
L 245.99904 79.309412 
L 246.006342 77.425229 
L 246.178162 77.425229 
L 246.284505 75.541046 
L 246.335044 75.541046 
L 246.335044 74.598954 
L 246.520584 74.598954 
L 246.520584 73.656863 
L 246.925604 73.656863 
L 246.925604 72.714771 
L 247.190584 72.714771 
L 247.190584 71.77268 
L 247.321379 71.77268 
L 247.321379 70.830588 
L 247.660621 70.830588 
L 247.678045 68.946405 
L 247.937791 68.946405 
L 247.937791 68.004314 
L 248.780008 68.004314 
L 248.871492 66.120131 
L 249.016087 66.120131 
L 249.016087 65.178039 
L 249.400023 65.178039 
L 249.400023 64.235948 
L 249.539915 64.235948 
L 249.539915 63.293856 
L 249.735681 63.293856 
L 249.816882 60.467582 
L 249.988532 60.467582 
L 249.988532 59.52549 
L 250.173548 59.52549 
L 250.173548 58.583399 
L 250.433294 58.583399 
L 250.51941 56.699216 
L 250.755489 56.699216 
L 250.755489 55.757124 
L 251.392466 55.757124 
L 251.392466 54.815033 
L 251.556284 54.815033 
L 251.556284 53.872941 
L 251.667701 53.872941 
L 251.667701 52.93085 
L 251.91295 52.93085 
L 251.91295 51.988758 
L 252.172696 51.988758 
L 252.172696 51.046667 
L 253.173917 51.046667 
L 253.173917 50.104575 
L 254.163203 50.104575 
L 254.203082 48.220392 
L 254.305061 48.220392 
L 254.305061 47.278301 
L 254.435406 47.278301 
L 254.435406 46.336209 
L 254.651699 46.336209 
L 254.651699 45.394118 
L 255.130885 45.394118 
L 255.130885 44.452026 
L 255.669419 44.452026 
L 255.669419 43.509935 
L 255.902605 43.509935 
L 255.986425 41.625752 
L 257.408821 41.625752 
L 257.408821 40.68366 
L 257.705615 40.68366 
L 257.705615 39.741569 
L 258.195864 39.741569 
L 258.195864 38.799477 
L 259.315251 38.799477 
L 259.315251 37.857386 
L 259.55133 37.857386 
L 259.55133 36.915294 
L 259.794053 36.915294 
L 259.794053 35.973203 
L 260.201118 35.973203 
L 260.201118 35.031111 
L 260.352125 35.031111 
L 260.352125 34.08902 
L 260.649593 34.08902 
L 260.708791 32.204837 
L 260.968537 32.204837 
L 260.968537 31.262745 
L 261.940519 31.262745 
L 261.940519 30.320654 
L 262.859032 30.320654 
L 262.859032 29.378562 
L 263.978419 29.378562 
L 263.978419 28.436471 
L 264.214497 28.436471 
L 264.214497 27.494379 
L 264.698446 27.494379 
L 264.698446 26.552288 
L 265.015292 26.552288 
L 265.015292 25.610196 
L 265.371959 25.610196 
L 265.371959 24.668105 
L 265.631705 24.668105 
L 265.631705 23.726013 
L 266.204662 23.726013 
L 266.204662 22.783922 
L 269.361614 22.783922 
L 269.361614 21.84183 
L 270.736361 21.84183 
L 270.736361 20.899739 
L 270.86783 20.899739 
L 270.86783 19.957647 
L 275.399528 19.957647 
L 275.399528 19.015556 
L 282.564779 19.015556 
L 282.564779 18.073464 
L 285.477374 18.073464 
L 285.477374 17.131373 
L 291.291732 17.131373 
L 291.303616 15.24719 
L 292.313944 15.24719 
L 292.313944 14.305098 
L 294.204327 14.305098 
L 294.204327 13.363007 
L 298.25326 13.363007 
L 298.25326 12.420915 
L 299.263588 12.420915 
L 299.263588 11.478824 
L 302.877497 11.478824 
L 302.877497 10.536732 
L 303.887825 10.536732 
L 303.887825 9.594641 
L 304.836059 9.594641 
L 304.836059 8.652549 
L 305.846387 8.652549 
L 305.846387 7.710458 
L 308.592563 7.710458 
L 308.592563 6.768366 
L 309.602891 6.768366 
L 309.602891 5.826275 
L 446.924475 5.826275 
L 446.924475 5.826275 
" clip-path="url(#p33efd3eb9f)" style="fill: none; stroke: #bf00bf; stroke-width: 3; stroke-linecap: square"/>
   </g>
   <g id="line2d_38">
    <path clip-path="url(#p33efd3eb9f)" style="fill: none; stroke: #bf00bf; stroke-width: 3; stroke-linecap: square"/>
   </g>
   <g id="line2d_39">
    <path d="M 34.16 288.453725 
L 145.009107 288.453725 
L 145.009107 287.511634 
L 146.922089 287.511634 
L 146.922089 286.569542 
L 147.525945 286.569542 
L 147.525945 285.627451 
L 148.023218 285.627451 
L 148.023218 284.685359 
L 149.156015 284.685359 
L 149.156015 283.743268 
L 150.08548 283.743268 
L 150.08548 282.801176 
L 150.751428 282.801176 
L 150.751428 281.859085 
L 151.823146 281.859085 
L 151.823146 280.916993 
L 152.470925 280.916993 
L 152.470925 279.974902 
L 155.137369 279.974902 
L 155.137369 279.03281 
L 156.74961 279.03281 
L 156.74961 278.090719 
L 157.649986 278.090719 
L 157.649986 277.148627 
L 158.012716 277.148627 
L 158.012716 276.206536 
L 158.333351 276.206536 
L 158.333351 275.264444 
L 159.006501 275.264444 
L 159.006501 274.322353 
L 179.060131 274.322353 
L 179.060131 273.380261 
L 181.422517 273.380261 
L 181.422517 272.43817 
L 182.023944 272.43817 
L 182.023944 271.496078 
L 182.384229 271.496078 
L 182.384229 270.553987 
L 183.664037 270.553987 
L 183.664037 269.611895 
L 184.598002 269.611895 
L 184.598002 268.669804 
L 186.960388 268.669804 
L 186.960388 267.727712 
L 187.561815 267.727712 
L 187.561815 266.785621 
L 187.9221 266.785621 
L 187.9221 265.843529 
L 188.747054 265.843529 
L 188.791277 263.959346 
L 189.201908 263.959346 
L 189.201908 263.017255 
L 189.489619 263.017255 
L 189.489619 262.075163 
L 190.851666 262.075163 
L 190.851666 261.133072 
L 191.809417 261.133072 
L 191.809417 260.19098 
L 191.925792 260.19098 
L 191.925792 259.248889 
L 192.847628 259.248889 
L 192.847628 258.306797 
L 193.718654 258.306797 
L 193.718654 257.364706 
L 194.284926 257.364706 
L 194.329148 254.538431 
L 194.889605 254.538431 
L 194.889605 253.59634 
L 195.02749 253.59634 
L 195.02749 252.654248 
L 195.249889 252.654248 
L 195.249889 251.712157 
L 196.200677 251.712157 
L 196.200677 250.770065 
L 196.389538 250.770065 
L 196.389538 249.827974 
L 196.529697 249.827974 
L 196.529697 248.885882 
L 197.347288 248.885882 
L 197.347288 247.943791 
L 198.385499 247.943791 
L 198.385499 247.001699 
L 199.256525 247.001699 
L 199.256525 246.059608 
L 201.612715 246.059608 
L 201.656937 244.175425 
L 201.738548 244.175425 
L 201.738548 243.233333 
L 202.355279 243.233333 
L 202.355279 242.291242 
L 203.717327 242.291242 
L 203.717327 241.34915 
L 204.675077 241.34915 
L 204.675077 240.407059 
L 205.713288 240.407059 
L 205.713288 239.464967 
L 206.584314 239.464967 
L 206.584314 238.522876 
L 209.066337 238.522876 
L 209.066337 237.580784 
L 209.251215 237.580784 
L 209.251215 236.638693 
L 209.602785 236.638693 
L 209.602785 235.696601 
L 213.806741 235.696601 
L 213.806741 234.75451 
L 214.274235 234.75451 
L 214.335274 232.870327 
L 215.399525 232.870327 
L 215.399525 231.928235 
L 215.607359 231.928235 
L 215.607359 230.986144 
L 215.95893 230.986144 
L 215.95893 230.044052 
L 216.521684 230.044052 
L 216.521684 229.101961 
L 216.780266 229.101961 
L 216.780266 228.159869 
L 218.693247 228.159869 
L 218.693247 227.217778 
L 218.82462 227.217778 
L 218.82462 226.275686 
L 219.176191 226.275686 
L 219.176191 225.333595 
L 219.297103 225.333595 
L 219.297103 224.391503 
L 219.794376 224.391503 
L 219.794376 223.449412 
L 220.162885 223.449412 
L 220.162885 222.50732 
L 220.595223 222.50732 
L 220.691418 219.681046 
L 220.927174 219.681046 
L 220.927174 218.738954 
L 221.363383 218.738954 
L 221.363383 217.796863 
L 221.665773 217.796863 
L 221.755669 215.91268 
L 221.856639 215.91268 
L 221.895178 214.028497 
L 222.017344 214.028497 
L 222.017344 213.086405 
L 222.508205 213.086405 
L 222.522587 211.202222 
L 222.877828 211.202222 
L 222.877828 210.260131 
L 223.009833 210.260131 
L 223.112061 208.375948 
L 223.380146 208.375948 
L 223.380146 207.433856 
L 223.594304 207.433856 
L 223.609334 205.549673 
L 223.84764 205.549673 
L 223.90868 203.66549 
L 224.242083 203.66549 
L 224.242083 202.723399 
L 224.742131 202.723399 
L 224.742131 201.781307 
L 224.972931 201.781307 
L 225.050685 199.897124 
L 225.340767 199.897124 
L 225.409524 198.012941 
L 225.492168 198.012941 
L 225.492168 197.07085 
L 225.671596 197.07085 
L 225.761095 195.186667 
L 226.095089 195.186667 
L 226.095089 194.244575 
L 226.221299 194.244575 
L 226.221299 193.302484 
L 226.337544 193.302484 
L 226.337544 192.360392 
L 226.475544 192.360392 
L 226.475544 191.418301 
L 226.688793 191.418301 
L 226.781274 188.592026 
L 226.908527 188.592026 
L 226.997422 186.707843 
L 227.405149 186.707843 
L 227.413071 183.881569 
L 227.719527 183.881569 
L 227.814083 181.997386 
L 228.009005 181.997386 
L 228.057041 178.22902 
L 228.251322 178.22902 
L 228.335073 176.344837 
L 228.374782 176.344837 
L 228.374782 175.402745 
L 228.506278 175.402745 
L 228.520769 173.518562 
L 228.856951 173.518562 
L 228.936242 171.634379 
L 229.365977 171.634379 
L 229.421144 169.750196 
L 229.639076 169.750196 
L 229.65459 167.866013 
L 229.783875 167.866013 
L 229.837561 165.98183 
L 229.927035 165.98183 
L 229.96505 164.097647 
L 230.104509 164.097647 
L 230.104509 163.155556 
L 230.432544 163.155556 
L 230.530891 160.329281 
L 230.568541 160.329281 
L 230.640723 158.445098 
L 230.723484 158.445098 
L 230.777659 156.560915 
L 230.936789 156.560915 
L 231.028164 154.676732 
L 231.234489 154.676732 
L 231.234489 153.734641 
L 231.468583 153.734641 
L 231.557834 151.850458 
L 231.696911 151.850458 
L 231.696911 150.908366 
L 232.160961 150.908366 
L 232.160961 149.966275 
L 232.306206 149.966275 
L 232.335726 148.082092 
L 232.534422 148.082092 
L 232.583238 146.197908 
L 232.679993 146.197908 
L 232.679993 145.255817 
L 232.953985 145.255817 
L 233.003109 143.371634 
L 233.090426 143.371634 
L 233.137418 141.487451 
L 233.236102 141.487451 
L 233.236102 140.545359 
L 233.598832 140.545359 
L 233.604536 138.661176 
L 233.756374 138.661176 
L 233.777941 136.776993 
L 233.919467 136.776993 
L 233.964821 134.89281 
L 234.309736 134.89281 
L 234.39395 133.008627 
L 234.592617 133.008627 
L 234.592617 132.066536 
L 234.737608 132.066536 
L 234.828092 129.240261 
L 234.914172 129.240261 
L 234.914172 128.29817 
L 235.105213 128.29817 
L 235.105213 127.356078 
L 235.244629 127.356078 
L 235.244629 126.413987 
L 235.424391 126.413987 
L 235.480172 123.587712 
L 235.620429 123.587712 
L 235.620429 122.645621 
L 236.193705 122.645621 
L 236.193705 121.703529 
L 236.354679 121.703529 
L 236.354679 120.761438 
L 236.48629 120.761438 
L 236.48629 119.819346 
L 236.84222 119.819346 
L 236.84222 118.877255 
L 236.964741 118.877255 
L 237.008168 116.993072 
L 237.23267 116.993072 
L 237.23267 116.05098 
L 237.521692 116.05098 
L 237.521692 115.108889 
L 237.755325 115.108889 
L 237.79997 113.224706 
L 238.053487 113.224706 
L 238.142314 110.398431 
L 238.495777 110.398431 
L 238.495777 109.45634 
L 238.816411 109.45634 
L 238.839472 106.630065 
L 239.168142 106.630065 
L 239.195832 103.803791 
L 239.359163 103.803791 
L 239.410966 100.977516 
L 239.489561 100.977516 
L 239.489561 100.035425 
L 239.708145 100.035425 
L 239.810445 96.267059 
L 239.881041 96.267059 
L 239.881041 95.324967 
L 240.019649 95.324967 
L 240.05886 93.440784 
L 240.327646 93.440784 
L 240.371869 91.556601 
L 240.654932 91.556601 
L 240.74835 89.672418 
L 241.017662 89.672418 
L 241.070211 87.788235 
L 241.270228 87.788235 
L 241.338297 85.904052 
L 241.499076 85.904052 
L 241.499076 84.961961 
L 241.669974 84.961961 
L 241.669974 84.019869 
L 242.011447 84.019869 
L 242.011447 83.077778 
L 242.191231 83.077778 
L 242.252119 81.193595 
L 242.345236 81.193595 
L 242.432259 79.309412 
L 242.485813 79.309412 
L 242.545167 77.425229 
L 242.867114 77.425229 
L 242.939583 75.541046 
L 243.007691 75.541046 
L 243.007691 74.598954 
L 243.237661 74.598954 
L 243.237661 73.656863 
L 243.390009 73.656863 
L 243.390009 72.714771 
L 243.759539 72.714771 
L 243.759539 71.77268 
L 244.42822 71.77268 
L 244.42822 70.830588 
L 244.898349 70.830588 
L 244.898349 69.888497 
L 245.115959 69.888497 
L 245.115959 68.946405 
L 245.245145 68.946405 
L 245.299246 67.062222 
L 245.413599 67.062222 
L 245.41804 65.178039 
L 245.55752 65.178039 
L 245.596731 62.351765 
L 245.935477 62.351765 
L 245.99587 60.467582 
L 246.105255 60.467582 
L 246.105255 59.52549 
L 246.807228 59.52549 
L 246.807228 58.583399 
L 247.355202 58.583399 
L 247.355202 57.641307 
L 247.46914 57.641307 
L 247.46914 56.699216 
L 247.781269 56.699216 
L 247.87708 53.872941 
L 247.988832 53.872941 
L 247.988832 52.93085 
L 248.404113 52.93085 
L 248.404113 51.988758 
L 248.544691 51.988758 
L 248.544691 51.046667 
L 248.847677 51.046667 
L 248.847677 50.104575 
L 249.296539 50.104575 
L 249.378019 47.278301 
L 249.821191 47.278301 
L 249.821191 46.336209 
L 250.974905 46.336209 
L 250.974905 45.394118 
L 251.115482 45.394118 
L 251.115482 44.452026 
L 251.472477 44.452026 
L 251.472477 43.509935 
L 251.642255 43.509935 
L 251.642255 42.567843 
L 251.86733 42.567843 
L 251.86733 41.625752 
L 252.174373 41.625752 
L 252.174373 40.68366 
L 252.521168 40.68366 
L 252.521168 39.741569 
L 252.694064 39.741569 
L 252.694064 38.799477 
L 252.885309 38.799477 
L 252.92452 36.915294 
L 253.27493 36.915294 
L 253.27493 35.973203 
L 253.414079 35.973203 
L 253.414079 35.031111 
L 253.796808 35.031111 
L 253.796808 34.08902 
L 254.043268 34.08902 
L 254.083252 32.204837 
L 254.213046 32.204837 
L 254.213046 31.262745 
L 254.906554 31.262745 
L 254.906554 30.320654 
L 255.680137 30.320654 
L 255.680137 29.378562 
L 255.820715 29.378562 
L 255.820715 28.436471 
L 255.98487 28.436471 
L 255.98487 27.494379 
L 256.572563 27.494379 
L 256.572563 26.552288 
L 257.477345 26.552288 
L 257.477345 25.610196 
L 258.748501 25.610196 
L 258.748501 24.668105 
L 258.918278 24.668105 
L 258.918278 23.726013 
L 259.333808 23.726013 
L 259.333808 22.783922 
L 260.690103 22.783922 
L 260.690103 21.84183 
L 261.904599 21.84183 
L 261.904599 20.899739 
L 262.182578 20.899739 
L 262.182578 19.957647 
L 266.609832 19.957647 
L 266.609832 19.015556 
L 286.010202 19.015556 
L 286.049413 17.131373 
L 289.851481 17.131373 
L 289.851481 16.189281 
L 290.680985 16.189281 
L 290.680985 15.24719 
L 291.600241 15.24719 
L 291.639452 13.363007 
L 296.207625 13.363007 
L 296.207625 12.420915 
L 297.037129 12.420915 
L 297.037129 11.478824 
L 299.424886 11.478824 
L 299.424886 10.536732 
L 300.25439 10.536732 
L 300.25439 9.594641 
L 302.266039 9.594641 
L 302.266039 8.652549 
L 303.095543 8.652549 
L 303.095543 7.710458 
L 306.00979 7.710458 
L 306.00979 6.768366 
L 306.839294 6.768366 
L 306.839294 5.826275 
L 446.924475 5.826275 
L 446.924475 5.826275 
" clip-path="url(#p33efd3eb9f)" style="fill: none; stroke: #ff0000; stroke-width: 3; stroke-linecap: square"/>
   </g>
   <g id="line2d_40">
    <path clip-path="url(#p33efd3eb9f)" style="fill: none; stroke: #ff0000; stroke-width: 3; stroke-linecap: square"/>
   </g>
   <g id="line2d_41">
    <path d="M 240.542238 291.28 
L 240.542238 3 
" clip-path="url(#p33efd3eb9f)" style="fill: none; stroke: #000000; stroke-width: 1.5; stroke-linecap: square"/>
   </g>
   <g id="line2d_42">
    <path d="M 34.16 147.14 
L 446.924475 147.14 
" clip-path="url(#p33efd3eb9f)" style="fill: none; stroke-dasharray: 2,3.3; stroke-dashoffset: 0; stroke: #000000; stroke-width: 2"/>
   </g>
   <g id="patch_3">
    <path d="M 34.16 291.28 
L 34.16 3 
" style="fill: none; stroke: #000000; stroke-width: 0.8; stroke-linejoin: miter; stroke-linecap: square"/>
   </g>
   <g id="patch_4">
    <path d="M 446.924475 291.28 
L 446.924475 3 
" style="fill: none; stroke: #000000; stroke-width: 0.8; stroke-linejoin: miter; stroke-linecap: square"/>
   </g>
   <g id="patch_5">
    <path d="M 34.16 291.28 
L 446.924475 291.28 
" style="fill: none; stroke: #000000; stroke-width: 0.8; stroke-linejoin: miter; stroke-linecap: square"/>
   </g>
   <g id="patch_6">
    <path d="M 34.16 3 
L 446.924475 3 
" style="fill: none; stroke: #000000; stroke-width: 0.8; stroke-linejoin: miter; stroke-linecap: square"/>
   </g>
   <g id="text_6">
    <!-- f6-f9,20-D -->
    <g transform="translate(337.500436 285.5144)scale(0.2 -0.2)">
     <defs>
      <path id="DejaVuSans-36" d="M 2113 2584 
Q 1688 2584 1439 2293 
Q 1191 2003 1191 1497 
Q 1191 994 1439 701 
Q 1688 409 2113 409 
Q 2538 409 2786 701 
Q 3034 994 3034 1497 
Q 3034 2003 2786 2293 
Q 2538 2584 2113 2584 
z
M 3366 4563 
L 3366 3988 
Q 3128 4100 2886 4159 
Q 2644 4219 2406 4219 
Q 1781 4219 1451 3797 
Q 1122 3375 1075 2522 
Q 1259 2794 1537 2939 
Q 1816 3084 2150 3084 
Q 2853 3084 3261 2657 
Q 3669 2231 3669 1497 
Q 3669 778 3244 343 
Q 2819 -91 2113 -91 
Q 1303 -91 875 529 
Q 447 1150 447 2328 
Q 447 3434 972 4092 
Q 1497 4750 2381 4750 
Q 2619 4750 2861 4703 
Q 3103 4656 3366 4563 
z
" transform="scale(0.015625)"/>
      <path id="DejaVuSans-39" d="M 703 97 
L 703 672 
Q 941 559 1184 500 
Q 1428 441 1663 441 
Q 2288 441 2617 861 
Q 2947 1281 2994 2138 
Q 2813 1869 2534 1725 
Q 2256 1581 1919 1581 
Q 1219 1581 811 2004 
Q 403 2428 403 3163 
Q 403 3881 828 4315 
Q 1253 4750 1959 4750 
Q 2769 4750 3195 4129 
Q 3622 3509 3622 2328 
Q 3622 1225 3098 567 
Q 2575 -91 1691 -91 
Q 1453 -91 1209 -44 
Q 966 3 703 97 
z
M 1959 2075 
Q 2384 2075 2632 2365 
Q 2881 2656 2881 3163 
Q 2881 3666 2632 3958 
Q 2384 4250 1959 4250 
Q 1534 4250 1286 3958 
Q 1038 3666 1038 3163 
Q 1038 2656 1286 2365 
Q 1534 2075 1959 2075 
z
" transform="scale(0.015625)"/>
      <path id="DejaVuSans-2c" d="M 750 794 
L 1409 794 
L 1409 256 
L 897 -744 
L 494 -744 
L 750 256 
L 750 794 
z
" transform="scale(0.015625)"/>
      <path id="DejaVuSans-32" d="M 1228 531 
L 3431 531 
L 3431 0 
L 469 0 
L 469 531 
Q 828 903 1448 1529 
Q 2069 2156 2228 2338 
Q 2531 2678 2651 2914 
Q 2772 3150 2772 3378 
Q 2772 3750 2511 3984 
Q 2250 4219 1831 4219 
Q 1534 4219 1204 4116 
Q 875 4013 500 3803 
L 500 4441 
Q 881 4594 1212 4672 
Q 1544 4750 1819 4750 
Q 2544 4750 2975 4387 
Q 3406 4025 3406 3419 
Q 3406 3131 3298 2873 
Q 3191 2616 2906 2266 
Q 2828 2175 2409 1742 
Q 1991 1309 1228 531 
z
" transform="scale(0.015625)"/>
      <path id="DejaVuSans-44" d="M 1259 4147 
L 1259 519 
L 2022 519 
Q 2988 519 3436 956 
Q 3884 1394 3884 2338 
Q 3884 3275 3436 3711 
Q 2988 4147 2022 4147 
L 1259 4147 
z
M 628 4666 
L 1925 4666 
Q 3281 4666 3915 4102 
Q 4550 3538 4550 2338 
Q 4550 1131 3912 565 
Q 3275 0 1925 0 
L 628 0 
L 628 4666 
z
" transform="scale(0.015625)"/>
     </defs>
     <use xlink:href="#DejaVuSans-66"/>
     <use xlink:href="#DejaVuSans-36" x="35.205078"/>
     <use xlink:href="#DejaVuSans-2d" x="98.828125"/>
     <use xlink:href="#DejaVuSans-66" x="134.912109"/>
     <use xlink:href="#DejaVuSans-39" x="170.117188"/>
     <use xlink:href="#DejaVuSans-2c" x="233.740234"/>
     <use xlink:href="#DejaVuSans-32" x="265.527344"/>
     <use xlink:href="#DejaVuSans-30" x="329.150391"/>
     <use xlink:href="#DejaVuSans-2d" x="392.773438"/>
     <use xlink:href="#DejaVuSans-44" x="428.857422"/>
    </g>
   </g>
   <g id="text_7">
    <!-- v2.6.1.158 -->
    <g style="fill: #808080" transform="translate(213.728175 286.317512)scale(0.1 -0.1)">
     <defs>
      <path id="DejaVuSans-2e" d="M 684 794 
L 1344 794 
L 1344 0 
L 684 0 
L 684 794 
z
" transform="scale(0.015625)"/>
      <path id="DejaVuSans-35" d="M 691 4666 
L 3169 4666 
L 3169 4134 
L 1269 4134 
L 1269 2991 
Q 1406 3038 1543 3061 
Q 1681 3084 1819 3084 
Q 2600 3084 3056 2656 
Q 3513 2228 3513 1497 
Q 3513 744 3044 326 
Q 2575 -91 1722 -91 
Q 1428 -91 1123 -41 
Q 819 9 494 109 
L 494 744 
Q 775 591 1075 516 
Q 1375 441 1709 441 
Q 2250 441 2565 725 
Q 2881 1009 2881 1497 
Q 2881 1984 2565 2268 
Q 2250 2553 1709 2553 
Q 1456 2553 1204 2497 
Q 953 2441 691 2322 
L 691 4666 
z
" transform="scale(0.015625)"/>
      <path id="DejaVuSans-38" d="M 2034 2216 
Q 1584 2216 1326 1975 
Q 1069 1734 1069 1313 
Q 1069 891 1326 650 
Q 1584 409 2034 409 
Q 2484 409 2743 651 
Q 3003 894 3003 1313 
Q 3003 1734 2745 1975 
Q 2488 2216 2034 2216 
z
M 1403 2484 
Q 997 2584 770 2862 
Q 544 3141 544 3541 
Q 544 4100 942 4425 
Q 1341 4750 2034 4750 
Q 2731 4750 3128 4425 
Q 3525 4100 3525 3541 
Q 3525 3141 3298 2862 
Q 3072 2584 2669 2484 
Q 3125 2378 3379 2068 
Q 3634 1759 3634 1313 
Q 3634 634 3220 271 
Q 2806 -91 2034 -91 
Q 1263 -91 848 271 
Q 434 634 434 1313 
Q 434 1759 690 2068 
Q 947 2378 1403 2484 
z
M 1172 3481 
Q 1172 3119 1398 2916 
Q 1625 2713 2034 2713 
Q 2441 2713 2670 2916 
Q 2900 3119 2900 3481 
Q 2900 3844 2670 4047 
Q 2441 4250 2034 4250 
Q 1625 4250 1398 4047 
Q 1172 3844 1172 3481 
z
" transform="scale(0.015625)"/>
     </defs>
     <use xlink:href="#DejaVuSans-76"/>
     <use xlink:href="#DejaVuSans-32" x="59.179688"/>
     <use xlink:href="#DejaVuSans-2e" x="122.802734"/>
     <use xlink:href="#DejaVuSans-36" x="154.589844"/>
     <use xlink:href="#DejaVuSans-2e" x="218.212891"/>
     <use xlink:href="#DejaVuSans-31" x="250"/>
     <use xlink:href="#DejaVuSans-2e" x="313.623047"/>
     <use xlink:href="#DejaVuSans-31" x="345.410156"/>
     <use xlink:href="#DejaVuSans-35" x="409.033203"/>
     <use xlink:href="#DejaVuSans-38" x="472.65625"/>
    </g>
   </g>
   <g id="legend_1">
    <g id="patch_7">
     <path d="M 48.16 136.425 
L 177.381875 136.425 
Q 181.381875 136.425 181.381875 132.425 
L 181.381875 17 
Q 181.381875 13 177.381875 13 
L 48.16 13 
Q 44.16 13 44.16 17 
L 44.16 132.425 
Q 44.16 136.425 48.16 136.425 
z
" style="fill: #ffffff; opacity: 0.2; stroke: #cccccc; stroke-linejoin: miter"/>
    </g>
    <g id="line2d_43">
     <path d="M 52.16 29.196875 
L 72.16 29.196875 
L 92.16 29.196875 
" style="fill: none; stroke: #000000; stroke-width: 3; stroke-linecap: square"/>
    </g>
    <g id="text_8">
     <!-- 1: 4/4 -->
     <g transform="translate(108.16 36.196875)scale(0.2 -0.2)">
      <defs>
       <path id="DejaVuSans-3a" d="M 750 794 
L 1409 794 
L 1409 0 
L 750 0 
L 750 794 
z
M 750 3309 
L 1409 3309 
L 1409 2516 
L 750 2516 
L 750 3309 
z
" transform="scale(0.015625)"/>
       <path id="DejaVuSans-34" d="M 2419 4116 
L 825 1625 
L 2419 1625 
L 2419 4116 
z
M 2253 4666 
L 3047 4666 
L 3047 1625 
L 3713 1625 
L 3713 1100 
L 3047 1100 
L 3047 0 
L 2419 0 
L 2419 1100 
L 313 1100 
L 313 1709 
L 2253 4666 
z
" transform="scale(0.015625)"/>
       <path id="DejaVuSans-2f" d="M 1625 4666 
L 2156 4666 
L 531 -594 
L 0 -594 
L 1625 4666 
z
" transform="scale(0.015625)"/>
      </defs>
      <use xlink:href="#DejaVuSans-31"/>
      <use xlink:href="#DejaVuSans-3a" x="63.623047"/>
      <use xlink:href="#DejaVuSans-20" x="97.314453"/>
      <use xlink:href="#DejaVuSans-34" x="129.101562"/>
      <use xlink:href="#DejaVuSans-2f" x="192.724609"/>
      <use xlink:href="#DejaVuSans-34" x="226.416016"/>
     </g>
    </g>
    <g id="line2d_44">
     <path d="M 52.16 58.553125 
L 72.16 58.553125 
L 92.16 58.553125 
" style="fill: none; stroke: #00bfbf; stroke-width: 3; stroke-linecap: square"/>
    </g>
    <g id="text_9">
     <!-- -1: 4/4 -->
     <g transform="translate(108.16 65.553125)scale(0.2 -0.2)">
      <use xlink:href="#DejaVuSans-2d"/>
      <use xlink:href="#DejaVuSans-31" x="36.083984"/>
      <use xlink:href="#DejaVuSans-3a" x="99.707031"/>
      <use xlink:href="#DejaVuSans-20" x="133.398438"/>
      <use xlink:href="#DejaVuSans-34" x="165.185547"/>
      <use xlink:href="#DejaVuSans-2f" x="228.808594"/>
      <use xlink:href="#DejaVuSans-34" x="262.5"/>
     </g>
    </g>
    <g id="line2d_45">
     <path d="M 52.16 87.909375 
L 72.16 87.909375 
L 92.16 87.909375 
" style="fill: none; stroke: #bf00bf; stroke-width: 3; stroke-linecap: square"/>
    </g>
    <g id="text_10">
     <!-- -4: 4/4 -->
     <g transform="translate(108.16 94.909375)scale(0.2 -0.2)">
      <use xlink:href="#DejaVuSans-2d"/>
      <use xlink:href="#DejaVuSans-34" x="36.083984"/>
      <use xlink:href="#DejaVuSans-3a" x="99.707031"/>
      <use xlink:href="#DejaVuSans-20" x="133.398438"/>
      <use xlink:href="#DejaVuSans-34" x="165.185547"/>
      <use xlink:href="#DejaVuSans-2f" x="228.808594"/>
      <use xlink:href="#DejaVuSans-34" x="262.5"/>
     </g>
    </g>
    <g id="line2d_46">
     <path d="M 52.16 117.265625 
L 72.16 117.265625 
L 92.16 117.265625 
" style="fill: none; stroke: #ff0000; stroke-width: 3; stroke-linecap: square"/>
    </g>
    <g id="text_11">
     <!-- -8: 4/4 -->
     <g transform="translate(108.16 124.265625)scale(0.2 -0.2)">
      <use xlink:href="#DejaVuSans-2d"/>
      <use xlink:href="#DejaVuSans-38" x="36.083984"/>
      <use xlink:href="#DejaVuSans-3a" x="99.707031"/>
      <use xlink:href="#DejaVuSans-20" x="133.398438"/>
      <use xlink:href="#DejaVuSans-34" x="165.185547"/>
      <use xlink:href="#DejaVuSans-2f" x="228.808594"/>
      <use xlink:href="#DejaVuSans-34" x="262.5"/>
     </g>
    </g>
   </g>
  </g>
 </g>
 <defs>
  <clipPath id="p33efd3eb9f">
   <rect x="34.16" y="3" width="412.764475" height="288.28"/>
  </clipPath>
 </defs>
</svg>
