<?xml version="1.0" encoding="utf-8" standalone="no"?>
<!DOCTYPE svg PUBLIC "-//W3C//DTD SVG 1.1//EN"
  "http://www.w3.org/Graphics/SVG/1.1/DTD/svg11.dtd">
<svg xmlns:xlink="http://www.w3.org/1999/xlink" width="460.8pt" height="345.6pt" viewBox="0 0 460.8 345.6" xmlns="http://www.w3.org/2000/svg" version="1.1">
 <metadata>
  <rdf:RDF xmlns:dc="http://purl.org/dc/elements/1.1/" xmlns:cc="http://creativecommons.org/ns#" xmlns:rdf="http://www.w3.org/1999/02/22-rdf-syntax-ns#">
   <cc:Work>
    <dc:type rdf:resource="http://purl.org/dc/dcmitype/StillImage"/>
    <dc:date>2023-04-03T10:12:28.389062</dc:date>
    <dc:format>image/svg+xml</dc:format>
    <dc:creator>
     <cc:Agent>
      <dc:title>Matplotlib v3.5.2, https://matplotlib.org/</dc:title>
     </cc:Agent>
    </dc:creator>
   </cc:Work>
  </rdf:RDF>
 </metadata>
 <defs>
  <style type="text/css">*{stroke-linejoin: round; stroke-linecap: butt}</style>
 </defs>
 <g id="figure_1">
  <g id="patch_1">
   <path d="M 0 345.6 
L 460.8 345.6 
L 460.8 0 
L 0 0 
z
" style="fill: #ffffff"/>
  </g>
  <g id="axes_1">
   <g id="patch_2">
    <path d="M 34.16 291.28 
L 453.192 291.28 
L 453.192 3 
L 34.16 3 
z
" style="fill: #ffffff"/>
   </g>
   <g id="matplotlib.axis_1">
    <g id="xtick_1">
     <g id="line2d_1">
      <path d="M 43.135013 291.28 
L 43.135013 3 
" clip-path="url(#p9a086e7707)" style="fill: none; stroke: #b0b0b0; stroke-width: 0.8; stroke-linecap: square"/>
     </g>
     <g id="line2d_2">
      <defs>
       <path id="mbda8bdc04d" d="M 0 0 
L 0 3.5 
" style="stroke: #000000; stroke-width: 0.8"/>
      </defs>
      <g>
       <use xlink:href="#mbda8bdc04d" x="43.135013" y="291.28" style="stroke: #000000; stroke-width: 0.8"/>
      </g>
     </g>
     <g id="text_1">
      <!-- -1 -->
      <g transform="translate(33.164701 313.476875)scale(0.2 -0.2)">
       <defs>
        <path id="DejaVuSans-2d" d="M 313 2009 
L 1997 2009 
L 1997 1497 
L 313 1497 
L 313 2009 
z
" transform="scale(0.015625)"/>
        <path id="DejaVuSans-31" d="M 794 531 
L 1825 531 
L 1825 4091 
L 703 3866 
L 703 4441 
L 1819 4666 
L 2450 4666 
L 2450 531 
L 3481 531 
L 3481 0 
L 794 0 
L 794 531 
z
" transform="scale(0.015625)"/>
       </defs>
       <use xlink:href="#DejaVuSans-2d"/>
       <use xlink:href="#DejaVuSans-31" x="36.083984"/>
      </g>
     </g>
    </g>
    <g id="xtick_2">
     <g id="line2d_3">
      <path d="M 243.676 291.28 
L 243.676 3 
" clip-path="url(#p9a086e7707)" style="fill: none; stroke: #b0b0b0; stroke-width: 0.8; stroke-linecap: square"/>
     </g>
     <g id="line2d_4">
      <g>
       <use xlink:href="#mbda8bdc04d" x="243.676" y="291.28" style="stroke: #000000; stroke-width: 0.8"/>
      </g>
     </g>
     <g id="text_2">
      <!-- 0 -->
      <g transform="translate(237.3135 313.476875)scale(0.2 -0.2)">
       <defs>
        <path id="DejaVuSans-30" d="M 2034 4250 
Q 1547 4250 1301 3770 
Q 1056 3291 1056 2328 
Q 1056 1369 1301 889 
Q 1547 409 2034 409 
Q 2525 409 2770 889 
Q 3016 1369 3016 2328 
Q 3016 3291 2770 3770 
Q 2525 4250 2034 4250 
z
M 2034 4750 
Q 2819 4750 3233 4129 
Q 3647 3509 3647 2328 
Q 3647 1150 3233 529 
Q 2819 -91 2034 -91 
Q 1250 -91 836 529 
Q 422 1150 422 2328 
Q 422 3509 836 4129 
Q 1250 4750 2034 4750 
z
" transform="scale(0.015625)"/>
       </defs>
       <use xlink:href="#DejaVuSans-30"/>
      </g>
     </g>
    </g>
    <g id="xtick_3">
     <g id="line2d_5">
      <path d="M 444.216987 291.28 
L 444.216987 3 
" clip-path="url(#p9a086e7707)" style="fill: none; stroke: #b0b0b0; stroke-width: 0.8; stroke-linecap: square"/>
     </g>
     <g id="line2d_6">
      <g>
       <use xlink:href="#mbda8bdc04d" x="444.216987" y="291.28" style="stroke: #000000; stroke-width: 0.8"/>
      </g>
     </g>
     <g id="text_3">
      <!-- 1 -->
      <g transform="translate(437.854487 313.476875)scale(0.2 -0.2)">
       <use xlink:href="#DejaVuSans-31"/>
      </g>
     </g>
    </g>
    <g id="xtick_4">
     <g id="line2d_7">
      <defs>
       <path id="m37609472b7" d="M 0 0 
L 0 2 
" style="stroke: #000000; stroke-width: 0.6"/>
      </defs>
      <g>
       <use xlink:href="#m37609472b7" x="103.503866" y="291.28" style="stroke: #000000; stroke-width: 0.6"/>
      </g>
     </g>
    </g>
    <g id="xtick_5">
     <g id="line2d_8">
      <g>
       <use xlink:href="#m37609472b7" x="138.81738" y="291.28" style="stroke: #000000; stroke-width: 0.6"/>
      </g>
     </g>
    </g>
    <g id="xtick_6">
     <g id="line2d_9">
      <g>
       <use xlink:href="#m37609472b7" x="163.872718" y="291.28" style="stroke: #000000; stroke-width: 0.6"/>
      </g>
     </g>
    </g>
    <g id="xtick_7">
     <g id="line2d_10">
      <g>
       <use xlink:href="#m37609472b7" x="183.307148" y="291.28" style="stroke: #000000; stroke-width: 0.6"/>
      </g>
     </g>
    </g>
    <g id="xtick_8">
     <g id="line2d_11">
      <g>
       <use xlink:href="#m37609472b7" x="199.186233" y="291.28" style="stroke: #000000; stroke-width: 0.6"/>
      </g>
     </g>
    </g>
    <g id="xtick_9">
     <g id="line2d_12">
      <g>
       <use xlink:href="#m37609472b7" x="212.611808" y="291.28" style="stroke: #000000; stroke-width: 0.6"/>
      </g>
     </g>
    </g>
    <g id="xtick_10">
     <g id="line2d_13">
      <g>
       <use xlink:href="#m37609472b7" x="224.24157" y="291.28" style="stroke: #000000; stroke-width: 0.6"/>
      </g>
     </g>
    </g>
    <g id="xtick_11">
     <g id="line2d_14">
      <g>
       <use xlink:href="#m37609472b7" x="234.499748" y="291.28" style="stroke: #000000; stroke-width: 0.6"/>
      </g>
     </g>
    </g>
    <g id="xtick_12">
     <g id="line2d_15">
      <g>
       <use xlink:href="#m37609472b7" x="304.044852" y="291.28" style="stroke: #000000; stroke-width: 0.6"/>
      </g>
     </g>
    </g>
    <g id="xtick_13">
     <g id="line2d_16">
      <g>
       <use xlink:href="#m37609472b7" x="339.358367" y="291.28" style="stroke: #000000; stroke-width: 0.6"/>
      </g>
     </g>
    </g>
    <g id="xtick_14">
     <g id="line2d_17">
      <g>
       <use xlink:href="#m37609472b7" x="364.413705" y="291.28" style="stroke: #000000; stroke-width: 0.6"/>
      </g>
     </g>
    </g>
    <g id="xtick_15">
     <g id="line2d_18">
      <g>
       <use xlink:href="#m37609472b7" x="383.848134" y="291.28" style="stroke: #000000; stroke-width: 0.6"/>
      </g>
     </g>
    </g>
    <g id="xtick_16">
     <g id="line2d_19">
      <g>
       <use xlink:href="#m37609472b7" x="399.72722" y="291.28" style="stroke: #000000; stroke-width: 0.6"/>
      </g>
     </g>
    </g>
    <g id="xtick_17">
     <g id="line2d_20">
      <g>
       <use xlink:href="#m37609472b7" x="413.152795" y="291.28" style="stroke: #000000; stroke-width: 0.6"/>
      </g>
     </g>
    </g>
    <g id="xtick_18">
     <g id="line2d_21">
      <g>
       <use xlink:href="#m37609472b7" x="424.782557" y="291.28" style="stroke: #000000; stroke-width: 0.6"/>
      </g>
     </g>
    </g>
    <g id="xtick_19">
     <g id="line2d_22">
      <g>
       <use xlink:href="#m37609472b7" x="435.040735" y="291.28" style="stroke: #000000; stroke-width: 0.6"/>
      </g>
     </g>
    </g>
    <g id="text_4">
     <!-- log10 of FEvals ratio -->
     <g transform="translate(141.371312 336.833125)scale(0.2 -0.2)">
      <defs>
       <path id="DejaVuSans-6c" d="M 603 4863 
L 1178 4863 
L 1178 0 
L 603 0 
L 603 4863 
z
" transform="scale(0.015625)"/>
       <path id="DejaVuSans-6f" d="M 1959 3097 
Q 1497 3097 1228 2736 
Q 959 2375 959 1747 
Q 959 1119 1226 758 
Q 1494 397 1959 397 
Q 2419 397 2687 759 
Q 2956 1122 2956 1747 
Q 2956 2369 2687 2733 
Q 2419 3097 1959 3097 
z
M 1959 3584 
Q 2709 3584 3137 3096 
Q 3566 2609 3566 1747 
Q 3566 888 3137 398 
Q 2709 -91 1959 -91 
Q 1206 -91 779 398 
Q 353 888 353 1747 
Q 353 2609 779 3096 
Q 1206 3584 1959 3584 
z
" transform="scale(0.015625)"/>
       <path id="DejaVuSans-67" d="M 2906 1791 
Q 2906 2416 2648 2759 
Q 2391 3103 1925 3103 
Q 1463 3103 1205 2759 
Q 947 2416 947 1791 
Q 947 1169 1205 825 
Q 1463 481 1925 481 
Q 2391 481 2648 825 
Q 2906 1169 2906 1791 
z
M 3481 434 
Q 3481 -459 3084 -895 
Q 2688 -1331 1869 -1331 
Q 1566 -1331 1297 -1286 
Q 1028 -1241 775 -1147 
L 775 -588 
Q 1028 -725 1275 -790 
Q 1522 -856 1778 -856 
Q 2344 -856 2625 -561 
Q 2906 -266 2906 331 
L 2906 616 
Q 2728 306 2450 153 
Q 2172 0 1784 0 
Q 1141 0 747 490 
Q 353 981 353 1791 
Q 353 2603 747 3093 
Q 1141 3584 1784 3584 
Q 2172 3584 2450 3431 
Q 2728 3278 2906 2969 
L 2906 3500 
L 3481 3500 
L 3481 434 
z
" transform="scale(0.015625)"/>
       <path id="DejaVuSans-20" transform="scale(0.015625)"/>
       <path id="DejaVuSans-66" d="M 2375 4863 
L 2375 4384 
L 1825 4384 
Q 1516 4384 1395 4259 
Q 1275 4134 1275 3809 
L 1275 3500 
L 2222 3500 
L 2222 3053 
L 1275 3053 
L 1275 0 
L 697 0 
L 697 3053 
L 147 3053 
L 147 3500 
L 697 3500 
L 697 3744 
Q 697 4328 969 4595 
Q 1241 4863 1831 4863 
L 2375 4863 
z
" transform="scale(0.015625)"/>
       <path id="DejaVuSans-46" d="M 628 4666 
L 3309 4666 
L 3309 4134 
L 1259 4134 
L 1259 2759 
L 3109 2759 
L 3109 2228 
L 1259 2228 
L 1259 0 
L 628 0 
L 628 4666 
z
" transform="scale(0.015625)"/>
       <path id="DejaVuSans-45" d="M 628 4666 
L 3578 4666 
L 3578 4134 
L 1259 4134 
L 1259 2753 
L 3481 2753 
L 3481 2222 
L 1259 2222 
L 1259 531 
L 3634 531 
L 3634 0 
L 628 0 
L 628 4666 
z
" transform="scale(0.015625)"/>
       <path id="DejaVuSans-76" d="M 191 3500 
L 800 3500 
L 1894 563 
L 2988 3500 
L 3597 3500 
L 2284 0 
L 1503 0 
L 191 3500 
z
" transform="scale(0.015625)"/>
       <path id="DejaVuSans-61" d="M 2194 1759 
Q 1497 1759 1228 1600 
Q 959 1441 959 1056 
Q 959 750 1161 570 
Q 1363 391 1709 391 
Q 2188 391 2477 730 
Q 2766 1069 2766 1631 
L 2766 1759 
L 2194 1759 
z
M 3341 1997 
L 3341 0 
L 2766 0 
L 2766 531 
Q 2569 213 2275 61 
Q 1981 -91 1556 -91 
Q 1019 -91 701 211 
Q 384 513 384 1019 
Q 384 1609 779 1909 
Q 1175 2209 1959 2209 
L 2766 2209 
L 2766 2266 
Q 2766 2663 2505 2880 
Q 2244 3097 1772 3097 
Q 1472 3097 1187 3025 
Q 903 2953 641 2809 
L 641 3341 
Q 956 3463 1253 3523 
Q 1550 3584 1831 3584 
Q 2591 3584 2966 3190 
Q 3341 2797 3341 1997 
z
" transform="scale(0.015625)"/>
       <path id="DejaVuSans-73" d="M 2834 3397 
L 2834 2853 
Q 2591 2978 2328 3040 
Q 2066 3103 1784 3103 
Q 1356 3103 1142 2972 
Q 928 2841 928 2578 
Q 928 2378 1081 2264 
Q 1234 2150 1697 2047 
L 1894 2003 
Q 2506 1872 2764 1633 
Q 3022 1394 3022 966 
Q 3022 478 2636 193 
Q 2250 -91 1575 -91 
Q 1294 -91 989 -36 
Q 684 19 347 128 
L 347 722 
Q 666 556 975 473 
Q 1284 391 1588 391 
Q 1994 391 2212 530 
Q 2431 669 2431 922 
Q 2431 1156 2273 1281 
Q 2116 1406 1581 1522 
L 1381 1569 
Q 847 1681 609 1914 
Q 372 2147 372 2553 
Q 372 3047 722 3315 
Q 1072 3584 1716 3584 
Q 2034 3584 2315 3537 
Q 2597 3491 2834 3397 
z
" transform="scale(0.015625)"/>
       <path id="DejaVuSans-72" d="M 2631 2963 
Q 2534 3019 2420 3045 
Q 2306 3072 2169 3072 
Q 1681 3072 1420 2755 
Q 1159 2438 1159 1844 
L 1159 0 
L 581 0 
L 581 3500 
L 1159 3500 
L 1159 2956 
Q 1341 3275 1631 3429 
Q 1922 3584 2338 3584 
Q 2397 3584 2469 3576 
Q 2541 3569 2628 3553 
L 2631 2963 
z
" transform="scale(0.015625)"/>
       <path id="DejaVuSans-74" d="M 1172 4494 
L 1172 3500 
L 2356 3500 
L 2356 3053 
L 1172 3053 
L 1172 1153 
Q 1172 725 1289 603 
Q 1406 481 1766 481 
L 2356 481 
L 2356 0 
L 1766 0 
Q 1100 0 847 248 
Q 594 497 594 1153 
L 594 3053 
L 172 3053 
L 172 3500 
L 594 3500 
L 594 4494 
L 1172 4494 
z
" transform="scale(0.015625)"/>
       <path id="DejaVuSans-69" d="M 603 3500 
L 1178 3500 
L 1178 0 
L 603 0 
L 603 3500 
z
M 603 4863 
L 1178 4863 
L 1178 4134 
L 603 4134 
L 603 4863 
z
" transform="scale(0.015625)"/>
      </defs>
      <use xlink:href="#DejaVuSans-6c"/>
      <use xlink:href="#DejaVuSans-6f" x="27.783203"/>
      <use xlink:href="#DejaVuSans-67" x="88.964844"/>
      <use xlink:href="#DejaVuSans-31" x="152.441406"/>
      <use xlink:href="#DejaVuSans-30" x="216.064453"/>
      <use xlink:href="#DejaVuSans-20" x="279.6875"/>
      <use xlink:href="#DejaVuSans-6f" x="311.474609"/>
      <use xlink:href="#DejaVuSans-66" x="372.65625"/>
      <use xlink:href="#DejaVuSans-20" x="407.861328"/>
      <use xlink:href="#DejaVuSans-46" x="439.648438"/>
      <use xlink:href="#DejaVuSans-45" x="497.167969"/>
      <use xlink:href="#DejaVuSans-76" x="560.351562"/>
      <use xlink:href="#DejaVuSans-61" x="619.53125"/>
      <use xlink:href="#DejaVuSans-6c" x="680.810547"/>
      <use xlink:href="#DejaVuSans-73" x="708.59375"/>
      <use xlink:href="#DejaVuSans-20" x="760.693359"/>
      <use xlink:href="#DejaVuSans-72" x="792.480469"/>
      <use xlink:href="#DejaVuSans-61" x="833.59375"/>
      <use xlink:href="#DejaVuSans-74" x="894.873047"/>
      <use xlink:href="#DejaVuSans-69" x="934.082031"/>
      <use xlink:href="#DejaVuSans-6f" x="961.865234"/>
     </g>
    </g>
   </g>
   <g id="matplotlib.axis_2">
    <g id="ytick_1">
     <g id="line2d_23">
      <path d="M 34.16 288.453725 
L 453.192 288.453725 
" clip-path="url(#p9a086e7707)" style="fill: none; stroke: #b0b0b0; stroke-width: 0.8; stroke-linecap: square"/>
     </g>
     <g id="line2d_24">
      <defs>
       <path id="mc4e3eddf6b" d="M 0 0 
L -3.5 0 
" style="stroke: #000000; stroke-width: 0.8"/>
      </defs>
      <g>
       <use xlink:href="#mc4e3eddf6b" x="34.16" y="288.453725" style="stroke: #000000; stroke-width: 0.8"/>
      </g>
     </g>
    </g>
    <g id="ytick_2">
     <g id="line2d_25">
      <path d="M 34.16 217.796863 
L 453.192 217.796863 
" clip-path="url(#p9a086e7707)" style="fill: none; stroke: #b0b0b0; stroke-width: 0.8; stroke-linecap: square"/>
     </g>
     <g id="line2d_26">
      <g>
       <use xlink:href="#mc4e3eddf6b" x="34.16" y="217.796863" style="stroke: #000000; stroke-width: 0.8"/>
      </g>
     </g>
    </g>
    <g id="ytick_3">
     <g id="line2d_27">
      <path d="M 34.16 147.14 
L 453.192 147.14 
" clip-path="url(#p9a086e7707)" style="fill: none; stroke: #b0b0b0; stroke-width: 0.8; stroke-linecap: square"/>
     </g>
     <g id="line2d_28">
      <g>
       <use xlink:href="#mc4e3eddf6b" x="34.16" y="147.14" style="stroke: #000000; stroke-width: 0.8"/>
      </g>
     </g>
    </g>
    <g id="ytick_4">
     <g id="line2d_29">
      <path d="M 34.16 76.483137 
L 453.192 76.483137 
" clip-path="url(#p9a086e7707)" style="fill: none; stroke: #b0b0b0; stroke-width: 0.8; stroke-linecap: square"/>
     </g>
     <g id="line2d_30">
      <g>
       <use xlink:href="#mc4e3eddf6b" x="34.16" y="76.483137" style="stroke: #000000; stroke-width: 0.8"/>
      </g>
     </g>
    </g>
    <g id="ytick_5">
     <g id="line2d_31">
      <path d="M 34.16 5.826275 
L 453.192 5.826275 
" clip-path="url(#p9a086e7707)" style="fill: none; stroke: #b0b0b0; stroke-width: 0.8; stroke-linecap: square"/>
     </g>
     <g id="line2d_32">
      <g>
       <use xlink:href="#mc4e3eddf6b" x="34.16" y="5.826275" style="stroke: #000000; stroke-width: 0.8"/>
      </g>
     </g>
    </g>
    <g id="text_5">
     <!-- proportion of trials -->
     <g transform="translate(19.000625 240.14625)rotate(-90)scale(0.2 -0.2)">
      <defs>
       <path id="DejaVuSans-70" d="M 1159 525 
L 1159 -1331 
L 581 -1331 
L 581 3500 
L 1159 3500 
L 1159 2969 
Q 1341 3281 1617 3432 
Q 1894 3584 2278 3584 
Q 2916 3584 3314 3078 
Q 3713 2572 3713 1747 
Q 3713 922 3314 415 
Q 2916 -91 2278 -91 
Q 1894 -91 1617 61 
Q 1341 213 1159 525 
z
M 3116 1747 
Q 3116 2381 2855 2742 
Q 2594 3103 2138 3103 
Q 1681 3103 1420 2742 
Q 1159 2381 1159 1747 
Q 1159 1113 1420 752 
Q 1681 391 2138 391 
Q 2594 391 2855 752 
Q 3116 1113 3116 1747 
z
" transform="scale(0.015625)"/>
       <path id="DejaVuSans-6e" d="M 3513 2113 
L 3513 0 
L 2938 0 
L 2938 2094 
Q 2938 2591 2744 2837 
Q 2550 3084 2163 3084 
Q 1697 3084 1428 2787 
Q 1159 2491 1159 1978 
L 1159 0 
L 581 0 
L 581 3500 
L 1159 3500 
L 1159 2956 
Q 1366 3272 1645 3428 
Q 1925 3584 2291 3584 
Q 2894 3584 3203 3211 
Q 3513 2838 3513 2113 
z
" transform="scale(0.015625)"/>
      </defs>
      <use xlink:href="#DejaVuSans-70"/>
      <use xlink:href="#DejaVuSans-72" x="63.476562"/>
      <use xlink:href="#DejaVuSans-6f" x="102.339844"/>
      <use xlink:href="#DejaVuSans-70" x="163.521484"/>
      <use xlink:href="#DejaVuSans-6f" x="226.998047"/>
      <use xlink:href="#DejaVuSans-72" x="288.179688"/>
      <use xlink:href="#DejaVuSans-74" x="329.292969"/>
      <use xlink:href="#DejaVuSans-69" x="368.501953"/>
      <use xlink:href="#DejaVuSans-6f" x="396.285156"/>
      <use xlink:href="#DejaVuSans-6e" x="457.466797"/>
      <use xlink:href="#DejaVuSans-20" x="520.845703"/>
      <use xlink:href="#DejaVuSans-6f" x="552.632812"/>
      <use xlink:href="#DejaVuSans-66" x="613.814453"/>
      <use xlink:href="#DejaVuSans-20" x="649.019531"/>
      <use xlink:href="#DejaVuSans-74" x="680.806641"/>
      <use xlink:href="#DejaVuSans-72" x="720.015625"/>
      <use xlink:href="#DejaVuSans-69" x="761.128906"/>
      <use xlink:href="#DejaVuSans-61" x="788.912109"/>
      <use xlink:href="#DejaVuSans-6c" x="850.191406"/>
      <use xlink:href="#DejaVuSans-73" x="877.974609"/>
     </g>
    </g>
   </g>
   <g id="line2d_33">
    <path d="M 34.16 288.453725 
L 117.715847 288.453725 
L 117.715847 287.700052 
L 133.87186 287.700052 
L 133.87186 286.946379 
L 138.135052 286.946379 
L 138.135052 286.192706 
L 147.299654 286.192706 
L 147.299654 285.439033 
L 152.340869 285.439033 
L 152.340869 284.685359 
L 160.226123 284.685359 
L 160.226123 283.931686 
L 161.419208 283.931686 
L 161.419208 283.178013 
L 163.455668 283.178013 
L 163.455668 282.42434 
L 167.71886 282.42434 
L 167.71886 281.670667 
L 170.161617 281.670667 
L 170.161617 280.916993 
L 176.382136 280.916993 
L 176.382136 280.16332 
L 177.575221 280.16332 
L 177.575221 279.409647 
L 180.645329 279.409647 
L 180.645329 278.655974 
L 181.444107 278.655974 
L 181.444107 277.902301 
L 181.838414 277.902301 
L 181.924677 276.394954 
L 184.223933 276.394954 
L 184.223933 275.641281 
L 189.10069 275.641281 
L 189.10069 274.887608 
L 189.530783 274.887608 
L 189.530783 274.133935 
L 194.851145 274.133935 
L 194.851145 273.380261 
L 196.04423 273.380261 
L 196.04423 272.626588 
L 197.60012 272.626588 
L 197.60012 271.872915 
L 197.714626 271.872915 
L 197.714626 271.119242 
L 199.745425 271.119242 
L 199.745425 270.365569 
L 200.379947 270.365569 
L 200.406482 268.858222 
L 201.160546 268.858222 
L 201.160546 268.104549 
L 201.863313 268.104549 
L 201.930687 266.597203 
L 204.643139 266.597203 
L 204.643139 265.843529 
L 205.172212 265.843529 
L 205.256703 264.336183 
L 205.686797 264.336183 
L 205.686797 263.58251 
L 209.519895 263.58251 
L 209.629452 262.075163 
L 209.949989 262.075163 
L 209.949989 261.32149 
L 212.031634 261.32149 
L 212.031634 260.567817 
L 212.671894 260.567817 
L 212.671894 259.814144 
L 212.870976 259.814144 
L 212.870976 259.060471 
L 213.071407 259.060471 
L 213.071407 258.306797 
L 213.723799 258.306797 
L 213.723799 257.553124 
L 213.864979 257.553124 
L 213.870639 256.045778 
L 215.156721 256.045778 
L 215.156721 255.292105 
L 215.268683 255.292105 
L 215.292577 253.784758 
L 216.069129 253.784758 
L 216.136597 251.523739 
L 216.412888 251.523739 
L 216.412888 250.770065 
L 216.562495 250.770065 
L 216.562495 250.016392 
L 217.316559 250.016392 
L 217.316559 249.262719 
L 218.133831 249.262719 
L 218.133831 248.509046 
L 218.510207 248.509046 
L 218.534101 247.001699 
L 218.792955 247.001699 
L 218.848956 245.494353 
L 219.376213 245.494353 
L 219.378121 243.987007 
L 219.730398 243.987007 
L 219.730398 243.233333 
L 220.825688 243.233333 
L 220.825688 242.47966 
L 221.579752 242.47966 
L 221.579752 241.725987 
L 222.03448 241.725987 
L 222.03448 240.972314 
L 222.312491 240.972314 
L 222.312491 240.218641 
L 222.617738 240.218641 
L 222.617738 239.464967 
L 222.855486 239.464967 
L 222.863745 237.957621 
L 223.725712 237.957621 
L 223.773706 236.450275 
L 224.155806 236.450275 
L 224.155806 235.696601 
L 224.971138 235.696601 
L 224.971138 234.942928 
L 225.280687 234.942928 
L 225.389961 232.681908 
L 225.393524 232.681908 
L 225.393524 231.928235 
L 225.554015 231.928235 
L 225.556435 230.420889 
L 226.237543 230.420889 
L 226.342789 228.913542 
L 226.464463 228.913542 
L 226.464463 228.159869 
L 226.605345 228.159869 
L 226.605345 227.406196 
L 227.287949 227.406196 
L 227.287949 226.652523 
L 227.661942 226.652523 
L 227.761475 225.145176 
L 227.931455 225.145176 
L 227.931455 224.391503 
L 228.120543 224.391503 
L 228.177515 222.884157 
L 228.402354 222.884157 
L 228.494717 221.37681 
L 228.518611 221.37681 
L 228.518611 220.623137 
L 228.776957 220.623137 
L 228.776957 219.869464 
L 228.893902 219.869464 
L 228.961412 218.362118 
L 229.189936 218.362118 
L 229.227421 216.101098 
L 229.362631 216.101098 
L 229.436831 213.086405 
L 229.47716 213.086405 
L 229.496668 211.579059 
L 229.613262 211.579059 
L 229.613262 210.825386 
L 229.879812 210.825386 
L 229.976929 209.318039 
L 230.090831 209.318039 
L 230.090831 208.564366 
L 230.280851 208.564366 
L 230.298063 207.05702 
L 230.509089 207.05702 
L 230.611683 204.042327 
L 230.64785 204.042327 
L 230.64785 203.288654 
L 230.796138 203.288654 
L 230.840544 201.781307 
L 231.041473 201.781307 
L 231.041473 201.027634 
L 231.362068 201.027634 
L 231.457123 199.520288 
L 231.624103 199.520288 
L 231.624103 198.766614 
L 231.745139 198.766614 
L 231.808559 197.259268 
L 231.863233 197.259268 
L 231.863233 196.505595 
L 231.995605 196.505595 
L 232.053894 194.244575 
L 232.298962 194.244575 
L 232.339648 192.737229 
L 232.413437 192.737229 
L 232.438893 191.229882 
L 232.602247 191.229882 
L 232.602247 190.476209 
L 232.884589 190.476209 
L 232.937209 188.968863 
L 233.019363 188.968863 
L 233.062772 187.461516 
L 233.189344 187.461516 
L 233.218454 185.95417 
L 233.451314 185.95417 
L 233.520467 183.69315 
L 233.889877 183.69315 
L 233.889877 182.939477 
L 234.082069 182.939477 
L 234.143005 181.432131 
L 234.871151 181.432131 
L 234.871151 180.678458 
L 234.986664 180.678458 
L 235.044176 178.417438 
L 235.34872 178.417438 
L 235.34872 177.663765 
L 235.538525 177.663765 
L 235.623063 176.156418 
L 235.75567 176.156418 
L 235.803087 173.895399 
L 235.929222 173.895399 
L 236.036519 172.388052 
L 236.375626 172.388052 
L 236.456745 170.880706 
L 236.669704 170.880706 
L 236.746101 169.373359 
L 237.074823 169.373359 
L 237.074823 168.619686 
L 237.225143 168.619686 
L 237.31596 165.604993 
L 237.385096 165.604993 
L 237.385096 164.097647 
L 237.556851 164.097647 
L 237.607843 162.590301 
L 237.681065 162.590301 
L 237.681065 161.836627 
L 237.817156 161.836627 
L 237.871245 160.329281 
L 238.189838 160.329281 
L 238.2857 157.314588 
L 238.320661 157.314588 
L 238.374294 155.053569 
L 238.547845 155.053569 
L 238.619629 153.546222 
L 238.79318 153.546222 
L 238.883666 151.285203 
L 239.219822 151.285203 
L 239.222773 149.024183 
L 239.442569 149.024183 
L 239.442569 148.27051 
L 239.828284 148.27051 
L 239.828284 147.516837 
L 239.947749 147.516837 
L 240.017048 146.00949 
L 240.077876 146.00949 
L 240.077876 145.255817 
L 240.1906 145.255817 
L 240.232243 142.241124 
L 240.452869 142.241124 
L 240.454989 140.733778 
L 240.941491 140.733778 
L 241.043668 139.226431 
L 241.346578 139.226431 
L 241.346578 138.472758 
L 241.54646 138.472758 
L 241.54646 137.719085 
L 241.712449 137.719085 
L 241.712449 136.965412 
L 241.846086 136.965412 
L 241.880633 135.458065 
L 241.958399 135.458065 
L 242.00399 133.197046 
L 242.199798 133.197046 
L 242.287595 130.182353 
L 242.369779 130.182353 
L 242.369779 129.42868 
L 242.938953 129.42868 
L 242.938953 128.675007 
L 243.096017 128.675007 
L 243.202964 126.413987 
L 243.300016 126.413987 
L 243.300016 125.660314 
L 243.417753 125.660314 
L 243.417753 124.906641 
L 243.676 124.906641 
L 243.766817 123.399294 
L 244.051585 123.399294 
L 244.121183 121.138275 
L 244.252147 121.138275 
L 244.268013 119.630928 
L 244.422127 119.630928 
L 244.529154 118.123582 
L 244.573883 118.123582 
L 244.573883 117.369908 
L 244.743863 117.369908 
L 244.743863 116.616235 
L 244.971174 116.616235 
L 244.984798 114.355216 
L 245.105012 114.355216 
L 245.205638 112.094196 
L 245.449401 112.094196 
L 245.464131 110.58685 
L 245.622952 110.58685 
L 245.72401 109.079503 
L 245.783393 109.079503 
L 245.889393 106.06481 
L 245.962059 106.06481 
L 245.975641 104.557464 
L 246.092942 104.557464 
L 246.18376 102.296444 
L 246.375405 102.296444 
L 246.433928 99.281752 
L 246.581503 99.281752 
L 246.684955 97.774405 
L 246.737285 97.774405 
L 246.797977 95.513386 
L 246.903239 95.513386 
L 246.971529 93.252366 
L 247.020724 93.252366 
L 247.035871 91.74502 
L 247.194275 91.74502 
L 247.276718 89.484 
L 247.357607 89.484 
L 247.367535 87.976654 
L 247.501095 87.976654 
L 247.501095 87.22298 
L 247.69643 87.22298 
L 247.69643 86.469307 
L 247.86873 86.469307 
L 247.86873 85.715634 
L 248.100204 85.715634 
L 248.191021 84.208288 
L 248.27021 84.208288 
L 248.348821 82.700941 
L 248.486277 82.700941 
L 248.486277 81.947268 
L 248.692216 81.947268 
L 248.789634 80.439922 
L 248.808013 80.439922 
L 248.849098 78.932575 
L 249.11137 78.932575 
L 249.214609 76.671556 
L 249.305426 76.671556 
L 249.305426 75.917882 
L 249.553444 75.917882 
L 249.553444 75.164209 
L 249.767317 75.164209 
L 249.87518 72.149516 
L 250.039302 72.149516 
L 250.039302 71.395843 
L 250.160396 71.395843 
L 250.188681 69.888497 
L 250.279498 69.888497 
L 250.279498 69.134824 
L 250.780694 69.134824 
L 250.780694 68.38115 
L 251.081075 68.38115 
L 251.184424 66.120131 
L 251.201135 66.120131 
L 251.201135 65.366458 
L 251.555869 65.366458 
L 251.555869 64.612784 
L 251.70233 64.612784 
L 251.70233 63.859111 
L 252.119388 63.859111 
L 252.119388 63.105438 
L 252.269378 63.105438 
L 252.360195 61.598092 
L 252.852252 61.598092 
L 252.915801 59.337072 
L 253.236773 59.337072 
L 253.266689 57.829725 
L 253.558509 57.829725 
L 253.663261 55.568706 
L 253.696844 55.568706 
L 253.787661 54.061359 
L 253.928222 54.061359 
L 253.972811 52.554013 
L 254.171736 52.554013 
L 254.171736 51.80034 
L 254.288856 51.80034 
L 254.386072 50.292993 
L 254.493472 50.292993 
L 254.493472 49.53932 
L 254.644566 49.53932 
L 254.644566 48.785647 
L 254.901614 48.785647 
L 254.901614 48.031974 
L 255.156586 48.031974 
L 255.156586 47.278301 
L 255.980072 47.278301 
L 255.980072 46.524627 
L 256.391776 46.524627 
L 256.438421 44.263608 
L 256.696915 44.263608 
L 256.760157 42.756261 
L 257.018651 42.756261 
L 257.094477 41.248915 
L 257.309996 41.248915 
L 257.309996 40.495242 
L 258.06855 40.495242 
L 258.06855 39.741569 
L 258.449071 39.741569 
L 258.449071 38.987895 
L 258.770807 38.987895 
L 258.770807 38.234222 
L 258.990186 38.234222 
L 258.990186 37.480549 
L 260.149247 37.480549 
L 260.181458 35.973203 
L 260.493957 35.973203 
L 260.493957 35.219529 
L 260.667508 35.219529 
L 260.667508 34.465856 
L 261.576712 34.465856 
L 261.576712 33.712183 
L 265.517178 33.712183 
L 265.517178 32.95851 
L 266.169569 32.95851 
L 266.169569 32.204837 
L 271.057627 32.204837 
L 271.057627 31.451163 
L 275.32082 31.451163 
L 275.32082 30.69749 
L 278.002206 30.69749 
L 278.002206 29.943817 
L 289.526636 29.943817 
L 289.526636 29.190144 
L 301.488151 29.190144 
L 301.488151 28.436471 
L 307.347384 28.436471 
L 307.347384 27.682797 
L 312.078962 27.682797 
L 312.078962 26.929124 
L 319.583762 26.929124 
L 319.583762 26.175451 
L 321.559752 26.175451 
L 321.559752 25.421778 
L 322.300406 25.421778 
L 322.391223 23.914431 
L 322.892419 23.914431 
L 322.892419 23.160758 
L 323.394478 23.160758 
L 323.394478 22.407085 
L 324.406899 22.407085 
L 324.406899 21.653412 
L 330.180275 21.653412 
L 330.180275 20.899739 
L 330.972633 20.899739 
L 330.972633 20.146065 
L 331.146185 20.146065 
L 331.146185 19.392392 
L 332.891217 19.392392 
L 332.982035 17.885046 
L 333.48323 17.885046 
L 333.48323 17.131373 
L 334.065367 17.131373 
L 334.065367 16.377699 
L 335.900093 16.377699 
L 335.900093 15.624026 
L 336.912514 15.624026 
L 336.912514 14.870353 
L 337.175027 14.870353 
L 337.175027 14.11668 
L 340.396017 14.11668 
L 340.486834 12.609333 
L 340.771086 12.609333 
L 340.771086 11.85566 
L 340.988029 11.85566 
L 340.988029 11.101987 
L 343.478248 11.101987 
L 343.478248 10.348314 
L 343.6518 10.348314 
L 343.6518 9.594641 
L 348.275885 9.594641 
L 348.275885 8.840967 
L 357.987281 8.840967 
L 358.078099 7.333621 
L 358.579294 7.333621 
L 358.579294 6.579948 
L 365.86715 6.579948 
L 365.86715 5.826275 
L 453.192 5.826275 
L 453.192 5.826275 
" clip-path="url(#p9a086e7707)" style="fill: none; stroke: #000000; stroke-width: 3; stroke-linecap: square"/>
   </g>
   <g id="line2d_34">
    <path clip-path="url(#p9a086e7707)" style="fill: none; stroke: #000000; stroke-width: 3; stroke-linecap: square"/>
   </g>
   <g id="line2d_35">
    <path d="M 34.16 288.453725 
L 53.067025 288.453725 
L 53.067025 287.700052 
L 62.367908 287.700052 
L 62.367908 286.946379 
L 64.790665 286.946379 
L 64.790665 286.192706 
L 67.072162 286.192706 
L 67.072162 285.439033 
L 76.373045 285.439033 
L 76.373045 284.685359 
L 78.795802 284.685359 
L 78.795802 283.931686 
L 106.34193 283.931686 
L 106.34193 283.178013 
L 110.665093 283.178013 
L 110.665093 282.42434 
L 111.539361 282.42434 
L 111.539361 281.670667 
L 111.726229 281.670667 
L 111.726229 280.916993 
L 116.214603 280.916993 
L 116.214603 280.16332 
L 117.004575 280.16332 
L 117.004575 279.409647 
L 119.287854 279.409647 
L 119.287854 278.655974 
L 120.537766 278.655974 
L 120.537766 277.902301 
L 121.327738 277.902301 
L 121.412034 276.394954 
L 122.202006 276.394954 
L 122.202006 275.641281 
L 125.731366 275.641281 
L 125.731366 274.887608 
L 128.588737 274.887608 
L 128.588737 274.133935 
L 130.11832 274.133935 
L 130.11832 273.380261 
L 130.305167 273.380261 
L 130.305167 272.626588 
L 131.011494 272.626588 
L 131.011494 271.872915 
L 134.62833 271.872915 
L 134.62833 271.119242 
L 135.502598 271.119242 
L 135.502598 270.365569 
L 139.419203 270.365569 
L 139.419203 269.611895 
L 141.84196 269.611895 
L 141.84196 268.858222 
L 156.424965 268.858222 
L 156.424965 268.104549 
L 165.725848 268.104549 
L 165.725848 267.350876 
L 166.991995 267.350876 
L 166.991995 266.597203 
L 168.148606 266.597203 
L 168.148606 265.843529 
L 174.625469 265.843529 
L 174.625469 265.089856 
L 176.292878 265.089856 
L 176.292878 264.336183 
L 177.025373 264.336183 
L 177.025373 263.58251 
L 177.947058 263.58251 
L 177.947058 262.828837 
L 178.715635 262.828837 
L 178.715635 262.075163 
L 181.859681 262.075163 
L 181.859681 261.32149 
L 183.926352 261.32149 
L 183.926352 260.567817 
L 186.326256 260.567817 
L 186.34911 259.060471 
L 188.749013 259.060471 
L 188.777524 257.553124 
L 190.201576 257.553124 
L 190.201576 256.799451 
L 191.160564 256.799451 
L 191.160564 256.045778 
L 193.583321 256.045778 
L 193.583321 255.292105 
L 197.487278 255.292105 
L 197.487278 254.538431 
L 200.226994 254.538431 
L 200.283357 253.031085 
L 201.873788 253.031085 
L 201.873788 252.277412 
L 204.655348 252.277412 
L 204.745733 250.016392 
L 206.054076 250.016392 
L 206.054076 249.262719 
L 206.721696 249.262719 
L 206.721696 248.509046 
L 207.334872 248.509046 
L 207.438446 247.001699 
L 207.512696 247.001699 
L 207.512696 246.248026 
L 209.149393 246.248026 
L 209.149393 245.494353 
L 209.453358 245.494353 
L 209.453358 244.74068 
L 209.574313 244.74068 
L 209.574313 243.987007 
L 210.15603 243.987007 
L 210.15603 243.233333 
L 210.946003 243.233333 
L 210.946003 242.47966 
L 211.688527 242.47966 
L 211.688527 241.725987 
L 211.899205 241.725987 
L 211.899205 240.972314 
L 212.698803 240.972314 
L 212.781218 238.711294 
L 213.786373 238.711294 
L 213.786373 237.957621 
L 214.007398 237.957621 
L 214.007398 237.203948 
L 214.680765 237.203948 
L 214.77115 234.189255 
L 215.08417 234.189255 
L 215.08417 233.435582 
L 215.926749 233.435582 
L 215.926749 232.681908 
L 216.502093 232.681908 
L 216.502093 231.928235 
L 216.716721 231.928235 
L 216.716721 231.174562 
L 216.860015 231.174562 
L 216.860015 230.420889 
L 217.360289 230.420889 
L 217.463863 228.913542 
L 217.763016 228.913542 
L 217.804268 227.406196 
L 218.393908 227.406196 
L 218.393908 226.652523 
L 219.053615 226.652523 
L 219.053615 225.89885 
L 219.17481 225.89885 
L 219.17481 225.145176 
L 219.478775 225.145176 
L 219.478775 224.391503 
L 220.544525 224.391503 
L 220.544525 223.63783 
L 221.175468 223.63783 
L 221.265852 220.623137 
L 221.713944 220.623137 
L 221.713944 219.869464 
L 222.72422 219.869464 
L 222.806635 217.608444 
L 223.201188 217.608444 
L 223.201188 216.854771 
L 223.81179 216.854771 
L 223.854992 215.347425 
L 223.958566 215.347425 
L 224.028085 213.840078 
L 224.093828 213.840078 
L 224.118469 212.332732 
L 224.246595 212.332732 
L 224.246595 211.579059 
L 224.591752 211.579059 
L 224.591752 210.825386 
L 224.867221 210.825386 
L 224.867221 210.071712 
L 225.471702 210.071712 
L 225.471702 209.318039 
L 225.646026 209.318039 
L 225.669512 207.05702 
L 225.973478 207.05702 
L 226.05095 205.549673 
L 226.339317 205.549673 
L 226.367441 204.042327 
L 226.707609 204.042327 
L 226.811183 202.53498 
L 227.063899 202.53498 
L 227.170825 201.027634 
L 228.100202 201.027634 
L 228.208647 199.520288 
L 228.284739 199.520288 
L 228.284739 198.766614 
L 228.522129 198.766614 
L 228.522129 198.012941 
L 228.826095 198.012941 
L 228.826095 197.259268 
L 229.218923 197.259268 
L 229.301338 194.244575 
L 229.402377 194.244575 
L 229.486657 192.737229 
L 229.957656 192.737229 
L 230.017313 191.229882 
L 230.306492 191.229882 
L 230.395896 188.968863 
L 230.725827 188.968863 
L 230.725827 188.21519 
L 231.061264 188.21519 
L 231.07157 186.707843 
L 231.177407 186.707843 
L 231.177407 185.200497 
L 231.491219 185.200497 
L 231.5842 182.939477 
L 231.604347 182.939477 
L 231.673849 181.432131 
L 232.07154 181.432131 
L 232.153955 178.417438 
L 232.291321 178.417438 
L 232.291321 176.910092 
L 232.606009 176.910092 
L 232.706996 175.402745 
L 232.934948 175.402745 
L 232.934948 174.649072 
L 233.15911 174.649072 
L 233.15911 173.895399 
L 233.284674 173.895399 
L 233.316961 172.388052 
L 233.40661 172.388052 
L 233.507387 170.880706 
L 233.57313 170.880706 
L 233.597772 169.373359 
L 233.82091 169.373359 
L 233.82091 168.619686 
L 233.937338 168.619686 
L 233.937338 167.866013 
L 234.048861 167.866013 
L 234.048861 167.11234 
L 234.162097 167.11234 
L 234.162097 166.358667 
L 234.327211 166.358667 
L 234.327211 165.604993 
L 234.543831 165.604993 
L 234.619136 164.097647 
L 234.708785 164.097647 
L 234.799297 161.836627 
L 234.946909 161.836627 
L 235.051252 160.329281 
L 235.150746 160.329281 
L 235.150746 159.575608 
L 235.27601 159.575608 
L 235.27601 158.821935 
L 235.684577 158.821935 
L 235.684577 158.068261 
L 236.039547 158.068261 
L 236.039547 157.314588 
L 236.186911 157.314588 
L 236.290485 154.299895 
L 236.456463 154.299895 
L 236.46533 152.792549 
L 236.883507 152.792549 
L 236.908171 151.285203 
L 237.195343 151.285203 
L 237.304489 149.777856 
L 237.359393 149.777856 
L 237.449042 147.516837 
L 237.570376 147.516837 
L 237.649059 146.00949 
L 237.696916 146.00949 
L 237.696916 145.255817 
L 238.001431 145.255817 
L 238.022085 143.748471 
L 238.185682 143.748471 
L 238.185682 142.994797 
L 238.305397 142.994797 
L 238.345168 141.487451 
L 238.531998 141.487451 
L 238.531998 140.733778 
L 238.697854 140.733778 
L 238.697854 139.980105 
L 238.81083 139.980105 
L 238.81083 139.226431 
L 239.204782 139.226431 
L 239.204782 138.472758 
L 239.437757 138.472758 
L 239.437757 137.719085 
L 239.97633 137.719085 
L 240.085221 135.458065 
L 240.105705 135.458065 
L 240.105705 134.704392 
L 240.267196 134.704392 
L 240.267196 133.950719 
L 240.518885 133.950719 
L 240.540566 132.443373 
L 240.643155 132.443373 
L 240.643155 131.689699 
L 240.925939 131.689699 
L 240.925939 130.936026 
L 241.318828 130.936026 
L 241.406621 129.42868 
L 241.49627 129.42868 
L 241.573326 127.16766 
L 241.633257 127.16766 
L 241.738477 124.906641 
L 241.771738 124.906641 
L 241.771738 124.152967 
L 241.960177 124.152967 
L 241.960177 123.399294 
L 242.196378 123.399294 
L 242.196378 122.645621 
L 242.368837 122.645621 
L 242.368837 121.891948 
L 242.53858 121.891948 
L 242.638412 119.630928 
L 242.853267 119.630928 
L 242.955468 116.616235 
L 243.2917 116.616235 
L 243.2917 115.862562 
L 243.582602 115.862562 
L 243.582602 115.108889 
L 244.068168 115.108889 
L 244.091803 112.847869 
L 244.29612 112.847869 
L 244.40649 111.340523 
L 244.416504 111.340523 
L 244.416504 110.58685 
L 244.531494 110.58685 
L 244.531494 109.833176 
L 244.973166 109.833176 
L 245.068359 108.32583 
L 245.206477 108.32583 
L 245.29851 106.06481 
L 245.34043 106.06481 
L 245.34043 105.311137 
L 245.523269 105.311137 
L 245.621391 103.050118 
L 245.849343 103.050118 
L 245.92532 101.542771 
L 246.432364 101.542771 
L 246.432364 100.789098 
L 246.642651 100.789098 
L 246.642651 100.035425 
L 246.758624 100.035425 
L 246.851733 98.528078 
L 247.076492 98.528078 
L 247.076492 97.774405 
L 247.318325 97.774405 
L 247.318325 97.020732 
L 247.551747 97.020732 
L 247.551747 96.267059 
L 247.737974 96.267059 
L 247.817635 94.006039 
L 248.269343 94.006039 
L 248.269343 93.252366 
L 248.538076 93.252366 
L 248.570527 90.991346 
L 248.852764 90.991346 
L 248.852764 90.237673 
L 249.058088 90.237673 
L 249.10497 88.730327 
L 249.277213 88.730327 
L 249.370858 86.469307 
L 249.568079 86.469307 
L 249.568079 85.715634 
L 249.822566 85.715634 
L 249.822566 84.961961 
L 249.943277 84.961961 
L 249.943277 84.208288 
L 250.067665 84.208288 
L 250.067665 83.454614 
L 250.295616 83.454614 
L 250.295616 82.700941 
L 250.611311 82.700941 
L 250.611311 81.947268 
L 250.802891 81.947268 
L 250.802891 81.193595 
L 250.984719 81.193595 
L 251.081787 78.932575 
L 251.14208 78.932575 
L 251.231729 77.425229 
L 251.298007 77.425229 
L 251.298007 76.671556 
L 251.522765 76.671556 
L 251.522765 75.917882 
L 251.69997 75.917882 
L 251.69997 75.164209 
L 251.956055 75.164209 
L 251.990837 73.656863 
L 252.24151 73.656863 
L 252.24151 72.90319 
L 253.031483 72.90319 
L 253.031483 72.149516 
L 253.551244 72.149516 
L 253.558286 70.64217 
L 253.817131 70.64217 
L 253.817131 69.888497 
L 254.26884 69.888497 
L 254.26884 69.134824 
L 254.708625 69.134824 
L 254.708625 68.38115 
L 255.057585 68.38115 
L 255.160036 66.873804 
L 255.249685 66.873804 
L 255.249685 66.120131 
L 256.01965 66.120131 
L 256.109299 64.612784 
L 256.252625 64.612784 
L 256.342274 63.105438 
L 256.666468 63.105438 
L 256.666468 62.351765 
L 257.638122 62.351765 
L 257.638122 61.598092 
L 258.507069 61.598092 
L 258.507069 60.844418 
L 258.726581 60.844418 
L 258.775046 59.337072 
L 258.864694 59.337072 
L 258.864694 58.583399 
L 259.586196 58.583399 
L 259.586196 57.829725 
L 259.819171 57.829725 
L 259.819171 57.076052 
L 260.620803 57.076052 
L 260.620803 56.322379 
L 260.857392 56.322379 
L 260.857392 55.568706 
L 261.647364 55.568706 
L 261.647364 54.815033 
L 261.883227 54.815033 
L 261.972876 53.307686 
L 262.341591 53.307686 
L 262.341591 52.554013 
L 262.661091 52.554013 
L 262.7372 51.046667 
L 264.815361 51.046667 
L 264.815361 50.292993 
L 265.449773 50.292993 
L 265.449773 49.53932 
L 265.969176 49.53932 
L 265.969176 48.785647 
L 266.332075 48.785647 
L 266.332075 48.031974 
L 268.381482 48.031974 
L 268.381482 47.278301 
L 269.236231 47.278301 
L 269.236231 46.524627 
L 270.493476 46.524627 
L 270.493476 45.770954 
L 271.283448 45.770954 
L 271.283448 45.017281 
L 272.609873 45.017281 
L 272.609873 44.263608 
L 273.399846 44.263608 
L 273.399846 43.509935 
L 274.45299 43.509935 
L 274.542639 42.002588 
L 274.688035 42.002588 
L 274.688035 41.248915 
L 274.947956 41.248915 
L 274.947956 40.495242 
L 275.478007 40.495242 
L 275.478007 39.741569 
L 275.841849 39.741569 
L 275.841849 38.987895 
L 276.422221 38.987895 
L 276.422221 38.234222 
L 276.631821 38.234222 
L 276.631821 37.480549 
L 278.019536 37.480549 
L 278.019536 36.726876 
L 278.254155 36.726876 
L 278.254155 35.973203 
L 279.044127 35.973203 
L 279.044127 35.219529 
L 284.130907 35.219529 
L 284.130907 34.465856 
L 284.30523 34.465856 
L 284.30523 33.712183 
L 284.58404 33.712183 
L 284.58404 32.95851 
L 286.700438 32.95851 
L 286.700438 32.204837 
L 288.778599 32.204837 
L 288.778599 31.451163 
L 289.932413 31.451163 
L 289.932413 30.69749 
L 290.790823 30.69749 
L 290.790823 29.943817 
L 292.344719 29.943817 
L 292.344719 29.190144 
L 294.698751 29.190144 
L 294.698751 28.436471 
L 297.825176 28.436471 
L 297.825176 27.682797 
L 298.635534 27.682797 
L 298.635534 26.929124 
L 298.926401 26.929124 
L 298.926401 26.175451 
L 300.663496 26.175451 
L 300.663496 25.421778 
L 301.453468 25.421778 
L 301.453468 24.668105 
L 308.655642 24.668105 
L 308.655642 23.914431 
L 314.75406 23.914431 
L 314.75406 23.160758 
L 334.962288 23.160758 
L 334.962288 22.407085 
L 340.700052 22.407085 
L 340.700052 21.653412 
L 345.529317 21.653412 
L 345.529317 20.899739 
L 346.47077 20.899739 
L 346.47077 20.146065 
L 353.162792 20.146065 
L 353.162792 19.392392 
L 355.562695 19.392392 
L 355.562695 18.638719 
L 360.397003 18.638719 
L 360.397003 17.885046 
L 374.960526 17.885046 
L 374.960526 17.131373 
L 379.114548 17.131373 
L 379.114548 16.377699 
L 382.785532 16.377699 
L 382.785532 15.624026 
L 391.401413 15.624026 
L 391.401413 14.870353 
L 396.300339 14.870353 
L 396.300339 14.11668 
L 401.037497 14.11668 
L 401.037497 13.363007 
L 403.153895 13.363007 
L 403.153895 12.609333 
L 404.009025 12.609333 
L 404.009025 11.85566 
L 404.183348 11.85566 
L 404.183348 11.101987 
L 405.232056 11.101987 
L 405.232056 10.348314 
L 406.38587 10.348314 
L 406.38587 9.594641 
L 408.798176 9.594641 
L 408.798176 8.840967 
L 414.576869 8.840967 
L 414.576869 8.087294 
L 418.513652 8.087294 
L 418.513652 7.333621 
L 418.804519 7.333621 
L 418.804519 6.579948 
L 431.207517 6.579948 
L 431.207517 5.826275 
L 453.192 5.826275 
L 453.192 5.826275 
" clip-path="url(#p9a086e7707)" style="fill: none; stroke: #00bfbf; stroke-width: 3; stroke-linecap: square"/>
   </g>
   <g id="line2d_36">
    <path clip-path="url(#p9a086e7707)" style="fill: none; stroke: #00bfbf; stroke-width: 3; stroke-linecap: square"/>
   </g>
   <g id="line2d_37">
    <path d="M 34.16 288.453725 
L 140.249542 288.453725 
L 140.249542 287.700052 
L 141.066806 287.700052 
L 141.066806 286.946379 
L 156.519589 286.946379 
L 156.519589 286.192706 
L 166.424148 286.192706 
L 166.424148 285.439033 
L 167.402375 285.439033 
L 167.402375 284.685359 
L 168.265018 284.685359 
L 168.265018 283.931686 
L 169.831935 283.931686 
L 169.831935 283.178013 
L 171.521921 283.178013 
L 171.521921 282.42434 
L 175.143497 282.42434 
L 175.143497 281.670667 
L 175.96076 281.670667 
L 175.96076 280.916993 
L 183.180914 280.916993 
L 183.180914 280.16332 
L 183.559194 280.16332 
L 183.559194 279.409647 
L 183.998178 279.409647 
L 183.998178 278.655974 
L 184.290404 278.655974 
L 184.290404 277.902301 
L 189.898185 277.902301 
L 189.898185 277.148627 
L 190.715449 277.148627 
L 190.715449 276.394954 
L 191.413543 276.394954 
L 191.413543 275.641281 
L 193.293795 275.641281 
L 193.293795 274.887608 
L 195.241204 274.887608 
L 195.241204 274.133935 
L 195.858772 274.133935 
L 195.858772 273.380261 
L 197.082073 273.380261 
L 197.082073 272.626588 
L 197.949666 272.626588 
L 197.949666 271.872915 
L 198.648991 271.872915 
L 198.648991 271.119242 
L 199.450961 271.119242 
L 199.450961 270.365569 
L 202.296329 270.365569 
L 202.296329 269.611895 
L 202.999745 269.611895 
L 202.999745 268.858222 
L 205.606482 268.858222 
L 205.606482 268.104549 
L 206.168232 268.104549 
L 206.168232 267.350876 
L 206.415875 267.350876 
L 206.415875 266.597203 
L 206.667258 266.597203 
L 206.667258 265.843529 
L 207.701838 265.843529 
L 207.701838 265.089856 
L 207.84211 265.089856 
L 207.84211 264.336183 
L 208.423463 264.336183 
L 208.423463 263.58251 
L 209.567956 263.58251 
L 209.567956 262.828837 
L 209.772771 262.828837 
L 209.772771 262.075163 
L 209.900403 262.075163 
L 209.998271 259.814144 
L 210.333747 259.814144 
L 210.333747 259.060471 
L 210.590035 259.060471 
L 210.590035 258.306797 
L 211.082544 258.306797 
L 211.175004 256.799451 
L 211.288667 256.799451 
L 211.288667 256.045778 
L 211.657049 256.045778 
L 211.657049 255.292105 
L 211.83914 255.292105 
L 211.83914 254.538431 
L 212.37625 254.538431 
L 212.37625 253.784758 
L 212.899413 253.784758 
L 212.899413 253.031085 
L 213.22635 253.031085 
L 213.22635 252.277412 
L 213.406058 252.277412 
L 213.469019 250.016392 
L 213.641941 250.016392 
L 213.641941 249.262719 
L 214.453293 249.262719 
L 214.453293 248.509046 
L 215.203344 248.509046 
L 215.203344 247.755373 
L 215.830117 247.755373 
L 215.830117 247.001699 
L 216.512824 247.001699 
L 216.512824 246.248026 
L 217.051017 246.248026 
L 217.051017 245.494353 
L 217.670987 245.494353 
L 217.687676 243.987007 
L 218.537864 243.987007 
L 218.537864 243.233333 
L 219.184358 243.233333 
L 219.237904 241.725987 
L 219.413521 241.725987 
L 219.413521 240.972314 
L 219.745968 240.972314 
L 219.753182 239.464967 
L 220.92811 239.464967 
L 221.02057 237.957621 
L 221.134233 237.957621 
L 221.170563 236.450275 
L 221.502615 236.450275 
L 221.502615 235.696601 
L 222.525398 235.696601 
L 222.525398 234.942928 
L 222.744978 234.942928 
L 222.744978 234.189255 
L 223.071915 234.189255 
L 223.071915 233.435582 
L 223.266105 233.435582 
L 223.314584 231.928235 
L 223.487506 231.928235 
L 223.487506 231.174562 
L 224.366268 231.174562 
L 224.466445 229.667216 
L 224.767184 229.667216 
L 224.767184 228.913542 
L 224.958103 228.913542 
L 225.04891 227.406196 
L 225.641296 227.406196 
L 225.641296 226.652523 
L 225.933186 226.652523 
L 226.042818 224.391503 
L 226.372533 224.391503 
L 226.372533 223.63783 
L 226.798973 223.63783 
L 226.798973 222.884157 
L 227.133316 222.884157 
L 227.221776 221.37681 
L 227.367142 221.37681 
L 227.367142 220.623137 
L 227.547385 220.623137 
L 227.547385 219.869464 
L 227.667881 219.869464 
L 227.706802 217.608444 
L 227.863319 217.608444 
L 227.863319 216.854771 
L 228.000328 216.854771 
L 228.007541 215.347425 
L 228.18775 215.347425 
L 228.18775 214.593752 
L 228.36589 214.593752 
L 228.36589 213.840078 
L 228.881731 213.840078 
L 228.974191 212.332732 
L 229.087853 212.332732 
L 229.182469 210.825386 
L 229.27323 210.825386 
L 229.27493 209.318039 
L 229.388592 209.318039 
L 229.456235 207.05702 
L 229.605678 207.05702 
L 229.612891 205.549673 
L 229.756974 205.549673 
L 229.776619 204.042327 
L 230.165369 204.042327 
L 230.165369 203.288654 
L 230.383024 203.288654 
L 230.383024 202.53498 
L 230.698599 202.53498 
L 230.787819 198.012941 
L 230.880279 198.012941 
L 230.880279 197.259268 
L 230.993942 197.259268 
L 231.025536 194.998248 
L 231.219725 194.998248 
L 231.326275 192.737229 
L 231.362324 192.737229 
L 231.441127 191.229882 
L 231.520464 191.229882 
L 231.607922 188.968863 
L 231.741866 188.968863 
L 231.741866 188.21519 
L 231.88104 188.21519 
L 231.88104 187.461516 
L 232.604688 187.461516 
L 232.604688 186.707843 
L 232.843621 186.707843 
L 232.931625 185.200497 
L 232.965163 185.200497 
L 233.00253 183.69315 
L 233.125814 183.69315 
L 233.174294 182.185804 
L 233.303269 182.185804 
L 233.348103 179.924784 
L 233.441544 179.924784 
L 233.473706 178.417438 
L 233.668056 178.417438 
L 233.668056 177.663765 
L 233.79434 177.663765 
L 233.801024 176.156418 
L 233.939046 176.156418 
L 234.026604 174.649072 
L 234.18309 174.649072 
L 234.18309 173.895399 
L 234.568259 173.895399 
L 234.568259 173.141725 
L 234.726157 173.141725 
L 234.776742 170.127033 
L 234.908619 170.127033 
L 234.908619 169.373359 
L 235.026353 169.373359 
L 235.026353 168.619686 
L 235.233279 168.619686 
L 235.233279 167.866013 
L 235.625643 167.866013 
L 235.625643 167.11234 
L 235.848048 167.11234 
L 235.848048 166.358667 
L 236.205153 166.358667 
L 236.30409 164.097647 
L 236.383158 164.097647 
L 236.472029 162.590301 
L 236.867223 162.590301 
L 236.945192 160.329281 
L 237.032748 160.329281 
L 237.074148 158.821935 
L 237.302298 158.821935 
L 237.401234 156.560915 
L 237.459265 156.560915 
L 237.480303 155.053569 
L 237.685777 155.053569 
L 237.685777 154.299895 
L 237.818745 154.299895 
L 237.893699 152.792549 
L 238.044325 152.792549 
L 238.129892 150.531529 
L 238.385328 150.531529 
L 238.43414 149.024183 
L 238.58598 149.024183 
L 238.641066 147.516837 
L 238.743878 147.516837 
L 238.790144 145.255817 
L 239.326444 145.255817 
L 239.36773 142.994797 
L 239.564285 142.994797 
L 239.660444 140.733778 
L 239.701696 140.733778 
L 239.735944 139.226431 
L 240.153206 139.226431 
L 240.216632 137.719085 
L 240.500437 137.719085 
L 240.500437 136.965412 
L 240.757007 136.965412 
L 240.833088 135.458065 
L 240.881039 135.458065 
L 240.881039 134.704392 
L 241.045149 134.704392 
L 241.045149 133.950719 
L 241.156951 133.950719 
L 241.250351 132.443373 
L 241.477585 132.443373 
L 241.542566 130.936026 
L 241.616687 130.936026 
L 241.616687 130.182353 
L 241.866335 130.182353 
L 241.956813 128.675007 
L 242.050254 128.675007 
L 242.093149 127.16766 
L 242.276766 127.16766 
L 242.276766 126.413987 
L 242.409734 126.413987 
L 242.459987 123.399294 
L 242.578855 123.399294 
L 242.635314 121.138275 
L 242.713832 121.138275 
L 242.713832 120.384601 
L 242.942438 120.384601 
L 242.942438 119.630928 
L 243.109484 119.630928 
L 243.176969 118.123582 
L 243.308888 118.123582 
L 243.334867 115.862562 
L 243.676 115.862562 
L 243.694169 114.355216 
L 244.314492 114.355216 
L 244.314492 113.601542 
L 244.671597 113.601542 
L 244.770533 112.094196 
L 244.791314 112.094196 
L 244.849602 110.58685 
L 245.049069 110.58685 
L 245.14251 109.079503 
L 245.369022 109.079503 
L 245.474409 107.572157 
L 245.499191 107.572157 
L 245.507414 105.311137 
L 245.719604 105.311137 
L 245.72757 103.803791 
L 245.931117 103.803791 
L 245.931117 103.050118 
L 246.258541 103.050118 
L 246.269225 101.542771 
L 246.427123 101.542771 
L 246.427123 100.789098 
L 246.571553 100.789098 
L 246.615646 99.281752 
L 246.714583 99.281752 
L 246.793651 97.774405 
L 246.991885 97.774405 
L 246.991885 97.020732 
L 247.31227 97.020732 
L 247.31227 96.267059 
L 247.443241 96.267059 
L 247.443241 95.513386 
L 247.598309 95.513386 
L 247.632904 94.006039 
L 248.021655 94.006039 
L 248.126306 90.991346 
L 248.202387 90.991346 
L 248.242306 89.484 
L 248.436634 89.484 
L 248.537854 87.22298 
L 248.574019 87.22298 
L 248.61965 83.454614 
L 249.264228 83.454614 
L 249.339451 81.947268 
L 249.464207 81.947268 
L 249.55999 80.439922 
L 250.070356 80.439922 
L 250.146437 78.178902 
L 250.563699 78.178902 
L 250.657135 75.917882 
L 251.045299 75.917882 
L 251.045299 75.164209 
L 251.204388 75.164209 
L 251.29783 73.656863 
L 251.354835 73.656863 
L 251.354835 72.90319 
L 251.524342 72.90319 
L 251.524342 72.149516 
L 251.657309 72.149516 
L 251.657309 71.395843 
L 251.88289 71.395843 
L 251.967424 69.134824 
L 252.02718 69.134824 
L 252.02718 68.38115 
L 252.160613 68.38115 
L 252.271273 66.120131 
L 252.368324 66.120131 
L 252.424544 63.859111 
L 252.582442 63.859111 
L 252.648387 62.351765 
L 252.944022 62.351765 
L 252.989348 60.844418 
L 253.431819 60.844418 
L 253.431819 60.090745 
L 253.813632 60.090745 
L 253.848168 58.583399 
L 253.940852 58.583399 
L 253.940852 57.829725 
L 254.104662 57.829725 
L 254.112143 56.322379 
L 254.784892 56.322379 
L 254.810336 54.815033 
L 255.255125 54.815033 
L 255.255125 54.061359 
L 255.458328 54.061359 
L 255.458328 53.307686 
L 255.67906 53.307686 
L 255.67906 52.554013 
L 255.884902 52.554013 
L 255.92565 51.046667 
L 256.283228 51.046667 
L 256.351809 49.53932 
L 256.70875 49.53932 
L 256.70875 48.785647 
L 256.836742 48.785647 
L 256.862181 47.278301 
L 257.350481 47.278301 
L 257.402377 45.770954 
L 257.70589 45.770954 
L 257.70589 45.017281 
L 258.026434 45.017281 
L 258.124098 42.756261 
L 258.225382 42.756261 
L 258.225382 42.002588 
L 258.652799 42.002588 
L 258.703051 40.495242 
L 259.223365 40.495242 
L 259.223365 39.741569 
L 259.691015 39.741569 
L 259.691015 38.987895 
L 259.970483 38.987895 
L 259.970483 38.234222 
L 260.269968 38.234222 
L 260.269968 37.480549 
L 260.473787 37.480549 
L 260.473787 36.726876 
L 261.469237 36.726876 
L 261.469237 35.973203 
L 261.791471 35.973203 
L 261.791471 35.219529 
L 262.817024 35.219529 
L 262.817024 34.465856 
L 265.276978 34.465856 
L 265.382 32.95851 
L 265.974342 32.95851 
L 265.974342 32.204837 
L 267.472895 32.204837 
L 267.472895 31.451163 
L 267.815212 31.451163 
L 267.815212 30.69749 
L 268.186507 30.69749 
L 268.186507 29.943817 
L 269.38213 29.943817 
L 269.406319 28.436471 
L 270.079068 28.436471 
L 270.079068 27.682797 
L 272.522973 27.682797 
L 272.522973 26.929124 
L 273.314396 26.929124 
L 273.418274 25.421778 
L 273.997227 25.421778 
L 273.997227 24.668105 
L 275.129711 24.668105 
L 275.129711 23.914431 
L 277.225066 23.914431 
L 277.225066 23.160758 
L 277.946692 23.160758 
L 277.946692 22.407085 
L 278.134617 22.407085 
L 278.134617 21.653412 
L 279.975487 21.653412 
L 280.031666 20.146065 
L 281.542405 20.146065 
L 281.542405 19.392392 
L 283.109388 19.392392 
L 283.109388 18.638719 
L 287.042438 18.638719 
L 287.042438 17.885046 
L 288.061093 17.885046 
L 288.061093 17.131373 
L 295.269663 17.131373 
L 295.269663 16.377699 
L 299.906252 16.377699 
L 299.906252 15.624026 
L 301.799505 15.624026 
L 301.799505 14.870353 
L 307.631352 14.870353 
L 307.631352 14.11668 
L 314.326633 14.11668 
L 314.326633 13.363007 
L 316.759337 13.363007 
L 316.759337 12.609333 
L 326.827588 12.609333 
L 326.827588 11.85566 
L 327.034513 11.85566 
L 327.034513 11.101987 
L 331.502931 11.101987 
L 331.502931 10.348314 
L 344.072508 10.348314 
L 344.072508 9.594641 
L 344.745257 9.594641 
L 344.745257 8.840967 
L 348.084462 8.840967 
L 348.084462 8.087294 
L 348.663416 8.087294 
L 348.663416 7.333621 
L 357.775577 7.333621 
L 357.775577 6.579948 
L 369.935852 6.579948 
L 369.935852 5.826275 
L 453.192 5.826275 
L 453.192 5.826275 
" clip-path="url(#p9a086e7707)" style="fill: none; stroke: #bf00bf; stroke-width: 3; stroke-linecap: square"/>
   </g>
   <g id="line2d_38">
    <path clip-path="url(#p9a086e7707)" style="fill: none; stroke: #bf00bf; stroke-width: 3; stroke-linecap: square"/>
   </g>
   <g id="line2d_39">
    <path d="M 34.16 288.453725 
L 67.414528 288.453725 
L 67.414528 287.700052 
L 102.705093 287.700052 
L 102.705093 286.946379 
L 133.640875 286.946379 
L 133.640875 286.192706 
L 138.606465 286.192706 
L 138.606465 285.439033 
L 139.595327 285.439033 
L 139.595327 284.685359 
L 143.912509 284.685359 
L 143.912509 283.931686 
L 145.642252 283.931686 
L 145.642252 283.178013 
L 161.874458 283.178013 
L 161.874458 282.42434 
L 171.742941 282.42434 
L 171.742941 281.670667 
L 173.89703 281.670667 
L 173.89703 280.916993 
L 174.206193 280.916993 
L 174.206193 280.16332 
L 174.885891 280.16332 
L 174.885891 279.409647 
L 175.620418 279.409647 
L 175.620418 278.655974 
L 179.203074 278.655974 
L 179.203074 277.902301 
L 182.685194 277.902301 
L 182.685194 277.148627 
L 186.6178 277.148627 
L 186.6178 276.394954 
L 186.81116 276.394954 
L 186.81116 275.641281 
L 188.679515 275.641281 
L 188.679515 274.887608 
L 190.796633 274.887608 
L 190.796633 274.133935 
L 192.85308 274.133935 
L 192.85308 273.380261 
L 194.836623 273.380261 
L 194.836623 272.626588 
L 197.165023 272.626588 
L 197.165023 271.872915 
L 200.000823 271.872915 
L 200.000823 271.119242 
L 200.591714 271.119242 
L 200.591714 270.365569 
L 203.396726 270.365569 
L 203.396726 269.611895 
L 204.832812 269.611895 
L 204.832812 268.858222 
L 205.821673 268.858222 
L 205.821673 268.104549 
L 206.245407 268.104549 
L 206.245407 267.350876 
L 206.784002 267.350876 
L 206.784002 266.597203 
L 207.033506 266.597203 
L 207.033506 265.843529 
L 207.263861 265.843529 
L 207.263861 265.089856 
L 208.130046 265.089856 
L 208.130046 264.336183 
L 208.33137 264.336183 
L 208.37445 262.828837 
L 208.582371 262.828837 
L 208.613018 261.32149 
L 209.096453 261.32149 
L 209.096453 260.567817 
L 210.041422 260.567817 
L 210.138856 259.060471 
L 210.366734 259.060471 
L 210.366734 258.306797 
L 210.910983 258.306797 
L 210.910983 257.553124 
L 211.060345 257.553124 
L 211.060345 256.799451 
L 211.282999 256.799451 
L 211.282999 256.045778 
L 211.470035 256.045778 
L 211.566968 254.538431 
L 211.590648 254.538431 
L 211.590648 253.784758 
L 211.709589 253.784758 
L 211.779933 252.277412 
L 211.90295 252.277412 
L 211.90295 251.523739 
L 212.153182 251.523739 
L 212.209191 250.016392 
L 212.267563 250.016392 
L 212.267563 249.262719 
L 213.374925 249.262719 
L 213.442676 247.001699 
L 213.771304 247.001699 
L 213.822622 245.494353 
L 213.892651 245.494353 
L 213.925142 243.987007 
L 214.045247 243.987007 
L 214.0568 242.47966 
L 215.600367 242.47966 
L 215.668981 240.972314 
L 216.773824 240.972314 
L 216.834189 239.464967 
L 217.559341 239.464967 
L 217.559341 238.711294 
L 217.685549 238.711294 
L 217.685549 237.957621 
L 217.82305 237.957621 
L 217.82305 237.203948 
L 217.975759 237.203948 
L 217.975759 236.450275 
L 218.658462 236.450275 
L 218.658462 235.696601 
L 218.859786 235.696601 
L 218.908498 233.435582 
L 219.009871 233.435582 
L 219.110787 231.928235 
L 219.203232 231.928235 
L 219.203232 231.174562 
L 219.531123 231.174562 
L 219.624869 228.913542 
L 219.724484 228.913542 
L 219.724484 228.159869 
L 220.336902 228.159869 
L 220.336902 227.406196 
L 220.662214 227.406196 
L 220.662214 226.652523 
L 221.071587 226.652523 
L 221.071587 225.89885 
L 221.57848 225.89885 
L 221.592839 223.63783 
L 221.886128 223.63783 
L 221.886128 222.884157 
L 221.998452 222.884157 
L 222.095384 220.623137 
L 222.140233 220.623137 
L 222.140233 219.869464 
L 222.395812 219.869464 
L 222.504672 218.362118 
L 222.563043 218.362118 
L 222.563043 217.608444 
L 222.681598 217.608444 
L 222.681598 216.854771 
L 223.643455 216.854771 
L 223.722337 215.347425 
L 223.903341 215.347425 
L 223.971092 213.840078 
L 224.118102 213.840078 
L 224.188132 212.332732 
L 224.280451 212.332732 
L 224.357003 210.071712 
L 224.481774 210.071712 
L 224.585216 207.05702 
L 224.732775 207.05702 
L 224.732775 206.303346 
L 224.890854 206.303346 
L 224.992612 204.796 
L 225.246857 204.796 
L 225.246857 204.042327 
L 225.683503 204.042327 
L 225.683503 203.288654 
L 225.895847 203.288654 
L 225.964462 201.027634 
L 226.087197 201.027634 
L 226.087197 200.273961 
L 226.240011 200.273961 
L 226.240011 199.520288 
L 226.418719 199.520288 
L 226.421017 198.012941 
L 226.746329 198.012941 
L 226.746329 197.259268 
L 226.900884 197.259268 
L 226.900884 196.505595 
L 227.210749 196.505595 
L 227.292399 194.998248 
L 227.338878 194.998248 
L 227.338878 194.244575 
L 227.62044 194.244575 
L 227.717372 191.229882 
L 227.970242 191.229882 
L 227.993727 189.722536 
L 228.100805 189.722536 
L 228.159527 187.461516 
L 228.213965 187.461516 
L 228.303586 185.95417 
L 228.588786 185.95417 
L 228.647158 183.69315 
L 228.705824 183.69315 
L 228.752579 181.432131 
L 228.892695 181.432131 
L 228.909992 179.924784 
L 229.046116 179.924784 
L 229.046116 179.171111 
L 229.217641 179.171111 
L 229.253622 177.663765 
L 229.406926 177.663765 
L 229.474098 176.156418 
L 229.52533 176.156418 
L 229.59308 174.649072 
L 229.749565 174.649072 
L 229.836185 172.388052 
L 229.894556 172.388052 
L 229.962381 170.880706 
L 230.127188 170.880706 
L 230.207204 168.619686 
L 230.270029 168.619686 
L 230.272246 167.11234 
L 230.424841 167.11234 
L 230.510314 164.85132 
L 230.888573 164.85132 
L 230.946945 163.343974 
L 231.038996 163.343974 
L 231.077268 161.082954 
L 231.232357 161.082954 
L 231.307072 159.575608 
L 231.388326 159.575608 
L 231.449615 158.068261 
L 231.519644 158.068261 
L 231.626086 156.560915 
L 231.634204 156.560915 
L 231.67224 155.053569 
L 231.835527 155.053569 
L 231.878607 153.546222 
L 231.979961 153.546222 
L 232.086528 151.285203 
L 232.106238 151.285203 
L 232.106238 150.531529 
L 232.502004 150.531529 
L 232.603837 147.516837 
L 232.626594 147.516837 
L 232.724628 144.502144 
L 232.785917 144.502144 
L 232.860889 141.487451 
L 232.979277 141.487451 
L 233.028052 139.226431 
L 233.100712 139.226431 
L 233.100712 138.472758 
L 233.221816 138.472758 
L 233.316847 135.458065 
L 233.358995 135.458065 
L 233.442292 133.197046 
L 233.505037 133.197046 
L 233.505037 132.443373 
L 233.835953 132.443373 
L 233.835953 131.689699 
L 234.279748 131.689699 
L 234.348363 130.182353 
L 234.564502 130.182353 
L 234.564502 129.42868 
L 234.847632 129.42868 
L 234.847632 128.675007 
L 234.974193 128.675007 
L 235.071126 126.413987 
L 235.237181 126.413987 
L 235.291387 124.152967 
L 235.35652 124.152967 
L 235.444958 122.645621 
L 235.488038 122.645621 
L 235.59428 121.138275 
L 235.65734 121.138275 
L 235.695959 119.630928 
L 235.780867 119.630928 
L 235.780867 118.877255 
L 235.974227 118.877255 
L 235.974227 118.123582 
L 236.210041 118.123582 
L 236.210041 117.369908 
L 236.421102 117.369908 
L 236.421102 116.616235 
L 236.594789 116.616235 
L 236.594789 115.862562 
L 236.8069 115.862562 
L 236.879083 113.601542 
L 236.946834 113.601542 
L 236.996246 112.094196 
L 237.105536 112.094196 
L 237.105536 111.340523 
L 237.285041 111.340523 
L 237.329386 109.833176 
L 237.560957 109.833176 
L 237.604658 108.32583 
L 237.717867 108.32583 
L 237.788047 106.818484 
L 237.834803 106.818484 
L 237.842582 105.311137 
L 237.969288 105.311137 
L 237.974919 103.803791 
L 238.173933 103.803791 
L 238.173933 103.050118 
L 238.330917 103.050118 
L 238.335845 101.542771 
L 238.556322 101.542771 
L 238.583623 100.035425 
L 238.680556 100.035425 
L 238.680556 99.281752 
L 239.26677 99.281752 
L 239.26677 98.528078 
L 240.102182 98.528078 
L 240.102182 97.774405 
L 240.470549 97.774405 
L 240.556264 95.513386 
L 240.70831 95.513386 
L 240.70831 94.759712 
L 241.170388 94.759712 
L 241.274632 92.498693 
L 241.494129 92.498693 
L 241.494129 91.74502 
L 241.708818 91.74502 
L 241.708818 90.991346 
L 241.846765 90.991346 
L 241.932078 88.730327 
L 242.074567 88.730327 
L 242.110275 87.22298 
L 242.39907 87.22298 
L 242.443416 85.715634 
L 242.571397 85.715634 
L 242.641578 84.208288 
L 242.688333 84.208288 
L 242.688333 83.454614 
L 242.828449 83.454614 
L 242.828449 82.700941 
L 243.189376 82.700941 
L 243.189376 81.947268 
L 243.409852 81.947268 
L 243.409852 81.193595 
L 244.643388 81.193595 
L 244.643388 80.439922 
L 244.799137 80.439922 
L 244.799137 79.686248 
L 245.012911 79.686248 
L 245.012911 78.932575 
L 245.32408 78.932575 
L 245.39813 77.425229 
L 245.56184 77.425229 
L 245.56184 76.671556 
L 245.940153 76.671556 
L 246.010333 75.164209 
L 246.057088 75.164209 
L 246.057088 74.410536 
L 246.184512 74.410536 
L 246.197205 72.90319 
L 246.377873 72.90319 
L 246.386992 71.395843 
L 246.558131 71.395843 
L 246.562348 69.888497 
L 246.759831 69.888497 
L 246.785609 66.873804 
L 246.963806 66.873804 
L 246.963806 66.120131 
L 247.252601 66.120131 
L 247.296946 64.612784 
L 248.246228 64.612784 
L 248.246228 63.859111 
L 248.692835 63.859111 
L 248.692835 63.105438 
L 248.911541 63.105438 
L 249.017734 60.844418 
L 249.754781 60.844418 
L 249.754781 60.090745 
L 249.931104 60.090745 
L 249.970665 58.583399 
L 250.143215 58.583399 
L 250.154364 57.076052 
L 250.332561 57.076052 
L 250.332561 56.322379 
L 250.621356 56.322379 
L 250.704175 54.061359 
L 251.570756 54.061359 
L 251.570756 53.307686 
L 251.764117 53.307686 
L 251.764117 52.554013 
L 251.998617 52.554013 
L 251.998617 51.80034 
L 252.191978 51.80034 
L 252.191978 51.046667 
L 253.632471 51.046667 
L 253.632471 50.292993 
L 253.848142 50.292993 
L 253.848142 49.53932 
L 254.060333 49.53932 
L 254.060333 48.785647 
L 254.746307 48.785647 
L 254.746307 48.031974 
L 254.939667 48.031974 
L 254.939667 47.278301 
L 256.808022 47.278301 
L 256.808022 46.524627 
L 257.02298 46.524627 
L 257.02298 45.770954 
L 259.079427 45.770954 
L 259.079427 45.017281 
L 260.158426 45.017281 
L 260.158426 44.263608 
L 260.912918 44.263608 
L 260.912918 43.509935 
L 261.06297 43.509935 
L 261.06297 42.756261 
L 265.54467 42.756261 
L 265.54467 42.002588 
L 265.715295 42.002588 
L 265.715295 41.248915 
L 265.908656 41.248915 
L 265.972532 39.741569 
L 266.22717 39.741569 
L 266.22717 38.987895 
L 266.367832 38.987895 
L 266.367832 38.234222 
L 266.585919 38.234222 
L 266.585919 37.480549 
L 267.777011 37.480549 
L 267.777011 36.726876 
L 268.666123 36.726876 
L 268.720221 35.219529 
L 269.024357 35.219529 
L 269.024357 34.465856 
L 271.080804 34.465856 
L 271.080804 33.712183 
L 272.895222 33.712183 
L 272.895222 32.95851 
L 273.010349 32.95851 
L 273.064347 31.451163 
L 273.886201 31.451163 
L 273.886201 30.69749 
L 274.407453 30.69749 
L 274.407453 29.943817 
L 274.888901 29.943817 
L 274.888901 29.190144 
L 275.082262 29.190144 
L 275.082262 28.436471 
L 276.950617 28.436471 
L 276.950617 27.682797 
L 278.228547 27.682797 
L 278.228547 26.929124 
L 278.534606 26.929124 
L 278.534606 26.175451 
L 279.233333 26.175451 
L 279.233333 25.421778 
L 279.68921 25.421778 
L 279.68921 24.668105 
L 282.412083 24.668105 
L 282.412083 23.914431 
L 285.011726 23.914431 
L 285.011726 23.160758 
L 285.915326 23.160758 
L 285.915326 22.407085 
L 287.662247 22.407085 
L 287.662247 21.653412 
L 288.862816 21.653412 
L 288.862816 20.899739 
L 289.476859 20.899739 
L 289.476859 20.146065 
L 289.92015 20.146065 
L 289.92015 19.392392 
L 290.657197 19.392392 
L 290.657197 18.638719 
L 297.303615 18.638719 
L 297.303615 17.885046 
L 297.588298 17.885046 
L 297.588298 17.131373 
L 299.644745 17.131373 
L 299.644745 16.377699 
L 301.060842 16.377699 
L 301.060842 15.624026 
L 301.628288 15.624026 
L 301.628288 14.870353 
L 303.831004 14.870353 
L 303.831004 14.11668 
L 306.447086 14.11668 
L 306.447086 13.363007 
L 306.792488 13.363007 
L 306.874947 11.85566 
L 309.304992 11.85566 
L 309.304992 11.101987 
L 309.622636 11.101987 
L 309.622636 10.348314 
L 313.575668 10.348314 
L 313.575668 9.594641 
L 315.832381 9.594641 
L 315.832381 8.840967 
L 320.591625 8.840967 
L 320.591625 8.087294 
L 329.765231 8.087294 
L 329.765231 7.333621 
L 337.868933 7.333621 
L 337.868933 6.579948 
L 344.396323 6.579948 
L 344.396323 5.826275 
L 453.192 5.826275 
L 453.192 5.826275 
" clip-path="url(#p9a086e7707)" style="fill: none; stroke: #ff0000; stroke-width: 3; stroke-linecap: square"/>
   </g>
   <g id="line2d_40">
    <path clip-path="url(#p9a086e7707)" style="fill: none; stroke: #ff0000; stroke-width: 3; stroke-linecap: square"/>
   </g>
   <g id="line2d_41">
    <path d="M 243.676 291.28 
L 243.676 3 
" clip-path="url(#p9a086e7707)" style="fill: none; stroke: #000000; stroke-width: 1.5; stroke-linecap: square"/>
   </g>
   <g id="line2d_42">
    <path d="M 34.16 147.14 
L 453.192 147.14 
" clip-path="url(#p9a086e7707)" style="fill: none; stroke-dasharray: 2,3.3; stroke-dashoffset: 0; stroke: #000000; stroke-width: 2"/>
   </g>
   <g id="patch_3">
    <path d="M 34.16 291.28 
L 34.16 3 
" style="fill: none; stroke: #000000; stroke-width: 0.8; stroke-linejoin: miter; stroke-linecap: square"/>
   </g>
   <g id="patch_4">
    <path d="M 453.192 291.28 
L 453.192 3 
" style="fill: none; stroke: #000000; stroke-width: 0.8; stroke-linejoin: miter; stroke-linecap: square"/>
   </g>
   <g id="patch_5">
    <path d="M 34.16 291.28 
L 453.192 291.28 
" style="fill: none; stroke: #000000; stroke-width: 0.8; stroke-linejoin: miter; stroke-linecap: square"/>
   </g>
   <g id="patch_6">
    <path d="M 34.16 3 
L 453.192 3 
" style="fill: none; stroke: #000000; stroke-width: 0.8; stroke-linejoin: miter; stroke-linecap: square"/>
   </g>
   <g id="text_6">
    <!-- f10-f14,20-D -->
    <g transform="translate(318.19261 285.5144)scale(0.2 -0.2)">
     <defs>
      <path id="DejaVuSans-34" d="M 2419 4116 
L 825 1625 
L 2419 1625 
L 2419 4116 
z
M 2253 4666 
L 3047 4666 
L 3047 1625 
L 3713 1625 
L 3713 1100 
L 3047 1100 
L 3047 0 
L 2419 0 
L 2419 1100 
L 313 1100 
L 313 1709 
L 2253 4666 
z
" transform="scale(0.015625)"/>
      <path id="DejaVuSans-2c" d="M 750 794 
L 1409 794 
L 1409 256 
L 897 -744 
L 494 -744 
L 750 256 
L 750 794 
z
" transform="scale(0.015625)"/>
      <path id="DejaVuSans-32" d="M 1228 531 
L 3431 531 
L 3431 0 
L 469 0 
L 469 531 
Q 828 903 1448 1529 
Q 2069 2156 2228 2338 
Q 2531 2678 2651 2914 
Q 2772 3150 2772 3378 
Q 2772 3750 2511 3984 
Q 2250 4219 1831 4219 
Q 1534 4219 1204 4116 
Q 875 4013 500 3803 
L 500 4441 
Q 881 4594 1212 4672 
Q 1544 4750 1819 4750 
Q 2544 4750 2975 4387 
Q 3406 4025 3406 3419 
Q 3406 3131 3298 2873 
Q 3191 2616 2906 2266 
Q 2828 2175 2409 1742 
Q 1991 1309 1228 531 
z
" transform="scale(0.015625)"/>
      <path id="DejaVuSans-44" d="M 1259 4147 
L 1259 519 
L 2022 519 
Q 2988 519 3436 956 
Q 3884 1394 3884 2338 
Q 3884 3275 3436 3711 
Q 2988 4147 2022 4147 
L 1259 4147 
z
M 628 4666 
L 1925 4666 
Q 3281 4666 3915 4102 
Q 4550 3538 4550 2338 
Q 4550 1131 3912 565 
Q 3275 0 1925 0 
L 628 0 
L 628 4666 
z
" transform="scale(0.015625)"/>
     </defs>
     <use xlink:href="#DejaVuSans-66"/>
     <use xlink:href="#DejaVuSans-31" x="35.205078"/>
     <use xlink:href="#DejaVuSans-30" x="98.828125"/>
     <use xlink:href="#DejaVuSans-2d" x="162.451172"/>
     <use xlink:href="#DejaVuSans-66" x="198.535156"/>
     <use xlink:href="#DejaVuSans-31" x="233.740234"/>
     <use xlink:href="#DejaVuSans-34" x="297.363281"/>
     <use xlink:href="#DejaVuSans-2c" x="360.986328"/>
     <use xlink:href="#DejaVuSans-32" x="392.773438"/>
     <use xlink:href="#DejaVuSans-30" x="456.396484"/>
     <use xlink:href="#DejaVuSans-2d" x="520.019531"/>
     <use xlink:href="#DejaVuSans-44" x="556.103516"/>
    </g>
   </g>
   <g id="text_7">
    <!-- v2.6.1.158 -->
    <g style="fill: #808080" transform="translate(216.861937 286.317512)scale(0.1 -0.1)">
     <defs>
      <path id="DejaVuSans-2e" d="M 684 794 
L 1344 794 
L 1344 0 
L 684 0 
L 684 794 
z
" transform="scale(0.015625)"/>
      <path id="DejaVuSans-36" d="M 2113 2584 
Q 1688 2584 1439 2293 
Q 1191 2003 1191 1497 
Q 1191 994 1439 701 
Q 1688 409 2113 409 
Q 2538 409 2786 701 
Q 3034 994 3034 1497 
Q 3034 2003 2786 2293 
Q 2538 2584 2113 2584 
z
M 3366 4563 
L 3366 3988 
Q 3128 4100 2886 4159 
Q 2644 4219 2406 4219 
Q 1781 4219 1451 3797 
Q 1122 3375 1075 2522 
Q 1259 2794 1537 2939 
Q 1816 3084 2150 3084 
Q 2853 3084 3261 2657 
Q 3669 2231 3669 1497 
Q 3669 778 3244 343 
Q 2819 -91 2113 -91 
Q 1303 -91 875 529 
Q 447 1150 447 2328 
Q 447 3434 972 4092 
Q 1497 4750 2381 4750 
Q 2619 4750 2861 4703 
Q 3103 4656 3366 4563 
z
" transform="scale(0.015625)"/>
      <path id="DejaVuSans-35" d="M 691 4666 
L 3169 4666 
L 3169 4134 
L 1269 4134 
L 1269 2991 
Q 1406 3038 1543 3061 
Q 1681 3084 1819 3084 
Q 2600 3084 3056 2656 
Q 3513 2228 3513 1497 
Q 3513 744 3044 326 
Q 2575 -91 1722 -91 
Q 1428 -91 1123 -41 
Q 819 9 494 109 
L 494 744 
Q 775 591 1075 516 
Q 1375 441 1709 441 
Q 2250 441 2565 725 
Q 2881 1009 2881 1497 
Q 2881 1984 2565 2268 
Q 2250 2553 1709 2553 
Q 1456 2553 1204 2497 
Q 953 2441 691 2322 
L 691 4666 
z
" transform="scale(0.015625)"/>
      <path id="DejaVuSans-38" d="M 2034 2216 
Q 1584 2216 1326 1975 
Q 1069 1734 1069 1313 
Q 1069 891 1326 650 
Q 1584 409 2034 409 
Q 2484 409 2743 651 
Q 3003 894 3003 1313 
Q 3003 1734 2745 1975 
Q 2488 2216 2034 2216 
z
M 1403 2484 
Q 997 2584 770 2862 
Q 544 3141 544 3541 
Q 544 4100 942 4425 
Q 1341 4750 2034 4750 
Q 2731 4750 3128 4425 
Q 3525 4100 3525 3541 
Q 3525 3141 3298 2862 
Q 3072 2584 2669 2484 
Q 3125 2378 3379 2068 
Q 3634 1759 3634 1313 
Q 3634 634 3220 271 
Q 2806 -91 2034 -91 
Q 1263 -91 848 271 
Q 434 634 434 1313 
Q 434 1759 690 2068 
Q 947 2378 1403 2484 
z
M 1172 3481 
Q 1172 3119 1398 2916 
Q 1625 2713 2034 2713 
Q 2441 2713 2670 2916 
Q 2900 3119 2900 3481 
Q 2900 3844 2670 4047 
Q 2441 4250 2034 4250 
Q 1625 4250 1398 4047 
Q 1172 3844 1172 3481 
z
" transform="scale(0.015625)"/>
     </defs>
     <use xlink:href="#DejaVuSans-76"/>
     <use xlink:href="#DejaVuSans-32" x="59.179688"/>
     <use xlink:href="#DejaVuSans-2e" x="122.802734"/>
     <use xlink:href="#DejaVuSans-36" x="154.589844"/>
     <use xlink:href="#DejaVuSans-2e" x="218.212891"/>
     <use xlink:href="#DejaVuSans-31" x="250"/>
     <use xlink:href="#DejaVuSans-2e" x="313.623047"/>
     <use xlink:href="#DejaVuSans-31" x="345.410156"/>
     <use xlink:href="#DejaVuSans-35" x="409.033203"/>
     <use xlink:href="#DejaVuSans-38" x="472.65625"/>
    </g>
   </g>
   <g id="legend_1">
    <g id="patch_7">
     <path d="M 48.16 136.425 
L 177.381875 136.425 
Q 181.381875 136.425 181.381875 132.425 
L 181.381875 17 
Q 181.381875 13 177.381875 13 
L 48.16 13 
Q 44.16 13 44.16 17 
L 44.16 132.425 
Q 44.16 136.425 48.16 136.425 
z
" style="fill: #ffffff; opacity: 0.2; stroke: #cccccc; stroke-linejoin: miter"/>
    </g>
    <g id="line2d_43">
     <path d="M 52.16 29.196875 
L 72.16 29.196875 
L 92.16 29.196875 
" style="fill: none; stroke: #000000; stroke-width: 3; stroke-linecap: square"/>
    </g>
    <g id="text_8">
     <!-- 1: 5/5 -->
     <g transform="translate(108.16 36.196875)scale(0.2 -0.2)">
      <defs>
       <path id="DejaVuSans-3a" d="M 750 794 
L 1409 794 
L 1409 0 
L 750 0 
L 750 794 
z
M 750 3309 
L 1409 3309 
L 1409 2516 
L 750 2516 
L 750 3309 
z
" transform="scale(0.015625)"/>
       <path id="DejaVuSans-2f" d="M 1625 4666 
L 2156 4666 
L 531 -594 
L 0 -594 
L 1625 4666 
z
" transform="scale(0.015625)"/>
      </defs>
      <use xlink:href="#DejaVuSans-31"/>
      <use xlink:href="#DejaVuSans-3a" x="63.623047"/>
      <use xlink:href="#DejaVuSans-20" x="97.314453"/>
      <use xlink:href="#DejaVuSans-35" x="129.101562"/>
      <use xlink:href="#DejaVuSans-2f" x="192.724609"/>
      <use xlink:href="#DejaVuSans-35" x="226.416016"/>
     </g>
    </g>
    <g id="line2d_44">
     <path d="M 52.16 58.553125 
L 72.16 58.553125 
L 92.16 58.553125 
" style="fill: none; stroke: #00bfbf; stroke-width: 3; stroke-linecap: square"/>
    </g>
    <g id="text_9">
     <!-- -1: 5/5 -->
     <g transform="translate(108.16 65.553125)scale(0.2 -0.2)">
      <use xlink:href="#DejaVuSans-2d"/>
      <use xlink:href="#DejaVuSans-31" x="36.083984"/>
      <use xlink:href="#DejaVuSans-3a" x="99.707031"/>
      <use xlink:href="#DejaVuSans-20" x="133.398438"/>
      <use xlink:href="#DejaVuSans-35" x="165.185547"/>
      <use xlink:href="#DejaVuSans-2f" x="228.808594"/>
      <use xlink:href="#DejaVuSans-35" x="262.5"/>
     </g>
    </g>
    <g id="line2d_45">
     <path d="M 52.16 87.909375 
L 72.16 87.909375 
L 92.16 87.909375 
" style="fill: none; stroke: #bf00bf; stroke-width: 3; stroke-linecap: square"/>
    </g>
    <g id="text_10">
     <!-- -4: 5/5 -->
     <g transform="translate(108.16 94.909375)scale(0.2 -0.2)">
      <use xlink:href="#DejaVuSans-2d"/>
      <use xlink:href="#DejaVuSans-34" x="36.083984"/>
      <use xlink:href="#DejaVuSans-3a" x="99.707031"/>
      <use xlink:href="#DejaVuSans-20" x="133.398438"/>
      <use xlink:href="#DejaVuSans-35" x="165.185547"/>
      <use xlink:href="#DejaVuSans-2f" x="228.808594"/>
      <use xlink:href="#DejaVuSans-35" x="262.5"/>
     </g>
    </g>
    <g id="line2d_46">
     <path d="M 52.16 117.265625 
L 72.16 117.265625 
L 92.16 117.265625 
" style="fill: none; stroke: #ff0000; stroke-width: 3; stroke-linecap: square"/>
    </g>
    <g id="text_11">
     <!-- -8: 5/5 -->
     <g transform="translate(108.16 124.265625)scale(0.2 -0.2)">
      <use xlink:href="#DejaVuSans-2d"/>
      <use xlink:href="#DejaVuSans-38" x="36.083984"/>
      <use xlink:href="#DejaVuSans-3a" x="99.707031"/>
      <use xlink:href="#DejaVuSans-20" x="133.398438"/>
      <use xlink:href="#DejaVuSans-35" x="165.185547"/>
      <use xlink:href="#DejaVuSans-2f" x="228.808594"/>
      <use xlink:href="#DejaVuSans-35" x="262.5"/>
     </g>
    </g>
   </g>
  </g>
 </g>
 <defs>
  <clipPath id="p9a086e7707">
   <rect x="34.16" y="3" width="419.032" height="288.28"/>
  </clipPath>
 </defs>
</svg>
