<?xml version="1.0" encoding="utf-8" standalone="no"?>
<!DOCTYPE svg PUBLIC "-//W3C//DTD SVG 1.1//EN"
  "http://www.w3.org/Graphics/SVG/1.1/DTD/svg11.dtd">
<svg xmlns:xlink="http://www.w3.org/1999/xlink" width="460.8pt" height="345.6pt" viewBox="0 0 460.8 345.6" xmlns="http://www.w3.org/2000/svg" version="1.1">
 <metadata>
  <rdf:RDF xmlns:dc="http://purl.org/dc/elements/1.1/" xmlns:cc="http://creativecommons.org/ns#" xmlns:rdf="http://www.w3.org/1999/02/22-rdf-syntax-ns#">
   <cc:Work>
    <dc:type rdf:resource="http://purl.org/dc/dcmitype/StillImage"/>
    <dc:date>2023-04-03T10:12:33.277885</dc:date>
    <dc:format>image/svg+xml</dc:format>
    <dc:creator>
     <cc:Agent>
      <dc:title>Matplotlib v3.5.2, https://matplotlib.org/</dc:title>
     </cc:Agent>
    </dc:creator>
   </cc:Work>
  </rdf:RDF>
 </metadata>
 <defs>
  <style type="text/css">*{stroke-linejoin: round; stroke-linecap: butt}</style>
 </defs>
 <g id="figure_1">
  <g id="patch_1">
   <path d="M 0 345.6 
L 460.8 345.6 
L 460.8 0 
L 0 0 
z
" style="fill: #ffffff"/>
  </g>
  <g id="axes_1">
   <g id="patch_2">
    <path d="M 62.208 293.76 
L 460.8 293.76 
L 460.8 3.456 
L 62.208 3.456 
z
" style="fill: #ffffff"/>
   </g>
   <g id="line2d_1"/>
   <g id="line2d_2"/>
   <g id="line2d_3"/>
   <g id="line2d_4"/>
   <g id="line2d_5"/>
   <g id="line2d_6"/>
   <g id="line2d_7"/>
   <g id="line2d_8"/>
   <g id="line2d_9">
    <path d="M 293.495006 293.76 
L 293.495006 289.927604 
L 308.210395 289.927604 
L 308.210395 286.095208 
L 313.165386 286.095208 
L 313.165386 282.262812 
L 313.83018 282.262812 
L 313.83018 278.430416 
L 314.307988 278.430416 
L 314.307988 274.59802 
L 314.551425 274.59802 
L 314.551425 270.765624 
L 314.978221 270.765624 
L 314.978221 266.933228 
L 315.834756 266.933228 
L 315.871256 259.268436 
L 316.785897 259.268436 
L 316.785897 255.43604 
L 317.498876 255.43604 
L 317.498876 251.603644 
L 317.764002 251.603644 
L 317.764002 247.771248 
L 317.994418 247.771248 
L 317.994418 243.938851 
L 318.229846 243.938851 
L 318.229846 240.106455 
L 318.550082 240.106455 
L 318.591901 232.441663 
L 318.701845 232.441663 
L 318.701845 228.609267 
L 319.85687 228.609267 
L 319.85687 224.776871 
L 320.108901 224.776871 
L 320.108901 220.944475 
L 329.85342 220.944475 
L 329.85342 217.112079 
L 331.991563 217.112079 
L 331.991563 213.279683 
L 334.196047 213.279683 
L 334.196047 209.447287 
L 335.957976 209.447287 
L 335.957976 205.614891 
L 337.205697 205.614891 
L 337.205697 201.782495 
L 337.577098 201.782495 
L 337.577098 197.950099 
L 338.921355 197.950099 
L 338.921355 194.117703 
L 339.606829 194.117703 
L 339.622179 186.452911 
L 340.801098 186.452911 
L 340.801098 182.620515 
L 341.216096 182.620515 
L 341.216096 178.788119 
L 341.523602 178.788119 
L 341.523602 174.955723 
L 341.651307 174.955723 
L 341.651307 171.123327 
L 341.950366 171.123327 
L 341.950366 167.290931 
L 342.062469 167.290931 
L 342.062469 163.458535 
L 342.652336 163.458535 
L 342.652336 159.626139 
L 343.306602 159.626139 
L 343.306602 155.793743 
L 343.944317 155.793743 
L 343.944317 151.961347 
L 344.218379 151.961347 
L 344.218379 148.12895 
L 345.134214 148.12895 
L 345.134214 144.296554 
L 346.70569 144.296554 
L 346.70569 140.464158 
L 349.668683 140.464158 
L 349.668683 136.631762 
L 349.795258 136.631762 
L 349.861575 128.96697 
L 350.117716 128.96697 
L 350.117716 125.134574 
L 350.255769 125.134574 
L 350.336526 117.469782 
L 351.092805 117.469782 
L 351.111226 109.80499 
L 354.519667 109.80499 
L 354.519667 105.972594 
L 354.750852 105.972594 
L 354.750852 102.140198 
L 356.232838 102.140198 
L 356.298855 94.475406 
L 356.826514 94.475406 
L 356.826514 90.64301 
L 360.892278 90.64301 
L 360.892278 86.810614 
L 366.735796 86.810614 
L 366.735796 82.978218 
L 367.477097 82.978218 
L 367.477097 79.145822 
L 368.110948 79.145822 
L 368.110948 75.313426 
L 368.271835 75.313426 
L 368.271835 71.48103 
L 369.796404 71.48103 
L 369.796404 67.648634 
L 370.968219 67.648634 
L 370.968219 63.816238 
L 423.276428 63.816238 
L 423.276428 59.983842 
L 426.470434 59.983842 
L 426.470434 56.151446 
L 430.30319 56.151446 
L 430.30319 52.31905 
L 433.214815 52.31905 
L 433.214815 48.486653 
L 437.654665 48.486653 
L 437.654665 44.654257 
L 440.093348 44.654257 
L 440.093348 40.821861 
L 441.240941 40.821861 
L 441.347535 33.157069 
L 441.40622 33.157069 
L 441.40622 29.324673 
L 441.762598 29.324673 
L 441.762598 25.492277 
L 443.438739 25.492277 
L 443.438739 21.659881 
L 443.949431 21.659881 
L 443.949431 17.827485 
L 444.207688 17.827485 
L 444.207688 13.995089 
L 444.96404 13.995089 
L 444.96404 10.162693 
L 445.471616 10.162693 
L 445.471616 6.330297 
L 445.471616 6.330297 
L 460.8 6.330297 
L 460.8 6.330297 
" clip-path="url(#pab4091a2ca)" style="fill: none; stroke: #f5deb3; stroke-width: 1.5; stroke-linecap: square"/>
   </g>
   <g id="line2d_10"/>
   <g id="line2d_11"/>
   <g id="line2d_12"/>
   <g id="line2d_13"/>
   <g id="line2d_14"/>
   <g id="line2d_15"/>
   <g id="line2d_16"/>
   <g id="line2d_17"/>
   <g id="line2d_18"/>
   <g id="line2d_19"/>
   <g id="line2d_20"/>
   <g id="line2d_21"/>
   <g id="line2d_22"/>
   <g id="line2d_23"/>
   <g id="line2d_24">
    <path d="M 304.600848 293.76 
L 304.600848 289.927604 
L 306.967309 289.927604 
L 306.997847 282.262812 
L 338.556804 282.262812 
L 338.656947 274.59802 
L 341.037086 274.59802 
L 341.037086 270.765624 
L 341.57019 270.765624 
L 341.57019 266.933228 
L 341.825359 266.933228 
L 341.825359 263.100832 
L 343.969516 263.100832 
L 343.969516 259.268436 
L 346.247036 259.268436 
L 346.247036 255.43604 
L 346.384027 255.43604 
L 346.384027 251.603644 
L 358.311166 251.603644 
L 358.311166 247.771248 
L 359.90237 247.771248 
L 359.90237 243.938851 
L 360.286218 243.938851 
L 360.286218 240.106455 
L 360.590329 240.106455 
L 360.590329 236.274059 
L 360.794949 236.274059 
L 360.794949 232.441663 
L 361.28911 232.441663 
L 361.3558 224.776871 
L 361.581818 224.776871 
L 361.581818 220.944475 
L 362.207727 220.944475 
L 362.272678 213.279683 
L 362.548854 213.279683 
L 362.548854 209.447287 
L 362.888758 209.447287 
L 362.888758 205.614891 
L 363.269877 205.614891 
L 363.269877 201.782495 
L 363.796929 201.782495 
L 363.796929 197.950099 
L 364.039243 197.950099 
L 364.068984 190.285307 
L 364.489972 190.285307 
L 364.489972 186.452911 
L 364.772805 186.452911 
L 364.875823 178.788119 
L 365.199382 178.788119 
L 365.199382 174.955723 
L 365.727641 174.955723 
L 365.793134 167.290931 
L 366.150105 167.290931 
L 366.150105 163.458535 
L 366.59108 163.458535 
L 366.597356 155.793743 
L 367.062673 155.793743 
L 367.062673 151.961347 
L 367.264824 151.961347 
L 367.264824 148.12895 
L 367.415624 148.12895 
L 367.518024 140.464158 
L 367.715874 140.464158 
L 367.778982 132.799366 
L 368.139002 132.799366 
L 368.177284 125.134574 
L 371.755092 125.134574 
L 371.755092 121.302178 
L 373.330007 121.302178 
L 373.330007 117.469782 
L 373.491572 117.469782 
L 373.491572 113.637386 
L 374.623651 113.637386 
L 374.623651 109.80499 
L 385.112228 109.80499 
L 385.112228 105.972594 
L 385.654033 105.972594 
L 385.654033 102.140198 
L 386.069166 102.140198 
L 386.069166 98.307802 
L 390.115517 98.307802 
L 390.115517 94.475406 
L 391.499627 94.475406 
L 391.499627 90.64301 
L 392.180036 90.64301 
L 392.180036 86.810614 
L 392.648882 86.810614 
L 392.648882 82.978218 
L 393.645196 82.978218 
L 393.645196 79.145822 
L 408.081216 79.145822 
L 408.081216 75.313426 
L 408.509604 75.313426 
L 408.509604 71.48103 
L 409.081534 71.48103 
L 409.081534 67.648634 
L 409.582388 67.648634 
L 409.582388 63.816238 
L 446.299227 63.816238 
L 446.299227 59.983842 
L 457.954613 59.983842 
L 457.954613 56.151446 
L 461.8 56.151446 
L 461.8 56.151446 
" clip-path="url(#pab4091a2ca)" style="fill: none; stroke: #f5deb3; stroke-width: 1.5; stroke-linecap: square"/>
   </g>
   <g id="line2d_25">
    <path d="M 355.207879 293.76 
L 355.207879 289.927604 
L 355.644599 289.927604 
L 355.644599 286.095208 
L 355.860164 286.095208 
L 355.860164 282.262812 
L 356.154628 282.262812 
L 356.154628 278.430416 
L 356.660662 278.430416 
L 356.660662 274.59802 
L 357.054385 274.59802 
L 357.054385 270.765624 
L 357.054385 270.765624 
L 357.054385 270.765624 
L 460.8 270.765624 
" clip-path="url(#pab4091a2ca)" style="fill: none; stroke: #f5deb3; stroke-width: 1.5; stroke-linecap: square"/>
   </g>
   <g id="line2d_26">
    <path d="M 383.581291 293.76 
L 383.581291 289.927604 
L 394.963913 289.927604 
L 394.963913 286.095208 
L 394.963913 286.095208 
L 394.963913 286.095208 
L 460.8 286.095208 
" clip-path="url(#pab4091a2ca)" style="fill: none; stroke: #f5deb3; stroke-width: 1.5; stroke-linecap: square"/>
   </g>
   <g id="line2d_27"/>
   <g id="line2d_28">
    <path d="M 375.284568 293.76 
L 375.284568 289.927604 
L 376.489603 289.927604 
L 376.489603 286.095208 
L 397.379822 286.095208 
L 397.379822 282.262812 
L 397.639519 282.262812 
L 397.639519 278.430416 
L 397.910664 278.430416 
L 397.910664 274.59802 
L 397.994317 274.59802 
L 397.994317 270.765624 
L 399.203923 270.765624 
L 399.203923 266.933228 
L 399.369832 266.933228 
L 399.369832 263.100832 
L 399.904809 263.100832 
L 399.904809 259.268436 
L 399.96702 259.268436 
L 399.96702 255.43604 
L 400.130826 255.43604 
L 400.130826 251.603644 
L 400.164783 251.603644 
L 400.164783 247.771248 
L 400.329561 247.771248 
L 400.329561 243.938851 
L 400.331227 243.938851 
L 400.331227 240.106455 
L 400.711208 240.106455 
L 400.711208 236.274059 
L 401.351665 236.274059 
L 401.351665 232.441663 
L 401.426439 232.441663 
L 401.426439 228.609267 
L 401.555069 228.609267 
L 401.555069 224.776871 
L 401.960948 224.776871 
L 401.960948 220.944475 
L 402.190661 220.944475 
L 402.190661 217.112079 
L 402.4805 217.112079 
L 402.4805 213.279683 
L 402.540369 213.279683 
L 402.540369 209.447287 
L 402.571084 209.447287 
L 402.571084 205.614891 
L 402.718533 205.614891 
L 402.718533 201.782495 
L 402.801196 201.782495 
L 402.801196 197.950099 
L 402.848346 197.950099 
L 402.848346 194.117703 
L 403.264944 194.117703 
L 403.264944 190.285307 
L 403.407073 190.285307 
L 403.407073 186.452911 
L 403.525069 186.452911 
L 403.525069 182.620515 
L 403.65682 182.620515 
L 403.65682 178.788119 
L 404.157907 178.788119 
L 404.157907 174.955723 
L 404.177969 174.955723 
L 404.177969 171.123327 
L 405.676823 171.123327 
L 405.676823 167.290931 
L 405.901412 167.290931 
L 405.901412 163.458535 
L 406.167373 163.458535 
L 406.167373 159.626139 
L 406.730348 159.626139 
L 406.730348 155.793743 
L 406.922912 155.793743 
L 406.922912 151.961347 
L 407.034238 151.961347 
L 407.034238 148.12895 
L 407.141929 148.12895 
L 407.141929 144.296554 
L 407.377372 144.296554 
L 407.377372 140.464158 
L 408.223642 140.464158 
L 408.223642 136.631762 
L 408.844577 136.631762 
L 408.844577 132.799366 
L 409.174266 132.799366 
L 409.174266 128.96697 
L 413.073043 128.96697 
L 413.073043 125.134574 
L 416.426794 125.134574 
L 416.426794 121.302178 
L 423.682968 121.302178 
L 423.682968 117.469782 
L 427.428054 117.469782 
L 427.428054 113.637386 
L 428.829539 113.637386 
L 428.829539 109.80499 
L 428.939363 109.80499 
L 428.939363 105.972594 
L 429.46615 105.972594 
L 429.46615 102.140198 
L 429.756967 102.140198 
L 429.756967 98.307802 
L 429.785807 98.307802 
L 429.785807 94.475406 
L 429.889421 94.475406 
L 429.889421 90.64301 
L 430.869746 90.64301 
L 430.869746 86.810614 
L 439.634865 86.810614 
L 439.634865 82.978218 
L 440.622098 82.978218 
L 440.622098 79.145822 
L 441.728178 79.145822 
L 441.728178 75.313426 
L 453.084997 75.313426 
L 453.084997 71.48103 
L 454.098747 71.48103 
L 454.098747 67.648634 
L 461.8 67.648634 
" clip-path="url(#pab4091a2ca)" style="fill: none; stroke: #f5deb3; stroke-width: 1.5; stroke-linecap: square"/>
   </g>
   <g id="line2d_29"/>
   <g id="line2d_30"/>
   <g id="matplotlib.axis_1">
    <g id="xtick_1">
     <g id="line2d_31">
      <path d="M 62.208 293.76 
L 62.208 3.456 
" clip-path="url(#pab4091a2ca)" style="fill: none; stroke: #b0b0b0; stroke-width: 0.8; stroke-linecap: square"/>
     </g>
     <g id="line2d_32">
      <defs>
       <path id="mc33cb1c823" d="M 0 0 
L 0 3.5 
" style="stroke: #000000; stroke-width: 0.8"/>
      </defs>
      <g>
       <use xlink:href="#mc33cb1c823" x="62.208" y="293.76" style="stroke: #000000; stroke-width: 0.8"/>
      </g>
     </g>
     <g id="text_1">
      <!-- 0 -->
      <g transform="translate(55.8455 315.956875)scale(0.2 -0.2)">
       <defs>
        <path id="DejaVuSans-30" d="M 2034 4250 
Q 1547 4250 1301 3770 
Q 1056 3291 1056 2328 
Q 1056 1369 1301 889 
Q 1547 409 2034 409 
Q 2525 409 2770 889 
Q 3016 1369 3016 2328 
Q 3016 3291 2770 3770 
Q 2525 4250 2034 4250 
z
M 2034 4750 
Q 2819 4750 3233 4129 
Q 3647 3509 3647 2328 
Q 3647 1150 3233 529 
Q 2819 -91 2034 -91 
Q 1250 -91 836 529 
Q 422 1150 422 2328 
Q 422 3509 836 4129 
Q 1250 4750 2034 4750 
z
" transform="scale(0.015625)"/>
       </defs>
       <use xlink:href="#DejaVuSans-30"/>
      </g>
     </g>
    </g>
    <g id="xtick_2">
     <g id="line2d_33">
      <path d="M 198.617911 293.76 
L 198.617911 3.456 
" clip-path="url(#pab4091a2ca)" style="fill: none; stroke: #b0b0b0; stroke-width: 0.8; stroke-linecap: square"/>
     </g>
     <g id="line2d_34">
      <g>
       <use xlink:href="#mc33cb1c823" x="198.617911" y="293.76" style="stroke: #000000; stroke-width: 0.8"/>
      </g>
     </g>
     <g id="text_2">
      <!-- 2 -->
      <g transform="translate(192.255411 315.956875)scale(0.2 -0.2)">
       <defs>
        <path id="DejaVuSans-32" d="M 1228 531 
L 3431 531 
L 3431 0 
L 469 0 
L 469 531 
Q 828 903 1448 1529 
Q 2069 2156 2228 2338 
Q 2531 2678 2651 2914 
Q 2772 3150 2772 3378 
Q 2772 3750 2511 3984 
Q 2250 4219 1831 4219 
Q 1534 4219 1204 4116 
Q 875 4013 500 3803 
L 500 4441 
Q 881 4594 1212 4672 
Q 1544 4750 1819 4750 
Q 2544 4750 2975 4387 
Q 3406 4025 3406 3419 
Q 3406 3131 3298 2873 
Q 3191 2616 2906 2266 
Q 2828 2175 2409 1742 
Q 1991 1309 1228 531 
z
" transform="scale(0.015625)"/>
       </defs>
       <use xlink:href="#DejaVuSans-32"/>
      </g>
     </g>
    </g>
    <g id="xtick_3">
     <g id="line2d_35">
      <path d="M 335.027823 293.76 
L 335.027823 3.456 
" clip-path="url(#pab4091a2ca)" style="fill: none; stroke: #b0b0b0; stroke-width: 0.8; stroke-linecap: square"/>
     </g>
     <g id="line2d_36">
      <g>
       <use xlink:href="#mc33cb1c823" x="335.027823" y="293.76" style="stroke: #000000; stroke-width: 0.8"/>
      </g>
     </g>
     <g id="text_3">
      <!-- 4 -->
      <g transform="translate(328.665323 315.956875)scale(0.2 -0.2)">
       <defs>
        <path id="DejaVuSans-34" d="M 2419 4116 
L 825 1625 
L 2419 1625 
L 2419 4116 
z
M 2253 4666 
L 3047 4666 
L 3047 1625 
L 3713 1625 
L 3713 1100 
L 3047 1100 
L 3047 0 
L 2419 0 
L 2419 1100 
L 313 1100 
L 313 1709 
L 2253 4666 
z
" transform="scale(0.015625)"/>
       </defs>
       <use xlink:href="#DejaVuSans-34"/>
      </g>
     </g>
    </g>
    <g id="text_4">
     <!-- log10 of FEvals / DIM -->
     <g transform="translate(156.430563 339.313125)scale(0.2 -0.2)">
      <defs>
       <path id="DejaVuSans-6c" d="M 603 4863 
L 1178 4863 
L 1178 0 
L 603 0 
L 603 4863 
z
" transform="scale(0.015625)"/>
       <path id="DejaVuSans-6f" d="M 1959 3097 
Q 1497 3097 1228 2736 
Q 959 2375 959 1747 
Q 959 1119 1226 758 
Q 1494 397 1959 397 
Q 2419 397 2687 759 
Q 2956 1122 2956 1747 
Q 2956 2369 2687 2733 
Q 2419 3097 1959 3097 
z
M 1959 3584 
Q 2709 3584 3137 3096 
Q 3566 2609 3566 1747 
Q 3566 888 3137 398 
Q 2709 -91 1959 -91 
Q 1206 -91 779 398 
Q 353 888 353 1747 
Q 353 2609 779 3096 
Q 1206 3584 1959 3584 
z
" transform="scale(0.015625)"/>
       <path id="DejaVuSans-67" d="M 2906 1791 
Q 2906 2416 2648 2759 
Q 2391 3103 1925 3103 
Q 1463 3103 1205 2759 
Q 947 2416 947 1791 
Q 947 1169 1205 825 
Q 1463 481 1925 481 
Q 2391 481 2648 825 
Q 2906 1169 2906 1791 
z
M 3481 434 
Q 3481 -459 3084 -895 
Q 2688 -1331 1869 -1331 
Q 1566 -1331 1297 -1286 
Q 1028 -1241 775 -1147 
L 775 -588 
Q 1028 -725 1275 -790 
Q 1522 -856 1778 -856 
Q 2344 -856 2625 -561 
Q 2906 -266 2906 331 
L 2906 616 
Q 2728 306 2450 153 
Q 2172 0 1784 0 
Q 1141 0 747 490 
Q 353 981 353 1791 
Q 353 2603 747 3093 
Q 1141 3584 1784 3584 
Q 2172 3584 2450 3431 
Q 2728 3278 2906 2969 
L 2906 3500 
L 3481 3500 
L 3481 434 
z
" transform="scale(0.015625)"/>
       <path id="DejaVuSans-31" d="M 794 531 
L 1825 531 
L 1825 4091 
L 703 3866 
L 703 4441 
L 1819 4666 
L 2450 4666 
L 2450 531 
L 3481 531 
L 3481 0 
L 794 0 
L 794 531 
z
" transform="scale(0.015625)"/>
       <path id="DejaVuSans-20" transform="scale(0.015625)"/>
       <path id="DejaVuSans-66" d="M 2375 4863 
L 2375 4384 
L 1825 4384 
Q 1516 4384 1395 4259 
Q 1275 4134 1275 3809 
L 1275 3500 
L 2222 3500 
L 2222 3053 
L 1275 3053 
L 1275 0 
L 697 0 
L 697 3053 
L 147 3053 
L 147 3500 
L 697 3500 
L 697 3744 
Q 697 4328 969 4595 
Q 1241 4863 1831 4863 
L 2375 4863 
z
" transform="scale(0.015625)"/>
       <path id="DejaVuSans-46" d="M 628 4666 
L 3309 4666 
L 3309 4134 
L 1259 4134 
L 1259 2759 
L 3109 2759 
L 3109 2228 
L 1259 2228 
L 1259 0 
L 628 0 
L 628 4666 
z
" transform="scale(0.015625)"/>
       <path id="DejaVuSans-45" d="M 628 4666 
L 3578 4666 
L 3578 4134 
L 1259 4134 
L 1259 2753 
L 3481 2753 
L 3481 2222 
L 1259 2222 
L 1259 531 
L 3634 531 
L 3634 0 
L 628 0 
L 628 4666 
z
" transform="scale(0.015625)"/>
       <path id="DejaVuSans-76" d="M 191 3500 
L 800 3500 
L 1894 563 
L 2988 3500 
L 3597 3500 
L 2284 0 
L 1503 0 
L 191 3500 
z
" transform="scale(0.015625)"/>
       <path id="DejaVuSans-61" d="M 2194 1759 
Q 1497 1759 1228 1600 
Q 959 1441 959 1056 
Q 959 750 1161 570 
Q 1363 391 1709 391 
Q 2188 391 2477 730 
Q 2766 1069 2766 1631 
L 2766 1759 
L 2194 1759 
z
M 3341 1997 
L 3341 0 
L 2766 0 
L 2766 531 
Q 2569 213 2275 61 
Q 1981 -91 1556 -91 
Q 1019 -91 701 211 
Q 384 513 384 1019 
Q 384 1609 779 1909 
Q 1175 2209 1959 2209 
L 2766 2209 
L 2766 2266 
Q 2766 2663 2505 2880 
Q 2244 3097 1772 3097 
Q 1472 3097 1187 3025 
Q 903 2953 641 2809 
L 641 3341 
Q 956 3463 1253 3523 
Q 1550 3584 1831 3584 
Q 2591 3584 2966 3190 
Q 3341 2797 3341 1997 
z
" transform="scale(0.015625)"/>
       <path id="DejaVuSans-73" d="M 2834 3397 
L 2834 2853 
Q 2591 2978 2328 3040 
Q 2066 3103 1784 3103 
Q 1356 3103 1142 2972 
Q 928 2841 928 2578 
Q 928 2378 1081 2264 
Q 1234 2150 1697 2047 
L 1894 2003 
Q 2506 1872 2764 1633 
Q 3022 1394 3022 966 
Q 3022 478 2636 193 
Q 2250 -91 1575 -91 
Q 1294 -91 989 -36 
Q 684 19 347 128 
L 347 722 
Q 666 556 975 473 
Q 1284 391 1588 391 
Q 1994 391 2212 530 
Q 2431 669 2431 922 
Q 2431 1156 2273 1281 
Q 2116 1406 1581 1522 
L 1381 1569 
Q 847 1681 609 1914 
Q 372 2147 372 2553 
Q 372 3047 722 3315 
Q 1072 3584 1716 3584 
Q 2034 3584 2315 3537 
Q 2597 3491 2834 3397 
z
" transform="scale(0.015625)"/>
       <path id="DejaVuSans-2f" d="M 1625 4666 
L 2156 4666 
L 531 -594 
L 0 -594 
L 1625 4666 
z
" transform="scale(0.015625)"/>
       <path id="DejaVuSans-44" d="M 1259 4147 
L 1259 519 
L 2022 519 
Q 2988 519 3436 956 
Q 3884 1394 3884 2338 
Q 3884 3275 3436 3711 
Q 2988 4147 2022 4147 
L 1259 4147 
z
M 628 4666 
L 1925 4666 
Q 3281 4666 3915 4102 
Q 4550 3538 4550 2338 
Q 4550 1131 3912 565 
Q 3275 0 1925 0 
L 628 0 
L 628 4666 
z
" transform="scale(0.015625)"/>
       <path id="DejaVuSans-49" d="M 628 4666 
L 1259 4666 
L 1259 0 
L 628 0 
L 628 4666 
z
" transform="scale(0.015625)"/>
       <path id="DejaVuSans-4d" d="M 628 4666 
L 1569 4666 
L 2759 1491 
L 3956 4666 
L 4897 4666 
L 4897 0 
L 4281 0 
L 4281 4097 
L 3078 897 
L 2444 897 
L 1241 4097 
L 1241 0 
L 628 0 
L 628 4666 
z
" transform="scale(0.015625)"/>
      </defs>
      <use xlink:href="#DejaVuSans-6c"/>
      <use xlink:href="#DejaVuSans-6f" x="27.783203"/>
      <use xlink:href="#DejaVuSans-67" x="88.964844"/>
      <use xlink:href="#DejaVuSans-31" x="152.441406"/>
      <use xlink:href="#DejaVuSans-30" x="216.064453"/>
      <use xlink:href="#DejaVuSans-20" x="279.6875"/>
      <use xlink:href="#DejaVuSans-6f" x="311.474609"/>
      <use xlink:href="#DejaVuSans-66" x="372.65625"/>
      <use xlink:href="#DejaVuSans-20" x="407.861328"/>
      <use xlink:href="#DejaVuSans-46" x="439.648438"/>
      <use xlink:href="#DejaVuSans-45" x="497.167969"/>
      <use xlink:href="#DejaVuSans-76" x="560.351562"/>
      <use xlink:href="#DejaVuSans-61" x="619.53125"/>
      <use xlink:href="#DejaVuSans-6c" x="680.810547"/>
      <use xlink:href="#DejaVuSans-73" x="708.59375"/>
      <use xlink:href="#DejaVuSans-20" x="760.693359"/>
      <use xlink:href="#DejaVuSans-2f" x="792.480469"/>
      <use xlink:href="#DejaVuSans-20" x="826.171875"/>
      <use xlink:href="#DejaVuSans-44" x="857.958984"/>
      <use xlink:href="#DejaVuSans-49" x="934.960938"/>
      <use xlink:href="#DejaVuSans-4d" x="964.453125"/>
     </g>
    </g>
   </g>
   <g id="matplotlib.axis_2">
    <g id="ytick_1">
     <g id="line2d_37">
      <path d="M 62.208 293.76 
L 460.8 293.76 
" clip-path="url(#pab4091a2ca)" style="fill: none; stroke: #b0b0b0; stroke-width: 0.8; stroke-linecap: square"/>
     </g>
     <g id="line2d_38">
      <defs>
       <path id="m73db6c35af" d="M 0 0 
L -3.5 0 
" style="stroke: #000000; stroke-width: 0.8"/>
      </defs>
      <g>
       <use xlink:href="#m73db6c35af" x="62.208" y="293.76" style="stroke: #000000; stroke-width: 0.8"/>
      </g>
     </g>
     <g id="text_5">
      <!-- 0.0 -->
      <g transform="translate(29.763 299.83875)scale(0.16 -0.16)">
       <defs>
        <path id="DejaVuSans-2e" d="M 684 794 
L 1344 794 
L 1344 0 
L 684 0 
L 684 794 
z
" transform="scale(0.015625)"/>
       </defs>
       <use xlink:href="#DejaVuSans-30"/>
       <use xlink:href="#DejaVuSans-2e" x="63.623047"/>
       <use xlink:href="#DejaVuSans-30" x="95.410156"/>
      </g>
     </g>
    </g>
    <g id="ytick_2">
     <g id="line2d_39">
      <path d="M 62.208 236.274059 
L 460.8 236.274059 
" clip-path="url(#pab4091a2ca)" style="fill: none; stroke: #b0b0b0; stroke-width: 0.8; stroke-linecap: square"/>
     </g>
     <g id="line2d_40">
      <g>
       <use xlink:href="#m73db6c35af" x="62.208" y="236.274059" style="stroke: #000000; stroke-width: 0.8"/>
      </g>
     </g>
     <g id="text_6">
      <!-- 0.2 -->
      <g transform="translate(29.763 242.352809)scale(0.16 -0.16)">
       <use xlink:href="#DejaVuSans-30"/>
       <use xlink:href="#DejaVuSans-2e" x="63.623047"/>
       <use xlink:href="#DejaVuSans-32" x="95.410156"/>
      </g>
     </g>
    </g>
    <g id="ytick_3">
     <g id="line2d_41">
      <path d="M 62.208 178.788119 
L 460.8 178.788119 
" clip-path="url(#pab4091a2ca)" style="fill: none; stroke: #b0b0b0; stroke-width: 0.8; stroke-linecap: square"/>
     </g>
     <g id="line2d_42">
      <g>
       <use xlink:href="#m73db6c35af" x="62.208" y="178.788119" style="stroke: #000000; stroke-width: 0.8"/>
      </g>
     </g>
     <g id="text_7">
      <!-- 0.4 -->
      <g transform="translate(29.763 184.866869)scale(0.16 -0.16)">
       <use xlink:href="#DejaVuSans-30"/>
       <use xlink:href="#DejaVuSans-2e" x="63.623047"/>
       <use xlink:href="#DejaVuSans-34" x="95.410156"/>
      </g>
     </g>
    </g>
    <g id="ytick_4">
     <g id="line2d_43">
      <path d="M 62.208 121.302178 
L 460.8 121.302178 
" clip-path="url(#pab4091a2ca)" style="fill: none; stroke: #b0b0b0; stroke-width: 0.8; stroke-linecap: square"/>
     </g>
     <g id="line2d_44">
      <g>
       <use xlink:href="#m73db6c35af" x="62.208" y="121.302178" style="stroke: #000000; stroke-width: 0.8"/>
      </g>
     </g>
     <g id="text_8">
      <!-- 0.6 -->
      <g transform="translate(29.763 127.380928)scale(0.16 -0.16)">
       <defs>
        <path id="DejaVuSans-36" d="M 2113 2584 
Q 1688 2584 1439 2293 
Q 1191 2003 1191 1497 
Q 1191 994 1439 701 
Q 1688 409 2113 409 
Q 2538 409 2786 701 
Q 3034 994 3034 1497 
Q 3034 2003 2786 2293 
Q 2538 2584 2113 2584 
z
M 3366 4563 
L 3366 3988 
Q 3128 4100 2886 4159 
Q 2644 4219 2406 4219 
Q 1781 4219 1451 3797 
Q 1122 3375 1075 2522 
Q 1259 2794 1537 2939 
Q 1816 3084 2150 3084 
Q 2853 3084 3261 2657 
Q 3669 2231 3669 1497 
Q 3669 778 3244 343 
Q 2819 -91 2113 -91 
Q 1303 -91 875 529 
Q 447 1150 447 2328 
Q 447 3434 972 4092 
Q 1497 4750 2381 4750 
Q 2619 4750 2861 4703 
Q 3103 4656 3366 4563 
z
" transform="scale(0.015625)"/>
       </defs>
       <use xlink:href="#DejaVuSans-30"/>
       <use xlink:href="#DejaVuSans-2e" x="63.623047"/>
       <use xlink:href="#DejaVuSans-36" x="95.410156"/>
      </g>
     </g>
    </g>
    <g id="ytick_5">
     <g id="line2d_45">
      <path d="M 62.208 63.816238 
L 460.8 63.816238 
" clip-path="url(#pab4091a2ca)" style="fill: none; stroke: #b0b0b0; stroke-width: 0.8; stroke-linecap: square"/>
     </g>
     <g id="line2d_46">
      <g>
       <use xlink:href="#m73db6c35af" x="62.208" y="63.816238" style="stroke: #000000; stroke-width: 0.8"/>
      </g>
     </g>
     <g id="text_9">
      <!-- 0.8 -->
      <g transform="translate(29.763 69.894988)scale(0.16 -0.16)">
       <defs>
        <path id="DejaVuSans-38" d="M 2034 2216 
Q 1584 2216 1326 1975 
Q 1069 1734 1069 1313 
Q 1069 891 1326 650 
Q 1584 409 2034 409 
Q 2484 409 2743 651 
Q 3003 894 3003 1313 
Q 3003 1734 2745 1975 
Q 2488 2216 2034 2216 
z
M 1403 2484 
Q 997 2584 770 2862 
Q 544 3141 544 3541 
Q 544 4100 942 4425 
Q 1341 4750 2034 4750 
Q 2731 4750 3128 4425 
Q 3525 4100 3525 3541 
Q 3525 3141 3298 2862 
Q 3072 2584 2669 2484 
Q 3125 2378 3379 2068 
Q 3634 1759 3634 1313 
Q 3634 634 3220 271 
Q 2806 -91 2034 -91 
Q 1263 -91 848 271 
Q 434 634 434 1313 
Q 434 1759 690 2068 
Q 947 2378 1403 2484 
z
M 1172 3481 
Q 1172 3119 1398 2916 
Q 1625 2713 2034 2713 
Q 2441 2713 2670 2916 
Q 2900 3119 2900 3481 
Q 2900 3844 2670 4047 
Q 2441 4250 2034 4250 
Q 1625 4250 1398 4047 
Q 1172 3844 1172 3481 
z
" transform="scale(0.015625)"/>
       </defs>
       <use xlink:href="#DejaVuSans-30"/>
       <use xlink:href="#DejaVuSans-2e" x="63.623047"/>
       <use xlink:href="#DejaVuSans-38" x="95.410156"/>
      </g>
     </g>
    </g>
    <g id="ytick_6">
     <g id="line2d_47">
      <path d="M 62.208 6.330297 
L 460.8 6.330297 
" clip-path="url(#pab4091a2ca)" style="fill: none; stroke: #b0b0b0; stroke-width: 0.8; stroke-linecap: square"/>
     </g>
     <g id="line2d_48">
      <g>
       <use xlink:href="#m73db6c35af" x="62.208" y="6.330297" style="stroke: #000000; stroke-width: 0.8"/>
      </g>
     </g>
     <g id="text_10">
      <!-- 1.0 -->
      <g transform="translate(29.763 12.409047)scale(0.16 -0.16)">
       <use xlink:href="#DejaVuSans-31"/>
       <use xlink:href="#DejaVuSans-2e" x="63.623047"/>
       <use xlink:href="#DejaVuSans-30" x="95.410156"/>
      </g>
     </g>
    </g>
    <g id="text_11">
     <!-- proportion of trials -->
     <g transform="translate(21.603625 241.61425)rotate(-90)scale(0.2 -0.2)">
      <defs>
       <path id="DejaVuSans-70" d="M 1159 525 
L 1159 -1331 
L 581 -1331 
L 581 3500 
L 1159 3500 
L 1159 2969 
Q 1341 3281 1617 3432 
Q 1894 3584 2278 3584 
Q 2916 3584 3314 3078 
Q 3713 2572 3713 1747 
Q 3713 922 3314 415 
Q 2916 -91 2278 -91 
Q 1894 -91 1617 61 
Q 1341 213 1159 525 
z
M 3116 1747 
Q 3116 2381 2855 2742 
Q 2594 3103 2138 3103 
Q 1681 3103 1420 2742 
Q 1159 2381 1159 1747 
Q 1159 1113 1420 752 
Q 1681 391 2138 391 
Q 2594 391 2855 752 
Q 3116 1113 3116 1747 
z
" transform="scale(0.015625)"/>
       <path id="DejaVuSans-72" d="M 2631 2963 
Q 2534 3019 2420 3045 
Q 2306 3072 2169 3072 
Q 1681 3072 1420 2755 
Q 1159 2438 1159 1844 
L 1159 0 
L 581 0 
L 581 3500 
L 1159 3500 
L 1159 2956 
Q 1341 3275 1631 3429 
Q 1922 3584 2338 3584 
Q 2397 3584 2469 3576 
Q 2541 3569 2628 3553 
L 2631 2963 
z
" transform="scale(0.015625)"/>
       <path id="DejaVuSans-74" d="M 1172 4494 
L 1172 3500 
L 2356 3500 
L 2356 3053 
L 1172 3053 
L 1172 1153 
Q 1172 725 1289 603 
Q 1406 481 1766 481 
L 2356 481 
L 2356 0 
L 1766 0 
Q 1100 0 847 248 
Q 594 497 594 1153 
L 594 3053 
L 172 3053 
L 172 3500 
L 594 3500 
L 594 4494 
L 1172 4494 
z
" transform="scale(0.015625)"/>
       <path id="DejaVuSans-69" d="M 603 3500 
L 1178 3500 
L 1178 0 
L 603 0 
L 603 3500 
z
M 603 4863 
L 1178 4863 
L 1178 4134 
L 603 4134 
L 603 4863 
z
" transform="scale(0.015625)"/>
       <path id="DejaVuSans-6e" d="M 3513 2113 
L 3513 0 
L 2938 0 
L 2938 2094 
Q 2938 2591 2744 2837 
Q 2550 3084 2163 3084 
Q 1697 3084 1428 2787 
Q 1159 2491 1159 1978 
L 1159 0 
L 581 0 
L 581 3500 
L 1159 3500 
L 1159 2956 
Q 1366 3272 1645 3428 
Q 1925 3584 2291 3584 
Q 2894 3584 3203 3211 
Q 3513 2838 3513 2113 
z
" transform="scale(0.015625)"/>
      </defs>
      <use xlink:href="#DejaVuSans-70"/>
      <use xlink:href="#DejaVuSans-72" x="63.476562"/>
      <use xlink:href="#DejaVuSans-6f" x="102.339844"/>
      <use xlink:href="#DejaVuSans-70" x="163.521484"/>
      <use xlink:href="#DejaVuSans-6f" x="226.998047"/>
      <use xlink:href="#DejaVuSans-72" x="288.179688"/>
      <use xlink:href="#DejaVuSans-74" x="329.292969"/>
      <use xlink:href="#DejaVuSans-69" x="368.501953"/>
      <use xlink:href="#DejaVuSans-6f" x="396.285156"/>
      <use xlink:href="#DejaVuSans-6e" x="457.466797"/>
      <use xlink:href="#DejaVuSans-20" x="520.845703"/>
      <use xlink:href="#DejaVuSans-6f" x="552.632812"/>
      <use xlink:href="#DejaVuSans-66" x="613.814453"/>
      <use xlink:href="#DejaVuSans-20" x="649.019531"/>
      <use xlink:href="#DejaVuSans-74" x="680.806641"/>
      <use xlink:href="#DejaVuSans-72" x="720.015625"/>
      <use xlink:href="#DejaVuSans-69" x="761.128906"/>
      <use xlink:href="#DejaVuSans-61" x="788.912109"/>
      <use xlink:href="#DejaVuSans-6c" x="850.191406"/>
      <use xlink:href="#DejaVuSans-73" x="877.974609"/>
     </g>
    </g>
   </g>
   <g id="line2d_49">
    <path d="M -1 236.274059 
L 81.989798 236.274059 
L 81.989798 224.776871 
L 83.471158 224.776871 
L 83.471158 213.279683 
L 115.033895 213.279683 
L 115.033895 201.782495 
L 121.69338 201.782495 
L 121.69338 190.285307 
L 123.987768 190.285307 
L 123.987768 178.788119 
L 155.404817 178.788119 
L 155.404817 167.290931 
L 158.429999 167.290931 
L 158.429999 155.793743 
L 158.48746 155.793743 
L 158.48746 144.296554 
L 161.22703 144.296554 
L 161.22703 132.799366 
L 161.48755 132.799366 
L 161.48755 121.302178 
L 185.235991 121.302178 
L 185.235991 109.80499 
L 189.997569 109.80499 
L 189.997569 98.307802 
L 212.733659 98.307802 
L 212.733659 86.810614 
L 220.46056 86.810614 
L 220.46056 75.313426 
L 224.691798 75.313426 
L 224.691798 63.816238 
L 274.740971 63.816238 
L 274.740971 52.31905 
L 276.228856 52.31905 
L 276.228856 40.821861 
L 278.174226 40.821861 
L 278.174226 29.324673 
L 282.361488 29.324673 
L 282.361488 17.827485 
L 292.460573 17.827485 
L 292.460573 6.330297 
L 292.460573 6.330297 
L 292.460573 6.330297 
L 460.8 6.330297 
" clip-path="url(#pab4091a2ca)" style="fill: none; stroke: #000000; stroke-width: 1.5; stroke-linecap: square"/>
   </g>
   <g id="line2d_50">
    <defs>
     <path id="mafb247ae02" d="M -0 14.142136 
L 8.485281 0 
L -0 -14.142136 
L -8.485281 -0 
z
" style="stroke: #000000; stroke-width: 1.5; stroke-linejoin: miter"/>
    </defs>
    <g clip-path="url(#pab4091a2ca)">
     <use xlink:href="#mafb247ae02" x="83.471158" y="224.776871" style="fill-opacity: 0; stroke: #000000; stroke-width: 1.5; stroke-linejoin: miter"/>
     <use xlink:href="#mafb247ae02" x="123.987768" y="190.285307" style="fill-opacity: 0; stroke: #000000; stroke-width: 1.5; stroke-linejoin: miter"/>
     <use xlink:href="#mafb247ae02" x="189.997569" y="109.80499" style="fill-opacity: 0; stroke: #000000; stroke-width: 1.5; stroke-linejoin: miter"/>
     <use xlink:href="#mafb247ae02" x="224.691798" y="75.313426" style="fill-opacity: 0; stroke: #000000; stroke-width: 1.5; stroke-linejoin: miter"/>
     <use xlink:href="#mafb247ae02" x="292.460573" y="17.827485" style="fill-opacity: 0; stroke: #000000; stroke-width: 1.5; stroke-linejoin: miter"/>
     <use xlink:href="#mafb247ae02" x="292.460573" y="6.330297" style="fill-opacity: 0; stroke: #000000; stroke-width: 1.5; stroke-linejoin: miter"/>
    </g>
   </g>
   <g id="line2d_51">
    <path clip-path="url(#pab4091a2ca)" style="fill: none; stroke: #000000; stroke-width: 1.5; stroke-linecap: square"/>
    <g clip-path="url(#pab4091a2ca)">
     <use xlink:href="#mafb247ae02" x="-1" y="581.189703" style="fill-opacity: 0; stroke: #000000; stroke-width: 1.5; stroke-linejoin: miter"/>
     <use xlink:href="#mafb247ae02" x="460.8" y="581.189703" style="fill-opacity: 0; stroke: #000000; stroke-width: 1.5; stroke-linejoin: miter"/>
    </g>
   </g>
   <g id="line2d_52">
    <path d="M -1 232.441663 
L 26.545078 232.441663 
L 26.545078 228.609267 
L 79.61885 228.609267 
L 79.61885 224.776871 
L 85.562924 224.776871 
L 85.562924 220.944475 
L 87.516667 220.944475 
L 87.516667 217.112079 
L 88.140291 217.112079 
L 88.140291 213.279683 
L 89.936055 213.279683 
L 89.936055 209.447287 
L 95.721303 209.447287 
L 95.721303 201.782495 
L 101.359777 201.782495 
L 101.359777 197.950099 
L 102.521535 197.950099 
L 102.521535 194.117703 
L 106.094661 194.117703 
L 106.094661 190.285307 
L 116.013192 190.285307 
L 116.013192 182.620515 
L 129.357642 182.620515 
L 129.357642 178.788119 
L 148.394242 178.788119 
L 148.394242 174.955723 
L 151.458578 174.955723 
L 151.458578 171.123327 
L 153.565226 171.123327 
L 153.565226 167.290931 
L 154.630367 167.290931 
L 154.630367 163.458535 
L 155.46845 163.458535 
L 155.46845 159.626139 
L 156.221568 159.626139 
L 156.221568 155.793743 
L 156.774101 155.793743 
L 156.774101 151.961347 
L 158.199034 151.961347 
L 158.199034 148.12895 
L 163.444605 148.12895 
L 163.444605 144.296554 
L 165.005212 144.296554 
L 165.005212 140.464158 
L 167.941256 140.464158 
L 167.941256 136.631762 
L 168.92598 136.631762 
L 168.92598 132.799366 
L 172.28001 132.799366 
L 172.28001 128.96697 
L 172.780257 128.96697 
L 172.815667 121.302178 
L 193.382773 121.302178 
L 193.382773 117.469782 
L 199.507849 117.469782 
L 199.579623 109.80499 
L 203.052544 109.80499 
L 203.052544 105.972594 
L 204.941919 105.972594 
L 204.941919 102.140198 
L 205.085131 102.140198 
L 205.180223 90.64301 
L 205.69784 90.64301 
L 205.69784 86.810614 
L 208.721776 86.810614 
L 208.721776 82.978218 
L 210.059993 82.978218 
L 210.059993 79.145822 
L 211.894216 79.145822 
L 211.894216 75.313426 
L 217.466139 75.313426 
L 217.466139 71.48103 
L 226.200408 71.48103 
L 226.200408 67.648634 
L 229.842565 67.648634 
L 229.842565 63.816238 
L 250.159328 63.816238 
L 250.159328 59.983842 
L 254.019307 59.983842 
L 254.019307 56.151446 
L 268.57818 56.151446 
L 268.57818 52.31905 
L 270.150674 52.31905 
L 270.150674 48.486653 
L 270.63903 48.486653 
L 270.63903 44.654257 
L 270.913781 44.654257 
L 270.913781 40.821861 
L 272.757919 40.821861 
L 272.757919 36.989465 
L 274.162875 36.989465 
L 274.162875 33.157069 
L 274.627389 33.157069 
L 274.627389 29.324673 
L 275.170889 29.324673 
L 275.170889 25.492277 
L 292.909648 25.492277 
L 292.909648 21.659881 
L 293.021778 21.659881 
L 293.021778 17.827485 
L 293.472728 17.827485 
L 293.472728 13.995089 
L 294.281954 13.995089 
L 294.281954 10.162693 
L 295.299904 10.162693 
L 295.299904 6.330297 
L 295.299904 6.330297 
L 460.8 6.330297 
L 460.8 6.330297 
" clip-path="url(#pab4091a2ca)" style="fill: none; stroke: #000000; stroke-width: 1.5; stroke-linecap: square"/>
   </g>
   <g id="line2d_53">
    <defs>
     <path id="mdbef1ec1c1" d="M 0 7.5 
C 1.989023 7.5 3.896849 6.709753 5.303301 5.303301 
C 6.709753 3.896849 7.5 1.989023 7.5 0 
C 7.5 -1.989023 6.709753 -3.896849 5.303301 -5.303301 
C 3.896849 -6.709753 1.989023 -7.5 0 -7.5 
C -1.989023 -7.5 -3.896849 -6.709753 -5.303301 -5.303301 
C -6.709753 -3.896849 -7.5 -1.989023 -7.5 0 
C -7.5 1.989023 -6.709753 3.896849 -5.303301 5.303301 
C -3.896849 6.709753 -1.989023 7.5 0 7.5 
z
" style="stroke: #000000; stroke-width: 1.5"/>
    </defs>
    <g clip-path="url(#pab4091a2ca)">
     <use xlink:href="#mdbef1ec1c1" x="116.013192" y="186.452911" style="fill-opacity: 0; stroke: #000000; stroke-width: 1.5"/>
     <use xlink:href="#mdbef1ec1c1" x="167.941256" y="140.464158" style="fill-opacity: 0; stroke: #000000; stroke-width: 1.5"/>
     <use xlink:href="#mdbef1ec1c1" x="211.894216" y="79.145822" style="fill-opacity: 0; stroke: #000000; stroke-width: 1.5"/>
     <use xlink:href="#mdbef1ec1c1" x="274.627389" y="33.157069" style="fill-opacity: 0; stroke: #000000; stroke-width: 1.5"/>
     <use xlink:href="#mdbef1ec1c1" x="295.299904" y="6.330297" style="fill-opacity: 0; stroke: #000000; stroke-width: 1.5"/>
    </g>
   </g>
   <g id="line2d_54">
    <path clip-path="url(#pab4091a2ca)" style="fill: none; stroke: #000000; stroke-width: 1.5; stroke-linecap: square"/>
   </g>
   <g id="line2d_55">
    <path d="M 193.329705 293.76 
L 193.329705 282.262812 
L 195.808052 282.262812 
L 195.808052 270.765624 
L 200.329921 270.765624 
L 200.329921 259.268436 
L 203.281181 259.268436 
L 203.281181 247.771248 
L 205.286837 247.771248 
L 205.286837 236.274059 
L 212.148556 236.274059 
L 212.148556 224.776871 
L 257.917829 224.776871 
L 257.917829 213.279683 
L 259.485961 213.279683 
L 259.485961 201.782495 
L 261.804321 201.782495 
L 261.804321 190.285307 
L 277.868773 190.285307 
L 277.868773 178.788119 
L 279.77384 178.788119 
L 279.77384 167.290931 
L 303.901792 167.290931 
L 303.901792 155.793743 
L 307.439788 155.793743 
L 307.439788 144.296554 
L 322.124834 144.296554 
L 322.124834 132.799366 
L 327.671748 132.799366 
L 327.671748 121.302178 
L 331.300617 121.302178 
L 331.300617 109.80499 
L 332.107023 109.80499 
L 332.107023 98.307802 
L 332.633539 98.307802 
L 332.633539 86.810614 
L 333.110753 86.810614 
L 333.110753 75.313426 
L 334.507729 75.313426 
L 334.507729 63.816238 
L 336.290803 63.816238 
L 336.290803 52.31905 
L 348.45737 52.31905 
L 348.45737 40.821861 
L 356.766854 40.821861 
L 356.766854 29.324673 
L 359.72372 29.324673 
L 359.72372 17.827485 
L 363.191171 17.827485 
L 363.191171 6.330297 
L 363.191171 6.330297 
L 363.191171 6.330297 
L 460.8 6.330297 
" clip-path="url(#pab4091a2ca)" style="fill: none; stroke: #00bfbf; stroke-width: 1.5; stroke-linecap: square"/>
   </g>
   <g id="line2d_56">
    <defs>
     <path id="m7ea2c744bd" d="M -0 14.142136 
L 8.485281 0 
L -0 -14.142136 
L -8.485281 -0 
z
" style="stroke: #00bfbf; stroke-width: 1.5; stroke-linejoin: miter"/>
    </defs>
    <g clip-path="url(#pab4091a2ca)">
     <use xlink:href="#m7ea2c744bd" x="212.148556" y="236.274059" style="fill-opacity: 0; stroke: #00bfbf; stroke-width: 1.5; stroke-linejoin: miter"/>
     <use xlink:href="#m7ea2c744bd" x="277.868773" y="190.285307" style="fill-opacity: 0; stroke: #00bfbf; stroke-width: 1.5; stroke-linejoin: miter"/>
     <use xlink:href="#m7ea2c744bd" x="327.671748" y="132.799366" style="fill-opacity: 0; stroke: #00bfbf; stroke-width: 1.5; stroke-linejoin: miter"/>
     <use xlink:href="#m7ea2c744bd" x="348.45737" y="52.31905" style="fill-opacity: 0; stroke: #00bfbf; stroke-width: 1.5; stroke-linejoin: miter"/>
     <use xlink:href="#m7ea2c744bd" x="363.191171" y="6.330297" style="fill-opacity: 0; stroke: #00bfbf; stroke-width: 1.5; stroke-linejoin: miter"/>
    </g>
   </g>
   <g id="line2d_57">
    <path clip-path="url(#pab4091a2ca)" style="fill: none; stroke: #00bfbf; stroke-width: 1.5; stroke-linecap: square"/>
    <g clip-path="url(#pab4091a2ca)">
     <use xlink:href="#m7ea2c744bd" x="-1" y="581.189703" style="fill-opacity: 0; stroke: #00bfbf; stroke-width: 1.5; stroke-linejoin: miter"/>
     <use xlink:href="#m7ea2c744bd" x="460.8" y="581.189703" style="fill-opacity: 0; stroke: #00bfbf; stroke-width: 1.5; stroke-linejoin: miter"/>
    </g>
   </g>
   <g id="line2d_58">
    <path d="M 189.997569 293.76 
L 189.997569 289.927604 
L 191.163137 289.927604 
L 191.163137 286.095208 
L 193.062927 286.095208 
L 193.062927 282.262812 
L 195.775465 282.262812 
L 195.775465 278.430416 
L 196.035158 278.430416 
L 196.035158 274.59802 
L 196.611274 274.59802 
L 196.611274 270.765624 
L 197.562598 270.765624 
L 197.562598 266.933228 
L 198.17023 266.933228 
L 198.17023 263.100832 
L 198.603097 263.100832 
L 198.603097 259.268436 
L 198.985879 259.268436 
L 198.985879 255.43604 
L 201.279086 255.43604 
L 201.279086 251.603644 
L 201.481463 251.603644 
L 201.481463 247.771248 
L 215.160439 247.771248 
L 215.160439 243.938851 
L 225.389795 243.938851 
L 225.389795 240.106455 
L 256.019865 240.106455 
L 256.019865 236.274059 
L 256.811153 236.274059 
L 256.811153 232.441663 
L 257.049008 232.441663 
L 257.049008 228.609267 
L 257.268614 228.609267 
L 257.268614 224.776871 
L 257.555537 224.776871 
L 257.555537 220.944475 
L 258.313272 220.944475 
L 258.313272 217.112079 
L 261.596564 217.112079 
L 261.665391 209.447287 
L 262.41727 209.447287 
L 262.41727 205.614891 
L 263.649273 205.614891 
L 263.649273 201.782495 
L 264.248193 201.782495 
L 264.248193 197.950099 
L 265.675324 197.950099 
L 265.675324 194.117703 
L 280.236033 194.117703 
L 280.236033 190.285307 
L 281.544837 190.285307 
L 281.544837 186.452911 
L 282.529298 186.452911 
L 282.529298 182.620515 
L 283.740893 182.620515 
L 283.740893 178.788119 
L 283.889437 178.788119 
L 283.966751 171.123327 
L 290.814483 171.123327 
L 290.814483 167.290931 
L 292.146026 167.290931 
L 292.146026 163.458535 
L 298.828374 163.458535 
L 298.828374 159.626139 
L 301.073649 159.626139 
L 301.073649 155.793743 
L 302.458821 155.793743 
L 302.458821 151.961347 
L 303.272066 151.961347 
L 303.272066 148.12895 
L 304.498489 148.12895 
L 304.498489 144.296554 
L 305.124888 144.296554 
L 305.124888 140.464158 
L 305.883667 140.464158 
L 305.883667 136.631762 
L 308.153574 136.631762 
L 308.153574 132.799366 
L 314.427285 132.799366 
L 314.427285 128.96697 
L 315.677774 128.96697 
L 315.677774 125.134574 
L 320.497246 125.134574 
L 320.497246 121.302178 
L 321.243896 121.302178 
L 321.243896 117.469782 
L 322.686146 117.469782 
L 322.686146 113.637386 
L 325.928503 113.637386 
L 325.928503 109.80499 
L 329.015542 109.80499 
L 329.015542 105.972594 
L 330.012435 105.972594 
L 330.012435 102.140198 
L 330.724475 102.140198 
L 330.724475 98.307802 
L 331.345597 98.307802 
L 331.345597 94.475406 
L 331.84582 94.475406 
L 331.84582 90.64301 
L 332.23587 90.64301 
L 332.23587 86.810614 
L 332.452987 86.810614 
L 332.452987 82.978218 
L 333.117547 82.978218 
L 333.117547 79.145822 
L 334.072254 79.145822 
L 334.072254 75.313426 
L 346.9711 75.313426 
L 346.9711 71.48103 
L 347.110208 71.48103 
L 347.110208 67.648634 
L 347.233859 67.648634 
L 347.233859 63.816238 
L 347.394871 63.816238 
L 347.394871 59.983842 
L 348.185253 59.983842 
L 348.185253 56.151446 
L 348.873074 56.151446 
L 348.873074 52.31905 
L 351.677676 52.31905 
L 351.677676 48.486653 
L 353.425066 48.486653 
L 353.425066 44.654257 
L 358.930818 44.654257 
L 358.930818 40.821861 
L 360.774153 40.821861 
L 360.774153 36.989465 
L 362.174102 36.989465 
L 362.174102 33.157069 
L 362.934228 33.157069 
L 362.934228 29.324673 
L 363.344047 29.324673 
L 363.344047 25.492277 
L 364.545574 25.492277 
L 364.545574 21.659881 
L 365.570826 21.659881 
L 365.570826 17.827485 
L 366.035734 17.827485 
L 366.035734 13.995089 
L 369.08392 13.995089 
L 369.08392 10.162693 
L 369.306785 10.162693 
L 369.306785 6.330297 
L 369.306785 6.330297 
L 460.8 6.330297 
L 460.8 6.330297 
" clip-path="url(#pab4091a2ca)" style="fill: none; stroke: #00bfbf; stroke-width: 1.5; stroke-linecap: square"/>
   </g>
   <g id="line2d_59">
    <defs>
     <path id="md74c7e48bc" d="M 0 7.5 
C 1.989023 7.5 3.896849 6.709753 5.303301 5.303301 
C 6.709753 3.896849 7.5 1.989023 7.5 0 
C 7.5 -1.989023 6.709753 -3.896849 5.303301 -5.303301 
C 3.896849 -6.709753 1.989023 -7.5 0 -7.5 
C -1.989023 -7.5 -3.896849 -6.709753 -5.303301 -5.303301 
C -6.709753 -3.896849 -7.5 -1.989023 -7.5 0 
C -7.5 1.989023 -6.709753 3.896849 -5.303301 5.303301 
C -3.896849 6.709753 -1.989023 7.5 0 7.5 
z
" style="stroke: #00bfbf; stroke-width: 1.5"/>
    </defs>
    <g clip-path="url(#pab4091a2ca)">
     <use xlink:href="#md74c7e48bc" x="215.160439" y="247.771248" style="fill-opacity: 0; stroke: #00bfbf; stroke-width: 1.5"/>
     <use xlink:href="#md74c7e48bc" x="265.675324" y="197.950099" style="fill-opacity: 0; stroke: #00bfbf; stroke-width: 1.5"/>
     <use xlink:href="#md74c7e48bc" x="314.427285" y="132.799366" style="fill-opacity: 0; stroke: #00bfbf; stroke-width: 1.5"/>
     <use xlink:href="#md74c7e48bc" x="363.344047" y="29.324673" style="fill-opacity: 0; stroke: #00bfbf; stroke-width: 1.5"/>
     <use xlink:href="#md74c7e48bc" x="369.306785" y="6.330297" style="fill-opacity: 0; stroke: #00bfbf; stroke-width: 1.5"/>
    </g>
   </g>
   <g id="line2d_60">
    <path clip-path="url(#pab4091a2ca)" style="fill: none; stroke: #00bfbf; stroke-width: 1.5; stroke-linecap: square"/>
   </g>
   <g id="line2d_61">
    <path d="M 266.051653 293.76 
L 266.051653 282.262812 
L 285.359852 282.262812 
L 285.359852 270.765624 
L 285.484742 270.765624 
L 285.484742 259.268436 
L 286.624406 259.268436 
L 286.624406 247.771248 
L 287.7116 247.771248 
L 287.7116 236.274059 
L 287.847376 236.274059 
L 287.847376 224.776871 
L 288.957379 224.776871 
L 288.957379 213.279683 
L 323.518599 213.279683 
L 323.518599 201.782495 
L 324.096144 201.782495 
L 324.096144 190.285307 
L 324.317454 190.285307 
L 324.317454 178.788119 
L 329.549739 178.788119 
L 329.549739 167.290931 
L 330.934043 167.290931 
L 330.934043 155.793743 
L 331.274571 155.793743 
L 331.274571 144.296554 
L 333.390836 144.296554 
L 333.390836 132.799366 
L 334.174104 132.799366 
L 334.174104 121.302178 
L 335.089371 121.302178 
L 335.089371 109.80499 
L 336.530813 109.80499 
L 336.530813 98.307802 
L 347.599902 98.307802 
L 347.599902 86.810614 
L 350.078001 86.810614 
L 350.078001 75.313426 
L 361.703272 75.313426 
L 361.703272 63.816238 
L 399.992641 63.816238 
L 399.992641 52.31905 
L 402.510912 52.31905 
L 402.510912 40.821861 
L 423.34415 40.821861 
L 423.34415 29.324673 
L 423.34415 29.324673 
L 423.34415 29.324673 
L 460.8 29.324673 
" clip-path="url(#pab4091a2ca)" style="fill: none; stroke: #bf00bf; stroke-width: 1.5; stroke-linecap: square"/>
   </g>
   <g id="line2d_62">
    <defs>
     <path id="md26b2f9aa2" d="M -0 14.142136 
L 8.485281 0 
L -0 -14.142136 
L -8.485281 -0 
z
" style="stroke: #bf00bf; stroke-width: 1.5; stroke-linejoin: miter"/>
    </defs>
    <g clip-path="url(#pab4091a2ca)">
     <use xlink:href="#md26b2f9aa2" x="287.847376" y="236.274059" style="fill-opacity: 0; stroke: #bf00bf; stroke-width: 1.5; stroke-linejoin: miter"/>
     <use xlink:href="#md26b2f9aa2" x="331.274571" y="155.793743" style="fill-opacity: 0; stroke: #bf00bf; stroke-width: 1.5; stroke-linejoin: miter"/>
     <use xlink:href="#md26b2f9aa2" x="350.078001" y="86.810614" style="fill-opacity: 0; stroke: #bf00bf; stroke-width: 1.5; stroke-linejoin: miter"/>
     <use xlink:href="#md26b2f9aa2" x="402.510912" y="52.31905" style="fill-opacity: 0; stroke: #bf00bf; stroke-width: 1.5; stroke-linejoin: miter"/>
     <use xlink:href="#md26b2f9aa2" x="423.34415" y="29.324673" style="fill-opacity: 0; stroke: #bf00bf; stroke-width: 1.5; stroke-linejoin: miter"/>
    </g>
   </g>
   <g id="line2d_63">
    <path clip-path="url(#pab4091a2ca)" style="fill: none; stroke: #bf00bf; stroke-width: 1.5; stroke-linecap: square"/>
    <g clip-path="url(#pab4091a2ca)">
     <use xlink:href="#md26b2f9aa2" x="-1" y="581.189703" style="fill-opacity: 0; stroke: #bf00bf; stroke-width: 1.5; stroke-linejoin: miter"/>
     <use xlink:href="#md26b2f9aa2" x="460.8" y="581.189703" style="fill-opacity: 0; stroke: #bf00bf; stroke-width: 1.5; stroke-linejoin: miter"/>
    </g>
   </g>
   <g id="line2d_64">
    <path d="M 261.146147 293.76 
L 261.146147 289.927604 
L 270.450943 289.927604 
L 270.450943 286.095208 
L 271.107934 286.095208 
L 271.107934 282.262812 
L 283.243985 282.262812 
L 283.352683 274.59802 
L 283.548687 274.59802 
L 283.548687 270.765624 
L 283.765145 270.765624 
L 283.765145 266.933228 
L 284.321627 266.933228 
L 284.321627 263.100832 
L 284.909697 263.100832 
L 284.909697 259.268436 
L 285.631877 259.268436 
L 285.631877 255.43604 
L 285.792341 255.43604 
L 285.792341 251.603644 
L 286.052704 251.603644 
L 286.052704 247.771248 
L 286.543841 247.771248 
L 286.543841 243.938851 
L 286.806764 243.938851 
L 286.806764 240.106455 
L 287.642011 240.106455 
L 287.642011 236.274059 
L 288.061451 236.274059 
L 288.061451 232.441663 
L 288.952468 232.441663 
L 288.952468 228.609267 
L 289.525047 228.609267 
L 289.525047 224.776871 
L 290.537779 224.776871 
L 290.537779 220.944475 
L 301.571338 220.944475 
L 301.571338 217.112079 
L 302.575553 217.112079 
L 302.575553 213.279683 
L 304.450295 213.279683 
L 304.450295 209.447287 
L 305.488044 209.447287 
L 305.488044 205.614891 
L 305.70087 205.614891 
L 305.70087 201.782495 
L 306.845989 201.782495 
L 306.868989 190.285307 
L 307.900039 190.285307 
L 307.900039 186.452911 
L 309.918477 186.452911 
L 309.918477 182.620515 
L 312.655393 182.620515 
L 312.655393 178.788119 
L 316.819602 178.788119 
L 316.819602 174.955723 
L 317.721263 174.955723 
L 317.721263 171.123327 
L 323.102195 171.123327 
L 323.102195 167.290931 
L 323.404139 167.290931 
L 323.404139 163.458535 
L 324.459568 163.458535 
L 324.553792 155.793743 
L 326.696334 155.793743 
L 326.696334 151.961347 
L 327.984303 151.961347 
L 328.079397 140.464158 
L 328.548126 140.464158 
L 328.548126 136.631762 
L 329.486413 136.631762 
L 329.486413 132.799366 
L 331.079931 132.799366 
L 331.079931 128.96697 
L 331.209777 128.96697 
L 331.209777 125.134574 
L 331.902986 125.134574 
L 331.902986 121.302178 
L 332.879956 121.302178 
L 332.879956 117.469782 
L 333.436192 117.469782 
L 333.436192 113.637386 
L 333.844078 113.637386 
L 333.844078 109.80499 
L 334.096107 109.80499 
L 334.096107 105.972594 
L 334.636923 105.972594 
L 334.636923 102.140198 
L 334.809752 102.140198 
L 334.809752 98.307802 
L 335.91503 98.307802 
L 335.91503 94.475406 
L 341.189524 94.475406 
L 341.189524 90.64301 
L 344.62274 90.64301 
L 344.62274 86.810614 
L 346.186331 86.810614 
L 346.186331 82.978218 
L 348.731299 82.978218 
L 348.731299 79.145822 
L 349.152765 79.145822 
L 349.152765 75.313426 
L 349.881674 75.313426 
L 349.881674 71.48103 
L 350.474972 71.48103 
L 350.474972 67.648634 
L 358.443273 67.648634 
L 358.443273 63.816238 
L 406.626114 63.816238 
L 406.626114 59.983842 
L 407.325498 59.983842 
L 407.325498 56.151446 
L 409.841906 56.151446 
L 409.841906 52.31905 
L 410.764613 52.31905 
L 410.841373 44.654257 
L 411.666263 44.654257 
L 411.666263 40.821861 
L 414.311124 40.821861 
L 414.311124 36.989465 
L 424.213119 36.989465 
L 424.213119 33.157069 
L 425.231135 33.157069 
L 425.231135 29.324673 
L 425.746224 29.324673 
L 425.746224 25.492277 
L 425.875369 25.492277 
L 425.875369 21.659881 
L 426.008574 21.659881 
L 426.008574 17.827485 
L 426.263612 17.827485 
L 426.263612 13.995089 
L 426.263612 13.995089 
L 460.8 13.995089 
L 460.8 13.995089 
" clip-path="url(#pab4091a2ca)" style="fill: none; stroke: #bf00bf; stroke-width: 1.5; stroke-linecap: square"/>
   </g>
   <g id="line2d_65">
    <defs>
     <path id="macabcfeece" d="M 0 7.5 
C 1.989023 7.5 3.896849 6.709753 5.303301 5.303301 
C 6.709753 3.896849 7.5 1.989023 7.5 0 
C 7.5 -1.989023 6.709753 -3.896849 5.303301 -5.303301 
C 3.896849 -6.709753 1.989023 -7.5 0 -7.5 
C -1.989023 -7.5 -3.896849 -6.709753 -5.303301 -5.303301 
C -6.709753 -3.896849 -7.5 -1.989023 -7.5 0 
C -7.5 1.989023 -6.709753 3.896849 -5.303301 5.303301 
C -3.896849 6.709753 -1.989023 7.5 0 7.5 
z
" style="stroke: #bf00bf; stroke-width: 1.5"/>
    </defs>
    <g clip-path="url(#pab4091a2ca)">
     <use xlink:href="#macabcfeece" x="317.721263" y="174.955723" style="fill-opacity: 0; stroke: #bf00bf; stroke-width: 1.5"/>
     <use xlink:href="#macabcfeece" x="346.186331" y="86.810614" style="fill-opacity: 0; stroke: #bf00bf; stroke-width: 1.5"/>
     <use xlink:href="#macabcfeece" x="410.841373" y="48.486653" style="fill-opacity: 0; stroke: #bf00bf; stroke-width: 1.5"/>
     <use xlink:href="#macabcfeece" x="426.263612" y="17.827485" style="fill-opacity: 0; stroke: #bf00bf; stroke-width: 1.5"/>
     <use xlink:href="#macabcfeece" x="426.263612" y="13.995089" style="fill-opacity: 0; stroke: #bf00bf; stroke-width: 1.5"/>
    </g>
   </g>
   <g id="line2d_66">
    <path clip-path="url(#pab4091a2ca)" style="fill: none; stroke: #bf00bf; stroke-width: 1.5; stroke-linecap: square"/>
   </g>
   <g id="line2d_67">
    <path d="M 292.017874 293.76 
L 292.017874 282.262812 
L 308.391128 282.262812 
L 308.391128 270.765624 
L 309.715194 270.765624 
L 309.715194 259.268436 
L 310.294635 259.268436 
L 310.294635 247.771248 
L 310.696735 247.771248 
L 310.696735 236.274059 
L 325.855116 236.274059 
L 325.855116 224.776871 
L 326.791735 224.776871 
L 326.791735 213.279683 
L 328.840486 213.279683 
L 328.840486 201.782495 
L 329.519252 201.782495 
L 329.519252 190.285307 
L 331.700847 190.285307 
L 331.700847 178.788119 
L 332.737249 178.788119 
L 332.737249 167.290931 
L 334.74104 167.290931 
L 334.74104 155.793743 
L 335.600164 155.793743 
L 335.600164 144.296554 
L 335.958406 144.296554 
L 335.958406 132.799366 
L 336.712841 132.799366 
L 336.712841 121.302178 
L 337.397039 121.302178 
L 337.397039 109.80499 
L 338.818455 109.80499 
L 338.818455 98.307802 
L 349.296933 98.307802 
L 349.296933 86.810614 
L 352.189718 86.810614 
L 352.189718 75.313426 
L 363.242179 75.313426 
L 363.242179 63.816238 
L 400.979304 63.816238 
L 400.979304 52.31905 
L 403.42968 52.31905 
L 403.42968 40.821861 
L 403.42968 40.821861 
L 403.42968 40.821861 
L 460.8 40.821861 
" clip-path="url(#pab4091a2ca)" style="fill: none; stroke: #ff0000; stroke-width: 3; stroke-linecap: square"/>
   </g>
   <g id="line2d_68">
    <defs>
     <path id="m7a6732cd40" d="M -0 14.142136 
L 8.485281 0 
L -0 -14.142136 
L -8.485281 -0 
z
" style="stroke: #ff0000; stroke-width: 3; stroke-linejoin: miter"/>
    </defs>
    <g clip-path="url(#pab4091a2ca)">
     <use xlink:href="#m7a6732cd40" x="328.840486" y="213.279683" style="fill-opacity: 0; stroke: #ff0000; stroke-width: 3; stroke-linejoin: miter"/>
     <use xlink:href="#m7a6732cd40" x="352.189718" y="86.810614" style="fill-opacity: 0; stroke: #ff0000; stroke-width: 3; stroke-linejoin: miter"/>
     <use xlink:href="#m7a6732cd40" x="403.42968" y="52.31905" style="fill-opacity: 0; stroke: #ff0000; stroke-width: 3; stroke-linejoin: miter"/>
     <use xlink:href="#m7a6732cd40" x="403.42968" y="40.821861" style="fill-opacity: 0; stroke: #ff0000; stroke-width: 3; stroke-linejoin: miter"/>
    </g>
   </g>
   <g id="line2d_69">
    <path clip-path="url(#pab4091a2ca)" style="fill: none; stroke: #ff0000; stroke-width: 3; stroke-linecap: square"/>
    <g clip-path="url(#pab4091a2ca)">
     <use xlink:href="#m7a6732cd40" x="-1" y="581.189703" style="fill-opacity: 0; stroke: #ff0000; stroke-width: 3; stroke-linejoin: miter"/>
     <use xlink:href="#m7a6732cd40" x="460.8" y="581.189703" style="fill-opacity: 0; stroke: #ff0000; stroke-width: 3; stroke-linejoin: miter"/>
    </g>
   </g>
   <g id="line2d_70">
    <path d="M 289.238057 293.76 
L 289.238057 289.927604 
L 289.398146 289.927604 
L 289.398146 286.095208 
L 290.913809 286.095208 
L 290.913809 282.262812 
L 291.364784 282.262812 
L 291.364784 278.430416 
L 293.331446 278.430416 
L 293.331446 274.59802 
L 304.034075 274.59802 
L 304.034075 270.765624 
L 306.720703 270.765624 
L 306.720703 266.933228 
L 307.445426 266.933228 
L 307.445426 263.100832 
L 307.891525 263.100832 
L 308.002008 247.771248 
L 308.134487 247.771248 
L 308.134487 243.938851 
L 308.770531 243.938851 
L 308.867045 236.274059 
L 308.892467 236.274059 
L 308.983947 224.776871 
L 309.663282 224.776871 
L 309.663282 220.944475 
L 309.927119 220.944475 
L 310.005125 213.279683 
L 310.533637 213.279683 
L 310.533637 209.447287 
L 311.372894 209.447287 
L 311.372894 205.614891 
L 314.260553 205.614891 
L 314.260553 201.782495 
L 314.425503 201.782495 
L 314.425503 197.950099 
L 319.448707 197.950099 
L 319.448707 194.117703 
L 320.241437 194.117703 
L 320.241437 190.285307 
L 325.405399 190.285307 
L 325.405399 186.452911 
L 325.58032 186.452911 
L 325.58032 182.620515 
L 326.824769 182.620515 
L 326.824769 178.788119 
L 327.977164 178.788119 
L 327.977164 174.955723 
L 329.101779 174.955723 
L 329.101779 171.123327 
L 329.708793 171.123327 
L 329.708793 167.290931 
L 329.979787 167.290931 
L 330.060463 155.793743 
L 330.335215 155.793743 
L 330.335215 151.961347 
L 331.385485 151.961347 
L 331.385485 148.12895 
L 332.532043 148.12895 
L 332.532043 144.296554 
L 332.911946 144.296554 
L 332.911946 140.464158 
L 333.897979 140.464158 
L 333.897979 136.631762 
L 334.040881 136.631762 
L 334.127727 128.96697 
L 334.596676 128.96697 
L 334.596676 125.134574 
L 335.249446 125.134574 
L 335.249446 121.302178 
L 335.367546 121.302178 
L 335.367546 117.469782 
L 335.919485 117.469782 
L 335.919485 113.637386 
L 336.356157 113.637386 
L 336.356157 109.80499 
L 336.639435 109.80499 
L 336.639435 105.972594 
L 337.090434 105.972594 
L 337.090434 102.140198 
L 337.424644 102.140198 
L 337.424644 98.307802 
L 338.2968 98.307802 
L 338.2968 94.475406 
L 343.394833 94.475406 
L 343.394833 90.64301 
L 346.6248 90.64301 
L 346.6248 86.810614 
L 348.069715 86.810614 
L 348.069715 82.978218 
L 350.980656 82.978218 
L 350.980656 79.145822 
L 351.263661 79.145822 
L 351.263661 75.313426 
L 351.971856 75.313426 
L 351.971856 71.48103 
L 352.43497 71.48103 
L 352.43497 67.648634 
L 360.302879 67.648634 
L 360.302879 63.816238 
L 407.435158 63.816238 
L 407.435158 59.983842 
L 408.102736 59.983842 
L 408.102736 56.151446 
L 410.587395 56.151446 
L 410.587395 52.31905 
L 411.497107 52.31905 
L 411.499214 44.654257 
L 412.332407 44.654257 
L 412.332407 40.821861 
L 414.929372 40.821861 
L 414.929372 36.989465 
L 425.096738 36.989465 
L 425.096738 33.157069 
L 426.114873 33.157069 
L 426.114873 29.324673 
L 426.573555 29.324673 
L 426.573555 25.492277 
L 426.73028 25.492277 
L 426.73028 21.659881 
L 426.857449 21.659881 
L 426.857449 17.827485 
L 427.084678 17.827485 
L 427.084678 13.995089 
L 427.084678 13.995089 
L 460.8 13.995089 
L 460.8 13.995089 
" clip-path="url(#pab4091a2ca)" style="fill: none; stroke: #ff0000; stroke-width: 3; stroke-linecap: square"/>
   </g>
   <g id="line2d_71">
    <defs>
     <path id="m1c6e13b2a1" d="M 0 7.5 
C 1.989023 7.5 3.896849 6.709753 5.303301 5.303301 
C 6.709753 3.896849 7.5 1.989023 7.5 0 
C 7.5 -1.989023 6.709753 -3.896849 5.303301 -5.303301 
C 3.896849 -6.709753 1.989023 -7.5 0 -7.5 
C -1.989023 -7.5 -3.896849 -6.709753 -5.303301 -5.303301 
C -6.709753 -3.896849 -7.5 -1.989023 -7.5 0 
C -7.5 1.989023 -6.709753 3.896849 -5.303301 5.303301 
C -3.896849 6.709753 -1.989023 7.5 0 7.5 
z
" style="stroke: #ff0000; stroke-width: 3"/>
    </defs>
    <g clip-path="url(#pab4091a2ca)">
     <use xlink:href="#m1c6e13b2a1" x="310.533637" y="213.279683" style="fill-opacity: 0; stroke: #ff0000; stroke-width: 3"/>
     <use xlink:href="#m1c6e13b2a1" x="338.2968" y="98.307802" style="fill-opacity: 0; stroke: #ff0000; stroke-width: 3"/>
     <use xlink:href="#m1c6e13b2a1" x="352.43497" y="71.48103" style="fill-opacity: 0; stroke: #ff0000; stroke-width: 3"/>
     <use xlink:href="#m1c6e13b2a1" x="427.084678" y="17.827485" style="fill-opacity: 0; stroke: #ff0000; stroke-width: 3"/>
     <use xlink:href="#m1c6e13b2a1" x="427.084678" y="13.995089" style="fill-opacity: 0; stroke: #ff0000; stroke-width: 3"/>
    </g>
   </g>
   <g id="line2d_72">
    <path clip-path="url(#pab4091a2ca)" style="fill: none; stroke: #ff0000; stroke-width: 3; stroke-linecap: square"/>
   </g>
   <g id="line2d_73">
    <path d="M 423.800003 293.76 
L 423.800003 3.456 
" clip-path="url(#pab4091a2ca)" style="fill: none; stroke: #000000; stroke-width: 1.5; stroke-linecap: square"/>
    <defs>
     <path id="m3305fe33f4" d="M -10 0 
L 10 0 
M 0 10 
L 0 -10 
" style="stroke: #000000; stroke-width: 3"/>
    </defs>
    <g clip-path="url(#pab4091a2ca)">
     <use xlink:href="#m3305fe33f4" x="423.800003" y="293.76" style="stroke: #000000; stroke-width: 3"/>
     <use xlink:href="#m3305fe33f4" x="423.800003" y="3.456" style="stroke: #000000; stroke-width: 3"/>
    </g>
   </g>
   <g id="line2d_74">
    <path d="M 431.821161 293.76 
L 431.821161 3.456 
" clip-path="url(#pab4091a2ca)" style="fill: none; stroke: #000000; stroke-width: 1.5; stroke-linecap: square"/>
    <defs>
     <path id="mf429c42cce" d="M 0 7.5 
C 1.989023 7.5 3.896849 6.709753 5.303301 5.303301 
C 6.709753 3.896849 7.5 1.989023 7.5 0 
C 7.5 -1.989023 6.709753 -3.896849 5.303301 -5.303301 
C 3.896849 -6.709753 1.989023 -7.5 0 -7.5 
C -1.989023 -7.5 -3.896849 -6.709753 -5.303301 -5.303301 
C -6.709753 -3.896849 -7.5 -1.989023 -7.5 0 
C -7.5 1.989023 -6.709753 3.896849 -5.303301 5.303301 
C -3.896849 6.709753 -1.989023 7.5 0 7.5 
z
" style="stroke: #000000; stroke-width: 3"/>
    </defs>
    <g clip-path="url(#pab4091a2ca)">
     <use xlink:href="#mf429c42cce" x="431.821161" y="293.76" style="fill-opacity: 0; stroke: #000000; stroke-width: 3"/>
     <use xlink:href="#mf429c42cce" x="431.821161" y="3.456" style="fill-opacity: 0; stroke: #000000; stroke-width: 3"/>
    </g>
   </g>
   <g id="patch_3">
    <path d="M 62.208 293.76 
L 62.208 3.456 
" style="fill: none; stroke: #000000; stroke-width: 0.8; stroke-linejoin: miter; stroke-linecap: square"/>
   </g>
   <g id="patch_4">
    <path d="M 460.8 293.76 
L 460.8 3.456 
" style="fill: none; stroke: #000000; stroke-width: 0.8; stroke-linejoin: miter; stroke-linecap: square"/>
   </g>
   <g id="patch_5">
    <path d="M 62.208 293.76 
L 460.8 293.76 
" style="fill: none; stroke: #000000; stroke-width: 0.8; stroke-linejoin: miter; stroke-linecap: square"/>
   </g>
   <g id="patch_6">
    <path d="M 62.208 3.456 
L 460.8 3.456 
" style="fill: none; stroke: #000000; stroke-width: 0.8; stroke-linejoin: miter; stroke-linecap: square"/>
   </g>
   <g id="text_12">
    <!-- f15-f19 -->
    <g transform="translate(225.405563 24.458955)scale(0.2 -0.2)">
     <defs>
      <path id="DejaVuSans-35" d="M 691 4666 
L 3169 4666 
L 3169 4134 
L 1269 4134 
L 1269 2991 
Q 1406 3038 1543 3061 
Q 1681 3084 1819 3084 
Q 2600 3084 3056 2656 
Q 3513 2228 3513 1497 
Q 3513 744 3044 326 
Q 2575 -91 1722 -91 
Q 1428 -91 1123 -41 
Q 819 9 494 109 
L 494 744 
Q 775 591 1075 516 
Q 1375 441 1709 441 
Q 2250 441 2565 725 
Q 2881 1009 2881 1497 
Q 2881 1984 2565 2268 
Q 2250 2553 1709 2553 
Q 1456 2553 1204 2497 
Q 953 2441 691 2322 
L 691 4666 
z
" transform="scale(0.015625)"/>
      <path id="DejaVuSans-2d" d="M 313 2009 
L 1997 2009 
L 1997 1497 
L 313 1497 
L 313 2009 
z
" transform="scale(0.015625)"/>
      <path id="DejaVuSans-39" d="M 703 97 
L 703 672 
Q 941 559 1184 500 
Q 1428 441 1663 441 
Q 2288 441 2617 861 
Q 2947 1281 2994 2138 
Q 2813 1869 2534 1725 
Q 2256 1581 1919 1581 
Q 1219 1581 811 2004 
Q 403 2428 403 3163 
Q 403 3881 828 4315 
Q 1253 4750 1959 4750 
Q 2769 4750 3195 4129 
Q 3622 3509 3622 2328 
Q 3622 1225 3098 567 
Q 2575 -91 1691 -91 
Q 1453 -91 1209 -44 
Q 966 3 703 97 
z
M 1959 2075 
Q 2384 2075 2632 2365 
Q 2881 2656 2881 3163 
Q 2881 3666 2632 3958 
Q 2384 4250 1959 4250 
Q 1534 4250 1286 3958 
Q 1038 3666 1038 3163 
Q 1038 2656 1286 2365 
Q 1534 2075 1959 2075 
z
" transform="scale(0.015625)"/>
     </defs>
     <use xlink:href="#DejaVuSans-66"/>
     <use xlink:href="#DejaVuSans-31" x="35.205078"/>
     <use xlink:href="#DejaVuSans-35" x="98.828125"/>
     <use xlink:href="#DejaVuSans-2d" x="162.451172"/>
     <use xlink:href="#DejaVuSans-66" x="198.535156"/>
     <use xlink:href="#DejaVuSans-31" x="233.740234"/>
     <use xlink:href="#DejaVuSans-39" x="297.363281"/>
    </g>
   </g>
   <g id="text_13">
    <!-- absolute targets -->
    <g transform="translate(62.208 609.932673)scale(0.14 -0.14)">
     <defs>
      <path id="DejaVuSans-62" d="M 3116 1747 
Q 3116 2381 2855 2742 
Q 2594 3103 2138 3103 
Q 1681 3103 1420 2742 
Q 1159 2381 1159 1747 
Q 1159 1113 1420 752 
Q 1681 391 2138 391 
Q 2594 391 2855 752 
Q 3116 1113 3116 1747 
z
M 1159 2969 
Q 1341 3281 1617 3432 
Q 1894 3584 2278 3584 
Q 2916 3584 3314 3078 
Q 3713 2572 3713 1747 
Q 3713 922 3314 415 
Q 2916 -91 2278 -91 
Q 1894 -91 1617 61 
Q 1341 213 1159 525 
L 1159 0 
L 581 0 
L 581 4863 
L 1159 4863 
L 1159 2969 
z
" transform="scale(0.015625)"/>
      <path id="DejaVuSans-75" d="M 544 1381 
L 544 3500 
L 1119 3500 
L 1119 1403 
Q 1119 906 1312 657 
Q 1506 409 1894 409 
Q 2359 409 2629 706 
Q 2900 1003 2900 1516 
L 2900 3500 
L 3475 3500 
L 3475 0 
L 2900 0 
L 2900 538 
Q 2691 219 2414 64 
Q 2138 -91 1772 -91 
Q 1169 -91 856 284 
Q 544 659 544 1381 
z
M 1991 3584 
L 1991 3584 
z
" transform="scale(0.015625)"/>
      <path id="DejaVuSans-65" d="M 3597 1894 
L 3597 1613 
L 953 1613 
Q 991 1019 1311 708 
Q 1631 397 2203 397 
Q 2534 397 2845 478 
Q 3156 559 3463 722 
L 3463 178 
Q 3153 47 2828 -22 
Q 2503 -91 2169 -91 
Q 1331 -91 842 396 
Q 353 884 353 1716 
Q 353 2575 817 3079 
Q 1281 3584 2069 3584 
Q 2775 3584 3186 3129 
Q 3597 2675 3597 1894 
z
M 3022 2063 
Q 3016 2534 2758 2815 
Q 2500 3097 2075 3097 
Q 1594 3097 1305 2825 
Q 1016 2553 972 2059 
L 3022 2063 
z
" transform="scale(0.015625)"/>
     </defs>
     <use xlink:href="#DejaVuSans-61"/>
     <use xlink:href="#DejaVuSans-62" x="61.279297"/>
     <use xlink:href="#DejaVuSans-73" x="124.755859"/>
     <use xlink:href="#DejaVuSans-6f" x="176.855469"/>
     <use xlink:href="#DejaVuSans-6c" x="238.037109"/>
     <use xlink:href="#DejaVuSans-75" x="265.820312"/>
     <use xlink:href="#DejaVuSans-74" x="329.199219"/>
     <use xlink:href="#DejaVuSans-65" x="368.408203"/>
     <use xlink:href="#DejaVuSans-20" x="429.931641"/>
     <use xlink:href="#DejaVuSans-74" x="461.71875"/>
     <use xlink:href="#DejaVuSans-61" x="500.927734"/>
     <use xlink:href="#DejaVuSans-72" x="562.207031"/>
     <use xlink:href="#DejaVuSans-67" x="601.570312"/>
     <use xlink:href="#DejaVuSans-65" x="665.046875"/>
     <use xlink:href="#DejaVuSans-74" x="726.570312"/>
     <use xlink:href="#DejaVuSans-73" x="765.779297"/>
    </g>
   </g>
   <g id="text_14">
    <!-- v2.6.1.158 -->
    <g style="fill: #808080" transform="translate(234.689938 288.777272)scale(0.1 -0.1)">
     <use xlink:href="#DejaVuSans-76"/>
     <use xlink:href="#DejaVuSans-32" x="59.179688"/>
     <use xlink:href="#DejaVuSans-2e" x="122.802734"/>
     <use xlink:href="#DejaVuSans-36" x="154.589844"/>
     <use xlink:href="#DejaVuSans-2e" x="218.212891"/>
     <use xlink:href="#DejaVuSans-31" x="250"/>
     <use xlink:href="#DejaVuSans-2e" x="313.623047"/>
     <use xlink:href="#DejaVuSans-31" x="345.410156"/>
     <use xlink:href="#DejaVuSans-35" x="409.033203"/>
     <use xlink:href="#DejaVuSans-38" x="472.65625"/>
    </g>
   </g>
   <g id="legend_1">
    <g id="patch_7">
     <path d="M 76.208 136.881 
L 160.148625 136.881 
Q 164.148625 136.881 164.148625 132.881 
L 164.148625 17.456 
Q 164.148625 13.456 160.148625 13.456 
L 76.208 13.456 
Q 72.208 13.456 72.208 17.456 
L 72.208 132.881 
Q 72.208 136.881 76.208 136.881 
z
" style="fill: #ffffff; opacity: 0.2; stroke: #cccccc; stroke-linejoin: miter"/>
    </g>
    <g id="line2d_75">
     <path d="M 80.208 29.652875 
L 80.208 29.652875 
L 100.208 29.652875 
L 100.208 29.652875 
L 120.208 29.652875 
" style="fill: none; stroke: #000000; stroke-width: 1.5; stroke-linecap: square"/>
    </g>
    <g id="text_15">
     <!-- 1 -->
     <g transform="translate(136.208 36.652875)scale(0.2 -0.2)">
      <use xlink:href="#DejaVuSans-31"/>
     </g>
    </g>
    <g id="line2d_76">
     <path d="M 80.208 59.009125 
L 80.208 59.009125 
L 100.208 59.009125 
L 100.208 59.009125 
L 120.208 59.009125 
" style="fill: none; stroke: #00bfbf; stroke-width: 1.5; stroke-linecap: square"/>
    </g>
    <g id="text_16">
     <!-- -1 -->
     <g transform="translate(136.208 66.009125)scale(0.2 -0.2)">
      <use xlink:href="#DejaVuSans-2d"/>
      <use xlink:href="#DejaVuSans-31" x="36.083984"/>
     </g>
    </g>
    <g id="line2d_77">
     <path d="M 80.208 88.365375 
L 80.208 88.365375 
L 100.208 88.365375 
L 100.208 88.365375 
L 120.208 88.365375 
" style="fill: none; stroke: #bf00bf; stroke-width: 1.5; stroke-linecap: square"/>
    </g>
    <g id="text_17">
     <!-- -4 -->
     <g transform="translate(136.208 95.365375)scale(0.2 -0.2)">
      <use xlink:href="#DejaVuSans-2d"/>
      <use xlink:href="#DejaVuSans-34" x="36.083984"/>
     </g>
    </g>
    <g id="line2d_78">
     <path d="M 80.208 117.721625 
L 80.208 117.721625 
L 100.208 117.721625 
L 100.208 117.721625 
L 120.208 117.721625 
" style="fill: none; stroke: #ff0000; stroke-width: 3; stroke-linecap: square"/>
    </g>
    <g id="text_18">
     <!-- -8 -->
     <g transform="translate(136.208 124.721625)scale(0.2 -0.2)">
      <use xlink:href="#DejaVuSans-2d"/>
      <use xlink:href="#DejaVuSans-38" x="36.083984"/>
     </g>
    </g>
   </g>
  </g>
 </g>
 <defs>
  <clipPath id="pab4091a2ca">
   <rect x="62.208" y="3.456" width="398.592" height="290.304"/>
  </clipPath>
 </defs>
</svg>
