<?xml version="1.0" encoding="utf-8" standalone="no"?>
<!DOCTYPE svg PUBLIC "-//W3C//DTD SVG 1.1//EN"
  "http://www.w3.org/Graphics/SVG/1.1/DTD/svg11.dtd">
<svg xmlns:xlink="http://www.w3.org/1999/xlink" width="460.8pt" height="345.6pt" viewBox="0 0 460.8 345.6" xmlns="http://www.w3.org/2000/svg" version="1.1">
 <metadata>
  <rdf:RDF xmlns:dc="http://purl.org/dc/elements/1.1/" xmlns:cc="http://creativecommons.org/ns#" xmlns:rdf="http://www.w3.org/1999/02/22-rdf-syntax-ns#">
   <cc:Work>
    <dc:type rdf:resource="http://purl.org/dc/dcmitype/StillImage"/>
    <dc:date>2023-04-07T14:49:10.342721</dc:date>
    <dc:format>image/svg+xml</dc:format>
    <dc:creator>
     <cc:Agent>
      <dc:title>Matplotlib v3.5.2, https://matplotlib.org/</dc:title>
     </cc:Agent>
    </dc:creator>
   </cc:Work>
  </rdf:RDF>
 </metadata>
 <defs>
  <style type="text/css">*{stroke-linejoin: round; stroke-linecap: butt}</style>
 </defs>
 <g id="figure_1">
  <g id="patch_1">
   <path d="M 0 345.6 
L 460.8 345.6 
L 460.8 0 
L 0 0 
z
" style="fill: #ffffff"/>
  </g>
  <g id="axes_1">
   <g id="patch_2">
    <path d="M 0 293.76 
L 460.8 293.76 
L 460.8 3.456 
L 0 3.456 
z
" style="fill: #ffffff"/>
   </g>
   <g id="matplotlib.axis_1">
    <g id="xtick_1">
     <g id="line2d_1">
      <path d="M 102.092211 293.76 
L 102.092211 3.456 
" clip-path="url(#pfe0294ddf6)" style="fill: none; stroke: #b0b0b0; stroke-width: 0.8; stroke-linecap: square"/>
     </g>
     <g id="line2d_2">
      <defs>
       <path id="m1a5060a765" d="M 0 0 
L 0 3.5 
" style="stroke: #000000; stroke-width: 0.8"/>
      </defs>
      <g>
       <use xlink:href="#m1a5060a765" x="102.092211" y="293.76" style="stroke: #000000; stroke-width: 0.8"/>
      </g>
     </g>
     <g id="text_1">
      <!-- -4 -->
      <g transform="translate(92.121899 315.956875)scale(0.2 -0.2)">
       <defs>
        <path id="DejaVuSans-2d" d="M 313 2009 
L 1997 2009 
L 1997 1497 
L 313 1497 
L 313 2009 
z
" transform="scale(0.015625)"/>
        <path id="DejaVuSans-34" d="M 2419 4116 
L 825 1625 
L 2419 1625 
L 2419 4116 
z
M 2253 4666 
L 3047 4666 
L 3047 1625 
L 3713 1625 
L 3713 1100 
L 3047 1100 
L 3047 0 
L 2419 0 
L 2419 1100 
L 313 1100 
L 313 1709 
L 2253 4666 
z
" transform="scale(0.015625)"/>
       </defs>
       <use xlink:href="#DejaVuSans-2d"/>
       <use xlink:href="#DejaVuSans-34" x="36.083984"/>
      </g>
     </g>
    </g>
    <g id="xtick_2">
     <g id="line2d_3">
      <path d="M 204.294836 293.76 
L 204.294836 3.456 
" clip-path="url(#pfe0294ddf6)" style="fill: none; stroke: #b0b0b0; stroke-width: 0.8; stroke-linecap: square"/>
     </g>
     <g id="line2d_4">
      <g>
       <use xlink:href="#m1a5060a765" x="204.294836" y="293.76" style="stroke: #000000; stroke-width: 0.8"/>
      </g>
     </g>
     <g id="text_2">
      <!-- 0 -->
      <g transform="translate(197.932336 315.956875)scale(0.2 -0.2)">
       <defs>
        <path id="DejaVuSans-30" d="M 2034 4250 
Q 1547 4250 1301 3770 
Q 1056 3291 1056 2328 
Q 1056 1369 1301 889 
Q 1547 409 2034 409 
Q 2525 409 2770 889 
Q 3016 1369 3016 2328 
Q 3016 3291 2770 3770 
Q 2525 4250 2034 4250 
z
M 2034 4750 
Q 2819 4750 3233 4129 
Q 3647 3509 3647 2328 
Q 3647 1150 3233 529 
Q 2819 -91 2034 -91 
Q 1250 -91 836 529 
Q 422 1150 422 2328 
Q 422 3509 836 4129 
Q 1250 4750 2034 4750 
z
" transform="scale(0.015625)"/>
       </defs>
       <use xlink:href="#DejaVuSans-30"/>
      </g>
     </g>
    </g>
    <g id="xtick_3">
     <g id="line2d_5">
      <path d="M 306.497461 293.76 
L 306.497461 3.456 
" clip-path="url(#pfe0294ddf6)" style="fill: none; stroke: #b0b0b0; stroke-width: 0.8; stroke-linecap: square"/>
     </g>
     <g id="line2d_6">
      <g>
       <use xlink:href="#m1a5060a765" x="306.497461" y="293.76" style="stroke: #000000; stroke-width: 0.8"/>
      </g>
     </g>
     <g id="text_3">
      <!-- 4 -->
      <g transform="translate(300.134961 315.956875)scale(0.2 -0.2)">
       <use xlink:href="#DejaVuSans-34"/>
      </g>
     </g>
    </g>
    <g id="xtick_4">
     <g id="line2d_7">
      <path d="M 408.700086 293.76 
L 408.700086 3.456 
" clip-path="url(#pfe0294ddf6)" style="fill: none; stroke: #b0b0b0; stroke-width: 0.8; stroke-linecap: square"/>
     </g>
     <g id="line2d_8">
      <g>
       <use xlink:href="#m1a5060a765" x="408.700086" y="293.76" style="stroke: #000000; stroke-width: 0.8"/>
      </g>
     </g>
     <g id="text_4">
      <!-- 8 -->
      <g transform="translate(402.337586 315.956875)scale(0.2 -0.2)">
       <defs>
        <path id="DejaVuSans-38" d="M 2034 2216 
Q 1584 2216 1326 1975 
Q 1069 1734 1069 1313 
Q 1069 891 1326 650 
Q 1584 409 2034 409 
Q 2484 409 2743 651 
Q 3003 894 3003 1313 
Q 3003 1734 2745 1975 
Q 2488 2216 2034 2216 
z
M 1403 2484 
Q 997 2584 770 2862 
Q 544 3141 544 3541 
Q 544 4100 942 4425 
Q 1341 4750 2034 4750 
Q 2731 4750 3128 4425 
Q 3525 4100 3525 3541 
Q 3525 3141 3298 2862 
Q 3072 2584 2669 2484 
Q 3125 2378 3379 2068 
Q 3634 1759 3634 1313 
Q 3634 634 3220 271 
Q 2806 -91 2034 -91 
Q 1263 -91 848 271 
Q 434 634 434 1313 
Q 434 1759 690 2068 
Q 947 2378 1403 2484 
z
M 1172 3481 
Q 1172 3119 1398 2916 
Q 1625 2713 2034 2713 
Q 2441 2713 2670 2916 
Q 2900 3119 2900 3481 
Q 2900 3844 2670 4047 
Q 2441 4250 2034 4250 
Q 1625 4250 1398 4047 
Q 1172 3844 1172 3481 
z
" transform="scale(0.015625)"/>
       </defs>
       <use xlink:href="#DejaVuSans-38"/>
      </g>
     </g>
    </g>
    <g id="text_5">
     <!-- log10 of Df -->
     <g transform="translate(175.214063 339.313125)scale(0.2 -0.2)">
      <defs>
       <path id="DejaVuSans-6c" d="M 603 4863 
L 1178 4863 
L 1178 0 
L 603 0 
L 603 4863 
z
" transform="scale(0.015625)"/>
       <path id="DejaVuSans-6f" d="M 1959 3097 
Q 1497 3097 1228 2736 
Q 959 2375 959 1747 
Q 959 1119 1226 758 
Q 1494 397 1959 397 
Q 2419 397 2687 759 
Q 2956 1122 2956 1747 
Q 2956 2369 2687 2733 
Q 2419 3097 1959 3097 
z
M 1959 3584 
Q 2709 3584 3137 3096 
Q 3566 2609 3566 1747 
Q 3566 888 3137 398 
Q 2709 -91 1959 -91 
Q 1206 -91 779 398 
Q 353 888 353 1747 
Q 353 2609 779 3096 
Q 1206 3584 1959 3584 
z
" transform="scale(0.015625)"/>
       <path id="DejaVuSans-67" d="M 2906 1791 
Q 2906 2416 2648 2759 
Q 2391 3103 1925 3103 
Q 1463 3103 1205 2759 
Q 947 2416 947 1791 
Q 947 1169 1205 825 
Q 1463 481 1925 481 
Q 2391 481 2648 825 
Q 2906 1169 2906 1791 
z
M 3481 434 
Q 3481 -459 3084 -895 
Q 2688 -1331 1869 -1331 
Q 1566 -1331 1297 -1286 
Q 1028 -1241 775 -1147 
L 775 -588 
Q 1028 -725 1275 -790 
Q 1522 -856 1778 -856 
Q 2344 -856 2625 -561 
Q 2906 -266 2906 331 
L 2906 616 
Q 2728 306 2450 153 
Q 2172 0 1784 0 
Q 1141 0 747 490 
Q 353 981 353 1791 
Q 353 2603 747 3093 
Q 1141 3584 1784 3584 
Q 2172 3584 2450 3431 
Q 2728 3278 2906 2969 
L 2906 3500 
L 3481 3500 
L 3481 434 
z
" transform="scale(0.015625)"/>
       <path id="DejaVuSans-31" d="M 794 531 
L 1825 531 
L 1825 4091 
L 703 3866 
L 703 4441 
L 1819 4666 
L 2450 4666 
L 2450 531 
L 3481 531 
L 3481 0 
L 794 0 
L 794 531 
z
" transform="scale(0.015625)"/>
       <path id="DejaVuSans-20" transform="scale(0.015625)"/>
       <path id="DejaVuSans-66" d="M 2375 4863 
L 2375 4384 
L 1825 4384 
Q 1516 4384 1395 4259 
Q 1275 4134 1275 3809 
L 1275 3500 
L 2222 3500 
L 2222 3053 
L 1275 3053 
L 1275 0 
L 697 0 
L 697 3053 
L 147 3053 
L 147 3500 
L 697 3500 
L 697 3744 
Q 697 4328 969 4595 
Q 1241 4863 1831 4863 
L 2375 4863 
z
" transform="scale(0.015625)"/>
       <path id="DejaVuSans-44" d="M 1259 4147 
L 1259 519 
L 2022 519 
Q 2988 519 3436 956 
Q 3884 1394 3884 2338 
Q 3884 3275 3436 3711 
Q 2988 4147 2022 4147 
L 1259 4147 
z
M 628 4666 
L 1925 4666 
Q 3281 4666 3915 4102 
Q 4550 3538 4550 2338 
Q 4550 1131 3912 565 
Q 3275 0 1925 0 
L 628 0 
L 628 4666 
z
" transform="scale(0.015625)"/>
      </defs>
      <use xlink:href="#DejaVuSans-6c"/>
      <use xlink:href="#DejaVuSans-6f" x="27.783203"/>
      <use xlink:href="#DejaVuSans-67" x="88.964844"/>
      <use xlink:href="#DejaVuSans-31" x="152.441406"/>
      <use xlink:href="#DejaVuSans-30" x="216.064453"/>
      <use xlink:href="#DejaVuSans-20" x="279.6875"/>
      <use xlink:href="#DejaVuSans-6f" x="311.474609"/>
      <use xlink:href="#DejaVuSans-66" x="372.65625"/>
      <use xlink:href="#DejaVuSans-20" x="407.861328"/>
      <use xlink:href="#DejaVuSans-44" x="439.648438"/>
      <use xlink:href="#DejaVuSans-66" x="516.650391"/>
     </g>
    </g>
   </g>
   <g id="matplotlib.axis_2">
    <g id="ytick_1">
     <g id="line2d_9">
      <path d="M 0 293.76 
L 460.8 293.76 
" clip-path="url(#pfe0294ddf6)" style="fill: none; stroke: #b0b0b0; stroke-width: 0.8; stroke-linecap: square"/>
     </g>
     <g id="line2d_10">
      <defs>
       <path id="m2f0062915c" d="M 0 0 
L -3.5 0 
" style="stroke: #000000; stroke-width: 0.8"/>
      </defs>
      <g>
       <use xlink:href="#m2f0062915c" x="0" y="293.76" style="stroke: #000000; stroke-width: 0.8"/>
      </g>
     </g>
    </g>
    <g id="ytick_2">
     <g id="line2d_11">
      <path d="M 0 236.274059 
L 460.8 236.274059 
" clip-path="url(#pfe0294ddf6)" style="fill: none; stroke: #b0b0b0; stroke-width: 0.8; stroke-linecap: square"/>
     </g>
     <g id="line2d_12">
      <g>
       <use xlink:href="#m2f0062915c" x="0" y="236.274059" style="stroke: #000000; stroke-width: 0.8"/>
      </g>
     </g>
    </g>
    <g id="ytick_3">
     <g id="line2d_13">
      <path d="M 0 178.788119 
L 460.8 178.788119 
" clip-path="url(#pfe0294ddf6)" style="fill: none; stroke: #b0b0b0; stroke-width: 0.8; stroke-linecap: square"/>
     </g>
     <g id="line2d_14">
      <g>
       <use xlink:href="#m2f0062915c" x="0" y="178.788119" style="stroke: #000000; stroke-width: 0.8"/>
      </g>
     </g>
    </g>
    <g id="ytick_4">
     <g id="line2d_15">
      <path d="M 0 121.302178 
L 460.8 121.302178 
" clip-path="url(#pfe0294ddf6)" style="fill: none; stroke: #b0b0b0; stroke-width: 0.8; stroke-linecap: square"/>
     </g>
     <g id="line2d_16">
      <g>
       <use xlink:href="#m2f0062915c" x="0" y="121.302178" style="stroke: #000000; stroke-width: 0.8"/>
      </g>
     </g>
    </g>
    <g id="ytick_5">
     <g id="line2d_17">
      <path d="M 0 63.816238 
L 460.8 63.816238 
" clip-path="url(#pfe0294ddf6)" style="fill: none; stroke: #b0b0b0; stroke-width: 0.8; stroke-linecap: square"/>
     </g>
     <g id="line2d_18">
      <g>
       <use xlink:href="#m2f0062915c" x="0" y="63.816238" style="stroke: #000000; stroke-width: 0.8"/>
      </g>
     </g>
    </g>
    <g id="ytick_6">
     <g id="line2d_19">
      <path d="M 0 6.330297 
L 460.8 6.330297 
" clip-path="url(#pfe0294ddf6)" style="fill: none; stroke: #b0b0b0; stroke-width: 0.8; stroke-linecap: square"/>
     </g>
     <g id="line2d_20">
      <g>
       <use xlink:href="#m2f0062915c" x="0" y="6.330297" style="stroke: #000000; stroke-width: 0.8"/>
      </g>
     </g>
    </g>
   </g>
   <g id="line2d_21">
    <path d="M -1 129.286337 
L -0.999337 129.286337 
L -0.903279 126.092673 
L -0.813975 126.092673 
L -0.716153 122.100594 
L -0.64315 122.100594 
L -0.597729 118.906931 
L -0.50017 118.906931 
L -0.430631 113.31802 
L -0.386862 113.31802 
L -0.282424 108.527525 
L -0.230057 108.527525 
L -0.15376 102.140198 
L -0.110414 102.140198 
L -0.110414 90.16396 
L 23.044279 90.16396 
L 23.044279 89.365545 
L 39.477219 89.365545 
L 39.477219 88.567129 
L 91.056739 88.567129 
L 91.138623 86.970297 
L 91.54488 86.970297 
L 91.54488 86.171881 
L 134.988308 86.171881 
L 134.988308 85.373465 
L 138.092538 85.373465 
L 138.107994 82.978218 
L 147.595155 82.978218 
L 147.595155 82.179802 
L 149.64577 82.179802 
L 149.64577 81.381386 
L 156.639277 81.381386 
L 156.639277 80.58297 
L 158.405645 80.58297 
L 158.413194 78.986139 
L 162.374789 78.986139 
L 162.374789 78.187723 
L 163.007674 78.187723 
L 163.007674 77.389307 
L 166.941813 77.389307 
L 166.941813 76.590891 
L 169.823897 76.590891 
L 169.823897 75.792475 
L 172.930442 75.792475 
L 172.930442 74.195644 
L 173.848611 74.195644 
L 173.848611 73.397228 
L 174.613367 73.397228 
L 174.613367 72.598812 
L 176.100356 72.598812 
L 176.100356 71.800396 
L 179.401233 71.800396 
L 179.401233 71.00198 
L 180.621956 71.00198 
L 180.621956 68.606733 
L 200.207147 68.606733 
L 200.207147 59.025743 
L 201.997424 59.025743 
L 201.997424 58.227327 
L 206.666202 58.227327 
L 206.728753 56.630495 
L 207.037547 56.630495 
L 207.037547 55.832079 
L 207.336399 55.832079 
L 207.336399 55.033663 
L 208.012196 55.033663 
L 208.012196 54.235248 
L 208.611555 54.235248 
L 208.611555 53.436832 
L 208.906375 53.436832 
L 208.906375 52.638416 
L 209.250685 52.638416 
L 209.250685 51.84 
L 211.635428 51.84 
L 211.73382 47.847921 
L 211.930272 47.847921 
L 211.982937 46.251089 
L 212.625784 46.251089 
L 212.625784 44.654257 
L 214.857263 44.654257 
L 214.857263 43.057426 
L 216.429519 43.057426 
L 216.429519 41.460594 
L 219.621786 41.460594 
L 219.621786 37.468515 
L 222.0979 37.468515 
L 222.0979 35.073267 
L 222.292345 35.073267 
L 222.292345 34.274851 
L 222.722408 34.274851 
L 222.722408 33.476436 
L 224.121033 33.476436 
L 224.121033 30.282772 
L 227.442601 30.282772 
L 227.442601 29.484356 
L 228.944835 29.484356 
L 228.944835 28.685941 
L 230.871049 28.685941 
L 230.871049 27.887525 
L 231.812547 27.887525 
L 231.812547 26.290693 
L 232.700741 26.290693 
L 232.700741 22.298614 
L 233.523077 22.298614 
L 233.523081 16.709703 
L 234.190541 16.709703 
L 234.288657 15.112871 
L 237.074162 15.112871 
L 237.074162 14.314455 
L 237.647771 14.314455 
L 237.757729 7.927129 
L 237.761352 7.927129 
L 237.859993 6.330297 
L 237.859993 6.330297 
L 460.8 6.330297 
L 460.8 6.330297 
" clip-path="url(#pfe0294ddf6)" style="fill: none; stroke: #ff0000; stroke-width: 3; stroke-linecap: square"/>
   </g>
   <g id="line2d_22">
    <path d="M 188.928385 293.76 
L 188.928385 281.783762 
L 219.272956 281.783762 
L 219.272956 280.985347 
L 225.045314 280.985347 
L 225.045314 280.186931 
L 225.592834 280.186931 
L 225.693857 278.590099 
L 225.924798 278.590099 
L 225.985467 276.993267 
L 226.106158 276.993267 
L 226.154638 275.396436 
L 226.376189 275.396436 
L 226.376189 274.59802 
L 226.598168 274.59802 
L 226.598168 273.799604 
L 227.371504 273.799604 
L 227.371504 273.001188 
L 227.821741 273.001188 
L 227.821741 272.202772 
L 228.836331 272.202772 
L 228.836331 271.404356 
L 230.157206 271.404356 
L 230.196407 269.009109 
L 230.383034 269.009109 
L 230.383034 268.210693 
L 230.798363 268.210693 
L 230.798363 267.412277 
L 230.930513 267.412277 
L 230.930513 266.613861 
L 231.251493 266.613861 
L 231.251493 265.815446 
L 232.816714 265.815446 
L 232.816714 265.01703 
L 234.671132 265.01703 
L 234.671132 264.218614 
L 234.814559 264.218614 
L 234.814559 263.420198 
L 236.122728 263.420198 
L 236.122728 262.621782 
L 236.877043 262.621782 
L 236.877043 261.823366 
L 238.319435 261.823366 
L 238.319435 261.02495 
L 239.345099 261.02495 
L 239.345099 260.226535 
L 239.65604 260.226535 
L 239.65604 259.428119 
L 239.858567 259.428119 
L 239.858567 258.629703 
L 240.025658 258.629703 
L 240.025658 257.831287 
L 241.231842 257.831287 
L 241.231842 257.032871 
L 242.831882 257.032871 
L 242.831882 256.234455 
L 243.113026 256.234455 
L 243.113026 255.43604 
L 243.257451 255.43604 
L 243.257451 254.637624 
L 243.372042 254.637624 
L 243.372042 253.839208 
L 244.30423 253.839208 
L 244.358764 252.242376 
L 244.900368 252.242376 
L 244.900368 251.44396 
L 245.420518 251.44396 
L 245.442656 249.048713 
L 245.706953 249.048713 
L 245.747873 247.451881 
L 245.852269 247.451881 
L 245.928176 245.85505 
L 245.966643 245.85505 
L 245.966643 245.056634 
L 246.119588 245.056634 
L 246.119588 244.258218 
L 246.234244 244.258218 
L 246.312339 241.064554 
L 246.867855 241.064554 
L 246.867855 240.266139 
L 247.569207 240.266139 
L 247.569207 239.467723 
L 247.763253 239.467723 
L 247.763253 238.669307 
L 247.94532 238.669307 
L 248.002968 237.072475 
L 248.102909 237.072475 
L 248.102909 236.274059 
L 248.284025 236.274059 
L 248.284025 235.475644 
L 248.481844 235.475644 
L 248.577019 233.878812 
L 248.884435 233.878812 
L 248.887246 232.28198 
L 249.100204 232.28198 
L 249.100204 231.483564 
L 249.494587 231.483564 
L 249.494587 230.685149 
L 249.848311 230.685149 
L 249.93616 229.088317 
L 250.363079 229.088317 
L 250.466813 226.693069 
L 250.703317 226.693069 
L 250.767939 225.096238 
L 251.681906 225.096238 
L 251.746897 223.499406 
L 251.838554 223.499406 
L 251.927642 221.902574 
L 252.27871 221.902574 
L 252.383093 219.507327 
L 252.416253 219.507327 
L 252.519335 215.515248 
L 252.535836 215.515248 
L 252.592757 212.321584 
L 252.666962 212.321584 
L 252.76064 208.329505 
L 252.848626 208.329505 
L 252.925297 204.337426 
L 253.108595 204.337426 
L 253.203353 200.345347 
L 253.231987 200.345347 
L 253.33694 198.748515 
L 253.758107 198.748515 
L 253.758107 197.950099 
L 253.997652 197.950099 
L 253.997652 197.151683 
L 254.198969 197.151683 
L 254.198969 196.353267 
L 254.822139 196.353267 
L 254.822139 195.554851 
L 254.951201 195.554851 
L 254.951201 194.756436 
L 255.109036 194.756436 
L 255.109036 193.95802 
L 255.428021 193.95802 
L 255.428021 193.159604 
L 255.814393 193.159604 
L 255.814393 192.361188 
L 256.24281 192.361188 
L 256.294269 190.764356 
L 256.396444 190.764356 
L 256.396444 189.965941 
L 257.481968 189.965941 
L 257.481968 189.167525 
L 257.706175 189.167525 
L 257.738299 175.594455 
L 259.476623 175.594455 
L 259.476623 174.79604 
L 260.058287 174.79604 
L 260.058287 173.997624 
L 262.503974 173.997624 
L 262.503974 173.199208 
L 266.999774 173.199208 
L 266.999774 172.400792 
L 267.501558 172.400792 
L 267.55784 170.80396 
L 267.887619 170.80396 
L 267.973943 169.207129 
L 268.061618 169.207129 
L 268.110983 166.811881 
L 268.193905 166.811881 
L 268.210199 165.21505 
L 268.313483 165.21505 
L 268.313483 164.416634 
L 268.425663 164.416634 
L 268.425663 163.618218 
L 268.547016 163.618218 
L 268.547016 162.819802 
L 268.669486 162.819802 
L 268.745201 160.424554 
L 268.822959 160.424554 
L 268.837646 158.827723 
L 268.961685 158.827723 
L 269.049164 156.432475 
L 269.079997 156.432475 
L 269.146229 154.835644 
L 269.23711 154.835644 
L 269.342282 150.843564 
L 269.48968 150.843564 
L 269.570172 149.246733 
L 269.759886 149.246733 
L 269.858555 147.649901 
L 269.993199 147.649901 
L 269.993199 146.851485 
L 270.196382 146.851485 
L 270.196382 146.053069 
L 272.560317 146.053069 
L 272.560317 145.254653 
L 272.976568 145.254653 
L 272.976568 144.456238 
L 273.105979 144.456238 
L 273.105979 143.657822 
L 273.59781 143.657822 
L 273.658201 142.06099 
L 273.983937 142.06099 
L 273.983937 141.262574 
L 274.101979 141.262574 
L 274.101979 140.464158 
L 274.259349 140.464158 
L 274.259349 139.665743 
L 274.394617 139.665743 
L 274.482552 138.068911 
L 274.531336 138.068911 
L 274.531336 137.270495 
L 274.786247 137.270495 
L 274.797276 135.673663 
L 274.932483 135.673663 
L 274.932483 134.875248 
L 275.178661 134.875248 
L 275.178661 134.076832 
L 275.447151 134.076832 
L 275.447151 133.278416 
L 275.606468 133.278416 
L 275.646941 130.883168 
L 275.814012 130.883168 
L 275.871152 129.286337 
L 276.042833 129.286337 
L 276.042833 128.487921 
L 276.164138 128.487921 
L 276.230504 126.891089 
L 276.305054 126.891089 
L 276.326453 125.294257 
L 276.891426 125.294257 
L 276.997802 123.697426 
L 277.037211 123.697426 
L 277.103318 121.302178 
L 277.152837 121.302178 
L 277.152837 120.503762 
L 277.297405 120.503762 
L 277.332764 118.906931 
L 277.479207 118.906931 
L 277.491944 117.310099 
L 277.682706 117.310099 
L 277.682706 116.511683 
L 278.004897 116.511683 
L 278.098887 114.116436 
L 278.18637 114.116436 
L 278.18637 113.31802 
L 278.415064 113.31802 
L 278.415064 112.519604 
L 278.86025 112.519604 
L 278.970589 110.922772 
L 279.093147 110.922772 
L 279.169892 109.325941 
L 280.004417 109.325941 
L 280.004417 108.527525 
L 280.134405 108.527525 
L 280.134405 107.729109 
L 280.273541 107.729109 
L 280.273541 106.930693 
L 280.57443 106.930693 
L 280.669161 105.333861 
L 280.744355 105.333861 
L 280.744355 104.535446 
L 281.244865 104.535446 
L 281.352309 102.938614 
L 285.72433 102.938614 
L 285.72433 102.140198 
L 286.125251 102.140198 
L 286.125251 101.341782 
L 286.817601 101.341782 
L 286.817601 100.543366 
L 287.307509 100.543366 
L 287.307509 99.74495 
L 287.534278 99.74495 
L 287.588465 98.148119 
L 287.728083 98.148119 
L 287.728083 97.349703 
L 287.926376 97.349703 
L 288.03128 95.752871 
L 288.221612 95.752871 
L 288.221612 94.954455 
L 288.347825 94.954455 
L 288.351551 93.357624 
L 288.74136 93.357624 
L 288.74136 92.559208 
L 289.303436 92.559208 
L 289.303436 91.760792 
L 289.435599 91.760792 
L 289.435599 90.962376 
L 289.787735 90.962376 
L 289.787735 90.16396 
L 290.161034 90.16396 
L 290.161034 89.365545 
L 296.604228 89.365545 
L 296.604228 88.567129 
L 311.001621 88.567129 
L 311.001621 87.768713 
L 313.215148 87.768713 
L 313.215148 75.792475 
L 317.124557 75.792475 
L 317.124557 74.994059 
L 319.582942 74.994059 
L 319.582942 74.195644 
L 320.452488 74.195644 
L 320.452488 73.397228 
L 321.653894 73.397228 
L 321.720849 71.800396 
L 322.696621 71.800396 
L 322.696621 71.00198 
L 322.842745 71.00198 
L 322.842745 70.203564 
L 323.009905 70.203564 
L 323.009905 69.405149 
L 323.59041 69.405149 
L 323.59041 68.606733 
L 325.641513 68.606733 
L 325.641513 67.808317 
L 327.136409 67.808317 
L 327.136409 67.009901 
L 327.592545 67.009901 
L 327.592545 66.211485 
L 327.946061 66.211485 
L 328.041932 64.614653 
L 328.120004 64.614653 
L 328.120004 63.816238 
L 329.234374 63.816238 
L 329.338944 62.219406 
L 330.535466 62.219406 
L 330.535466 61.42099 
L 335.049154 61.42099 
L 335.049154 60.622574 
L 335.684053 60.622574 
L 335.684053 59.824158 
L 339.666769 59.824158 
L 339.666769 59.025743 
L 340.683694 59.025743 
L 340.683694 58.227327 
L 341.234699 58.227327 
L 341.234699 57.428911 
L 342.236587 57.428911 
L 342.236587 56.630495 
L 342.394519 56.630495 
L 342.394519 55.832079 
L 343.519123 55.832079 
L 343.519123 55.033663 
L 344.019115 55.033663 
L 344.019115 54.235248 
L 344.465052 54.235248 
L 344.465052 53.436832 
L 344.922652 53.436832 
L 344.922652 52.638416 
L 345.371885 52.638416 
L 345.44508 51.041584 
L 345.486105 51.041584 
L 345.486105 50.243168 
L 347.084959 50.243168 
L 347.084959 49.444752 
L 347.337709 49.444752 
L 347.337709 48.646337 
L 348.632532 48.646337 
L 348.649466 47.049505 
L 351.635196 47.049505 
L 351.635196 46.251089 
L 352.444733 46.251089 
L 352.514836 44.654257 
L 355.006626 44.654257 
L 355.006626 43.855842 
L 358.343736 43.855842 
L 358.343736 43.057426 
L 359.339518 43.057426 
L 359.339518 42.25901 
L 359.683424 42.25901 
L 359.683424 41.460594 
L 361.813507 41.460594 
L 361.813507 40.662178 
L 364.296559 40.662178 
L 364.296559 39.863762 
L 365.201705 39.863762 
L 365.201705 39.065347 
L 366.889472 39.065347 
L 366.889472 38.266931 
L 368.586462 38.266931 
L 368.586462 37.468515 
L 369.440186 37.468515 
L 369.479302 35.871683 
L 370.132484 35.871683 
L 370.132484 35.073267 
L 370.312732 35.073267 
L 370.378439 33.476436 
L 371.558571 33.476436 
L 371.558571 32.67802 
L 372.008358 32.67802 
L 372.008358 31.879604 
L 372.145574 31.879604 
L 372.145574 31.081188 
L 372.630217 31.081188 
L 372.630217 30.282772 
L 372.95829 30.282772 
L 372.95829 29.484356 
L 373.609672 29.484356 
L 373.609672 28.685941 
L 374.367007 28.685941 
L 374.425056 27.089109 
L 374.949405 27.089109 
L 374.949405 26.290693 
L 375.368825 26.290693 
L 375.368825 25.492277 
L 376.545457 25.492277 
L 376.545457 24.693861 
L 376.902861 24.693861 
L 376.902861 23.895446 
L 377.600784 23.895446 
L 377.600784 23.09703 
L 379.358542 23.09703 
L 379.442208 21.500198 
L 381.383878 21.500198 
L 381.383878 20.701782 
L 382.553843 20.701782 
L 382.553843 19.903366 
L 383.319858 19.903366 
L 383.319858 19.10495 
L 385.016195 19.10495 
L 385.016195 18.306535 
L 407.65668 18.306535 
L 407.65668 17.508119 
L 409.082292 17.508119 
L 409.082292 16.709703 
L 409.75653 16.709703 
L 409.75653 15.911287 
L 410.653388 15.911287 
L 410.653388 15.112871 
L 410.906423 15.112871 
L 410.906423 14.314455 
L 413.58726 14.314455 
L 413.58726 13.51604 
L 413.753595 13.51604 
L 413.753595 12.717624 
L 414.115858 12.717624 
L 414.115858 11.919208 
L 414.925594 11.919208 
L 415.03603 10.322376 
L 415.161191 10.322376 
L 415.161191 9.52396 
L 417.250099 9.52396 
L 417.332128 7.927129 
L 417.719689 7.927129 
L 417.719689 7.128713 
L 434.025772 7.128713 
L 434.025772 6.330297 
L 434.025772 6.330297 
L 460.8 6.330297 
L 460.8 6.330297 
" clip-path="url(#pfe0294ddf6)" style="fill: none; stroke: #00bfbf; stroke-width: 1.5; stroke-linecap: square"/>
   </g>
   <g id="line2d_23">
    <path d="M 188.928385 293.76 
L 188.928385 281.783762 
L 219.272956 281.783762 
L 219.272956 280.985347 
L 223.877911 280.985347 
L 223.877911 280.186931 
L 224.280874 280.186931 
L 224.280874 279.388515 
L 224.699483 279.388515 
L 224.783594 276.993267 
L 225.045314 276.993267 
L 225.045314 276.194851 
L 225.592834 276.194851 
L 225.592834 275.396436 
L 225.924798 275.396436 
L 225.924798 274.59802 
L 226.106158 274.59802 
L 226.154638 273.001188 
L 226.376189 273.001188 
L 226.376189 272.202772 
L 226.598168 272.202772 
L 226.598168 271.404356 
L 227.371504 271.404356 
L 227.371504 270.605941 
L 228.605192 270.605941 
L 228.605192 269.807525 
L 230.158044 269.807525 
L 230.196407 268.210693 
L 230.611001 268.210693 
L 230.611001 267.412277 
L 230.798363 267.412277 
L 230.798363 266.613861 
L 230.939647 266.613861 
L 230.939647 265.815446 
L 231.251493 265.815446 
L 231.251493 265.01703 
L 231.886057 265.01703 
L 231.886057 264.218614 
L 232.816714 264.218614 
L 232.816714 263.420198 
L 233.117758 263.420198 
L 233.117758 262.621782 
L 234.884556 262.621782 
L 234.884556 261.823366 
L 235.003981 261.823366 
L 235.003981 261.02495 
L 235.55143 261.02495 
L 235.55143 260.226535 
L 235.993526 260.226535 
L 235.993526 259.428119 
L 236.570149 259.428119 
L 236.570149 258.629703 
L 237.509203 258.629703 
L 237.509203 257.831287 
L 238.135604 257.831287 
L 238.135604 257.032871 
L 239.611883 257.032871 
L 239.65604 255.43604 
L 239.858567 255.43604 
L 239.858567 254.637624 
L 240.025218 254.637624 
L 240.025218 253.839208 
L 240.265948 253.839208 
L 240.265948 253.040792 
L 242.445499 253.040792 
L 242.445499 252.242376 
L 243.113026 252.242376 
L 243.113026 251.44396 
L 243.257451 251.44396 
L 243.257451 250.645545 
L 243.659865 250.645545 
L 243.659865 249.847129 
L 243.818972 249.847129 
L 243.83099 248.250297 
L 244.274842 248.250297 
L 244.30423 246.653465 
L 244.559568 246.653465 
L 244.559568 245.85505 
L 245.092848 245.85505 
L 245.148201 244.258218 
L 245.420518 244.258218 
L 245.442656 241.86297 
L 245.667496 241.86297 
L 245.747873 240.266139 
L 245.928176 240.266139 
L 245.928176 239.467723 
L 246.234244 239.467723 
L 246.307169 237.870891 
L 246.852072 237.870891 
L 246.867855 236.274059 
L 247.44712 236.274059 
L 247.44712 235.475644 
L 247.562632 235.475644 
L 247.562632 234.677228 
L 247.763253 234.677228 
L 247.763253 233.878812 
L 247.94532 233.878812 
L 247.94532 233.080396 
L 248.102909 233.080396 
L 248.102909 232.28198 
L 248.396839 232.28198 
L 248.481844 229.886733 
L 248.771444 229.886733 
L 248.771444 229.088317 
L 248.887246 229.088317 
L 248.915318 227.491485 
L 249.100204 227.491485 
L 249.100204 226.693069 
L 249.462807 226.693069 
L 249.462807 225.894653 
L 250.38141 225.894653 
L 250.38141 225.096238 
L 250.623662 225.096238 
L 250.703317 223.499406 
L 250.767939 223.499406 
L 250.767939 222.70099 
L 250.887321 222.70099 
L 250.887321 221.902574 
L 251.681906 221.902574 
L 251.746897 220.305743 
L 251.838554 220.305743 
L 251.927642 217.910495 
L 251.967963 217.910495 
L 251.967963 217.112079 
L 252.177871 217.112079 
L 252.27871 214.716832 
L 252.300005 214.716832 
L 252.363373 211.523168 
L 252.473095 211.523168 
L 252.581583 206.732673 
L 252.666962 206.732673 
L 252.742921 204.337426 
L 252.789102 204.337426 
L 252.863187 201.942178 
L 252.925297 201.942178 
L 252.934963 200.345347 
L 253.108595 200.345347 
L 253.203353 197.950099 
L 253.231987 197.950099 
L 253.231987 197.151683 
L 253.758107 197.151683 
L 253.758107 196.353267 
L 253.997652 196.353267 
L 253.997652 195.554851 
L 254.198969 195.554851 
L 254.229391 193.95802 
L 254.463846 193.95802 
L 254.463846 193.159604 
L 254.951201 193.159604 
L 254.951201 192.361188 
L 255.166669 192.361188 
L 255.166669 191.562772 
L 255.541379 191.562772 
L 255.541379 190.764356 
L 255.683383 190.764356 
L 255.683383 189.965941 
L 255.814393 189.965941 
L 255.814393 189.167525 
L 256.294269 189.167525 
L 256.334146 187.570693 
L 256.534293 187.570693 
L 256.534293 186.772277 
L 257.738299 186.772277 
L 257.738299 174.79604 
L 258.162296 174.79604 
L 258.162296 173.997624 
L 259.627826 173.997624 
L 259.627826 173.199208 
L 263.934306 173.199208 
L 263.934306 172.400792 
L 264.373108 172.400792 
L 264.373108 171.602376 
L 266.09891 171.602376 
L 266.09891 170.80396 
L 266.293417 170.80396 
L 266.32145 169.207129 
L 266.513738 169.207129 
L 266.588415 166.811881 
L 266.770848 166.811881 
L 266.770848 166.013465 
L 267.106456 166.013465 
L 267.106456 165.21505 
L 267.238407 165.21505 
L 267.321914 163.618218 
L 267.373211 163.618218 
L 267.373211 162.819802 
L 267.55784 162.819802 
L 267.55784 162.021386 
L 267.78969 162.021386 
L 267.887619 160.424554 
L 267.922556 160.424554 
L 267.973943 158.827723 
L 268.041209 158.827723 
L 268.110983 155.634059 
L 268.193905 155.634059 
L 268.258618 153.238812 
L 268.313483 153.238812 
L 268.355015 151.64198 
L 268.547016 151.64198 
L 268.560885 150.045149 
L 268.669486 150.045149 
L 268.713951 148.448317 
L 268.874847 148.448317 
L 268.874847 147.649901 
L 269.049164 147.649901 
L 269.049164 146.851485 
L 269.23711 146.851485 
L 269.342282 145.254653 
L 269.858555 145.254653 
L 269.858555 144.456238 
L 269.993199 144.456238 
L 269.993199 143.657822 
L 270.455208 143.657822 
L 270.455208 142.859406 
L 272.091788 142.859406 
L 272.091788 142.06099 
L 272.235844 142.06099 
L 272.235844 141.262574 
L 272.560317 141.262574 
L 272.560317 140.464158 
L 272.812976 140.464158 
L 272.831306 138.867327 
L 272.976568 138.867327 
L 272.976568 138.068911 
L 273.580899 138.068911 
L 273.658201 135.673663 
L 273.6966 135.673663 
L 273.6966 134.875248 
L 273.881214 134.875248 
L 273.991548 132.48 
L 274.048783 132.48 
L 274.101979 130.883168 
L 274.257772 130.883168 
L 274.259349 129.286337 
L 274.394617 129.286337 
L 274.47067 127.689505 
L 274.749518 127.689505 
L 274.797276 125.294257 
L 274.991588 125.294257 
L 275.05588 123.697426 
L 275.178661 123.697426 
L 275.178661 122.89901 
L 275.395625 122.89901 
L 275.447151 121.302178 
L 275.606468 121.302178 
L 275.63869 119.705347 
L 275.871152 119.705347 
L 275.871152 118.906931 
L 276.218163 118.906931 
L 276.326453 116.511683 
L 276.52077 116.511683 
L 276.52077 115.713267 
L 276.660836 115.713267 
L 276.717949 113.31802 
L 276.997802 113.31802 
L 277.103318 110.124356 
L 277.332764 110.124356 
L 277.332764 109.325941 
L 277.479207 109.325941 
L 277.491944 107.729109 
L 277.682706 107.729109 
L 277.682706 106.930693 
L 277.840763 106.930693 
L 277.840763 106.132277 
L 278.004897 106.132277 
L 278.004897 105.333861 
L 278.133635 105.333861 
L 278.133635 104.535446 
L 278.382564 104.535446 
L 278.382564 103.73703 
L 278.848472 103.73703 
L 278.86025 102.140198 
L 279.002179 102.140198 
L 279.002179 101.341782 
L 279.764827 101.341782 
L 279.764827 100.543366 
L 280.744355 100.543366 
L 280.744355 99.74495 
L 281.139868 99.74495 
L 281.139868 98.946535 
L 284.723645 98.946535 
L 284.723645 98.148119 
L 285.050343 98.148119 
L 285.050343 97.349703 
L 286.125251 97.349703 
L 286.125251 96.551287 
L 286.817601 96.551287 
L 286.835706 94.954455 
L 287.307509 94.954455 
L 287.381891 93.357624 
L 287.459883 93.357624 
L 287.462881 91.760792 
L 288.14977 91.760792 
L 288.221612 90.16396 
L 288.347825 90.16396 
L 288.351551 88.567129 
L 288.663322 88.567129 
L 288.665409 86.970297 
L 289.077663 86.970297 
L 289.077663 86.171881 
L 289.560234 86.171881 
L 289.560234 85.373465 
L 292.965683 85.373465 
L 292.965683 84.57505 
L 300.584697 84.57505 
L 300.584697 83.776634 
L 300.992533 83.776634 
L 300.992533 82.978218 
L 307.914189 82.978218 
L 307.914189 82.179802 
L 311.001621 82.179802 
L 311.001621 81.381386 
L 311.881028 81.381386 
L 311.881028 80.58297 
L 312.065 80.58297 
L 312.065 79.784554 
L 313.215148 79.784554 
L 313.215148 71.00198 
L 317.124557 71.00198 
L 317.124557 70.203564 
L 318.667354 70.203564 
L 318.667354 69.405149 
L 319.582942 69.405149 
L 319.582942 68.606733 
L 320.452488 68.606733 
L 320.452488 67.808317 
L 321.288955 67.808317 
L 321.288955 67.009901 
L 321.653894 67.009901 
L 321.720849 65.413069 
L 322.696621 65.413069 
L 322.696621 64.614653 
L 323.59041 64.614653 
L 323.59041 63.816238 
L 325.641513 63.816238 
L 325.641513 63.017822 
L 326.536842 63.017822 
L 326.536842 62.219406 
L 327.136409 62.219406 
L 327.136409 61.42099 
L 327.592545 61.42099 
L 327.592545 60.622574 
L 327.715651 60.622574 
L 327.715651 59.824158 
L 327.946061 59.824158 
L 328.041932 58.227327 
L 328.450183 58.227327 
L 328.450183 57.428911 
L 329.338944 57.428911 
L 329.338944 56.630495 
L 330.535466 56.630495 
L 330.535466 55.832079 
L 334.885769 55.832079 
L 334.885769 55.033663 
L 335.192992 55.033663 
L 335.192992 54.235248 
L 335.684053 54.235248 
L 335.684053 53.436832 
L 337.249457 53.436832 
L 337.249457 52.638416 
L 338.323232 52.638416 
L 338.323232 51.84 
L 340.678224 51.84 
L 340.678224 51.041584 
L 342.321225 51.041584 
L 342.321225 50.243168 
L 343.519123 50.243168 
L 343.519123 49.444752 
L 344.012455 49.444752 
L 344.012455 48.646337 
L 344.465052 48.646337 
L 344.465052 47.847921 
L 344.882208 47.847921 
L 344.882208 47.049505 
L 345.238747 47.049505 
L 345.238747 46.251089 
L 346.826188 46.251089 
L 346.826188 45.452673 
L 349.2503 45.452673 
L 349.2503 44.654257 
L 351.496573 44.654257 
L 351.496573 43.855842 
L 351.74725 43.855842 
L 351.74725 43.057426 
L 353.171121 43.057426 
L 353.171121 42.25901 
L 354.13868 42.25901 
L 354.13868 41.460594 
L 355.499166 41.460594 
L 355.499166 40.662178 
L 358.682541 40.662178 
L 358.706212 39.065347 
L 359.339518 39.065347 
L 359.339518 38.266931 
L 361.425442 38.266931 
L 361.425442 37.468515 
L 361.545194 37.468515 
L 361.545194 36.670099 
L 362.588348 36.670099 
L 362.588348 35.871683 
L 363.726524 35.871683 
L 363.726524 35.073267 
L 364.177084 35.073267 
L 364.177084 34.274851 
L 364.296559 34.274851 
L 364.296559 33.476436 
L 365.201705 33.476436 
L 365.201705 32.67802 
L 365.677484 32.67802 
L 365.765128 31.081188 
L 365.885466 31.081188 
L 365.885466 30.282772 
L 366.889472 30.282772 
L 366.889472 29.484356 
L 367.078667 29.484356 
L 367.078667 28.685941 
L 367.381592 28.685941 
L 367.464581 27.089109 
L 369.440186 27.089109 
L 369.440186 26.290693 
L 370.132484 26.290693 
L 370.132484 25.492277 
L 370.524138 25.492277 
L 370.524138 24.693861 
L 372.089863 24.693861 
L 372.089863 23.895446 
L 372.95829 23.895446 
L 372.95829 23.09703 
L 373.609672 23.09703 
L 373.609672 22.298614 
L 375.368825 22.298614 
L 375.368825 21.500198 
L 377.247482 21.500198 
L 377.247482 20.701782 
L 377.563684 20.701782 
L 377.563684 19.903366 
L 378.024215 19.903366 
L 378.024215 19.10495 
L 379.442208 19.10495 
L 379.442208 18.306535 
L 404.983227 18.306535 
L 404.983227 17.508119 
L 407.65668 17.508119 
L 407.65668 16.709703 
L 409.75653 16.709703 
L 409.75653 15.911287 
L 410.653388 15.911287 
L 410.653388 15.112871 
L 410.906423 15.112871 
L 410.906423 14.314455 
L 412.671426 14.314455 
L 412.671426 13.51604 
L 413.58726 13.51604 
L 413.58726 12.717624 
L 413.753595 12.717624 
L 413.753595 11.919208 
L 414.115858 11.919208 
L 414.115858 11.120792 
L 414.925594 11.120792 
L 415.03603 9.52396 
L 415.161191 9.52396 
L 415.161191 8.725545 
L 416.357797 8.725545 
L 416.357797 7.927129 
L 416.674563 7.927129 
L 416.674563 7.128713 
L 417.332128 7.128713 
L 417.332128 6.330297 
L 417.332128 6.330297 
L 460.8 6.330297 
L 460.8 6.330297 
" clip-path="url(#pfe0294ddf6)" style="fill: none; stroke: #bf00bf; stroke-width: 1.5; stroke-linecap: square"/>
   </g>
   <g id="line2d_24">
    <path d="M 188.928385 293.76 
L 188.928385 281.783762 
L 218.442404 281.783762 
L 218.442404 280.985347 
L 219.272956 280.985347 
L 219.272956 280.186931 
L 223.255908 280.186931 
L 223.255908 279.388515 
L 223.877911 279.388515 
L 223.877911 278.590099 
L 224.061617 278.590099 
L 224.061617 277.791683 
L 224.26401 277.791683 
L 224.280874 276.194851 
L 224.699483 276.194851 
L 224.699483 275.396436 
L 225.045314 275.396436 
L 225.045314 274.59802 
L 225.375311 274.59802 
L 225.375311 273.799604 
L 225.592834 273.799604 
L 225.644794 272.202772 
L 225.924798 272.202772 
L 225.924798 271.404356 
L 226.106158 271.404356 
L 226.154638 269.807525 
L 226.376189 269.807525 
L 226.376189 269.009109 
L 227.449074 269.009109 
L 227.449074 268.210693 
L 227.787491 268.210693 
L 227.787491 267.412277 
L 229.400633 267.412277 
L 229.400633 266.613861 
L 229.999202 266.613861 
L 229.999202 265.815446 
L 230.136893 265.815446 
L 230.158044 264.218614 
L 230.939647 264.218614 
L 230.95196 262.621782 
L 231.360206 262.621782 
L 231.360206 261.823366 
L 231.857436 261.823366 
L 231.886057 260.226535 
L 232.344624 260.226535 
L 232.344624 259.428119 
L 233.34014 259.428119 
L 233.34014 258.629703 
L 234.64421 258.629703 
L 234.64421 257.831287 
L 235.809291 257.831287 
L 235.809291 257.032871 
L 235.993526 257.032871 
L 235.993526 256.234455 
L 236.117039 256.234455 
L 236.117039 255.43604 
L 237.509203 255.43604 
L 237.509203 254.637624 
L 238.790212 254.637624 
L 238.790212 253.839208 
L 239.420376 253.839208 
L 239.420376 253.040792 
L 239.595473 253.040792 
L 239.600504 251.44396 
L 239.858567 251.44396 
L 239.858567 250.645545 
L 240.60883 250.645545 
L 240.60883 249.847129 
L 242.445499 249.847129 
L 242.537064 246.653465 
L 243.10552 246.653465 
L 243.113026 245.056634 
L 243.245546 245.056634 
L 243.245546 244.258218 
L 243.415876 244.258218 
L 243.415876 243.459802 
L 243.642939 243.459802 
L 243.642939 242.661386 
L 244.071222 242.661386 
L 244.149418 239.467723 
L 244.274842 239.467723 
L 244.274842 238.669307 
L 244.388311 238.669307 
L 244.388311 237.870891 
L 244.913695 237.870891 
L 244.959055 236.274059 
L 245.092848 236.274059 
L 245.16978 233.878812 
L 245.306329 233.878812 
L 245.346098 232.28198 
L 245.426647 232.28198 
L 245.442656 230.685149 
L 245.794562 230.685149 
L 245.794562 229.886733 
L 245.928176 229.886733 
L 245.96549 228.289901 
L 246.05083 228.289901 
L 246.070562 226.693069 
L 246.942501 226.693069 
L 246.942501 225.894653 
L 247.091771 225.894653 
L 247.091771 225.096238 
L 247.311545 225.096238 
L 247.331476 223.499406 
L 247.486602 223.499406 
L 247.540757 221.902574 
L 248.102997 221.902574 
L 248.146242 220.305743 
L 248.887246 220.305743 
L 248.887246 219.507327 
L 249.482381 219.507327 
L 249.482381 218.708911 
L 249.969118 218.708911 
L 249.969118 217.910495 
L 250.38141 217.910495 
L 250.386657 216.313663 
L 250.53603 216.313663 
L 250.581723 214.716832 
L 250.709243 214.716832 
L 250.709243 213.918416 
L 251.000462 213.918416 
L 251.007435 212.321584 
L 251.192904 212.321584 
L 251.192904 211.523168 
L 251.429897 211.523168 
L 251.429897 210.724752 
L 251.578588 210.724752 
L 251.667853 207.531089 
L 251.744787 207.531089 
L 251.839447 203.53901 
L 251.927642 203.53901 
L 251.997071 201.143762 
L 252.077703 201.143762 
L 252.162652 197.950099 
L 252.193963 197.950099 
L 252.193963 197.151683 
L 252.306298 197.151683 
L 252.325151 195.554851 
L 252.592544 195.554851 
L 252.670914 193.159604 
L 252.742921 193.159604 
L 252.831927 190.764356 
L 252.863187 190.764356 
L 252.863187 189.965941 
L 253.203353 189.965941 
L 253.218323 188.369109 
L 253.758107 188.369109 
L 253.758107 187.570693 
L 254.055832 187.570693 
L 254.055832 186.772277 
L 254.542281 186.772277 
L 254.542281 185.973861 
L 255.814393 185.973861 
L 255.814393 185.175446 
L 257.738299 185.175446 
L 257.738299 173.199208 
L 258.111236 173.199208 
L 258.111236 172.400792 
L 258.963546 172.400792 
L 258.963546 171.602376 
L 259.175896 171.602376 
L 259.175896 170.80396 
L 260.635855 170.80396 
L 260.635855 170.005545 
L 260.821844 170.005545 
L 260.821844 169.207129 
L 260.933063 169.207129 
L 260.933063 168.408713 
L 261.067808 168.408713 
L 261.067808 167.610297 
L 261.701697 167.610297 
L 261.701697 166.811881 
L 261.991143 166.811881 
L 261.991143 166.013465 
L 262.124091 166.013465 
L 262.124091 165.21505 
L 262.579038 165.21505 
L 262.579038 164.416634 
L 263.690692 164.416634 
L 263.690692 163.618218 
L 263.934306 163.618218 
L 263.934306 162.819802 
L 264.076831 162.819802 
L 264.076831 162.021386 
L 264.254859 162.021386 
L 264.352644 160.424554 
L 264.793438 160.424554 
L 264.881243 158.827723 
L 266.09891 158.827723 
L 266.200874 157.230891 
L 266.275394 157.230891 
L 266.293417 155.634059 
L 266.870184 155.634059 
L 266.971182 154.037228 
L 267.106456 154.037228 
L 267.208402 152.440396 
L 267.321914 152.440396 
L 267.321914 151.64198 
L 267.493179 151.64198 
L 267.493179 150.843564 
L 267.887619 150.843564 
L 267.973943 149.246733 
L 268.061618 149.246733 
L 268.110983 147.649901 
L 268.193905 147.649901 
L 268.193905 146.851485 
L 268.313483 146.851485 
L 268.416682 144.456238 
L 268.547016 144.456238 
L 268.547016 143.657822 
L 268.669486 143.657822 
L 268.713951 142.06099 
L 268.915811 142.06099 
L 268.972609 140.464158 
L 269.303148 140.464158 
L 269.342282 138.068911 
L 269.858555 138.068911 
L 269.887917 136.472079 
L 270.233145 136.472079 
L 270.322454 134.875248 
L 270.843618 134.875248 
L 270.843618 134.076832 
L 271.199465 134.076832 
L 271.251069 132.48 
L 271.437033 132.48 
L 271.451965 130.883168 
L 271.685106 130.883168 
L 271.685106 130.084752 
L 271.936822 130.084752 
L 271.983488 128.487921 
L 272.089942 128.487921 
L 272.089942 127.689505 
L 272.212037 127.689505 
L 272.212037 126.891089 
L 272.435692 126.891089 
L 272.475058 125.294257 
L 272.706569 125.294257 
L 272.811583 122.100594 
L 272.831306 122.100594 
L 272.848108 119.705347 
L 272.964359 119.705347 
L 273.057725 117.310099 
L 273.163347 117.310099 
L 273.249634 115.713267 
L 273.275687 115.713267 
L 273.275687 114.914851 
L 273.658201 114.914851 
L 273.661 113.31802 
L 273.992498 113.31802 
L 274.072136 111.721188 
L 274.197833 111.721188 
L 274.197833 110.922772 
L 274.516597 110.922772 
L 274.516597 110.124356 
L 274.785761 110.124356 
L 274.785761 109.325941 
L 274.904039 109.325941 
L 274.904039 108.527525 
L 275.178661 108.527525 
L 275.234464 106.132277 
L 275.296598 106.132277 
L 275.296598 105.333861 
L 275.476401 105.333861 
L 275.476401 104.535446 
L 275.606468 104.535446 
L 275.63869 102.938614 
L 276.305054 102.938614 
L 276.305054 102.140198 
L 276.494146 102.140198 
L 276.494146 101.341782 
L 277.037211 101.341782 
L 277.103318 98.946535 
L 277.332764 98.946535 
L 277.332764 98.148119 
L 277.479207 98.148119 
L 277.479207 97.349703 
L 277.840763 97.349703 
L 277.840763 96.551287 
L 280.034128 96.551287 
L 280.034128 95.752871 
L 281.139868 95.752871 
L 281.139868 94.954455 
L 284.12988 94.954455 
L 284.20929 93.357624 
L 284.803041 93.357624 
L 284.81455 91.760792 
L 285.3009 91.760792 
L 285.358049 90.16396 
L 285.519837 90.16396 
L 285.609014 87.768713 
L 285.651499 87.768713 
L 285.651499 86.970297 
L 286.078488 86.970297 
L 286.078488 86.171881 
L 286.434241 86.171881 
L 286.45647 84.57505 
L 286.590398 84.57505 
L 286.590398 83.776634 
L 286.817601 83.776634 
L 286.817601 82.978218 
L 287.941286 82.978218 
L 287.941286 82.179802 
L 297.119631 82.179802 
L 297.158036 80.58297 
L 298.437578 80.58297 
L 298.437578 79.784554 
L 298.656057 79.784554 
L 298.656057 78.986139 
L 299.653846 78.986139 
L 299.653846 78.187723 
L 299.909725 78.187723 
L 299.909725 77.389307 
L 303.771271 77.389307 
L 303.771271 76.590891 
L 305.335048 76.590891 
L 305.335048 75.792475 
L 306.322767 75.792475 
L 306.322767 74.994059 
L 306.4511 74.994059 
L 306.4511 74.195644 
L 306.639049 74.195644 
L 306.639049 73.397228 
L 306.827253 73.397228 
L 306.827253 72.598812 
L 306.988883 72.598812 
L 306.988883 71.800396 
L 308.503468 71.800396 
L 308.503468 71.00198 
L 309.487778 71.00198 
L 309.487778 70.203564 
L 311.001621 70.203564 
L 311.001621 69.405149 
L 312.065 69.405149 
L 312.121035 67.808317 
L 312.252238 67.808317 
L 312.252238 67.009901 
L 313.215148 67.009901 
L 313.215148 63.816238 
L 313.541618 63.816238 
L 313.541618 63.017822 
L 314.029877 63.017822 
L 314.029877 62.219406 
L 316.211312 62.219406 
L 316.211312 61.42099 
L 316.414405 61.42099 
L 316.414405 60.622574 
L 317.131539 60.622574 
L 317.131539 59.824158 
L 317.907513 59.824158 
L 317.907513 59.025743 
L 318.31234 59.025743 
L 318.31234 58.227327 
L 318.715803 58.227327 
L 318.715803 57.428911 
L 320.452488 57.428911 
L 320.452488 56.630495 
L 320.861928 56.630495 
L 320.861928 55.832079 
L 323.394396 55.832079 
L 323.394396 55.033663 
L 323.59041 55.033663 
L 323.59041 54.235248 
L 324.577271 54.235248 
L 324.577271 53.436832 
L 326.761357 53.436832 
L 326.761357 52.638416 
L 327.136409 52.638416 
L 327.136409 51.84 
L 328.100105 51.84 
L 328.100105 51.041584 
L 332.064098 51.041584 
L 332.064098 50.243168 
L 333.608081 50.243168 
L 333.608081 49.444752 
L 333.786341 49.444752 
L 333.829594 47.847921 
L 334.711159 47.847921 
L 334.711159 47.049505 
L 334.843034 47.049505 
L 334.843034 46.251089 
L 335.293882 46.251089 
L 335.293882 45.452673 
L 339.704436 45.452673 
L 339.704436 44.654257 
L 340.551738 44.654257 
L 340.551738 43.855842 
L 345.092264 43.855842 
L 345.092264 43.057426 
L 345.844404 43.057426 
L 345.844404 42.25901 
L 350.690116 42.25901 
L 350.690116 41.460594 
L 353.180479 41.460594 
L 353.180479 40.662178 
L 354.13868 40.662178 
L 354.13868 39.863762 
L 355.202161 39.863762 
L 355.202161 39.065347 
L 355.480291 39.065347 
L 355.499166 37.468515 
L 355.972898 37.468515 
L 355.972898 36.670099 
L 357.486047 36.670099 
L 357.540027 35.073267 
L 358.037183 35.073267 
L 358.037183 34.274851 
L 358.706212 34.274851 
L 358.706212 33.476436 
L 359.339518 33.476436 
L 359.339518 32.67802 
L 359.469364 32.67802 
L 359.469364 31.879604 
L 360.00588 31.879604 
L 360.00588 31.081188 
L 360.940209 31.081188 
L 360.940209 30.282772 
L 362.063742 30.282772 
L 362.063742 29.484356 
L 362.251052 29.484356 
L 362.271753 27.887525 
L 362.613529 27.887525 
L 362.613529 27.089109 
L 363.867056 27.089109 
L 363.867056 26.290693 
L 364.177084 26.290693 
L 364.177084 25.492277 
L 364.584667 25.492277 
L 364.584667 24.693861 
L 365.201705 24.693861 
L 365.201705 23.895446 
L 366.060812 23.895446 
L 366.060812 23.09703 
L 366.450367 23.09703 
L 366.450367 22.298614 
L 368.987204 22.298614 
L 368.987204 21.500198 
L 369.917662 21.500198 
L 369.917662 20.701782 
L 371.343621 20.701782 
L 371.343621 19.903366 
L 372.163269 19.903366 
L 372.163269 19.10495 
L 373.43367 19.10495 
L 373.43367 18.306535 
L 402.114194 18.306535 
L 402.114194 17.508119 
L 404.983227 17.508119 
L 404.983227 16.709703 
L 405.161797 16.709703 
L 405.253518 15.112871 
L 407.602011 15.112871 
L 407.602011 14.314455 
L 409.624314 14.314455 
L 409.668674 12.717624 
L 410.59196 12.717624 
L 410.59196 11.919208 
L 410.852299 11.919208 
L 410.955802 9.52396 
L 411.48277 9.52396 
L 411.48277 8.725545 
L 411.889448 8.725545 
L 411.889448 7.927129 
L 412.702451 7.927129 
L 412.702451 7.128713 
L 414.326544 7.128713 
L 414.326544 6.330297 
L 414.326544 6.330297 
L 460.8 6.330297 
L 460.8 6.330297 
" clip-path="url(#pfe0294ddf6)" style="fill: none; stroke: #000000; stroke-width: 1.5; stroke-linecap: square"/>
   </g>
   <g id="line2d_25">
    <path d="M -0.110414 293.76 
L -0.110414 292.163168 
L 188.928385 292.163168 
L 188.928385 280.186931 
L 199.891515 280.186931 
L 199.891515 279.388515 
L 217.758927 279.388515 
L 217.758927 278.590099 
L 218.442404 278.590099 
L 218.442404 277.791683 
L 219.272956 277.791683 
L 219.272956 276.993267 
L 219.877004 276.993267 
L 219.877004 276.194851 
L 220.209197 276.194851 
L 220.209197 275.396436 
L 220.384229 275.396436 
L 220.434896 273.001188 
L 220.992674 273.001188 
L 220.992674 272.202772 
L 221.888298 272.202772 
L 221.888298 271.404356 
L 222.822226 271.404356 
L 222.822226 270.605941 
L 223.107211 270.605941 
L 223.107211 269.807525 
L 223.518052 269.807525 
L 223.518052 269.009109 
L 223.877504 269.009109 
L 223.914238 267.412277 
L 224.26401 267.412277 
L 224.26401 266.613861 
L 224.47813 266.613861 
L 224.47813 265.815446 
L 224.699483 265.815446 
L 224.699483 265.01703 
L 224.840984 265.01703 
L 224.840984 264.218614 
L 225.045314 264.218614 
L 225.045314 263.420198 
L 225.375311 263.420198 
L 225.481203 261.02495 
L 225.664287 261.02495 
L 225.664287 260.226535 
L 226.093855 260.226535 
L 226.160332 258.629703 
L 226.309056 258.629703 
L 226.309056 257.831287 
L 226.468575 257.831287 
L 226.517112 256.234455 
L 226.713574 256.234455 
L 226.713574 255.43604 
L 226.922459 255.43604 
L 226.922459 254.637624 
L 227.156936 254.637624 
L 227.156936 253.839208 
L 227.546597 253.839208 
L 227.546597 253.040792 
L 227.721653 253.040792 
L 227.744538 251.44396 
L 228.029285 251.44396 
L 228.029285 250.645545 
L 229.088645 250.645545 
L 229.088645 249.847129 
L 229.385398 249.847129 
L 229.494747 248.250297 
L 230.134588 248.250297 
L 230.136893 246.653465 
L 230.413103 246.653465 
L 230.413103 245.85505 
L 231.214227 245.85505 
L 231.262282 244.258218 
L 232.086016 244.258218 
L 232.086016 243.459802 
L 232.471811 243.459802 
L 232.516677 241.86297 
L 232.98007 241.86297 
L 232.98007 241.064554 
L 233.251708 241.064554 
L 233.350124 239.467723 
L 233.698917 239.467723 
L 233.698917 238.669307 
L 233.919494 238.669307 
L 233.940787 237.072475 
L 234.083376 237.072475 
L 234.089139 235.475644 
L 234.599935 235.475644 
L 234.661067 233.878812 
L 234.935055 233.878812 
L 234.935055 233.080396 
L 235.137513 233.080396 
L 235.137513 232.28198 
L 235.962432 232.28198 
L 236.051931 230.685149 
L 236.550193 230.685149 
L 236.550193 229.886733 
L 236.866935 229.886733 
L 236.866935 229.088317 
L 237.279097 229.088317 
L 237.294971 227.491485 
L 237.509203 227.491485 
L 237.509203 226.693069 
L 237.665838 226.693069 
L 237.665838 225.894653 
L 238.086788 225.894653 
L 238.086788 225.096238 
L 238.202432 225.096238 
L 238.202432 224.297822 
L 238.426937 224.297822 
L 238.426937 223.499406 
L 238.883352 223.499406 
L 238.974987 221.902574 
L 239.029405 221.902574 
L 239.029405 221.104158 
L 239.142589 221.104158 
L 239.171137 219.507327 
L 239.678529 219.507327 
L 239.713849 217.910495 
L 240.100957 217.910495 
L 240.100957 217.112079 
L 240.354825 217.112079 
L 240.354825 216.313663 
L 240.819166 216.313663 
L 240.819166 215.515248 
L 241.073875 215.515248 
L 241.073875 214.716832 
L 241.235955 214.716832 
L 241.235955 213.918416 
L 241.371475 213.918416 
L 241.383478 212.321584 
L 241.636823 212.321584 
L 241.738527 210.724752 
L 241.779905 210.724752 
L 241.790029 209.127921 
L 242.445499 209.127921 
L 242.490849 207.531089 
L 242.820225 207.531089 
L 242.862201 205.934257 
L 242.9992 205.934257 
L 243.10552 202.740594 
L 243.113026 202.740594 
L 243.191921 201.143762 
L 243.415876 201.143762 
L 243.487297 198.748515 
L 243.547258 198.748515 
L 243.547258 197.950099 
L 244.129018 197.950099 
L 244.130713 196.353267 
L 244.274842 196.353267 
L 244.274842 195.554851 
L 244.388311 195.554851 
L 244.470585 193.95802 
L 244.568423 193.95802 
L 244.633008 191.562772 
L 244.947627 191.562772 
L 245.004643 189.965941 
L 245.092848 189.965941 
L 245.092848 189.167525 
L 245.688062 189.167525 
L 245.786991 187.570693 
L 245.928176 187.570693 
L 245.928176 186.772277 
L 246.779236 186.772277 
L 246.853247 185.175446 
L 247.081624 185.175446 
L 247.081624 184.37703 
L 247.387146 184.37703 
L 247.387146 183.578614 
L 249.444408 183.578614 
L 249.532319 181.981782 
L 249.60701 181.981782 
L 249.60701 181.183366 
L 249.730916 181.183366 
L 249.730916 180.38495 
L 249.986796 180.38495 
L 249.986796 179.586535 
L 250.173773 179.586535 
L 250.173773 178.788119 
L 250.463472 178.788119 
L 250.463472 177.989703 
L 250.702337 177.989703 
L 250.728262 176.392871 
L 250.900285 176.392871 
L 250.929025 174.79604 
L 251.076889 174.79604 
L 251.076889 173.997624 
L 251.615142 173.997624 
L 251.615142 173.199208 
L 252.682109 173.199208 
L 252.682109 172.400792 
L 254.970662 172.400792 
L 254.970662 171.602376 
L 255.814393 171.602376 
L 255.814393 170.80396 
L 256.65559 170.80396 
L 256.65559 170.005545 
L 256.792674 170.005545 
L 256.792674 169.207129 
L 257.738299 169.207129 
L 257.738299 157.230891 
L 259.35535 157.230891 
L 259.35535 156.432475 
L 259.721759 156.432475 
L 259.721759 155.634059 
L 259.88867 155.634059 
L 259.88867 154.835644 
L 260.089714 154.835644 
L 260.089714 154.037228 
L 260.553965 154.037228 
L 260.624098 152.440396 
L 260.904424 152.440396 
L 260.908511 150.843564 
L 261.557799 150.843564 
L 261.557799 150.045149 
L 261.701697 150.045149 
L 261.714825 148.448317 
L 262.491893 148.448317 
L 262.491893 147.649901 
L 262.700548 147.649901 
L 262.754189 146.053069 
L 263.114905 146.053069 
L 263.166389 144.456238 
L 263.50529 144.456238 
L 263.615511 142.859406 
L 263.862239 142.859406 
L 263.934306 141.262574 
L 263.999949 141.262574 
L 264.099229 139.665743 
L 264.213684 139.665743 
L 264.299095 138.068911 
L 264.350865 138.068911 
L 264.350865 137.270495 
L 264.478211 137.270495 
L 264.478211 136.472079 
L 264.818965 136.472079 
L 264.893871 134.875248 
L 265.002628 134.875248 
L 265.002628 134.076832 
L 265.147138 134.076832 
L 265.248809 130.084752 
L 265.455312 130.084752 
L 265.455312 129.286337 
L 265.614443 129.286337 
L 265.614443 128.487921 
L 265.731269 128.487921 
L 265.731269 127.689505 
L 265.876621 127.689505 
L 265.963617 125.294257 
L 266.049528 125.294257 
L 266.12097 122.89901 
L 266.294507 122.89901 
L 266.30767 121.302178 
L 266.446248 121.302178 
L 266.490386 119.705347 
L 266.571223 119.705347 
L 266.678439 117.310099 
L 266.714377 117.310099 
L 266.744987 115.713267 
L 266.864741 115.713267 
L 266.971182 113.31802 
L 267.068956 113.31802 
L 267.090963 111.721188 
L 267.196055 111.721188 
L 267.19609 110.124356 
L 267.493179 110.124356 
L 267.564759 106.930693 
L 267.653708 106.930693 
L 267.653708 106.132277 
L 268.072569 106.132277 
L 268.110983 104.535446 
L 268.283374 104.535446 
L 268.283374 103.73703 
L 268.43616 103.73703 
L 268.43616 102.938614 
L 268.559497 102.938614 
L 268.630149 101.341782 
L 268.794384 101.341782 
L 268.795964 99.74495 
L 269.200488 99.74495 
L 269.25674 98.148119 
L 269.326481 98.148119 
L 269.326481 97.349703 
L 269.527572 97.349703 
L 269.582327 95.752871 
L 270.187738 95.752871 
L 270.187738 94.954455 
L 270.526694 94.954455 
L 270.526694 94.15604 
L 270.653127 94.15604 
L 270.653127 93.357624 
L 270.836833 93.357624 
L 270.934068 90.962376 
L 271.034677 90.962376 
L 271.034677 90.16396 
L 271.170107 90.16396 
L 271.170107 89.365545 
L 272.508008 89.365545 
L 272.519253 87.768713 
L 272.834211 87.768713 
L 272.889028 86.171881 
L 273.057725 86.171881 
L 273.137893 83.776634 
L 273.225643 83.776634 
L 273.225643 82.978218 
L 273.439677 82.978218 
L 273.439677 82.179802 
L 273.637878 82.179802 
L 273.637878 81.381386 
L 273.817698 81.381386 
L 273.817698 80.58297 
L 275.265608 80.58297 
L 275.265608 79.784554 
L 275.804497 79.784554 
L 275.804497 78.986139 
L 276.774253 78.986139 
L 276.774253 78.187723 
L 276.904461 78.187723 
L 276.904461 77.389307 
L 277.035933 77.389307 
L 277.093731 75.792475 
L 277.468181 75.792475 
L 277.515676 73.397228 
L 277.912938 73.397228 
L 277.912938 72.598812 
L 278.889165 72.598812 
L 278.889165 71.800396 
L 279.160792 71.800396 
L 279.160792 71.00198 
L 279.821344 71.00198 
L 279.821344 70.203564 
L 280.42291 70.203564 
L 280.42291 69.405149 
L 280.805072 69.405149 
L 280.805072 68.606733 
L 281.008528 68.606733 
L 281.008528 67.808317 
L 281.176629 67.808317 
L 281.176629 67.009901 
L 281.502743 67.009901 
L 281.581967 64.614653 
L 281.997348 64.614653 
L 281.997348 63.816238 
L 282.614792 63.816238 
L 282.614792 63.017822 
L 284.74526 63.017822 
L 284.772868 61.42099 
L 285.864793 61.42099 
L 285.864793 60.622574 
L 287.528162 60.622574 
L 287.528162 59.824158 
L 290.401212 59.824158 
L 290.446576 58.227327 
L 291.343848 58.227327 
L 291.343848 57.428911 
L 292.318078 57.428911 
L 292.318078 56.630495 
L 293.27884 56.630495 
L 293.27884 55.832079 
L 294.461199 55.832079 
L 294.461199 55.033663 
L 295.39769 55.033663 
L 295.39769 54.235248 
L 296.925428 54.235248 
L 296.925428 53.436832 
L 298.06566 53.436832 
L 298.06566 52.638416 
L 298.237487 52.638416 
L 298.237487 51.84 
L 298.384778 51.84 
L 298.384778 51.041584 
L 299.016671 51.041584 
L 299.016671 50.243168 
L 300.293475 50.243168 
L 300.293475 49.444752 
L 302.388152 49.444752 
L 302.388152 48.646337 
L 302.927522 48.646337 
L 303.000253 47.049505 
L 304.493131 47.049505 
L 304.493131 46.251089 
L 306.980507 46.251089 
L 306.980507 45.452673 
L 309.309206 45.452673 
L 309.309206 44.654257 
L 313.215148 44.654257 
L 313.215148 43.855842 
L 314.389533 43.855842 
L 314.389533 43.057426 
L 318.480643 43.057426 
L 318.480643 42.25901 
L 346.012868 42.25901 
L 346.012868 41.460594 
L 346.246347 41.460594 
L 346.246347 40.662178 
L 346.578622 40.662178 
L 346.578622 39.863762 
L 347.333699 39.863762 
L 347.333699 39.065347 
L 348.543042 39.065347 
L 348.543042 38.266931 
L 349.282024 38.266931 
L 349.282024 37.468515 
L 349.739261 37.468515 
L 349.739261 36.670099 
L 349.970978 36.670099 
L 349.970978 35.871683 
L 350.162535 35.871683 
L 350.162535 35.073267 
L 350.512686 35.073267 
L 350.512686 34.274851 
L 351.051309 34.274851 
L 351.051309 33.476436 
L 351.722876 33.476436 
L 351.722876 32.67802 
L 352.24554 32.67802 
L 352.24554 31.879604 
L 352.379024 31.879604 
L 352.379024 31.081188 
L 352.775206 31.081188 
L 352.775206 30.282772 
L 352.960944 30.282772 
L 352.960944 29.484356 
L 353.337783 29.484356 
L 353.337783 28.685941 
L 354.793843 28.685941 
L 354.793843 27.887525 
L 355.202161 27.887525 
L 355.202161 27.089109 
L 356.785927 27.089109 
L 356.785927 26.290693 
L 357.406192 26.290693 
L 357.406192 25.492277 
L 358.173381 25.492277 
L 358.173381 24.693861 
L 358.557704 24.693861 
L 358.557704 23.895446 
L 360.455767 23.895446 
L 360.52138 21.500198 
L 360.6562 21.500198 
L 360.6562 20.701782 
L 361.673433 20.701782 
L 361.673433 19.903366 
L 363.521405 19.903366 
L 363.521405 19.10495 
L 364.400033 19.10495 
L 364.400033 18.306535 
L 379.684978 18.306535 
L 379.684978 17.508119 
L 383.149444 17.508119 
L 383.149444 16.709703 
L 386.878848 16.709703 
L 386.878848 15.911287 
L 389.036591 15.911287 
L 389.036591 15.112871 
L 390.105567 15.112871 
L 390.105567 14.314455 
L 391.61634 14.314455 
L 391.61634 13.51604 
L 392.06317 13.51604 
L 392.06317 12.717624 
L 392.176871 12.717624 
L 392.176871 11.919208 
L 392.806174 11.919208 
L 392.806174 11.120792 
L 395.746606 11.120792 
L 395.746606 10.322376 
L 397.8709 10.322376 
L 397.8709 9.52396 
L 398.719848 9.52396 
L 398.719848 8.725545 
L 400.649544 8.725545 
L 400.649544 7.927129 
L 401.80226 7.927129 
L 401.80226 7.128713 
L 403.002442 7.128713 
L 403.002442 6.330297 
L 403.002442 6.330297 
L 460.8 6.330297 
L 460.8 6.330297 
" clip-path="url(#pfe0294ddf6)" style="fill: none; stroke: #00bfbf; stroke-width: 1.5; stroke-linecap: square"/>
   </g>
   <g id="line2d_26">
    <path d="M -0.110414 293.76 
L -0.110414 281.783762 
L 54.348621 281.783762 
L 54.348621 280.985347 
L 65.819245 280.985347 
L 65.819245 280.186931 
L 77.687695 280.186931 
L 77.687695 279.388515 
L 78.18302 279.388515 
L 78.18302 278.590099 
L 80.233106 278.590099 
L 80.233106 277.791683 
L 81.58466 277.791683 
L 81.58466 276.993267 
L 81.844129 276.993267 
L 81.844129 276.194851 
L 82.896085 276.194851 
L 82.896085 275.396436 
L 83.774816 275.396436 
L 83.774816 274.59802 
L 86.249541 274.59802 
L 86.249541 273.799604 
L 87.612005 273.799604 
L 87.612005 273.001188 
L 96.721117 273.001188 
L 96.737688 271.404356 
L 98.484966 271.404356 
L 98.484966 270.605941 
L 101.338579 270.605941 
L 101.338579 269.807525 
L 134.593289 269.807525 
L 134.593289 269.009109 
L 137.885611 269.009109 
L 137.885611 268.210693 
L 138.737282 268.210693 
L 138.737282 267.412277 
L 140.646544 267.412277 
L 140.646544 266.613861 
L 142.251504 266.613861 
L 142.251504 265.815446 
L 142.69139 265.815446 
L 142.69139 265.01703 
L 145.474957 265.01703 
L 145.474957 264.218614 
L 147.806817 264.218614 
L 147.806817 263.420198 
L 150.902043 263.420198 
L 150.902043 262.621782 
L 151.718943 262.621782 
L 151.718943 261.823366 
L 152.409232 261.823366 
L 152.409232 261.02495 
L 154.514394 261.02495 
L 154.552297 259.428119 
L 154.733211 259.428119 
L 154.733211 258.629703 
L 158.547618 258.629703 
L 158.547618 257.831287 
L 171.312775 257.831287 
L 171.312775 257.032871 
L 173.402549 257.032871 
L 173.402549 256.234455 
L 174.797676 256.234455 
L 174.797676 255.43604 
L 175.190936 255.43604 
L 175.190936 254.637624 
L 176.849531 254.637624 
L 176.849531 253.839208 
L 180.440376 253.839208 
L 180.440376 253.040792 
L 181.950167 253.040792 
L 181.950167 252.242376 
L 183.856136 252.242376 
L 183.856136 251.44396 
L 183.99082 251.44396 
L 183.99082 250.645545 
L 188.562026 250.645545 
L 188.562026 249.847129 
L 188.928385 249.847129 
L 188.928385 237.870891 
L 189.217681 237.870891 
L 189.217681 237.072475 
L 189.849994 237.072475 
L 189.958392 235.475644 
L 192.232867 235.475644 
L 192.232867 234.677228 
L 193.183663 234.677228 
L 193.183663 233.878812 
L 193.32969 233.878812 
L 193.32969 233.080396 
L 194.328027 233.080396 
L 194.328027 232.28198 
L 195.249794 232.28198 
L 195.249794 231.483564 
L 199.96958 231.483564 
L 199.96958 230.685149 
L 200.207202 230.685149 
L 200.208591 227.491485 
L 201.106685 227.491485 
L 201.106685 226.693069 
L 201.317535 226.693069 
L 201.317535 225.894653 
L 203.07865 225.894653 
L 203.07865 225.096238 
L 203.210613 225.096238 
L 203.210613 224.297822 
L 204.026407 224.297822 
L 204.026407 223.499406 
L 204.302294 223.499406 
L 204.302294 222.70099 
L 205.442147 222.70099 
L 205.442147 221.902574 
L 205.721223 221.902574 
L 205.721223 221.104158 
L 205.961997 221.104158 
L 205.968544 219.507327 
L 206.109849 219.507327 
L 206.109849 218.708911 
L 207.47146 218.708911 
L 207.47146 217.910495 
L 207.638102 217.910495 
L 207.72162 216.313663 
L 208.630917 216.313663 
L 208.630917 215.515248 
L 208.924697 215.515248 
L 208.924697 214.716832 
L 209.563549 214.716832 
L 209.563549 213.918416 
L 209.68787 213.918416 
L 209.774559 212.321584 
L 211.150452 212.321584 
L 211.150452 211.523168 
L 211.528022 211.523168 
L 211.635506 209.926337 
L 211.702318 209.926337 
L 211.787048 205.135842 
L 211.906574 205.135842 
L 211.906574 204.337426 
L 212.065331 204.337426 
L 212.065331 203.53901 
L 212.22599 203.53901 
L 212.22599 202.740594 
L 212.355154 202.740594 
L 212.385158 201.143762 
L 212.6258 201.143762 
L 212.6258 200.345347 
L 212.899817 200.345347 
L 212.999311 197.950099 
L 213.216443 197.950099 
L 213.284653 196.353267 
L 213.523309 196.353267 
L 213.551945 194.756436 
L 213.911782 194.756436 
L 213.911782 193.95802 
L 214.813648 193.95802 
L 214.857338 190.764356 
L 215.551654 190.764356 
L 215.551654 189.965941 
L 215.667157 189.965941 
L 215.667157 189.167525 
L 215.928999 189.167525 
L 215.928999 188.369109 
L 216.115143 188.369109 
L 216.115143 187.570693 
L 216.449079 187.570693 
L 216.449079 186.772277 
L 216.622463 186.772277 
L 216.622463 185.973861 
L 216.942504 185.973861 
L 217.005023 183.578614 
L 217.120058 183.578614 
L 217.120058 182.780198 
L 217.263781 182.780198 
L 217.294393 181.183366 
L 217.707049 181.183366 
L 217.724323 179.586535 
L 217.854165 179.586535 
L 217.854165 178.788119 
L 218.1019 178.788119 
L 218.1019 177.989703 
L 218.442404 177.989703 
L 218.508369 176.392871 
L 219.044569 176.392871 
L 219.141866 173.997624 
L 219.272956 173.997624 
L 219.272956 173.199208 
L 219.57682 173.199208 
L 219.57682 172.400792 
L 219.753459 172.400792 
L 219.753459 171.602376 
L 219.871362 171.602376 
L 219.871362 170.80396 
L 219.989252 170.80396 
L 219.989252 170.005545 
L 220.209197 170.005545 
L 220.209197 169.207129 
L 220.360709 169.207129 
L 220.360709 168.408713 
L 220.58819 168.408713 
L 220.638555 166.811881 
L 221.125848 166.811881 
L 221.125848 166.013465 
L 221.499869 166.013465 
L 221.499869 165.21505 
L 222.274022 165.21505 
L 222.293981 162.021386 
L 222.523731 162.021386 
L 222.593911 160.424554 
L 223.033735 160.424554 
L 223.033735 159.626139 
L 223.534007 159.626139 
L 223.534007 158.827723 
L 224.11903 158.827723 
L 224.11903 158.029307 
L 224.26532 158.029307 
L 224.26532 157.230891 
L 224.511004 157.230891 
L 224.511004 156.432475 
L 224.62906 156.432475 
L 224.62906 155.634059 
L 224.944345 155.634059 
L 224.989993 154.037228 
L 225.228144 154.037228 
L 225.228144 153.238812 
L 225.65394 153.238812 
L 225.65394 152.440396 
L 225.914935 152.440396 
L 225.991568 150.843564 
L 226.310131 150.843564 
L 226.380155 148.448317 
L 227.539422 148.448317 
L 227.539422 147.649901 
L 228.209926 147.649901 
L 228.209926 146.851485 
L 228.714668 146.851485 
L 228.747556 145.254653 
L 229.007343 145.254653 
L 229.063123 143.657822 
L 229.235309 143.657822 
L 229.332296 141.262574 
L 229.49933 141.262574 
L 229.49933 140.464158 
L 229.768186 140.464158 
L 229.867048 138.867327 
L 230.374787 138.867327 
L 230.374787 138.068911 
L 231.458282 138.068911 
L 231.458282 137.270495 
L 232.410904 137.270495 
L 232.410904 136.472079 
L 232.720568 136.472079 
L 232.720568 135.673663 
L 232.892932 135.673663 
L 232.892932 134.875248 
L 233.709433 134.875248 
L 233.709433 134.076832 
L 233.965251 134.076832 
L 233.965251 133.278416 
L 234.710537 133.278416 
L 234.710537 132.48 
L 235.274189 132.48 
L 235.382105 130.084752 
L 235.639667 130.084752 
L 235.639667 129.286337 
L 235.819124 129.286337 
L 235.819124 128.487921 
L 235.93251 128.487921 
L 236.029529 126.092673 
L 236.077179 126.092673 
L 236.180675 122.89901 
L 236.252861 122.89901 
L 236.252861 122.100594 
L 236.430037 122.100594 
L 236.528437 118.906931 
L 236.59362 118.906931 
L 236.702381 114.914851 
L 236.761958 114.914851 
L 236.785453 113.31802 
L 237.010163 113.31802 
L 237.010163 112.519604 
L 237.139149 112.519604 
L 237.144883 110.922772 
L 237.250284 110.922772 
L 237.260367 108.527525 
L 237.46442 108.527525 
L 237.46442 107.729109 
L 238.17812 107.729109 
L 238.17812 106.930693 
L 238.911065 106.930693 
L 238.911065 106.132277 
L 239.115024 106.132277 
L 239.115024 105.333861 
L 239.987143 105.333861 
L 239.987143 104.535446 
L 240.222832 104.535446 
L 240.222832 103.73703 
L 240.789539 103.73703 
L 240.789539 102.938614 
L 241.663856 102.938614 
L 241.663856 102.140198 
L 241.819518 102.140198 
L 241.819518 101.341782 
L 242.197907 101.341782 
L 242.197907 100.543366 
L 242.663186 100.543366 
L 242.663186 99.74495 
L 242.862591 99.74495 
L 242.862591 98.946535 
L 243.086392 98.946535 
L 243.10552 97.349703 
L 243.415876 97.349703 
L 243.510898 95.752871 
L 243.778471 95.752871 
L 243.885308 94.15604 
L 244.085774 94.15604 
L 244.085774 93.357624 
L 245.173913 93.357624 
L 245.173913 92.559208 
L 245.766291 92.559208 
L 245.87423 90.962376 
L 245.877578 90.962376 
L 245.877578 90.16396 
L 246.596484 90.16396 
L 246.596484 89.365545 
L 246.778306 89.365545 
L 246.778306 88.567129 
L 247.069403 88.567129 
L 247.128686 86.970297 
L 247.212722 86.970297 
L 247.212722 86.171881 
L 247.683801 86.171881 
L 247.683801 85.373465 
L 247.808087 85.373465 
L 247.808087 84.57505 
L 248.6895 84.57505 
L 248.6895 83.776634 
L 249.961545 83.776634 
L 250.064641 82.179802 
L 250.887407 82.179802 
L 250.978343 80.58297 
L 251.320125 80.58297 
L 251.320125 79.784554 
L 252.276181 79.784554 
L 252.276181 78.986139 
L 252.413641 78.986139 
L 252.413641 78.187723 
L 252.917817 78.187723 
L 252.917817 77.389307 
L 254.983391 77.389307 
L 254.983391 76.590891 
L 255.376178 76.590891 
L 255.376178 75.792475 
L 255.812328 75.792475 
L 255.814393 74.195644 
L 256.02337 74.195644 
L 256.02337 73.397228 
L 256.683978 73.397228 
L 256.683978 72.598812 
L 256.952792 72.598812 
L 256.961233 71.00198 
L 257.159767 71.00198 
L 257.159767 70.203564 
L 257.738299 70.203564 
L 257.738299 69.405149 
L 257.898837 69.405149 
L 257.898837 68.606733 
L 258.260244 68.606733 
L 258.290364 66.211485 
L 258.41763 66.211485 
L 258.431312 64.614653 
L 258.61481 64.614653 
L 258.629023 63.017822 
L 258.736797 63.017822 
L 258.747438 61.42099 
L 258.990838 61.42099 
L 259.072466 59.824158 
L 259.20686 59.824158 
L 259.304605 56.630495 
L 259.322719 56.630495 
L 259.367172 55.033663 
L 259.544953 55.033663 
L 259.544953 54.235248 
L 259.708354 54.235248 
L 259.708354 53.436832 
L 259.839987 53.436832 
L 259.924873 50.243168 
L 260.140214 50.243168 
L 260.140214 49.444752 
L 260.341162 49.444752 
L 260.354055 47.847921 
L 260.614356 47.847921 
L 260.614356 47.049505 
L 260.830268 47.049505 
L 260.830268 46.251089 
L 261.047925 46.251089 
L 261.047925 45.452673 
L 261.274089 45.452673 
L 261.274089 44.654257 
L 261.389584 44.654257 
L 261.485253 43.057426 
L 261.547654 43.057426 
L 261.549663 41.460594 
L 261.714825 41.460594 
L 261.714825 40.662178 
L 264.299095 40.662178 
L 264.299095 39.863762 
L 265.228489 39.863762 
L 265.228489 39.065347 
L 266.09891 39.065347 
L 266.09891 38.266931 
L 266.30767 38.266931 
L 266.30767 37.468515 
L 266.971182 37.468515 
L 266.971182 36.670099 
L 267.19609 36.670099 
L 267.19609 35.871683 
L 267.52786 35.871683 
L 267.52786 35.073267 
L 268.283374 35.073267 
L 268.283374 34.274851 
L 271.079912 34.274851 
L 271.079912 33.476436 
L 272.519253 33.476436 
L 272.519253 32.67802 
L 273.057725 32.67802 
L 273.057725 31.879604 
L 274.222517 31.879604 
L 274.222517 31.081188 
L 281.506164 31.081188 
L 281.60679 29.484356 
L 289.819294 29.484356 
L 289.819294 28.685941 
L 294.615658 28.685941 
L 294.615658 27.887525 
L 294.990864 27.887525 
L 294.990864 27.089109 
L 296.975708 27.089109 
L 297.020616 25.492277 
L 297.364406 25.492277 
L 297.364406 24.693861 
L 297.649895 24.693861 
L 297.649895 23.895446 
L 299.070419 23.895446 
L 299.070419 23.09703 
L 299.259918 23.09703 
L 299.259918 22.298614 
L 301.649602 22.298614 
L 301.655752 20.701782 
L 301.951182 20.701782 
L 301.951182 19.903366 
L 302.470911 19.903366 
L 302.470911 19.10495 
L 303.100301 19.10495 
L 303.190415 17.508119 
L 304.240146 17.508119 
L 304.240146 16.709703 
L 304.595486 16.709703 
L 304.595486 15.911287 
L 304.940144 15.911287 
L 304.940144 15.112871 
L 306.281645 15.112871 
L 306.281645 14.314455 
L 306.522008 14.314455 
L 306.522008 13.51604 
L 307.290265 13.51604 
L 307.336135 11.919208 
L 307.699312 11.919208 
L 307.699312 11.120792 
L 308.003643 11.120792 
L 308.003643 10.322376 
L 308.879302 10.322376 
L 308.879302 9.52396 
L 310.549204 9.52396 
L 310.549204 8.725545 
L 310.77909 8.725545 
L 310.77909 7.927129 
L 313.299734 7.927129 
L 313.299734 7.128713 
L 314.4835 7.128713 
L 314.4835 6.330297 
L 314.4835 6.330297 
L 460.8 6.330297 
L 460.8 6.330297 
" clip-path="url(#pfe0294ddf6)" style="fill: none; stroke: #bf00bf; stroke-width: 1.5; stroke-linecap: square"/>
   </g>
   <g id="line2d_27">
    <path d="M -1 210.724752 
L -0.999337 210.724752 
L -0.903279 208.329505 
L -0.716153 208.329505 
L -0.62078 205.934257 
L -0.603877 205.934257 
L -0.50017 203.53901 
L -0.478616 203.53901 
L -0.379153 197.950099 
L -0.351497 197.950099 
L -0.282424 194.756436 
L -0.230057 194.756436 
L -0.15376 189.965941 
L -0.110414 189.965941 
L -0.110414 177.989703 
L 4.197948 177.989703 
L 4.197948 177.191287 
L 12.38783 177.191287 
L 12.38783 176.392871 
L 26.234473 176.392871 
L 26.234473 175.594455 
L 28.849321 175.594455 
L 28.849321 174.79604 
L 45.603386 174.79604 
L 45.603386 173.997624 
L 55.504523 173.997624 
L 55.504523 173.199208 
L 57.64826 173.199208 
L 57.64826 172.400792 
L 58.415272 172.400792 
L 58.415272 171.602376 
L 64.104731 171.602376 
L 64.104731 170.80396 
L 74.006017 170.80396 
L 74.006017 170.005545 
L 77.075428 170.005545 
L 77.075428 169.207129 
L 88.288252 169.207129 
L 88.288252 168.408713 
L 93.321784 168.408713 
L 93.321784 167.610297 
L 99.920389 167.610297 
L 99.920389 166.811881 
L 100.91742 166.811881 
L 100.91742 166.013465 
L 101.548684 166.013465 
L 101.548684 165.21505 
L 104.715098 165.21505 
L 104.715098 164.416634 
L 105.492661 164.416634 
L 105.492661 163.618218 
L 105.915023 163.618218 
L 105.915023 162.819802 
L 110.668982 162.819802 
L 110.668982 162.021386 
L 117.241982 162.021386 
L 117.241982 161.22297 
L 118.282 161.22297 
L 118.282 160.424554 
L 119.579309 160.424554 
L 119.579309 159.626139 
L 122.542505 159.626139 
L 122.542505 158.827723 
L 127.851845 158.827723 
L 127.851845 158.029307 
L 128.648607 158.029307 
L 128.648607 157.230891 
L 130.960482 157.230891 
L 130.960482 156.432475 
L 131.713939 156.432475 
L 131.713939 155.634059 
L 131.873176 155.634059 
L 131.873176 154.835644 
L 133.707042 154.835644 
L 133.707042 154.037228 
L 135.749349 154.037228 
L 135.749349 153.238812 
L 136.649039 153.238812 
L 136.649039 152.440396 
L 136.992626 152.440396 
L 136.992626 151.64198 
L 138.144773 151.64198 
L 138.144773 150.843564 
L 147.043587 150.843564 
L 147.043587 150.045149 
L 148.525909 150.045149 
L 148.525909 149.246733 
L 152.336385 149.246733 
L 152.336385 148.448317 
L 155.396088 148.448317 
L 155.396088 147.649901 
L 158.069044 147.649901 
L 158.150347 146.053069 
L 159.315896 146.053069 
L 159.315896 145.254653 
L 161.162779 145.254653 
L 161.162779 144.456238 
L 161.733359 144.456238 
L 161.733359 143.657822 
L 164.517705 143.657822 
L 164.535476 142.06099 
L 165.007643 142.06099 
L 165.007643 141.262574 
L 171.486445 141.262574 
L 171.486445 140.464158 
L 172.323126 140.464158 
L 172.323126 139.665743 
L 173.2969 139.665743 
L 173.2969 138.867327 
L 176.393932 138.867327 
L 176.393932 138.068911 
L 176.782058 138.068911 
L 176.782058 137.270495 
L 177.477897 137.270495 
L 177.477897 136.472079 
L 179.965487 136.472079 
L 179.965487 135.673663 
L 180.45206 135.673663 
L 180.45206 134.875248 
L 182.428149 134.875248 
L 182.428149 134.076832 
L 182.557049 134.076832 
L 182.557049 133.278416 
L 183.75177 133.278416 
L 183.75177 132.48 
L 184.477451 132.48 
L 184.477451 131.681584 
L 185.139993 131.681584 
L 185.139993 130.883168 
L 185.569986 130.883168 
L 185.636365 129.286337 
L 186.317733 129.286337 
L 186.317733 128.487921 
L 187.182969 128.487921 
L 187.182969 127.689505 
L 187.388393 127.689505 
L 187.388393 126.891089 
L 188.030186 126.891089 
L 188.030186 126.092673 
L 188.928385 126.092673 
L 188.928385 114.116436 
L 190.894537 114.116436 
L 190.894537 113.31802 
L 191.329175 113.31802 
L 191.329175 112.519604 
L 195.800568 112.519604 
L 195.800568 111.721188 
L 196.964604 111.721188 
L 196.964604 110.922772 
L 197.467125 110.922772 
L 197.467125 110.124356 
L 199.231441 110.124356 
L 199.231441 109.325941 
L 200.207147 109.325941 
L 200.207147 102.938614 
L 202.036631 102.938614 
L 202.036631 102.140198 
L 203.611892 102.140198 
L 203.611892 101.341782 
L 203.78991 101.341782 
L 203.78991 100.543366 
L 203.925069 100.543366 
L 203.925069 99.74495 
L 205.964915 99.74495 
L 205.964915 98.946535 
L 206.90558 98.946535 
L 206.90558 98.148119 
L 207.577492 98.148119 
L 207.577492 97.349703 
L 208.272897 97.349703 
L 208.272897 96.551287 
L 208.723054 96.551287 
L 208.723054 95.752871 
L 209.135098 95.752871 
L 209.135098 94.954455 
L 209.365398 94.954455 
L 209.365398 94.15604 
L 210.23292 94.15604 
L 210.23292 93.357624 
L 210.48758 93.357624 
L 210.548727 91.760792 
L 211.211534 91.760792 
L 211.211534 90.962376 
L 211.56214 90.962376 
L 211.635428 88.567129 
L 211.73382 88.567129 
L 211.841674 85.373465 
L 211.953273 85.373465 
L 211.982937 83.776634 
L 212.098633 83.776634 
L 212.169624 80.58297 
L 212.225987 80.58297 
L 212.329773 77.389307 
L 212.602343 77.389307 
L 212.625784 75.792475 
L 213.036571 75.792475 
L 213.036571 74.994059 
L 213.426021 74.994059 
L 213.427943 73.397228 
L 214.267401 73.397228 
L 214.341853 71.00198 
L 214.857263 71.00198 
L 214.966826 65.413069 
L 215.587486 65.413069 
L 215.587486 64.614653 
L 216.081238 64.614653 
L 216.081238 63.816238 
L 217.087867 63.816238 
L 217.087867 63.017822 
L 217.641036 63.017822 
L 217.641036 62.219406 
L 218.624744 62.219406 
L 218.624744 61.42099 
L 219.640695 61.42099 
L 219.640702 59.025743 
L 222.292345 59.025743 
L 222.292345 57.428911 
L 222.722408 57.428911 
L 222.722408 56.630495 
L 225.332728 56.630495 
L 225.332728 55.832079 
L 225.831567 55.832079 
L 225.831567 55.033663 
L 226.379954 55.033663 
L 226.379954 54.235248 
L 228.62028 54.235248 
L 228.62028 51.84 
L 229.254429 51.84 
L 229.254429 51.041584 
L 229.78941 51.041584 
L 229.78941 50.243168 
L 230.847024 50.243168 
L 230.847024 49.444752 
L 233.523073 49.444752 
L 233.523077 47.049505 
L 234.288654 47.049505 
L 234.288657 43.855842 
L 235.677529 43.855842 
L 235.677529 43.057426 
L 236.311775 43.057426 
L 236.311791 39.065347 
L 236.911746 39.065347 
L 236.911746 38.266931 
L 237.074201 38.266931 
L 237.074201 37.468515 
L 237.480922 37.468515 
L 237.480922 36.670099 
L 238.02232 36.670099 
L 238.02232 35.073267 
L 238.538531 35.073267 
L 238.538531 34.274851 
L 239.03179 34.274851 
L 239.031793 32.67802 
L 239.504044 32.67802 
L 239.504056 30.282772 
L 239.957033 30.282772 
L 239.957036 27.089109 
L 240.392238 27.089109 
L 240.392238 26.290693 
L 240.811033 26.290693 
L 240.811033 25.492277 
L 241.214581 25.492277 
L 241.214585 23.895446 
L 241.791543 23.895446 
L 241.791543 23.09703 
L 241.980158 23.09703 
L 241.980166 21.500198 
L 242.587845 21.500198 
L 242.587845 20.701782 
L 243.03777 20.701782 
L 243.03777 19.903366 
L 243.698132 19.903366 
L 243.698132 19.10495 
L 244.003297 19.10495 
L 244.003299 17.508119 
L 244.30732 17.508119 
L 244.30732 16.709703 
L 244.523592 16.709703 
L 244.523592 15.911287 
L 244.795916 15.911287 
L 244.891482 14.314455 
L 244.947275 14.314455 
L 244.947275 13.51604 
L 245.172421 13.51604 
L 245.172421 12.717624 
L 245.490986 12.717624 
L 245.490986 11.919208 
L 246.520014 11.919208 
L 246.520014 11.120792 
L 246.653101 11.120792 
L 246.653101 10.322376 
L 246.791158 10.322376 
L 246.791158 9.52396 
L 247.864524 9.52396 
L 247.864524 8.725545 
L 248.919487 8.725545 
L 248.930431 7.128713 
L 249.325977 7.128713 
L 249.325977 6.330297 
L 249.325977 6.330297 
L 460.8 6.330297 
L 460.8 6.330297 
" clip-path="url(#pfe0294ddf6)" style="fill: none; stroke: #000000; stroke-width: 1.5; stroke-linecap: square"/>
   </g>
   <g id="line2d_28">
    <path d="M -1 154.037228 
L -0.999337 154.037228 
L -0.903279 150.843564 
L -0.813975 150.843564 
L -0.716153 146.851485 
L -0.64315 146.851485 
L -0.597729 143.657822 
L -0.50017 143.657822 
L -0.430631 138.068911 
L -0.386862 138.068911 
L -0.282424 133.278416 
L -0.230057 133.278416 
L -0.15376 126.891089 
L -0.110414 126.891089 
L -0.110414 114.914851 
L 1.563882 114.914851 
L 1.563882 114.116436 
L 24.251739 114.116436 
L 24.251739 113.31802 
L 37.23471 113.31802 
L 37.23471 112.519604 
L 45.997754 112.519604 
L 45.997754 111.721188 
L 51.147318 111.721188 
L 51.147318 110.922772 
L 67.591824 110.922772 
L 67.591824 110.124356 
L 102.767324 110.124356 
L 102.767324 109.325941 
L 107.68277 109.325941 
L 107.68277 108.527525 
L 120.124733 108.527525 
L 120.124733 107.729109 
L 129.580535 107.729109 
L 129.580535 106.930693 
L 143.498912 106.930693 
L 143.498912 106.132277 
L 149.64577 106.132277 
L 149.64577 105.333861 
L 153.010464 105.333861 
L 153.010464 104.535446 
L 157.310867 104.535446 
L 157.310867 103.73703 
L 160.310859 103.73703 
L 160.310859 102.938614 
L 162.374789 102.938614 
L 162.374789 102.140198 
L 163.007674 102.140198 
L 163.007674 101.341782 
L 165.312385 101.341782 
L 165.312385 100.543366 
L 166.941813 100.543366 
L 166.941813 99.74495 
L 174.214877 99.74495 
L 174.214877 98.946535 
L 174.823465 98.946535 
L 174.823465 98.148119 
L 175.404975 98.148119 
L 175.404975 97.349703 
L 176.100356 97.349703 
L 176.100356 96.551287 
L 177.373356 96.551287 
L 177.373356 95.752871 
L 179.401233 95.752871 
L 179.401233 94.954455 
L 180.747366 94.954455 
L 180.747366 94.15604 
L 185.137571 94.15604 
L 185.137571 93.357624 
L 185.804134 93.357624 
L 185.804134 92.559208 
L 187.241016 92.559208 
L 187.241016 91.760792 
L 188.928385 91.760792 
L 188.928385 86.171881 
L 200.207147 86.171881 
L 200.207147 77.389307 
L 201.947553 77.389307 
L 201.997424 75.792475 
L 202.604552 75.792475 
L 202.604552 74.994059 
L 202.856516 74.994059 
L 202.856516 74.195644 
L 203.344379 74.195644 
L 203.344379 73.397228 
L 204.149817 73.397228 
L 204.238979 67.808317 
L 204.585351 67.808317 
L 204.585351 67.009901 
L 204.900542 67.009901 
L 204.900542 66.211485 
L 205.603624 66.211485 
L 205.603624 65.413069 
L 205.796263 65.413069 
L 205.796263 64.614653 
L 206.080394 64.614653 
L 206.080394 63.816238 
L 206.356535 63.816238 
L 206.356535 63.017822 
L 206.90558 63.017822 
L 206.90558 62.219406 
L 207.230536 62.219406 
L 207.230536 61.42099 
L 208.880514 61.42099 
L 208.880514 60.622574 
L 209.227909 60.622574 
L 209.250685 59.025743 
L 210.897972 59.025743 
L 210.913731 57.428911 
L 211.292822 57.428911 
L 211.373521 55.832079 
L 211.635428 55.832079 
L 211.73382 51.84 
L 211.763013 51.84 
L 211.763013 51.041584 
L 211.930278 51.041584 
L 211.982937 48.646337 
L 212.225987 48.646337 
L 212.225987 47.847921 
L 212.508549 47.847921 
L 212.508549 47.049505 
L 212.625784 47.049505 
L 212.625784 45.452673 
L 214.857263 45.452673 
L 214.857263 43.057426 
L 216.429519 43.057426 
L 216.429519 41.460594 
L 219.621786 41.460594 
L 219.621786 39.065347 
L 222.292345 39.065347 
L 222.292345 38.266931 
L 222.722408 38.266931 
L 222.722408 37.468515 
L 224.121033 37.468515 
L 224.121165 35.871683 
L 225.831567 35.871683 
L 225.873526 32.67802 
L 227.442601 32.67802 
L 227.442601 31.879604 
L 228.944835 31.879604 
L 228.944835 31.081188 
L 229.790227 31.081188 
L 229.790227 30.282772 
L 230.847024 30.282772 
L 230.871049 28.685941 
L 231.812542 28.685941 
L 231.812547 27.089109 
L 232.700741 27.089109 
L 232.700741 25.492277 
L 233.523077 25.492277 
L 233.523081 20.701782 
L 234.190541 20.701782 
L 234.288657 18.306535 
L 235.00481 18.306535 
L 235.004812 15.911287 
L 235.677606 15.911287 
L 235.677606 15.112871 
L 237.074162 15.112871 
L 237.074162 14.314455 
L 238.127538 14.314455 
L 238.157234 12.717624 
L 238.529528 12.717624 
L 238.529528 11.919208 
L 239.213794 11.919208 
L 239.213794 11.120792 
L 239.492213 11.120792 
L 239.595907 8.725545 
L 239.631812 8.725545 
L 239.631812 7.927129 
L 240.230634 7.927129 
L 240.230634 7.128713 
L 240.915868 7.128713 
L 240.915868 6.330297 
L 240.915868 6.330297 
L 460.8 6.330297 
L 460.8 6.330297 
" clip-path="url(#pfe0294ddf6)" style="fill: none; stroke: #00bfbf; stroke-width: 1.5; stroke-linecap: square"/>
   </g>
   <g id="line2d_29">
    <path d="M -1 135.673663 
L -0.999337 135.673663 
L -0.903279 132.48 
L -0.813975 132.48 
L -0.716153 128.487921 
L -0.64315 128.487921 
L -0.597729 125.294257 
L -0.50017 125.294257 
L -0.430631 119.705347 
L -0.386862 119.705347 
L -0.282424 114.914851 
L -0.230057 114.914851 
L -0.15376 108.527525 
L -0.110414 108.527525 
L -0.110414 96.551287 
L 22.313165 96.551287 
L 22.313165 95.752871 
L 134.988308 95.752871 
L 134.988308 94.954455 
L 143.779399 94.954455 
L 143.779399 94.15604 
L 144.223218 94.15604 
L 144.223218 93.357624 
L 147.595155 93.357624 
L 147.595155 92.559208 
L 149.64577 92.559208 
L 149.64577 91.760792 
L 154.465304 91.760792 
L 154.465304 90.962376 
L 158.405645 90.962376 
L 158.405645 90.16396 
L 159.673064 90.16396 
L 159.673064 89.365545 
L 162.374789 89.365545 
L 162.374789 88.567129 
L 162.977565 88.567129 
L 163.007674 86.970297 
L 163.889098 86.970297 
L 163.889098 86.171881 
L 164.912946 86.171881 
L 164.912946 85.373465 
L 165.99998 85.373465 
L 165.99998 84.57505 
L 166.941813 84.57505 
L 166.941813 83.776634 
L 168.941846 83.776634 
L 168.941846 82.978218 
L 169.93658 82.978218 
L 169.93658 82.179802 
L 170.634399 82.179802 
L 170.641632 80.58297 
L 172.930442 80.58297 
L 172.930442 78.187723 
L 176.100356 78.187723 
L 176.100356 77.389307 
L 179.401233 77.389307 
L 179.401233 76.590891 
L 180.621956 76.590891 
L 180.621956 71.00198 
L 185.121203 71.00198 
L 185.121203 68.606733 
L 200.207147 68.606733 
L 200.207147 59.025743 
L 201.997424 59.025743 
L 201.997424 58.227327 
L 206.728753 58.227327 
L 206.728753 57.428911 
L 207.037547 57.428911 
L 207.037547 56.630495 
L 208.797571 56.630495 
L 208.906375 53.436832 
L 209.250685 53.436832 
L 209.250685 52.638416 
L 210.802272 52.638416 
L 210.802272 51.84 
L 211.635428 51.84 
L 211.73382 47.847921 
L 211.930272 47.847921 
L 211.982937 46.251089 
L 212.625784 46.251089 
L 212.625784 44.654257 
L 214.857263 44.654257 
L 214.857263 43.057426 
L 216.429519 43.057426 
L 216.429519 41.460594 
L 219.621786 41.460594 
L 219.621786 37.468515 
L 222.0979 37.468515 
L 222.0979 35.073267 
L 222.292345 35.073267 
L 222.292345 34.274851 
L 222.722408 34.274851 
L 222.722408 33.476436 
L 224.121033 33.476436 
L 224.121033 30.282772 
L 227.442601 30.282772 
L 227.442601 29.484356 
L 228.944835 29.484356 
L 228.944835 28.685941 
L 230.871049 28.685941 
L 230.871049 27.887525 
L 231.812547 27.887525 
L 231.812547 26.290693 
L 232.700741 26.290693 
L 232.700741 22.298614 
L 233.523077 22.298614 
L 233.523342 17.508119 
L 234.190541 17.508119 
L 234.288657 15.112871 
L 237.074162 15.112871 
L 237.074162 14.314455 
L 237.647771 14.314455 
L 237.738264 11.919208 
L 237.761352 11.919208 
L 237.821184 8.725545 
L 237.905803 8.725545 
L 237.965098 6.330297 
L 237.965098 6.330297 
L 460.8 6.330297 
L 460.8 6.330297 
" clip-path="url(#pfe0294ddf6)" style="fill: none; stroke: #bf00bf; stroke-width: 1.5; stroke-linecap: square"/>
   </g>
   <g id="patch_3">
    <path d="M 0 293.76 
L 0 3.456 
" style="fill: none; stroke: #000000; stroke-width: 0.8; stroke-linejoin: miter; stroke-linecap: square"/>
   </g>
   <g id="patch_4">
    <path d="M 460.8 293.76 
L 460.8 3.456 
" style="fill: none; stroke: #000000; stroke-width: 0.8; stroke-linejoin: miter; stroke-linecap: square"/>
   </g>
   <g id="patch_5">
    <path d="M 0 293.76 
L 460.8 293.76 
" style="fill: none; stroke: #000000; stroke-width: 0.8; stroke-linejoin: miter; stroke-linecap: square"/>
   </g>
   <g id="patch_6">
    <path d="M 0 3.456 
L 460.8 3.456 
" style="fill: none; stroke: #000000; stroke-width: 0.8; stroke-linejoin: miter; stroke-linecap: square"/>
   </g>
   <g id="text_6">
    <!-- {f1-f24}, 20-D -->
    <g transform="translate(305.884 287.95392)scale(0.2 -0.2)">
     <defs>
      <path id="DejaVuSans-7b" d="M 3272 -594 
L 3272 -1044 
L 3078 -1044 
Q 2300 -1044 2036 -812 
Q 1772 -581 1772 109 
L 1772 856 
Q 1772 1328 1603 1509 
Q 1434 1691 991 1691 
L 800 1691 
L 800 2138 
L 991 2138 
Q 1438 2138 1605 2317 
Q 1772 2497 1772 2963 
L 1772 3713 
Q 1772 4403 2036 4633 
Q 2300 4863 3078 4863 
L 3272 4863 
L 3272 4416 
L 3059 4416 
Q 2619 4416 2484 4278 
Q 2350 4141 2350 3700 
L 2350 2925 
Q 2350 2434 2208 2212 
Q 2066 1991 1722 1913 
Q 2069 1828 2209 1606 
Q 2350 1384 2350 897 
L 2350 122 
Q 2350 -319 2484 -456 
Q 2619 -594 3059 -594 
L 3272 -594 
z
" transform="scale(0.015625)"/>
      <path id="DejaVuSans-32" d="M 1228 531 
L 3431 531 
L 3431 0 
L 469 0 
L 469 531 
Q 828 903 1448 1529 
Q 2069 2156 2228 2338 
Q 2531 2678 2651 2914 
Q 2772 3150 2772 3378 
Q 2772 3750 2511 3984 
Q 2250 4219 1831 4219 
Q 1534 4219 1204 4116 
Q 875 4013 500 3803 
L 500 4441 
Q 881 4594 1212 4672 
Q 1544 4750 1819 4750 
Q 2544 4750 2975 4387 
Q 3406 4025 3406 3419 
Q 3406 3131 3298 2873 
Q 3191 2616 2906 2266 
Q 2828 2175 2409 1742 
Q 1991 1309 1228 531 
z
" transform="scale(0.015625)"/>
      <path id="DejaVuSans-7d" d="M 800 -594 
L 1019 -594 
Q 1456 -594 1589 -459 
Q 1722 -325 1722 122 
L 1722 897 
Q 1722 1384 1862 1606 
Q 2003 1828 2350 1913 
Q 2003 1991 1862 2212 
Q 1722 2434 1722 2925 
L 1722 3700 
Q 1722 4144 1589 4280 
Q 1456 4416 1019 4416 
L 800 4416 
L 800 4863 
L 997 4863 
Q 1775 4863 2036 4633 
Q 2297 4403 2297 3713 
L 2297 2963 
Q 2297 2497 2465 2317 
Q 2634 2138 3078 2138 
L 3272 2138 
L 3272 1691 
L 3078 1691 
Q 2634 1691 2465 1509 
Q 2297 1328 2297 856 
L 2297 109 
Q 2297 -581 2036 -812 
Q 1775 -1044 997 -1044 
L 800 -1044 
L 800 -594 
z
" transform="scale(0.015625)"/>
      <path id="DejaVuSans-2c" d="M 750 794 
L 1409 794 
L 1409 256 
L 897 -744 
L 494 -744 
L 750 256 
L 750 794 
z
" transform="scale(0.015625)"/>
     </defs>
     <use xlink:href="#DejaVuSans-7b"/>
     <use xlink:href="#DejaVuSans-66" x="63.623047"/>
     <use xlink:href="#DejaVuSans-31" x="98.828125"/>
     <use xlink:href="#DejaVuSans-2d" x="162.451172"/>
     <use xlink:href="#DejaVuSans-66" x="198.535156"/>
     <use xlink:href="#DejaVuSans-32" x="233.740234"/>
     <use xlink:href="#DejaVuSans-34" x="297.363281"/>
     <use xlink:href="#DejaVuSans-7d" x="360.986328"/>
     <use xlink:href="#DejaVuSans-2c" x="424.609375"/>
     <use xlink:href="#DejaVuSans-20" x="456.396484"/>
     <use xlink:href="#DejaVuSans-32" x="488.183594"/>
     <use xlink:href="#DejaVuSans-30" x="551.806641"/>
     <use xlink:href="#DejaVuSans-2d" x="615.429688"/>
     <use xlink:href="#DejaVuSans-44" x="651.513672"/>
    </g>
   </g>
   <g id="text_7">
    <!-- v2.6.3 -->
    <g style="fill: #808080" transform="translate(214.71875 288.777272)scale(0.1 -0.1)">
     <defs>
      <path id="DejaVuSans-76" d="M 191 3500 
L 800 3500 
L 1894 563 
L 2988 3500 
L 3597 3500 
L 2284 0 
L 1503 0 
L 191 3500 
z
" transform="scale(0.015625)"/>
      <path id="DejaVuSans-2e" d="M 684 794 
L 1344 794 
L 1344 0 
L 684 0 
L 684 794 
z
" transform="scale(0.015625)"/>
      <path id="DejaVuSans-36" d="M 2113 2584 
Q 1688 2584 1439 2293 
Q 1191 2003 1191 1497 
Q 1191 994 1439 701 
Q 1688 409 2113 409 
Q 2538 409 2786 701 
Q 3034 994 3034 1497 
Q 3034 2003 2786 2293 
Q 2538 2584 2113 2584 
z
M 3366 4563 
L 3366 3988 
Q 3128 4100 2886 4159 
Q 2644 4219 2406 4219 
Q 1781 4219 1451 3797 
Q 1122 3375 1075 2522 
Q 1259 2794 1537 2939 
Q 1816 3084 2150 3084 
Q 2853 3084 3261 2657 
Q 3669 2231 3669 1497 
Q 3669 778 3244 343 
Q 2819 -91 2113 -91 
Q 1303 -91 875 529 
Q 447 1150 447 2328 
Q 447 3434 972 4092 
Q 1497 4750 2381 4750 
Q 2619 4750 2861 4703 
Q 3103 4656 3366 4563 
z
" transform="scale(0.015625)"/>
      <path id="DejaVuSans-33" d="M 2597 2516 
Q 3050 2419 3304 2112 
Q 3559 1806 3559 1356 
Q 3559 666 3084 287 
Q 2609 -91 1734 -91 
Q 1441 -91 1130 -33 
Q 819 25 488 141 
L 488 750 
Q 750 597 1062 519 
Q 1375 441 1716 441 
Q 2309 441 2620 675 
Q 2931 909 2931 1356 
Q 2931 1769 2642 2001 
Q 2353 2234 1838 2234 
L 1294 2234 
L 1294 2753 
L 1863 2753 
Q 2328 2753 2575 2939 
Q 2822 3125 2822 3475 
Q 2822 3834 2567 4026 
Q 2313 4219 1838 4219 
Q 1578 4219 1281 4162 
Q 984 4106 628 3988 
L 628 4550 
Q 988 4650 1302 4700 
Q 1616 4750 1894 4750 
Q 2613 4750 3031 4423 
Q 3450 4097 3450 3541 
Q 3450 3153 3228 2886 
Q 3006 2619 2597 2516 
z
" transform="scale(0.015625)"/>
     </defs>
     <use xlink:href="#DejaVuSans-76"/>
     <use xlink:href="#DejaVuSans-32" x="59.179688"/>
     <use xlink:href="#DejaVuSans-2e" x="122.802734"/>
     <use xlink:href="#DejaVuSans-36" x="154.589844"/>
     <use xlink:href="#DejaVuSans-2e" x="218.212891"/>
     <use xlink:href="#DejaVuSans-33" x="250"/>
    </g>
   </g>
  </g>
 </g>
 <defs>
  <clipPath id="pfe0294ddf6">
   <rect x="0" y="3.456" width="460.8" height="290.304"/>
  </clipPath>
 </defs>
</svg>
