<?xml version="1.0" encoding="utf-8" standalone="no"?>
<!DOCTYPE svg PUBLIC "-//W3C//DTD SVG 1.1//EN"
  "http://www.w3.org/Graphics/SVG/1.1/DTD/svg11.dtd">
<svg xmlns:xlink="http://www.w3.org/1999/xlink" width="460.8pt" height="345.6pt" viewBox="0 0 460.8 345.6" xmlns="http://www.w3.org/2000/svg" version="1.1">
 <metadata>
  <rdf:RDF xmlns:dc="http://purl.org/dc/elements/1.1/" xmlns:cc="http://creativecommons.org/ns#" xmlns:rdf="http://www.w3.org/1999/02/22-rdf-syntax-ns#">
   <cc:Work>
    <dc:type rdf:resource="http://purl.org/dc/dcmitype/StillImage"/>
    <dc:date>2023-04-07T14:49:10.740586</dc:date>
    <dc:format>image/svg+xml</dc:format>
    <dc:creator>
     <cc:Agent>
      <dc:title>Matplotlib v3.5.2, https://matplotlib.org/</dc:title>
     </cc:Agent>
    </dc:creator>
   </cc:Work>
  </rdf:RDF>
 </metadata>
 <defs>
  <style type="text/css">*{stroke-linejoin: round; stroke-linecap: butt}</style>
 </defs>
 <g id="figure_1">
  <g id="patch_1">
   <path d="M 0 345.6 
L 460.8 345.6 
L 460.8 0 
L 0 0 
z
" style="fill: #ffffff"/>
  </g>
  <g id="axes_1">
   <g id="patch_2">
    <path d="M 62.208 293.76 
L 460.8 293.76 
L 460.8 3.456 
L 62.208 3.456 
z
" style="fill: #ffffff"/>
   </g>
   <g id="line2d_1">
    <path d="M 233.777692 293.76 
L 233.777692 288.969505 
L 236.359023 288.969505 
L 236.359023 284.17901 
L 237.337001 284.17901 
L 237.337001 279.388515 
L 237.337001 279.388515 
L 237.337001 274.59802 
L 237.81522 274.59802 
L 237.81522 269.807525 
L 237.973083 269.807525 
L 237.973083 265.01703 
L 238.130186 265.01703 
L 238.130186 260.226535 
L 238.904558 260.226535 
L 238.904558 255.43604 
L 239.360516 255.43604 
L 239.360516 250.645545 
L 239.511099 250.645545 
L 239.511099 245.85505 
L 239.511099 245.85505 
L 239.511099 241.064554 
L 239.660989 241.064554 
L 239.660989 236.274059 
L 239.660989 236.274059 
L 239.660989 231.483564 
L 240.106577 231.483564 
L 240.106577 226.693069 
L 240.106577 226.693069 
L 240.106577 221.902574 
L 241.123226 221.902574 
L 241.123226 217.112079 
L 241.407977 217.112079 
L 241.407977 212.321584 
L 241.549426 212.321584 
L 241.549426 207.531089 
L 241.690265 207.531089 
L 241.690265 202.740594 
L 241.830499 202.740594 
L 241.830499 197.950099 
L 242.247624 197.950099 
L 242.247624 193.159604 
L 242.247624 193.159604 
L 242.247624 188.369109 
L 242.38549 188.369109 
L 242.38549 183.578614 
L 244.772429 183.578614 
L 244.772429 178.788119 
L 246.02679 178.788119 
L 246.02679 173.997624 
L 246.271981 173.997624 
L 246.271981 169.207129 
L 261.203313 169.207129 
L 261.203313 164.416634 
L 263.894586 164.416634 
L 263.894586 159.626139 
L 266.802215 159.626139 
L 266.802215 154.835644 
L 273.241093 154.835644 
L 273.241093 150.045149 
L 273.241093 150.045149 
L 273.241093 150.045149 
L 460.8 150.045149 
" clip-path="url(#p71b138fd82)" style="fill: none; stroke: #f5deb3; stroke-width: 1.5; stroke-linecap: square"/>
   </g>
   <g id="line2d_2"/>
   <g id="line2d_3">
    <path d="M 234.302152 293.76 
L 234.302152 288.969505 
L 239.788922 288.969505 
L 239.788922 284.17901 
L 242.450936 284.17901 
L 242.450936 279.388515 
L 246.705295 279.388515 
L 246.705295 274.59802 
L 247.217793 274.59802 
L 247.217793 269.807525 
L 247.482268 269.807525 
L 247.482268 265.01703 
L 247.504678 265.01703 
L 247.504678 260.226535 
L 247.594164 260.226535 
L 247.594164 255.43604 
L 248.334134 255.43604 
L 248.334134 250.645545 
L 248.864883 250.645545 
L 248.864883 245.85505 
L 249.014954 245.85505 
L 249.014954 241.064554 
L 249.286538 241.064554 
L 249.286538 236.274059 
L 249.455798 236.274059 
L 249.455798 231.483564 
L 249.497976 231.483564 
L 249.497976 226.693069 
L 249.52431 226.693069 
L 249.52431 221.902574 
L 249.550622 221.902574 
L 249.550622 217.112079 
L 249.63468 217.112079 
L 249.63468 212.321584 
L 251.061664 212.321584 
L 251.061664 207.531089 
L 251.565034 207.531089 
L 251.565034 202.740594 
L 252.046146 202.740594 
L 252.046146 197.950099 
L 252.452959 197.950099 
L 252.452959 193.159604 
L 253.265775 193.159604 
L 253.265775 188.369109 
L 253.63456 188.369109 
L 253.63456 183.578614 
L 259.553513 183.578614 
L 259.553513 178.788119 
L 260.159674 178.788119 
L 260.159674 173.997624 
L 260.526311 173.997624 
L 260.526311 169.207129 
L 261.092681 169.207129 
L 261.092681 164.416634 
L 261.148044 164.416634 
L 261.148044 159.626139 
L 261.170163 159.626139 
L 261.170163 154.835644 
L 262.289493 154.835644 
L 262.289493 150.045149 
L 262.399699 150.045149 
L 262.399699 145.254653 
L 263.244006 145.254653 
L 263.244006 140.464158 
L 263.751886 140.464158 
L 263.751886 135.673663 
L 263.843693 135.673663 
L 263.843693 130.883168 
L 264.452567 130.883168 
L 264.452567 126.092673 
L 264.899419 126.092673 
L 264.899419 121.302178 
L 265.899766 121.302178 
L 265.899766 116.511683 
L 267.864036 116.511683 
L 267.864036 111.721188 
L 269.451945 111.721188 
L 269.451945 106.930693 
L 275.257832 106.930693 
L 275.257832 102.140198 
L 277.590225 102.140198 
L 277.590225 97.349703 
L 277.748084 97.349703 
L 277.748084 92.559208 
L 278.629921 92.559208 
L 278.629921 87.768713 
L 278.89225 87.768713 
L 278.89225 82.978218 
L 279.279717 82.978218 
L 279.279717 78.187723 
L 279.279717 78.187723 
L 279.279717 78.187723 
L 460.8 78.187723 
" clip-path="url(#p71b138fd82)" style="fill: none; stroke: #f5deb3; stroke-width: 1.5; stroke-linecap: square"/>
   </g>
   <g id="line2d_4">
    <path d="M 275.956469 293.76 
L 275.956469 288.969505 
L 279.798317 288.969505 
L 279.798317 284.17901 
L 282.115802 284.17901 
L 282.115802 279.388515 
L 282.520741 279.388515 
L 282.520741 274.59802 
L 285.189315 274.59802 
L 285.189315 269.807525 
L 285.205204 269.807525 
L 285.205204 265.01703 
L 286.570693 265.01703 
L 286.570693 260.226535 
L 287.15787 260.226535 
L 287.15787 255.43604 
L 287.171168 255.43604 
L 287.171168 250.645545 
L 287.523264 250.645545 
L 287.523264 245.85505 
L 287.983653 245.85505 
L 287.983653 241.064554 
L 288.303069 241.064554 
L 288.303069 236.274059 
L 289.25858 236.274059 
L 289.25858 231.483564 
L 289.596696 231.483564 
L 289.596696 226.693069 
L 289.744488 226.693069 
L 289.744488 221.902574 
L 291.608729 221.902574 
L 291.608729 217.112079 
L 292.665031 217.112079 
L 292.665031 212.321584 
L 293.11005 212.321584 
L 293.11005 207.531089 
L 293.403853 207.531089 
L 293.403853 202.740594 
L 295.921501 202.740594 
L 295.921501 197.950099 
L 302.822745 197.950099 
L 302.822745 193.159604 
L 305.190153 193.159604 
L 305.190153 188.369109 
L 308.072942 188.369109 
L 308.072942 183.578614 
L 309.997933 183.578614 
L 309.997933 178.788119 
L 311.174255 178.788119 
L 311.174255 173.997624 
L 313.708394 173.997624 
L 313.708394 169.207129 
L 316.363145 169.207129 
L 316.363145 164.416634 
L 320.056661 164.416634 
L 320.056661 159.626139 
L 320.572191 159.626139 
L 320.572191 154.835644 
L 322.02141 154.835644 
L 322.02141 150.045149 
L 322.02141 150.045149 
L 322.02141 150.045149 
L 460.8 150.045149 
" clip-path="url(#p71b138fd82)" style="fill: none; stroke: #f5deb3; stroke-width: 1.5; stroke-linecap: square"/>
   </g>
   <g id="line2d_5"/>
   <g id="line2d_6"/>
   <g id="line2d_7">
    <path d="M 263.437107 293.76 
L 263.437107 288.969505 
L 263.799522 288.969505 
L 263.799522 284.17901 
L 265.320773 284.17901 
L 265.320773 279.388515 
L 265.787985 279.388515 
L 265.787985 274.59802 
L 266.049273 274.59802 
L 266.049273 269.807525 
L 266.273832 269.807525 
L 266.273832 265.01703 
L 266.845606 265.01703 
L 266.845606 260.226535 
L 267.120103 260.226535 
L 267.120103 255.43604 
L 267.36184 255.43604 
L 267.36184 250.645545 
L 268.21341 250.645545 
L 268.21341 245.85505 
L 268.260898 245.85505 
L 268.260898 241.064554 
L 268.965057 241.064554 
L 268.965057 236.274059 
L 270.133942 236.274059 
L 270.133942 231.483564 
L 270.262512 231.483564 
L 270.262512 226.693069 
L 271.793741 226.693069 
L 271.793741 221.902574 
L 288.676576 221.902574 
L 288.676576 217.112079 
L 290.221757 217.112079 
L 290.221757 212.321584 
L 290.639886 212.321584 
L 290.639886 207.531089 
L 291.470614 207.531089 
L 291.470614 202.740594 
L 291.568082 202.740594 
L 291.568082 197.950099 
L 292.098304 197.950099 
L 292.098304 193.159604 
L 292.266514 193.159604 
L 292.266514 188.369109 
L 293.63646 188.369109 
L 293.63646 183.578614 
L 293.949901 183.578614 
L 293.949901 178.788119 
L 294.694857 178.788119 
L 294.694857 173.997624 
L 294.764739 173.997624 
L 294.764739 169.207129 
L 294.846298 169.207129 
L 294.846298 164.416634 
L 294.892249 164.416634 
L 294.892249 159.626139 
L 296.124272 159.626139 
L 296.124272 154.835644 
L 296.746218 154.835644 
L 296.746218 150.045149 
L 296.940251 150.045149 
L 296.940251 145.254653 
L 297.95327 145.254653 
L 297.95327 140.464158 
L 298.091546 140.464158 
L 298.091546 135.673663 
L 298.524034 135.673663 
L 298.524034 130.883168 
L 298.635362 130.883168 
L 298.635362 126.092673 
L 299.008748 126.092673 
L 299.008748 121.302178 
L 299.512576 121.302178 
L 299.512576 116.511683 
L 300.199994 116.511683 
L 300.199994 111.721188 
L 300.370165 111.721188 
L 300.370165 106.930693 
L 301.21986 106.930693 
L 301.21986 102.140198 
L 301.503963 102.140198 
L 301.503963 97.349703 
L 301.714364 97.349703 
L 301.714364 92.559208 
L 302.215123 92.559208 
L 302.215123 87.768713 
L 324.908461 87.768713 
L 324.908461 82.978218 
L 346.202843 82.978218 
L 346.202843 78.187723 
L 409.258091 78.187723 
L 409.258091 73.397228 
L 424.036957 73.397228 
L 424.036957 68.606733 
L 428.175637 68.606733 
L 428.175637 63.816238 
L 434.016961 63.816238 
L 434.016961 59.025743 
L 443.157325 59.025743 
L 443.157325 54.235248 
L 450.027182 54.235248 
L 450.027182 49.444752 
L 454.034289 49.444752 
L 454.034289 44.654257 
L 458.799121 44.654257 
L 458.799121 39.863762 
L 461.8 39.863762 
" clip-path="url(#p71b138fd82)" style="fill: none; stroke: #f5deb3; stroke-width: 1.5; stroke-linecap: square"/>
   </g>
   <g id="line2d_8">
    <path d="M 369.380461 293.76 
L 369.380461 288.969505 
L 369.438304 288.969505 
L 369.438304 284.17901 
L 369.483089 284.17901 
L 369.483089 279.388515 
L 369.865198 279.388515 
L 369.865198 274.59802 
L 369.877475 274.59802 
L 369.877475 269.807525 
L 369.903467 269.807525 
L 369.903467 265.01703 
L 369.958286 265.01703 
L 369.958286 260.226535 
L 369.959997 260.226535 
L 369.959997 255.43604 
L 369.975398 255.43604 
L 369.975398 250.645545 
L 370.053997 250.645545 
L 370.053997 245.85505 
L 370.096897 245.85505 
L 370.096897 241.064554 
L 370.484111 241.064554 
L 370.484111 236.274059 
L 370.485407 236.274059 
L 370.485407 231.483564 
L 370.640763 231.483564 
L 370.640763 226.693069 
L 371.588894 226.693069 
L 371.588894 221.902574 
L 371.588894 221.902574 
L 371.588894 221.902574 
L 460.8 221.902574 
" clip-path="url(#p71b138fd82)" style="fill: none; stroke: #f5deb3; stroke-width: 1.5; stroke-linecap: square"/>
   </g>
   <g id="line2d_9">
    <path d="M 262.626051 293.76 
L 262.626051 288.969505 
L 264.545751 288.969505 
L 264.545751 284.17901 
L 264.661859 284.17901 
L 264.661859 279.388515 
L 266.194938 279.388515 
L 266.194938 274.59802 
L 266.421639 274.59802 
L 266.421639 269.807525 
L 266.487465 269.807525 
L 266.487465 265.01703 
L 266.718371 265.01703 
L 266.718371 260.226535 
L 267.046308 260.226535 
L 267.046308 255.43604 
L 267.63205 255.43604 
L 267.63205 250.645545 
L 267.752768 250.645545 
L 267.752768 245.85505 
L 268.031724 245.85505 
L 268.031724 241.064554 
L 269.363176 241.064554 
L 269.363176 236.274059 
L 269.694113 236.274059 
L 269.694113 231.483564 
L 270.518143 231.483564 
L 270.518143 226.693069 
L 272.366283 226.693069 
L 272.366283 221.902574 
L 273.118641 221.902574 
L 273.118641 217.112079 
L 285.709642 217.112079 
L 285.709642 212.321584 
L 285.893358 212.321584 
L 285.893358 207.531089 
L 286.329423 207.531089 
L 286.329423 202.740594 
L 286.332834 202.740594 
L 286.332834 197.950099 
L 286.835391 197.950099 
L 286.835391 193.159604 
L 286.910865 193.159604 
L 286.910865 188.369109 
L 287.80484 188.369109 
L 287.80484 183.578614 
L 288.130843 183.578614 
L 288.130843 178.788119 
L 288.196944 178.788119 
L 288.196944 173.997624 
L 288.261303 173.997624 
L 288.261303 169.207129 
L 288.298253 169.207129 
L 288.298253 164.416634 
L 288.42005 164.416634 
L 288.42005 159.626139 
L 288.627339 159.626139 
L 288.627339 154.835644 
L 289.085066 154.835644 
L 289.085066 150.045149 
L 289.188348 150.045149 
L 289.188348 145.254653 
L 289.659898 145.254653 
L 289.659898 140.464158 
L 290.044169 140.464158 
L 290.044169 135.673663 
L 290.434499 135.673663 
L 290.434499 130.883168 
L 290.461558 130.883168 
L 290.461558 126.092673 
L 290.790479 126.092673 
L 290.790479 121.302178 
L 291.232267 121.302178 
L 291.232267 116.511683 
L 292.195344 116.511683 
L 292.195344 111.721188 
L 292.628492 111.721188 
L 292.628492 106.930693 
L 293.413463 106.930693 
L 293.413463 102.140198 
L 293.860653 102.140198 
L 293.860653 97.349703 
L 295.430939 97.349703 
L 295.430939 92.559208 
L 296.088878 92.559208 
L 296.088878 87.768713 
L 296.119218 87.768713 
L 296.119218 82.978218 
L 301.815345 82.978218 
L 301.815345 78.187723 
L 303.462684 78.187723 
L 303.462684 73.397228 
L 304.622477 73.397228 
L 304.622477 68.606733 
L 304.811833 68.606733 
L 304.811833 63.816238 
L 305.059728 63.816238 
L 305.059728 59.025743 
L 305.25326 59.025743 
L 305.25326 54.235248 
L 306.475724 54.235248 
L 306.475724 49.444752 
L 306.964325 49.444752 
L 306.964325 44.654257 
L 307.856679 44.654257 
L 307.856679 39.863762 
L 308.543565 39.863762 
L 308.543565 35.073267 
L 309.594822 35.073267 
L 309.594822 30.282772 
L 310.548371 30.282772 
L 310.548371 25.492277 
L 310.765328 25.492277 
L 310.765328 20.701782 
L 311.389481 20.701782 
L 311.389481 15.911287 
L 311.481176 15.911287 
L 311.481176 11.120792 
L 317.246306 11.120792 
L 317.246306 6.330297 
L 317.246306 6.330297 
L 317.246306 6.330297 
L 460.8 6.330297 
" clip-path="url(#p71b138fd82)" style="fill: none; stroke: #f5deb3; stroke-width: 1.5; stroke-linecap: square"/>
   </g>
   <g id="line2d_10">
    <path d="M 427.403064 293.76 
L 427.403064 288.969505 
L 427.750597 288.969505 
L 427.750597 284.17901 
L 428.206061 284.17901 
L 428.206061 279.388515 
L 429.906851 279.388515 
L 429.906851 274.59802 
L 430.014581 274.59802 
L 430.014581 269.807525 
L 430.743047 269.807525 
L 430.743047 265.01703 
L 430.852647 265.01703 
L 430.852647 260.226535 
L 431.912275 260.226535 
L 431.912275 255.43604 
L 436.611027 255.43604 
L 436.611027 250.645545 
L 436.711044 250.645545 
L 436.711044 245.85505 
L 436.711044 245.85505 
L 436.711044 245.85505 
L 460.8 245.85505 
" clip-path="url(#p71b138fd82)" style="fill: none; stroke: #f5deb3; stroke-width: 1.5; stroke-linecap: square"/>
   </g>
   <g id="line2d_11">
    <path d="M 271.553305 293.76 
L 271.553305 288.969505 
L 274.157509 288.969505 
L 274.157509 284.17901 
L 277.841107 284.17901 
L 277.841107 279.388515 
L 283.353241 279.388515 
L 283.353241 274.59802 
L 284.146814 274.59802 
L 284.146814 269.807525 
L 284.559896 269.807525 
L 284.559896 265.01703 
L 287.346864 265.01703 
L 287.346864 260.226535 
L 287.389815 260.226535 
L 287.389815 255.43604 
L 287.850449 255.43604 
L 287.850449 250.645545 
L 296.939018 250.645545 
L 296.939018 245.85505 
L 297.401521 245.85505 
L 297.401521 241.064554 
L 299.819758 241.064554 
L 299.819758 236.274059 
L 301.31268 236.274059 
L 301.31268 231.483564 
L 312.447899 231.483564 
L 312.447899 226.693069 
L 382.84849 226.693069 
L 382.84849 221.902574 
L 402.364875 221.902574 
L 402.364875 217.112079 
L 403.289752 217.112079 
L 403.289752 212.321584 
L 405.194249 212.321584 
L 405.194249 207.531089 
L 405.319889 207.531089 
L 405.319889 202.740594 
L 405.353662 202.740594 
L 405.353662 197.950099 
L 405.537684 197.950099 
L 405.537684 193.159604 
L 405.654203 193.159604 
L 405.654203 188.369109 
L 405.683047 188.369109 
L 405.683047 183.578614 
L 405.710369 183.578614 
L 405.710369 178.788119 
L 405.79391 178.788119 
L 405.79391 173.997624 
L 405.811611 173.997624 
L 405.811611 169.207129 
L 405.818812 169.207129 
L 405.818812 164.416634 
L 405.828337 164.416634 
L 405.828337 159.626139 
L 405.85295 159.626139 
L 405.85295 154.835644 
L 405.855537 154.835644 
L 405.855537 150.045149 
L 405.876054 150.045149 
L 405.876054 145.254653 
L 405.893755 145.254653 
L 405.893755 140.464158 
L 405.911577 140.464158 
L 405.911577 135.673663 
L 405.913985 135.673663 
L 405.913985 130.883168 
L 405.935646 130.883168 
L 405.935646 126.092673 
L 405.996701 126.092673 
L 405.996701 121.302178 
L 406.128518 121.302178 
L 406.128518 116.511683 
L 406.220712 116.511683 
L 406.220712 111.721188 
L 406.410748 111.721188 
L 406.410748 106.930693 
L 429.625585 106.930693 
L 429.625585 102.140198 
L 432.347073 102.140198 
L 432.347073 97.349703 
L 432.829509 97.349703 
L 432.829509 92.559208 
L 432.939243 92.559208 
L 432.939243 87.768713 
L 436.144762 87.768713 
L 436.144762 82.978218 
L 459.544898 82.978218 
L 459.544898 78.187723 
L 459.544898 78.187723 
L 459.544898 78.187723 
L 460.8 78.187723 
" clip-path="url(#p71b138fd82)" style="fill: none; stroke: #f5deb3; stroke-width: 1.5; stroke-linecap: square"/>
   </g>
   <g id="line2d_12">
    <path d="M 236.311713 293.76 
L 236.311713 288.969505 
L 240.358495 288.969505 
L 240.358495 284.17901 
L 240.504554 284.17901 
L 240.504554 279.388515 
L 241.790494 279.388515 
L 241.790494 274.59802 
L 242.069509 274.59802 
L 242.069509 269.807525 
L 242.620486 269.807525 
L 242.620486 265.01703 
L 243.027701 265.01703 
L 243.027701 260.226535 
L 243.027701 260.226535 
L 243.027701 255.43604 
L 243.296384 255.43604 
L 243.296384 250.645545 
L 243.296384 250.645545 
L 243.296384 245.85505 
L 243.429901 245.85505 
L 243.429901 241.064554 
L 243.562874 241.064554 
L 243.562874 236.274059 
L 243.695308 236.274059 
L 243.695308 231.483564 
L 243.827206 231.483564 
L 243.827206 226.693069 
L 243.827206 226.693069 
L 243.827206 221.902574 
L 244.219735 221.902574 
L 244.219735 217.112079 
L 244.219735 217.112079 
L 244.219735 212.321584 
L 244.219735 212.321584 
L 244.219735 207.531089 
L 244.607601 207.531089 
L 244.607601 202.740594 
L 244.607601 202.740594 
L 244.607601 197.950099 
L 244.607601 197.950099 
L 244.607601 193.159604 
L 244.990914 193.159604 
L 244.990914 188.369109 
L 245.117691 188.369109 
L 245.117691 183.578614 
L 247.319335 183.578614 
L 247.319335 178.788119 
L 251.11185 178.788119 
L 251.11185 173.997624 
L 265.043749 173.997624 
L 265.043749 169.207129 
L 267.364889 169.207129 
L 267.364889 164.416634 
L 267.68341 164.416634 
L 267.68341 159.626139 
L 268.061578 159.626139 
L 268.061578 154.835644 
L 276.127069 154.835644 
L 276.127069 150.045149 
L 276.127069 150.045149 
L 276.127069 150.045149 
L 460.8 150.045149 
" clip-path="url(#p71b138fd82)" style="fill: none; stroke: #f5deb3; stroke-width: 1.5; stroke-linecap: square"/>
   </g>
   <g id="line2d_13"/>
   <g id="line2d_14"/>
   <g id="line2d_15"/>
   <g id="line2d_16">
    <path d="M 355.447395 293.76 
L 355.447395 288.969505 
L 356.170553 288.969505 
L 356.170553 284.17901 
L 361.085989 284.17901 
L 361.085989 279.388515 
L 377.734308 279.388515 
L 377.734308 274.59802 
L 377.809346 274.59802 
L 377.809346 269.807525 
L 378.110041 269.807525 
L 378.110041 265.01703 
L 389.841709 265.01703 
L 389.841709 260.226535 
L 392.707584 260.226535 
L 392.707584 255.43604 
L 393.942532 255.43604 
L 393.942532 250.645545 
L 397.655566 250.645545 
L 397.655566 245.85505 
L 399.639686 245.85505 
L 399.639686 241.064554 
L 401.30256 241.064554 
L 401.30256 236.274059 
L 409.300382 236.274059 
L 409.300382 231.483564 
L 416.034029 231.483564 
L 416.034029 226.693069 
L 416.292564 226.693069 
L 416.292564 221.902574 
L 440.367869 221.902574 
L 440.367869 217.112079 
L 443.654811 217.112079 
L 443.654811 212.321584 
L 443.708451 212.321584 
L 443.708451 207.531089 
L 444.891014 207.531089 
L 444.891014 202.740594 
L 446.353318 202.740594 
L 446.353318 197.950099 
L 446.705212 197.950099 
L 446.705212 193.159604 
L 446.943624 193.159604 
L 446.943624 188.369109 
L 448.599603 188.369109 
L 448.599603 183.578614 
L 449.03865 183.578614 
L 449.03865 178.788119 
L 449.67171 178.788119 
L 449.67171 173.997624 
L 449.792245 173.997624 
L 449.792245 169.207129 
L 449.875218 169.207129 
L 449.875218 164.416634 
L 451.369524 164.416634 
L 451.369524 159.626139 
L 454.222633 159.626139 
L 454.222633 154.835644 
L 456.524684 154.835644 
L 456.524684 150.045149 
L 461.8 150.045149 
" clip-path="url(#p71b138fd82)" style="fill: none; stroke: #f5deb3; stroke-width: 1.5; stroke-linecap: square"/>
   </g>
   <g id="line2d_17">
    <path d="M 357.30604 293.76 
L 357.30604 288.969505 
L 359.439208 288.969505 
L 359.439208 284.17901 
L 361.082706 284.17901 
L 361.082706 279.388515 
L 361.268103 279.388515 
L 361.268103 274.59802 
L 364.576803 274.59802 
L 364.576803 269.807525 
L 365.325038 269.807525 
L 365.325038 265.01703 
L 365.373862 265.01703 
L 365.373862 260.226535 
L 369.46037 260.226535 
L 369.46037 255.43604 
L 370.047827 255.43604 
L 370.047827 250.645545 
L 370.113282 250.645545 
L 370.113282 245.85505 
L 371.629451 245.85505 
L 371.629451 241.064554 
L 373.370439 241.064554 
L 373.370439 236.274059 
L 373.654903 236.274059 
L 373.654903 231.483564 
L 379.7996 231.483564 
L 379.7996 226.693069 
L 384.390179 226.693069 
L 384.390179 221.902574 
L 404.338242 221.902574 
L 404.338242 217.112079 
L 409.607447 217.112079 
L 409.607447 212.321584 
L 411.186155 212.321584 
L 411.186155 207.531089 
L 412.138188 207.531089 
L 412.138188 202.740594 
L 412.992169 202.740594 
L 412.992169 197.950099 
L 413.283385 197.950099 
L 413.283385 193.159604 
L 414.125802 193.159604 
L 414.125802 188.369109 
L 414.41981 188.369109 
L 414.41981 183.578614 
L 415.243342 183.578614 
L 415.243342 178.788119 
L 415.423242 178.788119 
L 415.423242 173.997624 
L 415.423242 173.997624 
L 415.423242 173.997624 
L 460.8 173.997624 
" clip-path="url(#p71b138fd82)" style="fill: none; stroke: #f5deb3; stroke-width: 1.5; stroke-linecap: square"/>
   </g>
   <g id="line2d_18">
    <path d="M 216.330747 293.76 
L 216.330747 288.969505 
L 223.744438 288.969505 
L 223.744438 284.17901 
L 223.871733 284.17901 
L 223.871733 279.388515 
L 224.364634 279.388515 
L 224.364634 274.59802 
L 224.546155 274.59802 
L 224.546155 269.807525 
L 226.723342 269.807525 
L 226.723342 265.01703 
L 226.797345 265.01703 
L 226.797345 260.226535 
L 226.87118 260.226535 
L 226.87118 255.43604 
L 226.913297 255.43604 
L 226.913297 250.645545 
L 227.258705 250.645545 
L 227.258705 245.85505 
L 227.517966 245.85505 
L 227.517966 241.064554 
L 227.621097 241.064554 
L 227.621097 236.274059 
L 227.651972 236.274059 
L 227.651972 231.483564 
L 227.805915 231.483564 
L 227.805915 226.693069 
L 228.060884 226.693069 
L 228.060884 221.902574 
L 228.182566 221.902574 
L 228.182566 217.112079 
L 229.081003 217.112079 
L 229.081003 212.321584 
L 229.355549 212.321584 
L 229.355549 207.531089 
L 229.375072 207.531089 
L 229.375072 202.740594 
L 229.423827 202.740594 
L 229.423827 197.950099 
L 230.127481 197.950099 
L 230.127481 193.159604 
L 231.908895 193.159604 
L 231.908895 188.369109 
L 232.133859 188.369109 
L 232.133859 183.578614 
L 236.169373 183.578614 
L 236.169373 178.788119 
L 247.683405 178.788119 
L 247.683405 173.997624 
L 251.321794 173.997624 
L 251.321794 169.207129 
L 252.730924 169.207129 
L 252.730924 164.416634 
L 253.54159 164.416634 
L 253.54159 159.626139 
L 254.89123 159.626139 
L 254.89123 154.835644 
L 255.189132 154.835644 
L 255.189132 150.045149 
L 255.76386 150.045149 
L 255.76386 145.254653 
L 256.109927 145.254653 
L 256.109927 140.464158 
L 256.909032 140.464158 
L 256.909032 135.673663 
L 258.366641 135.673663 
L 258.366641 130.883168 
L 261.963819 130.883168 
L 261.963819 126.092673 
L 263.43023 126.092673 
L 263.43023 121.302178 
L 265.601902 121.302178 
L 265.601902 116.511683 
L 265.960287 116.511683 
L 265.960287 111.721188 
L 268.670572 111.721188 
L 268.670572 106.930693 
L 268.938923 106.930693 
L 268.938923 102.140198 
L 270.393356 102.140198 
L 270.393356 97.349703 
L 275.586514 97.349703 
L 275.586514 92.559208 
L 285.063689 92.559208 
L 285.063689 87.768713 
L 286.699095 87.768713 
L 286.699095 82.978218 
L 292.29778 82.978218 
L 292.29778 78.187723 
L 292.29778 78.187723 
L 292.29778 78.187723 
L 460.8 78.187723 
" clip-path="url(#p71b138fd82)" style="fill: none; stroke: #f5deb3; stroke-width: 1.5; stroke-linecap: square"/>
   </g>
   <g id="line2d_19"/>
   <g id="line2d_20">
    <path d="M 282.490064 293.76 
L 282.490064 288.969505 
L 285.690518 288.969505 
L 285.690518 284.17901 
L 289.178972 284.17901 
L 289.178972 279.388515 
L 292.542603 279.388515 
L 292.542603 274.59802 
L 294.135726 274.59802 
L 294.135726 269.807525 
L 295.353417 269.807525 
L 295.353417 265.01703 
L 296.90573 265.01703 
L 296.90573 260.226535 
L 297.598956 260.226535 
L 297.598956 255.43604 
L 298.699641 255.43604 
L 298.699641 250.645545 
L 299.002965 250.645545 
L 299.002965 245.85505 
L 299.180624 245.85505 
L 299.180624 241.064554 
L 301.767551 241.064554 
L 301.767551 236.274059 
L 301.811099 236.274059 
L 301.811099 231.483564 
L 303.109619 231.483564 
L 303.109619 226.693069 
L 303.562432 226.693069 
L 303.562432 221.902574 
L 304.383001 221.902574 
L 304.383001 217.112079 
L 306.012382 217.112079 
L 306.012382 212.321584 
L 306.130695 212.321584 
L 306.130695 207.531089 
L 307.913081 207.531089 
L 307.913081 202.740594 
L 310.374904 202.740594 
L 310.374904 197.950099 
L 314.753227 197.950099 
L 314.753227 193.159604 
L 316.680395 193.159604 
L 316.680395 188.369109 
L 325.886719 188.369109 
L 325.886719 183.578614 
L 333.836982 183.578614 
L 333.836982 178.788119 
L 336.592382 178.788119 
L 336.592382 173.997624 
L 336.635886 173.997624 
L 336.635886 169.207129 
L 337.956889 169.207129 
L 337.956889 164.416634 
L 340.898975 164.416634 
L 340.898975 159.626139 
L 365.400063 159.626139 
L 365.400063 154.835644 
L 366.048348 154.835644 
L 366.048348 150.045149 
L 366.048348 150.045149 
L 366.048348 150.045149 
L 460.8 150.045149 
" clip-path="url(#p71b138fd82)" style="fill: none; stroke: #f5deb3; stroke-width: 1.5; stroke-linecap: square"/>
   </g>
   <g id="line2d_21"/>
   <g id="line2d_22">
    <path d="M 286.124134 293.76 
L 286.124134 288.969505 
L 286.320895 288.969505 
L 286.320895 284.17901 
L 287.391466 284.17901 
L 287.391466 279.388515 
L 288.116316 279.388515 
L 288.116316 274.59802 
L 288.436042 274.59802 
L 288.436042 269.807525 
L 288.506314 269.807525 
L 288.506314 265.01703 
L 288.869629 265.01703 
L 288.869629 260.226535 
L 289.185223 260.226535 
L 289.185223 255.43604 
L 289.633707 255.43604 
L 289.633707 250.645545 
L 289.958826 250.645545 
L 289.958826 245.85505 
L 290.677226 245.85505 
L 290.677226 241.064554 
L 291.409365 241.064554 
L 291.409365 236.274059 
L 291.486636 236.274059 
L 291.486636 231.483564 
L 292.494632 231.483564 
L 292.494632 226.693069 
L 292.733784 226.693069 
L 292.733784 221.902574 
L 293.193079 221.902574 
L 293.193079 217.112079 
L 293.216566 217.112079 
L 293.216566 212.321584 
L 293.421699 212.321584 
L 293.421699 207.531089 
L 294.095419 207.531089 
L 294.095419 202.740594 
L 294.795018 202.740594 
L 294.795018 197.950099 
L 295.11583 197.950099 
L 295.11583 193.159604 
L 295.461897 193.159604 
L 295.461897 188.369109 
L 296.016707 188.369109 
L 296.016707 183.578614 
L 297.333414 183.578614 
L 297.333414 178.788119 
L 298.244635 178.788119 
L 298.244635 173.997624 
L 298.991395 173.997624 
L 298.991395 169.207129 
L 298.994866 169.207129 
L 298.994866 164.416634 
L 301.568188 164.416634 
L 301.568188 159.626139 
L 302.364701 159.626139 
L 302.364701 154.835644 
L 303.340355 154.835644 
L 303.340355 150.045149 
L 315.23242 150.045149 
L 315.23242 145.254653 
L 317.639564 145.254653 
L 317.639564 140.464158 
L 318.343129 140.464158 
L 318.343129 135.673663 
L 318.798002 135.673663 
L 318.798002 130.883168 
L 320.128818 130.883168 
L 320.128818 126.092673 
L 320.778877 126.092673 
L 320.778877 121.302178 
L 321.272105 121.302178 
L 321.272105 116.511683 
L 331.961959 116.511683 
L 331.961959 111.721188 
L 333.860458 111.721188 
L 333.860458 106.930693 
L 338.208181 106.930693 
L 338.208181 102.140198 
L 341.774913 102.140198 
L 341.774913 97.349703 
L 348.547206 97.349703 
L 348.547206 92.559208 
L 353.56975 92.559208 
L 353.56975 87.768713 
L 359.86992 87.768713 
L 359.86992 82.978218 
L 359.86992 82.978218 
L 359.86992 82.978218 
L 460.8 82.978218 
" clip-path="url(#p71b138fd82)" style="fill: none; stroke: #f5deb3; stroke-width: 1.5; stroke-linecap: square"/>
   </g>
   <g id="line2d_23">
    <path d="M 398.857794 293.76 
L 398.857794 288.969505 
L 406.750307 288.969505 
L 406.750307 284.17901 
L 417.670151 284.17901 
L 417.670151 279.388515 
L 421.291889 279.388515 
L 421.291889 274.59802 
L 427.803012 274.59802 
L 427.803012 269.807525 
L 432.887469 269.807525 
L 432.887469 265.01703 
L 432.887469 265.01703 
L 432.887469 265.01703 
L 460.8 265.01703 
" clip-path="url(#p71b138fd82)" style="fill: none; stroke: #f5deb3; stroke-width: 1.5; stroke-linecap: square"/>
   </g>
   <g id="line2d_24">
    <path d="M 271.151314 293.76 
L 271.151314 288.969505 
L 278.456751 288.969505 
L 278.456751 284.17901 
L 279.744114 284.17901 
L 279.744114 279.388515 
L 281.294518 279.388515 
L 281.294518 274.59802 
L 281.32435 274.59802 
L 281.32435 269.807525 
L 281.938756 269.807525 
L 281.938756 265.01703 
L 282.557131 265.01703 
L 282.557131 260.226535 
L 285.414581 260.226535 
L 285.414581 255.43604 
L 286.112119 255.43604 
L 286.112119 250.645545 
L 286.360106 250.645545 
L 286.360106 245.85505 
L 287.206051 245.85505 
L 287.206051 241.064554 
L 287.561057 241.064554 
L 287.561057 236.274059 
L 287.574193 236.274059 
L 287.574193 231.483564 
L 289.085066 231.483564 
L 289.085066 226.693069 
L 289.224263 226.693069 
L 289.224263 221.902574 
L 335.836319 221.902574 
L 335.836319 217.112079 
L 336.02112 217.112079 
L 336.02112 212.321584 
L 336.37362 212.321584 
L 336.37362 207.531089 
L 337.526377 207.531089 
L 337.526377 202.740594 
L 337.547345 202.740594 
L 337.547345 197.950099 
L 337.848296 197.950099 
L 337.848296 193.159604 
L 338.254105 193.159604 
L 338.254105 188.369109 
L 338.415027 188.369109 
L 338.415027 183.578614 
L 338.525203 183.578614 
L 338.525203 178.788119 
L 338.577914 178.788119 
L 338.577914 173.997624 
L 339.081422 173.997624 
L 339.081422 169.207129 
L 339.328612 169.207129 
L 339.328612 164.416634 
L 339.332985 164.416634 
L 339.332985 159.626139 
L 339.41093 159.626139 
L 339.41093 154.835644 
L 339.501073 154.835644 
L 339.501073 150.045149 
L 339.506427 150.045149 
L 339.506427 145.254653 
L 339.663972 145.254653 
L 339.663972 140.464158 
L 339.712551 140.464158 
L 339.712551 135.673663 
L 339.900196 135.673663 
L 339.900196 130.883168 
L 340.024586 130.883168 
L 340.024586 126.092673 
L 340.053225 126.092673 
L 340.053225 121.302178 
L 340.135708 121.302178 
L 340.135708 116.511683 
L 340.494424 116.511683 
L 340.494424 111.721188 
L 340.673122 111.721188 
L 340.673122 106.930693 
L 341.339407 106.930693 
L 341.339407 102.140198 
L 341.785524 102.140198 
L 341.785524 97.349703 
L 342.10658 97.349703 
L 342.10658 92.559208 
L 342.538137 92.559208 
L 342.538137 87.768713 
L 344.064027 87.768713 
L 344.064027 82.978218 
L 345.170642 82.978218 
L 345.170642 78.187723 
L 349.53436 78.187723 
L 349.53436 73.397228 
L 351.493941 73.397228 
L 351.493941 68.606733 
L 352.083094 68.606733 
L 352.083094 63.816238 
L 352.280534 63.816238 
L 352.280534 59.025743 
L 352.650174 59.025743 
L 352.650174 54.235248 
L 352.784793 54.235248 
L 352.784793 49.444752 
L 353.660971 49.444752 
L 353.660971 44.654257 
L 354.568509 44.654257 
L 354.568509 39.863762 
L 354.618464 39.863762 
L 354.618464 35.073267 
L 354.986239 35.073267 
L 354.986239 30.282772 
L 355.224868 30.282772 
L 355.224868 25.492277 
L 355.74481 25.492277 
L 355.74481 20.701782 
L 356.205682 20.701782 
L 356.205682 15.911287 
L 356.602513 15.911287 
L 356.602513 11.120792 
L 357.326014 11.120792 
L 357.326014 6.330297 
L 357.326014 6.330297 
L 357.326014 6.330297 
L 460.8 6.330297 
" clip-path="url(#p71b138fd82)" style="fill: none; stroke: #f5deb3; stroke-width: 1.5; stroke-linecap: square"/>
   </g>
   <g id="line2d_25">
    <path d="M 374.432245 293.76 
L 374.432245 288.969505 
L 374.891323 288.969505 
L 374.891323 284.17901 
L 375.038043 284.17901 
L 375.038043 279.388515 
L 375.039395 279.388515 
L 375.039395 274.59802 
L 375.74383 274.59802 
L 375.74383 269.807525 
L 375.985231 269.807525 
L 375.985231 265.01703 
L 376.115353 265.01703 
L 376.115353 260.226535 
L 376.355765 260.226535 
L 376.355765 255.43604 
L 376.753593 255.43604 
L 376.753593 250.645545 
L 376.935289 250.645545 
L 376.935289 245.85505 
L 377.090485 245.85505 
L 377.090485 241.064554 
L 377.40235 241.064554 
L 377.40235 236.274059 
L 377.63267 236.274059 
L 377.63267 231.483564 
L 378.077919 231.483564 
L 378.077919 226.693069 
L 379.091656 226.693069 
L 379.091656 221.902574 
L 379.091656 221.902574 
L 379.091656 221.902574 
L 460.8 221.902574 
" clip-path="url(#p71b138fd82)" style="fill: none; stroke: #f5deb3; stroke-width: 1.5; stroke-linecap: square"/>
   </g>
   <g id="line2d_26">
    <path d="M 298.327407 293.76 
L 298.327407 288.969505 
L 301.531809 288.969505 
L 301.531809 284.17901 
L 302.622493 284.17901 
L 302.622493 279.388515 
L 303.515115 279.388515 
L 303.515115 274.59802 
L 303.83792 274.59802 
L 303.83792 269.807525 
L 304.55521 269.807525 
L 304.55521 265.01703 
L 304.717777 265.01703 
L 304.717777 260.226535 
L 305.777282 260.226535 
L 305.777282 255.43604 
L 307.306083 255.43604 
L 307.306083 250.645545 
L 307.606104 250.645545 
L 307.606104 245.85505 
L 308.997281 245.85505 
L 308.997281 241.064554 
L 310.022705 241.064554 
L 310.022705 236.274059 
L 311.410056 236.274059 
L 311.410056 231.483564 
L 311.582058 231.483564 
L 311.582058 226.693069 
L 312.985251 226.693069 
L 312.985251 221.902574 
L 312.998817 221.902574 
L 312.998817 217.112079 
L 313.899535 217.112079 
L 313.899535 212.321584 
L 314.526072 212.321584 
L 314.526072 207.531089 
L 315.30833 207.531089 
L 315.30833 202.740594 
L 318.074616 202.740594 
L 318.074616 197.950099 
L 318.696903 197.950099 
L 318.696903 193.159604 
L 319.159388 193.159604 
L 319.159388 188.369109 
L 319.19805 188.369109 
L 319.19805 183.578614 
L 319.839838 183.578614 
L 319.839838 178.788119 
L 319.903939 178.788119 
L 319.903939 173.997624 
L 320.49981 173.997624 
L 320.49981 169.207129 
L 320.535123 169.207129 
L 320.535123 164.416634 
L 320.959471 164.416634 
L 320.959471 159.626139 
L 321.143183 159.626139 
L 321.143183 154.835644 
L 321.628087 154.835644 
L 321.628087 150.045149 
L 322.620614 150.045149 
L 322.620614 145.254653 
L 322.64698 145.254653 
L 322.64698 140.464158 
L 322.699646 140.464158 
L 322.699646 135.673663 
L 322.728185 135.673663 
L 322.728185 130.883168 
L 322.838191 130.883168 
L 322.838191 126.092673 
L 323.382726 126.092673 
L 323.382726 121.302178 
L 323.720879 121.302178 
L 323.720879 116.511683 
L 324.401741 116.511683 
L 324.401741 111.721188 
L 327.345472 111.721188 
L 327.345472 106.930693 
L 356.577133 106.930693 
L 356.577133 102.140198 
L 365.491375 102.140198 
L 365.491375 97.349703 
L 366.059032 97.349703 
L 366.059032 92.559208 
L 366.494097 92.559208 
L 366.494097 87.768713 
L 369.424656 87.768713 
L 369.424656 82.978218 
L 373.197776 82.978218 
L 373.197776 78.187723 
L 394.267644 78.187723 
L 394.267644 73.397228 
L 399.817498 73.397228 
L 399.817498 68.606733 
L 414.042194 68.606733 
L 414.042194 63.816238 
L 427.722933 63.816238 
L 427.722933 59.025743 
L 427.722933 59.025743 
L 427.722933 59.025743 
L 460.8 59.025743 
" clip-path="url(#p71b138fd82)" style="fill: none; stroke: #f5deb3; stroke-width: 1.5; stroke-linecap: square"/>
   </g>
   <g id="line2d_27">
    <path d="M 266.553159 293.76 
L 266.553159 288.969505 
L 268.411807 288.969505 
L 268.411807 284.17901 
L 270.256932 284.17901 
L 270.256932 279.388515 
L 270.40169 279.388515 
L 270.40169 274.59802 
L 271.745795 274.59802 
L 271.745795 269.807525 
L 272.101049 269.807525 
L 272.101049 265.01703 
L 273.54775 265.01703 
L 273.54775 260.226535 
L 273.901498 260.226535 
L 273.901498 255.43604 
L 273.953858 255.43604 
L 273.953858 250.645545 
L 273.993695 250.645545 
L 273.993695 245.85505 
L 274.492497 245.85505 
L 274.492497 241.064554 
L 275.841455 241.064554 
L 275.841455 236.274059 
L 276.082752 236.274059 
L 276.082752 231.483564 
L 276.500203 231.483564 
L 276.500203 226.693069 
L 276.504811 226.693069 
L 276.504811 221.902574 
L 276.727546 221.902574 
L 276.727546 217.112079 
L 276.816673 217.112079 
L 276.816673 212.321584 
L 277.170766 212.321584 
L 277.170766 207.531089 
L 277.272199 207.531089 
L 277.272199 202.740594 
L 277.460701 202.740594 
L 277.460701 197.950099 
L 277.492012 197.950099 
L 277.492012 193.159604 
L 277.556776 193.159604 
L 277.556776 188.369109 
L 277.891936 188.369109 
L 277.891936 183.578614 
L 277.984551 183.578614 
L 277.984551 178.788119 
L 278.337161 178.788119 
L 278.337161 173.997624 
L 279.362151 173.997624 
L 279.362151 169.207129 
L 279.710713 169.207129 
L 279.710713 164.416634 
L 279.792068 164.416634 
L 279.792068 159.626139 
L 279.960389 159.626139 
L 279.960389 154.835644 
L 280.304707 154.835644 
L 280.304707 150.045149 
L 281.62709 150.045149 
L 281.62709 145.254653 
L 282.293822 145.254653 
L 282.293822 140.464158 
L 282.394014 140.464158 
L 282.394014 135.673663 
L 283.041649 135.673663 
L 283.041649 130.883168 
L 283.257827 130.883168 
L 283.257827 126.092673 
L 285.680082 126.092673 
L 285.680082 121.302178 
L 285.737439 121.302178 
L 285.737439 116.511683 
L 286.153295 116.511683 
L 286.153295 111.721188 
L 302.753724 111.721188 
L 302.753724 106.930693 
L 303.527202 106.930693 
L 303.527202 102.140198 
L 312.417232 102.140198 
L 312.417232 97.349703 
L 313.12291 97.349703 
L 313.12291 92.559208 
L 316.945886 92.559208 
L 316.945886 87.768713 
L 318.824488 87.768713 
L 318.824488 82.978218 
L 323.467046 82.978218 
L 323.467046 78.187723 
L 323.467046 78.187723 
L 323.467046 78.187723 
L 460.8 78.187723 
" clip-path="url(#p71b138fd82)" style="fill: none; stroke: #f5deb3; stroke-width: 1.5; stroke-linecap: square"/>
   </g>
   <g id="line2d_28">
    <path d="M 251.850629 293.76 
L 251.850629 288.969505 
L 253.583459 288.969505 
L 253.583459 284.17901 
L 254.387093 284.17901 
L 254.387093 279.388515 
L 254.797295 279.388515 
L 254.797295 274.59802 
L 256.550155 274.59802 
L 256.550155 269.807525 
L 256.71953 269.807525 
L 256.71953 265.01703 
L 257.034759 265.01703 
L 257.034759 260.226535 
L 257.334542 260.226535 
L 257.334542 255.43604 
L 299.271387 255.43604 
L 299.271387 250.645545 
L 299.320684 250.645545 
L 299.320684 245.85505 
L 299.476112 245.85505 
L 299.476112 241.064554 
L 299.57629 241.064554 
L 299.57629 236.274059 
L 299.887379 236.274059 
L 299.887379 231.483564 
L 308.489973 231.483564 
L 308.489973 226.693069 
L 309.878765 226.693069 
L 309.878765 221.902574 
L 310.108436 221.902574 
L 310.108436 217.112079 
L 310.177516 217.112079 
L 310.177516 212.321584 
L 310.281683 212.321584 
L 310.281683 207.531089 
L 310.633545 207.531089 
L 310.633545 202.740594 
L 311.139176 202.740594 
L 311.139176 197.950099 
L 311.557655 197.950099 
L 311.557655 193.159604 
L 311.735933 193.159604 
L 311.735933 188.369109 
L 312.19248 188.369109 
L 312.19248 183.578614 
L 312.566466 183.578614 
L 312.566466 178.788119 
L 312.634351 178.788119 
L 312.634351 173.997624 
L 312.663293 173.997624 
L 312.663293 169.207129 
L 313.158922 169.207129 
L 313.158922 164.416634 
L 313.398733 164.416634 
L 313.398733 159.626139 
L 313.431468 159.626139 
L 313.431468 154.835644 
L 313.571705 154.835644 
L 313.571705 150.045149 
L 314.218299 150.045149 
L 314.218299 145.254653 
L 314.452643 145.254653 
L 314.452643 140.464158 
L 314.549793 140.464158 
L 314.549793 135.673663 
L 314.605792 135.673663 
L 314.605792 130.883168 
L 314.628021 130.883168 
L 314.628021 126.092673 
L 315.306926 126.092673 
L 315.306926 121.302178 
L 315.605349 121.302178 
L 315.605349 116.511683 
L 315.653317 116.511683 
L 315.653317 111.721188 
L 315.703295 111.721188 
L 315.703295 106.930693 
L 315.784347 106.930693 
L 315.784347 102.140198 
L 315.87417 102.140198 
L 315.87417 97.349703 
L 316.24602 97.349703 
L 316.24602 92.559208 
L 317.534808 92.559208 
L 317.534808 87.768713 
L 318.718412 87.768713 
L 318.718412 82.978218 
L 318.845914 82.978218 
L 318.845914 78.187723 
L 320.426068 78.187723 
L 320.426068 73.397228 
L 320.492623 73.397228 
L 320.492623 68.606733 
L 320.709928 68.606733 
L 320.709928 63.816238 
L 321.216497 63.816238 
L 321.216497 59.025743 
L 322.112166 59.025743 
L 322.112166 54.235248 
L 322.595913 54.235248 
L 322.595913 49.444752 
L 323.433125 49.444752 
L 323.433125 44.654257 
L 323.715996 44.654257 
L 323.715996 39.863762 
L 324.520557 39.863762 
L 324.520557 35.073267 
L 325.507763 35.073267 
L 325.507763 30.282772 
L 327.84231 30.282772 
L 327.84231 25.492277 
L 328.979176 25.492277 
L 328.979176 20.701782 
L 329.319195 20.701782 
L 329.319195 15.911287 
L 345.369198 15.911287 
L 345.369198 11.120792 
L 346.564681 11.120792 
L 346.564681 6.330297 
L 346.564681 6.330297 
L 346.564681 6.330297 
L 460.8 6.330297 
" clip-path="url(#p71b138fd82)" style="fill: none; stroke: #f5deb3; stroke-width: 1.5; stroke-linecap: square"/>
   </g>
   <g id="line2d_29">
    <path d="M 221.538087 293.76 
L 221.538087 288.969505 
L 221.538087 288.969505 
L 221.538087 284.17901 
L 221.538087 284.17901 
L 221.538087 279.388515 
L 230.983923 279.388515 
L 230.983923 274.59802 
L 230.983923 274.59802 
L 230.983923 269.807525 
L 230.983923 269.807525 
L 230.983923 265.01703 
L 246.306859 265.01703 
L 246.306859 260.226535 
L 246.306859 260.226535 
L 246.306859 255.43604 
L 246.306859 255.43604 
L 246.306859 250.645545 
L 246.859891 250.645545 
L 246.859891 245.85505 
L 246.859891 245.85505 
L 246.859891 241.064554 
L 246.859891 241.064554 
L 246.859891 236.274059 
L 256.7533 236.274059 
L 256.7533 231.483564 
L 256.7533 231.483564 
L 256.7533 226.693069 
L 256.7533 226.693069 
L 256.7533 221.902574 
L 258.047854 221.902574 
L 258.047854 217.112079 
L 258.047854 217.112079 
L 258.047854 212.321584 
L 258.047854 212.321584 
L 258.047854 207.531089 
L 258.322439 207.531089 
L 258.322439 202.740594 
L 258.322439 202.740594 
L 258.322439 197.950099 
L 258.322439 197.950099 
L 258.322439 193.159604 
L 259.238341 193.159604 
L 259.238341 188.369109 
L 259.238341 188.369109 
L 259.238341 183.578614 
L 259.238341 183.578614 
L 259.238341 178.788119 
L 259.285226 178.788119 
L 259.285226 173.997624 
L 259.285226 173.997624 
L 259.285226 169.207129 
L 259.285226 169.207129 
L 259.285226 164.416634 
L 276.143381 164.416634 
L 276.143381 159.626139 
L 276.143381 159.626139 
L 276.143381 154.835644 
L 276.143381 154.835644 
L 276.143381 150.045149 
L 276.143381 150.045149 
L 276.143381 150.045149 
L 460.8 150.045149 
" clip-path="url(#p71b138fd82)" style="fill: none; stroke: #f5deb3; stroke-width: 1.5; stroke-linecap: square"/>
   </g>
   <g id="line2d_30"/>
   <g id="matplotlib.axis_1">
    <g id="xtick_1">
     <g id="line2d_31">
      <path d="M 137.39009 293.76 
L 137.39009 3.456 
" clip-path="url(#p71b138fd82)" style="fill: none; stroke: #b0b0b0; stroke-width: 0.8; stroke-linecap: square"/>
     </g>
     <g id="line2d_32">
      <defs>
       <path id="mad73e37407" d="M 0 0 
L 0 3.5 
" style="stroke: #000000; stroke-width: 0.8"/>
      </defs>
      <g>
       <use xlink:href="#mad73e37407" x="137.39009" y="293.76" style="stroke: #000000; stroke-width: 0.8"/>
      </g>
     </g>
     <g id="text_1">
      <!-- 1 -->
      <g transform="translate(131.02759 315.956875)scale(0.2 -0.2)">
       <defs>
        <path id="DejaVuSans-31" d="M 794 531 
L 1825 531 
L 1825 4091 
L 703 3866 
L 703 4441 
L 1819 4666 
L 2450 4666 
L 2450 531 
L 3481 531 
L 3481 0 
L 794 0 
L 794 531 
z
" transform="scale(0.015625)"/>
       </defs>
       <use xlink:href="#DejaVuSans-31"/>
      </g>
     </g>
    </g>
    <g id="xtick_2">
     <g id="line2d_33">
      <path d="M 287.75427 293.76 
L 287.75427 3.456 
" clip-path="url(#p71b138fd82)" style="fill: none; stroke: #b0b0b0; stroke-width: 0.8; stroke-linecap: square"/>
     </g>
     <g id="line2d_34">
      <g>
       <use xlink:href="#mad73e37407" x="287.75427" y="293.76" style="stroke: #000000; stroke-width: 0.8"/>
      </g>
     </g>
     <g id="text_2">
      <!-- 3 -->
      <g transform="translate(281.39177 315.956875)scale(0.2 -0.2)">
       <defs>
        <path id="DejaVuSans-33" d="M 2597 2516 
Q 3050 2419 3304 2112 
Q 3559 1806 3559 1356 
Q 3559 666 3084 287 
Q 2609 -91 1734 -91 
Q 1441 -91 1130 -33 
Q 819 25 488 141 
L 488 750 
Q 750 597 1062 519 
Q 1375 441 1716 441 
Q 2309 441 2620 675 
Q 2931 909 2931 1356 
Q 2931 1769 2642 2001 
Q 2353 2234 1838 2234 
L 1294 2234 
L 1294 2753 
L 1863 2753 
Q 2328 2753 2575 2939 
Q 2822 3125 2822 3475 
Q 2822 3834 2567 4026 
Q 2313 4219 1838 4219 
Q 1578 4219 1281 4162 
Q 984 4106 628 3988 
L 628 4550 
Q 988 4650 1302 4700 
Q 1616 4750 1894 4750 
Q 2613 4750 3031 4423 
Q 3450 4097 3450 3541 
Q 3450 3153 3228 2886 
Q 3006 2619 2597 2516 
z
" transform="scale(0.015625)"/>
       </defs>
       <use xlink:href="#DejaVuSans-33"/>
      </g>
     </g>
    </g>
    <g id="xtick_3">
     <g id="line2d_35">
      <path d="M 438.11845 293.76 
L 438.11845 3.456 
" clip-path="url(#p71b138fd82)" style="fill: none; stroke: #b0b0b0; stroke-width: 0.8; stroke-linecap: square"/>
     </g>
     <g id="line2d_36">
      <g>
       <use xlink:href="#mad73e37407" x="438.11845" y="293.76" style="stroke: #000000; stroke-width: 0.8"/>
      </g>
     </g>
     <g id="text_3">
      <!-- 5 -->
      <g transform="translate(431.75595 315.956875)scale(0.2 -0.2)">
       <defs>
        <path id="DejaVuSans-35" d="M 691 4666 
L 3169 4666 
L 3169 4134 
L 1269 4134 
L 1269 2991 
Q 1406 3038 1543 3061 
Q 1681 3084 1819 3084 
Q 2600 3084 3056 2656 
Q 3513 2228 3513 1497 
Q 3513 744 3044 326 
Q 2575 -91 1722 -91 
Q 1428 -91 1123 -41 
Q 819 9 494 109 
L 494 744 
Q 775 591 1075 516 
Q 1375 441 1709 441 
Q 2250 441 2565 725 
Q 2881 1009 2881 1497 
Q 2881 1984 2565 2268 
Q 2250 2553 1709 2553 
Q 1456 2553 1204 2497 
Q 953 2441 691 2322 
L 691 4666 
z
" transform="scale(0.015625)"/>
       </defs>
       <use xlink:href="#DejaVuSans-35"/>
      </g>
     </g>
    </g>
    <g id="text_4">
     <!-- log10 of FEvals / DIM -->
     <g transform="translate(156.430563 339.313125)scale(0.2 -0.2)">
      <defs>
       <path id="DejaVuSans-6c" d="M 603 4863 
L 1178 4863 
L 1178 0 
L 603 0 
L 603 4863 
z
" transform="scale(0.015625)"/>
       <path id="DejaVuSans-6f" d="M 1959 3097 
Q 1497 3097 1228 2736 
Q 959 2375 959 1747 
Q 959 1119 1226 758 
Q 1494 397 1959 397 
Q 2419 397 2687 759 
Q 2956 1122 2956 1747 
Q 2956 2369 2687 2733 
Q 2419 3097 1959 3097 
z
M 1959 3584 
Q 2709 3584 3137 3096 
Q 3566 2609 3566 1747 
Q 3566 888 3137 398 
Q 2709 -91 1959 -91 
Q 1206 -91 779 398 
Q 353 888 353 1747 
Q 353 2609 779 3096 
Q 1206 3584 1959 3584 
z
" transform="scale(0.015625)"/>
       <path id="DejaVuSans-67" d="M 2906 1791 
Q 2906 2416 2648 2759 
Q 2391 3103 1925 3103 
Q 1463 3103 1205 2759 
Q 947 2416 947 1791 
Q 947 1169 1205 825 
Q 1463 481 1925 481 
Q 2391 481 2648 825 
Q 2906 1169 2906 1791 
z
M 3481 434 
Q 3481 -459 3084 -895 
Q 2688 -1331 1869 -1331 
Q 1566 -1331 1297 -1286 
Q 1028 -1241 775 -1147 
L 775 -588 
Q 1028 -725 1275 -790 
Q 1522 -856 1778 -856 
Q 2344 -856 2625 -561 
Q 2906 -266 2906 331 
L 2906 616 
Q 2728 306 2450 153 
Q 2172 0 1784 0 
Q 1141 0 747 490 
Q 353 981 353 1791 
Q 353 2603 747 3093 
Q 1141 3584 1784 3584 
Q 2172 3584 2450 3431 
Q 2728 3278 2906 2969 
L 2906 3500 
L 3481 3500 
L 3481 434 
z
" transform="scale(0.015625)"/>
       <path id="DejaVuSans-30" d="M 2034 4250 
Q 1547 4250 1301 3770 
Q 1056 3291 1056 2328 
Q 1056 1369 1301 889 
Q 1547 409 2034 409 
Q 2525 409 2770 889 
Q 3016 1369 3016 2328 
Q 3016 3291 2770 3770 
Q 2525 4250 2034 4250 
z
M 2034 4750 
Q 2819 4750 3233 4129 
Q 3647 3509 3647 2328 
Q 3647 1150 3233 529 
Q 2819 -91 2034 -91 
Q 1250 -91 836 529 
Q 422 1150 422 2328 
Q 422 3509 836 4129 
Q 1250 4750 2034 4750 
z
" transform="scale(0.015625)"/>
       <path id="DejaVuSans-20" transform="scale(0.015625)"/>
       <path id="DejaVuSans-66" d="M 2375 4863 
L 2375 4384 
L 1825 4384 
Q 1516 4384 1395 4259 
Q 1275 4134 1275 3809 
L 1275 3500 
L 2222 3500 
L 2222 3053 
L 1275 3053 
L 1275 0 
L 697 0 
L 697 3053 
L 147 3053 
L 147 3500 
L 697 3500 
L 697 3744 
Q 697 4328 969 4595 
Q 1241 4863 1831 4863 
L 2375 4863 
z
" transform="scale(0.015625)"/>
       <path id="DejaVuSans-46" d="M 628 4666 
L 3309 4666 
L 3309 4134 
L 1259 4134 
L 1259 2759 
L 3109 2759 
L 3109 2228 
L 1259 2228 
L 1259 0 
L 628 0 
L 628 4666 
z
" transform="scale(0.015625)"/>
       <path id="DejaVuSans-45" d="M 628 4666 
L 3578 4666 
L 3578 4134 
L 1259 4134 
L 1259 2753 
L 3481 2753 
L 3481 2222 
L 1259 2222 
L 1259 531 
L 3634 531 
L 3634 0 
L 628 0 
L 628 4666 
z
" transform="scale(0.015625)"/>
       <path id="DejaVuSans-76" d="M 191 3500 
L 800 3500 
L 1894 563 
L 2988 3500 
L 3597 3500 
L 2284 0 
L 1503 0 
L 191 3500 
z
" transform="scale(0.015625)"/>
       <path id="DejaVuSans-61" d="M 2194 1759 
Q 1497 1759 1228 1600 
Q 959 1441 959 1056 
Q 959 750 1161 570 
Q 1363 391 1709 391 
Q 2188 391 2477 730 
Q 2766 1069 2766 1631 
L 2766 1759 
L 2194 1759 
z
M 3341 1997 
L 3341 0 
L 2766 0 
L 2766 531 
Q 2569 213 2275 61 
Q 1981 -91 1556 -91 
Q 1019 -91 701 211 
Q 384 513 384 1019 
Q 384 1609 779 1909 
Q 1175 2209 1959 2209 
L 2766 2209 
L 2766 2266 
Q 2766 2663 2505 2880 
Q 2244 3097 1772 3097 
Q 1472 3097 1187 3025 
Q 903 2953 641 2809 
L 641 3341 
Q 956 3463 1253 3523 
Q 1550 3584 1831 3584 
Q 2591 3584 2966 3190 
Q 3341 2797 3341 1997 
z
" transform="scale(0.015625)"/>
       <path id="DejaVuSans-73" d="M 2834 3397 
L 2834 2853 
Q 2591 2978 2328 3040 
Q 2066 3103 1784 3103 
Q 1356 3103 1142 2972 
Q 928 2841 928 2578 
Q 928 2378 1081 2264 
Q 1234 2150 1697 2047 
L 1894 2003 
Q 2506 1872 2764 1633 
Q 3022 1394 3022 966 
Q 3022 478 2636 193 
Q 2250 -91 1575 -91 
Q 1294 -91 989 -36 
Q 684 19 347 128 
L 347 722 
Q 666 556 975 473 
Q 1284 391 1588 391 
Q 1994 391 2212 530 
Q 2431 669 2431 922 
Q 2431 1156 2273 1281 
Q 2116 1406 1581 1522 
L 1381 1569 
Q 847 1681 609 1914 
Q 372 2147 372 2553 
Q 372 3047 722 3315 
Q 1072 3584 1716 3584 
Q 2034 3584 2315 3537 
Q 2597 3491 2834 3397 
z
" transform="scale(0.015625)"/>
       <path id="DejaVuSans-2f" d="M 1625 4666 
L 2156 4666 
L 531 -594 
L 0 -594 
L 1625 4666 
z
" transform="scale(0.015625)"/>
       <path id="DejaVuSans-44" d="M 1259 4147 
L 1259 519 
L 2022 519 
Q 2988 519 3436 956 
Q 3884 1394 3884 2338 
Q 3884 3275 3436 3711 
Q 2988 4147 2022 4147 
L 1259 4147 
z
M 628 4666 
L 1925 4666 
Q 3281 4666 3915 4102 
Q 4550 3538 4550 2338 
Q 4550 1131 3912 565 
Q 3275 0 1925 0 
L 628 0 
L 628 4666 
z
" transform="scale(0.015625)"/>
       <path id="DejaVuSans-49" d="M 628 4666 
L 1259 4666 
L 1259 0 
L 628 0 
L 628 4666 
z
" transform="scale(0.015625)"/>
       <path id="DejaVuSans-4d" d="M 628 4666 
L 1569 4666 
L 2759 1491 
L 3956 4666 
L 4897 4666 
L 4897 0 
L 4281 0 
L 4281 4097 
L 3078 897 
L 2444 897 
L 1241 4097 
L 1241 0 
L 628 0 
L 628 4666 
z
" transform="scale(0.015625)"/>
      </defs>
      <use xlink:href="#DejaVuSans-6c"/>
      <use xlink:href="#DejaVuSans-6f" x="27.783203"/>
      <use xlink:href="#DejaVuSans-67" x="88.964844"/>
      <use xlink:href="#DejaVuSans-31" x="152.441406"/>
      <use xlink:href="#DejaVuSans-30" x="216.064453"/>
      <use xlink:href="#DejaVuSans-20" x="279.6875"/>
      <use xlink:href="#DejaVuSans-6f" x="311.474609"/>
      <use xlink:href="#DejaVuSans-66" x="372.65625"/>
      <use xlink:href="#DejaVuSans-20" x="407.861328"/>
      <use xlink:href="#DejaVuSans-46" x="439.648438"/>
      <use xlink:href="#DejaVuSans-45" x="497.167969"/>
      <use xlink:href="#DejaVuSans-76" x="560.351562"/>
      <use xlink:href="#DejaVuSans-61" x="619.53125"/>
      <use xlink:href="#DejaVuSans-6c" x="680.810547"/>
      <use xlink:href="#DejaVuSans-73" x="708.59375"/>
      <use xlink:href="#DejaVuSans-20" x="760.693359"/>
      <use xlink:href="#DejaVuSans-2f" x="792.480469"/>
      <use xlink:href="#DejaVuSans-20" x="826.171875"/>
      <use xlink:href="#DejaVuSans-44" x="857.958984"/>
      <use xlink:href="#DejaVuSans-49" x="934.960938"/>
      <use xlink:href="#DejaVuSans-4d" x="964.453125"/>
     </g>
    </g>
   </g>
   <g id="matplotlib.axis_2">
    <g id="ytick_1">
     <g id="line2d_37">
      <path d="M 62.208 293.76 
L 460.8 293.76 
" clip-path="url(#p71b138fd82)" style="fill: none; stroke: #b0b0b0; stroke-width: 0.8; stroke-linecap: square"/>
     </g>
     <g id="line2d_38">
      <defs>
       <path id="ma3c79a67b2" d="M 0 0 
L -3.5 0 
" style="stroke: #000000; stroke-width: 0.8"/>
      </defs>
      <g>
       <use xlink:href="#ma3c79a67b2" x="62.208" y="293.76" style="stroke: #000000; stroke-width: 0.8"/>
      </g>
     </g>
     <g id="text_5">
      <!-- 0.0 -->
      <g transform="translate(29.763 299.83875)scale(0.16 -0.16)">
       <defs>
        <path id="DejaVuSans-2e" d="M 684 794 
L 1344 794 
L 1344 0 
L 684 0 
L 684 794 
z
" transform="scale(0.015625)"/>
       </defs>
       <use xlink:href="#DejaVuSans-30"/>
       <use xlink:href="#DejaVuSans-2e" x="63.623047"/>
       <use xlink:href="#DejaVuSans-30" x="95.410156"/>
      </g>
     </g>
    </g>
    <g id="ytick_2">
     <g id="line2d_39">
      <path d="M 62.208 236.274059 
L 460.8 236.274059 
" clip-path="url(#p71b138fd82)" style="fill: none; stroke: #b0b0b0; stroke-width: 0.8; stroke-linecap: square"/>
     </g>
     <g id="line2d_40">
      <g>
       <use xlink:href="#ma3c79a67b2" x="62.208" y="236.274059" style="stroke: #000000; stroke-width: 0.8"/>
      </g>
     </g>
     <g id="text_6">
      <!-- 0.2 -->
      <g transform="translate(29.763 242.352809)scale(0.16 -0.16)">
       <defs>
        <path id="DejaVuSans-32" d="M 1228 531 
L 3431 531 
L 3431 0 
L 469 0 
L 469 531 
Q 828 903 1448 1529 
Q 2069 2156 2228 2338 
Q 2531 2678 2651 2914 
Q 2772 3150 2772 3378 
Q 2772 3750 2511 3984 
Q 2250 4219 1831 4219 
Q 1534 4219 1204 4116 
Q 875 4013 500 3803 
L 500 4441 
Q 881 4594 1212 4672 
Q 1544 4750 1819 4750 
Q 2544 4750 2975 4387 
Q 3406 4025 3406 3419 
Q 3406 3131 3298 2873 
Q 3191 2616 2906 2266 
Q 2828 2175 2409 1742 
Q 1991 1309 1228 531 
z
" transform="scale(0.015625)"/>
       </defs>
       <use xlink:href="#DejaVuSans-30"/>
       <use xlink:href="#DejaVuSans-2e" x="63.623047"/>
       <use xlink:href="#DejaVuSans-32" x="95.410156"/>
      </g>
     </g>
    </g>
    <g id="ytick_3">
     <g id="line2d_41">
      <path d="M 62.208 178.788119 
L 460.8 178.788119 
" clip-path="url(#p71b138fd82)" style="fill: none; stroke: #b0b0b0; stroke-width: 0.8; stroke-linecap: square"/>
     </g>
     <g id="line2d_42">
      <g>
       <use xlink:href="#ma3c79a67b2" x="62.208" y="178.788119" style="stroke: #000000; stroke-width: 0.8"/>
      </g>
     </g>
     <g id="text_7">
      <!-- 0.4 -->
      <g transform="translate(29.763 184.866869)scale(0.16 -0.16)">
       <defs>
        <path id="DejaVuSans-34" d="M 2419 4116 
L 825 1625 
L 2419 1625 
L 2419 4116 
z
M 2253 4666 
L 3047 4666 
L 3047 1625 
L 3713 1625 
L 3713 1100 
L 3047 1100 
L 3047 0 
L 2419 0 
L 2419 1100 
L 313 1100 
L 313 1709 
L 2253 4666 
z
" transform="scale(0.015625)"/>
       </defs>
       <use xlink:href="#DejaVuSans-30"/>
       <use xlink:href="#DejaVuSans-2e" x="63.623047"/>
       <use xlink:href="#DejaVuSans-34" x="95.410156"/>
      </g>
     </g>
    </g>
    <g id="ytick_4">
     <g id="line2d_43">
      <path d="M 62.208 121.302178 
L 460.8 121.302178 
" clip-path="url(#p71b138fd82)" style="fill: none; stroke: #b0b0b0; stroke-width: 0.8; stroke-linecap: square"/>
     </g>
     <g id="line2d_44">
      <g>
       <use xlink:href="#ma3c79a67b2" x="62.208" y="121.302178" style="stroke: #000000; stroke-width: 0.8"/>
      </g>
     </g>
     <g id="text_8">
      <!-- 0.6 -->
      <g transform="translate(29.763 127.380928)scale(0.16 -0.16)">
       <defs>
        <path id="DejaVuSans-36" d="M 2113 2584 
Q 1688 2584 1439 2293 
Q 1191 2003 1191 1497 
Q 1191 994 1439 701 
Q 1688 409 2113 409 
Q 2538 409 2786 701 
Q 3034 994 3034 1497 
Q 3034 2003 2786 2293 
Q 2538 2584 2113 2584 
z
M 3366 4563 
L 3366 3988 
Q 3128 4100 2886 4159 
Q 2644 4219 2406 4219 
Q 1781 4219 1451 3797 
Q 1122 3375 1075 2522 
Q 1259 2794 1537 2939 
Q 1816 3084 2150 3084 
Q 2853 3084 3261 2657 
Q 3669 2231 3669 1497 
Q 3669 778 3244 343 
Q 2819 -91 2113 -91 
Q 1303 -91 875 529 
Q 447 1150 447 2328 
Q 447 3434 972 4092 
Q 1497 4750 2381 4750 
Q 2619 4750 2861 4703 
Q 3103 4656 3366 4563 
z
" transform="scale(0.015625)"/>
       </defs>
       <use xlink:href="#DejaVuSans-30"/>
       <use xlink:href="#DejaVuSans-2e" x="63.623047"/>
       <use xlink:href="#DejaVuSans-36" x="95.410156"/>
      </g>
     </g>
    </g>
    <g id="ytick_5">
     <g id="line2d_45">
      <path d="M 62.208 63.816238 
L 460.8 63.816238 
" clip-path="url(#p71b138fd82)" style="fill: none; stroke: #b0b0b0; stroke-width: 0.8; stroke-linecap: square"/>
     </g>
     <g id="line2d_46">
      <g>
       <use xlink:href="#ma3c79a67b2" x="62.208" y="63.816238" style="stroke: #000000; stroke-width: 0.8"/>
      </g>
     </g>
     <g id="text_9">
      <!-- 0.8 -->
      <g transform="translate(29.763 69.894988)scale(0.16 -0.16)">
       <defs>
        <path id="DejaVuSans-38" d="M 2034 2216 
Q 1584 2216 1326 1975 
Q 1069 1734 1069 1313 
Q 1069 891 1326 650 
Q 1584 409 2034 409 
Q 2484 409 2743 651 
Q 3003 894 3003 1313 
Q 3003 1734 2745 1975 
Q 2488 2216 2034 2216 
z
M 1403 2484 
Q 997 2584 770 2862 
Q 544 3141 544 3541 
Q 544 4100 942 4425 
Q 1341 4750 2034 4750 
Q 2731 4750 3128 4425 
Q 3525 4100 3525 3541 
Q 3525 3141 3298 2862 
Q 3072 2584 2669 2484 
Q 3125 2378 3379 2068 
Q 3634 1759 3634 1313 
Q 3634 634 3220 271 
Q 2806 -91 2034 -91 
Q 1263 -91 848 271 
Q 434 634 434 1313 
Q 434 1759 690 2068 
Q 947 2378 1403 2484 
z
M 1172 3481 
Q 1172 3119 1398 2916 
Q 1625 2713 2034 2713 
Q 2441 2713 2670 2916 
Q 2900 3119 2900 3481 
Q 2900 3844 2670 4047 
Q 2441 4250 2034 4250 
Q 1625 4250 1398 4047 
Q 1172 3844 1172 3481 
z
" transform="scale(0.015625)"/>
       </defs>
       <use xlink:href="#DejaVuSans-30"/>
       <use xlink:href="#DejaVuSans-2e" x="63.623047"/>
       <use xlink:href="#DejaVuSans-38" x="95.410156"/>
      </g>
     </g>
    </g>
    <g id="ytick_6">
     <g id="line2d_47">
      <path d="M 62.208 6.330297 
L 460.8 6.330297 
" clip-path="url(#p71b138fd82)" style="fill: none; stroke: #b0b0b0; stroke-width: 0.8; stroke-linecap: square"/>
     </g>
     <g id="line2d_48">
      <g>
       <use xlink:href="#ma3c79a67b2" x="62.208" y="6.330297" style="stroke: #000000; stroke-width: 0.8"/>
      </g>
     </g>
     <g id="text_10">
      <!-- 1.0 -->
      <g transform="translate(29.763 12.409047)scale(0.16 -0.16)">
       <use xlink:href="#DejaVuSans-31"/>
       <use xlink:href="#DejaVuSans-2e" x="63.623047"/>
       <use xlink:href="#DejaVuSans-30" x="95.410156"/>
      </g>
     </g>
    </g>
    <g id="text_11">
     <!-- proportion of trials -->
     <g transform="translate(21.603625 241.61425)rotate(-90)scale(0.2 -0.2)">
      <defs>
       <path id="DejaVuSans-70" d="M 1159 525 
L 1159 -1331 
L 581 -1331 
L 581 3500 
L 1159 3500 
L 1159 2969 
Q 1341 3281 1617 3432 
Q 1894 3584 2278 3584 
Q 2916 3584 3314 3078 
Q 3713 2572 3713 1747 
Q 3713 922 3314 415 
Q 2916 -91 2278 -91 
Q 1894 -91 1617 61 
Q 1341 213 1159 525 
z
M 3116 1747 
Q 3116 2381 2855 2742 
Q 2594 3103 2138 3103 
Q 1681 3103 1420 2742 
Q 1159 2381 1159 1747 
Q 1159 1113 1420 752 
Q 1681 391 2138 391 
Q 2594 391 2855 752 
Q 3116 1113 3116 1747 
z
" transform="scale(0.015625)"/>
       <path id="DejaVuSans-72" d="M 2631 2963 
Q 2534 3019 2420 3045 
Q 2306 3072 2169 3072 
Q 1681 3072 1420 2755 
Q 1159 2438 1159 1844 
L 1159 0 
L 581 0 
L 581 3500 
L 1159 3500 
L 1159 2956 
Q 1341 3275 1631 3429 
Q 1922 3584 2338 3584 
Q 2397 3584 2469 3576 
Q 2541 3569 2628 3553 
L 2631 2963 
z
" transform="scale(0.015625)"/>
       <path id="DejaVuSans-74" d="M 1172 4494 
L 1172 3500 
L 2356 3500 
L 2356 3053 
L 1172 3053 
L 1172 1153 
Q 1172 725 1289 603 
Q 1406 481 1766 481 
L 2356 481 
L 2356 0 
L 1766 0 
Q 1100 0 847 248 
Q 594 497 594 1153 
L 594 3053 
L 172 3053 
L 172 3500 
L 594 3500 
L 594 4494 
L 1172 4494 
z
" transform="scale(0.015625)"/>
       <path id="DejaVuSans-69" d="M 603 3500 
L 1178 3500 
L 1178 0 
L 603 0 
L 603 3500 
z
M 603 4863 
L 1178 4863 
L 1178 4134 
L 603 4134 
L 603 4863 
z
" transform="scale(0.015625)"/>
       <path id="DejaVuSans-6e" d="M 3513 2113 
L 3513 0 
L 2938 0 
L 2938 2094 
Q 2938 2591 2744 2837 
Q 2550 3084 2163 3084 
Q 1697 3084 1428 2787 
Q 1159 2491 1159 1978 
L 1159 0 
L 581 0 
L 581 3500 
L 1159 3500 
L 1159 2956 
Q 1366 3272 1645 3428 
Q 1925 3584 2291 3584 
Q 2894 3584 3203 3211 
Q 3513 2838 3513 2113 
z
" transform="scale(0.015625)"/>
      </defs>
      <use xlink:href="#DejaVuSans-70"/>
      <use xlink:href="#DejaVuSans-72" x="63.476562"/>
      <use xlink:href="#DejaVuSans-6f" x="102.339844"/>
      <use xlink:href="#DejaVuSans-70" x="163.521484"/>
      <use xlink:href="#DejaVuSans-6f" x="226.998047"/>
      <use xlink:href="#DejaVuSans-72" x="288.179688"/>
      <use xlink:href="#DejaVuSans-74" x="329.292969"/>
      <use xlink:href="#DejaVuSans-69" x="368.501953"/>
      <use xlink:href="#DejaVuSans-6f" x="396.285156"/>
      <use xlink:href="#DejaVuSans-6e" x="457.466797"/>
      <use xlink:href="#DejaVuSans-20" x="520.845703"/>
      <use xlink:href="#DejaVuSans-6f" x="552.632812"/>
      <use xlink:href="#DejaVuSans-66" x="613.814453"/>
      <use xlink:href="#DejaVuSans-20" x="649.019531"/>
      <use xlink:href="#DejaVuSans-74" x="680.806641"/>
      <use xlink:href="#DejaVuSans-72" x="720.015625"/>
      <use xlink:href="#DejaVuSans-69" x="761.128906"/>
      <use xlink:href="#DejaVuSans-61" x="788.912109"/>
      <use xlink:href="#DejaVuSans-6c" x="850.191406"/>
      <use xlink:href="#DejaVuSans-73" x="877.974609"/>
     </g>
    </g>
   </g>
   <g id="line2d_49">
    <path d="M 176.273958 293.76 
L 176.273958 288.969505 
L 180.328557 288.969505 
L 180.328557 284.17901 
L 184.786975 284.17901 
L 184.786975 279.388515 
L 185.3179 279.388515 
L 185.3179 274.59802 
L 185.430555 274.59802 
L 185.430555 269.807525 
L 187.710732 269.807525 
L 187.710732 265.01703 
L 187.745672 265.01703 
L 187.745672 260.226535 
L 189.677856 260.226535 
L 189.677856 255.43604 
L 190.778198 255.43604 
L 190.778198 250.645545 
L 191.157867 250.645545 
L 191.157867 245.85505 
L 192.271082 245.85505 
L 192.271082 241.064554 
L 193.318163 241.064554 
L 193.318163 236.274059 
L 195.094366 236.274059 
L 195.094366 231.483564 
L 195.344355 231.483564 
L 195.344355 226.693069 
L 197.434315 226.693069 
L 197.434315 221.902574 
L 201.205001 221.902574 
L 201.205001 217.112079 
L 203.439195 217.112079 
L 203.439195 212.321584 
L 203.525459 212.321584 
L 203.525459 207.531089 
L 207.666614 207.531089 
L 207.666614 202.740594 
L 208.748866 202.740594 
L 208.748866 197.950099 
L 208.858803 197.950099 
L 208.858803 193.159604 
L 209.689574 193.159604 
L 209.689574 188.369109 
L 209.955971 188.369109 
L 209.955971 183.578614 
L 211.188237 183.578614 
L 211.188237 178.788119 
L 211.527121 178.788119 
L 211.527121 173.997624 
L 214.149684 173.997624 
L 214.149684 169.207129 
L 217.007554 169.207129 
L 217.007554 164.416634 
L 218.647404 164.416634 
L 218.647404 159.626139 
L 230.965339 159.626139 
L 230.965339 154.835644 
L 237.535211 154.835644 
L 237.535211 150.045149 
L 237.935566 150.045149 
L 237.935566 145.254653 
L 244.984865 145.254653 
L 244.984865 140.464158 
L 247.047853 140.464158 
L 247.047853 135.673663 
L 247.927569 135.673663 
L 247.927569 130.883168 
L 247.993843 130.883168 
L 247.993843 126.092673 
L 248.405038 126.092673 
L 248.405038 121.302178 
L 248.50839 121.302178 
L 248.50839 116.511683 
L 249.592678 116.511683 
L 249.592678 111.721188 
L 249.994721 111.721188 
L 249.994721 106.930693 
L 251.411358 106.930693 
L 251.411358 102.140198 
L 252.428885 102.140198 
L 252.428885 97.349703 
L 252.673608 97.349703 
L 252.673608 92.559208 
L 252.769079 92.559208 
L 252.769079 87.768713 
L 252.940227 87.768713 
L 252.940227 82.978218 
L 253.190574 82.978218 
L 253.190574 78.187723 
L 253.359532 78.187723 
L 253.359532 73.397228 
L 253.471688 73.397228 
L 253.471688 68.606733 
L 254.196017 68.606733 
L 254.196017 63.816238 
L 254.801774 63.816238 
L 254.801774 59.025743 
L 256.255902 59.025743 
L 256.255902 54.235248 
L 256.605298 54.235248 
L 256.605298 49.444752 
L 257.043124 49.444752 
L 257.043124 44.654257 
L 257.627491 44.654257 
L 257.627491 39.863762 
L 259.688763 39.863762 
L 259.688763 35.073267 
L 261.449046 35.073267 
L 261.449046 30.282772 
L 261.609423 30.282772 
L 261.609423 25.492277 
L 262.153892 25.492277 
L 262.153892 20.701782 
L 262.171766 20.701782 
L 262.171766 15.911287 
L 263.413032 15.911287 
L 263.413032 11.120792 
L 270.573451 11.120792 
L 270.573451 6.330297 
L 270.573451 6.330297 
L 270.573451 6.330297 
L 460.8 6.330297 
" clip-path="url(#p71b138fd82)" style="fill: none; stroke: #000000; stroke-width: 1.5; stroke-linecap: square"/>
   </g>
   <g id="line2d_50">
    <path clip-path="url(#p71b138fd82)" style="fill: none; stroke: #000000; stroke-width: 1.5; stroke-linecap: square"/>
   </g>
   <g id="line2d_51">
    <path d="M 221.871328 293.76 
L 221.871328 288.969505 
L 222.310424 288.969505 
L 222.310424 284.17901 
L 223.813933 284.17901 
L 223.813933 279.388515 
L 225.876326 279.388515 
L 225.876326 274.59802 
L 226.297219 274.59802 
L 226.297219 269.807525 
L 226.627948 269.807525 
L 226.627948 265.01703 
L 228.654833 265.01703 
L 228.654833 260.226535 
L 230.070215 260.226535 
L 230.070215 255.43604 
L 231.344203 255.43604 
L 231.344203 250.645545 
L 231.618661 250.645545 
L 231.618661 245.85505 
L 231.800359 245.85505 
L 231.800359 241.064554 
L 233.166568 241.064554 
L 233.166568 236.274059 
L 234.21813 236.274059 
L 234.21813 231.483564 
L 235.770697 231.483564 
L 235.770697 226.693069 
L 239.895151 226.693069 
L 239.895151 221.902574 
L 264.060285 221.902574 
L 264.060285 217.112079 
L 265.662977 217.112079 
L 265.662977 212.321584 
L 266.001632 212.321584 
L 266.001632 207.531089 
L 269.153182 207.531089 
L 269.153182 202.740594 
L 269.360309 202.740594 
L 269.360309 197.950099 
L 269.534769 197.950099 
L 269.534769 193.159604 
L 271.759121 193.159604 
L 271.759121 188.369109 
L 272.177426 188.369109 
L 272.177426 183.578614 
L 272.203721 183.578614 
L 272.203721 178.788119 
L 275.019983 178.788119 
L 275.019983 173.997624 
L 275.451154 173.997624 
L 275.451154 169.207129 
L 277.467413 169.207129 
L 277.467413 164.416634 
L 277.601367 164.416634 
L 277.601367 159.626139 
L 278.131753 159.626139 
L 278.131753 154.835644 
L 278.182132 154.835644 
L 278.182132 150.045149 
L 278.601843 150.045149 
L 278.601843 145.254653 
L 278.875113 145.254653 
L 278.875113 140.464158 
L 278.900815 140.464158 
L 278.900815 135.673663 
L 279.126983 135.673663 
L 279.126983 130.883168 
L 279.298759 130.883168 
L 279.298759 126.092673 
L 279.610306 126.092673 
L 279.610306 121.302178 
L 279.997676 121.302178 
L 279.997676 116.511683 
L 280.185535 116.511683 
L 280.185535 111.721188 
L 280.253393 111.721188 
L 280.253393 106.930693 
L 280.46225 106.930693 
L 280.46225 102.140198 
L 280.523425 102.140198 
L 280.523425 97.349703 
L 280.982638 97.349703 
L 280.982638 92.559208 
L 280.986656 92.559208 
L 280.986656 87.768713 
L 282.026426 87.768713 
L 282.026426 82.978218 
L 282.37092 82.978218 
L 282.37092 78.187723 
L 282.574355 78.187723 
L 282.574355 73.397228 
L 282.582007 73.397228 
L 282.582007 68.606733 
L 282.711818 68.606733 
L 282.711818 63.816238 
L 282.861982 63.816238 
L 282.861982 59.025743 
L 284.144991 59.025743 
L 284.144991 54.235248 
L 284.807404 54.235248 
L 284.807404 49.444752 
L 285.723543 49.444752 
L 285.723543 44.654257 
L 287.869976 44.654257 
L 287.869976 39.863762 
L 288.399248 39.863762 
L 288.399248 35.073267 
L 288.795391 35.073267 
L 288.795391 30.282772 
L 289.629083 30.282772 
L 289.629083 25.492277 
L 291.039443 25.492277 
L 291.039443 20.701782 
L 304.556186 20.701782 
L 304.556186 15.911287 
L 310.755645 15.911287 
L 310.755645 11.120792 
L 310.822565 11.120792 
L 310.822565 6.330297 
L 310.822565 6.330297 
L 310.822565 6.330297 
L 460.8 6.330297 
" clip-path="url(#p71b138fd82)" style="fill: none; stroke: #00bfbf; stroke-width: 1.5; stroke-linecap: square"/>
   </g>
   <g id="line2d_52">
    <path clip-path="url(#p71b138fd82)" style="fill: none; stroke: #00bfbf; stroke-width: 1.5; stroke-linecap: square"/>
   </g>
   <g id="line2d_53">
    <path d="M 242.227882 293.76 
L 242.227882 288.969505 
L 243.927344 288.969505 
L 243.927344 284.17901 
L 244.57086 284.17901 
L 244.57086 279.388515 
L 247.132934 279.388515 
L 247.132934 274.59802 
L 247.527072 274.59802 
L 247.527072 269.807525 
L 247.766848 269.807525 
L 247.766848 265.01703 
L 248.676318 265.01703 
L 248.676318 260.226535 
L 249.692345 260.226535 
L 249.692345 255.43604 
L 251.673658 255.43604 
L 251.673658 250.645545 
L 252.216268 250.645545 
L 252.216268 245.85505 
L 252.337243 245.85505 
L 252.337243 241.064554 
L 252.630555 241.064554 
L 252.630555 236.274059 
L 255.641864 236.274059 
L 255.641864 231.483564 
L 258.06407 231.483564 
L 258.06407 226.693069 
L 258.286229 226.693069 
L 258.286229 221.902574 
L 267.212113 221.902574 
L 267.212113 217.112079 
L 268.085441 217.112079 
L 268.085441 212.321584 
L 269.577527 212.321584 
L 269.577527 207.531089 
L 271.644344 207.531089 
L 271.644344 202.740594 
L 271.87615 202.740594 
L 271.87615 197.950099 
L 273.139082 197.950099 
L 273.139082 193.159604 
L 275.455913 193.159604 
L 275.455913 188.369109 
L 275.56755 188.369109 
L 275.56755 183.578614 
L 278.625603 183.578614 
L 278.625603 178.788119 
L 278.636397 178.788119 
L 278.636397 173.997624 
L 280.331359 173.997624 
L 280.331359 169.207129 
L 281.048862 169.207129 
L 281.048862 164.416634 
L 281.385917 164.416634 
L 281.385917 159.626139 
L 281.415666 159.626139 
L 281.415666 154.835644 
L 281.774473 154.835644 
L 281.774473 150.045149 
L 281.919242 150.045149 
L 281.919242 145.254653 
L 282.043932 145.254653 
L 282.043932 140.464158 
L 282.067258 140.464158 
L 282.067258 135.673663 
L 282.202998 135.673663 
L 282.202998 130.883168 
L 282.488146 130.883168 
L 282.488146 126.092673 
L 282.932075 126.092673 
L 282.932075 121.302178 
L 283.317727 121.302178 
L 283.317727 116.511683 
L 283.349505 116.511683 
L 283.349505 111.721188 
L 283.412967 111.721188 
L 283.412967 106.930693 
L 283.698877 106.930693 
L 283.698877 102.140198 
L 283.943801 102.140198 
L 283.943801 97.349703 
L 284.126752 97.349703 
L 284.126752 92.559208 
L 284.655176 92.559208 
L 284.655176 87.768713 
L 285.132754 87.768713 
L 285.132754 82.978218 
L 285.164581 82.978218 
L 285.164581 78.187723 
L 285.307421 78.187723 
L 285.307421 73.397228 
L 285.812027 73.397228 
L 285.812027 68.606733 
L 285.827616 68.606733 
L 285.827616 63.816238 
L 286.591001 63.816238 
L 286.591001 59.025743 
L 288.213046 59.025743 
L 288.213046 54.235248 
L 288.344781 54.235248 
L 288.344781 49.444752 
L 289.996953 49.444752 
L 289.996953 44.654257 
L 291.633383 44.654257 
L 291.633383 39.863762 
L 292.467794 39.863762 
L 292.467794 35.073267 
L 293.024031 35.073267 
L 293.024031 30.282772 
L 293.570951 30.282772 
L 293.570951 25.492277 
L 294.428467 25.492277 
L 294.428467 20.701782 
L 306.203148 20.701782 
L 306.203148 15.911287 
L 312.081847 15.911287 
L 312.081847 11.120792 
L 312.308128 11.120792 
L 312.308128 6.330297 
L 312.308128 6.330297 
L 312.308128 6.330297 
L 460.8 6.330297 
" clip-path="url(#p71b138fd82)" style="fill: none; stroke: #bf00bf; stroke-width: 1.5; stroke-linecap: square"/>
   </g>
   <g id="line2d_54">
    <path clip-path="url(#p71b138fd82)" style="fill: none; stroke: #bf00bf; stroke-width: 1.5; stroke-linecap: square"/>
   </g>
   <g id="line2d_55">
    <path d="M 260.21664 293.76 
L 260.21664 288.969505 
L 261.931433 288.969505 
L 261.931433 284.17901 
L 262.08588 284.17901 
L 262.08588 279.388515 
L 262.724589 279.388515 
L 262.724589 274.59802 
L 262.868342 274.59802 
L 262.868342 269.807525 
L 264.168045 269.807525 
L 264.168045 265.01703 
L 264.886267 265.01703 
L 264.886267 260.226535 
L 265.076462 260.226535 
L 265.076462 255.43604 
L 266.424777 255.43604 
L 266.424777 250.645545 
L 267.316078 250.645545 
L 267.316078 245.85505 
L 267.677372 245.85505 
L 267.677372 241.064554 
L 267.686428 241.064554 
L 267.686428 236.274059 
L 268.183694 236.274059 
L 268.183694 231.483564 
L 268.635406 231.483564 
L 268.635406 226.693069 
L 270.810214 226.693069 
L 270.810214 221.902574 
L 272.535845 221.902574 
L 272.535845 217.112079 
L 272.580048 217.112079 
L 272.580048 212.321584 
L 272.828543 212.321584 
L 272.828543 207.531089 
L 273.090514 207.531089 
L 273.090514 202.740594 
L 273.763967 202.740594 
L 273.763967 197.950099 
L 275.688256 197.950099 
L 275.688256 193.159604 
L 276.599142 193.159604 
L 276.599142 188.369109 
L 278.636397 188.369109 
L 278.636397 183.578614 
L 280.513237 183.578614 
L 280.513237 178.788119 
L 281.514633 178.788119 
L 281.514633 173.997624 
L 282.909359 173.997624 
L 282.909359 169.207129 
L 283.355109 169.207129 
L 283.355109 164.416634 
L 284.039064 164.416634 
L 284.039064 159.626139 
L 284.066492 159.626139 
L 284.066492 154.835644 
L 284.124928 154.835644 
L 284.124928 150.045149 
L 284.274195 150.045149 
L 284.274195 145.254653 
L 284.437242 145.254653 
L 284.437242 140.464158 
L 284.47156 140.464158 
L 284.47156 135.673663 
L 284.807404 135.673663 
L 284.807404 130.883168 
L 285.314459 130.883168 
L 285.314459 126.092673 
L 285.332046 126.092673 
L 285.332046 121.302178 
L 285.563318 121.302178 
L 285.563318 116.511683 
L 285.801629 116.511683 
L 285.801629 111.721188 
L 286.000338 111.721188 
L 286.000338 106.930693 
L 286.014116 106.930693 
L 286.014116 102.140198 
L 286.058856 102.140198 
L 286.058856 97.349703 
L 286.83707 97.349703 
L 286.83707 92.559208 
L 287.002876 92.559208 
L 287.002876 87.768713 
L 287.152881 87.768713 
L 287.152881 82.978218 
L 287.449193 82.978218 
L 287.449193 78.187723 
L 287.506818 78.187723 
L 287.506818 73.397228 
L 287.990137 73.397228 
L 287.990137 68.606733 
L 288.009581 68.606733 
L 288.009581 63.816238 
L 288.4696 63.816238 
L 288.4696 59.025743 
L 290.313964 59.025743 
L 290.313964 54.235248 
L 290.326038 54.235248 
L 290.326038 49.444752 
L 290.708559 49.444752 
L 290.708559 44.654257 
L 292.122591 44.654257 
L 292.122591 39.863762 
L 292.907126 39.863762 
L 292.907126 35.073267 
L 293.379126 35.073267 
L 293.379126 30.282772 
L 295.080629 30.282772 
L 295.080629 25.492277 
L 295.397369 25.492277 
L 295.397369 20.701782 
L 307.793111 20.701782 
L 307.793111 15.911287 
L 313.605746 15.911287 
L 313.605746 11.120792 
L 313.616099 11.120792 
L 313.616099 6.330297 
L 313.616099 6.330297 
L 313.616099 6.330297 
L 460.8 6.330297 
" clip-path="url(#p71b138fd82)" style="fill: none; stroke: #ff0000; stroke-width: 3; stroke-linecap: square"/>
   </g>
   <g id="line2d_56">
    <path clip-path="url(#p71b138fd82)" style="fill: none; stroke: #ff0000; stroke-width: 3; stroke-linecap: square"/>
   </g>
   <g id="line2d_57">
    <path d="M 313.616099 293.76 
L 313.616099 3.456 
" clip-path="url(#p71b138fd82)" style="fill: none; stroke: #000000; stroke-width: 1.5; stroke-linecap: square"/>
   </g>
   <g id="patch_3">
    <path d="M 62.208 293.76 
L 62.208 3.456 
" style="fill: none; stroke: #000000; stroke-width: 0.8; stroke-linejoin: miter; stroke-linecap: square"/>
   </g>
   <g id="patch_4">
    <path d="M 460.8 293.76 
L 460.8 3.456 
" style="fill: none; stroke: #000000; stroke-width: 0.8; stroke-linejoin: miter; stroke-linecap: square"/>
   </g>
   <g id="patch_5">
    <path d="M 62.208 293.76 
L 460.8 293.76 
" style="fill: none; stroke: #000000; stroke-width: 0.8; stroke-linejoin: miter; stroke-linecap: square"/>
   </g>
   <g id="patch_6">
    <path d="M 62.208 3.456 
L 460.8 3.456 
" style="fill: none; stroke: #000000; stroke-width: 0.8; stroke-linejoin: miter; stroke-linecap: square"/>
   </g>
   <g id="text_12">
    <!-- {f6-f9}, 20-D -->
    <g transform="translate(195.0165 24.458955)scale(0.2 -0.2)">
     <defs>
      <path id="DejaVuSans-7b" d="M 3272 -594 
L 3272 -1044 
L 3078 -1044 
Q 2300 -1044 2036 -812 
Q 1772 -581 1772 109 
L 1772 856 
Q 1772 1328 1603 1509 
Q 1434 1691 991 1691 
L 800 1691 
L 800 2138 
L 991 2138 
Q 1438 2138 1605 2317 
Q 1772 2497 1772 2963 
L 1772 3713 
Q 1772 4403 2036 4633 
Q 2300 4863 3078 4863 
L 3272 4863 
L 3272 4416 
L 3059 4416 
Q 2619 4416 2484 4278 
Q 2350 4141 2350 3700 
L 2350 2925 
Q 2350 2434 2208 2212 
Q 2066 1991 1722 1913 
Q 2069 1828 2209 1606 
Q 2350 1384 2350 897 
L 2350 122 
Q 2350 -319 2484 -456 
Q 2619 -594 3059 -594 
L 3272 -594 
z
" transform="scale(0.015625)"/>
      <path id="DejaVuSans-2d" d="M 313 2009 
L 1997 2009 
L 1997 1497 
L 313 1497 
L 313 2009 
z
" transform="scale(0.015625)"/>
      <path id="DejaVuSans-39" d="M 703 97 
L 703 672 
Q 941 559 1184 500 
Q 1428 441 1663 441 
Q 2288 441 2617 861 
Q 2947 1281 2994 2138 
Q 2813 1869 2534 1725 
Q 2256 1581 1919 1581 
Q 1219 1581 811 2004 
Q 403 2428 403 3163 
Q 403 3881 828 4315 
Q 1253 4750 1959 4750 
Q 2769 4750 3195 4129 
Q 3622 3509 3622 2328 
Q 3622 1225 3098 567 
Q 2575 -91 1691 -91 
Q 1453 -91 1209 -44 
Q 966 3 703 97 
z
M 1959 2075 
Q 2384 2075 2632 2365 
Q 2881 2656 2881 3163 
Q 2881 3666 2632 3958 
Q 2384 4250 1959 4250 
Q 1534 4250 1286 3958 
Q 1038 3666 1038 3163 
Q 1038 2656 1286 2365 
Q 1534 2075 1959 2075 
z
" transform="scale(0.015625)"/>
      <path id="DejaVuSans-7d" d="M 800 -594 
L 1019 -594 
Q 1456 -594 1589 -459 
Q 1722 -325 1722 122 
L 1722 897 
Q 1722 1384 1862 1606 
Q 2003 1828 2350 1913 
Q 2003 1991 1862 2212 
Q 1722 2434 1722 2925 
L 1722 3700 
Q 1722 4144 1589 4280 
Q 1456 4416 1019 4416 
L 800 4416 
L 800 4863 
L 997 4863 
Q 1775 4863 2036 4633 
Q 2297 4403 2297 3713 
L 2297 2963 
Q 2297 2497 2465 2317 
Q 2634 2138 3078 2138 
L 3272 2138 
L 3272 1691 
L 3078 1691 
Q 2634 1691 2465 1509 
Q 2297 1328 2297 856 
L 2297 109 
Q 2297 -581 2036 -812 
Q 1775 -1044 997 -1044 
L 800 -1044 
L 800 -594 
z
" transform="scale(0.015625)"/>
      <path id="DejaVuSans-2c" d="M 750 794 
L 1409 794 
L 1409 256 
L 897 -744 
L 494 -744 
L 750 256 
L 750 794 
z
" transform="scale(0.015625)"/>
     </defs>
     <use xlink:href="#DejaVuSans-7b"/>
     <use xlink:href="#DejaVuSans-66" x="63.623047"/>
     <use xlink:href="#DejaVuSans-36" x="98.828125"/>
     <use xlink:href="#DejaVuSans-2d" x="162.451172"/>
     <use xlink:href="#DejaVuSans-66" x="198.535156"/>
     <use xlink:href="#DejaVuSans-39" x="233.740234"/>
     <use xlink:href="#DejaVuSans-7d" x="297.363281"/>
     <use xlink:href="#DejaVuSans-2c" x="360.986328"/>
     <use xlink:href="#DejaVuSans-20" x="392.773438"/>
     <use xlink:href="#DejaVuSans-32" x="424.560547"/>
     <use xlink:href="#DejaVuSans-30" x="488.183594"/>
     <use xlink:href="#DejaVuSans-2d" x="551.806641"/>
     <use xlink:href="#DejaVuSans-44" x="587.890625"/>
    </g>
   </g>
   <g id="text_13">
    <!-- absolute targets -->
    <g transform="translate(62.208 609.932673)scale(0.14 -0.14)">
     <defs>
      <path id="DejaVuSans-62" d="M 3116 1747 
Q 3116 2381 2855 2742 
Q 2594 3103 2138 3103 
Q 1681 3103 1420 2742 
Q 1159 2381 1159 1747 
Q 1159 1113 1420 752 
Q 1681 391 2138 391 
Q 2594 391 2855 752 
Q 3116 1113 3116 1747 
z
M 1159 2969 
Q 1341 3281 1617 3432 
Q 1894 3584 2278 3584 
Q 2916 3584 3314 3078 
Q 3713 2572 3713 1747 
Q 3713 922 3314 415 
Q 2916 -91 2278 -91 
Q 1894 -91 1617 61 
Q 1341 213 1159 525 
L 1159 0 
L 581 0 
L 581 4863 
L 1159 4863 
L 1159 2969 
z
" transform="scale(0.015625)"/>
      <path id="DejaVuSans-75" d="M 544 1381 
L 544 3500 
L 1119 3500 
L 1119 1403 
Q 1119 906 1312 657 
Q 1506 409 1894 409 
Q 2359 409 2629 706 
Q 2900 1003 2900 1516 
L 2900 3500 
L 3475 3500 
L 3475 0 
L 2900 0 
L 2900 538 
Q 2691 219 2414 64 
Q 2138 -91 1772 -91 
Q 1169 -91 856 284 
Q 544 659 544 1381 
z
M 1991 3584 
L 1991 3584 
z
" transform="scale(0.015625)"/>
      <path id="DejaVuSans-65" d="M 3597 1894 
L 3597 1613 
L 953 1613 
Q 991 1019 1311 708 
Q 1631 397 2203 397 
Q 2534 397 2845 478 
Q 3156 559 3463 722 
L 3463 178 
Q 3153 47 2828 -22 
Q 2503 -91 2169 -91 
Q 1331 -91 842 396 
Q 353 884 353 1716 
Q 353 2575 817 3079 
Q 1281 3584 2069 3584 
Q 2775 3584 3186 3129 
Q 3597 2675 3597 1894 
z
M 3022 2063 
Q 3016 2534 2758 2815 
Q 2500 3097 2075 3097 
Q 1594 3097 1305 2825 
Q 1016 2553 972 2059 
L 3022 2063 
z
" transform="scale(0.015625)"/>
     </defs>
     <use xlink:href="#DejaVuSans-61"/>
     <use xlink:href="#DejaVuSans-62" x="61.279297"/>
     <use xlink:href="#DejaVuSans-73" x="124.755859"/>
     <use xlink:href="#DejaVuSans-6f" x="176.855469"/>
     <use xlink:href="#DejaVuSans-6c" x="238.037109"/>
     <use xlink:href="#DejaVuSans-75" x="265.820312"/>
     <use xlink:href="#DejaVuSans-74" x="329.199219"/>
     <use xlink:href="#DejaVuSans-65" x="368.408203"/>
     <use xlink:href="#DejaVuSans-20" x="429.931641"/>
     <use xlink:href="#DejaVuSans-74" x="461.71875"/>
     <use xlink:href="#DejaVuSans-61" x="500.927734"/>
     <use xlink:href="#DejaVuSans-72" x="562.207031"/>
     <use xlink:href="#DejaVuSans-67" x="601.570312"/>
     <use xlink:href="#DejaVuSans-65" x="665.046875"/>
     <use xlink:href="#DejaVuSans-74" x="726.570312"/>
     <use xlink:href="#DejaVuSans-73" x="765.779297"/>
    </g>
   </g>
   <g id="text_14">
    <!-- v2.6.3 -->
    <g style="fill: #808080" transform="translate(245.82275 288.777272)scale(0.1 -0.1)">
     <use xlink:href="#DejaVuSans-76"/>
     <use xlink:href="#DejaVuSans-32" x="59.179688"/>
     <use xlink:href="#DejaVuSans-2e" x="122.802734"/>
     <use xlink:href="#DejaVuSans-36" x="154.589844"/>
     <use xlink:href="#DejaVuSans-2e" x="218.212891"/>
     <use xlink:href="#DejaVuSans-33" x="250"/>
    </g>
   </g>
   <g id="legend_1">
    <g id="patch_7">
     <path d="M 76.208 136.881 
L 205.429875 136.881 
Q 209.429875 136.881 209.429875 132.881 
L 209.429875 17.456 
Q 209.429875 13.456 205.429875 13.456 
L 76.208 13.456 
Q 72.208 13.456 72.208 17.456 
L 72.208 132.881 
Q 72.208 136.881 76.208 136.881 
z
" style="fill: #ffffff; opacity: 0.2; stroke: #cccccc; stroke-linejoin: miter"/>
    </g>
    <g id="line2d_58">
     <path d="M 80.208 29.652875 
L 80.208 29.652875 
L 100.208 29.652875 
L 100.208 29.652875 
L 120.208 29.652875 
" style="fill: none; stroke: #000000; stroke-width: 1.5; stroke-linecap: square"/>
    </g>
    <g id="text_15">
     <!-- 1: 4/4 -->
     <g transform="translate(136.208 36.652875)scale(0.2 -0.2)">
      <defs>
       <path id="DejaVuSans-3a" d="M 750 794 
L 1409 794 
L 1409 0 
L 750 0 
L 750 794 
z
M 750 3309 
L 1409 3309 
L 1409 2516 
L 750 2516 
L 750 3309 
z
" transform="scale(0.015625)"/>
      </defs>
      <use xlink:href="#DejaVuSans-31"/>
      <use xlink:href="#DejaVuSans-3a" x="63.623047"/>
      <use xlink:href="#DejaVuSans-20" x="97.314453"/>
      <use xlink:href="#DejaVuSans-34" x="129.101562"/>
      <use xlink:href="#DejaVuSans-2f" x="192.724609"/>
      <use xlink:href="#DejaVuSans-34" x="226.416016"/>
     </g>
    </g>
    <g id="line2d_59">
     <path d="M 80.208 59.009125 
L 80.208 59.009125 
L 100.208 59.009125 
L 100.208 59.009125 
L 120.208 59.009125 
" style="fill: none; stroke: #00bfbf; stroke-width: 1.5; stroke-linecap: square"/>
    </g>
    <g id="text_16">
     <!-- -1: 4/4 -->
     <g transform="translate(136.208 66.009125)scale(0.2 -0.2)">
      <use xlink:href="#DejaVuSans-2d"/>
      <use xlink:href="#DejaVuSans-31" x="36.083984"/>
      <use xlink:href="#DejaVuSans-3a" x="99.707031"/>
      <use xlink:href="#DejaVuSans-20" x="133.398438"/>
      <use xlink:href="#DejaVuSans-34" x="165.185547"/>
      <use xlink:href="#DejaVuSans-2f" x="228.808594"/>
      <use xlink:href="#DejaVuSans-34" x="262.5"/>
     </g>
    </g>
    <g id="line2d_60">
     <path d="M 80.208 88.365375 
L 80.208 88.365375 
L 100.208 88.365375 
L 100.208 88.365375 
L 120.208 88.365375 
" style="fill: none; stroke: #bf00bf; stroke-width: 1.5; stroke-linecap: square"/>
    </g>
    <g id="text_17">
     <!-- -4: 4/4 -->
     <g transform="translate(136.208 95.365375)scale(0.2 -0.2)">
      <use xlink:href="#DejaVuSans-2d"/>
      <use xlink:href="#DejaVuSans-34" x="36.083984"/>
      <use xlink:href="#DejaVuSans-3a" x="99.707031"/>
      <use xlink:href="#DejaVuSans-20" x="133.398438"/>
      <use xlink:href="#DejaVuSans-34" x="165.185547"/>
      <use xlink:href="#DejaVuSans-2f" x="228.808594"/>
      <use xlink:href="#DejaVuSans-34" x="262.5"/>
     </g>
    </g>
    <g id="line2d_61">
     <path d="M 80.208 117.721625 
L 80.208 117.721625 
L 100.208 117.721625 
L 100.208 117.721625 
L 120.208 117.721625 
" style="fill: none; stroke: #ff0000; stroke-width: 3; stroke-linecap: square"/>
    </g>
    <g id="text_18">
     <!-- -8: 4/4 -->
     <g transform="translate(136.208 124.721625)scale(0.2 -0.2)">
      <use xlink:href="#DejaVuSans-2d"/>
      <use xlink:href="#DejaVuSans-38" x="36.083984"/>
      <use xlink:href="#DejaVuSans-3a" x="99.707031"/>
      <use xlink:href="#DejaVuSans-20" x="133.398438"/>
      <use xlink:href="#DejaVuSans-34" x="165.185547"/>
      <use xlink:href="#DejaVuSans-2f" x="228.808594"/>
      <use xlink:href="#DejaVuSans-34" x="262.5"/>
     </g>
    </g>
   </g>
  </g>
 </g>
 <defs>
  <clipPath id="p71b138fd82">
   <rect x="62.208" y="3.456" width="398.592" height="290.304"/>
  </clipPath>
 </defs>
</svg>
