<?xml version="1.0" encoding="utf-8" standalone="no"?>
<!DOCTYPE svg PUBLIC "-//W3C//DTD SVG 1.1//EN"
  "http://www.w3.org/Graphics/SVG/1.1/DTD/svg11.dtd">
<svg xmlns:xlink="http://www.w3.org/1999/xlink" width="460.8pt" height="345.6pt" viewBox="0 0 460.8 345.6" xmlns="http://www.w3.org/2000/svg" version="1.1">
 <metadata>
  <rdf:RDF xmlns:dc="http://purl.org/dc/elements/1.1/" xmlns:cc="http://creativecommons.org/ns#" xmlns:rdf="http://www.w3.org/1999/02/22-rdf-syntax-ns#">
   <cc:Work>
    <dc:type rdf:resource="http://purl.org/dc/dcmitype/StillImage"/>
    <dc:date>2023-04-07T14:49:10.456911</dc:date>
    <dc:format>image/svg+xml</dc:format>
    <dc:creator>
     <cc:Agent>
      <dc:title>Matplotlib v3.5.2, https://matplotlib.org/</dc:title>
     </cc:Agent>
    </dc:creator>
   </cc:Work>
  </rdf:RDF>
 </metadata>
 <defs>
  <style type="text/css">*{stroke-linejoin: round; stroke-linecap: butt}</style>
 </defs>
 <g id="figure_1">
  <g id="patch_1">
   <path d="M 0 345.6 
L 460.8 345.6 
L 460.8 0 
L 0 0 
z
" style="fill: #ffffff"/>
  </g>
  <g id="axes_1">
   <g id="patch_2">
    <path d="M 62.208 293.76 
L 460.8 293.76 
L 460.8 3.456 
L 62.208 3.456 
z
" style="fill: #ffffff"/>
   </g>
   <g id="line2d_1"/>
   <g id="line2d_2"/>
   <g id="line2d_3"/>
   <g id="line2d_4">
    <path d="M 280.764963 293.76 
L 280.781137 286.095208 
L 281.506726 286.095208 
L 281.506726 282.262812 
L 282.026426 282.262812 
L 282.026426 278.430416 
L 282.368995 278.430416 
L 282.368995 274.59802 
L 282.688947 274.59802 
L 282.717533 266.933228 
L 282.806939 266.933228 
L 282.806939 263.100832 
L 283.364448 263.100832 
L 283.403642 251.603644 
L 284.673122 251.603644 
L 284.673122 247.771248 
L 285.100896 247.771248 
L 285.100896 243.938851 
L 285.791229 243.938851 
L 285.791229 240.106455 
L 285.910637 240.106455 
L 285.910637 236.274059 
L 286.631578 236.274059 
L 286.631578 232.441663 
L 287.111282 232.441663 
L 287.111282 228.609267 
L 287.8081 228.609267 
L 287.8081 224.776871 
L 287.967438 224.776871 
L 287.967438 220.944475 
L 288.384839 220.944475 
L 288.384839 217.112079 
L 288.760583 217.112079 
L 288.760583 213.279683 
L 290.312455 213.279683 
L 290.342632 205.614891 
L 291.52593 205.614891 
L 291.52593 201.782495 
L 292.491808 201.782495 
L 292.491808 197.950099 
L 293.592802 197.950099 
L 293.646003 190.285307 
L 294.205473 190.285307 
L 294.205473 186.452911 
L 294.478996 186.452911 
L 294.478996 182.620515 
L 296.968579 182.620515 
L 296.968579 178.788119 
L 298.85456 178.788119 
L 298.85456 174.955723 
L 299.455583 174.955723 
L 299.455583 171.123327 
L 299.609236 171.123327 
L 299.609236 167.290931 
L 300.473171 167.290931 
L 300.473171 163.458535 
L 300.826232 163.458535 
L 300.826232 159.626139 
L 301.776053 159.626139 
L 301.776053 155.793743 
L 301.965704 155.793743 
L 301.972042 148.12895 
L 302.17421 148.12895 
L 302.17421 144.296554 
L 302.503205 144.296554 
L 302.57483 136.631762 
L 302.871075 136.631762 
L 302.871075 132.799366 
L 303.207398 132.799366 
L 303.24399 125.134574 
L 303.603652 125.134574 
L 303.603652 121.302178 
L 304.205933 121.302178 
L 304.205933 117.469782 
L 305.5736 117.469782 
L 305.5736 113.637386 
L 307.617657 113.637386 
L 307.617657 109.80499 
L 313.956659 109.80499 
L 313.956659 105.972594 
L 314.414424 105.972594 
L 314.505931 98.307802 
L 314.827409 98.307802 
L 314.827409 94.475406 
L 317.22248 94.475406 
L 317.22248 90.64301 
L 322.799703 90.64301 
L 322.799703 86.810614 
L 326.723377 86.810614 
L 326.723377 82.978218 
L 330.227945 82.978218 
L 330.227945 79.145822 
L 330.62166 79.145822 
L 330.62166 75.313426 
L 330.840974 75.313426 
L 330.840974 71.48103 
L 330.971163 71.48103 
L 330.971163 67.648634 
L 331.646801 67.648634 
L 331.646801 63.816238 
L 332.628345 63.816238 
L 332.628345 59.983842 
L 347.532676 59.983842 
L 347.532676 56.151446 
L 357.634536 56.151446 
L 357.634536 52.31905 
L 359.661231 52.31905 
L 359.661231 48.486653 
L 359.661231 48.486653 
L 460.8 48.486653 
L 460.8 48.486653 
" clip-path="url(#pf68bcd315e)" style="fill: none; stroke: #f5deb3; stroke-width: 1.5; stroke-linecap: square"/>
   </g>
   <g id="line2d_5"/>
   <g id="line2d_6"/>
   <g id="line2d_7">
    <path d="M 279.976966 293.76 
L 280.080384 282.262812 
L 280.261609 282.262812 
L 280.261609 278.430416 
L 280.549899 278.430416 
L 280.549899 274.59802 
L 280.732591 274.59802 
L 280.732591 270.765624 
L 280.968574 270.765624 
L 280.968574 266.933228 
L 281.126953 266.933228 
L 281.162933 259.268436 
L 281.544264 259.268436 
L 281.619211 247.771248 
L 281.682191 247.771248 
L 281.682191 243.938851 
L 283.013347 243.938851 
L 283.013347 240.106455 
L 289.188348 240.106455 
L 289.188348 236.274059 
L 289.333329 236.274059 
L 289.333329 232.441663 
L 289.490056 232.441663 
L 289.490056 228.609267 
L 289.87632 228.609267 
L 289.984757 220.944475 
L 290.013715 220.944475 
L 290.013715 217.112079 
L 290.36826 217.112079 
L 290.36826 213.279683 
L 291.083702 213.279683 
L 291.083702 209.447287 
L 291.515747 209.447287 
L 291.515747 205.614891 
L 292.409805 205.614891 
L 292.473446 197.950099 
L 293.014305 197.950099 
L 293.014305 194.117703 
L 293.468328 194.117703 
L 293.468328 190.285307 
L 293.666442 190.285307 
L 293.666442 186.452911 
L 294.868625 186.452911 
L 294.868625 182.620515 
L 295.287378 182.620515 
L 295.319767 174.955723 
L 296.402295 174.955723 
L 296.402295 171.123327 
L 296.604602 171.123327 
L 296.604602 167.290931 
L 297.103725 167.290931 
L 297.103725 163.458535 
L 297.526419 163.458535 
L 297.526419 159.626139 
L 298.634192 159.626139 
L 298.634192 155.793743 
L 298.759133 155.793743 
L 298.759133 151.961347 
L 299.105756 151.961347 
L 299.105756 148.12895 
L 300.498596 148.12895 
L 300.498596 144.296554 
L 301.141946 144.296554 
L 301.141946 140.464158 
L 301.427799 140.464158 
L 301.427799 136.631762 
L 302.839205 136.631762 
L 302.839205 132.799366 
L 303.22265 132.799366 
L 303.269377 125.134574 
L 304.532757 125.134574 
L 304.532757 121.302178 
L 305.214071 121.302178 
L 305.214071 117.469782 
L 313.002584 117.469782 
L 313.002584 113.637386 
L 319.586482 113.637386 
L 319.586482 109.80499 
L 324.255812 109.80499 
L 324.255812 105.972594 
L 327.458417 105.972594 
L 327.458417 102.140198 
L 335.248504 102.140198 
L 335.248504 98.307802 
L 335.807103 98.307802 
L 335.807103 94.475406 
L 336.339352 94.475406 
L 336.339352 90.64301 
L 337.348853 90.64301 
L 337.348853 86.810614 
L 337.860614 86.810614 
L 337.860614 82.978218 
L 338.035735 82.978218 
L 338.035735 79.145822 
L 348.299709 79.145822 
L 348.299709 75.313426 
L 351.246631 75.313426 
L 351.246631 71.48103 
L 351.53656 71.48103 
L 351.53656 67.648634 
L 351.879644 67.648634 
L 351.879644 63.816238 
L 461.8 63.816238 
L 461.8 63.816238 
" clip-path="url(#pf68bcd315e)" style="fill: none; stroke: #f5deb3; stroke-width: 1.5; stroke-linecap: square"/>
   </g>
   <g id="line2d_8"/>
   <g id="line2d_9">
    <path d="M 278.54778 293.76 
L 278.54778 289.927604 
L 278.827938 289.927604 
L 278.827938 286.095208 
L 278.975667 286.095208 
L 278.975667 282.262812 
L 279.124856 282.262812 
L 279.124856 278.430416 
L 279.419099 278.430416 
L 279.419099 274.59802 
L 279.591445 274.59802 
L 279.591445 270.765624 
L 279.898149 270.765624 
L 279.898149 266.933228 
L 280.012165 266.933228 
L 280.012165 263.100832 
L 280.14434 263.100832 
L 280.251339 251.603644 
L 280.308809 251.603644 
L 280.323161 240.106455 
L 280.677891 240.106455 
L 280.677891 236.274059 
L 282.932075 236.274059 
L 282.932075 232.441663 
L 286.093229 232.441663 
L 286.093229 228.609267 
L 286.485942 228.609267 
L 286.546985 217.112079 
L 286.73617 217.112079 
L 286.813554 209.447287 
L 286.962758 209.447287 
L 287.002876 197.950099 
L 287.087964 197.950099 
L 287.087964 194.117703 
L 287.20107 194.117703 
L 287.20107 190.285307 
L 287.688902 190.285307 
L 287.688902 186.452911 
L 287.866722 186.452911 
L 287.866722 182.620515 
L 288.200165 182.620515 
L 288.200165 178.788119 
L 288.3127 178.788119 
L 288.3127 174.955723 
L 288.585986 174.955723 
L 288.585986 171.123327 
L 289.407907 171.123327 
L 289.407907 167.290931 
L 289.565822 167.290931 
L 289.565822 163.458535 
L 290.350171 163.458535 
L 290.350171 159.626139 
L 291.11612 159.626139 
L 291.11612 155.793743 
L 291.637732 155.793743 
L 291.637732 151.961347 
L 291.769369 151.961347 
L 291.769369 148.12895 
L 292.022469 148.12895 
L 292.069708 140.464158 
L 292.139724 140.464158 
L 292.139724 136.631762 
L 292.43952 136.631762 
L 292.43952 132.799366 
L 292.688901 132.799366 
L 292.767406 121.302178 
L 292.9865 121.302178 
L 293.024031 113.637386 
L 293.17649 113.637386 
L 293.17649 109.80499 
L 293.343377 109.80499 
L 293.343377 105.972594 
L 293.5231 105.972594 
L 293.5231 102.140198 
L 296.805662 102.140198 
L 296.837816 94.475406 
L 299.825398 94.475406 
L 299.825398 90.64301 
L 300.185494 90.64301 
L 300.185494 86.810614 
L 303.631773 86.810614 
L 303.631773 82.978218 
L 305.639747 82.978218 
L 305.702934 75.313426 
L 308.898327 75.313426 
L 308.898327 71.48103 
L 310.136415 71.48103 
L 310.136415 67.648634 
L 313.262982 67.648634 
L 313.262982 63.816238 
L 315.81685 63.816238 
L 315.81685 59.983842 
L 319.51867 59.983842 
L 319.51867 56.151446 
L 320.915747 56.151446 
L 320.915747 52.31905 
L 321.081472 52.31905 
L 321.081472 48.486653 
L 321.591042 48.486653 
L 321.591042 44.654257 
L 321.83569 44.654257 
L 321.83569 40.821861 
L 332.005351 40.821861 
L 332.005351 36.989465 
L 340.24776 36.989465 
L 340.24776 33.157069 
L 350.718088 33.157069 
L 350.718088 29.324673 
L 352.817527 29.324673 
L 352.817527 25.492277 
L 353.381727 25.492277 
L 353.381727 21.659881 
L 353.698039 21.659881 
L 353.698039 17.827485 
L 354.355605 17.827485 
L 354.355605 13.995089 
L 356.150061 13.995089 
L 356.150061 10.162693 
L 356.727539 10.162693 
L 356.727539 6.330297 
L 356.727539 6.330297 
L 460.8 6.330297 
L 460.8 6.330297 
" clip-path="url(#pf68bcd315e)" style="fill: none; stroke: #f5deb3; stroke-width: 1.5; stroke-linecap: square"/>
   </g>
   <g id="line2d_10"/>
   <g id="line2d_11">
    <path d="M 443.892205 293.76 
L 443.892205 289.927604 
L 461.8 289.927604 
" clip-path="url(#pf68bcd315e)" style="fill: none; stroke: #f5deb3; stroke-width: 1.5; stroke-linecap: square"/>
   </g>
   <g id="line2d_12">
    <path d="M 346.885208 293.76 
L 346.885208 289.927604 
L 346.885208 289.927604 
L 346.885208 289.927604 
L 460.8 289.927604 
" clip-path="url(#pf68bcd315e)" style="fill: none; stroke: #f5deb3; stroke-width: 1.5; stroke-linecap: square"/>
   </g>
   <g id="line2d_13"/>
   <g id="line2d_14"/>
   <g id="line2d_15"/>
   <g id="line2d_16">
    <path clip-path="url(#pf68bcd315e)" style="fill: none; stroke: #f5deb3; stroke-width: 1.5; stroke-linecap: square"/>
   </g>
   <g id="line2d_17">
    <path d="M 375.442246 293.76 
L 375.442246 289.927604 
L 377.80976 289.927604 
L 377.80976 286.095208 
L 381.543147 286.095208 
L 381.543147 282.262812 
L 381.716282 282.262812 
L 381.716282 278.430416 
L 382.217224 278.430416 
L 382.217224 274.59802 
L 382.261154 274.59802 
L 382.261154 270.765624 
L 382.408149 270.765624 
L 382.408149 266.933228 
L 382.968395 266.933228 
L 382.968395 263.100832 
L 383.309924 263.100832 
L 383.309924 259.268436 
L 383.65493 259.268436 
L 383.65493 255.43604 
L 384.076231 255.43604 
L 384.076231 251.603644 
L 384.240725 251.603644 
L 384.240725 247.771248 
L 384.800989 247.771248 
L 384.800989 243.938851 
L 384.829306 243.938851 
L 384.829306 240.106455 
L 384.880033 240.106455 
L 384.880033 236.274059 
L 385.119252 236.274059 
L 385.119252 232.441663 
L 385.431 232.441663 
L 385.431 228.609267 
L 385.913674 228.609267 
L 385.913674 224.776871 
L 386.713116 224.776871 
L 386.713116 220.944475 
L 387.598094 220.944475 
L 387.598094 217.112079 
L 387.630449 217.112079 
L 387.630449 213.279683 
L 388.825979 213.279683 
L 388.825979 209.447287 
L 389.869268 209.447287 
L 389.869268 205.614891 
L 390.199672 205.614891 
L 390.199672 201.782495 
L 390.437864 201.782495 
L 390.437864 197.950099 
L 390.942973 197.950099 
L 390.942973 194.117703 
L 391.777354 194.117703 
L 391.777354 190.285307 
L 391.874331 190.285307 
L 391.874331 186.452911 
L 391.929934 186.452911 
L 391.929934 182.620515 
L 392.065552 182.620515 
L 392.065552 178.788119 
L 392.721881 178.788119 
L 392.721881 174.955723 
L 392.922165 174.955723 
L 392.922165 171.123327 
L 393.070668 171.123327 
L 393.070668 167.290931 
L 393.177077 167.290931 
L 393.177077 163.458535 
L 394.49759 163.458535 
L 394.49759 159.626139 
L 394.729875 159.626139 
L 394.729875 155.793743 
L 394.769126 155.793743 
L 394.769126 151.961347 
L 395.044103 151.961347 
L 395.044103 148.12895 
L 395.497232 148.12895 
L 395.497232 144.296554 
L 395.543813 144.296554 
L 395.543813 140.464158 
L 395.802227 140.464158 
L 395.802227 136.631762 
L 396.516189 136.631762 
L 396.516189 132.799366 
L 396.655755 132.799366 
L 396.655755 128.96697 
L 397.391467 128.96697 
L 397.391467 125.134574 
L 398.708632 125.134574 
L 398.708632 121.302178 
L 399.068798 121.302178 
L 399.068798 117.469782 
L 403.593269 117.469782 
L 403.593269 113.637386 
L 404.645137 113.637386 
L 404.645137 109.80499 
L 404.781787 109.80499 
L 404.781787 105.972594 
L 404.78727 105.972594 
L 404.78727 102.140198 
L 404.995446 102.140198 
L 404.995446 98.307802 
L 405.113285 98.307802 
L 405.113285 94.475406 
L 406.082954 94.475406 
L 406.082954 90.64301 
L 406.478281 90.64301 
L 406.478281 86.810614 
L 406.729564 86.810614 
L 406.729564 82.978218 
L 407.005017 82.978218 
L 407.005017 79.145822 
L 408.304764 79.145822 
L 408.304764 75.313426 
L 408.654555 75.313426 
L 408.654555 71.48103 
L 408.821048 71.48103 
L 408.821048 67.648634 
L 409.162725 67.648634 
L 409.162725 63.816238 
L 409.162725 63.816238 
L 409.162725 63.816238 
L 460.8 63.816238 
" clip-path="url(#pf68bcd315e)" style="fill: none; stroke: #f5deb3; stroke-width: 1.5; stroke-linecap: square"/>
   </g>
   <g id="line2d_18">
    <path d="M 260.345397 293.76 
L 260.345397 289.927604 
L 265.272057 289.927604 
L 265.272057 286.095208 
L 266.493727 286.095208 
L 266.493727 282.262812 
L 267.245785 282.262812 
L 267.245785 278.430416 
L 267.504814 278.430416 
L 267.504814 274.59802 
L 268.988269 274.59802 
L 268.988269 270.765624 
L 273.169718 270.765624 
L 273.169718 266.933228 
L 276.855447 266.933228 
L 276.855447 263.100832 
L 277.046363 263.100832 
L 277.046363 259.268436 
L 277.089392 259.268436 
L 277.089392 255.43604 
L 281.084927 255.43604 
L 281.084927 251.603644 
L 284.830624 251.603644 
L 284.830624 247.771248 
L 287.129592 247.771248 
L 287.129592 243.938851 
L 289.650656 243.938851 
L 289.650656 240.106455 
L 295.845136 240.106455 
L 295.845136 236.274059 
L 337.289821 236.274059 
L 337.289821 232.441663 
L 337.918272 232.441663 
L 337.918272 228.609267 
L 339.132228 228.609267 
L 339.132228 224.776871 
L 339.360219 224.776871 
L 339.360219 220.944475 
L 340.632741 220.944475 
L 340.632741 217.112079 
L 340.817437 217.112079 
L 340.817437 213.279683 
L 341.001413 213.279683 
L 341.001413 209.447287 
L 341.378608 209.447287 
L 341.378608 205.614891 
L 341.425334 205.614891 
L 341.425334 201.782495 
L 341.838526 201.782495 
L 341.838526 197.950099 
L 342.229322 197.950099 
L 342.229322 194.117703 
L 342.329823 194.117703 
L 342.329823 190.285307 
L 342.445921 190.285307 
L 342.445921 186.452911 
L 342.487787 186.452911 
L 342.487787 182.620515 
L 342.768755 182.620515 
L 342.768755 178.788119 
L 342.822605 178.788119 
L 342.822605 174.955723 
L 343.114503 174.955723 
L 343.114503 171.123327 
L 343.315802 171.123327 
L 343.315802 167.290931 
L 343.337232 167.290931 
L 343.337232 163.458535 
L 344.073919 163.458535 
L 344.073919 159.626139 
L 344.098347 159.626139 
L 344.098347 155.793743 
L 347.551772 155.793743 
L 347.551772 151.961347 
L 351.636172 151.961347 
L 351.636172 148.12895 
L 360.623318 148.12895 
L 360.623318 144.296554 
L 366.122323 144.296554 
L 366.122323 140.464158 
L 366.574957 140.464158 
L 366.574957 136.631762 
L 368.415362 136.631762 
L 368.415362 132.799366 
L 381.747404 132.799366 
L 381.747404 128.96697 
L 397.573667 128.96697 
L 397.573667 125.134574 
L 406.672346 125.134574 
L 406.672346 121.302178 
L 406.672346 121.302178 
L 406.672346 121.302178 
L 460.8 121.302178 
" clip-path="url(#pf68bcd315e)" style="fill: none; stroke: #f5deb3; stroke-width: 1.5; stroke-linecap: square"/>
   </g>
   <g id="line2d_19"/>
   <g id="line2d_20"/>
   <g id="line2d_21"/>
   <g id="line2d_22"/>
   <g id="line2d_23"/>
   <g id="line2d_24">
    <path d="M 295.145786 293.76 
L 295.145786 289.927604 
L 296.223928 289.927604 
L 296.223928 286.095208 
L 296.957497 286.095208 
L 296.957497 282.262812 
L 297.509471 282.262812 
L 297.509471 278.430416 
L 297.995053 278.430416 
L 297.995053 274.59802 
L 299.660293 274.59802 
L 299.660293 270.765624 
L 300.181031 270.765624 
L 300.181031 266.933228 
L 300.501911 266.933228 
L 300.552695 259.268436 
L 301.154945 259.268436 
L 301.154945 255.43604 
L 301.814283 255.43604 
L 301.814283 251.603644 
L 302.755787 251.603644 
L 302.798038 243.938851 
L 303.242974 243.938851 
L 303.255163 236.274059 
L 303.844902 236.274059 
L 303.844902 232.441663 
L 304.659463 232.441663 
L 304.709037 224.776871 
L 304.888235 224.776871 
L 304.901755 217.112079 
L 305.734011 217.112079 
L 305.734011 213.279683 
L 305.975963 213.279683 
L 305.975963 209.447287 
L 306.472963 209.447287 
L 306.570361 197.950099 
L 306.84809 197.950099 
L 306.84809 194.117703 
L 307.557182 194.117703 
L 307.633646 186.452911 
L 307.687774 186.452911 
L 307.687774 182.620515 
L 308.024715 182.620515 
L 308.024715 178.788119 
L 308.180539 178.788119 
L 308.180539 174.955723 
L 309.320197 174.955723 
L 309.320197 171.123327 
L 309.77164 171.123327 
L 309.77164 167.290931 
L 310.087024 167.290931 
L 310.087024 163.458535 
L 310.237432 163.458535 
L 310.338955 155.793743 
L 310.644884 155.793743 
L 310.644884 151.961347 
L 312.173166 151.961347 
L 312.185528 144.296554 
L 312.643494 144.296554 
L 312.643494 140.464158 
L 313.376395 140.464158 
L 313.376395 136.631762 
L 314.154358 136.631762 
L 314.203051 128.96697 
L 314.57924 128.96697 
L 314.57924 125.134574 
L 314.982359 125.134574 
L 314.982359 121.302178 
L 319.903939 121.302178 
L 319.903939 117.469782 
L 320.108824 117.469782 
L 320.108824 113.637386 
L 320.613991 113.637386 
L 320.613991 109.80499 
L 320.84768 109.80499 
L 320.857751 102.140198 
L 321.395276 102.140198 
L 321.395276 98.307802 
L 321.560911 98.307802 
L 321.560911 94.475406 
L 322.019124 94.475406 
L 322.019124 90.64301 
L 322.62342 90.64301 
L 322.648662 82.978218 
L 323.478528 82.978218 
L 323.478528 79.145822 
L 323.603468 79.145822 
L 323.626331 71.48103 
L 325.034834 71.48103 
L 325.034834 67.648634 
L 328.660308 67.648634 
L 328.660308 63.816238 
L 335.991324 63.816238 
L 335.991324 59.983842 
L 343.274687 59.983842 
L 343.274687 56.151446 
L 343.811632 56.151446 
L 343.811632 52.31905 
L 346.146104 52.31905 
L 346.195211 44.654257 
L 346.638722 44.654257 
L 346.638722 40.821861 
L 346.85343 40.821861 
L 346.85343 36.989465 
L 347.147062 36.989465 
L 347.147062 33.157069 
L 347.421277 33.157069 
L 347.43099 25.492277 
L 347.740304 25.492277 
L 347.740304 21.659881 
L 350.778792 21.659881 
L 350.778792 17.827485 
L 350.963765 17.827485 
L 350.963765 13.995089 
L 351.661547 13.995089 
L 351.661547 10.162693 
L 352.317393 10.162693 
L 352.317393 6.330297 
L 352.317393 6.330297 
L 460.8 6.330297 
L 460.8 6.330297 
" clip-path="url(#pf68bcd315e)" style="fill: none; stroke: #f5deb3; stroke-width: 1.5; stroke-linecap: square"/>
   </g>
   <g id="line2d_25"/>
   <g id="line2d_26">
    <path d="M 299.286299 293.76 
L 299.286299 289.927604 
L 313.071074 289.927604 
L 313.071074 286.095208 
L 313.140921 286.095208 
L 313.140921 282.262812 
L 317.145588 282.262812 
L 317.145588 278.430416 
L 319.305066 278.430416 
L 319.305066 274.59802 
L 319.830059 274.59802 
L 319.830059 270.765624 
L 320.945888 270.765624 
L 320.945888 266.933228 
L 321.100292 266.933228 
L 321.100292 263.100832 
L 321.143183 263.100832 
L 321.143183 259.268436 
L 321.51276 259.268436 
L 321.51276 255.43604 
L 321.603202 255.43604 
L 321.603202 251.603644 
L 322.09164 251.603644 
L 322.09164 247.771248 
L 322.179357 247.771248 
L 322.179357 243.938851 
L 322.231647 243.938851 
L 322.231647 240.106455 
L 322.288956 240.106455 
L 322.288956 236.274059 
L 322.635763 236.274059 
L 322.635763 232.441663 
L 322.73266 232.441663 
L 322.73266 228.609267 
L 322.819232 228.609267 
L 322.819232 224.776871 
L 323.366823 224.776871 
L 323.366823 220.944475 
L 323.935582 220.944475 
L 323.935582 217.112079 
L 324.396426 217.112079 
L 324.396426 213.279683 
L 324.403866 213.279683 
L 324.403866 209.447287 
L 324.463325 209.447287 
L 324.463325 205.614891 
L 325.273189 205.614891 
L 325.273189 201.782495 
L 325.352772 201.782495 
L 325.352772 197.950099 
L 325.397646 197.950099 
L 325.397646 194.117703 
L 325.501084 194.117703 
L 325.501084 190.285307 
L 326.44853 190.285307 
L 326.44853 186.452911 
L 326.781231 186.452911 
L 326.781231 182.620515 
L 328.361369 182.620515 
L 328.361369 178.788119 
L 328.761364 178.788119 
L 328.761364 174.955723 
L 329.616325 174.955723 
L 329.616325 171.123327 
L 331.444846 171.123327 
L 331.444846 167.290931 
L 331.522274 167.290931 
L 331.522274 163.458535 
L 336.26147 163.458535 
L 336.26147 159.626139 
L 339.2963 159.626139 
L 339.2963 155.793743 
L 346.175577 155.793743 
L 346.175577 151.961347 
L 350.489435 151.961347 
L 350.489435 148.12895 
L 352.393692 148.12895 
L 352.393692 144.296554 
L 353.664875 144.296554 
L 353.664875 140.464158 
L 353.734847 140.464158 
L 353.734847 136.631762 
L 354.931211 136.631762 
L 354.931211 132.799366 
L 354.998524 132.799366 
L 354.998524 128.96697 
L 355.21639 128.96697 
L 355.21639 125.134574 
L 356.556298 125.134574 
L 356.556298 121.302178 
L 362.831708 121.302178 
L 362.831708 117.469782 
L 363.162176 117.469782 
L 363.162176 113.637386 
L 363.642904 113.637386 
L 363.642904 109.80499 
L 369.970923 109.80499 
L 369.970923 105.972594 
L 370.624126 105.972594 
L 370.624126 102.140198 
L 371.253383 102.140198 
L 371.253383 98.307802 
L 371.771998 98.307802 
L 371.771998 94.475406 
L 381.808461 94.475406 
L 381.808461 90.64301 
L 388.565486 90.64301 
L 388.565486 86.810614 
L 416.403835 86.810614 
L 416.403835 82.978218 
L 420.353238 82.978218 
L 420.353238 79.145822 
L 421.288554 79.145822 
L 421.288554 75.313426 
L 423.640698 75.313426 
L 423.640698 71.48103 
L 430.585121 71.48103 
L 430.585121 67.648634 
L 430.585121 67.648634 
L 430.585121 67.648634 
L 460.8 67.648634 
" clip-path="url(#pf68bcd315e)" style="fill: none; stroke: #f5deb3; stroke-width: 1.5; stroke-linecap: square"/>
   </g>
   <g id="line2d_27">
    <path d="M 274.531682 293.76 
L 274.531682 289.927604 
L 274.72934 289.927604 
L 274.72934 286.095208 
L 275.063357 286.095208 
L 275.063357 282.262812 
L 275.716593 282.262812 
L 275.716593 278.430416 
L 276.419449 278.430416 
L 276.419449 274.59802 
L 279.758716 274.59802 
L 279.758716 270.765624 
L 281.512656 270.765624 
L 281.512656 266.933228 
L 282.643159 266.933228 
L 282.643159 263.100832 
L 285.482909 263.100832 
L 285.482909 259.268436 
L 285.716593 259.268436 
L 285.716593 255.43604 
L 290.550094 255.43604 
L 290.550094 251.603644 
L 291.235202 251.603644 
L 291.235202 247.771248 
L 293.010136 247.771248 
L 293.010136 243.938851 
L 294.460389 243.938851 
L 294.460389 240.106455 
L 295.664971 240.106455 
L 295.664971 236.274059 
L 343.546333 236.274059 
L 343.546333 232.441663 
L 346.659692 232.441663 
L 346.659692 228.609267 
L 347.265731 228.609267 
L 347.265731 224.776871 
L 347.279711 224.776871 
L 347.279711 220.944475 
L 347.498379 220.944475 
L 347.498379 217.112079 
L 347.650998 217.112079 
L 347.650998 213.279683 
L 348.346959 213.279683 
L 348.346959 209.447287 
L 348.87406 209.447287 
L 348.87406 205.614891 
L 349.094815 205.614891 
L 349.094815 201.782495 
L 349.249603 201.782495 
L 349.249603 197.950099 
L 350.030422 197.950099 
L 350.030422 194.117703 
L 350.627771 194.117703 
L 350.627771 190.285307 
L 351.415043 190.285307 
L 351.415043 186.452911 
L 351.527763 186.452911 
L 351.527763 182.620515 
L 353.353276 182.620515 
L 353.353276 178.788119 
L 361.704502 178.788119 
L 361.704502 174.955723 
L 379.772998 174.955723 
L 379.772998 171.123327 
L 382.555382 171.123327 
L 382.555382 167.290931 
L 383.478749 167.290931 
L 383.478749 163.458535 
L 385.330923 163.458535 
L 385.330923 159.626139 
L 386.374189 159.626139 
L 386.374189 155.793743 
L 386.480889 155.793743 
L 386.480889 151.961347 
L 387.533442 151.961347 
L 387.533442 148.12895 
L 387.810726 148.12895 
L 387.810726 144.296554 
L 388.032127 144.296554 
L 388.032127 140.464158 
L 388.133326 140.464158 
L 388.133326 136.631762 
L 388.136118 136.631762 
L 388.136118 132.799366 
L 393.373762 132.799366 
L 393.373762 128.96697 
L 393.649285 128.96697 
L 393.649285 125.134574 
L 394.234733 125.134574 
L 394.234733 121.302178 
L 398.819792 121.302178 
L 398.819792 117.469782 
L 398.819792 117.469782 
L 398.819792 117.469782 
L 460.8 117.469782 
" clip-path="url(#pf68bcd315e)" style="fill: none; stroke: #f5deb3; stroke-width: 1.5; stroke-linecap: square"/>
   </g>
   <g id="line2d_28">
    <path d="M 278.748445 293.76 
L 278.806473 286.095208 
L 278.920079 286.095208 
L 278.920079 282.262812 
L 279.190709 282.262812 
L 279.237363 274.59802 
L 279.467532 274.59802 
L 279.467532 270.765624 
L 279.595637 270.765624 
L 279.595637 266.933228 
L 280.131971 266.933228 
L 280.230789 259.268436 
L 280.273928 259.268436 
L 280.273928 255.43604 
L 280.861887 255.43604 
L 280.861887 251.603644 
L 281.174917 251.603644 
L 281.174917 247.771248 
L 281.623151 247.771248 
L 281.686123 236.274059 
L 281.81758 236.274059 
L 281.81758 232.441663 
L 282.067258 232.441663 
L 282.067258 228.609267 
L 282.522657 228.609267 
L 282.522657 224.776871 
L 282.924505 224.776871 
L 282.924505 220.944475 
L 283.058619 220.944475 
L 283.058619 217.112079 
L 283.722898 217.112079 
L 283.722898 213.279683 
L 283.980474 213.279683 
L 283.980474 209.447287 
L 284.40108 209.447287 
L 284.40108 205.614891 
L 284.691058 205.614891 
L 284.691058 201.782495 
L 285.168116 201.782495 
L 285.168116 197.950099 
L 286.213251 197.950099 
L 286.247462 190.285307 
L 286.563921 190.285307 
L 286.563921 186.452911 
L 286.680542 186.452911 
L 286.680542 182.620515 
L 287.269078 182.620515 
L 287.269078 178.788119 
L 288.072693 178.788119 
L 288.108242 171.123327 
L 288.62098 171.123327 
L 288.687684 155.793743 
L 289.499343 155.793743 
L 289.499343 151.961347 
L 289.706065 151.961347 
L 289.706065 148.12895 
L 290.031991 148.12895 
L 290.031991 144.296554 
L 290.301887 144.296554 
L 290.301887 140.464158 
L 290.665282 140.464158 
L 290.675733 132.799366 
L 291.600023 132.799366 
L 291.600023 128.96697 
L 292.051107 128.96697 
L 292.051107 125.134574 
L 293.233134 125.134574 
L 293.233134 121.302178 
L 299.861474 121.302178 
L 299.861474 117.469782 
L 300.243455 117.469782 
L 300.243455 113.637386 
L 301.109427 113.637386 
L 301.109427 109.80499 
L 301.502891 109.80499 
L 301.502891 105.972594 
L 301.667489 105.972594 
L 301.667489 102.140198 
L 302.32293 102.140198 
L 302.32293 98.307802 
L 302.554086 98.307802 
L 302.554086 94.475406 
L 302.953175 94.475406 
L 302.953175 90.64301 
L 303.527202 90.64301 
L 303.527202 86.810614 
L 303.746015 86.810614 
L 303.746015 82.978218 
L 304.752716 82.978218 
L 304.752716 79.145822 
L 306.435213 79.145822 
L 306.435213 75.313426 
L 306.560267 75.313426 
L 306.560267 71.48103 
L 309.591476 71.48103 
L 309.591476 67.648634 
L 310.383069 67.648634 
L 310.383069 63.816238 
L 313.718715 63.816238 
L 313.718715 59.983842 
L 314.83667 59.983842 
L 314.83667 56.151446 
L 319.430921 56.151446 
L 319.430921 52.31905 
L 320.177238 52.31905 
L 320.177238 48.486653 
L 321.046746 48.486653 
L 321.114987 40.821861 
L 321.177808 40.821861 
L 321.177808 36.989465 
L 321.538295 36.989465 
L 321.538295 33.157069 
L 321.65989 33.157069 
L 321.65989 29.324673 
L 322.913918 29.324673 
L 322.96338 21.659881 
L 324.688495 21.659881 
L 324.688495 17.827485 
L 325.682465 17.827485 
L 325.682465 13.995089 
L 326.816784 13.995089 
L 326.816784 10.162693 
L 327.642749 10.162693 
L 327.642749 6.330297 
L 327.642749 6.330297 
L 460.8 6.330297 
L 460.8 6.330297 
" clip-path="url(#pf68bcd315e)" style="fill: none; stroke: #f5deb3; stroke-width: 1.5; stroke-linecap: square"/>
   </g>
   <g id="line2d_29"/>
   <g id="line2d_30"/>
   <g id="matplotlib.axis_1">
    <g id="xtick_1">
     <g id="line2d_31">
      <path d="M 62.208 293.76 
L 62.208 3.456 
" clip-path="url(#pf68bcd315e)" style="fill: none; stroke: #b0b0b0; stroke-width: 0.8; stroke-linecap: square"/>
     </g>
     <g id="line2d_32">
      <defs>
       <path id="m6d7764d87d" d="M 0 0 
L 0 3.5 
" style="stroke: #000000; stroke-width: 0.8"/>
      </defs>
      <g>
       <use xlink:href="#m6d7764d87d" x="62.208" y="293.76" style="stroke: #000000; stroke-width: 0.8"/>
      </g>
     </g>
     <g id="text_1">
      <!-- 0 -->
      <g transform="translate(55.8455 315.956875)scale(0.2 -0.2)">
       <defs>
        <path id="DejaVuSans-30" d="M 2034 4250 
Q 1547 4250 1301 3770 
Q 1056 3291 1056 2328 
Q 1056 1369 1301 889 
Q 1547 409 2034 409 
Q 2525 409 2770 889 
Q 3016 1369 3016 2328 
Q 3016 3291 2770 3770 
Q 2525 4250 2034 4250 
z
M 2034 4750 
Q 2819 4750 3233 4129 
Q 3647 3509 3647 2328 
Q 3647 1150 3233 529 
Q 2819 -91 2034 -91 
Q 1250 -91 836 529 
Q 422 1150 422 2328 
Q 422 3509 836 4129 
Q 1250 4750 2034 4750 
z
" transform="scale(0.015625)"/>
       </defs>
       <use xlink:href="#DejaVuSans-30"/>
      </g>
     </g>
    </g>
    <g id="xtick_2">
     <g id="line2d_33">
      <path d="M 212.57218 293.76 
L 212.57218 3.456 
" clip-path="url(#pf68bcd315e)" style="fill: none; stroke: #b0b0b0; stroke-width: 0.8; stroke-linecap: square"/>
     </g>
     <g id="line2d_34">
      <g>
       <use xlink:href="#m6d7764d87d" x="212.57218" y="293.76" style="stroke: #000000; stroke-width: 0.8"/>
      </g>
     </g>
     <g id="text_2">
      <!-- 2 -->
      <g transform="translate(206.20968 315.956875)scale(0.2 -0.2)">
       <defs>
        <path id="DejaVuSans-32" d="M 1228 531 
L 3431 531 
L 3431 0 
L 469 0 
L 469 531 
Q 828 903 1448 1529 
Q 2069 2156 2228 2338 
Q 2531 2678 2651 2914 
Q 2772 3150 2772 3378 
Q 2772 3750 2511 3984 
Q 2250 4219 1831 4219 
Q 1534 4219 1204 4116 
Q 875 4013 500 3803 
L 500 4441 
Q 881 4594 1212 4672 
Q 1544 4750 1819 4750 
Q 2544 4750 2975 4387 
Q 3406 4025 3406 3419 
Q 3406 3131 3298 2873 
Q 3191 2616 2906 2266 
Q 2828 2175 2409 1742 
Q 1991 1309 1228 531 
z
" transform="scale(0.015625)"/>
       </defs>
       <use xlink:href="#DejaVuSans-32"/>
      </g>
     </g>
    </g>
    <g id="xtick_3">
     <g id="line2d_35">
      <path d="M 362.93636 293.76 
L 362.93636 3.456 
" clip-path="url(#pf68bcd315e)" style="fill: none; stroke: #b0b0b0; stroke-width: 0.8; stroke-linecap: square"/>
     </g>
     <g id="line2d_36">
      <g>
       <use xlink:href="#m6d7764d87d" x="362.93636" y="293.76" style="stroke: #000000; stroke-width: 0.8"/>
      </g>
     </g>
     <g id="text_3">
      <!-- 4 -->
      <g transform="translate(356.57386 315.956875)scale(0.2 -0.2)">
       <defs>
        <path id="DejaVuSans-34" d="M 2419 4116 
L 825 1625 
L 2419 1625 
L 2419 4116 
z
M 2253 4666 
L 3047 4666 
L 3047 1625 
L 3713 1625 
L 3713 1100 
L 3047 1100 
L 3047 0 
L 2419 0 
L 2419 1100 
L 313 1100 
L 313 1709 
L 2253 4666 
z
" transform="scale(0.015625)"/>
       </defs>
       <use xlink:href="#DejaVuSans-34"/>
      </g>
     </g>
    </g>
    <g id="text_4">
     <!-- log10 of FEvals / DIM -->
     <g transform="translate(156.430563 339.313125)scale(0.2 -0.2)">
      <defs>
       <path id="DejaVuSans-6c" d="M 603 4863 
L 1178 4863 
L 1178 0 
L 603 0 
L 603 4863 
z
" transform="scale(0.015625)"/>
       <path id="DejaVuSans-6f" d="M 1959 3097 
Q 1497 3097 1228 2736 
Q 959 2375 959 1747 
Q 959 1119 1226 758 
Q 1494 397 1959 397 
Q 2419 397 2687 759 
Q 2956 1122 2956 1747 
Q 2956 2369 2687 2733 
Q 2419 3097 1959 3097 
z
M 1959 3584 
Q 2709 3584 3137 3096 
Q 3566 2609 3566 1747 
Q 3566 888 3137 398 
Q 2709 -91 1959 -91 
Q 1206 -91 779 398 
Q 353 888 353 1747 
Q 353 2609 779 3096 
Q 1206 3584 1959 3584 
z
" transform="scale(0.015625)"/>
       <path id="DejaVuSans-67" d="M 2906 1791 
Q 2906 2416 2648 2759 
Q 2391 3103 1925 3103 
Q 1463 3103 1205 2759 
Q 947 2416 947 1791 
Q 947 1169 1205 825 
Q 1463 481 1925 481 
Q 2391 481 2648 825 
Q 2906 1169 2906 1791 
z
M 3481 434 
Q 3481 -459 3084 -895 
Q 2688 -1331 1869 -1331 
Q 1566 -1331 1297 -1286 
Q 1028 -1241 775 -1147 
L 775 -588 
Q 1028 -725 1275 -790 
Q 1522 -856 1778 -856 
Q 2344 -856 2625 -561 
Q 2906 -266 2906 331 
L 2906 616 
Q 2728 306 2450 153 
Q 2172 0 1784 0 
Q 1141 0 747 490 
Q 353 981 353 1791 
Q 353 2603 747 3093 
Q 1141 3584 1784 3584 
Q 2172 3584 2450 3431 
Q 2728 3278 2906 2969 
L 2906 3500 
L 3481 3500 
L 3481 434 
z
" transform="scale(0.015625)"/>
       <path id="DejaVuSans-31" d="M 794 531 
L 1825 531 
L 1825 4091 
L 703 3866 
L 703 4441 
L 1819 4666 
L 2450 4666 
L 2450 531 
L 3481 531 
L 3481 0 
L 794 0 
L 794 531 
z
" transform="scale(0.015625)"/>
       <path id="DejaVuSans-20" transform="scale(0.015625)"/>
       <path id="DejaVuSans-66" d="M 2375 4863 
L 2375 4384 
L 1825 4384 
Q 1516 4384 1395 4259 
Q 1275 4134 1275 3809 
L 1275 3500 
L 2222 3500 
L 2222 3053 
L 1275 3053 
L 1275 0 
L 697 0 
L 697 3053 
L 147 3053 
L 147 3500 
L 697 3500 
L 697 3744 
Q 697 4328 969 4595 
Q 1241 4863 1831 4863 
L 2375 4863 
z
" transform="scale(0.015625)"/>
       <path id="DejaVuSans-46" d="M 628 4666 
L 3309 4666 
L 3309 4134 
L 1259 4134 
L 1259 2759 
L 3109 2759 
L 3109 2228 
L 1259 2228 
L 1259 0 
L 628 0 
L 628 4666 
z
" transform="scale(0.015625)"/>
       <path id="DejaVuSans-45" d="M 628 4666 
L 3578 4666 
L 3578 4134 
L 1259 4134 
L 1259 2753 
L 3481 2753 
L 3481 2222 
L 1259 2222 
L 1259 531 
L 3634 531 
L 3634 0 
L 628 0 
L 628 4666 
z
" transform="scale(0.015625)"/>
       <path id="DejaVuSans-76" d="M 191 3500 
L 800 3500 
L 1894 563 
L 2988 3500 
L 3597 3500 
L 2284 0 
L 1503 0 
L 191 3500 
z
" transform="scale(0.015625)"/>
       <path id="DejaVuSans-61" d="M 2194 1759 
Q 1497 1759 1228 1600 
Q 959 1441 959 1056 
Q 959 750 1161 570 
Q 1363 391 1709 391 
Q 2188 391 2477 730 
Q 2766 1069 2766 1631 
L 2766 1759 
L 2194 1759 
z
M 3341 1997 
L 3341 0 
L 2766 0 
L 2766 531 
Q 2569 213 2275 61 
Q 1981 -91 1556 -91 
Q 1019 -91 701 211 
Q 384 513 384 1019 
Q 384 1609 779 1909 
Q 1175 2209 1959 2209 
L 2766 2209 
L 2766 2266 
Q 2766 2663 2505 2880 
Q 2244 3097 1772 3097 
Q 1472 3097 1187 3025 
Q 903 2953 641 2809 
L 641 3341 
Q 956 3463 1253 3523 
Q 1550 3584 1831 3584 
Q 2591 3584 2966 3190 
Q 3341 2797 3341 1997 
z
" transform="scale(0.015625)"/>
       <path id="DejaVuSans-73" d="M 2834 3397 
L 2834 2853 
Q 2591 2978 2328 3040 
Q 2066 3103 1784 3103 
Q 1356 3103 1142 2972 
Q 928 2841 928 2578 
Q 928 2378 1081 2264 
Q 1234 2150 1697 2047 
L 1894 2003 
Q 2506 1872 2764 1633 
Q 3022 1394 3022 966 
Q 3022 478 2636 193 
Q 2250 -91 1575 -91 
Q 1294 -91 989 -36 
Q 684 19 347 128 
L 347 722 
Q 666 556 975 473 
Q 1284 391 1588 391 
Q 1994 391 2212 530 
Q 2431 669 2431 922 
Q 2431 1156 2273 1281 
Q 2116 1406 1581 1522 
L 1381 1569 
Q 847 1681 609 1914 
Q 372 2147 372 2553 
Q 372 3047 722 3315 
Q 1072 3584 1716 3584 
Q 2034 3584 2315 3537 
Q 2597 3491 2834 3397 
z
" transform="scale(0.015625)"/>
       <path id="DejaVuSans-2f" d="M 1625 4666 
L 2156 4666 
L 531 -594 
L 0 -594 
L 1625 4666 
z
" transform="scale(0.015625)"/>
       <path id="DejaVuSans-44" d="M 1259 4147 
L 1259 519 
L 2022 519 
Q 2988 519 3436 956 
Q 3884 1394 3884 2338 
Q 3884 3275 3436 3711 
Q 2988 4147 2022 4147 
L 1259 4147 
z
M 628 4666 
L 1925 4666 
Q 3281 4666 3915 4102 
Q 4550 3538 4550 2338 
Q 4550 1131 3912 565 
Q 3275 0 1925 0 
L 628 0 
L 628 4666 
z
" transform="scale(0.015625)"/>
       <path id="DejaVuSans-49" d="M 628 4666 
L 1259 4666 
L 1259 0 
L 628 0 
L 628 4666 
z
" transform="scale(0.015625)"/>
       <path id="DejaVuSans-4d" d="M 628 4666 
L 1569 4666 
L 2759 1491 
L 3956 4666 
L 4897 4666 
L 4897 0 
L 4281 0 
L 4281 4097 
L 3078 897 
L 2444 897 
L 1241 4097 
L 1241 0 
L 628 0 
L 628 4666 
z
" transform="scale(0.015625)"/>
      </defs>
      <use xlink:href="#DejaVuSans-6c"/>
      <use xlink:href="#DejaVuSans-6f" x="27.783203"/>
      <use xlink:href="#DejaVuSans-67" x="88.964844"/>
      <use xlink:href="#DejaVuSans-31" x="152.441406"/>
      <use xlink:href="#DejaVuSans-30" x="216.064453"/>
      <use xlink:href="#DejaVuSans-20" x="279.6875"/>
      <use xlink:href="#DejaVuSans-6f" x="311.474609"/>
      <use xlink:href="#DejaVuSans-66" x="372.65625"/>
      <use xlink:href="#DejaVuSans-20" x="407.861328"/>
      <use xlink:href="#DejaVuSans-46" x="439.648438"/>
      <use xlink:href="#DejaVuSans-45" x="497.167969"/>
      <use xlink:href="#DejaVuSans-76" x="560.351562"/>
      <use xlink:href="#DejaVuSans-61" x="619.53125"/>
      <use xlink:href="#DejaVuSans-6c" x="680.810547"/>
      <use xlink:href="#DejaVuSans-73" x="708.59375"/>
      <use xlink:href="#DejaVuSans-20" x="760.693359"/>
      <use xlink:href="#DejaVuSans-2f" x="792.480469"/>
      <use xlink:href="#DejaVuSans-20" x="826.171875"/>
      <use xlink:href="#DejaVuSans-44" x="857.958984"/>
      <use xlink:href="#DejaVuSans-49" x="934.960938"/>
      <use xlink:href="#DejaVuSans-4d" x="964.453125"/>
     </g>
    </g>
   </g>
   <g id="matplotlib.axis_2">
    <g id="ytick_1">
     <g id="line2d_37">
      <path d="M 62.208 293.76 
L 460.8 293.76 
" clip-path="url(#pf68bcd315e)" style="fill: none; stroke: #b0b0b0; stroke-width: 0.8; stroke-linecap: square"/>
     </g>
     <g id="line2d_38">
      <defs>
       <path id="m9b6201cfa5" d="M 0 0 
L -3.5 0 
" style="stroke: #000000; stroke-width: 0.8"/>
      </defs>
      <g>
       <use xlink:href="#m9b6201cfa5" x="62.208" y="293.76" style="stroke: #000000; stroke-width: 0.8"/>
      </g>
     </g>
     <g id="text_5">
      <!-- 0.0 -->
      <g transform="translate(29.763 299.83875)scale(0.16 -0.16)">
       <defs>
        <path id="DejaVuSans-2e" d="M 684 794 
L 1344 794 
L 1344 0 
L 684 0 
L 684 794 
z
" transform="scale(0.015625)"/>
       </defs>
       <use xlink:href="#DejaVuSans-30"/>
       <use xlink:href="#DejaVuSans-2e" x="63.623047"/>
       <use xlink:href="#DejaVuSans-30" x="95.410156"/>
      </g>
     </g>
    </g>
    <g id="ytick_2">
     <g id="line2d_39">
      <path d="M 62.208 236.274059 
L 460.8 236.274059 
" clip-path="url(#pf68bcd315e)" style="fill: none; stroke: #b0b0b0; stroke-width: 0.8; stroke-linecap: square"/>
     </g>
     <g id="line2d_40">
      <g>
       <use xlink:href="#m9b6201cfa5" x="62.208" y="236.274059" style="stroke: #000000; stroke-width: 0.8"/>
      </g>
     </g>
     <g id="text_6">
      <!-- 0.2 -->
      <g transform="translate(29.763 242.352809)scale(0.16 -0.16)">
       <use xlink:href="#DejaVuSans-30"/>
       <use xlink:href="#DejaVuSans-2e" x="63.623047"/>
       <use xlink:href="#DejaVuSans-32" x="95.410156"/>
      </g>
     </g>
    </g>
    <g id="ytick_3">
     <g id="line2d_41">
      <path d="M 62.208 178.788119 
L 460.8 178.788119 
" clip-path="url(#pf68bcd315e)" style="fill: none; stroke: #b0b0b0; stroke-width: 0.8; stroke-linecap: square"/>
     </g>
     <g id="line2d_42">
      <g>
       <use xlink:href="#m9b6201cfa5" x="62.208" y="178.788119" style="stroke: #000000; stroke-width: 0.8"/>
      </g>
     </g>
     <g id="text_7">
      <!-- 0.4 -->
      <g transform="translate(29.763 184.866869)scale(0.16 -0.16)">
       <use xlink:href="#DejaVuSans-30"/>
       <use xlink:href="#DejaVuSans-2e" x="63.623047"/>
       <use xlink:href="#DejaVuSans-34" x="95.410156"/>
      </g>
     </g>
    </g>
    <g id="ytick_4">
     <g id="line2d_43">
      <path d="M 62.208 121.302178 
L 460.8 121.302178 
" clip-path="url(#pf68bcd315e)" style="fill: none; stroke: #b0b0b0; stroke-width: 0.8; stroke-linecap: square"/>
     </g>
     <g id="line2d_44">
      <g>
       <use xlink:href="#m9b6201cfa5" x="62.208" y="121.302178" style="stroke: #000000; stroke-width: 0.8"/>
      </g>
     </g>
     <g id="text_8">
      <!-- 0.6 -->
      <g transform="translate(29.763 127.380928)scale(0.16 -0.16)">
       <defs>
        <path id="DejaVuSans-36" d="M 2113 2584 
Q 1688 2584 1439 2293 
Q 1191 2003 1191 1497 
Q 1191 994 1439 701 
Q 1688 409 2113 409 
Q 2538 409 2786 701 
Q 3034 994 3034 1497 
Q 3034 2003 2786 2293 
Q 2538 2584 2113 2584 
z
M 3366 4563 
L 3366 3988 
Q 3128 4100 2886 4159 
Q 2644 4219 2406 4219 
Q 1781 4219 1451 3797 
Q 1122 3375 1075 2522 
Q 1259 2794 1537 2939 
Q 1816 3084 2150 3084 
Q 2853 3084 3261 2657 
Q 3669 2231 3669 1497 
Q 3669 778 3244 343 
Q 2819 -91 2113 -91 
Q 1303 -91 875 529 
Q 447 1150 447 2328 
Q 447 3434 972 4092 
Q 1497 4750 2381 4750 
Q 2619 4750 2861 4703 
Q 3103 4656 3366 4563 
z
" transform="scale(0.015625)"/>
       </defs>
       <use xlink:href="#DejaVuSans-30"/>
       <use xlink:href="#DejaVuSans-2e" x="63.623047"/>
       <use xlink:href="#DejaVuSans-36" x="95.410156"/>
      </g>
     </g>
    </g>
    <g id="ytick_5">
     <g id="line2d_45">
      <path d="M 62.208 63.816238 
L 460.8 63.816238 
" clip-path="url(#pf68bcd315e)" style="fill: none; stroke: #b0b0b0; stroke-width: 0.8; stroke-linecap: square"/>
     </g>
     <g id="line2d_46">
      <g>
       <use xlink:href="#m9b6201cfa5" x="62.208" y="63.816238" style="stroke: #000000; stroke-width: 0.8"/>
      </g>
     </g>
     <g id="text_9">
      <!-- 0.8 -->
      <g transform="translate(29.763 69.894988)scale(0.16 -0.16)">
       <defs>
        <path id="DejaVuSans-38" d="M 2034 2216 
Q 1584 2216 1326 1975 
Q 1069 1734 1069 1313 
Q 1069 891 1326 650 
Q 1584 409 2034 409 
Q 2484 409 2743 651 
Q 3003 894 3003 1313 
Q 3003 1734 2745 1975 
Q 2488 2216 2034 2216 
z
M 1403 2484 
Q 997 2584 770 2862 
Q 544 3141 544 3541 
Q 544 4100 942 4425 
Q 1341 4750 2034 4750 
Q 2731 4750 3128 4425 
Q 3525 4100 3525 3541 
Q 3525 3141 3298 2862 
Q 3072 2584 2669 2484 
Q 3125 2378 3379 2068 
Q 3634 1759 3634 1313 
Q 3634 634 3220 271 
Q 2806 -91 2034 -91 
Q 1263 -91 848 271 
Q 434 634 434 1313 
Q 434 1759 690 2068 
Q 947 2378 1403 2484 
z
M 1172 3481 
Q 1172 3119 1398 2916 
Q 1625 2713 2034 2713 
Q 2441 2713 2670 2916 
Q 2900 3119 2900 3481 
Q 2900 3844 2670 4047 
Q 2441 4250 2034 4250 
Q 1625 4250 1398 4047 
Q 1172 3844 1172 3481 
z
" transform="scale(0.015625)"/>
       </defs>
       <use xlink:href="#DejaVuSans-30"/>
       <use xlink:href="#DejaVuSans-2e" x="63.623047"/>
       <use xlink:href="#DejaVuSans-38" x="95.410156"/>
      </g>
     </g>
    </g>
    <g id="ytick_6">
     <g id="line2d_47">
      <path d="M 62.208 6.330297 
L 460.8 6.330297 
" clip-path="url(#pf68bcd315e)" style="fill: none; stroke: #b0b0b0; stroke-width: 0.8; stroke-linecap: square"/>
     </g>
     <g id="line2d_48">
      <g>
       <use xlink:href="#m9b6201cfa5" x="62.208" y="6.330297" style="stroke: #000000; stroke-width: 0.8"/>
      </g>
     </g>
     <g id="text_10">
      <!-- 1.0 -->
      <g transform="translate(29.763 12.409047)scale(0.16 -0.16)">
       <use xlink:href="#DejaVuSans-31"/>
       <use xlink:href="#DejaVuSans-2e" x="63.623047"/>
       <use xlink:href="#DejaVuSans-30" x="95.410156"/>
      </g>
     </g>
    </g>
    <g id="text_11">
     <!-- proportion of trials -->
     <g transform="translate(21.603625 241.61425)rotate(-90)scale(0.2 -0.2)">
      <defs>
       <path id="DejaVuSans-70" d="M 1159 525 
L 1159 -1331 
L 581 -1331 
L 581 3500 
L 1159 3500 
L 1159 2969 
Q 1341 3281 1617 3432 
Q 1894 3584 2278 3584 
Q 2916 3584 3314 3078 
Q 3713 2572 3713 1747 
Q 3713 922 3314 415 
Q 2916 -91 2278 -91 
Q 1894 -91 1617 61 
Q 1341 213 1159 525 
z
M 3116 1747 
Q 3116 2381 2855 2742 
Q 2594 3103 2138 3103 
Q 1681 3103 1420 2742 
Q 1159 2381 1159 1747 
Q 1159 1113 1420 752 
Q 1681 391 2138 391 
Q 2594 391 2855 752 
Q 3116 1113 3116 1747 
z
" transform="scale(0.015625)"/>
       <path id="DejaVuSans-72" d="M 2631 2963 
Q 2534 3019 2420 3045 
Q 2306 3072 2169 3072 
Q 1681 3072 1420 2755 
Q 1159 2438 1159 1844 
L 1159 0 
L 581 0 
L 581 3500 
L 1159 3500 
L 1159 2956 
Q 1341 3275 1631 3429 
Q 1922 3584 2338 3584 
Q 2397 3584 2469 3576 
Q 2541 3569 2628 3553 
L 2631 2963 
z
" transform="scale(0.015625)"/>
       <path id="DejaVuSans-74" d="M 1172 4494 
L 1172 3500 
L 2356 3500 
L 2356 3053 
L 1172 3053 
L 1172 1153 
Q 1172 725 1289 603 
Q 1406 481 1766 481 
L 2356 481 
L 2356 0 
L 1766 0 
Q 1100 0 847 248 
Q 594 497 594 1153 
L 594 3053 
L 172 3053 
L 172 3500 
L 594 3500 
L 594 4494 
L 1172 4494 
z
" transform="scale(0.015625)"/>
       <path id="DejaVuSans-69" d="M 603 3500 
L 1178 3500 
L 1178 0 
L 603 0 
L 603 3500 
z
M 603 4863 
L 1178 4863 
L 1178 4134 
L 603 4134 
L 603 4863 
z
" transform="scale(0.015625)"/>
       <path id="DejaVuSans-6e" d="M 3513 2113 
L 3513 0 
L 2938 0 
L 2938 2094 
Q 2938 2591 2744 2837 
Q 2550 3084 2163 3084 
Q 1697 3084 1428 2787 
Q 1159 2491 1159 1978 
L 1159 0 
L 581 0 
L 581 3500 
L 1159 3500 
L 1159 2956 
Q 1366 3272 1645 3428 
Q 1925 3584 2291 3584 
Q 2894 3584 3203 3211 
Q 3513 2838 3513 2113 
z
" transform="scale(0.015625)"/>
      </defs>
      <use xlink:href="#DejaVuSans-70"/>
      <use xlink:href="#DejaVuSans-72" x="63.476562"/>
      <use xlink:href="#DejaVuSans-6f" x="102.339844"/>
      <use xlink:href="#DejaVuSans-70" x="163.521484"/>
      <use xlink:href="#DejaVuSans-6f" x="226.998047"/>
      <use xlink:href="#DejaVuSans-72" x="288.179688"/>
      <use xlink:href="#DejaVuSans-74" x="329.292969"/>
      <use xlink:href="#DejaVuSans-69" x="368.501953"/>
      <use xlink:href="#DejaVuSans-6f" x="396.285156"/>
      <use xlink:href="#DejaVuSans-6e" x="457.466797"/>
      <use xlink:href="#DejaVuSans-20" x="520.845703"/>
      <use xlink:href="#DejaVuSans-6f" x="552.632812"/>
      <use xlink:href="#DejaVuSans-66" x="613.814453"/>
      <use xlink:href="#DejaVuSans-20" x="649.019531"/>
      <use xlink:href="#DejaVuSans-74" x="680.806641"/>
      <use xlink:href="#DejaVuSans-72" x="720.015625"/>
      <use xlink:href="#DejaVuSans-69" x="761.128906"/>
      <use xlink:href="#DejaVuSans-61" x="788.912109"/>
      <use xlink:href="#DejaVuSans-6c" x="850.191406"/>
      <use xlink:href="#DejaVuSans-73" x="877.974609"/>
     </g>
    </g>
   </g>
   <g id="line2d_49">
    <path d="M 120.711037 293.76 
L 120.711037 289.927604 
L 130.509802 289.927604 
L 130.509802 286.095208 
L 131.697248 286.095208 
L 131.697248 282.262812 
L 133.768045 282.262812 
L 133.768045 278.430416 
L 135.195646 278.430416 
L 135.195646 274.59802 
L 138.513337 274.59802 
L 138.513337 270.765624 
L 140.203892 270.765624 
L 140.203892 266.933228 
L 140.944313 266.933228 
L 140.944313 263.100832 
L 145.194271 263.100832 
L 145.194271 259.268436 
L 145.322566 259.268436 
L 145.322566 255.43604 
L 147.549645 255.43604 
L 147.549645 251.603644 
L 150.51998 251.603644 
L 150.51998 247.771248 
L 152.118235 247.771248 
L 152.118235 243.938851 
L 158.175066 243.938851 
L 158.175066 240.106455 
L 173.532029 240.106455 
L 173.532029 236.274059 
L 200.621721 236.274059 
L 200.621721 232.441663 
L 201.709808 232.441663 
L 201.709808 228.609267 
L 202.274135 228.609267 
L 202.274135 224.776871 
L 202.982527 224.776871 
L 202.982527 220.944475 
L 203.244262 220.944475 
L 203.331042 209.447287 
L 205.792512 209.447287 
L 205.792512 205.614891 
L 206.172065 205.614891 
L 206.172065 201.782495 
L 206.743008 201.782495 
L 206.743008 197.950099 
L 206.859897 197.950099 
L 206.859897 194.117703 
L 206.97637 194.117703 
L 206.97637 190.285307 
L 208.26815 190.285307 
L 208.26815 186.452911 
L 210.395192 186.452911 
L 210.395192 182.620515 
L 211.00034 182.620515 
L 211.00034 178.788119 
L 211.188237 178.788119 
L 211.222284 171.123327 
L 212.669987 171.123327 
L 212.669987 167.290931 
L 212.99391 167.290931 
L 212.99391 163.458535 
L 213.884162 163.458535 
L 213.946832 155.793743 
L 216.388897 155.793743 
L 216.432442 148.12895 
L 216.504887 148.12895 
L 216.504887 144.296554 
L 217.376018 144.296554 
L 217.376018 140.464158 
L 218.809646 140.464158 
L 218.809646 136.631762 
L 219.024723 136.631762 
L 219.024723 132.799366 
L 235.634031 132.799366 
L 235.634031 128.96697 
L 235.754649 128.96697 
L 235.754649 125.134574 
L 236.524067 125.134574 
L 236.524067 121.302178 
L 236.672677 121.302178 
L 236.672677 117.469782 
L 237.045128 117.469782 
L 237.091387 109.80499 
L 237.558004 109.80499 
L 237.558004 105.972594 
L 238.077902 105.972594 
L 238.077902 102.140198 
L 238.249378 102.140198 
L 238.249378 98.307802 
L 238.523354 98.307802 
L 238.523354 94.475406 
L 239.331755 94.475406 
L 239.374888 86.810614 
L 239.468146 86.810614 
L 239.468146 82.978218 
L 239.965778 82.978218 
L 239.965778 79.145822 
L 241.936942 79.145822 
L 241.936942 75.313426 
L 247.872237 75.313426 
L 247.872237 71.48103 
L 248.762654 71.48103 
L 248.762654 67.648634 
L 250.155194 67.648634 
L 250.155194 63.816238 
L 254.77489 63.816238 
L 254.77489 59.983842 
L 260.144466 59.983842 
L 260.144466 56.151446 
L 260.488703 56.151446 
L 260.488703 52.31905 
L 260.836796 52.31905 
L 260.836796 48.486653 
L 261.015015 48.486653 
L 261.015015 44.654257 
L 261.660287 44.654257 
L 261.660287 40.821861 
L 262.264556 40.821861 
L 262.264556 36.989465 
L 264.23186 36.989465 
L 264.23186 33.157069 
L 265.203732 33.157069 
L 265.203732 29.324673 
L 265.375897 29.324673 
L 265.447096 21.659881 
L 266.947655 21.659881 
L 266.947655 17.827485 
L 268.959251 17.827485 
L 268.959251 13.995089 
L 270.055433 13.995089 
L 270.055433 10.162693 
L 270.273668 10.162693 
L 270.273668 6.330297 
L 270.273668 6.330297 
L 460.8 6.330297 
L 460.8 6.330297 
" clip-path="url(#pf68bcd315e)" style="fill: none; stroke: #000000; stroke-width: 1.5; stroke-linecap: square"/>
   </g>
   <g id="line2d_50">
    <path clip-path="url(#pf68bcd315e)" style="fill: none; stroke: #000000; stroke-width: 1.5; stroke-linecap: square"/>
   </g>
   <g id="line2d_51">
    <path d="M 180.893395 293.76 
L 180.893395 289.927604 
L 182.367263 289.927604 
L 182.367263 286.095208 
L 183.619348 286.095208 
L 183.619348 282.262812 
L 186.536231 282.262812 
L 186.536231 278.430416 
L 187.675755 278.430416 
L 187.675755 274.59802 
L 188.979231 274.59802 
L 189.01284 266.933228 
L 189.940116 266.933228 
L 189.972751 259.268436 
L 190.968584 259.268436 
L 190.968584 255.43604 
L 195.316673 255.43604 
L 195.316673 251.603644 
L 195.947501 251.603644 
L 195.947501 247.771248 
L 196.831829 247.771248 
L 196.831829 243.938851 
L 198.831505 243.938851 
L 198.831505 240.106455 
L 202.9387 240.106455 
L 202.9387 236.274059 
L 216.793072 236.274059 
L 216.793072 232.441663 
L 224.147757 232.441663 
L 224.147757 228.609267 
L 226.232819 228.609267 
L 226.232819 224.776871 
L 227.123071 224.776871 
L 227.123071 220.944475 
L 242.254203 220.944475 
L 242.254203 217.112079 
L 243.258136 217.112079 
L 243.334587 209.447287 
L 243.921094 209.447287 
L 243.983537 197.950099 
L 244.503392 197.950099 
L 244.503392 194.117703 
L 244.851495 194.117703 
L 244.851495 190.285307 
L 244.972763 190.285307 
L 244.972763 186.452911 
L 245.243978 186.452911 
L 245.243978 182.620515 
L 245.809252 182.620515 
L 245.809252 178.788119 
L 246.659348 178.788119 
L 246.659348 174.955723 
L 247.308068 174.955723 
L 247.308068 171.123327 
L 248.131484 171.123327 
L 248.131484 167.290931 
L 248.345052 167.290931 
L 248.345052 163.458535 
L 248.762654 163.458535 
L 248.762654 159.626139 
L 253.063279 159.626139 
L 253.063279 155.793743 
L 255.237782 155.793743 
L 255.237782 151.961347 
L 259.046194 151.961347 
L 259.046194 148.12895 
L 260.451052 148.12895 
L 260.451052 144.296554 
L 264.241924 144.296554 
L 264.241924 140.464158 
L 265.437396 140.464158 
L 265.437396 136.631762 
L 265.733553 136.631762 
L 265.733553 132.799366 
L 268.553206 132.799366 
L 268.553206 128.96697 
L 269.08963 128.96697 
L 269.08963 125.134574 
L 269.417612 125.134574 
L 269.434783 117.469782 
L 270.195495 117.469782 
L 270.195495 113.637386 
L 270.818443 113.637386 
L 270.818443 109.80499 
L 270.977116 109.80499 
L 270.977116 105.972594 
L 272.082586 105.972594 
L 272.082586 102.140198 
L 273.428977 102.140198 
L 273.428977 98.307802 
L 274.140174 98.307802 
L 274.140174 94.475406 
L 274.372199 94.475406 
L 274.372199 90.64301 
L 274.867718 90.64301 
L 274.867718 86.810614 
L 275.441634 86.810614 
L 275.441634 82.978218 
L 275.662259 82.978218 
L 275.662259 79.145822 
L 276.624404 79.145822 
L 276.624404 75.313426 
L 277.384533 75.313426 
L 277.384533 71.48103 
L 277.703694 71.48103 
L 277.703694 67.648634 
L 277.876475 67.648634 
L 277.876475 63.816238 
L 278.772098 63.816238 
L 278.772098 59.983842 
L 278.97353 59.983842 
L 278.97353 56.151446 
L 279.165233 56.151446 
L 279.165233 52.31905 
L 281.634968 52.31905 
L 281.634968 48.486653 
L 285.056597 48.486653 
L 285.056597 44.654257 
L 286.45198 44.654257 
L 286.45198 40.821861 
L 286.685603 40.821861 
L 286.685603 36.989465 
L 287.037939 36.989465 
L 287.037939 33.157069 
L 287.593886 33.157069 
L 287.593886 29.324673 
L 287.982032 29.324673 
L 287.982032 25.492277 
L 289.285074 25.492277 
L 289.285074 21.659881 
L 289.72144 21.659881 
L 289.72144 17.827485 
L 290.074594 17.827485 
L 290.074594 13.995089 
L 291.080753 13.995089 
L 291.080753 10.162693 
L 293.05458 10.162693 
L 293.05458 6.330297 
L 293.05458 6.330297 
L 460.8 6.330297 
L 460.8 6.330297 
" clip-path="url(#pf68bcd315e)" style="fill: none; stroke: #00bfbf; stroke-width: 1.5; stroke-linecap: square"/>
   </g>
   <g id="line2d_52">
    <path clip-path="url(#pf68bcd315e)" style="fill: none; stroke: #00bfbf; stroke-width: 1.5; stroke-linecap: square"/>
   </g>
   <g id="line2d_53">
    <path d="M 232.196572 293.76 
L 232.196572 289.927604 
L 232.588035 289.927604 
L 232.588035 286.095208 
L 235.617915 286.095208 
L 235.690375 278.430416 
L 236.524067 278.430416 
L 236.524067 274.59802 
L 236.921449 274.59802 
L 236.921449 270.765624 
L 237.206748 270.765624 
L 237.206748 266.933228 
L 237.732225 266.933228 
L 237.732225 263.100832 
L 237.935566 263.100832 
L 237.935566 259.268436 
L 238.070426 259.268436 
L 238.070426 255.43604 
L 238.182386 255.43604 
L 238.182386 251.603644 
L 238.589651 251.603644 
L 238.589651 247.771248 
L 240.698289 247.771248 
L 240.698289 243.938851 
L 241.109605 243.938851 
L 241.109605 240.106455 
L 241.231996 240.106455 
L 241.231996 236.274059 
L 248.339594 236.274059 
L 248.339594 232.441663 
L 249.244086 232.441663 
L 249.254704 224.776871 
L 249.497976 224.776871 
L 249.497976 220.944475 
L 249.864729 220.944475 
L 249.864729 217.112079 
L 250.402124 217.112079 
L 250.402124 213.279683 
L 250.647201 213.279683 
L 250.647201 209.447287 
L 251.066686 209.447287 
L 251.066686 205.614891 
L 251.806476 205.614891 
L 251.806476 201.782495 
L 252.124026 201.782495 
L 252.225962 194.117703 
L 252.462583 194.117703 
L 252.462583 190.285307 
L 252.611402 190.285307 
L 252.611402 186.452911 
L 253.527621 186.452911 
L 253.527621 182.620515 
L 254.405233 182.620515 
L 254.405233 178.788119 
L 255.03385 178.788119 
L 255.03385 174.955723 
L 266.534403 174.955723 
L 266.534403 171.123327 
L 267.589693 171.123327 
L 267.589693 167.290931 
L 272.982898 167.290931 
L 272.982898 163.458535 
L 274.585486 163.458535 
L 274.585486 159.626139 
L 274.811952 159.626139 
L 274.811952 155.793743 
L 275.735471 155.793743 
L 275.735471 151.961347 
L 276.182963 151.961347 
L 276.264303 144.296554 
L 276.550861 144.296554 
L 276.550861 140.464158 
L 277.1527 140.464158 
L 277.23617 128.96697 
L 277.265446 128.96697 
L 277.265446 125.134574 
L 278.625603 125.134574 
L 278.625603 121.302178 
L 278.795735 121.302178 
L 278.795735 117.469782 
L 279.209803 117.469782 
L 279.209803 113.637386 
L 279.547394 113.637386 
L 279.547394 109.80499 
L 280.070057 109.80499 
L 280.070057 105.972594 
L 280.216397 105.972594 
L 280.24723 98.307802 
L 281.326338 98.307802 
L 281.415666 90.64301 
L 281.695952 90.64301 
L 281.695952 86.810614 
L 282.382469 86.810614 
L 282.382469 82.978218 
L 282.969901 82.978218 
L 283.077465 75.313426 
L 283.660037 75.313426 
L 283.660037 71.48103 
L 283.938297 71.48103 
L 283.938297 67.648634 
L 284.290536 67.648634 
L 284.290536 63.816238 
L 284.882362 63.816238 
L 284.882362 59.983842 
L 289.920654 59.983842 
L 289.920654 56.151446 
L 292.035359 56.151446 
L 292.035359 52.31905 
L 292.333272 52.31905 
L 292.333272 48.486653 
L 292.795398 48.486653 
L 292.795398 44.654257 
L 293.670528 44.654257 
L 293.670528 40.821861 
L 294.851553 40.821861 
L 294.851553 36.989465 
L 295.046697 36.989465 
L 295.046697 33.157069 
L 297.864752 33.157069 
L 297.864752 29.324673 
L 298.076079 29.324673 
L 298.076079 25.492277 
L 299.26565 25.492277 
L 299.26565 21.659881 
L 299.541035 21.659881 
L 299.541035 17.827485 
L 301.951967 17.827485 
L 301.951967 13.995089 
L 302.540595 13.995089 
L 302.540595 10.162693 
L 310.946369 10.162693 
L 310.946369 6.330297 
L 310.946369 6.330297 
L 460.8 6.330297 
L 460.8 6.330297 
" clip-path="url(#pf68bcd315e)" style="fill: none; stroke: #bf00bf; stroke-width: 1.5; stroke-linecap: square"/>
   </g>
   <g id="line2d_54">
    <path clip-path="url(#pf68bcd315e)" style="fill: none; stroke: #bf00bf; stroke-width: 1.5; stroke-linecap: square"/>
   </g>
   <g id="line2d_55">
    <path d="M 254.631131 293.76 
L 254.631131 289.927604 
L 255.532553 289.927604 
L 255.532553 286.095208 
L 255.75081 286.095208 
L 255.75081 282.262812 
L 255.894065 282.262812 
L 255.902727 274.59802 
L 256.10132 274.59802 
L 256.10132 270.765624 
L 256.579859 270.765624 
L 256.579859 266.933228 
L 257.639811 266.933228 
L 257.713636 259.268436 
L 258.051909 259.268436 
L 258.088379 251.603644 
L 259.097282 251.603644 
L 259.097282 247.771248 
L 259.630867 247.771248 
L 259.630867 243.938851 
L 259.842651 243.938851 
L 259.842651 240.106455 
L 261.118529 240.106455 
L 261.118529 236.274059 
L 271.740464 236.274059 
L 271.740464 232.441663 
L 272.3375 232.441663 
L 272.3375 228.609267 
L 274.418898 228.609267 
L 274.504748 220.944475 
L 275.152335 220.944475 
L 275.152335 217.112079 
L 275.85791 217.112079 
L 275.85791 213.279683 
L 275.972867 213.279683 
L 276.043049 205.614891 
L 277.492012 205.614891 
L 277.601367 194.117703 
L 277.971337 194.117703 
L 277.971337 190.285307 
L 278.278293 190.285307 
L 278.313191 182.620515 
L 278.601843 182.620515 
L 278.614805 174.955723 
L 278.815061 174.955723 
L 278.815061 171.123327 
L 279.071653 171.123327 
L 279.071653 167.290931 
L 279.530597 167.290931 
L 279.530597 163.458535 
L 279.925134 163.458535 
L 279.925134 159.626139 
L 280.164944 159.626139 
L 280.164944 155.793743 
L 280.392779 155.793743 
L 280.392779 151.961347 
L 280.509161 151.961347 
L 280.509161 148.12895 
L 280.722468 148.12895 
L 280.722468 144.296554 
L 281.288549 144.296554 
L 281.288549 140.464158 
L 281.64678 140.464158 
L 281.64678 136.631762 
L 282.228145 136.631762 
L 282.228145 132.799366 
L 282.499654 132.799366 
L 282.499654 128.96697 
L 282.673692 128.96697 
L 282.673692 125.134574 
L 283.515365 125.134574 
L 283.515365 121.302178 
L 284.090244 121.302178 
L 284.090244 117.469782 
L 284.669534 117.469782 
L 284.669534 113.637386 
L 285.919273 113.637386 
L 286.003783 105.972594 
L 286.53343 105.972594 
L 286.53343 102.140198 
L 286.987837 102.140198 
L 287.074631 94.475406 
L 288.766915 94.475406 
L 288.766915 90.64301 
L 289.500891 90.64301 
L 289.500891 86.810614 
L 291.540471 86.810614 
L 291.540471 82.978218 
L 292.240911 82.978218 
L 292.313401 75.313426 
L 292.472033 75.313426 
L 292.472033 71.48103 
L 299.494349 71.48103 
L 299.494349 67.648634 
L 303.339343 67.648634 
L 303.339343 63.816238 
L 304.49856 63.816238 
L 304.49856 59.983842 
L 304.767263 59.983842 
L 304.767263 56.151446 
L 315.207078 56.151446 
L 315.207078 52.31905 
L 319.445768 52.31905 
L 319.497681 44.654257 
L 319.70635 44.654257 
L 319.70635 40.821861 
L 320.011709 40.821861 
L 320.011709 36.989465 
L 320.130635 36.989465 
L 320.130635 33.157069 
L 321.284385 33.157069 
L 321.284385 29.324673 
L 321.736667 29.324673 
L 321.736667 25.492277 
L 326.838984 25.492277 
L 326.838984 21.659881 
L 327.988804 21.659881 
L 327.988804 17.827485 
L 331.304063 17.827485 
L 331.304063 13.995089 
L 342.623403 13.995089 
L 342.623403 10.162693 
L 344.534368 10.162693 
L 344.534368 6.330297 
L 344.534368 6.330297 
L 460.8 6.330297 
L 460.8 6.330297 
" clip-path="url(#pf68bcd315e)" style="fill: none; stroke: #ff0000; stroke-width: 3; stroke-linecap: square"/>
   </g>
   <g id="line2d_56">
    <path clip-path="url(#pf68bcd315e)" style="fill: none; stroke: #ff0000; stroke-width: 3; stroke-linecap: square"/>
   </g>
   <g id="line2d_57">
    <path d="M 344.534368 293.76 
L 344.534368 3.456 
" clip-path="url(#pf68bcd315e)" style="fill: none; stroke: #000000; stroke-width: 1.5; stroke-linecap: square"/>
   </g>
   <g id="patch_3">
    <path d="M 62.208 293.76 
L 62.208 3.456 
" style="fill: none; stroke: #000000; stroke-width: 0.8; stroke-linejoin: miter; stroke-linecap: square"/>
   </g>
   <g id="patch_4">
    <path d="M 460.8 293.76 
L 460.8 3.456 
" style="fill: none; stroke: #000000; stroke-width: 0.8; stroke-linejoin: miter; stroke-linecap: square"/>
   </g>
   <g id="patch_5">
    <path d="M 62.208 293.76 
L 460.8 293.76 
" style="fill: none; stroke: #000000; stroke-width: 0.8; stroke-linejoin: miter; stroke-linecap: square"/>
   </g>
   <g id="patch_6">
    <path d="M 62.208 3.456 
L 460.8 3.456 
" style="fill: none; stroke: #000000; stroke-width: 0.8; stroke-linejoin: miter; stroke-linecap: square"/>
   </g>
   <g id="text_12">
    <!-- {f10-f14}, 20-D -->
    <g transform="translate(182.2915 24.458955)scale(0.2 -0.2)">
     <defs>
      <path id="DejaVuSans-7b" d="M 3272 -594 
L 3272 -1044 
L 3078 -1044 
Q 2300 -1044 2036 -812 
Q 1772 -581 1772 109 
L 1772 856 
Q 1772 1328 1603 1509 
Q 1434 1691 991 1691 
L 800 1691 
L 800 2138 
L 991 2138 
Q 1438 2138 1605 2317 
Q 1772 2497 1772 2963 
L 1772 3713 
Q 1772 4403 2036 4633 
Q 2300 4863 3078 4863 
L 3272 4863 
L 3272 4416 
L 3059 4416 
Q 2619 4416 2484 4278 
Q 2350 4141 2350 3700 
L 2350 2925 
Q 2350 2434 2208 2212 
Q 2066 1991 1722 1913 
Q 2069 1828 2209 1606 
Q 2350 1384 2350 897 
L 2350 122 
Q 2350 -319 2484 -456 
Q 2619 -594 3059 -594 
L 3272 -594 
z
" transform="scale(0.015625)"/>
      <path id="DejaVuSans-2d" d="M 313 2009 
L 1997 2009 
L 1997 1497 
L 313 1497 
L 313 2009 
z
" transform="scale(0.015625)"/>
      <path id="DejaVuSans-7d" d="M 800 -594 
L 1019 -594 
Q 1456 -594 1589 -459 
Q 1722 -325 1722 122 
L 1722 897 
Q 1722 1384 1862 1606 
Q 2003 1828 2350 1913 
Q 2003 1991 1862 2212 
Q 1722 2434 1722 2925 
L 1722 3700 
Q 1722 4144 1589 4280 
Q 1456 4416 1019 4416 
L 800 4416 
L 800 4863 
L 997 4863 
Q 1775 4863 2036 4633 
Q 2297 4403 2297 3713 
L 2297 2963 
Q 2297 2497 2465 2317 
Q 2634 2138 3078 2138 
L 3272 2138 
L 3272 1691 
L 3078 1691 
Q 2634 1691 2465 1509 
Q 2297 1328 2297 856 
L 2297 109 
Q 2297 -581 2036 -812 
Q 1775 -1044 997 -1044 
L 800 -1044 
L 800 -594 
z
" transform="scale(0.015625)"/>
      <path id="DejaVuSans-2c" d="M 750 794 
L 1409 794 
L 1409 256 
L 897 -744 
L 494 -744 
L 750 256 
L 750 794 
z
" transform="scale(0.015625)"/>
     </defs>
     <use xlink:href="#DejaVuSans-7b"/>
     <use xlink:href="#DejaVuSans-66" x="63.623047"/>
     <use xlink:href="#DejaVuSans-31" x="98.828125"/>
     <use xlink:href="#DejaVuSans-30" x="162.451172"/>
     <use xlink:href="#DejaVuSans-2d" x="226.074219"/>
     <use xlink:href="#DejaVuSans-66" x="262.158203"/>
     <use xlink:href="#DejaVuSans-31" x="297.363281"/>
     <use xlink:href="#DejaVuSans-34" x="360.986328"/>
     <use xlink:href="#DejaVuSans-7d" x="424.609375"/>
     <use xlink:href="#DejaVuSans-2c" x="488.232422"/>
     <use xlink:href="#DejaVuSans-20" x="520.019531"/>
     <use xlink:href="#DejaVuSans-32" x="551.806641"/>
     <use xlink:href="#DejaVuSans-30" x="615.429688"/>
     <use xlink:href="#DejaVuSans-2d" x="679.052734"/>
     <use xlink:href="#DejaVuSans-44" x="715.136719"/>
    </g>
   </g>
   <g id="text_13">
    <!-- absolute targets -->
    <g transform="translate(62.208 609.932673)scale(0.14 -0.14)">
     <defs>
      <path id="DejaVuSans-62" d="M 3116 1747 
Q 3116 2381 2855 2742 
Q 2594 3103 2138 3103 
Q 1681 3103 1420 2742 
Q 1159 2381 1159 1747 
Q 1159 1113 1420 752 
Q 1681 391 2138 391 
Q 2594 391 2855 752 
Q 3116 1113 3116 1747 
z
M 1159 2969 
Q 1341 3281 1617 3432 
Q 1894 3584 2278 3584 
Q 2916 3584 3314 3078 
Q 3713 2572 3713 1747 
Q 3713 922 3314 415 
Q 2916 -91 2278 -91 
Q 1894 -91 1617 61 
Q 1341 213 1159 525 
L 1159 0 
L 581 0 
L 581 4863 
L 1159 4863 
L 1159 2969 
z
" transform="scale(0.015625)"/>
      <path id="DejaVuSans-75" d="M 544 1381 
L 544 3500 
L 1119 3500 
L 1119 1403 
Q 1119 906 1312 657 
Q 1506 409 1894 409 
Q 2359 409 2629 706 
Q 2900 1003 2900 1516 
L 2900 3500 
L 3475 3500 
L 3475 0 
L 2900 0 
L 2900 538 
Q 2691 219 2414 64 
Q 2138 -91 1772 -91 
Q 1169 -91 856 284 
Q 544 659 544 1381 
z
M 1991 3584 
L 1991 3584 
z
" transform="scale(0.015625)"/>
      <path id="DejaVuSans-65" d="M 3597 1894 
L 3597 1613 
L 953 1613 
Q 991 1019 1311 708 
Q 1631 397 2203 397 
Q 2534 397 2845 478 
Q 3156 559 3463 722 
L 3463 178 
Q 3153 47 2828 -22 
Q 2503 -91 2169 -91 
Q 1331 -91 842 396 
Q 353 884 353 1716 
Q 353 2575 817 3079 
Q 1281 3584 2069 3584 
Q 2775 3584 3186 3129 
Q 3597 2675 3597 1894 
z
M 3022 2063 
Q 3016 2534 2758 2815 
Q 2500 3097 2075 3097 
Q 1594 3097 1305 2825 
Q 1016 2553 972 2059 
L 3022 2063 
z
" transform="scale(0.015625)"/>
     </defs>
     <use xlink:href="#DejaVuSans-61"/>
     <use xlink:href="#DejaVuSans-62" x="61.279297"/>
     <use xlink:href="#DejaVuSans-73" x="124.755859"/>
     <use xlink:href="#DejaVuSans-6f" x="176.855469"/>
     <use xlink:href="#DejaVuSans-6c" x="238.037109"/>
     <use xlink:href="#DejaVuSans-75" x="265.820312"/>
     <use xlink:href="#DejaVuSans-74" x="329.199219"/>
     <use xlink:href="#DejaVuSans-65" x="368.408203"/>
     <use xlink:href="#DejaVuSans-20" x="429.931641"/>
     <use xlink:href="#DejaVuSans-74" x="461.71875"/>
     <use xlink:href="#DejaVuSans-61" x="500.927734"/>
     <use xlink:href="#DejaVuSans-72" x="562.207031"/>
     <use xlink:href="#DejaVuSans-67" x="601.570312"/>
     <use xlink:href="#DejaVuSans-65" x="665.046875"/>
     <use xlink:href="#DejaVuSans-74" x="726.570312"/>
     <use xlink:href="#DejaVuSans-73" x="765.779297"/>
    </g>
   </g>
   <g id="text_14">
    <!-- v2.6.3 -->
    <g style="fill: #808080" transform="translate(245.82275 288.777272)scale(0.1 -0.1)">
     <defs>
      <path id="DejaVuSans-33" d="M 2597 2516 
Q 3050 2419 3304 2112 
Q 3559 1806 3559 1356 
Q 3559 666 3084 287 
Q 2609 -91 1734 -91 
Q 1441 -91 1130 -33 
Q 819 25 488 141 
L 488 750 
Q 750 597 1062 519 
Q 1375 441 1716 441 
Q 2309 441 2620 675 
Q 2931 909 2931 1356 
Q 2931 1769 2642 2001 
Q 2353 2234 1838 2234 
L 1294 2234 
L 1294 2753 
L 1863 2753 
Q 2328 2753 2575 2939 
Q 2822 3125 2822 3475 
Q 2822 3834 2567 4026 
Q 2313 4219 1838 4219 
Q 1578 4219 1281 4162 
Q 984 4106 628 3988 
L 628 4550 
Q 988 4650 1302 4700 
Q 1616 4750 1894 4750 
Q 2613 4750 3031 4423 
Q 3450 4097 3450 3541 
Q 3450 3153 3228 2886 
Q 3006 2619 2597 2516 
z
" transform="scale(0.015625)"/>
     </defs>
     <use xlink:href="#DejaVuSans-76"/>
     <use xlink:href="#DejaVuSans-32" x="59.179688"/>
     <use xlink:href="#DejaVuSans-2e" x="122.802734"/>
     <use xlink:href="#DejaVuSans-36" x="154.589844"/>
     <use xlink:href="#DejaVuSans-2e" x="218.212891"/>
     <use xlink:href="#DejaVuSans-33" x="250"/>
    </g>
   </g>
   <g id="legend_1">
    <g id="patch_7">
     <path d="M 76.208 136.881 
L 205.429875 136.881 
Q 209.429875 136.881 209.429875 132.881 
L 209.429875 17.456 
Q 209.429875 13.456 205.429875 13.456 
L 76.208 13.456 
Q 72.208 13.456 72.208 17.456 
L 72.208 132.881 
Q 72.208 136.881 76.208 136.881 
z
" style="fill: #ffffff; opacity: 0.2; stroke: #cccccc; stroke-linejoin: miter"/>
    </g>
    <g id="line2d_58">
     <path d="M 80.208 29.652875 
L 80.208 29.652875 
L 100.208 29.652875 
L 100.208 29.652875 
L 120.208 29.652875 
" style="fill: none; stroke: #000000; stroke-width: 1.5; stroke-linecap: square"/>
    </g>
    <g id="text_15">
     <!-- 1: 5/5 -->
     <g transform="translate(136.208 36.652875)scale(0.2 -0.2)">
      <defs>
       <path id="DejaVuSans-3a" d="M 750 794 
L 1409 794 
L 1409 0 
L 750 0 
L 750 794 
z
M 750 3309 
L 1409 3309 
L 1409 2516 
L 750 2516 
L 750 3309 
z
" transform="scale(0.015625)"/>
       <path id="DejaVuSans-35" d="M 691 4666 
L 3169 4666 
L 3169 4134 
L 1269 4134 
L 1269 2991 
Q 1406 3038 1543 3061 
Q 1681 3084 1819 3084 
Q 2600 3084 3056 2656 
Q 3513 2228 3513 1497 
Q 3513 744 3044 326 
Q 2575 -91 1722 -91 
Q 1428 -91 1123 -41 
Q 819 9 494 109 
L 494 744 
Q 775 591 1075 516 
Q 1375 441 1709 441 
Q 2250 441 2565 725 
Q 2881 1009 2881 1497 
Q 2881 1984 2565 2268 
Q 2250 2553 1709 2553 
Q 1456 2553 1204 2497 
Q 953 2441 691 2322 
L 691 4666 
z
" transform="scale(0.015625)"/>
      </defs>
      <use xlink:href="#DejaVuSans-31"/>
      <use xlink:href="#DejaVuSans-3a" x="63.623047"/>
      <use xlink:href="#DejaVuSans-20" x="97.314453"/>
      <use xlink:href="#DejaVuSans-35" x="129.101562"/>
      <use xlink:href="#DejaVuSans-2f" x="192.724609"/>
      <use xlink:href="#DejaVuSans-35" x="226.416016"/>
     </g>
    </g>
    <g id="line2d_59">
     <path d="M 80.208 59.009125 
L 80.208 59.009125 
L 100.208 59.009125 
L 100.208 59.009125 
L 120.208 59.009125 
" style="fill: none; stroke: #00bfbf; stroke-width: 1.5; stroke-linecap: square"/>
    </g>
    <g id="text_16">
     <!-- -1: 5/5 -->
     <g transform="translate(136.208 66.009125)scale(0.2 -0.2)">
      <use xlink:href="#DejaVuSans-2d"/>
      <use xlink:href="#DejaVuSans-31" x="36.083984"/>
      <use xlink:href="#DejaVuSans-3a" x="99.707031"/>
      <use xlink:href="#DejaVuSans-20" x="133.398438"/>
      <use xlink:href="#DejaVuSans-35" x="165.185547"/>
      <use xlink:href="#DejaVuSans-2f" x="228.808594"/>
      <use xlink:href="#DejaVuSans-35" x="262.5"/>
     </g>
    </g>
    <g id="line2d_60">
     <path d="M 80.208 88.365375 
L 80.208 88.365375 
L 100.208 88.365375 
L 100.208 88.365375 
L 120.208 88.365375 
" style="fill: none; stroke: #bf00bf; stroke-width: 1.5; stroke-linecap: square"/>
    </g>
    <g id="text_17">
     <!-- -4: 5/5 -->
     <g transform="translate(136.208 95.365375)scale(0.2 -0.2)">
      <use xlink:href="#DejaVuSans-2d"/>
      <use xlink:href="#DejaVuSans-34" x="36.083984"/>
      <use xlink:href="#DejaVuSans-3a" x="99.707031"/>
      <use xlink:href="#DejaVuSans-20" x="133.398438"/>
      <use xlink:href="#DejaVuSans-35" x="165.185547"/>
      <use xlink:href="#DejaVuSans-2f" x="228.808594"/>
      <use xlink:href="#DejaVuSans-35" x="262.5"/>
     </g>
    </g>
    <g id="line2d_61">
     <path d="M 80.208 117.721625 
L 80.208 117.721625 
L 100.208 117.721625 
L 100.208 117.721625 
L 120.208 117.721625 
" style="fill: none; stroke: #ff0000; stroke-width: 3; stroke-linecap: square"/>
    </g>
    <g id="text_18">
     <!-- -8: 5/5 -->
     <g transform="translate(136.208 124.721625)scale(0.2 -0.2)">
      <use xlink:href="#DejaVuSans-2d"/>
      <use xlink:href="#DejaVuSans-38" x="36.083984"/>
      <use xlink:href="#DejaVuSans-3a" x="99.707031"/>
      <use xlink:href="#DejaVuSans-20" x="133.398438"/>
      <use xlink:href="#DejaVuSans-35" x="165.185547"/>
      <use xlink:href="#DejaVuSans-2f" x="228.808594"/>
      <use xlink:href="#DejaVuSans-35" x="262.5"/>
     </g>
    </g>
   </g>
  </g>
 </g>
 <defs>
  <clipPath id="pf68bcd315e">
   <rect x="62.208" y="3.456" width="398.592" height="290.304"/>
  </clipPath>
 </defs>
</svg>
