<?xml version="1.0" encoding="utf-8" standalone="no"?>
<!DOCTYPE svg PUBLIC "-//W3C//DTD SVG 1.1//EN"
  "http://www.w3.org/Graphics/SVG/1.1/DTD/svg11.dtd">
<svg xmlns:xlink="http://www.w3.org/1999/xlink" width="460.8pt" height="345.6pt" viewBox="0 0 460.8 345.6" xmlns="http://www.w3.org/2000/svg" version="1.1">
 <metadata>
  <rdf:RDF xmlns:dc="http://purl.org/dc/elements/1.1/" xmlns:cc="http://creativecommons.org/ns#" xmlns:rdf="http://www.w3.org/1999/02/22-rdf-syntax-ns#">
   <cc:Work>
    <dc:type rdf:resource="http://purl.org/dc/dcmitype/StillImage"/>
    <dc:date>2023-04-03T10:10:49.494717</dc:date>
    <dc:format>image/svg+xml</dc:format>
    <dc:creator>
     <cc:Agent>
      <dc:title>Matplotlib v3.5.2, https://matplotlib.org/</dc:title>
     </cc:Agent>
    </dc:creator>
   </cc:Work>
  </rdf:RDF>
 </metadata>
 <defs>
  <style type="text/css">*{stroke-linejoin: round; stroke-linecap: butt}</style>
 </defs>
 <g id="figure_1">
  <g id="patch_1">
   <path d="M 0 345.6 
L 460.8 345.6 
L 460.8 0 
L 0 0 
z
" style="fill: #ffffff"/>
  </g>
  <g id="axes_1">
   <g id="patch_2">
    <path d="M 34.16 291.28 
L 453.192 291.28 
L 453.192 3 
L 34.16 3 
z
" style="fill: #ffffff"/>
   </g>
   <g id="matplotlib.axis_1">
    <g id="xtick_1">
     <g id="line2d_1">
      <path d="M 86.75815 291.28 
L 86.75815 3 
" clip-path="url(#pfe9ba29d2a)" style="fill: none; stroke: #b0b0b0; stroke-width: 0.8; stroke-linecap: square"/>
     </g>
     <g id="line2d_2">
      <defs>
       <path id="m0d24a10632" d="M 0 0 
L 0 3.5 
" style="stroke: #000000; stroke-width: 0.8"/>
      </defs>
      <g>
       <use xlink:href="#m0d24a10632" x="86.75815" y="291.28" style="stroke: #000000; stroke-width: 0.8"/>
      </g>
     </g>
     <g id="text_1">
      <!-- -1 -->
      <g transform="translate(76.787838 313.476875)scale(0.2 -0.2)">
       <defs>
        <path id="DejaVuSans-2d" d="M 313 2009 
L 1997 2009 
L 1997 1497 
L 313 1497 
L 313 2009 
z
" transform="scale(0.015625)"/>
        <path id="DejaVuSans-31" d="M 794 531 
L 1825 531 
L 1825 4091 
L 703 3866 
L 703 4441 
L 1819 4666 
L 2450 4666 
L 2450 531 
L 3481 531 
L 3481 0 
L 794 0 
L 794 531 
z
" transform="scale(0.015625)"/>
       </defs>
       <use xlink:href="#DejaVuSans-2d"/>
       <use xlink:href="#DejaVuSans-31" x="36.083984"/>
      </g>
     </g>
    </g>
    <g id="xtick_2">
     <g id="line2d_3">
      <path d="M 243.676 291.28 
L 243.676 3 
" clip-path="url(#pfe9ba29d2a)" style="fill: none; stroke: #b0b0b0; stroke-width: 0.8; stroke-linecap: square"/>
     </g>
     <g id="line2d_4">
      <g>
       <use xlink:href="#m0d24a10632" x="243.676" y="291.28" style="stroke: #000000; stroke-width: 0.8"/>
      </g>
     </g>
     <g id="text_2">
      <!-- 0 -->
      <g transform="translate(237.3135 313.476875)scale(0.2 -0.2)">
       <defs>
        <path id="DejaVuSans-30" d="M 2034 4250 
Q 1547 4250 1301 3770 
Q 1056 3291 1056 2328 
Q 1056 1369 1301 889 
Q 1547 409 2034 409 
Q 2525 409 2770 889 
Q 3016 1369 3016 2328 
Q 3016 3291 2770 3770 
Q 2525 4250 2034 4250 
z
M 2034 4750 
Q 2819 4750 3233 4129 
Q 3647 3509 3647 2328 
Q 3647 1150 3233 529 
Q 2819 -91 2034 -91 
Q 1250 -91 836 529 
Q 422 1150 422 2328 
Q 422 3509 836 4129 
Q 1250 4750 2034 4750 
z
" transform="scale(0.015625)"/>
       </defs>
       <use xlink:href="#DejaVuSans-30"/>
      </g>
     </g>
    </g>
    <g id="xtick_3">
     <g id="line2d_5">
      <path d="M 400.59385 291.28 
L 400.59385 3 
" clip-path="url(#pfe9ba29d2a)" style="fill: none; stroke: #b0b0b0; stroke-width: 0.8; stroke-linecap: square"/>
     </g>
     <g id="line2d_6">
      <g>
       <use xlink:href="#m0d24a10632" x="400.59385" y="291.28" style="stroke: #000000; stroke-width: 0.8"/>
      </g>
     </g>
     <g id="text_3">
      <!-- 1 -->
      <g transform="translate(394.23135 313.476875)scale(0.2 -0.2)">
       <use xlink:href="#DejaVuSans-31"/>
      </g>
     </g>
    </g>
    <g id="xtick_4">
     <g id="line2d_7">
      <defs>
       <path id="m54f94377fe" d="M 0 0 
L 0 2 
" style="stroke: #000000; stroke-width: 0.6"/>
      </defs>
      <g>
       <use xlink:href="#m54f94377fe" x="39.521171" y="291.28" style="stroke: #000000; stroke-width: 0.6"/>
      </g>
     </g>
    </g>
    <g id="xtick_5">
     <g id="line2d_8">
      <g>
       <use xlink:href="#m54f94377fe" x="51.946122" y="291.28" style="stroke: #000000; stroke-width: 0.6"/>
      </g>
     </g>
    </g>
    <g id="xtick_6">
     <g id="line2d_9">
      <g>
       <use xlink:href="#m54f94377fe" x="62.451268" y="291.28" style="stroke: #000000; stroke-width: 0.6"/>
      </g>
     </g>
    </g>
    <g id="xtick_7">
     <g id="line2d_10">
      <g>
       <use xlink:href="#m54f94377fe" x="71.55124" y="291.28" style="stroke: #000000; stroke-width: 0.6"/>
      </g>
     </g>
    </g>
    <g id="xtick_8">
     <g id="line2d_11">
      <g>
       <use xlink:href="#m54f94377fe" x="79.577983" y="291.28" style="stroke: #000000; stroke-width: 0.6"/>
      </g>
     </g>
    </g>
    <g id="xtick_9">
     <g id="line2d_12">
      <g>
       <use xlink:href="#m54f94377fe" x="133.99513" y="291.28" style="stroke: #000000; stroke-width: 0.6"/>
      </g>
     </g>
    </g>
    <g id="xtick_10">
     <g id="line2d_13">
      <g>
       <use xlink:href="#m54f94377fe" x="161.626992" y="291.28" style="stroke: #000000; stroke-width: 0.6"/>
      </g>
     </g>
    </g>
    <g id="xtick_11">
     <g id="line2d_14">
      <g>
       <use xlink:href="#m54f94377fe" x="181.23211" y="291.28" style="stroke: #000000; stroke-width: 0.6"/>
      </g>
     </g>
    </g>
    <g id="xtick_12">
     <g id="line2d_15">
      <g>
       <use xlink:href="#m54f94377fe" x="196.43902" y="291.28" style="stroke: #000000; stroke-width: 0.6"/>
      </g>
     </g>
    </g>
    <g id="xtick_13">
     <g id="line2d_16">
      <g>
       <use xlink:href="#m54f94377fe" x="208.863971" y="291.28" style="stroke: #000000; stroke-width: 0.6"/>
      </g>
     </g>
    </g>
    <g id="xtick_14">
     <g id="line2d_17">
      <g>
       <use xlink:href="#m54f94377fe" x="219.369118" y="291.28" style="stroke: #000000; stroke-width: 0.6"/>
      </g>
     </g>
    </g>
    <g id="xtick_15">
     <g id="line2d_18">
      <g>
       <use xlink:href="#m54f94377fe" x="228.469089" y="291.28" style="stroke: #000000; stroke-width: 0.6"/>
      </g>
     </g>
    </g>
    <g id="xtick_16">
     <g id="line2d_19">
      <g>
       <use xlink:href="#m54f94377fe" x="236.495833" y="291.28" style="stroke: #000000; stroke-width: 0.6"/>
      </g>
     </g>
    </g>
    <g id="xtick_17">
     <g id="line2d_20">
      <g>
       <use xlink:href="#m54f94377fe" x="290.91298" y="291.28" style="stroke: #000000; stroke-width: 0.6"/>
      </g>
     </g>
    </g>
    <g id="xtick_18">
     <g id="line2d_21">
      <g>
       <use xlink:href="#m54f94377fe" x="318.544841" y="291.28" style="stroke: #000000; stroke-width: 0.6"/>
      </g>
     </g>
    </g>
    <g id="xtick_19">
     <g id="line2d_22">
      <g>
       <use xlink:href="#m54f94377fe" x="338.149959" y="291.28" style="stroke: #000000; stroke-width: 0.6"/>
      </g>
     </g>
    </g>
    <g id="xtick_20">
     <g id="line2d_23">
      <g>
       <use xlink:href="#m54f94377fe" x="353.35687" y="291.28" style="stroke: #000000; stroke-width: 0.6"/>
      </g>
     </g>
    </g>
    <g id="xtick_21">
     <g id="line2d_24">
      <g>
       <use xlink:href="#m54f94377fe" x="365.781821" y="291.28" style="stroke: #000000; stroke-width: 0.6"/>
      </g>
     </g>
    </g>
    <g id="xtick_22">
     <g id="line2d_25">
      <g>
       <use xlink:href="#m54f94377fe" x="376.286967" y="291.28" style="stroke: #000000; stroke-width: 0.6"/>
      </g>
     </g>
    </g>
    <g id="xtick_23">
     <g id="line2d_26">
      <g>
       <use xlink:href="#m54f94377fe" x="385.386939" y="291.28" style="stroke: #000000; stroke-width: 0.6"/>
      </g>
     </g>
    </g>
    <g id="xtick_24">
     <g id="line2d_27">
      <g>
       <use xlink:href="#m54f94377fe" x="393.413683" y="291.28" style="stroke: #000000; stroke-width: 0.6"/>
      </g>
     </g>
    </g>
    <g id="xtick_25">
     <g id="line2d_28">
      <g>
       <use xlink:href="#m54f94377fe" x="447.830829" y="291.28" style="stroke: #000000; stroke-width: 0.6"/>
      </g>
     </g>
    </g>
    <g id="text_4">
     <!-- log10 of FEvals ratio -->
     <g transform="translate(141.371312 336.833125)scale(0.2 -0.2)">
      <defs>
       <path id="DejaVuSans-6c" d="M 603 4863 
L 1178 4863 
L 1178 0 
L 603 0 
L 603 4863 
z
" transform="scale(0.015625)"/>
       <path id="DejaVuSans-6f" d="M 1959 3097 
Q 1497 3097 1228 2736 
Q 959 2375 959 1747 
Q 959 1119 1226 758 
Q 1494 397 1959 397 
Q 2419 397 2687 759 
Q 2956 1122 2956 1747 
Q 2956 2369 2687 2733 
Q 2419 3097 1959 3097 
z
M 1959 3584 
Q 2709 3584 3137 3096 
Q 3566 2609 3566 1747 
Q 3566 888 3137 398 
Q 2709 -91 1959 -91 
Q 1206 -91 779 398 
Q 353 888 353 1747 
Q 353 2609 779 3096 
Q 1206 3584 1959 3584 
z
" transform="scale(0.015625)"/>
       <path id="DejaVuSans-67" d="M 2906 1791 
Q 2906 2416 2648 2759 
Q 2391 3103 1925 3103 
Q 1463 3103 1205 2759 
Q 947 2416 947 1791 
Q 947 1169 1205 825 
Q 1463 481 1925 481 
Q 2391 481 2648 825 
Q 2906 1169 2906 1791 
z
M 3481 434 
Q 3481 -459 3084 -895 
Q 2688 -1331 1869 -1331 
Q 1566 -1331 1297 -1286 
Q 1028 -1241 775 -1147 
L 775 -588 
Q 1028 -725 1275 -790 
Q 1522 -856 1778 -856 
Q 2344 -856 2625 -561 
Q 2906 -266 2906 331 
L 2906 616 
Q 2728 306 2450 153 
Q 2172 0 1784 0 
Q 1141 0 747 490 
Q 353 981 353 1791 
Q 353 2603 747 3093 
Q 1141 3584 1784 3584 
Q 2172 3584 2450 3431 
Q 2728 3278 2906 2969 
L 2906 3500 
L 3481 3500 
L 3481 434 
z
" transform="scale(0.015625)"/>
       <path id="DejaVuSans-20" transform="scale(0.015625)"/>
       <path id="DejaVuSans-66" d="M 2375 4863 
L 2375 4384 
L 1825 4384 
Q 1516 4384 1395 4259 
Q 1275 4134 1275 3809 
L 1275 3500 
L 2222 3500 
L 2222 3053 
L 1275 3053 
L 1275 0 
L 697 0 
L 697 3053 
L 147 3053 
L 147 3500 
L 697 3500 
L 697 3744 
Q 697 4328 969 4595 
Q 1241 4863 1831 4863 
L 2375 4863 
z
" transform="scale(0.015625)"/>
       <path id="DejaVuSans-46" d="M 628 4666 
L 3309 4666 
L 3309 4134 
L 1259 4134 
L 1259 2759 
L 3109 2759 
L 3109 2228 
L 1259 2228 
L 1259 0 
L 628 0 
L 628 4666 
z
" transform="scale(0.015625)"/>
       <path id="DejaVuSans-45" d="M 628 4666 
L 3578 4666 
L 3578 4134 
L 1259 4134 
L 1259 2753 
L 3481 2753 
L 3481 2222 
L 1259 2222 
L 1259 531 
L 3634 531 
L 3634 0 
L 628 0 
L 628 4666 
z
" transform="scale(0.015625)"/>
       <path id="DejaVuSans-76" d="M 191 3500 
L 800 3500 
L 1894 563 
L 2988 3500 
L 3597 3500 
L 2284 0 
L 1503 0 
L 191 3500 
z
" transform="scale(0.015625)"/>
       <path id="DejaVuSans-61" d="M 2194 1759 
Q 1497 1759 1228 1600 
Q 959 1441 959 1056 
Q 959 750 1161 570 
Q 1363 391 1709 391 
Q 2188 391 2477 730 
Q 2766 1069 2766 1631 
L 2766 1759 
L 2194 1759 
z
M 3341 1997 
L 3341 0 
L 2766 0 
L 2766 531 
Q 2569 213 2275 61 
Q 1981 -91 1556 -91 
Q 1019 -91 701 211 
Q 384 513 384 1019 
Q 384 1609 779 1909 
Q 1175 2209 1959 2209 
L 2766 2209 
L 2766 2266 
Q 2766 2663 2505 2880 
Q 2244 3097 1772 3097 
Q 1472 3097 1187 3025 
Q 903 2953 641 2809 
L 641 3341 
Q 956 3463 1253 3523 
Q 1550 3584 1831 3584 
Q 2591 3584 2966 3190 
Q 3341 2797 3341 1997 
z
" transform="scale(0.015625)"/>
       <path id="DejaVuSans-73" d="M 2834 3397 
L 2834 2853 
Q 2591 2978 2328 3040 
Q 2066 3103 1784 3103 
Q 1356 3103 1142 2972 
Q 928 2841 928 2578 
Q 928 2378 1081 2264 
Q 1234 2150 1697 2047 
L 1894 2003 
Q 2506 1872 2764 1633 
Q 3022 1394 3022 966 
Q 3022 478 2636 193 
Q 2250 -91 1575 -91 
Q 1294 -91 989 -36 
Q 684 19 347 128 
L 347 722 
Q 666 556 975 473 
Q 1284 391 1588 391 
Q 1994 391 2212 530 
Q 2431 669 2431 922 
Q 2431 1156 2273 1281 
Q 2116 1406 1581 1522 
L 1381 1569 
Q 847 1681 609 1914 
Q 372 2147 372 2553 
Q 372 3047 722 3315 
Q 1072 3584 1716 3584 
Q 2034 3584 2315 3537 
Q 2597 3491 2834 3397 
z
" transform="scale(0.015625)"/>
       <path id="DejaVuSans-72" d="M 2631 2963 
Q 2534 3019 2420 3045 
Q 2306 3072 2169 3072 
Q 1681 3072 1420 2755 
Q 1159 2438 1159 1844 
L 1159 0 
L 581 0 
L 581 3500 
L 1159 3500 
L 1159 2956 
Q 1341 3275 1631 3429 
Q 1922 3584 2338 3584 
Q 2397 3584 2469 3576 
Q 2541 3569 2628 3553 
L 2631 2963 
z
" transform="scale(0.015625)"/>
       <path id="DejaVuSans-74" d="M 1172 4494 
L 1172 3500 
L 2356 3500 
L 2356 3053 
L 1172 3053 
L 1172 1153 
Q 1172 725 1289 603 
Q 1406 481 1766 481 
L 2356 481 
L 2356 0 
L 1766 0 
Q 1100 0 847 248 
Q 594 497 594 1153 
L 594 3053 
L 172 3053 
L 172 3500 
L 594 3500 
L 594 4494 
L 1172 4494 
z
" transform="scale(0.015625)"/>
       <path id="DejaVuSans-69" d="M 603 3500 
L 1178 3500 
L 1178 0 
L 603 0 
L 603 3500 
z
M 603 4863 
L 1178 4863 
L 1178 4134 
L 603 4134 
L 603 4863 
z
" transform="scale(0.015625)"/>
      </defs>
      <use xlink:href="#DejaVuSans-6c"/>
      <use xlink:href="#DejaVuSans-6f" x="27.783203"/>
      <use xlink:href="#DejaVuSans-67" x="88.964844"/>
      <use xlink:href="#DejaVuSans-31" x="152.441406"/>
      <use xlink:href="#DejaVuSans-30" x="216.064453"/>
      <use xlink:href="#DejaVuSans-20" x="279.6875"/>
      <use xlink:href="#DejaVuSans-6f" x="311.474609"/>
      <use xlink:href="#DejaVuSans-66" x="372.65625"/>
      <use xlink:href="#DejaVuSans-20" x="407.861328"/>
      <use xlink:href="#DejaVuSans-46" x="439.648438"/>
      <use xlink:href="#DejaVuSans-45" x="497.167969"/>
      <use xlink:href="#DejaVuSans-76" x="560.351562"/>
      <use xlink:href="#DejaVuSans-61" x="619.53125"/>
      <use xlink:href="#DejaVuSans-6c" x="680.810547"/>
      <use xlink:href="#DejaVuSans-73" x="708.59375"/>
      <use xlink:href="#DejaVuSans-20" x="760.693359"/>
      <use xlink:href="#DejaVuSans-72" x="792.480469"/>
      <use xlink:href="#DejaVuSans-61" x="833.59375"/>
      <use xlink:href="#DejaVuSans-74" x="894.873047"/>
      <use xlink:href="#DejaVuSans-69" x="934.082031"/>
      <use xlink:href="#DejaVuSans-6f" x="961.865234"/>
     </g>
    </g>
   </g>
   <g id="matplotlib.axis_2">
    <g id="ytick_1">
     <g id="line2d_29">
      <path d="M 34.16 288.453725 
L 453.192 288.453725 
" clip-path="url(#pfe9ba29d2a)" style="fill: none; stroke: #b0b0b0; stroke-width: 0.8; stroke-linecap: square"/>
     </g>
     <g id="line2d_30">
      <defs>
       <path id="mf623e13ba0" d="M 0 0 
L -3.5 0 
" style="stroke: #000000; stroke-width: 0.8"/>
      </defs>
      <g>
       <use xlink:href="#mf623e13ba0" x="34.16" y="288.453725" style="stroke: #000000; stroke-width: 0.8"/>
      </g>
     </g>
    </g>
    <g id="ytick_2">
     <g id="line2d_31">
      <path d="M 34.16 217.796863 
L 453.192 217.796863 
" clip-path="url(#pfe9ba29d2a)" style="fill: none; stroke: #b0b0b0; stroke-width: 0.8; stroke-linecap: square"/>
     </g>
     <g id="line2d_32">
      <g>
       <use xlink:href="#mf623e13ba0" x="34.16" y="217.796863" style="stroke: #000000; stroke-width: 0.8"/>
      </g>
     </g>
    </g>
    <g id="ytick_3">
     <g id="line2d_33">
      <path d="M 34.16 147.14 
L 453.192 147.14 
" clip-path="url(#pfe9ba29d2a)" style="fill: none; stroke: #b0b0b0; stroke-width: 0.8; stroke-linecap: square"/>
     </g>
     <g id="line2d_34">
      <g>
       <use xlink:href="#mf623e13ba0" x="34.16" y="147.14" style="stroke: #000000; stroke-width: 0.8"/>
      </g>
     </g>
    </g>
    <g id="ytick_4">
     <g id="line2d_35">
      <path d="M 34.16 76.483137 
L 453.192 76.483137 
" clip-path="url(#pfe9ba29d2a)" style="fill: none; stroke: #b0b0b0; stroke-width: 0.8; stroke-linecap: square"/>
     </g>
     <g id="line2d_36">
      <g>
       <use xlink:href="#mf623e13ba0" x="34.16" y="76.483137" style="stroke: #000000; stroke-width: 0.8"/>
      </g>
     </g>
    </g>
    <g id="ytick_5">
     <g id="line2d_37">
      <path d="M 34.16 5.826275 
L 453.192 5.826275 
" clip-path="url(#pfe9ba29d2a)" style="fill: none; stroke: #b0b0b0; stroke-width: 0.8; stroke-linecap: square"/>
     </g>
     <g id="line2d_38">
      <g>
       <use xlink:href="#mf623e13ba0" x="34.16" y="5.826275" style="stroke: #000000; stroke-width: 0.8"/>
      </g>
     </g>
    </g>
    <g id="text_5">
     <!-- proportion of trials -->
     <g transform="translate(19.000625 240.14625)rotate(-90)scale(0.2 -0.2)">
      <defs>
       <path id="DejaVuSans-70" d="M 1159 525 
L 1159 -1331 
L 581 -1331 
L 581 3500 
L 1159 3500 
L 1159 2969 
Q 1341 3281 1617 3432 
Q 1894 3584 2278 3584 
Q 2916 3584 3314 3078 
Q 3713 2572 3713 1747 
Q 3713 922 3314 415 
Q 2916 -91 2278 -91 
Q 1894 -91 1617 61 
Q 1341 213 1159 525 
z
M 3116 1747 
Q 3116 2381 2855 2742 
Q 2594 3103 2138 3103 
Q 1681 3103 1420 2742 
Q 1159 2381 1159 1747 
Q 1159 1113 1420 752 
Q 1681 391 2138 391 
Q 2594 391 2855 752 
Q 3116 1113 3116 1747 
z
" transform="scale(0.015625)"/>
       <path id="DejaVuSans-6e" d="M 3513 2113 
L 3513 0 
L 2938 0 
L 2938 2094 
Q 2938 2591 2744 2837 
Q 2550 3084 2163 3084 
Q 1697 3084 1428 2787 
Q 1159 2491 1159 1978 
L 1159 0 
L 581 0 
L 581 3500 
L 1159 3500 
L 1159 2956 
Q 1366 3272 1645 3428 
Q 1925 3584 2291 3584 
Q 2894 3584 3203 3211 
Q 3513 2838 3513 2113 
z
" transform="scale(0.015625)"/>
      </defs>
      <use xlink:href="#DejaVuSans-70"/>
      <use xlink:href="#DejaVuSans-72" x="63.476562"/>
      <use xlink:href="#DejaVuSans-6f" x="102.339844"/>
      <use xlink:href="#DejaVuSans-70" x="163.521484"/>
      <use xlink:href="#DejaVuSans-6f" x="226.998047"/>
      <use xlink:href="#DejaVuSans-72" x="288.179688"/>
      <use xlink:href="#DejaVuSans-74" x="329.292969"/>
      <use xlink:href="#DejaVuSans-69" x="368.501953"/>
      <use xlink:href="#DejaVuSans-6f" x="396.285156"/>
      <use xlink:href="#DejaVuSans-6e" x="457.466797"/>
      <use xlink:href="#DejaVuSans-20" x="520.845703"/>
      <use xlink:href="#DejaVuSans-6f" x="552.632812"/>
      <use xlink:href="#DejaVuSans-66" x="613.814453"/>
      <use xlink:href="#DejaVuSans-20" x="649.019531"/>
      <use xlink:href="#DejaVuSans-74" x="680.806641"/>
      <use xlink:href="#DejaVuSans-72" x="720.015625"/>
      <use xlink:href="#DejaVuSans-69" x="761.128906"/>
      <use xlink:href="#DejaVuSans-61" x="788.912109"/>
      <use xlink:href="#DejaVuSans-6c" x="850.191406"/>
      <use xlink:href="#DejaVuSans-73" x="877.974609"/>
     </g>
    </g>
   </g>
   <g id="line2d_39">
    <path d="M 34.16 288.453725 
L 142.074384 288.453725 
L 142.074384 287.511634 
L 142.471947 287.511634 
L 142.471947 286.569542 
L 155.85648 286.569542 
L 155.85648 285.627451 
L 156.254043 285.627451 
L 156.254043 284.685359 
L 184.704832 284.685359 
L 184.704832 283.743268 
L 185.052985 283.743268 
L 185.052985 282.801176 
L 185.507068 282.801176 
L 185.507068 281.859085 
L 190.355896 281.859085 
L 190.355896 280.916993 
L 191.662571 280.916993 
L 191.662571 279.974902 
L 192.060134 279.974902 
L 192.060134 279.03281 
L 193.662763 279.03281 
L 193.707218 277.148627 
L 198.486928 277.148627 
L 198.486928 276.206536 
L 198.835081 276.206536 
L 198.835081 275.264444 
L 199.289165 275.264444 
L 199.289165 274.322353 
L 201.179932 274.322353 
L 201.179932 273.380261 
L 201.577495 273.380261 
L 201.577495 272.43817 
L 204.137992 272.43817 
L 204.137992 271.496078 
L 207.444859 271.496078 
L 207.489314 269.611895 
L 213.024404 269.611895 
L 213.024404 268.669804 
L 216.308793 268.669804 
L 216.308793 267.727712 
L 216.841207 267.727712 
L 216.841207 266.785621 
L 217.380427 266.785621 
L 217.380427 265.843529 
L 217.875496 265.843529 
L 217.918676 263.017255 
L 218.407909 263.017255 
L 218.407909 261.133072 
L 219.013456 261.133072 
L 219.036759 259.248889 
L 219.485379 259.248889 
L 219.485379 257.364706 
L 219.784544 257.364706 
L 219.784544 256.422614 
L 220.316957 256.422614 
L 220.316957 255.480523 
L 220.580158 255.480523 
L 220.580158 253.59634 
L 221.394427 253.59634 
L 221.417736 251.712157 
L 222.489206 251.712157 
L 222.57774 249.827974 
L 223.392781 249.827974 
L 223.392781 248.885882 
L 224.000517 248.885882 
L 224.000517 247.943791 
L 224.281542 247.943791 
L 224.281542 247.001699 
L 224.861783 247.001699 
L 224.861783 246.059608 
L 225.394197 246.059608 
L 225.394197 245.117516 
L 225.745378 245.117516 
L 225.773759 243.233333 
L 226.000139 243.233333 
L 226.000139 241.34915 
L 226.471667 241.34915 
L 226.471667 240.407059 
L 226.927049 240.407059 
L 226.933763 238.522876 
L 227.459462 238.522876 
L 227.566446 236.638693 
L 228.219355 236.638693 
L 228.219355 235.696601 
L 228.35654 235.696601 
L 228.363514 233.812418 
L 228.536932 233.812418 
L 228.637565 230.986144 
L 228.851221 230.986144 
L 228.913181 229.101961 
L 229.25999 229.101961 
L 229.25999 228.159869 
L 229.586843 228.159869 
L 229.631712 226.275686 
L 229.792404 226.275686 
L 229.792404 225.333595 
L 230.119256 225.333595 
L 230.119256 224.391503 
L 230.235881 224.391503 
L 230.235881 223.449412 
L 230.768295 223.449412 
L 230.878797 220.623137 
L 230.95434 220.623137 
L 230.95434 219.681046 
L 231.166626 219.681046 
L 231.196726 217.796863 
L 231.284953 217.796863 
L 231.284953 216.854771 
L 231.41121 216.854771 
L 231.49724 214.970588 
L 231.586205 214.970588 
L 231.648166 213.086405 
L 231.757732 213.086405 
L 231.860452 209.318039 
L 231.964653 209.318039 
L 232.060949 205.549673 
L 232.291505 205.549673 
L 232.291505 204.607582 
L 232.48868 204.607582 
L 232.48868 203.66549 
L 232.607337 203.66549 
L 232.612719 201.781307 
L 232.719537 201.781307 
L 232.719537 200.839216 
L 232.937951 200.839216 
L 233.012557 197.07085 
L 233.239203 197.07085 
L 233.301163 195.186667 
L 233.58346 195.186667 
L 233.635964 193.302484 
L 233.940112 193.302484 
L 233.940112 192.360392 
L 234.13871 192.360392 
L 234.183066 190.476209 
L 234.293019 190.476209 
L 234.393471 186.707843 
L 234.410704 186.707843 
L 234.425157 184.82366 
L 234.641172 184.82366 
L 234.641172 183.881569 
L 234.774423 183.881569 
L 234.852684 180.113203 
L 235.00822 180.113203 
L 235.095256 178.22902 
L 235.183298 178.22902 
L 235.183298 177.286928 
L 235.298713 177.286928 
L 235.298713 176.344837 
L 235.48455 176.344837 
L 235.553475 172.576471 
L 235.920225 172.576471 
L 235.920225 171.634379 
L 236.341126 171.634379 
L 236.448931 168.808105 
L 236.585258 168.808105 
L 236.585258 167.866013 
L 236.721491 167.866013 
L 236.721491 166.923922 
L 236.915872 166.923922 
L 237.015004 162.213464 
L 237.217124 162.213464 
L 237.315563 156.560915 
L 237.496496 156.560915 
L 237.496496 155.618824 
L 237.866725 155.618824 
L 237.866725 154.676732 
L 238.017003 154.676732 
L 238.017003 153.734641 
L 238.15488 153.734641 
L 238.250174 151.850458 
L 238.296135 151.850458 
L 238.399139 149.024183 
L 238.509978 149.024183 
L 238.539089 147.14 
L 238.648869 147.14 
L 238.71083 143.371634 
L 238.78118 143.371634 
L 238.78118 142.429542 
L 239.227505 142.429542 
L 239.227505 141.487451 
L 239.476609 141.487451 
L 239.476609 140.545359 
L 239.764764 140.545359 
L 239.858683 137.719085 
L 239.944083 137.719085 
L 239.944083 136.776993 
L 240.391096 136.776993 
L 240.426852 134.89281 
L 240.571388 134.89281 
L 240.665152 133.008627 
L 240.859543 133.008627 
L 240.859543 132.066536 
L 240.995766 132.066536 
L 241.084488 130.182353 
L 241.297018 130.182353 
L 241.358978 126.413987 
L 241.468566 126.413987 
L 241.468566 125.471895 
L 241.621114 125.471895 
L 241.621114 124.529804 
L 241.852518 124.529804 
L 241.858597 122.645621 
L 242.132304 122.645621 
L 242.132304 121.703529 
L 242.462917 121.703529 
L 242.563346 119.819346 
L 242.76417 119.819346 
L 242.82613 117.935163 
L 243.25095 117.935163 
L 243.327413 115.108889 
L 243.81038 115.108889 
L 243.813922 113.224706 
L 244.124347 113.224706 
L 244.204286 109.45634 
L 244.438723 109.45634 
L 244.507748 105.687974 
L 244.612617 105.687974 
L 244.612617 104.745882 
L 244.736699 104.745882 
L 244.769336 102.861699 
L 245.070588 102.861699 
L 245.132549 100.977516 
L 245.392679 100.977516 
L 245.392679 100.035425 
L 245.680514 100.035425 
L 245.680514 99.093333 
L 245.814169 99.093333 
L 245.814169 98.151242 
L 245.935275 98.151242 
L 245.973898 95.324967 
L 246.394816 95.324967 
L 246.394816 94.382876 
L 246.661085 94.382876 
L 246.661085 93.440784 
L 246.794653 93.440784 
L 246.90404 91.556601 
L 246.908949 91.556601 
L 246.915847 88.730327 
L 247.072164 88.730327 
L 247.158801 84.961961 
L 247.400892 84.961961 
L 247.41806 81.193595 
L 247.655516 81.193595 
L 247.76599 77.425229 
L 248.052473 77.425229 
L 248.052473 76.483137 
L 248.1928 76.483137 
L 248.280317 74.598954 
L 248.701511 74.598954 
L 248.701511 73.656863 
L 249.344427 73.656863 
L 249.344427 72.714771 
L 249.461444 72.714771 
L 249.535335 70.830588 
L 249.986065 70.830588 
L 249.986065 69.888497 
L 250.097998 69.888497 
L 250.097998 68.946405 
L 250.217469 68.946405 
L 250.240826 66.120131 
L 250.428611 66.120131 
L 250.47223 63.293856 
L 250.729863 63.293856 
L 250.840825 60.467582 
L 250.913758 60.467582 
L 250.913758 59.52549 
L 251.171439 59.52549 
L 251.171439 58.583399 
L 251.390968 58.583399 
L 251.472691 56.699216 
L 251.534651 56.699216 
L 251.534651 55.757124 
L 251.721581 55.757124 
L 251.721581 54.815033 
L 252.022834 54.815033 
L 252.084794 52.93085 
L 252.292075 52.93085 
L 252.292075 51.988758 
L 252.489298 51.988758 
L 252.489298 51.046667 
L 252.744059 51.046667 
L 252.812766 46.336209 
L 253.009601 46.336209 
L 253.009601 45.394118 
L 253.891357 45.394118 
L 253.939592 43.509935 
L 254.682419 43.509935 
L 254.682419 42.567843 
L 255.232562 42.567843 
L 255.232562 41.625752 
L 256.332355 41.625752 
L 256.332355 40.68366 
L 256.62051 40.68366 
L 256.62051 39.741569 
L 258.324313 39.741569 
L 258.324313 38.799477 
L 262.256308 38.799477 
L 262.256308 37.857386 
L 262.51107 37.857386 
L 262.51107 35.973203 
L 262.669916 35.973203 
L 262.669916 35.031111 
L 282.03857 35.031111 
L 282.03857 34.08902 
L 282.200906 34.08902 
L 282.200906 33.146928 
L 282.600744 33.146928 
L 282.600744 32.204837 
L 283.224151 32.204837 
L 283.224151 31.262745 
L 283.998891 31.262745 
L 283.998891 30.320654 
L 288.098165 30.320654 
L 288.098165 29.378562 
L 288.815692 29.378562 
L 288.815692 28.436471 
L 291.718268 28.436471 
L 291.718268 27.494379 
L 292.118105 27.494379 
L 292.118105 26.552288 
L 292.741512 26.552288 
L 292.741512 25.610196 
L 293.516252 25.610196 
L 293.516252 24.668105 
L 295.820666 24.668105 
L 295.820666 23.726013 
L 297.615526 23.726013 
L 297.615526 22.783922 
L 298.333053 22.783922 
L 298.412689 20.899739 
L 298.810252 20.899739 
L 298.810252 19.957647 
L 331.626757 19.957647 
L 331.626757 19.015556 
L 341.043137 19.015556 
L 341.144118 17.131373 
L 341.39129 17.131373 
L 341.39129 16.189281 
L 341.845374 16.189281 
L 341.845374 15.24719 
L 346.694201 15.24719 
L 346.694201 14.305098 
L 350.001069 14.305098 
L 350.045523 12.420915 
L 388.951025 12.420915 
L 388.951025 11.478824 
L 389.350862 11.478824 
L 389.350862 10.536732 
L 389.974269 10.536732 
L 389.974269 9.594641 
L 390.749009 9.594641 
L 390.749009 8.652549 
L 394.848284 8.652549 
L 394.848284 7.710458 
L 395.56581 7.710458 
L 395.56581 6.768366 
L 438.376875 6.768366 
L 438.376875 5.826275 
L 453.192 5.826275 
L 453.192 5.826275 
" clip-path="url(#pfe9ba29d2a)" style="fill: none; stroke: #000000; stroke-width: 3; stroke-linecap: square"/>
   </g>
   <g id="line2d_40">
    <path clip-path="url(#pfe9ba29d2a)" style="fill: none; stroke: #000000; stroke-width: 3; stroke-linecap: square"/>
   </g>
   <g id="line2d_41">
    <path d="M 34.16 288.453725 
L 213.17094 288.453725 
L 213.17094 287.197603 
L 216.356032 287.197603 
L 216.356032 285.941481 
L 217.894439 285.941481 
L 217.894439 284.685359 
L 218.117258 284.685359 
L 218.117258 283.429237 
L 220.578974 283.429237 
L 220.578974 282.173115 
L 221.660662 282.173115 
L 221.660662 280.916993 
L 222.778928 280.916993 
L 222.778928 278.404749 
L 224.246071 278.404749 
L 224.278969 274.636383 
L 224.675922 274.636383 
L 224.675922 273.380261 
L 225.253504 273.380261 
L 225.253504 272.124139 
L 225.545829 272.124139 
L 225.650214 269.611895 
L 225.964019 269.611895 
L 225.97363 265.843529 
L 226.144002 265.843529 
L 226.209814 263.331285 
L 226.55942 263.331285 
L 226.55942 262.075163 
L 227.073507 262.075163 
L 227.073507 260.819041 
L 227.502427 260.819041 
L 227.556372 257.050675 
L 227.658477 257.050675 
L 227.658477 255.794553 
L 228.014114 255.794553 
L 228.014114 254.538431 
L 228.403277 254.538431 
L 228.403277 253.282309 
L 228.599948 253.282309 
L 228.599948 252.026187 
L 228.895326 252.026187 
L 228.895326 250.770065 
L 229.221397 250.770065 
L 229.221397 249.513943 
L 229.445553 249.513943 
L 229.445553 248.257821 
L 229.705378 248.257821 
L 229.753218 245.745577 
L 229.861503 245.745577 
L 229.861503 243.233333 
L 230.023135 243.233333 
L 230.119256 240.721089 
L 230.186962 240.721089 
L 230.186962 238.208845 
L 230.430451 238.208845 
L 230.430451 236.952723 
L 230.987418 236.952723 
L 230.987418 235.696601 
L 231.099776 235.696601 
L 231.199205 233.184357 
L 231.329051 233.184357 
L 231.329051 231.928235 
L 232.120778 231.928235 
L 232.14128 229.415991 
L 232.338627 229.415991 
L 232.338627 228.159869 
L 232.718863 228.159869 
L 232.737613 225.647625 
L 232.857526 225.647625 
L 232.857526 224.391503 
L 233.248782 224.391503 
L 233.304348 221.879259 
L 233.369579 221.879259 
L 233.369579 220.623137 
L 233.638385 220.623137 
L 233.685185 218.110893 
L 233.885609 218.110893 
L 233.886957 211.830283 
L 234.024778 211.830283 
L 234.085613 208.061917 
L 234.236558 208.061917 
L 234.339811 205.549673 
L 234.425504 205.549673 
L 234.471601 201.781307 
L 234.842755 201.781307 
L 234.917394 199.269063 
L 234.984942 199.269063 
L 235.049184 194.244575 
L 235.166063 194.244575 
L 235.258202 190.476209 
L 235.412744 190.476209 
L 235.422148 187.963965 
L 235.583115 187.963965 
L 235.583115 186.707843 
L 235.727363 186.707843 
L 235.834191 182.939477 
L 236.065307 182.939477 
L 236.065307 181.683355 
L 236.194136 181.683355 
L 236.223309 179.171111 
L 236.309002 179.171111 
L 236.355099 174.146623 
L 236.495833 174.146623 
L 236.51262 171.634379 
L 236.987882 171.634379 
L 237.09759 169.122135 
L 237.133949 169.122135 
L 237.193904 166.609891 
L 237.313953 166.609891 
L 237.313953 165.353769 
L 237.429013 165.353769 
L 237.52729 162.841525 
L 237.541556 162.841525 
L 237.56175 160.329281 
L 237.732122 160.329281 
L 237.842391 157.817037 
L 238.119139 157.817037 
L 238.119139 156.560915 
L 238.263838 156.560915 
L 238.36723 150.280305 
L 238.375876 150.280305 
L 238.395628 147.768061 
L 238.523007 147.768061 
L 238.523007 146.511939 
L 238.66051 146.511939 
L 238.705758 142.743573 
L 238.907498 142.743573 
L 238.944813 140.231329 
L 239.079974 140.231329 
L 239.122143 136.462963 
L 239.246597 136.462963 
L 239.246597 135.206841 
L 239.425054 135.206841 
L 239.469491 128.926231 
L 239.869564 128.926231 
L 239.869564 127.670109 
L 239.991397 127.670109 
L 240.014422 125.157865 
L 240.213414 125.157865 
L 240.250729 122.645621 
L 240.426532 122.645621 
L 240.493388 118.877255 
L 240.809517 118.877255 
L 240.809517 117.621133 
L 241.096177 117.621133 
L 241.096177 116.365011 
L 241.227285 116.365011 
L 241.31418 112.596645 
L 241.465583 112.596645 
L 241.465583 111.340523 
L 241.620821 111.340523 
L 241.728766 107.572157 
L 241.741982 107.572157 
L 241.774056 105.059913 
L 241.912353 105.059913 
L 242.018571 102.547669 
L 242.178169 102.547669 
L 242.253942 98.779303 
L 242.291257 98.779303 
L 242.291257 97.523181 
L 242.465514 97.523181 
L 242.575538 93.754815 
L 242.59853 93.754815 
L 242.59853 92.498693 
L 242.841858 92.498693 
L 242.841858 91.242571 
L 243.426828 91.242571 
L 243.524727 87.474205 
L 243.791905 87.474205 
L 243.791905 86.218083 
L 244.171628 86.218083 
L 244.171628 84.961961 
L 244.663678 84.961961 
L 244.704677 81.193595 
L 244.989748 81.193595 
L 244.989748 79.937473 
L 245.166454 79.937473 
L 245.166454 78.681351 
L 245.28646 78.681351 
L 245.335351 74.912985 
L 245.464034 74.912985 
L 245.544847 72.400741 
L 245.673733 72.400741 
L 245.744036 69.888497 
L 245.802124 69.888497 
L 245.802124 67.376253 
L 245.990436 67.376253 
L 246.076128 63.607887 
L 246.102474 63.607887 
L 246.198802 59.839521 
L 246.633017 59.839521 
L 246.633017 58.583399 
L 246.755769 58.583399 
L 246.809819 54.815033 
L 246.963952 54.815033 
L 247.049952 52.302789 
L 247.347532 52.302789 
L 247.380881 49.790545 
L 247.7007 49.790545 
L 247.777363 47.278301 
L 247.958464 47.278301 
L 247.958464 46.022179 
L 248.313745 46.022179 
L 248.354946 42.253813 
L 248.782024 42.253813 
L 248.782024 40.997691 
L 249.069094 40.997691 
L 249.09048 38.485447 
L 249.192181 38.485447 
L 249.26438 35.973203 
L 249.38806 35.973203 
L 249.38806 34.717081 
L 249.660862 34.717081 
L 249.660862 33.460959 
L 249.805842 33.460959 
L 249.853964 30.948715 
L 249.980541 30.948715 
L 250.017855 28.436471 
L 250.570537 28.436471 
L 250.570537 27.180349 
L 251.03731 27.180349 
L 251.03731 25.924227 
L 251.304908 25.924227 
L 251.382044 22.155861 
L 251.70139 22.155861 
L 251.70139 20.899739 
L 252.675679 20.899739 
L 252.675679 19.643617 
L 252.962255 19.643617 
L 252.962255 18.387495 
L 253.142452 18.387495 
L 253.142452 17.131373 
L 253.271445 17.131373 
L 253.271445 15.875251 
L 253.548931 15.875251 
L 253.548931 14.619129 
L 255.654073 14.619129 
L 255.654073 13.363007 
L 256.61723 13.363007 
L 256.61723 12.106885 
L 256.817078 12.106885 
L 256.817078 10.850763 
L 257.114658 10.850763 
L 257.114658 9.594641 
L 258.722372 9.594641 
L 258.722372 8.338519 
L 259.031506 8.338519 
L 259.031506 7.082397 
L 259.427988 7.082397 
L 259.427988 5.826275 
L 453.192 5.826275 
L 453.192 5.826275 
" clip-path="url(#pfe9ba29d2a)" style="fill: none; stroke: #00bfbf; stroke-width: 3; stroke-linecap: square"/>
   </g>
   <g id="line2d_42">
    <path clip-path="url(#pfe9ba29d2a)" style="fill: none; stroke: #00bfbf; stroke-width: 3; stroke-linecap: square"/>
   </g>
   <g id="line2d_43">
    <path d="M 34.16 288.453725 
L 213.17094 288.453725 
L 213.17094 287.197603 
L 216.356032 287.197603 
L 216.356032 285.941481 
L 217.894439 285.941481 
L 217.894439 284.685359 
L 220.578974 284.685359 
L 220.578974 283.429237 
L 222.778928 283.429237 
L 222.778928 280.916993 
L 223.090144 280.916993 
L 223.090144 279.660871 
L 224.278969 279.660871 
L 224.278969 278.404749 
L 225.650214 278.404749 
L 225.650214 277.148627 
L 225.964019 277.148627 
L 225.964019 274.636383 
L 226.191078 274.636383 
L 226.191078 273.380261 
L 226.490345 273.380261 
L 226.578735 270.868017 
L 226.755172 270.868017 
L 226.755172 269.611895 
L 227.41277 269.611895 
L 227.502427 265.843529 
L 228.014114 265.843529 
L 228.014114 264.587407 
L 229.771087 264.587407 
L 229.861503 259.562919 
L 230.107416 259.562919 
L 230.186962 253.282309 
L 230.450017 253.282309 
L 230.450017 252.026187 
L 231.147872 252.026187 
L 231.199205 249.513943 
L 231.920628 249.513943 
L 231.920628 248.257821 
L 232.120778 248.257821 
L 232.120778 247.001699 
L 232.509982 247.001699 
L 232.509982 245.745577 
L 232.659169 245.745577 
L 232.737613 243.233333 
L 232.857526 243.233333 
L 232.857526 241.977211 
L 233.304348 241.977211 
L 233.304348 240.721089 
L 233.544619 240.721089 
L 233.633008 238.208845 
L 233.780982 238.208845 
L 233.886957 231.928235 
L 233.938608 231.928235 
L 233.938608 230.672113 
L 234.115044 230.672113 
L 234.115044 229.415991 
L 234.467043 229.415991 
L 234.467043 228.159869 
L 234.64056 228.159869 
L 234.64056 226.903747 
L 234.772642 226.903747 
L 234.842755 224.391503 
L 235.001821 224.391503 
L 235.001821 223.135381 
L 235.258202 223.135381 
L 235.320829 219.367015 
L 235.409219 219.367015 
L 235.422148 216.854771 
L 235.585655 216.854771 
L 235.694045 214.342527 
L 235.727363 214.342527 
L 235.799066 210.574161 
L 235.910183 210.574161 
L 235.998573 208.061917 
L 236.175009 208.061917 
L 236.243253 203.037429 
L 236.312807 203.037429 
L 236.312807 201.781307 
L 236.449065 201.781307 
L 236.545455 199.269063 
L 236.77219 199.269063 
L 236.867492 192.988453 
L 237.130959 192.988453 
L 237.173091 189.220087 
L 237.355584 189.220087 
L 237.455127 185.451721 
L 237.467288 185.451721 
L 237.52729 182.939477 
L 237.787336 182.939477 
L 237.883584 179.171111 
L 238.121313 179.171111 
L 238.202145 176.658867 
L 238.466982 176.658867 
L 238.507745 174.146623 
L 238.580695 174.146623 
L 238.643702 170.378257 
L 238.705758 170.378257 
L 238.705758 169.122135 
L 238.840822 169.122135 
L 238.937899 165.353769 
L 239.027832 165.353769 
L 239.122143 160.329281 
L 239.190924 160.329281 
L 239.233056 157.817037 
L 239.469491 157.817037 
L 239.555831 149.024183 
L 239.595841 149.024183 
L 239.63115 146.511939 
L 239.713443 146.511939 
L 239.713443 145.255817 
L 239.941511 145.255817 
L 240.019042 140.231329 
L 240.109041 140.231329 
L 240.170217 137.719085 
L 240.493388 137.719085 
L 240.56771 133.950719 
L 240.766596 133.950719 
L 240.835255 131.438475 
L 240.925236 131.438475 
L 241.034252 126.413987 
L 241.140854 126.413987 
L 241.227285 122.645621 
L 241.270906 122.645621 
L 241.303398 120.133377 
L 241.489653 120.133377 
L 241.489653 118.877255 
L 241.728766 118.877255 
L 241.831755 111.340523 
L 241.92385 111.340523 
L 241.92385 110.084401 
L 242.056094 110.084401 
L 242.079007 107.572157 
L 242.24067 107.572157 
L 242.241125 105.059913 
L 242.359755 105.059913 
L 242.465514 100.035425 
L 242.59853 100.035425 
L 242.689333 96.267059 
L 242.777926 96.267059 
L 242.777926 95.010937 
L 243.139394 95.010937 
L 243.200819 91.242571 
L 243.253929 91.242571 
L 243.293786 87.474205 
L 243.478317 87.474205 
L 243.57052 84.961961 
L 243.596098 84.961961 
L 243.599729 81.193595 
L 243.832304 81.193595 
L 243.905328 78.681351 
L 244.05548 78.681351 
L 244.163862 74.912985 
L 244.421658 74.912985 
L 244.5094 72.400741 
L 244.585212 72.400741 
L 244.585212 71.144619 
L 244.704677 71.144619 
L 244.815 67.376253 
L 244.926177 67.376253 
L 244.926177 66.120131 
L 245.069996 66.120131 
L 245.150565 62.351765 
L 245.335351 62.351765 
L 245.385559 57.327277 
L 245.493257 57.327277 
L 245.59162 54.815033 
L 245.609947 54.815033 
L 245.65935 52.302789 
L 245.802124 52.302789 
L 245.802124 49.790545 
L 245.965293 49.790545 
L 245.969371 47.278301 
L 246.28561 47.278301 
L 246.28561 46.022179 
L 246.400022 46.022179 
L 246.400706 43.509935 
L 246.625093 43.509935 
L 246.625093 42.253813 
L 246.809819 42.253813 
L 246.874965 38.485447 
L 246.963952 38.485447 
L 246.963952 37.229325 
L 247.263867 37.229325 
L 247.263867 35.973203 
L 247.641618 35.973203 
L 247.730101 30.948715 
L 247.954488 30.948715 
L 247.954488 29.692593 
L 248.101 29.692593 
L 248.101 28.436471 
L 248.313745 28.436471 
L 248.313745 25.924227 
L 248.738396 25.924227 
L 248.738396 24.668105 
L 249.069094 24.668105 
L 249.116147 22.155861 
L 249.805842 22.155861 
L 249.805842 20.899739 
L 250.067791 20.899739 
L 250.067791 19.643617 
L 250.445542 19.643617 
L 250.445542 18.387495 
L 250.570537 18.387495 
L 250.570537 17.131373 
L 251.03731 17.131373 
L 251.03731 15.875251 
L 251.382044 15.875251 
L 251.382044 13.363007 
L 252.675679 13.363007 
L 252.675679 12.106885 
L 253.142452 12.106885 
L 253.142452 10.850763 
L 253.548931 10.850763 
L 253.548931 9.594641 
L 255.654073 9.594641 
L 255.654073 8.338519 
L 256.61723 8.338519 
L 256.61723 7.082397 
L 258.722372 7.082397 
L 258.722372 5.826275 
L 453.192 5.826275 
L 453.192 5.826275 
" clip-path="url(#pfe9ba29d2a)" style="fill: none; stroke: #bf00bf; stroke-width: 3; stroke-linecap: square"/>
   </g>
   <g id="line2d_44">
    <path clip-path="url(#pfe9ba29d2a)" style="fill: none; stroke: #bf00bf; stroke-width: 3; stroke-linecap: square"/>
   </g>
   <g id="line2d_45">
    <path d="M 34.16 288.453725 
L 213.17094 288.453725 
L 213.17094 287.197603 
L 216.356032 287.197603 
L 216.356032 285.941481 
L 217.894439 285.941481 
L 217.894439 284.685359 
L 220.578974 284.685359 
L 220.578974 283.429237 
L 222.778928 283.429237 
L 222.778928 280.916993 
L 224.278969 280.916993 
L 224.278969 279.660871 
L 225.650214 279.660871 
L 225.650214 278.404749 
L 225.964019 278.404749 
L 225.964019 275.892505 
L 226.191078 275.892505 
L 226.191078 274.636383 
L 227.502427 274.636383 
L 227.502427 272.124139 
L 228.014114 272.124139 
L 228.099433 269.611895 
L 229.861503 269.611895 
L 229.861503 267.099651 
L 229.979513 267.099651 
L 229.979513 265.843529 
L 230.119256 265.843529 
L 230.186962 262.075163 
L 230.364751 262.075163 
L 230.364751 260.819041 
L 230.594854 260.819041 
L 230.594854 259.562919 
L 231.154077 259.562919 
L 231.199205 257.050675 
L 231.331053 257.050675 
L 231.331053 255.794553 
L 231.800423 255.794553 
L 231.800423 254.538431 
L 231.959386 254.538431 
L 231.959386 253.282309 
L 232.120778 253.282309 
L 232.120778 252.026187 
L 232.681069 252.026187 
L 232.737613 249.513943 
L 232.857526 249.513943 
L 232.857526 248.257821 
L 233.261688 248.257821 
L 233.304348 245.745577 
L 233.444163 245.745577 
L 233.444163 244.489455 
L 233.680502 244.489455 
L 233.786005 240.721089 
L 233.886957 240.721089 
L 233.886957 238.208845 
L 234.065741 238.208845 
L 234.065741 236.952723 
L 234.295843 236.952723 
L 234.295843 235.696601 
L 234.708536 235.696601 
L 234.708536 234.440479 
L 234.842755 234.440479 
L 234.855066 231.928235 
L 235.032043 231.928235 
L 235.141768 228.159869 
L 235.160355 228.159869 
L 235.258202 223.135381 
L 235.422148 223.135381 
L 235.527006 220.623137 
L 235.660376 220.623137 
L 235.757109 216.854771 
L 235.799066 216.854771 
L 235.799066 214.342527 
L 236.194136 214.342527 
L 236.244676 211.830283 
L 236.316332 211.830283 
L 236.404018 208.061917 
L 236.493308 208.061917 
L 236.588615 203.037429 
L 236.626708 203.037429 
L 236.626708 201.781307 
L 236.973854 201.781307 
L 236.973854 200.525185 
L 237.121641 200.525185 
L 237.203956 196.756819 
L 237.305813 196.756819 
L 237.305813 195.500697 
L 237.462635 195.500697 
L 237.552601 187.963965 
L 237.743212 187.963965 
L 237.843324 181.683355 
L 237.859464 181.683355 
L 237.940156 179.171111 
L 238.030093 179.171111 
L 238.113898 176.658867 
L 238.375912 176.658867 
L 238.375912 175.402745 
L 238.568489 175.402745 
L 238.637218 170.378257 
L 238.705758 170.378257 
L 238.804349 166.609891 
L 238.855481 166.609891 
L 238.94826 159.073159 
L 238.975968 159.073159 
L 238.991253 156.560915 
L 239.122143 156.560915 
L 239.122143 155.304793 
L 239.262849 155.304793 
L 239.290171 152.792549 
L 239.389744 152.792549 
L 239.469491 146.511939 
L 239.550476 146.511939 
L 239.612435 142.743573 
L 239.698355 142.743573 
L 239.776525 138.975207 
L 239.971986 138.975207 
L 240.053266 135.206841 
L 240.258866 135.206841 
L 240.355786 130.182353 
L 240.370748 130.182353 
L 240.395108 127.670109 
L 240.493388 127.670109 
L 240.506441 125.157865 
L 240.620418 125.157865 
L 240.715895 122.645621 
L 240.784962 122.645621 
L 240.893029 118.877255 
L 241.002775 118.877255 
L 241.077468 113.852767 
L 241.179909 113.852767 
L 241.253591 110.084401 
L 241.483667 110.084401 
L 241.483667 108.828279 
L 241.728766 108.828279 
L 241.777032 100.035425 
L 241.840563 100.035425 
L 241.901467 96.267059 
L 241.954166 96.267059 
L 242.023803 93.754815 
L 242.12628 93.754815 
L 242.188347 88.730327 
L 242.465514 88.730327 
L 242.465514 86.218083 
L 242.585117 86.218083 
L 242.59853 83.705839 
L 242.714856 83.705839 
L 242.79806 79.937473 
L 242.944932 79.937473 
L 242.962604 77.425229 
L 243.139394 77.425229 
L 243.242784 73.656863 
L 243.529664 73.656863 
L 243.637803 67.376253 
L 243.770689 67.376253 
L 243.770689 66.120131 
L 244.161704 66.120131 
L 244.260596 63.607887 
L 244.303921 63.607887 
L 244.39178 61.095643 
L 244.547477 61.095643 
L 244.547477 59.839521 
L 244.704677 59.839521 
L 244.754307 56.071155 
L 245.041187 56.071155 
L 245.112006 53.558911 
L 245.158575 53.558911 
L 245.158575 52.302789 
L 245.321733 52.302789 
L 245.335351 48.534423 
L 245.624041 48.534423 
L 245.624041 47.278301 
L 245.802124 47.278301 
L 245.815444 43.509935 
L 245.949001 43.509935 
L 245.949001 42.253813 
L 246.129819 42.253813 
L 246.179077 39.741569 
L 246.27508 39.741569 
L 246.27508 38.485447 
L 246.56196 38.485447 
L 246.623529 35.973203 
L 246.740545 35.973203 
L 246.809819 32.204837 
L 246.963952 32.204837 
L 247.027426 29.692593 
L 247.336217 29.692593 
L 247.336217 28.436471 
L 247.7007 28.436471 
L 247.801682 25.924227 
L 248.144302 25.924227 
L 248.144302 24.668105 
L 248.313745 24.668105 
L 248.313745 22.155861 
L 248.609768 22.155861 
L 248.609768 20.899739 
L 249.069094 20.899739 
L 249.069094 19.643617 
L 249.805842 19.643617 
L 249.805842 18.387495 
L 250.570537 18.387495 
L 250.570537 17.131373 
L 251.03731 17.131373 
L 251.03731 15.875251 
L 251.382044 15.875251 
L 251.382044 13.363007 
L 252.675679 13.363007 
L 252.675679 12.106885 
L 253.142452 12.106885 
L 253.142452 10.850763 
L 253.548931 10.850763 
L 253.548931 9.594641 
L 255.654073 9.594641 
L 255.654073 8.338519 
L 256.61723 8.338519 
L 256.61723 7.082397 
L 258.722372 7.082397 
L 258.722372 5.826275 
L 453.192 5.826275 
L 453.192 5.826275 
" clip-path="url(#pfe9ba29d2a)" style="fill: none; stroke: #ff0000; stroke-width: 3; stroke-linecap: square"/>
   </g>
   <g id="line2d_46">
    <path clip-path="url(#pfe9ba29d2a)" style="fill: none; stroke: #ff0000; stroke-width: 3; stroke-linecap: square"/>
   </g>
   <g id="line2d_47">
    <path d="M 243.676 291.28 
L 243.676 3 
" clip-path="url(#pfe9ba29d2a)" style="fill: none; stroke: #000000; stroke-width: 1.5; stroke-linecap: square"/>
   </g>
   <g id="line2d_48">
    <path d="M 34.16 147.14 
L 453.192 147.14 
" clip-path="url(#pfe9ba29d2a)" style="fill: none; stroke-dasharray: 2,3.3; stroke-dashoffset: 0; stroke: #000000; stroke-width: 2"/>
   </g>
   <g id="patch_3">
    <path d="M 34.16 291.28 
L 34.16 3 
" style="fill: none; stroke: #000000; stroke-width: 0.8; stroke-linejoin: miter; stroke-linecap: square"/>
   </g>
   <g id="patch_4">
    <path d="M 453.192 291.28 
L 453.192 3 
" style="fill: none; stroke: #000000; stroke-width: 0.8; stroke-linejoin: miter; stroke-linecap: square"/>
   </g>
   <g id="patch_5">
    <path d="M 34.16 291.28 
L 453.192 291.28 
" style="fill: none; stroke: #000000; stroke-width: 0.8; stroke-linejoin: miter; stroke-linecap: square"/>
   </g>
   <g id="patch_6">
    <path d="M 34.16 3 
L 453.192 3 
" style="fill: none; stroke: #000000; stroke-width: 0.8; stroke-linejoin: miter; stroke-linecap: square"/>
   </g>
   <g id="text_6">
    <!-- f1-f5,20-D -->
    <g transform="translate(343.64261 285.5144)scale(0.2 -0.2)">
     <defs>
      <path id="DejaVuSans-35" d="M 691 4666 
L 3169 4666 
L 3169 4134 
L 1269 4134 
L 1269 2991 
Q 1406 3038 1543 3061 
Q 1681 3084 1819 3084 
Q 2600 3084 3056 2656 
Q 3513 2228 3513 1497 
Q 3513 744 3044 326 
Q 2575 -91 1722 -91 
Q 1428 -91 1123 -41 
Q 819 9 494 109 
L 494 744 
Q 775 591 1075 516 
Q 1375 441 1709 441 
Q 2250 441 2565 725 
Q 2881 1009 2881 1497 
Q 2881 1984 2565 2268 
Q 2250 2553 1709 2553 
Q 1456 2553 1204 2497 
Q 953 2441 691 2322 
L 691 4666 
z
" transform="scale(0.015625)"/>
      <path id="DejaVuSans-2c" d="M 750 794 
L 1409 794 
L 1409 256 
L 897 -744 
L 494 -744 
L 750 256 
L 750 794 
z
" transform="scale(0.015625)"/>
      <path id="DejaVuSans-32" d="M 1228 531 
L 3431 531 
L 3431 0 
L 469 0 
L 469 531 
Q 828 903 1448 1529 
Q 2069 2156 2228 2338 
Q 2531 2678 2651 2914 
Q 2772 3150 2772 3378 
Q 2772 3750 2511 3984 
Q 2250 4219 1831 4219 
Q 1534 4219 1204 4116 
Q 875 4013 500 3803 
L 500 4441 
Q 881 4594 1212 4672 
Q 1544 4750 1819 4750 
Q 2544 4750 2975 4387 
Q 3406 4025 3406 3419 
Q 3406 3131 3298 2873 
Q 3191 2616 2906 2266 
Q 2828 2175 2409 1742 
Q 1991 1309 1228 531 
z
" transform="scale(0.015625)"/>
      <path id="DejaVuSans-44" d="M 1259 4147 
L 1259 519 
L 2022 519 
Q 2988 519 3436 956 
Q 3884 1394 3884 2338 
Q 3884 3275 3436 3711 
Q 2988 4147 2022 4147 
L 1259 4147 
z
M 628 4666 
L 1925 4666 
Q 3281 4666 3915 4102 
Q 4550 3538 4550 2338 
Q 4550 1131 3912 565 
Q 3275 0 1925 0 
L 628 0 
L 628 4666 
z
" transform="scale(0.015625)"/>
     </defs>
     <use xlink:href="#DejaVuSans-66"/>
     <use xlink:href="#DejaVuSans-31" x="35.205078"/>
     <use xlink:href="#DejaVuSans-2d" x="98.828125"/>
     <use xlink:href="#DejaVuSans-66" x="134.912109"/>
     <use xlink:href="#DejaVuSans-35" x="170.117188"/>
     <use xlink:href="#DejaVuSans-2c" x="233.740234"/>
     <use xlink:href="#DejaVuSans-32" x="265.527344"/>
     <use xlink:href="#DejaVuSans-30" x="329.150391"/>
     <use xlink:href="#DejaVuSans-2d" x="392.773438"/>
     <use xlink:href="#DejaVuSans-44" x="428.857422"/>
    </g>
   </g>
   <g id="text_7">
    <!-- v2.6.1.158 -->
    <g style="fill: #808080" transform="translate(216.861937 286.317512)scale(0.1 -0.1)">
     <defs>
      <path id="DejaVuSans-2e" d="M 684 794 
L 1344 794 
L 1344 0 
L 684 0 
L 684 794 
z
" transform="scale(0.015625)"/>
      <path id="DejaVuSans-36" d="M 2113 2584 
Q 1688 2584 1439 2293 
Q 1191 2003 1191 1497 
Q 1191 994 1439 701 
Q 1688 409 2113 409 
Q 2538 409 2786 701 
Q 3034 994 3034 1497 
Q 3034 2003 2786 2293 
Q 2538 2584 2113 2584 
z
M 3366 4563 
L 3366 3988 
Q 3128 4100 2886 4159 
Q 2644 4219 2406 4219 
Q 1781 4219 1451 3797 
Q 1122 3375 1075 2522 
Q 1259 2794 1537 2939 
Q 1816 3084 2150 3084 
Q 2853 3084 3261 2657 
Q 3669 2231 3669 1497 
Q 3669 778 3244 343 
Q 2819 -91 2113 -91 
Q 1303 -91 875 529 
Q 447 1150 447 2328 
Q 447 3434 972 4092 
Q 1497 4750 2381 4750 
Q 2619 4750 2861 4703 
Q 3103 4656 3366 4563 
z
" transform="scale(0.015625)"/>
      <path id="DejaVuSans-38" d="M 2034 2216 
Q 1584 2216 1326 1975 
Q 1069 1734 1069 1313 
Q 1069 891 1326 650 
Q 1584 409 2034 409 
Q 2484 409 2743 651 
Q 3003 894 3003 1313 
Q 3003 1734 2745 1975 
Q 2488 2216 2034 2216 
z
M 1403 2484 
Q 997 2584 770 2862 
Q 544 3141 544 3541 
Q 544 4100 942 4425 
Q 1341 4750 2034 4750 
Q 2731 4750 3128 4425 
Q 3525 4100 3525 3541 
Q 3525 3141 3298 2862 
Q 3072 2584 2669 2484 
Q 3125 2378 3379 2068 
Q 3634 1759 3634 1313 
Q 3634 634 3220 271 
Q 2806 -91 2034 -91 
Q 1263 -91 848 271 
Q 434 634 434 1313 
Q 434 1759 690 2068 
Q 947 2378 1403 2484 
z
M 1172 3481 
Q 1172 3119 1398 2916 
Q 1625 2713 2034 2713 
Q 2441 2713 2670 2916 
Q 2900 3119 2900 3481 
Q 2900 3844 2670 4047 
Q 2441 4250 2034 4250 
Q 1625 4250 1398 4047 
Q 1172 3844 1172 3481 
z
" transform="scale(0.015625)"/>
     </defs>
     <use xlink:href="#DejaVuSans-76"/>
     <use xlink:href="#DejaVuSans-32" x="59.179688"/>
     <use xlink:href="#DejaVuSans-2e" x="122.802734"/>
     <use xlink:href="#DejaVuSans-36" x="154.589844"/>
     <use xlink:href="#DejaVuSans-2e" x="218.212891"/>
     <use xlink:href="#DejaVuSans-31" x="250"/>
     <use xlink:href="#DejaVuSans-2e" x="313.623047"/>
     <use xlink:href="#DejaVuSans-31" x="345.410156"/>
     <use xlink:href="#DejaVuSans-35" x="409.033203"/>
     <use xlink:href="#DejaVuSans-38" x="472.65625"/>
    </g>
   </g>
   <g id="legend_1">
    <g id="patch_7">
     <path d="M 48.16 136.425 
L 177.381875 136.425 
Q 181.381875 136.425 181.381875 132.425 
L 181.381875 17 
Q 181.381875 13 177.381875 13 
L 48.16 13 
Q 44.16 13 44.16 17 
L 44.16 132.425 
Q 44.16 136.425 48.16 136.425 
z
" style="fill: #ffffff; opacity: 0.2; stroke: #cccccc; stroke-linejoin: miter"/>
    </g>
    <g id="line2d_49">
     <path d="M 52.16 29.196875 
L 72.16 29.196875 
L 92.16 29.196875 
" style="fill: none; stroke: #000000; stroke-width: 3; stroke-linecap: square"/>
    </g>
    <g id="text_8">
     <!-- 1: 4/4 -->
     <g transform="translate(108.16 36.196875)scale(0.2 -0.2)">
      <defs>
       <path id="DejaVuSans-3a" d="M 750 794 
L 1409 794 
L 1409 0 
L 750 0 
L 750 794 
z
M 750 3309 
L 1409 3309 
L 1409 2516 
L 750 2516 
L 750 3309 
z
" transform="scale(0.015625)"/>
       <path id="DejaVuSans-34" d="M 2419 4116 
L 825 1625 
L 2419 1625 
L 2419 4116 
z
M 2253 4666 
L 3047 4666 
L 3047 1625 
L 3713 1625 
L 3713 1100 
L 3047 1100 
L 3047 0 
L 2419 0 
L 2419 1100 
L 313 1100 
L 313 1709 
L 2253 4666 
z
" transform="scale(0.015625)"/>
       <path id="DejaVuSans-2f" d="M 1625 4666 
L 2156 4666 
L 531 -594 
L 0 -594 
L 1625 4666 
z
" transform="scale(0.015625)"/>
      </defs>
      <use xlink:href="#DejaVuSans-31"/>
      <use xlink:href="#DejaVuSans-3a" x="63.623047"/>
      <use xlink:href="#DejaVuSans-20" x="97.314453"/>
      <use xlink:href="#DejaVuSans-34" x="129.101562"/>
      <use xlink:href="#DejaVuSans-2f" x="192.724609"/>
      <use xlink:href="#DejaVuSans-34" x="226.416016"/>
     </g>
    </g>
    <g id="line2d_50">
     <path d="M 52.16 58.553125 
L 72.16 58.553125 
L 92.16 58.553125 
" style="fill: none; stroke: #00bfbf; stroke-width: 3; stroke-linecap: square"/>
    </g>
    <g id="text_9">
     <!-- -1: 3/3 -->
     <g transform="translate(108.16 65.553125)scale(0.2 -0.2)">
      <defs>
       <path id="DejaVuSans-33" d="M 2597 2516 
Q 3050 2419 3304 2112 
Q 3559 1806 3559 1356 
Q 3559 666 3084 287 
Q 2609 -91 1734 -91 
Q 1441 -91 1130 -33 
Q 819 25 488 141 
L 488 750 
Q 750 597 1062 519 
Q 1375 441 1716 441 
Q 2309 441 2620 675 
Q 2931 909 2931 1356 
Q 2931 1769 2642 2001 
Q 2353 2234 1838 2234 
L 1294 2234 
L 1294 2753 
L 1863 2753 
Q 2328 2753 2575 2939 
Q 2822 3125 2822 3475 
Q 2822 3834 2567 4026 
Q 2313 4219 1838 4219 
Q 1578 4219 1281 4162 
Q 984 4106 628 3988 
L 628 4550 
Q 988 4650 1302 4700 
Q 1616 4750 1894 4750 
Q 2613 4750 3031 4423 
Q 3450 4097 3450 3541 
Q 3450 3153 3228 2886 
Q 3006 2619 2597 2516 
z
" transform="scale(0.015625)"/>
      </defs>
      <use xlink:href="#DejaVuSans-2d"/>
      <use xlink:href="#DejaVuSans-31" x="36.083984"/>
      <use xlink:href="#DejaVuSans-3a" x="99.707031"/>
      <use xlink:href="#DejaVuSans-20" x="133.398438"/>
      <use xlink:href="#DejaVuSans-33" x="165.185547"/>
      <use xlink:href="#DejaVuSans-2f" x="228.808594"/>
      <use xlink:href="#DejaVuSans-33" x="262.5"/>
     </g>
    </g>
    <g id="line2d_51">
     <path d="M 52.16 87.909375 
L 72.16 87.909375 
L 92.16 87.909375 
" style="fill: none; stroke: #bf00bf; stroke-width: 3; stroke-linecap: square"/>
    </g>
    <g id="text_10">
     <!-- -4: 3/3 -->
     <g transform="translate(108.16 94.909375)scale(0.2 -0.2)">
      <use xlink:href="#DejaVuSans-2d"/>
      <use xlink:href="#DejaVuSans-34" x="36.083984"/>
      <use xlink:href="#DejaVuSans-3a" x="99.707031"/>
      <use xlink:href="#DejaVuSans-20" x="133.398438"/>
      <use xlink:href="#DejaVuSans-33" x="165.185547"/>
      <use xlink:href="#DejaVuSans-2f" x="228.808594"/>
      <use xlink:href="#DejaVuSans-33" x="262.5"/>
     </g>
    </g>
    <g id="line2d_52">
     <path d="M 52.16 117.265625 
L 72.16 117.265625 
L 92.16 117.265625 
" style="fill: none; stroke: #ff0000; stroke-width: 3; stroke-linecap: square"/>
    </g>
    <g id="text_11">
     <!-- -8: 3/3 -->
     <g transform="translate(108.16 124.265625)scale(0.2 -0.2)">
      <use xlink:href="#DejaVuSans-2d"/>
      <use xlink:href="#DejaVuSans-38" x="36.083984"/>
      <use xlink:href="#DejaVuSans-3a" x="99.707031"/>
      <use xlink:href="#DejaVuSans-20" x="133.398438"/>
      <use xlink:href="#DejaVuSans-33" x="165.185547"/>
      <use xlink:href="#DejaVuSans-2f" x="228.808594"/>
      <use xlink:href="#DejaVuSans-33" x="262.5"/>
     </g>
    </g>
   </g>
  </g>
 </g>
 <defs>
  <clipPath id="pfe9ba29d2a">
   <rect x="34.16" y="3" width="419.032" height="288.28"/>
  </clipPath>
 </defs>
</svg>
