<?xml version="1.0" encoding="utf-8" standalone="no"?>
<!DOCTYPE svg PUBLIC "-//W3C//DTD SVG 1.1//EN"
  "http://www.w3.org/Graphics/SVG/1.1/DTD/svg11.dtd">
<svg xmlns:xlink="http://www.w3.org/1999/xlink" width="460.8pt" height="345.6pt" viewBox="0 0 460.8 345.6" xmlns="http://www.w3.org/2000/svg" version="1.1">
 <metadata>
  <rdf:RDF xmlns:dc="http://purl.org/dc/elements/1.1/" xmlns:cc="http://creativecommons.org/ns#" xmlns:rdf="http://www.w3.org/1999/02/22-rdf-syntax-ns#">
   <cc:Work>
    <dc:type rdf:resource="http://purl.org/dc/dcmitype/StillImage"/>
    <dc:date>2023-04-03T10:10:48.760846</dc:date>
    <dc:format>image/svg+xml</dc:format>
    <dc:creator>
     <cc:Agent>
      <dc:title>Matplotlib v3.5.2, https://matplotlib.org/</dc:title>
     </cc:Agent>
    </dc:creator>
   </cc:Work>
  </rdf:RDF>
 </metadata>
 <defs>
  <style type="text/css">*{stroke-linejoin: round; stroke-linecap: butt}</style>
 </defs>
 <g id="figure_1">
  <g id="patch_1">
   <path d="M 0 345.6 
L 460.8 345.6 
L 460.8 0 
L 0 0 
z
" style="fill: #ffffff"/>
  </g>
  <g id="axes_1">
   <g id="patch_2">
    <path d="M 34.16 291.28 
L 453.192 291.28 
L 453.192 3 
L 34.16 3 
z
" style="fill: #ffffff"/>
   </g>
   <g id="matplotlib.axis_1">
    <g id="xtick_1">
     <g id="line2d_1">
      <path d="M 119.889753 291.28 
L 119.889753 3 
" clip-path="url(#pfe442b587f)" style="fill: none; stroke: #b0b0b0; stroke-width: 0.8; stroke-linecap: square"/>
     </g>
     <g id="line2d_2">
      <defs>
       <path id="m9b3cb6d5d5" d="M 0 0 
L 0 3.5 
" style="stroke: #000000; stroke-width: 0.8"/>
      </defs>
      <g>
       <use xlink:href="#m9b3cb6d5d5" x="119.889753" y="291.28" style="stroke: #000000; stroke-width: 0.8"/>
      </g>
     </g>
     <g id="text_1">
      <!-- -1 -->
      <g transform="translate(109.91944 313.476875)scale(0.2 -0.2)">
       <defs>
        <path id="DejaVuSans-2d" d="M 313 2009 
L 1997 2009 
L 1997 1497 
L 313 1497 
L 313 2009 
z
" transform="scale(0.015625)"/>
        <path id="DejaVuSans-31" d="M 794 531 
L 1825 531 
L 1825 4091 
L 703 3866 
L 703 4441 
L 1819 4666 
L 2450 4666 
L 2450 531 
L 3481 531 
L 3481 0 
L 794 0 
L 794 531 
z
" transform="scale(0.015625)"/>
       </defs>
       <use xlink:href="#DejaVuSans-2d"/>
       <use xlink:href="#DejaVuSans-31" x="36.083984"/>
      </g>
     </g>
    </g>
    <g id="xtick_2">
     <g id="line2d_3">
      <path d="M 243.676 291.28 
L 243.676 3 
" clip-path="url(#pfe442b587f)" style="fill: none; stroke: #b0b0b0; stroke-width: 0.8; stroke-linecap: square"/>
     </g>
     <g id="line2d_4">
      <g>
       <use xlink:href="#m9b3cb6d5d5" x="243.676" y="291.28" style="stroke: #000000; stroke-width: 0.8"/>
      </g>
     </g>
     <g id="text_2">
      <!-- 0 -->
      <g transform="translate(237.3135 313.476875)scale(0.2 -0.2)">
       <defs>
        <path id="DejaVuSans-30" d="M 2034 4250 
Q 1547 4250 1301 3770 
Q 1056 3291 1056 2328 
Q 1056 1369 1301 889 
Q 1547 409 2034 409 
Q 2525 409 2770 889 
Q 3016 1369 3016 2328 
Q 3016 3291 2770 3770 
Q 2525 4250 2034 4250 
z
M 2034 4750 
Q 2819 4750 3233 4129 
Q 3647 3509 3647 2328 
Q 3647 1150 3233 529 
Q 2819 -91 2034 -91 
Q 1250 -91 836 529 
Q 422 1150 422 2328 
Q 422 3509 836 4129 
Q 1250 4750 2034 4750 
z
" transform="scale(0.015625)"/>
       </defs>
       <use xlink:href="#DejaVuSans-30"/>
      </g>
     </g>
    </g>
    <g id="xtick_3">
     <g id="line2d_5">
      <path d="M 367.462247 291.28 
L 367.462247 3 
" clip-path="url(#pfe442b587f)" style="fill: none; stroke: #b0b0b0; stroke-width: 0.8; stroke-linecap: square"/>
     </g>
     <g id="line2d_6">
      <g>
       <use xlink:href="#m9b3cb6d5d5" x="367.462247" y="291.28" style="stroke: #000000; stroke-width: 0.8"/>
      </g>
     </g>
     <g id="text_3">
      <!-- 1 -->
      <g transform="translate(361.099747 313.476875)scale(0.2 -0.2)">
       <use xlink:href="#DejaVuSans-31"/>
      </g>
     </g>
    </g>
    <g id="xtick_4">
     <g id="line2d_7">
      <defs>
       <path id="m9e08e24567" d="M 0 0 
L 0 2 
" style="stroke: #000000; stroke-width: 0.6"/>
      </defs>
      <g>
       <use xlink:href="#m9e08e24567" x="55.164555" y="291.28" style="stroke: #000000; stroke-width: 0.6"/>
      </g>
     </g>
    </g>
    <g id="xtick_5">
     <g id="line2d_8">
      <g>
       <use xlink:href="#m9e08e24567" x="70.630253" y="291.28" style="stroke: #000000; stroke-width: 0.6"/>
      </g>
     </g>
    </g>
    <g id="xtick_6">
     <g id="line2d_9">
      <g>
       <use xlink:href="#m9e08e24567" x="82.626379" y="291.28" style="stroke: #000000; stroke-width: 0.6"/>
      </g>
     </g>
    </g>
    <g id="xtick_7">
     <g id="line2d_10">
      <g>
       <use xlink:href="#m9e08e24567" x="92.427929" y="291.28" style="stroke: #000000; stroke-width: 0.6"/>
      </g>
     </g>
    </g>
    <g id="xtick_8">
     <g id="line2d_11">
      <g>
       <use xlink:href="#m9e08e24567" x="100.715021" y="291.28" style="stroke: #000000; stroke-width: 0.6"/>
      </g>
     </g>
    </g>
    <g id="xtick_9">
     <g id="line2d_12">
      <g>
       <use xlink:href="#m9e08e24567" x="107.893626" y="291.28" style="stroke: #000000; stroke-width: 0.6"/>
      </g>
     </g>
    </g>
    <g id="xtick_10">
     <g id="line2d_13">
      <g>
       <use xlink:href="#m9e08e24567" x="114.225605" y="291.28" style="stroke: #000000; stroke-width: 0.6"/>
      </g>
     </g>
    </g>
    <g id="xtick_11">
     <g id="line2d_14">
      <g>
       <use xlink:href="#m9e08e24567" x="157.153126" y="291.28" style="stroke: #000000; stroke-width: 0.6"/>
      </g>
     </g>
    </g>
    <g id="xtick_12">
     <g id="line2d_15">
      <g>
       <use xlink:href="#m9e08e24567" x="178.950802" y="291.28" style="stroke: #000000; stroke-width: 0.6"/>
      </g>
     </g>
    </g>
    <g id="xtick_13">
     <g id="line2d_16">
      <g>
       <use xlink:href="#m9e08e24567" x="194.4165" y="291.28" style="stroke: #000000; stroke-width: 0.6"/>
      </g>
     </g>
    </g>
    <g id="xtick_14">
     <g id="line2d_17">
      <g>
       <use xlink:href="#m9e08e24567" x="206.412627" y="291.28" style="stroke: #000000; stroke-width: 0.6"/>
      </g>
     </g>
    </g>
    <g id="xtick_15">
     <g id="line2d_18">
      <g>
       <use xlink:href="#m9e08e24567" x="216.214176" y="291.28" style="stroke: #000000; stroke-width: 0.6"/>
      </g>
     </g>
    </g>
    <g id="xtick_16">
     <g id="line2d_19">
      <g>
       <use xlink:href="#m9e08e24567" x="224.501268" y="291.28" style="stroke: #000000; stroke-width: 0.6"/>
      </g>
     </g>
    </g>
    <g id="xtick_17">
     <g id="line2d_20">
      <g>
       <use xlink:href="#m9e08e24567" x="231.679873" y="291.28" style="stroke: #000000; stroke-width: 0.6"/>
      </g>
     </g>
    </g>
    <g id="xtick_18">
     <g id="line2d_21">
      <g>
       <use xlink:href="#m9e08e24567" x="238.011852" y="291.28" style="stroke: #000000; stroke-width: 0.6"/>
      </g>
     </g>
    </g>
    <g id="xtick_19">
     <g id="line2d_22">
      <g>
       <use xlink:href="#m9e08e24567" x="280.939373" y="291.28" style="stroke: #000000; stroke-width: 0.6"/>
      </g>
     </g>
    </g>
    <g id="xtick_20">
     <g id="line2d_23">
      <g>
       <use xlink:href="#m9e08e24567" x="302.73705" y="291.28" style="stroke: #000000; stroke-width: 0.6"/>
      </g>
     </g>
    </g>
    <g id="xtick_21">
     <g id="line2d_24">
      <g>
       <use xlink:href="#m9e08e24567" x="318.202747" y="291.28" style="stroke: #000000; stroke-width: 0.6"/>
      </g>
     </g>
    </g>
    <g id="xtick_22">
     <g id="line2d_25">
      <g>
       <use xlink:href="#m9e08e24567" x="330.198874" y="291.28" style="stroke: #000000; stroke-width: 0.6"/>
      </g>
     </g>
    </g>
    <g id="xtick_23">
     <g id="line2d_26">
      <g>
       <use xlink:href="#m9e08e24567" x="340.000423" y="291.28" style="stroke: #000000; stroke-width: 0.6"/>
      </g>
     </g>
    </g>
    <g id="xtick_24">
     <g id="line2d_27">
      <g>
       <use xlink:href="#m9e08e24567" x="348.287515" y="291.28" style="stroke: #000000; stroke-width: 0.6"/>
      </g>
     </g>
    </g>
    <g id="xtick_25">
     <g id="line2d_28">
      <g>
       <use xlink:href="#m9e08e24567" x="355.46612" y="291.28" style="stroke: #000000; stroke-width: 0.6"/>
      </g>
     </g>
    </g>
    <g id="xtick_26">
     <g id="line2d_29">
      <g>
       <use xlink:href="#m9e08e24567" x="361.798099" y="291.28" style="stroke: #000000; stroke-width: 0.6"/>
      </g>
     </g>
    </g>
    <g id="xtick_27">
     <g id="line2d_30">
      <g>
       <use xlink:href="#m9e08e24567" x="404.725621" y="291.28" style="stroke: #000000; stroke-width: 0.6"/>
      </g>
     </g>
    </g>
    <g id="xtick_28">
     <g id="line2d_31">
      <g>
       <use xlink:href="#m9e08e24567" x="426.523297" y="291.28" style="stroke: #000000; stroke-width: 0.6"/>
      </g>
     </g>
    </g>
    <g id="xtick_29">
     <g id="line2d_32">
      <g>
       <use xlink:href="#m9e08e24567" x="441.988994" y="291.28" style="stroke: #000000; stroke-width: 0.6"/>
      </g>
     </g>
    </g>
    <g id="text_4">
     <!-- log10 of FEvals ratio -->
     <g transform="translate(141.371312 336.833125)scale(0.2 -0.2)">
      <defs>
       <path id="DejaVuSans-6c" d="M 603 4863 
L 1178 4863 
L 1178 0 
L 603 0 
L 603 4863 
z
" transform="scale(0.015625)"/>
       <path id="DejaVuSans-6f" d="M 1959 3097 
Q 1497 3097 1228 2736 
Q 959 2375 959 1747 
Q 959 1119 1226 758 
Q 1494 397 1959 397 
Q 2419 397 2687 759 
Q 2956 1122 2956 1747 
Q 2956 2369 2687 2733 
Q 2419 3097 1959 3097 
z
M 1959 3584 
Q 2709 3584 3137 3096 
Q 3566 2609 3566 1747 
Q 3566 888 3137 398 
Q 2709 -91 1959 -91 
Q 1206 -91 779 398 
Q 353 888 353 1747 
Q 353 2609 779 3096 
Q 1206 3584 1959 3584 
z
" transform="scale(0.015625)"/>
       <path id="DejaVuSans-67" d="M 2906 1791 
Q 2906 2416 2648 2759 
Q 2391 3103 1925 3103 
Q 1463 3103 1205 2759 
Q 947 2416 947 1791 
Q 947 1169 1205 825 
Q 1463 481 1925 481 
Q 2391 481 2648 825 
Q 2906 1169 2906 1791 
z
M 3481 434 
Q 3481 -459 3084 -895 
Q 2688 -1331 1869 -1331 
Q 1566 -1331 1297 -1286 
Q 1028 -1241 775 -1147 
L 775 -588 
Q 1028 -725 1275 -790 
Q 1522 -856 1778 -856 
Q 2344 -856 2625 -561 
Q 2906 -266 2906 331 
L 2906 616 
Q 2728 306 2450 153 
Q 2172 0 1784 0 
Q 1141 0 747 490 
Q 353 981 353 1791 
Q 353 2603 747 3093 
Q 1141 3584 1784 3584 
Q 2172 3584 2450 3431 
Q 2728 3278 2906 2969 
L 2906 3500 
L 3481 3500 
L 3481 434 
z
" transform="scale(0.015625)"/>
       <path id="DejaVuSans-20" transform="scale(0.015625)"/>
       <path id="DejaVuSans-66" d="M 2375 4863 
L 2375 4384 
L 1825 4384 
Q 1516 4384 1395 4259 
Q 1275 4134 1275 3809 
L 1275 3500 
L 2222 3500 
L 2222 3053 
L 1275 3053 
L 1275 0 
L 697 0 
L 697 3053 
L 147 3053 
L 147 3500 
L 697 3500 
L 697 3744 
Q 697 4328 969 4595 
Q 1241 4863 1831 4863 
L 2375 4863 
z
" transform="scale(0.015625)"/>
       <path id="DejaVuSans-46" d="M 628 4666 
L 3309 4666 
L 3309 4134 
L 1259 4134 
L 1259 2759 
L 3109 2759 
L 3109 2228 
L 1259 2228 
L 1259 0 
L 628 0 
L 628 4666 
z
" transform="scale(0.015625)"/>
       <path id="DejaVuSans-45" d="M 628 4666 
L 3578 4666 
L 3578 4134 
L 1259 4134 
L 1259 2753 
L 3481 2753 
L 3481 2222 
L 1259 2222 
L 1259 531 
L 3634 531 
L 3634 0 
L 628 0 
L 628 4666 
z
" transform="scale(0.015625)"/>
       <path id="DejaVuSans-76" d="M 191 3500 
L 800 3500 
L 1894 563 
L 2988 3500 
L 3597 3500 
L 2284 0 
L 1503 0 
L 191 3500 
z
" transform="scale(0.015625)"/>
       <path id="DejaVuSans-61" d="M 2194 1759 
Q 1497 1759 1228 1600 
Q 959 1441 959 1056 
Q 959 750 1161 570 
Q 1363 391 1709 391 
Q 2188 391 2477 730 
Q 2766 1069 2766 1631 
L 2766 1759 
L 2194 1759 
z
M 3341 1997 
L 3341 0 
L 2766 0 
L 2766 531 
Q 2569 213 2275 61 
Q 1981 -91 1556 -91 
Q 1019 -91 701 211 
Q 384 513 384 1019 
Q 384 1609 779 1909 
Q 1175 2209 1959 2209 
L 2766 2209 
L 2766 2266 
Q 2766 2663 2505 2880 
Q 2244 3097 1772 3097 
Q 1472 3097 1187 3025 
Q 903 2953 641 2809 
L 641 3341 
Q 956 3463 1253 3523 
Q 1550 3584 1831 3584 
Q 2591 3584 2966 3190 
Q 3341 2797 3341 1997 
z
" transform="scale(0.015625)"/>
       <path id="DejaVuSans-73" d="M 2834 3397 
L 2834 2853 
Q 2591 2978 2328 3040 
Q 2066 3103 1784 3103 
Q 1356 3103 1142 2972 
Q 928 2841 928 2578 
Q 928 2378 1081 2264 
Q 1234 2150 1697 2047 
L 1894 2003 
Q 2506 1872 2764 1633 
Q 3022 1394 3022 966 
Q 3022 478 2636 193 
Q 2250 -91 1575 -91 
Q 1294 -91 989 -36 
Q 684 19 347 128 
L 347 722 
Q 666 556 975 473 
Q 1284 391 1588 391 
Q 1994 391 2212 530 
Q 2431 669 2431 922 
Q 2431 1156 2273 1281 
Q 2116 1406 1581 1522 
L 1381 1569 
Q 847 1681 609 1914 
Q 372 2147 372 2553 
Q 372 3047 722 3315 
Q 1072 3584 1716 3584 
Q 2034 3584 2315 3537 
Q 2597 3491 2834 3397 
z
" transform="scale(0.015625)"/>
       <path id="DejaVuSans-72" d="M 2631 2963 
Q 2534 3019 2420 3045 
Q 2306 3072 2169 3072 
Q 1681 3072 1420 2755 
Q 1159 2438 1159 1844 
L 1159 0 
L 581 0 
L 581 3500 
L 1159 3500 
L 1159 2956 
Q 1341 3275 1631 3429 
Q 1922 3584 2338 3584 
Q 2397 3584 2469 3576 
Q 2541 3569 2628 3553 
L 2631 2963 
z
" transform="scale(0.015625)"/>
       <path id="DejaVuSans-74" d="M 1172 4494 
L 1172 3500 
L 2356 3500 
L 2356 3053 
L 1172 3053 
L 1172 1153 
Q 1172 725 1289 603 
Q 1406 481 1766 481 
L 2356 481 
L 2356 0 
L 1766 0 
Q 1100 0 847 248 
Q 594 497 594 1153 
L 594 3053 
L 172 3053 
L 172 3500 
L 594 3500 
L 594 4494 
L 1172 4494 
z
" transform="scale(0.015625)"/>
       <path id="DejaVuSans-69" d="M 603 3500 
L 1178 3500 
L 1178 0 
L 603 0 
L 603 3500 
z
M 603 4863 
L 1178 4863 
L 1178 4134 
L 603 4134 
L 603 4863 
z
" transform="scale(0.015625)"/>
      </defs>
      <use xlink:href="#DejaVuSans-6c"/>
      <use xlink:href="#DejaVuSans-6f" x="27.783203"/>
      <use xlink:href="#DejaVuSans-67" x="88.964844"/>
      <use xlink:href="#DejaVuSans-31" x="152.441406"/>
      <use xlink:href="#DejaVuSans-30" x="216.064453"/>
      <use xlink:href="#DejaVuSans-20" x="279.6875"/>
      <use xlink:href="#DejaVuSans-6f" x="311.474609"/>
      <use xlink:href="#DejaVuSans-66" x="372.65625"/>
      <use xlink:href="#DejaVuSans-20" x="407.861328"/>
      <use xlink:href="#DejaVuSans-46" x="439.648438"/>
      <use xlink:href="#DejaVuSans-45" x="497.167969"/>
      <use xlink:href="#DejaVuSans-76" x="560.351562"/>
      <use xlink:href="#DejaVuSans-61" x="619.53125"/>
      <use xlink:href="#DejaVuSans-6c" x="680.810547"/>
      <use xlink:href="#DejaVuSans-73" x="708.59375"/>
      <use xlink:href="#DejaVuSans-20" x="760.693359"/>
      <use xlink:href="#DejaVuSans-72" x="792.480469"/>
      <use xlink:href="#DejaVuSans-61" x="833.59375"/>
      <use xlink:href="#DejaVuSans-74" x="894.873047"/>
      <use xlink:href="#DejaVuSans-69" x="934.082031"/>
      <use xlink:href="#DejaVuSans-6f" x="961.865234"/>
     </g>
    </g>
   </g>
   <g id="matplotlib.axis_2">
    <g id="ytick_1">
     <g id="line2d_33">
      <path d="M 34.16 288.453725 
L 453.192 288.453725 
" clip-path="url(#pfe442b587f)" style="fill: none; stroke: #b0b0b0; stroke-width: 0.8; stroke-linecap: square"/>
     </g>
     <g id="line2d_34">
      <defs>
       <path id="m9e91b44a38" d="M 0 0 
L -3.5 0 
" style="stroke: #000000; stroke-width: 0.8"/>
      </defs>
      <g>
       <use xlink:href="#m9e91b44a38" x="34.16" y="288.453725" style="stroke: #000000; stroke-width: 0.8"/>
      </g>
     </g>
    </g>
    <g id="ytick_2">
     <g id="line2d_35">
      <path d="M 34.16 217.796863 
L 453.192 217.796863 
" clip-path="url(#pfe442b587f)" style="fill: none; stroke: #b0b0b0; stroke-width: 0.8; stroke-linecap: square"/>
     </g>
     <g id="line2d_36">
      <g>
       <use xlink:href="#m9e91b44a38" x="34.16" y="217.796863" style="stroke: #000000; stroke-width: 0.8"/>
      </g>
     </g>
    </g>
    <g id="ytick_3">
     <g id="line2d_37">
      <path d="M 34.16 147.14 
L 453.192 147.14 
" clip-path="url(#pfe442b587f)" style="fill: none; stroke: #b0b0b0; stroke-width: 0.8; stroke-linecap: square"/>
     </g>
     <g id="line2d_38">
      <g>
       <use xlink:href="#m9e91b44a38" x="34.16" y="147.14" style="stroke: #000000; stroke-width: 0.8"/>
      </g>
     </g>
    </g>
    <g id="ytick_4">
     <g id="line2d_39">
      <path d="M 34.16 76.483137 
L 453.192 76.483137 
" clip-path="url(#pfe442b587f)" style="fill: none; stroke: #b0b0b0; stroke-width: 0.8; stroke-linecap: square"/>
     </g>
     <g id="line2d_40">
      <g>
       <use xlink:href="#m9e91b44a38" x="34.16" y="76.483137" style="stroke: #000000; stroke-width: 0.8"/>
      </g>
     </g>
    </g>
    <g id="ytick_5">
     <g id="line2d_41">
      <path d="M 34.16 5.826275 
L 453.192 5.826275 
" clip-path="url(#pfe442b587f)" style="fill: none; stroke: #b0b0b0; stroke-width: 0.8; stroke-linecap: square"/>
     </g>
     <g id="line2d_42">
      <g>
       <use xlink:href="#m9e91b44a38" x="34.16" y="5.826275" style="stroke: #000000; stroke-width: 0.8"/>
      </g>
     </g>
    </g>
    <g id="text_5">
     <!-- proportion of trials -->
     <g transform="translate(19.000625 240.14625)rotate(-90)scale(0.2 -0.2)">
      <defs>
       <path id="DejaVuSans-70" d="M 1159 525 
L 1159 -1331 
L 581 -1331 
L 581 3500 
L 1159 3500 
L 1159 2969 
Q 1341 3281 1617 3432 
Q 1894 3584 2278 3584 
Q 2916 3584 3314 3078 
Q 3713 2572 3713 1747 
Q 3713 922 3314 415 
Q 2916 -91 2278 -91 
Q 1894 -91 1617 61 
Q 1341 213 1159 525 
z
M 3116 1747 
Q 3116 2381 2855 2742 
Q 2594 3103 2138 3103 
Q 1681 3103 1420 2742 
Q 1159 2381 1159 1747 
Q 1159 1113 1420 752 
Q 1681 391 2138 391 
Q 2594 391 2855 752 
Q 3116 1113 3116 1747 
z
" transform="scale(0.015625)"/>
       <path id="DejaVuSans-6e" d="M 3513 2113 
L 3513 0 
L 2938 0 
L 2938 2094 
Q 2938 2591 2744 2837 
Q 2550 3084 2163 3084 
Q 1697 3084 1428 2787 
Q 1159 2491 1159 1978 
L 1159 0 
L 581 0 
L 581 3500 
L 1159 3500 
L 1159 2956 
Q 1366 3272 1645 3428 
Q 1925 3584 2291 3584 
Q 2894 3584 3203 3211 
Q 3513 2838 3513 2113 
z
" transform="scale(0.015625)"/>
      </defs>
      <use xlink:href="#DejaVuSans-70"/>
      <use xlink:href="#DejaVuSans-72" x="63.476562"/>
      <use xlink:href="#DejaVuSans-6f" x="102.339844"/>
      <use xlink:href="#DejaVuSans-70" x="163.521484"/>
      <use xlink:href="#DejaVuSans-6f" x="226.998047"/>
      <use xlink:href="#DejaVuSans-72" x="288.179688"/>
      <use xlink:href="#DejaVuSans-74" x="329.292969"/>
      <use xlink:href="#DejaVuSans-69" x="368.501953"/>
      <use xlink:href="#DejaVuSans-6f" x="396.285156"/>
      <use xlink:href="#DejaVuSans-6e" x="457.466797"/>
      <use xlink:href="#DejaVuSans-20" x="520.845703"/>
      <use xlink:href="#DejaVuSans-6f" x="552.632812"/>
      <use xlink:href="#DejaVuSans-66" x="613.814453"/>
      <use xlink:href="#DejaVuSans-20" x="649.019531"/>
      <use xlink:href="#DejaVuSans-74" x="680.806641"/>
      <use xlink:href="#DejaVuSans-72" x="720.015625"/>
      <use xlink:href="#DejaVuSans-69" x="761.128906"/>
      <use xlink:href="#DejaVuSans-61" x="788.912109"/>
      <use xlink:href="#DejaVuSans-6c" x="850.191406"/>
      <use xlink:href="#DejaVuSans-73" x="877.974609"/>
     </g>
    </g>
   </g>
   <g id="line2d_43">
    <path d="M 34.16 288.453725 
L 77.502534 288.453725 
L 77.502534 286.192706 
L 101.801112 286.192706 
L 101.801112 283.931686 
L 108.500846 283.931686 
L 108.500846 283.178013 
L 114.838182 283.178013 
L 114.838182 282.42434 
L 119.696566 282.42434 
L 119.696566 281.670667 
L 126.033901 281.670667 
L 126.033901 280.916993 
L 128.776498 280.916993 
L 128.776498 280.16332 
L 131.88588 280.16332 
L 131.88588 275.641281 
L 135.113833 275.641281 
L 135.113833 274.887608 
L 135.269675 274.887608 
L 135.269675 274.133935 
L 136.563584 274.133935 
L 136.563584 273.380261 
L 139.597502 273.380261 
L 139.597502 272.626588 
L 141.607011 272.626588 
L 141.607011 271.872915 
L 141.922608 271.872915 
L 141.922608 271.119242 
L 144.741371 271.119242 
L 144.829245 269.611895 
L 145.934838 269.611895 
L 145.934838 268.858222 
L 148.259944 268.858222 
L 148.259944 268.104549 
L 151.16658 268.104549 
L 151.16658 267.350876 
L 157.601215 267.350876 
L 157.601215 266.597203 
L 158.110297 266.597203 
L 158.110297 265.843529 
L 159.274804 265.843529 
L 159.274804 265.089856 
L 159.889207 265.089856 
L 159.889207 264.336183 
L 160.797843 264.336183 
L 160.862161 262.828837 
L 161.183116 262.828837 
L 161.183116 261.32149 
L 161.494092 261.32149 
L 161.494092 260.567817 
L 162.119087 260.567817 
L 162.119087 259.814144 
L 163.938551 259.814144 
L 164.025408 258.306797 
L 165.124011 258.306797 
L 165.191905 256.045778 
L 165.279981 256.045778 
L 165.279981 255.292105 
L 165.612139 255.292105 
L 165.612139 254.538431 
L 166.226542 254.538431 
L 166.226542 253.784758 
L 167.135178 253.784758 
L 167.135178 253.031085 
L 167.831428 253.031085 
L 167.831428 252.277412 
L 171.461347 252.277412 
L 171.461347 251.523739 
L 173.179242 251.523739 
L 173.179242 250.770065 
L 173.314956 250.770065 
L 173.314956 250.016392 
L 173.826957 250.016392 
L 173.826957 249.262719 
L 175.168922 249.262719 
L 175.168922 248.509046 
L 177.188032 248.509046 
L 177.188032 247.755373 
L 182.114049 247.755373 
L 182.114049 246.248026 
L 186.244156 246.248026 
L 186.244156 245.494353 
L 188.323985 245.494353 
L 188.323985 244.74068 
L 189.995406 244.74068 
L 189.995406 243.987007 
L 190.520601 243.987007 
L 190.520601 243.233333 
L 190.946929 243.233333 
L 190.946929 241.725987 
L 193.005129 241.725987 
L 193.005129 240.972314 
L 193.304738 240.972314 
L 193.304738 240.218641 
L 193.768785 240.218641 
L 193.853566 238.711294 
L 194.577216 238.711294 
L 194.577216 237.957621 
L 195.707532 237.957621 
L 195.707532 237.203948 
L 197.777574 237.203948 
L 197.777574 236.450275 
L 198.125535 236.450275 
L 198.125535 235.696601 
L 198.446489 235.696601 
L 198.446489 234.942928 
L 198.586006 234.942928 
L 198.586006 234.189255 
L 200.641067 234.189255 
L 200.641067 233.435582 
L 201.191125 233.435582 
L 201.288781 231.928235 
L 202.455279 231.928235 
L 202.455279 231.174562 
L 202.993989 231.174562 
L 202.993989 230.420889 
L 204.200849 230.420889 
L 204.200849 229.667216 
L 204.649856 229.667216 
L 204.649856 228.913542 
L 206.412627 228.913542 
L 206.412627 226.652523 
L 206.733581 226.652523 
L 206.733581 225.89885 
L 210.271057 225.89885 
L 210.271057 225.145176 
L 210.74237 225.145176 
L 210.74237 224.391503 
L 211.036652 224.391503 
L 211.090331 222.130484 
L 213.280781 222.130484 
L 213.349253 219.869464 
L 214.817742 219.869464 
L 214.817742 219.115791 
L 214.963894 219.115791 
L 215.045441 217.608444 
L 215.314949 217.608444 
L 215.393401 216.101098 
L 216.671708 216.101098 
L 216.764235 214.593752 
L 217.358042 214.593752 
L 217.358042 213.840078 
L 218.036713 213.840078 
L 218.036713 212.332732 
L 218.408753 212.332732 
L 218.408753 210.825386 
L 218.729708 210.825386 
L 218.729708 210.071712 
L 219.067147 210.071712 
L 219.067147 209.318039 
L 219.773958 209.318039 
L 219.773958 208.564366 
L 221.092062 208.564366 
L 221.092062 207.810693 
L 221.878324 207.810693 
L 221.878324 207.05702 
L 222.738497 207.05702 
L 222.738497 206.303346 
L 223.417168 206.303346 
L 223.509431 204.796 
L 223.532599 204.796 
L 223.532599 204.042327 
L 223.73229 204.042327 
L 223.73229 203.288654 
L 224.085776 203.288654 
L 224.101786 201.781307 
L 224.873309 201.781307 
L 224.873309 201.027634 
L 225.587359 201.027634 
L 225.689176 199.520288 
L 226.323804 199.520288 
L 226.426891 198.012941 
L 228.094566 198.012941 
L 228.094566 197.259268 
L 228.210303 197.259268 
L 228.210303 195.751922 
L 228.607055 195.751922 
L 228.607055 194.998248 
L 229.333528 194.998248 
L 229.333528 194.244575 
L 230.032839 194.244575 
L 230.032839 193.490902 
L 230.455813 193.490902 
L 230.455813 192.737229 
L 230.711204 192.737229 
L 230.711204 191.983556 
L 231.679873 191.983556 
L 231.679873 190.476209 
L 232.023387 190.476209 
L 232.023387 189.722536 
L 232.376006 189.722536 
L 232.376006 188.968863 
L 233.874451 188.968863 
L 233.874451 188.21519 
L 234.142579 188.21519 
L 234.142579 187.461516 
L 234.939034 187.461516 
L 234.939034 186.707843 
L 235.388908 186.707843 
L 235.388908 185.95417 
L 235.794644 185.95417 
L 235.853558 183.69315 
L 236.069028 183.69315 
L 236.069028 182.939477 
L 236.497395 182.939477 
L 236.497395 179.924784 
L 238.011852 179.924784 
L 238.040154 177.663765 
L 239.083969 177.663765 
L 239.095775 176.156418 
L 239.31925 176.156418 
L 239.31925 175.402745 
L 239.605756 175.402745 
L 239.691979 173.141725 
L 240.769363 173.141725 
L 240.769363 172.388052 
L 241.383766 172.388052 
L 241.383766 171.634379 
L 242.105498 171.634379 
L 242.105498 170.880706 
L 242.292402 170.880706 
L 242.292402 170.127033 
L 242.988652 170.127033 
L 242.988652 169.373359 
L 243.288929 169.373359 
L 243.32804 167.866013 
L 243.676 167.866013 
L 243.779087 107.572157 
L 244.048041 107.572157 
L 244.048041 106.818484 
L 244.39349 106.818484 
L 244.496774 105.311137 
L 245.14896 105.311137 
L 245.14896 104.557464 
L 245.302126 104.557464 
L 245.302126 103.803791 
L 245.998376 103.803791 
L 246.011181 102.296444 
L 246.227786 102.296444 
L 246.227786 101.542771 
L 246.618571 101.542771 
L 246.618571 100.789098 
L 248.353704 100.789098 
L 248.353704 100.035425 
L 249.581651 100.035425 
L 249.628294 97.774405 
L 250.007979 97.774405 
L 250.007979 97.020732 
L 250.622382 97.020732 
L 250.622382 96.267059 
L 250.994423 96.267059 
L 250.994423 95.513386 
L 251.430813 95.513386 
L 251.430813 94.759712 
L 251.557356 94.759712 
L 251.642138 93.252366 
L 252.829834 93.252366 
L 252.914616 91.74502 
L 254.838627 91.74502 
L 254.838627 90.991346 
L 255.300086 90.991346 
L 255.300086 90.237673 
L 255.672127 90.237673 
L 255.672127 88.730327 
L 255.969965 88.730327 
L 255.969965 87.976654 
L 256.817734 87.976654 
L 256.838624 86.469307 
L 257.494664 86.469307 
L 257.494664 85.715634 
L 258.295071 85.715634 
L 258.295071 84.961961 
L 258.578764 84.961961 
L 258.578764 84.208288 
L 260.093221 84.208288 
L 260.093221 82.700941 
L 260.569932 82.700941 
L 260.569932 81.947268 
L 260.795972 81.947268 
L 260.795972 80.439922 
L 261.201707 80.439922 
L 261.201707 79.686248 
L 261.899209 79.686248 
L 261.899209 78.932575 
L 262.716165 78.932575 
L 262.716165 78.178902 
L 263.587178 78.178902 
L 263.587178 77.425229 
L 263.878316 77.425229 
L 263.922808 75.917882 
L 264.265542 75.917882 
L 264.265542 75.164209 
L 264.570131 75.164209 
L 264.570131 74.410536 
L 265.012217 74.410536 
L 265.073974 72.90319 
L 265.473676 72.90319 
L 265.473676 71.395843 
L 267.191962 71.395843 
L 267.191962 70.64217 
L 267.630514 70.64217 
L 267.630514 69.888497 
L 267.890249 69.888497 
L 267.890249 69.134824 
L 268.943247 69.134824 
L 268.943247 68.38115 
L 269.776747 68.38115 
L 269.776747 66.873804 
L 270.12026 66.873804 
L 270.20285 65.366458 
L 270.597521 65.366458 
L 270.597521 64.612784 
L 271.137824 64.612784 
L 271.137824 63.859111 
L 271.405953 63.859111 
L 271.405953 63.105438 
L 271.958599 63.105438 
L 271.958599 62.351765 
L 272.072799 62.351765 
L 272.072799 61.598092 
L 272.652282 61.598092 
L 272.652282 60.844418 
L 273.878791 60.844418 
L 273.973678 59.337072 
L 274.252544 59.337072 
L 274.252544 58.583399 
L 275.275225 58.583399 
L 275.275225 57.829725 
L 275.583305 57.829725 
L 275.647266 56.322379 
L 276.261669 56.322379 
L 276.261669 55.568706 
L 277.170305 55.568706 
L 277.230338 54.061359 
L 277.469803 54.061359 
L 277.469803 53.307686 
L 277.866555 53.307686 
L 277.866555 52.554013 
L 279.019181 52.554013 
L 279.019181 51.80034 
L 279.542939 51.80034 
L 279.542939 51.046667 
L 279.92181 51.046667 
L 279.92181 50.292993 
L 280.939373 50.292993 
L 280.939373 48.785647 
L 281.496474 48.785647 
L 281.533409 47.278301 
L 283.562317 47.278301 
L 283.562317 46.524627 
L 283.84601 46.524627 
L 283.84601 45.770954 
L 284.461418 45.770954 
L 284.461418 45.017281 
L 286.603521 45.017281 
L 286.603521 44.263608 
L 287.865388 44.263608 
L 287.865388 43.509935 
L 289.226465 43.509935 
L 289.226465 42.756261 
L 290.177989 42.756261 
L 290.177989 38.987895 
L 291.084436 38.987895 
L 291.084436 38.234222 
L 292.395197 38.234222 
L 292.395197 37.480549 
L 294.582534 37.480549 
L 294.582534 36.726876 
L 295.558444 36.726876 
L 295.558444 35.973203 
L 296.172847 35.973203 
L 296.172847 35.219529 
L 298.145018 35.219529 
L 298.145018 34.465856 
L 300.914513 34.465856 
L 300.914513 33.712183 
L 302.73705 33.712183 
L 302.73705 30.69749 
L 304.716157 30.69749 
L 304.716157 29.943817 
L 305.425594 29.943817 
L 305.425594 29.190144 
L 308.468355 29.190144 
L 308.468355 28.436471 
L 309.683431 28.436471 
L 309.683431 27.682797 
L 309.816008 27.682797 
L 309.816008 26.929124 
L 312.486176 26.929124 
L 312.486176 26.175451 
L 312.91064 26.175451 
L 312.91064 25.421778 
L 315.090385 25.421778 
L 315.090385 24.668105 
L 316.147987 24.668105 
L 316.147987 23.914431 
L 319.857022 23.914431 
L 319.857022 23.160758 
L 321.168405 23.160758 
L 321.168405 22.407085 
L 321.777214 22.407085 
L 321.777214 21.653412 
L 323.326592 21.653412 
L 323.326592 20.899739 
L 324.178129 20.899739 
L 324.178129 20.146065 
L 324.783488 20.146065 
L 324.783488 19.392392 
L 327.441362 19.392392 
L 327.441362 18.638719 
L 327.793212 18.638719 
L 327.793212 17.885046 
L 329.658571 17.885046 
L 329.658571 17.131373 
L 330.198874 17.131373 
L 330.198874 16.377699 
L 338.982859 16.377699 
L 338.982859 15.624026 
L 340.000423 15.624026 
L 340.000423 14.870353 
L 348.287515 14.870353 
L 348.287515 13.363007 
L 353.324017 13.363007 
L 353.324017 12.609333 
L 356.046308 12.609333 
L 356.046308 11.85566 
L 359.661391 11.85566 
L 359.661391 11.101987 
L 367.462247 11.101987 
L 367.462247 10.348314 
L 372.586092 10.348314 
L 372.586092 9.594641 
L 377.263796 9.594641 
L 377.263796 8.840967 
L 381.566867 8.840967 
L 381.566867 8.087294 
L 401.968109 8.087294 
L 401.968109 6.579948 
L 414.52717 6.579948 
L 414.52717 5.826275 
L 453.192 5.826275 
L 453.192 5.826275 
" clip-path="url(#pfe442b587f)" style="fill: none; stroke: #000000; stroke-width: 3; stroke-linecap: square"/>
   </g>
   <g id="line2d_44">
    <path clip-path="url(#pfe442b587f)" style="fill: none; stroke: #000000; stroke-width: 3; stroke-linecap: square"/>
   </g>
   <g id="line2d_45">
    <path d="M 34.16 288.453725 
L 77.092099 288.453725 
L 77.092099 286.946379 
L 78.942355 286.946379 
L 78.942355 285.439033 
L 85.451072 285.439033 
L 85.451072 284.685359 
L 89.147957 284.685359 
L 89.147957 283.178013 
L 89.711771 283.178013 
L 89.711771 282.42434 
L 91.008091 282.42434 
L 91.008091 281.670667 
L 91.803296 281.670667 
L 91.803296 280.916993 
L 96.0005 280.916993 
L 96.0005 280.16332 
L 97.850756 280.16332 
L 97.918938 278.655974 
L 98.368824 278.655974 
L 98.368824 277.902301 
L 100.596907 277.902301 
L 100.596907 277.148627 
L 103.146689 277.148627 
L 103.146689 276.394954 
L 103.669725 276.394954 
L 103.669725 275.641281 
L 104.952833 275.641281 
L 104.952833 274.887608 
L 105.383152 274.887608 
L 105.383152 274.133935 
L 106.65422 274.133935 
L 106.65422 273.380261 
L 106.934095 273.380261 
L 106.997966 271.872915 
L 107.066203 271.872915 
L 107.066203 271.119242 
L 107.444107 271.119242 
L 107.444107 270.365569 
L 107.672293 270.365569 
L 107.672293 269.611895 
L 108.74633 269.611895 
L 108.848222 268.104549 
L 109.294363 268.104549 
L 109.294363 267.350876 
L 110.260787 267.350876 
L 110.260787 266.597203 
L 113.492912 266.597203 
L 113.492912 265.843529 
L 120.954712 265.843529 
L 120.954712 265.089856 
L 121.557603 265.089856 
L 121.557603 264.336183 
L 131.377615 264.336183 
L 131.377615 263.58251 
L 133.614078 263.58251 
L 133.614078 262.828837 
L 134.885145 262.828837 
L 134.885145 262.075163 
L 135.422535 262.075163 
L 135.422535 261.32149 
L 136.132021 261.32149 
L 136.132021 260.567817 
L 137.658997 260.567817 
L 137.658997 259.814144 
L 137.928983 259.814144 
L 137.928983 259.060471 
L 138.368483 259.060471 
L 138.368483 258.306797 
L 138.930065 258.306797 
L 138.930065 257.553124 
L 139.436818 257.553124 
L 139.436818 256.799451 
L 139.639551 256.799451 
L 139.639551 256.045778 
L 141.287073 256.045778 
L 141.287073 255.292105 
L 143.912522 255.292105 
L 143.912522 254.538431 
L 147.578192 254.538431 
L 147.578192 253.784758 
L 149.788529 253.784758 
L 149.788529 253.031085 
L 153.833448 253.031085 
L 153.833448 252.277412 
L 154.542934 252.277412 
L 154.542934 251.523739 
L 175.809117 251.523739 
L 175.809117 250.770065 
L 177.088886 250.770065 
L 177.088886 250.016392 
L 177.468777 250.016392 
L 177.468777 249.262719 
L 179.328981 249.262719 
L 179.328981 248.509046 
L 179.774072 248.509046 
L 179.854037 247.001699 
L 180.563523 247.001699 
L 180.563523 246.248026 
L 181.484335 246.248026 
L 181.484335 245.494353 
L 184.433022 245.494353 
L 184.433022 244.74068 
L 188.129907 244.74068 
L 188.129907 243.233333 
L 190.785246 243.233333 
L 190.785246 242.47966 
L 191.759646 242.47966 
L 191.759646 241.725987 
L 193.484988 241.725987 
L 193.484988 240.972314 
L 193.996109 240.972314 
L 193.996109 240.218641 
L 195.267177 240.218641 
L 195.335244 238.711294 
L 196.900888 238.711294 
L 196.900888 237.957621 
L 199.16348 237.957621 
L 199.16348 237.203948 
L 199.578857 237.203948 
L 199.578857 236.450275 
L 201.013735 236.450275 
L 201.013735 235.696601 
L 202.651675 235.696601 
L 202.651675 234.942928 
L 203.934783 234.942928 
L 203.934783 234.189255 
L 205.319811 234.189255 
L 205.319811 233.435582 
L 205.63686 233.435582 
L 205.699703 231.174562 
L 205.860607 231.174562 
L 205.860607 230.420889 
L 206.048153 230.420889 
L 206.048153 229.667216 
L 206.654244 229.667216 
L 206.654244 228.913542 
L 207.089625 228.913542 
L 207.156927 227.406196 
L 207.559906 227.406196 
L 207.559906 226.652523 
L 207.677619 226.652523 
L 207.72828 224.391503 
L 208.004998 224.391503 
L 208.004998 223.63783 
L 208.740249 223.63783 
L 208.740249 222.884157 
L 209.242737 222.884157 
L 209.242737 222.130484 
L 209.364731 222.130484 
L 209.364731 221.37681 
L 209.715261 221.37681 
L 209.744622 219.869464 
L 210.074217 219.869464 
L 210.17056 218.362118 
L 210.454108 218.362118 
L 210.454108 217.608444 
L 211.604826 217.608444 
L 211.604826 216.854771 
L 212.049917 216.854771 
L 212.049917 216.101098 
L 212.314312 216.101098 
L 212.314312 215.347425 
L 212.437134 215.347425 
L 212.540311 212.332732 
L 212.759404 212.332732 
L 212.759404 211.579059 
L 213.35287 211.579059 
L 213.35287 210.825386 
L 213.76018 210.825386 
L 213.833598 209.318039 
L 214.469666 209.318039 
L 214.517659 207.810693 
L 214.937164 207.810693 
L 214.937164 207.05702 
L 215.092473 207.05702 
L 215.129918 205.549673 
L 218.538139 205.549673 
L 218.538139 204.796 
L 219.517858 204.796 
L 219.517858 204.042327 
L 219.936663 204.042327 
L 219.936663 203.288654 
L 220.854299 203.288654 
L 220.854299 202.53498 
L 221.208114 202.53498 
L 221.208114 201.781307 
L 222.490651 201.781307 
L 222.490651 201.027634 
L 223.08293 201.027634 
L 223.118833 199.520288 
L 223.886083 199.520288 
L 223.886083 198.766614 
L 224.545261 198.766614 
L 224.545261 198.012941 
L 225.347894 198.012941 
L 225.434993 196.505595 
L 225.611165 196.505595 
L 225.611165 195.751922 
L 225.994688 195.751922 
L 225.994688 194.998248 
L 226.586019 194.998248 
L 226.586019 194.244575 
L 226.907485 194.244575 
L 226.958902 192.737229 
L 227.139662 192.737229 
L 227.139662 191.983556 
L 228.24201 191.983556 
L 228.260758 190.476209 
L 229.595664 190.476209 
L 229.595664 189.722536 
L 229.928589 189.722536 
L 229.928589 188.968863 
L 230.355379 188.968863 
L 230.355379 188.21519 
L 230.740637 188.21519 
L 230.740637 187.461516 
L 230.96147 187.461516 
L 231.055922 185.95417 
L 231.132703 185.95417 
L 231.132703 185.200497 
L 231.861733 185.200497 
L 231.911824 183.69315 
L 232.035506 183.69315 
L 232.035506 182.939477 
L 232.429023 182.939477 
L 232.429023 182.185804 
L 233.056797 182.185804 
L 233.056797 181.432131 
L 233.549964 181.432131 
L 233.549964 180.678458 
L 233.874451 180.678458 
L 233.984311 179.171111 
L 234.177893 179.171111 
L 234.268217 176.910092 
L 234.446848 176.910092 
L 234.446848 176.156418 
L 234.894475 176.156418 
L 234.894475 175.402745 
L 235.320551 175.402745 
L 235.320551 174.649072 
L 235.542727 174.649072 
L 235.542727 173.895399 
L 235.834567 173.895399 
L 235.834567 173.141725 
L 235.988868 173.141725 
L 235.988868 172.388052 
L 236.191149 172.388052 
L 236.191149 171.634379 
L 236.405419 171.634379 
L 236.405419 170.880706 
L 236.782089 170.880706 
L 236.782089 170.127033 
L 236.910933 170.127033 
L 236.910933 169.373359 
L 237.550393 169.373359 
L 237.583486 166.358667 
L 238.029627 166.358667 
L 238.095917 164.097647 
L 238.46698 164.097647 
L 238.495451 161.836627 
L 238.671488 161.836627 
L 238.671488 161.082954 
L 238.800867 161.082954 
L 238.800867 160.329281 
L 239.36547 160.329281 
L 239.36547 159.575608 
L 239.789756 159.575608 
L 239.789756 158.821935 
L 240.074956 158.821935 
L 240.074956 158.068261 
L 240.226674 158.068261 
L 240.226674 157.314588 
L 240.363984 157.314588 
L 240.363984 156.560915 
L 240.478325 156.560915 
L 240.585762 155.053569 
L 240.718861 155.053569 
L 240.811611 152.792549 
L 241.188834 152.792549 
L 241.188834 152.038876 
L 241.532473 152.038876 
L 241.583796 150.531529 
L 241.696892 150.531529 
L 241.696892 149.777856 
L 242.162859 149.777856 
L 242.162859 149.024183 
L 242.436018 149.024183 
L 242.436018 148.27051 
L 242.833488 148.27051 
L 242.833488 147.516837 
L 243.180254 147.516837 
L 243.180254 146.763163 
L 243.457019 146.763163 
L 243.527756 144.502144 
L 243.600229 144.502144 
L 243.600229 143.748471 
L 244.013052 143.748471 
L 244.0793 142.241124 
L 244.243889 142.241124 
L 244.319836 140.733778 
L 244.729437 140.733778 
L 244.816156 139.226431 
L 244.857579 139.226431 
L 244.857579 138.472758 
L 245.03051 138.472758 
L 245.03051 137.719085 
L 245.150103 137.719085 
L 245.229357 135.458065 
L 245.277698 135.458065 
L 245.378012 132.443373 
L 245.525643 132.443373 
L 245.628716 130.936026 
L 246.025757 130.936026 
L 246.025757 130.182353 
L 246.338202 130.182353 
L 246.422672 127.16766 
L 246.635996 127.16766 
L 246.635996 126.413987 
L 247.000359 126.413987 
L 247.000359 125.660314 
L 247.201204 125.660314 
L 247.201204 124.906641 
L 247.543767 124.906641 
L 247.543767 124.152967 
L 247.884696 124.152967 
L 247.884696 123.399294 
L 248.355027 123.399294 
L 248.355027 122.645621 
L 248.506648 122.645621 
L 248.506648 121.891948 
L 249.020285 121.891948 
L 249.020285 121.138275 
L 249.517364 121.138275 
L 249.517364 120.384601 
L 250.819912 120.384601 
L 250.889056 118.877255 
L 251.129592 118.877255 
L 251.129592 118.123582 
L 252.093103 118.123582 
L 252.093103 117.369908 
L 252.970379 117.369908 
L 252.970379 116.616235 
L 253.376211 116.616235 
L 253.386489 115.108889 
L 253.729858 115.108889 
L 253.729858 114.355216 
L 254.000338 114.355216 
L 254.010959 112.847869 
L 254.177485 112.847869 
L 254.177485 112.094196 
L 255.489581 112.094196 
L 255.489581 111.340523 
L 256.095672 111.340523 
L 256.095672 110.58685 
L 256.571354 110.58685 
L 256.678307 109.079503 
L 257.169708 109.079503 
L 257.169708 108.32583 
L 257.375381 108.32583 
L 257.378927 106.818484 
L 258.684165 106.818484 
L 258.684165 106.06481 
L 258.887514 106.06481 
L 258.887514 105.311137 
L 259.385183 105.311137 
L 259.385183 104.557464 
L 259.751125 104.557464 
L 259.761335 103.050118 
L 260.001871 103.050118 
L 260.061358 101.542771 
L 261.034234 101.542771 
L 261.034234 100.789098 
L 261.218159 100.789098 
L 261.218159 100.035425 
L 261.916291 100.035425 
L 261.95176 98.528078 
L 262.883238 98.528078 
L 262.883238 97.774405 
L 263.147603 97.774405 
L 263.147603 97.020732 
L 263.381109 97.020732 
L 263.381109 96.267059 
L 263.753694 96.267059 
L 263.753694 95.513386 
L 264.226512 95.513386 
L 264.226512 94.759712 
L 264.82773 94.759712 
L 264.82773 94.006039 
L 265.522832 94.006039 
L 265.522832 93.252366 
L 265.701843 93.252366 
L 265.740569 91.74502 
L 266.081734 91.74502 
L 266.081734 90.991346 
L 266.342187 90.991346 
L 266.342187 90.237673 
L 267.036889 90.237673 
L 267.036889 89.484 
L 267.941938 89.484 
L 268.034349 87.22298 
L 268.372847 87.22298 
L 268.387029 85.715634 
L 268.818988 85.715634 
L 268.818988 84.961961 
L 268.962926 84.961961 
L 268.962926 84.208288 
L 269.378091 84.208288 
L 269.419759 82.700941 
L 269.574313 82.700941 
L 269.574313 81.947268 
L 270.022337 81.947268 
L 270.097292 80.439922 
L 270.259246 80.439922 
L 270.259246 79.686248 
L 271.408426 79.686248 
L 271.408426 78.932575 
L 272.178455 78.932575 
L 272.253388 77.425229 
L 272.883564 77.425229 
L 272.883564 76.671556 
L 273.464679 76.671556 
L 273.474775 75.164209 
L 273.9076 75.164209 
L 273.9076 74.410536 
L 274.174165 74.410536 
L 274.174165 73.656863 
L 274.397622 73.656863 
L 274.397622 72.90319 
L 275.757856 72.90319 
L 275.757856 72.149516 
L 277.036113 72.149516 
L 277.036113 71.395843 
L 277.619978 71.395843 
L 277.619978 70.64217 
L 279.811916 70.64217 
L 279.811916 69.888497 
L 280.113104 69.888497 
L 280.166702 68.38115 
L 280.835507 68.38115 
L 280.835507 67.627477 
L 281.409424 67.627477 
L 281.463022 65.366458 
L 282.962893 65.366458 
L 282.962893 64.612784 
L 285.333454 64.612784 
L 285.333454 63.859111 
L 286.185249 63.859111 
L 286.185249 63.105438 
L 286.352361 63.105438 
L 286.352361 62.351765 
L 288.770156 62.351765 
L 288.823755 60.844418 
L 289.400778 60.844418 
L 289.400778 60.090745 
L 294.010383 60.090745 
L 294.010383 59.337072 
L 295.702582 59.337072 
L 295.702582 58.583399 
L 296.36361 58.583399 
L 296.36361 57.829725 
L 297.335427 57.829725 
L 297.389026 56.322379 
L 298.930188 56.322379 
L 298.930188 55.568706 
L 299.639352 55.568706 
L 299.639352 54.815033 
L 300.811698 54.815033 
L 300.811698 54.061359 
L 301.153268 54.061359 
L 301.153268 53.307686 
L 301.965827 53.307686 
L 301.965827 52.554013 
L 303.684271 52.554013 
L 303.684271 51.80034 
L 304.393757 51.80034 
L 304.393757 51.046667 
L 311.623748 51.046667 
L 311.623748 50.292993 
L 312.920067 50.292993 
L 312.920067 49.53932 
L 315.878676 49.53932 
L 315.878676 48.785647 
L 317.174996 48.785647 
L 317.174996 48.031974 
L 318.427263 48.031974 
L 318.427263 47.278301 
L 319.94132 47.278301 
L 319.94132 46.524627 
L 320.2808 46.524627 
L 320.2808 45.770954 
L 322.029749 45.770954 
L 322.029749 45.017281 
L 323.163676 45.017281 
L 323.163676 44.263608 
L 324.070508 44.263608 
L 324.070508 43.509935 
L 324.535728 43.509935 
L 324.535728 42.756261 
L 325.732763 42.756261 
L 325.732763 42.002588 
L 326.379206 42.002588 
L 326.379206 41.248915 
L 327.708241 41.248915 
L 327.708241 40.495242 
L 328.846071 40.495242 
L 328.846071 39.741569 
L 329.18999 39.741569 
L 329.18999 38.987895 
L 329.333738 38.987895 
L 329.333738 38.234222 
L 329.748999 38.234222 
L 329.801791 36.726876 
L 331.649898 36.726876 
L 331.649898 35.973203 
L 332.790965 35.973203 
L 332.790965 35.219529 
L 333.100999 35.219529 
L 333.100999 34.465856 
L 334.313855 34.465856 
L 334.367453 32.95851 
L 335.107125 32.95851 
L 335.107125 32.204837 
L 336.143493 32.204837 
L 336.143493 31.451163 
L 339.600721 31.451163 
L 339.600721 30.69749 
L 345.015772 30.69749 
L 345.015772 29.943817 
L 348.473 29.943817 
L 348.473 29.190144 
L 354.859869 29.190144 
L 354.859869 28.436471 
L 360.021383 28.436471 
L 360.021383 27.682797 
L 360.53836 27.682797 
L 360.53836 26.929124 
L 362.529072 26.929124 
L 362.529072 26.175451 
L 364.569831 26.175451 
L 364.569831 25.421778 
L 365.824498 25.421778 
L 365.824498 24.668105 
L 369.130523 24.668105 
L 369.130523 23.914431 
L 370.079427 23.914431 
L 370.079427 23.160758 
L 371.057079 23.160758 
L 371.057079 22.407085 
L 371.171282 22.407085 
L 371.171282 21.653412 
L 371.725015 21.653412 
L 371.725015 20.899739 
L 372.00178 20.899739 
L 372.072517 19.392392 
L 373.694864 19.392392 
L 373.765774 17.885046 
L 374.042539 17.885046 
L 374.113275 16.377699 
L 374.658055 16.377699 
L 374.658055 15.624026 
L 375.735623 15.624026 
L 375.735623 14.870353 
L 376.974215 14.870353 
L 376.974215 14.11668 
L 381.46781 14.11668 
L 381.46781 13.363007 
L 390.340089 13.363007 
L 390.340089 12.609333 
L 395.359192 12.609333 
L 395.359192 11.85566 
L 401.960643 11.85566 
L 401.960643 11.101987 
L 402.452361 11.101987 
L 402.452361 10.348314 
L 404.49312 10.348314 
L 404.555135 8.840967 
L 404.8319 8.840967 
L 404.902636 7.333621 
L 406.524984 7.333621 
L 406.524984 6.579948 
L 435.282481 6.579948 
L 435.282481 5.826275 
L 453.192 5.826275 
L 453.192 5.826275 
" clip-path="url(#pfe442b587f)" style="fill: none; stroke: #00bfbf; stroke-width: 3; stroke-linecap: square"/>
   </g>
   <g id="line2d_46">
    <path clip-path="url(#pfe442b587f)" style="fill: none; stroke: #00bfbf; stroke-width: 3; stroke-linecap: square"/>
   </g>
   <g id="line2d_47">
    <path d="M 34.16 288.453725 
L 98.462096 288.453725 
L 98.462096 287.700052 
L 99.361998 287.700052 
L 99.361998 286.946379 
L 99.841048 286.946379 
L 99.841048 286.192706 
L 101.331833 286.192706 
L 101.331833 285.439033 
L 107.457131 285.439033 
L 107.457131 284.685359 
L 109.538179 284.685359 
L 109.538179 283.931686 
L 110.49742 283.931686 
L 110.49742 283.178013 
L 118.550885 283.178013 
L 118.550885 282.42434 
L 119.450787 282.42434 
L 119.450787 281.670667 
L 119.929837 281.670667 
L 119.929837 280.916993 
L 121.420622 280.916993 
L 121.420622 280.16332 
L 122.569552 280.16332 
L 122.569552 279.409647 
L 123.705077 279.409647 
L 123.705077 278.655974 
L 124.604979 278.655974 
L 124.604979 277.902301 
L 124.813618 277.902301 
L 124.813618 277.148627 
L 125.084029 277.148627 
L 125.084029 276.394954 
L 126.574814 276.394954 
L 126.574814 275.641281 
L 135.888548 275.641281 
L 135.888548 274.887608 
L 137.093648 274.887608 
L 137.093648 274.133935 
L 137.969596 274.133935 
L 137.969596 273.380261 
L 138.392194 273.380261 
L 138.392194 272.626588 
L 138.928837 272.626588 
L 138.928837 271.872915 
L 139.119389 271.872915 
L 139.119389 271.119242 
L 139.576474 271.119242 
L 139.576474 270.365569 
L 141.200437 270.365569 
L 141.200437 269.611895 
L 141.657522 269.611895 
L 141.657522 268.858222 
L 142.159678 268.858222 
L 142.159678 268.104549 
L 142.590974 268.104549 
L 142.616763 266.597203 
L 145.158898 266.597203 
L 145.158898 265.843529 
L 148.292311 265.843529 
L 148.292311 265.089856 
L 149.100908 265.089856 
L 149.100908 264.336183 
L 149.357678 264.336183 
L 149.357678 263.58251 
L 151.000969 263.58251 
L 151.064456 262.075163 
L 152.491091 262.075163 
L 152.491091 261.32149 
L 154.23181 261.32149 
L 154.23181 260.567817 
L 154.688895 260.567817 
L 154.688895 259.814144 
L 157.83116 259.814144 
L 157.83116 259.060471 
L 160.964573 259.060471 
L 160.964573 258.306797 
L 161.675485 258.306797 
L 161.675485 257.553124 
L 163.797682 257.553124 
L 163.797682 256.799451 
L 167.387945 256.799451 
L 167.387945 256.045778 
L 168.442189 256.045778 
L 168.442189 255.292105 
L 170.167394 255.292105 
L 170.167394 254.538431 
L 171.287671 254.538431 
L 171.287671 253.784758 
L 171.575602 253.784758 
L 171.575602 253.031085 
L 174.175564 253.031085 
L 174.175564 252.277412 
L 176.798862 252.277412 
L 176.798862 251.523739 
L 177.532325 251.523739 
L 177.532325 250.770065 
L 178.234324 250.770065 
L 178.234324 250.016392 
L 178.906755 250.016392 
L 178.906755 249.262719 
L 180.542538 249.262719 
L 180.542538 248.509046 
L 180.763166 248.509046 
L 180.763166 247.755373 
L 180.972954 247.755373 
L 180.972954 247.001699 
L 181.220251 247.001699 
L 181.220251 246.248026 
L 182.768449 246.248026 
L 182.768449 245.494353 
L 182.976141 245.494353 
L 182.976141 244.74068 
L 183.565566 244.74068 
L 183.565566 243.987007 
L 183.739088 243.987007 
L 183.739088 243.233333 
L 184.460733 243.233333 
L 184.460733 242.47966 
L 186.698979 242.47966 
L 186.698979 241.725987 
L 187.409201 241.725987 
L 187.409201 240.972314 
L 188.725851 240.972314 
L 188.725851 240.218641 
L 190.290523 240.218641 
L 190.290523 239.464967 
L 190.784408 239.464967 
L 190.784408 238.711294 
L 191.81094 238.711294 
L 191.81094 237.957621 
L 193.146331 237.957621 
L 193.146331 237.203948 
L 194.11697 237.203948 
L 194.219919 234.942928 
L 194.405526 234.942928 
L 194.405526 234.189255 
L 195.019197 234.189255 
L 195.019197 233.435582 
L 195.498247 233.435582 
L 195.498247 232.681908 
L 195.85266 232.681908 
L 195.85266 231.928235 
L 196.486574 231.928235 
L 196.486574 231.174562 
L 196.740763 231.174562 
L 196.740763 230.420889 
L 196.989032 230.420889 
L 196.989032 229.667216 
L 197.445815 229.667216 
L 197.445815 228.913542 
L 197.773682 228.913542 
L 197.787083 227.406196 
L 200.270844 227.406196 
L 200.351383 225.89885 
L 201.005881 225.89885 
L 201.005881 225.145176 
L 201.170746 225.145176 
L 201.170746 224.391503 
L 201.649796 224.391503 
L 201.649796 223.63783 
L 202.139916 223.63783 
L 202.139916 222.884157 
L 202.570553 222.884157 
L 202.570553 222.130484 
L 203.064438 222.130484 
L 203.14967 219.869464 
L 204.09097 219.869464 
L 204.09097 219.115791 
L 204.325987 219.115791 
L 204.325987 218.362118 
L 204.550163 218.362118 
L 204.550163 217.608444 
L 206.338696 217.608444 
L 206.338696 216.854771 
L 206.499949 216.854771 
L 206.511233 215.347425 
L 206.665741 215.347425 
L 206.665741 214.593752 
L 206.81351 214.593752 
L 206.81351 213.840078 
L 207.338172 213.840078 
L 207.34845 212.332732 
L 207.767099 212.332732 
L 207.767099 211.579059 
L 208.13269 211.579059 
L 208.13269 210.825386 
L 208.679736 210.825386 
L 208.679736 210.071712 
L 208.973955 210.071712 
L 208.973955 209.318039 
L 209.404371 209.318039 
L 209.509061 207.810693 
L 209.517947 207.810693 
L 209.517947 207.05702 
L 209.896582 207.05702 
L 209.896582 206.303346 
L 210.353667 206.303346 
L 210.353667 205.549673 
L 210.569013 205.549673 
L 210.569013 204.796 
L 210.710014 204.796 
L 210.710014 204.042327 
L 210.837921 204.042327 
L 210.837921 203.288654 
L 211.01229 203.288654 
L 211.026098 201.781307 
L 211.407558 201.781307 
L 211.407558 201.027634 
L 212.204796 201.027634 
L 212.261669 199.520288 
L 212.635212 199.520288 
L 212.661881 198.012941 
L 212.878516 198.012941 
L 212.878516 197.259268 
L 213.023645 197.259268 
L 213.092297 195.751922 
L 213.267595 195.751922 
L 213.267595 194.998248 
L 213.713021 194.998248 
L 213.713021 194.244575 
L 213.958194 194.244575 
L 213.958194 193.490902 
L 214.396809 193.490902 
L 214.396809 192.737229 
L 214.638399 192.737229 
L 214.638399 191.983556 
L 214.812178 191.983556 
L 214.812178 191.229882 
L 215.095484 191.229882 
L 215.095484 190.476209 
L 215.58287 190.476209 
L 215.58287 189.722536 
L 215.821932 189.722536 
L 215.821932 188.968863 
L 216.200354 188.968863 
L 216.200354 188.21519 
L 216.606017 188.21519 
L 216.606017 187.461516 
L 216.744449 187.461516 
L 216.744449 186.707843 
L 217.466376 186.707843 
L 217.466376 185.95417 
L 217.715089 185.95417 
L 217.715089 185.200497 
L 218.156974 185.200497 
L 218.156974 184.446824 
L 219.183495 184.446824 
L 219.221015 182.939477 
L 219.485772 182.939477 
L 219.485772 182.185804 
L 219.78165 182.185804 
L 219.886943 180.678458 
L 221.011966 180.678458 
L 221.011966 179.924784 
L 221.215803 179.924784 
L 221.215803 179.171111 
L 221.351998 179.171111 
L 221.385202 177.663765 
L 223.419795 177.663765 
L 223.419795 176.910092 
L 223.634674 176.910092 
L 223.634674 176.156418 
L 223.944106 176.156418 
L 223.944106 175.402745 
L 224.774691 175.402745 
L 224.774691 174.649072 
L 225.423207 174.649072 
L 225.423207 173.895399 
L 225.767877 173.895399 
L 225.767877 173.141725 
L 225.939858 173.141725 
L 225.939858 172.388052 
L 226.432961 172.388052 
L 226.432961 171.634379 
L 226.578237 171.634379 
L 226.630456 170.127033 
L 227.03506 170.127033 
L 227.03506 169.373359 
L 228.255132 169.373359 
L 228.255132 168.619686 
L 229.794525 168.619686 
L 229.814509 167.11234 
L 230.096801 167.11234 
L 230.096801 166.358667 
L 230.934786 166.358667 
L 230.934786 165.604993 
L 231.300178 165.604993 
L 231.389848 164.097647 
L 231.893277 164.097647 
L 231.963027 162.590301 
L 232.170663 162.590301 
L 232.170663 161.836627 
L 232.86485 161.836627 
L 232.86485 161.082954 
L 233.358735 161.082954 
L 233.358735 160.329281 
L 233.561575 160.329281 
L 233.561575 159.575608 
L 234.079627 159.575608 
L 234.079627 158.821935 
L 234.321988 158.821935 
L 234.385267 157.314588 
L 234.801756 157.314588 
L 234.801756 156.560915 
L 235.002859 156.560915 
L 235.002859 155.807242 
L 235.199904 155.807242 
L 235.199904 155.053569 
L 235.644299 155.053569 
L 235.644299 154.299895 
L 236.049303 154.299895 
L 236.138184 152.792549 
L 236.198516 152.792549 
L 236.198516 152.038876 
L 236.550887 152.038876 
L 236.550887 151.285203 
L 236.764576 151.285203 
L 236.794246 149.777856 
L 237.164716 149.777856 
L 237.258461 147.516837 
L 238.284993 147.516837 
L 238.284993 146.763163 
L 238.426987 146.763163 
L 238.426987 146.00949 
L 238.758051 146.00949 
L 238.866161 144.502144 
L 239.201639 144.502144 
L 239.201639 143.748471 
L 239.429357 143.748471 
L 239.429357 142.994797 
L 239.573696 142.994797 
L 239.573696 142.241124 
L 239.886442 142.241124 
L 239.980092 140.733778 
L 240.052044 140.733778 
L 240.052044 139.980105 
L 240.546584 139.980105 
L 240.546584 139.226431 
L 240.693086 139.226431 
L 240.751266 136.965412 
L 240.951946 136.965412 
L 240.951946 136.211739 
L 241.206436 136.211739 
L 241.206436 135.458065 
L 241.430717 135.458065 
L 241.430996 133.950719 
L 241.556338 133.950719 
L 241.651168 132.443373 
L 242.130218 132.443373 
L 242.144438 130.936026 
L 242.326713 130.936026 
L 242.370513 129.42868 
L 242.504306 129.42868 
L 242.504306 128.675007 
L 242.709818 128.675007 
L 242.709818 127.921333 
L 242.921781 127.921333 
L 242.921781 127.16766 
L 243.270415 127.16766 
L 243.323091 125.660314 
L 243.485062 125.660314 
L 243.485062 124.906641 
L 243.60972 124.906641 
L 243.621003 123.399294 
L 243.749465 123.399294 
L 243.749465 122.645621 
L 243.923927 122.645621 
L 243.923927 121.891948 
L 244.08877 121.891948 
L 244.149428 120.384601 
L 244.222993 120.384601 
L 244.222993 119.630928 
L 244.381012 119.630928 
L 244.450693 118.123582 
L 244.702042 118.123582 
L 244.702042 117.369908 
L 244.813921 117.369908 
L 244.917902 115.862562 
L 245.04933 115.862562 
L 245.099486 114.355216 
L 245.179639 114.355216 
L 245.24025 112.094196 
L 245.375279 112.094196 
L 245.482249 110.58685 
L 245.52838 110.58685 
L 245.579555 109.079503 
L 245.832364 109.079503 
L 245.856666 106.818484 
L 246.095183 106.818484 
L 246.192828 105.311137 
L 246.382151 105.311137 
L 246.382151 104.557464 
L 246.534508 104.557464 
L 246.534508 103.803791 
L 246.861201 103.803791 
L 246.946363 101.542771 
L 247.019165 101.542771 
L 247.086404 100.035425 
L 247.675121 100.035425 
L 247.675121 99.281752 
L 248.351986 99.281752 
L 248.37281 97.774405 
L 249.298267 97.774405 
L 249.298267 97.020732 
L 249.679763 97.020732 
L 249.679763 96.267059 
L 249.865472 96.267059 
L 249.865472 95.513386 
L 250.176355 95.513386 
L 250.176355 94.759712 
L 250.80004 94.759712 
L 250.80004 94.006039 
L 251.010859 94.006039 
L 251.010859 93.252366 
L 251.674264 93.252366 
L 251.674264 92.498693 
L 252.260122 92.498693 
L 252.364862 90.991346 
L 253.989538 90.991346 
L 253.989538 90.237673 
L 254.987967 90.237673 
L 254.987967 89.484 
L 256.473065 89.484 
L 256.473065 88.730327 
L 257.324245 88.730327 
L 257.324245 87.976654 
L 257.627683 87.976654 
L 257.627683 87.22298 
L 257.771748 87.22298 
L 257.771748 86.469307 
L 257.920107 86.469307 
L 257.920107 85.715634 
L 258.28615 85.715634 
L 258.28615 84.961961 
L 258.814538 84.961961 
L 258.814538 84.208288 
L 260.243354 84.208288 
L 260.243354 83.454614 
L 264.541665 83.454614 
L 264.541665 82.700941 
L 265.182719 82.700941 
L 265.182719 81.947268 
L 265.85515 81.947268 
L 265.85515 81.193595 
L 267.139703 81.193595 
L 267.242536 79.686248 
L 267.490933 79.686248 
L 267.490933 78.932575 
L 267.921349 78.932575 
L 267.921349 78.178902 
L 268.382777 78.178902 
L 268.382777 77.425229 
L 268.777757 77.425229 
L 268.777757 76.671556 
L 269.862134 76.671556 
L 269.924536 75.164209 
L 271.17584 75.164209 
L 271.17584 74.410536 
L 273.092975 74.410536 
L 273.092975 73.656863 
L 273.409527 73.656863 
L 273.409527 72.90319 
L 273.550059 72.90319 
L 273.620069 71.395843 
L 274.519971 71.395843 
L 274.519971 70.64217 
L 274.74499 70.64217 
L 274.74499 69.888497 
L 274.859625 69.888497 
L 274.859625 69.134824 
L 274.999021 69.134824 
L 274.999021 68.38115 
L 275.759527 68.38115 
L 275.759527 67.627477 
L 276.135902 67.627477 
L 276.238577 66.120131 
L 276.489806 66.120131 
L 276.489806 65.366458 
L 276.821695 65.366458 
L 276.858628 63.859111 
L 277.524439 63.859111 
L 277.624612 62.351765 
L 277.729362 62.351765 
L 277.729362 61.598092 
L 278.524514 61.598092 
L 278.524514 60.844418 
L 278.644717 60.844418 
L 278.644717 60.090745 
L 278.915351 60.090745 
L 279.003564 58.583399 
L 279.522566 58.583399 
L 279.522566 57.829725 
L 280.035628 57.829725 
L 280.071183 56.322379 
L 280.494349 56.322379 
L 280.494349 55.568706 
L 280.922363 55.568706 
L 281.008687 54.061359 
L 282.554419 54.061359 
L 282.554419 53.307686 
L 283.506154 53.307686 
L 283.506154 52.554013 
L 283.841473 52.554013 
L 283.841473 51.80034 
L 285.333868 51.80034 
L 285.333868 51.046667 
L 286.11047 51.046667 
L 286.11047 50.292993 
L 286.454145 50.292993 
L 286.454145 49.53932 
L 287.081109 49.53932 
L 287.081109 48.785647 
L 289.108834 48.785647 
L 289.108834 48.031974 
L 290.751222 48.031974 
L 290.751222 47.278301 
L 291.386569 47.278301 
L 291.386569 46.524627 
L 291.888284 46.524627 
L 291.888284 45.770954 
L 293.008561 45.770954 
L 293.008561 45.017281 
L 294.715494 45.017281 
L 294.715494 44.263608 
L 295.829395 44.263608 
L 295.829395 43.509935 
L 296.800035 43.509935 
L 296.800035 42.756261 
L 299.210064 42.756261 
L 299.210064 42.002588 
L 299.607257 42.002588 
L 299.607257 41.248915 
L 300.470147 41.248915 
L 300.470147 40.495242 
L 300.661416 40.495242 
L 300.661416 39.741569 
L 302.838098 39.741569 
L 302.838098 38.987895 
L 303.295183 38.987895 
L 303.295183 38.234222 
L 307.115991 38.234222 
L 307.115991 37.480549 
L 309.816862 37.480549 
L 309.895441 35.973203 
L 311.015718 35.973203 
L 311.015718 35.219529 
L 312.596312 35.219529 
L 312.596312 34.465856 
L 312.851082 34.465856 
L 312.851082 33.712183 
L 313.716589 33.712183 
L 313.716589 32.95851 
L 314.179942 32.95851 
L 314.179942 32.204837 
L 314.984687 32.204837 
L 314.984687 31.451163 
L 317.73883 31.451163 
L 317.73883 30.69749 
L 319.542376 30.69749 
L 319.542376 29.943817 
L 321.425076 29.943817 
L 321.425076 29.190144 
L 322.570008 29.190144 
L 322.570008 28.436471 
L 323.898867 28.436471 
L 323.898867 27.682797 
L 324.353987 27.682797 
L 324.353987 26.929124 
L 327.286127 26.929124 
L 327.286127 26.175451 
L 327.457756 26.175451 
L 327.457756 25.421778 
L 327.576625 25.421778 
L 327.576625 24.668105 
L 328.379112 24.668105 
L 328.379112 23.914431 
L 329.261301 23.914431 
L 329.261301 23.160758 
L 334.072912 23.160758 
L 334.072912 22.407085 
L 337.005053 22.407085 
L 337.005053 21.653412 
L 338.143777 21.653412 
L 338.143777 20.899739 
L 347.862703 20.899739 
L 347.862703 20.146065 
L 349.437204 20.146065 
L 349.437204 19.392392 
L 350.288384 19.392392 
L 350.288384 18.638719 
L 353.207493 18.638719 
L 353.207493 17.885046 
L 358.124235 17.885046 
L 358.124235 17.131373 
L 359.156129 17.131373 
L 359.156129 16.377699 
L 360.007309 16.377699 
L 360.007309 15.624026 
L 362.926419 15.624026 
L 362.926419 14.870353 
L 367.357826 14.870353 
L 367.357826 14.11668 
L 368.057047 14.11668 
L 368.057047 13.363007 
L 369.676294 13.363007 
L 369.676294 12.609333 
L 370.015599 12.609333 
L 370.015599 11.85566 
L 370.628872 11.85566 
L 370.628872 11.101987 
L 371.455209 11.101987 
L 371.455209 10.348314 
L 372.78803 10.348314 
L 372.78803 9.594641 
L 384.350708 9.594641 
L 384.350708 8.840967 
L 394.069633 8.840967 
L 394.069633 8.087294 
L 400.92585 8.087294 
L 400.92585 7.333621 
L 402.165406 7.333621 
L 402.165406 6.579948 
L 404.930393 6.579948 
L 404.930393 5.826275 
L 453.192 5.826275 
L 453.192 5.826275 
" clip-path="url(#pfe442b587f)" style="fill: none; stroke: #bf00bf; stroke-width: 3; stroke-linecap: square"/>
   </g>
   <g id="line2d_48">
    <path clip-path="url(#pfe442b587f)" style="fill: none; stroke: #bf00bf; stroke-width: 3; stroke-linecap: square"/>
   </g>
   <g id="line2d_49">
    <path d="M 34.16 288.453725 
L 110.399044 288.453725 
L 110.399044 287.700052 
L 112.61051 287.700052 
L 112.61051 286.946379 
L 115.122747 286.946379 
L 115.122747 286.192706 
L 117.927635 286.192706 
L 117.927635 285.439033 
L 119.353006 285.439033 
L 119.395506 283.931686 
L 121.532918 283.931686 
L 121.532918 283.178013 
L 125.75093 283.178013 
L 125.75093 282.42434 
L 135.008584 282.42434 
L 135.008584 281.670667 
L 136.433955 281.670667 
L 136.476455 280.16332 
L 137.237057 280.16332 
L 137.237057 279.409647 
L 138.613867 279.409647 
L 138.704928 277.148627 
L 138.763699 277.148627 
L 138.763699 276.394954 
L 140.842341 276.394954 
L 140.842341 275.641281 
L 140.975165 275.641281 
L 140.975165 274.887608 
L 141.715859 274.887608 
L 141.715859 274.133935 
L 142.353382 274.133935 
L 142.353382 273.380261 
L 143.487401 273.380261 
L 143.487401 272.626588 
L 143.927325 272.626588 
L 143.927325 271.872915 
L 144.564848 271.872915 
L 144.564848 271.119242 
L 146.439562 271.119242 
L 146.439562 270.365569 
L 147.077084 270.365569 
L 147.077084 269.611895 
L 151.440706 269.611895 
L 151.440706 268.858222 
L 154.115584 268.858222 
L 154.115584 268.104549 
L 157.067745 268.104549 
L 157.067745 267.350876 
L 157.705268 267.350876 
L 157.705268 266.597203 
L 163.255904 266.597203 
L 163.255904 265.843529 
L 171.874119 265.843529 
L 171.874119 265.089856 
L 174.103355 265.089856 
L 174.103355 264.336183 
L 179.026529 264.336183 
L 179.026529 263.58251 
L 179.80536 263.58251 
L 179.80536 262.828837 
L 180.984231 262.828837 
L 180.984231 262.075163 
L 181.961499 262.075163 
L 182.022764 260.567817 
L 182.487886 260.567817 
L 182.487886 259.814144 
L 182.757521 259.814144 
L 182.757521 259.060471 
L 183.395043 259.060471 
L 183.400312 257.553124 
L 184.091022 257.553124 
L 184.091022 256.799451 
L 186.514934 256.799451 
L 186.514934 256.045778 
L 189.627713 256.045778 
L 189.627713 255.292105 
L 192.80895 255.292105 
L 192.80895 254.538431 
L 194.247763 254.538431 
L 194.294724 253.031085 
L 195.632016 253.031085 
L 195.632016 252.277412 
L 196.995229 252.277412 
L 196.995229 251.523739 
L 197.362385 251.523739 
L 197.362385 250.770065 
L 197.843483 250.770065 
L 197.939914 249.262719 
L 199.151707 249.262719 
L 199.151707 248.509046 
L 200.013973 248.509046 
L 200.013973 247.755373 
L 200.355719 247.755373 
L 200.355719 247.001699 
L 200.968676 247.001699 
L 200.968676 246.248026 
L 202.394047 246.248026 
L 202.436548 244.74068 
L 203.818718 244.74068 
L 203.818718 243.987007 
L 204.57396 243.987007 
L 204.57396 243.233333 
L 206.449461 243.233333 
L 206.449461 242.47966 
L 207.391183 242.47966 
L 207.391183 241.725987 
L 207.713159 241.725987 
L 207.760362 240.218641 
L 207.912753 240.218641 
L 207.912753 239.464967 
L 208.285147 239.464967 
L 208.285147 238.711294 
L 208.43744 238.711294 
L 208.43744 237.957621 
L 208.696033 237.957621 
L 208.696033 237.203948 
L 209.012254 237.203948 
L 209.012254 236.450275 
L 209.348886 236.450275 
L 209.348886 235.696601 
L 209.858175 235.696601 
L 209.858175 234.942928 
L 209.976535 234.942928 
L 209.976535 234.189255 
L 210.343344 234.189255 
L 210.394801 231.928235 
L 210.85254 231.928235 
L 210.85254 231.174562 
L 210.980866 231.174562 
L 210.983902 229.667216 
L 212.301046 229.667216 
L 212.301046 228.913542 
L 212.437129 228.913542 
L 212.455676 227.406196 
L 212.938569 227.406196 
L 212.953506 225.89885 
L 213.339579 225.89885 
L 213.433923 224.391503 
L 213.804701 224.391503 
L 213.889783 222.884157 
L 213.977101 222.884157 
L 213.977476 221.37681 
L 214.427567 221.37681 
L 214.442223 219.869464 
L 214.862874 219.869464 
L 214.862874 219.115791 
L 215.31085 219.115791 
L 215.407837 217.608444 
L 215.530363 217.608444 
L 215.530363 216.854771 
L 216.04536 216.854771 
L 216.04536 216.101098 
L 216.645509 216.101098 
L 216.726705 214.593752 
L 217.620517 214.593752 
L 217.620517 213.840078 
L 218.084322 213.840078 
L 218.084322 213.086405 
L 218.369787 213.086405 
L 218.369787 212.332732 
L 219.543484 212.332732 
L 219.543484 211.579059 
L 220.197374 211.579059 
L 220.197653 210.071712 
L 221.198944 210.071712 
L 221.242252 208.564366 
L 222.979748 208.564366 
L 223.041482 207.05702 
L 224.281373 207.05702 
L 224.386868 205.549673 
L 226.1583 205.549673 
L 226.1583 204.796 
L 228.380752 204.796 
L 228.380752 204.042327 
L 229.547901 204.042327 
L 229.547901 203.288654 
L 229.717755 203.288654 
L 229.717755 202.53498 
L 230.81211 202.53498 
L 230.81211 201.781307 
L 231.045104 201.781307 
L 231.143126 200.273961 
L 231.185626 200.273961 
L 231.185626 199.520288 
L 231.496288 199.520288 
L 231.570571 198.012941 
L 231.771557 198.012941 
L 231.771557 197.259268 
L 232.058389 197.259268 
L 232.058389 196.505595 
L 232.565476 196.505595 
L 232.565476 195.751922 
L 233.033863 195.751922 
L 233.033863 194.998248 
L 233.323038 194.998248 
L 233.406257 193.490902 
L 233.558551 193.490902 
L 233.558551 192.737229 
L 233.827199 192.737229 
L 233.917114 191.229882 
L 234.050005 191.229882 
L 234.133364 188.968863 
L 234.589315 188.968863 
L 234.589315 188.21519 
L 234.708096 188.21519 
L 234.708096 187.461516 
L 234.979286 187.461516 
L 234.979286 186.707843 
L 235.097645 186.707843 
L 235.097645 185.95417 
L 235.479121 185.95417 
L 235.479121 185.200497 
L 235.5948 185.200497 
L 235.5948 184.446824 
L 236.052607 184.446824 
L 236.077814 182.939477 
L 236.425001 182.939477 
L 236.425001 182.185804 
L 236.577295 182.185804 
L 236.673678 180.678458 
L 237.152109 180.678458 
L 237.152109 179.924784 
L 237.265005 179.924784 
L 237.265005 179.171111 
L 237.624443 179.171111 
L 237.624443 178.417438 
L 237.904746 178.417438 
L 237.99803 176.910092 
L 238.116389 176.910092 
L 238.188667 175.402745 
L 238.89819 175.402745 
L 239.004743 173.895399 
L 239.010893 173.895399 
L 239.071895 171.634379 
L 239.548677 171.634379 
L 239.548677 170.880706 
L 239.667497 170.880706 
L 239.667497 170.127033 
L 239.833699 170.127033 
L 239.833699 169.373359 
L 240.430114 169.373359 
L 240.536389 167.11234 
L 240.765524 167.11234 
L 240.801784 165.604993 
L 241.235028 165.604993 
L 241.295551 164.097647 
L 241.375673 164.097647 
L 241.375673 163.343974 
L 241.582383 163.343974 
L 241.597286 161.836627 
L 241.847815 161.836627 
L 241.956463 160.329281 
L 241.96176 160.329281 
L 242.029637 158.068261 
L 242.335705 158.068261 
L 242.34213 156.560915 
L 242.456582 156.560915 
L 242.567421 155.053569 
L 242.610027 155.053569 
L 242.610027 154.299895 
L 242.801044 154.299895 
L 242.843544 152.792549 
L 243.022657 152.792549 
L 243.065157 151.285203 
L 243.380043 151.285203 
L 243.490897 148.27051 
L 243.573999 148.27051 
L 243.640322 146.763163 
L 243.753944 146.763163 
L 243.799558 144.502144 
L 243.881953 144.502144 
L 243.924453 142.994797 
L 243.99421 142.994797 
L 243.99421 142.241124 
L 244.141673 142.241124 
L 244.17139 140.733778 
L 244.323684 140.733778 
L 244.391467 139.226431 
L 244.866559 139.226431 
L 244.93068 136.211739 
L 244.980956 136.211739 
L 245.078811 134.704392 
L 245.118794 134.704392 
L 245.20257 133.197046 
L 245.294291 133.197046 
L 245.294291 132.443373 
L 245.419581 132.443373 
L 245.462081 130.936026 
L 245.555547 130.936026 
L 245.656306 129.42868 
L 245.744419 129.42868 
L 245.744419 128.675007 
L 245.862778 128.675007 
L 245.931813 127.16766 
L 246.061865 127.16766 
L 246.061865 126.413987 
L 246.225841 126.413987 
L 246.225841 125.660314 
L 246.367275 125.660314 
L 246.367275 124.906641 
L 246.509641 124.906641 
L 246.509641 124.152967 
L 246.788999 124.152967 
L 246.788999 123.399294 
L 247.068092 123.399294 
L 247.148436 121.891948 
L 247.599494 121.891948 
L 247.599494 121.138275 
L 248.117933 121.138275 
L 248.117933 120.384601 
L 248.577237 120.384601 
L 248.577237 119.630928 
L 248.944133 119.630928 
L 249.031841 118.123582 
L 249.776027 118.123582 
L 249.776027 117.369908 
L 249.99486 117.369908 
L 249.99486 116.616235 
L 250.31381 116.616235 
L 250.31381 115.862562 
L 250.805711 115.862562 
L 250.805711 115.108889 
L 251.706545 115.108889 
L 251.706545 114.355216 
L 252.612948 114.355216 
L 252.612948 113.601542 
L 252.873694 113.601542 
L 252.873694 112.847869 
L 254.225622 112.847869 
L 254.283402 110.58685 
L 254.881663 110.58685 
L 254.881663 109.833176 
L 255.09735 109.833176 
L 255.09735 109.079503 
L 255.384182 109.079503 
L 255.450551 107.572157 
L 256.04727 107.572157 
L 256.04727 106.818484 
L 256.503757 106.818484 
L 256.503757 106.06481 
L 257.073292 106.06481 
L 257.073292 105.311137 
L 257.242907 105.311137 
L 257.242907 104.557464 
L 257.375798 104.557464 
L 257.442121 103.050118 
L 257.663758 103.050118 
L 257.674207 101.542771 
L 257.96104 101.542771 
L 257.96104 100.789098 
L 258.920593 100.789098 
L 258.920593 100.035425 
L 259.819764 100.035425 
L 259.879291 98.528078 
L 259.952656 98.528078 
L 260.018978 97.020732 
L 260.590798 97.020732 
L 260.590798 96.267059 
L 260.950236 96.267059 
L 260.950236 95.513386 
L 261.49745 95.513386 
L 261.49745 94.759712 
L 263.167656 94.759712 
L 263.167656 94.006039 
L 263.527093 94.006039 
L 263.527093 93.252366 
L 263.749615 93.252366 
L 263.749615 92.498693 
L 264.0193 92.498693 
L 264.0193 91.74502 
L 264.225879 91.74502 
L 264.259501 90.237673 
L 266.217203 90.237673 
L 266.217203 89.484 
L 267.038044 89.484 
L 267.08637 87.22298 
L 267.255736 87.22298 
L 267.255736 86.469307 
L 267.720858 86.469307 
L 267.720858 85.715634 
L 268.920669 85.715634 
L 268.920669 84.961961 
L 269.323994 84.961961 
L 269.392106 83.454614 
L 269.565149 83.454614 
L 269.599682 81.947268 
L 270.096318 81.947268 
L 270.096318 81.193595 
L 270.732297 81.193595 
L 270.732297 80.439922 
L 271.000974 80.439922 
L 271.000974 79.686248 
L 271.939413 79.686248 
L 272.027597 78.178902 
L 272.551843 78.178902 
L 272.551843 77.425229 
L 272.955953 77.425229 
L 272.955953 76.671556 
L 273.128893 76.671556 
L 273.189365 75.164209 
L 273.242786 75.164209 
L 273.242786 74.410536 
L 273.452968 74.410536 
L 273.495468 72.90319 
L 274.409041 72.90319 
L 274.409041 72.149516 
L 274.554264 72.149516 
L 274.596764 70.64217 
L 274.784433 70.64217 
L 274.784433 69.888497 
L 275.10151 69.888497 
L 275.10151 69.134824 
L 275.234402 69.134824 
L 275.300724 67.627477 
L 275.570582 67.627477 
L 275.63288 66.120131 
L 275.872333 66.120131 
L 275.872333 65.366458 
L 276.244726 65.366458 
L 276.244726 64.612784 
L 276.39702 64.612784 
L 276.39702 63.859111 
L 276.734177 63.859111 
L 276.779196 62.351765 
L 276.872988 62.351765 
L 276.971834 60.844418 
L 276.995953 60.844418 
L 277.038453 59.337072 
L 277.551415 59.337072 
L 277.551415 58.583399 
L 277.817755 58.583399 
L 277.842707 57.076052 
L 277.936114 57.076052 
L 277.936114 56.322379 
L 278.449402 56.322379 
L 278.449402 55.568706 
L 278.808839 55.568706 
L 278.808839 54.815033 
L 279.175866 54.815033 
L 279.175866 54.061359 
L 279.685802 54.061359 
L 279.685802 53.307686 
L 280.128272 53.307686 
L 280.128272 52.554013 
L 280.340317 52.554013 
L 280.340317 51.80034 
L 280.493346 51.80034 
L 280.493346 51.046667 
L 280.909851 51.046667 
L 280.909851 50.292993 
L 281.849363 50.292993 
L 281.849363 49.53932 
L 282.387146 49.53932 
L 282.387146 48.785647 
L 283.715851 48.785647 
L 283.715851 48.031974 
L 284.686285 48.031974 
L 284.686285 47.278301 
L 285.791965 47.278301 
L 285.791965 46.524627 
L 286.329367 46.524627 
L 286.329367 45.770954 
L 287.230777 45.770954 
L 287.230777 45.017281 
L 290.3454 45.017281 
L 290.3454 44.263608 
L 291.340797 44.263608 
L 291.340797 43.509935 
L 292.946132 43.509935 
L 292.946132 42.756261 
L 295.410018 42.756261 
L 295.410018 42.002588 
L 295.578583 42.002588 
L 295.578583 41.248915 
L 297.017396 41.248915 
L 297.017396 40.495242 
L 297.670101 40.495242 
L 297.670101 39.741569 
L 299.210448 39.741569 
L 299.210448 38.987895 
L 299.365628 38.987895 
L 299.365628 38.234222 
L 300.132018 38.234222 
L 300.132018 37.480549 
L 302.317789 37.480549 
L 302.317789 36.726876 
L 302.955312 36.726876 
L 302.955312 35.973203 
L 306.857769 35.973203 
L 306.857769 35.219529 
L 309.916043 35.219529 
L 309.916043 34.465856 
L 311.759138 34.465856 
L 311.759138 33.712183 
L 312.526499 33.712183 
L 312.526499 32.95851 
L 314.225267 32.95851 
L 314.225267 32.204837 
L 314.53733 32.204837 
L 314.53733 31.451163 
L 315.177356 31.451163 
L 315.177356 30.69749 
L 317.264388 30.69749 
L 317.264388 29.943817 
L 319.141315 29.943817 
L 319.141315 29.190144 
L 322.313117 29.190144 
L 322.313117 28.436471 
L 324.011885 28.436471 
L 324.028119 26.929124 
L 326.468 26.929124 
L 326.468 26.175451 
L 326.810214 26.175451 
L 326.810214 25.421778 
L 327.051006 25.421778 
L 327.051006 24.668105 
L 328.927933 24.668105 
L 328.927933 23.914431 
L 333.814737 23.914431 
L 333.814737 23.160758 
L 336.596832 23.160758 
L 336.596832 22.407085 
L 338.538562 22.407085 
L 338.538562 21.653412 
L 343.286409 21.653412 
L 343.286409 20.899739 
L 348.32518 20.899739 
L 348.32518 20.146065 
L 349.486772 20.146065 
L 349.486772 19.392392 
L 350.056306 19.392392 
L 350.056306 18.638719 
L 352.573397 18.638719 
L 352.573397 17.885046 
L 352.862306 17.885046 
L 352.862306 17.131373 
L 354.105043 17.131373 
L 354.105043 16.377699 
L 354.944327 16.377699 
L 354.944327 15.624026 
L 355.16594 15.624026 
L 355.16594 14.870353 
L 356.025236 14.870353 
L 356.025236 14.11668 
L 356.233946 14.11668 
L 356.233946 13.363007 
L 357.031462 13.363007 
L 357.031462 12.609333 
L 357.562864 12.609333 
L 357.562864 11.85566 
L 359.27339 11.85566 
L 359.27339 11.101987 
L 359.842925 11.101987 
L 359.842925 10.348314 
L 362.648924 10.348314 
L 362.648924 9.594641 
L 384.323812 9.594641 
L 384.323812 8.840967 
L 385.596251 8.840967 
L 385.596251 8.087294 
L 386.697547 8.087294 
L 386.697547 7.333621 
L 389.139236 7.333621 
L 389.139236 6.579948 
L 394.11043 6.579948 
L 394.11043 5.826275 
L 453.192 5.826275 
L 453.192 5.826275 
" clip-path="url(#pfe442b587f)" style="fill: none; stroke: #ff0000; stroke-width: 3; stroke-linecap: square"/>
   </g>
   <g id="line2d_50">
    <path clip-path="url(#pfe442b587f)" style="fill: none; stroke: #ff0000; stroke-width: 3; stroke-linecap: square"/>
   </g>
   <g id="line2d_51">
    <path d="M 243.676 291.28 
L 243.676 3 
" clip-path="url(#pfe442b587f)" style="fill: none; stroke: #000000; stroke-width: 1.5; stroke-linecap: square"/>
   </g>
   <g id="line2d_52">
    <path d="M 34.16 147.14 
L 453.192 147.14 
" clip-path="url(#pfe442b587f)" style="fill: none; stroke-dasharray: 2,3.3; stroke-dashoffset: 0; stroke: #000000; stroke-width: 2"/>
   </g>
   <g id="patch_3">
    <path d="M 34.16 291.28 
L 34.16 3 
" style="fill: none; stroke: #000000; stroke-width: 0.8; stroke-linejoin: miter; stroke-linecap: square"/>
   </g>
   <g id="patch_4">
    <path d="M 453.192 291.28 
L 453.192 3 
" style="fill: none; stroke: #000000; stroke-width: 0.8; stroke-linejoin: miter; stroke-linecap: square"/>
   </g>
   <g id="patch_5">
    <path d="M 34.16 291.28 
L 453.192 291.28 
" style="fill: none; stroke: #000000; stroke-width: 0.8; stroke-linejoin: miter; stroke-linecap: square"/>
   </g>
   <g id="patch_6">
    <path d="M 34.16 3 
L 453.192 3 
" style="fill: none; stroke: #000000; stroke-width: 0.8; stroke-linejoin: miter; stroke-linecap: square"/>
   </g>
   <g id="text_6">
    <!-- f15-f19,5-D -->
    <g transform="translate(330.91761 285.5144)scale(0.2 -0.2)">
     <defs>
      <path id="DejaVuSans-35" d="M 691 4666 
L 3169 4666 
L 3169 4134 
L 1269 4134 
L 1269 2991 
Q 1406 3038 1543 3061 
Q 1681 3084 1819 3084 
Q 2600 3084 3056 2656 
Q 3513 2228 3513 1497 
Q 3513 744 3044 326 
Q 2575 -91 1722 -91 
Q 1428 -91 1123 -41 
Q 819 9 494 109 
L 494 744 
Q 775 591 1075 516 
Q 1375 441 1709 441 
Q 2250 441 2565 725 
Q 2881 1009 2881 1497 
Q 2881 1984 2565 2268 
Q 2250 2553 1709 2553 
Q 1456 2553 1204 2497 
Q 953 2441 691 2322 
L 691 4666 
z
" transform="scale(0.015625)"/>
      <path id="DejaVuSans-39" d="M 703 97 
L 703 672 
Q 941 559 1184 500 
Q 1428 441 1663 441 
Q 2288 441 2617 861 
Q 2947 1281 2994 2138 
Q 2813 1869 2534 1725 
Q 2256 1581 1919 1581 
Q 1219 1581 811 2004 
Q 403 2428 403 3163 
Q 403 3881 828 4315 
Q 1253 4750 1959 4750 
Q 2769 4750 3195 4129 
Q 3622 3509 3622 2328 
Q 3622 1225 3098 567 
Q 2575 -91 1691 -91 
Q 1453 -91 1209 -44 
Q 966 3 703 97 
z
M 1959 2075 
Q 2384 2075 2632 2365 
Q 2881 2656 2881 3163 
Q 2881 3666 2632 3958 
Q 2384 4250 1959 4250 
Q 1534 4250 1286 3958 
Q 1038 3666 1038 3163 
Q 1038 2656 1286 2365 
Q 1534 2075 1959 2075 
z
" transform="scale(0.015625)"/>
      <path id="DejaVuSans-2c" d="M 750 794 
L 1409 794 
L 1409 256 
L 897 -744 
L 494 -744 
L 750 256 
L 750 794 
z
" transform="scale(0.015625)"/>
      <path id="DejaVuSans-44" d="M 1259 4147 
L 1259 519 
L 2022 519 
Q 2988 519 3436 956 
Q 3884 1394 3884 2338 
Q 3884 3275 3436 3711 
Q 2988 4147 2022 4147 
L 1259 4147 
z
M 628 4666 
L 1925 4666 
Q 3281 4666 3915 4102 
Q 4550 3538 4550 2338 
Q 4550 1131 3912 565 
Q 3275 0 1925 0 
L 628 0 
L 628 4666 
z
" transform="scale(0.015625)"/>
     </defs>
     <use xlink:href="#DejaVuSans-66"/>
     <use xlink:href="#DejaVuSans-31" x="35.205078"/>
     <use xlink:href="#DejaVuSans-35" x="98.828125"/>
     <use xlink:href="#DejaVuSans-2d" x="162.451172"/>
     <use xlink:href="#DejaVuSans-66" x="198.535156"/>
     <use xlink:href="#DejaVuSans-31" x="233.740234"/>
     <use xlink:href="#DejaVuSans-39" x="297.363281"/>
     <use xlink:href="#DejaVuSans-2c" x="360.986328"/>
     <use xlink:href="#DejaVuSans-35" x="392.773438"/>
     <use xlink:href="#DejaVuSans-2d" x="456.396484"/>
     <use xlink:href="#DejaVuSans-44" x="492.480469"/>
    </g>
   </g>
   <g id="text_7">
    <!-- v2.6.1.158 -->
    <g style="fill: #808080" transform="translate(216.861937 286.317512)scale(0.1 -0.1)">
     <defs>
      <path id="DejaVuSans-32" d="M 1228 531 
L 3431 531 
L 3431 0 
L 469 0 
L 469 531 
Q 828 903 1448 1529 
Q 2069 2156 2228 2338 
Q 2531 2678 2651 2914 
Q 2772 3150 2772 3378 
Q 2772 3750 2511 3984 
Q 2250 4219 1831 4219 
Q 1534 4219 1204 4116 
Q 875 4013 500 3803 
L 500 4441 
Q 881 4594 1212 4672 
Q 1544 4750 1819 4750 
Q 2544 4750 2975 4387 
Q 3406 4025 3406 3419 
Q 3406 3131 3298 2873 
Q 3191 2616 2906 2266 
Q 2828 2175 2409 1742 
Q 1991 1309 1228 531 
z
" transform="scale(0.015625)"/>
      <path id="DejaVuSans-2e" d="M 684 794 
L 1344 794 
L 1344 0 
L 684 0 
L 684 794 
z
" transform="scale(0.015625)"/>
      <path id="DejaVuSans-36" d="M 2113 2584 
Q 1688 2584 1439 2293 
Q 1191 2003 1191 1497 
Q 1191 994 1439 701 
Q 1688 409 2113 409 
Q 2538 409 2786 701 
Q 3034 994 3034 1497 
Q 3034 2003 2786 2293 
Q 2538 2584 2113 2584 
z
M 3366 4563 
L 3366 3988 
Q 3128 4100 2886 4159 
Q 2644 4219 2406 4219 
Q 1781 4219 1451 3797 
Q 1122 3375 1075 2522 
Q 1259 2794 1537 2939 
Q 1816 3084 2150 3084 
Q 2853 3084 3261 2657 
Q 3669 2231 3669 1497 
Q 3669 778 3244 343 
Q 2819 -91 2113 -91 
Q 1303 -91 875 529 
Q 447 1150 447 2328 
Q 447 3434 972 4092 
Q 1497 4750 2381 4750 
Q 2619 4750 2861 4703 
Q 3103 4656 3366 4563 
z
" transform="scale(0.015625)"/>
      <path id="DejaVuSans-38" d="M 2034 2216 
Q 1584 2216 1326 1975 
Q 1069 1734 1069 1313 
Q 1069 891 1326 650 
Q 1584 409 2034 409 
Q 2484 409 2743 651 
Q 3003 894 3003 1313 
Q 3003 1734 2745 1975 
Q 2488 2216 2034 2216 
z
M 1403 2484 
Q 997 2584 770 2862 
Q 544 3141 544 3541 
Q 544 4100 942 4425 
Q 1341 4750 2034 4750 
Q 2731 4750 3128 4425 
Q 3525 4100 3525 3541 
Q 3525 3141 3298 2862 
Q 3072 2584 2669 2484 
Q 3125 2378 3379 2068 
Q 3634 1759 3634 1313 
Q 3634 634 3220 271 
Q 2806 -91 2034 -91 
Q 1263 -91 848 271 
Q 434 634 434 1313 
Q 434 1759 690 2068 
Q 947 2378 1403 2484 
z
M 1172 3481 
Q 1172 3119 1398 2916 
Q 1625 2713 2034 2713 
Q 2441 2713 2670 2916 
Q 2900 3119 2900 3481 
Q 2900 3844 2670 4047 
Q 2441 4250 2034 4250 
Q 1625 4250 1398 4047 
Q 1172 3844 1172 3481 
z
" transform="scale(0.015625)"/>
     </defs>
     <use xlink:href="#DejaVuSans-76"/>
     <use xlink:href="#DejaVuSans-32" x="59.179688"/>
     <use xlink:href="#DejaVuSans-2e" x="122.802734"/>
     <use xlink:href="#DejaVuSans-36" x="154.589844"/>
     <use xlink:href="#DejaVuSans-2e" x="218.212891"/>
     <use xlink:href="#DejaVuSans-31" x="250"/>
     <use xlink:href="#DejaVuSans-2e" x="313.623047"/>
     <use xlink:href="#DejaVuSans-31" x="345.410156"/>
     <use xlink:href="#DejaVuSans-35" x="409.033203"/>
     <use xlink:href="#DejaVuSans-38" x="472.65625"/>
    </g>
   </g>
   <g id="legend_1">
    <g id="patch_7">
     <path d="M 48.16 136.425 
L 177.381875 136.425 
Q 181.381875 136.425 181.381875 132.425 
L 181.381875 17 
Q 181.381875 13 177.381875 13 
L 48.16 13 
Q 44.16 13 44.16 17 
L 44.16 132.425 
Q 44.16 136.425 48.16 136.425 
z
" style="fill: #ffffff; opacity: 0.2; stroke: #cccccc; stroke-linejoin: miter"/>
    </g>
    <g id="line2d_53">
     <path d="M 52.16 29.196875 
L 72.16 29.196875 
L 92.16 29.196875 
" style="fill: none; stroke: #000000; stroke-width: 3; stroke-linecap: square"/>
    </g>
    <g id="text_8">
     <!-- 1: 5/5 -->
     <g transform="translate(108.16 36.196875)scale(0.2 -0.2)">
      <defs>
       <path id="DejaVuSans-3a" d="M 750 794 
L 1409 794 
L 1409 0 
L 750 0 
L 750 794 
z
M 750 3309 
L 1409 3309 
L 1409 2516 
L 750 2516 
L 750 3309 
z
" transform="scale(0.015625)"/>
       <path id="DejaVuSans-2f" d="M 1625 4666 
L 2156 4666 
L 531 -594 
L 0 -594 
L 1625 4666 
z
" transform="scale(0.015625)"/>
      </defs>
      <use xlink:href="#DejaVuSans-31"/>
      <use xlink:href="#DejaVuSans-3a" x="63.623047"/>
      <use xlink:href="#DejaVuSans-20" x="97.314453"/>
      <use xlink:href="#DejaVuSans-35" x="129.101562"/>
      <use xlink:href="#DejaVuSans-2f" x="192.724609"/>
      <use xlink:href="#DejaVuSans-35" x="226.416016"/>
     </g>
    </g>
    <g id="line2d_54">
     <path d="M 52.16 58.553125 
L 72.16 58.553125 
L 92.16 58.553125 
" style="fill: none; stroke: #00bfbf; stroke-width: 3; stroke-linecap: square"/>
    </g>
    <g id="text_9">
     <!-- -1: 5/5 -->
     <g transform="translate(108.16 65.553125)scale(0.2 -0.2)">
      <use xlink:href="#DejaVuSans-2d"/>
      <use xlink:href="#DejaVuSans-31" x="36.083984"/>
      <use xlink:href="#DejaVuSans-3a" x="99.707031"/>
      <use xlink:href="#DejaVuSans-20" x="133.398438"/>
      <use xlink:href="#DejaVuSans-35" x="165.185547"/>
      <use xlink:href="#DejaVuSans-2f" x="228.808594"/>
      <use xlink:href="#DejaVuSans-35" x="262.5"/>
     </g>
    </g>
    <g id="line2d_55">
     <path d="M 52.16 87.909375 
L 72.16 87.909375 
L 92.16 87.909375 
" style="fill: none; stroke: #bf00bf; stroke-width: 3; stroke-linecap: square"/>
    </g>
    <g id="text_10">
     <!-- -4: 5/5 -->
     <g transform="translate(108.16 94.909375)scale(0.2 -0.2)">
      <defs>
       <path id="DejaVuSans-34" d="M 2419 4116 
L 825 1625 
L 2419 1625 
L 2419 4116 
z
M 2253 4666 
L 3047 4666 
L 3047 1625 
L 3713 1625 
L 3713 1100 
L 3047 1100 
L 3047 0 
L 2419 0 
L 2419 1100 
L 313 1100 
L 313 1709 
L 2253 4666 
z
" transform="scale(0.015625)"/>
      </defs>
      <use xlink:href="#DejaVuSans-2d"/>
      <use xlink:href="#DejaVuSans-34" x="36.083984"/>
      <use xlink:href="#DejaVuSans-3a" x="99.707031"/>
      <use xlink:href="#DejaVuSans-20" x="133.398438"/>
      <use xlink:href="#DejaVuSans-35" x="165.185547"/>
      <use xlink:href="#DejaVuSans-2f" x="228.808594"/>
      <use xlink:href="#DejaVuSans-35" x="262.5"/>
     </g>
    </g>
    <g id="line2d_56">
     <path d="M 52.16 117.265625 
L 72.16 117.265625 
L 92.16 117.265625 
" style="fill: none; stroke: #ff0000; stroke-width: 3; stroke-linecap: square"/>
    </g>
    <g id="text_11">
     <!-- -8: 5/5 -->
     <g transform="translate(108.16 124.265625)scale(0.2 -0.2)">
      <use xlink:href="#DejaVuSans-2d"/>
      <use xlink:href="#DejaVuSans-38" x="36.083984"/>
      <use xlink:href="#DejaVuSans-3a" x="99.707031"/>
      <use xlink:href="#DejaVuSans-20" x="133.398438"/>
      <use xlink:href="#DejaVuSans-35" x="165.185547"/>
      <use xlink:href="#DejaVuSans-2f" x="228.808594"/>
      <use xlink:href="#DejaVuSans-35" x="262.5"/>
     </g>
    </g>
   </g>
  </g>
 </g>
 <defs>
  <clipPath id="pfe442b587f">
   <rect x="34.16" y="3" width="419.032" height="288.28"/>
  </clipPath>
 </defs>
</svg>
