<?xml version="1.0" encoding="utf-8" standalone="no"?>
<!DOCTYPE svg PUBLIC "-//W3C//DTD SVG 1.1//EN"
  "http://www.w3.org/Graphics/SVG/1.1/DTD/svg11.dtd">
<svg xmlns:xlink="http://www.w3.org/1999/xlink" width="460.8pt" height="345.6pt" viewBox="0 0 460.8 345.6" xmlns="http://www.w3.org/2000/svg" version="1.1">
 <metadata>
  <rdf:RDF xmlns:dc="http://purl.org/dc/elements/1.1/" xmlns:cc="http://creativecommons.org/ns#" xmlns:rdf="http://www.w3.org/1999/02/22-rdf-syntax-ns#">
   <cc:Work>
    <dc:type rdf:resource="http://purl.org/dc/dcmitype/StillImage"/>
    <dc:date>2023-04-03T10:10:49.745099</dc:date>
    <dc:format>image/svg+xml</dc:format>
    <dc:creator>
     <cc:Agent>
      <dc:title>Matplotlib v3.5.2, https://matplotlib.org/</dc:title>
     </cc:Agent>
    </dc:creator>
   </cc:Work>
  </rdf:RDF>
 </metadata>
 <defs>
  <style type="text/css">*{stroke-linejoin: round; stroke-linecap: butt}</style>
 </defs>
 <g id="figure_1">
  <g id="patch_1">
   <path d="M 0 345.6 
L 460.8 345.6 
L 460.8 0 
L 0 0 
z
" style="fill: #ffffff"/>
  </g>
  <g id="axes_1">
   <g id="patch_2">
    <path d="M 34.16 291.28 
L 446.924475 291.28 
L 446.924475 3 
L 34.16 3 
z
" style="fill: #ffffff"/>
   </g>
   <g id="matplotlib.axis_1">
    <g id="xtick_1">
     <g id="line2d_1">
      <path d="M 34.249547 291.28 
L 34.249547 3 
" clip-path="url(#pd098d0f096)" style="fill: none; stroke: #b0b0b0; stroke-width: 0.8; stroke-linecap: square"/>
     </g>
     <g id="line2d_2">
      <defs>
       <path id="mcd9201b61e" d="M 0 0 
L 0 3.5 
" style="stroke: #000000; stroke-width: 0.8"/>
      </defs>
      <g>
       <use xlink:href="#mcd9201b61e" x="34.249547" y="291.28" style="stroke: #000000; stroke-width: 0.8"/>
      </g>
     </g>
     <g id="text_1">
      <!-- -1 -->
      <g transform="translate(24.279235 313.476875)scale(0.2 -0.2)">
       <defs>
        <path id="DejaVuSans-2d" d="M 313 2009 
L 1997 2009 
L 1997 1497 
L 313 1497 
L 313 2009 
z
" transform="scale(0.015625)"/>
        <path id="DejaVuSans-31" d="M 794 531 
L 1825 531 
L 1825 4091 
L 703 3866 
L 703 4441 
L 1819 4666 
L 2450 4666 
L 2450 531 
L 3481 531 
L 3481 0 
L 794 0 
L 794 531 
z
" transform="scale(0.015625)"/>
       </defs>
       <use xlink:href="#DejaVuSans-2d"/>
       <use xlink:href="#DejaVuSans-31" x="36.083984"/>
      </g>
     </g>
    </g>
    <g id="xtick_2">
     <g id="line2d_3">
      <path d="M 240.542238 291.28 
L 240.542238 3 
" clip-path="url(#pd098d0f096)" style="fill: none; stroke: #b0b0b0; stroke-width: 0.8; stroke-linecap: square"/>
     </g>
     <g id="line2d_4">
      <g>
       <use xlink:href="#mcd9201b61e" x="240.542238" y="291.28" style="stroke: #000000; stroke-width: 0.8"/>
      </g>
     </g>
     <g id="text_2">
      <!-- 0 -->
      <g transform="translate(234.179738 313.476875)scale(0.2 -0.2)">
       <defs>
        <path id="DejaVuSans-30" d="M 2034 4250 
Q 1547 4250 1301 3770 
Q 1056 3291 1056 2328 
Q 1056 1369 1301 889 
Q 1547 409 2034 409 
Q 2525 409 2770 889 
Q 3016 1369 3016 2328 
Q 3016 3291 2770 3770 
Q 2525 4250 2034 4250 
z
M 2034 4750 
Q 2819 4750 3233 4129 
Q 3647 3509 3647 2328 
Q 3647 1150 3233 529 
Q 2819 -91 2034 -91 
Q 1250 -91 836 529 
Q 422 1150 422 2328 
Q 422 3509 836 4129 
Q 1250 4750 2034 4750 
z
" transform="scale(0.015625)"/>
       </defs>
       <use xlink:href="#DejaVuSans-30"/>
      </g>
     </g>
    </g>
    <g id="xtick_3">
     <g id="line2d_5">
      <path d="M 446.834928 291.28 
L 446.834928 3 
" clip-path="url(#pd098d0f096)" style="fill: none; stroke: #b0b0b0; stroke-width: 0.8; stroke-linecap: square"/>
     </g>
     <g id="line2d_6">
      <g>
       <use xlink:href="#mcd9201b61e" x="446.834928" y="291.28" style="stroke: #000000; stroke-width: 0.8"/>
      </g>
     </g>
     <g id="text_3">
      <!-- 1 -->
      <g transform="translate(440.472428 313.476875)scale(0.2 -0.2)">
       <use xlink:href="#DejaVuSans-31"/>
      </g>
     </g>
    </g>
    <g id="xtick_4">
     <g id="line2d_7">
      <defs>
       <path id="m112fc2fcc5" d="M 0 0 
L 0 2 
" style="stroke: #000000; stroke-width: 0.6"/>
      </defs>
      <g>
       <use xlink:href="#m112fc2fcc5" x="96.349835" y="291.28" style="stroke: #000000; stroke-width: 0.6"/>
      </g>
     </g>
    </g>
    <g id="xtick_5">
     <g id="line2d_8">
      <g>
       <use xlink:href="#m112fc2fcc5" x="132.676174" y="291.28" style="stroke: #000000; stroke-width: 0.6"/>
      </g>
     </g>
    </g>
    <g id="xtick_6">
     <g id="line2d_9">
      <g>
       <use xlink:href="#m112fc2fcc5" x="158.450123" y="291.28" style="stroke: #000000; stroke-width: 0.6"/>
      </g>
     </g>
    </g>
    <g id="xtick_7">
     <g id="line2d_10">
      <g>
       <use xlink:href="#m112fc2fcc5" x="178.44195" y="291.28" style="stroke: #000000; stroke-width: 0.6"/>
      </g>
     </g>
    </g>
    <g id="xtick_8">
     <g id="line2d_11">
      <g>
       <use xlink:href="#m112fc2fcc5" x="194.776462" y="291.28" style="stroke: #000000; stroke-width: 0.6"/>
      </g>
     </g>
    </g>
    <g id="xtick_9">
     <g id="line2d_12">
      <g>
       <use xlink:href="#m112fc2fcc5" x="208.587096" y="291.28" style="stroke: #000000; stroke-width: 0.6"/>
      </g>
     </g>
    </g>
    <g id="xtick_10">
     <g id="line2d_13">
      <g>
       <use xlink:href="#m112fc2fcc5" x="220.55041" y="291.28" style="stroke: #000000; stroke-width: 0.6"/>
      </g>
     </g>
    </g>
    <g id="xtick_11">
     <g id="line2d_14">
      <g>
       <use xlink:href="#m112fc2fcc5" x="231.102802" y="291.28" style="stroke: #000000; stroke-width: 0.6"/>
      </g>
     </g>
    </g>
    <g id="xtick_12">
     <g id="line2d_15">
      <g>
       <use xlink:href="#m112fc2fcc5" x="302.642525" y="291.28" style="stroke: #000000; stroke-width: 0.6"/>
      </g>
     </g>
    </g>
    <g id="xtick_13">
     <g id="line2d_16">
      <g>
       <use xlink:href="#m112fc2fcc5" x="338.968865" y="291.28" style="stroke: #000000; stroke-width: 0.6"/>
      </g>
     </g>
    </g>
    <g id="xtick_14">
     <g id="line2d_17">
      <g>
       <use xlink:href="#m112fc2fcc5" x="364.742813" y="291.28" style="stroke: #000000; stroke-width: 0.6"/>
      </g>
     </g>
    </g>
    <g id="xtick_15">
     <g id="line2d_18">
      <g>
       <use xlink:href="#m112fc2fcc5" x="384.73464" y="291.28" style="stroke: #000000; stroke-width: 0.6"/>
      </g>
     </g>
    </g>
    <g id="xtick_16">
     <g id="line2d_19">
      <g>
       <use xlink:href="#m112fc2fcc5" x="401.069153" y="291.28" style="stroke: #000000; stroke-width: 0.6"/>
      </g>
     </g>
    </g>
    <g id="xtick_17">
     <g id="line2d_20">
      <g>
       <use xlink:href="#m112fc2fcc5" x="414.879786" y="291.28" style="stroke: #000000; stroke-width: 0.6"/>
      </g>
     </g>
    </g>
    <g id="xtick_18">
     <g id="line2d_21">
      <g>
       <use xlink:href="#m112fc2fcc5" x="426.843101" y="291.28" style="stroke: #000000; stroke-width: 0.6"/>
      </g>
     </g>
    </g>
    <g id="xtick_19">
     <g id="line2d_22">
      <g>
       <use xlink:href="#m112fc2fcc5" x="437.395492" y="291.28" style="stroke: #000000; stroke-width: 0.6"/>
      </g>
     </g>
    </g>
    <g id="text_4">
     <!-- log10 of FEvals ratio -->
     <g transform="translate(138.23755 336.833125)scale(0.2 -0.2)">
      <defs>
       <path id="DejaVuSans-6c" d="M 603 4863 
L 1178 4863 
L 1178 0 
L 603 0 
L 603 4863 
z
" transform="scale(0.015625)"/>
       <path id="DejaVuSans-6f" d="M 1959 3097 
Q 1497 3097 1228 2736 
Q 959 2375 959 1747 
Q 959 1119 1226 758 
Q 1494 397 1959 397 
Q 2419 397 2687 759 
Q 2956 1122 2956 1747 
Q 2956 2369 2687 2733 
Q 2419 3097 1959 3097 
z
M 1959 3584 
Q 2709 3584 3137 3096 
Q 3566 2609 3566 1747 
Q 3566 888 3137 398 
Q 2709 -91 1959 -91 
Q 1206 -91 779 398 
Q 353 888 353 1747 
Q 353 2609 779 3096 
Q 1206 3584 1959 3584 
z
" transform="scale(0.015625)"/>
       <path id="DejaVuSans-67" d="M 2906 1791 
Q 2906 2416 2648 2759 
Q 2391 3103 1925 3103 
Q 1463 3103 1205 2759 
Q 947 2416 947 1791 
Q 947 1169 1205 825 
Q 1463 481 1925 481 
Q 2391 481 2648 825 
Q 2906 1169 2906 1791 
z
M 3481 434 
Q 3481 -459 3084 -895 
Q 2688 -1331 1869 -1331 
Q 1566 -1331 1297 -1286 
Q 1028 -1241 775 -1147 
L 775 -588 
Q 1028 -725 1275 -790 
Q 1522 -856 1778 -856 
Q 2344 -856 2625 -561 
Q 2906 -266 2906 331 
L 2906 616 
Q 2728 306 2450 153 
Q 2172 0 1784 0 
Q 1141 0 747 490 
Q 353 981 353 1791 
Q 353 2603 747 3093 
Q 1141 3584 1784 3584 
Q 2172 3584 2450 3431 
Q 2728 3278 2906 2969 
L 2906 3500 
L 3481 3500 
L 3481 434 
z
" transform="scale(0.015625)"/>
       <path id="DejaVuSans-20" transform="scale(0.015625)"/>
       <path id="DejaVuSans-66" d="M 2375 4863 
L 2375 4384 
L 1825 4384 
Q 1516 4384 1395 4259 
Q 1275 4134 1275 3809 
L 1275 3500 
L 2222 3500 
L 2222 3053 
L 1275 3053 
L 1275 0 
L 697 0 
L 697 3053 
L 147 3053 
L 147 3500 
L 697 3500 
L 697 3744 
Q 697 4328 969 4595 
Q 1241 4863 1831 4863 
L 2375 4863 
z
" transform="scale(0.015625)"/>
       <path id="DejaVuSans-46" d="M 628 4666 
L 3309 4666 
L 3309 4134 
L 1259 4134 
L 1259 2759 
L 3109 2759 
L 3109 2228 
L 1259 2228 
L 1259 0 
L 628 0 
L 628 4666 
z
" transform="scale(0.015625)"/>
       <path id="DejaVuSans-45" d="M 628 4666 
L 3578 4666 
L 3578 4134 
L 1259 4134 
L 1259 2753 
L 3481 2753 
L 3481 2222 
L 1259 2222 
L 1259 531 
L 3634 531 
L 3634 0 
L 628 0 
L 628 4666 
z
" transform="scale(0.015625)"/>
       <path id="DejaVuSans-76" d="M 191 3500 
L 800 3500 
L 1894 563 
L 2988 3500 
L 3597 3500 
L 2284 0 
L 1503 0 
L 191 3500 
z
" transform="scale(0.015625)"/>
       <path id="DejaVuSans-61" d="M 2194 1759 
Q 1497 1759 1228 1600 
Q 959 1441 959 1056 
Q 959 750 1161 570 
Q 1363 391 1709 391 
Q 2188 391 2477 730 
Q 2766 1069 2766 1631 
L 2766 1759 
L 2194 1759 
z
M 3341 1997 
L 3341 0 
L 2766 0 
L 2766 531 
Q 2569 213 2275 61 
Q 1981 -91 1556 -91 
Q 1019 -91 701 211 
Q 384 513 384 1019 
Q 384 1609 779 1909 
Q 1175 2209 1959 2209 
L 2766 2209 
L 2766 2266 
Q 2766 2663 2505 2880 
Q 2244 3097 1772 3097 
Q 1472 3097 1187 3025 
Q 903 2953 641 2809 
L 641 3341 
Q 956 3463 1253 3523 
Q 1550 3584 1831 3584 
Q 2591 3584 2966 3190 
Q 3341 2797 3341 1997 
z
" transform="scale(0.015625)"/>
       <path id="DejaVuSans-73" d="M 2834 3397 
L 2834 2853 
Q 2591 2978 2328 3040 
Q 2066 3103 1784 3103 
Q 1356 3103 1142 2972 
Q 928 2841 928 2578 
Q 928 2378 1081 2264 
Q 1234 2150 1697 2047 
L 1894 2003 
Q 2506 1872 2764 1633 
Q 3022 1394 3022 966 
Q 3022 478 2636 193 
Q 2250 -91 1575 -91 
Q 1294 -91 989 -36 
Q 684 19 347 128 
L 347 722 
Q 666 556 975 473 
Q 1284 391 1588 391 
Q 1994 391 2212 530 
Q 2431 669 2431 922 
Q 2431 1156 2273 1281 
Q 2116 1406 1581 1522 
L 1381 1569 
Q 847 1681 609 1914 
Q 372 2147 372 2553 
Q 372 3047 722 3315 
Q 1072 3584 1716 3584 
Q 2034 3584 2315 3537 
Q 2597 3491 2834 3397 
z
" transform="scale(0.015625)"/>
       <path id="DejaVuSans-72" d="M 2631 2963 
Q 2534 3019 2420 3045 
Q 2306 3072 2169 3072 
Q 1681 3072 1420 2755 
Q 1159 2438 1159 1844 
L 1159 0 
L 581 0 
L 581 3500 
L 1159 3500 
L 1159 2956 
Q 1341 3275 1631 3429 
Q 1922 3584 2338 3584 
Q 2397 3584 2469 3576 
Q 2541 3569 2628 3553 
L 2631 2963 
z
" transform="scale(0.015625)"/>
       <path id="DejaVuSans-74" d="M 1172 4494 
L 1172 3500 
L 2356 3500 
L 2356 3053 
L 1172 3053 
L 1172 1153 
Q 1172 725 1289 603 
Q 1406 481 1766 481 
L 2356 481 
L 2356 0 
L 1766 0 
Q 1100 0 847 248 
Q 594 497 594 1153 
L 594 3053 
L 172 3053 
L 172 3500 
L 594 3500 
L 594 4494 
L 1172 4494 
z
" transform="scale(0.015625)"/>
       <path id="DejaVuSans-69" d="M 603 3500 
L 1178 3500 
L 1178 0 
L 603 0 
L 603 3500 
z
M 603 4863 
L 1178 4863 
L 1178 4134 
L 603 4134 
L 603 4863 
z
" transform="scale(0.015625)"/>
      </defs>
      <use xlink:href="#DejaVuSans-6c"/>
      <use xlink:href="#DejaVuSans-6f" x="27.783203"/>
      <use xlink:href="#DejaVuSans-67" x="88.964844"/>
      <use xlink:href="#DejaVuSans-31" x="152.441406"/>
      <use xlink:href="#DejaVuSans-30" x="216.064453"/>
      <use xlink:href="#DejaVuSans-20" x="279.6875"/>
      <use xlink:href="#DejaVuSans-6f" x="311.474609"/>
      <use xlink:href="#DejaVuSans-66" x="372.65625"/>
      <use xlink:href="#DejaVuSans-20" x="407.861328"/>
      <use xlink:href="#DejaVuSans-46" x="439.648438"/>
      <use xlink:href="#DejaVuSans-45" x="497.167969"/>
      <use xlink:href="#DejaVuSans-76" x="560.351562"/>
      <use xlink:href="#DejaVuSans-61" x="619.53125"/>
      <use xlink:href="#DejaVuSans-6c" x="680.810547"/>
      <use xlink:href="#DejaVuSans-73" x="708.59375"/>
      <use xlink:href="#DejaVuSans-20" x="760.693359"/>
      <use xlink:href="#DejaVuSans-72" x="792.480469"/>
      <use xlink:href="#DejaVuSans-61" x="833.59375"/>
      <use xlink:href="#DejaVuSans-74" x="894.873047"/>
      <use xlink:href="#DejaVuSans-69" x="934.082031"/>
      <use xlink:href="#DejaVuSans-6f" x="961.865234"/>
     </g>
    </g>
   </g>
   <g id="matplotlib.axis_2">
    <g id="ytick_1">
     <g id="line2d_23">
      <path d="M 34.16 288.453725 
L 446.924475 288.453725 
" clip-path="url(#pd098d0f096)" style="fill: none; stroke: #b0b0b0; stroke-width: 0.8; stroke-linecap: square"/>
     </g>
     <g id="line2d_24">
      <defs>
       <path id="m5f18773513" d="M 0 0 
L -3.5 0 
" style="stroke: #000000; stroke-width: 0.8"/>
      </defs>
      <g>
       <use xlink:href="#m5f18773513" x="34.16" y="288.453725" style="stroke: #000000; stroke-width: 0.8"/>
      </g>
     </g>
    </g>
    <g id="ytick_2">
     <g id="line2d_25">
      <path d="M 34.16 217.796863 
L 446.924475 217.796863 
" clip-path="url(#pd098d0f096)" style="fill: none; stroke: #b0b0b0; stroke-width: 0.8; stroke-linecap: square"/>
     </g>
     <g id="line2d_26">
      <g>
       <use xlink:href="#m5f18773513" x="34.16" y="217.796863" style="stroke: #000000; stroke-width: 0.8"/>
      </g>
     </g>
    </g>
    <g id="ytick_3">
     <g id="line2d_27">
      <path d="M 34.16 147.14 
L 446.924475 147.14 
" clip-path="url(#pd098d0f096)" style="fill: none; stroke: #b0b0b0; stroke-width: 0.8; stroke-linecap: square"/>
     </g>
     <g id="line2d_28">
      <g>
       <use xlink:href="#m5f18773513" x="34.16" y="147.14" style="stroke: #000000; stroke-width: 0.8"/>
      </g>
     </g>
    </g>
    <g id="ytick_4">
     <g id="line2d_29">
      <path d="M 34.16 76.483137 
L 446.924475 76.483137 
" clip-path="url(#pd098d0f096)" style="fill: none; stroke: #b0b0b0; stroke-width: 0.8; stroke-linecap: square"/>
     </g>
     <g id="line2d_30">
      <g>
       <use xlink:href="#m5f18773513" x="34.16" y="76.483137" style="stroke: #000000; stroke-width: 0.8"/>
      </g>
     </g>
    </g>
    <g id="ytick_5">
     <g id="line2d_31">
      <path d="M 34.16 5.826275 
L 446.924475 5.826275 
" clip-path="url(#pd098d0f096)" style="fill: none; stroke: #b0b0b0; stroke-width: 0.8; stroke-linecap: square"/>
     </g>
     <g id="line2d_32">
      <g>
       <use xlink:href="#m5f18773513" x="34.16" y="5.826275" style="stroke: #000000; stroke-width: 0.8"/>
      </g>
     </g>
    </g>
    <g id="text_5">
     <!-- proportion of trials -->
     <g transform="translate(19.000625 240.14625)rotate(-90)scale(0.2 -0.2)">
      <defs>
       <path id="DejaVuSans-70" d="M 1159 525 
L 1159 -1331 
L 581 -1331 
L 581 3500 
L 1159 3500 
L 1159 2969 
Q 1341 3281 1617 3432 
Q 1894 3584 2278 3584 
Q 2916 3584 3314 3078 
Q 3713 2572 3713 1747 
Q 3713 922 3314 415 
Q 2916 -91 2278 -91 
Q 1894 -91 1617 61 
Q 1341 213 1159 525 
z
M 3116 1747 
Q 3116 2381 2855 2742 
Q 2594 3103 2138 3103 
Q 1681 3103 1420 2742 
Q 1159 2381 1159 1747 
Q 1159 1113 1420 752 
Q 1681 391 2138 391 
Q 2594 391 2855 752 
Q 3116 1113 3116 1747 
z
" transform="scale(0.015625)"/>
       <path id="DejaVuSans-6e" d="M 3513 2113 
L 3513 0 
L 2938 0 
L 2938 2094 
Q 2938 2591 2744 2837 
Q 2550 3084 2163 3084 
Q 1697 3084 1428 2787 
Q 1159 2491 1159 1978 
L 1159 0 
L 581 0 
L 581 3500 
L 1159 3500 
L 1159 2956 
Q 1366 3272 1645 3428 
Q 1925 3584 2291 3584 
Q 2894 3584 3203 3211 
Q 3513 2838 3513 2113 
z
" transform="scale(0.015625)"/>
      </defs>
      <use xlink:href="#DejaVuSans-70"/>
      <use xlink:href="#DejaVuSans-72" x="63.476562"/>
      <use xlink:href="#DejaVuSans-6f" x="102.339844"/>
      <use xlink:href="#DejaVuSans-70" x="163.521484"/>
      <use xlink:href="#DejaVuSans-6f" x="226.998047"/>
      <use xlink:href="#DejaVuSans-72" x="288.179688"/>
      <use xlink:href="#DejaVuSans-74" x="329.292969"/>
      <use xlink:href="#DejaVuSans-69" x="368.501953"/>
      <use xlink:href="#DejaVuSans-6f" x="396.285156"/>
      <use xlink:href="#DejaVuSans-6e" x="457.466797"/>
      <use xlink:href="#DejaVuSans-20" x="520.845703"/>
      <use xlink:href="#DejaVuSans-6f" x="552.632812"/>
      <use xlink:href="#DejaVuSans-66" x="613.814453"/>
      <use xlink:href="#DejaVuSans-20" x="649.019531"/>
      <use xlink:href="#DejaVuSans-74" x="680.806641"/>
      <use xlink:href="#DejaVuSans-72" x="720.015625"/>
      <use xlink:href="#DejaVuSans-69" x="761.128906"/>
      <use xlink:href="#DejaVuSans-61" x="788.912109"/>
      <use xlink:href="#DejaVuSans-6c" x="850.191406"/>
      <use xlink:href="#DejaVuSans-73" x="877.974609"/>
     </g>
    </g>
   </g>
   <g id="line2d_33">
    <path d="M 34.16 288.453725 
L 120.216955 288.453725 
L 120.216955 287.700052 
L 120.990117 287.700052 
L 120.990117 286.946379 
L 121.573942 286.946379 
L 121.573942 286.192706 
L 122.720937 286.192706 
L 122.720937 285.439033 
L 122.910683 285.439033 
L 122.910683 284.685359 
L 123.163054 284.685359 
L 123.163054 283.931686 
L 124.600553 283.931686 
L 124.600553 283.178013 
L 130.18871 283.178013 
L 130.18871 282.42434 
L 130.537543 282.42434 
L 130.537543 281.670667 
L 131.575966 281.670667 
L 131.575966 280.16332 
L 131.805101 280.16332 
L 131.805101 279.409647 
L 134.731726 279.409647 
L 134.731726 278.655974 
L 145.664758 278.655974 
L 145.664758 277.902301 
L 149.819647 277.902301 
L 149.819647 277.148627 
L 151.422416 277.148627 
L 151.422416 276.394954 
L 152.793921 276.394954 
L 152.793921 275.641281 
L 164.719628 275.641281 
L 164.719628 274.887608 
L 165.946932 274.887608 
L 165.946932 274.133935 
L 168.901906 274.133935 
L 168.901906 273.380261 
L 180.251946 273.380261 
L 180.251946 272.626588 
L 183.22622 272.626588 
L 183.22622 271.872915 
L 186.546163 271.872915 
L 186.546163 271.119242 
L 189.405718 271.119242 
L 189.405718 270.365569 
L 190.182307 270.365569 
L 190.182307 269.611895 
L 191.539295 269.611895 
L 191.539295 268.858222 
L 192.686289 268.858222 
L 192.686289 268.104549 
L 192.876035 268.104549 
L 192.876035 267.350876 
L 193.128406 267.350876 
L 193.128406 266.597203 
L 193.549158 266.597203 
L 193.549158 265.843529 
L 194.422344 265.843529 
L 194.422344 265.089856 
L 194.565906 265.089856 
L 194.565906 264.336183 
L 194.776462 264.336183 
L 194.864773 262.828837 
L 196.523432 262.828837 
L 196.523432 262.075163 
L 197.750736 262.075163 
L 197.750736 261.32149 
L 199.334205 261.32149 
L 199.334205 260.567817 
L 200.154063 260.567817 
L 200.154063 259.814144 
L 200.502896 259.814144 
L 200.502896 259.060471 
L 201.541318 259.060471 
L 201.541318 257.553124 
L 201.770453 257.553124 
L 201.770453 256.799451 
L 202.11109 256.799451 
L 202.11109 256.045778 
L 203.283336 256.045778 
L 203.283336 255.292105 
L 204.697078 255.292105 
L 204.697078 254.538431 
L 206.052397 254.538431 
L 206.052397 253.784758 
L 206.828088 253.784758 
L 206.828088 253.031085 
L 210.030663 253.031085 
L 210.030663 252.277412 
L 211.432442 252.277412 
L 211.432442 251.523739 
L 212.629115 251.523739 
L 212.631417 250.016392 
L 213.505837 250.016392 
L 213.505837 249.262719 
L 213.85872 249.262719 
L 213.85872 248.509046 
L 213.986102 248.509046 
L 213.986102 247.755373 
L 215.133097 247.755373 
L 215.133097 247.001699 
L 215.322843 247.001699 
L 215.375694 245.494353 
L 215.575214 245.494353 
L 215.630111 243.987007 
L 215.831632 243.987007 
L 215.910841 241.725987 
L 216.724439 241.725987 
L 216.724439 240.972314 
L 217.012713 240.972314 
L 217.012713 240.218641 
L 218.16483 240.218641 
L 218.235248 237.957621 
L 218.349968 237.957621 
L 218.349968 237.203948 
L 219.080564 237.203948 
L 219.080564 236.450275 
L 219.352014 236.450275 
L 219.456984 234.942928 
L 219.751667 234.942928 
L 219.751667 234.189255 
L 220.056971 234.189255 
L 220.056971 233.435582 
L 221.209523 233.435582 
L 221.209523 232.681908 
L 221.425409 232.681908 
L 221.459979 231.174562 
L 222.380953 231.174562 
L 222.380953 230.420889 
L 222.600871 230.420889 
L 222.600871 229.667216 
L 222.728484 229.667216 
L 222.728484 228.913542 
L 222.949703 228.913542 
L 222.949703 228.159869 
L 223.077463 228.159869 
L 223.077463 227.406196 
L 223.251875 227.406196 
L 223.251875 226.652523 
L 223.694304 226.652523 
L 223.694304 225.89885 
L 223.830414 225.89885 
L 223.830414 225.145176 
L 223.988126 225.145176 
L 224.057969 222.884157 
L 224.217261 222.884157 
L 224.217261 222.130484 
L 224.863735 222.130484 
L 224.863735 221.37681 
L 225.145868 221.37681 
L 225.177563 219.115791 
L 225.308211 219.115791 
L 225.308211 218.362118 
L 225.719221 218.362118 
L 225.719221 217.608444 
L 226.045791 217.608444 
L 226.045791 216.854771 
L 226.226149 216.854771 
L 226.226149 216.101098 
L 226.4975 216.101098 
L 226.580779 213.840078 
L 226.645458 213.840078 
L 226.672356 211.579059 
L 226.920081 211.579059 
L 226.969463 210.071712 
L 227.03157 210.071712 
L 227.03157 209.318039 
L 227.143886 209.318039 
L 227.250958 207.05702 
L 227.349997 207.05702 
L 227.349997 206.303346 
L 227.64985 206.303346 
L 227.64985 205.549673 
L 227.831021 205.549673 
L 227.937669 203.288654 
L 228.091967 203.288654 
L 228.158752 200.273961 
L 228.296566 200.273961 
L 228.402398 198.012941 
L 228.44067 198.012941 
L 228.44067 197.259268 
L 228.567725 197.259268 
L 228.567725 196.505595 
L 228.778336 196.505595 
L 228.778336 195.751922 
L 228.893664 195.751922 
L 228.893664 194.998248 
L 229.02031 194.998248 
L 229.052097 193.490902 
L 229.187911 193.490902 
L 229.195166 191.983556 
L 229.361063 191.983556 
L 229.414829 188.968863 
L 229.529466 188.968863 
L 229.631383 187.461516 
L 229.655963 187.461516 
L 229.655963 186.707843 
L 229.797658 186.707843 
L 229.797658 185.95417 
L 230.06365 185.95417 
L 230.06365 185.200497 
L 230.263688 185.200497 
L 230.263688 184.446824 
L 230.3772 184.446824 
L 230.3772 183.69315 
L 230.52419 183.69315 
L 230.582115 179.924784 
L 230.85173 179.924784 
L 230.961725 176.156418 
L 231.022316 176.156418 
L 231.029117 174.649072 
L 231.134398 174.649072 
L 231.165126 173.141725 
L 231.38677 173.141725 
L 231.451717 170.880706 
L 231.532193 170.880706 
L 231.563206 169.373359 
L 231.727735 169.373359 
L 231.799843 167.866013 
L 231.85011 167.866013 
L 231.950843 164.097647 
L 232.112866 164.097647 
L 232.112866 163.343974 
L 232.282098 163.343974 
L 232.282098 162.590301 
L 232.398815 162.590301 
L 232.398815 161.836627 
L 232.511276 161.836627 
L 232.514321 160.329281 
L 232.646947 160.329281 
L 232.646947 159.575608 
L 232.773364 159.575608 
L 232.826379 156.560915 
L 232.977977 156.560915 
L 233.068347 155.053569 
L 233.240763 155.053569 
L 233.281332 152.792549 
L 233.375879 152.792549 
L 233.375879 152.038876 
L 233.612095 152.038876 
L 233.703579 149.777856 
L 233.793314 149.777856 
L 233.856721 148.27051 
L 233.915452 148.27051 
L 233.915452 147.516837 
L 234.167265 147.516837 
L 234.167265 146.763163 
L 234.342121 146.763163 
L 234.342121 146.00949 
L 234.457952 146.00949 
L 234.473653 143.748471 
L 234.732768 143.748471 
L 234.839653 141.487451 
L 234.881928 141.487451 
L 234.93244 139.980105 
L 235.044826 139.980105 
L 235.117623 136.965412 
L 235.171986 136.965412 
L 235.171986 136.211739 
L 235.449167 136.211739 
L 235.466456 134.704392 
L 235.657619 134.704392 
L 235.767594 131.689699 
L 235.830543 131.689699 
L 235.830543 130.936026 
L 236.063829 130.936026 
L 236.174305 128.675007 
L 236.504879 128.675007 
L 236.56343 126.413987 
L 236.701593 126.413987 
L 236.769796 124.152967 
L 236.877214 124.152967 
L 236.985322 121.891948 
L 237.011898 121.891948 
L 237.100274 119.630928 
L 237.317507 119.630928 
L 237.418702 117.369908 
L 237.832426 117.369908 
L 237.856202 115.862562 
L 238.076919 115.862562 
L 238.076919 115.108889 
L 238.204202 115.108889 
L 238.262624 113.601542 
L 238.362845 113.601542 
L 238.412426 110.58685 
L 238.522834 110.58685 
L 238.631893 109.079503 
L 238.636429 109.079503 
L 238.636429 108.32583 
L 238.761259 108.32583 
L 238.834892 106.818484 
L 238.978793 106.818484 
L 239.033288 105.311137 
L 239.224403 105.311137 
L 239.299195 103.803791 
L 239.483534 103.803791 
L 239.483534 103.050118 
L 239.619514 103.050118 
L 239.672609 100.035425 
L 239.799681 100.035425 
L 239.799681 98.528078 
L 239.980803 98.528078 
L 240.028816 97.020732 
L 240.283077 97.020732 
L 240.283077 96.267059 
L 240.446843 96.267059 
L 240.446843 95.513386 
L 240.581292 95.513386 
L 240.665202 92.498693 
L 240.69454 92.498693 
L 240.69454 91.74502 
L 240.928873 91.74502 
L 240.960447 90.237673 
L 241.101605 90.237673 
L 241.171461 88.730327 
L 241.533429 88.730327 
L 241.63191 86.469307 
L 241.822005 86.469307 
L 241.822005 85.715634 
L 242.102001 85.715634 
L 242.121176 84.208288 
L 242.334133 84.208288 
L 242.356471 82.700941 
L 242.57998 82.700941 
L 242.57998 81.947268 
L 242.762857 81.947268 
L 242.851847 79.686248 
L 242.912988 79.686248 
L 242.955441 78.178902 
L 243.178895 78.178902 
L 243.244856 76.671556 
L 243.40958 76.671556 
L 243.40958 75.917882 
L 243.589583 75.917882 
L 243.624416 74.410536 
L 243.772284 74.410536 
L 243.772284 73.656863 
L 244.175396 73.656863 
L 244.265974 72.149516 
L 244.371358 72.149516 
L 244.371358 71.395843 
L 244.528806 71.395843 
L 244.528806 70.64217 
L 244.761476 70.64217 
L 244.865961 69.134824 
L 244.981305 69.134824 
L 244.981305 68.38115 
L 245.24069 68.38115 
L 245.24069 67.627477 
L 245.495657 67.627477 
L 245.495657 66.873804 
L 245.64986 66.873804 
L 245.64986 66.120131 
L 246.091148 66.120131 
L 246.091148 65.366458 
L 246.5804 65.366458 
L 246.5804 64.612784 
L 246.703054 64.612784 
L 246.703054 63.859111 
L 246.968961 63.859111 
L 246.968961 63.105438 
L 247.569051 63.105438 
L 247.569051 62.351765 
L 247.886454 62.351765 
L 247.910095 60.844418 
L 248.164542 60.844418 
L 248.164542 60.090745 
L 248.581198 60.090745 
L 248.581198 59.337072 
L 248.771371 59.337072 
L 248.771371 58.583399 
L 249.974056 58.583399 
L 249.974056 57.829725 
L 250.569547 57.829725 
L 250.593671 56.322379 
L 250.884369 56.322379 
L 250.884369 55.568706 
L 251.195125 55.568706 
L 251.195125 54.815033 
L 251.555472 54.815033 
L 251.555472 54.061359 
L 252.813252 54.061359 
L 252.813252 53.307686 
L 253.850157 53.307686 
L 253.888474 51.046667 
L 253.964186 51.046667 
L 253.964186 50.292993 
L 254.739877 50.292993 
L 254.739877 49.53932 
L 255.770715 49.53932 
L 255.770715 48.785647 
L 255.923552 48.785647 
L 255.923552 48.031974 
L 256.6591 48.031974 
L 256.6591 47.278301 
L 257.58964 47.278301 
L 257.58964 46.524627 
L 258.328557 46.524627 
L 258.328557 45.770954 
L 260.753205 45.770954 
L 260.753205 45.017281 
L 260.983295 45.017281 
L 260.983295 44.263608 
L 261.578786 44.263608 
L 261.578786 43.509935 
L 262.110501 43.509935 
L 262.110501 42.756261 
L 263.727479 42.756261 
L 263.727479 42.002588 
L 266.110464 42.002588 
L 266.110464 41.248915 
L 266.992353 41.248915 
L 266.992353 40.495242 
L 267.337768 40.495242 
L 267.337768 39.741569 
L 267.663456 39.741569 
L 267.663456 38.987895 
L 269.337796 38.987895 
L 269.337796 38.234222 
L 279.835463 38.234222 
L 279.835463 37.480549 
L 287.936999 37.480549 
L 287.936999 36.726876 
L 288.130182 36.726876 
L 288.130182 35.973203 
L 290.796554 35.973203 
L 290.796554 35.219529 
L 290.940031 35.219529 
L 290.940031 34.465856 
L 293.914305 34.465856 
L 293.914305 33.712183 
L 295.81318 33.712183 
L 295.81318 32.95851 
L 296.25561 32.95851 
L 296.25561 32.204837 
L 300.99447 32.204837 
L 300.99447 31.451163 
L 304.674172 31.451163 
L 304.674172 30.69749 
L 305.743163 30.69749 
L 305.743163 29.943817 
L 307.443233 29.943817 
L 307.443233 29.190144 
L 308.218924 29.190144 
L 308.218924 28.436471 
L 308.975281 28.436471 
L 308.975281 27.682797 
L 310.022289 27.682797 
L 310.022289 26.929124 
L 310.243786 26.929124 
L 310.243786 26.175451 
L 310.57699 26.175451 
L 310.57699 25.421778 
L 314.16076 25.421778 
L 314.16076 24.668105 
L 315.811867 24.668105 
L 315.811867 23.914431 
L 316.637728 23.914431 
L 316.637728 23.160758 
L 319.869846 23.160758 
L 319.869846 22.407085 
L 320.471401 22.407085 
L 320.471401 21.653412 
L 321.138351 21.653412 
L 321.142503 20.146065 
L 323.093743 20.146065 
L 323.093743 19.392392 
L 323.441277 19.392392 
L 323.441277 18.638719 
L 324.357773 18.638719 
L 324.357773 17.885046 
L 325.055325 17.885046 
L 325.055325 17.131373 
L 326.388545 17.131373 
L 326.388545 16.377699 
L 326.706433 16.377699 
L 326.706433 15.624026 
L 327.589891 15.624026 
L 327.589891 14.870353 
L 328.858395 14.870353 
L 328.858395 14.11668 
L 332.77537 14.11668 
L 332.77537 13.363007 
L 333.314511 13.363007 
L 333.314511 12.609333 
L 334.426477 12.609333 
L 334.426477 11.85566 
L 335.95803 11.85566 
L 335.95803 11.101987 
L 339.252833 11.101987 
L 339.252833 10.348314 
L 342.453571 10.348314 
L 342.453571 9.594641 
L 345.685689 9.594641 
L 345.685689 8.840967 
L 346.954194 8.840967 
L 346.954194 8.087294 
L 350.871168 8.087294 
L 350.871168 7.333621 
L 352.522276 7.333621 
L 352.522276 6.579948 
L 363.501337 6.579948 
L 363.501337 5.826275 
L 446.924475 5.826275 
L 446.924475 5.826275 
" clip-path="url(#pd098d0f096)" style="fill: none; stroke: #000000; stroke-width: 3; stroke-linecap: square"/>
   </g>
   <g id="line2d_34">
    <path clip-path="url(#pd098d0f096)" style="fill: none; stroke: #000000; stroke-width: 3; stroke-linecap: square"/>
   </g>
   <g id="line2d_35">
    <path d="M 34.16 288.453725 
L 60.735554 288.453725 
L 60.735554 287.700052 
L 65.182709 287.700052 
L 65.182709 286.946379 
L 66.082052 286.946379 
L 66.082052 286.192706 
L 95.097205 286.192706 
L 95.097205 285.439033 
L 99.54436 285.439033 
L 99.54436 284.685359 
L 100.443702 284.685359 
L 100.443702 283.931686 
L 117.751439 283.931686 
L 117.751439 283.178013 
L 119.426274 283.178013 
L 119.426274 282.42434 
L 132.158257 282.42434 
L 132.158257 281.670667 
L 133.833092 281.670667 
L 133.833092 280.916993 
L 139.74102 280.916993 
L 139.74102 280.16332 
L 144.188175 280.16332 
L 144.188175 279.409647 
L 145.087518 279.409647 
L 145.087518 278.655974 
L 153.807752 278.655974 
L 153.807752 277.902301 
L 157.371309 277.902301 
L 157.371309 277.148627 
L 163.307538 277.148627 
L 163.307538 276.394954 
L 166.480891 276.394954 
L 166.480891 275.641281 
L 168.214569 275.641281 
L 168.214569 274.887608 
L 180.887709 274.887608 
L 180.887709 274.133935 
L 185.871544 274.133935 
L 185.871544 273.380261 
L 187.546379 273.380261 
L 187.546379 272.626588 
L 191.73296 272.626588 
L 191.73296 271.872915 
L 192.614406 271.872915 
L 192.614406 271.119242 
L 196.88757 271.119242 
L 196.88757 270.365569 
L 197.012638 270.365569 
L 197.012638 269.611895 
L 197.669189 269.611895 
L 197.669189 268.858222 
L 198.687473 268.858222 
L 198.687473 268.104549 
L 200.663841 268.104549 
L 200.663841 267.350876 
L 205.926533 267.350876 
L 205.926533 266.597203 
L 207.708991 266.597203 
L 207.708991 265.843529 
L 209.048513 265.843529 
L 209.048513 265.089856 
L 209.526834 265.089856 
L 209.526834 264.336183 
L 210.7795 264.336183 
L 210.7795 263.58251 
L 211.867364 263.58251 
L 211.867364 262.828837 
L 214.600222 262.828837 
L 214.600222 262.075163 
L 216.03067 262.075163 
L 216.03067 261.32149 
L 216.314039 261.32149 
L 216.314039 260.567817 
L 217.531719 260.567817 
L 217.531719 259.814144 
L 218.994594 259.814144 
L 219.028421 258.306797 
L 219.43929 258.306797 
L 219.43929 257.553124 
L 221.614959 257.553124 
L 221.616387 256.045778 
L 221.927857 256.045778 
L 221.927857 255.292105 
L 222.892945 255.292105 
L 222.892945 254.538431 
L 223.475576 254.538431 
L 223.475576 253.784758 
L 223.600793 253.784758 
L 223.600793 253.031085 
L 223.754152 253.031085 
L 223.754152 252.277412 
L 224.073783 252.277412 
L 224.073783 251.523739 
L 224.374919 251.523739 
L 224.374919 250.770065 
L 224.734868 250.770065 
L 224.734868 250.016392 
L 224.941059 250.016392 
L 224.941059 249.262719 
L 225.186317 249.262719 
L 225.186317 248.509046 
L 225.738637 248.509046 
L 225.748617 247.001699 
L 226.045351 247.001699 
L 226.045351 246.248026 
L 226.489257 246.248026 
L 226.489257 245.494353 
L 226.640878 245.494353 
L 226.640878 244.74068 
L 226.976057 244.74068 
L 226.976057 243.987007 
L 227.369271 243.987007 
L 227.431333 241.725987 
L 227.521095 241.725987 
L 227.521095 240.972314 
L 228.423337 240.972314 
L 228.423337 240.218641 
L 228.860618 240.218641 
L 228.937052 238.711294 
L 229.109622 238.711294 
L 229.182023 236.450275 
L 229.271898 236.450275 
L 229.271898 235.696601 
L 229.603041 235.696601 
L 229.603041 234.942928 
L 229.762859 234.942928 
L 229.762859 234.189255 
L 230.081366 234.189255 
L 230.178546 232.681908 
L 230.298093 232.681908 
L 230.387608 231.174562 
L 230.491251 231.174562 
L 230.491251 230.420889 
L 230.71951 230.420889 
L 230.729778 228.913542 
L 231.001576 228.913542 
L 231.095456 226.652523 
L 231.249221 226.652523 
L 231.302472 225.145176 
L 231.443605 225.145176 
L 231.552828 222.884157 
L 231.679468 222.884157 
L 231.679468 222.130484 
L 231.876541 222.130484 
L 231.876541 221.37681 
L 232.059032 221.37681 
L 232.138657 219.869464 
L 232.26845 219.869464 
L 232.26845 219.115791 
L 232.379761 219.115791 
L 232.379761 218.362118 
L 232.570342 218.362118 
L 232.627667 216.101098 
L 233.068951 216.101098 
L 233.126286 214.593752 
L 233.310102 214.593752 
L 233.393392 211.579059 
L 233.621941 211.579059 
L 233.717105 210.071712 
L 233.862914 210.071712 
L 233.955891 207.05702 
L 234.391916 207.05702 
L 234.440158 204.796 
L 234.600996 204.796 
L 234.623121 203.288654 
L 234.799374 203.288654 
L 234.899927 201.027634 
L 234.943885 201.027634 
L 235.025491 198.766614 
L 235.13521 198.766614 
L 235.20134 197.259268 
L 235.314568 197.259268 
L 235.314568 196.505595 
L 235.494426 196.505595 
L 235.566895 194.998248 
L 235.607775 194.998248 
L 235.622101 193.490902 
L 235.842774 193.490902 
L 235.926112 191.983556 
L 236.04296 191.983556 
L 236.126143 190.476209 
L 236.23248 190.476209 
L 236.23248 189.722536 
L 236.376776 189.722536 
L 236.483279 185.95417 
L 236.550908 185.95417 
L 236.619289 182.939477 
L 236.709778 182.939477 
L 236.749161 178.417438 
L 236.983291 178.417438 
L 237.072875 176.156418 
L 237.094564 176.156418 
L 237.094564 175.402745 
L 237.343823 175.402745 
L 237.447955 173.895399 
L 237.473408 173.895399 
L 237.473408 173.141725 
L 237.610741 173.141725 
L 237.610741 172.388052 
L 237.756777 172.388052 
L 237.854241 168.619686 
L 237.963403 168.619686 
L 237.963403 167.866013 
L 238.197893 167.866013 
L 238.259322 165.604993 
L 238.32262 165.604993 
L 238.32262 164.85132 
L 238.469113 164.85132 
L 238.56209 159.575608 
L 238.798535 159.575608 
L 238.823856 158.068261 
L 238.920545 158.068261 
L 238.974457 156.560915 
L 239.041188 156.560915 
L 239.041188 155.807242 
L 239.229033 155.807242 
L 239.324558 152.792549 
L 239.346198 152.792549 
L 239.346198 152.038876 
L 239.460238 152.038876 
L 239.460238 151.285203 
L 239.58825 151.285203 
L 239.58825 150.531529 
L 239.743595 150.531529 
L 239.819454 148.27051 
L 239.874424 148.27051 
L 239.874424 147.516837 
L 240.067308 147.516837 
L 240.099886 146.00949 
L 240.517639 146.00949 
L 240.624184 143.748471 
L 241.097811 143.748471 
L 241.106216 142.241124 
L 241.225488 142.241124 
L 241.332033 139.980105 
L 241.4189 139.980105 
L 241.4189 139.226431 
L 241.546895 139.226431 
L 241.551544 137.719085 
L 241.820408 137.719085 
L 241.906111 136.211739 
L 242.137062 136.211739 
L 242.221841 133.197046 
L 242.285072 133.197046 
L 242.384202 130.936026 
L 242.582684 130.936026 
L 242.644289 129.42868 
L 242.696886 129.42868 
L 242.796295 127.921333 
L 242.813888 127.921333 
L 242.813888 127.16766 
L 243.092051 127.16766 
L 243.096439 125.660314 
L 243.255825 125.660314 
L 243.255825 124.906641 
L 243.404734 124.906641 
L 243.455656 123.399294 
L 243.718176 123.399294 
L 243.718176 122.645621 
L 243.888484 122.645621 
L 243.888484 121.891948 
L 244.386743 121.891948 
L 244.471129 120.384601 
L 244.757427 120.384601 
L 244.842206 118.123582 
L 244.900545 118.123582 
L 244.996161 116.616235 
L 245.174059 116.616235 
L 245.26503 115.108889 
L 245.638723 115.108889 
L 245.74209 112.847869 
L 245.857455 112.847869 
L 245.87619 111.340523 
L 246.035413 111.340523 
L 246.120192 109.079503 
L 246.450089 109.079503 
L 246.450089 108.32583 
L 246.743262 108.32583 
L 246.82804 105.311137 
L 246.939864 105.311137 
L 246.939864 104.557464 
L 247.154175 104.557464 
L 247.248081 103.050118 
L 247.31571 103.050118 
L 247.341058 101.542771 
L 247.488089 101.542771 
L 247.488089 100.789098 
L 247.862024 100.789098 
L 247.862024 100.035425 
L 249.05587 100.035425 
L 249.05587 99.281752 
L 249.99065 99.281752 
L 250.02484 97.020732 
L 250.111001 97.020732 
L 250.111001 96.267059 
L 250.23799 96.267059 
L 250.23799 95.513386 
L 250.474614 95.513386 
L 250.474614 94.759712 
L 250.874919 94.759712 
L 250.892891 93.252366 
L 251.114576 93.252366 
L 251.114576 92.498693 
L 251.621284 92.498693 
L 251.621284 91.74502 
L 251.77716 91.74502 
L 251.871019 90.237673 
L 251.912825 90.237673 
L 252.016817 88.730327 
L 252.183702 88.730327 
L 252.183702 87.976654 
L 252.505552 87.976654 
L 252.505552 87.22298 
L 252.74521 87.22298 
L 252.74521 86.469307 
L 253.189064 86.469307 
L 253.189064 85.715634 
L 253.709342 85.715634 
L 253.800941 84.208288 
L 254.073333 84.208288 
L 254.073333 83.454614 
L 254.31299 83.454614 
L 254.31299 82.700941 
L 254.482978 82.700941 
L 254.482978 81.947268 
L 254.611583 81.947268 
L 254.611583 81.193595 
L 255.339975 81.193595 
L 255.339975 80.439922 
L 255.52223 80.439922 
L 255.607008 78.178902 
L 255.978038 78.178902 
L 255.978038 77.425229 
L 256.640992 77.425229 
L 256.640992 76.671556 
L 256.906669 76.671556 
L 256.907756 75.164209 
L 257.80891 75.164209 
L 257.80891 74.410536 
L 258.115803 74.410536 
L 258.115803 73.656863 
L 258.537302 73.656863 
L 258.537302 72.90319 
L 259.302709 72.90319 
L 259.302709 72.149516 
L 260.105083 72.149516 
L 260.130095 70.64217 
L 261.784203 70.64217 
L 261.784203 69.888497 
L 269.836944 69.888497 
L 269.836944 69.134824 
L 270.739185 69.134824 
L 270.739185 68.38115 
L 271.000197 68.38115 
L 271.000197 67.627477 
L 271.467578 67.627477 
L 271.467578 66.873804 
L 271.619873 66.873804 
L 271.619873 66.120131 
L 272.803235 66.120131 
L 272.803235 65.366458 
L 273.035359 65.366458 
L 273.035359 64.612784 
L 275.893037 64.612784 
L 275.893037 63.859111 
L 278.852607 63.859111 
L 278.899605 62.351765 
L 279.669307 62.351765 
L 279.669307 61.598092 
L 281.321342 61.598092 
L 281.321342 60.844418 
L 283.673337 60.844418 
L 283.673337 60.090745 
L 284.836265 60.090745 
L 284.836265 59.337072 
L 286.294303 59.337072 
L 286.294303 58.583399 
L 287.171067 58.583399 
L 287.171067 57.829725 
L 288.5323 57.829725 
L 288.5323 57.076052 
L 288.845901 57.076052 
L 288.845901 56.322379 
L 290.040699 56.322379 
L 290.040699 55.568706 
L 291.525746 55.568706 
L 291.525746 54.815033 
L 293.994481 54.815033 
L 293.994481 54.061359 
L 295.100845 54.061359 
L 295.100845 53.307686 
L 295.280168 53.307686 
L 295.280168 52.554013 
L 296.77568 52.554013 
L 296.77568 51.80034 
L 296.955003 51.80034 
L 296.955003 51.046667 
L 298.444756 51.046667 
L 298.444756 50.292993 
L 298.967442 50.292993 
L 298.967442 49.53932 
L 300.621854 49.53932 
L 300.621854 48.785647 
L 302.759619 48.785647 
L 302.759619 48.031974 
L 303.946525 48.031974 
L 303.946525 47.278301 
L 305.971785 47.278301 
L 305.971785 46.524627 
L 306.428019 46.524627 
L 306.428019 45.770954 
L 307.64662 45.770954 
L 307.64662 45.017281 
L 310.021479 45.017281 
L 310.021479 44.263608 
L 310.320688 44.263608 
L 310.320688 43.509935 
L 311.696314 43.509935 
L 311.696314 42.756261 
L 311.995522 42.756261 
L 311.995522 42.002588 
L 315.664177 42.002588 
L 315.664177 41.248915 
L 317.101843 41.248915 
L 317.101843 40.495242 
L 321.370624 40.495242 
L 321.370624 39.741569 
L 321.600405 39.741569 
L 321.600405 38.987895 
L 323.227379 38.987895 
L 323.227379 38.234222 
L 327.306852 38.234222 
L 327.306852 37.480549 
L 327.971945 37.480549 
L 327.971945 36.726876 
L 329.480081 36.726876 
L 329.480081 35.973203 
L 331.157157 35.973203 
L 331.157157 35.219529 
L 331.336481 35.219529 
L 331.336481 34.465856 
L 335.824355 34.465856 
L 335.900519 32.95851 
L 338.29309 32.95851 
L 338.29309 32.204837 
L 342.028098 32.204837 
L 342.028098 31.451163 
L 343.26605 31.451163 
L 343.26605 30.69749 
L 343.830297 30.69749 
L 343.830297 29.943817 
L 344.00962 29.943817 
L 344.00962 29.190144 
L 346.077792 29.190144 
L 346.077792 28.436471 
L 346.377 28.436471 
L 346.377 27.682797 
L 350.907273 27.682797 
L 350.907273 26.929124 
L 354.701237 26.929124 
L 354.701237 26.175451 
L 355.180437 26.175451 
L 355.180437 25.421778 
L 356.61372 25.421778 
L 356.61372 24.668105 
L 358.750931 24.668105 
L 358.750931 23.914431 
L 358.956708 23.914431 
L 359.050139 22.407085 
L 360.886884 22.407085 
L 360.886884 21.653412 
L 364.663155 21.653412 
L 364.663155 20.899739 
L 367.819701 20.899739 
L 367.819701 20.146065 
L 373.526148 20.146065 
L 373.526148 19.392392 
L 377.732157 19.392392 
L 377.732157 18.638719 
L 379.909254 18.638719 
L 379.909254 17.885046 
L 380.199127 17.885046 
L 380.199127 17.131373 
L 382.047019 17.131373 
L 382.047019 16.377699 
L 383.233926 16.377699 
L 383.233926 15.624026 
L 383.438604 15.624026 
L 383.438604 14.870353 
L 385.615702 14.870353 
L 385.715419 13.363007 
L 387.753466 13.363007 
L 387.753466 12.609333 
L 388.128905 12.609333 
L 388.128905 11.85566 
L 388.308228 11.85566 
L 388.308228 11.101987 
L 388.940373 11.101987 
L 388.940373 10.348314 
L 391.421866 10.348314 
L 391.421866 9.594641 
L 398.999846 9.594641 
L 398.999846 8.840967 
L 403.049539 8.840967 
L 403.049539 8.087294 
L 403.348748 8.087294 
L 403.348748 7.333621 
L 408.767481 7.333621 
L 408.767481 6.579948 
L 414.473929 6.579948 
L 414.473929 5.826275 
L 446.924475 5.826275 
L 446.924475 5.826275 
" clip-path="url(#pd098d0f096)" style="fill: none; stroke: #00bfbf; stroke-width: 3; stroke-linecap: square"/>
   </g>
   <g id="line2d_36">
    <path clip-path="url(#pd098d0f096)" style="fill: none; stroke: #00bfbf; stroke-width: 3; stroke-linecap: square"/>
   </g>
   <g id="line2d_37">
    <path d="M 34.16 288.453725 
L 129.999346 288.453725 
L 129.999346 287.700052 
L 133.34719 287.700052 
L 133.34719 286.946379 
L 134.187894 286.946379 
L 134.187894 286.192706 
L 150.083877 286.192706 
L 150.083877 285.439033 
L 152.826064 285.439033 
L 152.826064 284.685359 
L 153.666767 284.685359 
L 153.666767 283.931686 
L 159.642902 283.931686 
L 159.642902 283.178013 
L 161.278792 283.178013 
L 161.278792 282.42434 
L 165.51649 282.42434 
L 165.51649 281.670667 
L 166.167878 281.670667 
L 166.167878 280.916993 
L 169.562751 280.916993 
L 169.562751 280.16332 
L 174.823216 280.16332 
L 174.823216 279.409647 
L 178.651185 279.409647 
L 178.651185 278.655974 
L 180.757665 278.655974 
L 180.822325 277.148627 
L 184.995364 277.148627 
L 184.995364 276.394954 
L 186.148956 276.394954 
L 186.148956 275.641281 
L 187.709633 275.641281 
L 187.709633 274.887608 
L 187.912802 274.887608 
L 187.912802 274.133935 
L 190.01337 274.133935 
L 190.01337 273.380261 
L 190.21211 273.380261 
L 190.21211 272.626588 
L 190.551345 272.626588 
L 190.551345 271.872915 
L 192.702208 271.872915 
L 192.702208 271.119242 
L 195.408209 271.119242 
L 195.408209 270.365569 
L 195.811434 270.365569 
L 195.811434 269.611895 
L 196.248913 269.611895 
L 196.248913 268.858222 
L 197.897128 268.858222 
L 197.897128 268.104549 
L 198.130058 268.104549 
L 198.130058 267.350876 
L 199.770564 267.350876 
L 199.770564 266.597203 
L 200.569127 266.597203 
L 200.578629 265.089856 
L 200.781987 265.089856 
L 200.781987 264.336183 
L 202.734081 264.336183 
L 202.734081 263.58251 
L 203.476403 263.58251 
L 203.476403 262.828837 
L 205.378564 262.828837 
L 205.378564 262.075163 
L 207.391676 262.075163 
L 207.391676 261.32149 
L 208.772101 261.32149 
L 208.772101 260.567817 
L 209.612805 260.567817 
L 209.612805 259.814144 
L 210.030218 259.814144 
L 210.030218 259.060471 
L 210.991748 259.060471 
L 210.991748 258.306797 
L 212.144896 258.306797 
L 212.181082 256.799451 
L 213.880895 256.799451 
L 213.880895 256.045778 
L 215.792512 256.045778 
L 215.792512 255.292105 
L 216.990857 255.292105 
L 216.990857 254.538431 
L 217.376001 254.538431 
L 217.376001 253.784758 
L 218.308648 253.784758 
L 218.308648 253.031085 
L 219.000692 253.031085 
L 219.000692 252.277412 
L 219.656926 252.277412 
L 219.656926 251.523739 
L 220.057502 251.523739 
L 220.057502 250.770065 
L 222.212955 250.770065 
L 222.212955 250.016392 
L 222.435669 250.016392 
L 222.435669 249.262719 
L 222.955277 249.262719 
L 223.031227 247.755373 
L 223.339811 247.755373 
L 223.339811 247.001699 
L 223.878165 247.001699 
L 223.878165 246.248026 
L 225.508788 246.248026 
L 225.508788 245.494353 
L 226.065784 245.494353 
L 226.065784 244.74068 
L 226.380642 244.74068 
L 226.380642 243.987007 
L 226.838927 243.987007 
L 226.838927 243.233333 
L 227.577509 243.233333 
L 227.679631 241.725987 
L 229.41412 241.725987 
L 229.41412 240.972314 
L 229.527693 240.972314 
L 229.527693 240.218641 
L 230.972825 240.218641 
L 230.972825 239.464967 
L 231.166038 239.464967 
L 231.21145 237.957621 
L 231.495868 237.957621 
L 231.495868 237.203948 
L 231.728304 237.203948 
L 231.728304 236.450275 
L 231.895769 236.450275 
L 231.895769 235.696601 
L 232.404734 235.696601 
L 232.506446 231.928235 
L 232.843046 231.928235 
L 232.843046 231.174562 
L 233.324876 231.174562 
L 233.379695 227.406196 
L 233.696479 227.406196 
L 233.696479 226.652523 
L 233.940759 226.652523 
L 234.051594 225.145176 
L 234.096379 225.145176 
L 234.195341 223.63783 
L 234.308107 223.63783 
L 234.409881 222.130484 
L 234.491217 222.130484 
L 234.544744 219.115791 
L 234.664586 219.115791 
L 234.707057 216.854771 
L 234.837239 216.854771 
L 234.837239 216.101098 
L 234.985781 216.101098 
L 234.985781 215.347425 
L 235.159438 215.347425 
L 235.265907 213.086405 
L 235.280546 213.086405 
L 235.315611 211.579059 
L 235.498916 211.579059 
L 235.580305 210.071712 
L 235.635697 210.071712 
L 235.715511 207.05702 
L 235.749667 207.05702 
L 235.848482 203.288654 
L 235.867747 203.288654 
L 235.965405 201.781307 
L 236.16892 201.781307 
L 236.187067 199.520288 
L 236.283718 199.520288 
L 236.344352 195.751922 
L 236.424937 195.751922 
L 236.499224 194.244575 
L 236.587364 194.244575 
L 236.65817 191.983556 
L 236.703702 191.983556 
L 236.737659 190.476209 
L 236.950519 190.476209 
L 236.971935 188.968863 
L 237.092117 188.968863 
L 237.199438 187.461516 
L 237.283483 187.461516 
L 237.384967 185.200497 
L 237.459464 185.200497 
L 237.561238 182.185804 
L 237.597001 182.185804 
L 237.699526 178.417438 
L 237.825412 178.417438 
L 237.866796 174.649072 
L 237.940164 174.649072 
L 238.013213 170.127033 
L 238.068358 170.127033 
L 238.158421 167.11234 
L 238.208291 167.11234 
L 238.310795 165.604993 
L 238.369394 165.604993 
L 238.457778 163.343974 
L 238.555142 163.343974 
L 238.625548 159.575608 
L 238.787974 159.575608 
L 238.787974 158.821935 
L 238.989529 158.821935 
L 239.08565 156.560915 
L 239.12335 156.560915 
L 239.201687 152.792549 
L 239.253944 152.792549 
L 239.318659 150.531529 
L 239.45544 150.531529 
L 239.497139 149.024183 
L 239.590258 149.024183 
L 239.68749 147.516837 
L 239.70918 147.516837 
L 239.790017 145.255817 
L 239.839887 145.255817 
L 239.874849 143.748471 
L 239.992358 143.748471 
L 240.072088 140.733778 
L 240.24468 140.733778 
L 240.321717 138.472758 
L 240.407107 138.472758 
L 240.499599 136.965412 
L 240.712204 136.965412 
L 240.818261 135.458065 
L 240.836349 135.458065 
L 240.941401 133.197046 
L 240.95285 133.197046 
L 241.013258 131.689699 
L 241.091521 131.689699 
L 241.167663 129.42868 
L 241.214635 129.42868 
L 241.302252 126.413987 
L 241.383352 126.413987 
L 241.383352 125.660314 
L 241.520751 125.660314 
L 241.623955 122.645621 
L 241.753142 122.645621 
L 241.82916 121.138275 
L 241.925281 121.138275 
L 242.011915 118.877255 
L 242.105784 118.877255 
L 242.2044 116.616235 
L 242.295071 116.616235 
L 242.376289 115.108889 
L 242.471401 115.108889 
L 242.542382 112.094196 
L 242.588324 112.094196 
L 242.605991 110.58685 
L 242.704808 110.58685 
L 242.722913 109.079503 
L 242.967271 109.079503 
L 243.026206 107.572157 
L 243.084311 107.572157 
L 243.101861 106.06481 
L 243.246738 106.06481 
L 243.351702 104.557464 
L 243.575614 104.557464 
L 243.575614 103.803791 
L 243.843213 103.803791 
L 243.859243 102.296444 
L 244.01597 102.296444 
L 244.01597 101.542771 
L 244.245267 101.542771 
L 244.245267 100.789098 
L 244.379857 100.789098 
L 244.379857 100.035425 
L 244.581581 100.035425 
L 244.594434 98.528078 
L 244.716171 98.528078 
L 244.78134 97.020732 
L 244.83121 97.020732 
L 244.915929 94.759712 
L 244.9658 94.759712 
L 245.009092 93.252366 
L 245.143681 93.252366 
L 245.244314 90.237673 
L 245.404212 90.237673 
L 245.404212 89.484 
L 245.544658 89.484 
L 245.611661 87.976654 
L 245.713435 87.976654 
L 245.794772 86.469307 
L 246.350266 86.469307 
L 246.36172 84.961961 
L 246.462992 84.961961 
L 246.462992 84.208288 
L 246.615277 84.208288 
L 246.717613 81.947268 
L 246.743998 81.947268 
L 246.819387 79.686248 
L 246.900723 79.686248 
L 246.994571 78.178902 
L 247.568944 78.178902 
L 247.568944 77.425229 
L 247.723657 77.425229 
L 247.723657 76.671556 
L 248.030283 76.671556 
L 248.045973 75.164209 
L 248.555569 75.164209 
L 248.555569 74.410536 
L 249.165455 74.410536 
L 249.243718 72.90319 
L 249.38576 72.90319 
L 249.38576 72.149516 
L 249.672948 72.149516 
L 249.672948 71.395843 
L 249.841854 71.395843 
L 249.841854 70.64217 
L 249.973821 70.64217 
L 249.973821 69.888497 
L 250.226134 69.888497 
L 250.271407 68.38115 
L 250.34967 68.38115 
L 250.34967 67.627477 
L 250.593543 67.627477 
L 250.593543 66.873804 
L 250.7789 66.873804 
L 250.7789 66.120131 
L 251.178403 66.120131 
L 251.197331 64.612784 
L 252.168168 64.612784 
L 252.168168 63.859111 
L 252.284355 63.859111 
L 252.284355 63.105438 
L 252.612364 63.105438 
L 252.612364 62.351765 
L 253.274119 62.351765 
L 253.31547 60.844418 
L 254.076096 60.844418 
L 254.076096 60.090745 
L 254.421421 60.090745 
L 254.477179 58.583399 
L 254.763227 58.583399 
L 254.770528 57.076052 
L 255.146768 57.076052 
L 255.169224 55.568706 
L 256.25272 55.568706 
L 256.25272 54.815033 
L 256.707766 54.815033 
L 256.718737 53.307686 
L 256.931597 53.307686 
L 256.931597 52.554013 
L 257.480851 52.554013 
L 257.480851 51.80034 
L 257.813718 51.80034 
L 257.813718 51.046667 
L 257.994051 51.046667 
L 257.994051 50.292993 
L 258.604201 50.292993 
L 258.604201 49.53932 
L 259.008227 49.53932 
L 259.100003 48.031974 
L 259.199759 48.031974 
L 259.199759 47.278301 
L 259.349528 47.278301 
L 259.349528 46.524627 
L 259.958146 46.524627 
L 259.983328 45.017281 
L 260.455479 45.017281 
L 260.455479 44.263608 
L 260.583151 44.263608 
L 260.583151 43.509935 
L 260.796011 43.509935 
L 260.796011 42.756261 
L 261.528173 42.756261 
L 261.528173 42.002588 
L 262.639648 42.002588 
L 262.639648 41.248915 
L 263.337713 41.248915 
L 263.337713 40.495242 
L 264.7951 40.495242 
L 264.7951 39.741569 
L 265.392587 39.741569 
L 265.392587 38.987895 
L 265.537422 38.987895 
L 265.537422 38.234222 
L 265.976256 38.234222 
L 265.976256 37.480549 
L 268.127119 37.480549 
L 268.127119 36.726876 
L 268.573266 36.726876 
L 268.573266 35.973203 
L 270.340345 35.973203 
L 270.340345 35.219529 
L 270.553205 35.219529 
L 270.553205 34.465856 
L 272.142922 34.465856 
L 272.142922 33.712183 
L 273.322038 33.712183 
L 273.322038 32.95851 
L 274.458257 32.95851 
L 274.458257 32.204837 
L 275.149782 32.204837 
L 275.150301 30.69749 
L 275.941914 30.69749 
L 276.003539 29.190144 
L 278.158992 29.190144 
L 278.158992 28.436471 
L 278.322671 28.436471 
L 278.322671 27.682797 
L 278.585279 27.682797 
L 278.585279 26.929124 
L 278.901314 26.929124 
L 278.901314 26.175451 
L 279.014715 26.175451 
L 279.014715 25.421778 
L 279.180837 25.421778 
L 279.180837 24.668105 
L 281.082309 24.668105 
L 281.082309 23.914431 
L 281.404539 23.914431 
L 281.404539 23.160758 
L 282.449693 23.160758 
L 282.449693 22.407085 
L 283.045251 22.407085 
L 283.045251 21.653412 
L 284.043082 21.653412 
L 284.043082 20.899739 
L 286.193945 20.899739 
L 286.193945 20.146065 
L 288.079865 20.146065 
L 288.126803 18.638719 
L 288.554343 18.638719 
L 288.554343 17.885046 
L 288.771909 17.885046 
L 288.771909 17.131373 
L 289.305806 17.131373 
L 289.305806 16.377699 
L 291.388864 16.377699 
L 291.388864 15.624026 
L 292.206887 15.624026 
L 292.206887 14.870353 
L 292.418757 14.870353 
L 292.418757 14.11668 
L 292.802445 14.11668 
L 292.802445 13.363007 
L 294.070365 13.363007 
L 294.070365 12.609333 
L 296.225818 12.609333 
L 296.225818 11.85566 
L 296.96814 11.85566 
L 296.96814 11.101987 
L 301.063387 11.101987 
L 301.063387 10.348314 
L 301.490695 10.348314 
L 301.490695 9.594641 
L 302.175952 9.594641 
L 302.175952 8.840967 
L 304.927801 8.840967 
L 304.927801 8.087294 
L 307.372632 8.087294 
L 307.372632 7.333621 
L 314.684995 7.333621 
L 314.684995 6.579948 
L 319.557521 6.579948 
L 319.557521 5.826275 
L 446.924475 5.826275 
L 446.924475 5.826275 
" clip-path="url(#pd098d0f096)" style="fill: none; stroke: #bf00bf; stroke-width: 3; stroke-linecap: square"/>
   </g>
   <g id="line2d_38">
    <path clip-path="url(#pd098d0f096)" style="fill: none; stroke: #bf00bf; stroke-width: 3; stroke-linecap: square"/>
   </g>
   <g id="line2d_39">
    <path d="M 34.16 288.453725 
L 120.434491 288.453725 
L 120.434491 287.700052 
L 129.701789 287.700052 
L 129.701789 286.946379 
L 142.573382 286.946379 
L 142.573382 286.192706 
L 151.051551 286.192706 
L 151.051551 285.439033 
L 153.984676 285.439033 
L 153.984676 284.685359 
L 179.796122 284.685359 
L 179.796122 283.931686 
L 187.305783 283.931686 
L 187.305783 283.178013 
L 187.841985 283.178013 
L 187.841985 282.42434 
L 188.471737 282.42434 
L 188.471737 281.670667 
L 192.806276 281.670667 
L 192.806276 280.916993 
L 193.668279 280.916993 
L 193.668279 280.16332 
L 194.685502 280.16332 
L 194.685502 279.409647 
L 199.126506 279.409647 
L 199.13557 277.902301 
L 199.679915 277.902301 
L 199.679915 277.148627 
L 200.067865 277.148627 
L 200.067865 276.394954 
L 201.476939 276.394954 
L 201.476939 275.641281 
L 202.935577 275.641281 
L 202.935577 274.887608 
L 203.255933 274.887608 
L 203.255933 274.133935 
L 203.799601 274.133935 
L 203.799601 273.380261 
L 203.9528 273.380261 
L 203.9528 272.626588 
L 204.557787 272.626588 
L 204.557787 271.872915 
L 207.974116 271.872915 
L 207.974116 271.119242 
L 208.393804 271.119242 
L 208.393804 270.365569 
L 214.283182 270.365569 
L 214.283182 269.611895 
L 215.259818 269.611895 
L 215.259818 268.858222 
L 215.807171 268.858222 
L 215.807171 268.104549 
L 216.824394 268.104549 
L 216.824394 267.350876 
L 217.60362 267.350876 
L 217.60362 266.597203 
L 220.800544 266.597203 
L 220.800544 265.843529 
L 221.240678 265.843529 
L 221.265397 264.336183 
L 221.792844 264.336183 
L 221.792844 263.58251 
L 222.329045 263.58251 
L 222.329045 262.828837 
L 224.067173 262.828837 
L 224.067173 262.075163 
L 224.28534 262.075163 
L 224.28534 261.32149 
L 224.46088 261.32149 
L 224.46088 260.567817 
L 225.302563 260.567817 
L 225.367115 259.060471 
L 225.87931 259.060471 
L 225.87931 258.306797 
L 226.870918 258.306797 
L 226.870918 257.553124 
L 227.293336 257.553124 
L 227.391264 256.045778 
L 227.755141 256.045778 
L 227.755141 255.292105 
L 228.297499 255.292105 
L 228.297499 254.538431 
L 229.067378 254.538431 
L 229.067378 253.784758 
L 229.329956 253.784758 
L 229.329956 253.031085 
L 229.537053 253.031085 
L 229.631782 250.016392 
L 229.743567 250.016392 
L 229.795254 248.509046 
L 230.236191 248.509046 
L 230.32408 247.001699 
L 230.443289 247.001699 
L 230.487605 245.494353 
L 230.597042 245.494353 
L 230.701489 243.987007 
L 230.897204 243.987007 
L 230.969397 242.47966 
L 231.017494 242.47966 
L 231.017494 241.725987 
L 231.161629 241.725987 
L 231.230316 240.218641 
L 231.430834 240.218641 
L 231.532907 238.711294 
L 231.743827 238.711294 
L 231.759707 237.203948 
L 231.984894 237.203948 
L 231.984894 236.450275 
L 232.313938 236.450275 
L 232.351552 234.189255 
L 232.562166 234.189255 
L 232.578535 232.681908 
L 232.764791 232.681908 
L 232.865452 229.667216 
L 232.885081 229.667216 
L 232.885081 228.913542 
L 233.029216 228.913542 
L 233.118228 227.406196 
L 233.250534 227.406196 
L 233.250534 226.652523 
L 233.388971 226.652523 
L 233.468479 223.63783 
L 233.627294 223.63783 
L 233.728836 219.869464 
L 233.757703 219.869464 
L 233.805799 216.101098 
L 233.925173 216.101098 
L 233.973416 213.086405 
L 234.166976 213.086405 
L 234.166976 212.332732 
L 234.321213 212.332732 
L 234.374715 210.825386 
L 234.500858 210.825386 
L 234.548012 209.318039 
L 234.707956 209.318039 
L 234.794957 205.549673 
L 234.966156 205.549673 
L 235.047926 203.288654 
L 235.171163 203.288654 
L 235.242639 200.273961 
L 235.350763 200.273961 
L 235.43576 197.259268 
L 235.494983 197.259268 
L 235.596423 194.998248 
L 235.631498 194.998248 
L 235.712669 191.229882 
L 235.744256 191.229882 
L 235.841003 188.21519 
L 235.963999 188.21519 
L 236.048613 186.707843 
L 236.33293 186.707843 
L 236.33293 185.95417 
L 236.44835 185.95417 
L 236.517142 184.446824 
L 236.577039 184.446824 
L 236.577039 183.69315 
L 236.712946 183.69315 
L 236.764821 181.432131 
L 236.870206 181.432131 
L 236.959535 179.171111 
L 237.010183 179.171111 
L 237.113241 173.141725 
L 237.13386 173.141725 
L 237.224132 171.634379 
L 237.277995 171.634379 
L 237.343915 169.373359 
L 237.401106 169.373359 
L 237.479691 166.358667 
L 237.5152 166.358667 
L 237.625873 163.343974 
L 237.649274 163.343974 
L 237.732921 160.329281 
L 237.790925 160.329281 
L 237.876073 158.821935 
L 237.936642 158.821935 
L 238.036354 155.053569 
L 238.194402 155.053569 
L 238.286661 152.038876 
L 238.398035 152.038876 
L 238.500975 149.777856 
L 238.546592 149.777856 
L 238.653694 147.516837 
L 238.738809 147.516837 
L 238.813649 146.00949 
L 238.885842 146.00949 
L 238.981429 142.241124 
L 239.011228 142.241124 
L 239.120773 138.472758 
L 239.132849 138.472758 
L 239.24323 135.458065 
L 239.289821 135.458065 
L 239.397445 133.197046 
L 239.449352 133.197046 
L 239.554418 131.689699 
L 239.676151 131.689699 
L 239.742512 130.182353 
L 239.845203 130.182353 
L 239.896165 127.921333 
L 239.965859 127.921333 
L 240.065755 126.413987 
L 240.089782 126.413987 
L 240.089782 125.660314 
L 240.20205 125.660314 
L 240.20205 124.906641 
L 240.590146 124.906641 
L 240.597597 123.399294 
L 240.889543 123.399294 
L 240.960125 121.138275 
L 241.001647 121.138275 
L 241.011125 119.630928 
L 241.118986 119.630928 
L 241.224722 116.616235 
L 241.295223 116.616235 
L 241.34865 114.355216 
L 241.423088 114.355216 
L 241.531958 111.340523 
L 241.645281 111.340523 
L 241.669193 109.079503 
L 241.829036 109.079503 
L 241.88986 105.311137 
L 242.077532 105.311137 
L 242.183805 101.542771 
L 242.378518 101.542771 
L 242.378518 100.789098 
L 242.820089 100.789098 
L 242.919064 98.528078 
L 243.137258 98.528078 
L 243.148728 97.020732 
L 243.332036 97.020732 
L 243.382612 94.759712 
L 243.452306 94.759712 
L 243.452306 94.006039 
L 243.607885 94.006039 
L 243.674731 91.74502 
L 243.757056 91.74502 
L 243.859298 88.730327 
L 243.986066 88.730327 
L 244.084043 85.715634 
L 244.330422 85.715634 
L 244.330422 84.961961 
L 244.479794 84.961961 
L 244.551832 83.454614 
L 244.60201 83.454614 
L 244.708804 81.947268 
L 244.787476 81.947268 
L 244.787476 81.193595 
L 245.585788 81.193595 
L 245.65637 79.686248 
L 245.763103 79.686248 
L 245.763103 78.932575 
L 246.308526 78.932575 
L 246.379109 77.425229 
L 246.622227 77.425229 
L 246.622227 76.671556 
L 246.795716 76.671556 
L 246.795716 75.917882 
L 247.043668 75.917882 
L 247.143381 74.410536 
L 247.35531 74.410536 
L 247.35531 73.656863 
L 247.560127 73.656863 
L 247.560127 72.90319 
L 247.746408 72.90319 
L 247.816868 71.395843 
L 248.220681 71.395843 
L 248.278525 69.888497 
L 248.951171 69.888497 
L 249.003192 68.38115 
L 249.072886 68.38115 
L 249.072886 67.627477 
L 249.470738 67.627477 
L 249.470738 66.873804 
L 249.704624 66.873804 
L 249.746879 65.366458 
L 249.882789 65.366458 
L 249.894032 63.859111 
L 250.640975 63.859111 
L 250.748195 62.351765 
L 251.511171 62.351765 
L 251.511171 61.598092 
L 253.070857 61.598092 
L 253.070857 60.844418 
L 253.437449 60.844418 
L 253.437449 60.090745 
L 253.669355 60.090745 
L 253.669355 59.337072 
L 253.829043 59.337072 
L 253.882719 57.829725 
L 255.287605 57.829725 
L 255.287605 57.076052 
L 255.466378 57.076052 
L 255.466378 56.322379 
L 255.727738 56.322379 
L 255.727738 55.568706 
L 256.622607 55.568706 
L 256.622607 54.815033 
L 256.823484 54.815033 
L 256.823484 54.061359 
L 257.78904 54.061359 
L 257.78904 53.307686 
L 258.372201 53.307686 
L 258.372201 52.554013 
L 258.547226 52.554013 
L 258.554234 51.046667 
L 258.738035 51.046667 
L 258.738035 50.292993 
L 260.778468 50.292993 
L 260.778468 49.53932 
L 261.150119 49.53932 
L 261.150119 48.785647 
L 261.343006 48.785647 
L 261.343006 48.031974 
L 262.360888 48.031974 
L 262.360888 47.278301 
L 263.801212 47.278301 
L 263.801212 46.524627 
L 264.531074 46.524627 
L 264.531074 45.770954 
L 266.090782 45.770954 
L 266.090782 45.017281 
L 266.883733 45.017281 
L 266.883733 44.263608 
L 267.323866 44.263608 
L 267.323866 43.509935 
L 269.249258 43.509935 
L 269.249258 42.756261 
L 269.494201 42.756261 
L 269.494201 42.002588 
L 269.628288 42.002588 
L 269.628288 41.248915 
L 269.837823 41.248915 
L 269.837823 40.495242 
L 270.0718 40.495242 
L 270.150361 38.987895 
L 270.511934 38.987895 
L 270.511934 38.234222 
L 271.609629 38.234222 
L 271.609629 37.480549 
L 272.369359 37.480549 
L 272.369359 36.726876 
L 273.06851 36.726876 
L 273.06851 35.973203 
L 273.338429 35.973203 
L 273.386582 34.465856 
L 273.650062 34.465856 
L 273.650062 33.712183 
L 274.789984 33.712183 
L 274.789984 32.95851 
L 275.230118 32.95851 
L 275.230118 32.204837 
L 277.827585 32.204837 
L 277.827585 31.451163 
L 277.97237 31.451163 
L 278.056613 29.943817 
L 278.962376 29.943817 
L 278.962376 29.190144 
L 279.274537 29.190144 
L 279.274537 28.436471 
L 280.087798 28.436471 
L 280.087798 27.682797 
L 281.433951 27.682797 
L 281.433951 26.929124 
L 282.128231 26.929124 
L 282.128231 26.175451 
L 284.622019 26.175451 
L 284.622019 25.421778 
L 285.940104 25.421778 
L 285.940104 24.668105 
L 287.440545 24.668105 
L 287.440545 23.914431 
L 288.791231 23.914431 
L 288.791231 23.160758 
L 289.340203 23.160758 
L 289.340203 22.407085 
L 290.870664 22.407085 
L 290.870664 21.653412 
L 294.058732 21.653412 
L 294.058732 20.899739 
L 294.418273 20.899739 
L 294.418273 20.146065 
L 295.505833 20.146065 
L 295.505833 19.392392 
L 296.3047 19.392392 
L 296.3047 18.638719 
L 298.058529 18.638719 
L 298.058529 17.885046 
L 298.776916 17.885046 
L 298.776916 17.131373 
L 304.77313 17.131373 
L 304.77313 16.377699 
L 306.45622 16.377699 
L 306.45622 15.624026 
L 310.444907 15.624026 
L 310.444907 14.870353 
L 310.930123 14.870353 
L 310.930123 14.11668 
L 317.644724 14.11668 
L 317.712307 12.609333 
L 319.408292 12.609333 
L 319.408292 11.85566 
L 326.056389 11.85566 
L 326.122893 10.348314 
L 328.171817 10.348314 
L 328.171817 9.594641 
L 330.21225 9.594641 
L 330.21225 8.840967 
L 335.524564 8.840967 
L 335.524564 8.087294 
L 342.502292 8.087294 
L 342.502292 7.333621 
L 367.492311 7.333621 
L 367.492311 6.579948 
L 374.206912 6.579948 
L 374.206912 5.826275 
L 446.924475 5.826275 
L 446.924475 5.826275 
" clip-path="url(#pd098d0f096)" style="fill: none; stroke: #ff0000; stroke-width: 3; stroke-linecap: square"/>
   </g>
   <g id="line2d_40">
    <path clip-path="url(#pd098d0f096)" style="fill: none; stroke: #ff0000; stroke-width: 3; stroke-linecap: square"/>
   </g>
   <g id="line2d_41">
    <path d="M 240.542238 291.28 
L 240.542238 3 
" clip-path="url(#pd098d0f096)" style="fill: none; stroke: #000000; stroke-width: 1.5; stroke-linecap: square"/>
   </g>
   <g id="line2d_42">
    <path d="M 34.16 147.14 
L 446.924475 147.14 
" clip-path="url(#pd098d0f096)" style="fill: none; stroke-dasharray: 2,3.3; stroke-dashoffset: 0; stroke: #000000; stroke-width: 2"/>
   </g>
   <g id="patch_3">
    <path d="M 34.16 291.28 
L 34.16 3 
" style="fill: none; stroke: #000000; stroke-width: 0.8; stroke-linejoin: miter; stroke-linecap: square"/>
   </g>
   <g id="patch_4">
    <path d="M 446.924475 291.28 
L 446.924475 3 
" style="fill: none; stroke: #000000; stroke-width: 0.8; stroke-linejoin: miter; stroke-linecap: square"/>
   </g>
   <g id="patch_5">
    <path d="M 34.16 291.28 
L 446.924475 291.28 
" style="fill: none; stroke: #000000; stroke-width: 0.8; stroke-linejoin: miter; stroke-linecap: square"/>
   </g>
   <g id="patch_6">
    <path d="M 34.16 3 
L 446.924475 3 
" style="fill: none; stroke: #000000; stroke-width: 0.8; stroke-linejoin: miter; stroke-linecap: square"/>
   </g>
   <g id="text_6">
    <!-- f10-f14,20-D -->
    <g transform="translate(312.050436 285.5144)scale(0.2 -0.2)">
     <defs>
      <path id="DejaVuSans-34" d="M 2419 4116 
L 825 1625 
L 2419 1625 
L 2419 4116 
z
M 2253 4666 
L 3047 4666 
L 3047 1625 
L 3713 1625 
L 3713 1100 
L 3047 1100 
L 3047 0 
L 2419 0 
L 2419 1100 
L 313 1100 
L 313 1709 
L 2253 4666 
z
" transform="scale(0.015625)"/>
      <path id="DejaVuSans-2c" d="M 750 794 
L 1409 794 
L 1409 256 
L 897 -744 
L 494 -744 
L 750 256 
L 750 794 
z
" transform="scale(0.015625)"/>
      <path id="DejaVuSans-32" d="M 1228 531 
L 3431 531 
L 3431 0 
L 469 0 
L 469 531 
Q 828 903 1448 1529 
Q 2069 2156 2228 2338 
Q 2531 2678 2651 2914 
Q 2772 3150 2772 3378 
Q 2772 3750 2511 3984 
Q 2250 4219 1831 4219 
Q 1534 4219 1204 4116 
Q 875 4013 500 3803 
L 500 4441 
Q 881 4594 1212 4672 
Q 1544 4750 1819 4750 
Q 2544 4750 2975 4387 
Q 3406 4025 3406 3419 
Q 3406 3131 3298 2873 
Q 3191 2616 2906 2266 
Q 2828 2175 2409 1742 
Q 1991 1309 1228 531 
z
" transform="scale(0.015625)"/>
      <path id="DejaVuSans-44" d="M 1259 4147 
L 1259 519 
L 2022 519 
Q 2988 519 3436 956 
Q 3884 1394 3884 2338 
Q 3884 3275 3436 3711 
Q 2988 4147 2022 4147 
L 1259 4147 
z
M 628 4666 
L 1925 4666 
Q 3281 4666 3915 4102 
Q 4550 3538 4550 2338 
Q 4550 1131 3912 565 
Q 3275 0 1925 0 
L 628 0 
L 628 4666 
z
" transform="scale(0.015625)"/>
     </defs>
     <use xlink:href="#DejaVuSans-66"/>
     <use xlink:href="#DejaVuSans-31" x="35.205078"/>
     <use xlink:href="#DejaVuSans-30" x="98.828125"/>
     <use xlink:href="#DejaVuSans-2d" x="162.451172"/>
     <use xlink:href="#DejaVuSans-66" x="198.535156"/>
     <use xlink:href="#DejaVuSans-31" x="233.740234"/>
     <use xlink:href="#DejaVuSans-34" x="297.363281"/>
     <use xlink:href="#DejaVuSans-2c" x="360.986328"/>
     <use xlink:href="#DejaVuSans-32" x="392.773438"/>
     <use xlink:href="#DejaVuSans-30" x="456.396484"/>
     <use xlink:href="#DejaVuSans-2d" x="520.019531"/>
     <use xlink:href="#DejaVuSans-44" x="556.103516"/>
    </g>
   </g>
   <g id="text_7">
    <!-- v2.6.1.158 -->
    <g style="fill: #808080" transform="translate(213.728175 286.317512)scale(0.1 -0.1)">
     <defs>
      <path id="DejaVuSans-2e" d="M 684 794 
L 1344 794 
L 1344 0 
L 684 0 
L 684 794 
z
" transform="scale(0.015625)"/>
      <path id="DejaVuSans-36" d="M 2113 2584 
Q 1688 2584 1439 2293 
Q 1191 2003 1191 1497 
Q 1191 994 1439 701 
Q 1688 409 2113 409 
Q 2538 409 2786 701 
Q 3034 994 3034 1497 
Q 3034 2003 2786 2293 
Q 2538 2584 2113 2584 
z
M 3366 4563 
L 3366 3988 
Q 3128 4100 2886 4159 
Q 2644 4219 2406 4219 
Q 1781 4219 1451 3797 
Q 1122 3375 1075 2522 
Q 1259 2794 1537 2939 
Q 1816 3084 2150 3084 
Q 2853 3084 3261 2657 
Q 3669 2231 3669 1497 
Q 3669 778 3244 343 
Q 2819 -91 2113 -91 
Q 1303 -91 875 529 
Q 447 1150 447 2328 
Q 447 3434 972 4092 
Q 1497 4750 2381 4750 
Q 2619 4750 2861 4703 
Q 3103 4656 3366 4563 
z
" transform="scale(0.015625)"/>
      <path id="DejaVuSans-35" d="M 691 4666 
L 3169 4666 
L 3169 4134 
L 1269 4134 
L 1269 2991 
Q 1406 3038 1543 3061 
Q 1681 3084 1819 3084 
Q 2600 3084 3056 2656 
Q 3513 2228 3513 1497 
Q 3513 744 3044 326 
Q 2575 -91 1722 -91 
Q 1428 -91 1123 -41 
Q 819 9 494 109 
L 494 744 
Q 775 591 1075 516 
Q 1375 441 1709 441 
Q 2250 441 2565 725 
Q 2881 1009 2881 1497 
Q 2881 1984 2565 2268 
Q 2250 2553 1709 2553 
Q 1456 2553 1204 2497 
Q 953 2441 691 2322 
L 691 4666 
z
" transform="scale(0.015625)"/>
      <path id="DejaVuSans-38" d="M 2034 2216 
Q 1584 2216 1326 1975 
Q 1069 1734 1069 1313 
Q 1069 891 1326 650 
Q 1584 409 2034 409 
Q 2484 409 2743 651 
Q 3003 894 3003 1313 
Q 3003 1734 2745 1975 
Q 2488 2216 2034 2216 
z
M 1403 2484 
Q 997 2584 770 2862 
Q 544 3141 544 3541 
Q 544 4100 942 4425 
Q 1341 4750 2034 4750 
Q 2731 4750 3128 4425 
Q 3525 4100 3525 3541 
Q 3525 3141 3298 2862 
Q 3072 2584 2669 2484 
Q 3125 2378 3379 2068 
Q 3634 1759 3634 1313 
Q 3634 634 3220 271 
Q 2806 -91 2034 -91 
Q 1263 -91 848 271 
Q 434 634 434 1313 
Q 434 1759 690 2068 
Q 947 2378 1403 2484 
z
M 1172 3481 
Q 1172 3119 1398 2916 
Q 1625 2713 2034 2713 
Q 2441 2713 2670 2916 
Q 2900 3119 2900 3481 
Q 2900 3844 2670 4047 
Q 2441 4250 2034 4250 
Q 1625 4250 1398 4047 
Q 1172 3844 1172 3481 
z
" transform="scale(0.015625)"/>
     </defs>
     <use xlink:href="#DejaVuSans-76"/>
     <use xlink:href="#DejaVuSans-32" x="59.179688"/>
     <use xlink:href="#DejaVuSans-2e" x="122.802734"/>
     <use xlink:href="#DejaVuSans-36" x="154.589844"/>
     <use xlink:href="#DejaVuSans-2e" x="218.212891"/>
     <use xlink:href="#DejaVuSans-31" x="250"/>
     <use xlink:href="#DejaVuSans-2e" x="313.623047"/>
     <use xlink:href="#DejaVuSans-31" x="345.410156"/>
     <use xlink:href="#DejaVuSans-35" x="409.033203"/>
     <use xlink:href="#DejaVuSans-38" x="472.65625"/>
    </g>
   </g>
   <g id="legend_1">
    <g id="patch_7">
     <path d="M 48.16 136.425 
L 177.381875 136.425 
Q 181.381875 136.425 181.381875 132.425 
L 181.381875 17 
Q 181.381875 13 177.381875 13 
L 48.16 13 
Q 44.16 13 44.16 17 
L 44.16 132.425 
Q 44.16 136.425 48.16 136.425 
z
" style="fill: #ffffff; opacity: 0.2; stroke: #cccccc; stroke-linejoin: miter"/>
    </g>
    <g id="line2d_43">
     <path d="M 52.16 29.196875 
L 72.16 29.196875 
L 92.16 29.196875 
" style="fill: none; stroke: #000000; stroke-width: 3; stroke-linecap: square"/>
    </g>
    <g id="text_8">
     <!-- 1: 5/5 -->
     <g transform="translate(108.16 36.196875)scale(0.2 -0.2)">
      <defs>
       <path id="DejaVuSans-3a" d="M 750 794 
L 1409 794 
L 1409 0 
L 750 0 
L 750 794 
z
M 750 3309 
L 1409 3309 
L 1409 2516 
L 750 2516 
L 750 3309 
z
" transform="scale(0.015625)"/>
       <path id="DejaVuSans-2f" d="M 1625 4666 
L 2156 4666 
L 531 -594 
L 0 -594 
L 1625 4666 
z
" transform="scale(0.015625)"/>
      </defs>
      <use xlink:href="#DejaVuSans-31"/>
      <use xlink:href="#DejaVuSans-3a" x="63.623047"/>
      <use xlink:href="#DejaVuSans-20" x="97.314453"/>
      <use xlink:href="#DejaVuSans-35" x="129.101562"/>
      <use xlink:href="#DejaVuSans-2f" x="192.724609"/>
      <use xlink:href="#DejaVuSans-35" x="226.416016"/>
     </g>
    </g>
    <g id="line2d_44">
     <path d="M 52.16 58.553125 
L 72.16 58.553125 
L 92.16 58.553125 
" style="fill: none; stroke: #00bfbf; stroke-width: 3; stroke-linecap: square"/>
    </g>
    <g id="text_9">
     <!-- -1: 5/5 -->
     <g transform="translate(108.16 65.553125)scale(0.2 -0.2)">
      <use xlink:href="#DejaVuSans-2d"/>
      <use xlink:href="#DejaVuSans-31" x="36.083984"/>
      <use xlink:href="#DejaVuSans-3a" x="99.707031"/>
      <use xlink:href="#DejaVuSans-20" x="133.398438"/>
      <use xlink:href="#DejaVuSans-35" x="165.185547"/>
      <use xlink:href="#DejaVuSans-2f" x="228.808594"/>
      <use xlink:href="#DejaVuSans-35" x="262.5"/>
     </g>
    </g>
    <g id="line2d_45">
     <path d="M 52.16 87.909375 
L 72.16 87.909375 
L 92.16 87.909375 
" style="fill: none; stroke: #bf00bf; stroke-width: 3; stroke-linecap: square"/>
    </g>
    <g id="text_10">
     <!-- -4: 5/5 -->
     <g transform="translate(108.16 94.909375)scale(0.2 -0.2)">
      <use xlink:href="#DejaVuSans-2d"/>
      <use xlink:href="#DejaVuSans-34" x="36.083984"/>
      <use xlink:href="#DejaVuSans-3a" x="99.707031"/>
      <use xlink:href="#DejaVuSans-20" x="133.398438"/>
      <use xlink:href="#DejaVuSans-35" x="165.185547"/>
      <use xlink:href="#DejaVuSans-2f" x="228.808594"/>
      <use xlink:href="#DejaVuSans-35" x="262.5"/>
     </g>
    </g>
    <g id="line2d_46">
     <path d="M 52.16 117.265625 
L 72.16 117.265625 
L 92.16 117.265625 
" style="fill: none; stroke: #ff0000; stroke-width: 3; stroke-linecap: square"/>
    </g>
    <g id="text_11">
     <!-- -8: 5/5 -->
     <g transform="translate(108.16 124.265625)scale(0.2 -0.2)">
      <use xlink:href="#DejaVuSans-2d"/>
      <use xlink:href="#DejaVuSans-38" x="36.083984"/>
      <use xlink:href="#DejaVuSans-3a" x="99.707031"/>
      <use xlink:href="#DejaVuSans-20" x="133.398438"/>
      <use xlink:href="#DejaVuSans-35" x="165.185547"/>
      <use xlink:href="#DejaVuSans-2f" x="228.808594"/>
      <use xlink:href="#DejaVuSans-35" x="262.5"/>
     </g>
    </g>
   </g>
  </g>
 </g>
 <defs>
  <clipPath id="pd098d0f096">
   <rect x="34.16" y="3" width="412.764475" height="288.28"/>
  </clipPath>
 </defs>
</svg>
