<?xml version="1.0" encoding="utf-8" standalone="no"?>
<!DOCTYPE svg PUBLIC "-//W3C//DTD SVG 1.1//EN"
  "http://www.w3.org/Graphics/SVG/1.1/DTD/svg11.dtd">
<svg xmlns:xlink="http://www.w3.org/1999/xlink" width="460.8pt" height="345.6pt" viewBox="0 0 460.8 345.6" xmlns="http://www.w3.org/2000/svg" version="1.1">
 <metadata>
  <rdf:RDF xmlns:dc="http://purl.org/dc/elements/1.1/" xmlns:cc="http://creativecommons.org/ns#" xmlns:rdf="http://www.w3.org/1999/02/22-rdf-syntax-ns#">
   <cc:Work>
    <dc:type rdf:resource="http://purl.org/dc/dcmitype/StillImage"/>
    <dc:date>2023-04-03T10:10:50.217018</dc:date>
    <dc:format>image/svg+xml</dc:format>
    <dc:creator>
     <cc:Agent>
      <dc:title>Matplotlib v3.5.2, https://matplotlib.org/</dc:title>
     </cc:Agent>
    </dc:creator>
   </cc:Work>
  </rdf:RDF>
 </metadata>
 <defs>
  <style type="text/css">*{stroke-linejoin: round; stroke-linecap: butt}</style>
 </defs>
 <g id="figure_1">
  <g id="patch_1">
   <path d="M 0 345.6 
L 460.8 345.6 
L 460.8 0 
L 0 0 
z
" style="fill: #ffffff"/>
  </g>
  <g id="axes_1">
   <g id="patch_2">
    <path d="M 34.16 291.28 
L 453.192 291.28 
L 453.192 3 
L 34.16 3 
z
" style="fill: #ffffff"/>
   </g>
   <g id="matplotlib.axis_1">
    <g id="xtick_1">
     <g id="line2d_1">
      <path d="M 151.234944 291.28 
L 151.234944 3 
" clip-path="url(#pd5abf9f78e)" style="fill: none; stroke: #b0b0b0; stroke-width: 0.8; stroke-linecap: square"/>
     </g>
     <g id="line2d_2">
      <defs>
       <path id="m65a48d7815" d="M 0 0 
L 0 3.5 
" style="stroke: #000000; stroke-width: 0.8"/>
      </defs>
      <g>
       <use xlink:href="#m65a48d7815" x="151.234944" y="291.28" style="stroke: #000000; stroke-width: 0.8"/>
      </g>
     </g>
     <g id="text_1">
      <!-- -1 -->
      <g transform="translate(141.264631 313.476875)scale(0.2 -0.2)">
       <defs>
        <path id="DejaVuSans-2d" d="M 313 2009 
L 1997 2009 
L 1997 1497 
L 313 1497 
L 313 2009 
z
" transform="scale(0.015625)"/>
        <path id="DejaVuSans-31" d="M 794 531 
L 1825 531 
L 1825 4091 
L 703 3866 
L 703 4441 
L 1819 4666 
L 2450 4666 
L 2450 531 
L 3481 531 
L 3481 0 
L 794 0 
L 794 531 
z
" transform="scale(0.015625)"/>
       </defs>
       <use xlink:href="#DejaVuSans-2d"/>
       <use xlink:href="#DejaVuSans-31" x="36.083984"/>
      </g>
     </g>
    </g>
    <g id="xtick_2">
     <g id="line2d_3">
      <path d="M 336.117056 291.28 
L 336.117056 3 
" clip-path="url(#pd5abf9f78e)" style="fill: none; stroke: #b0b0b0; stroke-width: 0.8; stroke-linecap: square"/>
     </g>
     <g id="line2d_4">
      <g>
       <use xlink:href="#m65a48d7815" x="336.117056" y="291.28" style="stroke: #000000; stroke-width: 0.8"/>
      </g>
     </g>
     <g id="text_2">
      <!-- 1 -->
      <g transform="translate(329.754556 313.476875)scale(0.2 -0.2)">
       <use xlink:href="#DejaVuSans-31"/>
      </g>
     </g>
    </g>
    <g id="xtick_3">
     <g id="line2d_5">
      <defs>
       <path id="m8617be1ff0" d="M 0 0 
L 0 2 
" style="stroke: #000000; stroke-width: 0.6"/>
      </defs>
      <g>
       <use xlink:href="#m8617be1ff0" x="38.285955" y="291.28" style="stroke: #000000; stroke-width: 0.6"/>
      </g>
     </g>
    </g>
    <g id="xtick_4">
     <g id="line2d_6">
      <g>
       <use xlink:href="#m8617be1ff0" x="44.474587" y="291.28" style="stroke: #000000; stroke-width: 0.6"/>
      </g>
     </g>
    </g>
    <g id="xtick_5">
     <g id="line2d_7">
      <g>
       <use xlink:href="#m8617be1ff0" x="49.835424" y="291.28" style="stroke: #000000; stroke-width: 0.6"/>
      </g>
     </g>
    </g>
    <g id="xtick_6">
     <g id="line2d_8">
      <g>
       <use xlink:href="#m8617be1ff0" x="54.564017" y="291.28" style="stroke: #000000; stroke-width: 0.6"/>
      </g>
     </g>
    </g>
    <g id="xtick_7">
     <g id="line2d_9">
      <g>
       <use xlink:href="#m8617be1ff0" x="86.621419" y="291.28" style="stroke: #000000; stroke-width: 0.6"/>
      </g>
     </g>
    </g>
    <g id="xtick_8">
     <g id="line2d_10">
      <g>
       <use xlink:href="#m8617be1ff0" x="102.899481" y="291.28" style="stroke: #000000; stroke-width: 0.6"/>
      </g>
     </g>
    </g>
    <g id="xtick_9">
     <g id="line2d_11">
      <g>
       <use xlink:href="#m8617be1ff0" x="114.448949" y="291.28" style="stroke: #000000; stroke-width: 0.6"/>
      </g>
     </g>
    </g>
    <g id="xtick_10">
     <g id="line2d_12">
      <g>
       <use xlink:href="#m8617be1ff0" x="123.407413" y="291.28" style="stroke: #000000; stroke-width: 0.6"/>
      </g>
     </g>
    </g>
    <g id="xtick_11">
     <g id="line2d_13">
      <g>
       <use xlink:href="#m8617be1ff0" x="130.727011" y="291.28" style="stroke: #000000; stroke-width: 0.6"/>
      </g>
     </g>
    </g>
    <g id="xtick_12">
     <g id="line2d_14">
      <g>
       <use xlink:href="#m8617be1ff0" x="136.915643" y="291.28" style="stroke: #000000; stroke-width: 0.6"/>
      </g>
     </g>
    </g>
    <g id="xtick_13">
     <g id="line2d_15">
      <g>
       <use xlink:href="#m8617be1ff0" x="142.27648" y="291.28" style="stroke: #000000; stroke-width: 0.6"/>
      </g>
     </g>
    </g>
    <g id="xtick_14">
     <g id="line2d_16">
      <g>
       <use xlink:href="#m8617be1ff0" x="147.005073" y="291.28" style="stroke: #000000; stroke-width: 0.6"/>
      </g>
     </g>
    </g>
    <g id="xtick_15">
     <g id="line2d_17">
      <g>
       <use xlink:href="#m8617be1ff0" x="179.062475" y="291.28" style="stroke: #000000; stroke-width: 0.6"/>
      </g>
     </g>
    </g>
    <g id="xtick_16">
     <g id="line2d_18">
      <g>
       <use xlink:href="#m8617be1ff0" x="195.340537" y="291.28" style="stroke: #000000; stroke-width: 0.6"/>
      </g>
     </g>
    </g>
    <g id="xtick_17">
     <g id="line2d_19">
      <g>
       <use xlink:href="#m8617be1ff0" x="206.890005" y="291.28" style="stroke: #000000; stroke-width: 0.6"/>
      </g>
     </g>
    </g>
    <g id="xtick_18">
     <g id="line2d_20">
      <g>
       <use xlink:href="#m8617be1ff0" x="215.848469" y="291.28" style="stroke: #000000; stroke-width: 0.6"/>
      </g>
     </g>
    </g>
    <g id="xtick_19">
     <g id="line2d_21">
      <g>
       <use xlink:href="#m8617be1ff0" x="223.168067" y="291.28" style="stroke: #000000; stroke-width: 0.6"/>
      </g>
     </g>
    </g>
    <g id="xtick_20">
     <g id="line2d_22">
      <g>
       <use xlink:href="#m8617be1ff0" x="229.356699" y="291.28" style="stroke: #000000; stroke-width: 0.6"/>
      </g>
     </g>
    </g>
    <g id="xtick_21">
     <g id="line2d_23">
      <g>
       <use xlink:href="#m8617be1ff0" x="234.717536" y="291.28" style="stroke: #000000; stroke-width: 0.6"/>
      </g>
     </g>
    </g>
    <g id="xtick_22">
     <g id="line2d_24">
      <g>
       <use xlink:href="#m8617be1ff0" x="239.446129" y="291.28" style="stroke: #000000; stroke-width: 0.6"/>
      </g>
     </g>
    </g>
    <g id="xtick_23">
     <g id="line2d_25">
      <g>
       <use xlink:href="#m8617be1ff0" x="271.503531" y="291.28" style="stroke: #000000; stroke-width: 0.6"/>
      </g>
     </g>
    </g>
    <g id="xtick_24">
     <g id="line2d_26">
      <g>
       <use xlink:href="#m8617be1ff0" x="287.781593" y="291.28" style="stroke: #000000; stroke-width: 0.6"/>
      </g>
     </g>
    </g>
    <g id="xtick_25">
     <g id="line2d_27">
      <g>
       <use xlink:href="#m8617be1ff0" x="299.331061" y="291.28" style="stroke: #000000; stroke-width: 0.6"/>
      </g>
     </g>
    </g>
    <g id="xtick_26">
     <g id="line2d_28">
      <g>
       <use xlink:href="#m8617be1ff0" x="308.289525" y="291.28" style="stroke: #000000; stroke-width: 0.6"/>
      </g>
     </g>
    </g>
    <g id="xtick_27">
     <g id="line2d_29">
      <g>
       <use xlink:href="#m8617be1ff0" x="315.609123" y="291.28" style="stroke: #000000; stroke-width: 0.6"/>
      </g>
     </g>
    </g>
    <g id="xtick_28">
     <g id="line2d_30">
      <g>
       <use xlink:href="#m8617be1ff0" x="321.797755" y="291.28" style="stroke: #000000; stroke-width: 0.6"/>
      </g>
     </g>
    </g>
    <g id="xtick_29">
     <g id="line2d_31">
      <g>
       <use xlink:href="#m8617be1ff0" x="327.158592" y="291.28" style="stroke: #000000; stroke-width: 0.6"/>
      </g>
     </g>
    </g>
    <g id="xtick_30">
     <g id="line2d_32">
      <g>
       <use xlink:href="#m8617be1ff0" x="331.887185" y="291.28" style="stroke: #000000; stroke-width: 0.6"/>
      </g>
     </g>
    </g>
    <g id="xtick_31">
     <g id="line2d_33">
      <g>
       <use xlink:href="#m8617be1ff0" x="363.944587" y="291.28" style="stroke: #000000; stroke-width: 0.6"/>
      </g>
     </g>
    </g>
    <g id="xtick_32">
     <g id="line2d_34">
      <g>
       <use xlink:href="#m8617be1ff0" x="380.222649" y="291.28" style="stroke: #000000; stroke-width: 0.6"/>
      </g>
     </g>
    </g>
    <g id="xtick_33">
     <g id="line2d_35">
      <g>
       <use xlink:href="#m8617be1ff0" x="391.772117" y="291.28" style="stroke: #000000; stroke-width: 0.6"/>
      </g>
     </g>
    </g>
    <g id="xtick_34">
     <g id="line2d_36">
      <g>
       <use xlink:href="#m8617be1ff0" x="400.730581" y="291.28" style="stroke: #000000; stroke-width: 0.6"/>
      </g>
     </g>
    </g>
    <g id="xtick_35">
     <g id="line2d_37">
      <g>
       <use xlink:href="#m8617be1ff0" x="408.050179" y="291.28" style="stroke: #000000; stroke-width: 0.6"/>
      </g>
     </g>
    </g>
    <g id="xtick_36">
     <g id="line2d_38">
      <g>
       <use xlink:href="#m8617be1ff0" x="414.238811" y="291.28" style="stroke: #000000; stroke-width: 0.6"/>
      </g>
     </g>
    </g>
    <g id="xtick_37">
     <g id="line2d_39">
      <g>
       <use xlink:href="#m8617be1ff0" x="419.599648" y="291.28" style="stroke: #000000; stroke-width: 0.6"/>
      </g>
     </g>
    </g>
    <g id="xtick_38">
     <g id="line2d_40">
      <g>
       <use xlink:href="#m8617be1ff0" x="424.328241" y="291.28" style="stroke: #000000; stroke-width: 0.6"/>
      </g>
     </g>
    </g>
    <g id="text_3">
     <!-- log10 of FEvals ratio -->
     <g transform="translate(141.371312 336.833125)scale(0.2 -0.2)">
      <defs>
       <path id="DejaVuSans-6c" d="M 603 4863 
L 1178 4863 
L 1178 0 
L 603 0 
L 603 4863 
z
" transform="scale(0.015625)"/>
       <path id="DejaVuSans-6f" d="M 1959 3097 
Q 1497 3097 1228 2736 
Q 959 2375 959 1747 
Q 959 1119 1226 758 
Q 1494 397 1959 397 
Q 2419 397 2687 759 
Q 2956 1122 2956 1747 
Q 2956 2369 2687 2733 
Q 2419 3097 1959 3097 
z
M 1959 3584 
Q 2709 3584 3137 3096 
Q 3566 2609 3566 1747 
Q 3566 888 3137 398 
Q 2709 -91 1959 -91 
Q 1206 -91 779 398 
Q 353 888 353 1747 
Q 353 2609 779 3096 
Q 1206 3584 1959 3584 
z
" transform="scale(0.015625)"/>
       <path id="DejaVuSans-67" d="M 2906 1791 
Q 2906 2416 2648 2759 
Q 2391 3103 1925 3103 
Q 1463 3103 1205 2759 
Q 947 2416 947 1791 
Q 947 1169 1205 825 
Q 1463 481 1925 481 
Q 2391 481 2648 825 
Q 2906 1169 2906 1791 
z
M 3481 434 
Q 3481 -459 3084 -895 
Q 2688 -1331 1869 -1331 
Q 1566 -1331 1297 -1286 
Q 1028 -1241 775 -1147 
L 775 -588 
Q 1028 -725 1275 -790 
Q 1522 -856 1778 -856 
Q 2344 -856 2625 -561 
Q 2906 -266 2906 331 
L 2906 616 
Q 2728 306 2450 153 
Q 2172 0 1784 0 
Q 1141 0 747 490 
Q 353 981 353 1791 
Q 353 2603 747 3093 
Q 1141 3584 1784 3584 
Q 2172 3584 2450 3431 
Q 2728 3278 2906 2969 
L 2906 3500 
L 3481 3500 
L 3481 434 
z
" transform="scale(0.015625)"/>
       <path id="DejaVuSans-30" d="M 2034 4250 
Q 1547 4250 1301 3770 
Q 1056 3291 1056 2328 
Q 1056 1369 1301 889 
Q 1547 409 2034 409 
Q 2525 409 2770 889 
Q 3016 1369 3016 2328 
Q 3016 3291 2770 3770 
Q 2525 4250 2034 4250 
z
M 2034 4750 
Q 2819 4750 3233 4129 
Q 3647 3509 3647 2328 
Q 3647 1150 3233 529 
Q 2819 -91 2034 -91 
Q 1250 -91 836 529 
Q 422 1150 422 2328 
Q 422 3509 836 4129 
Q 1250 4750 2034 4750 
z
" transform="scale(0.015625)"/>
       <path id="DejaVuSans-20" transform="scale(0.015625)"/>
       <path id="DejaVuSans-66" d="M 2375 4863 
L 2375 4384 
L 1825 4384 
Q 1516 4384 1395 4259 
Q 1275 4134 1275 3809 
L 1275 3500 
L 2222 3500 
L 2222 3053 
L 1275 3053 
L 1275 0 
L 697 0 
L 697 3053 
L 147 3053 
L 147 3500 
L 697 3500 
L 697 3744 
Q 697 4328 969 4595 
Q 1241 4863 1831 4863 
L 2375 4863 
z
" transform="scale(0.015625)"/>
       <path id="DejaVuSans-46" d="M 628 4666 
L 3309 4666 
L 3309 4134 
L 1259 4134 
L 1259 2759 
L 3109 2759 
L 3109 2228 
L 1259 2228 
L 1259 0 
L 628 0 
L 628 4666 
z
" transform="scale(0.015625)"/>
       <path id="DejaVuSans-45" d="M 628 4666 
L 3578 4666 
L 3578 4134 
L 1259 4134 
L 1259 2753 
L 3481 2753 
L 3481 2222 
L 1259 2222 
L 1259 531 
L 3634 531 
L 3634 0 
L 628 0 
L 628 4666 
z
" transform="scale(0.015625)"/>
       <path id="DejaVuSans-76" d="M 191 3500 
L 800 3500 
L 1894 563 
L 2988 3500 
L 3597 3500 
L 2284 0 
L 1503 0 
L 191 3500 
z
" transform="scale(0.015625)"/>
       <path id="DejaVuSans-61" d="M 2194 1759 
Q 1497 1759 1228 1600 
Q 959 1441 959 1056 
Q 959 750 1161 570 
Q 1363 391 1709 391 
Q 2188 391 2477 730 
Q 2766 1069 2766 1631 
L 2766 1759 
L 2194 1759 
z
M 3341 1997 
L 3341 0 
L 2766 0 
L 2766 531 
Q 2569 213 2275 61 
Q 1981 -91 1556 -91 
Q 1019 -91 701 211 
Q 384 513 384 1019 
Q 384 1609 779 1909 
Q 1175 2209 1959 2209 
L 2766 2209 
L 2766 2266 
Q 2766 2663 2505 2880 
Q 2244 3097 1772 3097 
Q 1472 3097 1187 3025 
Q 903 2953 641 2809 
L 641 3341 
Q 956 3463 1253 3523 
Q 1550 3584 1831 3584 
Q 2591 3584 2966 3190 
Q 3341 2797 3341 1997 
z
" transform="scale(0.015625)"/>
       <path id="DejaVuSans-73" d="M 2834 3397 
L 2834 2853 
Q 2591 2978 2328 3040 
Q 2066 3103 1784 3103 
Q 1356 3103 1142 2972 
Q 928 2841 928 2578 
Q 928 2378 1081 2264 
Q 1234 2150 1697 2047 
L 1894 2003 
Q 2506 1872 2764 1633 
Q 3022 1394 3022 966 
Q 3022 478 2636 193 
Q 2250 -91 1575 -91 
Q 1294 -91 989 -36 
Q 684 19 347 128 
L 347 722 
Q 666 556 975 473 
Q 1284 391 1588 391 
Q 1994 391 2212 530 
Q 2431 669 2431 922 
Q 2431 1156 2273 1281 
Q 2116 1406 1581 1522 
L 1381 1569 
Q 847 1681 609 1914 
Q 372 2147 372 2553 
Q 372 3047 722 3315 
Q 1072 3584 1716 3584 
Q 2034 3584 2315 3537 
Q 2597 3491 2834 3397 
z
" transform="scale(0.015625)"/>
       <path id="DejaVuSans-72" d="M 2631 2963 
Q 2534 3019 2420 3045 
Q 2306 3072 2169 3072 
Q 1681 3072 1420 2755 
Q 1159 2438 1159 1844 
L 1159 0 
L 581 0 
L 581 3500 
L 1159 3500 
L 1159 2956 
Q 1341 3275 1631 3429 
Q 1922 3584 2338 3584 
Q 2397 3584 2469 3576 
Q 2541 3569 2628 3553 
L 2631 2963 
z
" transform="scale(0.015625)"/>
       <path id="DejaVuSans-74" d="M 1172 4494 
L 1172 3500 
L 2356 3500 
L 2356 3053 
L 1172 3053 
L 1172 1153 
Q 1172 725 1289 603 
Q 1406 481 1766 481 
L 2356 481 
L 2356 0 
L 1766 0 
Q 1100 0 847 248 
Q 594 497 594 1153 
L 594 3053 
L 172 3053 
L 172 3500 
L 594 3500 
L 594 4494 
L 1172 4494 
z
" transform="scale(0.015625)"/>
       <path id="DejaVuSans-69" d="M 603 3500 
L 1178 3500 
L 1178 0 
L 603 0 
L 603 3500 
z
M 603 4863 
L 1178 4863 
L 1178 4134 
L 603 4134 
L 603 4863 
z
" transform="scale(0.015625)"/>
      </defs>
      <use xlink:href="#DejaVuSans-6c"/>
      <use xlink:href="#DejaVuSans-6f" x="27.783203"/>
      <use xlink:href="#DejaVuSans-67" x="88.964844"/>
      <use xlink:href="#DejaVuSans-31" x="152.441406"/>
      <use xlink:href="#DejaVuSans-30" x="216.064453"/>
      <use xlink:href="#DejaVuSans-20" x="279.6875"/>
      <use xlink:href="#DejaVuSans-6f" x="311.474609"/>
      <use xlink:href="#DejaVuSans-66" x="372.65625"/>
      <use xlink:href="#DejaVuSans-20" x="407.861328"/>
      <use xlink:href="#DejaVuSans-46" x="439.648438"/>
      <use xlink:href="#DejaVuSans-45" x="497.167969"/>
      <use xlink:href="#DejaVuSans-76" x="560.351562"/>
      <use xlink:href="#DejaVuSans-61" x="619.53125"/>
      <use xlink:href="#DejaVuSans-6c" x="680.810547"/>
      <use xlink:href="#DejaVuSans-73" x="708.59375"/>
      <use xlink:href="#DejaVuSans-20" x="760.693359"/>
      <use xlink:href="#DejaVuSans-72" x="792.480469"/>
      <use xlink:href="#DejaVuSans-61" x="833.59375"/>
      <use xlink:href="#DejaVuSans-74" x="894.873047"/>
      <use xlink:href="#DejaVuSans-69" x="934.082031"/>
      <use xlink:href="#DejaVuSans-6f" x="961.865234"/>
     </g>
    </g>
   </g>
   <g id="matplotlib.axis_2">
    <g id="ytick_1">
     <g id="line2d_41">
      <path d="M 34.16 288.453725 
L 453.192 288.453725 
" clip-path="url(#pd5abf9f78e)" style="fill: none; stroke: #b0b0b0; stroke-width: 0.8; stroke-linecap: square"/>
     </g>
     <g id="line2d_42">
      <defs>
       <path id="m8d765ceebe" d="M 0 0 
L -3.5 0 
" style="stroke: #000000; stroke-width: 0.8"/>
      </defs>
      <g>
       <use xlink:href="#m8d765ceebe" x="34.16" y="288.453725" style="stroke: #000000; stroke-width: 0.8"/>
      </g>
     </g>
    </g>
    <g id="ytick_2">
     <g id="line2d_43">
      <path d="M 34.16 217.796863 
L 453.192 217.796863 
" clip-path="url(#pd5abf9f78e)" style="fill: none; stroke: #b0b0b0; stroke-width: 0.8; stroke-linecap: square"/>
     </g>
     <g id="line2d_44">
      <g>
       <use xlink:href="#m8d765ceebe" x="34.16" y="217.796863" style="stroke: #000000; stroke-width: 0.8"/>
      </g>
     </g>
    </g>
    <g id="ytick_3">
     <g id="line2d_45">
      <path d="M 34.16 147.14 
L 453.192 147.14 
" clip-path="url(#pd5abf9f78e)" style="fill: none; stroke: #b0b0b0; stroke-width: 0.8; stroke-linecap: square"/>
     </g>
     <g id="line2d_46">
      <g>
       <use xlink:href="#m8d765ceebe" x="34.16" y="147.14" style="stroke: #000000; stroke-width: 0.8"/>
      </g>
     </g>
    </g>
    <g id="ytick_4">
     <g id="line2d_47">
      <path d="M 34.16 76.483137 
L 453.192 76.483137 
" clip-path="url(#pd5abf9f78e)" style="fill: none; stroke: #b0b0b0; stroke-width: 0.8; stroke-linecap: square"/>
     </g>
     <g id="line2d_48">
      <g>
       <use xlink:href="#m8d765ceebe" x="34.16" y="76.483137" style="stroke: #000000; stroke-width: 0.8"/>
      </g>
     </g>
    </g>
    <g id="ytick_5">
     <g id="line2d_49">
      <path d="M 34.16 5.826275 
L 453.192 5.826275 
" clip-path="url(#pd5abf9f78e)" style="fill: none; stroke: #b0b0b0; stroke-width: 0.8; stroke-linecap: square"/>
     </g>
     <g id="line2d_50">
      <g>
       <use xlink:href="#m8d765ceebe" x="34.16" y="5.826275" style="stroke: #000000; stroke-width: 0.8"/>
      </g>
     </g>
    </g>
    <g id="text_4">
     <!-- proportion of trials -->
     <g transform="translate(19.000625 240.14625)rotate(-90)scale(0.2 -0.2)">
      <defs>
       <path id="DejaVuSans-70" d="M 1159 525 
L 1159 -1331 
L 581 -1331 
L 581 3500 
L 1159 3500 
L 1159 2969 
Q 1341 3281 1617 3432 
Q 1894 3584 2278 3584 
Q 2916 3584 3314 3078 
Q 3713 2572 3713 1747 
Q 3713 922 3314 415 
Q 2916 -91 2278 -91 
Q 1894 -91 1617 61 
Q 1341 213 1159 525 
z
M 3116 1747 
Q 3116 2381 2855 2742 
Q 2594 3103 2138 3103 
Q 1681 3103 1420 2742 
Q 1159 2381 1159 1747 
Q 1159 1113 1420 752 
Q 1681 391 2138 391 
Q 2594 391 2855 752 
Q 3116 1113 3116 1747 
z
" transform="scale(0.015625)"/>
       <path id="DejaVuSans-6e" d="M 3513 2113 
L 3513 0 
L 2938 0 
L 2938 2094 
Q 2938 2591 2744 2837 
Q 2550 3084 2163 3084 
Q 1697 3084 1428 2787 
Q 1159 2491 1159 1978 
L 1159 0 
L 581 0 
L 581 3500 
L 1159 3500 
L 1159 2956 
Q 1366 3272 1645 3428 
Q 1925 3584 2291 3584 
Q 2894 3584 3203 3211 
Q 3513 2838 3513 2113 
z
" transform="scale(0.015625)"/>
      </defs>
      <use xlink:href="#DejaVuSans-70"/>
      <use xlink:href="#DejaVuSans-72" x="63.476562"/>
      <use xlink:href="#DejaVuSans-6f" x="102.339844"/>
      <use xlink:href="#DejaVuSans-70" x="163.521484"/>
      <use xlink:href="#DejaVuSans-6f" x="226.998047"/>
      <use xlink:href="#DejaVuSans-72" x="288.179688"/>
      <use xlink:href="#DejaVuSans-74" x="329.292969"/>
      <use xlink:href="#DejaVuSans-69" x="368.501953"/>
      <use xlink:href="#DejaVuSans-6f" x="396.285156"/>
      <use xlink:href="#DejaVuSans-6e" x="457.466797"/>
      <use xlink:href="#DejaVuSans-20" x="520.845703"/>
      <use xlink:href="#DejaVuSans-6f" x="552.632812"/>
      <use xlink:href="#DejaVuSans-66" x="613.814453"/>
      <use xlink:href="#DejaVuSans-20" x="649.019531"/>
      <use xlink:href="#DejaVuSans-74" x="680.806641"/>
      <use xlink:href="#DejaVuSans-72" x="720.015625"/>
      <use xlink:href="#DejaVuSans-69" x="761.128906"/>
      <use xlink:href="#DejaVuSans-61" x="788.912109"/>
      <use xlink:href="#DejaVuSans-6c" x="850.191406"/>
      <use xlink:href="#DejaVuSans-73" x="877.974609"/>
     </g>
    </g>
   </g>
   <g id="line2d_51">
    <path d="M 34.16 274.995275 
L 109.806359 274.995275 
L 109.806359 274.098045 
L 114.534952 274.098045 
L 114.534952 273.200815 
L 114.78884 273.200815 
L 114.78884 272.303585 
L 117.570672 272.303585 
L 117.570672 271.406355 
L 118.729625 271.406355 
L 118.729625 270.509125 
L 121.412324 270.509125 
L 121.412324 269.611895 
L 125.197054 269.611895 
L 125.197054 268.714665 
L 126.157874 268.714665 
L 126.157874 267.817435 
L 130.425655 267.817435 
L 130.425655 266.920205 
L 131.845957 266.920205 
L 131.845957 266.022975 
L 132.060073 266.022975 
L 132.060073 265.125745 
L 133.567791 265.125745 
L 133.567791 264.228515 
L 134.016361 264.228515 
L 134.016361 263.331285 
L 134.956882 263.331285 
L 134.956882 261.536825 
L 137.229807 261.536825 
L 137.229807 260.639595 
L 138.279199 260.639595 
L 138.279199 259.742365 
L 140.395714 259.742365 
L 140.395714 258.845135 
L 144.218839 258.845135 
L 144.218839 257.947905 
L 147.255949 257.947905 
L 147.255949 257.050675 
L 147.683588 257.050675 
L 147.683588 256.153445 
L 160.100583 256.153445 
L 160.100583 255.256215 
L 162.784413 255.256215 
L 162.784413 252.564525 
L 165.554245 252.564525 
L 165.554245 250.770065 
L 169.228621 250.770065 
L 169.228621 249.872835 
L 188.020939 249.872835 
L 188.020939 248.078375 
L 190.611943 248.078375 
L 190.611943 245.386685 
L 193.381775 245.386685 
L 193.381775 242.694995 
L 202.459902 242.694995 
L 202.459902 241.797765 
L 202.624145 241.797765 
L 202.624145 240.900535 
L 205.405977 240.900535 
L 205.405977 240.003305 
L 206.56493 240.003305 
L 206.56493 239.106075 
L 207.188495 239.106075 
L 207.188495 238.208845 
L 209.247628 238.208845 
L 209.247628 237.311615 
L 213.032359 237.311615 
L 213.078637 235.517155 
L 213.835124 235.517155 
L 213.835124 234.619925 
L 213.993179 234.619925 
L 213.993179 233.722695 
L 214.606139 233.722695 
L 214.606139 232.825465 
L 215.663034 232.825465 
L 215.663034 231.928235 
L 215.848469 231.928235 
L 215.848469 229.236545 
L 218.439474 229.236545 
L 218.439474 227.442085 
L 218.644028 227.442085 
L 218.644028 226.544855 
L 220.391627 226.544855 
L 220.391627 225.647625 
L 221.209306 225.647625 
L 221.209306 222.955935 
L 221.403096 222.955935 
L 221.42586 221.161475 
L 221.770345 221.161475 
L 221.851666 219.367015 
L 221.903502 219.367015 
L 221.903502 218.469785 
L 222.504471 218.469785 
L 222.584813 216.675325 
L 223.079198 216.675325 
L 223.168067 213.983635 
L 224.4995 213.983635 
L 224.4995 213.086405 
L 224.713615 213.086405 
L 224.713615 212.189175 
L 225.009979 212.189175 
L 225.065112 210.394715 
L 225.267512 210.394715 
L 225.267512 209.497485 
L 227.233065 209.497485 
L 227.233065 208.600255 
L 227.791812 208.600255 
L 227.791812 207.703025 
L 228.154425 207.703025 
L 228.231019 205.908565 
L 228.308332 205.908565 
L 228.308332 205.011335 
L 228.92544 205.011335 
L 228.950764 203.216875 
L 229.052242 203.216875 
L 229.052242 202.319645 
L 229.41899 202.319645 
L 229.41899 201.422415 
L 230.013062 201.422415 
L 230.013062 200.525185 
L 230.190006 200.525185 
L 230.190006 199.627955 
L 230.932742 199.627955 
L 230.945663 197.833495 
L 231.090164 197.833495 
L 231.095185 196.039035 
L 231.633463 196.039035 
L 231.716678 194.244575 
L 231.8662 194.244575 
L 231.8662 193.347345 
L 232.249117 193.347345 
L 232.249117 192.450115 
L 234.671151 192.450115 
L 234.717536 190.655655 
L 234.931815 190.655655 
L 234.931815 189.758425 
L 235.205482 189.758425 
L 235.205482 187.963965 
L 235.339977 187.963965 
L 235.418193 186.169505 
L 235.518893 186.169505 
L 235.518893 185.272275 
L 235.976498 185.272275 
L 235.976498 183.477815 
L 236.089646 183.477815 
L 236.110992 181.683355 
L 236.222802 181.683355 
L 236.282331 179.888895 
L 236.379013 179.888895 
L 236.379013 178.991665 
L 236.542698 178.991665 
L 236.542698 178.094435 
L 236.872382 178.094435 
L 236.872382 177.197205 
L 237.354212 177.197205 
L 237.432784 174.505515 
L 237.487368 174.505515 
L 237.487368 173.608285 
L 237.702632 173.608285 
L 237.702632 172.711055 
L 237.871549 172.711055 
L 237.916748 170.916595 
L 238.203799 170.916595 
L 238.203799 170.019365 
L 238.716546 170.019365 
L 238.716546 169.122135 
L 238.880884 169.122135 
L 238.880884 168.224905 
L 239.01404 168.224905 
L 239.030406 166.430445 
L 239.163562 166.430445 
L 239.163562 165.533215 
L 239.421879 165.533215 
L 239.421879 164.635985 
L 239.543144 164.635985 
L 239.543144 163.738755 
L 239.677366 163.738755 
L 239.677366 162.841525 
L 239.909492 162.841525 
L 239.909492 161.944295 
L 240.192894 161.944295 
L 240.192894 161.047065 
L 240.799253 161.047065 
L 240.906168 159.252605 
L 240.978007 159.252605 
L 241.084995 157.458145 
L 241.271291 157.458145 
L 241.271291 156.560915 
L 241.777196 156.560915 
L 241.777196 155.663685 
L 242.090961 155.663685 
L 242.090961 154.766455 
L 242.548211 154.766455 
L 242.548211 153.869225 
L 242.681947 153.869225 
L 242.681947 152.971995 
L 243.123768 152.971995 
L 243.140704 150.280305 
L 243.27386 150.280305 
L 243.275198 147.588615 
L 243.408355 147.588615 
L 243.452963 145.794155 
L 243.676 145.794155 
L 243.676 138.616315 
L 243.78893 138.616315 
L 243.893598 136.821855 
L 244.135875 136.821855 
L 244.237501 135.027395 
L 244.250902 135.027395 
L 244.250902 134.130165 
L 244.539402 134.130165 
L 244.544069 132.335705 
L 244.664613 132.335705 
L 244.758185 130.541245 
L 245.310417 130.541245 
L 245.368005 128.746785 
L 245.501162 128.746785 
L 245.501162 127.849555 
L 245.903994 127.849555 
L 245.903994 126.952325 
L 246.392539 126.952325 
L 246.392539 126.055095 
L 246.67501 126.055095 
L 246.67501 125.157865 
L 247.087283 125.157865 
L 247.087283 124.260635 
L 247.3571 124.260635 
L 247.450946 122.466175 
L 247.490256 122.466175 
L 247.535853 120.671715 
L 249.036837 120.671715 
L 249.036837 118.877255 
L 249.712417 118.877255 
L 249.712417 117.980025 
L 249.845573 117.980025 
L 249.845573 117.082795 
L 250.075514 117.082795 
L 250.075514 116.185565 
L 250.616853 116.185565 
L 250.617168 114.391105 
L 250.749299 114.391105 
L 250.750325 112.596645 
L 250.977312 112.596645 
L 250.977312 111.699415 
L 251.538776 111.699415 
L 251.538776 110.802185 
L 251.828819 110.802185 
L 251.828819 109.904955 
L 251.961975 109.904955 
L 251.961975 109.007725 
L 252.474623 109.007725 
L 252.474623 108.110495 
L 252.60778 108.110495 
L 252.60778 107.213265 
L 252.754126 107.213265 
L 252.754126 106.316035 
L 253.112625 106.316035 
L 253.112625 105.418805 
L 253.76543 105.418805 
L 253.839215 102.727115 
L 253.915206 102.727115 
L 253.972372 100.932655 
L 255.118554 100.932655 
L 255.118554 100.035425 
L 256.383119 100.035425 
L 256.383119 99.138195 
L 256.916952 99.138195 
L 256.916952 98.240965 
L 257.161994 98.240965 
L 257.161994 97.343735 
L 257.904727 97.343735 
L 257.909791 95.549275 
L 258.059313 95.549275 
L 258.059313 94.652045 
L 258.582296 94.652045 
L 258.582296 93.754815 
L 258.796411 93.754815 
L 258.796411 92.857585 
L 259.954062 92.857585 
L 259.954062 91.960355 
L 261.20308 91.960355 
L 261.20308 91.063125 
L 261.882164 91.063125 
L 261.882164 90.165895 
L 262.169611 90.165895 
L 262.169611 88.371435 
L 262.304106 88.371435 
L 262.304106 87.474205 
L 264.396913 87.474205 
L 264.396913 86.576975 
L 265.015538 86.576975 
L 265.015538 85.679745 
L 265.314899 85.679745 
L 265.314899 84.782515 
L 265.957259 84.782515 
L 265.957259 83.885285 
L 266.142694 83.885285 
L 266.142694 82.988055 
L 266.386008 82.988055 
L 266.386008 82.090825 
L 268.741325 82.090825 
L 268.741325 81.193595 
L 269.646076 81.193595 
L 269.646076 80.296365 
L 270.857726 80.296365 
L 270.955178 78.501905 
L 271.503531 78.501905 
L 271.503531 69.529605 
L 272.798696 69.529605 
L 272.868123 67.735145 
L 273.224434 67.735145 
L 273.224434 66.837915 
L 273.984905 66.837915 
L 273.992288 65.043455 
L 275.085297 65.043455 
L 275.085297 64.146225 
L 275.594449 64.146225 
L 275.594449 63.248995 
L 276.232124 63.248995 
L 276.232124 61.454535 
L 277.078491 61.454535 
L 277.078491 60.557305 
L 281.926734 60.557305 
L 281.926734 59.660075 
L 286.836922 59.660075 
L 286.836922 58.762845 
L 287.781593 58.762845 
L 287.781593 57.865615 
L 293.970225 57.865615 
L 293.970225 56.968385 
L 295.96496 56.968385 
L 295.96496 56.071155 
L 299.331061 56.071155 
L 299.331061 50.687775 
L 321.797755 50.687775 
L 321.797755 48.893315 
L 327.158592 48.893315 
L 327.158592 45.304395 
L 327.324693 45.304395 
L 327.324693 44.407165 
L 329.926266 44.407165 
L 329.926266 43.509935 
L 331.887185 43.509935 
L 331.887185 39.921015 
L 332.196687 39.921015 
L 332.196687 39.023785 
L 333.63155 39.023785 
L 333.63155 38.126555 
L 334.227844 38.126555 
L 334.227844 37.229325 
L 340.527826 37.229325 
L 340.527826 36.332095 
L 343.436654 36.332095 
L 343.436654 34.537635 
L 345.39982 34.537635 
L 345.39982 33.640405 
L 345.946149 33.640405 
L 345.946149 32.743175 
L 346.834682 32.743175 
L 346.834682 31.845945 
L 347.369263 31.845945 
L 347.369263 30.948715 
L 349.625286 30.948715 
L 349.625286 29.154255 
L 350.247727 29.154255 
L 350.247727 28.257025 
L 352.241257 28.257025 
L 352.3121 26.462565 
L 353.67612 26.462565 
L 353.67612 25.565335 
L 355.610453 25.565335 
L 355.610453 24.668105 
L 356.613678 24.668105 
L 356.613678 23.770875 
L 359.912031 23.770875 
L 359.912031 22.873645 
L 361.407489 22.873645 
L 361.407489 21.976415 
L 363.429754 21.976415 
L 363.429754 21.079185 
L 364.913795 21.079185 
L 364.913795 20.181955 
L 365.877977 20.181955 
L 365.877977 19.284725 
L 366.279483 19.284725 
L 366.279483 18.387495 
L 366.638448 18.387495 
L 366.638448 17.490265 
L 367.714346 17.490265 
L 367.714346 16.593035 
L 379.081109 16.593035 
L 379.081109 15.695805 
L 379.449637 15.695805 
L 379.449637 14.798575 
L 379.84158 14.798575 
L 379.84158 13.901345 
L 380.933679 13.901345 
L 380.933679 13.004115 
L 385.815588 13.004115 
L 385.922547 11.209655 
L 386.683018 11.209655 
L 386.683018 10.312425 
L 387.29963 10.312425 
L 387.29963 9.415195 
L 389.113941 9.415195 
L 389.113941 8.517965 
L 390.597982 8.517965 
L 390.597982 7.620735 
L 399.960773 7.620735 
L 399.960773 6.723505 
L 400.721244 6.723505 
L 400.721244 5.826275 
L 453.192 5.826275 
L 453.192 5.826275 
" clip-path="url(#pd5abf9f78e)" style="fill: none; stroke: #000000; stroke-width: 3; stroke-linecap: square"/>
   </g>
   <g id="line2d_52">
    <path clip-path="url(#pd5abf9f78e)" style="fill: none; stroke: #000000; stroke-width: 3; stroke-linecap: square"/>
   </g>
   <g id="line2d_53">
    <path d="M 34.16 104.993801 
L 126.560966 104.993801 
L 126.560966 103.341009 
L 128.221705 103.341009 
L 128.221705 101.688217 
L 158.723359 101.688217 
L 158.723359 100.035425 
L 160.384097 100.035425 
L 160.384097 98.382633 
L 185.971764 98.382633 
L 185.971764 96.729841 
L 225.315158 96.729841 
L 225.315158 95.077049 
L 229.757303 95.077049 
L 229.757303 93.424256 
L 240.366873 93.424256 
L 240.366873 91.771464 
L 240.380589 91.771464 
L 240.380589 90.118672 
L 240.504722 90.118672 
L 240.504722 88.46588 
L 240.778564 88.46588 
L 240.778564 86.813088 
L 241.257351 86.813088 
L 241.257351 85.160296 
L 241.445564 85.160296 
L 241.445564 83.507504 
L 241.62618 83.507504 
L 241.62618 81.854712 
L 242.141729 81.854712 
L 242.141729 80.20192 
L 242.480296 80.20192 
L 242.480296 78.549127 
L 243.139487 78.549127 
L 243.139487 76.896335 
L 243.491151 76.896335 
L 243.491151 75.243543 
L 243.664031 75.243543 
L 243.664031 73.590751 
L 244.035296 73.590751 
L 244.035296 71.937959 
L 247.977156 71.937959 
L 247.977156 70.285167 
L 266.794002 70.285167 
L 266.794002 68.632375 
L 268.82783 68.632375 
L 268.82783 66.979583 
L 269.650979 66.979583 
L 269.650979 65.326791 
L 274.583371 65.326791 
L 274.583371 63.673998 
L 276.197689 63.673998 
L 276.197689 62.021206 
L 278.299981 62.021206 
L 278.299981 60.368414 
L 279.060406 60.368414 
L 279.060406 58.715622 
L 300.990223 58.715622 
L 300.990223 57.06283 
L 301.813371 57.06283 
L 301.813371 55.410038 
L 319.297396 55.410038 
L 319.297396 53.757246 
L 344.276099 53.757246 
L 344.276099 52.104454 
L 351.459789 52.104454 
L 351.459789 50.451662 
L 367.533651 50.451662 
L 367.533651 48.798869 
L 376.438492 48.798869 
L 376.438492 47.146077 
L 382.174037 47.146077 
L 382.174037 45.493285 
L 404.67791 45.493285 
L 404.67791 43.840493 
L 414.33643 43.840493 
L 414.33643 42.187701 
L 436.840303 42.187701 
L 436.840303 40.534909 
L 453.192 40.534909 
" clip-path="url(#pd5abf9f78e)" style="fill: none; stroke: #00bfbf; stroke-width: 3; stroke-linecap: square"/>
   </g>
   <g id="line2d_54">
    <path clip-path="url(#pd5abf9f78e)" style="fill: none; stroke: #00bfbf; stroke-width: 3; stroke-linecap: square"/>
   </g>
   <g id="line2d_55">
    <path d="M 34.16 70.059786 
L 141.683722 70.059786 
L 141.683722 67.918669 
L 146.104791 67.918669 
L 146.104791 65.777552 
L 172.695554 65.777552 
L 172.695554 63.636435 
L 177.116623 63.636435 
L 177.116623 61.495318 
L 243.359349 61.495318 
L 243.359349 59.354201 
L 267.462283 59.354201 
L 267.462283 57.213084 
L 268.576636 57.213084 
L 268.576636 55.071967 
L 274.371181 55.071967 
L 274.371181 52.93085 
L 298.474115 52.93085 
L 298.474115 50.789733 
L 299.588468 50.789733 
L 299.588468 48.648616 
L 317.762579 48.648616 
L 317.762579 46.507499 
L 342.711424 46.507499 
L 342.711424 44.366381 
L 348.774411 44.366381 
L 348.774411 42.225264 
L 373.723256 42.225264 
L 373.723256 40.084147 
L 379.931991 40.084147 
L 379.931991 37.94303 
L 402.586296 37.94303 
L 402.586296 35.801913 
L 410.943823 35.801913 
L 410.943823 33.660796 
L 433.598128 33.660796 
L 433.598128 31.519679 
L 453.192 31.519679 
" clip-path="url(#pd5abf9f78e)" style="fill: none; stroke: #bf00bf; stroke-width: 3; stroke-linecap: square"/>
   </g>
   <g id="line2d_56">
    <path clip-path="url(#pd5abf9f78e)" style="fill: none; stroke: #bf00bf; stroke-width: 3; stroke-linecap: square"/>
   </g>
   <g id="line2d_57">
    <path d="M 34.16 70.059786 
L 154.760427 70.059786 
L 154.760427 67.918669 
L 157.857455 67.918669 
L 157.857455 65.777552 
L 184.620916 65.777552 
L 184.620916 63.636435 
L 187.717944 63.636435 
L 187.717944 61.495318 
L 243.306049 61.495318 
L 243.306049 59.354201 
L 266.749223 59.354201 
L 266.749223 57.213084 
L 267.818341 57.213084 
L 267.818341 55.071967 
L 273.166538 55.071967 
L 273.166538 52.93085 
L 296.609712 52.93085 
L 296.609712 50.789733 
L 297.67883 50.789733 
L 297.67883 48.648616 
L 316.917116 48.648616 
L 316.917116 46.507499 
L 340.872369 46.507499 
L 340.872369 44.366381 
L 346.777605 44.366381 
L 346.777605 42.225264 
L 370.732858 42.225264 
L 370.732858 40.084147 
L 378.246164 40.084147 
L 378.246164 37.94303 
L 401.154551 37.94303 
L 401.154551 35.801913 
L 408.106653 35.801913 
L 408.106653 33.660796 
L 431.01504 33.660796 
L 431.01504 31.519679 
L 453.192 31.519679 
" clip-path="url(#pd5abf9f78e)" style="fill: none; stroke: #ff0000; stroke-width: 3; stroke-linecap: square"/>
   </g>
   <g id="line2d_58">
    <path clip-path="url(#pd5abf9f78e)" style="fill: none; stroke: #ff0000; stroke-width: 3; stroke-linecap: square"/>
   </g>
   <g id="line2d_59">
    <path d="M 243.676 291.28 
L 243.676 3 
" clip-path="url(#pd5abf9f78e)" style="fill: none; stroke: #000000; stroke-width: 1.5; stroke-linecap: square"/>
   </g>
   <g id="line2d_60">
    <path d="M 34.16 147.14 
L 453.192 147.14 
" clip-path="url(#pd5abf9f78e)" style="fill: none; stroke-dasharray: 2,3.3; stroke-dashoffset: 0; stroke: #000000; stroke-width: 2"/>
   </g>
   <g id="patch_3">
    <path d="M 34.16 291.28 
L 34.16 3 
" style="fill: none; stroke: #000000; stroke-width: 0.8; stroke-linejoin: miter; stroke-linecap: square"/>
   </g>
   <g id="patch_4">
    <path d="M 453.192 291.28 
L 453.192 3 
" style="fill: none; stroke: #000000; stroke-width: 0.8; stroke-linejoin: miter; stroke-linecap: square"/>
   </g>
   <g id="patch_5">
    <path d="M 34.16 291.28 
L 453.192 291.28 
" style="fill: none; stroke: #000000; stroke-width: 0.8; stroke-linejoin: miter; stroke-linecap: square"/>
   </g>
   <g id="patch_6">
    <path d="M 34.16 3 
L 453.192 3 
" style="fill: none; stroke: #000000; stroke-width: 0.8; stroke-linejoin: miter; stroke-linecap: square"/>
   </g>
   <g id="text_5">
    <!-- f20-f24,20-D -->
    <g transform="translate(318.19261 285.5144)scale(0.2 -0.2)">
     <defs>
      <path id="DejaVuSans-32" d="M 1228 531 
L 3431 531 
L 3431 0 
L 469 0 
L 469 531 
Q 828 903 1448 1529 
Q 2069 2156 2228 2338 
Q 2531 2678 2651 2914 
Q 2772 3150 2772 3378 
Q 2772 3750 2511 3984 
Q 2250 4219 1831 4219 
Q 1534 4219 1204 4116 
Q 875 4013 500 3803 
L 500 4441 
Q 881 4594 1212 4672 
Q 1544 4750 1819 4750 
Q 2544 4750 2975 4387 
Q 3406 4025 3406 3419 
Q 3406 3131 3298 2873 
Q 3191 2616 2906 2266 
Q 2828 2175 2409 1742 
Q 1991 1309 1228 531 
z
" transform="scale(0.015625)"/>
      <path id="DejaVuSans-34" d="M 2419 4116 
L 825 1625 
L 2419 1625 
L 2419 4116 
z
M 2253 4666 
L 3047 4666 
L 3047 1625 
L 3713 1625 
L 3713 1100 
L 3047 1100 
L 3047 0 
L 2419 0 
L 2419 1100 
L 313 1100 
L 313 1709 
L 2253 4666 
z
" transform="scale(0.015625)"/>
      <path id="DejaVuSans-2c" d="M 750 794 
L 1409 794 
L 1409 256 
L 897 -744 
L 494 -744 
L 750 256 
L 750 794 
z
" transform="scale(0.015625)"/>
      <path id="DejaVuSans-44" d="M 1259 4147 
L 1259 519 
L 2022 519 
Q 2988 519 3436 956 
Q 3884 1394 3884 2338 
Q 3884 3275 3436 3711 
Q 2988 4147 2022 4147 
L 1259 4147 
z
M 628 4666 
L 1925 4666 
Q 3281 4666 3915 4102 
Q 4550 3538 4550 2338 
Q 4550 1131 3912 565 
Q 3275 0 1925 0 
L 628 0 
L 628 4666 
z
" transform="scale(0.015625)"/>
     </defs>
     <use xlink:href="#DejaVuSans-66"/>
     <use xlink:href="#DejaVuSans-32" x="35.205078"/>
     <use xlink:href="#DejaVuSans-30" x="98.828125"/>
     <use xlink:href="#DejaVuSans-2d" x="162.451172"/>
     <use xlink:href="#DejaVuSans-66" x="198.535156"/>
     <use xlink:href="#DejaVuSans-32" x="233.740234"/>
     <use xlink:href="#DejaVuSans-34" x="297.363281"/>
     <use xlink:href="#DejaVuSans-2c" x="360.986328"/>
     <use xlink:href="#DejaVuSans-32" x="392.773438"/>
     <use xlink:href="#DejaVuSans-30" x="456.396484"/>
     <use xlink:href="#DejaVuSans-2d" x="520.019531"/>
     <use xlink:href="#DejaVuSans-44" x="556.103516"/>
    </g>
   </g>
   <g id="text_6">
    <!-- v2.6.1.158 -->
    <g style="fill: #808080" transform="translate(216.861937 286.317512)scale(0.1 -0.1)">
     <defs>
      <path id="DejaVuSans-2e" d="M 684 794 
L 1344 794 
L 1344 0 
L 684 0 
L 684 794 
z
" transform="scale(0.015625)"/>
      <path id="DejaVuSans-36" d="M 2113 2584 
Q 1688 2584 1439 2293 
Q 1191 2003 1191 1497 
Q 1191 994 1439 701 
Q 1688 409 2113 409 
Q 2538 409 2786 701 
Q 3034 994 3034 1497 
Q 3034 2003 2786 2293 
Q 2538 2584 2113 2584 
z
M 3366 4563 
L 3366 3988 
Q 3128 4100 2886 4159 
Q 2644 4219 2406 4219 
Q 1781 4219 1451 3797 
Q 1122 3375 1075 2522 
Q 1259 2794 1537 2939 
Q 1816 3084 2150 3084 
Q 2853 3084 3261 2657 
Q 3669 2231 3669 1497 
Q 3669 778 3244 343 
Q 2819 -91 2113 -91 
Q 1303 -91 875 529 
Q 447 1150 447 2328 
Q 447 3434 972 4092 
Q 1497 4750 2381 4750 
Q 2619 4750 2861 4703 
Q 3103 4656 3366 4563 
z
" transform="scale(0.015625)"/>
      <path id="DejaVuSans-35" d="M 691 4666 
L 3169 4666 
L 3169 4134 
L 1269 4134 
L 1269 2991 
Q 1406 3038 1543 3061 
Q 1681 3084 1819 3084 
Q 2600 3084 3056 2656 
Q 3513 2228 3513 1497 
Q 3513 744 3044 326 
Q 2575 -91 1722 -91 
Q 1428 -91 1123 -41 
Q 819 9 494 109 
L 494 744 
Q 775 591 1075 516 
Q 1375 441 1709 441 
Q 2250 441 2565 725 
Q 2881 1009 2881 1497 
Q 2881 1984 2565 2268 
Q 2250 2553 1709 2553 
Q 1456 2553 1204 2497 
Q 953 2441 691 2322 
L 691 4666 
z
" transform="scale(0.015625)"/>
      <path id="DejaVuSans-38" d="M 2034 2216 
Q 1584 2216 1326 1975 
Q 1069 1734 1069 1313 
Q 1069 891 1326 650 
Q 1584 409 2034 409 
Q 2484 409 2743 651 
Q 3003 894 3003 1313 
Q 3003 1734 2745 1975 
Q 2488 2216 2034 2216 
z
M 1403 2484 
Q 997 2584 770 2862 
Q 544 3141 544 3541 
Q 544 4100 942 4425 
Q 1341 4750 2034 4750 
Q 2731 4750 3128 4425 
Q 3525 4100 3525 3541 
Q 3525 3141 3298 2862 
Q 3072 2584 2669 2484 
Q 3125 2378 3379 2068 
Q 3634 1759 3634 1313 
Q 3634 634 3220 271 
Q 2806 -91 2034 -91 
Q 1263 -91 848 271 
Q 434 634 434 1313 
Q 434 1759 690 2068 
Q 947 2378 1403 2484 
z
M 1172 3481 
Q 1172 3119 1398 2916 
Q 1625 2713 2034 2713 
Q 2441 2713 2670 2916 
Q 2900 3119 2900 3481 
Q 2900 3844 2670 4047 
Q 2441 4250 2034 4250 
Q 1625 4250 1398 4047 
Q 1172 3844 1172 3481 
z
" transform="scale(0.015625)"/>
     </defs>
     <use xlink:href="#DejaVuSans-76"/>
     <use xlink:href="#DejaVuSans-32" x="59.179688"/>
     <use xlink:href="#DejaVuSans-2e" x="122.802734"/>
     <use xlink:href="#DejaVuSans-36" x="154.589844"/>
     <use xlink:href="#DejaVuSans-2e" x="218.212891"/>
     <use xlink:href="#DejaVuSans-31" x="250"/>
     <use xlink:href="#DejaVuSans-2e" x="313.623047"/>
     <use xlink:href="#DejaVuSans-31" x="345.410156"/>
     <use xlink:href="#DejaVuSans-35" x="409.033203"/>
     <use xlink:href="#DejaVuSans-38" x="472.65625"/>
    </g>
   </g>
   <g id="legend_1">
    <g id="patch_7">
     <path d="M 309.970125 281.28 
L 439.192 281.28 
Q 443.192 281.28 443.192 277.28 
L 443.192 161.855 
Q 443.192 157.855 439.192 157.855 
L 309.970125 157.855 
Q 305.970125 157.855 305.970125 161.855 
L 305.970125 277.28 
Q 305.970125 281.28 309.970125 281.28 
z
" style="fill: #ffffff; opacity: 0.2; stroke: #cccccc; stroke-linejoin: miter"/>
    </g>
    <g id="line2d_61">
     <path d="M 313.970125 174.051875 
L 333.970125 174.051875 
L 353.970125 174.051875 
" style="fill: none; stroke: #000000; stroke-width: 3; stroke-linecap: square"/>
    </g>
    <g id="text_7">
     <!-- 1: 5/4 -->
     <g transform="translate(369.970125 181.051875)scale(0.2 -0.2)">
      <defs>
       <path id="DejaVuSans-3a" d="M 750 794 
L 1409 794 
L 1409 0 
L 750 0 
L 750 794 
z
M 750 3309 
L 1409 3309 
L 1409 2516 
L 750 2516 
L 750 3309 
z
" transform="scale(0.015625)"/>
       <path id="DejaVuSans-2f" d="M 1625 4666 
L 2156 4666 
L 531 -594 
L 0 -594 
L 1625 4666 
z
" transform="scale(0.015625)"/>
      </defs>
      <use xlink:href="#DejaVuSans-31"/>
      <use xlink:href="#DejaVuSans-3a" x="63.623047"/>
      <use xlink:href="#DejaVuSans-20" x="97.314453"/>
      <use xlink:href="#DejaVuSans-35" x="129.101562"/>
      <use xlink:href="#DejaVuSans-2f" x="192.724609"/>
      <use xlink:href="#DejaVuSans-34" x="226.416016"/>
     </g>
    </g>
    <g id="line2d_62">
     <path d="M 313.970125 203.408125 
L 333.970125 203.408125 
L 353.970125 203.408125 
" style="fill: none; stroke: #00bfbf; stroke-width: 3; stroke-linecap: square"/>
    </g>
    <g id="text_8">
     <!-- -1: 3/3 -->
     <g transform="translate(369.970125 210.408125)scale(0.2 -0.2)">
      <defs>
       <path id="DejaVuSans-33" d="M 2597 2516 
Q 3050 2419 3304 2112 
Q 3559 1806 3559 1356 
Q 3559 666 3084 287 
Q 2609 -91 1734 -91 
Q 1441 -91 1130 -33 
Q 819 25 488 141 
L 488 750 
Q 750 597 1062 519 
Q 1375 441 1716 441 
Q 2309 441 2620 675 
Q 2931 909 2931 1356 
Q 2931 1769 2642 2001 
Q 2353 2234 1838 2234 
L 1294 2234 
L 1294 2753 
L 1863 2753 
Q 2328 2753 2575 2939 
Q 2822 3125 2822 3475 
Q 2822 3834 2567 4026 
Q 2313 4219 1838 4219 
Q 1578 4219 1281 4162 
Q 984 4106 628 3988 
L 628 4550 
Q 988 4650 1302 4700 
Q 1616 4750 1894 4750 
Q 2613 4750 3031 4423 
Q 3450 4097 3450 3541 
Q 3450 3153 3228 2886 
Q 3006 2619 2597 2516 
z
" transform="scale(0.015625)"/>
      </defs>
      <use xlink:href="#DejaVuSans-2d"/>
      <use xlink:href="#DejaVuSans-31" x="36.083984"/>
      <use xlink:href="#DejaVuSans-3a" x="99.707031"/>
      <use xlink:href="#DejaVuSans-20" x="133.398438"/>
      <use xlink:href="#DejaVuSans-33" x="165.185547"/>
      <use xlink:href="#DejaVuSans-2f" x="228.808594"/>
      <use xlink:href="#DejaVuSans-33" x="262.5"/>
     </g>
    </g>
    <g id="line2d_63">
     <path d="M 313.970125 232.764375 
L 333.970125 232.764375 
L 353.970125 232.764375 
" style="fill: none; stroke: #bf00bf; stroke-width: 3; stroke-linecap: square"/>
    </g>
    <g id="text_9">
     <!-- -4: 2/1 -->
     <g transform="translate(369.970125 239.764375)scale(0.2 -0.2)">
      <use xlink:href="#DejaVuSans-2d"/>
      <use xlink:href="#DejaVuSans-34" x="36.083984"/>
      <use xlink:href="#DejaVuSans-3a" x="99.707031"/>
      <use xlink:href="#DejaVuSans-20" x="133.398438"/>
      <use xlink:href="#DejaVuSans-32" x="165.185547"/>
      <use xlink:href="#DejaVuSans-2f" x="228.808594"/>
      <use xlink:href="#DejaVuSans-31" x="262.5"/>
     </g>
    </g>
    <g id="line2d_64">
     <path d="M 313.970125 262.120625 
L 333.970125 262.120625 
L 353.970125 262.120625 
" style="fill: none; stroke: #ff0000; stroke-width: 3; stroke-linecap: square"/>
    </g>
    <g id="text_10">
     <!-- -8: 2/1 -->
     <g transform="translate(369.970125 269.120625)scale(0.2 -0.2)">
      <use xlink:href="#DejaVuSans-2d"/>
      <use xlink:href="#DejaVuSans-38" x="36.083984"/>
      <use xlink:href="#DejaVuSans-3a" x="99.707031"/>
      <use xlink:href="#DejaVuSans-20" x="133.398438"/>
      <use xlink:href="#DejaVuSans-32" x="165.185547"/>
      <use xlink:href="#DejaVuSans-2f" x="228.808594"/>
      <use xlink:href="#DejaVuSans-31" x="262.5"/>
     </g>
    </g>
   </g>
  </g>
 </g>
 <defs>
  <clipPath id="pd5abf9f78e">
   <rect x="34.16" y="3" width="419.032" height="288.28"/>
  </clipPath>
 </defs>
</svg>
