<?xml version="1.0" encoding="utf-8" standalone="no"?>
<!DOCTYPE svg PUBLIC "-//W3C//DTD SVG 1.1//EN"
  "http://www.w3.org/Graphics/SVG/1.1/DTD/svg11.dtd">
<svg xmlns:xlink="http://www.w3.org/1999/xlink" width="460.8pt" height="345.6pt" viewBox="0 0 460.8 345.6" xmlns="http://www.w3.org/2000/svg" version="1.1">
 <metadata>
  <rdf:RDF xmlns:dc="http://purl.org/dc/elements/1.1/" xmlns:cc="http://creativecommons.org/ns#" xmlns:rdf="http://www.w3.org/1999/02/22-rdf-syntax-ns#">
   <cc:Work>
    <dc:type rdf:resource="http://purl.org/dc/dcmitype/StillImage"/>
    <dc:date>2023-04-06T16:27:09.727004</dc:date>
    <dc:format>image/svg+xml</dc:format>
    <dc:creator>
     <cc:Agent>
      <dc:title>Matplotlib v3.5.2, https://matplotlib.org/</dc:title>
     </cc:Agent>
    </dc:creator>
   </cc:Work>
  </rdf:RDF>
 </metadata>
 <defs>
  <style type="text/css">*{stroke-linejoin: round; stroke-linecap: butt}</style>
 </defs>
 <g id="figure_1">
  <g id="patch_1">
   <path d="M 0 345.6 
L 460.8 345.6 
L 460.8 0 
L 0 0 
z
" style="fill: #ffffff"/>
  </g>
  <g id="axes_1">
   <g id="patch_2">
    <path d="M 34.16 291.28 
L 453.192 291.28 
L 453.192 3 
L 34.16 3 
z
" style="fill: #ffffff"/>
   </g>
   <g id="matplotlib.axis_1">
    <g id="xtick_1">
     <g id="line2d_1">
      <path d="M 119.824062 291.28 
L 119.824062 3 
" clip-path="url(#p80f87bf1dd)" style="fill: none; stroke: #b0b0b0; stroke-width: 0.8; stroke-linecap: square"/>
     </g>
     <g id="line2d_2">
      <defs>
       <path id="mfe98557145" d="M 0 0 
L 0 3.5 
" style="stroke: #000000; stroke-width: 0.8"/>
      </defs>
      <g>
       <use xlink:href="#mfe98557145" x="119.824062" y="291.28" style="stroke: #000000; stroke-width: 0.8"/>
      </g>
     </g>
     <g id="text_1">
      <!-- -1 -->
      <g transform="translate(109.85375 313.476875)scale(0.2 -0.2)">
       <defs>
        <path id="DejaVuSans-2d" d="M 313 2009 
L 1997 2009 
L 1997 1497 
L 313 1497 
L 313 2009 
z
" transform="scale(0.015625)"/>
        <path id="DejaVuSans-31" d="M 794 531 
L 1825 531 
L 1825 4091 
L 703 3866 
L 703 4441 
L 1819 4666 
L 2450 4666 
L 2450 531 
L 3481 531 
L 3481 0 
L 794 0 
L 794 531 
z
" transform="scale(0.015625)"/>
       </defs>
       <use xlink:href="#DejaVuSans-2d"/>
       <use xlink:href="#DejaVuSans-31" x="36.083984"/>
      </g>
     </g>
    </g>
    <g id="xtick_2">
     <g id="line2d_3">
      <path d="M 243.676 291.28 
L 243.676 3 
" clip-path="url(#p80f87bf1dd)" style="fill: none; stroke: #b0b0b0; stroke-width: 0.8; stroke-linecap: square"/>
     </g>
     <g id="line2d_4">
      <g>
       <use xlink:href="#mfe98557145" x="243.676" y="291.28" style="stroke: #000000; stroke-width: 0.8"/>
      </g>
     </g>
     <g id="text_2">
      <!-- 0 -->
      <g transform="translate(237.3135 313.476875)scale(0.2 -0.2)">
       <defs>
        <path id="DejaVuSans-30" d="M 2034 4250 
Q 1547 4250 1301 3770 
Q 1056 3291 1056 2328 
Q 1056 1369 1301 889 
Q 1547 409 2034 409 
Q 2525 409 2770 889 
Q 3016 1369 3016 2328 
Q 3016 3291 2770 3770 
Q 2525 4250 2034 4250 
z
M 2034 4750 
Q 2819 4750 3233 4129 
Q 3647 3509 3647 2328 
Q 3647 1150 3233 529 
Q 2819 -91 2034 -91 
Q 1250 -91 836 529 
Q 422 1150 422 2328 
Q 422 3509 836 4129 
Q 1250 4750 2034 4750 
z
" transform="scale(0.015625)"/>
       </defs>
       <use xlink:href="#DejaVuSans-30"/>
      </g>
     </g>
    </g>
    <g id="xtick_3">
     <g id="line2d_5">
      <path d="M 367.527938 291.28 
L 367.527938 3 
" clip-path="url(#p80f87bf1dd)" style="fill: none; stroke: #b0b0b0; stroke-width: 0.8; stroke-linecap: square"/>
     </g>
     <g id="line2d_6">
      <g>
       <use xlink:href="#mfe98557145" x="367.527938" y="291.28" style="stroke: #000000; stroke-width: 0.8"/>
      </g>
     </g>
     <g id="text_3">
      <!-- 1 -->
      <g transform="translate(361.165438 313.476875)scale(0.2 -0.2)">
       <use xlink:href="#DejaVuSans-31"/>
      </g>
     </g>
    </g>
    <g id="xtick_4">
     <g id="line2d_7">
      <defs>
       <path id="mb825dfb760" d="M 0 0 
L 0 2 
" style="stroke: #000000; stroke-width: 0.6"/>
      </defs>
      <g>
       <use xlink:href="#mb825dfb760" x="55.064517" y="291.28" style="stroke: #000000; stroke-width: 0.6"/>
      </g>
     </g>
    </g>
    <g id="xtick_5">
     <g id="line2d_8">
      <g>
       <use xlink:href="#mb825dfb760" x="70.538421" y="291.28" style="stroke: #000000; stroke-width: 0.6"/>
      </g>
     </g>
    </g>
    <g id="xtick_6">
     <g id="line2d_9">
      <g>
       <use xlink:href="#mb825dfb760" x="82.540914" y="291.28" style="stroke: #000000; stroke-width: 0.6"/>
      </g>
     </g>
    </g>
    <g id="xtick_7">
     <g id="line2d_10">
      <g>
       <use xlink:href="#mb825dfb760" x="92.347665" y="291.28" style="stroke: #000000; stroke-width: 0.6"/>
      </g>
     </g>
    </g>
    <g id="xtick_8">
     <g id="line2d_11">
      <g>
       <use xlink:href="#mb825dfb760" x="100.639155" y="291.28" style="stroke: #000000; stroke-width: 0.6"/>
      </g>
     </g>
    </g>
    <g id="xtick_9">
     <g id="line2d_12">
      <g>
       <use xlink:href="#mb825dfb760" x="107.82157" y="291.28" style="stroke: #000000; stroke-width: 0.6"/>
      </g>
     </g>
    </g>
    <g id="xtick_10">
     <g id="line2d_13">
      <g>
       <use xlink:href="#mb825dfb760" x="114.156909" y="291.28" style="stroke: #000000; stroke-width: 0.6"/>
      </g>
     </g>
    </g>
    <g id="xtick_11">
     <g id="line2d_14">
      <g>
       <use xlink:href="#mb825dfb760" x="157.107211" y="291.28" style="stroke: #000000; stroke-width: 0.6"/>
      </g>
     </g>
    </g>
    <g id="xtick_12">
     <g id="line2d_15">
      <g>
       <use xlink:href="#mb825dfb760" x="178.916454" y="291.28" style="stroke: #000000; stroke-width: 0.6"/>
      </g>
     </g>
    </g>
    <g id="xtick_13">
     <g id="line2d_16">
      <g>
       <use xlink:href="#mb825dfb760" x="194.390359" y="291.28" style="stroke: #000000; stroke-width: 0.6"/>
      </g>
     </g>
    </g>
    <g id="xtick_14">
     <g id="line2d_17">
      <g>
       <use xlink:href="#mb825dfb760" x="206.392852" y="291.28" style="stroke: #000000; stroke-width: 0.6"/>
      </g>
     </g>
    </g>
    <g id="xtick_15">
     <g id="line2d_18">
      <g>
       <use xlink:href="#mb825dfb760" x="216.199603" y="291.28" style="stroke: #000000; stroke-width: 0.6"/>
      </g>
     </g>
    </g>
    <g id="xtick_16">
     <g id="line2d_19">
      <g>
       <use xlink:href="#mb825dfb760" x="224.491092" y="291.28" style="stroke: #000000; stroke-width: 0.6"/>
      </g>
     </g>
    </g>
    <g id="xtick_17">
     <g id="line2d_20">
      <g>
       <use xlink:href="#mb825dfb760" x="231.673507" y="291.28" style="stroke: #000000; stroke-width: 0.6"/>
      </g>
     </g>
    </g>
    <g id="xtick_18">
     <g id="line2d_21">
      <g>
       <use xlink:href="#mb825dfb760" x="238.008846" y="291.28" style="stroke: #000000; stroke-width: 0.6"/>
      </g>
     </g>
    </g>
    <g id="xtick_19">
     <g id="line2d_22">
      <g>
       <use xlink:href="#mb825dfb760" x="280.959148" y="291.28" style="stroke: #000000; stroke-width: 0.6"/>
      </g>
     </g>
    </g>
    <g id="xtick_20">
     <g id="line2d_23">
      <g>
       <use xlink:href="#mb825dfb760" x="302.768392" y="291.28" style="stroke: #000000; stroke-width: 0.6"/>
      </g>
     </g>
    </g>
    <g id="xtick_21">
     <g id="line2d_24">
      <g>
       <use xlink:href="#mb825dfb760" x="318.242296" y="291.28" style="stroke: #000000; stroke-width: 0.6"/>
      </g>
     </g>
    </g>
    <g id="xtick_22">
     <g id="line2d_25">
      <g>
       <use xlink:href="#mb825dfb760" x="330.244789" y="291.28" style="stroke: #000000; stroke-width: 0.6"/>
      </g>
     </g>
    </g>
    <g id="xtick_23">
     <g id="line2d_26">
      <g>
       <use xlink:href="#mb825dfb760" x="340.05154" y="291.28" style="stroke: #000000; stroke-width: 0.6"/>
      </g>
     </g>
    </g>
    <g id="xtick_24">
     <g id="line2d_27">
      <g>
       <use xlink:href="#mb825dfb760" x="348.34303" y="291.28" style="stroke: #000000; stroke-width: 0.6"/>
      </g>
     </g>
    </g>
    <g id="xtick_25">
     <g id="line2d_28">
      <g>
       <use xlink:href="#mb825dfb760" x="355.525445" y="291.28" style="stroke: #000000; stroke-width: 0.6"/>
      </g>
     </g>
    </g>
    <g id="xtick_26">
     <g id="line2d_29">
      <g>
       <use xlink:href="#mb825dfb760" x="361.860784" y="291.28" style="stroke: #000000; stroke-width: 0.6"/>
      </g>
     </g>
    </g>
    <g id="xtick_27">
     <g id="line2d_30">
      <g>
       <use xlink:href="#mb825dfb760" x="404.811086" y="291.28" style="stroke: #000000; stroke-width: 0.6"/>
      </g>
     </g>
    </g>
    <g id="xtick_28">
     <g id="line2d_31">
      <g>
       <use xlink:href="#mb825dfb760" x="426.620329" y="291.28" style="stroke: #000000; stroke-width: 0.6"/>
      </g>
     </g>
    </g>
    <g id="xtick_29">
     <g id="line2d_32">
      <g>
       <use xlink:href="#mb825dfb760" x="442.094234" y="291.28" style="stroke: #000000; stroke-width: 0.6"/>
      </g>
     </g>
    </g>
    <g id="text_4">
     <!-- log10 of FEvals ratio -->
     <g transform="translate(141.371312 336.833125)scale(0.2 -0.2)">
      <defs>
       <path id="DejaVuSans-6c" d="M 603 4863 
L 1178 4863 
L 1178 0 
L 603 0 
L 603 4863 
z
" transform="scale(0.015625)"/>
       <path id="DejaVuSans-6f" d="M 1959 3097 
Q 1497 3097 1228 2736 
Q 959 2375 959 1747 
Q 959 1119 1226 758 
Q 1494 397 1959 397 
Q 2419 397 2687 759 
Q 2956 1122 2956 1747 
Q 2956 2369 2687 2733 
Q 2419 3097 1959 3097 
z
M 1959 3584 
Q 2709 3584 3137 3096 
Q 3566 2609 3566 1747 
Q 3566 888 3137 398 
Q 2709 -91 1959 -91 
Q 1206 -91 779 398 
Q 353 888 353 1747 
Q 353 2609 779 3096 
Q 1206 3584 1959 3584 
z
" transform="scale(0.015625)"/>
       <path id="DejaVuSans-67" d="M 2906 1791 
Q 2906 2416 2648 2759 
Q 2391 3103 1925 3103 
Q 1463 3103 1205 2759 
Q 947 2416 947 1791 
Q 947 1169 1205 825 
Q 1463 481 1925 481 
Q 2391 481 2648 825 
Q 2906 1169 2906 1791 
z
M 3481 434 
Q 3481 -459 3084 -895 
Q 2688 -1331 1869 -1331 
Q 1566 -1331 1297 -1286 
Q 1028 -1241 775 -1147 
L 775 -588 
Q 1028 -725 1275 -790 
Q 1522 -856 1778 -856 
Q 2344 -856 2625 -561 
Q 2906 -266 2906 331 
L 2906 616 
Q 2728 306 2450 153 
Q 2172 0 1784 0 
Q 1141 0 747 490 
Q 353 981 353 1791 
Q 353 2603 747 3093 
Q 1141 3584 1784 3584 
Q 2172 3584 2450 3431 
Q 2728 3278 2906 2969 
L 2906 3500 
L 3481 3500 
L 3481 434 
z
" transform="scale(0.015625)"/>
       <path id="DejaVuSans-20" transform="scale(0.015625)"/>
       <path id="DejaVuSans-66" d="M 2375 4863 
L 2375 4384 
L 1825 4384 
Q 1516 4384 1395 4259 
Q 1275 4134 1275 3809 
L 1275 3500 
L 2222 3500 
L 2222 3053 
L 1275 3053 
L 1275 0 
L 697 0 
L 697 3053 
L 147 3053 
L 147 3500 
L 697 3500 
L 697 3744 
Q 697 4328 969 4595 
Q 1241 4863 1831 4863 
L 2375 4863 
z
" transform="scale(0.015625)"/>
       <path id="DejaVuSans-46" d="M 628 4666 
L 3309 4666 
L 3309 4134 
L 1259 4134 
L 1259 2759 
L 3109 2759 
L 3109 2228 
L 1259 2228 
L 1259 0 
L 628 0 
L 628 4666 
z
" transform="scale(0.015625)"/>
       <path id="DejaVuSans-45" d="M 628 4666 
L 3578 4666 
L 3578 4134 
L 1259 4134 
L 1259 2753 
L 3481 2753 
L 3481 2222 
L 1259 2222 
L 1259 531 
L 3634 531 
L 3634 0 
L 628 0 
L 628 4666 
z
" transform="scale(0.015625)"/>
       <path id="DejaVuSans-76" d="M 191 3500 
L 800 3500 
L 1894 563 
L 2988 3500 
L 3597 3500 
L 2284 0 
L 1503 0 
L 191 3500 
z
" transform="scale(0.015625)"/>
       <path id="DejaVuSans-61" d="M 2194 1759 
Q 1497 1759 1228 1600 
Q 959 1441 959 1056 
Q 959 750 1161 570 
Q 1363 391 1709 391 
Q 2188 391 2477 730 
Q 2766 1069 2766 1631 
L 2766 1759 
L 2194 1759 
z
M 3341 1997 
L 3341 0 
L 2766 0 
L 2766 531 
Q 2569 213 2275 61 
Q 1981 -91 1556 -91 
Q 1019 -91 701 211 
Q 384 513 384 1019 
Q 384 1609 779 1909 
Q 1175 2209 1959 2209 
L 2766 2209 
L 2766 2266 
Q 2766 2663 2505 2880 
Q 2244 3097 1772 3097 
Q 1472 3097 1187 3025 
Q 903 2953 641 2809 
L 641 3341 
Q 956 3463 1253 3523 
Q 1550 3584 1831 3584 
Q 2591 3584 2966 3190 
Q 3341 2797 3341 1997 
z
" transform="scale(0.015625)"/>
       <path id="DejaVuSans-73" d="M 2834 3397 
L 2834 2853 
Q 2591 2978 2328 3040 
Q 2066 3103 1784 3103 
Q 1356 3103 1142 2972 
Q 928 2841 928 2578 
Q 928 2378 1081 2264 
Q 1234 2150 1697 2047 
L 1894 2003 
Q 2506 1872 2764 1633 
Q 3022 1394 3022 966 
Q 3022 478 2636 193 
Q 2250 -91 1575 -91 
Q 1294 -91 989 -36 
Q 684 19 347 128 
L 347 722 
Q 666 556 975 473 
Q 1284 391 1588 391 
Q 1994 391 2212 530 
Q 2431 669 2431 922 
Q 2431 1156 2273 1281 
Q 2116 1406 1581 1522 
L 1381 1569 
Q 847 1681 609 1914 
Q 372 2147 372 2553 
Q 372 3047 722 3315 
Q 1072 3584 1716 3584 
Q 2034 3584 2315 3537 
Q 2597 3491 2834 3397 
z
" transform="scale(0.015625)"/>
       <path id="DejaVuSans-72" d="M 2631 2963 
Q 2534 3019 2420 3045 
Q 2306 3072 2169 3072 
Q 1681 3072 1420 2755 
Q 1159 2438 1159 1844 
L 1159 0 
L 581 0 
L 581 3500 
L 1159 3500 
L 1159 2956 
Q 1341 3275 1631 3429 
Q 1922 3584 2338 3584 
Q 2397 3584 2469 3576 
Q 2541 3569 2628 3553 
L 2631 2963 
z
" transform="scale(0.015625)"/>
       <path id="DejaVuSans-74" d="M 1172 4494 
L 1172 3500 
L 2356 3500 
L 2356 3053 
L 1172 3053 
L 1172 1153 
Q 1172 725 1289 603 
Q 1406 481 1766 481 
L 2356 481 
L 2356 0 
L 1766 0 
Q 1100 0 847 248 
Q 594 497 594 1153 
L 594 3053 
L 172 3053 
L 172 3500 
L 594 3500 
L 594 4494 
L 1172 4494 
z
" transform="scale(0.015625)"/>
       <path id="DejaVuSans-69" d="M 603 3500 
L 1178 3500 
L 1178 0 
L 603 0 
L 603 3500 
z
M 603 4863 
L 1178 4863 
L 1178 4134 
L 603 4134 
L 603 4863 
z
" transform="scale(0.015625)"/>
      </defs>
      <use xlink:href="#DejaVuSans-6c"/>
      <use xlink:href="#DejaVuSans-6f" x="27.783203"/>
      <use xlink:href="#DejaVuSans-67" x="88.964844"/>
      <use xlink:href="#DejaVuSans-31" x="152.441406"/>
      <use xlink:href="#DejaVuSans-30" x="216.064453"/>
      <use xlink:href="#DejaVuSans-20" x="279.6875"/>
      <use xlink:href="#DejaVuSans-6f" x="311.474609"/>
      <use xlink:href="#DejaVuSans-66" x="372.65625"/>
      <use xlink:href="#DejaVuSans-20" x="407.861328"/>
      <use xlink:href="#DejaVuSans-46" x="439.648438"/>
      <use xlink:href="#DejaVuSans-45" x="497.167969"/>
      <use xlink:href="#DejaVuSans-76" x="560.351562"/>
      <use xlink:href="#DejaVuSans-61" x="619.53125"/>
      <use xlink:href="#DejaVuSans-6c" x="680.810547"/>
      <use xlink:href="#DejaVuSans-73" x="708.59375"/>
      <use xlink:href="#DejaVuSans-20" x="760.693359"/>
      <use xlink:href="#DejaVuSans-72" x="792.480469"/>
      <use xlink:href="#DejaVuSans-61" x="833.59375"/>
      <use xlink:href="#DejaVuSans-74" x="894.873047"/>
      <use xlink:href="#DejaVuSans-69" x="934.082031"/>
      <use xlink:href="#DejaVuSans-6f" x="961.865234"/>
     </g>
    </g>
   </g>
   <g id="matplotlib.axis_2">
    <g id="ytick_1">
     <g id="line2d_33">
      <path d="M 34.16 288.453725 
L 453.192 288.453725 
" clip-path="url(#p80f87bf1dd)" style="fill: none; stroke: #b0b0b0; stroke-width: 0.8; stroke-linecap: square"/>
     </g>
     <g id="line2d_34">
      <defs>
       <path id="mb22d840e8f" d="M 0 0 
L -3.5 0 
" style="stroke: #000000; stroke-width: 0.8"/>
      </defs>
      <g>
       <use xlink:href="#mb22d840e8f" x="34.16" y="288.453725" style="stroke: #000000; stroke-width: 0.8"/>
      </g>
     </g>
    </g>
    <g id="ytick_2">
     <g id="line2d_35">
      <path d="M 34.16 217.796863 
L 453.192 217.796863 
" clip-path="url(#p80f87bf1dd)" style="fill: none; stroke: #b0b0b0; stroke-width: 0.8; stroke-linecap: square"/>
     </g>
     <g id="line2d_36">
      <g>
       <use xlink:href="#mb22d840e8f" x="34.16" y="217.796863" style="stroke: #000000; stroke-width: 0.8"/>
      </g>
     </g>
    </g>
    <g id="ytick_3">
     <g id="line2d_37">
      <path d="M 34.16 147.14 
L 453.192 147.14 
" clip-path="url(#p80f87bf1dd)" style="fill: none; stroke: #b0b0b0; stroke-width: 0.8; stroke-linecap: square"/>
     </g>
     <g id="line2d_38">
      <g>
       <use xlink:href="#mb22d840e8f" x="34.16" y="147.14" style="stroke: #000000; stroke-width: 0.8"/>
      </g>
     </g>
    </g>
    <g id="ytick_4">
     <g id="line2d_39">
      <path d="M 34.16 76.483137 
L 453.192 76.483137 
" clip-path="url(#p80f87bf1dd)" style="fill: none; stroke: #b0b0b0; stroke-width: 0.8; stroke-linecap: square"/>
     </g>
     <g id="line2d_40">
      <g>
       <use xlink:href="#mb22d840e8f" x="34.16" y="76.483137" style="stroke: #000000; stroke-width: 0.8"/>
      </g>
     </g>
    </g>
    <g id="ytick_5">
     <g id="line2d_41">
      <path d="M 34.16 5.826275 
L 453.192 5.826275 
" clip-path="url(#p80f87bf1dd)" style="fill: none; stroke: #b0b0b0; stroke-width: 0.8; stroke-linecap: square"/>
     </g>
     <g id="line2d_42">
      <g>
       <use xlink:href="#mb22d840e8f" x="34.16" y="5.826275" style="stroke: #000000; stroke-width: 0.8"/>
      </g>
     </g>
    </g>
    <g id="text_5">
     <!-- proportion of trials -->
     <g transform="translate(19.000625 240.14625)rotate(-90)scale(0.2 -0.2)">
      <defs>
       <path id="DejaVuSans-70" d="M 1159 525 
L 1159 -1331 
L 581 -1331 
L 581 3500 
L 1159 3500 
L 1159 2969 
Q 1341 3281 1617 3432 
Q 1894 3584 2278 3584 
Q 2916 3584 3314 3078 
Q 3713 2572 3713 1747 
Q 3713 922 3314 415 
Q 2916 -91 2278 -91 
Q 1894 -91 1617 61 
Q 1341 213 1159 525 
z
M 3116 1747 
Q 3116 2381 2855 2742 
Q 2594 3103 2138 3103 
Q 1681 3103 1420 2742 
Q 1159 2381 1159 1747 
Q 1159 1113 1420 752 
Q 1681 391 2138 391 
Q 2594 391 2855 752 
Q 3116 1113 3116 1747 
z
" transform="scale(0.015625)"/>
       <path id="DejaVuSans-6e" d="M 3513 2113 
L 3513 0 
L 2938 0 
L 2938 2094 
Q 2938 2591 2744 2837 
Q 2550 3084 2163 3084 
Q 1697 3084 1428 2787 
Q 1159 2491 1159 1978 
L 1159 0 
L 581 0 
L 581 3500 
L 1159 3500 
L 1159 2956 
Q 1366 3272 1645 3428 
Q 1925 3584 2291 3584 
Q 2894 3584 3203 3211 
Q 3513 2838 3513 2113 
z
" transform="scale(0.015625)"/>
      </defs>
      <use xlink:href="#DejaVuSans-70"/>
      <use xlink:href="#DejaVuSans-72" x="63.476562"/>
      <use xlink:href="#DejaVuSans-6f" x="102.339844"/>
      <use xlink:href="#DejaVuSans-70" x="163.521484"/>
      <use xlink:href="#DejaVuSans-6f" x="226.998047"/>
      <use xlink:href="#DejaVuSans-72" x="288.179688"/>
      <use xlink:href="#DejaVuSans-74" x="329.292969"/>
      <use xlink:href="#DejaVuSans-69" x="368.501953"/>
      <use xlink:href="#DejaVuSans-6f" x="396.285156"/>
      <use xlink:href="#DejaVuSans-6e" x="457.466797"/>
      <use xlink:href="#DejaVuSans-20" x="520.845703"/>
      <use xlink:href="#DejaVuSans-6f" x="552.632812"/>
      <use xlink:href="#DejaVuSans-66" x="613.814453"/>
      <use xlink:href="#DejaVuSans-20" x="649.019531"/>
      <use xlink:href="#DejaVuSans-74" x="680.806641"/>
      <use xlink:href="#DejaVuSans-72" x="720.015625"/>
      <use xlink:href="#DejaVuSans-69" x="761.128906"/>
      <use xlink:href="#DejaVuSans-61" x="788.912109"/>
      <use xlink:href="#DejaVuSans-6c" x="850.191406"/>
      <use xlink:href="#DejaVuSans-73" x="877.974609"/>
     </g>
    </g>
   </g>
   <g id="line2d_43">
    <path d="M 34.16 288.453725 
L 48.07518 288.453725 
L 48.07518 288.139695 
L 53.176002 288.139695 
L 53.176002 287.825664 
L 53.402111 287.825664 
L 53.402111 287.511634 
L 96.426462 287.511634 
L 96.426462 287.197603 
L 102.2687 287.197603 
L 102.2687 286.883573 
L 104.219534 286.883573 
L 104.219534 286.569542 
L 105.591016 286.569542 
L 105.591016 286.255512 
L 105.752514 286.255512 
L 105.752514 285.941481 
L 107.402969 285.941481 
L 107.402969 285.627451 
L 108.578318 285.627451 
L 108.578318 285.31342 
L 110.691838 285.31342 
L 110.691838 284.99939 
L 110.917947 284.99939 
L 110.917947 284.685359 
L 113.67914 284.685359 
L 113.67914 284.371329 
L 113.905249 284.371329 
L 113.905249 284.057298 
L 114.983929 284.057298 
L 114.983929 283.743268 
L 116.132993 283.743268 
L 116.132993 283.429237 
L 120.084751 283.429237 
L 120.084751 283.115207 
L 120.31086 283.115207 
L 120.31086 282.801176 
L 121.233815 282.801176 
L 121.233815 282.487146 
L 121.459924 282.487146 
L 121.459924 282.173115 
L 127.771901 282.173115 
L 127.771901 281.859085 
L 132.553106 281.859085 
L 132.553106 281.545054 
L 134.366955 281.545054 
L 134.366955 281.231024 
L 135.041098 281.231024 
L 135.041098 280.916993 
L 135.651356 280.916993 
L 135.651356 280.602963 
L 151.059004 280.602963 
L 151.059004 280.288932 
L 152.200365 280.288932 
L 152.200365 279.974902 
L 153.942299 279.974902 
L 153.942299 279.660871 
L 156.159826 279.660871 
L 156.159826 279.346841 
L 156.385935 279.346841 
L 156.385935 279.03281 
L 156.929601 279.03281 
L 156.929601 278.71878 
L 157.052884 278.71878 
L 157.052884 278.404749 
L 157.301187 278.404749 
L 157.301187 278.090719 
L 157.527296 278.090719 
L 157.527296 277.776688 
L 159.784536 277.776688 
L 159.784536 277.462658 
L 161.73537 277.462658 
L 161.73537 277.148627 
L 162.153706 277.148627 
L 162.153706 276.834597 
L 162.379815 276.834597 
L 162.379815 276.520566 
L 162.771838 276.520566 
L 162.771838 276.206536 
L 163.26835 276.206536 
L 163.335212 275.578475 
L 164.484276 275.578475 
L 164.484276 275.264444 
L 164.722672 275.264444 
L 164.722672 274.950414 
L 164.918805 274.950414 
L 164.918805 274.636383 
L 166.255652 274.636383 
L 166.255652 274.322353 
L 167.906107 274.322353 
L 167.906107 274.008322 
L 169.177449 274.008322 
L 169.177449 273.694292 
L 170.326513 273.694292 
L 170.385578 273.066231 
L 171.128284 273.066231 
L 171.128284 272.7522 
L 172.277348 272.7522 
L 172.277348 272.43817 
L 172.661263 272.43817 
L 172.661263 272.124139 
L 173.810327 272.124139 
L 173.810327 271.810109 
L 174.311718 271.810109 
L 174.311718 271.496078 
L 175.460782 271.496078 
L 175.460782 271.182048 
L 180.462969 271.182048 
L 180.462969 270.868017 
L 185.287737 270.868017 
L 185.287737 270.553987 
L 186.52047 270.553987 
L 186.52047 270.239956 
L 188.090765 270.239956 
L 188.090765 269.925926 
L 188.275039 269.925926 
L 188.275039 269.611895 
L 190.022673 269.611895 
L 190.104172 268.669804 
L 191.621292 268.669804 
L 191.621292 268.355773 
L 191.847401 268.355773 
L 191.882791 267.727712 
L 192.556934 267.727712 
L 192.556934 267.413682 
L 193.046171 267.413682 
L 193.056244 266.785621 
L 193.167193 266.785621 
L 193.191587 266.15756 
L 193.360748 266.15756 
L 193.417696 265.529499 
L 193.990982 265.529499 
L 193.990982 265.215468 
L 194.68065 265.215468 
L 194.68065 264.901438 
L 194.870093 264.901438 
L 194.870093 264.587407 
L 195.123495 264.587407 
L 195.204994 263.959346 
L 195.349604 263.959346 
L 195.431103 263.331285 
L 195.544236 263.331285 
L 195.544236 263.017255 
L 195.829714 263.017255 
L 195.829714 262.703224 
L 196.154495 262.703224 
L 196.154495 262.389194 
L 198.146993 262.389194 
L 198.146993 262.075163 
L 198.373102 262.075163 
L 198.461571 261.447102 
L 198.68768 261.447102 
L 198.68768 261.133072 
L 199.091804 261.133072 
L 199.091804 260.819041 
L 199.317913 260.819041 
L 199.410287 260.19098 
L 199.461855 260.19098 
L 199.461855 259.87695 
L 200.551648 259.87695 
L 200.610919 259.248889 
L 201.275705 259.248889 
L 201.275705 258.934858 
L 201.949848 258.934858 
L 201.949848 258.620828 
L 202.424769 258.620828 
L 202.424769 258.306797 
L 202.560106 258.306797 
L 202.560106 257.992767 
L 203.098911 257.992767 
L 203.098911 257.678736 
L 203.70917 257.678736 
L 203.70917 257.364706 
L 205.252524 257.364706 
L 205.252524 257.050675 
L 205.404167 257.050675 
L 205.404167 256.736645 
L 206.393885 256.736645 
L 206.393885 256.422614 
L 206.582581 256.422614 
L 206.582581 256.108584 
L 207.203359 256.108584 
L 207.203359 255.794553 
L 208.34472 255.794553 
L 208.34472 255.480523 
L 208.736338 255.480523 
L 208.736338 255.166492 
L 209.17083 255.166492 
L 209.17083 254.852462 
L 209.511883 254.852462 
L 209.511883 254.538431 
L 209.877699 254.538431 
L 209.877699 254.224401 
L 210.386793 254.224401 
L 210.386793 253.91037 
L 211.246404 253.91037 
L 211.246404 253.59634 
L 211.528154 253.59634 
L 211.528154 253.282309 
L 211.766195 253.282309 
L 211.766195 252.968279 
L 212.100131 252.968279 
L 212.100131 252.654248 
L 213.197238 252.654248 
L 213.197238 252.340218 
L 214.354443 252.340218 
L 214.354443 252.026187 
L 214.730218 252.026187 
L 214.730218 251.712157 
L 215.626366 251.712157 
L 215.626366 251.398126 
L 216.380673 251.398126 
L 216.380673 251.084096 
L 216.579733 251.084096 
L 216.579733 250.456035 
L 218.555667 250.456035 
L 218.555667 250.142004 
L 218.68019 250.142004 
L 218.68019 249.827974 
L 219.167981 249.827974 
L 219.167981 249.199913 
L 219.98743 249.199913 
L 219.98743 248.885882 
L 220.226451 248.885882 
L 220.226451 248.571852 
L 220.519575 248.571852 
L 220.519575 248.257821 
L 220.633735 248.257821 
L 220.633735 247.943791 
L 220.80998 247.943791 
L 220.80998 247.62976 
L 221.268439 247.62976 
L 221.268439 247.31573 
L 221.676355 247.31573 
L 221.676355 247.001699 
L 222.374196 247.001699 
L 222.374196 246.687669 
L 222.527902 246.687669 
L 222.527902 246.059608 
L 222.810433 246.059608 
L 222.810433 245.745577 
L 222.969335 245.745577 
L 222.969335 245.431547 
L 223.088201 245.431547 
L 223.155752 244.803486 
L 223.448877 244.803486 
L 223.448877 244.489455 
L 223.685204 244.489455 
L 223.685204 244.175425 
L 224.562239 244.175425 
L 224.664172 243.233333 
L 224.962445 243.233333 
L 224.962445 242.919303 
L 225.078947 242.919303 
L 225.078947 242.605272 
L 225.272794 242.605272 
L 225.272794 242.291242 
L 225.410064 242.291242 
L 225.457203 241.34915 
L 225.615567 241.34915 
L 225.703189 240.093028 
L 225.745064 240.093028 
L 225.745064 239.778998 
L 226.017502 239.778998 
L 226.092625 239.150937 
L 226.347391 239.150937 
L 226.431056 237.894815 
L 226.509377 237.894815 
L 226.509377 237.580784 
L 226.859969 237.580784 
L 226.961913 236.952723 
L 227.473316 236.952723 
L 227.473316 236.638693 
L 227.620329 236.638693 
L 227.730679 234.75451 
L 227.901414 234.75451 
L 227.901414 234.440479 
L 228.202095 234.440479 
L 228.271814 233.498388 
L 228.423706 233.498388 
L 228.423706 233.184357 
L 228.571051 233.184357 
L 228.571051 232.556296 
L 228.729953 232.556296 
L 228.729953 231.928235 
L 228.849091 231.928235 
L 228.849091 231.614205 
L 229.026903 231.614205 
L 229.026903 231.300174 
L 229.14412 231.300174 
L 229.238981 230.672113 
L 229.313341 230.672113 
L 229.334169 230.044052 
L 229.44747 230.044052 
L 229.44747 229.730022 
L 229.563895 229.730022 
L 229.655242 229.101961 
L 230.032131 229.101961 
L 230.047121 228.159869 
L 230.17041 228.159869 
L 230.223602 226.589717 
L 230.292309 226.589717 
L 230.326861 225.333595 
L 230.440485 225.333595 
L 230.516727 224.077473 
L 230.659687 224.077473 
L 230.755725 223.135381 
L 230.823221 223.135381 
L 230.888716 221.879259 
L 231.005865 221.879259 
L 231.024132 221.251198 
L 231.17109 221.251198 
L 231.186118 220.623137 
L 231.318103 220.623137 
L 231.417981 219.681046 
L 231.501585 219.681046 
L 231.505681 218.424924 
L 231.638655 218.424924 
L 231.720762 217.168802 
L 231.831941 217.168802 
L 231.897086 216.540741 
L 231.990843 216.540741 
L 232.073421 215.284619 
L 232.12148 215.284619 
L 232.150058 214.656558 
L 232.29707 214.656558 
L 232.332339 213.714466 
L 232.452586 213.714466 
L 232.525053 212.144314 
L 232.614572 212.144314 
L 232.620379 210.888192 
L 232.729691 210.888192 
L 232.791017 209.9461 
L 232.903546 209.9461 
L 232.953002 209.004009 
L 233.031943 209.004009 
L 233.101929 207.119826 
L 233.405539 207.119826 
L 233.405539 206.805795 
L 233.578511 206.805795 
L 233.578511 206.491765 
L 233.725524 206.491765 
L 233.773965 205.549673 
L 233.880828 205.549673 
L 233.916942 204.921612 
L 234.01091 204.921612 
L 234.100455 203.979521 
L 234.203433 203.979521 
L 234.269163 203.35146 
L 234.327734 203.35146 
L 234.384844 202.723399 
L 234.528902 202.723399 
L 234.625511 200.525185 
L 234.74522 200.525185 
L 234.787521 198.955033 
L 234.859796 198.955033 
L 234.90639 197.38488 
L 234.983842 197.38488 
L 235.065292 196.756819 
L 235.18581 196.756819 
L 235.278628 195.500697 
L 235.324512 195.500697 
L 235.39803 194.558606 
L 235.43753 194.558606 
L 235.53693 193.616514 
L 235.551814 193.616514 
L 235.601399 192.988453 
L 235.675258 192.988453 
L 235.777795 192.046362 
L 235.798547 192.046362 
L 235.854279 191.418301 
L 236.018066 191.418301 
L 236.076395 190.476209 
L 236.288249 190.476209 
L 236.380132 189.534118 
L 236.407082 189.534118 
L 236.451358 188.592026 
L 236.523476 188.592026 
L 236.62668 186.079782 
L 236.678291 186.079782 
L 236.774464 183.881569 
L 236.86237 183.881569 
L 236.922538 182.939477 
L 237.021604 182.939477 
L 237.129722 181.683355 
L 237.144893 181.683355 
L 237.183181 180.741264 
L 237.288717 180.741264 
L 237.370403 179.171111 
L 237.401323 179.171111 
L 237.46797 178.54305 
L 237.533007 178.54305 
L 237.547142 177.914989 
L 237.656296 177.914989 
L 237.68002 177.286928 
L 237.797704 177.286928 
L 237.870598 175.088715 
L 237.915383 175.088715 
L 238.024923 173.518562 
L 238.048411 173.518562 
L 238.092956 172.576471 
L 238.189647 172.576471 
L 238.228494 171.634379 
L 238.309107 171.634379 
L 238.373955 170.064227 
L 238.424747 170.064227 
L 238.492141 167.237952 
L 238.585402 167.237952 
L 238.664164 165.039739 
L 238.701273 165.039739 
L 238.701273 164.725708 
L 238.830056 164.725708 
L 238.879816 163.783617 
L 238.987471 163.783617 
L 239.075915 162.213464 
L 239.134484 162.213464 
L 239.197971 159.70122 
L 239.259497 159.70122 
L 239.365228 158.759129 
L 239.370646 158.759129 
L 239.39386 157.817037 
L 239.496173 157.817037 
L 239.558651 156.560915 
L 239.662815 156.560915 
L 239.676973 155.932854 
L 239.776542 155.932854 
L 239.857169 155.304793 
L 239.937861 155.304793 
L 239.937861 154.676732 
L 240.097052 154.676732 
L 240.169959 154.048671 
L 240.242745 154.048671 
L 240.279483 153.10658 
L 240.366034 153.10658 
L 240.405192 152.478519 
L 240.564094 152.478519 
L 240.611979 151.850458 
L 240.711575 151.850458 
L 240.71399 151.222397 
L 240.848324 151.222397 
L 240.945047 150.280305 
L 240.966107 150.280305 
L 241.064409 149.338214 
L 241.099097 149.338214 
L 241.12286 148.710153 
L 241.222978 148.710153 
L 241.332811 147.14 
L 241.337014 147.14 
L 241.397454 144.627756 
L 241.495098 144.627756 
L 241.53081 143.371634 
L 241.614897 143.371634 
L 241.712031 140.545359 
L 241.758593 140.545359 
L 241.815703 139.603268 
L 241.925054 139.603268 
L 242.03209 138.347146 
L 242.064635 138.347146 
L 242.173368 137.091024 
L 242.22662 137.091024 
L 242.328819 135.834902 
L 242.342264 135.834902 
L 242.418789 135.206841 
L 242.469728 135.206841 
L 242.51922 134.264749 
L 242.596602 134.264749 
L 242.679157 132.380566 
L 242.710297 132.380566 
L 242.781001 131.438475 
L 242.824454 131.438475 
L 242.824454 130.810414 
L 242.958813 130.810414 
L 243.049334 129.240261 
L 243.08383 129.240261 
L 243.19056 127.670109 
L 243.315004 127.670109 
L 243.420118 125.785926 
L 243.437471 125.785926 
L 243.506519 124.843834 
L 243.667733 124.843834 
L 243.750462 121.703529 
L 243.844949 121.703529 
L 243.932716 120.447407 
L 243.969125 120.447407 
L 244.052884 118.877255 
L 244.14095 118.877255 
L 244.24371 116.365011 
L 244.263855 116.365011 
L 244.33058 115.422919 
L 244.382201 115.422919 
L 244.428295 114.794858 
L 244.541245 114.794858 
L 244.645183 113.852767 
L 244.784708 113.852767 
L 244.875787 112.910675 
L 244.935735 112.910675 
L 244.999503 111.968584 
L 245.051413 111.968584 
L 245.125905 111.026492 
L 245.179466 111.026492 
L 245.25812 110.084401 
L 245.371741 110.084401 
L 245.481143 108.200218 
L 245.632151 108.200218 
L 245.66103 107.572157 
L 245.768099 107.572157 
L 245.848259 106.630065 
L 245.900298 106.630065 
L 245.977451 104.745882 
L 246.057646 104.745882 
L 246.167027 103.803791 
L 246.205926 103.803791 
L 246.310224 101.605577 
L 246.420892 101.605577 
L 246.473244 99.721394 
L 246.53775 99.721394 
L 246.621662 98.465272 
L 246.654655 98.465272 
L 246.654655 98.151242 
L 246.832481 98.151242 
L 246.93689 96.581089 
L 247.015651 96.581089 
L 247.095468 95.953028 
L 247.131477 95.953028 
L 247.239691 95.010937 
L 247.365507 95.010937 
L 247.461014 93.754815 
L 247.512433 93.754815 
L 247.584303 92.812723 
L 247.700007 92.812723 
L 247.781506 91.556601 
L 247.859776 91.556601 
L 247.950236 90.61451 
L 247.983065 90.61451 
L 247.983065 90.300479 
L 248.137683 90.300479 
L 248.237114 89.044357 
L 248.279837 89.044357 
L 248.382625 87.160174 
L 248.520782 87.160174 
L 248.620371 85.904052 
L 248.635875 85.904052 
L 248.722343 84.019869 
L 248.915478 84.019869 
L 249.017074 83.077778 
L 249.132182 83.077778 
L 249.190525 82.449717 
L 249.245268 82.449717 
L 249.350462 81.193595 
L 249.378599 81.193595 
L 249.431961 79.937473 
L 249.505103 79.937473 
L 249.605388 78.995381 
L 249.756911 78.995381 
L 249.786189 78.05329 
L 249.927097 78.05329 
L 250.03106 76.797168 
L 250.110423 76.797168 
L 250.208872 74.912985 
L 250.232235 74.912985 
L 250.292218 73.656863 
L 250.383577 73.656863 
L 250.383577 73.342832 
L 250.498305 73.342832 
L 250.52536 72.714771 
L 250.651138 72.714771 
L 250.745864 71.144619 
L 250.798882 71.144619 
L 250.858415 70.516558 
L 251.038083 70.516558 
L 251.039826 69.888497 
L 251.150985 69.888497 
L 251.236348 68.946405 
L 251.317255 68.946405 
L 251.400822 68.004314 
L 251.485081 68.004314 
L 251.549746 66.434161 
L 251.666492 66.434161 
L 251.68214 65.49207 
L 251.84306 65.49207 
L 251.847292 64.864009 
L 251.966349 64.864009 
L 252.027488 63.921917 
L 252.082915 63.921917 
L 252.186738 62.979826 
L 252.32597 62.979826 
L 252.397735 61.095643 
L 252.48796 61.095643 
L 252.593669 59.52549 
L 252.61916 59.52549 
L 252.688538 58.897429 
L 252.796496 58.897429 
L 252.8884 58.269368 
L 253.093986 58.269368 
L 253.118567 57.327277 
L 253.297524 57.327277 
L 253.403709 55.757124 
L 253.449038 55.757124 
L 253.517352 54.501002 
L 253.599809 54.501002 
L 253.599809 54.186972 
L 253.727424 54.186972 
L 253.727424 53.872941 
L 253.850713 53.872941 
L 253.946086 53.24488 
L 254.085515 53.24488 
L 254.188952 52.302789 
L 254.204751 52.302789 
L 254.291611 51.674728 
L 254.421282 51.674728 
L 254.503524 50.418606 
L 254.599095 50.418606 
L 254.615176 49.790545 
L 254.756589 49.790545 
L 254.789411 49.162484 
L 254.883476 49.162484 
L 254.987414 48.534423 
L 255.084142 48.534423 
L 255.181888 47.278301 
L 255.278579 47.278301 
L 255.278579 46.96427 
L 255.510142 46.96427 
L 255.608135 45.708148 
L 255.83864 45.708148 
L 255.83864 45.394118 
L 256.088918 45.394118 
L 256.168434 44.766057 
L 256.237402 44.766057 
L 256.270329 44.137996 
L 256.451129 44.137996 
L 256.478157 43.509935 
L 256.631325 43.509935 
L 256.631325 43.195904 
L 256.779781 43.195904 
L 256.850396 42.567843 
L 257.036248 42.567843 
L 257.036248 42.253813 
L 257.417395 42.253813 
L 257.500613 41.625752 
L 257.723078 41.625752 
L 257.723078 40.997691 
L 257.90453 40.997691 
L 257.951899 40.36963 
L 258.120434 40.36963 
L 258.162937 39.427538 
L 258.314111 39.427538 
L 258.353028 38.799477 
L 258.470686 38.799477 
L 258.494306 37.857386 
L 258.664145 37.857386 
L 258.747855 37.229325 
L 259.097351 37.229325 
L 259.149905 36.601264 
L 259.384977 36.601264 
L 259.439869 35.973203 
L 259.849371 35.973203 
L 259.849371 35.345142 
L 260.024529 35.345142 
L 260.113979 34.717081 
L 260.220686 34.717081 
L 260.31926 34.08902 
L 260.358679 34.08902 
L 260.358679 33.774989 
L 260.610837 33.774989 
L 260.610837 33.460959 
L 261.164355 33.460959 
L 261.164355 33.146928 
L 261.345647 33.146928 
L 261.426471 32.518867 
L 261.563117 32.518867 
L 261.566162 31.890806 
L 261.97696 31.890806 
L 261.97696 31.576776 
L 262.10505 31.576776 
L 262.150822 30.948715 
L 262.224354 30.948715 
L 262.224354 30.634684 
L 262.445553 30.634684 
L 262.445553 30.320654 
L 262.860908 30.320654 
L 262.860908 30.006623 
L 263.476917 30.006623 
L 263.487574 29.064532 
L 263.701188 29.064532 
L 263.701188 28.750501 
L 264.420096 28.750501 
L 264.420096 28.436471 
L 265.193708 28.436471 
L 265.193708 28.12244 
L 265.546401 28.12244 
L 265.593797 27.180349 
L 265.778368 27.180349 
L 265.778368 26.866318 
L 266.073099 26.866318 
L 266.073099 26.552288 
L 266.217191 26.552288 
L 266.217191 26.238257 
L 266.580764 26.238257 
L 266.580764 25.924227 
L 267.430765 25.924227 
L 267.430765 25.610196 
L 267.72009 25.610196 
L 267.787486 24.982135 
L 268.091411 24.982135 
L 268.091411 24.668105 
L 268.707058 24.668105 
L 268.707058 24.354074 
L 269.655213 24.354074 
L 269.719394 23.726013 
L 269.800892 23.726013 
L 269.800892 23.411983 
L 269.954392 23.411983 
L 269.954392 23.097952 
L 270.998396 23.097952 
L 270.998396 22.783922 
L 271.347636 22.783922 
L 271.347636 22.469891 
L 271.781507 22.469891 
L 271.781507 22.155861 
L 272.334604 22.155861 
L 272.334604 21.84183 
L 272.568691 21.84183 
L 272.568691 21.5278 
L 272.742892 21.5278 
L 272.812245 20.899739 
L 273.057469 20.899739 
L 273.057469 20.585708 
L 273.369403 20.585708 
L 273.369403 20.271678 
L 273.486388 20.271678 
L 273.486388 19.957647 
L 273.687702 19.957647 
L 273.687702 19.643617 
L 274.096647 19.643617 
L 274.096647 19.329586 
L 274.38254 19.329586 
L 274.38254 19.015556 
L 274.500599 19.015556 
L 274.582098 18.073464 
L 275.056683 18.073464 
L 275.056683 17.759434 
L 275.409053 17.759434 
L 275.409053 17.445403 
L 275.666942 17.445403 
L 275.666942 17.131373 
L 276.314448 17.131373 
L 276.395947 16.503312 
L 276.988591 16.503312 
L 277.07009 15.875251 
L 277.524097 15.875251 
L 277.59885 15.24719 
L 277.680348 15.24719 
L 277.680348 14.933159 
L 277.838675 14.933159 
L 277.838675 14.619129 
L 278.468908 14.619129 
L 278.468908 14.305098 
L 279.337946 14.305098 
L 279.363282 13.677037 
L 279.652524 13.677037 
L 279.652524 13.363007 
L 280.012089 13.363007 
L 280.012089 13.048976 
L 280.282757 13.048976 
L 280.326667 12.420915 
L 280.622348 12.420915 
L 280.622348 12.106885 
L 280.936925 12.106885 
L 280.9569 11.478824 
L 281.567158 11.478824 
L 281.567158 11.164793 
L 283.446793 11.164793 
L 283.446793 10.850763 
L 284.588155 10.850763 
L 284.588155 10.536732 
L 289.440673 10.536732 
L 289.440673 10.222702 
L 308.830868 10.222702 
L 308.830868 9.908671 
L 310.401163 9.908671 
L 310.401163 9.594641 
L 312.333071 9.594641 
L 312.41457 8.96658 
L 315.356569 8.96658 
L 315.356569 8.652549 
L 315.671147 8.652549 
L 315.671147 8.338519 
L 316.30138 8.338519 
L 316.30138 8.024488 
L 318.908259 8.024488 
L 318.908259 7.710458 
L 320.478554 7.710458 
L 320.478554 7.396427 
L 322.410462 7.396427 
L 322.491961 6.768366 
L 325.43396 6.768366 
L 325.43396 6.454336 
L 325.748538 6.454336 
L 325.748538 6.140305 
L 326.378771 6.140305 
L 326.378771 5.826275 
L 453.192 5.826275 
L 453.192 5.826275 
" clip-path="url(#p80f87bf1dd)" style="fill: none; stroke: #000000; stroke-width: 3; stroke-linecap: square"/>
   </g>
   <g id="line2d_44">
    <path clip-path="url(#p80f87bf1dd)" style="fill: none; stroke: #000000; stroke-width: 3; stroke-linecap: square"/>
   </g>
   <g id="line2d_45">
    <path d="M 34.16 288.453725 
L 213.015939 288.453725 
L 213.015939 288.035018 
L 214.330201 288.035018 
L 214.330201 287.616311 
L 215.289019 287.616311 
L 215.289019 287.197603 
L 216.199603 287.197603 
L 216.199603 286.778896 
L 217.059174 286.778896 
L 217.059174 286.360189 
L 217.513865 286.360189 
L 217.513865 285.941481 
L 218.472682 285.941481 
L 218.472682 285.522774 
L 220.242838 285.522774 
L 220.242838 285.104067 
L 220.357569 285.104067 
L 220.357569 284.266652 
L 221.866756 284.266652 
L 221.866756 283.847945 
L 222.085853 283.847945 
L 222.085853 283.01053 
L 223.541233 283.01053 
L 223.645041 281.754408 
L 225.05042 281.754408 
L 225.05042 281.335701 
L 225.269517 281.335701 
L 225.280175 280.079579 
L 225.676363 280.079579 
L 225.676363 279.660871 
L 225.896131 279.660871 
L 225.896131 278.823457 
L 226.594438 278.823457 
L 226.594438 278.404749 
L 226.828705 278.404749 
L 226.828705 277.986042 
L 227.121175 277.986042 
L 227.121175 277.567335 
L 227.38834 277.567335 
L 227.38834 276.72992 
L 227.553255 276.72992 
L 227.553255 276.311213 
L 227.829857 276.311213 
L 227.829857 275.892505 
L 228.37477 275.892505 
L 228.37477 275.473798 
L 228.816825 275.473798 
L 228.816825 275.055091 
L 229.060762 275.055091 
L 229.16214 273.380261 
L 229.303599 273.380261 
L 229.381908 271.705432 
L 229.867498 271.705432 
L 229.867498 271.286725 
L 230.025599 271.286725 
L 230.131087 269.611895 
L 230.375025 269.611895 
L 230.375025 269.193188 
L 230.572004 269.193188 
L 230.649466 266.680944 
L 230.719275 266.680944 
L 230.799334 265.424822 
L 230.869234 265.424822 
L 230.939044 263.749993 
L 231.089904 263.749993 
L 231.151287 262.912578 
L 231.333842 262.912578 
L 231.398375 261.237749 
L 231.520482 261.237749 
L 231.58164 259.981627 
L 231.860547 259.981627 
L 231.960597 258.725505 
L 232.024377 258.725505 
L 232.094278 257.469383 
L 232.164087 257.469383 
L 232.248495 254.957139 
L 232.295343 254.957139 
L 232.355414 253.282309 
L 232.435701 253.282309 
L 232.50745 252.444895 
L 232.621806 252.444895 
L 232.655469 250.770065 
L 232.86006 250.770065 
L 232.86006 250.351358 
L 232.975751 250.351358 
L 233.051162 249.513943 
L 233.103998 249.513943 
L 233.19665 247.839114 
L 233.271571 247.839114 
L 233.365082 245.745577 
L 233.405409 245.745577 
L 233.473538 243.652041 
L 233.557487 243.652041 
L 233.557487 243.233333 
L 233.880513 243.233333 
L 233.880513 242.814626 
L 234.020863 242.814626 
L 234.130993 240.721089 
L 234.303232 240.721089 
L 234.364572 237.790138 
L 234.432187 237.790138 
L 234.493527 236.115309 
L 234.567155 236.115309 
L 234.659004 234.859187 
L 234.727134 234.859187 
L 234.750241 234.021772 
L 234.861656 234.021772 
L 234.970009 232.346943 
L 235.006259 232.346943 
L 235.067416 231.090821 
L 235.134108 231.090821 
L 235.187272 229.415991 
L 235.25332 229.415991 
L 235.348344 228.159869 
L 235.376646 228.159869 
L 235.485349 225.647625 
L 235.503195 225.647625 
L 235.521411 224.810211 
L 235.741179 224.810211 
L 235.838707 223.554089 
L 235.909278 223.554089 
L 235.993226 221.879259 
L 236.103429 221.879259 
L 236.206981 218.948308 
L 236.218734 218.948308 
L 236.301578 218.110893 
L 236.371478 218.110893 
L 236.441287 214.342527 
L 236.484843 214.342527 
L 236.563395 212.667698 
L 236.624552 212.667698 
L 236.710392 209.736747 
L 236.757901 209.736747 
L 236.757901 209.318039 
L 236.879165 209.318039 
L 236.977331 205.968381 
L 236.993584 205.968381 
L 237.065682 204.712259 
L 237.194637 204.712259 
L 237.251123 203.037429 
L 237.333817 203.037429 
L 237.410652 200.106478 
L 237.448648 200.106478 
L 237.550362 198.012941 
L 237.600525 198.012941 
L 237.682609 195.919405 
L 237.742876 195.919405 
L 237.829612 194.244575 
L 237.865874 194.244575 
L 237.963988 191.313624 
L 238.072164 191.313624 
L 238.169753 187.12655 
L 238.195657 187.12655 
L 238.289784 183.358184 
L 238.312056 183.358184 
L 238.422577 179.171111 
L 238.458959 179.171111 
L 238.564453 177.496282 
L 238.623575 177.496282 
L 238.680867 175.821452 
L 238.739096 175.821452 
L 238.791683 174.56533 
L 238.85412 174.56533 
L 238.917141 171.215672 
L 239.02242 171.215672 
L 239.131697 167.028598 
L 239.167443 167.028598 
L 239.266787 165.772476 
L 239.316938 165.772476 
L 239.386748 164.516354 
L 239.445927 164.516354 
L 239.549013 162.00411 
L 239.617265 162.00411 
L 239.689865 159.073159 
L 239.729762 159.073159 
L 239.834759 156.142208 
L 239.904568 156.142208 
L 239.955988 153.629964 
L 240.032088 153.629964 
L 240.125679 152.792549 
L 240.156522 152.792549 
L 240.267165 151.11772 
L 240.296232 151.11772 
L 240.37235 149.861598 
L 240.428713 149.861598 
L 240.523226 147.768061 
L 240.556264 147.768061 
L 240.655517 144.83711 
L 240.696199 144.83711 
L 240.801136 143.999695 
L 240.896655 143.999695 
L 240.987593 143.16228 
L 241.016456 143.16228 
L 241.1097 140.650036 
L 241.14589 140.650036 
L 241.250009 137.300378 
L 241.36553 137.300378 
L 241.469237 134.788134 
L 241.499862 134.788134 
L 241.605683 132.694597 
L 241.620994 132.694597 
L 241.620994 132.27589 
L 241.832806 132.27589 
L 241.940746 131.019768 
L 241.947716 131.019768 
L 242.0304 128.507524 
L 242.06099 128.507524 
L 242.131735 125.576572 
L 242.201515 125.576572 
L 242.292674 122.226914 
L 242.343938 122.226914 
L 242.448767 118.458548 
L 242.518895 118.458548 
L 242.574464 117.202426 
L 242.666811 117.202426 
L 242.753367 116.365011 
L 242.785867 116.365011 
L 242.875474 114.271474 
L 242.936631 114.271474 
L 243.041965 111.340523 
L 243.04982 111.340523 
L 243.142511 110.084401 
L 243.189226 110.084401 
L 243.294522 107.990864 
L 243.364123 107.990864 
L 243.456903 104.222498 
L 243.477467 104.222498 
L 243.510505 102.966376 
L 243.66059 102.966376 
L 243.739021 98.360595 
L 243.862441 98.360595 
L 243.96965 95.010937 
L 243.991845 95.010937 
L 244.099531 93.754815 
L 244.150726 93.754815 
L 244.207498 92.079985 
L 244.285584 92.079985 
L 244.369446 89.567741 
L 244.397749 89.567741 
L 244.450874 85.380668 
L 244.524986 85.380668 
L 244.634817 83.287131 
L 244.681416 83.287131 
L 244.706704 82.031009 
L 244.804465 82.031009 
L 244.912565 79.937473 
L 244.98464 79.937473 
L 245.085157 78.262643 
L 245.098367 78.262643 
L 245.156503 75.750399 
L 245.235188 75.750399 
L 245.341006 73.238155 
L 245.358471 73.238155 
L 245.404027 71.982033 
L 245.511953 71.982033 
L 245.608719 69.469789 
L 245.630903 69.469789 
L 245.73267 67.376253 
L 245.759858 67.376253 
L 245.830017 64.864009 
L 245.904922 64.864009 
L 245.965206 62.770472 
L 246.052216 62.770472 
L 246.155158 61.095643 
L 246.201154 61.095643 
L 246.216648 59.420813 
L 246.350795 59.420813 
L 246.453978 57.327277 
L 246.470822 57.327277 
L 246.50386 56.489862 
L 246.608311 56.489862 
L 246.685916 54.815033 
L 246.769526 54.815033 
L 246.877159 53.140203 
L 246.934171 53.140203 
L 246.97766 51.884081 
L 247.048034 51.884081 
L 247.131896 51.046667 
L 247.187214 51.046667 
L 247.271076 48.95313 
L 247.348339 48.95313 
L 247.438947 47.278301 
L 247.467796 47.278301 
L 247.501693 46.022179 
L 247.585555 46.022179 
L 247.69349 44.766057 
L 247.86616 44.766057 
L 247.86616 44.347349 
L 247.977995 44.347349 
L 248.059581 43.091227 
L 248.160948 43.091227 
L 248.257823 41.416398 
L 248.456072 41.416398 
L 248.529534 40.160276 
L 248.875818 40.160276 
L 248.978487 38.485447 
L 249.103598 38.485447 
L 249.204969 37.229325 
L 249.252677 37.229325 
L 249.344149 36.39191 
L 249.365954 36.39191 
L 249.449816 35.554495 
L 249.611425 35.554495 
L 249.703368 33.879666 
L 249.887364 33.879666 
L 249.887364 33.460959 
L 250.208825 33.460959 
L 250.208825 33.042251 
L 250.3775 33.042251 
L 250.398028 32.204837 
L 250.701826 32.204837 
L 250.701826 31.786129 
L 250.944936 31.786129 
L 251.045245 30.530007 
L 251.129107 30.530007 
L 251.212555 28.855178 
L 251.431652 28.855178 
L 251.522889 27.180349 
L 251.754467 27.180349 
L 251.822595 25.924227 
L 252.056791 25.924227 
L 252.056791 25.505519 
L 252.741434 25.505519 
L 252.741434 25.086812 
L 252.853642 25.086812 
L 252.853642 24.668105 
L 252.99084 24.668105 
L 252.995976 23.411983 
L 253.20218 23.411983 
L 253.263654 22.574568 
L 253.327964 22.574568 
L 253.327964 22.155861 
L 253.482751 22.155861 
L 253.482751 21.318446 
L 253.60946 21.318446 
L 253.715098 20.062324 
L 254.642227 20.062324 
L 254.719316 19.224909 
L 254.776836 19.224909 
L 254.776836 18.806202 
L 254.89325 18.806202 
L 254.89325 18.387495 
L 255.041939 18.387495 
L 255.041939 17.968787 
L 255.475135 17.968787 
L 255.475135 17.55008 
L 255.601044 17.55008 
L 255.697118 16.293958 
L 256.624802 16.293958 
L 256.734138 15.037836 
L 256.758924 15.037836 
L 256.758924 14.619129 
L 257.3712 14.619129 
L 257.3712 14.200421 
L 257.77019 14.200421 
L 257.77019 13.781714 
L 258.457478 13.781714 
L 258.457478 13.363007 
L 258.785237 13.363007 
L 258.785237 12.525592 
L 259.213297 12.525592 
L 259.213297 12.106885 
L 260.497086 12.106885 
L 260.508577 11.26947 
L 260.669595 11.26947 
L 260.669595 10.432055 
L 261.264396 10.432055 
L 261.264396 10.013348 
L 262.178782 10.013348 
L 262.178782 9.594641 
L 262.397879 9.594641 
L 262.397879 8.757226 
L 262.548185 8.757226 
L 262.548185 8.338519 
L 263.957067 8.338519 
L 263.957067 7.919811 
L 267.700365 7.919811 
L 267.700365 7.082397 
L 269.423705 7.082397 
L 269.423705 6.663689 
L 270.179524 6.663689 
L 270.179524 6.244982 
L 271.463313 6.244982 
L 271.463313 5.826275 
L 453.192 5.826275 
L 453.192 5.826275 
" clip-path="url(#p80f87bf1dd)" style="fill: none; stroke: #00bfbf; stroke-width: 3; stroke-linecap: square"/>
   </g>
   <g id="line2d_46">
    <path clip-path="url(#p80f87bf1dd)" style="fill: none; stroke: #00bfbf; stroke-width: 3; stroke-linecap: square"/>
   </g>
   <g id="line2d_47">
    <path d="M 34.16 288.453725 
L 212.646259 288.453725 
L 212.646259 288.035018 
L 213.015939 288.035018 
L 213.015939 287.616311 
L 215.289019 287.616311 
L 215.289019 287.197603 
L 215.829923 287.197603 
L 215.829923 286.778896 
L 216.199603 286.778896 
L 216.199603 286.360189 
L 217.059174 286.360189 
L 217.059174 285.941481 
L 218.472682 285.941481 
L 218.472682 285.522774 
L 220.242838 285.522774 
L 220.242838 285.104067 
L 220.357569 285.104067 
L 220.357569 284.266652 
L 221.866756 284.266652 
L 221.866756 283.847945 
L 222.085853 283.847945 
L 222.085853 283.01053 
L 223.541233 283.01053 
L 223.645041 281.754408 
L 224.910496 281.754408 
L 224.910496 281.335701 
L 225.05042 281.335701 
L 225.05042 280.916993 
L 225.269517 280.916993 
L 225.280175 279.660871 
L 226.66634 279.660871 
L 226.66634 279.242164 
L 226.828705 279.242164 
L 226.828705 278.823457 
L 227.38834 278.823457 
L 227.460177 277.986042 
L 227.553255 277.986042 
L 227.553255 277.567335 
L 227.829857 277.567335 
L 227.885027 276.72992 
L 228.447145 276.72992 
L 228.447145 276.311213 
L 228.691083 276.311213 
L 228.691083 275.892505 
L 228.816825 275.892505 
L 228.816825 275.473798 
L 229.060762 275.473798 
L 229.111679 274.636383 
L 229.323411 274.636383 
L 229.323411 274.217676 
L 229.655919 274.217676 
L 229.655919 273.380261 
L 229.850003 273.380261 
L 229.867498 272.542847 
L 230.025599 272.542847 
L 230.102937 271.286725 
L 230.368356 271.286725 
L 230.368356 270.868017 
L 230.55138 270.868017 
L 230.572004 270.030603 
L 230.738036 270.030603 
L 230.779659 269.193188 
L 230.92312 269.193188 
L 230.92312 268.774481 
L 231.089904 268.774481 
L 231.181494 267.518359 
L 231.325737 267.518359 
L 231.435881 265.843529 
L 231.673507 265.843529 
L 231.707368 265.006115 
L 231.873093 265.006115 
L 231.873093 264.587407 
L 232.112046 264.587407 
L 232.112046 264.1687 
L 232.246265 264.1687 
L 232.313249 262.075163 
L 232.621806 262.075163 
L 232.621806 261.237749 
L 232.746624 261.237749 
L 232.746624 260.819041 
L 232.86006 260.819041 
L 232.938478 259.981627 
L 233.011116 259.981627 
L 233.103998 258.306797 
L 233.589473 258.306797 
L 233.603038 257.469383 
L 233.748241 257.469383 
L 233.817753 256.631968 
L 234.034148 256.631968 
L 234.130993 254.538431 
L 234.219587 254.538431 
L 234.330514 251.60748 
L 234.334951 251.60748 
L 234.386594 249.095236 
L 234.509049 249.095236 
L 234.606086 247.839114 
L 234.664262 247.839114 
L 234.732348 246.582992 
L 234.778399 246.582992 
L 234.876591 244.908163 
L 234.912618 244.908163 
L 235.006679 243.233333 
L 235.140897 243.233333 
L 235.244325 239.883675 
L 235.408513 239.883675 
L 235.495848 238.627553 
L 235.542732 238.627553 
L 235.641257 236.952723 
L 235.686975 236.952723 
L 235.753959 236.115309 
L 235.900526 236.115309 
L 235.976572 234.859187 
L 236.034745 234.859187 
L 236.125611 232.76565 
L 236.158455 232.76565 
L 236.269391 230.672113 
L 236.348408 230.672113 
L 236.421246 228.578577 
L 236.489332 228.578577 
L 236.57087 226.48504 
L 236.638372 226.48504 
L 236.680675 225.647625 
L 236.757901 225.647625 
L 236.786334 224.391503 
L 236.879165 224.391503 
L 236.919015 221.460552 
L 237.043748 221.460552 
L 237.147294 220.20443 
L 237.165497 220.20443 
L 237.231009 219.367015 
L 237.299095 219.367015 
L 237.391518 215.179942 
L 237.424687 215.179942 
L 237.516833 213.086405 
L 237.547142 213.086405 
L 237.570582 211.830283 
L 237.661076 211.830283 
L 237.693372 210.574161 
L 237.800075 210.574161 
L 237.910678 207.64321 
L 237.91158 207.64321 
L 238.008846 204.712259 
L 238.041142 204.712259 
L 238.147812 200.943893 
L 238.176463 200.943893 
L 238.269833 198.850356 
L 238.33139 198.850356 
L 238.33139 198.431649 
L 238.458959 198.431649 
L 238.55249 196.338112 
L 238.609838 196.338112 
L 238.686709 193.40716 
L 238.728526 193.40716 
L 238.814816 190.057502 
L 238.870287 190.057502 
L 238.956805 187.12655 
L 238.985146 187.12655 
L 239.095514 184.195599 
L 239.187068 184.195599 
L 239.273817 181.683355 
L 239.306113 181.683355 
L 239.386501 179.171111 
L 239.422856 179.171111 
L 239.531039 176.24016 
L 239.588854 176.24016 
L 239.689865 174.56533 
L 239.704466 174.56533 
L 239.807951 171.634379 
L 239.831175 171.634379 
L 239.930674 168.703428 
L 239.995628 168.703428 
L 240.104604 166.191184 
L 240.1084 166.191184 
L 240.203723 162.422818 
L 240.227059 162.422818 
L 240.297776 160.329281 
L 240.343574 160.329281 
L 240.448717 157.817037 
L 240.569617 157.817037 
L 240.665503 154.467378 
L 240.693105 154.467378 
L 240.801136 149.44289 
L 240.844388 149.44289 
L 240.952472 146.511939 
L 240.999092 146.511939 
L 241.107539 144.83711 
L 241.115624 144.83711 
L 241.218289 142.324866 
L 241.237421 142.324866 
L 241.329118 138.975207 
L 241.355825 138.975207 
L 241.44189 135.625548 
L 241.480258 135.625548 
L 241.531245 133.532012 
L 241.643186 133.532012 
L 241.745892 131.019768 
L 241.770578 131.019768 
L 241.868346 129.763646 
L 241.881715 129.763646 
L 241.992058 127.251402 
L 242.005886 127.251402 
L 242.066418 125.576572 
L 242.131735 125.576572 
L 242.236353 123.483036 
L 242.288881 123.483036 
L 242.361737 122.645621 
L 242.465714 122.645621 
L 242.56846 117.621133 
L 242.589332 117.621133 
L 242.686195 114.690182 
L 242.711163 114.690182 
L 242.737708 113.43406 
L 242.906209 113.43406 
L 242.987467 111.340523 
L 243.11049 111.340523 
L 243.189226 107.990864 
L 243.23659 107.990864 
L 243.312155 106.734742 
L 243.349019 106.734742 
L 243.456903 102.128962 
L 243.536988 102.128962 
L 243.580996 100.87284 
L 243.655044 100.87284 
L 243.722182 97.941888 
L 243.791121 97.941888 
L 243.889385 96.267059 
L 243.907402 96.267059 
L 243.98711 92.498693 
L 244.034431 92.498693 
L 244.099531 90.405156 
L 244.147204 90.405156 
L 244.23673 89.149034 
L 244.324585 89.149034 
L 244.415463 84.543253 
L 244.44234 84.543253 
L 244.525554 82.031009 
L 244.634817 82.031009 
L 244.696558 80.774887 
L 244.748016 80.774887 
L 244.784414 79.518765 
L 244.866496 79.518765 
L 244.942634 77.425229 
L 245.110437 77.425229 
L 245.165972 75.750399 
L 245.235188 75.750399 
L 245.30846 73.238155 
L 245.373414 73.238155 
L 245.475465 71.144619 
L 245.486187 71.144619 
L 245.565895 69.469789 
L 245.608719 69.469789 
L 245.715296 67.79496 
L 245.722489 67.79496 
L 245.827815 65.701423 
L 245.894514 65.701423 
L 245.965206 63.189179 
L 246.021965 63.189179 
L 246.12134 61.095643 
L 246.134784 61.095643 
L 246.176141 60.258228 
L 246.3338 60.258228 
L 246.409 57.745984 
L 246.466411 57.745984 
L 246.466411 57.327277 
L 246.596076 57.327277 
L 246.690096 54.815033 
L 246.708972 54.815033 
L 246.777951 53.140203 
L 246.833777 53.140203 
L 246.941478 50.627959 
L 246.952173 50.627959 
L 247.05425 49.790545 
L 247.110725 49.790545 
L 247.206841 47.697008 
L 247.387003 47.697008 
L 247.487937 45.603471 
L 247.513374 45.603471 
L 247.589596 44.347349 
L 247.626147 44.347349 
L 247.69349 42.67252 
L 248.105703 42.67252 
L 248.204046 39.741569 
L 248.256486 39.741569 
L 248.344232 38.485447 
L 248.456072 38.485447 
L 248.545824 37.229325 
L 248.607151 37.229325 
L 248.625532 36.39191 
L 248.736036 36.39191 
L 248.82692 35.135788 
L 248.873385 35.135788 
L 248.978487 33.460959 
L 248.994483 33.460959 
L 248.994483 33.042251 
L 249.252677 33.042251 
L 249.252677 32.623544 
L 249.397646 32.623544 
L 249.437553 31.786129 
L 249.703368 31.786129 
L 249.703368 30.948715 
L 250.095506 30.948715 
L 250.113888 30.1113 
L 250.394983 30.1113 
L 250.482838 28.855178 
L 250.667403 28.855178 
L 250.701826 27.599056 
L 250.96688 27.599056 
L 251.054735 26.761641 
L 251.130302 26.761641 
L 251.212555 25.924227 
L 251.329013 25.924227 
L 251.431652 24.249397 
L 251.457645 24.249397 
L 251.457645 23.83069 
L 251.62849 23.83069 
L 251.716345 22.993275 
L 251.754467 22.993275 
L 251.754467 22.155861 
L 252.273976 22.155861 
L 252.273976 21.737153 
L 252.741434 21.737153 
L 252.741434 21.318446 
L 252.853642 21.318446 
L 252.958285 20.481031 
L 252.99084 20.481031 
L 252.995976 19.643617 
L 253.263654 19.643617 
L 253.327964 18.806202 
L 253.482751 18.806202 
L 253.482751 17.968787 
L 253.60946 17.968787 
L 253.60946 17.55008 
L 254.719316 17.55008 
L 254.719316 17.131373 
L 254.89325 17.131373 
L 254.89325 16.712665 
L 255.041939 16.712665 
L 255.041939 16.293958 
L 255.475135 16.293958 
L 255.475135 15.875251 
L 255.601044 15.875251 
L 255.601044 15.456543 
L 256.012138 15.456543 
L 256.012138 15.037836 
L 256.734138 15.037836 
L 256.758924 14.200421 
L 257.3712 14.200421 
L 257.3712 13.781714 
L 258.063237 13.781714 
L 258.063237 13.363007 
L 258.457478 13.363007 
L 258.457478 12.944299 
L 258.785237 12.944299 
L 258.785237 12.525592 
L 259.213297 12.525592 
L 259.213297 12.106885 
L 260.497086 12.106885 
L 260.508577 11.26947 
L 260.669595 11.26947 
L 260.669595 10.432055 
L 261.264396 10.432055 
L 261.264396 10.013348 
L 262.178782 10.013348 
L 262.178782 9.594641 
L 262.397879 9.594641 
L 262.397879 8.757226 
L 262.548185 8.757226 
L 262.548185 8.338519 
L 263.957067 8.338519 
L 263.957067 7.919811 
L 266.978365 7.919811 
L 266.978365 7.501104 
L 267.700365 7.501104 
L 267.700365 7.082397 
L 269.423705 7.082397 
L 269.423705 6.663689 
L 270.179524 6.663689 
L 270.179524 6.244982 
L 271.463313 6.244982 
L 271.463313 5.826275 
L 453.192 5.826275 
L 453.192 5.826275 
" clip-path="url(#p80f87bf1dd)" style="fill: none; stroke: #bf00bf; stroke-width: 3; stroke-linecap: square"/>
   </g>
   <g id="line2d_48">
    <path clip-path="url(#p80f87bf1dd)" style="fill: none; stroke: #bf00bf; stroke-width: 3; stroke-linecap: square"/>
   </g>
   <g id="line2d_49">
    <path d="M 34.16 288.453725 
L 212.646259 288.453725 
L 212.646259 288.035018 
L 213.015939 288.035018 
L 213.015939 287.616311 
L 215.289019 287.616311 
L 215.289019 287.197603 
L 215.829923 287.197603 
L 215.829923 286.778896 
L 216.199603 286.778896 
L 216.199603 286.360189 
L 217.059174 286.360189 
L 217.059174 285.941481 
L 218.472682 285.941481 
L 218.472682 285.522774 
L 220.242838 285.522774 
L 220.242838 285.104067 
L 220.357569 285.104067 
L 220.357569 284.266652 
L 221.866756 284.266652 
L 221.866756 283.847945 
L 222.085853 283.847945 
L 222.085853 283.01053 
L 223.541233 283.01053 
L 223.645041 281.754408 
L 224.910496 281.754408 
L 224.910496 281.335701 
L 225.05042 281.335701 
L 225.05042 280.916993 
L 225.269517 280.916993 
L 225.280175 279.660871 
L 226.66634 279.660871 
L 226.66634 279.242164 
L 226.828705 279.242164 
L 226.828705 278.823457 
L 227.38834 278.823457 
L 227.460177 277.986042 
L 227.553255 277.986042 
L 227.553255 277.567335 
L 227.829857 277.567335 
L 227.829857 277.148627 
L 228.447145 277.148627 
L 228.447145 276.72992 
L 228.691083 276.72992 
L 228.691083 276.311213 
L 228.816825 276.311213 
L 228.816825 275.892505 
L 229.060762 275.892505 
L 229.111679 275.055091 
L 229.323411 275.055091 
L 229.323411 274.636383 
L 229.615702 274.636383 
L 229.655919 273.380261 
L 229.850003 273.380261 
L 229.867498 272.542847 
L 230.025599 272.542847 
L 230.136535 270.868017 
L 230.368356 270.868017 
L 230.368356 270.44931 
L 230.572004 270.44931 
L 230.572004 270.030603 
L 230.738036 270.030603 
L 230.738036 269.611895 
L 231.089904 269.611895 
L 231.151287 268.774481 
L 231.333842 268.774481 
L 231.333842 268.355773 
L 231.799602 268.355773 
L 231.873093 267.518359 
L 231.991485 267.518359 
L 232.026447 266.680944 
L 232.219142 266.680944 
L 232.298679 265.006115 
L 232.367076 265.006115 
L 232.367076 264.587407 
L 232.621806 264.587407 
L 232.695069 262.493871 
L 232.757667 262.493871 
L 232.86006 261.656456 
L 232.887909 261.656456 
L 232.996902 260.819041 
L 233.011116 260.819041 
L 233.103998 259.562919 
L 233.247024 259.562919 
L 233.2785 258.725505 
L 233.479791 258.725505 
L 233.510246 257.88809 
L 233.767858 257.88809 
L 233.767858 257.469383 
L 234.003326 257.469383 
L 234.092832 254.957139 
L 234.130993 254.957139 
L 234.236406 254.119724 
L 234.334951 254.119724 
L 234.440483 252.026187 
L 234.550976 252.026187 
L 234.613665 250.770065 
L 234.742859 250.770065 
L 234.781272 249.513943 
L 234.87279 249.513943 
L 234.970516 248.257821 
L 235.063085 248.257821 
L 235.171487 246.164285 
L 235.361106 246.164285 
L 235.446443 244.070748 
L 235.512544 244.070748 
L 235.622807 242.395919 
L 235.657769 242.395919 
L 235.766259 240.721089 
L 235.819331 240.721089 
L 235.920991 238.208845 
L 235.977575 238.208845 
L 236.072284 236.952723 
L 236.113686 236.952723 
L 236.158455 235.277894 
L 236.231165 235.277894 
L 236.326391 233.184357 
L 236.388221 233.184357 
L 236.498408 231.090821 
L 236.503576 231.090821 
L 236.589613 228.578577 
L 236.621756 228.578577 
L 236.72774 225.647625 
L 236.7547 225.647625 
L 236.80915 223.972796 
L 236.879165 223.972796 
L 236.955396 221.879259 
L 237.074099 221.879259 
L 237.172199 219.367015 
L 237.191856 219.367015 
L 237.246986 217.692186 
L 237.360549 217.692186 
L 237.438868 213.92382 
L 237.47383 213.92382 
L 237.582447 212.248991 
L 237.634648 212.248991 
L 237.735351 209.318039 
L 237.854429 209.318039 
L 237.962195 204.712259 
L 238.071678 204.712259 
L 238.161475 199.687771 
L 238.216046 199.687771 
L 238.253895 198.431649 
L 238.335027 198.431649 
L 238.444285 196.338112 
L 238.458959 196.338112 
L 238.560044 193.40716 
L 238.574209 193.40716 
L 238.649321 190.476209 
L 238.716954 190.476209 
L 238.794031 188.80138 
L 238.833379 188.80138 
L 238.93265 184.195599 
L 238.960444 184.195599 
L 239.056942 181.264648 
L 239.076868 181.264648 
L 239.176737 177.496282 
L 239.309189 177.496282 
L 239.41554 174.984038 
L 239.445927 174.984038 
L 239.554845 172.890501 
L 239.561859 172.890501 
L 239.652576 169.95955 
L 239.689865 169.95955 
L 239.785116 166.609891 
L 239.807951 166.609891 
L 239.900168 163.67894 
L 239.931284 163.67894 
L 240.038329 159.491866 
L 240.043434 159.491866 
L 240.086948 158.235744 
L 240.158941 158.235744 
L 240.265174 156.560915 
L 240.274406 156.560915 
L 240.380936 153.629964 
L 240.417356 153.629964 
L 240.511669 151.11772 
L 240.537628 151.11772 
L 240.634868 147.349354 
L 240.64921 147.349354 
L 240.755554 145.255817 
L 240.765635 145.255817 
L 240.871978 142.324866 
L 240.896655 142.324866 
L 240.995341 138.5565 
L 241.028031 138.5565 
L 241.136567 135.206841 
L 241.147823 135.206841 
L 241.235922 133.532012 
L 241.274108 133.532012 
L 241.380452 128.926231 
L 241.402718 128.926231 
L 241.513771 126.832694 
L 241.51554 126.832694 
L 241.61344 123.901743 
L 241.651312 123.901743 
L 241.757655 122.226914 
L 241.776069 122.226914 
L 241.870953 121.389499 
L 241.927453 121.389499 
L 241.997576 117.202426 
L 242.047543 117.202426 
L 242.131735 115.108889 
L 242.175651 115.108889 
L 242.242053 113.852767 
L 242.296504 113.852767 
L 242.380282 111.75923 
L 242.419535 111.75923 
L 242.495851 110.084401 
L 242.539926 110.084401 
L 242.609753 107.572157 
L 242.666811 107.572157 
L 242.747294 104.641206 
L 242.783478 104.641206 
L 242.873055 102.966376 
L 242.913146 102.966376 
L 243.023435 100.87284 
L 243.050687 100.87284 
L 243.15703 98.779303 
L 243.170315 98.779303 
L 243.273149 96.267059 
L 243.316569 96.267059 
L 243.420056 93.754815 
L 243.433163 93.754815 
L 243.534935 91.242571 
L 243.54929 91.242571 
L 243.647757 89.567741 
L 243.676 89.567741 
L 243.766594 86.218083 
L 243.820052 86.218083 
L 243.925598 85.380668 
L 243.955615 85.380668 
L 244.063541 82.868424 
L 244.07204 82.868424 
L 244.143798 80.774887 
L 244.263448 80.774887 
L 244.336081 79.518765 
L 244.385253 79.518765 
L 244.494892 76.169107 
L 244.580513 76.169107 
L 244.681416 73.656863 
L 244.714146 73.656863 
L 244.817632 71.982033 
L 244.881811 71.982033 
L 244.957717 69.888497 
L 245.001778 69.888497 
L 245.112443 67.79496 
L 245.139319 67.79496 
L 245.245663 64.864009 
L 245.302532 64.864009 
L 245.311973 64.026594 
L 245.41546 64.026594 
L 245.506119 62.351765 
L 245.543173 62.351765 
L 245.619596 60.258228 
L 245.668384 60.258228 
L 245.765635 57.745984 
L 245.827815 57.745984 
L 245.912322 56.071155 
L 245.965206 56.071155 
L 246.053699 53.558911 
L 246.12134 53.558911 
L 246.222594 51.884081 
L 246.257575 51.884081 
L 246.361062 50.209252 
L 246.370398 50.209252 
L 246.473885 48.95313 
L 246.510019 48.95313 
L 246.579554 48.115715 
L 246.685916 48.115715 
L 246.694165 46.859593 
L 246.831706 46.859593 
L 246.93805 44.766057 
L 246.952173 44.766057 
L 246.974051 43.928642 
L 247.071087 43.928642 
L 247.107847 42.67252 
L 247.196111 42.67252 
L 247.301993 41.416398 
L 247.387003 41.416398 
L 247.474393 40.160276 
L 247.499118 40.160276 
L 247.589596 38.904154 
L 247.631805 38.904154 
L 247.69349 37.229325 
L 247.863061 37.229325 
L 247.863061 36.810617 
L 248.025172 36.810617 
L 248.128659 35.554495 
L 248.160948 35.554495 
L 248.256486 33.460959 
L 248.342237 33.460959 
L 248.445724 32.623544 
L 248.456072 32.623544 
L 248.456072 32.204837 
L 248.614517 32.204837 
L 248.614517 31.786129 
L 248.72734 31.786129 
L 248.741648 30.948715 
L 248.873385 30.948715 
L 248.978487 30.1113 
L 249.058713 30.1113 
L 249.058713 29.692593 
L 249.252677 29.692593 
L 249.324192 28.855178 
L 249.703368 28.855178 
L 249.703368 28.017763 
L 249.821046 28.017763 
L 249.88526 27.180349 
L 250.138111 27.180349 
L 250.138111 26.761641 
L 250.382114 26.761641 
L 250.408302 25.924227 
L 250.699179 25.924227 
L 250.701826 25.086812 
L 251.130302 25.086812 
L 251.212555 24.249397 
L 251.431652 24.249397 
L 251.457645 22.993275 
L 251.754467 22.993275 
L 251.754467 22.155861 
L 252.273976 22.155861 
L 252.273976 21.737153 
L 252.741434 21.737153 
L 252.741434 21.318446 
L 252.853642 21.318446 
L 252.958285 20.481031 
L 252.99084 20.481031 
L 252.995976 19.643617 
L 253.263654 19.643617 
L 253.327964 18.806202 
L 253.482751 18.806202 
L 253.482751 17.968787 
L 253.60946 17.968787 
L 253.60946 17.55008 
L 254.719316 17.55008 
L 254.719316 17.131373 
L 254.89325 17.131373 
L 254.89325 16.712665 
L 255.041939 16.712665 
L 255.041939 16.293958 
L 255.475135 16.293958 
L 255.475135 15.875251 
L 255.601044 15.875251 
L 255.601044 15.456543 
L 256.012138 15.456543 
L 256.012138 15.037836 
L 256.734138 15.037836 
L 256.758924 14.200421 
L 257.3712 14.200421 
L 257.3712 13.781714 
L 258.063237 13.781714 
L 258.063237 13.363007 
L 258.457478 13.363007 
L 258.457478 12.944299 
L 258.785237 12.944299 
L 258.785237 12.525592 
L 259.213297 12.525592 
L 259.213297 12.106885 
L 260.497086 12.106885 
L 260.508577 11.26947 
L 260.669595 11.26947 
L 260.669595 10.432055 
L 261.264396 10.432055 
L 261.264396 10.013348 
L 262.178782 10.013348 
L 262.178782 9.594641 
L 262.397879 9.594641 
L 262.397879 8.757226 
L 262.548185 8.757226 
L 262.548185 8.338519 
L 263.957067 8.338519 
L 263.957067 7.919811 
L 266.978365 7.919811 
L 266.978365 7.501104 
L 267.700365 7.501104 
L 267.700365 7.082397 
L 269.423705 7.082397 
L 269.423705 6.663689 
L 270.179524 6.663689 
L 270.179524 6.244982 
L 271.463313 6.244982 
L 271.463313 5.826275 
L 453.192 5.826275 
L 453.192 5.826275 
" clip-path="url(#p80f87bf1dd)" style="fill: none; stroke: #ff0000; stroke-width: 3; stroke-linecap: square"/>
   </g>
   <g id="line2d_50">
    <path clip-path="url(#p80f87bf1dd)" style="fill: none; stroke: #ff0000; stroke-width: 3; stroke-linecap: square"/>
   </g>
   <g id="line2d_51">
    <path d="M 243.676 291.28 
L 243.676 3 
" clip-path="url(#p80f87bf1dd)" style="fill: none; stroke: #000000; stroke-width: 1.5; stroke-linecap: square"/>
   </g>
   <g id="line2d_52">
    <path d="M 34.16 147.14 
L 453.192 147.14 
" clip-path="url(#p80f87bf1dd)" style="fill: none; stroke-dasharray: 2,3.3; stroke-dashoffset: 0; stroke: #000000; stroke-width: 2"/>
   </g>
   <g id="patch_3">
    <path d="M 34.16 291.28 
L 34.16 3 
" style="fill: none; stroke: #000000; stroke-width: 0.8; stroke-linejoin: miter; stroke-linecap: square"/>
   </g>
   <g id="patch_4">
    <path d="M 453.192 291.28 
L 453.192 3 
" style="fill: none; stroke: #000000; stroke-width: 0.8; stroke-linejoin: miter; stroke-linecap: square"/>
   </g>
   <g id="patch_5">
    <path d="M 34.16 291.28 
L 453.192 291.28 
" style="fill: none; stroke: #000000; stroke-width: 0.8; stroke-linejoin: miter; stroke-linecap: square"/>
   </g>
   <g id="patch_6">
    <path d="M 34.16 3 
L 453.192 3 
" style="fill: none; stroke: #000000; stroke-width: 0.8; stroke-linejoin: miter; stroke-linecap: square"/>
   </g>
   <g id="text_6">
    <!-- f1-f5,20-D -->
    <g transform="translate(343.64261 285.5144)scale(0.2 -0.2)">
     <defs>
      <path id="DejaVuSans-35" d="M 691 4666 
L 3169 4666 
L 3169 4134 
L 1269 4134 
L 1269 2991 
Q 1406 3038 1543 3061 
Q 1681 3084 1819 3084 
Q 2600 3084 3056 2656 
Q 3513 2228 3513 1497 
Q 3513 744 3044 326 
Q 2575 -91 1722 -91 
Q 1428 -91 1123 -41 
Q 819 9 494 109 
L 494 744 
Q 775 591 1075 516 
Q 1375 441 1709 441 
Q 2250 441 2565 725 
Q 2881 1009 2881 1497 
Q 2881 1984 2565 2268 
Q 2250 2553 1709 2553 
Q 1456 2553 1204 2497 
Q 953 2441 691 2322 
L 691 4666 
z
" transform="scale(0.015625)"/>
      <path id="DejaVuSans-2c" d="M 750 794 
L 1409 794 
L 1409 256 
L 897 -744 
L 494 -744 
L 750 256 
L 750 794 
z
" transform="scale(0.015625)"/>
      <path id="DejaVuSans-32" d="M 1228 531 
L 3431 531 
L 3431 0 
L 469 0 
L 469 531 
Q 828 903 1448 1529 
Q 2069 2156 2228 2338 
Q 2531 2678 2651 2914 
Q 2772 3150 2772 3378 
Q 2772 3750 2511 3984 
Q 2250 4219 1831 4219 
Q 1534 4219 1204 4116 
Q 875 4013 500 3803 
L 500 4441 
Q 881 4594 1212 4672 
Q 1544 4750 1819 4750 
Q 2544 4750 2975 4387 
Q 3406 4025 3406 3419 
Q 3406 3131 3298 2873 
Q 3191 2616 2906 2266 
Q 2828 2175 2409 1742 
Q 1991 1309 1228 531 
z
" transform="scale(0.015625)"/>
      <path id="DejaVuSans-44" d="M 1259 4147 
L 1259 519 
L 2022 519 
Q 2988 519 3436 956 
Q 3884 1394 3884 2338 
Q 3884 3275 3436 3711 
Q 2988 4147 2022 4147 
L 1259 4147 
z
M 628 4666 
L 1925 4666 
Q 3281 4666 3915 4102 
Q 4550 3538 4550 2338 
Q 4550 1131 3912 565 
Q 3275 0 1925 0 
L 628 0 
L 628 4666 
z
" transform="scale(0.015625)"/>
     </defs>
     <use xlink:href="#DejaVuSans-66"/>
     <use xlink:href="#DejaVuSans-31" x="35.205078"/>
     <use xlink:href="#DejaVuSans-2d" x="98.828125"/>
     <use xlink:href="#DejaVuSans-66" x="134.912109"/>
     <use xlink:href="#DejaVuSans-35" x="170.117188"/>
     <use xlink:href="#DejaVuSans-2c" x="233.740234"/>
     <use xlink:href="#DejaVuSans-32" x="265.527344"/>
     <use xlink:href="#DejaVuSans-30" x="329.150391"/>
     <use xlink:href="#DejaVuSans-2d" x="392.773438"/>
     <use xlink:href="#DejaVuSans-44" x="428.857422"/>
    </g>
   </g>
   <g id="text_7">
    <!-- v2.6.3 -->
    <g style="fill: #808080" transform="translate(227.99475 286.317512)scale(0.1 -0.1)">
     <defs>
      <path id="DejaVuSans-2e" d="M 684 794 
L 1344 794 
L 1344 0 
L 684 0 
L 684 794 
z
" transform="scale(0.015625)"/>
      <path id="DejaVuSans-36" d="M 2113 2584 
Q 1688 2584 1439 2293 
Q 1191 2003 1191 1497 
Q 1191 994 1439 701 
Q 1688 409 2113 409 
Q 2538 409 2786 701 
Q 3034 994 3034 1497 
Q 3034 2003 2786 2293 
Q 2538 2584 2113 2584 
z
M 3366 4563 
L 3366 3988 
Q 3128 4100 2886 4159 
Q 2644 4219 2406 4219 
Q 1781 4219 1451 3797 
Q 1122 3375 1075 2522 
Q 1259 2794 1537 2939 
Q 1816 3084 2150 3084 
Q 2853 3084 3261 2657 
Q 3669 2231 3669 1497 
Q 3669 778 3244 343 
Q 2819 -91 2113 -91 
Q 1303 -91 875 529 
Q 447 1150 447 2328 
Q 447 3434 972 4092 
Q 1497 4750 2381 4750 
Q 2619 4750 2861 4703 
Q 3103 4656 3366 4563 
z
" transform="scale(0.015625)"/>
      <path id="DejaVuSans-33" d="M 2597 2516 
Q 3050 2419 3304 2112 
Q 3559 1806 3559 1356 
Q 3559 666 3084 287 
Q 2609 -91 1734 -91 
Q 1441 -91 1130 -33 
Q 819 25 488 141 
L 488 750 
Q 750 597 1062 519 
Q 1375 441 1716 441 
Q 2309 441 2620 675 
Q 2931 909 2931 1356 
Q 2931 1769 2642 2001 
Q 2353 2234 1838 2234 
L 1294 2234 
L 1294 2753 
L 1863 2753 
Q 2328 2753 2575 2939 
Q 2822 3125 2822 3475 
Q 2822 3834 2567 4026 
Q 2313 4219 1838 4219 
Q 1578 4219 1281 4162 
Q 984 4106 628 3988 
L 628 4550 
Q 988 4650 1302 4700 
Q 1616 4750 1894 4750 
Q 2613 4750 3031 4423 
Q 3450 4097 3450 3541 
Q 3450 3153 3228 2886 
Q 3006 2619 2597 2516 
z
" transform="scale(0.015625)"/>
     </defs>
     <use xlink:href="#DejaVuSans-76"/>
     <use xlink:href="#DejaVuSans-32" x="59.179688"/>
     <use xlink:href="#DejaVuSans-2e" x="122.802734"/>
     <use xlink:href="#DejaVuSans-36" x="154.589844"/>
     <use xlink:href="#DejaVuSans-2e" x="218.212891"/>
     <use xlink:href="#DejaVuSans-33" x="250"/>
    </g>
   </g>
   <g id="legend_1">
    <g id="patch_7">
     <path d="M 309.970125 136.425 
L 439.192 136.425 
Q 443.192 136.425 443.192 132.425 
L 443.192 17 
Q 443.192 13 439.192 13 
L 309.970125 13 
Q 305.970125 13 305.970125 17 
L 305.970125 132.425 
Q 305.970125 136.425 309.970125 136.425 
z
" style="fill: #ffffff; opacity: 0.2; stroke: #cccccc; stroke-linejoin: miter"/>
    </g>
    <g id="line2d_53">
     <path d="M 313.970125 29.196875 
L 333.970125 29.196875 
L 353.970125 29.196875 
" style="fill: none; stroke: #000000; stroke-width: 3; stroke-linecap: square"/>
    </g>
    <g id="text_8">
     <!-- 1: 4/4 -->
     <g transform="translate(369.970125 36.196875)scale(0.2 -0.2)">
      <defs>
       <path id="DejaVuSans-3a" d="M 750 794 
L 1409 794 
L 1409 0 
L 750 0 
L 750 794 
z
M 750 3309 
L 1409 3309 
L 1409 2516 
L 750 2516 
L 750 3309 
z
" transform="scale(0.015625)"/>
       <path id="DejaVuSans-34" d="M 2419 4116 
L 825 1625 
L 2419 1625 
L 2419 4116 
z
M 2253 4666 
L 3047 4666 
L 3047 1625 
L 3713 1625 
L 3713 1100 
L 3047 1100 
L 3047 0 
L 2419 0 
L 2419 1100 
L 313 1100 
L 313 1709 
L 2253 4666 
z
" transform="scale(0.015625)"/>
       <path id="DejaVuSans-2f" d="M 1625 4666 
L 2156 4666 
L 531 -594 
L 0 -594 
L 1625 4666 
z
" transform="scale(0.015625)"/>
      </defs>
      <use xlink:href="#DejaVuSans-31"/>
      <use xlink:href="#DejaVuSans-3a" x="63.623047"/>
      <use xlink:href="#DejaVuSans-20" x="97.314453"/>
      <use xlink:href="#DejaVuSans-34" x="129.101562"/>
      <use xlink:href="#DejaVuSans-2f" x="192.724609"/>
      <use xlink:href="#DejaVuSans-34" x="226.416016"/>
     </g>
    </g>
    <g id="line2d_54">
     <path d="M 313.970125 58.553125 
L 333.970125 58.553125 
L 353.970125 58.553125 
" style="fill: none; stroke: #00bfbf; stroke-width: 3; stroke-linecap: square"/>
    </g>
    <g id="text_9">
     <!-- -1: 3/3 -->
     <g transform="translate(369.970125 65.553125)scale(0.2 -0.2)">
      <use xlink:href="#DejaVuSans-2d"/>
      <use xlink:href="#DejaVuSans-31" x="36.083984"/>
      <use xlink:href="#DejaVuSans-3a" x="99.707031"/>
      <use xlink:href="#DejaVuSans-20" x="133.398438"/>
      <use xlink:href="#DejaVuSans-33" x="165.185547"/>
      <use xlink:href="#DejaVuSans-2f" x="228.808594"/>
      <use xlink:href="#DejaVuSans-33" x="262.5"/>
     </g>
    </g>
    <g id="line2d_55">
     <path d="M 313.970125 87.909375 
L 333.970125 87.909375 
L 353.970125 87.909375 
" style="fill: none; stroke: #bf00bf; stroke-width: 3; stroke-linecap: square"/>
    </g>
    <g id="text_10">
     <!-- -4: 3/3 -->
     <g transform="translate(369.970125 94.909375)scale(0.2 -0.2)">
      <use xlink:href="#DejaVuSans-2d"/>
      <use xlink:href="#DejaVuSans-34" x="36.083984"/>
      <use xlink:href="#DejaVuSans-3a" x="99.707031"/>
      <use xlink:href="#DejaVuSans-20" x="133.398438"/>
      <use xlink:href="#DejaVuSans-33" x="165.185547"/>
      <use xlink:href="#DejaVuSans-2f" x="228.808594"/>
      <use xlink:href="#DejaVuSans-33" x="262.5"/>
     </g>
    </g>
    <g id="line2d_56">
     <path d="M 313.970125 117.265625 
L 333.970125 117.265625 
L 353.970125 117.265625 
" style="fill: none; stroke: #ff0000; stroke-width: 3; stroke-linecap: square"/>
    </g>
    <g id="text_11">
     <!-- -8: 3/3 -->
     <g transform="translate(369.970125 124.265625)scale(0.2 -0.2)">
      <defs>
       <path id="DejaVuSans-38" d="M 2034 2216 
Q 1584 2216 1326 1975 
Q 1069 1734 1069 1313 
Q 1069 891 1326 650 
Q 1584 409 2034 409 
Q 2484 409 2743 651 
Q 3003 894 3003 1313 
Q 3003 1734 2745 1975 
Q 2488 2216 2034 2216 
z
M 1403 2484 
Q 997 2584 770 2862 
Q 544 3141 544 3541 
Q 544 4100 942 4425 
Q 1341 4750 2034 4750 
Q 2731 4750 3128 4425 
Q 3525 4100 3525 3541 
Q 3525 3141 3298 2862 
Q 3072 2584 2669 2484 
Q 3125 2378 3379 2068 
Q 3634 1759 3634 1313 
Q 3634 634 3220 271 
Q 2806 -91 2034 -91 
Q 1263 -91 848 271 
Q 434 634 434 1313 
Q 434 1759 690 2068 
Q 947 2378 1403 2484 
z
M 1172 3481 
Q 1172 3119 1398 2916 
Q 1625 2713 2034 2713 
Q 2441 2713 2670 2916 
Q 2900 3119 2900 3481 
Q 2900 3844 2670 4047 
Q 2441 4250 2034 4250 
Q 1625 4250 1398 4047 
Q 1172 3844 1172 3481 
z
" transform="scale(0.015625)"/>
      </defs>
      <use xlink:href="#DejaVuSans-2d"/>
      <use xlink:href="#DejaVuSans-38" x="36.083984"/>
      <use xlink:href="#DejaVuSans-3a" x="99.707031"/>
      <use xlink:href="#DejaVuSans-20" x="133.398438"/>
      <use xlink:href="#DejaVuSans-33" x="165.185547"/>
      <use xlink:href="#DejaVuSans-2f" x="228.808594"/>
      <use xlink:href="#DejaVuSans-33" x="262.5"/>
     </g>
    </g>
   </g>
  </g>
 </g>
 <defs>
  <clipPath id="p80f87bf1dd">
   <rect x="34.16" y="3" width="419.032" height="288.28"/>
  </clipPath>
 </defs>
</svg>
