<?xml version="1.0" encoding="utf-8" standalone="no"?>
<!DOCTYPE svg PUBLIC "-//W3C//DTD SVG 1.1//EN"
  "http://www.w3.org/Graphics/SVG/1.1/DTD/svg11.dtd">
<svg xmlns:xlink="http://www.w3.org/1999/xlink" width="460.8pt" height="345.6pt" viewBox="0 0 460.8 345.6" xmlns="http://www.w3.org/2000/svg" version="1.1">
 <metadata>
  <rdf:RDF xmlns:dc="http://purl.org/dc/elements/1.1/" xmlns:cc="http://creativecommons.org/ns#" xmlns:rdf="http://www.w3.org/1999/02/22-rdf-syntax-ns#">
   <cc:Work>
    <dc:type rdf:resource="http://purl.org/dc/dcmitype/StillImage"/>
    <dc:date>2023-04-06T08:57:12.746096</dc:date>
    <dc:format>image/svg+xml</dc:format>
    <dc:creator>
     <cc:Agent>
      <dc:title>Matplotlib v3.5.2, https://matplotlib.org/</dc:title>
     </cc:Agent>
    </dc:creator>
   </cc:Work>
  </rdf:RDF>
 </metadata>
 <defs>
  <style type="text/css">*{stroke-linejoin: round; stroke-linecap: butt}</style>
 </defs>
 <g id="figure_1">
  <g id="patch_1">
   <path d="M 0 345.6 
L 460.8 345.6 
L 460.8 0 
L 0 0 
z
" style="fill: #ffffff"/>
  </g>
  <g id="axes_1">
   <g id="patch_2">
    <path d="M 62.208 293.76 
L 460.8 293.76 
L 460.8 3.456 
L 62.208 3.456 
z
" style="fill: #ffffff"/>
   </g>
   <g id="line2d_1"/>
   <g id="line2d_2"/>
   <g id="line2d_3"/>
   <g id="line2d_4"/>
   <g id="line2d_5"/>
   <g id="line2d_6"/>
   <g id="line2d_7"/>
   <g id="line2d_8"/>
   <g id="line2d_9">
    <path d="M 305.014312 293.76 
L 305.014312 289.927604 
L 320.462604 289.927604 
L 320.462604 286.095208 
L 325.664379 286.095208 
L 325.664379 282.262812 
L 326.362284 282.262812 
L 326.362284 278.430416 
L 326.863889 278.430416 
L 326.863889 274.59802 
L 327.119451 274.59802 
L 327.119451 270.765624 
L 327.567504 270.765624 
L 327.567504 266.933228 
L 328.466698 266.933228 
L 328.505016 259.268436 
L 329.465211 259.268436 
L 329.465211 255.43604 
L 330.2137 255.43604 
L 330.2137 251.603644 
L 330.492031 251.603644 
L 330.492031 247.771248 
L 330.733923 247.771248 
L 330.733923 243.938851 
L 330.981076 243.938851 
L 330.981076 240.106455 
L 331.317262 240.106455 
L 331.361163 232.441663 
L 331.476583 232.441663 
L 331.476583 228.609267 
L 332.689135 228.609267 
L 332.689135 224.776871 
L 332.953718 224.776871 
L 332.953718 220.944475 
L 343.183565 220.944475 
L 343.183565 217.112079 
L 345.428199 217.112079 
L 345.428199 213.279683 
L 347.742477 213.279683 
L 347.742477 209.447287 
L 349.59216 209.447287 
L 349.59216 205.614891 
L 350.902025 205.614891 
L 350.902025 201.782495 
L 351.291923 201.782495 
L 351.291923 197.950099 
L 352.703131 197.950099 
L 352.703131 194.117703 
L 353.422745 194.117703 
L 353.43886 186.452911 
L 354.676495 186.452911 
L 354.676495 182.620515 
L 355.112162 182.620515 
L 355.112162 178.788119 
L 355.434984 178.788119 
L 355.434984 174.955723 
L 355.569049 174.955723 
L 355.569049 171.123327 
L 355.883002 171.123327 
L 355.883002 167.290931 
L 356.000688 167.290931 
L 356.000688 163.458535 
L 356.619934 163.458535 
L 356.619934 159.626139 
L 357.306786 159.626139 
L 357.306786 155.793743 
L 357.976263 155.793743 
L 357.976263 151.961347 
L 358.263974 151.961347 
L 358.263974 148.12895 
L 359.225423 148.12895 
L 359.225423 144.296554 
L 360.875167 144.296554 
L 360.875167 140.464158 
L 363.985732 140.464158 
L 363.985732 136.631762 
L 364.118611 136.631762 
L 364.188231 128.96697 
L 364.45713 128.96697 
L 364.45713 125.134574 
L 364.602058 125.134574 
L 364.686837 117.469782 
L 365.480783 117.469782 
L 365.500121 109.80499 
L 369.078321 109.80499 
L 369.078321 105.972594 
L 369.32102 105.972594 
L 369.32102 102.140198 
L 370.876817 102.140198 
L 370.946122 94.475406 
L 371.500061 94.475406 
L 371.500061 90.64301 
L 375.768321 90.64301 
L 375.768321 86.810614 
L 381.902877 86.810614 
L 381.902877 82.978218 
L 382.681098 82.978218 
L 382.681098 79.145822 
L 383.346519 79.145822 
L 383.346519 75.313426 
L 383.515418 75.313426 
L 383.515418 71.48103 
L 385.115919 71.48103 
L 385.115919 67.648634 
L 386.346097 67.648634 
L 386.346097 63.816238 
L 441.259529 63.816238 
L 441.259529 59.983842 
L 444.612613 59.983842 
L 444.612613 56.151446 
L 448.636261 56.151446 
L 448.636261 52.31905 
L 451.692899 52.31905 
L 451.692899 48.486653 
L 456.353877 48.486653 
L 456.353877 44.654257 
L 458.91402 44.654257 
L 458.91402 40.821861 
L 460.118769 40.821861 
L 460.118769 36.989465 
L 460.230672 36.989465 
L 460.29228 29.324673 
L 460.666407 29.324673 
L 460.666407 25.492277 
L 461.8 25.492277 
L 461.8 25.492277 
" clip-path="url(#pc7a40a96e4)" style="fill: none; stroke: #f5deb3; stroke-width: 1.5; stroke-linecap: square"/>
   </g>
   <g id="line2d_10"/>
   <g id="line2d_11"/>
   <g id="line2d_12"/>
   <g id="line2d_13"/>
   <g id="line2d_14"/>
   <g id="line2d_15"/>
   <g id="line2d_16"/>
   <g id="line2d_17"/>
   <g id="line2d_18"/>
   <g id="line2d_19"/>
   <g id="line2d_20"/>
   <g id="line2d_21"/>
   <g id="line2d_22"/>
   <g id="line2d_23"/>
   <g id="line2d_24">
    <path d="M 316.673283 293.76 
L 316.673283 289.927604 
L 319.157606 289.927604 
L 319.189665 282.262812 
L 352.320424 282.262812 
L 352.425554 274.59802 
L 354.924236 274.59802 
L 354.924236 270.765624 
L 355.483892 270.765624 
L 355.483892 266.933228 
L 355.75177 266.933228 
L 355.75177 263.100832 
L 358.002717 263.100832 
L 358.002717 259.268436 
L 360.393669 259.268436 
L 360.393669 255.43604 
L 360.537483 255.43604 
L 360.537483 251.603644 
L 373.058656 251.603644 
L 373.058656 247.771248 
L 374.72911 247.771248 
L 374.72911 243.938851 
L 375.132076 243.938851 
L 375.132076 240.106455 
L 375.451334 240.106455 
L 375.451334 236.274059 
L 375.666144 236.274059 
L 375.666144 232.441663 
L 376.184917 232.441663 
L 376.254929 224.776871 
L 376.492204 224.776871 
L 376.492204 220.944475 
L 377.149286 220.944475 
L 377.217472 213.279683 
L 377.507404 213.279683 
L 377.507404 209.447287 
L 377.864236 209.447287 
L 377.864236 205.614891 
L 378.264337 205.614891 
L 378.264337 201.782495 
L 378.817639 201.782495 
L 378.817639 197.950099 
L 379.072022 197.950099 
L 379.103244 190.285307 
L 379.545199 190.285307 
L 379.545199 186.452911 
L 379.842118 186.452911 
L 379.950267 178.788119 
L 380.289942 178.788119 
L 380.289942 174.955723 
L 380.84451 174.955723 
L 380.913265 167.290931 
L 381.288015 167.290931 
L 381.288015 163.458535 
L 381.750954 163.458535 
L 381.757542 155.793743 
L 382.246034 155.793743 
L 382.246034 151.961347 
L 382.458254 151.961347 
L 382.458254 148.12895 
L 382.616564 148.12895 
L 382.724064 140.464158 
L 382.931768 140.464158 
L 382.998019 132.799366 
L 383.37597 132.799366 
L 383.416159 125.134574 
L 387.17216 125.134574 
L 387.17216 121.302178 
L 388.825514 121.302178 
L 388.825514 117.469782 
L 388.995126 117.469782 
L 388.995126 113.637386 
L 390.183589 113.637386 
L 390.183589 109.80499 
L 401.194552 109.80499 
L 401.194552 105.972594 
L 401.763341 105.972594 
L 401.763341 102.140198 
L 402.19915 102.140198 
L 402.19915 98.307802 
L 406.44703 98.307802 
L 406.44703 94.475406 
L 407.900076 94.475406 
L 407.900076 90.64301 
L 408.614373 90.64301 
L 408.614373 86.810614 
L 409.10657 86.810614 
L 409.10657 82.978218 
L 410.152507 82.978218 
L 410.152507 79.145822 
L 425.307516 79.145822 
L 425.307516 75.313426 
L 425.757239 75.313426 
L 425.757239 71.48103 
L 426.357654 71.48103 
L 426.357654 67.648634 
L 426.883454 67.648634 
L 426.883454 63.816238 
L 461.8 63.816238 
L 461.8 63.816238 
" clip-path="url(#pc7a40a96e4)" style="fill: none; stroke: #f5deb3; stroke-width: 1.5; stroke-linecap: square"/>
   </g>
   <g id="line2d_25">
    <path d="M 369.800809 293.76 
L 369.800809 289.927604 
L 370.25928 289.927604 
L 370.25928 286.095208 
L 370.485582 286.095208 
L 370.485582 282.262812 
L 370.794711 282.262812 
L 370.794711 278.430416 
L 371.325948 278.430416 
L 371.325948 274.59802 
L 371.73928 274.59802 
L 371.73928 270.765624 
L 371.73928 270.765624 
L 371.73928 270.765624 
L 460.8 270.765624 
" clip-path="url(#pc7a40a96e4)" style="fill: none; stroke: #f5deb3; stroke-width: 1.5; stroke-linecap: square"/>
   </g>
   <g id="line2d_26">
    <path d="M 399.587366 293.76 
L 399.587366 289.927604 
L 411.536902 289.927604 
L 411.536902 286.095208 
L 411.536902 286.095208 
L 411.536902 286.095208 
L 460.8 286.095208 
" clip-path="url(#pc7a40a96e4)" style="fill: none; stroke: #f5deb3; stroke-width: 1.5; stroke-linecap: square"/>
   </g>
   <g id="line2d_27"/>
   <g id="line2d_28">
    <path d="M 390.877423 293.76 
L 390.877423 289.927604 
L 392.142474 289.927604 
L 392.142474 286.095208 
L 414.073136 286.095208 
L 414.073136 282.262812 
L 414.345768 282.262812 
L 414.345768 278.430416 
L 414.630417 278.430416 
L 414.630417 274.59802 
L 414.718237 274.59802 
L 414.718237 270.765624 
L 415.988087 270.765624 
L 415.988087 266.933228 
L 416.162259 266.933228 
L 416.162259 263.100832 
L 416.723881 263.100832 
L 416.723881 259.268436 
L 416.78919 259.268436 
L 416.78919 255.43604 
L 416.961154 255.43604 
L 416.961154 251.603644 
L 416.996803 251.603644 
L 416.996803 247.771248 
L 417.169787 247.771248 
L 417.169787 243.938851 
L 417.171537 243.938851 
L 417.171537 240.106455 
L 417.570443 240.106455 
L 417.570443 236.274059 
L 418.242798 236.274059 
L 418.242798 232.441663 
L 418.321296 232.441663 
L 418.321296 228.609267 
L 418.456332 228.609267 
L 418.456332 224.776871 
L 418.882426 224.776871 
L 418.882426 220.944475 
L 419.12358 220.944475 
L 419.12358 217.112079 
L 419.427854 217.112079 
L 419.427854 213.279683 
L 419.490706 213.279683 
L 419.490706 209.447287 
L 419.522951 209.447287 
L 419.522951 205.614891 
L 419.677743 205.614891 
L 419.677743 201.782495 
L 419.764523 201.782495 
L 419.764523 197.950099 
L 419.814022 197.950099 
L 419.814022 194.117703 
L 420.251368 194.117703 
L 420.251368 190.285307 
L 420.400576 190.285307 
L 420.400576 186.452911 
L 420.524448 186.452911 
L 420.524448 182.620515 
L 420.662761 182.620515 
L 420.662761 178.788119 
L 421.188806 178.788119 
L 421.188806 174.955723 
L 421.209867 174.955723 
L 421.209867 171.123327 
L 422.783371 171.123327 
L 422.783371 167.290931 
L 423.019146 167.290931 
L 423.019146 163.458535 
L 423.298353 163.458535 
L 423.298353 159.626139 
L 423.889367 159.626139 
L 423.889367 155.793743 
L 424.091522 155.793743 
L 424.091522 151.961347 
L 424.208393 151.961347 
L 424.208393 148.12895 
L 424.321448 148.12895 
L 424.321448 144.296554 
L 424.568617 144.296554 
L 424.568617 140.464158 
L 425.457035 140.464158 
L 425.457035 136.631762 
L 426.108896 136.631762 
L 426.108896 132.799366 
L 426.455005 132.799366 
L 426.455005 128.96697 
L 430.547962 128.96697 
L 430.547962 125.134574 
L 434.068747 125.134574 
L 434.068747 121.302178 
L 441.686317 121.302178 
L 441.686317 117.469782 
L 445.617928 117.469782 
L 445.617928 113.637386 
L 447.089213 113.637386 
L 447.089213 109.80499 
L 447.204508 109.80499 
L 447.204508 105.972594 
L 447.757532 105.972594 
L 447.757532 102.140198 
L 448.062833 102.140198 
L 448.062833 98.307802 
L 448.093109 98.307802 
L 448.093109 94.475406 
L 448.201884 94.475406 
L 448.201884 90.64301 
L 449.231033 90.64301 
L 449.231033 86.810614 
L 458.432702 86.810614 
L 458.432702 82.978218 
L 459.469104 82.978218 
L 459.469104 79.145822 
L 460.630273 79.145822 
L 460.630273 75.313426 
L 461.8 75.313426 
" clip-path="url(#pc7a40a96e4)" style="fill: none; stroke: #f5deb3; stroke-width: 1.5; stroke-linecap: square"/>
   </g>
   <g id="line2d_29"/>
   <g id="line2d_30"/>
   <g id="matplotlib.axis_1">
    <g id="xtick_1">
     <g id="line2d_31">
      <path d="M 62.208 293.76 
L 62.208 3.456 
" clip-path="url(#pc7a40a96e4)" style="fill: none; stroke: #b0b0b0; stroke-width: 0.8; stroke-linecap: square"/>
     </g>
     <g id="line2d_32">
      <defs>
       <path id="m013be18610" d="M 0 0 
L 0 3.5 
" style="stroke: #000000; stroke-width: 0.8"/>
      </defs>
      <g>
       <use xlink:href="#m013be18610" x="62.208" y="293.76" style="stroke: #000000; stroke-width: 0.8"/>
      </g>
     </g>
     <g id="text_1">
      <!-- 0 -->
      <g transform="translate(55.8455 315.956875)scale(0.2 -0.2)">
       <defs>
        <path id="DejaVuSans-30" d="M 2034 4250 
Q 1547 4250 1301 3770 
Q 1056 3291 1056 2328 
Q 1056 1369 1301 889 
Q 1547 409 2034 409 
Q 2525 409 2770 889 
Q 3016 1369 3016 2328 
Q 3016 3291 2770 3770 
Q 2525 4250 2034 4250 
z
M 2034 4750 
Q 2819 4750 3233 4129 
Q 3647 3509 3647 2328 
Q 3647 1150 3233 529 
Q 2819 -91 2034 -91 
Q 1250 -91 836 529 
Q 422 1150 422 2328 
Q 422 3509 836 4129 
Q 1250 4750 2034 4750 
z
" transform="scale(0.015625)"/>
       </defs>
       <use xlink:href="#DejaVuSans-30"/>
      </g>
     </g>
    </g>
    <g id="xtick_2">
     <g id="line2d_33">
      <path d="M 205.41184 293.76 
L 205.41184 3.456 
" clip-path="url(#pc7a40a96e4)" style="fill: none; stroke: #b0b0b0; stroke-width: 0.8; stroke-linecap: square"/>
     </g>
     <g id="line2d_34">
      <g>
       <use xlink:href="#m013be18610" x="205.41184" y="293.76" style="stroke: #000000; stroke-width: 0.8"/>
      </g>
     </g>
     <g id="text_2">
      <!-- 2 -->
      <g transform="translate(199.04934 315.956875)scale(0.2 -0.2)">
       <defs>
        <path id="DejaVuSans-32" d="M 1228 531 
L 3431 531 
L 3431 0 
L 469 0 
L 469 531 
Q 828 903 1448 1529 
Q 2069 2156 2228 2338 
Q 2531 2678 2651 2914 
Q 2772 3150 2772 3378 
Q 2772 3750 2511 3984 
Q 2250 4219 1831 4219 
Q 1534 4219 1204 4116 
Q 875 4013 500 3803 
L 500 4441 
Q 881 4594 1212 4672 
Q 1544 4750 1819 4750 
Q 2544 4750 2975 4387 
Q 3406 4025 3406 3419 
Q 3406 3131 3298 2873 
Q 3191 2616 2906 2266 
Q 2828 2175 2409 1742 
Q 1991 1309 1228 531 
z
" transform="scale(0.015625)"/>
       </defs>
       <use xlink:href="#DejaVuSans-32"/>
      </g>
     </g>
    </g>
    <g id="xtick_3">
     <g id="line2d_35">
      <path d="M 348.615681 293.76 
L 348.615681 3.456 
" clip-path="url(#pc7a40a96e4)" style="fill: none; stroke: #b0b0b0; stroke-width: 0.8; stroke-linecap: square"/>
     </g>
     <g id="line2d_36">
      <g>
       <use xlink:href="#m013be18610" x="348.615681" y="293.76" style="stroke: #000000; stroke-width: 0.8"/>
      </g>
     </g>
     <g id="text_3">
      <!-- 4 -->
      <g transform="translate(342.253181 315.956875)scale(0.2 -0.2)">
       <defs>
        <path id="DejaVuSans-34" d="M 2419 4116 
L 825 1625 
L 2419 1625 
L 2419 4116 
z
M 2253 4666 
L 3047 4666 
L 3047 1625 
L 3713 1625 
L 3713 1100 
L 3047 1100 
L 3047 0 
L 2419 0 
L 2419 1100 
L 313 1100 
L 313 1709 
L 2253 4666 
z
" transform="scale(0.015625)"/>
       </defs>
       <use xlink:href="#DejaVuSans-34"/>
      </g>
     </g>
    </g>
    <g id="text_4">
     <!-- log10 of FEvals / DIM -->
     <g transform="translate(156.430563 339.313125)scale(0.2 -0.2)">
      <defs>
       <path id="DejaVuSans-6c" d="M 603 4863 
L 1178 4863 
L 1178 0 
L 603 0 
L 603 4863 
z
" transform="scale(0.015625)"/>
       <path id="DejaVuSans-6f" d="M 1959 3097 
Q 1497 3097 1228 2736 
Q 959 2375 959 1747 
Q 959 1119 1226 758 
Q 1494 397 1959 397 
Q 2419 397 2687 759 
Q 2956 1122 2956 1747 
Q 2956 2369 2687 2733 
Q 2419 3097 1959 3097 
z
M 1959 3584 
Q 2709 3584 3137 3096 
Q 3566 2609 3566 1747 
Q 3566 888 3137 398 
Q 2709 -91 1959 -91 
Q 1206 -91 779 398 
Q 353 888 353 1747 
Q 353 2609 779 3096 
Q 1206 3584 1959 3584 
z
" transform="scale(0.015625)"/>
       <path id="DejaVuSans-67" d="M 2906 1791 
Q 2906 2416 2648 2759 
Q 2391 3103 1925 3103 
Q 1463 3103 1205 2759 
Q 947 2416 947 1791 
Q 947 1169 1205 825 
Q 1463 481 1925 481 
Q 2391 481 2648 825 
Q 2906 1169 2906 1791 
z
M 3481 434 
Q 3481 -459 3084 -895 
Q 2688 -1331 1869 -1331 
Q 1566 -1331 1297 -1286 
Q 1028 -1241 775 -1147 
L 775 -588 
Q 1028 -725 1275 -790 
Q 1522 -856 1778 -856 
Q 2344 -856 2625 -561 
Q 2906 -266 2906 331 
L 2906 616 
Q 2728 306 2450 153 
Q 2172 0 1784 0 
Q 1141 0 747 490 
Q 353 981 353 1791 
Q 353 2603 747 3093 
Q 1141 3584 1784 3584 
Q 2172 3584 2450 3431 
Q 2728 3278 2906 2969 
L 2906 3500 
L 3481 3500 
L 3481 434 
z
" transform="scale(0.015625)"/>
       <path id="DejaVuSans-31" d="M 794 531 
L 1825 531 
L 1825 4091 
L 703 3866 
L 703 4441 
L 1819 4666 
L 2450 4666 
L 2450 531 
L 3481 531 
L 3481 0 
L 794 0 
L 794 531 
z
" transform="scale(0.015625)"/>
       <path id="DejaVuSans-20" transform="scale(0.015625)"/>
       <path id="DejaVuSans-66" d="M 2375 4863 
L 2375 4384 
L 1825 4384 
Q 1516 4384 1395 4259 
Q 1275 4134 1275 3809 
L 1275 3500 
L 2222 3500 
L 2222 3053 
L 1275 3053 
L 1275 0 
L 697 0 
L 697 3053 
L 147 3053 
L 147 3500 
L 697 3500 
L 697 3744 
Q 697 4328 969 4595 
Q 1241 4863 1831 4863 
L 2375 4863 
z
" transform="scale(0.015625)"/>
       <path id="DejaVuSans-46" d="M 628 4666 
L 3309 4666 
L 3309 4134 
L 1259 4134 
L 1259 2759 
L 3109 2759 
L 3109 2228 
L 1259 2228 
L 1259 0 
L 628 0 
L 628 4666 
z
" transform="scale(0.015625)"/>
       <path id="DejaVuSans-45" d="M 628 4666 
L 3578 4666 
L 3578 4134 
L 1259 4134 
L 1259 2753 
L 3481 2753 
L 3481 2222 
L 1259 2222 
L 1259 531 
L 3634 531 
L 3634 0 
L 628 0 
L 628 4666 
z
" transform="scale(0.015625)"/>
       <path id="DejaVuSans-76" d="M 191 3500 
L 800 3500 
L 1894 563 
L 2988 3500 
L 3597 3500 
L 2284 0 
L 1503 0 
L 191 3500 
z
" transform="scale(0.015625)"/>
       <path id="DejaVuSans-61" d="M 2194 1759 
Q 1497 1759 1228 1600 
Q 959 1441 959 1056 
Q 959 750 1161 570 
Q 1363 391 1709 391 
Q 2188 391 2477 730 
Q 2766 1069 2766 1631 
L 2766 1759 
L 2194 1759 
z
M 3341 1997 
L 3341 0 
L 2766 0 
L 2766 531 
Q 2569 213 2275 61 
Q 1981 -91 1556 -91 
Q 1019 -91 701 211 
Q 384 513 384 1019 
Q 384 1609 779 1909 
Q 1175 2209 1959 2209 
L 2766 2209 
L 2766 2266 
Q 2766 2663 2505 2880 
Q 2244 3097 1772 3097 
Q 1472 3097 1187 3025 
Q 903 2953 641 2809 
L 641 3341 
Q 956 3463 1253 3523 
Q 1550 3584 1831 3584 
Q 2591 3584 2966 3190 
Q 3341 2797 3341 1997 
z
" transform="scale(0.015625)"/>
       <path id="DejaVuSans-73" d="M 2834 3397 
L 2834 2853 
Q 2591 2978 2328 3040 
Q 2066 3103 1784 3103 
Q 1356 3103 1142 2972 
Q 928 2841 928 2578 
Q 928 2378 1081 2264 
Q 1234 2150 1697 2047 
L 1894 2003 
Q 2506 1872 2764 1633 
Q 3022 1394 3022 966 
Q 3022 478 2636 193 
Q 2250 -91 1575 -91 
Q 1294 -91 989 -36 
Q 684 19 347 128 
L 347 722 
Q 666 556 975 473 
Q 1284 391 1588 391 
Q 1994 391 2212 530 
Q 2431 669 2431 922 
Q 2431 1156 2273 1281 
Q 2116 1406 1581 1522 
L 1381 1569 
Q 847 1681 609 1914 
Q 372 2147 372 2553 
Q 372 3047 722 3315 
Q 1072 3584 1716 3584 
Q 2034 3584 2315 3537 
Q 2597 3491 2834 3397 
z
" transform="scale(0.015625)"/>
       <path id="DejaVuSans-2f" d="M 1625 4666 
L 2156 4666 
L 531 -594 
L 0 -594 
L 1625 4666 
z
" transform="scale(0.015625)"/>
       <path id="DejaVuSans-44" d="M 1259 4147 
L 1259 519 
L 2022 519 
Q 2988 519 3436 956 
Q 3884 1394 3884 2338 
Q 3884 3275 3436 3711 
Q 2988 4147 2022 4147 
L 1259 4147 
z
M 628 4666 
L 1925 4666 
Q 3281 4666 3915 4102 
Q 4550 3538 4550 2338 
Q 4550 1131 3912 565 
Q 3275 0 1925 0 
L 628 0 
L 628 4666 
z
" transform="scale(0.015625)"/>
       <path id="DejaVuSans-49" d="M 628 4666 
L 1259 4666 
L 1259 0 
L 628 0 
L 628 4666 
z
" transform="scale(0.015625)"/>
       <path id="DejaVuSans-4d" d="M 628 4666 
L 1569 4666 
L 2759 1491 
L 3956 4666 
L 4897 4666 
L 4897 0 
L 4281 0 
L 4281 4097 
L 3078 897 
L 2444 897 
L 1241 4097 
L 1241 0 
L 628 0 
L 628 4666 
z
" transform="scale(0.015625)"/>
      </defs>
      <use xlink:href="#DejaVuSans-6c"/>
      <use xlink:href="#DejaVuSans-6f" x="27.783203"/>
      <use xlink:href="#DejaVuSans-67" x="88.964844"/>
      <use xlink:href="#DejaVuSans-31" x="152.441406"/>
      <use xlink:href="#DejaVuSans-30" x="216.064453"/>
      <use xlink:href="#DejaVuSans-20" x="279.6875"/>
      <use xlink:href="#DejaVuSans-6f" x="311.474609"/>
      <use xlink:href="#DejaVuSans-66" x="372.65625"/>
      <use xlink:href="#DejaVuSans-20" x="407.861328"/>
      <use xlink:href="#DejaVuSans-46" x="439.648438"/>
      <use xlink:href="#DejaVuSans-45" x="497.167969"/>
      <use xlink:href="#DejaVuSans-76" x="560.351562"/>
      <use xlink:href="#DejaVuSans-61" x="619.53125"/>
      <use xlink:href="#DejaVuSans-6c" x="680.810547"/>
      <use xlink:href="#DejaVuSans-73" x="708.59375"/>
      <use xlink:href="#DejaVuSans-20" x="760.693359"/>
      <use xlink:href="#DejaVuSans-2f" x="792.480469"/>
      <use xlink:href="#DejaVuSans-20" x="826.171875"/>
      <use xlink:href="#DejaVuSans-44" x="857.958984"/>
      <use xlink:href="#DejaVuSans-49" x="934.960938"/>
      <use xlink:href="#DejaVuSans-4d" x="964.453125"/>
     </g>
    </g>
   </g>
   <g id="matplotlib.axis_2">
    <g id="ytick_1">
     <g id="line2d_37">
      <path d="M 62.208 293.76 
L 460.8 293.76 
" clip-path="url(#pc7a40a96e4)" style="fill: none; stroke: #b0b0b0; stroke-width: 0.8; stroke-linecap: square"/>
     </g>
     <g id="line2d_38">
      <defs>
       <path id="m27de73e4ad" d="M 0 0 
L -3.5 0 
" style="stroke: #000000; stroke-width: 0.8"/>
      </defs>
      <g>
       <use xlink:href="#m27de73e4ad" x="62.208" y="293.76" style="stroke: #000000; stroke-width: 0.8"/>
      </g>
     </g>
     <g id="text_5">
      <!-- 0.0 -->
      <g transform="translate(29.763 299.83875)scale(0.16 -0.16)">
       <defs>
        <path id="DejaVuSans-2e" d="M 684 794 
L 1344 794 
L 1344 0 
L 684 0 
L 684 794 
z
" transform="scale(0.015625)"/>
       </defs>
       <use xlink:href="#DejaVuSans-30"/>
       <use xlink:href="#DejaVuSans-2e" x="63.623047"/>
       <use xlink:href="#DejaVuSans-30" x="95.410156"/>
      </g>
     </g>
    </g>
    <g id="ytick_2">
     <g id="line2d_39">
      <path d="M 62.208 236.274059 
L 460.8 236.274059 
" clip-path="url(#pc7a40a96e4)" style="fill: none; stroke: #b0b0b0; stroke-width: 0.8; stroke-linecap: square"/>
     </g>
     <g id="line2d_40">
      <g>
       <use xlink:href="#m27de73e4ad" x="62.208" y="236.274059" style="stroke: #000000; stroke-width: 0.8"/>
      </g>
     </g>
     <g id="text_6">
      <!-- 0.2 -->
      <g transform="translate(29.763 242.352809)scale(0.16 -0.16)">
       <use xlink:href="#DejaVuSans-30"/>
       <use xlink:href="#DejaVuSans-2e" x="63.623047"/>
       <use xlink:href="#DejaVuSans-32" x="95.410156"/>
      </g>
     </g>
    </g>
    <g id="ytick_3">
     <g id="line2d_41">
      <path d="M 62.208 178.788119 
L 460.8 178.788119 
" clip-path="url(#pc7a40a96e4)" style="fill: none; stroke: #b0b0b0; stroke-width: 0.8; stroke-linecap: square"/>
     </g>
     <g id="line2d_42">
      <g>
       <use xlink:href="#m27de73e4ad" x="62.208" y="178.788119" style="stroke: #000000; stroke-width: 0.8"/>
      </g>
     </g>
     <g id="text_7">
      <!-- 0.4 -->
      <g transform="translate(29.763 184.866869)scale(0.16 -0.16)">
       <use xlink:href="#DejaVuSans-30"/>
       <use xlink:href="#DejaVuSans-2e" x="63.623047"/>
       <use xlink:href="#DejaVuSans-34" x="95.410156"/>
      </g>
     </g>
    </g>
    <g id="ytick_4">
     <g id="line2d_43">
      <path d="M 62.208 121.302178 
L 460.8 121.302178 
" clip-path="url(#pc7a40a96e4)" style="fill: none; stroke: #b0b0b0; stroke-width: 0.8; stroke-linecap: square"/>
     </g>
     <g id="line2d_44">
      <g>
       <use xlink:href="#m27de73e4ad" x="62.208" y="121.302178" style="stroke: #000000; stroke-width: 0.8"/>
      </g>
     </g>
     <g id="text_8">
      <!-- 0.6 -->
      <g transform="translate(29.763 127.380928)scale(0.16 -0.16)">
       <defs>
        <path id="DejaVuSans-36" d="M 2113 2584 
Q 1688 2584 1439 2293 
Q 1191 2003 1191 1497 
Q 1191 994 1439 701 
Q 1688 409 2113 409 
Q 2538 409 2786 701 
Q 3034 994 3034 1497 
Q 3034 2003 2786 2293 
Q 2538 2584 2113 2584 
z
M 3366 4563 
L 3366 3988 
Q 3128 4100 2886 4159 
Q 2644 4219 2406 4219 
Q 1781 4219 1451 3797 
Q 1122 3375 1075 2522 
Q 1259 2794 1537 2939 
Q 1816 3084 2150 3084 
Q 2853 3084 3261 2657 
Q 3669 2231 3669 1497 
Q 3669 778 3244 343 
Q 2819 -91 2113 -91 
Q 1303 -91 875 529 
Q 447 1150 447 2328 
Q 447 3434 972 4092 
Q 1497 4750 2381 4750 
Q 2619 4750 2861 4703 
Q 3103 4656 3366 4563 
z
" transform="scale(0.015625)"/>
       </defs>
       <use xlink:href="#DejaVuSans-30"/>
       <use xlink:href="#DejaVuSans-2e" x="63.623047"/>
       <use xlink:href="#DejaVuSans-36" x="95.410156"/>
      </g>
     </g>
    </g>
    <g id="ytick_5">
     <g id="line2d_45">
      <path d="M 62.208 63.816238 
L 460.8 63.816238 
" clip-path="url(#pc7a40a96e4)" style="fill: none; stroke: #b0b0b0; stroke-width: 0.8; stroke-linecap: square"/>
     </g>
     <g id="line2d_46">
      <g>
       <use xlink:href="#m27de73e4ad" x="62.208" y="63.816238" style="stroke: #000000; stroke-width: 0.8"/>
      </g>
     </g>
     <g id="text_9">
      <!-- 0.8 -->
      <g transform="translate(29.763 69.894988)scale(0.16 -0.16)">
       <defs>
        <path id="DejaVuSans-38" d="M 2034 2216 
Q 1584 2216 1326 1975 
Q 1069 1734 1069 1313 
Q 1069 891 1326 650 
Q 1584 409 2034 409 
Q 2484 409 2743 651 
Q 3003 894 3003 1313 
Q 3003 1734 2745 1975 
Q 2488 2216 2034 2216 
z
M 1403 2484 
Q 997 2584 770 2862 
Q 544 3141 544 3541 
Q 544 4100 942 4425 
Q 1341 4750 2034 4750 
Q 2731 4750 3128 4425 
Q 3525 4100 3525 3541 
Q 3525 3141 3298 2862 
Q 3072 2584 2669 2484 
Q 3125 2378 3379 2068 
Q 3634 1759 3634 1313 
Q 3634 634 3220 271 
Q 2806 -91 2034 -91 
Q 1263 -91 848 271 
Q 434 634 434 1313 
Q 434 1759 690 2068 
Q 947 2378 1403 2484 
z
M 1172 3481 
Q 1172 3119 1398 2916 
Q 1625 2713 2034 2713 
Q 2441 2713 2670 2916 
Q 2900 3119 2900 3481 
Q 2900 3844 2670 4047 
Q 2441 4250 2034 4250 
Q 1625 4250 1398 4047 
Q 1172 3844 1172 3481 
z
" transform="scale(0.015625)"/>
       </defs>
       <use xlink:href="#DejaVuSans-30"/>
       <use xlink:href="#DejaVuSans-2e" x="63.623047"/>
       <use xlink:href="#DejaVuSans-38" x="95.410156"/>
      </g>
     </g>
    </g>
    <g id="ytick_6">
     <g id="line2d_47">
      <path d="M 62.208 6.330297 
L 460.8 6.330297 
" clip-path="url(#pc7a40a96e4)" style="fill: none; stroke: #b0b0b0; stroke-width: 0.8; stroke-linecap: square"/>
     </g>
     <g id="line2d_48">
      <g>
       <use xlink:href="#m27de73e4ad" x="62.208" y="6.330297" style="stroke: #000000; stroke-width: 0.8"/>
      </g>
     </g>
     <g id="text_10">
      <!-- 1.0 -->
      <g transform="translate(29.763 12.409047)scale(0.16 -0.16)">
       <use xlink:href="#DejaVuSans-31"/>
       <use xlink:href="#DejaVuSans-2e" x="63.623047"/>
       <use xlink:href="#DejaVuSans-30" x="95.410156"/>
      </g>
     </g>
    </g>
    <g id="text_11">
     <!-- proportion of trials -->
     <g transform="translate(21.603625 241.61425)rotate(-90)scale(0.2 -0.2)">
      <defs>
       <path id="DejaVuSans-70" d="M 1159 525 
L 1159 -1331 
L 581 -1331 
L 581 3500 
L 1159 3500 
L 1159 2969 
Q 1341 3281 1617 3432 
Q 1894 3584 2278 3584 
Q 2916 3584 3314 3078 
Q 3713 2572 3713 1747 
Q 3713 922 3314 415 
Q 2916 -91 2278 -91 
Q 1894 -91 1617 61 
Q 1341 213 1159 525 
z
M 3116 1747 
Q 3116 2381 2855 2742 
Q 2594 3103 2138 3103 
Q 1681 3103 1420 2742 
Q 1159 2381 1159 1747 
Q 1159 1113 1420 752 
Q 1681 391 2138 391 
Q 2594 391 2855 752 
Q 3116 1113 3116 1747 
z
" transform="scale(0.015625)"/>
       <path id="DejaVuSans-72" d="M 2631 2963 
Q 2534 3019 2420 3045 
Q 2306 3072 2169 3072 
Q 1681 3072 1420 2755 
Q 1159 2438 1159 1844 
L 1159 0 
L 581 0 
L 581 3500 
L 1159 3500 
L 1159 2956 
Q 1341 3275 1631 3429 
Q 1922 3584 2338 3584 
Q 2397 3584 2469 3576 
Q 2541 3569 2628 3553 
L 2631 2963 
z
" transform="scale(0.015625)"/>
       <path id="DejaVuSans-74" d="M 1172 4494 
L 1172 3500 
L 2356 3500 
L 2356 3053 
L 1172 3053 
L 1172 1153 
Q 1172 725 1289 603 
Q 1406 481 1766 481 
L 2356 481 
L 2356 0 
L 1766 0 
Q 1100 0 847 248 
Q 594 497 594 1153 
L 594 3053 
L 172 3053 
L 172 3500 
L 594 3500 
L 594 4494 
L 1172 4494 
z
" transform="scale(0.015625)"/>
       <path id="DejaVuSans-69" d="M 603 3500 
L 1178 3500 
L 1178 0 
L 603 0 
L 603 3500 
z
M 603 4863 
L 1178 4863 
L 1178 4134 
L 603 4134 
L 603 4863 
z
" transform="scale(0.015625)"/>
       <path id="DejaVuSans-6e" d="M 3513 2113 
L 3513 0 
L 2938 0 
L 2938 2094 
Q 2938 2591 2744 2837 
Q 2550 3084 2163 3084 
Q 1697 3084 1428 2787 
Q 1159 2491 1159 1978 
L 1159 0 
L 581 0 
L 581 3500 
L 1159 3500 
L 1159 2956 
Q 1366 3272 1645 3428 
Q 1925 3584 2291 3584 
Q 2894 3584 3203 3211 
Q 3513 2838 3513 2113 
z
" transform="scale(0.015625)"/>
      </defs>
      <use xlink:href="#DejaVuSans-70"/>
      <use xlink:href="#DejaVuSans-72" x="63.476562"/>
      <use xlink:href="#DejaVuSans-6f" x="102.339844"/>
      <use xlink:href="#DejaVuSans-70" x="163.521484"/>
      <use xlink:href="#DejaVuSans-6f" x="226.998047"/>
      <use xlink:href="#DejaVuSans-72" x="288.179688"/>
      <use xlink:href="#DejaVuSans-74" x="329.292969"/>
      <use xlink:href="#DejaVuSans-69" x="368.501953"/>
      <use xlink:href="#DejaVuSans-6f" x="396.285156"/>
      <use xlink:href="#DejaVuSans-6e" x="457.466797"/>
      <use xlink:href="#DejaVuSans-20" x="520.845703"/>
      <use xlink:href="#DejaVuSans-6f" x="552.632812"/>
      <use xlink:href="#DejaVuSans-66" x="613.814453"/>
      <use xlink:href="#DejaVuSans-20" x="649.019531"/>
      <use xlink:href="#DejaVuSans-74" x="680.806641"/>
      <use xlink:href="#DejaVuSans-72" x="720.015625"/>
      <use xlink:href="#DejaVuSans-69" x="761.128906"/>
      <use xlink:href="#DejaVuSans-61" x="788.912109"/>
      <use xlink:href="#DejaVuSans-6c" x="850.191406"/>
      <use xlink:href="#DejaVuSans-73" x="877.974609"/>
     </g>
    </g>
   </g>
   <g id="line2d_49">
    <path d="M -1 232.441663 
L 69.146943 232.441663 
L 69.146943 228.609267 
L 74.816472 228.609267 
L 74.816472 224.776871 
L 78.708585 224.776871 
L 78.708585 220.944475 
L 80.486002 220.944475 
L 80.486002 213.279683 
L 90.701269 213.279683 
L 90.701269 209.447287 
L 97.390441 209.447287 
L 97.390441 205.614891 
L 99.334594 205.614891 
L 99.334594 201.782495 
L 100.71688 201.782495 
L 100.71688 197.950099 
L 101.605407 197.950099 
L 101.605407 194.117703 
L 110.660562 194.117703 
L 110.660562 190.285307 
L 112.871383 190.285307 
L 112.871383 186.452911 
L 115.21939 186.452911 
L 115.21939 182.620515 
L 135.327115 182.620515 
L 135.327115 178.788119 
L 145.256765 178.788119 
L 145.256765 174.955723 
L 153.769213 174.955723 
L 153.769213 171.123327 
L 155.208374 171.123327 
L 155.208374 167.290931 
L 156.283416 167.290931 
L 156.283416 163.458535 
L 158.957685 163.458535 
L 158.957685 159.626139 
L 161.35602 159.626139 
L 161.35602 155.793743 
L 161.864764 155.793743 
L 161.864764 151.961347 
L 162.674123 151.961347 
L 162.674123 148.12895 
L 164.115137 148.12895 
L 164.115137 144.296554 
L 166.918505 144.296554 
L 166.918505 140.464158 
L 167.450079 140.464158 
L 167.50274 132.799366 
L 170.125052 132.799366 
L 170.173376 125.134574 
L 171.496823 125.134574 
L 171.496823 121.302178 
L 191.314536 121.302178 
L 191.314536 117.469782 
L 193.396283 117.469782 
L 193.396283 113.637386 
L 196.775405 113.637386 
L 196.775405 109.80499 
L 202.118236 109.80499 
L 202.118236 105.972594 
L 203.33852 105.972594 
L 203.33852 102.140198 
L 203.702031 102.140198 
L 203.702031 98.307802 
L 204.799472 98.307802 
L 204.799472 94.475406 
L 205.752032 94.475406 
L 205.752032 90.64301 
L 209.019128 90.64301 
L 209.019128 86.810614 
L 211.016518 86.810614 
L 211.016518 82.978218 
L 212.610901 82.978218 
L 212.610901 79.145822 
L 214.466341 79.145822 
L 214.466341 75.313426 
L 215.461233 75.313426 
L 215.461233 71.48103 
L 216.966099 71.48103 
L 216.966099 67.648634 
L 220.728637 67.648634 
L 220.728637 63.816238 
L 258.936304 63.816238 
L 258.936304 59.983842 
L 260.082792 59.983842 
L 260.082792 56.151446 
L 282.443966 56.151446 
L 282.443966 52.31905 
L 284.014834 52.31905 
L 284.083034 44.654257 
L 285.309561 44.654257 
L 285.309561 40.821861 
L 285.433153 40.821861 
L 285.433153 36.989465 
L 286.188879 36.989465 
L 286.188879 33.157069 
L 287.584349 33.157069 
L 287.594308 25.492277 
L 288.960138 25.492277 
L 288.960138 21.659881 
L 289.61705 21.659881 
L 289.61705 17.827485 
L 304.774547 17.827485 
L 304.774547 13.995089 
L 306.8031 13.995089 
L 306.8031 10.162693 
L 308.574683 10.162693 
L 308.574683 6.330297 
L 308.574683 6.330297 
L 460.8 6.330297 
L 460.8 6.330297 
" clip-path="url(#pc7a40a96e4)" style="fill: none; stroke: #000000; stroke-width: 1.5; stroke-linecap: square"/>
   </g>
   <g id="line2d_50">
    <defs>
     <path id="m45ad31b392" d="M -0 14.142136 
L 8.485281 0 
L -0 -14.142136 
L -8.485281 -0 
z
" style="stroke: #000000; stroke-width: 1.5; stroke-linejoin: miter"/>
    </defs>
    <g clip-path="url(#pc7a40a96e4)">
     <use xlink:href="#m45ad31b392" x="69.146943" y="232.441663" style="fill-opacity: 0; stroke: #000000; stroke-width: 1.5; stroke-linejoin: miter"/>
     <use xlink:href="#m45ad31b392" x="112.871383" y="190.285307" style="fill-opacity: 0; stroke: #000000; stroke-width: 1.5; stroke-linejoin: miter"/>
     <use xlink:href="#m45ad31b392" x="170.125052" y="132.799366" style="fill-opacity: 0; stroke: #000000; stroke-width: 1.5; stroke-linejoin: miter"/>
     <use xlink:href="#m45ad31b392" x="214.466341" y="79.145822" style="fill-opacity: 0; stroke: #000000; stroke-width: 1.5; stroke-linejoin: miter"/>
     <use xlink:href="#m45ad31b392" x="288.960138" y="25.492277" style="fill-opacity: 0; stroke: #000000; stroke-width: 1.5; stroke-linejoin: miter"/>
     <use xlink:href="#m45ad31b392" x="308.574683" y="6.330297" style="fill-opacity: 0; stroke: #000000; stroke-width: 1.5; stroke-linejoin: miter"/>
    </g>
   </g>
   <g id="line2d_51">
    <path clip-path="url(#pc7a40a96e4)" style="fill: none; stroke: #000000; stroke-width: 1.5; stroke-linecap: square"/>
    <g clip-path="url(#pc7a40a96e4)">
     <use xlink:href="#m45ad31b392" x="-1" y="581.189703" style="fill-opacity: 0; stroke: #000000; stroke-width: 1.5; stroke-linejoin: miter"/>
     <use xlink:href="#m45ad31b392" x="460.8" y="581.189703" style="fill-opacity: 0; stroke: #000000; stroke-width: 1.5; stroke-linejoin: miter"/>
    </g>
   </g>
   <g id="line2d_52">
    <path d="M -1 232.441663 
L 65.171796 232.441663 
L 65.171796 228.609267 
L 78.708585 228.609267 
L 78.708585 224.776871 
L 82.167293 224.776871 
L 82.167293 220.944475 
L 86.011232 220.944475 
L 86.011232 217.112079 
L 86.726121 217.112079 
L 86.726121 213.279683 
L 88.777171 213.279683 
L 88.777171 209.447287 
L 93.094474 209.447287 
L 93.094474 205.614891 
L 93.665064 205.614891 
L 93.665064 201.782495 
L 104.128112 201.782495 
L 104.128112 197.950099 
L 109.322879 197.950099 
L 109.322879 194.117703 
L 111.627365 194.117703 
L 111.627365 190.285307 
L 126.870977 190.285307 
L 126.870977 186.452911 
L 132.862751 186.452911 
L 132.862751 182.620515 
L 135.178683 182.620515 
L 135.178683 178.788119 
L 141.848651 178.788119 
L 141.848651 174.955723 
L 144.714058 174.955723 
L 144.714058 171.123327 
L 155.286408 171.123327 
L 155.286408 167.290931 
L 157.395441 167.290931 
L 157.395441 163.458535 
L 161.547776 163.458535 
L 161.547776 159.626139 
L 162.489209 159.626139 
L 162.489209 155.793743 
L 162.612608 155.793743 
L 162.612608 151.961347 
L 163.93862 151.961347 
L 163.93862 148.12895 
L 166.811091 148.12895 
L 166.811091 144.296554 
L 168.486719 144.296554 
L 168.486719 140.464158 
L 169.341481 140.464158 
L 169.341481 136.631762 
L 170.557286 136.631762 
L 170.557286 132.799366 
L 171.357689 132.799366 
L 171.357689 128.96697 
L 171.773237 128.96697 
L 171.773237 125.134574 
L 175.810697 125.134574 
L 175.810697 121.302178 
L 191.338992 121.302178 
L 191.338992 117.469782 
L 197.183232 117.469782 
L 197.183232 113.637386 
L 198.859192 113.637386 
L 198.859192 109.80499 
L 205.844169 109.80499 
L 205.844169 105.972594 
L 207.977325 105.972594 
L 207.977325 102.140198 
L 211.987957 102.140198 
L 211.987957 98.307802 
L 212.561523 98.307802 
L 212.561523 94.475406 
L 213.051818 94.475406 
L 213.051818 90.64301 
L 214.361581 90.64301 
L 214.361581 86.810614 
L 214.927719 86.810614 
L 214.927719 82.978218 
L 217.476584 82.978218 
L 217.476584 79.145822 
L 218.6056 79.145822 
L 218.6056 75.313426 
L 224.423964 75.313426 
L 224.423964 71.48103 
L 225.785703 71.48103 
L 225.785703 67.648634 
L 228.851369 67.648634 
L 228.851369 63.816238 
L 229.937028 63.816238 
L 229.937028 59.983842 
L 257.895799 59.983842 
L 257.895799 56.151446 
L 260.00766 56.151446 
L 260.00766 52.31905 
L 261.990215 52.31905 
L 261.990215 48.486653 
L 262.869936 48.486653 
L 262.869936 44.654257 
L 265.614441 44.654257 
L 265.614441 40.821861 
L 280.181837 40.821861 
L 280.181837 36.989465 
L 282.426987 36.989465 
L 282.426987 33.157069 
L 283.396736 33.157069 
L 283.396736 29.324673 
L 285.210572 29.324673 
L 285.210572 25.492277 
L 285.754089 25.492277 
L 285.754089 21.659881 
L 286.360877 21.659881 
L 286.360877 17.827485 
L 288.63657 17.827485 
L 288.63657 13.995089 
L 303.309141 13.995089 
L 303.309141 10.162693 
L 306.318534 10.162693 
L 306.318534 6.330297 
L 306.318534 6.330297 
L 460.8 6.330297 
L 460.8 6.330297 
" clip-path="url(#pc7a40a96e4)" style="fill: none; stroke: #000000; stroke-width: 1.5; stroke-linecap: square"/>
   </g>
   <g id="line2d_53">
    <defs>
     <path id="md4beea28a9" d="M 0 7.5 
C 1.989023 7.5 3.896849 6.709753 5.303301 5.303301 
C 6.709753 3.896849 7.5 1.989023 7.5 0 
C 7.5 -1.989023 6.709753 -3.896849 5.303301 -5.303301 
C 3.896849 -6.709753 1.989023 -7.5 0 -7.5 
C -1.989023 -7.5 -3.896849 -6.709753 -5.303301 -5.303301 
C -6.709753 -3.896849 -7.5 -1.989023 -7.5 0 
C -7.5 1.989023 -6.709753 3.896849 -5.303301 5.303301 
C -3.896849 6.709753 -1.989023 7.5 0 7.5 
z
" style="stroke: #000000; stroke-width: 1.5"/>
    </defs>
    <g clip-path="url(#pc7a40a96e4)">
     <use xlink:href="#md4beea28a9" x="135.178683" y="182.620515" style="fill-opacity: 0; stroke: #000000; stroke-width: 1.5"/>
     <use xlink:href="#md4beea28a9" x="171.773237" y="128.96697" style="fill-opacity: 0; stroke: #000000; stroke-width: 1.5"/>
     <use xlink:href="#md4beea28a9" x="224.423964" y="75.313426" style="fill-opacity: 0; stroke: #000000; stroke-width: 1.5"/>
     <use xlink:href="#md4beea28a9" x="288.63657" y="17.827485" style="fill-opacity: 0; stroke: #000000; stroke-width: 1.5"/>
     <use xlink:href="#md4beea28a9" x="306.318534" y="6.330297" style="fill-opacity: 0; stroke: #000000; stroke-width: 1.5"/>
    </g>
   </g>
   <g id="line2d_54">
    <path clip-path="url(#pc7a40a96e4)" style="fill: none; stroke: #000000; stroke-width: 1.5; stroke-linecap: square"/>
   </g>
   <g id="line2d_55">
    <path d="M 195.045042 293.76 
L 195.045042 289.927604 
L 196.836921 289.927604 
L 196.836921 286.095208 
L 198.375569 286.095208 
L 198.375569 282.262812 
L 200.137818 282.262812 
L 200.137818 278.430416 
L 202.852761 278.430416 
L 202.852761 274.59802 
L 203.121704 274.59802 
L 203.121704 270.765624 
L 204.448638 270.765624 
L 204.448638 266.933228 
L 204.640492 266.933228 
L 204.640492 263.100832 
L 207.515775 263.100832 
L 207.515775 259.268436 
L 208.248163 259.268436 
L 208.248163 255.43604 
L 209.472695 255.43604 
L 209.472695 251.603644 
L 214.466341 251.603644 
L 214.466341 247.771248 
L 215.651975 247.771248 
L 215.651975 243.938851 
L 215.952532 243.938851 
L 215.952532 240.106455 
L 217.105185 240.106455 
L 217.105185 236.274059 
L 219.438632 236.274059 
L 219.527634 228.609267 
L 222.884827 228.609267 
L 222.884827 224.776871 
L 264.945531 224.776871 
L 264.945531 220.944475 
L 270.363062 220.944475 
L 270.363062 217.112079 
L 270.852146 217.112079 
L 270.852146 213.279683 
L 272.305639 213.279683 
L 272.305639 209.447287 
L 272.437415 209.447287 
L 272.437415 205.614891 
L 274.133967 205.614891 
L 274.133967 201.782495 
L 276.425169 201.782495 
L 276.425169 197.950099 
L 277.931421 197.950099 
L 277.931421 194.117703 
L 278.476118 194.117703 
L 278.476118 190.285307 
L 279.635031 190.285307 
L 279.635031 186.452911 
L 292.857171 186.452911 
L 292.857171 182.620515 
L 293.721269 182.620515 
L 293.721269 178.788119 
L 296.263721 178.788119 
L 296.263721 174.955723 
L 297.033551 174.955723 
L 297.033551 171.123327 
L 298.333985 171.123327 
L 298.333985 167.290931 
L 301.684163 167.290931 
L 301.684163 163.458535 
L 311.452605 163.458535 
L 311.452605 159.626139 
L 311.915573 159.626139 
L 311.915573 155.793743 
L 312.693753 155.793743 
L 312.693753 151.961347 
L 313.801639 151.961347 
L 313.80545 144.296554 
L 316.308951 144.296554 
L 316.308951 140.464158 
L 321.770748 140.464158 
L 321.770748 136.631762 
L 322.326087 136.631762 
L 322.326087 132.799366 
L 325.451261 132.799366 
L 325.451261 128.96697 
L 329.388266 128.96697 
L 329.388266 125.134574 
L 334.759166 125.134574 
L 334.759166 121.302178 
L 338.127777 121.302178 
L 338.127777 117.469782 
L 338.317596 117.469782 
L 338.317596 113.637386 
L 339.549771 113.637386 
L 339.549771 109.80499 
L 341.241072 109.80499 
L 341.241072 105.972594 
L 345.441116 105.972594 
L 345.441116 102.140198 
L 346.037857 102.140198 
L 346.090684 94.475406 
L 346.303947 94.475406 
L 346.303947 90.64301 
L 346.840093 90.64301 
L 346.899628 82.978218 
L 347.317425 82.978218 
L 347.317425 79.145822 
L 349.136817 79.145822 
L 349.136817 75.313426 
L 358.997216 75.313426 
L 358.997216 71.48103 
L 362.853782 71.48103 
L 362.853782 67.648634 
L 362.979921 67.648634 
L 362.979921 63.816238 
L 364.570613 63.816238 
L 364.570613 59.983842 
L 364.741223 59.983842 
L 364.741223 56.151446 
L 365.545438 56.151446 
L 365.545438 52.31905 
L 369.329727 52.31905 
L 369.329727 48.486653 
L 370.901277 48.486653 
L 370.901277 44.654257 
L 373.97424 44.654257 
L 373.97424 40.821861 
L 376.425776 40.821861 
L 376.425776 36.989465 
L 378.808396 36.989465 
L 378.808396 33.157069 
L 380.231214 33.157069 
L 380.231214 29.324673 
L 384.256309 29.324673 
L 384.256309 25.492277 
L 392.982723 25.492277 
L 392.982723 21.659881 
L 398.136324 21.659881 
L 398.136324 17.827485 
L 398.136324 17.827485 
L 460.8 17.827485 
L 460.8 17.827485 
" clip-path="url(#pc7a40a96e4)" style="fill: none; stroke: #00bfbf; stroke-width: 1.5; stroke-linecap: square"/>
   </g>
   <g id="line2d_56">
    <defs>
     <path id="m53e7adf9a5" d="M -0 14.142136 
L 8.485281 0 
L -0 -14.142136 
L -8.485281 -0 
z
" style="stroke: #00bfbf; stroke-width: 1.5; stroke-linejoin: miter"/>
    </defs>
    <g clip-path="url(#pc7a40a96e4)">
     <use xlink:href="#m53e7adf9a5" x="272.437415" y="209.447287" style="fill-opacity: 0; stroke: #00bfbf; stroke-width: 1.5; stroke-linejoin: miter"/>
     <use xlink:href="#m53e7adf9a5" x="322.326087" y="136.631762" style="fill-opacity: 0; stroke: #00bfbf; stroke-width: 1.5; stroke-linejoin: miter"/>
     <use xlink:href="#m53e7adf9a5" x="358.997216" y="75.313426" style="fill-opacity: 0; stroke: #00bfbf; stroke-width: 1.5; stroke-linejoin: miter"/>
     <use xlink:href="#m53e7adf9a5" x="398.136324" y="21.659881" style="fill-opacity: 0; stroke: #00bfbf; stroke-width: 1.5; stroke-linejoin: miter"/>
     <use xlink:href="#m53e7adf9a5" x="398.136324" y="17.827485" style="fill-opacity: 0; stroke: #00bfbf; stroke-width: 1.5; stroke-linejoin: miter"/>
    </g>
   </g>
   <g id="line2d_57">
    <path clip-path="url(#pc7a40a96e4)" style="fill: none; stroke: #00bfbf; stroke-width: 1.5; stroke-linecap: square"/>
    <g clip-path="url(#pc7a40a96e4)">
     <use xlink:href="#m53e7adf9a5" x="-1" y="581.189703" style="fill-opacity: 0; stroke: #00bfbf; stroke-width: 1.5; stroke-linejoin: miter"/>
     <use xlink:href="#m53e7adf9a5" x="460.8" y="581.189703" style="fill-opacity: 0; stroke: #00bfbf; stroke-width: 1.5; stroke-linejoin: miter"/>
    </g>
   </g>
   <g id="line2d_58">
    <path d="M 196.590124 293.76 
L 196.590124 289.927604 
L 198.101418 289.927604 
L 198.101418 286.095208 
L 201.595303 286.095208 
L 201.595303 282.262812 
L 202.066336 282.262812 
L 202.066336 278.430416 
L 202.547394 278.430416 
L 202.547394 274.59802 
L 202.666504 274.59802 
L 202.666504 270.765624 
L 206.735935 270.765624 
L 206.735935 266.933228 
L 207.150362 266.933228 
L 207.150362 263.100832 
L 210.663963 263.100832 
L 210.663963 259.268436 
L 211.659027 259.268436 
L 211.659027 255.43604 
L 211.836576 255.43604 
L 211.836576 251.603644 
L 212.276062 251.603644 
L 212.276062 247.771248 
L 214.617041 247.771248 
L 214.617041 243.938851 
L 217.041069 243.938851 
L 217.041069 240.106455 
L 227.005012 240.106455 
L 227.005012 236.274059 
L 264.212673 236.274059 
L 264.212673 232.441663 
L 265.346339 232.441663 
L 265.346339 228.609267 
L 267.261474 228.609267 
L 267.261474 224.776871 
L 268.065834 224.776871 
L 268.065834 220.944475 
L 268.583946 220.944475 
L 268.583946 217.112079 
L 271.043008 217.112079 
L 271.125791 209.447287 
L 271.290699 209.447287 
L 271.290699 205.614891 
L 272.372499 205.614891 
L 272.372499 201.782495 
L 273.666525 201.782495 
L 273.666525 197.950099 
L 273.821972 197.950099 
L 273.821972 194.117703 
L 274.525504 194.117703 
L 274.56422 186.452911 
L 274.792168 186.452911 
L 274.792168 182.620515 
L 276.251974 182.620515 
L 276.251974 178.788119 
L 281.959721 178.788119 
L 281.959721 174.955723 
L 290.785988 174.955723 
L 290.785988 171.123327 
L 292.487873 171.123327 
L 292.487873 167.290931 
L 294.139996 167.290931 
L 294.139996 163.458535 
L 294.937325 163.458535 
L 294.937325 159.626139 
L 298.78423 159.626139 
L 298.78423 155.793743 
L 299.315451 155.793743 
L 299.315451 151.961347 
L 305.273554 151.961347 
L 305.273554 148.12895 
L 312.898903 148.12895 
L 312.898903 144.296554 
L 313.744906 144.296554 
L 313.744906 140.464158 
L 313.961745 140.464158 
L 313.961745 136.631762 
L 315.468513 136.631762 
L 315.468513 132.799366 
L 317.529973 132.799366 
L 317.529973 128.96697 
L 318.567043 128.96697 
L 318.567043 125.134574 
L 323.478784 125.134574 
L 323.478784 121.302178 
L 325.869908 121.302178 
L 325.938976 113.637386 
L 329.958646 113.637386 
L 329.958646 109.80499 
L 337.809841 109.80499 
L 337.809841 105.972594 
L 344.53381 105.972594 
L 344.53381 102.140198 
L 345.46487 102.140198 
L 345.531043 94.475406 
L 345.597247 94.475406 
L 345.629441 86.810614 
L 347.355821 86.810614 
L 347.355821 82.978218 
L 348.987076 82.978218 
L 348.987076 79.145822 
L 349.948565 79.145822 
L 349.948565 75.313426 
L 350.275148 75.313426 
L 350.275148 71.48103 
L 351.429855 71.48103 
L 351.429855 67.648634 
L 351.67488 67.648634 
L 351.67488 63.816238 
L 354.829654 63.816238 
L 354.829654 59.983842 
L 356.558092 59.983842 
L 356.558092 56.151446 
L 360.506949 56.151446 
L 360.506949 52.31905 
L 362.399988 52.31905 
L 362.399988 48.486653 
L 362.735325 48.486653 
L 362.735325 44.654257 
L 362.972475 44.654257 
L 362.972475 40.821861 
L 363.283397 40.821861 
L 363.283397 36.989465 
L 363.942642 36.989465 
L 363.942642 33.157069 
L 365.937517 33.157069 
L 365.937517 29.324673 
L 370.354404 29.324673 
L 370.354404 25.492277 
L 373.120513 25.492277 
L 373.120513 21.659881 
L 379.753591 21.659881 
L 379.753591 17.827485 
L 381.30617 17.827485 
L 381.30617 13.995089 
L 391.132373 13.995089 
L 391.132373 10.162693 
L 395.505478 10.162693 
L 395.505478 6.330297 
L 395.505478 6.330297 
L 460.8 6.330297 
L 460.8 6.330297 
" clip-path="url(#pc7a40a96e4)" style="fill: none; stroke: #00bfbf; stroke-width: 1.5; stroke-linecap: square"/>
   </g>
   <g id="line2d_59">
    <defs>
     <path id="mb078691ff9" d="M 0 7.5 
C 1.989023 7.5 3.896849 6.709753 5.303301 5.303301 
C 6.709753 3.896849 7.5 1.989023 7.5 0 
C 7.5 -1.989023 6.709753 -3.896849 5.303301 -5.303301 
C 3.896849 -6.709753 1.989023 -7.5 0 -7.5 
C -1.989023 -7.5 -3.896849 -6.709753 -5.303301 -5.303301 
C -6.709753 -3.896849 -7.5 -1.989023 -7.5 0 
C -7.5 1.989023 -6.709753 3.896849 -5.303301 5.303301 
C -3.896849 6.709753 -1.989023 7.5 0 7.5 
z
" style="stroke: #00bfbf; stroke-width: 1.5"/>
    </defs>
    <g clip-path="url(#pc7a40a96e4)">
     <use xlink:href="#mb078691ff9" x="227.005012" y="240.106455" style="fill-opacity: 0; stroke: #00bfbf; stroke-width: 1.5"/>
     <use xlink:href="#mb078691ff9" x="298.78423" y="159.626139" style="fill-opacity: 0; stroke: #00bfbf; stroke-width: 1.5"/>
     <use xlink:href="#mb078691ff9" x="347.355821" y="86.810614" style="fill-opacity: 0; stroke: #00bfbf; stroke-width: 1.5"/>
     <use xlink:href="#mb078691ff9" x="379.753591" y="21.659881" style="fill-opacity: 0; stroke: #00bfbf; stroke-width: 1.5"/>
     <use xlink:href="#mb078691ff9" x="395.505478" y="6.330297" style="fill-opacity: 0; stroke: #00bfbf; stroke-width: 1.5"/>
    </g>
   </g>
   <g id="line2d_60">
    <path clip-path="url(#pc7a40a96e4)" style="fill: none; stroke: #00bfbf; stroke-width: 1.5; stroke-linecap: square"/>
   </g>
   <g id="line2d_61">
    <path d="M 273.059808 293.76 
L 273.059808 289.927604 
L 273.578092 289.927604 
L 273.578092 286.095208 
L 274.370157 286.095208 
L 274.370157 282.262812 
L 276.666661 282.262812 
L 276.666661 278.430416 
L 279.749151 278.430416 
L 279.749151 274.59802 
L 280.551745 274.59802 
L 280.551745 270.765624 
L 295.439979 270.765624 
L 295.439979 266.933228 
L 295.967619 266.933228 
L 295.967619 263.100832 
L 296.763678 263.100832 
L 296.763678 259.268436 
L 297.14687 259.268436 
L 297.14687 255.43604 
L 297.893812 255.43604 
L 297.893812 251.603644 
L 298.868267 251.603644 
L 298.868267 247.771248 
L 298.993514 247.771248 
L 299.049444 240.106455 
L 299.709868 240.106455 
L 299.709868 236.274059 
L 300.313223 236.274059 
L 300.313223 232.441663 
L 300.786604 232.441663 
L 300.786604 228.609267 
L 302.026876 228.609267 
L 302.026876 224.776871 
L 302.257643 224.776871 
L 302.257643 220.944475 
L 314.57036 220.944475 
L 314.57036 217.112079 
L 318.981087 217.112079 
L 318.981087 213.279683 
L 319.664664 213.279683 
L 319.664664 209.447287 
L 320.010263 209.447287 
L 320.120857 201.782495 
L 320.609127 201.782495 
L 320.706555 194.117703 
L 321.013265 194.117703 
L 321.013265 190.285307 
L 321.295652 190.285307 
L 321.295652 186.452911 
L 322.592184 186.452911 
L 322.592184 182.620515 
L 324.244267 182.620515 
L 324.244267 178.788119 
L 328.029395 178.788119 
L 328.029395 174.955723 
L 331.216216 174.955723 
L 331.216216 171.123327 
L 331.725421 171.123327 
L 331.725421 167.290931 
L 335.743877 167.290931 
L 335.743877 163.458535 
L 337.093186 163.458535 
L 337.093186 159.626139 
L 339.284971 159.626139 
L 339.284971 155.793743 
L 339.71064 155.793743 
L 339.71064 151.961347 
L 340.287852 151.961347 
L 340.287852 148.12895 
L 340.430192 148.12895 
L 340.430192 144.296554 
L 340.547508 144.296554 
L 340.547508 140.464158 
L 341.57356 140.464158 
L 341.57356 136.631762 
L 342.930537 136.631762 
L 342.930537 132.799366 
L 345.771686 132.799366 
L 345.771686 128.96697 
L 347.702634 128.96697 
L 347.702634 125.134574 
L 348.128808 125.134574 
L 348.137019 117.469782 
L 348.373275 117.469782 
L 348.373275 113.637386 
L 348.860685 113.637386 
L 348.860685 109.80499 
L 348.976473 109.80499 
L 348.976473 105.972594 
L 351.121119 105.972594 
L 351.121119 102.140198 
L 358.505073 102.140198 
L 358.560569 94.475406 
L 361.931064 94.475406 
L 361.931064 90.64301 
L 364.728909 90.64301 
L 364.728909 86.810614 
L 366.328234 86.810614 
L 366.328234 82.978218 
L 367.078157 82.978218 
L 367.078157 79.145822 
L 379.360228 79.145822 
L 379.360228 75.313426 
L 422.435135 75.313426 
L 422.459463 67.648634 
L 423.534015 67.648634 
L 423.534015 63.816238 
L 426.64489 63.816238 
L 426.68678 56.151446 
L 426.848312 56.151446 
L 426.848312 52.31905 
L 427.017594 52.31905 
L 427.017594 48.486653 
L 427.519857 48.486653 
L 427.519857 44.654257 
L 428.299285 44.654257 
L 428.299285 40.821861 
L 429.322864 40.821861 
L 429.322864 36.989465 
L 430.671341 36.989465 
L 430.671341 33.157069 
L 430.671341 33.157069 
L 460.8 33.157069 
L 460.8 33.157069 
" clip-path="url(#pc7a40a96e4)" style="fill: none; stroke: #bf00bf; stroke-width: 1.5; stroke-linecap: square"/>
   </g>
   <g id="line2d_62">
    <defs>
     <path id="m4864c86d2c" d="M -0 14.142136 
L 8.485281 0 
L -0 -14.142136 
L -8.485281 -0 
z
" style="stroke: #bf00bf; stroke-width: 1.5; stroke-linejoin: miter"/>
    </defs>
    <g clip-path="url(#pc7a40a96e4)">
     <use xlink:href="#m4864c86d2c" x="295.439979" y="270.765624" style="fill-opacity: 0; stroke: #bf00bf; stroke-width: 1.5; stroke-linejoin: miter"/>
     <use xlink:href="#m4864c86d2c" x="331.216216" y="174.955723" style="fill-opacity: 0; stroke: #bf00bf; stroke-width: 1.5; stroke-linejoin: miter"/>
     <use xlink:href="#m4864c86d2c" x="361.931064" y="94.475406" style="fill-opacity: 0; stroke: #bf00bf; stroke-width: 1.5; stroke-linejoin: miter"/>
     <use xlink:href="#m4864c86d2c" x="423.534015" y="67.648634" style="fill-opacity: 0; stroke: #bf00bf; stroke-width: 1.5; stroke-linejoin: miter"/>
     <use xlink:href="#m4864c86d2c" x="430.671341" y="33.157069" style="fill-opacity: 0; stroke: #bf00bf; stroke-width: 1.5; stroke-linejoin: miter"/>
    </g>
   </g>
   <g id="line2d_63">
    <path clip-path="url(#pc7a40a96e4)" style="fill: none; stroke: #bf00bf; stroke-width: 1.5; stroke-linecap: square"/>
    <g clip-path="url(#pc7a40a96e4)">
     <use xlink:href="#m4864c86d2c" x="-1" y="581.189703" style="fill-opacity: 0; stroke: #bf00bf; stroke-width: 1.5; stroke-linejoin: miter"/>
     <use xlink:href="#m4864c86d2c" x="460.8" y="581.189703" style="fill-opacity: 0; stroke: #bf00bf; stroke-width: 1.5; stroke-linejoin: miter"/>
    </g>
   </g>
   <g id="line2d_64">
    <path d="M 273.082753 293.76 
L 273.082753 289.927604 
L 277.432286 289.927604 
L 277.432286 286.095208 
L 281.790838 286.095208 
L 281.790838 282.262812 
L 293.978228 282.262812 
L 293.978228 278.430416 
L 294.345483 278.430416 
L 294.345483 274.59802 
L 294.63355 274.59802 
L 294.63355 270.765624 
L 295.369406 270.765624 
L 295.369406 266.933228 
L 295.530115 266.933228 
L 295.530115 263.100832 
L 296.288827 263.100832 
L 296.288827 259.268436 
L 296.910799 259.268436 
L 296.910799 255.43604 
L 297.168834 255.43604 
L 297.168834 251.603644 
L 297.370661 251.603644 
L 297.370661 247.771248 
L 298.66821 247.771248 
L 298.66821 243.938851 
L 299.624321 243.938851 
L 299.624321 240.106455 
L 302.159447 240.106455 
L 302.159447 236.274059 
L 303.058498 236.274059 
L 303.058498 232.441663 
L 314.466096 232.441663 
L 314.466096 228.609267 
L 314.617258 228.609267 
L 314.620506 220.944475 
L 315.162733 220.944475 
L 315.25651 213.279683 
L 316.285653 213.279683 
L 316.285653 209.447287 
L 317.262653 209.447287 
L 317.262653 205.614891 
L 317.540534 205.614891 
L 317.637945 194.117703 
L 317.788311 194.117703 
L 317.788311 190.285307 
L 317.947543 190.285307 
L 317.947543 186.452911 
L 318.81532 186.452911 
L 318.81532 182.620515 
L 319.503303 182.620515 
L 319.503303 178.788119 
L 319.735588 178.788119 
L 319.735588 174.955723 
L 319.884002 174.955723 
L 319.896142 167.290931 
L 326.063493 167.290931 
L 326.063493 163.458535 
L 328.318626 163.458535 
L 328.318626 159.626139 
L 332.04787 159.626139 
L 332.04787 155.793743 
L 337.197512 155.793743 
L 337.197512 151.961347 
L 338.090939 151.961347 
L 338.090939 148.12895 
L 338.863394 148.12895 
L 338.863394 144.296554 
L 340.119121 144.296554 
L 340.119121 140.464158 
L 340.464564 140.464158 
L 340.464564 136.631762 
L 343.123144 136.631762 
L 343.123144 132.799366 
L 347.601438 132.799366 
L 347.697991 121.302178 
L 347.779235 121.302178 
L 347.779235 117.469782 
L 349.282645 117.469782 
L 349.282645 113.637386 
L 351.016659 113.637386 
L 351.016659 109.80499 
L 356.629789 109.80499 
L 356.629789 105.972594 
L 357.922481 105.972594 
L 357.922481 102.140198 
L 358.972598 102.140198 
L 358.972598 98.307802 
L 362.35744 98.307802 
L 362.35744 94.475406 
L 364.282883 94.475406 
L 364.282883 90.64301 
L 364.469178 90.64301 
L 364.469178 86.810614 
L 364.788398 86.810614 
L 364.829594 79.145822 
L 365.111784 79.145822 
L 365.111784 75.313426 
L 365.581409 75.313426 
L 365.581409 71.48103 
L 377.497271 71.48103 
L 377.497271 67.648634 
L 392.864315 67.648634 
L 392.864315 63.816238 
L 421.996587 63.816238 
L 421.996587 59.983842 
L 423.626227 59.983842 
L 423.670658 52.31905 
L 424.336432 52.31905 
L 424.336432 48.486653 
L 426.342106 48.486653 
L 426.342106 44.654257 
L 427.69167 44.654257 
L 427.69167 40.821861 
L 432.772884 40.821861 
L 432.772884 36.989465 
L 434.224173 36.989465 
L 434.224173 33.157069 
L 438.947348 33.157069 
L 438.947348 29.324673 
L 439.442904 29.324673 
L 439.442904 25.492277 
L 440.65867 25.492277 
L 440.65867 21.659881 
L 440.880168 21.659881 
L 440.880168 17.827485 
L 440.880168 17.827485 
L 460.8 17.827485 
L 460.8 17.827485 
" clip-path="url(#pc7a40a96e4)" style="fill: none; stroke: #bf00bf; stroke-width: 1.5; stroke-linecap: square"/>
   </g>
   <g id="line2d_65">
    <defs>
     <path id="m3c19c6db02" d="M 0 7.5 
C 1.989023 7.5 3.896849 6.709753 5.303301 5.303301 
C 6.709753 3.896849 7.5 1.989023 7.5 0 
C 7.5 -1.989023 6.709753 -3.896849 5.303301 -5.303301 
C 3.896849 -6.709753 1.989023 -7.5 0 -7.5 
C -1.989023 -7.5 -3.896849 -6.709753 -5.303301 -5.303301 
C -6.709753 -3.896849 -7.5 -1.989023 -7.5 0 
C -7.5 1.989023 -6.709753 3.896849 -5.303301 5.303301 
C -3.896849 6.709753 -1.989023 7.5 0 7.5 
z
" style="stroke: #bf00bf; stroke-width: 1.5"/>
    </defs>
    <g clip-path="url(#pc7a40a96e4)">
     <use xlink:href="#m3c19c6db02" x="317.788311" y="194.117703" style="fill-opacity: 0; stroke: #bf00bf; stroke-width: 1.5"/>
     <use xlink:href="#m3c19c6db02" x="347.697991" y="125.134574" style="fill-opacity: 0; stroke: #bf00bf; stroke-width: 1.5"/>
     <use xlink:href="#m3c19c6db02" x="377.497271" y="71.48103" style="fill-opacity: 0; stroke: #bf00bf; stroke-width: 1.5"/>
     <use xlink:href="#m3c19c6db02" x="440.880168" y="21.659881" style="fill-opacity: 0; stroke: #bf00bf; stroke-width: 1.5"/>
     <use xlink:href="#m3c19c6db02" x="440.880168" y="17.827485" style="fill-opacity: 0; stroke: #bf00bf; stroke-width: 1.5"/>
    </g>
   </g>
   <g id="line2d_66">
    <path clip-path="url(#pc7a40a96e4)" style="fill: none; stroke: #bf00bf; stroke-width: 1.5; stroke-linecap: square"/>
   </g>
   <g id="line2d_67">
    <path d="M 301.278548 293.76 
L 301.278548 289.927604 
L 317.275861 289.927604 
L 317.275861 286.095208 
L 320.737057 286.095208 
L 320.737057 282.262812 
L 321.392821 282.262812 
L 321.392821 278.430416 
L 321.645899 278.430416 
L 321.645899 274.59802 
L 321.943893 274.59802 
L 321.943893 270.765624 
L 322.066824 270.765624 
L 322.066824 266.933228 
L 322.220897 266.933228 
L 322.308339 259.268436 
L 322.574946 259.268436 
L 322.574946 255.43604 
L 322.99774 255.43604 
L 323.101752 247.771248 
L 323.163851 247.771248 
L 323.164909 240.106455 
L 323.886446 240.106455 
L 323.886446 236.274059 
L 324.137523 236.274059 
L 324.137523 232.441663 
L 324.831077 232.441663 
L 324.831077 228.609267 
L 324.973073 228.609267 
L 324.973073 224.776871 
L 325.16305 224.776871 
L 325.1875 213.279683 
L 325.296301 213.279683 
L 325.319989 205.614891 
L 325.642905 205.614891 
L 325.642905 201.782495 
L 325.940588 201.782495 
L 325.940588 197.950099 
L 326.233533 197.950099 
L 326.233533 194.117703 
L 331.035582 194.117703 
L 331.035582 190.285307 
L 334.328184 190.285307 
L 334.328184 186.452911 
L 338.22826 186.452911 
L 338.22826 182.620515 
L 338.423295 182.620515 
L 338.423295 178.788119 
L 339.60321 178.788119 
L 339.60321 174.955723 
L 341.427358 174.955723 
L 341.427358 171.123327 
L 341.807262 171.123327 
L 341.807262 167.290931 
L 342.358574 167.290931 
L 342.358574 163.458535 
L 342.603831 163.458535 
L 342.667904 155.793743 
L 342.909062 155.793743 
L 342.909062 151.961347 
L 343.712484 151.961347 
L 343.721766 144.296554 
L 347.725042 144.296554 
L 347.725042 140.464158 
L 349.079734 140.464158 
L 349.079734 136.631762 
L 350.080263 136.631762 
L 350.080263 132.799366 
L 350.428949 132.799366 
L 350.428949 128.96697 
L 350.700719 128.96697 
L 350.737774 121.302178 
L 351.1346 121.302178 
L 351.1346 117.469782 
L 351.30091 117.469782 
L 351.30091 113.637386 
L 351.619593 113.637386 
L 351.619593 109.80499 
L 353.609215 109.80499 
L 353.609215 105.972594 
L 354.258118 105.972594 
L 354.258118 102.140198 
L 360.609036 102.140198 
L 360.609036 94.475406 
L 363.716535 94.475406 
L 363.716535 90.64301 
L 366.816017 90.64301 
L 366.816017 86.810614 
L 368.427161 86.810614 
L 368.427161 82.978218 
L 369.02473 82.978218 
L 369.02473 79.145822 
L 380.899945 79.145822 
L 380.899945 75.313426 
L 423.315317 75.313426 
L 423.332693 67.648634 
L 424.421844 67.648634 
L 424.421844 63.816238 
L 427.402831 63.816238 
L 427.436206 56.151446 
L 427.608052 56.151446 
L 427.608052 52.31905 
L 427.778405 52.31905 
L 427.778405 48.486653 
L 428.208341 48.486653 
L 428.208341 44.654257 
L 429.07687 44.654257 
L 429.07687 40.821861 
L 429.991231 40.821861 
L 429.991231 36.989465 
L 431.181388 36.989465 
L 431.181388 33.157069 
L 431.181388 33.157069 
L 460.8 33.157069 
L 460.8 33.157069 
" clip-path="url(#pc7a40a96e4)" style="fill: none; stroke: #ff0000; stroke-width: 3; stroke-linecap: square"/>
   </g>
   <g id="line2d_68">
    <defs>
     <path id="mc19ee0ee77" d="M -0 14.142136 
L 8.485281 0 
L -0 -14.142136 
L -8.485281 -0 
z
" style="stroke: #ff0000; stroke-width: 3; stroke-linejoin: miter"/>
    </defs>
    <g clip-path="url(#pc7a40a96e4)">
     <use xlink:href="#mc19ee0ee77" x="342.358574" y="167.290931" style="fill-opacity: 0; stroke: #ff0000; stroke-width: 3; stroke-linejoin: miter"/>
     <use xlink:href="#mc19ee0ee77" x="380.899945" y="79.145822" style="fill-opacity: 0; stroke: #ff0000; stroke-width: 3; stroke-linejoin: miter"/>
     <use xlink:href="#mc19ee0ee77" x="431.181388" y="36.989465" style="fill-opacity: 0; stroke: #ff0000; stroke-width: 3; stroke-linejoin: miter"/>
     <use xlink:href="#mc19ee0ee77" x="431.181388" y="33.157069" style="fill-opacity: 0; stroke: #ff0000; stroke-width: 3; stroke-linejoin: miter"/>
    </g>
   </g>
   <g id="line2d_69">
    <path clip-path="url(#pc7a40a96e4)" style="fill: none; stroke: #ff0000; stroke-width: 3; stroke-linecap: square"/>
    <g clip-path="url(#pc7a40a96e4)">
     <use xlink:href="#mc19ee0ee77" x="-1" y="581.189703" style="fill-opacity: 0; stroke: #ff0000; stroke-width: 3; stroke-linejoin: miter"/>
     <use xlink:href="#mc19ee0ee77" x="460.8" y="581.189703" style="fill-opacity: 0; stroke: #ff0000; stroke-width: 3; stroke-linejoin: miter"/>
    </g>
   </g>
   <g id="line2d_70">
    <path d="M 296.826227 293.76 
L 296.826227 289.927604 
L 301.824502 289.927604 
L 301.824502 286.095208 
L 302.450366 286.095208 
L 302.450366 282.262812 
L 302.729068 282.262812 
L 302.729068 278.430416 
L 304.055037 278.430416 
L 304.055037 274.59802 
L 317.140108 274.59802 
L 317.140108 270.765624 
L 317.407207 270.765624 
L 317.407631 263.100832 
L 318.724786 263.100832 
L 318.724786 259.268436 
L 319.822837 259.268436 
L 319.822837 255.43604 
L 319.995826 255.43604 
L 319.995826 251.603644 
L 320.199668 251.603644 
L 320.251194 243.938851 
L 320.501795 243.938851 
L 320.501795 240.106455 
L 320.758391 240.106455 
L 320.785799 232.441663 
L 321.808327 232.441663 
L 321.903542 224.776871 
L 322.411789 224.776871 
L 322.466991 209.447287 
L 322.725455 209.447287 
L 322.729745 201.782495 
L 323.028201 201.782495 
L 323.028201 197.950099 
L 323.46587 197.950099 
L 323.46587 194.117703 
L 323.908824 194.117703 
L 323.908824 190.285307 
L 324.321114 190.285307 
L 324.334695 182.620515 
L 325.238981 182.620515 
L 325.238981 178.788119 
L 329.088763 178.788119 
L 329.088763 174.955723 
L 331.163935 174.955723 
L 331.163935 171.123327 
L 334.745568 171.123327 
L 334.745568 167.290931 
L 339.64245 167.290931 
L 339.64245 163.458535 
L 340.714137 163.458535 
L 340.714137 159.626139 
L 342.409679 159.626139 
L 342.409679 155.793743 
L 342.680515 155.793743 
L 342.680515 151.961347 
L 343.515627 151.961347 
L 343.515627 148.12895 
L 343.626991 148.12895 
L 343.626991 144.296554 
L 344.3635 144.296554 
L 344.3635 140.464158 
L 346.737367 140.464158 
L 346.737367 136.631762 
L 347.747914 136.631762 
L 347.747914 132.799366 
L 350.162476 132.799366 
L 350.25598 121.302178 
L 350.283401 121.302178 
L 350.283401 117.469782 
L 351.559116 117.469782 
L 351.559116 113.637386 
L 353.274929 113.637386 
L 353.274929 109.80499 
L 358.892482 109.80499 
L 358.892482 105.972594 
L 359.966938 105.972594 
L 359.966938 102.140198 
L 361.023141 102.140198 
L 361.023141 98.307802 
L 364.545565 98.307802 
L 364.545565 94.475406 
L 366.457097 94.475406 
L 366.488267 86.810614 
L 366.667587 86.810614 
L 366.667587 82.978218 
L 367.070256 82.978218 
L 367.123205 75.313426 
L 367.676107 75.313426 
L 367.676107 71.48103 
L 379.055085 71.48103 
L 379.055085 67.648634 
L 394.119696 67.648634 
L 394.119696 63.816238 
L 422.938963 63.816238 
L 422.938963 59.983842 
L 424.490642 59.983842 
L 424.518601 52.31905 
L 425.099361 52.31905 
L 425.099361 48.486653 
L 427.142734 48.486653 
L 427.142734 44.654257 
L 428.436683 44.654257 
L 428.436683 40.821861 
L 433.435225 40.821861 
L 433.435225 36.989465 
L 434.859666 36.989465 
L 434.859666 33.157069 
L 439.950839 33.157069 
L 439.950839 29.324673 
L 440.506294 29.324673 
L 440.506294 25.492277 
L 441.639774 25.492277 
L 441.639774 21.659881 
L 441.812535 21.659881 
L 441.812535 17.827485 
L 441.812535 17.827485 
L 460.8 17.827485 
L 460.8 17.827485 
" clip-path="url(#pc7a40a96e4)" style="fill: none; stroke: #ff0000; stroke-width: 3; stroke-linecap: square"/>
   </g>
   <g id="line2d_71">
    <defs>
     <path id="m1d13961285" d="M 0 7.5 
C 1.989023 7.5 3.896849 6.709753 5.303301 5.303301 
C 6.709753 3.896849 7.5 1.989023 7.5 0 
C 7.5 -1.989023 6.709753 -3.896849 5.303301 -5.303301 
C 3.896849 -6.709753 1.989023 -7.5 0 -7.5 
C -1.989023 -7.5 -3.896849 -6.709753 -5.303301 -5.303301 
C -6.709753 -3.896849 -7.5 -1.989023 -7.5 0 
C -7.5 1.989023 -6.709753 3.896849 -5.303301 5.303301 
C -3.896849 6.709753 -1.989023 7.5 0 7.5 
z
" style="stroke: #ff0000; stroke-width: 3"/>
    </defs>
    <g clip-path="url(#pc7a40a96e4)">
     <use xlink:href="#m1d13961285" x="320.251194" y="247.771248" style="fill-opacity: 0; stroke: #ff0000; stroke-width: 3"/>
     <use xlink:href="#m1d13961285" x="343.626991" y="148.12895" style="fill-opacity: 0; stroke: #ff0000; stroke-width: 3"/>
     <use xlink:href="#m1d13961285" x="367.676107" y="75.313426" style="fill-opacity: 0; stroke: #ff0000; stroke-width: 3"/>
     <use xlink:href="#m1d13961285" x="433.435225" y="40.821861" style="fill-opacity: 0; stroke: #ff0000; stroke-width: 3"/>
     <use xlink:href="#m1d13961285" x="441.812535" y="17.827485" style="fill-opacity: 0; stroke: #ff0000; stroke-width: 3"/>
    </g>
   </g>
   <g id="line2d_72">
    <path clip-path="url(#pc7a40a96e4)" style="fill: none; stroke: #ff0000; stroke-width: 3; stroke-linecap: square"/>
   </g>
   <g id="line2d_73">
    <path d="M 441.81859 293.76 
L 441.81859 3.456 
" clip-path="url(#pc7a40a96e4)" style="fill: none; stroke: #000000; stroke-width: 1.5; stroke-linecap: square"/>
    <defs>
     <path id="mc34f7ebbdf" d="M -10 0 
L 10 0 
M 0 10 
L 0 -10 
" style="stroke: #000000; stroke-width: 3"/>
    </defs>
    <g clip-path="url(#pc7a40a96e4)">
     <use xlink:href="#mc34f7ebbdf" x="441.81859" y="293.76" style="stroke: #000000; stroke-width: 3"/>
     <use xlink:href="#mc34f7ebbdf" x="441.81859" y="3.456" style="stroke: #000000; stroke-width: 3"/>
    </g>
   </g>
   <g id="line2d_74">
    <path d="M 441.815796 293.76 
L 441.815796 3.456 
" clip-path="url(#pc7a40a96e4)" style="fill: none; stroke: #000000; stroke-width: 1.5; stroke-linecap: square"/>
    <defs>
     <path id="m0033e3f2ac" d="M 0 7.5 
C 1.989023 7.5 3.896849 6.709753 5.303301 5.303301 
C 6.709753 3.896849 7.5 1.989023 7.5 0 
C 7.5 -1.989023 6.709753 -3.896849 5.303301 -5.303301 
C 3.896849 -6.709753 1.989023 -7.5 0 -7.5 
C -1.989023 -7.5 -3.896849 -6.709753 -5.303301 -5.303301 
C -6.709753 -3.896849 -7.5 -1.989023 -7.5 0 
C -7.5 1.989023 -6.709753 3.896849 -5.303301 5.303301 
C -3.896849 6.709753 -1.989023 7.5 0 7.5 
z
" style="stroke: #000000; stroke-width: 3"/>
    </defs>
    <g clip-path="url(#pc7a40a96e4)">
     <use xlink:href="#m0033e3f2ac" x="441.815796" y="293.76" style="fill-opacity: 0; stroke: #000000; stroke-width: 3"/>
     <use xlink:href="#m0033e3f2ac" x="441.815796" y="3.456" style="fill-opacity: 0; stroke: #000000; stroke-width: 3"/>
    </g>
   </g>
   <g id="patch_3">
    <path d="M 62.208 293.76 
L 62.208 3.456 
" style="fill: none; stroke: #000000; stroke-width: 0.8; stroke-linejoin: miter; stroke-linecap: square"/>
   </g>
   <g id="patch_4">
    <path d="M 460.8 293.76 
L 460.8 3.456 
" style="fill: none; stroke: #000000; stroke-width: 0.8; stroke-linejoin: miter; stroke-linecap: square"/>
   </g>
   <g id="patch_5">
    <path d="M 62.208 293.76 
L 460.8 293.76 
" style="fill: none; stroke: #000000; stroke-width: 0.8; stroke-linejoin: miter; stroke-linecap: square"/>
   </g>
   <g id="patch_6">
    <path d="M 62.208 3.456 
L 460.8 3.456 
" style="fill: none; stroke: #000000; stroke-width: 0.8; stroke-linejoin: miter; stroke-linecap: square"/>
   </g>
   <g id="text_12">
    <!-- f15-f19 -->
    <g transform="translate(225.405563 24.458955)scale(0.2 -0.2)">
     <defs>
      <path id="DejaVuSans-35" d="M 691 4666 
L 3169 4666 
L 3169 4134 
L 1269 4134 
L 1269 2991 
Q 1406 3038 1543 3061 
Q 1681 3084 1819 3084 
Q 2600 3084 3056 2656 
Q 3513 2228 3513 1497 
Q 3513 744 3044 326 
Q 2575 -91 1722 -91 
Q 1428 -91 1123 -41 
Q 819 9 494 109 
L 494 744 
Q 775 591 1075 516 
Q 1375 441 1709 441 
Q 2250 441 2565 725 
Q 2881 1009 2881 1497 
Q 2881 1984 2565 2268 
Q 2250 2553 1709 2553 
Q 1456 2553 1204 2497 
Q 953 2441 691 2322 
L 691 4666 
z
" transform="scale(0.015625)"/>
      <path id="DejaVuSans-2d" d="M 313 2009 
L 1997 2009 
L 1997 1497 
L 313 1497 
L 313 2009 
z
" transform="scale(0.015625)"/>
      <path id="DejaVuSans-39" d="M 703 97 
L 703 672 
Q 941 559 1184 500 
Q 1428 441 1663 441 
Q 2288 441 2617 861 
Q 2947 1281 2994 2138 
Q 2813 1869 2534 1725 
Q 2256 1581 1919 1581 
Q 1219 1581 811 2004 
Q 403 2428 403 3163 
Q 403 3881 828 4315 
Q 1253 4750 1959 4750 
Q 2769 4750 3195 4129 
Q 3622 3509 3622 2328 
Q 3622 1225 3098 567 
Q 2575 -91 1691 -91 
Q 1453 -91 1209 -44 
Q 966 3 703 97 
z
M 1959 2075 
Q 2384 2075 2632 2365 
Q 2881 2656 2881 3163 
Q 2881 3666 2632 3958 
Q 2384 4250 1959 4250 
Q 1534 4250 1286 3958 
Q 1038 3666 1038 3163 
Q 1038 2656 1286 2365 
Q 1534 2075 1959 2075 
z
" transform="scale(0.015625)"/>
     </defs>
     <use xlink:href="#DejaVuSans-66"/>
     <use xlink:href="#DejaVuSans-31" x="35.205078"/>
     <use xlink:href="#DejaVuSans-35" x="98.828125"/>
     <use xlink:href="#DejaVuSans-2d" x="162.451172"/>
     <use xlink:href="#DejaVuSans-66" x="198.535156"/>
     <use xlink:href="#DejaVuSans-31" x="233.740234"/>
     <use xlink:href="#DejaVuSans-39" x="297.363281"/>
    </g>
   </g>
   <g id="text_13">
    <!-- absolute targets -->
    <g transform="translate(62.208 609.932673)scale(0.14 -0.14)">
     <defs>
      <path id="DejaVuSans-62" d="M 3116 1747 
Q 3116 2381 2855 2742 
Q 2594 3103 2138 3103 
Q 1681 3103 1420 2742 
Q 1159 2381 1159 1747 
Q 1159 1113 1420 752 
Q 1681 391 2138 391 
Q 2594 391 2855 752 
Q 3116 1113 3116 1747 
z
M 1159 2969 
Q 1341 3281 1617 3432 
Q 1894 3584 2278 3584 
Q 2916 3584 3314 3078 
Q 3713 2572 3713 1747 
Q 3713 922 3314 415 
Q 2916 -91 2278 -91 
Q 1894 -91 1617 61 
Q 1341 213 1159 525 
L 1159 0 
L 581 0 
L 581 4863 
L 1159 4863 
L 1159 2969 
z
" transform="scale(0.015625)"/>
      <path id="DejaVuSans-75" d="M 544 1381 
L 544 3500 
L 1119 3500 
L 1119 1403 
Q 1119 906 1312 657 
Q 1506 409 1894 409 
Q 2359 409 2629 706 
Q 2900 1003 2900 1516 
L 2900 3500 
L 3475 3500 
L 3475 0 
L 2900 0 
L 2900 538 
Q 2691 219 2414 64 
Q 2138 -91 1772 -91 
Q 1169 -91 856 284 
Q 544 659 544 1381 
z
M 1991 3584 
L 1991 3584 
z
" transform="scale(0.015625)"/>
      <path id="DejaVuSans-65" d="M 3597 1894 
L 3597 1613 
L 953 1613 
Q 991 1019 1311 708 
Q 1631 397 2203 397 
Q 2534 397 2845 478 
Q 3156 559 3463 722 
L 3463 178 
Q 3153 47 2828 -22 
Q 2503 -91 2169 -91 
Q 1331 -91 842 396 
Q 353 884 353 1716 
Q 353 2575 817 3079 
Q 1281 3584 2069 3584 
Q 2775 3584 3186 3129 
Q 3597 2675 3597 1894 
z
M 3022 2063 
Q 3016 2534 2758 2815 
Q 2500 3097 2075 3097 
Q 1594 3097 1305 2825 
Q 1016 2553 972 2059 
L 3022 2063 
z
" transform="scale(0.015625)"/>
     </defs>
     <use xlink:href="#DejaVuSans-61"/>
     <use xlink:href="#DejaVuSans-62" x="61.279297"/>
     <use xlink:href="#DejaVuSans-73" x="124.755859"/>
     <use xlink:href="#DejaVuSans-6f" x="176.855469"/>
     <use xlink:href="#DejaVuSans-6c" x="238.037109"/>
     <use xlink:href="#DejaVuSans-75" x="265.820312"/>
     <use xlink:href="#DejaVuSans-74" x="329.199219"/>
     <use xlink:href="#DejaVuSans-65" x="368.408203"/>
     <use xlink:href="#DejaVuSans-20" x="429.931641"/>
     <use xlink:href="#DejaVuSans-74" x="461.71875"/>
     <use xlink:href="#DejaVuSans-61" x="500.927734"/>
     <use xlink:href="#DejaVuSans-72" x="562.207031"/>
     <use xlink:href="#DejaVuSans-67" x="601.570312"/>
     <use xlink:href="#DejaVuSans-65" x="665.046875"/>
     <use xlink:href="#DejaVuSans-74" x="726.570312"/>
     <use xlink:href="#DejaVuSans-73" x="765.779297"/>
    </g>
   </g>
   <g id="text_14">
    <!-- v2.6.1.158 -->
    <g style="fill: #808080" transform="translate(234.689938 288.777272)scale(0.1 -0.1)">
     <use xlink:href="#DejaVuSans-76"/>
     <use xlink:href="#DejaVuSans-32" x="59.179688"/>
     <use xlink:href="#DejaVuSans-2e" x="122.802734"/>
     <use xlink:href="#DejaVuSans-36" x="154.589844"/>
     <use xlink:href="#DejaVuSans-2e" x="218.212891"/>
     <use xlink:href="#DejaVuSans-31" x="250"/>
     <use xlink:href="#DejaVuSans-2e" x="313.623047"/>
     <use xlink:href="#DejaVuSans-31" x="345.410156"/>
     <use xlink:href="#DejaVuSans-35" x="409.033203"/>
     <use xlink:href="#DejaVuSans-38" x="472.65625"/>
    </g>
   </g>
   <g id="legend_1">
    <g id="patch_7">
     <path d="M 76.208 136.881 
L 160.148625 136.881 
Q 164.148625 136.881 164.148625 132.881 
L 164.148625 17.456 
Q 164.148625 13.456 160.148625 13.456 
L 76.208 13.456 
Q 72.208 13.456 72.208 17.456 
L 72.208 132.881 
Q 72.208 136.881 76.208 136.881 
z
" style="fill: #ffffff; opacity: 0.2; stroke: #cccccc; stroke-linejoin: miter"/>
    </g>
    <g id="line2d_75">
     <path d="M 80.208 29.652875 
L 80.208 29.652875 
L 100.208 29.652875 
L 100.208 29.652875 
L 120.208 29.652875 
" style="fill: none; stroke: #000000; stroke-width: 1.5; stroke-linecap: square"/>
    </g>
    <g id="text_15">
     <!-- 1 -->
     <g transform="translate(136.208 36.652875)scale(0.2 -0.2)">
      <use xlink:href="#DejaVuSans-31"/>
     </g>
    </g>
    <g id="line2d_76">
     <path d="M 80.208 59.009125 
L 80.208 59.009125 
L 100.208 59.009125 
L 100.208 59.009125 
L 120.208 59.009125 
" style="fill: none; stroke: #00bfbf; stroke-width: 1.5; stroke-linecap: square"/>
    </g>
    <g id="text_16">
     <!-- -1 -->
     <g transform="translate(136.208 66.009125)scale(0.2 -0.2)">
      <use xlink:href="#DejaVuSans-2d"/>
      <use xlink:href="#DejaVuSans-31" x="36.083984"/>
     </g>
    </g>
    <g id="line2d_77">
     <path d="M 80.208 88.365375 
L 80.208 88.365375 
L 100.208 88.365375 
L 100.208 88.365375 
L 120.208 88.365375 
" style="fill: none; stroke: #bf00bf; stroke-width: 1.5; stroke-linecap: square"/>
    </g>
    <g id="text_17">
     <!-- -4 -->
     <g transform="translate(136.208 95.365375)scale(0.2 -0.2)">
      <use xlink:href="#DejaVuSans-2d"/>
      <use xlink:href="#DejaVuSans-34" x="36.083984"/>
     </g>
    </g>
    <g id="line2d_78">
     <path d="M 80.208 117.721625 
L 80.208 117.721625 
L 100.208 117.721625 
L 100.208 117.721625 
L 120.208 117.721625 
" style="fill: none; stroke: #ff0000; stroke-width: 3; stroke-linecap: square"/>
    </g>
    <g id="text_18">
     <!-- -8 -->
     <g transform="translate(136.208 124.721625)scale(0.2 -0.2)">
      <use xlink:href="#DejaVuSans-2d"/>
      <use xlink:href="#DejaVuSans-38" x="36.083984"/>
     </g>
    </g>
   </g>
  </g>
 </g>
 <defs>
  <clipPath id="pc7a40a96e4">
   <rect x="62.208" y="3.456" width="398.592" height="290.304"/>
  </clipPath>
 </defs>
</svg>
