<?xml version="1.0" encoding="utf-8" standalone="no"?>
<!DOCTYPE svg PUBLIC "-//W3C//DTD SVG 1.1//EN"
  "http://www.w3.org/Graphics/SVG/1.1/DTD/svg11.dtd">
<svg xmlns:xlink="http://www.w3.org/1999/xlink" width="460.8pt" height="345.6pt" viewBox="0 0 460.8 345.6" xmlns="http://www.w3.org/2000/svg" version="1.1">
 <metadata>
  <rdf:RDF xmlns:dc="http://purl.org/dc/elements/1.1/" xmlns:cc="http://creativecommons.org/ns#" xmlns:rdf="http://www.w3.org/1999/02/22-rdf-syntax-ns#">
   <cc:Work>
    <dc:type rdf:resource="http://purl.org/dc/dcmitype/StillImage"/>
    <dc:date>2023-04-06T08:59:10.229595</dc:date>
    <dc:format>image/svg+xml</dc:format>
    <dc:creator>
     <cc:Agent>
      <dc:title>Matplotlib v3.5.2, https://matplotlib.org/</dc:title>
     </cc:Agent>
    </dc:creator>
   </cc:Work>
  </rdf:RDF>
 </metadata>
 <defs>
  <style type="text/css">*{stroke-linejoin: round; stroke-linecap: butt}</style>
 </defs>
 <g id="figure_1">
  <g id="patch_1">
   <path d="M 0 345.6 
L 460.8 345.6 
L 460.8 0 
L 0 0 
z
" style="fill: #ffffff"/>
  </g>
  <g id="axes_1">
   <g id="patch_2">
    <path d="M 62.208 293.76 
L 460.8 293.76 
L 460.8 3.456 
L 62.208 3.456 
z
" style="fill: #ffffff"/>
   </g>
   <g id="line2d_1"/>
   <g id="line2d_2">
    <path d="M 363.836752 293.76 
L 363.836752 282.262812 
L 367.73364 282.262812 
L 367.73364 270.765624 
L 367.73364 270.765624 
L 367.73364 270.765624 
L 460.8 270.765624 
" clip-path="url(#p7d9850ab97)" style="fill: none; stroke: #f5deb3; stroke-width: 1.5; stroke-linecap: square"/>
   </g>
   <g id="line2d_3"/>
   <g id="line2d_4"/>
   <g id="line2d_5"/>
   <g id="line2d_6"/>
   <g id="line2d_7">
    <path d="M 330.047558 293.76 
L 330.047558 289.927604 
L 353.267335 289.927604 
L 353.267335 286.095208 
L 358.962802 286.095208 
L 358.962802 282.262812 
L 359.4537 282.262812 
L 359.4537 278.430416 
L 360.106839 278.430416 
L 360.106839 274.59802 
L 364.403294 274.59802 
L 364.403294 270.765624 
L 364.607687 270.765624 
L 364.607687 266.933228 
L 366.77467 266.933228 
L 366.77467 263.100832 
L 372.180898 263.100832 
L 372.180898 259.268436 
L 377.11243 259.268436 
L 377.11243 255.43604 
L 377.470489 255.43604 
L 377.470489 251.603644 
L 378.716588 251.603644 
L 378.716588 247.771248 
L 388.544567 247.771248 
L 388.544567 243.938851 
L 392.982501 243.938851 
L 392.982501 240.106455 
L 395.878883 240.106455 
L 395.878883 236.274059 
L 399.366383 236.274059 
L 399.366383 232.441663 
L 401.006493 232.441663 
L 401.006493 228.609267 
L 402.297821 228.609267 
L 402.297821 224.776871 
L 405.667172 224.776871 
L 405.712708 217.112079 
L 405.807426 217.112079 
L 405.807426 213.279683 
L 406.950239 213.279683 
L 406.950239 209.447287 
L 411.084562 209.447287 
L 411.084562 205.614891 
L 415.511281 205.614891 
L 415.511281 201.782495 
L 424.213071 201.782495 
L 424.213071 197.950099 
L 424.725153 197.950099 
L 424.725153 194.117703 
L 428.006015 194.117703 
L 428.006015 190.285307 
L 432.330736 190.285307 
L 432.330736 186.452911 
L 434.569098 186.452911 
L 434.569098 182.620515 
L 436.851263 182.620515 
L 436.851263 178.788119 
L 441.611563 178.788119 
L 441.611563 174.955723 
L 443.404812 174.955723 
L 443.404812 171.123327 
L 444.057941 171.123327 
L 444.057941 167.290931 
L 447.793044 167.290931 
L 447.793044 163.458535 
L 449.286685 163.458535 
L 449.286685 159.626139 
L 454.090772 159.626139 
L 454.090772 155.793743 
L 456.043484 155.793743 
L 456.043484 151.961347 
L 461.359925 151.961347 
L 461.359925 148.12895 
L 461.8 148.12895 
L 461.8 148.12895 
" clip-path="url(#p7d9850ab97)" style="fill: none; stroke: #f5deb3; stroke-width: 1.5; stroke-linecap: square"/>
   </g>
   <g id="line2d_8">
    <path d="M 347.094653 293.76 
L 347.094653 289.927604 
L 348.429133 289.927604 
L 348.429133 286.095208 
L 348.839146 286.095208 
L 348.839146 282.262812 
L 349.009984 282.262812 
L 349.009984 278.430416 
L 349.49945 278.430416 
L 349.49945 274.59802 
L 349.513925 274.59802 
L 349.513925 270.765624 
L 363.420102 270.765624 
L 363.420102 266.933228 
L 364.252397 266.933228 
L 364.252397 263.100832 
L 364.842065 263.100832 
L 364.842065 259.268436 
L 364.912697 259.268436 
L 364.912697 255.43604 
L 365.331339 255.43604 
L 365.331339 251.603644 
L 365.728673 251.603644 
L 365.728673 247.771248 
L 365.734399 247.771248 
L 365.734399 243.938851 
L 366.08315 243.938851 
L 366.08315 240.106455 
L 366.099071 240.106455 
L 366.099071 236.274059 
L 366.383204 236.274059 
L 366.383204 232.441663 
L 367.836829 232.441663 
L 367.836829 228.609267 
L 402.773529 228.609267 
L 402.773529 224.776871 
L 403.303483 224.776871 
L 403.303483 220.944475 
L 403.303483 220.944475 
L 403.303483 220.944475 
L 460.8 220.944475 
" clip-path="url(#p7d9850ab97)" style="fill: none; stroke: #f5deb3; stroke-width: 1.5; stroke-linecap: square"/>
   </g>
   <g id="line2d_9">
    <path d="M 234.922489 293.76 
L 234.922489 289.927604 
L 271.823072 289.927604 
L 271.823072 286.095208 
L 272.383008 286.095208 
L 272.383008 282.262812 
L 273.074324 282.262812 
L 273.074324 278.430416 
L 276.011249 278.430416 
L 276.011249 274.59802 
L 279.973804 274.59802 
L 279.973804 270.765624 
L 280.433327 270.765624 
L 280.433327 266.933228 
L 280.588695 266.933228 
L 280.588695 263.100832 
L 281.429611 263.100832 
L 281.440383 255.43604 
L 281.687132 255.43604 
L 281.687132 251.603644 
L 281.995484 251.603644 
L 281.995484 247.771248 
L 288.995408 247.771248 
L 288.995408 243.938851 
L 293.817525 243.938851 
L 293.817525 240.106455 
L 294.564396 240.106455 
L 294.564396 236.274059 
L 295.434838 236.274059 
L 295.434838 232.441663 
L 296.137565 232.441663 
L 296.137565 228.609267 
L 297.216287 228.609267 
L 297.26812 220.944475 
L 301.687136 220.944475 
L 301.687136 217.112079 
L 302.684648 217.112079 
L 302.684648 213.279683 
L 303.500525 213.279683 
L 303.500525 209.447287 
L 303.735388 209.447287 
L 303.735388 205.614891 
L 303.994572 205.614891 
L 303.994572 201.782495 
L 304.116867 201.782495 
L 304.194677 194.117703 
L 304.300702 194.117703 
L 304.300702 190.285307 
L 304.52962 190.285307 
L 304.52962 186.452911 
L 305.488489 186.452911 
L 305.582769 178.788119 
L 305.750771 178.788119 
L 305.750771 174.955723 
L 306.169277 174.955723 
L 306.169277 171.123327 
L 306.785468 171.123327 
L 306.785468 167.290931 
L 307.694388 167.290931 
L 307.733712 159.626139 
L 308.160743 159.626139 
L 308.160743 155.793743 
L 309.077406 155.793743 
L 309.159213 148.12895 
L 312.799506 148.12895 
L 312.799506 144.296554 
L 318.094454 144.296554 
L 318.094454 140.464158 
L 318.346879 140.464158 
L 318.383007 132.799366 
L 319.439856 132.799366 
L 319.439856 128.96697 
L 323.169711 128.96697 
L 323.169711 125.134574 
L 324.863255 125.134574 
L 324.863255 121.302178 
L 325.855906 121.302178 
L 325.855906 117.469782 
L 327.954235 117.469782 
L 327.954235 113.637386 
L 328.387897 113.637386 
L 328.387897 109.80499 
L 329.314945 109.80499 
L 329.314945 105.972594 
L 330.020479 105.972594 
L 330.020479 102.140198 
L 330.19046 102.140198 
L 330.19046 98.307802 
L 334.610657 98.307802 
L 334.610657 94.475406 
L 336.169027 94.475406 
L 336.194951 86.810614 
L 336.653363 86.810614 
L 336.653363 82.978218 
L 336.988054 82.978218 
L 336.988054 79.145822 
L 337.12488 79.145822 
L 337.12488 75.313426 
L 339.126676 75.313426 
L 339.126676 71.48103 
L 341.245836 71.48103 
L 341.245836 67.648634 
L 341.427033 67.648634 
L 341.427033 63.816238 
L 344.098709 63.816238 
L 344.098709 59.983842 
L 346.275749 59.983842 
L 346.275749 56.151446 
L 348.81387 56.151446 
L 348.81387 52.31905 
L 349.367052 52.31905 
L 349.367052 48.486653 
L 362.786041 48.486653 
L 362.786041 44.654257 
L 368.536308 44.654257 
L 368.536308 40.821861 
L 368.659355 40.821861 
L 368.659355 36.989465 
L 371.558087 36.989465 
L 371.558087 33.157069 
L 379.74113 33.157069 
L 379.74113 29.324673 
L 381.196513 29.324673 
L 381.196513 25.492277 
L 385.350253 25.492277 
L 385.350253 21.659881 
L 389.96429 21.659881 
L 389.96429 17.827485 
L 391.492664 17.827485 
L 391.57632 10.162693 
L 403.772164 10.162693 
L 403.772164 6.330297 
L 403.772164 6.330297 
L 460.8 6.330297 
L 460.8 6.330297 
" clip-path="url(#p7d9850ab97)" style="fill: none; stroke: #f5deb3; stroke-width: 1.5; stroke-linecap: square"/>
   </g>
   <g id="line2d_10"/>
   <g id="line2d_11">
    <path d="M 380.141316 293.76 
L 380.141316 289.927604 
L 424.42853 289.927604 
L 424.42853 286.095208 
L 430.943955 286.095208 
L 430.943955 282.262812 
L 437.827808 282.262812 
L 437.827808 278.430416 
L 438.957988 278.430416 
L 438.957988 274.59802 
L 461.8 274.59802 
" clip-path="url(#p7d9850ab97)" style="fill: none; stroke: #f5deb3; stroke-width: 1.5; stroke-linecap: square"/>
   </g>
   <g id="line2d_12"/>
   <g id="line2d_13"/>
   <g id="line2d_14"/>
   <g id="line2d_15"/>
   <g id="line2d_16"/>
   <g id="line2d_17">
    <path d="M 341.05487 293.76 
L 341.05487 289.927604 
L 343.158787 289.927604 
L 343.158787 286.095208 
L 344.080043 286.095208 
L 344.080043 282.262812 
L 345.32932 282.262812 
L 345.32932 278.430416 
L 347.753103 278.430416 
L 347.753103 274.59802 
L 347.865211 274.59802 
L 347.865211 270.765624 
L 349.023464 270.765624 
L 349.023464 266.933228 
L 349.343415 266.933228 
L 349.343415 263.100832 
L 349.469272 263.100832 
L 349.469272 259.268436 
L 352.420618 259.268436 
L 352.420618 255.43604 
L 352.852005 255.43604 
L 352.852005 251.603644 
L 359.562132 251.603644 
L 359.562132 247.771248 
L 365.267103 247.771248 
L 365.267103 243.938851 
L 365.341126 243.938851 
L 365.341126 240.106455 
L 365.384587 240.106455 
L 365.384587 236.274059 
L 367.852211 236.274059 
L 367.852211 232.441663 
L 368.492128 232.441663 
L 368.492128 228.609267 
L 370.692728 228.609267 
L 370.692728 224.776871 
L 371.775135 224.776871 
L 371.775135 220.944475 
L 372.625619 220.944475 
L 372.625619 217.112079 
L 373.764311 217.112079 
L 373.764311 213.279683 
L 375.141936 213.279683 
L 375.141936 209.447287 
L 379.091458 209.447287 
L 379.091458 205.614891 
L 379.918745 205.614891 
L 379.918745 201.782495 
L 381.801718 201.782495 
L 381.801718 197.950099 
L 382.709768 197.950099 
L 382.709768 194.117703 
L 385.012907 194.117703 
L 385.012907 190.285307 
L 386.046762 190.285307 
L 386.046762 186.452911 
L 386.046762 186.452911 
L 386.046762 186.452911 
L 460.8 186.452911 
" clip-path="url(#p7d9850ab97)" style="fill: none; stroke: #f5deb3; stroke-width: 1.5; stroke-linecap: square"/>
   </g>
   <g id="line2d_18"/>
   <g id="line2d_19">
    <path d="M 356.108065 293.76 
L 356.108065 289.927604 
L 385.38413 289.927604 
L 385.38413 286.095208 
L 393.881237 286.095208 
L 393.881237 282.262812 
L 396.703212 282.262812 
L 396.703212 278.430416 
L 404.003464 278.430416 
L 404.003464 274.59802 
L 408.821594 274.59802 
L 408.821594 270.765624 
L 409.797388 270.765624 
L 409.797388 266.933228 
L 410.971174 266.933228 
L 410.971174 263.100832 
L 413.087916 263.100832 
L 413.087916 259.268436 
L 415.08476 259.268436 
L 415.08476 255.43604 
L 415.247439 255.43604 
L 415.247439 251.603644 
L 416.426595 251.603644 
L 416.426595 247.771248 
L 419.054035 247.771248 
L 419.054035 243.938851 
L 428.057595 243.938851 
L 428.057595 240.106455 
L 428.914105 240.106455 
L 428.914105 236.274059 
L 430.144132 236.274059 
L 430.144132 232.441663 
L 432.112478 232.441663 
L 432.112478 228.609267 
L 441.545933 228.609267 
L 441.545933 224.776871 
L 442.177693 224.776871 
L 442.177693 220.944475 
L 449.335236 220.944475 
L 449.335236 217.112079 
L 450.021765 217.112079 
L 450.021765 213.279683 
L 452.161493 213.279683 
L 452.161493 209.447287 
L 455.567251 209.447287 
L 455.567251 205.614891 
L 457.539917 205.614891 
L 457.539917 201.782495 
L 459.020892 201.782495 
L 459.020892 197.950099 
L 461.8 197.950099 
L 461.8 197.950099 
" clip-path="url(#p7d9850ab97)" style="fill: none; stroke: #f5deb3; stroke-width: 1.5; stroke-linecap: square"/>
   </g>
   <g id="line2d_20">
    <path d="M 342.381287 293.76 
L 342.381287 289.927604 
L 342.381287 289.927604 
L 342.381287 289.927604 
L 460.8 289.927604 
" clip-path="url(#p7d9850ab97)" style="fill: none; stroke: #f5deb3; stroke-width: 1.5; stroke-linecap: square"/>
   </g>
   <g id="line2d_21"/>
   <g id="line2d_22">
    <path d="M 356.23608 293.76 
L 356.23608 289.927604 
L 374.888371 289.927604 
L 374.888371 286.095208 
L 393.797763 286.095208 
L 393.797763 282.262812 
L 402.964192 282.262812 
L 402.964192 278.430416 
L 416.995068 278.430416 
L 416.995068 274.59802 
L 416.995068 274.59802 
L 416.995068 274.59802 
L 460.8 274.59802 
" clip-path="url(#p7d9850ab97)" style="fill: none; stroke: #f5deb3; stroke-width: 1.5; stroke-linecap: square"/>
   </g>
   <g id="line2d_23">
    <path d="M 372.726669 293.76 
L 372.726669 289.927604 
L 379.594363 289.927604 
L 379.594363 286.095208 
L 379.594363 286.095208 
L 379.594363 286.095208 
L 460.8 286.095208 
" clip-path="url(#p7d9850ab97)" style="fill: none; stroke: #f5deb3; stroke-width: 1.5; stroke-linecap: square"/>
   </g>
   <g id="line2d_24">
    <path d="M 262.078753 293.76 
L 262.078753 289.927604 
L 264.815722 289.927604 
L 264.815722 286.095208 
L 266.488937 286.095208 
L 266.488937 282.262812 
L 270.565221 282.262812 
L 270.565221 278.430416 
L 273.200936 278.430416 
L 273.200936 274.59802 
L 322.005666 274.59802 
L 322.005666 270.765624 
L 323.576489 270.765624 
L 323.576489 266.933228 
L 323.940977 266.933228 
L 323.940977 263.100832 
L 324.069731 263.100832 
L 324.069731 259.268436 
L 325.299884 259.268436 
L 325.299884 255.43604 
L 325.571975 255.43604 
L 325.651322 247.771248 
L 326.931498 247.771248 
L 326.931498 243.938851 
L 327.229274 243.938851 
L 327.300811 236.274059 
L 327.461783 236.274059 
L 327.461783 232.441663 
L 327.759403 232.441663 
L 327.759403 228.609267 
L 329.897197 228.609267 
L 329.897197 224.776871 
L 331.838903 224.776871 
L 331.838903 220.944475 
L 332.319587 220.944475 
L 332.319587 217.112079 
L 332.50042 217.112079 
L 332.50042 213.279683 
L 333.212396 213.279683 
L 333.212396 209.447287 
L 333.364819 209.447287 
L 333.364819 205.614891 
L 333.571929 205.614891 
L 333.649367 197.950099 
L 334.014832 197.950099 
L 334.119879 190.285307 
L 334.525817 190.285307 
L 334.525817 186.452911 
L 334.861867 186.452911 
L 334.960244 178.788119 
L 335.188588 178.788119 
L 335.188588 174.955723 
L 335.420012 174.955723 
L 335.453203 167.290931 
L 336.762601 167.290931 
L 336.778954 159.626139 
L 337.235162 159.626139 
L 337.235162 155.793743 
L 337.872986 155.793743 
L 337.872986 151.961347 
L 338.838156 151.961347 
L 338.838156 148.12895 
L 339.090441 148.12895 
L 339.090441 144.296554 
L 341.704229 144.296554 
L 341.704229 140.464158 
L 343.353469 140.464158 
L 343.353469 136.631762 
L 347.43626 136.631762 
L 347.43626 132.799366 
L 352.921793 132.799366 
L 352.921793 128.96697 
L 353.065205 128.96697 
L 353.065205 125.134574 
L 353.746205 125.134574 
L 353.746205 121.302178 
L 355.443527 121.302178 
L 355.443527 117.469782 
L 356.294799 117.469782 
L 356.294799 113.637386 
L 357.804165 113.637386 
L 357.804165 109.80499 
L 358.680758 109.80499 
L 358.680758 105.972594 
L 362.712769 105.972594 
L 362.712769 102.140198 
L 366.541568 102.140198 
L 366.541568 98.307802 
L 367.226487 98.307802 
L 367.226487 94.475406 
L 370.580242 94.475406 
L 370.580242 90.64301 
L 375.622381 90.64301 
L 375.622381 86.810614 
L 376.434475 86.810614 
L 376.434475 82.978218 
L 378.134625 82.978218 
L 378.170629 75.313426 
L 378.387925 75.313426 
L 378.387925 71.48103 
L 380.423723 71.48103 
L 380.423723 67.648634 
L 381.426792 67.648634 
L 381.426792 63.816238 
L 398.49324 63.816238 
L 398.49324 59.983842 
L 399.178135 59.983842 
L 399.178135 56.151446 
L 400.253072 56.151446 
L 400.253072 52.31905 
L 403.707555 52.31905 
L 403.707555 48.486653 
L 409.417675 48.486653 
L 409.417675 44.654257 
L 413.875994 44.654257 
L 413.875994 40.821861 
L 414.348465 40.821861 
L 414.348465 36.989465 
L 418.482183 36.989465 
L 418.482183 33.157069 
L 420.443648 33.157069 
L 420.443648 29.324673 
L 426.90754 29.324673 
L 426.90754 25.492277 
L 429.325086 25.492277 
L 429.325086 21.659881 
L 434.515876 21.659881 
L 434.515876 17.827485 
L 435.871707 17.827485 
L 435.871707 13.995089 
L 439.700097 13.995089 
L 439.700097 10.162693 
L 451.061188 10.162693 
L 451.061188 6.330297 
L 451.061188 6.330297 
L 460.8 6.330297 
L 460.8 6.330297 
" clip-path="url(#p7d9850ab97)" style="fill: none; stroke: #f5deb3; stroke-width: 1.5; stroke-linecap: square"/>
   </g>
   <g id="line2d_25">
    <path d="M 356.691753 293.76 
L 356.691753 289.927604 
L 359.293862 289.927604 
L 359.293862 286.095208 
L 359.451948 286.095208 
L 359.451948 282.262812 
L 360.559008 282.262812 
L 360.559008 278.430416 
L 361.982508 278.430416 
L 361.982508 274.59802 
L 362.53716 274.59802 
L 362.53716 270.765624 
L 362.773841 270.765624 
L 362.773841 266.933228 
L 363.440528 266.933228 
L 363.440528 263.100832 
L 363.472105 263.100832 
L 363.472105 259.268436 
L 365.229661 259.268436 
L 365.229661 255.43604 
L 366.184901 255.43604 
L 366.184901 251.603644 
L 384.045923 251.603644 
L 384.045923 247.771248 
L 384.592352 247.771248 
L 384.592352 243.938851 
L 385.02407 243.938851 
L 385.02407 240.106455 
L 385.39478 240.106455 
L 385.39478 236.274059 
L 385.483263 236.274059 
L 385.483263 232.441663 
L 385.70187 232.441663 
L 385.70187 228.609267 
L 386.012109 228.609267 
L 386.012109 224.776871 
L 386.042852 224.776871 
L 386.042852 220.944475 
L 386.109449 220.944475 
L 386.109449 217.112079 
L 386.11075 217.112079 
L 386.11075 213.279683 
L 386.136383 213.279683 
L 386.136383 209.447287 
L 386.144922 209.447287 
L 386.144922 205.614891 
L 386.198334 205.614891 
L 386.198334 201.782495 
L 386.336813 201.782495 
L 386.336813 197.950099 
L 386.358757 197.950099 
L 386.358757 194.117703 
L 386.464207 194.117703 
L 386.464207 190.285307 
L 386.774427 190.285307 
L 386.774427 186.452911 
L 386.914534 186.452911 
L 386.914534 182.620515 
L 386.943674 182.620515 
L 386.943674 178.788119 
L 387.022269 178.788119 
L 387.022269 174.955723 
L 387.070052 174.955723 
L 387.070052 171.123327 
L 387.316095 171.123327 
L 387.316095 167.290931 
L 387.413898 167.290931 
L 387.413898 163.458535 
L 387.594948 163.458535 
L 387.594948 159.626139 
L 392.688386 159.626139 
L 392.688386 155.793743 
L 414.782993 155.793743 
L 414.782993 151.961347 
L 414.782993 151.961347 
L 414.782993 151.961347 
L 460.8 151.961347 
" clip-path="url(#p7d9850ab97)" style="fill: none; stroke: #f5deb3; stroke-width: 1.5; stroke-linecap: square"/>
   </g>
   <g id="line2d_26">
    <path d="M 310.6719 293.76 
L 310.6719 289.927604 
L 313.094683 289.927604 
L 313.094683 286.095208 
L 319.683206 286.095208 
L 319.683206 282.262812 
L 320.705083 282.262812 
L 320.705083 278.430416 
L 321.796077 278.430416 
L 321.796077 274.59802 
L 323.173932 274.59802 
L 323.173932 270.765624 
L 325.48459 270.765624 
L 325.48459 266.933228 
L 331.701258 266.933228 
L 331.701258 263.100832 
L 334.811593 263.100832 
L 334.811593 259.268436 
L 342.900282 259.268436 
L 342.900282 255.43604 
L 344.633803 255.43604 
L 344.633803 251.603644 
L 353.408634 251.603644 
L 353.408634 247.771248 
L 358.592176 247.771248 
L 358.592176 243.938851 
L 359.381348 243.938851 
L 359.381348 240.106455 
L 364.412631 240.106455 
L 364.412631 236.274059 
L 368.978563 236.274059 
L 368.978563 232.441663 
L 370.946765 232.441663 
L 370.946765 228.609267 
L 373.353065 228.609267 
L 373.353065 224.776871 
L 375.340419 224.776871 
L 375.340419 220.944475 
L 376.060617 220.944475 
L 376.060617 217.112079 
L 376.060617 217.112079 
L 376.060617 217.112079 
L 460.8 217.112079 
" clip-path="url(#p7d9850ab97)" style="fill: none; stroke: #f5deb3; stroke-width: 1.5; stroke-linecap: square"/>
   </g>
   <g id="line2d_27"/>
   <g id="line2d_28">
    <path d="M 254.048044 293.76 
L 254.048044 289.927604 
L 265.299163 289.927604 
L 265.299163 286.095208 
L 301.282977 286.095208 
L 301.282977 282.262812 
L 312.037996 282.262812 
L 312.037996 278.430416 
L 315.122467 278.430416 
L 315.122467 274.59802 
L 316.945368 274.59802 
L 316.945368 270.765624 
L 331.648814 270.765624 
L 331.648814 266.933228 
L 332.30281 266.933228 
L 332.30281 263.100832 
L 333.888503 263.100832 
L 333.888503 259.268436 
L 334.558025 259.268436 
L 334.558025 255.43604 
L 335.447515 255.43604 
L 335.447515 251.603644 
L 337.256635 251.603644 
L 337.256635 247.771248 
L 338.123626 247.771248 
L 338.123626 243.938851 
L 339.021224 243.938851 
L 339.021224 240.106455 
L 339.551589 240.106455 
L 339.551589 236.274059 
L 344.47041 236.274059 
L 344.47041 232.441663 
L 344.657779 232.441663 
L 344.657779 228.609267 
L 345.136943 228.609267 
L 345.206281 220.944475 
L 345.480034 220.944475 
L 345.480034 217.112079 
L 352.051592 217.112079 
L 352.051592 213.279683 
L 353.682464 213.279683 
L 353.682464 209.447287 
L 354.415183 209.447287 
L 354.415183 205.614891 
L 354.986746 205.614891 
L 354.986746 201.782495 
L 355.441035 201.782495 
L 355.521163 194.117703 
L 357.329938 194.117703 
L 357.329938 190.285307 
L 357.465637 190.285307 
L 357.465637 186.452911 
L 357.918494 186.452911 
L 357.918494 182.620515 
L 360.683453 182.620515 
L 360.683453 178.788119 
L 361.876134 178.788119 
L 361.876134 174.955723 
L 362.022859 174.955723 
L 362.022859 171.123327 
L 362.211009 171.123327 
L 362.211009 167.290931 
L 362.863066 167.290931 
L 362.863066 163.458535 
L 363.771637 163.458535 
L 363.771637 159.626139 
L 364.889907 159.626139 
L 364.892113 151.961347 
L 365.140055 151.961347 
L 365.140055 148.12895 
L 366.093765 148.12895 
L 366.093765 144.296554 
L 366.45462 144.296554 
L 366.45462 140.464158 
L 367.031448 140.464158 
L 367.031448 136.631762 
L 367.42336 136.631762 
L 367.42336 132.799366 
L 367.96167 132.799366 
L 367.96167 128.96697 
L 368.275226 128.96697 
L 368.275226 125.134574 
L 369.731551 125.134574 
L 369.731551 121.302178 
L 371.098919 121.302178 
L 371.098919 117.469782 
L 371.250932 117.469782 
L 371.250932 113.637386 
L 371.750668 113.637386 
L 371.750668 109.80499 
L 372.981408 109.80499 
L 372.981408 105.972594 
L 373.762653 105.972594 
L 373.762653 102.140198 
L 380.736297 102.140198 
L 380.736297 98.307802 
L 383.435289 98.307802 
L 383.435289 94.475406 
L 387.395539 94.475406 
L 387.395539 90.64301 
L 387.738292 90.64301 
L 387.738292 86.810614 
L 388.066142 86.810614 
L 388.066142 82.978218 
L 390.486662 82.978218 
L 390.486662 79.145822 
L 390.951141 79.145822 
L 390.951141 75.313426 
L 395.087141 75.313426 
L 395.087141 71.48103 
L 396.147664 71.48103 
L 396.147664 67.648634 
L 399.972131 67.648634 
L 399.972131 63.816238 
L 400.125353 63.816238 
L 400.125353 59.983842 
L 418.820015 59.983842 
L 418.820015 56.151446 
L 418.966193 56.151446 
L 418.966193 52.31905 
L 419.207004 52.31905 
L 419.207004 48.486653 
L 421.686756 48.486653 
L 421.686756 44.654257 
L 429.501484 44.654257 
L 429.501484 40.821861 
L 453.510085 40.821861 
L 453.510085 36.989465 
L 455.08563 36.989465 
L 455.08563 33.157069 
L 456.147786 33.157069 
L 456.147786 29.324673 
L 459.194836 29.324673 
L 459.194836 25.492277 
L 460.317599 25.492277 
L 460.317599 21.659881 
L 461.8 21.659881 
L 461.8 21.659881 
" clip-path="url(#p7d9850ab97)" style="fill: none; stroke: #f5deb3; stroke-width: 1.5; stroke-linecap: square"/>
   </g>
   <g id="line2d_29"/>
   <g id="line2d_30"/>
   <g id="matplotlib.axis_1">
    <g id="xtick_1">
     <g id="line2d_31">
      <path d="M 62.208 293.76 
L 62.208 3.456 
" clip-path="url(#p7d9850ab97)" style="fill: none; stroke: #b0b0b0; stroke-width: 0.8; stroke-linecap: square"/>
     </g>
     <g id="line2d_32">
      <defs>
       <path id="m1a975892a4" d="M 0 0 
L 0 3.5 
" style="stroke: #000000; stroke-width: 0.8"/>
      </defs>
      <g>
       <use xlink:href="#m1a975892a4" x="62.208" y="293.76" style="stroke: #000000; stroke-width: 0.8"/>
      </g>
     </g>
     <g id="text_1">
      <!-- 0 -->
      <g transform="translate(55.8455 315.956875)scale(0.2 -0.2)">
       <defs>
        <path id="DejaVuSans-30" d="M 2034 4250 
Q 1547 4250 1301 3770 
Q 1056 3291 1056 2328 
Q 1056 1369 1301 889 
Q 1547 409 2034 409 
Q 2525 409 2770 889 
Q 3016 1369 3016 2328 
Q 3016 3291 2770 3770 
Q 2525 4250 2034 4250 
z
M 2034 4750 
Q 2819 4750 3233 4129 
Q 3647 3509 3647 2328 
Q 3647 1150 3233 529 
Q 2819 -91 2034 -91 
Q 1250 -91 836 529 
Q 422 1150 422 2328 
Q 422 3509 836 4129 
Q 1250 4750 2034 4750 
z
" transform="scale(0.015625)"/>
       </defs>
       <use xlink:href="#DejaVuSans-30"/>
      </g>
     </g>
    </g>
    <g id="xtick_2">
     <g id="line2d_33">
      <path d="M 205.383369 293.76 
L 205.383369 3.456 
" clip-path="url(#p7d9850ab97)" style="fill: none; stroke: #b0b0b0; stroke-width: 0.8; stroke-linecap: square"/>
     </g>
     <g id="line2d_34">
      <g>
       <use xlink:href="#m1a975892a4" x="205.383369" y="293.76" style="stroke: #000000; stroke-width: 0.8"/>
      </g>
     </g>
     <g id="text_2">
      <!-- 2 -->
      <g transform="translate(199.020869 315.956875)scale(0.2 -0.2)">
       <defs>
        <path id="DejaVuSans-32" d="M 1228 531 
L 3431 531 
L 3431 0 
L 469 0 
L 469 531 
Q 828 903 1448 1529 
Q 2069 2156 2228 2338 
Q 2531 2678 2651 2914 
Q 2772 3150 2772 3378 
Q 2772 3750 2511 3984 
Q 2250 4219 1831 4219 
Q 1534 4219 1204 4116 
Q 875 4013 500 3803 
L 500 4441 
Q 881 4594 1212 4672 
Q 1544 4750 1819 4750 
Q 2544 4750 2975 4387 
Q 3406 4025 3406 3419 
Q 3406 3131 3298 2873 
Q 3191 2616 2906 2266 
Q 2828 2175 2409 1742 
Q 1991 1309 1228 531 
z
" transform="scale(0.015625)"/>
       </defs>
       <use xlink:href="#DejaVuSans-32"/>
      </g>
     </g>
    </g>
    <g id="xtick_3">
     <g id="line2d_35">
      <path d="M 348.558737 293.76 
L 348.558737 3.456 
" clip-path="url(#p7d9850ab97)" style="fill: none; stroke: #b0b0b0; stroke-width: 0.8; stroke-linecap: square"/>
     </g>
     <g id="line2d_36">
      <g>
       <use xlink:href="#m1a975892a4" x="348.558737" y="293.76" style="stroke: #000000; stroke-width: 0.8"/>
      </g>
     </g>
     <g id="text_3">
      <!-- 4 -->
      <g transform="translate(342.196237 315.956875)scale(0.2 -0.2)">
       <defs>
        <path id="DejaVuSans-34" d="M 2419 4116 
L 825 1625 
L 2419 1625 
L 2419 4116 
z
M 2253 4666 
L 3047 4666 
L 3047 1625 
L 3713 1625 
L 3713 1100 
L 3047 1100 
L 3047 0 
L 2419 0 
L 2419 1100 
L 313 1100 
L 313 1709 
L 2253 4666 
z
" transform="scale(0.015625)"/>
       </defs>
       <use xlink:href="#DejaVuSans-34"/>
      </g>
     </g>
    </g>
    <g id="text_4">
     <!-- log10 of FEvals / DIM -->
     <g transform="translate(156.430563 339.313125)scale(0.2 -0.2)">
      <defs>
       <path id="DejaVuSans-6c" d="M 603 4863 
L 1178 4863 
L 1178 0 
L 603 0 
L 603 4863 
z
" transform="scale(0.015625)"/>
       <path id="DejaVuSans-6f" d="M 1959 3097 
Q 1497 3097 1228 2736 
Q 959 2375 959 1747 
Q 959 1119 1226 758 
Q 1494 397 1959 397 
Q 2419 397 2687 759 
Q 2956 1122 2956 1747 
Q 2956 2369 2687 2733 
Q 2419 3097 1959 3097 
z
M 1959 3584 
Q 2709 3584 3137 3096 
Q 3566 2609 3566 1747 
Q 3566 888 3137 398 
Q 2709 -91 1959 -91 
Q 1206 -91 779 398 
Q 353 888 353 1747 
Q 353 2609 779 3096 
Q 1206 3584 1959 3584 
z
" transform="scale(0.015625)"/>
       <path id="DejaVuSans-67" d="M 2906 1791 
Q 2906 2416 2648 2759 
Q 2391 3103 1925 3103 
Q 1463 3103 1205 2759 
Q 947 2416 947 1791 
Q 947 1169 1205 825 
Q 1463 481 1925 481 
Q 2391 481 2648 825 
Q 2906 1169 2906 1791 
z
M 3481 434 
Q 3481 -459 3084 -895 
Q 2688 -1331 1869 -1331 
Q 1566 -1331 1297 -1286 
Q 1028 -1241 775 -1147 
L 775 -588 
Q 1028 -725 1275 -790 
Q 1522 -856 1778 -856 
Q 2344 -856 2625 -561 
Q 2906 -266 2906 331 
L 2906 616 
Q 2728 306 2450 153 
Q 2172 0 1784 0 
Q 1141 0 747 490 
Q 353 981 353 1791 
Q 353 2603 747 3093 
Q 1141 3584 1784 3584 
Q 2172 3584 2450 3431 
Q 2728 3278 2906 2969 
L 2906 3500 
L 3481 3500 
L 3481 434 
z
" transform="scale(0.015625)"/>
       <path id="DejaVuSans-31" d="M 794 531 
L 1825 531 
L 1825 4091 
L 703 3866 
L 703 4441 
L 1819 4666 
L 2450 4666 
L 2450 531 
L 3481 531 
L 3481 0 
L 794 0 
L 794 531 
z
" transform="scale(0.015625)"/>
       <path id="DejaVuSans-20" transform="scale(0.015625)"/>
       <path id="DejaVuSans-66" d="M 2375 4863 
L 2375 4384 
L 1825 4384 
Q 1516 4384 1395 4259 
Q 1275 4134 1275 3809 
L 1275 3500 
L 2222 3500 
L 2222 3053 
L 1275 3053 
L 1275 0 
L 697 0 
L 697 3053 
L 147 3053 
L 147 3500 
L 697 3500 
L 697 3744 
Q 697 4328 969 4595 
Q 1241 4863 1831 4863 
L 2375 4863 
z
" transform="scale(0.015625)"/>
       <path id="DejaVuSans-46" d="M 628 4666 
L 3309 4666 
L 3309 4134 
L 1259 4134 
L 1259 2759 
L 3109 2759 
L 3109 2228 
L 1259 2228 
L 1259 0 
L 628 0 
L 628 4666 
z
" transform="scale(0.015625)"/>
       <path id="DejaVuSans-45" d="M 628 4666 
L 3578 4666 
L 3578 4134 
L 1259 4134 
L 1259 2753 
L 3481 2753 
L 3481 2222 
L 1259 2222 
L 1259 531 
L 3634 531 
L 3634 0 
L 628 0 
L 628 4666 
z
" transform="scale(0.015625)"/>
       <path id="DejaVuSans-76" d="M 191 3500 
L 800 3500 
L 1894 563 
L 2988 3500 
L 3597 3500 
L 2284 0 
L 1503 0 
L 191 3500 
z
" transform="scale(0.015625)"/>
       <path id="DejaVuSans-61" d="M 2194 1759 
Q 1497 1759 1228 1600 
Q 959 1441 959 1056 
Q 959 750 1161 570 
Q 1363 391 1709 391 
Q 2188 391 2477 730 
Q 2766 1069 2766 1631 
L 2766 1759 
L 2194 1759 
z
M 3341 1997 
L 3341 0 
L 2766 0 
L 2766 531 
Q 2569 213 2275 61 
Q 1981 -91 1556 -91 
Q 1019 -91 701 211 
Q 384 513 384 1019 
Q 384 1609 779 1909 
Q 1175 2209 1959 2209 
L 2766 2209 
L 2766 2266 
Q 2766 2663 2505 2880 
Q 2244 3097 1772 3097 
Q 1472 3097 1187 3025 
Q 903 2953 641 2809 
L 641 3341 
Q 956 3463 1253 3523 
Q 1550 3584 1831 3584 
Q 2591 3584 2966 3190 
Q 3341 2797 3341 1997 
z
" transform="scale(0.015625)"/>
       <path id="DejaVuSans-73" d="M 2834 3397 
L 2834 2853 
Q 2591 2978 2328 3040 
Q 2066 3103 1784 3103 
Q 1356 3103 1142 2972 
Q 928 2841 928 2578 
Q 928 2378 1081 2264 
Q 1234 2150 1697 2047 
L 1894 2003 
Q 2506 1872 2764 1633 
Q 3022 1394 3022 966 
Q 3022 478 2636 193 
Q 2250 -91 1575 -91 
Q 1294 -91 989 -36 
Q 684 19 347 128 
L 347 722 
Q 666 556 975 473 
Q 1284 391 1588 391 
Q 1994 391 2212 530 
Q 2431 669 2431 922 
Q 2431 1156 2273 1281 
Q 2116 1406 1581 1522 
L 1381 1569 
Q 847 1681 609 1914 
Q 372 2147 372 2553 
Q 372 3047 722 3315 
Q 1072 3584 1716 3584 
Q 2034 3584 2315 3537 
Q 2597 3491 2834 3397 
z
" transform="scale(0.015625)"/>
       <path id="DejaVuSans-2f" d="M 1625 4666 
L 2156 4666 
L 531 -594 
L 0 -594 
L 1625 4666 
z
" transform="scale(0.015625)"/>
       <path id="DejaVuSans-44" d="M 1259 4147 
L 1259 519 
L 2022 519 
Q 2988 519 3436 956 
Q 3884 1394 3884 2338 
Q 3884 3275 3436 3711 
Q 2988 4147 2022 4147 
L 1259 4147 
z
M 628 4666 
L 1925 4666 
Q 3281 4666 3915 4102 
Q 4550 3538 4550 2338 
Q 4550 1131 3912 565 
Q 3275 0 1925 0 
L 628 0 
L 628 4666 
z
" transform="scale(0.015625)"/>
       <path id="DejaVuSans-49" d="M 628 4666 
L 1259 4666 
L 1259 0 
L 628 0 
L 628 4666 
z
" transform="scale(0.015625)"/>
       <path id="DejaVuSans-4d" d="M 628 4666 
L 1569 4666 
L 2759 1491 
L 3956 4666 
L 4897 4666 
L 4897 0 
L 4281 0 
L 4281 4097 
L 3078 897 
L 2444 897 
L 1241 4097 
L 1241 0 
L 628 0 
L 628 4666 
z
" transform="scale(0.015625)"/>
      </defs>
      <use xlink:href="#DejaVuSans-6c"/>
      <use xlink:href="#DejaVuSans-6f" x="27.783203"/>
      <use xlink:href="#DejaVuSans-67" x="88.964844"/>
      <use xlink:href="#DejaVuSans-31" x="152.441406"/>
      <use xlink:href="#DejaVuSans-30" x="216.064453"/>
      <use xlink:href="#DejaVuSans-20" x="279.6875"/>
      <use xlink:href="#DejaVuSans-6f" x="311.474609"/>
      <use xlink:href="#DejaVuSans-66" x="372.65625"/>
      <use xlink:href="#DejaVuSans-20" x="407.861328"/>
      <use xlink:href="#DejaVuSans-46" x="439.648438"/>
      <use xlink:href="#DejaVuSans-45" x="497.167969"/>
      <use xlink:href="#DejaVuSans-76" x="560.351562"/>
      <use xlink:href="#DejaVuSans-61" x="619.53125"/>
      <use xlink:href="#DejaVuSans-6c" x="680.810547"/>
      <use xlink:href="#DejaVuSans-73" x="708.59375"/>
      <use xlink:href="#DejaVuSans-20" x="760.693359"/>
      <use xlink:href="#DejaVuSans-2f" x="792.480469"/>
      <use xlink:href="#DejaVuSans-20" x="826.171875"/>
      <use xlink:href="#DejaVuSans-44" x="857.958984"/>
      <use xlink:href="#DejaVuSans-49" x="934.960938"/>
      <use xlink:href="#DejaVuSans-4d" x="964.453125"/>
     </g>
    </g>
   </g>
   <g id="matplotlib.axis_2">
    <g id="ytick_1">
     <g id="line2d_37">
      <path d="M 62.208 293.76 
L 460.8 293.76 
" clip-path="url(#p7d9850ab97)" style="fill: none; stroke: #b0b0b0; stroke-width: 0.8; stroke-linecap: square"/>
     </g>
     <g id="line2d_38">
      <defs>
       <path id="m8b9f30a106" d="M 0 0 
L -3.5 0 
" style="stroke: #000000; stroke-width: 0.8"/>
      </defs>
      <g>
       <use xlink:href="#m8b9f30a106" x="62.208" y="293.76" style="stroke: #000000; stroke-width: 0.8"/>
      </g>
     </g>
     <g id="text_5">
      <!-- 0.0 -->
      <g transform="translate(29.763 299.83875)scale(0.16 -0.16)">
       <defs>
        <path id="DejaVuSans-2e" d="M 684 794 
L 1344 794 
L 1344 0 
L 684 0 
L 684 794 
z
" transform="scale(0.015625)"/>
       </defs>
       <use xlink:href="#DejaVuSans-30"/>
       <use xlink:href="#DejaVuSans-2e" x="63.623047"/>
       <use xlink:href="#DejaVuSans-30" x="95.410156"/>
      </g>
     </g>
    </g>
    <g id="ytick_2">
     <g id="line2d_39">
      <path d="M 62.208 236.274059 
L 460.8 236.274059 
" clip-path="url(#p7d9850ab97)" style="fill: none; stroke: #b0b0b0; stroke-width: 0.8; stroke-linecap: square"/>
     </g>
     <g id="line2d_40">
      <g>
       <use xlink:href="#m8b9f30a106" x="62.208" y="236.274059" style="stroke: #000000; stroke-width: 0.8"/>
      </g>
     </g>
     <g id="text_6">
      <!-- 0.2 -->
      <g transform="translate(29.763 242.352809)scale(0.16 -0.16)">
       <use xlink:href="#DejaVuSans-30"/>
       <use xlink:href="#DejaVuSans-2e" x="63.623047"/>
       <use xlink:href="#DejaVuSans-32" x="95.410156"/>
      </g>
     </g>
    </g>
    <g id="ytick_3">
     <g id="line2d_41">
      <path d="M 62.208 178.788119 
L 460.8 178.788119 
" clip-path="url(#p7d9850ab97)" style="fill: none; stroke: #b0b0b0; stroke-width: 0.8; stroke-linecap: square"/>
     </g>
     <g id="line2d_42">
      <g>
       <use xlink:href="#m8b9f30a106" x="62.208" y="178.788119" style="stroke: #000000; stroke-width: 0.8"/>
      </g>
     </g>
     <g id="text_7">
      <!-- 0.4 -->
      <g transform="translate(29.763 184.866869)scale(0.16 -0.16)">
       <use xlink:href="#DejaVuSans-30"/>
       <use xlink:href="#DejaVuSans-2e" x="63.623047"/>
       <use xlink:href="#DejaVuSans-34" x="95.410156"/>
      </g>
     </g>
    </g>
    <g id="ytick_4">
     <g id="line2d_43">
      <path d="M 62.208 121.302178 
L 460.8 121.302178 
" clip-path="url(#p7d9850ab97)" style="fill: none; stroke: #b0b0b0; stroke-width: 0.8; stroke-linecap: square"/>
     </g>
     <g id="line2d_44">
      <g>
       <use xlink:href="#m8b9f30a106" x="62.208" y="121.302178" style="stroke: #000000; stroke-width: 0.8"/>
      </g>
     </g>
     <g id="text_8">
      <!-- 0.6 -->
      <g transform="translate(29.763 127.380928)scale(0.16 -0.16)">
       <defs>
        <path id="DejaVuSans-36" d="M 2113 2584 
Q 1688 2584 1439 2293 
Q 1191 2003 1191 1497 
Q 1191 994 1439 701 
Q 1688 409 2113 409 
Q 2538 409 2786 701 
Q 3034 994 3034 1497 
Q 3034 2003 2786 2293 
Q 2538 2584 2113 2584 
z
M 3366 4563 
L 3366 3988 
Q 3128 4100 2886 4159 
Q 2644 4219 2406 4219 
Q 1781 4219 1451 3797 
Q 1122 3375 1075 2522 
Q 1259 2794 1537 2939 
Q 1816 3084 2150 3084 
Q 2853 3084 3261 2657 
Q 3669 2231 3669 1497 
Q 3669 778 3244 343 
Q 2819 -91 2113 -91 
Q 1303 -91 875 529 
Q 447 1150 447 2328 
Q 447 3434 972 4092 
Q 1497 4750 2381 4750 
Q 2619 4750 2861 4703 
Q 3103 4656 3366 4563 
z
" transform="scale(0.015625)"/>
       </defs>
       <use xlink:href="#DejaVuSans-30"/>
       <use xlink:href="#DejaVuSans-2e" x="63.623047"/>
       <use xlink:href="#DejaVuSans-36" x="95.410156"/>
      </g>
     </g>
    </g>
    <g id="ytick_5">
     <g id="line2d_45">
      <path d="M 62.208 63.816238 
L 460.8 63.816238 
" clip-path="url(#p7d9850ab97)" style="fill: none; stroke: #b0b0b0; stroke-width: 0.8; stroke-linecap: square"/>
     </g>
     <g id="line2d_46">
      <g>
       <use xlink:href="#m8b9f30a106" x="62.208" y="63.816238" style="stroke: #000000; stroke-width: 0.8"/>
      </g>
     </g>
     <g id="text_9">
      <!-- 0.8 -->
      <g transform="translate(29.763 69.894988)scale(0.16 -0.16)">
       <defs>
        <path id="DejaVuSans-38" d="M 2034 2216 
Q 1584 2216 1326 1975 
Q 1069 1734 1069 1313 
Q 1069 891 1326 650 
Q 1584 409 2034 409 
Q 2484 409 2743 651 
Q 3003 894 3003 1313 
Q 3003 1734 2745 1975 
Q 2488 2216 2034 2216 
z
M 1403 2484 
Q 997 2584 770 2862 
Q 544 3141 544 3541 
Q 544 4100 942 4425 
Q 1341 4750 2034 4750 
Q 2731 4750 3128 4425 
Q 3525 4100 3525 3541 
Q 3525 3141 3298 2862 
Q 3072 2584 2669 2484 
Q 3125 2378 3379 2068 
Q 3634 1759 3634 1313 
Q 3634 634 3220 271 
Q 2806 -91 2034 -91 
Q 1263 -91 848 271 
Q 434 634 434 1313 
Q 434 1759 690 2068 
Q 947 2378 1403 2484 
z
M 1172 3481 
Q 1172 3119 1398 2916 
Q 1625 2713 2034 2713 
Q 2441 2713 2670 2916 
Q 2900 3119 2900 3481 
Q 2900 3844 2670 4047 
Q 2441 4250 2034 4250 
Q 1625 4250 1398 4047 
Q 1172 3844 1172 3481 
z
" transform="scale(0.015625)"/>
       </defs>
       <use xlink:href="#DejaVuSans-30"/>
       <use xlink:href="#DejaVuSans-2e" x="63.623047"/>
       <use xlink:href="#DejaVuSans-38" x="95.410156"/>
      </g>
     </g>
    </g>
    <g id="ytick_6">
     <g id="line2d_47">
      <path d="M 62.208 6.330297 
L 460.8 6.330297 
" clip-path="url(#p7d9850ab97)" style="fill: none; stroke: #b0b0b0; stroke-width: 0.8; stroke-linecap: square"/>
     </g>
     <g id="line2d_48">
      <g>
       <use xlink:href="#m8b9f30a106" x="62.208" y="6.330297" style="stroke: #000000; stroke-width: 0.8"/>
      </g>
     </g>
     <g id="text_10">
      <!-- 1.0 -->
      <g transform="translate(29.763 12.409047)scale(0.16 -0.16)">
       <use xlink:href="#DejaVuSans-31"/>
       <use xlink:href="#DejaVuSans-2e" x="63.623047"/>
       <use xlink:href="#DejaVuSans-30" x="95.410156"/>
      </g>
     </g>
    </g>
    <g id="text_11">
     <!-- proportion of trials -->
     <g transform="translate(21.603625 241.61425)rotate(-90)scale(0.2 -0.2)">
      <defs>
       <path id="DejaVuSans-70" d="M 1159 525 
L 1159 -1331 
L 581 -1331 
L 581 3500 
L 1159 3500 
L 1159 2969 
Q 1341 3281 1617 3432 
Q 1894 3584 2278 3584 
Q 2916 3584 3314 3078 
Q 3713 2572 3713 1747 
Q 3713 922 3314 415 
Q 2916 -91 2278 -91 
Q 1894 -91 1617 61 
Q 1341 213 1159 525 
z
M 3116 1747 
Q 3116 2381 2855 2742 
Q 2594 3103 2138 3103 
Q 1681 3103 1420 2742 
Q 1159 2381 1159 1747 
Q 1159 1113 1420 752 
Q 1681 391 2138 391 
Q 2594 391 2855 752 
Q 3116 1113 3116 1747 
z
" transform="scale(0.015625)"/>
       <path id="DejaVuSans-72" d="M 2631 2963 
Q 2534 3019 2420 3045 
Q 2306 3072 2169 3072 
Q 1681 3072 1420 2755 
Q 1159 2438 1159 1844 
L 1159 0 
L 581 0 
L 581 3500 
L 1159 3500 
L 1159 2956 
Q 1341 3275 1631 3429 
Q 1922 3584 2338 3584 
Q 2397 3584 2469 3576 
Q 2541 3569 2628 3553 
L 2631 2963 
z
" transform="scale(0.015625)"/>
       <path id="DejaVuSans-74" d="M 1172 4494 
L 1172 3500 
L 2356 3500 
L 2356 3053 
L 1172 3053 
L 1172 1153 
Q 1172 725 1289 603 
Q 1406 481 1766 481 
L 2356 481 
L 2356 0 
L 1766 0 
Q 1100 0 847 248 
Q 594 497 594 1153 
L 594 3053 
L 172 3053 
L 172 3500 
L 594 3500 
L 594 4494 
L 1172 4494 
z
" transform="scale(0.015625)"/>
       <path id="DejaVuSans-69" d="M 603 3500 
L 1178 3500 
L 1178 0 
L 603 0 
L 603 3500 
z
M 603 4863 
L 1178 4863 
L 1178 4134 
L 603 4134 
L 603 4863 
z
" transform="scale(0.015625)"/>
       <path id="DejaVuSans-6e" d="M 3513 2113 
L 3513 0 
L 2938 0 
L 2938 2094 
Q 2938 2591 2744 2837 
Q 2550 3084 2163 3084 
Q 1697 3084 1428 2787 
Q 1159 2491 1159 1978 
L 1159 0 
L 581 0 
L 581 3500 
L 1159 3500 
L 1159 2956 
Q 1366 3272 1645 3428 
Q 1925 3584 2291 3584 
Q 2894 3584 3203 3211 
Q 3513 2838 3513 2113 
z
" transform="scale(0.015625)"/>
      </defs>
      <use xlink:href="#DejaVuSans-70"/>
      <use xlink:href="#DejaVuSans-72" x="63.476562"/>
      <use xlink:href="#DejaVuSans-6f" x="102.339844"/>
      <use xlink:href="#DejaVuSans-70" x="163.521484"/>
      <use xlink:href="#DejaVuSans-6f" x="226.998047"/>
      <use xlink:href="#DejaVuSans-72" x="288.179688"/>
      <use xlink:href="#DejaVuSans-74" x="329.292969"/>
      <use xlink:href="#DejaVuSans-69" x="368.501953"/>
      <use xlink:href="#DejaVuSans-6f" x="396.285156"/>
      <use xlink:href="#DejaVuSans-6e" x="457.466797"/>
      <use xlink:href="#DejaVuSans-20" x="520.845703"/>
      <use xlink:href="#DejaVuSans-6f" x="552.632812"/>
      <use xlink:href="#DejaVuSans-66" x="613.814453"/>
      <use xlink:href="#DejaVuSans-20" x="649.019531"/>
      <use xlink:href="#DejaVuSans-74" x="680.806641"/>
      <use xlink:href="#DejaVuSans-72" x="720.015625"/>
      <use xlink:href="#DejaVuSans-69" x="761.128906"/>
      <use xlink:href="#DejaVuSans-61" x="788.912109"/>
      <use xlink:href="#DejaVuSans-6c" x="850.191406"/>
      <use xlink:href="#DejaVuSans-73" x="877.974609"/>
     </g>
    </g>
   </g>
   <g id="line2d_49">
    <path d="M 12.170356 293.76 
L 12.170356 213.279683 
L 33.720396 213.279683 
L 33.720396 205.614891 
L 62.208 205.614891 
L 62.208 201.782495 
L 86.721247 201.782495 
L 86.721247 194.117703 
L 89.426442 194.117703 
L 89.426442 186.452911 
L 91.914981 186.452911 
L 91.914981 182.620515 
L 94.219008 182.620515 
L 94.219008 178.788119 
L 102.032408 178.788119 
L 102.032408 174.955723 
L 103.713365 174.955723 
L 103.713365 171.123327 
L 120.877253 171.123327 
L 120.877253 167.290931 
L 129.10658 167.290931 
L 129.10658 163.458535 
L 131.203339 163.458535 
L 131.203339 159.626139 
L 131.87197 159.626139 
L 131.87197 151.961347 
L 137.319089 151.961347 
L 137.319089 148.12895 
L 138.941551 148.12895 
L 138.941551 144.296554 
L 141.470598 144.296554 
L 141.470598 140.464158 
L 142.894822 140.464158 
L 142.894822 136.631762 
L 149.552713 136.631762 
L 149.552713 132.799366 
L 159.419411 132.799366 
L 159.419411 128.96697 
L 160.491591 128.96697 
L 160.491591 125.134574 
L 161.272138 125.134574 
L 161.272138 121.302178 
L 161.781823 121.302178 
L 161.781823 117.469782 
L 162.033567 117.469782 
L 162.033567 113.637386 
L 165.583823 113.637386 
L 165.583823 109.80499 
L 166.682529 109.80499 
L 166.682529 105.972594 
L 166.897686 105.972594 
L 166.897686 102.140198 
L 167.743729 102.140198 
L 167.743729 98.307802 
L 179.144224 98.307802 
L 179.144224 94.475406 
L 191.798354 94.475406 
L 191.798354 90.64301 
L 194.20534 90.64301 
L 194.20534 86.810614 
L 194.822753 86.810614 
L 194.822753 82.978218 
L 196.273036 82.978218 
L 196.273036 79.145822 
L 197.738287 79.145822 
L 197.738287 75.313426 
L 203.060203 75.313426 
L 203.060203 71.48103 
L 203.657471 71.48103 
L 203.657471 67.648634 
L 204.049369 67.648634 
L 204.049369 63.816238 
L 206.840986 63.816238 
L 206.840986 59.983842 
L 209.511551 59.983842 
L 209.511551 56.151446 
L 211.616595 56.151446 
L 211.616595 52.31905 
L 213.4445 52.31905 
L 213.4445 48.486653 
L 216.021489 48.486653 
L 216.021489 44.654257 
L 216.197637 44.654257 
L 216.197637 40.821861 
L 216.633691 40.821861 
L 216.633691 36.989465 
L 218.154708 36.989465 
L 218.154708 33.157069 
L 220.189554 33.157069 
L 220.189554 29.324673 
L 220.343657 29.324673 
L 220.343657 25.492277 
L 223.692262 25.492277 
L 223.692262 21.659881 
L 258.3616 21.659881 
L 258.3616 17.827485 
L 260.818792 17.827485 
L 260.818792 13.995089 
L 261.295994 13.995089 
L 261.295994 10.162693 
L 267.626456 10.162693 
L 267.626456 6.330297 
L 267.626456 6.330297 
L 460.8 6.330297 
L 460.8 6.330297 
" clip-path="url(#p7d9850ab97)" style="fill: none; stroke: #000000; stroke-width: 1.5; stroke-linecap: square"/>
   </g>
   <g id="line2d_50">
    <defs>
     <path id="mec5ec19b84" d="M -0 14.142136 
L 8.485281 0 
L -0 -14.142136 
L -8.485281 -0 
z
" style="stroke: #000000; stroke-width: 1.5; stroke-linejoin: miter"/>
    </defs>
    <g clip-path="url(#p7d9850ab97)">
     <use xlink:href="#mec5ec19b84" x="103.713365" y="174.955723" style="fill-opacity: 0; stroke: #000000; stroke-width: 1.5; stroke-linejoin: miter"/>
     <use xlink:href="#mec5ec19b84" x="167.743729" y="102.140198" style="fill-opacity: 0; stroke: #000000; stroke-width: 1.5; stroke-linejoin: miter"/>
     <use xlink:href="#mec5ec19b84" x="220.189554" y="33.157069" style="fill-opacity: 0; stroke: #000000; stroke-width: 1.5; stroke-linejoin: miter"/>
     <use xlink:href="#mec5ec19b84" x="267.626456" y="10.162693" style="fill-opacity: 0; stroke: #000000; stroke-width: 1.5; stroke-linejoin: miter"/>
     <use xlink:href="#mec5ec19b84" x="267.626456" y="6.330297" style="fill-opacity: 0; stroke: #000000; stroke-width: 1.5; stroke-linejoin: miter"/>
    </g>
   </g>
   <g id="line2d_51">
    <path clip-path="url(#p7d9850ab97)" style="fill: none; stroke: #000000; stroke-width: 1.5; stroke-linecap: square"/>
    <g clip-path="url(#p7d9850ab97)">
     <use xlink:href="#mec5ec19b84" x="-1" y="581.189703" style="fill-opacity: 0; stroke: #000000; stroke-width: 1.5; stroke-linejoin: miter"/>
     <use xlink:href="#mec5ec19b84" x="460.8" y="581.189703" style="fill-opacity: 0; stroke: #000000; stroke-width: 1.5; stroke-linejoin: miter"/>
    </g>
   </g>
   <g id="line2d_52">
    <path d="M 12.170356 293.76 
L 12.170356 213.279683 
L 33.720396 213.279683 
L 33.720396 209.447287 
L 46.326362 209.447287 
L 46.326362 205.614891 
L 67.876402 205.614891 
L 67.876402 201.782495 
L 72.668968 201.782495 
L 72.668968 194.117703 
L 89.426442 194.117703 
L 89.426442 190.285307 
L 94.219008 190.285307 
L 94.219008 186.452911 
L 100.255345 186.452911 
L 100.255345 182.620515 
L 102.032408 182.620515 
L 102.032408 174.955723 
L 108.271287 174.955723 
L 108.271287 171.123327 
L 117.914046 171.123327 
L 117.914046 167.290931 
L 127.625818 167.290931 
L 127.625818 163.458535 
L 129.10658 163.458535 
L 129.10658 159.626139 
L 135.607273 159.626139 
L 135.607273 155.793743 
L 136.758891 155.793743 
L 136.758891 151.961347 
L 140.483526 151.961347 
L 140.483526 148.12895 
L 142.427293 148.12895 
L 142.427293 144.296554 
L 142.894822 144.296554 
L 142.894822 140.464158 
L 148.017085 140.464158 
L 148.017085 132.799366 
L 148.794379 132.799366 
L 148.794379 128.96697 
L 149.925054 128.96697 
L 149.925054 121.302178 
L 150.65662 121.302178 
L 150.65662 117.469782 
L 152.753379 117.469782 
L 152.753379 113.637386 
L 154.71762 113.637386 
L 154.71762 109.80499 
L 159.960123 109.80499 
L 159.960123 105.972594 
L 167.323585 105.972594 
L 167.323585 102.140198 
L 169.567125 102.140198 
L 169.567125 98.307802 
L 171.843029 98.307802 
L 171.843029 94.475406 
L 182.041631 94.475406 
L 182.041631 90.64301 
L 182.950385 90.64301 
L 182.950385 86.810614 
L 183.45799 86.810614 
L 183.45799 82.978218 
L 184.570678 82.978218 
L 184.570678 79.145822 
L 186.909385 79.145822 
L 186.909385 75.313426 
L 188.124429 75.313426 
L 188.124429 71.48103 
L 190.420718 71.48103 
L 190.420718 67.648634 
L 191.89446 67.648634 
L 191.89446 63.816238 
L 192.181007 63.816238 
L 192.181007 59.983842 
L 193.39307 59.983842 
L 193.39307 56.151446 
L 199.814296 56.151446 
L 199.814296 52.31905 
L 200.036634 52.31905 
L 200.036634 48.486653 
L 200.982138 48.486653 
L 200.982138 44.654257 
L 202.245568 44.654257 
L 202.314276 36.989465 
L 209.511551 36.989465 
L 209.511551 33.157069 
L 211.970758 33.157069 
L 211.970758 29.324673 
L 213.967835 29.324673 
L 213.967835 25.492277 
L 223.553929 25.492277 
L 223.553929 21.659881 
L 247.839478 21.659881 
L 247.839478 17.827485 
L 251.276609 17.827485 
L 251.276609 13.995089 
L 253.057619 13.995089 
L 253.057619 10.162693 
L 256.34 10.162693 
L 256.34 6.330297 
L 256.34 6.330297 
L 460.8 6.330297 
L 460.8 6.330297 
" clip-path="url(#p7d9850ab97)" style="fill: none; stroke: #000000; stroke-width: 1.5; stroke-linecap: square"/>
   </g>
   <g id="line2d_53">
    <defs>
     <path id="ma1d6167bc6" d="M 0 7.5 
C 1.989023 7.5 3.896849 6.709753 5.303301 5.303301 
C 6.709753 3.896849 7.5 1.989023 7.5 0 
C 7.5 -1.989023 6.709753 -3.896849 5.303301 -5.303301 
C 3.896849 -6.709753 1.989023 -7.5 0 -7.5 
C -1.989023 -7.5 -3.896849 -6.709753 -5.303301 -5.303301 
C -6.709753 -3.896849 -7.5 -1.989023 -7.5 0 
C -7.5 1.989023 -6.709753 3.896849 -5.303301 5.303301 
C -3.896849 6.709753 -1.989023 7.5 0 7.5 
z
" style="stroke: #000000; stroke-width: 1.5"/>
    </defs>
    <g clip-path="url(#p7d9850ab97)">
     <use xlink:href="#ma1d6167bc6" x="89.426442" y="194.117703" style="fill-opacity: 0; stroke: #000000; stroke-width: 1.5"/>
     <use xlink:href="#ma1d6167bc6" x="136.758891" y="155.793743" style="fill-opacity: 0; stroke: #000000; stroke-width: 1.5"/>
     <use xlink:href="#ma1d6167bc6" x="183.45799" y="86.810614" style="fill-opacity: 0; stroke: #000000; stroke-width: 1.5"/>
     <use xlink:href="#ma1d6167bc6" x="213.967835" y="29.324673" style="fill-opacity: 0; stroke: #000000; stroke-width: 1.5"/>
     <use xlink:href="#ma1d6167bc6" x="256.34" y="6.330297" style="fill-opacity: 0; stroke: #000000; stroke-width: 1.5"/>
    </g>
   </g>
   <g id="line2d_54">
    <path clip-path="url(#p7d9850ab97)" style="fill: none; stroke: #000000; stroke-width: 1.5; stroke-linecap: square"/>
   </g>
   <g id="line2d_55">
    <path d="M 187.467571 293.76 
L 187.467571 289.927604 
L 196.769166 289.927604 
L 196.769166 286.095208 
L 197.97592 286.095208 
L 197.97592 282.262812 
L 198.678111 282.262812 
L 198.678111 278.430416 
L 199.364792 278.430416 
L 199.364792 274.59802 
L 200.476596 274.59802 
L 200.476596 270.765624 
L 204.628106 270.765624 
L 204.628106 266.933228 
L 206.42286 266.933228 
L 206.42286 263.100832 
L 206.5429 263.100832 
L 206.5429 259.268436 
L 207.544943 259.268436 
L 207.544943 255.43604 
L 207.660735 255.43604 
L 207.660735 251.603644 
L 208.119639 251.603644 
L 208.119639 247.771248 
L 209.890374 247.771248 
L 209.890374 243.938851 
L 210.947964 243.938851 
L 210.947964 240.106455 
L 211.206834 240.106455 
L 211.206834 236.274059 
L 211.970758 236.274059 
L 211.970758 232.441663 
L 212.420262 232.441663 
L 212.420262 228.609267 
L 213.731047 228.609267 
L 213.731047 224.776871 
L 213.873336 224.776871 
L 213.967835 217.112079 
L 214.759687 217.112079 
L 214.759687 213.279683 
L 215.261519 213.279683 
L 215.261519 209.447287 
L 215.53187 209.447287 
L 215.53187 205.614891 
L 216.806414 205.614891 
L 216.806414 201.782495 
L 220.725604 201.782495 
L 220.725604 197.950099 
L 220.990203 197.950099 
L 220.990203 194.117703 
L 221.807434 194.117703 
L 221.807434 190.285307 
L 222.35257 190.285307 
L 222.35257 186.452911 
L 258.922202 186.452911 
L 258.922202 182.620515 
L 259.97102 182.620515 
L 259.97102 178.788119 
L 263.577953 178.788119 
L 263.577953 174.955723 
L 263.825685 174.955723 
L 263.825685 171.123327 
L 264.989897 171.123327 
L 264.999037 163.458535 
L 265.416604 163.458535 
L 265.416604 159.626139 
L 266.65401 159.626139 
L 266.65401 155.793743 
L 266.80959 155.793743 
L 266.80959 151.961347 
L 268.610115 151.961347 
L 268.610115 148.12895 
L 271.889042 148.12895 
L 271.889042 144.296554 
L 275.467837 144.296554 
L 275.467837 140.464158 
L 277.629363 140.464158 
L 277.629363 136.631762 
L 282.337455 136.631762 
L 282.337455 132.799366 
L 286.799383 132.799366 
L 286.799383 128.96697 
L 288.134652 128.96697 
L 288.134652 125.134574 
L 288.638583 125.134574 
L 288.638583 121.302178 
L 289.568727 121.302178 
L 289.568727 117.469782 
L 289.951975 117.469782 
L 289.951975 113.637386 
L 291.404246 113.637386 
L 291.404246 109.80499 
L 302.660164 109.80499 
L 302.660164 105.972594 
L 303.14621 105.972594 
L 303.14621 102.140198 
L 304.52962 102.140198 
L 304.52962 98.307802 
L 308.258636 98.307802 
L 308.258636 94.475406 
L 309.066334 94.475406 
L 309.066334 90.64301 
L 318.15238 90.64301 
L 318.216798 82.978218 
L 318.53527 82.978218 
L 318.53527 79.145822 
L 318.832723 79.145822 
L 318.832723 75.313426 
L 319.120947 75.313426 
L 319.120947 71.48103 
L 320.855508 71.48103 
L 320.855508 67.648634 
L 321.460443 67.648634 
L 321.460443 63.816238 
L 324.385246 63.816238 
L 324.385246 59.983842 
L 324.7324 59.983842 
L 324.7324 56.151446 
L 329.387605 56.151446 
L 329.419845 48.486653 
L 334.522887 48.486653 
L 334.522887 44.654257 
L 336.497032 44.654257 
L 336.497032 40.821861 
L 337.1141 40.821861 
L 337.1141 36.989465 
L 339.178007 36.989465 
L 339.178007 33.157069 
L 340.415908 33.157069 
L 340.415908 29.324673 
L 341.77237 29.324673 
L 341.77237 25.492277 
L 348.583599 25.492277 
L 348.583599 21.659881 
L 349.395514 21.659881 
L 349.395514 17.827485 
L 358.408364 17.827485 
L 358.408364 13.995089 
L 368.974371 13.995089 
L 368.974371 10.162693 
L 387.974398 10.162693 
L 387.974398 6.330297 
L 387.974398 6.330297 
L 460.8 6.330297 
L 460.8 6.330297 
" clip-path="url(#p7d9850ab97)" style="fill: none; stroke: #00bfbf; stroke-width: 1.5; stroke-linecap: square"/>
   </g>
   <g id="line2d_56">
    <defs>
     <path id="m61de9ec38c" d="M -0 14.142136 
L 8.485281 0 
L -0 -14.142136 
L -8.485281 -0 
z
" style="stroke: #00bfbf; stroke-width: 1.5; stroke-linejoin: miter"/>
    </defs>
    <g clip-path="url(#p7d9850ab97)">
     <use xlink:href="#m61de9ec38c" x="222.35257" y="190.285307" style="fill-opacity: 0; stroke: #00bfbf; stroke-width: 1.5; stroke-linejoin: miter"/>
     <use xlink:href="#m61de9ec38c" x="289.951975" y="117.469782" style="fill-opacity: 0; stroke: #00bfbf; stroke-width: 1.5; stroke-linejoin: miter"/>
     <use xlink:href="#m61de9ec38c" x="329.419845" y="52.31905" style="fill-opacity: 0; stroke: #00bfbf; stroke-width: 1.5; stroke-linejoin: miter"/>
     <use xlink:href="#m61de9ec38c" x="387.974398" y="10.162693" style="fill-opacity: 0; stroke: #00bfbf; stroke-width: 1.5; stroke-linejoin: miter"/>
     <use xlink:href="#m61de9ec38c" x="387.974398" y="6.330297" style="fill-opacity: 0; stroke: #00bfbf; stroke-width: 1.5; stroke-linejoin: miter"/>
    </g>
   </g>
   <g id="line2d_57">
    <path clip-path="url(#p7d9850ab97)" style="fill: none; stroke: #00bfbf; stroke-width: 1.5; stroke-linecap: square"/>
    <g clip-path="url(#p7d9850ab97)">
     <use xlink:href="#m61de9ec38c" x="-1" y="581.189703" style="fill-opacity: 0; stroke: #00bfbf; stroke-width: 1.5; stroke-linejoin: miter"/>
     <use xlink:href="#m61de9ec38c" x="460.8" y="581.189703" style="fill-opacity: 0; stroke: #00bfbf; stroke-width: 1.5; stroke-linejoin: miter"/>
    </g>
   </g>
   <g id="line2d_58">
    <path d="M 190.820596 293.76 
L 190.820596 289.927604 
L 193.666191 289.927604 
L 193.666191 286.095208 
L 193.936934 286.095208 
L 193.936934 282.262812 
L 196.02197 282.262812 
L 196.02197 278.430416 
L 196.52209 278.430416 
L 196.604667 270.765624 
L 197.418592 270.765624 
L 197.418592 266.933228 
L 198.832023 266.933228 
L 198.832023 263.100832 
L 200.036634 263.100832 
L 200.036634 259.268436 
L 200.838534 259.268436 
L 200.838534 255.43604 
L 203.393434 255.43604 
L 203.393434 251.603644 
L 204.24348 251.603644 
L 204.24348 247.771248 
L 204.500425 247.771248 
L 204.500425 243.938851 
L 209.017611 243.938851 
L 209.017611 240.106455 
L 209.457055 240.106455 
L 209.457055 236.274059 
L 210.529235 236.274059 
L 210.529235 232.441663 
L 211.051771 232.441663 
L 211.051771 228.609267 
L 211.768873 228.609267 
L 211.768873 224.776871 
L 212.912204 224.776871 
L 212.912204 220.944475 
L 213.155287 220.944475 
L 213.155287 217.112079 
L 214.342985 217.112079 
L 214.342985 213.279683 
L 216.892418 213.279683 
L 216.892418 209.447287 
L 224.069532 209.447287 
L 224.069532 205.614891 
L 228.978759 205.614891 
L 228.978759 201.782495 
L 256.616465 201.782495 
L 256.616465 197.950099 
L 258.463257 197.950099 
L 258.463257 194.117703 
L 258.743907 194.117703 
L 258.743907 190.285307 
L 259.863404 190.285307 
L 259.863404 186.452911 
L 260.808337 186.452911 
L 260.808337 182.620515 
L 261.285698 182.620515 
L 261.337146 174.955723 
L 262.348626 174.955723 
L 262.348626 171.123327 
L 263.395662 171.123327 
L 263.395662 167.290931 
L 263.740155 167.290931 
L 263.740155 163.458535 
L 264.640566 163.458535 
L 264.640566 159.626139 
L 265.362456 159.626139 
L 265.362456 155.793743 
L 265.703813 155.793743 
L 265.703813 151.961347 
L 267.246221 151.961347 
L 267.246221 148.12895 
L 267.919012 148.12895 
L 267.919012 144.296554 
L 268.217082 144.296554 
L 268.217082 140.464158 
L 270.458067 140.464158 
L 270.458067 136.631762 
L 273.452623 136.631762 
L 273.452623 132.799366 
L 278.094621 132.799366 
L 278.094621 128.96697 
L 281.569366 128.96697 
L 281.569366 125.134574 
L 287.204678 125.134574 
L 287.204678 121.302178 
L 288.160695 121.302178 
L 288.160695 117.469782 
L 289.676348 117.469782 
L 289.676348 113.637386 
L 289.791833 113.637386 
L 289.791833 109.80499 
L 291.53686 109.80499 
L 291.602955 102.140198 
L 292.218241 102.140198 
L 292.218241 98.307802 
L 298.987045 98.307802 
L 298.987045 94.475406 
L 299.892559 94.475406 
L 299.892559 90.64301 
L 300.329748 90.64301 
L 300.329748 86.810614 
L 301.703979 86.810614 
L 301.703979 82.978218 
L 302.419747 82.978218 
L 302.419747 79.145822 
L 302.931127 79.145822 
L 302.931127 75.313426 
L 303.579891 75.313426 
L 303.619498 67.648634 
L 306.744925 67.648634 
L 306.744925 63.816238 
L 312.626181 63.816238 
L 312.626181 59.983842 
L 316.603145 59.983842 
L 316.603145 56.151446 
L 317.709417 56.151446 
L 317.709417 52.31905 
L 318.476418 52.31905 
L 318.476418 48.486653 
L 318.636366 48.486653 
L 318.636366 44.654257 
L 322.393254 44.654257 
L 322.393254 40.821861 
L 325.285428 40.821861 
L 325.285428 36.989465 
L 332.471224 36.989465 
L 332.471224 33.157069 
L 334.185108 33.157069 
L 334.185108 29.324673 
L 335.99161 29.324673 
L 335.99161 25.492277 
L 336.262437 25.492277 
L 336.262437 21.659881 
L 337.466111 21.659881 
L 337.466111 17.827485 
L 337.824722 17.827485 
L 337.824722 13.995089 
L 339.374133 13.995089 
L 339.374133 10.162693 
L 352.690731 10.162693 
L 352.690731 6.330297 
L 352.690731 6.330297 
L 460.8 6.330297 
L 460.8 6.330297 
" clip-path="url(#p7d9850ab97)" style="fill: none; stroke: #00bfbf; stroke-width: 1.5; stroke-linecap: square"/>
   </g>
   <g id="line2d_59">
    <defs>
     <path id="m70a290504b" d="M 0 7.5 
C 1.989023 7.5 3.896849 6.709753 5.303301 5.303301 
C 6.709753 3.896849 7.5 1.989023 7.5 0 
C 7.5 -1.989023 6.709753 -3.896849 5.303301 -5.303301 
C 3.896849 -6.709753 1.989023 -7.5 0 -7.5 
C -1.989023 -7.5 -3.896849 -6.709753 -5.303301 -5.303301 
C -6.709753 -3.896849 -7.5 -1.989023 -7.5 0 
C -7.5 1.989023 -6.709753 3.896849 -5.303301 5.303301 
C -3.896849 6.709753 -1.989023 7.5 0 7.5 
z
" style="stroke: #00bfbf; stroke-width: 1.5"/>
    </defs>
    <g clip-path="url(#p7d9850ab97)">
     <use xlink:href="#m70a290504b" x="211.051771" y="232.441663" style="fill-opacity: 0; stroke: #00bfbf; stroke-width: 1.5"/>
     <use xlink:href="#m70a290504b" x="260.808337" y="186.452911" style="fill-opacity: 0; stroke: #00bfbf; stroke-width: 1.5"/>
     <use xlink:href="#m70a290504b" x="289.791833" y="113.637386" style="fill-opacity: 0; stroke: #00bfbf; stroke-width: 1.5"/>
     <use xlink:href="#m70a290504b" x="337.824722" y="17.827485" style="fill-opacity: 0; stroke: #00bfbf; stroke-width: 1.5"/>
     <use xlink:href="#m70a290504b" x="352.690731" y="6.330297" style="fill-opacity: 0; stroke: #00bfbf; stroke-width: 1.5"/>
    </g>
   </g>
   <g id="line2d_60">
    <path clip-path="url(#p7d9850ab97)" style="fill: none; stroke: #00bfbf; stroke-width: 1.5; stroke-linecap: square"/>
   </g>
   <g id="line2d_61">
    <path d="M 228.978759 293.76 
L 228.978759 289.927604 
L 233.0647 289.927604 
L 233.0647 286.095208 
L 240.698905 286.095208 
L 240.698905 282.262812 
L 248.700322 282.262812 
L 248.700322 278.430416 
L 262.998617 278.430416 
L 262.998617 274.59802 
L 264.751305 274.59802 
L 264.751305 270.765624 
L 266.085619 270.765624 
L 266.085619 266.933228 
L 266.61933 266.933228 
L 266.61933 263.100832 
L 267.229213 263.100832 
L 267.229213 259.268436 
L 267.390412 259.268436 
L 267.390412 255.43604 
L 268.241793 255.43604 
L 268.241793 251.603644 
L 268.414219 251.603644 
L 268.414219 247.771248 
L 269.901075 247.771248 
L 269.940079 240.106455 
L 270.049031 240.106455 
L 270.049031 236.274059 
L 270.242643 236.274059 
L 270.242643 228.609267 
L 270.435057 228.609267 
L 270.435057 224.776871 
L 271.379659 224.776871 
L 271.379659 220.944475 
L 272.209562 220.944475 
L 272.253014 213.279683 
L 272.48374 213.279683 
L 272.48374 209.447287 
L 273.736806 209.447287 
L 273.736806 205.614891 
L 274.222867 205.614891 
L 274.222867 201.782495 
L 274.961225 201.782495 
L 274.961225 197.950099 
L 275.304256 197.950099 
L 275.304256 194.117703 
L 275.695414 194.117703 
L 275.695414 190.285307 
L 276.5201 190.285307 
L 276.5201 186.452911 
L 277.427815 186.452911 
L 277.427815 182.620515 
L 278.835391 182.620515 
L 278.835391 178.788119 
L 280.588695 178.788119 
L 280.588695 174.955723 
L 284.936079 174.955723 
L 284.936079 171.123327 
L 289.126066 171.123327 
L 289.126066 167.290931 
L 289.394086 167.290931 
L 289.394086 163.458535 
L 291.196389 163.458535 
L 291.196389 159.626139 
L 291.329891 159.626139 
L 291.329891 155.793743 
L 291.544643 155.793743 
L 291.544643 151.961347 
L 293.95106 151.961347 
L 293.95106 148.12895 
L 296.374985 148.12895 
L 296.374985 144.296554 
L 296.68985 144.296554 
L 296.68985 140.464158 
L 298.05752 140.464158 
L 298.05752 136.631762 
L 300.411773 136.631762 
L 300.411773 132.799366 
L 302.011169 132.799366 
L 302.011169 128.96697 
L 304.863528 128.96697 
L 304.863528 125.134574 
L 305.498427 125.134574 
L 305.498427 121.302178 
L 306.75924 121.302178 
L 306.75924 117.469782 
L 308.982061 117.469782 
L 308.982061 113.637386 
L 310.171529 113.637386 
L 310.171529 109.80499 
L 311.538855 109.80499 
L 311.538855 105.972594 
L 312.33647 105.972594 
L 312.33647 102.140198 
L 313.823444 102.140198 
L 313.823444 98.307802 
L 319.731962 98.307802 
L 319.731962 94.475406 
L 320.05714 94.475406 
L 320.085121 86.810614 
L 320.688324 86.810614 
L 320.688324 82.978218 
L 321.017275 82.978218 
L 321.017275 79.145822 
L 322.55441 79.145822 
L 322.55441 75.313426 
L 323.311499 75.313426 
L 323.311499 71.48103 
L 336.074407 71.48103 
L 336.074407 67.648634 
L 338.683917 67.648634 
L 338.683917 63.816238 
L 341.673206 63.816238 
L 341.673206 59.983842 
L 342.912215 59.983842 
L 342.912215 56.151446 
L 358.533132 56.151446 
L 358.533132 52.31905 
L 366.606706 52.31905 
L 366.606706 48.486653 
L 370.699745 48.486653 
L 370.699745 44.654257 
L 372.077764 44.654257 
L 372.077764 40.821861 
L 372.239014 40.821861 
L 372.239014 36.989465 
L 380.633636 36.989465 
L 380.633636 33.157069 
L 386.725276 33.157069 
L 386.725276 29.324673 
L 388.871379 29.324673 
L 388.871379 25.492277 
L 389.385531 25.492277 
L 389.397403 17.827485 
L 389.92536 17.827485 
L 389.92536 13.995089 
L 390.275125 13.995089 
L 390.372973 6.330297 
L 390.372973 6.330297 
L 460.8 6.330297 
L 460.8 6.330297 
" clip-path="url(#p7d9850ab97)" style="fill: none; stroke: #bf00bf; stroke-width: 1.5; stroke-linecap: square"/>
   </g>
   <g id="line2d_62">
    <defs>
     <path id="m55487b00e2" d="M -0 14.142136 
L 8.485281 0 
L -0 -14.142136 
L -8.485281 -0 
z
" style="stroke: #bf00bf; stroke-width: 1.5; stroke-linejoin: miter"/>
    </defs>
    <g clip-path="url(#p7d9850ab97)">
     <use xlink:href="#m55487b00e2" x="262.998617" y="278.430416" style="fill-opacity: 0; stroke: #bf00bf; stroke-width: 1.5; stroke-linejoin: miter"/>
     <use xlink:href="#m55487b00e2" x="280.588695" y="178.788119" style="fill-opacity: 0; stroke: #bf00bf; stroke-width: 1.5; stroke-linejoin: miter"/>
     <use xlink:href="#m55487b00e2" x="320.688324" y="86.810614" style="fill-opacity: 0; stroke: #bf00bf; stroke-width: 1.5; stroke-linejoin: miter"/>
     <use xlink:href="#m55487b00e2" x="380.633636" y="36.989465" style="fill-opacity: 0; stroke: #bf00bf; stroke-width: 1.5; stroke-linejoin: miter"/>
     <use xlink:href="#m55487b00e2" x="390.372973" y="6.330297" style="fill-opacity: 0; stroke: #bf00bf; stroke-width: 1.5; stroke-linejoin: miter"/>
    </g>
   </g>
   <g id="line2d_63">
    <path clip-path="url(#p7d9850ab97)" style="fill: none; stroke: #bf00bf; stroke-width: 1.5; stroke-linecap: square"/>
    <g clip-path="url(#p7d9850ab97)">
     <use xlink:href="#m55487b00e2" x="-1" y="581.189703" style="fill-opacity: 0; stroke: #bf00bf; stroke-width: 1.5; stroke-linejoin: miter"/>
     <use xlink:href="#m55487b00e2" x="460.8" y="581.189703" style="fill-opacity: 0; stroke: #bf00bf; stroke-width: 1.5; stroke-linejoin: miter"/>
    </g>
   </g>
   <g id="line2d_64">
    <path d="M 211.667437 293.76 
L 211.667437 289.927604 
L 228.391026 289.927604 
L 228.391026 286.095208 
L 231.65483 286.095208 
L 231.65483 282.262812 
L 232.23696 282.262812 
L 232.23696 278.430416 
L 234.19264 278.430416 
L 234.19264 274.59802 
L 236.81156 274.59802 
L 236.81156 270.765624 
L 262.438065 270.765624 
L 262.438065 266.933228 
L 263.654389 266.933228 
L 263.654389 263.100832 
L 263.816193 263.100832 
L 263.91098 255.43604 
L 264.399268 255.43604 
L 264.399268 251.603644 
L 268.233558 251.603644 
L 268.233558 247.771248 
L 268.83711 247.771248 
L 268.83711 243.938851 
L 269.142549 243.938851 
L 269.142549 240.106455 
L 269.877649 240.106455 
L 269.877649 236.274059 
L 270.519343 236.274059 
L 270.549936 228.609267 
L 271.103035 228.609267 
L 271.103035 224.776871 
L 271.668596 224.776871 
L 271.756962 217.112079 
L 272.641376 217.112079 
L 272.641376 213.279683 
L 273.095462 213.279683 
L 273.095462 209.447287 
L 273.522176 209.447287 
L 273.522176 205.614891 
L 274.059413 205.614891 
L 274.059413 201.782495 
L 275.159589 201.782495 
L 275.159589 197.950099 
L 276.576828 197.950099 
L 276.576828 194.117703 
L 278.327641 194.117703 
L 278.327641 190.285307 
L 280.825794 190.285307 
L 280.825794 186.452911 
L 281.327083 186.452911 
L 281.327083 182.620515 
L 283.953354 182.620515 
L 283.953354 178.788119 
L 290.812335 178.788119 
L 290.891911 171.123327 
L 292.218241 171.123327 
L 292.218241 167.290931 
L 292.562828 167.290931 
L 292.562828 163.458535 
L 292.817851 163.458535 
L 292.817851 159.626139 
L 293.915026 159.626139 
L 293.915026 155.793743 
L 294.330475 155.793743 
L 294.330475 151.961347 
L 295.086108 151.961347 
L 295.086108 148.12895 
L 295.810244 148.12895 
L 295.810244 144.296554 
L 296.328313 144.296554 
L 296.328313 140.464158 
L 297.092836 140.464158 
L 297.092836 136.631762 
L 297.628552 136.631762 
L 297.628552 132.799366 
L 298.013309 132.799366 
L 298.013309 128.96697 
L 302.124895 128.96697 
L 302.124895 125.134574 
L 302.65472 125.134574 
L 302.65472 121.302178 
L 303.619498 121.302178 
L 303.619498 117.469782 
L 303.827266 117.469782 
L 303.827266 113.637386 
L 304.782293 113.637386 
L 304.782293 109.80499 
L 306.152255 109.80499 
L 306.152255 105.972594 
L 309.501783 105.972594 
L 309.501783 102.140198 
L 309.676007 102.140198 
L 309.676007 98.307802 
L 310.873158 98.307802 
L 310.873158 94.475406 
L 311.339815 94.475406 
L 311.339815 90.64301 
L 318.90382 90.64301 
L 318.90382 86.810614 
L 319.365206 86.810614 
L 319.365206 82.978218 
L 320.223103 82.978218 
L 320.223103 79.145822 
L 320.441994 79.145822 
L 320.441994 75.313426 
L 334.324985 75.313426 
L 334.324985 71.48103 
L 336.02978 71.48103 
L 336.02978 67.648634 
L 338.246893 67.648634 
L 338.246893 63.816238 
L 339.07779 63.816238 
L 339.07779 59.983842 
L 340.666179 59.983842 
L 340.666179 56.151446 
L 354.805699 56.151446 
L 354.805699 52.31905 
L 362.535177 52.31905 
L 362.535177 48.486653 
L 366.538429 48.486653 
L 366.538429 44.654257 
L 367.080151 44.654257 
L 367.080151 40.821861 
L 368.468539 40.821861 
L 368.468539 36.989465 
L 371.265613 36.989465 
L 371.265613 33.157069 
L 371.992142 33.157069 
L 371.992142 29.324673 
L 381.096674 29.324673 
L 381.096674 25.492277 
L 381.410153 25.492277 
L 381.410153 21.659881 
L 384.857364 21.659881 
L 384.857364 17.827485 
L 385.7521 17.827485 
L 385.7521 13.995089 
L 387.243973 13.995089 
L 387.243973 10.162693 
L 393.34506 10.162693 
L 393.34506 6.330297 
L 393.34506 6.330297 
L 460.8 6.330297 
L 460.8 6.330297 
" clip-path="url(#p7d9850ab97)" style="fill: none; stroke: #bf00bf; stroke-width: 1.5; stroke-linecap: square"/>
   </g>
   <g id="line2d_65">
    <defs>
     <path id="m7daec0705d" d="M 0 7.5 
C 1.989023 7.5 3.896849 6.709753 5.303301 5.303301 
C 6.709753 3.896849 7.5 1.989023 7.5 0 
C 7.5 -1.989023 6.709753 -3.896849 5.303301 -5.303301 
C 3.896849 -6.709753 1.989023 -7.5 0 -7.5 
C -1.989023 -7.5 -3.896849 -6.709753 -5.303301 -5.303301 
C -6.709753 -3.896849 -7.5 -1.989023 -7.5 0 
C -7.5 1.989023 -6.709753 3.896849 -5.303301 5.303301 
C -3.896849 6.709753 -1.989023 7.5 0 7.5 
z
" style="stroke: #bf00bf; stroke-width: 1.5"/>
    </defs>
    <g clip-path="url(#p7d9850ab97)">
     <use xlink:href="#m7daec0705d" x="271.103035" y="228.609267" style="fill-opacity: 0; stroke: #bf00bf; stroke-width: 1.5"/>
     <use xlink:href="#m7daec0705d" x="306.152255" y="109.80499" style="fill-opacity: 0; stroke: #bf00bf; stroke-width: 1.5"/>
     <use xlink:href="#m7daec0705d" x="354.805699" y="56.151446" style="fill-opacity: 0; stroke: #bf00bf; stroke-width: 1.5"/>
     <use xlink:href="#m7daec0705d" x="393.34506" y="10.162693" style="fill-opacity: 0; stroke: #bf00bf; stroke-width: 1.5"/>
     <use xlink:href="#m7daec0705d" x="393.34506" y="6.330297" style="fill-opacity: 0; stroke: #bf00bf; stroke-width: 1.5"/>
    </g>
   </g>
   <g id="line2d_66">
    <path clip-path="url(#p7d9850ab97)" style="fill: none; stroke: #bf00bf; stroke-width: 1.5; stroke-linecap: square"/>
   </g>
   <g id="line2d_67">
    <path d="M 235.729454 293.76 
L 235.729454 289.927604 
L 240.032879 289.927604 
L 240.032879 286.095208 
L 266.818211 286.095208 
L 266.818211 282.262812 
L 270.694843 282.262812 
L 270.694843 278.430416 
L 271.85241 278.430416 
L 271.85241 274.59802 
L 272.498104 274.59802 
L 272.498104 270.765624 
L 273.032006 270.765624 
L 273.032006 266.933228 
L 276.126469 266.933228 
L 276.126469 263.100832 
L 278.647428 263.100832 
L 278.647428 259.268436 
L 278.770907 259.268436 
L 278.817818 251.603644 
L 279.213727 251.603644 
L 279.213727 247.771248 
L 279.467244 247.771248 
L 279.467244 243.938851 
L 280.210018 243.938851 
L 280.210018 240.106455 
L 280.327455 240.106455 
L 280.37765 232.441663 
L 284.372731 232.441663 
L 284.372731 228.609267 
L 288.043332 228.609267 
L 288.043332 224.776871 
L 291.958231 224.776871 
L 291.958231 220.944475 
L 292.317084 220.944475 
L 292.317084 217.112079 
L 294.255675 217.112079 
L 294.341146 209.447287 
L 297.858072 209.447287 
L 297.858072 205.614891 
L 298.815055 205.614891 
L 298.815055 201.782495 
L 299.868751 201.782495 
L 299.868751 197.950099 
L 300.247507 197.950099 
L 300.247507 194.117703 
L 301.664664 194.117703 
L 301.664664 190.285307 
L 301.807646 190.285307 
L 301.807646 186.452911 
L 302.063923 186.452911 
L 302.063923 182.620515 
L 302.21889 182.620515 
L 302.21889 178.788119 
L 303.309217 178.788119 
L 303.309217 174.955723 
L 303.420957 174.955723 
L 303.420957 171.123327 
L 303.782673 171.123327 
L 303.782673 167.290931 
L 303.947608 167.290931 
L 303.981534 159.626139 
L 304.186904 159.626139 
L 304.186904 155.793743 
L 304.336824 155.793743 
L 304.336824 151.961347 
L 304.751775 151.961347 
L 304.751775 148.12895 
L 305.06821 148.12895 
L 305.176324 140.464158 
L 307.49003 140.464158 
L 307.49003 136.631762 
L 307.719839 136.631762 
L 307.719839 132.799366 
L 308.078548 132.799366 
L 308.078548 128.96697 
L 308.955401 128.96697 
L 308.955401 125.134574 
L 311.253236 125.134574 
L 311.253236 121.302178 
L 311.407672 121.302178 
L 311.407672 117.469782 
L 312.447911 117.469782 
L 312.447911 113.637386 
L 313.87092 113.637386 
L 313.87092 109.80499 
L 314.193727 109.80499 
L 314.193727 105.972594 
L 314.667114 105.972594 
L 314.667114 102.140198 
L 315.916071 102.140198 
L 315.916071 98.307802 
L 321.885655 98.307802 
L 321.885655 94.475406 
L 322.365832 94.475406 
L 322.43074 86.810614 
L 322.95085 86.810614 
L 322.95085 82.978218 
L 323.190809 82.978218 
L 323.190809 79.145822 
L 324.686872 79.145822 
L 324.686872 75.313426 
L 325.066455 75.313426 
L 325.066455 71.48103 
L 338.028673 71.48103 
L 338.028673 67.648634 
L 340.517547 67.648634 
L 340.517547 63.816238 
L 342.394936 63.816238 
L 342.394936 59.983842 
L 343.678166 59.983842 
L 343.678166 56.151446 
L 359.107079 56.151446 
L 359.107079 52.31905 
L 367.393518 52.31905 
L 367.393518 48.486653 
L 371.333236 48.486653 
L 371.333236 44.654257 
L 372.65657 44.654257 
L 372.65657 40.821861 
L 372.970635 40.821861 
L 372.970635 36.989465 
L 381.512009 36.989465 
L 381.512009 33.157069 
L 387.563398 33.157069 
L 387.563398 29.324673 
L 389.726999 29.324673 
L 389.726999 25.492277 
L 390.149891 25.492277 
L 390.179413 17.827485 
L 390.583204 17.827485 
L 390.583204 13.995089 
L 390.848716 13.995089 
L 390.848716 10.162693 
L 391.109132 10.162693 
L 391.109132 6.330297 
L 391.109132 6.330297 
L 460.8 6.330297 
L 460.8 6.330297 
" clip-path="url(#p7d9850ab97)" style="fill: none; stroke: #ff0000; stroke-width: 3; stroke-linecap: square"/>
   </g>
   <g id="line2d_68">
    <defs>
     <path id="mba0e2341a2" d="M -0 14.142136 
L 8.485281 0 
L -0 -14.142136 
L -8.485281 -0 
z
" style="stroke: #ff0000; stroke-width: 3; stroke-linejoin: miter"/>
    </defs>
    <g clip-path="url(#p7d9850ab97)">
     <use xlink:href="#mba0e2341a2" x="278.647428" y="263.100832" style="fill-opacity: 0; stroke: #ff0000; stroke-width: 3; stroke-linejoin: miter"/>
     <use xlink:href="#mba0e2341a2" x="303.981534" y="163.458535" style="fill-opacity: 0; stroke: #ff0000; stroke-width: 3; stroke-linejoin: miter"/>
     <use xlink:href="#mba0e2341a2" x="325.066455" y="75.313426" style="fill-opacity: 0; stroke: #ff0000; stroke-width: 3; stroke-linejoin: miter"/>
     <use xlink:href="#mba0e2341a2" x="387.563398" y="33.157069" style="fill-opacity: 0; stroke: #ff0000; stroke-width: 3; stroke-linejoin: miter"/>
     <use xlink:href="#mba0e2341a2" x="391.109132" y="6.330297" style="fill-opacity: 0; stroke: #ff0000; stroke-width: 3; stroke-linejoin: miter"/>
    </g>
   </g>
   <g id="line2d_69">
    <path clip-path="url(#p7d9850ab97)" style="fill: none; stroke: #ff0000; stroke-width: 3; stroke-linecap: square"/>
    <g clip-path="url(#p7d9850ab97)">
     <use xlink:href="#mba0e2341a2" x="-1" y="581.189703" style="fill-opacity: 0; stroke: #ff0000; stroke-width: 3; stroke-linejoin: miter"/>
     <use xlink:href="#mba0e2341a2" x="460.8" y="581.189703" style="fill-opacity: 0; stroke: #ff0000; stroke-width: 3; stroke-linejoin: miter"/>
    </g>
   </g>
   <g id="line2d_70">
    <path d="M 226.337012 293.76 
L 226.337012 289.927604 
L 267.007262 289.927604 
L 267.007262 286.095208 
L 267.852384 286.095208 
L 267.92733 278.430416 
L 268.553106 278.430416 
L 268.553106 274.59802 
L 272.383008 274.59802 
L 272.383008 270.765624 
L 273.116586 270.765624 
L 273.116586 266.933228 
L 277.865883 266.933228 
L 277.865883 263.100832 
L 278.196409 263.100832 
L 278.196409 259.268436 
L 278.327641 259.268436 
L 278.327641 255.43604 
L 279.311922 255.43604 
L 279.311922 251.603644 
L 280.394364 251.603644 
L 280.394364 247.771248 
L 281.126448 247.771248 
L 281.126448 243.938851 
L 281.305455 243.938851 
L 281.305455 240.106455 
L 281.585451 240.106455 
L 281.671099 232.441663 
L 282.394957 232.441663 
L 282.394957 228.609267 
L 284.318776 228.609267 
L 284.318776 224.776871 
L 286.125825 224.776871 
L 286.125825 220.944475 
L 287.498571 220.944475 
L 287.498571 217.112079 
L 292.985473 217.112079 
L 292.985473 213.279683 
L 293.192815 213.279683 
L 293.192815 209.447287 
L 294.932954 209.447287 
L 294.932954 205.614891 
L 295.044413 205.614891 
L 295.044413 201.782495 
L 295.844149 201.782495 
L 295.844149 197.950099 
L 296.318303 197.950099 
L 296.318303 194.117703 
L 298.558379 194.117703 
L 298.558379 190.285307 
L 299.228067 190.285307 
L 299.228067 186.452911 
L 299.361501 186.452911 
L 299.361501 182.620515 
L 299.957937 182.620515 
L 299.957937 178.788119 
L 301.097517 178.788119 
L 301.137555 171.123327 
L 301.263057 171.123327 
L 301.263057 167.290931 
L 301.860746 167.290931 
L 301.860746 163.458535 
L 302.022282 163.458535 
L 302.022282 159.626139 
L 302.695523 159.626139 
L 302.790521 151.961347 
L 302.933825 151.961347 
L 302.933825 148.12895 
L 303.66696 148.12895 
L 303.66696 144.296554 
L 303.879646 144.296554 
L 303.879646 140.464158 
L 304.267124 140.464158 
L 304.267124 136.631762 
L 304.982458 136.631762 
L 304.982458 132.799366 
L 305.841804 132.799366 
L 305.841804 128.96697 
L 306.935254 128.96697 
L 306.935254 125.134574 
L 307.529613 125.134574 
L 307.529613 121.302178 
L 307.645743 121.302178 
L 307.645743 117.469782 
L 307.88131 117.469782 
L 307.88131 113.637386 
L 308.516685 113.637386 
L 308.516685 109.80499 
L 312.070184 109.80499 
L 312.070184 105.972594 
L 312.950377 105.972594 
L 312.950377 102.140198 
L 313.531301 102.140198 
L 313.531301 98.307802 
L 320.805447 98.307802 
L 320.805447 94.475406 
L 320.925156 94.475406 
L 320.925156 90.64301 
L 321.77401 90.64301 
L 321.77401 86.810614 
L 322.734718 86.810614 
L 322.830172 79.145822 
L 326.221563 79.145822 
L 326.221563 75.313426 
L 336.237493 75.313426 
L 336.237493 71.48103 
L 338.384339 71.48103 
L 338.384339 67.648634 
L 338.974711 67.648634 
L 338.974711 63.816238 
L 340.94624 63.816238 
L 340.94624 59.983842 
L 342.387354 59.983842 
L 342.387354 56.151446 
L 355.368694 56.151446 
L 355.368694 52.31905 
L 363.092612 52.31905 
L 363.092612 48.486653 
L 367.235013 48.486653 
L 367.235013 44.654257 
L 367.858896 44.654257 
L 367.858896 40.821861 
L 368.944046 40.821861 
L 368.944046 36.989465 
L 372.15762 36.989465 
L 372.15762 33.157069 
L 372.568796 33.157069 
L 372.568796 29.324673 
L 381.977313 29.324673 
L 381.977313 25.492277 
L 382.774999 25.492277 
L 382.774999 21.659881 
L 385.579247 21.659881 
L 385.579247 17.827485 
L 386.445646 17.827485 
L 386.445646 13.995089 
L 387.958818 13.995089 
L 387.958818 10.162693 
L 394.42767 10.162693 
L 394.42767 6.330297 
L 394.42767 6.330297 
L 460.8 6.330297 
L 460.8 6.330297 
" clip-path="url(#p7d9850ab97)" style="fill: none; stroke: #ff0000; stroke-width: 3; stroke-linecap: square"/>
   </g>
   <g id="line2d_71">
    <defs>
     <path id="me48eaa79e3" d="M 0 7.5 
C 1.989023 7.5 3.896849 6.709753 5.303301 5.303301 
C 6.709753 3.896849 7.5 1.989023 7.5 0 
C 7.5 -1.989023 6.709753 -3.896849 5.303301 -5.303301 
C 3.896849 -6.709753 1.989023 -7.5 0 -7.5 
C -1.989023 -7.5 -3.896849 -6.709753 -5.303301 -5.303301 
C -6.709753 -3.896849 -7.5 -1.989023 -7.5 0 
C -7.5 1.989023 -6.709753 3.896849 -5.303301 5.303301 
C -3.896849 6.709753 -1.989023 7.5 0 7.5 
z
" style="stroke: #ff0000; stroke-width: 3"/>
    </defs>
    <g clip-path="url(#p7d9850ab97)">
     <use xlink:href="#me48eaa79e3" x="287.498571" y="220.944475" style="fill-opacity: 0; stroke: #ff0000; stroke-width: 3"/>
     <use xlink:href="#me48eaa79e3" x="305.841804" y="132.799366" style="fill-opacity: 0; stroke: #ff0000; stroke-width: 3"/>
     <use xlink:href="#me48eaa79e3" x="355.368694" y="56.151446" style="fill-opacity: 0; stroke: #ff0000; stroke-width: 3"/>
     <use xlink:href="#me48eaa79e3" x="394.42767" y="10.162693" style="fill-opacity: 0; stroke: #ff0000; stroke-width: 3"/>
     <use xlink:href="#me48eaa79e3" x="394.42767" y="6.330297" style="fill-opacity: 0; stroke: #ff0000; stroke-width: 3"/>
    </g>
   </g>
   <g id="line2d_72">
    <path clip-path="url(#p7d9850ab97)" style="fill: none; stroke: #ff0000; stroke-width: 3; stroke-linecap: square"/>
   </g>
   <g id="line2d_73">
    <path d="M 391.109132 293.76 
L 391.109132 3.456 
" clip-path="url(#p7d9850ab97)" style="fill: none; stroke: #000000; stroke-width: 1.5; stroke-linecap: square"/>
    <defs>
     <path id="m5f5a632fa2" d="M -10 0 
L 10 0 
M 0 10 
L 0 -10 
" style="stroke: #000000; stroke-width: 3"/>
    </defs>
    <g clip-path="url(#p7d9850ab97)">
     <use xlink:href="#m5f5a632fa2" x="391.109132" y="293.76" style="stroke: #000000; stroke-width: 3"/>
     <use xlink:href="#m5f5a632fa2" x="391.109132" y="3.456" style="stroke: #000000; stroke-width: 3"/>
    </g>
   </g>
   <g id="line2d_74">
    <path d="M 394.42767 293.76 
L 394.42767 3.456 
" clip-path="url(#p7d9850ab97)" style="fill: none; stroke: #000000; stroke-width: 1.5; stroke-linecap: square"/>
    <defs>
     <path id="m4e2e72e83e" d="M 0 7.5 
C 1.989023 7.5 3.896849 6.709753 5.303301 5.303301 
C 6.709753 3.896849 7.5 1.989023 7.5 0 
C 7.5 -1.989023 6.709753 -3.896849 5.303301 -5.303301 
C 3.896849 -6.709753 1.989023 -7.5 0 -7.5 
C -1.989023 -7.5 -3.896849 -6.709753 -5.303301 -5.303301 
C -6.709753 -3.896849 -7.5 -1.989023 -7.5 0 
C -7.5 1.989023 -6.709753 3.896849 -5.303301 5.303301 
C -3.896849 6.709753 -1.989023 7.5 0 7.5 
z
" style="stroke: #000000; stroke-width: 3"/>
    </defs>
    <g clip-path="url(#p7d9850ab97)">
     <use xlink:href="#m4e2e72e83e" x="394.42767" y="293.76" style="fill-opacity: 0; stroke: #000000; stroke-width: 3"/>
     <use xlink:href="#m4e2e72e83e" x="394.42767" y="3.456" style="fill-opacity: 0; stroke: #000000; stroke-width: 3"/>
    </g>
   </g>
   <g id="patch_3">
    <path d="M 62.208 293.76 
L 62.208 3.456 
" style="fill: none; stroke: #000000; stroke-width: 0.8; stroke-linejoin: miter; stroke-linecap: square"/>
   </g>
   <g id="patch_4">
    <path d="M 460.8 293.76 
L 460.8 3.456 
" style="fill: none; stroke: #000000; stroke-width: 0.8; stroke-linejoin: miter; stroke-linecap: square"/>
   </g>
   <g id="patch_5">
    <path d="M 62.208 293.76 
L 460.8 293.76 
" style="fill: none; stroke: #000000; stroke-width: 0.8; stroke-linejoin: miter; stroke-linecap: square"/>
   </g>
   <g id="patch_6">
    <path d="M 62.208 3.456 
L 460.8 3.456 
" style="fill: none; stroke: #000000; stroke-width: 0.8; stroke-linejoin: miter; stroke-linecap: square"/>
   </g>
   <g id="text_12">
    <!-- f15-f19 -->
    <g transform="translate(225.405563 24.458955)scale(0.2 -0.2)">
     <defs>
      <path id="DejaVuSans-35" d="M 691 4666 
L 3169 4666 
L 3169 4134 
L 1269 4134 
L 1269 2991 
Q 1406 3038 1543 3061 
Q 1681 3084 1819 3084 
Q 2600 3084 3056 2656 
Q 3513 2228 3513 1497 
Q 3513 744 3044 326 
Q 2575 -91 1722 -91 
Q 1428 -91 1123 -41 
Q 819 9 494 109 
L 494 744 
Q 775 591 1075 516 
Q 1375 441 1709 441 
Q 2250 441 2565 725 
Q 2881 1009 2881 1497 
Q 2881 1984 2565 2268 
Q 2250 2553 1709 2553 
Q 1456 2553 1204 2497 
Q 953 2441 691 2322 
L 691 4666 
z
" transform="scale(0.015625)"/>
      <path id="DejaVuSans-2d" d="M 313 2009 
L 1997 2009 
L 1997 1497 
L 313 1497 
L 313 2009 
z
" transform="scale(0.015625)"/>
      <path id="DejaVuSans-39" d="M 703 97 
L 703 672 
Q 941 559 1184 500 
Q 1428 441 1663 441 
Q 2288 441 2617 861 
Q 2947 1281 2994 2138 
Q 2813 1869 2534 1725 
Q 2256 1581 1919 1581 
Q 1219 1581 811 2004 
Q 403 2428 403 3163 
Q 403 3881 828 4315 
Q 1253 4750 1959 4750 
Q 2769 4750 3195 4129 
Q 3622 3509 3622 2328 
Q 3622 1225 3098 567 
Q 2575 -91 1691 -91 
Q 1453 -91 1209 -44 
Q 966 3 703 97 
z
M 1959 2075 
Q 2384 2075 2632 2365 
Q 2881 2656 2881 3163 
Q 2881 3666 2632 3958 
Q 2384 4250 1959 4250 
Q 1534 4250 1286 3958 
Q 1038 3666 1038 3163 
Q 1038 2656 1286 2365 
Q 1534 2075 1959 2075 
z
" transform="scale(0.015625)"/>
     </defs>
     <use xlink:href="#DejaVuSans-66"/>
     <use xlink:href="#DejaVuSans-31" x="35.205078"/>
     <use xlink:href="#DejaVuSans-35" x="98.828125"/>
     <use xlink:href="#DejaVuSans-2d" x="162.451172"/>
     <use xlink:href="#DejaVuSans-66" x="198.535156"/>
     <use xlink:href="#DejaVuSans-31" x="233.740234"/>
     <use xlink:href="#DejaVuSans-39" x="297.363281"/>
    </g>
   </g>
   <g id="text_13">
    <!-- absolute targets -->
    <g transform="translate(62.208 609.932673)scale(0.14 -0.14)">
     <defs>
      <path id="DejaVuSans-62" d="M 3116 1747 
Q 3116 2381 2855 2742 
Q 2594 3103 2138 3103 
Q 1681 3103 1420 2742 
Q 1159 2381 1159 1747 
Q 1159 1113 1420 752 
Q 1681 391 2138 391 
Q 2594 391 2855 752 
Q 3116 1113 3116 1747 
z
M 1159 2969 
Q 1341 3281 1617 3432 
Q 1894 3584 2278 3584 
Q 2916 3584 3314 3078 
Q 3713 2572 3713 1747 
Q 3713 922 3314 415 
Q 2916 -91 2278 -91 
Q 1894 -91 1617 61 
Q 1341 213 1159 525 
L 1159 0 
L 581 0 
L 581 4863 
L 1159 4863 
L 1159 2969 
z
" transform="scale(0.015625)"/>
      <path id="DejaVuSans-75" d="M 544 1381 
L 544 3500 
L 1119 3500 
L 1119 1403 
Q 1119 906 1312 657 
Q 1506 409 1894 409 
Q 2359 409 2629 706 
Q 2900 1003 2900 1516 
L 2900 3500 
L 3475 3500 
L 3475 0 
L 2900 0 
L 2900 538 
Q 2691 219 2414 64 
Q 2138 -91 1772 -91 
Q 1169 -91 856 284 
Q 544 659 544 1381 
z
M 1991 3584 
L 1991 3584 
z
" transform="scale(0.015625)"/>
      <path id="DejaVuSans-65" d="M 3597 1894 
L 3597 1613 
L 953 1613 
Q 991 1019 1311 708 
Q 1631 397 2203 397 
Q 2534 397 2845 478 
Q 3156 559 3463 722 
L 3463 178 
Q 3153 47 2828 -22 
Q 2503 -91 2169 -91 
Q 1331 -91 842 396 
Q 353 884 353 1716 
Q 353 2575 817 3079 
Q 1281 3584 2069 3584 
Q 2775 3584 3186 3129 
Q 3597 2675 3597 1894 
z
M 3022 2063 
Q 3016 2534 2758 2815 
Q 2500 3097 2075 3097 
Q 1594 3097 1305 2825 
Q 1016 2553 972 2059 
L 3022 2063 
z
" transform="scale(0.015625)"/>
     </defs>
     <use xlink:href="#DejaVuSans-61"/>
     <use xlink:href="#DejaVuSans-62" x="61.279297"/>
     <use xlink:href="#DejaVuSans-73" x="124.755859"/>
     <use xlink:href="#DejaVuSans-6f" x="176.855469"/>
     <use xlink:href="#DejaVuSans-6c" x="238.037109"/>
     <use xlink:href="#DejaVuSans-75" x="265.820312"/>
     <use xlink:href="#DejaVuSans-74" x="329.199219"/>
     <use xlink:href="#DejaVuSans-65" x="368.408203"/>
     <use xlink:href="#DejaVuSans-20" x="429.931641"/>
     <use xlink:href="#DejaVuSans-74" x="461.71875"/>
     <use xlink:href="#DejaVuSans-61" x="500.927734"/>
     <use xlink:href="#DejaVuSans-72" x="562.207031"/>
     <use xlink:href="#DejaVuSans-67" x="601.570312"/>
     <use xlink:href="#DejaVuSans-65" x="665.046875"/>
     <use xlink:href="#DejaVuSans-74" x="726.570312"/>
     <use xlink:href="#DejaVuSans-73" x="765.779297"/>
    </g>
   </g>
   <g id="text_14">
    <!-- v2.6.1.158 -->
    <g style="fill: #808080" transform="translate(234.689938 288.777272)scale(0.1 -0.1)">
     <use xlink:href="#DejaVuSans-76"/>
     <use xlink:href="#DejaVuSans-32" x="59.179688"/>
     <use xlink:href="#DejaVuSans-2e" x="122.802734"/>
     <use xlink:href="#DejaVuSans-36" x="154.589844"/>
     <use xlink:href="#DejaVuSans-2e" x="218.212891"/>
     <use xlink:href="#DejaVuSans-31" x="250"/>
     <use xlink:href="#DejaVuSans-2e" x="313.623047"/>
     <use xlink:href="#DejaVuSans-31" x="345.410156"/>
     <use xlink:href="#DejaVuSans-35" x="409.033203"/>
     <use xlink:href="#DejaVuSans-38" x="472.65625"/>
    </g>
   </g>
   <g id="legend_1">
    <g id="patch_7">
     <path d="M 76.208 136.881 
L 160.148625 136.881 
Q 164.148625 136.881 164.148625 132.881 
L 164.148625 17.456 
Q 164.148625 13.456 160.148625 13.456 
L 76.208 13.456 
Q 72.208 13.456 72.208 17.456 
L 72.208 132.881 
Q 72.208 136.881 76.208 136.881 
z
" style="fill: #ffffff; opacity: 0.2; stroke: #cccccc; stroke-linejoin: miter"/>
    </g>
    <g id="line2d_75">
     <path d="M 80.208 29.652875 
L 80.208 29.652875 
L 100.208 29.652875 
L 100.208 29.652875 
L 120.208 29.652875 
" style="fill: none; stroke: #000000; stroke-width: 1.5; stroke-linecap: square"/>
    </g>
    <g id="text_15">
     <!-- 1 -->
     <g transform="translate(136.208 36.652875)scale(0.2 -0.2)">
      <use xlink:href="#DejaVuSans-31"/>
     </g>
    </g>
    <g id="line2d_76">
     <path d="M 80.208 59.009125 
L 80.208 59.009125 
L 100.208 59.009125 
L 100.208 59.009125 
L 120.208 59.009125 
" style="fill: none; stroke: #00bfbf; stroke-width: 1.5; stroke-linecap: square"/>
    </g>
    <g id="text_16">
     <!-- -1 -->
     <g transform="translate(136.208 66.009125)scale(0.2 -0.2)">
      <use xlink:href="#DejaVuSans-2d"/>
      <use xlink:href="#DejaVuSans-31" x="36.083984"/>
     </g>
    </g>
    <g id="line2d_77">
     <path d="M 80.208 88.365375 
L 80.208 88.365375 
L 100.208 88.365375 
L 100.208 88.365375 
L 120.208 88.365375 
" style="fill: none; stroke: #bf00bf; stroke-width: 1.5; stroke-linecap: square"/>
    </g>
    <g id="text_17">
     <!-- -4 -->
     <g transform="translate(136.208 95.365375)scale(0.2 -0.2)">
      <use xlink:href="#DejaVuSans-2d"/>
      <use xlink:href="#DejaVuSans-34" x="36.083984"/>
     </g>
    </g>
    <g id="line2d_78">
     <path d="M 80.208 117.721625 
L 80.208 117.721625 
L 100.208 117.721625 
L 100.208 117.721625 
L 120.208 117.721625 
" style="fill: none; stroke: #ff0000; stroke-width: 3; stroke-linecap: square"/>
    </g>
    <g id="text_18">
     <!-- -8 -->
     <g transform="translate(136.208 124.721625)scale(0.2 -0.2)">
      <use xlink:href="#DejaVuSans-2d"/>
      <use xlink:href="#DejaVuSans-38" x="36.083984"/>
     </g>
    </g>
   </g>
  </g>
 </g>
 <defs>
  <clipPath id="p7d9850ab97">
   <rect x="62.208" y="3.456" width="398.592" height="290.304"/>
  </clipPath>
 </defs>
</svg>
