<?xml version="1.0" encoding="utf-8" standalone="no"?>
<!DOCTYPE svg PUBLIC "-//W3C//DTD SVG 1.1//EN"
  "http://www.w3.org/Graphics/SVG/1.1/DTD/svg11.dtd">
<svg xmlns:xlink="http://www.w3.org/1999/xlink" width="460.8pt" height="345.6pt" viewBox="0 0 460.8 345.6" xmlns="http://www.w3.org/2000/svg" version="1.1">
 <metadata>
  <rdf:RDF xmlns:dc="http://purl.org/dc/elements/1.1/" xmlns:cc="http://creativecommons.org/ns#" xmlns:rdf="http://www.w3.org/1999/02/22-rdf-syntax-ns#">
   <cc:Work>
    <dc:type rdf:resource="http://purl.org/dc/dcmitype/StillImage"/>
    <dc:date>2023-04-07T14:52:12.225792</dc:date>
    <dc:format>image/svg+xml</dc:format>
    <dc:creator>
     <cc:Agent>
      <dc:title>Matplotlib v3.5.2, https://matplotlib.org/</dc:title>
     </cc:Agent>
    </dc:creator>
   </cc:Work>
  </rdf:RDF>
 </metadata>
 <defs>
  <style type="text/css">*{stroke-linejoin: round; stroke-linecap: butt}</style>
 </defs>
 <g id="figure_1">
  <g id="patch_1">
   <path d="M 0 345.6 
L 460.8 345.6 
L 460.8 0 
L 0 0 
z
" style="fill: #ffffff"/>
  </g>
  <g id="axes_1">
   <g id="patch_2">
    <path d="M 0 293.76 
L 460.8 293.76 
L 460.8 3.456 
L 0 3.456 
z
" style="fill: #ffffff"/>
   </g>
   <g id="matplotlib.axis_1">
    <g id="xtick_1">
     <g id="line2d_1">
      <path d="M 106.953767 293.76 
L 106.953767 3.456 
" clip-path="url(#p5584138e1f)" style="fill: none; stroke: #b0b0b0; stroke-width: 0.8; stroke-linecap: square"/>
     </g>
     <g id="line2d_2">
      <defs>
       <path id="m08edcb5e23" d="M 0 0 
L 0 3.5 
" style="stroke: #000000; stroke-width: 0.8"/>
      </defs>
      <g>
       <use xlink:href="#m08edcb5e23" x="106.953767" y="293.76" style="stroke: #000000; stroke-width: 0.8"/>
      </g>
     </g>
     <g id="text_1">
      <!-- -4 -->
      <g transform="translate(96.983454 315.956875)scale(0.2 -0.2)">
       <defs>
        <path id="DejaVuSans-2d" d="M 313 2009 
L 1997 2009 
L 1997 1497 
L 313 1497 
L 313 2009 
z
" transform="scale(0.015625)"/>
        <path id="DejaVuSans-34" d="M 2419 4116 
L 825 1625 
L 2419 1625 
L 2419 4116 
z
M 2253 4666 
L 3047 4666 
L 3047 1625 
L 3713 1625 
L 3713 1100 
L 3047 1100 
L 3047 0 
L 2419 0 
L 2419 1100 
L 313 1100 
L 313 1709 
L 2253 4666 
z
" transform="scale(0.015625)"/>
       </defs>
       <use xlink:href="#DejaVuSans-2d"/>
       <use xlink:href="#DejaVuSans-34" x="36.083984"/>
      </g>
     </g>
    </g>
    <g id="xtick_2">
     <g id="line2d_3">
      <path d="M 214.023205 293.76 
L 214.023205 3.456 
" clip-path="url(#p5584138e1f)" style="fill: none; stroke: #b0b0b0; stroke-width: 0.8; stroke-linecap: square"/>
     </g>
     <g id="line2d_4">
      <g>
       <use xlink:href="#m08edcb5e23" x="214.023205" y="293.76" style="stroke: #000000; stroke-width: 0.8"/>
      </g>
     </g>
     <g id="text_2">
      <!-- 0 -->
      <g transform="translate(207.660705 315.956875)scale(0.2 -0.2)">
       <defs>
        <path id="DejaVuSans-30" d="M 2034 4250 
Q 1547 4250 1301 3770 
Q 1056 3291 1056 2328 
Q 1056 1369 1301 889 
Q 1547 409 2034 409 
Q 2525 409 2770 889 
Q 3016 1369 3016 2328 
Q 3016 3291 2770 3770 
Q 2525 4250 2034 4250 
z
M 2034 4750 
Q 2819 4750 3233 4129 
Q 3647 3509 3647 2328 
Q 3647 1150 3233 529 
Q 2819 -91 2034 -91 
Q 1250 -91 836 529 
Q 422 1150 422 2328 
Q 422 3509 836 4129 
Q 1250 4750 2034 4750 
z
" transform="scale(0.015625)"/>
       </defs>
       <use xlink:href="#DejaVuSans-30"/>
      </g>
     </g>
    </g>
    <g id="xtick_3">
     <g id="line2d_5">
      <path d="M 321.092643 293.76 
L 321.092643 3.456 
" clip-path="url(#p5584138e1f)" style="fill: none; stroke: #b0b0b0; stroke-width: 0.8; stroke-linecap: square"/>
     </g>
     <g id="line2d_6">
      <g>
       <use xlink:href="#m08edcb5e23" x="321.092643" y="293.76" style="stroke: #000000; stroke-width: 0.8"/>
      </g>
     </g>
     <g id="text_3">
      <!-- 4 -->
      <g transform="translate(314.730143 315.956875)scale(0.2 -0.2)">
       <use xlink:href="#DejaVuSans-34"/>
      </g>
     </g>
    </g>
    <g id="xtick_4">
     <g id="line2d_7">
      <path d="M 428.162081 293.76 
L 428.162081 3.456 
" clip-path="url(#p5584138e1f)" style="fill: none; stroke: #b0b0b0; stroke-width: 0.8; stroke-linecap: square"/>
     </g>
     <g id="line2d_8">
      <g>
       <use xlink:href="#m08edcb5e23" x="428.162081" y="293.76" style="stroke: #000000; stroke-width: 0.8"/>
      </g>
     </g>
     <g id="text_4">
      <!-- 8 -->
      <g transform="translate(421.799581 315.956875)scale(0.2 -0.2)">
       <defs>
        <path id="DejaVuSans-38" d="M 2034 2216 
Q 1584 2216 1326 1975 
Q 1069 1734 1069 1313 
Q 1069 891 1326 650 
Q 1584 409 2034 409 
Q 2484 409 2743 651 
Q 3003 894 3003 1313 
Q 3003 1734 2745 1975 
Q 2488 2216 2034 2216 
z
M 1403 2484 
Q 997 2584 770 2862 
Q 544 3141 544 3541 
Q 544 4100 942 4425 
Q 1341 4750 2034 4750 
Q 2731 4750 3128 4425 
Q 3525 4100 3525 3541 
Q 3525 3141 3298 2862 
Q 3072 2584 2669 2484 
Q 3125 2378 3379 2068 
Q 3634 1759 3634 1313 
Q 3634 634 3220 271 
Q 2806 -91 2034 -91 
Q 1263 -91 848 271 
Q 434 634 434 1313 
Q 434 1759 690 2068 
Q 947 2378 1403 2484 
z
M 1172 3481 
Q 1172 3119 1398 2916 
Q 1625 2713 2034 2713 
Q 2441 2713 2670 2916 
Q 2900 3119 2900 3481 
Q 2900 3844 2670 4047 
Q 2441 4250 2034 4250 
Q 1625 4250 1398 4047 
Q 1172 3844 1172 3481 
z
" transform="scale(0.015625)"/>
       </defs>
       <use xlink:href="#DejaVuSans-38"/>
      </g>
     </g>
    </g>
    <g id="text_5">
     <!-- log10 of Df -->
     <g transform="translate(175.214063 339.313125)scale(0.2 -0.2)">
      <defs>
       <path id="DejaVuSans-6c" d="M 603 4863 
L 1178 4863 
L 1178 0 
L 603 0 
L 603 4863 
z
" transform="scale(0.015625)"/>
       <path id="DejaVuSans-6f" d="M 1959 3097 
Q 1497 3097 1228 2736 
Q 959 2375 959 1747 
Q 959 1119 1226 758 
Q 1494 397 1959 397 
Q 2419 397 2687 759 
Q 2956 1122 2956 1747 
Q 2956 2369 2687 2733 
Q 2419 3097 1959 3097 
z
M 1959 3584 
Q 2709 3584 3137 3096 
Q 3566 2609 3566 1747 
Q 3566 888 3137 398 
Q 2709 -91 1959 -91 
Q 1206 -91 779 398 
Q 353 888 353 1747 
Q 353 2609 779 3096 
Q 1206 3584 1959 3584 
z
" transform="scale(0.015625)"/>
       <path id="DejaVuSans-67" d="M 2906 1791 
Q 2906 2416 2648 2759 
Q 2391 3103 1925 3103 
Q 1463 3103 1205 2759 
Q 947 2416 947 1791 
Q 947 1169 1205 825 
Q 1463 481 1925 481 
Q 2391 481 2648 825 
Q 2906 1169 2906 1791 
z
M 3481 434 
Q 3481 -459 3084 -895 
Q 2688 -1331 1869 -1331 
Q 1566 -1331 1297 -1286 
Q 1028 -1241 775 -1147 
L 775 -588 
Q 1028 -725 1275 -790 
Q 1522 -856 1778 -856 
Q 2344 -856 2625 -561 
Q 2906 -266 2906 331 
L 2906 616 
Q 2728 306 2450 153 
Q 2172 0 1784 0 
Q 1141 0 747 490 
Q 353 981 353 1791 
Q 353 2603 747 3093 
Q 1141 3584 1784 3584 
Q 2172 3584 2450 3431 
Q 2728 3278 2906 2969 
L 2906 3500 
L 3481 3500 
L 3481 434 
z
" transform="scale(0.015625)"/>
       <path id="DejaVuSans-31" d="M 794 531 
L 1825 531 
L 1825 4091 
L 703 3866 
L 703 4441 
L 1819 4666 
L 2450 4666 
L 2450 531 
L 3481 531 
L 3481 0 
L 794 0 
L 794 531 
z
" transform="scale(0.015625)"/>
       <path id="DejaVuSans-20" transform="scale(0.015625)"/>
       <path id="DejaVuSans-66" d="M 2375 4863 
L 2375 4384 
L 1825 4384 
Q 1516 4384 1395 4259 
Q 1275 4134 1275 3809 
L 1275 3500 
L 2222 3500 
L 2222 3053 
L 1275 3053 
L 1275 0 
L 697 0 
L 697 3053 
L 147 3053 
L 147 3500 
L 697 3500 
L 697 3744 
Q 697 4328 969 4595 
Q 1241 4863 1831 4863 
L 2375 4863 
z
" transform="scale(0.015625)"/>
       <path id="DejaVuSans-44" d="M 1259 4147 
L 1259 519 
L 2022 519 
Q 2988 519 3436 956 
Q 3884 1394 3884 2338 
Q 3884 3275 3436 3711 
Q 2988 4147 2022 4147 
L 1259 4147 
z
M 628 4666 
L 1925 4666 
Q 3281 4666 3915 4102 
Q 4550 3538 4550 2338 
Q 4550 1131 3912 565 
Q 3275 0 1925 0 
L 628 0 
L 628 4666 
z
" transform="scale(0.015625)"/>
      </defs>
      <use xlink:href="#DejaVuSans-6c"/>
      <use xlink:href="#DejaVuSans-6f" x="27.783203"/>
      <use xlink:href="#DejaVuSans-67" x="88.964844"/>
      <use xlink:href="#DejaVuSans-31" x="152.441406"/>
      <use xlink:href="#DejaVuSans-30" x="216.064453"/>
      <use xlink:href="#DejaVuSans-20" x="279.6875"/>
      <use xlink:href="#DejaVuSans-6f" x="311.474609"/>
      <use xlink:href="#DejaVuSans-66" x="372.65625"/>
      <use xlink:href="#DejaVuSans-20" x="407.861328"/>
      <use xlink:href="#DejaVuSans-44" x="439.648438"/>
      <use xlink:href="#DejaVuSans-66" x="516.650391"/>
     </g>
    </g>
   </g>
   <g id="matplotlib.axis_2">
    <g id="ytick_1">
     <g id="line2d_9">
      <path d="M 0 293.76 
L 460.8 293.76 
" clip-path="url(#p5584138e1f)" style="fill: none; stroke: #b0b0b0; stroke-width: 0.8; stroke-linecap: square"/>
     </g>
     <g id="line2d_10">
      <defs>
       <path id="me4396fd2d7" d="M 0 0 
L -3.5 0 
" style="stroke: #000000; stroke-width: 0.8"/>
      </defs>
      <g>
       <use xlink:href="#me4396fd2d7" x="0" y="293.76" style="stroke: #000000; stroke-width: 0.8"/>
      </g>
     </g>
    </g>
    <g id="ytick_2">
     <g id="line2d_11">
      <path d="M 0 236.274059 
L 460.8 236.274059 
" clip-path="url(#p5584138e1f)" style="fill: none; stroke: #b0b0b0; stroke-width: 0.8; stroke-linecap: square"/>
     </g>
     <g id="line2d_12">
      <g>
       <use xlink:href="#me4396fd2d7" x="0" y="236.274059" style="stroke: #000000; stroke-width: 0.8"/>
      </g>
     </g>
    </g>
    <g id="ytick_3">
     <g id="line2d_13">
      <path d="M 0 178.788119 
L 460.8 178.788119 
" clip-path="url(#p5584138e1f)" style="fill: none; stroke: #b0b0b0; stroke-width: 0.8; stroke-linecap: square"/>
     </g>
     <g id="line2d_14">
      <g>
       <use xlink:href="#me4396fd2d7" x="0" y="178.788119" style="stroke: #000000; stroke-width: 0.8"/>
      </g>
     </g>
    </g>
    <g id="ytick_4">
     <g id="line2d_15">
      <path d="M 0 121.302178 
L 460.8 121.302178 
" clip-path="url(#p5584138e1f)" style="fill: none; stroke: #b0b0b0; stroke-width: 0.8; stroke-linecap: square"/>
     </g>
     <g id="line2d_16">
      <g>
       <use xlink:href="#me4396fd2d7" x="0" y="121.302178" style="stroke: #000000; stroke-width: 0.8"/>
      </g>
     </g>
    </g>
    <g id="ytick_5">
     <g id="line2d_17">
      <path d="M 0 63.816238 
L 460.8 63.816238 
" clip-path="url(#p5584138e1f)" style="fill: none; stroke: #b0b0b0; stroke-width: 0.8; stroke-linecap: square"/>
     </g>
     <g id="line2d_18">
      <g>
       <use xlink:href="#me4396fd2d7" x="0" y="63.816238" style="stroke: #000000; stroke-width: 0.8"/>
      </g>
     </g>
    </g>
    <g id="ytick_6">
     <g id="line2d_19">
      <path d="M 0 6.330297 
L 460.8 6.330297 
" clip-path="url(#p5584138e1f)" style="fill: none; stroke: #b0b0b0; stroke-width: 0.8; stroke-linecap: square"/>
     </g>
     <g id="line2d_20">
      <g>
       <use xlink:href="#me4396fd2d7" x="0" y="6.330297" style="stroke: #000000; stroke-width: 0.8"/>
      </g>
     </g>
    </g>
   </g>
   <g id="line2d_21">
    <path d="M -1 163.458535 
L -0.115672 163.458535 
L -0.115672 105.972594 
L 202.584589 105.972594 
L 202.584589 102.140198 
L 203.659821 102.140198 
L 203.659821 98.307802 
L 206.145195 98.307802 
L 206.145195 94.475406 
L 210.71241 94.475406 
L 210.71241 90.64301 
L 213.412515 90.64301 
L 213.412515 86.810614 
L 213.964456 86.810614 
L 213.964456 63.816238 
L 222.022234 63.816238 
L 222.022234 52.31905 
L 223.834098 52.31905 
L 223.834098 48.486653 
L 224.6571 48.486653 
L 224.6571 44.654257 
L 224.892068 44.654257 
L 224.892068 40.821861 
L 225.531796 40.821861 
L 225.531796 36.989465 
L 226.735732 36.989465 
L 226.735732 6.330297 
L 226.735732 6.330297 
L 460.8 6.330297 
L 460.8 6.330297 
" clip-path="url(#p5584138e1f)" style="fill: none; stroke: #ff0000; stroke-width: 3; stroke-linecap: square"/>
   </g>
   <g id="line2d_22">
    <path d="M 239.382686 293.76 
L 239.382686 289.927604 
L 242.755455 289.927604 
L 242.755455 286.095208 
L 243.682047 286.095208 
L 243.682047 282.262812 
L 247.063636 282.262812 
L 247.063636 278.430416 
L 248.035308 278.430416 
L 248.035308 274.59802 
L 250.970355 274.59802 
L 250.970355 270.765624 
L 252.634834 270.765624 
L 252.725973 263.100832 
L 253.939926 263.100832 
L 253.964008 255.43604 
L 255.093408 255.43604 
L 255.093408 251.603644 
L 255.289627 251.603644 
L 255.289627 247.771248 
L 256.363828 247.771248 
L 256.363828 243.938851 
L 257.157304 243.938851 
L 257.157304 240.106455 
L 260.395267 240.106455 
L 260.395267 236.274059 
L 262.940915 236.274059 
L 262.940915 232.441663 
L 263.865721 232.441663 
L 263.865721 224.776871 
L 264.986647 224.776871 
L 264.986647 220.944475 
L 266.057321 220.944475 
L 266.098353 213.279683 
L 266.674301 213.279683 
L 266.674301 205.614891 
L 267.554311 205.614891 
L 267.554311 201.782495 
L 267.737788 201.782495 
L 267.737788 197.950099 
L 267.934764 197.950099 
L 267.934764 194.117703 
L 268.195797 194.117703 
L 268.21643 186.452911 
L 268.397458 186.452911 
L 268.433183 151.961347 
L 269.218077 151.961347 
L 269.218077 148.12895 
L 269.500814 148.12895 
L 269.500814 144.296554 
L 270.006007 144.296554 
L 270.006007 140.464158 
L 272.65379 140.464158 
L 272.65379 136.631762 
L 274.140569 136.631762 
L 274.140569 132.799366 
L 274.873979 132.799366 
L 274.873979 128.96697 
L 275.134126 128.96697 
L 275.134126 125.134574 
L 275.518288 125.134574 
L 275.518288 121.302178 
L 276.291464 121.302178 
L 276.291464 117.469782 
L 276.915626 117.469782 
L 276.915626 113.637386 
L 277.474919 113.637386 
L 277.556499 102.140198 
L 277.81331 102.140198 
L 277.81331 98.307802 
L 278.008926 98.307802 
L 278.008926 94.475406 
L 278.221027 94.475406 
L 278.243216 86.810614 
L 278.579932 86.810614 
L 278.619751 79.145822 
L 278.740968 79.145822 
L 278.740968 75.313426 
L 279.105215 75.313426 
L 279.105215 71.48103 
L 282.27875 71.48103 
L 282.27875 67.648634 
L 284.519281 67.648634 
L 284.519281 63.816238 
L 322.486609 63.816238 
L 322.486609 59.983842 
L 348.755948 59.983842 
L 348.755948 56.151446 
L 350.577316 56.151446 
L 350.577316 52.31905 
L 357.977588 52.31905 
L 357.977588 48.486653 
L 359.56839 48.486653 
L 359.56839 44.654257 
L 360.241715 44.654257 
L 360.241715 40.821861 
L 363.106237 40.821861 
L 363.106237 36.989465 
L 363.66287 36.989465 
L 363.66287 33.157069 
L 392.675981 33.157069 
L 392.675981 29.324673 
L 392.813125 29.324673 
L 392.813125 25.492277 
L 393.353948 25.492277 
L 393.353948 21.659881 
L 394.373355 21.659881 
L 394.373355 17.827485 
L 400.46832 17.827485 
L 400.46832 13.995089 
L 402.983121 13.995089 
L 402.983121 10.162693 
L 403.903486 10.162693 
L 403.903486 6.330297 
L 403.903486 6.330297 
L 460.8 6.330297 
L 460.8 6.330297 
" clip-path="url(#p5584138e1f)" style="fill: none; stroke: #00bfbf; stroke-width: 1.5; stroke-linecap: square"/>
   </g>
   <g id="line2d_23">
    <path d="M 236.800974 293.76 
L 236.800974 289.927604 
L 239.382686 289.927604 
L 239.382686 286.095208 
L 242.755455 286.095208 
L 242.755455 282.262812 
L 243.469512 282.262812 
L 243.469512 278.430416 
L 243.682047 278.430416 
L 243.682047 274.59802 
L 246.082299 274.59802 
L 246.082299 270.765624 
L 247.063636 270.765624 
L 247.063636 266.933228 
L 248.035308 266.933228 
L 248.035308 263.100832 
L 252.047467 263.100832 
L 252.047467 259.268436 
L 252.396432 259.268436 
L 252.497426 251.603644 
L 252.725973 251.603644 
L 252.771071 243.938851 
L 256.004083 243.938851 
L 256.004083 240.106455 
L 257.157304 240.106455 
L 257.157304 236.274059 
L 259.452952 236.274059 
L 259.452952 232.441663 
L 262.445634 232.441663 
L 262.450097 224.776871 
L 262.600062 224.776871 
L 262.600062 220.944475 
L 262.864421 220.944475 
L 262.940915 213.279683 
L 263.865721 213.279683 
L 263.865721 205.614891 
L 264.121274 205.614891 
L 264.138006 197.950099 
L 264.309781 197.950099 
L 264.309781 194.117703 
L 264.759289 194.117703 
L 264.759289 190.285307 
L 264.986647 190.285307 
L 264.986647 186.452911 
L 265.694294 186.452911 
L 265.727843 178.788119 
L 266.098353 178.788119 
L 266.098353 174.955723 
L 266.632439 174.955723 
L 266.674301 163.458535 
L 267.030925 163.458535 
L 267.030925 159.626139 
L 267.32459 159.626139 
L 267.32459 155.793743 
L 267.463101 155.793743 
L 267.466524 148.12895 
L 267.737788 148.12895 
L 267.737788 144.296554 
L 267.934764 144.296554 
L 267.97326 136.631762 
L 268.704664 136.631762 
L 268.704664 132.799366 
L 269.253808 132.799366 
L 269.253808 128.96697 
L 269.877319 128.96697 
L 269.877319 125.134574 
L 270.006007 125.134574 
L 270.08395 117.469782 
L 270.228144 117.469782 
L 270.228144 113.637386 
L 271.011484 113.637386 
L 271.011484 109.80499 
L 271.809842 109.80499 
L 271.809842 105.972594 
L 272.65379 105.972594 
L 272.65379 102.140198 
L 273.895159 102.140198 
L 273.950754 94.475406 
L 274.873979 94.475406 
L 274.873979 90.64301 
L 275.095015 90.64301 
L 275.095015 86.810614 
L 275.957896 86.810614 
L 276.030083 79.145822 
L 276.915626 79.145822 
L 276.915626 75.313426 
L 277.556499 75.313426 
L 277.556499 71.48103 
L 278.243216 71.48103 
L 278.243216 67.648634 
L 278.619751 67.648634 
L 278.619751 63.816238 
L 322.486609 63.816238 
L 322.486609 59.983842 
L 337.483845 59.983842 
L 337.483845 56.151446 
L 337.650033 56.151446 
L 337.650033 52.31905 
L 337.83016 52.31905 
L 337.83016 48.486653 
L 348.755948 48.486653 
L 348.755948 44.654257 
L 357.977588 44.654257 
L 357.977588 40.821861 
L 359.56839 40.821861 
L 359.56839 36.989465 
L 360.241715 36.989465 
L 360.241715 33.157069 
L 360.889302 33.157069 
L 360.889302 29.324673 
L 363.66287 29.324673 
L 363.66287 25.492277 
L 370.67142 25.492277 
L 370.67142 21.659881 
L 374.374214 21.659881 
L 374.374214 17.827485 
L 376.915084 17.827485 
L 376.915084 13.995089 
L 392.675981 13.995089 
L 392.675981 10.162693 
L 402.983121 10.162693 
L 402.983121 6.330297 
L 402.983121 6.330297 
L 460.8 6.330297 
L 460.8 6.330297 
" clip-path="url(#p5584138e1f)" style="fill: none; stroke: #bf00bf; stroke-width: 1.5; stroke-linecap: square"/>
   </g>
   <g id="line2d_24">
    <path d="M 226.110785 293.76 
L 226.110785 289.927604 
L 234.873633 289.927604 
L 234.873633 286.095208 
L 235.181332 286.095208 
L 235.181332 282.262812 
L 236.235859 282.262812 
L 236.342794 274.59802 
L 236.800974 274.59802 
L 236.800974 270.765624 
L 237.321426 270.765624 
L 237.321426 266.933228 
L 242.755455 266.933228 
L 242.755455 263.100832 
L 246.082299 263.100832 
L 246.082299 259.268436 
L 246.5779 259.268436 
L 246.671731 251.603644 
L 247.086518 251.603644 
L 247.086518 247.771248 
L 247.694759 247.771248 
L 247.694759 243.938851 
L 248.826195 243.938851 
L 248.826195 240.106455 
L 248.965794 240.106455 
L 248.965794 236.274059 
L 249.696938 236.274059 
L 249.696938 232.441663 
L 250.300326 232.441663 
L 250.300326 228.609267 
L 253.467675 228.609267 
L 253.467675 224.776871 
L 257.507079 224.776871 
L 257.507079 220.944475 
L 257.978548 220.944475 
L 257.978548 217.112079 
L 258.576217 217.112079 
L 258.576217 213.279683 
L 259.085167 213.279683 
L 259.085167 209.447287 
L 259.452952 209.447287 
L 259.452952 205.614891 
L 259.572018 205.614891 
L 259.572018 201.782495 
L 259.770776 201.782495 
L 259.770776 197.950099 
L 260.45515 197.950099 
L 260.563702 190.285307 
L 261.536974 190.285307 
L 261.536974 186.452911 
L 262.600062 186.452911 
L 262.658258 178.788119 
L 263.140273 178.788119 
L 263.140273 174.955723 
L 263.46754 174.955723 
L 263.46754 171.123327 
L 263.774438 171.123327 
L 263.865721 159.626139 
L 264.138006 159.626139 
L 264.138006 155.793743 
L 264.452283 155.793743 
L 264.452283 151.961347 
L 264.986647 151.961347 
L 265.062346 144.296554 
L 265.399895 144.296554 
L 265.399895 140.464158 
L 266.098353 140.464158 
L 266.098353 136.631762 
L 266.674301 136.631762 
L 266.674301 132.799366 
L 267.737788 132.799366 
L 267.737788 128.96697 
L 267.934764 128.96697 
L 267.934764 125.134574 
L 268.595697 125.134574 
L 268.704664 117.469782 
L 269.253808 117.469782 
L 269.34925 105.972594 
L 269.459054 105.972594 
L 269.459054 102.140198 
L 270.475254 102.140198 
L 270.475254 98.307802 
L 270.653732 98.307802 
L 270.653732 94.475406 
L 271.456433 94.475406 
L 271.541712 86.810614 
L 271.61214 86.810614 
L 271.61214 82.978218 
L 272.24549 82.978218 
L 272.24549 79.145822 
L 272.65379 79.145822 
L 272.65379 75.313426 
L 273.401194 75.313426 
L 273.481208 67.648634 
L 274.10532 67.648634 
L 274.10532 63.816238 
L 318.368721 63.816238 
L 318.368721 59.983842 
L 322.486609 59.983842 
L 322.486609 56.151446 
L 324.96437 56.151446 
L 324.96437 52.31905 
L 337.483845 52.31905 
L 337.483845 48.486653 
L 337.83016 48.486653 
L 337.83016 44.654257 
L 338.269592 44.654257 
L 338.269592 40.821861 
L 348.089814 40.821861 
L 348.089814 36.989465 
L 348.755948 36.989465 
L 348.755948 33.157069 
L 352.21948 33.157069 
L 352.21948 29.324673 
L 353.789212 29.324673 
L 353.789212 25.492277 
L 355.939137 25.492277 
L 355.939137 21.659881 
L 356.539256 21.659881 
L 356.539256 17.827485 
L 360.115432 17.827485 
L 360.115432 13.995089 
L 366.383917 13.995089 
L 366.383917 10.162693 
L 367.522563 10.162693 
L 367.522563 6.330297 
L 367.522563 6.330297 
L 460.8 6.330297 
L 460.8 6.330297 
" clip-path="url(#p5584138e1f)" style="fill: none; stroke: #000000; stroke-width: 1.5; stroke-linecap: square"/>
   </g>
   <g id="line2d_25">
    <path d="M -0.115672 293.76 
L -0.115672 278.430416 
L 198.869491 278.430416 
L 198.869491 274.59802 
L 213.189394 274.59802 
L 213.189394 270.765624 
L 216.83434 270.765624 
L 216.83434 266.933228 
L 219.351877 266.933228 
L 219.351877 263.100832 
L 219.993986 263.100832 
L 219.993986 259.268436 
L 220.112739 259.268436 
L 220.112739 255.43604 
L 221.063795 255.43604 
L 221.063795 251.603644 
L 221.452171 251.603644 
L 221.452171 247.771248 
L 221.675681 247.771248 
L 221.675681 243.938851 
L 222.326243 243.938851 
L 222.390065 236.274059 
L 222.502415 236.274059 
L 222.502415 232.441663 
L 227.940425 232.441663 
L 227.940425 228.609267 
L 228.584649 228.609267 
L 228.584649 224.776871 
L 230.222094 224.776871 
L 230.222094 220.944475 
L 232.693378 220.944475 
L 232.693378 217.112079 
L 233.257085 217.112079 
L 233.257085 213.279683 
L 233.737965 213.279683 
L 233.83824 205.614891 
L 236.149076 205.614891 
L 236.149076 201.782495 
L 239.0522 201.782495 
L 239.0522 197.950099 
L 239.644092 197.950099 
L 239.644092 194.117703 
L 241.724932 194.117703 
L 241.724932 190.285307 
L 244.22152 190.285307 
L 244.22152 186.452911 
L 245.161931 186.452911 
L 245.161931 182.620515 
L 253.101134 182.620515 
L 253.101134 178.788119 
L 254.173451 178.788119 
L 254.173451 174.955723 
L 257.239907 174.955723 
L 257.292007 167.290931 
L 257.671506 167.290931 
L 257.671506 163.458535 
L 258.667504 163.458535 
L 258.667504 159.626139 
L 258.940506 159.626139 
L 258.940506 155.793743 
L 259.469617 155.793743 
L 259.469617 151.961347 
L 260.021596 151.961347 
L 260.021596 148.12895 
L 260.819164 148.12895 
L 260.902256 140.464158 
L 261.007679 140.464158 
L 261.007679 136.631762 
L 261.612007 136.631762 
L 261.690893 128.96697 
L 262.054913 128.96697 
L 262.054913 125.134574 
L 262.685152 125.134574 
L 262.685152 121.302178 
L 262.879662 121.302178 
L 262.879662 117.469782 
L 263.140273 117.469782 
L 263.140273 113.637386 
L 264.112858 113.637386 
L 264.138006 102.140198 
L 264.452283 102.140198 
L 264.524856 94.475406 
L 265.370314 94.475406 
L 265.370314 90.64301 
L 266.077356 90.64301 
L 266.077356 86.810614 
L 266.674301 86.810614 
L 266.674301 82.978218 
L 267.185286 82.978218 
L 267.185286 79.145822 
L 268.182066 79.145822 
L 268.182066 75.313426 
L 269.253808 75.313426 
L 269.253808 71.48103 
L 269.455115 71.48103 
L 269.455115 67.648634 
L 270.653732 67.648634 
L 270.653732 63.816238 
L 311.054647 63.816238 
L 311.054647 59.983842 
L 318.368721 59.983842 
L 318.368721 56.151446 
L 319.952844 56.151446 
L 319.952844 52.31905 
L 322.486609 52.31905 
L 322.486609 48.486653 
L 324.96437 48.486653 
L 324.96437 44.654257 
L 325.691095 44.654257 
L 325.691095 40.821861 
L 337.483845 40.821861 
L 337.483845 36.989465 
L 337.83016 36.989465 
L 337.83016 33.157069 
L 337.966928 33.157069 
L 337.966928 29.324673 
L 339.573108 29.324673 
L 339.573108 25.492277 
L 342.026242 25.492277 
L 342.026242 21.659881 
L 345.165534 21.659881 
L 345.165534 17.827485 
L 346.821605 17.827485 
L 346.821605 13.995089 
L 348.39386 13.995089 
L 348.39386 10.162693 
L 353.101024 10.162693 
L 353.101024 6.330297 
L 353.101024 6.330297 
L 460.8 6.330297 
L 460.8 6.330297 
" clip-path="url(#p5584138e1f)" style="fill: none; stroke: #00bfbf; stroke-width: 1.5; stroke-linecap: square"/>
   </g>
   <g id="line2d_26">
    <path d="M -0.115672 293.76 
L -0.115672 236.274059 
L 61.955451 236.274059 
L 61.955451 232.441663 
L 64.472154 232.441663 
L 64.472154 228.609267 
L 66.382938 228.609267 
L 66.382938 224.776871 
L 66.578734 224.776871 
L 66.578734 220.944475 
L 77.11116 220.944475 
L 77.11116 217.112079 
L 80.036154 217.112079 
L 80.036154 213.279683 
L 80.239184 213.279683 
L 80.239184 209.447287 
L 81.647069 209.447287 
L 81.647069 205.614891 
L 85.259644 205.614891 
L 85.259644 201.782495 
L 86.185571 201.782495 
L 86.185571 197.950099 
L 88.090339 197.950099 
L 88.090339 194.117703 
L 91.182819 194.117703 
L 91.182819 190.285307 
L 104.26377 190.285307 
L 104.26377 186.452911 
L 109.579993 186.452911 
L 109.579993 182.620515 
L 126.963878 182.620515 
L 126.963878 178.788119 
L 222.197407 178.788119 
L 222.197407 174.955723 
L 222.672255 174.955723 
L 222.672255 171.123327 
L 226.746671 171.123327 
L 226.746671 167.290931 
L 231.614926 167.290931 
L 231.614957 159.626139 
L 232.907909 159.626139 
L 232.907909 155.793743 
L 236.391335 155.793743 
L 236.391335 151.961347 
L 240.123686 151.961347 
L 240.123686 148.12895 
L 240.693621 148.12895 
L 240.693621 144.296554 
L 241.188965 144.296554 
L 241.188965 140.464158 
L 241.888369 140.464158 
L 241.888369 136.631762 
L 242.624599 136.631762 
L 242.668911 128.96697 
L 242.750199 128.96697 
L 242.750199 125.134574 
L 242.980862 125.134574 
L 242.980862 121.302178 
L 243.121723 121.302178 
L 243.121723 117.469782 
L 243.430048 117.469782 
L 243.430048 113.637386 
L 243.716287 113.637386 
L 243.716287 109.80499 
L 243.978886 109.80499 
L 244.059338 102.140198 
L 244.166611 102.140198 
L 244.166989 94.475406 
L 244.452017 94.475406 
L 244.452017 90.64301 
L 244.814485 90.64301 
L 244.871765 82.978218 
L 245.094356 82.978218 
L 245.149167 75.313426 
L 245.358485 75.313426 
L 245.358485 71.48103 
L 246.627677 71.48103 
L 246.658941 63.816238 
L 247.172585 63.816238 
L 247.172585 59.983842 
L 247.425868 59.983842 
L 247.425868 56.151446 
L 249.247192 56.151446 
L 249.247192 52.31905 
L 249.460845 52.31905 
L 249.460845 48.486653 
L 250.694554 48.486653 
L 250.694554 44.654257 
L 252.5975 44.654257 
L 252.5975 40.821861 
L 260.709509 40.821861 
L 260.709509 36.989465 
L 262.149226 36.989465 
L 262.149226 33.157069 
L 269.217167 33.157069 
L 269.217167 29.324673 
L 270.631018 29.324673 
L 270.631018 25.492277 
L 271.892553 25.492277 
L 271.892553 21.659881 
L 280.133857 21.659881 
L 280.133857 17.827485 
L 286.446815 17.827485 
L 286.446815 13.995089 
L 289.191297 13.995089 
L 289.191297 10.162693 
L 295.481957 10.162693 
L 295.481957 6.330297 
L 295.481957 6.330297 
L 460.8 6.330297 
L 460.8 6.330297 
" clip-path="url(#p5584138e1f)" style="fill: none; stroke: #bf00bf; stroke-width: 1.5; stroke-linecap: square"/>
   </g>
   <g id="line2d_27">
    <path d="M -1 174.955723 
L -0.115672 174.955723 
L -0.115672 117.469782 
L 213.964456 117.469782 
L 213.964456 113.637386 
L 222.022234 113.637386 
L 222.022234 90.64301 
L 226.735732 90.64301 
L 226.735732 71.48103 
L 230.079998 71.48103 
L 230.080012 63.816238 
L 232.642917 63.816238 
L 232.674026 56.151446 
L 234.793501 56.151446 
L 234.793501 36.989465 
L 236.5114 36.989465 
L 236.585491 25.492277 
L 237.820374 25.492277 
L 237.820374 21.659881 
L 238.137783 21.659881 
L 238.137783 17.827485 
L 239.506995 17.827485 
L 239.506995 13.995089 
L 241.839756 13.995089 
L 241.839778 6.330297 
L 241.839778 6.330297 
L 460.8 6.330297 
L 460.8 6.330297 
" clip-path="url(#p5584138e1f)" style="fill: none; stroke: #000000; stroke-width: 1.5; stroke-linecap: square"/>
   </g>
   <g id="line2d_28">
    <path d="M -1 167.290931 
L -0.115672 167.290931 
L -0.115672 109.80499 
L 213.964456 109.80499 
L 213.964456 71.48103 
L 222.022234 71.48103 
L 222.022234 52.31905 
L 226.735732 52.31905 
L 226.735732 29.324673 
L 227.329357 29.324673 
L 227.329357 25.492277 
L 228.115955 25.492277 
L 228.115955 21.659881 
L 230.006569 21.659881 
L 230.080012 6.330297 
L 230.080012 6.330297 
L 460.8 6.330297 
L 460.8 6.330297 
" clip-path="url(#p5584138e1f)" style="fill: none; stroke: #00bfbf; stroke-width: 1.5; stroke-linecap: square"/>
   </g>
   <g id="line2d_29">
    <path d="M -1 163.458535 
L -0.115672 163.458535 
L -0.115672 105.972594 
L 202.584589 105.972594 
L 202.584589 102.140198 
L 203.659821 102.140198 
L 203.659821 98.307802 
L 206.145195 98.307802 
L 206.145195 94.475406 
L 210.71241 94.475406 
L 210.71241 90.64301 
L 213.412515 90.64301 
L 213.412515 86.810614 
L 213.964456 86.810614 
L 213.964456 63.816238 
L 222.022234 63.816238 
L 222.022234 52.31905 
L 223.834098 52.31905 
L 223.834098 48.486653 
L 224.6571 48.486653 
L 224.6571 44.654257 
L 224.892068 44.654257 
L 224.892068 40.821861 
L 225.531796 40.821861 
L 225.531796 36.989465 
L 226.735732 36.989465 
L 226.776686 6.330297 
L 226.776686 6.330297 
L 460.8 6.330297 
L 460.8 6.330297 
" clip-path="url(#p5584138e1f)" style="fill: none; stroke: #bf00bf; stroke-width: 1.5; stroke-linecap: square"/>
   </g>
   <g id="patch_3">
    <path d="M 0 293.76 
L 0 3.456 
" style="fill: none; stroke: #000000; stroke-width: 0.8; stroke-linejoin: miter; stroke-linecap: square"/>
   </g>
   <g id="patch_4">
    <path d="M 460.8 293.76 
L 460.8 3.456 
" style="fill: none; stroke: #000000; stroke-width: 0.8; stroke-linejoin: miter; stroke-linecap: square"/>
   </g>
   <g id="patch_5">
    <path d="M -0 293.76 
L 460.8 293.76 
" style="fill: none; stroke: #000000; stroke-width: 0.8; stroke-linejoin: miter; stroke-linecap: square"/>
   </g>
   <g id="patch_6">
    <path d="M -0 3.456 
L 460.8 3.456 
" style="fill: none; stroke: #000000; stroke-width: 0.8; stroke-linejoin: miter; stroke-linecap: square"/>
   </g>
   <g id="text_6">
    <!-- {f1-f5}, 5-D -->
    <g transform="translate(331.334 287.95392)scale(0.2 -0.2)">
     <defs>
      <path id="DejaVuSans-7b" d="M 3272 -594 
L 3272 -1044 
L 3078 -1044 
Q 2300 -1044 2036 -812 
Q 1772 -581 1772 109 
L 1772 856 
Q 1772 1328 1603 1509 
Q 1434 1691 991 1691 
L 800 1691 
L 800 2138 
L 991 2138 
Q 1438 2138 1605 2317 
Q 1772 2497 1772 2963 
L 1772 3713 
Q 1772 4403 2036 4633 
Q 2300 4863 3078 4863 
L 3272 4863 
L 3272 4416 
L 3059 4416 
Q 2619 4416 2484 4278 
Q 2350 4141 2350 3700 
L 2350 2925 
Q 2350 2434 2208 2212 
Q 2066 1991 1722 1913 
Q 2069 1828 2209 1606 
Q 2350 1384 2350 897 
L 2350 122 
Q 2350 -319 2484 -456 
Q 2619 -594 3059 -594 
L 3272 -594 
z
" transform="scale(0.015625)"/>
      <path id="DejaVuSans-35" d="M 691 4666 
L 3169 4666 
L 3169 4134 
L 1269 4134 
L 1269 2991 
Q 1406 3038 1543 3061 
Q 1681 3084 1819 3084 
Q 2600 3084 3056 2656 
Q 3513 2228 3513 1497 
Q 3513 744 3044 326 
Q 2575 -91 1722 -91 
Q 1428 -91 1123 -41 
Q 819 9 494 109 
L 494 744 
Q 775 591 1075 516 
Q 1375 441 1709 441 
Q 2250 441 2565 725 
Q 2881 1009 2881 1497 
Q 2881 1984 2565 2268 
Q 2250 2553 1709 2553 
Q 1456 2553 1204 2497 
Q 953 2441 691 2322 
L 691 4666 
z
" transform="scale(0.015625)"/>
      <path id="DejaVuSans-7d" d="M 800 -594 
L 1019 -594 
Q 1456 -594 1589 -459 
Q 1722 -325 1722 122 
L 1722 897 
Q 1722 1384 1862 1606 
Q 2003 1828 2350 1913 
Q 2003 1991 1862 2212 
Q 1722 2434 1722 2925 
L 1722 3700 
Q 1722 4144 1589 4280 
Q 1456 4416 1019 4416 
L 800 4416 
L 800 4863 
L 997 4863 
Q 1775 4863 2036 4633 
Q 2297 4403 2297 3713 
L 2297 2963 
Q 2297 2497 2465 2317 
Q 2634 2138 3078 2138 
L 3272 2138 
L 3272 1691 
L 3078 1691 
Q 2634 1691 2465 1509 
Q 2297 1328 2297 856 
L 2297 109 
Q 2297 -581 2036 -812 
Q 1775 -1044 997 -1044 
L 800 -1044 
L 800 -594 
z
" transform="scale(0.015625)"/>
      <path id="DejaVuSans-2c" d="M 750 794 
L 1409 794 
L 1409 256 
L 897 -744 
L 494 -744 
L 750 256 
L 750 794 
z
" transform="scale(0.015625)"/>
     </defs>
     <use xlink:href="#DejaVuSans-7b"/>
     <use xlink:href="#DejaVuSans-66" x="63.623047"/>
     <use xlink:href="#DejaVuSans-31" x="98.828125"/>
     <use xlink:href="#DejaVuSans-2d" x="162.451172"/>
     <use xlink:href="#DejaVuSans-66" x="198.535156"/>
     <use xlink:href="#DejaVuSans-35" x="233.740234"/>
     <use xlink:href="#DejaVuSans-7d" x="297.363281"/>
     <use xlink:href="#DejaVuSans-2c" x="360.986328"/>
     <use xlink:href="#DejaVuSans-20" x="392.773438"/>
     <use xlink:href="#DejaVuSans-35" x="424.560547"/>
     <use xlink:href="#DejaVuSans-2d" x="488.183594"/>
     <use xlink:href="#DejaVuSans-44" x="524.267578"/>
    </g>
   </g>
   <g id="text_7">
    <!-- v2.6.3 -->
    <g style="fill: #808080" transform="translate(214.71875 288.777272)scale(0.1 -0.1)">
     <defs>
      <path id="DejaVuSans-76" d="M 191 3500 
L 800 3500 
L 1894 563 
L 2988 3500 
L 3597 3500 
L 2284 0 
L 1503 0 
L 191 3500 
z
" transform="scale(0.015625)"/>
      <path id="DejaVuSans-32" d="M 1228 531 
L 3431 531 
L 3431 0 
L 469 0 
L 469 531 
Q 828 903 1448 1529 
Q 2069 2156 2228 2338 
Q 2531 2678 2651 2914 
Q 2772 3150 2772 3378 
Q 2772 3750 2511 3984 
Q 2250 4219 1831 4219 
Q 1534 4219 1204 4116 
Q 875 4013 500 3803 
L 500 4441 
Q 881 4594 1212 4672 
Q 1544 4750 1819 4750 
Q 2544 4750 2975 4387 
Q 3406 4025 3406 3419 
Q 3406 3131 3298 2873 
Q 3191 2616 2906 2266 
Q 2828 2175 2409 1742 
Q 1991 1309 1228 531 
z
" transform="scale(0.015625)"/>
      <path id="DejaVuSans-2e" d="M 684 794 
L 1344 794 
L 1344 0 
L 684 0 
L 684 794 
z
" transform="scale(0.015625)"/>
      <path id="DejaVuSans-36" d="M 2113 2584 
Q 1688 2584 1439 2293 
Q 1191 2003 1191 1497 
Q 1191 994 1439 701 
Q 1688 409 2113 409 
Q 2538 409 2786 701 
Q 3034 994 3034 1497 
Q 3034 2003 2786 2293 
Q 2538 2584 2113 2584 
z
M 3366 4563 
L 3366 3988 
Q 3128 4100 2886 4159 
Q 2644 4219 2406 4219 
Q 1781 4219 1451 3797 
Q 1122 3375 1075 2522 
Q 1259 2794 1537 2939 
Q 1816 3084 2150 3084 
Q 2853 3084 3261 2657 
Q 3669 2231 3669 1497 
Q 3669 778 3244 343 
Q 2819 -91 2113 -91 
Q 1303 -91 875 529 
Q 447 1150 447 2328 
Q 447 3434 972 4092 
Q 1497 4750 2381 4750 
Q 2619 4750 2861 4703 
Q 3103 4656 3366 4563 
z
" transform="scale(0.015625)"/>
      <path id="DejaVuSans-33" d="M 2597 2516 
Q 3050 2419 3304 2112 
Q 3559 1806 3559 1356 
Q 3559 666 3084 287 
Q 2609 -91 1734 -91 
Q 1441 -91 1130 -33 
Q 819 25 488 141 
L 488 750 
Q 750 597 1062 519 
Q 1375 441 1716 441 
Q 2309 441 2620 675 
Q 2931 909 2931 1356 
Q 2931 1769 2642 2001 
Q 2353 2234 1838 2234 
L 1294 2234 
L 1294 2753 
L 1863 2753 
Q 2328 2753 2575 2939 
Q 2822 3125 2822 3475 
Q 2822 3834 2567 4026 
Q 2313 4219 1838 4219 
Q 1578 4219 1281 4162 
Q 984 4106 628 3988 
L 628 4550 
Q 988 4650 1302 4700 
Q 1616 4750 1894 4750 
Q 2613 4750 3031 4423 
Q 3450 4097 3450 3541 
Q 3450 3153 3228 2886 
Q 3006 2619 2597 2516 
z
" transform="scale(0.015625)"/>
     </defs>
     <use xlink:href="#DejaVuSans-76"/>
     <use xlink:href="#DejaVuSans-32" x="59.179688"/>
     <use xlink:href="#DejaVuSans-2e" x="122.802734"/>
     <use xlink:href="#DejaVuSans-36" x="154.589844"/>
     <use xlink:href="#DejaVuSans-2e" x="218.212891"/>
     <use xlink:href="#DejaVuSans-33" x="250"/>
    </g>
   </g>
  </g>
 </g>
 <defs>
  <clipPath id="p5584138e1f">
   <rect x="0" y="3.456" width="460.8" height="290.304"/>
  </clipPath>
 </defs>
</svg>
