<?xml version="1.0" encoding="utf-8" standalone="no"?>
<!DOCTYPE svg PUBLIC "-//W3C//DTD SVG 1.1//EN"
  "http://www.w3.org/Graphics/SVG/1.1/DTD/svg11.dtd">
<svg xmlns:xlink="http://www.w3.org/1999/xlink" width="460.8pt" height="345.6pt" viewBox="0 0 460.8 345.6" xmlns="http://www.w3.org/2000/svg" version="1.1">
 <metadata>
  <rdf:RDF xmlns:dc="http://purl.org/dc/elements/1.1/" xmlns:cc="http://creativecommons.org/ns#" xmlns:rdf="http://www.w3.org/1999/02/22-rdf-syntax-ns#">
   <cc:Work>
    <dc:type rdf:resource="http://purl.org/dc/dcmitype/StillImage"/>
    <dc:date>2023-04-07T14:52:11.875481</dc:date>
    <dc:format>image/svg+xml</dc:format>
    <dc:creator>
     <cc:Agent>
      <dc:title>Matplotlib v3.5.2, https://matplotlib.org/</dc:title>
     </cc:Agent>
    </dc:creator>
   </cc:Work>
  </rdf:RDF>
 </metadata>
 <defs>
  <style type="text/css">*{stroke-linejoin: round; stroke-linecap: butt}</style>
 </defs>
 <g id="figure_1">
  <g id="patch_1">
   <path d="M 0 345.6 
L 460.8 345.6 
L 460.8 0 
L 0 0 
z
" style="fill: #ffffff"/>
  </g>
  <g id="axes_1">
   <g id="patch_2">
    <path d="M 0 293.76 
L 460.8 293.76 
L 460.8 3.456 
L 0 3.456 
z
" style="fill: #ffffff"/>
   </g>
   <g id="matplotlib.axis_1">
    <g id="xtick_1">
     <g id="line2d_1">
      <path d="M 106.953767 293.76 
L 106.953767 3.456 
" clip-path="url(#p5f3b8debc9)" style="fill: none; stroke: #b0b0b0; stroke-width: 0.8; stroke-linecap: square"/>
     </g>
     <g id="line2d_2">
      <defs>
       <path id="m7299dd1ee1" d="M 0 0 
L 0 3.5 
" style="stroke: #000000; stroke-width: 0.8"/>
      </defs>
      <g>
       <use xlink:href="#m7299dd1ee1" x="106.953767" y="293.76" style="stroke: #000000; stroke-width: 0.8"/>
      </g>
     </g>
     <g id="text_1">
      <!-- -4 -->
      <g transform="translate(96.983454 315.956875)scale(0.2 -0.2)">
       <defs>
        <path id="DejaVuSans-2d" d="M 313 2009 
L 1997 2009 
L 1997 1497 
L 313 1497 
L 313 2009 
z
" transform="scale(0.015625)"/>
        <path id="DejaVuSans-34" d="M 2419 4116 
L 825 1625 
L 2419 1625 
L 2419 4116 
z
M 2253 4666 
L 3047 4666 
L 3047 1625 
L 3713 1625 
L 3713 1100 
L 3047 1100 
L 3047 0 
L 2419 0 
L 2419 1100 
L 313 1100 
L 313 1709 
L 2253 4666 
z
" transform="scale(0.015625)"/>
       </defs>
       <use xlink:href="#DejaVuSans-2d"/>
       <use xlink:href="#DejaVuSans-34" x="36.083984"/>
      </g>
     </g>
    </g>
    <g id="xtick_2">
     <g id="line2d_3">
      <path d="M 214.023205 293.76 
L 214.023205 3.456 
" clip-path="url(#p5f3b8debc9)" style="fill: none; stroke: #b0b0b0; stroke-width: 0.8; stroke-linecap: square"/>
     </g>
     <g id="line2d_4">
      <g>
       <use xlink:href="#m7299dd1ee1" x="214.023205" y="293.76" style="stroke: #000000; stroke-width: 0.8"/>
      </g>
     </g>
     <g id="text_2">
      <!-- 0 -->
      <g transform="translate(207.660705 315.956875)scale(0.2 -0.2)">
       <defs>
        <path id="DejaVuSans-30" d="M 2034 4250 
Q 1547 4250 1301 3770 
Q 1056 3291 1056 2328 
Q 1056 1369 1301 889 
Q 1547 409 2034 409 
Q 2525 409 2770 889 
Q 3016 1369 3016 2328 
Q 3016 3291 2770 3770 
Q 2525 4250 2034 4250 
z
M 2034 4750 
Q 2819 4750 3233 4129 
Q 3647 3509 3647 2328 
Q 3647 1150 3233 529 
Q 2819 -91 2034 -91 
Q 1250 -91 836 529 
Q 422 1150 422 2328 
Q 422 3509 836 4129 
Q 1250 4750 2034 4750 
z
" transform="scale(0.015625)"/>
       </defs>
       <use xlink:href="#DejaVuSans-30"/>
      </g>
     </g>
    </g>
    <g id="xtick_3">
     <g id="line2d_5">
      <path d="M 321.092643 293.76 
L 321.092643 3.456 
" clip-path="url(#p5f3b8debc9)" style="fill: none; stroke: #b0b0b0; stroke-width: 0.8; stroke-linecap: square"/>
     </g>
     <g id="line2d_6">
      <g>
       <use xlink:href="#m7299dd1ee1" x="321.092643" y="293.76" style="stroke: #000000; stroke-width: 0.8"/>
      </g>
     </g>
     <g id="text_3">
      <!-- 4 -->
      <g transform="translate(314.730143 315.956875)scale(0.2 -0.2)">
       <use xlink:href="#DejaVuSans-34"/>
      </g>
     </g>
    </g>
    <g id="xtick_4">
     <g id="line2d_7">
      <path d="M 428.162081 293.76 
L 428.162081 3.456 
" clip-path="url(#p5f3b8debc9)" style="fill: none; stroke: #b0b0b0; stroke-width: 0.8; stroke-linecap: square"/>
     </g>
     <g id="line2d_8">
      <g>
       <use xlink:href="#m7299dd1ee1" x="428.162081" y="293.76" style="stroke: #000000; stroke-width: 0.8"/>
      </g>
     </g>
     <g id="text_4">
      <!-- 8 -->
      <g transform="translate(421.799581 315.956875)scale(0.2 -0.2)">
       <defs>
        <path id="DejaVuSans-38" d="M 2034 2216 
Q 1584 2216 1326 1975 
Q 1069 1734 1069 1313 
Q 1069 891 1326 650 
Q 1584 409 2034 409 
Q 2484 409 2743 651 
Q 3003 894 3003 1313 
Q 3003 1734 2745 1975 
Q 2488 2216 2034 2216 
z
M 1403 2484 
Q 997 2584 770 2862 
Q 544 3141 544 3541 
Q 544 4100 942 4425 
Q 1341 4750 2034 4750 
Q 2731 4750 3128 4425 
Q 3525 4100 3525 3541 
Q 3525 3141 3298 2862 
Q 3072 2584 2669 2484 
Q 3125 2378 3379 2068 
Q 3634 1759 3634 1313 
Q 3634 634 3220 271 
Q 2806 -91 2034 -91 
Q 1263 -91 848 271 
Q 434 634 434 1313 
Q 434 1759 690 2068 
Q 947 2378 1403 2484 
z
M 1172 3481 
Q 1172 3119 1398 2916 
Q 1625 2713 2034 2713 
Q 2441 2713 2670 2916 
Q 2900 3119 2900 3481 
Q 2900 3844 2670 4047 
Q 2441 4250 2034 4250 
Q 1625 4250 1398 4047 
Q 1172 3844 1172 3481 
z
" transform="scale(0.015625)"/>
       </defs>
       <use xlink:href="#DejaVuSans-38"/>
      </g>
     </g>
    </g>
    <g id="text_5">
     <!-- log10 of Df -->
     <g transform="translate(175.214063 339.313125)scale(0.2 -0.2)">
      <defs>
       <path id="DejaVuSans-6c" d="M 603 4863 
L 1178 4863 
L 1178 0 
L 603 0 
L 603 4863 
z
" transform="scale(0.015625)"/>
       <path id="DejaVuSans-6f" d="M 1959 3097 
Q 1497 3097 1228 2736 
Q 959 2375 959 1747 
Q 959 1119 1226 758 
Q 1494 397 1959 397 
Q 2419 397 2687 759 
Q 2956 1122 2956 1747 
Q 2956 2369 2687 2733 
Q 2419 3097 1959 3097 
z
M 1959 3584 
Q 2709 3584 3137 3096 
Q 3566 2609 3566 1747 
Q 3566 888 3137 398 
Q 2709 -91 1959 -91 
Q 1206 -91 779 398 
Q 353 888 353 1747 
Q 353 2609 779 3096 
Q 1206 3584 1959 3584 
z
" transform="scale(0.015625)"/>
       <path id="DejaVuSans-67" d="M 2906 1791 
Q 2906 2416 2648 2759 
Q 2391 3103 1925 3103 
Q 1463 3103 1205 2759 
Q 947 2416 947 1791 
Q 947 1169 1205 825 
Q 1463 481 1925 481 
Q 2391 481 2648 825 
Q 2906 1169 2906 1791 
z
M 3481 434 
Q 3481 -459 3084 -895 
Q 2688 -1331 1869 -1331 
Q 1566 -1331 1297 -1286 
Q 1028 -1241 775 -1147 
L 775 -588 
Q 1028 -725 1275 -790 
Q 1522 -856 1778 -856 
Q 2344 -856 2625 -561 
Q 2906 -266 2906 331 
L 2906 616 
Q 2728 306 2450 153 
Q 2172 0 1784 0 
Q 1141 0 747 490 
Q 353 981 353 1791 
Q 353 2603 747 3093 
Q 1141 3584 1784 3584 
Q 2172 3584 2450 3431 
Q 2728 3278 2906 2969 
L 2906 3500 
L 3481 3500 
L 3481 434 
z
" transform="scale(0.015625)"/>
       <path id="DejaVuSans-31" d="M 794 531 
L 1825 531 
L 1825 4091 
L 703 3866 
L 703 4441 
L 1819 4666 
L 2450 4666 
L 2450 531 
L 3481 531 
L 3481 0 
L 794 0 
L 794 531 
z
" transform="scale(0.015625)"/>
       <path id="DejaVuSans-20" transform="scale(0.015625)"/>
       <path id="DejaVuSans-66" d="M 2375 4863 
L 2375 4384 
L 1825 4384 
Q 1516 4384 1395 4259 
Q 1275 4134 1275 3809 
L 1275 3500 
L 2222 3500 
L 2222 3053 
L 1275 3053 
L 1275 0 
L 697 0 
L 697 3053 
L 147 3053 
L 147 3500 
L 697 3500 
L 697 3744 
Q 697 4328 969 4595 
Q 1241 4863 1831 4863 
L 2375 4863 
z
" transform="scale(0.015625)"/>
       <path id="DejaVuSans-44" d="M 1259 4147 
L 1259 519 
L 2022 519 
Q 2988 519 3436 956 
Q 3884 1394 3884 2338 
Q 3884 3275 3436 3711 
Q 2988 4147 2022 4147 
L 1259 4147 
z
M 628 4666 
L 1925 4666 
Q 3281 4666 3915 4102 
Q 4550 3538 4550 2338 
Q 4550 1131 3912 565 
Q 3275 0 1925 0 
L 628 0 
L 628 4666 
z
" transform="scale(0.015625)"/>
      </defs>
      <use xlink:href="#DejaVuSans-6c"/>
      <use xlink:href="#DejaVuSans-6f" x="27.783203"/>
      <use xlink:href="#DejaVuSans-67" x="88.964844"/>
      <use xlink:href="#DejaVuSans-31" x="152.441406"/>
      <use xlink:href="#DejaVuSans-30" x="216.064453"/>
      <use xlink:href="#DejaVuSans-20" x="279.6875"/>
      <use xlink:href="#DejaVuSans-6f" x="311.474609"/>
      <use xlink:href="#DejaVuSans-66" x="372.65625"/>
      <use xlink:href="#DejaVuSans-20" x="407.861328"/>
      <use xlink:href="#DejaVuSans-44" x="439.648438"/>
      <use xlink:href="#DejaVuSans-66" x="516.650391"/>
     </g>
    </g>
   </g>
   <g id="matplotlib.axis_2">
    <g id="ytick_1">
     <g id="line2d_9">
      <path d="M 0 293.76 
L 460.8 293.76 
" clip-path="url(#p5f3b8debc9)" style="fill: none; stroke: #b0b0b0; stroke-width: 0.8; stroke-linecap: square"/>
     </g>
     <g id="line2d_10">
      <defs>
       <path id="m55abb458c8" d="M 0 0 
L -3.5 0 
" style="stroke: #000000; stroke-width: 0.8"/>
      </defs>
      <g>
       <use xlink:href="#m55abb458c8" x="0" y="293.76" style="stroke: #000000; stroke-width: 0.8"/>
      </g>
     </g>
    </g>
    <g id="ytick_2">
     <g id="line2d_11">
      <path d="M 0 236.274059 
L 460.8 236.274059 
" clip-path="url(#p5f3b8debc9)" style="fill: none; stroke: #b0b0b0; stroke-width: 0.8; stroke-linecap: square"/>
     </g>
     <g id="line2d_12">
      <g>
       <use xlink:href="#m55abb458c8" x="0" y="236.274059" style="stroke: #000000; stroke-width: 0.8"/>
      </g>
     </g>
    </g>
    <g id="ytick_3">
     <g id="line2d_13">
      <path d="M 0 178.788119 
L 460.8 178.788119 
" clip-path="url(#p5f3b8debc9)" style="fill: none; stroke: #b0b0b0; stroke-width: 0.8; stroke-linecap: square"/>
     </g>
     <g id="line2d_14">
      <g>
       <use xlink:href="#m55abb458c8" x="0" y="178.788119" style="stroke: #000000; stroke-width: 0.8"/>
      </g>
     </g>
    </g>
    <g id="ytick_4">
     <g id="line2d_15">
      <path d="M 0 121.302178 
L 460.8 121.302178 
" clip-path="url(#p5f3b8debc9)" style="fill: none; stroke: #b0b0b0; stroke-width: 0.8; stroke-linecap: square"/>
     </g>
     <g id="line2d_16">
      <g>
       <use xlink:href="#m55abb458c8" x="0" y="121.302178" style="stroke: #000000; stroke-width: 0.8"/>
      </g>
     </g>
    </g>
    <g id="ytick_5">
     <g id="line2d_17">
      <path d="M 0 63.816238 
L 460.8 63.816238 
" clip-path="url(#p5f3b8debc9)" style="fill: none; stroke: #b0b0b0; stroke-width: 0.8; stroke-linecap: square"/>
     </g>
     <g id="line2d_18">
      <g>
       <use xlink:href="#m55abb458c8" x="0" y="63.816238" style="stroke: #000000; stroke-width: 0.8"/>
      </g>
     </g>
    </g>
    <g id="ytick_6">
     <g id="line2d_19">
      <path d="M 0 6.330297 
L 460.8 6.330297 
" clip-path="url(#p5f3b8debc9)" style="fill: none; stroke: #b0b0b0; stroke-width: 0.8; stroke-linecap: square"/>
     </g>
     <g id="line2d_20">
      <g>
       <use xlink:href="#m55abb458c8" x="0" y="6.330297" style="stroke: #000000; stroke-width: 0.8"/>
      </g>
     </g>
    </g>
   </g>
   <g id="line2d_21">
    <path d="M -1 6.330297 
L 460.8 6.330297 
L 460.8 6.330297 
" clip-path="url(#p5f3b8debc9)" style="fill: none; stroke: #ff0000; stroke-width: 3; stroke-linecap: square"/>
   </g>
   <g id="line2d_22">
    <path d="M 197.925015 293.76 
L 197.925015 236.274059 
L 232.801043 236.274059 
L 232.801043 232.441663 
L 237.529815 232.441663 
L 237.529815 228.609267 
L 238.33301 228.609267 
L 238.33301 224.776871 
L 239.04555 224.776871 
L 239.04555 220.944475 
L 239.942056 220.944475 
L 239.942056 217.112079 
L 240.060146 217.112079 
L 240.060336 209.447287 
L 242.088295 209.447287 
L 242.088295 205.614891 
L 243.628092 205.614891 
L 243.628092 201.782495 
L 245.117559 201.782495 
L 245.117559 197.950099 
L 246.597729 197.950099 
L 246.597729 194.117703 
L 246.882941 194.117703 
L 246.882941 190.285307 
L 250.168007 190.285307 
L 250.168007 186.452911 
L 251.895275 186.452911 
L 251.895275 182.620515 
L 252.201545 182.620515 
L 252.201545 178.788119 
L 253.249049 178.788119 
L 253.249049 174.955723 
L 253.679159 174.955723 
L 253.679159 171.123327 
L 254.19093 171.123327 
L 254.19093 167.290931 
L 254.801233 167.290931 
L 254.801233 163.458535 
L 255.155209 163.458535 
L 255.155209 159.626139 
L 256.59837 159.626139 
L 256.59837 155.793743 
L 256.745054 155.793743 
L 256.799716 148.12895 
L 257.303919 148.12895 
L 257.303919 144.296554 
L 257.546001 144.296554 
L 257.546001 140.464158 
L 257.816584 140.464158 
L 257.885393 132.799366 
L 258.483678 132.799366 
L 258.546592 125.134574 
L 260.564806 125.134574 
L 260.564806 121.302178 
L 260.961269 121.302178 
L 260.961269 117.469782 
L 261.911348 117.469782 
L 261.911348 113.637386 
L 262.51899 113.637386 
L 262.549099 105.972594 
L 262.889944 105.972594 
L 262.889944 102.140198 
L 263.114409 102.140198 
L 263.114409 98.307802 
L 264.469668 98.307802 
L 264.51807 90.64301 
L 264.923072 90.64301 
L 264.923072 86.810614 
L 265.491937 86.810614 
L 265.491937 82.978218 
L 265.939902 82.978218 
L 265.939902 79.145822 
L 266.106168 79.145822 
L 266.106168 75.313426 
L 266.625656 75.313426 
L 266.673924 67.648634 
L 267.005198 67.648634 
L 267.005198 63.816238 
L 267.562562 63.816238 
L 267.562562 59.983842 
L 270.910738 59.983842 
L 270.966745 52.31905 
L 271.645906 52.31905 
L 271.646337 44.654257 
L 272.102311 44.654257 
L 272.102311 40.821861 
L 272.357609 40.821861 
L 272.357609 36.989465 
L 273.415633 36.989465 
L 273.415633 33.157069 
L 273.862872 33.157069 
L 273.862872 29.324673 
L 274.299548 29.324673 
L 274.393645 17.827485 
L 274.480129 17.827485 
L 274.480129 13.995089 
L 279.86626 13.995089 
L 279.86626 10.162693 
L 283.17862 10.162693 
L 283.17862 6.330297 
L 283.17862 6.330297 
L 460.8 6.330297 
L 460.8 6.330297 
" clip-path="url(#p5f3b8debc9)" style="fill: none; stroke: #00bfbf; stroke-width: 1.5; stroke-linecap: square"/>
   </g>
   <g id="line2d_23">
    <path d="M 197.925015 293.76 
L 197.925015 236.274059 
L 229.312941 236.274059 
L 229.312941 232.441663 
L 231.865003 232.441663 
L 231.865003 228.609267 
L 233.045937 228.609267 
L 233.045937 224.776871 
L 234.108789 224.776871 
L 234.108789 220.944475 
L 235.911363 220.944475 
L 235.911363 217.112079 
L 238.80876 217.112079 
L 238.80876 213.279683 
L 239.04555 213.279683 
L 239.04555 209.447287 
L 239.647966 209.447287 
L 239.647966 205.614891 
L 239.942056 205.614891 
L 240.032348 197.950099 
L 242.429483 197.950099 
L 242.429483 194.117703 
L 243.628092 194.117703 
L 243.668774 186.452911 
L 246.597729 186.452911 
L 246.659612 178.788119 
L 247.257827 178.788119 
L 247.257827 174.955723 
L 248.508948 174.955723 
L 248.508948 171.123327 
L 248.842793 171.123327 
L 248.842793 167.290931 
L 249.633996 167.290931 
L 249.633996 163.458535 
L 250.531746 163.458535 
L 250.531746 159.626139 
L 252.342066 159.626139 
L 252.342066 155.793743 
L 253.249049 155.793743 
L 253.249049 151.961347 
L 253.361283 151.961347 
L 253.361283 148.12895 
L 253.679159 148.12895 
L 253.77753 140.464158 
L 254.055456 140.464158 
L 254.055456 136.631762 
L 254.19093 136.631762 
L 254.19093 132.799366 
L 254.790438 132.799366 
L 254.801233 125.134574 
L 256.59837 125.134574 
L 256.59837 121.302178 
L 256.799716 121.302178 
L 256.799716 117.469782 
L 257.303919 117.469782 
L 257.33568 109.80499 
L 257.459552 109.80499 
L 257.459552 105.972594 
L 257.816584 105.972594 
L 257.816584 102.140198 
L 258.311998 102.140198 
L 258.360799 94.475406 
L 258.483678 94.475406 
L 258.483678 90.64301 
L 259.311571 90.64301 
L 259.311571 86.810614 
L 260.433448 86.810614 
L 260.433448 82.978218 
L 260.564806 82.978218 
L 260.564806 79.145822 
L 261.337966 79.145822 
L 261.337966 75.313426 
L 262.009106 75.313426 
L 262.009106 71.48103 
L 262.623477 71.48103 
L 262.623477 67.648634 
L 264.51807 67.648634 
L 264.51807 63.816238 
L 265.741343 63.816238 
L 265.741343 59.983842 
L 266.718876 59.983842 
L 266.718876 56.151446 
L 267.456729 56.151446 
L 267.456729 52.31905 
L 267.795565 52.31905 
L 267.795565 48.486653 
L 267.913205 48.486653 
L 267.913205 44.654257 
L 268.634132 44.654257 
L 268.634132 40.821861 
L 270.698688 40.821861 
L 270.698688 36.989465 
L 270.966745 36.989465 
L 270.966745 33.157069 
L 271.469084 33.157069 
L 271.469084 29.324673 
L 271.645906 29.324673 
L 271.645906 25.492277 
L 272.102311 25.492277 
L 272.102311 21.659881 
L 273.492144 21.659881 
L 273.492144 17.827485 
L 273.862872 17.827485 
L 273.862872 13.995089 
L 274.299548 13.995089 
L 274.299548 10.162693 
L 274.480129 10.162693 
L 274.480129 6.330297 
L 274.480129 6.330297 
L 460.8 6.330297 
L 460.8 6.330297 
" clip-path="url(#p5f3b8debc9)" style="fill: none; stroke: #bf00bf; stroke-width: 1.5; stroke-linecap: square"/>
   </g>
   <g id="line2d_24">
    <path d="M 197.925015 293.76 
L 197.925015 236.274059 
L 226.840379 236.274059 
L 226.840379 232.441663 
L 229.312941 232.441663 
L 229.312941 228.609267 
L 231.865003 228.609267 
L 231.882783 220.944475 
L 234.108789 220.944475 
L 234.108789 217.112079 
L 235.050003 217.112079 
L 235.050003 213.279683 
L 237.271921 213.279683 
L 237.271921 209.447287 
L 237.543766 209.447287 
L 237.543766 205.614891 
L 238.368944 205.614891 
L 238.401588 197.950099 
L 238.80876 197.950099 
L 238.80876 194.117703 
L 242.429483 194.117703 
L 242.429483 190.285307 
L 242.63872 190.285307 
L 242.63872 186.452911 
L 243.628092 186.452911 
L 243.668774 178.788119 
L 244.143296 178.788119 
L 244.143296 174.955723 
L 246.597729 174.955723 
L 246.660358 163.458535 
L 248.508948 163.458535 
L 248.559239 155.793743 
L 248.88189 155.793743 
L 248.88189 151.961347 
L 249.502578 151.961347 
L 249.502578 148.12895 
L 249.923058 148.12895 
L 249.923058 144.296554 
L 250.407808 144.296554 
L 250.407808 140.464158 
L 250.531746 140.464158 
L 250.531746 136.631762 
L 251.517229 136.631762 
L 251.523423 128.96697 
L 251.732359 128.96697 
L 251.732359 125.134574 
L 251.940434 125.134574 
L 251.940434 121.302178 
L 252.999011 121.302178 
L 253.101989 113.637386 
L 253.166033 113.637386 
L 253.167794 105.972594 
L 253.361283 105.972594 
L 253.361283 102.140198 
L 253.679159 102.140198 
L 253.77753 94.475406 
L 254.19093 94.475406 
L 254.200321 86.810614 
L 254.87321 86.810614 
L 254.87321 82.978218 
L 256.84528 82.978218 
L 256.845887 75.313426 
L 257.106627 75.313426 
L 257.106627 71.48103 
L 259.643618 71.48103 
L 259.643618 67.648634 
L 260.433448 67.648634 
L 260.433448 63.816238 
L 261.111497 63.816238 
L 261.111497 59.983842 
L 261.878376 59.983842 
L 261.878376 56.151446 
L 262.940644 56.151446 
L 262.940644 52.31905 
L 263.125238 52.31905 
L 263.125238 48.486653 
L 264.51807 48.486653 
L 264.51807 44.654257 
L 264.753288 44.654257 
L 264.753288 40.821861 
L 267.795565 40.821861 
L 267.795565 36.989465 
L 268.634132 36.989465 
L 268.634132 33.157069 
L 269.326629 33.157069 
L 269.326629 29.324673 
L 270.054443 29.324673 
L 270.054443 25.492277 
L 270.698688 25.492277 
L 270.698688 21.659881 
L 270.980694 21.659881 
L 270.980694 17.827485 
L 271.469084 17.827485 
L 271.469084 13.995089 
L 271.918875 13.995089 
L 271.918875 10.162693 
L 273.862872 10.162693 
L 273.862872 6.330297 
L 273.862872 6.330297 
L 460.8 6.330297 
L 460.8 6.330297 
" clip-path="url(#p5f3b8debc9)" style="fill: none; stroke: #000000; stroke-width: 1.5; stroke-linecap: square"/>
   </g>
   <g id="line2d_25">
    <path d="M 197.925015 293.76 
L 197.925015 236.274059 
L 220.272698 236.274059 
L 220.272698 232.441663 
L 221.908988 232.441663 
L 221.908988 228.609267 
L 224.062316 228.609267 
L 224.062316 224.776871 
L 225.009294 224.776871 
L 225.017026 217.112079 
L 225.932193 217.112079 
L 225.932193 213.279683 
L 226.840379 213.279683 
L 226.840379 209.447287 
L 227.480497 209.447287 
L 227.480497 205.614891 
L 228.982073 205.614891 
L 228.982073 201.782495 
L 231.277263 201.782495 
L 231.277263 197.950099 
L 231.690572 197.950099 
L 231.690572 194.117703 
L 231.882783 194.117703 
L 231.882783 190.285307 
L 232.153886 190.285307 
L 232.153886 186.452911 
L 233.825654 186.452911 
L 233.825654 182.620515 
L 234.975376 182.620515 
L 234.975376 178.788119 
L 235.194402 178.788119 
L 235.194402 174.955723 
L 236.123224 174.955723 
L 236.123224 171.123327 
L 239.12802 171.123327 
L 239.12802 167.290931 
L 239.756422 167.290931 
L 239.756422 163.458535 
L 240.985507 163.458535 
L 240.985507 159.626139 
L 241.714269 159.626139 
L 241.714269 155.793743 
L 243.508117 155.793743 
L 243.617985 148.12895 
L 243.961398 148.12895 
L 243.961398 144.296554 
L 244.631187 144.296554 
L 244.631187 140.464158 
L 245.86126 140.464158 
L 245.873482 132.799366 
L 246.597729 132.799366 
L 246.659612 125.134574 
L 246.893491 125.134574 
L 246.893491 121.302178 
L 247.15263 121.302178 
L 247.15263 117.469782 
L 247.563238 117.469782 
L 247.658024 109.80499 
L 247.808892 109.80499 
L 247.904443 102.140198 
L 248.481865 102.140198 
L 248.508948 94.475406 
L 249.252465 94.475406 
L 249.252465 90.64301 
L 249.745816 90.64301 
L 249.745816 86.810614 
L 250.470217 86.810614 
L 250.470217 82.978218 
L 250.884478 82.978218 
L 250.884478 79.145822 
L 251.257398 79.145822 
L 251.257398 75.313426 
L 251.70619 75.313426 
L 251.70619 71.48103 
L 252.068308 71.48103 
L 252.068308 67.648634 
L 252.851527 67.648634 
L 252.851527 63.816238 
L 254.092413 63.816238 
L 254.200298 56.151446 
L 256.429327 56.151446 
L 256.429327 52.31905 
L 258.879514 52.31905 
L 258.879514 48.486653 
L 259.207553 48.486653 
L 259.207553 44.654257 
L 259.48703 44.654257 
L 259.48703 40.821861 
L 259.641525 40.821861 
L 259.641525 36.989465 
L 260.743812 36.989465 
L 260.773399 29.324673 
L 261.111497 29.324673 
L 261.111497 25.492277 
L 261.769534 25.492277 
L 261.769534 21.659881 
L 261.887941 21.659881 
L 261.887941 17.827485 
L 263.718312 17.827485 
L 263.81053 10.162693 
L 269.322467 10.162693 
L 269.322467 6.330297 
L 269.322467 6.330297 
L 460.8 6.330297 
L 460.8 6.330297 
" clip-path="url(#p5f3b8debc9)" style="fill: none; stroke: #00bfbf; stroke-width: 1.5; stroke-linecap: square"/>
   </g>
   <g id="line2d_26">
    <path d="M 153.840264 293.76 
L 153.840264 289.927604 
L 168.664378 289.927604 
L 168.664378 286.095208 
L 169.286384 286.095208 
L 169.286384 282.262812 
L 170.398553 282.262812 
L 170.398553 278.430416 
L 174.120048 278.430416 
L 174.120048 274.59802 
L 177.801231 274.59802 
L 177.878416 266.933228 
L 179.879198 266.933228 
L 179.879198 263.100832 
L 183.212067 263.100832 
L 183.212067 259.268436 
L 183.815291 259.268436 
L 183.815291 255.43604 
L 184.808827 255.43604 
L 184.808827 251.603644 
L 188.906401 251.603644 
L 188.906401 247.771248 
L 189.848024 247.771248 
L 189.848024 243.938851 
L 193.024795 243.938851 
L 193.024795 240.106455 
L 194.106109 240.106455 
L 194.106109 236.274059 
L 194.635316 236.274059 
L 194.635316 232.441663 
L 195.0638 232.441663 
L 195.0638 228.609267 
L 195.189767 228.609267 
L 195.189767 224.776871 
L 197.36241 224.776871 
L 197.36241 220.944475 
L 197.58503 220.944475 
L 197.58503 217.112079 
L 197.925015 217.112079 
L 197.925015 159.626139 
L 198.519193 159.626139 
L 198.519193 155.793743 
L 200.265411 155.793743 
L 200.265411 151.961347 
L 200.706571 151.961347 
L 200.706571 148.12895 
L 207.614984 148.12895 
L 207.614984 144.296554 
L 208.012219 144.296554 
L 208.012219 140.464158 
L 208.598048 140.464158 
L 208.636443 132.799366 
L 209.651632 132.799366 
L 209.651632 128.96697 
L 210.596707 128.96697 
L 210.596707 125.134574 
L 211.558217 125.134574 
L 211.558217 121.302178 
L 213.622332 121.302178 
L 213.622332 117.469782 
L 213.866036 117.469782 
L 213.866036 113.637386 
L 215.804336 113.637386 
L 215.804336 109.80499 
L 215.962763 109.80499 
L 215.962763 105.972594 
L 224.05141 105.972594 
L 224.05141 102.140198 
L 229.448794 102.140198 
L 229.448794 98.307802 
L 230.344948 98.307802 
L 230.381184 90.64301 
L 230.808104 90.64301 
L 230.808104 86.810614 
L 232.198546 86.810614 
L 232.198546 82.978218 
L 236.214804 82.978218 
L 236.214804 79.145822 
L 236.760211 79.145822 
L 236.760211 75.313426 
L 240.076237 75.313426 
L 240.076237 71.48103 
L 240.285766 71.48103 
L 240.351198 63.816238 
L 240.75643 63.816238 
L 240.75643 59.983842 
L 240.886166 59.983842 
L 240.886166 56.151446 
L 241.31567 56.151446 
L 241.31567 52.31905 
L 241.745824 52.31905 
L 241.745824 48.486653 
L 242.089772 48.486653 
L 242.089772 44.654257 
L 242.441756 44.654257 
L 242.441756 40.821861 
L 243.890012 40.821861 
L 243.890012 36.989465 
L 244.097449 36.989465 
L 244.097449 33.157069 
L 244.73064 33.157069 
L 244.73064 29.324673 
L 245.068949 29.324673 
L 245.068949 25.492277 
L 247.032212 25.492277 
L 247.032212 21.659881 
L 248.210033 21.659881 
L 248.210033 17.827485 
L 248.4547 17.827485 
L 248.4547 13.995089 
L 250.005187 13.995089 
L 250.005187 10.162693 
L 256.261306 10.162693 
L 256.261306 6.330297 
L 256.261306 6.330297 
L 460.8 6.330297 
L 460.8 6.330297 
" clip-path="url(#p5f3b8debc9)" style="fill: none; stroke: #bf00bf; stroke-width: 1.5; stroke-linecap: square"/>
   </g>
   <g id="line2d_27">
    <path d="M -1 259.268436 
L 10.657538 259.268436 
L 10.657538 255.43604 
L 27.054191 255.43604 
L 27.054191 251.603644 
L 42.670597 251.603644 
L 42.670597 247.771248 
L 60.253643 247.771248 
L 60.253643 243.938851 
L 61.077221 243.938851 
L 61.077221 240.106455 
L 62.575226 240.106455 
L 62.575226 236.274059 
L 63.269733 236.274059 
L 63.269733 232.441663 
L 76.403188 232.441663 
L 76.403188 228.609267 
L 79.344074 228.609267 
L 79.344074 224.776871 
L 84.39233 224.776871 
L 84.39233 220.944475 
L 84.544601 220.944475 
L 84.544601 217.112079 
L 87.534788 217.112079 
L 87.534788 213.279683 
L 96.459014 213.279683 
L 96.459014 209.447287 
L 99.620438 209.447287 
L 99.620438 205.614891 
L 100.638117 205.614891 
L 100.638117 201.782495 
L 103.913436 201.782495 
L 103.913436 197.950099 
L 108.798517 197.950099 
L 108.798517 194.117703 
L 109.772599 194.117703 
L 109.772599 190.285307 
L 110.596717 190.285307 
L 110.596717 186.452911 
L 114.774864 186.452911 
L 114.774864 182.620515 
L 120.239336 182.620515 
L 120.239336 178.788119 
L 121.885661 178.788119 
L 121.885661 174.955723 
L 145.131346 174.955723 
L 145.131346 171.123327 
L 145.3957 171.123327 
L 145.3957 167.290931 
L 150.439023 167.290931 
L 150.439023 163.458535 
L 157.241411 163.458535 
L 157.241411 159.626139 
L 157.526079 159.626139 
L 157.52902 151.961347 
L 165.253355 151.961347 
L 165.253355 148.12895 
L 170.563786 148.12895 
L 170.563786 144.296554 
L 174.537082 144.296554 
L 174.537082 140.464158 
L 176.398216 140.464158 
L 176.398216 136.631762 
L 180.775308 136.631762 
L 180.775308 132.799366 
L 186.92331 132.799366 
L 186.92331 128.96697 
L 192.563838 128.96697 
L 192.563838 125.134574 
L 194.045035 125.134574 
L 194.073889 117.469782 
L 197.414489 117.469782 
L 197.414489 113.637386 
L 197.925015 113.637386 
L 197.925015 67.648634 
L 202.867707 67.648634 
L 202.867707 63.816238 
L 202.979177 63.816238 
L 202.979177 59.983842 
L 213.547912 59.983842 
L 213.547912 56.151446 
L 213.964456 56.151446 
L 213.964456 44.654257 
L 222.022234 44.654257 
L 222.022234 36.989465 
L 226.735732 36.989465 
L 226.735732 29.324673 
L 230.080012 29.324673 
L 230.080012 17.827485 
L 232.674026 17.827485 
L 232.674038 10.162693 
L 234.793501 10.162693 
L 234.793501 6.330297 
L 234.793501 6.330297 
L 460.8 6.330297 
L 460.8 6.330297 
" clip-path="url(#p5f3b8debc9)" style="fill: none; stroke: #000000; stroke-width: 1.5; stroke-linecap: square"/>
   </g>
   <g id="line2d_28">
    <path d="M -1 56.151446 
L 71.198251 56.151446 
L 71.198251 52.31905 
L 149.659413 52.31905 
L 149.684508 44.654257 
L 157.122732 44.654257 
L 157.122732 40.821861 
L 178.533745 40.821861 
L 178.533745 36.989465 
L 179.439845 36.989465 
L 179.439845 33.157069 
L 180.301329 33.157069 
L 180.301329 29.324673 
L 181.103672 29.324673 
L 181.103672 25.492277 
L 186.037965 25.492277 
L 186.037965 21.659881 
L 186.590956 21.659881 
L 186.590956 17.827485 
L 192.632245 17.827485 
L 192.632245 13.995089 
L 194.154116 13.995089 
L 194.154116 10.162693 
L 195.740357 10.162693 
L 195.740357 6.330297 
L 195.740357 6.330297 
L 460.8 6.330297 
L 460.8 6.330297 
" clip-path="url(#p5f3b8debc9)" style="fill: none; stroke: #00bfbf; stroke-width: 1.5; stroke-linecap: square"/>
   </g>
   <g id="patch_3">
    <path d="M 0 293.76 
L 0 3.456 
" style="fill: none; stroke: #000000; stroke-width: 0.8; stroke-linejoin: miter; stroke-linecap: square"/>
   </g>
   <g id="patch_4">
    <path d="M 460.8 293.76 
L 460.8 3.456 
" style="fill: none; stroke: #000000; stroke-width: 0.8; stroke-linejoin: miter; stroke-linecap: square"/>
   </g>
   <g id="patch_5">
    <path d="M -0 293.76 
L 460.8 293.76 
" style="fill: none; stroke: #000000; stroke-width: 0.8; stroke-linejoin: miter; stroke-linecap: square"/>
   </g>
   <g id="patch_6">
    <path d="M -0 3.456 
L 460.8 3.456 
" style="fill: none; stroke: #000000; stroke-width: 0.8; stroke-linejoin: miter; stroke-linecap: square"/>
   </g>
   <g id="text_6">
    <!-- {f15-f19}, 5-D -->
    <g transform="translate(305.884 287.95392)scale(0.2 -0.2)">
     <defs>
      <path id="DejaVuSans-7b" d="M 3272 -594 
L 3272 -1044 
L 3078 -1044 
Q 2300 -1044 2036 -812 
Q 1772 -581 1772 109 
L 1772 856 
Q 1772 1328 1603 1509 
Q 1434 1691 991 1691 
L 800 1691 
L 800 2138 
L 991 2138 
Q 1438 2138 1605 2317 
Q 1772 2497 1772 2963 
L 1772 3713 
Q 1772 4403 2036 4633 
Q 2300 4863 3078 4863 
L 3272 4863 
L 3272 4416 
L 3059 4416 
Q 2619 4416 2484 4278 
Q 2350 4141 2350 3700 
L 2350 2925 
Q 2350 2434 2208 2212 
Q 2066 1991 1722 1913 
Q 2069 1828 2209 1606 
Q 2350 1384 2350 897 
L 2350 122 
Q 2350 -319 2484 -456 
Q 2619 -594 3059 -594 
L 3272 -594 
z
" transform="scale(0.015625)"/>
      <path id="DejaVuSans-35" d="M 691 4666 
L 3169 4666 
L 3169 4134 
L 1269 4134 
L 1269 2991 
Q 1406 3038 1543 3061 
Q 1681 3084 1819 3084 
Q 2600 3084 3056 2656 
Q 3513 2228 3513 1497 
Q 3513 744 3044 326 
Q 2575 -91 1722 -91 
Q 1428 -91 1123 -41 
Q 819 9 494 109 
L 494 744 
Q 775 591 1075 516 
Q 1375 441 1709 441 
Q 2250 441 2565 725 
Q 2881 1009 2881 1497 
Q 2881 1984 2565 2268 
Q 2250 2553 1709 2553 
Q 1456 2553 1204 2497 
Q 953 2441 691 2322 
L 691 4666 
z
" transform="scale(0.015625)"/>
      <path id="DejaVuSans-39" d="M 703 97 
L 703 672 
Q 941 559 1184 500 
Q 1428 441 1663 441 
Q 2288 441 2617 861 
Q 2947 1281 2994 2138 
Q 2813 1869 2534 1725 
Q 2256 1581 1919 1581 
Q 1219 1581 811 2004 
Q 403 2428 403 3163 
Q 403 3881 828 4315 
Q 1253 4750 1959 4750 
Q 2769 4750 3195 4129 
Q 3622 3509 3622 2328 
Q 3622 1225 3098 567 
Q 2575 -91 1691 -91 
Q 1453 -91 1209 -44 
Q 966 3 703 97 
z
M 1959 2075 
Q 2384 2075 2632 2365 
Q 2881 2656 2881 3163 
Q 2881 3666 2632 3958 
Q 2384 4250 1959 4250 
Q 1534 4250 1286 3958 
Q 1038 3666 1038 3163 
Q 1038 2656 1286 2365 
Q 1534 2075 1959 2075 
z
" transform="scale(0.015625)"/>
      <path id="DejaVuSans-7d" d="M 800 -594 
L 1019 -594 
Q 1456 -594 1589 -459 
Q 1722 -325 1722 122 
L 1722 897 
Q 1722 1384 1862 1606 
Q 2003 1828 2350 1913 
Q 2003 1991 1862 2212 
Q 1722 2434 1722 2925 
L 1722 3700 
Q 1722 4144 1589 4280 
Q 1456 4416 1019 4416 
L 800 4416 
L 800 4863 
L 997 4863 
Q 1775 4863 2036 4633 
Q 2297 4403 2297 3713 
L 2297 2963 
Q 2297 2497 2465 2317 
Q 2634 2138 3078 2138 
L 3272 2138 
L 3272 1691 
L 3078 1691 
Q 2634 1691 2465 1509 
Q 2297 1328 2297 856 
L 2297 109 
Q 2297 -581 2036 -812 
Q 1775 -1044 997 -1044 
L 800 -1044 
L 800 -594 
z
" transform="scale(0.015625)"/>
      <path id="DejaVuSans-2c" d="M 750 794 
L 1409 794 
L 1409 256 
L 897 -744 
L 494 -744 
L 750 256 
L 750 794 
z
" transform="scale(0.015625)"/>
     </defs>
     <use xlink:href="#DejaVuSans-7b"/>
     <use xlink:href="#DejaVuSans-66" x="63.623047"/>
     <use xlink:href="#DejaVuSans-31" x="98.828125"/>
     <use xlink:href="#DejaVuSans-35" x="162.451172"/>
     <use xlink:href="#DejaVuSans-2d" x="226.074219"/>
     <use xlink:href="#DejaVuSans-66" x="262.158203"/>
     <use xlink:href="#DejaVuSans-31" x="297.363281"/>
     <use xlink:href="#DejaVuSans-39" x="360.986328"/>
     <use xlink:href="#DejaVuSans-7d" x="424.609375"/>
     <use xlink:href="#DejaVuSans-2c" x="488.232422"/>
     <use xlink:href="#DejaVuSans-20" x="520.019531"/>
     <use xlink:href="#DejaVuSans-35" x="551.806641"/>
     <use xlink:href="#DejaVuSans-2d" x="615.429688"/>
     <use xlink:href="#DejaVuSans-44" x="651.513672"/>
    </g>
   </g>
   <g id="text_7">
    <!-- v2.6.3 -->
    <g style="fill: #808080" transform="translate(214.71875 288.777272)scale(0.1 -0.1)">
     <defs>
      <path id="DejaVuSans-76" d="M 191 3500 
L 800 3500 
L 1894 563 
L 2988 3500 
L 3597 3500 
L 2284 0 
L 1503 0 
L 191 3500 
z
" transform="scale(0.015625)"/>
      <path id="DejaVuSans-32" d="M 1228 531 
L 3431 531 
L 3431 0 
L 469 0 
L 469 531 
Q 828 903 1448 1529 
Q 2069 2156 2228 2338 
Q 2531 2678 2651 2914 
Q 2772 3150 2772 3378 
Q 2772 3750 2511 3984 
Q 2250 4219 1831 4219 
Q 1534 4219 1204 4116 
Q 875 4013 500 3803 
L 500 4441 
Q 881 4594 1212 4672 
Q 1544 4750 1819 4750 
Q 2544 4750 2975 4387 
Q 3406 4025 3406 3419 
Q 3406 3131 3298 2873 
Q 3191 2616 2906 2266 
Q 2828 2175 2409 1742 
Q 1991 1309 1228 531 
z
" transform="scale(0.015625)"/>
      <path id="DejaVuSans-2e" d="M 684 794 
L 1344 794 
L 1344 0 
L 684 0 
L 684 794 
z
" transform="scale(0.015625)"/>
      <path id="DejaVuSans-36" d="M 2113 2584 
Q 1688 2584 1439 2293 
Q 1191 2003 1191 1497 
Q 1191 994 1439 701 
Q 1688 409 2113 409 
Q 2538 409 2786 701 
Q 3034 994 3034 1497 
Q 3034 2003 2786 2293 
Q 2538 2584 2113 2584 
z
M 3366 4563 
L 3366 3988 
Q 3128 4100 2886 4159 
Q 2644 4219 2406 4219 
Q 1781 4219 1451 3797 
Q 1122 3375 1075 2522 
Q 1259 2794 1537 2939 
Q 1816 3084 2150 3084 
Q 2853 3084 3261 2657 
Q 3669 2231 3669 1497 
Q 3669 778 3244 343 
Q 2819 -91 2113 -91 
Q 1303 -91 875 529 
Q 447 1150 447 2328 
Q 447 3434 972 4092 
Q 1497 4750 2381 4750 
Q 2619 4750 2861 4703 
Q 3103 4656 3366 4563 
z
" transform="scale(0.015625)"/>
      <path id="DejaVuSans-33" d="M 2597 2516 
Q 3050 2419 3304 2112 
Q 3559 1806 3559 1356 
Q 3559 666 3084 287 
Q 2609 -91 1734 -91 
Q 1441 -91 1130 -33 
Q 819 25 488 141 
L 488 750 
Q 750 597 1062 519 
Q 1375 441 1716 441 
Q 2309 441 2620 675 
Q 2931 909 2931 1356 
Q 2931 1769 2642 2001 
Q 2353 2234 1838 2234 
L 1294 2234 
L 1294 2753 
L 1863 2753 
Q 2328 2753 2575 2939 
Q 2822 3125 2822 3475 
Q 2822 3834 2567 4026 
Q 2313 4219 1838 4219 
Q 1578 4219 1281 4162 
Q 984 4106 628 3988 
L 628 4550 
Q 988 4650 1302 4700 
Q 1616 4750 1894 4750 
Q 2613 4750 3031 4423 
Q 3450 4097 3450 3541 
Q 3450 3153 3228 2886 
Q 3006 2619 2597 2516 
z
" transform="scale(0.015625)"/>
     </defs>
     <use xlink:href="#DejaVuSans-76"/>
     <use xlink:href="#DejaVuSans-32" x="59.179688"/>
     <use xlink:href="#DejaVuSans-2e" x="122.802734"/>
     <use xlink:href="#DejaVuSans-36" x="154.589844"/>
     <use xlink:href="#DejaVuSans-2e" x="218.212891"/>
     <use xlink:href="#DejaVuSans-33" x="250"/>
    </g>
   </g>
  </g>
 </g>
 <defs>
  <clipPath id="p5f3b8debc9">
   <rect x="0" y="3.456" width="460.8" height="290.304"/>
  </clipPath>
 </defs>
</svg>
