<?xml version="1.0" encoding="utf-8" standalone="no"?>
<!DOCTYPE svg PUBLIC "-//W3C//DTD SVG 1.1//EN"
  "http://www.w3.org/Graphics/SVG/1.1/DTD/svg11.dtd">
<svg xmlns:xlink="http://www.w3.org/1999/xlink" width="460.8pt" height="345.6pt" viewBox="0 0 460.8 345.6" xmlns="http://www.w3.org/2000/svg" version="1.1">
 <metadata>
  <rdf:RDF xmlns:dc="http://purl.org/dc/elements/1.1/" xmlns:cc="http://creativecommons.org/ns#" xmlns:rdf="http://www.w3.org/1999/02/22-rdf-syntax-ns#">
   <cc:Work>
    <dc:type rdf:resource="http://purl.org/dc/dcmitype/StillImage"/>
    <dc:date>2023-04-07T14:52:12.667868</dc:date>
    <dc:format>image/svg+xml</dc:format>
    <dc:creator>
     <cc:Agent>
      <dc:title>Matplotlib v3.5.2, https://matplotlib.org/</dc:title>
     </cc:Agent>
    </dc:creator>
   </cc:Work>
  </rdf:RDF>
 </metadata>
 <defs>
  <style type="text/css">*{stroke-linejoin: round; stroke-linecap: butt}</style>
 </defs>
 <g id="figure_1">
  <g id="patch_1">
   <path d="M 0 345.6 
L 460.8 345.6 
L 460.8 0 
L 0 0 
z
" style="fill: #ffffff"/>
  </g>
  <g id="axes_1">
   <g id="patch_2">
    <path d="M 0 293.76 
L 460.8 293.76 
L 460.8 3.456 
L 0 3.456 
z
" style="fill: #ffffff"/>
   </g>
   <g id="matplotlib.axis_1">
    <g id="xtick_1">
     <g id="line2d_1">
      <path d="M 102.500356 293.76 
L 102.500356 3.456 
" clip-path="url(#p6e1216eef6)" style="fill: none; stroke: #b0b0b0; stroke-width: 0.8; stroke-linecap: square"/>
     </g>
     <g id="line2d_2">
      <defs>
       <path id="m747ade5447" d="M 0 0 
L 0 3.5 
" style="stroke: #000000; stroke-width: 0.8"/>
      </defs>
      <g>
       <use xlink:href="#m747ade5447" x="102.500356" y="293.76" style="stroke: #000000; stroke-width: 0.8"/>
      </g>
     </g>
     <g id="text_1">
      <!-- -4 -->
      <g transform="translate(92.530044 315.956875)scale(0.2 -0.2)">
       <defs>
        <path id="DejaVuSans-2d" d="M 313 2009 
L 1997 2009 
L 1997 1497 
L 313 1497 
L 313 2009 
z
" transform="scale(0.015625)"/>
        <path id="DejaVuSans-34" d="M 2419 4116 
L 825 1625 
L 2419 1625 
L 2419 4116 
z
M 2253 4666 
L 3047 4666 
L 3047 1625 
L 3713 1625 
L 3713 1100 
L 3047 1100 
L 3047 0 
L 2419 0 
L 2419 1100 
L 313 1100 
L 313 1709 
L 2253 4666 
z
" transform="scale(0.015625)"/>
       </defs>
       <use xlink:href="#DejaVuSans-2d"/>
       <use xlink:href="#DejaVuSans-34" x="36.083984"/>
      </g>
     </g>
    </g>
    <g id="xtick_2">
     <g id="line2d_3">
      <path d="M 205.111568 293.76 
L 205.111568 3.456 
" clip-path="url(#p6e1216eef6)" style="fill: none; stroke: #b0b0b0; stroke-width: 0.8; stroke-linecap: square"/>
     </g>
     <g id="line2d_4">
      <g>
       <use xlink:href="#m747ade5447" x="205.111568" y="293.76" style="stroke: #000000; stroke-width: 0.8"/>
      </g>
     </g>
     <g id="text_2">
      <!-- 0 -->
      <g transform="translate(198.749068 315.956875)scale(0.2 -0.2)">
       <defs>
        <path id="DejaVuSans-30" d="M 2034 4250 
Q 1547 4250 1301 3770 
Q 1056 3291 1056 2328 
Q 1056 1369 1301 889 
Q 1547 409 2034 409 
Q 2525 409 2770 889 
Q 3016 1369 3016 2328 
Q 3016 3291 2770 3770 
Q 2525 4250 2034 4250 
z
M 2034 4750 
Q 2819 4750 3233 4129 
Q 3647 3509 3647 2328 
Q 3647 1150 3233 529 
Q 2819 -91 2034 -91 
Q 1250 -91 836 529 
Q 422 1150 422 2328 
Q 422 3509 836 4129 
Q 1250 4750 2034 4750 
z
" transform="scale(0.015625)"/>
       </defs>
       <use xlink:href="#DejaVuSans-30"/>
      </g>
     </g>
    </g>
    <g id="xtick_3">
     <g id="line2d_5">
      <path d="M 307.72278 293.76 
L 307.72278 3.456 
" clip-path="url(#p6e1216eef6)" style="fill: none; stroke: #b0b0b0; stroke-width: 0.8; stroke-linecap: square"/>
     </g>
     <g id="line2d_6">
      <g>
       <use xlink:href="#m747ade5447" x="307.72278" y="293.76" style="stroke: #000000; stroke-width: 0.8"/>
      </g>
     </g>
     <g id="text_3">
      <!-- 4 -->
      <g transform="translate(301.36028 315.956875)scale(0.2 -0.2)">
       <use xlink:href="#DejaVuSans-34"/>
      </g>
     </g>
    </g>
    <g id="xtick_4">
     <g id="line2d_7">
      <path d="M 410.333991 293.76 
L 410.333991 3.456 
" clip-path="url(#p6e1216eef6)" style="fill: none; stroke: #b0b0b0; stroke-width: 0.8; stroke-linecap: square"/>
     </g>
     <g id="line2d_8">
      <g>
       <use xlink:href="#m747ade5447" x="410.333991" y="293.76" style="stroke: #000000; stroke-width: 0.8"/>
      </g>
     </g>
     <g id="text_4">
      <!-- 8 -->
      <g transform="translate(403.971491 315.956875)scale(0.2 -0.2)">
       <defs>
        <path id="DejaVuSans-38" d="M 2034 2216 
Q 1584 2216 1326 1975 
Q 1069 1734 1069 1313 
Q 1069 891 1326 650 
Q 1584 409 2034 409 
Q 2484 409 2743 651 
Q 3003 894 3003 1313 
Q 3003 1734 2745 1975 
Q 2488 2216 2034 2216 
z
M 1403 2484 
Q 997 2584 770 2862 
Q 544 3141 544 3541 
Q 544 4100 942 4425 
Q 1341 4750 2034 4750 
Q 2731 4750 3128 4425 
Q 3525 4100 3525 3541 
Q 3525 3141 3298 2862 
Q 3072 2584 2669 2484 
Q 3125 2378 3379 2068 
Q 3634 1759 3634 1313 
Q 3634 634 3220 271 
Q 2806 -91 2034 -91 
Q 1263 -91 848 271 
Q 434 634 434 1313 
Q 434 1759 690 2068 
Q 947 2378 1403 2484 
z
M 1172 3481 
Q 1172 3119 1398 2916 
Q 1625 2713 2034 2713 
Q 2441 2713 2670 2916 
Q 2900 3119 2900 3481 
Q 2900 3844 2670 4047 
Q 2441 4250 2034 4250 
Q 1625 4250 1398 4047 
Q 1172 3844 1172 3481 
z
" transform="scale(0.015625)"/>
       </defs>
       <use xlink:href="#DejaVuSans-38"/>
      </g>
     </g>
    </g>
    <g id="text_5">
     <!-- log10 of Df -->
     <g transform="translate(175.214063 339.313125)scale(0.2 -0.2)">
      <defs>
       <path id="DejaVuSans-6c" d="M 603 4863 
L 1178 4863 
L 1178 0 
L 603 0 
L 603 4863 
z
" transform="scale(0.015625)"/>
       <path id="DejaVuSans-6f" d="M 1959 3097 
Q 1497 3097 1228 2736 
Q 959 2375 959 1747 
Q 959 1119 1226 758 
Q 1494 397 1959 397 
Q 2419 397 2687 759 
Q 2956 1122 2956 1747 
Q 2956 2369 2687 2733 
Q 2419 3097 1959 3097 
z
M 1959 3584 
Q 2709 3584 3137 3096 
Q 3566 2609 3566 1747 
Q 3566 888 3137 398 
Q 2709 -91 1959 -91 
Q 1206 -91 779 398 
Q 353 888 353 1747 
Q 353 2609 779 3096 
Q 1206 3584 1959 3584 
z
" transform="scale(0.015625)"/>
       <path id="DejaVuSans-67" d="M 2906 1791 
Q 2906 2416 2648 2759 
Q 2391 3103 1925 3103 
Q 1463 3103 1205 2759 
Q 947 2416 947 1791 
Q 947 1169 1205 825 
Q 1463 481 1925 481 
Q 2391 481 2648 825 
Q 2906 1169 2906 1791 
z
M 3481 434 
Q 3481 -459 3084 -895 
Q 2688 -1331 1869 -1331 
Q 1566 -1331 1297 -1286 
Q 1028 -1241 775 -1147 
L 775 -588 
Q 1028 -725 1275 -790 
Q 1522 -856 1778 -856 
Q 2344 -856 2625 -561 
Q 2906 -266 2906 331 
L 2906 616 
Q 2728 306 2450 153 
Q 2172 0 1784 0 
Q 1141 0 747 490 
Q 353 981 353 1791 
Q 353 2603 747 3093 
Q 1141 3584 1784 3584 
Q 2172 3584 2450 3431 
Q 2728 3278 2906 2969 
L 2906 3500 
L 3481 3500 
L 3481 434 
z
" transform="scale(0.015625)"/>
       <path id="DejaVuSans-31" d="M 794 531 
L 1825 531 
L 1825 4091 
L 703 3866 
L 703 4441 
L 1819 4666 
L 2450 4666 
L 2450 531 
L 3481 531 
L 3481 0 
L 794 0 
L 794 531 
z
" transform="scale(0.015625)"/>
       <path id="DejaVuSans-20" transform="scale(0.015625)"/>
       <path id="DejaVuSans-66" d="M 2375 4863 
L 2375 4384 
L 1825 4384 
Q 1516 4384 1395 4259 
Q 1275 4134 1275 3809 
L 1275 3500 
L 2222 3500 
L 2222 3053 
L 1275 3053 
L 1275 0 
L 697 0 
L 697 3053 
L 147 3053 
L 147 3500 
L 697 3500 
L 697 3744 
Q 697 4328 969 4595 
Q 1241 4863 1831 4863 
L 2375 4863 
z
" transform="scale(0.015625)"/>
       <path id="DejaVuSans-44" d="M 1259 4147 
L 1259 519 
L 2022 519 
Q 2988 519 3436 956 
Q 3884 1394 3884 2338 
Q 3884 3275 3436 3711 
Q 2988 4147 2022 4147 
L 1259 4147 
z
M 628 4666 
L 1925 4666 
Q 3281 4666 3915 4102 
Q 4550 3538 4550 2338 
Q 4550 1131 3912 565 
Q 3275 0 1925 0 
L 628 0 
L 628 4666 
z
" transform="scale(0.015625)"/>
      </defs>
      <use xlink:href="#DejaVuSans-6c"/>
      <use xlink:href="#DejaVuSans-6f" x="27.783203"/>
      <use xlink:href="#DejaVuSans-67" x="88.964844"/>
      <use xlink:href="#DejaVuSans-31" x="152.441406"/>
      <use xlink:href="#DejaVuSans-30" x="216.064453"/>
      <use xlink:href="#DejaVuSans-20" x="279.6875"/>
      <use xlink:href="#DejaVuSans-6f" x="311.474609"/>
      <use xlink:href="#DejaVuSans-66" x="372.65625"/>
      <use xlink:href="#DejaVuSans-20" x="407.861328"/>
      <use xlink:href="#DejaVuSans-44" x="439.648438"/>
      <use xlink:href="#DejaVuSans-66" x="516.650391"/>
     </g>
    </g>
   </g>
   <g id="matplotlib.axis_2">
    <g id="ytick_1">
     <g id="line2d_9">
      <path d="M 0 293.76 
L 460.8 293.76 
" clip-path="url(#p6e1216eef6)" style="fill: none; stroke: #b0b0b0; stroke-width: 0.8; stroke-linecap: square"/>
     </g>
     <g id="line2d_10">
      <defs>
       <path id="mf874bf4965" d="M 0 0 
L -3.5 0 
" style="stroke: #000000; stroke-width: 0.8"/>
      </defs>
      <g>
       <use xlink:href="#mf874bf4965" x="0" y="293.76" style="stroke: #000000; stroke-width: 0.8"/>
      </g>
     </g>
    </g>
    <g id="ytick_2">
     <g id="line2d_11">
      <path d="M 0 236.274059 
L 460.8 236.274059 
" clip-path="url(#p6e1216eef6)" style="fill: none; stroke: #b0b0b0; stroke-width: 0.8; stroke-linecap: square"/>
     </g>
     <g id="line2d_12">
      <g>
       <use xlink:href="#mf874bf4965" x="0" y="236.274059" style="stroke: #000000; stroke-width: 0.8"/>
      </g>
     </g>
    </g>
    <g id="ytick_3">
     <g id="line2d_13">
      <path d="M 0 178.788119 
L 460.8 178.788119 
" clip-path="url(#p6e1216eef6)" style="fill: none; stroke: #b0b0b0; stroke-width: 0.8; stroke-linecap: square"/>
     </g>
     <g id="line2d_14">
      <g>
       <use xlink:href="#mf874bf4965" x="0" y="178.788119" style="stroke: #000000; stroke-width: 0.8"/>
      </g>
     </g>
    </g>
    <g id="ytick_4">
     <g id="line2d_15">
      <path d="M 0 121.302178 
L 460.8 121.302178 
" clip-path="url(#p6e1216eef6)" style="fill: none; stroke: #b0b0b0; stroke-width: 0.8; stroke-linecap: square"/>
     </g>
     <g id="line2d_16">
      <g>
       <use xlink:href="#mf874bf4965" x="0" y="121.302178" style="stroke: #000000; stroke-width: 0.8"/>
      </g>
     </g>
    </g>
    <g id="ytick_5">
     <g id="line2d_17">
      <path d="M 0 63.816238 
L 460.8 63.816238 
" clip-path="url(#p6e1216eef6)" style="fill: none; stroke: #b0b0b0; stroke-width: 0.8; stroke-linecap: square"/>
     </g>
     <g id="line2d_18">
      <g>
       <use xlink:href="#mf874bf4965" x="0" y="63.816238" style="stroke: #000000; stroke-width: 0.8"/>
      </g>
     </g>
    </g>
    <g id="ytick_6">
     <g id="line2d_19">
      <path d="M 0 6.330297 
L 460.8 6.330297 
" clip-path="url(#p6e1216eef6)" style="fill: none; stroke: #b0b0b0; stroke-width: 0.8; stroke-linecap: square"/>
     </g>
     <g id="line2d_20">
      <g>
       <use xlink:href="#mf874bf4965" x="0" y="6.330297" style="stroke: #000000; stroke-width: 0.8"/>
      </g>
     </g>
    </g>
   </g>
   <g id="line2d_21">
    <path d="M -1 139.665743 
L -0.930313 139.665743 
L -0.887861 138.068911 
L -0.813316 138.068911 
L -0.736955 134.875248 
L -0.666637 134.875248 
L -0.581391 133.278416 
L -0.545183 133.278416 
L -0.460172 130.084752 
L -0.431876 130.084752 
L -0.330104 124.495842 
L -0.318428 124.495842 
L -0.219896 117.310099 
L -0.205544 117.310099 
L -0.110855 94.954455 
L 13.04426 94.954455 
L 13.04426 94.15604 
L 68.555999 94.15604 
L 68.555999 93.357624 
L 111.551308 93.357624 
L 111.551308 92.559208 
L 126.131222 92.559208 
L 126.131222 91.760792 
L 142.072484 91.760792 
L 142.072484 90.962376 
L 149.280299 90.962376 
L 149.280299 90.16396 
L 158.1277 90.16396 
L 158.1277 89.365545 
L 158.307225 89.365545 
L 158.307225 88.567129 
L 161.210494 88.567129 
L 161.210494 87.768713 
L 161.970768 87.768713 
L 161.970768 86.970297 
L 164.018615 86.970297 
L 164.018615 86.171881 
L 165.223124 86.171881 
L 165.223124 85.373465 
L 166.057734 85.373465 
L 166.057734 84.57505 
L 166.800234 84.57505 
L 166.800234 83.776634 
L 167.785168 83.776634 
L 167.785168 82.978218 
L 170.312637 82.978218 
L 170.312637 82.179802 
L 171.263868 82.179802 
L 171.263868 81.381386 
L 178.00236 81.381386 
L 178.00236 80.58297 
L 179.015316 80.58297 
L 179.015316 79.784554 
L 179.23712 79.784554 
L 179.23712 78.986139 
L 179.786276 78.986139 
L 179.786276 78.187723 
L 181.344048 78.187723 
L 181.344048 75.792475 
L 182.891179 75.792475 
L 182.891179 74.994059 
L 183.553687 74.994059 
L 183.553687 74.195644 
L 184.590877 74.195644 
L 184.590877 73.397228 
L 185.861283 73.397228 
L 185.861283 71.00198 
L 187.820638 71.00198 
L 187.820638 70.203564 
L 189.066311 70.203564 
L 189.066311 66.211485 
L 191.552325 66.211485 
L 191.552325 63.816238 
L 193.179218 63.816238 
L 193.179218 63.017822 
L 193.583546 63.017822 
L 193.583546 62.219406 
L 196.532232 62.219406 
L 196.532232 61.42099 
L 201.007537 61.42099 
L 201.007537 51.041584 
L 201.937629 51.041584 
L 201.937629 50.243168 
L 207.555215 50.243168 
L 207.555215 49.444752 
L 207.770798 49.444752 
L 207.770798 48.646337 
L 208.060776 48.646337 
L 208.060776 47.847921 
L 209.957088 47.847921 
L 209.957088 47.049505 
L 211.678696 47.049505 
L 211.678696 46.251089 
L 212.481506 46.251089 
L 212.580292 43.855842 
L 212.830404 43.855842 
L 212.830404 43.057426 
L 213.234531 43.057426 
L 213.234531 42.25901 
L 213.475822 42.25901 
L 213.475822 41.460594 
L 215.716221 41.460594 
L 215.716221 39.863762 
L 220.499792 39.863762 
L 220.499792 38.266931 
L 222.985805 38.266931 
L 222.985805 32.67802 
L 223.181028 32.67802 
L 223.181028 31.081188 
L 225.017026 31.081188 
L 225.017026 27.887525 
L 226.734399 27.887525 
L 226.734399 26.290693 
L 231.769907 26.290693 
L 231.769907 25.492277 
L 232.567366 25.492277 
L 232.567366 24.693861 
L 232.739289 24.693861 
L 232.739289 23.09703 
L 233.631035 23.09703 
L 233.631035 20.701782 
L 234.456662 20.701782 
L 234.456662 17.508119 
L 234.595846 17.508119 
L 234.595846 16.709703 
L 235.225299 16.709703 
L 235.225299 15.112871 
L 235.944314 15.112871 
L 235.944314 12.717624 
L 236.318711 12.717624 
L 236.318711 11.919208 
L 238.577209 11.919208 
L 238.683035 10.322376 
L 238.69071 10.322376 
L 238.734956 6.330297 
L 238.734956 6.330297 
L 460.8 6.330297 
L 460.8 6.330297 
" clip-path="url(#p6e1216eef6)" style="fill: none; stroke: #ff0000; stroke-width: 3; stroke-linecap: square"/>
   </g>
   <g id="line2d_22">
    <path d="M 189.683684 293.76 
L 189.683684 281.783762 
L 223.612846 281.783762 
L 223.612846 280.985347 
L 224.164755 280.985347 
L 224.250626 279.388515 
L 224.609216 279.388515 
L 224.609216 278.590099 
L 225.826691 278.590099 
L 225.826691 277.791683 
L 226.031314 277.791683 
L 226.031314 276.993267 
L 227.281198 276.993267 
L 227.281198 276.194851 
L 227.438423 276.194851 
L 227.438423 275.396436 
L 227.960436 275.396436 
L 227.960436 274.59802 
L 228.392786 274.59802 
L 228.392786 273.799604 
L 228.612348 273.799604 
L 228.612348 273.001188 
L 228.728078 273.001188 
L 228.779795 271.404356 
L 228.882904 271.404356 
L 228.882904 270.605941 
L 229.627519 270.605941 
L 229.627519 269.807525 
L 230.190454 269.807525 
L 230.190454 269.009109 
L 231.078172 269.009109 
L 231.078172 268.210693 
L 231.497932 268.210693 
L 231.497932 267.412277 
L 231.687281 267.412277 
L 231.687281 266.613861 
L 232.244661 266.613861 
L 232.244661 265.815446 
L 234.274349 265.815446 
L 234.274349 265.01703 
L 234.872638 265.01703 
L 234.872638 264.218614 
L 235.609303 264.218614 
L 235.609303 263.420198 
L 236.41076 263.420198 
L 236.41076 262.621782 
L 237.119634 262.621782 
L 237.131276 261.02495 
L 239.164693 261.02495 
L 239.164693 260.226535 
L 240.098322 260.226535 
L 240.098322 259.428119 
L 240.412664 259.428119 
L 240.412664 258.629703 
L 240.614139 258.629703 
L 240.614139 257.831287 
L 240.817476 257.831287 
L 240.817476 257.032871 
L 241.008929 257.032871 
L 241.008929 256.234455 
L 242.284171 256.234455 
L 242.284171 255.43604 
L 242.731714 255.43604 
L 242.731714 254.637624 
L 243.621994 254.637624 
L 243.621994 253.839208 
L 244.711627 253.839208 
L 244.711627 253.040792 
L 244.946334 253.040792 
L 244.946334 252.242376 
L 245.173052 252.242376 
L 245.173052 251.44396 
L 245.457968 251.44396 
L 245.457968 250.645545 
L 246.704404 250.645545 
L 246.704404 249.847129 
L 246.835139 249.847129 
L 246.844126 248.250297 
L 246.949971 248.250297 
L 246.949971 247.451881 
L 247.246779 247.451881 
L 247.246779 246.653465 
L 247.358337 246.653465 
L 247.358337 245.85505 
L 247.50517 245.85505 
L 247.572048 244.258218 
L 247.778596 244.258218 
L 247.778596 243.459802 
L 247.910088 243.459802 
L 247.978056 241.064554 
L 248.219634 241.064554 
L 248.316882 239.467723 
L 248.342813 239.467723 
L 248.342813 238.669307 
L 248.770397 238.669307 
L 248.872769 236.274059 
L 249.094777 236.274059 
L 249.204682 234.677228 
L 249.526519 234.677228 
L 249.547585 233.080396 
L 249.848146 233.080396 
L 249.957868 230.685149 
L 250.1412 230.685149 
L 250.1412 229.886733 
L 250.564311 229.886733 
L 250.606569 228.289901 
L 250.785854 228.289901 
L 250.785854 227.491485 
L 251.382387 227.491485 
L 251.47182 225.894653 
L 251.612597 225.894653 
L 251.612597 225.096238 
L 251.952342 225.096238 
L 251.952342 224.297822 
L 252.625741 224.297822 
L 252.688082 222.70099 
L 252.753333 222.70099 
L 252.845356 221.104158 
L 252.965002 221.104158 
L 252.965002 220.305743 
L 253.189104 220.305743 
L 253.191694 218.708911 
L 253.349408 218.708911 
L 253.392073 217.112079 
L 253.576836 217.112079 
L 253.598197 213.918416 
L 253.691748 213.918416 
L 253.790076 209.926337 
L 253.805243 209.926337 
L 253.907475 205.135842 
L 253.938622 205.135842 
L 253.960583 203.53901 
L 254.146482 203.53901 
L 254.250964 200.345347 
L 254.281899 200.345347 
L 254.384907 197.950099 
L 254.432151 197.950099 
L 254.432151 197.151683 
L 254.772583 197.151683 
L 254.772583 196.353267 
L 255.215208 196.353267 
L 255.215208 195.554851 
L 255.970448 195.554851 
L 255.970448 194.756436 
L 256.269946 194.756436 
L 256.269946 193.95802 
L 256.677973 193.95802 
L 256.677973 193.159604 
L 257.286689 193.159604 
L 257.286689 192.361188 
L 257.443877 192.361188 
L 257.443877 191.562772 
L 258.199047 191.562772 
L 258.205615 189.965941 
L 258.375083 189.965941 
L 258.375083 189.167525 
L 258.768688 189.167525 
L 258.768688 177.191287 
L 259.158894 177.191287 
L 259.158894 176.392871 
L 260.031514 176.392871 
L 260.031514 175.594455 
L 260.683753 175.594455 
L 260.683753 174.79604 
L 261.685491 174.79604 
L 261.685491 173.997624 
L 268.026071 173.997624 
L 268.026071 173.199208 
L 268.627485 173.199208 
L 268.627485 172.400792 
L 268.958583 172.400792 
L 269.045252 170.80396 
L 269.091202 170.80396 
L 269.18284 167.610297 
L 269.266093 167.610297 
L 269.266093 166.811881 
L 269.386149 166.811881 
L 269.454811 165.21505 
L 269.498777 165.21505 
L 269.515219 163.618218 
L 269.620616 163.618218 
L 269.620616 162.819802 
L 269.743575 162.819802 
L 269.819593 159.626139 
L 269.90158 159.626139 
L 269.90158 158.827723 
L 270.042391 158.827723 
L 270.067091 156.432475 
L 270.160006 156.432475 
L 270.160006 155.634059 
L 270.313468 155.634059 
L 270.419061 153.238812 
L 270.785335 153.238812 
L 270.800575 151.64198 
L 270.997792 151.64198 
L 271.103968 149.246733 
L 271.325559 149.246733 
L 271.363428 147.649901 
L 273.281581 147.649901 
L 273.281581 146.851485 
L 273.483541 146.851485 
L 273.483541 146.053069 
L 273.649962 146.053069 
L 273.649962 145.254653 
L 274.067877 145.254653 
L 274.067877 144.456238 
L 274.603117 144.456238 
L 274.691602 142.859406 
L 274.752234 142.859406 
L 274.752234 142.06099 
L 275.579881 142.06099 
L 275.579881 141.262574 
L 275.892975 141.262574 
L 275.892975 140.464158 
L 276.03161 140.464158 
L 276.091082 138.068911 
L 276.244071 138.068911 
L 276.327105 134.875248 
L 276.559157 134.875248 
L 276.559157 134.076832 
L 276.70829 134.076832 
L 276.758051 131.681584 
L 277.092698 131.681584 
L 277.15867 128.487921 
L 277.262695 128.487921 
L 277.334821 126.891089 
L 277.409669 126.891089 
L 277.409669 126.092673 
L 277.543529 126.092673 
L 277.543529 125.294257 
L 277.823666 125.294257 
L 277.918949 123.697426 
L 277.998385 123.697426 
L 278.105186 122.100594 
L 278.144753 122.100594 
L 278.211124 118.906931 
L 278.588516 118.906931 
L 278.588516 118.108515 
L 278.746862 118.108515 
L 278.792829 116.511683 
L 279.389332 116.511683 
L 279.389332 115.713267 
L 279.528114 115.713267 
L 279.620667 114.116436 
L 279.784916 114.116436 
L 279.819612 112.519604 
L 280.003895 112.519604 
L 280.014663 110.124356 
L 280.208908 110.124356 
L 280.264414 108.527525 
L 281.088624 108.527525 
L 281.131388 106.132277 
L 281.935258 106.132277 
L 281.951084 104.535446 
L 283.620359 104.535446 
L 283.620359 103.73703 
L 284.086228 103.73703 
L 284.086228 102.938614 
L 287.075076 102.938614 
L 287.081031 101.341782 
L 287.194636 101.341782 
L 287.194636 100.543366 
L 287.890845 100.543366 
L 287.964243 98.946535 
L 288.45611 98.946535 
L 288.51254 97.349703 
L 288.683785 97.349703 
L 288.683785 96.551287 
L 288.878365 96.551287 
L 288.962371 94.954455 
L 289.077451 94.954455 
L 289.077451 94.15604 
L 289.313116 94.15604 
L 289.313116 93.357624 
L 289.504326 93.357624 
L 289.504326 92.559208 
L 290.165006 92.559208 
L 290.165006 91.760792 
L 290.460016 91.760792 
L 290.460016 90.962376 
L 291.488842 90.962376 
L 291.574108 89.365545 
L 293.386163 89.365545 
L 293.386163 88.567129 
L 297.102604 88.567129 
L 297.102604 87.768713 
L 310.529755 87.768713 
L 310.529755 86.970297 
L 311.67839 86.970297 
L 311.67839 86.171881 
L 314.467322 86.171881 
L 314.467322 75.792475 
L 318.199866 75.792475 
L 318.199866 74.994059 
L 318.392361 74.994059 
L 318.392361 74.195644 
L 320.860573 74.195644 
L 320.860573 73.397228 
L 321.733596 73.397228 
L 321.733596 72.598812 
L 322.001068 72.598812 
L 322.001068 71.800396 
L 322.939805 71.800396 
L 323.007028 70.203564 
L 323.986701 70.203564 
L 323.986701 69.405149 
L 324.884063 69.405149 
L 324.884063 68.606733 
L 326.943366 68.606733 
L 326.943366 67.808317 
L 328.444238 67.808317 
L 328.444238 67.009901 
L 328.902198 67.009901 
L 328.902198 66.211485 
L 329.257127 66.211485 
L 329.257127 65.413069 
L 329.56408 65.413069 
L 329.56408 64.614653 
L 330.05296 64.614653 
L 330.05296 63.816238 
L 330.395913 63.816238 
L 330.395913 63.017822 
L 330.550591 63.017822 
L 330.655579 61.42099 
L 330.727651 61.42099 
L 330.727651 60.622574 
L 331.348047 60.622574 
L 331.348047 59.824158 
L 335.346209 59.824158 
L 335.346209 59.025743 
L 335.572169 59.025743 
L 335.572169 58.227327 
L 336.483742 58.227327 
L 336.483742 57.428911 
L 336.854943 57.428911 
L 336.854943 56.630495 
L 342.347523 56.630495 
L 342.347523 55.832079 
L 344.729917 55.832079 
L 344.729917 55.033663 
L 344.965515 55.033663 
L 344.965515 54.235248 
L 345.406495 54.235248 
L 345.406495 53.436832 
L 345.979333 53.436832 
L 345.979333 52.638416 
L 346.744757 52.638416 
L 346.744757 51.84 
L 347.552676 51.84 
L 347.552676 51.041584 
L 347.743796 51.041584 
L 347.743796 50.243168 
L 348.556729 50.243168 
L 348.663109 48.646337 
L 349.332019 48.646337 
L 349.332019 47.847921 
L 350.667027 47.847921 
L 350.667027 47.049505 
L 353.021073 47.049505 
L 353.021073 46.251089 
L 354.285667 46.251089 
L 354.308625 44.654257 
L 355.103842 44.654257 
L 355.103842 43.855842 
L 356.179266 43.855842 
L 356.179266 43.057426 
L 356.425874 43.057426 
L 356.425874 42.25901 
L 357.708702 42.25901 
L 357.708702 41.460594 
L 362.705084 41.460594 
L 362.705084 40.662178 
L 366.661712 40.662178 
L 366.661712 39.863762 
L 367.676097 39.863762 
L 367.676097 39.065347 
L 368.356226 39.065347 
L 368.356226 38.266931 
L 368.557867 38.266931 
L 368.557867 37.468515 
L 369.061952 37.468515 
L 369.061952 36.670099 
L 370.457775 36.670099 
L 370.457775 35.871683 
L 370.929859 35.871683 
L 370.929859 35.073267 
L 372.161814 35.073267 
L 372.161814 34.274851 
L 372.634796 34.274851 
L 372.634796 33.476436 
L 373.495576 33.476436 
L 373.495576 32.67802 
L 373.989448 32.67802 
L 373.989448 31.879604 
L 374.782012 31.879604 
L 374.782012 31.081188 
L 376.030658 31.081188 
L 376.030658 30.282772 
L 376.695097 30.282772 
L 376.732734 28.685941 
L 376.883956 28.685941 
L 376.883956 27.887525 
L 377.267411 27.887525 
L 377.267411 27.089109 
L 378.693446 27.089109 
L 378.693446 26.290693 
L 378.838676 26.290693 
L 378.838676 25.492277 
L 379.311631 25.492277 
L 379.311631 24.693861 
L 380.106257 24.693861 
L 380.106257 23.895446 
L 381.310632 23.895446 
L 381.310632 23.09703 
L 381.964888 23.09703 
L 381.964888 22.298614 
L 383.832934 22.298614 
L 383.904158 20.701782 
L 384.881089 20.701782 
L 384.881089 19.903366 
L 385.357806 19.903366 
L 385.357806 19.10495 
L 387.122007 19.10495 
L 387.122007 18.306535 
L 406.788012 18.306535 
L 406.788012 17.508119 
L 410.5294 17.508119 
L 410.5294 16.709703 
L 410.717725 16.709703 
L 410.717725 15.911287 
L 411.264154 15.911287 
L 411.264154 15.112871 
L 412.549149 15.112871 
L 412.549149 14.314455 
L 413.064562 14.314455 
L 413.064562 13.51604 
L 414.516774 13.51604 
L 414.531503 11.919208 
L 415.771415 11.919208 
L 415.771415 11.120792 
L 416.584388 11.120792 
L 416.584388 10.322376 
L 418.918186 10.322376 
L 418.918186 9.52396 
L 422.037682 9.52396 
L 422.037682 8.725545 
L 426.390303 8.725545 
L 426.390303 7.927129 
L 428.108452 7.927129 
L 428.108452 7.128713 
L 432.812107 7.128713 
L 432.812107 6.330297 
L 432.812107 6.330297 
L 460.8 6.330297 
L 460.8 6.330297 
" clip-path="url(#p6e1216eef6)" style="fill: none; stroke: #00bfbf; stroke-width: 1.5; stroke-linecap: square"/>
   </g>
   <g id="line2d_23">
    <path d="M 189.683684 293.76 
L 189.683684 281.783762 
L 222.071622 281.783762 
L 222.071622 280.985347 
L 222.803955 280.985347 
L 222.803955 280.186931 
L 223.612846 280.186931 
L 223.612846 279.388515 
L 224.164755 279.388515 
L 224.250626 277.791683 
L 224.609216 277.791683 
L 224.609216 276.993267 
L 225.826691 276.993267 
L 225.826691 276.194851 
L 226.031314 276.194851 
L 226.031314 275.396436 
L 226.802027 275.396436 
L 226.802027 274.59802 
L 227.281198 274.59802 
L 227.281198 273.799604 
L 227.438423 273.799604 
L 227.438423 273.001188 
L 227.960436 273.001188 
L 227.960436 272.202772 
L 228.392786 272.202772 
L 228.392786 271.404356 
L 228.612348 271.404356 
L 228.612348 270.605941 
L 228.779795 270.605941 
L 228.779795 269.807525 
L 229.627519 269.807525 
L 229.627519 269.009109 
L 230.190454 269.009109 
L 230.190454 268.210693 
L 231.078172 268.210693 
L 231.078172 267.412277 
L 231.497932 267.412277 
L 231.497932 266.613861 
L 232.244661 266.613861 
L 232.346934 265.01703 
L 232.619654 265.01703 
L 232.619654 264.218614 
L 232.852257 264.218614 
L 232.852257 263.420198 
L 233.384445 263.420198 
L 233.384445 262.621782 
L 234.55507 262.621782 
L 234.55507 261.823366 
L 235.609303 261.823366 
L 235.609303 261.02495 
L 236.078514 261.02495 
L 236.078514 260.226535 
L 237.131276 260.226535 
L 237.134094 258.629703 
L 240.052569 258.629703 
L 240.052569 257.831287 
L 240.412664 257.831287 
L 240.412664 257.032871 
L 240.614139 257.032871 
L 240.614139 256.234455 
L 242.284171 256.234455 
L 242.284171 255.43604 
L 242.66487 255.43604 
L 242.731714 253.839208 
L 243.595419 253.839208 
L 243.621994 252.242376 
L 243.751562 252.242376 
L 243.751562 251.44396 
L 244.190456 251.44396 
L 244.190456 250.645545 
L 244.585974 250.645545 
L 244.585974 249.847129 
L 245.173052 249.847129 
L 245.173052 249.048713 
L 245.457968 249.048713 
L 245.457968 248.250297 
L 246.198258 248.250297 
L 246.268007 246.653465 
L 246.526971 246.653465 
L 246.526971 245.85505 
L 246.695134 245.85505 
L 246.695134 245.056634 
L 246.808209 245.056634 
L 246.84734 242.661386 
L 246.966288 242.661386 
L 246.966288 241.86297 
L 247.187054 241.86297 
L 247.246779 240.266139 
L 247.358337 240.266139 
L 247.358337 239.467723 
L 247.496684 239.467723 
L 247.572048 237.072475 
L 247.778596 237.072475 
L 247.778596 236.274059 
L 247.910088 236.274059 
L 247.963906 234.677228 
L 248.342813 234.677228 
L 248.342813 233.878812 
L 248.837618 233.878812 
L 248.884905 231.483564 
L 249.204682 231.483564 
L 249.204682 230.685149 
L 249.547585 230.685149 
L 249.547585 229.886733 
L 249.741662 229.886733 
L 249.741662 229.088317 
L 249.88225 229.088317 
L 249.957868 227.491485 
L 250.249792 227.491485 
L 250.249792 226.693069 
L 250.564311 226.693069 
L 250.564311 225.894653 
L 250.847799 225.894653 
L 250.847799 225.096238 
L 251.382387 225.096238 
L 251.47182 221.902574 
L 251.565794 221.902574 
L 251.565794 221.104158 
L 251.682585 221.104158 
L 251.682585 220.305743 
L 252.514164 220.305743 
L 252.514164 219.507327 
L 252.731603 219.507327 
L 252.753333 217.910495 
L 252.845356 217.910495 
L 252.932162 216.313663 
L 252.959483 216.313663 
L 253.035657 213.12 
L 253.189104 213.12 
L 253.191694 211.523168 
L 253.323749 211.523168 
L 253.392073 209.926337 
L 253.468312 209.926337 
L 253.571353 205.135842 
L 253.580612 205.135842 
L 253.580612 204.337426 
L 253.691748 204.337426 
L 253.790076 198.748515 
L 253.811302 198.748515 
L 253.907149 195.554851 
L 253.936214 195.554851 
L 253.936214 194.756436 
L 254.211737 194.756436 
L 254.211737 193.95802 
L 254.772583 193.95802 
L 254.772583 193.159604 
L 255.415621 193.159604 
L 255.415621 192.361188 
L 255.614825 192.361188 
L 255.654314 189.965941 
L 255.853016 189.965941 
L 255.853016 189.167525 
L 257.320238 189.167525 
L 257.320238 188.369109 
L 257.443877 188.369109 
L 257.443877 187.570693 
L 258.375083 187.570693 
L 258.375083 186.772277 
L 258.768688 186.772277 
L 258.768688 174.79604 
L 260.031514 174.79604 
L 260.031514 173.997624 
L 261.736355 173.997624 
L 261.736355 173.199208 
L 264.470904 173.199208 
L 264.470904 172.400792 
L 265.19299 172.400792 
L 265.19299 171.602376 
L 266.959981 171.602376 
L 266.959981 170.80396 
L 267.68504 170.80396 
L 267.68504 170.005545 
L 267.812254 170.005545 
L 267.885352 167.610297 
L 268.056149 167.610297 
L 268.056149 166.811881 
L 268.376108 166.811881 
L 268.456755 165.21505 
L 268.544662 165.21505 
L 268.645517 162.819802 
L 268.740338 162.819802 
L 268.740338 162.021386 
L 268.958583 162.021386 
L 269.045252 160.424554 
L 269.133277 160.424554 
L 269.18284 158.029307 
L 269.266093 158.029307 
L 269.366924 156.432475 
L 269.386149 156.432475 
L 269.386149 155.634059 
L 269.498777 155.634059 
L 269.57387 153.238812 
L 269.649299 153.238812 
L 269.743575 151.64198 
L 270.061441 151.64198 
L 270.061441 150.843564 
L 270.181643 150.843564 
L 270.249674 148.448317 
L 270.313468 148.448317 
L 270.419061 146.851485 
L 270.480531 146.851485 
L 270.480531 146.053069 
L 270.880548 146.053069 
L 270.880548 145.254653 
L 271.325559 145.254653 
L 271.325559 144.456238 
L 271.961855 144.456238 
L 271.961855 143.657822 
L 272.087054 143.657822 
L 272.087054 142.859406 
L 272.457826 142.859406 
L 272.457826 142.06099 
L 272.768221 142.06099 
L 272.869513 140.464158 
L 273.049 140.464158 
L 273.049 139.665743 
L 273.649962 139.665743 
L 273.649962 138.867327 
L 273.76994 138.867327 
L 273.76994 138.068911 
L 274.067877 138.068911 
L 274.067877 137.270495 
L 274.294932 137.270495 
L 274.386784 134.875248 
L 274.691602 134.875248 
L 274.752234 133.278416 
L 275.021057 133.278416 
L 275.132062 131.681584 
L 275.490486 131.681584 
L 275.490486 130.883168 
L 276.03161 130.883168 
L 276.117831 127.689505 
L 276.207016 127.689505 
L 276.303596 124.495842 
L 276.327105 124.495842 
L 276.366451 122.89901 
L 276.559157 122.89901 
L 276.559157 122.100594 
L 276.676557 122.100594 
L 276.70829 120.503762 
L 277.092698 120.503762 
L 277.15867 116.511683 
L 277.262695 116.511683 
L 277.36727 113.31802 
L 277.409669 113.31802 
L 277.415162 111.721188 
L 277.543529 111.721188 
L 277.543529 110.922772 
L 277.66051 110.922772 
L 277.680421 108.527525 
L 278.105186 108.527525 
L 278.211124 106.132277 
L 278.588516 106.132277 
L 278.603565 104.535446 
L 278.792829 104.535446 
L 278.792829 103.73703 
L 279.186452 103.73703 
L 279.186452 102.938614 
L 280.014288 102.938614 
L 280.015347 101.341782 
L 280.368654 101.341782 
L 280.368654 100.543366 
L 283.394581 100.543366 
L 283.394581 99.74495 
L 283.620359 99.74495 
L 283.620359 98.946535 
L 286.411793 98.946535 
L 286.411793 98.148119 
L 287.081031 98.148119 
L 287.081031 97.349703 
L 287.714292 97.349703 
L 287.714292 96.551287 
L 287.876804 96.551287 
L 287.916177 94.954455 
L 288.41378 94.954455 
L 288.41378 94.15604 
L 288.540694 94.15604 
L 288.540694 93.357624 
L 288.683785 93.357624 
L 288.683785 92.559208 
L 288.878365 92.559208 
L 288.963433 90.16396 
L 290.161653 90.16396 
L 290.170281 87.768713 
L 291.077051 87.768713 
L 291.077051 86.970297 
L 292.285545 86.970297 
L 292.285545 86.171881 
L 292.887277 86.171881 
L 292.887277 85.373465 
L 293.197583 85.373465 
L 293.197583 84.57505 
L 293.386163 84.57505 
L 293.386163 83.776634 
L 297.102604 83.776634 
L 297.102604 82.978218 
L 301.3739 82.978218 
L 301.3739 82.179802 
L 302.703899 82.179802 
L 302.703899 81.381386 
L 306.103199 81.381386 
L 306.103199 80.58297 
L 307.450728 80.58297 
L 307.450728 79.784554 
L 309.199666 79.784554 
L 309.199666 78.986139 
L 310.529755 78.986139 
L 310.529755 78.187723 
L 310.64158 78.187723 
L 310.64158 77.389307 
L 313.950522 77.389307 
L 313.950522 76.590891 
L 314.467322 76.590891 
L 314.467322 71.00198 
L 318.199866 71.00198 
L 318.199866 70.203564 
L 318.392361 70.203564 
L 318.392361 69.405149 
L 320.860573 69.405149 
L 320.860573 68.606733 
L 321.202416 68.606733 
L 321.202416 67.808317 
L 321.733596 67.808317 
L 321.733596 67.009901 
L 322.001068 67.009901 
L 322.001068 66.211485 
L 322.184364 66.211485 
L 322.184364 65.413069 
L 322.939805 65.413069 
L 323.007028 63.816238 
L 323.986701 63.816238 
L 323.986701 63.017822 
L 324.884063 63.017822 
L 324.884063 62.219406 
L 326.943366 62.219406 
L 326.943366 61.42099 
L 328.444238 61.42099 
L 328.444238 60.622574 
L 328.902198 60.622574 
L 328.902198 59.824158 
L 329.257127 59.824158 
L 329.257127 59.025743 
L 329.56408 59.025743 
L 329.56408 58.227327 
L 330.395913 58.227327 
L 330.395913 57.428911 
L 330.550591 57.428911 
L 330.655579 55.832079 
L 331.348047 55.832079 
L 331.348047 55.033663 
L 335.572169 55.033663 
L 335.572169 54.235248 
L 336.483742 54.235248 
L 336.483742 53.436832 
L 340.81449 53.436832 
L 340.81449 52.638416 
L 342.442484 52.638416 
L 342.442484 51.84 
L 343.210684 51.84 
L 343.210684 51.041584 
L 344.138035 51.041584 
L 344.138035 50.243168 
L 344.381592 50.243168 
L 344.381592 49.444752 
L 344.586427 49.444752 
L 344.684696 47.847921 
L 345.406495 47.847921 
L 345.406495 47.049505 
L 346.275226 47.049505 
L 346.275226 46.251089 
L 346.744757 46.251089 
L 346.744757 45.452673 
L 347.441585 45.452673 
L 347.441585 44.654257 
L 352.949927 44.654257 
L 352.949927 43.855842 
L 354.285667 43.855842 
L 354.308625 42.25901 
L 355.103842 42.25901 
L 355.103842 41.460594 
L 356.425874 41.460594 
L 356.425874 40.662178 
L 357.708702 40.662178 
L 357.759192 39.065347 
L 358.970938 39.065347 
L 358.970938 38.266931 
L 359.780121 38.266931 
L 359.780121 37.468515 
L 360.950721 37.468515 
L 360.950721 36.670099 
L 364.920961 36.670099 
L 364.920961 35.871683 
L 366.661712 35.871683 
L 366.661712 35.073267 
L 367.03942 35.073267 
L 367.03942 34.274851 
L 367.620064 34.274851 
L 367.620064 33.476436 
L 367.920228 33.476436 
L 367.920228 32.67802 
L 369.150366 32.67802 
L 369.150366 31.879604 
L 370.200201 31.879604 
L 370.200201 31.081188 
L 370.457775 31.081188 
L 370.457775 30.282772 
L 371.444153 30.282772 
L 371.482364 28.685941 
L 371.667391 28.685941 
L 371.76774 27.089109 
L 372.012794 27.089109 
L 372.012794 26.290693 
L 373.511566 26.290693 
L 373.511566 25.492277 
L 374.02202 25.492277 
L 374.02202 24.693861 
L 374.54242 24.693861 
L 374.54242 23.895446 
L 374.749148 23.895446 
L 374.749148 23.09703 
L 376.237821 23.09703 
L 376.237821 22.298614 
L 376.923373 22.298614 
L 376.923373 21.500198 
L 377.753137 21.500198 
L 377.753137 20.701782 
L 380.581354 20.701782 
L 380.581354 19.903366 
L 381.897869 19.903366 
L 381.897869 19.10495 
L 383.904158 19.10495 
L 383.904158 18.306535 
L 405.72395 18.306535 
L 405.72395 17.508119 
L 406.788012 17.508119 
L 406.788012 16.709703 
L 410.5294 16.709703 
L 410.5294 15.911287 
L 410.717725 15.911287 
L 410.717725 15.112871 
L 411.264154 15.112871 
L 411.264154 14.314455 
L 411.752105 14.314455 
L 411.752105 13.51604 
L 412.481202 13.51604 
L 412.481202 12.717624 
L 413.064562 12.717624 
L 413.064562 11.919208 
L 415.587937 11.919208 
L 415.587937 11.120792 
L 416.584388 11.120792 
L 416.584388 10.322376 
L 417.065628 10.322376 
L 417.065628 9.52396 
L 420.967911 9.52396 
L 420.967911 8.725545 
L 421.262734 8.725545 
L 421.262734 7.927129 
L 422.037682 7.927129 
L 422.037682 7.128713 
L 423.297083 7.128713 
L 423.297083 6.330297 
L 423.297083 6.330297 
L 460.8 6.330297 
L 460.8 6.330297 
" clip-path="url(#p6e1216eef6)" style="fill: none; stroke: #bf00bf; stroke-width: 1.5; stroke-linecap: square"/>
   </g>
   <g id="line2d_24">
    <path d="M 189.683684 293.76 
L 189.683684 281.783762 
L 222.071622 281.783762 
L 222.071622 280.985347 
L 222.796308 280.985347 
L 222.803955 279.388515 
L 223.164711 279.388515 
L 223.164711 278.590099 
L 223.612846 278.590099 
L 223.612846 277.791683 
L 223.948078 277.791683 
L 223.990824 276.194851 
L 224.164755 276.194851 
L 224.250626 274.59802 
L 224.609216 274.59802 
L 224.609216 273.799604 
L 224.871956 273.799604 
L 224.871956 273.001188 
L 225.637525 273.001188 
L 225.637525 272.202772 
L 226.865966 272.202772 
L 226.865966 271.404356 
L 227.281198 271.404356 
L 227.281198 270.605941 
L 227.798107 270.605941 
L 227.798107 269.807525 
L 228.612348 269.807525 
L 228.612348 269.009109 
L 228.869807 269.009109 
L 228.869807 268.210693 
L 229.985636 268.210693 
L 229.985636 267.412277 
L 230.325167 267.412277 
L 230.325167 266.613861 
L 231.152693 266.613861 
L 231.152693 265.815446 
L 231.383843 265.815446 
L 231.383843 265.01703 
L 231.497932 265.01703 
L 231.497932 264.218614 
L 231.632045 264.218614 
L 231.632045 263.420198 
L 231.999277 263.420198 
L 231.999277 262.621782 
L 232.346934 262.621782 
L 232.346934 261.823366 
L 232.796883 261.823366 
L 232.868986 260.226535 
L 233.603531 260.226535 
L 233.603531 259.428119 
L 233.881691 259.428119 
L 233.881691 258.629703 
L 236.817962 258.629703 
L 236.817962 257.831287 
L 237.241942 257.831287 
L 237.241942 257.032871 
L 237.786256 257.032871 
L 237.786256 256.234455 
L 239.196563 256.234455 
L 239.196563 255.43604 
L 239.894721 255.43604 
L 239.894721 254.637624 
L 240.85296 254.637624 
L 240.860403 253.040792 
L 240.99991 253.040792 
L 241.018981 250.645545 
L 241.270175 250.645545 
L 241.270175 249.847129 
L 242.511761 249.847129 
L 242.511761 249.048713 
L 242.730886 249.048713 
L 242.730886 248.250297 
L 242.951665 248.250297 
L 242.951665 247.451881 
L 243.396006 247.451881 
L 243.476475 245.85505 
L 243.595419 245.85505 
L 243.621994 244.258218 
L 243.750434 244.258218 
L 243.751562 242.661386 
L 244.342258 242.661386 
L 244.436896 241.064554 
L 244.672563 241.064554 
L 244.672563 240.266139 
L 244.812766 240.266139 
L 244.812766 239.467723 
L 245.447428 239.467723 
L 245.447428 238.669307 
L 245.734057 238.669307 
L 245.783746 235.475644 
L 246.191449 235.475644 
L 246.191449 234.677228 
L 246.329293 234.677228 
L 246.427103 231.483564 
L 246.526971 231.483564 
L 246.526971 230.685149 
L 246.799481 230.685149 
L 246.844126 229.088317 
L 247.187054 229.088317 
L 247.246779 227.491485 
L 247.496684 227.491485 
L 247.587236 225.096238 
L 247.778596 225.096238 
L 247.778596 224.297822 
L 247.910088 224.297822 
L 247.963906 222.70099 
L 248.110147 222.70099 
L 248.110147 221.902574 
L 248.396557 221.902574 
L 248.396557 221.104158 
L 249.646807 221.104158 
L 249.646807 220.305743 
L 250.193772 220.305743 
L 250.193772 219.507327 
L 250.671612 219.507327 
L 250.671612 218.708911 
L 250.784687 218.708911 
L 250.886651 217.112079 
L 251.199407 217.112079 
L 251.199407 216.313663 
L 251.382387 216.313663 
L 251.428583 213.918416 
L 252.074421 213.918416 
L 252.074421 213.12 
L 252.261761 213.12 
L 252.261761 212.321584 
L 252.493972 212.321584 
L 252.566318 209.926337 
L 252.668174 209.926337 
L 252.73431 208.329505 
L 252.80079 208.329505 
L 252.80079 207.531089 
L 252.980486 207.531089 
L 253.091121 203.53901 
L 253.13314 203.53901 
L 253.207568 201.143762 
L 253.247793 201.143762 
L 253.323749 197.950099 
L 253.394202 197.950099 
L 253.441005 196.353267 
L 253.56398 196.353267 
L 253.667013 193.159604 
L 253.750635 193.159604 
L 253.851218 191.562772 
L 253.882926 191.562772 
L 253.882926 190.764356 
L 254.545175 190.764356 
L 254.558256 189.167525 
L 255.229471 189.167525 
L 255.229471 188.369109 
L 255.628714 188.369109 
L 255.628714 187.570693 
L 257.083289 187.570693 
L 257.083289 186.772277 
L 257.539741 186.772277 
L 257.539741 185.973861 
L 258.282916 185.973861 
L 258.282916 185.175446 
L 258.56544 185.175446 
L 258.56544 184.37703 
L 258.768688 184.37703 
L 258.768688 172.400792 
L 258.971456 172.400792 
L 258.971456 171.602376 
L 259.597682 171.602376 
L 259.638779 170.005545 
L 260.739905 170.005545 
L 260.739905 169.207129 
L 261.35386 169.207129 
L 261.35386 168.408713 
L 261.736355 168.408713 
L 261.779691 166.811881 
L 263.327307 166.811881 
L 263.327307 166.013465 
L 263.677165 166.013465 
L 263.715626 164.416634 
L 263.980842 164.416634 
L 263.980842 163.618218 
L 264.14321 163.618218 
L 264.14321 162.819802 
L 264.470904 162.819802 
L 264.571272 161.22297 
L 264.639891 161.22297 
L 264.639891 160.424554 
L 265.548491 160.424554 
L 265.548491 159.626139 
L 265.99099 159.626139 
L 265.99099 158.827723 
L 266.253347 158.827723 
L 266.253347 158.029307 
L 267.109077 158.029307 
L 267.109077 157.230891 
L 268.109779 157.230891 
L 268.209067 155.634059 
L 268.376108 155.634059 
L 268.376108 154.835644 
L 268.947639 154.835644 
L 269.045252 151.64198 
L 269.18284 151.64198 
L 269.18284 150.843564 
L 269.386149 150.843564 
L 269.487957 148.448317 
L 269.498777 148.448317 
L 269.518166 146.851485 
L 269.743575 146.851485 
L 269.773704 145.254653 
L 269.871936 145.254653 
L 269.899518 143.657822 
L 270.061441 143.657822 
L 270.061441 142.859406 
L 270.183552 142.859406 
L 270.183552 142.06099 
L 270.342839 142.06099 
L 270.419061 139.665743 
L 270.529871 139.665743 
L 270.625628 138.068911 
L 270.702804 138.068911 
L 270.702804 137.270495 
L 270.916178 137.270495 
L 270.969812 135.673663 
L 271.179183 135.673663 
L 271.274119 134.076832 
L 271.478788 134.076832 
L 271.478788 133.278416 
L 272.087054 133.278416 
L 272.088197 131.681584 
L 272.490675 131.681584 
L 272.594434 130.084752 
L 272.638486 130.084752 
L 272.722398 128.487921 
L 272.869513 128.487921 
L 272.869513 127.689505 
L 273.477814 127.689505 
L 273.477814 126.891089 
L 273.628629 126.891089 
L 273.649962 124.495842 
L 273.76994 124.495842 
L 273.868097 122.100594 
L 274.012066 122.100594 
L 274.106702 119.705347 
L 274.247187 119.705347 
L 274.304913 118.108515 
L 274.367955 118.108515 
L 274.471307 116.511683 
L 274.752234 116.511683 
L 274.765783 114.914851 
L 274.9043 114.914851 
L 275.008585 112.519604 
L 275.021057 112.519604 
L 275.021057 111.721188 
L 275.204441 111.721188 
L 275.237208 109.325941 
L 275.395999 109.325941 
L 275.397328 107.729109 
L 275.525342 107.729109 
L 275.538085 106.132277 
L 275.967775 106.132277 
L 275.968968 104.535446 
L 276.278773 104.535446 
L 276.366451 102.140198 
L 277.092698 102.140198 
L 277.108474 100.543366 
L 277.293673 100.543366 
L 277.293673 99.74495 
L 277.476741 99.74495 
L 277.476741 98.946535 
L 277.592884 98.946535 
L 277.592884 98.148119 
L 278.105186 98.148119 
L 278.105186 97.349703 
L 282.695026 97.349703 
L 282.695026 96.551287 
L 283.119851 96.551287 
L 283.119851 95.752871 
L 283.620359 95.752871 
L 283.620359 94.954455 
L 284.760353 94.954455 
L 284.811421 93.357624 
L 286.471869 93.357624 
L 286.471869 92.559208 
L 286.653388 92.559208 
L 286.653388 91.760792 
L 287.081031 91.760792 
L 287.177004 90.16396 
L 287.462961 90.16396 
L 287.462961 89.365545 
L 287.714292 89.365545 
L 287.714292 88.567129 
L 287.916177 88.567129 
L 287.916177 87.768713 
L 288.102153 87.768713 
L 288.102153 86.970297 
L 288.540694 86.970297 
L 288.617224 85.373465 
L 288.962371 85.373465 
L 288.962371 84.57505 
L 289.747771 84.57505 
L 289.765192 82.978218 
L 291.58571 82.978218 
L 291.58571 82.179802 
L 292.285545 82.179802 
L 292.285545 81.381386 
L 292.887277 81.381386 
L 292.887277 80.58297 
L 294.522848 80.58297 
L 294.522848 79.784554 
L 294.833636 79.784554 
L 294.833636 78.986139 
L 302.361296 78.986139 
L 302.361296 78.187723 
L 302.703899 78.187723 
L 302.703899 77.389307 
L 303.727282 77.389307 
L 303.727282 76.590891 
L 304.428255 76.590891 
L 304.489487 74.994059 
L 305.937324 74.994059 
L 305.937324 74.195644 
L 306.103199 74.195644 
L 306.103199 73.397228 
L 307.450728 73.397228 
L 307.450728 72.598812 
L 309.697479 72.598812 
L 309.697479 71.800396 
L 309.937963 71.800396 
L 309.937963 71.00198 
L 310.64158 71.00198 
L 310.64158 70.203564 
L 312.452424 70.203564 
L 312.452424 69.405149 
L 313.617665 69.405149 
L 313.617665 68.606733 
L 313.976046 68.606733 
L 313.976046 67.808317 
L 314.467322 67.808317 
L 314.467322 66.211485 
L 317.500198 66.211485 
L 317.500198 65.413069 
L 317.996024 65.413069 
L 317.996024 64.614653 
L 318.392361 64.614653 
L 318.392361 63.816238 
L 318.856362 63.816238 
L 318.891213 62.219406 
L 320.310834 62.219406 
L 320.310834 61.42099 
L 321.09128 61.42099 
L 321.09128 60.622574 
L 321.372538 60.622574 
L 321.372538 59.824158 
L 322.803836 59.824158 
L 322.803836 59.025743 
L 323.46987 59.025743 
L 323.46987 58.227327 
L 323.986701 58.227327 
L 323.986701 57.428911 
L 324.175516 57.428911 
L 324.175516 56.630495 
L 324.333012 56.630495 
L 324.333012 55.832079 
L 328.003637 55.832079 
L 328.003637 55.033663 
L 328.444238 55.033663 
L 328.444238 54.235248 
L 328.672805 54.235248 
L 328.758092 52.638416 
L 329.257127 52.638416 
L 329.314839 51.041584 
L 329.56408 51.041584 
L 329.56408 50.243168 
L 329.890118 50.243168 
L 329.890118 49.444752 
L 333.069113 49.444752 
L 333.069113 48.646337 
L 333.428135 48.646337 
L 333.495322 47.049505 
L 336.380521 47.049505 
L 336.380521 46.251089 
L 338.662791 46.251089 
L 338.662791 45.452673 
L 343.321999 45.452673 
L 343.321999 44.654257 
L 344.165635 44.654257 
L 344.165635 43.855842 
L 345.927391 43.855842 
L 345.927391 43.057426 
L 346.640539 43.057426 
L 346.640539 42.25901 
L 349.901535 42.25901 
L 349.901535 41.460594 
L 350.395131 41.460594 
L 350.395131 40.662178 
L 350.528391 40.662178 
L 350.528391 39.863762 
L 351.001277 39.863762 
L 351.001277 39.065347 
L 352.897041 39.065347 
L 352.897041 38.266931 
L 356.425874 38.266931 
L 356.425874 37.468515 
L 356.606148 37.468515 
L 356.606148 36.670099 
L 357.602698 36.670099 
L 357.708702 35.073267 
L 357.759192 35.073267 
L 357.759192 34.274851 
L 358.747021 34.274851 
L 358.747021 33.476436 
L 358.907457 33.476436 
L 358.970938 31.879604 
L 359.780121 31.879604 
L 359.827541 30.282772 
L 360.872735 30.282772 
L 360.872735 29.484356 
L 361.903305 29.484356 
L 361.903305 28.685941 
L 362.279325 28.685941 
L 362.279325 27.887525 
L 362.857504 27.887525 
L 362.857504 27.089109 
L 363.92405 27.089109 
L 363.92405 26.290693 
L 364.150754 26.290693 
L 364.150754 25.492277 
L 366.115263 25.492277 
L 366.115263 24.693861 
L 366.411764 24.693861 
L 366.411764 23.895446 
L 367.920228 23.895446 
L 367.920228 23.09703 
L 368.118782 23.09703 
L 368.118782 22.298614 
L 368.36773 22.298614 
L 368.441751 20.701782 
L 369.101168 20.701782 
L 369.101168 19.903366 
L 369.768029 19.903366 
L 369.768029 19.10495 
L 375.382876 19.10495 
L 375.382876 18.306535 
L 402.469187 18.306535 
L 402.469187 17.508119 
L 403.389421 17.508119 
L 403.389421 16.709703 
L 406.69061 16.709703 
L 406.788012 15.112871 
L 407.301402 15.112871 
L 407.301402 14.314455 
L 407.747079 14.314455 
L 407.747079 13.51604 
L 408.322235 13.51604 
L 408.322235 12.717624 
L 409.4762 12.717624 
L 409.4762 11.919208 
L 409.94181 11.919208 
L 409.94181 11.120792 
L 410.116585 11.120792 
L 410.116585 10.322376 
L 410.723467 10.322376 
L 410.723467 9.52396 
L 411.109533 9.52396 
L 411.109533 8.725545 
L 412.101504 8.725545 
L 412.101504 7.927129 
L 412.733256 7.927129 
L 412.733256 7.128713 
L 412.921221 7.128713 
L 412.921221 6.330297 
L 412.921221 6.330297 
L 460.8 6.330297 
L 460.8 6.330297 
" clip-path="url(#p6e1216eef6)" style="fill: none; stroke: #000000; stroke-width: 1.5; stroke-linecap: square"/>
   </g>
   <g id="line2d_25">
    <path d="M -0.110855 293.76 
L -0.110855 292.961584 
L 189.084637 292.961584 
L 189.084637 292.163168 
L 189.683684 292.163168 
L 189.683684 280.186931 
L 211.238582 280.186931 
L 211.238582 279.388515 
L 214.813265 279.388515 
L 214.813265 278.590099 
L 216.183376 278.590099 
L 216.183376 277.791683 
L 219.64369 277.791683 
L 219.64369 276.993267 
L 220.655097 276.993267 
L 220.655097 276.194851 
L 221.207662 276.194851 
L 221.207662 275.396436 
L 221.385835 275.396436 
L 221.385835 274.59802 
L 221.578528 274.59802 
L 221.578528 273.799604 
L 221.751344 273.799604 
L 221.751344 273.001188 
L 222.250543 273.001188 
L 222.250543 272.202772 
L 222.6885 272.202772 
L 222.796308 270.605941 
L 222.803955 270.605941 
L 222.803955 269.807525 
L 223.037838 269.807525 
L 223.037838 269.009109 
L 223.164711 269.009109 
L 223.164711 268.210693 
L 223.294096 268.210693 
L 223.294096 267.412277 
L 223.625025 267.412277 
L 223.625025 266.613861 
L 223.943996 266.613861 
L 223.943996 265.815446 
L 224.164755 265.815446 
L 224.250626 264.218614 
L 224.567857 264.218614 
L 224.567857 263.420198 
L 224.817364 263.420198 
L 224.817364 262.621782 
L 225.088271 262.621782 
L 225.088271 261.823366 
L 225.637525 261.823366 
L 225.637525 261.02495 
L 226.012938 261.02495 
L 226.012938 260.226535 
L 226.865966 260.226535 
L 226.865966 259.428119 
L 226.998064 259.428119 
L 227.10254 257.831287 
L 227.20756 257.831287 
L 227.281198 256.234455 
L 227.425509 256.234455 
L 227.425509 255.43604 
L 227.567228 255.43604 
L 227.567228 254.637624 
L 227.790611 254.637624 
L 227.790611 253.839208 
L 228.421822 253.839208 
L 228.421822 253.040792 
L 228.8615 253.040792 
L 228.8615 252.242376 
L 228.996719 252.242376 
L 229.062421 250.645545 
L 229.444738 250.645545 
L 229.463899 249.048713 
L 230.028658 249.048713 
L 230.028658 248.250297 
L 230.377041 248.250297 
L 230.377041 247.451881 
L 230.601832 247.451881 
L 230.601832 246.653465 
L 232.140701 246.653465 
L 232.140701 245.85505 
L 232.796438 245.85505 
L 232.80106 244.258218 
L 233.363814 244.258218 
L 233.396858 242.661386 
L 233.498977 242.661386 
L 233.498977 241.86297 
L 233.809776 241.86297 
L 233.809776 241.064554 
L 234.132676 241.064554 
L 234.240423 237.870891 
L 234.821822 237.870891 
L 234.821822 237.072475 
L 235.126573 237.072475 
L 235.126573 236.274059 
L 235.252671 236.274059 
L 235.252671 235.475644 
L 235.525135 235.475644 
L 235.525135 234.677228 
L 235.827283 234.677228 
L 235.827283 233.878812 
L 236.138226 233.878812 
L 236.213476 232.28198 
L 236.466629 232.28198 
L 236.466629 231.483564 
L 236.786656 231.483564 
L 236.786656 230.685149 
L 237.499743 230.685149 
L 237.59971 228.289901 
L 238.181162 228.289901 
L 238.181162 227.491485 
L 238.358258 227.491485 
L 238.380519 225.894653 
L 238.496609 225.894653 
L 238.496609 225.096238 
L 238.75923 225.096238 
L 238.75923 224.297822 
L 238.973554 224.297822 
L 238.973554 223.499406 
L 239.425098 223.499406 
L 239.425098 222.70099 
L 240.045307 222.70099 
L 240.125662 220.305743 
L 240.386034 220.305743 
L 240.386034 219.507327 
L 240.662027 219.507327 
L 240.681276 217.910495 
L 240.897607 217.910495 
L 240.897607 217.112079 
L 241.020219 217.112079 
L 241.020219 216.313663 
L 241.603915 216.313663 
L 241.682165 213.918416 
L 242.1721 213.918416 
L 242.185604 212.321584 
L 242.510995 212.321584 
L 242.511761 210.724752 
L 242.9272 210.724752 
L 243.02887 209.127921 
L 243.159798 209.127921 
L 243.234258 206.732673 
L 243.312502 206.732673 
L 243.385154 205.135842 
L 243.476475 205.135842 
L 243.476475 204.337426 
L 243.595419 204.337426 
L 243.665266 201.143762 
L 244.499442 201.143762 
L 244.499442 200.345347 
L 244.877821 200.345347 
L 244.877821 199.546931 
L 245.053037 199.546931 
L 245.053037 198.748515 
L 245.670648 198.748515 
L 245.737353 197.151683 
L 245.783746 197.151683 
L 245.783746 196.353267 
L 245.992233 196.353267 
L 245.992233 195.554851 
L 246.209694 195.554851 
L 246.209694 194.756436 
L 246.427103 194.756436 
L 246.514714 193.159604 
L 246.799481 193.159604 
L 246.799481 192.361188 
L 247.058291 192.361188 
L 247.115966 190.764356 
L 247.382603 190.764356 
L 247.483669 189.167525 
L 247.673157 189.167525 
L 247.673157 188.369109 
L 248.42074 188.369109 
L 248.42074 187.570693 
L 248.74922 187.570693 
L 248.772838 185.973861 
L 248.918089 185.973861 
L 248.918089 185.175446 
L 249.362026 185.175446 
L 249.449902 182.780198 
L 249.725247 182.780198 
L 249.725247 181.981782 
L 250.772142 181.981782 
L 250.772142 181.183366 
L 250.93356 181.183366 
L 250.93356 180.38495 
L 251.260174 180.38495 
L 251.338922 178.788119 
L 251.685602 178.788119 
L 251.685602 177.989703 
L 252.188615 177.989703 
L 252.188615 177.191287 
L 252.365665 177.191287 
L 252.412495 175.594455 
L 253.010951 175.594455 
L 253.010951 174.79604 
L 253.824459 174.79604 
L 253.824459 173.997624 
L 257.073475 173.997624 
L 257.153356 172.400792 
L 257.709352 172.400792 
L 257.709352 171.602376 
L 258.366903 171.602376 
L 258.366903 170.80396 
L 258.62969 170.80396 
L 258.710352 169.207129 
L 258.768688 169.207129 
L 258.768688 157.230891 
L 259.712118 157.230891 
L 259.712118 156.432475 
L 261.085837 156.432475 
L 261.085837 155.634059 
L 261.736355 155.634059 
L 261.811559 154.037228 
L 261.884355 154.037228 
L 261.884355 153.238812 
L 264.270573 153.238812 
L 264.270573 152.440396 
L 264.470904 152.440396 
L 264.470904 151.64198 
L 264.741412 151.64198 
L 264.852152 149.246733 
L 264.971659 149.246733 
L 264.971659 148.448317 
L 265.315374 148.448317 
L 265.315374 147.649901 
L 265.517807 147.649901 
L 265.517807 146.851485 
L 265.810327 146.851485 
L 265.815929 145.254653 
L 265.946171 145.254653 
L 265.99099 143.657822 
L 266.120142 143.657822 
L 266.19263 140.464158 
L 266.253347 140.464158 
L 266.340803 138.068911 
L 266.454545 138.068911 
L 266.454545 137.270495 
L 266.584524 137.270495 
L 266.584524 136.472079 
L 266.754615 136.472079 
L 266.754615 135.673663 
L 266.872724 135.673663 
L 266.938113 134.076832 
L 267.109077 134.076832 
L 267.109077 133.278416 
L 267.233272 133.278416 
L 267.233272 132.48 
L 267.45581 132.48 
L 267.493229 130.883168 
L 267.621648 130.883168 
L 267.693609 128.487921 
L 267.984961 128.487921 
L 268.064838 126.891089 
L 268.367464 126.891089 
L 268.42698 124.495842 
L 268.625018 124.495842 
L 268.70467 122.100594 
L 269.175815 122.100594 
L 269.256831 118.906931 
L 269.295197 118.906931 
L 269.374592 115.713267 
L 269.434901 115.713267 
L 269.479556 114.116436 
L 269.811183 114.116436 
L 269.851419 111.721188 
L 270.080805 111.721188 
L 270.187363 110.124356 
L 270.217284 110.124356 
L 270.219393 108.527525 
L 270.844209 108.527525 
L 270.89292 106.930693 
L 271.086019 106.930693 
L 271.120005 105.333861 
L 271.364249 105.333861 
L 271.364249 104.535446 
L 271.510139 104.535446 
L 271.602475 102.140198 
L 271.684856 102.140198 
L 271.684856 101.341782 
L 272.087054 101.341782 
L 272.087054 100.543366 
L 272.325706 100.543366 
L 272.337968 98.946535 
L 273.162009 98.946535 
L 273.247062 95.752871 
L 273.394321 95.752871 
L 273.394321 94.954455 
L 273.540594 94.954455 
L 273.540594 94.15604 
L 273.937659 94.15604 
L 274.012066 92.559208 
L 274.222906 92.559208 
L 274.304913 90.962376 
L 274.442953 90.962376 
L 274.442953 90.16396 
L 274.855215 90.16396 
L 274.855215 89.365545 
L 275.156382 89.365545 
L 275.156382 88.567129 
L 275.330571 88.567129 
L 275.330571 87.768713 
L 276.084744 87.768713 
L 276.084744 86.970297 
L 276.447997 86.970297 
L 276.543458 85.373465 
L 276.707371 85.373465 
L 276.810918 83.776634 
L 277.574992 83.776634 
L 277.574992 82.978218 
L 278.016336 82.978218 
L 278.016336 82.179802 
L 278.570452 82.179802 
L 278.570452 81.381386 
L 278.97515 81.381386 
L 278.97515 80.58297 
L 279.659844 80.58297 
L 279.736715 78.187723 
L 279.85562 78.187723 
L 279.885685 76.590891 
L 280.786795 76.590891 
L 280.892818 74.195644 
L 280.972011 74.195644 
L 280.972011 73.397228 
L 281.386755 73.397228 
L 281.386755 72.598812 
L 281.708205 72.598812 
L 281.708205 71.800396 
L 282.473079 71.800396 
L 282.473079 71.00198 
L 282.984917 71.00198 
L 282.984917 70.203564 
L 283.260498 70.203564 
L 283.260498 69.405149 
L 283.620359 69.405149 
L 283.716264 67.808317 
L 284.046149 67.808317 
L 284.046149 67.009901 
L 284.377909 67.009901 
L 284.377909 66.211485 
L 284.644167 66.211485 
L 284.644167 65.413069 
L 286.57124 65.413069 
L 286.57124 64.614653 
L 286.941848 64.614653 
L 286.941848 63.816238 
L 288.588394 63.816238 
L 288.588394 63.017822 
L 288.807115 63.017822 
L 288.807115 62.219406 
L 289.305747 62.219406 
L 289.407275 60.622574 
L 292.415603 60.622574 
L 292.415603 59.824158 
L 292.558462 59.824158 
L 292.558462 59.025743 
L 294.33358 59.025743 
L 294.33358 58.227327 
L 295.970935 58.227327 
L 295.970935 57.428911 
L 296.284184 57.428911 
L 296.284184 56.630495 
L 298.182016 56.630495 
L 298.182016 55.832079 
L 299.021513 55.832079 
L 299.021513 55.033663 
L 300.982569 55.033663 
L 300.982569 54.235248 
L 301.133839 54.235248 
L 301.133839 53.436832 
L 301.627505 53.436832 
L 301.630654 51.84 
L 303.861923 51.84 
L 303.861923 51.041584 
L 304.104491 51.041584 
L 304.104491 50.243168 
L 304.27993 50.243168 
L 304.27993 49.444752 
L 304.69038 49.444752 
L 304.69038 48.646337 
L 306.103199 48.646337 
L 306.103199 47.847921 
L 306.522685 47.847921 
L 306.522685 47.049505 
L 306.885072 47.049505 
L 306.885072 46.251089 
L 308.721805 46.251089 
L 308.721805 45.452673 
L 308.981769 45.452673 
L 308.981769 44.654257 
L 314.659685 44.654257 
L 314.659685 43.855842 
L 316.374478 43.855842 
L 316.374478 43.057426 
L 317.856818 43.057426 
L 317.856818 42.25901 
L 343.321999 42.25901 
L 343.321999 41.460594 
L 344.241196 41.460594 
L 344.241196 40.662178 
L 344.547175 40.662178 
L 344.547175 39.863762 
L 345.721923 39.863762 
L 345.721923 39.065347 
L 348.179183 39.065347 
L 348.179183 38.266931 
L 349.092562 38.266931 
L 349.092562 37.468515 
L 350.395131 37.468515 
L 350.395131 36.670099 
L 350.725307 36.670099 
L 350.725307 35.871683 
L 351.439839 35.871683 
L 351.439839 35.073267 
L 351.566273 35.073267 
L 351.587288 33.476436 
L 351.925819 33.476436 
L 351.925819 32.67802 
L 352.122075 32.67802 
L 352.122075 31.879604 
L 352.331855 31.879604 
L 352.331855 31.081188 
L 352.463383 31.081188 
L 352.463383 30.282772 
L 352.64617 30.282772 
L 352.64617 29.484356 
L 353.142432 29.484356 
L 353.142432 28.685941 
L 353.25719 28.685941 
L 353.25719 27.887525 
L 354.128169 27.887525 
L 354.199103 26.290693 
L 354.391338 26.290693 
L 354.391338 25.492277 
L 354.932259 25.492277 
L 354.932259 24.693861 
L 356.820159 24.693861 
L 356.93089 23.09703 
L 357.602698 23.09703 
L 357.602698 22.298614 
L 357.733335 22.298614 
L 357.733335 21.500198 
L 360.872735 21.500198 
L 360.872735 20.701782 
L 362.405599 20.701782 
L 362.405599 19.903366 
L 362.857504 19.903366 
L 362.857504 19.10495 
L 363.844124 19.10495 
L 363.844124 18.306535 
L 382.496241 18.306535 
L 382.496241 17.508119 
L 385.906203 17.508119 
L 385.906203 16.709703 
L 387.824076 16.709703 
L 387.824076 15.911287 
L 389.436764 15.911287 
L 389.436764 15.112871 
L 392.013634 15.112871 
L 392.013634 14.314455 
L 394.572185 14.314455 
L 394.572185 13.51604 
L 394.829543 13.51604 
L 394.829543 12.717624 
L 395.119957 12.717624 
L 395.119957 11.919208 
L 395.88758 11.919208 
L 395.88758 11.120792 
L 397.413278 11.120792 
L 397.413278 10.322376 
L 398.702679 10.322376 
L 398.702679 9.52396 
L 402.214292 9.52396 
L 402.299246 7.927129 
L 402.651647 7.927129 
L 402.651647 7.128713 
L 403.281656 7.128713 
L 403.281656 6.330297 
L 403.281656 6.330297 
L 460.8 6.330297 
L 460.8 6.330297 
" clip-path="url(#p6e1216eef6)" style="fill: none; stroke: #00bfbf; stroke-width: 1.5; stroke-linecap: square"/>
   </g>
   <g id="line2d_26">
    <path d="M -1 292.163168 
L -0.110855 292.163168 
L -0.110855 280.186931 
L 69.673257 280.186931 
L 69.673257 279.388515 
L 72.302617 279.388515 
L 72.302617 278.590099 
L 74.694951 278.590099 
L 74.694951 277.791683 
L 83.203047 277.791683 
L 83.203047 276.993267 
L 84.802897 276.993267 
L 84.802897 276.194851 
L 89.541432 276.194851 
L 89.541432 275.396436 
L 91.45173 275.396436 
L 91.45173 274.59802 
L 98.5543 274.59802 
L 98.5543 273.799604 
L 100.040654 273.799604 
L 100.040654 273.001188 
L 100.962764 273.001188 
L 100.962764 272.202772 
L 104.169883 272.202772 
L 104.169883 271.404356 
L 116.468158 271.404356 
L 116.468158 270.605941 
L 120.919548 270.605941 
L 120.919548 269.807525 
L 122.664633 269.807525 
L 122.664633 269.009109 
L 133.732816 269.009109 
L 133.732816 268.210693 
L 141.163411 268.210693 
L 141.163411 267.412277 
L 141.566999 267.412277 
L 141.566999 266.613861 
L 144.116969 266.613861 
L 144.116969 265.815446 
L 145.145397 265.815446 
L 145.145397 265.01703 
L 145.783714 265.01703 
L 145.783714 264.218614 
L 146.552851 264.218614 
L 146.628766 262.621782 
L 148.1716 262.621782 
L 148.1716 261.823366 
L 149.121582 261.823366 
L 149.121582 261.02495 
L 149.718372 261.02495 
L 149.718372 260.226535 
L 151.158312 260.226535 
L 151.158312 259.428119 
L 153.574558 259.428119 
L 153.574558 258.629703 
L 156.722203 258.629703 
L 156.745099 257.032871 
L 157.027405 257.032871 
L 157.027405 256.234455 
L 170.226015 256.234455 
L 170.226015 255.43604 
L 173.828887 255.43604 
L 173.828887 254.637624 
L 178.528751 254.637624 
L 178.567153 253.040792 
L 179.769 253.040792 
L 179.769 252.242376 
L 183.413803 252.242376 
L 183.413803 251.44396 
L 185.260772 251.44396 
L 185.260772 250.645545 
L 185.901403 250.645545 
L 185.901403 249.847129 
L 186.128746 249.847129 
L 186.128746 249.048713 
L 186.478137 249.048713 
L 186.478137 248.250297 
L 188.496276 248.250297 
L 188.496276 247.451881 
L 189.603222 247.451881 
L 189.683684 234.677228 
L 190.763683 234.677228 
L 190.763683 233.878812 
L 192.323159 233.878812 
L 192.323159 233.080396 
L 193.575929 233.080396 
L 193.575929 232.28198 
L 195.489551 232.28198 
L 195.489551 231.483564 
L 198.902795 231.483564 
L 198.902795 230.685149 
L 199.213817 230.685149 
L 199.213817 229.886733 
L 201.007766 229.886733 
L 201.011481 225.894653 
L 201.727819 225.894653 
L 201.727819 225.096238 
L 201.92786 225.096238 
L 201.92786 224.297822 
L 204.149146 224.297822 
L 204.149146 223.499406 
L 204.4178 223.499406 
L 204.439491 221.902574 
L 207.710564 221.902574 
L 207.710564 221.104158 
L 208.074274 221.104158 
L 208.074274 220.305743 
L 210.060968 220.305743 
L 210.060968 219.507327 
L 210.172446 219.507327 
L 210.172446 218.708911 
L 210.590294 218.708911 
L 210.590294 217.910495 
L 210.873298 217.910495 
L 210.980179 216.313663 
L 211.047426 216.313663 
L 211.047426 215.515248 
L 211.443277 215.515248 
L 211.443277 214.716832 
L 211.679065 214.716832 
L 211.77407 213.12 
L 212.083473 213.12 
L 212.083473 212.321584 
L 212.198389 212.321584 
L 212.198389 211.523168 
L 212.580404 211.523168 
L 212.664987 206.732673 
L 212.756253 206.732673 
L 212.839943 204.337426 
L 213.074429 204.337426 
L 213.074429 203.53901 
L 213.225325 203.53901 
L 213.225325 202.740594 
L 213.519402 202.740594 
L 213.519402 201.942178 
L 213.727154 201.942178 
L 213.727154 201.143762 
L 213.906202 201.143762 
L 213.906202 200.345347 
L 214.738204 200.345347 
L 214.738204 199.546931 
L 215.51942 199.546931 
L 215.59688 197.151683 
L 215.716321 197.151683 
L 215.822832 194.756436 
L 215.89364 194.756436 
L 215.89364 193.95802 
L 216.271459 193.95802 
L 216.271459 193.159604 
L 216.494828 193.159604 
L 216.577656 191.562772 
L 216.654411 191.562772 
L 216.709383 189.965941 
L 216.806575 189.965941 
L 216.806575 189.167525 
L 216.924386 189.167525 
L 216.924386 188.369109 
L 217.248223 188.369109 
L 217.248223 187.570693 
L 218.078058 187.570693 
L 218.078058 186.772277 
L 218.517573 186.772277 
L 218.517573 185.973861 
L 219.46542 185.973861 
L 219.57588 184.37703 
L 219.634385 184.37703 
L 219.703321 182.780198 
L 220.14253 182.780198 
L 220.148191 181.183366 
L 220.297255 181.183366 
L 220.297255 180.38495 
L 220.418266 180.38495 
L 220.418266 179.586535 
L 220.672332 179.586535 
L 220.674062 177.989703 
L 221.038254 177.989703 
L 221.119366 175.594455 
L 221.235972 175.594455 
L 221.313371 173.199208 
L 221.848754 173.199208 
L 221.944907 170.80396 
L 222.134014 170.80396 
L 222.134014 170.005545 
L 222.38578 170.005545 
L 222.399692 168.408713 
L 222.631027 168.408713 
L 222.631027 167.610297 
L 222.841561 167.610297 
L 222.841561 166.811881 
L 223.037955 166.811881 
L 223.037955 166.013465 
L 223.209311 166.013465 
L 223.312688 164.416634 
L 223.98224 164.416634 
L 223.98224 163.618218 
L 224.434101 163.618218 
L 224.434101 162.819802 
L 225.080217 162.819802 
L 225.080217 162.021386 
L 225.526959 162.021386 
L 225.526959 161.22297 
L 226.054561 161.22297 
L 226.11845 159.626139 
L 226.234026 159.626139 
L 226.234026 158.827723 
L 226.347738 158.827723 
L 226.347738 158.029307 
L 226.46254 158.029307 
L 226.46254 157.230891 
L 226.776022 157.230891 
L 226.776022 156.432475 
L 227.214972 156.432475 
L 227.214972 155.634059 
L 228.136425 155.634059 
L 228.136425 154.835644 
L 228.675391 154.835644 
L 228.675391 154.037228 
L 228.887798 154.037228 
L 228.887798 153.238812 
L 229.245095 153.238812 
L 229.268001 151.64198 
L 229.412519 151.64198 
L 229.412519 150.843564 
L 229.689868 150.843564 
L 229.689868 150.045149 
L 229.865679 150.045149 
L 229.973996 148.448317 
L 230.172673 148.448317 
L 230.172673 147.649901 
L 231.800395 147.649901 
L 231.800395 146.851485 
L 232.44621 146.851485 
L 232.44621 146.053069 
L 232.737163 146.053069 
L 232.737163 145.254653 
L 233.370596 145.254653 
L 233.430935 143.657822 
L 234.561265 143.657822 
L 234.602614 142.06099 
L 235.322906 142.06099 
L 235.322906 141.262574 
L 235.697919 141.262574 
L 235.704005 139.665743 
L 236.162232 139.665743 
L 236.162232 138.867327 
L 236.445437 138.867327 
L 236.507354 137.270495 
L 236.700004 137.270495 
L 236.730369 135.673663 
L 236.836134 135.673663 
L 236.847752 134.076832 
L 236.976018 134.076832 
L 237.001194 131.681584 
L 237.147286 131.681584 
L 237.147286 130.883168 
L 237.258435 130.883168 
L 237.297739 128.487921 
L 237.376787 128.487921 
L 237.417013 126.891089 
L 237.510751 126.891089 
L 237.510751 126.092673 
L 237.852053 126.092673 
L 237.907757 123.697426 
L 237.966639 123.697426 
L 238.02382 121.302178 
L 238.169905 121.302178 
L 238.183109 119.705347 
L 238.81441 119.705347 
L 238.81441 118.906931 
L 239.096731 118.906931 
L 239.127901 117.310099 
L 239.21814 117.310099 
L 239.21814 116.511683 
L 239.436445 116.511683 
L 239.437922 114.914851 
L 240.105859 114.914851 
L 240.105859 114.116436 
L 241.020219 114.116436 
L 241.020219 113.31802 
L 241.166795 113.31802 
L 241.183202 111.721188 
L 241.559322 111.721188 
L 241.559322 110.922772 
L 241.756847 110.922772 
L 241.756847 110.124356 
L 242.511761 110.124356 
L 242.511761 109.325941 
L 243.595419 109.325941 
L 243.621994 107.729109 
L 244.473538 107.729109 
L 244.540674 105.333861 
L 245.320116 105.333861 
L 245.384874 103.73703 
L 245.576885 103.73703 
L 245.576885 102.938614 
L 245.783746 102.938614 
L 245.783746 102.140198 
L 246.964477 102.140198 
L 246.964477 101.341782 
L 247.219825 101.341782 
L 247.287795 99.74495 
L 248.810751 99.74495 
L 248.834786 98.148119 
L 248.943071 98.148119 
L 249.017055 95.752871 
L 249.23712 95.752871 
L 249.23712 94.954455 
L 249.641026 94.954455 
L 249.641026 94.15604 
L 249.950339 94.15604 
L 249.950339 93.357624 
L 250.294183 93.357624 
L 250.294183 92.559208 
L 250.500122 92.559208 
L 250.500122 91.760792 
L 251.120316 91.760792 
L 251.120316 90.962376 
L 251.477511 90.962376 
L 251.477511 90.16396 
L 252.01229 90.16396 
L 252.01229 89.365545 
L 252.239707 89.365545 
L 252.239707 88.567129 
L 252.371506 88.567129 
L 252.371506 87.768713 
L 252.837854 87.768713 
L 252.837854 86.970297 
L 253.382518 86.970297 
L 253.382518 86.171881 
L 253.712908 86.171881 
L 253.712908 85.373465 
L 253.889669 85.373465 
L 253.889669 84.57505 
L 254.104219 84.57505 
L 254.104219 83.776634 
L 254.596119 83.776634 
L 254.596119 82.978218 
L 254.838225 82.978218 
L 254.838225 82.179802 
L 255.43908 82.179802 
L 255.43908 81.381386 
L 255.688814 81.381386 
L 255.703104 79.784554 
L 256.015105 79.784554 
L 256.015105 78.986139 
L 256.200466 78.986139 
L 256.200466 78.187723 
L 256.632843 78.187723 
L 256.632843 77.389307 
L 256.955546 77.389307 
L 256.955546 76.590891 
L 257.600904 76.590891 
L 257.600904 75.792475 
L 258.124119 75.792475 
L 258.124119 74.994059 
L 258.269528 74.994059 
L 258.358735 72.598812 
L 258.705656 72.598812 
L 258.705656 71.800396 
L 258.937291 71.800396 
L 258.937291 71.00198 
L 259.071791 71.00198 
L 259.182767 69.405149 
L 259.362887 69.405149 
L 259.456686 67.808317 
L 259.682885 67.808317 
L 259.734002 65.413069 
L 259.88892 65.413069 
L 259.902594 63.816238 
L 260.039085 63.816238 
L 260.134 62.219406 
L 260.269211 62.219406 
L 260.365084 59.824158 
L 260.481984 59.824158 
L 260.529426 58.227327 
L 260.827483 58.227327 
L 260.827483 57.428911 
L 260.94541 57.428911 
L 261.003407 55.832079 
L 261.068668 55.832079 
L 261.097273 53.436832 
L 261.228573 53.436832 
L 261.229584 51.84 
L 261.351259 51.84 
L 261.351259 51.041584 
L 261.473547 51.041584 
L 261.477306 49.444752 
L 261.736355 49.444752 
L 261.736355 48.646337 
L 261.887454 48.646337 
L 261.887454 47.847921 
L 262.067414 47.847921 
L 262.173548 46.251089 
L 262.465113 46.251089 
L 262.465113 45.452673 
L 263.248021 45.452673 
L 263.248021 44.654257 
L 263.681895 44.654257 
L 263.681895 43.855842 
L 264.442469 43.855842 
L 264.470904 42.25901 
L 266.253347 42.25901 
L 266.253347 41.460594 
L 266.872724 41.460594 
L 266.872724 40.662178 
L 268.064838 40.662178 
L 268.064838 39.863762 
L 268.631195 39.863762 
L 268.70467 38.266931 
L 268.872784 38.266931 
L 268.872784 37.468515 
L 269.191654 37.468515 
L 269.191654 36.670099 
L 270.003588 36.670099 
L 270.003588 35.871683 
L 270.931441 35.871683 
L 270.931441 35.073267 
L 271.14471 35.073267 
L 271.14471 34.274851 
L 272.087054 34.274851 
L 272.087054 33.476436 
L 272.337968 33.476436 
L 272.337968 32.67802 
L 276.707371 32.67802 
L 276.810918 31.081188 
L 281.97304 31.081188 
L 281.97304 30.282772 
L 297.865886 30.282772 
L 297.865886 29.484356 
L 299.051046 29.484356 
L 299.051046 28.685941 
L 301.542858 28.685941 
L 301.542858 27.887525 
L 302.002677 27.887525 
L 302.002677 27.089109 
L 304.322591 27.089109 
L 304.412067 25.492277 
L 305.355413 25.492277 
L 305.355413 24.693861 
L 305.778976 24.693861 
L 305.778976 23.895446 
L 305.91237 23.895446 
L 305.91237 23.09703 
L 306.477109 23.09703 
L 306.477109 22.298614 
L 307.191358 22.298614 
L 307.191358 21.500198 
L 307.535473 21.500198 
L 307.535473 20.701782 
L 307.952833 20.701782 
L 307.952833 19.903366 
L 308.167699 19.903366 
L 308.167699 19.10495 
L 308.443321 19.10495 
L 308.443321 18.306535 
L 309.136134 18.306535 
L 309.136134 17.508119 
L 309.309472 17.508119 
L 309.309472 16.709703 
L 309.729712 16.709703 
L 309.729712 15.911287 
L 310.020807 15.911287 
L 310.020807 15.112871 
L 310.452315 15.112871 
L 310.452315 14.314455 
L 311.055483 14.314455 
L 311.055483 13.51604 
L 312.919653 13.51604 
L 312.919653 12.717624 
L 314.278924 12.717624 
L 314.278924 11.919208 
L 315.358022 11.919208 
L 315.358022 11.120792 
L 316.528005 11.120792 
L 316.528005 10.322376 
L 316.93928 10.322376 
L 316.93928 9.52396 
L 318.736553 9.52396 
L 318.736553 8.725545 
L 322.754764 8.725545 
L 322.754764 7.927129 
L 324.097308 7.927129 
L 324.097308 7.128713 
L 328.756548 7.128713 
L 328.756548 6.330297 
L 328.756548 6.330297 
L 460.8 6.330297 
L 460.8 6.330297 
" clip-path="url(#p6e1216eef6)" style="fill: none; stroke: #bf00bf; stroke-width: 1.5; stroke-linecap: square"/>
   </g>
   <g id="line2d_27">
    <path d="M -1 258.629703 
L -0.887861 258.629703 
L -0.813316 257.032871 
L -0.744385 257.032871 
L -0.666637 254.637624 
L -0.545183 254.637624 
L -0.545183 253.839208 
L -0.430903 253.839208 
L -0.330104 250.645545 
L -0.318428 250.645545 
L -0.219896 245.85505 
L -0.202343 245.85505 
L -0.110855 226.693069 
L 19.392628 226.693069 
L 19.392628 225.894653 
L 20.078122 225.894653 
L 20.078122 225.096238 
L 34.751055 225.096238 
L 34.751055 224.297822 
L 39.339122 224.297822 
L 39.339122 223.499406 
L 39.874844 223.499406 
L 39.874844 222.70099 
L 46.955034 222.70099 
L 46.955034 221.902574 
L 52.794263 221.902574 
L 52.794263 221.104158 
L 53.145588 221.104158 
L 53.145588 220.305743 
L 59.127337 220.305743 
L 59.127337 219.507327 
L 59.93661 219.507327 
L 59.93661 218.708911 
L 80.025932 218.708911 
L 80.025932 217.910495 
L 80.39636 217.910495 
L 80.39636 217.112079 
L 85.056919 217.112079 
L 85.056919 216.313663 
L 85.649471 216.313663 
L 85.649471 215.515248 
L 88.242871 215.515248 
L 88.242871 214.716832 
L 90.281079 214.716832 
L 90.281079 213.918416 
L 95.455214 213.918416 
L 95.455214 213.12 
L 96.685793 213.12 
L 96.685793 212.321584 
L 98.229998 212.321584 
L 98.229998 211.523168 
L 99.32885 211.523168 
L 99.32885 210.724752 
L 100.814685 210.724752 
L 100.814685 209.926337 
L 101.182513 209.926337 
L 101.182513 209.127921 
L 101.75263 209.127921 
L 101.75263 208.329505 
L 107.872551 208.329505 
L 107.872551 207.531089 
L 109.151651 207.531089 
L 109.151651 206.732673 
L 110.049292 206.732673 
L 110.049292 205.934257 
L 111.167291 205.934257 
L 111.167291 205.135842 
L 112.994204 205.135842 
L 112.994204 204.337426 
L 115.026732 204.337426 
L 115.026732 203.53901 
L 115.468008 203.53901 
L 115.468008 202.740594 
L 122.956335 202.740594 
L 122.956335 201.942178 
L 123.139279 201.942178 
L 123.139279 201.143762 
L 123.2853 201.143762 
L 123.2853 200.345347 
L 126.190804 200.345347 
L 126.190804 199.546931 
L 126.330971 199.546931 
L 126.330971 198.748515 
L 129.218954 198.748515 
L 129.218954 197.950099 
L 131.187297 197.950099 
L 131.187297 197.151683 
L 140.419199 197.151683 
L 140.419199 196.353267 
L 141.598221 196.353267 
L 141.598221 195.554851 
L 142.250966 195.554851 
L 142.250966 194.756436 
L 142.651586 194.756436 
L 142.651586 193.95802 
L 143.532137 193.95802 
L 143.532137 193.159604 
L 143.944815 193.159604 
L 143.944815 192.361188 
L 145.140127 192.361188 
L 145.140127 191.562772 
L 146.375879 191.562772 
L 146.455529 189.965941 
L 147.099407 189.965941 
L 147.099407 189.167525 
L 148.768904 189.167525 
L 148.768904 188.369109 
L 149.380583 188.369109 
L 149.380583 187.570693 
L 154.571073 187.570693 
L 154.571073 186.772277 
L 156.425128 186.772277 
L 156.425128 185.973861 
L 159.083034 185.973861 
L 159.083034 185.175446 
L 160.482574 185.175446 
L 160.482574 184.37703 
L 161.594504 184.37703 
L 161.594504 183.578614 
L 163.570038 183.578614 
L 163.570038 182.780198 
L 163.845629 182.780198 
L 163.845629 181.981782 
L 164.502519 181.981782 
L 164.562041 180.38495 
L 165.560794 180.38495 
L 165.560794 179.586535 
L 167.700254 179.586535 
L 167.700254 178.788119 
L 170.018228 178.788119 
L 170.018228 177.989703 
L 174.364163 177.989703 
L 174.364163 177.191287 
L 178.440473 177.191287 
L 178.440473 176.392871 
L 179.23712 176.392871 
L 179.23712 175.594455 
L 180.018058 175.594455 
L 180.077707 173.997624 
L 180.550734 173.997624 
L 180.614901 172.400792 
L 182.586012 172.400792 
L 182.618436 170.80396 
L 182.891188 170.80396 
L 182.891188 170.005545 
L 183.580936 170.005545 
L 183.580936 169.207129 
L 184.221396 169.207129 
L 184.221396 168.408713 
L 184.590877 168.408713 
L 184.590877 167.610297 
L 185.844795 167.610297 
L 185.844795 166.811881 
L 186.14279 166.811881 
L 186.14279 166.013465 
L 186.453193 166.013465 
L 186.453193 165.21505 
L 187.049746 165.21505 
L 187.049746 164.416634 
L 187.567483 164.416634 
L 187.567483 163.618218 
L 187.776181 163.618218 
L 187.848868 162.021386 
L 189.653708 162.021386 
L 189.683684 149.246733 
L 189.851448 149.246733 
L 189.851448 148.448317 
L 190.140382 148.448317 
L 190.140382 147.649901 
L 190.821863 147.649901 
L 190.821863 146.851485 
L 191.052218 146.851485 
L 191.052218 146.053069 
L 192.064103 146.053069 
L 192.064103 145.254653 
L 192.306937 145.254653 
L 192.306937 144.456238 
L 193.683967 144.456238 
L 193.683967 143.657822 
L 194.466937 143.657822 
L 194.466937 142.859406 
L 195.122939 142.859406 
L 195.190127 141.262574 
L 195.723091 141.262574 
L 195.7828 139.665743 
L 196.591022 139.665743 
L 196.663863 138.068911 
L 196.766589 138.068911 
L 196.766589 137.270495 
L 196.892569 137.270495 
L 196.892569 136.472079 
L 197.591395 136.472079 
L 197.701926 134.875248 
L 198.581319 134.875248 
L 198.581319 134.076832 
L 198.804752 134.076832 
L 198.804752 133.278416 
L 199.080373 133.278416 
L 199.080373 132.48 
L 201.007537 132.48 
L 201.007537 126.891089 
L 202.157099 126.891089 
L 202.158429 125.294257 
L 202.459826 125.294257 
L 202.459826 124.495842 
L 203.515528 124.495842 
L 203.515528 123.697426 
L 203.731552 123.697426 
L 203.731552 122.89901 
L 204.503416 122.89901 
L 204.551009 121.302178 
L 205.004812 121.302178 
L 205.069094 119.705347 
L 205.283098 119.705347 
L 205.370599 118.108515 
L 205.402438 118.108515 
L 205.402438 117.310099 
L 207.215802 117.310099 
L 207.215802 116.511683 
L 207.653007 116.511683 
L 207.653007 115.713267 
L 207.770798 115.713267 
L 207.770798 114.914851 
L 207.974155 114.914851 
L 207.975182 113.31802 
L 208.253548 113.31802 
L 208.30913 111.721188 
L 209.02871 111.721188 
L 209.02871 110.922772 
L 209.279526 110.922772 
L 209.279526 110.124356 
L 209.468712 110.124356 
L 209.468712 109.325941 
L 209.628499 109.325941 
L 209.628499 108.527525 
L 209.869147 108.527525 
L 209.869147 107.729109 
L 209.991571 107.729109 
L 210.08723 105.333861 
L 210.202648 105.333861 
L 210.202648 104.535446 
L 210.477278 104.535446 
L 210.477278 103.73703 
L 210.679454 103.73703 
L 210.745876 102.140198 
L 211.039591 102.140198 
L 211.12661 99.74495 
L 211.306355 99.74495 
L 211.306355 98.946535 
L 211.447099 98.946535 
L 211.527812 97.349703 
L 211.678696 97.349703 
L 211.678696 96.551287 
L 211.880175 96.551287 
L 211.935058 94.15604 
L 212.116945 94.15604 
L 212.175749 91.760792 
L 212.580292 91.760792 
L 212.580292 88.567129 
L 213.017845 88.567129 
L 213.074426 86.171881 
L 213.24465 86.171881 
L 213.337985 84.57505 
L 213.520924 84.57505 
L 213.60465 82.978218 
L 214.263683 82.978218 
L 214.263683 82.179802 
L 214.694933 82.179802 
L 214.694933 81.381386 
L 214.869222 81.381386 
L 214.869222 80.58297 
L 215.198751 80.58297 
L 215.292999 78.187723 
L 215.716221 78.187723 
L 215.716221 76.590891 
L 216.220903 76.590891 
L 216.221818 74.994059 
L 216.742559 74.994059 
L 216.742559 74.195644 
L 217.108876 74.195644 
L 217.108876 73.397228 
L 217.244944 73.397228 
L 217.244944 72.598812 
L 217.416954 72.598812 
L 217.416954 71.800396 
L 218.448293 71.800396 
L 218.448293 71.00198 
L 219.136609 71.00198 
L 219.136609 70.203564 
L 219.604025 70.203564 
L 219.683375 68.606733 
L 219.933505 68.606733 
L 219.933505 67.808317 
L 220.518776 67.808317 
L 220.518776 67.009901 
L 222.069022 67.009901 
L 222.069022 66.211485 
L 222.336913 66.211485 
L 222.385241 64.614653 
L 222.791186 64.614653 
L 222.791186 63.816238 
L 223.181028 63.816238 
L 223.18103 61.42099 
L 224.421303 61.42099 
L 224.421303 60.622574 
L 225.468294 60.622574 
L 225.5269 59.025743 
L 227.341919 59.025743 
L 227.341919 58.227327 
L 228.449015 58.227327 
L 228.449015 57.428911 
L 229.244951 57.428911 
L 229.244951 56.630495 
L 229.53426 56.630495 
L 229.53426 55.832079 
L 229.689822 55.832079 
L 229.689822 55.033663 
L 233.63103 55.033663 
L 233.63103 54.235248 
L 233.750172 54.235248 
L 233.750172 53.436832 
L 234.456658 53.436832 
L 234.456658 52.638416 
L 235.225295 52.638416 
L 235.225303 48.646337 
L 235.918566 48.646337 
L 235.944314 43.855842 
L 236.619722 43.855842 
L 236.644067 39.863762 
L 237.858874 39.863762 
L 237.866948 38.266931 
L 238.430323 38.266931 
L 238.430329 35.073267 
L 239.436228 35.073267 
L 239.492165 31.879604 
L 239.987394 31.879604 
L 239.987394 30.282772 
L 240.461543 30.282772 
L 240.461545 28.685941 
L 240.6255 28.685941 
L 240.6255 27.887525 
L 240.916329 27.887525 
L 240.916329 27.089109 
L 241.773752 27.089109 
L 241.773752 26.290693 
L 242.178915 26.290693 
L 242.178915 25.492277 
L 242.569863 25.492277 
L 242.569863 23.895446 
L 242.730512 23.895446 
L 242.730512 23.09703 
L 242.947558 23.09703 
L 242.947558 22.298614 
L 243.666563 22.298614 
L 243.70117 19.903366 
L 244.664922 19.903366 
L 244.664922 19.10495 
L 244.931575 19.10495 
L 244.931575 18.306535 
L 245.28402 18.306535 
L 245.28402 17.508119 
L 245.870509 17.508119 
L 245.870509 16.709703 
L 246.057414 16.709703 
L 246.057414 15.911287 
L 246.42767 15.911287 
L 246.42767 15.112871 
L 248.183753 15.112871 
L 248.288906 13.51604 
L 249.322008 13.51604 
L 249.322008 12.717624 
L 249.45825 12.717624 
L 249.45825 11.919208 
L 249.810088 11.919208 
L 249.810088 11.120792 
L 251.403212 11.120792 
L 251.403212 10.322376 
L 252.845321 10.322376 
L 252.845321 9.52396 
L 254.58049 9.52396 
L 254.58049 8.725545 
L 256.851374 8.725545 
L 256.907306 7.128713 
L 257.387512 7.128713 
L 257.387512 6.330297 
L 257.387512 6.330297 
L 460.8 6.330297 
L 460.8 6.330297 
" clip-path="url(#p6e1216eef6)" style="fill: none; stroke: #000000; stroke-width: 1.5; stroke-linecap: square"/>
   </g>
   <g id="line2d_28">
    <path d="M -1 163.618218 
L -0.930313 163.618218 
L -0.887861 162.021386 
L -0.813316 162.021386 
L -0.736955 158.827723 
L -0.666637 158.827723 
L -0.581391 157.230891 
L -0.545183 157.230891 
L -0.460172 154.037228 
L -0.431876 154.037228 
L -0.330104 148.448317 
L -0.318428 148.448317 
L -0.219896 141.262574 
L -0.205544 141.262574 
L -0.110855 118.906931 
L 37.911872 118.906931 
L 37.911872 118.108515 
L 45.923328 118.108515 
L 45.923328 117.310099 
L 46.17366 117.310099 
L 46.17366 116.511683 
L 65.941823 116.511683 
L 65.941823 115.713267 
L 66.107088 115.713267 
L 66.107088 114.914851 
L 106.192307 114.914851 
L 106.192307 114.116436 
L 139.709634 114.116436 
L 139.709634 113.31802 
L 142.20513 113.31802 
L 142.20513 112.519604 
L 144.190875 112.519604 
L 144.190875 110.124356 
L 149.089223 110.124356 
L 149.089223 109.325941 
L 154.045489 109.325941 
L 154.045489 108.527525 
L 161.210494 108.527525 
L 161.210494 107.729109 
L 164.018615 107.729109 
L 164.018615 106.930693 
L 167.785168 106.930693 
L 167.785168 106.132277 
L 170.312637 106.132277 
L 170.312637 105.333861 
L 171.263868 105.333861 
L 171.263868 104.535446 
L 177.080739 104.535446 
L 177.080739 103.73703 
L 178.00236 103.73703 
L 178.00236 102.938614 
L 178.370009 102.938614 
L 178.370009 102.140198 
L 179.015316 102.140198 
L 179.015316 101.341782 
L 179.23712 101.341782 
L 179.23712 100.543366 
L 179.786276 100.543366 
L 179.786276 99.74495 
L 182.891179 99.74495 
L 182.891179 98.946535 
L 183.553687 98.946535 
L 183.553687 98.148119 
L 184.590877 98.148119 
L 184.698629 96.551287 
L 185.703991 96.551287 
L 185.703991 95.752871 
L 187.820638 95.752871 
L 187.820638 94.954455 
L 189.622339 94.954455 
L 189.683684 85.373465 
L 190.185872 85.373465 
L 190.185872 84.57505 
L 198.506416 84.57505 
L 198.506416 83.776634 
L 200.504099 83.776634 
L 200.504099 82.978218 
L 201.007537 82.978218 
L 201.007537 74.195644 
L 201.611412 74.195644 
L 201.611412 73.397228 
L 204.157311 73.397228 
L 204.157311 72.598812 
L 204.853831 72.598812 
L 204.853831 71.800396 
L 205.055265 71.800396 
L 205.055265 70.203564 
L 205.264731 70.203564 
L 205.264731 69.405149 
L 205.40276 69.405149 
L 205.509533 67.808317 
L 206.027805 67.808317 
L 206.027805 67.009901 
L 206.327514 67.009901 
L 206.327514 66.211485 
L 206.619477 66.211485 
L 206.619477 65.413069 
L 206.904264 65.413069 
L 206.904264 64.614653 
L 207.540637 64.614653 
L 207.540637 63.816238 
L 207.770798 63.816238 
L 207.770798 63.017822 
L 208.059041 63.017822 
L 208.059041 62.219406 
L 208.950856 62.219406 
L 208.950856 61.42099 
L 210.778146 61.42099 
L 210.778146 60.622574 
L 211.678696 60.622574 
L 211.678696 59.025743 
L 212.092854 59.025743 
L 212.092854 58.227327 
L 212.481506 58.227327 
L 212.580292 55.033663 
L 212.777529 55.033663 
L 212.777529 52.638416 
L 213.074426 52.638416 
L 213.074426 51.84 
L 213.234531 51.84 
L 213.234531 51.041584 
L 215.198751 51.041584 
L 215.198751 50.243168 
L 215.716221 50.243168 
L 215.716221 47.847921 
L 217.294763 47.847921 
L 217.294763 44.654257 
L 220.499792 44.654257 
L 220.499792 43.855842 
L 222.385241 43.855842 
L 222.385241 43.057426 
L 223.181028 43.057426 
L 223.181028 41.460594 
L 224.512045 41.460594 
L 224.512045 40.662178 
L 225.017026 40.662178 
L 225.017026 39.065347 
L 226.734399 39.065347 
L 226.734399 35.073267 
L 228.222055 35.073267 
L 228.222055 33.476436 
L 229.534254 33.476436 
L 229.53426 29.484356 
L 230.708063 29.484356 
L 230.708063 28.685941 
L 231.769907 28.685941 
L 231.769907 27.887525 
L 232.567366 27.887525 
L 232.567366 27.089109 
L 232.739289 27.089109 
L 232.739289 25.492277 
L 233.631035 25.492277 
L 233.631035 24.693861 
L 234.456662 24.693861 
L 234.456662 23.895446 
L 235.225299 23.895446 
L 235.225303 21.500198 
L 235.337638 21.500198 
L 235.394769 19.903366 
L 235.944314 19.903366 
L 236.011066 18.306535 
L 236.318711 18.306535 
L 236.318711 17.508119 
L 236.619726 17.508119 
L 236.620094 15.112871 
L 239.364968 15.112871 
L 239.475351 12.717624 
L 240.097704 12.717624 
L 240.11944 11.120792 
L 240.491423 11.120792 
L 240.491423 10.322376 
L 240.718775 10.322376 
L 240.718775 9.52396 
L 240.907268 9.52396 
L 240.907268 8.725545 
L 241.576877 8.725545 
L 241.576877 7.927129 
L 241.893955 7.927129 
L 241.893955 7.128713 
L 242.627282 7.128713 
L 242.627282 6.330297 
L 242.627282 6.330297 
L 460.8 6.330297 
L 460.8 6.330297 
" clip-path="url(#p6e1216eef6)" style="fill: none; stroke: #00bfbf; stroke-width: 1.5; stroke-linecap: square"/>
   </g>
   <g id="line2d_29">
    <path d="M -1 142.06099 
L -0.930313 142.06099 
L -0.887861 140.464158 
L -0.813316 140.464158 
L -0.736955 137.270495 
L -0.666637 137.270495 
L -0.581391 135.673663 
L -0.545183 135.673663 
L -0.460172 132.48 
L -0.431876 132.48 
L -0.330104 126.891089 
L -0.318428 126.891089 
L -0.219896 119.705347 
L -0.205544 119.705347 
L -0.110855 97.349703 
L 135.198662 97.349703 
L 135.198662 96.551287 
L 158.28783 96.551287 
L 158.28783 95.752871 
L 161.210494 95.752871 
L 161.210494 94.954455 
L 163.362228 94.954455 
L 163.362228 94.15604 
L 164.018615 94.15604 
L 164.018615 93.357624 
L 165.281658 93.357624 
L 165.281658 92.559208 
L 165.659075 92.559208 
L 165.659075 91.760792 
L 166.071418 91.760792 
L 166.071418 90.962376 
L 166.423716 90.962376 
L 166.47319 89.365545 
L 166.721125 89.365545 
L 166.800234 87.768713 
L 166.878936 87.768713 
L 166.878936 86.970297 
L 167.767046 86.970297 
L 167.785168 85.373465 
L 167.909814 85.373465 
L 167.909814 84.57505 
L 168.525332 84.57505 
L 168.525332 83.776634 
L 169.070972 83.776634 
L 169.070972 82.978218 
L 170.312637 82.978218 
L 170.312637 82.179802 
L 171.263868 82.179802 
L 171.263868 81.381386 
L 178.00236 81.381386 
L 178.00236 80.58297 
L 179.015316 80.58297 
L 179.015316 79.784554 
L 179.23712 79.784554 
L 179.23712 78.986139 
L 179.786276 78.986139 
L 179.786276 78.187723 
L 182.891179 78.187723 
L 182.891179 77.389307 
L 183.553687 77.389307 
L 183.553687 76.590891 
L 184.590877 76.590891 
L 184.590877 75.792475 
L 185.861283 75.792475 
L 185.861283 74.994059 
L 187.820638 74.994059 
L 187.820638 74.195644 
L 191.174685 74.195644 
L 191.174685 73.397228 
L 191.552325 73.397228 
L 191.552325 72.598812 
L 193.269742 72.598812 
L 193.269742 71.00198 
L 193.583546 71.00198 
L 193.583546 70.203564 
L 194.757431 70.203564 
L 194.757431 69.405149 
L 194.937855 69.405149 
L 195.032488 67.808317 
L 195.300919 67.808317 
L 195.359459 66.211485 
L 196.554054 66.211485 
L 196.554054 65.413069 
L 196.788575 65.413069 
L 196.788575 64.614653 
L 198.506084 64.614653 
L 198.506084 63.816238 
L 199.993651 63.816238 
L 199.993651 63.017822 
L 201.007537 63.017822 
L 201.007537 52.638416 
L 201.937629 52.638416 
L 201.937629 51.84 
L 207.555215 51.84 
L 207.555215 51.041584 
L 207.770798 51.041584 
L 207.770798 50.243168 
L 209.957088 50.243168 
L 209.957088 49.444752 
L 211.678696 49.444752 
L 211.678696 48.646337 
L 212.481506 48.646337 
L 212.580292 46.251089 
L 212.830404 46.251089 
L 212.830404 45.452673 
L 213.234531 45.452673 
L 213.234531 44.654257 
L 213.475822 44.654257 
L 213.475822 43.855842 
L 215.716221 43.855842 
L 215.716221 42.25901 
L 220.499792 42.25901 
L 220.499792 40.662178 
L 222.985805 40.662178 
L 222.985805 35.073267 
L 223.181028 35.073267 
L 223.181028 33.476436 
L 224.512045 33.476436 
L 224.512045 32.67802 
L 225.017026 32.67802 
L 225.017026 29.484356 
L 226.734399 29.484356 
L 226.734399 27.887525 
L 227.280173 27.887525 
L 227.280173 27.089109 
L 231.769907 27.089109 
L 231.769907 26.290693 
L 232.567366 26.290693 
L 232.567366 25.492277 
L 232.739289 25.492277 
L 232.739289 23.895446 
L 233.631035 23.895446 
L 233.631035 21.500198 
L 234.456662 21.500198 
L 234.456662 18.306535 
L 235.225299 18.306535 
L 235.225299 16.709703 
L 235.944314 16.709703 
L 235.944314 14.314455 
L 236.318711 14.314455 
L 236.318711 13.51604 
L 238.69071 13.51604 
L 238.77546 8.725545 
L 238.918615 8.725545 
L 238.981811 6.330297 
L 238.981811 6.330297 
L 460.8 6.330297 
L 460.8 6.330297 
" clip-path="url(#p6e1216eef6)" style="fill: none; stroke: #bf00bf; stroke-width: 1.5; stroke-linecap: square"/>
   </g>
   <g id="patch_3">
    <path d="M 0 293.76 
L 0 3.456 
" style="fill: none; stroke: #000000; stroke-width: 0.8; stroke-linejoin: miter; stroke-linecap: square"/>
   </g>
   <g id="patch_4">
    <path d="M 460.8 293.76 
L 460.8 3.456 
" style="fill: none; stroke: #000000; stroke-width: 0.8; stroke-linejoin: miter; stroke-linecap: square"/>
   </g>
   <g id="patch_5">
    <path d="M 0 293.76 
L 460.8 293.76 
" style="fill: none; stroke: #000000; stroke-width: 0.8; stroke-linejoin: miter; stroke-linecap: square"/>
   </g>
   <g id="patch_6">
    <path d="M 0 3.456 
L 460.8 3.456 
" style="fill: none; stroke: #000000; stroke-width: 0.8; stroke-linejoin: miter; stroke-linecap: square"/>
   </g>
   <g id="text_6">
    <!-- {f1-f24}, 20-D -->
    <g transform="translate(305.884 287.95392)scale(0.2 -0.2)">
     <defs>
      <path id="DejaVuSans-7b" d="M 3272 -594 
L 3272 -1044 
L 3078 -1044 
Q 2300 -1044 2036 -812 
Q 1772 -581 1772 109 
L 1772 856 
Q 1772 1328 1603 1509 
Q 1434 1691 991 1691 
L 800 1691 
L 800 2138 
L 991 2138 
Q 1438 2138 1605 2317 
Q 1772 2497 1772 2963 
L 1772 3713 
Q 1772 4403 2036 4633 
Q 2300 4863 3078 4863 
L 3272 4863 
L 3272 4416 
L 3059 4416 
Q 2619 4416 2484 4278 
Q 2350 4141 2350 3700 
L 2350 2925 
Q 2350 2434 2208 2212 
Q 2066 1991 1722 1913 
Q 2069 1828 2209 1606 
Q 2350 1384 2350 897 
L 2350 122 
Q 2350 -319 2484 -456 
Q 2619 -594 3059 -594 
L 3272 -594 
z
" transform="scale(0.015625)"/>
      <path id="DejaVuSans-32" d="M 1228 531 
L 3431 531 
L 3431 0 
L 469 0 
L 469 531 
Q 828 903 1448 1529 
Q 2069 2156 2228 2338 
Q 2531 2678 2651 2914 
Q 2772 3150 2772 3378 
Q 2772 3750 2511 3984 
Q 2250 4219 1831 4219 
Q 1534 4219 1204 4116 
Q 875 4013 500 3803 
L 500 4441 
Q 881 4594 1212 4672 
Q 1544 4750 1819 4750 
Q 2544 4750 2975 4387 
Q 3406 4025 3406 3419 
Q 3406 3131 3298 2873 
Q 3191 2616 2906 2266 
Q 2828 2175 2409 1742 
Q 1991 1309 1228 531 
z
" transform="scale(0.015625)"/>
      <path id="DejaVuSans-7d" d="M 800 -594 
L 1019 -594 
Q 1456 -594 1589 -459 
Q 1722 -325 1722 122 
L 1722 897 
Q 1722 1384 1862 1606 
Q 2003 1828 2350 1913 
Q 2003 1991 1862 2212 
Q 1722 2434 1722 2925 
L 1722 3700 
Q 1722 4144 1589 4280 
Q 1456 4416 1019 4416 
L 800 4416 
L 800 4863 
L 997 4863 
Q 1775 4863 2036 4633 
Q 2297 4403 2297 3713 
L 2297 2963 
Q 2297 2497 2465 2317 
Q 2634 2138 3078 2138 
L 3272 2138 
L 3272 1691 
L 3078 1691 
Q 2634 1691 2465 1509 
Q 2297 1328 2297 856 
L 2297 109 
Q 2297 -581 2036 -812 
Q 1775 -1044 997 -1044 
L 800 -1044 
L 800 -594 
z
" transform="scale(0.015625)"/>
      <path id="DejaVuSans-2c" d="M 750 794 
L 1409 794 
L 1409 256 
L 897 -744 
L 494 -744 
L 750 256 
L 750 794 
z
" transform="scale(0.015625)"/>
     </defs>
     <use xlink:href="#DejaVuSans-7b"/>
     <use xlink:href="#DejaVuSans-66" x="63.623047"/>
     <use xlink:href="#DejaVuSans-31" x="98.828125"/>
     <use xlink:href="#DejaVuSans-2d" x="162.451172"/>
     <use xlink:href="#DejaVuSans-66" x="198.535156"/>
     <use xlink:href="#DejaVuSans-32" x="233.740234"/>
     <use xlink:href="#DejaVuSans-34" x="297.363281"/>
     <use xlink:href="#DejaVuSans-7d" x="360.986328"/>
     <use xlink:href="#DejaVuSans-2c" x="424.609375"/>
     <use xlink:href="#DejaVuSans-20" x="456.396484"/>
     <use xlink:href="#DejaVuSans-32" x="488.183594"/>
     <use xlink:href="#DejaVuSans-30" x="551.806641"/>
     <use xlink:href="#DejaVuSans-2d" x="615.429688"/>
     <use xlink:href="#DejaVuSans-44" x="651.513672"/>
    </g>
   </g>
   <g id="text_7">
    <!-- v2.6.3 -->
    <g style="fill: #808080" transform="translate(214.71875 288.777272)scale(0.1 -0.1)">
     <defs>
      <path id="DejaVuSans-76" d="M 191 3500 
L 800 3500 
L 1894 563 
L 2988 3500 
L 3597 3500 
L 2284 0 
L 1503 0 
L 191 3500 
z
" transform="scale(0.015625)"/>
      <path id="DejaVuSans-2e" d="M 684 794 
L 1344 794 
L 1344 0 
L 684 0 
L 684 794 
z
" transform="scale(0.015625)"/>
      <path id="DejaVuSans-36" d="M 2113 2584 
Q 1688 2584 1439 2293 
Q 1191 2003 1191 1497 
Q 1191 994 1439 701 
Q 1688 409 2113 409 
Q 2538 409 2786 701 
Q 3034 994 3034 1497 
Q 3034 2003 2786 2293 
Q 2538 2584 2113 2584 
z
M 3366 4563 
L 3366 3988 
Q 3128 4100 2886 4159 
Q 2644 4219 2406 4219 
Q 1781 4219 1451 3797 
Q 1122 3375 1075 2522 
Q 1259 2794 1537 2939 
Q 1816 3084 2150 3084 
Q 2853 3084 3261 2657 
Q 3669 2231 3669 1497 
Q 3669 778 3244 343 
Q 2819 -91 2113 -91 
Q 1303 -91 875 529 
Q 447 1150 447 2328 
Q 447 3434 972 4092 
Q 1497 4750 2381 4750 
Q 2619 4750 2861 4703 
Q 3103 4656 3366 4563 
z
" transform="scale(0.015625)"/>
      <path id="DejaVuSans-33" d="M 2597 2516 
Q 3050 2419 3304 2112 
Q 3559 1806 3559 1356 
Q 3559 666 3084 287 
Q 2609 -91 1734 -91 
Q 1441 -91 1130 -33 
Q 819 25 488 141 
L 488 750 
Q 750 597 1062 519 
Q 1375 441 1716 441 
Q 2309 441 2620 675 
Q 2931 909 2931 1356 
Q 2931 1769 2642 2001 
Q 2353 2234 1838 2234 
L 1294 2234 
L 1294 2753 
L 1863 2753 
Q 2328 2753 2575 2939 
Q 2822 3125 2822 3475 
Q 2822 3834 2567 4026 
Q 2313 4219 1838 4219 
Q 1578 4219 1281 4162 
Q 984 4106 628 3988 
L 628 4550 
Q 988 4650 1302 4700 
Q 1616 4750 1894 4750 
Q 2613 4750 3031 4423 
Q 3450 4097 3450 3541 
Q 3450 3153 3228 2886 
Q 3006 2619 2597 2516 
z
" transform="scale(0.015625)"/>
     </defs>
     <use xlink:href="#DejaVuSans-76"/>
     <use xlink:href="#DejaVuSans-32" x="59.179688"/>
     <use xlink:href="#DejaVuSans-2e" x="122.802734"/>
     <use xlink:href="#DejaVuSans-36" x="154.589844"/>
     <use xlink:href="#DejaVuSans-2e" x="218.212891"/>
     <use xlink:href="#DejaVuSans-33" x="250"/>
    </g>
   </g>
  </g>
 </g>
 <defs>
  <clipPath id="p6e1216eef6">
   <rect x="0" y="3.456" width="460.8" height="290.304"/>
  </clipPath>
 </defs>
</svg>
