<?xml version="1.0" encoding="utf-8" standalone="no"?>
<!DOCTYPE svg PUBLIC "-//W3C//DTD SVG 1.1//EN"
  "http://www.w3.org/Graphics/SVG/1.1/DTD/svg11.dtd">
<svg xmlns:xlink="http://www.w3.org/1999/xlink" width="460.8pt" height="345.6pt" viewBox="0 0 460.8 345.6" xmlns="http://www.w3.org/2000/svg" version="1.1">
 <metadata>
  <rdf:RDF xmlns:dc="http://purl.org/dc/elements/1.1/" xmlns:cc="http://creativecommons.org/ns#" xmlns:rdf="http://www.w3.org/1999/02/22-rdf-syntax-ns#">
   <cc:Work>
    <dc:type rdf:resource="http://purl.org/dc/dcmitype/StillImage"/>
    <dc:date>2023-04-07T14:52:13.244923</dc:date>
    <dc:format>image/svg+xml</dc:format>
    <dc:creator>
     <cc:Agent>
      <dc:title>Matplotlib v3.5.2, https://matplotlib.org/</dc:title>
     </cc:Agent>
    </dc:creator>
   </cc:Work>
  </rdf:RDF>
 </metadata>
 <defs>
  <style type="text/css">*{stroke-linejoin: round; stroke-linecap: butt}</style>
 </defs>
 <g id="figure_1">
  <g id="patch_1">
   <path d="M 0 345.6 
L 460.8 345.6 
L 460.8 0 
L 0 0 
z
" style="fill: #ffffff"/>
  </g>
  <g id="axes_1">
   <g id="patch_2">
    <path d="M 0 293.76 
L 460.8 293.76 
L 460.8 3.456 
L 0 3.456 
z
" style="fill: #ffffff"/>
   </g>
   <g id="matplotlib.axis_1">
    <g id="xtick_1">
     <g id="line2d_1">
      <path d="M 102.500356 293.76 
L 102.500356 3.456 
" clip-path="url(#p5fa20b78aa)" style="fill: none; stroke: #b0b0b0; stroke-width: 0.8; stroke-linecap: square"/>
     </g>
     <g id="line2d_2">
      <defs>
       <path id="m795b91e9f4" d="M 0 0 
L 0 3.5 
" style="stroke: #000000; stroke-width: 0.8"/>
      </defs>
      <g>
       <use xlink:href="#m795b91e9f4" x="102.500356" y="293.76" style="stroke: #000000; stroke-width: 0.8"/>
      </g>
     </g>
     <g id="text_1">
      <!-- -4 -->
      <g transform="translate(92.530044 315.956875)scale(0.2 -0.2)">
       <defs>
        <path id="DejaVuSans-2d" d="M 313 2009 
L 1997 2009 
L 1997 1497 
L 313 1497 
L 313 2009 
z
" transform="scale(0.015625)"/>
        <path id="DejaVuSans-34" d="M 2419 4116 
L 825 1625 
L 2419 1625 
L 2419 4116 
z
M 2253 4666 
L 3047 4666 
L 3047 1625 
L 3713 1625 
L 3713 1100 
L 3047 1100 
L 3047 0 
L 2419 0 
L 2419 1100 
L 313 1100 
L 313 1709 
L 2253 4666 
z
" transform="scale(0.015625)"/>
       </defs>
       <use xlink:href="#DejaVuSans-2d"/>
       <use xlink:href="#DejaVuSans-34" x="36.083984"/>
      </g>
     </g>
    </g>
    <g id="xtick_2">
     <g id="line2d_3">
      <path d="M 205.111568 293.76 
L 205.111568 3.456 
" clip-path="url(#p5fa20b78aa)" style="fill: none; stroke: #b0b0b0; stroke-width: 0.8; stroke-linecap: square"/>
     </g>
     <g id="line2d_4">
      <g>
       <use xlink:href="#m795b91e9f4" x="205.111568" y="293.76" style="stroke: #000000; stroke-width: 0.8"/>
      </g>
     </g>
     <g id="text_2">
      <!-- 0 -->
      <g transform="translate(198.749068 315.956875)scale(0.2 -0.2)">
       <defs>
        <path id="DejaVuSans-30" d="M 2034 4250 
Q 1547 4250 1301 3770 
Q 1056 3291 1056 2328 
Q 1056 1369 1301 889 
Q 1547 409 2034 409 
Q 2525 409 2770 889 
Q 3016 1369 3016 2328 
Q 3016 3291 2770 3770 
Q 2525 4250 2034 4250 
z
M 2034 4750 
Q 2819 4750 3233 4129 
Q 3647 3509 3647 2328 
Q 3647 1150 3233 529 
Q 2819 -91 2034 -91 
Q 1250 -91 836 529 
Q 422 1150 422 2328 
Q 422 3509 836 4129 
Q 1250 4750 2034 4750 
z
" transform="scale(0.015625)"/>
       </defs>
       <use xlink:href="#DejaVuSans-30"/>
      </g>
     </g>
    </g>
    <g id="xtick_3">
     <g id="line2d_5">
      <path d="M 307.72278 293.76 
L 307.72278 3.456 
" clip-path="url(#p5fa20b78aa)" style="fill: none; stroke: #b0b0b0; stroke-width: 0.8; stroke-linecap: square"/>
     </g>
     <g id="line2d_6">
      <g>
       <use xlink:href="#m795b91e9f4" x="307.72278" y="293.76" style="stroke: #000000; stroke-width: 0.8"/>
      </g>
     </g>
     <g id="text_3">
      <!-- 4 -->
      <g transform="translate(301.36028 315.956875)scale(0.2 -0.2)">
       <use xlink:href="#DejaVuSans-34"/>
      </g>
     </g>
    </g>
    <g id="xtick_4">
     <g id="line2d_7">
      <path d="M 410.333991 293.76 
L 410.333991 3.456 
" clip-path="url(#p5fa20b78aa)" style="fill: none; stroke: #b0b0b0; stroke-width: 0.8; stroke-linecap: square"/>
     </g>
     <g id="line2d_8">
      <g>
       <use xlink:href="#m795b91e9f4" x="410.333991" y="293.76" style="stroke: #000000; stroke-width: 0.8"/>
      </g>
     </g>
     <g id="text_4">
      <!-- 8 -->
      <g transform="translate(403.971491 315.956875)scale(0.2 -0.2)">
       <defs>
        <path id="DejaVuSans-38" d="M 2034 2216 
Q 1584 2216 1326 1975 
Q 1069 1734 1069 1313 
Q 1069 891 1326 650 
Q 1584 409 2034 409 
Q 2484 409 2743 651 
Q 3003 894 3003 1313 
Q 3003 1734 2745 1975 
Q 2488 2216 2034 2216 
z
M 1403 2484 
Q 997 2584 770 2862 
Q 544 3141 544 3541 
Q 544 4100 942 4425 
Q 1341 4750 2034 4750 
Q 2731 4750 3128 4425 
Q 3525 4100 3525 3541 
Q 3525 3141 3298 2862 
Q 3072 2584 2669 2484 
Q 3125 2378 3379 2068 
Q 3634 1759 3634 1313 
Q 3634 634 3220 271 
Q 2806 -91 2034 -91 
Q 1263 -91 848 271 
Q 434 634 434 1313 
Q 434 1759 690 2068 
Q 947 2378 1403 2484 
z
M 1172 3481 
Q 1172 3119 1398 2916 
Q 1625 2713 2034 2713 
Q 2441 2713 2670 2916 
Q 2900 3119 2900 3481 
Q 2900 3844 2670 4047 
Q 2441 4250 2034 4250 
Q 1625 4250 1398 4047 
Q 1172 3844 1172 3481 
z
" transform="scale(0.015625)"/>
       </defs>
       <use xlink:href="#DejaVuSans-38"/>
      </g>
     </g>
    </g>
    <g id="text_5">
     <!-- log10 of Df -->
     <g transform="translate(175.214063 339.313125)scale(0.2 -0.2)">
      <defs>
       <path id="DejaVuSans-6c" d="M 603 4863 
L 1178 4863 
L 1178 0 
L 603 0 
L 603 4863 
z
" transform="scale(0.015625)"/>
       <path id="DejaVuSans-6f" d="M 1959 3097 
Q 1497 3097 1228 2736 
Q 959 2375 959 1747 
Q 959 1119 1226 758 
Q 1494 397 1959 397 
Q 2419 397 2687 759 
Q 2956 1122 2956 1747 
Q 2956 2369 2687 2733 
Q 2419 3097 1959 3097 
z
M 1959 3584 
Q 2709 3584 3137 3096 
Q 3566 2609 3566 1747 
Q 3566 888 3137 398 
Q 2709 -91 1959 -91 
Q 1206 -91 779 398 
Q 353 888 353 1747 
Q 353 2609 779 3096 
Q 1206 3584 1959 3584 
z
" transform="scale(0.015625)"/>
       <path id="DejaVuSans-67" d="M 2906 1791 
Q 2906 2416 2648 2759 
Q 2391 3103 1925 3103 
Q 1463 3103 1205 2759 
Q 947 2416 947 1791 
Q 947 1169 1205 825 
Q 1463 481 1925 481 
Q 2391 481 2648 825 
Q 2906 1169 2906 1791 
z
M 3481 434 
Q 3481 -459 3084 -895 
Q 2688 -1331 1869 -1331 
Q 1566 -1331 1297 -1286 
Q 1028 -1241 775 -1147 
L 775 -588 
Q 1028 -725 1275 -790 
Q 1522 -856 1778 -856 
Q 2344 -856 2625 -561 
Q 2906 -266 2906 331 
L 2906 616 
Q 2728 306 2450 153 
Q 2172 0 1784 0 
Q 1141 0 747 490 
Q 353 981 353 1791 
Q 353 2603 747 3093 
Q 1141 3584 1784 3584 
Q 2172 3584 2450 3431 
Q 2728 3278 2906 2969 
L 2906 3500 
L 3481 3500 
L 3481 434 
z
" transform="scale(0.015625)"/>
       <path id="DejaVuSans-31" d="M 794 531 
L 1825 531 
L 1825 4091 
L 703 3866 
L 703 4441 
L 1819 4666 
L 2450 4666 
L 2450 531 
L 3481 531 
L 3481 0 
L 794 0 
L 794 531 
z
" transform="scale(0.015625)"/>
       <path id="DejaVuSans-20" transform="scale(0.015625)"/>
       <path id="DejaVuSans-66" d="M 2375 4863 
L 2375 4384 
L 1825 4384 
Q 1516 4384 1395 4259 
Q 1275 4134 1275 3809 
L 1275 3500 
L 2222 3500 
L 2222 3053 
L 1275 3053 
L 1275 0 
L 697 0 
L 697 3053 
L 147 3053 
L 147 3500 
L 697 3500 
L 697 3744 
Q 697 4328 969 4595 
Q 1241 4863 1831 4863 
L 2375 4863 
z
" transform="scale(0.015625)"/>
       <path id="DejaVuSans-44" d="M 1259 4147 
L 1259 519 
L 2022 519 
Q 2988 519 3436 956 
Q 3884 1394 3884 2338 
Q 3884 3275 3436 3711 
Q 2988 4147 2022 4147 
L 1259 4147 
z
M 628 4666 
L 1925 4666 
Q 3281 4666 3915 4102 
Q 4550 3538 4550 2338 
Q 4550 1131 3912 565 
Q 3275 0 1925 0 
L 628 0 
L 628 4666 
z
" transform="scale(0.015625)"/>
      </defs>
      <use xlink:href="#DejaVuSans-6c"/>
      <use xlink:href="#DejaVuSans-6f" x="27.783203"/>
      <use xlink:href="#DejaVuSans-67" x="88.964844"/>
      <use xlink:href="#DejaVuSans-31" x="152.441406"/>
      <use xlink:href="#DejaVuSans-30" x="216.064453"/>
      <use xlink:href="#DejaVuSans-20" x="279.6875"/>
      <use xlink:href="#DejaVuSans-6f" x="311.474609"/>
      <use xlink:href="#DejaVuSans-66" x="372.65625"/>
      <use xlink:href="#DejaVuSans-20" x="407.861328"/>
      <use xlink:href="#DejaVuSans-44" x="439.648438"/>
      <use xlink:href="#DejaVuSans-66" x="516.650391"/>
     </g>
    </g>
   </g>
   <g id="matplotlib.axis_2">
    <g id="ytick_1">
     <g id="line2d_9">
      <path d="M 0 293.76 
L 460.8 293.76 
" clip-path="url(#p5fa20b78aa)" style="fill: none; stroke: #b0b0b0; stroke-width: 0.8; stroke-linecap: square"/>
     </g>
     <g id="line2d_10">
      <defs>
       <path id="mb4d0b57180" d="M 0 0 
L -3.5 0 
" style="stroke: #000000; stroke-width: 0.8"/>
      </defs>
      <g>
       <use xlink:href="#mb4d0b57180" x="0" y="293.76" style="stroke: #000000; stroke-width: 0.8"/>
      </g>
     </g>
    </g>
    <g id="ytick_2">
     <g id="line2d_11">
      <path d="M 0 236.274059 
L 460.8 236.274059 
" clip-path="url(#p5fa20b78aa)" style="fill: none; stroke: #b0b0b0; stroke-width: 0.8; stroke-linecap: square"/>
     </g>
     <g id="line2d_12">
      <g>
       <use xlink:href="#mb4d0b57180" x="0" y="236.274059" style="stroke: #000000; stroke-width: 0.8"/>
      </g>
     </g>
    </g>
    <g id="ytick_3">
     <g id="line2d_13">
      <path d="M 0 178.788119 
L 460.8 178.788119 
" clip-path="url(#p5fa20b78aa)" style="fill: none; stroke: #b0b0b0; stroke-width: 0.8; stroke-linecap: square"/>
     </g>
     <g id="line2d_14">
      <g>
       <use xlink:href="#mb4d0b57180" x="0" y="178.788119" style="stroke: #000000; stroke-width: 0.8"/>
      </g>
     </g>
    </g>
    <g id="ytick_4">
     <g id="line2d_15">
      <path d="M 0 121.302178 
L 460.8 121.302178 
" clip-path="url(#p5fa20b78aa)" style="fill: none; stroke: #b0b0b0; stroke-width: 0.8; stroke-linecap: square"/>
     </g>
     <g id="line2d_16">
      <g>
       <use xlink:href="#mb4d0b57180" x="0" y="121.302178" style="stroke: #000000; stroke-width: 0.8"/>
      </g>
     </g>
    </g>
    <g id="ytick_5">
     <g id="line2d_17">
      <path d="M 0 63.816238 
L 460.8 63.816238 
" clip-path="url(#p5fa20b78aa)" style="fill: none; stroke: #b0b0b0; stroke-width: 0.8; stroke-linecap: square"/>
     </g>
     <g id="line2d_18">
      <g>
       <use xlink:href="#mb4d0b57180" x="0" y="63.816238" style="stroke: #000000; stroke-width: 0.8"/>
      </g>
     </g>
    </g>
    <g id="ytick_6">
     <g id="line2d_19">
      <path d="M 0 6.330297 
L 460.8 6.330297 
" clip-path="url(#p5fa20b78aa)" style="fill: none; stroke: #b0b0b0; stroke-width: 0.8; stroke-linecap: square"/>
     </g>
     <g id="line2d_20">
      <g>
       <use xlink:href="#mb4d0b57180" x="0" y="6.330297" style="stroke: #000000; stroke-width: 0.8"/>
      </g>
     </g>
    </g>
   </g>
   <g id="line2d_21">
    <path d="M -1 49.444752 
L -0.813316 49.444752 
L -0.813316 44.654257 
L -0.744385 44.654257 
L -0.744385 39.863762 
L -0.736955 39.863762 
L -0.736955 35.073267 
L -0.666637 35.073267 
L -0.666637 30.282772 
L -0.545183 30.282772 
L -0.545183 25.492277 
L -0.418201 25.492277 
L -0.418201 20.701782 
L -0.318428 20.701782 
L -0.318428 15.911287 
L -0.219896 15.911287 
L -0.219896 11.120792 
L -0.169707 11.120792 
L -0.169707 6.330297 
L -0.169707 6.330297 
L -0.169707 6.330297 
L 460.8 6.330297 
" clip-path="url(#p5fa20b78aa)" style="fill: none; stroke: #ff0000; stroke-width: 3; stroke-linecap: square"/>
   </g>
   <g id="line2d_22">
    <path d="M 258.768688 293.76 
L 258.768688 288.969505 
L 258.768688 288.969505 
L 258.768688 284.17901 
L 258.768688 284.17901 
L 258.768688 279.388515 
L 258.768688 279.388515 
L 258.768688 274.59802 
L 258.768688 274.59802 
L 258.768688 269.807525 
L 258.768688 269.807525 
L 258.768688 265.01703 
L 258.768688 265.01703 
L 258.768688 260.226535 
L 258.768688 260.226535 
L 258.768688 255.43604 
L 258.768688 255.43604 
L 258.768688 250.645545 
L 258.768688 250.645545 
L 258.768688 245.85505 
L 258.768688 245.85505 
L 258.768688 241.064554 
L 258.768688 241.064554 
L 258.768688 236.274059 
L 258.768688 236.274059 
L 258.768688 231.483564 
L 258.768688 231.483564 
L 258.768688 226.693069 
L 258.768688 226.693069 
L 258.768688 221.902574 
L 269.15707 221.902574 
L 269.15707 217.112079 
L 269.788219 217.112079 
L 269.788219 212.321584 
L 269.819593 212.321584 
L 269.819593 207.531089 
L 273.483541 207.531089 
L 273.483541 202.740594 
L 274.603117 202.740594 
L 274.603117 197.950099 
L 275.892975 197.950099 
L 275.892975 193.159604 
L 276.090428 193.159604 
L 276.090428 188.369109 
L 277.262695 188.369109 
L 277.262695 183.578614 
L 279.528114 183.578614 
L 279.528114 178.788119 
L 280.003895 178.788119 
L 280.003895 173.997624 
L 280.014288 173.997624 
L 280.014288 169.207129 
L 281.951084 169.207129 
L 281.951084 164.416634 
L 284.086228 164.416634 
L 284.086228 159.626139 
L 287.075076 159.626139 
L 287.075076 154.835644 
L 287.194636 154.835644 
L 287.194636 150.045149 
L 318.392361 150.045149 
L 318.392361 145.254653 
L 320.860573 145.254653 
L 320.860573 140.464158 
L 321.733596 140.464158 
L 321.733596 135.673663 
L 322.001068 135.673663 
L 322.001068 130.883168 
L 322.939805 130.883168 
L 322.939805 126.092673 
L 323.007028 126.092673 
L 323.007028 121.302178 
L 323.986701 121.302178 
L 323.986701 116.511683 
L 324.884063 116.511683 
L 324.884063 111.721188 
L 326.943366 111.721188 
L 326.943366 106.930693 
L 328.444238 106.930693 
L 328.444238 102.140198 
L 328.902198 102.140198 
L 328.902198 97.349703 
L 329.257127 97.349703 
L 329.257127 92.559208 
L 329.56408 92.559208 
L 329.56408 87.768713 
L 330.550591 87.768713 
L 330.550591 82.978218 
L 330.655579 82.978218 
L 330.655579 78.187723 
L 331.348047 78.187723 
L 331.348047 73.397228 
L 335.572169 73.397228 
L 335.572169 68.606733 
L 344.729917 68.606733 
L 344.729917 63.816238 
L 344.965515 63.816238 
L 344.965515 59.025743 
L 345.406495 59.025743 
L 345.406495 54.235248 
L 345.979333 54.235248 
L 345.979333 49.444752 
L 346.744757 49.444752 
L 346.744757 44.654257 
L 347.552676 44.654257 
L 347.552676 39.863762 
L 347.743796 39.863762 
L 347.743796 35.073267 
L 348.663109 35.073267 
L 348.663109 30.282772 
L 349.332019 30.282772 
L 349.332019 25.492277 
L 353.021073 25.492277 
L 353.021073 20.701782 
L 354.285667 20.701782 
L 354.285667 15.911287 
L 354.308625 15.911287 
L 354.308625 11.120792 
L 356.179266 11.120792 
L 356.179266 6.330297 
L 356.179266 6.330297 
L 356.179266 6.330297 
L 460.8 6.330297 
" clip-path="url(#p5fa20b78aa)" style="fill: none; stroke: #00bfbf; stroke-width: 1.5; stroke-linecap: square"/>
   </g>
   <g id="line2d_23">
    <path d="M 258.768688 293.76 
L 258.768688 288.969505 
L 258.768688 288.969505 
L 258.768688 284.17901 
L 258.768688 284.17901 
L 258.768688 279.388515 
L 258.768688 279.388515 
L 258.768688 274.59802 
L 258.768688 274.59802 
L 258.768688 269.807525 
L 258.768688 269.807525 
L 258.768688 265.01703 
L 258.768688 265.01703 
L 258.768688 260.226535 
L 258.768688 260.226535 
L 258.768688 255.43604 
L 258.768688 255.43604 
L 258.768688 250.645545 
L 258.768688 250.645545 
L 258.768688 245.85505 
L 258.768688 245.85505 
L 258.768688 241.064554 
L 258.768688 241.064554 
L 258.768688 236.274059 
L 258.768688 236.274059 
L 258.768688 231.483564 
L 258.768688 231.483564 
L 258.768688 226.693069 
L 258.768688 226.693069 
L 258.768688 221.902574 
L 268.376108 221.902574 
L 268.376108 217.112079 
L 269.15707 217.112079 
L 269.15707 212.321584 
L 269.649299 212.321584 
L 269.649299 207.531089 
L 270.480531 207.531089 
L 270.480531 202.740594 
L 270.880548 202.740594 
L 270.880548 197.950099 
L 271.961855 197.950099 
L 271.961855 193.159604 
L 273.049 193.159604 
L 273.049 188.369109 
L 274.294932 188.369109 
L 274.294932 183.578614 
L 275.021057 183.578614 
L 275.021057 178.788119 
L 275.132062 178.788119 
L 275.132062 173.997624 
L 275.490486 173.997624 
L 275.490486 169.207129 
L 276.046769 169.207129 
L 276.046769 164.416634 
L 277.262695 164.416634 
L 277.262695 159.626139 
L 280.014288 159.626139 
L 280.014288 154.835644 
L 283.394581 154.835644 
L 283.394581 150.045149 
L 318.392361 150.045149 
L 318.392361 145.254653 
L 320.860573 145.254653 
L 320.860573 140.464158 
L 321.733596 140.464158 
L 321.733596 135.673663 
L 322.001068 135.673663 
L 322.001068 130.883168 
L 322.939805 130.883168 
L 322.939805 126.092673 
L 323.007028 126.092673 
L 323.007028 121.302178 
L 323.986701 121.302178 
L 323.986701 116.511683 
L 324.884063 116.511683 
L 324.884063 111.721188 
L 326.943366 111.721188 
L 326.943366 106.930693 
L 328.444238 106.930693 
L 328.444238 102.140198 
L 328.902198 102.140198 
L 328.902198 97.349703 
L 329.257127 97.349703 
L 329.257127 92.559208 
L 329.56408 92.559208 
L 329.56408 87.768713 
L 330.550591 87.768713 
L 330.550591 82.978218 
L 330.655579 82.978218 
L 330.655579 78.187723 
L 331.348047 78.187723 
L 331.348047 73.397228 
L 335.572169 73.397228 
L 335.572169 68.606733 
L 340.81449 68.606733 
L 340.81449 63.816238 
L 343.210684 63.816238 
L 343.210684 59.025743 
L 344.138035 59.025743 
L 344.138035 54.235248 
L 344.381592 54.235248 
L 344.381592 49.444752 
L 344.586427 49.444752 
L 344.586427 44.654257 
L 344.684696 44.654257 
L 344.684696 39.863762 
L 345.406495 39.863762 
L 345.406495 35.073267 
L 346.275226 35.073267 
L 346.275226 30.282772 
L 346.744757 30.282772 
L 346.744757 25.492277 
L 347.441585 25.492277 
L 347.441585 20.701782 
L 352.949927 20.701782 
L 352.949927 15.911287 
L 354.285667 15.911287 
L 354.285667 11.120792 
L 354.308625 11.120792 
L 354.308625 6.330297 
L 354.308625 6.330297 
L 354.308625 6.330297 
L 460.8 6.330297 
" clip-path="url(#p5fa20b78aa)" style="fill: none; stroke: #bf00bf; stroke-width: 1.5; stroke-linecap: square"/>
   </g>
   <g id="line2d_24">
    <path d="M 258.768688 293.76 
L 258.768688 288.969505 
L 258.768688 288.969505 
L 258.768688 284.17901 
L 258.768688 284.17901 
L 258.768688 279.388515 
L 258.768688 279.388515 
L 258.768688 274.59802 
L 258.768688 274.59802 
L 258.768688 269.807525 
L 258.768688 269.807525 
L 258.768688 265.01703 
L 258.768688 265.01703 
L 258.768688 260.226535 
L 258.768688 260.226535 
L 258.768688 255.43604 
L 258.768688 255.43604 
L 258.768688 250.645545 
L 258.768688 250.645545 
L 258.768688 245.85505 
L 258.768688 245.85505 
L 258.768688 241.064554 
L 258.768688 241.064554 
L 258.768688 236.274059 
L 258.768688 236.274059 
L 258.768688 231.483564 
L 258.768688 231.483564 
L 258.768688 226.693069 
L 258.768688 226.693069 
L 258.768688 221.902574 
L 265.548491 221.902574 
L 265.548491 217.112079 
L 265.99099 217.112079 
L 265.99099 212.321584 
L 268.376108 212.321584 
L 268.376108 207.531089 
L 268.947639 207.531089 
L 268.947639 202.740594 
L 269.405127 202.740594 
L 269.405127 197.950099 
L 269.487957 197.950099 
L 269.487957 193.159604 
L 269.899518 193.159604 
L 269.899518 188.369109 
L 270.183552 188.369109 
L 270.183552 183.578614 
L 270.342839 183.578614 
L 270.342839 178.788119 
L 270.351276 178.788119 
L 270.351276 173.997624 
L 270.625628 173.997624 
L 270.625628 169.207129 
L 270.702804 169.207129 
L 270.702804 164.416634 
L 272.638486 164.416634 
L 272.638486 159.626139 
L 275.021057 159.626139 
L 275.021057 154.835644 
L 275.229819 154.835644 
L 275.229819 150.045149 
L 312.452424 150.045149 
L 312.452424 145.254653 
L 317.500198 145.254653 
L 317.500198 140.464158 
L 317.996024 140.464158 
L 317.996024 135.673663 
L 318.392361 135.673663 
L 318.392361 130.883168 
L 318.856362 130.883168 
L 318.856362 126.092673 
L 318.891213 126.092673 
L 318.891213 121.302178 
L 321.09128 121.302178 
L 321.09128 116.511683 
L 321.372538 116.511683 
L 321.372538 111.721188 
L 322.803836 111.721188 
L 322.803836 106.930693 
L 323.46987 106.930693 
L 323.46987 102.140198 
L 323.986701 102.140198 
L 323.986701 97.349703 
L 324.175516 97.349703 
L 324.175516 92.559208 
L 324.333012 92.559208 
L 324.333012 87.768713 
L 328.003637 87.768713 
L 328.003637 82.978218 
L 328.444238 82.978218 
L 328.444238 78.187723 
L 328.672805 78.187723 
L 328.672805 73.397228 
L 328.758092 73.397228 
L 328.758092 68.606733 
L 329.257127 68.606733 
L 329.257127 63.816238 
L 329.314839 63.816238 
L 329.314839 59.025743 
L 329.56408 59.025743 
L 329.56408 54.235248 
L 329.890118 54.235248 
L 329.890118 49.444752 
L 333.069113 49.444752 
L 333.069113 44.654257 
L 333.428135 44.654257 
L 333.428135 39.863762 
L 333.495322 39.863762 
L 333.495322 35.073267 
L 336.380521 35.073267 
L 336.380521 30.282772 
L 338.662791 30.282772 
L 338.662791 25.492277 
L 344.165635 25.492277 
L 344.165635 20.701782 
L 345.927391 20.701782 
L 345.927391 15.911287 
L 346.640539 15.911287 
L 346.640539 11.120792 
L 349.901535 11.120792 
L 349.901535 6.330297 
L 349.901535 6.330297 
L 349.901535 6.330297 
L 460.8 6.330297 
" clip-path="url(#p5fa20b78aa)" style="fill: none; stroke: #000000; stroke-width: 1.5; stroke-linecap: square"/>
   </g>
   <g id="line2d_25">
    <path d="M 257.073475 293.76 
L 257.073475 288.969505 
L 257.153356 288.969505 
L 257.153356 284.17901 
L 257.709352 284.17901 
L 257.709352 279.388515 
L 258.366903 279.388515 
L 258.366903 274.59802 
L 258.62969 274.59802 
L 258.62969 269.807525 
L 258.710352 269.807525 
L 258.710352 265.01703 
L 258.768688 265.01703 
L 258.768688 260.226535 
L 258.768688 260.226535 
L 258.768688 255.43604 
L 258.768688 255.43604 
L 258.768688 250.645545 
L 258.768688 250.645545 
L 258.768688 245.85505 
L 258.768688 245.85505 
L 258.768688 241.064554 
L 258.768688 241.064554 
L 258.768688 236.274059 
L 258.768688 236.274059 
L 258.768688 231.483564 
L 258.768688 231.483564 
L 258.768688 226.693069 
L 258.768688 226.693069 
L 258.768688 221.902574 
L 258.768688 221.902574 
L 258.768688 217.112079 
L 258.768688 217.112079 
L 258.768688 212.321584 
L 258.768688 212.321584 
L 258.768688 207.531089 
L 258.768688 207.531089 
L 258.768688 202.740594 
L 258.768688 202.740594 
L 258.768688 197.950099 
L 258.768688 197.950099 
L 258.768688 193.159604 
L 259.712118 193.159604 
L 259.712118 188.369109 
L 261.085837 188.369109 
L 261.085837 183.578614 
L 261.811559 183.578614 
L 261.811559 178.788119 
L 261.884355 178.788119 
L 261.884355 173.997624 
L 264.971659 173.997624 
L 264.971659 169.207129 
L 265.99099 169.207129 
L 265.99099 164.416634 
L 266.120142 164.416634 
L 266.120142 159.626139 
L 266.454545 159.626139 
L 266.454545 154.835644 
L 268.376108 154.835644 
L 268.376108 150.045149 
L 268.42698 150.045149 
L 268.42698 145.254653 
L 270.217284 145.254653 
L 270.217284 140.464158 
L 271.684856 140.464158 
L 271.684856 135.673663 
L 272.325706 135.673663 
L 272.325706 130.883168 
L 274.222906 130.883168 
L 274.222906 126.092673 
L 275.156382 126.092673 
L 275.156382 121.302178 
L 275.330571 121.302178 
L 275.330571 116.511683 
L 276.084744 116.511683 
L 276.084744 111.721188 
L 277.574992 111.721188 
L 277.574992 106.930693 
L 280.786795 106.930693 
L 280.786795 102.140198 
L 284.046149 102.140198 
L 284.046149 97.349703 
L 288.807115 97.349703 
L 288.807115 92.559208 
L 289.407275 92.559208 
L 289.407275 87.768713 
L 292.558462 87.768713 
L 292.558462 82.978218 
L 294.33358 82.978218 
L 294.33358 78.187723 
L 295.970935 78.187723 
L 295.970935 73.397228 
L 296.284184 73.397228 
L 296.284184 68.606733 
L 300.982569 68.606733 
L 300.982569 63.816238 
L 301.133839 63.816238 
L 301.133839 59.025743 
L 301.627505 59.025743 
L 301.627505 54.235248 
L 301.630654 54.235248 
L 301.630654 49.444752 
L 304.104491 49.444752 
L 304.104491 44.654257 
L 304.27993 44.654257 
L 304.27993 39.863762 
L 304.69038 39.863762 
L 304.69038 35.073267 
L 306.522685 35.073267 
L 306.522685 30.282772 
L 306.885072 30.282772 
L 306.885072 25.492277 
L 308.981769 25.492277 
L 308.981769 20.701782 
L 314.659685 20.701782 
L 314.659685 15.911287 
L 316.374478 15.911287 
L 316.374478 11.120792 
L 317.856818 11.120792 
L 317.856818 6.330297 
L 317.856818 6.330297 
L 317.856818 6.330297 
L 460.8 6.330297 
" clip-path="url(#p5fa20b78aa)" style="fill: none; stroke: #00bfbf; stroke-width: 1.5; stroke-linecap: square"/>
   </g>
   <g id="line2d_26">
    <path d="M 215.59688 293.76 
L 215.59688 288.969505 
L 215.89364 288.969505 
L 215.89364 284.17901 
L 216.806575 284.17901 
L 216.806575 279.388515 
L 218.078058 279.388515 
L 218.078058 274.59802 
L 218.517573 274.59802 
L 218.517573 269.807525 
L 219.57588 269.807525 
L 219.57588 265.01703 
L 220.672332 265.01703 
L 220.672332 260.226535 
L 221.071133 260.226535 
L 221.071133 255.43604 
L 221.944907 255.43604 
L 221.944907 250.645545 
L 222.631027 250.645545 
L 222.631027 245.85505 
L 223.037955 245.85505 
L 223.037955 241.064554 
L 223.209311 241.064554 
L 223.209311 236.274059 
L 223.312688 236.274059 
L 223.312688 231.483564 
L 224.434101 231.483564 
L 224.434101 226.693069 
L 225.080217 226.693069 
L 225.080217 221.902574 
L 226.054561 221.902574 
L 226.054561 217.112079 
L 226.11845 217.112079 
L 226.11845 212.321584 
L 226.347738 212.321584 
L 226.347738 207.531089 
L 226.46254 207.531089 
L 226.46254 202.740594 
L 226.776022 202.740594 
L 226.776022 197.950099 
L 228.675391 197.950099 
L 228.675391 193.159604 
L 228.887798 193.159604 
L 228.887798 188.369109 
L 229.412519 188.369109 
L 229.412519 183.578614 
L 229.865679 183.578614 
L 229.865679 178.788119 
L 232.44621 178.788119 
L 232.44621 173.997624 
L 232.737163 173.997624 
L 232.737163 169.207129 
L 233.370596 169.207129 
L 233.370596 164.416634 
L 233.430935 164.416634 
L 233.430935 159.626139 
L 234.602614 159.626139 
L 234.602614 154.835644 
L 235.322906 154.835644 
L 235.322906 150.045149 
L 236.162232 150.045149 
L 236.162232 145.254653 
L 236.445437 145.254653 
L 236.445437 140.464158 
L 236.507354 140.464158 
L 236.507354 135.673663 
L 236.700004 135.673663 
L 236.700004 130.883168 
L 236.836134 130.883168 
L 236.836134 126.092673 
L 236.847752 126.092673 
L 236.847752 121.302178 
L 236.983705 121.302178 
L 236.983705 116.511683 
L 237.001194 116.511683 
L 237.001194 111.721188 
L 237.147286 111.721188 
L 237.147286 106.930693 
L 237.258435 106.930693 
L 237.258435 102.140198 
L 237.28327 102.140198 
L 237.28327 97.349703 
L 237.376787 97.349703 
L 237.376787 92.559208 
L 237.417013 92.559208 
L 237.417013 87.768713 
L 237.852053 87.768713 
L 237.852053 82.978218 
L 237.854754 82.978218 
L 237.854754 78.187723 
L 237.907757 78.187723 
L 237.907757 73.397228 
L 237.966639 73.397228 
L 237.966639 68.606733 
L 238.005594 68.606733 
L 238.005594 63.816238 
L 238.169905 63.816238 
L 238.169905 59.025743 
L 238.183109 59.025743 
L 238.183109 54.235248 
L 239.21814 54.235248 
L 239.21814 49.444752 
L 253.889669 49.444752 
L 253.889669 44.654257 
L 254.104219 44.654257 
L 254.104219 39.863762 
L 254.838225 39.863762 
L 254.838225 35.073267 
L 255.43908 35.073267 
L 255.43908 30.282772 
L 255.703104 30.282772 
L 255.703104 25.492277 
L 256.015105 25.492277 
L 256.015105 20.701782 
L 258.300921 20.701782 
L 258.300921 15.911287 
L 261.229584 15.911287 
L 261.229584 11.120792 
L 263.681895 11.120792 
L 263.681895 6.330297 
L 263.681895 6.330297 
L 263.681895 6.330297 
L 460.8 6.330297 
" clip-path="url(#p5fa20b78aa)" style="fill: none; stroke: #bf00bf; stroke-width: 1.5; stroke-linecap: square"/>
   </g>
   <g id="line2d_27">
    <path d="M -1 250.645545 
L -0.813316 250.645545 
L -0.813316 245.85505 
L -0.744385 245.85505 
L -0.744385 241.064554 
L -0.736955 241.064554 
L -0.736955 236.274059 
L -0.666637 236.274059 
L -0.666637 231.483564 
L -0.545183 231.483564 
L -0.545183 226.693069 
L -0.418201 226.693069 
L -0.418201 221.902574 
L -0.318428 221.902574 
L -0.318428 217.112079 
L -0.219896 217.112079 
L -0.219896 212.321584 
L -0.169707 212.321584 
L -0.169707 207.531089 
L 180.614901 207.531089 
L 180.614901 202.740594 
L 186.453193 202.740594 
L 186.453193 197.950099 
L 191.052218 197.950099 
L 191.052218 193.159604 
L 192.306937 193.159604 
L 192.306937 188.369109 
L 193.683967 188.369109 
L 193.683967 183.578614 
L 195.190127 183.578614 
L 195.190127 178.788119 
L 195.7828 178.788119 
L 195.7828 173.997624 
L 196.663863 173.997624 
L 196.663863 169.207129 
L 196.766589 169.207129 
L 196.766589 164.416634 
L 196.892569 164.416634 
L 196.892569 159.626139 
L 197.701926 159.626139 
L 197.701926 154.835644 
L 202.157099 154.835644 
L 202.157099 150.045149 
L 202.158429 150.045149 
L 202.158429 145.254653 
L 204.503416 145.254653 
L 204.503416 140.464158 
L 205.370599 140.464158 
L 205.370599 135.673663 
L 207.215802 135.673663 
L 207.215802 130.883168 
L 207.653007 130.883168 
L 207.653007 126.092673 
L 208.253548 126.092673 
L 208.253548 121.302178 
L 208.30913 121.302178 
L 208.30913 116.511683 
L 209.628499 116.511683 
L 209.628499 111.721188 
L 209.869147 111.721188 
L 209.869147 106.930693 
L 211.039591 106.930693 
L 211.039591 102.140198 
L 211.07844 102.140198 
L 211.07844 97.349703 
L 211.447099 97.349703 
L 211.447099 92.559208 
L 211.527812 92.559208 
L 211.527812 87.768713 
L 211.935058 87.768713 
L 211.935058 82.978218 
L 213.24465 82.978218 
L 213.24465 78.187723 
L 213.520924 78.187723 
L 213.520924 73.397228 
L 214.263683 73.397228 
L 214.263683 68.606733 
L 214.694933 68.606733 
L 214.694933 63.816238 
L 216.220903 63.816238 
L 216.220903 59.025743 
L 216.221818 59.025743 
L 216.221818 54.235248 
L 217.416954 54.235248 
L 217.416954 49.444752 
L 219.136609 49.444752 
L 219.136609 44.654257 
L 219.683375 44.654257 
L 219.683375 39.863762 
L 220.518776 39.863762 
L 220.518776 35.073267 
L 222.069022 35.073267 
L 222.069022 30.282772 
L 222.336913 30.282772 
L 222.336913 25.492277 
L 222.791186 25.492277 
L 222.791186 20.701782 
L 224.421303 20.701782 
L 224.421303 15.911287 
L 225.468294 15.911287 
L 225.468294 11.120792 
L 227.341919 11.120792 
L 227.341919 6.330297 
L 227.341919 6.330297 
L 227.341919 6.330297 
L 460.8 6.330297 
" clip-path="url(#p5fa20b78aa)" style="fill: none; stroke: #000000; stroke-width: 1.5; stroke-linecap: square"/>
   </g>
   <g id="patch_3">
    <path d="M 0 293.76 
L 0 3.456 
" style="fill: none; stroke: #000000; stroke-width: 0.8; stroke-linejoin: miter; stroke-linecap: square"/>
   </g>
   <g id="patch_4">
    <path d="M 460.8 293.76 
L 460.8 3.456 
" style="fill: none; stroke: #000000; stroke-width: 0.8; stroke-linejoin: miter; stroke-linecap: square"/>
   </g>
   <g id="patch_5">
    <path d="M 0 293.76 
L 460.8 293.76 
" style="fill: none; stroke: #000000; stroke-width: 0.8; stroke-linejoin: miter; stroke-linecap: square"/>
   </g>
   <g id="patch_6">
    <path d="M 0 3.456 
L 460.8 3.456 
" style="fill: none; stroke: #000000; stroke-width: 0.8; stroke-linejoin: miter; stroke-linecap: square"/>
   </g>
   <g id="text_6">
    <!-- {f6-f9}, 20-D -->
    <g transform="translate(318.609 287.95392)scale(0.2 -0.2)">
     <defs>
      <path id="DejaVuSans-7b" d="M 3272 -594 
L 3272 -1044 
L 3078 -1044 
Q 2300 -1044 2036 -812 
Q 1772 -581 1772 109 
L 1772 856 
Q 1772 1328 1603 1509 
Q 1434 1691 991 1691 
L 800 1691 
L 800 2138 
L 991 2138 
Q 1438 2138 1605 2317 
Q 1772 2497 1772 2963 
L 1772 3713 
Q 1772 4403 2036 4633 
Q 2300 4863 3078 4863 
L 3272 4863 
L 3272 4416 
L 3059 4416 
Q 2619 4416 2484 4278 
Q 2350 4141 2350 3700 
L 2350 2925 
Q 2350 2434 2208 2212 
Q 2066 1991 1722 1913 
Q 2069 1828 2209 1606 
Q 2350 1384 2350 897 
L 2350 122 
Q 2350 -319 2484 -456 
Q 2619 -594 3059 -594 
L 3272 -594 
z
" transform="scale(0.015625)"/>
      <path id="DejaVuSans-36" d="M 2113 2584 
Q 1688 2584 1439 2293 
Q 1191 2003 1191 1497 
Q 1191 994 1439 701 
Q 1688 409 2113 409 
Q 2538 409 2786 701 
Q 3034 994 3034 1497 
Q 3034 2003 2786 2293 
Q 2538 2584 2113 2584 
z
M 3366 4563 
L 3366 3988 
Q 3128 4100 2886 4159 
Q 2644 4219 2406 4219 
Q 1781 4219 1451 3797 
Q 1122 3375 1075 2522 
Q 1259 2794 1537 2939 
Q 1816 3084 2150 3084 
Q 2853 3084 3261 2657 
Q 3669 2231 3669 1497 
Q 3669 778 3244 343 
Q 2819 -91 2113 -91 
Q 1303 -91 875 529 
Q 447 1150 447 2328 
Q 447 3434 972 4092 
Q 1497 4750 2381 4750 
Q 2619 4750 2861 4703 
Q 3103 4656 3366 4563 
z
" transform="scale(0.015625)"/>
      <path id="DejaVuSans-39" d="M 703 97 
L 703 672 
Q 941 559 1184 500 
Q 1428 441 1663 441 
Q 2288 441 2617 861 
Q 2947 1281 2994 2138 
Q 2813 1869 2534 1725 
Q 2256 1581 1919 1581 
Q 1219 1581 811 2004 
Q 403 2428 403 3163 
Q 403 3881 828 4315 
Q 1253 4750 1959 4750 
Q 2769 4750 3195 4129 
Q 3622 3509 3622 2328 
Q 3622 1225 3098 567 
Q 2575 -91 1691 -91 
Q 1453 -91 1209 -44 
Q 966 3 703 97 
z
M 1959 2075 
Q 2384 2075 2632 2365 
Q 2881 2656 2881 3163 
Q 2881 3666 2632 3958 
Q 2384 4250 1959 4250 
Q 1534 4250 1286 3958 
Q 1038 3666 1038 3163 
Q 1038 2656 1286 2365 
Q 1534 2075 1959 2075 
z
" transform="scale(0.015625)"/>
      <path id="DejaVuSans-7d" d="M 800 -594 
L 1019 -594 
Q 1456 -594 1589 -459 
Q 1722 -325 1722 122 
L 1722 897 
Q 1722 1384 1862 1606 
Q 2003 1828 2350 1913 
Q 2003 1991 1862 2212 
Q 1722 2434 1722 2925 
L 1722 3700 
Q 1722 4144 1589 4280 
Q 1456 4416 1019 4416 
L 800 4416 
L 800 4863 
L 997 4863 
Q 1775 4863 2036 4633 
Q 2297 4403 2297 3713 
L 2297 2963 
Q 2297 2497 2465 2317 
Q 2634 2138 3078 2138 
L 3272 2138 
L 3272 1691 
L 3078 1691 
Q 2634 1691 2465 1509 
Q 2297 1328 2297 856 
L 2297 109 
Q 2297 -581 2036 -812 
Q 1775 -1044 997 -1044 
L 800 -1044 
L 800 -594 
z
" transform="scale(0.015625)"/>
      <path id="DejaVuSans-2c" d="M 750 794 
L 1409 794 
L 1409 256 
L 897 -744 
L 494 -744 
L 750 256 
L 750 794 
z
" transform="scale(0.015625)"/>
      <path id="DejaVuSans-32" d="M 1228 531 
L 3431 531 
L 3431 0 
L 469 0 
L 469 531 
Q 828 903 1448 1529 
Q 2069 2156 2228 2338 
Q 2531 2678 2651 2914 
Q 2772 3150 2772 3378 
Q 2772 3750 2511 3984 
Q 2250 4219 1831 4219 
Q 1534 4219 1204 4116 
Q 875 4013 500 3803 
L 500 4441 
Q 881 4594 1212 4672 
Q 1544 4750 1819 4750 
Q 2544 4750 2975 4387 
Q 3406 4025 3406 3419 
Q 3406 3131 3298 2873 
Q 3191 2616 2906 2266 
Q 2828 2175 2409 1742 
Q 1991 1309 1228 531 
z
" transform="scale(0.015625)"/>
     </defs>
     <use xlink:href="#DejaVuSans-7b"/>
     <use xlink:href="#DejaVuSans-66" x="63.623047"/>
     <use xlink:href="#DejaVuSans-36" x="98.828125"/>
     <use xlink:href="#DejaVuSans-2d" x="162.451172"/>
     <use xlink:href="#DejaVuSans-66" x="198.535156"/>
     <use xlink:href="#DejaVuSans-39" x="233.740234"/>
     <use xlink:href="#DejaVuSans-7d" x="297.363281"/>
     <use xlink:href="#DejaVuSans-2c" x="360.986328"/>
     <use xlink:href="#DejaVuSans-20" x="392.773438"/>
     <use xlink:href="#DejaVuSans-32" x="424.560547"/>
     <use xlink:href="#DejaVuSans-30" x="488.183594"/>
     <use xlink:href="#DejaVuSans-2d" x="551.806641"/>
     <use xlink:href="#DejaVuSans-44" x="587.890625"/>
    </g>
   </g>
   <g id="text_7">
    <!-- v2.6.3 -->
    <g style="fill: #808080" transform="translate(214.71875 288.777272)scale(0.1 -0.1)">
     <defs>
      <path id="DejaVuSans-76" d="M 191 3500 
L 800 3500 
L 1894 563 
L 2988 3500 
L 3597 3500 
L 2284 0 
L 1503 0 
L 191 3500 
z
" transform="scale(0.015625)"/>
      <path id="DejaVuSans-2e" d="M 684 794 
L 1344 794 
L 1344 0 
L 684 0 
L 684 794 
z
" transform="scale(0.015625)"/>
      <path id="DejaVuSans-33" d="M 2597 2516 
Q 3050 2419 3304 2112 
Q 3559 1806 3559 1356 
Q 3559 666 3084 287 
Q 2609 -91 1734 -91 
Q 1441 -91 1130 -33 
Q 819 25 488 141 
L 488 750 
Q 750 597 1062 519 
Q 1375 441 1716 441 
Q 2309 441 2620 675 
Q 2931 909 2931 1356 
Q 2931 1769 2642 2001 
Q 2353 2234 1838 2234 
L 1294 2234 
L 1294 2753 
L 1863 2753 
Q 2328 2753 2575 2939 
Q 2822 3125 2822 3475 
Q 2822 3834 2567 4026 
Q 2313 4219 1838 4219 
Q 1578 4219 1281 4162 
Q 984 4106 628 3988 
L 628 4550 
Q 988 4650 1302 4700 
Q 1616 4750 1894 4750 
Q 2613 4750 3031 4423 
Q 3450 4097 3450 3541 
Q 3450 3153 3228 2886 
Q 3006 2619 2597 2516 
z
" transform="scale(0.015625)"/>
     </defs>
     <use xlink:href="#DejaVuSans-76"/>
     <use xlink:href="#DejaVuSans-32" x="59.179688"/>
     <use xlink:href="#DejaVuSans-2e" x="122.802734"/>
     <use xlink:href="#DejaVuSans-36" x="154.589844"/>
     <use xlink:href="#DejaVuSans-2e" x="218.212891"/>
     <use xlink:href="#DejaVuSans-33" x="250"/>
    </g>
   </g>
  </g>
 </g>
 <defs>
  <clipPath id="p5fa20b78aa">
   <rect x="0" y="3.456" width="460.8" height="290.304"/>
  </clipPath>
 </defs>
</svg>
