<?xml version="1.0" encoding="utf-8" standalone="no"?>
<!DOCTYPE svg PUBLIC "-//W3C//DTD SVG 1.1//EN"
  "http://www.w3.org/Graphics/SVG/1.1/DTD/svg11.dtd">
<svg xmlns:xlink="http://www.w3.org/1999/xlink" width="460.8pt" height="345.6pt" viewBox="0 0 460.8 345.6" xmlns="http://www.w3.org/2000/svg" version="1.1">
 <metadata>
  <rdf:RDF xmlns:dc="http://purl.org/dc/elements/1.1/" xmlns:cc="http://creativecommons.org/ns#" xmlns:rdf="http://www.w3.org/1999/02/22-rdf-syntax-ns#">
   <cc:Work>
    <dc:type rdf:resource="http://purl.org/dc/dcmitype/StillImage"/>
    <dc:date>2023-04-03T10:21:23.388116</dc:date>
    <dc:format>image/svg+xml</dc:format>
    <dc:creator>
     <cc:Agent>
      <dc:title>Matplotlib v3.5.2, https://matplotlib.org/</dc:title>
     </cc:Agent>
    </dc:creator>
   </cc:Work>
  </rdf:RDF>
 </metadata>
 <defs>
  <style type="text/css">*{stroke-linejoin: round; stroke-linecap: butt}</style>
 </defs>
 <g id="figure_1">
  <g id="patch_1">
   <path d="M 0 345.6 
L 460.8 345.6 
L 460.8 0 
L 0 0 
z
" style="fill: #ffffff"/>
  </g>
  <g id="axes_1">
   <g id="patch_2">
    <path d="M 34.16 291.28 
L 453.192 291.28 
L 453.192 3 
L 34.16 3 
z
" style="fill: #ffffff"/>
   </g>
   <g id="matplotlib.axis_1">
    <g id="xtick_1">
     <g id="line2d_1">
      <path d="M 152.800845 291.28 
L 152.800845 3 
" clip-path="url(#pdb5797124e)" style="fill: none; stroke: #b0b0b0; stroke-width: 0.8; stroke-linecap: square"/>
     </g>
     <g id="line2d_2">
      <defs>
       <path id="md20a908805" d="M 0 0 
L 0 3.5 
" style="stroke: #000000; stroke-width: 0.8"/>
      </defs>
      <g>
       <use xlink:href="#md20a908805" x="152.800845" y="291.28" style="stroke: #000000; stroke-width: 0.8"/>
      </g>
     </g>
     <g id="text_1">
      <!-- -1 -->
      <g transform="translate(142.830532 313.476875)scale(0.2 -0.2)">
       <defs>
        <path id="DejaVuSans-2d" d="M 313 2009 
L 1997 2009 
L 1997 1497 
L 313 1497 
L 313 2009 
z
" transform="scale(0.015625)"/>
        <path id="DejaVuSans-31" d="M 794 531 
L 1825 531 
L 1825 4091 
L 703 3866 
L 703 4441 
L 1819 4666 
L 2450 4666 
L 2450 531 
L 3481 531 
L 3481 0 
L 794 0 
L 794 531 
z
" transform="scale(0.015625)"/>
       </defs>
       <use xlink:href="#DejaVuSans-2d"/>
       <use xlink:href="#DejaVuSans-31" x="36.083984"/>
      </g>
     </g>
    </g>
    <g id="xtick_2">
     <g id="line2d_3">
      <path d="M 334.551155 291.28 
L 334.551155 3 
" clip-path="url(#pdb5797124e)" style="fill: none; stroke: #b0b0b0; stroke-width: 0.8; stroke-linecap: square"/>
     </g>
     <g id="line2d_4">
      <g>
       <use xlink:href="#md20a908805" x="334.551155" y="291.28" style="stroke: #000000; stroke-width: 0.8"/>
      </g>
     </g>
     <g id="text_2">
      <!-- 1 -->
      <g transform="translate(328.188655 313.476875)scale(0.2 -0.2)">
       <use xlink:href="#DejaVuSans-31"/>
      </g>
     </g>
    </g>
    <g id="xtick_3">
     <g id="line2d_5">
      <defs>
       <path id="mc635e05c6c" d="M 0 0 
L 0 2 
" style="stroke: #000000; stroke-width: 0.6"/>
      </defs>
      <g>
       <use xlink:href="#mc635e05c6c" x="34.569542" y="291.28" style="stroke: #000000; stroke-width: 0.6"/>
      </g>
     </g>
    </g>
    <g id="xtick_4">
     <g id="line2d_6">
      <g>
       <use xlink:href="#mc635e05c6c" x="41.76515" y="291.28" style="stroke: #000000; stroke-width: 0.6"/>
      </g>
     </g>
    </g>
    <g id="xtick_5">
     <g id="line2d_7">
      <g>
       <use xlink:href="#mc635e05c6c" x="47.84895" y="291.28" style="stroke: #000000; stroke-width: 0.6"/>
      </g>
     </g>
    </g>
    <g id="xtick_6">
     <g id="line2d_8">
      <g>
       <use xlink:href="#mc635e05c6c" x="53.118977" y="291.28" style="stroke: #000000; stroke-width: 0.6"/>
      </g>
     </g>
    </g>
    <g id="xtick_7">
     <g id="line2d_9">
      <g>
       <use xlink:href="#mc635e05c6c" x="57.76747" y="291.28" style="stroke: #000000; stroke-width: 0.6"/>
      </g>
     </g>
    </g>
    <g id="xtick_8">
     <g id="line2d_10">
      <g>
       <use xlink:href="#mc635e05c6c" x="89.281837" y="291.28" style="stroke: #000000; stroke-width: 0.6"/>
      </g>
     </g>
    </g>
    <g id="xtick_9">
     <g id="line2d_11">
      <g>
       <use xlink:href="#mc635e05c6c" x="105.284157" y="291.28" style="stroke: #000000; stroke-width: 0.6"/>
      </g>
     </g>
    </g>
    <g id="xtick_10">
     <g id="line2d_12">
      <g>
       <use xlink:href="#mc635e05c6c" x="116.637985" y="291.28" style="stroke: #000000; stroke-width: 0.6"/>
      </g>
     </g>
    </g>
    <g id="xtick_11">
     <g id="line2d_13">
      <g>
       <use xlink:href="#mc635e05c6c" x="125.444697" y="291.28" style="stroke: #000000; stroke-width: 0.6"/>
      </g>
     </g>
    </g>
    <g id="xtick_12">
     <g id="line2d_14">
      <g>
       <use xlink:href="#mc635e05c6c" x="132.640305" y="291.28" style="stroke: #000000; stroke-width: 0.6"/>
      </g>
     </g>
    </g>
    <g id="xtick_13">
     <g id="line2d_15">
      <g>
       <use xlink:href="#mc635e05c6c" x="138.724105" y="291.28" style="stroke: #000000; stroke-width: 0.6"/>
      </g>
     </g>
    </g>
    <g id="xtick_14">
     <g id="line2d_16">
      <g>
       <use xlink:href="#mc635e05c6c" x="143.994132" y="291.28" style="stroke: #000000; stroke-width: 0.6"/>
      </g>
     </g>
    </g>
    <g id="xtick_15">
     <g id="line2d_17">
      <g>
       <use xlink:href="#mc635e05c6c" x="148.642626" y="291.28" style="stroke: #000000; stroke-width: 0.6"/>
      </g>
     </g>
    </g>
    <g id="xtick_16">
     <g id="line2d_18">
      <g>
       <use xlink:href="#mc635e05c6c" x="180.156992" y="291.28" style="stroke: #000000; stroke-width: 0.6"/>
      </g>
     </g>
    </g>
    <g id="xtick_17">
     <g id="line2d_19">
      <g>
       <use xlink:href="#mc635e05c6c" x="196.159313" y="291.28" style="stroke: #000000; stroke-width: 0.6"/>
      </g>
     </g>
    </g>
    <g id="xtick_18">
     <g id="line2d_20">
      <g>
       <use xlink:href="#mc635e05c6c" x="207.51314" y="291.28" style="stroke: #000000; stroke-width: 0.6"/>
      </g>
     </g>
    </g>
    <g id="xtick_19">
     <g id="line2d_21">
      <g>
       <use xlink:href="#mc635e05c6c" x="216.319852" y="291.28" style="stroke: #000000; stroke-width: 0.6"/>
      </g>
     </g>
    </g>
    <g id="xtick_20">
     <g id="line2d_22">
      <g>
       <use xlink:href="#mc635e05c6c" x="223.51546" y="291.28" style="stroke: #000000; stroke-width: 0.6"/>
      </g>
     </g>
    </g>
    <g id="xtick_21">
     <g id="line2d_23">
      <g>
       <use xlink:href="#mc635e05c6c" x="229.59926" y="291.28" style="stroke: #000000; stroke-width: 0.6"/>
      </g>
     </g>
    </g>
    <g id="xtick_22">
     <g id="line2d_24">
      <g>
       <use xlink:href="#mc635e05c6c" x="234.869288" y="291.28" style="stroke: #000000; stroke-width: 0.6"/>
      </g>
     </g>
    </g>
    <g id="xtick_23">
     <g id="line2d_25">
      <g>
       <use xlink:href="#mc635e05c6c" x="239.517781" y="291.28" style="stroke: #000000; stroke-width: 0.6"/>
      </g>
     </g>
    </g>
    <g id="xtick_24">
     <g id="line2d_26">
      <g>
       <use xlink:href="#mc635e05c6c" x="271.032148" y="291.28" style="stroke: #000000; stroke-width: 0.6"/>
      </g>
     </g>
    </g>
    <g id="xtick_25">
     <g id="line2d_27">
      <g>
       <use xlink:href="#mc635e05c6c" x="287.034468" y="291.28" style="stroke: #000000; stroke-width: 0.6"/>
      </g>
     </g>
    </g>
    <g id="xtick_26">
     <g id="line2d_28">
      <g>
       <use xlink:href="#mc635e05c6c" x="298.388295" y="291.28" style="stroke: #000000; stroke-width: 0.6"/>
      </g>
     </g>
    </g>
    <g id="xtick_27">
     <g id="line2d_29">
      <g>
       <use xlink:href="#mc635e05c6c" x="307.195008" y="291.28" style="stroke: #000000; stroke-width: 0.6"/>
      </g>
     </g>
    </g>
    <g id="xtick_28">
     <g id="line2d_30">
      <g>
       <use xlink:href="#mc635e05c6c" x="314.390616" y="291.28" style="stroke: #000000; stroke-width: 0.6"/>
      </g>
     </g>
    </g>
    <g id="xtick_29">
     <g id="line2d_31">
      <g>
       <use xlink:href="#mc635e05c6c" x="320.474416" y="291.28" style="stroke: #000000; stroke-width: 0.6"/>
      </g>
     </g>
    </g>
    <g id="xtick_30">
     <g id="line2d_32">
      <g>
       <use xlink:href="#mc635e05c6c" x="325.744443" y="291.28" style="stroke: #000000; stroke-width: 0.6"/>
      </g>
     </g>
    </g>
    <g id="xtick_31">
     <g id="line2d_33">
      <g>
       <use xlink:href="#mc635e05c6c" x="330.392936" y="291.28" style="stroke: #000000; stroke-width: 0.6"/>
      </g>
     </g>
    </g>
    <g id="xtick_32">
     <g id="line2d_34">
      <g>
       <use xlink:href="#mc635e05c6c" x="361.907303" y="291.28" style="stroke: #000000; stroke-width: 0.6"/>
      </g>
     </g>
    </g>
    <g id="xtick_33">
     <g id="line2d_35">
      <g>
       <use xlink:href="#mc635e05c6c" x="377.909624" y="291.28" style="stroke: #000000; stroke-width: 0.6"/>
      </g>
     </g>
    </g>
    <g id="xtick_34">
     <g id="line2d_36">
      <g>
       <use xlink:href="#mc635e05c6c" x="389.263451" y="291.28" style="stroke: #000000; stroke-width: 0.6"/>
      </g>
     </g>
    </g>
    <g id="xtick_35">
     <g id="line2d_37">
      <g>
       <use xlink:href="#mc635e05c6c" x="398.070163" y="291.28" style="stroke: #000000; stroke-width: 0.6"/>
      </g>
     </g>
    </g>
    <g id="xtick_36">
     <g id="line2d_38">
      <g>
       <use xlink:href="#mc635e05c6c" x="405.265771" y="291.28" style="stroke: #000000; stroke-width: 0.6"/>
      </g>
     </g>
    </g>
    <g id="xtick_37">
     <g id="line2d_39">
      <g>
       <use xlink:href="#mc635e05c6c" x="411.349571" y="291.28" style="stroke: #000000; stroke-width: 0.6"/>
      </g>
     </g>
    </g>
    <g id="xtick_38">
     <g id="line2d_40">
      <g>
       <use xlink:href="#mc635e05c6c" x="416.619598" y="291.28" style="stroke: #000000; stroke-width: 0.6"/>
      </g>
     </g>
    </g>
    <g id="xtick_39">
     <g id="line2d_41">
      <g>
       <use xlink:href="#mc635e05c6c" x="421.268092" y="291.28" style="stroke: #000000; stroke-width: 0.6"/>
      </g>
     </g>
    </g>
    <g id="xtick_40">
     <g id="line2d_42">
      <g>
       <use xlink:href="#mc635e05c6c" x="452.782458" y="291.28" style="stroke: #000000; stroke-width: 0.6"/>
      </g>
     </g>
    </g>
    <g id="text_3">
     <!-- log10 of FEvals ratio -->
     <g transform="translate(141.371312 336.833125)scale(0.2 -0.2)">
      <defs>
       <path id="DejaVuSans-6c" d="M 603 4863 
L 1178 4863 
L 1178 0 
L 603 0 
L 603 4863 
z
" transform="scale(0.015625)"/>
       <path id="DejaVuSans-6f" d="M 1959 3097 
Q 1497 3097 1228 2736 
Q 959 2375 959 1747 
Q 959 1119 1226 758 
Q 1494 397 1959 397 
Q 2419 397 2687 759 
Q 2956 1122 2956 1747 
Q 2956 2369 2687 2733 
Q 2419 3097 1959 3097 
z
M 1959 3584 
Q 2709 3584 3137 3096 
Q 3566 2609 3566 1747 
Q 3566 888 3137 398 
Q 2709 -91 1959 -91 
Q 1206 -91 779 398 
Q 353 888 353 1747 
Q 353 2609 779 3096 
Q 1206 3584 1959 3584 
z
" transform="scale(0.015625)"/>
       <path id="DejaVuSans-67" d="M 2906 1791 
Q 2906 2416 2648 2759 
Q 2391 3103 1925 3103 
Q 1463 3103 1205 2759 
Q 947 2416 947 1791 
Q 947 1169 1205 825 
Q 1463 481 1925 481 
Q 2391 481 2648 825 
Q 2906 1169 2906 1791 
z
M 3481 434 
Q 3481 -459 3084 -895 
Q 2688 -1331 1869 -1331 
Q 1566 -1331 1297 -1286 
Q 1028 -1241 775 -1147 
L 775 -588 
Q 1028 -725 1275 -790 
Q 1522 -856 1778 -856 
Q 2344 -856 2625 -561 
Q 2906 -266 2906 331 
L 2906 616 
Q 2728 306 2450 153 
Q 2172 0 1784 0 
Q 1141 0 747 490 
Q 353 981 353 1791 
Q 353 2603 747 3093 
Q 1141 3584 1784 3584 
Q 2172 3584 2450 3431 
Q 2728 3278 2906 2969 
L 2906 3500 
L 3481 3500 
L 3481 434 
z
" transform="scale(0.015625)"/>
       <path id="DejaVuSans-30" d="M 2034 4250 
Q 1547 4250 1301 3770 
Q 1056 3291 1056 2328 
Q 1056 1369 1301 889 
Q 1547 409 2034 409 
Q 2525 409 2770 889 
Q 3016 1369 3016 2328 
Q 3016 3291 2770 3770 
Q 2525 4250 2034 4250 
z
M 2034 4750 
Q 2819 4750 3233 4129 
Q 3647 3509 3647 2328 
Q 3647 1150 3233 529 
Q 2819 -91 2034 -91 
Q 1250 -91 836 529 
Q 422 1150 422 2328 
Q 422 3509 836 4129 
Q 1250 4750 2034 4750 
z
" transform="scale(0.015625)"/>
       <path id="DejaVuSans-20" transform="scale(0.015625)"/>
       <path id="DejaVuSans-66" d="M 2375 4863 
L 2375 4384 
L 1825 4384 
Q 1516 4384 1395 4259 
Q 1275 4134 1275 3809 
L 1275 3500 
L 2222 3500 
L 2222 3053 
L 1275 3053 
L 1275 0 
L 697 0 
L 697 3053 
L 147 3053 
L 147 3500 
L 697 3500 
L 697 3744 
Q 697 4328 969 4595 
Q 1241 4863 1831 4863 
L 2375 4863 
z
" transform="scale(0.015625)"/>
       <path id="DejaVuSans-46" d="M 628 4666 
L 3309 4666 
L 3309 4134 
L 1259 4134 
L 1259 2759 
L 3109 2759 
L 3109 2228 
L 1259 2228 
L 1259 0 
L 628 0 
L 628 4666 
z
" transform="scale(0.015625)"/>
       <path id="DejaVuSans-45" d="M 628 4666 
L 3578 4666 
L 3578 4134 
L 1259 4134 
L 1259 2753 
L 3481 2753 
L 3481 2222 
L 1259 2222 
L 1259 531 
L 3634 531 
L 3634 0 
L 628 0 
L 628 4666 
z
" transform="scale(0.015625)"/>
       <path id="DejaVuSans-76" d="M 191 3500 
L 800 3500 
L 1894 563 
L 2988 3500 
L 3597 3500 
L 2284 0 
L 1503 0 
L 191 3500 
z
" transform="scale(0.015625)"/>
       <path id="DejaVuSans-61" d="M 2194 1759 
Q 1497 1759 1228 1600 
Q 959 1441 959 1056 
Q 959 750 1161 570 
Q 1363 391 1709 391 
Q 2188 391 2477 730 
Q 2766 1069 2766 1631 
L 2766 1759 
L 2194 1759 
z
M 3341 1997 
L 3341 0 
L 2766 0 
L 2766 531 
Q 2569 213 2275 61 
Q 1981 -91 1556 -91 
Q 1019 -91 701 211 
Q 384 513 384 1019 
Q 384 1609 779 1909 
Q 1175 2209 1959 2209 
L 2766 2209 
L 2766 2266 
Q 2766 2663 2505 2880 
Q 2244 3097 1772 3097 
Q 1472 3097 1187 3025 
Q 903 2953 641 2809 
L 641 3341 
Q 956 3463 1253 3523 
Q 1550 3584 1831 3584 
Q 2591 3584 2966 3190 
Q 3341 2797 3341 1997 
z
" transform="scale(0.015625)"/>
       <path id="DejaVuSans-73" d="M 2834 3397 
L 2834 2853 
Q 2591 2978 2328 3040 
Q 2066 3103 1784 3103 
Q 1356 3103 1142 2972 
Q 928 2841 928 2578 
Q 928 2378 1081 2264 
Q 1234 2150 1697 2047 
L 1894 2003 
Q 2506 1872 2764 1633 
Q 3022 1394 3022 966 
Q 3022 478 2636 193 
Q 2250 -91 1575 -91 
Q 1294 -91 989 -36 
Q 684 19 347 128 
L 347 722 
Q 666 556 975 473 
Q 1284 391 1588 391 
Q 1994 391 2212 530 
Q 2431 669 2431 922 
Q 2431 1156 2273 1281 
Q 2116 1406 1581 1522 
L 1381 1569 
Q 847 1681 609 1914 
Q 372 2147 372 2553 
Q 372 3047 722 3315 
Q 1072 3584 1716 3584 
Q 2034 3584 2315 3537 
Q 2597 3491 2834 3397 
z
" transform="scale(0.015625)"/>
       <path id="DejaVuSans-72" d="M 2631 2963 
Q 2534 3019 2420 3045 
Q 2306 3072 2169 3072 
Q 1681 3072 1420 2755 
Q 1159 2438 1159 1844 
L 1159 0 
L 581 0 
L 581 3500 
L 1159 3500 
L 1159 2956 
Q 1341 3275 1631 3429 
Q 1922 3584 2338 3584 
Q 2397 3584 2469 3576 
Q 2541 3569 2628 3553 
L 2631 2963 
z
" transform="scale(0.015625)"/>
       <path id="DejaVuSans-74" d="M 1172 4494 
L 1172 3500 
L 2356 3500 
L 2356 3053 
L 1172 3053 
L 1172 1153 
Q 1172 725 1289 603 
Q 1406 481 1766 481 
L 2356 481 
L 2356 0 
L 1766 0 
Q 1100 0 847 248 
Q 594 497 594 1153 
L 594 3053 
L 172 3053 
L 172 3500 
L 594 3500 
L 594 4494 
L 1172 4494 
z
" transform="scale(0.015625)"/>
       <path id="DejaVuSans-69" d="M 603 3500 
L 1178 3500 
L 1178 0 
L 603 0 
L 603 3500 
z
M 603 4863 
L 1178 4863 
L 1178 4134 
L 603 4134 
L 603 4863 
z
" transform="scale(0.015625)"/>
      </defs>
      <use xlink:href="#DejaVuSans-6c"/>
      <use xlink:href="#DejaVuSans-6f" x="27.783203"/>
      <use xlink:href="#DejaVuSans-67" x="88.964844"/>
      <use xlink:href="#DejaVuSans-31" x="152.441406"/>
      <use xlink:href="#DejaVuSans-30" x="216.064453"/>
      <use xlink:href="#DejaVuSans-20" x="279.6875"/>
      <use xlink:href="#DejaVuSans-6f" x="311.474609"/>
      <use xlink:href="#DejaVuSans-66" x="372.65625"/>
      <use xlink:href="#DejaVuSans-20" x="407.861328"/>
      <use xlink:href="#DejaVuSans-46" x="439.648438"/>
      <use xlink:href="#DejaVuSans-45" x="497.167969"/>
      <use xlink:href="#DejaVuSans-76" x="560.351562"/>
      <use xlink:href="#DejaVuSans-61" x="619.53125"/>
      <use xlink:href="#DejaVuSans-6c" x="680.810547"/>
      <use xlink:href="#DejaVuSans-73" x="708.59375"/>
      <use xlink:href="#DejaVuSans-20" x="760.693359"/>
      <use xlink:href="#DejaVuSans-72" x="792.480469"/>
      <use xlink:href="#DejaVuSans-61" x="833.59375"/>
      <use xlink:href="#DejaVuSans-74" x="894.873047"/>
      <use xlink:href="#DejaVuSans-69" x="934.082031"/>
      <use xlink:href="#DejaVuSans-6f" x="961.865234"/>
     </g>
    </g>
   </g>
   <g id="matplotlib.axis_2">
    <g id="ytick_1">
     <g id="line2d_43">
      <path d="M 34.16 288.453725 
L 453.192 288.453725 
" clip-path="url(#pdb5797124e)" style="fill: none; stroke: #b0b0b0; stroke-width: 0.8; stroke-linecap: square"/>
     </g>
     <g id="line2d_44">
      <defs>
       <path id="m324ee4ed36" d="M 0 0 
L -3.5 0 
" style="stroke: #000000; stroke-width: 0.8"/>
      </defs>
      <g>
       <use xlink:href="#m324ee4ed36" x="34.16" y="288.453725" style="stroke: #000000; stroke-width: 0.8"/>
      </g>
     </g>
    </g>
    <g id="ytick_2">
     <g id="line2d_45">
      <path d="M 34.16 217.796863 
L 453.192 217.796863 
" clip-path="url(#pdb5797124e)" style="fill: none; stroke: #b0b0b0; stroke-width: 0.8; stroke-linecap: square"/>
     </g>
     <g id="line2d_46">
      <g>
       <use xlink:href="#m324ee4ed36" x="34.16" y="217.796863" style="stroke: #000000; stroke-width: 0.8"/>
      </g>
     </g>
    </g>
    <g id="ytick_3">
     <g id="line2d_47">
      <path d="M 34.16 147.14 
L 453.192 147.14 
" clip-path="url(#pdb5797124e)" style="fill: none; stroke: #b0b0b0; stroke-width: 0.8; stroke-linecap: square"/>
     </g>
     <g id="line2d_48">
      <g>
       <use xlink:href="#m324ee4ed36" x="34.16" y="147.14" style="stroke: #000000; stroke-width: 0.8"/>
      </g>
     </g>
    </g>
    <g id="ytick_4">
     <g id="line2d_49">
      <path d="M 34.16 76.483137 
L 453.192 76.483137 
" clip-path="url(#pdb5797124e)" style="fill: none; stroke: #b0b0b0; stroke-width: 0.8; stroke-linecap: square"/>
     </g>
     <g id="line2d_50">
      <g>
       <use xlink:href="#m324ee4ed36" x="34.16" y="76.483137" style="stroke: #000000; stroke-width: 0.8"/>
      </g>
     </g>
    </g>
    <g id="ytick_5">
     <g id="line2d_51">
      <path d="M 34.16 5.826275 
L 453.192 5.826275 
" clip-path="url(#pdb5797124e)" style="fill: none; stroke: #b0b0b0; stroke-width: 0.8; stroke-linecap: square"/>
     </g>
     <g id="line2d_52">
      <g>
       <use xlink:href="#m324ee4ed36" x="34.16" y="5.826275" style="stroke: #000000; stroke-width: 0.8"/>
      </g>
     </g>
    </g>
    <g id="text_4">
     <!-- proportion of trials -->
     <g transform="translate(19.000625 240.14625)rotate(-90)scale(0.2 -0.2)">
      <defs>
       <path id="DejaVuSans-70" d="M 1159 525 
L 1159 -1331 
L 581 -1331 
L 581 3500 
L 1159 3500 
L 1159 2969 
Q 1341 3281 1617 3432 
Q 1894 3584 2278 3584 
Q 2916 3584 3314 3078 
Q 3713 2572 3713 1747 
Q 3713 922 3314 415 
Q 2916 -91 2278 -91 
Q 1894 -91 1617 61 
Q 1341 213 1159 525 
z
M 3116 1747 
Q 3116 2381 2855 2742 
Q 2594 3103 2138 3103 
Q 1681 3103 1420 2742 
Q 1159 2381 1159 1747 
Q 1159 1113 1420 752 
Q 1681 391 2138 391 
Q 2594 391 2855 752 
Q 3116 1113 3116 1747 
z
" transform="scale(0.015625)"/>
       <path id="DejaVuSans-6e" d="M 3513 2113 
L 3513 0 
L 2938 0 
L 2938 2094 
Q 2938 2591 2744 2837 
Q 2550 3084 2163 3084 
Q 1697 3084 1428 2787 
Q 1159 2491 1159 1978 
L 1159 0 
L 581 0 
L 581 3500 
L 1159 3500 
L 1159 2956 
Q 1366 3272 1645 3428 
Q 1925 3584 2291 3584 
Q 2894 3584 3203 3211 
Q 3513 2838 3513 2113 
z
" transform="scale(0.015625)"/>
      </defs>
      <use xlink:href="#DejaVuSans-70"/>
      <use xlink:href="#DejaVuSans-72" x="63.476562"/>
      <use xlink:href="#DejaVuSans-6f" x="102.339844"/>
      <use xlink:href="#DejaVuSans-70" x="163.521484"/>
      <use xlink:href="#DejaVuSans-6f" x="226.998047"/>
      <use xlink:href="#DejaVuSans-72" x="288.179688"/>
      <use xlink:href="#DejaVuSans-74" x="329.292969"/>
      <use xlink:href="#DejaVuSans-69" x="368.501953"/>
      <use xlink:href="#DejaVuSans-6f" x="396.285156"/>
      <use xlink:href="#DejaVuSans-6e" x="457.466797"/>
      <use xlink:href="#DejaVuSans-20" x="520.845703"/>
      <use xlink:href="#DejaVuSans-6f" x="552.632812"/>
      <use xlink:href="#DejaVuSans-66" x="613.814453"/>
      <use xlink:href="#DejaVuSans-20" x="649.019531"/>
      <use xlink:href="#DejaVuSans-74" x="680.806641"/>
      <use xlink:href="#DejaVuSans-72" x="720.015625"/>
      <use xlink:href="#DejaVuSans-69" x="761.128906"/>
      <use xlink:href="#DejaVuSans-61" x="788.912109"/>
      <use xlink:href="#DejaVuSans-6c" x="850.191406"/>
      <use xlink:href="#DejaVuSans-73" x="877.974609"/>
     </g>
    </g>
   </g>
   <g id="line2d_53">
    <path d="M 34.16 288.453725 
L 49.35741 288.453725 
L 49.35741 287.700052 
L 60.759104 287.700052 
L 60.759104 286.946379 
L 90.079169 286.946379 
L 90.079169 286.192706 
L 92.715878 286.192706 
L 92.715878 285.439033 
L 104.117573 285.439033 
L 104.117573 284.685359 
L 115.090077 284.685359 
L 115.090077 283.931686 
L 133.437637 283.931686 
L 133.437637 283.178013 
L 158.448545 283.178013 
L 158.448545 282.42434 
L 160.304937 282.42434 
L 160.304937 281.670667 
L 163.430494 281.670667 
L 163.430494 280.916993 
L 165.447909 280.916993 
L 165.447909 280.16332 
L 169.398692 280.16332 
L 169.398692 279.409647 
L 171.35028 279.409647 
L 171.35028 278.655974 
L 172.961384 278.655974 
L 172.961384 277.902301 
L 173.953415 277.902301 
L 173.953415 277.148627 
L 174.784321 277.148627 
L 174.832188 275.641281 
L 177.176968 275.641281 
L 177.176968 274.887608 
L 177.559643 274.887608 
L 177.655273 273.380261 
L 179.042568 273.380261 
L 179.042568 272.626588 
L 181.506318 272.626588 
L 181.506318 271.872915 
L 182.282535 271.872915 
L 182.282535 271.119242 
L 182.751974 271.119242 
L 182.751974 270.365569 
L 183.274233 270.365569 
L 183.274233 269.611895 
L 184.799907 269.611895 
L 184.885136 266.597203 
L 184.950265 266.597203 
L 184.990721 264.336183 
L 185.11742 264.336183 
L 185.11742 263.58251 
L 185.355109 263.58251 
L 185.355109 262.828837 
L 185.807083 262.828837 
L 185.807083 262.075163 
L 186.186016 262.075163 
L 186.186016 261.32149 
L 186.488909 261.32149 
L 186.488909 260.567817 
L 186.64929 260.567817 
L 186.64929 259.814144 
L 186.941076 259.814144 
L 186.941076 259.060471 
L 187.203518 259.060471 
L 187.299148 257.553124 
L 187.591754 257.553124 
L 187.591754 256.799451 
L 187.957827 256.799451 
L 187.957827 256.045778 
L 188.417206 256.045778 
L 188.417206 255.292105 
L 188.578662 255.292105 
L 188.578662 254.538431 
L 189.836126 254.538431 
L 189.836126 253.784758 
L 190.093238 253.784758 
L 190.093238 253.031085 
L 190.414926 253.031085 
L 190.414926 252.277412 
L 190.571779 252.277412 
L 190.571779 251.523739 
L 191.619144 251.523739 
L 191.619144 250.770065 
L 191.926411 250.770065 
L 191.926411 250.016392 
L 192.286866 250.016392 
L 192.397746 248.509046 
L 192.905777 248.509046 
L 192.905777 247.755373 
L 193.378642 247.755373 
L 193.378642 247.001699 
L 193.629927 247.001699 
L 193.629927 246.248026 
L 193.760341 246.248026 
L 193.760341 245.494353 
L 193.945653 245.494353 
L 193.945653 244.74068 
L 194.063032 244.74068 
L 194.063032 243.987007 
L 194.443782 243.987007 
L 194.443782 243.233333 
L 194.634596 243.233333 
L 194.634596 241.725987 
L 194.761295 241.725987 
L 194.797818 240.218641 
L 195.450959 240.218641 
L 195.450959 239.464967 
L 195.688958 239.464967 
L 195.688958 238.711294 
L 195.914466 238.711294 
L 195.914466 237.957621 
L 196.28683 237.957621 
L 196.28683 236.450275 
L 196.917908 236.450275 
L 196.917908 235.696601 
L 197.216527 235.696601 
L 197.216527 234.942928 
L 197.646983 234.942928 
L 197.654094 233.435582 
L 197.843211 233.435582 
L 197.843211 232.681908 
L 198.706427 232.681908 
L 198.706427 231.928235 
L 199.480001 231.928235 
L 199.552652 230.420889 
L 199.771828 230.420889 
L 199.771828 229.667216 
L 200.650075 229.667216 
L 200.650075 228.913542 
L 201.26302 228.913542 
L 201.26302 228.159869 
L 201.486971 228.159869 
L 201.486971 227.406196 
L 202.069251 227.406196 
L 202.069251 226.652523 
L 202.578692 226.652523 
L 202.578692 225.89885 
L 203.185899 225.89885 
L 203.185899 225.145176 
L 203.706908 225.145176 
L 203.79944 223.63783 
L 203.997868 223.63783 
L 203.997868 222.884157 
L 204.152253 222.884157 
L 204.18934 221.37681 
L 204.925526 221.37681 
L 204.925526 220.623137 
L 205.114516 220.623137 
L 205.114516 219.869464 
L 205.347348 219.869464 
L 205.377478 218.362118 
L 205.473108 218.362118 
L 205.473108 217.608444 
L 205.807933 217.608444 
L 205.903564 216.101098 
L 206.047292 216.101098 
L 206.117957 214.593752 
L 206.541763 214.593752 
L 206.59898 213.086405 
L 206.824084 213.086405 
L 206.854143 211.579059 
L 207.241843 211.579059 
L 207.241843 210.825386 
L 207.815207 210.825386 
L 207.815207 210.071712 
L 208.142457 210.071712 
L 208.142457 209.318039 
L 208.62109 209.318039 
L 208.62109 208.564366 
L 208.752701 208.564366 
L 208.793135 207.05702 
L 209.159208 207.05702 
L 209.159208 206.303346 
L 209.491239 206.303346 
L 209.491239 205.549673 
L 209.910372 205.549673 
L 209.910372 204.796 
L 210.10037 204.796 
L 210.108122 203.288654 
L 210.530826 203.288654 
L 210.56105 201.781307 
L 210.68185 201.781307 
L 210.68185 201.027634 
L 210.927124 201.027634 
L 210.927124 200.273961 
L 211.130847 200.273961 
L 211.130847 199.520288 
L 211.586404 199.520288 
L 211.616307 198.012941 
L 211.765664 198.012941 
L 211.765664 197.259268 
L 211.921714 197.259268 
L 211.921714 195.751922 
L 212.072038 195.751922 
L 212.072038 194.998248 
L 212.237082 194.998248 
L 212.237082 194.244575 
L 212.384816 194.244575 
L 212.384816 193.490902 
L 212.533027 193.490902 
L 212.617742 191.229882 
L 212.808556 191.229882 
L 212.808556 189.722536 
L 212.935254 189.722536 
L 212.935254 188.968863 
L 213.048198 188.968863 
L 213.124367 187.461516 
L 213.218788 187.461516 
L 213.239012 185.200497 
L 213.36571 185.200497 
L 213.384222 183.69315 
L 213.488247 183.69315 
L 213.488713 182.185804 
L 213.624918 182.185804 
L 213.624918 181.432131 
L 213.813196 181.432131 
L 213.845056 179.924784 
L 214.055374 179.924784 
L 214.107158 178.417438 
L 214.675174 178.417438 
L 214.675174 177.663765 
L 214.831308 177.663765 
L 214.907889 176.156418 
L 215.060254 176.156418 
L 215.060254 175.402745 
L 215.256163 175.402745 
L 215.256163 174.649072 
L 215.50608 174.649072 
L 215.50608 173.895399 
L 215.741812 173.895399 
L 215.741812 173.141725 
L 215.875073 173.141725 
L 215.892523 171.634379 
L 216.024537 171.634379 
L 216.024537 170.880706 
L 216.319852 170.880706 
L 216.319852 170.127033 
L 216.599223 170.127033 
L 216.599223 169.373359 
L 216.932195 169.373359 
L 217.027979 167.866013 
L 217.264756 167.866013 
L 217.301659 166.358667 
L 217.414157 166.358667 
L 217.414157 165.604993 
L 217.551105 165.604993 
L 217.65396 164.097647 
L 217.764164 164.097647 
L 217.821139 162.590301 
L 217.898726 162.590301 
L 217.977116 161.082954 
L 218.014995 161.082954 
L 218.084416 159.575608 
L 218.275255 159.575608 
L 218.313911 158.068261 
L 218.980431 158.068261 
L 219.027612 156.560915 
L 219.093194 156.560915 
L 219.093194 155.807242 
L 219.436979 155.807242 
L 219.436979 155.053569 
L 219.662723 155.053569 
L 219.662723 154.299895 
L 219.804459 154.299895 
L 219.867435 152.792549 
L 219.926614 152.792549 
L 220.022244 151.285203 
L 220.108522 151.285203 
L 220.108522 150.531529 
L 220.449493 150.531529 
L 220.449493 149.777856 
L 221.116489 149.777856 
L 221.116489 149.024183 
L 221.527698 149.024183 
L 221.527698 148.27051 
L 221.733076 148.27051 
L 221.733076 147.516837 
L 221.880867 147.516837 
L 221.880867 146.763163 
L 222.311323 146.763163 
L 222.311323 146.00949 
L 222.644346 146.00949 
L 222.644346 145.255817 
L 222.768242 145.255817 
L 222.768242 144.502144 
L 223.045106 144.502144 
L 223.045106 143.748471 
L 223.323409 143.748471 
L 223.323409 142.241124 
L 223.647788 142.241124 
L 223.647788 141.487451 
L 224.383973 141.487451 
L 224.383973 140.733778 
L 224.649507 140.733778 
L 224.649507 139.980105 
L 225.585343 139.980105 
L 225.606894 137.719085 
L 226.251864 137.719085 
L 226.299044 135.458065 
L 226.651834 135.458065 
L 226.651834 134.704392 
L 227.166879 134.704392 
L 227.166879 133.950719 
L 227.357692 133.950719 
L 227.357692 132.443373 
L 227.484391 132.443373 
L 227.51396 130.936026 
L 227.620992 130.936026 
L 227.620992 130.182353 
L 228.174055 130.182353 
L 228.227661 127.921333 
L 228.731161 127.921333 
L 228.731161 127.16766 
L 229.163161 127.16766 
L 229.163161 126.413987 
L 229.304806 126.413987 
L 229.304806 125.660314 
L 229.701638 125.660314 
L 229.735262 124.152967 
L 231.782817 124.152967 
L 231.782817 123.399294 
L 232.203097 123.399294 
L 232.203097 122.645621 
L 232.643098 122.645621 
L 232.643098 121.891948 
L 233.119505 121.891948 
L 233.119505 121.138275 
L 233.271643 121.138275 
L 233.271643 120.384601 
L 233.877982 120.384601 
L 233.986116 118.123582 
L 234.52866 118.123582 
L 234.52866 117.369908 
L 234.667412 117.369908 
L 234.667412 116.616235 
L 234.894734 116.616235 
L 234.894734 115.862562 
L 235.35097 115.862562 
L 235.35097 115.108889 
L 236.430004 115.108889 
L 236.430004 114.355216 
L 237.082947 114.355216 
L 237.082947 113.601542 
L 237.351832 113.601542 
L 237.351832 112.847869 
L 238.423982 112.847869 
L 238.466137 111.340523 
L 238.615538 111.340523 
L 238.615538 110.58685 
L 239.090502 110.58685 
L 239.137683 109.079503 
L 239.216377 109.079503 
L 239.262907 106.818484 
L 239.428186 106.818484 
L 239.428186 106.06481 
L 239.686082 106.06481 
L 239.686082 105.311137 
L 239.842683 105.311137 
L 239.842683 104.557464 
L 240.234053 104.557464 
L 240.294575 103.050118 
L 240.383453 103.050118 
L 240.383453 102.296444 
L 240.516988 102.296444 
L 240.574936 100.035425 
L 240.942202 100.035425 
L 240.984292 98.528078 
L 241.103332 98.528078 
L 241.103332 97.774405 
L 241.372657 97.774405 
L 241.372657 97.020732 
L 241.650875 97.020732 
L 241.650875 96.267059 
L 241.910085 96.267059 
L 241.910085 95.513386 
L 242.059485 95.513386 
L 242.06249 94.006039 
L 242.660324 94.006039 
L 242.660324 93.252366 
L 242.909635 93.252366 
L 242.909635 92.498693 
L 243.41879 92.498693 
L 243.41879 91.74502 
L 243.676 91.74502 
L 243.738523 34.465856 
L 243.853943 34.465856 
L 243.853943 33.712183 
L 245.043791 33.712183 
L 245.094822 32.204837 
L 245.710311 32.204837 
L 245.794951 29.943817 
L 246.225407 29.943817 
L 246.225407 29.190144 
L 250.617803 29.190144 
L 250.617803 27.682797 
L 252.643473 27.682797 
L 252.643473 26.175451 
L 255.491338 26.175451 
L 255.491338 25.421778 
L 258.130413 25.421778 
L 258.130413 24.668105 
L 259.678321 24.668105 
L 259.678321 23.914431 
L 260.344088 23.914431 
L 260.344088 23.160758 
L 264.201663 23.160758 
L 264.201663 22.407085 
L 264.351063 22.407085 
L 264.439094 20.899739 
L 264.951902 20.899739 
L 264.951902 20.146065 
L 266.030101 20.146065 
L 266.030101 19.392392 
L 267.3864 19.392392 
L 267.3864 18.638719 
L 270.423397 18.638719 
L 270.423397 17.885046 
L 277.654381 17.885046 
L 277.654381 16.377699 
L 287.034468 16.377699 
L 287.034468 15.624026 
L 294.954254 15.624026 
L 294.954254 14.870353 
L 295.434305 14.870353 
L 295.434305 14.11668 
L 297.557389 14.11668 
L 297.557389 13.363007 
L 298.388295 13.363007 
L 298.388295 12.609333 
L 300.780942 12.609333 
L 300.780942 11.85566 
L 308.48911 11.85566 
L 308.48911 10.348314 
L 316.00172 10.348314 
L 316.00172 9.594641 
L 317.549628 9.594641 
L 317.549628 8.840967 
L 322.310402 8.840967 
L 322.310402 8.087294 
L 335.525688 8.087294 
L 335.525688 6.579948 
L 353.305612 6.579948 
L 353.305612 5.826275 
L 453.192 5.826275 
L 453.192 5.826275 
" clip-path="url(#pdb5797124e)" style="fill: none; stroke: #000000; stroke-width: 3; stroke-linecap: square"/>
   </g>
   <g id="line2d_54">
    <path clip-path="url(#pdb5797124e)" style="fill: none; stroke: #000000; stroke-width: 3; stroke-linecap: square"/>
   </g>
   <g id="line2d_55">
    <path d="M 34.16 288.453725 
L 148.332294 288.453725 
L 148.332294 287.700052 
L 150.076123 287.700052 
L 150.076123 286.946379 
L 152.910501 286.946379 
L 153.002112 285.439033 
L 164.200973 285.439033 
L 164.200973 284.685359 
L 173.104422 284.685359 
L 173.104422 283.931686 
L 173.962459 283.931686 
L 173.962459 283.178013 
L 176.09599 283.178013 
L 176.09599 282.42434 
L 177.94157 282.42434 
L 177.94157 281.670667 
L 179.025124 281.670667 
L 179.025124 280.916993 
L 180.659189 280.916993 
L 180.659189 280.16332 
L 181.493794 280.16332 
L 181.493794 279.409647 
L 182.504778 279.409647 
L 182.504778 278.655974 
L 185.529164 278.655974 
L 185.529164 277.902301 
L 192.796351 277.902301 
L 192.796351 277.148627 
L 193.738418 277.148627 
L 193.738418 276.394954 
L 194.54018 276.394954 
L 194.54018 275.641281 
L 195.404549 275.641281 
L 195.404549 274.887608 
L 196.163454 274.887608 
L 196.163454 274.133935 
L 197.466169 274.133935 
L 197.466169 273.380261 
L 197.907283 273.380261 
L 197.907283 272.626588 
L 199.671669 272.626588 
L 199.671669 271.872915 
L 200.833271 271.872915 
L 200.833271 271.119242 
L 201.224653 271.119242 
L 201.224653 270.365569 
L 201.623662 270.365569 
L 201.623662 269.611895 
L 201.975669 269.611895 
L 201.975669 268.858222 
L 202.368054 268.858222 
L 202.368054 268.104549 
L 202.955441 268.104549 
L 202.970493 266.597203 
L 203.176646 266.597203 
L 203.176646 265.843529 
L 203.610232 265.843529 
L 203.610232 265.089856 
L 203.755901 265.089856 
L 203.755901 264.336183 
L 204.588352 264.336183 
L 204.588352 263.58251 
L 205.163215 263.58251 
L 205.163215 262.828837 
L 205.707894 262.828837 
L 205.707894 262.075163 
L 206.141336 262.075163 
L 206.250559 260.567817 
L 206.319331 260.567817 
L 206.319331 259.814144 
L 206.669426 259.814144 
L 206.669426 259.060471 
L 207.350924 259.060471 
L 207.370043 257.553124 
L 207.694464 257.553124 
L 207.803543 255.292105 
L 208.405223 255.292105 
L 208.483661 253.784758 
L 208.66503 253.784758 
L 208.672584 252.277412 
L 209.014737 252.277412 
L 209.014737 251.523739 
L 209.212186 251.523739 
L 209.322036 250.016392 
L 209.366988 250.016392 
L 209.366988 249.262719 
L 209.668046 249.262719 
L 209.751188 247.755373 
L 209.812292 247.755373 
L 209.812292 247.001699 
L 210.334791 247.001699 
L 210.435654 244.74068 
L 210.560787 244.74068 
L 210.560787 243.987007 
L 211.033119 243.987007 
L 211.137533 242.47966 
L 211.267882 242.47966 
L 211.308605 240.972314 
L 211.478423 240.972314 
L 211.478423 240.218641 
L 211.647545 240.218641 
L 211.703181 237.957621 
L 212.032132 237.957621 
L 212.032132 237.203948 
L 212.286726 237.203948 
L 212.396536 235.696601 
L 212.422224 235.696601 
L 212.512781 234.189255 
L 212.590295 234.189255 
L 212.632736 232.681908 
L 212.752708 232.681908 
L 212.752708 231.928235 
L 213.011711 231.928235 
L 213.089526 230.420889 
L 213.175571 230.420889 
L 213.175571 229.667216 
L 213.400344 229.667216 
L 213.400344 228.913542 
L 213.599539 228.913542 
L 213.689751 227.406196 
L 213.948933 227.406196 
L 213.948933 226.652523 
L 214.062668 226.652523 
L 214.062668 225.89885 
L 214.294943 225.89885 
L 214.294943 225.145176 
L 214.418839 225.145176 
L 214.503814 222.884157 
L 214.667871 222.884157 
L 214.702976 221.37681 
L 214.781227 221.37681 
L 214.87293 219.869464 
L 214.918489 219.869464 
L 214.972619 218.362118 
L 215.062551 218.362118 
L 215.076096 216.854771 
L 215.452524 216.854771 
L 215.47747 215.347425 
L 215.586108 215.347425 
L 215.586108 214.593752 
L 215.874721 214.593752 
L 215.937699 213.086405 
L 216.054216 213.086405 
L 216.054216 212.332732 
L 216.280098 212.332732 
L 216.330078 210.825386 
L 216.564228 210.825386 
L 216.654969 209.318039 
L 216.924612 209.318039 
L 216.946586 207.810693 
L 217.139677 207.810693 
L 217.139677 207.05702 
L 217.466283 207.05702 
L 217.568479 204.796 
L 217.593263 204.796 
L 217.593263 204.042327 
L 217.716423 204.042327 
L 217.755565 202.53498 
L 218.074725 202.53498 
L 218.074725 201.781307 
L 218.226435 201.781307 
L 218.314213 200.273961 
L 218.641014 200.273961 
L 218.641539 198.766614 
L 218.911182 198.766614 
L 218.911182 198.012941 
L 219.619659 198.012941 
L 219.619659 197.259268 
L 219.818554 197.259268 
L 219.913051 194.244575 
L 220.215698 194.244575 
L 220.215698 193.490902 
L 220.560047 193.490902 
L 220.560047 192.737229 
L 220.779003 192.737229 
L 220.779003 191.983556 
L 220.935581 191.983556 
L 220.935581 191.229882 
L 221.281866 191.229882 
L 221.281866 190.476209 
L 221.551509 190.476209 
L 221.551509 189.722536 
L 222.254261 189.722536 
L 222.254261 188.968863 
L 222.405627 188.968863 
L 222.405627 188.21519 
L 222.744542 188.21519 
L 222.744542 187.461516 
L 223.489181 187.461516 
L 223.489181 186.707843 
L 223.927149 186.707843 
L 223.927149 185.95417 
L 224.71029 185.95417 
L 224.71029 185.200497 
L 225.123246 185.200497 
L 225.123246 184.446824 
L 225.77273 184.446824 
L 225.77273 183.69315 
L 225.957851 183.69315 
L 225.957851 182.939477 
L 226.575559 182.939477 
L 226.575559 182.185804 
L 226.856283 182.185804 
L 226.856283 181.432131 
L 226.968835 181.432131 
L 226.968835 180.678458 
L 227.13656 180.678458 
L 227.13656 179.924784 
L 227.588338 179.924784 
L 227.588338 179.171111 
L 227.776983 179.171111 
L 227.776983 178.417438 
L 228.134374 178.417438 
L 228.134374 177.663765 
L 228.490348 177.663765 
L 228.490348 176.910092 
L 228.804141 176.910092 
L 228.804141 176.156418 
L 229.249445 176.156418 
L 229.324953 174.649072 
L 229.735269 174.649072 
L 229.735269 173.895399 
L 229.993221 173.895399 
L 229.993221 173.141725 
L 230.132384 173.141725 
L 230.132384 172.388052 
L 230.335937 172.388052 
L 230.335937 171.634379 
L 230.577688 171.634379 
L 230.577688 170.880706 
L 231.081094 170.880706 
L 231.101298 169.373359 
L 231.526399 169.373359 
L 231.526399 168.619686 
L 231.720734 168.619686 
L 231.720734 167.866013 
L 231.833689 167.866013 
L 231.908667 166.358667 
L 232.189861 166.358667 
L 232.198445 164.85132 
L 232.353972 164.85132 
L 232.353972 164.097647 
L 232.575156 164.097647 
L 232.575156 163.343974 
L 233.020461 163.343974 
L 233.094853 161.836627 
L 233.132335 161.836627 
L 233.161932 160.329281 
L 233.360323 160.329281 
L 233.384135 158.821935 
L 233.518104 158.821935 
L 233.540157 157.314588 
L 233.82944 157.314588 
L 233.82944 156.560915 
L 233.943403 156.560915 
L 233.943403 155.807242 
L 234.110643 155.807242 
L 234.110643 155.053569 
L 234.269584 155.053569 
L 234.269584 154.299895 
L 234.466814 154.299895 
L 234.466814 153.546222 
L 234.714888 153.546222 
L 234.714888 152.792549 
L 234.938216 152.792549 
L 234.938216 152.038876 
L 235.294387 152.038876 
L 235.312313 150.531529 
L 235.54162 150.531529 
L 235.604705 149.024183 
L 235.662408 149.024183 
L 235.662408 148.27051 
L 235.782086 148.27051 
L 235.782086 147.516837 
L 235.960876 147.516837 
L 236.040009 145.255817 
L 236.079029 145.255817 
L 236.124401 143.748471 
L 236.413684 143.748471 
L 236.480573 142.241124 
L 236.769855 142.241124 
L 236.769855 141.487451 
L 237.284605 141.487451 
L 237.299132 139.980105 
L 237.655304 139.980105 
L 237.663884 138.472758 
L 238.571169 138.472758 
L 238.571169 137.719085 
L 238.716977 137.719085 
L 238.716977 136.965412 
L 238.92734 136.965412 
L 239.031577 135.458065 
L 239.633417 135.458065 
L 239.633417 134.704392 
L 240.877158 134.704392 
L 240.877158 133.950719 
L 241.583277 133.950719 
L 241.583277 133.197046 
L 241.960711 133.197046 
L 241.960711 132.443373 
L 242.671655 132.443373 
L 242.671655 131.689699 
L 242.846852 131.689699 
L 242.846852 130.936026 
L 243.594777 130.936026 
L 243.594777 130.182353 
L 243.911471 130.182353 
L 243.911471 129.42868 
L 244.429381 129.42868 
L 244.483881 127.921333 
L 244.586894 127.921333 
L 244.586894 127.16766 
L 245.440365 127.16766 
L 245.440365 126.413987 
L 245.83842 126.413987 
L 245.83842 125.660314 
L 246.439726 125.660314 
L 246.439726 124.906641 
L 246.827686 124.906641 
L 246.827686 124.152967 
L 247.43455 124.152967 
L 247.43455 123.399294 
L 247.684001 123.399294 
L 247.684001 122.645621 
L 248.464752 122.645621 
L 248.464752 121.891948 
L 248.767554 121.891948 
L 248.779679 120.384601 
L 249.806828 120.384601 
L 249.806828 119.630928 
L 250.40162 119.630928 
L 250.40162 118.877255 
L 250.766249 118.877255 
L 250.801652 117.369908 
L 251.236224 117.369908 
L 251.247243 115.862562 
L 251.744369 115.862562 
L 251.744369 115.108889 
L 252.247208 115.108889 
L 252.247208 114.355216 
L 252.913174 114.355216 
L 252.913174 113.601542 
L 253.292454 113.601542 
L 253.358479 112.094196 
L 253.406576 112.094196 
L 253.406576 111.340523 
L 253.676243 111.340523 
L 253.737759 108.32583 
L 254.345547 108.32583 
L 254.345547 107.572157 
L 254.790851 107.572157 
L 254.790851 106.818484 
L 255.261987 106.818484 
L 255.271595 105.311137 
L 255.568541 105.311137 
L 255.568541 104.557464 
L 255.707292 104.557464 
L 255.707292 103.803791 
L 255.942723 103.803791 
L 255.942723 103.050118 
L 256.298895 103.050118 
L 256.322003 101.542771 
L 256.58132 101.542771 
L 256.678174 100.035425 
L 256.808478 100.035425 
L 256.808478 99.281752 
L 257.043345 99.281752 
L 257.127356 97.774405 
L 257.375095 97.774405 
L 257.375095 97.020732 
L 257.731267 97.020732 
L 257.731267 96.267059 
L 257.862777 96.267059 
L 257.862777 95.513386 
L 258.291536 95.513386 
L 258.291536 94.759712 
L 258.47229 94.759712 
L 258.47229 94.006039 
L 258.647707 94.006039 
L 258.728251 92.498693 
L 259.864176 92.498693 
L 259.864176 91.74502 
L 260.09428 91.74502 
L 260.133855 90.237673 
L 260.483951 90.237673 
L 260.483951 89.484 
L 260.713716 89.484 
L 260.713716 88.730327 
L 264.23878 88.730327 
L 264.330484 87.22298 
L 264.555317 87.22298 
L 264.555317 86.469307 
L 264.775068 86.469307 
L 264.775068 85.715634 
L 264.905412 85.715634 
L 264.911256 84.208288 
L 265.07201 84.208288 
L 265.07201 83.454614 
L 265.332275 83.454614 
L 265.332275 82.700941 
L 265.489207 82.700941 
L 265.489207 81.947268 
L 265.839302 81.947268 
L 265.90608 80.439922 
L 266.404819 80.439922 
L 266.404819 79.686248 
L 266.973776 79.686248 
L 266.973776 78.932575 
L 267.771766 78.932575 
L 267.771766 78.178902 
L 268.733013 78.178902 
L 268.733013 77.425229 
L 269.673252 77.425229 
L 269.673252 76.671556 
L 270.82628 76.671556 
L 270.82628 75.917882 
L 271.718099 75.917882 
L 271.760171 74.410536 
L 272.033687 74.410536 
L 272.033687 73.656863 
L 272.147773 73.656863 
L 272.147773 72.90319 
L 272.712923 72.90319 
L 272.712923 72.149516 
L 273.087986 72.149516 
L 273.154475 70.64217 
L 273.697499 70.64217 
L 273.697499 69.888497 
L 274.088365 69.888497 
L 274.088365 69.134824 
L 274.276505 69.134824 
L 274.276505 68.38115 
L 275.089385 68.38115 
L 275.089385 67.627477 
L 275.219427 67.627477 
L 275.219427 66.873804 
L 275.330804 66.873804 
L 275.330804 66.120131 
L 275.940318 66.120131 
L 275.940318 65.366458 
L 276.068785 65.366458 
L 276.068785 64.612784 
L 276.273726 64.612784 
L 276.273726 63.859111 
L 276.883239 63.859111 
L 276.883239 63.105438 
L 277.332203 63.105438 
L 277.332203 62.351765 
L 278.275125 62.351765 
L 278.275125 61.598092 
L 278.524815 61.598092 
L 278.524815 60.844418 
L 278.954616 60.844418 
L 278.954616 60.090745 
L 279.463989 60.090745 
L 279.555693 58.583399 
L 280.390083 58.583399 
L 280.490247 57.076052 
L 280.557483 57.076052 
L 280.557483 56.322379 
L 281.402863 56.322379 
L 281.424137 54.815033 
L 281.706807 54.815033 
L 281.798511 53.307686 
L 281.948898 53.307686 
L 281.948898 52.554013 
L 282.198984 52.554013 
L 282.198984 51.80034 
L 282.649729 51.80034 
L 282.741433 50.292993 
L 282.800302 50.292993 
L 282.800302 49.53932 
L 282.946276 49.53932 
L 282.996975 48.031974 
L 283.549793 48.031974 
L 283.549793 47.278301 
L 283.743223 47.278301 
L 283.743223 46.524627 
L 283.880166 46.524627 
L 283.880166 45.770954 
L 284.441803 45.770954 
L 284.441803 45.017281 
L 284.811545 45.017281 
L 284.915823 42.756261 
L 285.239793 42.756261 
L 285.239793 42.002588 
L 285.384724 42.002588 
L 285.384724 41.248915 
L 285.535259 41.248915 
L 285.535259 40.495242 
L 285.745435 40.495242 
L 285.824324 38.987895 
L 286.182715 38.987895 
L 286.182715 38.234222 
L 286.37036 38.234222 
L 286.37036 37.480549 
L 286.758214 37.480549 
L 286.758214 36.726876 
L 287.141279 36.726876 
L 287.141279 35.973203 
L 287.30425 35.973203 
L 287.30425 35.219529 
L 287.971255 35.219529 
L 287.971255 34.465856 
L 288.084201 34.465856 
L 288.084201 33.712183 
L 288.905145 33.712183 
L 289.009897 32.204837 
L 289.337284 32.204837 
L 289.337284 31.451163 
L 289.596611 31.451163 
L 289.684789 29.943817 
L 289.893553 29.943817 
L 289.95672 28.436471 
L 290.271174 28.436471 
L 290.271174 27.682797 
L 290.89061 27.682797 
L 290.961891 26.175451 
L 291.636782 26.175451 
L 291.636782 25.421778 
L 292.129208 25.421778 
L 292.129208 24.668105 
L 292.94846 24.668105 
L 292.94846 23.914431 
L 293.623352 23.914431 
L 293.623352 23.160758 
L 293.92658 23.160758 
L 294.018072 20.899739 
L 294.044447 20.899739 
L 294.044447 20.146065 
L 294.315014 20.146065 
L 294.315014 19.392392 
L 294.601472 19.392392 
L 294.601472 18.638719 
L 294.951962 18.638719 
L 294.951962 17.885046 
L 295.248905 17.885046 
L 295.248905 17.131373 
L 295.588787 17.131373 
L 295.588787 16.377699 
L 296.263679 16.377699 
L 296.263679 15.624026 
L 303.168252 15.624026 
L 303.168252 14.870353 
L 307.354417 14.870353 
L 307.354417 14.11668 
L 309.166644 14.11668 
L 309.269656 12.609333 
L 309.597235 12.609333 
L 309.597235 11.85566 
L 310.540157 11.85566 
L 310.540157 11.101987 
L 311.409462 11.101987 
L 311.512474 9.594641 
L 312.352383 9.594641 
L 312.455396 8.087294 
L 318.393461 8.087294 
L 318.393461 7.333621 
L 320.63628 7.333621 
L 320.63628 6.579948 
L 321.579201 6.579948 
L 321.579201 5.826275 
L 453.192 5.826275 
L 453.192 5.826275 
" clip-path="url(#pdb5797124e)" style="fill: none; stroke: #00bfbf; stroke-width: 3; stroke-linecap: square"/>
   </g>
   <g id="line2d_56">
    <path clip-path="url(#pdb5797124e)" style="fill: none; stroke: #00bfbf; stroke-width: 3; stroke-linecap: square"/>
   </g>
   <g id="line2d_57">
    <path d="M 34.16 268.64695 
L 158.502852 268.64695 
L 158.502852 267.885151 
L 159.565923 267.885151 
L 159.565923 267.123352 
L 162.338726 267.123352 
L 162.338726 266.361553 
L 163.401797 266.361553 
L 163.401797 265.599754 
L 164.004971 265.599754 
L 164.004971 264.837955 
L 165.068042 264.837955 
L 165.068042 264.076156 
L 165.558802 264.076156 
L 165.561355 262.552557 
L 166.621873 262.552557 
L 166.624426 261.028959 
L 173.271063 261.028959 
L 173.271063 260.26716 
L 173.853966 260.26716 
L 173.853966 259.505361 
L 174.334134 259.505361 
L 174.42103 257.981763 
L 177.68984 257.981763 
L 177.68984 257.219964 
L 178.256904 257.219964 
L 178.256904 256.458165 
L 179.356085 256.458165 
L 179.356085 255.696366 
L 179.923149 255.696366 
L 179.923149 254.934567 
L 180.909916 254.934567 
L 180.912469 253.410969 
L 181.47698 253.410969 
L 181.479533 251.887371 
L 186.932955 251.887371 
L 186.932955 251.125572 
L 187.19021 251.125572 
L 187.19021 250.363773 
L 187.592514 250.363773 
L 187.592514 249.601973 
L 188.253281 249.601973 
L 188.253281 248.840174 
L 188.622177 248.840174 
L 188.655585 247.316576 
L 189.050521 247.316576 
L 189.124293 245.792978 
L 189.189241 245.792978 
L 189.189241 245.031179 
L 189.609377 245.031179 
L 189.609377 244.26938 
L 190.187364 244.26938 
L 190.187364 243.507581 
L 191.559448 243.507581 
L 191.559448 242.745782 
L 192.404495 242.745782 
L 192.404495 241.983983 
L 192.908795 241.983983 
L 192.908795 241.222184 
L 193.797042 241.222184 
L 193.821751 239.698586 
L 194.522061 239.698586 
L 194.522061 238.936787 
L 194.809539 238.936787 
L 194.884822 236.651389 
L 195.080917 236.651389 
L 195.080917 235.88959 
L 195.533029 235.88959 
L 195.533029 235.127791 
L 196.010897 235.127791 
L 196.010897 234.365992 
L 197.030988 234.365992 
L 197.030988 233.604193 
L 197.650595 233.604193 
L 197.650595 232.842394 
L 198.20945 232.842394 
L 198.20945 232.080595 
L 198.380335 232.080595 
L 198.380335 231.318796 
L 200.159521 231.318796 
L 200.159521 230.556997 
L 200.979816 230.556997 
L 200.979816 229.795198 
L 201.508868 229.795198 
L 201.508868 229.033399 
L 202.541324 229.033399 
L 202.541324 228.2716 
L 202.943628 228.2716 
L 202.943628 227.509801 
L 203.108388 227.509801 
L 203.108388 226.748002 
L 203.510693 226.748002 
L 203.510693 225.986203 
L 204.475407 225.986203 
L 204.475407 225.224404 
L 204.81569 225.224404 
L 204.81569 224.462605 
L 205.042472 224.462605 
L 205.042472 223.700805 
L 205.934172 223.700805 
L 205.934172 222.939006 
L 206.481936 222.939006 
L 206.481936 222.177207 
L 206.697494 222.177207 
L 206.697494 221.415408 
L 208.035767 221.415408 
L 208.03832 219.89181 
L 208.6794 219.89181 
L 208.6794 219.130011 
L 208.8907 219.130011 
L 208.8907 218.368212 
L 209.105128 218.368212 
L 209.172865 216.082815 
L 209.715221 216.082815 
L 209.739929 214.559217 
L 210.343842 214.559217 
L 210.343842 213.797418 
L 210.870456 213.797418 
L 210.870456 213.035619 
L 211.289467 213.035619 
L 211.289467 212.27382 
L 211.5452 212.27382 
L 211.5452 211.512021 
L 212.071814 211.512021 
L 212.071814 210.750221 
L 212.352538 210.750221 
L 212.352538 209.988422 
L 212.82828 209.988422 
L 212.82828 209.226623 
L 213.334292 209.226623 
L 213.334292 208.464824 
L 213.508565 208.464824 
L 213.508565 207.703025 
L 213.809767 207.703025 
L 213.809767 206.941226 
L 214.525574 206.941226 
L 214.53565 205.417628 
L 214.637583 205.417628 
L 214.716172 203.132231 
L 214.906391 203.132231 
L 214.906391 202.370432 
L 215.748028 202.370432 
L 215.748028 201.608633 
L 215.863827 201.608633 
L 215.863827 200.846834 
L 216.041982 200.846834 
L 216.041982 200.085035 
L 216.208089 200.085035 
L 216.208089 199.323236 
L 216.64314 199.323236 
L 216.64314 198.561436 
L 216.833738 198.561436 
L 216.926898 197.037838 
L 216.94921 197.037838 
L 216.94921 196.276039 
L 217.201995 196.276039 
L 217.201995 195.51424 
L 217.392593 195.51424 
L 217.49267 193.990642 
L 217.828469 193.990642 
L 217.828469 193.228843 
L 217.947131 193.228843 
L 217.947131 192.467044 
L 218.29982 192.467044 
L 218.331729 190.943446 
L 218.549044 190.943446 
L 218.549044 190.181647 
L 218.731317 190.181647 
L 218.779318 188.658049 
L 219.010202 188.658049 
L 219.09505 187.134451 
L 219.152066 187.134451 
L 219.207092 185.610852 
L 219.342664 185.610852 
L 219.342664 184.849053 
L 219.970414 184.849053 
L 219.970414 184.087254 
L 220.109123 184.087254 
L 220.109123 183.325455 
L 220.251972 183.325455 
L 220.251972 182.563656 
L 220.501413 182.563656 
L 220.501413 181.801857 
L 220.692011 181.801857 
L 220.692011 181.040058 
L 221.076956 181.040058 
L 221.076956 180.278259 
L 221.288256 180.278259 
L 221.288256 179.51646 
L 221.428354 179.51646 
L 221.513522 177.231063 
L 221.952319 177.231063 
L 221.952319 176.469264 
L 222.163619 176.469264 
L 222.163619 175.707465 
L 222.378047 175.707465 
L 222.478572 174.183867 
L 223.237657 174.183867 
L 223.237657 173.422068 
L 223.410421 173.422068 
L 223.410421 172.660268 
L 224.202857 172.660268 
L 224.202857 171.898469 
L 224.642056 171.898469 
L 224.642056 171.13667 
L 226.640581 171.13667 
L 226.640581 170.374871 
L 226.76324 170.374871 
L 226.76324 169.613072 
L 227.207645 169.613072 
L 227.207645 168.851273 
L 227.33139 168.851273 
L 227.33139 168.089474 
L 227.99264 168.089474 
L 228.094914 166.565876 
L 229.193984 166.565876 
L 229.193984 165.804077 
L 229.34407 165.804077 
L 229.34407 165.042278 
L 229.667175 165.042278 
L 229.667175 164.280479 
L 229.870684 164.280479 
L 229.870684 163.51868 
L 230.069479 163.51868 
L 230.069479 162.756881 
L 230.440694 162.756881 
L 230.440694 161.995082 
L 230.967308 161.995082 
L 230.967308 161.233283 
L 231.214941 161.233283 
L 231.214941 160.471484 
L 231.601258 160.471484 
L 231.601258 159.709684 
L 231.742392 159.709684 
L 231.782006 158.186086 
L 232.269006 158.186086 
L 232.334519 156.662488 
L 232.483513 156.662488 
L 232.508792 155.13889 
L 232.717954 155.13889 
L 232.717954 154.377091 
L 233.010127 154.377091 
L 233.026973 152.853493 
L 233.298245 152.853493 
L 233.362772 151.329895 
L 233.431143 151.329895 
L 233.431143 150.568096 
L 233.553587 150.568096 
L 233.605416 149.044498 
L 233.865309 149.044498 
L 233.889386 147.5209 
L 234.083347 147.5209 
L 234.083347 146.7591 
L 234.278078 146.7591 
L 234.313621 145.235502 
L 234.609961 145.235502 
L 234.609961 144.473703 
L 234.732842 144.473703 
L 234.840235 142.950105 
L 234.907115 142.950105 
L 234.907115 142.188306 
L 235.341149 142.188306 
L 235.376966 140.664708 
L 235.473963 140.664708 
L 235.521793 139.14111 
L 235.648236 139.14111 
L 235.648236 138.379311 
L 235.782946 138.379311 
L 235.786275 136.855713 
L 236.017422 136.855713 
L 236.071351 135.332115 
L 236.140287 135.332115 
L 236.191695 133.808516 
L 236.274007 133.808516 
L 236.353221 129.999521 
L 236.527495 129.999521 
L 236.546268 128.475923 
L 236.812798 128.475923 
L 236.834672 126.952325 
L 237.073796 126.952325 
L 237.073796 126.190526 
L 237.24807 126.190526 
L 237.328157 123.905129 
L 237.478344 123.905129 
L 237.57612 122.381531 
L 237.596333 122.381531 
L 237.596333 121.619732 
L 237.889712 121.619732 
L 237.889712 120.857932 
L 238.105625 120.857932 
L 238.122193 119.334334 
L 238.26702 119.334334 
L 238.359655 117.048937 
L 238.47832 117.048937 
L 238.558555 114.001741 
L 238.692748 114.001741 
L 238.776725 110.954545 
L 238.816578 110.954545 
L 238.860898 109.430947 
L 238.950998 109.430947 
L 239.027878 107.145549 
L 239.242306 107.145549 
L 239.321876 105.621951 
L 239.535675 105.621951 
L 239.558026 104.098353 
L 239.651398 104.098353 
L 239.676764 102.574755 
L 239.769325 102.574755 
L 239.77364 101.051157 
L 239.983753 101.051157 
L 239.983753 100.289358 
L 240.123954 100.289358 
L 240.148122 98.76576 
L 240.341561 98.76576 
L 240.420899 97.242162 
L 240.536962 97.242162 
L 240.611497 94.194965 
L 240.767289 94.194965 
L 240.767289 93.433166 
L 240.887276 93.433166 
L 240.887276 92.671367 
L 241.079971 92.671367 
L 241.085855 91.147769 
L 241.303782 91.147769 
L 241.303782 90.38597 
L 241.515082 90.38597 
L 241.51758 88.862372 
L 241.72888 88.862372 
L 241.72951 87.338774 
L 241.943308 87.338774 
L 241.943308 86.576975 
L 242.230202 86.576975 
L 242.230202 85.815176 
L 242.4208 85.815176 
L 242.518868 84.291578 
L 242.730168 84.291578 
L 242.801924 82.767979 
L 242.869181 82.767979 
L 242.944596 81.244381 
L 242.982855 81.244381 
L 243.080481 79.720783 
L 243.294909 79.720783 
L 243.294909 78.958984 
L 243.553153 78.958984 
L 243.634601 76.673587 
L 243.746176 76.673587 
L 243.825199 75.149989 
L 243.961432 75.149989 
L 243.961432 74.38819 
L 244.43279 74.38819 
L 244.43279 73.626391 
L 244.80331 73.626391 
L 244.80331 72.864592 
L 245.190832 72.864592 
L 245.293105 71.340994 
L 245.66219 71.340994 
L 245.764464 69.055596 
L 245.911207 69.055596 
L 245.939382 67.531998 
L 246.15381 67.531998 
L 246.15381 66.770199 
L 246.323935 66.770199 
L 246.392175 65.246601 
L 246.514533 65.246601 
L 246.557395 63.723003 
L 246.705699 63.723003 
L 246.705699 62.961204 
L 246.863534 62.961204 
L 246.863534 62.199405 
L 247.099492 62.199405 
L 247.099492 61.437606 
L 247.267596 61.437606 
L 247.267596 60.675807 
L 247.953891 60.675807 
L 247.953891 59.914008 
L 248.125962 59.914008 
L 248.125962 59.152209 
L 248.273464 59.152209 
L 248.303442 57.628611 
L 248.64325 57.628611 
L 248.64325 56.866811 
L 249.024693 56.866811 
L 249.024693 56.105012 
L 249.629192 56.105012 
L 249.685928 54.581414 
L 249.916145 54.581414 
L 249.916145 53.819615 
L 250.196256 53.819615 
L 250.27485 52.296017 
L 250.387504 52.296017 
L 250.387504 51.534218 
L 251.401998 51.534218 
L 251.401998 50.772419 
L 252.153227 50.772419 
L 252.153227 50.01062 
L 252.571032 50.01062 
L 252.571032 49.248821 
L 252.86246 49.248821 
L 252.86246 48.487022 
L 253.389074 48.487022 
L 253.424015 46.201625 
L 253.766432 46.201625 
L 253.766432 45.439826 
L 253.950629 45.439826 
L 253.950629 44.678027 
L 254.395201 44.678027 
L 254.395201 43.916227 
L 254.921815 43.916227 
L 254.921815 43.154428 
L 255.185701 43.154428 
L 255.185701 42.392629 
L 255.699566 42.392629 
L 255.712315 40.869031 
L 255.852909 40.869031 
L 255.852909 40.107232 
L 256.027182 40.107232 
L 256.027182 39.345433 
L 256.414464 39.345433 
L 256.414464 38.583634 
L 256.588737 38.583634 
L 256.588737 37.821835 
L 257.385651 37.821835 
L 257.385651 37.060036 
L 257.559924 37.060036 
L 257.559924 36.298237 
L 258.17615 36.298237 
L 258.17615 35.536438 
L 258.340792 35.536438 
L 258.350424 34.01284 
L 260.424096 34.01284 
L 260.424096 33.251041 
L 261.134027 33.251041 
L 261.134027 32.489242 
L 261.897349 32.489242 
L 261.897349 31.727443 
L 263.109399 31.727443 
L 263.109399 30.965643 
L 263.580757 30.965643 
L 263.580757 30.203844 
L 263.879254 30.203844 
L 263.879254 29.442045 
L 264.090554 29.442045 
L 264.090554 28.680246 
L 264.304982 28.680246 
L 264.304982 27.918447 
L 264.465787 27.918447 
L 264.465787 27.156648 
L 264.937146 27.156648 
L 264.937146 26.394849 
L 265.152083 26.394849 
L 265.152083 25.63305 
L 265.324154 25.63305 
L 265.324154 24.871251 
L 265.501634 24.871251 
L 265.501634 24.109452 
L 265.623442 24.109452 
L 265.698244 22.585854 
L 265.795512 22.585854 
L 265.888842 20.300457 
L 265.972992 20.300457 
L 265.972992 19.538658 
L 266.3128 19.538658 
L 266.3128 18.776859 
L 268.678473 18.776859 
L 268.678473 18.015059 
L 268.869071 18.015059 
L 268.869071 17.25326 
L 270.394543 17.25326 
L 270.394543 16.491461 
L 270.585141 16.491461 
L 270.585141 15.729662 
L 271.145772 15.729662 
L 271.145772 14.967863 
L 271.33637 14.967863 
L 271.33637 14.206064 
L 272.395929 14.206064 
L 272.395929 13.444265 
L 272.586527 13.444265 
L 272.586527 12.682466 
L 274.692111 12.682466 
L 274.692111 11.920667 
L 274.882709 11.920667 
L 274.882709 11.158868 
L 276.755043 11.158868 
L 276.755043 10.397069 
L 453.192 10.397069 
L 453.192 10.397069 
" clip-path="url(#pdb5797124e)" style="fill: none; stroke: #bf00bf; stroke-width: 3; stroke-linecap: square"/>
   </g>
   <g id="line2d_58">
    <path clip-path="url(#pdb5797124e)" style="fill: none; stroke: #bf00bf; stroke-width: 3; stroke-linecap: square"/>
   </g>
   <g id="line2d_59">
    <path d="M 34.16 268.64695 
L 159.969605 268.64695 
L 159.969605 267.885151 
L 160.93551 267.885151 
L 160.93551 267.123352 
L 163.549225 267.123352 
L 163.549225 266.361553 
L 164.514833 266.361553 
L 164.515129 264.837955 
L 165.480738 264.837955 
L 165.480738 264.076156 
L 166.280381 264.076156 
L 166.280381 263.314357 
L 166.408975 263.314357 
L 166.408975 262.552557 
L 167.246285 262.552557 
L 167.246285 261.790758 
L 167.374879 261.790758 
L 167.374879 261.028959 
L 173.814973 261.028959 
L 173.814973 260.26716 
L 174.780877 260.26716 
L 174.780877 259.505361 
L 175.137826 259.505361 
L 175.137826 258.743562 
L 175.569926 258.743562 
L 175.569926 257.981763 
L 177.355101 257.981763 
L 177.355101 257.219964 
L 177.568402 257.219964 
L 177.568402 256.458165 
L 178.717445 256.458165 
L 178.717445 255.696366 
L 179.149545 255.696366 
L 179.149545 254.934567 
L 179.587846 254.934567 
L 179.683054 253.410969 
L 180.115153 253.410969 
L 180.188717 251.887371 
L 181.448601 251.887371 
L 181.448601 251.125572 
L 181.577195 251.125572 
L 181.577195 250.363773 
L 181.880701 250.363773 
L 181.880701 249.601973 
L 182.009295 249.601973 
L 182.009295 248.840174 
L 182.809065 248.840174 
L 182.809065 248.078375 
L 188.444404 248.078375 
L 188.444404 247.316576 
L 188.677466 247.316576 
L 188.677466 246.554777 
L 188.983193 246.554777 
L 188.983193 245.792978 
L 189.410309 245.792978 
L 189.415293 244.26938 
L 189.643371 244.26938 
L 189.643371 243.507581 
L 190.33555 243.507581 
L 190.33555 242.745782 
L 191.301454 242.745782 
L 191.301454 241.983983 
L 194.539243 241.983983 
L 194.646735 240.460385 
L 195.505147 240.460385 
L 195.61264 238.936787 
L 195.811723 238.936787 
L 195.811723 238.174988 
L 196.867944 238.174988 
L 196.976187 236.651389 
L 197.189488 236.651389 
L 197.189488 235.88959 
L 199.208932 235.88959 
L 199.208932 235.127791 
L 199.809803 235.127791 
L 199.809803 234.365992 
L 201.428248 234.365992 
L 201.428248 233.604193 
L 202.208675 233.604193 
L 202.275207 232.080595 
L 202.355389 232.080595 
L 202.430151 229.795198 
L 202.532392 229.795198 
L 202.532392 229.033399 
L 203.542312 229.033399 
L 203.612625 227.509801 
L 203.664199 227.509801 
L 203.664199 226.748002 
L 203.845687 226.748002 
L 203.845687 225.986203 
L 204.044724 225.986203 
L 204.044724 225.224404 
L 204.277786 225.224404 
L 204.277786 224.462605 
L 204.569334 224.462605 
L 204.569334 223.700805 
L 204.920866 223.700805 
L 205.007868 222.177207 
L 205.50377 222.177207 
L 205.50377 221.415408 
L 205.93587 221.415408 
L 205.973476 219.89181 
L 207.739024 219.89181 
L 207.739024 219.130011 
L 207.867618 219.130011 
L 207.867618 218.368212 
L 209.707463 218.368212 
L 209.814956 216.844614 
L 210.139563 216.844614 
L 210.247055 215.321016 
L 211.262087 215.321016 
L 211.262087 214.559217 
L 211.638094 214.559217 
L 211.638094 213.797418 
L 212.318308 213.797418 
L 212.413228 212.27382 
L 212.694315 212.27382 
L 212.694315 211.512021 
L 213.181859 211.512021 
L 213.181859 210.750221 
L 213.379133 210.750221 
L 213.379133 209.988422 
L 213.774439 209.988422 
L 213.774439 209.226623 
L 214.311186 209.226623 
L 214.311186 208.464824 
L 214.585267 208.464824 
L 214.585267 207.703025 
L 214.83066 207.703025 
L 214.83066 206.941226 
L 215.063694 206.941226 
L 215.063694 206.179427 
L 215.216944 206.179427 
L 215.289449 203.89403 
L 215.367407 203.89403 
L 215.469855 201.608633 
L 215.683156 201.608633 
L 215.683156 200.846834 
L 215.994627 200.846834 
L 215.994627 200.085035 
L 216.40766 200.085035 
L 216.40766 199.323236 
L 216.716784 199.323236 
L 216.716784 198.561436 
L 216.864366 198.561436 
L 216.864366 197.799637 
L 216.981822 197.799637 
L 216.981822 197.037838 
L 217.195123 197.037838 
L 217.195123 196.276039 
L 217.449689 196.276039 
L 217.449689 195.51424 
L 217.682688 195.51424 
L 217.757116 193.228843 
L 218.05056 193.228843 
L 218.05056 192.467044 
L 218.303471 192.467044 
L 218.338931 190.181647 
L 218.641964 190.181647 
L 218.716365 188.658049 
L 219.214567 188.658049 
L 219.317269 187.134451 
L 219.607869 187.134451 
L 219.607869 186.372652 
L 219.739617 186.372652 
L 219.815438 184.087254 
L 220.255129 184.087254 
L 220.255129 183.325455 
L 220.443799 183.325455 
L 220.443799 182.563656 
L 220.670908 182.563656 
L 220.670908 181.801857 
L 220.89082 181.801857 
L 220.924611 179.51646 
L 221.56201 179.51646 
L 221.56201 178.754661 
L 221.829761 178.754661 
L 221.896293 177.231063 
L 221.976475 177.231063 
L 221.976967 175.707465 
L 222.153479 175.707465 
L 222.153479 174.945666 
L 222.294228 174.945666 
L 222.396146 173.422068 
L 222.435786 173.422068 
L 222.519506 171.898469 
L 222.99841 171.898469 
L 222.99841 171.13667 
L 223.163398 171.13667 
L 223.163398 170.374871 
L 223.285285 170.374871 
L 223.285616 168.851273 
L 223.922914 168.851273 
L 223.922914 168.089474 
L 224.116621 168.089474 
L 224.19042 166.565876 
L 224.541952 166.565876 
L 224.627096 165.042278 
L 225.409479 165.042278 
L 225.409479 164.280479 
L 225.745307 164.280479 
L 225.745307 163.51868 
L 226.596134 163.51868 
L 226.596134 162.756881 
L 227.581449 162.756881 
L 227.581449 161.995082 
L 227.80822 161.995082 
L 227.811026 160.471484 
L 227.964091 160.471484 
L 228.013548 158.947885 
L 228.92116 158.947885 
L 228.970447 157.424287 
L 229.592776 157.424287 
L 229.592776 156.662488 
L 229.903047 156.662488 
L 229.903047 155.900689 
L 230.136109 155.900689 
L 230.136109 155.13889 
L 230.514059 155.13889 
L 230.514059 154.377091 
L 230.890066 154.377091 
L 230.890066 153.615292 
L 231.444992 153.615292 
L 231.444992 152.853493 
L 231.794193 152.853493 
L 231.885004 150.568096 
L 232.314731 150.568096 
L 232.381313 148.282699 
L 232.690738 148.282699 
L 232.690738 147.5209 
L 233.02641 147.5209 
L 233.02641 146.7591 
L 233.207481 146.7591 
L 233.207481 145.997301 
L 233.563158 145.997301 
L 233.583488 144.473703 
L 233.789295 144.473703 
L 233.810185 142.950105 
L 233.957343 142.950105 
L 233.957343 142.188306 
L 234.165302 142.188306 
L 234.242285 139.902909 
L 234.494091 139.902909 
L 234.542737 138.379311 
L 234.767634 138.379311 
L 234.827082 136.855713 
L 234.94123 136.855713 
L 234.94123 136.093914 
L 235.143641 136.093914 
L 235.212929 134.570316 
L 235.36383 134.570316 
L 235.36383 133.808516 
L 235.588936 133.808516 
L 235.588936 133.046717 
L 235.719832 133.046717 
L 235.719832 132.284918 
L 235.907135 132.284918 
L 235.997886 130.76132 
L 236.105378 130.76132 
L 236.105378 129.999521 
L 236.25658 129.999521 
L 236.301647 128.475923 
L 236.374976 128.475923 
L 236.374976 127.714124 
L 236.679081 127.714124 
L 236.750983 126.190526 
L 236.838394 126.190526 
L 236.838394 125.428727 
L 237.215829 125.428727 
L 237.279985 123.905129 
L 237.72528 123.905129 
L 237.824371 121.619732 
L 238.201442 121.619732 
L 238.262028 120.096133 
L 238.887327 120.096133 
L 238.887327 119.334334 
L 239.145029 119.334334 
L 239.145029 118.572535 
L 239.424075 118.572535 
L 239.424075 117.810736 
L 239.691821 117.810736 
L 239.762155 115.525339 
L 240.029334 115.525339 
L 240.13705 113.239942 
L 240.217232 113.239942 
L 240.323428 110.954545 
L 240.345068 110.954545 
L 240.394235 108.669148 
L 240.470143 108.669148 
L 240.470634 107.145549 
L 240.647146 107.145549 
L 240.651625 105.621951 
L 240.838109 105.621951 
L 240.838109 104.860152 
L 241.095229 104.860152 
L 241.095229 104.098353 
L 241.234538 104.098353 
L 241.241508 102.574755 
L 241.404155 102.574755 
L 241.404155 101.812956 
L 241.526042 101.812956 
L 241.526042 101.051157 
L 241.657066 101.051157 
L 241.672744 99.527559 
L 241.778953 99.527559 
L 241.835396 97.242162 
L 241.901928 97.242162 
L 241.982602 94.956764 
L 242.159114 94.956764 
L 242.159114 94.194965 
L 242.431177 94.194965 
L 242.431177 93.433166 
L 242.684088 93.433166 
L 242.782709 91.909568 
L 242.917622 91.909568 
L 242.917622 91.147769 
L 243.03562 91.147769 
L 243.072106 89.624171 
L 243.169033 89.624171 
L 243.169033 88.862372 
L 243.29092 88.862372 
L 243.29092 88.100573 
L 243.962143 88.100573 
L 243.962143 87.338774 
L 244.196055 87.338774 
L 244.196055 86.576975 
L 244.545056 86.576975 
L 244.599762 84.291578 
L 245.105938 84.291578 
L 245.183684 81.244381 
L 245.757142 81.244381 
L 245.759948 79.720783 
L 245.928142 79.720783 
L 245.992459 78.197185 
L 246.287169 78.197185 
L 246.395857 76.673587 
L 246.610111 76.673587 
L 246.610111 75.911788 
L 246.725824 75.911788 
L 246.827094 73.626391 
L 246.870082 73.626391 
L 246.870082 72.864592 
L 247.284689 72.864592 
L 247.284689 72.102793 
L 247.738296 72.102793 
L 247.738296 71.340994 
L 247.89583 71.340994 
L 247.89583 70.579195 
L 248.104648 70.579195 
L 248.104648 69.817395 
L 248.226456 69.817395 
L 248.274085 68.293797 
L 248.377738 68.293797 
L 248.377738 67.531998 
L 248.54707 67.531998 
L 248.591533 65.246601 
L 248.950469 65.246601 
L 248.950469 64.484802 
L 249.366981 64.484802 
L 249.381705 62.961204 
L 249.747322 62.961204 
L 249.754111 61.437606 
L 250.109451 61.437606 
L 250.175756 59.914008 
L 250.260287 59.914008 
L 250.330235 58.39041 
L 250.54155 58.39041 
L 250.579155 56.866811 
L 250.781067 56.866811 
L 250.781067 56.105012 
L 251.010391 56.105012 
L 251.010391 55.343213 
L 251.764461 55.343213 
L 251.764461 54.581414 
L 251.880174 54.581414 
L 251.880174 53.819615 
L 252.308723 53.819615 
L 252.409753 52.296017 
L 252.814899 52.296017 
L 252.814899 51.534218 
L 253.274735 51.534218 
L 253.274735 50.772419 
L 253.532088 50.772419 
L 253.532088 50.01062 
L 253.650743 50.01062 
L 253.651807 48.487022 
L 253.871871 48.487022 
L 253.937409 46.963424 
L 254.027814 46.963424 
L 254.027814 46.201625 
L 254.319072 46.201625 
L 254.319072 45.439826 
L 254.434785 45.439826 
L 254.443585 43.916227 
L 254.595394 43.916227 
L 254.595394 43.154428 
L 254.971401 43.154428 
L 254.971401 42.392629 
L 255.212439 42.392629 
L 255.212439 41.63083 
L 255.588446 41.63083 
L 255.588446 40.869031 
L 255.787087 40.869031 
L 255.787087 40.107232 
L 255.947758 40.107232 
L 255.947758 39.345433 
L 256.063471 39.345433 
L 256.164158 37.060036 
L 256.323835 37.060036 
L 256.323835 36.298237 
L 256.700906 36.298237 
L 256.700906 35.536438 
L 257.107745 35.536438 
L 257.107745 34.774639 
L 257.644493 34.774639 
L 257.724791 32.489242 
L 258.175427 32.489242 
L 258.261538 30.965643 
L 260.100607 30.965643 
L 260.100607 30.203844 
L 263.294151 30.203844 
L 263.294151 29.442045 
L 263.877064 29.442045 
L 263.877064 28.680246 
L 264.650698 28.680246 
L 264.650698 27.918447 
L 265.233611 27.918447 
L 265.261838 26.394849 
L 265.470657 26.394849 
L 265.470657 25.63305 
L 265.640094 25.63305 
L 265.640094 24.871251 
L 265.844752 24.871251 
L 265.94285 23.347653 
L 266.05357 23.347653 
L 266.05357 22.585854 
L 266.223007 22.585854 
L 266.223007 21.824055 
L 266.525763 21.824055 
L 266.539296 20.300457 
L 266.83229 20.300457 
L 266.83229 19.538658 
L 267.0852 19.538658 
L 267.0852 18.776859 
L 267.348071 18.776859 
L 267.348071 18.015059 
L 267.751469 18.015059 
L 267.751469 17.25326 
L 268.182706 17.25326 
L 268.182706 16.491461 
L 268.597168 16.491461 
L 268.597168 15.729662 
L 269.582068 15.729662 
L 269.582068 14.967863 
L 271.109723 14.967863 
L 271.109723 14.206064 
L 271.615899 14.206064 
L 271.615899 13.444265 
L 273.120073 13.444265 
L 273.120073 12.682466 
L 273.235786 12.682466 
L 273.235786 11.920667 
L 274.8877 11.920667 
L 274.8877 11.158868 
L 276.399873 11.158868 
L 276.399873 10.397069 
L 453.192 10.397069 
L 453.192 10.397069 
" clip-path="url(#pdb5797124e)" style="fill: none; stroke: #ff0000; stroke-width: 3; stroke-linecap: square"/>
   </g>
   <g id="line2d_60">
    <path clip-path="url(#pdb5797124e)" style="fill: none; stroke: #ff0000; stroke-width: 3; stroke-linecap: square"/>
   </g>
   <g id="line2d_61">
    <path d="M 243.676 291.28 
L 243.676 3 
" clip-path="url(#pdb5797124e)" style="fill: none; stroke: #000000; stroke-width: 1.5; stroke-linecap: square"/>
   </g>
   <g id="line2d_62">
    <path d="M 34.16 147.14 
L 453.192 147.14 
" clip-path="url(#pdb5797124e)" style="fill: none; stroke-dasharray: 2,3.3; stroke-dashoffset: 0; stroke: #000000; stroke-width: 2"/>
   </g>
   <g id="patch_3">
    <path d="M 34.16 291.28 
L 34.16 3 
" style="fill: none; stroke: #000000; stroke-width: 0.8; stroke-linejoin: miter; stroke-linecap: square"/>
   </g>
   <g id="patch_4">
    <path d="M 453.192 291.28 
L 453.192 3 
" style="fill: none; stroke: #000000; stroke-width: 0.8; stroke-linejoin: miter; stroke-linecap: square"/>
   </g>
   <g id="patch_5">
    <path d="M 34.16 291.28 
L 453.192 291.28 
" style="fill: none; stroke: #000000; stroke-width: 0.8; stroke-linejoin: miter; stroke-linecap: square"/>
   </g>
   <g id="patch_6">
    <path d="M 34.16 3 
L 453.192 3 
" style="fill: none; stroke: #000000; stroke-width: 0.8; stroke-linejoin: miter; stroke-linecap: square"/>
   </g>
   <g id="text_5">
    <!-- f15-f19,20-D -->
    <g transform="translate(318.19261 285.5144)scale(0.2 -0.2)">
     <defs>
      <path id="DejaVuSans-35" d="M 691 4666 
L 3169 4666 
L 3169 4134 
L 1269 4134 
L 1269 2991 
Q 1406 3038 1543 3061 
Q 1681 3084 1819 3084 
Q 2600 3084 3056 2656 
Q 3513 2228 3513 1497 
Q 3513 744 3044 326 
Q 2575 -91 1722 -91 
Q 1428 -91 1123 -41 
Q 819 9 494 109 
L 494 744 
Q 775 591 1075 516 
Q 1375 441 1709 441 
Q 2250 441 2565 725 
Q 2881 1009 2881 1497 
Q 2881 1984 2565 2268 
Q 2250 2553 1709 2553 
Q 1456 2553 1204 2497 
Q 953 2441 691 2322 
L 691 4666 
z
" transform="scale(0.015625)"/>
      <path id="DejaVuSans-39" d="M 703 97 
L 703 672 
Q 941 559 1184 500 
Q 1428 441 1663 441 
Q 2288 441 2617 861 
Q 2947 1281 2994 2138 
Q 2813 1869 2534 1725 
Q 2256 1581 1919 1581 
Q 1219 1581 811 2004 
Q 403 2428 403 3163 
Q 403 3881 828 4315 
Q 1253 4750 1959 4750 
Q 2769 4750 3195 4129 
Q 3622 3509 3622 2328 
Q 3622 1225 3098 567 
Q 2575 -91 1691 -91 
Q 1453 -91 1209 -44 
Q 966 3 703 97 
z
M 1959 2075 
Q 2384 2075 2632 2365 
Q 2881 2656 2881 3163 
Q 2881 3666 2632 3958 
Q 2384 4250 1959 4250 
Q 1534 4250 1286 3958 
Q 1038 3666 1038 3163 
Q 1038 2656 1286 2365 
Q 1534 2075 1959 2075 
z
" transform="scale(0.015625)"/>
      <path id="DejaVuSans-2c" d="M 750 794 
L 1409 794 
L 1409 256 
L 897 -744 
L 494 -744 
L 750 256 
L 750 794 
z
" transform="scale(0.015625)"/>
      <path id="DejaVuSans-32" d="M 1228 531 
L 3431 531 
L 3431 0 
L 469 0 
L 469 531 
Q 828 903 1448 1529 
Q 2069 2156 2228 2338 
Q 2531 2678 2651 2914 
Q 2772 3150 2772 3378 
Q 2772 3750 2511 3984 
Q 2250 4219 1831 4219 
Q 1534 4219 1204 4116 
Q 875 4013 500 3803 
L 500 4441 
Q 881 4594 1212 4672 
Q 1544 4750 1819 4750 
Q 2544 4750 2975 4387 
Q 3406 4025 3406 3419 
Q 3406 3131 3298 2873 
Q 3191 2616 2906 2266 
Q 2828 2175 2409 1742 
Q 1991 1309 1228 531 
z
" transform="scale(0.015625)"/>
      <path id="DejaVuSans-44" d="M 1259 4147 
L 1259 519 
L 2022 519 
Q 2988 519 3436 956 
Q 3884 1394 3884 2338 
Q 3884 3275 3436 3711 
Q 2988 4147 2022 4147 
L 1259 4147 
z
M 628 4666 
L 1925 4666 
Q 3281 4666 3915 4102 
Q 4550 3538 4550 2338 
Q 4550 1131 3912 565 
Q 3275 0 1925 0 
L 628 0 
L 628 4666 
z
" transform="scale(0.015625)"/>
     </defs>
     <use xlink:href="#DejaVuSans-66"/>
     <use xlink:href="#DejaVuSans-31" x="35.205078"/>
     <use xlink:href="#DejaVuSans-35" x="98.828125"/>
     <use xlink:href="#DejaVuSans-2d" x="162.451172"/>
     <use xlink:href="#DejaVuSans-66" x="198.535156"/>
     <use xlink:href="#DejaVuSans-31" x="233.740234"/>
     <use xlink:href="#DejaVuSans-39" x="297.363281"/>
     <use xlink:href="#DejaVuSans-2c" x="360.986328"/>
     <use xlink:href="#DejaVuSans-32" x="392.773438"/>
     <use xlink:href="#DejaVuSans-30" x="456.396484"/>
     <use xlink:href="#DejaVuSans-2d" x="520.019531"/>
     <use xlink:href="#DejaVuSans-44" x="556.103516"/>
    </g>
   </g>
   <g id="text_6">
    <!-- v2.6.1.158 -->
    <g style="fill: #808080" transform="translate(216.861937 286.317512)scale(0.1 -0.1)">
     <defs>
      <path id="DejaVuSans-2e" d="M 684 794 
L 1344 794 
L 1344 0 
L 684 0 
L 684 794 
z
" transform="scale(0.015625)"/>
      <path id="DejaVuSans-36" d="M 2113 2584 
Q 1688 2584 1439 2293 
Q 1191 2003 1191 1497 
Q 1191 994 1439 701 
Q 1688 409 2113 409 
Q 2538 409 2786 701 
Q 3034 994 3034 1497 
Q 3034 2003 2786 2293 
Q 2538 2584 2113 2584 
z
M 3366 4563 
L 3366 3988 
Q 3128 4100 2886 4159 
Q 2644 4219 2406 4219 
Q 1781 4219 1451 3797 
Q 1122 3375 1075 2522 
Q 1259 2794 1537 2939 
Q 1816 3084 2150 3084 
Q 2853 3084 3261 2657 
Q 3669 2231 3669 1497 
Q 3669 778 3244 343 
Q 2819 -91 2113 -91 
Q 1303 -91 875 529 
Q 447 1150 447 2328 
Q 447 3434 972 4092 
Q 1497 4750 2381 4750 
Q 2619 4750 2861 4703 
Q 3103 4656 3366 4563 
z
" transform="scale(0.015625)"/>
      <path id="DejaVuSans-38" d="M 2034 2216 
Q 1584 2216 1326 1975 
Q 1069 1734 1069 1313 
Q 1069 891 1326 650 
Q 1584 409 2034 409 
Q 2484 409 2743 651 
Q 3003 894 3003 1313 
Q 3003 1734 2745 1975 
Q 2488 2216 2034 2216 
z
M 1403 2484 
Q 997 2584 770 2862 
Q 544 3141 544 3541 
Q 544 4100 942 4425 
Q 1341 4750 2034 4750 
Q 2731 4750 3128 4425 
Q 3525 4100 3525 3541 
Q 3525 3141 3298 2862 
Q 3072 2584 2669 2484 
Q 3125 2378 3379 2068 
Q 3634 1759 3634 1313 
Q 3634 634 3220 271 
Q 2806 -91 2034 -91 
Q 1263 -91 848 271 
Q 434 634 434 1313 
Q 434 1759 690 2068 
Q 947 2378 1403 2484 
z
M 1172 3481 
Q 1172 3119 1398 2916 
Q 1625 2713 2034 2713 
Q 2441 2713 2670 2916 
Q 2900 3119 2900 3481 
Q 2900 3844 2670 4047 
Q 2441 4250 2034 4250 
Q 1625 4250 1398 4047 
Q 1172 3844 1172 3481 
z
" transform="scale(0.015625)"/>
     </defs>
     <use xlink:href="#DejaVuSans-76"/>
     <use xlink:href="#DejaVuSans-32" x="59.179688"/>
     <use xlink:href="#DejaVuSans-2e" x="122.802734"/>
     <use xlink:href="#DejaVuSans-36" x="154.589844"/>
     <use xlink:href="#DejaVuSans-2e" x="218.212891"/>
     <use xlink:href="#DejaVuSans-31" x="250"/>
     <use xlink:href="#DejaVuSans-2e" x="313.623047"/>
     <use xlink:href="#DejaVuSans-31" x="345.410156"/>
     <use xlink:href="#DejaVuSans-35" x="409.033203"/>
     <use xlink:href="#DejaVuSans-38" x="472.65625"/>
    </g>
   </g>
   <g id="legend_1">
    <g id="patch_7">
     <path d="M 48.16 136.425 
L 177.381875 136.425 
Q 181.381875 136.425 181.381875 132.425 
L 181.381875 17 
Q 181.381875 13 177.381875 13 
L 48.16 13 
Q 44.16 13 44.16 17 
L 44.16 132.425 
Q 44.16 136.425 48.16 136.425 
z
" style="fill: #ffffff; opacity: 0.2; stroke: #cccccc; stroke-linejoin: miter"/>
    </g>
    <g id="line2d_63">
     <path d="M 52.16 29.196875 
L 72.16 29.196875 
L 92.16 29.196875 
" style="fill: none; stroke: #000000; stroke-width: 3; stroke-linecap: square"/>
    </g>
    <g id="text_7">
     <!-- 1: 5/5 -->
     <g transform="translate(108.16 36.196875)scale(0.2 -0.2)">
      <defs>
       <path id="DejaVuSans-3a" d="M 750 794 
L 1409 794 
L 1409 0 
L 750 0 
L 750 794 
z
M 750 3309 
L 1409 3309 
L 1409 2516 
L 750 2516 
L 750 3309 
z
" transform="scale(0.015625)"/>
       <path id="DejaVuSans-2f" d="M 1625 4666 
L 2156 4666 
L 531 -594 
L 0 -594 
L 1625 4666 
z
" transform="scale(0.015625)"/>
      </defs>
      <use xlink:href="#DejaVuSans-31"/>
      <use xlink:href="#DejaVuSans-3a" x="63.623047"/>
      <use xlink:href="#DejaVuSans-20" x="97.314453"/>
      <use xlink:href="#DejaVuSans-35" x="129.101562"/>
      <use xlink:href="#DejaVuSans-2f" x="192.724609"/>
      <use xlink:href="#DejaVuSans-35" x="226.416016"/>
     </g>
    </g>
    <g id="line2d_64">
     <path d="M 52.16 58.553125 
L 72.16 58.553125 
L 92.16 58.553125 
" style="fill: none; stroke: #00bfbf; stroke-width: 3; stroke-linecap: square"/>
    </g>
    <g id="text_8">
     <!-- -1: 5/5 -->
     <g transform="translate(108.16 65.553125)scale(0.2 -0.2)">
      <use xlink:href="#DejaVuSans-2d"/>
      <use xlink:href="#DejaVuSans-31" x="36.083984"/>
      <use xlink:href="#DejaVuSans-3a" x="99.707031"/>
      <use xlink:href="#DejaVuSans-20" x="133.398438"/>
      <use xlink:href="#DejaVuSans-35" x="165.185547"/>
      <use xlink:href="#DejaVuSans-2f" x="228.808594"/>
      <use xlink:href="#DejaVuSans-35" x="262.5"/>
     </g>
    </g>
    <g id="line2d_65">
     <path d="M 52.16 87.909375 
L 72.16 87.909375 
L 92.16 87.909375 
" style="fill: none; stroke: #bf00bf; stroke-width: 3; stroke-linecap: square"/>
    </g>
    <g id="text_9">
     <!-- -4: 5/5 -->
     <g transform="translate(108.16 94.909375)scale(0.2 -0.2)">
      <defs>
       <path id="DejaVuSans-34" d="M 2419 4116 
L 825 1625 
L 2419 1625 
L 2419 4116 
z
M 2253 4666 
L 3047 4666 
L 3047 1625 
L 3713 1625 
L 3713 1100 
L 3047 1100 
L 3047 0 
L 2419 0 
L 2419 1100 
L 313 1100 
L 313 1709 
L 2253 4666 
z
" transform="scale(0.015625)"/>
      </defs>
      <use xlink:href="#DejaVuSans-2d"/>
      <use xlink:href="#DejaVuSans-34" x="36.083984"/>
      <use xlink:href="#DejaVuSans-3a" x="99.707031"/>
      <use xlink:href="#DejaVuSans-20" x="133.398438"/>
      <use xlink:href="#DejaVuSans-35" x="165.185547"/>
      <use xlink:href="#DejaVuSans-2f" x="228.808594"/>
      <use xlink:href="#DejaVuSans-35" x="262.5"/>
     </g>
    </g>
    <g id="line2d_66">
     <path d="M 52.16 117.265625 
L 72.16 117.265625 
L 92.16 117.265625 
" style="fill: none; stroke: #ff0000; stroke-width: 3; stroke-linecap: square"/>
    </g>
    <g id="text_10">
     <!-- -8: 5/5 -->
     <g transform="translate(108.16 124.265625)scale(0.2 -0.2)">
      <use xlink:href="#DejaVuSans-2d"/>
      <use xlink:href="#DejaVuSans-38" x="36.083984"/>
      <use xlink:href="#DejaVuSans-3a" x="99.707031"/>
      <use xlink:href="#DejaVuSans-20" x="133.398438"/>
      <use xlink:href="#DejaVuSans-35" x="165.185547"/>
      <use xlink:href="#DejaVuSans-2f" x="228.808594"/>
      <use xlink:href="#DejaVuSans-35" x="262.5"/>
     </g>
    </g>
   </g>
  </g>
 </g>
 <defs>
  <clipPath id="pdb5797124e">
   <rect x="34.16" y="3" width="419.032" height="288.28"/>
  </clipPath>
 </defs>
</svg>
