<?xml version="1.0" encoding="utf-8" standalone="no"?>
<!DOCTYPE svg PUBLIC "-//W3C//DTD SVG 1.1//EN"
  "http://www.w3.org/Graphics/SVG/1.1/DTD/svg11.dtd">
<svg xmlns:xlink="http://www.w3.org/1999/xlink" width="460.8pt" height="345.6pt" viewBox="0 0 460.8 345.6" xmlns="http://www.w3.org/2000/svg" version="1.1">
 <metadata>
  <rdf:RDF xmlns:dc="http://purl.org/dc/elements/1.1/" xmlns:cc="http://creativecommons.org/ns#" xmlns:rdf="http://www.w3.org/1999/02/22-rdf-syntax-ns#">
   <cc:Work>
    <dc:type rdf:resource="http://purl.org/dc/dcmitype/StillImage"/>
    <dc:date>2023-04-07T14:43:57.762520</dc:date>
    <dc:format>image/svg+xml</dc:format>
    <dc:creator>
     <cc:Agent>
      <dc:title>Matplotlib v3.5.2, https://matplotlib.org/</dc:title>
     </cc:Agent>
    </dc:creator>
   </cc:Work>
  </rdf:RDF>
 </metadata>
 <defs>
  <style type="text/css">*{stroke-linejoin: round; stroke-linecap: butt}</style>
 </defs>
 <g id="figure_1">
  <g id="patch_1">
   <path d="M 0 345.6 
L 460.8 345.6 
L 460.8 0 
L 0 0 
z
" style="fill: #ffffff"/>
  </g>
  <g id="axes_1">
   <g id="patch_2">
    <path d="M 62.208 293.76 
L 460.8 293.76 
L 460.8 3.456 
L 62.208 3.456 
z
" style="fill: #ffffff"/>
   </g>
   <g id="line2d_1"/>
   <g id="line2d_2">
    <path d="M 378.925425 293.76 
L 378.925425 282.262812 
L 383.017251 282.262812 
L 383.017251 270.765624 
L 383.017251 270.765624 
L 383.017251 270.765624 
L 460.8 270.765624 
" clip-path="url(#pb944d686ff)" style="fill: none; stroke: #f5deb3; stroke-width: 1.5; stroke-linecap: square"/>
   </g>
   <g id="line2d_3"/>
   <g id="line2d_4"/>
   <g id="line2d_5"/>
   <g id="line2d_6"/>
   <g id="line2d_7">
    <path d="M 343.445961 293.76 
L 343.445961 289.927604 
L 367.827284 289.927604 
L 367.827284 286.095208 
L 373.807661 286.095208 
L 373.807661 282.262812 
L 374.323115 282.262812 
L 374.323115 278.430416 
L 375.008927 278.430416 
L 375.008927 274.59802 
L 379.520308 274.59802 
L 379.520308 270.765624 
L 379.734925 270.765624 
L 379.734925 266.933228 
L 382.010309 266.933228 
L 382.010309 263.100832 
L 387.686978 263.100832 
L 387.686978 259.268436 
L 392.865206 259.268436 
L 392.865206 255.43604 
L 393.241175 255.43604 
L 393.241175 251.603644 
L 394.54961 251.603644 
L 394.54961 247.771248 
L 404.869223 247.771248 
L 404.869223 243.938851 
L 409.52916 243.938851 
L 409.52916 240.106455 
L 412.570431 240.106455 
L 412.570431 236.274059 
L 416.23239 236.274059 
L 416.23239 232.441663 
L 417.954545 232.441663 
L 417.954545 228.609267 
L 419.31047 228.609267 
L 419.31047 224.776871 
L 422.84837 224.776871 
L 422.896183 217.112079 
L 422.995639 217.112079 
L 422.995639 213.279683 
L 424.19562 213.279683 
L 424.19562 209.447287 
L 428.536758 209.447287 
L 428.536758 205.614891 
L 433.184919 205.614891 
L 433.184919 201.782495 
L 442.322008 201.782495 
L 442.322008 197.950099 
L 442.859706 197.950099 
L 442.859706 194.117703 
L 446.30469 194.117703 
L 446.30469 190.285307 
L 450.845751 190.285307 
L 450.845751 186.452911 
L 453.196085 186.452911 
L 453.196085 182.620515 
L 455.592413 182.620515 
L 455.592413 178.788119 
L 460.590842 178.788119 
L 460.590842 174.955723 
L 461.8 174.955723 
L 461.8 174.955723 
" clip-path="url(#pb944d686ff)" style="fill: none; stroke: #f5deb3; stroke-width: 1.5; stroke-linecap: square"/>
   </g>
   <g id="line2d_8">
    <path d="M 361.345819 293.76 
L 361.345819 289.927604 
L 362.747055 289.927604 
L 362.747055 286.095208 
L 363.177578 286.095208 
L 363.177578 282.262812 
L 363.356963 282.262812 
L 363.356963 278.430416 
L 363.870914 278.430416 
L 363.870914 274.59802 
L 363.886113 274.59802 
L 363.886113 270.765624 
L 378.487933 270.765624 
L 378.487933 266.933228 
L 379.361862 266.933228 
L 379.361862 263.100832 
L 379.981028 263.100832 
L 379.981028 259.268436 
L 380.055193 259.268436 
L 380.055193 255.43604 
L 380.494777 255.43604 
L 380.494777 251.603644 
L 380.911987 251.603644 
L 380.911987 247.771248 
L 380.918 247.771248 
L 380.918 243.938851 
L 381.284197 243.938851 
L 381.284197 240.106455 
L 381.300914 240.106455 
L 381.300914 236.274059 
L 381.59926 236.274059 
L 381.59926 232.441663 
L 383.125601 232.441663 
L 383.125601 228.609267 
L 419.809975 228.609267 
L 419.809975 224.776871 
L 420.366439 224.776871 
L 420.366439 220.944475 
L 420.366439 220.944475 
L 420.366439 220.944475 
L 460.8 220.944475 
" clip-path="url(#pb944d686ff)" style="fill: none; stroke: #f5deb3; stroke-width: 1.5; stroke-linecap: square"/>
   </g>
   <g id="line2d_9">
    <path d="M 243.562356 293.76 
L 243.562356 289.927604 
L 282.308854 289.927604 
L 282.308854 286.095208 
L 282.8968 286.095208 
L 282.8968 282.262812 
L 283.622699 282.262812 
L 283.622699 278.430416 
L 286.70654 278.430416 
L 286.70654 274.59802 
L 290.867317 274.59802 
L 290.867317 270.765624 
L 291.349828 270.765624 
L 291.349828 266.933228 
L 291.512968 266.933228 
L 291.512968 263.100832 
L 292.39595 263.100832 
L 292.407261 255.43604 
L 292.666353 255.43604 
L 292.666353 251.603644 
L 292.99013 251.603644 
L 292.99013 247.771248 
L 300.340219 247.771248 
L 300.340219 243.938851 
L 305.403557 243.938851 
L 305.403557 240.106455 
L 306.18779 240.106455 
L 306.18779 236.274059 
L 307.101774 236.274059 
L 307.101774 232.441663 
L 307.839655 232.441663 
L 307.839655 228.609267 
L 308.972339 228.609267 
L 309.026765 220.944475 
L 313.666837 220.944475 
L 313.666837 217.112079 
L 314.714248 217.112079 
L 314.714248 213.279683 
L 315.57094 213.279683 
L 315.57094 209.447287 
L 315.817551 209.447287 
L 315.817551 205.614891 
L 316.089701 205.614891 
L 316.089701 201.782495 
L 316.218113 201.782495 
L 316.299815 194.117703 
L 316.411145 194.117703 
L 316.411145 190.285307 
L 316.651513 190.285307 
L 316.651513 186.452911 
L 317.658349 186.452911 
L 317.757346 178.788119 
L 317.933751 178.788119 
L 317.933751 174.955723 
L 318.373193 174.955723 
L 318.373193 171.123327 
L 319.020208 171.123327 
L 319.020208 167.290931 
L 319.974596 167.290931 
L 320.015887 159.626139 
L 320.46428 159.626139 
L 320.46428 155.793743 
L 321.426798 155.793743 
L 321.512698 148.12895 
L 325.335092 148.12895 
L 325.335092 144.296554 
L 330.894915 144.296554 
L 330.894915 140.464158 
L 331.159967 140.464158 
L 331.197903 132.799366 
L 332.307619 132.799366 
L 332.307619 128.96697 
L 336.224056 128.96697 
L 336.224056 125.134574 
L 338.002318 125.134574 
L 338.002318 121.302178 
L 339.044625 121.302178 
L 339.044625 117.469782 
L 341.247922 117.469782 
L 341.247922 113.637386 
L 341.703276 113.637386 
L 341.703276 109.80499 
L 342.676699 109.80499 
L 342.676699 105.972594 
L 343.417527 105.972594 
L 343.417527 102.140198 
L 343.596011 102.140198 
L 343.596011 98.307802 
L 348.237324 98.307802 
L 348.237324 94.475406 
L 349.87365 94.475406 
L 349.900871 86.810614 
L 350.382214 86.810614 
L 350.382214 82.978218 
L 350.733648 82.978218 
L 350.733648 79.145822 
L 350.877319 79.145822 
L 350.877319 75.313426 
L 352.979252 75.313426 
L 352.979252 71.48103 
L 355.204421 71.48103 
L 355.204421 67.648634 
L 355.394682 67.648634 
L 355.394682 63.816238 
L 358.200007 63.816238 
L 358.200007 59.983842 
L 360.48595 59.983842 
L 360.48595 56.151446 
L 363.151039 56.151446 
L 363.151039 52.31905 
L 363.731893 52.31905 
L 363.731893 48.486653 
L 377.822153 48.486653 
L 377.822153 44.654257 
L 383.860071 44.654257 
L 383.860071 40.821861 
L 383.989273 40.821861 
L 383.989273 36.989465 
L 387.033012 36.989465 
L 387.033012 33.157069 
L 395.625403 33.157069 
L 395.625403 29.324673 
L 397.153591 29.324673 
L 397.153591 25.492277 
L 401.515117 25.492277 
L 401.515117 21.659881 
L 406.359967 21.659881 
L 406.359967 17.827485 
L 407.964796 17.827485 
L 408.052636 10.162693 
L 420.858566 10.162693 
L 420.858566 6.330297 
L 420.858566 6.330297 
L 460.8 6.330297 
L 460.8 6.330297 
" clip-path="url(#pb944d686ff)" style="fill: none; stroke: #f5deb3; stroke-width: 1.5; stroke-linecap: square"/>
   </g>
   <g id="line2d_10"/>
   <g id="line2d_11">
    <path d="M 396.045608 293.76 
L 396.045608 289.927604 
L 442.548245 289.927604 
L 442.548245 286.095208 
L 449.389598 286.095208 
L 449.389598 282.262812 
L 456.617809 282.262812 
L 456.617809 278.430416 
L 457.804524 278.430416 
L 457.804524 274.59802 
L 461.8 274.59802 
" clip-path="url(#pb944d686ff)" style="fill: none; stroke: #f5deb3; stroke-width: 1.5; stroke-linecap: square"/>
   </g>
   <g id="line2d_12"/>
   <g id="line2d_13"/>
   <g id="line2d_14"/>
   <g id="line2d_15"/>
   <g id="line2d_16"/>
   <g id="line2d_17">
    <path d="M 355.003903 293.76 
L 355.003903 289.927604 
L 357.213065 289.927604 
L 357.213065 286.095208 
L 358.180407 286.095208 
L 358.180407 282.262812 
L 359.492177 282.262812 
L 359.492177 278.430416 
L 362.037208 278.430416 
L 362.037208 274.59802 
L 362.154924 274.59802 
L 362.154924 270.765624 
L 363.371117 270.765624 
L 363.371117 266.933228 
L 363.707074 266.933228 
L 363.707074 263.100832 
L 363.839226 263.100832 
L 363.839226 259.268436 
L 366.938211 259.268436 
L 366.938211 255.43604 
L 367.391177 255.43604 
L 367.391177 251.603644 
L 374.436971 251.603644 
L 374.436971 247.771248 
L 380.427327 247.771248 
L 380.427327 243.938851 
L 380.505054 243.938851 
L 380.505054 240.106455 
L 380.550689 240.106455 
L 380.550689 236.274059 
L 383.141753 236.274059 
L 383.141753 232.441663 
L 383.813681 232.441663 
L 383.813681 228.609267 
L 386.124364 228.609267 
L 386.124364 224.776871 
L 387.260918 224.776871 
L 387.260918 220.944475 
L 388.153946 220.944475 
L 388.153946 217.112079 
L 389.3496 217.112079 
L 389.3496 213.279683 
L 390.796139 213.279683 
L 390.796139 209.447287 
L 394.943232 209.447287 
L 394.943232 205.614891 
L 395.811903 205.614891 
L 395.811903 201.782495 
L 397.78907 201.782495 
L 397.78907 197.950099 
L 398.742545 197.950099 
L 398.742545 194.117703 
L 401.160895 194.117703 
L 401.160895 190.285307 
L 402.246468 190.285307 
L 402.246468 186.452911 
L 402.246468 186.452911 
L 402.246468 186.452911 
L 460.8 186.452911 
" clip-path="url(#pb944d686ff)" style="fill: none; stroke: #f5deb3; stroke-width: 1.5; stroke-linecap: square"/>
   </g>
   <g id="line2d_18"/>
   <g id="line2d_19">
    <path d="M 370.810118 293.76 
L 370.810118 289.927604 
L 401.550688 289.927604 
L 401.550688 286.095208 
L 410.472855 286.095208 
L 410.472855 282.262812 
L 413.435997 282.262812 
L 413.435997 278.430416 
L 421.101436 278.430416 
L 421.101436 274.59802 
L 426.160588 274.59802 
L 426.160588 270.765624 
L 427.185195 270.765624 
L 427.185195 266.933228 
L 428.417698 266.933228 
L 428.417698 263.100832 
L 430.640328 263.100832 
L 430.640328 259.268436 
L 432.737063 259.268436 
L 432.737063 255.43604 
L 432.907879 255.43604 
L 432.907879 251.603644 
L 434.146021 251.603644 
L 434.146021 247.771248 
L 436.904897 247.771248 
L 436.904897 243.938851 
L 446.35885 243.938851 
L 446.35885 240.106455 
L 447.258206 240.106455 
L 447.258206 236.274059 
L 448.549764 236.274059 
L 448.549764 232.441663 
L 450.616575 232.441663 
L 450.616575 228.609267 
L 460.521929 228.609267 
L 460.521929 224.776871 
L 461.185292 224.776871 
L 461.185292 220.944475 
L 461.8 220.944475 
L 461.8 220.944475 
" clip-path="url(#pb944d686ff)" style="fill: none; stroke: #f5deb3; stroke-width: 1.5; stroke-linecap: square"/>
   </g>
   <g id="line2d_20">
    <path d="M 356.396672 293.76 
L 356.396672 289.927604 
L 356.396672 289.927604 
L 356.396672 289.927604 
L 460.8 289.927604 
" clip-path="url(#pb944d686ff)" style="fill: none; stroke: #f5deb3; stroke-width: 1.5; stroke-linecap: square"/>
   </g>
   <g id="line2d_21"/>
   <g id="line2d_22">
    <path d="M 370.944536 293.76 
L 370.944536 289.927604 
L 390.52989 289.927604 
L 390.52989 286.095208 
L 410.385205 286.095208 
L 410.385205 282.262812 
L 420.010176 282.262812 
L 420.010176 278.430416 
L 434.742932 278.430416 
L 434.742932 274.59802 
L 434.742932 274.59802 
L 434.742932 274.59802 
L 460.8 274.59802 
" clip-path="url(#pb944d686ff)" style="fill: none; stroke: #f5deb3; stroke-width: 1.5; stroke-linecap: square"/>
   </g>
   <g id="line2d_23">
    <path d="M 388.260051 293.76 
L 388.260051 289.927604 
L 395.471294 289.927604 
L 395.471294 286.095208 
L 395.471294 286.095208 
L 395.471294 286.095208 
L 460.8 286.095208 
" clip-path="url(#pb944d686ff)" style="fill: none; stroke: #f5deb3; stroke-width: 1.5; stroke-linecap: square"/>
   </g>
   <g id="line2d_24">
    <path d="M 272.077085 293.76 
L 272.077085 289.927604 
L 274.950968 289.927604 
L 274.950968 286.095208 
L 276.707884 286.095208 
L 276.707884 282.262812 
L 280.98808 282.262812 
L 280.98808 278.430416 
L 283.755644 278.430416 
L 283.755644 274.59802 
L 335.001781 274.59802 
L 335.001781 270.765624 
L 336.651183 270.765624 
L 336.651183 266.933228 
L 337.033904 266.933228 
L 337.033904 263.100832 
L 337.169099 263.100832 
L 337.169099 259.268436 
L 338.460789 259.268436 
L 338.460789 255.43604 
L 338.746492 255.43604 
L 338.829807 247.771248 
L 340.174023 247.771248 
L 340.174023 243.938851 
L 340.486695 243.938851 
L 340.561811 236.274059 
L 340.730834 236.274059 
L 340.730834 232.441663 
L 341.043343 232.441663 
L 341.043343 228.609267 
L 343.288078 228.609267 
L 343.288078 224.776871 
L 345.326916 224.776871 
L 345.326916 220.944475 
L 345.831646 220.944475 
L 345.831646 217.112079 
L 346.021525 217.112079 
L 346.021525 213.279683 
L 346.769117 213.279683 
L 346.769117 209.447287 
L 346.929164 209.447287 
L 346.929164 205.614891 
L 347.146635 205.614891 
L 347.227946 197.950099 
L 347.611693 197.950099 
L 347.721996 190.285307 
L 348.14824 190.285307 
L 348.14824 186.452911 
L 348.5011 186.452911 
L 348.604399 178.788119 
L 348.844166 178.788119 
L 348.844166 174.955723 
L 349.087166 174.955723 
L 349.122017 167.290931 
L 350.496917 167.290931 
L 350.514088 159.626139 
L 350.993118 159.626139 
L 350.993118 155.793743 
L 351.662847 155.793743 
L 351.662847 151.961347 
L 352.676299 151.961347 
L 352.676299 148.12895 
L 352.941204 148.12895 
L 352.941204 144.296554 
L 355.685745 144.296554 
L 355.685745 140.464158 
L 357.417487 140.464158 
L 357.417487 136.631762 
L 361.704515 136.631762 
L 361.704515 132.799366 
L 367.464456 132.799366 
L 367.464456 128.96697 
L 367.615042 128.96697 
L 367.615042 125.134574 
L 368.330109 125.134574 
L 368.330109 121.302178 
L 370.112337 121.302178 
L 370.112337 117.469782 
L 371.006194 117.469782 
L 371.006194 113.637386 
L 372.591064 113.637386 
L 372.591064 109.80499 
L 373.511508 109.80499 
L 373.511508 105.972594 
L 377.745216 105.972594 
L 377.745216 102.140198 
L 381.765546 102.140198 
L 381.765546 98.307802 
L 382.484728 98.307802 
L 382.484728 94.475406 
L 386.006251 94.475406 
L 386.006251 90.64301 
L 391.300618 90.64301 
L 391.300618 86.810614 
L 392.153336 86.810614 
L 392.153336 82.978218 
L 393.938534 82.978218 
L 393.976339 75.313426 
L 394.204506 75.313426 
L 394.204506 71.48103 
L 396.342143 71.48103 
L 396.342143 67.648634 
L 397.395389 67.648634 
L 397.395389 63.816238 
L 415.315568 63.816238 
L 415.315568 59.983842 
L 416.034725 59.983842 
L 416.034725 56.151446 
L 417.163435 56.151446 
L 417.163435 52.31905 
L 420.790724 52.31905 
L 420.790724 48.486653 
L 426.786487 48.486653 
L 426.786487 44.654257 
L 431.467829 44.654257 
L 431.467829 40.821861 
L 431.963935 40.821861 
L 431.963935 36.989465 
L 436.304438 36.989465 
L 436.304438 33.157069 
L 438.364024 33.157069 
L 438.364024 29.324673 
L 445.151265 29.324673 
L 445.151265 25.492277 
L 447.689746 25.492277 
L 447.689746 21.659881 
L 453.1402 21.659881 
L 453.1402 17.827485 
L 454.563855 17.827485 
L 454.563855 13.995089 
L 458.583756 13.995089 
L 458.583756 10.162693 
L 461.8 10.162693 
L 461.8 10.162693 
" clip-path="url(#pb944d686ff)" style="fill: none; stroke: #f5deb3; stroke-width: 1.5; stroke-linecap: square"/>
   </g>
   <g id="line2d_25">
    <path d="M 371.423005 293.76 
L 371.423005 289.927604 
L 374.155282 289.927604 
L 374.155282 286.095208 
L 374.321276 286.095208 
L 374.321276 282.262812 
L 375.483716 282.262812 
L 375.483716 278.430416 
L 376.978424 278.430416 
L 376.978424 274.59802 
L 377.560822 274.59802 
L 377.560822 270.765624 
L 377.809343 270.765624 
L 377.809343 266.933228 
L 378.509381 266.933228 
L 378.509381 263.100832 
L 378.542537 263.100832 
L 378.542537 259.268436 
L 380.388013 259.268436 
L 380.388013 255.43604 
L 381.391038 255.43604 
L 381.391038 251.603644 
L 400.145539 251.603644 
L 400.145539 247.771248 
L 400.719303 247.771248 
L 400.719303 243.938851 
L 401.172617 243.938851 
L 401.172617 240.106455 
L 401.561871 240.106455 
L 401.561871 236.274059 
L 401.654781 236.274059 
L 401.654781 232.441663 
L 401.884324 232.441663 
L 401.884324 228.609267 
L 402.210082 228.609267 
L 402.210082 224.776871 
L 402.242362 224.776871 
L 402.242362 220.944475 
L 402.312291 220.944475 
L 402.312291 217.112079 
L 402.313657 217.112079 
L 402.313657 213.279683 
L 402.340572 213.279683 
L 402.340572 209.447287 
L 402.349539 209.447287 
L 402.349539 205.614891 
L 402.405622 205.614891 
L 402.405622 201.782495 
L 402.551028 201.782495 
L 402.551028 197.950099 
L 402.574071 197.950099 
L 402.574071 194.117703 
L 402.684796 194.117703 
L 402.684796 190.285307 
L 403.010534 190.285307 
L 403.010534 186.452911 
L 403.15765 186.452911 
L 403.15765 182.620515 
L 403.188247 182.620515 
L 403.188247 178.788119 
L 403.270774 178.788119 
L 403.270774 174.955723 
L 403.320947 174.955723 
L 403.320947 171.123327 
L 403.579298 171.123327 
L 403.579298 167.290931 
L 403.681994 167.290931 
L 403.681994 163.458535 
L 403.872101 163.458535 
L 403.872101 159.626139 
L 409.220332 159.626139 
L 409.220332 155.793743 
L 432.4202 155.793743 
L 432.4202 151.961347 
L 432.4202 151.961347 
L 432.4202 151.961347 
L 460.8 151.961347 
" clip-path="url(#pb944d686ff)" style="fill: none; stroke: #f5deb3; stroke-width: 1.5; stroke-linecap: square"/>
   </g>
   <g id="line2d_26">
    <path d="M 323.101055 293.76 
L 323.101055 289.927604 
L 325.645035 289.927604 
L 325.645035 286.095208 
L 332.563142 286.095208 
L 332.563142 282.262812 
L 333.636138 282.262812 
L 333.636138 278.430416 
L 334.781707 278.430416 
L 334.781707 274.59802 
L 336.228488 274.59802 
L 336.228488 270.765624 
L 338.654735 270.765624 
L 338.654735 266.933228 
L 345.182386 266.933228 
L 345.182386 263.100832 
L 348.448312 263.100832 
L 348.448312 259.268436 
L 356.94163 259.268436 
L 356.94163 255.43604 
L 358.761867 255.43604 
L 358.761867 251.603644 
L 367.97565 251.603644 
L 367.97565 247.771248 
L 373.418495 247.771248 
L 373.418495 243.938851 
L 374.247144 243.938851 
L 374.247144 240.106455 
L 379.530111 240.106455 
L 379.530111 236.274059 
L 384.32445 236.274059 
L 384.32445 232.441663 
L 386.391109 232.441663 
L 386.391109 228.609267 
L 388.917781 228.609267 
L 388.917781 224.776871 
L 391.004551 224.776871 
L 391.004551 220.944475 
L 391.760777 220.944475 
L 391.760777 217.112079 
L 391.760777 217.112079 
L 391.760777 217.112079 
L 460.8 217.112079 
" clip-path="url(#pb944d686ff)" style="fill: none; stroke: #f5deb3; stroke-width: 1.5; stroke-linecap: square"/>
   </g>
   <g id="line2d_27"/>
   <g id="line2d_28">
    <path d="M 263.644648 293.76 
L 263.644648 289.927604 
L 275.458593 289.927604 
L 275.458593 286.095208 
L 313.24246 286.095208 
L 313.24246 282.262812 
L 324.535488 282.262812 
L 324.535488 278.430416 
L 327.774257 278.430416 
L 327.774257 274.59802 
L 329.688347 274.59802 
L 329.688347 270.765624 
L 345.127318 270.765624 
L 345.127318 266.933228 
L 345.814029 266.933228 
L 345.814029 263.100832 
L 347.479046 263.100832 
L 347.479046 259.268436 
L 348.182059 259.268436 
L 348.182059 255.43604 
L 349.116045 255.43604 
L 349.116045 251.603644 
L 351.015665 251.603644 
L 351.015665 247.771248 
L 351.926026 247.771248 
L 351.926026 243.938851 
L 352.868525 243.938851 
L 352.868525 240.106455 
L 353.425421 240.106455 
L 353.425421 236.274059 
L 358.590301 236.274059 
L 358.590301 232.441663 
L 358.787044 232.441663 
L 358.787044 228.609267 
L 359.290177 228.609267 
L 359.362983 220.944475 
L 359.650431 220.944475 
L 359.650431 217.112079 
L 366.550724 217.112079 
L 366.550724 213.279683 
L 368.263179 213.279683 
L 368.263179 209.447287 
L 369.032551 209.447287 
L 369.032551 205.614891 
L 369.632707 205.614891 
L 369.632707 201.782495 
L 370.109721 201.782495 
L 370.193857 194.117703 
L 372.093114 194.117703 
L 372.093114 190.285307 
L 372.235601 190.285307 
L 372.235601 186.452911 
L 372.711112 186.452911 
L 372.711112 182.620515 
L 375.614385 182.620515 
L 375.614385 178.788119 
L 376.866728 178.788119 
L 376.866728 174.955723 
L 377.020793 174.955723 
L 377.020793 171.123327 
L 377.218356 171.123327 
L 377.218356 167.290931 
L 377.903031 167.290931 
L 377.903031 163.458535 
L 378.857052 163.458535 
L 378.857052 159.626139 
L 380.031263 159.626139 
L 380.033579 151.961347 
L 380.293924 151.961347 
L 380.293924 148.12895 
L 381.295343 148.12895 
L 381.295343 144.296554 
L 381.674249 144.296554 
L 381.674249 140.464158 
L 382.279932 140.464158 
L 382.279932 136.631762 
L 382.69145 136.631762 
L 382.69145 132.799366 
L 383.256688 132.799366 
L 383.256688 128.96697 
L 383.585929 128.96697 
L 383.585929 125.134574 
L 385.115105 125.134574 
L 385.115105 121.302178 
L 386.550874 121.302178 
L 386.550874 117.469782 
L 386.710491 117.469782 
L 386.710491 113.637386 
L 387.235226 113.637386 
L 387.235226 109.80499 
L 388.527533 109.80499 
L 388.527533 105.972594 
L 389.347859 105.972594 
L 389.347859 102.140198 
L 396.670352 102.140198 
L 396.670352 98.307802 
L 399.504358 98.307802 
L 399.504358 94.475406 
L 403.662716 94.475406 
L 403.662716 90.64301 
L 404.022615 90.64301 
L 404.022615 86.810614 
L 404.366866 86.810614 
L 404.366866 82.978218 
L 406.908469 82.978218 
L 406.908469 79.145822 
L 407.396184 79.145822 
L 407.396184 75.313426 
L 411.739083 75.313426 
L 411.739083 71.48103 
L 412.852658 71.48103 
L 412.852658 67.648634 
L 416.868439 67.648634 
L 416.868439 63.816238 
L 417.029326 63.816238 
L 417.029326 59.983842 
L 436.65917 59.983842 
L 436.65917 56.151446 
L 436.812661 56.151446 
L 436.812661 52.31905 
L 437.065518 52.31905 
L 437.065518 48.486653 
L 439.669317 48.486653 
L 439.669317 44.654257 
L 447.874969 44.654257 
L 447.874969 40.821861 
L 461.8 40.821861 
L 461.8 40.821861 
" clip-path="url(#pb944d686ff)" style="fill: none; stroke: #f5deb3; stroke-width: 1.5; stroke-linecap: square"/>
   </g>
   <g id="line2d_29"/>
   <g id="line2d_30"/>
   <g id="matplotlib.axis_1">
    <g id="xtick_1">
     <g id="line2d_31">
      <path d="M 62.208 293.76 
L 62.208 3.456 
" clip-path="url(#pb944d686ff)" style="fill: none; stroke: #b0b0b0; stroke-width: 0.8; stroke-linecap: square"/>
     </g>
     <g id="line2d_32">
      <defs>
       <path id="mb0f5a85abe" d="M 0 0 
L 0 3.5 
" style="stroke: #000000; stroke-width: 0.8"/>
      </defs>
      <g>
       <use xlink:href="#mb0f5a85abe" x="62.208" y="293.76" style="stroke: #000000; stroke-width: 0.8"/>
      </g>
     </g>
     <g id="text_1">
      <!-- 0 -->
      <g transform="translate(55.8455 315.956875)scale(0.2 -0.2)">
       <defs>
        <path id="DejaVuSans-30" d="M 2034 4250 
Q 1547 4250 1301 3770 
Q 1056 3291 1056 2328 
Q 1056 1369 1301 889 
Q 1547 409 2034 409 
Q 2525 409 2770 889 
Q 3016 1369 3016 2328 
Q 3016 3291 2770 3770 
Q 2525 4250 2034 4250 
z
M 2034 4750 
Q 2819 4750 3233 4129 
Q 3647 3509 3647 2328 
Q 3647 1150 3233 529 
Q 2819 -91 2034 -91 
Q 1250 -91 836 529 
Q 422 1150 422 2328 
Q 422 3509 836 4129 
Q 1250 4750 2034 4750 
z
" transform="scale(0.015625)"/>
       </defs>
       <use xlink:href="#DejaVuSans-30"/>
      </g>
     </g>
    </g>
    <g id="xtick_2">
     <g id="line2d_33">
      <path d="M 212.545571 293.76 
L 212.545571 3.456 
" clip-path="url(#pb944d686ff)" style="fill: none; stroke: #b0b0b0; stroke-width: 0.8; stroke-linecap: square"/>
     </g>
     <g id="line2d_34">
      <g>
       <use xlink:href="#mb0f5a85abe" x="212.545571" y="293.76" style="stroke: #000000; stroke-width: 0.8"/>
      </g>
     </g>
     <g id="text_2">
      <!-- 2 -->
      <g transform="translate(206.183071 315.956875)scale(0.2 -0.2)">
       <defs>
        <path id="DejaVuSans-32" d="M 1228 531 
L 3431 531 
L 3431 0 
L 469 0 
L 469 531 
Q 828 903 1448 1529 
Q 2069 2156 2228 2338 
Q 2531 2678 2651 2914 
Q 2772 3150 2772 3378 
Q 2772 3750 2511 3984 
Q 2250 4219 1831 4219 
Q 1534 4219 1204 4116 
Q 875 4013 500 3803 
L 500 4441 
Q 881 4594 1212 4672 
Q 1544 4750 1819 4750 
Q 2544 4750 2975 4387 
Q 3406 4025 3406 3419 
Q 3406 3131 3298 2873 
Q 3191 2616 2906 2266 
Q 2828 2175 2409 1742 
Q 1991 1309 1228 531 
z
" transform="scale(0.015625)"/>
       </defs>
       <use xlink:href="#DejaVuSans-32"/>
      </g>
     </g>
    </g>
    <g id="xtick_3">
     <g id="line2d_35">
      <path d="M 362.883143 293.76 
L 362.883143 3.456 
" clip-path="url(#pb944d686ff)" style="fill: none; stroke: #b0b0b0; stroke-width: 0.8; stroke-linecap: square"/>
     </g>
     <g id="line2d_36">
      <g>
       <use xlink:href="#mb0f5a85abe" x="362.883143" y="293.76" style="stroke: #000000; stroke-width: 0.8"/>
      </g>
     </g>
     <g id="text_3">
      <!-- 4 -->
      <g transform="translate(356.520643 315.956875)scale(0.2 -0.2)">
       <defs>
        <path id="DejaVuSans-34" d="M 2419 4116 
L 825 1625 
L 2419 1625 
L 2419 4116 
z
M 2253 4666 
L 3047 4666 
L 3047 1625 
L 3713 1625 
L 3713 1100 
L 3047 1100 
L 3047 0 
L 2419 0 
L 2419 1100 
L 313 1100 
L 313 1709 
L 2253 4666 
z
" transform="scale(0.015625)"/>
       </defs>
       <use xlink:href="#DejaVuSans-34"/>
      </g>
     </g>
    </g>
    <g id="text_4">
     <!-- log10 of FEvals / DIM -->
     <g transform="translate(156.430563 339.313125)scale(0.2 -0.2)">
      <defs>
       <path id="DejaVuSans-6c" d="M 603 4863 
L 1178 4863 
L 1178 0 
L 603 0 
L 603 4863 
z
" transform="scale(0.015625)"/>
       <path id="DejaVuSans-6f" d="M 1959 3097 
Q 1497 3097 1228 2736 
Q 959 2375 959 1747 
Q 959 1119 1226 758 
Q 1494 397 1959 397 
Q 2419 397 2687 759 
Q 2956 1122 2956 1747 
Q 2956 2369 2687 2733 
Q 2419 3097 1959 3097 
z
M 1959 3584 
Q 2709 3584 3137 3096 
Q 3566 2609 3566 1747 
Q 3566 888 3137 398 
Q 2709 -91 1959 -91 
Q 1206 -91 779 398 
Q 353 888 353 1747 
Q 353 2609 779 3096 
Q 1206 3584 1959 3584 
z
" transform="scale(0.015625)"/>
       <path id="DejaVuSans-67" d="M 2906 1791 
Q 2906 2416 2648 2759 
Q 2391 3103 1925 3103 
Q 1463 3103 1205 2759 
Q 947 2416 947 1791 
Q 947 1169 1205 825 
Q 1463 481 1925 481 
Q 2391 481 2648 825 
Q 2906 1169 2906 1791 
z
M 3481 434 
Q 3481 -459 3084 -895 
Q 2688 -1331 1869 -1331 
Q 1566 -1331 1297 -1286 
Q 1028 -1241 775 -1147 
L 775 -588 
Q 1028 -725 1275 -790 
Q 1522 -856 1778 -856 
Q 2344 -856 2625 -561 
Q 2906 -266 2906 331 
L 2906 616 
Q 2728 306 2450 153 
Q 2172 0 1784 0 
Q 1141 0 747 490 
Q 353 981 353 1791 
Q 353 2603 747 3093 
Q 1141 3584 1784 3584 
Q 2172 3584 2450 3431 
Q 2728 3278 2906 2969 
L 2906 3500 
L 3481 3500 
L 3481 434 
z
" transform="scale(0.015625)"/>
       <path id="DejaVuSans-31" d="M 794 531 
L 1825 531 
L 1825 4091 
L 703 3866 
L 703 4441 
L 1819 4666 
L 2450 4666 
L 2450 531 
L 3481 531 
L 3481 0 
L 794 0 
L 794 531 
z
" transform="scale(0.015625)"/>
       <path id="DejaVuSans-20" transform="scale(0.015625)"/>
       <path id="DejaVuSans-66" d="M 2375 4863 
L 2375 4384 
L 1825 4384 
Q 1516 4384 1395 4259 
Q 1275 4134 1275 3809 
L 1275 3500 
L 2222 3500 
L 2222 3053 
L 1275 3053 
L 1275 0 
L 697 0 
L 697 3053 
L 147 3053 
L 147 3500 
L 697 3500 
L 697 3744 
Q 697 4328 969 4595 
Q 1241 4863 1831 4863 
L 2375 4863 
z
" transform="scale(0.015625)"/>
       <path id="DejaVuSans-46" d="M 628 4666 
L 3309 4666 
L 3309 4134 
L 1259 4134 
L 1259 2759 
L 3109 2759 
L 3109 2228 
L 1259 2228 
L 1259 0 
L 628 0 
L 628 4666 
z
" transform="scale(0.015625)"/>
       <path id="DejaVuSans-45" d="M 628 4666 
L 3578 4666 
L 3578 4134 
L 1259 4134 
L 1259 2753 
L 3481 2753 
L 3481 2222 
L 1259 2222 
L 1259 531 
L 3634 531 
L 3634 0 
L 628 0 
L 628 4666 
z
" transform="scale(0.015625)"/>
       <path id="DejaVuSans-76" d="M 191 3500 
L 800 3500 
L 1894 563 
L 2988 3500 
L 3597 3500 
L 2284 0 
L 1503 0 
L 191 3500 
z
" transform="scale(0.015625)"/>
       <path id="DejaVuSans-61" d="M 2194 1759 
Q 1497 1759 1228 1600 
Q 959 1441 959 1056 
Q 959 750 1161 570 
Q 1363 391 1709 391 
Q 2188 391 2477 730 
Q 2766 1069 2766 1631 
L 2766 1759 
L 2194 1759 
z
M 3341 1997 
L 3341 0 
L 2766 0 
L 2766 531 
Q 2569 213 2275 61 
Q 1981 -91 1556 -91 
Q 1019 -91 701 211 
Q 384 513 384 1019 
Q 384 1609 779 1909 
Q 1175 2209 1959 2209 
L 2766 2209 
L 2766 2266 
Q 2766 2663 2505 2880 
Q 2244 3097 1772 3097 
Q 1472 3097 1187 3025 
Q 903 2953 641 2809 
L 641 3341 
Q 956 3463 1253 3523 
Q 1550 3584 1831 3584 
Q 2591 3584 2966 3190 
Q 3341 2797 3341 1997 
z
" transform="scale(0.015625)"/>
       <path id="DejaVuSans-73" d="M 2834 3397 
L 2834 2853 
Q 2591 2978 2328 3040 
Q 2066 3103 1784 3103 
Q 1356 3103 1142 2972 
Q 928 2841 928 2578 
Q 928 2378 1081 2264 
Q 1234 2150 1697 2047 
L 1894 2003 
Q 2506 1872 2764 1633 
Q 3022 1394 3022 966 
Q 3022 478 2636 193 
Q 2250 -91 1575 -91 
Q 1294 -91 989 -36 
Q 684 19 347 128 
L 347 722 
Q 666 556 975 473 
Q 1284 391 1588 391 
Q 1994 391 2212 530 
Q 2431 669 2431 922 
Q 2431 1156 2273 1281 
Q 2116 1406 1581 1522 
L 1381 1569 
Q 847 1681 609 1914 
Q 372 2147 372 2553 
Q 372 3047 722 3315 
Q 1072 3584 1716 3584 
Q 2034 3584 2315 3537 
Q 2597 3491 2834 3397 
z
" transform="scale(0.015625)"/>
       <path id="DejaVuSans-2f" d="M 1625 4666 
L 2156 4666 
L 531 -594 
L 0 -594 
L 1625 4666 
z
" transform="scale(0.015625)"/>
       <path id="DejaVuSans-44" d="M 1259 4147 
L 1259 519 
L 2022 519 
Q 2988 519 3436 956 
Q 3884 1394 3884 2338 
Q 3884 3275 3436 3711 
Q 2988 4147 2022 4147 
L 1259 4147 
z
M 628 4666 
L 1925 4666 
Q 3281 4666 3915 4102 
Q 4550 3538 4550 2338 
Q 4550 1131 3912 565 
Q 3275 0 1925 0 
L 628 0 
L 628 4666 
z
" transform="scale(0.015625)"/>
       <path id="DejaVuSans-49" d="M 628 4666 
L 1259 4666 
L 1259 0 
L 628 0 
L 628 4666 
z
" transform="scale(0.015625)"/>
       <path id="DejaVuSans-4d" d="M 628 4666 
L 1569 4666 
L 2759 1491 
L 3956 4666 
L 4897 4666 
L 4897 0 
L 4281 0 
L 4281 4097 
L 3078 897 
L 2444 897 
L 1241 4097 
L 1241 0 
L 628 0 
L 628 4666 
z
" transform="scale(0.015625)"/>
      </defs>
      <use xlink:href="#DejaVuSans-6c"/>
      <use xlink:href="#DejaVuSans-6f" x="27.783203"/>
      <use xlink:href="#DejaVuSans-67" x="88.964844"/>
      <use xlink:href="#DejaVuSans-31" x="152.441406"/>
      <use xlink:href="#DejaVuSans-30" x="216.064453"/>
      <use xlink:href="#DejaVuSans-20" x="279.6875"/>
      <use xlink:href="#DejaVuSans-6f" x="311.474609"/>
      <use xlink:href="#DejaVuSans-66" x="372.65625"/>
      <use xlink:href="#DejaVuSans-20" x="407.861328"/>
      <use xlink:href="#DejaVuSans-46" x="439.648438"/>
      <use xlink:href="#DejaVuSans-45" x="497.167969"/>
      <use xlink:href="#DejaVuSans-76" x="560.351562"/>
      <use xlink:href="#DejaVuSans-61" x="619.53125"/>
      <use xlink:href="#DejaVuSans-6c" x="680.810547"/>
      <use xlink:href="#DejaVuSans-73" x="708.59375"/>
      <use xlink:href="#DejaVuSans-20" x="760.693359"/>
      <use xlink:href="#DejaVuSans-2f" x="792.480469"/>
      <use xlink:href="#DejaVuSans-20" x="826.171875"/>
      <use xlink:href="#DejaVuSans-44" x="857.958984"/>
      <use xlink:href="#DejaVuSans-49" x="934.960938"/>
      <use xlink:href="#DejaVuSans-4d" x="964.453125"/>
     </g>
    </g>
   </g>
   <g id="matplotlib.axis_2">
    <g id="ytick_1">
     <g id="line2d_37">
      <path d="M 62.208 293.76 
L 460.8 293.76 
" clip-path="url(#pb944d686ff)" style="fill: none; stroke: #b0b0b0; stroke-width: 0.8; stroke-linecap: square"/>
     </g>
     <g id="line2d_38">
      <defs>
       <path id="m253371af54" d="M 0 0 
L -3.5 0 
" style="stroke: #000000; stroke-width: 0.8"/>
      </defs>
      <g>
       <use xlink:href="#m253371af54" x="62.208" y="293.76" style="stroke: #000000; stroke-width: 0.8"/>
      </g>
     </g>
     <g id="text_5">
      <!-- 0.0 -->
      <g transform="translate(29.763 299.83875)scale(0.16 -0.16)">
       <defs>
        <path id="DejaVuSans-2e" d="M 684 794 
L 1344 794 
L 1344 0 
L 684 0 
L 684 794 
z
" transform="scale(0.015625)"/>
       </defs>
       <use xlink:href="#DejaVuSans-30"/>
       <use xlink:href="#DejaVuSans-2e" x="63.623047"/>
       <use xlink:href="#DejaVuSans-30" x="95.410156"/>
      </g>
     </g>
    </g>
    <g id="ytick_2">
     <g id="line2d_39">
      <path d="M 62.208 236.274059 
L 460.8 236.274059 
" clip-path="url(#pb944d686ff)" style="fill: none; stroke: #b0b0b0; stroke-width: 0.8; stroke-linecap: square"/>
     </g>
     <g id="line2d_40">
      <g>
       <use xlink:href="#m253371af54" x="62.208" y="236.274059" style="stroke: #000000; stroke-width: 0.8"/>
      </g>
     </g>
     <g id="text_6">
      <!-- 0.2 -->
      <g transform="translate(29.763 242.352809)scale(0.16 -0.16)">
       <use xlink:href="#DejaVuSans-30"/>
       <use xlink:href="#DejaVuSans-2e" x="63.623047"/>
       <use xlink:href="#DejaVuSans-32" x="95.410156"/>
      </g>
     </g>
    </g>
    <g id="ytick_3">
     <g id="line2d_41">
      <path d="M 62.208 178.788119 
L 460.8 178.788119 
" clip-path="url(#pb944d686ff)" style="fill: none; stroke: #b0b0b0; stroke-width: 0.8; stroke-linecap: square"/>
     </g>
     <g id="line2d_42">
      <g>
       <use xlink:href="#m253371af54" x="62.208" y="178.788119" style="stroke: #000000; stroke-width: 0.8"/>
      </g>
     </g>
     <g id="text_7">
      <!-- 0.4 -->
      <g transform="translate(29.763 184.866869)scale(0.16 -0.16)">
       <use xlink:href="#DejaVuSans-30"/>
       <use xlink:href="#DejaVuSans-2e" x="63.623047"/>
       <use xlink:href="#DejaVuSans-34" x="95.410156"/>
      </g>
     </g>
    </g>
    <g id="ytick_4">
     <g id="line2d_43">
      <path d="M 62.208 121.302178 
L 460.8 121.302178 
" clip-path="url(#pb944d686ff)" style="fill: none; stroke: #b0b0b0; stroke-width: 0.8; stroke-linecap: square"/>
     </g>
     <g id="line2d_44">
      <g>
       <use xlink:href="#m253371af54" x="62.208" y="121.302178" style="stroke: #000000; stroke-width: 0.8"/>
      </g>
     </g>
     <g id="text_8">
      <!-- 0.6 -->
      <g transform="translate(29.763 127.380928)scale(0.16 -0.16)">
       <defs>
        <path id="DejaVuSans-36" d="M 2113 2584 
Q 1688 2584 1439 2293 
Q 1191 2003 1191 1497 
Q 1191 994 1439 701 
Q 1688 409 2113 409 
Q 2538 409 2786 701 
Q 3034 994 3034 1497 
Q 3034 2003 2786 2293 
Q 2538 2584 2113 2584 
z
M 3366 4563 
L 3366 3988 
Q 3128 4100 2886 4159 
Q 2644 4219 2406 4219 
Q 1781 4219 1451 3797 
Q 1122 3375 1075 2522 
Q 1259 2794 1537 2939 
Q 1816 3084 2150 3084 
Q 2853 3084 3261 2657 
Q 3669 2231 3669 1497 
Q 3669 778 3244 343 
Q 2819 -91 2113 -91 
Q 1303 -91 875 529 
Q 447 1150 447 2328 
Q 447 3434 972 4092 
Q 1497 4750 2381 4750 
Q 2619 4750 2861 4703 
Q 3103 4656 3366 4563 
z
" transform="scale(0.015625)"/>
       </defs>
       <use xlink:href="#DejaVuSans-30"/>
       <use xlink:href="#DejaVuSans-2e" x="63.623047"/>
       <use xlink:href="#DejaVuSans-36" x="95.410156"/>
      </g>
     </g>
    </g>
    <g id="ytick_5">
     <g id="line2d_45">
      <path d="M 62.208 63.816238 
L 460.8 63.816238 
" clip-path="url(#pb944d686ff)" style="fill: none; stroke: #b0b0b0; stroke-width: 0.8; stroke-linecap: square"/>
     </g>
     <g id="line2d_46">
      <g>
       <use xlink:href="#m253371af54" x="62.208" y="63.816238" style="stroke: #000000; stroke-width: 0.8"/>
      </g>
     </g>
     <g id="text_9">
      <!-- 0.8 -->
      <g transform="translate(29.763 69.894988)scale(0.16 -0.16)">
       <defs>
        <path id="DejaVuSans-38" d="M 2034 2216 
Q 1584 2216 1326 1975 
Q 1069 1734 1069 1313 
Q 1069 891 1326 650 
Q 1584 409 2034 409 
Q 2484 409 2743 651 
Q 3003 894 3003 1313 
Q 3003 1734 2745 1975 
Q 2488 2216 2034 2216 
z
M 1403 2484 
Q 997 2584 770 2862 
Q 544 3141 544 3541 
Q 544 4100 942 4425 
Q 1341 4750 2034 4750 
Q 2731 4750 3128 4425 
Q 3525 4100 3525 3541 
Q 3525 3141 3298 2862 
Q 3072 2584 2669 2484 
Q 3125 2378 3379 2068 
Q 3634 1759 3634 1313 
Q 3634 634 3220 271 
Q 2806 -91 2034 -91 
Q 1263 -91 848 271 
Q 434 634 434 1313 
Q 434 1759 690 2068 
Q 947 2378 1403 2484 
z
M 1172 3481 
Q 1172 3119 1398 2916 
Q 1625 2713 2034 2713 
Q 2441 2713 2670 2916 
Q 2900 3119 2900 3481 
Q 2900 3844 2670 4047 
Q 2441 4250 2034 4250 
Q 1625 4250 1398 4047 
Q 1172 3844 1172 3481 
z
" transform="scale(0.015625)"/>
       </defs>
       <use xlink:href="#DejaVuSans-30"/>
       <use xlink:href="#DejaVuSans-2e" x="63.623047"/>
       <use xlink:href="#DejaVuSans-38" x="95.410156"/>
      </g>
     </g>
    </g>
    <g id="ytick_6">
     <g id="line2d_47">
      <path d="M 62.208 6.330297 
L 460.8 6.330297 
" clip-path="url(#pb944d686ff)" style="fill: none; stroke: #b0b0b0; stroke-width: 0.8; stroke-linecap: square"/>
     </g>
     <g id="line2d_48">
      <g>
       <use xlink:href="#m253371af54" x="62.208" y="6.330297" style="stroke: #000000; stroke-width: 0.8"/>
      </g>
     </g>
     <g id="text_10">
      <!-- 1.0 -->
      <g transform="translate(29.763 12.409047)scale(0.16 -0.16)">
       <use xlink:href="#DejaVuSans-31"/>
       <use xlink:href="#DejaVuSans-2e" x="63.623047"/>
       <use xlink:href="#DejaVuSans-30" x="95.410156"/>
      </g>
     </g>
    </g>
    <g id="text_11">
     <!-- proportion of trials -->
     <g transform="translate(21.603625 241.61425)rotate(-90)scale(0.2 -0.2)">
      <defs>
       <path id="DejaVuSans-70" d="M 1159 525 
L 1159 -1331 
L 581 -1331 
L 581 3500 
L 1159 3500 
L 1159 2969 
Q 1341 3281 1617 3432 
Q 1894 3584 2278 3584 
Q 2916 3584 3314 3078 
Q 3713 2572 3713 1747 
Q 3713 922 3314 415 
Q 2916 -91 2278 -91 
Q 1894 -91 1617 61 
Q 1341 213 1159 525 
z
M 3116 1747 
Q 3116 2381 2855 2742 
Q 2594 3103 2138 3103 
Q 1681 3103 1420 2742 
Q 1159 2381 1159 1747 
Q 1159 1113 1420 752 
Q 1681 391 2138 391 
Q 2594 391 2855 752 
Q 3116 1113 3116 1747 
z
" transform="scale(0.015625)"/>
       <path id="DejaVuSans-72" d="M 2631 2963 
Q 2534 3019 2420 3045 
Q 2306 3072 2169 3072 
Q 1681 3072 1420 2755 
Q 1159 2438 1159 1844 
L 1159 0 
L 581 0 
L 581 3500 
L 1159 3500 
L 1159 2956 
Q 1341 3275 1631 3429 
Q 1922 3584 2338 3584 
Q 2397 3584 2469 3576 
Q 2541 3569 2628 3553 
L 2631 2963 
z
" transform="scale(0.015625)"/>
       <path id="DejaVuSans-74" d="M 1172 4494 
L 1172 3500 
L 2356 3500 
L 2356 3053 
L 1172 3053 
L 1172 1153 
Q 1172 725 1289 603 
Q 1406 481 1766 481 
L 2356 481 
L 2356 0 
L 1766 0 
Q 1100 0 847 248 
Q 594 497 594 1153 
L 594 3053 
L 172 3053 
L 172 3500 
L 594 3500 
L 594 4494 
L 1172 4494 
z
" transform="scale(0.015625)"/>
       <path id="DejaVuSans-69" d="M 603 3500 
L 1178 3500 
L 1178 0 
L 603 0 
L 603 3500 
z
M 603 4863 
L 1178 4863 
L 1178 4134 
L 603 4134 
L 603 4863 
z
" transform="scale(0.015625)"/>
       <path id="DejaVuSans-6e" d="M 3513 2113 
L 3513 0 
L 2938 0 
L 2938 2094 
Q 2938 2591 2744 2837 
Q 2550 3084 2163 3084 
Q 1697 3084 1428 2787 
Q 1159 2491 1159 1978 
L 1159 0 
L 581 0 
L 581 3500 
L 1159 3500 
L 1159 2956 
Q 1366 3272 1645 3428 
Q 1925 3584 2291 3584 
Q 2894 3584 3203 3211 
Q 3513 2838 3513 2113 
z
" transform="scale(0.015625)"/>
      </defs>
      <use xlink:href="#DejaVuSans-70"/>
      <use xlink:href="#DejaVuSans-72" x="63.476562"/>
      <use xlink:href="#DejaVuSans-6f" x="102.339844"/>
      <use xlink:href="#DejaVuSans-70" x="163.521484"/>
      <use xlink:href="#DejaVuSans-6f" x="226.998047"/>
      <use xlink:href="#DejaVuSans-72" x="288.179688"/>
      <use xlink:href="#DejaVuSans-74" x="329.292969"/>
      <use xlink:href="#DejaVuSans-69" x="368.501953"/>
      <use xlink:href="#DejaVuSans-6f" x="396.285156"/>
      <use xlink:href="#DejaVuSans-6e" x="457.466797"/>
      <use xlink:href="#DejaVuSans-20" x="520.845703"/>
      <use xlink:href="#DejaVuSans-6f" x="552.632812"/>
      <use xlink:href="#DejaVuSans-66" x="613.814453"/>
      <use xlink:href="#DejaVuSans-20" x="649.019531"/>
      <use xlink:href="#DejaVuSans-74" x="680.806641"/>
      <use xlink:href="#DejaVuSans-72" x="720.015625"/>
      <use xlink:href="#DejaVuSans-69" x="761.128906"/>
      <use xlink:href="#DejaVuSans-61" x="788.912109"/>
      <use xlink:href="#DejaVuSans-6c" x="850.191406"/>
      <use xlink:href="#DejaVuSans-73" x="877.974609"/>
     </g>
    </g>
   </g>
   <g id="line2d_49">
    <path d="M 9.667274 293.76 
L 9.667274 213.279683 
L 32.295333 213.279683 
L 32.295333 205.614891 
L 45.531899 205.614891 
L 45.531899 201.782495 
L 81.396524 201.782495 
L 81.396524 197.950099 
L 84.836059 197.950099 
L 84.836059 194.117703 
L 95.820326 194.117703 
L 95.820326 190.285307 
L 109.056892 190.285307 
L 109.056892 186.452911 
L 121.771121 186.452911 
L 121.771121 182.620515 
L 125.732993 182.620515 
L 125.732993 178.788119 
L 129.265668 178.788119 
L 129.265668 174.955723 
L 132.453114 174.955723 
L 132.453114 171.123327 
L 133.203616 171.123327 
L 133.203616 163.458535 
L 137.376786 163.458535 
L 137.376786 159.626139 
L 138.02325 159.626139 
L 138.02325 155.793743 
L 140.488224 155.793743 
L 140.488224 151.961347 
L 141.076445 151.961347 
L 141.076445 148.12895 
L 145.941769 148.12895 
L 145.941769 144.296554 
L 149.73099 144.296554 
L 149.73099 140.464158 
L 153.125775 140.464158 
L 153.125775 136.631762 
L 157.28282 136.631762 
L 157.28282 132.799366 
L 162.818149 132.799366 
L 162.818149 128.96697 
L 163.704504 128.96697 
L 163.704504 121.302178 
L 163.994687 121.302178 
L 163.994687 117.469782 
L 166.762903 117.469782 
L 166.762903 113.637386 
L 171.908761 113.637386 
L 171.908761 109.80499 
L 177.134812 109.80499 
L 177.134812 105.972594 
L 182.632904 105.972594 
L 182.632904 102.140198 
L 182.957737 102.140198 
L 182.957737 98.307802 
L 188.9904 98.307802 
L 188.9904 94.475406 
L 189.655299 94.475406 
L 189.655299 90.64301 
L 190.177636 90.64301 
L 190.177636 86.810614 
L 191.072086 86.810614 
L 191.072086 82.978218 
L 191.6963 82.978218 
L 191.6963 79.145822 
L 194.875118 79.145822 
L 194.875118 75.313426 
L 194.987109 75.313426 
L 194.987109 71.48103 
L 195.978107 71.48103 
L 195.978107 67.648634 
L 200.337292 67.648634 
L 200.337292 63.816238 
L 201.456672 63.816238 
L 201.456672 56.151446 
L 201.821428 56.151446 
L 201.821428 52.31905 
L 202.361034 52.31905 
L 202.361034 44.654257 
L 204.850324 44.654257 
L 204.850324 40.821861 
L 205.423784 40.821861 
L 205.423784 36.989465 
L 208.149057 36.989465 
L 208.149057 33.157069 
L 210.246603 33.157069 
L 210.246603 29.324673 
L 211.348661 29.324673 
L 211.348661 25.492277 
L 211.952602 25.492277 
L 211.952602 21.659881 
L 213.383505 21.659881 
L 213.383505 17.827485 
L 216.937385 17.827485 
L 216.937385 13.995089 
L 260.927963 13.995089 
L 260.927963 10.162693 
L 263.135736 10.162693 
L 263.135736 6.330297 
L 263.135736 6.330297 
L 460.8 6.330297 
L 460.8 6.330297 
" clip-path="url(#pb944d686ff)" style="fill: none; stroke: #000000; stroke-width: 1.5; stroke-linecap: square"/>
   </g>
   <g id="line2d_50">
    <path clip-path="url(#pb944d686ff)" style="fill: none; stroke: #000000; stroke-width: 1.5; stroke-linecap: square"/>
   </g>
   <g id="line2d_51">
    <path d="M 194.194981 293.76 
L 194.194981 289.927604 
L 194.309326 289.927604 
L 194.309326 286.095208 
L 195.541373 286.095208 
L 195.651106 278.430416 
L 197.565716 278.430416 
L 197.565716 274.59802 
L 199.859312 274.59802 
L 199.859312 270.765624 
L 201.821428 270.765624 
L 201.821428 266.933228 
L 203.154078 266.933228 
L 203.154078 263.100832 
L 204.0979 263.100832 
L 204.0979 259.268436 
L 204.932866 259.268436 
L 205.0152 251.603644 
L 205.987343 251.603644 
L 205.987343 247.771248 
L 209.609944 247.771248 
L 209.609944 243.938851 
L 209.752501 243.938851 
L 209.752501 240.106455 
L 211.886046 240.106455 
L 211.886046 236.274059 
L 212.414728 236.274059 
L 212.414728 232.441663 
L 213.063763 232.441663 
L 213.063763 228.609267 
L 214.138345 228.609267 
L 214.138345 224.776871 
L 216.650768 224.776871 
L 216.650768 220.944475 
L 217.108154 220.944475 
L 217.16488 213.279683 
L 217.893477 213.279683 
L 217.893477 209.447287 
L 218.169432 209.447287 
L 218.279165 201.782495 
L 222.148573 201.782495 
L 222.148573 197.950099 
L 226.72596 197.950099 
L 226.72596 194.117703 
L 230.173951 194.117703 
L 230.173951 190.285307 
L 236.828527 190.285307 
L 236.828527 186.452911 
L 238.225659 186.452911 
L 238.225659 182.620515 
L 245.01899 182.620515 
L 245.01899 178.788119 
L 258.798328 178.788119 
L 258.798328 174.955723 
L 268.56368 174.955723 
L 268.56368 171.123327 
L 270.010231 171.123327 
L 270.010231 167.290931 
L 270.412025 167.290931 
L 270.412025 163.458535 
L 273.257167 163.458535 
L 273.257167 159.626139 
L 275.076212 159.626139 
L 275.076212 155.793743 
L 276.944842 155.793743 
L 276.944842 151.961347 
L 277.341971 151.961347 
L 277.341971 148.12895 
L 279.071585 148.12895 
L 279.071585 144.296554 
L 282.607968 144.296554 
L 282.607968 140.464158 
L 288.386416 140.464158 
L 288.386416 136.631762 
L 291.47226 136.631762 
L 291.47226 132.799366 
L 296.648896 132.799366 
L 296.648896 128.96697 
L 298.243089 128.96697 
L 298.243089 125.134574 
L 298.661294 125.134574 
L 298.661294 121.302178 
L 300.728176 121.302178 
L 300.728176 117.469782 
L 301.720908 117.469782 
L 301.720908 113.637386 
L 302.746195 113.637386 
L 302.746195 109.80499 
L 309.752771 109.80499 
L 309.752771 105.972594 
L 309.991229 105.972594 
L 309.991229 102.140198 
L 310.566896 102.140198 
L 310.566896 98.307802 
L 312.216898 98.307802 
L 312.216898 94.475406 
L 314.236783 94.475406 
L 314.236783 90.64301 
L 319.612898 90.64301 
L 319.612898 86.810614 
L 320.207086 86.810614 
L 320.207086 82.978218 
L 328.330268 82.978218 
L 328.381031 71.48103 
L 328.491684 71.48103 
L 328.491684 67.648634 
L 329.699174 67.648634 
L 329.699174 63.816238 
L 330.328192 63.816238 
L 330.328192 59.983842 
L 330.943582 59.983842 
L 330.943582 56.151446 
L 331.780338 56.151446 
L 331.780338 52.31905 
L 333.852924 52.31905 
L 333.852924 48.486653 
L 338.672559 48.486653 
L 338.672559 44.654257 
L 338.786127 44.654257 
L 338.786127 40.821861 
L 343.443592 40.821861 
L 343.443592 36.989465 
L 346.985527 36.989465 
L 346.985527 33.157069 
L 348.248571 33.157069 
L 348.248571 29.324673 
L 360.571562 29.324673 
L 360.571562 25.492277 
L 365.932198 25.492277 
L 365.932198 21.659881 
L 367.137121 21.659881 
L 367.137121 17.827485 
L 369.044988 17.827485 
L 369.044988 13.995089 
L 371.64591 13.995089 
L 371.64591 10.162693 
L 373.773068 10.162693 
L 373.773068 6.330297 
L 373.773068 6.330297 
L 460.8 6.330297 
L 460.8 6.330297 
" clip-path="url(#pb944d686ff)" style="fill: none; stroke: #00bfbf; stroke-width: 1.5; stroke-linecap: square"/>
   </g>
   <g id="line2d_52">
    <path clip-path="url(#pb944d686ff)" style="fill: none; stroke: #00bfbf; stroke-width: 1.5; stroke-linecap: square"/>
   </g>
   <g id="line2d_53">
    <path d="M 229.130137 293.76 
L 229.130137 289.927604 
L 230.627366 289.927604 
L 230.627366 286.095208 
L 230.739743 286.095208 
L 230.739743 282.262812 
L 236.610579 282.262812 
L 236.610579 278.430416 
L 237.564921 278.430416 
L 237.564921 274.59802 
L 239.42245 274.59802 
L 239.42245 270.765624 
L 243.0278 270.765624 
L 243.0278 266.933228 
L 246.94124 266.933228 
L 246.94124 263.100832 
L 271.907992 263.100832 
L 271.907992 259.268436 
L 273.236827 259.268436 
L 273.236827 255.43604 
L 273.520438 255.43604 
L 273.520438 251.603644 
L 273.661325 251.603644 
L 273.661325 247.771248 
L 274.611364 247.771248 
L 274.611364 243.938851 
L 276.853908 243.938851 
L 276.853908 240.106455 
L 278.305449 240.106455 
L 278.305449 236.274059 
L 278.68646 236.274059 
L 278.68646 232.441663 
L 280.397087 232.441663 
L 280.462378 220.944475 
L 281.378857 220.944475 
L 281.41847 213.279683 
L 282.177608 213.279683 
L 282.193076 205.614891 
L 283.010113 205.614891 
L 283.010113 201.782495 
L 283.175597 201.782495 
L 283.175597 197.950099 
L 283.340246 197.950099 
L 283.340246 194.117703 
L 284.999428 194.117703 
L 284.999428 190.285307 
L 289.226195 190.285307 
L 289.226195 186.452911 
L 294.023454 186.452911 
L 294.023454 182.620515 
L 294.873366 182.620515 
L 294.873366 178.788119 
L 298.861444 178.788119 
L 298.944865 171.123327 
L 299.645467 171.123327 
L 299.645467 167.290931 
L 301.353237 167.290931 
L 301.374727 159.626139 
L 303.074127 159.626139 
L 303.074127 155.793743 
L 303.305785 155.793743 
L 303.305785 151.961347 
L 305.528643 151.961347 
L 305.528643 148.12895 
L 305.705971 148.12895 
L 305.739818 140.464158 
L 307.969808 140.464158 
L 307.969808 136.631762 
L 309.148893 136.631762 
L 309.148893 132.799366 
L 312.046926 132.799366 
L 312.046926 128.96697 
L 312.164456 128.96697 
L 312.164456 125.134574 
L 313.146735 125.134574 
L 313.146735 121.302178 
L 314.132308 121.302178 
L 314.132308 117.469782 
L 316.343306 117.469782 
L 316.343306 113.637386 
L 320.173284 113.637386 
L 320.173284 109.80499 
L 320.823822 109.80499 
L 320.823822 105.972594 
L 322.375299 105.972594 
L 322.375299 102.140198 
L 323.748299 102.140198 
L 323.759122 94.475406 
L 330.134704 94.475406 
L 330.134704 90.64301 
L 330.27328 90.64301 
L 330.27328 86.810614 
L 330.444796 86.810614 
L 330.444796 79.145822 
L 332.25594 79.145822 
L 332.305953 71.48103 
L 333.411461 71.48103 
L 333.411461 67.648634 
L 333.792496 67.648634 
L 333.792496 63.816238 
L 345.921784 63.816238 
L 345.921784 59.983842 
L 348.743638 59.983842 
L 348.743638 56.151446 
L 373.230243 56.151446 
L 373.230243 52.31905 
L 379.19393 52.31905 
L 379.242225 44.654257 
L 383.021479 44.654257 
L 383.021479 40.821861 
L 385.960238 40.821861 
L 385.960238 36.989465 
L 391.16006 36.989465 
L 391.16006 33.157069 
L 400.705573 33.157069 
L 400.76496 25.492277 
L 403.201731 25.492277 
L 403.201731 21.659881 
L 405.245932 21.659881 
L 405.245932 17.827485 
L 405.44242 17.827485 
L 405.44242 13.995089 
L 408.553987 13.995089 
L 408.553987 10.162693 
L 409.059024 10.162693 
L 409.059024 6.330297 
L 409.059024 6.330297 
L 460.8 6.330297 
L 460.8 6.330297 
" clip-path="url(#pb944d686ff)" style="fill: none; stroke: #bf00bf; stroke-width: 1.5; stroke-linecap: square"/>
   </g>
   <g id="line2d_54">
    <path clip-path="url(#pb944d686ff)" style="fill: none; stroke: #bf00bf; stroke-width: 1.5; stroke-linecap: square"/>
   </g>
   <g id="line2d_55">
    <path d="M 240.382678 293.76 
L 240.382678 289.927604 
L 275.401521 289.927604 
L 275.401521 286.095208 
L 277.6811 286.095208 
L 277.6811 282.262812 
L 277.93756 282.262812 
L 277.93756 278.430416 
L 280.118135 278.430416 
L 280.118135 274.59802 
L 283.370093 274.59802 
L 283.370093 270.765624 
L 285.833032 270.765624 
L 285.833032 266.933228 
L 286.659369 266.933228 
L 286.659369 263.100832 
L 288.258244 263.100832 
L 288.258244 259.268436 
L 288.609513 259.268436 
L 288.609513 255.43604 
L 288.938182 255.43604 
L 288.938182 251.603644 
L 289.331994 251.603644 
L 289.331994 247.771248 
L 290.341442 247.771248 
L 290.341442 243.938851 
L 291.773461 243.938851 
L 291.773461 240.106455 
L 292.514527 240.106455 
L 292.514527 236.274059 
L 292.923405 236.274059 
L 292.923405 232.441663 
L 295.27981 232.441663 
L 295.27981 228.609267 
L 297.131956 228.609267 
L 297.131956 224.776871 
L 298.34225 224.776871 
L 298.34225 220.944475 
L 301.635772 220.944475 
L 301.669853 213.279683 
L 302.356617 213.279683 
L 302.356617 209.447287 
L 303.995023 209.447287 
L 304.086095 201.782495 
L 308.081955 201.782495 
L 308.081955 197.950099 
L 308.86663 197.950099 
L 308.870045 190.285307 
L 308.999563 190.285307 
L 308.999563 186.452911 
L 309.213165 186.452911 
L 309.213165 182.620515 
L 309.789315 182.620515 
L 309.789315 178.788119 
L 310.728603 178.788119 
L 310.728603 174.955723 
L 310.976076 174.955723 
L 311.043245 167.290931 
L 311.635345 167.290931 
L 311.679245 159.626139 
L 312.352241 159.626139 
L 312.352241 155.793743 
L 312.557261 155.793743 
L 312.557261 151.961347 
L 313.969125 151.961347 
L 313.969125 148.12895 
L 314.129402 148.12895 
L 314.129402 144.296554 
L 314.967392 144.296554 
L 314.967392 140.464158 
L 315.148222 140.464158 
L 315.148222 136.631762 
L 315.623744 136.631762 
L 315.651501 128.96697 
L 317.296289 128.96697 
L 317.296289 125.134574 
L 319.037721 125.134574 
L 319.037721 121.302178 
L 322.023403 121.302178 
L 322.023403 117.469782 
L 322.957189 117.469782 
L 322.957189 113.637386 
L 324.967995 113.637386 
L 324.967995 109.80499 
L 325.966227 109.80499 
L 325.966227 105.972594 
L 329.24861 105.972594 
L 329.24861 102.140198 
L 332.528416 102.140198 
L 332.528416 98.307802 
L 332.711553 98.307802 
L 332.757588 86.810614 
L 333.022667 86.810614 
L 333.022667 82.978218 
L 333.472598 82.978218 
L 333.472598 79.145822 
L 334.640884 79.145822 
L 334.640884 75.313426 
L 334.994111 75.313426 
L 334.994111 71.48103 
L 335.603584 71.48103 
L 335.603584 67.648634 
L 336.218146 67.648634 
L 336.218146 63.816238 
L 346.938742 63.816238 
L 346.938742 59.983842 
L 350.641631 59.983842 
L 350.641631 56.151446 
L 373.871141 56.151446 
L 373.871141 52.31905 
L 379.795653 52.31905 
L 379.795653 48.486653 
L 379.959365 48.486653 
L 379.959365 44.654257 
L 383.751724 44.654257 
L 383.751724 40.821861 
L 386.609007 40.821861 
L 386.609007 36.989465 
L 391.820837 36.989465 
L 391.820837 33.157069 
L 401.488313 33.157069 
L 401.488313 29.324673 
L 401.619124 29.324673 
L 401.619124 25.492277 
L 403.913743 25.492277 
L 403.913743 21.659881 
L 406.139104 21.659881 
L 406.199441 13.995089 
L 409.205801 13.995089 
L 409.205801 10.162693 
L 409.700152 10.162693 
L 409.700152 6.330297 
L 409.700152 6.330297 
L 460.8 6.330297 
L 460.8 6.330297 
" clip-path="url(#pb944d686ff)" style="fill: none; stroke: #ff0000; stroke-width: 3; stroke-linecap: square"/>
   </g>
   <g id="line2d_56">
    <path clip-path="url(#pb944d686ff)" style="fill: none; stroke: #ff0000; stroke-width: 3; stroke-linecap: square"/>
   </g>
   <g id="line2d_57">
    <path d="M 409.700152 293.76 
L 409.700152 3.456 
" clip-path="url(#pb944d686ff)" style="fill: none; stroke: #000000; stroke-width: 1.5; stroke-linecap: square"/>
   </g>
   <g id="patch_3">
    <path d="M 62.208 293.76 
L 62.208 3.456 
" style="fill: none; stroke: #000000; stroke-width: 0.8; stroke-linejoin: miter; stroke-linecap: square"/>
   </g>
   <g id="patch_4">
    <path d="M 460.8 293.76 
L 460.8 3.456 
" style="fill: none; stroke: #000000; stroke-width: 0.8; stroke-linejoin: miter; stroke-linecap: square"/>
   </g>
   <g id="patch_5">
    <path d="M 62.208 293.76 
L 460.8 293.76 
" style="fill: none; stroke: #000000; stroke-width: 0.8; stroke-linejoin: miter; stroke-linecap: square"/>
   </g>
   <g id="patch_6">
    <path d="M 62.208 3.456 
L 460.8 3.456 
" style="fill: none; stroke: #000000; stroke-width: 0.8; stroke-linejoin: miter; stroke-linecap: square"/>
   </g>
   <g id="text_12">
    <!-- {f15-f19}, 5-D -->
    <g transform="translate(188.654 24.458955)scale(0.2 -0.2)">
     <defs>
      <path id="DejaVuSans-7b" d="M 3272 -594 
L 3272 -1044 
L 3078 -1044 
Q 2300 -1044 2036 -812 
Q 1772 -581 1772 109 
L 1772 856 
Q 1772 1328 1603 1509 
Q 1434 1691 991 1691 
L 800 1691 
L 800 2138 
L 991 2138 
Q 1438 2138 1605 2317 
Q 1772 2497 1772 2963 
L 1772 3713 
Q 1772 4403 2036 4633 
Q 2300 4863 3078 4863 
L 3272 4863 
L 3272 4416 
L 3059 4416 
Q 2619 4416 2484 4278 
Q 2350 4141 2350 3700 
L 2350 2925 
Q 2350 2434 2208 2212 
Q 2066 1991 1722 1913 
Q 2069 1828 2209 1606 
Q 2350 1384 2350 897 
L 2350 122 
Q 2350 -319 2484 -456 
Q 2619 -594 3059 -594 
L 3272 -594 
z
" transform="scale(0.015625)"/>
      <path id="DejaVuSans-35" d="M 691 4666 
L 3169 4666 
L 3169 4134 
L 1269 4134 
L 1269 2991 
Q 1406 3038 1543 3061 
Q 1681 3084 1819 3084 
Q 2600 3084 3056 2656 
Q 3513 2228 3513 1497 
Q 3513 744 3044 326 
Q 2575 -91 1722 -91 
Q 1428 -91 1123 -41 
Q 819 9 494 109 
L 494 744 
Q 775 591 1075 516 
Q 1375 441 1709 441 
Q 2250 441 2565 725 
Q 2881 1009 2881 1497 
Q 2881 1984 2565 2268 
Q 2250 2553 1709 2553 
Q 1456 2553 1204 2497 
Q 953 2441 691 2322 
L 691 4666 
z
" transform="scale(0.015625)"/>
      <path id="DejaVuSans-2d" d="M 313 2009 
L 1997 2009 
L 1997 1497 
L 313 1497 
L 313 2009 
z
" transform="scale(0.015625)"/>
      <path id="DejaVuSans-39" d="M 703 97 
L 703 672 
Q 941 559 1184 500 
Q 1428 441 1663 441 
Q 2288 441 2617 861 
Q 2947 1281 2994 2138 
Q 2813 1869 2534 1725 
Q 2256 1581 1919 1581 
Q 1219 1581 811 2004 
Q 403 2428 403 3163 
Q 403 3881 828 4315 
Q 1253 4750 1959 4750 
Q 2769 4750 3195 4129 
Q 3622 3509 3622 2328 
Q 3622 1225 3098 567 
Q 2575 -91 1691 -91 
Q 1453 -91 1209 -44 
Q 966 3 703 97 
z
M 1959 2075 
Q 2384 2075 2632 2365 
Q 2881 2656 2881 3163 
Q 2881 3666 2632 3958 
Q 2384 4250 1959 4250 
Q 1534 4250 1286 3958 
Q 1038 3666 1038 3163 
Q 1038 2656 1286 2365 
Q 1534 2075 1959 2075 
z
" transform="scale(0.015625)"/>
      <path id="DejaVuSans-7d" d="M 800 -594 
L 1019 -594 
Q 1456 -594 1589 -459 
Q 1722 -325 1722 122 
L 1722 897 
Q 1722 1384 1862 1606 
Q 2003 1828 2350 1913 
Q 2003 1991 1862 2212 
Q 1722 2434 1722 2925 
L 1722 3700 
Q 1722 4144 1589 4280 
Q 1456 4416 1019 4416 
L 800 4416 
L 800 4863 
L 997 4863 
Q 1775 4863 2036 4633 
Q 2297 4403 2297 3713 
L 2297 2963 
Q 2297 2497 2465 2317 
Q 2634 2138 3078 2138 
L 3272 2138 
L 3272 1691 
L 3078 1691 
Q 2634 1691 2465 1509 
Q 2297 1328 2297 856 
L 2297 109 
Q 2297 -581 2036 -812 
Q 1775 -1044 997 -1044 
L 800 -1044 
L 800 -594 
z
" transform="scale(0.015625)"/>
      <path id="DejaVuSans-2c" d="M 750 794 
L 1409 794 
L 1409 256 
L 897 -744 
L 494 -744 
L 750 256 
L 750 794 
z
" transform="scale(0.015625)"/>
     </defs>
     <use xlink:href="#DejaVuSans-7b"/>
     <use xlink:href="#DejaVuSans-66" x="63.623047"/>
     <use xlink:href="#DejaVuSans-31" x="98.828125"/>
     <use xlink:href="#DejaVuSans-35" x="162.451172"/>
     <use xlink:href="#DejaVuSans-2d" x="226.074219"/>
     <use xlink:href="#DejaVuSans-66" x="262.158203"/>
     <use xlink:href="#DejaVuSans-31" x="297.363281"/>
     <use xlink:href="#DejaVuSans-39" x="360.986328"/>
     <use xlink:href="#DejaVuSans-7d" x="424.609375"/>
     <use xlink:href="#DejaVuSans-2c" x="488.232422"/>
     <use xlink:href="#DejaVuSans-20" x="520.019531"/>
     <use xlink:href="#DejaVuSans-35" x="551.806641"/>
     <use xlink:href="#DejaVuSans-2d" x="615.429688"/>
     <use xlink:href="#DejaVuSans-44" x="651.513672"/>
    </g>
   </g>
   <g id="text_13">
    <!-- absolute targets -->
    <g transform="translate(62.208 609.932673)scale(0.14 -0.14)">
     <defs>
      <path id="DejaVuSans-62" d="M 3116 1747 
Q 3116 2381 2855 2742 
Q 2594 3103 2138 3103 
Q 1681 3103 1420 2742 
Q 1159 2381 1159 1747 
Q 1159 1113 1420 752 
Q 1681 391 2138 391 
Q 2594 391 2855 752 
Q 3116 1113 3116 1747 
z
M 1159 2969 
Q 1341 3281 1617 3432 
Q 1894 3584 2278 3584 
Q 2916 3584 3314 3078 
Q 3713 2572 3713 1747 
Q 3713 922 3314 415 
Q 2916 -91 2278 -91 
Q 1894 -91 1617 61 
Q 1341 213 1159 525 
L 1159 0 
L 581 0 
L 581 4863 
L 1159 4863 
L 1159 2969 
z
" transform="scale(0.015625)"/>
      <path id="DejaVuSans-75" d="M 544 1381 
L 544 3500 
L 1119 3500 
L 1119 1403 
Q 1119 906 1312 657 
Q 1506 409 1894 409 
Q 2359 409 2629 706 
Q 2900 1003 2900 1516 
L 2900 3500 
L 3475 3500 
L 3475 0 
L 2900 0 
L 2900 538 
Q 2691 219 2414 64 
Q 2138 -91 1772 -91 
Q 1169 -91 856 284 
Q 544 659 544 1381 
z
M 1991 3584 
L 1991 3584 
z
" transform="scale(0.015625)"/>
      <path id="DejaVuSans-65" d="M 3597 1894 
L 3597 1613 
L 953 1613 
Q 991 1019 1311 708 
Q 1631 397 2203 397 
Q 2534 397 2845 478 
Q 3156 559 3463 722 
L 3463 178 
Q 3153 47 2828 -22 
Q 2503 -91 2169 -91 
Q 1331 -91 842 396 
Q 353 884 353 1716 
Q 353 2575 817 3079 
Q 1281 3584 2069 3584 
Q 2775 3584 3186 3129 
Q 3597 2675 3597 1894 
z
M 3022 2063 
Q 3016 2534 2758 2815 
Q 2500 3097 2075 3097 
Q 1594 3097 1305 2825 
Q 1016 2553 972 2059 
L 3022 2063 
z
" transform="scale(0.015625)"/>
     </defs>
     <use xlink:href="#DejaVuSans-61"/>
     <use xlink:href="#DejaVuSans-62" x="61.279297"/>
     <use xlink:href="#DejaVuSans-73" x="124.755859"/>
     <use xlink:href="#DejaVuSans-6f" x="176.855469"/>
     <use xlink:href="#DejaVuSans-6c" x="238.037109"/>
     <use xlink:href="#DejaVuSans-75" x="265.820312"/>
     <use xlink:href="#DejaVuSans-74" x="329.199219"/>
     <use xlink:href="#DejaVuSans-65" x="368.408203"/>
     <use xlink:href="#DejaVuSans-20" x="429.931641"/>
     <use xlink:href="#DejaVuSans-74" x="461.71875"/>
     <use xlink:href="#DejaVuSans-61" x="500.927734"/>
     <use xlink:href="#DejaVuSans-72" x="562.207031"/>
     <use xlink:href="#DejaVuSans-67" x="601.570312"/>
     <use xlink:href="#DejaVuSans-65" x="665.046875"/>
     <use xlink:href="#DejaVuSans-74" x="726.570312"/>
     <use xlink:href="#DejaVuSans-73" x="765.779297"/>
    </g>
   </g>
   <g id="text_14">
    <!-- v2.6.3 -->
    <g style="fill: #808080" transform="translate(245.82275 288.777272)scale(0.1 -0.1)">
     <defs>
      <path id="DejaVuSans-33" d="M 2597 2516 
Q 3050 2419 3304 2112 
Q 3559 1806 3559 1356 
Q 3559 666 3084 287 
Q 2609 -91 1734 -91 
Q 1441 -91 1130 -33 
Q 819 25 488 141 
L 488 750 
Q 750 597 1062 519 
Q 1375 441 1716 441 
Q 2309 441 2620 675 
Q 2931 909 2931 1356 
Q 2931 1769 2642 2001 
Q 2353 2234 1838 2234 
L 1294 2234 
L 1294 2753 
L 1863 2753 
Q 2328 2753 2575 2939 
Q 2822 3125 2822 3475 
Q 2822 3834 2567 4026 
Q 2313 4219 1838 4219 
Q 1578 4219 1281 4162 
Q 984 4106 628 3988 
L 628 4550 
Q 988 4650 1302 4700 
Q 1616 4750 1894 4750 
Q 2613 4750 3031 4423 
Q 3450 4097 3450 3541 
Q 3450 3153 3228 2886 
Q 3006 2619 2597 2516 
z
" transform="scale(0.015625)"/>
     </defs>
     <use xlink:href="#DejaVuSans-76"/>
     <use xlink:href="#DejaVuSans-32" x="59.179688"/>
     <use xlink:href="#DejaVuSans-2e" x="122.802734"/>
     <use xlink:href="#DejaVuSans-36" x="154.589844"/>
     <use xlink:href="#DejaVuSans-2e" x="218.212891"/>
     <use xlink:href="#DejaVuSans-33" x="250"/>
    </g>
   </g>
   <g id="legend_1">
    <g id="patch_7">
     <path d="M 76.208 283.76 
L 205.429875 283.76 
Q 209.429875 283.76 209.429875 279.76 
L 209.429875 164.335 
Q 209.429875 160.335 205.429875 160.335 
L 76.208 160.335 
Q 72.208 160.335 72.208 164.335 
L 72.208 279.76 
Q 72.208 283.76 76.208 283.76 
z
" style="fill: #ffffff; opacity: 0.2; stroke: #cccccc; stroke-linejoin: miter"/>
    </g>
    <g id="line2d_58">
     <path d="M 80.208 176.531875 
L 80.208 176.531875 
L 100.208 176.531875 
L 100.208 176.531875 
L 120.208 176.531875 
" style="fill: none; stroke: #000000; stroke-width: 1.5; stroke-linecap: square"/>
    </g>
    <g id="text_15">
     <!-- 1: 5/5 -->
     <g transform="translate(136.208 183.531875)scale(0.2 -0.2)">
      <defs>
       <path id="DejaVuSans-3a" d="M 750 794 
L 1409 794 
L 1409 0 
L 750 0 
L 750 794 
z
M 750 3309 
L 1409 3309 
L 1409 2516 
L 750 2516 
L 750 3309 
z
" transform="scale(0.015625)"/>
      </defs>
      <use xlink:href="#DejaVuSans-31"/>
      <use xlink:href="#DejaVuSans-3a" x="63.623047"/>
      <use xlink:href="#DejaVuSans-20" x="97.314453"/>
      <use xlink:href="#DejaVuSans-35" x="129.101562"/>
      <use xlink:href="#DejaVuSans-2f" x="192.724609"/>
      <use xlink:href="#DejaVuSans-35" x="226.416016"/>
     </g>
    </g>
    <g id="line2d_59">
     <path d="M 80.208 205.888125 
L 80.208 205.888125 
L 100.208 205.888125 
L 100.208 205.888125 
L 120.208 205.888125 
" style="fill: none; stroke: #00bfbf; stroke-width: 1.5; stroke-linecap: square"/>
    </g>
    <g id="text_16">
     <!-- -1: 5/5 -->
     <g transform="translate(136.208 212.888125)scale(0.2 -0.2)">
      <use xlink:href="#DejaVuSans-2d"/>
      <use xlink:href="#DejaVuSans-31" x="36.083984"/>
      <use xlink:href="#DejaVuSans-3a" x="99.707031"/>
      <use xlink:href="#DejaVuSans-20" x="133.398438"/>
      <use xlink:href="#DejaVuSans-35" x="165.185547"/>
      <use xlink:href="#DejaVuSans-2f" x="228.808594"/>
      <use xlink:href="#DejaVuSans-35" x="262.5"/>
     </g>
    </g>
    <g id="line2d_60">
     <path d="M 80.208 235.244375 
L 80.208 235.244375 
L 100.208 235.244375 
L 100.208 235.244375 
L 120.208 235.244375 
" style="fill: none; stroke: #bf00bf; stroke-width: 1.5; stroke-linecap: square"/>
    </g>
    <g id="text_17">
     <!-- -4: 5/5 -->
     <g transform="translate(136.208 242.244375)scale(0.2 -0.2)">
      <use xlink:href="#DejaVuSans-2d"/>
      <use xlink:href="#DejaVuSans-34" x="36.083984"/>
      <use xlink:href="#DejaVuSans-3a" x="99.707031"/>
      <use xlink:href="#DejaVuSans-20" x="133.398438"/>
      <use xlink:href="#DejaVuSans-35" x="165.185547"/>
      <use xlink:href="#DejaVuSans-2f" x="228.808594"/>
      <use xlink:href="#DejaVuSans-35" x="262.5"/>
     </g>
    </g>
    <g id="line2d_61">
     <path d="M 80.208 264.600625 
L 80.208 264.600625 
L 100.208 264.600625 
L 100.208 264.600625 
L 120.208 264.600625 
" style="fill: none; stroke: #ff0000; stroke-width: 3; stroke-linecap: square"/>
    </g>
    <g id="text_18">
     <!-- -8: 5/5 -->
     <g transform="translate(136.208 271.600625)scale(0.2 -0.2)">
      <use xlink:href="#DejaVuSans-2d"/>
      <use xlink:href="#DejaVuSans-38" x="36.083984"/>
      <use xlink:href="#DejaVuSans-3a" x="99.707031"/>
      <use xlink:href="#DejaVuSans-20" x="133.398438"/>
      <use xlink:href="#DejaVuSans-35" x="165.185547"/>
      <use xlink:href="#DejaVuSans-2f" x="228.808594"/>
      <use xlink:href="#DejaVuSans-35" x="262.5"/>
     </g>
    </g>
   </g>
  </g>
 </g>
 <defs>
  <clipPath id="pb944d686ff">
   <rect x="62.208" y="3.456" width="398.592" height="290.304"/>
  </clipPath>
 </defs>
</svg>
